<svg xmlns="http://www.w3.org/2000/svg" xmlns:xlink="http://www.w3.org/1999/xlink" width="1024" height="400">\n<path  d="M 0 0
L 1024 0
L 1024 400
L 0 400
L 0 0" style="stroke-width:0;stroke:rgba(255,255,255,1.0);fill:rgba(255,255,255,1.0)"/><path  d="M 38 11
L 969 11
L 969 351
L 38 351
L 38 11" style="stroke-width:0;stroke:rgba(255,255,255,1.0);fill:rgba(255,255,255,1.0)"/><path  d="M 38 351
L 969 351" style="stroke-width:1;stroke:rgba(51,51,51,1.0);fill:none"/><path  d="M 38 351
L 38 356" style="stroke-width:1;stroke:rgba(51,51,51,1.0);fill:none"/><text x="5" y="373" style="stroke-width:0;stroke:none;fill:rgba(51,51,51,1.0);font-size:12.8px;font-family:'Roboto Medium',sans-serif">2020-02-26</text><path  d="M 155 351
L 155 356" style="stroke-width:1;stroke:rgba(51,51,51,1.0);fill:none"/><text x="122" y="373" style="stroke-width:0;stroke:none;fill:rgba(51,51,51,1.0);font-size:12.8px;font-family:'Roboto Medium',sans-serif">2020-04-08</text><path  d="M 271 351
L 271 356" style="stroke-width:1;stroke:rgba(51,51,51,1.0);fill:none"/><text x="238" y="373" style="stroke-width:0;stroke:none;fill:rgba(51,51,51,1.0);font-size:12.8px;font-family:'Roboto Medium',sans-serif">2020-05-21</text><path  d="M 388 351
L 388 356" style="stroke-width:1;stroke:rgba(51,51,51,1.0);fill:none"/><text x="355" y="373" style="stroke-width:0;stroke:none;fill:rgba(51,51,51,1.0);font-size:12.8px;font-family:'Roboto Medium',sans-serif">2020-07-02</text><path  d="M 504 351
L 504 356" style="stroke-width:1;stroke:rgba(51,51,51,1.0);fill:none"/><text x="471" y="373" style="stroke-width:0;stroke:none;fill:rgba(51,51,51,1.0);font-size:12.8px;font-family:'Roboto Medium',sans-serif">2020-08-14</text><path  d="M 620 351
L 620 356" style="stroke-width:1;stroke:rgba(51,51,51,1.0);fill:none"/><text x="587" y="373" style="stroke-width:0;stroke:none;fill:rgba(51,51,51,1.0);font-size:12.8px;font-family:'Roboto Medium',sans-serif">2020-09-25</text><path  d="M 737 351
L 737 356" style="stroke-width:1;stroke:rgba(51,51,51,1.0);fill:none"/><text x="704" y="373" style="stroke-width:0;stroke:none;fill:rgba(51,51,51,1.0);font-size:12.8px;font-family:'Roboto Medium',sans-serif">2020-11-07</text><path  d="M 853 351
L 853 356" style="stroke-width:1;stroke:rgba(51,51,51,1.0);fill:none"/><text x="820" y="373" style="stroke-width:0;stroke:none;fill:rgba(51,51,51,1.0);font-size:12.8px;font-family:'Roboto Medium',sans-serif">2020-12-19</text><path  d="M 969 351
L 969 356" style="stroke-width:1;stroke:rgba(51,51,51,1.0);fill:none"/><text x="936" y="373" style="stroke-width:0;stroke:none;fill:rgba(51,51,51,1.0);font-size:12.8px;font-family:'Roboto Medium',sans-serif">2021-01-31</text><text x="485" y="395" style="stroke-width:0;stroke:none;fill:rgba(51,51,51,1.0);font-size:12.8px;font-family:'Roboto Medium',sans-serif">Datum</text><path  d="M 970 351
L 970 11" style="stroke-width:1;stroke:rgba(51,51,51,1.0);fill:none"/><path  d="M 970 351
L 975 351" style="stroke-width:1;stroke:rgba(51,51,51,1.0);fill:none"/><text x="980" y="357" style="stroke-width:0;stroke:none;fill:rgba(51,51,51,1.0);font-size:12.8px;font-family:'Roboto Medium',sans-serif">0.00</text><path  d="M 970 308
L 975 308" style="stroke-width:1;stroke:rgba(51,51,51,1.0);fill:none"/><text x="980" y="314" style="stroke-width:0;stroke:none;fill:rgba(51,51,51,1.0);font-size:12.8px;font-family:'Roboto Medium',sans-serif">102.00</text><path  d="M 970 265
L 975 265" style="stroke-width:1;stroke:rgba(51,51,51,1.0);fill:none"/><text x="980" y="271" style="stroke-width:0;stroke:none;fill:rgba(51,51,51,1.0);font-size:12.8px;font-family:'Roboto Medium',sans-serif">203.00</text><path  d="M 970 223
L 975 223" style="stroke-width:1;stroke:rgba(51,51,51,1.0);fill:none"/><text x="980" y="229" style="stroke-width:0;stroke:none;fill:rgba(51,51,51,1.0);font-size:12.8px;font-family:'Roboto Medium',sans-serif">304.00</text><path  d="M 970 181
L 975 181" style="stroke-width:1;stroke:rgba(51,51,51,1.0);fill:none"/><text x="980" y="187" style="stroke-width:0;stroke:none;fill:rgba(51,51,51,1.0);font-size:12.8px;font-family:'Roboto Medium',sans-serif">405.00</text><path  d="M 970 138
L 975 138" style="stroke-width:1;stroke:rgba(51,51,51,1.0);fill:none"/><text x="980" y="144" style="stroke-width:0;stroke:none;fill:rgba(51,51,51,1.0);font-size:12.8px;font-family:'Roboto Medium',sans-serif">507.00</text><path  d="M 970 95
L 975 95" style="stroke-width:1;stroke:rgba(51,51,51,1.0);fill:none"/><text x="980" y="101" style="stroke-width:0;stroke:none;fill:rgba(51,51,51,1.0);font-size:12.8px;font-family:'Roboto Medium',sans-serif">608.00</text><path  d="M 970 53
L 975 53" style="stroke-width:1;stroke:rgba(51,51,51,1.0);fill:none"/><text x="980" y="59" style="stroke-width:0;stroke:none;fill:rgba(51,51,51,1.0);font-size:12.8px;font-family:'Roboto Medium',sans-serif">709.00</text><path  d="M 970 11
L 975 11" style="stroke-width:1;stroke:rgba(51,51,51,1.0);fill:none"/><text x="980" y="17" style="stroke-width:0;stroke:none;fill:rgba(51,51,51,1.0);font-size:12.8px;font-family:'Roboto Medium',sans-serif">810.00</text><path  d="M 38 351
L 41 351
L 44 351
L 47 351
L 49 351
L 52 351
L 55 351
L 58 351
L 60 351
L 63 351
L 66 351
L 69 351
L 71 351
L 74 350
L 77 350
L 80 349
L 82 348
L 85 343
L 88 340
L 91 340
L 93 338
L 96 333
L 99 331
L 101 332
L 104 333
L 107 332
L 110 328
L 112 327
L 115 327
L 118 322
L 121 316
L 123 316
L 126 316
L 129 318
L 132 318
L 134 319
L 137 323
L 140 326
L 143 327
L 145 331
L 148 331
L 151 334
L 154 335
L 156 335
L 159 337
L 162 334
L 164 335
L 167 338
L 170 338
L 173 339
L 175 341
L 178 343
L 181 346
L 184 346
L 186 345
L 189 347
L 192 347
L 195 347
L 197 348
L 200 348
L 203 348
L 206 349
L 208 348
L 211 348
L 214 349
L 216 349
L 219 349
L 222 349
L 225 349
L 227 350
L 230 351
L 233 350
L 236 350
L 238 350
L 241 350
L 244 350
L 247 350
L 249 350
L 252 350
L 255 350
L 258 350
L 260 350
L 263 350
L 266 350
L 269 351
L 271 351
L 274 351
L 277 351
L 279 351
L 282 351
L 285 351
L 288 350
L 290 350
L 293 350
L 296 350
L 299 350
L 301 350
L 304 350
L 307 351
L 310 351
L 312 350
L 315 350
L 318 350
L 321 350
L 323 350
L 326 350
L 329 350
L 331 351
L 334 351
L 337 351
L 340 351
L 342 351
L 345 351
L 348 351
L 351 351
L 353 351
L 356 351
L 359 351
L 362 351
L 364 351
L 367 351
L 370 351
L 373 351
L 375 351
L 378 351
L 381 351
L 384 351
L 386 351
L 389 350
L 392 350
L 394 350
L 397 350
L 400 349
L 403 348
L 405 348
L 408 349
L 411 348
L 414 348
L 416 349
L 419 349
L 422 350
L 425 350
L 427 350
L 430 350
L 433 350
L 436 350
L 438 350
L 441 349
L 444 348
L 446 348
L 449 349
L 452 348
L 455 347
L 457 347
L 460 348
L 463 348
L 466 348
L 468 348
L 471 348
L 474 349
L 477 349
L 479 349
L 482 350
L 485 351
L 488 351
L 490 350
L 493 350
L 496 349
L 499 349
L 501 349
L 504 348
L 507 348
L 509 348
L 512 348
L 515 347
L 518 347
L 520 348
L 523 348
L 526 348
L 529 348
L 531 349
L 534 349
L 537 349
L 540 349
L 542 349
L 545 349
L 548 348
L 551 347
L 553 348
L 556 348
L 559 348
L 562 349
L 564 349
L 567 350
L 570 349
L 572 348
L 575 348
L 578 347
L 581 347
L 583 347
L 586 347
L 589 348
L 592 348
L 594 347
L 597 347
L 600 347
L 603 347
L 605 348
L 608 348
L 611 348
L 614 348
L 616 347
L 619 347
L 622 346
L 624 346
L 627 346
L 630 345
L 633 344
L 635 344
L 638 338
L 641 337
L 644 337
L 646 335
L 649 336
L 652 335
L 655 332
L 657 338
L 660 338
L 663 336
L 666 335
L 668 334
L 671 333
L 674 332
L 677 327
L 679 317
L 682 314
L 685 312
L 687 304
L 690 300
L 693 286
L 696 278
L 698 273
L 701 267
L 704 257
L 707 248
L 709 243
L 712 229
L 715 221
L 718 214
L 720 192
L 723 167
L 726 166
L 729 143
L 731 138
L 734 114
L 737 107
L 739 97
L 742 95
L 745 65
L 748 63
L 750 61
L 753 62
L 756 50
L 759 46
L 761 42
L 764 45
L 767 54
L 770 42
L 772 27
L 775 14
L 778 47
L 781 50
L 783 68
L 786 49
L 789 66
L 792 91
L 794 121
L 797 106
L 800 122
L 802 128
L 805 151
L 808 161
L 811 170
L 813 164
L 816 175
L 819 178
L 822 182
L 824 190
L 827 187
L 830 189
L 833 192
L 835 189
L 838 186
L 841 188
L 844 178
L 846 186
L 849 192
L 852 201
L 854 205
L 857 215
L 860 206
L 863 213
L 865 214
L 868 227
L 871 224
L 874 223
L 876 225
L 879 217
L 882 213
L 885 212
L 887 205
L 890 213
L 893 218
L 896 216
L 898 238
L 901 245
L 904 255
L 907 251
L 909 251
L 912 249
L 915 258
L 917 260
L 920 268
L 923 273
L 926 279
L 928 282
L 931 289
L 934 289
L 937 291
L 939 294
L 942 291
L 945 298
L 948 302
L 950 307
L 953 303
L 956 303
L 959 302
L 961 304
L 964 299
L 967 300
L 969 301" style="stroke-width:1;stroke:rgba(0,116,217,1.0);fill:none"/><path  d="M 38 351
L 41 351
L 44 351
L 47 351
L 49 351
L 52 351
L 55 351
L 58 351
L 60 351
L 63 351
L 66 351
L 69 351
L 71 351
L 74 350
L 77 351
L 80 350
L 82 348
L 85 345
L 88 347
L 91 350
L 93 348
L 96 345
L 99 348
L 101 349
L 104 347
L 107 345
L 110 345
L 112 347
L 115 345
L 118 341
L 121 342
L 123 348
L 126 345
L 129 347
L 132 346
L 134 347
L 137 346
L 140 345
L 143 349
L 145 349
L 148 348
L 151 349
L 154 348
L 156 347
L 159 347
L 162 346
L 164 350
L 167 351
L 170 349
L 173 349
L 175 350
L 178 349
L 181 350
L 184 351
L 186 350
L 189 351
L 192 350
L 195 350
L 197 350
L 200 351
L 203 351
L 206 351
L 208 350
L 211 350
L 214 351
L 216 351
L 219 351
L 222 351
L 225 351
L 227 351
L 230 351
L 233 350
L 236 351
L 238 351
L 241 351
L 244 351
L 247 351
L 249 350
L 252 351
L 255 351
L 258 351
L 260 351
L 263 351
L 266 351
L 269 351
L 271 351
L 274 351
L 277 351
L 279 351
L 282 351
L 285 351
L 288 350
L 290 351
L 293 351
L 296 351
L 299 351
L 301 351
L 304 351
L 307 351
L 310 351
L 312 350
L 315 351
L 318 351
L 321 351
L 323 351
L 326 351
L 329 351
L 331 351
L 334 351
L 337 351
L 340 351
L 342 351
L 345 351
L 348 351
L 351 351
L 353 351
L 356 351
L 359 351
L 362 351
L 364 351
L 367 351
L 370 351
L 373 351
L 375 351
L 378 351
L 381 351
L 384 351
L 386 351
L 389 350
L 392 351
L 394 351
L 397 350
L 400 350
L 403 349
L 405 351
L 408 351
L 411 350
L 414 351
L 416 351
L 419 351
L 422 351
L 425 351
L 427 351
L 430 350
L 433 351
L 436 351
L 438 351
L 441 350
L 444 349
L 446 351
L 449 351
L 452 350
L 455 349
L 457 350
L 460 351
L 463 350
L 466 350
L 468 351
L 471 351
L 474 351
L 477 351
L 479 351
L 482 351
L 485 351
L 488 351
L 490 350
L 493 350
L 496 350
L 499 351
L 501 350
L 504 350
L 507 350
L 509 350
L 512 350
L 515 350
L 518 350
L 520 351
L 523 350
L 526 351
L 529 351
L 531 351
L 534 350
L 537 350
L 540 351
L 542 350
L 545 351
L 548 349
L 551 350
L 553 351
L 556 351
L 559 351
L 562 351
L 564 350
L 567 351
L 570 349
L 572 350
L 575 350
L 578 350
L 581 350
L 583 350
L 586 350
L 589 350
L 592 350
L 594 349
L 597 350
L 600 350
L 603 351
L 605 351
L 608 351
L 611 350
L 614 349
L 616 349
L 619 350
L 622 350
L 624 351
L 627 350
L 630 348
L 633 349
L 635 349
L 638 343
L 641 349
L 644 350
L 646 348
L 649 349
L 652 348
L 655 345
L 657 349
L 660 349
L 663 348
L 666 348
L 668 347
L 671 347
L 674 344
L 677 343
L 679 338
L 682 344
L 685 345
L 687 338
L 690 343
L 693 327
L 696 335
L 698 332
L 701 337
L 704 333
L 707 327
L 709 337
L 712 311
L 715 325
L 718 324
L 720 311
L 723 304
L 726 326
L 729 309
L 731 305
L 734 298
L 737 316
L 739 300
L 742 302
L 745 291
L 748 308
L 750 302
L 753 298
L 756 302
L 759 295
L 761 298
L 764 294
L 767 319
L 770 288
L 772 282
L 775 286
L 778 334
L 781 301
L 783 316
L 786 296
L 789 308
L 792 310
L 794 322
L 797 316
L 800 319
L 802 323
L 805 323
L 808 319
L 811 321
L 813 315
L 816 329
L 819 322
L 822 327
L 824 332
L 827 317
L 830 323
L 833 319
L 835 325
L 838 319
L 841 330
L 844 321
L 846 325
L 849 331
L 852 328
L 854 330
L 857 330
L 860 319
L 863 328
L 865 327
L 868 345
L 871 326
L 874 329
L 876 332
L 879 310
L 882 323
L 885 327
L 887 336
L 890 335
L 893 335
L 896 331
L 898 335
L 901 332
L 904 339
L 907 331
L 909 335
L 912 333
L 915 341
L 917 337
L 920 342
L 923 344
L 926 338
L 928 339
L 931 341
L 934 341
L 937 340
L 939 344
L 942 341
L 945 347
L 948 343
L 950 347
L 953 337
L 956 340
L 959 343
L 961 343
L 964 341
L 967 345
L 969 347" style="stroke-width:1;stroke:rgba(0,217,101,1.0);fill:none"/><path  d="M 38 351
L 41 351
L 44 351
L 47 351
L 49 351
L 52 351
L 55 351
L 58 351
L 60 351
L 63 351
L 66 351
L 69 351
L 71 351
L 74 351
L 77 351
L 80 351
L 82 351
L 85 351
L 88 351
L 91 351
L 93 351
L 96 351
L 99 351
L 101 351
L 104 351
L 107 351
L 110 351
L 112 351
L 115 351
L 118 350
L 121 350
L 123 350
L 126 350
L 129 351
L 132 351
L 134 351
L 137 351
L 140 350
L 143 351
L 145 350
L 148 351
L 151 350
L 154 350
L 156 351
L 159 351
L 162 350
L 164 351
L 167 350
L 170 351
L 173 350
L 175 350
L 178 351
L 181 351
L 184 350
L 186 351
L 189 351
L 192 351
L 195 351
L 197 351
L 200 351
L 203 351
L 206 351
L 208 351
L 211 351
L 214 351
L 216 351
L 219 351
L 222 351
L 225 351
L 227 350
L 230 351
L 233 351
L 236 351
L 238 351
L 241 351
L 244 351
L 247 351
L 249 351
L 252 351
L 255 351
L 258 351
L 260 351
L 263 351
L 266 351
L 269 351
L 271 351
L 274 351
L 277 351
L 279 351
L 282 351
L 285 351
L 288 351
L 290 351
L 293 351
L 296 351
L 299 351
L 301 351
L 304 351
L 307 351
L 310 351
L 312 351
L 315 351
L 318 351
L 321 351
L 323 351
L 326 351
L 329 351
L 331 351
L 334 351
L 337 351
L 340 351
L 342 351
L 345 351
L 348 351
L 351 351
L 353 351
L 356 351
L 359 351
L 362 351
L 364 351
L 367 351
L 370 351
L 373 351
L 375 351
L 378 351
L 381 351
L 384 351
L 386 351
L 389 351
L 392 351
L 394 351
L 397 351
L 400 351
L 403 351
L 405 351
L 408 351
L 411 351
L 414 351
L 416 351
L 419 351
L 422 351
L 425 351
L 427 351
L 430 351
L 433 351
L 436 351
L 438 351
L 441 351
L 444 351
L 446 351
L 449 351
L 452 351
L 455 351
L 457 351
L 460 351
L 463 351
L 466 351
L 468 351
L 471 351
L 474 351
L 477 351
L 479 351
L 482 351
L 485 351
L 488 351
L 490 351
L 493 351
L 496 351
L 499 351
L 501 351
L 504 351
L 507 351
L 509 351
L 512 351
L 515 351
L 518 351
L 520 351
L 523 351
L 526 351
L 529 351
L 531 351
L 534 351
L 537 351
L 540 351
L 542 351
L 545 351
L 548 351
L 551 351
L 553 351
L 556 351
L 559 351
L 562 351
L 564 351
L 567 351
L 570 351
L 572 351
L 575 351
L 578 351
L 581 351
L 583 351
L 586 351
L 589 351
L 592 351
L 594 351
L 597 351
L 600 351
L 603 351
L 605 351
L 608 351
L 611 351
L 614 351
L 616 351
L 619 351
L 622 351
L 624 351
L 627 351
L 630 351
L 633 351
L 635 351
L 638 351
L 641 351
L 644 351
L 646 351
L 649 351
L 652 351
L 655 351
L 657 351
L 660 351
L 663 351
L 666 351
L 668 351
L 671 351
L 674 351
L 677 351
L 679 351
L 682 351
L 685 351
L 687 351
L 690 351
L 693 350
L 696 351
L 698 350
L 701 351
L 704 351
L 707 350
L 709 350
L 712 350
L 715 350
L 718 350
L 720 351
L 723 349
L 726 349
L 729 350
L 731 350
L 734 350
L 737 350
L 739 350
L 742 350
L 745 350
L 748 351
L 750 350
L 753 350
L 756 351
L 759 350
L 761 350
L 764 350
L 767 350
L 770 351
L 772 350
L 775 350
L 778 350
L 781 350
L 783 351
L 786 351
L 789 351
L 792 350
L 794 351
L 797 350
L 800 350
L 802 350
L 805 350
L 808 349
L 811 350
L 813 350
L 816 351
L 819 349
L 822 351
L 824 350
L 827 351
L 830 348
L 833 350
L 835 350
L 838 350
L 841 351
L 844 349
L 846 350
L 849 351
L 852 351
L 854 351
L 857 349
L 860 351
L 863 350
L 865 351
L 868 351
L 871 350
L 874 351
L 876 350
L 879 350
L 882 350
L 885 351
L 887 350
L 890 351
L 893 350
L 896 350
L 898 350
L 901 350
L 904 349
L 907 350
L 909 351
L 912 351
L 915 350
L 917 350
L 920 350
L 923 351
L 926 351
L 928 350
L 931 351
L 934 350
L 937 351
L 939 351
L 942 351
L 945 351
L 948 351
L 950 351
L 953 350
L 956 351
L 959 351
L 961 351
L 964 351
L 967 350
L 969 350" style="stroke-width:1;stroke:rgba(217,0,116,1.0);fill:none"/><text x="397" y="33" style="stroke-width:0;stroke:none;fill:rgba(51,51,51,1.0);font-size:23.0px;font-family:'Roboto Medium',sans-serif">Amstetten 31.01.2021</text><path  d="M 38 11
L 251 11
L 251 91
L 38 91
L 38 11" style="stroke-width:1;stroke:rgba(51,51,51,1.0);fill:rgba(255,255,255,1.0)"/><text x="43" y="26" style="stroke-width:0;stroke:none;fill:rgba(51,51,51,1.0);font-size:10.2px;font-family:'Roboto Medium',sans-serif">Sieben Tage Durschnitt Inzidenz Fälle</text><path  d="M 221 21
L 241 21" style="stroke-width:1;stroke:rgba(0,116,217,1.0);fill:none"/><text x="43" y="56" style="stroke-width:0;stroke:none;fill:rgba(51,51,51,1.0);font-size:10.2px;font-family:'Roboto Medium',sans-serif">Anzahl Faelle</text><path  d="M 110 51
L 241 51" style="stroke-width:1;stroke:rgba(0,217,101,1.0);fill:none"/><text x="43" y="86" style="stroke-width:0;stroke:none;fill:rgba(51,51,51,1.0);font-size:10.2px;font-family:'Roboto Medium',sans-serif">Anzahl Tot</text><path  d="M 98 81
L 241 81" style="stroke-width:1;stroke:rgba(217,0,116,1.0);fill:none"/></svg>