<svg xmlns="http://www.w3.org/2000/svg" xmlns:xlink="http://www.w3.org/1999/xlink" width="1024" height="400">\n<path  d="M 0 0
L 1024 0
L 1024 400
L 0 400
L 0 0" style="stroke-width:0;stroke:rgba(255,255,255,1.0);fill:rgba(255,255,255,1.0)"/><path  d="M 38 11
L 961 11
L 961 351
L 38 351
L 38 11" style="stroke-width:0;stroke:rgba(255,255,255,1.0);fill:rgba(255,255,255,1.0)"/><path  d="M 38 351
L 961 351" style="stroke-width:1;stroke:rgba(51,51,51,1.0);fill:none"/><path  d="M 38 351
L 38 356" style="stroke-width:1;stroke:rgba(51,51,51,1.0);fill:none"/><text x="5" y="373" style="stroke-width:0;stroke:none;fill:rgba(51,51,51,1.0);font-size:12.8px;font-family:'Roboto Medium',sans-serif">2020-02-26</text><path  d="M 154 351
L 154 356" style="stroke-width:1;stroke:rgba(51,51,51,1.0);fill:none"/><text x="121" y="373" style="stroke-width:0;stroke:none;fill:rgba(51,51,51,1.0);font-size:12.8px;font-family:'Roboto Medium',sans-serif">2020-05-24</text><path  d="M 269 351
L 269 356" style="stroke-width:1;stroke:rgba(51,51,51,1.0);fill:none"/><text x="236" y="373" style="stroke-width:0;stroke:none;fill:rgba(51,51,51,1.0);font-size:12.8px;font-family:'Roboto Medium',sans-serif">2020-08-21</text><path  d="M 385 351
L 385 356" style="stroke-width:1;stroke:rgba(51,51,51,1.0);fill:none"/><text x="352" y="373" style="stroke-width:0;stroke:none;fill:rgba(51,51,51,1.0);font-size:12.8px;font-family:'Roboto Medium',sans-serif">2020-11-17</text><path  d="M 500 351
L 500 356" style="stroke-width:1;stroke:rgba(51,51,51,1.0);fill:none"/><text x="467" y="373" style="stroke-width:0;stroke:none;fill:rgba(51,51,51,1.0);font-size:12.8px;font-family:'Roboto Medium',sans-serif">2021-02-14</text><path  d="M 615 351
L 615 356" style="stroke-width:1;stroke:rgba(51,51,51,1.0);fill:none"/><text x="582" y="373" style="stroke-width:0;stroke:none;fill:rgba(51,51,51,1.0);font-size:12.8px;font-family:'Roboto Medium',sans-serif">2021-05-14</text><path  d="M 731 351
L 731 356" style="stroke-width:1;stroke:rgba(51,51,51,1.0);fill:none"/><text x="698" y="373" style="stroke-width:0;stroke:none;fill:rgba(51,51,51,1.0);font-size:12.8px;font-family:'Roboto Medium',sans-serif">2021-08-10</text><path  d="M 846 351
L 846 356" style="stroke-width:1;stroke:rgba(51,51,51,1.0);fill:none"/><text x="813" y="373" style="stroke-width:0;stroke:none;fill:rgba(51,51,51,1.0);font-size:12.8px;font-family:'Roboto Medium',sans-serif">2021-11-07</text><path  d="M 961 351
L 961 356" style="stroke-width:1;stroke:rgba(51,51,51,1.0);fill:none"/><text x="928" y="373" style="stroke-width:0;stroke:none;fill:rgba(51,51,51,1.0);font-size:12.8px;font-family:'Roboto Medium',sans-serif">2022-02-04</text><text x="481" y="395" style="stroke-width:0;stroke:none;fill:rgba(51,51,51,1.0);font-size:12.8px;font-family:'Roboto Medium',sans-serif">Datum</text><path  d="M 962 351
L 962 11" style="stroke-width:1;stroke:rgba(51,51,51,1.0);fill:none"/><path  d="M 962 351
L 967 351" style="stroke-width:1;stroke:rgba(51,51,51,1.0);fill:none"/><text x="972" y="357" style="stroke-width:0;stroke:none;fill:rgba(51,51,51,1.0);font-size:12.8px;font-family:'Roboto Medium',sans-serif">0.00</text><path  d="M 962 308
L 967 308" style="stroke-width:1;stroke:rgba(51,51,51,1.0);fill:none"/><text x="972" y="314" style="stroke-width:0;stroke:none;fill:rgba(51,51,51,1.0);font-size:12.8px;font-family:'Roboto Medium',sans-serif">390.00</text><path  d="M 962 265
L 967 265" style="stroke-width:1;stroke:rgba(51,51,51,1.0);fill:none"/><text x="972" y="271" style="stroke-width:0;stroke:none;fill:rgba(51,51,51,1.0);font-size:12.8px;font-family:'Roboto Medium',sans-serif">780.00</text><path  d="M 962 222
L 967 222" style="stroke-width:1;stroke:rgba(51,51,51,1.0);fill:none"/><text x="972" y="228" style="stroke-width:0;stroke:none;fill:rgba(51,51,51,1.0);font-size:12.8px;font-family:'Roboto Medium',sans-serif">1170.00</text><path  d="M 962 181
L 967 181" style="stroke-width:1;stroke:rgba(51,51,51,1.0);fill:none"/><text x="972" y="187" style="stroke-width:0;stroke:none;fill:rgba(51,51,51,1.0);font-size:12.8px;font-family:'Roboto Medium',sans-serif">1550.00</text><path  d="M 962 138
L 967 138" style="stroke-width:1;stroke:rgba(51,51,51,1.0);fill:none"/><text x="972" y="144" style="stroke-width:0;stroke:none;fill:rgba(51,51,51,1.0);font-size:12.8px;font-family:'Roboto Medium',sans-serif">1940.00</text><path  d="M 962 95
L 967 95" style="stroke-width:1;stroke:rgba(51,51,51,1.0);fill:none"/><text x="972" y="101" style="stroke-width:0;stroke:none;fill:rgba(51,51,51,1.0);font-size:12.8px;font-family:'Roboto Medium',sans-serif">2330.00</text><path  d="M 962 52
L 967 52" style="stroke-width:1;stroke:rgba(51,51,51,1.0);fill:none"/><text x="972" y="58" style="stroke-width:0;stroke:none;fill:rgba(51,51,51,1.0);font-size:12.8px;font-family:'Roboto Medium',sans-serif">2720.00</text><path  d="M 962 11
L 967 11" style="stroke-width:1;stroke:rgba(51,51,51,1.0);fill:none"/><text x="972" y="17" style="stroke-width:0;stroke:none;fill:rgba(51,51,51,1.0);font-size:12.8px;font-family:'Roboto Medium',sans-serif">3100.00</text><path  d="M 38 351
L 40 351
L 41 351
L 42 351
L 44 351
L 45 351
L 46 351
L 48 351
L 49 351
L 50 351
L 52 351
L 53 351
L 54 351
L 55 350
L 57 350
L 58 350
L 59 350
L 61 349
L 62 348
L 63 348
L 65 347
L 66 346
L 67 345
L 68 346
L 70 346
L 71 346
L 72 345
L 74 344
L 75 344
L 76 343
L 78 341
L 79 341
L 80 341
L 81 342
L 83 342
L 84 342
L 85 343
L 87 344
L 88 344
L 89 345
L 91 345
L 92 346
L 93 346
L 94 347
L 96 347
L 97 346
L 98 346
L 100 347
L 101 347
L 102 347
L 104 348
L 105 349
L 106 349
L 107 349
L 109 349
L 110 349
L 111 350
L 113 350
L 114 350
L 115 350
L 117 350
L 118 350
L 119 350
L 121 350
L 122 350
L 123 350
L 124 350
L 126 350
L 127 350
L 128 350
L 130 351
L 131 350
L 132 350
L 134 350
L 135 350
L 136 350
L 137 350
L 139 350
L 140 350
L 141 350
L 143 350
L 144 350
L 145 350
L 147 350
L 148 351
L 149 350
L 150 350
L 152 350
L 153 350
L 154 350
L 156 350
L 157 350
L 158 350
L 160 350
L 161 350
L 162 350
L 163 350
L 165 350
L 166 351
L 167 351
L 169 350
L 170 350
L 171 350
L 173 350
L 174 350
L 175 350
L 176 350
L 178 351
L 179 351
L 180 351
L 182 351
L 183 351
L 184 351
L 186 351
L 187 351
L 188 351
L 190 351
L 191 351
L 192 351
L 193 351
L 195 351
L 196 351
L 197 351
L 199 351
L 200 351
L 201 351
L 203 351
L 204 351
L 205 350
L 206 350
L 208 350
L 209 350
L 210 350
L 212 350
L 213 350
L 214 350
L 216 350
L 217 350
L 218 350
L 219 350
L 221 350
L 222 350
L 223 350
L 225 350
L 226 350
L 227 350
L 229 350
L 230 350
L 231 350
L 232 350
L 234 350
L 235 350
L 236 350
L 238 350
L 239 350
L 240 350
L 242 350
L 243 350
L 244 350
L 245 350
L 247 350
L 248 350
L 249 350
L 251 351
L 252 351
L 253 350
L 255 350
L 256 350
L 257 350
L 259 350
L 260 350
L 261 350
L 262 350
L 264 350
L 265 350
L 266 350
L 268 350
L 269 350
L 270 350
L 272 350
L 273 350
L 274 350
L 275 350
L 277 350
L 278 350
L 279 350
L 281 350
L 282 350
L 283 350
L 285 350
L 286 350
L 287 350
L 288 350
L 290 350
L 291 350
L 292 350
L 294 350
L 295 350
L 296 349
L 298 349
L 299 349
L 300 350
L 301 350
L 303 349
L 304 349
L 305 350
L 307 350
L 308 350
L 309 350
L 311 350
L 312 350
L 313 350
L 314 350
L 316 349
L 317 349
L 318 349
L 320 349
L 321 349
L 322 349
L 324 347
L 325 347
L 326 347
L 328 346
L 329 347
L 330 346
L 331 346
L 333 347
L 334 347
L 335 347
L 337 346
L 338 346
L 339 346
L 341 346
L 342 344
L 343 342
L 344 341
L 346 339
L 347 338
L 348 337
L 350 334
L 351 332
L 352 330
L 354 329
L 355 327
L 356 324
L 357 322
L 359 319
L 360 317
L 361 315
L 363 309
L 364 303
L 365 303
L 367 296
L 368 295
L 369 289
L 370 287
L 372 285
L 373 284
L 374 276
L 376 276
L 377 275
L 378 275
L 380 272
L 381 271
L 382 270
L 383 271
L 385 273
L 386 270
L 387 266
L 389 262
L 390 271
L 391 272
L 393 277
L 394 272
L 395 276
L 397 283
L 398 291
L 399 287
L 400 291
L 402 293
L 403 299
L 404 301
L 406 303
L 407 302
L 408 305
L 410 305
L 411 306
L 412 308
L 413 308
L 415 308
L 416 309
L 417 308
L 419 307
L 420 308
L 421 305
L 423 307
L 424 309
L 425 311
L 426 313
L 428 315
L 429 313
L 430 314
L 432 315
L 433 318
L 434 317
L 436 317
L 437 317
L 438 316
L 439 315
L 441 315
L 442 313
L 443 315
L 445 316
L 446 316
L 447 321
L 449 323
L 450 326
L 451 324
L 452 324
L 454 324
L 455 326
L 456 327
L 458 329
L 459 330
L 460 332
L 462 334
L 463 335
L 464 335
L 466 335
L 467 336
L 468 335
L 469 337
L 471 337
L 472 339
L 473 339
L 475 339
L 476 338
L 477 339
L 479 337
L 480 338
L 481 338
L 482 339
L 484 339
L 485 339
L 486 338
L 488 338
L 489 338
L 490 338
L 492 338
L 493 338
L 494 338
L 495 338
L 497 339
L 498 340
L 499 340
L 501 340
L 502 341
L 503 342
L 505 343
L 506 343
L 507 342
L 508 341
L 510 342
L 511 342
L 512 342
L 514 341
L 515 341
L 516 341
L 518 341
L 519 342
L 520 341
L 521 340
L 523 341
L 524 341
L 525 342
L 527 342
L 528 341
L 529 342
L 531 343
L 532 341
L 533 340
L 534 340
L 536 340
L 537 338
L 538 338
L 540 335
L 541 333
L 542 330
L 544 329
L 545 326
L 546 324
L 548 321
L 549 317
L 550 319
L 551 319
L 553 319
L 554 315
L 555 313
L 557 315
L 558 315
L 559 311
L 561 311
L 562 305
L 563 307
L 564 311
L 566 310
L 567 315
L 568 316
L 570 317
L 571 323
L 572 324
L 574 324
L 575 324
L 576 323
L 577 324
L 579 326
L 580 327
L 581 329
L 583 328
L 584 331
L 585 330
L 587 328
L 588 330
L 589 331
L 590 331
L 592 332
L 593 330
L 594 333
L 596 336
L 597 336
L 598 336
L 600 337
L 601 336
L 602 337
L 603 338
L 605 339
L 606 339
L 607 339
L 609 340
L 610 341
L 611 342
L 613 342
L 614 343
L 615 344
L 617 344
L 618 345
L 619 346
L 620 345
L 622 347
L 623 347
L 624 346
L 626 346
L 627 345
L 628 345
L 630 345
L 631 345
L 632 344
L 633 344
L 635 344
L 636 345
L 637 345
L 639 345
L 640 346
L 641 346
L 643 347
L 644 348
L 645 348
L 646 348
L 648 348
L 649 348
L 650 348
L 652 348
L 653 348
L 654 349
L 656 349
L 657 349
L 658 349
L 659 349
L 661 349
L 662 349
L 663 349
L 665 349
L 666 349
L 667 350
L 669 350
L 670 350
L 671 350
L 672 350
L 674 350
L 675 350
L 676 349
L 678 349
L 679 349
L 680 350
L 682 350
L 683 350
L 684 350
L 686 350
L 687 350
L 688 350
L 689 350
L 691 350
L 692 350
L 693 350
L 695 349
L 696 350
L 697 349
L 699 349
L 700 349
L 701 349
L 702 349
L 704 349
L 705 349
L 706 349
L 708 349
L 709 348
L 710 348
L 712 348
L 713 347
L 714 347
L 715 347
L 717 347
L 718 347
L 719 348
L 721 347
L 722 347
L 723 347
L 725 347
L 726 346
L 727 346
L 728 345
L 730 346
L 731 346
L 732 345
L 734 344
L 735 345
L 736 345
L 738 345
L 739 345
L 740 345
L 741 344
L 743 344
L 744 343
L 745 343
L 747 343
L 748 343
L 749 342
L 751 343
L 752 343
L 753 344
L 755 345
L 756 344
L 757 344
L 758 343
L 760 343
L 761 342
L 762 341
L 764 341
L 765 340
L 766 338
L 768 337
L 769 337
L 770 333
L 771 332
L 773 331
L 774 329
L 775 331
L 777 330
L 778 327
L 779 330
L 781 329
L 782 330
L 783 331
L 784 331
L 786 331
L 787 333
L 788 332
L 790 333
L 791 331
L 792 333
L 794 331
L 795 331
L 796 332
L 797 333
L 799 334
L 800 333
L 801 333
L 803 333
L 804 329
L 805 327
L 807 325
L 808 323
L 809 323
L 810 318
L 812 315
L 813 315
L 814 315
L 816 314
L 817 310
L 818 307
L 820 306
L 821 306
L 822 303
L 824 301
L 825 297
L 826 297
L 827 297
L 829 295
L 830 293
L 831 286
L 833 276
L 834 272
L 835 263
L 837 258
L 838 249
L 839 248
L 840 248
L 842 245
L 843 234
L 844 234
L 846 228
L 847 228
L 848 219
L 850 199
L 851 203
L 852 202
L 853 192
L 855 186
L 856 179
L 857 176
L 859 182
L 860 176
L 861 180
L 863 174
L 864 170
L 865 170
L 866 181
L 868 182
L 869 195
L 870 194
L 872 211
L 873 228
L 874 243
L 876 242
L 877 257
L 878 255
L 879 269
L 881 275
L 882 280
L 883 284
L 885 291
L 886 299
L 887 305
L 889 308
L 890 311
L 891 312
L 893 312
L 894 313
L 895 314
L 896 315
L 898 316
L 899 318
L 900 319
L 902 320
L 903 321
L 904 322
L 906 321
L 907 321
L 908 321
L 909 323
L 911 324
L 912 325
L 913 327
L 915 326
L 916 327
L 917 328
L 919 328
L 920 327
L 921 325
L 922 324
L 924 319
L 925 317
L 926 309
L 928 302
L 929 289
L 930 284
L 932 278
L 933 272
L 934 263
L 935 260
L 937 251
L 938 242
L 939 234
L 941 220
L 942 213
L 943 191
L 945 184
L 946 173
L 947 170
L 948 138
L 950 109
L 951 85
L 952 68
L 954 54
L 955 35
L 956 33
L 958 22
L 959 23
L 960 20
L 961 33" style="stroke-width:1;stroke:rgba(0,116,217,1.0);fill:none"/><path  d="M 38 351
L 40 351
L 41 351
L 42 351
L 44 351
L 45 351
L 46 351
L 48 351
L 49 351
L 50 351
L 52 351
L 53 351
L 54 351
L 55 350
L 57 351
L 58 350
L 59 350
L 61 349
L 62 350
L 63 350
L 65 350
L 66 349
L 67 350
L 68 350
L 70 350
L 71 349
L 72 349
L 74 350
L 75 349
L 76 348
L 78 348
L 79 350
L 80 349
L 81 350
L 83 349
L 84 350
L 85 349
L 87 349
L 88 350
L 89 350
L 91 350
L 92 350
L 93 350
L 94 350
L 96 350
L 97 349
L 98 350
L 100 351
L 101 350
L 102 350
L 104 350
L 105 350
L 106 350
L 107 351
L 109 350
L 110 351
L 111 350
L 113 350
L 114 350
L 115 351
L 117 351
L 118 351
L 119 350
L 121 350
L 122 351
L 123 351
L 124 351
L 126 351
L 127 351
L 128 351
L 130 351
L 131 350
L 132 351
L 134 351
L 135 351
L 136 351
L 137 351
L 139 350
L 140 351
L 141 351
L 143 351
L 144 351
L 145 351
L 147 351
L 148 351
L 149 350
L 150 351
L 152 351
L 153 351
L 154 351
L 156 351
L 157 350
L 158 351
L 160 351
L 161 351
L 162 351
L 163 351
L 165 351
L 166 351
L 167 351
L 169 350
L 170 351
L 171 351
L 173 351
L 174 351
L 175 351
L 176 351
L 178 351
L 179 351
L 180 351
L 182 351
L 183 351
L 184 351
L 186 351
L 187 351
L 188 351
L 190 351
L 191 351
L 192 351
L 193 351
L 195 351
L 196 351
L 197 351
L 199 351
L 200 351
L 201 351
L 203 351
L 204 351
L 205 350
L 206 351
L 208 351
L 209 350
L 210 350
L 212 350
L 213 351
L 214 351
L 216 350
L 217 351
L 218 351
L 219 351
L 221 351
L 222 351
L 223 351
L 225 350
L 226 351
L 227 351
L 229 351
L 230 350
L 231 350
L 232 351
L 234 351
L 235 350
L 236 350
L 238 350
L 239 351
L 240 350
L 242 350
L 243 351
L 244 351
L 245 351
L 247 351
L 248 351
L 249 351
L 251 351
L 252 351
L 253 350
L 255 351
L 256 350
L 257 351
L 259 350
L 260 350
L 261 350
L 262 350
L 264 350
L 265 350
L 266 350
L 268 351
L 269 350
L 270 351
L 272 351
L 273 351
L 274 350
L 275 350
L 277 351
L 278 350
L 279 351
L 281 350
L 282 350
L 283 351
L 285 351
L 286 351
L 287 351
L 288 350
L 290 351
L 291 350
L 292 350
L 294 350
L 295 350
L 296 350
L 298 350
L 299 350
L 300 350
L 301 350
L 303 350
L 304 350
L 305 350
L 307 351
L 308 351
L 309 351
L 311 350
L 312 350
L 313 350
L 314 350
L 316 350
L 317 351
L 318 350
L 320 350
L 321 350
L 322 350
L 324 348
L 325 350
L 326 350
L 328 350
L 329 350
L 330 350
L 331 349
L 333 350
L 334 350
L 335 350
L 337 350
L 338 350
L 339 350
L 341 349
L 342 349
L 343 347
L 344 349
L 346 348
L 347 349
L 348 348
L 350 344
L 351 346
L 352 346
L 354 347
L 355 346
L 356 345
L 357 347
L 359 340
L 360 344
L 361 344
L 363 340
L 364 339
L 365 344
L 367 340
L 368 339
L 369 337
L 370 342
L 372 337
L 373 338
L 374 335
L 376 339
L 377 338
L 378 337
L 380 338
L 381 336
L 382 337
L 383 336
L 385 342
L 386 334
L 387 333
L 389 334
L 390 346
L 391 338
L 393 342
L 394 336
L 395 339
L 397 340
L 398 343
L 399 342
L 400 342
L 402 343
L 403 343
L 404 342
L 406 343
L 407 341
L 408 345
L 410 343
L 411 344
L 412 346
L 413 342
L 415 343
L 416 342
L 417 343
L 419 342
L 420 345
L 421 343
L 423 344
L 424 345
L 425 345
L 426 345
L 428 345
L 429 342
L 430 344
L 432 345
L 433 349
L 434 344
L 436 345
L 437 346
L 438 340
L 439 344
L 441 344
L 442 347
L 443 347
L 445 346
L 446 345
L 447 346
L 449 346
L 450 347
L 451 345
L 452 347
L 454 346
L 455 348
L 456 347
L 458 348
L 459 349
L 460 347
L 462 348
L 463 348
L 464 348
L 466 348
L 467 349
L 468 348
L 469 350
L 471 349
L 472 350
L 473 347
L 475 348
L 476 348
L 477 349
L 479 348
L 480 349
L 481 349
L 482 349
L 484 348
L 485 348
L 486 348
L 488 348
L 489 349
L 490 349
L 492 349
L 493 348
L 494 348
L 495 349
L 497 349
L 498 349
L 499 350
L 501 348
L 502 350
L 503 349
L 505 350
L 506 349
L 507 348
L 508 349
L 510 349
L 511 350
L 512 349
L 514 349
L 515 349
L 516 347
L 518 350
L 519 350
L 520 348
L 521 349
L 523 350
L 524 349
L 525 349
L 527 349
L 528 349
L 529 349
L 531 349
L 532 349
L 533 347
L 534 348
L 536 350
L 537 347
L 538 348
L 540 346
L 541 345
L 542 344
L 544 347
L 545 347
L 546 344
L 548 345
L 549 343
L 550 348
L 551 344
L 553 347
L 554 342
L 555 342
L 557 347
L 558 343
L 559 343
L 561 343
L 562 340
L 563 344
L 564 347
L 566 346
L 567 348
L 568 345
L 570 343
L 571 347
L 572 346
L 574 348
L 575 346
L 576 346
L 577 346
L 579 346
L 580 348
L 581 348
L 583 347
L 584 349
L 585 345
L 587 344
L 588 349
L 589 349
L 590 349
L 592 348
L 593 347
L 594 349
L 596 348
L 597 348
L 598 350
L 600 349
L 601 347
L 602 348
L 603 349
L 605 349
L 606 349
L 607 349
L 609 350
L 610 349
L 611 350
L 613 349
L 614 350
L 615 350
L 617 350
L 618 351
L 619 349
L 620 349
L 622 350
L 623 350
L 624 349
L 626 349
L 627 350
L 628 350
L 630 349
L 631 349
L 632 349
L 633 349
L 635 350
L 636 350
L 637 350
L 639 350
L 640 350
L 641 350
L 643 350
L 644 350
L 645 350
L 646 350
L 648 350
L 649 350
L 650 350
L 652 350
L 653 350
L 654 350
L 656 351
L 657 350
L 658 350
L 659 350
L 661 350
L 662 350
L 663 350
L 665 351
L 666 351
L 667 350
L 669 351
L 670 350
L 671 350
L 672 350
L 674 350
L 675 350
L 676 350
L 678 351
L 679 350
L 680 351
L 682 351
L 683 350
L 684 350
L 686 350
L 687 350
L 688 350
L 689 351
L 691 351
L 692 351
L 693 350
L 695 350
L 696 350
L 697 350
L 699 350
L 700 350
L 701 350
L 702 350
L 704 350
L 705 350
L 706 350
L 708 350
L 709 350
L 710 350
L 712 350
L 713 350
L 714 350
L 715 350
L 717 350
L 718 350
L 719 350
L 721 350
L 722 350
L 723 350
L 725 350
L 726 349
L 727 350
L 728 349
L 730 350
L 731 350
L 732 349
L 734 349
L 735 350
L 736 349
L 738 350
L 739 349
L 740 350
L 741 348
L 743 349
L 744 349
L 745 350
L 747 349
L 748 350
L 749 349
L 751 349
L 752 350
L 753 350
L 755 350
L 756 349
L 757 349
L 758 349
L 760 348
L 761 349
L 762 349
L 764 350
L 765 348
L 766 347
L 768 348
L 769 348
L 770 345
L 771 347
L 773 348
L 774 346
L 775 349
L 777 346
L 778 345
L 779 348
L 781 346
L 782 350
L 783 346
L 784 349
L 786 346
L 787 347
L 788 347
L 790 348
L 791 348
L 792 349
L 794 346
L 795 347
L 796 348
L 797 348
L 799 348
L 800 347
L 801 349
L 803 345
L 804 343
L 805 345
L 807 346
L 808 346
L 809 346
L 810 344
L 812 342
L 813 343
L 814 345
L 816 345
L 817 342
L 818 342
L 820 342
L 821 342
L 822 340
L 824 343
L 825 340
L 826 342
L 827 342
L 829 340
L 830 339
L 831 332
L 833 332
L 834 335
L 835 332
L 837 337
L 838 329
L 839 338
L 840 332
L 842 329
L 843 322
L 844 331
L 846 330
L 847 329
L 848 327
L 850 308
L 851 334
L 852 320
L 853 320
L 855 323
L 856 322
L 857 322
L 859 316
L 860 327
L 861 325
L 863 313
L 864 318
L 865 322
L 866 335
L 868 317
L 869 341
L 870 324
L 872 334
L 873 337
L 874 340
L 876 333
L 877 335
L 878 339
L 879 341
L 881 340
L 882 343
L 883 345
L 885 342
L 886 344
L 887 345
L 889 345
L 890 344
L 891 344
L 893 345
L 894 343
L 895 345
L 896 347
L 898 346
L 899 346
L 900 346
L 902 347
L 903 344
L 904 345
L 906 346
L 907 345
L 908 346
L 909 348
L 911 348
L 912 345
L 913 347
L 915 345
L 916 347
L 917 348
L 919 349
L 920 347
L 921 343
L 922 345
L 924 339
L 925 344
L 926 339
L 928 340
L 929 332
L 930 337
L 932 338
L 933 332
L 934 335
L 935 335
L 937 329
L 938 322
L 939 327
L 941 322
L 942 323
L 943 310
L 945 326
L 946 317
L 947 318
L 948 290
L 950 287
L 951 295
L 952 290
L 954 311
L 955 293
L 956 317
L 958 277
L 959 289
L 960 292
L 961 305" style="stroke-width:1;stroke:rgba(0,217,101,1.0);fill:none"/><path  d="M 38 351
L 40 351
L 41 351
L 42 351
L 44 351
L 45 351
L 46 351
L 48 351
L 49 351
L 50 351
L 52 351
L 53 351
L 54 351
L 55 351
L 57 351
L 58 351
L 59 351
L 61 351
L 62 351
L 63 351
L 65 351
L 66 351
L 67 351
L 68 351
L 70 351
L 71 351
L 72 351
L 74 351
L 75 351
L 76 350
L 78 350
L 79 350
L 80 350
L 81 351
L 83 351
L 84 351
L 85 351
L 87 350
L 88 351
L 89 350
L 91 351
L 92 350
L 93 350
L 94 351
L 96 351
L 97 350
L 98 351
L 100 350
L 101 351
L 102 350
L 104 350
L 105 351
L 106 351
L 107 350
L 109 351
L 110 351
L 111 351
L 113 351
L 114 351
L 115 351
L 117 351
L 118 351
L 119 351
L 121 351
L 122 351
L 123 351
L 124 351
L 126 351
L 127 351
L 128 350
L 130 351
L 131 351
L 132 351
L 134 351
L 135 351
L 136 351
L 137 351
L 139 351
L 140 351
L 141 351
L 143 351
L 144 351
L 145 351
L 147 351
L 148 351
L 149 351
L 150 351
L 152 351
L 153 351
L 154 351
L 156 351
L 157 351
L 158 351
L 160 351
L 161 351
L 162 351
L 163 351
L 165 351
L 166 351
L 167 351
L 169 351
L 170 351
L 171 351
L 173 351
L 174 351
L 175 351
L 176 351
L 178 351
L 179 351
L 180 351
L 182 351
L 183 351
L 184 351
L 186 351
L 187 351
L 188 351
L 190 351
L 191 351
L 192 351
L 193 351
L 195 351
L 196 351
L 197 351
L 199 351
L 200 351
L 201 351
L 203 351
L 204 351
L 205 351
L 206 351
L 208 351
L 209 351
L 210 351
L 212 351
L 213 351
L 214 351
L 216 351
L 217 351
L 218 351
L 219 351
L 221 351
L 222 351
L 223 351
L 225 351
L 226 351
L 227 351
L 229 351
L 230 351
L 231 351
L 232 351
L 234 351
L 235 351
L 236 351
L 238 351
L 239 351
L 240 351
L 242 351
L 243 351
L 244 351
L 245 351
L 247 351
L 248 351
L 249 351
L 251 351
L 252 351
L 253 351
L 255 351
L 256 351
L 257 351
L 259 351
L 260 351
L 261 351
L 262 351
L 264 351
L 265 351
L 266 351
L 268 351
L 269 351
L 270 351
L 272 351
L 273 351
L 274 351
L 275 351
L 277 351
L 278 351
L 279 351
L 281 351
L 282 351
L 283 351
L 285 351
L 286 351
L 287 351
L 288 351
L 290 351
L 291 351
L 292 351
L 294 351
L 295 351
L 296 351
L 298 351
L 299 351
L 300 351
L 301 351
L 303 351
L 304 351
L 305 351
L 307 351
L 308 351
L 309 351
L 311 351
L 312 351
L 313 351
L 314 351
L 316 351
L 317 351
L 318 351
L 320 351
L 321 351
L 322 351
L 324 351
L 325 351
L 326 351
L 328 351
L 329 351
L 330 351
L 331 351
L 333 351
L 334 351
L 335 351
L 337 351
L 338 351
L 339 351
L 341 351
L 342 351
L 343 351
L 344 351
L 346 351
L 347 351
L 348 351
L 350 350
L 351 351
L 352 350
L 354 351
L 355 351
L 356 350
L 357 350
L 359 350
L 360 350
L 361 350
L 363 351
L 364 350
L 365 350
L 367 350
L 368 350
L 369 350
L 370 350
L 372 350
L 373 350
L 374 350
L 376 351
L 377 350
L 378 350
L 380 351
L 381 350
L 382 350
L 383 350
L 385 350
L 386 351
L 387 350
L 389 350
L 390 350
L 391 350
L 393 351
L 394 351
L 395 351
L 397 350
L 398 351
L 399 350
L 400 350
L 402 350
L 403 350
L 404 350
L 406 350
L 407 350
L 408 351
L 410 350
L 411 351
L 412 350
L 413 351
L 415 350
L 416 350
L 417 350
L 419 350
L 420 351
L 421 350
L 423 350
L 424 351
L 425 351
L 426 351
L 428 350
L 429 351
L 430 350
L 432 351
L 433 351
L 434 350
L 436 351
L 437 350
L 438 350
L 439 350
L 441 351
L 442 350
L 443 351
L 445 350
L 446 350
L 447 350
L 449 350
L 450 350
L 451 350
L 452 351
L 454 351
L 455 350
L 456 350
L 458 350
L 459 351
L 460 351
L 462 350
L 463 351
L 464 350
L 466 351
L 467 351
L 468 351
L 469 351
L 471 351
L 472 351
L 473 350
L 475 351
L 476 351
L 477 351
L 479 351
L 480 350
L 481 350
L 482 350
L 484 351
L 485 351
L 486 351
L 488 351
L 489 351
L 490 350
L 492 350
L 493 351
L 494 351
L 495 351
L 497 351
L 498 351
L 499 351
L 501 351
L 502 350
L 503 351
L 505 351
L 506 351
L 507 351
L 508 351
L 510 351
L 511 351
L 512 351
L 514 351
L 515 351
L 516 351
L 518 351
L 519 351
L 520 351
L 521 351
L 523 351
L 524 351
L 525 351
L 527 351
L 528 351
L 529 351
L 531 351
L 532 351
L 533 351
L 534 351
L 536 351
L 537 351
L 538 351
L 540 351
L 541 351
L 542 351
L 544 351
L 545 351
L 546 351
L 548 351
L 549 351
L 550 351
L 551 351
L 553 351
L 554 351
L 555 351
L 557 351
L 558 350
L 559 351
L 561 351
L 562 351
L 563 351
L 564 351
L 566 351
L 567 351
L 568 351
L 570 351
L 571 350
L 572 351
L 574 351
L 575 351
L 576 351
L 577 350
L 579 351
L 580 351
L 581 351
L 583 351
L 584 351
L 585 351
L 587 351
L 588 351
L 589 351
L 590 351
L 592 351
L 593 351
L 594 351
L 596 351
L 597 351
L 598 350
L 600 351
L 601 351
L 602 350
L 603 351
L 605 351
L 606 351
L 607 351
L 609 351
L 610 351
L 611 351
L 613 351
L 614 351
L 615 351
L 617 351
L 618 351
L 619 351
L 620 351
L 622 351
L 623 351
L 624 351
L 626 351
L 627 351
L 628 350
L 630 351
L 631 350
L 632 350
L 633 351
L 635 351
L 636 351
L 637 351
L 639 351
L 640 351
L 641 351
L 643 351
L 644 351
L 645 351
L 646 351
L 648 351
L 649 351
L 650 351
L 652 351
L 653 350
L 654 351
L 656 351
L 657 351
L 658 351
L 659 351
L 661 351
L 662 351
L 663 351
L 665 351
L 666 351
L 667 351
L 669 351
L 670 351
L 671 351
L 672 351
L 674 351
L 675 351
L 676 351
L 678 351
L 679 351
L 680 351
L 682 351
L 683 351
L 684 351
L 686 351
L 687 351
L 688 351
L 689 351
L 691 351
L 692 351
L 693 351
L 695 351
L 696 351
L 697 351
L 699 351
L 700 351
L 701 351
L 702 351
L 704 351
L 705 351
L 706 351
L 708 351
L 709 351
L 710 351
L 712 351
L 713 351
L 714 351
L 715 351
L 717 351
L 718 351
L 719 351
L 721 351
L 722 351
L 723 351
L 725 351
L 726 351
L 727 351
L 728 351
L 730 351
L 731 351
L 732 351
L 734 351
L 735 351
L 736 351
L 738 351
L 739 351
L 740 351
L 741 351
L 743 351
L 744 351
L 745 351
L 747 351
L 748 351
L 749 351
L 751 351
L 752 351
L 753 351
L 755 351
L 756 351
L 757 351
L 758 351
L 760 351
L 761 351
L 762 351
L 764 351
L 765 351
L 766 351
L 768 351
L 769 351
L 770 351
L 771 351
L 773 351
L 774 351
L 775 351
L 777 351
L 778 351
L 779 351
L 781 351
L 782 351
L 783 351
L 784 351
L 786 351
L 787 351
L 788 351
L 790 351
L 791 351
L 792 351
L 794 351
L 795 351
L 796 351
L 797 351
L 799 351
L 800 351
L 801 351
L 803 351
L 804 351
L 805 351
L 807 351
L 808 351
L 809 351
L 810 351
L 812 351
L 813 351
L 814 351
L 816 351
L 817 351
L 818 351
L 820 351
L 821 351
L 822 351
L 824 351
L 825 351
L 826 351
L 827 351
L 829 351
L 830 351
L 831 351
L 833 351
L 834 351
L 835 351
L 837 351
L 838 351
L 839 351
L 840 351
L 842 351
L 843 350
L 844 350
L 846 351
L 847 350
L 848 351
L 850 351
L 851 350
L 852 351
L 853 351
L 855 351
L 856 351
L 857 351
L 859 351
L 860 350
L 861 351
L 863 351
L 864 350
L 865 350
L 866 351
L 868 351
L 869 351
L 870 350
L 872 350
L 873 351
L 874 350
L 876 351
L 877 350
L 878 350
L 879 351
L 881 350
L 882 351
L 883 350
L 885 350
L 886 351
L 887 351
L 889 351
L 890 351
L 891 350
L 893 351
L 894 351
L 895 351
L 896 351
L 898 351
L 899 351
L 900 351
L 902 351
L 903 351
L 904 351
L 906 351
L 907 351
L 908 351
L 909 351
L 911 351
L 912 351
L 913 351
L 915 351
L 916 351
L 917 351
L 919 351
L 920 350
L 921 351
L 922 351
L 924 351
L 925 351
L 926 351
L 928 351
L 929 351
L 930 351
L 932 351
L 933 351
L 934 351
L 935 351
L 937 351
L 938 351
L 939 351
L 941 351
L 942 351
L 943 351
L 945 351
L 946 351
L 947 351
L 948 351
L 950 351
L 951 351
L 952 351
L 954 351
L 955 351
L 956 351
L 958 351
L 959 351
L 960 351
L 961 351" style="stroke-width:1;stroke:rgba(217,0,116,1.0);fill:none"/><text x="397" y="33" style="stroke-width:0;stroke:none;fill:rgba(51,51,51,1.0);font-size:23.0px;font-family:'Roboto Medium',sans-serif">Amstetten 04.02.2022</text><path  d="M 38 11
L 251 11
L 251 91
L 38 91
L 38 11" style="stroke-width:1;stroke:rgba(51,51,51,1.0);fill:rgba(255,255,255,1.0)"/><text x="43" y="26" style="stroke-width:0;stroke:none;fill:rgba(51,51,51,1.0);font-size:10.2px;font-family:'Roboto Medium',sans-serif">Sieben Tage Durschnitt Inzidenz Fälle</text><path  d="M 221 21
L 241 21" style="stroke-width:1;stroke:rgba(0,116,217,1.0);fill:none"/><text x="43" y="56" style="stroke-width:0;stroke:none;fill:rgba(51,51,51,1.0);font-size:10.2px;font-family:'Roboto Medium',sans-serif">Anzahl Faelle</text><path  d="M 110 51
L 241 51" style="stroke-width:1;stroke:rgba(0,217,101,1.0);fill:none"/><text x="43" y="86" style="stroke-width:0;stroke:none;fill:rgba(51,51,51,1.0);font-size:10.2px;font-family:'Roboto Medium',sans-serif">Anzahl Tot</text><path  d="M 98 81
L 241 81" style="stroke-width:1;stroke:rgba(217,0,116,1.0);fill:none"/></svg>