<svg xmlns="http://www.w3.org/2000/svg" xmlns:xlink="http://www.w3.org/1999/xlink" width="1024" height="400">\n<path  d="M 0 0
L 1024 0
L 1024 400
L 0 400
L 0 0" style="stroke-width:0;stroke:rgba(255,255,255,1.0);fill:rgba(255,255,255,1.0)"/><path  d="M 38 11
L 969 11
L 969 351
L 38 351
L 38 11" style="stroke-width:0;stroke:rgba(255,255,255,1.0);fill:rgba(255,255,255,1.0)"/><path  d="M 38 351
L 969 351" style="stroke-width:1;stroke:rgba(51,51,51,1.0);fill:none"/><path  d="M 38 351
L 38 356" style="stroke-width:1;stroke:rgba(51,51,51,1.0);fill:none"/><text x="5" y="373" style="stroke-width:0;stroke:none;fill:rgba(51,51,51,1.0);font-size:12.8px;font-family:'Roboto Medium',sans-serif">2020-02-26</text><path  d="M 155 351
L 155 356" style="stroke-width:1;stroke:rgba(51,51,51,1.0);fill:none"/><text x="122" y="373" style="stroke-width:0;stroke:none;fill:rgba(51,51,51,1.0);font-size:12.8px;font-family:'Roboto Medium',sans-serif">2020-04-14</text><path  d="M 271 351
L 271 356" style="stroke-width:1;stroke:rgba(51,51,51,1.0);fill:none"/><text x="238" y="373" style="stroke-width:0;stroke:none;fill:rgba(51,51,51,1.0);font-size:12.8px;font-family:'Roboto Medium',sans-serif">2020-06-02</text><path  d="M 388 351
L 388 356" style="stroke-width:1;stroke:rgba(51,51,51,1.0);fill:none"/><text x="355" y="373" style="stroke-width:0;stroke:none;fill:rgba(51,51,51,1.0);font-size:12.8px;font-family:'Roboto Medium',sans-serif">2020-07-21</text><path  d="M 504 351
L 504 356" style="stroke-width:1;stroke:rgba(51,51,51,1.0);fill:none"/><text x="471" y="373" style="stroke-width:0;stroke:none;fill:rgba(51,51,51,1.0);font-size:12.8px;font-family:'Roboto Medium',sans-serif">2020-09-08</text><path  d="M 620 351
L 620 356" style="stroke-width:1;stroke:rgba(51,51,51,1.0);fill:none"/><text x="587" y="373" style="stroke-width:0;stroke:none;fill:rgba(51,51,51,1.0);font-size:12.8px;font-family:'Roboto Medium',sans-serif">2020-10-26</text><path  d="M 737 351
L 737 356" style="stroke-width:1;stroke:rgba(51,51,51,1.0);fill:none"/><text x="704" y="373" style="stroke-width:0;stroke:none;fill:rgba(51,51,51,1.0);font-size:12.8px;font-family:'Roboto Medium',sans-serif">2020-12-14</text><path  d="M 853 351
L 853 356" style="stroke-width:1;stroke:rgba(51,51,51,1.0);fill:none"/><text x="820" y="373" style="stroke-width:0;stroke:none;fill:rgba(51,51,51,1.0);font-size:12.8px;font-family:'Roboto Medium',sans-serif">2021-02-01</text><path  d="M 969 351
L 969 356" style="stroke-width:1;stroke:rgba(51,51,51,1.0);fill:none"/><text x="936" y="373" style="stroke-width:0;stroke:none;fill:rgba(51,51,51,1.0);font-size:12.8px;font-family:'Roboto Medium',sans-serif">2021-03-22</text><text x="485" y="395" style="stroke-width:0;stroke:none;fill:rgba(51,51,51,1.0);font-size:12.8px;font-family:'Roboto Medium',sans-serif">Datum</text><path  d="M 970 351
L 970 11" style="stroke-width:1;stroke:rgba(51,51,51,1.0);fill:none"/><path  d="M 970 351
L 975 351" style="stroke-width:1;stroke:rgba(51,51,51,1.0);fill:none"/><text x="980" y="357" style="stroke-width:0;stroke:none;fill:rgba(51,51,51,1.0);font-size:12.8px;font-family:'Roboto Medium',sans-serif">0.00</text><path  d="M 970 308
L 975 308" style="stroke-width:1;stroke:rgba(51,51,51,1.0);fill:none"/><text x="980" y="314" style="stroke-width:0;stroke:none;fill:rgba(51,51,51,1.0);font-size:12.8px;font-family:'Roboto Medium',sans-serif">102.00</text><path  d="M 970 265
L 975 265" style="stroke-width:1;stroke:rgba(51,51,51,1.0);fill:none"/><text x="980" y="271" style="stroke-width:0;stroke:none;fill:rgba(51,51,51,1.0);font-size:12.8px;font-family:'Roboto Medium',sans-serif">203.00</text><path  d="M 970 223
L 975 223" style="stroke-width:1;stroke:rgba(51,51,51,1.0);fill:none"/><text x="980" y="229" style="stroke-width:0;stroke:none;fill:rgba(51,51,51,1.0);font-size:12.8px;font-family:'Roboto Medium',sans-serif">304.00</text><path  d="M 970 181
L 975 181" style="stroke-width:1;stroke:rgba(51,51,51,1.0);fill:none"/><text x="980" y="187" style="stroke-width:0;stroke:none;fill:rgba(51,51,51,1.0);font-size:12.8px;font-family:'Roboto Medium',sans-serif">405.00</text><path  d="M 970 138
L 975 138" style="stroke-width:1;stroke:rgba(51,51,51,1.0);fill:none"/><text x="980" y="144" style="stroke-width:0;stroke:none;fill:rgba(51,51,51,1.0);font-size:12.8px;font-family:'Roboto Medium',sans-serif">507.00</text><path  d="M 970 95
L 975 95" style="stroke-width:1;stroke:rgba(51,51,51,1.0);fill:none"/><text x="980" y="101" style="stroke-width:0;stroke:none;fill:rgba(51,51,51,1.0);font-size:12.8px;font-family:'Roboto Medium',sans-serif">608.00</text><path  d="M 970 53
L 975 53" style="stroke-width:1;stroke:rgba(51,51,51,1.0);fill:none"/><text x="980" y="59" style="stroke-width:0;stroke:none;fill:rgba(51,51,51,1.0);font-size:12.8px;font-family:'Roboto Medium',sans-serif">709.00</text><path  d="M 970 11
L 975 11" style="stroke-width:1;stroke:rgba(51,51,51,1.0);fill:none"/><text x="980" y="17" style="stroke-width:0;stroke:none;fill:rgba(51,51,51,1.0);font-size:12.8px;font-family:'Roboto Medium',sans-serif">810.00</text><path  d="M 38 351
L 41 351
L 43 351
L 46 351
L 48 351
L 50 351
L 53 351
L 55 351
L 58 351
L 60 351
L 62 351
L 65 351
L 67 351
L 70 350
L 72 350
L 74 349
L 77 348
L 79 343
L 81 340
L 84 340
L 86 338
L 89 333
L 91 331
L 93 332
L 96 333
L 98 332
L 101 328
L 103 327
L 105 327
L 108 322
L 110 316
L 113 316
L 115 316
L 117 318
L 120 318
L 122 319
L 124 323
L 127 326
L 129 327
L 132 331
L 134 331
L 136 334
L 139 335
L 141 335
L 144 337
L 146 334
L 148 335
L 151 338
L 153 338
L 155 339
L 158 341
L 160 343
L 163 346
L 165 346
L 167 345
L 170 347
L 172 347
L 175 347
L 177 348
L 179 348
L 182 348
L 184 349
L 187 348
L 189 348
L 191 349
L 194 349
L 196 349
L 198 349
L 201 349
L 203 350
L 206 351
L 208 350
L 210 350
L 213 350
L 215 350
L 218 350
L 220 350
L 222 350
L 225 350
L 227 350
L 229 350
L 232 350
L 234 350
L 237 350
L 239 351
L 241 351
L 244 351
L 246 351
L 249 351
L 251 351
L 253 351
L 256 350
L 258 350
L 261 350
L 263 350
L 265 350
L 268 350
L 270 350
L 272 351
L 275 351
L 277 350
L 280 350
L 282 350
L 284 350
L 287 350
L 289 350
L 292 350
L 294 351
L 296 351
L 299 351
L 301 351
L 303 351
L 306 351
L 308 351
L 311 351
L 313 351
L 315 351
L 318 351
L 320 351
L 323 351
L 325 351
L 327 351
L 330 351
L 332 351
L 335 351
L 337 351
L 339 351
L 342 351
L 344 350
L 346 350
L 349 350
L 351 350
L 354 349
L 356 348
L 358 348
L 361 349
L 363 348
L 366 348
L 368 349
L 370 349
L 373 350
L 375 350
L 377 350
L 380 350
L 382 350
L 385 350
L 387 350
L 389 349
L 392 348
L 394 348
L 397 349
L 399 348
L 401 347
L 404 347
L 406 348
L 409 348
L 411 348
L 413 348
L 416 348
L 418 349
L 420 349
L 423 349
L 425 350
L 428 351
L 430 351
L 432 350
L 435 350
L 437 349
L 440 349
L 442 349
L 444 348
L 447 348
L 449 348
L 451 348
L 454 347
L 456 347
L 459 348
L 461 348
L 463 348
L 466 348
L 468 349
L 471 349
L 473 349
L 475 349
L 478 349
L 480 349
L 483 348
L 485 347
L 487 348
L 490 348
L 492 348
L 494 349
L 497 349
L 499 350
L 502 349
L 504 348
L 506 348
L 509 347
L 511 347
L 514 347
L 516 347
L 518 348
L 521 348
L 523 347
L 525 347
L 528 347
L 530 347
L 533 348
L 535 348
L 537 348
L 540 348
L 542 347
L 545 347
L 547 346
L 549 346
L 552 346
L 554 345
L 557 344
L 559 344
L 561 338
L 564 337
L 566 337
L 568 335
L 571 336
L 573 335
L 576 332
L 578 338
L 580 338
L 583 336
L 585 335
L 588 334
L 590 333
L 592 332
L 595 327
L 597 317
L 599 314
L 602 307
L 604 304
L 607 300
L 609 286
L 611 278
L 614 273
L 616 267
L 619 261
L 621 247
L 623 242
L 626 228
L 628 220
L 631 214
L 633 192
L 635 167
L 638 166
L 640 142
L 642 138
L 645 114
L 647 107
L 650 97
L 652 95
L 654 65
L 657 64
L 659 61
L 662 62
L 664 50
L 666 46
L 669 42
L 671 45
L 673 54
L 676 42
L 678 28
L 681 14
L 683 47
L 685 50
L 688 68
L 690 49
L 693 66
L 695 91
L 697 121
L 700 106
L 702 122
L 705 128
L 707 151
L 709 161
L 712 170
L 714 164
L 716 175
L 719 178
L 721 182
L 724 190
L 726 187
L 728 189
L 731 192
L 733 189
L 736 187
L 738 189
L 740 179
L 743 187
L 745 193
L 747 201
L 750 206
L 752 215
L 755 207
L 757 213
L 759 215
L 762 227
L 764 224
L 767 223
L 769 224
L 771 216
L 774 213
L 776 212
L 779 204
L 781 213
L 783 218
L 786 216
L 788 238
L 790 245
L 793 255
L 795 250
L 798 250
L 800 249
L 802 258
L 805 260
L 807 268
L 810 273
L 812 280
L 814 286
L 817 291
L 819 289
L 821 291
L 824 294
L 826 291
L 829 298
L 831 299
L 833 306
L 836 305
L 838 305
L 841 302
L 843 304
L 845 299
L 848 301
L 850 300
L 853 305
L 855 305
L 857 305
L 860 304
L 862 304
L 864 303
L 867 302
L 869 301
L 872 303
L 874 303
L 876 304
L 879 308
L 881 309
L 884 312
L 886 311
L 888 314
L 891 318
L 893 322
L 895 322
L 898 318
L 900 315
L 903 320
L 905 320
L 907 318
L 910 316
L 912 316
L 915 313
L 917 316
L 919 318
L 922 312
L 924 312
L 927 315
L 929 314
L 931 319
L 934 317
L 936 316
L 938 319
L 941 321
L 943 316
L 946 312
L 948 310
L 950 312
L 953 304
L 955 302
L 958 294
L 960 283
L 962 272
L 965 268
L 967 257
L 969 250" style="stroke-width:1;stroke:rgba(0,116,217,1.0);fill:none"/><path  d="M 38 351
L 41 351
L 43 351
L 46 351
L 48 351
L 50 351
L 53 351
L 55 351
L 58 351
L 60 351
L 62 351
L 65 351
L 67 351
L 70 350
L 72 351
L 74 350
L 77 348
L 79 345
L 81 347
L 84 350
L 86 348
L 89 345
L 91 348
L 93 349
L 96 347
L 98 345
L 101 345
L 103 347
L 105 345
L 108 341
L 110 342
L 113 348
L 115 345
L 117 347
L 120 346
L 122 347
L 124 346
L 127 345
L 129 349
L 132 349
L 134 348
L 136 349
L 139 348
L 141 347
L 144 347
L 146 346
L 148 350
L 151 351
L 153 349
L 155 349
L 158 350
L 160 349
L 163 350
L 165 351
L 167 350
L 170 351
L 172 350
L 175 350
L 177 350
L 179 351
L 182 351
L 184 351
L 187 350
L 189 350
L 191 351
L 194 351
L 196 351
L 198 351
L 201 351
L 203 351
L 206 351
L 208 350
L 210 351
L 213 351
L 215 351
L 218 351
L 220 351
L 222 350
L 225 351
L 227 351
L 229 351
L 232 351
L 234 351
L 237 351
L 239 351
L 241 351
L 244 351
L 246 351
L 249 351
L 251 351
L 253 351
L 256 350
L 258 351
L 261 351
L 263 351
L 265 351
L 268 351
L 270 351
L 272 351
L 275 351
L 277 350
L 280 351
L 282 351
L 284 351
L 287 351
L 289 351
L 292 351
L 294 351
L 296 351
L 299 351
L 301 351
L 303 351
L 306 351
L 308 351
L 311 351
L 313 351
L 315 351
L 318 351
L 320 351
L 323 351
L 325 351
L 327 351
L 330 351
L 332 351
L 335 351
L 337 351
L 339 351
L 342 351
L 344 350
L 346 351
L 349 351
L 351 350
L 354 350
L 356 349
L 358 351
L 361 351
L 363 350
L 366 351
L 368 351
L 370 351
L 373 351
L 375 351
L 377 351
L 380 350
L 382 351
L 385 351
L 387 351
L 389 350
L 392 349
L 394 351
L 397 351
L 399 350
L 401 349
L 404 350
L 406 351
L 409 350
L 411 350
L 413 351
L 416 351
L 418 351
L 420 351
L 423 351
L 425 351
L 428 351
L 430 351
L 432 350
L 435 350
L 437 350
L 440 351
L 442 350
L 444 350
L 447 350
L 449 350
L 451 350
L 454 350
L 456 350
L 459 351
L 461 350
L 463 351
L 466 351
L 468 351
L 471 350
L 473 350
L 475 351
L 478 350
L 480 351
L 483 349
L 485 350
L 487 351
L 490 351
L 492 351
L 494 351
L 497 350
L 499 351
L 502 349
L 504 350
L 506 350
L 509 350
L 511 350
L 514 350
L 516 350
L 518 350
L 521 350
L 523 349
L 525 350
L 528 350
L 530 351
L 533 351
L 535 351
L 537 350
L 540 349
L 542 349
L 545 350
L 547 350
L 549 351
L 552 350
L 554 348
L 557 349
L 559 349
L 561 343
L 564 349
L 566 350
L 568 348
L 571 349
L 573 348
L 576 345
L 578 349
L 580 349
L 583 348
L 585 348
L 588 347
L 590 347
L 592 344
L 595 343
L 597 337
L 599 345
L 602 340
L 604 343
L 607 343
L 609 327
L 611 335
L 614 332
L 616 337
L 619 333
L 621 327
L 623 337
L 626 311
L 628 325
L 631 324
L 633 311
L 635 304
L 638 326
L 640 309
L 642 305
L 645 298
L 647 316
L 650 300
L 652 302
L 654 291
L 657 308
L 659 302
L 662 298
L 664 302
L 666 295
L 669 298
L 671 294
L 673 319
L 676 288
L 678 282
L 681 286
L 683 334
L 685 301
L 688 316
L 690 296
L 693 308
L 695 310
L 697 322
L 700 316
L 702 319
L 705 323
L 707 323
L 709 319
L 712 321
L 714 315
L 716 329
L 719 322
L 721 327
L 724 332
L 726 317
L 728 323
L 731 319
L 733 325
L 736 320
L 738 330
L 740 321
L 743 325
L 745 331
L 747 328
L 750 330
L 752 331
L 755 319
L 757 327
L 759 328
L 762 345
L 764 325
L 767 329
L 769 332
L 771 310
L 774 323
L 776 327
L 779 336
L 781 335
L 783 335
L 786 331
L 788 335
L 790 332
L 793 339
L 795 331
L 798 335
L 800 333
L 802 341
L 805 337
L 807 342
L 810 344
L 812 338
L 814 343
L 817 339
L 819 339
L 821 340
L 824 345
L 826 341
L 829 347
L 831 343
L 833 347
L 836 338
L 838 340
L 841 341
L 843 344
L 845 340
L 848 345
L 850 346
L 853 344
L 855 340
L 857 342
L 860 343
L 862 340
L 864 345
L 867 344
L 869 343
L 872 343
L 874 342
L 876 343
L 879 345
L 881 346
L 884 348
L 886 341
L 888 347
L 891 345
L 893 348
L 895 345
L 898 342
L 900 344
L 903 346
L 905 348
L 907 343
L 910 345
L 912 345
L 915 339
L 917 347
L 919 348
L 922 341
L 924 343
L 927 349
L 929 343
L 931 345
L 934 345
L 936 346
L 938 345
L 941 345
L 943 344
L 946 339
L 948 343
L 950 348
L 953 337
L 955 342
L 958 335
L 960 332
L 962 325
L 965 338
L 967 335
L 969 328" style="stroke-width:1;stroke:rgba(0,217,101,1.0);fill:none"/><path  d="M 38 351
L 41 351
L 43 351
L 46 351
L 48 351
L 50 351
L 53 351
L 55 351
L 58 351
L 60 351
L 62 351
L 65 351
L 67 351
L 70 351
L 72 351
L 74 351
L 77 351
L 79 351
L 81 351
L 84 351
L 86 351
L 89 351
L 91 351
L 93 351
L 96 351
L 98 351
L 101 351
L 103 351
L 105 351
L 108 350
L 110 350
L 113 350
L 115 350
L 117 351
L 120 351
L 122 351
L 124 351
L 127 350
L 129 351
L 132 350
L 134 351
L 136 350
L 139 350
L 141 351
L 144 351
L 146 350
L 148 351
L 151 350
L 153 351
L 155 350
L 158 350
L 160 351
L 163 351
L 165 350
L 167 351
L 170 351
L 172 351
L 175 351
L 177 351
L 179 351
L 182 351
L 184 351
L 187 351
L 189 351
L 191 351
L 194 351
L 196 351
L 198 351
L 201 351
L 203 350
L 206 351
L 208 351
L 210 351
L 213 351
L 215 351
L 218 351
L 220 351
L 222 351
L 225 351
L 227 351
L 229 351
L 232 351
L 234 351
L 237 351
L 239 351
L 241 351
L 244 351
L 246 351
L 249 351
L 251 351
L 253 351
L 256 351
L 258 351
L 261 351
L 263 351
L 265 351
L 268 351
L 270 351
L 272 351
L 275 351
L 277 351
L 280 351
L 282 351
L 284 351
L 287 351
L 289 351
L 292 351
L 294 351
L 296 351
L 299 351
L 301 351
L 303 351
L 306 351
L 308 351
L 311 351
L 313 351
L 315 351
L 318 351
L 320 351
L 323 351
L 325 351
L 327 351
L 330 351
L 332 351
L 335 351
L 337 351
L 339 351
L 342 351
L 344 351
L 346 351
L 349 351
L 351 351
L 354 351
L 356 351
L 358 351
L 361 351
L 363 351
L 366 351
L 368 351
L 370 351
L 373 351
L 375 351
L 377 351
L 380 351
L 382 351
L 385 351
L 387 351
L 389 351
L 392 351
L 394 351
L 397 351
L 399 351
L 401 351
L 404 351
L 406 351
L 409 351
L 411 351
L 413 351
L 416 351
L 418 351
L 420 351
L 423 351
L 425 351
L 428 351
L 430 351
L 432 351
L 435 351
L 437 351
L 440 351
L 442 351
L 444 351
L 447 351
L 449 351
L 451 351
L 454 351
L 456 351
L 459 351
L 461 351
L 463 351
L 466 351
L 468 351
L 471 351
L 473 351
L 475 351
L 478 351
L 480 351
L 483 351
L 485 351
L 487 351
L 490 351
L 492 351
L 494 351
L 497 351
L 499 351
L 502 351
L 504 351
L 506 351
L 509 351
L 511 351
L 514 351
L 516 351
L 518 351
L 521 351
L 523 351
L 525 351
L 528 351
L 530 351
L 533 351
L 535 351
L 537 351
L 540 351
L 542 351
L 545 351
L 547 351
L 549 351
L 552 351
L 554 351
L 557 351
L 559 351
L 561 351
L 564 351
L 566 351
L 568 351
L 571 351
L 573 351
L 576 351
L 578 351
L 580 351
L 583 351
L 585 351
L 588 351
L 590 351
L 592 351
L 595 351
L 597 351
L 599 351
L 602 351
L 604 351
L 607 351
L 609 350
L 611 351
L 614 350
L 616 351
L 619 351
L 621 350
L 623 350
L 626 350
L 628 350
L 631 350
L 633 351
L 635 349
L 638 349
L 640 350
L 642 350
L 645 350
L 647 350
L 650 350
L 652 350
L 654 350
L 657 351
L 659 350
L 662 350
L 664 351
L 666 350
L 669 350
L 671 350
L 673 350
L 676 351
L 678 350
L 681 350
L 683 350
L 685 350
L 688 351
L 690 351
L 693 351
L 695 350
L 697 351
L 700 350
L 702 350
L 705 350
L 707 350
L 709 349
L 712 350
L 714 350
L 716 351
L 719 349
L 721 351
L 724 350
L 726 351
L 728 348
L 731 350
L 733 350
L 736 350
L 738 351
L 740 349
L 743 350
L 745 351
L 747 351
L 750 351
L 752 349
L 755 351
L 757 350
L 759 351
L 762 351
L 764 350
L 767 351
L 769 350
L 771 350
L 774 350
L 776 351
L 779 350
L 781 351
L 783 350
L 786 350
L 788 350
L 790 350
L 793 349
L 795 350
L 798 351
L 800 351
L 802 350
L 805 350
L 807 350
L 810 351
L 812 351
L 814 350
L 817 351
L 819 350
L 821 351
L 824 351
L 826 351
L 829 351
L 831 351
L 833 351
L 836 350
L 838 351
L 841 351
L 843 351
L 845 351
L 848 350
L 850 350
L 853 350
L 855 351
L 857 351
L 860 351
L 862 351
L 864 351
L 867 350
L 869 350
L 872 351
L 874 351
L 876 351
L 879 351
L 881 351
L 884 351
L 886 351
L 888 350
L 891 351
L 893 351
L 895 351
L 898 351
L 900 351
L 903 351
L 905 351
L 907 351
L 910 351
L 912 351
L 915 351
L 917 351
L 919 351
L 922 351
L 924 351
L 927 351
L 929 351
L 931 351
L 934 351
L 936 351
L 938 351
L 941 351
L 943 351
L 946 351
L 948 351
L 950 351
L 953 351
L 955 351
L 958 351
L 960 351
L 962 351
L 965 351
L 967 351
L 969 351" style="stroke-width:1;stroke:rgba(217,0,116,1.0);fill:none"/><text x="397" y="33" style="stroke-width:0;stroke:none;fill:rgba(51,51,51,1.0);font-size:23.0px;font-family:'Roboto Medium',sans-serif">Amstetten 22.03.2021</text><path  d="M 38 11
L 251 11
L 251 91
L 38 91
L 38 11" style="stroke-width:1;stroke:rgba(51,51,51,1.0);fill:rgba(255,255,255,1.0)"/><text x="43" y="26" style="stroke-width:0;stroke:none;fill:rgba(51,51,51,1.0);font-size:10.2px;font-family:'Roboto Medium',sans-serif">Sieben Tage Durschnitt Inzidenz Fälle</text><path  d="M 221 21
L 241 21" style="stroke-width:1;stroke:rgba(0,116,217,1.0);fill:none"/><text x="43" y="56" style="stroke-width:0;stroke:none;fill:rgba(51,51,51,1.0);font-size:10.2px;font-family:'Roboto Medium',sans-serif">Anzahl Faelle</text><path  d="M 110 51
L 241 51" style="stroke-width:1;stroke:rgba(0,217,101,1.0);fill:none"/><text x="43" y="86" style="stroke-width:0;stroke:none;fill:rgba(51,51,51,1.0);font-size:10.2px;font-family:'Roboto Medium',sans-serif">Anzahl Tot</text><path  d="M 98 81
L 241 81" style="stroke-width:1;stroke:rgba(217,0,116,1.0);fill:none"/></svg>