<svg xmlns="http://www.w3.org/2000/svg" xmlns:xlink="http://www.w3.org/1999/xlink" width="1024" height="400">\n<path  d="M 0 0
L 1024 0
L 1024 400
L 0 400
L 0 0" style="stroke-width:0;stroke:rgba(255,255,255,1.0);fill:rgba(255,255,255,1.0)"/><path  d="M 38 11
L 961 11
L 961 351
L 38 351
L 38 11" style="stroke-width:0;stroke:rgba(255,255,255,1.0);fill:rgba(255,255,255,1.0)"/><path  d="M 38 351
L 961 351" style="stroke-width:1;stroke:rgba(51,51,51,1.0);fill:none"/><path  d="M 38 351
L 38 356" style="stroke-width:1;stroke:rgba(51,51,51,1.0);fill:none"/><text x="5" y="373" style="stroke-width:0;stroke:none;fill:rgba(51,51,51,1.0);font-size:12.8px;font-family:'Roboto Medium',sans-serif">2020-02-26</text><path  d="M 154 351
L 154 356" style="stroke-width:1;stroke:rgba(51,51,51,1.0);fill:none"/><text x="121" y="373" style="stroke-width:0;stroke:none;fill:rgba(51,51,51,1.0);font-size:12.8px;font-family:'Roboto Medium',sans-serif">2020-07-09</text><path  d="M 269 351
L 269 356" style="stroke-width:1;stroke:rgba(51,51,51,1.0);fill:none"/><text x="236" y="373" style="stroke-width:0;stroke:none;fill:rgba(51,51,51,1.0);font-size:12.8px;font-family:'Roboto Medium',sans-serif">2020-11-21</text><path  d="M 385 351
L 385 356" style="stroke-width:1;stroke:rgba(51,51,51,1.0);fill:none"/><text x="352" y="373" style="stroke-width:0;stroke:none;fill:rgba(51,51,51,1.0);font-size:12.8px;font-family:'Roboto Medium',sans-serif">2021-04-05</text><path  d="M 500 351
L 500 356" style="stroke-width:1;stroke:rgba(51,51,51,1.0);fill:none"/><text x="467" y="373" style="stroke-width:0;stroke:none;fill:rgba(51,51,51,1.0);font-size:12.8px;font-family:'Roboto Medium',sans-serif">2021-08-18</text><path  d="M 615 351
L 615 356" style="stroke-width:1;stroke:rgba(51,51,51,1.0);fill:none"/><text x="582" y="373" style="stroke-width:0;stroke:none;fill:rgba(51,51,51,1.0);font-size:12.8px;font-family:'Roboto Medium',sans-serif">2021-12-31</text><path  d="M 731 351
L 731 356" style="stroke-width:1;stroke:rgba(51,51,51,1.0);fill:none"/><text x="698" y="373" style="stroke-width:0;stroke:none;fill:rgba(51,51,51,1.0);font-size:12.8px;font-family:'Roboto Medium',sans-serif">2022-05-15</text><path  d="M 846 351
L 846 356" style="stroke-width:1;stroke:rgba(51,51,51,1.0);fill:none"/><text x="813" y="373" style="stroke-width:0;stroke:none;fill:rgba(51,51,51,1.0);font-size:12.8px;font-family:'Roboto Medium',sans-serif">2022-09-27</text><path  d="M 961 351
L 961 356" style="stroke-width:1;stroke:rgba(51,51,51,1.0);fill:none"/><text x="928" y="373" style="stroke-width:0;stroke:none;fill:rgba(51,51,51,1.0);font-size:12.8px;font-family:'Roboto Medium',sans-serif">2023-02-09</text><text x="481" y="395" style="stroke-width:0;stroke:none;fill:rgba(51,51,51,1.0);font-size:12.8px;font-family:'Roboto Medium',sans-serif">Datum</text><path  d="M 962 351
L 962 11" style="stroke-width:1;stroke:rgba(51,51,51,1.0);fill:none"/><path  d="M 962 351
L 967 351" style="stroke-width:1;stroke:rgba(51,51,51,1.0);fill:none"/><text x="972" y="357" style="stroke-width:0;stroke:none;fill:rgba(51,51,51,1.0);font-size:12.8px;font-family:'Roboto Medium',sans-serif">0.00</text><path  d="M 962 308
L 967 308" style="stroke-width:1;stroke:rgba(51,51,51,1.0);fill:none"/><text x="972" y="314" style="stroke-width:0;stroke:none;fill:rgba(51,51,51,1.0);font-size:12.8px;font-family:'Roboto Medium',sans-serif">600.00</text><path  d="M 962 266
L 967 266" style="stroke-width:1;stroke:rgba(51,51,51,1.0);fill:none"/><text x="972" y="272" style="stroke-width:0;stroke:none;fill:rgba(51,51,51,1.0);font-size:12.8px;font-family:'Roboto Medium',sans-serif">1200.00</text><path  d="M 962 223
L 967 223" style="stroke-width:1;stroke:rgba(51,51,51,1.0);fill:none"/><text x="972" y="229" style="stroke-width:0;stroke:none;fill:rgba(51,51,51,1.0);font-size:12.8px;font-family:'Roboto Medium',sans-serif">1800.00</text><path  d="M 962 181
L 967 181" style="stroke-width:1;stroke:rgba(51,51,51,1.0);fill:none"/><text x="972" y="187" style="stroke-width:0;stroke:none;fill:rgba(51,51,51,1.0);font-size:12.8px;font-family:'Roboto Medium',sans-serif">2400.00</text><path  d="M 962 138
L 967 138" style="stroke-width:1;stroke:rgba(51,51,51,1.0);fill:none"/><text x="972" y="144" style="stroke-width:0;stroke:none;fill:rgba(51,51,51,1.0);font-size:12.8px;font-family:'Roboto Medium',sans-serif">3000.00</text><path  d="M 962 96
L 967 96" style="stroke-width:1;stroke:rgba(51,51,51,1.0);fill:none"/><text x="972" y="102" style="stroke-width:0;stroke:none;fill:rgba(51,51,51,1.0);font-size:12.8px;font-family:'Roboto Medium',sans-serif">3600.00</text><path  d="M 962 53
L 967 53" style="stroke-width:1;stroke:rgba(51,51,51,1.0);fill:none"/><text x="972" y="59" style="stroke-width:0;stroke:none;fill:rgba(51,51,51,1.0);font-size:12.8px;font-family:'Roboto Medium',sans-serif">4200.00</text><path  d="M 962 11
L 967 11" style="stroke-width:1;stroke:rgba(51,51,51,1.0);fill:none"/><text x="972" y="17" style="stroke-width:0;stroke:none;fill:rgba(51,51,51,1.0);font-size:12.8px;font-family:'Roboto Medium',sans-serif">4800.00</text><path  d="M 38 351
L 39 351
L 40 351
L 41 351
L 42 351
L 43 351
L 44 351
L 44 351
L 45 351
L 46 351
L 47 351
L 48 351
L 49 351
L 50 350
L 50 350
L 51 350
L 52 350
L 53 349
L 54 349
L 55 349
L 56 348
L 56 348
L 57 348
L 58 349
L 59 349
L 60 350
L 61 350
L 62 350
L 62 350
L 63 349
L 64 348
L 65 348
L 66 347
L 67 346
L 68 346
L 68 346
L 69 346
L 70 346
L 71 347
L 72 347
L 73 347
L 74 348
L 74 348
L 75 348
L 76 348
L 77 348
L 78 348
L 79 348
L 80 348
L 80 349
L 81 349
L 82 349
L 83 350
L 84 350
L 85 350
L 86 350
L 86 350
L 87 350
L 88 350
L 89 350
L 90 350
L 91 350
L 92 350
L 92 350
L 93 350
L 94 350
L 95 350
L 96 350
L 97 350
L 98 350
L 98 351
L 99 350
L 100 350
L 101 350
L 102 350
L 103 350
L 104 350
L 104 350
L 105 350
L 106 350
L 107 350
L 108 350
L 109 350
L 109 350
L 110 351
L 111 350
L 112 350
L 113 350
L 114 350
L 115 350
L 115 350
L 116 350
L 117 350
L 118 350
L 119 350
L 120 350
L 121 350
L 121 350
L 122 351
L 123 351
L 124 350
L 125 350
L 126 350
L 127 350
L 127 350
L 128 350
L 129 350
L 130 351
L 131 351
L 132 351
L 133 351
L 133 351
L 134 351
L 135 351
L 136 351
L 137 351
L 138 351
L 139 351
L 139 351
L 140 351
L 141 351
L 142 351
L 143 351
L 144 351
L 145 351
L 145 351
L 146 351
L 147 351
L 148 350
L 149 350
L 150 350
L 151 350
L 151 350
L 152 350
L 153 350
L 154 350
L 155 350
L 156 350
L 157 350
L 157 350
L 158 350
L 159 350
L 160 350
L 161 350
L 162 350
L 163 350
L 163 350
L 164 350
L 165 350
L 166 350
L 167 350
L 168 350
L 169 350
L 169 350
L 170 350
L 171 350
L 172 350
L 173 350
L 174 350
L 175 350
L 175 350
L 176 350
L 177 350
L 178 351
L 179 351
L 180 350
L 180 350
L 181 350
L 182 350
L 183 350
L 184 350
L 185 350
L 186 350
L 186 350
L 187 350
L 188 350
L 189 350
L 190 350
L 191 350
L 192 350
L 192 350
L 193 350
L 194 350
L 195 350
L 196 350
L 197 350
L 198 350
L 198 350
L 199 350
L 200 350
L 201 350
L 202 350
L 203 350
L 204 350
L 204 350
L 205 350
L 206 350
L 207 350
L 208 350
L 209 350
L 210 350
L 210 350
L 211 350
L 212 350
L 213 350
L 214 350
L 215 350
L 216 350
L 216 350
L 217 350
L 218 350
L 219 350
L 220 350
L 221 350
L 222 350
L 222 350
L 223 349
L 224 349
L 225 349
L 226 348
L 227 348
L 228 348
L 228 348
L 229 348
L 230 348
L 231 347
L 232 348
L 233 348
L 234 348
L 234 348
L 235 348
L 236 347
L 237 347
L 238 347
L 239 345
L 240 344
L 240 343
L 241 343
L 242 342
L 243 340
L 244 338
L 245 338
L 246 337
L 246 335
L 247 333
L 248 332
L 249 330
L 250 329
L 251 328
L 251 324
L 252 320
L 253 320
L 254 316
L 255 315
L 256 311
L 257 310
L 257 308
L 258 308
L 259 303
L 260 303
L 261 302
L 262 302
L 263 300
L 263 300
L 264 299
L 265 299
L 266 301
L 267 299
L 268 296
L 269 294
L 269 299
L 270 300
L 271 303
L 272 300
L 273 303
L 274 307
L 275 312
L 275 310
L 276 313
L 277 313
L 278 317
L 279 319
L 280 320
L 281 319
L 281 321
L 282 321
L 283 322
L 284 323
L 285 323
L 286 323
L 287 324
L 287 323
L 288 323
L 289 323
L 290 321
L 291 323
L 292 324
L 293 325
L 293 326
L 294 328
L 295 326
L 296 327
L 297 328
L 298 330
L 299 329
L 299 329
L 300 329
L 301 328
L 302 328
L 303 328
L 304 326
L 305 328
L 305 328
L 306 328
L 307 332
L 308 333
L 309 335
L 310 334
L 311 334
L 311 333
L 312 335
L 313 335
L 314 337
L 315 338
L 316 339
L 317 340
L 317 341
L 318 340
L 319 341
L 320 341
L 321 341
L 322 342
L 322 342
L 323 343
L 324 343
L 325 343
L 326 343
L 327 343
L 328 342
L 328 342
L 329 342
L 330 343
L 331 343
L 332 343
L 333 343
L 334 343
L 334 343
L 335 342
L 336 342
L 337 343
L 338 343
L 339 343
L 340 343
L 340 344
L 341 344
L 342 344
L 343 344
L 344 345
L 345 346
L 346 346
L 346 345
L 347 345
L 348 345
L 349 345
L 350 345
L 351 345
L 352 345
L 352 344
L 353 345
L 354 345
L 355 344
L 356 344
L 357 345
L 358 345
L 358 345
L 359 345
L 360 345
L 361 345
L 362 345
L 363 345
L 364 344
L 364 344
L 365 344
L 366 343
L 367 342
L 368 341
L 369 339
L 370 337
L 370 336
L 371 335
L 372 333
L 373 331
L 374 329
L 375 330
L 376 330
L 376 330
L 377 328
L 378 327
L 379 328
L 380 328
L 381 325
L 382 325
L 382 321
L 383 322
L 384 325
L 385 325
L 386 328
L 387 329
L 388 329
L 388 333
L 389 334
L 390 334
L 391 334
L 392 333
L 393 333
L 393 335
L 394 335
L 395 336
L 396 336
L 397 338
L 398 337
L 399 336
L 399 337
L 400 338
L 401 338
L 402 339
L 403 337
L 404 339
L 405 341
L 405 341
L 406 341
L 407 342
L 408 341
L 409 342
L 410 342
L 411 343
L 411 343
L 412 343
L 413 344
L 414 345
L 415 345
L 416 345
L 417 345
L 417 346
L 418 347
L 419 347
L 420 347
L 421 347
L 422 348
L 423 348
L 423 348
L 424 347
L 425 347
L 426 347
L 427 347
L 428 347
L 429 346
L 429 346
L 430 347
L 431 347
L 432 347
L 433 347
L 434 348
L 435 348
L 435 348
L 436 349
L 437 349
L 438 349
L 439 349
L 440 349
L 441 349
L 441 349
L 442 349
L 443 349
L 444 349
L 445 349
L 446 349
L 447 349
L 447 350
L 448 350
L 449 350
L 450 350
L 451 350
L 452 350
L 453 350
L 453 350
L 454 350
L 455 350
L 456 350
L 457 350
L 458 350
L 459 350
L 459 350
L 460 350
L 461 350
L 462 350
L 463 350
L 464 350
L 464 350
L 465 350
L 466 350
L 467 350
L 468 350
L 469 350
L 470 350
L 470 350
L 471 350
L 472 350
L 473 350
L 474 349
L 475 350
L 476 350
L 476 350
L 477 349
L 478 349
L 479 349
L 480 349
L 481 349
L 482 348
L 482 348
L 483 349
L 484 349
L 485 349
L 486 349
L 487 348
L 488 348
L 488 348
L 489 348
L 490 348
L 491 348
L 492 347
L 493 347
L 494 347
L 494 347
L 495 346
L 496 347
L 497 347
L 498 347
L 499 347
L 500 347
L 500 346
L 501 346
L 502 346
L 503 346
L 504 346
L 505 346
L 506 345
L 506 346
L 507 346
L 508 347
L 509 347
L 510 347
L 511 346
L 512 346
L 512 346
L 513 345
L 514 345
L 515 344
L 516 344
L 517 342
L 518 342
L 518 342
L 519 339
L 520 339
L 521 338
L 522 337
L 523 338
L 524 337
L 524 336
L 525 337
L 526 337
L 527 338
L 528 338
L 529 338
L 530 338
L 530 339
L 531 338
L 532 339
L 533 338
L 534 340
L 535 338
L 535 338
L 536 339
L 537 339
L 538 340
L 539 339
L 540 340
L 541 339
L 541 337
L 542 335
L 543 334
L 544 333
L 545 333
L 546 330
L 547 328
L 547 328
L 548 328
L 549 327
L 550 325
L 551 322
L 552 322
L 553 322
L 553 320
L 554 319
L 555 316
L 556 316
L 557 316
L 558 315
L 559 314
L 559 309
L 560 303
L 561 300
L 562 294
L 563 291
L 564 285
L 565 285
L 565 285
L 566 283
L 567 276
L 568 276
L 569 272
L 570 272
L 571 266
L 571 253
L 572 256
L 573 255
L 574 249
L 575 245
L 576 241
L 577 238
L 577 243
L 578 238
L 579 241
L 580 237
L 581 235
L 582 235
L 583 242
L 583 243
L 584 251
L 585 250
L 586 261
L 587 272
L 588 282
L 589 281
L 589 291
L 590 289
L 591 299
L 592 302
L 593 306
L 594 308
L 595 313
L 595 318
L 596 321
L 597 323
L 598 325
L 599 326
L 600 326
L 601 327
L 601 327
L 602 328
L 603 328
L 604 329
L 605 330
L 606 331
L 606 332
L 607 332
L 608 332
L 609 331
L 610 332
L 611 333
L 612 334
L 612 334
L 613 335
L 614 335
L 615 336
L 616 336
L 617 336
L 618 336
L 618 335
L 619 333
L 620 330
L 621 329
L 622 325
L 623 320
L 624 315
L 624 312
L 625 309
L 626 304
L 627 299
L 628 296
L 629 290
L 630 281
L 630 276
L 631 267
L 632 262
L 633 248
L 634 244
L 635 236
L 636 234
L 636 214
L 637 195
L 638 180
L 639 169
L 640 161
L 641 149
L 642 148
L 642 140
L 643 142
L 644 141
L 645 147
L 646 140
L 647 143
L 648 136
L 648 145
L 649 155
L 650 147
L 651 151
L 652 150
L 653 157
L 654 160
L 654 148
L 655 138
L 656 152
L 657 148
L 658 155
L 659 155
L 660 150
L 660 147
L 661 151
L 662 139
L 663 141
L 664 137
L 665 128
L 666 131
L 666 132
L 667 128
L 668 132
L 669 128
L 670 119
L 671 116
L 672 109
L 672 99
L 673 85
L 674 59
L 675 46
L 676 44
L 677 46
L 677 29
L 678 18
L 679 22
L 680 34
L 681 41
L 682 35
L 683 30
L 683 48
L 684 66
L 685 72
L 686 85
L 687 91
L 688 109
L 689 125
L 689 133
L 690 154
L 691 171
L 692 184
L 693 199
L 694 211
L 695 219
L 695 229
L 696 239
L 697 246
L 698 254
L 699 257
L 700 261
L 701 265
L 701 271
L 702 280
L 703 283
L 704 286
L 705 291
L 706 290
L 707 291
L 707 294
L 708 297
L 709 299
L 710 303
L 711 305
L 712 310
L 713 311
L 713 312
L 714 309
L 715 311
L 716 312
L 717 313
L 718 313
L 719 313
L 719 315
L 720 318
L 721 320
L 722 321
L 723 322
L 724 324
L 725 325
L 725 325
L 726 326
L 727 327
L 728 328
L 729 330
L 730 331
L 731 333
L 731 335
L 732 335
L 733 337
L 734 339
L 735 339
L 736 339
L 737 340
L 737 340
L 738 342
L 739 342
L 740 344
L 741 344
L 742 345
L 743 345
L 743 346
L 744 345
L 745 345
L 746 344
L 747 344
L 748 343
L 748 343
L 749 342
L 750 342
L 751 340
L 752 338
L 753 338
L 754 337
L 754 336
L 755 334
L 756 333
L 757 332
L 758 332
L 759 329
L 760 328
L 760 327
L 761 323
L 762 321
L 763 319
L 764 317
L 765 314
L 766 313
L 766 311
L 767 311
L 768 307
L 769 306
L 770 303
L 771 302
L 772 301
L 772 300
L 773 299
L 774 298
L 775 298
L 776 298
L 777 299
L 778 299
L 778 299
L 779 299
L 780 302
L 781 301
L 782 301
L 783 301
L 784 300
L 784 301
L 785 299
L 786 296
L 787 296
L 788 294
L 789 295
L 790 294
L 790 293
L 791 295
L 792 297
L 793 300
L 794 303
L 795 306
L 796 309
L 796 312
L 797 315
L 798 317
L 799 318
L 800 319
L 801 321
L 802 320
L 802 321
L 803 319
L 804 320
L 805 321
L 806 320
L 807 317
L 808 317
L 808 318
L 809 319
L 810 320
L 811 318
L 812 319
L 813 320
L 814 321
L 814 321
L 815 321
L 816 320
L 817 322
L 818 322
L 819 322
L 819 321
L 820 319
L 821 319
L 822 318
L 823 317
L 824 317
L 825 318
L 825 319
L 826 320
L 827 321
L 828 322
L 829 324
L 830 324
L 831 324
L 831 325
L 832 324
L 833 321
L 834 319
L 835 316
L 836 313
L 837 309
L 837 307
L 838 305
L 839 304
L 840 301
L 841 297
L 842 295
L 843 293
L 843 291
L 844 289
L 845 283
L 846 280
L 847 279
L 848 277
L 849 276
L 849 275
L 850 274
L 851 279
L 852 277
L 853 280
L 854 282
L 855 281
L 855 283
L 856 283
L 857 282
L 858 283
L 859 282
L 860 281
L 861 283
L 861 285
L 862 286
L 863 286
L 864 288
L 865 291
L 866 295
L 867 297
L 867 298
L 868 302
L 869 306
L 870 312
L 871 315
L 872 318
L 873 320
L 873 320
L 874 320
L 875 322
L 876 325
L 877 325
L 878 324
L 879 325
L 879 326
L 880 327
L 881 327
L 882 326
L 883 326
L 884 328
L 885 329
L 885 330
L 886 330
L 887 331
L 888 331
L 889 331
L 890 331
L 890 331
L 891 331
L 892 331
L 893 330
L 894 331
L 895 331
L 896 330
L 896 330
L 897 329
L 898 329
L 899 329
L 900 326
L 901 326
L 902 326
L 902 326
L 903 326
L 904 326
L 905 324
L 906 325
L 907 326
L 908 326
L 908 326
L 909 326
L 910 326
L 911 328
L 912 326
L 913 327
L 914 326
L 914 326
L 915 327
L 916 327
L 917 327
L 918 330
L 919 330
L 920 332
L 920 330
L 921 330
L 922 331
L 923 333
L 924 332
L 925 332
L 926 332
L 926 333
L 927 333
L 928 333
L 929 332
L 930 334
L 931 335
L 932 336
L 932 338
L 933 339
L 934 339
L 935 339
L 936 339
L 937 339
L 938 339
L 938 338
L 939 338
L 940 338
L 941 339
L 942 339
L 943 339
L 944 339
L 944 340
L 945 340
L 946 340
L 947 341
L 948 341
L 949 340
L 950 339
L 950 339
L 951 339
L 952 339
L 953 337
L 954 335
L 955 335
L 956 335
L 956 335
L 957 334
L 958 334
L 959 335
L 960 335
L 961 335
L 961 334" style="stroke-width:1;stroke:rgba(0,116,217,1.0);fill:none"/><path  d="M 38 351
L 39 351
L 40 351
L 41 351
L 42 351
L 43 351
L 44 351
L 44 351
L 45 351
L 46 351
L 47 351
L 48 351
L 49 351
L 50 350
L 50 351
L 51 350
L 52 350
L 53 350
L 54 350
L 55 350
L 56 350
L 56 350
L 57 351
L 58 351
L 59 350
L 60 351
L 61 350
L 62 350
L 62 350
L 63 349
L 64 349
L 65 350
L 66 350
L 67 350
L 68 350
L 68 350
L 69 350
L 70 350
L 71 350
L 72 350
L 73 350
L 74 350
L 74 350
L 75 350
L 76 350
L 77 350
L 78 350
L 79 351
L 80 350
L 80 350
L 81 350
L 82 350
L 83 350
L 84 351
L 85 350
L 86 351
L 86 350
L 87 350
L 88 350
L 89 351
L 90 351
L 91 351
L 92 350
L 92 350
L 93 351
L 94 351
L 95 351
L 96 351
L 97 351
L 98 351
L 98 351
L 99 350
L 100 351
L 101 351
L 102 351
L 103 351
L 104 351
L 104 350
L 105 351
L 106 351
L 107 351
L 108 351
L 109 351
L 109 351
L 110 351
L 111 350
L 112 351
L 113 351
L 114 351
L 115 351
L 115 351
L 116 350
L 117 351
L 118 351
L 119 351
L 120 351
L 121 351
L 121 351
L 122 351
L 123 351
L 124 350
L 125 351
L 126 351
L 127 351
L 127 351
L 128 351
L 129 351
L 130 351
L 131 351
L 132 351
L 133 351
L 133 351
L 134 351
L 135 351
L 136 351
L 137 351
L 138 351
L 139 351
L 139 351
L 140 351
L 141 351
L 142 351
L 143 351
L 144 351
L 145 351
L 145 351
L 146 351
L 147 351
L 148 350
L 149 351
L 150 351
L 151 350
L 151 350
L 152 350
L 153 351
L 154 351
L 155 350
L 156 351
L 157 351
L 157 351
L 158 351
L 159 351
L 160 351
L 161 350
L 162 351
L 163 351
L 163 351
L 164 350
L 165 350
L 166 351
L 167 351
L 168 350
L 169 350
L 169 350
L 170 351
L 171 350
L 172 350
L 173 351
L 174 351
L 175 351
L 175 351
L 176 351
L 177 351
L 178 351
L 179 351
L 180 350
L 180 351
L 181 350
L 182 351
L 183 350
L 184 350
L 185 350
L 186 350
L 186 350
L 187 350
L 188 350
L 189 351
L 190 350
L 191 351
L 192 351
L 192 351
L 193 350
L 194 350
L 195 351
L 196 350
L 197 351
L 198 350
L 198 350
L 199 351
L 200 351
L 201 351
L 202 351
L 203 350
L 204 351
L 204 350
L 205 350
L 206 350
L 207 350
L 208 350
L 209 350
L 210 350
L 210 350
L 211 350
L 212 350
L 213 350
L 214 350
L 215 351
L 216 351
L 216 351
L 217 350
L 218 350
L 219 350
L 220 350
L 221 350
L 222 351
L 222 350
L 223 350
L 224 350
L 225 350
L 226 349
L 227 350
L 228 350
L 228 350
L 229 350
L 230 350
L 231 350
L 232 350
L 233 350
L 234 350
L 234 350
L 235 350
L 236 350
L 237 349
L 238 349
L 239 348
L 240 350
L 240 349
L 241 349
L 242 349
L 243 347
L 244 348
L 245 347
L 246 348
L 246 348
L 247 347
L 248 348
L 249 344
L 250 346
L 251 346
L 251 344
L 252 343
L 253 346
L 254 344
L 255 343
L 256 342
L 257 345
L 257 342
L 258 342
L 259 341
L 260 343
L 261 342
L 262 342
L 263 342
L 263 341
L 264 342
L 265 341
L 266 345
L 267 340
L 268 339
L 269 340
L 269 348
L 270 342
L 271 345
L 272 341
L 273 343
L 274 344
L 275 346
L 275 345
L 276 345
L 277 346
L 278 346
L 279 345
L 280 345
L 281 344
L 281 347
L 282 346
L 283 347
L 284 347
L 285 345
L 286 346
L 287 345
L 287 346
L 288 345
L 289 347
L 290 345
L 291 346
L 292 347
L 293 347
L 293 347
L 294 347
L 295 345
L 296 347
L 297 347
L 298 350
L 299 346
L 299 347
L 300 347
L 301 344
L 302 346
L 303 347
L 304 348
L 305 348
L 305 348
L 306 347
L 307 348
L 308 347
L 309 349
L 310 347
L 311 348
L 311 348
L 312 349
L 313 348
L 314 349
L 315 349
L 316 349
L 317 349
L 317 349
L 318 349
L 319 349
L 320 350
L 321 349
L 322 350
L 322 349
L 323 350
L 324 348
L 325 349
L 326 349
L 327 349
L 328 349
L 328 350
L 329 350
L 330 349
L 331 349
L 332 349
L 333 349
L 334 349
L 334 350
L 335 350
L 336 349
L 337 349
L 338 349
L 339 349
L 340 350
L 340 350
L 341 350
L 342 349
L 343 350
L 344 350
L 345 350
L 346 350
L 346 349
L 347 349
L 348 350
L 349 350
L 350 349
L 351 350
L 352 350
L 352 349
L 353 350
L 354 350
L 355 349
L 356 349
L 357 350
L 358 349
L 358 349
L 359 350
L 360 350
L 361 350
L 362 350
L 363 349
L 364 349
L 364 349
L 365 350
L 366 348
L 367 349
L 368 348
L 369 347
L 370 346
L 370 348
L 371 348
L 372 347
L 373 347
L 374 345
L 375 349
L 376 346
L 376 348
L 377 345
L 378 345
L 379 348
L 380 346
L 381 346
L 382 346
L 382 344
L 383 346
L 384 349
L 385 348
L 386 349
L 387 347
L 388 346
L 388 348
L 389 347
L 390 349
L 391 348
L 392 348
L 393 348
L 393 348
L 394 349
L 395 349
L 396 348
L 397 350
L 398 347
L 399 346
L 399 349
L 400 349
L 401 349
L 402 349
L 403 348
L 404 349
L 405 349
L 405 349
L 406 350
L 407 350
L 408 348
L 409 349
L 410 350
L 411 349
L 411 349
L 412 350
L 413 350
L 414 349
L 415 350
L 416 349
L 417 350
L 417 350
L 418 350
L 419 351
L 420 350
L 421 350
L 422 350
L 423 350
L 423 350
L 424 350
L 425 350
L 426 350
L 427 350
L 428 350
L 429 350
L 429 350
L 430 350
L 431 350
L 432 350
L 433 350
L 434 350
L 435 350
L 435 350
L 436 350
L 437 350
L 438 350
L 439 350
L 440 350
L 441 350
L 441 350
L 442 350
L 443 350
L 444 351
L 445 350
L 446 350
L 447 350
L 447 350
L 448 350
L 449 350
L 450 351
L 451 351
L 452 350
L 453 351
L 453 350
L 454 350
L 455 350
L 456 350
L 457 350
L 458 350
L 459 351
L 459 350
L 460 351
L 461 351
L 462 350
L 463 350
L 464 350
L 464 350
L 465 350
L 466 351
L 467 351
L 468 351
L 469 350
L 470 350
L 470 350
L 471 350
L 472 350
L 473 350
L 474 350
L 475 350
L 476 350
L 476 350
L 477 350
L 478 350
L 479 350
L 480 350
L 481 350
L 482 350
L 482 350
L 483 350
L 484 350
L 485 350
L 486 350
L 487 350
L 488 350
L 488 350
L 489 350
L 490 350
L 491 350
L 492 350
L 493 350
L 494 350
L 494 350
L 495 350
L 496 350
L 497 350
L 498 350
L 499 350
L 500 350
L 500 349
L 501 350
L 502 349
L 503 350
L 504 350
L 505 350
L 506 350
L 506 350
L 507 350
L 508 350
L 509 350
L 510 350
L 511 350
L 512 349
L 512 349
L 513 350
L 514 349
L 515 350
L 516 349
L 517 348
L 518 349
L 518 349
L 519 347
L 520 348
L 521 349
L 522 348
L 523 350
L 524 347
L 524 347
L 525 349
L 526 348
L 527 350
L 528 348
L 529 350
L 530 348
L 530 348
L 531 348
L 532 349
L 533 349
L 534 350
L 535 348
L 535 348
L 536 349
L 537 349
L 538 349
L 539 348
L 540 350
L 541 347
L 541 346
L 542 347
L 543 348
L 544 348
L 545 348
L 546 346
L 547 345
L 547 346
L 548 347
L 549 347
L 550 345
L 551 345
L 552 345
L 553 345
L 553 344
L 554 346
L 555 344
L 556 345
L 557 345
L 558 344
L 559 343
L 559 339
L 560 338
L 561 340
L 562 338
L 563 342
L 564 337
L 565 342
L 565 338
L 566 337
L 567 332
L 568 338
L 569 337
L 570 337
L 571 335
L 571 323
L 572 340
L 573 331
L 574 331
L 575 333
L 576 332
L 577 332
L 577 328
L 578 335
L 579 334
L 580 326
L 581 330
L 582 332
L 583 341
L 583 329
L 584 345
L 585 333
L 586 340
L 587 342
L 588 344
L 589 339
L 589 340
L 590 343
L 591 344
L 592 344
L 593 346
L 594 347
L 595 345
L 595 346
L 596 347
L 597 347
L 598 346
L 599 346
L 600 347
L 601 346
L 601 347
L 602 348
L 603 348
L 604 347
L 605 348
L 606 348
L 606 347
L 607 347
L 608 348
L 609 347
L 610 348
L 611 349
L 612 349
L 612 347
L 613 348
L 614 347
L 615 348
L 616 349
L 617 349
L 618 348
L 618 346
L 619 347
L 620 343
L 621 347
L 622 344
L 623 344
L 624 342
L 624 342
L 625 342
L 626 338
L 627 340
L 628 340
L 629 337
L 630 332
L 630 336
L 631 332
L 632 333
L 633 324
L 634 335
L 635 329
L 636 330
L 636 312
L 637 310
L 638 315
L 639 311
L 640 325
L 641 314
L 642 329
L 642 303
L 643 312
L 644 313
L 645 319
L 646 317
L 647 317
L 648 320
L 648 314
L 649 324
L 650 303
L 651 324
L 652 315
L 653 325
L 654 324
L 654 299
L 655 313
L 656 319
L 657 319
L 658 325
L 659 324
L 660 319
L 660 296
L 661 317
L 662 306
L 663 320
L 664 320
L 665 315
L 666 322
L 666 297
L 667 312
L 668 312
L 669 315
L 670 309
L 671 311
L 672 314
L 672 285
L 673 296
L 674 281
L 675 300
L 676 307
L 677 314
L 677 293
L 678 272
L 679 300
L 680 296
L 681 308
L 682 300
L 683 308
L 683 314
L 684 292
L 685 308
L 686 311
L 687 315
L 688 321
L 689 327
L 689 323
L 690 317
L 691 328
L 692 326
L 693 332
L 694 335
L 695 336
L 695 334
L 696 330
L 697 336
L 698 335
L 699 336
L 700 340
L 701 342
L 701 341
L 702 341
L 703 339
L 704 339
L 705 341
L 706 339
L 707 344
L 707 344
L 708 345
L 709 342
L 710 343
L 711 344
L 712 345
L 713 345
L 713 344
L 714 342
L 715 344
L 716 344
L 717 345
L 718 345
L 719 346
L 719 347
L 720 345
L 721 345
L 722 346
L 723 346
L 724 347
L 725 347
L 725 346
L 726 347
L 727 346
L 728 347
L 729 349
L 730 348
L 731 350
L 731 348
L 732 347
L 733 349
L 734 348
L 735 349
L 736 349
L 737 350
L 737 349
L 738 350
L 739 349
L 740 350
L 741 349
L 742 350
L 743 350
L 743 350
L 744 349
L 745 349
L 746 349
L 747 349
L 748 349
L 748 349
L 749 349
L 750 348
L 751 347
L 752 347
L 753 349
L 754 348
L 754 348
L 755 347
L 756 347
L 757 346
L 758 346
L 759 346
L 760 347
L 760 347
L 761 343
L 762 344
L 763 343
L 764 344
L 765 343
L 766 345
L 766 344
L 767 343
L 768 339
L 769 342
L 770 341
L 771 342
L 772 343
L 772 343
L 773 343
L 774 339
L 775 342
L 776 341
L 777 342
L 778 344
L 778 343
L 779 342
L 780 342
L 781 340
L 782 342
L 783 341
L 784 344
L 784 343
L 785 341
L 786 338
L 787 340
L 788 340
L 789 342
L 790 343
L 790 342
L 791 344
L 792 341
L 793 343
L 794 344
L 795 346
L 796 347
L 796 345
L 797 346
L 798 344
L 799 344
L 800 345
L 801 347
L 802 346
L 802 347
L 803 344
L 804 345
L 805 344
L 806 345
L 807 344
L 808 346
L 808 347
L 809 346
L 810 347
L 811 342
L 812 346
L 813 344
L 814 347
L 814 348
L 815 346
L 816 345
L 817 344
L 818 345
L 819 345
L 819 345
L 820 346
L 821 346
L 822 343
L 823 344
L 824 345
L 825 345
L 825 347
L 826 348
L 827 347
L 828 344
L 829 347
L 830 345
L 831 345
L 831 347
L 832 347
L 833 344
L 834 342
L 835 343
L 836 342
L 837 341
L 837 343
L 838 345
L 839 342
L 840 339
L 841 338
L 842 339
L 843 339
L 843 341
L 844 342
L 845 335
L 846 336
L 847 337
L 848 337
L 849 339
L 849 340
L 850 342
L 851 340
L 852 333
L 853 340
L 854 339
L 855 338
L 855 342
L 856 342
L 857 339
L 858 335
L 859 339
L 860 338
L 861 340
L 861 345
L 862 342
L 863 339
L 864 337
L 865 342
L 866 343
L 867 342
L 867 346
L 868 347
L 869 344
L 870 343
L 871 346
L 872 347
L 873 345
L 873 346
L 874 347
L 875 346
L 876 347
L 877 346
L 878 346
L 879 346
L 879 346
L 880 349
L 881 346
L 882 345
L 883 346
L 884 348
L 885 347
L 885 348
L 886 349
L 887 347
L 888 346
L 889 346
L 890 348
L 890 347
L 891 348
L 892 349
L 893 346
L 894 347
L 895 346
L 896 347
L 896 347
L 897 348
L 898 348
L 899 346
L 900 344
L 901 345
L 902 347
L 902 347
L 903 348
L 904 348
L 905 344
L 906 346
L 907 346
L 908 347
L 908 347
L 909 347
L 910 348
L 911 346
L 912 344
L 913 346
L 914 346
L 914 348
L 915 348
L 916 348
L 917 346
L 918 347
L 919 347
L 920 347
L 920 346
L 921 348
L 922 349
L 923 348
L 924 346
L 925 347
L 926 348
L 926 347
L 927 348
L 928 349
L 929 347
L 930 348
L 931 349
L 932 348
L 932 349
L 933 349
L 934 349
L 935 348
L 936 348
L 937 348
L 938 349
L 938 348
L 939 349
L 940 349
L 941 348
L 942 348
L 943 349
L 944 349
L 944 349
L 945 349
L 946 350
L 947 349
L 948 348
L 949 348
L 950 348
L 950 349
L 951 349
L 952 349
L 953 346
L 954 346
L 955 348
L 956 348
L 956 348
L 957 349
L 958 349
L 959 348
L 960 346
L 961 348
L 961 347" style="stroke-width:1;stroke:rgba(0,217,101,1.0);fill:none"/><path  d="M 38 351
L 39 351
L 40 351
L 41 351
L 42 351
L 43 351
L 44 351
L 44 351
L 45 351
L 46 351
L 47 351
L 48 351
L 49 351
L 50 351
L 50 351
L 51 351
L 52 351
L 53 351
L 54 351
L 55 351
L 56 351
L 56 351
L 57 351
L 58 351
L 59 351
L 60 351
L 61 351
L 62 351
L 62 351
L 63 351
L 64 350
L 65 350
L 66 351
L 67 351
L 68 351
L 68 351
L 69 351
L 70 350
L 71 351
L 72 350
L 73 351
L 74 350
L 74 350
L 75 351
L 76 351
L 77 350
L 78 351
L 79 350
L 80 351
L 80 350
L 81 350
L 82 351
L 83 351
L 84 350
L 85 351
L 86 351
L 86 351
L 87 351
L 88 351
L 89 351
L 90 351
L 91 351
L 92 351
L 92 351
L 93 351
L 94 351
L 95 351
L 96 351
L 97 351
L 98 350
L 98 351
L 99 351
L 100 351
L 101 351
L 102 351
L 103 351
L 104 351
L 104 351
L 105 351
L 106 351
L 107 351
L 108 351
L 109 351
L 109 351
L 110 350
L 111 351
L 112 351
L 113 351
L 114 351
L 115 351
L 115 351
L 116 351
L 117 351
L 118 351
L 119 351
L 120 351
L 121 351
L 121 351
L 122 351
L 123 351
L 124 351
L 125 351
L 126 351
L 127 351
L 127 351
L 128 351
L 129 351
L 130 351
L 131 351
L 132 351
L 133 351
L 133 351
L 134 351
L 135 351
L 136 351
L 137 351
L 138 351
L 139 351
L 139 351
L 140 351
L 141 351
L 142 351
L 143 351
L 144 351
L 145 351
L 145 351
L 146 351
L 147 351
L 148 351
L 149 351
L 150 351
L 151 351
L 151 351
L 152 351
L 153 351
L 154 351
L 155 351
L 156 351
L 157 351
L 157 351
L 158 351
L 159 351
L 160 351
L 161 351
L 162 351
L 163 351
L 163 351
L 164 351
L 165 351
L 166 351
L 167 351
L 168 351
L 169 351
L 169 351
L 170 351
L 171 351
L 172 351
L 173 351
L 174 351
L 175 351
L 175 351
L 176 351
L 177 351
L 178 351
L 179 351
L 180 351
L 180 351
L 181 351
L 182 351
L 183 351
L 184 351
L 185 351
L 186 351
L 186 351
L 187 351
L 188 351
L 189 351
L 190 351
L 191 351
L 192 351
L 192 351
L 193 351
L 194 351
L 195 351
L 196 351
L 197 351
L 198 351
L 198 351
L 199 351
L 200 351
L 201 351
L 202 351
L 203 351
L 204 350
L 204 351
L 205 351
L 206 351
L 207 351
L 208 351
L 209 351
L 210 351
L 210 351
L 211 351
L 212 351
L 213 351
L 214 351
L 215 351
L 216 351
L 216 351
L 217 351
L 218 351
L 219 351
L 220 351
L 221 351
L 222 351
L 222 351
L 223 351
L 224 351
L 225 351
L 226 351
L 227 351
L 228 351
L 228 351
L 229 351
L 230 351
L 231 351
L 232 351
L 233 351
L 234 351
L 234 351
L 235 351
L 236 351
L 237 351
L 238 351
L 239 351
L 240 351
L 240 351
L 241 351
L 242 351
L 243 350
L 244 351
L 245 350
L 246 351
L 246 351
L 247 350
L 248 350
L 249 350
L 250 350
L 251 350
L 251 351
L 252 350
L 253 350
L 254 350
L 255 350
L 256 350
L 257 350
L 257 350
L 258 350
L 259 350
L 260 351
L 261 350
L 262 350
L 263 351
L 263 350
L 264 350
L 265 350
L 266 350
L 267 351
L 268 350
L 269 350
L 269 350
L 270 350
L 271 351
L 272 351
L 273 351
L 274 350
L 275 350
L 275 350
L 276 350
L 277 350
L 278 350
L 279 350
L 280 350
L 281 350
L 281 351
L 282 350
L 283 351
L 284 350
L 285 351
L 286 350
L 287 350
L 287 350
L 288 350
L 289 351
L 290 350
L 291 350
L 292 351
L 293 350
L 293 351
L 294 350
L 295 351
L 296 350
L 297 350
L 298 350
L 299 350
L 299 351
L 300 350
L 301 350
L 302 350
L 303 350
L 304 350
L 305 351
L 305 350
L 306 350
L 307 350
L 308 350
L 309 350
L 310 350
L 311 351
L 311 351
L 312 350
L 313 350
L 314 350
L 315 351
L 316 351
L 317 350
L 317 351
L 318 350
L 319 350
L 320 351
L 321 351
L 322 351
L 322 351
L 323 351
L 324 350
L 325 351
L 326 351
L 327 350
L 328 350
L 328 350
L 329 350
L 330 350
L 331 350
L 332 351
L 333 351
L 334 351
L 334 351
L 335 350
L 336 350
L 337 351
L 338 351
L 339 351
L 340 351
L 340 351
L 341 351
L 342 351
L 343 350
L 344 351
L 345 351
L 346 351
L 346 351
L 347 351
L 348 350
L 349 350
L 350 350
L 351 351
L 352 351
L 352 351
L 353 351
L 354 351
L 355 351
L 356 351
L 357 351
L 358 350
L 358 351
L 359 351
L 360 351
L 361 351
L 362 350
L 363 351
L 364 351
L 364 351
L 365 350
L 366 351
L 367 351
L 368 351
L 369 351
L 370 350
L 370 350
L 371 350
L 372 351
L 373 351
L 374 351
L 375 351
L 376 351
L 376 350
L 377 351
L 378 351
L 379 351
L 380 350
L 381 351
L 382 351
L 382 351
L 383 351
L 384 350
L 385 351
L 386 350
L 387 350
L 388 351
L 388 350
L 389 351
L 390 351
L 391 351
L 392 351
L 393 350
L 393 351
L 394 351
L 395 351
L 396 351
L 397 351
L 398 351
L 399 351
L 399 351
L 400 351
L 401 351
L 402 350
L 403 351
L 404 351
L 405 351
L 405 351
L 406 350
L 407 351
L 408 351
L 409 350
L 410 351
L 411 351
L 411 351
L 412 351
L 413 350
L 414 351
L 415 350
L 416 351
L 417 351
L 417 351
L 418 351
L 419 350
L 420 351
L 421 351
L 422 351
L 423 351
L 423 351
L 424 351
L 425 351
L 426 350
L 427 351
L 428 350
L 429 350
L 429 351
L 430 351
L 431 351
L 432 350
L 433 351
L 434 350
L 435 351
L 435 351
L 436 351
L 437 351
L 438 351
L 439 351
L 440 351
L 441 351
L 441 350
L 442 350
L 443 351
L 444 351
L 445 351
L 446 351
L 447 351
L 447 351
L 448 351
L 449 351
L 450 351
L 451 351
L 452 351
L 453 351
L 453 351
L 454 351
L 455 351
L 456 351
L 457 351
L 458 351
L 459 351
L 459 351
L 460 351
L 461 351
L 462 351
L 463 351
L 464 351
L 464 351
L 465 351
L 466 351
L 467 351
L 468 351
L 469 351
L 470 351
L 470 351
L 471 351
L 472 351
L 473 351
L 474 351
L 475 351
L 476 351
L 476 351
L 477 351
L 478 351
L 479 351
L 480 351
L 481 351
L 482 351
L 482 351
L 483 351
L 484 351
L 485 351
L 486 351
L 487 351
L 488 351
L 488 351
L 489 351
L 490 351
L 491 351
L 492 351
L 493 351
L 494 351
L 494 351
L 495 351
L 496 350
L 497 350
L 498 351
L 499 351
L 500 351
L 500 351
L 501 351
L 502 351
L 503 351
L 504 351
L 505 351
L 506 351
L 506 351
L 507 351
L 508 351
L 509 351
L 510 351
L 511 351
L 512 351
L 512 350
L 513 351
L 514 351
L 515 351
L 516 351
L 517 351
L 518 351
L 518 351
L 519 351
L 520 351
L 521 351
L 522 350
L 523 350
L 524 350
L 524 351
L 525 351
L 526 351
L 527 351
L 528 351
L 529 351
L 530 351
L 530 351
L 531 351
L 532 350
L 533 351
L 534 351
L 535 350
L 535 351
L 536 351
L 537 351
L 538 351
L 539 350
L 540 351
L 541 351
L 541 351
L 542 351
L 543 350
L 544 351
L 545 351
L 546 351
L 547 351
L 547 350
L 548 351
L 549 351
L 550 351
L 551 351
L 552 351
L 553 351
L 553 351
L 554 350
L 555 350
L 556 351
L 557 350
L 558 351
L 559 350
L 559 350
L 560 351
L 561 351
L 562 351
L 563 350
L 564 351
L 565 351
L 565 350
L 566 351
L 567 350
L 568 350
L 569 351
L 570 350
L 571 351
L 571 351
L 572 350
L 573 350
L 574 351
L 575 351
L 576 351
L 577 350
L 577 350
L 578 350
L 579 350
L 580 351
L 581 350
L 582 350
L 583 350
L 583 350
L 584 350
L 585 350
L 586 350
L 587 350
L 588 350
L 589 351
L 589 350
L 590 350
L 591 350
L 592 350
L 593 351
L 594 350
L 595 350
L 595 351
L 596 350
L 597 350
L 598 351
L 599 350
L 600 351
L 601 351
L 601 351
L 602 351
L 603 351
L 604 351
L 605 351
L 606 351
L 606 351
L 607 350
L 608 351
L 609 351
L 610 351
L 611 351
L 612 351
L 612 351
L 613 351
L 614 351
L 615 351
L 616 351
L 617 351
L 618 350
L 618 351
L 619 351
L 620 351
L 621 351
L 622 351
L 623 350
L 624 351
L 624 351
L 625 351
L 626 351
L 627 351
L 628 351
L 629 351
L 630 351
L 630 351
L 631 351
L 632 350
L 633 351
L 634 351
L 635 351
L 636 351
L 636 351
L 637 351
L 638 351
L 639 351
L 640 351
L 641 351
L 642 351
L 642 351
L 643 351
L 644 351
L 645 351
L 646 351
L 647 351
L 648 351
L 648 351
L 649 351
L 650 351
L 651 351
L 652 350
L 653 351
L 654 351
L 654 351
L 655 350
L 656 351
L 657 351
L 658 351
L 659 350
L 660 351
L 660 350
L 661 351
L 662 350
L 663 350
L 664 351
L 665 351
L 666 351
L 666 351
L 667 351
L 668 350
L 669 351
L 670 350
L 671 350
L 672 350
L 672 350
L 673 351
L 674 350
L 675 351
L 676 351
L 677 350
L 677 350
L 678 350
L 679 351
L 680 351
L 681 351
L 682 351
L 683 351
L 683 351
L 684 350
L 685 350
L 686 350
L 687 350
L 688 351
L 689 350
L 689 351
L 690 350
L 691 350
L 692 351
L 693 351
L 694 351
L 695 351
L 695 351
L 696 350
L 697 350
L 698 350
L 699 351
L 700 351
L 701 351
L 701 351
L 702 351
L 703 351
L 704 351
L 705 351
L 706 350
L 707 350
L 707 351
L 708 351
L 709 351
L 710 351
L 711 351
L 712 351
L 713 351
L 713 351
L 714 351
L 715 350
L 716 351
L 717 351
L 718 351
L 719 351
L 719 351
L 720 351
L 721 351
L 722 351
L 723 351
L 724 351
L 725 351
L 725 351
L 726 351
L 727 351
L 728 351
L 729 351
L 730 351
L 731 351
L 731 351
L 732 351
L 733 351
L 734 351
L 735 351
L 736 351
L 737 351
L 737 351
L 738 351
L 739 351
L 740 351
L 741 351
L 742 351
L 743 351
L 743 351
L 744 351
L 745 351
L 746 351
L 747 350
L 748 351
L 748 351
L 749 351
L 750 351
L 751 351
L 752 351
L 753 351
L 754 351
L 754 351
L 755 351
L 756 351
L 757 351
L 758 351
L 759 351
L 760 351
L 760 351
L 761 351
L 762 351
L 763 351
L 764 351
L 765 351
L 766 351
L 766 351
L 767 350
L 768 351
L 769 350
L 770 351
L 771 351
L 772 351
L 772 351
L 773 351
L 774 351
L 775 351
L 776 351
L 777 351
L 778 351
L 778 351
L 779 351
L 780 351
L 781 351
L 782 351
L 783 350
L 784 351
L 784 351
L 785 351
L 786 351
L 787 351
L 788 351
L 789 351
L 790 351
L 790 350
L 791 351
L 792 351
L 793 351
L 794 351
L 795 351
L 796 351
L 796 351
L 797 351
L 798 350
L 799 351
L 800 351
L 801 351
L 802 351
L 802 351
L 803 351
L 804 351
L 805 351
L 806 351
L 807 351
L 808 351
L 808 351
L 809 351
L 810 351
L 811 351
L 812 351
L 813 351
L 814 351
L 814 351
L 815 351
L 816 351
L 817 351
L 818 351
L 819 351
L 819 351
L 820 351
L 821 350
L 822 351
L 823 351
L 824 351
L 825 351
L 825 351
L 826 351
L 827 351
L 828 351
L 829 351
L 830 351
L 831 351
L 831 351
L 832 351
L 833 350
L 834 351
L 835 351
L 836 351
L 837 351
L 837 351
L 838 351
L 839 351
L 840 351
L 841 351
L 842 351
L 843 351
L 843 351
L 844 351
L 845 351
L 846 351
L 847 351
L 848 351
L 849 351
L 849 351
L 850 351
L 851 351
L 852 351
L 853 351
L 854 350
L 855 351
L 855 351
L 856 351
L 857 351
L 858 351
L 859 351
L 860 351
L 861 351
L 861 351
L 862 351
L 863 351
L 864 351
L 865 351
L 866 351
L 867 351
L 867 351
L 868 351
L 869 351
L 870 351
L 871 351
L 872 351
L 873 351
L 873 351
L 874 351
L 875 351
L 876 351
L 877 351
L 878 351
L 879 351
L 879 351
L 880 351
L 881 351
L 882 351
L 883 351
L 884 351
L 885 351
L 885 351
L 886 351
L 887 351
L 888 351
L 889 351
L 890 351
L 890 351
L 891 351
L 892 351
L 893 351
L 894 351
L 895 351
L 896 351
L 896 351
L 897 351
L 898 351
L 899 351
L 900 351
L 901 351
L 902 351
L 902 351
L 903 351
L 904 351
L 905 351
L 906 351
L 907 351
L 908 351
L 908 351
L 909 351
L 910 351
L 911 351
L 912 351
L 913 351
L 914 351
L 914 351
L 915 351
L 916 351
L 917 351
L 918 351
L 919 351
L 920 351
L 920 351
L 921 351
L 922 351
L 923 351
L 924 351
L 925 351
L 926 351
L 926 351
L 927 351
L 928 351
L 929 351
L 930 351
L 931 351
L 932 351
L 932 351
L 933 351
L 934 351
L 935 351
L 936 351
L 937 351
L 938 351
L 938 351
L 939 351
L 940 351
L 941 351
L 942 351
L 943 351
L 944 351
L 944 351
L 945 351
L 946 351
L 947 351
L 948 351
L 949 351
L 950 351
L 950 351
L 951 351
L 952 351
L 953 351
L 954 351
L 955 351
L 956 351
L 956 351
L 957 351
L 958 351
L 959 351
L 960 351
L 961 351
L 961 351" style="stroke-width:1;stroke:rgba(217,0,116,1.0);fill:none"/><text x="397" y="33" style="stroke-width:0;stroke:none;fill:rgba(51,51,51,1.0);font-size:23.0px;font-family:'Roboto Medium',sans-serif">Amstetten 09.02.2023</text><path  d="M 38 11
L 251 11
L 251 91
L 38 91
L 38 11" style="stroke-width:1;stroke:rgba(51,51,51,1.0);fill:rgba(255,255,255,1.0)"/><text x="43" y="26" style="stroke-width:0;stroke:none;fill:rgba(51,51,51,1.0);font-size:10.2px;font-family:'Roboto Medium',sans-serif">Sieben Tage Durschnitt Inzidenz Fälle</text><path  d="M 221 21
L 241 21" style="stroke-width:1;stroke:rgba(0,116,217,1.0);fill:none"/><text x="43" y="56" style="stroke-width:0;stroke:none;fill:rgba(51,51,51,1.0);font-size:10.2px;font-family:'Roboto Medium',sans-serif">Anzahl Faelle</text><path  d="M 110 51
L 241 51" style="stroke-width:1;stroke:rgba(0,217,101,1.0);fill:none"/><text x="43" y="86" style="stroke-width:0;stroke:none;fill:rgba(51,51,51,1.0);font-size:10.2px;font-family:'Roboto Medium',sans-serif">Anzahl Tot</text><path  d="M 98 81
L 241 81" style="stroke-width:1;stroke:rgba(217,0,116,1.0);fill:none"/></svg>