<svg xmlns="http://www.w3.org/2000/svg" xmlns:xlink="http://www.w3.org/1999/xlink" width="1024" height="400">\n<path  d="M 0 0
L 1024 0
L 1024 400
L 0 400
L 0 0" style="stroke-width:0;stroke:rgba(255,255,255,1.0);fill:rgba(255,255,255,1.0)"/><path  d="M 38 11
L 969 11
L 969 351
L 38 351
L 38 11" style="stroke-width:0;stroke:rgba(255,255,255,1.0);fill:rgba(255,255,255,1.0)"/><path  d="M 38 351
L 969 351" style="stroke-width:1;stroke:rgba(51,51,51,1.0);fill:none"/><path  d="M 38 351
L 38 356" style="stroke-width:1;stroke:rgba(51,51,51,1.0);fill:none"/><text x="5" y="373" style="stroke-width:0;stroke:none;fill:rgba(51,51,51,1.0);font-size:12.8px;font-family:'Roboto Medium',sans-serif">2020-02-26</text><path  d="M 155 351
L 155 356" style="stroke-width:1;stroke:rgba(51,51,51,1.0);fill:none"/><text x="122" y="373" style="stroke-width:0;stroke:none;fill:rgba(51,51,51,1.0);font-size:12.8px;font-family:'Roboto Medium',sans-serif">2020-03-30</text><path  d="M 271 351
L 271 356" style="stroke-width:1;stroke:rgba(51,51,51,1.0);fill:none"/><text x="238" y="373" style="stroke-width:0;stroke:none;fill:rgba(51,51,51,1.0);font-size:12.8px;font-family:'Roboto Medium',sans-serif">2020-05-02</text><path  d="M 388 351
L 388 356" style="stroke-width:1;stroke:rgba(51,51,51,1.0);fill:none"/><text x="355" y="373" style="stroke-width:0;stroke:none;fill:rgba(51,51,51,1.0);font-size:12.8px;font-family:'Roboto Medium',sans-serif">2020-06-04</text><path  d="M 504 351
L 504 356" style="stroke-width:1;stroke:rgba(51,51,51,1.0);fill:none"/><text x="471" y="373" style="stroke-width:0;stroke:none;fill:rgba(51,51,51,1.0);font-size:12.8px;font-family:'Roboto Medium',sans-serif">2020-07-07</text><path  d="M 620 351
L 620 356" style="stroke-width:1;stroke:rgba(51,51,51,1.0);fill:none"/><text x="587" y="373" style="stroke-width:0;stroke:none;fill:rgba(51,51,51,1.0);font-size:12.8px;font-family:'Roboto Medium',sans-serif">2020-08-09</text><path  d="M 737 351
L 737 356" style="stroke-width:1;stroke:rgba(51,51,51,1.0);fill:none"/><text x="704" y="373" style="stroke-width:0;stroke:none;fill:rgba(51,51,51,1.0);font-size:12.8px;font-family:'Roboto Medium',sans-serif">2020-09-11</text><path  d="M 853 351
L 853 356" style="stroke-width:1;stroke:rgba(51,51,51,1.0);fill:none"/><text x="820" y="373" style="stroke-width:0;stroke:none;fill:rgba(51,51,51,1.0);font-size:12.8px;font-family:'Roboto Medium',sans-serif">2020-10-14</text><path  d="M 969 351
L 969 356" style="stroke-width:1;stroke:rgba(51,51,51,1.0);fill:none"/><text x="936" y="373" style="stroke-width:0;stroke:none;fill:rgba(51,51,51,1.0);font-size:12.8px;font-family:'Roboto Medium',sans-serif">2020-11-17</text><text x="485" y="395" style="stroke-width:0;stroke:none;fill:rgba(51,51,51,1.0);font-size:12.8px;font-family:'Roboto Medium',sans-serif">Datum</text><path  d="M 970 351
L 970 11" style="stroke-width:1;stroke:rgba(51,51,51,1.0);fill:none"/><path  d="M 970 351
L 975 351" style="stroke-width:1;stroke:rgba(51,51,51,1.0);fill:none"/><text x="980" y="357" style="stroke-width:0;stroke:none;fill:rgba(51,51,51,1.0);font-size:12.8px;font-family:'Roboto Medium',sans-serif">0.00</text><path  d="M 970 308
L 975 308" style="stroke-width:1;stroke:rgba(51,51,51,1.0);fill:none"/><text x="980" y="314" style="stroke-width:0;stroke:none;fill:rgba(51,51,51,1.0);font-size:12.8px;font-family:'Roboto Medium',sans-serif">45.00</text><path  d="M 970 266
L 975 266" style="stroke-width:1;stroke:rgba(51,51,51,1.0);fill:none"/><text x="980" y="272" style="stroke-width:0;stroke:none;fill:rgba(51,51,51,1.0);font-size:12.8px;font-family:'Roboto Medium',sans-serif">90.00</text><path  d="M 970 223
L 975 223" style="stroke-width:1;stroke:rgba(51,51,51,1.0);fill:none"/><text x="980" y="229" style="stroke-width:0;stroke:none;fill:rgba(51,51,51,1.0);font-size:12.8px;font-family:'Roboto Medium',sans-serif">135.00</text><path  d="M 970 181
L 975 181" style="stroke-width:1;stroke:rgba(51,51,51,1.0);fill:none"/><text x="980" y="187" style="stroke-width:0;stroke:none;fill:rgba(51,51,51,1.0);font-size:12.8px;font-family:'Roboto Medium',sans-serif">180.00</text><path  d="M 970 138
L 975 138" style="stroke-width:1;stroke:rgba(51,51,51,1.0);fill:none"/><text x="980" y="144" style="stroke-width:0;stroke:none;fill:rgba(51,51,51,1.0);font-size:12.8px;font-family:'Roboto Medium',sans-serif">225.00</text><path  d="M 970 96
L 975 96" style="stroke-width:1;stroke:rgba(51,51,51,1.0);fill:none"/><text x="980" y="102" style="stroke-width:0;stroke:none;fill:rgba(51,51,51,1.0);font-size:12.8px;font-family:'Roboto Medium',sans-serif">270.00</text><path  d="M 970 53
L 975 53" style="stroke-width:1;stroke:rgba(51,51,51,1.0);fill:none"/><text x="980" y="59" style="stroke-width:0;stroke:none;fill:rgba(51,51,51,1.0);font-size:12.8px;font-family:'Roboto Medium',sans-serif">315.00</text><path  d="M 970 11
L 975 11" style="stroke-width:1;stroke:rgba(51,51,51,1.0);fill:none"/><text x="980" y="17" style="stroke-width:0;stroke:none;fill:rgba(51,51,51,1.0);font-size:12.8px;font-family:'Roboto Medium',sans-serif">360.00</text><path  d="M 38 351
L 42 351
L 46 351
L 49 351
L 53 351
L 56 351
L 60 351
L 63 351
L 67 351
L 70 351
L 74 351
L 77 351
L 81 351
L 84 351
L 88 351
L 91 351
L 95 350
L 98 350
L 102 348
L 105 348
L 109 345
L 112 345
L 116 342
L 119 343
L 123 340
L 126 336
L 130 330
L 133 327
L 137 322
L 140 322
L 144 314
L 147 315
L 151 317
L 154 316
L 158 321
L 161 326
L 165 325
L 168 331
L 172 333
L 176 337
L 179 338
L 183 335
L 186 332
L 190 336
L 193 337
L 197 337
L 200 337
L 204 343
L 207 345
L 211 346
L 214 346
L 218 345
L 221 345
L 225 345
L 228 343
L 232 345
L 235 346
L 239 347
L 242 348
L 246 349
L 249 349
L 253 350
L 256 350
L 260 350
L 263 349
L 267 348
L 270 348
L 274 348
L 277 348
L 281 347
L 284 347
L 288 348
L 291 349
L 295 347
L 298 347
L 302 346
L 306 346
L 309 346
L 313 343
L 316 344
L 320 345
L 323 346
L 327 347
L 330 348
L 334 348
L 337 351
L 341 351
L 344 347
L 348 343
L 351 343
L 355 342
L 358 341
L 362 341
L 365 341
L 369 345
L 372 349
L 376 349
L 379 350
L 383 351
L 386 351
L 390 351
L 393 351
L 397 351
L 400 351
L 404 351
L 407 351
L 411 349
L 414 346
L 418 344
L 421 343
L 425 343
L 428 341
L 432 341
L 435 342
L 439 345
L 443 347
L 446 348
L 450 347
L 453 349
L 457 349
L 460 349
L 464 349
L 467 349
L 471 347
L 474 347
L 478 347
L 481 347
L 485 347
L 488 347
L 492 347
L 495 349
L 499 349
L 502 348
L 506 349
L 509 349
L 513 348
L 516 348
L 520 348
L 523 348
L 527 347
L 530 347
L 534 346
L 537 345
L 541 343
L 544 342
L 548 342
L 551 344
L 555 343
L 558 343
L 562 345
L 565 345
L 569 345
L 573 345
L 576 344
L 580 343
L 583 341
L 587 342
L 590 341
L 594 343
L 597 342
L 601 341
L 604 342
L 608 344
L 611 344
L 615 345
L 618 345
L 622 344
L 625 340
L 629 341
L 632 340
L 636 338
L 639 336
L 643 335
L 646 333
L 650 337
L 653 335
L 657 334
L 660 333
L 664 332
L 667 330
L 671 332
L 674 331
L 678 332
L 681 332
L 685 333
L 688 333
L 692 334
L 695 332
L 699 333
L 702 330
L 706 329
L 710 330
L 713 330
L 717 325
L 720 323
L 724 321
L 727 316
L 731 313
L 734 300
L 738 302
L 741 307
L 745 304
L 748 301
L 752 304
L 755 302
L 759 312
L 762 306
L 766 298
L 769 304
L 773 302
L 776 300
L 780 301
L 783 302
L 787 301
L 790 305
L 794 304
L 797 307
L 801 308
L 804 309
L 808 304
L 811 305
L 815 297
L 818 295
L 822 290
L 825 284
L 829 278
L 832 267
L 836 267
L 840 270
L 843 265
L 847 266
L 850 263
L 854 271
L 857 284
L 861 280
L 864 282
L 868 283
L 871 269
L 875 265
L 878 244
L 882 226
L 885 211
L 889 196
L 892 186
L 896 175
L 899 165
L 903 159
L 906 127
L 910 127
L 913 98
L 917 76
L 920 57
L 924 33
L 927 26
L 931 25
L 934 12
L 938 28
L 941 17
L 945 23
L 948 24
L 952 26
L 955 42
L 959 35
L 962 35
L 966 49
L 969 47" style="stroke-width:1;stroke:rgba(0,116,217,1.0);fill:none"/><path  d="M 38 351
L 42 351
L 46 351
L 49 351
L 53 351
L 56 351
L 60 351
L 63 351
L 67 351
L 70 351
L 74 351
L 77 351
L 81 351
L 84 351
L 88 351
L 91 351
L 95 350
L 98 351
L 102 348
L 105 351
L 109 347
L 112 350
L 116 347
L 119 351
L 123 346
L 126 342
L 130 342
L 133 342
L 137 343
L 140 346
L 144 340
L 147 347
L 151 345
L 154 340
L 158 350
L 161 351
L 165 345
L 168 349
L 172 350
L 176 351
L 179 341
L 183 346
L 186 347
L 190 350
L 193 351
L 197 350
L 200 351
L 204 351
L 207 348
L 211 349
L 214 350
L 218 349
L 221 350
L 225 351
L 228 349
L 232 351
L 235 350
L 239 351
L 242 351
L 246 351
L 249 351
L 253 351
L 256 351
L 260 350
L 263 350
L 267 349
L 270 351
L 274 351
L 277 351
L 281 349
L 284 351
L 288 351
L 291 350
L 295 349
L 298 350
L 302 350
L 306 349
L 309 351
L 313 347
L 316 351
L 320 351
L 323 351
L 327 351
L 330 351
L 334 351
L 337 351
L 341 351
L 344 346
L 348 345
L 351 350
L 355 350
L 358 350
L 362 351
L 365 351
L 369 351
L 372 351
L 376 351
L 379 351
L 383 351
L 386 351
L 390 351
L 393 351
L 397 351
L 400 351
L 404 351
L 407 351
L 411 349
L 414 346
L 418 348
L 421 350
L 425 351
L 428 348
L 432 351
L 435 350
L 439 351
L 443 351
L 446 351
L 450 350
L 453 351
L 457 350
L 460 350
L 464 351
L 467 351
L 471 348
L 474 350
L 478 351
L 481 350
L 485 350
L 488 351
L 492 351
L 495 351
L 499 351
L 502 349
L 506 351
L 509 351
L 513 349
L 516 351
L 520 351
L 523 351
L 527 348
L 530 351
L 534 349
L 537 348
L 541 348
L 544 349
L 548 351
L 551 351
L 555 350
L 558 349
L 562 350
L 565 348
L 569 349
L 573 351
L 576 350
L 580 348
L 583 347
L 587 351
L 590 347
L 594 351
L 597 350
L 601 348
L 604 350
L 608 350
L 611 351
L 615 348
L 618 351
L 622 349
L 625 342
L 629 351
L 632 348
L 636 348
L 639 345
L 643 350
L 646 346
L 650 348
L 653 348
L 657 347
L 660 346
L 664 344
L 667 346
L 671 349
L 674 347
L 678 349
L 681 347
L 685 348
L 688 344
L 692 347
L 695 347
L 699 348
L 702 344
L 706 346
L 710 349
L 713 344
L 717 340
L 720 344
L 724 344
L 727 337
L 731 341
L 734 329
L 738 347
L 741 348
L 745 339
L 748 340
L 752 342
L 755 337
L 759 344
L 762 338
L 766 336
L 769 347
L 773 337
L 776 339
L 780 339
L 783 345
L 787 337
L 790 342
L 794 345
L 797 343
L 801 340
L 804 340
L 808 337
L 811 340
L 815 330
L 818 342
L 822 335
L 825 331
L 829 332
L 832 321
L 836 340
L 840 334
L 843 334
L 847 337
L 850 326
L 854 343
L 857 340
L 861 334
L 864 338
L 868 335
L 871 317
L 875 319
L 878 312
L 882 315
L 885 312
L 889 317
L 892 321
L 896 300
L 899 305
L 903 302
L 906 267
L 910 312
L 913 275
L 917 288
L 920 273
L 924 270
L 927 292
L 931 266
L 934 293
L 938 299
L 941 272
L 945 282
L 948 271
L 952 296
L 955 288
L 959 283
L 962 299
L 966 294
L 969 279" style="stroke-width:1;stroke:rgba(0,217,101,1.0);fill:none"/><path  d="M 38 351
L 42 351
L 46 351
L 49 351
L 53 351
L 56 351
L 60 351
L 63 351
L 67 351
L 70 351
L 74 351
L 77 351
L 81 351
L 84 351
L 88 351
L 91 351
L 95 351
L 98 351
L 102 351
L 105 351
L 109 351
L 112 351
L 116 351
L 119 351
L 123 351
L 126 351
L 130 351
L 133 351
L 137 351
L 140 351
L 144 351
L 147 351
L 151 351
L 154 351
L 158 351
L 161 351
L 165 351
L 168 351
L 172 351
L 176 351
L 179 351
L 183 351
L 186 351
L 190 350
L 193 351
L 197 351
L 200 351
L 204 350
L 207 351
L 211 351
L 214 350
L 218 351
L 221 351
L 225 351
L 228 351
L 232 351
L 235 351
L 239 351
L 242 351
L 246 350
L 249 351
L 253 351
L 256 351
L 260 351
L 263 351
L 267 351
L 270 351
L 274 351
L 277 351
L 281 351
L 284 351
L 288 351
L 291 351
L 295 351
L 298 351
L 302 351
L 306 351
L 309 351
L 313 351
L 316 351
L 320 351
L 323 351
L 327 351
L 330 351
L 334 351
L 337 351
L 341 351
L 344 351
L 348 351
L 351 351
L 355 351
L 358 351
L 362 351
L 365 351
L 369 351
L 372 351
L 376 351
L 379 351
L 383 351
L 386 351
L 390 351
L 393 351
L 397 351
L 400 351
L 404 351
L 407 351
L 411 351
L 414 351
L 418 351
L 421 351
L 425 351
L 428 351
L 432 351
L 435 351
L 439 351
L 443 351
L 446 351
L 450 351
L 453 351
L 457 351
L 460 351
L 464 351
L 467 351
L 471 351
L 474 351
L 478 351
L 481 351
L 485 351
L 488 351
L 492 351
L 495 351
L 499 351
L 502 351
L 506 351
L 509 351
L 513 351
L 516 351
L 520 351
L 523 351
L 527 351
L 530 351
L 534 351
L 537 351
L 541 351
L 544 351
L 548 351
L 551 351
L 555 351
L 558 351
L 562 351
L 565 351
L 569 351
L 573 351
L 576 351
L 580 351
L 583 351
L 587 351
L 590 351
L 594 351
L 597 351
L 601 351
L 604 351
L 608 351
L 611 351
L 615 351
L 618 351
L 622 351
L 625 351
L 629 351
L 632 351
L 636 351
L 639 351
L 643 351
L 646 351
L 650 351
L 653 351
L 657 351
L 660 351
L 664 351
L 667 351
L 671 351
L 674 351
L 678 351
L 681 351
L 685 351
L 688 351
L 692 351
L 695 351
L 699 351
L 702 351
L 706 351
L 710 351
L 713 351
L 717 351
L 720 351
L 724 351
L 727 351
L 731 351
L 734 351
L 738 351
L 741 351
L 745 351
L 748 351
L 752 351
L 755 351
L 759 351
L 762 351
L 766 350
L 769 351
L 773 351
L 776 351
L 780 351
L 783 351
L 787 351
L 790 351
L 794 351
L 797 351
L 801 351
L 804 351
L 808 351
L 811 351
L 815 350
L 818 351
L 822 351
L 825 351
L 829 350
L 832 351
L 836 351
L 840 351
L 843 351
L 847 351
L 850 351
L 854 351
L 857 351
L 861 351
L 864 351
L 868 351
L 871 351
L 875 351
L 878 351
L 882 351
L 885 351
L 889 351
L 892 351
L 896 351
L 899 351
L 903 350
L 906 351
L 910 351
L 913 351
L 917 351
L 920 351
L 924 349
L 927 351
L 931 351
L 934 350
L 938 351
L 941 351
L 945 351
L 948 351
L 952 350
L 955 350
L 959 351
L 962 351
L 966 350
L 969 351" style="stroke-width:1;stroke:rgba(217,0,116,1.0);fill:none"/><text x="418" y="33" style="stroke-width:0;stroke:none;fill:rgba(51,51,51,1.0);font-size:23.0px;font-family:'Roboto Medium',sans-serif">Baden 17.11.2020</text><path  d="M 38 11
L 251 11
L 251 91
L 38 91
L 38 11" style="stroke-width:1;stroke:rgba(51,51,51,1.0);fill:rgba(255,255,255,1.0)"/><text x="43" y="26" style="stroke-width:0;stroke:none;fill:rgba(51,51,51,1.0);font-size:10.2px;font-family:'Roboto Medium',sans-serif">Sieben Tage Durschnitt Inzidenz Fälle</text><path  d="M 221 21
L 241 21" style="stroke-width:1;stroke:rgba(0,116,217,1.0);fill:none"/><text x="43" y="56" style="stroke-width:0;stroke:none;fill:rgba(51,51,51,1.0);font-size:10.2px;font-family:'Roboto Medium',sans-serif">Anzahl Faelle</text><path  d="M 110 51
L 241 51" style="stroke-width:1;stroke:rgba(0,217,101,1.0);fill:none"/><text x="43" y="86" style="stroke-width:0;stroke:none;fill:rgba(51,51,51,1.0);font-size:10.2px;font-family:'Roboto Medium',sans-serif">Anzahl Tot</text><path  d="M 98 81
L 241 81" style="stroke-width:1;stroke:rgba(217,0,116,1.0);fill:none"/></svg>