<svg xmlns="http://www.w3.org/2000/svg" xmlns:xlink="http://www.w3.org/1999/xlink" width="1024" height="400">\n<path  d="M 0 0
L 1024 0
L 1024 400
L 0 400
L 0 0" style="stroke-width:0;stroke:rgba(255,255,255,1.0);fill:rgba(255,255,255,1.0)"/><path  d="M 38 11
L 961 11
L 961 351
L 38 351
L 38 11" style="stroke-width:0;stroke:rgba(255,255,255,1.0);fill:rgba(255,255,255,1.0)"/><path  d="M 38 351
L 961 351" style="stroke-width:1;stroke:rgba(51,51,51,1.0);fill:none"/><path  d="M 38 351
L 38 356" style="stroke-width:1;stroke:rgba(51,51,51,1.0);fill:none"/><text x="5" y="373" style="stroke-width:0;stroke:none;fill:rgba(51,51,51,1.0);font-size:12.8px;font-family:'Roboto Medium',sans-serif">2020-02-26</text><path  d="M 154 351
L 154 356" style="stroke-width:1;stroke:rgba(51,51,51,1.0);fill:none"/><text x="121" y="373" style="stroke-width:0;stroke:none;fill:rgba(51,51,51,1.0);font-size:12.8px;font-family:'Roboto Medium',sans-serif">2020-06-20</text><path  d="M 269 351
L 269 356" style="stroke-width:1;stroke:rgba(51,51,51,1.0);fill:none"/><text x="236" y="373" style="stroke-width:0;stroke:none;fill:rgba(51,51,51,1.0);font-size:12.8px;font-family:'Roboto Medium',sans-serif">2020-10-14</text><path  d="M 385 351
L 385 356" style="stroke-width:1;stroke:rgba(51,51,51,1.0);fill:none"/><text x="352" y="373" style="stroke-width:0;stroke:none;fill:rgba(51,51,51,1.0);font-size:12.8px;font-family:'Roboto Medium',sans-serif">2021-02-07</text><path  d="M 500 351
L 500 356" style="stroke-width:1;stroke:rgba(51,51,51,1.0);fill:none"/><text x="467" y="373" style="stroke-width:0;stroke:none;fill:rgba(51,51,51,1.0);font-size:12.8px;font-family:'Roboto Medium',sans-serif">2021-06-03</text><path  d="M 615 351
L 615 356" style="stroke-width:1;stroke:rgba(51,51,51,1.0);fill:none"/><text x="582" y="373" style="stroke-width:0;stroke:none;fill:rgba(51,51,51,1.0);font-size:12.8px;font-family:'Roboto Medium',sans-serif">2021-09-26</text><path  d="M 731 351
L 731 356" style="stroke-width:1;stroke:rgba(51,51,51,1.0);fill:none"/><text x="698" y="373" style="stroke-width:0;stroke:none;fill:rgba(51,51,51,1.0);font-size:12.8px;font-family:'Roboto Medium',sans-serif">2022-01-20</text><path  d="M 846 351
L 846 356" style="stroke-width:1;stroke:rgba(51,51,51,1.0);fill:none"/><text x="813" y="373" style="stroke-width:0;stroke:none;fill:rgba(51,51,51,1.0);font-size:12.8px;font-family:'Roboto Medium',sans-serif">2022-05-16</text><path  d="M 961 351
L 961 356" style="stroke-width:1;stroke:rgba(51,51,51,1.0);fill:none"/><text x="928" y="373" style="stroke-width:0;stroke:none;fill:rgba(51,51,51,1.0);font-size:12.8px;font-family:'Roboto Medium',sans-serif">2022-09-09</text><text x="481" y="395" style="stroke-width:0;stroke:none;fill:rgba(51,51,51,1.0);font-size:12.8px;font-family:'Roboto Medium',sans-serif">Datum</text><path  d="M 962 351
L 962 11" style="stroke-width:1;stroke:rgba(51,51,51,1.0);fill:none"/><path  d="M 962 351
L 967 351" style="stroke-width:1;stroke:rgba(51,51,51,1.0);fill:none"/><text x="972" y="357" style="stroke-width:0;stroke:none;fill:rgba(51,51,51,1.0);font-size:12.8px;font-family:'Roboto Medium',sans-serif">0.00</text><path  d="M 962 308
L 967 308" style="stroke-width:1;stroke:rgba(51,51,51,1.0);fill:none"/><text x="972" y="314" style="stroke-width:0;stroke:none;fill:rgba(51,51,51,1.0);font-size:12.8px;font-family:'Roboto Medium',sans-serif">450.00</text><path  d="M 962 266
L 967 266" style="stroke-width:1;stroke:rgba(51,51,51,1.0);fill:none"/><text x="972" y="272" style="stroke-width:0;stroke:none;fill:rgba(51,51,51,1.0);font-size:12.8px;font-family:'Roboto Medium',sans-serif">900.00</text><path  d="M 962 223
L 967 223" style="stroke-width:1;stroke:rgba(51,51,51,1.0);fill:none"/><text x="972" y="229" style="stroke-width:0;stroke:none;fill:rgba(51,51,51,1.0);font-size:12.8px;font-family:'Roboto Medium',sans-serif">1350.00</text><path  d="M 962 181
L 967 181" style="stroke-width:1;stroke:rgba(51,51,51,1.0);fill:none"/><text x="972" y="187" style="stroke-width:0;stroke:none;fill:rgba(51,51,51,1.0);font-size:12.8px;font-family:'Roboto Medium',sans-serif">1800.00</text><path  d="M 962 138
L 967 138" style="stroke-width:1;stroke:rgba(51,51,51,1.0);fill:none"/><text x="972" y="144" style="stroke-width:0;stroke:none;fill:rgba(51,51,51,1.0);font-size:12.8px;font-family:'Roboto Medium',sans-serif">2250.00</text><path  d="M 962 96
L 967 96" style="stroke-width:1;stroke:rgba(51,51,51,1.0);fill:none"/><text x="972" y="102" style="stroke-width:0;stroke:none;fill:rgba(51,51,51,1.0);font-size:12.8px;font-family:'Roboto Medium',sans-serif">2700.00</text><path  d="M 962 53
L 967 53" style="stroke-width:1;stroke:rgba(51,51,51,1.0);fill:none"/><text x="972" y="59" style="stroke-width:0;stroke:none;fill:rgba(51,51,51,1.0);font-size:12.8px;font-family:'Roboto Medium',sans-serif">3150.00</text><path  d="M 962 11
L 967 11" style="stroke-width:1;stroke:rgba(51,51,51,1.0);fill:none"/><text x="972" y="17" style="stroke-width:0;stroke:none;fill:rgba(51,51,51,1.0);font-size:12.8px;font-family:'Roboto Medium',sans-serif">3600.00</text><path  d="M 38 351
L 39 351
L 40 351
L 41 351
L 42 351
L 43 351
L 44 351
L 45 351
L 46 351
L 47 351
L 48 351
L 49 351
L 50 351
L 51 351
L 52 351
L 53 351
L 54 350
L 55 350
L 56 350
L 57 350
L 58 350
L 59 350
L 60 350
L 61 350
L 62 349
L 63 349
L 64 348
L 65 348
L 66 348
L 67 347
L 68 347
L 69 347
L 70 347
L 71 347
L 72 348
L 73 348
L 74 348
L 75 348
L 76 349
L 77 349
L 78 349
L 79 349
L 80 349
L 81 349
L 82 349
L 83 349
L 84 349
L 85 350
L 86 350
L 87 350
L 88 350
L 89 350
L 90 350
L 91 350
L 92 350
L 93 350
L 94 350
L 95 350
L 96 350
L 97 350
L 98 350
L 99 351
L 100 351
L 101 350
L 102 350
L 103 350
L 104 350
L 105 350
L 106 350
L 107 350
L 108 350
L 109 350
L 110 350
L 111 350
L 112 350
L 113 350
L 114 350
L 115 350
L 116 350
L 117 350
L 118 350
L 119 350
L 120 350
L 121 350
L 122 350
L 123 351
L 124 351
L 125 350
L 126 350
L 127 350
L 128 350
L 129 350
L 130 350
L 131 350
L 132 350
L 133 350
L 134 350
L 135 350
L 136 351
L 137 351
L 138 350
L 139 350
L 140 350
L 141 350
L 142 350
L 143 350
L 144 350
L 145 350
L 146 350
L 147 350
L 148 350
L 149 350
L 150 350
L 151 350
L 152 350
L 153 350
L 154 350
L 155 350
L 156 350
L 157 350
L 158 350
L 159 350
L 160 350
L 161 350
L 162 350
L 163 350
L 164 350
L 165 350
L 166 350
L 167 350
L 168 350
L 169 350
L 170 350
L 171 350
L 172 350
L 173 350
L 174 350
L 175 350
L 176 350
L 177 350
L 178 350
L 179 350
L 180 350
L 181 350
L 182 350
L 183 350
L 184 350
L 185 350
L 186 350
L 187 350
L 188 350
L 189 350
L 190 350
L 191 350
L 192 350
L 193 350
L 194 350
L 195 350
L 196 350
L 197 350
L 198 350
L 199 350
L 200 350
L 201 350
L 202 350
L 203 350
L 204 350
L 205 350
L 206 350
L 207 349
L 208 349
L 209 349
L 210 349
L 211 349
L 212 349
L 213 349
L 214 349
L 215 349
L 216 349
L 217 348
L 218 349
L 219 349
L 220 349
L 221 349
L 222 349
L 223 349
L 224 349
L 225 349
L 226 349
L 227 348
L 228 348
L 229 349
L 230 349
L 231 348
L 232 348
L 233 348
L 234 347
L 235 347
L 236 345
L 237 345
L 238 346
L 239 346
L 240 345
L 241 346
L 242 346
L 243 347
L 244 346
L 245 345
L 246 346
L 247 346
L 248 345
L 249 346
L 250 346
L 251 346
L 252 346
L 253 346
L 254 346
L 255 346
L 256 346
L 257 346
L 258 346
L 259 345
L 260 345
L 261 344
L 262 344
L 263 343
L 264 342
L 265 342
L 266 342
L 267 342
L 268 342
L 269 342
L 270 343
L 271 344
L 272 344
L 273 344
L 274 344
L 275 342
L 276 342
L 277 340
L 278 339
L 279 337
L 280 336
L 281 335
L 282 334
L 283 333
L 284 332
L 285 329
L 286 329
L 287 326
L 288 324
L 289 322
L 290 319
L 291 319
L 292 318
L 293 317
L 294 318
L 295 317
L 296 318
L 297 318
L 298 319
L 299 320
L 300 319
L 301 319
L 302 321
L 303 320
L 304 322
L 305 322
L 306 322
L 307 323
L 308 326
L 309 326
L 310 329
L 311 329
L 312 330
L 313 333
L 314 332
L 315 331
L 316 331
L 317 331
L 318 331
L 319 331
L 320 329
L 321 331
L 322 331
L 323 332
L 324 332
L 325 334
L 326 334
L 327 335
L 328 336
L 329 337
L 330 336
L 331 337
L 332 333
L 333 335
L 334 335
L 335 334
L 336 334
L 337 336
L 338 334
L 339 336
L 340 336
L 341 336
L 342 336
L 343 336
L 344 336
L 345 336
L 346 336
L 346 337
L 347 335
L 348 335
L 349 333
L 350 333
L 351 334
L 352 333
L 353 331
L 354 331
L 355 331
L 356 333
L 357 334
L 358 333
L 359 333
L 360 335
L 361 337
L 362 336
L 363 336
L 364 336
L 365 336
L 366 338
L 367 337
L 368 337
L 369 337
L 370 337
L 371 338
L 372 339
L 373 339
L 374 339
L 375 339
L 376 339
L 377 340
L 378 340
L 379 340
L 380 340
L 381 340
L 382 339
L 383 339
L 384 339
L 385 338
L 386 337
L 387 336
L 388 335
L 389 337
L 390 337
L 391 337
L 392 337
L 393 337
L 394 337
L 395 336
L 396 334
L 397 333
L 398 332
L 399 330
L 400 330
L 401 329
L 402 329
L 403 328
L 404 324
L 405 324
L 406 324
L 407 323
L 408 325
L 409 325
L 410 323
L 411 324
L 412 323
L 413 323
L 414 323
L 415 321
L 416 319
L 417 319
L 418 320
L 419 322
L 420 321
L 421 322
L 422 322
L 423 322
L 424 320
L 425 319
L 426 317
L 427 316
L 428 315
L 429 316
L 430 316
L 431 319
L 432 321
L 433 320
L 434 320
L 435 321
L 436 320
L 437 321
L 438 322
L 439 321
L 440 323
L 441 326
L 442 326
L 443 328
L 444 329
L 445 329
L 446 332
L 447 333
L 448 333
L 449 333
L 450 334
L 451 334
L 452 335
L 453 335
L 454 335
L 455 336
L 456 337
L 457 338
L 458 338
L 459 338
L 460 338
L 461 338
L 462 337
L 463 338
L 464 338
L 465 339
L 466 340
L 467 342
L 468 343
L 469 343
L 470 344
L 471 344
L 472 345
L 473 345
L 474 345
L 475 346
L 476 347
L 477 347
L 478 347
L 479 347
L 480 348
L 481 348
L 482 348
L 483 348
L 484 347
L 485 347
L 486 347
L 487 347
L 488 347
L 489 347
L 490 347
L 491 347
L 492 348
L 493 348
L 494 348
L 495 348
L 496 348
L 497 348
L 498 348
L 499 349
L 500 349
L 501 349
L 502 349
L 503 349
L 504 348
L 505 348
L 506 348
L 507 348
L 508 348
L 509 348
L 510 348
L 511 349
L 512 349
L 513 349
L 514 349
L 515 349
L 516 349
L 517 349
L 518 349
L 519 349
L 520 349
L 521 349
L 522 349
L 523 350
L 524 349
L 525 349
L 526 349
L 527 349
L 528 349
L 529 349
L 530 350
L 531 350
L 532 350
L 533 350
L 534 350
L 535 350
L 536 350
L 537 350
L 538 350
L 539 349
L 540 349
L 541 349
L 542 349
L 543 349
L 544 349
L 545 349
L 546 348
L 547 349
L 548 349
L 549 349
L 550 349
L 551 349
L 552 349
L 553 349
L 554 349
L 555 348
L 556 348
L 557 348
L 558 347
L 559 347
L 560 347
L 561 347
L 562 348
L 563 348
L 564 348
L 565 348
L 566 348
L 567 348
L 568 348
L 569 347
L 570 347
L 571 347
L 572 346
L 573 345
L 574 345
L 575 344
L 576 344
L 577 343
L 578 343
L 579 343
L 580 342
L 581 342
L 582 341
L 583 341
L 584 341
L 585 340
L 586 340
L 587 340
L 588 339
L 589 338
L 590 337
L 591 336
L 592 336
L 593 336
L 594 335
L 595 335
L 596 335
L 597 333
L 598 333
L 599 333
L 600 332
L 601 333
L 602 334
L 603 334
L 604 335
L 605 335
L 606 335
L 607 335
L 608 335
L 609 336
L 610 336
L 611 338
L 612 338
L 613 339
L 614 341
L 615 340
L 616 339
L 617 338
L 618 339
L 619 339
L 620 339
L 621 339
L 622 339
L 623 341
L 624 342
L 625 341
L 626 342
L 627 342
L 628 342
L 629 341
L 630 340
L 631 339
L 632 339
L 633 339
L 634 339
L 635 337
L 636 337
L 637 336
L 638 336
L 639 335
L 640 334
L 641 334
L 642 334
L 643 334
L 644 333
L 645 333
L 646 333
L 647 332
L 648 329
L 649 327
L 650 326
L 651 325
L 652 323
L 653 321
L 654 318
L 654 313
L 655 311
L 656 310
L 657 305
L 658 300
L 659 294
L 660 293
L 661 293
L 662 291
L 663 285
L 664 283
L 665 280
L 666 276
L 667 275
L 668 272
L 669 267
L 670 265
L 671 262
L 672 263
L 673 268
L 674 265
L 675 265
L 676 271
L 677 276
L 678 282
L 679 286
L 680 288
L 681 293
L 682 298
L 683 301
L 684 305
L 685 307
L 686 309
L 687 313
L 688 317
L 689 320
L 690 322
L 691 324
L 692 326
L 693 327
L 694 329
L 695 329
L 696 331
L 697 333
L 698 333
L 699 334
L 700 335
L 701 336
L 702 336
L 703 337
L 704 337
L 705 338
L 706 338
L 707 338
L 708 337
L 709 336
L 710 335
L 711 335
L 712 332
L 713 329
L 714 325
L 715 321
L 716 317
L 717 312
L 718 306
L 719 300
L 720 290
L 721 279
L 722 269
L 723 260
L 724 252
L 725 246
L 726 238
L 727 232
L 728 224
L 729 222
L 730 212
L 731 206
L 732 202
L 733 195
L 734 189
L 735 178
L 736 166
L 737 165
L 738 161
L 739 153
L 740 152
L 741 155
L 742 148
L 743 142
L 744 135
L 745 134
L 746 133
L 747 139
L 748 135
L 749 147
L 750 155
L 751 158
L 752 156
L 753 160
L 754 158
L 755 157
L 756 139
L 757 139
L 758 142
L 759 144
L 760 144
L 761 139
L 762 139
L 763 149
L 764 152
L 765 146
L 766 146
L 767 145
L 768 154
L 769 148
L 770 148
L 771 147
L 772 148
L 773 143
L 774 138
L 775 129
L 776 125
L 777 112
L 778 88
L 779 67
L 780 57
L 781 48
L 782 34
L 783 28
L 784 17
L 785 20
L 786 19
L 787 17
L 788 11
L 789 19
L 790 13
L 791 21
L 792 28
L 793 37
L 794 45
L 795 55
L 796 63
L 797 83
L 798 104
L 799 120
L 800 140
L 801 160
L 802 176
L 803 189
L 804 203
L 805 212
L 806 223
L 807 230
L 808 232
L 809 236
L 810 239
L 811 244
L 812 256
L 813 260
L 814 266
L 815 269
L 816 271
L 817 272
L 818 277
L 819 279
L 820 280
L 821 281
L 822 282
L 823 286
L 824 288
L 825 287
L 826 289
L 827 291
L 828 295
L 829 295
L 830 295
L 831 295
L 832 296
L 833 297
L 834 299
L 835 299
L 836 303
L 837 303
L 838 304
L 839 306
L 840 307
L 841 308
L 842 311
L 843 312
L 844 314
L 845 317
L 846 319
L 847 321
L 848 324
L 849 326
L 850 327
L 851 328
L 852 329
L 853 329
L 854 331
L 855 330
L 856 331
L 857 332
L 858 332
L 859 332
L 860 332
L 861 332
L 862 332
L 863 330
L 864 330
L 865 331
L 866 330
L 867 329
L 868 329
L 869 326
L 870 326
L 871 324
L 872 323
L 873 322
L 874 322
L 875 317
L 876 314
L 877 311
L 878 305
L 879 301
L 880 296
L 881 292
L 882 286
L 883 286
L 884 280
L 885 281
L 886 279
L 887 278
L 888 273
L 889 275
L 890 271
L 891 272
L 892 266
L 893 267
L 894 267
L 895 265
L 896 265
L 897 265
L 898 258
L 899 261
L 900 259
L 901 257
L 902 259
L 903 256
L 904 254
L 905 253
L 906 251
L 907 249
L 908 251
L 909 247
L 910 247
L 911 249
L 912 252
L 913 254
L 914 257
L 915 255
L 916 260
L 917 264
L 918 267
L 919 273
L 920 279
L 921 281
L 922 288
L 923 290
L 924 292
L 925 295
L 926 297
L 927 298
L 928 300
L 929 301
L 930 302
L 931 305
L 932 304
L 933 305
L 934 305
L 935 305
L 936 306
L 937 309
L 938 309
L 939 310
L 940 310
L 941 309
L 942 310
L 943 309
L 944 307
L 945 310
L 946 312
L 947 314
L 948 315
L 949 315
L 950 317
L 951 319
L 952 319
L 953 319
L 954 320
L 955 322
L 956 322
L 957 321
L 958 321
L 959 321
L 960 320
L 961 320
L 961 319" style="stroke-width:1;stroke:rgba(0,116,217,1.0);fill:none"/><path  d="M 38 351
L 39 351
L 40 351
L 41 351
L 42 351
L 43 351
L 44 351
L 45 351
L 46 351
L 47 351
L 48 351
L 49 351
L 50 351
L 51 351
L 52 351
L 53 351
L 54 350
L 55 351
L 56 350
L 57 351
L 58 350
L 59 350
L 60 350
L 61 350
L 62 350
L 63 350
L 64 350
L 65 350
L 66 350
L 67 350
L 68 350
L 69 350
L 70 350
L 71 349
L 72 350
L 73 351
L 74 350
L 75 350
L 76 350
L 77 351
L 78 350
L 79 350
L 80 350
L 81 351
L 82 351
L 83 350
L 84 351
L 85 351
L 86 350
L 87 350
L 88 351
L 89 350
L 90 350
L 91 351
L 92 350
L 93 351
L 94 351
L 95 351
L 96 351
L 97 351
L 98 351
L 99 351
L 100 351
L 101 350
L 102 350
L 103 350
L 104 351
L 105 351
L 106 351
L 107 350
L 108 351
L 109 351
L 110 350
L 111 350
L 112 350
L 113 350
L 114 350
L 115 351
L 116 350
L 117 351
L 118 351
L 119 351
L 120 351
L 121 351
L 122 351
L 123 351
L 124 351
L 125 350
L 126 350
L 127 350
L 128 350
L 129 350
L 130 351
L 131 351
L 132 351
L 133 351
L 134 351
L 135 351
L 136 351
L 137 351
L 138 350
L 139 350
L 140 351
L 141 351
L 142 350
L 143 351
L 144 350
L 145 350
L 146 350
L 147 350
L 148 351
L 149 350
L 150 351
L 151 350
L 152 351
L 153 351
L 154 351
L 155 350
L 156 351
L 157 350
L 158 350
L 159 351
L 160 351
L 161 350
L 162 350
L 163 351
L 164 350
L 165 350
L 166 351
L 167 351
L 168 351
L 169 351
L 170 350
L 171 351
L 172 351
L 173 350
L 174 351
L 175 351
L 176 351
L 177 350
L 178 351
L 179 350
L 180 350
L 181 350
L 182 350
L 183 351
L 184 351
L 185 350
L 186 350
L 187 350
L 188 350
L 189 350
L 190 351
L 191 350
L 192 350
L 193 350
L 194 351
L 195 350
L 196 351
L 197 350
L 198 350
L 199 350
L 200 350
L 201 351
L 202 350
L 203 351
L 204 350
L 205 350
L 206 351
L 207 350
L 208 350
L 209 350
L 210 350
L 211 350
L 212 350
L 213 350
L 214 350
L 215 350
L 216 350
L 217 350
L 218 350
L 219 350
L 220 350
L 221 350
L 222 350
L 223 350
L 224 350
L 225 350
L 226 350
L 227 350
L 228 350
L 229 350
L 230 350
L 231 349
L 232 350
L 233 350
L 234 349
L 235 350
L 236 348
L 237 350
L 238 350
L 239 349
L 240 349
L 241 350
L 242 349
L 243 350
L 244 349
L 245 349
L 246 350
L 247 349
L 248 349
L 249 349
L 250 350
L 251 349
L 252 350
L 253 350
L 254 350
L 255 349
L 256 349
L 257 349
L 258 349
L 259 349
L 260 350
L 261 349
L 262 349
L 263 348
L 264 348
L 265 349
L 266 349
L 267 349
L 268 349
L 269 348
L 270 350
L 271 349
L 272 349
L 273 349
L 274 349
L 275 347
L 276 348
L 277 347
L 278 347
L 279 347
L 280 347
L 281 348
L 282 345
L 283 346
L 284 346
L 285 342
L 286 347
L 287 343
L 288 344
L 289 343
L 290 342
L 291 345
L 292 342
L 293 345
L 294 345
L 295 343
L 296 344
L 297 343
L 298 345
L 299 344
L 300 344
L 301 345
L 302 345
L 303 342
L 304 345
L 305 346
L 306 344
L 307 346
L 308 349
L 309 346
L 310 346
L 311 346
L 312 347
L 313 347
L 314 345
L 315 347
L 316 347
L 317 346
L 318 346
L 319 346
L 320 345
L 321 348
L 322 347
L 323 348
L 324 346
L 325 349
L 326 345
L 327 348
L 328 348
L 329 348
L 330 346
L 331 348
L 332 343
L 333 348
L 334 348
L 335 348
L 336 348
L 337 348
L 338 345
L 339 346
L 340 348
L 341 348
L 342 348
L 343 348
L 344 347
L 345 345
L 346 347
L 346 349
L 347 346
L 348 348
L 349 345
L 350 346
L 351 347
L 352 345
L 353 347
L 354 345
L 355 348
L 356 348
L 357 348
L 358 346
L 359 346
L 360 349
L 361 348
L 362 348
L 363 348
L 364 347
L 365 346
L 366 349
L 367 348
L 368 348
L 369 348
L 370 348
L 371 348
L 372 348
L 373 348
L 374 348
L 375 349
L 376 348
L 377 348
L 378 348
L 379 349
L 380 348
L 381 348
L 382 347
L 383 347
L 384 349
L 385 347
L 386 348
L 387 347
L 388 347
L 389 349
L 390 348
L 391 349
L 392 347
L 393 347
L 394 347
L 395 345
L 396 345
L 397 347
L 398 348
L 399 345
L 400 347
L 401 344
L 402 345
L 403 344
L 404 341
L 405 347
L 406 345
L 407 345
L 408 347
L 409 346
L 410 341
L 411 343
L 412 345
L 413 346
L 414 344
L 415 344
L 416 344
L 417 341
L 418 344
L 419 349
L 420 344
L 421 346
L 422 343
L 423 344
L 424 338
L 425 344
L 426 344
L 427 344
L 428 344
L 429 345
L 430 344
L 431 343
L 432 346
L 433 344
L 434 343
L 435 346
L 436 343
L 437 346
L 438 344
L 439 344
L 440 347
L 441 347
L 442 346
L 443 346
L 444 347
L 445 345
L 446 348
L 447 347
L 448 348
L 449 346
L 450 347
L 451 347
L 452 348
L 453 348
L 454 347
L 455 349
L 456 347
L 457 348
L 458 347
L 459 348
L 460 347
L 461 348
L 462 348
L 463 348
L 464 349
L 465 348
L 466 349
L 467 350
L 468 350
L 469 348
L 470 350
L 471 349
L 472 349
L 473 350
L 474 350
L 475 350
L 476 350
L 477 350
L 478 350
L 479 350
L 480 350
L 481 350
L 482 350
L 483 350
L 484 350
L 485 348
L 486 350
L 487 350
L 488 350
L 489 350
L 490 350
L 491 350
L 492 350
L 493 350
L 494 350
L 495 350
L 496 350
L 497 350
L 498 350
L 499 351
L 500 350
L 501 350
L 502 350
L 503 350
L 504 349
L 505 349
L 506 350
L 507 350
L 508 351
L 509 350
L 510 350
L 511 350
L 512 350
L 513 350
L 514 350
L 515 350
L 516 350
L 517 351
L 518 350
L 519 351
L 520 350
L 521 350
L 522 350
L 523 350
L 524 350
L 525 350
L 526 350
L 527 350
L 528 350
L 529 350
L 530 350
L 531 351
L 532 351
L 533 351
L 534 350
L 535 350
L 536 350
L 537 350
L 538 350
L 539 350
L 540 350
L 541 350
L 542 350
L 543 350
L 544 350
L 545 350
L 546 350
L 547 350
L 548 350
L 549 350
L 550 350
L 551 350
L 552 350
L 553 350
L 554 350
L 555 350
L 556 350
L 557 350
L 558 349
L 559 350
L 560 350
L 561 350
L 562 350
L 563 350
L 564 350
L 565 350
L 566 350
L 567 349
L 568 350
L 569 349
L 570 350
L 571 349
L 572 349
L 573 349
L 574 349
L 575 348
L 576 349
L 577 348
L 578 349
L 579 348
L 580 349
L 581 349
L 582 347
L 583 348
L 584 349
L 585 347
L 586 349
L 587 348
L 588 347
L 589 346
L 590 347
L 591 348
L 592 347
L 593 349
L 594 347
L 595 347
L 596 347
L 597 344
L 598 348
L 599 348
L 600 347
L 601 349
L 602 348
L 603 347
L 604 345
L 605 347
L 606 347
L 607 347
L 608 349
L 609 349
L 610 348
L 611 347
L 612 348
L 613 349
L 614 349
L 615 348
L 616 347
L 617 346
L 618 349
L 619 347
L 620 348
L 621 349
L 622 349
L 623 349
L 624 348
L 625 349
L 626 348
L 627 348
L 628 349
L 629 348
L 630 348
L 631 346
L 632 349
L 633 348
L 634 348
L 635 347
L 636 347
L 637 347
L 638 346
L 639 347
L 640 347
L 641 347
L 642 347
L 643 347
L 644 346
L 645 347
L 646 346
L 647 346
L 648 344
L 649 344
L 650 344
L 651 346
L 652 343
L 653 343
L 654 341
L 654 337
L 655 340
L 656 344
L 657 338
L 658 336
L 659 334
L 660 340
L 661 336
L 662 337
L 663 335
L 664 335
L 665 332
L 666 328
L 667 338
L 668 331
L 669 331
L 670 332
L 671 330
L 672 335
L 673 334
L 674 334
L 675 332
L 676 340
L 677 339
L 678 339
L 679 340
L 680 338
L 681 341
L 682 340
L 683 343
L 684 345
L 685 343
L 686 344
L 687 344
L 688 346
L 689 345
L 690 346
L 691 347
L 692 345
L 693 345
L 694 347
L 695 347
L 696 347
L 697 349
L 698 347
L 699 347
L 700 347
L 701 348
L 702 348
L 703 348
L 704 349
L 705 348
L 706 347
L 707 346
L 708 346
L 709 347
L 710 347
L 711 348
L 712 345
L 713 343
L 714 341
L 715 340
L 716 341
L 717 339
L 718 339
L 719 335
L 720 329
L 721 325
L 722 326
L 723 327
L 724 327
L 725 330
L 726 324
L 727 320
L 728 313
L 729 321
L 730 312
L 731 318
L 732 324
L 733 313
L 734 311
L 735 296
L 736 304
L 737 310
L 738 313
L 739 312
L 740 312
L 741 315
L 742 285
L 743 295
L 744 301
L 745 312
L 746 311
L 747 320
L 748 310
L 749 303
L 750 308
L 751 304
L 752 309
L 753 317
L 754 318
L 755 309
L 756 276
L 757 307
L 758 308
L 759 312
L 760 318
L 761 309
L 762 309
L 763 291
L 764 312
L 765 298
L 766 313
L 767 317
L 768 322
L 769 301
L 770 289
L 771 311
L 772 300
L 773 305
L 774 310
L 775 308
L 776 294
L 777 271
L 778 275
L 779 269
L 780 290
L 781 297
L 782 288
L 783 284
L 784 255
L 785 279
L 786 268
L 787 287
L 788 288
L 789 299
L 790 275
L 791 267
L 792 290
L 793 281
L 794 299
L 795 303
L 796 312
L 797 305
L 798 298
L 799 313
L 800 312
L 801 328
L 802 326
L 803 332
L 804 325
L 805 312
L 806 328
L 807 323
L 808 331
L 809 333
L 810 337
L 811 331
L 812 331
L 813 333
L 814 332
L 815 336
L 816 335
L 817 339
L 818 338
L 819 334
L 820 335
L 821 334
L 822 337
L 823 341
L 824 341
L 825 337
L 826 337
L 827 338
L 828 340
L 829 337
L 830 341
L 831 342
L 832 338
L 833 338
L 834 341
L 835 340
L 836 342
L 837 343
L 838 342
L 839 342
L 840 340
L 841 342
L 842 343
L 843 344
L 844 345
L 845 347
L 846 346
L 847 342
L 848 347
L 849 346
L 850 345
L 851 347
L 852 348
L 853 345
L 854 345
L 855 347
L 856 347
L 857 347
L 858 347
L 859 348
L 860 345
L 861 345
L 862 346
L 863 345
L 864 347
L 865 347
L 866 347
L 867 345
L 868 344
L 869 342
L 870 344
L 871 345
L 872 345
L 873 346
L 874 344
L 875 337
L 876 337
L 877 340
L 878 336
L 879 339
L 880 339
L 881 338
L 882 328
L 883 337
L 884 332
L 885 337
L 886 336
L 887 338
L 888 330
L 889 330
L 890 331
L 891 334
L 892 328
L 893 338
L 894 337
L 895 328
L 896 331
L 897 330
L 898 324
L 899 333
L 900 336
L 901 334
L 902 330
L 903 326
L 904 328
L 905 323
L 906 328
L 907 333
L 908 337
L 909 325
L 910 325
L 911 330
L 912 328
L 913 331
L 914 337
L 915 333
L 916 332
L 917 332
L 918 335
L 919 337
L 920 339
L 921 342
L 922 343
L 923 336
L 924 334
L 925 340
L 926 341
L 927 341
L 928 344
L 929 343
L 930 338
L 931 338
L 932 339
L 933 341
L 934 342
L 935 343
L 936 345
L 937 343
L 938 338
L 939 340
L 940 342
L 941 340
L 942 344
L 943 344
L 944 340
L 945 342
L 946 343
L 947 345
L 948 341
L 949 345
L 950 347
L 951 343
L 952 343
L 953 344
L 954 345
L 955 345
L 956 344
L 957 346
L 958 343
L 959 342
L 960 343
L 961 344
L 961 344" style="stroke-width:1;stroke:rgba(0,217,101,1.0);fill:none"/><path  d="M 38 351
L 39 351
L 40 351
L 41 351
L 42 351
L 43 351
L 44 351
L 45 351
L 46 351
L 47 351
L 48 351
L 49 351
L 50 351
L 51 351
L 52 351
L 53 351
L 54 351
L 55 351
L 56 351
L 57 351
L 58 351
L 59 351
L 60 351
L 61 351
L 62 351
L 63 351
L 64 351
L 65 351
L 66 351
L 67 351
L 68 351
L 69 351
L 70 351
L 71 351
L 72 351
L 73 351
L 74 351
L 75 351
L 76 351
L 77 351
L 78 351
L 79 351
L 80 351
L 81 350
L 82 351
L 83 351
L 84 351
L 85 350
L 86 351
L 87 351
L 88 350
L 89 351
L 90 351
L 91 351
L 92 351
L 93 351
L 94 351
L 95 351
L 96 351
L 97 350
L 98 351
L 99 351
L 100 351
L 101 351
L 102 351
L 103 351
L 104 351
L 105 351
L 106 351
L 107 351
L 108 351
L 109 351
L 110 351
L 111 351
L 112 351
L 113 351
L 114 351
L 115 351
L 116 351
L 117 351
L 118 351
L 119 351
L 120 351
L 121 351
L 122 351
L 123 351
L 124 351
L 125 351
L 126 351
L 127 351
L 128 351
L 129 351
L 130 351
L 131 351
L 132 351
L 133 351
L 134 351
L 135 351
L 136 351
L 137 351
L 138 351
L 139 351
L 140 351
L 141 351
L 142 351
L 143 351
L 144 351
L 145 351
L 146 351
L 147 351
L 148 351
L 149 351
L 150 351
L 151 351
L 152 351
L 153 351
L 154 351
L 155 351
L 156 351
L 157 351
L 158 351
L 159 351
L 160 351
L 161 351
L 162 351
L 163 351
L 164 351
L 165 351
L 166 351
L 167 350
L 168 351
L 169 351
L 170 351
L 171 351
L 172 351
L 173 351
L 174 351
L 175 351
L 176 351
L 177 351
L 178 351
L 179 351
L 180 351
L 181 351
L 182 351
L 183 351
L 184 351
L 185 351
L 186 351
L 187 351
L 188 351
L 189 351
L 190 351
L 191 351
L 192 351
L 193 351
L 194 351
L 195 351
L 196 351
L 197 351
L 198 351
L 199 351
L 200 351
L 201 351
L 202 351
L 203 351
L 204 351
L 205 351
L 206 351
L 207 351
L 208 351
L 209 351
L 210 351
L 211 351
L 212 351
L 213 351
L 214 351
L 215 351
L 216 351
L 217 351
L 218 351
L 219 351
L 220 351
L 221 351
L 222 351
L 223 351
L 224 351
L 225 351
L 226 351
L 227 351
L 228 351
L 229 351
L 230 351
L 231 351
L 232 351
L 233 351
L 234 351
L 235 351
L 236 351
L 237 351
L 238 351
L 239 351
L 240 351
L 241 351
L 242 351
L 243 351
L 244 351
L 245 350
L 246 351
L 247 351
L 248 351
L 249 351
L 250 351
L 251 351
L 252 351
L 253 351
L 254 351
L 255 351
L 256 351
L 257 351
L 258 351
L 259 350
L 260 351
L 261 351
L 262 351
L 263 350
L 264 351
L 265 351
L 266 351
L 267 351
L 268 351
L 269 351
L 270 351
L 271 351
L 272 351
L 273 351
L 274 351
L 275 351
L 276 350
L 277 350
L 278 351
L 279 351
L 280 351
L 281 351
L 282 351
L 283 351
L 284 350
L 285 351
L 286 351
L 287 351
L 288 351
L 289 350
L 290 350
L 291 351
L 292 351
L 293 350
L 294 350
L 295 350
L 296 351
L 297 350
L 298 350
L 299 350
L 300 351
L 301 350
L 302 350
L 303 350
L 304 351
L 305 350
L 306 351
L 307 351
L 308 350
L 309 350
L 310 351
L 311 351
L 312 350
L 313 351
L 314 350
L 315 350
L 316 351
L 317 351
L 318 350
L 319 350
L 320 350
L 321 350
L 322 350
L 323 350
L 324 351
L 325 351
L 326 350
L 327 350
L 328 351
L 329 350
L 330 350
L 331 350
L 332 351
L 333 350
L 334 351
L 335 350
L 336 350
L 337 350
L 338 350
L 339 350
L 340 350
L 341 351
L 342 351
L 343 350
L 344 350
L 345 350
L 346 350
L 346 351
L 347 351
L 348 350
L 349 350
L 350 351
L 351 350
L 352 351
L 353 350
L 354 350
L 355 350
L 356 350
L 357 351
L 358 350
L 359 350
L 360 351
L 361 351
L 362 350
L 363 350
L 364 350
L 365 351
L 366 350
L 367 351
L 368 350
L 369 350
L 370 351
L 371 350
L 372 351
L 373 350
L 374 350
L 375 350
L 376 351
L 377 350
L 378 350
L 379 350
L 380 350
L 381 350
L 382 350
L 383 350
L 384 350
L 385 351
L 386 350
L 387 351
L 388 351
L 389 350
L 390 350
L 391 350
L 392 350
L 393 350
L 394 351
L 395 351
L 396 351
L 397 350
L 398 350
L 399 350
L 400 350
L 401 350
L 402 351
L 403 350
L 404 350
L 405 351
L 406 351
L 407 351
L 408 350
L 409 351
L 410 350
L 411 351
L 412 350
L 413 351
L 414 350
L 415 350
L 416 350
L 417 351
L 418 350
L 419 350
L 420 350
L 421 351
L 422 350
L 423 350
L 424 350
L 425 351
L 426 351
L 427 350
L 428 351
L 429 350
L 430 351
L 431 350
L 432 350
L 433 351
L 434 351
L 435 351
L 436 350
L 437 351
L 438 350
L 439 351
L 440 350
L 441 350
L 442 351
L 443 350
L 444 350
L 445 350
L 446 351
L 447 350
L 448 350
L 449 350
L 450 351
L 451 351
L 452 351
L 453 350
L 454 350
L 455 351
L 456 351
L 457 350
L 458 350
L 459 351
L 460 351
L 461 351
L 462 351
L 463 351
L 464 350
L 465 351
L 466 351
L 467 350
L 468 350
L 469 351
L 470 350
L 471 351
L 472 351
L 473 351
L 474 351
L 475 350
L 476 351
L 477 351
L 478 351
L 479 350
L 480 351
L 481 351
L 482 350
L 483 351
L 484 351
L 485 351
L 486 351
L 487 351
L 488 351
L 489 351
L 490 351
L 491 351
L 492 350
L 493 350
L 494 351
L 495 351
L 496 350
L 497 351
L 498 351
L 499 351
L 500 351
L 501 351
L 502 350
L 503 351
L 504 351
L 505 351
L 506 351
L 507 351
L 508 351
L 509 351
L 510 351
L 511 351
L 512 351
L 513 351
L 514 351
L 515 351
L 516 351
L 517 351
L 518 350
L 519 351
L 520 351
L 521 351
L 522 351
L 523 351
L 524 351
L 525 351
L 526 351
L 527 351
L 528 351
L 529 351
L 530 351
L 531 351
L 532 351
L 533 351
L 534 351
L 535 351
L 536 351
L 537 351
L 538 351
L 539 351
L 540 351
L 541 351
L 542 351
L 543 351
L 544 351
L 545 351
L 546 350
L 547 351
L 548 351
L 549 351
L 550 351
L 551 351
L 552 351
L 553 351
L 554 351
L 555 351
L 556 351
L 557 351
L 558 350
L 559 351
L 560 350
L 561 351
L 562 351
L 563 351
L 564 351
L 565 350
L 566 351
L 567 351
L 568 351
L 569 351
L 570 351
L 571 351
L 572 351
L 573 351
L 574 351
L 575 351
L 576 351
L 577 351
L 578 351
L 579 351
L 580 351
L 581 351
L 582 351
L 583 351
L 584 350
L 585 351
L 586 350
L 587 351
L 588 351
L 589 351
L 590 350
L 591 350
L 592 351
L 593 351
L 594 351
L 595 351
L 596 351
L 597 351
L 598 351
L 599 350
L 600 351
L 601 351
L 602 351
L 603 351
L 604 351
L 605 351
L 606 351
L 607 351
L 608 350
L 609 351
L 610 351
L 611 351
L 612 351
L 613 351
L 614 350
L 615 351
L 616 351
L 617 351
L 618 351
L 619 351
L 620 351
L 621 350
L 622 351
L 623 351
L 624 350
L 625 351
L 626 350
L 627 351
L 628 351
L 629 351
L 630 351
L 631 351
L 632 351
L 633 351
L 634 351
L 635 351
L 636 351
L 637 351
L 638 351
L 639 351
L 640 350
L 641 351
L 642 350
L 643 350
L 644 351
L 645 351
L 646 351
L 647 350
L 648 351
L 649 351
L 650 351
L 651 350
L 652 351
L 653 350
L 654 351
L 654 351
L 655 350
L 656 350
L 657 351
L 658 350
L 659 350
L 660 350
L 661 351
L 662 351
L 663 350
L 664 350
L 665 350
L 666 350
L 667 350
L 668 351
L 669 350
L 670 350
L 671 350
L 672 350
L 673 350
L 674 351
L 675 350
L 676 350
L 677 351
L 678 350
L 679 350
L 680 350
L 681 350
L 682 350
L 683 350
L 684 351
L 685 351
L 686 350
L 687 350
L 688 350
L 689 350
L 690 350
L 691 351
L 692 350
L 693 351
L 694 350
L 695 350
L 696 351
L 697 350
L 698 350
L 699 351
L 700 350
L 701 350
L 702 351
L 703 351
L 704 351
L 705 351
L 706 351
L 707 351
L 708 351
L 709 350
L 710 351
L 711 351
L 712 351
L 713 351
L 714 351
L 715 351
L 716 351
L 717 351
L 718 351
L 719 351
L 720 351
L 721 351
L 722 351
L 723 351
L 724 351
L 725 351
L 726 351
L 727 351
L 728 351
L 729 351
L 730 351
L 731 351
L 732 351
L 733 350
L 734 351
L 735 350
L 736 351
L 737 351
L 738 351
L 739 351
L 740 351
L 741 351
L 742 351
L 743 350
L 744 351
L 745 351
L 746 350
L 747 351
L 748 350
L 749 351
L 750 351
L 751 351
L 752 351
L 753 350
L 754 351
L 755 351
L 756 351
L 757 351
L 758 351
L 759 351
L 760 350
L 761 350
L 762 351
L 763 351
L 764 351
L 765 351
L 766 351
L 767 350
L 768 351
L 769 351
L 770 350
L 771 351
L 772 351
L 773 350
L 774 351
L 775 350
L 776 351
L 777 351
L 778 350
L 779 351
L 780 351
L 781 351
L 782 350
L 783 350
L 784 350
L 785 351
L 786 350
L 787 350
L 788 351
L 789 350
L 790 350
L 791 351
L 792 351
L 793 351
L 794 350
L 795 351
L 796 350
L 797 351
L 798 351
L 799 350
L 800 351
L 801 351
L 802 351
L 803 350
L 804 350
L 805 350
L 806 350
L 807 350
L 808 351
L 809 351
L 810 350
L 811 351
L 812 351
L 813 351
L 814 351
L 815 350
L 816 351
L 817 351
L 818 351
L 819 351
L 820 351
L 821 351
L 822 351
L 823 351
L 824 351
L 825 351
L 826 351
L 827 351
L 828 351
L 829 351
L 830 351
L 831 351
L 832 350
L 833 350
L 834 351
L 835 351
L 836 351
L 837 351
L 838 350
L 839 350
L 840 351
L 841 351
L 842 351
L 843 351
L 844 351
L 845 350
L 846 351
L 847 351
L 848 351
L 849 351
L 850 351
L 851 351
L 852 351
L 853 351
L 854 350
L 855 351
L 856 351
L 857 351
L 858 351
L 859 351
L 860 351
L 861 351
L 862 351
L 863 351
L 864 351
L 865 351
L 866 351
L 867 351
L 868 351
L 869 351
L 870 351
L 871 351
L 872 351
L 873 351
L 874 351
L 875 351
L 876 351
L 877 351
L 878 351
L 879 351
L 880 351
L 881 351
L 882 351
L 883 350
L 884 351
L 885 351
L 886 351
L 887 351
L 888 351
L 889 351
L 890 351
L 891 350
L 892 351
L 893 351
L 894 351
L 895 351
L 896 351
L 897 351
L 898 351
L 899 351
L 900 351
L 901 351
L 902 351
L 903 351
L 904 351
L 905 351
L 906 351
L 907 351
L 908 351
L 909 351
L 910 351
L 911 350
L 912 350
L 913 351
L 914 351
L 915 351
L 916 350
L 917 350
L 918 351
L 919 350
L 920 350
L 921 350
L 922 350
L 923 351
L 924 351
L 925 351
L 926 351
L 927 351
L 928 351
L 929 351
L 930 351
L 931 351
L 932 351
L 933 350
L 934 351
L 935 351
L 936 351
L 937 351
L 938 350
L 939 351
L 940 351
L 941 351
L 942 351
L 943 351
L 944 351
L 945 351
L 946 351
L 947 351
L 948 351
L 949 351
L 950 351
L 951 351
L 952 351
L 953 351
L 954 351
L 955 351
L 956 351
L 957 351
L 958 350
L 959 351
L 960 351
L 961 351
L 961 351" style="stroke-width:1;stroke:rgba(217,0,116,1.0);fill:none"/><text x="418" y="33" style="stroke-width:0;stroke:none;fill:rgba(51,51,51,1.0);font-size:23.0px;font-family:'Roboto Medium',sans-serif">Baden 09.09.2022</text><path  d="M 38 11
L 251 11
L 251 91
L 38 91
L 38 11" style="stroke-width:1;stroke:rgba(51,51,51,1.0);fill:rgba(255,255,255,1.0)"/><text x="43" y="26" style="stroke-width:0;stroke:none;fill:rgba(51,51,51,1.0);font-size:10.2px;font-family:'Roboto Medium',sans-serif">Sieben Tage Durschnitt Inzidenz Fälle</text><path  d="M 221 21
L 241 21" style="stroke-width:1;stroke:rgba(0,116,217,1.0);fill:none"/><text x="43" y="56" style="stroke-width:0;stroke:none;fill:rgba(51,51,51,1.0);font-size:10.2px;font-family:'Roboto Medium',sans-serif">Anzahl Faelle</text><path  d="M 110 51
L 241 51" style="stroke-width:1;stroke:rgba(0,217,101,1.0);fill:none"/><text x="43" y="86" style="stroke-width:0;stroke:none;fill:rgba(51,51,51,1.0);font-size:10.2px;font-family:'Roboto Medium',sans-serif">Anzahl Tot</text><path  d="M 98 81
L 241 81" style="stroke-width:1;stroke:rgba(217,0,116,1.0);fill:none"/></svg>