<svg xmlns="http://www.w3.org/2000/svg" xmlns:xlink="http://www.w3.org/1999/xlink" width="1024" height="400">\n<path  d="M 0 0
L 1024 0
L 1024 400
L 0 400
L 0 0" style="stroke-width:0;stroke:rgba(255,255,255,1.0);fill:rgba(255,255,255,1.0)"/><path  d="M 38 11
L 969 11
L 969 351
L 38 351
L 38 11" style="stroke-width:0;stroke:rgba(255,255,255,1.0);fill:rgba(255,255,255,1.0)"/><path  d="M 38 351
L 969 351" style="stroke-width:1;stroke:rgba(51,51,51,1.0);fill:none"/><path  d="M 38 351
L 38 356" style="stroke-width:1;stroke:rgba(51,51,51,1.0);fill:none"/><text x="5" y="373" style="stroke-width:0;stroke:none;fill:rgba(51,51,51,1.0);font-size:12.8px;font-family:'Roboto Medium',sans-serif">2020-02-26</text><path  d="M 155 351
L 155 356" style="stroke-width:1;stroke:rgba(51,51,51,1.0);fill:none"/><text x="122" y="373" style="stroke-width:0;stroke:none;fill:rgba(51,51,51,1.0);font-size:12.8px;font-family:'Roboto Medium',sans-serif">2020-05-12</text><path  d="M 271 351
L 271 356" style="stroke-width:1;stroke:rgba(51,51,51,1.0);fill:none"/><text x="238" y="373" style="stroke-width:0;stroke:none;fill:rgba(51,51,51,1.0);font-size:12.8px;font-family:'Roboto Medium',sans-serif">2020-07-27</text><path  d="M 388 351
L 388 356" style="stroke-width:1;stroke:rgba(51,51,51,1.0);fill:none"/><text x="355" y="373" style="stroke-width:0;stroke:none;fill:rgba(51,51,51,1.0);font-size:12.8px;font-family:'Roboto Medium',sans-serif">2020-10-12</text><path  d="M 504 351
L 504 356" style="stroke-width:1;stroke:rgba(51,51,51,1.0);fill:none"/><text x="471" y="373" style="stroke-width:0;stroke:none;fill:rgba(51,51,51,1.0);font-size:12.8px;font-family:'Roboto Medium',sans-serif">2020-12-27</text><path  d="M 620 351
L 620 356" style="stroke-width:1;stroke:rgba(51,51,51,1.0);fill:none"/><text x="587" y="373" style="stroke-width:0;stroke:none;fill:rgba(51,51,51,1.0);font-size:12.8px;font-family:'Roboto Medium',sans-serif">2021-03-13</text><path  d="M 737 351
L 737 356" style="stroke-width:1;stroke:rgba(51,51,51,1.0);fill:none"/><text x="704" y="373" style="stroke-width:0;stroke:none;fill:rgba(51,51,51,1.0);font-size:12.8px;font-family:'Roboto Medium',sans-serif">2021-05-29</text><path  d="M 853 351
L 853 356" style="stroke-width:1;stroke:rgba(51,51,51,1.0);fill:none"/><text x="820" y="373" style="stroke-width:0;stroke:none;fill:rgba(51,51,51,1.0);font-size:12.8px;font-family:'Roboto Medium',sans-serif">2021-08-13</text><path  d="M 969 351
L 969 356" style="stroke-width:1;stroke:rgba(51,51,51,1.0);fill:none"/><text x="936" y="373" style="stroke-width:0;stroke:none;fill:rgba(51,51,51,1.0);font-size:12.8px;font-family:'Roboto Medium',sans-serif">2021-10-29</text><text x="485" y="395" style="stroke-width:0;stroke:none;fill:rgba(51,51,51,1.0);font-size:12.8px;font-family:'Roboto Medium',sans-serif">Datum</text><path  d="M 970 351
L 970 11" style="stroke-width:1;stroke:rgba(51,51,51,1.0);fill:none"/><path  d="M 970 351
L 975 351" style="stroke-width:1;stroke:rgba(51,51,51,1.0);fill:none"/><text x="980" y="357" style="stroke-width:0;stroke:none;fill:rgba(51,51,51,1.0);font-size:12.8px;font-family:'Roboto Medium',sans-serif">0.00</text><path  d="M 970 308
L 975 308" style="stroke-width:1;stroke:rgba(51,51,51,1.0);fill:none"/><text x="980" y="314" style="stroke-width:0;stroke:none;fill:rgba(51,51,51,1.0);font-size:12.8px;font-family:'Roboto Medium',sans-serif">105.00</text><path  d="M 970 266
L 975 266" style="stroke-width:1;stroke:rgba(51,51,51,1.0);fill:none"/><text x="980" y="272" style="stroke-width:0;stroke:none;fill:rgba(51,51,51,1.0);font-size:12.8px;font-family:'Roboto Medium',sans-serif">210.00</text><path  d="M 970 223
L 975 223" style="stroke-width:1;stroke:rgba(51,51,51,1.0);fill:none"/><text x="980" y="229" style="stroke-width:0;stroke:none;fill:rgba(51,51,51,1.0);font-size:12.8px;font-family:'Roboto Medium',sans-serif">315.00</text><path  d="M 970 181
L 975 181" style="stroke-width:1;stroke:rgba(51,51,51,1.0);fill:none"/><text x="980" y="187" style="stroke-width:0;stroke:none;fill:rgba(51,51,51,1.0);font-size:12.8px;font-family:'Roboto Medium',sans-serif">420.00</text><path  d="M 970 138
L 975 138" style="stroke-width:1;stroke:rgba(51,51,51,1.0);fill:none"/><text x="980" y="144" style="stroke-width:0;stroke:none;fill:rgba(51,51,51,1.0);font-size:12.8px;font-family:'Roboto Medium',sans-serif">525.00</text><path  d="M 970 96
L 975 96" style="stroke-width:1;stroke:rgba(51,51,51,1.0);fill:none"/><text x="980" y="102" style="stroke-width:0;stroke:none;fill:rgba(51,51,51,1.0);font-size:12.8px;font-family:'Roboto Medium',sans-serif">630.00</text><path  d="M 970 53
L 975 53" style="stroke-width:1;stroke:rgba(51,51,51,1.0);fill:none"/><text x="980" y="59" style="stroke-width:0;stroke:none;fill:rgba(51,51,51,1.0);font-size:12.8px;font-family:'Roboto Medium',sans-serif">735.00</text><path  d="M 970 11
L 975 11" style="stroke-width:1;stroke:rgba(51,51,51,1.0);fill:none"/><text x="980" y="17" style="stroke-width:0;stroke:none;fill:rgba(51,51,51,1.0);font-size:12.8px;font-family:'Roboto Medium',sans-serif">840.00</text><path  d="M 38 351
L 40 351
L 42 351
L 43 351
L 45 351
L 46 351
L 48 351
L 49 351
L 51 351
L 52 351
L 54 351
L 55 351
L 57 351
L 58 351
L 60 351
L 61 351
L 63 350
L 64 350
L 66 350
L 67 350
L 69 349
L 70 349
L 72 348
L 74 347
L 75 346
L 77 346
L 78 346
L 80 345
L 81 344
L 83 340
L 84 340
L 86 339
L 87 338
L 89 338
L 90 337
L 92 334
L 93 335
L 95 333
L 96 331
L 98 332
L 99 332
L 101 334
L 102 335
L 104 337
L 106 339
L 107 343
L 109 343
L 110 343
L 112 343
L 113 344
L 115 345
L 116 345
L 118 345
L 119 346
L 121 346
L 122 347
L 124 349
L 125 349
L 127 349
L 128 349
L 130 349
L 131 349
L 133 349
L 134 350
L 136 351
L 138 351
L 139 351
L 141 351
L 142 351
L 144 351
L 145 351
L 147 351
L 148 351
L 150 351
L 151 351
L 153 351
L 154 351
L 156 351
L 157 351
L 159 351
L 160 351
L 162 351
L 163 351
L 165 351
L 166 351
L 168 351
L 170 351
L 171 351
L 173 351
L 174 351
L 176 351
L 177 351
L 179 351
L 180 351
L 182 351
L 183 351
L 185 350
L 186 350
L 188 349
L 189 349
L 191 349
L 192 349
L 194 349
L 195 349
L 197 349
L 198 350
L 200 350
L 202 351
L 203 351
L 205 351
L 206 351
L 208 351
L 209 351
L 211 351
L 212 351
L 214 351
L 215 351
L 217 351
L 218 351
L 220 351
L 221 351
L 223 351
L 224 351
L 226 351
L 227 350
L 229 350
L 230 347
L 232 347
L 234 347
L 235 347
L 237 347
L 238 347
L 240 347
L 241 349
L 243 349
L 244 350
L 246 349
L 247 349
L 249 349
L 250 349
L 252 349
L 253 349
L 255 349
L 256 350
L 258 350
L 259 348
L 261 348
L 262 347
L 264 346
L 266 346
L 267 346
L 269 345
L 270 347
L 272 347
L 273 347
L 275 349
L 276 349
L 278 349
L 279 349
L 281 349
L 282 348
L 284 348
L 285 348
L 287 348
L 288 348
L 290 348
L 291 349
L 293 349
L 294 349
L 296 348
L 298 347
L 299 347
L 301 346
L 302 344
L 304 343
L 305 342
L 307 342
L 308 342
L 310 343
L 311 343
L 313 345
L 314 344
L 316 343
L 317 342
L 319 343
L 320 342
L 322 341
L 323 343
L 325 344
L 326 346
L 328 347
L 330 346
L 331 346
L 333 347
L 334 347
L 336 346
L 337 346
L 339 345
L 340 345
L 342 343
L 343 343
L 345 342
L 346 339
L 348 338
L 349 339
L 351 337
L 352 338
L 354 338
L 355 338
L 357 341
L 358 341
L 360 340
L 362 342
L 363 341
L 365 341
L 366 339
L 368 338
L 369 335
L 371 336
L 372 337
L 374 338
L 375 339
L 377 341
L 378 339
L 380 339
L 381 338
L 383 336
L 384 333
L 386 330
L 387 323
L 389 324
L 390 327
L 392 325
L 394 324
L 395 324
L 397 327
L 398 329
L 400 327
L 401 319
L 403 313
L 404 310
L 406 307
L 407 303
L 409 298
L 410 284
L 412 276
L 413 265
L 415 260
L 416 246
L 418 229
L 419 218
L 421 195
L 422 181
L 424 178
L 426 151
L 427 146
L 429 126
L 430 118
L 432 152
L 433 129
L 435 103
L 436 121
L 438 131
L 439 134
L 441 141
L 442 124
L 444 128
L 445 135
L 447 119
L 448 96
L 450 119
L 451 119
L 453 123
L 454 131
L 456 131
L 458 138
L 459 151
L 461 157
L 462 160
L 464 146
L 465 173
L 467 185
L 468 186
L 470 198
L 471 200
L 473 205
L 474 222
L 476 221
L 477 229
L 479 240
L 480 232
L 482 228
L 483 232
L 485 232
L 486 228
L 488 240
L 490 251
L 491 265
L 493 271
L 494 275
L 496 287
L 497 291
L 499 283
L 500 284
L 502 282
L 503 284
L 505 280
L 506 275
L 508 279
L 509 294
L 511 298
L 512 292
L 514 288
L 515 279
L 517 279
L 518 281
L 520 276
L 522 259
L 523 260
L 525 266
L 526 275
L 528 272
L 529 273
L 531 268
L 532 282
L 534 289
L 535 288
L 537 293
L 538 294
L 540 294
L 541 301
L 543 297
L 544 298
L 546 294
L 547 292
L 549 298
L 550 294
L 552 293
L 554 296
L 555 294
L 557 290
L 558 292
L 560 292
L 561 297
L 563 289
L 564 286
L 566 281
L 567 286
L 569 288
L 570 283
L 572 268
L 573 281
L 575 274
L 576 285
L 578 280
L 579 274
L 581 277
L 582 284
L 584 281
L 586 278
L 587 270
L 589 272
L 590 266
L 592 271
L 593 268
L 595 260
L 596 259
L 598 252
L 599 249
L 601 251
L 602 230
L 604 230
L 605 220
L 607 227
L 608 229
L 610 227
L 611 225
L 613 232
L 614 232
L 616 238
L 618 243
L 619 242
L 621 243
L 622 251
L 624 247
L 625 246
L 627 242
L 628 232
L 630 229
L 631 227
L 633 219
L 634 225
L 636 214
L 637 216
L 639 211
L 640 208
L 642 198
L 643 196
L 645 187
L 646 187
L 648 190
L 650 194
L 651 201
L 653 201
L 654 203
L 656 210
L 657 220
L 659 220
L 660 224
L 662 218
L 663 234
L 665 239
L 666 237
L 668 235
L 669 241
L 671 240
L 672 249
L 674 246
L 675 246
L 677 243
L 678 250
L 680 242
L 682 243
L 683 241
L 685 238
L 686 241
L 688 254
L 689 252
L 691 261
L 692 266
L 694 266
L 695 276
L 697 277
L 698 278
L 700 285
L 701 286
L 703 293
L 704 303
L 706 304
L 707 307
L 709 307
L 710 312
L 712 317
L 714 317
L 715 317
L 717 318
L 718 322
L 720 328
L 721 330
L 723 330
L 724 330
L 726 333
L 727 333
L 729 333
L 730 334
L 732 335
L 733 333
L 735 335
L 736 335
L 738 336
L 739 334
L 741 326
L 742 324
L 744 323
L 746 322
L 747 321
L 749 318
L 750 318
L 752 324
L 753 323
L 755 326
L 756 325
L 758 327
L 759 331
L 761 333
L 762 337
L 764 340
L 765 342
L 767 344
L 768 345
L 770 345
L 771 344
L 773 344
L 774 344
L 776 343
L 778 343
L 779 343
L 781 343
L 782 343
L 784 343
L 785 343
L 787 344
L 788 346
L 790 347
L 791 347
L 793 347
L 794 347
L 796 347
L 797 347
L 799 346
L 800 346
L 802 345
L 803 345
L 805 346
L 806 346
L 808 346
L 810 346
L 811 346
L 813 344
L 814 344
L 816 344
L 817 344
L 819 344
L 820 344
L 822 344
L 823 346
L 825 344
L 826 344
L 828 343
L 829 340
L 831 338
L 832 338
L 834 335
L 835 335
L 837 335
L 838 333
L 840 334
L 842 333
L 843 334
L 845 336
L 846 336
L 848 332
L 849 330
L 851 328
L 852 329
L 854 325
L 855 324
L 857 320
L 858 318
L 860 318
L 861 317
L 863 311
L 864 312
L 866 306
L 867 307
L 869 303
L 870 301
L 872 301
L 874 298
L 875 292
L 877 292
L 878 285
L 880 284
L 881 287
L 883 267
L 884 259
L 886 251
L 887 241
L 889 241
L 890 232
L 892 217
L 893 227
L 895 230
L 896 230
L 898 229
L 899 221
L 901 215
L 902 214
L 904 206
L 906 204
L 907 198
L 909 203
L 910 206
L 912 214
L 913 216
L 915 224
L 916 228
L 918 228
L 919 225
L 921 230
L 922 227
L 924 222
L 925 223
L 927 222
L 928 235
L 930 241
L 931 223
L 933 213
L 934 221
L 936 224
L 938 215
L 939 209
L 941 200
L 942 212
L 944 204
L 945 198
L 947 188
L 948 181
L 950 174
L 951 170
L 953 161
L 954 155
L 956 143
L 957 141
L 959 135
L 960 125
L 962 118
L 963 102
L 965 95
L 966 77
L 968 28
L 969 12" style="stroke-width:1;stroke:rgba(0,116,217,1.0);fill:none"/><path  d="M 38 351
L 40 351
L 42 351
L 43 351
L 45 351
L 46 351
L 48 351
L 49 351
L 51 351
L 52 351
L 54 351
L 55 351
L 57 351
L 58 351
L 60 351
L 61 351
L 63 350
L 64 351
L 66 351
L 67 351
L 69 349
L 70 350
L 72 350
L 74 349
L 75 350
L 77 350
L 78 351
L 80 348
L 81 349
L 83 346
L 84 349
L 86 348
L 87 349
L 89 351
L 90 347
L 92 346
L 93 347
L 95 347
L 96 346
L 98 350
L 99 351
L 101 349
L 102 347
L 104 349
L 106 350
L 107 351
L 109 350
L 110 350
L 112 350
L 113 348
L 115 350
L 116 350
L 118 350
L 119 351
L 121 351
L 122 351
L 124 350
L 125 350
L 127 351
L 128 351
L 130 351
L 131 351
L 133 351
L 134 351
L 136 351
L 138 351
L 139 351
L 141 351
L 142 351
L 144 351
L 145 351
L 147 351
L 148 351
L 150 351
L 151 351
L 153 351
L 154 351
L 156 351
L 157 351
L 159 351
L 160 351
L 162 351
L 163 351
L 165 351
L 166 351
L 168 351
L 170 351
L 171 351
L 173 351
L 174 351
L 176 351
L 177 351
L 179 351
L 180 351
L 182 351
L 183 351
L 185 350
L 186 351
L 188 350
L 189 351
L 191 350
L 192 351
L 194 351
L 195 351
L 197 351
L 198 351
L 200 351
L 202 351
L 203 351
L 205 351
L 206 351
L 208 351
L 209 351
L 211 351
L 212 351
L 214 351
L 215 351
L 217 351
L 218 351
L 220 351
L 221 351
L 223 351
L 224 351
L 226 351
L 227 350
L 229 350
L 230 348
L 232 351
L 234 350
L 235 351
L 237 351
L 238 351
L 240 351
L 241 350
L 243 351
L 244 351
L 246 349
L 247 351
L 249 351
L 250 351
L 252 351
L 253 351
L 255 350
L 256 351
L 258 351
L 259 348
L 261 350
L 262 350
L 264 349
L 266 349
L 267 351
L 269 350
L 270 350
L 272 351
L 273 351
L 275 351
L 276 350
L 278 350
L 279 351
L 281 349
L 282 350
L 284 350
L 285 351
L 287 350
L 288 351
L 290 350
L 291 350
L 293 350
L 294 351
L 296 350
L 298 349
L 299 350
L 301 349
L 302 348
L 304 349
L 305 349
L 307 350
L 308 349
L 310 351
L 311 350
L 313 349
L 314 348
L 316 348
L 317 349
L 319 350
L 320 350
L 322 349
L 323 351
L 325 350
L 326 351
L 328 349
L 330 349
L 331 351
L 333 351
L 334 350
L 336 349
L 337 350
L 339 348
L 340 348
L 342 349
L 343 351
L 345 348
L 346 346
L 348 349
L 349 349
L 351 346
L 352 350
L 354 350
L 355 348
L 357 350
L 358 348
L 360 348
L 362 348
L 363 349
L 365 350
L 366 347
L 368 349
L 369 345
L 371 350
L 372 349
L 374 350
L 375 351
L 377 349
L 378 347
L 380 346
L 381 348
L 383 347
L 384 348
L 386 347
L 387 342
L 389 348
L 390 349
L 392 347
L 394 345
L 395 348
L 397 349
L 398 344
L 400 345
L 401 341
L 403 341
L 404 342
L 406 344
L 407 345
L 409 339
L 410 331
L 412 332
L 413 329
L 415 337
L 416 329
L 418 327
L 419 327
L 421 306
L 422 318
L 424 325
L 426 308
L 427 325
L 429 305
L 430 319
L 432 342
L 433 294
L 435 297
L 436 326
L 438 336
L 439 308
L 441 326
L 442 324
L 444 298
L 445 306
L 447 308
L 448 312
L 450 334
L 451 326
L 453 328
L 454 307
L 456 306
L 458 316
L 459 325
L 461 339
L 462 330
L 464 312
L 465 336
L 467 319
L 468 317
L 470 338
L 471 341
L 473 336
L 474 330
L 476 334
L 477 327
L 479 329
L 480 329
L 482 338
L 483 339
L 485 330
L 486 330
L 488 340
L 490 341
L 491 344
L 493 345
L 494 343
L 496 343
L 497 334
L 499 331
L 500 343
L 502 342
L 503 346
L 505 339
L 506 338
L 508 338
L 509 347
L 511 347
L 512 336
L 514 342
L 515 329
L 517 338
L 518 341
L 520 342
L 522 329
L 523 336
L 525 349
L 526 338
L 528 334
L 529 343
L 531 336
L 532 344
L 534 343
L 535 348
L 537 343
L 538 336
L 540 343
L 541 344
L 543 339
L 544 344
L 546 344
L 547 342
L 549 341
L 550 339
L 552 343
L 554 342
L 555 343
L 557 340
L 558 344
L 560 341
L 561 344
L 563 334
L 564 339
L 566 338
L 567 344
L 569 347
L 570 336
L 572 328
L 573 348
L 575 332
L 576 348
L 578 339
L 579 341
L 581 338
L 582 336
L 584 344
L 586 329
L 587 340
L 589 341
L 590 335
L 592 344
L 593 332
L 595 336
L 596 328
L 598 333
L 599 338
L 601 336
L 602 322
L 604 333
L 605 325
L 607 336
L 608 335
L 610 335
L 611 334
L 613 329
L 614 333
L 616 332
L 618 340
L 619 334
L 621 336
L 622 342
L 624 326
L 625 331
L 627 327
L 628 329
L 630 331
L 631 335
L 633 333
L 634 333
L 636 321
L 637 328
L 639 325
L 640 328
L 642 323
L 643 331
L 645 323
L 646 321
L 648 332
L 650 329
L 651 335
L 653 323
L 654 334
L 656 330
L 657 331
L 659 332
L 660 334
L 662 328
L 663 341
L 665 338
L 666 328
L 668 328
L 669 339
L 671 333
L 672 338
L 674 338
L 675 338
L 677 325
L 678 336
L 680 330
L 682 335
L 683 335
L 685 336
L 686 341
L 688 339
L 689 334
L 691 340
L 692 340
L 694 335
L 695 346
L 697 342
L 698 340
L 700 341
L 701 342
L 703 346
L 704 346
L 706 346
L 707 345
L 709 340
L 710 346
L 712 348
L 714 346
L 715 346
L 717 348
L 718 349
L 720 346
L 721 349
L 723 347
L 724 346
L 726 349
L 727 348
L 729 348
L 730 348
L 732 350
L 733 345
L 735 348
L 736 348
L 738 349
L 739 346
L 741 340
L 742 347
L 744 344
L 746 347
L 747 348
L 749 346
L 750 346
L 752 346
L 753 346
L 755 348
L 756 347
L 758 349
L 759 350
L 761 349
L 762 350
L 764 350
L 765 350
L 767 348
L 768 350
L 770 351
L 771 348
L 773 349
L 774 350
L 776 349
L 778 348
L 779 350
L 781 351
L 782 349
L 784 349
L 785 350
L 787 350
L 788 351
L 790 351
L 791 351
L 793 350
L 794 349
L 796 350
L 797 350
L 799 349
L 800 350
L 802 350
L 803 350
L 805 350
L 806 350
L 808 351
L 810 350
L 811 349
L 813 348
L 814 350
L 816 350
L 817 349
L 819 351
L 820 350
L 822 349
L 823 351
L 825 348
L 826 349
L 828 348
L 829 348
L 831 348
L 832 348
L 834 348
L 835 348
L 837 349
L 838 347
L 840 348
L 842 347
L 843 350
L 845 350
L 846 348
L 848 344
L 849 345
L 851 345
L 852 348
L 854 345
L 855 349
L 857 344
L 858 342
L 860 345
L 861 344
L 863 342
L 864 347
L 866 342
L 867 345
L 869 338
L 870 343
L 872 344
L 874 338
L 875 341
L 877 342
L 878 338
L 880 337
L 881 346
L 883 322
L 884 330
L 886 333
L 887 331
L 889 338
L 890 328
L 892 331
L 893 332
L 895 333
L 896 333
L 898 330
L 899 328
L 901 322
L 902 330
L 904 324
L 906 330
L 907 327
L 909 335
L 910 332
L 912 330
L 913 332
L 915 332
L 916 335
L 918 327
L 919 331
L 921 337
L 922 328
L 924 326
L 925 334
L 927 334
L 928 340
L 930 338
L 931 317
L 933 317
L 934 335
L 936 337
L 938 324
L 939 335
L 941 328
L 942 330
L 944 309
L 945 328
L 947 327
L 948 316
L 950 327
L 951 324
L 953 321
L 954 302
L 956 315
L 957 325
L 959 310
L 960 317
L 962 317
L 963 304
L 965 295
L 966 296
L 968 273
L 969 292" style="stroke-width:1;stroke:rgba(0,217,101,1.0);fill:none"/><path  d="M 38 351
L 40 351
L 42 351
L 43 351
L 45 351
L 46 351
L 48 351
L 49 351
L 51 351
L 52 351
L 54 351
L 55 351
L 57 351
L 58 351
L 60 351
L 61 351
L 63 351
L 64 351
L 66 351
L 67 351
L 69 351
L 70 351
L 72 351
L 74 351
L 75 351
L 77 351
L 78 351
L 80 351
L 81 351
L 83 351
L 84 350
L 86 351
L 87 351
L 89 350
L 90 351
L 92 351
L 93 351
L 95 351
L 96 351
L 98 351
L 99 351
L 101 351
L 102 351
L 104 351
L 106 351
L 107 351
L 109 351
L 110 351
L 112 351
L 113 351
L 115 351
L 116 351
L 118 351
L 119 351
L 121 351
L 122 351
L 124 350
L 125 351
L 127 351
L 128 351
L 130 351
L 131 351
L 133 351
L 134 351
L 136 351
L 138 351
L 139 351
L 141 351
L 142 351
L 144 351
L 145 351
L 147 351
L 148 351
L 150 351
L 151 351
L 153 351
L 154 351
L 156 351
L 157 351
L 159 351
L 160 351
L 162 351
L 163 351
L 165 351
L 166 351
L 168 351
L 170 351
L 171 351
L 173 351
L 174 351
L 176 351
L 177 351
L 179 351
L 180 351
L 182 351
L 183 351
L 185 351
L 186 351
L 188 351
L 189 351
L 191 351
L 192 351
L 194 351
L 195 351
L 197 351
L 198 351
L 200 351
L 202 351
L 203 351
L 205 351
L 206 351
L 208 351
L 209 351
L 211 351
L 212 351
L 214 351
L 215 351
L 217 351
L 218 351
L 220 351
L 221 351
L 223 351
L 224 351
L 226 351
L 227 351
L 229 351
L 230 351
L 232 351
L 234 351
L 235 351
L 237 351
L 238 351
L 240 351
L 241 351
L 243 351
L 244 351
L 246 351
L 247 351
L 249 351
L 250 351
L 252 351
L 253 351
L 255 351
L 256 351
L 258 351
L 259 351
L 261 351
L 262 351
L 264 351
L 266 351
L 267 351
L 269 351
L 270 351
L 272 351
L 273 351
L 275 351
L 276 351
L 278 351
L 279 351
L 281 351
L 282 351
L 284 351
L 285 351
L 287 351
L 288 351
L 290 351
L 291 351
L 293 351
L 294 351
L 296 351
L 298 351
L 299 351
L 301 351
L 302 351
L 304 351
L 305 351
L 307 351
L 308 351
L 310 351
L 311 351
L 313 351
L 314 351
L 316 351
L 317 351
L 319 351
L 320 351
L 322 351
L 323 351
L 325 351
L 326 351
L 328 351
L 330 351
L 331 351
L 333 351
L 334 351
L 336 351
L 337 351
L 339 351
L 340 351
L 342 351
L 343 351
L 345 351
L 346 351
L 348 351
L 349 351
L 351 351
L 352 351
L 354 351
L 355 350
L 357 350
L 358 351
L 360 351
L 362 351
L 363 351
L 365 351
L 366 351
L 368 351
L 369 351
L 371 351
L 372 351
L 374 351
L 375 351
L 377 351
L 378 351
L 380 351
L 381 351
L 383 351
L 384 351
L 386 351
L 387 351
L 389 351
L 390 350
L 392 351
L 394 351
L 395 351
L 397 351
L 398 350
L 400 351
L 401 351
L 403 351
L 404 351
L 406 351
L 407 351
L 409 351
L 410 351
L 412 351
L 413 351
L 415 351
L 416 351
L 418 350
L 419 351
L 421 350
L 422 350
L 424 351
L 426 351
L 427 350
L 429 351
L 430 350
L 432 351
L 433 350
L 435 351
L 436 351
L 438 350
L 439 351
L 441 351
L 442 350
L 444 350
L 445 350
L 447 350
L 448 350
L 450 351
L 451 350
L 453 350
L 454 351
L 456 350
L 458 351
L 459 350
L 461 351
L 462 351
L 464 350
L 465 351
L 467 349
L 468 351
L 470 351
L 471 351
L 473 349
L 474 351
L 476 350
L 477 350
L 479 350
L 480 349
L 482 351
L 483 351
L 485 351
L 486 351
L 488 350
L 490 351
L 491 350
L 493 351
L 494 351
L 496 350
L 497 351
L 499 351
L 500 351
L 502 351
L 503 351
L 505 350
L 506 349
L 508 351
L 509 350
L 511 351
L 512 350
L 514 350
L 515 350
L 517 350
L 518 350
L 520 350
L 522 351
L 523 350
L 525 350
L 526 351
L 528 351
L 529 351
L 531 351
L 532 351
L 534 351
L 535 351
L 537 351
L 538 351
L 540 351
L 541 351
L 543 351
L 544 351
L 546 350
L 547 351
L 549 351
L 550 350
L 552 351
L 554 351
L 555 351
L 557 351
L 558 350
L 560 350
L 561 351
L 563 351
L 564 351
L 566 350
L 567 351
L 569 351
L 570 351
L 572 350
L 573 351
L 575 351
L 576 351
L 578 351
L 579 351
L 581 350
L 582 351
L 584 350
L 586 351
L 587 351
L 589 351
L 590 351
L 592 351
L 593 351
L 595 351
L 596 351
L 598 351
L 599 351
L 601 351
L 602 351
L 604 351
L 605 351
L 607 351
L 608 351
L 610 351
L 611 351
L 613 350
L 614 350
L 616 351
L 618 351
L 619 351
L 621 350
L 622 351
L 624 351
L 625 350
L 627 350
L 628 350
L 630 350
L 631 351
L 633 350
L 634 351
L 636 351
L 637 350
L 639 351
L 640 350
L 642 350
L 643 350
L 645 349
L 646 351
L 648 350
L 650 350
L 651 350
L 653 349
L 654 351
L 656 350
L 657 350
L 659 350
L 660 351
L 662 350
L 663 351
L 665 350
L 666 350
L 668 349
L 669 350
L 671 351
L 672 351
L 674 351
L 675 350
L 677 351
L 678 351
L 680 351
L 682 351
L 683 351
L 685 351
L 686 351
L 688 351
L 689 350
L 691 351
L 692 351
L 694 351
L 695 350
L 697 351
L 698 351
L 700 351
L 701 351
L 703 350
L 704 351
L 706 350
L 707 350
L 709 351
L 710 351
L 712 351
L 714 351
L 715 351
L 717 351
L 718 351
L 720 351
L 721 351
L 723 351
L 724 351
L 726 351
L 727 351
L 729 351
L 730 351
L 732 351
L 733 351
L 735 351
L 736 351
L 738 351
L 739 351
L 741 351
L 742 351
L 744 351
L 746 351
L 747 351
L 749 351
L 750 351
L 752 351
L 753 351
L 755 351
L 756 351
L 758 351
L 759 351
L 761 351
L 762 351
L 764 351
L 765 351
L 767 351
L 768 351
L 770 350
L 771 351
L 773 351
L 774 351
L 776 351
L 778 351
L 779 351
L 781 351
L 782 351
L 784 351
L 785 351
L 787 351
L 788 351
L 790 351
L 791 351
L 793 351
L 794 351
L 796 351
L 797 351
L 799 351
L 800 351
L 802 351
L 803 351
L 805 351
L 806 351
L 808 351
L 810 351
L 811 351
L 813 351
L 814 351
L 816 351
L 817 351
L 819 351
L 820 351
L 822 351
L 823 351
L 825 351
L 826 351
L 828 351
L 829 351
L 831 351
L 832 351
L 834 351
L 835 351
L 837 351
L 838 351
L 840 351
L 842 351
L 843 351
L 845 351
L 846 351
L 848 351
L 849 351
L 851 351
L 852 351
L 854 351
L 855 351
L 857 351
L 858 351
L 860 351
L 861 351
L 863 351
L 864 351
L 866 351
L 867 351
L 869 351
L 870 351
L 872 351
L 874 351
L 875 351
L 877 351
L 878 351
L 880 351
L 881 351
L 883 351
L 884 351
L 886 351
L 887 351
L 889 351
L 890 351
L 892 351
L 893 351
L 895 350
L 896 351
L 898 351
L 899 351
L 901 351
L 902 351
L 904 351
L 906 351
L 907 351
L 909 350
L 910 351
L 912 350
L 913 351
L 915 351
L 916 351
L 918 351
L 919 351
L 921 351
L 922 351
L 924 351
L 925 351
L 927 350
L 928 351
L 930 350
L 931 351
L 933 351
L 934 351
L 936 351
L 938 350
L 939 351
L 941 351
L 942 351
L 944 351
L 945 351
L 947 351
L 948 351
L 950 351
L 951 351
L 953 351
L 954 350
L 956 351
L 957 351
L 959 351
L 960 350
L 962 350
L 963 351
L 965 351
L 966 351
L 968 351
L 969 351" style="stroke-width:1;stroke:rgba(217,0,116,1.0);fill:none"/><text x="369" y="33" style="stroke-width:0;stroke:none;fill:rgba(51,51,51,1.0);font-size:23.0px;font-family:'Roboto Medium',sans-serif">Braunau am Inn 29.10.2021</text><path  d="M 38 11
L 251 11
L 251 91
L 38 91
L 38 11" style="stroke-width:1;stroke:rgba(51,51,51,1.0);fill:rgba(255,255,255,1.0)"/><text x="43" y="26" style="stroke-width:0;stroke:none;fill:rgba(51,51,51,1.0);font-size:10.2px;font-family:'Roboto Medium',sans-serif">Sieben Tage Durschnitt Inzidenz Fälle</text><path  d="M 221 21
L 241 21" style="stroke-width:1;stroke:rgba(0,116,217,1.0);fill:none"/><text x="43" y="56" style="stroke-width:0;stroke:none;fill:rgba(51,51,51,1.0);font-size:10.2px;font-family:'Roboto Medium',sans-serif">Anzahl Faelle</text><path  d="M 110 51
L 241 51" style="stroke-width:1;stroke:rgba(0,217,101,1.0);fill:none"/><text x="43" y="86" style="stroke-width:0;stroke:none;fill:rgba(51,51,51,1.0);font-size:10.2px;font-family:'Roboto Medium',sans-serif">Anzahl Tot</text><path  d="M 98 81
L 241 81" style="stroke-width:1;stroke:rgba(217,0,116,1.0);fill:none"/></svg>