<svg xmlns="http://www.w3.org/2000/svg" xmlns:xlink="http://www.w3.org/1999/xlink" width="1024" height="400">\n<path  d="M 0 0
L 1024 0
L 1024 400
L 0 400
L 0 0" style="stroke-width:0;stroke:rgba(255,255,255,1.0);fill:rgba(255,255,255,1.0)"/><path  d="M 38 11
L 961 11
L 961 351
L 38 351
L 38 11" style="stroke-width:0;stroke:rgba(255,255,255,1.0);fill:rgba(255,255,255,1.0)"/><path  d="M 38 351
L 961 351" style="stroke-width:1;stroke:rgba(51,51,51,1.0);fill:none"/><path  d="M 38 351
L 38 356" style="stroke-width:1;stroke:rgba(51,51,51,1.0);fill:none"/><text x="5" y="373" style="stroke-width:0;stroke:none;fill:rgba(51,51,51,1.0);font-size:12.8px;font-family:'Roboto Medium',sans-serif">2020-02-26</text><path  d="M 154 351
L 154 356" style="stroke-width:1;stroke:rgba(51,51,51,1.0);fill:none"/><text x="121" y="373" style="stroke-width:0;stroke:none;fill:rgba(51,51,51,1.0);font-size:12.8px;font-family:'Roboto Medium',sans-serif">2020-06-03</text><path  d="M 269 351
L 269 356" style="stroke-width:1;stroke:rgba(51,51,51,1.0);fill:none"/><text x="236" y="373" style="stroke-width:0;stroke:none;fill:rgba(51,51,51,1.0);font-size:12.8px;font-family:'Roboto Medium',sans-serif">2020-09-10</text><path  d="M 385 351
L 385 356" style="stroke-width:1;stroke:rgba(51,51,51,1.0);fill:none"/><text x="352" y="373" style="stroke-width:0;stroke:none;fill:rgba(51,51,51,1.0);font-size:12.8px;font-family:'Roboto Medium',sans-serif">2020-12-18</text><path  d="M 500 351
L 500 356" style="stroke-width:1;stroke:rgba(51,51,51,1.0);fill:none"/><text x="467" y="373" style="stroke-width:0;stroke:none;fill:rgba(51,51,51,1.0);font-size:12.8px;font-family:'Roboto Medium',sans-serif">2021-03-27</text><path  d="M 615 351
L 615 356" style="stroke-width:1;stroke:rgba(51,51,51,1.0);fill:none"/><text x="582" y="373" style="stroke-width:0;stroke:none;fill:rgba(51,51,51,1.0);font-size:12.8px;font-family:'Roboto Medium',sans-serif">2021-07-04</text><path  d="M 731 351
L 731 356" style="stroke-width:1;stroke:rgba(51,51,51,1.0);fill:none"/><text x="698" y="373" style="stroke-width:0;stroke:none;fill:rgba(51,51,51,1.0);font-size:12.8px;font-family:'Roboto Medium',sans-serif">2021-10-11</text><path  d="M 846 351
L 846 356" style="stroke-width:1;stroke:rgba(51,51,51,1.0);fill:none"/><text x="813" y="373" style="stroke-width:0;stroke:none;fill:rgba(51,51,51,1.0);font-size:12.8px;font-family:'Roboto Medium',sans-serif">2022-01-18</text><path  d="M 961 351
L 961 356" style="stroke-width:1;stroke:rgba(51,51,51,1.0);fill:none"/><text x="928" y="373" style="stroke-width:0;stroke:none;fill:rgba(51,51,51,1.0);font-size:12.8px;font-family:'Roboto Medium',sans-serif">2022-04-27</text><text x="481" y="395" style="stroke-width:0;stroke:none;fill:rgba(51,51,51,1.0);font-size:12.8px;font-family:'Roboto Medium',sans-serif">Datum</text><path  d="M 962 351
L 962 11" style="stroke-width:1;stroke:rgba(51,51,51,1.0);fill:none"/><path  d="M 962 351
L 967 351" style="stroke-width:1;stroke:rgba(51,51,51,1.0);fill:none"/><text x="972" y="357" style="stroke-width:0;stroke:none;fill:rgba(51,51,51,1.0);font-size:12.8px;font-family:'Roboto Medium',sans-serif">0.00</text><path  d="M 962 307
L 967 307" style="stroke-width:1;stroke:rgba(51,51,51,1.0);fill:none"/><text x="972" y="313" style="stroke-width:0;stroke:none;fill:rgba(51,51,51,1.0);font-size:12.8px;font-family:'Roboto Medium',sans-serif">520.00</text><path  d="M 962 265
L 967 265" style="stroke-width:1;stroke:rgba(51,51,51,1.0);fill:none"/><text x="972" y="271" style="stroke-width:0;stroke:none;fill:rgba(51,51,51,1.0);font-size:12.8px;font-family:'Roboto Medium',sans-serif">1030.00</text><path  d="M 962 223
L 967 223" style="stroke-width:1;stroke:rgba(51,51,51,1.0);fill:none"/><text x="972" y="229" style="stroke-width:0;stroke:none;fill:rgba(51,51,51,1.0);font-size:12.8px;font-family:'Roboto Medium',sans-serif">1540.00</text><path  d="M 962 181
L 967 181" style="stroke-width:1;stroke:rgba(51,51,51,1.0);fill:none"/><text x="972" y="187" style="stroke-width:0;stroke:none;fill:rgba(51,51,51,1.0);font-size:12.8px;font-family:'Roboto Medium',sans-serif">2050.00</text><path  d="M 962 137
L 967 137" style="stroke-width:1;stroke:rgba(51,51,51,1.0);fill:none"/><text x="972" y="143" style="stroke-width:0;stroke:none;fill:rgba(51,51,51,1.0);font-size:12.8px;font-family:'Roboto Medium',sans-serif">2570.00</text><path  d="M 962 95
L 967 95" style="stroke-width:1;stroke:rgba(51,51,51,1.0);fill:none"/><text x="972" y="101" style="stroke-width:0;stroke:none;fill:rgba(51,51,51,1.0);font-size:12.8px;font-family:'Roboto Medium',sans-serif">3080.00</text><path  d="M 962 53
L 967 53" style="stroke-width:1;stroke:rgba(51,51,51,1.0);fill:none"/><text x="972" y="59" style="stroke-width:0;stroke:none;fill:rgba(51,51,51,1.0);font-size:12.8px;font-family:'Roboto Medium',sans-serif">3590.00</text><path  d="M 962 11
L 967 11" style="stroke-width:1;stroke:rgba(51,51,51,1.0);fill:none"/><text x="972" y="17" style="stroke-width:0;stroke:none;fill:rgba(51,51,51,1.0);font-size:12.8px;font-family:'Roboto Medium',sans-serif">4100.00</text><path  d="M 38 351
L 40 351
L 41 351
L 42 351
L 43 351
L 44 351
L 46 351
L 47 351
L 48 351
L 49 351
L 50 351
L 51 351
L 53 351
L 54 351
L 55 351
L 56 351
L 57 350
L 58 350
L 60 350
L 61 350
L 62 350
L 63 350
L 64 350
L 65 350
L 67 350
L 68 349
L 69 349
L 70 349
L 71 349
L 72 348
L 74 348
L 75 348
L 76 348
L 77 348
L 78 348
L 79 347
L 81 347
L 82 347
L 83 347
L 84 347
L 85 347
L 86 347
L 88 347
L 89 348
L 90 348
L 91 349
L 92 349
L 93 349
L 95 349
L 96 349
L 97 349
L 98 349
L 99 349
L 100 349
L 102 350
L 103 350
L 104 350
L 105 350
L 106 350
L 107 350
L 109 350
L 110 350
L 111 350
L 112 350
L 113 351
L 114 351
L 116 351
L 117 351
L 118 351
L 119 351
L 120 351
L 121 351
L 123 351
L 124 351
L 125 351
L 126 351
L 127 351
L 128 351
L 130 351
L 131 351
L 132 351
L 133 351
L 134 351
L 135 351
L 137 351
L 138 351
L 139 351
L 140 351
L 141 351
L 142 351
L 144 351
L 145 351
L 146 351
L 147 351
L 148 351
L 149 351
L 151 350
L 152 350
L 153 350
L 154 350
L 155 350
L 156 350
L 158 350
L 159 350
L 160 350
L 161 350
L 162 350
L 163 351
L 165 351
L 166 351
L 167 351
L 168 351
L 169 351
L 170 351
L 172 351
L 173 351
L 174 351
L 175 351
L 176 351
L 177 351
L 179 351
L 180 351
L 181 351
L 182 351
L 183 350
L 184 350
L 186 350
L 187 350
L 188 350
L 189 350
L 190 350
L 191 350
L 193 350
L 194 350
L 195 350
L 196 350
L 197 350
L 198 350
L 200 350
L 201 350
L 202 350
L 203 350
L 204 350
L 205 350
L 207 350
L 208 350
L 209 350
L 210 350
L 211 350
L 212 349
L 214 349
L 215 349
L 216 350
L 217 350
L 218 350
L 219 350
L 221 350
L 222 350
L 223 350
L 224 350
L 225 350
L 226 350
L 228 350
L 229 350
L 230 350
L 231 350
L 232 350
L 233 350
L 235 350
L 236 350
L 237 350
L 238 350
L 239 350
L 240 349
L 242 349
L 243 349
L 244 349
L 245 349
L 246 349
L 247 349
L 249 349
L 250 349
L 251 349
L 252 349
L 253 349
L 254 349
L 256 349
L 257 349
L 258 349
L 259 350
L 260 350
L 261 350
L 263 350
L 264 350
L 265 350
L 266 350
L 267 350
L 268 349
L 270 349
L 271 349
L 272 349
L 273 349
L 274 348
L 275 348
L 277 348
L 278 348
L 279 348
L 280 348
L 281 348
L 282 349
L 284 349
L 285 348
L 286 349
L 287 349
L 288 348
L 289 348
L 291 348
L 292 347
L 293 348
L 294 348
L 295 348
L 296 348
L 298 348
L 299 348
L 300 348
L 301 348
L 302 347
L 303 347
L 305 346
L 306 345
L 307 345
L 308 346
L 309 345
L 310 345
L 312 345
L 313 346
L 314 346
L 315 346
L 316 344
L 317 343
L 319 342
L 320 342
L 321 341
L 322 340
L 323 337
L 324 335
L 326 333
L 327 332
L 328 329
L 329 326
L 330 323
L 331 319
L 333 316
L 334 315
L 335 310
L 336 309
L 337 304
L 338 303
L 340 310
L 341 305
L 342 300
L 343 303
L 344 305
L 345 306
L 347 307
L 348 304
L 349 305
L 350 306
L 351 303
L 352 298
L 354 303
L 355 303
L 356 304
L 357 305
L 358 305
L 359 307
L 361 310
L 362 311
L 363 312
L 364 309
L 365 314
L 366 317
L 368 317
L 369 319
L 370 320
L 371 321
L 372 324
L 373 324
L 375 326
L 376 328
L 377 326
L 378 326
L 379 326
L 380 326
L 382 325
L 383 328
L 384 330
L 385 333
L 386 334
L 387 335
L 389 337
L 390 338
L 391 337
L 392 337
L 393 337
L 394 337
L 396 336
L 397 335
L 398 336
L 399 339
L 400 340
L 401 339
L 403 338
L 404 336
L 405 336
L 406 336
L 407 335
L 408 332
L 410 332
L 411 333
L 412 335
L 413 334
L 414 335
L 415 334
L 417 336
L 418 338
L 419 338
L 420 339
L 421 339
L 422 339
L 424 340
L 425 339
L 426 340
L 427 339
L 428 339
L 429 340
L 431 339
L 432 339
L 433 339
L 434 339
L 435 338
L 436 339
L 438 339
L 439 340
L 440 338
L 441 337
L 442 336
L 443 337
L 445 338
L 446 337
L 447 334
L 448 336
L 449 335
L 450 337
L 452 336
L 453 335
L 454 335
L 455 337
L 456 336
L 457 336
L 459 334
L 460 334
L 461 333
L 462 334
L 463 334
L 464 332
L 466 332
L 467 330
L 468 330
L 469 330
L 470 326
L 471 326
L 473 324
L 474 325
L 475 326
L 476 325
L 477 325
L 478 326
L 480 326
L 481 328
L 482 328
L 483 328
L 484 329
L 485 330
L 487 329
L 488 329
L 489 328
L 490 326
L 491 326
L 492 325
L 494 324
L 495 325
L 496 323
L 497 323
L 498 322
L 499 321
L 501 319
L 502 319
L 503 317
L 504 317
L 505 318
L 506 318
L 508 320
L 509 320
L 510 320
L 511 322
L 512 324
L 513 324
L 515 325
L 516 323
L 517 327
L 518 328
L 519 327
L 520 327
L 522 328
L 523 328
L 524 330
L 525 329
L 526 329
L 527 328
L 529 330
L 530 328
L 531 329
L 532 328
L 533 328
L 534 328
L 536 331
L 537 330
L 538 332
L 539 333
L 540 333
L 541 335
L 543 335
L 544 336
L 545 337
L 546 337
L 547 339
L 548 341
L 550 341
L 551 342
L 552 342
L 553 343
L 554 344
L 555 344
L 557 344
L 558 344
L 559 345
L 560 346
L 561 346
L 562 346
L 564 346
L 565 347
L 566 347
L 567 347
L 568 347
L 569 347
L 571 347
L 572 347
L 573 347
L 574 347
L 575 347
L 576 346
L 578 345
L 579 345
L 580 345
L 581 345
L 582 344
L 583 344
L 585 345
L 586 345
L 587 345
L 588 345
L 589 346
L 590 346
L 592 347
L 593 348
L 594 348
L 595 349
L 596 349
L 597 349
L 599 349
L 600 349
L 601 349
L 602 349
L 603 349
L 604 349
L 606 349
L 607 349
L 608 349
L 609 349
L 610 349
L 611 349
L 613 350
L 614 350
L 615 350
L 616 350
L 617 350
L 618 350
L 620 350
L 621 350
L 622 350
L 623 349
L 624 349
L 625 350
L 627 349
L 628 350
L 629 350
L 630 349
L 631 349
L 632 349
L 634 349
L 635 349
L 636 349
L 637 349
L 638 349
L 639 350
L 641 349
L 642 349
L 643 349
L 644 348
L 645 348
L 646 348
L 648 347
L 649 347
L 650 347
L 651 347
L 652 347
L 653 347
L 655 347
L 656 348
L 657 348
L 658 347
L 659 346
L 660 346
L 662 346
L 663 345
L 664 345
L 665 344
L 666 344
L 667 344
L 669 344
L 670 342
L 671 343
L 672 341
L 673 342
L 674 341
L 676 340
L 677 340
L 678 340
L 679 339
L 680 338
L 681 337
L 683 337
L 684 338
L 685 333
L 686 332
L 687 330
L 688 328
L 690 328
L 691 326
L 692 323
L 693 325
L 694 326
L 695 326
L 697 326
L 698 324
L 699 323
L 700 323
L 701 321
L 702 320
L 704 319
L 705 320
L 706 321
L 707 323
L 708 323
L 709 324
L 711 325
L 712 326
L 713 325
L 714 326
L 715 325
L 716 324
L 718 324
L 719 324
L 720 327
L 721 328
L 722 324
L 723 322
L 725 324
L 726 325
L 727 323
L 728 322
L 729 320
L 730 322
L 732 320
L 733 319
L 734 317
L 735 316
L 736 314
L 737 314
L 739 312
L 740 310
L 741 308
L 742 308
L 743 307
L 744 304
L 746 303
L 747 300
L 748 298
L 749 295
L 750 285
L 751 281
L 753 275
L 754 270
L 755 268
L 756 266
L 757 261
L 758 258
L 760 249
L 761 243
L 762 235
L 763 228
L 764 212
L 765 200
L 767 194
L 768 190
L 769 185
L 770 176
L 771 172
L 772 167
L 774 170
L 775 169
L 776 172
L 777 169
L 778 172
L 779 174
L 781 176
L 782 179
L 783 185
L 784 189
L 785 204
L 786 215
L 788 222
L 789 236
L 790 247
L 791 255
L 792 264
L 793 268
L 795 275
L 796 283
L 797 290
L 798 294
L 799 301
L 800 302
L 802 305
L 803 306
L 804 309
L 805 313
L 806 317
L 807 318
L 809 322
L 810 323
L 811 326
L 812 327
L 813 328
L 814 330
L 816 331
L 817 332
L 818 334
L 819 335
L 820 334
L 821 335
L 823 335
L 824 335
L 825 336
L 826 336
L 827 335
L 828 334
L 830 329
L 831 325
L 832 320
L 833 318
L 834 309
L 835 303
L 837 299
L 838 296
L 839 288
L 840 283
L 841 270
L 842 267
L 844 261
L 845 257
L 846 242
L 847 232
L 848 211
L 849 202
L 851 192
L 852 181
L 853 173
L 854 169
L 855 153
L 856 149
L 858 141
L 859 138
L 860 135
L 861 130
L 862 125
L 863 135
L 865 137
L 866 139
L 867 134
L 868 133
L 869 125
L 870 123
L 872 112
L 873 117
L 874 117
L 875 130
L 876 139
L 877 143
L 879 151
L 880 159
L 881 163
L 882 176
L 883 177
L 884 177
L 886 188
L 887 189
L 888 197
L 889 198
L 890 194
L 891 190
L 893 192
L 894 178
L 895 168
L 896 162
L 897 161
L 898 159
L 900 158
L 901 154
L 902 148
L 903 138
L 904 117
L 905 99
L 907 80
L 908 66
L 909 55
L 910 37
L 911 31
L 912 26
L 914 16
L 915 18
L 916 17
L 917 18
L 918 32
L 919 34
L 921 50
L 922 71
L 923 79
L 924 92
L 925 106
L 926 123
L 928 144
L 929 159
L 930 168
L 931 183
L 932 195
L 933 200
L 935 207
L 936 222
L 937 231
L 938 241
L 939 246
L 940 252
L 942 259
L 943 267
L 944 274
L 945 284
L 946 285
L 947 290
L 949 291
L 950 292
L 951 296
L 952 301
L 953 300
L 954 305
L 956 306
L 957 310
L 958 313
L 959 310
L 960 308
L 961 311" style="stroke-width:1;stroke:rgba(0,116,217,1.0);fill:none"/><path  d="M 38 351
L 40 351
L 41 351
L 42 351
L 43 351
L 44 351
L 46 351
L 47 351
L 48 351
L 49 351
L 50 351
L 51 351
L 53 351
L 54 351
L 55 351
L 56 351
L 57 350
L 58 351
L 60 351
L 61 351
L 62 350
L 63 350
L 64 350
L 65 350
L 67 350
L 68 350
L 69 351
L 70 350
L 71 350
L 72 350
L 74 350
L 75 350
L 76 350
L 77 351
L 78 350
L 79 350
L 81 350
L 82 350
L 83 350
L 84 350
L 85 351
L 86 350
L 88 350
L 89 350
L 90 350
L 91 351
L 92 350
L 93 350
L 95 350
L 96 350
L 97 350
L 98 350
L 99 350
L 100 351
L 102 351
L 103 351
L 104 350
L 105 350
L 106 351
L 107 351
L 109 351
L 110 351
L 111 351
L 112 351
L 113 351
L 114 351
L 116 351
L 117 351
L 118 351
L 119 351
L 120 351
L 121 351
L 123 351
L 124 351
L 125 351
L 126 351
L 127 351
L 128 351
L 130 351
L 131 351
L 132 351
L 133 351
L 134 351
L 135 351
L 137 351
L 138 351
L 139 351
L 140 351
L 141 351
L 142 351
L 144 351
L 145 351
L 146 351
L 147 351
L 148 351
L 149 351
L 151 350
L 152 351
L 153 350
L 154 351
L 155 350
L 156 351
L 158 351
L 159 351
L 160 351
L 161 351
L 162 351
L 163 351
L 165 351
L 166 351
L 167 351
L 168 351
L 169 351
L 170 351
L 172 351
L 173 351
L 174 351
L 175 351
L 176 351
L 177 351
L 179 351
L 180 351
L 181 351
L 182 351
L 183 350
L 184 350
L 186 350
L 187 351
L 188 350
L 189 351
L 190 351
L 191 351
L 193 351
L 194 350
L 195 351
L 196 351
L 197 350
L 198 351
L 200 351
L 201 351
L 202 351
L 203 351
L 204 350
L 205 350
L 207 351
L 208 350
L 209 350
L 210 350
L 211 350
L 212 350
L 214 351
L 215 350
L 216 350
L 217 351
L 218 351
L 219 351
L 221 350
L 222 350
L 223 351
L 224 350
L 225 350
L 226 350
L 228 351
L 229 350
L 230 351
L 231 350
L 232 350
L 233 350
L 235 351
L 236 350
L 237 350
L 238 350
L 239 350
L 240 350
L 242 350
L 243 350
L 244 350
L 245 350
L 246 351
L 247 350
L 249 350
L 250 350
L 251 350
L 252 350
L 253 350
L 254 350
L 256 350
L 257 351
L 258 350
L 259 351
L 260 350
L 261 350
L 263 351
L 264 351
L 265 350
L 266 350
L 267 350
L 268 350
L 270 350
L 271 350
L 272 351
L 273 350
L 274 350
L 275 350
L 277 350
L 278 350
L 279 350
L 280 351
L 281 350
L 282 350
L 284 350
L 285 350
L 286 350
L 287 350
L 288 350
L 289 350
L 291 350
L 292 349
L 293 350
L 294 350
L 295 350
L 296 351
L 298 350
L 299 350
L 300 350
L 301 350
L 302 350
L 303 350
L 305 350
L 306 349
L 307 350
L 308 350
L 309 350
L 310 349
L 312 350
L 313 350
L 314 349
L 315 349
L 316 349
L 317 349
L 319 349
L 320 349
L 321 349
L 322 348
L 323 347
L 324 347
L 326 346
L 327 348
L 328 346
L 329 346
L 330 346
L 331 341
L 333 344
L 334 345
L 335 342
L 336 345
L 337 341
L 338 344
L 340 349
L 341 339
L 342 339
L 343 346
L 344 348
L 345 342
L 347 346
L 348 345
L 349 340
L 350 341
L 351 342
L 352 343
L 354 347
L 355 345
L 356 346
L 357 342
L 358 341
L 359 343
L 361 345
L 362 348
L 363 346
L 364 343
L 365 347
L 366 344
L 368 344
L 369 348
L 370 349
L 371 347
L 372 346
L 373 347
L 375 346
L 376 346
L 377 346
L 378 348
L 379 348
L 380 346
L 382 346
L 383 348
L 384 349
L 385 349
L 386 349
L 387 349
L 389 349
L 390 347
L 391 347
L 392 349
L 393 349
L 394 350
L 396 348
L 397 348
L 398 348
L 399 350
L 400 350
L 401 347
L 403 349
L 404 346
L 405 348
L 406 349
L 407 349
L 408 346
L 410 348
L 411 350
L 412 348
L 413 347
L 414 349
L 415 348
L 417 349
L 418 349
L 419 350
L 420 349
L 421 347
L 422 349
L 424 349
L 425 348
L 426 349
L 427 349
L 428 349
L 429 349
L 431 348
L 432 349
L 433 349
L 434 349
L 435 348
L 436 349
L 438 349
L 439 349
L 440 347
L 441 348
L 442 348
L 443 349
L 445 350
L 446 348
L 447 346
L 448 350
L 449 347
L 450 350
L 452 348
L 453 349
L 454 348
L 455 348
L 456 349
L 457 346
L 459 348
L 460 349
L 461 347
L 462 349
L 463 347
L 464 348
L 466 346
L 467 347
L 468 348
L 469 348
L 470 345
L 471 347
L 473 345
L 474 348
L 475 347
L 476 347
L 477 347
L 478 346
L 480 347
L 481 347
L 482 348
L 483 347
L 484 348
L 485 349
L 487 346
L 488 347
L 489 346
L 490 346
L 491 347
L 492 347
L 494 347
L 495 347
L 496 344
L 497 346
L 498 345
L 499 346
L 501 345
L 502 346
L 503 345
L 504 344
L 505 347
L 506 346
L 508 347
L 509 345
L 510 347
L 511 346
L 512 347
L 513 347
L 515 347
L 516 346
L 517 349
L 518 348
L 519 346
L 520 346
L 522 348
L 523 347
L 524 348
L 525 348
L 526 348
L 527 345
L 529 348
L 530 346
L 531 347
L 532 347
L 533 348
L 534 349
L 536 348
L 537 347
L 538 348
L 539 348
L 540 347
L 541 350
L 543 349
L 544 348
L 545 349
L 546 349
L 547 350
L 548 350
L 550 350
L 551 349
L 552 348
L 553 350
L 554 350
L 555 350
L 557 350
L 558 350
L 559 350
L 560 350
L 561 350
L 562 350
L 564 350
L 565 350
L 566 350
L 567 350
L 568 350
L 569 350
L 571 349
L 572 350
L 573 350
L 574 350
L 575 350
L 576 348
L 578 350
L 579 349
L 580 350
L 581 350
L 582 350
L 583 350
L 585 350
L 586 350
L 587 350
L 588 350
L 589 350
L 590 350
L 592 350
L 593 350
L 594 350
L 595 350
L 596 350
L 597 350
L 599 351
L 600 350
L 601 350
L 602 350
L 603 350
L 604 350
L 606 350
L 607 351
L 608 350
L 609 350
L 610 350
L 611 350
L 613 351
L 614 351
L 615 351
L 616 350
L 617 350
L 618 350
L 620 350
L 621 350
L 622 350
L 623 350
L 624 350
L 625 350
L 627 350
L 628 351
L 629 350
L 630 350
L 631 350
L 632 350
L 634 350
L 635 350
L 636 351
L 637 350
L 638 350
L 639 351
L 641 350
L 642 350
L 643 350
L 644 350
L 645 350
L 646 350
L 648 350
L 649 350
L 650 350
L 651 350
L 652 350
L 653 350
L 655 350
L 656 350
L 657 350
L 658 349
L 659 349
L 660 349
L 662 350
L 663 349
L 664 350
L 665 349
L 666 349
L 667 349
L 669 349
L 670 349
L 671 350
L 672 349
L 673 349
L 674 348
L 676 349
L 677 349
L 678 348
L 679 349
L 680 349
L 681 348
L 683 348
L 684 350
L 685 345
L 686 346
L 687 347
L 688 347
L 690 348
L 691 346
L 692 346
L 693 347
L 694 347
L 695 347
L 697 346
L 698 346
L 699 345
L 700 346
L 701 345
L 702 346
L 704 346
L 705 347
L 706 347
L 707 346
L 708 347
L 709 347
L 711 347
L 712 346
L 713 347
L 714 348
L 715 346
L 716 346
L 718 347
L 719 347
L 720 348
L 721 348
L 722 344
L 723 344
L 725 347
L 726 348
L 727 345
L 728 347
L 729 346
L 730 346
L 732 342
L 733 346
L 734 346
L 735 343
L 736 346
L 737 345
L 739 344
L 740 341
L 741 343
L 742 345
L 743 342
L 744 344
L 746 344
L 747 341
L 748 339
L 749 339
L 750 335
L 751 338
L 753 337
L 754 339
L 755 339
L 756 336
L 757 334
L 758 332
L 760 328
L 761 330
L 762 331
L 763 332
L 764 319
L 765 321
L 767 325
L 768 324
L 769 324
L 770 321
L 771 327
L 772 315
L 774 324
L 775 324
L 776 327
L 777 321
L 778 325
L 779 328
L 781 318
L 782 326
L 783 331
L 784 332
L 785 338
L 786 336
L 788 336
L 789 332
L 790 338
L 791 339
L 792 342
L 793 342
L 795 345
L 796 344
L 797 340
L 798 342
L 799 346
L 800 344
L 802 345
L 803 346
L 804 348
L 805 344
L 806 346
L 807 347
L 809 347
L 810 347
L 811 348
L 812 349
L 813 346
L 814 347
L 816 349
L 817 348
L 818 349
L 819 349
L 820 348
L 821 347
L 823 348
L 824 348
L 825 349
L 826 349
L 827 348
L 828 347
L 830 341
L 831 344
L 832 343
L 833 347
L 834 340
L 835 341
L 837 343
L 838 338
L 839 334
L 840 338
L 841 333
L 842 336
L 844 335
L 845 339
L 846 322
L 847 323
L 848 317
L 849 323
L 851 326
L 852 322
L 853 331
L 854 317
L 855 307
L 856 313
L 858 315
L 859 322
L 860 319
L 861 326
L 862 312
L 863 318
L 865 315
L 866 317
L 867 317
L 868 319
L 869 317
L 870 310
L 872 306
L 873 320
L 874 317
L 875 331
L 876 328
L 877 320
L 879 319
L 880 314
L 881 324
L 882 331
L 883 331
L 884 329
L 886 332
L 887 319
L 888 324
L 889 325
L 890 327
L 891 327
L 893 331
L 894 318
L 895 308
L 896 317
L 897 324
L 898 325
L 900 325
L 901 327
L 902 312
L 903 297
L 904 295
L 905 304
L 907 305
L 908 311
L 909 315
L 910 292
L 911 291
L 912 289
L 914 294
L 915 307
L 916 309
L 917 316
L 918 308
L 919 294
L 921 305
L 922 317
L 923 315
L 924 324
L 925 331
L 926 326
L 928 316
L 929 322
L 930 326
L 931 331
L 932 336
L 933 337
L 935 333
L 936 333
L 937 331
L 938 337
L 939 337
L 940 342
L 942 343
L 943 342
L 944 339
L 945 341
L 946 339
L 947 343
L 949 343
L 950 344
L 951 347
L 952 344
L 953 340
L 954 345
L 956 344
L 957 347
L 958 348
L 959 343
L 960 342
L 961 344" style="stroke-width:1;stroke:rgba(0,217,101,1.0);fill:none"/><path  d="M 38 351
L 40 351
L 41 351
L 42 351
L 43 351
L 44 351
L 46 351
L 47 351
L 48 351
L 49 351
L 50 351
L 51 351
L 53 351
L 54 351
L 55 351
L 56 351
L 57 351
L 58 351
L 60 351
L 61 351
L 62 351
L 63 351
L 64 351
L 65 351
L 67 351
L 68 351
L 69 351
L 70 351
L 71 351
L 72 351
L 74 350
L 75 351
L 76 351
L 77 350
L 78 351
L 79 351
L 81 351
L 82 351
L 83 351
L 84 351
L 85 351
L 86 351
L 88 351
L 89 351
L 90 351
L 91 351
L 92 351
L 93 351
L 95 351
L 96 351
L 97 351
L 98 351
L 99 351
L 100 351
L 102 351
L 103 351
L 104 350
L 105 351
L 106 351
L 107 351
L 109 351
L 110 351
L 111 351
L 112 351
L 113 351
L 114 351
L 116 351
L 117 351
L 118 351
L 119 351
L 120 351
L 121 351
L 123 351
L 124 351
L 125 351
L 126 351
L 127 351
L 128 351
L 130 351
L 131 351
L 132 351
L 133 351
L 134 351
L 135 351
L 137 351
L 138 351
L 139 351
L 140 351
L 141 351
L 142 351
L 144 351
L 145 351
L 146 351
L 147 351
L 148 351
L 149 351
L 151 351
L 152 351
L 153 351
L 154 351
L 155 351
L 156 351
L 158 351
L 159 351
L 160 351
L 161 351
L 162 351
L 163 351
L 165 351
L 166 351
L 167 351
L 168 351
L 169 351
L 170 351
L 172 351
L 173 351
L 174 351
L 175 351
L 176 351
L 177 351
L 179 351
L 180 351
L 181 351
L 182 351
L 183 351
L 184 351
L 186 351
L 187 351
L 188 351
L 189 351
L 190 351
L 191 351
L 193 351
L 194 351
L 195 351
L 196 351
L 197 351
L 198 351
L 200 351
L 201 351
L 202 351
L 203 351
L 204 351
L 205 351
L 207 351
L 208 351
L 209 351
L 210 351
L 211 351
L 212 351
L 214 351
L 215 351
L 216 351
L 217 351
L 218 351
L 219 351
L 221 351
L 222 351
L 223 351
L 224 351
L 225 351
L 226 351
L 228 351
L 229 351
L 230 351
L 231 351
L 232 351
L 233 351
L 235 351
L 236 351
L 237 351
L 238 351
L 239 351
L 240 351
L 242 351
L 243 351
L 244 351
L 245 351
L 246 351
L 247 351
L 249 351
L 250 351
L 251 351
L 252 351
L 253 351
L 254 351
L 256 351
L 257 351
L 258 351
L 259 351
L 260 351
L 261 351
L 263 351
L 264 351
L 265 351
L 266 351
L 267 351
L 268 351
L 270 351
L 271 351
L 272 351
L 273 351
L 274 351
L 275 351
L 277 351
L 278 351
L 279 351
L 280 351
L 281 350
L 282 350
L 284 351
L 285 351
L 286 351
L 287 351
L 288 351
L 289 351
L 291 351
L 292 351
L 293 351
L 294 351
L 295 351
L 296 351
L 298 351
L 299 351
L 300 351
L 301 351
L 302 351
L 303 351
L 305 351
L 306 351
L 307 351
L 308 350
L 309 351
L 310 351
L 312 351
L 313 351
L 314 350
L 315 351
L 316 351
L 317 351
L 319 351
L 320 351
L 321 351
L 322 351
L 323 351
L 324 351
L 326 351
L 327 351
L 328 351
L 329 350
L 330 351
L 331 350
L 333 350
L 334 351
L 335 351
L 336 350
L 337 351
L 338 350
L 340 351
L 341 350
L 342 351
L 343 351
L 344 350
L 345 351
L 347 351
L 348 350
L 349 350
L 350 350
L 351 350
L 352 350
L 354 351
L 355 350
L 356 350
L 357 351
L 358 350
L 359 351
L 361 350
L 362 351
L 363 351
L 364 350
L 365 351
L 366 350
L 368 351
L 369 351
L 370 351
L 371 350
L 372 351
L 373 350
L 375 350
L 376 350
L 377 350
L 378 351
L 379 351
L 380 351
L 382 351
L 383 350
L 384 351
L 385 350
L 386 351
L 387 351
L 389 350
L 390 351
L 391 351
L 392 350
L 393 351
L 394 351
L 396 350
L 397 350
L 398 351
L 399 350
L 400 351
L 401 350
L 403 350
L 404 350
L 405 350
L 406 350
L 407 350
L 408 351
L 410 350
L 411 350
L 412 351
L 413 351
L 414 351
L 415 351
L 417 351
L 418 351
L 419 351
L 420 351
L 421 351
L 422 351
L 424 351
L 425 351
L 426 351
L 427 350
L 428 351
L 429 350
L 431 350
L 432 351
L 433 351
L 434 351
L 435 351
L 436 350
L 438 350
L 439 351
L 440 350
L 441 351
L 442 350
L 443 351
L 445 351
L 446 351
L 447 350
L 448 351
L 449 351
L 450 351
L 452 351
L 453 350
L 454 350
L 455 351
L 456 350
L 457 351
L 459 351
L 460 351
L 461 351
L 462 351
L 463 351
L 464 351
L 466 351
L 467 351
L 468 351
L 469 351
L 470 351
L 471 351
L 473 351
L 474 351
L 475 350
L 476 351
L 477 351
L 478 350
L 480 350
L 481 351
L 482 351
L 483 351
L 484 350
L 485 351
L 487 351
L 488 350
L 489 350
L 490 350
L 491 350
L 492 351
L 494 350
L 495 351
L 496 351
L 497 350
L 498 351
L 499 350
L 501 350
L 502 350
L 503 350
L 504 351
L 505 350
L 506 350
L 508 350
L 509 350
L 510 351
L 511 350
L 512 350
L 513 350
L 515 351
L 516 350
L 517 350
L 518 350
L 519 350
L 520 350
L 522 350
L 523 351
L 524 351
L 525 350
L 526 350
L 527 351
L 529 351
L 530 351
L 531 351
L 532 351
L 533 351
L 534 351
L 536 351
L 537 350
L 538 351
L 539 351
L 540 351
L 541 350
L 543 351
L 544 351
L 545 351
L 546 351
L 547 350
L 548 351
L 550 350
L 551 350
L 552 351
L 553 351
L 554 351
L 555 350
L 557 351
L 558 350
L 559 351
L 560 351
L 561 351
L 562 350
L 564 351
L 565 351
L 566 351
L 567 351
L 568 350
L 569 351
L 571 351
L 572 351
L 573 351
L 574 351
L 575 351
L 576 351
L 578 351
L 579 351
L 580 351
L 581 351
L 582 351
L 583 351
L 585 351
L 586 351
L 587 351
L 588 351
L 589 351
L 590 351
L 592 351
L 593 351
L 594 351
L 595 351
L 596 351
L 597 351
L 599 350
L 600 351
L 601 351
L 602 351
L 603 351
L 604 351
L 606 351
L 607 351
L 608 351
L 609 351
L 610 351
L 611 351
L 613 351
L 614 351
L 615 351
L 616 351
L 617 351
L 618 351
L 620 351
L 621 351
L 622 351
L 623 351
L 624 351
L 625 351
L 627 351
L 628 351
L 629 351
L 630 351
L 631 351
L 632 351
L 634 351
L 635 351
L 636 351
L 637 351
L 638 351
L 639 351
L 641 351
L 642 351
L 643 351
L 644 351
L 645 351
L 646 351
L 648 351
L 649 351
L 650 351
L 651 351
L 652 351
L 653 350
L 655 351
L 656 351
L 657 351
L 658 351
L 659 351
L 660 351
L 662 351
L 663 351
L 664 351
L 665 351
L 666 351
L 667 351
L 669 351
L 670 351
L 671 351
L 672 351
L 673 351
L 674 351
L 676 351
L 677 351
L 678 351
L 679 351
L 680 351
L 681 351
L 683 351
L 684 351
L 685 351
L 686 351
L 687 351
L 688 351
L 690 351
L 691 351
L 692 351
L 693 351
L 694 350
L 695 351
L 697 351
L 698 351
L 699 351
L 700 351
L 701 351
L 702 351
L 704 351
L 705 350
L 706 351
L 707 350
L 708 351
L 709 351
L 711 351
L 712 351
L 713 351
L 714 351
L 715 351
L 716 351
L 718 351
L 719 350
L 720 351
L 721 350
L 722 351
L 723 351
L 725 351
L 726 351
L 727 350
L 728 351
L 729 351
L 730 351
L 732 351
L 733 351
L 734 351
L 735 351
L 736 351
L 737 351
L 739 351
L 740 350
L 741 351
L 742 351
L 743 351
L 744 350
L 746 350
L 747 351
L 748 351
L 749 351
L 750 351
L 751 351
L 753 350
L 754 351
L 755 350
L 756 351
L 757 350
L 758 351
L 760 350
L 761 350
L 762 350
L 763 350
L 764 350
L 765 350
L 767 350
L 768 350
L 769 350
L 770 350
L 771 350
L 772 350
L 774 351
L 775 350
L 776 350
L 777 350
L 778 350
L 779 350
L 781 350
L 782 350
L 783 350
L 784 350
L 785 350
L 786 350
L 788 350
L 789 351
L 790 350
L 791 351
L 792 351
L 793 350
L 795 350
L 796 350
L 797 350
L 798 350
L 799 351
L 800 350
L 802 351
L 803 350
L 804 351
L 805 350
L 806 350
L 807 350
L 809 350
L 810 350
L 811 351
L 812 351
L 813 350
L 814 350
L 816 350
L 817 350
L 818 351
L 819 350
L 820 351
L 821 351
L 823 351
L 824 350
L 825 351
L 826 351
L 827 351
L 828 350
L 830 351
L 831 350
L 832 351
L 833 351
L 834 351
L 835 351
L 837 351
L 838 351
L 839 350
L 840 351
L 841 351
L 842 351
L 844 351
L 845 351
L 846 351
L 847 351
L 848 350
L 849 351
L 851 351
L 852 351
L 853 351
L 854 351
L 855 351
L 856 351
L 858 351
L 859 351
L 860 351
L 861 351
L 862 351
L 863 350
L 865 350
L 866 351
L 867 351
L 868 351
L 869 351
L 870 351
L 872 350
L 873 350
L 874 350
L 875 350
L 876 351
L 877 351
L 879 350
L 880 350
L 881 350
L 882 351
L 883 351
L 884 351
L 886 351
L 887 351
L 888 351
L 889 351
L 890 351
L 891 351
L 893 350
L 894 351
L 895 351
L 896 350
L 897 351
L 898 351
L 900 351
L 901 351
L 902 351
L 903 351
L 904 351
L 905 351
L 907 351
L 908 351
L 909 351
L 910 351
L 911 351
L 912 351
L 914 351
L 915 351
L 916 351
L 917 350
L 918 351
L 919 350
L 921 351
L 922 351
L 923 350
L 924 351
L 925 351
L 926 351
L 928 351
L 929 351
L 930 351
L 931 350
L 932 350
L 933 350
L 935 350
L 936 351
L 937 350
L 938 350
L 939 351
L 940 351
L 942 351
L 943 351
L 944 351
L 945 350
L 946 351
L 947 351
L 949 351
L 950 350
L 951 351
L 952 351
L 953 351
L 954 351
L 956 351
L 957 351
L 958 351
L 959 351
L 960 351
L 961 351" style="stroke-width:1;stroke:rgba(217,0,116,1.0);fill:none"/><text x="369" y="33" style="stroke-width:0;stroke:none;fill:rgba(51,51,51,1.0);font-size:23.0px;font-family:'Roboto Medium',sans-serif">Braunau am Inn 27.04.2022</text><path  d="M 38 11
L 251 11
L 251 91
L 38 91
L 38 11" style="stroke-width:1;stroke:rgba(51,51,51,1.0);fill:rgba(255,255,255,1.0)"/><text x="43" y="26" style="stroke-width:0;stroke:none;fill:rgba(51,51,51,1.0);font-size:10.2px;font-family:'Roboto Medium',sans-serif">Sieben Tage Durschnitt Inzidenz Fälle</text><path  d="M 221 21
L 241 21" style="stroke-width:1;stroke:rgba(0,116,217,1.0);fill:none"/><text x="43" y="56" style="stroke-width:0;stroke:none;fill:rgba(51,51,51,1.0);font-size:10.2px;font-family:'Roboto Medium',sans-serif">Anzahl Faelle</text><path  d="M 110 51
L 241 51" style="stroke-width:1;stroke:rgba(0,217,101,1.0);fill:none"/><text x="43" y="86" style="stroke-width:0;stroke:none;fill:rgba(51,51,51,1.0);font-size:10.2px;font-family:'Roboto Medium',sans-serif">Anzahl Tot</text><path  d="M 98 81
L 241 81" style="stroke-width:1;stroke:rgba(217,0,116,1.0);fill:none"/></svg>