<svg xmlns="http://www.w3.org/2000/svg" xmlns:xlink="http://www.w3.org/1999/xlink" width="1024" height="400">\n<path  d="M 0 0
L 1024 0
L 1024 400
L 0 400
L 0 0" style="stroke-width:0;stroke:rgba(255,255,255,1.0);fill:rgba(255,255,255,1.0)"/><path  d="M 38 11
L 969 11
L 969 351
L 38 351
L 38 11" style="stroke-width:0;stroke:rgba(255,255,255,1.0);fill:rgba(255,255,255,1.0)"/><path  d="M 38 351
L 969 351" style="stroke-width:1;stroke:rgba(51,51,51,1.0);fill:none"/><path  d="M 38 351
L 38 356" style="stroke-width:1;stroke:rgba(51,51,51,1.0);fill:none"/><text x="5" y="373" style="stroke-width:0;stroke:none;fill:rgba(51,51,51,1.0);font-size:12.8px;font-family:'Roboto Medium',sans-serif">2020-02-26</text><path  d="M 155 351
L 155 356" style="stroke-width:1;stroke:rgba(51,51,51,1.0);fill:none"/><text x="122" y="373" style="stroke-width:0;stroke:none;fill:rgba(51,51,51,1.0);font-size:12.8px;font-family:'Roboto Medium',sans-serif">2020-04-25</text><path  d="M 271 351
L 271 356" style="stroke-width:1;stroke:rgba(51,51,51,1.0);fill:none"/><text x="238" y="373" style="stroke-width:0;stroke:none;fill:rgba(51,51,51,1.0);font-size:12.8px;font-family:'Roboto Medium',sans-serif">2020-06-24</text><path  d="M 388 351
L 388 356" style="stroke-width:1;stroke:rgba(51,51,51,1.0);fill:none"/><text x="355" y="373" style="stroke-width:0;stroke:none;fill:rgba(51,51,51,1.0);font-size:12.8px;font-family:'Roboto Medium',sans-serif">2020-08-22</text><path  d="M 504 351
L 504 356" style="stroke-width:1;stroke:rgba(51,51,51,1.0);fill:none"/><text x="471" y="373" style="stroke-width:0;stroke:none;fill:rgba(51,51,51,1.0);font-size:12.8px;font-family:'Roboto Medium',sans-serif">2020-10-21</text><path  d="M 620 351
L 620 356" style="stroke-width:1;stroke:rgba(51,51,51,1.0);fill:none"/><text x="587" y="373" style="stroke-width:0;stroke:none;fill:rgba(51,51,51,1.0);font-size:12.8px;font-family:'Roboto Medium',sans-serif">2020-12-19</text><path  d="M 737 351
L 737 356" style="stroke-width:1;stroke:rgba(51,51,51,1.0);fill:none"/><text x="704" y="373" style="stroke-width:0;stroke:none;fill:rgba(51,51,51,1.0);font-size:12.8px;font-family:'Roboto Medium',sans-serif">2021-02-17</text><path  d="M 853 351
L 853 356" style="stroke-width:1;stroke:rgba(51,51,51,1.0);fill:none"/><text x="820" y="373" style="stroke-width:0;stroke:none;fill:rgba(51,51,51,1.0);font-size:12.8px;font-family:'Roboto Medium',sans-serif">2021-04-17</text><path  d="M 969 351
L 969 356" style="stroke-width:1;stroke:rgba(51,51,51,1.0);fill:none"/><text x="936" y="373" style="stroke-width:0;stroke:none;fill:rgba(51,51,51,1.0);font-size:12.8px;font-family:'Roboto Medium',sans-serif">2021-06-16</text><text x="485" y="395" style="stroke-width:0;stroke:none;fill:rgba(51,51,51,1.0);font-size:12.8px;font-family:'Roboto Medium',sans-serif">Datum</text><path  d="M 970 351
L 970 11" style="stroke-width:1;stroke:rgba(51,51,51,1.0);fill:none"/><path  d="M 970 351
L 975 351" style="stroke-width:1;stroke:rgba(51,51,51,1.0);fill:none"/><text x="980" y="357" style="stroke-width:0;stroke:none;fill:rgba(51,51,51,1.0);font-size:12.8px;font-family:'Roboto Medium',sans-serif">0.00</text><path  d="M 970 308
L 975 308" style="stroke-width:1;stroke:rgba(51,51,51,1.0);fill:none"/><text x="980" y="314" style="stroke-width:0;stroke:none;fill:rgba(51,51,51,1.0);font-size:12.8px;font-family:'Roboto Medium',sans-serif">80.00</text><path  d="M 970 266
L 975 266" style="stroke-width:1;stroke:rgba(51,51,51,1.0);fill:none"/><text x="980" y="272" style="stroke-width:0;stroke:none;fill:rgba(51,51,51,1.0);font-size:12.8px;font-family:'Roboto Medium',sans-serif">160.00</text><path  d="M 970 223
L 975 223" style="stroke-width:1;stroke:rgba(51,51,51,1.0);fill:none"/><text x="980" y="229" style="stroke-width:0;stroke:none;fill:rgba(51,51,51,1.0);font-size:12.8px;font-family:'Roboto Medium',sans-serif">240.00</text><path  d="M 970 181
L 975 181" style="stroke-width:1;stroke:rgba(51,51,51,1.0);fill:none"/><text x="980" y="187" style="stroke-width:0;stroke:none;fill:rgba(51,51,51,1.0);font-size:12.8px;font-family:'Roboto Medium',sans-serif">320.00</text><path  d="M 970 138
L 975 138" style="stroke-width:1;stroke:rgba(51,51,51,1.0);fill:none"/><text x="980" y="144" style="stroke-width:0;stroke:none;fill:rgba(51,51,51,1.0);font-size:12.8px;font-family:'Roboto Medium',sans-serif">400.00</text><path  d="M 970 96
L 975 96" style="stroke-width:1;stroke:rgba(51,51,51,1.0);fill:none"/><text x="980" y="102" style="stroke-width:0;stroke:none;fill:rgba(51,51,51,1.0);font-size:12.8px;font-family:'Roboto Medium',sans-serif">480.00</text><path  d="M 970 53
L 975 53" style="stroke-width:1;stroke:rgba(51,51,51,1.0);fill:none"/><text x="980" y="59" style="stroke-width:0;stroke:none;fill:rgba(51,51,51,1.0);font-size:12.8px;font-family:'Roboto Medium',sans-serif">560.00</text><path  d="M 970 11
L 975 11" style="stroke-width:1;stroke:rgba(51,51,51,1.0);fill:none"/><text x="980" y="17" style="stroke-width:0;stroke:none;fill:rgba(51,51,51,1.0);font-size:12.8px;font-family:'Roboto Medium',sans-serif">640.00</text><path  d="M 38 351
L 40 351
L 42 351
L 44 351
L 46 351
L 48 351
L 50 351
L 52 351
L 54 351
L 56 351
L 58 351
L 60 351
L 62 351
L 64 351
L 66 351
L 68 351
L 70 350
L 72 349
L 74 349
L 76 349
L 78 348
L 80 347
L 82 346
L 83 345
L 85 344
L 87 344
L 89 344
L 91 343
L 93 342
L 95 337
L 97 337
L 99 335
L 101 334
L 103 334
L 105 332
L 107 328
L 109 329
L 111 327
L 113 324
L 115 326
L 117 326
L 119 328
L 121 329
L 123 332
L 125 335
L 127 341
L 128 340
L 130 340
L 132 341
L 134 342
L 136 343
L 138 343
L 140 343
L 142 344
L 144 344
L 146 345
L 148 348
L 150 348
L 152 348
L 154 349
L 156 349
L 158 349
L 160 349
L 162 349
L 164 351
L 166 351
L 168 351
L 170 351
L 171 351
L 173 351
L 175 351
L 177 351
L 179 351
L 181 351
L 183 351
L 185 351
L 187 351
L 189 351
L 191 351
L 193 351
L 195 351
L 197 351
L 199 351
L 201 351
L 203 351
L 205 351
L 207 351
L 209 351
L 211 351
L 213 350
L 215 350
L 216 350
L 218 350
L 220 350
L 222 350
L 224 350
L 226 350
L 228 350
L 230 349
L 232 349
L 234 349
L 236 349
L 238 349
L 240 350
L 242 350
L 244 351
L 246 351
L 248 351
L 250 351
L 252 351
L 254 351
L 256 351
L 258 351
L 260 351
L 261 351
L 263 351
L 265 351
L 267 351
L 269 351
L 271 351
L 273 351
L 275 351
L 277 351
L 279 351
L 281 350
L 283 349
L 285 346
L 287 346
L 289 345
L 291 345
L 293 345
L 295 346
L 297 346
L 299 349
L 301 349
L 303 350
L 304 348
L 306 348
L 308 348
L 310 348
L 312 348
L 314 348
L 316 348
L 318 350
L 320 350
L 322 347
L 324 347
L 326 346
L 328 345
L 330 344
L 332 344
L 334 343
L 336 345
L 338 346
L 340 346
L 342 348
L 344 349
L 346 348
L 348 349
L 349 348
L 351 347
L 353 347
L 355 347
L 357 347
L 359 347
L 361 347
L 363 348
L 365 348
L 367 348
L 369 347
L 371 345
L 373 345
L 375 344
L 377 341
L 379 340
L 381 338
L 383 338
L 385 339
L 387 339
L 389 340
L 391 342
L 393 341
L 394 340
L 396 339
L 398 339
L 400 339
L 402 338
L 404 340
L 406 342
L 408 345
L 410 345
L 412 344
L 414 345
L 416 346
L 418 346
L 420 345
L 422 344
L 424 343
L 426 343
L 428 341
L 430 341
L 432 339
L 434 335
L 436 334
L 437 335
L 439 332
L 441 334
L 443 333
L 445 333
L 447 338
L 449 337
L 451 336
L 453 339
L 455 337
L 457 337
L 459 335
L 461 334
L 463 330
L 465 332
L 467 333
L 469 334
L 471 335
L 473 337
L 475 335
L 477 336
L 479 334
L 481 331
L 482 328
L 484 324
L 486 314
L 488 315
L 490 319
L 492 317
L 494 315
L 496 315
L 498 318
L 500 321
L 502 318
L 504 308
L 506 301
L 508 297
L 510 292
L 512 287
L 514 280
L 516 262
L 518 252
L 520 236
L 522 231
L 524 212
L 526 190
L 527 176
L 529 146
L 531 128
L 533 123
L 535 86
L 537 81
L 539 54
L 541 43
L 543 88
L 545 58
L 547 23
L 549 47
L 551 60
L 553 64
L 555 72
L 557 49
L 559 55
L 561 65
L 563 42
L 565 13
L 567 44
L 569 44
L 570 50
L 572 60
L 574 60
L 576 69
L 578 86
L 580 93
L 582 98
L 584 78
L 586 114
L 588 131
L 590 132
L 592 148
L 594 151
L 596 158
L 598 180
L 600 179
L 602 189
L 604 204
L 606 192
L 608 188
L 610 193
L 612 192
L 614 187
L 615 204
L 617 219
L 619 237
L 621 246
L 623 251
L 625 267
L 627 272
L 629 261
L 631 263
L 633 261
L 635 262
L 637 257
L 639 251
L 641 257
L 643 277
L 645 282
L 647 275
L 649 269
L 651 257
L 653 256
L 655 259
L 657 253
L 659 231
L 660 231
L 662 239
L 664 251
L 666 247
L 668 249
L 670 242
L 672 260
L 674 268
L 676 268
L 678 274
L 680 276
L 682 276
L 684 286
L 686 280
L 688 282
L 690 276
L 692 275
L 694 282
L 696 277
L 698 275
L 700 279
L 702 277
L 703 271
L 705 273
L 707 273
L 709 280
L 711 269
L 713 265
L 715 259
L 717 264
L 719 268
L 721 261
L 723 242
L 725 259
L 727 250
L 729 263
L 731 256
L 733 249
L 735 252
L 737 262
L 739 257
L 741 254
L 743 243
L 745 246
L 747 238
L 748 246
L 750 242
L 752 231
L 754 230
L 756 221
L 758 217
L 760 219
L 762 190
L 764 191
L 766 177
L 768 187
L 770 189
L 772 186
L 774 184
L 776 194
L 778 194
L 780 203
L 782 209
L 784 208
L 786 210
L 788 219
L 790 215
L 792 213
L 793 207
L 795 193
L 797 189
L 799 187
L 801 175
L 803 183
L 805 170
L 807 172
L 809 166
L 811 162
L 813 148
L 815 146
L 817 134
L 819 134
L 821 138
L 823 144
L 825 152
L 827 152
L 829 156
L 831 163
L 833 176
L 835 177
L 836 182
L 838 174
L 840 195
L 842 202
L 844 200
L 846 196
L 848 205
L 850 204
L 852 215
L 854 212
L 856 212
L 858 208
L 860 218
L 862 207
L 864 209
L 866 206
L 868 203
L 870 206
L 872 223
L 874 221
L 876 232
L 878 238
L 880 239
L 881 251
L 883 253
L 885 254
L 887 262
L 889 264
L 891 273
L 893 287
L 895 288
L 897 292
L 899 293
L 901 299
L 903 307
L 905 307
L 907 306
L 909 308
L 911 313
L 913 320
L 915 324
L 917 323
L 919 323
L 921 327
L 923 327
L 925 327
L 926 329
L 928 330
L 930 327
L 932 330
L 934 329
L 936 331
L 938 328
L 940 318
L 942 315
L 944 314
L 946 313
L 948 312
L 950 307
L 952 307
L 954 315
L 956 314
L 958 318
L 960 317
L 962 319
L 964 324
L 966 328
L 968 332
L 969 336" style="stroke-width:1;stroke:rgba(0,116,217,1.0);fill:none"/><path  d="M 38 351
L 40 351
L 42 351
L 44 351
L 46 351
L 48 351
L 50 351
L 52 351
L 54 351
L 56 351
L 58 351
L 60 351
L 62 351
L 64 351
L 66 351
L 68 351
L 70 350
L 72 350
L 74 351
L 76 351
L 78 349
L 80 350
L 82 349
L 83 348
L 85 349
L 87 350
L 89 351
L 91 348
L 93 349
L 95 344
L 97 348
L 99 348
L 101 348
L 103 351
L 105 346
L 107 345
L 109 345
L 111 346
L 113 345
L 115 350
L 117 351
L 119 348
L 121 346
L 123 349
L 125 349
L 127 351
L 128 349
L 130 350
L 132 349
L 134 347
L 136 350
L 138 350
L 140 350
L 142 351
L 144 351
L 146 351
L 148 350
L 150 349
L 152 351
L 154 351
L 156 351
L 158 351
L 160 351
L 162 351
L 164 351
L 166 351
L 168 351
L 170 351
L 171 351
L 173 351
L 175 351
L 177 351
L 179 351
L 181 351
L 183 351
L 185 351
L 187 351
L 189 351
L 191 351
L 193 351
L 195 351
L 197 351
L 199 351
L 201 351
L 203 351
L 205 351
L 207 351
L 209 351
L 211 351
L 213 350
L 215 351
L 216 351
L 218 351
L 220 351
L 222 351
L 224 351
L 226 350
L 228 351
L 230 350
L 232 351
L 234 351
L 236 351
L 238 351
L 240 351
L 242 351
L 244 351
L 246 351
L 248 351
L 250 351
L 252 351
L 254 351
L 256 351
L 258 351
L 260 351
L 261 351
L 263 351
L 265 351
L 267 351
L 269 351
L 271 351
L 273 351
L 275 351
L 277 351
L 279 351
L 281 350
L 283 350
L 285 347
L 287 351
L 289 349
L 291 351
L 293 351
L 295 351
L 297 351
L 299 350
L 301 351
L 303 351
L 304 348
L 306 351
L 308 351
L 310 351
L 312 351
L 314 351
L 316 350
L 318 351
L 320 351
L 322 348
L 324 350
L 326 350
L 328 349
L 330 349
L 332 351
L 334 350
L 336 350
L 338 351
L 340 351
L 342 351
L 344 350
L 346 350
L 348 351
L 349 349
L 351 350
L 353 350
L 355 351
L 357 350
L 359 351
L 361 350
L 363 350
L 365 350
L 367 351
L 369 349
L 371 348
L 373 350
L 375 349
L 377 347
L 379 349
L 381 348
L 383 349
L 385 349
L 387 351
L 389 349
L 391 349
L 393 348
L 394 347
L 396 348
L 398 349
L 400 350
L 402 349
L 404 351
L 406 350
L 408 351
L 410 349
L 412 348
L 414 351
L 416 351
L 418 350
L 420 349
L 422 350
L 424 348
L 426 348
L 428 348
L 430 351
L 432 348
L 434 345
L 436 349
L 437 349
L 439 345
L 441 350
L 443 350
L 445 348
L 447 350
L 449 348
L 451 348
L 453 348
L 455 348
L 457 350
L 459 346
L 461 348
L 463 344
L 465 350
L 467 349
L 469 350
L 471 351
L 473 348
L 475 346
L 477 345
L 479 348
L 481 346
L 482 347
L 484 346
L 486 338
L 488 347
L 490 349
L 492 346
L 494 344
L 496 347
L 498 349
L 500 342
L 502 344
L 504 338
L 506 339
L 508 339
L 510 342
L 512 343
L 514 335
L 516 325
L 518 327
L 520 322
L 522 333
L 524 322
L 526 320
L 527 320
L 529 293
L 531 308
L 533 317
L 535 294
L 537 317
L 539 291
L 541 310
L 543 339
L 545 276
L 547 281
L 549 319
L 551 331
L 553 295
L 555 318
L 557 315
L 559 282
L 561 292
L 563 295
L 565 300
L 567 328
L 569 319
L 570 321
L 572 293
L 574 291
L 576 305
L 578 318
L 580 336
L 582 323
L 584 300
L 586 331
L 588 309
L 590 307
L 592 335
L 594 338
L 596 331
L 598 324
L 600 329
L 602 319
L 604 323
L 606 322
L 608 334
L 610 336
L 612 323
L 614 324
L 615 337
L 617 339
L 619 341
L 621 344
L 623 340
L 625 340
L 627 329
L 629 326
L 631 341
L 633 339
L 635 345
L 637 335
L 639 334
L 641 335
L 643 346
L 645 346
L 647 331
L 649 339
L 651 322
L 653 334
L 655 338
L 657 339
L 659 323
L 660 331
L 662 348
L 664 335
L 666 329
L 668 340
L 670 332
L 672 342
L 674 340
L 676 348
L 678 341
L 680 331
L 682 341
L 684 342
L 686 336
L 688 343
L 690 342
L 692 339
L 694 338
L 696 336
L 698 340
L 700 339
L 702 340
L 703 336
L 705 342
L 707 338
L 709 342
L 711 329
L 713 336
L 715 334
L 717 342
L 719 346
L 721 331
L 723 321
L 725 347
L 727 326
L 729 348
L 731 335
L 733 338
L 735 335
L 737 331
L 739 343
L 741 323
L 743 336
L 745 338
L 747 330
L 748 343
L 750 327
L 752 331
L 754 321
L 756 327
L 758 334
L 760 332
L 762 312
L 764 328
L 766 317
L 768 331
L 770 330
L 772 330
L 774 329
L 776 323
L 778 328
L 780 326
L 782 337
L 784 329
L 786 332
L 788 339
L 790 319
L 792 326
L 793 320
L 795 323
L 797 326
L 799 330
L 801 327
L 803 327
L 805 312
L 807 321
L 809 317
L 811 321
L 813 315
L 815 324
L 817 314
L 819 311
L 821 326
L 823 323
L 825 330
L 827 315
L 829 328
L 831 322
L 833 325
L 835 327
L 836 329
L 838 321
L 840 338
L 842 335
L 844 321
L 846 321
L 848 335
L 850 328
L 852 334
L 854 335
L 856 334
L 858 317
L 860 331
L 862 324
L 864 330
L 866 330
L 868 331
L 870 338
L 872 335
L 874 329
L 876 336
L 878 336
L 880 330
L 881 345
L 883 339
L 885 336
L 887 338
L 889 338
L 891 345
L 893 345
L 895 345
L 897 344
L 899 337
L 901 345
L 903 347
L 905 345
L 907 344
L 909 347
L 911 348
L 913 345
L 915 348
L 917 346
L 919 345
L 921 348
L 923 347
L 925 348
L 926 347
L 928 349
L 930 344
L 932 348
L 934 348
L 936 349
L 938 345
L 940 337
L 942 346
L 944 343
L 946 346
L 948 347
L 950 344
L 952 345
L 954 345
L 956 345
L 958 347
L 960 346
L 962 348
L 964 350
L 966 349
L 968 349
L 969 349" style="stroke-width:1;stroke:rgba(0,217,101,1.0);fill:none"/><path  d="M 38 351
L 40 351
L 42 351
L 44 351
L 46 351
L 48 351
L 50 351
L 52 351
L 54 351
L 56 351
L 58 351
L 60 351
L 62 351
L 64 351
L 66 351
L 68 351
L 70 351
L 72 351
L 74 351
L 76 351
L 78 351
L 80 351
L 82 351
L 83 351
L 85 351
L 87 351
L 89 351
L 91 351
L 93 351
L 95 351
L 97 350
L 99 351
L 101 351
L 103 350
L 105 351
L 107 351
L 109 351
L 111 351
L 113 351
L 115 351
L 117 351
L 119 351
L 121 351
L 123 351
L 125 351
L 127 351
L 128 351
L 130 351
L 132 351
L 134 351
L 136 351
L 138 351
L 140 351
L 142 351
L 144 351
L 146 351
L 148 350
L 150 351
L 152 351
L 154 351
L 156 351
L 158 351
L 160 351
L 162 351
L 164 351
L 166 351
L 168 351
L 170 351
L 171 351
L 173 351
L 175 351
L 177 351
L 179 351
L 181 351
L 183 351
L 185 351
L 187 351
L 189 351
L 191 351
L 193 351
L 195 351
L 197 351
L 199 351
L 201 351
L 203 351
L 205 351
L 207 351
L 209 351
L 211 351
L 213 351
L 215 351
L 216 351
L 218 351
L 220 351
L 222 351
L 224 351
L 226 351
L 228 351
L 230 351
L 232 351
L 234 351
L 236 351
L 238 351
L 240 351
L 242 351
L 244 351
L 246 351
L 248 351
L 250 351
L 252 351
L 254 351
L 256 351
L 258 351
L 260 351
L 261 351
L 263 351
L 265 351
L 267 351
L 269 351
L 271 351
L 273 351
L 275 351
L 277 351
L 279 351
L 281 351
L 283 351
L 285 351
L 287 351
L 289 351
L 291 351
L 293 351
L 295 351
L 297 351
L 299 351
L 301 351
L 303 351
L 304 351
L 306 351
L 308 351
L 310 351
L 312 351
L 314 351
L 316 351
L 318 351
L 320 351
L 322 351
L 324 351
L 326 351
L 328 351
L 330 351
L 332 351
L 334 351
L 336 351
L 338 351
L 340 351
L 342 351
L 344 351
L 346 351
L 348 351
L 349 351
L 351 351
L 353 351
L 355 351
L 357 351
L 359 351
L 361 351
L 363 351
L 365 351
L 367 351
L 369 351
L 371 351
L 373 351
L 375 351
L 377 351
L 379 351
L 381 351
L 383 351
L 385 351
L 387 351
L 389 351
L 391 351
L 393 351
L 394 351
L 396 351
L 398 351
L 400 351
L 402 351
L 404 351
L 406 351
L 408 351
L 410 351
L 412 351
L 414 351
L 416 351
L 418 351
L 420 351
L 422 351
L 424 351
L 426 351
L 428 351
L 430 351
L 432 351
L 434 351
L 436 351
L 437 351
L 439 351
L 441 351
L 443 351
L 445 350
L 447 350
L 449 351
L 451 351
L 453 351
L 455 351
L 457 351
L 459 351
L 461 351
L 463 351
L 465 351
L 467 351
L 469 351
L 471 351
L 473 351
L 475 351
L 477 351
L 479 351
L 481 351
L 482 351
L 484 351
L 486 351
L 488 351
L 490 350
L 492 351
L 494 351
L 496 351
L 498 351
L 500 350
L 502 351
L 504 351
L 506 351
L 508 351
L 510 351
L 512 351
L 514 351
L 516 351
L 518 351
L 520 351
L 522 351
L 524 351
L 526 350
L 527 351
L 529 350
L 531 350
L 533 351
L 535 351
L 537 350
L 539 351
L 541 350
L 543 351
L 545 350
L 547 351
L 549 351
L 551 350
L 553 351
L 555 351
L 557 350
L 559 350
L 561 350
L 563 349
L 565 350
L 567 351
L 569 349
L 570 350
L 572 351
L 574 350
L 576 351
L 578 350
L 580 351
L 582 351
L 584 350
L 586 351
L 588 348
L 590 351
L 592 351
L 594 351
L 596 349
L 598 351
L 600 349
L 602 349
L 604 350
L 606 349
L 608 351
L 610 351
L 612 351
L 614 351
L 615 350
L 617 351
L 619 350
L 621 351
L 623 351
L 625 350
L 627 351
L 629 351
L 631 351
L 633 351
L 635 351
L 637 350
L 639 349
L 641 351
L 643 350
L 645 351
L 647 350
L 649 349
L 651 350
L 653 350
L 655 350
L 657 349
L 659 351
L 660 350
L 662 350
L 664 351
L 666 351
L 668 351
L 670 351
L 672 351
L 674 351
L 676 351
L 678 351
L 680 351
L 682 351
L 684 351
L 686 351
L 688 351
L 690 350
L 692 351
L 694 351
L 696 350
L 698 351
L 700 351
L 702 351
L 703 351
L 705 350
L 707 350
L 709 351
L 711 351
L 713 351
L 715 350
L 717 351
L 719 351
L 721 351
L 723 349
L 725 351
L 727 351
L 729 351
L 731 351
L 733 351
L 735 350
L 737 351
L 739 350
L 741 351
L 743 351
L 745 351
L 747 351
L 748 351
L 750 351
L 752 351
L 754 351
L 756 351
L 758 351
L 760 351
L 762 351
L 764 351
L 766 351
L 768 351
L 770 351
L 772 351
L 774 351
L 776 350
L 778 350
L 780 351
L 782 351
L 784 351
L 786 350
L 788 351
L 790 351
L 792 349
L 793 350
L 795 351
L 797 350
L 799 351
L 801 350
L 803 351
L 805 351
L 807 350
L 809 351
L 811 350
L 813 350
L 815 349
L 817 349
L 819 351
L 821 350
L 823 349
L 825 350
L 827 349
L 829 351
L 831 350
L 833 350
L 835 349
L 836 351
L 838 350
L 840 351
L 842 350
L 844 350
L 846 349
L 848 350
L 850 351
L 852 351
L 854 351
L 856 350
L 858 351
L 860 351
L 862 351
L 864 351
L 866 351
L 868 351
L 870 351
L 872 351
L 874 350
L 876 351
L 878 351
L 880 351
L 881 349
L 883 351
L 885 351
L 887 351
L 889 351
L 891 351
L 893 351
L 895 350
L 897 350
L 899 351
L 901 351
L 903 351
L 905 351
L 907 351
L 909 351
L 911 351
L 913 351
L 915 351
L 917 351
L 919 351
L 921 351
L 923 351
L 925 351
L 926 351
L 928 351
L 930 351
L 932 351
L 934 351
L 936 351
L 938 351
L 940 351
L 942 351
L 944 351
L 946 351
L 948 351
L 950 351
L 952 351
L 954 351
L 956 351
L 958 351
L 960 351
L 962 351
L 964 351
L 966 351
L 968 351
L 969 351" style="stroke-width:1;stroke:rgba(217,0,116,1.0);fill:none"/><text x="369" y="33" style="stroke-width:0;stroke:none;fill:rgba(51,51,51,1.0);font-size:23.0px;font-family:'Roboto Medium',sans-serif">Braunau am Inn 16.06.2021</text><path  d="M 38 11
L 251 11
L 251 91
L 38 91
L 38 11" style="stroke-width:1;stroke:rgba(51,51,51,1.0);fill:rgba(255,255,255,1.0)"/><text x="43" y="26" style="stroke-width:0;stroke:none;fill:rgba(51,51,51,1.0);font-size:10.2px;font-family:'Roboto Medium',sans-serif">Sieben Tage Durschnitt Inzidenz Fälle</text><path  d="M 221 21
L 241 21" style="stroke-width:1;stroke:rgba(0,116,217,1.0);fill:none"/><text x="43" y="56" style="stroke-width:0;stroke:none;fill:rgba(51,51,51,1.0);font-size:10.2px;font-family:'Roboto Medium',sans-serif">Anzahl Faelle</text><path  d="M 110 51
L 241 51" style="stroke-width:1;stroke:rgba(0,217,101,1.0);fill:none"/><text x="43" y="86" style="stroke-width:0;stroke:none;fill:rgba(51,51,51,1.0);font-size:10.2px;font-family:'Roboto Medium',sans-serif">Anzahl Tot</text><path  d="M 98 81
L 241 81" style="stroke-width:1;stroke:rgba(217,0,116,1.0);fill:none"/></svg>