<svg xmlns="http://www.w3.org/2000/svg" xmlns:xlink="http://www.w3.org/1999/xlink" width="1024" height="400">\n<path  d="M 0 0
L 1024 0
L 1024 400
L 0 400
L 0 0" style="stroke-width:0;stroke:rgba(255,255,255,1.0);fill:rgba(255,255,255,1.0)"/><path  d="M 38 11
L 969 11
L 969 351
L 38 351
L 38 11" style="stroke-width:0;stroke:rgba(255,255,255,1.0);fill:rgba(255,255,255,1.0)"/><path  d="M 38 351
L 969 351" style="stroke-width:1;stroke:rgba(51,51,51,1.0);fill:none"/><path  d="M 38 351
L 38 356" style="stroke-width:1;stroke:rgba(51,51,51,1.0);fill:none"/><text x="5" y="373" style="stroke-width:0;stroke:none;fill:rgba(51,51,51,1.0);font-size:12.8px;font-family:'Roboto Medium',sans-serif">2020-02-26</text><path  d="M 155 351
L 155 356" style="stroke-width:1;stroke:rgba(51,51,51,1.0);fill:none"/><text x="122" y="373" style="stroke-width:0;stroke:none;fill:rgba(51,51,51,1.0);font-size:12.8px;font-family:'Roboto Medium',sans-serif">2020-05-02</text><path  d="M 271 351
L 271 356" style="stroke-width:1;stroke:rgba(51,51,51,1.0);fill:none"/><text x="238" y="373" style="stroke-width:0;stroke:none;fill:rgba(51,51,51,1.0);font-size:12.8px;font-family:'Roboto Medium',sans-serif">2020-07-08</text><path  d="M 388 351
L 388 356" style="stroke-width:1;stroke:rgba(51,51,51,1.0);fill:none"/><text x="355" y="373" style="stroke-width:0;stroke:none;fill:rgba(51,51,51,1.0);font-size:12.8px;font-family:'Roboto Medium',sans-serif">2020-09-13</text><path  d="M 504 351
L 504 356" style="stroke-width:1;stroke:rgba(51,51,51,1.0);fill:none"/><text x="471" y="373" style="stroke-width:0;stroke:none;fill:rgba(51,51,51,1.0);font-size:12.8px;font-family:'Roboto Medium',sans-serif">2020-11-19</text><path  d="M 620 351
L 620 356" style="stroke-width:1;stroke:rgba(51,51,51,1.0);fill:none"/><text x="587" y="373" style="stroke-width:0;stroke:none;fill:rgba(51,51,51,1.0);font-size:12.8px;font-family:'Roboto Medium',sans-serif">2021-01-24</text><path  d="M 737 351
L 737 356" style="stroke-width:1;stroke:rgba(51,51,51,1.0);fill:none"/><text x="704" y="373" style="stroke-width:0;stroke:none;fill:rgba(51,51,51,1.0);font-size:12.8px;font-family:'Roboto Medium',sans-serif">2021-04-01</text><path  d="M 853 351
L 853 356" style="stroke-width:1;stroke:rgba(51,51,51,1.0);fill:none"/><text x="820" y="373" style="stroke-width:0;stroke:none;fill:rgba(51,51,51,1.0);font-size:12.8px;font-family:'Roboto Medium',sans-serif">2021-06-07</text><path  d="M 969 351
L 969 356" style="stroke-width:1;stroke:rgba(51,51,51,1.0);fill:none"/><text x="936" y="373" style="stroke-width:0;stroke:none;fill:rgba(51,51,51,1.0);font-size:12.8px;font-family:'Roboto Medium',sans-serif">2021-08-13</text><text x="485" y="395" style="stroke-width:0;stroke:none;fill:rgba(51,51,51,1.0);font-size:12.8px;font-family:'Roboto Medium',sans-serif">Datum</text><path  d="M 970 351
L 970 11" style="stroke-width:1;stroke:rgba(51,51,51,1.0);fill:none"/><path  d="M 970 351
L 975 351" style="stroke-width:1;stroke:rgba(51,51,51,1.0);fill:none"/><text x="980" y="357" style="stroke-width:0;stroke:none;fill:rgba(51,51,51,1.0);font-size:12.8px;font-family:'Roboto Medium',sans-serif">0.00</text><path  d="M 970 308
L 975 308" style="stroke-width:1;stroke:rgba(51,51,51,1.0);fill:none"/><text x="980" y="314" style="stroke-width:0;stroke:none;fill:rgba(51,51,51,1.0);font-size:12.8px;font-family:'Roboto Medium',sans-serif">109.00</text><path  d="M 970 265
L 975 265" style="stroke-width:1;stroke:rgba(51,51,51,1.0);fill:none"/><text x="980" y="271" style="stroke-width:0;stroke:none;fill:rgba(51,51,51,1.0);font-size:12.8px;font-family:'Roboto Medium',sans-serif">218.00</text><path  d="M 970 223
L 975 223" style="stroke-width:1;stroke:rgba(51,51,51,1.0);fill:none"/><text x="980" y="229" style="stroke-width:0;stroke:none;fill:rgba(51,51,51,1.0);font-size:12.8px;font-family:'Roboto Medium',sans-serif">327.00</text><path  d="M 970 181
L 975 181" style="stroke-width:1;stroke:rgba(51,51,51,1.0);fill:none"/><text x="980" y="187" style="stroke-width:0;stroke:none;fill:rgba(51,51,51,1.0);font-size:12.8px;font-family:'Roboto Medium',sans-serif">435.00</text><path  d="M 970 138
L 975 138" style="stroke-width:1;stroke:rgba(51,51,51,1.0);fill:none"/><text x="980" y="144" style="stroke-width:0;stroke:none;fill:rgba(51,51,51,1.0);font-size:12.8px;font-family:'Roboto Medium',sans-serif">544.00</text><path  d="M 970 95
L 975 95" style="stroke-width:1;stroke:rgba(51,51,51,1.0);fill:none"/><text x="980" y="101" style="stroke-width:0;stroke:none;fill:rgba(51,51,51,1.0);font-size:12.8px;font-family:'Roboto Medium',sans-serif">653.00</text><path  d="M 970 53
L 975 53" style="stroke-width:1;stroke:rgba(51,51,51,1.0);fill:none"/><text x="980" y="59" style="stroke-width:0;stroke:none;fill:rgba(51,51,51,1.0);font-size:12.8px;font-family:'Roboto Medium',sans-serif">762.00</text><path  d="M 970 11
L 975 11" style="stroke-width:1;stroke:rgba(51,51,51,1.0);fill:none"/><text x="980" y="17" style="stroke-width:0;stroke:none;fill:rgba(51,51,51,1.0);font-size:12.8px;font-family:'Roboto Medium',sans-serif">870.00</text><path  d="M 38 351
L 40 351
L 42 351
L 44 351
L 45 351
L 47 351
L 49 351
L 51 351
L 52 350
L 54 350
L 56 350
L 58 350
L 59 350
L 61 348
L 63 348
L 65 348
L 66 346
L 68 345
L 70 344
L 72 341
L 73 341
L 75 341
L 77 338
L 79 338
L 80 338
L 82 335
L 84 334
L 86 332
L 87 331
L 89 331
L 91 329
L 93 328
L 94 329
L 96 330
L 98 331
L 100 330
L 101 330
L 103 333
L 105 333
L 106 334
L 108 333
L 110 331
L 112 332
L 113 334
L 115 333
L 117 334
L 119 335
L 120 338
L 122 343
L 124 344
L 126 345
L 127 349
L 129 349
L 131 350
L 133 350
L 134 350
L 136 350
L 138 350
L 140 350
L 141 350
L 143 351
L 145 350
L 147 350
L 148 350
L 150 350
L 152 350
L 154 350
L 155 350
L 157 350
L 159 351
L 161 351
L 162 351
L 164 351
L 166 351
L 168 351
L 169 351
L 171 351
L 173 351
L 174 351
L 176 351
L 178 350
L 180 350
L 181 350
L 183 348
L 185 348
L 187 348
L 188 348
L 190 348
L 192 348
L 194 348
L 195 350
L 197 350
L 199 350
L 201 350
L 202 350
L 204 350
L 206 350
L 208 350
L 209 350
L 211 349
L 213 349
L 215 349
L 216 349
L 218 349
L 220 350
L 222 350
L 223 351
L 225 351
L 227 351
L 229 351
L 230 351
L 232 351
L 234 351
L 236 351
L 237 351
L 239 351
L 241 351
L 242 351
L 244 351
L 246 351
L 248 351
L 249 351
L 251 351
L 253 351
L 255 351
L 256 351
L 258 351
L 260 351
L 262 351
L 263 351
L 265 351
L 267 350
L 269 350
L 270 350
L 272 350
L 274 350
L 276 350
L 277 350
L 279 350
L 281 350
L 283 350
L 284 350
L 286 350
L 288 350
L 290 350
L 291 350
L 293 350
L 295 350
L 297 351
L 298 351
L 300 351
L 302 351
L 304 350
L 305 350
L 307 350
L 309 350
L 310 349
L 312 349
L 314 349
L 316 349
L 317 349
L 319 349
L 321 349
L 323 349
L 324 348
L 326 349
L 328 348
L 330 349
L 331 349
L 333 347
L 335 348
L 337 348
L 338 347
L 340 347
L 342 347
L 344 346
L 345 348
L 347 348
L 349 348
L 351 348
L 352 348
L 354 348
L 356 347
L 358 347
L 359 346
L 361 346
L 363 346
L 365 346
L 366 345
L 368 346
L 370 346
L 371 345
L 373 344
L 375 344
L 377 344
L 378 343
L 380 343
L 382 341
L 384 336
L 385 336
L 387 336
L 389 335
L 391 335
L 392 333
L 394 331
L 396 333
L 398 329
L 399 326
L 401 325
L 403 325
L 405 325
L 406 327
L 408 328
L 410 327
L 412 331
L 413 332
L 415 333
L 417 334
L 419 332
L 420 331
L 422 334
L 424 331
L 426 331
L 427 329
L 429 327
L 431 328
L 433 328
L 434 320
L 436 317
L 438 313
L 439 315
L 441 311
L 443 300
L 445 293
L 446 289
L 448 288
L 450 288
L 452 283
L 453 276
L 455 279
L 457 264
L 459 262
L 460 258
L 462 252
L 464 236
L 466 237
L 467 221
L 469 205
L 471 196
L 473 170
L 474 158
L 476 137
L 478 101
L 480 85
L 481 81
L 483 72
L 485 75
L 487 48
L 488 37
L 490 53
L 492 11
L 494 28
L 495 30
L 497 38
L 499 63
L 501 81
L 502 79
L 504 133
L 506 143
L 507 142
L 509 159
L 511 175
L 513 199
L 514 202
L 516 210
L 518 208
L 520 231
L 521 233
L 523 241
L 525 236
L 527 254
L 528 266
L 530 269
L 532 259
L 534 257
L 535 249
L 537 258
L 539 263
L 541 260
L 542 269
L 544 275
L 546 277
L 548 282
L 549 277
L 551 277
L 553 282
L 555 281
L 556 283
L 558 285
L 560 287
L 562 289
L 563 280
L 565 286
L 567 289
L 569 299
L 570 296
L 572 288
L 574 280
L 575 289
L 577 287
L 579 288
L 581 288
L 582 286
L 584 286
L 586 294
L 588 294
L 589 296
L 591 291
L 593 287
L 595 293
L 596 299
L 598 303
L 600 307
L 602 306
L 603 308
L 605 310
L 607 308
L 609 305
L 610 304
L 612 301
L 614 278
L 616 278
L 617 277
L 619 277
L 621 279
L 623 277
L 624 282
L 626 305
L 628 309
L 630 310
L 631 315
L 633 317
L 635 318
L 637 319
L 638 321
L 640 323
L 642 322
L 643 322
L 645 322
L 647 325
L 649 327
L 650 327
L 652 330
L 654 331
L 656 331
L 657 334
L 659 337
L 661 335
L 663 338
L 664 338
L 666 340
L 668 340
L 670 338
L 671 337
L 673 338
L 675 334
L 677 332
L 678 329
L 680 330
L 682 329
L 684 329
L 685 327
L 687 325
L 689 328
L 691 328
L 692 329
L 694 329
L 696 325
L 698 326
L 699 329
L 701 329
L 703 329
L 704 327
L 706 329
L 708 331
L 710 329
L 711 327
L 713 323
L 715 323
L 717 319
L 718 312
L 720 309
L 722 306
L 724 301
L 725 294
L 727 292
L 729 290
L 731 294
L 732 294
L 734 294
L 736 297
L 738 301
L 739 301
L 741 307
L 743 310
L 745 305
L 746 304
L 748 300
L 750 297
L 752 292
L 753 290
L 755 281
L 757 279
L 759 276
L 760 275
L 762 278
L 764 277
L 766 267
L 767 268
L 769 269
L 771 264
L 772 255
L 774 248
L 776 242
L 778 242
L 779 238
L 781 236
L 783 236
L 785 240
L 786 233
L 788 240
L 790 247
L 792 249
L 793 253
L 795 261
L 797 266
L 799 274
L 800 278
L 802 283
L 804 287
L 806 287
L 807 289
L 809 290
L 811 299
L 813 294
L 814 294
L 816 299
L 818 302
L 820 305
L 821 309
L 823 309
L 825 312
L 827 313
L 828 313
L 830 315
L 832 314
L 834 313
L 835 315
L 837 318
L 839 315
L 840 314
L 842 314
L 844 315
L 846 320
L 847 323
L 849 322
L 851 327
L 853 331
L 854 331
L 856 334
L 858 334
L 860 335
L 861 339
L 863 339
L 865 339
L 867 344
L 868 346
L 870 346
L 872 346
L 874 347
L 875 347
L 877 347
L 879 346
L 881 346
L 882 347
L 884 347
L 886 347
L 888 347
L 889 348
L 891 348
L 893 347
L 895 347
L 896 347
L 898 346
L 900 347
L 902 348
L 903 348
L 905 348
L 907 349
L 908 349
L 910 349
L 912 349
L 914 348
L 915 347
L 917 344
L 919 344
L 921 340
L 922 338
L 924 337
L 926 335
L 928 331
L 929 333
L 931 332
L 933 335
L 935 335
L 936 334
L 938 336
L 940 338
L 942 338
L 943 338
L 945 334
L 947 334
L 949 334
L 950 332
L 952 331
L 954 330
L 956 329
L 957 332
L 959 332
L 961 334
L 963 332
L 964 332
L 966 330
L 968 328
L 969 325" style="stroke-width:1;stroke:rgba(0,116,217,1.0);fill:none"/><path  d="M 38 351
L 40 351
L 42 351
L 44 351
L 45 351
L 47 351
L 49 351
L 51 351
L 52 350
L 54 350
L 56 351
L 58 351
L 59 351
L 61 348
L 63 350
L 65 350
L 66 348
L 68 349
L 70 350
L 72 346
L 73 348
L 75 350
L 77 347
L 79 347
L 80 349
L 82 346
L 84 345
L 86 346
L 87 349
L 89 346
L 91 344
L 93 348
L 94 347
L 96 347
L 98 347
L 100 347
L 101 346
L 103 347
L 105 348
L 106 348
L 108 347
L 110 343
L 112 349
L 113 348
L 115 346
L 117 350
L 119 350
L 120 351
L 122 351
L 124 350
L 126 350
L 127 351
L 129 351
L 131 350
L 133 351
L 134 351
L 136 351
L 138 351
L 140 351
L 141 351
L 143 351
L 145 350
L 147 350
L 148 351
L 150 351
L 152 351
L 154 351
L 155 351
L 157 351
L 159 351
L 161 351
L 162 351
L 164 351
L 166 351
L 168 351
L 169 351
L 171 351
L 173 351
L 174 351
L 176 351
L 178 350
L 180 350
L 181 351
L 183 348
L 185 351
L 187 350
L 188 350
L 190 351
L 192 351
L 194 351
L 195 351
L 197 351
L 199 350
L 201 351
L 202 351
L 204 351
L 206 351
L 208 350
L 209 351
L 211 350
L 213 351
L 215 351
L 216 351
L 218 351
L 220 351
L 222 351
L 223 351
L 225 351
L 227 351
L 229 351
L 230 351
L 232 351
L 234 351
L 236 351
L 237 351
L 239 351
L 241 351
L 242 351
L 244 351
L 246 351
L 248 351
L 249 351
L 251 351
L 253 351
L 255 351
L 256 351
L 258 351
L 260 351
L 262 351
L 263 351
L 265 351
L 267 350
L 269 351
L 270 350
L 272 351
L 274 351
L 276 351
L 277 350
L 279 351
L 281 351
L 283 350
L 284 350
L 286 351
L 288 351
L 290 351
L 291 351
L 293 351
L 295 351
L 297 351
L 298 351
L 300 351
L 302 351
L 304 350
L 305 351
L 307 350
L 309 351
L 310 350
L 312 351
L 314 350
L 316 351
L 317 350
L 319 350
L 321 351
L 323 349
L 324 350
L 326 351
L 328 350
L 330 351
L 331 350
L 333 349
L 335 350
L 337 351
L 338 350
L 340 350
L 342 350
L 344 349
L 345 351
L 347 351
L 349 351
L 351 350
L 352 349
L 354 351
L 356 348
L 358 350
L 359 350
L 361 351
L 363 349
L 365 349
L 366 350
L 368 349
L 370 349
L 371 349
L 373 350
L 375 349
L 377 349
L 378 349
L 380 349
L 382 347
L 384 343
L 385 350
L 387 349
L 389 347
L 391 348
L 392 347
L 394 344
L 396 345
L 398 345
L 399 344
L 401 345
L 403 349
L 405 346
L 406 347
L 408 347
L 410 344
L 412 349
L 413 347
L 415 350
L 417 347
L 419 343
L 420 346
L 422 348
L 424 345
L 426 347
L 427 347
L 429 345
L 431 345
L 433 346
L 434 336
L 436 342
L 438 342
L 439 350
L 441 339
L 443 330
L 445 337
L 446 331
L 448 340
L 450 343
L 452 343
L 453 329
L 455 334
L 457 316
L 459 328
L 460 336
L 462 334
L 464 321
L 466 331
L 467 312
L 469 294
L 471 316
L 473 301
L 474 318
L 476 293
L 478 282
L 480 291
L 481 289
L 483 304
L 485 304
L 487 281
L 488 279
L 490 303
L 492 234
L 494 311
L 495 308
L 497 315
L 499 315
L 501 303
L 502 301
L 504 307
L 506 324
L 507 307
L 509 338
L 511 336
L 513 336
L 514 304
L 516 318
L 518 322
L 520 338
L 521 340
L 523 347
L 525 331
L 527 328
L 528 334
L 530 326
L 532 324
L 534 337
L 535 336
L 537 343
L 539 334
L 541 330
L 542 338
L 544 332
L 546 340
L 548 343
L 549 336
L 551 335
L 553 336
L 555 338
L 556 334
L 558 342
L 560 346
L 562 339
L 563 323
L 565 344
L 567 342
L 569 348
L 570 338
L 572 336
L 574 328
L 575 335
L 577 340
L 579 343
L 581 349
L 582 336
L 584 336
L 586 339
L 588 334
L 589 343
L 591 336
L 593 343
L 595 344
L 596 345
L 598 344
L 600 340
L 602 342
L 603 338
L 605 345
L 607 342
L 609 340
L 610 342
L 612 336
L 614 311
L 616 338
L 617 344
L 619 342
L 621 343
L 623 340
L 624 344
L 626 342
L 628 342
L 630 346
L 631 348
L 633 346
L 635 341
L 637 345
L 638 346
L 640 345
L 642 345
L 643 348
L 645 345
L 647 345
L 649 348
L 650 347
L 652 349
L 654 346
L 656 348
L 657 350
L 659 349
L 661 345
L 663 350
L 664 348
L 666 349
L 668 348
L 670 347
L 671 347
L 673 348
L 675 344
L 677 345
L 678 346
L 680 348
L 682 346
L 684 347
L 685 345
L 687 342
L 689 348
L 691 347
L 692 349
L 694 346
L 696 342
L 698 346
L 699 346
L 701 348
L 703 347
L 704 347
L 706 347
L 708 346
L 710 343
L 711 344
L 713 342
L 715 347
L 717 342
L 718 338
L 720 343
L 722 338
L 724 338
L 725 333
L 727 344
L 729 339
L 731 343
L 732 343
L 734 338
L 736 342
L 738 339
L 739 344
L 741 346
L 743 348
L 745 335
L 746 336
L 748 336
L 750 336
L 752 337
L 753 342
L 755 336
L 757 332
L 759 333
L 760 335
L 762 340
L 764 336
L 766 328
L 767 337
L 769 334
L 771 326
L 772 323
L 774 331
L 776 327
L 778 329
L 779 331
L 781 331
L 783 326
L 785 328
L 786 322
L 788 337
L 790 338
L 792 334
L 793 337
L 795 336
L 797 335
L 799 332
L 800 343
L 802 344
L 804 340
L 806 338
L 807 339
L 809 336
L 811 343
L 813 338
L 814 344
L 816 346
L 818 342
L 820 343
L 821 343
L 823 343
L 825 342
L 827 345
L 828 345
L 830 344
L 832 342
L 834 341
L 835 345
L 837 346
L 839 342
L 840 345
L 842 343
L 844 344
L 846 349
L 847 349
L 849 344
L 851 348
L 853 350
L 854 343
L 856 348
L 858 349
L 860 350
L 861 349
L 863 349
L 865 350
L 867 351
L 868 350
L 870 349
L 872 350
L 874 350
L 875 349
L 877 349
L 879 350
L 881 350
L 882 350
L 884 350
L 886 350
L 888 349
L 889 350
L 891 350
L 893 350
L 895 349
L 896 350
L 898 350
L 900 351
L 902 351
L 903 351
L 905 351
L 907 349
L 908 350
L 910 351
L 912 350
L 914 349
L 915 350
L 917 347
L 919 349
L 921 345
L 922 348
L 924 348
L 926 346
L 928 345
L 929 349
L 931 347
L 933 349
L 935 348
L 936 347
L 938 349
L 940 348
L 942 349
L 943 347
L 945 344
L 947 348
L 949 346
L 950 347
L 952 346
L 954 348
L 956 345
L 957 349
L 959 347
L 961 349
L 963 344
L 964 346
L 966 346
L 968 342
L 969 345" style="stroke-width:1;stroke:rgba(0,217,101,1.0);fill:none"/><path  d="M 38 351
L 40 351
L 42 351
L 44 351
L 45 351
L 47 351
L 49 351
L 51 351
L 52 351
L 54 351
L 56 351
L 58 351
L 59 351
L 61 351
L 63 351
L 65 351
L 66 351
L 68 351
L 70 351
L 72 351
L 73 351
L 75 351
L 77 351
L 79 351
L 80 351
L 82 351
L 84 351
L 86 351
L 87 351
L 89 351
L 91 351
L 93 351
L 94 351
L 96 350
L 98 351
L 100 351
L 101 351
L 103 351
L 105 350
L 106 351
L 108 351
L 110 351
L 112 351
L 113 351
L 115 351
L 117 351
L 119 351
L 120 351
L 122 350
L 124 351
L 126 351
L 127 350
L 129 350
L 131 351
L 133 351
L 134 351
L 136 351
L 138 351
L 140 351
L 141 351
L 143 350
L 145 350
L 147 351
L 148 351
L 150 350
L 152 351
L 154 351
L 155 351
L 157 351
L 159 351
L 161 351
L 162 351
L 164 351
L 166 351
L 168 351
L 169 351
L 171 351
L 173 351
L 174 351
L 176 351
L 178 351
L 180 351
L 181 351
L 183 351
L 185 351
L 187 351
L 188 351
L 190 351
L 192 351
L 194 351
L 195 351
L 197 351
L 199 351
L 201 351
L 202 351
L 204 351
L 206 351
L 208 351
L 209 351
L 211 351
L 213 351
L 215 351
L 216 351
L 218 351
L 220 351
L 222 351
L 223 351
L 225 351
L 227 351
L 229 351
L 230 351
L 232 351
L 234 351
L 236 351
L 237 351
L 239 351
L 241 351
L 242 351
L 244 351
L 246 351
L 248 351
L 249 351
L 251 351
L 253 351
L 255 351
L 256 351
L 258 351
L 260 351
L 262 351
L 263 351
L 265 351
L 267 351
L 269 351
L 270 351
L 272 351
L 274 351
L 276 351
L 277 351
L 279 351
L 281 351
L 283 351
L 284 351
L 286 351
L 288 351
L 290 351
L 291 351
L 293 351
L 295 351
L 297 351
L 298 351
L 300 351
L 302 351
L 304 351
L 305 351
L 307 351
L 309 351
L 310 351
L 312 351
L 314 351
L 316 351
L 317 351
L 319 351
L 321 351
L 323 351
L 324 351
L 326 351
L 328 351
L 330 351
L 331 351
L 333 351
L 335 351
L 337 351
L 338 351
L 340 351
L 342 351
L 344 351
L 345 351
L 347 351
L 349 351
L 351 351
L 352 351
L 354 351
L 356 351
L 358 351
L 359 351
L 361 351
L 363 351
L 365 351
L 366 351
L 368 351
L 370 351
L 371 351
L 373 351
L 375 351
L 377 351
L 378 351
L 380 351
L 382 351
L 384 351
L 385 351
L 387 351
L 389 351
L 391 351
L 392 351
L 394 351
L 396 351
L 398 351
L 399 351
L 401 351
L 403 351
L 405 351
L 406 351
L 408 351
L 410 351
L 412 351
L 413 351
L 415 351
L 417 351
L 419 351
L 420 351
L 422 351
L 424 351
L 426 351
L 427 351
L 429 351
L 431 351
L 433 350
L 434 351
L 436 351
L 438 351
L 439 351
L 441 351
L 443 351
L 445 351
L 446 350
L 448 351
L 450 351
L 452 351
L 453 351
L 455 351
L 457 351
L 459 351
L 460 350
L 462 351
L 464 351
L 466 351
L 467 351
L 469 351
L 471 350
L 473 351
L 474 351
L 476 350
L 478 350
L 480 351
L 481 351
L 483 350
L 485 350
L 487 351
L 488 350
L 490 351
L 492 351
L 494 349
L 495 351
L 497 350
L 499 351
L 501 351
L 502 349
L 504 350
L 506 349
L 507 350
L 509 350
L 511 350
L 513 351
L 514 350
L 516 349
L 518 349
L 520 351
L 521 350
L 523 350
L 525 351
L 527 350
L 528 349
L 530 350
L 532 349
L 534 350
L 535 350
L 537 351
L 539 350
L 541 350
L 542 349
L 544 350
L 546 350
L 548 351
L 549 351
L 551 351
L 553 351
L 555 351
L 556 351
L 558 351
L 560 351
L 562 351
L 563 351
L 565 350
L 567 351
L 569 350
L 570 351
L 572 351
L 574 351
L 575 350
L 577 350
L 579 350
L 581 350
L 582 351
L 584 351
L 586 351
L 588 351
L 589 351
L 591 351
L 593 351
L 595 350
L 596 351
L 598 351
L 600 350
L 602 351
L 603 351
L 605 350
L 607 351
L 609 350
L 610 350
L 612 351
L 614 351
L 616 351
L 617 351
L 619 351
L 621 351
L 623 350
L 624 351
L 626 351
L 628 351
L 630 351
L 631 351
L 633 351
L 635 351
L 637 351
L 638 351
L 640 351
L 642 351
L 643 351
L 645 351
L 647 351
L 649 351
L 650 351
L 652 351
L 654 351
L 656 351
L 657 351
L 659 351
L 661 350
L 663 351
L 664 351
L 666 351
L 668 351
L 670 351
L 671 351
L 673 351
L 675 351
L 677 351
L 678 351
L 680 350
L 682 351
L 684 351
L 685 351
L 687 351
L 689 351
L 691 350
L 692 351
L 694 351
L 696 351
L 698 350
L 699 351
L 701 351
L 703 351
L 704 350
L 706 350
L 708 351
L 710 351
L 711 351
L 713 351
L 715 351
L 717 351
L 718 351
L 720 351
L 722 351
L 724 351
L 725 351
L 727 351
L 729 351
L 731 351
L 732 351
L 734 351
L 736 351
L 738 351
L 739 351
L 741 351
L 743 351
L 745 351
L 746 351
L 748 351
L 750 350
L 752 351
L 753 351
L 755 351
L 757 351
L 759 351
L 760 351
L 762 351
L 764 351
L 766 351
L 767 351
L 769 351
L 771 351
L 772 351
L 774 351
L 776 350
L 778 351
L 779 351
L 781 351
L 783 351
L 785 350
L 786 351
L 788 351
L 790 350
L 792 351
L 793 351
L 795 351
L 797 350
L 799 350
L 800 351
L 802 351
L 804 351
L 806 351
L 807 351
L 809 351
L 811 351
L 813 351
L 814 350
L 816 351
L 818 351
L 820 351
L 821 351
L 823 351
L 825 351
L 827 351
L 828 351
L 830 351
L 832 351
L 834 351
L 835 351
L 837 351
L 839 351
L 840 351
L 842 351
L 844 351
L 846 351
L 847 351
L 849 351
L 851 351
L 853 351
L 854 351
L 856 351
L 858 351
L 860 350
L 861 351
L 863 351
L 865 351
L 867 351
L 868 351
L 870 351
L 872 351
L 874 351
L 875 351
L 877 350
L 879 351
L 881 351
L 882 351
L 884 351
L 886 351
L 888 351
L 889 351
L 891 351
L 893 351
L 895 351
L 896 351
L 898 351
L 900 351
L 902 351
L 903 351
L 905 351
L 907 351
L 908 351
L 910 351
L 912 351
L 914 351
L 915 351
L 917 351
L 919 351
L 921 351
L 922 351
L 924 351
L 926 351
L 928 351
L 929 351
L 931 351
L 933 351
L 935 351
L 936 351
L 938 351
L 940 351
L 942 351
L 943 351
L 945 351
L 947 351
L 949 351
L 950 351
L 952 351
L 954 351
L 956 351
L 957 351
L 959 351
L 961 351
L 963 351
L 964 351
L 966 351
L 968 351
L 969 351" style="stroke-width:1;stroke:rgba(217,0,116,1.0);fill:none"/><text x="408" y="33" style="stroke-width:0;stroke:none;fill:rgba(51,51,51,1.0);font-size:23.0px;font-family:'Roboto Medium',sans-serif">Bregenz 13.08.2021</text><path  d="M 38 11
L 251 11
L 251 91
L 38 91
L 38 11" style="stroke-width:1;stroke:rgba(51,51,51,1.0);fill:rgba(255,255,255,1.0)"/><text x="43" y="26" style="stroke-width:0;stroke:none;fill:rgba(51,51,51,1.0);font-size:10.2px;font-family:'Roboto Medium',sans-serif">Sieben Tage Durschnitt Inzidenz Fälle</text><path  d="M 221 21
L 241 21" style="stroke-width:1;stroke:rgba(0,116,217,1.0);fill:none"/><text x="43" y="56" style="stroke-width:0;stroke:none;fill:rgba(51,51,51,1.0);font-size:10.2px;font-family:'Roboto Medium',sans-serif">Anzahl Faelle</text><path  d="M 110 51
L 241 51" style="stroke-width:1;stroke:rgba(0,217,101,1.0);fill:none"/><text x="43" y="86" style="stroke-width:0;stroke:none;fill:rgba(51,51,51,1.0);font-size:10.2px;font-family:'Roboto Medium',sans-serif">Anzahl Tot</text><path  d="M 98 81
L 241 81" style="stroke-width:1;stroke:rgba(217,0,116,1.0);fill:none"/></svg>