<svg xmlns="http://www.w3.org/2000/svg" xmlns:xlink="http://www.w3.org/1999/xlink" width="1024" height="400">\n<path  d="M 0 0
L 1024 0
L 1024 400
L 0 400
L 0 0" style="stroke-width:0;stroke:rgba(255,255,255,1.0);fill:rgba(255,255,255,1.0)"/><path  d="M 38 11
L 969 11
L 969 351
L 38 351
L 38 11" style="stroke-width:0;stroke:rgba(255,255,255,1.0);fill:rgba(255,255,255,1.0)"/><path  d="M 38 351
L 969 351" style="stroke-width:1;stroke:rgba(51,51,51,1.0);fill:none"/><path  d="M 38 351
L 38 356" style="stroke-width:1;stroke:rgba(51,51,51,1.0);fill:none"/><text x="5" y="373" style="stroke-width:0;stroke:none;fill:rgba(51,51,51,1.0);font-size:12.8px;font-family:'Roboto Medium',sans-serif">2020-02-26</text><path  d="M 155 351
L 155 356" style="stroke-width:1;stroke:rgba(51,51,51,1.0);fill:none"/><text x="122" y="373" style="stroke-width:0;stroke:none;fill:rgba(51,51,51,1.0);font-size:12.8px;font-family:'Roboto Medium',sans-serif">2020-05-12</text><path  d="M 271 351
L 271 356" style="stroke-width:1;stroke:rgba(51,51,51,1.0);fill:none"/><text x="238" y="373" style="stroke-width:0;stroke:none;fill:rgba(51,51,51,1.0);font-size:12.8px;font-family:'Roboto Medium',sans-serif">2020-07-27</text><path  d="M 388 351
L 388 356" style="stroke-width:1;stroke:rgba(51,51,51,1.0);fill:none"/><text x="355" y="373" style="stroke-width:0;stroke:none;fill:rgba(51,51,51,1.0);font-size:12.8px;font-family:'Roboto Medium',sans-serif">2020-10-11</text><path  d="M 504 351
L 504 356" style="stroke-width:1;stroke:rgba(51,51,51,1.0);fill:none"/><text x="471" y="373" style="stroke-width:0;stroke:none;fill:rgba(51,51,51,1.0);font-size:12.8px;font-family:'Roboto Medium',sans-serif">2020-12-26</text><path  d="M 620 351
L 620 356" style="stroke-width:1;stroke:rgba(51,51,51,1.0);fill:none"/><text x="587" y="373" style="stroke-width:0;stroke:none;fill:rgba(51,51,51,1.0);font-size:12.8px;font-family:'Roboto Medium',sans-serif">2021-03-12</text><path  d="M 737 351
L 737 356" style="stroke-width:1;stroke:rgba(51,51,51,1.0);fill:none"/><text x="704" y="373" style="stroke-width:0;stroke:none;fill:rgba(51,51,51,1.0);font-size:12.8px;font-family:'Roboto Medium',sans-serif">2021-05-27</text><path  d="M 853 351
L 853 356" style="stroke-width:1;stroke:rgba(51,51,51,1.0);fill:none"/><text x="820" y="373" style="stroke-width:0;stroke:none;fill:rgba(51,51,51,1.0);font-size:12.8px;font-family:'Roboto Medium',sans-serif">2021-08-11</text><path  d="M 969 351
L 969 356" style="stroke-width:1;stroke:rgba(51,51,51,1.0);fill:none"/><text x="936" y="373" style="stroke-width:0;stroke:none;fill:rgba(51,51,51,1.0);font-size:12.8px;font-family:'Roboto Medium',sans-serif">2021-10-26</text><text x="485" y="395" style="stroke-width:0;stroke:none;fill:rgba(51,51,51,1.0);font-size:12.8px;font-family:'Roboto Medium',sans-serif">Datum</text><path  d="M 970 351
L 970 11" style="stroke-width:1;stroke:rgba(51,51,51,1.0);fill:none"/><path  d="M 970 351
L 975 351" style="stroke-width:1;stroke:rgba(51,51,51,1.0);fill:none"/><text x="980" y="357" style="stroke-width:0;stroke:none;fill:rgba(51,51,51,1.0);font-size:12.8px;font-family:'Roboto Medium',sans-serif">0.00</text><path  d="M 970 308
L 975 308" style="stroke-width:1;stroke:rgba(51,51,51,1.0);fill:none"/><text x="980" y="314" style="stroke-width:0;stroke:none;fill:rgba(51,51,51,1.0);font-size:12.8px;font-family:'Roboto Medium',sans-serif">110.00</text><path  d="M 970 266
L 975 266" style="stroke-width:1;stroke:rgba(51,51,51,1.0);fill:none"/><text x="980" y="272" style="stroke-width:0;stroke:none;fill:rgba(51,51,51,1.0);font-size:12.8px;font-family:'Roboto Medium',sans-serif">220.00</text><path  d="M 970 223
L 975 223" style="stroke-width:1;stroke:rgba(51,51,51,1.0);fill:none"/><text x="980" y="229" style="stroke-width:0;stroke:none;fill:rgba(51,51,51,1.0);font-size:12.8px;font-family:'Roboto Medium',sans-serif">330.00</text><path  d="M 970 181
L 975 181" style="stroke-width:1;stroke:rgba(51,51,51,1.0);fill:none"/><text x="980" y="187" style="stroke-width:0;stroke:none;fill:rgba(51,51,51,1.0);font-size:12.8px;font-family:'Roboto Medium',sans-serif">440.00</text><path  d="M 970 138
L 975 138" style="stroke-width:1;stroke:rgba(51,51,51,1.0);fill:none"/><text x="980" y="144" style="stroke-width:0;stroke:none;fill:rgba(51,51,51,1.0);font-size:12.8px;font-family:'Roboto Medium',sans-serif">550.00</text><path  d="M 970 96
L 975 96" style="stroke-width:1;stroke:rgba(51,51,51,1.0);fill:none"/><text x="980" y="102" style="stroke-width:0;stroke:none;fill:rgba(51,51,51,1.0);font-size:12.8px;font-family:'Roboto Medium',sans-serif">660.00</text><path  d="M 970 53
L 975 53" style="stroke-width:1;stroke:rgba(51,51,51,1.0);fill:none"/><text x="980" y="59" style="stroke-width:0;stroke:none;fill:rgba(51,51,51,1.0);font-size:12.8px;font-family:'Roboto Medium',sans-serif">770.00</text><path  d="M 970 11
L 975 11" style="stroke-width:1;stroke:rgba(51,51,51,1.0);fill:none"/><text x="980" y="17" style="stroke-width:0;stroke:none;fill:rgba(51,51,51,1.0);font-size:12.8px;font-family:'Roboto Medium',sans-serif">880.00</text><path  d="M 38 351
L 40 351
L 42 351
L 43 351
L 45 351
L 46 351
L 48 351
L 49 351
L 51 350
L 52 350
L 54 350
L 55 350
L 57 350
L 58 348
L 60 348
L 61 348
L 63 346
L 65 345
L 66 345
L 68 341
L 69 341
L 71 341
L 72 339
L 74 338
L 75 338
L 77 335
L 78 334
L 80 333
L 81 332
L 83 331
L 84 329
L 86 328
L 87 329
L 89 331
L 91 331
L 92 331
L 94 331
L 95 333
L 97 333
L 98 334
L 100 334
L 101 331
L 103 332
L 104 334
L 106 333
L 107 334
L 109 335
L 110 338
L 112 343
L 114 344
L 115 345
L 117 349
L 118 349
L 120 350
L 121 350
L 123 350
L 124 350
L 126 350
L 127 350
L 129 350
L 130 351
L 132 350
L 133 350
L 135 350
L 136 350
L 138 350
L 140 350
L 141 350
L 143 350
L 144 351
L 146 351
L 147 351
L 149 351
L 150 351
L 152 351
L 153 351
L 155 351
L 156 351
L 158 351
L 159 351
L 161 350
L 163 350
L 164 350
L 166 348
L 167 348
L 169 348
L 170 348
L 172 348
L 173 348
L 175 348
L 176 350
L 178 350
L 179 350
L 181 350
L 182 350
L 184 350
L 185 350
L 187 350
L 189 350
L 190 349
L 192 349
L 193 349
L 195 349
L 196 349
L 198 350
L 199 350
L 201 351
L 202 351
L 204 351
L 205 351
L 207 351
L 208 351
L 210 351
L 212 351
L 213 351
L 215 351
L 216 351
L 218 351
L 219 351
L 221 351
L 222 351
L 224 351
L 225 351
L 227 351
L 228 351
L 230 351
L 231 351
L 233 351
L 234 351
L 236 351
L 238 351
L 239 350
L 241 350
L 242 350
L 244 350
L 245 350
L 247 350
L 248 350
L 250 350
L 251 350
L 253 350
L 254 350
L 256 350
L 257 350
L 259 350
L 261 350
L 262 350
L 264 350
L 265 351
L 267 351
L 268 351
L 270 351
L 271 350
L 273 350
L 274 350
L 276 350
L 277 349
L 279 349
L 280 349
L 282 349
L 283 349
L 285 349
L 287 349
L 288 349
L 290 349
L 291 349
L 293 348
L 294 349
L 296 349
L 297 347
L 299 347
L 300 348
L 302 347
L 303 347
L 305 347
L 306 346
L 308 348
L 310 348
L 311 348
L 313 348
L 314 348
L 316 348
L 317 347
L 319 347
L 320 347
L 322 347
L 323 346
L 325 346
L 326 346
L 328 346
L 329 346
L 331 345
L 332 344
L 334 344
L 336 344
L 337 343
L 339 343
L 340 341
L 342 337
L 343 337
L 345 337
L 346 335
L 348 335
L 349 333
L 351 331
L 352 333
L 354 330
L 355 326
L 357 325
L 359 326
L 360 325
L 362 327
L 363 328
L 365 327
L 366 331
L 368 333
L 369 333
L 371 334
L 372 332
L 374 331
L 375 334
L 377 331
L 378 331
L 380 329
L 381 327
L 383 328
L 385 328
L 386 320
L 388 317
L 389 313
L 391 316
L 392 311
L 394 301
L 395 294
L 397 290
L 398 289
L 400 289
L 401 284
L 403 277
L 404 280
L 406 265
L 408 263
L 409 259
L 411 254
L 412 238
L 414 239
L 415 223
L 417 207
L 418 198
L 420 173
L 421 160
L 423 139
L 424 103
L 426 86
L 427 83
L 429 74
L 430 76
L 432 50
L 434 40
L 435 56
L 437 14
L 438 30
L 440 33
L 441 41
L 443 66
L 444 84
L 446 82
L 447 136
L 449 146
L 450 144
L 452 161
L 453 177
L 455 201
L 457 203
L 458 211
L 460 209
L 461 233
L 463 235
L 464 242
L 466 238
L 467 256
L 469 268
L 470 270
L 472 260
L 473 257
L 475 250
L 476 259
L 478 263
L 479 260
L 481 270
L 483 276
L 484 278
L 486 283
L 487 278
L 489 279
L 490 283
L 492 283
L 493 284
L 495 286
L 496 288
L 498 290
L 499 281
L 501 286
L 502 289
L 504 299
L 506 296
L 507 289
L 509 280
L 510 289
L 512 287
L 513 287
L 515 288
L 516 286
L 518 286
L 519 296
L 521 295
L 522 297
L 524 293
L 525 288
L 527 294
L 528 301
L 530 304
L 532 308
L 533 307
L 535 308
L 536 311
L 538 309
L 539 306
L 541 305
L 542 302
L 544 280
L 545 279
L 547 278
L 548 277
L 550 279
L 551 277
L 553 283
L 555 305
L 556 309
L 558 310
L 559 315
L 561 317
L 562 318
L 564 319
L 565 321
L 567 323
L 568 322
L 570 323
L 571 322
L 573 325
L 574 327
L 576 327
L 577 330
L 579 331
L 581 331
L 582 335
L 584 337
L 585 336
L 587 338
L 588 338
L 590 340
L 591 340
L 593 338
L 594 337
L 596 339
L 597 334
L 599 332
L 600 330
L 602 330
L 604 329
L 605 329
L 607 327
L 608 326
L 610 328
L 611 329
L 613 329
L 614 329
L 616 325
L 617 326
L 619 329
L 620 329
L 622 329
L 623 328
L 625 329
L 626 332
L 628 329
L 630 327
L 631 323
L 633 323
L 634 319
L 636 312
L 637 310
L 639 306
L 640 301
L 642 295
L 643 293
L 645 290
L 646 294
L 648 294
L 649 294
L 651 298
L 653 302
L 654 302
L 656 307
L 657 311
L 659 305
L 660 305
L 662 301
L 663 298
L 665 293
L 666 290
L 668 281
L 669 279
L 671 277
L 672 275
L 674 279
L 675 278
L 677 268
L 679 269
L 680 270
L 682 265
L 683 256
L 685 250
L 686 243
L 688 243
L 689 239
L 691 237
L 692 237
L 694 241
L 695 234
L 697 241
L 698 248
L 700 250
L 702 255
L 703 262
L 705 267
L 706 275
L 708 279
L 709 283
L 711 287
L 712 288
L 714 290
L 715 290
L 717 299
L 718 295
L 720 295
L 721 299
L 723 302
L 724 305
L 726 310
L 728 309
L 729 313
L 731 314
L 732 313
L 734 315
L 735 315
L 737 313
L 738 315
L 740 318
L 741 315
L 743 315
L 744 314
L 746 315
L 747 321
L 749 324
L 751 322
L 752 327
L 754 331
L 755 331
L 757 334
L 758 335
L 760 335
L 761 339
L 763 339
L 764 339
L 766 345
L 767 346
L 769 346
L 770 346
L 772 347
L 773 347
L 775 347
L 777 347
L 778 347
L 780 347
L 781 347
L 783 347
L 784 347
L 786 348
L 787 348
L 789 347
L 790 347
L 792 347
L 793 347
L 795 347
L 796 348
L 798 348
L 800 349
L 801 349
L 803 349
L 804 349
L 806 349
L 807 348
L 809 347
L 810 345
L 812 344
L 813 340
L 815 338
L 816 337
L 818 335
L 819 332
L 821 334
L 822 332
L 824 335
L 826 335
L 827 334
L 829 336
L 830 338
L 832 338
L 833 338
L 835 334
L 836 334
L 838 334
L 839 333
L 841 331
L 842 331
L 844 329
L 845 333
L 847 332
L 849 334
L 850 332
L 852 331
L 853 330
L 855 328
L 856 324
L 858 321
L 859 318
L 861 320
L 862 318
L 864 315
L 865 315
L 867 311
L 868 310
L 870 310
L 871 308
L 873 309
L 875 309
L 876 309
L 878 311
L 879 310
L 881 311
L 882 310
L 884 305
L 885 299
L 887 301
L 888 302
L 890 300
L 891 300
L 893 300
L 894 301
L 896 306
L 898 305
L 899 300
L 901 301
L 902 298
L 904 293
L 905 295
L 907 292
L 908 287
L 910 288
L 911 291
L 913 292
L 914 299
L 916 299
L 917 304
L 919 306
L 920 307
L 922 309
L 924 311
L 925 310
L 927 309
L 928 310
L 930 315
L 931 316
L 933 317
L 934 317
L 936 319
L 937 322
L 939 323
L 940 323
L 942 326
L 943 325
L 945 326
L 947 327
L 948 328
L 950 326
L 951 323
L 953 324
L 954 321
L 956 319
L 957 319
L 959 316
L 960 311
L 962 309
L 963 305
L 965 300
L 966 296
L 968 289
L 969 278" style="stroke-width:1;stroke:rgba(0,116,217,1.0);fill:none"/><path  d="M 38 351
L 40 351
L 42 351
L 43 351
L 45 351
L 46 351
L 48 351
L 49 351
L 51 350
L 52 350
L 54 351
L 55 351
L 57 351
L 58 348
L 60 350
L 61 350
L 63 348
L 65 349
L 66 350
L 68 346
L 69 348
L 71 350
L 72 347
L 74 347
L 75 349
L 77 346
L 78 345
L 80 346
L 81 349
L 83 346
L 84 344
L 86 348
L 87 347
L 89 347
L 91 347
L 92 347
L 94 346
L 95 347
L 97 348
L 98 348
L 100 347
L 101 344
L 103 349
L 104 348
L 106 346
L 107 350
L 109 350
L 110 351
L 112 351
L 114 350
L 115 350
L 117 351
L 118 351
L 120 350
L 121 351
L 123 351
L 124 351
L 126 351
L 127 351
L 129 351
L 130 351
L 132 350
L 133 350
L 135 351
L 136 351
L 138 351
L 140 351
L 141 351
L 143 351
L 144 351
L 146 351
L 147 351
L 149 351
L 150 351
L 152 351
L 153 351
L 155 351
L 156 351
L 158 351
L 159 351
L 161 350
L 163 350
L 164 351
L 166 348
L 167 351
L 169 350
L 170 350
L 172 351
L 173 351
L 175 351
L 176 351
L 178 351
L 179 350
L 181 351
L 182 351
L 184 351
L 185 351
L 187 350
L 189 351
L 190 350
L 192 351
L 193 351
L 195 351
L 196 351
L 198 351
L 199 351
L 201 351
L 202 351
L 204 351
L 205 351
L 207 351
L 208 351
L 210 351
L 212 351
L 213 351
L 215 351
L 216 351
L 218 351
L 219 351
L 221 351
L 222 351
L 224 351
L 225 351
L 227 351
L 228 351
L 230 351
L 231 351
L 233 351
L 234 351
L 236 351
L 238 351
L 239 350
L 241 351
L 242 350
L 244 351
L 245 351
L 247 351
L 248 350
L 250 351
L 251 351
L 253 350
L 254 350
L 256 351
L 257 351
L 259 351
L 261 351
L 262 351
L 264 351
L 265 351
L 267 351
L 268 351
L 270 351
L 271 350
L 273 351
L 274 350
L 276 351
L 277 350
L 279 351
L 280 350
L 282 351
L 283 350
L 285 350
L 287 351
L 288 349
L 290 350
L 291 351
L 293 350
L 294 351
L 296 350
L 297 349
L 299 350
L 300 351
L 302 350
L 303 350
L 305 350
L 306 349
L 308 351
L 310 351
L 311 351
L 313 350
L 314 349
L 316 351
L 317 349
L 319 350
L 320 350
L 322 351
L 323 349
L 325 349
L 326 350
L 328 349
L 329 349
L 331 349
L 332 350
L 334 349
L 336 349
L 337 349
L 339 349
L 340 347
L 342 343
L 343 350
L 345 349
L 346 347
L 348 348
L 349 347
L 351 344
L 352 345
L 354 345
L 355 344
L 357 345
L 359 349
L 360 346
L 362 347
L 363 347
L 365 344
L 366 349
L 368 347
L 369 350
L 371 347
L 372 344
L 374 346
L 375 348
L 377 345
L 378 347
L 380 347
L 381 345
L 383 345
L 385 346
L 386 337
L 388 342
L 389 342
L 391 350
L 392 339
L 394 330
L 395 337
L 397 331
L 398 340
L 400 343
L 401 343
L 403 329
L 404 334
L 406 317
L 408 328
L 409 336
L 411 335
L 412 321
L 414 331
L 415 313
L 417 294
L 418 316
L 420 302
L 421 318
L 423 293
L 424 282
L 426 291
L 427 289
L 429 305
L 430 305
L 432 283
L 434 279
L 435 304
L 437 234
L 438 311
L 440 308
L 441 315
L 443 316
L 444 304
L 446 301
L 447 308
L 449 324
L 450 306
L 452 338
L 453 337
L 455 337
L 457 304
L 458 318
L 460 322
L 461 338
L 463 340
L 464 347
L 466 331
L 467 329
L 469 334
L 470 325
L 472 324
L 473 337
L 475 337
L 476 343
L 478 335
L 479 330
L 481 339
L 483 332
L 484 340
L 486 343
L 487 336
L 489 335
L 490 337
L 492 338
L 493 335
L 495 342
L 496 346
L 498 339
L 499 323
L 501 344
L 502 342
L 504 348
L 506 339
L 507 336
L 509 327
L 510 335
L 512 340
L 513 343
L 515 349
L 516 336
L 518 336
L 519 340
L 521 335
L 522 344
L 524 337
L 525 343
L 527 344
L 528 345
L 530 344
L 532 340
L 533 342
L 535 339
L 536 346
L 538 342
L 539 340
L 541 342
L 542 337
L 544 312
L 545 338
L 547 344
L 548 342
L 550 343
L 551 339
L 553 344
L 555 342
L 556 342
L 558 346
L 559 348
L 561 346
L 562 341
L 564 345
L 565 346
L 567 345
L 568 345
L 570 348
L 571 345
L 573 345
L 574 348
L 576 347
L 577 349
L 579 346
L 581 348
L 582 350
L 584 349
L 585 345
L 587 350
L 588 348
L 590 349
L 591 348
L 593 347
L 594 347
L 596 348
L 597 344
L 599 345
L 600 346
L 602 348
L 604 346
L 605 347
L 607 345
L 608 342
L 610 348
L 611 347
L 613 349
L 614 346
L 616 342
L 617 346
L 619 346
L 620 348
L 622 347
L 623 347
L 625 347
L 626 346
L 628 343
L 630 344
L 631 342
L 633 347
L 634 342
L 636 338
L 637 343
L 639 338
L 640 337
L 642 333
L 643 344
L 645 339
L 646 343
L 648 343
L 649 338
L 651 342
L 653 339
L 654 344
L 656 346
L 657 348
L 659 335
L 660 337
L 662 337
L 663 336
L 665 337
L 666 342
L 668 336
L 669 332
L 671 333
L 672 335
L 674 340
L 675 336
L 677 329
L 679 337
L 680 334
L 682 326
L 683 323
L 685 332
L 686 328
L 688 329
L 689 331
L 691 331
L 692 327
L 694 328
L 695 322
L 697 337
L 698 338
L 700 335
L 702 337
L 703 337
L 705 335
L 706 332
L 708 343
L 709 344
L 711 340
L 712 338
L 714 339
L 715 336
L 717 344
L 718 338
L 720 344
L 721 346
L 723 342
L 724 343
L 726 343
L 728 343
L 729 342
L 731 345
L 732 345
L 734 344
L 735 342
L 737 341
L 738 345
L 740 346
L 741 342
L 743 345
L 744 343
L 746 344
L 747 349
L 749 349
L 751 344
L 752 348
L 754 350
L 755 344
L 757 348
L 758 349
L 760 350
L 761 349
L 763 349
L 764 350
L 766 351
L 767 350
L 769 349
L 770 350
L 772 350
L 773 349
L 775 349
L 777 350
L 778 350
L 780 350
L 781 350
L 783 350
L 784 349
L 786 350
L 787 350
L 789 350
L 790 349
L 792 350
L 793 350
L 795 351
L 796 351
L 798 351
L 800 351
L 801 349
L 803 350
L 804 351
L 806 350
L 807 349
L 809 350
L 810 347
L 812 349
L 813 345
L 815 348
L 816 348
L 818 346
L 819 345
L 821 349
L 822 347
L 824 349
L 826 348
L 827 347
L 829 349
L 830 348
L 832 349
L 833 347
L 835 344
L 836 348
L 838 346
L 839 347
L 841 346
L 842 348
L 844 345
L 845 349
L 847 347
L 849 349
L 850 344
L 852 345
L 853 346
L 855 342
L 856 344
L 858 343
L 859 345
L 861 347
L 862 342
L 864 342
L 865 341
L 867 340
L 868 342
L 870 344
L 871 344
L 873 344
L 875 343
L 876 341
L 878 342
L 879 341
L 881 344
L 882 343
L 884 336
L 885 335
L 887 344
L 888 345
L 890 339
L 891 344
L 893 343
L 894 337
L 896 342
L 898 343
L 899 337
L 901 340
L 902 340
L 904 336
L 905 341
L 907 337
L 908 337
L 910 339
L 911 344
L 913 342
L 914 345
L 916 342
L 917 344
L 919 339
L 920 340
L 922 346
L 924 344
L 925 343
L 927 341
L 928 344
L 930 347
L 931 341
L 933 348
L 934 344
L 936 345
L 937 345
L 939 345
L 940 347
L 942 345
L 943 348
L 945 345
L 947 347
L 948 345
L 950 343
L 951 343
L 953 346
L 954 344
L 956 344
L 957 347
L 959 340
L 960 337
L 962 339
L 963 341
L 965 337
L 966 339
L 968 337
L 969 326" style="stroke-width:1;stroke:rgba(0,217,101,1.0);fill:none"/><path  d="M 38 351
L 40 351
L 42 351
L 43 351
L 45 351
L 46 351
L 48 351
L 49 351
L 51 351
L 52 351
L 54 351
L 55 351
L 57 351
L 58 351
L 60 351
L 61 351
L 63 351
L 65 351
L 66 351
L 68 351
L 69 351
L 71 351
L 72 351
L 74 351
L 75 351
L 77 351
L 78 351
L 80 351
L 81 351
L 83 351
L 84 351
L 86 351
L 87 351
L 89 350
L 91 351
L 92 351
L 94 351
L 95 351
L 97 350
L 98 351
L 100 351
L 101 351
L 103 351
L 104 351
L 106 351
L 107 351
L 109 351
L 110 351
L 112 350
L 114 351
L 115 351
L 117 350
L 118 350
L 120 351
L 121 351
L 123 351
L 124 351
L 126 351
L 127 351
L 129 351
L 130 350
L 132 350
L 133 351
L 135 351
L 136 350
L 138 351
L 140 351
L 141 351
L 143 351
L 144 351
L 146 351
L 147 351
L 149 351
L 150 351
L 152 351
L 153 351
L 155 351
L 156 351
L 158 351
L 159 351
L 161 351
L 163 351
L 164 351
L 166 351
L 167 351
L 169 351
L 170 351
L 172 351
L 173 351
L 175 351
L 176 351
L 178 351
L 179 351
L 181 351
L 182 351
L 184 351
L 185 351
L 187 351
L 189 351
L 190 351
L 192 351
L 193 351
L 195 351
L 196 351
L 198 351
L 199 351
L 201 351
L 202 351
L 204 351
L 205 351
L 207 351
L 208 351
L 210 351
L 212 351
L 213 351
L 215 351
L 216 351
L 218 351
L 219 351
L 221 351
L 222 351
L 224 351
L 225 351
L 227 351
L 228 351
L 230 351
L 231 351
L 233 351
L 234 351
L 236 351
L 238 351
L 239 351
L 241 351
L 242 351
L 244 351
L 245 351
L 247 351
L 248 351
L 250 351
L 251 351
L 253 351
L 254 351
L 256 351
L 257 351
L 259 351
L 261 351
L 262 351
L 264 351
L 265 351
L 267 351
L 268 351
L 270 351
L 271 351
L 273 351
L 274 351
L 276 351
L 277 351
L 279 351
L 280 351
L 282 351
L 283 351
L 285 351
L 287 351
L 288 351
L 290 351
L 291 351
L 293 351
L 294 351
L 296 351
L 297 351
L 299 351
L 300 351
L 302 351
L 303 351
L 305 351
L 306 351
L 308 351
L 310 351
L 311 351
L 313 351
L 314 351
L 316 351
L 317 351
L 319 351
L 320 351
L 322 351
L 323 351
L 325 351
L 326 351
L 328 351
L 329 351
L 331 351
L 332 351
L 334 351
L 336 351
L 337 351
L 339 351
L 340 351
L 342 351
L 343 351
L 345 351
L 346 351
L 348 351
L 349 351
L 351 351
L 352 351
L 354 351
L 355 351
L 357 351
L 359 351
L 360 351
L 362 351
L 363 351
L 365 351
L 366 351
L 368 351
L 369 351
L 371 351
L 372 351
L 374 351
L 375 351
L 377 351
L 378 351
L 380 351
L 381 351
L 383 351
L 385 350
L 386 351
L 388 351
L 389 351
L 391 351
L 392 351
L 394 351
L 395 351
L 397 350
L 398 351
L 400 351
L 401 351
L 403 351
L 404 351
L 406 351
L 408 351
L 409 350
L 411 351
L 412 351
L 414 351
L 415 351
L 417 351
L 418 350
L 420 351
L 421 351
L 423 350
L 424 350
L 426 351
L 427 351
L 429 350
L 430 350
L 432 351
L 434 350
L 435 351
L 437 351
L 438 349
L 440 351
L 441 350
L 443 351
L 444 351
L 446 349
L 447 350
L 449 349
L 450 350
L 452 350
L 453 350
L 455 351
L 457 350
L 458 349
L 460 349
L 461 351
L 463 350
L 464 350
L 466 351
L 467 350
L 469 349
L 470 350
L 472 349
L 473 350
L 475 350
L 476 351
L 478 350
L 479 350
L 481 349
L 483 350
L 484 350
L 486 351
L 487 351
L 489 351
L 490 351
L 492 351
L 493 351
L 495 351
L 496 351
L 498 351
L 499 351
L 501 350
L 502 351
L 504 350
L 506 351
L 507 351
L 509 351
L 510 350
L 512 350
L 513 350
L 515 350
L 516 351
L 518 351
L 519 351
L 521 351
L 522 351
L 524 351
L 525 351
L 527 350
L 528 351
L 530 351
L 532 350
L 533 351
L 535 351
L 536 350
L 538 351
L 539 350
L 541 350
L 542 351
L 544 351
L 545 351
L 547 351
L 548 351
L 550 351
L 551 350
L 553 351
L 555 351
L 556 351
L 558 351
L 559 351
L 561 351
L 562 351
L 564 351
L 565 351
L 567 351
L 568 351
L 570 351
L 571 351
L 573 351
L 574 351
L 576 351
L 577 351
L 579 351
L 581 351
L 582 351
L 584 351
L 585 350
L 587 351
L 588 351
L 590 351
L 591 351
L 593 351
L 594 351
L 596 351
L 597 351
L 599 351
L 600 351
L 602 350
L 604 351
L 605 351
L 607 351
L 608 351
L 610 351
L 611 350
L 613 351
L 614 351
L 616 351
L 617 350
L 619 351
L 620 351
L 622 351
L 623 350
L 625 350
L 626 351
L 628 351
L 630 351
L 631 351
L 633 351
L 634 351
L 636 351
L 637 351
L 639 351
L 640 351
L 642 351
L 643 351
L 645 351
L 646 351
L 648 351
L 649 351
L 651 351
L 653 351
L 654 351
L 656 351
L 657 351
L 659 351
L 660 351
L 662 351
L 663 350
L 665 351
L 666 351
L 668 351
L 669 351
L 671 351
L 672 351
L 674 351
L 675 351
L 677 351
L 679 351
L 680 351
L 682 351
L 683 351
L 685 351
L 686 350
L 688 351
L 689 351
L 691 351
L 692 351
L 694 350
L 695 351
L 697 351
L 698 350
L 700 351
L 702 351
L 703 351
L 705 350
L 706 350
L 708 351
L 709 351
L 711 351
L 712 351
L 714 351
L 715 351
L 717 351
L 718 351
L 720 350
L 721 351
L 723 351
L 724 351
L 726 351
L 728 351
L 729 351
L 731 351
L 732 351
L 734 351
L 735 351
L 737 351
L 738 351
L 740 351
L 741 351
L 743 351
L 744 351
L 746 351
L 747 351
L 749 351
L 751 351
L 752 351
L 754 351
L 755 351
L 757 351
L 758 351
L 760 350
L 761 351
L 763 351
L 764 351
L 766 351
L 767 351
L 769 351
L 770 351
L 772 351
L 773 351
L 775 350
L 777 351
L 778 351
L 780 351
L 781 351
L 783 351
L 784 351
L 786 351
L 787 351
L 789 351
L 790 351
L 792 351
L 793 351
L 795 351
L 796 351
L 798 351
L 800 351
L 801 351
L 803 351
L 804 351
L 806 351
L 807 351
L 809 351
L 810 351
L 812 351
L 813 351
L 815 351
L 816 351
L 818 351
L 819 351
L 821 351
L 822 351
L 824 351
L 826 351
L 827 351
L 829 351
L 830 351
L 832 351
L 833 351
L 835 351
L 836 351
L 838 351
L 839 351
L 841 351
L 842 351
L 844 351
L 845 351
L 847 351
L 849 351
L 850 351
L 852 351
L 853 351
L 855 351
L 856 351
L 858 351
L 859 351
L 861 351
L 862 351
L 864 351
L 865 351
L 867 351
L 868 351
L 870 351
L 871 351
L 873 351
L 875 351
L 876 351
L 878 351
L 879 351
L 881 351
L 882 351
L 884 351
L 885 351
L 887 351
L 888 351
L 890 351
L 891 351
L 893 351
L 894 351
L 896 351
L 898 351
L 899 351
L 901 350
L 902 351
L 904 350
L 905 350
L 907 351
L 908 351
L 910 351
L 911 351
L 913 351
L 914 351
L 916 351
L 917 351
L 919 351
L 920 351
L 922 351
L 924 351
L 925 351
L 927 351
L 928 350
L 930 351
L 931 351
L 933 351
L 934 351
L 936 351
L 937 351
L 939 351
L 940 351
L 942 351
L 943 351
L 945 351
L 947 351
L 948 351
L 950 351
L 951 351
L 953 351
L 954 351
L 956 351
L 957 351
L 959 351
L 960 351
L 962 351
L 963 351
L 965 351
L 966 350
L 968 351
L 969 351" style="stroke-width:1;stroke:rgba(217,0,116,1.0);fill:none"/><text x="408" y="33" style="stroke-width:0;stroke:none;fill:rgba(51,51,51,1.0);font-size:23.0px;font-family:'Roboto Medium',sans-serif">Bregenz 26.10.2021</text><path  d="M 38 11
L 251 11
L 251 91
L 38 91
L 38 11" style="stroke-width:1;stroke:rgba(51,51,51,1.0);fill:rgba(255,255,255,1.0)"/><text x="43" y="26" style="stroke-width:0;stroke:none;fill:rgba(51,51,51,1.0);font-size:10.2px;font-family:'Roboto Medium',sans-serif">Sieben Tage Durschnitt Inzidenz Fälle</text><path  d="M 221 21
L 241 21" style="stroke-width:1;stroke:rgba(0,116,217,1.0);fill:none"/><text x="43" y="56" style="stroke-width:0;stroke:none;fill:rgba(51,51,51,1.0);font-size:10.2px;font-family:'Roboto Medium',sans-serif">Anzahl Faelle</text><path  d="M 110 51
L 241 51" style="stroke-width:1;stroke:rgba(0,217,101,1.0);fill:none"/><text x="43" y="86" style="stroke-width:0;stroke:none;fill:rgba(51,51,51,1.0);font-size:10.2px;font-family:'Roboto Medium',sans-serif">Anzahl Tot</text><path  d="M 98 81
L 241 81" style="stroke-width:1;stroke:rgba(217,0,116,1.0);fill:none"/></svg>