<svg xmlns="http://www.w3.org/2000/svg" xmlns:xlink="http://www.w3.org/1999/xlink" width="1024" height="400">\n<path  d="M 0 0
L 1024 0
L 1024 400
L 0 400
L 0 0" style="stroke-width:0;stroke:rgba(255,255,255,1.0);fill:rgba(255,255,255,1.0)"/><path  d="M 38 11
L 961 11
L 961 351
L 38 351
L 38 11" style="stroke-width:0;stroke:rgba(255,255,255,1.0);fill:rgba(255,255,255,1.0)"/><path  d="M 38 351
L 961 351" style="stroke-width:1;stroke:rgba(51,51,51,1.0);fill:none"/><path  d="M 38 351
L 38 356" style="stroke-width:1;stroke:rgba(51,51,51,1.0);fill:none"/><text x="5" y="373" style="stroke-width:0;stroke:none;fill:rgba(51,51,51,1.0);font-size:12.8px;font-family:'Roboto Medium',sans-serif">2020-02-26</text><path  d="M 154 351
L 154 356" style="stroke-width:1;stroke:rgba(51,51,51,1.0);fill:none"/><text x="121" y="373" style="stroke-width:0;stroke:none;fill:rgba(51,51,51,1.0);font-size:12.8px;font-family:'Roboto Medium',sans-serif">2020-06-27</text><path  d="M 269 351
L 269 356" style="stroke-width:1;stroke:rgba(51,51,51,1.0);fill:none"/><text x="236" y="373" style="stroke-width:0;stroke:none;fill:rgba(51,51,51,1.0);font-size:12.8px;font-family:'Roboto Medium',sans-serif">2020-10-27</text><path  d="M 385 351
L 385 356" style="stroke-width:1;stroke:rgba(51,51,51,1.0);fill:none"/><text x="352" y="373" style="stroke-width:0;stroke:none;fill:rgba(51,51,51,1.0);font-size:12.8px;font-family:'Roboto Medium',sans-serif">2021-02-27</text><path  d="M 500 351
L 500 356" style="stroke-width:1;stroke:rgba(51,51,51,1.0);fill:none"/><text x="467" y="373" style="stroke-width:0;stroke:none;fill:rgba(51,51,51,1.0);font-size:12.8px;font-family:'Roboto Medium',sans-serif">2021-06-29</text><path  d="M 615 351
L 615 356" style="stroke-width:1;stroke:rgba(51,51,51,1.0);fill:none"/><text x="582" y="373" style="stroke-width:0;stroke:none;fill:rgba(51,51,51,1.0);font-size:12.8px;font-family:'Roboto Medium',sans-serif">2021-10-29</text><path  d="M 731 351
L 731 356" style="stroke-width:1;stroke:rgba(51,51,51,1.0);fill:none"/><text x="698" y="373" style="stroke-width:0;stroke:none;fill:rgba(51,51,51,1.0);font-size:12.8px;font-family:'Roboto Medium',sans-serif">2022-03-01</text><path  d="M 846 351
L 846 356" style="stroke-width:1;stroke:rgba(51,51,51,1.0);fill:none"/><text x="813" y="373" style="stroke-width:0;stroke:none;fill:rgba(51,51,51,1.0);font-size:12.8px;font-family:'Roboto Medium',sans-serif">2022-07-01</text><path  d="M 961 351
L 961 356" style="stroke-width:1;stroke:rgba(51,51,51,1.0);fill:none"/><text x="928" y="373" style="stroke-width:0;stroke:none;fill:rgba(51,51,51,1.0);font-size:12.8px;font-family:'Roboto Medium',sans-serif">2022-11-01</text><text x="481" y="395" style="stroke-width:0;stroke:none;fill:rgba(51,51,51,1.0);font-size:12.8px;font-family:'Roboto Medium',sans-serif">Datum</text><path  d="M 962 351
L 962 11" style="stroke-width:1;stroke:rgba(51,51,51,1.0);fill:none"/><path  d="M 962 351
L 967 351" style="stroke-width:1;stroke:rgba(51,51,51,1.0);fill:none"/><text x="972" y="357" style="stroke-width:0;stroke:none;fill:rgba(51,51,51,1.0);font-size:12.8px;font-family:'Roboto Medium',sans-serif">0.00</text><path  d="M 962 308
L 967 308" style="stroke-width:1;stroke:rgba(51,51,51,1.0);fill:none"/><text x="972" y="314" style="stroke-width:0;stroke:none;fill:rgba(51,51,51,1.0);font-size:12.8px;font-family:'Roboto Medium',sans-serif">480.00</text><path  d="M 962 266
L 967 266" style="stroke-width:1;stroke:rgba(51,51,51,1.0);fill:none"/><text x="972" y="272" style="stroke-width:0;stroke:none;fill:rgba(51,51,51,1.0);font-size:12.8px;font-family:'Roboto Medium',sans-serif">950.00</text><path  d="M 962 223
L 967 223" style="stroke-width:1;stroke:rgba(51,51,51,1.0);fill:none"/><text x="972" y="229" style="stroke-width:0;stroke:none;fill:rgba(51,51,51,1.0);font-size:12.8px;font-family:'Roboto Medium',sans-serif">1430.00</text><path  d="M 962 181
L 967 181" style="stroke-width:1;stroke:rgba(51,51,51,1.0);fill:none"/><text x="972" y="187" style="stroke-width:0;stroke:none;fill:rgba(51,51,51,1.0);font-size:12.8px;font-family:'Roboto Medium',sans-serif">1900.00</text><path  d="M 962 138
L 967 138" style="stroke-width:1;stroke:rgba(51,51,51,1.0);fill:none"/><text x="972" y="144" style="stroke-width:0;stroke:none;fill:rgba(51,51,51,1.0);font-size:12.8px;font-family:'Roboto Medium',sans-serif">2380.00</text><path  d="M 962 96
L 967 96" style="stroke-width:1;stroke:rgba(51,51,51,1.0);fill:none"/><text x="972" y="102" style="stroke-width:0;stroke:none;fill:rgba(51,51,51,1.0);font-size:12.8px;font-family:'Roboto Medium',sans-serif">2850.00</text><path  d="M 962 53
L 967 53" style="stroke-width:1;stroke:rgba(51,51,51,1.0);fill:none"/><text x="972" y="59" style="stroke-width:0;stroke:none;fill:rgba(51,51,51,1.0);font-size:12.8px;font-family:'Roboto Medium',sans-serif">3330.00</text><path  d="M 962 11
L 967 11" style="stroke-width:1;stroke:rgba(51,51,51,1.0);fill:none"/><text x="972" y="17" style="stroke-width:0;stroke:none;fill:rgba(51,51,51,1.0);font-size:12.8px;font-family:'Roboto Medium',sans-serif">3800.00</text><path  d="M 38 351
L 39 351
L 40 351
L 41 351
L 42 351
L 43 351
L 44 351
L 45 351
L 46 350
L 47 350
L 48 350
L 49 350
L 50 350
L 51 350
L 52 350
L 53 350
L 54 350
L 55 349
L 55 349
L 56 349
L 57 349
L 58 349
L 59 349
L 60 350
L 61 350
L 62 350
L 63 350
L 64 349
L 65 349
L 66 348
L 67 347
L 68 346
L 69 346
L 70 346
L 71 346
L 71 346
L 72 346
L 73 346
L 74 346
L 75 347
L 76 347
L 77 346
L 78 346
L 79 347
L 80 346
L 81 347
L 82 347
L 83 348
L 84 349
L 85 349
L 86 349
L 87 350
L 88 350
L 88 350
L 89 350
L 90 350
L 91 350
L 92 350
L 93 350
L 94 350
L 95 351
L 96 350
L 97 350
L 98 350
L 99 350
L 100 350
L 101 350
L 102 350
L 103 350
L 104 351
L 104 351
L 105 351
L 106 351
L 107 351
L 108 351
L 109 351
L 110 351
L 111 351
L 112 351
L 113 351
L 114 350
L 115 350
L 116 350
L 117 350
L 118 350
L 119 350
L 120 350
L 121 350
L 121 350
L 122 350
L 123 350
L 124 350
L 125 350
L 126 350
L 127 350
L 128 350
L 129 350
L 130 350
L 131 350
L 132 350
L 133 350
L 134 350
L 135 350
L 136 350
L 137 350
L 137 350
L 138 351
L 139 351
L 140 351
L 141 351
L 142 351
L 143 351
L 144 351
L 145 351
L 146 351
L 147 351
L 148 351
L 149 351
L 150 351
L 151 351
L 152 351
L 153 351
L 154 351
L 154 351
L 155 351
L 156 351
L 157 351
L 158 351
L 159 351
L 160 351
L 161 351
L 162 350
L 163 350
L 164 350
L 165 350
L 166 350
L 167 350
L 168 350
L 169 350
L 170 350
L 170 350
L 171 350
L 172 350
L 173 350
L 174 350
L 175 350
L 176 350
L 177 350
L 178 351
L 179 351
L 180 351
L 181 351
L 182 350
L 183 350
L 184 350
L 185 350
L 186 350
L 187 350
L 187 350
L 188 350
L 189 350
L 190 350
L 191 350
L 192 350
L 193 350
L 194 350
L 195 350
L 196 350
L 197 350
L 198 350
L 199 350
L 200 350
L 201 350
L 202 350
L 203 350
L 203 350
L 204 350
L 205 350
L 206 350
L 207 350
L 208 350
L 209 350
L 210 350
L 211 350
L 212 350
L 213 350
L 214 350
L 215 350
L 216 349
L 217 350
L 218 349
L 219 349
L 220 349
L 220 349
L 221 349
L 222 349
L 223 349
L 224 348
L 225 347
L 226 347
L 227 347
L 228 347
L 229 347
L 230 347
L 231 346
L 232 346
L 233 346
L 234 345
L 235 345
L 236 345
L 236 345
L 237 345
L 238 345
L 239 345
L 240 346
L 241 346
L 242 347
L 243 347
L 244 346
L 245 346
L 246 347
L 247 346
L 248 346
L 249 345
L 250 345
L 251 345
L 252 345
L 253 343
L 253 343
L 254 342
L 255 342
L 256 341
L 257 339
L 258 337
L 259 337
L 260 336
L 261 336
L 262 335
L 263 334
L 264 334
L 265 331
L 266 330
L 267 329
L 268 328
L 269 324
L 269 325
L 270 321
L 271 317
L 272 315
L 273 310
L 274 307
L 275 302
L 276 293
L 277 290
L 278 289
L 279 287
L 280 287
L 281 281
L 282 279
L 283 283
L 284 273
L 285 277
L 286 278
L 286 279
L 287 285
L 288 289
L 289 289
L 290 301
L 291 304
L 292 303
L 293 307
L 294 310
L 295 316
L 296 317
L 297 318
L 298 318
L 299 324
L 300 324
L 301 326
L 302 325
L 302 329
L 303 331
L 304 332
L 305 330
L 306 329
L 307 327
L 308 329
L 309 330
L 310 330
L 311 332
L 312 333
L 313 334
L 314 335
L 315 334
L 316 334
L 317 335
L 318 335
L 319 335
L 319 336
L 320 336
L 321 337
L 322 335
L 323 336
L 324 336
L 325 339
L 326 338
L 327 336
L 328 334
L 329 336
L 330 336
L 331 336
L 332 336
L 333 336
L 334 336
L 335 338
L 335 338
L 336 338
L 337 337
L 338 336
L 339 338
L 340 339
L 341 340
L 342 341
L 343 340
L 344 341
L 345 341
L 346 341
L 347 340
L 348 340
L 349 339
L 350 334
L 351 334
L 352 334
L 352 334
L 353 334
L 354 334
L 355 335
L 356 340
L 357 341
L 358 341
L 359 342
L 360 343
L 361 343
L 362 344
L 363 344
L 364 344
L 365 344
L 366 344
L 367 344
L 368 345
L 368 345
L 369 345
L 370 346
L 371 346
L 372 346
L 373 347
L 374 347
L 375 347
L 376 348
L 377 348
L 378 348
L 379 348
L 380 348
L 381 348
L 382 348
L 383 347
L 384 346
L 385 346
L 385 346
L 386 346
L 387 346
L 388 345
L 389 345
L 390 345
L 391 346
L 392 346
L 393 346
L 394 345
L 395 345
L 396 346
L 397 346
L 398 346
L 399 345
L 400 346
L 401 346
L 401 346
L 402 345
L 403 344
L 404 344
L 405 343
L 406 342
L 407 341
L 408 341
L 409 339
L 410 338
L 411 337
L 412 337
L 413 338
L 414 338
L 415 338
L 416 338
L 417 339
L 418 339
L 418 340
L 419 341
L 420 340
L 421 340
L 422 339
L 423 338
L 424 337
L 425 337
L 426 335
L 427 334
L 428 334
L 429 333
L 430 334
L 431 334
L 432 332
L 433 332
L 434 332
L 434 331
L 435 329
L 436 327
L 437 326
L 438 326
L 439 325
L 440 325
L 441 325
L 442 326
L 443 324
L 444 326
L 445 327
L 446 328
L 447 329
L 448 330
L 449 331
L 450 333
L 451 334
L 451 335
L 452 336
L 453 336
L 454 337
L 455 337
L 456 339
L 457 338
L 458 338
L 459 339
L 460 339
L 461 340
L 462 341
L 463 341
L 464 342
L 465 342
L 466 342
L 467 342
L 467 342
L 468 342
L 469 342
L 470 343
L 471 342
L 472 342
L 473 342
L 474 342
L 475 344
L 476 344
L 477 344
L 478 345
L 479 346
L 480 346
L 481 347
L 482 347
L 483 347
L 484 348
L 484 348
L 485 348
L 486 349
L 487 350
L 488 350
L 489 350
L 490 350
L 491 350
L 492 350
L 493 350
L 494 350
L 495 350
L 496 350
L 497 350
L 498 350
L 499 350
L 500 350
L 500 350
L 501 350
L 502 350
L 503 350
L 504 350
L 505 350
L 506 350
L 507 350
L 508 350
L 509 350
L 510 350
L 511 350
L 512 350
L 513 350
L 514 349
L 515 349
L 516 348
L 516 348
L 517 347
L 518 347
L 519 346
L 520 347
L 521 346
L 522 347
L 523 347
L 524 347
L 525 347
L 526 348
L 527 348
L 528 348
L 529 347
L 530 347
L 531 347
L 532 346
L 533 346
L 533 346
L 534 346
L 535 346
L 536 346
L 537 347
L 538 346
L 539 346
L 540 346
L 541 345
L 542 344
L 543 344
L 544 343
L 545 343
L 546 343
L 547 342
L 548 342
L 549 342
L 549 341
L 550 341
L 551 341
L 552 341
L 553 341
L 554 341
L 555 341
L 556 341
L 557 341
L 558 341
L 559 340
L 560 339
L 561 339
L 562 339
L 563 339
L 564 339
L 565 339
L 566 339
L 566 340
L 567 340
L 568 339
L 569 339
L 570 338
L 571 337
L 572 338
L 573 337
L 574 336
L 575 336
L 576 337
L 577 337
L 578 339
L 579 339
L 580 340
L 581 340
L 582 341
L 582 341
L 583 341
L 584 341
L 585 341
L 586 341
L 587 342
L 588 342
L 589 343
L 590 343
L 591 343
L 592 344
L 593 344
L 594 344
L 595 345
L 596 345
L 597 345
L 598 345
L 599 345
L 599 345
L 600 344
L 601 344
L 602 344
L 603 343
L 604 343
L 605 342
L 606 342
L 607 341
L 608 340
L 609 339
L 610 338
L 611 336
L 612 334
L 613 333
L 614 329
L 615 325
L 615 321
L 616 319
L 617 316
L 618 315
L 619 309
L 620 306
L 621 301
L 622 300
L 623 297
L 624 297
L 625 283
L 626 278
L 627 275
L 628 272
L 629 261
L 630 261
L 631 254
L 632 247
L 632 242
L 633 238
L 634 236
L 635 231
L 636 224
L 637 220
L 638 224
L 639 227
L 640 225
L 641 226
L 642 233
L 643 234
L 644 240
L 645 243
L 646 245
L 647 254
L 648 257
L 648 265
L 649 271
L 650 273
L 651 281
L 652 289
L 653 295
L 654 301
L 655 304
L 656 305
L 657 309
L 658 313
L 659 314
L 660 315
L 661 316
L 662 319
L 663 322
L 664 322
L 665 325
L 665 324
L 666 326
L 667 328
L 668 329
L 669 330
L 670 330
L 671 331
L 672 332
L 673 330
L 674 330
L 675 330
L 676 328
L 677 325
L 678 321
L 679 316
L 680 313
L 681 311
L 681 302
L 682 298
L 683 290
L 684 285
L 685 281
L 686 272
L 687 263
L 688 266
L 689 260
L 690 260
L 691 250
L 692 233
L 693 227
L 694 211
L 695 201
L 696 199
L 697 179
L 698 161
L 698 161
L 699 138
L 700 132
L 701 119
L 702 113
L 703 114
L 704 115
L 705 117
L 706 122
L 707 116
L 708 124
L 709 129
L 710 114
L 711 96
L 712 74
L 713 76
L 714 78
L 714 69
L 715 60
L 716 79
L 717 106
L 718 126
L 719 135
L 720 148
L 721 155
L 722 156
L 723 154
L 724 149
L 725 146
L 726 146
L 727 144
L 728 148
L 729 152
L 730 159
L 731 153
L 731 147
L 732 141
L 733 134
L 734 126
L 735 119
L 736 105
L 737 96
L 738 85
L 739 69
L 740 57
L 741 48
L 742 45
L 743 34
L 744 28
L 745 19
L 746 31
L 747 36
L 747 38
L 748 43
L 749 56
L 750 56
L 751 58
L 752 66
L 753 70
L 754 81
L 755 84
L 756 91
L 757 113
L 758 136
L 759 146
L 760 166
L 761 176
L 762 188
L 763 201
L 764 211
L 764 225
L 765 222
L 766 230
L 767 234
L 768 236
L 769 241
L 770 254
L 771 261
L 772 273
L 773 279
L 774 284
L 775 284
L 776 289
L 777 295
L 778 294
L 779 298
L 780 298
L 780 302
L 781 306
L 782 305
L 783 304
L 784 311
L 785 312
L 786 315
L 787 315
L 788 314
L 789 317
L 790 316
L 791 316
L 792 316
L 793 317
L 794 317
L 795 318
L 796 319
L 797 320
L 797 321
L 798 322
L 799 321
L 800 320
L 801 322
L 802 323
L 803 324
L 804 325
L 805 327
L 806 329
L 807 331
L 808 332
L 809 333
L 810 335
L 811 337
L 812 337
L 813 337
L 813 337
L 814 337
L 815 338
L 816 335
L 817 333
L 818 330
L 819 330
L 820 329
L 821 327
L 822 328
L 823 322
L 824 321
L 825 317
L 826 316
L 827 315
L 828 314
L 829 306
L 830 309
L 830 307
L 831 313
L 832 310
L 833 309
L 834 308
L 835 306
L 836 304
L 837 303
L 838 297
L 839 298
L 840 301
L 841 299
L 842 300
L 843 297
L 844 297
L 845 296
L 846 294
L 846 289
L 847 289
L 848 298
L 849 298
L 850 296
L 851 295
L 852 295
L 853 294
L 854 295
L 855 286
L 856 286
L 857 286
L 858 282
L 859 279
L 860 275
L 861 273
L 862 276
L 863 275
L 863 276
L 864 281
L 865 286
L 866 294
L 867 295
L 868 299
L 869 304
L 870 310
L 871 316
L 872 321
L 873 321
L 874 325
L 875 327
L 876 330
L 877 330
L 878 330
L 879 332
L 879 333
L 880 332
L 881 334
L 882 335
L 883 334
L 884 334
L 885 334
L 886 333
L 887 333
L 888 332
L 889 331
L 890 330
L 891 331
L 892 330
L 893 330
L 894 330
L 895 330
L 896 330
L 896 332
L 897 332
L 898 331
L 899 332
L 900 332
L 901 332
L 902 334
L 903 334
L 904 334
L 905 335
L 906 336
L 907 336
L 908 336
L 909 336
L 910 336
L 911 335
L 912 335
L 912 336
L 913 335
L 914 335
L 915 334
L 916 335
L 917 334
L 918 334
L 919 333
L 920 334
L 921 331
L 922 331
L 923 329
L 924 327
L 925 326
L 926 322
L 927 320
L 928 319
L 929 313
L 929 308
L 930 303
L 931 297
L 932 292
L 933 291
L 934 288
L 935 282
L 936 278
L 937 274
L 938 274
L 939 276
L 940 275
L 941 276
L 942 276
L 943 275
L 944 279
L 945 279
L 945 280
L 946 282
L 947 283
L 948 287
L 949 294
L 950 295
L 951 300
L 952 302
L 953 304
L 954 306
L 955 312
L 956 316
L 957 322
L 958 324
L 959 325
L 960 327
L 961 328
L 961 331" style="stroke-width:1;stroke:rgba(0,116,217,1.0);fill:none"/><path  d="M 38 351
L 39 351
L 40 351
L 41 351
L 42 351
L 43 351
L 44 351
L 45 351
L 46 350
L 47 350
L 48 351
L 49 351
L 50 351
L 51 350
L 52 350
L 53 350
L 54 350
L 55 350
L 55 350
L 56 351
L 57 350
L 58 351
L 59 350
L 60 351
L 61 351
L 62 351
L 63 350
L 64 349
L 65 350
L 66 349
L 67 349
L 68 350
L 69 350
L 70 350
L 71 350
L 71 350
L 72 349
L 73 350
L 74 350
L 75 350
L 76 350
L 77 349
L 78 350
L 79 350
L 80 349
L 81 350
L 82 350
L 83 351
L 84 351
L 85 350
L 86 350
L 87 351
L 88 351
L 88 350
L 89 351
L 90 351
L 91 351
L 92 351
L 93 351
L 94 351
L 95 351
L 96 350
L 97 350
L 98 351
L 99 351
L 100 351
L 101 351
L 102 351
L 103 351
L 104 351
L 104 351
L 105 351
L 106 351
L 107 351
L 108 351
L 109 351
L 110 351
L 111 351
L 112 351
L 113 351
L 114 350
L 115 350
L 116 351
L 117 350
L 118 351
L 119 350
L 120 350
L 121 351
L 121 351
L 122 351
L 123 351
L 124 351
L 125 350
L 126 351
L 127 351
L 128 351
L 129 351
L 130 350
L 131 351
L 132 350
L 133 351
L 134 351
L 135 351
L 136 351
L 137 351
L 137 351
L 138 351
L 139 351
L 140 351
L 141 351
L 142 351
L 143 351
L 144 351
L 145 351
L 146 351
L 147 351
L 148 351
L 149 351
L 150 351
L 151 351
L 152 351
L 153 351
L 154 351
L 154 351
L 155 351
L 156 351
L 157 351
L 158 351
L 159 351
L 160 351
L 161 351
L 162 350
L 163 351
L 164 350
L 165 351
L 166 351
L 167 351
L 168 350
L 169 351
L 170 351
L 170 350
L 171 350
L 172 351
L 173 351
L 174 351
L 175 351
L 176 351
L 177 351
L 178 351
L 179 351
L 180 351
L 181 351
L 182 350
L 183 351
L 184 350
L 185 351
L 186 350
L 187 351
L 187 350
L 188 351
L 189 350
L 190 350
L 191 351
L 192 350
L 193 350
L 194 351
L 195 350
L 196 351
L 197 350
L 198 350
L 199 350
L 200 351
L 201 350
L 202 350
L 203 350
L 203 350
L 204 351
L 205 351
L 206 351
L 207 350
L 208 350
L 209 351
L 210 350
L 211 350
L 212 350
L 213 351
L 214 350
L 215 350
L 216 350
L 217 350
L 218 350
L 219 350
L 220 350
L 220 350
L 221 350
L 222 350
L 223 350
L 224 350
L 225 349
L 226 350
L 227 350
L 228 350
L 229 350
L 230 350
L 231 349
L 232 349
L 233 349
L 234 349
L 235 349
L 236 350
L 236 349
L 237 350
L 238 350
L 239 349
L 240 350
L 241 350
L 242 350
L 243 350
L 244 349
L 245 350
L 246 350
L 247 349
L 248 350
L 249 350
L 250 349
L 251 349
L 252 350
L 253 347
L 253 348
L 254 349
L 255 350
L 256 348
L 257 346
L 258 347
L 259 346
L 260 348
L 261 349
L 262 349
L 263 346
L 264 347
L 265 343
L 266 345
L 267 347
L 268 347
L 269 344
L 269 346
L 270 342
L 271 337
L 272 342
L 273 339
L 274 343
L 275 337
L 276 334
L 277 337
L 278 336
L 279 340
L 280 340
L 281 335
L 282 334
L 283 340
L 284 323
L 285 341
L 286 341
L 286 342
L 287 342
L 288 340
L 289 339
L 290 341
L 291 344
L 292 340
L 293 348
L 294 347
L 295 347
L 296 340
L 297 343
L 298 344
L 299 348
L 300 348
L 301 350
L 302 346
L 302 345
L 303 347
L 304 345
L 305 344
L 306 347
L 307 347
L 308 349
L 309 347
L 310 346
L 311 348
L 312 346
L 313 348
L 314 349
L 315 347
L 316 347
L 317 347
L 318 348
L 319 347
L 319 349
L 320 349
L 321 348
L 322 344
L 323 349
L 324 348
L 325 350
L 326 348
L 327 347
L 328 345
L 329 347
L 330 348
L 331 349
L 332 350
L 333 347
L 334 347
L 335 348
L 335 347
L 336 349
L 337 347
L 338 349
L 339 349
L 340 349
L 341 349
L 342 348
L 343 349
L 344 348
L 345 350
L 346 348
L 347 348
L 348 349
L 349 347
L 350 342
L 351 348
L 352 349
L 352 348
L 353 349
L 354 348
L 355 349
L 356 349
L 357 349
L 358 350
L 359 350
L 360 350
L 361 348
L 362 349
L 363 349
L 364 349
L 365 349
L 366 350
L 367 349
L 368 349
L 368 350
L 369 350
L 370 350
L 371 349
L 372 350
L 373 350
L 374 350
L 375 350
L 376 350
L 377 350
L 378 350
L 379 350
L 380 350
L 381 350
L 382 350
L 383 349
L 384 349
L 385 349
L 385 350
L 386 350
L 387 350
L 388 349
L 389 349
L 390 350
L 391 350
L 392 350
L 393 349
L 394 349
L 395 350
L 396 350
L 397 350
L 398 350
L 399 350
L 400 350
L 401 350
L 401 349
L 402 349
L 403 349
L 404 350
L 405 349
L 406 348
L 407 349
L 408 348
L 409 347
L 410 346
L 411 349
L 412 348
L 413 349
L 414 349
L 415 348
L 416 348
L 417 348
L 418 349
L 418 350
L 419 350
L 420 347
L 421 347
L 422 347
L 423 347
L 424 347
L 425 349
L 426 347
L 427 346
L 428 346
L 429 347
L 430 348
L 431 347
L 432 345
L 433 348
L 434 347
L 434 345
L 435 344
L 436 346
L 437 345
L 438 345
L 439 346
L 440 346
L 441 345
L 442 345
L 443 344
L 444 347
L 445 348
L 446 347
L 447 347
L 448 347
L 449 347
L 450 346
L 451 349
L 451 349
L 452 348
L 453 347
L 454 348
L 455 347
L 456 349
L 457 348
L 458 349
L 459 349
L 460 348
L 461 349
L 462 349
L 463 349
L 464 349
L 465 349
L 466 349
L 467 349
L 467 349
L 468 348
L 469 349
L 470 350
L 471 348
L 472 349
L 473 349
L 474 349
L 475 350
L 476 350
L 477 349
L 478 350
L 479 350
L 480 349
L 481 350
L 482 350
L 483 350
L 484 350
L 484 350
L 485 350
L 486 351
L 487 350
L 488 350
L 489 350
L 490 350
L 491 350
L 492 350
L 493 350
L 494 350
L 495 350
L 496 350
L 497 350
L 498 350
L 499 350
L 500 350
L 500 350
L 501 350
L 502 350
L 503 350
L 504 351
L 505 351
L 506 351
L 507 351
L 508 350
L 509 350
L 510 351
L 511 350
L 512 350
L 513 350
L 514 350
L 515 350
L 516 349
L 516 350
L 517 350
L 518 350
L 519 349
L 520 350
L 521 350
L 522 350
L 523 350
L 524 350
L 525 350
L 526 350
L 527 350
L 528 350
L 529 349
L 530 350
L 531 350
L 532 350
L 533 350
L 533 350
L 534 349
L 535 350
L 536 350
L 537 350
L 538 349
L 539 349
L 540 349
L 541 349
L 542 349
L 543 349
L 544 349
L 545 350
L 546 349
L 547 349
L 548 348
L 549 348
L 549 348
L 550 349
L 551 349
L 552 349
L 553 349
L 554 348
L 555 349
L 556 348
L 557 349
L 558 349
L 559 347
L 560 347
L 561 349
L 562 349
L 563 348
L 564 349
L 565 349
L 566 347
L 566 348
L 567 349
L 568 347
L 569 348
L 570 348
L 571 347
L 572 348
L 573 347
L 574 347
L 575 348
L 576 349
L 577 348
L 578 349
L 579 348
L 580 349
L 581 348
L 582 348
L 582 350
L 583 349
L 584 349
L 585 348
L 586 349
L 587 350
L 588 348
L 589 350
L 590 349
L 591 349
L 592 349
L 593 349
L 594 350
L 595 349
L 596 350
L 597 349
L 598 350
L 599 349
L 599 349
L 600 349
L 601 350
L 602 349
L 603 349
L 604 350
L 605 348
L 606 347
L 607 348
L 608 348
L 609 347
L 610 348
L 611 347
L 612 345
L 613 347
L 614 341
L 615 344
L 615 342
L 616 344
L 617 344
L 618 343
L 619 338
L 620 338
L 621 336
L 622 341
L 623 340
L 624 343
L 625 325
L 626 332
L 627 333
L 628 332
L 629 326
L 630 340
L 631 334
L 632 315
L 632 326
L 633 327
L 634 329
L 635 319
L 636 331
L 637 329
L 638 321
L 639 330
L 640 324
L 641 330
L 642 329
L 643 332
L 644 337
L 645 326
L 646 333
L 647 336
L 648 334
L 648 338
L 649 342
L 650 339
L 651 337
L 652 344
L 653 343
L 654 342
L 655 343
L 656 342
L 657 345
L 658 342
L 659 346
L 660 345
L 661 344
L 662 347
L 663 347
L 664 345
L 665 345
L 665 345
L 666 348
L 667 346
L 668 349
L 669 348
L 670 346
L 671 346
L 672 346
L 673 345
L 674 346
L 675 347
L 676 345
L 677 342
L 678 341
L 679 339
L 680 343
L 681 343
L 681 335
L 682 339
L 683 331
L 684 334
L 685 334
L 686 330
L 687 331
L 688 339
L 689 331
L 690 331
L 691 321
L 692 311
L 693 322
L 694 308
L 695 325
L 696 329
L 697 303
L 698 296
L 698 311
L 699 291
L 700 299
L 701 309
L 702 320
L 703 305
L 704 297
L 705 313
L 706 299
L 707 290
L 708 319
L 709 327
L 710 285
L 711 272
L 712 283
L 713 303
L 714 293
L 714 306
L 715 316
L 716 310
L 717 309
L 718 311
L 719 315
L 720 311
L 721 316
L 722 317
L 723 307
L 724 303
L 725 308
L 726 313
L 727 308
L 728 322
L 729 321
L 730 316
L 731 295
L 731 299
L 732 305
L 733 299
L 734 312
L 735 311
L 736 298
L 737 283
L 738 284
L 739 283
L 740 283
L 741 299
L 742 307
L 743 284
L 744 274
L 745 272
L 746 299
L 747 290
L 747 302
L 748 314
L 749 301
L 750 274
L 751 274
L 752 310
L 753 296
L 754 316
L 755 319
L 756 311
L 757 304
L 758 306
L 759 324
L 760 323
L 761 329
L 762 336
L 763 328
L 764 318
L 764 324
L 765 320
L 766 333
L 767 334
L 768 340
L 769 334
L 770 335
L 771 334
L 772 337
L 773 341
L 774 341
L 775 340
L 776 341
L 777 344
L 778 333
L 779 342
L 780 341
L 780 347
L 781 345
L 782 339
L 783 342
L 784 343
L 785 344
L 786 344
L 787 347
L 788 345
L 789 342
L 790 342
L 791 342
L 792 345
L 793 346
L 794 347
L 795 346
L 796 343
L 797 345
L 797 343
L 798 345
L 799 345
L 800 347
L 801 348
L 802 344
L 803 345
L 804 345
L 805 349
L 806 347
L 807 349
L 808 349
L 809 345
L 810 348
L 811 347
L 812 350
L 813 346
L 813 350
L 814 349
L 815 346
L 816 345
L 817 345
L 818 346
L 819 346
L 820 349
L 821 346
L 822 347
L 823 336
L 824 344
L 825 341
L 826 344
L 827 347
L 828 345
L 829 336
L 830 341
L 830 341
L 831 349
L 832 340
L 833 345
L 834 345
L 835 333
L 836 338
L 837 339
L 838 341
L 839 340
L 840 349
L 841 342
L 842 335
L 843 334
L 844 340
L 845 339
L 846 337
L 846 343
L 847 342
L 848 346
L 849 335
L 850 337
L 851 338
L 852 338
L 853 340
L 854 344
L 855 334
L 856 335
L 857 337
L 858 332
L 859 333
L 860 335
L 861 342
L 862 337
L 863 334
L 863 338
L 864 338
L 865 339
L 866 346
L 867 344
L 868 343
L 869 342
L 870 346
L 871 346
L 872 346
L 873 347
L 874 350
L 875 345
L 876 346
L 877 346
L 878 346
L 879 348
L 879 348
L 880 349
L 881 348
L 882 346
L 883 346
L 884 346
L 885 348
L 886 347
L 887 348
L 888 347
L 889 345
L 890 345
L 891 346
L 892 347
L 893 346
L 894 349
L 895 347
L 896 345
L 896 347
L 897 347
L 898 346
L 899 347
L 900 348
L 901 348
L 902 347
L 903 347
L 904 347
L 905 347
L 906 348
L 907 349
L 908 348
L 909 347
L 910 347
L 911 347
L 912 346
L 912 349
L 913 349
L 914 348
L 915 345
L 916 348
L 917 346
L 918 347
L 919 348
L 920 349
L 921 345
L 922 344
L 923 346
L 924 344
L 925 344
L 926 343
L 927 345
L 928 344
L 929 337
L 929 339
L 930 338
L 931 336
L 932 337
L 933 343
L 934 339
L 935 329
L 936 333
L 937 332
L 938 336
L 939 340
L 940 342
L 941 340
L 942 329
L 943 332
L 944 337
L 945 336
L 945 341
L 946 344
L 947 342
L 948 334
L 949 342
L 950 338
L 951 342
L 952 345
L 953 347
L 954 344
L 955 343
L 956 347
L 957 347
L 958 345
L 959 346
L 960 349
L 961 346
L 961 347" style="stroke-width:1;stroke:rgba(0,217,101,1.0);fill:none"/><path  d="M 38 351
L 39 351
L 40 351
L 41 351
L 42 351
L 43 351
L 44 351
L 45 351
L 46 351
L 47 351
L 48 351
L 49 351
L 50 351
L 51 351
L 52 351
L 53 351
L 54 351
L 55 351
L 55 351
L 56 351
L 57 351
L 58 351
L 59 351
L 60 351
L 61 351
L 62 351
L 63 351
L 64 351
L 65 351
L 66 351
L 67 351
L 68 351
L 69 351
L 70 350
L 71 351
L 71 351
L 72 351
L 73 351
L 74 350
L 75 351
L 76 351
L 77 351
L 78 351
L 79 351
L 80 351
L 81 351
L 82 351
L 83 351
L 84 350
L 85 351
L 86 351
L 87 350
L 88 350
L 88 351
L 89 351
L 90 351
L 91 351
L 92 351
L 93 351
L 94 351
L 95 350
L 96 350
L 97 351
L 98 351
L 99 350
L 100 351
L 101 351
L 102 351
L 103 351
L 104 351
L 104 351
L 105 351
L 106 351
L 107 351
L 108 351
L 109 351
L 110 351
L 111 351
L 112 351
L 113 351
L 114 351
L 115 351
L 116 351
L 117 351
L 118 351
L 119 351
L 120 351
L 121 351
L 121 351
L 122 351
L 123 351
L 124 351
L 125 351
L 126 351
L 127 351
L 128 351
L 129 351
L 130 351
L 131 351
L 132 351
L 133 351
L 134 350
L 135 351
L 136 351
L 137 351
L 137 351
L 138 351
L 139 351
L 140 351
L 141 351
L 142 351
L 143 351
L 144 351
L 145 351
L 146 351
L 147 351
L 148 351
L 149 351
L 150 351
L 151 351
L 152 351
L 153 351
L 154 351
L 154 351
L 155 351
L 156 351
L 157 351
L 158 351
L 159 351
L 160 351
L 161 351
L 162 351
L 163 351
L 164 351
L 165 351
L 166 351
L 167 351
L 168 351
L 169 351
L 170 351
L 170 351
L 171 351
L 172 351
L 173 351
L 174 351
L 175 351
L 176 351
L 177 351
L 178 351
L 179 351
L 180 351
L 181 351
L 182 351
L 183 351
L 184 351
L 185 351
L 186 351
L 187 351
L 187 351
L 188 351
L 189 351
L 190 351
L 191 351
L 192 351
L 193 351
L 194 351
L 195 351
L 196 351
L 197 351
L 198 351
L 199 351
L 200 351
L 201 351
L 202 351
L 203 351
L 203 351
L 204 351
L 205 351
L 206 351
L 207 351
L 208 351
L 209 351
L 210 351
L 211 351
L 212 351
L 213 351
L 214 351
L 215 350
L 216 351
L 217 351
L 218 351
L 219 351
L 220 351
L 220 351
L 221 351
L 222 351
L 223 351
L 224 351
L 225 351
L 226 351
L 227 351
L 228 351
L 229 351
L 230 351
L 231 351
L 232 351
L 233 351
L 234 351
L 235 351
L 236 351
L 236 351
L 237 351
L 238 351
L 239 351
L 240 351
L 241 351
L 242 351
L 243 351
L 244 351
L 245 351
L 246 351
L 247 351
L 248 351
L 249 351
L 250 351
L 251 351
L 252 350
L 253 351
L 253 351
L 254 351
L 255 351
L 256 351
L 257 351
L 258 351
L 259 350
L 260 351
L 261 351
L 262 351
L 263 351
L 264 351
L 265 350
L 266 351
L 267 350
L 268 351
L 269 351
L 269 351
L 270 351
L 271 351
L 272 350
L 273 351
L 274 350
L 275 350
L 276 350
L 277 351
L 278 351
L 279 350
L 280 350
L 281 351
L 282 350
L 283 351
L 284 351
L 285 350
L 286 351
L 286 350
L 287 350
L 288 351
L 289 350
L 290 350
L 291 350
L 292 350
L 293 350
L 294 350
L 295 351
L 296 350
L 297 350
L 298 350
L 299 351
L 300 350
L 301 350
L 302 351
L 302 350
L 303 350
L 304 350
L 305 350
L 306 350
L 307 350
L 308 351
L 309 350
L 310 350
L 311 350
L 312 350
L 313 350
L 314 351
L 315 351
L 316 351
L 317 351
L 318 351
L 319 350
L 319 351
L 320 350
L 321 350
L 322 351
L 323 350
L 324 351
L 325 350
L 326 351
L 327 351
L 328 351
L 329 350
L 330 350
L 331 350
L 332 350
L 333 351
L 334 351
L 335 351
L 335 351
L 336 351
L 337 351
L 338 351
L 339 350
L 340 351
L 341 350
L 342 350
L 343 351
L 344 350
L 345 350
L 346 351
L 347 350
L 348 350
L 349 351
L 350 351
L 351 351
L 352 351
L 352 351
L 353 351
L 354 350
L 355 351
L 356 351
L 357 351
L 358 351
L 359 351
L 360 351
L 361 351
L 362 351
L 363 351
L 364 351
L 365 351
L 366 351
L 367 351
L 368 351
L 368 351
L 369 351
L 370 351
L 371 351
L 372 351
L 373 351
L 374 351
L 375 350
L 376 351
L 377 351
L 378 351
L 379 351
L 380 350
L 381 351
L 382 351
L 383 351
L 384 351
L 385 351
L 385 350
L 386 351
L 387 351
L 388 351
L 389 351
L 390 351
L 391 350
L 392 351
L 393 351
L 394 351
L 395 350
L 396 351
L 397 351
L 398 351
L 399 350
L 400 350
L 401 351
L 401 351
L 402 351
L 403 351
L 404 351
L 405 351
L 406 351
L 407 351
L 408 351
L 409 351
L 410 351
L 411 351
L 412 351
L 413 351
L 414 351
L 415 351
L 416 351
L 417 351
L 418 350
L 418 351
L 419 351
L 420 351
L 421 351
L 422 351
L 423 350
L 424 351
L 425 351
L 426 351
L 427 351
L 428 351
L 429 351
L 430 350
L 431 351
L 432 351
L 433 351
L 434 351
L 434 351
L 435 351
L 436 351
L 437 350
L 438 351
L 439 351
L 440 351
L 441 351
L 442 350
L 443 351
L 444 351
L 445 350
L 446 351
L 447 351
L 448 351
L 449 350
L 450 350
L 451 351
L 451 351
L 452 351
L 453 351
L 454 351
L 455 351
L 456 351
L 457 351
L 458 350
L 459 351
L 460 351
L 461 351
L 462 351
L 463 351
L 464 351
L 465 351
L 466 351
L 467 351
L 467 351
L 468 351
L 469 351
L 470 351
L 471 351
L 472 351
L 473 351
L 474 350
L 475 351
L 476 351
L 477 351
L 478 351
L 479 351
L 480 351
L 481 351
L 482 351
L 483 350
L 484 351
L 484 351
L 485 351
L 486 351
L 487 351
L 488 351
L 489 351
L 490 351
L 491 351
L 492 350
L 493 351
L 494 351
L 495 351
L 496 351
L 497 351
L 498 351
L 499 351
L 500 351
L 500 351
L 501 351
L 502 351
L 503 351
L 504 351
L 505 351
L 506 351
L 507 351
L 508 351
L 509 351
L 510 350
L 511 351
L 512 351
L 513 351
L 514 351
L 515 351
L 516 351
L 516 351
L 517 351
L 518 351
L 519 351
L 520 351
L 521 351
L 522 351
L 523 351
L 524 351
L 525 351
L 526 351
L 527 351
L 528 351
L 529 351
L 530 351
L 531 351
L 532 351
L 533 351
L 533 351
L 534 351
L 535 351
L 536 351
L 537 351
L 538 351
L 539 351
L 540 351
L 541 351
L 542 351
L 543 351
L 544 351
L 545 351
L 546 351
L 547 351
L 548 351
L 549 351
L 549 351
L 550 351
L 551 351
L 552 351
L 553 350
L 554 351
L 555 351
L 556 351
L 557 351
L 558 351
L 559 351
L 560 351
L 561 351
L 562 351
L 563 351
L 564 351
L 565 351
L 566 351
L 566 351
L 567 351
L 568 351
L 569 350
L 570 351
L 571 350
L 572 350
L 573 351
L 574 351
L 575 351
L 576 351
L 577 351
L 578 351
L 579 351
L 580 351
L 581 351
L 582 351
L 582 351
L 583 351
L 584 351
L 585 351
L 586 350
L 587 351
L 588 350
L 589 351
L 590 351
L 591 351
L 592 351
L 593 351
L 594 351
L 595 351
L 596 351
L 597 351
L 598 351
L 599 351
L 599 351
L 600 351
L 601 351
L 602 351
L 603 351
L 604 351
L 605 351
L 606 351
L 607 351
L 608 351
L 609 351
L 610 350
L 611 351
L 612 351
L 613 351
L 614 351
L 615 351
L 615 351
L 616 351
L 617 351
L 618 351
L 619 350
L 620 350
L 621 351
L 622 350
L 623 351
L 624 351
L 625 351
L 626 350
L 627 351
L 628 350
L 629 351
L 630 350
L 631 350
L 632 351
L 632 350
L 633 350
L 634 350
L 635 351
L 636 351
L 637 350
L 638 350
L 639 350
L 640 350
L 641 350
L 642 351
L 643 351
L 644 351
L 645 350
L 646 350
L 647 350
L 648 351
L 648 350
L 649 350
L 650 350
L 651 350
L 652 351
L 653 351
L 654 351
L 655 350
L 656 351
L 657 350
L 658 350
L 659 351
L 660 350
L 661 351
L 662 350
L 663 351
L 664 351
L 665 350
L 665 351
L 666 351
L 667 351
L 668 351
L 669 350
L 670 350
L 671 351
L 672 351
L 673 351
L 674 350
L 675 350
L 676 351
L 677 351
L 678 351
L 679 350
L 680 351
L 681 351
L 681 351
L 682 351
L 683 351
L 684 350
L 685 351
L 686 351
L 687 351
L 688 351
L 689 351
L 690 351
L 691 351
L 692 350
L 693 351
L 694 351
L 695 351
L 696 351
L 697 350
L 698 351
L 698 350
L 699 350
L 700 351
L 701 350
L 702 351
L 703 351
L 704 351
L 705 351
L 706 350
L 707 351
L 708 351
L 709 351
L 710 351
L 711 351
L 712 351
L 713 351
L 714 350
L 714 350
L 715 351
L 716 351
L 717 350
L 718 351
L 719 351
L 720 351
L 721 351
L 722 351
L 723 350
L 724 351
L 725 351
L 726 350
L 727 351
L 728 351
L 729 350
L 730 351
L 731 351
L 731 351
L 732 351
L 733 350
L 734 351
L 735 350
L 736 351
L 737 351
L 738 351
L 739 351
L 740 351
L 741 351
L 742 351
L 743 350
L 744 351
L 745 351
L 746 350
L 747 350
L 747 351
L 748 351
L 749 351
L 750 351
L 751 350
L 752 351
L 753 351
L 754 351
L 755 351
L 756 350
L 757 351
L 758 351
L 759 351
L 760 350
L 761 351
L 762 350
L 763 351
L 764 350
L 764 351
L 765 351
L 766 350
L 767 351
L 768 351
L 769 351
L 770 350
L 771 350
L 772 351
L 773 351
L 774 351
L 775 351
L 776 350
L 777 351
L 778 350
L 779 351
L 780 351
L 780 351
L 781 351
L 782 351
L 783 350
L 784 350
L 785 351
L 786 351
L 787 351
L 788 351
L 789 351
L 790 351
L 791 351
L 792 351
L 793 351
L 794 351
L 795 351
L 796 351
L 797 351
L 797 351
L 798 351
L 799 351
L 800 351
L 801 351
L 802 351
L 803 351
L 804 351
L 805 351
L 806 351
L 807 351
L 808 351
L 809 351
L 810 351
L 811 351
L 812 351
L 813 351
L 813 351
L 814 351
L 815 351
L 816 351
L 817 351
L 818 351
L 819 351
L 820 351
L 821 351
L 822 351
L 823 351
L 824 351
L 825 351
L 826 351
L 827 351
L 828 351
L 829 351
L 830 351
L 830 351
L 831 351
L 832 351
L 833 351
L 834 351
L 835 351
L 836 351
L 837 351
L 838 351
L 839 351
L 840 351
L 841 350
L 842 351
L 843 351
L 844 351
L 845 351
L 846 351
L 846 351
L 847 351
L 848 351
L 849 351
L 850 351
L 851 351
L 852 351
L 853 351
L 854 351
L 855 351
L 856 351
L 857 351
L 858 351
L 859 351
L 860 351
L 861 351
L 862 351
L 863 351
L 863 351
L 864 351
L 865 351
L 866 351
L 867 350
L 868 351
L 869 351
L 870 350
L 871 351
L 872 351
L 873 350
L 874 351
L 875 351
L 876 351
L 877 351
L 878 351
L 879 351
L 879 351
L 880 351
L 881 351
L 882 351
L 883 351
L 884 351
L 885 351
L 886 351
L 887 351
L 888 351
L 889 351
L 890 351
L 891 350
L 892 351
L 893 351
L 894 351
L 895 351
L 896 351
L 896 351
L 897 351
L 898 351
L 899 351
L 900 351
L 901 351
L 902 351
L 903 351
L 904 351
L 905 351
L 906 351
L 907 351
L 908 351
L 909 351
L 910 351
L 911 351
L 912 351
L 912 351
L 913 351
L 914 351
L 915 351
L 916 351
L 917 351
L 918 351
L 919 351
L 920 351
L 921 351
L 922 351
L 923 351
L 924 351
L 925 351
L 926 351
L 927 351
L 928 351
L 929 351
L 929 351
L 930 351
L 931 351
L 932 351
L 933 351
L 934 351
L 935 351
L 936 351
L 937 351
L 938 351
L 939 351
L 940 351
L 941 351
L 942 350
L 943 351
L 944 351
L 945 351
L 945 351
L 946 351
L 947 350
L 948 351
L 949 351
L 950 351
L 951 351
L 952 351
L 953 350
L 954 351
L 955 351
L 956 351
L 957 350
L 958 351
L 959 351
L 960 351
L 961 351
L 961 351" style="stroke-width:1;stroke:rgba(217,0,116,1.0);fill:none"/><text x="408" y="33" style="stroke-width:0;stroke:none;fill:rgba(51,51,51,1.0);font-size:23.0px;font-family:'Roboto Medium',sans-serif">Bregenz 01.11.2022</text><path  d="M 38 11
L 251 11
L 251 91
L 38 91
L 38 11" style="stroke-width:1;stroke:rgba(51,51,51,1.0);fill:rgba(255,255,255,1.0)"/><text x="43" y="26" style="stroke-width:0;stroke:none;fill:rgba(51,51,51,1.0);font-size:10.2px;font-family:'Roboto Medium',sans-serif">Sieben Tage Durschnitt Inzidenz Fälle</text><path  d="M 221 21
L 241 21" style="stroke-width:1;stroke:rgba(0,116,217,1.0);fill:none"/><text x="43" y="56" style="stroke-width:0;stroke:none;fill:rgba(51,51,51,1.0);font-size:10.2px;font-family:'Roboto Medium',sans-serif">Anzahl Faelle</text><path  d="M 110 51
L 241 51" style="stroke-width:1;stroke:rgba(0,217,101,1.0);fill:none"/><text x="43" y="86" style="stroke-width:0;stroke:none;fill:rgba(51,51,51,1.0);font-size:10.2px;font-family:'Roboto Medium',sans-serif">Anzahl Tot</text><path  d="M 98 81
L 241 81" style="stroke-width:1;stroke:rgba(217,0,116,1.0);fill:none"/></svg>