<svg xmlns="http://www.w3.org/2000/svg" xmlns:xlink="http://www.w3.org/1999/xlink" width="1024" height="400">\n<path  d="M 0 0
L 1024 0
L 1024 400
L 0 400
L 0 0" style="stroke-width:0;stroke:rgba(255,255,255,1.0);fill:rgba(255,255,255,1.0)"/><path  d="M 38 11
L 969 11
L 969 351
L 38 351
L 38 11" style="stroke-width:0;stroke:rgba(255,255,255,1.0);fill:rgba(255,255,255,1.0)"/><path  d="M 38 351
L 969 351" style="stroke-width:1;stroke:rgba(51,51,51,1.0);fill:none"/><path  d="M 38 351
L 38 356" style="stroke-width:1;stroke:rgba(51,51,51,1.0);fill:none"/><text x="5" y="373" style="stroke-width:0;stroke:none;fill:rgba(51,51,51,1.0);font-size:12.8px;font-family:'Roboto Medium',sans-serif">2020-02-26</text><path  d="M 155 351
L 155 356" style="stroke-width:1;stroke:rgba(51,51,51,1.0);fill:none"/><text x="122" y="373" style="stroke-width:0;stroke:none;fill:rgba(51,51,51,1.0);font-size:12.8px;font-family:'Roboto Medium',sans-serif">2020-04-21</text><path  d="M 271 351
L 271 356" style="stroke-width:1;stroke:rgba(51,51,51,1.0);fill:none"/><text x="238" y="373" style="stroke-width:0;stroke:none;fill:rgba(51,51,51,1.0);font-size:12.8px;font-family:'Roboto Medium',sans-serif">2020-06-16</text><path  d="M 388 351
L 388 356" style="stroke-width:1;stroke:rgba(51,51,51,1.0);fill:none"/><text x="355" y="373" style="stroke-width:0;stroke:none;fill:rgba(51,51,51,1.0);font-size:12.8px;font-family:'Roboto Medium',sans-serif">2020-08-11</text><path  d="M 504 351
L 504 356" style="stroke-width:1;stroke:rgba(51,51,51,1.0);fill:none"/><text x="471" y="373" style="stroke-width:0;stroke:none;fill:rgba(51,51,51,1.0);font-size:12.8px;font-family:'Roboto Medium',sans-serif">2020-10-06</text><path  d="M 620 351
L 620 356" style="stroke-width:1;stroke:rgba(51,51,51,1.0);fill:none"/><text x="587" y="373" style="stroke-width:0;stroke:none;fill:rgba(51,51,51,1.0);font-size:12.8px;font-family:'Roboto Medium',sans-serif">2020-11-30</text><path  d="M 737 351
L 737 356" style="stroke-width:1;stroke:rgba(51,51,51,1.0);fill:none"/><text x="704" y="373" style="stroke-width:0;stroke:none;fill:rgba(51,51,51,1.0);font-size:12.8px;font-family:'Roboto Medium',sans-serif">2021-01-25</text><path  d="M 853 351
L 853 356" style="stroke-width:1;stroke:rgba(51,51,51,1.0);fill:none"/><text x="820" y="373" style="stroke-width:0;stroke:none;fill:rgba(51,51,51,1.0);font-size:12.8px;font-family:'Roboto Medium',sans-serif">2021-03-22</text><path  d="M 969 351
L 969 356" style="stroke-width:1;stroke:rgba(51,51,51,1.0);fill:none"/><text x="936" y="373" style="stroke-width:0;stroke:none;fill:rgba(51,51,51,1.0);font-size:12.8px;font-family:'Roboto Medium',sans-serif">2021-05-17</text><text x="485" y="395" style="stroke-width:0;stroke:none;fill:rgba(51,51,51,1.0);font-size:12.8px;font-family:'Roboto Medium',sans-serif">Datum</text><path  d="M 970 351
L 970 11" style="stroke-width:1;stroke:rgba(51,51,51,1.0);fill:none"/><path  d="M 970 351
L 975 351" style="stroke-width:1;stroke:rgba(51,51,51,1.0);fill:none"/><text x="980" y="357" style="stroke-width:0;stroke:none;fill:rgba(51,51,51,1.0);font-size:12.8px;font-family:'Roboto Medium',sans-serif">0.00</text><path  d="M 970 308
L 975 308" style="stroke-width:1;stroke:rgba(51,51,51,1.0);fill:none"/><text x="980" y="314" style="stroke-width:0;stroke:none;fill:rgba(51,51,51,1.0);font-size:12.8px;font-family:'Roboto Medium',sans-serif">80.00</text><path  d="M 970 266
L 975 266" style="stroke-width:1;stroke:rgba(51,51,51,1.0);fill:none"/><text x="980" y="272" style="stroke-width:0;stroke:none;fill:rgba(51,51,51,1.0);font-size:12.8px;font-family:'Roboto Medium',sans-serif">160.00</text><path  d="M 970 223
L 975 223" style="stroke-width:1;stroke:rgba(51,51,51,1.0);fill:none"/><text x="980" y="229" style="stroke-width:0;stroke:none;fill:rgba(51,51,51,1.0);font-size:12.8px;font-family:'Roboto Medium',sans-serif">240.00</text><path  d="M 970 181
L 975 181" style="stroke-width:1;stroke:rgba(51,51,51,1.0);fill:none"/><text x="980" y="187" style="stroke-width:0;stroke:none;fill:rgba(51,51,51,1.0);font-size:12.8px;font-family:'Roboto Medium',sans-serif">320.00</text><path  d="M 970 138
L 975 138" style="stroke-width:1;stroke:rgba(51,51,51,1.0);fill:none"/><text x="980" y="144" style="stroke-width:0;stroke:none;fill:rgba(51,51,51,1.0);font-size:12.8px;font-family:'Roboto Medium',sans-serif">400.00</text><path  d="M 970 96
L 975 96" style="stroke-width:1;stroke:rgba(51,51,51,1.0);fill:none"/><text x="980" y="102" style="stroke-width:0;stroke:none;fill:rgba(51,51,51,1.0);font-size:12.8px;font-family:'Roboto Medium',sans-serif">480.00</text><path  d="M 970 53
L 975 53" style="stroke-width:1;stroke:rgba(51,51,51,1.0);fill:none"/><text x="980" y="59" style="stroke-width:0;stroke:none;fill:rgba(51,51,51,1.0);font-size:12.8px;font-family:'Roboto Medium',sans-serif">560.00</text><path  d="M 970 11
L 975 11" style="stroke-width:1;stroke:rgba(51,51,51,1.0);fill:none"/><text x="980" y="17" style="stroke-width:0;stroke:none;fill:rgba(51,51,51,1.0);font-size:12.8px;font-family:'Roboto Medium',sans-serif">640.00</text><path  d="M 38 351
L 41 351
L 43 351
L 45 351
L 47 351
L 49 350
L 51 350
L 53 350
L 55 350
L 57 350
L 59 350
L 61 350
L 64 351
L 66 351
L 68 351
L 70 351
L 72 351
L 74 349
L 76 349
L 78 349
L 80 348
L 82 348
L 84 348
L 87 346
L 89 348
L 91 347
L 93 345
L 95 342
L 97 342
L 99 339
L 101 340
L 103 337
L 105 335
L 107 337
L 109 339
L 112 340
L 114 341
L 116 342
L 118 344
L 120 347
L 122 346
L 124 347
L 126 347
L 128 348
L 130 346
L 132 346
L 135 346
L 137 347
L 139 346
L 141 346
L 143 346
L 145 348
L 147 349
L 149 349
L 151 349
L 153 350
L 155 350
L 157 350
L 160 351
L 162 351
L 164 351
L 166 351
L 168 351
L 170 351
L 172 351
L 174 351
L 176 351
L 178 351
L 180 351
L 183 351
L 185 351
L 187 351
L 189 351
L 191 351
L 193 351
L 195 351
L 197 351
L 199 351
L 201 351
L 203 351
L 205 351
L 208 350
L 210 350
L 212 350
L 214 350
L 216 350
L 218 350
L 220 350
L 222 351
L 224 351
L 226 351
L 228 351
L 231 351
L 233 351
L 235 351
L 237 351
L 239 351
L 241 351
L 243 351
L 245 351
L 247 351
L 249 351
L 251 351
L 254 351
L 256 351
L 258 351
L 260 351
L 262 351
L 264 351
L 266 351
L 268 351
L 270 351
L 272 351
L 274 351
L 276 351
L 279 351
L 281 351
L 283 351
L 285 349
L 287 349
L 289 348
L 291 348
L 293 348
L 295 348
L 297 348
L 299 349
L 302 349
L 304 349
L 306 349
L 308 349
L 310 349
L 312 349
L 314 349
L 316 348
L 318 348
L 320 348
L 322 348
L 324 348
L 327 348
L 329 348
L 331 349
L 333 350
L 335 350
L 337 350
L 339 351
L 341 351
L 343 351
L 345 350
L 347 350
L 350 350
L 352 350
L 354 350
L 356 349
L 358 348
L 360 348
L 362 348
L 364 347
L 366 347
L 368 347
L 370 348
L 372 349
L 375 348
L 377 349
L 379 349
L 381 349
L 383 349
L 385 349
L 387 348
L 389 348
L 391 348
L 393 348
L 395 347
L 398 347
L 400 347
L 402 345
L 404 346
L 406 345
L 408 345
L 410 344
L 412 345
L 414 345
L 416 347
L 418 345
L 421 346
L 423 345
L 425 346
L 427 346
L 429 345
L 431 344
L 433 346
L 435 345
L 437 346
L 439 346
L 441 345
L 443 346
L 446 347
L 448 346
L 450 347
L 452 347
L 454 347
L 456 347
L 458 346
L 460 344
L 462 345
L 464 345
L 466 345
L 469 343
L 471 342
L 473 341
L 475 341
L 477 340
L 479 340
L 481 339
L 483 339
L 485 340
L 487 341
L 489 343
L 491 341
L 494 341
L 496 339
L 498 340
L 500 339
L 502 337
L 504 328
L 506 329
L 508 323
L 510 322
L 512 319
L 514 321
L 517 318
L 519 323
L 521 324
L 523 329
L 525 333
L 527 332
L 529 330
L 531 332
L 533 333
L 535 325
L 537 313
L 539 302
L 542 289
L 544 281
L 546 270
L 548 261
L 550 251
L 552 236
L 554 227
L 556 213
L 558 207
L 560 184
L 562 152
L 565 135
L 567 127
L 569 101
L 571 82
L 573 64
L 575 72
L 577 46
L 579 23
L 581 24
L 583 11
L 585 30
L 587 48
L 590 52
L 592 69
L 594 104
L 596 68
L 598 95
L 600 94
L 602 101
L 604 101
L 606 124
L 608 109
L 610 145
L 613 152
L 615 135
L 617 127
L 619 142
L 621 136
L 623 144
L 625 151
L 627 128
L 629 152
L 631 162
L 633 160
L 636 183
L 638 191
L 640 192
L 642 214
L 644 230
L 646 211
L 648 201
L 650 200
L 652 202
L 654 221
L 656 237
L 658 233
L 661 253
L 663 268
L 665 266
L 667 268
L 669 264
L 671 271
L 673 275
L 675 276
L 677 281
L 679 280
L 681 288
L 684 290
L 686 289
L 688 291
L 690 284
L 692 280
L 694 286
L 696 287
L 698 279
L 700 275
L 702 281
L 704 282
L 706 279
L 709 272
L 711 276
L 713 285
L 715 288
L 717 285
L 719 293
L 721 297
L 723 307
L 725 305
L 727 298
L 729 300
L 732 300
L 734 291
L 736 292
L 738 293
L 740 293
L 742 301
L 744 296
L 746 295
L 748 303
L 750 298
L 752 290
L 754 283
L 757 281
L 759 278
L 761 274
L 763 271
L 765 269
L 767 263
L 769 266
L 771 269
L 773 270
L 775 274
L 777 266
L 780 268
L 782 275
L 784 278
L 786 275
L 788 269
L 790 261
L 792 267
L 794 273
L 796 278
L 798 271
L 800 275
L 803 278
L 805 280
L 807 282
L 809 273
L 811 273
L 813 267
L 815 268
L 817 254
L 819 258
L 821 249
L 823 254
L 825 248
L 828 262
L 830 256
L 832 276
L 834 271
L 836 269
L 838 269
L 840 275
L 842 266
L 844 266
L 846 259
L 848 263
L 851 273
L 853 276
L 855 265
L 857 268
L 859 274
L 861 288
L 863 287
L 865 276
L 867 276
L 869 287
L 871 290
L 873 279
L 876 269
L 878 259
L 880 270
L 882 269
L 884 271
L 886 274
L 888 285
L 890 284
L 892 292
L 894 290
L 896 291
L 899 290
L 901 290
L 903 286
L 905 298
L 907 304
L 909 303
L 911 304
L 913 306
L 915 300
L 917 302
L 919 299
L 921 295
L 924 295
L 926 299
L 928 296
L 930 300
L 932 296
L 934 296
L 936 303
L 938 307
L 940 303
L 942 306
L 944 310
L 947 315
L 949 317
L 951 317
L 953 311
L 955 313
L 957 313
L 959 314
L 961 315
L 963 315
L 965 316
L 967 322
L 969 324" style="stroke-width:1;stroke:rgba(0,116,217,1.0);fill:none"/><path  d="M 38 351
L 41 351
L 43 351
L 45 351
L 47 351
L 49 350
L 51 351
L 53 351
L 55 351
L 57 351
L 59 351
L 61 351
L 64 351
L 66 351
L 68 351
L 70 351
L 72 351
L 74 349
L 76 351
L 78 351
L 80 350
L 82 350
L 84 351
L 87 349
L 89 351
L 91 350
L 93 348
L 95 348
L 97 349
L 99 348
L 101 349
L 103 348
L 105 348
L 107 350
L 109 349
L 112 351
L 114 349
L 116 350
L 118 350
L 120 351
L 122 349
L 124 351
L 126 350
L 128 351
L 130 348
L 132 349
L 135 351
L 137 351
L 139 349
L 141 351
L 143 351
L 145 350
L 147 351
L 149 351
L 151 351
L 153 351
L 155 351
L 157 351
L 160 351
L 162 351
L 164 351
L 166 351
L 168 351
L 170 351
L 172 351
L 174 351
L 176 351
L 178 351
L 180 351
L 183 351
L 185 351
L 187 351
L 189 351
L 191 351
L 193 351
L 195 351
L 197 351
L 199 351
L 201 351
L 203 351
L 205 351
L 208 350
L 210 351
L 212 351
L 214 351
L 216 351
L 218 351
L 220 351
L 222 351
L 224 351
L 226 351
L 228 351
L 231 351
L 233 351
L 235 351
L 237 351
L 239 351
L 241 351
L 243 351
L 245 351
L 247 351
L 249 351
L 251 351
L 254 351
L 256 351
L 258 351
L 260 351
L 262 351
L 264 351
L 266 351
L 268 351
L 270 351
L 272 351
L 274 351
L 276 351
L 279 351
L 281 351
L 283 351
L 285 349
L 287 350
L 289 350
L 291 350
L 293 351
L 295 351
L 297 351
L 299 351
L 302 351
L 304 349
L 306 351
L 308 351
L 310 351
L 312 351
L 314 350
L 316 349
L 318 350
L 320 351
L 322 351
L 324 350
L 327 351
L 329 351
L 331 351
L 333 351
L 335 351
L 337 351
L 339 351
L 341 351
L 343 351
L 345 350
L 347 351
L 350 351
L 352 351
L 354 351
L 356 349
L 358 349
L 360 351
L 362 350
L 364 350
L 366 351
L 368 351
L 370 351
L 372 351
L 375 349
L 377 351
L 379 351
L 381 351
L 383 350
L 385 351
L 387 349
L 389 350
L 391 351
L 393 350
L 395 350
L 398 350
L 400 350
L 402 348
L 404 351
L 406 349
L 408 350
L 410 349
L 412 351
L 414 351
L 416 350
L 418 348
L 421 350
L 423 349
L 425 351
L 427 351
L 429 350
L 431 349
L 433 350
L 435 349
L 437 349
L 439 351
L 441 350
L 443 351
L 446 350
L 448 349
L 450 350
L 452 350
L 454 350
L 456 350
L 458 349
L 460 348
L 462 350
L 464 350
L 466 350
L 469 348
L 471 349
L 473 348
L 475 348
L 477 349
L 479 350
L 481 349
L 483 349
L 485 350
L 487 349
L 489 351
L 491 347
L 494 349
L 496 347
L 498 350
L 500 348
L 502 347
L 504 342
L 506 348
L 508 344
L 510 346
L 512 347
L 514 351
L 517 344
L 519 347
L 521 349
L 523 349
L 525 350
L 527 347
L 529 348
L 531 346
L 533 348
L 535 340
L 537 338
L 539 338
L 542 335
L 544 340
L 546 336
L 548 338
L 550 331
L 552 323
L 554 329
L 556 321
L 558 334
L 560 312
L 562 307
L 565 315
L 567 314
L 569 304
L 571 302
L 573 317
L 575 320
L 577 281
L 579 293
L 581 315
L 583 292
L 585 320
L 587 335
L 590 324
L 592 298
L 594 327
L 596 280
L 598 318
L 600 319
L 602 341
L 604 323
L 606 321
L 608 312
L 610 315
L 613 326
L 615 302
L 617 334
L 619 338
L 621 315
L 623 320
L 625 323
L 627 303
L 629 326
L 631 344
L 633 336
L 636 338
L 638 328
L 640 324
L 642 324
L 644 341
L 646 324
L 648 327
L 650 337
L 652 330
L 654 343
L 656 340
L 658 337
L 661 345
L 663 341
L 665 335
L 667 332
L 669 339
L 671 347
L 673 341
L 675 346
L 677 346
L 679 334
L 681 340
L 684 341
L 686 346
L 688 343
L 690 339
L 692 343
L 694 340
L 696 340
L 698 333
L 700 341
L 702 348
L 704 340
L 706 340
L 709 332
L 711 345
L 713 342
L 715 344
L 717 346
L 719 348
L 721 343
L 723 343
L 725 343
L 727 335
L 729 345
L 732 346
L 734 340
L 736 344
L 738 344
L 740 343
L 742 343
L 744 340
L 746 345
L 748 348
L 750 339
L 752 337
L 754 336
L 757 341
L 759 337
L 761 340
L 763 345
L 765 337
L 767 331
L 769 338
L 771 344
L 773 338
L 775 344
L 777 338
L 780 338
L 782 339
L 784 341
L 786 341
L 788 331
L 790 337
L 792 344
L 794 344
L 796 344
L 798 335
L 800 345
L 803 335
L 805 339
L 807 346
L 809 335
L 811 344
L 813 328
L 815 346
L 817 321
L 819 344
L 821 336
L 823 340
L 825 337
L 828 342
L 830 340
L 832 341
L 834 338
L 836 335
L 838 340
L 840 343
L 842 334
L 844 340
L 846 334
L 848 342
L 851 345
L 853 343
L 855 332
L 857 337
L 859 346
L 861 348
L 863 341
L 865 334
L 867 343
L 869 343
L 871 339
L 873 336
L 876 337
L 878 331
L 880 345
L 882 343
L 884 344
L 886 343
L 888 347
L 890 336
L 892 339
L 894 342
L 896 344
L 899 343
L 901 343
L 903 343
L 905 347
L 907 345
L 909 341
L 911 344
L 913 346
L 915 337
L 917 345
L 919 344
L 921 341
L 924 342
L 926 348
L 928 343
L 930 341
L 932 340
L 934 344
L 936 347
L 938 347
L 940 344
L 942 346
L 944 345
L 947 346
L 949 346
L 951 348
L 953 340
L 955 346
L 957 346
L 959 346
L 961 347
L 963 346
L 965 348
L 967 347
L 969 347" style="stroke-width:1;stroke:rgba(0,217,101,1.0);fill:none"/><path  d="M 38 351
L 41 351
L 43 351
L 45 351
L 47 351
L 49 351
L 51 351
L 53 351
L 55 351
L 57 351
L 59 351
L 61 351
L 64 351
L 66 351
L 68 351
L 70 351
L 72 351
L 74 351
L 76 351
L 78 351
L 80 351
L 82 351
L 84 351
L 87 351
L 89 351
L 91 351
L 93 351
L 95 351
L 97 350
L 99 351
L 101 351
L 103 351
L 105 351
L 107 350
L 109 351
L 112 351
L 114 351
L 116 351
L 118 351
L 120 351
L 122 351
L 124 351
L 126 351
L 128 351
L 130 350
L 132 351
L 135 351
L 137 351
L 139 351
L 141 351
L 143 351
L 145 351
L 147 350
L 149 351
L 151 351
L 153 351
L 155 351
L 157 350
L 160 351
L 162 351
L 164 351
L 166 351
L 168 351
L 170 351
L 172 351
L 174 351
L 176 351
L 178 351
L 180 351
L 183 351
L 185 351
L 187 351
L 189 351
L 191 351
L 193 351
L 195 351
L 197 351
L 199 351
L 201 351
L 203 351
L 205 351
L 208 351
L 210 351
L 212 351
L 214 351
L 216 351
L 218 351
L 220 351
L 222 351
L 224 351
L 226 351
L 228 351
L 231 351
L 233 351
L 235 351
L 237 351
L 239 351
L 241 351
L 243 351
L 245 351
L 247 351
L 249 351
L 251 351
L 254 351
L 256 351
L 258 351
L 260 351
L 262 351
L 264 351
L 266 351
L 268 351
L 270 351
L 272 351
L 274 351
L 276 351
L 279 351
L 281 351
L 283 351
L 285 351
L 287 351
L 289 351
L 291 351
L 293 351
L 295 351
L 297 351
L 299 351
L 302 351
L 304 351
L 306 351
L 308 351
L 310 351
L 312 351
L 314 351
L 316 351
L 318 351
L 320 351
L 322 351
L 324 351
L 327 351
L 329 351
L 331 351
L 333 351
L 335 351
L 337 351
L 339 351
L 341 351
L 343 351
L 345 351
L 347 351
L 350 351
L 352 351
L 354 351
L 356 351
L 358 351
L 360 351
L 362 351
L 364 351
L 366 351
L 368 351
L 370 351
L 372 351
L 375 351
L 377 351
L 379 351
L 381 351
L 383 351
L 385 351
L 387 351
L 389 350
L 391 351
L 393 351
L 395 351
L 398 351
L 400 351
L 402 351
L 404 351
L 406 351
L 408 351
L 410 351
L 412 351
L 414 351
L 416 351
L 418 351
L 421 351
L 423 351
L 425 351
L 427 351
L 429 351
L 431 351
L 433 351
L 435 351
L 437 351
L 439 351
L 441 351
L 443 351
L 446 351
L 448 351
L 450 351
L 452 351
L 454 351
L 456 351
L 458 351
L 460 351
L 462 351
L 464 351
L 466 351
L 469 351
L 471 351
L 473 351
L 475 351
L 477 351
L 479 351
L 481 351
L 483 351
L 485 351
L 487 351
L 489 351
L 491 351
L 494 351
L 496 350
L 498 351
L 500 351
L 502 351
L 504 351
L 506 351
L 508 351
L 510 350
L 512 351
L 514 351
L 517 349
L 519 351
L 521 351
L 523 350
L 525 351
L 527 349
L 529 351
L 531 351
L 533 350
L 535 351
L 537 349
L 539 351
L 542 351
L 544 351
L 546 351
L 548 351
L 550 349
L 552 350
L 554 350
L 556 350
L 558 350
L 560 349
L 562 351
L 565 349
L 567 351
L 569 350
L 571 350
L 573 351
L 575 351
L 577 349
L 579 350
L 581 350
L 583 350
L 585 350
L 587 350
L 590 348
L 592 350
L 594 350
L 596 351
L 598 350
L 600 348
L 602 349
L 604 349
L 606 350
L 608 351
L 610 348
L 613 349
L 615 346
L 617 349
L 619 350
L 621 349
L 623 349
L 625 347
L 627 347
L 629 350
L 631 349
L 633 350
L 636 349
L 638 349
L 640 348
L 642 348
L 644 348
L 646 349
L 648 347
L 650 348
L 652 350
L 654 349
L 656 349
L 658 351
L 661 348
L 663 351
L 665 348
L 667 350
L 669 348
L 671 351
L 673 351
L 675 351
L 677 349
L 679 349
L 681 350
L 684 348
L 686 348
L 688 349
L 690 351
L 692 349
L 694 348
L 696 349
L 698 349
L 700 351
L 702 350
L 704 349
L 706 351
L 709 351
L 711 350
L 713 350
L 715 351
L 717 351
L 719 349
L 721 351
L 723 351
L 725 350
L 727 351
L 729 350
L 732 351
L 734 350
L 736 349
L 738 350
L 740 351
L 742 351
L 744 349
L 746 349
L 748 350
L 750 350
L 752 350
L 754 351
L 757 351
L 759 351
L 761 350
L 763 351
L 765 350
L 767 351
L 769 349
L 771 349
L 773 351
L 775 351
L 777 350
L 780 350
L 782 351
L 784 349
L 786 350
L 788 350
L 790 349
L 792 350
L 794 349
L 796 350
L 798 350
L 800 351
L 803 351
L 805 349
L 807 351
L 809 350
L 811 351
L 813 350
L 815 350
L 817 351
L 819 350
L 821 350
L 823 350
L 825 351
L 828 351
L 830 350
L 832 351
L 834 350
L 836 351
L 838 351
L 840 351
L 842 351
L 844 351
L 846 349
L 848 351
L 851 351
L 853 351
L 855 351
L 857 350
L 859 351
L 861 349
L 863 351
L 865 351
L 867 350
L 869 351
L 871 351
L 873 351
L 876 350
L 878 351
L 880 351
L 882 351
L 884 350
L 886 350
L 888 351
L 890 350
L 892 351
L 894 351
L 896 350
L 899 351
L 901 350
L 903 351
L 905 351
L 907 349
L 909 351
L 911 351
L 913 351
L 915 351
L 917 349
L 919 351
L 921 351
L 924 351
L 926 350
L 928 351
L 930 351
L 932 351
L 934 351
L 936 351
L 938 351
L 940 351
L 942 351
L 944 351
L 947 351
L 949 351
L 951 351
L 953 351
L 955 351
L 957 351
L 959 351
L 961 351
L 963 351
L 965 351
L 967 351
L 969 351" style="stroke-width:1;stroke:rgba(217,0,116,1.0);fill:none"/><text x="344" y="33" style="stroke-width:0;stroke:none;fill:rgba(51,51,51,1.0);font-size:23.0px;font-family:'Roboto Medium',sans-serif">Bruck-Mürzzuschlag 17.05.2021</text><path  d="M 38 11
L 251 11
L 251 91
L 38 91
L 38 11" style="stroke-width:1;stroke:rgba(51,51,51,1.0);fill:rgba(255,255,255,1.0)"/><text x="43" y="26" style="stroke-width:0;stroke:none;fill:rgba(51,51,51,1.0);font-size:10.2px;font-family:'Roboto Medium',sans-serif">Sieben Tage Durschnitt Inzidenz Fälle</text><path  d="M 221 21
L 241 21" style="stroke-width:1;stroke:rgba(0,116,217,1.0);fill:none"/><text x="43" y="56" style="stroke-width:0;stroke:none;fill:rgba(51,51,51,1.0);font-size:10.2px;font-family:'Roboto Medium',sans-serif">Anzahl Faelle</text><path  d="M 110 51
L 241 51" style="stroke-width:1;stroke:rgba(0,217,101,1.0);fill:none"/><text x="43" y="86" style="stroke-width:0;stroke:none;fill:rgba(51,51,51,1.0);font-size:10.2px;font-family:'Roboto Medium',sans-serif">Anzahl Tot</text><path  d="M 98 81
L 241 81" style="stroke-width:1;stroke:rgba(217,0,116,1.0);fill:none"/></svg>