<svg xmlns="http://www.w3.org/2000/svg" xmlns:xlink="http://www.w3.org/1999/xlink" width="1024" height="400">\n<path  d="M 0 0
L 1024 0
L 1024 400
L 0 400
L 0 0" style="stroke-width:0;stroke:rgba(255,255,255,1.0);fill:rgba(255,255,255,1.0)"/><path  d="M 38 11
L 961 11
L 961 351
L 38 351
L 38 11" style="stroke-width:0;stroke:rgba(255,255,255,1.0);fill:rgba(255,255,255,1.0)"/><path  d="M 38 351
L 961 351" style="stroke-width:1;stroke:rgba(51,51,51,1.0);fill:none"/><path  d="M 38 351
L 38 356" style="stroke-width:1;stroke:rgba(51,51,51,1.0);fill:none"/><text x="5" y="373" style="stroke-width:0;stroke:none;fill:rgba(51,51,51,1.0);font-size:12.8px;font-family:'Roboto Medium',sans-serif">2020-02-26</text><path  d="M 154 351
L 154 356" style="stroke-width:1;stroke:rgba(51,51,51,1.0);fill:none"/><text x="121" y="373" style="stroke-width:0;stroke:none;fill:rgba(51,51,51,1.0);font-size:12.8px;font-family:'Roboto Medium',sans-serif">2020-05-22</text><path  d="M 269 351
L 269 356" style="stroke-width:1;stroke:rgba(51,51,51,1.0);fill:none"/><text x="236" y="373" style="stroke-width:0;stroke:none;fill:rgba(51,51,51,1.0);font-size:12.8px;font-family:'Roboto Medium',sans-serif">2020-08-17</text><path  d="M 385 351
L 385 356" style="stroke-width:1;stroke:rgba(51,51,51,1.0);fill:none"/><text x="352" y="373" style="stroke-width:0;stroke:none;fill:rgba(51,51,51,1.0);font-size:12.8px;font-family:'Roboto Medium',sans-serif">2020-11-12</text><path  d="M 500 351
L 500 356" style="stroke-width:1;stroke:rgba(51,51,51,1.0);fill:none"/><text x="467" y="373" style="stroke-width:0;stroke:none;fill:rgba(51,51,51,1.0);font-size:12.8px;font-family:'Roboto Medium',sans-serif">2021-02-07</text><path  d="M 615 351
L 615 356" style="stroke-width:1;stroke:rgba(51,51,51,1.0);fill:none"/><text x="582" y="373" style="stroke-width:0;stroke:none;fill:rgba(51,51,51,1.0);font-size:12.8px;font-family:'Roboto Medium',sans-serif">2021-05-04</text><path  d="M 731 351
L 731 356" style="stroke-width:1;stroke:rgba(51,51,51,1.0);fill:none"/><text x="698" y="373" style="stroke-width:0;stroke:none;fill:rgba(51,51,51,1.0);font-size:12.8px;font-family:'Roboto Medium',sans-serif">2021-07-30</text><path  d="M 846 351
L 846 356" style="stroke-width:1;stroke:rgba(51,51,51,1.0);fill:none"/><text x="813" y="373" style="stroke-width:0;stroke:none;fill:rgba(51,51,51,1.0);font-size:12.8px;font-family:'Roboto Medium',sans-serif">2021-10-25</text><path  d="M 961 351
L 961 356" style="stroke-width:1;stroke:rgba(51,51,51,1.0);fill:none"/><text x="928" y="373" style="stroke-width:0;stroke:none;fill:rgba(51,51,51,1.0);font-size:12.8px;font-family:'Roboto Medium',sans-serif">2022-01-20</text><text x="481" y="395" style="stroke-width:0;stroke:none;fill:rgba(51,51,51,1.0);font-size:12.8px;font-family:'Roboto Medium',sans-serif">Datum</text><path  d="M 962 351
L 962 11" style="stroke-width:1;stroke:rgba(51,51,51,1.0);fill:none"/><path  d="M 962 351
L 967 351" style="stroke-width:1;stroke:rgba(51,51,51,1.0);fill:none"/><text x="972" y="357" style="stroke-width:0;stroke:none;fill:rgba(51,51,51,1.0);font-size:12.8px;font-family:'Roboto Medium',sans-serif">0.00</text><path  d="M 962 307
L 967 307" style="stroke-width:1;stroke:rgba(51,51,51,1.0);fill:none"/><text x="972" y="313" style="stroke-width:0;stroke:none;fill:rgba(51,51,51,1.0);font-size:12.8px;font-family:'Roboto Medium',sans-serif">140.00</text><path  d="M 962 264
L 967 264" style="stroke-width:1;stroke:rgba(51,51,51,1.0);fill:none"/><text x="972" y="270" style="stroke-width:0;stroke:none;fill:rgba(51,51,51,1.0);font-size:12.8px;font-family:'Roboto Medium',sans-serif">280.00</text><path  d="M 962 221
L 967 221" style="stroke-width:1;stroke:rgba(51,51,51,1.0);fill:none"/><text x="972" y="227" style="stroke-width:0;stroke:none;fill:rgba(51,51,51,1.0);font-size:12.8px;font-family:'Roboto Medium',sans-serif">420.00</text><path  d="M 962 181
L 967 181" style="stroke-width:1;stroke:rgba(51,51,51,1.0);fill:none"/><text x="972" y="187" style="stroke-width:0;stroke:none;fill:rgba(51,51,51,1.0);font-size:12.8px;font-family:'Roboto Medium',sans-serif">550.00</text><path  d="M 962 137
L 967 137" style="stroke-width:1;stroke:rgba(51,51,51,1.0);fill:none"/><text x="972" y="143" style="stroke-width:0;stroke:none;fill:rgba(51,51,51,1.0);font-size:12.8px;font-family:'Roboto Medium',sans-serif">690.00</text><path  d="M 962 94
L 967 94" style="stroke-width:1;stroke:rgba(51,51,51,1.0);fill:none"/><text x="972" y="100" style="stroke-width:0;stroke:none;fill:rgba(51,51,51,1.0);font-size:12.8px;font-family:'Roboto Medium',sans-serif">830.00</text><path  d="M 962 51
L 967 51" style="stroke-width:1;stroke:rgba(51,51,51,1.0);fill:none"/><text x="972" y="57" style="stroke-width:0;stroke:none;fill:rgba(51,51,51,1.0);font-size:12.8px;font-family:'Roboto Medium',sans-serif">970.00</text><path  d="M 962 11
L 967 11" style="stroke-width:1;stroke:rgba(51,51,51,1.0);fill:none"/><text x="972" y="17" style="stroke-width:0;stroke:none;fill:rgba(51,51,51,1.0);font-size:12.8px;font-family:'Roboto Medium',sans-serif">1100.00</text><path  d="M 38 351
L 40 351
L 41 351
L 42 351
L 44 351
L 45 350
L 46 350
L 48 350
L 49 350
L 50 350
L 52 350
L 53 350
L 54 351
L 56 351
L 57 351
L 58 351
L 60 351
L 61 350
L 62 350
L 64 350
L 65 349
L 66 349
L 68 349
L 69 348
L 70 349
L 72 349
L 73 347
L 74 346
L 76 345
L 77 344
L 78 344
L 80 343
L 81 341
L 82 343
L 84 344
L 85 344
L 86 345
L 88 345
L 89 347
L 90 348
L 92 348
L 93 349
L 94 348
L 96 349
L 97 348
L 98 348
L 100 348
L 101 348
L 102 348
L 104 348
L 105 348
L 106 349
L 108 350
L 109 350
L 110 350
L 112 350
L 113 350
L 114 350
L 116 351
L 117 351
L 118 351
L 120 351
L 121 351
L 122 351
L 124 351
L 125 351
L 126 351
L 128 351
L 129 351
L 130 351
L 132 351
L 133 351
L 134 351
L 136 351
L 137 351
L 138 351
L 140 351
L 141 351
L 142 351
L 144 351
L 145 351
L 146 350
L 148 350
L 149 350
L 150 350
L 152 350
L 153 350
L 154 350
L 156 351
L 157 351
L 158 351
L 160 351
L 161 351
L 162 351
L 164 351
L 165 351
L 166 351
L 168 351
L 169 351
L 170 351
L 171 351
L 173 351
L 174 351
L 175 351
L 177 351
L 178 351
L 179 351
L 181 351
L 182 351
L 183 351
L 185 351
L 186 351
L 187 351
L 189 351
L 190 351
L 191 351
L 193 351
L 194 351
L 195 350
L 197 350
L 198 349
L 199 349
L 201 349
L 202 349
L 203 349
L 205 350
L 206 350
L 207 350
L 209 350
L 210 350
L 211 350
L 213 350
L 214 350
L 215 349
L 217 349
L 218 349
L 219 349
L 221 349
L 222 349
L 223 349
L 225 350
L 226 350
L 227 350
L 229 350
L 230 351
L 231 351
L 233 351
L 234 350
L 235 350
L 237 350
L 238 350
L 239 350
L 241 350
L 242 349
L 243 349
L 245 349
L 246 349
L 247 349
L 249 349
L 250 349
L 251 350
L 253 349
L 254 350
L 255 350
L 257 350
L 258 350
L 259 350
L 261 349
L 262 350
L 263 350
L 265 349
L 266 349
L 267 349
L 269 349
L 270 348
L 271 348
L 273 347
L 274 347
L 275 347
L 277 347
L 278 347
L 279 349
L 281 347
L 282 348
L 283 347
L 285 348
L 286 348
L 287 347
L 289 347
L 290 348
L 291 347
L 293 348
L 294 348
L 295 347
L 297 348
L 298 348
L 299 348
L 301 348
L 302 349
L 303 348
L 304 348
L 306 348
L 307 347
L 308 347
L 310 347
L 311 347
L 312 346
L 314 345
L 315 345
L 316 345
L 318 344
L 319 344
L 320 344
L 322 344
L 323 345
L 324 345
L 326 346
L 327 345
L 328 345
L 330 344
L 331 345
L 332 344
L 334 343
L 335 338
L 336 338
L 338 334
L 339 334
L 340 332
L 342 333
L 343 331
L 344 334
L 346 335
L 347 338
L 348 340
L 350 340
L 351 338
L 352 340
L 354 340
L 355 335
L 356 328
L 358 321
L 359 314
L 360 310
L 362 303
L 363 298
L 364 293
L 366 284
L 367 278
L 368 270
L 370 267
L 371 253
L 372 234
L 374 223
L 375 218
L 376 204
L 378 193
L 379 182
L 380 187
L 382 171
L 383 158
L 384 159
L 386 152
L 387 163
L 388 173
L 390 176
L 391 186
L 392 206
L 394 185
L 395 200
L 396 200
L 398 204
L 399 204
L 400 218
L 402 209
L 403 230
L 404 234
L 406 224
L 407 221
L 408 229
L 410 226
L 411 231
L 412 235
L 414 222
L 415 236
L 416 241
L 418 240
L 419 253
L 420 258
L 422 258
L 423 271
L 424 280
L 426 269
L 427 263
L 428 263
L 430 263
L 431 274
L 432 284
L 434 281
L 435 293
L 436 302
L 437 301
L 439 303
L 440 301
L 441 304
L 443 307
L 444 307
L 445 310
L 447 309
L 448 314
L 449 315
L 451 314
L 452 315
L 453 311
L 455 309
L 456 313
L 457 313
L 459 309
L 460 306
L 461 310
L 463 310
L 464 309
L 465 304
L 467 307
L 468 312
L 469 314
L 471 312
L 472 317
L 473 319
L 475 325
L 476 324
L 477 320
L 479 321
L 480 321
L 481 316
L 483 316
L 484 316
L 485 317
L 487 321
L 488 318
L 489 317
L 491 322
L 492 319
L 493 315
L 495 310
L 496 310
L 497 308
L 499 306
L 500 304
L 501 303
L 503 300
L 504 302
L 505 304
L 507 303
L 508 305
L 509 301
L 511 302
L 512 306
L 513 308
L 515 306
L 516 303
L 517 298
L 519 302
L 520 305
L 521 308
L 523 304
L 524 306
L 525 308
L 527 309
L 528 310
L 529 305
L 531 305
L 532 301
L 533 302
L 535 294
L 536 297
L 537 291
L 539 294
L 540 290
L 541 298
L 543 295
L 544 307
L 545 304
L 547 303
L 548 302
L 549 306
L 551 301
L 552 301
L 553 297
L 555 299
L 556 305
L 557 307
L 559 300
L 560 302
L 561 305
L 563 314
L 564 313
L 565 307
L 566 307
L 568 314
L 569 316
L 570 310
L 572 304
L 573 298
L 574 304
L 576 304
L 577 304
L 578 306
L 580 312
L 581 312
L 582 316
L 584 315
L 585 316
L 586 315
L 588 315
L 589 313
L 590 320
L 592 323
L 593 323
L 594 323
L 596 325
L 597 321
L 598 322
L 600 321
L 601 318
L 602 318
L 604 321
L 605 319
L 606 321
L 608 319
L 609 319
L 610 322
L 612 325
L 613 322
L 614 324
L 616 327
L 617 330
L 618 331
L 620 331
L 621 327
L 622 328
L 624 329
L 625 329
L 626 330
L 628 330
L 629 330
L 630 334
L 632 335
L 633 335
L 634 337
L 636 337
L 637 338
L 638 338
L 640 340
L 641 341
L 642 343
L 644 343
L 645 343
L 646 344
L 648 341
L 649 339
L 650 337
L 652 337
L 653 338
L 654 339
L 656 338
L 657 341
L 658 343
L 660 345
L 661 344
L 662 344
L 664 345
L 665 346
L 666 347
L 668 347
L 669 348
L 670 348
L 672 349
L 673 349
L 674 349
L 676 349
L 677 349
L 678 349
L 680 350
L 681 350
L 682 350
L 684 350
L 685 350
L 686 350
L 688 350
L 689 350
L 690 349
L 692 349
L 693 349
L 694 349
L 696 349
L 697 350
L 698 350
L 699 350
L 701 350
L 702 350
L 703 350
L 705 350
L 706 350
L 707 350
L 709 350
L 710 350
L 711 350
L 713 349
L 714 349
L 715 348
L 717 348
L 718 348
L 719 347
L 721 347
L 722 347
L 723 347
L 725 347
L 726 345
L 727 344
L 729 342
L 730 340
L 731 338
L 733 337
L 734 335
L 735 337
L 737 337
L 738 337
L 739 336
L 741 337
L 742 338
L 743 339
L 745 336
L 746 335
L 747 339
L 749 340
L 750 340
L 751 339
L 753 338
L 754 339
L 755 339
L 757 338
L 758 335
L 759 336
L 761 334
L 762 334
L 763 335
L 765 335
L 766 336
L 767 337
L 769 338
L 770 340
L 771 340
L 773 340
L 774 337
L 775 337
L 777 337
L 778 335
L 779 333
L 781 332
L 782 332
L 783 328
L 785 329
L 786 327
L 787 327
L 789 326
L 790 326
L 791 320
L 793 322
L 794 318
L 795 321
L 797 321
L 798 322
L 799 324
L 801 329
L 802 330
L 803 333
L 805 329
L 806 327
L 807 328
L 809 323
L 810 320
L 811 322
L 813 319
L 814 319
L 815 319
L 817 315
L 818 317
L 819 312
L 821 310
L 822 310
L 823 308
L 825 307
L 826 306
L 827 307
L 829 310
L 830 305
L 831 305
L 832 304
L 834 302
L 835 305
L 836 302
L 838 298
L 839 301
L 840 295
L 842 290
L 843 285
L 844 282
L 846 282
L 847 284
L 848 285
L 850 280
L 851 278
L 852 280
L 854 280
L 855 278
L 856 279
L 858 264
L 859 263
L 860 261
L 862 266
L 863 252
L 864 246
L 866 229
L 867 228
L 868 234
L 870 229
L 871 215
L 872 213
L 874 207
L 875 196
L 876 206
L 878 192
L 879 181
L 880 176
L 882 174
L 883 170
L 884 171
L 886 107
L 887 102
L 888 108
L 890 109
L 891 101
L 892 102
L 894 101
L 895 153
L 896 164
L 898 167
L 899 177
L 900 199
L 902 211
L 903 233
L 904 247
L 906 254
L 907 264
L 908 271
L 910 272
L 911 270
L 912 268
L 914 268
L 915 274
L 916 281
L 918 281
L 919 284
L 920 289
L 922 299
L 923 301
L 924 304
L 926 306
L 927 312
L 928 315
L 930 317
L 931 319
L 932 315
L 934 314
L 935 311
L 936 309
L 938 309
L 939 310
L 940 310
L 942 310
L 943 305
L 944 307
L 946 299
L 947 291
L 948 286
L 950 267
L 951 239
L 952 217
L 954 190
L 955 173
L 956 151
L 958 131
L 959 89
L 960 64
L 961 27" style="stroke-width:1;stroke:rgba(0,116,217,1.0);fill:none"/><path  d="M 38 351
L 40 351
L 41 351
L 42 351
L 44 351
L 45 350
L 46 351
L 48 351
L 49 351
L 50 351
L 52 351
L 53 351
L 54 351
L 56 351
L 57 351
L 58 351
L 60 351
L 61 350
L 62 351
L 64 351
L 65 350
L 66 350
L 68 351
L 69 350
L 70 351
L 72 350
L 73 349
L 74 349
L 76 350
L 77 349
L 78 350
L 80 349
L 81 349
L 82 350
L 84 350
L 85 351
L 86 350
L 88 350
L 89 350
L 90 351
L 92 350
L 93 351
L 94 350
L 96 351
L 97 349
L 98 350
L 100 351
L 101 351
L 102 350
L 104 351
L 105 351
L 106 350
L 108 351
L 109 351
L 110 351
L 112 351
L 113 351
L 114 351
L 116 351
L 117 351
L 118 351
L 120 351
L 121 351
L 122 351
L 124 351
L 125 351
L 126 351
L 128 351
L 129 351
L 130 351
L 132 351
L 133 351
L 134 351
L 136 351
L 137 351
L 138 351
L 140 351
L 141 351
L 142 351
L 144 351
L 145 351
L 146 350
L 148 351
L 149 351
L 150 351
L 152 351
L 153 351
L 154 351
L 156 351
L 157 351
L 158 351
L 160 351
L 161 351
L 162 351
L 164 351
L 165 351
L 166 351
L 168 351
L 169 351
L 170 351
L 171 351
L 173 351
L 174 351
L 175 351
L 177 351
L 178 351
L 179 351
L 181 351
L 182 351
L 183 351
L 185 351
L 186 351
L 187 351
L 189 351
L 190 351
L 191 351
L 193 351
L 194 351
L 195 350
L 197 350
L 198 350
L 199 350
L 201 351
L 202 351
L 203 351
L 205 351
L 206 351
L 207 350
L 209 351
L 210 351
L 211 351
L 213 351
L 214 350
L 215 350
L 217 350
L 218 351
L 219 351
L 221 350
L 222 351
L 223 351
L 225 351
L 226 351
L 227 351
L 229 351
L 230 351
L 231 351
L 233 351
L 234 350
L 235 351
L 237 351
L 238 351
L 239 351
L 241 350
L 242 350
L 243 351
L 245 350
L 246 350
L 247 351
L 249 351
L 250 351
L 251 351
L 253 350
L 254 351
L 255 351
L 257 351
L 258 350
L 259 351
L 261 350
L 262 351
L 263 351
L 265 350
L 266 350
L 267 350
L 269 350
L 270 349
L 271 351
L 273 350
L 274 350
L 275 350
L 277 351
L 278 351
L 279 350
L 281 349
L 282 350
L 283 350
L 285 351
L 286 351
L 287 350
L 289 350
L 290 350
L 291 350
L 293 350
L 294 351
L 295 350
L 297 351
L 298 350
L 299 350
L 301 350
L 302 350
L 303 350
L 304 350
L 306 350
L 307 349
L 308 350
L 310 350
L 311 350
L 312 349
L 314 350
L 315 349
L 316 349
L 318 350
L 319 350
L 320 350
L 322 350
L 323 350
L 324 350
L 326 351
L 327 349
L 328 350
L 330 349
L 331 350
L 332 349
L 334 349
L 335 346
L 336 349
L 338 346
L 339 348
L 340 349
L 342 351
L 343 346
L 344 348
L 346 350
L 347 350
L 348 350
L 350 348
L 351 349
L 352 348
L 354 349
L 355 345
L 356 343
L 358 343
L 359 341
L 360 344
L 362 342
L 363 343
L 364 340
L 366 334
L 367 338
L 368 333
L 370 341
L 371 328
L 372 325
L 374 330
L 375 329
L 376 323
L 378 322
L 379 331
L 380 333
L 382 310
L 383 317
L 384 330
L 386 317
L 387 333
L 388 341
L 390 335
L 391 320
L 392 337
L 394 309
L 395 332
L 396 332
L 398 345
L 399 335
L 400 334
L 402 328
L 403 330
L 404 336
L 406 322
L 407 341
L 408 343
L 410 330
L 411 333
L 412 335
L 414 323
L 415 336
L 416 346
L 418 342
L 419 343
L 420 337
L 422 335
L 423 335
L 424 345
L 426 335
L 427 337
L 428 342
L 430 338
L 431 346
L 432 345
L 434 343
L 435 347
L 436 346
L 437 341
L 439 340
L 440 344
L 441 348
L 443 345
L 444 348
L 445 348
L 447 341
L 448 344
L 449 345
L 451 348
L 452 346
L 453 344
L 455 346
L 456 344
L 457 345
L 459 340
L 460 345
L 461 349
L 463 345
L 464 344
L 465 340
L 467 347
L 468 346
L 469 346
L 471 348
L 472 349
L 473 346
L 475 346
L 476 346
L 477 342
L 479 347
L 480 348
L 481 344
L 483 346
L 484 346
L 485 346
L 487 346
L 488 345
L 489 347
L 491 349
L 492 344
L 493 342
L 495 342
L 496 345
L 497 343
L 499 345
L 500 347
L 501 342
L 503 339
L 504 343
L 505 347
L 507 343
L 508 347
L 509 343
L 511 343
L 512 344
L 513 345
L 515 345
L 516 339
L 517 342
L 519 346
L 520 347
L 521 346
L 523 341
L 524 347
L 525 341
L 527 344
L 528 348
L 529 342
L 531 346
L 532 338
L 533 348
L 535 333
L 536 346
L 537 342
L 539 345
L 540 343
L 541 346
L 543 344
L 544 345
L 545 343
L 547 341
L 548 344
L 549 346
L 551 341
L 552 344
L 553 341
L 555 346
L 556 347
L 557 346
L 559 340
L 560 342
L 561 348
L 563 349
L 564 345
L 565 341
L 566 346
L 568 346
L 569 344
L 570 342
L 572 343
L 573 339
L 574 347
L 576 346
L 577 347
L 578 346
L 580 348
L 581 342
L 582 344
L 584 346
L 585 346
L 586 346
L 588 346
L 589 346
L 590 349
L 592 347
L 593 345
L 594 347
L 596 348
L 597 343
L 598 347
L 600 347
L 601 345
L 602 346
L 604 349
L 605 346
L 606 345
L 608 345
L 609 347
L 610 349
L 612 348
L 613 346
L 614 348
L 616 347
L 617 348
L 618 348
L 620 349
L 621 345
L 622 348
L 624 348
L 625 348
L 626 348
L 628 348
L 629 349
L 630 348
L 632 349
L 633 348
L 634 350
L 636 348
L 637 349
L 638 350
L 640 350
L 641 350
L 642 350
L 644 349
L 645 348
L 646 350
L 648 347
L 649 348
L 650 348
L 652 350
L 653 350
L 654 349
L 656 350
L 657 350
L 658 350
L 660 349
L 661 350
L 662 350
L 664 351
L 665 351
L 666 351
L 668 350
L 669 351
L 670 350
L 672 351
L 673 350
L 674 351
L 676 350
L 677 351
L 678 350
L 680 351
L 681 351
L 682 351
L 684 351
L 685 351
L 686 351
L 688 350
L 689 350
L 690 350
L 692 350
L 693 351
L 694 351
L 696 351
L 697 351
L 698 351
L 699 350
L 701 350
L 702 351
L 703 351
L 705 351
L 706 351
L 707 350
L 709 351
L 710 350
L 711 350
L 713 350
L 714 350
L 715 350
L 717 350
L 718 351
L 719 349
L 721 350
L 722 350
L 723 350
L 725 350
L 726 348
L 727 349
L 729 347
L 730 349
L 731 348
L 733 350
L 734 348
L 735 350
L 737 349
L 738 347
L 739 348
L 741 349
L 742 350
L 743 350
L 745 347
L 746 348
L 747 350
L 749 350
L 750 348
L 751 350
L 753 348
L 754 348
L 755 349
L 757 349
L 758 347
L 759 348
L 761 348
L 762 349
L 763 348
L 765 350
L 766 349
L 767 348
L 769 349
L 770 350
L 771 349
L 773 348
L 774 347
L 775 349
L 777 349
L 778 347
L 779 349
L 781 347
L 782 348
L 783 343
L 785 350
L 786 347
L 787 347
L 789 347
L 790 347
L 791 342
L 793 345
L 794 346
L 795 350
L 797 347
L 798 349
L 799 349
L 801 348
L 802 345
L 803 350
L 805 346
L 806 345
L 807 350
L 809 344
L 810 345
L 811 347
L 813 346
L 814 346
L 815 345
L 817 346
L 818 346
L 819 340
L 821 345
L 822 346
L 823 345
L 825 343
L 826 345
L 827 347
L 829 342
L 830 341
L 831 346
L 832 344
L 834 342
L 835 347
L 836 344
L 838 338
L 839 345
L 840 339
L 842 339
L 843 336
L 844 345
L 846 344
L 847 340
L 848 346
L 850 334
L 851 338
L 852 338
L 854 344
L 855 342
L 856 341
L 858 331
L 859 334
L 860 335
L 862 344
L 863 330
L 864 337
L 866 324
L 867 329
L 868 340
L 870 330
L 871 331
L 872 328
L 874 331
L 875 313
L 876 339
L 878 326
L 879 319
L 880 326
L 882 327
L 883 327
L 884 313
L 886 276
L 887 322
L 888 325
L 890 326
L 891 318
L 892 329
L 894 312
L 895 327
L 896 332
L 898 329
L 899 336
L 900 340
L 902 340
L 903 334
L 904 341
L 906 338
L 907 339
L 908 342
L 910 341
L 911 338
L 912 333
L 914 342
L 915 344
L 916 346
L 918 343
L 919 344
L 920 343
L 922 343
L 923 343
L 924 347
L 926 347
L 927 349
L 928 347
L 930 345
L 931 344
L 932 339
L 934 346
L 935 343
L 936 347
L 938 348
L 939 346
L 940 344
L 942 340
L 943 342
L 944 345
L 946 339
L 947 339
L 948 341
L 950 325
L 951 313
L 952 320
L 954 319
L 955 323
L 956 318
L 958 321
L 959 283
L 960 289
L 961 284" style="stroke-width:1;stroke:rgba(0,217,101,1.0);fill:none"/><path  d="M 38 351
L 40 351
L 41 351
L 42 351
L 44 351
L 45 351
L 46 351
L 48 351
L 49 351
L 50 351
L 52 351
L 53 351
L 54 351
L 56 351
L 57 351
L 58 351
L 60 351
L 61 351
L 62 351
L 64 351
L 65 351
L 66 351
L 68 351
L 69 351
L 70 351
L 72 351
L 73 351
L 74 351
L 76 350
L 77 351
L 78 351
L 80 351
L 81 351
L 82 350
L 84 351
L 85 351
L 86 351
L 88 351
L 89 351
L 90 351
L 92 351
L 93 351
L 94 351
L 96 351
L 97 350
L 98 351
L 100 351
L 101 351
L 102 351
L 104 351
L 105 351
L 106 351
L 108 350
L 109 351
L 110 351
L 112 351
L 113 351
L 114 350
L 116 351
L 117 351
L 118 351
L 120 351
L 121 351
L 122 351
L 124 351
L 125 351
L 126 351
L 128 351
L 129 351
L 130 351
L 132 351
L 133 351
L 134 351
L 136 351
L 137 351
L 138 351
L 140 351
L 141 351
L 142 351
L 144 351
L 145 351
L 146 351
L 148 351
L 149 351
L 150 351
L 152 351
L 153 351
L 154 351
L 156 351
L 157 351
L 158 351
L 160 351
L 161 351
L 162 351
L 164 351
L 165 351
L 166 351
L 168 351
L 169 351
L 170 351
L 171 351
L 173 351
L 174 351
L 175 351
L 177 351
L 178 351
L 179 351
L 181 351
L 182 351
L 183 351
L 185 351
L 186 351
L 187 351
L 189 351
L 190 351
L 191 351
L 193 351
L 194 351
L 195 351
L 197 351
L 198 351
L 199 351
L 201 351
L 202 351
L 203 351
L 205 351
L 206 351
L 207 351
L 209 351
L 210 351
L 211 351
L 213 351
L 214 351
L 215 351
L 217 351
L 218 351
L 219 351
L 221 351
L 222 351
L 223 351
L 225 351
L 226 351
L 227 351
L 229 351
L 230 351
L 231 351
L 233 351
L 234 351
L 235 351
L 237 351
L 238 351
L 239 351
L 241 351
L 242 351
L 243 351
L 245 351
L 246 351
L 247 351
L 249 351
L 250 351
L 251 351
L 253 351
L 254 351
L 255 351
L 257 351
L 258 351
L 259 351
L 261 351
L 262 350
L 263 351
L 265 351
L 266 351
L 267 351
L 269 351
L 270 351
L 271 351
L 273 351
L 274 351
L 275 351
L 277 351
L 278 351
L 279 351
L 281 351
L 282 351
L 283 351
L 285 351
L 286 351
L 287 351
L 289 351
L 290 351
L 291 351
L 293 351
L 294 351
L 295 351
L 297 351
L 298 351
L 299 351
L 301 351
L 302 351
L 303 351
L 304 351
L 306 351
L 307 351
L 308 351
L 310 351
L 311 351
L 312 351
L 314 351
L 315 351
L 316 351
L 318 351
L 319 351
L 320 351
L 322 351
L 323 351
L 324 351
L 326 351
L 327 351
L 328 351
L 330 350
L 331 351
L 332 351
L 334 351
L 335 351
L 336 351
L 338 351
L 339 350
L 340 351
L 342 351
L 343 350
L 344 351
L 346 351
L 347 350
L 348 351
L 350 350
L 351 351
L 352 351
L 354 350
L 355 351
L 356 350
L 358 351
L 359 351
L 360 351
L 362 351
L 363 351
L 364 350
L 366 350
L 367 350
L 368 350
L 370 350
L 371 350
L 372 351
L 374 350
L 375 351
L 376 350
L 378 350
L 379 351
L 380 351
L 382 350
L 383 350
L 384 350
L 386 350
L 387 350
L 388 350
L 390 349
L 391 350
L 392 350
L 394 351
L 395 350
L 396 349
L 398 350
L 399 350
L 400 350
L 402 351
L 403 349
L 404 350
L 406 348
L 407 350
L 408 350
L 410 350
L 411 350
L 412 348
L 414 348
L 415 350
L 416 349
L 418 350
L 419 350
L 420 350
L 422 349
L 423 349
L 424 349
L 426 350
L 427 348
L 428 349
L 430 350
L 431 350
L 432 350
L 434 351
L 435 349
L 436 351
L 437 349
L 439 350
L 440 349
L 441 351
L 443 351
L 444 351
L 445 350
L 447 350
L 448 350
L 449 349
L 451 349
L 452 350
L 453 351
L 455 350
L 456 349
L 457 350
L 459 350
L 460 351
L 461 350
L 463 350
L 464 351
L 465 351
L 467 350
L 468 350
L 469 351
L 471 351
L 472 350
L 473 351
L 475 351
L 476 350
L 477 351
L 479 350
L 480 351
L 481 350
L 483 350
L 484 350
L 485 351
L 487 351
L 488 350
L 489 350
L 491 350
L 492 350
L 493 350
L 495 351
L 496 351
L 497 351
L 499 350
L 500 351
L 501 350
L 503 351
L 504 350
L 505 350
L 507 351
L 508 351
L 509 350
L 511 350
L 512 351
L 513 350
L 515 350
L 516 350
L 517 350
L 519 350
L 520 350
L 521 350
L 523 350
L 524 351
L 525 351
L 527 350
L 528 351
L 529 350
L 531 351
L 532 350
L 533 350
L 535 351
L 536 350
L 537 350
L 539 350
L 540 351
L 541 351
L 543 350
L 544 351
L 545 350
L 547 351
L 548 351
L 549 351
L 551 351
L 552 351
L 553 350
L 555 351
L 556 351
L 557 351
L 559 351
L 560 350
L 561 351
L 563 350
L 564 351
L 565 351
L 566 350
L 568 351
L 569 351
L 570 351
L 572 350
L 573 351
L 574 351
L 576 351
L 577 350
L 578 350
L 580 351
L 581 350
L 582 351
L 584 351
L 585 350
L 586 351
L 588 350
L 589 351
L 590 351
L 592 350
L 593 351
L 594 351
L 596 351
L 597 351
L 598 350
L 600 351
L 601 351
L 602 351
L 604 350
L 605 351
L 606 351
L 608 351
L 609 351
L 610 351
L 612 351
L 613 351
L 614 351
L 616 351
L 617 350
L 618 351
L 620 351
L 621 351
L 622 351
L 624 351
L 625 351
L 626 351
L 628 351
L 629 351
L 630 351
L 632 351
L 633 351
L 634 351
L 636 351
L 637 351
L 638 351
L 640 351
L 641 350
L 642 350
L 644 351
L 645 351
L 646 351
L 648 351
L 649 351
L 650 351
L 652 351
L 653 351
L 654 351
L 656 351
L 657 351
L 658 351
L 660 351
L 661 351
L 662 351
L 664 351
L 665 351
L 666 351
L 668 351
L 669 351
L 670 351
L 672 351
L 673 351
L 674 351
L 676 351
L 677 351
L 678 351
L 680 351
L 681 351
L 682 351
L 684 351
L 685 351
L 686 351
L 688 351
L 689 351
L 690 351
L 692 351
L 693 351
L 694 351
L 696 351
L 697 351
L 698 351
L 699 351
L 701 351
L 702 351
L 703 351
L 705 351
L 706 351
L 707 351
L 709 351
L 710 351
L 711 351
L 713 351
L 714 351
L 715 351
L 717 351
L 718 351
L 719 351
L 721 351
L 722 351
L 723 351
L 725 351
L 726 351
L 727 351
L 729 351
L 730 351
L 731 351
L 733 351
L 734 351
L 735 351
L 737 351
L 738 351
L 739 351
L 741 351
L 742 351
L 743 351
L 745 351
L 746 351
L 747 351
L 749 350
L 750 351
L 751 351
L 753 351
L 754 351
L 755 351
L 757 351
L 758 351
L 759 351
L 761 350
L 762 351
L 763 351
L 765 351
L 766 351
L 767 351
L 769 351
L 770 351
L 771 351
L 773 351
L 774 351
L 775 351
L 777 351
L 778 351
L 779 351
L 781 351
L 782 351
L 783 351
L 785 351
L 786 351
L 787 350
L 789 351
L 790 351
L 791 351
L 793 351
L 794 351
L 795 351
L 797 351
L 798 351
L 799 351
L 801 351
L 802 351
L 803 351
L 805 351
L 806 351
L 807 351
L 809 351
L 810 351
L 811 351
L 813 351
L 814 351
L 815 351
L 817 351
L 818 351
L 819 351
L 821 351
L 822 351
L 823 351
L 825 351
L 826 350
L 827 350
L 829 351
L 830 350
L 831 351
L 832 351
L 834 350
L 835 350
L 836 351
L 838 351
L 839 350
L 840 351
L 842 351
L 843 351
L 844 351
L 846 350
L 847 351
L 848 351
L 850 351
L 851 351
L 852 351
L 854 351
L 855 351
L 856 351
L 858 351
L 859 351
L 860 351
L 862 351
L 863 351
L 864 351
L 866 351
L 867 351
L 868 350
L 870 351
L 871 351
L 872 351
L 874 350
L 875 351
L 876 351
L 878 351
L 879 351
L 880 351
L 882 351
L 883 350
L 884 351
L 886 351
L 887 350
L 888 350
L 890 351
L 891 351
L 892 351
L 894 350
L 895 350
L 896 350
L 898 351
L 899 351
L 900 350
L 902 351
L 903 351
L 904 350
L 906 351
L 907 351
L 908 351
L 910 351
L 911 351
L 912 351
L 914 351
L 915 351
L 916 351
L 918 351
L 919 351
L 920 351
L 922 351
L 923 350
L 924 351
L 926 351
L 927 350
L 928 351
L 930 351
L 931 351
L 932 351
L 934 351
L 935 351
L 936 351
L 938 351
L 939 351
L 940 351
L 942 351
L 943 351
L 944 351
L 946 351
L 947 351
L 948 351
L 950 351
L 951 351
L 952 351
L 954 351
L 955 351
L 956 351
L 958 351
L 959 351
L 960 351
L 961 351" style="stroke-width:1;stroke:rgba(217,0,116,1.0);fill:none"/><text x="344" y="33" style="stroke-width:0;stroke:none;fill:rgba(51,51,51,1.0);font-size:23.0px;font-family:'Roboto Medium',sans-serif">Bruck-Mürzzuschlag 20.01.2022</text><path  d="M 38 11
L 251 11
L 251 91
L 38 91
L 38 11" style="stroke-width:1;stroke:rgba(51,51,51,1.0);fill:rgba(255,255,255,1.0)"/><text x="43" y="26" style="stroke-width:0;stroke:none;fill:rgba(51,51,51,1.0);font-size:10.2px;font-family:'Roboto Medium',sans-serif">Sieben Tage Durschnitt Inzidenz Fälle</text><path  d="M 221 21
L 241 21" style="stroke-width:1;stroke:rgba(0,116,217,1.0);fill:none"/><text x="43" y="56" style="stroke-width:0;stroke:none;fill:rgba(51,51,51,1.0);font-size:10.2px;font-family:'Roboto Medium',sans-serif">Anzahl Faelle</text><path  d="M 110 51
L 241 51" style="stroke-width:1;stroke:rgba(0,217,101,1.0);fill:none"/><text x="43" y="86" style="stroke-width:0;stroke:none;fill:rgba(51,51,51,1.0);font-size:10.2px;font-family:'Roboto Medium',sans-serif">Anzahl Tot</text><path  d="M 98 81
L 241 81" style="stroke-width:1;stroke:rgba(217,0,116,1.0);fill:none"/></svg>