<svg xmlns="http://www.w3.org/2000/svg" xmlns:xlink="http://www.w3.org/1999/xlink" width="1024" height="400">\n<path  d="M 0 0
L 1024 0
L 1024 400
L 0 400
L 0 0" style="stroke-width:0;stroke:rgba(255,255,255,1.0);fill:rgba(255,255,255,1.0)"/><path  d="M 38 11
L 969 11
L 969 351
L 38 351
L 38 11" style="stroke-width:0;stroke:rgba(255,255,255,1.0);fill:rgba(255,255,255,1.0)"/><path  d="M 38 351
L 969 351" style="stroke-width:1;stroke:rgba(51,51,51,1.0);fill:none"/><path  d="M 38 351
L 38 356" style="stroke-width:1;stroke:rgba(51,51,51,1.0);fill:none"/><text x="5" y="373" style="stroke-width:0;stroke:none;fill:rgba(51,51,51,1.0);font-size:12.8px;font-family:'Roboto Medium',sans-serif">2020-02-26</text><path  d="M 155 351
L 155 356" style="stroke-width:1;stroke:rgba(51,51,51,1.0);fill:none"/><text x="122" y="373" style="stroke-width:0;stroke:none;fill:rgba(51,51,51,1.0);font-size:12.8px;font-family:'Roboto Medium',sans-serif">2020-04-18</text><path  d="M 271 351
L 271 356" style="stroke-width:1;stroke:rgba(51,51,51,1.0);fill:none"/><text x="238" y="373" style="stroke-width:0;stroke:none;fill:rgba(51,51,51,1.0);font-size:12.8px;font-family:'Roboto Medium',sans-serif">2020-06-09</text><path  d="M 388 351
L 388 356" style="stroke-width:1;stroke:rgba(51,51,51,1.0);fill:none"/><text x="355" y="373" style="stroke-width:0;stroke:none;fill:rgba(51,51,51,1.0);font-size:12.8px;font-family:'Roboto Medium',sans-serif">2020-07-31</text><path  d="M 504 351
L 504 356" style="stroke-width:1;stroke:rgba(51,51,51,1.0);fill:none"/><text x="471" y="373" style="stroke-width:0;stroke:none;fill:rgba(51,51,51,1.0);font-size:12.8px;font-family:'Roboto Medium',sans-serif">2020-09-21</text><path  d="M 620 351
L 620 356" style="stroke-width:1;stroke:rgba(51,51,51,1.0);fill:none"/><text x="587" y="373" style="stroke-width:0;stroke:none;fill:rgba(51,51,51,1.0);font-size:12.8px;font-family:'Roboto Medium',sans-serif">2020-11-12</text><path  d="M 737 351
L 737 356" style="stroke-width:1;stroke:rgba(51,51,51,1.0);fill:none"/><text x="704" y="373" style="stroke-width:0;stroke:none;fill:rgba(51,51,51,1.0);font-size:12.8px;font-family:'Roboto Medium',sans-serif">2021-01-03</text><path  d="M 853 351
L 853 356" style="stroke-width:1;stroke:rgba(51,51,51,1.0);fill:none"/><text x="820" y="373" style="stroke-width:0;stroke:none;fill:rgba(51,51,51,1.0);font-size:12.8px;font-family:'Roboto Medium',sans-serif">2021-02-24</text><path  d="M 969 351
L 969 356" style="stroke-width:1;stroke:rgba(51,51,51,1.0);fill:none"/><text x="936" y="373" style="stroke-width:0;stroke:none;fill:rgba(51,51,51,1.0);font-size:12.8px;font-family:'Roboto Medium',sans-serif">2021-04-17</text><text x="485" y="395" style="stroke-width:0;stroke:none;fill:rgba(51,51,51,1.0);font-size:12.8px;font-family:'Roboto Medium',sans-serif">Datum</text><path  d="M 970 351
L 970 11" style="stroke-width:1;stroke:rgba(51,51,51,1.0);fill:none"/><path  d="M 970 351
L 975 351" style="stroke-width:1;stroke:rgba(51,51,51,1.0);fill:none"/><text x="980" y="357" style="stroke-width:0;stroke:none;fill:rgba(51,51,51,1.0);font-size:12.8px;font-family:'Roboto Medium',sans-serif">0.00</text><path  d="M 970 308
L 975 308" style="stroke-width:1;stroke:rgba(51,51,51,1.0);fill:none"/><text x="980" y="314" style="stroke-width:0;stroke:none;fill:rgba(51,51,51,1.0);font-size:12.8px;font-family:'Roboto Medium',sans-serif">80.00</text><path  d="M 970 266
L 975 266" style="stroke-width:1;stroke:rgba(51,51,51,1.0);fill:none"/><text x="980" y="272" style="stroke-width:0;stroke:none;fill:rgba(51,51,51,1.0);font-size:12.8px;font-family:'Roboto Medium',sans-serif">160.00</text><path  d="M 970 223
L 975 223" style="stroke-width:1;stroke:rgba(51,51,51,1.0);fill:none"/><text x="980" y="229" style="stroke-width:0;stroke:none;fill:rgba(51,51,51,1.0);font-size:12.8px;font-family:'Roboto Medium',sans-serif">240.00</text><path  d="M 970 181
L 975 181" style="stroke-width:1;stroke:rgba(51,51,51,1.0);fill:none"/><text x="980" y="187" style="stroke-width:0;stroke:none;fill:rgba(51,51,51,1.0);font-size:12.8px;font-family:'Roboto Medium',sans-serif">320.00</text><path  d="M 970 138
L 975 138" style="stroke-width:1;stroke:rgba(51,51,51,1.0);fill:none"/><text x="980" y="144" style="stroke-width:0;stroke:none;fill:rgba(51,51,51,1.0);font-size:12.8px;font-family:'Roboto Medium',sans-serif">400.00</text><path  d="M 970 96
L 975 96" style="stroke-width:1;stroke:rgba(51,51,51,1.0);fill:none"/><text x="980" y="102" style="stroke-width:0;stroke:none;fill:rgba(51,51,51,1.0);font-size:12.8px;font-family:'Roboto Medium',sans-serif">480.00</text><path  d="M 970 53
L 975 53" style="stroke-width:1;stroke:rgba(51,51,51,1.0);fill:none"/><text x="980" y="59" style="stroke-width:0;stroke:none;fill:rgba(51,51,51,1.0);font-size:12.8px;font-family:'Roboto Medium',sans-serif">560.00</text><path  d="M 970 11
L 975 11" style="stroke-width:1;stroke:rgba(51,51,51,1.0);fill:none"/><text x="980" y="17" style="stroke-width:0;stroke:none;fill:rgba(51,51,51,1.0);font-size:12.8px;font-family:'Roboto Medium',sans-serif">640.00</text><path  d="M 38 351
L 41 351
L 43 351
L 45 351
L 47 351
L 50 350
L 52 350
L 54 350
L 56 350
L 59 350
L 61 350
L 63 350
L 65 351
L 68 351
L 70 351
L 72 351
L 74 351
L 77 349
L 79 349
L 81 349
L 83 348
L 85 348
L 88 348
L 90 346
L 92 348
L 94 347
L 97 345
L 99 342
L 101 342
L 103 340
L 106 340
L 108 338
L 110 335
L 112 338
L 115 339
L 117 340
L 119 341
L 121 342
L 124 344
L 126 347
L 128 346
L 130 347
L 132 347
L 135 348
L 137 346
L 139 346
L 141 346
L 144 347
L 146 346
L 148 346
L 150 346
L 153 348
L 155 349
L 157 349
L 159 349
L 162 350
L 164 350
L 166 350
L 168 351
L 171 351
L 173 351
L 175 351
L 177 351
L 179 351
L 182 351
L 184 351
L 186 351
L 188 351
L 191 351
L 193 351
L 195 351
L 197 351
L 200 351
L 202 351
L 204 351
L 206 351
L 209 351
L 211 351
L 213 351
L 215 351
L 218 351
L 220 350
L 222 350
L 224 350
L 226 350
L 229 350
L 231 350
L 233 350
L 235 351
L 238 351
L 240 351
L 242 351
L 244 351
L 247 351
L 249 351
L 251 351
L 253 351
L 256 351
L 258 351
L 260 351
L 262 351
L 265 351
L 267 351
L 269 351
L 271 351
L 273 351
L 276 351
L 278 351
L 280 351
L 282 351
L 285 351
L 287 351
L 289 351
L 291 351
L 294 351
L 296 351
L 298 351
L 300 351
L 303 349
L 305 349
L 307 348
L 309 348
L 312 348
L 314 348
L 316 348
L 318 349
L 320 349
L 323 349
L 325 349
L 327 349
L 329 349
L 332 349
L 334 349
L 336 348
L 338 348
L 341 348
L 343 348
L 345 348
L 347 348
L 350 348
L 352 349
L 354 350
L 356 350
L 359 350
L 361 351
L 363 351
L 365 351
L 367 350
L 370 350
L 372 350
L 374 350
L 376 350
L 379 349
L 381 348
L 383 348
L 385 348
L 388 347
L 390 347
L 392 347
L 394 348
L 397 349
L 399 348
L 401 349
L 403 349
L 406 349
L 408 349
L 410 349
L 412 348
L 414 348
L 417 348
L 419 348
L 421 347
L 423 347
L 426 347
L 428 345
L 430 346
L 432 345
L 435 345
L 437 344
L 439 345
L 441 345
L 444 347
L 446 345
L 448 346
L 450 345
L 453 346
L 455 346
L 457 345
L 459 344
L 461 346
L 464 345
L 466 346
L 468 346
L 470 345
L 473 346
L 475 347
L 477 346
L 479 347
L 482 347
L 484 347
L 486 347
L 488 346
L 491 344
L 493 345
L 495 345
L 497 345
L 500 343
L 502 342
L 504 341
L 506 341
L 508 340
L 511 340
L 513 339
L 515 339
L 517 340
L 520 341
L 522 343
L 524 341
L 526 341
L 529 339
L 531 340
L 533 339
L 535 337
L 538 328
L 540 329
L 542 323
L 544 322
L 547 319
L 549 321
L 551 318
L 553 323
L 555 324
L 558 329
L 560 333
L 562 332
L 564 330
L 567 332
L 569 333
L 571 325
L 573 313
L 576 302
L 578 289
L 580 281
L 582 270
L 585 261
L 587 251
L 589 236
L 591 226
L 594 212
L 596 206
L 598 183
L 600 151
L 602 135
L 605 126
L 607 101
L 609 82
L 611 64
L 614 72
L 616 46
L 618 23
L 620 24
L 623 11
L 625 30
L 627 48
L 629 52
L 632 69
L 634 104
L 636 68
L 638 95
L 641 94
L 643 101
L 645 101
L 647 124
L 649 109
L 652 145
L 654 152
L 656 135
L 658 127
L 661 142
L 663 136
L 665 144
L 667 151
L 670 128
L 672 152
L 674 162
L 676 160
L 679 183
L 681 191
L 683 193
L 685 214
L 688 230
L 690 211
L 692 202
L 694 200
L 696 202
L 699 221
L 701 237
L 703 233
L 705 253
L 708 268
L 710 266
L 712 268
L 714 264
L 717 271
L 719 275
L 721 276
L 723 281
L 726 280
L 728 288
L 730 290
L 732 289
L 735 290
L 737 283
L 739 279
L 741 286
L 743 286
L 746 279
L 748 275
L 750 281
L 752 282
L 755 279
L 757 272
L 759 276
L 761 285
L 764 288
L 766 285
L 768 293
L 770 297
L 773 307
L 775 305
L 777 298
L 779 300
L 782 300
L 784 291
L 786 292
L 788 293
L 790 293
L 793 301
L 795 296
L 797 295
L 799 303
L 802 298
L 804 290
L 806 283
L 808 282
L 811 279
L 813 275
L 815 272
L 817 270
L 820 265
L 822 268
L 824 270
L 826 270
L 829 274
L 831 266
L 833 268
L 835 275
L 837 277
L 840 275
L 842 268
L 844 261
L 846 267
L 849 272
L 851 278
L 853 271
L 855 275
L 858 278
L 860 280
L 862 282
L 864 273
L 867 273
L 869 267
L 871 268
L 873 254
L 876 258
L 878 249
L 880 254
L 882 248
L 884 262
L 887 256
L 889 276
L 891 271
L 893 269
L 896 269
L 898 275
L 900 266
L 902 266
L 905 259
L 907 263
L 909 273
L 911 276
L 914 265
L 916 268
L 918 274
L 920 288
L 923 287
L 925 276
L 927 276
L 929 287
L 931 290
L 934 280
L 936 270
L 938 260
L 940 271
L 943 270
L 945 272
L 947 275
L 949 286
L 952 285
L 954 294
L 956 292
L 958 293
L 961 292
L 963 292
L 965 289
L 967 299
L 969 304" style="stroke-width:1;stroke:rgba(0,116,217,1.0);fill:none"/><path  d="M 38 351
L 41 351
L 43 351
L 45 351
L 47 351
L 50 350
L 52 351
L 54 351
L 56 351
L 59 351
L 61 351
L 63 351
L 65 351
L 68 351
L 70 351
L 72 351
L 74 351
L 77 349
L 79 351
L 81 351
L 83 350
L 85 350
L 88 351
L 90 349
L 92 351
L 94 350
L 97 348
L 99 348
L 101 350
L 103 348
L 106 349
L 108 348
L 110 348
L 112 350
L 115 349
L 117 351
L 119 349
L 121 350
L 124 350
L 126 351
L 128 349
L 130 351
L 132 350
L 135 351
L 137 348
L 139 349
L 141 351
L 144 351
L 146 349
L 148 351
L 150 351
L 153 350
L 155 351
L 157 351
L 159 351
L 162 351
L 164 351
L 166 351
L 168 351
L 171 351
L 173 351
L 175 351
L 177 351
L 179 351
L 182 351
L 184 351
L 186 351
L 188 351
L 191 351
L 193 351
L 195 351
L 197 351
L 200 351
L 202 351
L 204 351
L 206 351
L 209 351
L 211 351
L 213 351
L 215 351
L 218 351
L 220 350
L 222 351
L 224 351
L 226 351
L 229 351
L 231 351
L 233 351
L 235 351
L 238 351
L 240 351
L 242 351
L 244 351
L 247 351
L 249 351
L 251 351
L 253 351
L 256 351
L 258 351
L 260 351
L 262 351
L 265 351
L 267 351
L 269 351
L 271 351
L 273 351
L 276 351
L 278 351
L 280 351
L 282 351
L 285 351
L 287 351
L 289 351
L 291 351
L 294 351
L 296 351
L 298 351
L 300 351
L 303 349
L 305 350
L 307 350
L 309 350
L 312 351
L 314 351
L 316 351
L 318 351
L 320 351
L 323 349
L 325 351
L 327 351
L 329 351
L 332 351
L 334 350
L 336 349
L 338 350
L 341 351
L 343 351
L 345 350
L 347 351
L 350 351
L 352 351
L 354 351
L 356 351
L 359 351
L 361 351
L 363 351
L 365 351
L 367 350
L 370 351
L 372 351
L 374 351
L 376 351
L 379 349
L 381 349
L 383 351
L 385 350
L 388 350
L 390 351
L 392 351
L 394 351
L 397 351
L 399 349
L 401 351
L 403 351
L 406 351
L 408 350
L 410 351
L 412 349
L 414 350
L 417 351
L 419 350
L 421 350
L 423 350
L 426 350
L 428 348
L 430 351
L 432 349
L 435 350
L 437 349
L 439 351
L 441 351
L 444 350
L 446 348
L 448 350
L 450 349
L 453 351
L 455 351
L 457 350
L 459 349
L 461 350
L 464 349
L 466 349
L 468 351
L 470 350
L 473 351
L 475 350
L 477 349
L 479 350
L 482 350
L 484 350
L 486 350
L 488 349
L 491 348
L 493 350
L 495 350
L 497 350
L 500 348
L 502 349
L 504 348
L 506 348
L 508 349
L 511 350
L 513 349
L 515 349
L 517 350
L 520 349
L 522 351
L 524 347
L 526 349
L 529 347
L 531 350
L 533 348
L 535 347
L 538 342
L 540 348
L 542 344
L 544 346
L 547 347
L 549 351
L 551 344
L 553 347
L 555 349
L 558 349
L 560 350
L 562 347
L 564 348
L 567 346
L 569 348
L 571 340
L 573 338
L 576 338
L 578 335
L 580 340
L 582 336
L 585 338
L 587 331
L 589 323
L 591 329
L 594 321
L 596 334
L 598 312
L 600 307
L 602 315
L 605 314
L 607 304
L 609 302
L 611 317
L 614 320
L 616 281
L 618 293
L 620 315
L 623 292
L 625 320
L 627 335
L 629 324
L 632 298
L 634 327
L 636 280
L 638 318
L 641 319
L 643 341
L 645 323
L 647 321
L 649 312
L 652 315
L 654 326
L 656 302
L 658 334
L 661 338
L 663 315
L 665 320
L 667 323
L 670 303
L 672 326
L 674 344
L 676 336
L 679 338
L 681 328
L 683 324
L 685 324
L 688 341
L 690 324
L 692 327
L 694 337
L 696 330
L 699 343
L 701 340
L 703 337
L 705 345
L 708 341
L 710 335
L 712 332
L 714 339
L 717 347
L 719 341
L 721 346
L 723 346
L 726 334
L 728 340
L 730 340
L 732 346
L 735 343
L 737 339
L 739 343
L 741 340
L 743 340
L 746 333
L 748 341
L 750 348
L 752 340
L 755 340
L 757 332
L 759 345
L 761 342
L 764 344
L 766 346
L 768 348
L 770 343
L 773 343
L 775 343
L 777 335
L 779 345
L 782 346
L 784 340
L 786 344
L 788 344
L 790 343
L 793 343
L 795 340
L 797 345
L 799 348
L 802 339
L 804 337
L 806 336
L 808 341
L 811 338
L 813 340
L 815 346
L 817 337
L 820 331
L 822 338
L 824 344
L 826 338
L 829 344
L 831 338
L 833 338
L 835 338
L 837 341
L 840 341
L 842 331
L 844 337
L 846 344
L 849 344
L 851 344
L 853 335
L 855 345
L 858 335
L 860 339
L 862 346
L 864 335
L 867 344
L 869 328
L 871 346
L 873 321
L 876 344
L 878 336
L 880 340
L 882 337
L 884 342
L 887 340
L 889 341
L 891 338
L 893 335
L 896 340
L 898 343
L 900 334
L 902 340
L 905 334
L 907 342
L 909 345
L 911 343
L 914 332
L 916 337
L 918 346
L 920 348
L 923 341
L 925 334
L 927 343
L 929 343
L 931 340
L 934 336
L 936 338
L 938 331
L 940 345
L 943 343
L 945 345
L 947 343
L 949 347
L 952 337
L 954 340
L 956 343
L 958 344
L 961 344
L 963 343
L 965 344
L 967 347
L 969 345" style="stroke-width:1;stroke:rgba(0,217,101,1.0);fill:none"/><path  d="M 38 351
L 41 351
L 43 351
L 45 351
L 47 351
L 50 351
L 52 351
L 54 351
L 56 351
L 59 351
L 61 351
L 63 351
L 65 351
L 68 351
L 70 351
L 72 351
L 74 351
L 77 351
L 79 351
L 81 351
L 83 351
L 85 351
L 88 351
L 90 351
L 92 351
L 94 351
L 97 351
L 99 351
L 101 350
L 103 351
L 106 351
L 108 351
L 110 351
L 112 350
L 115 351
L 117 351
L 119 351
L 121 351
L 124 351
L 126 351
L 128 351
L 130 351
L 132 351
L 135 351
L 137 350
L 139 351
L 141 351
L 144 351
L 146 351
L 148 351
L 150 351
L 153 351
L 155 350
L 157 351
L 159 351
L 162 351
L 164 351
L 166 350
L 168 351
L 171 351
L 173 351
L 175 351
L 177 351
L 179 351
L 182 351
L 184 351
L 186 351
L 188 351
L 191 351
L 193 351
L 195 351
L 197 351
L 200 351
L 202 351
L 204 351
L 206 351
L 209 351
L 211 351
L 213 351
L 215 351
L 218 351
L 220 351
L 222 351
L 224 351
L 226 351
L 229 351
L 231 351
L 233 351
L 235 351
L 238 351
L 240 351
L 242 351
L 244 351
L 247 351
L 249 351
L 251 351
L 253 351
L 256 351
L 258 351
L 260 351
L 262 351
L 265 351
L 267 351
L 269 351
L 271 351
L 273 351
L 276 351
L 278 351
L 280 351
L 282 351
L 285 351
L 287 351
L 289 351
L 291 351
L 294 351
L 296 351
L 298 351
L 300 351
L 303 351
L 305 351
L 307 351
L 309 351
L 312 351
L 314 351
L 316 351
L 318 351
L 320 351
L 323 351
L 325 351
L 327 351
L 329 351
L 332 351
L 334 351
L 336 351
L 338 351
L 341 351
L 343 351
L 345 351
L 347 351
L 350 351
L 352 351
L 354 351
L 356 351
L 359 351
L 361 351
L 363 351
L 365 351
L 367 351
L 370 351
L 372 351
L 374 351
L 376 351
L 379 351
L 381 351
L 383 351
L 385 351
L 388 351
L 390 351
L 392 351
L 394 351
L 397 351
L 399 351
L 401 351
L 403 351
L 406 351
L 408 351
L 410 351
L 412 351
L 414 350
L 417 351
L 419 351
L 421 351
L 423 351
L 426 351
L 428 351
L 430 351
L 432 351
L 435 351
L 437 351
L 439 351
L 441 351
L 444 351
L 446 351
L 448 351
L 450 351
L 453 351
L 455 351
L 457 351
L 459 351
L 461 351
L 464 351
L 466 351
L 468 351
L 470 351
L 473 351
L 475 351
L 477 351
L 479 351
L 482 351
L 484 351
L 486 351
L 488 351
L 491 351
L 493 351
L 495 351
L 497 351
L 500 351
L 502 351
L 504 351
L 506 351
L 508 351
L 511 351
L 513 351
L 515 351
L 517 351
L 520 351
L 522 351
L 524 351
L 526 351
L 529 350
L 531 351
L 533 351
L 535 351
L 538 351
L 540 351
L 542 351
L 544 350
L 547 351
L 549 351
L 551 349
L 553 351
L 555 351
L 558 350
L 560 351
L 562 349
L 564 351
L 567 351
L 569 350
L 571 351
L 573 349
L 576 351
L 578 351
L 580 351
L 582 351
L 585 351
L 587 349
L 589 350
L 591 350
L 594 350
L 596 350
L 598 349
L 600 351
L 602 349
L 605 351
L 607 350
L 609 350
L 611 351
L 614 351
L 616 349
L 618 350
L 620 350
L 623 350
L 625 350
L 627 350
L 629 348
L 632 350
L 634 350
L 636 351
L 638 350
L 641 348
L 643 349
L 645 349
L 647 350
L 649 351
L 652 348
L 654 349
L 656 346
L 658 349
L 661 350
L 663 349
L 665 349
L 667 347
L 670 347
L 672 350
L 674 349
L 676 350
L 679 349
L 681 349
L 683 348
L 685 348
L 688 348
L 690 349
L 692 347
L 694 348
L 696 350
L 699 349
L 701 349
L 703 351
L 705 348
L 708 351
L 710 348
L 712 350
L 714 348
L 717 351
L 719 351
L 721 351
L 723 349
L 726 349
L 728 350
L 730 348
L 732 348
L 735 349
L 737 351
L 739 349
L 741 348
L 743 349
L 746 349
L 748 351
L 750 350
L 752 349
L 755 351
L 757 351
L 759 350
L 761 350
L 764 351
L 766 351
L 768 349
L 770 351
L 773 351
L 775 350
L 777 351
L 779 350
L 782 351
L 784 350
L 786 349
L 788 350
L 790 351
L 793 351
L 795 349
L 797 349
L 799 350
L 802 350
L 804 350
L 806 351
L 808 351
L 811 351
L 813 350
L 815 351
L 817 350
L 820 351
L 822 349
L 824 349
L 826 351
L 829 351
L 831 350
L 833 350
L 835 351
L 837 349
L 840 350
L 842 350
L 844 349
L 846 350
L 849 349
L 851 350
L 853 350
L 855 351
L 858 351
L 860 349
L 862 351
L 864 350
L 867 351
L 869 350
L 871 350
L 873 351
L 876 350
L 878 350
L 880 350
L 882 351
L 884 351
L 887 350
L 889 351
L 891 350
L 893 351
L 896 351
L 898 351
L 900 351
L 902 351
L 905 349
L 907 351
L 909 351
L 911 351
L 914 351
L 916 350
L 918 351
L 920 349
L 923 351
L 925 351
L 927 350
L 929 351
L 931 351
L 934 351
L 936 350
L 938 351
L 940 351
L 943 351
L 945 350
L 947 350
L 949 351
L 952 350
L 954 351
L 956 351
L 958 350
L 961 351
L 963 351
L 965 351
L 967 351
L 969 350" style="stroke-width:1;stroke:rgba(217,0,116,1.0);fill:none"/><text x="344" y="33" style="stroke-width:0;stroke:none;fill:rgba(51,51,51,1.0);font-size:23.0px;font-family:'Roboto Medium',sans-serif">Bruck-Mürzzuschlag 17.04.2021</text><path  d="M 38 11
L 251 11
L 251 91
L 38 91
L 38 11" style="stroke-width:1;stroke:rgba(51,51,51,1.0);fill:rgba(255,255,255,1.0)"/><text x="43" y="26" style="stroke-width:0;stroke:none;fill:rgba(51,51,51,1.0);font-size:10.2px;font-family:'Roboto Medium',sans-serif">Sieben Tage Durschnitt Inzidenz Fälle</text><path  d="M 221 21
L 241 21" style="stroke-width:1;stroke:rgba(0,116,217,1.0);fill:none"/><text x="43" y="56" style="stroke-width:0;stroke:none;fill:rgba(51,51,51,1.0);font-size:10.2px;font-family:'Roboto Medium',sans-serif">Anzahl Faelle</text><path  d="M 110 51
L 241 51" style="stroke-width:1;stroke:rgba(0,217,101,1.0);fill:none"/><text x="43" y="86" style="stroke-width:0;stroke:none;fill:rgba(51,51,51,1.0);font-size:10.2px;font-family:'Roboto Medium',sans-serif">Anzahl Tot</text><path  d="M 98 81
L 241 81" style="stroke-width:1;stroke:rgba(217,0,116,1.0);fill:none"/></svg>