<svg xmlns="http://www.w3.org/2000/svg" xmlns:xlink="http://www.w3.org/1999/xlink" width="1024" height="400">\n<path  d="M 0 0
L 1024 0
L 1024 400
L 0 400
L 0 0" style="stroke-width:0;stroke:rgba(255,255,255,1.0);fill:rgba(255,255,255,1.0)"/><path  d="M 38 11
L 969 11
L 969 351
L 38 351
L 38 11" style="stroke-width:0;stroke:rgba(255,255,255,1.0);fill:rgba(255,255,255,1.0)"/><path  d="M 38 351
L 969 351" style="stroke-width:1;stroke:rgba(51,51,51,1.0);fill:none"/><path  d="M 38 351
L 38 356" style="stroke-width:1;stroke:rgba(51,51,51,1.0);fill:none"/><text x="5" y="373" style="stroke-width:0;stroke:none;fill:rgba(51,51,51,1.0);font-size:12.8px;font-family:'Roboto Medium',sans-serif">2020-02-26</text><path  d="M 155 351
L 155 356" style="stroke-width:1;stroke:rgba(51,51,51,1.0);fill:none"/><text x="122" y="373" style="stroke-width:0;stroke:none;fill:rgba(51,51,51,1.0);font-size:12.8px;font-family:'Roboto Medium',sans-serif">2020-05-09</text><path  d="M 271 351
L 271 356" style="stroke-width:1;stroke:rgba(51,51,51,1.0);fill:none"/><text x="238" y="373" style="stroke-width:0;stroke:none;fill:rgba(51,51,51,1.0);font-size:12.8px;font-family:'Roboto Medium',sans-serif">2020-07-22</text><path  d="M 388 351
L 388 356" style="stroke-width:1;stroke:rgba(51,51,51,1.0);fill:none"/><text x="355" y="373" style="stroke-width:0;stroke:none;fill:rgba(51,51,51,1.0);font-size:12.8px;font-family:'Roboto Medium',sans-serif">2020-10-03</text><path  d="M 504 351
L 504 356" style="stroke-width:1;stroke:rgba(51,51,51,1.0);fill:none"/><text x="471" y="373" style="stroke-width:0;stroke:none;fill:rgba(51,51,51,1.0);font-size:12.8px;font-family:'Roboto Medium',sans-serif">2020-12-16</text><path  d="M 620 351
L 620 356" style="stroke-width:1;stroke:rgba(51,51,51,1.0);fill:none"/><text x="587" y="373" style="stroke-width:0;stroke:none;fill:rgba(51,51,51,1.0);font-size:12.8px;font-family:'Roboto Medium',sans-serif">2021-02-28</text><path  d="M 737 351
L 737 356" style="stroke-width:1;stroke:rgba(51,51,51,1.0);fill:none"/><text x="704" y="373" style="stroke-width:0;stroke:none;fill:rgba(51,51,51,1.0);font-size:12.8px;font-family:'Roboto Medium',sans-serif">2021-05-12</text><path  d="M 853 351
L 853 356" style="stroke-width:1;stroke:rgba(51,51,51,1.0);fill:none"/><text x="820" y="373" style="stroke-width:0;stroke:none;fill:rgba(51,51,51,1.0);font-size:12.8px;font-family:'Roboto Medium',sans-serif">2021-07-25</text><path  d="M 969 351
L 969 356" style="stroke-width:1;stroke:rgba(51,51,51,1.0);fill:none"/><text x="936" y="373" style="stroke-width:0;stroke:none;fill:rgba(51,51,51,1.0);font-size:12.8px;font-family:'Roboto Medium',sans-serif">2021-10-07</text><text x="485" y="395" style="stroke-width:0;stroke:none;fill:rgba(51,51,51,1.0);font-size:12.8px;font-family:'Roboto Medium',sans-serif">Datum</text><path  d="M 970 351
L 970 11" style="stroke-width:1;stroke:rgba(51,51,51,1.0);fill:none"/><path  d="M 970 351
L 975 351" style="stroke-width:1;stroke:rgba(51,51,51,1.0);fill:none"/><text x="980" y="357" style="stroke-width:0;stroke:none;fill:rgba(51,51,51,1.0);font-size:12.8px;font-family:'Roboto Medium',sans-serif">0.00</text><path  d="M 970 308
L 975 308" style="stroke-width:1;stroke:rgba(51,51,51,1.0);fill:none"/><text x="980" y="314" style="stroke-width:0;stroke:none;fill:rgba(51,51,51,1.0);font-size:12.8px;font-family:'Roboto Medium',sans-serif">82.00</text><path  d="M 970 265
L 975 265" style="stroke-width:1;stroke:rgba(51,51,51,1.0);fill:none"/><text x="980" y="271" style="stroke-width:0;stroke:none;fill:rgba(51,51,51,1.0);font-size:12.8px;font-family:'Roboto Medium',sans-serif">163.00</text><path  d="M 970 223
L 975 223" style="stroke-width:1;stroke:rgba(51,51,51,1.0);fill:none"/><text x="980" y="229" style="stroke-width:0;stroke:none;fill:rgba(51,51,51,1.0);font-size:12.8px;font-family:'Roboto Medium',sans-serif">244.00</text><path  d="M 970 181
L 975 181" style="stroke-width:1;stroke:rgba(51,51,51,1.0);fill:none"/><text x="980" y="187" style="stroke-width:0;stroke:none;fill:rgba(51,51,51,1.0);font-size:12.8px;font-family:'Roboto Medium',sans-serif">325.00</text><path  d="M 970 138
L 975 138" style="stroke-width:1;stroke:rgba(51,51,51,1.0);fill:none"/><text x="980" y="144" style="stroke-width:0;stroke:none;fill:rgba(51,51,51,1.0);font-size:12.8px;font-family:'Roboto Medium',sans-serif">407.00</text><path  d="M 970 95
L 975 95" style="stroke-width:1;stroke:rgba(51,51,51,1.0);fill:none"/><text x="980" y="101" style="stroke-width:0;stroke:none;fill:rgba(51,51,51,1.0);font-size:12.8px;font-family:'Roboto Medium',sans-serif">488.00</text><path  d="M 970 53
L 975 53" style="stroke-width:1;stroke:rgba(51,51,51,1.0);fill:none"/><text x="980" y="59" style="stroke-width:0;stroke:none;fill:rgba(51,51,51,1.0);font-size:12.8px;font-family:'Roboto Medium',sans-serif">569.00</text><path  d="M 970 11
L 975 11" style="stroke-width:1;stroke:rgba(51,51,51,1.0);fill:none"/><text x="980" y="17" style="stroke-width:0;stroke:none;fill:rgba(51,51,51,1.0);font-size:12.8px;font-family:'Roboto Medium',sans-serif">650.00</text><path  d="M 38 351
L 40 351
L 42 351
L 43 351
L 45 351
L 46 350
L 48 350
L 50 350
L 51 350
L 53 350
L 54 350
L 56 350
L 57 351
L 59 351
L 61 351
L 62 351
L 64 351
L 65 349
L 67 349
L 69 349
L 70 348
L 72 348
L 73 348
L 75 346
L 76 348
L 78 347
L 80 345
L 81 342
L 83 342
L 84 339
L 86 340
L 87 337
L 89 335
L 91 337
L 92 339
L 94 340
L 95 341
L 97 342
L 99 344
L 100 347
L 102 346
L 103 347
L 105 347
L 106 348
L 108 346
L 110 346
L 111 346
L 113 347
L 114 346
L 116 346
L 118 346
L 119 348
L 121 349
L 122 349
L 124 349
L 125 350
L 127 350
L 129 350
L 130 351
L 132 351
L 133 351
L 135 351
L 136 351
L 138 351
L 140 351
L 141 351
L 143 351
L 144 351
L 146 351
L 148 351
L 149 351
L 151 351
L 152 351
L 154 351
L 155 351
L 157 351
L 159 351
L 160 351
L 162 351
L 163 351
L 165 351
L 167 350
L 168 350
L 170 350
L 171 350
L 173 350
L 174 350
L 176 350
L 178 351
L 179 351
L 181 351
L 182 351
L 184 351
L 185 351
L 187 351
L 189 351
L 190 351
L 192 351
L 193 351
L 195 351
L 197 351
L 198 351
L 200 351
L 201 351
L 203 351
L 204 351
L 206 351
L 208 351
L 209 351
L 211 351
L 212 351
L 214 351
L 216 351
L 217 351
L 219 351
L 220 351
L 222 351
L 223 351
L 225 349
L 227 349
L 228 348
L 230 348
L 231 348
L 233 348
L 234 348
L 236 349
L 238 349
L 239 349
L 241 349
L 242 349
L 244 349
L 246 349
L 247 349
L 249 348
L 250 348
L 252 348
L 253 348
L 255 348
L 257 348
L 258 348
L 260 349
L 261 350
L 263 350
L 265 350
L 266 351
L 268 351
L 269 351
L 271 350
L 272 350
L 274 350
L 276 350
L 277 350
L 279 349
L 280 348
L 282 348
L 283 348
L 285 347
L 287 347
L 288 347
L 290 348
L 291 349
L 293 348
L 295 349
L 296 349
L 298 349
L 299 349
L 301 349
L 302 348
L 304 349
L 306 349
L 307 348
L 309 348
L 310 348
L 312 347
L 314 346
L 315 346
L 317 345
L 318 345
L 320 344
L 321 345
L 323 345
L 325 347
L 326 345
L 328 346
L 329 345
L 331 346
L 332 346
L 334 345
L 336 344
L 337 346
L 339 345
L 340 346
L 342 346
L 344 345
L 345 346
L 347 347
L 348 346
L 350 347
L 351 347
L 353 347
L 355 347
L 356 346
L 358 344
L 359 345
L 361 345
L 363 345
L 364 343
L 366 342
L 367 341
L 369 341
L 370 340
L 372 340
L 374 339
L 375 339
L 377 340
L 378 341
L 380 343
L 381 341
L 383 341
L 385 339
L 386 340
L 388 339
L 389 337
L 391 329
L 393 329
L 394 323
L 396 322
L 397 320
L 399 322
L 400 318
L 402 323
L 404 324
L 405 329
L 407 333
L 408 332
L 410 330
L 412 332
L 413 333
L 415 325
L 416 314
L 418 302
L 419 290
L 421 282
L 423 271
L 424 261
L 426 253
L 427 238
L 429 228
L 430 214
L 432 208
L 434 185
L 435 153
L 437 136
L 438 128
L 440 103
L 442 84
L 443 66
L 445 74
L 446 48
L 448 26
L 449 26
L 451 15
L 453 33
L 454 51
L 456 55
L 457 72
L 459 106
L 461 71
L 462 97
L 464 96
L 465 102
L 467 102
L 468 126
L 470 110
L 472 146
L 473 154
L 475 136
L 476 129
L 478 144
L 479 138
L 481 146
L 483 154
L 484 131
L 486 156
L 487 165
L 489 163
L 491 185
L 492 193
L 494 194
L 495 216
L 497 231
L 498 212
L 500 203
L 502 202
L 503 203
L 505 221
L 506 237
L 508 233
L 510 253
L 511 268
L 513 266
L 514 269
L 516 265
L 517 272
L 519 276
L 521 277
L 522 282
L 524 281
L 525 289
L 527 290
L 528 289
L 530 291
L 532 284
L 533 280
L 535 286
L 536 287
L 538 280
L 540 275
L 541 281
L 543 283
L 544 280
L 546 273
L 547 277
L 549 286
L 551 288
L 552 286
L 554 294
L 555 297
L 557 308
L 559 306
L 560 299
L 562 300
L 563 300
L 565 292
L 566 292
L 568 293
L 570 293
L 571 301
L 573 296
L 574 294
L 576 302
L 577 297
L 579 290
L 581 283
L 582 281
L 584 279
L 585 275
L 587 273
L 589 270
L 590 265
L 592 268
L 593 271
L 595 270
L 596 274
L 598 267
L 600 268
L 601 276
L 603 278
L 604 276
L 606 269
L 608 262
L 609 268
L 611 274
L 612 278
L 614 272
L 615 275
L 617 278
L 619 281
L 620 283
L 622 274
L 623 274
L 625 267
L 626 268
L 628 254
L 630 259
L 631 250
L 633 255
L 634 249
L 636 262
L 638 257
L 639 277
L 641 272
L 642 270
L 644 269
L 645 275
L 647 267
L 649 267
L 650 260
L 652 264
L 653 274
L 655 277
L 657 266
L 658 269
L 660 275
L 661 289
L 663 288
L 664 277
L 666 277
L 668 288
L 669 291
L 671 281
L 672 270
L 674 261
L 675 272
L 677 271
L 679 272
L 680 276
L 682 286
L 683 285
L 685 293
L 687 291
L 688 292
L 690 291
L 691 291
L 693 287
L 694 298
L 696 304
L 698 304
L 699 304
L 701 307
L 702 301
L 704 302
L 706 300
L 707 296
L 709 296
L 710 300
L 712 297
L 713 301
L 715 297
L 717 297
L 718 303
L 720 308
L 721 303
L 723 306
L 724 310
L 726 315
L 728 317
L 729 317
L 731 311
L 732 313
L 734 314
L 736 314
L 737 315
L 739 315
L 740 316
L 742 322
L 743 324
L 745 324
L 747 327
L 748 327
L 750 329
L 751 330
L 753 333
L 755 335
L 756 338
L 758 338
L 759 337
L 761 339
L 762 334
L 764 331
L 766 328
L 767 328
L 769 329
L 770 330
L 772 329
L 773 335
L 775 338
L 777 340
L 778 339
L 780 339
L 781 342
L 783 344
L 785 344
L 786 344
L 788 346
L 789 347
L 791 348
L 792 348
L 794 348
L 796 347
L 797 348
L 799 348
L 800 349
L 802 349
L 804 349
L 805 349
L 807 350
L 808 350
L 810 349
L 811 349
L 813 348
L 815 348
L 816 348
L 818 348
L 819 348
L 821 349
L 822 349
L 824 349
L 826 349
L 827 349
L 829 349
L 830 349
L 832 349
L 834 349
L 835 349
L 837 349
L 838 349
L 840 348
L 841 348
L 843 347
L 845 347
L 846 347
L 848 345
L 849 345
L 851 345
L 853 345
L 854 345
L 856 342
L 857 339
L 859 336
L 860 333
L 862 329
L 864 328
L 865 324
L 867 326
L 868 327
L 870 326
L 871 325
L 873 328
L 875 329
L 876 331
L 878 326
L 879 325
L 881 330
L 883 333
L 884 332
L 886 331
L 887 329
L 889 330
L 890 332
L 892 329
L 894 325
L 895 325
L 897 322
L 898 323
L 900 324
L 902 325
L 903 326
L 905 327
L 906 329
L 908 333
L 909 333
L 911 332
L 913 328
L 914 327
L 916 328
L 917 324
L 919 322
L 920 318
L 922 320
L 924 313
L 925 314
L 927 311
L 928 312
L 930 309
L 932 309
L 933 299
L 935 302
L 936 296
L 938 301
L 939 300
L 941 302
L 943 305
L 944 314
L 946 315
L 947 322
L 949 315
L 951 312
L 952 313
L 954 305
L 955 300
L 957 304
L 958 297
L 960 298
L 962 298
L 963 291
L 965 294
L 966 285
L 968 282
L 969 282" style="stroke-width:1;stroke:rgba(0,116,217,1.0);fill:none"/><path  d="M 38 351
L 40 351
L 42 351
L 43 351
L 45 351
L 46 350
L 48 351
L 50 351
L 51 351
L 53 351
L 54 351
L 56 351
L 57 351
L 59 351
L 61 351
L 62 351
L 64 351
L 65 349
L 67 351
L 69 351
L 70 350
L 72 350
L 73 351
L 75 349
L 76 351
L 78 350
L 80 348
L 81 348
L 83 349
L 84 348
L 86 349
L 87 348
L 89 348
L 91 350
L 92 349
L 94 351
L 95 349
L 97 350
L 99 350
L 100 351
L 102 349
L 103 351
L 105 350
L 106 351
L 108 348
L 110 349
L 111 351
L 113 351
L 114 349
L 116 351
L 118 351
L 119 350
L 121 351
L 122 351
L 124 351
L 125 351
L 127 351
L 129 351
L 130 351
L 132 351
L 133 351
L 135 351
L 136 351
L 138 351
L 140 351
L 141 351
L 143 351
L 144 351
L 146 351
L 148 351
L 149 351
L 151 351
L 152 351
L 154 351
L 155 351
L 157 351
L 159 351
L 160 351
L 162 351
L 163 351
L 165 351
L 167 350
L 168 351
L 170 351
L 171 351
L 173 351
L 174 351
L 176 351
L 178 351
L 179 351
L 181 351
L 182 351
L 184 351
L 185 351
L 187 351
L 189 351
L 190 351
L 192 351
L 193 351
L 195 351
L 197 351
L 198 351
L 200 351
L 201 351
L 203 351
L 204 351
L 206 351
L 208 351
L 209 351
L 211 351
L 212 351
L 214 351
L 216 351
L 217 351
L 219 351
L 220 351
L 222 351
L 223 351
L 225 349
L 227 350
L 228 350
L 230 350
L 231 351
L 233 351
L 234 351
L 236 351
L 238 351
L 239 349
L 241 351
L 242 351
L 244 351
L 246 351
L 247 350
L 249 349
L 250 350
L 252 351
L 253 351
L 255 350
L 257 351
L 258 351
L 260 351
L 261 351
L 263 351
L 265 351
L 266 351
L 268 351
L 269 351
L 271 350
L 272 351
L 274 351
L 276 351
L 277 351
L 279 349
L 280 349
L 282 351
L 283 350
L 285 350
L 287 351
L 288 351
L 290 351
L 291 351
L 293 349
L 295 351
L 296 351
L 298 351
L 299 350
L 301 351
L 302 349
L 304 351
L 306 351
L 307 350
L 309 350
L 310 350
L 312 350
L 314 348
L 315 351
L 317 349
L 318 350
L 320 349
L 321 351
L 323 351
L 325 350
L 326 348
L 328 350
L 329 349
L 331 351
L 332 351
L 334 350
L 336 349
L 337 350
L 339 349
L 340 349
L 342 351
L 344 350
L 345 351
L 347 350
L 348 349
L 350 350
L 351 350
L 353 350
L 355 350
L 356 349
L 358 348
L 359 350
L 361 350
L 363 350
L 364 348
L 366 349
L 367 348
L 369 348
L 370 349
L 372 350
L 374 349
L 375 349
L 377 350
L 378 349
L 380 351
L 381 347
L 383 349
L 385 347
L 386 350
L 388 348
L 389 347
L 391 342
L 393 348
L 394 344
L 396 346
L 397 347
L 399 351
L 400 344
L 402 347
L 404 349
L 405 349
L 407 350
L 408 347
L 410 348
L 412 346
L 413 348
L 415 341
L 416 338
L 418 338
L 419 335
L 421 340
L 423 336
L 424 338
L 426 332
L 427 323
L 429 329
L 430 321
L 432 334
L 434 313
L 435 308
L 437 315
L 438 315
L 440 304
L 442 302
L 443 317
L 445 321
L 446 282
L 448 293
L 449 315
L 451 293
L 453 320
L 454 335
L 456 324
L 457 298
L 459 327
L 461 281
L 462 319
L 464 320
L 465 341
L 467 324
L 468 322
L 470 312
L 472 316
L 473 326
L 475 302
L 476 334
L 478 338
L 479 317
L 481 320
L 483 324
L 484 303
L 486 326
L 487 344
L 489 336
L 491 338
L 492 328
L 494 325
L 495 324
L 497 342
L 498 325
L 500 327
L 502 337
L 503 330
L 505 343
L 506 340
L 508 337
L 510 345
L 511 342
L 513 335
L 514 332
L 516 339
L 517 347
L 519 341
L 521 346
L 522 346
L 524 334
L 525 340
L 527 341
L 528 346
L 530 343
L 532 339
L 533 343
L 535 340
L 536 341
L 538 333
L 540 342
L 541 348
L 543 341
L 544 340
L 546 333
L 547 345
L 549 342
L 551 344
L 552 346
L 554 348
L 555 343
L 557 343
L 559 343
L 560 335
L 562 345
L 563 346
L 565 340
L 566 344
L 568 344
L 570 343
L 571 343
L 573 341
L 574 344
L 576 348
L 577 339
L 579 337
L 581 336
L 582 341
L 584 338
L 585 341
L 587 345
L 589 337
L 590 332
L 592 338
L 593 344
L 595 338
L 596 344
L 598 338
L 600 338
L 601 339
L 603 341
L 604 342
L 606 332
L 608 337
L 609 344
L 611 344
L 612 344
L 614 335
L 615 345
L 617 335
L 619 339
L 620 346
L 622 335
L 623 344
L 625 329
L 626 346
L 628 321
L 630 344
L 631 336
L 633 341
L 634 337
L 636 342
L 638 340
L 639 341
L 641 338
L 642 335
L 644 340
L 645 343
L 647 334
L 649 340
L 650 334
L 652 342
L 653 345
L 655 343
L 657 332
L 658 337
L 660 346
L 661 348
L 663 341
L 664 334
L 666 343
L 668 343
L 669 340
L 671 336
L 672 337
L 674 332
L 675 345
L 677 343
L 679 344
L 680 343
L 682 347
L 683 336
L 685 340
L 687 342
L 688 344
L 690 343
L 691 343
L 693 343
L 694 347
L 696 345
L 698 342
L 699 344
L 701 346
L 702 337
L 704 345
L 706 345
L 707 341
L 709 342
L 710 348
L 712 343
L 713 342
L 715 341
L 717 344
L 718 347
L 720 347
L 721 344
L 723 346
L 724 345
L 726 346
L 728 346
L 729 348
L 731 341
L 732 346
L 734 346
L 736 346
L 737 347
L 739 346
L 740 348
L 742 347
L 743 347
L 745 346
L 747 349
L 748 347
L 750 348
L 751 349
L 753 350
L 755 349
L 756 349
L 758 348
L 759 346
L 761 350
L 762 344
L 764 346
L 766 346
L 767 350
L 769 349
L 770 348
L 772 349
L 773 350
L 775 349
L 777 348
L 778 349
L 780 349
L 781 351
L 783 351
L 785 351
L 786 349
L 788 351
L 789 349
L 791 351
L 792 350
L 794 351
L 796 350
L 797 351
L 799 350
L 800 351
L 802 351
L 804 351
L 805 351
L 807 351
L 808 351
L 810 349
L 811 350
L 813 350
L 815 350
L 816 351
L 818 351
L 819 351
L 821 351
L 822 351
L 824 350
L 826 350
L 827 351
L 829 351
L 830 351
L 832 351
L 834 350
L 835 351
L 837 350
L 838 350
L 840 350
L 841 350
L 843 349
L 845 350
L 846 351
L 848 348
L 849 350
L 851 350
L 853 350
L 854 350
L 856 347
L 857 347
L 859 345
L 860 347
L 862 345
L 864 349
L 865 347
L 867 349
L 868 348
L 870 345
L 871 346
L 873 347
L 875 350
L 876 349
L 878 344
L 879 346
L 881 350
L 883 349
L 884 346
L 886 349
L 887 347
L 889 346
L 890 348
L 892 347
L 894 345
L 895 347
L 897 346
L 898 348
L 900 346
L 902 349
L 903 348
L 905 346
L 906 348
L 908 350
L 909 348
L 911 346
L 913 345
L 914 347
L 916 347
L 917 345
L 919 347
L 920 345
L 922 347
L 924 338
L 925 349
L 927 344
L 928 345
L 930 345
L 932 345
L 933 337
L 935 341
L 936 343
L 938 349
L 939 344
L 941 347
L 943 348
L 944 346
L 946 342
L 947 349
L 949 343
L 951 341
L 952 349
L 954 340
L 955 341
L 957 345
L 958 343
L 960 344
L 962 341
L 963 342
L 965 343
L 966 332
L 968 342
L 969 342" style="stroke-width:1;stroke:rgba(0,217,101,1.0);fill:none"/><path  d="M 38 351
L 40 351
L 42 351
L 43 351
L 45 351
L 46 351
L 48 351
L 50 351
L 51 351
L 53 351
L 54 351
L 56 351
L 57 351
L 59 351
L 61 351
L 62 351
L 64 351
L 65 351
L 67 351
L 69 351
L 70 351
L 72 351
L 73 351
L 75 351
L 76 351
L 78 351
L 80 351
L 81 351
L 83 350
L 84 351
L 86 351
L 87 351
L 89 351
L 91 350
L 92 351
L 94 351
L 95 351
L 97 351
L 99 351
L 100 351
L 102 351
L 103 351
L 105 351
L 106 351
L 108 350
L 110 351
L 111 351
L 113 351
L 114 351
L 116 351
L 118 351
L 119 351
L 121 350
L 122 351
L 124 351
L 125 351
L 127 351
L 129 350
L 130 351
L 132 351
L 133 351
L 135 351
L 136 351
L 138 351
L 140 351
L 141 351
L 143 351
L 144 351
L 146 351
L 148 351
L 149 351
L 151 351
L 152 351
L 154 351
L 155 351
L 157 351
L 159 351
L 160 351
L 162 351
L 163 351
L 165 351
L 167 351
L 168 351
L 170 351
L 171 351
L 173 351
L 174 351
L 176 351
L 178 351
L 179 351
L 181 351
L 182 351
L 184 351
L 185 351
L 187 351
L 189 351
L 190 351
L 192 351
L 193 351
L 195 351
L 197 351
L 198 351
L 200 351
L 201 351
L 203 351
L 204 351
L 206 351
L 208 351
L 209 351
L 211 351
L 212 351
L 214 351
L 216 351
L 217 351
L 219 351
L 220 351
L 222 351
L 223 351
L 225 351
L 227 351
L 228 351
L 230 351
L 231 351
L 233 351
L 234 351
L 236 351
L 238 351
L 239 351
L 241 351
L 242 351
L 244 351
L 246 351
L 247 351
L 249 351
L 250 351
L 252 351
L 253 351
L 255 351
L 257 351
L 258 351
L 260 351
L 261 351
L 263 351
L 265 351
L 266 351
L 268 351
L 269 351
L 271 351
L 272 351
L 274 351
L 276 351
L 277 351
L 279 351
L 280 351
L 282 351
L 283 351
L 285 351
L 287 351
L 288 351
L 290 351
L 291 351
L 293 351
L 295 351
L 296 351
L 298 351
L 299 351
L 301 351
L 302 351
L 304 350
L 306 351
L 307 351
L 309 351
L 310 351
L 312 351
L 314 351
L 315 351
L 317 351
L 318 351
L 320 351
L 321 351
L 323 351
L 325 351
L 326 351
L 328 351
L 329 351
L 331 351
L 332 351
L 334 351
L 336 351
L 337 351
L 339 351
L 340 351
L 342 351
L 344 351
L 345 351
L 347 351
L 348 351
L 350 351
L 351 351
L 353 351
L 355 351
L 356 351
L 358 351
L 359 351
L 361 351
L 363 351
L 364 351
L 366 351
L 367 351
L 369 351
L 370 351
L 372 351
L 374 351
L 375 351
L 377 351
L 378 351
L 380 351
L 381 351
L 383 351
L 385 350
L 386 351
L 388 351
L 389 351
L 391 351
L 393 351
L 394 351
L 396 350
L 397 351
L 399 351
L 400 349
L 402 351
L 404 351
L 405 350
L 407 351
L 408 349
L 410 351
L 412 351
L 413 350
L 415 351
L 416 349
L 418 351
L 419 351
L 421 351
L 423 351
L 424 351
L 426 349
L 427 350
L 429 350
L 430 350
L 432 350
L 434 349
L 435 351
L 437 349
L 438 351
L 440 350
L 442 350
L 443 351
L 445 351
L 446 349
L 448 350
L 449 350
L 451 350
L 453 350
L 454 350
L 456 348
L 457 350
L 459 350
L 461 351
L 462 350
L 464 348
L 465 349
L 467 349
L 468 350
L 470 351
L 472 348
L 473 349
L 475 346
L 476 349
L 478 350
L 479 349
L 481 349
L 483 347
L 484 347
L 486 350
L 487 348
L 489 350
L 491 349
L 492 349
L 494 348
L 495 348
L 497 348
L 498 349
L 500 347
L 502 348
L 503 350
L 505 349
L 506 349
L 508 351
L 510 348
L 511 351
L 513 348
L 514 350
L 516 348
L 517 351
L 519 351
L 521 351
L 522 349
L 524 349
L 525 350
L 527 348
L 528 348
L 530 349
L 532 351
L 533 349
L 535 348
L 536 349
L 538 349
L 540 351
L 541 350
L 543 349
L 544 351
L 546 351
L 547 350
L 549 350
L 551 351
L 552 351
L 554 349
L 555 351
L 557 351
L 559 350
L 560 351
L 562 350
L 563 351
L 565 350
L 566 349
L 568 350
L 570 351
L 571 351
L 573 349
L 574 349
L 576 350
L 577 350
L 579 350
L 581 351
L 582 351
L 584 351
L 585 350
L 587 351
L 589 350
L 590 351
L 592 349
L 593 349
L 595 351
L 596 351
L 598 350
L 600 350
L 601 351
L 603 349
L 604 350
L 606 350
L 608 349
L 609 350
L 611 349
L 612 350
L 614 350
L 615 351
L 617 351
L 619 349
L 620 351
L 622 350
L 623 351
L 625 350
L 626 350
L 628 351
L 630 350
L 631 350
L 633 350
L 634 351
L 636 351
L 638 350
L 639 351
L 641 350
L 642 351
L 644 351
L 645 351
L 647 351
L 649 351
L 650 349
L 652 351
L 653 351
L 655 351
L 657 351
L 658 350
L 660 351
L 661 349
L 663 351
L 664 351
L 666 350
L 668 351
L 669 351
L 671 351
L 672 350
L 674 351
L 675 351
L 677 351
L 679 350
L 680 350
L 682 351
L 683 350
L 685 351
L 687 351
L 688 350
L 690 351
L 691 350
L 693 351
L 694 351
L 696 349
L 698 351
L 699 351
L 701 351
L 702 351
L 704 349
L 706 351
L 707 351
L 709 351
L 710 350
L 712 351
L 713 351
L 715 351
L 717 351
L 718 351
L 720 351
L 721 351
L 723 351
L 724 351
L 726 350
L 728 351
L 729 351
L 731 351
L 732 351
L 734 351
L 736 351
L 737 351
L 739 351
L 740 351
L 742 351
L 743 351
L 745 351
L 747 351
L 748 351
L 750 351
L 751 351
L 753 351
L 755 350
L 756 350
L 758 351
L 759 351
L 761 351
L 762 351
L 764 351
L 766 351
L 767 351
L 769 351
L 770 351
L 772 351
L 773 351
L 775 351
L 777 351
L 778 351
L 780 351
L 781 351
L 783 351
L 785 351
L 786 351
L 788 351
L 789 351
L 791 351
L 792 351
L 794 351
L 796 351
L 797 351
L 799 351
L 800 351
L 802 351
L 804 351
L 805 351
L 807 351
L 808 351
L 810 351
L 811 351
L 813 351
L 815 351
L 816 351
L 818 351
L 819 351
L 821 351
L 822 351
L 824 351
L 826 351
L 827 351
L 829 351
L 830 351
L 832 351
L 834 351
L 835 351
L 837 351
L 838 351
L 840 351
L 841 351
L 843 351
L 845 351
L 846 351
L 848 351
L 849 351
L 851 351
L 853 351
L 854 351
L 856 351
L 857 351
L 859 351
L 860 351
L 862 351
L 864 351
L 865 351
L 867 351
L 868 351
L 870 351
L 871 351
L 873 351
L 875 351
L 876 351
L 878 351
L 879 351
L 881 351
L 883 350
L 884 351
L 886 351
L 887 351
L 889 351
L 890 351
L 892 351
L 894 351
L 895 351
L 897 350
L 898 351
L 900 351
L 902 351
L 903 351
L 905 351
L 906 351
L 908 351
L 909 351
L 911 351
L 913 351
L 914 351
L 916 351
L 917 351
L 919 351
L 920 351
L 922 351
L 924 351
L 925 351
L 927 351
L 928 350
L 930 351
L 932 351
L 933 351
L 935 351
L 936 351
L 938 351
L 939 351
L 941 351
L 943 351
L 944 351
L 946 351
L 947 351
L 949 351
L 951 351
L 952 351
L 954 351
L 955 351
L 957 351
L 958 351
L 960 351
L 962 351
L 963 351
L 965 351
L 966 351
L 968 351
L 969 351" style="stroke-width:1;stroke:rgba(217,0,116,1.0);fill:none"/><text x="344" y="33" style="stroke-width:0;stroke:none;fill:rgba(51,51,51,1.0);font-size:23.0px;font-family:'Roboto Medium',sans-serif">Bruck-Mürzzuschlag 07.10.2021</text><path  d="M 38 11
L 251 11
L 251 91
L 38 91
L 38 11" style="stroke-width:1;stroke:rgba(51,51,51,1.0);fill:rgba(255,255,255,1.0)"/><text x="43" y="26" style="stroke-width:0;stroke:none;fill:rgba(51,51,51,1.0);font-size:10.2px;font-family:'Roboto Medium',sans-serif">Sieben Tage Durschnitt Inzidenz Fälle</text><path  d="M 221 21
L 241 21" style="stroke-width:1;stroke:rgba(0,116,217,1.0);fill:none"/><text x="43" y="56" style="stroke-width:0;stroke:none;fill:rgba(51,51,51,1.0);font-size:10.2px;font-family:'Roboto Medium',sans-serif">Anzahl Faelle</text><path  d="M 110 51
L 241 51" style="stroke-width:1;stroke:rgba(0,217,101,1.0);fill:none"/><text x="43" y="86" style="stroke-width:0;stroke:none;fill:rgba(51,51,51,1.0);font-size:10.2px;font-family:'Roboto Medium',sans-serif">Anzahl Tot</text><path  d="M 98 81
L 241 81" style="stroke-width:1;stroke:rgba(217,0,116,1.0);fill:none"/></svg>