<svg xmlns="http://www.w3.org/2000/svg" xmlns:xlink="http://www.w3.org/1999/xlink" width="1024" height="400">\n<path  d="M 0 0
L 1024 0
L 1024 400
L 0 400
L 0 0" style="stroke-width:0;stroke:rgba(255,255,255,1.0);fill:rgba(255,255,255,1.0)"/><path  d="M 38 11
L 969 11
L 969 351
L 38 351
L 38 11" style="stroke-width:0;stroke:rgba(255,255,255,1.0);fill:rgba(255,255,255,1.0)"/><path  d="M 38 351
L 969 351" style="stroke-width:1;stroke:rgba(51,51,51,1.0);fill:none"/><path  d="M 38 351
L 38 356" style="stroke-width:1;stroke:rgba(51,51,51,1.0);fill:none"/><text x="5" y="373" style="stroke-width:0;stroke:none;fill:rgba(51,51,51,1.0);font-size:12.8px;font-family:'Roboto Medium',sans-serif">2020-02-26</text><path  d="M 155 351
L 155 356" style="stroke-width:1;stroke:rgba(51,51,51,1.0);fill:none"/><text x="122" y="373" style="stroke-width:0;stroke:none;fill:rgba(51,51,51,1.0);font-size:12.8px;font-family:'Roboto Medium',sans-serif">2020-04-16</text><path  d="M 271 351
L 271 356" style="stroke-width:1;stroke:rgba(51,51,51,1.0);fill:none"/><text x="238" y="373" style="stroke-width:0;stroke:none;fill:rgba(51,51,51,1.0);font-size:12.8px;font-family:'Roboto Medium',sans-serif">2020-06-05</text><path  d="M 388 351
L 388 356" style="stroke-width:1;stroke:rgba(51,51,51,1.0);fill:none"/><text x="355" y="373" style="stroke-width:0;stroke:none;fill:rgba(51,51,51,1.0);font-size:12.8px;font-family:'Roboto Medium',sans-serif">2020-07-25</text><path  d="M 504 351
L 504 356" style="stroke-width:1;stroke:rgba(51,51,51,1.0);fill:none"/><text x="471" y="373" style="stroke-width:0;stroke:none;fill:rgba(51,51,51,1.0);font-size:12.8px;font-family:'Roboto Medium',sans-serif">2020-09-14</text><path  d="M 620 351
L 620 356" style="stroke-width:1;stroke:rgba(51,51,51,1.0);fill:none"/><text x="587" y="373" style="stroke-width:0;stroke:none;fill:rgba(51,51,51,1.0);font-size:12.8px;font-family:'Roboto Medium',sans-serif">2020-11-03</text><path  d="M 737 351
L 737 356" style="stroke-width:1;stroke:rgba(51,51,51,1.0);fill:none"/><text x="704" y="373" style="stroke-width:0;stroke:none;fill:rgba(51,51,51,1.0);font-size:12.8px;font-family:'Roboto Medium',sans-serif">2020-12-23</text><path  d="M 853 351
L 853 356" style="stroke-width:1;stroke:rgba(51,51,51,1.0);fill:none"/><text x="820" y="373" style="stroke-width:0;stroke:none;fill:rgba(51,51,51,1.0);font-size:12.8px;font-family:'Roboto Medium',sans-serif">2021-02-11</text><path  d="M 969 351
L 969 356" style="stroke-width:1;stroke:rgba(51,51,51,1.0);fill:none"/><text x="936" y="373" style="stroke-width:0;stroke:none;fill:rgba(51,51,51,1.0);font-size:12.8px;font-family:'Roboto Medium',sans-serif">2021-04-03</text><text x="485" y="395" style="stroke-width:0;stroke:none;fill:rgba(51,51,51,1.0);font-size:12.8px;font-family:'Roboto Medium',sans-serif">Datum</text><path  d="M 970 351
L 970 11" style="stroke-width:1;stroke:rgba(51,51,51,1.0);fill:none"/><path  d="M 970 351
L 975 351" style="stroke-width:1;stroke:rgba(51,51,51,1.0);fill:none"/><text x="980" y="357" style="stroke-width:0;stroke:none;fill:rgba(51,51,51,1.0);font-size:12.8px;font-family:'Roboto Medium',sans-serif">0.00</text><path  d="M 970 308
L 975 308" style="stroke-width:1;stroke:rgba(51,51,51,1.0);fill:none"/><text x="980" y="314" style="stroke-width:0;stroke:none;fill:rgba(51,51,51,1.0);font-size:12.8px;font-family:'Roboto Medium',sans-serif">50.00</text><path  d="M 970 266
L 975 266" style="stroke-width:1;stroke:rgba(51,51,51,1.0);fill:none"/><text x="980" y="272" style="stroke-width:0;stroke:none;fill:rgba(51,51,51,1.0);font-size:12.8px;font-family:'Roboto Medium',sans-serif">100.00</text><path  d="M 970 223
L 975 223" style="stroke-width:1;stroke:rgba(51,51,51,1.0);fill:none"/><text x="980" y="229" style="stroke-width:0;stroke:none;fill:rgba(51,51,51,1.0);font-size:12.8px;font-family:'Roboto Medium',sans-serif">150.00</text><path  d="M 970 181
L 975 181" style="stroke-width:1;stroke:rgba(51,51,51,1.0);fill:none"/><text x="980" y="187" style="stroke-width:0;stroke:none;fill:rgba(51,51,51,1.0);font-size:12.8px;font-family:'Roboto Medium',sans-serif">200.00</text><path  d="M 970 138
L 975 138" style="stroke-width:1;stroke:rgba(51,51,51,1.0);fill:none"/><text x="980" y="144" style="stroke-width:0;stroke:none;fill:rgba(51,51,51,1.0);font-size:12.8px;font-family:'Roboto Medium',sans-serif">250.00</text><path  d="M 970 96
L 975 96" style="stroke-width:1;stroke:rgba(51,51,51,1.0);fill:none"/><text x="980" y="102" style="stroke-width:0;stroke:none;fill:rgba(51,51,51,1.0);font-size:12.8px;font-family:'Roboto Medium',sans-serif">300.00</text><path  d="M 970 53
L 975 53" style="stroke-width:1;stroke:rgba(51,51,51,1.0);fill:none"/><text x="980" y="59" style="stroke-width:0;stroke:none;fill:rgba(51,51,51,1.0);font-size:12.8px;font-family:'Roboto Medium',sans-serif">350.00</text><path  d="M 970 11
L 975 11" style="stroke-width:1;stroke:rgba(51,51,51,1.0);fill:none"/><text x="980" y="17" style="stroke-width:0;stroke:none;fill:rgba(51,51,51,1.0);font-size:12.8px;font-family:'Roboto Medium',sans-serif">400.00</text><path  d="M 38 351
L 41 351
L 43 351
L 45 351
L 48 351
L 50 351
L 52 351
L 55 351
L 57 351
L 59 351
L 62 351
L 64 351
L 66 351
L 69 351
L 71 351
L 73 351
L 76 351
L 78 351
L 80 351
L 83 348
L 85 346
L 87 344
L 89 341
L 92 341
L 94 339
L 96 339
L 99 342
L 101 342
L 103 339
L 106 339
L 108 337
L 110 337
L 113 328
L 115 328
L 117 327
L 120 330
L 122 331
L 124 331
L 127 332
L 129 338
L 131 338
L 133 337
L 136 338
L 138 338
L 140 339
L 143 338
L 145 341
L 147 341
L 150 341
L 152 342
L 154 344
L 157 345
L 159 346
L 161 346
L 164 345
L 166 349
L 168 348
L 171 348
L 173 348
L 175 348
L 177 346
L 180 348
L 182 348
L 184 349
L 187 348
L 189 348
L 191 348
L 194 349
L 196 349
L 198 349
L 201 349
L 203 351
L 205 351
L 208 351
L 210 351
L 212 351
L 215 351
L 217 351
L 219 351
L 221 351
L 224 351
L 226 351
L 228 351
L 231 351
L 233 349
L 235 349
L 238 349
L 240 349
L 242 349
L 245 349
L 247 349
L 249 351
L 252 351
L 254 351
L 256 351
L 259 351
L 261 351
L 263 351
L 265 351
L 268 351
L 270 351
L 272 351
L 275 351
L 277 351
L 279 351
L 282 351
L 284 351
L 286 351
L 289 351
L 291 351
L 293 351
L 296 351
L 298 351
L 300 351
L 303 351
L 305 351
L 307 351
L 309 351
L 312 351
L 314 351
L 316 351
L 319 351
L 321 351
L 323 351
L 326 351
L 328 351
L 330 351
L 333 351
L 335 351
L 337 349
L 340 349
L 342 349
L 344 349
L 347 349
L 349 349
L 351 349
L 353 351
L 356 351
L 358 349
L 360 349
L 363 349
L 365 349
L 367 349
L 370 349
L 372 349
L 374 351
L 377 348
L 379 348
L 381 345
L 384 345
L 386 345
L 388 345
L 391 345
L 393 348
L 395 348
L 397 351
L 400 351
L 402 351
L 404 351
L 407 351
L 409 351
L 411 351
L 414 351
L 416 351
L 418 351
L 421 351
L 423 351
L 425 351
L 428 351
L 430 351
L 432 351
L 435 351
L 437 351
L 439 351
L 441 351
L 444 351
L 446 351
L 448 351
L 451 351
L 453 351
L 455 349
L 458 346
L 460 345
L 462 344
L 465 341
L 467 341
L 469 341
L 472 342
L 474 345
L 476 346
L 479 346
L 481 346
L 483 346
L 485 345
L 488 345
L 490 344
L 492 339
L 495 338
L 497 335
L 499 332
L 502 327
L 504 320
L 506 320
L 509 320
L 511 321
L 513 324
L 516 325
L 518 330
L 520 334
L 523 334
L 525 338
L 527 339
L 529 339
L 532 339
L 534 342
L 536 344
L 539 344
L 541 341
L 543 341
L 546 344
L 548 344
L 550 341
L 553 341
L 555 339
L 557 338
L 560 335
L 562 335
L 564 331
L 567 334
L 569 332
L 571 332
L 573 332
L 576 334
L 578 331
L 580 317
L 583 316
L 585 316
L 587 311
L 590 286
L 592 282
L 594 260
L 597 260
L 599 247
L 601 233
L 604 223
L 606 226
L 608 193
L 611 179
L 613 166
L 615 151
L 617 144
L 620 91
L 622 64
L 624 31
L 627 29
L 629 11
L 631 17
L 634 11
L 636 42
L 638 28
L 641 47
L 643 39
L 645 50
L 648 56
L 650 61
L 652 38
L 655 64
L 657 78
L 659 87
L 661 94
L 664 98
L 666 103
L 668 137
L 671 140
L 673 151
L 675 165
L 678 182
L 680 175
L 682 161
L 685 166
L 687 184
L 689 183
L 692 182
L 694 172
L 696 183
L 699 175
L 701 176
L 703 189
L 705 166
L 708 149
L 710 137
L 712 110
L 715 117
L 717 77
L 719 46
L 722 71
L 724 15
L 726 46
L 729 56
L 731 57
L 733 92
L 736 89
L 738 94
L 740 187
L 743 176
L 745 175
L 747 165
L 749 126
L 752 138
L 754 131
L 756 121
L 759 123
L 761 128
L 763 161
L 766 183
L 768 152
L 770 154
L 773 131
L 775 141
L 777 142
L 780 137
L 782 159
L 784 212
L 787 226
L 789 257
L 791 247
L 793 258
L 796 240
L 798 243
L 800 232
L 803 228
L 805 215
L 807 214
L 810 219
L 812 232
L 814 226
L 817 232
L 819 228
L 821 214
L 824 200
L 826 198
L 828 170
L 831 161
L 833 134
L 835 119
L 837 145
L 840 159
L 842 152
L 844 170
L 847 184
L 849 207
L 851 229
L 854 228
L 856 242
L 858 250
L 861 253
L 863 250
L 865 239
L 868 235
L 870 225
L 872 218
L 875 211
L 877 223
L 879 240
L 881 229
L 884 243
L 886 243
L 888 226
L 891 233
L 893 221
L 895 197
L 898 226
L 900 218
L 902 193
L 905 221
L 907 204
L 909 212
L 912 236
L 914 219
L 916 218
L 919 246
L 921 198
L 923 219
L 925 215
L 928 212
L 930 184
L 932 177
L 935 158
L 937 170
L 939 149
L 942 142
L 944 138
L 946 148
L 949 144
L 951 169
L 953 183
L 956 165
L 958 166
L 960 159
L 963 179
L 965 166
L 967 170
L 969 173" style="stroke-width:1;stroke:rgba(0,116,217,1.0);fill:none"/><path  d="M 38 351
L 41 351
L 43 351
L 45 351
L 48 351
L 50 351
L 52 351
L 55 351
L 57 351
L 59 351
L 62 351
L 64 351
L 66 351
L 69 351
L 71 351
L 73 351
L 76 351
L 78 351
L 80 351
L 83 349
L 85 350
L 87 349
L 89 349
L 92 351
L 94 350
L 96 351
L 99 351
L 101 350
L 103 347
L 106 349
L 108 349
L 110 350
L 113 345
L 115 351
L 117 349
L 120 349
L 122 350
L 124 349
L 127 351
L 129 349
L 131 351
L 133 348
L 136 350
L 138 350
L 140 350
L 143 350
L 145 351
L 147 351
L 150 348
L 152 351
L 154 351
L 157 351
L 159 351
L 161 351
L 164 350
L 166 351
L 168 350
L 171 351
L 173 351
L 175 351
L 177 350
L 180 351
L 182 351
L 184 351
L 187 350
L 189 351
L 191 351
L 194 351
L 196 351
L 198 351
L 201 351
L 203 351
L 205 351
L 208 351
L 210 351
L 212 351
L 215 351
L 217 351
L 219 351
L 221 351
L 224 351
L 226 351
L 228 351
L 231 351
L 233 350
L 235 351
L 238 351
L 240 351
L 242 351
L 245 351
L 247 351
L 249 351
L 252 351
L 254 351
L 256 351
L 259 351
L 261 351
L 263 351
L 265 351
L 268 351
L 270 351
L 272 351
L 275 351
L 277 351
L 279 351
L 282 351
L 284 351
L 286 351
L 289 351
L 291 351
L 293 351
L 296 351
L 298 351
L 300 351
L 303 351
L 305 351
L 307 351
L 309 351
L 312 351
L 314 351
L 316 351
L 319 351
L 321 351
L 323 351
L 326 351
L 328 351
L 330 351
L 333 351
L 335 351
L 337 350
L 340 351
L 342 351
L 344 351
L 347 351
L 349 351
L 351 351
L 353 351
L 356 351
L 358 350
L 360 351
L 363 351
L 365 351
L 367 351
L 370 351
L 372 351
L 374 351
L 377 349
L 379 351
L 381 349
L 384 351
L 386 351
L 388 351
L 391 351
L 393 351
L 395 351
L 397 351
L 400 351
L 402 351
L 404 351
L 407 351
L 409 351
L 411 351
L 414 351
L 416 351
L 418 351
L 421 351
L 423 351
L 425 351
L 428 351
L 430 351
L 432 351
L 435 351
L 437 351
L 439 351
L 441 351
L 444 351
L 446 351
L 448 351
L 451 351
L 453 351
L 455 350
L 458 349
L 460 350
L 462 350
L 465 349
L 467 351
L 469 351
L 472 351
L 474 351
L 476 351
L 479 350
L 481 349
L 483 351
L 485 350
L 488 351
L 490 350
L 492 348
L 495 349
L 497 347
L 499 349
L 502 346
L 504 346
L 506 350
L 509 348
L 511 350
L 513 349
L 516 350
L 518 349
L 520 349
L 523 350
L 525 351
L 527 351
L 529 349
L 532 350
L 534 351
L 536 350
L 539 350
L 541 349
L 543 351
L 546 351
L 548 350
L 550 349
L 553 350
L 555 349
L 557 348
L 560 349
L 562 351
L 564 347
L 567 351
L 569 349
L 571 349
L 573 348
L 576 350
L 578 349
L 580 339
L 583 350
L 585 349
L 587 346
L 590 333
L 592 347
L 594 335
L 597 339
L 599 342
L 601 340
L 604 340
L 606 334
L 608 327
L 611 327
L 613 331
L 615 333
L 617 336
L 620 308
L 622 318
L 624 306
L 627 326
L 629 320
L 631 336
L 634 333
L 636 327
L 638 310
L 641 318
L 643 321
L 645 327
L 648 339
L 650 336
L 652 312
L 655 326
L 657 327
L 659 326
L 661 331
L 664 342
L 666 339
L 668 333
L 671 328
L 673 334
L 675 334
L 678 341
L 680 338
L 682 331
L 685 336
L 687 339
L 689 333
L 692 334
L 694 335
L 696 345
L 699 326
L 701 337
L 703 346
L 705 319
L 708 323
L 710 328
L 712 328
L 715 330
L 717 312
L 719 328
L 722 334
L 724 289
L 726 346
L 729 334
L 731 331
L 733 334
L 736 326
L 738 337
L 740 346
L 743 339
L 745 334
L 747 325
L 749 310
L 752 334
L 754 333
L 756 340
L 759 340
L 761 337
L 763 345
L 766 323
L 768 315
L 770 334
L 773 327
L 775 346
L 777 338
L 780 341
L 782 337
L 784 347
L 787 342
L 789 345
L 791 340
L 793 345
L 796 330
L 798 339
L 800 340
L 803 339
L 805 338
L 807 339
L 810 348
L 812 338
L 814 335
L 817 344
L 819 337
L 821 329
L 824 331
L 826 347
L 828 321
L 831 329
L 833 328
L 835 328
L 837 345
L 840 339
L 842 343
L 844 332
L 847 338
L 849 341
L 851 341
L 854 345
L 856 348
L 858 348
L 861 334
L 863 336
L 865 334
L 868 339
L 870 339
L 872 344
L 875 344
L 877 341
L 879 346
L 881 328
L 884 347
L 886 339
L 888 334
L 891 348
L 893 334
L 895 332
L 898 345
L 900 342
L 902 323
L 905 351
L 907 338
L 909 339
L 912 346
L 914 335
L 916 341
L 919 340
L 921 322
L 923 351
L 925 336
L 928 345
L 930 318
L 932 337
L 935 328
L 937 329
L 939 338
L 942 332
L 944 342
L 946 324
L 949 334
L 951 344
L 953 338
L 956 327
L 958 333
L 960 338
L 963 336
L 965 327
L 967 346
L 969 339" style="stroke-width:1;stroke:rgba(0,217,101,1.0);fill:none"/><path  d="M 38 351
L 41 351
L 43 351
L 45 351
L 48 351
L 50 351
L 52 351
L 55 351
L 57 351
L 59 351
L 62 351
L 64 351
L 66 351
L 69 351
L 71 351
L 73 351
L 76 351
L 78 351
L 80 351
L 83 351
L 85 351
L 87 351
L 89 351
L 92 351
L 94 351
L 96 351
L 99 351
L 101 351
L 103 351
L 106 351
L 108 351
L 110 351
L 113 351
L 115 350
L 117 351
L 120 351
L 122 351
L 124 351
L 127 351
L 129 351
L 131 351
L 133 351
L 136 351
L 138 351
L 140 351
L 143 351
L 145 351
L 147 351
L 150 351
L 152 351
L 154 351
L 157 351
L 159 350
L 161 351
L 164 351
L 166 351
L 168 351
L 171 351
L 173 351
L 175 351
L 177 351
L 180 351
L 182 351
L 184 351
L 187 351
L 189 351
L 191 351
L 194 351
L 196 351
L 198 351
L 201 351
L 203 351
L 205 351
L 208 351
L 210 351
L 212 351
L 215 351
L 217 351
L 219 351
L 221 351
L 224 351
L 226 351
L 228 351
L 231 351
L 233 351
L 235 351
L 238 351
L 240 351
L 242 351
L 245 351
L 247 351
L 249 351
L 252 351
L 254 351
L 256 351
L 259 351
L 261 351
L 263 351
L 265 351
L 268 351
L 270 351
L 272 351
L 275 351
L 277 351
L 279 351
L 282 351
L 284 351
L 286 351
L 289 351
L 291 351
L 293 351
L 296 351
L 298 351
L 300 351
L 303 351
L 305 351
L 307 351
L 309 351
L 312 351
L 314 351
L 316 351
L 319 351
L 321 351
L 323 351
L 326 351
L 328 351
L 330 351
L 333 351
L 335 351
L 337 351
L 340 351
L 342 351
L 344 351
L 347 351
L 349 351
L 351 351
L 353 351
L 356 351
L 358 351
L 360 351
L 363 351
L 365 351
L 367 351
L 370 351
L 372 351
L 374 351
L 377 351
L 379 351
L 381 351
L 384 351
L 386 351
L 388 351
L 391 351
L 393 351
L 395 351
L 397 351
L 400 351
L 402 351
L 404 351
L 407 351
L 409 351
L 411 351
L 414 351
L 416 351
L 418 351
L 421 351
L 423 351
L 425 351
L 428 351
L 430 351
L 432 351
L 435 351
L 437 351
L 439 351
L 441 351
L 444 351
L 446 351
L 448 351
L 451 351
L 453 351
L 455 351
L 458 351
L 460 351
L 462 351
L 465 351
L 467 351
L 469 351
L 472 351
L 474 351
L 476 351
L 479 351
L 481 351
L 483 351
L 485 351
L 488 351
L 490 351
L 492 351
L 495 351
L 497 351
L 499 351
L 502 351
L 504 351
L 506 351
L 509 351
L 511 351
L 513 351
L 516 351
L 518 351
L 520 351
L 523 351
L 525 351
L 527 351
L 529 351
L 532 351
L 534 351
L 536 351
L 539 351
L 541 351
L 543 351
L 546 351
L 548 351
L 550 351
L 553 351
L 555 351
L 557 351
L 560 351
L 562 351
L 564 351
L 567 351
L 569 351
L 571 351
L 573 351
L 576 351
L 578 351
L 580 351
L 583 351
L 585 351
L 587 351
L 590 351
L 592 350
L 594 351
L 597 351
L 599 351
L 601 351
L 604 351
L 606 351
L 608 351
L 611 351
L 613 351
L 615 351
L 617 351
L 620 351
L 622 351
L 624 351
L 627 351
L 629 351
L 631 350
L 634 351
L 636 351
L 638 351
L 641 350
L 643 350
L 645 350
L 648 351
L 650 351
L 652 351
L 655 351
L 657 350
L 659 351
L 661 350
L 664 351
L 666 350
L 668 350
L 671 351
L 673 351
L 675 351
L 678 350
L 680 349
L 682 351
L 685 349
L 687 350
L 689 351
L 692 350
L 694 349
L 696 351
L 699 350
L 701 350
L 703 349
L 705 351
L 708 350
L 710 349
L 712 350
L 715 349
L 717 351
L 719 350
L 722 348
L 724 351
L 726 349
L 729 350
L 731 349
L 733 346
L 736 351
L 738 349
L 740 350
L 743 350
L 745 349
L 747 349
L 749 350
L 752 351
L 754 350
L 756 351
L 759 350
L 761 349
L 763 351
L 766 349
L 768 349
L 770 350
L 773 350
L 775 351
L 777 348
L 780 350
L 782 351
L 784 351
L 787 350
L 789 351
L 791 351
L 793 350
L 796 350
L 798 350
L 800 351
L 803 349
L 805 349
L 807 351
L 810 351
L 812 350
L 814 350
L 817 351
L 819 351
L 821 351
L 824 350
L 826 351
L 828 350
L 831 350
L 833 351
L 835 350
L 837 350
L 840 351
L 842 350
L 844 350
L 847 351
L 849 350
L 851 351
L 854 351
L 856 351
L 858 351
L 861 351
L 863 350
L 865 351
L 868 350
L 870 351
L 872 350
L 875 350
L 877 351
L 879 351
L 881 351
L 884 351
L 886 351
L 888 351
L 891 351
L 893 351
L 895 351
L 898 351
L 900 351
L 902 351
L 905 351
L 907 351
L 909 351
L 912 351
L 914 351
L 916 351
L 919 351
L 921 351
L 923 351
L 925 351
L 928 350
L 930 351
L 932 350
L 935 351
L 937 351
L 939 351
L 942 351
L 944 351
L 946 351
L 949 351
L 951 351
L 953 351
L 956 351
L 958 351
L 960 350
L 963 351
L 965 351
L 967 351
L 969 351" style="stroke-width:1;stroke:rgba(217,0,116,1.0);fill:none"/><text x="357" y="33" style="stroke-width:0;stroke:none;fill:rgba(51,51,51,1.0);font-size:23.0px;font-family:'Roboto Medium',sans-serif">Deutschlandsberg 03.04.2021</text><path  d="M 38 11
L 251 11
L 251 91
L 38 91
L 38 11" style="stroke-width:1;stroke:rgba(51,51,51,1.0);fill:rgba(255,255,255,1.0)"/><text x="43" y="26" style="stroke-width:0;stroke:none;fill:rgba(51,51,51,1.0);font-size:10.2px;font-family:'Roboto Medium',sans-serif">Sieben Tage Durschnitt Inzidenz Fälle</text><path  d="M 221 21
L 241 21" style="stroke-width:1;stroke:rgba(0,116,217,1.0);fill:none"/><text x="43" y="56" style="stroke-width:0;stroke:none;fill:rgba(51,51,51,1.0);font-size:10.2px;font-family:'Roboto Medium',sans-serif">Anzahl Faelle</text><path  d="M 110 51
L 241 51" style="stroke-width:1;stroke:rgba(0,217,101,1.0);fill:none"/><text x="43" y="86" style="stroke-width:0;stroke:none;fill:rgba(51,51,51,1.0);font-size:10.2px;font-family:'Roboto Medium',sans-serif">Anzahl Tot</text><path  d="M 98 81
L 241 81" style="stroke-width:1;stroke:rgba(217,0,116,1.0);fill:none"/></svg>