<svg xmlns="http://www.w3.org/2000/svg" xmlns:xlink="http://www.w3.org/1999/xlink" width="1024" height="400">\n<path  d="M 0 0
L 1024 0
L 1024 400
L 0 400
L 0 0" style="stroke-width:0;stroke:rgba(255,255,255,1.0);fill:rgba(255,255,255,1.0)"/><path  d="M 38 11
L 961 11
L 961 351
L 38 351
L 38 11" style="stroke-width:0;stroke:rgba(255,255,255,1.0);fill:rgba(255,255,255,1.0)"/><path  d="M 38 351
L 961 351" style="stroke-width:1;stroke:rgba(51,51,51,1.0);fill:none"/><path  d="M 38 351
L 38 356" style="stroke-width:1;stroke:rgba(51,51,51,1.0);fill:none"/><text x="5" y="373" style="stroke-width:0;stroke:none;fill:rgba(51,51,51,1.0);font-size:12.8px;font-family:'Roboto Medium',sans-serif">2020-02-26</text><path  d="M 154 351
L 154 356" style="stroke-width:1;stroke:rgba(51,51,51,1.0);fill:none"/><text x="121" y="373" style="stroke-width:0;stroke:none;fill:rgba(51,51,51,1.0);font-size:12.8px;font-family:'Roboto Medium',sans-serif">2020-04-25</text><path  d="M 269 351
L 269 356" style="stroke-width:1;stroke:rgba(51,51,51,1.0);fill:none"/><text x="236" y="373" style="stroke-width:0;stroke:none;fill:rgba(51,51,51,1.0);font-size:12.8px;font-family:'Roboto Medium',sans-serif">2020-06-23</text><path  d="M 385 351
L 385 356" style="stroke-width:1;stroke:rgba(51,51,51,1.0);fill:none"/><text x="352" y="373" style="stroke-width:0;stroke:none;fill:rgba(51,51,51,1.0);font-size:12.8px;font-family:'Roboto Medium',sans-serif">2020-08-21</text><path  d="M 500 351
L 500 356" style="stroke-width:1;stroke:rgba(51,51,51,1.0);fill:none"/><text x="467" y="373" style="stroke-width:0;stroke:none;fill:rgba(51,51,51,1.0);font-size:12.8px;font-family:'Roboto Medium',sans-serif">2020-10-19</text><path  d="M 615 351
L 615 356" style="stroke-width:1;stroke:rgba(51,51,51,1.0);fill:none"/><text x="582" y="373" style="stroke-width:0;stroke:none;fill:rgba(51,51,51,1.0);font-size:12.8px;font-family:'Roboto Medium',sans-serif">2020-12-17</text><path  d="M 731 351
L 731 356" style="stroke-width:1;stroke:rgba(51,51,51,1.0);fill:none"/><text x="698" y="373" style="stroke-width:0;stroke:none;fill:rgba(51,51,51,1.0);font-size:12.8px;font-family:'Roboto Medium',sans-serif">2021-02-14</text><path  d="M 846 351
L 846 356" style="stroke-width:1;stroke:rgba(51,51,51,1.0);fill:none"/><text x="813" y="373" style="stroke-width:0;stroke:none;fill:rgba(51,51,51,1.0);font-size:12.8px;font-family:'Roboto Medium',sans-serif">2021-04-14</text><path  d="M 961 351
L 961 356" style="stroke-width:1;stroke:rgba(51,51,51,1.0);fill:none"/><text x="928" y="373" style="stroke-width:0;stroke:none;fill:rgba(51,51,51,1.0);font-size:12.8px;font-family:'Roboto Medium',sans-serif">2021-06-12</text><text x="481" y="395" style="stroke-width:0;stroke:none;fill:rgba(51,51,51,1.0);font-size:12.8px;font-family:'Roboto Medium',sans-serif">Datum</text><path  d="M 962 351
L 962 11" style="stroke-width:1;stroke:rgba(51,51,51,1.0);fill:none"/><path  d="M 962 351
L 967 351" style="stroke-width:1;stroke:rgba(51,51,51,1.0);fill:none"/><text x="972" y="357" style="stroke-width:0;stroke:none;fill:rgba(51,51,51,1.0);font-size:12.8px;font-family:'Roboto Medium',sans-serif">0.00</text><path  d="M 962 307
L 967 307" style="stroke-width:1;stroke:rgba(51,51,51,1.0);fill:none"/><text x="972" y="313" style="stroke-width:0;stroke:none;fill:rgba(51,51,51,1.0);font-size:12.8px;font-family:'Roboto Medium',sans-serif">140.00</text><path  d="M 962 264
L 967 264" style="stroke-width:1;stroke:rgba(51,51,51,1.0);fill:none"/><text x="972" y="270" style="stroke-width:0;stroke:none;fill:rgba(51,51,51,1.0);font-size:12.8px;font-family:'Roboto Medium',sans-serif">280.00</text><path  d="M 962 221
L 967 221" style="stroke-width:1;stroke:rgba(51,51,51,1.0);fill:none"/><text x="972" y="227" style="stroke-width:0;stroke:none;fill:rgba(51,51,51,1.0);font-size:12.8px;font-family:'Roboto Medium',sans-serif">420.00</text><path  d="M 962 181
L 967 181" style="stroke-width:1;stroke:rgba(51,51,51,1.0);fill:none"/><text x="972" y="187" style="stroke-width:0;stroke:none;fill:rgba(51,51,51,1.0);font-size:12.8px;font-family:'Roboto Medium',sans-serif">550.00</text><path  d="M 962 137
L 967 137" style="stroke-width:1;stroke:rgba(51,51,51,1.0);fill:none"/><text x="972" y="143" style="stroke-width:0;stroke:none;fill:rgba(51,51,51,1.0);font-size:12.8px;font-family:'Roboto Medium',sans-serif">690.00</text><path  d="M 962 94
L 967 94" style="stroke-width:1;stroke:rgba(51,51,51,1.0);fill:none"/><text x="972" y="100" style="stroke-width:0;stroke:none;fill:rgba(51,51,51,1.0);font-size:12.8px;font-family:'Roboto Medium',sans-serif">830.00</text><path  d="M 962 51
L 967 51" style="stroke-width:1;stroke:rgba(51,51,51,1.0);fill:none"/><text x="972" y="57" style="stroke-width:0;stroke:none;fill:rgba(51,51,51,1.0);font-size:12.8px;font-family:'Roboto Medium',sans-serif">970.00</text><path  d="M 962 11
L 967 11" style="stroke-width:1;stroke:rgba(51,51,51,1.0);fill:none"/><text x="972" y="17" style="stroke-width:0;stroke:none;fill:rgba(51,51,51,1.0);font-size:12.8px;font-family:'Roboto Medium',sans-serif">1100.00</text><path  d="M 38 351
L 40 351
L 42 351
L 44 351
L 46 351
L 48 351
L 50 351
L 52 351
L 54 351
L 56 351
L 58 351
L 60 350
L 62 350
L 64 350
L 66 349
L 68 349
L 70 349
L 72 347
L 74 347
L 76 346
L 78 345
L 80 346
L 82 344
L 83 343
L 85 342
L 87 341
L 89 337
L 91 334
L 93 333
L 95 331
L 97 328
L 99 327
L 101 329
L 103 331
L 105 332
L 107 332
L 109 335
L 111 338
L 113 342
L 115 342
L 117 343
L 119 346
L 121 346
L 123 347
L 125 346
L 126 346
L 128 345
L 130 346
L 132 346
L 134 347
L 136 347
L 138 347
L 140 347
L 142 347
L 144 347
L 146 347
L 148 348
L 150 348
L 152 348
L 154 349
L 156 349
L 158 350
L 160 350
L 162 350
L 164 351
L 166 351
L 168 351
L 170 351
L 171 351
L 173 351
L 175 351
L 177 351
L 179 351
L 181 351
L 183 351
L 185 351
L 187 351
L 189 351
L 191 351
L 193 350
L 195 350
L 197 350
L 199 350
L 201 350
L 203 350
L 205 350
L 207 351
L 209 351
L 211 351
L 213 351
L 214 351
L 216 351
L 218 351
L 220 351
L 222 351
L 224 351
L 226 351
L 228 351
L 230 351
L 232 351
L 234 350
L 236 350
L 238 350
L 240 350
L 242 349
L 244 349
L 246 349
L 248 350
L 250 350
L 252 350
L 254 350
L 256 351
L 258 351
L 259 350
L 261 350
L 263 350
L 265 350
L 267 350
L 269 350
L 271 350
L 273 350
L 275 350
L 277 350
L 279 350
L 281 350
L 283 350
L 285 351
L 287 351
L 289 351
L 291 351
L 293 351
L 295 351
L 297 351
L 299 351
L 301 351
L 302 351
L 304 351
L 306 350
L 308 350
L 310 350
L 312 350
L 314 350
L 316 350
L 318 350
L 320 351
L 322 351
L 324 351
L 326 350
L 328 350
L 330 349
L 332 349
L 334 349
L 336 349
L 338 349
L 340 349
L 342 349
L 344 349
L 346 349
L 347 349
L 349 350
L 351 349
L 353 350
L 355 349
L 357 349
L 359 349
L 361 349
L 363 348
L 365 348
L 367 349
L 369 349
L 371 349
L 373 349
L 375 350
L 377 350
L 379 351
L 381 350
L 383 349
L 385 349
L 387 349
L 389 349
L 390 348
L 392 348
L 394 348
L 396 348
L 398 348
L 400 348
L 402 347
L 404 346
L 406 345
L 408 345
L 410 343
L 412 343
L 414 341
L 416 341
L 418 339
L 420 338
L 422 336
L 424 333
L 426 324
L 428 323
L 430 321
L 432 318
L 434 317
L 435 313
L 437 316
L 439 321
L 441 317
L 443 316
L 445 321
L 447 322
L 449 326
L 451 328
L 453 331
L 455 336
L 457 338
L 459 337
L 461 337
L 463 338
L 465 335
L 467 334
L 469 334
L 471 334
L 473 333
L 475 333
L 477 331
L 478 333
L 480 333
L 482 332
L 484 328
L 486 328
L 488 328
L 490 323
L 492 318
L 494 315
L 496 310
L 498 302
L 500 299
L 502 295
L 504 286
L 506 275
L 508 255
L 510 229
L 512 235
L 514 219
L 516 190
L 518 185
L 520 168
L 522 148
L 523 151
L 525 116
L 527 100
L 529 87
L 531 67
L 533 74
L 535 71
L 537 56
L 539 68
L 541 69
L 543 64
L 545 73
L 547 30
L 549 48
L 551 56
L 553 65
L 555 84
L 557 113
L 559 99
L 561 146
L 563 147
L 565 159
L 566 172
L 568 183
L 570 195
L 572 227
L 574 240
L 576 259
L 578 277
L 580 278
L 582 280
L 584 281
L 586 288
L 588 289
L 590 290
L 592 277
L 594 269
L 596 263
L 598 265
L 600 263
L 602 264
L 604 268
L 606 273
L 608 279
L 610 287
L 611 278
L 613 280
L 615 279
L 617 277
L 619 282
L 621 289
L 623 286
L 625 294
L 627 287
L 629 291
L 631 293
L 633 297
L 635 290
L 637 290
L 639 275
L 641 271
L 643 269
L 645 265
L 647 268
L 649 264
L 651 258
L 653 275
L 654 283
L 656 284
L 658 292
L 660 285
L 662 295
L 664 305
L 666 307
L 668 309
L 670 313
L 672 310
L 674 313
L 676 312
L 678 310
L 680 308
L 682 309
L 684 291
L 686 289
L 688 288
L 690 289
L 692 289
L 694 293
L 696 292
L 698 307
L 699 308
L 701 309
L 703 306
L 705 305
L 707 302
L 709 302
L 711 303
L 713 302
L 715 303
L 717 307
L 719 308
L 721 312
L 723 316
L 725 320
L 727 323
L 729 322
L 731 321
L 733 325
L 735 322
L 737 323
L 739 324
L 741 325
L 742 326
L 744 331
L 746 329
L 748 329
L 750 327
L 752 323
L 754 324
L 756 324
L 758 325
L 760 324
L 762 325
L 764 326
L 766 329
L 768 330
L 770 330
L 772 330
L 774 329
L 776 331
L 778 332
L 780 331
L 782 333
L 784 333
L 786 333
L 787 335
L 789 335
L 791 335
L 793 337
L 795 337
L 797 339
L 799 339
L 801 336
L 803 335
L 805 330
L 807 328
L 809 319
L 811 315
L 813 313
L 815 310
L 817 303
L 819 302
L 821 299
L 823 297
L 825 294
L 827 295
L 829 300
L 830 299
L 832 299
L 834 298
L 836 302
L 838 303
L 840 302
L 842 294
L 844 301
L 846 301
L 848 302
L 850 305
L 852 305
L 854 298
L 856 301
L 858 295
L 860 297
L 862 287
L 864 278
L 866 269
L 868 271
L 870 271
L 872 267
L 874 265
L 875 267
L 877 272
L 879 279
L 881 283
L 883 282
L 885 287
L 887 287
L 889 290
L 891 285
L 893 287
L 895 289
L 897 292
L 899 292
L 901 298
L 903 304
L 905 314
L 907 316
L 909 318
L 911 319
L 913 325
L 915 326
L 917 325
L 918 328
L 920 328
L 922 324
L 924 325
L 926 323
L 928 319
L 930 317
L 932 314
L 934 316
L 936 315
L 938 313
L 940 314
L 942 319
L 944 325
L 946 328
L 948 327
L 950 334
L 952 337
L 954 337
L 956 338
L 958 338
L 960 337
L 961 340" style="stroke-width:1;stroke:rgba(0,116,217,1.0);fill:none"/><path  d="M 38 351
L 40 351
L 42 351
L 44 351
L 46 351
L 48 351
L 50 351
L 52 351
L 54 351
L 56 351
L 58 351
L 60 350
L 62 350
L 64 351
L 66 350
L 68 350
L 70 351
L 72 349
L 74 350
L 76 350
L 78 350
L 80 350
L 82 349
L 83 350
L 85 348
L 87 349
L 89 346
L 91 346
L 93 349
L 95 347
L 97 347
L 99 348
L 101 350
L 103 349
L 105 347
L 107 350
L 109 350
L 111 350
L 113 351
L 115 351
L 117 349
L 119 350
L 121 350
L 123 351
L 125 350
L 126 350
L 128 350
L 130 350
L 132 350
L 134 350
L 136 351
L 138 350
L 140 350
L 142 351
L 144 350
L 146 351
L 148 351
L 150 350
L 152 351
L 154 351
L 156 351
L 158 351
L 160 351
L 162 351
L 164 351
L 166 351
L 168 351
L 170 351
L 171 351
L 173 351
L 175 351
L 177 351
L 179 351
L 181 351
L 183 351
L 185 351
L 187 351
L 189 351
L 191 351
L 193 350
L 195 351
L 197 351
L 199 351
L 201 351
L 203 351
L 205 351
L 207 351
L 209 351
L 211 351
L 213 351
L 214 351
L 216 351
L 218 351
L 220 351
L 222 351
L 224 351
L 226 351
L 228 351
L 230 351
L 232 351
L 234 350
L 236 351
L 238 350
L 240 351
L 242 350
L 244 351
L 246 351
L 248 351
L 250 351
L 252 351
L 254 351
L 256 351
L 258 351
L 259 350
L 261 351
L 263 351
L 265 351
L 267 351
L 269 351
L 271 350
L 273 351
L 275 351
L 277 351
L 279 351
L 281 351
L 283 351
L 285 351
L 287 351
L 289 351
L 291 351
L 293 351
L 295 351
L 297 351
L 299 351
L 301 351
L 302 351
L 304 351
L 306 350
L 308 351
L 310 351
L 312 351
L 314 351
L 316 351
L 318 351
L 320 351
L 322 351
L 324 351
L 326 350
L 328 351
L 330 350
L 332 351
L 334 351
L 336 350
L 338 351
L 340 350
L 342 351
L 344 351
L 346 351
L 347 351
L 349 351
L 351 350
L 353 350
L 355 350
L 357 351
L 359 351
L 361 350
L 363 350
L 365 350
L 367 351
L 369 351
L 371 351
L 373 351
L 375 351
L 377 351
L 379 351
L 381 350
L 383 350
L 385 350
L 387 351
L 389 351
L 390 350
L 392 351
L 394 350
L 396 350
L 398 350
L 400 351
L 402 349
L 404 349
L 406 350
L 408 350
L 410 348
L 412 350
L 414 349
L 416 349
L 418 347
L 420 349
L 422 348
L 424 346
L 426 342
L 428 348
L 430 348
L 432 344
L 434 348
L 435 344
L 437 349
L 439 346
L 441 345
L 443 347
L 445 349
L 447 348
L 449 348
L 451 350
L 453 348
L 455 349
L 457 350
L 459 347
L 461 349
L 463 349
L 465 346
L 467 347
L 469 350
L 471 349
L 473 347
L 475 349
L 477 347
L 478 348
L 480 347
L 482 349
L 484 346
L 486 347
L 488 349
L 490 343
L 492 343
L 494 344
L 496 344
L 498 339
L 500 344
L 502 346
L 504 334
L 506 334
L 508 326
L 510 321
L 512 344
L 514 330
L 516 320
L 518 330
L 520 318
L 522 308
L 523 325
L 525 312
L 527 316
L 529 308
L 531 312
L 533 325
L 535 305
L 537 312
L 539 322
L 541 317
L 543 304
L 545 320
L 547 286
L 549 321
L 551 319
L 553 330
L 555 334
L 557 330
L 559 308
L 561 327
L 563 322
L 565 330
L 566 342
L 568 344
L 570 340
L 572 337
L 574 339
L 576 339
L 578 346
L 580 343
L 582 345
L 584 341
L 586 343
L 588 340
L 590 340
L 592 334
L 594 336
L 596 340
L 598 343
L 600 341
L 602 342
L 604 344
L 606 338
L 608 342
L 610 347
L 611 335
L 613 343
L 615 340
L 617 342
L 619 343
L 621 347
L 623 344
L 625 343
L 627 336
L 629 344
L 631 344
L 633 346
L 635 341
L 637 344
L 639 329
L 641 333
L 643 343
L 645 340
L 647 349
L 649 338
L 651 339
L 653 344
L 654 341
L 656 343
L 658 347
L 660 343
L 662 346
L 664 348
L 666 346
L 668 343
L 670 346
L 672 345
L 674 346
L 676 346
L 678 346
L 680 344
L 682 344
L 684 330
L 686 343
L 688 345
L 690 346
L 692 346
L 694 347
L 696 344
L 698 343
L 699 344
L 701 346
L 703 343
L 705 345
L 707 344
L 709 343
L 711 345
L 713 343
L 715 346
L 717 347
L 719 346
L 721 348
L 723 348
L 725 348
L 727 345
L 729 346
L 731 346
L 733 350
L 735 346
L 737 348
L 739 349
L 741 346
L 742 347
L 744 350
L 746 349
L 748 346
L 750 346
L 752 345
L 754 347
L 756 348
L 758 350
L 760 348
L 762 346
L 764 348
L 766 348
L 768 347
L 770 348
L 772 349
L 774 347
L 776 349
L 778 348
L 780 347
L 782 349
L 784 348
L 786 349
L 787 349
L 789 349
L 791 348
L 793 349
L 795 350
L 797 350
L 799 348
L 801 346
L 803 348
L 805 343
L 807 348
L 809 342
L 811 347
L 813 346
L 815 344
L 817 342
L 819 342
L 821 345
L 823 339
L 825 344
L 827 347
L 829 349
L 830 340
L 832 342
L 834 345
L 836 343
L 838 345
L 840 346
L 842 342
L 844 346
L 846 342
L 848 346
L 850 346
L 852 345
L 854 339
L 856 345
L 858 341
L 860 343
L 862 337
L 864 338
L 866 337
L 868 342
L 870 345
L 872 338
L 874 342
L 875 338
L 877 342
L 879 343
L 881 345
L 883 343
L 885 342
L 887 342
L 889 341
L 891 338
L 893 345
L 895 347
L 897 346
L 899 342
L 901 347
L 903 346
L 905 347
L 907 347
L 909 349
L 911 348
L 913 347
L 915 348
L 917 346
L 918 349
L 920 347
L 922 345
L 924 348
L 926 345
L 928 344
L 930 345
L 932 346
L 934 349
L 936 344
L 938 346
L 940 346
L 942 349
L 944 350
L 946 350
L 948 348
L 950 350
L 952 349
L 954 346
L 956 350
L 958 350
L 960 349
L 961 350" style="stroke-width:1;stroke:rgba(0,217,101,1.0);fill:none"/><path  d="M 38 351
L 40 351
L 42 351
L 44 351
L 46 351
L 48 351
L 50 351
L 52 351
L 54 351
L 56 351
L 58 351
L 60 351
L 62 351
L 64 351
L 66 351
L 68 351
L 70 351
L 72 351
L 74 351
L 76 351
L 78 351
L 80 351
L 82 351
L 83 351
L 85 351
L 87 351
L 89 351
L 91 351
L 93 351
L 95 350
L 97 351
L 99 351
L 101 351
L 103 351
L 105 350
L 107 351
L 109 351
L 111 350
L 113 351
L 115 351
L 117 351
L 119 351
L 121 351
L 123 351
L 125 351
L 126 351
L 128 351
L 130 351
L 132 351
L 134 351
L 136 351
L 138 351
L 140 351
L 142 351
L 144 351
L 146 351
L 148 351
L 150 351
L 152 351
L 154 350
L 156 351
L 158 351
L 160 351
L 162 351
L 164 351
L 166 351
L 168 351
L 170 351
L 171 351
L 173 351
L 175 351
L 177 351
L 179 351
L 181 351
L 183 351
L 185 351
L 187 351
L 189 351
L 191 351
L 193 351
L 195 351
L 197 351
L 199 351
L 201 351
L 203 351
L 205 351
L 207 351
L 209 351
L 211 351
L 213 351
L 214 351
L 216 351
L 218 351
L 220 351
L 222 351
L 224 351
L 226 351
L 228 351
L 230 351
L 232 351
L 234 351
L 236 351
L 238 351
L 240 351
L 242 351
L 244 351
L 246 351
L 248 351
L 250 351
L 252 351
L 254 351
L 256 351
L 258 351
L 259 351
L 261 351
L 263 351
L 265 351
L 267 351
L 269 351
L 271 351
L 273 351
L 275 351
L 277 351
L 279 351
L 281 351
L 283 351
L 285 351
L 287 351
L 289 351
L 291 351
L 293 351
L 295 351
L 297 351
L 299 351
L 301 351
L 302 351
L 304 351
L 306 351
L 308 351
L 310 351
L 312 351
L 314 351
L 316 351
L 318 351
L 320 351
L 322 351
L 324 351
L 326 351
L 328 351
L 330 351
L 332 351
L 334 351
L 336 351
L 338 351
L 340 351
L 342 351
L 344 351
L 346 351
L 347 351
L 349 351
L 351 351
L 353 351
L 355 351
L 357 351
L 359 351
L 361 351
L 363 351
L 365 351
L 367 351
L 369 351
L 371 351
L 373 351
L 375 351
L 377 351
L 379 351
L 381 351
L 383 351
L 385 351
L 387 351
L 389 351
L 390 351
L 392 351
L 394 351
L 396 351
L 398 351
L 400 351
L 402 351
L 404 351
L 406 351
L 408 351
L 410 351
L 412 351
L 414 351
L 416 351
L 418 351
L 420 351
L 422 351
L 424 351
L 426 351
L 428 351
L 430 351
L 432 351
L 434 351
L 435 351
L 437 351
L 439 351
L 441 351
L 443 351
L 445 351
L 447 351
L 449 351
L 451 351
L 453 351
L 455 351
L 457 350
L 459 351
L 461 351
L 463 351
L 465 351
L 467 351
L 469 351
L 471 351
L 473 351
L 475 351
L 477 351
L 478 351
L 480 351
L 482 350
L 484 351
L 486 351
L 488 351
L 490 351
L 492 351
L 494 351
L 496 351
L 498 351
L 500 351
L 502 351
L 504 351
L 506 351
L 508 351
L 510 351
L 512 351
L 514 351
L 516 350
L 518 351
L 520 351
L 522 350
L 523 350
L 525 351
L 527 350
L 529 350
L 531 350
L 533 351
L 535 350
L 537 351
L 539 350
L 541 351
L 543 350
L 545 351
L 547 350
L 549 351
L 551 351
L 553 350
L 555 350
L 557 350
L 559 351
L 561 350
L 563 350
L 565 351
L 566 351
L 568 351
L 570 350
L 572 351
L 574 351
L 576 350
L 578 350
L 580 351
L 582 351
L 584 351
L 586 351
L 588 350
L 590 351
L 592 350
L 594 350
L 596 351
L 598 351
L 600 351
L 602 350
L 604 351
L 606 351
L 608 350
L 610 351
L 611 351
L 613 351
L 615 350
L 617 351
L 619 350
L 621 350
L 623 350
L 625 350
L 627 350
L 629 351
L 631 351
L 633 350
L 635 350
L 637 350
L 639 350
L 641 351
L 643 351
L 645 350
L 647 351
L 649 351
L 651 351
L 653 351
L 654 351
L 656 351
L 658 350
L 660 351
L 662 351
L 664 351
L 666 351
L 668 350
L 670 351
L 672 351
L 674 351
L 676 351
L 678 351
L 680 351
L 682 351
L 684 350
L 686 351
L 688 351
L 690 351
L 692 351
L 694 350
L 696 351
L 698 351
L 699 351
L 701 351
L 703 350
L 705 350
L 707 351
L 709 351
L 711 350
L 713 351
L 715 350
L 717 351
L 719 351
L 721 351
L 723 351
L 725 351
L 727 351
L 729 351
L 731 351
L 733 351
L 735 351
L 737 351
L 739 351
L 741 351
L 742 351
L 744 351
L 746 351
L 748 350
L 750 351
L 752 351
L 754 350
L 756 350
L 758 351
L 760 351
L 762 351
L 764 350
L 766 351
L 768 351
L 770 351
L 772 350
L 774 351
L 776 351
L 778 351
L 780 351
L 782 351
L 784 351
L 786 351
L 787 351
L 789 351
L 791 351
L 793 351
L 795 351
L 797 351
L 799 351
L 801 351
L 803 351
L 805 351
L 807 351
L 809 351
L 811 351
L 813 351
L 815 351
L 817 351
L 819 351
L 821 351
L 823 351
L 825 351
L 827 351
L 829 351
L 830 351
L 832 350
L 834 351
L 836 350
L 838 351
L 840 351
L 842 351
L 844 351
L 846 351
L 848 351
L 850 351
L 852 351
L 854 350
L 856 351
L 858 351
L 860 351
L 862 351
L 864 351
L 866 350
L 868 351
L 870 351
L 872 351
L 874 350
L 875 351
L 877 351
L 879 351
L 881 351
L 883 351
L 885 351
L 887 351
L 889 351
L 891 351
L 893 351
L 895 350
L 897 350
L 899 351
L 901 351
L 903 351
L 905 351
L 907 351
L 909 351
L 911 351
L 913 351
L 915 351
L 917 351
L 918 351
L 920 351
L 922 350
L 924 351
L 926 351
L 928 351
L 930 351
L 932 351
L 934 351
L 936 351
L 938 351
L 940 351
L 942 351
L 944 351
L 946 351
L 948 351
L 950 351
L 952 351
L 954 351
L 956 351
L 958 351
L 960 351
L 961 351" style="stroke-width:1;stroke:rgba(217,0,116,1.0);fill:none"/><text x="406" y="33" style="stroke-width:0;stroke:none;fill:rgba(51,51,51,1.0);font-size:23.0px;font-family:'Roboto Medium',sans-serif">Dornbirn 12.06.2021</text><path  d="M 38 11
L 251 11
L 251 91
L 38 91
L 38 11" style="stroke-width:1;stroke:rgba(51,51,51,1.0);fill:rgba(255,255,255,1.0)"/><text x="43" y="26" style="stroke-width:0;stroke:none;fill:rgba(51,51,51,1.0);font-size:10.2px;font-family:'Roboto Medium',sans-serif">Sieben Tage Durschnitt Inzidenz Fälle</text><path  d="M 221 21
L 241 21" style="stroke-width:1;stroke:rgba(0,116,217,1.0);fill:none"/><text x="43" y="56" style="stroke-width:0;stroke:none;fill:rgba(51,51,51,1.0);font-size:10.2px;font-family:'Roboto Medium',sans-serif">Anzahl Faelle</text><path  d="M 110 51
L 241 51" style="stroke-width:1;stroke:rgba(0,217,101,1.0);fill:none"/><text x="43" y="86" style="stroke-width:0;stroke:none;fill:rgba(51,51,51,1.0);font-size:10.2px;font-family:'Roboto Medium',sans-serif">Anzahl Tot</text><path  d="M 98 81
L 241 81" style="stroke-width:1;stroke:rgba(217,0,116,1.0);fill:none"/></svg>