<svg xmlns="http://www.w3.org/2000/svg" xmlns:xlink="http://www.w3.org/1999/xlink" width="1024" height="400">\n<path  d="M 0 0
L 1024 0
L 1024 400
L 0 400
L 0 0" style="stroke-width:0;stroke:rgba(255,255,255,1.0);fill:rgba(255,255,255,1.0)"/><path  d="M 38 11
L 969 11
L 969 351
L 38 351
L 38 11" style="stroke-width:0;stroke:rgba(255,255,255,1.0);fill:rgba(255,255,255,1.0)"/><path  d="M 38 351
L 969 351" style="stroke-width:1;stroke:rgba(51,51,51,1.0);fill:none"/><path  d="M 38 351
L 38 356" style="stroke-width:1;stroke:rgba(51,51,51,1.0);fill:none"/><text x="5" y="373" style="stroke-width:0;stroke:none;fill:rgba(51,51,51,1.0);font-size:12.8px;font-family:'Roboto Medium',sans-serif">2020-02-26</text><path  d="M 155 351
L 155 356" style="stroke-width:1;stroke:rgba(51,51,51,1.0);fill:none"/><text x="122" y="373" style="stroke-width:0;stroke:none;fill:rgba(51,51,51,1.0);font-size:12.8px;font-family:'Roboto Medium',sans-serif">2020-05-09</text><path  d="M 271 351
L 271 356" style="stroke-width:1;stroke:rgba(51,51,51,1.0);fill:none"/><text x="238" y="373" style="stroke-width:0;stroke:none;fill:rgba(51,51,51,1.0);font-size:12.8px;font-family:'Roboto Medium',sans-serif">2020-07-22</text><path  d="M 388 351
L 388 356" style="stroke-width:1;stroke:rgba(51,51,51,1.0);fill:none"/><text x="355" y="373" style="stroke-width:0;stroke:none;fill:rgba(51,51,51,1.0);font-size:12.8px;font-family:'Roboto Medium',sans-serif">2020-10-03</text><path  d="M 504 351
L 504 356" style="stroke-width:1;stroke:rgba(51,51,51,1.0);fill:none"/><text x="471" y="373" style="stroke-width:0;stroke:none;fill:rgba(51,51,51,1.0);font-size:12.8px;font-family:'Roboto Medium',sans-serif">2020-12-16</text><path  d="M 620 351
L 620 356" style="stroke-width:1;stroke:rgba(51,51,51,1.0);fill:none"/><text x="587" y="373" style="stroke-width:0;stroke:none;fill:rgba(51,51,51,1.0);font-size:12.8px;font-family:'Roboto Medium',sans-serif">2021-02-28</text><path  d="M 737 351
L 737 356" style="stroke-width:1;stroke:rgba(51,51,51,1.0);fill:none"/><text x="704" y="373" style="stroke-width:0;stroke:none;fill:rgba(51,51,51,1.0);font-size:12.8px;font-family:'Roboto Medium',sans-serif">2021-05-12</text><path  d="M 853 351
L 853 356" style="stroke-width:1;stroke:rgba(51,51,51,1.0);fill:none"/><text x="820" y="373" style="stroke-width:0;stroke:none;fill:rgba(51,51,51,1.0);font-size:12.8px;font-family:'Roboto Medium',sans-serif">2021-07-25</text><path  d="M 969 351
L 969 356" style="stroke-width:1;stroke:rgba(51,51,51,1.0);fill:none"/><text x="936" y="373" style="stroke-width:0;stroke:none;fill:rgba(51,51,51,1.0);font-size:12.8px;font-family:'Roboto Medium',sans-serif">2021-10-07</text><text x="485" y="395" style="stroke-width:0;stroke:none;fill:rgba(51,51,51,1.0);font-size:12.8px;font-family:'Roboto Medium',sans-serif">Datum</text><path  d="M 970 351
L 970 11" style="stroke-width:1;stroke:rgba(51,51,51,1.0);fill:none"/><path  d="M 970 351
L 975 351" style="stroke-width:1;stroke:rgba(51,51,51,1.0);fill:none"/><text x="980" y="357" style="stroke-width:0;stroke:none;fill:rgba(51,51,51,1.0);font-size:12.8px;font-family:'Roboto Medium',sans-serif">0.00</text><path  d="M 970 308
L 975 308" style="stroke-width:1;stroke:rgba(51,51,51,1.0);fill:none"/><text x="980" y="314" style="stroke-width:0;stroke:none;fill:rgba(51,51,51,1.0);font-size:12.8px;font-family:'Roboto Medium',sans-serif">88.00</text><path  d="M 970 266
L 975 266" style="stroke-width:1;stroke:rgba(51,51,51,1.0);fill:none"/><text x="980" y="272" style="stroke-width:0;stroke:none;fill:rgba(51,51,51,1.0);font-size:12.8px;font-family:'Roboto Medium',sans-serif">175.00</text><path  d="M 970 223
L 975 223" style="stroke-width:1;stroke:rgba(51,51,51,1.0);fill:none"/><text x="980" y="229" style="stroke-width:0;stroke:none;fill:rgba(51,51,51,1.0);font-size:12.8px;font-family:'Roboto Medium',sans-serif">263.00</text><path  d="M 970 181
L 975 181" style="stroke-width:1;stroke:rgba(51,51,51,1.0);fill:none"/><text x="980" y="187" style="stroke-width:0;stroke:none;fill:rgba(51,51,51,1.0);font-size:12.8px;font-family:'Roboto Medium',sans-serif">350.00</text><path  d="M 970 138
L 975 138" style="stroke-width:1;stroke:rgba(51,51,51,1.0);fill:none"/><text x="980" y="144" style="stroke-width:0;stroke:none;fill:rgba(51,51,51,1.0);font-size:12.8px;font-family:'Roboto Medium',sans-serif">438.00</text><path  d="M 970 96
L 975 96" style="stroke-width:1;stroke:rgba(51,51,51,1.0);fill:none"/><text x="980" y="102" style="stroke-width:0;stroke:none;fill:rgba(51,51,51,1.0);font-size:12.8px;font-family:'Roboto Medium',sans-serif">525.00</text><path  d="M 970 53
L 975 53" style="stroke-width:1;stroke:rgba(51,51,51,1.0);fill:none"/><text x="980" y="59" style="stroke-width:0;stroke:none;fill:rgba(51,51,51,1.0);font-size:12.8px;font-family:'Roboto Medium',sans-serif">613.00</text><path  d="M 970 11
L 975 11" style="stroke-width:1;stroke:rgba(51,51,51,1.0);fill:none"/><text x="980" y="17" style="stroke-width:0;stroke:none;fill:rgba(51,51,51,1.0);font-size:12.8px;font-family:'Roboto Medium',sans-serif">700.00</text><path  d="M 38 351
L 40 351
L 42 351
L 43 351
L 45 351
L 46 351
L 48 351
L 50 351
L 51 351
L 53 351
L 54 351
L 56 351
L 57 351
L 59 351
L 61 351
L 62 351
L 64 351
L 65 351
L 67 351
L 69 351
L 70 351
L 72 351
L 73 351
L 75 351
L 76 347
L 78 341
L 80 328
L 81 328
L 83 328
L 84 324
L 86 321
L 87 321
L 89 328
L 91 337
L 92 337
L 94 337
L 95 337
L 97 341
L 99 344
L 100 344
L 102 344
L 103 344
L 105 344
L 106 347
L 108 347
L 110 344
L 111 344
L 113 347
L 114 347
L 116 347
L 118 347
L 119 347
L 121 347
L 122 347
L 124 347
L 125 347
L 127 347
L 129 347
L 130 347
L 132 351
L 133 351
L 135 351
L 136 351
L 138 351
L 140 351
L 141 351
L 143 351
L 144 351
L 146 351
L 148 351
L 149 351
L 151 351
L 152 351
L 154 351
L 155 351
L 157 351
L 159 351
L 160 351
L 162 351
L 163 347
L 165 347
L 167 344
L 168 344
L 170 344
L 171 344
L 173 341
L 174 344
L 176 344
L 178 347
L 179 347
L 181 347
L 182 347
L 184 351
L 185 351
L 187 351
L 189 351
L 190 351
L 192 351
L 193 351
L 195 351
L 197 351
L 198 351
L 200 351
L 201 351
L 203 351
L 204 351
L 206 351
L 208 351
L 209 351
L 211 351
L 212 351
L 214 351
L 216 351
L 217 351
L 219 351
L 220 351
L 222 351
L 223 351
L 225 351
L 227 351
L 228 351
L 230 351
L 231 351
L 233 351
L 234 351
L 236 351
L 238 351
L 239 351
L 241 351
L 242 351
L 244 351
L 246 351
L 247 351
L 249 351
L 250 351
L 252 351
L 253 351
L 255 351
L 257 351
L 258 351
L 260 351
L 261 351
L 263 351
L 265 351
L 266 351
L 268 351
L 269 351
L 271 351
L 272 351
L 274 351
L 276 351
L 277 351
L 279 351
L 280 351
L 282 351
L 283 351
L 285 351
L 287 351
L 288 351
L 290 351
L 291 351
L 293 351
L 295 351
L 296 347
L 298 347
L 299 347
L 301 347
L 302 347
L 304 347
L 306 347
L 307 351
L 309 351
L 310 351
L 312 351
L 314 351
L 315 351
L 317 351
L 318 347
L 320 344
L 321 344
L 323 344
L 325 337
L 326 331
L 328 331
L 329 334
L 331 337
L 332 337
L 334 334
L 336 341
L 337 341
L 339 341
L 340 334
L 342 334
L 344 334
L 345 337
L 347 334
L 348 341
L 350 337
L 351 344
L 353 341
L 355 331
L 356 331
L 358 334
L 359 328
L 361 331
L 363 328
L 364 331
L 366 337
L 367 337
L 369 337
L 370 344
L 372 344
L 374 347
L 375 347
L 377 351
L 378 351
L 380 351
L 381 351
L 383 351
L 385 347
L 386 347
L 388 347
L 389 344
L 391 344
L 393 341
L 394 341
L 396 344
L 397 344
L 399 344
L 400 344
L 402 341
L 404 337
L 405 337
L 407 337
L 408 334
L 410 334
L 412 334
L 413 331
L 415 324
L 416 318
L 418 302
L 419 295
L 421 292
L 423 285
L 424 275
L 426 259
L 427 227
L 429 233
L 430 129
L 432 50
L 434 41
L 435 28
L 437 28
L 438 37
L 440 11
L 442 93
L 443 142
L 445 132
L 446 112
L 448 112
L 449 116
L 451 135
L 453 119
L 454 139
L 456 158
L 457 171
L 459 178
L 461 197
L 462 178
L 464 204
L 465 204
L 467 207
L 468 236
L 470 210
L 472 207
L 473 233
L 475 246
L 476 249
L 478 246
L 479 249
L 481 262
L 483 253
L 484 197
L 486 197
L 487 194
L 489 187
L 491 184
L 492 214
L 494 223
L 495 289
L 497 298
L 498 311
L 500 318
L 502 318
L 503 321
L 505 324
L 506 321
L 508 311
L 510 292
L 511 289
L 513 282
L 514 275
L 516 256
L 517 220
L 519 217
L 521 197
L 522 184
L 524 181
L 525 181
L 527 187
L 528 220
L 530 204
L 532 230
L 533 256
L 535 266
L 536 269
L 538 279
L 540 282
L 541 298
L 543 308
L 544 302
L 546 305
L 547 302
L 549 302
L 551 302
L 552 308
L 554 302
L 555 302
L 557 302
L 559 308
L 560 318
L 562 318
L 563 305
L 565 315
L 566 321
L 568 318
L 570 321
L 571 318
L 573 321
L 574 341
L 576 341
L 577 341
L 579 344
L 581 337
L 582 337
L 584 337
L 585 337
L 587 337
L 589 328
L 590 328
L 592 334
L 593 328
L 595 321
L 596 311
L 598 298
L 600 298
L 601 295
L 603 282
L 604 289
L 606 289
L 608 298
L 609 308
L 611 311
L 612 318
L 614 318
L 615 305
L 617 311
L 619 311
L 620 289
L 622 292
L 623 269
L 625 266
L 626 233
L 628 197
L 630 178
L 631 184
L 633 178
L 634 152
L 636 93
L 638 96
L 639 109
L 641 122
L 642 122
L 644 119
L 645 148
L 647 132
L 649 165
L 650 165
L 652 155
L 653 158
L 655 145
L 657 142
L 658 214
L 660 214
L 661 227
L 663 236
L 664 240
L 666 256
L 668 275
L 669 262
L 671 236
L 672 230
L 674 207
L 675 214
L 677 217
L 679 178
L 680 204
L 682 233
L 683 246
L 685 269
L 687 272
L 688 253
L 690 275
L 691 272
L 693 269
L 694 272
L 696 272
L 698 272
L 699 285
L 701 295
L 702 292
L 704 302
L 706 302
L 707 308
L 709 308
L 710 318
L 712 321
L 713 334
L 715 337
L 717 328
L 718 321
L 720 321
L 721 324
L 723 321
L 724 318
L 726 315
L 728 324
L 729 331
L 731 331
L 732 321
L 734 328
L 736 331
L 737 324
L 739 324
L 740 324
L 742 328
L 743 337
L 745 337
L 747 337
L 748 344
L 750 344
L 751 341
L 753 337
L 755 334
L 756 334
L 758 334
L 759 337
L 761 337
L 762 341
L 764 344
L 766 347
L 767 347
L 769 347
L 770 344
L 772 344
L 773 344
L 775 344
L 777 344
L 778 347
L 780 347
L 781 351
L 783 351
L 785 351
L 786 351
L 788 351
L 789 351
L 791 351
L 792 351
L 794 351
L 796 351
L 797 351
L 799 351
L 800 351
L 802 351
L 804 351
L 805 351
L 807 351
L 808 351
L 810 351
L 811 351
L 813 351
L 815 351
L 816 347
L 818 347
L 819 347
L 821 347
L 822 344
L 824 344
L 826 341
L 827 344
L 829 344
L 830 344
L 832 344
L 834 344
L 835 344
L 837 347
L 838 344
L 840 344
L 841 344
L 843 344
L 845 347
L 846 347
L 848 344
L 849 347
L 851 347
L 853 347
L 854 347
L 856 344
L 857 344
L 859 347
L 860 347
L 862 347
L 864 347
L 865 344
L 867 347
L 868 347
L 870 347
L 871 344
L 873 344
L 875 344
L 876 344
L 878 344
L 879 344
L 881 341
L 883 334
L 884 334
L 886 328
L 887 331
L 889 315
L 890 308
L 892 311
L 894 321
L 895 311
L 897 311
L 898 308
L 900 321
L 902 328
L 903 328
L 905 321
L 906 331
L 908 324
L 909 324
L 911 318
L 913 308
L 914 305
L 916 295
L 917 289
L 919 292
L 920 289
L 922 285
L 924 282
L 925 269
L 927 275
L 928 272
L 930 275
L 932 282
L 933 292
L 935 302
L 936 315
L 938 315
L 939 321
L 941 324
L 943 318
L 944 321
L 946 324
L 947 328
L 949 331
L 951 331
L 952 331
L 954 334
L 955 331
L 957 331
L 958 328
L 960 334
L 962 337
L 963 341
L 965 344
L 966 337
L 968 334
L 969 334" style="stroke-width:1;stroke:rgba(0,116,217,1.0);fill:none"/><path  d="M 38 351
L 40 351
L 42 351
L 43 351
L 45 351
L 46 351
L 48 351
L 50 351
L 51 351
L 53 351
L 54 351
L 56 351
L 57 351
L 59 351
L 61 351
L 62 351
L 64 351
L 65 351
L 67 351
L 69 351
L 70 351
L 72 351
L 73 351
L 75 351
L 76 350
L 78 350
L 80 349
L 81 351
L 83 351
L 84 350
L 86 350
L 87 350
L 89 351
L 91 350
L 92 351
L 94 351
L 95 350
L 97 351
L 99 351
L 100 351
L 102 350
L 103 351
L 105 351
L 106 351
L 108 351
L 110 350
L 111 351
L 113 351
L 114 351
L 116 351
L 118 351
L 119 351
L 121 350
L 122 351
L 124 351
L 125 351
L 127 351
L 129 351
L 130 351
L 132 351
L 133 351
L 135 351
L 136 351
L 138 351
L 140 351
L 141 351
L 143 351
L 144 351
L 146 351
L 148 351
L 149 351
L 151 351
L 152 351
L 154 351
L 155 351
L 157 351
L 159 351
L 160 351
L 162 351
L 163 350
L 165 351
L 167 350
L 168 351
L 170 351
L 171 351
L 173 350
L 174 351
L 176 351
L 178 351
L 179 351
L 181 351
L 182 351
L 184 351
L 185 351
L 187 351
L 189 351
L 190 351
L 192 351
L 193 351
L 195 351
L 197 351
L 198 351
L 200 351
L 201 351
L 203 351
L 204 351
L 206 351
L 208 351
L 209 351
L 211 351
L 212 351
L 214 351
L 216 351
L 217 351
L 219 351
L 220 351
L 222 351
L 223 351
L 225 351
L 227 351
L 228 351
L 230 351
L 231 351
L 233 351
L 234 351
L 236 351
L 238 351
L 239 351
L 241 351
L 242 351
L 244 351
L 246 351
L 247 351
L 249 351
L 250 351
L 252 351
L 253 351
L 255 351
L 257 351
L 258 351
L 260 351
L 261 351
L 263 351
L 265 351
L 266 351
L 268 351
L 269 351
L 271 351
L 272 351
L 274 351
L 276 351
L 277 351
L 279 351
L 280 351
L 282 351
L 283 351
L 285 351
L 287 351
L 288 351
L 290 351
L 291 351
L 293 351
L 295 351
L 296 350
L 298 351
L 299 351
L 301 351
L 302 351
L 304 351
L 306 351
L 307 351
L 309 351
L 310 351
L 312 351
L 314 351
L 315 351
L 317 351
L 318 350
L 320 350
L 321 351
L 323 351
L 325 350
L 326 350
L 328 351
L 329 351
L 331 351
L 332 351
L 334 350
L 336 351
L 337 350
L 339 351
L 340 350
L 342 351
L 344 351
L 345 351
L 347 350
L 348 351
L 350 350
L 351 351
L 353 350
L 355 349
L 356 351
L 358 351
L 359 350
L 361 351
L 363 350
L 364 351
L 366 350
L 367 351
L 369 351
L 370 351
L 372 351
L 374 351
L 375 351
L 377 351
L 378 351
L 380 351
L 381 351
L 383 351
L 385 350
L 386 351
L 388 351
L 389 350
L 391 351
L 393 350
L 394 351
L 396 351
L 397 351
L 399 351
L 400 350
L 402 350
L 404 350
L 405 351
L 407 351
L 408 350
L 410 351
L 412 350
L 413 350
L 415 349
L 416 350
L 418 348
L 419 349
L 421 350
L 423 349
L 424 348
L 426 346
L 427 345
L 429 349
L 430 334
L 432 338
L 434 348
L 435 346
L 437 346
L 438 346
L 440 345
L 442 346
L 443 346
L 445 346
L 446 343
L 448 346
L 449 347
L 451 348
L 453 343
L 454 349
L 456 349
L 457 345
L 459 347
L 461 350
L 462 345
L 464 347
L 465 349
L 467 350
L 468 350
L 470 343
L 472 349
L 473 349
L 475 349
L 476 349
L 478 349
L 479 350
L 481 345
L 483 348
L 484 341
L 486 349
L 487 349
L 489 348
L 491 350
L 492 350
L 494 349
L 495 351
L 497 351
L 498 351
L 500 349
L 502 350
L 503 350
L 505 350
L 506 350
L 508 349
L 510 348
L 511 349
L 513 349
L 514 349
L 516 347
L 517 345
L 519 349
L 521 345
L 522 347
L 524 348
L 525 349
L 527 348
L 528 350
L 530 346
L 532 349
L 533 351
L 535 350
L 536 350
L 538 349
L 540 350
L 541 349
L 543 350
L 544 350
L 546 350
L 547 349
L 549 349
L 551 350
L 552 350
L 554 349
L 555 350
L 557 350
L 559 350
L 560 351
L 562 350
L 563 348
L 565 351
L 566 351
L 568 350
L 570 351
L 571 350
L 573 351
L 574 351
L 576 351
L 577 351
L 579 350
L 581 350
L 582 350
L 584 351
L 585 351
L 587 351
L 589 349
L 590 350
L 592 351
L 593 349
L 595 350
L 596 349
L 598 349
L 600 349
L 601 350
L 603 349
L 604 350
L 606 350
L 608 351
L 609 350
L 611 350
L 612 351
L 614 349
L 615 348
L 617 351
L 619 351
L 620 347
L 622 350
L 623 347
L 625 348
L 626 343
L 628 345
L 630 348
L 631 348
L 633 349
L 634 343
L 636 339
L 638 344
L 639 347
L 641 350
L 642 348
L 644 349
L 645 348
L 647 337
L 649 349
L 650 347
L 652 348
L 653 348
L 655 347
L 657 347
L 658 348
L 660 349
L 661 349
L 663 350
L 664 349
L 666 349
L 668 350
L 669 346
L 671 345
L 672 348
L 674 346
L 675 350
L 677 350
L 679 344
L 680 350
L 682 349
L 683 350
L 685 350
L 687 350
L 688 347
L 690 348
L 691 349
L 693 349
L 694 351
L 696 350
L 698 350
L 699 349
L 701 349
L 702 349
L 704 350
L 706 351
L 707 351
L 709 350
L 710 350
L 712 350
L 713 351
L 715 351
L 717 349
L 718 350
L 720 350
L 721 351
L 723 349
L 724 350
L 726 350
L 728 351
L 729 351
L 731 350
L 732 349
L 734 350
L 736 351
L 737 349
L 739 351
L 740 351
L 742 351
L 743 351
L 745 350
L 747 351
L 748 350
L 750 351
L 751 350
L 753 350
L 755 350
L 756 350
L 758 351
L 759 351
L 761 351
L 762 351
L 764 351
L 766 351
L 767 350
L 769 351
L 770 350
L 772 351
L 773 351
L 775 351
L 777 351
L 778 351
L 780 351
L 781 351
L 783 351
L 785 351
L 786 351
L 788 351
L 789 351
L 791 351
L 792 351
L 794 351
L 796 351
L 797 351
L 799 351
L 800 351
L 802 351
L 804 351
L 805 351
L 807 351
L 808 351
L 810 351
L 811 351
L 813 351
L 815 351
L 816 350
L 818 351
L 819 351
L 821 351
L 822 350
L 824 351
L 826 350
L 827 351
L 829 351
L 830 351
L 832 351
L 834 350
L 835 351
L 837 351
L 838 350
L 840 351
L 841 351
L 843 351
L 845 351
L 846 351
L 848 350
L 849 351
L 851 351
L 853 351
L 854 351
L 856 350
L 857 351
L 859 351
L 860 351
L 862 351
L 864 351
L 865 350
L 867 351
L 868 351
L 870 351
L 871 350
L 873 351
L 875 351
L 876 350
L 878 351
L 879 351
L 881 350
L 883 349
L 884 351
L 886 350
L 887 351
L 889 348
L 890 350
L 892 351
L 894 351
L 895 349
L 897 350
L 898 350
L 900 350
L 902 351
L 903 351
L 905 350
L 906 351
L 908 349
L 909 350
L 911 349
L 913 349
L 914 350
L 916 348
L 917 350
L 919 349
L 920 350
L 922 349
L 924 349
L 925 348
L 927 349
L 928 349
L 930 350
L 932 351
L 933 350
L 935 350
L 936 350
L 938 349
L 939 350
L 941 350
L 943 350
L 944 351
L 946 351
L 947 351
L 949 350
L 951 350
L 952 350
L 954 350
L 955 350
L 957 351
L 958 350
L 960 351
L 962 351
L 963 351
L 965 351
L 966 349
L 968 350
L 969 350" style="stroke-width:1;stroke:rgba(0,217,101,1.0);fill:none"/><path  d="M 38 351
L 40 351
L 42 351
L 43 351
L 45 351
L 46 351
L 48 351
L 50 351
L 51 351
L 53 351
L 54 351
L 56 351
L 57 351
L 59 351
L 61 351
L 62 351
L 64 351
L 65 351
L 67 351
L 69 351
L 70 351
L 72 351
L 73 351
L 75 351
L 76 351
L 78 351
L 80 351
L 81 351
L 83 351
L 84 351
L 86 351
L 87 351
L 89 351
L 91 351
L 92 351
L 94 351
L 95 351
L 97 351
L 99 351
L 100 351
L 102 351
L 103 351
L 105 351
L 106 351
L 108 351
L 110 351
L 111 351
L 113 351
L 114 351
L 116 351
L 118 351
L 119 351
L 121 351
L 122 351
L 124 351
L 125 351
L 127 351
L 129 351
L 130 351
L 132 351
L 133 351
L 135 351
L 136 351
L 138 351
L 140 351
L 141 351
L 143 351
L 144 351
L 146 351
L 148 351
L 149 351
L 151 351
L 152 351
L 154 351
L 155 351
L 157 351
L 159 351
L 160 351
L 162 351
L 163 351
L 165 351
L 167 351
L 168 351
L 170 351
L 171 351
L 173 351
L 174 351
L 176 351
L 178 351
L 179 351
L 181 351
L 182 351
L 184 351
L 185 351
L 187 351
L 189 351
L 190 351
L 192 351
L 193 351
L 195 351
L 197 351
L 198 351
L 200 351
L 201 351
L 203 351
L 204 351
L 206 351
L 208 351
L 209 351
L 211 351
L 212 351
L 214 351
L 216 351
L 217 351
L 219 351
L 220 351
L 222 351
L 223 351
L 225 351
L 227 351
L 228 351
L 230 351
L 231 351
L 233 351
L 234 351
L 236 351
L 238 351
L 239 351
L 241 351
L 242 351
L 244 351
L 246 351
L 247 351
L 249 351
L 250 351
L 252 351
L 253 351
L 255 351
L 257 351
L 258 351
L 260 351
L 261 351
L 263 351
L 265 351
L 266 351
L 268 351
L 269 351
L 271 351
L 272 351
L 274 351
L 276 351
L 277 351
L 279 351
L 280 351
L 282 351
L 283 351
L 285 351
L 287 351
L 288 351
L 290 351
L 291 351
L 293 351
L 295 351
L 296 351
L 298 351
L 299 351
L 301 351
L 302 351
L 304 351
L 306 351
L 307 351
L 309 351
L 310 351
L 312 351
L 314 351
L 315 351
L 317 351
L 318 351
L 320 351
L 321 351
L 323 351
L 325 351
L 326 351
L 328 351
L 329 351
L 331 351
L 332 351
L 334 351
L 336 351
L 337 351
L 339 351
L 340 351
L 342 351
L 344 351
L 345 351
L 347 351
L 348 351
L 350 351
L 351 351
L 353 351
L 355 351
L 356 351
L 358 351
L 359 351
L 361 351
L 363 351
L 364 351
L 366 351
L 367 351
L 369 351
L 370 351
L 372 351
L 374 351
L 375 351
L 377 351
L 378 351
L 380 351
L 381 351
L 383 351
L 385 351
L 386 351
L 388 351
L 389 351
L 391 351
L 393 351
L 394 351
L 396 351
L 397 351
L 399 351
L 400 351
L 402 351
L 404 351
L 405 351
L 407 351
L 408 351
L 410 351
L 412 351
L 413 351
L 415 351
L 416 351
L 418 351
L 419 351
L 421 351
L 423 351
L 424 351
L 426 351
L 427 351
L 429 351
L 430 351
L 432 351
L 434 351
L 435 351
L 437 351
L 438 351
L 440 351
L 442 351
L 443 351
L 445 351
L 446 351
L 448 351
L 449 351
L 451 351
L 453 351
L 454 351
L 456 351
L 457 351
L 459 351
L 461 351
L 462 351
L 464 351
L 465 351
L 467 351
L 468 351
L 470 351
L 472 351
L 473 351
L 475 351
L 476 351
L 478 351
L 479 350
L 481 351
L 483 350
L 484 350
L 486 351
L 487 351
L 489 351
L 491 351
L 492 350
L 494 351
L 495 351
L 497 351
L 498 350
L 500 351
L 502 351
L 503 351
L 505 351
L 506 350
L 508 351
L 510 351
L 511 351
L 513 351
L 514 351
L 516 351
L 517 350
L 519 351
L 521 350
L 522 351
L 524 351
L 525 351
L 527 351
L 528 351
L 530 351
L 532 351
L 533 351
L 535 351
L 536 351
L 538 351
L 540 351
L 541 350
L 543 351
L 544 351
L 546 351
L 547 351
L 549 351
L 551 351
L 552 351
L 554 351
L 555 351
L 557 351
L 559 351
L 560 351
L 562 351
L 563 351
L 565 351
L 566 351
L 568 351
L 570 351
L 571 351
L 573 351
L 574 351
L 576 351
L 577 351
L 579 351
L 581 351
L 582 351
L 584 351
L 585 351
L 587 351
L 589 351
L 590 351
L 592 351
L 593 351
L 595 351
L 596 351
L 598 351
L 600 351
L 601 351
L 603 351
L 604 351
L 606 351
L 608 351
L 609 351
L 611 351
L 612 351
L 614 351
L 615 351
L 617 351
L 619 351
L 620 351
L 622 351
L 623 351
L 625 351
L 626 351
L 628 351
L 630 351
L 631 351
L 633 351
L 634 351
L 636 351
L 638 351
L 639 351
L 641 351
L 642 351
L 644 351
L 645 351
L 647 351
L 649 351
L 650 351
L 652 351
L 653 351
L 655 351
L 657 351
L 658 351
L 660 351
L 661 351
L 663 351
L 664 351
L 666 351
L 668 350
L 669 351
L 671 351
L 672 351
L 674 351
L 675 351
L 677 351
L 679 351
L 680 351
L 682 351
L 683 351
L 685 351
L 687 351
L 688 351
L 690 351
L 691 351
L 693 351
L 694 351
L 696 351
L 698 351
L 699 351
L 701 351
L 702 351
L 704 351
L 706 351
L 707 351
L 709 351
L 710 351
L 712 351
L 713 351
L 715 351
L 717 351
L 718 351
L 720 351
L 721 351
L 723 351
L 724 351
L 726 351
L 728 351
L 729 351
L 731 351
L 732 351
L 734 351
L 736 351
L 737 351
L 739 351
L 740 351
L 742 351
L 743 351
L 745 351
L 747 351
L 748 351
L 750 351
L 751 351
L 753 351
L 755 351
L 756 351
L 758 351
L 759 351
L 761 351
L 762 351
L 764 351
L 766 351
L 767 351
L 769 351
L 770 351
L 772 351
L 773 351
L 775 351
L 777 351
L 778 351
L 780 351
L 781 351
L 783 351
L 785 351
L 786 351
L 788 351
L 789 351
L 791 351
L 792 351
L 794 351
L 796 351
L 797 351
L 799 351
L 800 351
L 802 351
L 804 351
L 805 351
L 807 351
L 808 351
L 810 351
L 811 351
L 813 351
L 815 351
L 816 351
L 818 351
L 819 351
L 821 351
L 822 351
L 824 351
L 826 351
L 827 351
L 829 351
L 830 351
L 832 351
L 834 351
L 835 351
L 837 351
L 838 351
L 840 351
L 841 351
L 843 351
L 845 351
L 846 351
L 848 351
L 849 351
L 851 351
L 853 351
L 854 351
L 856 351
L 857 351
L 859 351
L 860 351
L 862 351
L 864 351
L 865 351
L 867 351
L 868 351
L 870 351
L 871 351
L 873 351
L 875 351
L 876 351
L 878 351
L 879 351
L 881 351
L 883 351
L 884 351
L 886 351
L 887 351
L 889 351
L 890 351
L 892 351
L 894 351
L 895 351
L 897 351
L 898 351
L 900 351
L 902 351
L 903 351
L 905 351
L 906 351
L 908 351
L 909 351
L 911 351
L 913 351
L 914 351
L 916 351
L 917 351
L 919 351
L 920 351
L 922 351
L 924 351
L 925 351
L 927 351
L 928 351
L 930 351
L 932 351
L 933 351
L 935 351
L 936 351
L 938 351
L 939 351
L 941 351
L 943 351
L 944 351
L 946 351
L 947 351
L 949 351
L 951 351
L 952 351
L 954 351
L 955 351
L 957 351
L 958 351
L 960 351
L 962 351
L 963 351
L 965 351
L 966 351
L 968 351
L 969 351" style="stroke-width:1;stroke:rgba(217,0,116,1.0);fill:none"/><text x="361" y="33" style="stroke-width:0;stroke:none;fill:rgba(51,51,51,1.0);font-size:23.0px;font-family:'Roboto Medium',sans-serif">Eisenstadt(Stadt) 07.10.2021</text><path  d="M 38 11
L 251 11
L 251 91
L 38 91
L 38 11" style="stroke-width:1;stroke:rgba(51,51,51,1.0);fill:rgba(255,255,255,1.0)"/><text x="43" y="26" style="stroke-width:0;stroke:none;fill:rgba(51,51,51,1.0);font-size:10.2px;font-family:'Roboto Medium',sans-serif">Sieben Tage Durschnitt Inzidenz Fälle</text><path  d="M 221 21
L 241 21" style="stroke-width:1;stroke:rgba(0,116,217,1.0);fill:none"/><text x="43" y="56" style="stroke-width:0;stroke:none;fill:rgba(51,51,51,1.0);font-size:10.2px;font-family:'Roboto Medium',sans-serif">Anzahl Faelle</text><path  d="M 110 51
L 241 51" style="stroke-width:1;stroke:rgba(0,217,101,1.0);fill:none"/><text x="43" y="86" style="stroke-width:0;stroke:none;fill:rgba(51,51,51,1.0);font-size:10.2px;font-family:'Roboto Medium',sans-serif">Anzahl Tot</text><path  d="M 98 81
L 241 81" style="stroke-width:1;stroke:rgba(217,0,116,1.0);fill:none"/></svg>