<svg xmlns="http://www.w3.org/2000/svg" xmlns:xlink="http://www.w3.org/1999/xlink" width="1024" height="400">\n<path  d="M 0 0
L 1024 0
L 1024 400
L 0 400
L 0 0" style="stroke-width:0;stroke:rgba(255,255,255,1.0);fill:rgba(255,255,255,1.0)"/><path  d="M 38 11
L 969 11
L 969 351
L 38 351
L 38 11" style="stroke-width:0;stroke:rgba(255,255,255,1.0);fill:rgba(255,255,255,1.0)"/><path  d="M 38 351
L 969 351" style="stroke-width:1;stroke:rgba(51,51,51,1.0);fill:none"/><path  d="M 38 351
L 38 356" style="stroke-width:1;stroke:rgba(51,51,51,1.0);fill:none"/><text x="5" y="373" style="stroke-width:0;stroke:none;fill:rgba(51,51,51,1.0);font-size:12.8px;font-family:'Roboto Medium',sans-serif">2020-02-26</text><path  d="M 155 351
L 155 356" style="stroke-width:1;stroke:rgba(51,51,51,1.0);fill:none"/><text x="122" y="373" style="stroke-width:0;stroke:none;fill:rgba(51,51,51,1.0);font-size:12.8px;font-family:'Roboto Medium',sans-serif">2020-05-09</text><path  d="M 271 351
L 271 356" style="stroke-width:1;stroke:rgba(51,51,51,1.0);fill:none"/><text x="238" y="373" style="stroke-width:0;stroke:none;fill:rgba(51,51,51,1.0);font-size:12.8px;font-family:'Roboto Medium',sans-serif">2020-07-21</text><path  d="M 388 351
L 388 356" style="stroke-width:1;stroke:rgba(51,51,51,1.0);fill:none"/><text x="355" y="373" style="stroke-width:0;stroke:none;fill:rgba(51,51,51,1.0);font-size:12.8px;font-family:'Roboto Medium',sans-serif">2020-10-02</text><path  d="M 504 351
L 504 356" style="stroke-width:1;stroke:rgba(51,51,51,1.0);fill:none"/><text x="471" y="373" style="stroke-width:0;stroke:none;fill:rgba(51,51,51,1.0);font-size:12.8px;font-family:'Roboto Medium',sans-serif">2020-12-14</text><path  d="M 620 351
L 620 356" style="stroke-width:1;stroke:rgba(51,51,51,1.0);fill:none"/><text x="587" y="373" style="stroke-width:0;stroke:none;fill:rgba(51,51,51,1.0);font-size:12.8px;font-family:'Roboto Medium',sans-serif">2021-02-25</text><path  d="M 737 351
L 737 356" style="stroke-width:1;stroke:rgba(51,51,51,1.0);fill:none"/><text x="704" y="373" style="stroke-width:0;stroke:none;fill:rgba(51,51,51,1.0);font-size:12.8px;font-family:'Roboto Medium',sans-serif">2021-05-09</text><path  d="M 853 351
L 853 356" style="stroke-width:1;stroke:rgba(51,51,51,1.0);fill:none"/><text x="820" y="373" style="stroke-width:0;stroke:none;fill:rgba(51,51,51,1.0);font-size:12.8px;font-family:'Roboto Medium',sans-serif">2021-07-21</text><path  d="M 969 351
L 969 356" style="stroke-width:1;stroke:rgba(51,51,51,1.0);fill:none"/><text x="936" y="373" style="stroke-width:0;stroke:none;fill:rgba(51,51,51,1.0);font-size:12.8px;font-family:'Roboto Medium',sans-serif">2021-10-03</text><text x="485" y="395" style="stroke-width:0;stroke:none;fill:rgba(51,51,51,1.0);font-size:12.8px;font-family:'Roboto Medium',sans-serif">Datum</text><path  d="M 970 351
L 970 11" style="stroke-width:1;stroke:rgba(51,51,51,1.0);fill:none"/><path  d="M 970 351
L 975 351" style="stroke-width:1;stroke:rgba(51,51,51,1.0);fill:none"/><text x="980" y="357" style="stroke-width:0;stroke:none;fill:rgba(51,51,51,1.0);font-size:12.8px;font-family:'Roboto Medium',sans-serif">0.00</text><path  d="M 970 308
L 975 308" style="stroke-width:1;stroke:rgba(51,51,51,1.0);fill:none"/><text x="980" y="314" style="stroke-width:0;stroke:none;fill:rgba(51,51,51,1.0);font-size:12.8px;font-family:'Roboto Medium',sans-serif">88.00</text><path  d="M 970 266
L 975 266" style="stroke-width:1;stroke:rgba(51,51,51,1.0);fill:none"/><text x="980" y="272" style="stroke-width:0;stroke:none;fill:rgba(51,51,51,1.0);font-size:12.8px;font-family:'Roboto Medium',sans-serif">175.00</text><path  d="M 970 223
L 975 223" style="stroke-width:1;stroke:rgba(51,51,51,1.0);fill:none"/><text x="980" y="229" style="stroke-width:0;stroke:none;fill:rgba(51,51,51,1.0);font-size:12.8px;font-family:'Roboto Medium',sans-serif">263.00</text><path  d="M 970 181
L 975 181" style="stroke-width:1;stroke:rgba(51,51,51,1.0);fill:none"/><text x="980" y="187" style="stroke-width:0;stroke:none;fill:rgba(51,51,51,1.0);font-size:12.8px;font-family:'Roboto Medium',sans-serif">350.00</text><path  d="M 970 138
L 975 138" style="stroke-width:1;stroke:rgba(51,51,51,1.0);fill:none"/><text x="980" y="144" style="stroke-width:0;stroke:none;fill:rgba(51,51,51,1.0);font-size:12.8px;font-family:'Roboto Medium',sans-serif">438.00</text><path  d="M 970 96
L 975 96" style="stroke-width:1;stroke:rgba(51,51,51,1.0);fill:none"/><text x="980" y="102" style="stroke-width:0;stroke:none;fill:rgba(51,51,51,1.0);font-size:12.8px;font-family:'Roboto Medium',sans-serif">525.00</text><path  d="M 970 53
L 975 53" style="stroke-width:1;stroke:rgba(51,51,51,1.0);fill:none"/><text x="980" y="59" style="stroke-width:0;stroke:none;fill:rgba(51,51,51,1.0);font-size:12.8px;font-family:'Roboto Medium',sans-serif">613.00</text><path  d="M 970 11
L 975 11" style="stroke-width:1;stroke:rgba(51,51,51,1.0);fill:none"/><text x="980" y="17" style="stroke-width:0;stroke:none;fill:rgba(51,51,51,1.0);font-size:12.8px;font-family:'Roboto Medium',sans-serif">700.00</text><path  d="M 38 351
L 40 351
L 42 351
L 43 351
L 45 351
L 46 351
L 48 351
L 50 351
L 51 351
L 53 351
L 54 351
L 56 351
L 58 351
L 59 351
L 61 351
L 62 351
L 64 351
L 66 351
L 67 351
L 69 351
L 70 351
L 72 351
L 74 351
L 75 351
L 77 347
L 78 341
L 80 328
L 81 328
L 83 328
L 85 324
L 86 321
L 88 321
L 89 328
L 91 337
L 93 337
L 94 337
L 96 337
L 97 341
L 99 344
L 101 344
L 102 344
L 104 344
L 105 344
L 107 347
L 109 347
L 110 344
L 112 344
L 113 347
L 115 347
L 116 347
L 118 347
L 120 347
L 121 347
L 123 347
L 124 347
L 126 347
L 128 347
L 129 347
L 131 347
L 132 351
L 134 351
L 136 351
L 137 351
L 139 351
L 140 351
L 142 351
L 144 351
L 145 351
L 147 351
L 148 351
L 150 351
L 151 351
L 153 351
L 155 351
L 156 351
L 158 351
L 159 351
L 161 351
L 163 351
L 164 347
L 166 347
L 167 344
L 169 344
L 171 344
L 172 344
L 174 341
L 175 344
L 177 344
L 179 347
L 180 347
L 182 347
L 183 347
L 185 351
L 187 351
L 188 351
L 190 351
L 191 351
L 193 351
L 194 351
L 196 351
L 198 351
L 199 351
L 201 351
L 202 351
L 204 351
L 206 351
L 207 351
L 209 351
L 210 351
L 212 351
L 214 351
L 215 351
L 217 351
L 218 351
L 220 351
L 222 351
L 223 351
L 225 351
L 226 351
L 228 351
L 229 351
L 231 351
L 233 351
L 234 351
L 236 351
L 237 351
L 239 351
L 241 351
L 242 351
L 244 351
L 245 351
L 247 351
L 249 351
L 250 351
L 252 351
L 253 351
L 255 351
L 257 351
L 258 351
L 260 351
L 261 351
L 263 351
L 264 351
L 266 351
L 268 351
L 269 351
L 271 351
L 272 351
L 274 351
L 276 351
L 277 351
L 279 351
L 280 351
L 282 351
L 284 351
L 285 351
L 287 351
L 288 351
L 290 351
L 292 351
L 293 351
L 295 351
L 296 351
L 298 347
L 299 347
L 301 347
L 303 347
L 304 347
L 306 347
L 307 347
L 309 351
L 311 351
L 312 351
L 314 351
L 315 351
L 317 351
L 319 351
L 320 347
L 322 344
L 323 344
L 325 344
L 327 337
L 328 331
L 330 331
L 331 334
L 333 337
L 335 337
L 336 334
L 338 341
L 339 341
L 341 341
L 342 334
L 344 334
L 346 334
L 347 337
L 349 337
L 350 344
L 352 341
L 354 347
L 355 344
L 357 334
L 358 334
L 360 334
L 362 328
L 363 331
L 365 328
L 366 331
L 368 337
L 370 337
L 371 337
L 373 344
L 374 344
L 376 347
L 377 347
L 379 351
L 381 351
L 382 351
L 384 351
L 385 351
L 387 347
L 389 347
L 390 347
L 392 344
L 393 344
L 395 341
L 397 341
L 398 344
L 400 344
L 401 344
L 403 344
L 405 341
L 406 337
L 408 337
L 409 337
L 411 334
L 412 334
L 414 334
L 416 331
L 417 324
L 419 318
L 420 302
L 422 295
L 424 292
L 425 285
L 427 275
L 428 259
L 430 227
L 432 233
L 433 129
L 435 50
L 436 41
L 438 28
L 440 28
L 441 37
L 443 11
L 444 93
L 446 142
L 448 132
L 449 109
L 451 109
L 452 112
L 454 132
L 455 116
L 457 135
L 459 155
L 460 171
L 462 178
L 463 197
L 465 178
L 467 204
L 468 204
L 470 207
L 471 236
L 473 210
L 475 207
L 476 233
L 478 246
L 479 249
L 481 246
L 483 249
L 484 262
L 486 253
L 487 197
L 489 197
L 490 194
L 492 187
L 494 184
L 495 214
L 497 223
L 498 289
L 500 298
L 502 311
L 503 318
L 505 318
L 506 321
L 508 324
L 510 321
L 511 311
L 513 292
L 514 289
L 516 282
L 518 275
L 519 256
L 521 220
L 522 217
L 524 197
L 525 184
L 527 181
L 529 181
L 530 187
L 532 220
L 533 204
L 535 230
L 537 256
L 538 266
L 540 269
L 541 279
L 543 282
L 545 298
L 546 308
L 548 302
L 549 305
L 551 302
L 553 302
L 554 302
L 556 308
L 557 302
L 559 302
L 560 302
L 562 308
L 564 318
L 565 318
L 567 305
L 568 315
L 570 321
L 572 318
L 573 321
L 575 318
L 576 321
L 578 341
L 580 341
L 581 341
L 583 344
L 584 337
L 586 337
L 588 337
L 589 337
L 591 337
L 592 328
L 594 328
L 596 334
L 597 328
L 599 321
L 600 311
L 602 298
L 603 298
L 605 295
L 607 282
L 608 289
L 610 289
L 611 298
L 613 308
L 615 311
L 616 318
L 618 318
L 619 305
L 621 311
L 623 311
L 624 289
L 626 292
L 627 269
L 629 266
L 631 233
L 632 197
L 634 178
L 635 184
L 637 178
L 638 152
L 640 93
L 642 96
L 643 109
L 645 122
L 646 122
L 648 119
L 650 148
L 651 132
L 653 165
L 654 165
L 656 158
L 658 161
L 659 148
L 661 145
L 662 217
L 664 217
L 666 230
L 667 236
L 669 240
L 670 259
L 672 279
L 673 266
L 675 240
L 677 233
L 678 210
L 680 217
L 681 217
L 683 178
L 685 204
L 686 233
L 688 246
L 689 269
L 691 272
L 693 253
L 694 275
L 696 272
L 697 269
L 699 272
L 701 272
L 702 272
L 704 285
L 705 295
L 707 292
L 709 302
L 710 302
L 712 308
L 713 308
L 715 318
L 716 321
L 718 334
L 720 337
L 721 328
L 723 321
L 724 321
L 726 324
L 728 321
L 729 318
L 731 315
L 732 324
L 734 331
L 736 331
L 737 321
L 739 328
L 740 331
L 742 324
L 744 324
L 745 324
L 747 328
L 748 337
L 750 337
L 751 337
L 753 344
L 755 344
L 756 341
L 758 337
L 759 334
L 761 334
L 763 334
L 764 337
L 766 337
L 767 341
L 769 344
L 771 347
L 772 347
L 774 347
L 775 344
L 777 344
L 779 344
L 780 344
L 782 344
L 783 347
L 785 347
L 786 351
L 788 351
L 790 351
L 791 351
L 793 351
L 794 351
L 796 351
L 798 351
L 799 351
L 801 351
L 802 351
L 804 351
L 806 351
L 807 351
L 809 351
L 810 351
L 812 351
L 814 351
L 815 351
L 817 351
L 818 351
L 820 351
L 821 347
L 823 347
L 825 347
L 826 347
L 828 344
L 829 344
L 831 341
L 833 344
L 834 344
L 836 344
L 837 344
L 839 344
L 841 344
L 842 347
L 844 344
L 845 344
L 847 344
L 849 344
L 850 347
L 852 347
L 853 344
L 855 347
L 857 347
L 858 347
L 860 347
L 861 344
L 863 344
L 864 347
L 866 347
L 868 347
L 869 347
L 871 344
L 872 347
L 874 347
L 876 347
L 877 344
L 879 344
L 880 344
L 882 344
L 884 344
L 885 344
L 887 341
L 888 334
L 890 334
L 892 328
L 893 331
L 895 315
L 896 308
L 898 311
L 899 321
L 901 311
L 903 311
L 904 308
L 906 321
L 907 328
L 909 328
L 911 321
L 912 331
L 914 324
L 915 324
L 917 318
L 919 308
L 920 305
L 922 295
L 923 289
L 925 292
L 927 289
L 928 285
L 930 282
L 931 269
L 933 275
L 934 272
L 936 275
L 938 282
L 939 292
L 941 302
L 942 315
L 944 315
L 946 321
L 947 324
L 949 318
L 950 321
L 952 324
L 954 328
L 955 331
L 957 331
L 958 331
L 960 331
L 962 328
L 963 328
L 965 324
L 966 331
L 968 334
L 969 337" style="stroke-width:1;stroke:rgba(0,116,217,1.0);fill:none"/><path  d="M 38 351
L 40 351
L 42 351
L 43 351
L 45 351
L 46 351
L 48 351
L 50 351
L 51 351
L 53 351
L 54 351
L 56 351
L 58 351
L 59 351
L 61 351
L 62 351
L 64 351
L 66 351
L 67 351
L 69 351
L 70 351
L 72 351
L 74 351
L 75 351
L 77 350
L 78 350
L 80 349
L 81 351
L 83 351
L 85 350
L 86 350
L 88 350
L 89 351
L 91 350
L 93 351
L 94 351
L 96 350
L 97 351
L 99 351
L 101 351
L 102 350
L 104 351
L 105 351
L 107 351
L 109 351
L 110 350
L 112 351
L 113 351
L 115 351
L 116 351
L 118 351
L 120 351
L 121 350
L 123 351
L 124 351
L 126 351
L 128 351
L 129 351
L 131 351
L 132 351
L 134 351
L 136 351
L 137 351
L 139 351
L 140 351
L 142 351
L 144 351
L 145 351
L 147 351
L 148 351
L 150 351
L 151 351
L 153 351
L 155 351
L 156 351
L 158 351
L 159 351
L 161 351
L 163 351
L 164 350
L 166 351
L 167 350
L 169 351
L 171 351
L 172 351
L 174 350
L 175 351
L 177 351
L 179 351
L 180 351
L 182 351
L 183 351
L 185 351
L 187 351
L 188 351
L 190 351
L 191 351
L 193 351
L 194 351
L 196 351
L 198 351
L 199 351
L 201 351
L 202 351
L 204 351
L 206 351
L 207 351
L 209 351
L 210 351
L 212 351
L 214 351
L 215 351
L 217 351
L 218 351
L 220 351
L 222 351
L 223 351
L 225 351
L 226 351
L 228 351
L 229 351
L 231 351
L 233 351
L 234 351
L 236 351
L 237 351
L 239 351
L 241 351
L 242 351
L 244 351
L 245 351
L 247 351
L 249 351
L 250 351
L 252 351
L 253 351
L 255 351
L 257 351
L 258 351
L 260 351
L 261 351
L 263 351
L 264 351
L 266 351
L 268 351
L 269 351
L 271 351
L 272 351
L 274 351
L 276 351
L 277 351
L 279 351
L 280 351
L 282 351
L 284 351
L 285 351
L 287 351
L 288 351
L 290 351
L 292 351
L 293 351
L 295 351
L 296 351
L 298 350
L 299 351
L 301 351
L 303 351
L 304 351
L 306 351
L 307 351
L 309 351
L 311 351
L 312 351
L 314 351
L 315 351
L 317 351
L 319 351
L 320 350
L 322 350
L 323 351
L 325 351
L 327 350
L 328 350
L 330 351
L 331 351
L 333 351
L 335 351
L 336 350
L 338 351
L 339 350
L 341 351
L 342 350
L 344 351
L 346 351
L 347 351
L 349 351
L 350 351
L 352 350
L 354 351
L 355 350
L 357 349
L 358 351
L 360 351
L 362 350
L 363 351
L 365 350
L 366 351
L 368 350
L 370 351
L 371 351
L 373 351
L 374 351
L 376 351
L 377 351
L 379 351
L 381 351
L 382 351
L 384 351
L 385 351
L 387 350
L 389 351
L 390 351
L 392 350
L 393 351
L 395 350
L 397 351
L 398 351
L 400 351
L 401 351
L 403 350
L 405 350
L 406 350
L 408 351
L 409 351
L 411 350
L 412 351
L 414 350
L 416 350
L 417 349
L 419 350
L 420 348
L 422 349
L 424 350
L 425 349
L 427 348
L 428 346
L 430 345
L 432 349
L 433 334
L 435 338
L 436 348
L 438 346
L 440 346
L 441 346
L 443 345
L 444 346
L 446 346
L 448 346
L 449 343
L 451 346
L 452 347
L 454 348
L 455 343
L 457 349
L 459 349
L 460 345
L 462 347
L 463 350
L 465 345
L 467 347
L 468 349
L 470 350
L 471 350
L 473 343
L 475 349
L 476 349
L 478 349
L 479 349
L 481 349
L 483 350
L 484 345
L 486 348
L 487 341
L 489 349
L 490 349
L 492 348
L 494 350
L 495 350
L 497 349
L 498 351
L 500 351
L 502 351
L 503 349
L 505 350
L 506 350
L 508 350
L 510 350
L 511 349
L 513 348
L 514 349
L 516 349
L 518 349
L 519 347
L 521 345
L 522 349
L 524 345
L 525 347
L 527 348
L 529 349
L 530 348
L 532 350
L 533 346
L 535 349
L 537 351
L 538 350
L 540 350
L 541 349
L 543 350
L 545 349
L 546 350
L 548 350
L 549 350
L 551 349
L 553 349
L 554 350
L 556 350
L 557 349
L 559 350
L 560 350
L 562 350
L 564 351
L 565 350
L 567 348
L 568 351
L 570 351
L 572 350
L 573 351
L 575 350
L 576 351
L 578 351
L 580 351
L 581 351
L 583 350
L 584 350
L 586 350
L 588 351
L 589 351
L 591 351
L 592 349
L 594 350
L 596 351
L 597 349
L 599 350
L 600 349
L 602 349
L 603 349
L 605 350
L 607 349
L 608 350
L 610 350
L 611 351
L 613 350
L 615 350
L 616 351
L 618 349
L 619 348
L 621 351
L 623 351
L 624 347
L 626 350
L 627 347
L 629 348
L 631 343
L 632 345
L 634 348
L 635 348
L 637 349
L 638 343
L 640 339
L 642 344
L 643 347
L 645 350
L 646 348
L 648 349
L 650 348
L 651 337
L 653 349
L 654 347
L 656 349
L 658 348
L 659 347
L 661 347
L 662 348
L 664 349
L 666 349
L 667 350
L 669 349
L 670 350
L 672 350
L 673 346
L 675 345
L 677 348
L 678 346
L 680 350
L 681 350
L 683 344
L 685 350
L 686 349
L 688 350
L 689 350
L 691 350
L 693 347
L 694 348
L 696 349
L 697 349
L 699 351
L 701 350
L 702 350
L 704 349
L 705 349
L 707 349
L 709 350
L 710 351
L 712 351
L 713 350
L 715 350
L 716 350
L 718 351
L 720 351
L 721 349
L 723 350
L 724 350
L 726 351
L 728 349
L 729 350
L 731 350
L 732 351
L 734 351
L 736 350
L 737 349
L 739 350
L 740 351
L 742 349
L 744 351
L 745 351
L 747 351
L 748 351
L 750 350
L 751 351
L 753 350
L 755 351
L 756 350
L 758 350
L 759 350
L 761 350
L 763 351
L 764 351
L 766 351
L 767 351
L 769 351
L 771 351
L 772 350
L 774 351
L 775 350
L 777 351
L 779 351
L 780 351
L 782 351
L 783 351
L 785 351
L 786 351
L 788 351
L 790 351
L 791 351
L 793 351
L 794 351
L 796 351
L 798 351
L 799 351
L 801 351
L 802 351
L 804 351
L 806 351
L 807 351
L 809 351
L 810 351
L 812 351
L 814 351
L 815 351
L 817 351
L 818 351
L 820 351
L 821 350
L 823 351
L 825 351
L 826 351
L 828 350
L 829 351
L 831 350
L 833 351
L 834 351
L 836 351
L 837 351
L 839 350
L 841 351
L 842 351
L 844 350
L 845 351
L 847 351
L 849 351
L 850 351
L 852 351
L 853 350
L 855 351
L 857 351
L 858 351
L 860 351
L 861 350
L 863 351
L 864 351
L 866 351
L 868 351
L 869 351
L 871 350
L 872 351
L 874 351
L 876 351
L 877 350
L 879 351
L 880 351
L 882 350
L 884 351
L 885 351
L 887 350
L 888 349
L 890 351
L 892 350
L 893 351
L 895 348
L 896 350
L 898 351
L 899 351
L 901 349
L 903 350
L 904 350
L 906 350
L 907 351
L 909 351
L 911 350
L 912 351
L 914 349
L 915 350
L 917 349
L 919 349
L 920 350
L 922 348
L 923 350
L 925 349
L 927 350
L 928 349
L 930 349
L 931 348
L 933 349
L 934 349
L 936 350
L 938 351
L 939 350
L 941 350
L 942 350
L 944 349
L 946 350
L 947 350
L 949 350
L 950 351
L 952 351
L 954 351
L 955 350
L 957 350
L 958 350
L 960 350
L 962 350
L 963 351
L 965 350
L 966 351
L 968 351
L 969 351" style="stroke-width:1;stroke:rgba(0,217,101,1.0);fill:none"/><path  d="M 38 351
L 40 351
L 42 351
L 43 351
L 45 351
L 46 351
L 48 351
L 50 351
L 51 351
L 53 351
L 54 351
L 56 351
L 58 351
L 59 351
L 61 351
L 62 351
L 64 351
L 66 351
L 67 351
L 69 351
L 70 351
L 72 351
L 74 351
L 75 351
L 77 351
L 78 351
L 80 351
L 81 351
L 83 351
L 85 351
L 86 351
L 88 351
L 89 351
L 91 351
L 93 351
L 94 351
L 96 351
L 97 351
L 99 351
L 101 351
L 102 351
L 104 351
L 105 351
L 107 351
L 109 351
L 110 351
L 112 351
L 113 351
L 115 351
L 116 351
L 118 351
L 120 351
L 121 351
L 123 351
L 124 351
L 126 351
L 128 351
L 129 351
L 131 351
L 132 351
L 134 351
L 136 351
L 137 351
L 139 351
L 140 351
L 142 351
L 144 351
L 145 351
L 147 351
L 148 351
L 150 351
L 151 351
L 153 351
L 155 351
L 156 351
L 158 351
L 159 351
L 161 351
L 163 351
L 164 351
L 166 351
L 167 351
L 169 351
L 171 351
L 172 351
L 174 351
L 175 351
L 177 351
L 179 351
L 180 351
L 182 351
L 183 351
L 185 351
L 187 351
L 188 351
L 190 351
L 191 351
L 193 351
L 194 351
L 196 351
L 198 351
L 199 351
L 201 351
L 202 351
L 204 351
L 206 351
L 207 351
L 209 351
L 210 351
L 212 351
L 214 351
L 215 351
L 217 351
L 218 351
L 220 351
L 222 351
L 223 351
L 225 351
L 226 351
L 228 351
L 229 351
L 231 351
L 233 351
L 234 351
L 236 351
L 237 351
L 239 351
L 241 351
L 242 351
L 244 351
L 245 351
L 247 351
L 249 351
L 250 351
L 252 351
L 253 351
L 255 351
L 257 351
L 258 351
L 260 351
L 261 351
L 263 351
L 264 351
L 266 351
L 268 351
L 269 351
L 271 351
L 272 351
L 274 351
L 276 351
L 277 351
L 279 351
L 280 351
L 282 351
L 284 351
L 285 351
L 287 351
L 288 351
L 290 351
L 292 351
L 293 351
L 295 351
L 296 351
L 298 351
L 299 351
L 301 351
L 303 351
L 304 351
L 306 351
L 307 351
L 309 351
L 311 351
L 312 351
L 314 351
L 315 351
L 317 351
L 319 351
L 320 351
L 322 351
L 323 351
L 325 351
L 327 351
L 328 351
L 330 351
L 331 351
L 333 351
L 335 351
L 336 351
L 338 351
L 339 351
L 341 351
L 342 351
L 344 351
L 346 351
L 347 351
L 349 351
L 350 351
L 352 351
L 354 351
L 355 351
L 357 351
L 358 351
L 360 351
L 362 351
L 363 351
L 365 351
L 366 351
L 368 351
L 370 351
L 371 351
L 373 351
L 374 351
L 376 351
L 377 351
L 379 351
L 381 351
L 382 351
L 384 351
L 385 351
L 387 351
L 389 351
L 390 351
L 392 351
L 393 351
L 395 351
L 397 351
L 398 351
L 400 351
L 401 351
L 403 351
L 405 351
L 406 351
L 408 351
L 409 351
L 411 351
L 412 351
L 414 351
L 416 351
L 417 351
L 419 351
L 420 351
L 422 351
L 424 351
L 425 351
L 427 351
L 428 351
L 430 351
L 432 351
L 433 351
L 435 351
L 436 351
L 438 351
L 440 351
L 441 351
L 443 351
L 444 351
L 446 351
L 448 351
L 449 351
L 451 351
L 452 351
L 454 351
L 455 351
L 457 351
L 459 351
L 460 351
L 462 351
L 463 351
L 465 351
L 467 351
L 468 351
L 470 351
L 471 351
L 473 351
L 475 351
L 476 351
L 478 351
L 479 351
L 481 351
L 483 350
L 484 351
L 486 350
L 487 350
L 489 351
L 490 351
L 492 351
L 494 351
L 495 350
L 497 351
L 498 351
L 500 351
L 502 350
L 503 351
L 505 351
L 506 351
L 508 351
L 510 350
L 511 351
L 513 351
L 514 351
L 516 351
L 518 351
L 519 351
L 521 350
L 522 351
L 524 350
L 525 351
L 527 351
L 529 351
L 530 351
L 532 351
L 533 351
L 535 351
L 537 351
L 538 351
L 540 351
L 541 351
L 543 351
L 545 350
L 546 351
L 548 351
L 549 351
L 551 351
L 553 351
L 554 351
L 556 351
L 557 351
L 559 351
L 560 351
L 562 351
L 564 351
L 565 351
L 567 351
L 568 351
L 570 351
L 572 351
L 573 351
L 575 351
L 576 351
L 578 351
L 580 351
L 581 351
L 583 351
L 584 351
L 586 351
L 588 351
L 589 351
L 591 351
L 592 351
L 594 351
L 596 351
L 597 351
L 599 351
L 600 351
L 602 351
L 603 351
L 605 351
L 607 351
L 608 351
L 610 351
L 611 351
L 613 351
L 615 351
L 616 351
L 618 351
L 619 351
L 621 351
L 623 351
L 624 351
L 626 351
L 627 351
L 629 351
L 631 351
L 632 351
L 634 351
L 635 351
L 637 351
L 638 351
L 640 351
L 642 351
L 643 351
L 645 351
L 646 351
L 648 351
L 650 351
L 651 351
L 653 351
L 654 351
L 656 351
L 658 351
L 659 351
L 661 351
L 662 351
L 664 351
L 666 351
L 667 351
L 669 351
L 670 351
L 672 350
L 673 351
L 675 351
L 677 351
L 678 351
L 680 351
L 681 351
L 683 351
L 685 351
L 686 351
L 688 351
L 689 351
L 691 351
L 693 351
L 694 351
L 696 351
L 697 351
L 699 351
L 701 351
L 702 351
L 704 351
L 705 351
L 707 351
L 709 351
L 710 351
L 712 351
L 713 351
L 715 351
L 716 351
L 718 351
L 720 351
L 721 351
L 723 351
L 724 351
L 726 351
L 728 351
L 729 351
L 731 351
L 732 351
L 734 351
L 736 351
L 737 351
L 739 351
L 740 351
L 742 351
L 744 351
L 745 351
L 747 351
L 748 351
L 750 351
L 751 351
L 753 351
L 755 351
L 756 351
L 758 351
L 759 351
L 761 351
L 763 351
L 764 351
L 766 351
L 767 351
L 769 351
L 771 351
L 772 351
L 774 351
L 775 351
L 777 351
L 779 351
L 780 351
L 782 351
L 783 351
L 785 351
L 786 351
L 788 351
L 790 351
L 791 351
L 793 351
L 794 351
L 796 351
L 798 351
L 799 351
L 801 351
L 802 351
L 804 351
L 806 351
L 807 351
L 809 351
L 810 351
L 812 351
L 814 351
L 815 351
L 817 351
L 818 351
L 820 351
L 821 351
L 823 351
L 825 351
L 826 351
L 828 351
L 829 351
L 831 351
L 833 351
L 834 351
L 836 351
L 837 351
L 839 351
L 841 351
L 842 351
L 844 351
L 845 351
L 847 351
L 849 351
L 850 351
L 852 351
L 853 351
L 855 351
L 857 351
L 858 351
L 860 351
L 861 351
L 863 351
L 864 351
L 866 351
L 868 351
L 869 351
L 871 351
L 872 351
L 874 351
L 876 351
L 877 351
L 879 351
L 880 351
L 882 351
L 884 351
L 885 351
L 887 351
L 888 351
L 890 351
L 892 351
L 893 351
L 895 351
L 896 351
L 898 351
L 899 351
L 901 351
L 903 351
L 904 351
L 906 351
L 907 351
L 909 351
L 911 351
L 912 351
L 914 351
L 915 351
L 917 351
L 919 351
L 920 351
L 922 351
L 923 351
L 925 351
L 927 351
L 928 351
L 930 351
L 931 351
L 933 351
L 934 351
L 936 351
L 938 351
L 939 351
L 941 351
L 942 351
L 944 351
L 946 351
L 947 351
L 949 351
L 950 351
L 952 351
L 954 351
L 955 351
L 957 351
L 958 351
L 960 351
L 962 351
L 963 351
L 965 351
L 966 351
L 968 351
L 969 351" style="stroke-width:1;stroke:rgba(217,0,116,1.0);fill:none"/><text x="361" y="33" style="stroke-width:0;stroke:none;fill:rgba(51,51,51,1.0);font-size:23.0px;font-family:'Roboto Medium',sans-serif">Eisenstadt(Stadt) 03.10.2021</text><path  d="M 38 11
L 251 11
L 251 91
L 38 91
L 38 11" style="stroke-width:1;stroke:rgba(51,51,51,1.0);fill:rgba(255,255,255,1.0)"/><text x="43" y="26" style="stroke-width:0;stroke:none;fill:rgba(51,51,51,1.0);font-size:10.2px;font-family:'Roboto Medium',sans-serif">Sieben Tage Durschnitt Inzidenz Fälle</text><path  d="M 221 21
L 241 21" style="stroke-width:1;stroke:rgba(0,116,217,1.0);fill:none"/><text x="43" y="56" style="stroke-width:0;stroke:none;fill:rgba(51,51,51,1.0);font-size:10.2px;font-family:'Roboto Medium',sans-serif">Anzahl Faelle</text><path  d="M 110 51
L 241 51" style="stroke-width:1;stroke:rgba(0,217,101,1.0);fill:none"/><text x="43" y="86" style="stroke-width:0;stroke:none;fill:rgba(51,51,51,1.0);font-size:10.2px;font-family:'Roboto Medium',sans-serif">Anzahl Tot</text><path  d="M 98 81
L 241 81" style="stroke-width:1;stroke:rgba(217,0,116,1.0);fill:none"/></svg>