<svg xmlns="http://www.w3.org/2000/svg" xmlns:xlink="http://www.w3.org/1999/xlink" width="1024" height="400">\n<path  d="M 0 0
L 1024 0
L 1024 400
L 0 400
L 0 0" style="stroke-width:0;stroke:rgba(255,255,255,1.0);fill:rgba(255,255,255,1.0)"/><path  d="M 38 11
L 969 11
L 969 351
L 38 351
L 38 11" style="stroke-width:0;stroke:rgba(255,255,255,1.0);fill:rgba(255,255,255,1.0)"/><path  d="M 38 351
L 969 351" style="stroke-width:1;stroke:rgba(51,51,51,1.0);fill:none"/><path  d="M 38 351
L 38 356" style="stroke-width:1;stroke:rgba(51,51,51,1.0);fill:none"/><text x="5" y="373" style="stroke-width:0;stroke:none;fill:rgba(51,51,51,1.0);font-size:12.8px;font-family:'Roboto Medium',sans-serif">2020-02-26</text><path  d="M 155 351
L 155 356" style="stroke-width:1;stroke:rgba(51,51,51,1.0);fill:none"/><text x="122" y="373" style="stroke-width:0;stroke:none;fill:rgba(51,51,51,1.0);font-size:12.8px;font-family:'Roboto Medium',sans-serif">2020-03-30</text><path  d="M 271 351
L 271 356" style="stroke-width:1;stroke:rgba(51,51,51,1.0);fill:none"/><text x="238" y="373" style="stroke-width:0;stroke:none;fill:rgba(51,51,51,1.0);font-size:12.8px;font-family:'Roboto Medium',sans-serif">2020-05-03</text><path  d="M 388 351
L 388 356" style="stroke-width:1;stroke:rgba(51,51,51,1.0);fill:none"/><text x="355" y="373" style="stroke-width:0;stroke:none;fill:rgba(51,51,51,1.0);font-size:12.8px;font-family:'Roboto Medium',sans-serif">2020-06-06</text><path  d="M 504 351
L 504 356" style="stroke-width:1;stroke:rgba(51,51,51,1.0);fill:none"/><text x="471" y="373" style="stroke-width:0;stroke:none;fill:rgba(51,51,51,1.0);font-size:12.8px;font-family:'Roboto Medium',sans-serif">2020-07-10</text><path  d="M 620 351
L 620 356" style="stroke-width:1;stroke:rgba(51,51,51,1.0);fill:none"/><text x="587" y="373" style="stroke-width:0;stroke:none;fill:rgba(51,51,51,1.0);font-size:12.8px;font-family:'Roboto Medium',sans-serif">2020-08-13</text><path  d="M 737 351
L 737 356" style="stroke-width:1;stroke:rgba(51,51,51,1.0);fill:none"/><text x="704" y="373" style="stroke-width:0;stroke:none;fill:rgba(51,51,51,1.0);font-size:12.8px;font-family:'Roboto Medium',sans-serif">2020-09-16</text><path  d="M 853 351
L 853 356" style="stroke-width:1;stroke:rgba(51,51,51,1.0);fill:none"/><text x="820" y="373" style="stroke-width:0;stroke:none;fill:rgba(51,51,51,1.0);font-size:12.8px;font-family:'Roboto Medium',sans-serif">2020-10-20</text><path  d="M 969 351
L 969 356" style="stroke-width:1;stroke:rgba(51,51,51,1.0);fill:none"/><text x="936" y="373" style="stroke-width:0;stroke:none;fill:rgba(51,51,51,1.0);font-size:12.8px;font-family:'Roboto Medium',sans-serif">2020-11-23</text><text x="485" y="395" style="stroke-width:0;stroke:none;fill:rgba(51,51,51,1.0);font-size:12.8px;font-family:'Roboto Medium',sans-serif">Datum</text><path  d="M 970 351
L 970 11" style="stroke-width:1;stroke:rgba(51,51,51,1.0);fill:none"/><path  d="M 970 351
L 975 351" style="stroke-width:1;stroke:rgba(51,51,51,1.0);fill:none"/><text x="980" y="357" style="stroke-width:0;stroke:none;fill:rgba(51,51,51,1.0);font-size:12.8px;font-family:'Roboto Medium',sans-serif">0.00</text><path  d="M 970 308
L 975 308" style="stroke-width:1;stroke:rgba(51,51,51,1.0);fill:none"/><text x="980" y="314" style="stroke-width:0;stroke:none;fill:rgba(51,51,51,1.0);font-size:12.8px;font-family:'Roboto Medium',sans-serif">93.00</text><path  d="M 970 266
L 975 266" style="stroke-width:1;stroke:rgba(51,51,51,1.0);fill:none"/><text x="980" y="272" style="stroke-width:0;stroke:none;fill:rgba(51,51,51,1.0);font-size:12.8px;font-family:'Roboto Medium',sans-serif">185.00</text><path  d="M 970 223
L 975 223" style="stroke-width:1;stroke:rgba(51,51,51,1.0);fill:none"/><text x="980" y="229" style="stroke-width:0;stroke:none;fill:rgba(51,51,51,1.0);font-size:12.8px;font-family:'Roboto Medium',sans-serif">278.00</text><path  d="M 970 181
L 975 181" style="stroke-width:1;stroke:rgba(51,51,51,1.0);fill:none"/><text x="980" y="187" style="stroke-width:0;stroke:none;fill:rgba(51,51,51,1.0);font-size:12.8px;font-family:'Roboto Medium',sans-serif">370.00</text><path  d="M 970 138
L 975 138" style="stroke-width:1;stroke:rgba(51,51,51,1.0);fill:none"/><text x="980" y="144" style="stroke-width:0;stroke:none;fill:rgba(51,51,51,1.0);font-size:12.8px;font-family:'Roboto Medium',sans-serif">463.00</text><path  d="M 970 96
L 975 96" style="stroke-width:1;stroke:rgba(51,51,51,1.0);fill:none"/><text x="980" y="102" style="stroke-width:0;stroke:none;fill:rgba(51,51,51,1.0);font-size:12.8px;font-family:'Roboto Medium',sans-serif">555.00</text><path  d="M 970 53
L 975 53" style="stroke-width:1;stroke:rgba(51,51,51,1.0);fill:none"/><text x="980" y="59" style="stroke-width:0;stroke:none;fill:rgba(51,51,51,1.0);font-size:12.8px;font-family:'Roboto Medium',sans-serif">648.00</text><path  d="M 970 11
L 975 11" style="stroke-width:1;stroke:rgba(51,51,51,1.0);fill:none"/><text x="980" y="17" style="stroke-width:0;stroke:none;fill:rgba(51,51,51,1.0);font-size:12.8px;font-family:'Roboto Medium',sans-serif">740.00</text><path  d="M 38 351
L 42 351
L 45 351
L 49 351
L 52 351
L 56 351
L 59 351
L 63 351
L 66 351
L 69 351
L 73 351
L 76 351
L 80 351
L 83 351
L 87 351
L 90 351
L 93 351
L 97 351
L 100 351
L 104 351
L 107 351
L 111 351
L 114 351
L 118 351
L 121 347
L 124 341
L 128 329
L 131 329
L 135 329
L 138 326
L 142 323
L 145 323
L 148 329
L 152 338
L 155 338
L 159 338
L 162 338
L 166 341
L 169 344
L 172 344
L 176 344
L 179 344
L 183 344
L 186 347
L 190 347
L 193 344
L 197 344
L 200 347
L 203 347
L 207 347
L 210 347
L 214 347
L 217 347
L 221 347
L 224 347
L 227 347
L 231 347
L 234 347
L 238 347
L 241 351
L 245 351
L 248 351
L 251 351
L 255 351
L 258 351
L 262 351
L 265 351
L 269 351
L 272 351
L 276 351
L 279 351
L 282 351
L 286 351
L 289 351
L 293 351
L 296 351
L 300 351
L 303 351
L 306 351
L 310 347
L 313 347
L 317 344
L 320 344
L 324 344
L 327 344
L 331 341
L 334 344
L 337 344
L 341 347
L 344 347
L 348 347
L 351 347
L 355 351
L 358 351
L 361 351
L 365 351
L 368 351
L 372 351
L 375 351
L 379 351
L 382 351
L 385 351
L 389 351
L 392 351
L 396 351
L 399 351
L 403 351
L 406 351
L 410 351
L 413 351
L 416 351
L 420 351
L 423 351
L 427 351
L 430 351
L 434 351
L 437 351
L 440 351
L 444 351
L 447 351
L 451 351
L 454 351
L 458 351
L 461 351
L 464 351
L 468 351
L 471 351
L 475 351
L 478 351
L 482 351
L 485 351
L 489 351
L 492 351
L 495 351
L 499 351
L 502 351
L 506 351
L 509 351
L 513 351
L 516 351
L 519 351
L 523 351
L 526 351
L 530 351
L 533 351
L 537 351
L 540 351
L 544 351
L 547 351
L 550 351
L 554 351
L 557 351
L 561 351
L 564 351
L 568 351
L 571 351
L 574 351
L 578 351
L 581 351
L 585 351
L 588 351
L 592 351
L 595 351
L 598 347
L 602 347
L 605 347
L 609 347
L 612 347
L 616 347
L 619 347
L 623 351
L 626 351
L 629 351
L 633 351
L 636 351
L 640 351
L 643 351
L 647 347
L 650 344
L 653 344
L 657 344
L 660 338
L 664 332
L 667 332
L 671 335
L 674 338
L 677 338
L 681 338
L 684 344
L 688 344
L 691 344
L 695 338
L 698 338
L 702 338
L 705 338
L 708 335
L 712 341
L 715 338
L 719 344
L 722 341
L 726 332
L 729 332
L 732 335
L 736 329
L 739 332
L 743 329
L 746 332
L 750 338
L 753 338
L 757 338
L 760 344
L 763 344
L 767 347
L 770 347
L 774 351
L 777 351
L 781 351
L 784 351
L 787 351
L 791 347
L 794 347
L 798 347
L 801 344
L 805 344
L 808 341
L 811 341
L 815 344
L 818 344
L 822 344
L 825 344
L 829 341
L 832 338
L 836 338
L 839 338
L 842 335
L 846 335
L 849 335
L 853 329
L 856 323
L 860 316
L 863 301
L 866 295
L 870 292
L 873 285
L 877 279
L 880 270
L 884 230
L 887 236
L 890 124
L 894 47
L 897 37
L 901 25
L 904 19
L 908 37
L 911 12
L 915 102
L 918 152
L 921 143
L 925 118
L 928 118
L 932 121
L 935 140
L 939 121
L 942 143
L 945 161
L 949 180
L 952 186
L 956 205
L 959 189
L 963 217
L 966 214
L 969 220" style="stroke-width:1;stroke:rgba(0,116,217,1.0);fill:none"/><path  d="M 38 351
L 42 351
L 45 351
L 49 351
L 52 351
L 56 351
L 59 351
L 63 351
L 66 351
L 69 351
L 73 351
L 76 351
L 80 351
L 83 351
L 87 351
L 90 351
L 93 351
L 97 351
L 100 351
L 104 351
L 107 351
L 111 351
L 114 351
L 118 351
L 121 350
L 124 350
L 128 349
L 131 351
L 135 351
L 138 350
L 142 350
L 145 350
L 148 351
L 152 350
L 155 351
L 159 351
L 162 350
L 166 351
L 169 351
L 172 351
L 176 350
L 179 351
L 183 351
L 186 351
L 190 351
L 193 350
L 197 351
L 200 351
L 203 351
L 207 351
L 210 351
L 214 351
L 217 350
L 221 351
L 224 351
L 227 351
L 231 351
L 234 351
L 238 351
L 241 351
L 245 351
L 248 351
L 251 351
L 255 351
L 258 351
L 262 351
L 265 351
L 269 351
L 272 351
L 276 351
L 279 351
L 282 351
L 286 351
L 289 351
L 293 351
L 296 351
L 300 351
L 303 351
L 306 351
L 310 350
L 313 351
L 317 350
L 320 351
L 324 351
L 327 351
L 331 350
L 334 351
L 337 351
L 341 351
L 344 351
L 348 351
L 351 351
L 355 351
L 358 351
L 361 351
L 365 351
L 368 351
L 372 351
L 375 351
L 379 351
L 382 351
L 385 351
L 389 351
L 392 351
L 396 351
L 399 351
L 403 351
L 406 351
L 410 351
L 413 351
L 416 351
L 420 351
L 423 351
L 427 351
L 430 351
L 434 351
L 437 351
L 440 351
L 444 351
L 447 351
L 451 351
L 454 351
L 458 351
L 461 351
L 464 351
L 468 351
L 471 351
L 475 351
L 478 351
L 482 351
L 485 351
L 489 351
L 492 351
L 495 351
L 499 351
L 502 351
L 506 351
L 509 351
L 513 351
L 516 351
L 519 351
L 523 351
L 526 351
L 530 351
L 533 351
L 537 351
L 540 351
L 544 351
L 547 351
L 550 351
L 554 351
L 557 351
L 561 351
L 564 351
L 568 351
L 571 351
L 574 351
L 578 351
L 581 351
L 585 351
L 588 351
L 592 351
L 595 351
L 598 350
L 602 351
L 605 351
L 609 351
L 612 351
L 616 351
L 619 351
L 623 351
L 626 351
L 629 351
L 633 351
L 636 351
L 640 351
L 643 351
L 647 350
L 650 350
L 653 351
L 657 351
L 660 350
L 664 350
L 667 351
L 671 351
L 674 351
L 677 351
L 681 351
L 684 351
L 688 350
L 691 351
L 695 350
L 698 351
L 702 351
L 705 351
L 708 350
L 712 351
L 715 350
L 719 351
L 722 350
L 726 349
L 729 351
L 732 351
L 736 350
L 739 351
L 743 350
L 746 351
L 750 350
L 753 351
L 757 351
L 760 351
L 763 351
L 767 351
L 770 351
L 774 351
L 777 351
L 781 351
L 784 351
L 787 351
L 791 350
L 794 351
L 798 351
L 801 350
L 805 351
L 808 350
L 811 351
L 815 351
L 818 351
L 822 351
L 825 350
L 829 350
L 832 350
L 836 351
L 839 351
L 842 350
L 846 351
L 849 350
L 853 349
L 856 349
L 860 350
L 863 348
L 866 349
L 870 350
L 873 349
L 877 348
L 880 347
L 884 344
L 887 349
L 890 333
L 894 339
L 897 348
L 901 346
L 904 346
L 908 346
L 911 345
L 915 346
L 918 346
L 921 346
L 925 343
L 928 346
L 932 347
L 935 348
L 939 343
L 942 349
L 945 349
L 949 345
L 952 347
L 956 350
L 959 346
L 963 347
L 966 349
L 969 350" style="stroke-width:1;stroke:rgba(0,217,101,1.0);fill:none"/><path  d="M 38 351
L 42 351
L 45 351
L 49 351
L 52 351
L 56 351
L 59 351
L 63 351
L 66 351
L 69 351
L 73 351
L 76 351
L 80 351
L 83 351
L 87 351
L 90 351
L 93 351
L 97 351
L 100 351
L 104 351
L 107 351
L 111 351
L 114 351
L 118 351
L 121 351
L 124 351
L 128 351
L 131 351
L 135 351
L 138 351
L 142 351
L 145 351
L 148 351
L 152 351
L 155 351
L 159 351
L 162 351
L 166 351
L 169 351
L 172 351
L 176 351
L 179 351
L 183 351
L 186 351
L 190 351
L 193 351
L 197 351
L 200 351
L 203 351
L 207 351
L 210 351
L 214 351
L 217 351
L 221 351
L 224 351
L 227 351
L 231 351
L 234 351
L 238 351
L 241 351
L 245 351
L 248 351
L 251 351
L 255 351
L 258 351
L 262 351
L 265 351
L 269 351
L 272 351
L 276 351
L 279 351
L 282 351
L 286 351
L 289 351
L 293 351
L 296 351
L 300 351
L 303 351
L 306 351
L 310 351
L 313 351
L 317 351
L 320 351
L 324 351
L 327 351
L 331 351
L 334 351
L 337 351
L 341 351
L 344 351
L 348 351
L 351 351
L 355 351
L 358 351
L 361 351
L 365 351
L 368 351
L 372 351
L 375 351
L 379 351
L 382 351
L 385 351
L 389 351
L 392 351
L 396 351
L 399 351
L 403 351
L 406 351
L 410 351
L 413 351
L 416 351
L 420 351
L 423 351
L 427 351
L 430 351
L 434 351
L 437 351
L 440 351
L 444 351
L 447 351
L 451 351
L 454 351
L 458 351
L 461 351
L 464 351
L 468 351
L 471 351
L 475 351
L 478 351
L 482 351
L 485 351
L 489 351
L 492 351
L 495 351
L 499 351
L 502 351
L 506 351
L 509 351
L 513 351
L 516 351
L 519 351
L 523 351
L 526 351
L 530 351
L 533 351
L 537 351
L 540 351
L 544 351
L 547 351
L 550 351
L 554 351
L 557 351
L 561 351
L 564 351
L 568 351
L 571 351
L 574 351
L 578 351
L 581 351
L 585 351
L 588 351
L 592 351
L 595 351
L 598 351
L 602 351
L 605 351
L 609 351
L 612 351
L 616 351
L 619 351
L 623 351
L 626 351
L 629 351
L 633 351
L 636 351
L 640 351
L 643 351
L 647 351
L 650 351
L 653 351
L 657 351
L 660 351
L 664 351
L 667 351
L 671 351
L 674 351
L 677 351
L 681 351
L 684 351
L 688 351
L 691 351
L 695 351
L 698 351
L 702 351
L 705 351
L 708 351
L 712 351
L 715 351
L 719 351
L 722 351
L 726 351
L 729 351
L 732 351
L 736 351
L 739 351
L 743 351
L 746 351
L 750 351
L 753 351
L 757 351
L 760 351
L 763 351
L 767 351
L 770 351
L 774 351
L 777 351
L 781 351
L 784 351
L 787 351
L 791 351
L 794 351
L 798 351
L 801 351
L 805 351
L 808 351
L 811 351
L 815 351
L 818 351
L 822 351
L 825 351
L 829 351
L 832 351
L 836 351
L 839 351
L 842 351
L 846 351
L 849 351
L 853 351
L 856 351
L 860 351
L 863 351
L 866 351
L 870 351
L 873 351
L 877 351
L 880 351
L 884 351
L 887 351
L 890 351
L 894 351
L 897 351
L 901 351
L 904 351
L 908 351
L 911 351
L 915 351
L 918 351
L 921 351
L 925 351
L 928 351
L 932 351
L 935 351
L 939 351
L 942 351
L 945 351
L 949 351
L 952 351
L 956 351
L 959 351
L 963 351
L 966 351
L 969 351" style="stroke-width:1;stroke:rgba(217,0,116,1.0);fill:none"/><text x="361" y="33" style="stroke-width:0;stroke:none;fill:rgba(51,51,51,1.0);font-size:23.0px;font-family:'Roboto Medium',sans-serif">Eisenstadt(Stadt) 23.11.2020</text><path  d="M 38 11
L 251 11
L 251 91
L 38 91
L 38 11" style="stroke-width:1;stroke:rgba(51,51,51,1.0);fill:rgba(255,255,255,1.0)"/><text x="43" y="26" style="stroke-width:0;stroke:none;fill:rgba(51,51,51,1.0);font-size:10.2px;font-family:'Roboto Medium',sans-serif">Sieben Tage Durschnitt Inzidenz Fälle</text><path  d="M 221 21
L 241 21" style="stroke-width:1;stroke:rgba(0,116,217,1.0);fill:none"/><text x="43" y="56" style="stroke-width:0;stroke:none;fill:rgba(51,51,51,1.0);font-size:10.2px;font-family:'Roboto Medium',sans-serif">Anzahl Faelle</text><path  d="M 110 51
L 241 51" style="stroke-width:1;stroke:rgba(0,217,101,1.0);fill:none"/><text x="43" y="86" style="stroke-width:0;stroke:none;fill:rgba(51,51,51,1.0);font-size:10.2px;font-family:'Roboto Medium',sans-serif">Anzahl Tot</text><path  d="M 98 81
L 241 81" style="stroke-width:1;stroke:rgba(217,0,116,1.0);fill:none"/></svg>