<svg xmlns="http://www.w3.org/2000/svg" xmlns:xlink="http://www.w3.org/1999/xlink" width="1024" height="400">\n<path  d="M 0 0
L 1024 0
L 1024 400
L 0 400
L 0 0" style="stroke-width:0;stroke:rgba(255,255,255,1.0);fill:rgba(255,255,255,1.0)"/><path  d="M 38 11
L 969 11
L 969 351
L 38 351
L 38 11" style="stroke-width:0;stroke:rgba(255,255,255,1.0);fill:rgba(255,255,255,1.0)"/><path  d="M 38 351
L 969 351" style="stroke-width:1;stroke:rgba(51,51,51,1.0);fill:none"/><path  d="M 38 351
L 38 356" style="stroke-width:1;stroke:rgba(51,51,51,1.0);fill:none"/><text x="5" y="373" style="stroke-width:0;stroke:none;fill:rgba(51,51,51,1.0);font-size:12.8px;font-family:'Roboto Medium',sans-serif">2020-02-26</text><path  d="M 155 351
L 155 356" style="stroke-width:1;stroke:rgba(51,51,51,1.0);fill:none"/><text x="122" y="373" style="stroke-width:0;stroke:none;fill:rgba(51,51,51,1.0);font-size:12.8px;font-family:'Roboto Medium',sans-serif">2020-05-03</text><path  d="M 271 351
L 271 356" style="stroke-width:1;stroke:rgba(51,51,51,1.0);fill:none"/><text x="238" y="373" style="stroke-width:0;stroke:none;fill:rgba(51,51,51,1.0);font-size:12.8px;font-family:'Roboto Medium',sans-serif">2020-07-10</text><path  d="M 388 351
L 388 356" style="stroke-width:1;stroke:rgba(51,51,51,1.0);fill:none"/><text x="355" y="373" style="stroke-width:0;stroke:none;fill:rgba(51,51,51,1.0);font-size:12.8px;font-family:'Roboto Medium',sans-serif">2020-09-15</text><path  d="M 504 351
L 504 356" style="stroke-width:1;stroke:rgba(51,51,51,1.0);fill:none"/><text x="471" y="373" style="stroke-width:0;stroke:none;fill:rgba(51,51,51,1.0);font-size:12.8px;font-family:'Roboto Medium',sans-serif">2020-11-22</text><path  d="M 620 351
L 620 356" style="stroke-width:1;stroke:rgba(51,51,51,1.0);fill:none"/><text x="587" y="373" style="stroke-width:0;stroke:none;fill:rgba(51,51,51,1.0);font-size:12.8px;font-family:'Roboto Medium',sans-serif">2021-01-28</text><path  d="M 737 351
L 737 356" style="stroke-width:1;stroke:rgba(51,51,51,1.0);fill:none"/><text x="704" y="373" style="stroke-width:0;stroke:none;fill:rgba(51,51,51,1.0);font-size:12.8px;font-family:'Roboto Medium',sans-serif">2021-04-06</text><path  d="M 853 351
L 853 356" style="stroke-width:1;stroke:rgba(51,51,51,1.0);fill:none"/><text x="820" y="373" style="stroke-width:0;stroke:none;fill:rgba(51,51,51,1.0);font-size:12.8px;font-family:'Roboto Medium',sans-serif">2021-06-12</text><path  d="M 969 351
L 969 356" style="stroke-width:1;stroke:rgba(51,51,51,1.0);fill:none"/><text x="936" y="373" style="stroke-width:0;stroke:none;fill:rgba(51,51,51,1.0);font-size:12.8px;font-family:'Roboto Medium',sans-serif">2021-08-19</text><text x="485" y="395" style="stroke-width:0;stroke:none;fill:rgba(51,51,51,1.0);font-size:12.8px;font-family:'Roboto Medium',sans-serif">Datum</text><path  d="M 970 351
L 970 11" style="stroke-width:1;stroke:rgba(51,51,51,1.0);fill:none"/><path  d="M 970 351
L 975 351" style="stroke-width:1;stroke:rgba(51,51,51,1.0);fill:none"/><text x="980" y="357" style="stroke-width:0;stroke:none;fill:rgba(51,51,51,1.0);font-size:12.8px;font-family:'Roboto Medium',sans-serif">0.00</text><path  d="M 970 308
L 975 308" style="stroke-width:1;stroke:rgba(51,51,51,1.0);fill:none"/><text x="980" y="314" style="stroke-width:0;stroke:none;fill:rgba(51,51,51,1.0);font-size:12.8px;font-family:'Roboto Medium',sans-serif">97.00</text><path  d="M 970 265
L 975 265" style="stroke-width:1;stroke:rgba(51,51,51,1.0);fill:none"/><text x="980" y="271" style="stroke-width:0;stroke:none;fill:rgba(51,51,51,1.0);font-size:12.8px;font-family:'Roboto Medium',sans-serif">193.00</text><path  d="M 970 223
L 975 223" style="stroke-width:1;stroke:rgba(51,51,51,1.0);fill:none"/><text x="980" y="229" style="stroke-width:0;stroke:none;fill:rgba(51,51,51,1.0);font-size:12.8px;font-family:'Roboto Medium',sans-serif">289.00</text><path  d="M 970 181
L 975 181" style="stroke-width:1;stroke:rgba(51,51,51,1.0);fill:none"/><text x="980" y="187" style="stroke-width:0;stroke:none;fill:rgba(51,51,51,1.0);font-size:12.8px;font-family:'Roboto Medium',sans-serif">385.00</text><path  d="M 970 138
L 975 138" style="stroke-width:1;stroke:rgba(51,51,51,1.0);fill:none"/><text x="980" y="144" style="stroke-width:0;stroke:none;fill:rgba(51,51,51,1.0);font-size:12.8px;font-family:'Roboto Medium',sans-serif">482.00</text><path  d="M 970 95
L 975 95" style="stroke-width:1;stroke:rgba(51,51,51,1.0);fill:none"/><text x="980" y="101" style="stroke-width:0;stroke:none;fill:rgba(51,51,51,1.0);font-size:12.8px;font-family:'Roboto Medium',sans-serif">578.00</text><path  d="M 970 53
L 975 53" style="stroke-width:1;stroke:rgba(51,51,51,1.0);fill:none"/><text x="980" y="59" style="stroke-width:0;stroke:none;fill:rgba(51,51,51,1.0);font-size:12.8px;font-family:'Roboto Medium',sans-serif">674.00</text><path  d="M 970 11
L 975 11" style="stroke-width:1;stroke:rgba(51,51,51,1.0);fill:none"/><text x="980" y="17" style="stroke-width:0;stroke:none;fill:rgba(51,51,51,1.0);font-size:12.8px;font-family:'Roboto Medium',sans-serif">770.00</text><path  d="M 38 351
L 40 351
L 42 351
L 44 351
L 45 351
L 47 351
L 49 351
L 51 351
L 52 351
L 54 351
L 56 351
L 57 351
L 59 351
L 61 351
L 63 351
L 64 351
L 66 350
L 68 344
L 70 344
L 71 339
L 73 336
L 75 332
L 76 326
L 78 322
L 80 322
L 82 316
L 83 314
L 85 313
L 87 316
L 88 318
L 90 317
L 92 318
L 94 323
L 95 329
L 97 331
L 99 331
L 101 333
L 102 336
L 104 340
L 106 341
L 107 341
L 109 342
L 111 342
L 113 344
L 114 346
L 116 345
L 118 345
L 120 347
L 121 347
L 123 347
L 125 347
L 126 348
L 128 348
L 130 349
L 132 348
L 133 349
L 135 350
L 137 350
L 138 350
L 140 350
L 142 350
L 144 351
L 145 351
L 147 351
L 149 350
L 151 350
L 152 350
L 154 350
L 156 350
L 157 350
L 159 350
L 161 351
L 163 351
L 164 351
L 166 351
L 168 351
L 170 351
L 171 351
L 173 351
L 175 351
L 176 351
L 178 351
L 180 351
L 182 350
L 183 350
L 185 350
L 187 350
L 188 350
L 190 350
L 192 350
L 194 351
L 195 351
L 197 351
L 199 351
L 201 350
L 202 350
L 204 350
L 206 350
L 207 350
L 209 350
L 211 350
L 213 351
L 214 351
L 216 351
L 218 351
L 220 351
L 221 351
L 223 351
L 225 351
L 226 351
L 228 351
L 230 351
L 232 351
L 233 351
L 235 351
L 237 351
L 238 350
L 240 350
L 242 350
L 244 350
L 245 350
L 247 349
L 249 349
L 251 350
L 252 350
L 254 350
L 256 350
L 257 350
L 259 351
L 261 351
L 263 351
L 264 351
L 266 351
L 268 351
L 270 351
L 271 351
L 273 351
L 275 351
L 276 351
L 278 351
L 280 350
L 282 350
L 283 350
L 285 350
L 287 350
L 288 350
L 290 350
L 292 348
L 294 348
L 295 347
L 297 347
L 299 347
L 301 347
L 302 347
L 304 348
L 306 349
L 307 349
L 309 350
L 311 350
L 313 350
L 314 350
L 316 350
L 318 349
L 320 349
L 321 349
L 323 348
L 325 348
L 326 348
L 328 348
L 330 346
L 332 346
L 333 346
L 335 346
L 337 346
L 338 346
L 340 346
L 342 348
L 344 348
L 345 348
L 347 348
L 349 348
L 351 349
L 352 348
L 354 349
L 356 349
L 357 349
L 359 348
L 361 348
L 363 348
L 364 348
L 366 347
L 368 344
L 370 344
L 371 342
L 373 339
L 375 338
L 376 336
L 378 333
L 380 330
L 382 331
L 383 329
L 385 327
L 387 327
L 388 326
L 390 328
L 392 332
L 394 329
L 395 333
L 397 333
L 399 333
L 401 335
L 402 334
L 404 330
L 406 331
L 407 328
L 409 328
L 411 327
L 413 325
L 414 319
L 416 315
L 418 308
L 420 304
L 421 306
L 423 300
L 425 299
L 426 300
L 428 299
L 430 299
L 432 299
L 433 297
L 435 302
L 437 295
L 438 284
L 440 285
L 442 280
L 444 272
L 445 267
L 447 263
L 449 254
L 451 253
L 452 238
L 454 225
L 456 229
L 457 220
L 459 205
L 461 215
L 463 196
L 464 182
L 466 182
L 468 156
L 470 150
L 471 135
L 473 96
L 475 97
L 476 88
L 478 72
L 480 69
L 482 57
L 483 43
L 485 54
L 487 11
L 488 19
L 490 26
L 492 40
L 494 30
L 495 52
L 497 35
L 499 79
L 501 78
L 502 78
L 504 90
L 506 127
L 507 131
L 509 148
L 511 154
L 513 172
L 514 195
L 516 199
L 518 197
L 520 202
L 521 224
L 523 244
L 525 246
L 526 225
L 528 208
L 530 204
L 532 218
L 533 218
L 535 208
L 537 214
L 538 231
L 540 247
L 542 255
L 544 250
L 545 254
L 547 259
L 549 262
L 551 263
L 552 263
L 554 262
L 556 260
L 557 246
L 559 256
L 561 258
L 563 270
L 564 271
L 566 273
L 568 262
L 570 272
L 571 267
L 573 267
L 575 265
L 576 257
L 578 252
L 580 266
L 582 264
L 583 260
L 585 262
L 587 254
L 588 265
L 590 267
L 592 273
L 594 280
L 595 280
L 597 280
L 599 281
L 601 281
L 602 280
L 604 280
L 606 278
L 607 266
L 609 268
L 611 276
L 613 280
L 614 285
L 616 287
L 618 295
L 620 313
L 621 318
L 623 311
L 625 313
L 626 313
L 628 313
L 630 312
L 632 311
L 633 310
L 635 316
L 637 313
L 638 311
L 640 307
L 642 307
L 644 310
L 645 308
L 647 301
L 649 301
L 651 306
L 652 306
L 654 306
L 656 306
L 657 307
L 659 313
L 661 317
L 663 312
L 664 316
L 666 318
L 668 317
L 670 319
L 671 318
L 673 314
L 675 314
L 676 313
L 678 310
L 680 307
L 682 305
L 683 306
L 685 306
L 687 307
L 688 304
L 690 308
L 692 312
L 694 310
L 695 309
L 697 310
L 699 310
L 701 316
L 702 313
L 704 313
L 706 315
L 707 313
L 709 312
L 711 309
L 713 310
L 714 307
L 716 302
L 718 301
L 720 299
L 721 297
L 723 297
L 725 294
L 726 297
L 728 297
L 730 295
L 732 295
L 733 300
L 735 306
L 737 302
L 738 297
L 740 295
L 742 295
L 744 294
L 745 285
L 747 276
L 749 275
L 751 272
L 752 271
L 754 271
L 756 273
L 757 272
L 759 272
L 761 270
L 763 274
L 764 270
L 766 265
L 768 259
L 770 259
L 771 259
L 773 249
L 775 249
L 776 248
L 778 246
L 780 246
L 782 246
L 783 247
L 785 259
L 787 262
L 788 261
L 790 266
L 792 271
L 794 278
L 795 282
L 797 287
L 799 287
L 801 296
L 802 302
L 804 304
L 806 304
L 807 306
L 809 308
L 811 312
L 813 314
L 814 318
L 816 322
L 818 324
L 820 324
L 821 322
L 823 322
L 825 325
L 826 325
L 828 325
L 830 325
L 832 325
L 833 328
L 835 329
L 837 331
L 838 331
L 840 332
L 842 333
L 844 336
L 845 340
L 847 342
L 849 343
L 851 342
L 852 343
L 854 344
L 856 344
L 857 343
L 859 344
L 861 342
L 863 342
L 864 343
L 866 344
L 868 342
L 870 343
L 871 342
L 873 344
L 875 345
L 876 346
L 878 346
L 880 347
L 882 348
L 883 348
L 885 348
L 887 348
L 888 348
L 890 348
L 892 349
L 894 349
L 895 349
L 897 349
L 899 348
L 901 348
L 902 348
L 904 347
L 906 346
L 907 345
L 909 344
L 911 344
L 913 342
L 914 341
L 916 338
L 918 336
L 920 336
L 921 331
L 923 331
L 925 332
L 926 327
L 928 328
L 930 329
L 932 330
L 933 332
L 935 331
L 937 328
L 938 333
L 940 330
L 942 326
L 944 321
L 945 318
L 947 317
L 949 314
L 951 312
L 952 312
L 954 312
L 956 316
L 957 316
L 959 317
L 961 321
L 963 323
L 964 323
L 966 322
L 968 322
L 969 318" style="stroke-width:1;stroke:rgba(0,116,217,1.0);fill:none"/><path  d="M 38 351
L 40 351
L 42 351
L 44 351
L 45 351
L 47 351
L 49 351
L 51 351
L 52 351
L 54 351
L 56 351
L 57 351
L 59 351
L 61 351
L 63 351
L 64 351
L 66 350
L 68 345
L 70 350
L 71 346
L 73 347
L 75 347
L 76 344
L 78 345
L 80 345
L 82 343
L 83 343
L 85 346
L 87 349
L 88 347
L 90 344
L 92 346
L 94 349
L 95 349
L 97 349
L 99 349
L 101 349
L 102 347
L 104 351
L 106 350
L 107 349
L 109 350
L 111 350
L 113 351
L 114 349
L 116 350
L 118 350
L 120 351
L 121 350
L 123 350
L 125 351
L 126 350
L 128 351
L 130 351
L 132 350
L 133 351
L 135 351
L 137 351
L 138 351
L 140 351
L 142 351
L 144 351
L 145 351
L 147 351
L 149 350
L 151 351
L 152 351
L 154 351
L 156 351
L 157 351
L 159 351
L 161 351
L 163 351
L 164 351
L 166 351
L 168 351
L 170 351
L 171 351
L 173 351
L 175 351
L 176 351
L 178 351
L 180 351
L 182 350
L 183 351
L 185 351
L 187 351
L 188 351
L 190 351
L 192 351
L 194 351
L 195 351
L 197 351
L 199 351
L 201 350
L 202 351
L 204 351
L 206 351
L 207 351
L 209 351
L 211 351
L 213 351
L 214 351
L 216 351
L 218 351
L 220 351
L 221 351
L 223 351
L 225 351
L 226 351
L 228 351
L 230 351
L 232 351
L 233 351
L 235 351
L 237 351
L 238 350
L 240 351
L 242 351
L 244 351
L 245 351
L 247 350
L 249 351
L 251 351
L 252 351
L 254 351
L 256 351
L 257 351
L 259 351
L 261 351
L 263 351
L 264 351
L 266 351
L 268 351
L 270 351
L 271 351
L 273 351
L 275 351
L 276 351
L 278 351
L 280 350
L 282 351
L 283 351
L 285 351
L 287 350
L 288 351
L 290 351
L 292 348
L 294 350
L 295 350
L 297 350
L 299 351
L 301 351
L 302 351
L 304 350
L 306 351
L 307 351
L 309 351
L 311 351
L 313 351
L 314 351
L 316 350
L 318 350
L 320 351
L 321 351
L 323 349
L 325 351
L 326 350
L 328 350
L 330 349
L 332 350
L 333 351
L 335 350
L 337 351
L 338 350
L 340 350
L 342 350
L 344 351
L 345 350
L 347 351
L 349 351
L 351 350
L 352 350
L 354 351
L 356 351
L 357 350
L 359 350
L 361 350
L 363 350
L 364 350
L 366 350
L 368 347
L 370 350
L 371 347
L 373 347
L 375 349
L 376 348
L 378 346
L 380 345
L 382 351
L 383 346
L 385 344
L 387 349
L 388 346
L 390 348
L 392 349
L 394 348
L 395 349
L 397 345
L 399 348
L 401 348
L 402 348
L 404 344
L 406 349
L 407 347
L 409 345
L 411 347
L 413 347
L 414 341
L 416 340
L 418 342
L 420 342
L 421 347
L 423 340
L 425 345
L 426 343
L 428 338
L 430 343
L 432 342
L 433 345
L 435 346
L 437 338
L 438 330
L 440 339
L 442 336
L 444 334
L 445 339
L 447 340
L 449 328
L 451 329
L 452 323
L 454 322
L 456 339
L 457 329
L 459 324
L 461 339
L 463 309
L 464 307
L 466 323
L 468 310
L 470 323
L 471 307
L 473 297
L 475 311
L 476 297
L 478 305
L 480 307
L 482 310
L 483 292
L 485 309
L 487 264
L 488 306
L 490 313
L 492 321
L 494 299
L 495 316
L 497 290
L 499 312
L 501 305
L 502 313
L 504 334
L 506 340
L 507 320
L 509 309
L 511 318
L 513 325
L 514 338
L 516 338
L 518 338
L 520 326
L 521 332
L 523 340
L 525 327
L 526 315
L 528 319
L 530 334
L 532 342
L 533 332
L 535 329
L 537 334
L 538 333
L 540 337
L 542 343
L 544 336
L 545 336
L 547 335
L 549 338
L 551 335
L 552 336
L 554 342
L 556 333
L 557 321
L 559 346
L 561 339
L 563 348
L 564 337
L 566 344
L 568 322
L 570 331
L 571 341
L 573 339
L 575 346
L 576 329
L 578 338
L 580 338
L 582 328
L 583 336
L 585 341
L 587 337
L 588 341
L 590 341
L 592 343
L 594 337
L 595 336
L 597 340
L 599 339
L 601 341
L 602 341
L 604 343
L 606 335
L 607 323
L 609 343
L 611 347
L 613 345
L 614 346
L 616 345
L 618 345
L 620 342
L 621 348
L 623 340
L 625 347
L 626 346
L 628 345
L 630 343
L 632 341
L 633 347
L 635 347
L 637 343
L 638 344
L 640 340
L 642 343
L 644 345
L 645 344
L 647 339
L 649 344
L 651 349
L 652 339
L 654 344
L 656 345
L 657 345
L 659 347
L 661 348
L 663 344
L 664 344
L 666 346
L 668 345
L 670 347
L 671 345
L 673 343
L 675 344
L 676 342
L 678 342
L 680 342
L 682 345
L 683 346
L 685 344
L 687 345
L 688 339
L 690 347
L 692 346
L 694 342
L 695 346
L 697 346
L 699 345
L 701 345
L 702 343
L 704 347
L 706 343
L 707 344
L 709 345
L 711 342
L 713 346
L 714 339
L 716 341
L 718 343
L 720 343
L 721 342
L 723 342
L 725 343
L 726 343
L 728 341
L 730 340
L 732 342
L 733 348
L 735 349
L 737 338
L 738 338
L 740 339
L 742 340
L 744 341
L 745 338
L 747 339
L 749 337
L 751 335
L 752 338
L 754 340
L 756 343
L 757 337
L 759 338
L 761 335
L 763 338
L 764 333
L 766 335
L 768 336
L 770 337
L 771 339
L 773 325
L 775 338
L 776 332
L 778 333
L 780 337
L 782 336
L 783 340
L 785 337
L 787 342
L 788 331
L 790 338
L 792 343
L 794 344
L 795 344
L 797 343
L 799 343
L 801 341
L 802 345
L 804 344
L 806 344
L 807 347
L 809 344
L 811 347
L 813 343
L 814 348
L 816 348
L 818 347
L 820 347
L 821 342
L 823 347
L 825 347
L 826 349
L 828 347
L 830 347
L 832 347
L 833 346
L 835 347
L 837 349
L 838 350
L 840 348
L 842 348
L 844 351
L 845 350
L 847 350
L 849 351
L 851 349
L 852 348
L 854 350
L 856 350
L 857 349
L 859 350
L 861 349
L 863 348
L 864 350
L 866 350
L 868 349
L 870 349
L 871 350
L 873 351
L 875 350
L 876 351
L 878 350
L 880 350
L 882 350
L 883 351
L 885 351
L 887 350
L 888 350
L 890 351
L 892 351
L 894 351
L 895 351
L 897 351
L 899 348
L 901 350
L 902 350
L 904 350
L 906 350
L 907 349
L 909 350
L 911 349
L 913 347
L 914 349
L 916 347
L 918 347
L 920 348
L 921 345
L 923 348
L 925 348
L 926 344
L 928 348
L 930 348
L 932 349
L 933 347
L 935 347
L 937 346
L 938 349
L 940 345
L 942 344
L 944 343
L 945 344
L 947 346
L 949 343
L 951 346
L 952 346
L 954 344
L 956 347
L 957 345
L 959 347
L 961 346
L 963 349
L 964 345
L 966 343
L 968 347
L 969 340" style="stroke-width:1;stroke:rgba(0,217,101,1.0);fill:none"/><path  d="M 38 351
L 40 351
L 42 351
L 44 351
L 45 351
L 47 351
L 49 351
L 51 351
L 52 351
L 54 351
L 56 351
L 57 351
L 59 351
L 61 351
L 63 351
L 64 351
L 66 351
L 68 351
L 70 351
L 71 351
L 73 351
L 75 351
L 76 351
L 78 351
L 80 351
L 82 351
L 83 351
L 85 351
L 87 351
L 88 351
L 90 351
L 92 351
L 94 351
L 95 351
L 97 351
L 99 351
L 101 351
L 102 351
L 104 351
L 106 351
L 107 351
L 109 350
L 111 351
L 113 351
L 114 351
L 116 351
L 118 351
L 120 351
L 121 351
L 123 351
L 125 351
L 126 351
L 128 351
L 130 351
L 132 351
L 133 351
L 135 351
L 137 351
L 138 351
L 140 351
L 142 351
L 144 351
L 145 351
L 147 351
L 149 351
L 151 351
L 152 351
L 154 351
L 156 351
L 157 351
L 159 351
L 161 351
L 163 351
L 164 351
L 166 351
L 168 351
L 170 351
L 171 351
L 173 351
L 175 351
L 176 351
L 178 351
L 180 351
L 182 351
L 183 351
L 185 351
L 187 351
L 188 351
L 190 351
L 192 351
L 194 351
L 195 351
L 197 351
L 199 351
L 201 351
L 202 351
L 204 351
L 206 351
L 207 351
L 209 351
L 211 351
L 213 351
L 214 351
L 216 351
L 218 351
L 220 351
L 221 351
L 223 351
L 225 351
L 226 351
L 228 351
L 230 351
L 232 351
L 233 351
L 235 351
L 237 351
L 238 351
L 240 351
L 242 351
L 244 351
L 245 351
L 247 351
L 249 351
L 251 351
L 252 351
L 254 351
L 256 351
L 257 351
L 259 351
L 261 351
L 263 351
L 264 351
L 266 351
L 268 351
L 270 351
L 271 351
L 273 351
L 275 351
L 276 351
L 278 351
L 280 351
L 282 351
L 283 351
L 285 351
L 287 351
L 288 351
L 290 351
L 292 351
L 294 351
L 295 351
L 297 351
L 299 351
L 301 351
L 302 351
L 304 351
L 306 351
L 307 351
L 309 351
L 311 351
L 313 351
L 314 351
L 316 351
L 318 351
L 320 351
L 321 351
L 323 351
L 325 351
L 326 351
L 328 351
L 330 350
L 332 351
L 333 351
L 335 351
L 337 351
L 338 351
L 340 351
L 342 351
L 344 351
L 345 351
L 347 351
L 349 351
L 351 351
L 352 351
L 354 351
L 356 351
L 357 351
L 359 351
L 361 351
L 363 351
L 364 351
L 366 351
L 368 351
L 370 351
L 371 351
L 373 351
L 375 351
L 376 351
L 378 351
L 380 351
L 382 351
L 383 351
L 385 351
L 387 351
L 388 351
L 390 351
L 392 351
L 394 351
L 395 350
L 397 351
L 399 351
L 401 351
L 402 351
L 404 351
L 406 351
L 407 351
L 409 351
L 411 351
L 413 351
L 414 351
L 416 351
L 418 350
L 420 351
L 421 351
L 423 351
L 425 351
L 426 351
L 428 351
L 430 351
L 432 351
L 433 351
L 435 351
L 437 351
L 438 351
L 440 351
L 442 351
L 444 351
L 445 351
L 447 351
L 449 351
L 451 351
L 452 351
L 454 351
L 456 350
L 457 351
L 459 351
L 461 351
L 463 350
L 464 351
L 466 351
L 468 350
L 470 351
L 471 351
L 473 350
L 475 351
L 476 350
L 478 351
L 480 350
L 482 350
L 483 351
L 485 350
L 487 351
L 488 350
L 490 350
L 492 351
L 494 351
L 495 351
L 497 351
L 499 351
L 501 350
L 502 350
L 504 350
L 506 351
L 507 350
L 509 350
L 511 350
L 513 350
L 514 350
L 516 350
L 518 349
L 520 350
L 521 350
L 523 351
L 525 349
L 526 350
L 528 350
L 530 350
L 532 350
L 533 350
L 535 350
L 537 351
L 538 350
L 540 351
L 542 351
L 544 350
L 545 351
L 547 350
L 549 350
L 551 350
L 552 350
L 554 350
L 556 350
L 557 351
L 559 350
L 561 351
L 563 350
L 564 350
L 566 351
L 568 351
L 570 351
L 571 351
L 573 351
L 575 351
L 576 350
L 578 351
L 580 350
L 582 351
L 583 350
L 585 351
L 587 350
L 588 351
L 590 351
L 592 350
L 594 351
L 595 351
L 597 351
L 599 350
L 601 351
L 602 351
L 604 351
L 606 351
L 607 351
L 609 351
L 611 351
L 613 351
L 614 351
L 616 351
L 618 350
L 620 351
L 621 351
L 623 351
L 625 351
L 626 351
L 628 351
L 630 351
L 632 351
L 633 351
L 635 351
L 637 351
L 638 351
L 640 351
L 642 351
L 644 351
L 645 351
L 647 351
L 649 351
L 651 351
L 652 351
L 654 351
L 656 351
L 657 351
L 659 351
L 661 351
L 663 350
L 664 351
L 666 351
L 668 351
L 670 351
L 671 351
L 673 351
L 675 351
L 676 351
L 678 351
L 680 351
L 682 351
L 683 351
L 685 351
L 687 351
L 688 351
L 690 351
L 692 351
L 694 351
L 695 350
L 697 351
L 699 351
L 701 351
L 702 351
L 704 350
L 706 351
L 707 351
L 709 350
L 711 351
L 713 351
L 714 351
L 716 351
L 718 351
L 720 351
L 721 351
L 723 351
L 725 351
L 726 351
L 728 350
L 730 351
L 732 351
L 733 351
L 735 351
L 737 351
L 738 351
L 740 351
L 742 351
L 744 351
L 745 351
L 747 351
L 749 351
L 751 351
L 752 351
L 754 351
L 756 351
L 757 351
L 759 351
L 761 351
L 763 351
L 764 351
L 766 351
L 768 350
L 770 351
L 771 351
L 773 351
L 775 351
L 776 351
L 778 351
L 780 351
L 782 351
L 783 351
L 785 351
L 787 351
L 788 351
L 790 351
L 792 351
L 794 351
L 795 351
L 797 351
L 799 351
L 801 351
L 802 351
L 804 351
L 806 351
L 807 351
L 809 351
L 811 351
L 813 351
L 814 351
L 816 351
L 818 351
L 820 351
L 821 351
L 823 351
L 825 351
L 826 351
L 828 351
L 830 351
L 832 351
L 833 351
L 835 351
L 837 351
L 838 351
L 840 351
L 842 351
L 844 351
L 845 351
L 847 351
L 849 351
L 851 351
L 852 351
L 854 351
L 856 351
L 857 351
L 859 351
L 861 351
L 863 351
L 864 351
L 866 351
L 868 351
L 870 351
L 871 351
L 873 351
L 875 351
L 876 351
L 878 351
L 880 351
L 882 351
L 883 351
L 885 351
L 887 351
L 888 351
L 890 351
L 892 351
L 894 351
L 895 351
L 897 351
L 899 351
L 901 351
L 902 351
L 904 351
L 906 351
L 907 351
L 909 351
L 911 351
L 913 351
L 914 351
L 916 351
L 918 351
L 920 351
L 921 351
L 923 351
L 925 351
L 926 351
L 928 351
L 930 351
L 932 351
L 933 351
L 935 351
L 937 351
L 938 351
L 940 351
L 942 351
L 944 351
L 945 351
L 947 351
L 949 351
L 951 351
L 952 351
L 954 351
L 956 351
L 957 351
L 959 351
L 961 351
L 963 351
L 964 351
L 966 351
L 968 351
L 969 351" style="stroke-width:1;stroke:rgba(217,0,116,1.0);fill:none"/><text x="403" y="33" style="stroke-width:0;stroke:none;fill:rgba(51,51,51,1.0);font-size:23.0px;font-family:'Roboto Medium',sans-serif">Feldkirch 19.08.2021</text><path  d="M 38 11
L 251 11
L 251 91
L 38 91
L 38 11" style="stroke-width:1;stroke:rgba(51,51,51,1.0);fill:rgba(255,255,255,1.0)"/><text x="43" y="26" style="stroke-width:0;stroke:none;fill:rgba(51,51,51,1.0);font-size:10.2px;font-family:'Roboto Medium',sans-serif">Sieben Tage Durschnitt Inzidenz Fälle</text><path  d="M 221 21
L 241 21" style="stroke-width:1;stroke:rgba(0,116,217,1.0);fill:none"/><text x="43" y="56" style="stroke-width:0;stroke:none;fill:rgba(51,51,51,1.0);font-size:10.2px;font-family:'Roboto Medium',sans-serif">Anzahl Faelle</text><path  d="M 110 51
L 241 51" style="stroke-width:1;stroke:rgba(0,217,101,1.0);fill:none"/><text x="43" y="86" style="stroke-width:0;stroke:none;fill:rgba(51,51,51,1.0);font-size:10.2px;font-family:'Roboto Medium',sans-serif">Anzahl Tot</text><path  d="M 98 81
L 241 81" style="stroke-width:1;stroke:rgba(217,0,116,1.0);fill:none"/></svg>