<svg xmlns="http://www.w3.org/2000/svg" xmlns:xlink="http://www.w3.org/1999/xlink" width="1024" height="400">\n<path  d="M 0 0
L 1024 0
L 1024 400
L 0 400
L 0 0" style="stroke-width:0;stroke:rgba(255,255,255,1.0);fill:rgba(255,255,255,1.0)"/><path  d="M 38 11
L 961 11
L 961 351
L 38 351
L 38 11" style="stroke-width:0;stroke:rgba(255,255,255,1.0);fill:rgba(255,255,255,1.0)"/><path  d="M 38 351
L 961 351" style="stroke-width:1;stroke:rgba(51,51,51,1.0);fill:none"/><path  d="M 38 351
L 38 356" style="stroke-width:1;stroke:rgba(51,51,51,1.0);fill:none"/><text x="5" y="373" style="stroke-width:0;stroke:none;fill:rgba(51,51,51,1.0);font-size:12.8px;font-family:'Roboto Medium',sans-serif">2020-02-26</text><path  d="M 154 351
L 154 356" style="stroke-width:1;stroke:rgba(51,51,51,1.0);fill:none"/><text x="121" y="373" style="stroke-width:0;stroke:none;fill:rgba(51,51,51,1.0);font-size:12.8px;font-family:'Roboto Medium',sans-serif">2020-05-10</text><path  d="M 269 351
L 269 356" style="stroke-width:1;stroke:rgba(51,51,51,1.0);fill:none"/><text x="236" y="373" style="stroke-width:0;stroke:none;fill:rgba(51,51,51,1.0);font-size:12.8px;font-family:'Roboto Medium',sans-serif">2020-07-24</text><path  d="M 385 351
L 385 356" style="stroke-width:1;stroke:rgba(51,51,51,1.0);fill:none"/><text x="352" y="373" style="stroke-width:0;stroke:none;fill:rgba(51,51,51,1.0);font-size:12.8px;font-family:'Roboto Medium',sans-serif">2020-10-06</text><path  d="M 500 351
L 500 356" style="stroke-width:1;stroke:rgba(51,51,51,1.0);fill:none"/><text x="467" y="373" style="stroke-width:0;stroke:none;fill:rgba(51,51,51,1.0);font-size:12.8px;font-family:'Roboto Medium',sans-serif">2020-12-20</text><path  d="M 615 351
L 615 356" style="stroke-width:1;stroke:rgba(51,51,51,1.0);fill:none"/><text x="582" y="373" style="stroke-width:0;stroke:none;fill:rgba(51,51,51,1.0);font-size:12.8px;font-family:'Roboto Medium',sans-serif">2021-03-05</text><path  d="M 731 351
L 731 356" style="stroke-width:1;stroke:rgba(51,51,51,1.0);fill:none"/><text x="698" y="373" style="stroke-width:0;stroke:none;fill:rgba(51,51,51,1.0);font-size:12.8px;font-family:'Roboto Medium',sans-serif">2021-05-18</text><path  d="M 846 351
L 846 356" style="stroke-width:1;stroke:rgba(51,51,51,1.0);fill:none"/><text x="813" y="373" style="stroke-width:0;stroke:none;fill:rgba(51,51,51,1.0);font-size:12.8px;font-family:'Roboto Medium',sans-serif">2021-08-01</text><path  d="M 961 351
L 961 356" style="stroke-width:1;stroke:rgba(51,51,51,1.0);fill:none"/><text x="928" y="373" style="stroke-width:0;stroke:none;fill:rgba(51,51,51,1.0);font-size:12.8px;font-family:'Roboto Medium',sans-serif">2021-10-15</text><text x="481" y="395" style="stroke-width:0;stroke:none;fill:rgba(51,51,51,1.0);font-size:12.8px;font-family:'Roboto Medium',sans-serif">Datum</text><path  d="M 962 351
L 962 11" style="stroke-width:1;stroke:rgba(51,51,51,1.0);fill:none"/><path  d="M 962 351
L 967 351" style="stroke-width:1;stroke:rgba(51,51,51,1.0);fill:none"/><text x="972" y="357" style="stroke-width:0;stroke:none;fill:rgba(51,51,51,1.0);font-size:12.8px;font-family:'Roboto Medium',sans-serif">0.00</text><path  d="M 962 308
L 967 308" style="stroke-width:1;stroke:rgba(51,51,51,1.0);fill:none"/><text x="972" y="314" style="stroke-width:0;stroke:none;fill:rgba(51,51,51,1.0);font-size:12.8px;font-family:'Roboto Medium',sans-serif">150.00</text><path  d="M 962 266
L 967 266" style="stroke-width:1;stroke:rgba(51,51,51,1.0);fill:none"/><text x="972" y="272" style="stroke-width:0;stroke:none;fill:rgba(51,51,51,1.0);font-size:12.8px;font-family:'Roboto Medium',sans-serif">300.00</text><path  d="M 962 223
L 967 223" style="stroke-width:1;stroke:rgba(51,51,51,1.0);fill:none"/><text x="972" y="229" style="stroke-width:0;stroke:none;fill:rgba(51,51,51,1.0);font-size:12.8px;font-family:'Roboto Medium',sans-serif">450.00</text><path  d="M 962 181
L 967 181" style="stroke-width:1;stroke:rgba(51,51,51,1.0);fill:none"/><text x="972" y="187" style="stroke-width:0;stroke:none;fill:rgba(51,51,51,1.0);font-size:12.8px;font-family:'Roboto Medium',sans-serif">600.00</text><path  d="M 962 138
L 967 138" style="stroke-width:1;stroke:rgba(51,51,51,1.0);fill:none"/><text x="972" y="144" style="stroke-width:0;stroke:none;fill:rgba(51,51,51,1.0);font-size:12.8px;font-family:'Roboto Medium',sans-serif">750.00</text><path  d="M 962 96
L 967 96" style="stroke-width:1;stroke:rgba(51,51,51,1.0);fill:none"/><text x="972" y="102" style="stroke-width:0;stroke:none;fill:rgba(51,51,51,1.0);font-size:12.8px;font-family:'Roboto Medium',sans-serif">900.00</text><path  d="M 962 53
L 967 53" style="stroke-width:1;stroke:rgba(51,51,51,1.0);fill:none"/><text x="972" y="59" style="stroke-width:0;stroke:none;fill:rgba(51,51,51,1.0);font-size:12.8px;font-family:'Roboto Medium',sans-serif">1050.00</text><path  d="M 962 11
L 967 11" style="stroke-width:1;stroke:rgba(51,51,51,1.0);fill:none"/><text x="972" y="17" style="stroke-width:0;stroke:none;fill:rgba(51,51,51,1.0);font-size:12.8px;font-family:'Roboto Medium',sans-serif">1200.00</text><path  d="M 38 351
L 40 351
L 42 351
L 43 351
L 45 351
L 46 351
L 48 351
L 49 351
L 51 351
L 52 351
L 54 351
L 56 351
L 57 351
L 59 351
L 60 351
L 62 350
L 63 349
L 65 348
L 66 347
L 68 346
L 69 345
L 71 342
L 73 342
L 74 339
L 76 338
L 77 337
L 79 335
L 80 335
L 82 334
L 83 334
L 85 336
L 86 334
L 88 334
L 90 334
L 91 334
L 93 336
L 94 336
L 96 337
L 97 340
L 99 342
L 100 345
L 102 345
L 103 347
L 105 348
L 107 348
L 108 349
L 110 349
L 111 349
L 113 348
L 114 348
L 116 348
L 117 347
L 119 347
L 120 346
L 122 346
L 124 346
L 125 346
L 127 347
L 128 348
L 130 348
L 131 348
L 133 349
L 134 349
L 136 349
L 137 350
L 139 350
L 141 350
L 142 350
L 144 350
L 145 350
L 147 350
L 148 350
L 150 350
L 151 350
L 153 350
L 154 350
L 156 351
L 158 351
L 159 351
L 161 351
L 162 351
L 164 351
L 165 351
L 167 351
L 168 351
L 170 351
L 171 351
L 173 351
L 175 351
L 176 351
L 178 351
L 179 351
L 181 351
L 182 351
L 184 351
L 185 351
L 187 351
L 188 351
L 190 351
L 192 351
L 193 351
L 195 351
L 196 351
L 198 351
L 199 351
L 201 351
L 202 351
L 204 351
L 205 351
L 207 351
L 209 351
L 210 351
L 212 351
L 213 351
L 215 351
L 216 351
L 218 351
L 219 351
L 221 350
L 222 350
L 224 350
L 226 350
L 227 350
L 229 350
L 230 350
L 232 349
L 233 349
L 235 349
L 236 349
L 238 349
L 239 349
L 241 348
L 243 349
L 244 349
L 246 348
L 247 349
L 249 348
L 250 348
L 252 349
L 253 349
L 255 350
L 256 349
L 258 348
L 260 348
L 261 348
L 263 348
L 264 348
L 266 346
L 267 348
L 269 348
L 270 349
L 272 349
L 274 349
L 275 349
L 277 351
L 278 351
L 280 351
L 281 351
L 283 351
L 284 351
L 286 351
L 287 350
L 289 350
L 291 350
L 292 350
L 294 350
L 295 350
L 297 350
L 298 350
L 300 350
L 301 350
L 303 349
L 304 349
L 306 349
L 308 349
L 309 349
L 311 349
L 312 348
L 314 349
L 315 349
L 317 349
L 318 349
L 320 349
L 321 346
L 323 346
L 325 346
L 326 346
L 328 345
L 329 344
L 331 342
L 332 343
L 334 342
L 335 339
L 337 335
L 338 334
L 340 329
L 342 329
L 343 329
L 345 331
L 346 334
L 348 337
L 349 339
L 351 343
L 352 344
L 354 342
L 355 340
L 357 339
L 359 339
L 360 338
L 362 339
L 363 338
L 365 339
L 366 341
L 368 340
L 369 341
L 371 339
L 372 338
L 374 337
L 376 337
L 377 337
L 379 339
L 380 338
L 382 339
L 383 339
L 385 340
L 386 341
L 388 342
L 389 339
L 391 339
L 393 340
L 394 339
L 396 340
L 397 338
L 399 330
L 400 323
L 402 317
L 403 312
L 405 313
L 406 295
L 408 289
L 410 286
L 411 277
L 413 268
L 414 265
L 416 246
L 417 251
L 419 238
L 420 222
L 422 202
L 423 196
L 425 197
L 427 174
L 428 147
L 430 143
L 431 83
L 433 76
L 434 61
L 436 54
L 437 36
L 439 30
L 440 29
L 442 80
L 444 104
L 445 125
L 447 115
L 448 125
L 450 148
L 451 135
L 453 134
L 454 140
L 456 146
L 457 157
L 459 169
L 461 175
L 462 195
L 464 215
L 465 223
L 467 230
L 468 240
L 470 265
L 471 276
L 473 287
L 474 288
L 476 283
L 478 282
L 479 278
L 481 281
L 482 282
L 484 283
L 485 286
L 487 288
L 488 279
L 490 279
L 491 281
L 493 282
L 495 290
L 496 295
L 498 301
L 499 308
L 501 307
L 502 300
L 504 296
L 505 290
L 507 294
L 509 292
L 510 295
L 512 290
L 513 298
L 515 295
L 516 298
L 518 293
L 519 295
L 521 292
L 522 302
L 524 300
L 526 307
L 527 308
L 529 308
L 530 306
L 532 308
L 533 307
L 535 309
L 536 312
L 538 315
L 539 317
L 541 321
L 543 320
L 544 319
L 546 318
L 547 314
L 549 312
L 550 313
L 552 312
L 553 314
L 555 319
L 556 324
L 558 328
L 560 330
L 561 329
L 563 332
L 564 329
L 566 329
L 567 330
L 569 328
L 570 328
L 572 329
L 573 328
L 575 328
L 577 328
L 578 328
L 580 329
L 581 326
L 583 327
L 584 326
L 586 328
L 587 326
L 589 324
L 590 323
L 592 325
L 594 324
L 595 324
L 597 325
L 598 329
L 600 330
L 601 328
L 603 329
L 604 328
L 606 328
L 607 326
L 609 325
L 611 323
L 612 328
L 614 326
L 615 327
L 617 324
L 618 323
L 620 321
L 621 323
L 623 312
L 624 306
L 626 301
L 628 297
L 629 295
L 631 292
L 632 286
L 634 289
L 635 274
L 637 269
L 638 262
L 640 259
L 641 258
L 643 261
L 645 262
L 646 270
L 648 279
L 649 281
L 651 276
L 652 276
L 654 277
L 655 270
L 657 282
L 658 279
L 660 288
L 662 297
L 663 297
L 665 300
L 666 310
L 668 309
L 669 308
L 671 301
L 672 303
L 674 304
L 675 301
L 677 294
L 679 292
L 680 293
L 682 301
L 683 297
L 685 292
L 686 298
L 688 299
L 689 303
L 691 307
L 692 304
L 694 311
L 696 315
L 697 306
L 699 313
L 700 308
L 702 304
L 703 306
L 705 305
L 706 310
L 708 312
L 709 313
L 711 314
L 713 317
L 714 318
L 716 322
L 717 318
L 719 325
L 720 326
L 722 329
L 723 331
L 725 332
L 726 330
L 728 334
L 730 333
L 731 334
L 733 334
L 734 334
L 736 331
L 737 334
L 739 333
L 740 333
L 742 334
L 744 336
L 745 337
L 747 341
L 748 341
L 750 341
L 751 342
L 753 343
L 754 344
L 756 346
L 757 347
L 759 346
L 761 348
L 762 348
L 764 348
L 765 348
L 767 348
L 768 347
L 770 348
L 771 347
L 773 347
L 774 347
L 776 348
L 778 348
L 779 349
L 781 349
L 782 350
L 784 351
L 785 351
L 787 351
L 788 351
L 790 350
L 791 350
L 793 350
L 795 350
L 796 350
L 798 349
L 799 349
L 801 350
L 802 350
L 804 350
L 805 350
L 807 350
L 808 351
L 810 351
L 812 351
L 813 351
L 815 350
L 816 350
L 818 350
L 819 350
L 821 349
L 822 348
L 824 348
L 825 348
L 827 346
L 829 346
L 830 344
L 832 345
L 833 345
L 835 345
L 836 344
L 838 343
L 839 343
L 841 345
L 842 345
L 844 345
L 846 346
L 847 346
L 849 348
L 850 346
L 852 346
L 853 345
L 855 343
L 856 342
L 858 343
L 859 343
L 861 345
L 863 343
L 864 344
L 866 343
L 867 342
L 869 343
L 870 340
L 872 339
L 873 341
L 875 341
L 876 343
L 878 344
L 880 344
L 881 344
L 883 344
L 884 344
L 886 343
L 887 342
L 889 342
L 890 341
L 892 339
L 893 340
L 895 336
L 897 334
L 898 332
L 900 331
L 901 331
L 903 325
L 904 321
L 906 323
L 907 323
L 909 322
L 910 323
L 912 322
L 914 326
L 915 327
L 917 327
L 918 321
L 920 323
L 921 323
L 923 319
L 924 314
L 926 310
L 927 310
L 929 305
L 931 306
L 932 298
L 934 299
L 935 294
L 937 292
L 938 292
L 940 296
L 941 295
L 943 299
L 944 301
L 946 305
L 948 306
L 949 303
L 951 305
L 952 304
L 954 306
L 955 304
L 957 308
L 958 305
L 960 302
L 961 288" style="stroke-width:1;stroke:rgba(0,116,217,1.0);fill:none"/><path  d="M 38 351
L 40 351
L 42 351
L 43 351
L 45 351
L 46 351
L 48 351
L 49 351
L 51 351
L 52 351
L 54 351
L 56 351
L 57 351
L 59 351
L 60 351
L 62 350
L 63 350
L 65 350
L 66 349
L 68 350
L 69 350
L 71 348
L 73 350
L 74 348
L 76 349
L 77 349
L 79 349
L 80 350
L 82 348
L 83 350
L 85 349
L 86 348
L 88 349
L 90 349
L 91 351
L 93 349
L 94 349
L 96 350
L 97 350
L 99 351
L 100 350
L 102 351
L 103 351
L 105 350
L 107 351
L 108 351
L 110 351
L 111 350
L 113 350
L 114 351
L 116 350
L 117 349
L 119 351
L 120 350
L 122 350
L 124 350
L 125 351
L 127 350
L 128 350
L 130 351
L 131 351
L 133 350
L 134 351
L 136 351
L 137 351
L 139 351
L 141 351
L 142 350
L 144 351
L 145 350
L 147 351
L 148 351
L 150 351
L 151 351
L 153 351
L 154 351
L 156 351
L 158 351
L 159 351
L 161 351
L 162 351
L 164 351
L 165 351
L 167 351
L 168 351
L 170 351
L 171 351
L 173 351
L 175 351
L 176 351
L 178 351
L 179 351
L 181 351
L 182 351
L 184 351
L 185 351
L 187 351
L 188 351
L 190 351
L 192 351
L 193 351
L 195 351
L 196 351
L 198 351
L 199 351
L 201 351
L 202 351
L 204 351
L 205 351
L 207 351
L 209 351
L 210 351
L 212 351
L 213 351
L 215 351
L 216 351
L 218 351
L 219 351
L 221 350
L 222 351
L 224 351
L 226 350
L 227 351
L 229 351
L 230 351
L 232 350
L 233 351
L 235 351
L 236 350
L 238 351
L 239 351
L 241 350
L 243 351
L 244 350
L 246 350
L 247 351
L 249 350
L 250 351
L 252 351
L 253 351
L 255 351
L 256 350
L 258 350
L 260 350
L 261 351
L 263 350
L 264 351
L 266 350
L 267 351
L 269 351
L 270 351
L 272 351
L 274 351
L 275 351
L 277 351
L 278 351
L 280 351
L 281 351
L 283 351
L 284 351
L 286 351
L 287 350
L 289 351
L 291 351
L 292 351
L 294 351
L 295 351
L 297 351
L 298 350
L 300 350
L 301 351
L 303 350
L 304 351
L 306 351
L 308 351
L 309 350
L 311 350
L 312 350
L 314 351
L 315 351
L 317 351
L 318 351
L 320 350
L 321 349
L 323 350
L 325 351
L 326 350
L 328 350
L 329 350
L 331 349
L 332 349
L 334 349
L 335 348
L 337 348
L 338 349
L 340 347
L 342 349
L 343 349
L 345 351
L 346 350
L 348 351
L 349 350
L 351 350
L 352 349
L 354 348
L 355 349
L 357 350
L 359 350
L 360 350
L 362 350
L 363 349
L 365 349
L 366 350
L 368 350
L 369 351
L 371 349
L 372 349
L 374 348
L 376 349
L 377 350
L 379 351
L 380 350
L 382 349
L 383 350
L 385 349
L 386 349
L 388 350
L 389 349
L 391 350
L 393 350
L 394 349
L 396 350
L 397 348
L 399 345
L 400 344
L 402 346
L 403 346
L 405 350
L 406 337
L 408 344
L 410 343
L 411 339
L 413 340
L 414 344
L 416 337
L 417 341
L 419 335
L 420 332
L 422 325
L 423 336
L 425 345
L 427 322
L 428 323
L 430 332
L 431 293
L 433 320
L 434 326
L 436 339
L 437 310
L 439 318
L 440 331
L 442 327
L 444 336
L 445 340
L 447 333
L 448 317
L 450 334
L 451 323
L 453 326
L 454 340
L 456 344
L 457 340
L 459 325
L 461 337
L 462 336
L 464 340
L 465 346
L 467 348
L 468 347
L 470 342
L 471 344
L 473 343
L 474 341
L 476 342
L 478 348
L 479 344
L 481 345
L 482 345
L 484 344
L 485 343
L 487 344
L 488 341
L 490 344
L 491 346
L 493 346
L 495 349
L 496 346
L 498 349
L 499 346
L 501 344
L 502 341
L 504 344
L 505 345
L 507 349
L 509 347
L 510 348
L 512 340
L 513 346
L 515 342
L 516 346
L 518 346
L 519 348
L 521 347
L 522 347
L 524 344
L 526 347
L 527 347
L 529 346
L 530 347
L 532 348
L 533 346
L 535 346
L 536 349
L 538 348
L 539 348
L 541 349
L 543 348
L 544 345
L 546 345
L 547 346
L 549 347
L 550 348
L 552 349
L 553 349
L 555 349
L 556 348
L 558 349
L 560 349
L 561 348
L 563 351
L 564 347
L 566 349
L 567 349
L 569 347
L 570 349
L 572 348
L 573 350
L 575 347
L 577 348
L 578 349
L 580 348
L 581 347
L 583 349
L 584 349
L 586 349
L 587 347
L 589 347
L 590 347
L 592 349
L 594 348
L 595 349
L 597 349
L 598 350
L 600 347
L 601 346
L 603 350
L 604 348
L 606 349
L 607 348
L 609 349
L 611 347
L 612 349
L 614 349
L 615 348
L 617 347
L 618 347
L 620 348
L 621 348
L 623 341
L 624 345
L 626 345
L 628 345
L 629 346
L 631 345
L 632 343
L 634 343
L 635 335
L 637 341
L 638 340
L 640 344
L 641 345
L 643 345
L 645 344
L 646 341
L 648 347
L 649 341
L 651 340
L 652 345
L 654 346
L 655 340
L 657 349
L 658 345
L 660 347
L 662 346
L 663 345
L 665 348
L 666 347
L 668 348
L 669 345
L 671 342
L 672 347
L 674 346
L 675 346
L 677 341
L 679 347
L 680 345
L 682 347
L 683 345
L 685 343
L 686 350
L 688 342
L 689 349
L 691 348
L 692 345
L 694 349
L 696 346
L 697 344
L 699 347
L 700 346
L 702 345
L 703 347
L 705 348
L 706 349
L 708 345
L 709 348
L 711 346
L 713 348
L 714 348
L 716 351
L 717 347
L 719 350
L 720 349
L 722 348
L 723 349
L 725 349
L 726 349
L 728 350
L 730 349
L 731 349
L 733 348
L 734 349
L 736 347
L 737 351
L 739 349
L 740 349
L 742 350
L 744 349
L 745 349
L 747 350
L 748 351
L 750 349
L 751 350
L 753 350
L 754 350
L 756 351
L 757 351
L 759 350
L 761 351
L 762 350
L 764 351
L 765 350
L 767 351
L 768 350
L 770 351
L 771 350
L 773 350
L 774 351
L 776 351
L 778 351
L 779 351
L 781 351
L 782 351
L 784 351
L 785 351
L 787 351
L 788 351
L 790 350
L 791 351
L 793 351
L 795 351
L 796 351
L 798 350
L 799 351
L 801 351
L 802 351
L 804 351
L 805 351
L 807 351
L 808 351
L 810 351
L 812 351
L 813 351
L 815 350
L 816 350
L 818 351
L 819 351
L 821 350
L 822 350
L 824 350
L 825 351
L 827 349
L 829 351
L 830 349
L 832 350
L 833 350
L 835 350
L 836 350
L 838 349
L 839 351
L 841 350
L 842 350
L 844 351
L 846 351
L 847 350
L 849 350
L 850 349
L 852 350
L 853 350
L 855 349
L 856 350
L 858 350
L 859 351
L 861 351
L 863 349
L 864 350
L 866 349
L 867 350
L 869 351
L 870 349
L 872 350
L 873 350
L 875 350
L 876 350
L 878 350
L 880 351
L 881 349
L 883 350
L 884 350
L 886 349
L 887 349
L 889 350
L 890 350
L 892 348
L 893 350
L 895 347
L 897 348
L 898 348
L 900 349
L 901 350
L 903 344
L 904 348
L 906 348
L 907 349
L 909 347
L 910 350
L 912 349
L 914 347
L 915 349
L 917 347
L 918 345
L 920 348
L 921 350
L 923 347
L 924 343
L 926 346
L 927 347
L 929 342
L 931 349
L 932 345
L 934 347
L 935 340
L 937 345
L 938 348
L 940 344
L 941 347
L 943 348
L 944 349
L 946 343
L 948 346
L 949 345
L 951 346
L 952 346
L 954 349
L 955 348
L 957 345
L 958 344
L 960 343
L 961 336" style="stroke-width:1;stroke:rgba(0,217,101,1.0);fill:none"/><path  d="M 38 351
L 40 351
L 42 351
L 43 351
L 45 351
L 46 351
L 48 351
L 49 351
L 51 351
L 52 351
L 54 351
L 56 351
L 57 351
L 59 351
L 60 351
L 62 351
L 63 351
L 65 351
L 66 351
L 68 351
L 69 351
L 71 351
L 73 351
L 74 351
L 76 351
L 77 351
L 79 351
L 80 351
L 82 351
L 83 351
L 85 351
L 86 351
L 88 351
L 90 351
L 91 351
L 93 351
L 94 351
L 96 351
L 97 351
L 99 351
L 100 351
L 102 351
L 103 351
L 105 351
L 107 351
L 108 351
L 110 351
L 111 351
L 113 351
L 114 351
L 116 350
L 117 351
L 119 350
L 120 350
L 122 351
L 124 351
L 125 351
L 127 351
L 128 351
L 130 351
L 131 350
L 133 351
L 134 350
L 136 351
L 137 351
L 139 351
L 141 351
L 142 351
L 144 351
L 145 351
L 147 351
L 148 351
L 150 351
L 151 351
L 153 351
L 154 351
L 156 351
L 158 351
L 159 351
L 161 351
L 162 351
L 164 351
L 165 351
L 167 351
L 168 351
L 170 351
L 171 351
L 173 351
L 175 351
L 176 351
L 178 351
L 179 351
L 181 351
L 182 351
L 184 351
L 185 351
L 187 350
L 188 351
L 190 351
L 192 351
L 193 351
L 195 351
L 196 351
L 198 351
L 199 351
L 201 351
L 202 351
L 204 351
L 205 351
L 207 351
L 209 351
L 210 351
L 212 351
L 213 351
L 215 351
L 216 351
L 218 351
L 219 351
L 221 351
L 222 351
L 224 351
L 226 351
L 227 351
L 229 351
L 230 351
L 232 351
L 233 351
L 235 351
L 236 351
L 238 351
L 239 351
L 241 351
L 243 351
L 244 351
L 246 351
L 247 351
L 249 351
L 250 351
L 252 351
L 253 351
L 255 351
L 256 351
L 258 351
L 260 351
L 261 351
L 263 351
L 264 351
L 266 351
L 267 351
L 269 351
L 270 351
L 272 351
L 274 351
L 275 351
L 277 351
L 278 351
L 280 351
L 281 351
L 283 351
L 284 351
L 286 351
L 287 351
L 289 351
L 291 351
L 292 351
L 294 351
L 295 351
L 297 351
L 298 351
L 300 351
L 301 351
L 303 351
L 304 351
L 306 351
L 308 351
L 309 351
L 311 351
L 312 351
L 314 351
L 315 351
L 317 351
L 318 351
L 320 351
L 321 351
L 323 351
L 325 351
L 326 351
L 328 351
L 329 351
L 331 351
L 332 351
L 334 351
L 335 351
L 337 351
L 338 351
L 340 351
L 342 351
L 343 351
L 345 351
L 346 351
L 348 351
L 349 351
L 351 351
L 352 351
L 354 351
L 355 351
L 357 351
L 359 351
L 360 351
L 362 351
L 363 351
L 365 351
L 366 351
L 368 351
L 369 351
L 371 351
L 372 351
L 374 351
L 376 351
L 377 351
L 379 351
L 380 351
L 382 351
L 383 351
L 385 351
L 386 351
L 388 351
L 389 351
L 391 351
L 393 351
L 394 351
L 396 351
L 397 351
L 399 351
L 400 351
L 402 351
L 403 351
L 405 351
L 406 351
L 408 351
L 410 351
L 411 351
L 413 351
L 414 351
L 416 350
L 417 350
L 419 351
L 420 350
L 422 350
L 423 350
L 425 351
L 427 351
L 428 351
L 430 350
L 431 350
L 433 351
L 434 350
L 436 350
L 437 351
L 439 350
L 440 350
L 442 351
L 444 350
L 445 351
L 447 351
L 448 350
L 450 350
L 451 350
L 453 350
L 454 350
L 456 350
L 457 351
L 459 350
L 461 350
L 462 351
L 464 351
L 465 350
L 467 350
L 468 350
L 470 350
L 471 350
L 473 350
L 474 350
L 476 351
L 478 350
L 479 350
L 481 351
L 482 350
L 484 350
L 485 350
L 487 351
L 488 350
L 490 350
L 491 350
L 493 350
L 495 351
L 496 350
L 498 350
L 499 350
L 501 350
L 502 351
L 504 351
L 505 351
L 507 351
L 509 350
L 510 350
L 512 350
L 513 351
L 515 350
L 516 351
L 518 350
L 519 350
L 521 351
L 522 351
L 524 351
L 526 350
L 527 351
L 529 350
L 530 350
L 532 350
L 533 351
L 535 351
L 536 350
L 538 350
L 539 351
L 541 351
L 543 351
L 544 351
L 546 351
L 547 351
L 549 351
L 550 351
L 552 351
L 553 351
L 555 351
L 556 351
L 558 351
L 560 351
L 561 350
L 563 351
L 564 351
L 566 351
L 567 350
L 569 351
L 570 351
L 572 351
L 573 351
L 575 351
L 577 351
L 578 351
L 580 350
L 581 351
L 583 351
L 584 351
L 586 351
L 587 351
L 589 350
L 590 351
L 592 351
L 594 351
L 595 351
L 597 351
L 598 351
L 600 351
L 601 351
L 603 351
L 604 351
L 606 351
L 607 351
L 609 351
L 611 351
L 612 351
L 614 351
L 615 351
L 617 351
L 618 351
L 620 351
L 621 351
L 623 351
L 624 351
L 626 351
L 628 350
L 629 351
L 631 351
L 632 351
L 634 351
L 635 351
L 637 351
L 638 350
L 640 351
L 641 350
L 643 350
L 645 351
L 646 351
L 648 351
L 649 351
L 651 351
L 652 351
L 654 350
L 655 351
L 657 351
L 658 351
L 660 351
L 662 351
L 663 351
L 665 351
L 666 351
L 668 351
L 669 351
L 671 351
L 672 351
L 674 350
L 675 351
L 677 351
L 679 351
L 680 351
L 682 350
L 683 351
L 685 351
L 686 351
L 688 351
L 689 350
L 691 351
L 692 351
L 694 351
L 696 351
L 697 351
L 699 351
L 700 351
L 702 351
L 703 351
L 705 351
L 706 351
L 708 351
L 709 351
L 711 351
L 713 351
L 714 351
L 716 351
L 717 351
L 719 351
L 720 351
L 722 351
L 723 351
L 725 351
L 726 351
L 728 351
L 730 351
L 731 351
L 733 351
L 734 351
L 736 351
L 737 351
L 739 351
L 740 351
L 742 351
L 744 351
L 745 351
L 747 351
L 748 351
L 750 351
L 751 351
L 753 351
L 754 351
L 756 351
L 757 351
L 759 351
L 761 351
L 762 351
L 764 351
L 765 351
L 767 351
L 768 351
L 770 351
L 771 351
L 773 351
L 774 351
L 776 351
L 778 351
L 779 351
L 781 351
L 782 351
L 784 351
L 785 351
L 787 351
L 788 351
L 790 351
L 791 351
L 793 351
L 795 351
L 796 351
L 798 351
L 799 351
L 801 351
L 802 351
L 804 351
L 805 351
L 807 351
L 808 351
L 810 351
L 812 351
L 813 351
L 815 351
L 816 351
L 818 351
L 819 351
L 821 351
L 822 351
L 824 351
L 825 351
L 827 351
L 829 351
L 830 351
L 832 351
L 833 351
L 835 351
L 836 351
L 838 351
L 839 351
L 841 351
L 842 351
L 844 351
L 846 351
L 847 351
L 849 351
L 850 351
L 852 351
L 853 351
L 855 351
L 856 351
L 858 351
L 859 351
L 861 351
L 863 351
L 864 351
L 866 351
L 867 351
L 869 351
L 870 351
L 872 351
L 873 351
L 875 351
L 876 351
L 878 351
L 880 351
L 881 351
L 883 351
L 884 351
L 886 351
L 887 351
L 889 351
L 890 351
L 892 351
L 893 351
L 895 351
L 897 351
L 898 351
L 900 350
L 901 351
L 903 351
L 904 351
L 906 351
L 907 351
L 909 351
L 910 351
L 912 351
L 914 351
L 915 351
L 917 351
L 918 351
L 920 351
L 921 351
L 923 351
L 924 351
L 926 351
L 927 351
L 929 351
L 931 351
L 932 351
L 934 351
L 935 351
L 937 351
L 938 351
L 940 351
L 941 351
L 943 351
L 944 351
L 946 351
L 948 351
L 949 351
L 951 351
L 952 351
L 954 351
L 955 351
L 957 351
L 958 351
L 960 351
L 961 351" style="stroke-width:1;stroke:rgba(217,0,116,1.0);fill:none"/><text x="405" y="33" style="stroke-width:0;stroke:none;fill:rgba(51,51,51,1.0);font-size:23.0px;font-family:'Roboto Medium',sans-serif">Freistadt 15.10.2021</text><path  d="M 38 11
L 251 11
L 251 91
L 38 91
L 38 11" style="stroke-width:1;stroke:rgba(51,51,51,1.0);fill:rgba(255,255,255,1.0)"/><text x="43" y="26" style="stroke-width:0;stroke:none;fill:rgba(51,51,51,1.0);font-size:10.2px;font-family:'Roboto Medium',sans-serif">Sieben Tage Durschnitt Inzidenz Fälle</text><path  d="M 221 21
L 241 21" style="stroke-width:1;stroke:rgba(0,116,217,1.0);fill:none"/><text x="43" y="56" style="stroke-width:0;stroke:none;fill:rgba(51,51,51,1.0);font-size:10.2px;font-family:'Roboto Medium',sans-serif">Anzahl Faelle</text><path  d="M 110 51
L 241 51" style="stroke-width:1;stroke:rgba(0,217,101,1.0);fill:none"/><text x="43" y="86" style="stroke-width:0;stroke:none;fill:rgba(51,51,51,1.0);font-size:10.2px;font-family:'Roboto Medium',sans-serif">Anzahl Tot</text><path  d="M 98 81
L 241 81" style="stroke-width:1;stroke:rgba(217,0,116,1.0);fill:none"/></svg>