<svg xmlns="http://www.w3.org/2000/svg" xmlns:xlink="http://www.w3.org/1999/xlink" width="1024" height="400">\n<path  d="M 0 0
L 1024 0
L 1024 400
L 0 400
L 0 0" style="stroke-width:0;stroke:rgba(255,255,255,1.0);fill:rgba(255,255,255,1.0)"/><path  d="M 38 11
L 961 11
L 961 351
L 38 351
L 38 11" style="stroke-width:0;stroke:rgba(255,255,255,1.0);fill:rgba(255,255,255,1.0)"/><path  d="M 38 351
L 961 351" style="stroke-width:1;stroke:rgba(51,51,51,1.0);fill:none"/><path  d="M 38 351
L 38 356" style="stroke-width:1;stroke:rgba(51,51,51,1.0);fill:none"/><text x="5" y="373" style="stroke-width:0;stroke:none;fill:rgba(51,51,51,1.0);font-size:12.8px;font-family:'Roboto Medium',sans-serif">2020-02-26</text><path  d="M 154 351
L 154 356" style="stroke-width:1;stroke:rgba(51,51,51,1.0);fill:none"/><text x="121" y="373" style="stroke-width:0;stroke:none;fill:rgba(51,51,51,1.0);font-size:12.8px;font-family:'Roboto Medium',sans-serif">2020-05-24</text><path  d="M 269 351
L 269 356" style="stroke-width:1;stroke:rgba(51,51,51,1.0);fill:none"/><text x="236" y="373" style="stroke-width:0;stroke:none;fill:rgba(51,51,51,1.0);font-size:12.8px;font-family:'Roboto Medium',sans-serif">2020-08-20</text><path  d="M 385 351
L 385 356" style="stroke-width:1;stroke:rgba(51,51,51,1.0);fill:none"/><text x="352" y="373" style="stroke-width:0;stroke:none;fill:rgba(51,51,51,1.0);font-size:12.8px;font-family:'Roboto Medium',sans-serif">2020-11-16</text><path  d="M 500 351
L 500 356" style="stroke-width:1;stroke:rgba(51,51,51,1.0);fill:none"/><text x="467" y="373" style="stroke-width:0;stroke:none;fill:rgba(51,51,51,1.0);font-size:12.8px;font-family:'Roboto Medium',sans-serif">2021-02-12</text><path  d="M 615 351
L 615 356" style="stroke-width:1;stroke:rgba(51,51,51,1.0);fill:none"/><text x="582" y="373" style="stroke-width:0;stroke:none;fill:rgba(51,51,51,1.0);font-size:12.8px;font-family:'Roboto Medium',sans-serif">2021-05-11</text><path  d="M 731 351
L 731 356" style="stroke-width:1;stroke:rgba(51,51,51,1.0);fill:none"/><text x="698" y="373" style="stroke-width:0;stroke:none;fill:rgba(51,51,51,1.0);font-size:12.8px;font-family:'Roboto Medium',sans-serif">2021-08-07</text><path  d="M 846 351
L 846 356" style="stroke-width:1;stroke:rgba(51,51,51,1.0);fill:none"/><text x="813" y="373" style="stroke-width:0;stroke:none;fill:rgba(51,51,51,1.0);font-size:12.8px;font-family:'Roboto Medium',sans-serif">2021-11-03</text><path  d="M 961 351
L 961 356" style="stroke-width:1;stroke:rgba(51,51,51,1.0);fill:none"/><text x="928" y="373" style="stroke-width:0;stroke:none;fill:rgba(51,51,51,1.0);font-size:12.8px;font-family:'Roboto Medium',sans-serif">2022-01-31</text><text x="481" y="395" style="stroke-width:0;stroke:none;fill:rgba(51,51,51,1.0);font-size:12.8px;font-family:'Roboto Medium',sans-serif">Datum</text><path  d="M 962 351
L 962 11" style="stroke-width:1;stroke:rgba(51,51,51,1.0);fill:none"/><path  d="M 962 351
L 967 351" style="stroke-width:1;stroke:rgba(51,51,51,1.0);fill:none"/><text x="972" y="357" style="stroke-width:0;stroke:none;fill:rgba(51,51,51,1.0);font-size:12.8px;font-family:'Roboto Medium',sans-serif">0.00</text><path  d="M 962 307
L 967 307" style="stroke-width:1;stroke:rgba(51,51,51,1.0);fill:none"/><text x="972" y="313" style="stroke-width:0;stroke:none;fill:rgba(51,51,51,1.0);font-size:12.8px;font-family:'Roboto Medium',sans-serif">330.00</text><path  d="M 962 266
L 967 266" style="stroke-width:1;stroke:rgba(51,51,51,1.0);fill:none"/><text x="972" y="272" style="stroke-width:0;stroke:none;fill:rgba(51,51,51,1.0);font-size:12.8px;font-family:'Roboto Medium',sans-serif">650.00</text><path  d="M 962 222
L 967 222" style="stroke-width:1;stroke:rgba(51,51,51,1.0);fill:none"/><text x="972" y="228" style="stroke-width:0;stroke:none;fill:rgba(51,51,51,1.0);font-size:12.8px;font-family:'Roboto Medium',sans-serif">980.00</text><path  d="M 962 181
L 967 181" style="stroke-width:1;stroke:rgba(51,51,51,1.0);fill:none"/><text x="972" y="187" style="stroke-width:0;stroke:none;fill:rgba(51,51,51,1.0);font-size:12.8px;font-family:'Roboto Medium',sans-serif">1300.00</text><path  d="M 962 137
L 967 137" style="stroke-width:1;stroke:rgba(51,51,51,1.0);fill:none"/><text x="972" y="143" style="stroke-width:0;stroke:none;fill:rgba(51,51,51,1.0);font-size:12.8px;font-family:'Roboto Medium',sans-serif">1630.00</text><path  d="M 962 96
L 967 96" style="stroke-width:1;stroke:rgba(51,51,51,1.0);fill:none"/><text x="972" y="102" style="stroke-width:0;stroke:none;fill:rgba(51,51,51,1.0);font-size:12.8px;font-family:'Roboto Medium',sans-serif">1950.00</text><path  d="M 962 52
L 967 52" style="stroke-width:1;stroke:rgba(51,51,51,1.0);fill:none"/><text x="972" y="58" style="stroke-width:0;stroke:none;fill:rgba(51,51,51,1.0);font-size:12.8px;font-family:'Roboto Medium',sans-serif">2280.00</text><path  d="M 962 11
L 967 11" style="stroke-width:1;stroke:rgba(51,51,51,1.0);fill:none"/><text x="972" y="17" style="stroke-width:0;stroke:none;fill:rgba(51,51,51,1.0);font-size:12.8px;font-family:'Roboto Medium',sans-serif">2600.00</text><path  d="M 38 351
L 40 351
L 41 351
L 42 351
L 44 351
L 45 351
L 46 351
L 48 351
L 49 351
L 50 351
L 52 351
L 53 351
L 54 351
L 56 351
L 57 351
L 58 350
L 59 350
L 61 350
L 62 349
L 63 348
L 65 348
L 66 347
L 67 346
L 69 345
L 70 344
L 71 344
L 73 343
L 74 343
L 75 343
L 76 343
L 78 344
L 79 343
L 80 343
L 82 343
L 83 343
L 84 344
L 86 344
L 87 344
L 88 346
L 90 347
L 91 348
L 92 348
L 93 349
L 95 349
L 96 350
L 97 350
L 99 350
L 100 350
L 101 350
L 103 350
L 104 350
L 105 349
L 107 349
L 108 349
L 109 348
L 111 349
L 112 349
L 113 349
L 114 349
L 116 349
L 117 350
L 118 350
L 120 350
L 121 350
L 122 350
L 124 350
L 125 350
L 126 350
L 128 350
L 129 350
L 130 350
L 131 350
L 133 350
L 134 350
L 135 350
L 137 350
L 138 351
L 139 351
L 141 351
L 142 351
L 143 351
L 145 351
L 146 351
L 147 351
L 148 351
L 150 351
L 151 351
L 152 351
L 154 351
L 155 351
L 156 351
L 158 351
L 159 351
L 160 351
L 162 351
L 163 351
L 164 351
L 165 351
L 167 351
L 168 351
L 169 351
L 171 351
L 172 351
L 173 351
L 175 351
L 176 351
L 177 351
L 179 351
L 180 351
L 181 351
L 183 351
L 184 351
L 185 351
L 186 351
L 188 351
L 189 351
L 190 351
L 192 351
L 193 350
L 194 350
L 196 350
L 197 350
L 198 350
L 200 350
L 201 350
L 202 350
L 203 350
L 205 350
L 206 350
L 207 350
L 209 350
L 210 349
L 211 350
L 213 350
L 214 350
L 215 350
L 217 350
L 218 350
L 219 350
L 220 350
L 222 350
L 223 350
L 224 349
L 226 349
L 227 349
L 228 349
L 230 349
L 231 349
L 232 349
L 234 350
L 235 350
L 236 350
L 238 350
L 239 350
L 240 351
L 241 351
L 243 351
L 244 351
L 245 351
L 247 351
L 248 351
L 249 350
L 251 350
L 252 350
L 253 350
L 255 350
L 256 350
L 257 350
L 258 350
L 260 350
L 261 350
L 262 350
L 264 350
L 265 350
L 266 350
L 268 350
L 269 350
L 270 350
L 272 350
L 273 350
L 274 350
L 275 350
L 277 350
L 278 349
L 279 349
L 281 349
L 282 348
L 283 348
L 285 348
L 286 347
L 287 347
L 289 347
L 290 345
L 291 343
L 292 343
L 294 341
L 295 341
L 296 341
L 298 341
L 299 343
L 300 344
L 302 345
L 303 347
L 304 347
L 306 347
L 307 346
L 308 345
L 310 345
L 311 345
L 312 345
L 313 345
L 315 345
L 316 346
L 317 346
L 319 346
L 320 345
L 321 345
L 323 344
L 324 344
L 325 344
L 327 345
L 328 345
L 329 345
L 330 345
L 332 346
L 333 346
L 334 346
L 336 345
L 337 345
L 338 346
L 340 345
L 341 346
L 342 345
L 344 341
L 345 338
L 346 335
L 347 333
L 349 333
L 350 325
L 351 322
L 353 320
L 354 316
L 355 312
L 357 311
L 358 302
L 359 305
L 361 299
L 362 291
L 363 282
L 364 279
L 366 280
L 367 269
L 368 257
L 370 255
L 371 227
L 372 224
L 374 217
L 375 213
L 376 205
L 378 202
L 379 202
L 380 226
L 382 236
L 383 247
L 384 242
L 385 246
L 387 257
L 388 251
L 389 250
L 391 253
L 392 256
L 393 261
L 395 267
L 396 269
L 397 279
L 399 288
L 400 292
L 401 295
L 402 299
L 404 311
L 405 316
L 406 321
L 408 322
L 409 319
L 410 319
L 412 317
L 413 319
L 414 319
L 416 319
L 417 321
L 418 322
L 419 317
L 421 317
L 422 318
L 423 319
L 425 323
L 426 325
L 427 328
L 429 331
L 430 331
L 431 327
L 433 325
L 434 323
L 435 325
L 437 324
L 438 325
L 439 323
L 440 326
L 442 325
L 443 326
L 444 324
L 446 325
L 447 324
L 448 328
L 450 327
L 451 330
L 452 331
L 454 331
L 455 330
L 456 331
L 457 331
L 459 332
L 460 333
L 461 334
L 463 335
L 464 337
L 465 337
L 467 336
L 468 336
L 469 334
L 471 333
L 472 333
L 473 333
L 474 334
L 476 336
L 477 338
L 478 340
L 480 341
L 481 341
L 482 342
L 484 341
L 485 341
L 486 341
L 488 340
L 489 340
L 490 341
L 491 340
L 493 340
L 494 340
L 495 340
L 497 341
L 498 339
L 499 340
L 501 339
L 502 340
L 503 339
L 505 338
L 506 338
L 507 339
L 509 338
L 510 338
L 511 339
L 512 341
L 514 341
L 515 340
L 516 341
L 518 340
L 519 340
L 520 339
L 522 339
L 523 338
L 524 340
L 526 339
L 527 339
L 528 338
L 529 337
L 531 337
L 532 338
L 533 333
L 535 330
L 536 327
L 537 326
L 539 325
L 540 323
L 541 320
L 543 322
L 544 315
L 545 313
L 546 309
L 548 308
L 549 308
L 550 309
L 552 309
L 553 314
L 554 317
L 556 318
L 557 316
L 558 316
L 560 316
L 561 314
L 562 319
L 563 318
L 565 322
L 566 326
L 567 326
L 569 327
L 570 332
L 571 331
L 573 331
L 574 328
L 575 329
L 577 329
L 578 328
L 579 324
L 581 323
L 582 324
L 583 327
L 584 326
L 586 324
L 587 326
L 588 327
L 590 329
L 591 331
L 592 329
L 594 332
L 595 334
L 596 330
L 598 333
L 599 331
L 600 329
L 601 330
L 603 329
L 604 332
L 605 333
L 607 333
L 608 334
L 609 335
L 611 335
L 612 337
L 613 335
L 615 339
L 616 339
L 617 341
L 618 341
L 620 342
L 621 341
L 622 343
L 624 342
L 625 343
L 626 343
L 628 343
L 629 342
L 630 343
L 632 342
L 633 342
L 634 343
L 636 344
L 637 344
L 638 346
L 639 346
L 641 346
L 642 347
L 643 347
L 645 348
L 646 348
L 647 349
L 649 349
L 650 349
L 651 349
L 653 350
L 654 350
L 655 350
L 656 349
L 658 349
L 659 349
L 660 349
L 662 349
L 663 349
L 664 349
L 666 350
L 667 350
L 668 350
L 670 351
L 671 351
L 672 351
L 673 351
L 675 350
L 676 350
L 677 350
L 679 350
L 680 350
L 681 350
L 683 350
L 684 350
L 685 350
L 687 350
L 688 350
L 689 350
L 690 351
L 692 351
L 693 351
L 694 351
L 696 350
L 697 350
L 698 350
L 700 350
L 701 350
L 702 349
L 704 349
L 705 349
L 706 349
L 708 349
L 709 348
L 710 348
L 711 348
L 713 348
L 714 347
L 715 347
L 717 347
L 718 348
L 719 348
L 721 348
L 722 348
L 723 348
L 725 349
L 726 349
L 727 348
L 728 348
L 730 347
L 731 347
L 732 347
L 734 347
L 735 348
L 736 347
L 738 347
L 739 347
L 740 347
L 742 347
L 743 346
L 744 345
L 745 346
L 747 346
L 748 347
L 749 347
L 751 347
L 752 348
L 753 348
L 755 348
L 756 347
L 757 346
L 759 346
L 760 346
L 761 345
L 762 346
L 764 344
L 765 343
L 766 342
L 768 341
L 769 341
L 770 339
L 772 337
L 773 338
L 774 338
L 776 337
L 777 338
L 778 337
L 780 339
L 781 340
L 782 340
L 783 337
L 785 338
L 786 338
L 787 336
L 789 333
L 790 332
L 791 332
L 793 329
L 794 330
L 795 326
L 797 326
L 798 324
L 799 323
L 800 324
L 802 325
L 803 325
L 804 327
L 806 327
L 807 329
L 808 330
L 810 329
L 811 330
L 812 329
L 814 330
L 815 329
L 816 331
L 817 330
L 819 328
L 820 322
L 821 318
L 823 316
L 824 312
L 825 302
L 827 296
L 828 291
L 829 288
L 831 284
L 832 280
L 833 280
L 835 286
L 836 282
L 837 283
L 838 279
L 840 278
L 841 272
L 842 274
L 844 265
L 845 247
L 846 244
L 848 242
L 849 236
L 850 225
L 852 222
L 853 210
L 854 211
L 855 203
L 857 194
L 858 178
L 859 170
L 861 160
L 862 147
L 863 157
L 865 130
L 866 127
L 867 128
L 869 130
L 870 131
L 871 129
L 872 114
L 874 132
L 875 137
L 876 155
L 878 164
L 879 170
L 880 188
L 882 207
L 883 225
L 884 237
L 886 245
L 887 257
L 888 264
L 889 282
L 891 294
L 892 296
L 893 300
L 895 305
L 896 306
L 897 308
L 899 310
L 900 309
L 901 314
L 903 319
L 904 318
L 905 322
L 907 323
L 908 325
L 909 330
L 910 330
L 912 332
L 913 335
L 914 337
L 916 333
L 917 334
L 918 330
L 920 328
L 921 325
L 922 321
L 924 321
L 925 315
L 926 306
L 927 300
L 929 293
L 930 287
L 931 284
L 933 275
L 934 276
L 935 274
L 937 268
L 938 265
L 939 255
L 941 244
L 942 235
L 943 219
L 944 199
L 946 172
L 947 138
L 948 114
L 950 101
L 951 91
L 952 84
L 954 75
L 955 66
L 956 62
L 958 53
L 959 34
L 960 21
L 961 20" style="stroke-width:1;stroke:rgba(0,116,217,1.0);fill:none"/><path  d="M 38 351
L 40 351
L 41 351
L 42 351
L 44 351
L 45 351
L 46 351
L 48 351
L 49 351
L 50 351
L 52 351
L 53 351
L 54 351
L 56 351
L 57 351
L 58 350
L 59 350
L 61 350
L 62 350
L 63 350
L 65 350
L 66 349
L 67 350
L 69 349
L 70 350
L 71 350
L 73 350
L 74 350
L 75 349
L 76 350
L 78 350
L 79 349
L 80 350
L 82 350
L 83 351
L 84 350
L 86 350
L 87 350
L 88 350
L 90 351
L 91 350
L 92 351
L 93 351
L 95 350
L 96 351
L 97 351
L 99 351
L 100 350
L 101 350
L 103 351
L 104 350
L 105 350
L 107 351
L 108 350
L 109 350
L 111 350
L 112 351
L 113 350
L 114 350
L 116 351
L 117 351
L 118 350
L 120 351
L 121 351
L 122 351
L 124 351
L 125 351
L 126 350
L 128 351
L 129 350
L 130 351
L 131 351
L 133 351
L 134 351
L 135 351
L 137 351
L 138 351
L 139 351
L 141 351
L 142 351
L 143 351
L 145 351
L 146 351
L 147 351
L 148 351
L 150 351
L 151 351
L 152 351
L 154 351
L 155 351
L 156 351
L 158 351
L 159 351
L 160 351
L 162 351
L 163 351
L 164 351
L 165 351
L 167 351
L 168 351
L 169 351
L 171 351
L 172 351
L 173 351
L 175 351
L 176 351
L 177 351
L 179 351
L 180 351
L 181 351
L 183 351
L 184 351
L 185 351
L 186 351
L 188 351
L 189 351
L 190 351
L 192 351
L 193 350
L 194 351
L 196 351
L 197 350
L 198 351
L 200 351
L 201 351
L 202 350
L 203 351
L 205 351
L 206 350
L 207 351
L 209 351
L 210 350
L 211 351
L 213 350
L 214 350
L 215 351
L 217 350
L 218 351
L 219 351
L 220 351
L 222 351
L 223 350
L 224 350
L 226 350
L 227 351
L 228 350
L 230 351
L 231 350
L 232 351
L 234 351
L 235 351
L 236 351
L 238 351
L 239 351
L 240 351
L 241 351
L 243 351
L 244 351
L 245 351
L 247 351
L 248 351
L 249 350
L 251 351
L 252 351
L 253 351
L 255 351
L 256 351
L 257 351
L 258 350
L 260 350
L 261 351
L 262 350
L 264 351
L 265 351
L 266 351
L 268 350
L 269 350
L 270 350
L 272 351
L 273 351
L 274 351
L 275 351
L 277 350
L 278 350
L 279 350
L 281 351
L 282 350
L 283 350
L 285 350
L 286 350
L 287 350
L 289 350
L 290 349
L 291 349
L 292 350
L 294 349
L 295 350
L 296 350
L 298 351
L 299 350
L 300 351
L 302 350
L 303 350
L 304 350
L 306 349
L 307 350
L 308 350
L 310 350
L 311 350
L 312 350
L 313 350
L 315 350
L 316 350
L 317 350
L 319 351
L 320 350
L 321 350
L 323 349
L 324 350
L 325 350
L 327 351
L 328 350
L 329 350
L 330 350
L 332 350
L 333 350
L 334 350
L 336 350
L 337 350
L 338 350
L 340 350
L 341 350
L 342 349
L 344 348
L 345 348
L 346 348
L 347 349
L 349 350
L 350 344
L 351 347
L 353 347
L 354 345
L 355 346
L 357 347
L 358 344
L 359 346
L 361 343
L 362 342
L 363 339
L 364 344
L 366 348
L 367 337
L 368 338
L 370 342
L 371 324
L 372 337
L 374 339
L 375 345
L 376 332
L 378 336
L 379 342
L 380 340
L 382 344
L 383 346
L 384 342
L 385 335
L 387 343
L 388 338
L 389 339
L 391 346
L 392 347
L 393 346
L 395 339
L 396 344
L 397 344
L 399 346
L 400 348
L 401 349
L 402 349
L 404 347
L 405 348
L 406 347
L 408 346
L 409 347
L 410 349
L 412 348
L 413 348
L 414 348
L 416 347
L 417 347
L 418 347
L 419 346
L 421 348
L 422 348
L 423 348
L 425 350
L 426 348
L 427 350
L 429 348
L 430 347
L 431 346
L 433 347
L 434 348
L 435 350
L 437 349
L 438 349
L 439 346
L 440 348
L 442 347
L 443 348
L 444 348
L 446 349
L 447 349
L 448 349
L 450 348
L 451 349
L 452 349
L 454 348
L 455 349
L 456 349
L 457 348
L 459 348
L 460 350
L 461 349
L 463 349
L 464 350
L 465 349
L 467 348
L 468 348
L 469 349
L 471 349
L 472 349
L 473 350
L 474 350
L 476 350
L 477 349
L 478 350
L 480 350
L 481 349
L 482 351
L 484 349
L 485 350
L 486 350
L 488 349
L 489 350
L 490 349
L 491 350
L 493 349
L 494 349
L 495 350
L 497 349
L 498 349
L 499 350
L 501 350
L 502 350
L 503 349
L 505 349
L 506 349
L 507 350
L 509 349
L 510 350
L 511 350
L 512 350
L 514 349
L 515 348
L 516 350
L 518 349
L 519 350
L 520 349
L 522 350
L 523 349
L 524 350
L 526 350
L 527 349
L 528 349
L 529 349
L 531 349
L 532 349
L 533 346
L 535 348
L 536 348
L 537 348
L 539 348
L 540 348
L 541 347
L 543 347
L 544 343
L 545 346
L 546 346
L 548 347
L 549 348
L 550 348
L 552 347
L 553 346
L 554 349
L 556 346
L 557 346
L 558 348
L 560 348
L 561 346
L 562 350
L 563 348
L 565 349
L 566 348
L 567 348
L 569 349
L 570 349
L 571 349
L 573 348
L 574 347
L 575 349
L 577 349
L 578 348
L 579 346
L 581 349
L 582 348
L 583 349
L 584 348
L 586 347
L 587 350
L 588 346
L 590 350
L 591 349
L 592 348
L 594 350
L 595 348
L 596 347
L 598 349
L 599 348
L 600 348
L 601 349
L 603 349
L 604 350
L 605 348
L 607 349
L 608 349
L 609 349
L 611 349
L 612 351
L 613 349
L 615 350
L 616 350
L 617 349
L 618 350
L 620 350
L 621 350
L 622 350
L 624 350
L 625 350
L 626 349
L 628 350
L 629 349
L 630 351
L 632 350
L 633 350
L 634 350
L 636 350
L 637 350
L 638 350
L 639 351
L 641 350
L 642 350
L 643 350
L 645 350
L 646 351
L 647 351
L 649 350
L 650 351
L 651 350
L 653 351
L 654 350
L 655 351
L 656 350
L 658 351
L 659 350
L 660 350
L 662 351
L 663 351
L 664 351
L 666 351
L 667 351
L 668 351
L 670 351
L 671 351
L 672 351
L 673 351
L 675 350
L 676 351
L 677 351
L 679 351
L 680 351
L 681 350
L 683 351
L 684 351
L 685 351
L 687 351
L 688 351
L 689 351
L 690 351
L 692 351
L 693 351
L 694 351
L 696 350
L 697 350
L 698 351
L 700 351
L 701 350
L 702 350
L 704 350
L 705 351
L 706 350
L 708 351
L 709 350
L 710 350
L 711 350
L 713 350
L 714 350
L 715 350
L 717 351
L 718 350
L 719 350
L 721 351
L 722 351
L 723 350
L 725 350
L 726 350
L 727 350
L 728 350
L 730 350
L 731 350
L 732 350
L 734 351
L 735 351
L 736 350
L 738 350
L 739 350
L 740 350
L 742 351
L 743 350
L 744 350
L 745 350
L 747 350
L 748 350
L 749 350
L 751 351
L 752 350
L 753 350
L 755 350
L 756 350
L 757 350
L 759 350
L 760 350
L 761 349
L 762 350
L 764 349
L 765 349
L 766 349
L 768 350
L 769 350
L 770 347
L 772 349
L 773 349
L 774 350
L 776 349
L 777 350
L 778 350
L 780 349
L 781 350
L 782 349
L 783 348
L 785 349
L 786 350
L 787 349
L 789 347
L 790 349
L 791 349
L 793 346
L 794 350
L 795 348
L 797 349
L 798 346
L 799 348
L 800 349
L 802 348
L 803 349
L 804 349
L 806 350
L 807 347
L 808 348
L 810 348
L 811 348
L 812 349
L 814 350
L 815 349
L 816 348
L 817 347
L 819 347
L 820 344
L 821 346
L 823 348
L 824 346
L 825 342
L 827 343
L 828 344
L 829 343
L 831 343
L 832 346
L 833 346
L 835 346
L 836 340
L 837 345
L 838 340
L 840 343
L 841 342
L 842 347
L 844 340
L 845 328
L 846 343
L 848 339
L 849 338
L 850 334
L 852 346
L 853 332
L 854 329
L 855 337
L 857 333
L 858 328
L 859 329
L 861 338
L 862 324
L 863 335
L 865 320
L 866 331
L 867 328
L 869 331
L 870 339
L 871 322
L 872 325
L 874 331
L 875 334
L 876 340
L 878 337
L 879 343
L 880 334
L 882 338
L 883 343
L 884 342
L 886 345
L 887 345
L 888 347
L 889 346
L 891 347
L 892 345
L 893 345
L 895 348
L 896 346
L 897 349
L 899 347
L 900 346
L 901 348
L 903 348
L 904 347
L 905 349
L 907 349
L 908 348
L 909 349
L 910 348
L 912 350
L 913 349
L 914 350
L 916 347
L 917 349
L 918 347
L 920 347
L 921 348
L 922 347
L 924 349
L 925 344
L 926 342
L 927 343
L 929 342
L 930 344
L 931 345
L 933 343
L 934 344
L 935 341
L 937 339
L 938 340
L 939 337
L 941 338
L 942 337
L 943 334
L 944 328
L 946 320
L 947 318
L 948 321
L 950 329
L 951 330
L 952 329
L 954 322
L 955 314
L 956 316
L 958 315
L 959 316
L 960 321
L 961 329" style="stroke-width:1;stroke:rgba(0,217,101,1.0);fill:none"/><path  d="M 38 351
L 40 351
L 41 351
L 42 351
L 44 351
L 45 351
L 46 351
L 48 351
L 49 351
L 50 351
L 52 351
L 53 351
L 54 351
L 56 351
L 57 351
L 58 351
L 59 351
L 61 351
L 62 351
L 63 351
L 65 351
L 66 351
L 67 351
L 69 351
L 70 351
L 71 351
L 73 351
L 74 351
L 75 351
L 76 351
L 78 351
L 79 351
L 80 351
L 82 351
L 83 351
L 84 351
L 86 351
L 87 351
L 88 351
L 90 351
L 91 351
L 92 351
L 93 351
L 95 351
L 96 351
L 97 351
L 99 351
L 100 351
L 101 351
L 103 351
L 104 350
L 105 351
L 107 350
L 108 350
L 109 351
L 111 351
L 112 351
L 113 351
L 114 351
L 116 351
L 117 350
L 118 351
L 120 350
L 121 351
L 122 351
L 124 351
L 125 351
L 126 351
L 128 351
L 129 351
L 130 351
L 131 351
L 133 351
L 134 351
L 135 351
L 137 351
L 138 351
L 139 351
L 141 351
L 142 351
L 143 351
L 145 351
L 146 351
L 147 351
L 148 351
L 150 351
L 151 351
L 152 351
L 154 351
L 155 351
L 156 351
L 158 351
L 159 351
L 160 351
L 162 351
L 163 351
L 164 350
L 165 351
L 167 351
L 168 351
L 169 351
L 171 351
L 172 351
L 173 351
L 175 351
L 176 351
L 177 351
L 179 351
L 180 351
L 181 351
L 183 351
L 184 351
L 185 351
L 186 351
L 188 351
L 189 351
L 190 351
L 192 351
L 193 351
L 194 351
L 196 351
L 197 351
L 198 351
L 200 351
L 201 351
L 202 351
L 203 351
L 205 351
L 206 351
L 207 351
L 209 351
L 210 351
L 211 351
L 213 351
L 214 351
L 215 351
L 217 351
L 218 351
L 219 351
L 220 351
L 222 351
L 223 351
L 224 351
L 226 351
L 227 351
L 228 351
L 230 351
L 231 351
L 232 351
L 234 351
L 235 351
L 236 351
L 238 351
L 239 351
L 240 351
L 241 351
L 243 351
L 244 351
L 245 351
L 247 351
L 248 351
L 249 351
L 251 351
L 252 351
L 253 351
L 255 351
L 256 351
L 257 351
L 258 351
L 260 351
L 261 351
L 262 351
L 264 351
L 265 351
L 266 351
L 268 351
L 269 351
L 270 351
L 272 351
L 273 351
L 274 351
L 275 351
L 277 351
L 278 351
L 279 351
L 281 351
L 282 351
L 283 351
L 285 351
L 286 351
L 287 351
L 289 351
L 290 351
L 291 351
L 292 351
L 294 351
L 295 351
L 296 351
L 298 351
L 299 351
L 300 351
L 302 351
L 303 351
L 304 351
L 306 351
L 307 351
L 308 351
L 310 351
L 311 351
L 312 351
L 313 351
L 315 351
L 316 351
L 317 351
L 319 351
L 320 351
L 321 351
L 323 351
L 324 351
L 325 351
L 327 351
L 328 351
L 329 351
L 330 351
L 332 351
L 333 351
L 334 351
L 336 351
L 337 351
L 338 351
L 340 351
L 341 351
L 342 351
L 344 351
L 345 351
L 346 351
L 347 351
L 349 351
L 350 351
L 351 351
L 353 351
L 354 351
L 355 351
L 357 351
L 358 350
L 359 350
L 361 351
L 362 350
L 363 350
L 364 350
L 366 351
L 367 351
L 368 351
L 370 350
L 371 350
L 372 351
L 374 350
L 375 350
L 376 351
L 378 350
L 379 350
L 380 351
L 382 350
L 383 351
L 384 351
L 385 350
L 387 350
L 388 350
L 389 350
L 391 350
L 392 350
L 393 351
L 395 350
L 396 350
L 397 351
L 399 351
L 400 350
L 401 350
L 402 350
L 404 350
L 405 350
L 406 350
L 408 350
L 409 351
L 410 350
L 412 350
L 413 351
L 414 350
L 416 350
L 417 350
L 418 351
L 419 350
L 421 350
L 422 350
L 423 350
L 425 351
L 426 350
L 427 350
L 429 350
L 430 350
L 431 351
L 433 351
L 434 351
L 435 351
L 437 350
L 438 350
L 439 350
L 440 351
L 442 350
L 443 351
L 444 350
L 446 350
L 447 351
L 448 351
L 450 351
L 451 350
L 452 351
L 454 350
L 455 350
L 456 350
L 457 351
L 459 351
L 460 350
L 461 350
L 463 351
L 464 351
L 465 351
L 467 351
L 468 351
L 469 351
L 471 351
L 472 351
L 473 351
L 474 351
L 476 351
L 477 351
L 478 351
L 480 351
L 481 350
L 482 351
L 484 351
L 485 351
L 486 350
L 488 351
L 489 351
L 490 351
L 491 351
L 493 351
L 494 351
L 495 351
L 497 350
L 498 351
L 499 351
L 501 351
L 502 351
L 503 351
L 505 350
L 506 351
L 507 351
L 509 351
L 510 351
L 511 351
L 512 351
L 514 351
L 515 351
L 516 351
L 518 351
L 519 351
L 520 351
L 522 351
L 523 351
L 524 351
L 526 351
L 527 351
L 528 351
L 529 351
L 531 351
L 532 351
L 533 351
L 535 351
L 536 351
L 537 350
L 539 351
L 540 351
L 541 351
L 543 351
L 544 351
L 545 351
L 546 350
L 548 351
L 549 350
L 550 350
L 552 351
L 553 351
L 554 351
L 556 351
L 557 351
L 558 351
L 560 350
L 561 351
L 562 351
L 563 351
L 565 351
L 566 351
L 567 351
L 569 351
L 570 351
L 571 351
L 573 351
L 574 351
L 575 351
L 577 350
L 578 351
L 579 351
L 581 351
L 582 351
L 583 350
L 584 351
L 586 351
L 587 351
L 588 351
L 590 350
L 591 351
L 592 351
L 594 351
L 595 351
L 596 351
L 598 351
L 599 351
L 600 351
L 601 351
L 603 351
L 604 351
L 605 351
L 607 351
L 608 351
L 609 351
L 611 351
L 612 351
L 613 351
L 615 351
L 616 351
L 617 351
L 618 351
L 620 351
L 621 351
L 622 351
L 624 351
L 625 351
L 626 351
L 628 351
L 629 351
L 630 351
L 632 351
L 633 351
L 634 351
L 636 351
L 637 351
L 638 351
L 639 351
L 641 351
L 642 351
L 643 351
L 645 351
L 646 351
L 647 351
L 649 351
L 650 351
L 651 351
L 653 351
L 654 351
L 655 351
L 656 351
L 658 351
L 659 351
L 660 351
L 662 351
L 663 351
L 664 351
L 666 351
L 667 351
L 668 351
L 670 351
L 671 351
L 672 351
L 673 351
L 675 351
L 676 351
L 677 351
L 679 351
L 680 351
L 681 351
L 683 351
L 684 351
L 685 351
L 687 351
L 688 351
L 689 351
L 690 351
L 692 351
L 693 351
L 694 351
L 696 351
L 697 351
L 698 351
L 700 351
L 701 351
L 702 351
L 704 351
L 705 351
L 706 351
L 708 351
L 709 351
L 710 351
L 711 351
L 713 351
L 714 351
L 715 351
L 717 351
L 718 351
L 719 351
L 721 351
L 722 351
L 723 351
L 725 351
L 726 351
L 727 351
L 728 351
L 730 351
L 731 351
L 732 351
L 734 351
L 735 351
L 736 351
L 738 351
L 739 351
L 740 351
L 742 351
L 743 351
L 744 351
L 745 351
L 747 351
L 748 351
L 749 351
L 751 351
L 752 351
L 753 351
L 755 351
L 756 351
L 757 351
L 759 351
L 760 351
L 761 351
L 762 351
L 764 351
L 765 351
L 766 351
L 768 350
L 769 351
L 770 351
L 772 351
L 773 351
L 774 351
L 776 351
L 777 351
L 778 351
L 780 351
L 781 351
L 782 351
L 783 351
L 785 351
L 786 351
L 787 351
L 789 351
L 790 351
L 791 351
L 793 351
L 794 351
L 795 351
L 797 351
L 798 351
L 799 351
L 800 351
L 802 351
L 803 351
L 804 351
L 806 351
L 807 351
L 808 351
L 810 351
L 811 351
L 812 351
L 814 351
L 815 351
L 816 351
L 817 351
L 819 351
L 820 351
L 821 351
L 823 351
L 824 351
L 825 351
L 827 351
L 828 351
L 829 351
L 831 351
L 832 350
L 833 351
L 835 351
L 836 351
L 837 351
L 838 351
L 840 351
L 841 351
L 842 351
L 844 350
L 845 351
L 846 351
L 848 350
L 849 351
L 850 351
L 852 350
L 853 351
L 854 351
L 855 350
L 857 351
L 858 351
L 859 351
L 861 350
L 862 351
L 863 350
L 865 351
L 866 351
L 867 351
L 869 350
L 870 350
L 871 351
L 872 350
L 874 351
L 875 351
L 876 351
L 878 351
L 879 350
L 880 351
L 882 351
L 883 351
L 884 350
L 886 351
L 887 351
L 888 351
L 889 351
L 891 351
L 892 350
L 893 351
L 895 351
L 896 351
L 897 351
L 899 351
L 900 350
L 901 350
L 903 351
L 904 350
L 905 350
L 907 351
L 908 351
L 909 351
L 910 351
L 912 351
L 913 351
L 914 351
L 916 351
L 917 351
L 918 351
L 920 351
L 921 351
L 922 351
L 924 351
L 925 351
L 926 350
L 927 351
L 929 351
L 930 350
L 931 351
L 933 351
L 934 351
L 935 351
L 937 351
L 938 351
L 939 351
L 941 351
L 942 351
L 943 351
L 944 351
L 946 351
L 947 351
L 948 350
L 950 351
L 951 351
L 952 351
L 954 351
L 955 351
L 956 351
L 958 351
L 959 351
L 960 351
L 961 351" style="stroke-width:1;stroke:rgba(217,0,116,1.0);fill:none"/><text x="405" y="33" style="stroke-width:0;stroke:none;fill:rgba(51,51,51,1.0);font-size:23.0px;font-family:'Roboto Medium',sans-serif">Freistadt 31.01.2022</text><path  d="M 38 11
L 251 11
L 251 91
L 38 91
L 38 11" style="stroke-width:1;stroke:rgba(51,51,51,1.0);fill:rgba(255,255,255,1.0)"/><text x="43" y="26" style="stroke-width:0;stroke:none;fill:rgba(51,51,51,1.0);font-size:10.2px;font-family:'Roboto Medium',sans-serif">Sieben Tage Durschnitt Inzidenz Fälle</text><path  d="M 221 21
L 241 21" style="stroke-width:1;stroke:rgba(0,116,217,1.0);fill:none"/><text x="43" y="56" style="stroke-width:0;stroke:none;fill:rgba(51,51,51,1.0);font-size:10.2px;font-family:'Roboto Medium',sans-serif">Anzahl Faelle</text><path  d="M 110 51
L 241 51" style="stroke-width:1;stroke:rgba(0,217,101,1.0);fill:none"/><text x="43" y="86" style="stroke-width:0;stroke:none;fill:rgba(51,51,51,1.0);font-size:10.2px;font-family:'Roboto Medium',sans-serif">Anzahl Tot</text><path  d="M 98 81
L 241 81" style="stroke-width:1;stroke:rgba(217,0,116,1.0);fill:none"/></svg>