<svg xmlns="http://www.w3.org/2000/svg" xmlns:xlink="http://www.w3.org/1999/xlink" width="1024" height="400">\n<path  d="M 0 0
L 1024 0
L 1024 400
L 0 400
L 0 0" style="stroke-width:0;stroke:rgba(255,255,255,1.0);fill:rgba(255,255,255,1.0)"/><path  d="M 38 11
L 969 11
L 969 351
L 38 351
L 38 11" style="stroke-width:0;stroke:rgba(255,255,255,1.0);fill:rgba(255,255,255,1.0)"/><path  d="M 38 351
L 969 351" style="stroke-width:1;stroke:rgba(51,51,51,1.0);fill:none"/><path  d="M 38 351
L 38 356" style="stroke-width:1;stroke:rgba(51,51,51,1.0);fill:none"/><text x="5" y="373" style="stroke-width:0;stroke:none;fill:rgba(51,51,51,1.0);font-size:12.8px;font-family:'Roboto Medium',sans-serif">2020-02-26</text><path  d="M 155 351
L 155 356" style="stroke-width:1;stroke:rgba(51,51,51,1.0);fill:none"/><text x="122" y="373" style="stroke-width:0;stroke:none;fill:rgba(51,51,51,1.0);font-size:12.8px;font-family:'Roboto Medium',sans-serif">2020-04-17</text><path  d="M 271 351
L 271 356" style="stroke-width:1;stroke:rgba(51,51,51,1.0);fill:none"/><text x="238" y="373" style="stroke-width:0;stroke:none;fill:rgba(51,51,51,1.0);font-size:12.8px;font-family:'Roboto Medium',sans-serif">2020-06-07</text><path  d="M 388 351
L 388 356" style="stroke-width:1;stroke:rgba(51,51,51,1.0);fill:none"/><text x="355" y="373" style="stroke-width:0;stroke:none;fill:rgba(51,51,51,1.0);font-size:12.8px;font-family:'Roboto Medium',sans-serif">2020-07-28</text><path  d="M 504 351
L 504 356" style="stroke-width:1;stroke:rgba(51,51,51,1.0);fill:none"/><text x="471" y="373" style="stroke-width:0;stroke:none;fill:rgba(51,51,51,1.0);font-size:12.8px;font-family:'Roboto Medium',sans-serif">2020-09-18</text><path  d="M 620 351
L 620 356" style="stroke-width:1;stroke:rgba(51,51,51,1.0);fill:none"/><text x="587" y="373" style="stroke-width:0;stroke:none;fill:rgba(51,51,51,1.0);font-size:12.8px;font-family:'Roboto Medium',sans-serif">2020-11-08</text><path  d="M 737 351
L 737 356" style="stroke-width:1;stroke:rgba(51,51,51,1.0);fill:none"/><text x="704" y="373" style="stroke-width:0;stroke:none;fill:rgba(51,51,51,1.0);font-size:12.8px;font-family:'Roboto Medium',sans-serif">2020-12-29</text><path  d="M 853 351
L 853 356" style="stroke-width:1;stroke:rgba(51,51,51,1.0);fill:none"/><text x="820" y="373" style="stroke-width:0;stroke:none;fill:rgba(51,51,51,1.0);font-size:12.8px;font-family:'Roboto Medium',sans-serif">2021-02-18</text><path  d="M 969 351
L 969 356" style="stroke-width:1;stroke:rgba(51,51,51,1.0);fill:none"/><text x="936" y="373" style="stroke-width:0;stroke:none;fill:rgba(51,51,51,1.0);font-size:12.8px;font-family:'Roboto Medium',sans-serif">2021-04-11</text><text x="485" y="395" style="stroke-width:0;stroke:none;fill:rgba(51,51,51,1.0);font-size:12.8px;font-family:'Roboto Medium',sans-serif">Datum</text><path  d="M 970 351
L 970 11" style="stroke-width:1;stroke:rgba(51,51,51,1.0);fill:none"/><path  d="M 970 351
L 975 351" style="stroke-width:1;stroke:rgba(51,51,51,1.0);fill:none"/><text x="980" y="357" style="stroke-width:0;stroke:none;fill:rgba(51,51,51,1.0);font-size:12.8px;font-family:'Roboto Medium',sans-serif">0.00</text><path  d="M 970 308
L 975 308" style="stroke-width:1;stroke:rgba(51,51,51,1.0);fill:none"/><text x="980" y="314" style="stroke-width:0;stroke:none;fill:rgba(51,51,51,1.0);font-size:12.8px;font-family:'Roboto Medium',sans-serif">84.00</text><path  d="M 970 265
L 975 265" style="stroke-width:1;stroke:rgba(51,51,51,1.0);fill:none"/><text x="980" y="271" style="stroke-width:0;stroke:none;fill:rgba(51,51,51,1.0);font-size:12.8px;font-family:'Roboto Medium',sans-serif">168.00</text><path  d="M 970 223
L 975 223" style="stroke-width:1;stroke:rgba(51,51,51,1.0);fill:none"/><text x="980" y="229" style="stroke-width:0;stroke:none;fill:rgba(51,51,51,1.0);font-size:12.8px;font-family:'Roboto Medium',sans-serif">252.00</text><path  d="M 970 181
L 975 181" style="stroke-width:1;stroke:rgba(51,51,51,1.0);fill:none"/><text x="980" y="187" style="stroke-width:0;stroke:none;fill:rgba(51,51,51,1.0);font-size:12.8px;font-family:'Roboto Medium',sans-serif">335.00</text><path  d="M 970 138
L 975 138" style="stroke-width:1;stroke:rgba(51,51,51,1.0);fill:none"/><text x="980" y="144" style="stroke-width:0;stroke:none;fill:rgba(51,51,51,1.0);font-size:12.8px;font-family:'Roboto Medium',sans-serif">419.00</text><path  d="M 970 95
L 975 95" style="stroke-width:1;stroke:rgba(51,51,51,1.0);fill:none"/><text x="980" y="101" style="stroke-width:0;stroke:none;fill:rgba(51,51,51,1.0);font-size:12.8px;font-family:'Roboto Medium',sans-serif">503.00</text><path  d="M 970 53
L 975 53" style="stroke-width:1;stroke:rgba(51,51,51,1.0);fill:none"/><text x="980" y="59" style="stroke-width:0;stroke:none;fill:rgba(51,51,51,1.0);font-size:12.8px;font-family:'Roboto Medium',sans-serif">587.00</text><path  d="M 970 11
L 975 11" style="stroke-width:1;stroke:rgba(51,51,51,1.0);fill:none"/><text x="980" y="17" style="stroke-width:0;stroke:none;fill:rgba(51,51,51,1.0);font-size:12.8px;font-family:'Roboto Medium',sans-serif">670.00</text><path  d="M 38 351
L 41 351
L 43 351
L 45 351
L 48 351
L 50 351
L 52 351
L 54 351
L 57 351
L 59 351
L 61 351
L 63 351
L 66 351
L 68 351
L 70 351
L 73 350
L 75 349
L 77 348
L 79 346
L 82 345
L 84 345
L 86 345
L 88 345
L 91 346
L 93 346
L 95 347
L 98 347
L 100 342
L 102 342
L 104 341
L 107 335
L 109 335
L 111 335
L 113 335
L 116 339
L 118 338
L 120 339
L 123 345
L 125 345
L 127 346
L 129 347
L 132 347
L 134 349
L 136 349
L 138 349
L 141 350
L 143 350
L 145 350
L 147 350
L 150 350
L 152 350
L 154 350
L 157 350
L 159 349
L 161 349
L 163 349
L 166 348
L 168 348
L 170 348
L 172 348
L 175 348
L 177 348
L 179 348
L 182 348
L 184 348
L 186 349
L 188 349
L 191 350
L 193 351
L 195 351
L 197 351
L 200 351
L 202 350
L 204 350
L 207 350
L 209 350
L 211 350
L 213 350
L 216 350
L 218 351
L 220 351
L 222 351
L 225 351
L 227 351
L 229 351
L 232 351
L 234 351
L 236 351
L 238 351
L 241 351
L 243 351
L 245 351
L 247 351
L 250 351
L 252 351
L 254 351
L 256 351
L 259 351
L 261 351
L 263 351
L 266 351
L 268 351
L 270 351
L 272 351
L 275 351
L 277 351
L 279 351
L 281 351
L 284 351
L 286 351
L 288 351
L 291 351
L 293 351
L 295 351
L 297 350
L 300 350
L 302 350
L 304 350
L 306 350
L 309 350
L 311 350
L 313 350
L 316 350
L 318 349
L 320 349
L 322 349
L 325 349
L 327 350
L 329 350
L 331 350
L 334 351
L 336 351
L 338 350
L 341 350
L 343 350
L 345 349
L 347 349
L 350 348
L 352 348
L 354 349
L 356 348
L 359 347
L 361 348
L 363 348
L 365 348
L 368 347
L 370 347
L 372 346
L 375 347
L 377 345
L 379 344
L 381 339
L 384 338
L 386 337
L 388 338
L 390 336
L 393 336
L 395 337
L 397 342
L 400 343
L 402 342
L 404 342
L 406 344
L 409 346
L 411 346
L 413 347
L 415 346
L 418 349
L 420 348
L 422 348
L 425 348
L 427 348
L 429 347
L 431 347
L 434 346
L 436 345
L 438 344
L 440 344
L 443 344
L 445 343
L 447 344
L 450 343
L 452 344
L 454 344
L 456 344
L 459 344
L 461 345
L 463 345
L 465 346
L 468 345
L 470 346
L 472 346
L 474 346
L 477 344
L 479 345
L 481 346
L 484 347
L 486 347
L 488 345
L 490 345
L 493 346
L 495 345
L 497 345
L 499 345
L 502 343
L 504 342
L 506 342
L 509 341
L 511 342
L 513 340
L 515 340
L 518 340
L 520 344
L 522 344
L 524 342
L 527 335
L 529 332
L 531 326
L 534 325
L 536 319
L 538 318
L 540 318
L 543 318
L 545 315
L 547 312
L 549 305
L 552 305
L 554 302
L 556 304
L 558 308
L 561 306
L 563 306
L 565 306
L 568 296
L 570 295
L 572 290
L 574 285
L 577 284
L 579 279
L 581 273
L 583 253
L 586 247
L 588 219
L 590 200
L 593 186
L 595 162
L 597 133
L 599 118
L 602 97
L 604 82
L 606 72
L 608 35
L 611 31
L 613 19
L 615 11
L 618 15
L 620 12
L 622 18
L 624 60
L 627 33
L 629 34
L 631 56
L 633 77
L 636 84
L 638 90
L 640 78
L 643 107
L 645 111
L 647 128
L 649 115
L 652 145
L 654 148
L 656 140
L 658 152
L 661 181
L 663 175
L 665 185
L 667 183
L 670 202
L 672 215
L 674 212
L 677 225
L 679 215
L 681 219
L 683 228
L 686 209
L 688 220
L 690 225
L 692 204
L 695 212
L 697 188
L 699 188
L 702 175
L 704 171
L 706 173
L 708 198
L 711 186
L 713 212
L 715 207
L 717 207
L 720 208
L 722 203
L 724 193
L 727 210
L 729 203
L 731 208
L 733 230
L 736 227
L 738 220
L 740 224
L 742 231
L 745 225
L 747 217
L 749 206
L 752 214
L 754 231
L 756 212
L 758 208
L 761 212
L 763 223
L 765 232
L 767 230
L 770 237
L 772 253
L 774 257
L 776 261
L 779 259
L 781 259
L 783 257
L 786 261
L 788 264
L 790 272
L 792 274
L 795 272
L 797 275
L 799 282
L 801 283
L 804 282
L 806 280
L 808 279
L 811 276
L 813 277
L 815 276
L 817 273
L 820 280
L 822 274
L 824 280
L 826 283
L 829 290
L 831 289
L 833 300
L 836 293
L 838 301
L 840 295
L 842 295
L 845 292
L 847 299
L 849 292
L 851 283
L 854 285
L 856 285
L 858 286
L 861 293
L 863 291
L 865 287
L 867 302
L 870 306
L 872 302
L 874 304
L 876 295
L 879 293
L 881 299
L 883 290
L 885 279
L 888 272
L 890 264
L 892 265
L 895 250
L 897 252
L 899 248
L 901 249
L 904 261
L 906 260
L 908 254
L 910 263
L 913 252
L 915 259
L 917 261
L 920 258
L 922 265
L 924 264
L 926 256
L 929 256
L 931 244
L 933 228
L 935 221
L 938 211
L 940 215
L 942 207
L 945 207
L 947 207
L 949 220
L 951 218
L 954 223
L 956 219
L 958 228
L 960 220
L 963 227
L 965 222
L 967 221
L 969 224" style="stroke-width:1;stroke:rgba(0,116,217,1.0);fill:none"/><path  d="M 38 351
L 41 351
L 43 351
L 45 351
L 48 351
L 50 351
L 52 351
L 54 351
L 57 351
L 59 351
L 61 351
L 63 351
L 66 351
L 68 351
L 70 351
L 73 350
L 75 349
L 77 349
L 79 348
L 82 350
L 84 351
L 86 350
L 88 350
L 91 350
L 93 349
L 95 350
L 98 349
L 100 346
L 102 349
L 104 349
L 107 344
L 109 349
L 111 350
L 113 349
L 116 351
L 118 348
L 120 350
L 123 350
L 125 349
L 127 351
L 129 351
L 132 351
L 134 351
L 136 351
L 138 350
L 141 351
L 143 351
L 145 350
L 147 351
L 150 351
L 152 351
L 154 350
L 157 351
L 159 349
L 161 350
L 163 351
L 166 350
L 168 351
L 170 349
L 172 351
L 175 349
L 177 350
L 179 351
L 182 351
L 184 351
L 186 351
L 188 351
L 191 351
L 193 351
L 195 351
L 197 351
L 200 351
L 202 350
L 204 351
L 207 351
L 209 351
L 211 351
L 213 351
L 216 351
L 218 351
L 220 351
L 222 351
L 225 351
L 227 351
L 229 351
L 232 351
L 234 351
L 236 351
L 238 351
L 241 351
L 243 351
L 245 351
L 247 351
L 250 351
L 252 351
L 254 351
L 256 351
L 259 351
L 261 351
L 263 351
L 266 351
L 268 351
L 270 351
L 272 351
L 275 351
L 277 351
L 279 351
L 281 351
L 284 351
L 286 351
L 288 351
L 291 351
L 293 351
L 295 351
L 297 350
L 300 351
L 302 351
L 304 351
L 306 351
L 309 351
L 311 350
L 313 350
L 316 351
L 318 350
L 320 351
L 322 351
L 325 351
L 327 351
L 329 351
L 331 351
L 334 351
L 336 351
L 338 350
L 341 351
L 343 351
L 345 349
L 347 351
L 350 350
L 352 351
L 354 351
L 356 350
L 359 349
L 361 350
L 363 351
L 365 350
L 368 350
L 370 351
L 372 348
L 375 351
L 377 348
L 379 349
L 381 344
L 384 349
L 386 349
L 388 350
L 390 348
L 393 348
L 395 351
L 397 349
L 400 350
L 402 348
L 404 351
L 406 350
L 409 350
L 411 351
L 413 351
L 415 349
L 418 351
L 420 349
L 422 351
L 425 349
L 427 351
L 429 350
L 431 349
L 434 349
L 436 348
L 438 350
L 440 349
L 443 351
L 445 348
L 447 350
L 450 348
L 452 350
L 454 350
L 456 349
L 459 351
L 461 350
L 463 350
L 465 349
L 468 349
L 470 351
L 472 349
L 474 351
L 477 348
L 479 351
L 481 351
L 484 351
L 486 351
L 488 347
L 490 350
L 493 349
L 495 350
L 497 351
L 499 350
L 502 349
L 504 346
L 506 350
L 509 348
L 511 351
L 513 348
L 515 350
L 518 349
L 520 350
L 522 351
L 524 346
L 527 343
L 529 345
L 531 344
L 534 348
L 536 343
L 538 350
L 540 346
L 543 343
L 545 342
L 547 341
L 549 341
L 552 344
L 554 347
L 556 348
L 558 347
L 561 340
L 563 342
L 565 341
L 568 333
L 570 346
L 572 343
L 574 341
L 577 339
L 579 337
L 581 334
L 583 313
L 586 340
L 588 315
L 590 321
L 593 326
L 595 312
L 597 304
L 599 299
L 602 319
L 604 299
L 606 311
L 608 288
L 611 308
L 613 293
L 615 290
L 618 323
L 620 296
L 622 317
L 624 330
L 627 281
L 629 294
L 631 312
L 633 344
L 636 304
L 638 323
L 640 318
L 643 310
L 645 298
L 647 329
L 649 332
L 652 334
L 654 326
L 656 310
L 658 323
L 661 327
L 663 323
L 665 341
L 667 332
L 670 345
L 672 324
L 674 319
L 677 341
L 679 312
L 681 345
L 683 342
L 686 326
L 688 336
L 690 324
L 692 320
L 695 321
L 697 320
L 699 342
L 702 313
L 704 332
L 706 325
L 708 345
L 711 309
L 713 347
L 715 337
L 717 313
L 720 332
L 722 320
L 724 335
L 727 326
L 729 340
L 731 342
L 733 335
L 736 330
L 738 312
L 740 340
L 742 333
L 745 334
L 747 333
L 749 324
L 752 338
L 754 330
L 756 320
L 758 329
L 761 338
L 763 345
L 765 333
L 767 336
L 770 336
L 772 337
L 774 333
L 776 342
L 779 343
L 781 333
L 783 334
L 786 340
L 788 340
L 790 341
L 792 344
L 795 341
L 797 336
L 799 341
L 801 341
L 804 339
L 806 339
L 808 343
L 811 338
L 813 337
L 815 341
L 817 338
L 820 346
L 822 333
L 824 349
L 826 341
L 829 344
L 831 340
L 833 349
L 836 338
L 838 341
L 840 342
L 842 341
L 845 342
L 847 347
L 849 341
L 851 330
L 854 343
L 856 343
L 858 342
L 861 348
L 863 345
L 865 337
L 867 345
L 870 346
L 872 339
L 874 345
L 876 339
L 879 343
L 881 342
L 883 336
L 885 335
L 888 332
L 890 337
L 892 340
L 895 329
L 897 344
L 899 332
L 901 337
L 904 344
L 906 336
L 908 333
L 910 338
L 913 334
L 915 339
L 917 339
L 920 341
L 922 343
L 924 333
L 926 330
L 929 333
L 931 327
L 933 323
L 935 334
L 938 332
L 940 337
L 942 321
L 945 333
L 947 327
L 949 336
L 951 333
L 954 337
L 956 333
L 958 330
L 960 325
L 963 334
L 965 331
L 967 332
L 969 340" style="stroke-width:1;stroke:rgba(0,217,101,1.0);fill:none"/><path  d="M 38 351
L 41 351
L 43 351
L 45 351
L 48 351
L 50 351
L 52 351
L 54 351
L 57 351
L 59 351
L 61 351
L 63 351
L 66 351
L 68 351
L 70 351
L 73 351
L 75 351
L 77 351
L 79 351
L 82 351
L 84 351
L 86 351
L 88 351
L 91 351
L 93 351
L 95 351
L 98 351
L 100 351
L 102 351
L 104 351
L 107 350
L 109 351
L 111 351
L 113 351
L 116 351
L 118 351
L 120 351
L 123 351
L 125 351
L 127 351
L 129 351
L 132 351
L 134 351
L 136 351
L 138 351
L 141 351
L 143 351
L 145 351
L 147 351
L 150 351
L 152 351
L 154 351
L 157 351
L 159 351
L 161 351
L 163 351
L 166 351
L 168 351
L 170 351
L 172 351
L 175 351
L 177 351
L 179 350
L 182 351
L 184 351
L 186 351
L 188 351
L 191 351
L 193 351
L 195 351
L 197 351
L 200 351
L 202 351
L 204 351
L 207 351
L 209 351
L 211 351
L 213 351
L 216 351
L 218 351
L 220 351
L 222 351
L 225 351
L 227 351
L 229 351
L 232 351
L 234 351
L 236 351
L 238 351
L 241 351
L 243 351
L 245 351
L 247 351
L 250 351
L 252 351
L 254 351
L 256 351
L 259 351
L 261 351
L 263 351
L 266 351
L 268 351
L 270 351
L 272 351
L 275 351
L 277 351
L 279 351
L 281 351
L 284 351
L 286 351
L 288 351
L 291 351
L 293 351
L 295 351
L 297 351
L 300 351
L 302 351
L 304 351
L 306 351
L 309 351
L 311 351
L 313 351
L 316 351
L 318 351
L 320 351
L 322 351
L 325 351
L 327 351
L 329 351
L 331 351
L 334 351
L 336 351
L 338 351
L 341 351
L 343 351
L 345 351
L 347 351
L 350 351
L 352 351
L 354 351
L 356 351
L 359 351
L 361 351
L 363 351
L 365 351
L 368 351
L 370 351
L 372 351
L 375 351
L 377 351
L 379 351
L 381 351
L 384 351
L 386 351
L 388 351
L 390 351
L 393 351
L 395 351
L 397 351
L 400 351
L 402 351
L 404 351
L 406 351
L 409 351
L 411 351
L 413 351
L 415 351
L 418 351
L 420 351
L 422 351
L 425 351
L 427 351
L 429 351
L 431 351
L 434 351
L 436 351
L 438 351
L 440 351
L 443 351
L 445 351
L 447 351
L 450 351
L 452 351
L 454 351
L 456 351
L 459 351
L 461 351
L 463 351
L 465 351
L 468 351
L 470 351
L 472 351
L 474 351
L 477 351
L 479 351
L 481 351
L 484 351
L 486 351
L 488 351
L 490 351
L 493 351
L 495 351
L 497 351
L 499 351
L 502 351
L 504 351
L 506 351
L 509 351
L 511 351
L 513 351
L 515 351
L 518 351
L 520 351
L 522 351
L 524 351
L 527 351
L 529 351
L 531 351
L 534 351
L 536 351
L 538 351
L 540 351
L 543 351
L 545 351
L 547 351
L 549 350
L 552 351
L 554 351
L 556 351
L 558 351
L 561 351
L 563 351
L 565 351
L 568 351
L 570 351
L 572 351
L 574 351
L 577 351
L 579 351
L 581 351
L 583 351
L 586 351
L 588 351
L 590 351
L 593 350
L 595 351
L 597 351
L 599 351
L 602 351
L 604 351
L 606 351
L 608 350
L 611 350
L 613 350
L 615 351
L 618 351
L 620 351
L 622 350
L 624 350
L 627 349
L 629 350
L 631 349
L 633 350
L 636 350
L 638 350
L 640 350
L 643 350
L 645 351
L 647 350
L 649 351
L 652 351
L 654 348
L 656 350
L 658 351
L 661 349
L 663 351
L 665 351
L 667 350
L 670 351
L 672 350
L 674 349
L 677 350
L 679 350
L 681 350
L 683 350
L 686 351
L 688 348
L 690 350
L 692 351
L 695 351
L 697 350
L 699 351
L 702 351
L 704 349
L 706 351
L 708 350
L 711 350
L 713 350
L 715 350
L 717 351
L 720 349
L 722 351
L 724 350
L 727 351
L 729 349
L 731 350
L 733 351
L 736 349
L 738 349
L 740 348
L 742 349
L 745 350
L 747 351
L 749 350
L 752 351
L 754 349
L 756 350
L 758 348
L 761 350
L 763 351
L 765 349
L 767 350
L 770 351
L 772 350
L 774 351
L 776 350
L 779 351
L 781 351
L 783 351
L 786 350
L 788 351
L 790 351
L 792 351
L 795 350
L 797 351
L 799 351
L 801 351
L 804 351
L 806 350
L 808 351
L 811 351
L 813 350
L 815 351
L 817 350
L 820 351
L 822 351
L 824 351
L 826 351
L 829 351
L 831 351
L 833 350
L 836 351
L 838 351
L 840 350
L 842 351
L 845 351
L 847 350
L 849 351
L 851 351
L 854 351
L 856 351
L 858 351
L 861 351
L 863 351
L 865 351
L 867 350
L 870 351
L 872 351
L 874 351
L 876 351
L 879 351
L 881 351
L 883 351
L 885 351
L 888 350
L 890 351
L 892 351
L 895 351
L 897 351
L 899 351
L 901 350
L 904 351
L 906 351
L 908 351
L 910 350
L 913 351
L 915 351
L 917 351
L 920 351
L 922 351
L 924 351
L 926 351
L 929 351
L 931 351
L 933 351
L 935 351
L 938 351
L 940 351
L 942 351
L 945 350
L 947 351
L 949 351
L 951 350
L 954 350
L 956 351
L 958 351
L 960 351
L 963 351
L 965 351
L 967 350
L 969 351" style="stroke-width:1;stroke:rgba(217,0,116,1.0);fill:none"/><text x="401" y="33" style="stroke-width:0;stroke:none;fill:rgba(51,51,51,1.0);font-size:23.0px;font-family:'Roboto Medium',sans-serif">Gmunden 11.04.2021</text><path  d="M 38 11
L 251 11
L 251 91
L 38 91
L 38 11" style="stroke-width:1;stroke:rgba(51,51,51,1.0);fill:rgba(255,255,255,1.0)"/><text x="43" y="26" style="stroke-width:0;stroke:none;fill:rgba(51,51,51,1.0);font-size:10.2px;font-family:'Roboto Medium',sans-serif">Sieben Tage Durschnitt Inzidenz Fälle</text><path  d="M 221 21
L 241 21" style="stroke-width:1;stroke:rgba(0,116,217,1.0);fill:none"/><text x="43" y="56" style="stroke-width:0;stroke:none;fill:rgba(51,51,51,1.0);font-size:10.2px;font-family:'Roboto Medium',sans-serif">Anzahl Faelle</text><path  d="M 110 51
L 241 51" style="stroke-width:1;stroke:rgba(0,217,101,1.0);fill:none"/><text x="43" y="86" style="stroke-width:0;stroke:none;fill:rgba(51,51,51,1.0);font-size:10.2px;font-family:'Roboto Medium',sans-serif">Anzahl Tot</text><path  d="M 98 81
L 241 81" style="stroke-width:1;stroke:rgba(217,0,116,1.0);fill:none"/></svg>