<svg xmlns="http://www.w3.org/2000/svg" xmlns:xlink="http://www.w3.org/1999/xlink" width="1024" height="400">\n<path  d="M 0 0
L 1024 0
L 1024 400
L 0 400
L 0 0" style="stroke-width:0;stroke:rgba(255,255,255,1.0);fill:rgba(255,255,255,1.0)"/><path  d="M 38 11
L 961 11
L 961 351
L 38 351
L 38 11" style="stroke-width:0;stroke:rgba(255,255,255,1.0);fill:rgba(255,255,255,1.0)"/><path  d="M 38 351
L 961 351" style="stroke-width:1;stroke:rgba(51,51,51,1.0);fill:none"/><path  d="M 38 351
L 38 356" style="stroke-width:1;stroke:rgba(51,51,51,1.0);fill:none"/><text x="5" y="373" style="stroke-width:0;stroke:none;fill:rgba(51,51,51,1.0);font-size:12.8px;font-family:'Roboto Medium',sans-serif">2020-02-26</text><path  d="M 154 351
L 154 356" style="stroke-width:1;stroke:rgba(51,51,51,1.0);fill:none"/><text x="121" y="373" style="stroke-width:0;stroke:none;fill:rgba(51,51,51,1.0);font-size:12.8px;font-family:'Roboto Medium',sans-serif">2020-06-13</text><path  d="M 269 351
L 269 356" style="stroke-width:1;stroke:rgba(51,51,51,1.0);fill:none"/><text x="236" y="373" style="stroke-width:0;stroke:none;fill:rgba(51,51,51,1.0);font-size:12.8px;font-family:'Roboto Medium',sans-serif">2020-09-30</text><path  d="M 385 351
L 385 356" style="stroke-width:1;stroke:rgba(51,51,51,1.0);fill:none"/><text x="352" y="373" style="stroke-width:0;stroke:none;fill:rgba(51,51,51,1.0);font-size:12.8px;font-family:'Roboto Medium',sans-serif">2021-01-17</text><path  d="M 500 351
L 500 356" style="stroke-width:1;stroke:rgba(51,51,51,1.0);fill:none"/><text x="467" y="373" style="stroke-width:0;stroke:none;fill:rgba(51,51,51,1.0);font-size:12.8px;font-family:'Roboto Medium',sans-serif">2021-05-06</text><path  d="M 615 351
L 615 356" style="stroke-width:1;stroke:rgba(51,51,51,1.0);fill:none"/><text x="582" y="373" style="stroke-width:0;stroke:none;fill:rgba(51,51,51,1.0);font-size:12.8px;font-family:'Roboto Medium',sans-serif">2021-08-23</text><path  d="M 731 351
L 731 356" style="stroke-width:1;stroke:rgba(51,51,51,1.0);fill:none"/><text x="698" y="373" style="stroke-width:0;stroke:none;fill:rgba(51,51,51,1.0);font-size:12.8px;font-family:'Roboto Medium',sans-serif">2021-12-10</text><path  d="M 846 351
L 846 356" style="stroke-width:1;stroke:rgba(51,51,51,1.0);fill:none"/><text x="813" y="373" style="stroke-width:0;stroke:none;fill:rgba(51,51,51,1.0);font-size:12.8px;font-family:'Roboto Medium',sans-serif">2022-03-29</text><path  d="M 961 351
L 961 356" style="stroke-width:1;stroke:rgba(51,51,51,1.0);fill:none"/><text x="928" y="373" style="stroke-width:0;stroke:none;fill:rgba(51,51,51,1.0);font-size:12.8px;font-family:'Roboto Medium',sans-serif">2022-07-16</text><text x="481" y="395" style="stroke-width:0;stroke:none;fill:rgba(51,51,51,1.0);font-size:12.8px;font-family:'Roboto Medium',sans-serif">Datum</text><path  d="M 962 351
L 962 11" style="stroke-width:1;stroke:rgba(51,51,51,1.0);fill:none"/><path  d="M 962 351
L 967 351" style="stroke-width:1;stroke:rgba(51,51,51,1.0);fill:none"/><text x="972" y="357" style="stroke-width:0;stroke:none;fill:rgba(51,51,51,1.0);font-size:12.8px;font-family:'Roboto Medium',sans-serif">0.00</text><path  d="M 962 307
L 967 307" style="stroke-width:1;stroke:rgba(51,51,51,1.0);fill:none"/><text x="972" y="313" style="stroke-width:0;stroke:none;fill:rgba(51,51,51,1.0);font-size:12.8px;font-family:'Roboto Medium',sans-serif">520.00</text><path  d="M 962 265
L 967 265" style="stroke-width:1;stroke:rgba(51,51,51,1.0);fill:none"/><text x="972" y="271" style="stroke-width:0;stroke:none;fill:rgba(51,51,51,1.0);font-size:12.8px;font-family:'Roboto Medium',sans-serif">1030.00</text><path  d="M 962 223
L 967 223" style="stroke-width:1;stroke:rgba(51,51,51,1.0);fill:none"/><text x="972" y="229" style="stroke-width:0;stroke:none;fill:rgba(51,51,51,1.0);font-size:12.8px;font-family:'Roboto Medium',sans-serif">1540.00</text><path  d="M 962 181
L 967 181" style="stroke-width:1;stroke:rgba(51,51,51,1.0);fill:none"/><text x="972" y="187" style="stroke-width:0;stroke:none;fill:rgba(51,51,51,1.0);font-size:12.8px;font-family:'Roboto Medium',sans-serif">2050.00</text><path  d="M 962 137
L 967 137" style="stroke-width:1;stroke:rgba(51,51,51,1.0);fill:none"/><text x="972" y="143" style="stroke-width:0;stroke:none;fill:rgba(51,51,51,1.0);font-size:12.8px;font-family:'Roboto Medium',sans-serif">2570.00</text><path  d="M 962 95
L 967 95" style="stroke-width:1;stroke:rgba(51,51,51,1.0);fill:none"/><text x="972" y="101" style="stroke-width:0;stroke:none;fill:rgba(51,51,51,1.0);font-size:12.8px;font-family:'Roboto Medium',sans-serif">3080.00</text><path  d="M 962 53
L 967 53" style="stroke-width:1;stroke:rgba(51,51,51,1.0);fill:none"/><text x="972" y="59" style="stroke-width:0;stroke:none;fill:rgba(51,51,51,1.0);font-size:12.8px;font-family:'Roboto Medium',sans-serif">3590.00</text><path  d="M 962 11
L 967 11" style="stroke-width:1;stroke:rgba(51,51,51,1.0);fill:none"/><text x="972" y="17" style="stroke-width:0;stroke:none;fill:rgba(51,51,51,1.0);font-size:12.8px;font-family:'Roboto Medium',sans-serif">4100.00</text><path  d="M 38 351
L 40 351
L 41 351
L 42 351
L 43 351
L 44 351
L 45 351
L 46 351
L 47 351
L 48 351
L 49 351
L 50 351
L 51 351
L 52 351
L 53 351
L 54 351
L 55 351
L 57 351
L 58 351
L 59 351
L 60 350
L 61 350
L 62 350
L 63 350
L 64 350
L 65 350
L 66 350
L 67 350
L 68 350
L 69 350
L 70 349
L 71 350
L 72 350
L 73 350
L 75 350
L 76 350
L 77 350
L 78 351
L 79 351
L 80 351
L 81 351
L 82 351
L 83 350
L 84 350
L 85 350
L 86 350
L 87 349
L 88 349
L 89 349
L 90 349
L 91 349
L 93 350
L 94 350
L 95 350
L 96 350
L 97 350
L 98 350
L 99 350
L 100 350
L 101 350
L 102 350
L 103 351
L 104 351
L 105 351
L 106 351
L 107 351
L 108 351
L 109 351
L 111 351
L 112 351
L 113 351
L 114 351
L 115 351
L 116 351
L 117 351
L 118 351
L 119 351
L 120 351
L 121 351
L 122 351
L 123 351
L 124 351
L 125 351
L 126 351
L 128 351
L 129 351
L 130 351
L 131 351
L 132 351
L 133 351
L 134 351
L 135 351
L 136 351
L 137 351
L 138 351
L 139 351
L 140 351
L 141 351
L 142 351
L 143 351
L 144 351
L 146 351
L 147 351
L 148 351
L 149 351
L 150 351
L 151 351
L 152 351
L 153 351
L 154 351
L 155 351
L 156 351
L 157 351
L 158 351
L 159 351
L 160 350
L 161 350
L 162 350
L 164 350
L 165 350
L 166 350
L 167 350
L 168 351
L 169 351
L 170 351
L 171 351
L 172 351
L 173 351
L 174 351
L 175 350
L 176 350
L 177 350
L 178 350
L 179 350
L 180 350
L 182 350
L 183 351
L 184 351
L 185 351
L 186 350
L 187 350
L 188 350
L 189 350
L 190 350
L 191 350
L 192 350
L 193 351
L 194 351
L 195 351
L 196 351
L 197 351
L 199 351
L 200 351
L 201 351
L 202 351
L 203 351
L 204 351
L 205 351
L 206 351
L 207 351
L 208 350
L 209 350
L 210 350
L 211 350
L 212 350
L 213 350
L 214 350
L 215 351
L 217 351
L 218 351
L 219 351
L 220 351
L 221 351
L 222 351
L 223 351
L 224 351
L 225 351
L 226 351
L 227 351
L 228 351
L 229 351
L 230 351
L 231 351
L 232 351
L 233 351
L 235 351
L 236 351
L 237 351
L 238 351
L 239 351
L 240 351
L 241 351
L 242 350
L 243 350
L 244 350
L 245 350
L 246 350
L 247 350
L 248 350
L 249 351
L 250 351
L 251 350
L 253 350
L 254 349
L 255 348
L 256 348
L 257 347
L 258 346
L 259 345
L 260 343
L 261 342
L 262 341
L 263 340
L 264 340
L 265 338
L 266 339
L 267 341
L 268 342
L 270 342
L 271 341
L 272 342
L 273 343
L 274 344
L 275 343
L 276 343
L 277 345
L 278 345
L 279 346
L 280 344
L 281 344
L 282 344
L 283 343
L 284 343
L 285 344
L 286 342
L 288 343
L 289 342
L 290 340
L 291 339
L 292 337
L 293 335
L 294 334
L 295 333
L 296 331
L 297 329
L 298 322
L 299 318
L 300 315
L 301 313
L 302 309
L 303 307
L 304 304
L 306 306
L 307 305
L 308 304
L 309 303
L 310 302
L 311 302
L 312 303
L 313 304
L 314 308
L 315 310
L 316 311
L 317 310
L 318 308
L 319 312
L 320 312
L 321 311
L 322 310
L 324 311
L 325 315
L 326 318
L 327 318
L 328 318
L 329 321
L 330 326
L 331 327
L 332 329
L 333 330
L 334 328
L 335 329
L 336 327
L 337 322
L 338 321
L 339 320
L 341 321
L 342 319
L 343 321
L 344 321
L 345 325
L 346 327
L 347 324
L 348 324
L 349 329
L 350 328
L 351 331
L 352 331
L 353 332
L 354 335
L 355 337
L 356 337
L 357 335
L 359 334
L 360 333
L 361 334
L 362 334
L 363 332
L 364 332
L 365 335
L 366 336
L 367 338
L 368 338
L 369 340
L 370 340
L 371 342
L 372 342
L 373 342
L 374 340
L 375 340
L 377 339
L 378 339
L 379 338
L 380 337
L 381 337
L 382 339
L 383 339
L 384 339
L 385 339
L 386 339
L 387 339
L 388 339
L 389 340
L 390 340
L 391 340
L 392 340
L 393 341
L 395 342
L 396 343
L 397 343
L 398 343
L 399 344
L 400 345
L 401 344
L 402 345
L 403 345
L 404 344
L 405 344
L 406 343
L 407 345
L 408 346
L 409 345
L 410 345
L 412 345
L 413 345
L 414 344
L 415 342
L 416 340
L 417 338
L 418 337
L 419 334
L 420 333
L 421 332
L 422 332
L 423 332
L 424 331
L 425 332
L 426 333
L 427 333
L 428 333
L 430 333
L 431 332
L 432 332
L 433 330
L 434 327
L 435 327
L 436 328
L 437 328
L 438 329
L 439 327
L 440 327
L 441 328
L 442 327
L 443 327
L 444 326
L 445 326
L 446 329
L 448 330
L 449 330
L 450 330
L 451 329
L 452 329
L 453 328
L 454 327
L 455 326
L 456 326
L 457 326
L 458 325
L 459 325
L 460 328
L 461 328
L 462 326
L 463 327
L 464 322
L 466 324
L 467 327
L 468 325
L 469 325
L 470 327
L 471 328
L 472 333
L 473 332
L 474 330
L 475 330
L 476 330
L 477 330
L 478 331
L 479 331
L 480 333
L 481 337
L 483 340
L 484 339
L 485 341
L 486 341
L 487 342
L 488 342
L 489 341
L 490 340
L 491 341
L 492 342
L 493 344
L 494 344
L 495 343
L 496 344
L 497 344
L 498 346
L 499 346
L 501 346
L 502 346
L 503 347
L 504 347
L 505 348
L 506 348
L 507 347
L 508 348
L 509 348
L 510 348
L 511 347
L 512 345
L 513 345
L 514 345
L 515 344
L 516 344
L 517 344
L 519 345
L 520 347
L 521 347
L 522 347
L 523 348
L 524 348
L 525 348
L 526 348
L 527 348
L 528 348
L 529 348
L 530 348
L 531 348
L 532 349
L 533 349
L 534 349
L 535 349
L 537 349
L 538 349
L 539 349
L 540 349
L 541 349
L 542 349
L 543 349
L 544 350
L 545 350
L 546 350
L 547 350
L 548 350
L 549 350
L 550 350
L 551 350
L 552 351
L 554 351
L 555 351
L 556 351
L 557 351
L 558 351
L 559 350
L 560 350
L 561 350
L 562 350
L 563 350
L 564 350
L 565 350
L 566 350
L 567 350
L 568 350
L 569 350
L 570 350
L 572 349
L 573 349
L 574 349
L 575 349
L 576 349
L 577 349
L 578 350
L 579 350
L 580 350
L 581 350
L 582 350
L 583 351
L 584 350
L 585 350
L 586 350
L 587 350
L 588 350
L 590 350
L 591 350
L 592 350
L 593 350
L 594 349
L 595 349
L 596 349
L 597 349
L 598 349
L 599 349
L 600 349
L 601 350
L 602 350
L 603 350
L 604 350
L 605 350
L 606 350
L 608 348
L 609 348
L 610 348
L 611 348
L 612 347
L 613 347
L 614 347
L 615 348
L 616 347
L 617 347
L 618 348
L 619 347
L 620 347
L 621 347
L 622 346
L 623 347
L 625 347
L 626 347
L 627 347
L 628 348
L 629 349
L 630 350
L 631 350
L 632 349
L 633 348
L 634 348
L 635 346
L 636 346
L 637 346
L 638 344
L 639 345
L 640 344
L 641 342
L 643 344
L 644 343
L 645 343
L 646 344
L 647 343
L 648 343
L 649 343
L 650 341
L 651 342
L 652 342
L 653 342
L 654 343
L 655 344
L 656 344
L 657 346
L 658 346
L 659 346
L 661 346
L 662 345
L 663 345
L 664 346
L 665 345
L 666 344
L 667 344
L 668 342
L 669 341
L 670 340
L 671 339
L 672 339
L 673 339
L 674 338
L 675 337
L 676 336
L 677 336
L 679 334
L 680 334
L 681 333
L 682 332
L 683 333
L 684 331
L 685 329
L 686 326
L 687 327
L 688 329
L 689 324
L 690 318
L 691 318
L 692 313
L 693 309
L 694 302
L 696 298
L 697 296
L 698 296
L 699 284
L 700 282
L 701 281
L 702 282
L 703 279
L 704 272
L 705 267
L 706 269
L 707 267
L 708 264
L 709 253
L 710 243
L 711 250
L 712 255
L 714 252
L 715 257
L 716 259
L 717 266
L 718 276
L 719 281
L 720 274
L 721 281
L 722 283
L 723 286
L 724 291
L 725 292
L 726 292
L 727 299
L 728 305
L 729 309
L 730 313
L 732 314
L 733 318
L 734 321
L 735 326
L 736 328
L 737 331
L 738 333
L 739 337
L 740 339
L 741 340
L 742 342
L 743 344
L 744 345
L 745 345
L 746 346
L 747 346
L 748 346
L 750 348
L 751 347
L 752 346
L 753 347
L 754 347
L 755 346
L 756 344
L 757 340
L 758 337
L 759 334
L 760 332
L 761 328
L 762 325
L 763 321
L 764 319
L 765 313
L 767 309
L 768 305
L 769 305
L 770 300
L 771 299
L 772 299
L 773 298
L 774 296
L 775 294
L 776 292
L 777 289
L 778 286
L 779 282
L 780 277
L 781 268
L 782 262
L 783 259
L 785 256
L 786 255
L 787 243
L 788 241
L 789 239
L 790 232
L 791 215
L 792 212
L 793 206
L 794 198
L 795 186
L 796 181
L 797 178
L 798 181
L 799 165
L 800 158
L 801 150
L 803 135
L 804 124
L 805 121
L 806 122
L 807 125
L 808 127
L 809 126
L 810 137
L 811 139
L 812 140
L 813 140
L 814 142
L 815 136
L 816 130
L 817 128
L 818 128
L 819 121
L 821 108
L 822 105
L 823 96
L 824 93
L 825 75
L 826 59
L 827 55
L 828 54
L 829 46
L 830 39
L 831 13
L 832 12
L 833 18
L 834 19
L 835 20
L 836 20
L 838 33
L 839 48
L 840 70
L 841 76
L 842 86
L 843 93
L 844 112
L 845 122
L 846 147
L 847 153
L 848 171
L 849 177
L 850 189
L 851 191
L 852 197
L 853 207
L 854 206
L 856 208
L 857 214
L 858 217
L 859 221
L 860 225
L 861 233
L 862 245
L 863 254
L 864 260
L 865 265
L 866 271
L 867 274
L 868 287
L 869 285
L 870 286
L 871 291
L 872 293
L 874 294
L 875 296
L 876 294
L 877 305
L 878 306
L 879 309
L 880 310
L 881 310
L 882 310
L 883 311
L 884 310
L 885 310
L 886 307
L 887 310
L 888 314
L 889 319
L 890 318
L 892 319
L 893 324
L 894 327
L 895 327
L 896 328
L 897 326
L 898 328
L 899 330
L 900 329
L 901 330
L 902 331
L 903 332
L 904 333
L 905 333
L 906 335
L 907 337
L 909 337
L 910 338
L 911 339
L 912 341
L 913 341
L 914 341
L 915 341
L 916 340
L 917 339
L 918 337
L 919 337
L 920 336
L 921 334
L 922 330
L 923 324
L 924 318
L 925 315
L 927 311
L 928 309
L 929 307
L 930 307
L 931 311
L 932 313
L 933 316
L 934 315
L 935 312
L 936 310
L 937 308
L 938 307
L 939 305
L 940 303
L 941 302
L 942 301
L 943 301
L 945 301
L 946 302
L 947 298
L 948 298
L 949 298
L 950 300
L 951 299
L 952 300
L 953 300
L 954 303
L 955 299
L 956 299
L 957 297
L 958 297
L 959 293
L 960 289
L 961 289" style="stroke-width:1;stroke:rgba(0,116,217,1.0);fill:none"/><path  d="M 38 351
L 40 351
L 41 351
L 42 351
L 43 351
L 44 351
L 45 351
L 46 351
L 47 351
L 48 351
L 49 351
L 50 351
L 51 351
L 52 351
L 53 351
L 54 351
L 55 351
L 57 351
L 58 351
L 59 351
L 60 350
L 61 351
L 62 351
L 63 351
L 64 350
L 65 350
L 66 351
L 67 350
L 68 351
L 69 351
L 70 350
L 71 351
L 72 351
L 73 351
L 75 351
L 76 351
L 77 351
L 78 351
L 79 351
L 80 351
L 81 351
L 82 351
L 83 350
L 84 351
L 85 350
L 86 351
L 87 350
L 88 350
L 89 351
L 90 351
L 91 350
L 93 351
L 94 351
L 95 351
L 96 350
L 97 351
L 98 351
L 99 351
L 100 351
L 101 351
L 102 351
L 103 351
L 104 351
L 105 351
L 106 351
L 107 351
L 108 351
L 109 351
L 111 351
L 112 351
L 113 351
L 114 351
L 115 351
L 116 351
L 117 351
L 118 351
L 119 351
L 120 351
L 121 351
L 122 351
L 123 351
L 124 351
L 125 351
L 126 351
L 128 351
L 129 351
L 130 351
L 131 351
L 132 351
L 133 351
L 134 351
L 135 351
L 136 351
L 137 351
L 138 351
L 139 351
L 140 351
L 141 351
L 142 351
L 143 351
L 144 351
L 146 351
L 147 351
L 148 351
L 149 351
L 150 351
L 151 351
L 152 351
L 153 351
L 154 351
L 155 351
L 156 351
L 157 351
L 158 351
L 159 351
L 160 350
L 161 351
L 162 351
L 164 351
L 165 351
L 166 351
L 167 351
L 168 351
L 169 351
L 170 351
L 171 351
L 172 351
L 173 351
L 174 351
L 175 350
L 176 351
L 177 351
L 178 351
L 179 351
L 180 351
L 182 351
L 183 351
L 184 351
L 185 351
L 186 350
L 187 351
L 188 351
L 189 351
L 190 351
L 191 351
L 192 351
L 193 351
L 194 351
L 195 351
L 196 351
L 197 351
L 199 351
L 200 351
L 201 351
L 202 351
L 203 351
L 204 351
L 205 351
L 206 351
L 207 351
L 208 350
L 209 351
L 210 351
L 211 351
L 212 351
L 213 351
L 214 351
L 215 351
L 217 351
L 218 351
L 219 351
L 220 351
L 221 351
L 222 351
L 223 351
L 224 351
L 225 351
L 226 351
L 227 351
L 228 351
L 229 351
L 230 351
L 231 351
L 232 351
L 233 351
L 235 351
L 236 351
L 237 351
L 238 351
L 239 351
L 240 351
L 241 351
L 242 350
L 243 351
L 244 351
L 245 351
L 246 351
L 247 351
L 248 351
L 249 351
L 250 351
L 251 350
L 253 350
L 254 350
L 255 350
L 256 350
L 257 350
L 258 350
L 259 350
L 260 350
L 261 350
L 262 350
L 263 350
L 264 350
L 265 350
L 266 350
L 267 350
L 268 350
L 270 350
L 271 350
L 272 350
L 273 350
L 274 350
L 275 350
L 276 350
L 277 350
L 278 350
L 279 350
L 280 350
L 281 350
L 282 350
L 283 350
L 284 350
L 285 350
L 286 350
L 288 350
L 289 350
L 290 350
L 291 350
L 292 350
L 293 349
L 294 350
L 295 350
L 296 349
L 297 349
L 298 347
L 299 348
L 300 348
L 301 349
L 302 348
L 303 348
L 304 348
L 306 348
L 307 348
L 308 348
L 309 348
L 310 348
L 311 348
L 312 348
L 313 348
L 314 349
L 315 349
L 316 348
L 317 348
L 318 348
L 319 350
L 320 349
L 321 348
L 322 348
L 324 349
L 325 349
L 326 349
L 327 350
L 328 349
L 329 349
L 330 350
L 331 350
L 332 350
L 333 349
L 334 349
L 335 349
L 336 349
L 337 348
L 338 349
L 339 349
L 341 350
L 342 348
L 343 350
L 344 349
L 345 350
L 346 350
L 347 348
L 348 349
L 349 350
L 350 350
L 351 350
L 352 350
L 353 350
L 354 350
L 355 350
L 356 350
L 357 349
L 359 350
L 360 349
L 361 350
L 362 350
L 363 350
L 364 350
L 365 350
L 366 350
L 367 350
L 368 350
L 369 350
L 370 350
L 371 350
L 372 350
L 373 350
L 374 350
L 375 350
L 377 350
L 378 350
L 379 350
L 380 350
L 381 350
L 382 350
L 383 350
L 384 350
L 385 350
L 386 350
L 387 349
L 388 350
L 389 350
L 390 350
L 391 350
L 392 350
L 393 350
L 395 350
L 396 350
L 397 350
L 398 350
L 399 350
L 400 350
L 401 350
L 402 350
L 403 350
L 404 350
L 405 350
L 406 350
L 407 351
L 408 350
L 409 350
L 410 350
L 412 350
L 413 350
L 414 350
L 415 350
L 416 350
L 417 350
L 418 350
L 419 349
L 420 350
L 421 350
L 422 350
L 423 350
L 424 349
L 425 350
L 426 349
L 427 350
L 428 350
L 430 349
L 431 349
L 432 350
L 433 349
L 434 348
L 435 350
L 436 350
L 437 350
L 438 350
L 439 349
L 440 349
L 441 349
L 442 350
L 443 350
L 444 349
L 445 349
L 446 350
L 448 350
L 449 348
L 450 350
L 451 349
L 452 349
L 453 349
L 454 349
L 455 350
L 456 349
L 457 350
L 458 349
L 459 349
L 460 350
L 461 349
L 462 349
L 463 349
L 464 348
L 466 350
L 467 350
L 468 349
L 469 350
L 470 350
L 471 349
L 472 350
L 473 349
L 474 349
L 475 349
L 476 350
L 477 349
L 478 350
L 479 350
L 480 350
L 481 351
L 483 350
L 484 350
L 485 350
L 486 350
L 487 350
L 488 350
L 489 350
L 490 350
L 491 350
L 492 350
L 493 350
L 494 350
L 495 350
L 496 350
L 497 350
L 498 350
L 499 350
L 501 350
L 502 350
L 503 350
L 504 350
L 505 350
L 506 350
L 507 350
L 508 351
L 509 350
L 510 350
L 511 350
L 512 350
L 513 350
L 514 350
L 515 350
L 516 350
L 517 350
L 519 350
L 520 350
L 521 350
L 522 350
L 523 350
L 524 350
L 525 350
L 526 350
L 527 350
L 528 350
L 529 350
L 530 350
L 531 351
L 532 351
L 533 351
L 534 351
L 535 350
L 537 350
L 538 351
L 539 351
L 540 351
L 541 350
L 542 351
L 543 350
L 544 351
L 545 350
L 546 351
L 547 351
L 548 351
L 549 351
L 550 351
L 551 351
L 552 351
L 554 351
L 555 351
L 556 351
L 557 351
L 558 351
L 559 350
L 560 350
L 561 351
L 562 351
L 563 351
L 564 351
L 565 350
L 566 351
L 567 351
L 568 350
L 569 351
L 570 350
L 572 350
L 573 351
L 574 350
L 575 351
L 576 350
L 577 351
L 578 351
L 579 351
L 580 351
L 581 351
L 582 351
L 583 351
L 584 350
L 585 351
L 586 350
L 587 351
L 588 351
L 590 350
L 591 351
L 592 351
L 593 350
L 594 350
L 595 350
L 596 351
L 597 351
L 598 350
L 599 351
L 600 351
L 601 350
L 602 351
L 603 350
L 604 351
L 605 350
L 606 351
L 608 350
L 609 350
L 610 350
L 611 350
L 612 350
L 613 350
L 614 350
L 615 350
L 616 350
L 617 351
L 618 350
L 619 350
L 620 350
L 621 350
L 622 350
L 623 350
L 625 350
L 626 350
L 627 351
L 628 351
L 629 351
L 630 350
L 631 350
L 632 350
L 633 350
L 634 350
L 635 350
L 636 350
L 637 350
L 638 350
L 639 350
L 640 350
L 641 350
L 643 350
L 644 350
L 645 350
L 646 350
L 647 350
L 648 350
L 649 350
L 650 350
L 651 350
L 652 350
L 653 350
L 654 350
L 655 350
L 656 350
L 657 350
L 658 350
L 659 350
L 661 350
L 662 350
L 663 350
L 664 350
L 665 350
L 666 350
L 667 350
L 668 349
L 669 350
L 670 350
L 671 350
L 672 350
L 673 350
L 674 350
L 675 349
L 676 350
L 677 350
L 679 350
L 680 350
L 681 350
L 682 349
L 683 349
L 684 349
L 685 349
L 686 349
L 687 350
L 688 350
L 689 348
L 690 348
L 691 349
L 692 347
L 693 347
L 694 348
L 696 349
L 697 347
L 698 348
L 699 345
L 700 346
L 701 347
L 702 348
L 703 348
L 704 344
L 705 346
L 706 345
L 707 345
L 708 346
L 709 344
L 710 344
L 711 347
L 712 347
L 714 344
L 715 347
L 716 346
L 717 347
L 718 348
L 719 348
L 720 345
L 721 347
L 722 348
L 723 348
L 724 349
L 725 348
L 726 349
L 727 347
L 728 349
L 729 349
L 730 349
L 732 349
L 733 350
L 734 350
L 735 349
L 736 350
L 737 350
L 738 350
L 739 350
L 740 350
L 741 350
L 742 350
L 743 350
L 744 350
L 745 350
L 746 351
L 747 350
L 748 351
L 750 350
L 751 350
L 752 350
L 753 350
L 754 350
L 755 350
L 756 350
L 757 349
L 758 349
L 759 349
L 760 350
L 761 349
L 762 349
L 763 348
L 764 348
L 765 347
L 767 348
L 768 348
L 769 349
L 770 348
L 771 348
L 772 348
L 773 347
L 774 347
L 775 347
L 776 348
L 777 347
L 778 346
L 779 346
L 780 345
L 781 343
L 782 345
L 783 347
L 785 345
L 786 346
L 787 342
L 788 345
L 789 343
L 790 343
L 791 341
L 792 345
L 793 344
L 794 339
L 795 341
L 796 341
L 797 341
L 798 342
L 799 339
L 800 341
L 801 336
L 803 335
L 804 337
L 805 340
L 806 342
L 807 340
L 808 342
L 809 336
L 810 339
L 811 338
L 812 341
L 813 342
L 814 341
L 815 340
L 816 334
L 817 339
L 818 338
L 819 338
L 821 337
L 822 340
L 823 336
L 824 333
L 825 332
L 826 332
L 827 336
L 828 337
L 829 337
L 830 334
L 831 323
L 832 332
L 833 334
L 834 337
L 835 337
L 836 336
L 838 339
L 839 329
L 840 340
L 841 336
L 842 340
L 843 340
L 844 344
L 845 342
L 846 338
L 847 342
L 848 343
L 849 343
L 850 344
L 851 344
L 852 345
L 853 341
L 854 342
L 856 343
L 857 345
L 858 345
L 859 346
L 860 346
L 861 344
L 862 346
L 863 347
L 864 347
L 865 347
L 866 348
L 867 347
L 868 349
L 869 345
L 870 347
L 871 348
L 872 348
L 874 348
L 875 348
L 876 348
L 877 349
L 878 348
L 879 350
L 880 348
L 881 348
L 882 348
L 883 349
L 884 348
L 885 348
L 886 348
L 887 350
L 888 349
L 889 350
L 890 349
L 892 349
L 893 350
L 894 349
L 895 350
L 896 350
L 897 349
L 898 349
L 899 349
L 900 349
L 901 350
L 902 350
L 903 350
L 904 350
L 905 350
L 906 350
L 907 350
L 909 350
L 910 350
L 911 350
L 912 350
L 913 350
L 914 350
L 915 350
L 916 350
L 917 350
L 918 349
L 919 350
L 920 350
L 921 349
L 922 348
L 923 347
L 924 348
L 925 348
L 927 348
L 928 349
L 929 348
L 930 349
L 931 349
L 932 349
L 933 349
L 934 348
L 935 348
L 936 348
L 937 348
L 938 349
L 939 348
L 940 349
L 941 347
L 942 347
L 943 348
L 945 348
L 946 349
L 947 347
L 948 349
L 949 347
L 950 348
L 951 347
L 952 348
L 953 349
L 954 348
L 955 348
L 956 347
L 957 347
L 958 347
L 959 347
L 960 347
L 961 348" style="stroke-width:1;stroke:rgba(0,217,101,1.0);fill:none"/><path  d="M 38 351
L 40 351
L 41 351
L 42 351
L 43 351
L 44 351
L 45 351
L 46 351
L 47 351
L 48 351
L 49 351
L 50 351
L 51 351
L 52 351
L 53 351
L 54 351
L 55 351
L 57 351
L 58 351
L 59 351
L 60 351
L 61 351
L 62 351
L 63 351
L 64 351
L 65 351
L 66 351
L 67 351
L 68 351
L 69 351
L 70 351
L 71 351
L 72 351
L 73 351
L 75 351
L 76 351
L 77 351
L 78 351
L 79 351
L 80 351
L 81 351
L 82 351
L 83 351
L 84 351
L 85 351
L 86 351
L 87 351
L 88 351
L 89 351
L 90 351
L 91 351
L 93 351
L 94 351
L 95 351
L 96 351
L 97 351
L 98 351
L 99 351
L 100 351
L 101 351
L 102 351
L 103 351
L 104 351
L 105 351
L 106 351
L 107 351
L 108 351
L 109 351
L 111 351
L 112 351
L 113 351
L 114 351
L 115 351
L 116 351
L 117 351
L 118 351
L 119 351
L 120 351
L 121 351
L 122 351
L 123 351
L 124 351
L 125 351
L 126 351
L 128 351
L 129 351
L 130 351
L 131 351
L 132 351
L 133 351
L 134 351
L 135 351
L 136 351
L 137 351
L 138 351
L 139 351
L 140 351
L 141 351
L 142 351
L 143 351
L 144 351
L 146 351
L 147 351
L 148 351
L 149 351
L 150 351
L 151 351
L 152 351
L 153 351
L 154 351
L 155 351
L 156 351
L 157 351
L 158 351
L 159 351
L 160 351
L 161 351
L 162 351
L 164 351
L 165 351
L 166 351
L 167 351
L 168 351
L 169 351
L 170 351
L 171 351
L 172 351
L 173 351
L 174 351
L 175 351
L 176 351
L 177 351
L 178 351
L 179 351
L 180 351
L 182 351
L 183 351
L 184 351
L 185 351
L 186 351
L 187 351
L 188 351
L 189 351
L 190 351
L 191 351
L 192 351
L 193 351
L 194 351
L 195 351
L 196 351
L 197 351
L 199 351
L 200 351
L 201 351
L 202 351
L 203 351
L 204 351
L 205 351
L 206 351
L 207 351
L 208 351
L 209 351
L 210 351
L 211 351
L 212 351
L 213 351
L 214 351
L 215 351
L 217 351
L 218 351
L 219 351
L 220 351
L 221 351
L 222 351
L 223 351
L 224 351
L 225 351
L 226 351
L 227 351
L 228 351
L 229 351
L 230 351
L 231 351
L 232 351
L 233 351
L 235 351
L 236 351
L 237 351
L 238 351
L 239 351
L 240 351
L 241 351
L 242 351
L 243 351
L 244 351
L 245 351
L 246 351
L 247 351
L 248 351
L 249 351
L 250 351
L 251 351
L 253 351
L 254 351
L 255 351
L 256 351
L 257 351
L 258 351
L 259 351
L 260 351
L 261 351
L 262 351
L 263 351
L 264 351
L 265 351
L 266 351
L 267 351
L 268 351
L 270 351
L 271 351
L 272 351
L 273 351
L 274 351
L 275 350
L 276 351
L 277 351
L 278 351
L 279 351
L 280 351
L 281 351
L 282 351
L 283 351
L 284 351
L 285 351
L 286 351
L 288 351
L 289 351
L 290 350
L 291 351
L 292 350
L 293 351
L 294 351
L 295 351
L 296 351
L 297 351
L 298 351
L 299 350
L 300 350
L 301 350
L 302 351
L 303 350
L 304 350
L 306 351
L 307 351
L 308 350
L 309 350
L 310 351
L 311 350
L 312 350
L 313 350
L 314 350
L 315 351
L 316 350
L 317 351
L 318 351
L 319 351
L 320 351
L 321 350
L 322 350
L 324 351
L 325 351
L 326 350
L 327 350
L 328 351
L 329 350
L 330 351
L 331 350
L 332 351
L 333 350
L 334 350
L 335 351
L 336 351
L 337 351
L 338 351
L 339 350
L 341 350
L 342 351
L 343 351
L 344 351
L 345 351
L 346 351
L 347 351
L 348 351
L 349 350
L 350 350
L 351 351
L 352 351
L 353 350
L 354 351
L 355 351
L 356 351
L 357 351
L 359 350
L 360 351
L 361 351
L 362 351
L 363 350
L 364 351
L 365 351
L 366 350
L 367 351
L 368 351
L 369 351
L 370 351
L 371 351
L 372 350
L 373 351
L 374 351
L 375 351
L 377 351
L 378 351
L 379 350
L 380 351
L 381 351
L 382 351
L 383 351
L 384 351
L 385 351
L 386 351
L 387 351
L 388 351
L 389 351
L 390 351
L 391 351
L 392 351
L 393 351
L 395 351
L 396 351
L 397 350
L 398 351
L 399 351
L 400 351
L 401 351
L 402 351
L 403 351
L 404 350
L 405 350
L 406 351
L 407 351
L 408 351
L 409 351
L 410 351
L 412 351
L 413 351
L 414 351
L 415 351
L 416 351
L 417 351
L 418 351
L 419 351
L 420 351
L 421 350
L 422 351
L 423 350
L 424 351
L 425 351
L 426 351
L 427 351
L 428 351
L 430 351
L 431 351
L 432 351
L 433 351
L 434 350
L 435 351
L 436 350
L 437 351
L 438 351
L 439 351
L 440 351
L 441 351
L 442 351
L 443 351
L 444 351
L 445 351
L 446 351
L 448 351
L 449 350
L 450 351
L 451 350
L 452 351
L 453 350
L 454 351
L 455 351
L 456 351
L 457 351
L 458 350
L 459 351
L 460 351
L 461 351
L 462 351
L 463 350
L 464 351
L 466 351
L 467 351
L 468 351
L 469 351
L 470 351
L 471 351
L 472 351
L 473 351
L 474 350
L 475 351
L 476 351
L 477 351
L 478 350
L 479 351
L 480 351
L 481 350
L 483 350
L 484 351
L 485 351
L 486 351
L 487 350
L 488 351
L 489 351
L 490 351
L 491 351
L 492 351
L 493 351
L 494 351
L 495 351
L 496 351
L 497 351
L 498 351
L 499 351
L 501 351
L 502 351
L 503 351
L 504 351
L 505 351
L 506 351
L 507 351
L 508 351
L 509 351
L 510 351
L 511 351
L 512 350
L 513 351
L 514 351
L 515 351
L 516 351
L 517 351
L 519 351
L 520 351
L 521 351
L 522 351
L 523 350
L 524 351
L 525 351
L 526 351
L 527 351
L 528 351
L 529 351
L 530 351
L 531 351
L 532 351
L 533 351
L 534 351
L 535 351
L 537 351
L 538 351
L 539 351
L 540 351
L 541 351
L 542 351
L 543 351
L 544 351
L 545 351
L 546 351
L 547 351
L 548 351
L 549 351
L 550 351
L 551 351
L 552 351
L 554 351
L 555 351
L 556 351
L 557 351
L 558 351
L 559 351
L 560 351
L 561 351
L 562 351
L 563 351
L 564 351
L 565 351
L 566 351
L 567 351
L 568 351
L 569 351
L 570 351
L 572 351
L 573 351
L 574 351
L 575 351
L 576 351
L 577 351
L 578 351
L 579 351
L 580 351
L 581 351
L 582 351
L 583 351
L 584 351
L 585 351
L 586 351
L 587 351
L 588 351
L 590 351
L 591 351
L 592 351
L 593 351
L 594 351
L 595 351
L 596 351
L 597 351
L 598 351
L 599 351
L 600 351
L 601 351
L 602 351
L 603 351
L 604 351
L 605 351
L 606 351
L 608 351
L 609 351
L 610 351
L 611 351
L 612 351
L 613 351
L 614 351
L 615 351
L 616 351
L 617 351
L 618 351
L 619 351
L 620 351
L 621 351
L 622 351
L 623 351
L 625 351
L 626 351
L 627 351
L 628 351
L 629 350
L 630 351
L 631 351
L 632 351
L 633 351
L 634 351
L 635 351
L 636 351
L 637 351
L 638 351
L 639 351
L 640 351
L 641 351
L 643 351
L 644 351
L 645 351
L 646 351
L 647 351
L 648 351
L 649 351
L 650 350
L 651 351
L 652 351
L 653 350
L 654 351
L 655 351
L 656 351
L 657 350
L 658 351
L 659 351
L 661 351
L 662 351
L 663 351
L 664 351
L 665 351
L 666 351
L 667 351
L 668 351
L 669 351
L 670 351
L 671 351
L 672 351
L 673 350
L 674 351
L 675 351
L 676 351
L 677 351
L 679 351
L 680 351
L 681 351
L 682 351
L 683 351
L 684 350
L 685 351
L 686 351
L 687 350
L 688 351
L 689 351
L 690 351
L 691 351
L 692 351
L 693 350
L 694 351
L 696 350
L 697 350
L 698 351
L 699 351
L 700 350
L 701 350
L 702 351
L 703 350
L 704 351
L 705 350
L 706 351
L 707 351
L 708 351
L 709 351
L 710 351
L 711 351
L 712 351
L 714 350
L 715 351
L 716 350
L 717 351
L 718 350
L 719 351
L 720 351
L 721 350
L 722 350
L 723 351
L 724 350
L 725 351
L 726 351
L 727 350
L 728 350
L 729 350
L 730 350
L 732 351
L 733 350
L 734 350
L 735 351
L 736 350
L 737 351
L 738 351
L 739 351
L 740 351
L 741 351
L 742 350
L 743 351
L 744 351
L 745 350
L 746 351
L 747 351
L 748 351
L 750 350
L 751 350
L 752 350
L 753 351
L 754 351
L 755 351
L 756 350
L 757 351
L 758 351
L 759 351
L 760 351
L 761 351
L 762 351
L 763 350
L 764 351
L 765 351
L 767 351
L 768 351
L 769 351
L 770 351
L 771 351
L 772 350
L 773 351
L 774 350
L 775 350
L 776 351
L 777 351
L 778 350
L 779 350
L 780 351
L 781 351
L 782 351
L 783 350
L 785 351
L 786 351
L 787 351
L 788 351
L 789 351
L 790 351
L 791 351
L 792 351
L 793 351
L 794 351
L 795 351
L 796 351
L 797 351
L 798 351
L 799 351
L 800 351
L 801 351
L 803 351
L 804 351
L 805 351
L 806 351
L 807 350
L 808 351
L 809 351
L 810 351
L 811 350
L 812 351
L 813 351
L 814 350
L 815 350
L 816 351
L 817 351
L 818 351
L 819 350
L 821 351
L 822 351
L 823 350
L 824 350
L 825 350
L 826 351
L 827 351
L 828 351
L 829 351
L 830 351
L 831 351
L 832 350
L 833 350
L 834 351
L 835 350
L 836 351
L 838 351
L 839 350
L 840 351
L 841 351
L 842 351
L 843 350
L 844 350
L 845 351
L 846 350
L 847 351
L 848 351
L 849 351
L 850 350
L 851 350
L 852 351
L 853 351
L 854 350
L 856 351
L 857 350
L 858 350
L 859 350
L 860 350
L 861 350
L 862 351
L 863 350
L 864 351
L 865 351
L 866 350
L 867 350
L 868 351
L 869 351
L 870 350
L 871 351
L 872 351
L 874 350
L 875 351
L 876 351
L 877 350
L 878 351
L 879 351
L 880 351
L 881 351
L 882 351
L 883 350
L 884 351
L 885 351
L 886 351
L 887 351
L 888 350
L 889 351
L 890 350
L 892 351
L 893 351
L 894 351
L 895 351
L 896 351
L 897 351
L 898 351
L 899 351
L 900 351
L 901 351
L 902 351
L 903 351
L 904 351
L 905 351
L 906 351
L 907 351
L 909 351
L 910 351
L 911 351
L 912 351
L 913 351
L 914 351
L 915 351
L 916 351
L 917 351
L 918 351
L 919 351
L 920 351
L 921 351
L 922 351
L 923 351
L 924 351
L 925 351
L 927 351
L 928 351
L 929 351
L 930 351
L 931 351
L 932 351
L 933 351
L 934 351
L 935 351
L 936 351
L 937 351
L 938 351
L 939 351
L 940 351
L 941 351
L 942 351
L 943 351
L 945 351
L 946 351
L 947 351
L 948 351
L 949 351
L 950 351
L 951 351
L 952 351
L 953 351
L 954 351
L 955 351
L 956 351
L 957 351
L 958 351
L 959 351
L 960 351
L 961 351" style="stroke-width:1;stroke:rgba(217,0,116,1.0);fill:none"/><text x="413" y="33" style="stroke-width:0;stroke:none;fill:rgba(51,51,51,1.0);font-size:23.0px;font-family:'Roboto Medium',sans-serif">Gmünd 16.07.2022</text><path  d="M 38 11
L 251 11
L 251 91
L 38 91
L 38 11" style="stroke-width:1;stroke:rgba(51,51,51,1.0);fill:rgba(255,255,255,1.0)"/><text x="43" y="26" style="stroke-width:0;stroke:none;fill:rgba(51,51,51,1.0);font-size:10.2px;font-family:'Roboto Medium',sans-serif">Sieben Tage Durschnitt Inzidenz Fälle</text><path  d="M 221 21
L 241 21" style="stroke-width:1;stroke:rgba(0,116,217,1.0);fill:none"/><text x="43" y="56" style="stroke-width:0;stroke:none;fill:rgba(51,51,51,1.0);font-size:10.2px;font-family:'Roboto Medium',sans-serif">Anzahl Faelle</text><path  d="M 110 51
L 241 51" style="stroke-width:1;stroke:rgba(0,217,101,1.0);fill:none"/><text x="43" y="86" style="stroke-width:0;stroke:none;fill:rgba(51,51,51,1.0);font-size:10.2px;font-family:'Roboto Medium',sans-serif">Anzahl Tot</text><path  d="M 98 81
L 241 81" style="stroke-width:1;stroke:rgba(217,0,116,1.0);fill:none"/></svg>