<svg xmlns="http://www.w3.org/2000/svg" xmlns:xlink="http://www.w3.org/1999/xlink" width="1024" height="400">\n<path  d="M 0 0
L 1024 0
L 1024 400
L 0 400
L 0 0" style="stroke-width:0;stroke:rgba(255,255,255,1.0);fill:rgba(255,255,255,1.0)"/><path  d="M 38 11
L 969 11
L 969 351
L 38 351
L 38 11" style="stroke-width:0;stroke:rgba(255,255,255,1.0);fill:rgba(255,255,255,1.0)"/><path  d="M 38 351
L 969 351" style="stroke-width:1;stroke:rgba(51,51,51,1.0);fill:none"/><path  d="M 38 351
L 38 356" style="stroke-width:1;stroke:rgba(51,51,51,1.0);fill:none"/><text x="5" y="373" style="stroke-width:0;stroke:none;fill:rgba(51,51,51,1.0);font-size:12.8px;font-family:'Roboto Medium',sans-serif">2020-02-26</text><path  d="M 155 351
L 155 356" style="stroke-width:1;stroke:rgba(51,51,51,1.0);fill:none"/><text x="122" y="373" style="stroke-width:0;stroke:none;fill:rgba(51,51,51,1.0);font-size:12.8px;font-family:'Roboto Medium',sans-serif">2020-04-01</text><path  d="M 271 351
L 271 356" style="stroke-width:1;stroke:rgba(51,51,51,1.0);fill:none"/><text x="238" y="373" style="stroke-width:0;stroke:none;fill:rgba(51,51,51,1.0);font-size:12.8px;font-family:'Roboto Medium',sans-serif">2020-05-07</text><path  d="M 388 351
L 388 356" style="stroke-width:1;stroke:rgba(51,51,51,1.0);fill:none"/><text x="355" y="373" style="stroke-width:0;stroke:none;fill:rgba(51,51,51,1.0);font-size:12.8px;font-family:'Roboto Medium',sans-serif">2020-06-12</text><path  d="M 504 351
L 504 356" style="stroke-width:1;stroke:rgba(51,51,51,1.0);fill:none"/><text x="471" y="373" style="stroke-width:0;stroke:none;fill:rgba(51,51,51,1.0);font-size:12.8px;font-family:'Roboto Medium',sans-serif">2020-07-18</text><path  d="M 620 351
L 620 356" style="stroke-width:1;stroke:rgba(51,51,51,1.0);fill:none"/><text x="587" y="373" style="stroke-width:0;stroke:none;fill:rgba(51,51,51,1.0);font-size:12.8px;font-family:'Roboto Medium',sans-serif">2020-08-23</text><path  d="M 737 351
L 737 356" style="stroke-width:1;stroke:rgba(51,51,51,1.0);fill:none"/><text x="704" y="373" style="stroke-width:0;stroke:none;fill:rgba(51,51,51,1.0);font-size:12.8px;font-family:'Roboto Medium',sans-serif">2020-09-28</text><path  d="M 853 351
L 853 356" style="stroke-width:1;stroke:rgba(51,51,51,1.0);fill:none"/><text x="820" y="373" style="stroke-width:0;stroke:none;fill:rgba(51,51,51,1.0);font-size:12.8px;font-family:'Roboto Medium',sans-serif">2020-11-03</text><path  d="M 969 351
L 969 356" style="stroke-width:1;stroke:rgba(51,51,51,1.0);fill:none"/><text x="936" y="373" style="stroke-width:0;stroke:none;fill:rgba(51,51,51,1.0);font-size:12.8px;font-family:'Roboto Medium',sans-serif">2020-12-09</text><text x="485" y="395" style="stroke-width:0;stroke:none;fill:rgba(51,51,51,1.0);font-size:12.8px;font-family:'Roboto Medium',sans-serif">Datum</text><path  d="M 970 351
L 970 11" style="stroke-width:1;stroke:rgba(51,51,51,1.0);fill:none"/><path  d="M 970 351
L 975 351" style="stroke-width:1;stroke:rgba(51,51,51,1.0);fill:none"/><text x="980" y="357" style="stroke-width:0;stroke:none;fill:rgba(51,51,51,1.0);font-size:12.8px;font-family:'Roboto Medium',sans-serif">0.00</text><path  d="M 970 308
L 975 308" style="stroke-width:1;stroke:rgba(51,51,51,1.0);fill:none"/><text x="980" y="314" style="stroke-width:0;stroke:none;fill:rgba(51,51,51,1.0);font-size:12.8px;font-family:'Roboto Medium',sans-serif">75.00</text><path  d="M 970 266
L 975 266" style="stroke-width:1;stroke:rgba(51,51,51,1.0);fill:none"/><text x="980" y="272" style="stroke-width:0;stroke:none;fill:rgba(51,51,51,1.0);font-size:12.8px;font-family:'Roboto Medium',sans-serif">150.00</text><path  d="M 970 223
L 975 223" style="stroke-width:1;stroke:rgba(51,51,51,1.0);fill:none"/><text x="980" y="229" style="stroke-width:0;stroke:none;fill:rgba(51,51,51,1.0);font-size:12.8px;font-family:'Roboto Medium',sans-serif">225.00</text><path  d="M 970 181
L 975 181" style="stroke-width:1;stroke:rgba(51,51,51,1.0);fill:none"/><text x="980" y="187" style="stroke-width:0;stroke:none;fill:rgba(51,51,51,1.0);font-size:12.8px;font-family:'Roboto Medium',sans-serif">300.00</text><path  d="M 970 138
L 975 138" style="stroke-width:1;stroke:rgba(51,51,51,1.0);fill:none"/><text x="980" y="144" style="stroke-width:0;stroke:none;fill:rgba(51,51,51,1.0);font-size:12.8px;font-family:'Roboto Medium',sans-serif">375.00</text><path  d="M 970 96
L 975 96" style="stroke-width:1;stroke:rgba(51,51,51,1.0);fill:none"/><text x="980" y="102" style="stroke-width:0;stroke:none;fill:rgba(51,51,51,1.0);font-size:12.8px;font-family:'Roboto Medium',sans-serif">450.00</text><path  d="M 970 53
L 975 53" style="stroke-width:1;stroke:rgba(51,51,51,1.0);fill:none"/><text x="980" y="59" style="stroke-width:0;stroke:none;fill:rgba(51,51,51,1.0);font-size:12.8px;font-family:'Roboto Medium',sans-serif">525.00</text><path  d="M 970 11
L 975 11" style="stroke-width:1;stroke:rgba(51,51,51,1.0);fill:none"/><text x="980" y="17" style="stroke-width:0;stroke:none;fill:rgba(51,51,51,1.0);font-size:12.8px;font-family:'Roboto Medium',sans-serif">600.00</text><path  d="M 38 351
L 42 351
L 45 351
L 48 351
L 51 351
L 55 351
L 58 351
L 61 351
L 64 351
L 68 351
L 71 351
L 74 351
L 77 351
L 81 351
L 84 351
L 87 351
L 90 351
L 94 351
L 97 351
L 100 351
L 103 349
L 107 349
L 110 349
L 113 349
L 116 347
L 120 346
L 123 346
L 126 344
L 129 344
L 133 344
L 136 343
L 139 344
L 142 346
L 146 346
L 149 349
L 152 349
L 155 349
L 159 351
L 162 351
L 165 351
L 168 351
L 171 351
L 175 349
L 178 349
L 181 344
L 184 344
L 188 343
L 191 341
L 194 341
L 197 343
L 201 341
L 204 346
L 207 346
L 210 347
L 214 349
L 217 349
L 220 349
L 223 351
L 227 351
L 230 351
L 233 351
L 236 351
L 240 351
L 243 351
L 246 351
L 249 351
L 253 351
L 256 351
L 259 351
L 262 351
L 266 351
L 269 351
L 272 351
L 275 351
L 279 351
L 282 351
L 285 351
L 288 351
L 292 351
L 295 351
L 298 351
L 301 351
L 304 351
L 308 351
L 311 351
L 314 351
L 317 351
L 321 351
L 324 351
L 327 351
L 330 351
L 334 351
L 337 351
L 340 351
L 343 351
L 347 351
L 350 351
L 353 351
L 356 351
L 360 351
L 363 351
L 366 351
L 369 351
L 373 351
L 376 351
L 379 351
L 382 351
L 386 351
L 389 351
L 392 351
L 395 351
L 399 351
L 402 351
L 405 351
L 408 351
L 412 349
L 415 349
L 418 349
L 421 349
L 425 349
L 428 349
L 431 349
L 434 351
L 437 351
L 441 351
L 444 351
L 447 351
L 450 351
L 454 351
L 457 349
L 460 349
L 463 349
L 467 349
L 470 349
L 473 349
L 476 349
L 480 351
L 483 351
L 486 351
L 489 349
L 493 349
L 496 349
L 499 349
L 502 349
L 506 349
L 509 349
L 512 351
L 515 351
L 519 351
L 522 351
L 525 351
L 528 351
L 532 351
L 535 351
L 538 351
L 541 351
L 545 351
L 548 351
L 551 351
L 554 351
L 558 349
L 561 349
L 564 349
L 567 349
L 570 349
L 574 349
L 577 349
L 580 351
L 583 351
L 587 351
L 590 351
L 593 351
L 596 351
L 600 351
L 603 351
L 606 351
L 609 351
L 613 351
L 616 351
L 619 351
L 622 351
L 626 351
L 629 351
L 632 351
L 635 351
L 639 351
L 642 351
L 645 351
L 648 351
L 652 351
L 655 351
L 658 351
L 661 349
L 665 349
L 668 349
L 671 349
L 674 349
L 678 349
L 681 347
L 684 349
L 687 349
L 691 347
L 694 344
L 697 337
L 700 333
L 703 332
L 707 326
L 710 323
L 713 316
L 716 301
L 720 293
L 723 284
L 726 281
L 729 278
L 733 268
L 736 271
L 739 285
L 742 296
L 746 292
L 749 290
L 752 293
L 755 304
L 759 306
L 762 302
L 765 304
L 768 312
L 772 312
L 775 318
L 778 307
L 781 306
L 785 307
L 788 299
L 791 302
L 794 306
L 798 296
L 801 301
L 804 296
L 807 281
L 811 278
L 814 264
L 817 245
L 820 236
L 824 230
L 827 211
L 830 205
L 833 160
L 836 135
L 840 113
L 843 101
L 846 76
L 849 64
L 853 40
L 856 54
L 859 45
L 862 39
L 866 26
L 869 17
L 872 16
L 875 25
L 879 31
L 882 56
L 885 73
L 888 76
L 892 70
L 895 61
L 898 84
L 901 90
L 905 81
L 908 73
L 911 82
L 914 112
L 918 130
L 921 133
L 924 137
L 927 155
L 931 182
L 934 192
L 937 202
L 940 208
L 944 194
L 947 199
L 950 191
L 953 158
L 957 152
L 960 144
L 963 154
L 966 138
L 969 149" style="stroke-width:1;stroke:rgba(0,116,217,1.0);fill:none"/><path  d="M 38 351
L 42 351
L 45 351
L 48 351
L 51 351
L 55 351
L 58 351
L 61 351
L 64 351
L 68 351
L 71 351
L 74 351
L 77 351
L 81 351
L 84 351
L 87 351
L 90 351
L 94 351
L 97 351
L 100 351
L 103 350
L 107 351
L 110 351
L 113 351
L 116 350
L 120 350
L 123 351
L 126 349
L 129 351
L 133 351
L 136 350
L 139 351
L 142 351
L 146 351
L 149 351
L 152 351
L 155 351
L 159 351
L 162 351
L 165 351
L 168 351
L 171 351
L 175 350
L 178 351
L 181 349
L 184 351
L 188 350
L 191 350
L 194 351
L 197 351
L 201 350
L 204 351
L 207 351
L 210 351
L 214 351
L 217 351
L 220 351
L 223 351
L 227 351
L 230 351
L 233 351
L 236 351
L 240 351
L 243 351
L 246 351
L 249 351
L 253 351
L 256 351
L 259 351
L 262 351
L 266 351
L 269 351
L 272 351
L 275 351
L 279 351
L 282 351
L 285 351
L 288 351
L 292 351
L 295 351
L 298 351
L 301 351
L 304 351
L 308 351
L 311 351
L 314 351
L 317 351
L 321 351
L 324 351
L 327 351
L 330 351
L 334 351
L 337 351
L 340 351
L 343 351
L 347 351
L 350 351
L 353 351
L 356 351
L 360 351
L 363 351
L 366 351
L 369 351
L 373 351
L 376 351
L 379 351
L 382 351
L 386 351
L 389 351
L 392 351
L 395 351
L 399 351
L 402 351
L 405 351
L 408 351
L 412 350
L 415 351
L 418 351
L 421 351
L 425 351
L 428 351
L 431 351
L 434 351
L 437 351
L 441 351
L 444 351
L 447 351
L 450 351
L 454 351
L 457 350
L 460 351
L 463 351
L 467 351
L 470 351
L 473 351
L 476 351
L 480 351
L 483 351
L 486 351
L 489 350
L 493 351
L 496 351
L 499 351
L 502 351
L 506 351
L 509 351
L 512 351
L 515 351
L 519 351
L 522 351
L 525 351
L 528 351
L 532 351
L 535 351
L 538 351
L 541 351
L 545 351
L 548 351
L 551 351
L 554 351
L 558 350
L 561 351
L 564 351
L 567 351
L 570 351
L 574 351
L 577 351
L 580 351
L 583 351
L 587 351
L 590 351
L 593 351
L 596 351
L 600 351
L 603 351
L 606 351
L 609 351
L 613 351
L 616 351
L 619 351
L 622 351
L 626 351
L 629 351
L 632 351
L 635 351
L 639 351
L 642 351
L 645 351
L 648 351
L 652 351
L 655 351
L 658 351
L 661 350
L 665 351
L 668 351
L 671 351
L 674 351
L 678 351
L 681 350
L 684 351
L 687 351
L 691 350
L 694 349
L 697 348
L 700 349
L 703 349
L 707 348
L 710 349
L 713 348
L 716 344
L 720 345
L 723 346
L 726 348
L 729 347
L 733 346
L 736 349
L 739 349
L 742 349
L 746 344
L 749 348
L 752 348
L 755 350
L 759 349
L 762 348
L 765 349
L 768 347
L 772 348
L 775 351
L 778 346
L 781 349
L 785 348
L 788 347
L 791 348
L 794 349
L 798 347
L 801 348
L 804 347
L 807 343
L 811 345
L 814 343
L 817 342
L 820 344
L 824 345
L 827 340
L 830 340
L 833 329
L 836 334
L 840 334
L 843 339
L 846 336
L 849 336
L 853 332
L 856 334
L 859 331
L 862 332
L 866 335
L 869 333
L 872 335
L 875 335
L 879 336
L 882 340
L 885 338
L 888 336
L 892 331
L 895 332
L 898 344
L 901 339
L 905 336
L 908 335
L 911 339
L 914 341
L 918 339
L 921 345
L 924 340
L 927 343
L 931 345
L 934 343
L 937 345
L 940 341
L 944 340
L 947 341
L 950 340
L 953 333
L 957 341
L 960 342
L 963 344
L 966 334
L 969 345" style="stroke-width:1;stroke:rgba(0,217,101,1.0);fill:none"/><path  d="M 38 351
L 42 351
L 45 351
L 48 351
L 51 351
L 55 351
L 58 351
L 61 351
L 64 351
L 68 351
L 71 351
L 74 351
L 77 351
L 81 351
L 84 351
L 87 351
L 90 351
L 94 351
L 97 351
L 100 351
L 103 351
L 107 351
L 110 351
L 113 351
L 116 351
L 120 351
L 123 351
L 126 351
L 129 351
L 133 351
L 136 351
L 139 351
L 142 351
L 146 351
L 149 351
L 152 351
L 155 351
L 159 351
L 162 351
L 165 351
L 168 351
L 171 351
L 175 351
L 178 351
L 181 351
L 184 351
L 188 351
L 191 351
L 194 351
L 197 351
L 201 351
L 204 351
L 207 351
L 210 351
L 214 351
L 217 351
L 220 351
L 223 351
L 227 351
L 230 351
L 233 351
L 236 351
L 240 351
L 243 351
L 246 351
L 249 351
L 253 351
L 256 351
L 259 351
L 262 351
L 266 351
L 269 351
L 272 351
L 275 351
L 279 351
L 282 351
L 285 351
L 288 351
L 292 351
L 295 351
L 298 351
L 301 351
L 304 351
L 308 351
L 311 351
L 314 351
L 317 351
L 321 351
L 324 351
L 327 351
L 330 351
L 334 351
L 337 351
L 340 351
L 343 351
L 347 351
L 350 351
L 353 351
L 356 351
L 360 351
L 363 351
L 366 351
L 369 351
L 373 351
L 376 351
L 379 351
L 382 351
L 386 351
L 389 351
L 392 351
L 395 351
L 399 351
L 402 351
L 405 351
L 408 351
L 412 351
L 415 351
L 418 351
L 421 351
L 425 351
L 428 351
L 431 351
L 434 351
L 437 351
L 441 351
L 444 351
L 447 351
L 450 351
L 454 351
L 457 351
L 460 351
L 463 351
L 467 351
L 470 351
L 473 351
L 476 351
L 480 351
L 483 351
L 486 351
L 489 351
L 493 351
L 496 351
L 499 351
L 502 351
L 506 351
L 509 351
L 512 351
L 515 351
L 519 351
L 522 351
L 525 351
L 528 351
L 532 351
L 535 351
L 538 351
L 541 351
L 545 351
L 548 351
L 551 351
L 554 351
L 558 351
L 561 351
L 564 351
L 567 351
L 570 351
L 574 351
L 577 351
L 580 351
L 583 351
L 587 351
L 590 351
L 593 351
L 596 351
L 600 351
L 603 351
L 606 351
L 609 351
L 613 351
L 616 351
L 619 351
L 622 351
L 626 351
L 629 351
L 632 351
L 635 351
L 639 351
L 642 351
L 645 351
L 648 351
L 652 351
L 655 351
L 658 351
L 661 351
L 665 351
L 668 351
L 671 351
L 674 351
L 678 351
L 681 351
L 684 351
L 687 351
L 691 351
L 694 351
L 697 351
L 700 351
L 703 351
L 707 351
L 710 351
L 713 351
L 716 351
L 720 351
L 723 351
L 726 351
L 729 351
L 733 351
L 736 351
L 739 351
L 742 351
L 746 351
L 749 351
L 752 351
L 755 351
L 759 351
L 762 350
L 765 351
L 768 351
L 772 351
L 775 351
L 778 351
L 781 351
L 785 351
L 788 351
L 791 351
L 794 351
L 798 351
L 801 351
L 804 351
L 807 350
L 811 351
L 814 350
L 817 351
L 820 351
L 824 351
L 827 351
L 830 351
L 833 351
L 836 350
L 840 350
L 843 350
L 846 351
L 849 350
L 853 350
L 856 351
L 859 351
L 862 350
L 866 350
L 869 351
L 872 350
L 875 349
L 879 350
L 882 350
L 885 351
L 888 350
L 892 351
L 895 351
L 898 351
L 901 351
L 905 349
L 908 349
L 911 351
L 914 351
L 918 350
L 921 350
L 924 351
L 927 350
L 931 351
L 934 350
L 937 351
L 940 350
L 944 350
L 947 351
L 950 351
L 953 351
L 957 351
L 960 350
L 963 351
L 966 351
L 969 351" style="stroke-width:1;stroke:rgba(217,0,116,1.0);fill:none"/><text x="413" y="33" style="stroke-width:0;stroke:none;fill:rgba(51,51,51,1.0);font-size:23.0px;font-family:'Roboto Medium',sans-serif">Gmünd 09.12.2020</text><path  d="M 38 11
L 251 11
L 251 91
L 38 91
L 38 11" style="stroke-width:1;stroke:rgba(51,51,51,1.0);fill:rgba(255,255,255,1.0)"/><text x="43" y="26" style="stroke-width:0;stroke:none;fill:rgba(51,51,51,1.0);font-size:10.2px;font-family:'Roboto Medium',sans-serif">Sieben Tage Durschnitt Inzidenz Fälle</text><path  d="M 221 21
L 241 21" style="stroke-width:1;stroke:rgba(0,116,217,1.0);fill:none"/><text x="43" y="56" style="stroke-width:0;stroke:none;fill:rgba(51,51,51,1.0);font-size:10.2px;font-family:'Roboto Medium',sans-serif">Anzahl Faelle</text><path  d="M 110 51
L 241 51" style="stroke-width:1;stroke:rgba(0,217,101,1.0);fill:none"/><text x="43" y="86" style="stroke-width:0;stroke:none;fill:rgba(51,51,51,1.0);font-size:10.2px;font-family:'Roboto Medium',sans-serif">Anzahl Tot</text><path  d="M 98 81
L 241 81" style="stroke-width:1;stroke:rgba(217,0,116,1.0);fill:none"/></svg>