<svg xmlns="http://www.w3.org/2000/svg" xmlns:xlink="http://www.w3.org/1999/xlink" width="1024" height="400">\n<path  d="M 0 0
L 1024 0
L 1024 400
L 0 400
L 0 0" style="stroke-width:0;stroke:rgba(255,255,255,1.0);fill:rgba(255,255,255,1.0)"/><path  d="M 38 11
L 961 11
L 961 351
L 38 351
L 38 11" style="stroke-width:0;stroke:rgba(255,255,255,1.0);fill:rgba(255,255,255,1.0)"/><path  d="M 38 351
L 961 351" style="stroke-width:1;stroke:rgba(51,51,51,1.0);fill:none"/><path  d="M 38 351
L 38 356" style="stroke-width:1;stroke:rgba(51,51,51,1.0);fill:none"/><text x="5" y="373" style="stroke-width:0;stroke:none;fill:rgba(51,51,51,1.0);font-size:12.8px;font-family:'Roboto Medium',sans-serif">2020-02-26</text><path  d="M 154 351
L 154 356" style="stroke-width:1;stroke:rgba(51,51,51,1.0);fill:none"/><text x="121" y="373" style="stroke-width:0;stroke:none;fill:rgba(51,51,51,1.0);font-size:12.8px;font-family:'Roboto Medium',sans-serif">2020-06-03</text><path  d="M 269 351
L 269 356" style="stroke-width:1;stroke:rgba(51,51,51,1.0);fill:none"/><text x="236" y="373" style="stroke-width:0;stroke:none;fill:rgba(51,51,51,1.0);font-size:12.8px;font-family:'Roboto Medium',sans-serif">2020-09-10</text><path  d="M 385 351
L 385 356" style="stroke-width:1;stroke:rgba(51,51,51,1.0);fill:none"/><text x="352" y="373" style="stroke-width:0;stroke:none;fill:rgba(51,51,51,1.0);font-size:12.8px;font-family:'Roboto Medium',sans-serif">2020-12-17</text><path  d="M 500 351
L 500 356" style="stroke-width:1;stroke:rgba(51,51,51,1.0);fill:none"/><text x="467" y="373" style="stroke-width:0;stroke:none;fill:rgba(51,51,51,1.0);font-size:12.8px;font-family:'Roboto Medium',sans-serif">2021-03-26</text><path  d="M 615 351
L 615 356" style="stroke-width:1;stroke:rgba(51,51,51,1.0);fill:none"/><text x="582" y="373" style="stroke-width:0;stroke:none;fill:rgba(51,51,51,1.0);font-size:12.8px;font-family:'Roboto Medium',sans-serif">2021-07-03</text><path  d="M 731 351
L 731 356" style="stroke-width:1;stroke:rgba(51,51,51,1.0);fill:none"/><text x="698" y="373" style="stroke-width:0;stroke:none;fill:rgba(51,51,51,1.0);font-size:12.8px;font-family:'Roboto Medium',sans-serif">2021-10-09</text><path  d="M 846 351
L 846 356" style="stroke-width:1;stroke:rgba(51,51,51,1.0);fill:none"/><text x="813" y="373" style="stroke-width:0;stroke:none;fill:rgba(51,51,51,1.0);font-size:12.8px;font-family:'Roboto Medium',sans-serif">2022-01-16</text><path  d="M 961 351
L 961 356" style="stroke-width:1;stroke:rgba(51,51,51,1.0);fill:none"/><text x="928" y="373" style="stroke-width:0;stroke:none;fill:rgba(51,51,51,1.0);font-size:12.8px;font-family:'Roboto Medium',sans-serif">2022-04-25</text><text x="481" y="395" style="stroke-width:0;stroke:none;fill:rgba(51,51,51,1.0);font-size:12.8px;font-family:'Roboto Medium',sans-serif">Datum</text><path  d="M 962 351
L 962 11" style="stroke-width:1;stroke:rgba(51,51,51,1.0);fill:none"/><path  d="M 962 351
L 967 351" style="stroke-width:1;stroke:rgba(51,51,51,1.0);fill:none"/><text x="972" y="357" style="stroke-width:0;stroke:none;fill:rgba(51,51,51,1.0);font-size:12.8px;font-family:'Roboto Medium',sans-serif">0.00</text><path  d="M 962 307
L 967 307" style="stroke-width:1;stroke:rgba(51,51,51,1.0);fill:none"/><text x="972" y="313" style="stroke-width:0;stroke:none;fill:rgba(51,51,51,1.0);font-size:12.8px;font-family:'Roboto Medium',sans-serif">520.00</text><path  d="M 962 265
L 967 265" style="stroke-width:1;stroke:rgba(51,51,51,1.0);fill:none"/><text x="972" y="271" style="stroke-width:0;stroke:none;fill:rgba(51,51,51,1.0);font-size:12.8px;font-family:'Roboto Medium',sans-serif">1030.00</text><path  d="M 962 223
L 967 223" style="stroke-width:1;stroke:rgba(51,51,51,1.0);fill:none"/><text x="972" y="229" style="stroke-width:0;stroke:none;fill:rgba(51,51,51,1.0);font-size:12.8px;font-family:'Roboto Medium',sans-serif">1540.00</text><path  d="M 962 181
L 967 181" style="stroke-width:1;stroke:rgba(51,51,51,1.0);fill:none"/><text x="972" y="187" style="stroke-width:0;stroke:none;fill:rgba(51,51,51,1.0);font-size:12.8px;font-family:'Roboto Medium',sans-serif">2050.00</text><path  d="M 962 137
L 967 137" style="stroke-width:1;stroke:rgba(51,51,51,1.0);fill:none"/><text x="972" y="143" style="stroke-width:0;stroke:none;fill:rgba(51,51,51,1.0);font-size:12.8px;font-family:'Roboto Medium',sans-serif">2570.00</text><path  d="M 962 95
L 967 95" style="stroke-width:1;stroke:rgba(51,51,51,1.0);fill:none"/><text x="972" y="101" style="stroke-width:0;stroke:none;fill:rgba(51,51,51,1.0);font-size:12.8px;font-family:'Roboto Medium',sans-serif">3080.00</text><path  d="M 962 53
L 967 53" style="stroke-width:1;stroke:rgba(51,51,51,1.0);fill:none"/><text x="972" y="59" style="stroke-width:0;stroke:none;fill:rgba(51,51,51,1.0);font-size:12.8px;font-family:'Roboto Medium',sans-serif">3590.00</text><path  d="M 962 11
L 967 11" style="stroke-width:1;stroke:rgba(51,51,51,1.0);fill:none"/><text x="972" y="17" style="stroke-width:0;stroke:none;fill:rgba(51,51,51,1.0);font-size:12.8px;font-family:'Roboto Medium',sans-serif">4100.00</text><path  d="M 38 351
L 40 351
L 41 351
L 42 351
L 43 351
L 44 351
L 46 351
L 47 351
L 48 351
L 49 351
L 50 351
L 51 351
L 53 351
L 54 351
L 55 351
L 56 351
L 57 351
L 58 351
L 60 351
L 61 351
L 62 350
L 63 350
L 64 350
L 65 350
L 67 350
L 68 350
L 69 350
L 70 350
L 71 350
L 72 350
L 74 349
L 75 350
L 76 350
L 77 350
L 78 350
L 79 350
L 81 350
L 82 351
L 83 351
L 84 351
L 85 351
L 86 351
L 88 350
L 89 350
L 90 350
L 91 350
L 92 349
L 93 349
L 95 349
L 96 349
L 97 349
L 98 350
L 99 350
L 101 350
L 102 350
L 103 350
L 104 350
L 105 350
L 106 350
L 108 350
L 109 350
L 110 351
L 111 351
L 112 351
L 113 351
L 115 351
L 116 351
L 117 351
L 118 351
L 119 351
L 120 351
L 122 351
L 123 351
L 124 351
L 125 351
L 126 351
L 127 351
L 129 351
L 130 351
L 131 351
L 132 351
L 133 351
L 134 351
L 136 351
L 137 351
L 138 351
L 139 351
L 140 351
L 141 351
L 143 351
L 144 351
L 145 351
L 146 351
L 147 351
L 148 351
L 150 351
L 151 351
L 152 351
L 153 351
L 154 351
L 155 351
L 157 351
L 158 351
L 159 351
L 160 351
L 161 351
L 163 351
L 164 351
L 165 351
L 166 351
L 167 351
L 168 351
L 170 351
L 171 351
L 172 351
L 173 350
L 174 350
L 175 350
L 177 350
L 178 350
L 179 350
L 180 350
L 181 351
L 182 351
L 184 351
L 185 351
L 186 351
L 187 351
L 188 351
L 189 350
L 191 350
L 192 350
L 193 350
L 194 350
L 195 350
L 196 350
L 198 351
L 199 351
L 200 351
L 201 350
L 202 350
L 203 350
L 205 350
L 206 350
L 207 350
L 208 350
L 209 351
L 210 351
L 212 351
L 213 351
L 214 351
L 215 351
L 216 351
L 217 351
L 219 351
L 220 351
L 221 351
L 222 351
L 223 351
L 225 351
L 226 350
L 227 350
L 228 350
L 229 350
L 230 350
L 232 350
L 233 350
L 234 351
L 235 351
L 236 351
L 237 351
L 239 351
L 240 351
L 241 351
L 242 351
L 243 351
L 244 351
L 246 351
L 247 351
L 248 351
L 249 351
L 250 351
L 251 351
L 253 351
L 254 351
L 255 351
L 256 351
L 257 351
L 258 351
L 260 351
L 261 351
L 262 351
L 263 350
L 264 350
L 265 350
L 267 350
L 268 350
L 269 350
L 270 350
L 271 351
L 272 351
L 274 350
L 275 350
L 276 349
L 277 348
L 278 348
L 279 347
L 281 346
L 282 345
L 283 343
L 284 342
L 285 341
L 287 340
L 288 340
L 289 338
L 290 339
L 291 341
L 292 342
L 294 342
L 295 341
L 296 342
L 297 343
L 298 344
L 299 343
L 301 343
L 302 345
L 303 345
L 304 346
L 305 344
L 306 344
L 308 344
L 309 343
L 310 343
L 311 344
L 312 342
L 313 343
L 315 342
L 316 340
L 317 339
L 318 337
L 319 335
L 320 334
L 322 333
L 323 331
L 324 329
L 325 322
L 326 318
L 327 315
L 329 313
L 330 309
L 331 307
L 332 304
L 333 306
L 334 305
L 336 304
L 337 303
L 338 302
L 339 302
L 340 303
L 341 304
L 343 308
L 344 310
L 345 311
L 346 310
L 347 308
L 349 312
L 350 312
L 351 311
L 352 310
L 353 311
L 354 315
L 356 318
L 357 318
L 358 318
L 359 321
L 360 326
L 361 327
L 363 329
L 364 330
L 365 328
L 366 329
L 367 327
L 368 322
L 370 321
L 371 320
L 372 321
L 373 319
L 374 321
L 375 321
L 377 325
L 378 327
L 379 324
L 380 324
L 381 329
L 382 328
L 384 331
L 385 331
L 386 332
L 387 335
L 388 337
L 389 337
L 391 335
L 392 334
L 393 333
L 394 334
L 395 334
L 396 332
L 398 332
L 399 335
L 400 336
L 401 338
L 402 338
L 403 340
L 405 340
L 406 342
L 407 342
L 408 342
L 409 340
L 411 340
L 412 339
L 413 339
L 414 338
L 415 337
L 416 337
L 418 339
L 419 339
L 420 339
L 421 339
L 422 339
L 423 339
L 425 339
L 426 340
L 427 340
L 428 340
L 429 340
L 430 341
L 432 342
L 433 343
L 434 343
L 435 343
L 436 344
L 437 345
L 439 344
L 440 345
L 441 345
L 442 344
L 443 344
L 444 343
L 446 345
L 447 346
L 448 345
L 449 345
L 450 345
L 451 345
L 453 344
L 454 342
L 455 340
L 456 338
L 457 337
L 458 334
L 460 333
L 461 332
L 462 332
L 463 332
L 464 331
L 465 332
L 467 333
L 468 333
L 469 333
L 470 333
L 471 332
L 473 332
L 474 330
L 475 327
L 476 327
L 477 328
L 478 328
L 480 329
L 481 327
L 482 327
L 483 328
L 484 327
L 485 327
L 487 326
L 488 326
L 489 329
L 490 330
L 491 330
L 492 330
L 494 329
L 495 329
L 496 328
L 497 327
L 498 326
L 499 326
L 501 326
L 502 325
L 503 325
L 504 328
L 505 328
L 506 326
L 508 327
L 509 322
L 510 324
L 511 327
L 512 325
L 513 325
L 515 327
L 516 328
L 517 333
L 518 332
L 519 330
L 520 330
L 522 330
L 523 330
L 524 331
L 525 331
L 526 333
L 527 337
L 529 340
L 530 339
L 531 341
L 532 341
L 533 342
L 535 342
L 536 341
L 537 340
L 538 341
L 539 342
L 540 344
L 542 344
L 543 343
L 544 344
L 545 344
L 546 346
L 547 346
L 549 346
L 550 346
L 551 347
L 552 347
L 553 348
L 554 348
L 556 347
L 557 348
L 558 348
L 559 348
L 560 347
L 561 345
L 563 345
L 564 345
L 565 344
L 566 344
L 567 344
L 568 345
L 570 347
L 571 347
L 572 347
L 573 348
L 574 348
L 575 348
L 577 348
L 578 348
L 579 348
L 580 348
L 581 348
L 582 348
L 584 349
L 585 349
L 586 349
L 587 349
L 588 349
L 589 349
L 591 349
L 592 349
L 593 349
L 594 349
L 595 349
L 597 350
L 598 350
L 599 350
L 600 350
L 601 350
L 602 350
L 604 350
L 605 350
L 606 351
L 607 351
L 608 351
L 609 351
L 611 351
L 612 351
L 613 350
L 614 350
L 615 350
L 616 350
L 618 350
L 619 350
L 620 350
L 621 350
L 622 350
L 623 350
L 625 350
L 626 350
L 627 349
L 628 349
L 629 349
L 630 349
L 632 349
L 633 349
L 634 350
L 635 350
L 636 350
L 637 350
L 639 350
L 640 351
L 641 350
L 642 350
L 643 350
L 644 350
L 646 350
L 647 350
L 648 350
L 649 350
L 650 350
L 651 349
L 653 349
L 654 349
L 655 349
L 656 349
L 657 349
L 659 349
L 660 350
L 661 350
L 662 350
L 663 350
L 664 350
L 666 350
L 667 348
L 668 348
L 669 348
L 670 348
L 671 347
L 673 347
L 674 347
L 675 348
L 676 347
L 677 347
L 678 348
L 680 347
L 681 347
L 682 347
L 683 346
L 684 347
L 685 347
L 687 347
L 688 347
L 689 348
L 690 349
L 691 350
L 692 350
L 694 349
L 695 348
L 696 348
L 697 346
L 698 346
L 699 346
L 701 344
L 702 345
L 703 344
L 704 342
L 705 344
L 706 343
L 708 343
L 709 344
L 710 343
L 711 343
L 712 343
L 713 341
L 715 342
L 716 342
L 717 342
L 718 343
L 719 344
L 721 344
L 722 346
L 723 346
L 724 346
L 725 346
L 726 345
L 728 345
L 729 346
L 730 345
L 731 344
L 732 344
L 733 342
L 735 341
L 736 340
L 737 339
L 738 339
L 739 339
L 740 338
L 742 337
L 743 336
L 744 336
L 745 334
L 746 334
L 747 333
L 749 332
L 750 333
L 751 331
L 752 329
L 753 326
L 754 327
L 756 329
L 757 324
L 758 318
L 759 318
L 760 313
L 761 309
L 763 302
L 764 298
L 765 296
L 766 296
L 767 284
L 768 282
L 770 281
L 771 282
L 772 279
L 773 272
L 774 267
L 775 269
L 777 267
L 778 264
L 779 253
L 780 243
L 781 250
L 783 255
L 784 252
L 785 257
L 786 259
L 787 266
L 788 276
L 790 281
L 791 274
L 792 281
L 793 283
L 794 286
L 795 291
L 797 292
L 798 292
L 799 299
L 800 305
L 801 309
L 802 313
L 804 314
L 805 318
L 806 321
L 807 326
L 808 328
L 809 331
L 811 333
L 812 337
L 813 339
L 814 340
L 815 342
L 816 344
L 818 345
L 819 345
L 820 346
L 821 346
L 822 346
L 823 348
L 825 347
L 826 346
L 827 347
L 828 347
L 829 346
L 830 344
L 832 340
L 833 337
L 834 334
L 835 332
L 836 328
L 837 325
L 839 321
L 840 318
L 841 313
L 842 309
L 843 305
L 845 305
L 846 300
L 847 299
L 848 299
L 849 298
L 850 296
L 852 294
L 853 292
L 854 289
L 855 286
L 856 282
L 857 277
L 859 267
L 860 262
L 861 259
L 862 255
L 863 254
L 864 242
L 866 241
L 867 239
L 868 232
L 869 214
L 870 212
L 871 206
L 873 198
L 874 186
L 875 181
L 876 178
L 877 180
L 878 164
L 880 157
L 881 149
L 882 134
L 883 124
L 884 121
L 885 121
L 887 124
L 888 126
L 889 125
L 890 137
L 891 138
L 892 139
L 894 139
L 895 142
L 896 135
L 897 129
L 898 127
L 899 128
L 901 120
L 902 108
L 903 105
L 904 96
L 905 92
L 907 75
L 908 58
L 909 54
L 910 53
L 911 45
L 912 38
L 914 12
L 915 11
L 916 17
L 917 19
L 918 20
L 919 19
L 921 32
L 922 47
L 923 69
L 924 75
L 925 84
L 926 91
L 928 110
L 929 121
L 930 146
L 931 152
L 932 170
L 933 176
L 935 188
L 936 190
L 937 196
L 938 207
L 939 206
L 940 208
L 942 214
L 943 217
L 944 221
L 945 224
L 946 232
L 947 244
L 949 253
L 950 259
L 951 264
L 952 269
L 953 273
L 954 286
L 956 285
L 957 286
L 958 289
L 959 292
L 960 292
L 961 293" style="stroke-width:1;stroke:rgba(0,116,217,1.0);fill:none"/><path  d="M 38 351
L 40 351
L 41 351
L 42 351
L 43 351
L 44 351
L 46 351
L 47 351
L 48 351
L 49 351
L 50 351
L 51 351
L 53 351
L 54 351
L 55 351
L 56 351
L 57 351
L 58 351
L 60 351
L 61 351
L 62 350
L 63 351
L 64 351
L 65 351
L 67 350
L 68 350
L 69 351
L 70 350
L 71 351
L 72 351
L 74 350
L 75 351
L 76 351
L 77 351
L 78 351
L 79 351
L 81 351
L 82 351
L 83 351
L 84 351
L 85 351
L 86 351
L 88 350
L 89 351
L 90 350
L 91 351
L 92 350
L 93 350
L 95 351
L 96 351
L 97 350
L 98 351
L 99 351
L 101 351
L 102 350
L 103 351
L 104 351
L 105 351
L 106 351
L 108 351
L 109 351
L 110 351
L 111 351
L 112 351
L 113 351
L 115 351
L 116 351
L 117 351
L 118 351
L 119 351
L 120 351
L 122 351
L 123 351
L 124 351
L 125 351
L 126 351
L 127 351
L 129 351
L 130 351
L 131 351
L 132 351
L 133 351
L 134 351
L 136 351
L 137 351
L 138 351
L 139 351
L 140 351
L 141 351
L 143 351
L 144 351
L 145 351
L 146 351
L 147 351
L 148 351
L 150 351
L 151 351
L 152 351
L 153 351
L 154 351
L 155 351
L 157 351
L 158 351
L 159 351
L 160 351
L 161 351
L 163 351
L 164 351
L 165 351
L 166 351
L 167 351
L 168 351
L 170 351
L 171 351
L 172 351
L 173 350
L 174 351
L 175 351
L 177 351
L 178 351
L 179 351
L 180 351
L 181 351
L 182 351
L 184 351
L 185 351
L 186 351
L 187 351
L 188 351
L 189 350
L 191 351
L 192 351
L 193 351
L 194 351
L 195 351
L 196 351
L 198 351
L 199 351
L 200 351
L 201 350
L 202 351
L 203 351
L 205 351
L 206 351
L 207 351
L 208 351
L 209 351
L 210 351
L 212 351
L 213 351
L 214 351
L 215 351
L 216 351
L 217 351
L 219 351
L 220 351
L 221 351
L 222 351
L 223 351
L 225 351
L 226 350
L 227 351
L 228 351
L 229 351
L 230 351
L 232 351
L 233 351
L 234 351
L 235 351
L 236 351
L 237 351
L 239 351
L 240 351
L 241 351
L 242 351
L 243 351
L 244 351
L 246 351
L 247 351
L 248 351
L 249 351
L 250 351
L 251 351
L 253 351
L 254 351
L 255 351
L 256 351
L 257 351
L 258 351
L 260 351
L 261 351
L 262 351
L 263 350
L 264 351
L 265 351
L 267 351
L 268 351
L 269 351
L 270 351
L 271 351
L 272 351
L 274 350
L 275 350
L 276 350
L 277 350
L 278 350
L 279 350
L 281 350
L 282 350
L 283 350
L 284 350
L 285 350
L 287 350
L 288 350
L 289 350
L 290 350
L 291 350
L 292 350
L 294 350
L 295 350
L 296 350
L 297 350
L 298 350
L 299 350
L 301 350
L 302 350
L 303 350
L 304 350
L 305 350
L 306 350
L 308 350
L 309 350
L 310 350
L 311 350
L 312 350
L 313 350
L 315 350
L 316 350
L 317 350
L 318 350
L 319 349
L 320 350
L 322 350
L 323 349
L 324 349
L 325 347
L 326 348
L 327 348
L 329 349
L 330 348
L 331 348
L 332 348
L 333 348
L 334 348
L 336 348
L 337 348
L 338 348
L 339 348
L 340 348
L 341 348
L 343 349
L 344 349
L 345 348
L 346 348
L 347 348
L 349 350
L 350 349
L 351 348
L 352 348
L 353 349
L 354 349
L 356 349
L 357 350
L 358 349
L 359 349
L 360 350
L 361 350
L 363 350
L 364 349
L 365 349
L 366 349
L 367 349
L 368 348
L 370 349
L 371 349
L 372 350
L 373 348
L 374 350
L 375 349
L 377 350
L 378 350
L 379 348
L 380 349
L 381 350
L 382 350
L 384 350
L 385 350
L 386 350
L 387 350
L 388 350
L 389 350
L 391 349
L 392 350
L 393 349
L 394 350
L 395 350
L 396 350
L 398 350
L 399 350
L 400 350
L 401 350
L 402 350
L 403 350
L 405 350
L 406 350
L 407 350
L 408 350
L 409 350
L 411 350
L 412 350
L 413 350
L 414 350
L 415 350
L 416 350
L 418 350
L 419 350
L 420 350
L 421 350
L 422 350
L 423 349
L 425 350
L 426 350
L 427 350
L 428 350
L 429 350
L 430 350
L 432 350
L 433 350
L 434 350
L 435 350
L 436 350
L 437 350
L 439 350
L 440 350
L 441 350
L 442 350
L 443 350
L 444 350
L 446 351
L 447 350
L 448 350
L 449 350
L 450 350
L 451 350
L 453 350
L 454 350
L 455 350
L 456 350
L 457 350
L 458 349
L 460 350
L 461 350
L 462 350
L 463 350
L 464 349
L 465 350
L 467 349
L 468 350
L 469 350
L 470 349
L 471 349
L 473 350
L 474 349
L 475 348
L 476 350
L 477 350
L 478 350
L 480 350
L 481 349
L 482 349
L 483 349
L 484 350
L 485 350
L 487 349
L 488 349
L 489 350
L 490 350
L 491 348
L 492 350
L 494 349
L 495 349
L 496 349
L 497 349
L 498 350
L 499 349
L 501 350
L 502 349
L 503 349
L 504 350
L 505 349
L 506 349
L 508 349
L 509 348
L 510 350
L 511 350
L 512 349
L 513 350
L 515 350
L 516 349
L 517 350
L 518 349
L 519 349
L 520 349
L 522 350
L 523 349
L 524 350
L 525 350
L 526 350
L 527 351
L 529 350
L 530 350
L 531 350
L 532 350
L 533 350
L 535 350
L 536 350
L 537 350
L 538 350
L 539 350
L 540 350
L 542 350
L 543 350
L 544 350
L 545 350
L 546 350
L 547 350
L 549 350
L 550 350
L 551 350
L 552 350
L 553 350
L 554 350
L 556 350
L 557 351
L 558 350
L 559 350
L 560 350
L 561 350
L 563 350
L 564 350
L 565 350
L 566 350
L 567 350
L 568 350
L 570 350
L 571 350
L 572 350
L 573 350
L 574 350
L 575 350
L 577 350
L 578 350
L 579 350
L 580 350
L 581 350
L 582 351
L 584 351
L 585 351
L 586 351
L 587 350
L 588 350
L 589 351
L 591 351
L 592 351
L 593 350
L 594 351
L 595 350
L 597 351
L 598 350
L 599 351
L 600 351
L 601 351
L 602 351
L 604 351
L 605 351
L 606 351
L 607 351
L 608 351
L 609 351
L 611 351
L 612 351
L 613 350
L 614 350
L 615 351
L 616 351
L 618 351
L 619 351
L 620 350
L 621 351
L 622 351
L 623 350
L 625 351
L 626 350
L 627 350
L 628 351
L 629 350
L 630 351
L 632 350
L 633 351
L 634 351
L 635 351
L 636 351
L 637 351
L 639 351
L 640 351
L 641 350
L 642 351
L 643 350
L 644 351
L 646 351
L 647 350
L 648 351
L 649 351
L 650 350
L 651 350
L 653 350
L 654 351
L 655 351
L 656 350
L 657 351
L 659 351
L 660 350
L 661 351
L 662 350
L 663 351
L 664 350
L 666 351
L 667 350
L 668 350
L 669 350
L 670 350
L 671 350
L 673 350
L 674 350
L 675 350
L 676 350
L 677 351
L 678 350
L 680 350
L 681 350
L 682 350
L 683 350
L 684 350
L 685 350
L 687 350
L 688 351
L 689 351
L 690 351
L 691 350
L 692 350
L 694 350
L 695 350
L 696 350
L 697 350
L 698 350
L 699 350
L 701 350
L 702 350
L 703 350
L 704 350
L 705 350
L 706 350
L 708 350
L 709 350
L 710 350
L 711 350
L 712 350
L 713 350
L 715 350
L 716 350
L 717 350
L 718 350
L 719 350
L 721 350
L 722 350
L 723 350
L 724 350
L 725 350
L 726 350
L 728 350
L 729 350
L 730 350
L 731 350
L 732 350
L 733 349
L 735 350
L 736 350
L 737 350
L 738 350
L 739 350
L 740 350
L 742 349
L 743 350
L 744 350
L 745 350
L 746 350
L 747 350
L 749 349
L 750 349
L 751 349
L 752 349
L 753 349
L 754 350
L 756 350
L 757 348
L 758 348
L 759 349
L 760 347
L 761 347
L 763 348
L 764 349
L 765 347
L 766 348
L 767 345
L 768 346
L 770 347
L 771 348
L 772 348
L 773 344
L 774 346
L 775 345
L 777 345
L 778 346
L 779 344
L 780 344
L 781 347
L 783 347
L 784 344
L 785 347
L 786 346
L 787 347
L 788 348
L 790 348
L 791 345
L 792 347
L 793 348
L 794 348
L 795 349
L 797 348
L 798 349
L 799 347
L 800 349
L 801 349
L 802 349
L 804 349
L 805 350
L 806 350
L 807 349
L 808 350
L 809 350
L 811 350
L 812 350
L 813 350
L 814 350
L 815 350
L 816 350
L 818 350
L 819 350
L 820 351
L 821 350
L 822 351
L 823 350
L 825 350
L 826 350
L 827 350
L 828 350
L 829 350
L 830 350
L 832 349
L 833 349
L 834 349
L 835 350
L 836 349
L 837 349
L 839 348
L 840 348
L 841 347
L 842 348
L 843 348
L 845 349
L 846 348
L 847 348
L 848 348
L 849 347
L 850 347
L 852 347
L 853 348
L 854 347
L 855 346
L 856 346
L 857 345
L 859 343
L 860 345
L 861 347
L 862 345
L 863 346
L 864 342
L 866 345
L 867 343
L 868 343
L 869 341
L 870 345
L 871 344
L 873 339
L 874 341
L 875 341
L 876 341
L 877 342
L 878 339
L 880 341
L 881 336
L 882 335
L 883 337
L 884 340
L 885 342
L 887 340
L 888 342
L 889 336
L 890 339
L 891 337
L 892 341
L 894 342
L 895 341
L 896 339
L 897 334
L 898 339
L 899 338
L 901 338
L 902 337
L 903 340
L 904 336
L 905 333
L 907 332
L 908 332
L 909 336
L 910 337
L 911 337
L 912 334
L 914 323
L 915 332
L 916 334
L 917 337
L 918 337
L 919 336
L 921 338
L 922 329
L 923 340
L 924 336
L 925 340
L 926 340
L 928 343
L 929 342
L 930 337
L 931 342
L 932 343
L 933 343
L 935 344
L 936 344
L 937 345
L 938 341
L 939 342
L 940 343
L 942 345
L 943 345
L 944 346
L 945 346
L 946 344
L 947 346
L 949 347
L 950 347
L 951 347
L 952 348
L 953 347
L 954 349
L 956 345
L 957 347
L 958 348
L 959 348
L 960 348
L 961 347" style="stroke-width:1;stroke:rgba(0,217,101,1.0);fill:none"/><path  d="M 38 351
L 40 351
L 41 351
L 42 351
L 43 351
L 44 351
L 46 351
L 47 351
L 48 351
L 49 351
L 50 351
L 51 351
L 53 351
L 54 351
L 55 351
L 56 351
L 57 351
L 58 351
L 60 351
L 61 351
L 62 351
L 63 351
L 64 351
L 65 351
L 67 351
L 68 351
L 69 351
L 70 351
L 71 351
L 72 351
L 74 351
L 75 351
L 76 351
L 77 351
L 78 351
L 79 351
L 81 351
L 82 351
L 83 351
L 84 351
L 85 351
L 86 351
L 88 351
L 89 351
L 90 351
L 91 351
L 92 351
L 93 351
L 95 351
L 96 351
L 97 351
L 98 351
L 99 351
L 101 351
L 102 351
L 103 351
L 104 351
L 105 351
L 106 351
L 108 351
L 109 351
L 110 351
L 111 351
L 112 351
L 113 351
L 115 351
L 116 351
L 117 351
L 118 351
L 119 351
L 120 351
L 122 351
L 123 351
L 124 351
L 125 351
L 126 351
L 127 351
L 129 351
L 130 351
L 131 351
L 132 351
L 133 351
L 134 351
L 136 351
L 137 351
L 138 351
L 139 351
L 140 351
L 141 351
L 143 351
L 144 351
L 145 351
L 146 351
L 147 351
L 148 351
L 150 351
L 151 351
L 152 351
L 153 351
L 154 351
L 155 351
L 157 351
L 158 351
L 159 351
L 160 351
L 161 351
L 163 351
L 164 351
L 165 351
L 166 351
L 167 351
L 168 351
L 170 351
L 171 351
L 172 351
L 173 351
L 174 351
L 175 351
L 177 351
L 178 351
L 179 351
L 180 351
L 181 351
L 182 351
L 184 351
L 185 351
L 186 351
L 187 351
L 188 351
L 189 351
L 191 351
L 192 351
L 193 351
L 194 351
L 195 351
L 196 351
L 198 351
L 199 351
L 200 351
L 201 351
L 202 351
L 203 351
L 205 351
L 206 351
L 207 351
L 208 351
L 209 351
L 210 351
L 212 351
L 213 351
L 214 351
L 215 351
L 216 351
L 217 351
L 219 351
L 220 351
L 221 351
L 222 351
L 223 351
L 225 351
L 226 351
L 227 351
L 228 351
L 229 351
L 230 351
L 232 351
L 233 351
L 234 351
L 235 351
L 236 351
L 237 351
L 239 351
L 240 351
L 241 351
L 242 351
L 243 351
L 244 351
L 246 351
L 247 351
L 248 351
L 249 351
L 250 351
L 251 351
L 253 351
L 254 351
L 255 351
L 256 351
L 257 351
L 258 351
L 260 351
L 261 351
L 262 351
L 263 351
L 264 351
L 265 351
L 267 351
L 268 351
L 269 351
L 270 351
L 271 351
L 272 351
L 274 351
L 275 351
L 276 351
L 277 351
L 278 351
L 279 351
L 281 351
L 282 351
L 283 351
L 284 351
L 285 351
L 287 351
L 288 351
L 289 351
L 290 351
L 291 351
L 292 351
L 294 351
L 295 351
L 296 351
L 297 351
L 298 351
L 299 350
L 301 351
L 302 351
L 303 351
L 304 351
L 305 351
L 306 351
L 308 351
L 309 351
L 310 351
L 311 351
L 312 351
L 313 351
L 315 351
L 316 350
L 317 351
L 318 350
L 319 351
L 320 351
L 322 351
L 323 351
L 324 351
L 325 351
L 326 350
L 327 350
L 329 350
L 330 351
L 331 350
L 332 350
L 333 351
L 334 351
L 336 350
L 337 350
L 338 351
L 339 350
L 340 350
L 341 350
L 343 350
L 344 351
L 345 350
L 346 351
L 347 351
L 349 351
L 350 351
L 351 350
L 352 350
L 353 351
L 354 351
L 356 350
L 357 350
L 358 351
L 359 350
L 360 351
L 361 350
L 363 351
L 364 350
L 365 350
L 366 351
L 367 351
L 368 351
L 370 351
L 371 350
L 372 350
L 373 351
L 374 351
L 375 351
L 377 351
L 378 351
L 379 351
L 380 351
L 381 350
L 382 350
L 384 351
L 385 351
L 386 350
L 387 351
L 388 351
L 389 351
L 391 351
L 392 350
L 393 351
L 394 351
L 395 351
L 396 350
L 398 351
L 399 351
L 400 350
L 401 351
L 402 351
L 403 351
L 405 351
L 406 351
L 407 350
L 408 351
L 409 351
L 411 351
L 412 351
L 413 351
L 414 350
L 415 351
L 416 351
L 418 351
L 419 351
L 420 351
L 421 351
L 422 351
L 423 351
L 425 351
L 426 351
L 427 351
L 428 351
L 429 351
L 430 351
L 432 351
L 433 351
L 434 350
L 435 351
L 436 351
L 437 351
L 439 351
L 440 351
L 441 351
L 442 350
L 443 350
L 444 351
L 446 351
L 447 351
L 448 351
L 449 351
L 450 351
L 451 351
L 453 351
L 454 351
L 455 351
L 456 351
L 457 351
L 458 351
L 460 351
L 461 350
L 462 351
L 463 350
L 464 351
L 465 351
L 467 351
L 468 351
L 469 351
L 470 351
L 471 351
L 473 351
L 474 351
L 475 350
L 476 351
L 477 350
L 478 351
L 480 351
L 481 351
L 482 351
L 483 351
L 484 351
L 485 351
L 487 351
L 488 351
L 489 351
L 490 351
L 491 350
L 492 351
L 494 350
L 495 351
L 496 350
L 497 351
L 498 351
L 499 351
L 501 351
L 502 350
L 503 351
L 504 351
L 505 351
L 506 351
L 508 350
L 509 351
L 510 351
L 511 351
L 512 351
L 513 351
L 515 351
L 516 351
L 517 351
L 518 351
L 519 350
L 520 351
L 522 351
L 523 351
L 524 350
L 525 351
L 526 351
L 527 350
L 529 350
L 530 351
L 531 351
L 532 351
L 533 350
L 535 351
L 536 351
L 537 351
L 538 351
L 539 351
L 540 351
L 542 351
L 543 351
L 544 351
L 545 351
L 546 351
L 547 351
L 549 351
L 550 351
L 551 351
L 552 351
L 553 351
L 554 351
L 556 351
L 557 351
L 558 351
L 559 351
L 560 351
L 561 350
L 563 351
L 564 351
L 565 351
L 566 351
L 567 351
L 568 351
L 570 351
L 571 351
L 572 351
L 573 350
L 574 351
L 575 351
L 577 351
L 578 351
L 579 351
L 580 351
L 581 351
L 582 351
L 584 351
L 585 351
L 586 351
L 587 351
L 588 351
L 589 351
L 591 351
L 592 351
L 593 351
L 594 351
L 595 351
L 597 351
L 598 351
L 599 351
L 600 351
L 601 351
L 602 351
L 604 351
L 605 351
L 606 351
L 607 351
L 608 351
L 609 351
L 611 351
L 612 351
L 613 351
L 614 351
L 615 351
L 616 351
L 618 351
L 619 351
L 620 351
L 621 351
L 622 351
L 623 351
L 625 351
L 626 351
L 627 351
L 628 351
L 629 351
L 630 351
L 632 351
L 633 351
L 634 351
L 635 351
L 636 351
L 637 351
L 639 351
L 640 351
L 641 351
L 642 351
L 643 351
L 644 351
L 646 351
L 647 351
L 648 351
L 649 351
L 650 351
L 651 351
L 653 351
L 654 351
L 655 351
L 656 351
L 657 351
L 659 351
L 660 351
L 661 351
L 662 351
L 663 351
L 664 351
L 666 351
L 667 351
L 668 351
L 669 351
L 670 351
L 671 351
L 673 351
L 674 351
L 675 351
L 676 351
L 677 351
L 678 351
L 680 351
L 681 351
L 682 351
L 683 351
L 684 351
L 685 351
L 687 351
L 688 351
L 689 351
L 690 350
L 691 351
L 692 351
L 694 351
L 695 351
L 696 351
L 697 351
L 698 351
L 699 351
L 701 351
L 702 351
L 703 351
L 704 351
L 705 351
L 706 351
L 708 351
L 709 351
L 710 351
L 711 351
L 712 351
L 713 350
L 715 351
L 716 351
L 717 350
L 718 351
L 719 351
L 721 351
L 722 350
L 723 351
L 724 351
L 725 351
L 726 351
L 728 351
L 729 351
L 730 351
L 731 351
L 732 351
L 733 351
L 735 351
L 736 351
L 737 351
L 738 351
L 739 350
L 740 351
L 742 351
L 743 351
L 744 351
L 745 351
L 746 351
L 747 351
L 749 351
L 750 351
L 751 350
L 752 351
L 753 351
L 754 350
L 756 351
L 757 351
L 758 351
L 759 351
L 760 351
L 761 350
L 763 351
L 764 350
L 765 350
L 766 351
L 767 351
L 768 351
L 770 350
L 771 351
L 772 350
L 773 351
L 774 350
L 775 351
L 777 351
L 778 351
L 779 351
L 780 351
L 781 351
L 783 351
L 784 350
L 785 351
L 786 350
L 787 351
L 788 350
L 790 351
L 791 351
L 792 350
L 793 350
L 794 351
L 795 350
L 797 351
L 798 351
L 799 350
L 800 350
L 801 350
L 802 350
L 804 351
L 805 350
L 806 350
L 807 351
L 808 350
L 809 351
L 811 351
L 812 351
L 813 351
L 814 351
L 815 350
L 816 351
L 818 351
L 819 350
L 820 351
L 821 351
L 822 351
L 823 350
L 825 350
L 826 350
L 827 351
L 828 351
L 829 351
L 830 350
L 832 351
L 833 351
L 834 351
L 835 351
L 836 351
L 837 351
L 839 350
L 840 351
L 841 351
L 842 351
L 843 351
L 845 351
L 846 351
L 847 351
L 848 350
L 849 351
L 850 350
L 852 350
L 853 351
L 854 351
L 855 350
L 856 350
L 857 351
L 859 351
L 860 351
L 861 350
L 862 351
L 863 351
L 864 351
L 866 351
L 867 351
L 868 351
L 869 351
L 870 351
L 871 351
L 873 351
L 874 351
L 875 351
L 876 351
L 877 351
L 878 351
L 880 351
L 881 351
L 882 351
L 883 351
L 884 351
L 885 351
L 887 350
L 888 351
L 889 351
L 890 351
L 891 350
L 892 351
L 894 351
L 895 351
L 896 350
L 897 351
L 898 351
L 899 351
L 901 350
L 902 351
L 903 351
L 904 350
L 905 350
L 907 350
L 908 351
L 909 351
L 910 351
L 911 351
L 912 351
L 914 351
L 915 350
L 916 350
L 917 351
L 918 350
L 919 351
L 921 351
L 922 350
L 923 351
L 924 351
L 925 351
L 926 350
L 928 350
L 929 351
L 930 351
L 931 351
L 932 351
L 933 351
L 935 351
L 936 350
L 937 351
L 938 351
L 939 351
L 940 351
L 942 350
L 943 350
L 944 351
L 945 351
L 946 351
L 947 351
L 949 351
L 950 351
L 951 351
L 952 350
L 953 351
L 954 351
L 956 351
L 957 351
L 958 351
L 959 351
L 960 351
L 961 351" style="stroke-width:1;stroke:rgba(217,0,116,1.0);fill:none"/><text x="413" y="33" style="stroke-width:0;stroke:none;fill:rgba(51,51,51,1.0);font-size:23.0px;font-family:'Roboto Medium',sans-serif">Gmünd 25.04.2022</text><path  d="M 38 11
L 251 11
L 251 91
L 38 91
L 38 11" style="stroke-width:1;stroke:rgba(51,51,51,1.0);fill:rgba(255,255,255,1.0)"/><text x="43" y="26" style="stroke-width:0;stroke:none;fill:rgba(51,51,51,1.0);font-size:10.2px;font-family:'Roboto Medium',sans-serif">Sieben Tage Durschnitt Inzidenz Fälle</text><path  d="M 221 21
L 241 21" style="stroke-width:1;stroke:rgba(0,116,217,1.0);fill:none"/><text x="43" y="56" style="stroke-width:0;stroke:none;fill:rgba(51,51,51,1.0);font-size:10.2px;font-family:'Roboto Medium',sans-serif">Anzahl Faelle</text><path  d="M 110 51
L 241 51" style="stroke-width:1;stroke:rgba(0,217,101,1.0);fill:none"/><text x="43" y="86" style="stroke-width:0;stroke:none;fill:rgba(51,51,51,1.0);font-size:10.2px;font-family:'Roboto Medium',sans-serif">Anzahl Tot</text><path  d="M 98 81
L 241 81" style="stroke-width:1;stroke:rgba(217,0,116,1.0);fill:none"/></svg>