<svg xmlns="http://www.w3.org/2000/svg" xmlns:xlink="http://www.w3.org/1999/xlink" width="1024" height="400">\n<path  d="M 0 0
L 1024 0
L 1024 400
L 0 400
L 0 0" style="stroke-width:0;stroke:rgba(255,255,255,1.0);fill:rgba(255,255,255,1.0)"/><path  d="M 38 11
L 969 11
L 969 351
L 38 351
L 38 11" style="stroke-width:0;stroke:rgba(255,255,255,1.0);fill:rgba(255,255,255,1.0)"/><path  d="M 38 351
L 969 351" style="stroke-width:1;stroke:rgba(51,51,51,1.0);fill:none"/><path  d="M 38 351
L 38 356" style="stroke-width:1;stroke:rgba(51,51,51,1.0);fill:none"/><text x="5" y="373" style="stroke-width:0;stroke:none;fill:rgba(51,51,51,1.0);font-size:12.8px;font-family:'Roboto Medium',sans-serif">2020-02-26</text><path  d="M 155 351
L 155 356" style="stroke-width:1;stroke:rgba(51,51,51,1.0);fill:none"/><text x="122" y="373" style="stroke-width:0;stroke:none;fill:rgba(51,51,51,1.0);font-size:12.8px;font-family:'Roboto Medium',sans-serif">2020-04-27</text><path  d="M 271 351
L 271 356" style="stroke-width:1;stroke:rgba(51,51,51,1.0);fill:none"/><text x="238" y="373" style="stroke-width:0;stroke:none;fill:rgba(51,51,51,1.0);font-size:12.8px;font-family:'Roboto Medium',sans-serif">2020-06-27</text><path  d="M 388 351
L 388 356" style="stroke-width:1;stroke:rgba(51,51,51,1.0);fill:none"/><text x="355" y="373" style="stroke-width:0;stroke:none;fill:rgba(51,51,51,1.0);font-size:12.8px;font-family:'Roboto Medium',sans-serif">2020-08-28</text><path  d="M 504 351
L 504 356" style="stroke-width:1;stroke:rgba(51,51,51,1.0);fill:none"/><text x="471" y="373" style="stroke-width:0;stroke:none;fill:rgba(51,51,51,1.0);font-size:12.8px;font-family:'Roboto Medium',sans-serif">2020-10-28</text><path  d="M 620 351
L 620 356" style="stroke-width:1;stroke:rgba(51,51,51,1.0);fill:none"/><text x="587" y="373" style="stroke-width:0;stroke:none;fill:rgba(51,51,51,1.0);font-size:12.8px;font-family:'Roboto Medium',sans-serif">2020-12-28</text><path  d="M 737 351
L 737 356" style="stroke-width:1;stroke:rgba(51,51,51,1.0);fill:none"/><text x="704" y="373" style="stroke-width:0;stroke:none;fill:rgba(51,51,51,1.0);font-size:12.8px;font-family:'Roboto Medium',sans-serif">2021-02-28</text><path  d="M 853 351
L 853 356" style="stroke-width:1;stroke:rgba(51,51,51,1.0);fill:none"/><text x="820" y="373" style="stroke-width:0;stroke:none;fill:rgba(51,51,51,1.0);font-size:12.8px;font-family:'Roboto Medium',sans-serif">2021-04-30</text><path  d="M 969 351
L 969 356" style="stroke-width:1;stroke:rgba(51,51,51,1.0);fill:none"/><text x="936" y="373" style="stroke-width:0;stroke:none;fill:rgba(51,51,51,1.0);font-size:12.8px;font-family:'Roboto Medium',sans-serif">2021-07-01</text><text x="485" y="395" style="stroke-width:0;stroke:none;fill:rgba(51,51,51,1.0);font-size:12.8px;font-family:'Roboto Medium',sans-serif">Datum</text><path  d="M 970 351
L 970 11" style="stroke-width:1;stroke:rgba(51,51,51,1.0);fill:none"/><path  d="M 970 351
L 975 351" style="stroke-width:1;stroke:rgba(51,51,51,1.0);fill:none"/><text x="980" y="357" style="stroke-width:0;stroke:none;fill:rgba(51,51,51,1.0);font-size:12.8px;font-family:'Roboto Medium',sans-serif">0.00</text><path  d="M 970 308
L 975 308" style="stroke-width:1;stroke:rgba(51,51,51,1.0);fill:none"/><text x="980" y="314" style="stroke-width:0;stroke:none;fill:rgba(51,51,51,1.0);font-size:12.8px;font-family:'Roboto Medium',sans-serif">75.00</text><path  d="M 970 266
L 975 266" style="stroke-width:1;stroke:rgba(51,51,51,1.0);fill:none"/><text x="980" y="272" style="stroke-width:0;stroke:none;fill:rgba(51,51,51,1.0);font-size:12.8px;font-family:'Roboto Medium',sans-serif">150.00</text><path  d="M 970 223
L 975 223" style="stroke-width:1;stroke:rgba(51,51,51,1.0);fill:none"/><text x="980" y="229" style="stroke-width:0;stroke:none;fill:rgba(51,51,51,1.0);font-size:12.8px;font-family:'Roboto Medium',sans-serif">225.00</text><path  d="M 970 181
L 975 181" style="stroke-width:1;stroke:rgba(51,51,51,1.0);fill:none"/><text x="980" y="187" style="stroke-width:0;stroke:none;fill:rgba(51,51,51,1.0);font-size:12.8px;font-family:'Roboto Medium',sans-serif">300.00</text><path  d="M 970 138
L 975 138" style="stroke-width:1;stroke:rgba(51,51,51,1.0);fill:none"/><text x="980" y="144" style="stroke-width:0;stroke:none;fill:rgba(51,51,51,1.0);font-size:12.8px;font-family:'Roboto Medium',sans-serif">375.00</text><path  d="M 970 96
L 975 96" style="stroke-width:1;stroke:rgba(51,51,51,1.0);fill:none"/><text x="980" y="102" style="stroke-width:0;stroke:none;fill:rgba(51,51,51,1.0);font-size:12.8px;font-family:'Roboto Medium',sans-serif">450.00</text><path  d="M 970 53
L 975 53" style="stroke-width:1;stroke:rgba(51,51,51,1.0);fill:none"/><text x="980" y="59" style="stroke-width:0;stroke:none;fill:rgba(51,51,51,1.0);font-size:12.8px;font-family:'Roboto Medium',sans-serif">525.00</text><path  d="M 970 11
L 975 11" style="stroke-width:1;stroke:rgba(51,51,51,1.0);fill:none"/><text x="980" y="17" style="stroke-width:0;stroke:none;fill:rgba(51,51,51,1.0);font-size:12.8px;font-family:'Roboto Medium',sans-serif">600.00</text><path  d="M 38 351
L 40 351
L 42 351
L 44 351
L 46 351
L 48 351
L 50 351
L 52 351
L 54 351
L 56 351
L 57 351
L 59 351
L 61 351
L 63 351
L 65 351
L 67 351
L 69 351
L 71 351
L 73 351
L 75 351
L 76 349
L 78 349
L 80 349
L 82 349
L 84 347
L 86 346
L 88 346
L 90 344
L 92 344
L 93 344
L 95 343
L 97 344
L 99 346
L 101 346
L 103 349
L 105 349
L 107 349
L 109 351
L 111 351
L 112 351
L 114 351
L 116 351
L 118 349
L 120 349
L 122 344
L 124 344
L 126 343
L 128 341
L 130 341
L 131 343
L 133 341
L 135 346
L 137 346
L 139 347
L 141 349
L 143 349
L 145 349
L 147 351
L 148 351
L 150 351
L 152 351
L 154 351
L 156 351
L 158 351
L 160 351
L 162 351
L 164 351
L 166 351
L 167 351
L 169 351
L 171 351
L 173 351
L 175 351
L 177 351
L 179 351
L 181 351
L 183 351
L 185 351
L 186 351
L 188 351
L 190 351
L 192 351
L 194 351
L 196 351
L 198 351
L 200 351
L 202 351
L 203 351
L 205 351
L 207 351
L 209 351
L 211 351
L 213 351
L 215 351
L 217 351
L 219 351
L 221 351
L 222 351
L 224 351
L 226 351
L 228 351
L 230 351
L 232 351
L 234 351
L 236 351
L 238 351
L 239 351
L 241 351
L 243 351
L 245 351
L 247 351
L 249 351
L 251 351
L 253 351
L 255 351
L 257 349
L 258 349
L 260 349
L 262 349
L 264 349
L 266 349
L 268 349
L 270 351
L 272 351
L 274 351
L 276 351
L 277 351
L 279 351
L 281 351
L 283 349
L 285 349
L 287 349
L 289 349
L 291 349
L 293 349
L 294 349
L 296 351
L 298 351
L 300 351
L 302 349
L 304 349
L 306 349
L 308 349
L 310 349
L 312 349
L 313 349
L 315 351
L 317 351
L 319 351
L 321 351
L 323 351
L 325 351
L 327 351
L 329 351
L 331 351
L 332 351
L 334 351
L 336 351
L 338 351
L 340 351
L 342 349
L 344 349
L 346 349
L 348 349
L 349 349
L 351 349
L 353 349
L 355 351
L 357 351
L 359 351
L 361 351
L 363 351
L 365 351
L 367 351
L 368 351
L 370 351
L 372 351
L 374 351
L 376 351
L 378 351
L 380 351
L 382 351
L 384 351
L 385 351
L 387 351
L 389 351
L 391 351
L 393 351
L 395 351
L 397 351
L 399 351
L 401 351
L 403 349
L 404 349
L 406 349
L 408 349
L 410 349
L 412 349
L 414 347
L 416 349
L 418 349
L 420 347
L 422 344
L 423 336
L 425 333
L 427 332
L 429 326
L 431 322
L 433 316
L 435 301
L 437 293
L 439 283
L 440 280
L 442 277
L 444 268
L 446 271
L 448 285
L 450 296
L 452 291
L 454 288
L 456 291
L 458 302
L 459 304
L 461 301
L 463 302
L 465 310
L 467 311
L 469 316
L 471 307
L 473 305
L 475 307
L 477 299
L 478 302
L 480 304
L 482 296
L 484 299
L 486 290
L 488 277
L 490 274
L 492 260
L 494 241
L 495 233
L 497 227
L 499 213
L 501 204
L 503 157
L 505 130
L 507 108
L 509 94
L 511 69
L 513 57
L 514 35
L 516 51
L 518 43
L 520 37
L 522 24
L 524 15
L 526 15
L 528 22
L 530 29
L 531 54
L 533 72
L 535 77
L 537 69
L 539 60
L 541 83
L 543 88
L 545 79
L 547 69
L 549 77
L 550 107
L 552 124
L 554 126
L 556 130
L 558 149
L 560 179
L 562 190
L 564 201
L 566 207
L 568 194
L 569 199
L 571 188
L 573 155
L 575 149
L 577 144
L 579 154
L 581 138
L 583 147
L 585 152
L 586 180
L 588 193
L 590 174
L 592 171
L 594 204
L 596 201
L 598 218
L 600 219
L 602 222
L 604 247
L 605 261
L 607 257
L 609 246
L 611 240
L 613 232
L 615 238
L 617 235
L 619 226
L 621 224
L 623 244
L 624 249
L 626 266
L 628 266
L 630 276
L 632 280
L 634 293
L 636 293
L 638 294
L 640 283
L 641 277
L 643 274
L 645 274
L 647 266
L 649 260
L 651 258
L 653 271
L 655 271
L 657 276
L 659 274
L 660 276
L 662 271
L 664 272
L 666 277
L 668 282
L 670 279
L 672 279
L 674 286
L 676 294
L 677 301
L 679 299
L 681 301
L 683 308
L 685 310
L 687 307
L 689 316
L 691 311
L 693 304
L 695 304
L 696 302
L 698 313
L 700 318
L 702 316
L 704 313
L 706 315
L 708 310
L 710 304
L 712 290
L 714 274
L 715 263
L 717 260
L 719 240
L 721 230
L 723 227
L 725 222
L 727 224
L 729 219
L 731 221
L 732 227
L 734 229
L 736 227
L 738 226
L 740 221
L 742 222
L 744 211
L 746 191
L 748 191
L 750 194
L 751 197
L 753 201
L 755 186
L 757 186
L 759 194
L 761 193
L 763 191
L 765 183
L 767 182
L 769 199
L 770 210
L 772 205
L 774 208
L 776 199
L 778 201
L 780 193
L 782 185
L 784 179
L 786 182
L 787 182
L 789 172
L 791 169
L 793 191
L 795 194
L 797 183
L 799 186
L 801 158
L 803 174
L 805 193
L 806 177
L 808 180
L 810 191
L 812 201
L 814 233
L 816 226
L 818 211
L 820 210
L 822 211
L 823 210
L 825 219
L 827 216
L 829 233
L 831 255
L 833 276
L 835 272
L 837 286
L 839 283
L 841 290
L 842 293
L 844 283
L 846 277
L 848 283
L 850 286
L 852 302
L 854 304
L 856 302
L 858 304
L 860 307
L 861 316
L 863 318
L 865 315
L 867 318
L 869 321
L 871 326
L 873 330
L 875 332
L 877 327
L 878 333
L 880 335
L 882 335
L 884 329
L 886 316
L 888 313
L 890 313
L 892 305
L 894 302
L 896 302
L 897 310
L 899 322
L 901 322
L 903 326
L 905 332
L 907 335
L 909 335
L 911 333
L 913 333
L 915 335
L 916 336
L 918 335
L 920 336
L 922 338
L 924 341
L 926 343
L 928 341
L 930 338
L 932 341
L 933 341
L 935 341
L 937 340
L 939 340
L 941 343
L 943 347
L 945 344
L 947 344
L 949 344
L 951 344
L 952 344
L 954 346
L 956 346
L 958 349
L 960 349
L 962 349
L 964 351
L 966 351
L 968 351
L 969 349" style="stroke-width:1;stroke:rgba(0,116,217,1.0);fill:none"/><path  d="M 38 351
L 40 351
L 42 351
L 44 351
L 46 351
L 48 351
L 50 351
L 52 351
L 54 351
L 56 351
L 57 351
L 59 351
L 61 351
L 63 351
L 65 351
L 67 351
L 69 351
L 71 351
L 73 351
L 75 351
L 76 350
L 78 351
L 80 351
L 82 351
L 84 350
L 86 350
L 88 351
L 90 349
L 92 351
L 93 351
L 95 350
L 97 351
L 99 351
L 101 351
L 103 351
L 105 351
L 107 351
L 109 351
L 111 351
L 112 351
L 114 351
L 116 351
L 118 350
L 120 351
L 122 349
L 124 351
L 126 350
L 128 350
L 130 351
L 131 351
L 133 350
L 135 351
L 137 351
L 139 351
L 141 351
L 143 351
L 145 351
L 147 351
L 148 351
L 150 351
L 152 351
L 154 351
L 156 351
L 158 351
L 160 351
L 162 351
L 164 351
L 166 351
L 167 351
L 169 351
L 171 351
L 173 351
L 175 351
L 177 351
L 179 351
L 181 351
L 183 351
L 185 351
L 186 351
L 188 351
L 190 351
L 192 351
L 194 351
L 196 351
L 198 351
L 200 351
L 202 351
L 203 351
L 205 351
L 207 351
L 209 351
L 211 351
L 213 351
L 215 351
L 217 351
L 219 351
L 221 351
L 222 351
L 224 351
L 226 351
L 228 351
L 230 351
L 232 351
L 234 351
L 236 351
L 238 351
L 239 351
L 241 351
L 243 351
L 245 351
L 247 351
L 249 351
L 251 351
L 253 351
L 255 351
L 257 350
L 258 351
L 260 351
L 262 351
L 264 351
L 266 351
L 268 351
L 270 351
L 272 351
L 274 351
L 276 351
L 277 351
L 279 351
L 281 351
L 283 350
L 285 351
L 287 351
L 289 351
L 291 351
L 293 351
L 294 351
L 296 351
L 298 351
L 300 351
L 302 350
L 304 351
L 306 351
L 308 351
L 310 351
L 312 351
L 313 351
L 315 351
L 317 351
L 319 351
L 321 351
L 323 351
L 325 351
L 327 351
L 329 351
L 331 351
L 332 351
L 334 351
L 336 351
L 338 351
L 340 351
L 342 350
L 344 351
L 346 351
L 348 351
L 349 351
L 351 351
L 353 351
L 355 351
L 357 351
L 359 351
L 361 351
L 363 351
L 365 351
L 367 351
L 368 351
L 370 351
L 372 351
L 374 351
L 376 351
L 378 351
L 380 351
L 382 351
L 384 351
L 385 351
L 387 351
L 389 351
L 391 351
L 393 351
L 395 351
L 397 351
L 399 351
L 401 351
L 403 350
L 404 351
L 406 351
L 408 351
L 410 351
L 412 351
L 414 350
L 416 351
L 418 351
L 420 350
L 422 349
L 423 348
L 425 349
L 427 349
L 429 348
L 431 349
L 433 348
L 435 344
L 437 345
L 439 346
L 440 348
L 442 347
L 444 346
L 446 349
L 448 349
L 450 349
L 452 344
L 454 347
L 456 348
L 458 350
L 459 349
L 461 348
L 463 349
L 465 347
L 467 348
L 469 350
L 471 347
L 473 349
L 475 348
L 477 347
L 478 348
L 480 348
L 482 347
L 484 348
L 486 345
L 488 344
L 490 345
L 492 343
L 494 341
L 495 344
L 497 345
L 499 340
L 501 340
L 503 328
L 505 334
L 507 334
L 509 339
L 511 336
L 513 336
L 514 332
L 516 334
L 518 331
L 520 331
L 522 335
L 524 333
L 526 336
L 528 335
L 530 336
L 531 340
L 533 338
L 535 336
L 537 330
L 539 332
L 541 344
L 543 338
L 545 336
L 547 335
L 549 339
L 550 341
L 552 339
L 554 344
L 556 340
L 558 343
L 560 345
L 562 343
L 564 345
L 566 341
L 568 340
L 569 341
L 571 339
L 573 334
L 575 341
L 577 343
L 579 344
L 581 334
L 583 345
L 585 341
L 586 344
L 588 345
L 590 336
L 592 343
L 594 346
L 596 344
L 598 347
L 600 344
L 602 347
L 604 345
L 605 348
L 607 344
L 609 340
L 611 345
L 613 341
L 615 349
L 617 344
L 619 345
L 621 344
L 623 347
L 624 347
L 626 348
L 628 349
L 630 348
L 632 347
L 634 348
L 636 347
L 638 347
L 640 344
L 641 347
L 643 347
L 645 347
L 647 345
L 649 345
L 651 347
L 653 348
L 655 347
L 657 348
L 659 346
L 660 346
L 662 343
L 664 347
L 666 350
L 668 348
L 670 347
L 672 346
L 674 349
L 676 346
L 677 349
L 679 349
L 681 349
L 683 350
L 685 347
L 687 348
L 689 349
L 691 348
L 693 347
L 695 349
L 696 349
L 698 351
L 700 349
L 702 349
L 704 347
L 706 347
L 708 347
L 710 347
L 712 345
L 714 344
L 715 345
L 717 345
L 719 340
L 721 344
L 723 346
L 725 344
L 727 344
L 729 343
L 731 346
L 732 342
L 734 344
L 736 345
L 738 343
L 740 343
L 742 344
L 744 342
L 746 335
L 748 344
L 750 347
L 751 344
L 753 344
L 755 339
L 757 342
L 759 337
L 761 344
L 763 346
L 765 341
L 767 343
L 769 345
L 770 346
L 772 336
L 774 345
L 776 343
L 778 342
L 780 340
L 782 342
L 784 344
L 786 337
L 787 345
L 789 339
L 791 341
L 793 348
L 795 343
L 797 340
L 799 338
L 801 335
L 803 345
L 805 348
L 806 343
L 808 344
L 810 344
L 812 341
L 814 347
L 816 342
L 818 343
L 820 342
L 822 345
L 823 343
L 825 345
L 827 345
L 829 348
L 831 351
L 833 349
L 835 344
L 837 348
L 839 344
L 841 348
L 842 349
L 844 347
L 846 347
L 848 346
L 850 349
L 852 349
L 854 348
L 856 349
L 858 348
L 860 348
L 861 349
L 863 350
L 865 348
L 867 349
L 869 350
L 871 349
L 873 350
L 875 350
L 877 348
L 878 351
L 880 350
L 882 350
L 884 347
L 886 345
L 888 349
L 890 348
L 892 348
L 894 349
L 896 350
L 897 350
L 899 350
L 901 349
L 903 349
L 905 350
L 907 350
L 909 350
L 911 349
L 913 350
L 915 349
L 916 350
L 918 349
L 920 351
L 922 351
L 924 351
L 926 351
L 928 349
L 930 349
L 932 351
L 933 351
L 935 351
L 937 350
L 939 351
L 941 350
L 943 351
L 945 349
L 947 351
L 949 351
L 951 350
L 952 351
L 954 351
L 956 351
L 958 351
L 960 351
L 962 351
L 964 351
L 966 351
L 968 351
L 969 350" style="stroke-width:1;stroke:rgba(0,217,101,1.0);fill:none"/><path  d="M 38 351
L 40 351
L 42 351
L 44 351
L 46 351
L 48 351
L 50 351
L 52 351
L 54 351
L 56 351
L 57 351
L 59 351
L 61 351
L 63 351
L 65 351
L 67 351
L 69 351
L 71 351
L 73 351
L 75 351
L 76 351
L 78 351
L 80 351
L 82 351
L 84 351
L 86 351
L 88 351
L 90 351
L 92 351
L 93 351
L 95 351
L 97 351
L 99 351
L 101 351
L 103 351
L 105 351
L 107 351
L 109 351
L 111 351
L 112 351
L 114 351
L 116 351
L 118 351
L 120 351
L 122 351
L 124 351
L 126 351
L 128 351
L 130 351
L 131 351
L 133 351
L 135 351
L 137 351
L 139 351
L 141 351
L 143 351
L 145 351
L 147 351
L 148 351
L 150 351
L 152 351
L 154 351
L 156 351
L 158 351
L 160 351
L 162 351
L 164 351
L 166 351
L 167 351
L 169 351
L 171 351
L 173 351
L 175 351
L 177 351
L 179 351
L 181 351
L 183 351
L 185 351
L 186 351
L 188 351
L 190 351
L 192 351
L 194 351
L 196 351
L 198 351
L 200 351
L 202 351
L 203 351
L 205 351
L 207 351
L 209 351
L 211 351
L 213 351
L 215 351
L 217 351
L 219 351
L 221 351
L 222 351
L 224 351
L 226 351
L 228 351
L 230 351
L 232 351
L 234 351
L 236 351
L 238 351
L 239 351
L 241 351
L 243 351
L 245 351
L 247 351
L 249 351
L 251 351
L 253 351
L 255 351
L 257 351
L 258 351
L 260 351
L 262 351
L 264 351
L 266 351
L 268 351
L 270 351
L 272 351
L 274 351
L 276 351
L 277 351
L 279 351
L 281 351
L 283 351
L 285 351
L 287 351
L 289 351
L 291 351
L 293 351
L 294 351
L 296 351
L 298 351
L 300 351
L 302 351
L 304 351
L 306 351
L 308 351
L 310 351
L 312 351
L 313 351
L 315 351
L 317 351
L 319 351
L 321 351
L 323 351
L 325 351
L 327 351
L 329 351
L 331 351
L 332 351
L 334 351
L 336 351
L 338 351
L 340 351
L 342 351
L 344 351
L 346 351
L 348 351
L 349 351
L 351 351
L 353 351
L 355 351
L 357 351
L 359 351
L 361 351
L 363 351
L 365 351
L 367 351
L 368 351
L 370 351
L 372 351
L 374 351
L 376 351
L 378 351
L 380 351
L 382 351
L 384 351
L 385 351
L 387 351
L 389 351
L 391 351
L 393 351
L 395 351
L 397 351
L 399 351
L 401 351
L 403 351
L 404 351
L 406 351
L 408 351
L 410 351
L 412 351
L 414 351
L 416 351
L 418 351
L 420 351
L 422 351
L 423 351
L 425 351
L 427 351
L 429 351
L 431 351
L 433 351
L 435 351
L 437 351
L 439 351
L 440 351
L 442 351
L 444 351
L 446 351
L 448 351
L 450 351
L 452 351
L 454 351
L 456 351
L 458 351
L 459 351
L 461 350
L 463 351
L 465 351
L 467 351
L 469 351
L 471 351
L 473 351
L 475 351
L 477 351
L 478 351
L 480 351
L 482 351
L 484 351
L 486 351
L 488 350
L 490 351
L 492 350
L 494 351
L 495 351
L 497 351
L 499 351
L 501 351
L 503 351
L 505 350
L 507 350
L 509 350
L 511 351
L 513 350
L 514 350
L 516 351
L 518 351
L 520 350
L 522 350
L 524 351
L 526 350
L 528 349
L 530 350
L 531 350
L 533 351
L 535 350
L 537 351
L 539 351
L 541 351
L 543 351
L 545 349
L 547 349
L 549 351
L 550 351
L 552 350
L 554 350
L 556 351
L 558 350
L 560 351
L 562 350
L 564 351
L 566 350
L 568 350
L 569 351
L 571 351
L 573 351
L 575 351
L 577 350
L 579 350
L 581 351
L 583 351
L 585 351
L 586 351
L 588 351
L 590 351
L 592 351
L 594 350
L 596 350
L 598 351
L 600 351
L 602 350
L 604 351
L 605 351
L 607 351
L 609 351
L 611 350
L 613 351
L 615 351
L 617 351
L 619 351
L 621 351
L 623 351
L 624 350
L 626 351
L 628 351
L 630 351
L 632 351
L 634 351
L 636 351
L 638 351
L 640 351
L 641 351
L 643 351
L 645 351
L 647 351
L 649 351
L 651 351
L 653 351
L 655 351
L 657 351
L 659 351
L 660 351
L 662 351
L 664 351
L 666 351
L 668 351
L 670 351
L 672 351
L 674 351
L 676 351
L 677 351
L 679 350
L 681 351
L 683 351
L 685 351
L 687 351
L 689 351
L 691 351
L 693 351
L 695 351
L 696 351
L 698 351
L 700 351
L 702 351
L 704 351
L 706 351
L 708 351
L 710 351
L 712 351
L 714 351
L 715 351
L 717 351
L 719 351
L 721 351
L 723 351
L 725 351
L 727 350
L 729 351
L 731 351
L 732 351
L 734 351
L 736 351
L 738 351
L 740 351
L 742 351
L 744 351
L 746 351
L 748 351
L 750 350
L 751 351
L 753 351
L 755 351
L 757 351
L 759 351
L 761 351
L 763 351
L 765 351
L 767 351
L 769 351
L 770 351
L 772 351
L 774 351
L 776 350
L 778 351
L 780 350
L 782 351
L 784 351
L 786 351
L 787 351
L 789 351
L 791 351
L 793 351
L 795 351
L 797 351
L 799 349
L 801 351
L 803 351
L 805 351
L 806 351
L 808 351
L 810 351
L 812 351
L 814 351
L 816 351
L 818 350
L 820 351
L 822 351
L 823 351
L 825 351
L 827 351
L 829 351
L 831 351
L 833 350
L 835 351
L 837 351
L 839 351
L 841 350
L 842 351
L 844 351
L 846 351
L 848 351
L 850 351
L 852 351
L 854 351
L 856 351
L 858 351
L 860 351
L 861 351
L 863 351
L 865 351
L 867 351
L 869 351
L 871 351
L 873 351
L 875 351
L 877 351
L 878 351
L 880 351
L 882 351
L 884 351
L 886 351
L 888 351
L 890 351
L 892 351
L 894 351
L 896 351
L 897 351
L 899 351
L 901 351
L 903 351
L 905 350
L 907 351
L 909 351
L 911 351
L 913 351
L 915 351
L 916 351
L 918 351
L 920 351
L 922 351
L 924 351
L 926 351
L 928 351
L 930 351
L 932 351
L 933 351
L 935 351
L 937 351
L 939 351
L 941 351
L 943 351
L 945 351
L 947 351
L 949 351
L 951 351
L 952 351
L 954 351
L 956 351
L 958 351
L 960 351
L 962 351
L 964 351
L 966 351
L 968 351
L 969 351" style="stroke-width:1;stroke:rgba(217,0,116,1.0);fill:none"/><text x="413" y="33" style="stroke-width:0;stroke:none;fill:rgba(51,51,51,1.0);font-size:23.0px;font-family:'Roboto Medium',sans-serif">Gmünd 01.07.2021</text><path  d="M 38 11
L 251 11
L 251 91
L 38 91
L 38 11" style="stroke-width:1;stroke:rgba(51,51,51,1.0);fill:rgba(255,255,255,1.0)"/><text x="43" y="26" style="stroke-width:0;stroke:none;fill:rgba(51,51,51,1.0);font-size:10.2px;font-family:'Roboto Medium',sans-serif">Sieben Tage Durschnitt Inzidenz Fälle</text><path  d="M 221 21
L 241 21" style="stroke-width:1;stroke:rgba(0,116,217,1.0);fill:none"/><text x="43" y="56" style="stroke-width:0;stroke:none;fill:rgba(51,51,51,1.0);font-size:10.2px;font-family:'Roboto Medium',sans-serif">Anzahl Faelle</text><path  d="M 110 51
L 241 51" style="stroke-width:1;stroke:rgba(0,217,101,1.0);fill:none"/><text x="43" y="86" style="stroke-width:0;stroke:none;fill:rgba(51,51,51,1.0);font-size:10.2px;font-family:'Roboto Medium',sans-serif">Anzahl Tot</text><path  d="M 98 81
L 241 81" style="stroke-width:1;stroke:rgba(217,0,116,1.0);fill:none"/></svg>