<svg xmlns="http://www.w3.org/2000/svg" xmlns:xlink="http://www.w3.org/1999/xlink" width="1024" height="400">\n<path  d="M 0 0
L 1024 0
L 1024 400
L 0 400
L 0 0" style="stroke-width:0;stroke:rgba(255,255,255,1.0);fill:rgba(255,255,255,1.0)"/><path  d="M 38 11
L 961 11
L 961 351
L 38 351
L 38 11" style="stroke-width:0;stroke:rgba(255,255,255,1.0);fill:rgba(255,255,255,1.0)"/><path  d="M 38 351
L 961 351" style="stroke-width:1;stroke:rgba(51,51,51,1.0);fill:none"/><path  d="M 38 351
L 38 356" style="stroke-width:1;stroke:rgba(51,51,51,1.0);fill:none"/><text x="5" y="373" style="stroke-width:0;stroke:none;fill:rgba(51,51,51,1.0);font-size:12.8px;font-family:'Roboto Medium',sans-serif">2020-02-26</text><path  d="M 154 351
L 154 356" style="stroke-width:1;stroke:rgba(51,51,51,1.0);fill:none"/><text x="121" y="373" style="stroke-width:0;stroke:none;fill:rgba(51,51,51,1.0);font-size:12.8px;font-family:'Roboto Medium',sans-serif">2020-06-22</text><path  d="M 269 351
L 269 356" style="stroke-width:1;stroke:rgba(51,51,51,1.0);fill:none"/><text x="236" y="373" style="stroke-width:0;stroke:none;fill:rgba(51,51,51,1.0);font-size:12.8px;font-family:'Roboto Medium',sans-serif">2020-10-17</text><path  d="M 385 351
L 385 356" style="stroke-width:1;stroke:rgba(51,51,51,1.0);fill:none"/><text x="352" y="373" style="stroke-width:0;stroke:none;fill:rgba(51,51,51,1.0);font-size:12.8px;font-family:'Roboto Medium',sans-serif">2021-02-11</text><path  d="M 500 351
L 500 356" style="stroke-width:1;stroke:rgba(51,51,51,1.0);fill:none"/><text x="467" y="373" style="stroke-width:0;stroke:none;fill:rgba(51,51,51,1.0);font-size:12.8px;font-family:'Roboto Medium',sans-serif">2021-06-08</text><path  d="M 615 351
L 615 356" style="stroke-width:1;stroke:rgba(51,51,51,1.0);fill:none"/><text x="582" y="373" style="stroke-width:0;stroke:none;fill:rgba(51,51,51,1.0);font-size:12.8px;font-family:'Roboto Medium',sans-serif">2021-10-03</text><path  d="M 731 351
L 731 356" style="stroke-width:1;stroke:rgba(51,51,51,1.0);fill:none"/><text x="698" y="373" style="stroke-width:0;stroke:none;fill:rgba(51,51,51,1.0);font-size:12.8px;font-family:'Roboto Medium',sans-serif">2022-01-28</text><path  d="M 846 351
L 846 356" style="stroke-width:1;stroke:rgba(51,51,51,1.0);fill:none"/><text x="813" y="373" style="stroke-width:0;stroke:none;fill:rgba(51,51,51,1.0);font-size:12.8px;font-family:'Roboto Medium',sans-serif">2022-05-25</text><path  d="M 961 351
L 961 356" style="stroke-width:1;stroke:rgba(51,51,51,1.0);fill:none"/><text x="928" y="373" style="stroke-width:0;stroke:none;fill:rgba(51,51,51,1.0);font-size:12.8px;font-family:'Roboto Medium',sans-serif">2022-09-19</text><text x="481" y="395" style="stroke-width:0;stroke:none;fill:rgba(51,51,51,1.0);font-size:12.8px;font-family:'Roboto Medium',sans-serif">Datum</text><path  d="M 962 351
L 962 11" style="stroke-width:1;stroke:rgba(51,51,51,1.0);fill:none"/><path  d="M 962 351
L 967 351" style="stroke-width:1;stroke:rgba(51,51,51,1.0);fill:none"/><text x="972" y="357" style="stroke-width:0;stroke:none;fill:rgba(51,51,51,1.0);font-size:12.8px;font-family:'Roboto Medium',sans-serif">0.00</text><path  d="M 962 308
L 967 308" style="stroke-width:1;stroke:rgba(51,51,51,1.0);fill:none"/><text x="972" y="314" style="stroke-width:0;stroke:none;fill:rgba(51,51,51,1.0);font-size:12.8px;font-family:'Roboto Medium',sans-serif">490.00</text><path  d="M 962 265
L 967 265" style="stroke-width:1;stroke:rgba(51,51,51,1.0);fill:none"/><text x="972" y="271" style="stroke-width:0;stroke:none;fill:rgba(51,51,51,1.0);font-size:12.8px;font-family:'Roboto Medium',sans-serif">980.00</text><path  d="M 962 222
L 967 222" style="stroke-width:1;stroke:rgba(51,51,51,1.0);fill:none"/><text x="972" y="228" style="stroke-width:0;stroke:none;fill:rgba(51,51,51,1.0);font-size:12.8px;font-family:'Roboto Medium',sans-serif">1470.00</text><path  d="M 962 181
L 967 181" style="stroke-width:1;stroke:rgba(51,51,51,1.0);fill:none"/><text x="972" y="187" style="stroke-width:0;stroke:none;fill:rgba(51,51,51,1.0);font-size:12.8px;font-family:'Roboto Medium',sans-serif">1950.00</text><path  d="M 962 138
L 967 138" style="stroke-width:1;stroke:rgba(51,51,51,1.0);fill:none"/><text x="972" y="144" style="stroke-width:0;stroke:none;fill:rgba(51,51,51,1.0);font-size:12.8px;font-family:'Roboto Medium',sans-serif">2440.00</text><path  d="M 962 95
L 967 95" style="stroke-width:1;stroke:rgba(51,51,51,1.0);fill:none"/><text x="972" y="101" style="stroke-width:0;stroke:none;fill:rgba(51,51,51,1.0);font-size:12.8px;font-family:'Roboto Medium',sans-serif">2930.00</text><path  d="M 962 52
L 967 52" style="stroke-width:1;stroke:rgba(51,51,51,1.0);fill:none"/><text x="972" y="58" style="stroke-width:0;stroke:none;fill:rgba(51,51,51,1.0);font-size:12.8px;font-family:'Roboto Medium',sans-serif">3420.00</text><path  d="M 962 11
L 967 11" style="stroke-width:1;stroke:rgba(51,51,51,1.0);fill:none"/><text x="972" y="17" style="stroke-width:0;stroke:none;fill:rgba(51,51,51,1.0);font-size:12.8px;font-family:'Roboto Medium',sans-serif">3900.00</text><path  d="M 38 351
L 39 351
L 40 351
L 41 351
L 42 351
L 43 350
L 44 350
L 45 350
L 46 350
L 47 350
L 48 350
L 49 350
L 50 350
L 51 350
L 52 350
L 53 350
L 54 350
L 55 350
L 56 350
L 57 349
L 58 349
L 59 349
L 60 349
L 61 348
L 62 348
L 63 348
L 64 348
L 65 348
L 66 348
L 67 348
L 68 348
L 69 348
L 70 348
L 71 348
L 72 347
L 73 347
L 74 347
L 75 347
L 76 347
L 77 347
L 78 347
L 79 348
L 80 348
L 81 348
L 82 348
L 83 349
L 84 349
L 85 349
L 86 349
L 87 349
L 88 349
L 89 349
L 90 349
L 91 349
L 92 350
L 93 350
L 94 350
L 95 350
L 96 350
L 97 350
L 98 350
L 99 350
L 100 350
L 101 350
L 102 350
L 103 350
L 104 350
L 105 350
L 106 350
L 107 350
L 108 350
L 109 350
L 109 350
L 110 350
L 111 350
L 112 350
L 113 350
L 114 350
L 115 350
L 116 351
L 117 350
L 118 350
L 119 350
L 120 350
L 121 350
L 122 350
L 123 350
L 124 350
L 125 350
L 126 350
L 127 350
L 128 350
L 129 350
L 130 350
L 131 350
L 132 351
L 133 350
L 134 350
L 135 350
L 136 350
L 137 350
L 138 350
L 139 350
L 140 350
L 141 350
L 142 350
L 143 350
L 144 350
L 145 350
L 146 350
L 147 350
L 148 350
L 149 350
L 150 350
L 151 350
L 152 350
L 153 350
L 154 350
L 155 350
L 156 350
L 157 350
L 158 350
L 159 350
L 160 350
L 161 350
L 162 350
L 163 350
L 164 350
L 165 350
L 166 350
L 167 350
L 168 350
L 169 350
L 170 350
L 171 350
L 172 350
L 173 350
L 174 350
L 175 350
L 176 350
L 177 350
L 178 350
L 179 350
L 180 350
L 180 350
L 181 350
L 182 350
L 183 350
L 184 350
L 185 350
L 186 350
L 187 350
L 188 350
L 189 350
L 190 350
L 191 350
L 192 350
L 193 350
L 194 350
L 195 350
L 196 350
L 197 350
L 198 350
L 199 350
L 200 350
L 201 350
L 202 350
L 203 350
L 204 350
L 205 350
L 206 349
L 207 349
L 208 349
L 209 349
L 210 349
L 211 349
L 212 349
L 213 349
L 214 349
L 215 349
L 216 349
L 217 349
L 218 348
L 219 348
L 220 348
L 221 348
L 222 348
L 223 348
L 224 348
L 225 347
L 226 347
L 227 348
L 228 348
L 229 348
L 230 348
L 231 348
L 232 348
L 233 348
L 234 348
L 235 347
L 236 347
L 237 347
L 238 347
L 239 347
L 240 347
L 241 347
L 242 347
L 243 347
L 244 347
L 245 347
L 246 347
L 247 347
L 248 347
L 249 347
L 250 347
L 251 348
L 251 348
L 252 348
L 253 348
L 254 348
L 255 348
L 256 348
L 257 348
L 258 348
L 259 348
L 260 347
L 261 347
L 262 347
L 263 348
L 264 347
L 265 347
L 266 347
L 267 346
L 268 346
L 269 345
L 270 344
L 271 343
L 272 343
L 273 341
L 274 340
L 275 339
L 276 337
L 277 337
L 278 336
L 279 336
L 280 334
L 281 332
L 282 331
L 283 330
L 284 328
L 285 327
L 286 323
L 287 322
L 288 320
L 289 317
L 290 316
L 291 316
L 292 313
L 293 314
L 294 314
L 295 314
L 296 316
L 297 317
L 298 317
L 299 318
L 300 317
L 301 319
L 302 321
L 303 321
L 304 321
L 305 323
L 306 323
L 307 327
L 308 326
L 309 327
L 310 328
L 311 327
L 312 326
L 313 327
L 314 328
L 315 328
L 316 329
L 317 328
L 318 331
L 319 332
L 320 332
L 321 334
L 322 335
L 322 336
L 323 336
L 324 337
L 325 336
L 326 337
L 327 336
L 328 336
L 329 336
L 330 337
L 331 337
L 332 339
L 333 339
L 334 339
L 335 339
L 336 339
L 337 340
L 338 341
L 339 341
L 340 341
L 341 341
L 342 342
L 343 342
L 344 342
L 345 341
L 346 341
L 347 340
L 348 340
L 349 341
L 350 342
L 351 341
L 352 341
L 353 341
L 354 342
L 355 343
L 356 342
L 357 342
L 358 343
L 359 343
L 360 344
L 361 344
L 362 344
L 363 344
L 364 344
L 365 344
L 366 344
L 367 343
L 368 343
L 369 344
L 370 344
L 371 344
L 372 344
L 373 344
L 374 344
L 375 343
L 376 344
L 377 344
L 378 344
L 379 344
L 380 345
L 381 345
L 382 345
L 383 345
L 384 345
L 385 345
L 386 344
L 387 343
L 388 342
L 389 341
L 390 341
L 391 339
L 392 338
L 393 336
L 393 337
L 394 337
L 395 338
L 396 338
L 397 338
L 398 340
L 399 340
L 400 339
L 401 340
L 402 340
L 403 339
L 404 341
L 405 340
L 406 340
L 407 340
L 408 340
L 409 338
L 410 339
L 411 338
L 412 337
L 413 338
L 414 338
L 415 338
L 416 338
L 417 339
L 418 339
L 419 337
L 420 338
L 421 338
L 422 338
L 423 337
L 424 336
L 425 337
L 426 338
L 427 339
L 428 339
L 429 337
L 430 338
L 431 338
L 432 338
L 433 338
L 434 337
L 435 337
L 436 338
L 437 339
L 438 338
L 439 338
L 440 339
L 441 338
L 442 340
L 443 340
L 444 340
L 445 339
L 446 338
L 447 337
L 448 337
L 449 335
L 450 336
L 451 335
L 452 335
L 453 334
L 454 334
L 455 333
L 456 334
L 457 333
L 458 334
L 459 335
L 460 335
L 461 336
L 462 337
L 463 337
L 464 337
L 464 338
L 465 338
L 466 339
L 467 340
L 468 340
L 469 341
L 470 341
L 471 341
L 472 341
L 473 341
L 474 342
L 475 343
L 476 344
L 477 344
L 478 345
L 479 346
L 480 346
L 481 346
L 482 346
L 483 346
L 484 346
L 485 346
L 486 346
L 487 347
L 488 347
L 489 347
L 490 348
L 491 348
L 492 348
L 493 347
L 494 348
L 495 348
L 496 348
L 497 348
L 498 348
L 499 348
L 500 348
L 501 348
L 502 349
L 503 349
L 504 349
L 505 349
L 506 349
L 507 350
L 508 350
L 509 350
L 510 350
L 511 350
L 512 350
L 513 350
L 514 350
L 515 350
L 516 350
L 517 350
L 518 350
L 519 350
L 520 350
L 521 350
L 522 350
L 523 350
L 524 350
L 525 350
L 526 350
L 527 350
L 528 350
L 529 350
L 530 350
L 531 350
L 532 350
L 533 349
L 534 349
L 535 349
L 535 349
L 536 349
L 537 348
L 538 348
L 539 347
L 540 347
L 541 348
L 542 347
L 543 347
L 544 347
L 545 347
L 546 348
L 547 348
L 548 347
L 549 347
L 550 347
L 551 347
L 552 347
L 553 347
L 554 346
L 555 347
L 556 347
L 557 347
L 558 347
L 559 346
L 560 347
L 561 347
L 562 346
L 563 346
L 564 345
L 565 344
L 566 344
L 567 343
L 568 342
L 569 342
L 570 341
L 571 340
L 572 339
L 573 339
L 574 339
L 575 339
L 576 338
L 577 337
L 578 338
L 579 338
L 580 337
L 581 338
L 582 337
L 583 338
L 584 338
L 585 338
L 586 338
L 587 338
L 588 338
L 589 339
L 590 337
L 591 337
L 592 337
L 593 336
L 594 336
L 595 335
L 596 334
L 597 335
L 598 335
L 599 334
L 600 334
L 601 334
L 602 334
L 603 335
L 604 336
L 605 336
L 606 337
L 606 338
L 607 338
L 608 339
L 609 339
L 610 337
L 611 337
L 612 337
L 613 337
L 614 336
L 615 336
L 616 336
L 617 335
L 618 336
L 619 335
L 620 336
L 621 336
L 622 336
L 623 336
L 624 338
L 625 337
L 626 336
L 627 334
L 628 334
L 629 333
L 630 333
L 631 331
L 632 330
L 633 329
L 634 330
L 635 330
L 636 329
L 637 328
L 638 329
L 639 330
L 640 329
L 641 328
L 642 327
L 643 325
L 644 325
L 645 323
L 646 319
L 647 318
L 648 315
L 649 316
L 650 313
L 651 312
L 652 310
L 653 310
L 654 312
L 655 311
L 656 307
L 657 308
L 658 307
L 659 302
L 660 304
L 661 303
L 662 303
L 663 302
L 664 301
L 665 299
L 666 303
L 667 296
L 668 294
L 669 290
L 670 290
L 671 289
L 672 286
L 673 288
L 674 291
L 675 295
L 676 300
L 677 302
L 677 307
L 678 312
L 679 313
L 680 318
L 681 319
L 682 322
L 683 325
L 684 326
L 685 328
L 686 331
L 687 332
L 688 333
L 689 335
L 690 336
L 691 336
L 692 337
L 693 338
L 694 338
L 695 339
L 696 338
L 697 339
L 698 340
L 699 340
L 700 338
L 701 339
L 702 337
L 703 337
L 704 336
L 705 335
L 706 333
L 707 327
L 708 321
L 709 316
L 710 312
L 711 305
L 712 300
L 713 295
L 714 287
L 715 280
L 716 274
L 717 269
L 718 267
L 719 266
L 720 263
L 721 260
L 722 257
L 723 251
L 724 241
L 725 235
L 726 224
L 727 218
L 728 211
L 729 204
L 730 191
L 731 187
L 732 181
L 733 185
L 734 179
L 735 165
L 736 156
L 737 157
L 738 155
L 739 155
L 740 149
L 741 149
L 742 153
L 743 159
L 744 158
L 745 158
L 746 157
L 747 162
L 748 165
L 748 167
L 749 168
L 750 172
L 751 175
L 752 182
L 753 185
L 754 185
L 755 195
L 756 197
L 757 203
L 758 208
L 759 207
L 760 206
L 761 202
L 762 189
L 763 184
L 764 183
L 765 175
L 766 171
L 767 166
L 768 163
L 769 150
L 770 126
L 771 104
L 772 89
L 773 69
L 774 61
L 775 51
L 776 42
L 777 33
L 778 23
L 779 19
L 780 25
L 781 30
L 782 28
L 783 29
L 784 43
L 785 63
L 786 73
L 787 90
L 788 99
L 789 110
L 790 138
L 791 159
L 792 180
L 793 200
L 794 211
L 795 217
L 796 235
L 797 247
L 798 260
L 799 263
L 800 270
L 801 272
L 802 275
L 803 275
L 804 289
L 805 296
L 806 298
L 807 300
L 808 303
L 809 303
L 810 311
L 811 309
L 812 308
L 813 312
L 814 314
L 815 314
L 816 315
L 817 311
L 818 314
L 819 316
L 819 317
L 820 318
L 821 319
L 822 319
L 823 320
L 824 322
L 825 323
L 826 323
L 827 323
L 828 324
L 829 324
L 830 325
L 831 324
L 832 324
L 833 324
L 834 325
L 835 324
L 836 324
L 837 324
L 838 326
L 839 328
L 840 329
L 841 329
L 842 331
L 843 333
L 844 335
L 845 335
L 846 337
L 847 339
L 848 340
L 849 339
L 850 340
L 851 340
L 852 340
L 853 339
L 854 337
L 855 337
L 856 336
L 857 336
L 858 337
L 859 336
L 860 334
L 861 333
L 862 332
L 863 331
L 864 331
L 865 328
L 866 326
L 867 323
L 868 325
L 869 322
L 870 318
L 871 316
L 872 313
L 873 304
L 874 302
L 875 295
L 876 294
L 877 293
L 878 291
L 879 287
L 880 289
L 881 289
L 882 288
L 883 287
L 884 285
L 885 283
L 886 287
L 887 284
L 888 278
L 889 278
L 890 275
L 890 274
L 891 276
L 892 271
L 893 271
L 894 273
L 895 272
L 896 272
L 897 271
L 898 271
L 899 271
L 900 271
L 901 272
L 902 272
L 903 273
L 904 278
L 905 278
L 906 282
L 907 289
L 908 292
L 909 295
L 910 299
L 911 301
L 912 302
L 913 302
L 914 303
L 915 305
L 916 307
L 917 307
L 918 309
L 919 309
L 920 309
L 921 311
L 922 311
L 923 312
L 924 313
L 925 311
L 926 312
L 927 317
L 928 316
L 929 315
L 930 314
L 931 314
L 932 314
L 933 314
L 934 312
L 935 315
L 936 316
L 937 317
L 938 320
L 939 320
L 940 320
L 941 319
L 942 320
L 943 320
L 944 320
L 945 320
L 946 321
L 947 321
L 948 322
L 949 322
L 950 324
L 951 325
L 952 325
L 953 324
L 954 323
L 955 323
L 956 320
L 957 318
L 958 316
L 959 315
L 960 314
L 961 314
L 961 313" style="stroke-width:1;stroke:rgba(0,116,217,1.0);fill:none"/><path  d="M 38 351
L 39 351
L 40 351
L 41 351
L 42 351
L 43 350
L 44 351
L 45 351
L 46 351
L 47 350
L 48 351
L 49 351
L 50 351
L 51 351
L 52 350
L 53 350
L 54 350
L 55 350
L 56 350
L 57 350
L 58 349
L 59 349
L 60 349
L 61 349
L 62 349
L 63 350
L 64 349
L 65 350
L 66 349
L 67 349
L 68 349
L 69 350
L 70 349
L 71 348
L 72 349
L 73 349
L 74 350
L 75 348
L 76 348
L 77 350
L 78 350
L 79 349
L 80 350
L 81 350
L 82 350
L 83 350
L 84 350
L 85 349
L 86 350
L 87 350
L 88 350
L 89 350
L 90 350
L 91 350
L 92 351
L 93 350
L 94 350
L 95 350
L 96 351
L 97 350
L 98 350
L 99 350
L 100 350
L 101 350
L 102 350
L 103 350
L 104 350
L 105 351
L 106 351
L 107 351
L 108 350
L 109 351
L 109 350
L 110 351
L 111 351
L 112 351
L 113 351
L 114 351
L 115 351
L 116 351
L 117 350
L 118 351
L 119 351
L 120 350
L 121 351
L 122 351
L 123 351
L 124 351
L 125 350
L 126 351
L 127 351
L 128 351
L 129 351
L 130 351
L 131 351
L 132 351
L 133 350
L 134 351
L 135 350
L 136 351
L 137 350
L 138 351
L 139 351
L 140 351
L 141 350
L 142 351
L 143 351
L 144 351
L 145 351
L 146 351
L 147 350
L 148 351
L 149 350
L 150 351
L 151 350
L 152 350
L 153 350
L 154 351
L 155 351
L 156 351
L 157 350
L 158 350
L 159 351
L 160 350
L 161 350
L 162 350
L 163 351
L 164 350
L 165 350
L 166 350
L 167 351
L 168 350
L 169 350
L 170 350
L 171 351
L 172 350
L 173 350
L 174 350
L 175 350
L 176 350
L 177 350
L 178 350
L 179 350
L 180 350
L 180 350
L 181 350
L 182 350
L 183 350
L 184 350
L 185 350
L 186 350
L 187 350
L 188 350
L 189 350
L 190 351
L 191 350
L 192 350
L 193 350
L 194 350
L 195 351
L 196 350
L 197 350
L 198 350
L 199 350
L 200 350
L 201 350
L 202 350
L 203 350
L 204 350
L 205 350
L 206 350
L 207 350
L 208 350
L 209 350
L 210 349
L 211 350
L 212 350
L 213 349
L 214 350
L 215 350
L 216 350
L 217 349
L 218 349
L 219 349
L 220 349
L 221 350
L 222 350
L 223 349
L 224 350
L 225 347
L 226 350
L 227 350
L 228 350
L 229 350
L 230 350
L 231 349
L 232 349
L 233 348
L 234 349
L 235 349
L 236 350
L 237 349
L 238 349
L 239 349
L 240 349
L 241 349
L 242 349
L 243 349
L 244 349
L 245 349
L 246 349
L 247 350
L 248 348
L 249 350
L 250 349
L 251 349
L 251 350
L 252 350
L 253 350
L 254 350
L 255 349
L 256 349
L 257 350
L 258 350
L 259 349
L 260 348
L 261 350
L 262 349
L 263 350
L 264 348
L 265 348
L 266 348
L 267 348
L 268 347
L 269 348
L 270 347
L 271 346
L 272 346
L 273 344
L 274 343
L 275 344
L 276 343
L 277 347
L 278 344
L 279 344
L 280 341
L 281 337
L 282 340
L 283 340
L 284 341
L 285 342
L 286 333
L 287 336
L 288 331
L 289 332
L 290 338
L 291 339
L 292 335
L 293 334
L 294 335
L 295 332
L 296 337
L 297 342
L 298 339
L 299 340
L 300 329
L 301 343
L 302 337
L 303 337
L 304 343
L 305 344
L 306 341
L 307 338
L 308 341
L 309 339
L 310 342
L 311 338
L 312 343
L 313 343
L 314 340
L 315 343
L 316 341
L 317 341
L 318 345
L 319 345
L 320 345
L 321 344
L 322 346
L 322 344
L 323 341
L 324 347
L 325 343
L 326 347
L 327 343
L 328 345
L 329 346
L 330 345
L 331 347
L 332 348
L 333 346
L 334 344
L 335 343
L 336 346
L 337 350
L 338 348
L 339 348
L 340 346
L 341 345
L 342 345
L 343 346
L 344 349
L 345 348
L 346 346
L 347 345
L 348 345
L 349 347
L 350 347
L 351 347
L 352 348
L 353 347
L 354 348
L 355 346
L 356 347
L 357 347
L 358 348
L 359 349
L 360 350
L 361 349
L 362 346
L 363 346
L 364 347
L 365 348
L 366 348
L 367 349
L 368 348
L 369 347
L 370 348
L 371 347
L 372 347
L 373 348
L 374 348
L 375 347
L 376 348
L 377 347
L 378 348
L 379 349
L 380 348
L 381 348
L 382 349
L 383 346
L 384 348
L 385 347
L 386 347
L 387 345
L 388 346
L 389 344
L 390 346
L 391 343
L 392 344
L 393 343
L 393 346
L 394 346
L 395 347
L 396 349
L 397 342
L 398 349
L 399 344
L 400 343
L 401 349
L 402 348
L 403 345
L 404 346
L 405 348
L 406 341
L 407 345
L 408 347
L 409 345
L 410 347
L 411 343
L 412 346
L 413 343
L 414 345
L 415 347
L 416 346
L 417 348
L 418 342
L 419 343
L 420 344
L 421 346
L 422 347
L 423 344
L 424 346
L 425 346
L 426 345
L 427 348
L 428 344
L 429 342
L 430 346
L 431 347
L 432 346
L 433 345
L 434 344
L 435 343
L 436 346
L 437 347
L 438 345
L 439 348
L 440 346
L 441 343
L 442 347
L 443 347
L 444 346
L 445 343
L 446 344
L 447 343
L 448 344
L 449 342
L 450 348
L 451 342
L 452 343
L 453 341
L 454 342
L 455 342
L 456 345
L 457 346
L 458 345
L 459 346
L 460 342
L 461 345
L 462 345
L 463 345
L 464 348
L 464 347
L 465 345
L 466 346
L 467 346
L 468 345
L 469 348
L 470 348
L 471 347
L 472 345
L 473 348
L 474 349
L 475 347
L 476 349
L 477 349
L 478 349
L 479 348
L 480 348
L 481 349
L 482 348
L 483 349
L 484 349
L 485 349
L 486 349
L 487 349
L 488 349
L 489 350
L 490 349
L 491 350
L 492 349
L 493 349
L 494 350
L 495 350
L 496 350
L 497 350
L 498 349
L 499 350
L 500 349
L 501 350
L 502 350
L 503 350
L 504 350
L 505 350
L 506 350
L 507 350
L 508 350
L 509 350
L 510 350
L 511 350
L 512 350
L 513 350
L 514 350
L 515 350
L 516 351
L 517 350
L 518 350
L 519 350
L 520 351
L 521 350
L 522 351
L 523 350
L 524 350
L 525 350
L 526 350
L 527 350
L 528 350
L 529 350
L 530 350
L 531 350
L 532 350
L 533 350
L 534 349
L 535 349
L 535 350
L 536 349
L 537 349
L 538 348
L 539 348
L 540 350
L 541 350
L 542 348
L 543 349
L 544 349
L 545 350
L 546 350
L 547 350
L 548 348
L 549 348
L 550 349
L 551 349
L 552 349
L 553 349
L 554 349
L 555 349
L 556 349
L 557 349
L 558 349
L 559 348
L 560 350
L 561 349
L 562 348
L 563 348
L 564 347
L 565 345
L 566 347
L 567 347
L 568 346
L 569 347
L 570 346
L 571 343
L 572 345
L 573 346
L 574 345
L 575 347
L 576 343
L 577 344
L 578 344
L 579 345
L 580 344
L 581 348
L 582 345
L 583 347
L 584 345
L 585 344
L 586 345
L 587 344
L 588 347
L 589 347
L 590 343
L 591 344
L 592 344
L 593 342
L 594 344
L 595 346
L 596 344
L 597 343
L 598 346
L 599 342
L 600 342
L 601 344
L 602 344
L 603 348
L 604 346
L 605 345
L 606 345
L 606 344
L 607 346
L 608 345
L 609 347
L 610 342
L 611 344
L 612 346
L 613 344
L 614 343
L 615 346
L 616 346
L 617 340
L 618 346
L 619 343
L 620 346
L 621 344
L 622 346
L 623 347
L 624 343
L 625 343
L 626 343
L 627 340
L 628 342
L 629 345
L 630 345
L 631 337
L 632 342
L 633 340
L 634 341
L 635 342
L 636 343
L 637 342
L 638 340
L 639 343
L 640 338
L 641 340
L 642 337
L 643 338
L 644 342
L 645 335
L 646 333
L 647 333
L 648 331
L 649 342
L 650 329
L 651 340
L 652 327
L 653 334
L 654 337
L 655 328
L 656 331
L 657 333
L 658 336
L 659 313
L 660 340
L 661 333
L 662 328
L 663 329
L 664 329
L 665 330
L 666 325
L 667 318
L 668 327
L 669 317
L 670 331
L 671 324
L 672 322
L 673 332
L 674 325
L 675 340
L 676 331
L 677 336
L 677 340
L 678 337
L 679 335
L 680 340
L 681 342
L 682 340
L 683 343
L 684 344
L 685 344
L 686 341
L 687 345
L 688 344
L 689 346
L 690 345
L 691 345
L 692 347
L 693 345
L 694 344
L 695 347
L 696 344
L 697 347
L 698 348
L 699 346
L 700 342
L 701 345
L 702 343
L 703 342
L 704 346
L 705 344
L 706 338
L 707 325
L 708 327
L 709 329
L 710 331
L 711 325
L 712 330
L 713 324
L 714 302
L 715 306
L 716 312
L 717 317
L 718 319
L 719 326
L 720 316
L 721 292
L 722 297
L 723 294
L 724 288
L 725 301
L 726 295
L 727 296
L 728 270
L 729 276
L 730 258
L 731 276
L 732 284
L 733 307
L 734 278
L 735 229
L 736 252
L 737 260
L 738 270
L 739 283
L 740 291
L 741 277
L 742 240
L 743 270
L 744 255
L 745 272
L 746 280
L 747 307
L 748 285
L 748 245
L 749 274
L 750 267
L 751 279
L 752 301
L 753 315
L 754 285
L 755 275
L 756 281
L 757 283
L 758 294
L 759 297
L 760 312
L 761 274
L 762 236
L 763 268
L 764 280
L 765 270
L 766 285
L 767 298
L 768 264
L 769 198
L 770 199
L 771 214
L 772 228
L 773 224
L 774 275
L 775 236
L 776 170
L 777 172
L 778 187
L 779 214
L 780 243
L 781 290
L 782 229
L 783 175
L 784 212
L 785 246
L 786 242
L 787 293
L 788 316
L 789 263
L 790 258
L 791 272
L 792 308
L 793 303
L 794 323
L 795 336
L 796 316
L 797 292
L 798 310
L 799 318
L 800 322
L 801 330
L 802 343
L 803 317
L 804 331
L 805 331
L 806 324
L 807 329
L 808 338
L 809 342
L 810 342
L 811 326
L 812 327
L 813 335
L 814 336
L 815 340
L 816 343
L 817 331
L 818 334
L 819 335
L 819 337
L 820 339
L 821 341
L 822 345
L 823 334
L 824 339
L 825 340
L 826 335
L 827 339
L 828 344
L 829 344
L 830 337
L 831 337
L 832 339
L 833 337
L 834 342
L 835 341
L 836 343
L 837 338
L 838 342
L 839 343
L 840 339
L 841 344
L 842 347
L 843 347
L 844 344
L 845 344
L 846 347
L 847 347
L 848 345
L 849 347
L 850 348
L 851 345
L 852 344
L 853 344
L 854 343
L 855 344
L 856 345
L 857 347
L 858 347
L 859 341
L 860 338
L 861 341
L 862 341
L 863 343
L 864 344
L 865 339
L 866 335
L 867 331
L 868 344
L 869 332
L 870 331
L 871 341
L 872 329
L 873 308
L 874 323
L 875 323
L 876 330
L 877 329
L 878 337
L 879 318
L 880 314
L 881 323
L 882 321
L 883 325
L 884 325
L 885 330
L 886 329
L 887 303
L 888 307
L 889 321
L 890 317
L 890 322
L 891 334
L 892 315
L 893 305
L 894 313
L 895 317
L 896 317
L 897 319
L 898 336
L 899 313
L 900 305
L 901 315
L 902 319
L 903 320
L 904 331
L 905 337
L 906 324
L 907 325
L 908 325
L 909 327
L 910 332
L 911 336
L 912 341
L 913 325
L 914 327
L 915 332
L 916 333
L 917 332
L 918 341
L 919 341
L 920 327
L 921 331
L 922 333
L 923 335
L 924 334
L 925 338
L 926 344
L 927 342
L 928 326
L 929 330
L 930 334
L 931 333
L 932 339
L 933 344
L 934 336
L 935 334
L 936 332
L 937 338
L 938 340
L 939 340
L 940 345
L 941 333
L 942 336
L 943 332
L 944 339
L 945 341
L 946 342
L 947 346
L 948 334
L 949 338
L 950 338
L 951 342
L 952 341
L 953 336
L 954 345
L 955 332
L 956 331
L 957 332
L 958 337
L 959 336
L 960 334
L 961 346
L 961 327" style="stroke-width:1;stroke:rgba(0,217,101,1.0);fill:none"/><path  d="M 38 351
L 39 351
L 40 351
L 41 351
L 42 351
L 43 351
L 44 351
L 45 351
L 46 351
L 47 351
L 48 351
L 49 351
L 50 351
L 51 351
L 52 351
L 53 351
L 54 351
L 55 351
L 56 351
L 57 351
L 58 351
L 59 351
L 60 351
L 61 351
L 62 351
L 63 351
L 64 351
L 65 350
L 66 350
L 67 350
L 68 350
L 69 351
L 70 351
L 71 350
L 72 350
L 73 351
L 74 350
L 75 350
L 76 350
L 77 350
L 78 350
L 79 350
L 80 350
L 81 350
L 82 351
L 83 351
L 84 350
L 85 350
L 86 350
L 87 350
L 88 350
L 89 350
L 90 350
L 91 350
L 92 350
L 93 350
L 94 351
L 95 351
L 96 350
L 97 351
L 98 350
L 99 351
L 100 350
L 101 350
L 102 351
L 103 351
L 104 351
L 105 350
L 106 351
L 107 351
L 108 351
L 109 351
L 109 351
L 110 350
L 111 351
L 112 351
L 113 351
L 114 351
L 115 351
L 116 351
L 117 351
L 118 351
L 119 351
L 120 351
L 121 351
L 122 351
L 123 351
L 124 351
L 125 351
L 126 351
L 127 351
L 128 351
L 129 351
L 130 351
L 131 351
L 132 351
L 133 351
L 134 351
L 135 351
L 136 350
L 137 351
L 138 351
L 139 351
L 140 351
L 141 351
L 142 351
L 143 351
L 144 351
L 145 351
L 146 350
L 147 351
L 148 351
L 149 351
L 150 351
L 151 350
L 152 351
L 153 351
L 154 350
L 155 351
L 156 351
L 157 351
L 158 351
L 159 351
L 160 350
L 161 351
L 162 351
L 163 351
L 164 351
L 165 351
L 166 351
L 167 351
L 168 351
L 169 351
L 170 351
L 171 351
L 172 351
L 173 351
L 174 351
L 175 351
L 176 351
L 177 351
L 178 351
L 179 351
L 180 351
L 180 350
L 181 351
L 182 351
L 183 351
L 184 351
L 185 351
L 186 350
L 187 351
L 188 351
L 189 351
L 190 351
L 191 351
L 192 351
L 193 351
L 194 351
L 195 351
L 196 351
L 197 351
L 198 351
L 199 351
L 200 351
L 201 351
L 202 351
L 203 351
L 204 351
L 205 350
L 206 351
L 207 351
L 208 351
L 209 351
L 210 351
L 211 351
L 212 351
L 213 351
L 214 351
L 215 351
L 216 351
L 217 351
L 218 351
L 219 351
L 220 351
L 221 351
L 222 351
L 223 351
L 224 351
L 225 351
L 226 351
L 227 351
L 228 351
L 229 351
L 230 351
L 231 351
L 232 351
L 233 351
L 234 351
L 235 351
L 236 351
L 237 351
L 238 351
L 239 350
L 240 350
L 241 350
L 242 351
L 243 351
L 244 350
L 245 350
L 246 351
L 247 350
L 248 350
L 249 351
L 250 350
L 251 351
L 251 351
L 252 350
L 253 351
L 254 351
L 255 351
L 256 351
L 257 350
L 258 350
L 259 351
L 260 351
L 261 351
L 262 350
L 263 351
L 264 351
L 265 351
L 266 351
L 267 351
L 268 350
L 269 351
L 270 351
L 271 350
L 272 351
L 273 351
L 274 351
L 275 351
L 276 351
L 277 350
L 278 350
L 279 350
L 280 350
L 281 351
L 282 351
L 283 350
L 284 350
L 285 350
L 286 351
L 287 350
L 288 350
L 289 351
L 290 351
L 291 350
L 292 350
L 293 350
L 294 350
L 295 350
L 296 350
L 297 350
L 298 350
L 299 350
L 300 350
L 301 350
L 302 351
L 303 350
L 304 350
L 305 350
L 306 350
L 307 350
L 308 350
L 309 350
L 310 350
L 311 350
L 312 350
L 313 351
L 314 350
L 315 350
L 316 350
L 317 350
L 318 350
L 319 350
L 320 350
L 321 350
L 322 351
L 322 350
L 323 350
L 324 350
L 325 350
L 326 350
L 327 350
L 328 350
L 329 350
L 330 350
L 331 350
L 332 350
L 333 350
L 334 351
L 335 350
L 336 350
L 337 350
L 338 350
L 339 350
L 340 350
L 341 350
L 342 350
L 343 351
L 344 350
L 345 350
L 346 351
L 347 350
L 348 350
L 349 351
L 350 350
L 351 351
L 352 350
L 353 351
L 354 350
L 355 350
L 356 350
L 357 350
L 358 350
L 359 351
L 360 350
L 361 350
L 362 350
L 363 350
L 364 350
L 365 350
L 366 350
L 367 351
L 368 350
L 369 350
L 370 350
L 371 350
L 372 350
L 373 350
L 374 350
L 375 350
L 376 350
L 377 351
L 378 351
L 379 350
L 380 350
L 381 351
L 382 351
L 383 350
L 384 351
L 385 350
L 386 350
L 387 350
L 388 351
L 389 351
L 390 350
L 391 350
L 392 351
L 393 350
L 393 351
L 394 351
L 395 350
L 396 350
L 397 351
L 398 351
L 399 350
L 400 350
L 401 350
L 402 350
L 403 350
L 404 351
L 405 350
L 406 351
L 407 350
L 408 350
L 409 351
L 410 351
L 411 351
L 412 351
L 413 351
L 414 351
L 415 351
L 416 350
L 417 350
L 418 350
L 419 350
L 420 351
L 421 351
L 422 351
L 423 351
L 424 350
L 425 351
L 426 351
L 427 351
L 428 351
L 429 350
L 430 351
L 431 351
L 432 351
L 433 350
L 434 351
L 435 350
L 436 350
L 437 351
L 438 351
L 439 350
L 440 351
L 441 350
L 442 351
L 443 351
L 444 350
L 445 350
L 446 350
L 447 351
L 448 351
L 449 350
L 450 351
L 451 351
L 452 350
L 453 351
L 454 350
L 455 350
L 456 351
L 457 350
L 458 350
L 459 350
L 460 351
L 461 350
L 462 350
L 463 350
L 464 350
L 464 350
L 465 350
L 466 350
L 467 351
L 468 351
L 469 350
L 470 351
L 471 350
L 472 351
L 473 351
L 474 350
L 475 351
L 476 351
L 477 350
L 478 351
L 479 351
L 480 351
L 481 351
L 482 351
L 483 350
L 484 350
L 485 351
L 486 351
L 487 350
L 488 351
L 489 351
L 490 350
L 491 351
L 492 351
L 493 350
L 494 350
L 495 351
L 496 351
L 497 351
L 498 351
L 499 351
L 500 351
L 501 351
L 502 351
L 503 351
L 504 351
L 505 350
L 506 351
L 507 351
L 508 351
L 509 351
L 510 350
L 511 350
L 512 351
L 513 351
L 514 351
L 515 351
L 516 351
L 517 351
L 518 351
L 519 351
L 520 351
L 521 350
L 522 350
L 523 351
L 524 351
L 525 351
L 526 351
L 527 351
L 528 351
L 529 351
L 530 351
L 531 351
L 532 351
L 533 351
L 534 351
L 535 351
L 535 351
L 536 351
L 537 351
L 538 351
L 539 351
L 540 351
L 541 351
L 542 351
L 543 350
L 544 351
L 545 350
L 546 351
L 547 351
L 548 351
L 549 351
L 550 351
L 551 351
L 552 351
L 553 351
L 554 351
L 555 351
L 556 350
L 557 351
L 558 351
L 559 351
L 560 351
L 561 351
L 562 351
L 563 351
L 564 351
L 565 351
L 566 351
L 567 351
L 568 351
L 569 351
L 570 351
L 571 351
L 572 351
L 573 351
L 574 351
L 575 351
L 576 351
L 577 351
L 578 351
L 579 350
L 580 350
L 581 351
L 582 351
L 583 350
L 584 351
L 585 351
L 586 351
L 587 350
L 588 351
L 589 351
L 590 350
L 591 351
L 592 351
L 593 350
L 594 351
L 595 350
L 596 350
L 597 351
L 598 351
L 599 350
L 600 351
L 601 351
L 602 351
L 603 351
L 604 351
L 605 351
L 606 351
L 606 351
L 607 351
L 608 350
L 609 351
L 610 351
L 611 350
L 612 350
L 613 351
L 614 351
L 615 351
L 616 351
L 617 351
L 618 351
L 619 351
L 620 351
L 621 351
L 622 351
L 623 351
L 624 351
L 625 351
L 626 350
L 627 350
L 628 351
L 629 351
L 630 351
L 631 351
L 632 351
L 633 350
L 634 351
L 635 350
L 636 351
L 637 351
L 638 350
L 639 351
L 640 351
L 641 351
L 642 351
L 643 351
L 644 351
L 645 351
L 646 351
L 647 350
L 648 350
L 649 351
L 650 350
L 651 350
L 652 351
L 653 351
L 654 351
L 655 350
L 656 350
L 657 350
L 658 350
L 659 351
L 660 350
L 661 350
L 662 350
L 663 351
L 664 350
L 665 350
L 666 350
L 667 351
L 668 350
L 669 350
L 670 350
L 671 350
L 672 350
L 673 350
L 674 350
L 675 351
L 676 350
L 677 350
L 677 350
L 678 350
L 679 350
L 680 351
L 681 350
L 682 350
L 683 351
L 684 351
L 685 350
L 686 350
L 687 351
L 688 350
L 689 350
L 690 350
L 691 351
L 692 351
L 693 351
L 694 351
L 695 350
L 696 350
L 697 350
L 698 351
L 699 350
L 700 351
L 701 351
L 702 351
L 703 350
L 704 351
L 705 350
L 706 351
L 707 351
L 708 351
L 709 351
L 710 350
L 711 351
L 712 351
L 713 351
L 714 351
L 715 351
L 716 350
L 717 351
L 718 350
L 719 351
L 720 350
L 721 350
L 722 351
L 723 351
L 724 350
L 725 351
L 726 350
L 727 351
L 728 351
L 729 351
L 730 351
L 731 351
L 732 350
L 733 351
L 734 351
L 735 351
L 736 350
L 737 350
L 738 351
L 739 350
L 740 351
L 741 350
L 742 351
L 743 350
L 744 350
L 745 351
L 746 350
L 747 350
L 748 351
L 748 350
L 749 350
L 750 351
L 751 350
L 752 350
L 753 351
L 754 350
L 755 350
L 756 350
L 757 350
L 758 350
L 759 350
L 760 351
L 761 351
L 762 350
L 763 351
L 764 350
L 765 350
L 766 350
L 767 351
L 768 351
L 769 351
L 770 351
L 771 351
L 772 350
L 773 351
L 774 351
L 775 350
L 776 350
L 777 351
L 778 350
L 779 350
L 780 350
L 781 351
L 782 350
L 783 350
L 784 350
L 785 350
L 786 350
L 787 350
L 788 350
L 789 350
L 790 350
L 791 350
L 792 350
L 793 350
L 794 350
L 795 350
L 796 351
L 797 350
L 798 350
L 799 351
L 800 351
L 801 350
L 802 351
L 803 351
L 804 350
L 805 350
L 806 351
L 807 351
L 808 351
L 809 351
L 810 350
L 811 351
L 812 350
L 813 350
L 814 351
L 815 350
L 816 350
L 817 350
L 818 350
L 819 351
L 819 351
L 820 351
L 821 351
L 822 351
L 823 350
L 824 350
L 825 351
L 826 351
L 827 351
L 828 350
L 829 351
L 830 351
L 831 351
L 832 351
L 833 351
L 834 351
L 835 351
L 836 351
L 837 351
L 838 351
L 839 351
L 840 351
L 841 351
L 842 351
L 843 351
L 844 351
L 845 351
L 846 351
L 847 351
L 848 351
L 849 351
L 850 351
L 851 351
L 852 351
L 853 351
L 854 351
L 855 351
L 856 351
L 857 351
L 858 351
L 859 351
L 860 351
L 861 351
L 862 351
L 863 351
L 864 351
L 865 351
L 866 351
L 867 351
L 868 351
L 869 351
L 870 351
L 871 351
L 872 351
L 873 351
L 874 351
L 875 351
L 876 351
L 877 351
L 878 351
L 879 351
L 880 351
L 881 351
L 882 350
L 883 351
L 884 351
L 885 351
L 886 351
L 887 351
L 888 351
L 889 351
L 890 351
L 890 351
L 891 350
L 892 351
L 893 351
L 894 351
L 895 351
L 896 351
L 897 351
L 898 351
L 899 351
L 900 351
L 901 351
L 902 351
L 903 350
L 904 351
L 905 351
L 906 351
L 907 350
L 908 351
L 909 351
L 910 350
L 911 351
L 912 351
L 913 351
L 914 350
L 915 351
L 916 350
L 917 351
L 918 351
L 919 351
L 920 350
L 921 351
L 922 351
L 923 351
L 924 350
L 925 351
L 926 351
L 927 351
L 928 350
L 929 351
L 930 351
L 931 351
L 932 350
L 933 350
L 934 351
L 935 351
L 936 351
L 937 350
L 938 351
L 939 351
L 940 351
L 941 351
L 942 351
L 943 351
L 944 351
L 945 351
L 946 350
L 947 351
L 948 351
L 949 351
L 950 351
L 951 351
L 952 351
L 953 351
L 954 351
L 955 351
L 956 351
L 957 351
L 958 351
L 959 351
L 960 351
L 961 351
L 961 351" style="stroke-width:1;stroke:rgba(217,0,116,1.0);fill:none"/><text x="391" y="33" style="stroke-width:0;stroke:none;fill:rgba(51,51,51,1.0);font-size:23.0px;font-family:'Roboto Medium',sans-serif">Graz(Stadt) 19.09.2022</text><path  d="M 38 11
L 251 11
L 251 91
L 38 91
L 38 11" style="stroke-width:1;stroke:rgba(51,51,51,1.0);fill:rgba(255,255,255,1.0)"/><text x="43" y="26" style="stroke-width:0;stroke:none;fill:rgba(51,51,51,1.0);font-size:10.2px;font-family:'Roboto Medium',sans-serif">Sieben Tage Durschnitt Inzidenz Fälle</text><path  d="M 221 21
L 241 21" style="stroke-width:1;stroke:rgba(0,116,217,1.0);fill:none"/><text x="43" y="56" style="stroke-width:0;stroke:none;fill:rgba(51,51,51,1.0);font-size:10.2px;font-family:'Roboto Medium',sans-serif">Anzahl Faelle</text><path  d="M 110 51
L 241 51" style="stroke-width:1;stroke:rgba(0,217,101,1.0);fill:none"/><text x="43" y="86" style="stroke-width:0;stroke:none;fill:rgba(51,51,51,1.0);font-size:10.2px;font-family:'Roboto Medium',sans-serif">Anzahl Tot</text><path  d="M 98 81
L 241 81" style="stroke-width:1;stroke:rgba(217,0,116,1.0);fill:none"/></svg>