<svg xmlns="http://www.w3.org/2000/svg" xmlns:xlink="http://www.w3.org/1999/xlink" width="1024" height="400">\n<path  d="M 0 0
L 1024 0
L 1024 400
L 0 400
L 0 0" style="stroke-width:0;stroke:rgba(255,255,255,1.0);fill:rgba(255,255,255,1.0)"/><path  d="M 38 11
L 969 11
L 969 351
L 38 351
L 38 11" style="stroke-width:0;stroke:rgba(255,255,255,1.0);fill:rgba(255,255,255,1.0)"/><path  d="M 38 351
L 969 351" style="stroke-width:1;stroke:rgba(51,51,51,1.0);fill:none"/><path  d="M 38 351
L 38 356" style="stroke-width:1;stroke:rgba(51,51,51,1.0);fill:none"/><text x="5" y="373" style="stroke-width:0;stroke:none;fill:rgba(51,51,51,1.0);font-size:12.8px;font-family:'Roboto Medium',sans-serif">2020-02-26</text><path  d="M 155 351
L 155 356" style="stroke-width:1;stroke:rgba(51,51,51,1.0);fill:none"/><text x="122" y="373" style="stroke-width:0;stroke:none;fill:rgba(51,51,51,1.0);font-size:12.8px;font-family:'Roboto Medium',sans-serif">2020-04-16</text><path  d="M 271 351
L 271 356" style="stroke-width:1;stroke:rgba(51,51,51,1.0);fill:none"/><text x="238" y="373" style="stroke-width:0;stroke:none;fill:rgba(51,51,51,1.0);font-size:12.8px;font-family:'Roboto Medium',sans-serif">2020-06-05</text><path  d="M 388 351
L 388 356" style="stroke-width:1;stroke:rgba(51,51,51,1.0);fill:none"/><text x="355" y="373" style="stroke-width:0;stroke:none;fill:rgba(51,51,51,1.0);font-size:12.8px;font-family:'Roboto Medium',sans-serif">2020-07-25</text><path  d="M 504 351
L 504 356" style="stroke-width:1;stroke:rgba(51,51,51,1.0);fill:none"/><text x="471" y="373" style="stroke-width:0;stroke:none;fill:rgba(51,51,51,1.0);font-size:12.8px;font-family:'Roboto Medium',sans-serif">2020-09-14</text><path  d="M 620 351
L 620 356" style="stroke-width:1;stroke:rgba(51,51,51,1.0);fill:none"/><text x="587" y="373" style="stroke-width:0;stroke:none;fill:rgba(51,51,51,1.0);font-size:12.8px;font-family:'Roboto Medium',sans-serif">2020-11-03</text><path  d="M 737 351
L 737 356" style="stroke-width:1;stroke:rgba(51,51,51,1.0);fill:none"/><text x="704" y="373" style="stroke-width:0;stroke:none;fill:rgba(51,51,51,1.0);font-size:12.8px;font-family:'Roboto Medium',sans-serif">2020-12-23</text><path  d="M 853 351
L 853 356" style="stroke-width:1;stroke:rgba(51,51,51,1.0);fill:none"/><text x="820" y="373" style="stroke-width:0;stroke:none;fill:rgba(51,51,51,1.0);font-size:12.8px;font-family:'Roboto Medium',sans-serif">2021-02-11</text><path  d="M 969 351
L 969 356" style="stroke-width:1;stroke:rgba(51,51,51,1.0);fill:none"/><text x="936" y="373" style="stroke-width:0;stroke:none;fill:rgba(51,51,51,1.0);font-size:12.8px;font-family:'Roboto Medium',sans-serif">2021-04-03</text><text x="485" y="395" style="stroke-width:0;stroke:none;fill:rgba(51,51,51,1.0);font-size:12.8px;font-family:'Roboto Medium',sans-serif">Datum</text><path  d="M 970 351
L 970 11" style="stroke-width:1;stroke:rgba(51,51,51,1.0);fill:none"/><path  d="M 970 351
L 975 351" style="stroke-width:1;stroke:rgba(51,51,51,1.0);fill:none"/><text x="980" y="357" style="stroke-width:0;stroke:none;fill:rgba(51,51,51,1.0);font-size:12.8px;font-family:'Roboto Medium',sans-serif">0.00</text><path  d="M 970 308
L 975 308" style="stroke-width:1;stroke:rgba(51,51,51,1.0);fill:none"/><text x="980" y="314" style="stroke-width:0;stroke:none;fill:rgba(51,51,51,1.0);font-size:12.8px;font-family:'Roboto Medium',sans-serif">55.00</text><path  d="M 970 266
L 975 266" style="stroke-width:1;stroke:rgba(51,51,51,1.0);fill:none"/><text x="980" y="272" style="stroke-width:0;stroke:none;fill:rgba(51,51,51,1.0);font-size:12.8px;font-family:'Roboto Medium',sans-serif">110.00</text><path  d="M 970 223
L 975 223" style="stroke-width:1;stroke:rgba(51,51,51,1.0);fill:none"/><text x="980" y="229" style="stroke-width:0;stroke:none;fill:rgba(51,51,51,1.0);font-size:12.8px;font-family:'Roboto Medium',sans-serif">165.00</text><path  d="M 970 181
L 975 181" style="stroke-width:1;stroke:rgba(51,51,51,1.0);fill:none"/><text x="980" y="187" style="stroke-width:0;stroke:none;fill:rgba(51,51,51,1.0);font-size:12.8px;font-family:'Roboto Medium',sans-serif">220.00</text><path  d="M 970 138
L 975 138" style="stroke-width:1;stroke:rgba(51,51,51,1.0);fill:none"/><text x="980" y="144" style="stroke-width:0;stroke:none;fill:rgba(51,51,51,1.0);font-size:12.8px;font-family:'Roboto Medium',sans-serif">275.00</text><path  d="M 970 96
L 975 96" style="stroke-width:1;stroke:rgba(51,51,51,1.0);fill:none"/><text x="980" y="102" style="stroke-width:0;stroke:none;fill:rgba(51,51,51,1.0);font-size:12.8px;font-family:'Roboto Medium',sans-serif">330.00</text><path  d="M 970 53
L 975 53" style="stroke-width:1;stroke:rgba(51,51,51,1.0);fill:none"/><text x="980" y="59" style="stroke-width:0;stroke:none;fill:rgba(51,51,51,1.0);font-size:12.8px;font-family:'Roboto Medium',sans-serif">385.00</text><path  d="M 970 11
L 975 11" style="stroke-width:1;stroke:rgba(51,51,51,1.0);fill:none"/><text x="980" y="17" style="stroke-width:0;stroke:none;fill:rgba(51,51,51,1.0);font-size:12.8px;font-family:'Roboto Medium',sans-serif">440.00</text><path  d="M 38 351
L 41 351
L 43 351
L 45 351
L 48 351
L 50 350
L 52 350
L 55 350
L 57 350
L 59 350
L 62 350
L 64 350
L 66 350
L 69 350
L 71 350
L 73 348
L 76 347
L 78 345
L 80 344
L 83 342
L 85 339
L 87 336
L 89 334
L 92 331
L 94 329
L 96 328
L 99 326
L 101 327
L 103 326
L 106 326
L 108 326
L 110 328
L 113 327
L 115 324
L 117 322
L 120 322
L 122 324
L 124 321
L 127 318
L 129 321
L 131 324
L 133 325
L 136 326
L 138 326
L 140 330
L 143 335
L 145 335
L 147 335
L 150 337
L 152 339
L 154 339
L 157 340
L 159 341
L 161 341
L 164 344
L 166 345
L 168 344
L 171 345
L 173 347
L 175 345
L 177 344
L 180 343
L 182 343
L 184 343
L 187 344
L 189 344
L 191 346
L 194 347
L 196 349
L 198 349
L 201 349
L 203 349
L 205 349
L 208 349
L 210 349
L 212 349
L 215 349
L 217 350
L 219 350
L 221 351
L 224 350
L 226 350
L 228 350
L 231 350
L 233 350
L 235 350
L 238 350
L 240 350
L 242 350
L 245 350
L 247 350
L 249 350
L 252 350
L 254 350
L 256 350
L 259 351
L 261 350
L 263 350
L 265 350
L 268 349
L 270 349
L 272 349
L 275 349
L 277 349
L 279 349
L 282 349
L 284 349
L 286 350
L 289 350
L 291 350
L 293 350
L 296 350
L 298 350
L 300 350
L 303 349
L 305 348
L 307 348
L 309 348
L 312 348
L 314 349
L 316 348
L 319 349
L 321 349
L 323 348
L 326 348
L 328 346
L 330 346
L 333 344
L 335 344
L 337 343
L 340 343
L 342 343
L 344 344
L 347 343
L 349 345
L 351 345
L 353 346
L 356 346
L 358 345
L 360 345
L 363 344
L 365 344
L 367 343
L 370 343
L 372 342
L 374 343
L 377 345
L 379 345
L 381 345
L 384 346
L 386 347
L 388 347
L 391 347
L 393 347
L 395 347
L 397 347
L 400 347
L 402 347
L 404 347
L 407 348
L 409 347
L 411 347
L 414 346
L 416 346
L 418 347
L 421 347
L 423 346
L 425 345
L 428 343
L 430 343
L 432 341
L 435 340
L 437 338
L 439 337
L 441 335
L 444 335
L 446 335
L 448 333
L 451 333
L 453 333
L 455 334
L 458 334
L 460 332
L 462 329
L 465 329
L 467 329
L 469 327
L 472 324
L 474 326
L 476 322
L 479 324
L 481 324
L 483 325
L 485 327
L 488 330
L 490 327
L 492 332
L 495 327
L 497 325
L 499 321
L 502 320
L 504 316
L 506 315
L 509 315
L 511 317
L 513 319
L 516 319
L 518 317
L 520 316
L 523 317
L 525 319
L 527 323
L 529 319
L 532 322
L 534 321
L 536 324
L 539 326
L 541 327
L 543 325
L 546 331
L 548 328
L 550 328
L 553 328
L 555 329
L 557 326
L 560 323
L 562 322
L 564 323
L 567 326
L 569 323
L 571 317
L 573 315
L 576 314
L 578 306
L 580 303
L 583 295
L 585 288
L 587 280
L 590 268
L 592 255
L 594 246
L 597 230
L 599 229
L 601 223
L 604 217
L 606 205
L 608 183
L 611 169
L 613 160
L 615 142
L 617 137
L 620 104
L 622 88
L 624 71
L 627 48
L 629 42
L 631 36
L 634 15
L 636 19
L 638 18
L 641 24
L 643 37
L 645 48
L 648 47
L 650 62
L 652 48
L 655 72
L 657 85
L 659 86
L 661 91
L 664 105
L 666 108
L 668 136
L 671 130
L 673 137
L 675 152
L 678 134
L 680 133
L 682 141
L 685 146
L 687 151
L 689 157
L 692 152
L 694 176
L 696 181
L 699 187
L 701 196
L 703 206
L 705 217
L 708 218
L 710 223
L 712 218
L 715 224
L 717 222
L 719 219
L 722 222
L 724 234
L 726 233
L 729 249
L 731 246
L 733 251
L 736 243
L 738 243
L 740 258
L 743 264
L 745 261
L 747 261
L 749 264
L 752 270
L 754 272
L 756 269
L 759 267
L 761 262
L 763 259
L 766 259
L 768 268
L 770 272
L 773 265
L 775 267
L 777 270
L 780 278
L 782 280
L 784 279
L 787 278
L 789 281
L 791 282
L 793 291
L 796 294
L 798 295
L 800 294
L 803 293
L 805 292
L 807 291
L 810 288
L 812 285
L 814 288
L 817 292
L 819 292
L 821 291
L 824 289
L 826 288
L 828 286
L 831 289
L 833 288
L 835 291
L 837 296
L 840 298
L 842 299
L 844 304
L 847 298
L 849 301
L 851 297
L 854 292
L 856 282
L 858 277
L 861 261
L 863 261
L 865 245
L 868 236
L 870 224
L 872 227
L 875 225
L 877 233
L 879 240
L 881 238
L 884 253
L 886 255
L 888 245
L 891 254
L 893 259
L 895 248
L 898 261
L 900 259
L 902 250
L 905 256
L 907 251
L 909 241
L 912 247
L 914 235
L 916 227
L 919 234
L 921 236
L 923 235
L 925 241
L 928 244
L 930 242
L 932 234
L 935 237
L 937 238
L 939 237
L 942 230
L 944 223
L 946 234
L 949 239
L 951 249
L 953 244
L 956 230
L 958 236
L 960 241
L 963 243
L 965 243
L 967 234
L 969 231" style="stroke-width:1;stroke:rgba(0,116,217,1.0);fill:none"/><path  d="M 38 351
L 41 351
L 43 351
L 45 351
L 48 351
L 50 350
L 52 351
L 55 351
L 57 351
L 59 350
L 62 351
L 64 351
L 66 351
L 69 351
L 71 349
L 73 347
L 76 346
L 78 346
L 80 345
L 83 345
L 85 341
L 87 341
L 89 340
L 92 339
L 94 338
L 96 342
L 99 340
L 101 344
L 103 340
L 106 338
L 108 340
L 110 343
L 113 341
L 115 330
L 117 337
L 120 339
L 122 345
L 124 333
L 127 334
L 129 348
L 131 340
L 133 341
L 136 342
L 138 345
L 140 344
L 143 347
L 145 348
L 147 341
L 150 348
L 152 347
L 154 344
L 157 347
L 159 350
L 161 349
L 164 351
L 166 350
L 168 346
L 171 347
L 173 351
L 175 344
L 177 347
L 180 347
L 182 349
L 184 348
L 187 350
L 189 351
L 191 350
L 194 351
L 196 351
L 198 351
L 201 348
L 203 351
L 205 349
L 208 351
L 210 351
L 212 351
L 215 351
L 217 351
L 219 351
L 221 351
L 224 350
L 226 351
L 228 351
L 231 350
L 233 351
L 235 351
L 238 351
L 240 351
L 242 350
L 245 351
L 247 351
L 249 351
L 252 351
L 254 351
L 256 351
L 259 351
L 261 350
L 263 351
L 265 349
L 268 350
L 270 348
L 272 351
L 275 351
L 277 351
L 279 350
L 282 351
L 284 351
L 286 351
L 289 351
L 291 351
L 293 350
L 296 351
L 298 349
L 300 351
L 303 347
L 305 350
L 307 350
L 309 351
L 312 351
L 314 351
L 316 349
L 319 348
L 321 351
L 323 348
L 326 350
L 328 344
L 330 351
L 333 344
L 335 348
L 337 347
L 340 351
L 342 348
L 344 346
L 347 349
L 349 351
L 351 347
L 353 351
L 356 351
L 358 345
L 360 345
L 363 347
L 365 349
L 367 345
L 370 349
L 372 348
L 374 349
L 377 349
L 379 348
L 381 350
L 384 348
L 386 350
L 388 350
L 391 347
L 393 350
L 395 350
L 397 349
L 400 349
L 402 348
L 404 350
L 407 351
L 409 347
L 411 349
L 414 348
L 416 349
L 418 350
L 421 350
L 423 347
L 425 345
L 428 343
L 430 347
L 432 345
L 435 346
L 437 345
L 439 343
L 441 340
L 444 342
L 446 346
L 448 341
L 451 344
L 453 346
L 455 347
L 458 340
L 460 337
L 462 337
L 465 341
L 467 344
L 469 342
L 472 337
L 474 346
L 476 323
L 479 344
L 481 342
L 483 346
L 485 347
L 488 347
L 490 338
L 492 337
L 495 329
L 497 337
L 499 334
L 502 343
L 504 336
L 506 334
L 509 337
L 511 337
L 513 340
L 516 335
L 518 338
L 520 333
L 523 337
L 525 341
L 527 348
L 529 328
L 532 344
L 534 336
L 536 341
L 539 343
L 541 344
L 543 343
L 546 344
L 548 337
L 550 335
L 553 344
L 555 345
L 557 336
L 560 332
L 562 342
L 564 341
L 567 344
L 569 333
L 571 330
L 573 330
L 576 327
L 578 320
L 580 330
L 583 322
L 585 310
L 587 306
L 590 298
L 592 287
L 594 296
L 597 283
L 599 320
L 601 292
L 604 291
L 606 262
L 608 222
L 611 256
L 613 257
L 615 267
L 617 276
L 620 194
L 622 216
L 624 174
L 627 190
L 629 239
L 631 250
L 634 215
L 636 205
L 638 211
L 641 192
L 643 229
L 645 272
L 648 247
L 650 258
L 652 164
L 655 281
L 657 231
L 659 232
L 661 286
L 664 288
L 666 266
L 668 245
L 671 266
L 673 249
L 675 277
L 678 235
L 680 285
L 682 286
L 685 260
L 687 283
L 689 266
L 692 263
L 694 304
L 696 300
L 699 302
L 701 286
L 703 313
L 705 297
L 708 266
L 710 320
L 712 285
L 715 317
L 717 282
L 719 305
L 722 306
L 724 301
L 726 316
L 729 331
L 731 310
L 733 295
L 736 281
L 738 308
L 740 345
L 743 332
L 745 323
L 747 310
L 749 303
L 752 296
L 754 314
L 756 337
L 759 327
L 761 306
L 763 303
L 766 303
L 768 323
L 770 323
L 773 317
L 775 333
L 777 317
L 780 326
L 782 310
L 784 318
L 787 322
L 789 327
L 791 335
L 793 344
L 796 334
L 798 313
L 800 314
L 803 321
L 805 324
L 807 330
L 810 335
L 812 326
L 814 323
L 817 325
L 819 322
L 821 320
L 824 325
L 826 330
L 828 322
L 831 331
L 833 320
L 835 331
L 837 335
L 840 333
L 842 330
L 844 337
L 847 315
L 849 328
L 851 319
L 854 321
L 856 304
L 858 314
L 861 293
L 863 313
L 865 283
L 868 293
L 870 286
L 872 310
L 875 310
L 877 314
L 879 334
L 881 277
L 884 337
L 886 293
L 888 281
L 891 337
L 893 328
L 895 302
L 898 314
L 900 331
L 902 267
L 905 300
L 907 323
L 909 297
L 912 320
L 914 280
L 916 308
L 919 286
L 921 305
L 923 322
L 925 313
L 928 329
L 930 276
L 932 283
L 935 296
L 937 308
L 939 320
L 942 293
L 944 308
L 946 306
L 949 298
L 951 326
L 953 292
L 956 279
L 958 311
L 960 322
L 963 313
L 965 299
L 967 299
L 969 284" style="stroke-width:1;stroke:rgba(0,217,101,1.0);fill:none"/><path  d="M 38 351
L 41 351
L 43 351
L 45 351
L 48 351
L 50 351
L 52 351
L 55 351
L 57 351
L 59 351
L 62 351
L 64 351
L 66 351
L 69 351
L 71 351
L 73 351
L 76 351
L 78 351
L 80 351
L 83 351
L 85 351
L 87 351
L 89 351
L 92 351
L 94 351
L 96 351
L 99 351
L 101 350
L 103 350
L 106 350
L 108 350
L 110 351
L 113 351
L 115 350
L 117 350
L 120 351
L 122 350
L 124 349
L 127 350
L 129 350
L 131 350
L 133 350
L 136 350
L 138 350
L 140 351
L 143 351
L 145 349
L 147 349
L 150 350
L 152 349
L 154 350
L 157 350
L 159 350
L 161 349
L 164 350
L 166 350
L 168 351
L 171 351
L 173 349
L 175 351
L 177 349
L 180 351
L 182 350
L 184 350
L 187 351
L 189 351
L 191 351
L 194 351
L 196 351
L 198 351
L 201 351
L 203 351
L 205 351
L 208 350
L 210 351
L 212 351
L 215 351
L 217 351
L 219 351
L 221 351
L 224 351
L 226 351
L 228 351
L 231 351
L 233 351
L 235 351
L 238 351
L 240 351
L 242 351
L 245 351
L 247 351
L 249 351
L 252 351
L 254 351
L 256 351
L 259 351
L 261 351
L 263 351
L 265 351
L 268 351
L 270 351
L 272 351
L 275 351
L 277 351
L 279 351
L 282 351
L 284 351
L 286 351
L 289 351
L 291 350
L 293 351
L 296 351
L 298 351
L 300 351
L 303 350
L 305 351
L 307 351
L 309 351
L 312 351
L 314 351
L 316 351
L 319 351
L 321 351
L 323 351
L 326 351
L 328 351
L 330 351
L 333 351
L 335 351
L 337 351
L 340 351
L 342 351
L 344 351
L 347 351
L 349 351
L 351 351
L 353 351
L 356 351
L 358 351
L 360 351
L 363 351
L 365 351
L 367 351
L 370 351
L 372 351
L 374 351
L 377 351
L 379 351
L 381 351
L 384 351
L 386 350
L 388 351
L 391 351
L 393 351
L 395 351
L 397 351
L 400 351
L 402 351
L 404 351
L 407 351
L 409 351
L 411 351
L 414 351
L 416 351
L 418 351
L 421 351
L 423 351
L 425 351
L 428 351
L 430 351
L 432 351
L 435 351
L 437 351
L 439 351
L 441 351
L 444 351
L 446 351
L 448 351
L 451 351
L 453 351
L 455 351
L 458 351
L 460 351
L 462 351
L 465 351
L 467 351
L 469 351
L 472 351
L 474 351
L 476 351
L 479 351
L 481 351
L 483 351
L 485 351
L 488 351
L 490 351
L 492 351
L 495 351
L 497 351
L 499 351
L 502 351
L 504 351
L 506 351
L 509 350
L 511 350
L 513 351
L 516 351
L 518 351
L 520 350
L 523 350
L 525 351
L 527 350
L 529 351
L 532 351
L 534 348
L 536 351
L 539 351
L 541 351
L 543 351
L 546 351
L 548 351
L 550 351
L 553 350
L 555 351
L 557 351
L 560 351
L 562 351
L 564 350
L 567 351
L 569 351
L 571 351
L 573 351
L 576 351
L 578 350
L 580 351
L 583 351
L 585 351
L 587 351
L 590 351
L 592 351
L 594 351
L 597 351
L 599 350
L 601 350
L 604 350
L 606 350
L 608 351
L 611 351
L 613 347
L 615 349
L 617 350
L 620 351
L 622 349
L 624 350
L 627 351
L 629 351
L 631 350
L 634 347
L 636 350
L 638 348
L 641 347
L 643 350
L 645 348
L 648 349
L 650 350
L 652 348
L 655 348
L 657 351
L 659 350
L 661 349
L 664 349
L 666 349
L 668 347
L 671 348
L 673 349
L 675 348
L 678 347
L 680 347
L 682 351
L 685 348
L 687 347
L 689 349
L 692 349
L 694 347
L 696 346
L 699 345
L 701 346
L 703 351
L 705 348
L 708 345
L 710 348
L 712 350
L 715 348
L 717 348
L 719 347
L 722 348
L 724 349
L 726 350
L 729 348
L 731 349
L 733 351
L 736 350
L 738 350
L 740 349
L 743 348
L 745 349
L 747 349
L 749 350
L 752 348
L 754 351
L 756 350
L 759 349
L 761 351
L 763 350
L 766 350
L 768 351
L 770 349
L 773 351
L 775 351
L 777 351
L 780 348
L 782 350
L 784 349
L 787 351
L 789 350
L 791 351
L 793 350
L 796 349
L 798 349
L 800 350
L 803 350
L 805 349
L 807 349
L 810 351
L 812 350
L 814 349
L 817 350
L 819 350
L 821 350
L 824 350
L 826 350
L 828 349
L 831 350
L 833 351
L 835 351
L 837 349
L 840 350
L 842 351
L 844 351
L 847 351
L 849 351
L 851 350
L 854 350
L 856 350
L 858 351
L 861 351
L 863 350
L 865 349
L 868 351
L 870 350
L 872 351
L 875 351
L 877 348
L 879 351
L 881 351
L 884 351
L 886 349
L 888 350
L 891 350
L 893 349
L 895 350
L 898 351
L 900 350
L 902 351
L 905 350
L 907 350
L 909 351
L 912 351
L 914 351
L 916 351
L 919 351
L 921 351
L 923 351
L 925 350
L 928 351
L 930 350
L 932 348
L 935 351
L 937 351
L 939 351
L 942 351
L 944 350
L 946 351
L 949 351
L 951 351
L 953 351
L 956 350
L 958 351
L 960 351
L 963 351
L 965 351
L 967 351
L 969 351" style="stroke-width:1;stroke:rgba(217,0,116,1.0);fill:none"/><text x="391" y="33" style="stroke-width:0;stroke:none;fill:rgba(51,51,51,1.0);font-size:23.0px;font-family:'Roboto Medium',sans-serif">Graz(Stadt) 03.04.2021</text><path  d="M 38 11
L 251 11
L 251 91
L 38 91
L 38 11" style="stroke-width:1;stroke:rgba(51,51,51,1.0);fill:rgba(255,255,255,1.0)"/><text x="43" y="26" style="stroke-width:0;stroke:none;fill:rgba(51,51,51,1.0);font-size:10.2px;font-family:'Roboto Medium',sans-serif">Sieben Tage Durschnitt Inzidenz Fälle</text><path  d="M 221 21
L 241 21" style="stroke-width:1;stroke:rgba(0,116,217,1.0);fill:none"/><text x="43" y="56" style="stroke-width:0;stroke:none;fill:rgba(51,51,51,1.0);font-size:10.2px;font-family:'Roboto Medium',sans-serif">Anzahl Faelle</text><path  d="M 110 51
L 241 51" style="stroke-width:1;stroke:rgba(0,217,101,1.0);fill:none"/><text x="43" y="86" style="stroke-width:0;stroke:none;fill:rgba(51,51,51,1.0);font-size:10.2px;font-family:'Roboto Medium',sans-serif">Anzahl Tot</text><path  d="M 98 81
L 241 81" style="stroke-width:1;stroke:rgba(217,0,116,1.0);fill:none"/></svg>