<svg xmlns="http://www.w3.org/2000/svg" xmlns:xlink="http://www.w3.org/1999/xlink" width="1024" height="400">\n<path  d="M 0 0
L 1024 0
L 1024 400
L 0 400
L 0 0" style="stroke-width:0;stroke:rgba(255,255,255,1.0);fill:rgba(255,255,255,1.0)"/><path  d="M 38 11
L 969 11
L 969 351
L 38 351
L 38 11" style="stroke-width:0;stroke:rgba(255,255,255,1.0);fill:rgba(255,255,255,1.0)"/><path  d="M 38 351
L 969 351" style="stroke-width:1;stroke:rgba(51,51,51,1.0);fill:none"/><path  d="M 38 351
L 38 356" style="stroke-width:1;stroke:rgba(51,51,51,1.0);fill:none"/><text x="5" y="373" style="stroke-width:0;stroke:none;fill:rgba(51,51,51,1.0);font-size:12.8px;font-family:'Roboto Medium',sans-serif">2020-02-26</text><path  d="M 155 351
L 155 356" style="stroke-width:1;stroke:rgba(51,51,51,1.0);fill:none"/><text x="122" y="373" style="stroke-width:0;stroke:none;fill:rgba(51,51,51,1.0);font-size:12.8px;font-family:'Roboto Medium',sans-serif">2020-04-19</text><path  d="M 271 351
L 271 356" style="stroke-width:1;stroke:rgba(51,51,51,1.0);fill:none"/><text x="238" y="373" style="stroke-width:0;stroke:none;fill:rgba(51,51,51,1.0);font-size:12.8px;font-family:'Roboto Medium',sans-serif">2020-06-11</text><path  d="M 388 351
L 388 356" style="stroke-width:1;stroke:rgba(51,51,51,1.0);fill:none"/><text x="355" y="373" style="stroke-width:0;stroke:none;fill:rgba(51,51,51,1.0);font-size:12.8px;font-family:'Roboto Medium',sans-serif">2020-08-03</text><path  d="M 504 351
L 504 356" style="stroke-width:1;stroke:rgba(51,51,51,1.0);fill:none"/><text x="471" y="373" style="stroke-width:0;stroke:none;fill:rgba(51,51,51,1.0);font-size:12.8px;font-family:'Roboto Medium',sans-serif">2020-09-25</text><path  d="M 620 351
L 620 356" style="stroke-width:1;stroke:rgba(51,51,51,1.0);fill:none"/><text x="587" y="373" style="stroke-width:0;stroke:none;fill:rgba(51,51,51,1.0);font-size:12.8px;font-family:'Roboto Medium',sans-serif">2020-11-17</text><path  d="M 737 351
L 737 356" style="stroke-width:1;stroke:rgba(51,51,51,1.0);fill:none"/><text x="704" y="373" style="stroke-width:0;stroke:none;fill:rgba(51,51,51,1.0);font-size:12.8px;font-family:'Roboto Medium',sans-serif">2021-01-09</text><path  d="M 853 351
L 853 356" style="stroke-width:1;stroke:rgba(51,51,51,1.0);fill:none"/><text x="820" y="373" style="stroke-width:0;stroke:none;fill:rgba(51,51,51,1.0);font-size:12.8px;font-family:'Roboto Medium',sans-serif">2021-03-03</text><path  d="M 969 351
L 969 356" style="stroke-width:1;stroke:rgba(51,51,51,1.0);fill:none"/><text x="936" y="373" style="stroke-width:0;stroke:none;fill:rgba(51,51,51,1.0);font-size:12.8px;font-family:'Roboto Medium',sans-serif">2021-04-25</text><text x="485" y="395" style="stroke-width:0;stroke:none;fill:rgba(51,51,51,1.0);font-size:12.8px;font-family:'Roboto Medium',sans-serif">Datum</text><path  d="M 970 351
L 970 11" style="stroke-width:1;stroke:rgba(51,51,51,1.0);fill:none"/><path  d="M 970 351
L 975 351" style="stroke-width:1;stroke:rgba(51,51,51,1.0);fill:none"/><text x="980" y="357" style="stroke-width:0;stroke:none;fill:rgba(51,51,51,1.0);font-size:12.8px;font-family:'Roboto Medium',sans-serif">0.00</text><path  d="M 970 307
L 975 307" style="stroke-width:1;stroke:rgba(51,51,51,1.0);fill:none"/><text x="980" y="313" style="stroke-width:0;stroke:none;fill:rgba(51,51,51,1.0);font-size:12.8px;font-family:'Roboto Medium',sans-serif">52.00</text><path  d="M 970 265
L 975 265" style="stroke-width:1;stroke:rgba(51,51,51,1.0);fill:none"/><text x="980" y="271" style="stroke-width:0;stroke:none;fill:rgba(51,51,51,1.0);font-size:12.8px;font-family:'Roboto Medium',sans-serif">103.00</text><path  d="M 970 223
L 975 223" style="stroke-width:1;stroke:rgba(51,51,51,1.0);fill:none"/><text x="980" y="229" style="stroke-width:0;stroke:none;fill:rgba(51,51,51,1.0);font-size:12.8px;font-family:'Roboto Medium',sans-serif">154.00</text><path  d="M 970 181
L 975 181" style="stroke-width:1;stroke:rgba(51,51,51,1.0);fill:none"/><text x="980" y="187" style="stroke-width:0;stroke:none;fill:rgba(51,51,51,1.0);font-size:12.8px;font-family:'Roboto Medium',sans-serif">205.00</text><path  d="M 970 137
L 975 137" style="stroke-width:1;stroke:rgba(51,51,51,1.0);fill:none"/><text x="980" y="143" style="stroke-width:0;stroke:none;fill:rgba(51,51,51,1.0);font-size:12.8px;font-family:'Roboto Medium',sans-serif">257.00</text><path  d="M 970 95
L 975 95" style="stroke-width:1;stroke:rgba(51,51,51,1.0);fill:none"/><text x="980" y="101" style="stroke-width:0;stroke:none;fill:rgba(51,51,51,1.0);font-size:12.8px;font-family:'Roboto Medium',sans-serif">308.00</text><path  d="M 970 53
L 975 53" style="stroke-width:1;stroke:rgba(51,51,51,1.0);fill:none"/><text x="980" y="59" style="stroke-width:0;stroke:none;fill:rgba(51,51,51,1.0);font-size:12.8px;font-family:'Roboto Medium',sans-serif">359.00</text><path  d="M 970 11
L 975 11" style="stroke-width:1;stroke:rgba(51,51,51,1.0);fill:none"/><text x="980" y="17" style="stroke-width:0;stroke:none;fill:rgba(51,51,51,1.0);font-size:12.8px;font-family:'Roboto Medium',sans-serif">410.00</text><path  d="M 38 351
L 41 351
L 43 351
L 45 351
L 47 351
L 49 351
L 52 351
L 54 351
L 56 351
L 58 351
L 60 351
L 63 350
L 65 350
L 67 350
L 69 349
L 71 348
L 74 347
L 76 344
L 78 344
L 80 342
L 82 341
L 85 336
L 87 334
L 89 333
L 91 331
L 93 329
L 96 329
L 98 328
L 100 327
L 102 326
L 104 324
L 107 328
L 109 324
L 111 322
L 113 319
L 115 321
L 118 323
L 120 319
L 122 320
L 124 324
L 126 323
L 129 327
L 131 324
L 133 327
L 135 327
L 137 323
L 140 324
L 142 328
L 144 327
L 146 328
L 148 329
L 150 334
L 153 337
L 155 338
L 157 338
L 159 340
L 161 343
L 164 341
L 166 342
L 168 344
L 170 343
L 172 343
L 175 343
L 177 345
L 179 345
L 181 346
L 183 346
L 186 347
L 188 349
L 190 349
L 192 349
L 194 350
L 197 350
L 199 350
L 201 350
L 203 350
L 205 350
L 208 351
L 210 350
L 212 350
L 214 349
L 216 349
L 219 349
L 221 348
L 223 348
L 225 349
L 227 349
L 230 349
L 232 349
L 234 349
L 236 351
L 238 351
L 241 351
L 243 351
L 245 351
L 247 351
L 249 351
L 251 351
L 254 350
L 256 350
L 258 350
L 260 350
L 262 350
L 265 350
L 267 350
L 269 351
L 271 351
L 273 351
L 276 351
L 278 351
L 280 351
L 282 351
L 284 351
L 287 351
L 289 351
L 291 351
L 293 351
L 295 351
L 298 351
L 300 351
L 302 351
L 304 351
L 306 351
L 309 351
L 311 351
L 313 351
L 315 351
L 317 351
L 320 351
L 322 351
L 324 351
L 326 351
L 328 350
L 331 350
L 333 350
L 335 349
L 337 349
L 339 349
L 342 349
L 344 349
L 346 349
L 348 348
L 350 348
L 352 348
L 355 348
L 357 348
L 359 347
L 361 347
L 363 347
L 366 346
L 368 346
L 370 344
L 372 345
L 374 346
L 377 346
L 379 347
L 381 348
L 383 348
L 385 350
L 388 350
L 390 350
L 392 351
L 394 351
L 396 351
L 399 351
L 401 351
L 403 350
L 405 349
L 407 347
L 410 347
L 412 345
L 414 344
L 416 343
L 418 342
L 421 341
L 423 342
L 425 340
L 427 342
L 429 341
L 432 341
L 434 341
L 436 340
L 438 340
L 440 341
L 443 340
L 445 341
L 447 340
L 449 342
L 451 344
L 453 343
L 456 343
L 458 345
L 460 345
L 462 344
L 464 343
L 467 341
L 469 339
L 471 339
L 473 333
L 475 332
L 478 332
L 480 331
L 482 330
L 484 331
L 486 330
L 489 335
L 491 329
L 493 328
L 495 330
L 497 332
L 500 331
L 502 334
L 504 329
L 506 334
L 508 333
L 511 332
L 513 330
L 515 326
L 517 322
L 519 325
L 522 326
L 524 324
L 526 323
L 528 321
L 530 326
L 533 327
L 535 325
L 537 322
L 539 323
L 541 320
L 544 319
L 546 315
L 548 313
L 550 311
L 552 310
L 555 302
L 557 297
L 559 293
L 561 279
L 563 260
L 565 236
L 568 228
L 570 227
L 572 222
L 574 216
L 576 203
L 579 196
L 581 188
L 583 174
L 585 157
L 587 154
L 590 127
L 592 109
L 594 76
L 596 61
L 598 46
L 601 42
L 603 14
L 605 29
L 607 22
L 609 23
L 612 26
L 614 33
L 616 43
L 618 60
L 620 20
L 623 27
L 625 45
L 627 51
L 629 55
L 631 60
L 634 60
L 636 79
L 638 89
L 640 97
L 642 109
L 645 98
L 647 95
L 649 103
L 651 113
L 653 115
L 656 91
L 658 89
L 660 103
L 662 116
L 664 113
L 666 128
L 669 158
L 671 189
L 673 199
L 675 206
L 677 180
L 680 190
L 682 188
L 684 177
L 686 191
L 688 188
L 691 193
L 693 218
L 695 220
L 697 232
L 699 226
L 702 225
L 704 251
L 706 257
L 708 253
L 710 251
L 713 236
L 715 241
L 717 242
L 719 234
L 721 236
L 724 237
L 726 228
L 728 234
L 730 236
L 732 237
L 735 234
L 737 230
L 739 227
L 741 244
L 743 253
L 746 262
L 748 271
L 750 275
L 752 277
L 754 288
L 757 290
L 759 297
L 761 292
L 763 290
L 765 282
L 767 279
L 770 278
L 772 272
L 774 271
L 776 273
L 778 271
L 781 276
L 783 276
L 785 276
L 787 278
L 789 274
L 792 263
L 794 263
L 796 265
L 798 272
L 800 267
L 803 254
L 805 247
L 807 252
L 809 250
L 811 257
L 814 252
L 816 256
L 818 260
L 820 275
L 822 264
L 825 261
L 827 245
L 829 240
L 831 237
L 833 235
L 836 230
L 838 225
L 840 237
L 842 238
L 844 232
L 847 229
L 849 236
L 851 229
L 853 253
L 855 249
L 858 248
L 860 258
L 862 262
L 864 258
L 866 261
L 868 252
L 871 249
L 873 245
L 875 239
L 877 240
L 879 239
L 882 246
L 884 237
L 886 228
L 888 219
L 890 212
L 893 210
L 895 210
L 897 198
L 899 207
L 901 203
L 904 229
L 906 236
L 908 208
L 910 205
L 912 218
L 915 221
L 917 216
L 919 207
L 921 201
L 923 219
L 926 229
L 928 214
L 930 212
L 932 221
L 934 220
L 937 231
L 939 243
L 941 236
L 943 238
L 945 238
L 948 240
L 950 238
L 952 225
L 954 215
L 956 214
L 959 210
L 961 207
L 963 202
L 965 207
L 967 217
L 969 220" style="stroke-width:1;stroke:rgba(0,116,217,1.0);fill:none"/><path  d="M 38 351
L 41 351
L 43 351
L 45 351
L 47 351
L 49 351
L 52 351
L 54 351
L 56 351
L 58 351
L 60 351
L 63 350
L 65 351
L 67 351
L 69 350
L 71 348
L 74 349
L 76 346
L 78 351
L 80 347
L 82 349
L 85 342
L 87 345
L 89 348
L 91 342
L 93 347
L 96 346
L 98 347
L 100 341
L 102 343
L 104 346
L 107 348
L 109 341
L 111 343
L 113 342
L 115 346
L 118 346
L 120 340
L 122 350
L 124 346
L 126 341
L 129 349
L 131 341
L 133 349
L 135 341
L 137 343
L 140 348
L 142 348
L 144 346
L 146 343
L 148 351
L 150 349
L 153 348
L 155 350
L 157 348
L 159 350
L 161 347
L 164 348
L 166 350
L 168 351
L 170 348
L 172 348
L 175 350
L 177 351
L 179 349
L 181 351
L 183 351
L 186 351
L 188 351
L 190 351
L 192 350
L 194 351
L 197 351
L 199 351
L 201 351
L 203 351
L 205 351
L 208 351
L 210 350
L 212 351
L 214 350
L 216 351
L 219 351
L 221 349
L 223 351
L 225 351
L 227 351
L 230 351
L 232 351
L 234 351
L 236 351
L 238 351
L 241 351
L 243 351
L 245 351
L 247 351
L 249 351
L 251 351
L 254 350
L 256 351
L 258 351
L 260 351
L 262 351
L 265 351
L 267 351
L 269 351
L 271 351
L 273 351
L 276 351
L 278 351
L 280 351
L 282 351
L 284 351
L 287 351
L 289 351
L 291 351
L 293 351
L 295 351
L 298 351
L 300 351
L 302 351
L 304 351
L 306 351
L 309 351
L 311 351
L 313 351
L 315 351
L 317 351
L 320 351
L 322 351
L 324 351
L 326 351
L 328 350
L 331 351
L 333 351
L 335 350
L 337 351
L 339 350
L 342 351
L 344 351
L 346 350
L 348 349
L 350 351
L 352 350
L 355 351
L 357 350
L 359 349
L 361 350
L 363 349
L 366 349
L 368 351
L 370 347
L 372 351
L 374 351
L 377 350
L 379 351
L 381 351
L 383 351
L 385 351
L 388 351
L 390 351
L 392 351
L 394 351
L 396 351
L 399 351
L 401 351
L 403 350
L 405 350
L 407 346
L 410 351
L 412 347
L 414 349
L 416 349
L 418 349
L 421 348
L 423 348
L 425 347
L 427 351
L 429 347
L 432 350
L 434 348
L 436 346
L 438 349
L 440 349
L 443 348
L 445 349
L 447 349
L 449 351
L 451 349
L 453 348
L 456 349
L 458 351
L 460 349
L 462 348
L 464 348
L 467 346
L 469 346
L 471 348
L 473 342
L 475 346
L 478 349
L 480 346
L 482 345
L 484 347
L 486 346
L 489 350
L 491 338
L 493 347
L 495 349
L 497 349
L 500 345
L 502 351
L 504 341
L 506 346
L 508 346
L 511 347
L 513 346
L 515 338
L 517 344
L 519 346
L 522 347
L 524 344
L 526 346
L 528 343
L 530 346
L 533 345
L 535 344
L 537 342
L 539 346
L 541 340
L 544 341
L 546 340
L 548 342
L 550 341
L 552 341
L 555 334
L 557 331
L 559 335
L 561 319
L 563 312
L 565 302
L 568 329
L 570 332
L 572 323
L 574 325
L 576 299
L 579 302
L 581 289
L 583 307
L 585 306
L 587 320
L 590 282
L 592 272
L 594 250
L 596 266
L 598 283
L 601 299
L 603 277
L 605 304
L 607 261
L 609 252
L 612 271
L 614 295
L 616 314
L 618 303
L 620 242
L 623 272
L 625 280
L 627 280
L 629 301
L 631 323
L 634 303
L 636 271
L 638 287
L 640 292
L 642 299
L 645 284
L 647 318
L 649 317
L 651 286
L 653 289
L 656 256
L 658 295
L 660 307
L 662 339
L 664 312
L 666 309
L 669 336
L 671 305
L 673 311
L 675 317
L 677 298
L 680 327
L 682 306
L 684 319
L 686 326
L 688 307
L 691 324
L 693 338
L 695 331
L 697 324
L 699 309
L 702 325
L 704 347
L 706 334
L 708 332
L 710 326
L 713 301
L 715 317
L 717 326
L 719 334
L 721 337
L 724 334
L 726 312
L 728 310
L 730 321
L 732 327
L 735 329
L 737 332
L 739 328
L 741 339
L 743 325
L 746 336
L 748 341
L 750 335
L 752 336
L 754 345
L 757 342
L 759 336
L 761 328
L 763 338
L 765 321
L 767 332
L 770 343
L 772 332
L 774 335
L 776 331
L 778 335
L 781 328
L 783 333
L 785 342
L 787 336
L 789 328
L 792 315
L 794 334
L 796 331
L 798 344
L 800 334
L 803 317
L 805 317
L 807 323
L 809 330
L 811 343
L 814 336
L 816 341
L 818 323
L 820 340
L 822 307
L 825 325
L 827 318
L 829 327
L 831 336
L 833 320
L 836 332
L 838 300
L 840 344
L 842 320
L 844 317
L 847 331
L 849 331
L 851 321
L 853 337
L 855 337
L 858 318
L 860 333
L 862 337
L 864 324
L 866 327
L 868 322
L 871 333
L 873 312
L 875 323
L 877 339
L 879 323
L 882 337
L 884 308
L 886 319
L 888 298
L 890 312
L 893 336
L 895 324
L 897 318
L 899 322
L 901 313
L 904 339
L 906 323
L 908 292
L 910 320
L 912 337
L 915 327
L 917 306
L 919 324
L 921 315
L 923 319
L 926 336
L 928 313
L 930 324
L 932 320
L 934 322
L 937 333
L 939 337
L 941 325
L 943 317
L 945 324
L 948 322
L 950 319
L 952 313
L 954 321
L 956 323
L 959 312
L 961 318
L 963 316
L 965 326
L 967 329
L 969 326" style="stroke-width:1;stroke:rgba(0,217,101,1.0);fill:none"/><path  d="M 38 351
L 41 351
L 43 351
L 45 351
L 47 351
L 49 351
L 52 351
L 54 351
L 56 351
L 58 351
L 60 351
L 63 351
L 65 351
L 67 351
L 69 351
L 71 351
L 74 351
L 76 351
L 78 351
L 80 351
L 82 350
L 85 351
L 87 351
L 89 351
L 91 351
L 93 351
L 96 351
L 98 350
L 100 351
L 102 351
L 104 350
L 107 351
L 109 350
L 111 349
L 113 350
L 115 351
L 118 350
L 120 350
L 122 351
L 124 348
L 126 350
L 129 350
L 131 351
L 133 350
L 135 349
L 137 350
L 140 350
L 142 348
L 144 351
L 146 351
L 148 349
L 150 350
L 153 350
L 155 351
L 157 349
L 159 351
L 161 350
L 164 351
L 166 351
L 168 349
L 170 351
L 172 351
L 175 349
L 177 350
L 179 351
L 181 351
L 183 351
L 186 351
L 188 351
L 190 351
L 192 351
L 194 351
L 197 351
L 199 350
L 201 351
L 203 351
L 205 351
L 208 351
L 210 351
L 212 351
L 214 351
L 216 351
L 219 351
L 221 351
L 223 351
L 225 351
L 227 351
L 230 351
L 232 351
L 234 351
L 236 351
L 238 351
L 241 351
L 243 351
L 245 351
L 247 351
L 249 351
L 251 351
L 254 351
L 256 351
L 258 351
L 260 351
L 262 351
L 265 351
L 267 351
L 269 351
L 271 351
L 273 351
L 276 351
L 278 351
L 280 351
L 282 351
L 284 351
L 287 351
L 289 351
L 291 351
L 293 351
L 295 351
L 298 351
L 300 351
L 302 351
L 304 351
L 306 351
L 309 351
L 311 351
L 313 351
L 315 351
L 317 351
L 320 351
L 322 351
L 324 351
L 326 351
L 328 351
L 331 351
L 333 351
L 335 351
L 337 351
L 339 351
L 342 351
L 344 351
L 346 351
L 348 351
L 350 351
L 352 351
L 355 351
L 357 351
L 359 351
L 361 351
L 363 351
L 366 351
L 368 351
L 370 351
L 372 351
L 374 351
L 377 351
L 379 351
L 381 351
L 383 351
L 385 351
L 388 351
L 390 351
L 392 351
L 394 351
L 396 351
L 399 351
L 401 351
L 403 351
L 405 351
L 407 351
L 410 351
L 412 351
L 414 351
L 416 351
L 418 351
L 421 351
L 423 351
L 425 351
L 427 350
L 429 351
L 432 351
L 434 351
L 436 351
L 438 351
L 440 351
L 443 351
L 445 351
L 447 351
L 449 351
L 451 351
L 453 351
L 456 351
L 458 351
L 460 351
L 462 351
L 464 351
L 467 351
L 469 351
L 471 351
L 473 351
L 475 351
L 478 351
L 480 351
L 482 351
L 484 351
L 486 351
L 489 351
L 491 351
L 493 351
L 495 351
L 497 351
L 500 351
L 502 351
L 504 351
L 506 351
L 508 351
L 511 351
L 513 351
L 515 351
L 517 351
L 519 351
L 522 351
L 524 351
L 526 350
L 528 350
L 530 351
L 533 351
L 535 351
L 537 351
L 539 351
L 541 350
L 544 350
L 546 351
L 548 350
L 550 351
L 552 351
L 555 351
L 557 351
L 559 350
L 561 348
L 563 350
L 565 351
L 568 350
L 570 351
L 572 350
L 574 351
L 576 350
L 579 351
L 581 351
L 583 350
L 585 351
L 587 349
L 590 348
L 592 349
L 594 349
L 596 349
L 598 349
L 601 351
L 603 349
L 605 347
L 607 347
L 609 347
L 612 350
L 614 349
L 616 349
L 618 349
L 620 347
L 623 351
L 625 351
L 627 350
L 629 350
L 631 349
L 634 348
L 636 350
L 638 349
L 640 346
L 642 348
L 645 346
L 647 350
L 649 350
L 651 349
L 653 344
L 656 349
L 658 348
L 660 347
L 662 348
L 664 347
L 666 350
L 669 349
L 671 351
L 673 346
L 675 349
L 677 350
L 680 349
L 682 349
L 684 347
L 686 350
L 688 348
L 691 349
L 693 351
L 695 350
L 697 348
L 699 345
L 702 347
L 704 349
L 706 350
L 708 348
L 710 348
L 713 351
L 715 350
L 717 350
L 719 349
L 721 350
L 724 351
L 726 350
L 728 351
L 730 351
L 732 349
L 735 350
L 737 350
L 739 350
L 741 351
L 743 351
L 746 350
L 748 350
L 750 351
L 752 350
L 754 350
L 757 351
L 759 350
L 761 351
L 763 351
L 765 351
L 767 349
L 770 351
L 772 351
L 774 348
L 776 351
L 778 351
L 781 351
L 783 351
L 785 351
L 787 350
L 789 351
L 792 350
L 794 348
L 796 351
L 798 351
L 800 351
L 803 351
L 805 349
L 807 350
L 809 351
L 811 350
L 814 351
L 816 351
L 818 351
L 820 351
L 822 351
L 825 350
L 827 351
L 829 351
L 831 351
L 833 350
L 836 351
L 838 351
L 840 351
L 842 350
L 844 351
L 847 351
L 849 351
L 851 351
L 853 351
L 855 351
L 858 351
L 860 351
L 862 351
L 864 351
L 866 351
L 868 351
L 871 351
L 873 351
L 875 351
L 877 351
L 879 351
L 882 350
L 884 350
L 886 350
L 888 351
L 890 351
L 893 351
L 895 350
L 897 351
L 899 351
L 901 349
L 904 351
L 906 349
L 908 350
L 910 351
L 912 351
L 915 351
L 917 351
L 919 350
L 921 351
L 923 351
L 926 351
L 928 351
L 930 350
L 932 351
L 934 351
L 937 350
L 939 351
L 941 351
L 943 350
L 945 351
L 948 351
L 950 350
L 952 351
L 954 350
L 956 351
L 959 351
L 961 351
L 963 350
L 965 351
L 967 350
L 969 351" style="stroke-width:1;stroke:rgba(217,0,116,1.0);fill:none"/><text x="367" y="33" style="stroke-width:0;stroke:none;fill:rgba(51,51,51,1.0);font-size:23.0px;font-family:'Roboto Medium',sans-serif">Graz-Umgebung 25.04.2021</text><path  d="M 38 11
L 251 11
L 251 91
L 38 91
L 38 11" style="stroke-width:1;stroke:rgba(51,51,51,1.0);fill:rgba(255,255,255,1.0)"/><text x="43" y="26" style="stroke-width:0;stroke:none;fill:rgba(51,51,51,1.0);font-size:10.2px;font-family:'Roboto Medium',sans-serif">Sieben Tage Durschnitt Inzidenz Fälle</text><path  d="M 221 21
L 241 21" style="stroke-width:1;stroke:rgba(0,116,217,1.0);fill:none"/><text x="43" y="56" style="stroke-width:0;stroke:none;fill:rgba(51,51,51,1.0);font-size:10.2px;font-family:'Roboto Medium',sans-serif">Anzahl Faelle</text><path  d="M 110 51
L 241 51" style="stroke-width:1;stroke:rgba(0,217,101,1.0);fill:none"/><text x="43" y="86" style="stroke-width:0;stroke:none;fill:rgba(51,51,51,1.0);font-size:10.2px;font-family:'Roboto Medium',sans-serif">Anzahl Tot</text><path  d="M 98 81
L 241 81" style="stroke-width:1;stroke:rgba(217,0,116,1.0);fill:none"/></svg>