<svg xmlns="http://www.w3.org/2000/svg" xmlns:xlink="http://www.w3.org/1999/xlink" width="1024" height="400">\n<path  d="M 0 0
L 1024 0
L 1024 400
L 0 400
L 0 0" style="stroke-width:0;stroke:rgba(255,255,255,1.0);fill:rgba(255,255,255,1.0)"/><path  d="M 38 11
L 969 11
L 969 351
L 38 351
L 38 11" style="stroke-width:0;stroke:rgba(255,255,255,1.0);fill:rgba(255,255,255,1.0)"/><path  d="M 38 351
L 969 351" style="stroke-width:1;stroke:rgba(51,51,51,1.0);fill:none"/><path  d="M 38 351
L 38 356" style="stroke-width:1;stroke:rgba(51,51,51,1.0);fill:none"/><text x="5" y="373" style="stroke-width:0;stroke:none;fill:rgba(51,51,51,1.0);font-size:12.8px;font-family:'Roboto Medium',sans-serif">2020-02-26</text><path  d="M 155 351
L 155 356" style="stroke-width:1;stroke:rgba(51,51,51,1.0);fill:none"/><text x="122" y="373" style="stroke-width:0;stroke:none;fill:rgba(51,51,51,1.0);font-size:12.8px;font-family:'Roboto Medium',sans-serif">2020-05-20</text><path  d="M 271 351
L 271 356" style="stroke-width:1;stroke:rgba(51,51,51,1.0);fill:none"/><text x="238" y="373" style="stroke-width:0;stroke:none;fill:rgba(51,51,51,1.0);font-size:12.8px;font-family:'Roboto Medium',sans-serif">2020-08-12</text><path  d="M 388 351
L 388 356" style="stroke-width:1;stroke:rgba(51,51,51,1.0);fill:none"/><text x="355" y="373" style="stroke-width:0;stroke:none;fill:rgba(51,51,51,1.0);font-size:12.8px;font-family:'Roboto Medium',sans-serif">2020-11-05</text><path  d="M 504 351
L 504 356" style="stroke-width:1;stroke:rgba(51,51,51,1.0);fill:none"/><text x="471" y="373" style="stroke-width:0;stroke:none;fill:rgba(51,51,51,1.0);font-size:12.8px;font-family:'Roboto Medium',sans-serif">2021-01-28</text><path  d="M 620 351
L 620 356" style="stroke-width:1;stroke:rgba(51,51,51,1.0);fill:none"/><text x="587" y="373" style="stroke-width:0;stroke:none;fill:rgba(51,51,51,1.0);font-size:12.8px;font-family:'Roboto Medium',sans-serif">2021-04-22</text><path  d="M 737 351
L 737 356" style="stroke-width:1;stroke:rgba(51,51,51,1.0);fill:none"/><text x="704" y="373" style="stroke-width:0;stroke:none;fill:rgba(51,51,51,1.0);font-size:12.8px;font-family:'Roboto Medium',sans-serif">2021-07-16</text><path  d="M 853 351
L 853 356" style="stroke-width:1;stroke:rgba(51,51,51,1.0);fill:none"/><text x="820" y="373" style="stroke-width:0;stroke:none;fill:rgba(51,51,51,1.0);font-size:12.8px;font-family:'Roboto Medium',sans-serif">2021-10-08</text><path  d="M 969 351
L 969 356" style="stroke-width:1;stroke:rgba(51,51,51,1.0);fill:none"/><text x="936" y="373" style="stroke-width:0;stroke:none;fill:rgba(51,51,51,1.0);font-size:12.8px;font-family:'Roboto Medium',sans-serif">2022-01-01</text><text x="485" y="395" style="stroke-width:0;stroke:none;fill:rgba(51,51,51,1.0);font-size:12.8px;font-family:'Roboto Medium',sans-serif">Datum</text><path  d="M 970 351
L 970 11" style="stroke-width:1;stroke:rgba(51,51,51,1.0);fill:none"/><path  d="M 970 351
L 975 351" style="stroke-width:1;stroke:rgba(51,51,51,1.0);fill:none"/><text x="980" y="357" style="stroke-width:0;stroke:none;fill:rgba(51,51,51,1.0);font-size:12.8px;font-family:'Roboto Medium',sans-serif">0.00</text><path  d="M 970 308
L 975 308" style="stroke-width:1;stroke:rgba(51,51,51,1.0);fill:none"/><text x="980" y="314" style="stroke-width:0;stroke:none;fill:rgba(51,51,51,1.0);font-size:12.8px;font-family:'Roboto Medium',sans-serif">110.00</text><path  d="M 970 266
L 975 266" style="stroke-width:1;stroke:rgba(51,51,51,1.0);fill:none"/><text x="980" y="272" style="stroke-width:0;stroke:none;fill:rgba(51,51,51,1.0);font-size:12.8px;font-family:'Roboto Medium',sans-serif">220.00</text><path  d="M 970 223
L 975 223" style="stroke-width:1;stroke:rgba(51,51,51,1.0);fill:none"/><text x="980" y="229" style="stroke-width:0;stroke:none;fill:rgba(51,51,51,1.0);font-size:12.8px;font-family:'Roboto Medium',sans-serif">330.00</text><path  d="M 970 181
L 975 181" style="stroke-width:1;stroke:rgba(51,51,51,1.0);fill:none"/><text x="980" y="187" style="stroke-width:0;stroke:none;fill:rgba(51,51,51,1.0);font-size:12.8px;font-family:'Roboto Medium',sans-serif">440.00</text><path  d="M 970 138
L 975 138" style="stroke-width:1;stroke:rgba(51,51,51,1.0);fill:none"/><text x="980" y="144" style="stroke-width:0;stroke:none;fill:rgba(51,51,51,1.0);font-size:12.8px;font-family:'Roboto Medium',sans-serif">550.00</text><path  d="M 970 96
L 975 96" style="stroke-width:1;stroke:rgba(51,51,51,1.0);fill:none"/><text x="980" y="102" style="stroke-width:0;stroke:none;fill:rgba(51,51,51,1.0);font-size:12.8px;font-family:'Roboto Medium',sans-serif">660.00</text><path  d="M 970 53
L 975 53" style="stroke-width:1;stroke:rgba(51,51,51,1.0);fill:none"/><text x="980" y="59" style="stroke-width:0;stroke:none;fill:rgba(51,51,51,1.0);font-size:12.8px;font-family:'Roboto Medium',sans-serif">770.00</text><path  d="M 970 11
L 975 11" style="stroke-width:1;stroke:rgba(51,51,51,1.0);fill:none"/><text x="980" y="17" style="stroke-width:0;stroke:none;fill:rgba(51,51,51,1.0);font-size:12.8px;font-family:'Roboto Medium',sans-serif">880.00</text><path  d="M 38 351
L 40 351
L 41 351
L 43 351
L 44 351
L 45 351
L 47 351
L 48 351
L 50 351
L 51 351
L 52 351
L 54 350
L 55 350
L 56 350
L 58 350
L 59 349
L 61 349
L 62 347
L 63 348
L 65 347
L 66 346
L 67 344
L 69 343
L 70 342
L 72 342
L 73 341
L 74 340
L 76 340
L 77 340
L 78 339
L 80 339
L 81 340
L 83 338
L 84 337
L 85 336
L 87 337
L 88 338
L 90 336
L 91 337
L 92 338
L 94 338
L 95 339
L 96 338
L 98 339
L 99 339
L 101 338
L 102 338
L 103 340
L 105 339
L 106 340
L 107 340
L 109 343
L 110 344
L 112 345
L 113 345
L 114 346
L 116 347
L 117 346
L 118 347
L 120 347
L 121 347
L 123 347
L 124 347
L 125 348
L 127 348
L 128 348
L 130 348
L 131 349
L 132 350
L 134 350
L 135 350
L 136 350
L 138 350
L 139 350
L 141 350
L 142 350
L 143 350
L 145 351
L 146 350
L 147 350
L 149 350
L 150 350
L 152 350
L 153 350
L 154 350
L 156 350
L 157 350
L 158 350
L 160 350
L 161 350
L 163 351
L 164 351
L 165 351
L 167 351
L 168 351
L 170 351
L 171 351
L 172 351
L 174 350
L 175 350
L 176 350
L 178 350
L 179 350
L 181 350
L 182 350
L 183 351
L 185 351
L 186 351
L 187 351
L 189 351
L 190 351
L 192 351
L 193 351
L 194 351
L 196 351
L 197 351
L 198 351
L 200 351
L 201 351
L 203 351
L 204 351
L 205 351
L 207 351
L 208 351
L 210 351
L 211 351
L 212 351
L 214 351
L 215 351
L 216 351
L 218 351
L 219 351
L 221 350
L 222 350
L 223 350
L 225 350
L 226 350
L 227 350
L 229 350
L 230 350
L 232 350
L 233 350
L 234 350
L 236 350
L 237 350
L 238 349
L 240 349
L 241 349
L 243 349
L 244 348
L 245 349
L 247 348
L 248 348
L 250 348
L 251 348
L 252 349
L 254 349
L 255 349
L 256 350
L 258 350
L 259 350
L 261 351
L 262 351
L 263 351
L 265 351
L 266 351
L 267 350
L 269 350
L 270 349
L 272 349
L 273 348
L 274 347
L 276 347
L 277 346
L 278 346
L 280 346
L 281 345
L 283 346
L 284 346
L 285 346
L 287 346
L 288 346
L 290 346
L 291 346
L 292 346
L 294 346
L 295 346
L 296 347
L 298 347
L 299 347
L 301 347
L 302 348
L 303 348
L 305 348
L 306 347
L 307 346
L 309 345
L 310 345
L 312 343
L 313 342
L 314 342
L 316 342
L 317 341
L 318 342
L 320 341
L 321 343
L 323 340
L 324 340
L 325 341
L 327 342
L 328 341
L 330 343
L 331 340
L 332 343
L 334 342
L 335 342
L 336 341
L 338 339
L 339 337
L 341 339
L 342 339
L 343 339
L 345 338
L 346 337
L 347 339
L 349 339
L 350 339
L 352 337
L 353 338
L 354 336
L 356 336
L 357 334
L 358 334
L 360 333
L 361 332
L 363 329
L 364 326
L 365 324
L 367 318
L 368 308
L 370 297
L 371 293
L 372 293
L 374 290
L 375 288
L 376 282
L 378 279
L 379 275
L 381 269
L 382 261
L 383 260
L 385 247
L 386 239
L 387 224
L 389 218
L 390 211
L 392 209
L 393 196
L 394 202
L 396 199
L 397 199
L 398 201
L 400 203
L 401 208
L 403 215
L 404 198
L 405 201
L 407 209
L 408 212
L 410 214
L 411 217
L 412 217
L 414 225
L 415 229
L 416 233
L 418 238
L 419 233
L 421 232
L 422 236
L 423 241
L 425 242
L 426 232
L 427 231
L 429 237
L 430 243
L 432 241
L 433 247
L 434 261
L 436 276
L 437 280
L 438 284
L 440 272
L 441 277
L 443 276
L 444 271
L 445 277
L 447 276
L 448 278
L 450 290
L 451 291
L 452 295
L 454 292
L 455 292
L 456 304
L 458 306
L 459 304
L 461 303
L 462 297
L 463 300
L 465 300
L 466 296
L 467 298
L 469 299
L 470 294
L 472 296
L 473 298
L 474 298
L 476 296
L 477 295
L 478 293
L 480 301
L 481 305
L 483 310
L 484 313
L 485 315
L 487 316
L 488 322
L 490 323
L 491 326
L 492 323
L 494 323
L 495 318
L 496 317
L 498 317
L 499 314
L 501 314
L 502 315
L 503 314
L 505 316
L 506 316
L 507 316
L 509 317
L 510 315
L 512 310
L 513 310
L 514 311
L 516 314
L 517 312
L 518 306
L 520 303
L 521 305
L 523 304
L 524 308
L 525 305
L 527 307
L 528 309
L 530 316
L 531 311
L 532 310
L 534 303
L 535 300
L 536 299
L 538 298
L 539 295
L 541 293
L 542 298
L 543 299
L 545 296
L 546 294
L 547 298
L 549 295
L 550 306
L 552 304
L 553 303
L 554 308
L 556 310
L 557 308
L 558 310
L 560 305
L 561 304
L 563 302
L 564 299
L 565 300
L 567 300
L 568 303
L 570 298
L 571 295
L 572 291
L 574 287
L 575 286
L 576 286
L 578 280
L 579 284
L 581 282
L 582 294
L 583 297
L 585 284
L 586 283
L 587 288
L 589 290
L 590 288
L 592 283
L 593 281
L 594 289
L 596 294
L 597 287
L 598 286
L 600 290
L 601 290
L 603 295
L 604 301
L 605 297
L 607 298
L 608 298
L 610 299
L 611 298
L 612 293
L 614 288
L 615 288
L 616 286
L 618 284
L 619 282
L 621 284
L 622 288
L 623 290
L 625 285
L 626 293
L 627 293
L 629 294
L 630 295
L 632 298
L 633 299
L 634 307
L 636 303
L 637 304
L 638 306
L 640 307
L 641 301
L 643 302
L 644 303
L 645 304
L 647 304
L 648 308
L 650 310
L 651 317
L 652 321
L 654 322
L 655 327
L 656 333
L 658 335
L 659 336
L 661 338
L 662 338
L 663 339
L 665 339
L 666 339
L 667 339
L 669 339
L 670 339
L 672 339
L 673 340
L 674 339
L 676 341
L 677 342
L 678 341
L 680 342
L 681 343
L 683 342
L 684 343
L 685 343
L 687 344
L 688 346
L 690 347
L 691 348
L 692 348
L 694 348
L 695 348
L 696 348
L 698 348
L 699 348
L 701 349
L 702 349
L 703 350
L 705 350
L 706 350
L 707 349
L 709 349
L 710 349
L 712 350
L 713 350
L 714 350
L 716 350
L 717 350
L 718 350
L 720 350
L 721 350
L 723 350
L 724 350
L 725 349
L 727 347
L 728 346
L 730 344
L 731 342
L 732 340
L 734 340
L 735 339
L 736 334
L 738 332
L 739 330
L 741 330
L 742 331
L 743 328
L 745 327
L 746 331
L 747 333
L 749 336
L 750 337
L 752 334
L 753 336
L 754 338
L 756 338
L 757 337
L 758 337
L 760 336
L 761 338
L 763 338
L 764 338
L 765 339
L 767 338
L 768 339
L 770 338
L 771 337
L 772 336
L 774 334
L 775 332
L 776 331
L 778 331
L 779 330
L 781 330
L 782 328
L 783 327
L 785 327
L 786 326
L 787 324
L 789 323
L 790 322
L 792 322
L 793 319
L 794 320
L 796 322
L 797 323
L 798 324
L 800 322
L 801 323
L 803 325
L 804 322
L 805 320
L 807 321
L 808 319
L 810 320
L 811 317
L 812 317
L 814 316
L 815 314
L 816 313
L 818 312
L 819 312
L 821 310
L 822 308
L 823 306
L 825 307
L 826 309
L 827 309
L 829 308
L 830 311
L 832 312
L 833 315
L 834 314
L 836 312
L 837 311
L 838 309
L 840 306
L 841 308
L 843 303
L 844 298
L 845 299
L 847 299
L 848 294
L 850 296
L 851 294
L 852 301
L 854 300
L 855 300
L 856 302
L 858 304
L 859 303
L 861 300
L 862 293
L 863 291
L 865 288
L 866 283
L 867 281
L 869 278
L 870 275
L 872 275
L 873 275
L 874 270
L 876 268
L 877 270
L 878 269
L 880 259
L 881 254
L 883 250
L 884 246
L 885 238
L 887 223
L 888 206
L 890 198
L 891 178
L 892 180
L 894 152
L 895 145
L 896 128
L 898 121
L 899 128
L 901 132
L 902 114
L 903 126
L 905 131
L 906 118
L 907 128
L 909 101
L 910 89
L 912 78
L 913 72
L 914 62
L 916 67
L 917 49
L 918 51
L 920 30
L 921 43
L 923 37
L 924 16
L 925 20
L 927 13
L 928 36
L 930 71
L 931 78
L 932 102
L 934 132
L 935 149
L 936 177
L 938 187
L 939 199
L 941 203
L 942 209
L 943 218
L 945 232
L 946 247
L 947 247
L 949 257
L 950 266
L 952 271
L 953 274
L 954 282
L 956 282
L 957 290
L 958 290
L 960 293
L 961 295
L 963 298
L 964 293
L 965 293
L 967 290
L 968 286
L 969 285" style="stroke-width:1;stroke:rgba(0,116,217,1.0);fill:none"/><path  d="M 38 351
L 40 351
L 41 351
L 43 351
L 44 351
L 45 351
L 47 351
L 48 351
L 50 351
L 51 351
L 52 351
L 54 350
L 55 351
L 56 351
L 58 350
L 59 349
L 61 350
L 62 348
L 63 351
L 65 349
L 66 350
L 67 347
L 69 348
L 70 349
L 72 347
L 73 349
L 74 349
L 76 349
L 77 346
L 78 347
L 80 348
L 81 349
L 83 346
L 84 347
L 85 347
L 87 348
L 88 348
L 90 345
L 91 350
L 92 349
L 94 346
L 95 350
L 96 346
L 98 350
L 99 346
L 101 347
L 102 349
L 103 349
L 105 349
L 106 347
L 107 351
L 109 350
L 110 349
L 112 350
L 113 349
L 114 350
L 116 349
L 117 349
L 118 350
L 120 351
L 121 349
L 123 349
L 124 350
L 125 351
L 127 350
L 128 351
L 130 351
L 131 351
L 132 351
L 134 351
L 135 350
L 136 351
L 138 351
L 139 351
L 141 351
L 142 351
L 143 351
L 145 351
L 146 350
L 147 351
L 149 350
L 150 351
L 152 351
L 153 350
L 154 351
L 156 351
L 157 351
L 158 351
L 160 351
L 161 351
L 163 351
L 164 351
L 165 351
L 167 351
L 168 351
L 170 351
L 171 351
L 172 351
L 174 350
L 175 351
L 176 351
L 178 351
L 179 351
L 181 351
L 182 351
L 183 351
L 185 351
L 186 351
L 187 351
L 189 351
L 190 351
L 192 351
L 193 351
L 194 351
L 196 351
L 197 351
L 198 351
L 200 351
L 201 351
L 203 351
L 204 351
L 205 351
L 207 351
L 208 351
L 210 351
L 211 351
L 212 351
L 214 351
L 215 351
L 216 351
L 218 351
L 219 351
L 221 350
L 222 351
L 223 351
L 225 350
L 226 351
L 227 351
L 229 351
L 230 351
L 232 350
L 233 350
L 234 351
L 236 350
L 237 351
L 238 350
L 240 350
L 241 350
L 243 350
L 244 350
L 245 351
L 247 349
L 248 351
L 250 351
L 251 350
L 252 351
L 254 351
L 255 351
L 256 351
L 258 351
L 259 351
L 261 351
L 262 351
L 263 351
L 265 351
L 266 351
L 267 350
L 269 350
L 270 349
L 272 351
L 273 349
L 274 350
L 276 350
L 277 349
L 278 349
L 280 349
L 281 349
L 283 351
L 284 349
L 285 350
L 287 349
L 288 349
L 290 350
L 291 350
L 292 349
L 294 350
L 295 350
L 296 351
L 298 350
L 299 349
L 301 350
L 302 351
L 303 350
L 305 349
L 306 349
L 307 349
L 309 348
L 310 349
L 312 347
L 313 349
L 314 350
L 316 349
L 317 348
L 318 349
L 320 348
L 321 350
L 323 344
L 324 349
L 325 350
L 327 350
L 328 348
L 330 351
L 331 346
L 332 349
L 334 348
L 335 349
L 336 349
L 338 345
L 339 347
L 341 349
L 342 349
L 343 347
L 345 348
L 346 347
L 347 348
L 349 348
L 350 347
L 352 347
L 353 349
L 354 345
L 356 346
L 357 345
L 358 347
L 360 346
L 361 346
L 363 343
L 364 342
L 365 342
L 367 336
L 368 332
L 370 328
L 371 340
L 372 342
L 374 337
L 375 339
L 376 327
L 378 328
L 379 322
L 381 330
L 382 330
L 383 336
L 385 318
L 386 314
L 387 304
L 389 311
L 390 320
L 392 326
L 393 316
L 394 328
L 396 308
L 397 305
L 398 313
L 400 324
L 401 334
L 403 328
L 404 300
L 405 314
L 407 317
L 408 318
L 410 328
L 411 338
L 412 327
L 414 313
L 415 321
L 416 323
L 418 327
L 419 320
L 421 335
L 422 334
L 423 321
L 425 322
L 426 307
L 427 325
L 429 329
L 430 345
L 432 332
L 433 331
L 434 344
L 436 330
L 437 332
L 438 335
L 440 327
L 441 340
L 443 330
L 444 336
L 445 339
L 447 331
L 448 338
L 450 345
L 451 341
L 452 337
L 454 331
L 455 339
L 456 349
L 458 342
L 459 341
L 461 339
L 462 328
L 463 335
L 465 339
L 466 343
L 467 344
L 469 343
L 470 332
L 472 332
L 473 337
L 474 340
L 476 340
L 477 342
L 478 340
L 480 345
L 481 339
L 483 344
L 484 345
L 485 343
L 487 344
L 488 348
L 490 347
L 491 344
L 492 340
L 494 345
L 495 337
L 496 342
L 498 347
L 499 342
L 501 343
L 502 341
L 503 343
L 505 340
L 506 342
L 507 347
L 509 344
L 510 340
L 512 334
L 513 343
L 514 342
L 516 347
L 517 343
L 518 335
L 520 335
L 521 338
L 523 341
L 524 347
L 525 344
L 527 345
L 528 338
L 530 346
L 531 331
L 532 339
L 534 336
L 535 340
L 536 344
L 538 336
L 539 342
L 541 327
L 542 347
L 543 337
L 545 335
L 546 342
L 547 341
L 549 337
L 550 344
L 552 344
L 553 335
L 554 342
L 556 344
L 557 339
L 558 340
L 560 337
L 561 342
L 563 333
L 564 338
L 565 345
L 567 338
L 568 344
L 570 330
L 571 337
L 572 326
L 574 333
L 575 344
L 576 338
L 578 335
L 579 337
L 581 333
L 582 345
L 583 337
L 585 323
L 586 336
L 587 344
L 589 339
L 590 330
L 592 338
L 593 334
L 594 336
L 596 344
L 597 333
L 598 338
L 600 337
L 601 337
L 603 342
L 604 344
L 605 339
L 607 335
L 608 338
L 610 338
L 611 336
L 612 334
L 614 337
L 615 338
L 616 332
L 618 335
L 619 334
L 621 339
L 622 340
L 623 339
L 625 330
L 626 344
L 627 335
L 629 335
L 630 342
L 632 345
L 633 340
L 634 343
L 636 337
L 637 338
L 638 339
L 640 343
L 641 335
L 643 341
L 644 345
L 645 340
L 647 337
L 648 345
L 650 347
L 651 346
L 652 347
L 654 346
L 655 349
L 656 346
L 658 348
L 659 349
L 661 348
L 662 348
L 663 348
L 665 349
L 666 346
L 667 348
L 669 349
L 670 348
L 672 347
L 673 349
L 674 349
L 676 349
L 677 349
L 678 347
L 680 349
L 681 349
L 683 349
L 684 349
L 685 350
L 687 350
L 688 351
L 690 351
L 691 350
L 692 349
L 694 350
L 695 350
L 696 350
L 698 351
L 699 351
L 701 351
L 702 350
L 703 351
L 705 350
L 706 351
L 707 350
L 709 351
L 710 351
L 712 350
L 713 351
L 714 351
L 716 351
L 717 351
L 718 351
L 720 351
L 721 350
L 723 351
L 724 350
L 725 349
L 727 349
L 728 348
L 730 347
L 731 348
L 732 347
L 734 349
L 735 347
L 736 341
L 738 345
L 739 344
L 741 348
L 742 349
L 743 345
L 745 345
L 746 348
L 747 349
L 749 348
L 750 349
L 752 345
L 753 348
L 754 348
L 756 347
L 757 347
L 758 348
L 760 349
L 761 347
L 763 348
L 764 347
L 765 348
L 767 346
L 768 349
L 770 347
L 771 346
L 772 347
L 774 344
L 775 344
L 776 345
L 778 348
L 779 347
L 781 345
L 782 345
L 783 343
L 785 344
L 786 343
L 787 345
L 789 344
L 790 344
L 792 345
L 793 339
L 794 346
L 796 347
L 797 346
L 798 346
L 800 341
L 801 345
L 803 342
L 804 341
L 805 344
L 807 347
L 808 343
L 810 342
L 811 341
L 812 342
L 814 340
L 815 341
L 816 345
L 818 342
L 819 342
L 821 338
L 822 339
L 823 337
L 825 343
L 826 347
L 827 343
L 829 340
L 830 342
L 832 340
L 833 342
L 834 341
L 836 344
L 837 342
L 838 336
L 840 338
L 841 343
L 843 334
L 844 334
L 845 346
L 847 342
L 848 328
L 850 340
L 851 341
L 852 344
L 854 333
L 855 346
L 856 344
L 858 332
L 859 339
L 861 337
L 862 332
L 863 330
L 865 340
L 866 337
L 867 329
L 869 334
L 870 332
L 872 331
L 873 331
L 874 332
L 876 334
L 877 333
L 878 331
L 880 317
L 881 323
L 883 324
L 884 326
L 885 322
L 887 309
L 888 304
L 890 304
L 891 293
L 892 327
L 894 283
L 895 310
L 896 282
L 898 292
L 899 316
L 901 300
L 902 298
L 903 301
L 905 320
L 906 261
L 907 307
L 909 274
L 910 280
L 912 281
L 913 292
L 914 303
L 916 270
L 917 278
L 918 277
L 920 245
L 921 303
L 923 282
L 924 270
L 925 276
L 927 267
L 928 313
L 930 301
L 931 314
L 932 320
L 934 317
L 935 303
L 936 313
L 938 329
L 939 319
L 941 321
L 942 329
L 943 331
L 945 325
L 946 337
L 947 329
L 949 335
L 950 335
L 952 337
L 953 336
L 954 337
L 956 336
L 957 342
L 958 335
L 960 340
L 961 340
L 963 340
L 964 330
L 965 336
L 967 336
L 968 330
L 969 338" style="stroke-width:1;stroke:rgba(0,217,101,1.0);fill:none"/><path  d="M 38 351
L 40 351
L 41 351
L 43 351
L 44 351
L 45 351
L 47 351
L 48 351
L 50 351
L 51 351
L 52 351
L 54 351
L 55 351
L 56 351
L 58 351
L 59 351
L 61 351
L 62 351
L 63 351
L 65 351
L 66 350
L 67 351
L 69 351
L 70 351
L 72 351
L 73 351
L 74 351
L 76 350
L 77 351
L 78 351
L 80 350
L 81 351
L 83 350
L 84 350
L 85 350
L 87 351
L 88 350
L 90 350
L 91 351
L 92 349
L 94 350
L 95 350
L 96 351
L 98 350
L 99 350
L 101 350
L 102 350
L 103 349
L 105 351
L 106 351
L 107 350
L 109 350
L 110 350
L 112 351
L 113 350
L 114 351
L 116 350
L 117 351
L 118 351
L 120 350
L 121 351
L 123 351
L 124 350
L 125 350
L 127 351
L 128 351
L 130 351
L 131 351
L 132 351
L 134 351
L 135 351
L 136 351
L 138 351
L 139 350
L 141 351
L 142 351
L 143 351
L 145 351
L 146 351
L 147 351
L 149 351
L 150 351
L 152 351
L 153 351
L 154 351
L 156 351
L 157 351
L 158 351
L 160 351
L 161 351
L 163 351
L 164 351
L 165 351
L 167 351
L 168 351
L 170 351
L 171 351
L 172 351
L 174 351
L 175 351
L 176 351
L 178 351
L 179 351
L 181 351
L 182 351
L 183 351
L 185 351
L 186 351
L 187 351
L 189 351
L 190 351
L 192 351
L 193 351
L 194 351
L 196 351
L 197 351
L 198 351
L 200 351
L 201 351
L 203 351
L 204 351
L 205 351
L 207 351
L 208 351
L 210 351
L 211 351
L 212 351
L 214 351
L 215 351
L 216 351
L 218 351
L 219 351
L 221 351
L 222 351
L 223 351
L 225 351
L 226 351
L 227 351
L 229 351
L 230 351
L 232 351
L 233 351
L 234 351
L 236 351
L 237 351
L 238 351
L 240 351
L 241 351
L 243 351
L 244 351
L 245 351
L 247 351
L 248 351
L 250 351
L 251 351
L 252 351
L 254 351
L 255 351
L 256 351
L 258 351
L 259 351
L 261 351
L 262 351
L 263 351
L 265 351
L 266 351
L 267 351
L 269 351
L 270 351
L 272 351
L 273 351
L 274 351
L 276 351
L 277 351
L 278 351
L 280 351
L 281 351
L 283 350
L 284 351
L 285 351
L 287 351
L 288 351
L 290 351
L 291 351
L 292 351
L 294 351
L 295 351
L 296 351
L 298 351
L 299 351
L 301 351
L 302 351
L 303 351
L 305 351
L 306 351
L 307 351
L 309 351
L 310 351
L 312 351
L 313 351
L 314 351
L 316 351
L 317 351
L 318 351
L 320 351
L 321 351
L 323 351
L 324 351
L 325 351
L 327 351
L 328 351
L 330 351
L 331 351
L 332 351
L 334 351
L 335 351
L 336 351
L 338 351
L 339 351
L 341 351
L 342 351
L 343 351
L 345 350
L 346 350
L 347 351
L 349 351
L 350 351
L 352 351
L 353 351
L 354 350
L 356 350
L 357 351
L 358 350
L 360 351
L 361 351
L 363 351
L 364 351
L 365 350
L 367 349
L 368 350
L 370 351
L 371 350
L 372 351
L 374 350
L 375 351
L 376 350
L 378 351
L 379 351
L 381 350
L 382 351
L 383 350
L 385 349
L 386 350
L 387 350
L 389 350
L 390 350
L 392 351
L 393 350
L 394 349
L 396 349
L 397 349
L 398 350
L 400 350
L 401 350
L 403 350
L 404 349
L 405 351
L 407 351
L 408 350
L 410 350
L 411 350
L 412 349
L 414 350
L 415 350
L 416 349
L 418 349
L 419 348
L 421 350
L 422 350
L 423 350
L 425 347
L 426 350
L 427 349
L 429 349
L 430 349
L 432 349
L 433 350
L 434 350
L 436 351
L 437 348
L 438 350
L 440 350
L 441 350
L 443 350
L 444 349
L 445 350
L 447 349
L 448 350
L 450 351
L 451 350
L 452 349
L 454 348
L 455 349
L 456 350
L 458 350
L 459 349
L 461 349
L 462 351
L 463 350
L 465 350
L 466 350
L 467 350
L 469 351
L 470 350
L 472 351
L 473 351
L 474 350
L 476 350
L 477 350
L 478 350
L 480 350
L 481 351
L 483 350
L 484 350
L 485 351
L 487 350
L 488 350
L 490 351
L 491 350
L 492 351
L 494 351
L 495 351
L 496 350
L 498 351
L 499 351
L 501 349
L 502 351
L 503 351
L 505 351
L 506 351
L 507 351
L 509 350
L 510 351
L 512 350
L 513 349
L 514 351
L 516 351
L 517 351
L 518 351
L 520 350
L 521 350
L 523 351
L 524 350
L 525 351
L 527 351
L 528 351
L 530 351
L 531 351
L 532 350
L 534 351
L 535 351
L 536 351
L 538 350
L 539 351
L 541 351
L 542 351
L 543 350
L 545 351
L 546 351
L 547 351
L 549 351
L 550 351
L 552 351
L 553 351
L 554 351
L 556 351
L 557 351
L 558 351
L 560 351
L 561 351
L 563 351
L 564 351
L 565 351
L 567 351
L 568 350
L 570 350
L 571 350
L 572 351
L 574 351
L 575 351
L 576 350
L 578 351
L 579 351
L 581 350
L 582 351
L 583 350
L 585 350
L 586 351
L 587 351
L 589 351
L 590 351
L 592 350
L 593 351
L 594 351
L 596 351
L 597 351
L 598 350
L 600 351
L 601 351
L 603 350
L 604 351
L 605 351
L 607 350
L 608 351
L 610 351
L 611 350
L 612 351
L 614 350
L 615 351
L 616 351
L 618 350
L 619 350
L 621 351
L 622 350
L 623 351
L 625 351
L 626 351
L 627 351
L 629 350
L 630 351
L 632 350
L 633 351
L 634 350
L 636 351
L 637 351
L 638 351
L 640 350
L 641 351
L 643 351
L 644 351
L 645 350
L 647 351
L 648 351
L 650 351
L 651 350
L 652 351
L 654 351
L 655 351
L 656 351
L 658 351
L 659 350
L 661 351
L 662 351
L 663 351
L 665 351
L 666 351
L 667 351
L 669 351
L 670 351
L 672 350
L 673 351
L 674 351
L 676 351
L 677 351
L 678 351
L 680 351
L 681 351
L 683 351
L 684 351
L 685 351
L 687 351
L 688 351
L 690 351
L 691 351
L 692 351
L 694 351
L 695 351
L 696 351
L 698 351
L 699 351
L 701 351
L 702 351
L 703 351
L 705 350
L 706 351
L 707 351
L 709 351
L 710 351
L 712 351
L 713 351
L 714 351
L 716 351
L 717 351
L 718 351
L 720 351
L 721 351
L 723 351
L 724 351
L 725 351
L 727 351
L 728 351
L 730 351
L 731 351
L 732 351
L 734 351
L 735 351
L 736 351
L 738 351
L 739 351
L 741 351
L 742 351
L 743 351
L 745 351
L 746 351
L 747 351
L 749 351
L 750 351
L 752 351
L 753 351
L 754 351
L 756 351
L 757 351
L 758 351
L 760 351
L 761 351
L 763 350
L 764 351
L 765 351
L 767 351
L 768 351
L 770 351
L 771 351
L 772 351
L 774 351
L 775 351
L 776 351
L 778 351
L 779 351
L 781 351
L 782 351
L 783 351
L 785 351
L 786 351
L 787 351
L 789 351
L 790 351
L 792 351
L 793 351
L 794 351
L 796 350
L 797 351
L 798 351
L 800 351
L 801 351
L 803 351
L 804 351
L 805 351
L 807 351
L 808 351
L 810 351
L 811 351
L 812 351
L 814 351
L 815 351
L 816 351
L 818 351
L 819 351
L 821 351
L 822 351
L 823 351
L 825 351
L 826 351
L 827 351
L 829 351
L 830 351
L 832 351
L 833 351
L 834 351
L 836 351
L 837 351
L 838 350
L 840 351
L 841 351
L 843 351
L 844 351
L 845 351
L 847 351
L 848 350
L 850 351
L 851 350
L 852 351
L 854 351
L 855 351
L 856 351
L 858 351
L 859 351
L 861 351
L 862 351
L 863 350
L 865 350
L 866 351
L 867 351
L 869 351
L 870 351
L 872 351
L 873 350
L 874 351
L 876 351
L 877 350
L 878 351
L 880 351
L 881 350
L 883 351
L 884 351
L 885 350
L 887 350
L 888 351
L 890 351
L 891 350
L 892 351
L 894 351
L 895 350
L 896 350
L 898 351
L 899 351
L 901 350
L 902 351
L 903 351
L 905 350
L 906 350
L 907 351
L 909 350
L 910 350
L 912 351
L 913 351
L 914 351
L 916 350
L 917 350
L 918 351
L 920 350
L 921 351
L 923 350
L 924 350
L 925 351
L 927 351
L 928 351
L 930 350
L 931 351
L 932 350
L 934 351
L 935 350
L 936 350
L 938 351
L 939 350
L 941 351
L 942 350
L 943 350
L 945 350
L 946 351
L 947 351
L 949 350
L 950 351
L 952 350
L 953 351
L 954 350
L 956 351
L 957 350
L 958 351
L 960 351
L 961 351
L 963 350
L 964 350
L 965 351
L 967 350
L 968 351
L 969 351" style="stroke-width:1;stroke:rgba(217,0,116,1.0);fill:none"/><text x="367" y="33" style="stroke-width:0;stroke:none;fill:rgba(51,51,51,1.0);font-size:23.0px;font-family:'Roboto Medium',sans-serif">Graz-Umgebung 01.01.2022</text><path  d="M 38 11
L 251 11
L 251 91
L 38 91
L 38 11" style="stroke-width:1;stroke:rgba(51,51,51,1.0);fill:rgba(255,255,255,1.0)"/><text x="43" y="26" style="stroke-width:0;stroke:none;fill:rgba(51,51,51,1.0);font-size:10.2px;font-family:'Roboto Medium',sans-serif">Sieben Tage Durschnitt Inzidenz Fälle</text><path  d="M 221 21
L 241 21" style="stroke-width:1;stroke:rgba(0,116,217,1.0);fill:none"/><text x="43" y="56" style="stroke-width:0;stroke:none;fill:rgba(51,51,51,1.0);font-size:10.2px;font-family:'Roboto Medium',sans-serif">Anzahl Faelle</text><path  d="M 110 51
L 241 51" style="stroke-width:1;stroke:rgba(0,217,101,1.0);fill:none"/><text x="43" y="86" style="stroke-width:0;stroke:none;fill:rgba(51,51,51,1.0);font-size:10.2px;font-family:'Roboto Medium',sans-serif">Anzahl Tot</text><path  d="M 98 81
L 241 81" style="stroke-width:1;stroke:rgba(217,0,116,1.0);fill:none"/></svg>