<svg xmlns="http://www.w3.org/2000/svg" xmlns:xlink="http://www.w3.org/1999/xlink" width="1024" height="400">\n<path  d="M 0 0
L 1024 0
L 1024 400
L 0 400
L 0 0" style="stroke-width:0;stroke:rgba(255,255,255,1.0);fill:rgba(255,255,255,1.0)"/><path  d="M 38 11
L 969 11
L 969 351
L 38 351
L 38 11" style="stroke-width:0;stroke:rgba(255,255,255,1.0);fill:rgba(255,255,255,1.0)"/><path  d="M 38 351
L 969 351" style="stroke-width:1;stroke:rgba(51,51,51,1.0);fill:none"/><path  d="M 38 351
L 38 356" style="stroke-width:1;stroke:rgba(51,51,51,1.0);fill:none"/><text x="5" y="373" style="stroke-width:0;stroke:none;fill:rgba(51,51,51,1.0);font-size:12.8px;font-family:'Roboto Medium',sans-serif">2020-02-26</text><path  d="M 155 351
L 155 356" style="stroke-width:1;stroke:rgba(51,51,51,1.0);fill:none"/><text x="122" y="373" style="stroke-width:0;stroke:none;fill:rgba(51,51,51,1.0);font-size:12.8px;font-family:'Roboto Medium',sans-serif">2020-04-13</text><path  d="M 271 351
L 271 356" style="stroke-width:1;stroke:rgba(51,51,51,1.0);fill:none"/><text x="238" y="373" style="stroke-width:0;stroke:none;fill:rgba(51,51,51,1.0);font-size:12.8px;font-family:'Roboto Medium',sans-serif">2020-05-30</text><path  d="M 388 351
L 388 356" style="stroke-width:1;stroke:rgba(51,51,51,1.0);fill:none"/><text x="355" y="373" style="stroke-width:0;stroke:none;fill:rgba(51,51,51,1.0);font-size:12.8px;font-family:'Roboto Medium',sans-serif">2020-07-16</text><path  d="M 504 351
L 504 356" style="stroke-width:1;stroke:rgba(51,51,51,1.0);fill:none"/><text x="471" y="373" style="stroke-width:0;stroke:none;fill:rgba(51,51,51,1.0);font-size:12.8px;font-family:'Roboto Medium',sans-serif">2020-09-01</text><path  d="M 620 351
L 620 356" style="stroke-width:1;stroke:rgba(51,51,51,1.0);fill:none"/><text x="587" y="373" style="stroke-width:0;stroke:none;fill:rgba(51,51,51,1.0);font-size:12.8px;font-family:'Roboto Medium',sans-serif">2020-10-18</text><path  d="M 737 351
L 737 356" style="stroke-width:1;stroke:rgba(51,51,51,1.0);fill:none"/><text x="704" y="373" style="stroke-width:0;stroke:none;fill:rgba(51,51,51,1.0);font-size:12.8px;font-family:'Roboto Medium',sans-serif">2020-12-04</text><path  d="M 853 351
L 853 356" style="stroke-width:1;stroke:rgba(51,51,51,1.0);fill:none"/><text x="820" y="373" style="stroke-width:0;stroke:none;fill:rgba(51,51,51,1.0);font-size:12.8px;font-family:'Roboto Medium',sans-serif">2021-01-20</text><path  d="M 969 351
L 969 356" style="stroke-width:1;stroke:rgba(51,51,51,1.0);fill:none"/><text x="936" y="373" style="stroke-width:0;stroke:none;fill:rgba(51,51,51,1.0);font-size:12.8px;font-family:'Roboto Medium',sans-serif">2021-03-08</text><text x="485" y="395" style="stroke-width:0;stroke:none;fill:rgba(51,51,51,1.0);font-size:12.8px;font-family:'Roboto Medium',sans-serif">Datum</text><path  d="M 970 351
L 970 11" style="stroke-width:1;stroke:rgba(51,51,51,1.0);fill:none"/><path  d="M 970 351
L 975 351" style="stroke-width:1;stroke:rgba(51,51,51,1.0);fill:none"/><text x="980" y="357" style="stroke-width:0;stroke:none;fill:rgba(51,51,51,1.0);font-size:12.8px;font-family:'Roboto Medium',sans-serif">0.00</text><path  d="M 970 308
L 975 308" style="stroke-width:1;stroke:rgba(51,51,51,1.0);fill:none"/><text x="980" y="314" style="stroke-width:0;stroke:none;fill:rgba(51,51,51,1.0);font-size:12.8px;font-family:'Roboto Medium',sans-serif">120.00</text><path  d="M 970 266
L 975 266" style="stroke-width:1;stroke:rgba(51,51,51,1.0);fill:none"/><text x="980" y="272" style="stroke-width:0;stroke:none;fill:rgba(51,51,51,1.0);font-size:12.8px;font-family:'Roboto Medium',sans-serif">240.00</text><path  d="M 970 223
L 975 223" style="stroke-width:1;stroke:rgba(51,51,51,1.0);fill:none"/><text x="980" y="229" style="stroke-width:0;stroke:none;fill:rgba(51,51,51,1.0);font-size:12.8px;font-family:'Roboto Medium',sans-serif">360.00</text><path  d="M 970 181
L 975 181" style="stroke-width:1;stroke:rgba(51,51,51,1.0);fill:none"/><text x="980" y="187" style="stroke-width:0;stroke:none;fill:rgba(51,51,51,1.0);font-size:12.8px;font-family:'Roboto Medium',sans-serif">480.00</text><path  d="M 970 138
L 975 138" style="stroke-width:1;stroke:rgba(51,51,51,1.0);fill:none"/><text x="980" y="144" style="stroke-width:0;stroke:none;fill:rgba(51,51,51,1.0);font-size:12.8px;font-family:'Roboto Medium',sans-serif">600.00</text><path  d="M 970 96
L 975 96" style="stroke-width:1;stroke:rgba(51,51,51,1.0);fill:none"/><text x="980" y="102" style="stroke-width:0;stroke:none;fill:rgba(51,51,51,1.0);font-size:12.8px;font-family:'Roboto Medium',sans-serif">720.00</text><path  d="M 970 53
L 975 53" style="stroke-width:1;stroke:rgba(51,51,51,1.0);fill:none"/><text x="980" y="59" style="stroke-width:0;stroke:none;fill:rgba(51,51,51,1.0);font-size:12.8px;font-family:'Roboto Medium',sans-serif">840.00</text><path  d="M 970 11
L 975 11" style="stroke-width:1;stroke:rgba(51,51,51,1.0);fill:none"/><text x="980" y="17" style="stroke-width:0;stroke:none;fill:rgba(51,51,51,1.0);font-size:12.8px;font-family:'Roboto Medium',sans-serif">960.00</text><path  d="M 38 351
L 41 351
L 43 351
L 46 351
L 48 351
L 51 351
L 53 351
L 56 351
L 58 351
L 61 351
L 63 351
L 66 351
L 68 351
L 71 350
L 73 349
L 76 349
L 78 349
L 81 347
L 83 347
L 86 347
L 88 347
L 90 347
L 93 346
L 95 346
L 98 347
L 100 347
L 103 347
L 105 347
L 108 345
L 110 344
L 113 342
L 115 337
L 118 336
L 120 334
L 123 331
L 125 334
L 128 331
L 130 334
L 133 338
L 135 338
L 138 341
L 140 343
L 142 344
L 145 347
L 147 348
L 150 347
L 152 349
L 155 347
L 157 348
L 160 347
L 162 347
L 165 346
L 167 346
L 170 346
L 172 348
L 175 348
L 177 349
L 180 349
L 182 351
L 185 351
L 187 351
L 190 351
L 192 351
L 194 351
L 197 351
L 199 351
L 202 351
L 204 351
L 207 351
L 209 351
L 212 351
L 214 351
L 217 351
L 219 351
L 222 351
L 224 351
L 227 351
L 229 351
L 232 351
L 234 351
L 237 351
L 239 351
L 242 351
L 244 351
L 246 351
L 249 351
L 251 351
L 254 351
L 256 351
L 259 351
L 261 351
L 264 351
L 266 351
L 269 351
L 271 351
L 274 351
L 276 351
L 279 351
L 281 351
L 284 351
L 286 351
L 289 351
L 291 351
L 294 351
L 296 351
L 298 351
L 301 351
L 303 351
L 306 351
L 308 351
L 311 351
L 313 351
L 316 351
L 318 351
L 321 351
L 323 350
L 326 350
L 328 349
L 331 349
L 333 349
L 336 349
L 338 349
L 341 350
L 343 350
L 346 351
L 348 349
L 350 347
L 353 346
L 355 346
L 358 346
L 360 346
L 363 346
L 365 347
L 368 348
L 370 349
L 373 349
L 375 349
L 378 349
L 380 349
L 383 349
L 385 350
L 388 349
L 390 349
L 393 348
L 395 348
L 398 348
L 400 348
L 402 348
L 405 349
L 407 349
L 410 351
L 412 351
L 415 351
L 417 350
L 420 350
L 422 349
L 425 349
L 427 349
L 430 349
L 432 349
L 435 349
L 437 349
L 440 349
L 442 349
L 445 349
L 447 349
L 450 348
L 452 348
L 454 348
L 457 348
L 459 347
L 462 347
L 464 348
L 467 348
L 469 348
L 472 348
L 474 348
L 477 349
L 479 349
L 482 348
L 484 348
L 487 348
L 489 348
L 492 348
L 494 347
L 497 346
L 499 347
L 502 348
L 504 345
L 506 344
L 509 344
L 511 346
L 514 346
L 516 346
L 519 345
L 521 347
L 524 348
L 526 348
L 529 348
L 531 347
L 534 347
L 536 347
L 539 344
L 541 343
L 544 342
L 546 341
L 549 340
L 551 335
L 554 335
L 556 332
L 558 334
L 561 332
L 563 331
L 566 332
L 568 337
L 571 337
L 573 342
L 576 340
L 578 342
L 581 344
L 583 344
L 586 346
L 588 346
L 591 343
L 593 343
L 596 335
L 598 335
L 601 329
L 603 325
L 606 323
L 608 319
L 610 311
L 613 307
L 615 300
L 618 288
L 620 286
L 623 277
L 625 263
L 628 255
L 630 241
L 633 228
L 635 232
L 638 207
L 640 215
L 643 199
L 645 178
L 648 171
L 650 153
L 653 111
L 655 113
L 658 81
L 660 87
L 662 73
L 665 59
L 667 50
L 670 58
L 672 54
L 675 71
L 677 13
L 680 33
L 682 39
L 685 48
L 687 70
L 690 75
L 692 75
L 695 117
L 697 97
L 700 79
L 702 60
L 705 53
L 707 55
L 710 37
L 712 16
L 714 27
L 717 55
L 719 85
L 722 96
L 724 106
L 727 138
L 729 187
L 732 213
L 734 231
L 737 229
L 739 243
L 742 251
L 744 250
L 747 250
L 749 254
L 752 260
L 754 280
L 757 266
L 759 260
L 762 255
L 764 260
L 766 263
L 769 268
L 771 270
L 774 289
L 776 296
L 779 301
L 781 301
L 784 295
L 786 291
L 789 291
L 791 292
L 794 290
L 796 286
L 799 284
L 801 288
L 804 286
L 806 284
L 809 280
L 811 281
L 814 287
L 816 275
L 818 280
L 821 286
L 823 280
L 826 283
L 828 286
L 831 287
L 833 305
L 836 299
L 838 298
L 841 306
L 843 303
L 846 304
L 848 301
L 851 306
L 853 311
L 856 305
L 858 307
L 861 311
L 863 312
L 866 312
L 868 310
L 870 308
L 873 314
L 875 311
L 878 308
L 880 310
L 883 313
L 885 317
L 888 317
L 890 318
L 893 320
L 895 322
L 898 318
L 900 318
L 903 318
L 905 323
L 908 323
L 910 324
L 913 322
L 915 325
L 918 324
L 920 320
L 922 317
L 925 317
L 927 317
L 930 320
L 932 321
L 935 322
L 937 320
L 940 320
L 942 316
L 945 314
L 947 317
L 950 314
L 952 315
L 955 320
L 957 319
L 960 323
L 962 328
L 965 323
L 967 325
L 969 325" style="stroke-width:1;stroke:rgba(0,116,217,1.0);fill:none"/><path  d="M 38 351
L 41 351
L 43 351
L 46 351
L 48 351
L 51 351
L 53 351
L 56 351
L 58 351
L 61 351
L 63 351
L 66 351
L 68 351
L 71 350
L 73 350
L 76 351
L 78 351
L 81 349
L 83 350
L 86 351
L 88 350
L 90 350
L 93 350
L 95 350
L 98 351
L 100 350
L 103 351
L 105 350
L 108 349
L 110 350
L 113 348
L 115 348
L 118 349
L 120 349
L 123 348
L 125 350
L 128 348
L 130 350
L 133 351
L 135 349
L 138 351
L 140 350
L 142 351
L 145 350
L 147 351
L 150 350
L 152 351
L 155 349
L 157 351
L 160 350
L 162 351
L 165 349
L 167 351
L 170 351
L 172 351
L 175 351
L 177 351
L 180 351
L 182 351
L 185 351
L 187 351
L 190 351
L 192 351
L 194 351
L 197 351
L 199 351
L 202 351
L 204 351
L 207 351
L 209 351
L 212 351
L 214 351
L 217 351
L 219 351
L 222 351
L 224 351
L 227 351
L 229 351
L 232 351
L 234 351
L 237 351
L 239 351
L 242 351
L 244 351
L 246 351
L 249 351
L 251 351
L 254 351
L 256 351
L 259 351
L 261 351
L 264 351
L 266 351
L 269 351
L 271 351
L 274 351
L 276 351
L 279 351
L 281 351
L 284 351
L 286 351
L 289 351
L 291 351
L 294 351
L 296 351
L 298 351
L 301 351
L 303 351
L 306 351
L 308 351
L 311 351
L 313 351
L 316 351
L 318 351
L 321 351
L 323 350
L 326 351
L 328 350
L 331 351
L 333 351
L 336 351
L 338 351
L 341 351
L 343 351
L 346 351
L 348 349
L 350 349
L 353 350
L 355 350
L 358 351
L 360 351
L 363 351
L 365 351
L 368 350
L 370 351
L 373 350
L 375 351
L 378 351
L 380 351
L 383 351
L 385 351
L 388 350
L 390 350
L 393 350
L 395 351
L 398 351
L 400 351
L 402 351
L 405 351
L 407 351
L 410 351
L 412 351
L 415 351
L 417 350
L 420 351
L 422 350
L 425 351
L 427 351
L 430 351
L 432 350
L 435 351
L 437 350
L 440 351
L 442 351
L 445 351
L 447 350
L 450 350
L 452 351
L 454 350
L 457 351
L 459 350
L 462 351
L 464 351
L 467 350
L 469 351
L 472 350
L 474 351
L 477 351
L 479 351
L 482 350
L 484 350
L 487 351
L 489 350
L 492 350
L 494 350
L 497 350
L 499 351
L 502 351
L 504 349
L 506 350
L 509 350
L 511 351
L 514 350
L 516 351
L 519 350
L 521 350
L 524 350
L 526 351
L 529 350
L 531 350
L 534 350
L 536 350
L 539 348
L 541 349
L 544 350
L 546 350
L 549 349
L 551 347
L 554 351
L 556 347
L 558 351
L 561 349
L 563 349
L 566 350
L 568 350
L 571 350
L 573 350
L 576 349
L 578 350
L 581 351
L 583 350
L 586 351
L 588 350
L 591 348
L 593 349
L 596 344
L 598 350
L 601 346
L 603 348
L 606 349
L 608 346
L 610 344
L 613 342
L 615 345
L 618 338
L 620 347
L 623 343
L 625 337
L 628 339
L 630 333
L 633 337
L 635 341
L 638 331
L 640 348
L 643 326
L 645 325
L 648 328
L 650 326
L 653 313
L 655 332
L 658 327
L 660 331
L 662 316
L 665 319
L 667 320
L 670 318
L 672 330
L 675 338
L 677 293
L 680 330
L 682 323
L 685 326
L 687 333
L 690 333
L 692 339
L 695 320
L 697 316
L 700 311
L 702 313
L 705 329
L 707 334
L 710 327
L 712 307
L 714 323
L 717 329
L 719 333
L 722 336
L 724 341
L 727 348
L 729 339
L 732 340
L 734 340
L 737 332
L 739 345
L 742 345
L 744 347
L 747 339
L 749 343
L 752 344
L 754 345
L 757 336
L 759 341
L 762 344
L 764 342
L 766 345
L 769 347
L 771 346
L 774 348
L 776 346
L 779 347
L 781 342
L 784 341
L 786 344
L 789 346
L 791 349
L 794 344
L 796 344
L 799 341
L 801 344
L 804 343
L 806 345
L 809 347
L 811 345
L 814 348
L 816 333
L 818 347
L 821 347
L 823 341
L 826 348
L 828 347
L 831 349
L 833 344
L 836 343
L 838 346
L 841 346
L 843 347
L 846 347
L 848 347
L 851 347
L 853 347
L 856 342
L 858 348
L 861 349
L 863 348
L 866 347
L 868 346
L 870 346
L 873 346
L 875 346
L 878 347
L 880 349
L 883 349
L 885 348
L 888 346
L 890 347
L 893 347
L 895 348
L 898 347
L 900 349
L 903 348
L 905 349
L 908 347
L 910 348
L 913 346
L 915 349
L 918 349
L 920 346
L 922 347
L 925 347
L 927 348
L 930 349
L 932 349
L 935 349
L 937 344
L 940 347
L 942 344
L 945 347
L 947 350
L 950 348
L 952 350
L 955 348
L 957 346
L 960 347
L 962 350
L 965 347
L 967 349
L 969 350" style="stroke-width:1;stroke:rgba(0,217,101,1.0);fill:none"/><path  d="M 38 351
L 41 351
L 43 351
L 46 351
L 48 351
L 51 351
L 53 351
L 56 351
L 58 351
L 61 351
L 63 351
L 66 351
L 68 351
L 71 351
L 73 351
L 76 351
L 78 351
L 81 351
L 83 351
L 86 351
L 88 351
L 90 351
L 93 351
L 95 351
L 98 351
L 100 351
L 103 351
L 105 351
L 108 351
L 110 351
L 113 351
L 115 350
L 118 351
L 120 351
L 123 351
L 125 351
L 128 351
L 130 351
L 133 351
L 135 351
L 138 351
L 140 351
L 142 351
L 145 351
L 147 351
L 150 351
L 152 351
L 155 351
L 157 351
L 160 351
L 162 351
L 165 351
L 167 351
L 170 351
L 172 351
L 175 351
L 177 351
L 180 351
L 182 351
L 185 351
L 187 351
L 190 351
L 192 351
L 194 351
L 197 351
L 199 351
L 202 351
L 204 351
L 207 351
L 209 351
L 212 351
L 214 351
L 217 351
L 219 351
L 222 351
L 224 351
L 227 351
L 229 351
L 232 351
L 234 351
L 237 351
L 239 351
L 242 351
L 244 351
L 246 351
L 249 351
L 251 351
L 254 351
L 256 351
L 259 351
L 261 351
L 264 351
L 266 351
L 269 351
L 271 351
L 274 351
L 276 351
L 279 351
L 281 351
L 284 351
L 286 351
L 289 351
L 291 351
L 294 351
L 296 351
L 298 351
L 301 351
L 303 351
L 306 351
L 308 351
L 311 351
L 313 351
L 316 351
L 318 351
L 321 351
L 323 351
L 326 351
L 328 351
L 331 351
L 333 351
L 336 351
L 338 351
L 341 351
L 343 351
L 346 351
L 348 351
L 350 351
L 353 351
L 355 351
L 358 351
L 360 351
L 363 351
L 365 351
L 368 351
L 370 351
L 373 351
L 375 351
L 378 351
L 380 351
L 383 351
L 385 351
L 388 351
L 390 351
L 393 351
L 395 351
L 398 351
L 400 351
L 402 351
L 405 351
L 407 351
L 410 351
L 412 351
L 415 351
L 417 351
L 420 351
L 422 351
L 425 351
L 427 351
L 430 351
L 432 351
L 435 351
L 437 351
L 440 351
L 442 351
L 445 351
L 447 351
L 450 351
L 452 351
L 454 351
L 457 351
L 459 351
L 462 351
L 464 351
L 467 351
L 469 351
L 472 351
L 474 351
L 477 351
L 479 351
L 482 351
L 484 351
L 487 351
L 489 351
L 492 351
L 494 351
L 497 351
L 499 351
L 502 351
L 504 351
L 506 351
L 509 351
L 511 351
L 514 351
L 516 351
L 519 351
L 521 351
L 524 351
L 526 351
L 529 351
L 531 351
L 534 351
L 536 351
L 539 351
L 541 351
L 544 351
L 546 351
L 549 351
L 551 351
L 554 351
L 556 351
L 558 351
L 561 351
L 563 351
L 566 351
L 568 351
L 571 351
L 573 351
L 576 351
L 578 351
L 581 351
L 583 351
L 586 351
L 588 351
L 591 351
L 593 351
L 596 351
L 598 351
L 601 351
L 603 351
L 606 351
L 608 351
L 610 351
L 613 351
L 615 351
L 618 351
L 620 351
L 623 351
L 625 351
L 628 351
L 630 351
L 633 350
L 635 350
L 638 351
L 640 350
L 643 351
L 645 351
L 648 351
L 650 351
L 653 351
L 655 351
L 658 350
L 660 350
L 662 351
L 665 351
L 667 350
L 670 351
L 672 350
L 675 351
L 677 351
L 680 351
L 682 350
L 685 351
L 687 350
L 690 350
L 692 351
L 695 351
L 697 350
L 700 349
L 702 350
L 705 350
L 707 351
L 710 350
L 712 350
L 714 350
L 717 349
L 719 350
L 722 350
L 724 350
L 727 349
L 729 350
L 732 351
L 734 349
L 737 349
L 739 350
L 742 351
L 744 350
L 747 351
L 749 351
L 752 349
L 754 351
L 757 350
L 759 349
L 762 351
L 764 351
L 766 351
L 769 351
L 771 351
L 774 350
L 776 350
L 779 351
L 781 350
L 784 351
L 786 350
L 789 351
L 791 351
L 794 350
L 796 350
L 799 351
L 801 351
L 804 350
L 806 350
L 809 351
L 811 351
L 814 351
L 816 351
L 818 351
L 821 351
L 823 350
L 826 351
L 828 351
L 831 351
L 833 351
L 836 351
L 838 351
L 841 351
L 843 351
L 846 351
L 848 351
L 851 350
L 853 351
L 856 350
L 858 351
L 861 351
L 863 351
L 866 350
L 868 350
L 870 351
L 873 350
L 875 351
L 878 351
L 880 351
L 883 350
L 885 351
L 888 351
L 890 351
L 893 351
L 895 351
L 898 351
L 900 351
L 903 351
L 905 351
L 908 351
L 910 351
L 913 351
L 915 351
L 918 351
L 920 351
L 922 351
L 925 351
L 927 351
L 930 351
L 932 351
L 935 351
L 937 351
L 940 351
L 942 351
L 945 351
L 947 351
L 950 351
L 952 351
L 955 351
L 957 351
L 960 350
L 962 351
L 965 351
L 967 351
L 969 351" style="stroke-width:1;stroke:rgba(217,0,116,1.0);fill:none"/><text x="385" y="33" style="stroke-width:0;stroke:none;fill:rgba(51,51,51,1.0);font-size:23.0px;font-family:'Roboto Medium',sans-serif">Grieskirchen 08.03.2021</text><path  d="M 38 11
L 251 11
L 251 91
L 38 91
L 38 11" style="stroke-width:1;stroke:rgba(51,51,51,1.0);fill:rgba(255,255,255,1.0)"/><text x="43" y="26" style="stroke-width:0;stroke:none;fill:rgba(51,51,51,1.0);font-size:10.2px;font-family:'Roboto Medium',sans-serif">Sieben Tage Durschnitt Inzidenz Fälle</text><path  d="M 221 21
L 241 21" style="stroke-width:1;stroke:rgba(0,116,217,1.0);fill:none"/><text x="43" y="56" style="stroke-width:0;stroke:none;fill:rgba(51,51,51,1.0);font-size:10.2px;font-family:'Roboto Medium',sans-serif">Anzahl Faelle</text><path  d="M 110 51
L 241 51" style="stroke-width:1;stroke:rgba(0,217,101,1.0);fill:none"/><text x="43" y="86" style="stroke-width:0;stroke:none;fill:rgba(51,51,51,1.0);font-size:10.2px;font-family:'Roboto Medium',sans-serif">Anzahl Tot</text><path  d="M 98 81
L 241 81" style="stroke-width:1;stroke:rgba(217,0,116,1.0);fill:none"/></svg>