<svg xmlns="http://www.w3.org/2000/svg" xmlns:xlink="http://www.w3.org/1999/xlink" width="1024" height="400">\n<path  d="M 0 0
L 1024 0
L 1024 400
L 0 400
L 0 0" style="stroke-width:0;stroke:rgba(255,255,255,1.0);fill:rgba(255,255,255,1.0)"/><path  d="M 38 11
L 961 11
L 961 351
L 38 351
L 38 11" style="stroke-width:0;stroke:rgba(255,255,255,1.0);fill:rgba(255,255,255,1.0)"/><path  d="M 38 351
L 961 351" style="stroke-width:1;stroke:rgba(51,51,51,1.0);fill:none"/><path  d="M 38 351
L 38 356" style="stroke-width:1;stroke:rgba(51,51,51,1.0);fill:none"/><text x="5" y="373" style="stroke-width:0;stroke:none;fill:rgba(51,51,51,1.0);font-size:12.8px;font-family:'Roboto Medium',sans-serif">2020-02-26</text><path  d="M 154 351
L 154 356" style="stroke-width:1;stroke:rgba(51,51,51,1.0);fill:none"/><text x="121" y="373" style="stroke-width:0;stroke:none;fill:rgba(51,51,51,1.0);font-size:12.8px;font-family:'Roboto Medium',sans-serif">2020-06-16</text><path  d="M 269 351
L 269 356" style="stroke-width:1;stroke:rgba(51,51,51,1.0);fill:none"/><text x="236" y="373" style="stroke-width:0;stroke:none;fill:rgba(51,51,51,1.0);font-size:12.8px;font-family:'Roboto Medium',sans-serif">2020-10-05</text><path  d="M 385 351
L 385 356" style="stroke-width:1;stroke:rgba(51,51,51,1.0);fill:none"/><text x="352" y="373" style="stroke-width:0;stroke:none;fill:rgba(51,51,51,1.0);font-size:12.8px;font-family:'Roboto Medium',sans-serif">2021-01-24</text><path  d="M 500 351
L 500 356" style="stroke-width:1;stroke:rgba(51,51,51,1.0);fill:none"/><text x="467" y="373" style="stroke-width:0;stroke:none;fill:rgba(51,51,51,1.0);font-size:12.8px;font-family:'Roboto Medium',sans-serif">2021-05-15</text><path  d="M 615 351
L 615 356" style="stroke-width:1;stroke:rgba(51,51,51,1.0);fill:none"/><text x="582" y="373" style="stroke-width:0;stroke:none;fill:rgba(51,51,51,1.0);font-size:12.8px;font-family:'Roboto Medium',sans-serif">2021-09-03</text><path  d="M 731 351
L 731 356" style="stroke-width:1;stroke:rgba(51,51,51,1.0);fill:none"/><text x="698" y="373" style="stroke-width:0;stroke:none;fill:rgba(51,51,51,1.0);font-size:12.8px;font-family:'Roboto Medium',sans-serif">2021-12-23</text><path  d="M 846 351
L 846 356" style="stroke-width:1;stroke:rgba(51,51,51,1.0);fill:none"/><text x="813" y="373" style="stroke-width:0;stroke:none;fill:rgba(51,51,51,1.0);font-size:12.8px;font-family:'Roboto Medium',sans-serif">2022-04-13</text><path  d="M 961 351
L 961 356" style="stroke-width:1;stroke:rgba(51,51,51,1.0);fill:none"/><text x="928" y="373" style="stroke-width:0;stroke:none;fill:rgba(51,51,51,1.0);font-size:12.8px;font-family:'Roboto Medium',sans-serif">2022-08-02</text><text x="481" y="395" style="stroke-width:0;stroke:none;fill:rgba(51,51,51,1.0);font-size:12.8px;font-family:'Roboto Medium',sans-serif">Datum</text><path  d="M 962 351
L 962 11" style="stroke-width:1;stroke:rgba(51,51,51,1.0);fill:none"/><path  d="M 962 351
L 967 351" style="stroke-width:1;stroke:rgba(51,51,51,1.0);fill:none"/><text x="972" y="357" style="stroke-width:0;stroke:none;fill:rgba(51,51,51,1.0);font-size:12.8px;font-family:'Roboto Medium',sans-serif">0.00</text><path  d="M 962 307
L 967 307" style="stroke-width:1;stroke:rgba(51,51,51,1.0);fill:none"/><text x="972" y="313" style="stroke-width:0;stroke:none;fill:rgba(51,51,51,1.0);font-size:12.8px;font-family:'Roboto Medium',sans-serif">470.00</text><path  d="M 962 265
L 967 265" style="stroke-width:1;stroke:rgba(51,51,51,1.0);fill:none"/><text x="972" y="271" style="stroke-width:0;stroke:none;fill:rgba(51,51,51,1.0);font-size:12.8px;font-family:'Roboto Medium',sans-serif">930.00</text><path  d="M 962 223
L 967 223" style="stroke-width:1;stroke:rgba(51,51,51,1.0);fill:none"/><text x="972" y="229" style="stroke-width:0;stroke:none;fill:rgba(51,51,51,1.0);font-size:12.8px;font-family:'Roboto Medium',sans-serif">1390.00</text><path  d="M 962 181
L 967 181" style="stroke-width:1;stroke:rgba(51,51,51,1.0);fill:none"/><text x="972" y="187" style="stroke-width:0;stroke:none;fill:rgba(51,51,51,1.0);font-size:12.8px;font-family:'Roboto Medium',sans-serif">1850.00</text><path  d="M 962 137
L 967 137" style="stroke-width:1;stroke:rgba(51,51,51,1.0);fill:none"/><text x="972" y="143" style="stroke-width:0;stroke:none;fill:rgba(51,51,51,1.0);font-size:12.8px;font-family:'Roboto Medium',sans-serif">2320.00</text><path  d="M 962 95
L 967 95" style="stroke-width:1;stroke:rgba(51,51,51,1.0);fill:none"/><text x="972" y="101" style="stroke-width:0;stroke:none;fill:rgba(51,51,51,1.0);font-size:12.8px;font-family:'Roboto Medium',sans-serif">2780.00</text><path  d="M 962 53
L 967 53" style="stroke-width:1;stroke:rgba(51,51,51,1.0);fill:none"/><text x="972" y="59" style="stroke-width:0;stroke:none;fill:rgba(51,51,51,1.0);font-size:12.8px;font-family:'Roboto Medium',sans-serif">3240.00</text><path  d="M 962 11
L 967 11" style="stroke-width:1;stroke:rgba(51,51,51,1.0);fill:none"/><text x="972" y="17" style="stroke-width:0;stroke:none;fill:rgba(51,51,51,1.0);font-size:12.8px;font-family:'Roboto Medium',sans-serif">3700.00</text><path  d="M 38 351
L 40 351
L 41 351
L 42 351
L 43 351
L 44 351
L 45 351
L 46 351
L 47 351
L 48 351
L 49 351
L 50 351
L 51 351
L 52 351
L 53 351
L 54 351
L 55 351
L 56 351
L 57 350
L 58 350
L 59 350
L 60 350
L 61 350
L 62 350
L 63 350
L 64 349
L 66 349
L 67 349
L 68 348
L 69 348
L 70 348
L 71 348
L 72 348
L 73 348
L 74 348
L 75 348
L 76 348
L 77 348
L 78 348
L 79 349
L 80 348
L 81 348
L 82 348
L 83 349
L 84 349
L 85 349
L 86 349
L 87 350
L 88 350
L 89 350
L 90 350
L 92 350
L 93 350
L 94 350
L 95 350
L 96 350
L 97 350
L 98 350
L 99 350
L 100 350
L 101 350
L 102 350
L 103 350
L 104 350
L 105 350
L 106 350
L 107 350
L 108 350
L 109 350
L 110 350
L 111 350
L 112 350
L 113 350
L 114 350
L 115 350
L 116 350
L 117 351
L 119 351
L 120 351
L 121 351
L 122 350
L 123 350
L 124 350
L 125 350
L 126 350
L 127 350
L 128 350
L 129 350
L 130 350
L 131 350
L 132 350
L 133 350
L 134 350
L 135 350
L 136 350
L 137 351
L 138 350
L 139 350
L 140 350
L 141 350
L 142 350
L 143 350
L 145 350
L 146 350
L 147 350
L 148 350
L 149 350
L 150 350
L 151 350
L 152 350
L 153 350
L 154 350
L 155 350
L 156 350
L 157 350
L 158 350
L 159 350
L 160 350
L 161 350
L 162 350
L 163 350
L 164 350
L 165 350
L 166 350
L 167 350
L 168 350
L 169 350
L 171 350
L 172 350
L 173 350
L 174 350
L 175 350
L 176 350
L 177 350
L 178 350
L 179 350
L 180 350
L 181 350
L 182 350
L 183 350
L 184 350
L 185 350
L 186 350
L 187 350
L 188 350
L 189 350
L 190 350
L 191 350
L 192 350
L 193 350
L 194 350
L 195 350
L 196 350
L 198 349
L 199 350
L 200 350
L 201 350
L 202 350
L 203 350
L 204 350
L 205 350
L 206 350
L 207 350
L 208 350
L 209 350
L 210 350
L 211 350
L 212 350
L 213 350
L 214 350
L 215 350
L 216 349
L 217 349
L 218 349
L 219 349
L 220 349
L 221 349
L 222 349
L 224 349
L 225 349
L 226 349
L 227 348
L 228 349
L 229 349
L 230 349
L 231 348
L 232 348
L 233 349
L 234 349
L 235 348
L 236 348
L 237 348
L 238 349
L 239 348
L 240 348
L 241 349
L 242 348
L 243 348
L 244 348
L 245 348
L 246 348
L 247 347
L 248 347
L 250 346
L 251 345
L 252 345
L 253 344
L 254 344
L 255 343
L 256 344
L 257 345
L 258 345
L 259 345
L 260 346
L 261 345
L 262 346
L 263 346
L 264 346
L 265 346
L 266 347
L 267 346
L 268 346
L 269 346
L 270 345
L 271 345
L 272 344
L 273 342
L 274 343
L 275 342
L 277 342
L 278 342
L 279 342
L 280 342
L 281 343
L 282 343
L 283 343
L 284 342
L 285 343
L 286 342
L 287 341
L 288 342
L 289 340
L 290 339
L 291 339
L 292 338
L 293 338
L 294 338
L 295 337
L 296 338
L 297 337
L 298 336
L 299 335
L 300 334
L 301 333
L 303 332
L 304 329
L 305 330
L 306 331
L 307 330
L 308 329
L 309 331
L 310 331
L 311 333
L 312 333
L 313 333
L 314 334
L 315 336
L 316 336
L 317 336
L 318 335
L 319 336
L 320 337
L 321 337
L 322 337
L 323 337
L 324 338
L 325 340
L 326 338
L 327 338
L 328 338
L 330 339
L 331 340
L 332 340
L 333 340
L 334 339
L 335 340
L 336 340
L 337 341
L 338 341
L 339 342
L 340 342
L 341 342
L 342 341
L 343 340
L 344 338
L 345 338
L 346 337
L 347 336
L 348 337
L 349 338
L 350 338
L 351 337
L 352 337
L 353 338
L 354 339
L 356 338
L 357 338
L 358 337
L 359 338
L 360 337
L 361 336
L 362 335
L 363 335
L 364 335
L 365 335
L 366 336
L 367 336
L 368 336
L 369 337
L 370 337
L 371 338
L 372 340
L 373 340
L 374 340
L 375 342
L 376 341
L 377 340
L 378 340
L 379 340
L 380 340
L 382 340
L 383 339
L 384 339
L 385 339
L 386 339
L 387 338
L 388 336
L 389 335
L 390 336
L 391 335
L 392 334
L 393 334
L 394 335
L 395 335
L 396 336
L 397 335
L 398 336
L 399 336
L 400 335
L 401 336
L 402 335
L 403 335
L 404 336
L 405 337
L 406 338
L 407 339
L 409 339
L 410 340
L 411 339
L 412 335
L 413 333
L 414 333
L 415 330
L 416 330
L 417 328
L 418 328
L 419 331
L 420 329
L 421 328
L 422 329
L 423 327
L 424 327
L 425 326
L 426 323
L 427 324
L 428 325
L 429 327
L 430 329
L 431 329
L 432 330
L 433 333
L 435 332
L 436 333
L 437 331
L 438 332
L 439 333
L 440 332
L 441 328
L 442 329
L 443 327
L 444 329
L 445 326
L 446 324
L 447 326
L 448 330
L 449 332
L 450 331
L 451 331
L 452 331
L 453 331
L 454 330
L 455 329
L 456 328
L 457 328
L 458 328
L 459 330
L 461 332
L 462 332
L 463 333
L 464 334
L 465 335
L 466 335
L 467 336
L 468 336
L 469 336
L 470 337
L 471 335
L 472 336
L 473 336
L 474 337
L 475 336
L 476 335
L 477 335
L 478 337
L 479 337
L 480 337
L 481 336
L 482 337
L 483 339
L 484 339
L 485 341
L 486 342
L 488 343
L 489 344
L 490 345
L 491 345
L 492 346
L 493 344
L 494 344
L 495 345
L 496 345
L 497 345
L 498 345
L 499 346
L 500 347
L 501 347
L 502 345
L 503 345
L 504 345
L 505 344
L 506 344
L 507 343
L 508 342
L 509 343
L 510 343
L 511 343
L 512 343
L 514 343
L 515 343
L 516 344
L 517 345
L 518 345
L 519 346
L 520 345
L 521 345
L 522 346
L 523 346
L 524 346
L 525 346
L 526 347
L 527 348
L 528 348
L 529 349
L 530 349
L 531 349
L 532 349
L 533 349
L 534 349
L 535 349
L 536 349
L 537 349
L 538 349
L 539 349
L 541 349
L 542 349
L 543 349
L 544 349
L 545 350
L 546 349
L 547 350
L 548 350
L 549 349
L 550 349
L 551 350
L 552 350
L 553 349
L 554 349
L 555 349
L 556 350
L 557 349
L 558 349
L 559 349
L 560 349
L 561 349
L 562 349
L 563 349
L 564 348
L 565 348
L 567 348
L 568 348
L 569 348
L 570 348
L 571 349
L 572 349
L 573 349
L 574 349
L 575 349
L 576 349
L 577 349
L 578 349
L 579 349
L 580 349
L 581 349
L 582 349
L 583 348
L 584 348
L 585 347
L 586 346
L 587 347
L 588 347
L 589 346
L 590 347
L 591 346
L 593 346
L 594 346
L 595 346
L 596 345
L 597 345
L 598 344
L 599 344
L 600 344
L 601 344
L 602 344
L 603 343
L 604 343
L 605 343
L 606 343
L 607 343
L 608 342
L 609 342
L 610 342
L 611 343
L 612 343
L 613 343
L 614 343
L 615 343
L 616 342
L 617 343
L 618 342
L 620 342
L 621 342
L 622 341
L 623 341
L 624 341
L 625 341
L 626 341
L 627 341
L 628 341
L 629 342
L 630 342
L 631 342
L 632 342
L 633 342
L 634 341
L 635 342
L 636 342
L 637 342
L 638 343
L 639 342
L 640 342
L 641 342
L 642 341
L 643 341
L 644 342
L 646 341
L 647 341
L 648 342
L 649 341
L 650 340
L 651 340
L 652 339
L 653 340
L 654 340
L 655 340
L 656 342
L 657 343
L 658 343
L 659 343
L 660 342
L 661 342
L 662 342
L 663 341
L 664 340
L 665 339
L 666 338
L 667 338
L 668 337
L 669 336
L 670 335
L 672 334
L 673 333
L 674 331
L 675 328
L 676 326
L 677 324
L 678 323
L 679 321
L 680 320
L 681 318
L 682 319
L 683 318
L 684 316
L 685 316
L 686 313
L 687 313
L 688 312
L 689 310
L 690 309
L 691 310
L 692 309
L 693 310
L 694 310
L 695 313
L 696 309
L 697 310
L 699 309
L 700 308
L 701 308
L 702 309
L 703 310
L 704 314
L 705 315
L 706 317
L 707 319
L 708 322
L 709 323
L 710 323
L 711 326
L 712 328
L 713 330
L 714 331
L 715 332
L 716 333
L 717 333
L 718 334
L 719 334
L 720 334
L 721 334
L 722 336
L 723 336
L 725 337
L 726 337
L 727 337
L 728 338
L 729 338
L 730 338
L 731 338
L 732 338
L 733 339
L 734 339
L 735 338
L 736 338
L 737 337
L 738 336
L 739 336
L 740 335
L 741 333
L 742 331
L 743 325
L 744 318
L 745 314
L 746 308
L 747 303
L 748 296
L 749 290
L 750 286
L 752 279
L 753 273
L 754 265
L 755 261
L 756 257
L 757 255
L 758 245
L 759 243
L 760 231
L 761 226
L 762 220
L 763 210
L 764 202
L 765 199
L 766 189
L 767 181
L 768 176
L 769 170
L 770 176
L 771 180
L 772 169
L 773 171
L 774 175
L 775 176
L 776 171
L 778 169
L 779 165
L 780 173
L 781 175
L 782 178
L 783 177
L 784 183
L 785 180
L 786 179
L 787 166
L 788 166
L 789 166
L 790 169
L 791 173
L 792 177
L 793 185
L 794 192
L 795 191
L 796 187
L 797 192
L 798 190
L 799 189
L 800 180
L 801 178
L 802 177
L 804 175
L 805 164
L 806 159
L 807 151
L 808 144
L 809 126
L 810 105
L 811 81
L 812 72
L 813 57
L 814 45
L 815 39
L 816 20
L 817 26
L 818 21
L 819 15
L 820 15
L 821 16
L 822 26
L 823 30
L 824 27
L 825 42
L 826 50
L 827 60
L 828 69
L 829 69
L 831 85
L 832 104
L 833 118
L 834 129
L 835 140
L 836 155
L 837 164
L 838 186
L 839 193
L 840 200
L 841 209
L 842 213
L 843 216
L 844 221
L 845 232
L 846 237
L 847 245
L 848 246
L 849 252
L 850 255
L 851 261
L 852 269
L 853 268
L 854 271
L 855 278
L 857 282
L 858 284
L 859 284
L 860 284
L 861 290
L 862 295
L 863 296
L 864 295
L 865 293
L 866 290
L 867 292
L 868 290
L 869 286
L 870 287
L 871 288
L 872 289
L 873 293
L 874 295
L 875 299
L 876 306
L 877 309
L 878 311
L 879 314
L 880 318
L 881 318
L 883 319
L 884 319
L 885 319
L 886 320
L 887 321
L 888 321
L 889 324
L 890 327
L 891 328
L 892 330
L 893 330
L 894 331
L 895 332
L 896 331
L 897 330
L 898 328
L 899 328
L 900 327
L 901 326
L 902 325
L 903 324
L 904 322
L 905 320
L 906 320
L 907 318
L 908 316
L 910 314
L 911 308
L 912 307
L 913 304
L 914 299
L 915 299
L 916 293
L 917 287
L 918 280
L 919 276
L 920 271
L 921 267
L 922 262
L 923 260
L 924 257
L 925 259
L 926 254
L 927 251
L 928 252
L 929 249
L 930 251
L 931 255
L 932 253
L 933 259
L 934 261
L 936 261
L 937 263
L 938 265
L 939 265
L 940 265
L 941 267
L 942 265
L 943 262
L 944 262
L 945 260
L 946 255
L 947 258
L 948 250
L 949 248
L 950 250
L 951 253
L 952 249
L 953 250
L 954 249
L 955 254
L 956 265
L 957 268
L 958 268
L 959 275
L 960 285
L 961 288" style="stroke-width:1;stroke:rgba(0,116,217,1.0);fill:none"/><path  d="M 38 351
L 40 351
L 41 351
L 42 351
L 43 351
L 44 351
L 45 351
L 46 351
L 47 351
L 48 351
L 49 351
L 50 351
L 51 351
L 52 351
L 53 351
L 54 351
L 55 351
L 56 351
L 57 350
L 58 351
L 59 351
L 60 351
L 61 351
L 62 350
L 63 350
L 64 350
L 66 350
L 67 350
L 68 350
L 69 350
L 70 350
L 71 350
L 72 350
L 73 350
L 74 350
L 75 350
L 76 350
L 77 350
L 78 351
L 79 351
L 80 350
L 81 350
L 82 350
L 83 351
L 84 350
L 85 351
L 86 351
L 87 350
L 88 351
L 89 350
L 90 350
L 92 351
L 93 351
L 94 351
L 95 350
L 96 351
L 97 350
L 98 350
L 99 350
L 100 351
L 101 351
L 102 351
L 103 351
L 104 350
L 105 351
L 106 351
L 107 351
L 108 351
L 109 351
L 110 350
L 111 351
L 112 351
L 113 351
L 114 351
L 115 351
L 116 351
L 117 351
L 119 351
L 120 351
L 121 351
L 122 350
L 123 350
L 124 350
L 125 351
L 126 351
L 127 351
L 128 351
L 129 351
L 130 350
L 131 351
L 132 351
L 133 351
L 134 351
L 135 351
L 136 351
L 137 351
L 138 350
L 139 351
L 140 351
L 141 351
L 142 350
L 143 351
L 145 351
L 146 351
L 147 351
L 148 351
L 149 351
L 150 350
L 151 351
L 152 351
L 153 351
L 154 351
L 155 351
L 156 350
L 157 350
L 158 351
L 159 350
L 160 351
L 161 351
L 162 351
L 163 351
L 164 350
L 165 351
L 166 351
L 167 351
L 168 350
L 169 351
L 171 351
L 172 351
L 173 351
L 174 350
L 175 351
L 176 351
L 177 351
L 178 350
L 179 351
L 180 351
L 181 351
L 182 350
L 183 350
L 184 350
L 185 351
L 186 350
L 187 351
L 188 351
L 189 351
L 190 350
L 191 350
L 192 350
L 193 350
L 194 350
L 195 350
L 196 351
L 198 350
L 199 351
L 200 350
L 201 350
L 202 351
L 203 351
L 204 350
L 205 350
L 206 350
L 207 350
L 208 351
L 209 351
L 210 351
L 211 351
L 212 350
L 213 350
L 214 350
L 215 350
L 216 350
L 217 350
L 218 350
L 219 351
L 220 350
L 221 350
L 222 350
L 224 350
L 225 350
L 226 350
L 227 350
L 228 351
L 229 350
L 230 350
L 231 349
L 232 351
L 233 350
L 234 350
L 235 350
L 236 350
L 237 350
L 238 350
L 239 350
L 240 350
L 241 350
L 242 350
L 243 350
L 244 350
L 245 350
L 246 350
L 247 350
L 248 349
L 250 349
L 251 349
L 252 350
L 253 349
L 254 350
L 255 349
L 256 350
L 257 350
L 258 350
L 259 349
L 260 350
L 261 350
L 262 350
L 263 350
L 264 350
L 265 350
L 266 350
L 267 349
L 268 350
L 269 349
L 270 349
L 271 349
L 272 349
L 273 348
L 274 350
L 275 349
L 277 349
L 278 349
L 279 349
L 280 350
L 281 349
L 282 350
L 283 350
L 284 348
L 285 349
L 286 349
L 287 349
L 288 349
L 289 348
L 290 349
L 291 348
L 292 348
L 293 348
L 294 349
L 295 348
L 296 349
L 297 348
L 298 348
L 299 347
L 300 347
L 301 347
L 303 348
L 304 346
L 305 348
L 306 349
L 307 347
L 308 345
L 309 349
L 310 347
L 311 349
L 312 348
L 313 348
L 314 348
L 315 348
L 316 348
L 317 347
L 318 348
L 319 350
L 320 349
L 321 348
L 322 348
L 323 349
L 324 349
L 325 349
L 326 349
L 327 348
L 328 349
L 330 349
L 331 349
L 332 349
L 333 349
L 334 348
L 335 349
L 336 349
L 337 350
L 338 349
L 339 350
L 340 349
L 341 348
L 342 348
L 343 348
L 344 348
L 345 348
L 346 349
L 347 348
L 348 349
L 349 349
L 350 348
L 351 347
L 352 349
L 353 349
L 354 349
L 356 349
L 357 349
L 358 347
L 359 348
L 360 348
L 361 348
L 362 349
L 363 348
L 364 348
L 365 347
L 366 349
L 367 349
L 368 348
L 369 349
L 370 349
L 371 349
L 372 349
L 373 349
L 374 349
L 375 350
L 376 348
L 377 349
L 378 349
L 379 348
L 380 349
L 382 349
L 383 349
L 384 348
L 385 349
L 386 349
L 387 347
L 388 348
L 389 348
L 390 349
L 391 348
L 392 348
L 393 349
L 394 348
L 395 349
L 396 348
L 397 348
L 398 349
L 399 348
L 400 348
L 401 348
L 402 348
L 403 348
L 404 350
L 405 349
L 406 349
L 407 349
L 409 348
L 410 349
L 411 347
L 412 346
L 413 347
L 414 348
L 415 346
L 416 348
L 417 347
L 418 348
L 419 348
L 420 345
L 421 348
L 422 347
L 423 346
L 424 347
L 425 347
L 426 344
L 427 347
L 428 349
L 429 348
L 430 348
L 431 348
L 432 347
L 433 347
L 435 346
L 436 350
L 437 346
L 438 349
L 439 349
L 440 346
L 441 344
L 442 347
L 443 348
L 444 347
L 445 347
L 446 347
L 447 348
L 448 348
L 449 348
L 450 347
L 451 347
L 452 346
L 453 346
L 454 347
L 455 348
L 456 347
L 457 348
L 458 347
L 459 348
L 461 348
L 462 348
L 463 348
L 464 349
L 465 348
L 466 348
L 467 348
L 468 348
L 469 349
L 470 348
L 471 347
L 472 349
L 473 349
L 474 349
L 475 347
L 476 347
L 477 349
L 478 349
L 479 349
L 480 349
L 481 348
L 482 349
L 483 349
L 484 349
L 485 351
L 486 350
L 488 350
L 489 349
L 490 350
L 491 349
L 492 350
L 493 349
L 494 350
L 495 350
L 496 350
L 497 350
L 498 350
L 499 350
L 500 350
L 501 350
L 502 348
L 503 349
L 504 350
L 505 350
L 506 349
L 507 349
L 508 349
L 509 349
L 510 349
L 511 349
L 512 350
L 514 349
L 515 349
L 516 350
L 517 350
L 518 350
L 519 350
L 520 349
L 521 350
L 522 350
L 523 350
L 524 350
L 525 350
L 526 350
L 527 350
L 528 350
L 529 350
L 530 350
L 531 351
L 532 350
L 533 350
L 534 351
L 535 350
L 536 351
L 537 350
L 538 351
L 539 350
L 541 350
L 542 351
L 543 350
L 544 350
L 545 350
L 546 350
L 547 350
L 548 350
L 549 350
L 550 350
L 551 351
L 552 350
L 553 350
L 554 350
L 555 350
L 556 351
L 557 350
L 558 350
L 559 350
L 560 350
L 561 350
L 562 350
L 563 350
L 564 349
L 565 350
L 567 350
L 568 350
L 569 350
L 570 351
L 571 350
L 572 350
L 573 350
L 574 350
L 575 350
L 576 350
L 577 350
L 578 350
L 579 350
L 580 350
L 581 350
L 582 350
L 583 350
L 584 350
L 585 350
L 586 349
L 587 350
L 588 350
L 589 350
L 590 350
L 591 350
L 593 350
L 594 349
L 595 350
L 596 350
L 597 349
L 598 349
L 599 349
L 600 349
L 601 349
L 602 349
L 603 350
L 604 349
L 605 350
L 606 349
L 607 349
L 608 348
L 609 350
L 610 349
L 611 350
L 612 349
L 613 349
L 614 349
L 615 349
L 616 349
L 617 350
L 618 349
L 620 349
L 621 348
L 622 349
L 623 349
L 624 349
L 625 350
L 626 349
L 627 350
L 628 348
L 629 349
L 630 349
L 631 349
L 632 350
L 633 350
L 634 349
L 635 350
L 636 349
L 637 349
L 638 349
L 639 350
L 640 349
L 641 348
L 642 349
L 643 349
L 644 349
L 646 349
L 647 350
L 648 349
L 649 347
L 650 348
L 651 350
L 652 348
L 653 350
L 654 349
L 655 350
L 656 349
L 657 349
L 658 350
L 659 349
L 660 349
L 661 349
L 662 349
L 663 348
L 664 348
L 665 348
L 666 348
L 667 348
L 668 349
L 669 348
L 670 347
L 672 348
L 673 346
L 674 346
L 675 344
L 676 347
L 677 346
L 678 345
L 679 346
L 680 345
L 681 344
L 682 346
L 683 346
L 684 344
L 685 345
L 686 343
L 687 345
L 688 343
L 689 344
L 690 345
L 691 345
L 692 344
L 693 345
L 694 345
L 695 346
L 696 340
L 697 345
L 699 344
L 700 343
L 701 344
L 702 346
L 703 347
L 704 345
L 705 347
L 706 346
L 707 346
L 708 347
L 709 347
L 710 347
L 711 348
L 712 348
L 713 348
L 714 348
L 715 348
L 716 348
L 717 347
L 718 348
L 719 348
L 720 349
L 721 347
L 722 349
L 723 348
L 725 348
L 726 348
L 727 349
L 728 349
L 729 347
L 730 349
L 731 349
L 732 348
L 733 350
L 734 349
L 735 348
L 736 348
L 737 348
L 738 348
L 739 348
L 740 348
L 741 347
L 742 345
L 743 341
L 744 341
L 745 343
L 746 342
L 747 342
L 748 341
L 749 339
L 750 337
L 752 334
L 753 336
L 754 334
L 755 337
L 756 337
L 757 336
L 758 326
L 759 331
L 760 323
L 761 329
L 762 331
L 763 326
L 764 327
L 765 323
L 766 321
L 767 314
L 768 324
L 769 324
L 770 332
L 771 332
L 772 311
L 773 323
L 774 318
L 775 325
L 776 319
L 778 331
L 779 327
L 780 319
L 781 325
L 782 322
L 783 324
L 784 326
L 785 327
L 786 326
L 787 305
L 788 326
L 789 322
L 790 327
L 791 330
L 792 332
L 793 334
L 794 313
L 795 324
L 796 318
L 797 331
L 798 328
L 799 331
L 800 324
L 801 311
L 802 323
L 804 317
L 805 319
L 806 322
L 807 323
L 808 317
L 809 293
L 810 300
L 811 291
L 812 309
L 813 306
L 814 310
L 815 310
L 816 273
L 817 305
L 818 286
L 819 303
L 820 306
L 821 311
L 822 320
L 823 278
L 824 302
L 825 302
L 826 311
L 827 318
L 828 320
L 829 320
L 831 295
L 832 323
L 833 317
L 834 323
L 835 329
L 836 336
L 837 330
L 838 318
L 839 331
L 840 325
L 841 332
L 842 333
L 843 340
L 844 336
L 845 330
L 846 336
L 847 334
L 848 333
L 849 340
L 850 342
L 851 342
L 852 338
L 853 335
L 854 338
L 855 341
L 857 344
L 858 344
L 859 342
L 860 339
L 861 341
L 862 344
L 863 341
L 864 343
L 865 343
L 866 338
L 867 341
L 868 339
L 869 339
L 870 342
L 871 344
L 872 345
L 873 342
L 874 343
L 875 343
L 876 346
L 877 346
L 878 346
L 879 348
L 880 347
L 881 343
L 883 344
L 884 346
L 885 345
L 886 348
L 887 348
L 888 347
L 889 346
L 890 347
L 891 347
L 892 348
L 893 348
L 894 349
L 895 348
L 896 346
L 897 346
L 898 345
L 899 347
L 900 347
L 901 348
L 902 347
L 903 345
L 904 343
L 905 344
L 906 347
L 907 345
L 908 347
L 910 344
L 911 339
L 912 341
L 913 341
L 914 342
L 915 344
L 916 340
L 917 337
L 918 332
L 919 337
L 920 336
L 921 337
L 922 339
L 923 338
L 924 334
L 925 333
L 926 332
L 927 333
L 928 338
L 929 336
L 930 340
L 931 338
L 932 332
L 933 339
L 934 335
L 936 338
L 937 339
L 938 343
L 939 338
L 940 332
L 941 341
L 942 332
L 943 335
L 944 338
L 945 341
L 946 333
L 947 334
L 948 333
L 949 330
L 950 337
L 951 341
L 952 337
L 953 333
L 954 333
L 955 339
L 956 341
L 957 340
L 958 341
L 959 344
L 960 344
L 961 337" style="stroke-width:1;stroke:rgba(0,217,101,1.0);fill:none"/><path  d="M 38 351
L 40 351
L 41 351
L 42 351
L 43 351
L 44 351
L 45 351
L 46 351
L 47 351
L 48 351
L 49 351
L 50 351
L 51 351
L 52 351
L 53 351
L 54 351
L 55 351
L 56 351
L 57 351
L 58 351
L 59 351
L 60 351
L 61 351
L 62 351
L 63 351
L 64 351
L 66 351
L 67 351
L 68 351
L 69 351
L 70 351
L 71 351
L 72 351
L 73 351
L 74 351
L 75 351
L 76 351
L 77 351
L 78 351
L 79 351
L 80 351
L 81 351
L 82 351
L 83 351
L 84 350
L 85 351
L 86 351
L 87 351
L 88 351
L 89 351
L 90 351
L 92 351
L 93 351
L 94 351
L 95 351
L 96 351
L 97 351
L 98 351
L 99 351
L 100 350
L 101 351
L 102 351
L 103 351
L 104 351
L 105 351
L 106 351
L 107 351
L 108 351
L 109 351
L 110 351
L 111 351
L 112 351
L 113 351
L 114 351
L 115 351
L 116 351
L 117 351
L 119 351
L 120 351
L 121 351
L 122 351
L 123 351
L 124 351
L 125 351
L 126 351
L 127 351
L 128 351
L 129 351
L 130 351
L 131 351
L 132 351
L 133 351
L 134 351
L 135 351
L 136 351
L 137 350
L 138 351
L 139 351
L 140 351
L 141 351
L 142 351
L 143 351
L 145 351
L 146 351
L 147 351
L 148 351
L 149 351
L 150 351
L 151 351
L 152 351
L 153 350
L 154 351
L 155 351
L 156 351
L 157 351
L 158 351
L 159 351
L 160 351
L 161 351
L 162 351
L 163 351
L 164 351
L 165 351
L 166 351
L 167 351
L 168 351
L 169 351
L 171 351
L 172 351
L 173 351
L 174 351
L 175 351
L 176 351
L 177 351
L 178 351
L 179 351
L 180 351
L 181 351
L 182 351
L 183 351
L 184 351
L 185 351
L 186 351
L 187 351
L 188 351
L 189 351
L 190 351
L 191 351
L 192 351
L 193 351
L 194 351
L 195 351
L 196 351
L 198 351
L 199 350
L 200 351
L 201 351
L 202 351
L 203 351
L 204 351
L 205 351
L 206 351
L 207 351
L 208 350
L 209 351
L 210 351
L 211 351
L 212 351
L 213 351
L 214 351
L 215 351
L 216 351
L 217 351
L 218 351
L 219 351
L 220 351
L 221 351
L 222 351
L 224 351
L 225 351
L 226 351
L 227 351
L 228 351
L 229 351
L 230 351
L 231 351
L 232 351
L 233 351
L 234 351
L 235 351
L 236 351
L 237 351
L 238 351
L 239 350
L 240 351
L 241 351
L 242 351
L 243 351
L 244 351
L 245 351
L 246 351
L 247 351
L 248 351
L 250 351
L 251 350
L 252 351
L 253 351
L 254 351
L 255 351
L 256 351
L 257 351
L 258 351
L 259 351
L 260 351
L 261 351
L 262 351
L 263 351
L 264 351
L 265 351
L 266 351
L 267 351
L 268 351
L 269 351
L 270 351
L 271 351
L 272 351
L 273 351
L 274 351
L 275 351
L 277 351
L 278 351
L 279 351
L 280 351
L 281 351
L 282 350
L 283 351
L 284 351
L 285 350
L 286 351
L 287 351
L 288 350
L 289 350
L 290 351
L 291 351
L 292 350
L 293 350
L 294 350
L 295 351
L 296 350
L 297 351
L 298 350
L 299 351
L 300 351
L 301 351
L 303 351
L 304 351
L 305 351
L 306 351
L 307 350
L 308 351
L 309 351
L 310 351
L 311 350
L 312 351
L 313 351
L 314 351
L 315 351
L 316 350
L 317 351
L 318 351
L 319 350
L 320 351
L 321 351
L 322 350
L 323 351
L 324 351
L 325 351
L 326 351
L 327 351
L 328 351
L 330 351
L 331 351
L 332 351
L 333 350
L 334 351
L 335 351
L 336 351
L 337 351
L 338 350
L 339 351
L 340 351
L 341 351
L 342 351
L 343 351
L 344 351
L 345 351
L 346 350
L 347 351
L 348 351
L 349 351
L 350 351
L 351 351
L 352 351
L 353 351
L 354 351
L 356 351
L 357 351
L 358 351
L 359 351
L 360 351
L 361 351
L 362 351
L 363 350
L 364 351
L 365 350
L 366 351
L 367 351
L 368 351
L 369 351
L 370 351
L 371 351
L 372 351
L 373 350
L 374 351
L 375 351
L 376 350
L 377 351
L 378 351
L 379 350
L 380 351
L 382 350
L 383 350
L 384 350
L 385 350
L 386 350
L 387 350
L 388 350
L 389 350
L 390 350
L 391 351
L 392 350
L 393 350
L 394 350
L 395 351
L 396 351
L 397 351
L 398 350
L 399 350
L 400 351
L 401 351
L 402 350
L 403 350
L 404 350
L 405 351
L 406 350
L 407 350
L 409 350
L 410 350
L 411 350
L 412 351
L 413 351
L 414 350
L 415 350
L 416 350
L 417 351
L 418 350
L 419 351
L 420 351
L 421 350
L 422 351
L 423 350
L 424 350
L 425 351
L 426 350
L 427 350
L 428 351
L 429 351
L 430 350
L 431 351
L 432 350
L 433 351
L 435 350
L 436 350
L 437 351
L 438 351
L 439 351
L 440 351
L 441 350
L 442 350
L 443 351
L 444 351
L 445 351
L 446 351
L 447 350
L 448 351
L 449 351
L 450 351
L 451 351
L 452 351
L 453 350
L 454 351
L 455 351
L 456 351
L 457 350
L 458 350
L 459 350
L 461 350
L 462 351
L 463 351
L 464 350
L 465 351
L 466 351
L 467 351
L 468 351
L 469 351
L 470 350
L 471 351
L 472 351
L 473 351
L 474 351
L 475 350
L 476 351
L 477 351
L 478 351
L 479 351
L 480 351
L 481 351
L 482 351
L 483 351
L 484 351
L 485 351
L 486 351
L 488 351
L 489 351
L 490 350
L 491 351
L 492 351
L 493 351
L 494 350
L 495 350
L 496 351
L 497 351
L 498 351
L 499 351
L 500 351
L 501 351
L 502 350
L 503 351
L 504 351
L 505 351
L 506 351
L 507 351
L 508 351
L 509 351
L 510 351
L 511 351
L 512 351
L 514 351
L 515 351
L 516 351
L 517 350
L 518 351
L 519 351
L 520 351
L 521 351
L 522 351
L 523 351
L 524 351
L 525 351
L 526 351
L 527 350
L 528 351
L 529 350
L 530 351
L 531 350
L 532 351
L 533 351
L 534 351
L 535 350
L 536 350
L 537 351
L 538 351
L 539 351
L 541 351
L 542 351
L 543 351
L 544 351
L 545 351
L 546 351
L 547 350
L 548 351
L 549 351
L 550 351
L 551 351
L 552 351
L 553 351
L 554 351
L 555 350
L 556 351
L 557 351
L 558 351
L 559 351
L 560 351
L 561 351
L 562 351
L 563 351
L 564 351
L 565 351
L 567 351
L 568 351
L 569 351
L 570 351
L 571 351
L 572 351
L 573 351
L 574 351
L 575 351
L 576 351
L 577 351
L 578 351
L 579 351
L 580 351
L 581 351
L 582 351
L 583 351
L 584 351
L 585 351
L 586 351
L 587 351
L 588 351
L 589 351
L 590 351
L 591 351
L 593 351
L 594 351
L 595 351
L 596 351
L 597 351
L 598 351
L 599 351
L 600 351
L 601 351
L 602 351
L 603 351
L 604 351
L 605 351
L 606 351
L 607 351
L 608 351
L 609 351
L 610 351
L 611 351
L 612 351
L 613 350
L 614 351
L 615 351
L 616 351
L 617 351
L 618 351
L 620 351
L 621 351
L 622 351
L 623 351
L 624 351
L 625 351
L 626 351
L 627 351
L 628 351
L 629 351
L 630 350
L 631 351
L 632 351
L 633 351
L 634 351
L 635 351
L 636 351
L 637 351
L 638 351
L 639 351
L 640 351
L 641 351
L 642 351
L 643 351
L 644 351
L 646 351
L 647 351
L 648 351
L 649 351
L 650 351
L 651 351
L 652 351
L 653 351
L 654 350
L 655 351
L 656 351
L 657 351
L 658 351
L 659 351
L 660 351
L 661 351
L 662 351
L 663 351
L 664 351
L 665 351
L 666 351
L 667 351
L 668 351
L 669 351
L 670 351
L 672 350
L 673 351
L 674 351
L 675 351
L 676 351
L 677 351
L 678 351
L 679 351
L 680 351
L 681 350
L 682 351
L 683 351
L 684 351
L 685 350
L 686 351
L 687 351
L 688 351
L 689 351
L 690 351
L 691 350
L 692 351
L 693 351
L 694 351
L 695 351
L 696 351
L 697 351
L 699 350
L 700 350
L 701 350
L 702 350
L 703 351
L 704 351
L 705 350
L 706 351
L 707 350
L 708 351
L 709 350
L 710 350
L 711 351
L 712 351
L 713 351
L 714 351
L 715 351
L 716 351
L 717 351
L 718 351
L 719 351
L 720 351
L 721 350
L 722 350
L 723 351
L 725 351
L 726 351
L 727 350
L 728 350
L 729 351
L 730 351
L 731 351
L 732 351
L 733 350
L 734 350
L 735 351
L 736 351
L 737 351
L 738 351
L 739 351
L 740 351
L 741 351
L 742 351
L 743 351
L 744 351
L 745 351
L 746 351
L 747 351
L 748 351
L 749 351
L 750 351
L 752 351
L 753 351
L 754 351
L 755 351
L 756 351
L 757 351
L 758 351
L 759 351
L 760 351
L 761 351
L 762 351
L 763 351
L 764 351
L 765 351
L 766 351
L 767 351
L 768 351
L 769 350
L 770 351
L 771 351
L 772 351
L 773 351
L 774 351
L 775 351
L 776 351
L 778 351
L 779 351
L 780 351
L 781 350
L 782 351
L 783 351
L 784 351
L 785 351
L 786 350
L 787 351
L 788 351
L 789 351
L 790 350
L 791 351
L 792 351
L 793 351
L 794 351
L 795 351
L 796 350
L 797 351
L 798 351
L 799 351
L 800 351
L 801 350
L 802 351
L 804 351
L 805 351
L 806 351
L 807 351
L 808 351
L 809 350
L 810 351
L 811 350
L 812 351
L 813 350
L 814 351
L 815 351
L 816 350
L 817 351
L 818 350
L 819 351
L 820 351
L 821 351
L 822 351
L 823 351
L 824 351
L 825 350
L 826 351
L 827 351
L 828 351
L 829 350
L 831 351
L 832 351
L 833 350
L 834 351
L 835 351
L 836 351
L 837 351
L 838 350
L 839 350
L 840 351
L 841 351
L 842 351
L 843 351
L 844 351
L 845 350
L 846 350
L 847 351
L 848 351
L 849 350
L 850 351
L 851 351
L 852 350
L 853 351
L 854 351
L 855 351
L 857 350
L 858 351
L 859 351
L 860 351
L 861 351
L 862 351
L 863 351
L 864 351
L 865 350
L 866 351
L 867 351
L 868 351
L 869 351
L 870 351
L 871 351
L 872 351
L 873 351
L 874 351
L 875 351
L 876 351
L 877 350
L 878 351
L 879 351
L 880 351
L 881 351
L 883 351
L 884 351
L 885 351
L 886 351
L 887 351
L 888 351
L 889 351
L 890 350
L 891 351
L 892 351
L 893 351
L 894 351
L 895 351
L 896 351
L 897 351
L 898 350
L 899 351
L 900 351
L 901 351
L 902 351
L 903 351
L 904 351
L 905 351
L 906 351
L 907 351
L 908 351
L 910 350
L 911 351
L 912 351
L 913 351
L 914 351
L 915 351
L 916 351
L 917 351
L 918 351
L 919 351
L 920 351
L 921 351
L 922 351
L 923 351
L 924 351
L 925 351
L 926 351
L 927 351
L 928 351
L 929 351
L 930 351
L 931 351
L 932 351
L 933 350
L 934 350
L 936 351
L 937 351
L 938 351
L 939 351
L 940 351
L 941 351
L 942 351
L 943 350
L 944 351
L 945 351
L 946 351
L 947 351
L 948 351
L 949 351
L 950 351
L 951 350
L 952 351
L 953 351
L 954 351
L 955 351
L 956 351
L 957 351
L 958 351
L 959 351
L 960 351
L 961 351" style="stroke-width:1;stroke:rgba(217,0,116,1.0);fill:none"/><text x="386" y="33" style="stroke-width:0;stroke:none;fill:rgba(51,51,51,1.0);font-size:23.0px;font-family:'Roboto Medium',sans-serif">Gänserndorf 02.08.2022</text><path  d="M 38 11
L 251 11
L 251 91
L 38 91
L 38 11" style="stroke-width:1;stroke:rgba(51,51,51,1.0);fill:rgba(255,255,255,1.0)"/><text x="43" y="26" style="stroke-width:0;stroke:none;fill:rgba(51,51,51,1.0);font-size:10.2px;font-family:'Roboto Medium',sans-serif">Sieben Tage Durschnitt Inzidenz Fälle</text><path  d="M 221 21
L 241 21" style="stroke-width:1;stroke:rgba(0,116,217,1.0);fill:none"/><text x="43" y="56" style="stroke-width:0;stroke:none;fill:rgba(51,51,51,1.0);font-size:10.2px;font-family:'Roboto Medium',sans-serif">Anzahl Faelle</text><path  d="M 110 51
L 241 51" style="stroke-width:1;stroke:rgba(0,217,101,1.0);fill:none"/><text x="43" y="86" style="stroke-width:0;stroke:none;fill:rgba(51,51,51,1.0);font-size:10.2px;font-family:'Roboto Medium',sans-serif">Anzahl Tot</text><path  d="M 98 81
L 241 81" style="stroke-width:1;stroke:rgba(217,0,116,1.0);fill:none"/></svg>