<svg xmlns="http://www.w3.org/2000/svg" xmlns:xlink="http://www.w3.org/1999/xlink" width="1024" height="400">\n<path  d="M 0 0
L 1024 0
L 1024 400
L 0 400
L 0 0" style="stroke-width:0;stroke:rgba(255,255,255,1.0);fill:rgba(255,255,255,1.0)"/><path  d="M 38 11
L 961 11
L 961 351
L 38 351
L 38 11" style="stroke-width:0;stroke:rgba(255,255,255,1.0);fill:rgba(255,255,255,1.0)"/><path  d="M 38 351
L 961 351" style="stroke-width:1;stroke:rgba(51,51,51,1.0);fill:none"/><path  d="M 38 351
L 38 356" style="stroke-width:1;stroke:rgba(51,51,51,1.0);fill:none"/><text x="5" y="373" style="stroke-width:0;stroke:none;fill:rgba(51,51,51,1.0);font-size:12.8px;font-family:'Roboto Medium',sans-serif">2020-02-26</text><path  d="M 154 351
L 154 356" style="stroke-width:1;stroke:rgba(51,51,51,1.0);fill:none"/><text x="121" y="373" style="stroke-width:0;stroke:none;fill:rgba(51,51,51,1.0);font-size:12.8px;font-family:'Roboto Medium',sans-serif">2020-06-21</text><path  d="M 269 351
L 269 356" style="stroke-width:1;stroke:rgba(51,51,51,1.0);fill:none"/><text x="236" y="373" style="stroke-width:0;stroke:none;fill:rgba(51,51,51,1.0);font-size:12.8px;font-family:'Roboto Medium',sans-serif">2020-10-16</text><path  d="M 385 351
L 385 356" style="stroke-width:1;stroke:rgba(51,51,51,1.0);fill:none"/><text x="352" y="373" style="stroke-width:0;stroke:none;fill:rgba(51,51,51,1.0);font-size:12.8px;font-family:'Roboto Medium',sans-serif">2021-02-09</text><path  d="M 500 351
L 500 356" style="stroke-width:1;stroke:rgba(51,51,51,1.0);fill:none"/><text x="467" y="373" style="stroke-width:0;stroke:none;fill:rgba(51,51,51,1.0);font-size:12.8px;font-family:'Roboto Medium',sans-serif">2021-06-06</text><path  d="M 615 351
L 615 356" style="stroke-width:1;stroke:rgba(51,51,51,1.0);fill:none"/><text x="582" y="373" style="stroke-width:0;stroke:none;fill:rgba(51,51,51,1.0);font-size:12.8px;font-family:'Roboto Medium',sans-serif">2021-09-30</text><path  d="M 731 351
L 731 356" style="stroke-width:1;stroke:rgba(51,51,51,1.0);fill:none"/><text x="698" y="373" style="stroke-width:0;stroke:none;fill:rgba(51,51,51,1.0);font-size:12.8px;font-family:'Roboto Medium',sans-serif">2022-01-25</text><path  d="M 846 351
L 846 356" style="stroke-width:1;stroke:rgba(51,51,51,1.0);fill:none"/><text x="813" y="373" style="stroke-width:0;stroke:none;fill:rgba(51,51,51,1.0);font-size:12.8px;font-family:'Roboto Medium',sans-serif">2022-05-21</text><path  d="M 961 351
L 961 356" style="stroke-width:1;stroke:rgba(51,51,51,1.0);fill:none"/><text x="928" y="373" style="stroke-width:0;stroke:none;fill:rgba(51,51,51,1.0);font-size:12.8px;font-family:'Roboto Medium',sans-serif">2022-09-15</text><text x="481" y="395" style="stroke-width:0;stroke:none;fill:rgba(51,51,51,1.0);font-size:12.8px;font-family:'Roboto Medium',sans-serif">Datum</text><path  d="M 962 351
L 962 11" style="stroke-width:1;stroke:rgba(51,51,51,1.0);fill:none"/><path  d="M 962 351
L 967 351" style="stroke-width:1;stroke:rgba(51,51,51,1.0);fill:none"/><text x="972" y="357" style="stroke-width:0;stroke:none;fill:rgba(51,51,51,1.0);font-size:12.8px;font-family:'Roboto Medium',sans-serif">0.00</text><path  d="M 962 307
L 967 307" style="stroke-width:1;stroke:rgba(51,51,51,1.0);fill:none"/><text x="972" y="313" style="stroke-width:0;stroke:none;fill:rgba(51,51,51,1.0);font-size:12.8px;font-family:'Roboto Medium',sans-serif">470.00</text><path  d="M 962 265
L 967 265" style="stroke-width:1;stroke:rgba(51,51,51,1.0);fill:none"/><text x="972" y="271" style="stroke-width:0;stroke:none;fill:rgba(51,51,51,1.0);font-size:12.8px;font-family:'Roboto Medium',sans-serif">930.00</text><path  d="M 962 223
L 967 223" style="stroke-width:1;stroke:rgba(51,51,51,1.0);fill:none"/><text x="972" y="229" style="stroke-width:0;stroke:none;fill:rgba(51,51,51,1.0);font-size:12.8px;font-family:'Roboto Medium',sans-serif">1390.00</text><path  d="M 962 181
L 967 181" style="stroke-width:1;stroke:rgba(51,51,51,1.0);fill:none"/><text x="972" y="187" style="stroke-width:0;stroke:none;fill:rgba(51,51,51,1.0);font-size:12.8px;font-family:'Roboto Medium',sans-serif">1850.00</text><path  d="M 962 137
L 967 137" style="stroke-width:1;stroke:rgba(51,51,51,1.0);fill:none"/><text x="972" y="143" style="stroke-width:0;stroke:none;fill:rgba(51,51,51,1.0);font-size:12.8px;font-family:'Roboto Medium',sans-serif">2320.00</text><path  d="M 962 95
L 967 95" style="stroke-width:1;stroke:rgba(51,51,51,1.0);fill:none"/><text x="972" y="101" style="stroke-width:0;stroke:none;fill:rgba(51,51,51,1.0);font-size:12.8px;font-family:'Roboto Medium',sans-serif">2780.00</text><path  d="M 962 53
L 967 53" style="stroke-width:1;stroke:rgba(51,51,51,1.0);fill:none"/><text x="972" y="59" style="stroke-width:0;stroke:none;fill:rgba(51,51,51,1.0);font-size:12.8px;font-family:'Roboto Medium',sans-serif">3240.00</text><path  d="M 962 11
L 967 11" style="stroke-width:1;stroke:rgba(51,51,51,1.0);fill:none"/><text x="972" y="17" style="stroke-width:0;stroke:none;fill:rgba(51,51,51,1.0);font-size:12.8px;font-family:'Roboto Medium',sans-serif">3700.00</text><path  d="M 38 351
L 39 351
L 40 351
L 41 351
L 42 351
L 43 351
L 44 351
L 45 351
L 46 351
L 47 351
L 48 351
L 49 351
L 50 351
L 51 351
L 52 351
L 53 351
L 54 351
L 55 351
L 56 350
L 57 350
L 58 350
L 59 350
L 60 350
L 61 350
L 62 350
L 63 349
L 64 349
L 65 349
L 66 348
L 67 348
L 68 348
L 69 348
L 70 348
L 71 348
L 72 348
L 73 348
L 74 348
L 75 348
L 76 348
L 77 349
L 78 348
L 79 348
L 80 348
L 81 349
L 82 349
L 83 349
L 84 349
L 85 350
L 86 350
L 87 350
L 88 350
L 89 350
L 90 350
L 91 350
L 92 350
L 93 350
L 94 350
L 95 350
L 96 350
L 97 350
L 98 350
L 99 350
L 100 350
L 101 350
L 102 350
L 103 350
L 104 350
L 105 350
L 106 350
L 107 350
L 108 350
L 109 350
L 110 350
L 111 350
L 112 350
L 113 350
L 114 351
L 115 351
L 116 351
L 117 351
L 118 350
L 119 350
L 120 350
L 121 350
L 122 350
L 123 350
L 124 350
L 125 350
L 126 350
L 127 350
L 128 350
L 129 350
L 130 350
L 131 350
L 132 350
L 133 351
L 134 350
L 135 350
L 136 350
L 137 350
L 138 350
L 139 350
L 140 350
L 141 350
L 141 350
L 142 350
L 143 350
L 144 350
L 145 350
L 146 350
L 147 350
L 148 350
L 149 350
L 150 350
L 151 350
L 152 350
L 153 350
L 154 350
L 155 350
L 156 350
L 157 350
L 158 350
L 159 350
L 160 350
L 161 350
L 162 350
L 163 350
L 164 350
L 165 350
L 166 350
L 167 350
L 168 350
L 169 350
L 170 350
L 171 350
L 172 350
L 173 350
L 174 350
L 175 350
L 176 350
L 177 350
L 178 350
L 179 350
L 180 350
L 181 350
L 182 350
L 183 350
L 184 350
L 185 350
L 186 350
L 187 350
L 188 350
L 189 350
L 190 349
L 191 350
L 192 350
L 193 350
L 194 350
L 195 350
L 196 350
L 197 350
L 198 350
L 199 350
L 200 350
L 201 350
L 202 350
L 203 350
L 204 350
L 205 350
L 206 350
L 207 350
L 208 349
L 209 349
L 210 349
L 211 349
L 212 349
L 213 349
L 214 349
L 215 349
L 216 349
L 217 349
L 218 348
L 219 349
L 220 349
L 221 349
L 222 348
L 223 348
L 224 349
L 225 349
L 226 348
L 227 348
L 228 348
L 229 349
L 230 348
L 231 348
L 232 349
L 233 348
L 234 348
L 235 348
L 236 348
L 237 348
L 238 347
L 239 347
L 240 346
L 241 345
L 242 345
L 243 344
L 244 344
L 244 343
L 245 344
L 246 345
L 247 345
L 248 345
L 249 346
L 250 345
L 251 346
L 252 346
L 253 346
L 254 346
L 255 347
L 256 346
L 257 346
L 258 346
L 259 345
L 260 345
L 261 344
L 262 342
L 263 343
L 264 342
L 265 342
L 266 342
L 267 342
L 268 342
L 269 343
L 270 343
L 271 343
L 272 342
L 273 343
L 274 342
L 275 341
L 276 342
L 277 340
L 278 339
L 279 339
L 280 338
L 281 338
L 282 338
L 283 337
L 284 338
L 285 337
L 286 336
L 287 335
L 288 334
L 289 333
L 290 332
L 291 329
L 292 330
L 293 331
L 294 330
L 295 329
L 296 331
L 297 331
L 298 333
L 299 333
L 300 333
L 301 334
L 302 336
L 303 336
L 304 336
L 305 335
L 306 336
L 307 337
L 308 337
L 309 337
L 310 337
L 311 338
L 312 340
L 313 338
L 314 338
L 315 338
L 316 339
L 317 340
L 318 340
L 319 340
L 320 339
L 321 340
L 322 340
L 323 341
L 324 341
L 325 342
L 326 342
L 327 342
L 328 341
L 329 340
L 330 338
L 331 338
L 332 337
L 333 336
L 334 337
L 335 338
L 336 338
L 337 337
L 338 337
L 339 338
L 340 339
L 341 338
L 342 338
L 343 337
L 344 338
L 345 337
L 346 336
L 346 335
L 347 335
L 348 335
L 349 335
L 350 336
L 351 336
L 352 336
L 353 337
L 354 337
L 355 338
L 356 340
L 357 340
L 358 340
L 359 342
L 360 341
L 361 340
L 362 340
L 363 340
L 364 340
L 365 340
L 366 339
L 367 339
L 368 339
L 369 339
L 370 338
L 371 336
L 372 335
L 373 336
L 374 335
L 375 334
L 376 334
L 377 335
L 378 335
L 379 336
L 380 335
L 381 336
L 382 336
L 383 335
L 384 336
L 385 335
L 386 335
L 387 336
L 388 337
L 389 338
L 390 339
L 391 339
L 392 340
L 393 339
L 394 335
L 395 333
L 396 333
L 397 330
L 398 330
L 399 328
L 400 329
L 401 331
L 402 329
L 403 328
L 404 329
L 405 327
L 406 327
L 407 326
L 408 323
L 409 324
L 410 325
L 411 327
L 412 329
L 413 329
L 414 330
L 415 333
L 416 332
L 417 333
L 418 331
L 419 332
L 420 333
L 421 332
L 422 328
L 423 329
L 424 327
L 425 329
L 426 326
L 427 324
L 428 326
L 429 330
L 430 332
L 431 331
L 432 331
L 433 331
L 434 331
L 435 330
L 436 329
L 437 328
L 438 328
L 439 328
L 440 330
L 441 332
L 442 332
L 443 333
L 444 334
L 445 335
L 446 335
L 447 336
L 448 336
L 449 336
L 449 337
L 450 335
L 451 336
L 452 336
L 453 337
L 454 336
L 455 335
L 456 335
L 457 337
L 458 337
L 459 337
L 460 336
L 461 337
L 462 339
L 463 339
L 464 341
L 465 342
L 466 343
L 467 344
L 468 345
L 469 345
L 470 346
L 471 345
L 472 345
L 473 345
L 474 345
L 475 345
L 476 345
L 477 346
L 478 347
L 479 347
L 480 345
L 481 345
L 482 345
L 483 344
L 484 344
L 485 343
L 486 342
L 487 343
L 488 343
L 489 343
L 490 343
L 491 343
L 492 343
L 493 344
L 494 345
L 495 345
L 496 346
L 497 345
L 498 345
L 499 346
L 500 346
L 501 346
L 502 346
L 503 347
L 504 348
L 505 348
L 506 349
L 507 349
L 508 349
L 509 349
L 510 349
L 511 349
L 512 349
L 513 349
L 514 349
L 515 349
L 516 349
L 517 349
L 518 349
L 519 349
L 520 349
L 521 350
L 522 349
L 523 350
L 524 350
L 525 349
L 526 349
L 527 350
L 528 350
L 529 349
L 530 349
L 531 349
L 532 350
L 533 349
L 534 349
L 535 349
L 536 349
L 537 349
L 538 349
L 539 349
L 540 348
L 541 348
L 542 348
L 543 348
L 544 348
L 545 348
L 546 349
L 547 349
L 548 349
L 549 349
L 550 349
L 551 349
L 551 349
L 552 349
L 553 349
L 554 349
L 555 349
L 556 349
L 557 348
L 558 348
L 559 347
L 560 346
L 561 347
L 562 347
L 563 346
L 564 347
L 565 346
L 566 346
L 567 346
L 568 346
L 569 345
L 570 345
L 571 344
L 572 344
L 573 344
L 574 344
L 575 344
L 576 343
L 577 343
L 578 343
L 579 343
L 580 343
L 581 342
L 582 342
L 583 342
L 584 343
L 585 343
L 586 343
L 587 343
L 588 343
L 589 342
L 590 343
L 591 342
L 592 342
L 593 342
L 594 341
L 595 341
L 596 341
L 597 341
L 598 341
L 599 341
L 600 341
L 601 342
L 602 342
L 603 342
L 604 342
L 605 342
L 606 341
L 607 342
L 608 342
L 609 342
L 610 343
L 611 342
L 612 342
L 613 342
L 614 341
L 615 341
L 616 342
L 617 341
L 618 341
L 619 342
L 620 341
L 621 340
L 622 340
L 623 339
L 624 340
L 625 340
L 626 340
L 627 342
L 628 343
L 629 343
L 630 343
L 631 342
L 632 342
L 633 342
L 634 341
L 635 340
L 636 339
L 637 338
L 638 338
L 639 337
L 640 336
L 641 335
L 642 334
L 643 333
L 644 331
L 645 328
L 646 326
L 647 324
L 648 323
L 649 321
L 650 320
L 651 318
L 652 319
L 653 318
L 654 316
L 654 316
L 655 313
L 656 313
L 657 312
L 658 310
L 659 309
L 660 310
L 661 309
L 662 310
L 663 310
L 664 313
L 665 309
L 666 310
L 667 309
L 668 308
L 669 308
L 670 309
L 671 310
L 672 314
L 673 315
L 674 317
L 675 319
L 676 322
L 677 322
L 678 323
L 679 326
L 680 328
L 681 329
L 682 331
L 683 332
L 684 333
L 685 333
L 686 334
L 687 334
L 688 334
L 689 334
L 690 336
L 691 336
L 692 337
L 693 337
L 694 337
L 695 338
L 696 338
L 697 338
L 698 338
L 699 338
L 700 339
L 701 339
L 702 338
L 703 338
L 704 337
L 705 336
L 706 337
L 707 335
L 708 334
L 709 331
L 710 325
L 711 318
L 712 314
L 713 308
L 714 303
L 715 296
L 716 290
L 717 286
L 718 279
L 719 273
L 720 265
L 721 261
L 722 257
L 723 255
L 724 245
L 725 243
L 726 231
L 727 226
L 728 220
L 729 210
L 730 202
L 731 199
L 732 190
L 733 181
L 734 176
L 735 170
L 736 176
L 737 180
L 738 169
L 739 171
L 740 175
L 741 176
L 742 171
L 743 169
L 744 165
L 745 173
L 746 175
L 747 178
L 748 177
L 749 183
L 750 180
L 751 179
L 752 166
L 753 167
L 754 166
L 755 169
L 756 173
L 756 178
L 757 185
L 758 193
L 759 192
L 760 188
L 761 193
L 762 191
L 763 190
L 764 181
L 765 179
L 766 178
L 767 177
L 768 165
L 769 160
L 770 152
L 771 145
L 772 129
L 773 107
L 774 83
L 775 75
L 776 59
L 777 48
L 778 41
L 779 23
L 780 28
L 781 23
L 782 17
L 783 18
L 784 19
L 785 29
L 786 34
L 787 31
L 788 46
L 789 54
L 790 64
L 791 73
L 792 73
L 793 88
L 794 107
L 795 121
L 796 132
L 797 143
L 798 158
L 799 167
L 800 188
L 801 195
L 802 202
L 803 211
L 804 214
L 805 217
L 806 223
L 807 234
L 808 239
L 809 247
L 810 249
L 811 255
L 812 258
L 813 263
L 814 272
L 815 271
L 816 274
L 817 280
L 818 284
L 819 286
L 820 286
L 821 286
L 822 291
L 823 296
L 824 297
L 825 297
L 826 295
L 827 292
L 828 294
L 829 292
L 830 288
L 831 288
L 832 289
L 833 291
L 834 295
L 835 296
L 836 300
L 837 307
L 838 310
L 839 312
L 840 315
L 841 319
L 842 319
L 843 320
L 844 320
L 845 319
L 846 321
L 847 321
L 848 322
L 849 325
L 850 328
L 851 329
L 852 331
L 853 331
L 854 332
L 855 332
L 856 332
L 857 331
L 858 329
L 859 328
L 859 327
L 860 327
L 861 326
L 862 325
L 863 322
L 864 321
L 865 321
L 866 318
L 867 317
L 868 314
L 869 309
L 870 307
L 871 304
L 872 300
L 873 299
L 874 293
L 875 287
L 876 280
L 877 277
L 878 272
L 879 268
L 880 263
L 881 260
L 882 258
L 883 259
L 884 255
L 885 252
L 886 253
L 887 250
L 888 252
L 889 256
L 890 254
L 891 260
L 892 262
L 893 261
L 894 264
L 895 266
L 896 266
L 897 266
L 898 268
L 899 266
L 900 264
L 901 263
L 902 262
L 903 257
L 904 259
L 905 252
L 906 250
L 907 252
L 908 255
L 909 252
L 910 251
L 911 252
L 912 258
L 913 268
L 914 272
L 915 272
L 916 279
L 917 289
L 918 292
L 919 295
L 920 296
L 921 299
L 922 302
L 923 301
L 924 299
L 925 302
L 926 305
L 927 306
L 928 306
L 929 304
L 930 307
L 931 311
L 932 312
L 933 309
L 934 306
L 935 307
L 936 309
L 937 310
L 938 305
L 939 308
L 940 309
L 941 310
L 942 309
L 943 309
L 944 309
L 945 311
L 946 310
L 947 311
L 948 313
L 949 313
L 950 315
L 951 314
L 952 315
L 953 314
L 954 314
L 955 313
L 956 314
L 957 314
L 958 314
L 959 315
L 960 316
L 961 317
L 961 317" style="stroke-width:1;stroke:rgba(0,116,217,1.0);fill:none"/><path  d="M 38 351
L 39 351
L 40 351
L 41 351
L 42 351
L 43 351
L 44 351
L 45 351
L 46 351
L 47 351
L 48 351
L 49 351
L 50 351
L 51 351
L 52 351
L 53 351
L 54 351
L 55 351
L 56 350
L 57 351
L 58 351
L 59 351
L 60 351
L 61 350
L 62 350
L 63 350
L 64 350
L 65 350
L 66 350
L 67 350
L 68 350
L 69 350
L 70 350
L 71 350
L 72 350
L 73 350
L 74 350
L 75 350
L 76 351
L 77 351
L 78 350
L 79 350
L 80 350
L 81 351
L 82 350
L 83 351
L 84 351
L 85 350
L 86 351
L 87 350
L 88 350
L 89 351
L 90 351
L 91 351
L 92 350
L 93 351
L 94 350
L 95 350
L 96 350
L 97 351
L 98 351
L 99 351
L 100 351
L 101 350
L 102 351
L 103 351
L 104 351
L 105 351
L 106 351
L 107 350
L 108 351
L 109 351
L 110 351
L 111 351
L 112 351
L 113 351
L 114 351
L 115 351
L 116 351
L 117 351
L 118 350
L 119 350
L 120 350
L 121 351
L 122 351
L 123 351
L 124 351
L 125 351
L 126 350
L 127 351
L 128 351
L 129 351
L 130 351
L 131 351
L 132 351
L 133 351
L 134 350
L 135 351
L 136 351
L 137 351
L 138 350
L 139 351
L 140 351
L 141 351
L 141 351
L 142 351
L 143 351
L 144 350
L 145 351
L 146 351
L 147 351
L 148 351
L 149 351
L 150 350
L 151 350
L 152 351
L 153 350
L 154 351
L 155 351
L 156 351
L 157 351
L 158 350
L 159 351
L 160 351
L 161 351
L 162 350
L 163 351
L 164 351
L 165 351
L 166 351
L 167 350
L 168 351
L 169 351
L 170 351
L 171 350
L 172 351
L 173 351
L 174 351
L 175 350
L 176 350
L 177 350
L 178 351
L 179 350
L 180 351
L 181 351
L 182 351
L 183 350
L 184 350
L 185 350
L 186 350
L 187 350
L 188 350
L 189 351
L 190 350
L 191 351
L 192 350
L 193 350
L 194 351
L 195 351
L 196 350
L 197 350
L 198 350
L 199 350
L 200 351
L 201 351
L 202 351
L 203 351
L 204 350
L 205 350
L 206 350
L 207 350
L 208 350
L 209 350
L 210 350
L 211 351
L 212 350
L 213 350
L 214 350
L 215 350
L 216 350
L 217 350
L 218 350
L 219 351
L 220 350
L 221 350
L 222 349
L 223 351
L 224 350
L 225 350
L 226 350
L 227 350
L 228 350
L 229 350
L 230 350
L 231 350
L 232 350
L 233 350
L 234 350
L 235 350
L 236 350
L 237 350
L 238 350
L 239 349
L 240 349
L 241 349
L 242 350
L 243 349
L 244 350
L 244 349
L 245 350
L 246 350
L 247 350
L 248 349
L 249 350
L 250 350
L 251 350
L 252 350
L 253 350
L 254 350
L 255 350
L 256 349
L 257 350
L 258 349
L 259 349
L 260 349
L 261 349
L 262 348
L 263 350
L 264 349
L 265 349
L 266 349
L 267 349
L 268 350
L 269 349
L 270 350
L 271 350
L 272 348
L 273 349
L 274 349
L 275 349
L 276 349
L 277 348
L 278 349
L 279 348
L 280 348
L 281 348
L 282 349
L 283 348
L 284 349
L 285 348
L 286 348
L 287 347
L 288 347
L 289 347
L 290 348
L 291 346
L 292 348
L 293 349
L 294 347
L 295 345
L 296 349
L 297 347
L 298 349
L 299 348
L 300 348
L 301 348
L 302 348
L 303 348
L 304 347
L 305 348
L 306 350
L 307 349
L 308 348
L 309 348
L 310 349
L 311 349
L 312 349
L 313 349
L 314 348
L 315 349
L 316 349
L 317 349
L 318 349
L 319 349
L 320 348
L 321 349
L 322 349
L 323 350
L 324 349
L 325 350
L 326 349
L 327 348
L 328 348
L 329 348
L 330 348
L 331 348
L 332 349
L 333 348
L 334 349
L 335 349
L 336 348
L 337 347
L 338 349
L 339 349
L 340 349
L 341 349
L 342 349
L 343 347
L 344 348
L 345 348
L 346 348
L 346 349
L 347 348
L 348 348
L 349 347
L 350 349
L 351 349
L 352 348
L 353 349
L 354 349
L 355 349
L 356 349
L 357 349
L 358 349
L 359 350
L 360 348
L 361 349
L 362 349
L 363 348
L 364 349
L 365 349
L 366 349
L 367 348
L 368 349
L 369 349
L 370 347
L 371 348
L 372 348
L 373 349
L 374 348
L 375 348
L 376 349
L 377 348
L 378 349
L 379 348
L 380 348
L 381 349
L 382 348
L 383 348
L 384 348
L 385 348
L 386 348
L 387 350
L 388 349
L 389 349
L 390 349
L 391 348
L 392 349
L 393 347
L 394 346
L 395 347
L 396 348
L 397 346
L 398 348
L 399 347
L 400 348
L 401 348
L 402 345
L 403 348
L 404 347
L 405 346
L 406 347
L 407 347
L 408 344
L 409 347
L 410 349
L 411 348
L 412 348
L 413 348
L 414 347
L 415 347
L 416 346
L 417 350
L 418 346
L 419 349
L 420 349
L 421 346
L 422 344
L 423 347
L 424 348
L 425 347
L 426 347
L 427 347
L 428 348
L 429 348
L 430 348
L 431 347
L 432 347
L 433 346
L 434 346
L 435 347
L 436 348
L 437 347
L 438 348
L 439 347
L 440 348
L 441 348
L 442 348
L 443 348
L 444 349
L 445 348
L 446 348
L 447 348
L 448 348
L 449 349
L 449 348
L 450 347
L 451 349
L 452 349
L 453 349
L 454 347
L 455 347
L 456 349
L 457 349
L 458 349
L 459 349
L 460 348
L 461 349
L 462 349
L 463 349
L 464 351
L 465 350
L 466 350
L 467 350
L 468 350
L 469 349
L 470 350
L 471 349
L 472 350
L 473 350
L 474 350
L 475 350
L 476 350
L 477 350
L 478 350
L 479 350
L 480 348
L 481 349
L 482 350
L 483 350
L 484 349
L 485 349
L 486 349
L 487 349
L 488 349
L 489 349
L 490 350
L 491 349
L 492 349
L 493 350
L 494 350
L 495 350
L 496 350
L 497 349
L 498 350
L 499 350
L 500 350
L 501 350
L 502 350
L 503 350
L 504 350
L 505 350
L 506 350
L 507 350
L 508 351
L 509 350
L 510 350
L 511 351
L 512 350
L 513 351
L 514 350
L 515 351
L 516 350
L 517 350
L 518 351
L 519 350
L 520 350
L 521 350
L 522 350
L 523 350
L 524 350
L 525 350
L 526 350
L 527 351
L 528 350
L 529 350
L 530 350
L 531 350
L 532 351
L 533 350
L 534 350
L 535 350
L 536 350
L 537 350
L 538 350
L 539 350
L 540 349
L 541 350
L 542 350
L 543 350
L 544 350
L 545 351
L 546 350
L 547 350
L 548 350
L 549 350
L 550 350
L 551 350
L 551 350
L 552 350
L 553 350
L 554 350
L 555 350
L 556 350
L 557 350
L 558 350
L 559 350
L 560 349
L 561 350
L 562 350
L 563 350
L 564 350
L 565 350
L 566 350
L 567 349
L 568 350
L 569 350
L 570 349
L 571 349
L 572 349
L 573 349
L 574 349
L 575 349
L 576 350
L 577 349
L 578 350
L 579 349
L 580 349
L 581 348
L 582 350
L 583 349
L 584 350
L 585 349
L 586 349
L 587 349
L 588 349
L 589 349
L 590 350
L 591 349
L 592 349
L 593 348
L 594 349
L 595 349
L 596 349
L 597 350
L 598 349
L 599 350
L 600 348
L 601 349
L 602 349
L 603 349
L 604 350
L 605 350
L 606 349
L 607 350
L 608 349
L 609 349
L 610 349
L 611 350
L 612 349
L 613 348
L 614 349
L 615 349
L 616 349
L 617 349
L 618 350
L 619 349
L 620 347
L 621 348
L 622 350
L 623 348
L 624 350
L 625 349
L 626 350
L 627 349
L 628 349
L 629 350
L 630 349
L 631 349
L 632 349
L 633 349
L 634 348
L 635 348
L 636 348
L 637 348
L 638 348
L 639 349
L 640 348
L 641 347
L 642 348
L 643 346
L 644 346
L 645 344
L 646 347
L 647 346
L 648 345
L 649 346
L 650 345
L 651 344
L 652 346
L 653 346
L 654 344
L 654 345
L 655 343
L 656 345
L 657 343
L 658 344
L 659 345
L 660 345
L 661 344
L 662 345
L 663 345
L 664 346
L 665 340
L 666 345
L 667 344
L 668 343
L 669 344
L 670 346
L 671 347
L 672 345
L 673 347
L 674 346
L 675 346
L 676 347
L 677 347
L 678 347
L 679 348
L 680 348
L 681 348
L 682 348
L 683 348
L 684 348
L 685 347
L 686 348
L 687 348
L 688 349
L 689 347
L 690 349
L 691 348
L 692 348
L 693 348
L 694 349
L 695 349
L 696 347
L 697 349
L 698 349
L 699 348
L 700 350
L 701 349
L 702 348
L 703 348
L 704 348
L 705 348
L 706 348
L 707 348
L 708 347
L 709 345
L 710 341
L 711 341
L 712 343
L 713 342
L 714 342
L 715 341
L 716 339
L 717 337
L 718 334
L 719 336
L 720 334
L 721 337
L 722 337
L 723 336
L 724 326
L 725 331
L 726 323
L 727 329
L 728 331
L 729 326
L 730 327
L 731 323
L 732 321
L 733 314
L 734 324
L 735 324
L 736 332
L 737 332
L 738 311
L 739 323
L 740 318
L 741 325
L 742 319
L 743 331
L 744 327
L 745 319
L 746 325
L 747 322
L 748 324
L 749 326
L 750 327
L 751 326
L 752 305
L 753 326
L 754 322
L 755 327
L 756 330
L 756 332
L 757 334
L 758 313
L 759 324
L 760 318
L 761 331
L 762 328
L 763 331
L 764 324
L 765 311
L 766 323
L 767 317
L 768 319
L 769 323
L 770 323
L 771 317
L 772 293
L 773 300
L 774 292
L 775 310
L 776 306
L 777 311
L 778 310
L 779 273
L 780 306
L 781 287
L 782 303
L 783 307
L 784 312
L 785 321
L 786 279
L 787 303
L 788 303
L 789 311
L 790 318
L 791 320
L 792 321
L 793 295
L 794 324
L 795 318
L 796 323
L 797 329
L 798 337
L 799 330
L 800 318
L 801 331
L 802 326
L 803 332
L 804 333
L 805 340
L 806 336
L 807 330
L 808 336
L 809 335
L 810 334
L 811 340
L 812 343
L 813 342
L 814 339
L 815 335
L 816 338
L 817 341
L 818 344
L 819 345
L 820 342
L 821 339
L 822 341
L 823 344
L 824 342
L 825 343
L 826 343
L 827 339
L 828 341
L 829 339
L 830 339
L 831 342
L 832 344
L 833 345
L 834 343
L 835 343
L 836 343
L 837 346
L 838 346
L 839 346
L 840 348
L 841 347
L 842 343
L 843 344
L 844 346
L 845 345
L 846 348
L 847 348
L 848 348
L 849 347
L 850 347
L 851 347
L 852 348
L 853 348
L 854 349
L 855 348
L 856 346
L 857 346
L 858 345
L 859 347
L 859 347
L 860 348
L 861 347
L 862 345
L 863 343
L 864 344
L 865 347
L 866 345
L 867 347
L 868 344
L 869 339
L 870 341
L 871 341
L 872 342
L 873 344
L 874 341
L 875 337
L 876 332
L 877 337
L 878 336
L 879 337
L 880 339
L 881 338
L 882 334
L 883 334
L 884 332
L 885 333
L 886 338
L 887 336
L 888 340
L 889 338
L 890 332
L 891 339
L 892 335
L 893 338
L 894 339
L 895 343
L 896 338
L 897 332
L 898 341
L 899 332
L 900 335
L 901 338
L 902 341
L 903 333
L 904 334
L 905 334
L 906 330
L 907 337
L 908 341
L 909 337
L 910 333
L 911 334
L 912 340
L 913 342
L 914 341
L 915 342
L 916 345
L 917 344
L 918 337
L 919 343
L 920 343
L 921 344
L 922 345
L 923 344
L 924 342
L 925 341
L 926 345
L 927 344
L 928 344
L 929 343
L 930 347
L 931 347
L 932 342
L 933 341
L 934 342
L 935 345
L 936 345
L 937 347
L 938 342
L 939 345
L 940 343
L 941 343
L 942 344
L 943 344
L 944 348
L 945 343
L 946 344
L 947 344
L 948 345
L 949 345
L 950 346
L 951 347
L 952 345
L 953 343
L 954 344
L 955 344
L 956 345
L 957 347
L 958 347
L 959 346
L 960 343
L 961 346
L 961 344" style="stroke-width:1;stroke:rgba(0,217,101,1.0);fill:none"/><path  d="M 38 351
L 39 351
L 40 351
L 41 351
L 42 351
L 43 351
L 44 351
L 45 351
L 46 351
L 47 351
L 48 351
L 49 351
L 50 351
L 51 351
L 52 351
L 53 351
L 54 351
L 55 351
L 56 351
L 57 351
L 58 351
L 59 351
L 60 351
L 61 351
L 62 351
L 63 351
L 64 351
L 65 351
L 66 351
L 67 351
L 68 351
L 69 351
L 70 351
L 71 351
L 72 351
L 73 351
L 74 351
L 75 351
L 76 351
L 77 351
L 78 351
L 79 351
L 80 351
L 81 351
L 82 350
L 83 351
L 84 351
L 85 351
L 86 351
L 87 351
L 88 351
L 89 351
L 90 351
L 91 351
L 92 351
L 93 351
L 94 351
L 95 351
L 96 351
L 97 350
L 98 351
L 99 351
L 100 351
L 101 351
L 102 351
L 103 351
L 104 351
L 105 351
L 106 351
L 107 351
L 108 351
L 109 351
L 110 351
L 111 351
L 112 351
L 113 351
L 114 351
L 115 351
L 116 351
L 117 351
L 118 351
L 119 351
L 120 351
L 121 351
L 122 351
L 123 351
L 124 351
L 125 351
L 126 351
L 127 351
L 128 351
L 129 351
L 130 351
L 131 351
L 132 351
L 133 350
L 134 351
L 135 351
L 136 351
L 137 351
L 138 351
L 139 351
L 140 351
L 141 351
L 141 351
L 142 351
L 143 351
L 144 351
L 145 351
L 146 351
L 147 350
L 148 351
L 149 351
L 150 351
L 151 351
L 152 351
L 153 351
L 154 351
L 155 351
L 156 351
L 157 351
L 158 351
L 159 351
L 160 351
L 161 351
L 162 351
L 163 351
L 164 351
L 165 351
L 166 351
L 167 351
L 168 351
L 169 351
L 170 351
L 171 351
L 172 351
L 173 351
L 174 351
L 175 351
L 176 351
L 177 351
L 178 351
L 179 351
L 180 351
L 181 351
L 182 351
L 183 351
L 184 351
L 185 351
L 186 351
L 187 351
L 188 351
L 189 351
L 190 351
L 191 350
L 192 351
L 193 351
L 194 351
L 195 351
L 196 351
L 197 351
L 198 351
L 199 351
L 200 350
L 201 351
L 202 351
L 203 351
L 204 351
L 205 351
L 206 351
L 207 351
L 208 351
L 209 351
L 210 351
L 211 351
L 212 351
L 213 351
L 214 351
L 215 351
L 216 351
L 217 351
L 218 351
L 219 351
L 220 351
L 221 351
L 222 351
L 223 351
L 224 351
L 225 351
L 226 351
L 227 351
L 228 351
L 229 351
L 230 350
L 231 351
L 232 351
L 233 351
L 234 351
L 235 351
L 236 351
L 237 351
L 238 351
L 239 351
L 240 351
L 241 350
L 242 351
L 243 351
L 244 351
L 244 351
L 245 351
L 246 351
L 247 351
L 248 351
L 249 351
L 250 351
L 251 351
L 252 351
L 253 351
L 254 351
L 255 351
L 256 351
L 257 351
L 258 351
L 259 351
L 260 351
L 261 351
L 262 351
L 263 351
L 264 351
L 265 351
L 266 351
L 267 351
L 268 351
L 269 351
L 270 350
L 271 351
L 272 351
L 273 350
L 274 351
L 275 351
L 276 350
L 277 350
L 278 351
L 279 351
L 280 350
L 281 350
L 282 350
L 283 351
L 284 350
L 285 351
L 286 350
L 287 351
L 288 351
L 289 351
L 290 351
L 291 351
L 292 351
L 293 351
L 294 350
L 295 351
L 296 351
L 297 351
L 298 350
L 299 351
L 300 351
L 301 351
L 302 351
L 303 350
L 304 351
L 305 351
L 306 350
L 307 351
L 308 351
L 309 350
L 310 351
L 311 351
L 312 351
L 313 351
L 314 351
L 315 351
L 316 351
L 317 351
L 318 351
L 319 350
L 320 351
L 321 351
L 322 351
L 323 351
L 324 350
L 325 351
L 326 351
L 327 351
L 328 351
L 329 351
L 330 351
L 331 351
L 332 350
L 333 351
L 334 351
L 335 351
L 336 351
L 337 351
L 338 351
L 339 351
L 340 351
L 341 351
L 342 351
L 343 351
L 344 351
L 345 351
L 346 351
L 346 351
L 347 350
L 348 351
L 349 350
L 350 351
L 351 351
L 352 351
L 353 351
L 354 351
L 355 351
L 356 351
L 357 350
L 358 351
L 359 351
L 360 350
L 361 351
L 362 351
L 363 350
L 364 351
L 365 350
L 366 350
L 367 350
L 368 350
L 369 350
L 370 350
L 371 350
L 372 350
L 373 350
L 374 351
L 375 350
L 376 350
L 377 350
L 378 351
L 379 351
L 380 351
L 381 350
L 382 350
L 383 351
L 384 351
L 385 350
L 386 350
L 387 350
L 388 351
L 389 350
L 390 350
L 391 350
L 392 350
L 393 350
L 394 351
L 395 351
L 396 350
L 397 350
L 398 350
L 399 351
L 400 350
L 401 351
L 402 351
L 403 350
L 404 351
L 405 350
L 406 350
L 407 351
L 408 350
L 409 350
L 410 351
L 411 351
L 412 350
L 413 351
L 414 350
L 415 351
L 416 350
L 417 350
L 418 351
L 419 351
L 420 351
L 421 351
L 422 350
L 423 350
L 424 351
L 425 351
L 426 351
L 427 351
L 428 350
L 429 351
L 430 351
L 431 351
L 432 351
L 433 351
L 434 350
L 435 351
L 436 351
L 437 351
L 438 350
L 439 350
L 440 350
L 441 350
L 442 351
L 443 351
L 444 350
L 445 351
L 446 351
L 447 351
L 448 351
L 449 351
L 449 350
L 450 351
L 451 351
L 452 351
L 453 351
L 454 350
L 455 351
L 456 351
L 457 351
L 458 351
L 459 351
L 460 351
L 461 351
L 462 351
L 463 351
L 464 351
L 465 351
L 466 351
L 467 351
L 468 350
L 469 351
L 470 351
L 471 351
L 472 350
L 473 350
L 474 351
L 475 351
L 476 351
L 477 351
L 478 351
L 479 351
L 480 350
L 481 351
L 482 351
L 483 351
L 484 351
L 485 351
L 486 351
L 487 351
L 488 351
L 489 351
L 490 351
L 491 351
L 492 351
L 493 351
L 494 350
L 495 351
L 496 351
L 497 351
L 498 351
L 499 351
L 500 351
L 501 351
L 502 351
L 503 351
L 504 350
L 505 351
L 506 350
L 507 351
L 508 350
L 509 351
L 510 351
L 511 351
L 512 350
L 513 350
L 514 351
L 515 351
L 516 351
L 517 351
L 518 351
L 519 351
L 520 351
L 521 351
L 522 351
L 523 350
L 524 351
L 525 351
L 526 351
L 527 351
L 528 351
L 529 351
L 530 351
L 531 350
L 532 351
L 533 351
L 534 351
L 535 351
L 536 351
L 537 351
L 538 351
L 539 351
L 540 351
L 541 351
L 542 351
L 543 351
L 544 351
L 545 351
L 546 351
L 547 351
L 548 351
L 549 351
L 550 351
L 551 351
L 551 351
L 552 351
L 553 351
L 554 351
L 555 351
L 556 351
L 557 351
L 558 351
L 559 351
L 560 351
L 561 351
L 562 351
L 563 351
L 564 351
L 565 351
L 566 351
L 567 351
L 568 351
L 569 351
L 570 351
L 571 351
L 572 351
L 573 351
L 574 351
L 575 351
L 576 351
L 577 351
L 578 351
L 579 351
L 580 351
L 581 351
L 582 351
L 583 351
L 584 351
L 585 351
L 586 350
L 587 351
L 588 351
L 589 351
L 590 351
L 591 351
L 592 351
L 593 351
L 594 351
L 595 351
L 596 351
L 597 351
L 598 351
L 599 351
L 600 351
L 601 351
L 602 350
L 603 351
L 604 351
L 605 351
L 606 351
L 607 351
L 608 351
L 609 351
L 610 351
L 611 351
L 612 351
L 613 351
L 614 351
L 615 351
L 616 351
L 617 351
L 618 351
L 619 351
L 620 351
L 621 351
L 622 351
L 623 351
L 624 351
L 625 350
L 626 351
L 627 351
L 628 351
L 629 351
L 630 351
L 631 351
L 632 351
L 633 351
L 634 351
L 635 351
L 636 351
L 637 351
L 638 351
L 639 351
L 640 351
L 641 351
L 642 350
L 643 351
L 644 351
L 645 351
L 646 351
L 647 351
L 648 351
L 649 351
L 650 351
L 651 350
L 652 351
L 653 351
L 654 351
L 654 350
L 655 351
L 656 351
L 657 351
L 658 351
L 659 351
L 660 350
L 661 351
L 662 351
L 663 351
L 664 351
L 665 351
L 666 351
L 667 350
L 668 350
L 669 350
L 670 350
L 671 351
L 672 351
L 673 350
L 674 351
L 675 350
L 676 351
L 677 350
L 678 350
L 679 351
L 680 351
L 681 351
L 682 351
L 683 351
L 684 351
L 685 351
L 686 351
L 687 351
L 688 351
L 689 350
L 690 350
L 691 351
L 692 351
L 693 351
L 694 350
L 695 350
L 696 351
L 697 351
L 698 351
L 699 351
L 700 350
L 701 350
L 702 351
L 703 351
L 704 351
L 705 351
L 706 351
L 707 351
L 708 351
L 709 351
L 710 351
L 711 351
L 712 351
L 713 351
L 714 351
L 715 351
L 716 351
L 717 351
L 718 351
L 719 351
L 720 351
L 721 351
L 722 351
L 723 351
L 724 351
L 725 351
L 726 351
L 727 351
L 728 351
L 729 351
L 730 351
L 731 351
L 732 351
L 733 351
L 734 351
L 735 350
L 736 351
L 737 351
L 738 351
L 739 351
L 740 351
L 741 351
L 742 351
L 743 351
L 744 351
L 745 351
L 746 350
L 747 351
L 748 351
L 749 351
L 750 351
L 751 350
L 752 351
L 753 351
L 754 351
L 755 350
L 756 351
L 756 351
L 757 351
L 758 351
L 759 351
L 760 350
L 761 351
L 762 351
L 763 351
L 764 351
L 765 350
L 766 351
L 767 351
L 768 351
L 769 351
L 770 351
L 771 351
L 772 350
L 773 351
L 774 350
L 775 351
L 776 350
L 777 351
L 778 351
L 779 350
L 780 351
L 781 350
L 782 351
L 783 351
L 784 351
L 785 351
L 786 351
L 787 351
L 788 350
L 789 351
L 790 351
L 791 351
L 792 350
L 793 351
L 794 351
L 795 350
L 796 351
L 797 351
L 798 351
L 799 351
L 800 350
L 801 350
L 802 351
L 803 351
L 804 351
L 805 351
L 806 351
L 807 351
L 808 350
L 809 351
L 810 351
L 811 350
L 812 351
L 813 351
L 814 351
L 815 351
L 816 351
L 817 351
L 818 350
L 819 351
L 820 351
L 821 351
L 822 351
L 823 351
L 824 351
L 825 351
L 826 350
L 827 351
L 828 351
L 829 351
L 830 351
L 831 351
L 832 351
L 833 351
L 834 351
L 835 351
L 836 351
L 837 351
L 838 350
L 839 351
L 840 351
L 841 351
L 842 351
L 843 351
L 844 351
L 845 351
L 846 351
L 847 351
L 848 351
L 849 351
L 850 350
L 851 351
L 852 351
L 853 351
L 854 351
L 855 351
L 856 351
L 857 351
L 858 350
L 859 351
L 859 351
L 860 351
L 861 351
L 862 351
L 863 351
L 864 351
L 865 351
L 866 351
L 867 351
L 868 351
L 869 351
L 870 351
L 871 351
L 872 351
L 873 351
L 874 351
L 875 351
L 876 351
L 877 351
L 878 351
L 879 351
L 880 351
L 881 351
L 882 351
L 883 351
L 884 351
L 885 351
L 886 351
L 887 351
L 888 351
L 889 351
L 890 351
L 891 350
L 892 350
L 893 351
L 894 351
L 895 351
L 896 351
L 897 351
L 898 351
L 899 351
L 900 350
L 901 351
L 902 351
L 903 351
L 904 351
L 905 350
L 906 351
L 907 351
L 908 350
L 909 351
L 910 350
L 911 351
L 912 351
L 913 351
L 914 351
L 915 351
L 916 351
L 917 350
L 918 351
L 919 350
L 920 350
L 921 351
L 922 351
L 923 351
L 924 351
L 925 351
L 926 351
L 927 351
L 928 351
L 929 351
L 930 351
L 931 351
L 932 350
L 933 351
L 934 350
L 935 350
L 936 351
L 937 351
L 938 351
L 939 351
L 940 351
L 941 351
L 942 351
L 943 351
L 944 351
L 945 351
L 946 351
L 947 350
L 948 351
L 949 351
L 950 351
L 951 351
L 952 351
L 953 351
L 954 351
L 955 351
L 956 351
L 957 351
L 958 350
L 959 351
L 960 351
L 961 351
L 961 351" style="stroke-width:1;stroke:rgba(217,0,116,1.0);fill:none"/><text x="386" y="33" style="stroke-width:0;stroke:none;fill:rgba(51,51,51,1.0);font-size:23.0px;font-family:'Roboto Medium',sans-serif">Gänserndorf 15.09.2022</text><path  d="M 38 11
L 251 11
L 251 91
L 38 91
L 38 11" style="stroke-width:1;stroke:rgba(51,51,51,1.0);fill:rgba(255,255,255,1.0)"/><text x="43" y="26" style="stroke-width:0;stroke:none;fill:rgba(51,51,51,1.0);font-size:10.2px;font-family:'Roboto Medium',sans-serif">Sieben Tage Durschnitt Inzidenz Fälle</text><path  d="M 221 21
L 241 21" style="stroke-width:1;stroke:rgba(0,116,217,1.0);fill:none"/><text x="43" y="56" style="stroke-width:0;stroke:none;fill:rgba(51,51,51,1.0);font-size:10.2px;font-family:'Roboto Medium',sans-serif">Anzahl Faelle</text><path  d="M 110 51
L 241 51" style="stroke-width:1;stroke:rgba(0,217,101,1.0);fill:none"/><text x="43" y="86" style="stroke-width:0;stroke:none;fill:rgba(51,51,51,1.0);font-size:10.2px;font-family:'Roboto Medium',sans-serif">Anzahl Tot</text><path  d="M 98 81
L 241 81" style="stroke-width:1;stroke:rgba(217,0,116,1.0);fill:none"/></svg>