<svg xmlns="http://www.w3.org/2000/svg" xmlns:xlink="http://www.w3.org/1999/xlink" width="1024" height="400">\n<path  d="M 0 0
L 1024 0
L 1024 400
L 0 400
L 0 0" style="stroke-width:0;stroke:rgba(255,255,255,1.0);fill:rgba(255,255,255,1.0)"/><path  d="M 38 11
L 961 11
L 961 351
L 38 351
L 38 11" style="stroke-width:0;stroke:rgba(255,255,255,1.0);fill:rgba(255,255,255,1.0)"/><path  d="M 38 351
L 961 351" style="stroke-width:1;stroke:rgba(51,51,51,1.0);fill:none"/><path  d="M 38 351
L 38 356" style="stroke-width:1;stroke:rgba(51,51,51,1.0);fill:none"/><text x="5" y="373" style="stroke-width:0;stroke:none;fill:rgba(51,51,51,1.0);font-size:12.8px;font-family:'Roboto Medium',sans-serif">2020-02-26</text><path  d="M 154 351
L 154 356" style="stroke-width:1;stroke:rgba(51,51,51,1.0);fill:none"/><text x="121" y="373" style="stroke-width:0;stroke:none;fill:rgba(51,51,51,1.0);font-size:12.8px;font-family:'Roboto Medium',sans-serif">2020-06-12</text><path  d="M 269 351
L 269 356" style="stroke-width:1;stroke:rgba(51,51,51,1.0);fill:none"/><text x="236" y="373" style="stroke-width:0;stroke:none;fill:rgba(51,51,51,1.0);font-size:12.8px;font-family:'Roboto Medium',sans-serif">2020-09-28</text><path  d="M 385 351
L 385 356" style="stroke-width:1;stroke:rgba(51,51,51,1.0);fill:none"/><text x="352" y="373" style="stroke-width:0;stroke:none;fill:rgba(51,51,51,1.0);font-size:12.8px;font-family:'Roboto Medium',sans-serif">2021-01-14</text><path  d="M 500 351
L 500 356" style="stroke-width:1;stroke:rgba(51,51,51,1.0);fill:none"/><text x="467" y="373" style="stroke-width:0;stroke:none;fill:rgba(51,51,51,1.0);font-size:12.8px;font-family:'Roboto Medium',sans-serif">2021-05-02</text><path  d="M 615 351
L 615 356" style="stroke-width:1;stroke:rgba(51,51,51,1.0);fill:none"/><text x="582" y="373" style="stroke-width:0;stroke:none;fill:rgba(51,51,51,1.0);font-size:12.8px;font-family:'Roboto Medium',sans-serif">2021-08-17</text><path  d="M 731 351
L 731 356" style="stroke-width:1;stroke:rgba(51,51,51,1.0);fill:none"/><text x="698" y="373" style="stroke-width:0;stroke:none;fill:rgba(51,51,51,1.0);font-size:12.8px;font-family:'Roboto Medium',sans-serif">2021-12-03</text><path  d="M 846 351
L 846 356" style="stroke-width:1;stroke:rgba(51,51,51,1.0);fill:none"/><text x="813" y="373" style="stroke-width:0;stroke:none;fill:rgba(51,51,51,1.0);font-size:12.8px;font-family:'Roboto Medium',sans-serif">2022-03-21</text><path  d="M 961 351
L 961 356" style="stroke-width:1;stroke:rgba(51,51,51,1.0);fill:none"/><text x="928" y="373" style="stroke-width:0;stroke:none;fill:rgba(51,51,51,1.0);font-size:12.8px;font-family:'Roboto Medium',sans-serif">2022-07-07</text><text x="481" y="395" style="stroke-width:0;stroke:none;fill:rgba(51,51,51,1.0);font-size:12.8px;font-family:'Roboto Medium',sans-serif">Datum</text><path  d="M 962 351
L 962 11" style="stroke-width:1;stroke:rgba(51,51,51,1.0);fill:none"/><path  d="M 962 351
L 967 351" style="stroke-width:1;stroke:rgba(51,51,51,1.0);fill:none"/><text x="972" y="357" style="stroke-width:0;stroke:none;fill:rgba(51,51,51,1.0);font-size:12.8px;font-family:'Roboto Medium',sans-serif">0.00</text><path  d="M 962 308
L 967 308" style="stroke-width:1;stroke:rgba(51,51,51,1.0);fill:none"/><text x="972" y="314" style="stroke-width:0;stroke:none;fill:rgba(51,51,51,1.0);font-size:12.8px;font-family:'Roboto Medium',sans-serif">480.00</text><path  d="M 962 266
L 967 266" style="stroke-width:1;stroke:rgba(51,51,51,1.0);fill:none"/><text x="972" y="272" style="stroke-width:0;stroke:none;fill:rgba(51,51,51,1.0);font-size:12.8px;font-family:'Roboto Medium',sans-serif">950.00</text><path  d="M 962 223
L 967 223" style="stroke-width:1;stroke:rgba(51,51,51,1.0);fill:none"/><text x="972" y="229" style="stroke-width:0;stroke:none;fill:rgba(51,51,51,1.0);font-size:12.8px;font-family:'Roboto Medium',sans-serif">1430.00</text><path  d="M 962 181
L 967 181" style="stroke-width:1;stroke:rgba(51,51,51,1.0);fill:none"/><text x="972" y="187" style="stroke-width:0;stroke:none;fill:rgba(51,51,51,1.0);font-size:12.8px;font-family:'Roboto Medium',sans-serif">1900.00</text><path  d="M 962 138
L 967 138" style="stroke-width:1;stroke:rgba(51,51,51,1.0);fill:none"/><text x="972" y="144" style="stroke-width:0;stroke:none;fill:rgba(51,51,51,1.0);font-size:12.8px;font-family:'Roboto Medium',sans-serif">2380.00</text><path  d="M 962 96
L 967 96" style="stroke-width:1;stroke:rgba(51,51,51,1.0);fill:none"/><text x="972" y="102" style="stroke-width:0;stroke:none;fill:rgba(51,51,51,1.0);font-size:12.8px;font-family:'Roboto Medium',sans-serif">2850.00</text><path  d="M 962 53
L 967 53" style="stroke-width:1;stroke:rgba(51,51,51,1.0);fill:none"/><text x="972" y="59" style="stroke-width:0;stroke:none;fill:rgba(51,51,51,1.0);font-size:12.8px;font-family:'Roboto Medium',sans-serif">3330.00</text><path  d="M 962 11
L 967 11" style="stroke-width:1;stroke:rgba(51,51,51,1.0);fill:none"/><text x="972" y="17" style="stroke-width:0;stroke:none;fill:rgba(51,51,51,1.0);font-size:12.8px;font-family:'Roboto Medium',sans-serif">3800.00</text><path  d="M 38 351
L 40 351
L 41 351
L 42 351
L 43 351
L 44 351
L 45 351
L 46 351
L 47 351
L 48 351
L 49 351
L 50 351
L 51 351
L 52 351
L 53 351
L 55 351
L 56 351
L 57 351
L 58 350
L 59 350
L 60 350
L 61 350
L 62 350
L 63 350
L 64 350
L 65 349
L 66 349
L 67 349
L 68 348
L 70 348
L 71 348
L 72 348
L 73 348
L 74 348
L 75 348
L 76 348
L 77 348
L 78 348
L 79 348
L 80 349
L 81 348
L 82 348
L 83 348
L 85 349
L 86 349
L 87 349
L 88 349
L 89 350
L 90 350
L 91 350
L 92 350
L 93 350
L 94 350
L 95 350
L 96 350
L 97 350
L 98 350
L 100 350
L 101 350
L 102 350
L 103 350
L 104 350
L 105 350
L 106 350
L 107 350
L 108 350
L 109 350
L 110 350
L 111 350
L 112 350
L 113 350
L 115 350
L 116 350
L 117 350
L 118 350
L 119 350
L 120 351
L 121 351
L 122 351
L 123 351
L 124 350
L 125 350
L 126 350
L 127 350
L 128 350
L 130 350
L 131 350
L 132 350
L 133 350
L 134 350
L 135 350
L 136 350
L 137 350
L 138 350
L 139 350
L 140 351
L 141 350
L 142 350
L 143 350
L 145 350
L 146 350
L 147 350
L 148 350
L 149 350
L 150 350
L 151 350
L 152 350
L 153 350
L 154 350
L 155 350
L 156 350
L 157 350
L 158 350
L 159 350
L 161 350
L 162 350
L 163 350
L 164 350
L 165 350
L 166 350
L 167 350
L 168 350
L 169 350
L 170 350
L 171 350
L 172 350
L 173 350
L 174 350
L 176 350
L 177 350
L 178 350
L 179 350
L 180 350
L 181 350
L 182 350
L 183 350
L 184 350
L 185 350
L 186 350
L 187 350
L 188 350
L 189 350
L 191 350
L 192 350
L 193 350
L 194 350
L 195 350
L 196 350
L 197 350
L 198 350
L 199 350
L 200 350
L 201 350
L 202 349
L 203 350
L 204 350
L 206 350
L 207 350
L 208 350
L 209 350
L 210 350
L 211 350
L 212 350
L 213 350
L 214 350
L 215 350
L 216 350
L 217 350
L 218 350
L 219 350
L 221 350
L 222 349
L 223 349
L 224 349
L 225 349
L 226 349
L 227 349
L 228 349
L 229 349
L 230 349
L 231 349
L 232 348
L 233 349
L 234 349
L 236 349
L 237 348
L 238 348
L 239 349
L 240 349
L 241 348
L 242 348
L 243 348
L 244 349
L 245 348
L 246 348
L 247 349
L 248 348
L 249 348
L 251 348
L 252 348
L 253 348
L 254 347
L 255 347
L 256 346
L 257 345
L 258 345
L 259 344
L 260 344
L 261 344
L 262 344
L 263 345
L 264 345
L 266 345
L 267 346
L 268 345
L 269 346
L 270 346
L 271 346
L 272 346
L 273 347
L 274 346
L 275 346
L 276 346
L 277 345
L 278 345
L 279 344
L 280 342
L 282 343
L 283 342
L 284 342
L 285 342
L 286 342
L 287 343
L 288 343
L 289 343
L 290 343
L 291 342
L 292 343
L 293 342
L 294 342
L 295 342
L 297 340
L 298 340
L 299 340
L 300 338
L 301 338
L 302 338
L 303 337
L 304 338
L 305 337
L 306 336
L 307 335
L 308 335
L 309 333
L 310 332
L 312 330
L 313 330
L 314 331
L 315 331
L 316 329
L 317 331
L 318 331
L 319 333
L 320 333
L 321 333
L 322 334
L 323 337
L 324 336
L 325 336
L 327 335
L 328 337
L 329 337
L 330 337
L 331 337
L 332 337
L 333 339
L 334 340
L 335 338
L 336 338
L 337 338
L 338 340
L 339 340
L 340 340
L 342 340
L 343 340
L 344 340
L 345 340
L 346 341
L 347 341
L 348 342
L 349 342
L 350 342
L 351 341
L 352 340
L 353 339
L 354 338
L 355 337
L 357 336
L 358 337
L 359 338
L 360 338
L 361 337
L 362 337
L 363 338
L 364 339
L 365 338
L 366 338
L 367 337
L 368 338
L 369 337
L 370 336
L 372 335
L 373 335
L 374 335
L 375 335
L 376 336
L 377 336
L 378 336
L 379 337
L 380 338
L 381 338
L 382 340
L 383 340
L 384 340
L 385 342
L 386 341
L 388 341
L 389 340
L 390 340
L 391 340
L 392 340
L 393 339
L 394 339
L 395 340
L 396 340
L 397 338
L 398 337
L 399 336
L 400 336
L 401 336
L 403 334
L 404 334
L 405 335
L 406 336
L 407 336
L 408 335
L 409 336
L 410 336
L 411 335
L 412 336
L 413 335
L 414 335
L 415 337
L 416 337
L 418 338
L 419 339
L 420 339
L 421 340
L 422 339
L 423 335
L 424 333
L 425 333
L 426 330
L 427 330
L 428 328
L 429 329
L 430 331
L 431 329
L 433 328
L 434 329
L 435 327
L 436 328
L 437 327
L 438 323
L 439 325
L 440 326
L 441 327
L 442 329
L 443 330
L 444 330
L 445 333
L 446 333
L 448 333
L 449 331
L 450 332
L 451 333
L 452 332
L 453 328
L 454 329
L 455 328
L 456 329
L 457 327
L 458 324
L 459 326
L 460 331
L 461 332
L 463 331
L 464 331
L 465 331
L 466 331
L 467 330
L 468 330
L 469 328
L 470 329
L 471 329
L 472 330
L 473 332
L 474 333
L 475 333
L 476 335
L 478 335
L 479 336
L 480 336
L 481 336
L 482 337
L 483 337
L 484 335
L 485 336
L 486 336
L 487 337
L 488 336
L 489 335
L 490 335
L 491 337
L 493 337
L 494 337
L 495 336
L 496 337
L 497 339
L 498 339
L 499 341
L 500 342
L 501 343
L 502 344
L 503 345
L 504 345
L 505 346
L 506 344
L 507 344
L 509 345
L 510 345
L 511 345
L 512 345
L 513 346
L 514 347
L 515 347
L 516 346
L 517 345
L 518 345
L 519 344
L 520 344
L 521 343
L 522 342
L 524 343
L 525 343
L 526 343
L 527 343
L 528 343
L 529 343
L 530 344
L 531 345
L 532 345
L 533 346
L 534 345
L 535 345
L 536 346
L 537 346
L 539 346
L 540 346
L 541 347
L 542 348
L 543 348
L 544 349
L 545 349
L 546 349
L 547 349
L 548 349
L 549 349
L 550 349
L 551 349
L 552 349
L 554 349
L 555 349
L 556 349
L 557 349
L 558 349
L 559 349
L 560 350
L 561 349
L 562 350
L 563 350
L 564 349
L 565 349
L 566 350
L 567 350
L 569 349
L 570 349
L 571 349
L 572 350
L 573 349
L 574 349
L 575 349
L 576 349
L 577 349
L 578 349
L 579 349
L 580 348
L 581 348
L 582 348
L 584 348
L 585 348
L 586 348
L 587 349
L 588 349
L 589 349
L 590 349
L 591 349
L 592 349
L 593 349
L 594 349
L 595 349
L 596 349
L 597 349
L 599 349
L 600 348
L 601 348
L 602 347
L 603 347
L 604 347
L 605 347
L 606 346
L 607 347
L 608 346
L 609 346
L 610 346
L 611 346
L 612 345
L 614 345
L 615 344
L 616 344
L 617 344
L 618 344
L 619 344
L 620 343
L 621 343
L 622 343
L 623 343
L 624 343
L 625 342
L 626 342
L 627 342
L 628 343
L 630 343
L 631 343
L 632 343
L 633 344
L 634 342
L 635 343
L 636 342
L 637 342
L 638 342
L 639 341
L 640 341
L 641 341
L 642 341
L 643 341
L 645 341
L 646 341
L 647 342
L 648 342
L 649 342
L 650 342
L 651 342
L 652 341
L 653 342
L 654 342
L 655 342
L 656 343
L 657 343
L 658 342
L 660 342
L 661 341
L 662 342
L 663 342
L 664 342
L 665 342
L 666 342
L 667 341
L 668 340
L 669 340
L 670 339
L 671 340
L 672 340
L 673 340
L 675 342
L 676 343
L 677 343
L 678 343
L 679 342
L 680 343
L 681 342
L 682 341
L 683 340
L 684 339
L 685 338
L 686 338
L 687 337
L 688 336
L 690 335
L 691 335
L 692 333
L 693 332
L 694 328
L 695 327
L 696 325
L 697 323
L 698 321
L 699 320
L 700 318
L 701 320
L 702 319
L 703 316
L 705 316
L 706 314
L 707 313
L 708 313
L 709 311
L 710 309
L 711 311
L 712 310
L 713 311
L 714 311
L 715 313
L 716 309
L 717 310
L 718 309
L 720 309
L 721 308
L 722 310
L 723 310
L 724 314
L 725 315
L 726 317
L 727 320
L 728 322
L 729 323
L 730 323
L 731 326
L 732 328
L 733 330
L 734 331
L 736 332
L 737 333
L 738 333
L 739 334
L 740 334
L 741 335
L 742 334
L 743 336
L 744 336
L 745 337
L 746 337
L 747 337
L 748 338
L 749 338
L 751 338
L 752 338
L 753 338
L 754 339
L 755 339
L 756 338
L 757 338
L 758 337
L 759 336
L 760 337
L 761 335
L 762 334
L 763 331
L 764 325
L 766 319
L 767 314
L 768 308
L 769 303
L 770 297
L 771 291
L 772 286
L 773 280
L 774 274
L 775 266
L 776 262
L 777 258
L 778 256
L 779 247
L 781 244
L 782 232
L 783 228
L 784 222
L 785 211
L 786 204
L 787 200
L 788 191
L 789 182
L 790 178
L 791 172
L 792 177
L 793 182
L 794 171
L 796 173
L 797 177
L 798 178
L 799 173
L 800 171
L 801 167
L 802 175
L 803 176
L 804 180
L 805 179
L 806 185
L 807 182
L 808 181
L 809 168
L 811 168
L 812 168
L 813 171
L 814 175
L 815 179
L 816 186
L 817 194
L 818 192
L 819 189
L 820 193
L 821 191
L 822 190
L 823 182
L 824 180
L 826 178
L 827 177
L 828 166
L 829 161
L 830 153
L 831 146
L 832 129
L 833 108
L 834 84
L 835 75
L 836 60
L 837 48
L 838 42
L 839 24
L 841 29
L 842 24
L 843 19
L 844 19
L 845 20
L 846 29
L 847 34
L 848 31
L 849 45
L 850 53
L 851 63
L 852 72
L 853 72
L 854 88
L 855 107
L 857 121
L 858 132
L 859 142
L 860 157
L 861 166
L 862 187
L 863 195
L 864 202
L 865 210
L 866 214
L 867 217
L 868 223
L 869 233
L 870 238
L 872 246
L 873 248
L 874 253
L 875 256
L 876 262
L 877 270
L 878 269
L 879 272
L 880 279
L 881 283
L 882 285
L 883 284
L 884 285
L 885 290
L 887 296
L 888 296
L 889 295
L 890 294
L 891 291
L 892 292
L 893 291
L 894 286
L 895 287
L 896 289
L 897 290
L 898 294
L 899 296
L 900 299
L 902 306
L 903 310
L 904 311
L 905 314
L 906 318
L 907 318
L 908 320
L 909 320
L 910 319
L 911 321
L 912 321
L 913 321
L 914 325
L 915 327
L 917 328
L 918 330
L 919 330
L 920 331
L 921 332
L 922 331
L 923 330
L 924 329
L 925 328
L 926 327
L 927 326
L 928 325
L 929 325
L 930 322
L 932 321
L 933 320
L 934 318
L 935 317
L 936 314
L 937 309
L 938 307
L 939 305
L 940 300
L 941 299
L 942 294
L 943 287
L 944 280
L 945 276
L 947 272
L 948 267
L 949 263
L 950 261
L 951 258
L 952 259
L 953 255
L 954 251
L 955 252
L 956 250
L 957 252
L 958 255
L 959 253
L 960 259
L 961 261" style="stroke-width:1;stroke:rgba(0,116,217,1.0);fill:none"/><path  d="M 38 351
L 40 351
L 41 351
L 42 351
L 43 351
L 44 351
L 45 351
L 46 351
L 47 351
L 48 351
L 49 351
L 50 351
L 51 351
L 52 351
L 53 351
L 55 351
L 56 351
L 57 351
L 58 350
L 59 351
L 60 351
L 61 351
L 62 351
L 63 350
L 64 350
L 65 350
L 66 350
L 67 350
L 68 350
L 70 350
L 71 350
L 72 350
L 73 350
L 74 350
L 75 350
L 76 350
L 77 350
L 78 350
L 79 351
L 80 351
L 81 350
L 82 350
L 83 350
L 85 351
L 86 350
L 87 351
L 88 351
L 89 350
L 90 351
L 91 350
L 92 350
L 93 351
L 94 351
L 95 351
L 96 350
L 97 351
L 98 350
L 100 350
L 101 350
L 102 351
L 103 351
L 104 351
L 105 351
L 106 350
L 107 351
L 108 351
L 109 351
L 110 351
L 111 351
L 112 350
L 113 351
L 115 351
L 116 351
L 117 351
L 118 351
L 119 351
L 120 351
L 121 351
L 122 351
L 123 351
L 124 350
L 125 350
L 126 350
L 127 351
L 128 351
L 130 351
L 131 351
L 132 351
L 133 350
L 134 351
L 135 351
L 136 351
L 137 351
L 138 351
L 139 351
L 140 351
L 141 350
L 142 351
L 143 351
L 145 351
L 146 350
L 147 351
L 148 351
L 149 351
L 150 351
L 151 351
L 152 351
L 153 350
L 154 351
L 155 351
L 156 351
L 157 351
L 158 351
L 159 350
L 161 350
L 162 351
L 163 350
L 164 351
L 165 351
L 166 351
L 167 351
L 168 350
L 169 351
L 170 351
L 171 351
L 172 350
L 173 351
L 174 351
L 176 351
L 177 351
L 178 350
L 179 351
L 180 351
L 181 351
L 182 350
L 183 351
L 184 351
L 185 351
L 186 350
L 187 350
L 188 350
L 189 351
L 191 350
L 192 351
L 193 351
L 194 351
L 195 350
L 196 350
L 197 350
L 198 350
L 199 350
L 200 350
L 201 351
L 202 350
L 203 351
L 204 350
L 206 350
L 207 351
L 208 351
L 209 350
L 210 350
L 211 350
L 212 350
L 213 351
L 214 351
L 215 351
L 216 351
L 217 350
L 218 350
L 219 350
L 221 350
L 222 350
L 223 350
L 224 350
L 225 351
L 226 350
L 227 350
L 228 350
L 229 350
L 230 350
L 231 350
L 232 350
L 233 351
L 234 350
L 236 350
L 237 349
L 238 351
L 239 350
L 240 350
L 241 350
L 242 350
L 243 350
L 244 350
L 245 350
L 246 350
L 247 350
L 248 350
L 249 350
L 251 350
L 252 350
L 253 350
L 254 350
L 255 350
L 256 349
L 257 349
L 258 350
L 259 349
L 260 350
L 261 349
L 262 350
L 263 350
L 264 350
L 266 349
L 267 350
L 268 350
L 269 350
L 270 350
L 271 350
L 272 350
L 273 350
L 274 349
L 275 350
L 276 349
L 277 349
L 278 349
L 279 349
L 280 349
L 282 350
L 283 349
L 284 349
L 285 349
L 286 349
L 287 350
L 288 349
L 289 350
L 290 350
L 291 349
L 292 349
L 293 349
L 294 349
L 295 349
L 297 348
L 298 350
L 299 349
L 300 348
L 301 348
L 302 349
L 303 348
L 304 349
L 305 348
L 306 348
L 307 347
L 308 347
L 309 347
L 310 348
L 312 346
L 313 348
L 314 349
L 315 347
L 316 345
L 317 349
L 318 347
L 319 349
L 320 348
L 321 349
L 322 348
L 323 348
L 324 348
L 325 347
L 327 348
L 328 350
L 329 349
L 330 348
L 331 348
L 332 349
L 333 349
L 334 349
L 335 349
L 336 349
L 337 349
L 338 349
L 339 349
L 340 349
L 342 349
L 343 348
L 344 349
L 345 349
L 346 350
L 347 349
L 348 350
L 349 349
L 350 348
L 351 348
L 352 348
L 353 348
L 354 348
L 355 349
L 357 348
L 358 349
L 359 349
L 360 348
L 361 347
L 362 349
L 363 349
L 364 350
L 365 349
L 366 349
L 367 347
L 368 348
L 369 348
L 370 348
L 372 349
L 373 348
L 374 349
L 375 347
L 376 349
L 377 349
L 378 348
L 379 349
L 380 349
L 381 349
L 382 349
L 383 349
L 384 349
L 385 350
L 386 349
L 388 349
L 389 349
L 390 349
L 391 350
L 392 349
L 393 349
L 394 348
L 395 349
L 396 349
L 397 347
L 398 348
L 399 348
L 400 349
L 401 348
L 403 348
L 404 349
L 405 348
L 406 349
L 407 348
L 408 348
L 409 349
L 410 348
L 411 348
L 412 349
L 413 348
L 414 348
L 415 350
L 416 349
L 418 349
L 419 349
L 420 348
L 421 349
L 422 347
L 423 346
L 424 347
L 425 349
L 426 346
L 427 348
L 428 347
L 429 348
L 430 348
L 431 345
L 433 348
L 434 347
L 435 346
L 436 347
L 437 347
L 438 344
L 439 347
L 440 349
L 441 348
L 442 348
L 443 348
L 444 347
L 445 347
L 446 347
L 448 350
L 449 346
L 450 349
L 451 349
L 452 346
L 453 344
L 454 347
L 455 348
L 456 347
L 457 347
L 458 347
L 459 348
L 460 348
L 461 349
L 463 347
L 464 347
L 465 346
L 466 346
L 467 347
L 468 348
L 469 347
L 470 348
L 471 347
L 472 348
L 473 348
L 474 348
L 475 348
L 476 349
L 478 348
L 479 348
L 480 348
L 481 348
L 482 349
L 483 348
L 484 347
L 485 349
L 486 349
L 487 349
L 488 347
L 489 347
L 490 349
L 491 349
L 493 349
L 494 349
L 495 348
L 496 349
L 497 349
L 498 349
L 499 351
L 500 350
L 501 350
L 502 350
L 503 350
L 504 350
L 505 350
L 506 349
L 507 350
L 509 350
L 510 350
L 511 350
L 512 350
L 513 350
L 514 350
L 515 350
L 516 348
L 517 349
L 518 350
L 519 350
L 520 349
L 521 349
L 522 349
L 524 349
L 525 349
L 526 349
L 527 350
L 528 349
L 529 350
L 530 350
L 531 350
L 532 350
L 533 350
L 534 349
L 535 350
L 536 350
L 537 350
L 539 350
L 540 350
L 541 350
L 542 350
L 543 350
L 544 350
L 545 350
L 546 351
L 547 350
L 548 350
L 549 351
L 550 350
L 551 351
L 552 350
L 554 351
L 555 350
L 556 350
L 557 351
L 558 350
L 559 350
L 560 350
L 561 350
L 562 350
L 563 350
L 564 350
L 565 350
L 566 351
L 567 350
L 569 350
L 570 350
L 571 350
L 572 351
L 573 350
L 574 350
L 575 350
L 576 350
L 577 350
L 578 350
L 579 350
L 580 349
L 581 350
L 582 350
L 584 350
L 585 350
L 586 351
L 587 350
L 588 350
L 589 350
L 590 350
L 591 350
L 592 350
L 593 350
L 594 350
L 595 350
L 596 350
L 597 350
L 599 350
L 600 350
L 601 350
L 602 350
L 603 349
L 604 350
L 605 350
L 606 350
L 607 350
L 608 350
L 609 350
L 610 349
L 611 350
L 612 350
L 614 349
L 615 349
L 616 350
L 617 349
L 618 349
L 619 349
L 620 350
L 621 349
L 622 350
L 623 349
L 624 349
L 625 348
L 626 350
L 627 349
L 628 350
L 630 349
L 631 349
L 632 349
L 633 349
L 634 349
L 635 350
L 636 350
L 637 349
L 638 349
L 639 349
L 640 349
L 641 349
L 642 350
L 643 349
L 645 350
L 646 349
L 647 349
L 648 349
L 649 349
L 650 350
L 651 350
L 652 349
L 653 350
L 654 349
L 655 349
L 656 349
L 657 350
L 658 349
L 660 349
L 661 349
L 662 349
L 663 350
L 664 349
L 665 350
L 666 349
L 667 348
L 668 348
L 669 350
L 670 348
L 671 350
L 672 349
L 673 350
L 675 349
L 676 349
L 677 350
L 678 349
L 679 349
L 680 350
L 681 349
L 682 348
L 683 348
L 684 348
L 685 348
L 686 348
L 687 349
L 688 349
L 690 347
L 691 348
L 692 347
L 693 347
L 694 345
L 695 347
L 696 347
L 697 345
L 698 346
L 699 345
L 700 344
L 701 346
L 702 346
L 703 344
L 705 345
L 706 343
L 707 345
L 708 344
L 709 344
L 710 345
L 711 345
L 712 344
L 713 345
L 714 345
L 715 346
L 716 340
L 717 345
L 718 344
L 720 344
L 721 344
L 722 346
L 723 347
L 724 345
L 725 347
L 726 346
L 727 346
L 728 347
L 729 347
L 730 347
L 731 348
L 732 349
L 733 348
L 734 348
L 736 348
L 737 349
L 738 347
L 739 348
L 740 349
L 741 349
L 742 347
L 743 349
L 744 348
L 745 348
L 746 349
L 747 349
L 748 349
L 749 347
L 751 349
L 752 349
L 753 348
L 754 350
L 755 349
L 756 348
L 757 348
L 758 348
L 759 348
L 760 348
L 761 348
L 762 348
L 763 345
L 764 341
L 766 341
L 767 343
L 768 342
L 769 342
L 770 341
L 771 339
L 772 337
L 773 334
L 774 336
L 775 334
L 776 338
L 777 338
L 778 336
L 779 327
L 781 332
L 782 324
L 783 330
L 784 331
L 785 327
L 786 328
L 787 324
L 788 322
L 789 315
L 790 324
L 791 325
L 792 333
L 793 332
L 794 312
L 796 324
L 797 319
L 798 325
L 799 320
L 800 331
L 801 328
L 802 320
L 803 326
L 804 323
L 805 324
L 806 326
L 807 328
L 808 327
L 809 306
L 811 327
L 812 322
L 813 327
L 814 330
L 815 333
L 816 334
L 817 314
L 818 325
L 819 319
L 820 332
L 821 328
L 822 332
L 823 325
L 824 312
L 826 323
L 827 318
L 828 319
L 829 323
L 830 324
L 831 317
L 832 294
L 833 301
L 834 293
L 835 310
L 836 307
L 837 311
L 838 311
L 839 275
L 841 307
L 842 288
L 843 304
L 844 307
L 845 312
L 846 321
L 847 280
L 848 303
L 849 304
L 850 312
L 851 318
L 852 321
L 853 321
L 854 296
L 855 324
L 857 318
L 858 324
L 859 330
L 860 337
L 861 330
L 862 319
L 863 331
L 864 326
L 865 332
L 866 334
L 867 340
L 868 336
L 869 330
L 870 336
L 872 334
L 873 334
L 874 340
L 875 343
L 876 342
L 877 339
L 878 335
L 879 338
L 880 341
L 881 344
L 882 345
L 883 342
L 884 339
L 885 341
L 887 344
L 888 342
L 889 343
L 890 343
L 891 339
L 892 341
L 893 339
L 894 339
L 895 343
L 896 344
L 897 345
L 898 343
L 899 343
L 900 343
L 902 346
L 903 346
L 904 346
L 905 348
L 906 347
L 907 343
L 908 344
L 909 346
L 910 345
L 911 348
L 912 348
L 913 347
L 914 346
L 915 347
L 917 347
L 918 348
L 919 348
L 920 349
L 921 348
L 922 346
L 923 346
L 924 346
L 925 347
L 926 347
L 927 348
L 928 347
L 929 345
L 930 344
L 932 344
L 933 347
L 934 345
L 935 347
L 936 344
L 937 340
L 938 342
L 939 341
L 940 342
L 941 344
L 942 341
L 943 338
L 944 332
L 945 337
L 947 336
L 948 338
L 949 339
L 950 338
L 951 335
L 952 334
L 953 332
L 954 333
L 955 339
L 956 337
L 957 340
L 958 338
L 959 332
L 960 339
L 961 335" style="stroke-width:1;stroke:rgba(0,217,101,1.0);fill:none"/><path  d="M 38 351
L 40 351
L 41 351
L 42 351
L 43 351
L 44 351
L 45 351
L 46 351
L 47 351
L 48 351
L 49 351
L 50 351
L 51 351
L 52 351
L 53 351
L 55 351
L 56 351
L 57 351
L 58 351
L 59 351
L 60 351
L 61 351
L 62 351
L 63 351
L 64 351
L 65 351
L 66 351
L 67 351
L 68 351
L 70 351
L 71 351
L 72 351
L 73 351
L 74 351
L 75 351
L 76 351
L 77 351
L 78 351
L 79 351
L 80 351
L 81 351
L 82 351
L 83 351
L 85 351
L 86 350
L 87 351
L 88 351
L 89 351
L 90 351
L 91 351
L 92 351
L 93 351
L 94 351
L 95 351
L 96 351
L 97 351
L 98 351
L 100 351
L 101 351
L 102 350
L 103 351
L 104 351
L 105 351
L 106 351
L 107 351
L 108 351
L 109 351
L 110 351
L 111 351
L 112 351
L 113 351
L 115 351
L 116 351
L 117 351
L 118 351
L 119 351
L 120 351
L 121 351
L 122 351
L 123 351
L 124 351
L 125 351
L 126 351
L 127 351
L 128 351
L 130 351
L 131 351
L 132 351
L 133 351
L 134 351
L 135 351
L 136 351
L 137 351
L 138 351
L 139 351
L 140 350
L 141 351
L 142 351
L 143 351
L 145 351
L 146 351
L 147 351
L 148 351
L 149 351
L 150 351
L 151 351
L 152 351
L 153 351
L 154 351
L 155 351
L 156 350
L 157 351
L 158 351
L 159 351
L 161 351
L 162 351
L 163 351
L 164 351
L 165 351
L 166 351
L 167 351
L 168 351
L 169 351
L 170 351
L 171 351
L 172 351
L 173 351
L 174 351
L 176 351
L 177 351
L 178 351
L 179 351
L 180 351
L 181 351
L 182 351
L 183 351
L 184 351
L 185 351
L 186 351
L 187 351
L 188 351
L 189 351
L 191 351
L 192 351
L 193 351
L 194 351
L 195 351
L 196 351
L 197 351
L 198 351
L 199 351
L 200 351
L 201 351
L 202 351
L 203 350
L 204 351
L 206 351
L 207 351
L 208 351
L 209 351
L 210 351
L 211 351
L 212 351
L 213 350
L 214 351
L 215 351
L 216 351
L 217 351
L 218 351
L 219 351
L 221 351
L 222 351
L 223 351
L 224 351
L 225 351
L 226 351
L 227 351
L 228 351
L 229 351
L 230 351
L 231 351
L 232 351
L 233 351
L 234 351
L 236 351
L 237 351
L 238 351
L 239 351
L 240 351
L 241 351
L 242 351
L 243 351
L 244 351
L 245 350
L 246 351
L 247 351
L 248 351
L 249 351
L 251 351
L 252 351
L 253 351
L 254 351
L 255 351
L 256 351
L 257 350
L 258 351
L 259 351
L 260 351
L 261 351
L 262 351
L 263 351
L 264 351
L 266 351
L 267 351
L 268 351
L 269 351
L 270 351
L 271 351
L 272 351
L 273 351
L 274 351
L 275 351
L 276 351
L 277 351
L 278 351
L 279 351
L 280 351
L 282 351
L 283 351
L 284 351
L 285 351
L 286 351
L 287 351
L 288 351
L 289 350
L 290 351
L 291 351
L 292 350
L 293 351
L 294 351
L 295 350
L 297 350
L 298 351
L 299 351
L 300 350
L 301 350
L 302 350
L 303 351
L 304 350
L 305 351
L 306 350
L 307 351
L 308 351
L 309 351
L 310 351
L 312 351
L 313 351
L 314 351
L 315 350
L 316 351
L 317 351
L 318 351
L 319 350
L 320 351
L 321 351
L 322 351
L 323 351
L 324 350
L 325 351
L 327 351
L 328 350
L 329 351
L 330 351
L 331 350
L 332 351
L 333 351
L 334 351
L 335 351
L 336 351
L 337 351
L 338 351
L 339 351
L 340 351
L 342 350
L 343 351
L 344 351
L 345 351
L 346 351
L 347 350
L 348 351
L 349 351
L 350 351
L 351 351
L 352 351
L 353 351
L 354 351
L 355 350
L 357 351
L 358 351
L 359 351
L 360 351
L 361 351
L 362 351
L 363 351
L 364 351
L 365 351
L 366 351
L 367 351
L 368 351
L 369 351
L 370 351
L 372 351
L 373 350
L 374 351
L 375 350
L 376 351
L 377 351
L 378 351
L 379 351
L 380 351
L 381 351
L 382 351
L 383 350
L 384 351
L 385 351
L 386 350
L 388 351
L 389 351
L 390 350
L 391 351
L 392 350
L 393 350
L 394 350
L 395 350
L 396 350
L 397 350
L 398 350
L 399 350
L 400 350
L 401 351
L 403 350
L 404 350
L 405 350
L 406 351
L 407 351
L 408 351
L 409 350
L 410 350
L 411 351
L 412 351
L 413 350
L 414 350
L 415 350
L 416 351
L 418 350
L 419 350
L 420 350
L 421 350
L 422 350
L 423 351
L 424 351
L 425 350
L 426 350
L 427 350
L 428 351
L 429 350
L 430 351
L 431 351
L 433 350
L 434 351
L 435 350
L 436 350
L 437 351
L 438 350
L 439 350
L 440 351
L 441 351
L 442 350
L 443 351
L 444 350
L 445 351
L 446 350
L 448 350
L 449 351
L 450 351
L 451 351
L 452 351
L 453 350
L 454 350
L 455 351
L 456 351
L 457 351
L 458 351
L 459 350
L 460 351
L 461 351
L 463 351
L 464 351
L 465 351
L 466 350
L 467 351
L 468 351
L 469 351
L 470 350
L 471 350
L 472 350
L 473 350
L 474 351
L 475 351
L 476 350
L 478 351
L 479 351
L 480 351
L 481 351
L 482 351
L 483 350
L 484 351
L 485 351
L 486 351
L 487 351
L 488 350
L 489 351
L 490 351
L 491 351
L 493 351
L 494 351
L 495 351
L 496 351
L 497 351
L 498 351
L 499 351
L 500 351
L 501 351
L 502 351
L 503 350
L 504 351
L 505 351
L 506 351
L 507 350
L 509 350
L 510 351
L 511 351
L 512 351
L 513 351
L 514 351
L 515 351
L 516 350
L 517 351
L 518 351
L 519 351
L 520 351
L 521 351
L 522 351
L 524 351
L 525 351
L 526 351
L 527 351
L 528 351
L 529 351
L 530 351
L 531 350
L 532 351
L 533 351
L 534 351
L 535 351
L 536 351
L 537 351
L 539 351
L 540 351
L 541 351
L 542 350
L 543 351
L 544 350
L 545 351
L 546 350
L 547 351
L 548 351
L 549 351
L 550 350
L 551 350
L 552 351
L 554 351
L 555 351
L 556 351
L 557 351
L 558 351
L 559 351
L 560 351
L 561 351
L 562 350
L 563 351
L 564 351
L 565 351
L 566 351
L 567 351
L 569 351
L 570 351
L 571 350
L 572 351
L 573 351
L 574 351
L 575 351
L 576 351
L 577 351
L 578 351
L 579 351
L 580 351
L 581 351
L 582 351
L 584 351
L 585 351
L 586 351
L 587 351
L 588 351
L 589 351
L 590 351
L 591 351
L 592 351
L 593 351
L 594 351
L 595 351
L 596 351
L 597 351
L 599 351
L 600 351
L 601 351
L 602 351
L 603 351
L 604 351
L 605 351
L 606 351
L 607 351
L 608 351
L 609 351
L 610 351
L 611 351
L 612 351
L 614 351
L 615 351
L 616 351
L 617 351
L 618 351
L 619 351
L 620 351
L 621 351
L 622 351
L 623 351
L 624 351
L 625 351
L 626 351
L 627 351
L 628 351
L 630 351
L 631 350
L 632 351
L 633 351
L 634 351
L 635 351
L 636 351
L 637 351
L 638 351
L 639 351
L 640 351
L 641 351
L 642 351
L 643 351
L 645 351
L 646 351
L 647 351
L 648 350
L 649 351
L 650 351
L 651 351
L 652 351
L 653 351
L 654 351
L 655 351
L 656 351
L 657 351
L 658 351
L 660 351
L 661 351
L 662 351
L 663 351
L 664 351
L 665 351
L 666 351
L 667 351
L 668 351
L 669 351
L 670 351
L 671 351
L 672 350
L 673 351
L 675 351
L 676 351
L 677 351
L 678 351
L 679 351
L 680 351
L 681 351
L 682 351
L 683 351
L 684 351
L 685 351
L 686 351
L 687 351
L 688 351
L 690 351
L 691 350
L 692 351
L 693 351
L 694 351
L 695 351
L 696 351
L 697 351
L 698 351
L 699 351
L 700 350
L 701 351
L 702 351
L 703 351
L 705 350
L 706 351
L 707 351
L 708 351
L 709 351
L 710 351
L 711 350
L 712 351
L 713 351
L 714 351
L 715 351
L 716 351
L 717 351
L 718 350
L 720 350
L 721 350
L 722 350
L 723 351
L 724 351
L 725 350
L 726 351
L 727 350
L 728 351
L 729 350
L 730 350
L 731 351
L 732 351
L 733 351
L 734 351
L 736 351
L 737 351
L 738 351
L 739 351
L 740 351
L 741 351
L 742 350
L 743 350
L 744 351
L 745 351
L 746 351
L 747 350
L 748 350
L 749 351
L 751 351
L 752 351
L 753 351
L 754 350
L 755 350
L 756 351
L 757 351
L 758 351
L 759 351
L 760 351
L 761 351
L 762 351
L 763 351
L 764 351
L 766 351
L 767 351
L 768 351
L 769 351
L 770 351
L 771 351
L 772 351
L 773 351
L 774 351
L 775 351
L 776 351
L 777 351
L 778 351
L 779 351
L 781 351
L 782 351
L 783 351
L 784 351
L 785 351
L 786 351
L 787 351
L 788 351
L 789 351
L 790 351
L 791 350
L 792 351
L 793 351
L 794 351
L 796 351
L 797 351
L 798 351
L 799 351
L 800 351
L 801 351
L 802 351
L 803 350
L 804 351
L 805 351
L 806 351
L 807 351
L 808 350
L 809 351
L 811 351
L 812 351
L 813 350
L 814 351
L 815 351
L 816 351
L 817 351
L 818 351
L 819 350
L 820 351
L 821 351
L 822 351
L 823 351
L 824 350
L 826 351
L 827 351
L 828 351
L 829 351
L 830 351
L 831 351
L 832 350
L 833 351
L 834 350
L 835 351
L 836 350
L 837 351
L 838 351
L 839 350
L 841 351
L 842 350
L 843 351
L 844 351
L 845 351
L 846 351
L 847 351
L 848 351
L 849 350
L 850 351
L 851 351
L 852 351
L 853 350
L 854 351
L 855 351
L 857 350
L 858 351
L 859 351
L 860 351
L 861 351
L 862 350
L 863 350
L 864 351
L 865 351
L 866 351
L 867 351
L 868 351
L 869 350
L 870 350
L 872 351
L 873 351
L 874 350
L 875 351
L 876 351
L 877 350
L 878 351
L 879 351
L 880 351
L 881 350
L 882 351
L 883 351
L 884 351
L 885 351
L 887 351
L 888 351
L 889 351
L 890 350
L 891 351
L 892 351
L 893 351
L 894 351
L 895 351
L 896 351
L 897 351
L 898 351
L 899 351
L 900 351
L 902 351
L 903 350
L 904 351
L 905 351
L 906 351
L 907 351
L 908 351
L 909 351
L 910 351
L 911 351
L 912 351
L 913 351
L 914 351
L 915 350
L 917 351
L 918 351
L 919 351
L 920 351
L 921 351
L 922 351
L 923 351
L 924 350
L 925 351
L 926 351
L 927 351
L 928 351
L 929 351
L 930 351
L 932 351
L 933 351
L 934 351
L 935 351
L 936 350
L 937 351
L 938 351
L 939 351
L 940 351
L 941 351
L 942 351
L 943 351
L 944 351
L 945 351
L 947 351
L 948 351
L 949 351
L 950 351
L 951 351
L 952 351
L 953 351
L 954 351
L 955 351
L 956 351
L 957 351
L 958 351
L 959 351
L 960 351
L 961 351" style="stroke-width:1;stroke:rgba(217,0,116,1.0);fill:none"/><text x="386" y="33" style="stroke-width:0;stroke:none;fill:rgba(51,51,51,1.0);font-size:23.0px;font-family:'Roboto Medium',sans-serif">Gänserndorf 07.07.2022</text><path  d="M 38 11
L 251 11
L 251 91
L 38 91
L 38 11" style="stroke-width:1;stroke:rgba(51,51,51,1.0);fill:rgba(255,255,255,1.0)"/><text x="43" y="26" style="stroke-width:0;stroke:none;fill:rgba(51,51,51,1.0);font-size:10.2px;font-family:'Roboto Medium',sans-serif">Sieben Tage Durschnitt Inzidenz Fälle</text><path  d="M 221 21
L 241 21" style="stroke-width:1;stroke:rgba(0,116,217,1.0);fill:none"/><text x="43" y="56" style="stroke-width:0;stroke:none;fill:rgba(51,51,51,1.0);font-size:10.2px;font-family:'Roboto Medium',sans-serif">Anzahl Faelle</text><path  d="M 110 51
L 241 51" style="stroke-width:1;stroke:rgba(0,217,101,1.0);fill:none"/><text x="43" y="86" style="stroke-width:0;stroke:none;fill:rgba(51,51,51,1.0);font-size:10.2px;font-family:'Roboto Medium',sans-serif">Anzahl Tot</text><path  d="M 98 81
L 241 81" style="stroke-width:1;stroke:rgba(217,0,116,1.0);fill:none"/></svg>