<svg xmlns="http://www.w3.org/2000/svg" xmlns:xlink="http://www.w3.org/1999/xlink" width="1024" height="400">\n<path  d="M 0 0
L 1024 0
L 1024 400
L 0 400
L 0 0" style="stroke-width:0;stroke:rgba(255,255,255,1.0);fill:rgba(255,255,255,1.0)"/><path  d="M 38 11
L 969 11
L 969 351
L 38 351
L 38 11" style="stroke-width:0;stroke:rgba(255,255,255,1.0);fill:rgba(255,255,255,1.0)"/><path  d="M 38 351
L 969 351" style="stroke-width:1;stroke:rgba(51,51,51,1.0);fill:none"/><path  d="M 38 351
L 38 356" style="stroke-width:1;stroke:rgba(51,51,51,1.0);fill:none"/><text x="5" y="373" style="stroke-width:0;stroke:none;fill:rgba(51,51,51,1.0);font-size:12.8px;font-family:'Roboto Medium',sans-serif">2020-02-26</text><path  d="M 155 351
L 155 356" style="stroke-width:1;stroke:rgba(51,51,51,1.0);fill:none"/><text x="122" y="373" style="stroke-width:0;stroke:none;fill:rgba(51,51,51,1.0);font-size:12.8px;font-family:'Roboto Medium',sans-serif">2020-04-11</text><path  d="M 271 351
L 271 356" style="stroke-width:1;stroke:rgba(51,51,51,1.0);fill:none"/><text x="238" y="373" style="stroke-width:0;stroke:none;fill:rgba(51,51,51,1.0);font-size:12.8px;font-family:'Roboto Medium',sans-serif">2020-05-26</text><path  d="M 388 351
L 388 356" style="stroke-width:1;stroke:rgba(51,51,51,1.0);fill:none"/><text x="355" y="373" style="stroke-width:0;stroke:none;fill:rgba(51,51,51,1.0);font-size:12.8px;font-family:'Roboto Medium',sans-serif">2020-07-10</text><path  d="M 504 351
L 504 356" style="stroke-width:1;stroke:rgba(51,51,51,1.0);fill:none"/><text x="471" y="373" style="stroke-width:0;stroke:none;fill:rgba(51,51,51,1.0);font-size:12.8px;font-family:'Roboto Medium',sans-serif">2020-08-24</text><path  d="M 620 351
L 620 356" style="stroke-width:1;stroke:rgba(51,51,51,1.0);fill:none"/><text x="587" y="373" style="stroke-width:0;stroke:none;fill:rgba(51,51,51,1.0);font-size:12.8px;font-family:'Roboto Medium',sans-serif">2020-10-08</text><path  d="M 737 351
L 737 356" style="stroke-width:1;stroke:rgba(51,51,51,1.0);fill:none"/><text x="704" y="373" style="stroke-width:0;stroke:none;fill:rgba(51,51,51,1.0);font-size:12.8px;font-family:'Roboto Medium',sans-serif">2020-11-22</text><path  d="M 853 351
L 853 356" style="stroke-width:1;stroke:rgba(51,51,51,1.0);fill:none"/><text x="820" y="373" style="stroke-width:0;stroke:none;fill:rgba(51,51,51,1.0);font-size:12.8px;font-family:'Roboto Medium',sans-serif">2021-01-06</text><path  d="M 969 351
L 969 356" style="stroke-width:1;stroke:rgba(51,51,51,1.0);fill:none"/><text x="936" y="373" style="stroke-width:0;stroke:none;fill:rgba(51,51,51,1.0);font-size:12.8px;font-family:'Roboto Medium',sans-serif">2021-02-20</text><text x="485" y="395" style="stroke-width:0;stroke:none;fill:rgba(51,51,51,1.0);font-size:12.8px;font-family:'Roboto Medium',sans-serif">Datum</text><path  d="M 970 351
L 970 11" style="stroke-width:1;stroke:rgba(51,51,51,1.0);fill:none"/><path  d="M 970 351
L 975 351" style="stroke-width:1;stroke:rgba(51,51,51,1.0);fill:none"/><text x="980" y="357" style="stroke-width:0;stroke:none;fill:rgba(51,51,51,1.0);font-size:12.8px;font-family:'Roboto Medium',sans-serif">0.00</text><path  d="M 970 307
L 975 307" style="stroke-width:1;stroke:rgba(51,51,51,1.0);fill:none"/><text x="980" y="313" style="stroke-width:0;stroke:none;fill:rgba(51,51,51,1.0);font-size:12.8px;font-family:'Roboto Medium',sans-serif">32.00</text><path  d="M 970 265
L 975 265" style="stroke-width:1;stroke:rgba(51,51,51,1.0);fill:none"/><text x="980" y="271" style="stroke-width:0;stroke:none;fill:rgba(51,51,51,1.0);font-size:12.8px;font-family:'Roboto Medium',sans-serif">63.00</text><path  d="M 970 223
L 975 223" style="stroke-width:1;stroke:rgba(51,51,51,1.0);fill:none"/><text x="980" y="229" style="stroke-width:0;stroke:none;fill:rgba(51,51,51,1.0);font-size:12.8px;font-family:'Roboto Medium',sans-serif">94.00</text><path  d="M 970 181
L 975 181" style="stroke-width:1;stroke:rgba(51,51,51,1.0);fill:none"/><text x="980" y="187" style="stroke-width:0;stroke:none;fill:rgba(51,51,51,1.0);font-size:12.8px;font-family:'Roboto Medium',sans-serif">125.00</text><path  d="M 970 137
L 975 137" style="stroke-width:1;stroke:rgba(51,51,51,1.0);fill:none"/><text x="980" y="143" style="stroke-width:0;stroke:none;fill:rgba(51,51,51,1.0);font-size:12.8px;font-family:'Roboto Medium',sans-serif">157.00</text><path  d="M 970 95
L 975 95" style="stroke-width:1;stroke:rgba(51,51,51,1.0);fill:none"/><text x="980" y="101" style="stroke-width:0;stroke:none;fill:rgba(51,51,51,1.0);font-size:12.8px;font-family:'Roboto Medium',sans-serif">188.00</text><path  d="M 970 53
L 975 53" style="stroke-width:1;stroke:rgba(51,51,51,1.0);fill:none"/><text x="980" y="59" style="stroke-width:0;stroke:none;fill:rgba(51,51,51,1.0);font-size:12.8px;font-family:'Roboto Medium',sans-serif">219.00</text><path  d="M 970 11
L 975 11" style="stroke-width:1;stroke:rgba(51,51,51,1.0);fill:none"/><text x="980" y="17" style="stroke-width:0;stroke:none;fill:rgba(51,51,51,1.0);font-size:12.8px;font-family:'Roboto Medium',sans-serif">250.00</text><path  d="M 38 351
L 41 351
L 44 351
L 46 351
L 49 351
L 51 351
L 54 351
L 57 351
L 59 351
L 62 351
L 64 351
L 67 351
L 70 351
L 72 351
L 75 351
L 77 351
L 80 351
L 82 351
L 85 348
L 88 348
L 90 348
L 93 348
L 95 348
L 98 341
L 101 336
L 103 327
L 106 325
L 108 323
L 111 319
L 113 306
L 116 309
L 119 312
L 121 321
L 124 315
L 126 314
L 129 314
L 132 315
L 134 314
L 137 317
L 139 319
L 142 318
L 145 318
L 147 318
L 150 330
L 152 334
L 155 334
L 157 334
L 160 341
L 163 344
L 165 344
L 168 343
L 170 344
L 173 344
L 176 344
L 178 343
L 181 343
L 183 344
L 186 343
L 188 341
L 191 341
L 194 341
L 196 344
L 199 344
L 201 344
L 204 347
L 207 348
L 209 348
L 212 348
L 214 348
L 217 347
L 220 349
L 222 349
L 225 349
L 227 349
L 230 349
L 232 349
L 235 351
L 238 351
L 240 351
L 243 351
L 245 349
L 248 348
L 251 347
L 253 347
L 256 347
L 258 347
L 261 347
L 263 348
L 266 348
L 269 349
L 271 349
L 274 349
L 276 349
L 279 349
L 282 349
L 284 351
L 287 349
L 289 349
L 292 349
L 295 349
L 297 347
L 300 347
L 302 347
L 305 348
L 307 348
L 310 348
L 313 348
L 315 349
L 318 349
L 320 349
L 323 349
L 326 349
L 328 349
L 331 348
L 333 348
L 336 348
L 338 347
L 341 347
L 344 347
L 346 347
L 349 348
L 351 347
L 354 347
L 357 348
L 359 348
L 362 348
L 364 348
L 367 348
L 370 351
L 372 351
L 375 349
L 377 349
L 380 349
L 382 349
L 385 348
L 388 348
L 390 348
L 393 349
L 395 348
L 398 345
L 401 341
L 403 343
L 406 341
L 408 341
L 411 341
L 413 343
L 416 344
L 419 344
L 421 340
L 424 339
L 426 338
L 429 336
L 432 336
L 434 334
L 437 338
L 439 340
L 442 340
L 445 341
L 447 343
L 450 341
L 452 343
L 455 340
L 457 340
L 460 343
L 463 343
L 465 343
L 468 344
L 470 345
L 473 345
L 476 345
L 478 338
L 481 335
L 483 332
L 486 328
L 488 330
L 491 327
L 494 326
L 496 328
L 499 328
L 501 328
L 504 325
L 507 319
L 509 325
L 512 325
L 514 328
L 517 312
L 520 314
L 522 321
L 525 321
L 527 315
L 530 313
L 532 306
L 535 322
L 538 318
L 540 318
L 543 322
L 545 315
L 548 313
L 551 314
L 553 315
L 556 313
L 558 306
L 561 293
L 563 282
L 566 271
L 569 265
L 571 251
L 574 254
L 576 245
L 579 251
L 582 266
L 584 274
L 587 273
L 589 282
L 592 277
L 595 284
L 597 286
L 600 287
L 602 289
L 605 297
L 607 287
L 610 292
L 613 284
L 615 271
L 618 264
L 620 249
L 623 227
L 626 239
L 628 223
L 631 225
L 633 221
L 636 217
L 638 228
L 641 232
L 644 231
L 646 240
L 649 227
L 651 234
L 654 227
L 657 213
L 659 217
L 662 188
L 664 183
L 667 183
L 670 166
L 672 153
L 675 156
L 677 145
L 680 165
L 682 144
L 685 134
L 688 126
L 690 116
L 693 84
L 695 75
L 698 34
L 701 36
L 703 53
L 706 44
L 708 21
L 711 55
L 713 51
L 716 83
L 719 86
L 721 82
L 724 100
L 726 138
L 729 127
L 732 126
L 734 116
L 737 136
L 739 145
L 742 145
L 745 143
L 747 147
L 750 165
L 752 183
L 755 166
L 757 155
L 760 166
L 763 183
L 765 186
L 768 193
L 770 190
L 773 184
L 776 196
L 778 196
L 781 201
L 783 208
L 786 216
L 788 214
L 791 217
L 794 201
L 796 195
L 799 170
L 801 156
L 804 140
L 807 135
L 809 148
L 812 158
L 814 152
L 817 138
L 820 144
L 822 155
L 825 169
L 827 158
L 830 155
L 832 144
L 835 155
L 838 140
L 840 122
L 843 114
L 845 110
L 848 109
L 851 108
L 853 125
L 856 136
L 858 132
L 861 136
L 863 148
L 866 160
L 869 180
L 871 187
L 874 187
L 876 213
L 879 200
L 882 195
L 884 184
L 887 180
L 889 184
L 892 182
L 895 169
L 897 167
L 900 174
L 902 177
L 905 152
L 907 135
L 910 123
L 913 130
L 915 123
L 918 99
L 920 103
L 923 117
L 926 121
L 928 127
L 931 114
L 933 125
L 936 129
L 938 112
L 941 122
L 944 113
L 946 117
L 949 135
L 951 145
L 954 165
L 957 174
L 959 166
L 962 174
L 964 155
L 967 100
L 969 79" style="stroke-width:1;stroke:rgba(0,116,217,1.0);fill:none"/><path  d="M 38 351
L 41 351
L 44 351
L 46 351
L 49 351
L 51 351
L 54 351
L 57 351
L 59 351
L 62 351
L 64 351
L 67 351
L 70 351
L 72 351
L 75 351
L 77 351
L 80 351
L 82 351
L 85 348
L 88 351
L 90 351
L 93 351
L 95 351
L 98 344
L 101 345
L 103 338
L 106 348
L 108 349
L 111 346
L 113 337
L 116 346
L 119 348
L 121 348
L 124 342
L 126 348
L 129 346
L 132 338
L 134 345
L 137 351
L 139 351
L 142 341
L 145 348
L 147 346
L 150 351
L 152 349
L 155 351
L 157 351
L 160 349
L 163 351
L 165 346
L 168 349
L 170 351
L 173 351
L 176 351
L 178 348
L 181 351
L 183 348
L 186 348
L 188 349
L 191 351
L 194 351
L 196 351
L 199 351
L 201 348
L 204 351
L 207 351
L 209 351
L 212 351
L 214 351
L 217 349
L 220 351
L 222 351
L 225 351
L 227 351
L 230 351
L 232 351
L 235 351
L 238 351
L 240 351
L 243 351
L 245 349
L 248 349
L 251 349
L 253 351
L 256 351
L 258 351
L 261 351
L 263 351
L 266 349
L 269 351
L 271 351
L 274 351
L 276 351
L 279 351
L 282 351
L 284 351
L 287 349
L 289 351
L 292 351
L 295 351
L 297 348
L 300 351
L 302 351
L 305 351
L 307 351
L 310 351
L 313 351
L 315 349
L 318 351
L 320 351
L 323 351
L 326 351
L 328 351
L 331 349
L 333 349
L 336 351
L 338 349
L 341 351
L 344 351
L 346 351
L 349 351
L 351 348
L 354 351
L 357 351
L 359 351
L 362 351
L 364 351
L 367 351
L 370 351
L 372 351
L 375 349
L 377 351
L 380 351
L 382 351
L 385 349
L 388 351
L 390 351
L 393 351
L 395 349
L 398 348
L 401 346
L 403 351
L 406 349
L 408 351
L 411 351
L 413 351
L 416 349
L 419 346
L 421 346
L 424 348
L 426 349
L 429 349
L 432 351
L 434 346
L 437 351
L 439 349
L 442 348
L 445 351
L 447 351
L 450 349
L 452 348
L 455 348
L 457 349
L 460 351
L 463 351
L 465 351
L 468 351
L 470 349
L 473 348
L 476 349
L 478 342
L 481 348
L 483 348
L 486 346
L 488 351
L 491 345
L 494 348
L 496 345
L 499 348
L 501 348
L 504 342
L 507 345
L 509 351
L 512 348
L 514 349
L 517 330
L 520 351
L 522 349
L 525 345
L 527 345
L 530 345
L 532 342
L 535 346
L 538 346
L 540 349
L 543 349
L 545 338
L 548 342
L 551 344
L 553 348
L 556 344
L 558 342
L 561 336
L 563 326
L 566 331
L 569 337
L 571 333
L 574 348
L 576 333
L 579 341
L 582 342
L 584 340
L 587 336
L 589 342
L 592 342
L 595 341
L 597 342
L 600 344
L 602 342
L 605 344
L 607 331
L 610 348
L 613 333
L 615 329
L 618 336
L 620 327
L 623 321
L 626 344
L 628 331
L 631 334
L 633 325
L 636 331
L 638 340
L 641 325
L 644 342
L 646 341
L 649 321
L 651 331
L 654 325
L 657 325
L 659 329
L 662 312
L 664 336
L 667 321
L 670 314
L 672 311
L 675 327
L 677 318
L 680 333
L 682 314
L 685 310
L 688 306
L 690 300
L 693 295
L 695 308
L 698 289
L 701 317
L 703 327
L 706 296
L 708 276
L 711 330
L 713 304
L 716 323
L 719 319
L 721 323
L 724 315
L 726 315
L 729 319
L 732 303
L 734 312
L 737 341
L 739 333
L 742 315
L 745 312
L 747 323
L 750 322
L 752 331
L 755 323
L 757 321
L 760 327
L 763 330
L 765 326
L 768 330
L 770 327
L 773 318
L 776 333
L 778 327
L 781 336
L 783 333
L 786 338
L 788 326
L 791 321
L 794 317
L 796 321
L 799 310
L 801 318
L 804 322
L 807 321
L 809 334
L 812 327
L 814 314
L 817 295
L 820 325
L 822 333
L 825 336
L 827 323
L 830 323
L 832 303
L 835 306
L 838 310
L 840 314
L 843 327
L 845 319
L 848 322
L 851 302
L 853 323
L 856 322
L 858 310
L 861 331
L 863 331
L 866 334
L 869 323
L 871 330
L 874 322
L 876 337
L 879 318
L 882 326
L 884 323
L 887 319
L 889 334
L 892 319
L 895 323
L 897 317
L 900 333
L 902 326
L 905 293
L 907 317
L 910 307
L 913 330
L 915 310
L 918 307
L 920 330
L 923 308
L 926 321
L 928 314
L 931 317
L 933 321
L 936 311
L 938 312
L 941 319
L 944 311
L 946 318
L 949 336
L 951 331
L 954 331
L 957 322
L 959 311
L 962 319
L 964 297
L 967 278
L 969 310" style="stroke-width:1;stroke:rgba(0,217,101,1.0);fill:none"/><path  d="M 38 351
L 41 351
L 44 351
L 46 351
L 49 351
L 51 351
L 54 351
L 57 351
L 59 351
L 62 351
L 64 351
L 67 351
L 70 351
L 72 351
L 75 351
L 77 351
L 80 351
L 82 351
L 85 351
L 88 351
L 90 351
L 93 351
L 95 351
L 98 351
L 101 351
L 103 351
L 106 351
L 108 351
L 111 351
L 113 351
L 116 351
L 119 351
L 121 351
L 124 351
L 126 351
L 129 351
L 132 351
L 134 351
L 137 351
L 139 351
L 142 351
L 145 351
L 147 351
L 150 351
L 152 349
L 155 351
L 157 351
L 160 351
L 163 351
L 165 351
L 168 351
L 170 351
L 173 351
L 176 351
L 178 351
L 181 351
L 183 351
L 186 351
L 188 351
L 191 349
L 194 351
L 196 351
L 199 351
L 201 351
L 204 351
L 207 351
L 209 351
L 212 351
L 214 351
L 217 351
L 220 351
L 222 351
L 225 351
L 227 351
L 230 351
L 232 351
L 235 351
L 238 351
L 240 351
L 243 351
L 245 351
L 248 351
L 251 351
L 253 351
L 256 351
L 258 351
L 261 351
L 263 351
L 266 351
L 269 351
L 271 351
L 274 351
L 276 351
L 279 351
L 282 351
L 284 351
L 287 351
L 289 351
L 292 351
L 295 351
L 297 351
L 300 351
L 302 351
L 305 351
L 307 351
L 310 351
L 313 351
L 315 351
L 318 351
L 320 351
L 323 349
L 326 351
L 328 351
L 331 351
L 333 351
L 336 351
L 338 351
L 341 351
L 344 351
L 346 351
L 349 351
L 351 351
L 354 351
L 357 351
L 359 351
L 362 351
L 364 351
L 367 351
L 370 351
L 372 351
L 375 351
L 377 351
L 380 351
L 382 351
L 385 351
L 388 351
L 390 351
L 393 351
L 395 351
L 398 351
L 401 351
L 403 351
L 406 351
L 408 351
L 411 351
L 413 351
L 416 351
L 419 351
L 421 351
L 424 351
L 426 351
L 429 351
L 432 351
L 434 351
L 437 349
L 439 351
L 442 351
L 445 351
L 447 351
L 450 351
L 452 351
L 455 351
L 457 351
L 460 349
L 463 351
L 465 351
L 468 351
L 470 351
L 473 351
L 476 351
L 478 351
L 481 351
L 483 351
L 486 351
L 488 351
L 491 351
L 494 351
L 496 351
L 499 351
L 501 351
L 504 351
L 507 351
L 509 351
L 512 351
L 514 351
L 517 351
L 520 351
L 522 351
L 525 351
L 527 351
L 530 351
L 532 351
L 535 351
L 538 351
L 540 351
L 543 351
L 545 351
L 548 351
L 551 351
L 553 351
L 556 351
L 558 351
L 561 351
L 563 351
L 566 351
L 569 351
L 571 351
L 574 351
L 576 351
L 579 351
L 582 351
L 584 351
L 587 351
L 589 351
L 592 351
L 595 351
L 597 351
L 600 351
L 602 351
L 605 351
L 607 351
L 610 351
L 613 351
L 615 351
L 618 351
L 620 351
L 623 351
L 626 351
L 628 351
L 631 351
L 633 351
L 636 351
L 638 351
L 641 351
L 644 349
L 646 351
L 649 351
L 651 349
L 654 351
L 657 351
L 659 348
L 662 349
L 664 351
L 667 351
L 670 349
L 672 349
L 675 348
L 677 351
L 680 345
L 682 351
L 685 349
L 688 351
L 690 351
L 693 351
L 695 351
L 698 351
L 701 351
L 703 351
L 706 349
L 708 351
L 711 351
L 713 351
L 716 349
L 719 351
L 721 351
L 724 351
L 726 351
L 729 349
L 732 351
L 734 351
L 737 349
L 739 351
L 742 351
L 745 349
L 747 351
L 750 351
L 752 351
L 755 351
L 757 351
L 760 351
L 763 351
L 765 351
L 768 351
L 770 349
L 773 351
L 776 351
L 778 351
L 781 351
L 783 349
L 786 351
L 788 351
L 791 351
L 794 351
L 796 351
L 799 351
L 801 351
L 804 349
L 807 351
L 809 351
L 812 351
L 814 351
L 817 351
L 820 351
L 822 351
L 825 351
L 827 351
L 830 351
L 832 351
L 835 351
L 838 351
L 840 351
L 843 351
L 845 349
L 848 351
L 851 349
L 853 351
L 856 351
L 858 351
L 861 351
L 863 351
L 866 351
L 869 351
L 871 349
L 874 351
L 876 351
L 879 348
L 882 351
L 884 351
L 887 349
L 889 351
L 892 349
L 895 351
L 897 349
L 900 348
L 902 351
L 905 349
L 907 349
L 910 349
L 913 349
L 915 351
L 918 351
L 920 349
L 923 348
L 926 351
L 928 351
L 931 351
L 933 349
L 936 349
L 938 351
L 941 351
L 944 348
L 946 351
L 949 349
L 951 351
L 954 351
L 957 349
L 959 351
L 962 351
L 964 351
L 967 351
L 969 351" style="stroke-width:1;stroke:rgba(217,0,116,1.0);fill:none"/><text x="386" y="33" style="stroke-width:0;stroke:none;fill:rgba(51,51,51,1.0);font-size:23.0px;font-family:'Roboto Medium',sans-serif">Gänserndorf 20.02.2021</text><path  d="M 38 11
L 251 11
L 251 91
L 38 91
L 38 11" style="stroke-width:1;stroke:rgba(51,51,51,1.0);fill:rgba(255,255,255,1.0)"/><text x="43" y="26" style="stroke-width:0;stroke:none;fill:rgba(51,51,51,1.0);font-size:10.2px;font-family:'Roboto Medium',sans-serif">Sieben Tage Durschnitt Inzidenz Fälle</text><path  d="M 221 21
L 241 21" style="stroke-width:1;stroke:rgba(0,116,217,1.0);fill:none"/><text x="43" y="56" style="stroke-width:0;stroke:none;fill:rgba(51,51,51,1.0);font-size:10.2px;font-family:'Roboto Medium',sans-serif">Anzahl Faelle</text><path  d="M 110 51
L 241 51" style="stroke-width:1;stroke:rgba(0,217,101,1.0);fill:none"/><text x="43" y="86" style="stroke-width:0;stroke:none;fill:rgba(51,51,51,1.0);font-size:10.2px;font-family:'Roboto Medium',sans-serif">Anzahl Tot</text><path  d="M 98 81
L 241 81" style="stroke-width:1;stroke:rgba(217,0,116,1.0);fill:none"/></svg>