<svg xmlns="http://www.w3.org/2000/svg" xmlns:xlink="http://www.w3.org/1999/xlink" width="1024" height="400">\n<path  d="M 0 0
L 1024 0
L 1024 400
L 0 400
L 0 0" style="stroke-width:0;stroke:rgba(255,255,255,1.0);fill:rgba(255,255,255,1.0)"/><path  d="M 38 11
L 969 11
L 969 351
L 38 351
L 38 11" style="stroke-width:0;stroke:rgba(255,255,255,1.0);fill:rgba(255,255,255,1.0)"/><path  d="M 38 351
L 969 351" style="stroke-width:1;stroke:rgba(51,51,51,1.0);fill:none"/><path  d="M 38 351
L 38 356" style="stroke-width:1;stroke:rgba(51,51,51,1.0);fill:none"/><text x="5" y="373" style="stroke-width:0;stroke:none;fill:rgba(51,51,51,1.0);font-size:12.8px;font-family:'Roboto Medium',sans-serif">2020-02-26</text><path  d="M 155 351
L 155 356" style="stroke-width:1;stroke:rgba(51,51,51,1.0);fill:none"/><text x="122" y="373" style="stroke-width:0;stroke:none;fill:rgba(51,51,51,1.0);font-size:12.8px;font-family:'Roboto Medium',sans-serif">2020-04-24</text><path  d="M 271 351
L 271 356" style="stroke-width:1;stroke:rgba(51,51,51,1.0);fill:none"/><text x="238" y="373" style="stroke-width:0;stroke:none;fill:rgba(51,51,51,1.0);font-size:12.8px;font-family:'Roboto Medium',sans-serif">2020-06-21</text><path  d="M 388 351
L 388 356" style="stroke-width:1;stroke:rgba(51,51,51,1.0);fill:none"/><text x="355" y="373" style="stroke-width:0;stroke:none;fill:rgba(51,51,51,1.0);font-size:12.8px;font-family:'Roboto Medium',sans-serif">2020-08-19</text><path  d="M 504 351
L 504 356" style="stroke-width:1;stroke:rgba(51,51,51,1.0);fill:none"/><text x="471" y="373" style="stroke-width:0;stroke:none;fill:rgba(51,51,51,1.0);font-size:12.8px;font-family:'Roboto Medium',sans-serif">2020-10-16</text><path  d="M 620 351
L 620 356" style="stroke-width:1;stroke:rgba(51,51,51,1.0);fill:none"/><text x="587" y="373" style="stroke-width:0;stroke:none;fill:rgba(51,51,51,1.0);font-size:12.8px;font-family:'Roboto Medium',sans-serif">2020-12-13</text><path  d="M 737 351
L 737 356" style="stroke-width:1;stroke:rgba(51,51,51,1.0);fill:none"/><text x="704" y="373" style="stroke-width:0;stroke:none;fill:rgba(51,51,51,1.0);font-size:12.8px;font-family:'Roboto Medium',sans-serif">2021-02-10</text><path  d="M 853 351
L 853 356" style="stroke-width:1;stroke:rgba(51,51,51,1.0);fill:none"/><text x="820" y="373" style="stroke-width:0;stroke:none;fill:rgba(51,51,51,1.0);font-size:12.8px;font-family:'Roboto Medium',sans-serif">2021-04-09</text><path  d="M 969 351
L 969 356" style="stroke-width:1;stroke:rgba(51,51,51,1.0);fill:none"/><text x="936" y="373" style="stroke-width:0;stroke:none;fill:rgba(51,51,51,1.0);font-size:12.8px;font-family:'Roboto Medium',sans-serif">2021-06-07</text><text x="485" y="395" style="stroke-width:0;stroke:none;fill:rgba(51,51,51,1.0);font-size:12.8px;font-family:'Roboto Medium',sans-serif">Datum</text><path  d="M 970 351
L 970 11" style="stroke-width:1;stroke:rgba(51,51,51,1.0);fill:none"/><path  d="M 970 351
L 975 351" style="stroke-width:1;stroke:rgba(51,51,51,1.0);fill:none"/><text x="980" y="357" style="stroke-width:0;stroke:none;fill:rgba(51,51,51,1.0);font-size:12.8px;font-family:'Roboto Medium',sans-serif">0.00</text><path  d="M 970 308
L 975 308" style="stroke-width:1;stroke:rgba(51,51,51,1.0);fill:none"/><text x="980" y="314" style="stroke-width:0;stroke:none;fill:rgba(51,51,51,1.0);font-size:12.8px;font-family:'Roboto Medium',sans-serif">105.00</text><path  d="M 970 266
L 975 266" style="stroke-width:1;stroke:rgba(51,51,51,1.0);fill:none"/><text x="980" y="272" style="stroke-width:0;stroke:none;fill:rgba(51,51,51,1.0);font-size:12.8px;font-family:'Roboto Medium',sans-serif">210.00</text><path  d="M 970 223
L 975 223" style="stroke-width:1;stroke:rgba(51,51,51,1.0);fill:none"/><text x="980" y="229" style="stroke-width:0;stroke:none;fill:rgba(51,51,51,1.0);font-size:12.8px;font-family:'Roboto Medium',sans-serif">315.00</text><path  d="M 970 181
L 975 181" style="stroke-width:1;stroke:rgba(51,51,51,1.0);fill:none"/><text x="980" y="187" style="stroke-width:0;stroke:none;fill:rgba(51,51,51,1.0);font-size:12.8px;font-family:'Roboto Medium',sans-serif">420.00</text><path  d="M 970 138
L 975 138" style="stroke-width:1;stroke:rgba(51,51,51,1.0);fill:none"/><text x="980" y="144" style="stroke-width:0;stroke:none;fill:rgba(51,51,51,1.0);font-size:12.8px;font-family:'Roboto Medium',sans-serif">525.00</text><path  d="M 970 96
L 975 96" style="stroke-width:1;stroke:rgba(51,51,51,1.0);fill:none"/><text x="980" y="102" style="stroke-width:0;stroke:none;fill:rgba(51,51,51,1.0);font-size:12.8px;font-family:'Roboto Medium',sans-serif">630.00</text><path  d="M 970 53
L 975 53" style="stroke-width:1;stroke:rgba(51,51,51,1.0);fill:none"/><text x="980" y="59" style="stroke-width:0;stroke:none;fill:rgba(51,51,51,1.0);font-size:12.8px;font-family:'Roboto Medium',sans-serif">735.00</text><path  d="M 970 11
L 975 11" style="stroke-width:1;stroke:rgba(51,51,51,1.0);fill:none"/><text x="980" y="17" style="stroke-width:0;stroke:none;fill:rgba(51,51,51,1.0);font-size:12.8px;font-family:'Roboto Medium',sans-serif">840.00</text><path  d="M 38 351
L 40 351
L 42 351
L 44 351
L 46 351
L 48 351
L 50 351
L 52 351
L 54 351
L 56 351
L 58 351
L 60 351
L 62 351
L 64 351
L 66 351
L 68 351
L 70 351
L 72 350
L 74 350
L 76 350
L 78 349
L 80 349
L 82 348
L 84 348
L 86 347
L 88 341
L 90 337
L 92 333
L 94 333
L 96 330
L 98 327
L 100 325
L 102 330
L 104 333
L 106 336
L 108 335
L 110 337
L 112 339
L 114 341
L 116 343
L 118 343
L 120 344
L 122 345
L 124 345
L 126 345
L 128 347
L 130 347
L 132 347
L 134 347
L 136 348
L 138 349
L 140 350
L 142 350
L 144 350
L 146 350
L 148 350
L 150 351
L 152 351
L 154 351
L 156 351
L 158 351
L 160 351
L 162 351
L 164 351
L 166 350
L 168 350
L 170 350
L 172 350
L 174 350
L 176 350
L 178 350
L 180 351
L 182 351
L 184 351
L 186 351
L 188 351
L 190 351
L 192 351
L 194 351
L 196 351
L 198 351
L 200 351
L 202 351
L 204 350
L 206 350
L 208 350
L 210 350
L 212 350
L 214 350
L 216 350
L 218 351
L 220 351
L 222 351
L 224 351
L 226 351
L 228 351
L 230 351
L 232 351
L 234 351
L 236 351
L 238 351
L 240 351
L 242 351
L 244 351
L 246 350
L 248 350
L 250 350
L 252 350
L 254 350
L 256 350
L 258 350
L 260 350
L 262 350
L 264 349
L 266 348
L 268 347
L 270 347
L 272 347
L 274 348
L 276 348
L 278 349
L 280 350
L 282 351
L 284 351
L 286 351
L 288 351
L 290 351
L 292 351
L 294 351
L 296 351
L 298 351
L 300 351
L 302 351
L 304 351
L 306 351
L 308 351
L 310 351
L 312 351
L 314 351
L 316 351
L 318 350
L 320 350
L 322 349
L 324 349
L 326 349
L 328 347
L 330 347
L 332 348
L 334 348
L 336 349
L 338 349
L 340 349
L 342 351
L 344 350
L 346 350
L 348 349
L 349 349
L 351 349
L 353 349
L 355 349
L 357 349
L 359 349
L 361 351
L 363 351
L 365 351
L 367 349
L 369 349
L 371 349
L 373 347
L 375 347
L 377 344
L 379 342
L 381 343
L 383 343
L 385 343
L 387 343
L 389 344
L 391 345
L 393 347
L 395 347
L 397 347
L 399 347
L 401 347
L 403 347
L 405 349
L 407 349
L 409 349
L 411 349
L 413 350
L 415 348
L 417 348
L 419 348
L 421 345
L 423 345
L 425 345
L 427 345
L 429 347
L 431 345
L 433 345
L 435 347
L 437 348
L 439 343
L 441 343
L 443 339
L 445 338
L 447 337
L 449 333
L 451 332
L 453 335
L 455 332
L 457 332
L 459 329
L 461 329
L 463 329
L 465 326
L 467 324
L 469 317
L 471 313
L 473 312
L 475 307
L 477 305
L 479 304
L 481 298
L 483 303
L 485 301
L 487 289
L 489 268
L 491 261
L 493 255
L 495 225
L 497 211
L 499 199
L 501 175
L 503 189
L 505 173
L 507 155
L 509 172
L 511 177
L 513 167
L 515 176
L 517 167
L 519 177
L 521 185
L 523 182
L 525 172
L 527 187
L 529 185
L 531 181
L 533 181
L 535 164
L 537 170
L 539 161
L 541 126
L 543 125
L 545 102
L 547 103
L 549 108
L 551 107
L 553 128
L 555 108
L 557 80
L 559 106
L 561 100
L 563 75
L 565 48
L 567 12
L 569 52
L 571 88
L 573 68
L 575 37
L 577 94
L 579 108
L 581 106
L 583 97
L 585 94
L 587 113
L 589 153
L 591 143
L 593 163
L 595 171
L 597 194
L 599 197
L 601 201
L 603 207
L 605 207
L 607 197
L 609 222
L 611 220
L 613 218
L 615 214
L 617 200
L 619 197
L 621 171
L 623 164
L 625 162
L 627 179
L 629 191
L 631 199
L 633 209
L 635 242
L 637 237
L 639 225
L 641 213
L 643 211
L 645 214
L 647 197
L 649 179
L 651 179
L 653 172
L 655 142
L 657 154
L 659 118
L 660 108
L 662 120
L 664 96
L 666 108
L 668 146
L 670 128
L 672 153
L 674 173
L 676 168
L 678 204
L 680 219
L 682 219
L 684 222
L 686 227
L 688 229
L 690 237
L 692 231
L 694 226
L 696 230
L 698 239
L 700 245
L 702 250
L 704 257
L 706 271
L 708 273
L 710 270
L 712 267
L 714 259
L 716 253
L 718 255
L 720 235
L 722 232
L 724 239
L 726 241
L 728 249
L 730 253
L 732 258
L 734 277
L 736 283
L 738 285
L 740 292
L 742 293
L 744 296
L 746 295
L 748 305
L 750 307
L 752 301
L 754 295
L 756 296
L 758 291
L 760 291
L 762 282
L 764 279
L 766 283
L 768 284
L 770 277
L 772 281
L 774 278
L 776 283
L 778 279
L 780 274
L 782 274
L 784 276
L 786 272
L 788 274
L 790 271
L 792 271
L 794 275
L 796 271
L 798 269
L 800 259
L 802 251
L 804 233
L 806 229
L 808 216
L 810 209
L 812 211
L 814 209
L 816 205
L 818 214
L 820 217
L 822 225
L 824 238
L 826 241
L 828 250
L 830 257
L 832 261
L 834 271
L 836 269
L 838 264
L 840 264
L 842 268
L 844 273
L 846 274
L 848 269
L 850 274
L 852 275
L 854 282
L 856 287
L 858 287
L 860 285
L 862 289
L 864 290
L 866 291
L 868 278
L 870 269
L 872 259
L 874 254
L 876 246
L 878 235
L 880 239
L 882 234
L 884 232
L 886 228
L 888 222
L 890 217
L 892 228
L 894 227
L 896 227
L 898 231
L 900 238
L 902 252
L 904 259
L 906 259
L 908 261
L 910 273
L 912 272
L 914 277
L 916 287
L 918 292
L 920 300
L 922 301
L 924 307
L 926 309
L 928 317
L 930 316
L 932 325
L 934 322
L 936 325
L 938 324
L 940 327
L 942 327
L 944 330
L 946 329
L 948 335
L 950 335
L 952 336
L 954 339
L 956 339
L 958 340
L 960 339
L 962 338
L 964 338
L 966 337
L 968 337
L 969 337" style="stroke-width:1;stroke:rgba(0,116,217,1.0);fill:none"/><path  d="M 38 351
L 40 351
L 42 351
L 44 351
L 46 351
L 48 351
L 50 351
L 52 351
L 54 351
L 56 351
L 58 351
L 60 351
L 62 351
L 64 351
L 66 351
L 68 351
L 70 351
L 72 350
L 74 351
L 76 351
L 78 350
L 80 350
L 82 350
L 84 351
L 86 350
L 88 346
L 90 348
L 92 348
L 94 350
L 96 348
L 98 348
L 100 349
L 102 349
L 104 350
L 106 350
L 108 349
L 110 350
L 112 350
L 114 350
L 116 351
L 118 351
L 120 350
L 122 350
L 124 350
L 126 350
L 128 351
L 130 351
L 132 351
L 134 351
L 136 350
L 138 351
L 140 351
L 142 351
L 144 351
L 146 351
L 148 351
L 150 351
L 152 351
L 154 351
L 156 351
L 158 351
L 160 351
L 162 351
L 164 351
L 166 350
L 168 351
L 170 351
L 172 351
L 174 351
L 176 351
L 178 351
L 180 351
L 182 351
L 184 351
L 186 351
L 188 351
L 190 351
L 192 351
L 194 351
L 196 351
L 198 351
L 200 351
L 202 351
L 204 350
L 206 351
L 208 351
L 210 351
L 212 351
L 214 351
L 216 351
L 218 351
L 220 351
L 222 351
L 224 351
L 226 351
L 228 351
L 230 351
L 232 351
L 234 351
L 236 351
L 238 351
L 240 351
L 242 351
L 244 351
L 246 350
L 248 351
L 250 351
L 252 351
L 254 351
L 256 351
L 258 351
L 260 350
L 262 351
L 264 350
L 266 350
L 268 350
L 270 351
L 272 351
L 274 351
L 276 351
L 278 351
L 280 351
L 282 351
L 284 351
L 286 351
L 288 351
L 290 351
L 292 351
L 294 351
L 296 351
L 298 351
L 300 351
L 302 351
L 304 351
L 306 351
L 308 351
L 310 351
L 312 351
L 314 351
L 316 351
L 318 350
L 320 351
L 322 350
L 324 351
L 326 351
L 328 350
L 330 351
L 332 351
L 334 351
L 336 351
L 338 351
L 340 351
L 342 351
L 344 350
L 346 351
L 348 350
L 349 351
L 351 351
L 353 351
L 355 351
L 357 351
L 359 351
L 361 351
L 363 351
L 365 351
L 367 350
L 369 351
L 371 350
L 373 350
L 375 350
L 377 349
L 379 349
L 381 351
L 383 351
L 385 350
L 387 350
L 389 351
L 391 349
L 393 351
L 395 351
L 397 351
L 399 350
L 401 351
L 403 351
L 405 351
L 407 351
L 409 351
L 411 350
L 413 351
L 415 349
L 417 351
L 419 351
L 421 349
L 423 350
L 425 351
L 427 351
L 429 351
L 431 349
L 433 350
L 435 351
L 437 351
L 439 348
L 441 351
L 443 348
L 445 348
L 447 349
L 449 348
L 451 350
L 453 350
L 455 348
L 457 348
L 459 347
L 461 349
L 463 348
L 465 348
L 467 348
L 469 344
L 471 346
L 473 346
L 475 346
L 477 347
L 479 348
L 481 345
L 483 347
L 485 345
L 487 339
L 489 333
L 491 343
L 493 344
L 495 327
L 497 338
L 499 338
L 501 324
L 503 342
L 505 333
L 507 333
L 509 337
L 511 341
L 513 331
L 515 330
L 517 336
L 519 339
L 521 338
L 523 336
L 525 335
L 527 341
L 529 328
L 531 334
L 533 339
L 535 328
L 537 339
L 539 329
L 541 319
L 543 328
L 545 319
L 547 340
L 549 331
L 551 339
L 553 342
L 555 307
L 557 311
L 559 335
L 561 337
L 563 315
L 565 323
L 567 320
L 569 331
L 571 333
L 573 323
L 575 318
L 577 350
L 579 331
L 581 319
L 583 326
L 585 331
L 587 334
L 589 342
L 591 344
L 593 343
L 595 324
L 597 340
L 599 333
L 601 337
L 603 346
L 605 344
L 607 337
L 609 339
L 611 339
L 613 331
L 615 334
L 617 337
L 619 342
L 621 321
L 623 335
L 625 338
L 627 342
L 629 342
L 631 342
L 633 348
L 635 342
L 637 331
L 639 330
L 641 335
L 643 340
L 645 344
L 647 338
L 649 330
L 651 331
L 653 326
L 655 317
L 657 347
L 659 323
L 660 331
L 662 338
L 664 317
L 666 334
L 668 340
L 670 336
L 672 338
L 674 344
L 676 335
L 678 339
L 680 342
L 682 340
L 684 338
L 686 342
L 688 344
L 690 340
L 692 335
L 694 340
L 696 342
L 698 343
L 700 345
L 702 348
L 704 344
L 706 343
L 708 341
L 710 341
L 712 342
L 714 340
L 716 344
L 718 346
L 720 331
L 722 339
L 724 345
L 726 342
L 728 345
L 730 346
L 732 348
L 734 342
L 736 343
L 738 346
L 740 347
L 742 345
L 744 348
L 746 348
L 748 348
L 750 344
L 752 343
L 754 343
L 756 346
L 758 345
L 760 348
L 762 342
L 764 342
L 766 345
L 768 344
L 770 342
L 772 347
L 774 346
L 776 346
L 778 339
L 780 342
L 782 344
L 784 343
L 786 345
L 788 348
L 790 344
L 792 339
L 794 345
L 796 342
L 798 342
L 800 339
L 802 343
L 804 333
L 806 337
L 808 337
L 810 338
L 812 343
L 814 338
L 816 340
L 818 338
L 820 339
L 822 342
L 824 345
L 826 345
L 828 343
L 830 344
L 832 341
L 834 345
L 836 340
L 838 342
L 840 345
L 842 346
L 844 347
L 846 342
L 848 342
L 850 343
L 852 343
L 854 349
L 856 349
L 858 347
L 860 340
L 862 344
L 864 344
L 866 343
L 868 342
L 870 344
L 872 341
L 874 337
L 876 340
L 878 337
L 880 346
L 882 339
L 884 342
L 886 339
L 888 334
L 890 337
L 892 343
L 894 345
L 896 338
L 898 345
L 900 343
L 902 342
L 904 341
L 906 343
L 908 346
L 910 346
L 912 344
L 914 346
L 916 348
L 918 344
L 920 348
L 922 347
L 924 349
L 926 346
L 928 350
L 930 348
L 932 350
L 934 346
L 936 349
L 938 349
L 940 348
L 942 350
L 944 350
L 946 349
L 948 350
L 950 348
L 952 350
L 954 350
L 956 350
L 958 350
L 960 348
L 962 349
L 964 348
L 966 349
L 968 350
L 969 349" style="stroke-width:1;stroke:rgba(0,217,101,1.0);fill:none"/><path  d="M 38 351
L 40 351
L 42 351
L 44 351
L 46 351
L 48 351
L 50 351
L 52 351
L 54 351
L 56 351
L 58 351
L 60 351
L 62 351
L 64 351
L 66 351
L 68 351
L 70 351
L 72 351
L 74 351
L 76 351
L 78 351
L 80 351
L 82 351
L 84 351
L 86 351
L 88 351
L 90 351
L 92 351
L 94 351
L 96 351
L 98 351
L 100 351
L 102 351
L 104 350
L 106 351
L 108 351
L 110 351
L 112 351
L 114 351
L 116 351
L 118 351
L 120 351
L 122 351
L 124 351
L 126 351
L 128 351
L 130 351
L 132 351
L 134 351
L 136 351
L 138 351
L 140 351
L 142 351
L 144 351
L 146 351
L 148 351
L 150 351
L 152 351
L 154 351
L 156 351
L 158 351
L 160 351
L 162 351
L 164 351
L 166 351
L 168 351
L 170 351
L 172 351
L 174 351
L 176 351
L 178 351
L 180 351
L 182 351
L 184 351
L 186 351
L 188 351
L 190 351
L 192 351
L 194 351
L 196 351
L 198 351
L 200 351
L 202 351
L 204 351
L 206 351
L 208 351
L 210 351
L 212 351
L 214 351
L 216 351
L 218 351
L 220 351
L 222 351
L 224 351
L 226 351
L 228 351
L 230 351
L 232 351
L 234 351
L 236 351
L 238 351
L 240 351
L 242 351
L 244 351
L 246 351
L 248 351
L 250 351
L 252 351
L 254 351
L 256 351
L 258 351
L 260 351
L 262 351
L 264 351
L 266 351
L 268 351
L 270 351
L 272 351
L 274 351
L 276 351
L 278 351
L 280 351
L 282 351
L 284 351
L 286 351
L 288 351
L 290 351
L 292 351
L 294 351
L 296 351
L 298 351
L 300 351
L 302 351
L 304 351
L 306 351
L 308 351
L 310 351
L 312 351
L 314 351
L 316 351
L 318 351
L 320 351
L 322 351
L 324 351
L 326 351
L 328 351
L 330 351
L 332 351
L 334 351
L 336 351
L 338 351
L 340 351
L 342 351
L 344 351
L 346 351
L 348 351
L 349 351
L 351 351
L 353 351
L 355 351
L 357 351
L 359 351
L 361 351
L 363 351
L 365 351
L 367 351
L 369 351
L 371 351
L 373 351
L 375 351
L 377 351
L 379 351
L 381 351
L 383 351
L 385 351
L 387 351
L 389 351
L 391 351
L 393 351
L 395 351
L 397 351
L 399 351
L 401 351
L 403 351
L 405 351
L 407 351
L 409 351
L 411 351
L 413 351
L 415 351
L 417 351
L 419 351
L 421 351
L 423 351
L 425 351
L 427 351
L 429 351
L 431 351
L 433 351
L 435 351
L 437 351
L 439 351
L 441 351
L 443 351
L 445 351
L 447 351
L 449 351
L 451 351
L 453 351
L 455 351
L 457 351
L 459 351
L 461 351
L 463 351
L 465 351
L 467 351
L 469 351
L 471 351
L 473 351
L 475 351
L 477 351
L 479 351
L 481 350
L 483 351
L 485 351
L 487 351
L 489 351
L 491 351
L 493 350
L 495 351
L 497 351
L 499 351
L 501 351
L 503 351
L 505 350
L 507 351
L 509 351
L 511 351
L 513 351
L 515 351
L 517 351
L 519 351
L 521 351
L 523 351
L 525 351
L 527 349
L 529 351
L 531 351
L 533 351
L 535 351
L 537 351
L 539 351
L 541 351
L 543 349
L 545 351
L 547 350
L 549 351
L 551 351
L 553 350
L 555 351
L 557 350
L 559 351
L 561 351
L 563 351
L 565 350
L 567 351
L 569 351
L 571 351
L 573 351
L 575 350
L 577 351
L 579 351
L 581 351
L 583 351
L 585 351
L 587 351
L 589 351
L 591 350
L 593 349
L 595 350
L 597 351
L 599 351
L 601 351
L 603 350
L 605 350
L 607 351
L 609 351
L 611 351
L 613 351
L 615 351
L 617 351
L 619 350
L 621 351
L 623 351
L 625 351
L 627 351
L 629 351
L 631 350
L 633 350
L 635 351
L 637 351
L 639 351
L 641 351
L 643 351
L 645 350
L 647 351
L 649 350
L 651 351
L 653 351
L 655 351
L 657 350
L 659 350
L 660 351
L 662 350
L 664 351
L 666 350
L 668 351
L 670 351
L 672 351
L 674 350
L 676 351
L 678 351
L 680 351
L 682 351
L 684 351
L 686 351
L 688 351
L 690 350
L 692 351
L 694 351
L 696 351
L 698 351
L 700 351
L 702 351
L 704 349
L 706 351
L 708 350
L 710 350
L 712 350
L 714 349
L 716 351
L 718 350
L 720 350
L 722 351
L 724 350
L 726 351
L 728 351
L 730 351
L 732 351
L 734 350
L 736 350
L 738 350
L 740 351
L 742 350
L 744 351
L 746 351
L 748 351
L 750 351
L 752 351
L 754 351
L 756 351
L 758 350
L 760 351
L 762 351
L 764 351
L 766 351
L 768 351
L 770 351
L 772 351
L 774 351
L 776 351
L 778 351
L 780 351
L 782 351
L 784 350
L 786 351
L 788 351
L 790 351
L 792 351
L 794 351
L 796 351
L 798 351
L 800 351
L 802 351
L 804 351
L 806 351
L 808 351
L 810 351
L 812 351
L 814 351
L 816 351
L 818 351
L 820 350
L 822 351
L 824 351
L 826 351
L 828 351
L 830 351
L 832 351
L 834 351
L 836 350
L 838 351
L 840 351
L 842 351
L 844 351
L 846 351
L 848 351
L 850 351
L 852 351
L 854 351
L 856 351
L 858 351
L 860 351
L 862 350
L 864 351
L 866 351
L 868 351
L 870 351
L 872 351
L 874 351
L 876 351
L 878 351
L 880 351
L 882 351
L 884 350
L 886 351
L 888 351
L 890 351
L 892 351
L 894 351
L 896 351
L 898 350
L 900 351
L 902 350
L 904 351
L 906 351
L 908 351
L 910 351
L 912 351
L 914 351
L 916 351
L 918 351
L 920 351
L 922 351
L 924 350
L 926 351
L 928 351
L 930 351
L 932 351
L 934 351
L 936 351
L 938 351
L 940 351
L 942 351
L 944 351
L 946 351
L 948 351
L 950 351
L 952 351
L 954 351
L 956 351
L 958 351
L 960 351
L 962 351
L 964 351
L 966 351
L 968 351
L 969 351" style="stroke-width:1;stroke:rgba(217,0,116,1.0);fill:none"/><text x="415" y="33" style="stroke-width:0;stroke:none;fill:rgba(51,51,51,1.0);font-size:23.0px;font-family:'Roboto Medium',sans-serif">Hallein 07.06.2021</text><path  d="M 38 11
L 251 11
L 251 91
L 38 91
L 38 11" style="stroke-width:1;stroke:rgba(51,51,51,1.0);fill:rgba(255,255,255,1.0)"/><text x="43" y="26" style="stroke-width:0;stroke:none;fill:rgba(51,51,51,1.0);font-size:10.2px;font-family:'Roboto Medium',sans-serif">Sieben Tage Durschnitt Inzidenz Fälle</text><path  d="M 221 21
L 241 21" style="stroke-width:1;stroke:rgba(0,116,217,1.0);fill:none"/><text x="43" y="56" style="stroke-width:0;stroke:none;fill:rgba(51,51,51,1.0);font-size:10.2px;font-family:'Roboto Medium',sans-serif">Anzahl Faelle</text><path  d="M 110 51
L 241 51" style="stroke-width:1;stroke:rgba(0,217,101,1.0);fill:none"/><text x="43" y="86" style="stroke-width:0;stroke:none;fill:rgba(51,51,51,1.0);font-size:10.2px;font-family:'Roboto Medium',sans-serif">Anzahl Tot</text><path  d="M 98 81
L 241 81" style="stroke-width:1;stroke:rgba(217,0,116,1.0);fill:none"/></svg>