<svg xmlns="http://www.w3.org/2000/svg" xmlns:xlink="http://www.w3.org/1999/xlink" width="1024" height="400">\n<path  d="M 0 0
L 1024 0
L 1024 400
L 0 400
L 0 0" style="stroke-width:0;stroke:rgba(255,255,255,1.0);fill:rgba(255,255,255,1.0)"/><path  d="M 38 11
L 969 11
L 969 351
L 38 351
L 38 11" style="stroke-width:0;stroke:rgba(255,255,255,1.0);fill:rgba(255,255,255,1.0)"/><path  d="M 38 351
L 969 351" style="stroke-width:1;stroke:rgba(51,51,51,1.0);fill:none"/><path  d="M 38 351
L 38 356" style="stroke-width:1;stroke:rgba(51,51,51,1.0);fill:none"/><text x="5" y="373" style="stroke-width:0;stroke:none;fill:rgba(51,51,51,1.0);font-size:12.8px;font-family:'Roboto Medium',sans-serif">2020-02-26</text><path  d="M 155 351
L 155 356" style="stroke-width:1;stroke:rgba(51,51,51,1.0);fill:none"/><text x="122" y="373" style="stroke-width:0;stroke:none;fill:rgba(51,51,51,1.0);font-size:12.8px;font-family:'Roboto Medium',sans-serif">2020-04-11</text><path  d="M 271 351
L 271 356" style="stroke-width:1;stroke:rgba(51,51,51,1.0);fill:none"/><text x="238" y="373" style="stroke-width:0;stroke:none;fill:rgba(51,51,51,1.0);font-size:12.8px;font-family:'Roboto Medium',sans-serif">2020-05-27</text><path  d="M 388 351
L 388 356" style="stroke-width:1;stroke:rgba(51,51,51,1.0);fill:none"/><text x="355" y="373" style="stroke-width:0;stroke:none;fill:rgba(51,51,51,1.0);font-size:12.8px;font-family:'Roboto Medium',sans-serif">2020-07-11</text><path  d="M 504 351
L 504 356" style="stroke-width:1;stroke:rgba(51,51,51,1.0);fill:none"/><text x="471" y="373" style="stroke-width:0;stroke:none;fill:rgba(51,51,51,1.0);font-size:12.8px;font-family:'Roboto Medium',sans-serif">2020-08-26</text><path  d="M 620 351
L 620 356" style="stroke-width:1;stroke:rgba(51,51,51,1.0);fill:none"/><text x="587" y="373" style="stroke-width:0;stroke:none;fill:rgba(51,51,51,1.0);font-size:12.8px;font-family:'Roboto Medium',sans-serif">2020-10-11</text><path  d="M 737 351
L 737 356" style="stroke-width:1;stroke:rgba(51,51,51,1.0);fill:none"/><text x="704" y="373" style="stroke-width:0;stroke:none;fill:rgba(51,51,51,1.0);font-size:12.8px;font-family:'Roboto Medium',sans-serif">2020-11-25</text><path  d="M 853 351
L 853 356" style="stroke-width:1;stroke:rgba(51,51,51,1.0);fill:none"/><text x="820" y="373" style="stroke-width:0;stroke:none;fill:rgba(51,51,51,1.0);font-size:12.8px;font-family:'Roboto Medium',sans-serif">2021-01-10</text><path  d="M 969 351
L 969 356" style="stroke-width:1;stroke:rgba(51,51,51,1.0);fill:none"/><text x="936" y="373" style="stroke-width:0;stroke:none;fill:rgba(51,51,51,1.0);font-size:12.8px;font-family:'Roboto Medium',sans-serif">2021-02-25</text><text x="485" y="395" style="stroke-width:0;stroke:none;fill:rgba(51,51,51,1.0);font-size:12.8px;font-family:'Roboto Medium',sans-serif">Datum</text><path  d="M 970 351
L 970 11" style="stroke-width:1;stroke:rgba(51,51,51,1.0);fill:none"/><path  d="M 970 351
L 975 351" style="stroke-width:1;stroke:rgba(51,51,51,1.0);fill:none"/><text x="980" y="357" style="stroke-width:0;stroke:none;fill:rgba(51,51,51,1.0);font-size:12.8px;font-family:'Roboto Medium',sans-serif">0.00</text><path  d="M 970 308
L 975 308" style="stroke-width:1;stroke:rgba(51,51,51,1.0);fill:none"/><text x="980" y="314" style="stroke-width:0;stroke:none;fill:rgba(51,51,51,1.0);font-size:12.8px;font-family:'Roboto Medium',sans-serif">105.00</text><path  d="M 970 266
L 975 266" style="stroke-width:1;stroke:rgba(51,51,51,1.0);fill:none"/><text x="980" y="272" style="stroke-width:0;stroke:none;fill:rgba(51,51,51,1.0);font-size:12.8px;font-family:'Roboto Medium',sans-serif">210.00</text><path  d="M 970 223
L 975 223" style="stroke-width:1;stroke:rgba(51,51,51,1.0);fill:none"/><text x="980" y="229" style="stroke-width:0;stroke:none;fill:rgba(51,51,51,1.0);font-size:12.8px;font-family:'Roboto Medium',sans-serif">315.00</text><path  d="M 970 181
L 975 181" style="stroke-width:1;stroke:rgba(51,51,51,1.0);fill:none"/><text x="980" y="187" style="stroke-width:0;stroke:none;fill:rgba(51,51,51,1.0);font-size:12.8px;font-family:'Roboto Medium',sans-serif">420.00</text><path  d="M 970 138
L 975 138" style="stroke-width:1;stroke:rgba(51,51,51,1.0);fill:none"/><text x="980" y="144" style="stroke-width:0;stroke:none;fill:rgba(51,51,51,1.0);font-size:12.8px;font-family:'Roboto Medium',sans-serif">525.00</text><path  d="M 970 96
L 975 96" style="stroke-width:1;stroke:rgba(51,51,51,1.0);fill:none"/><text x="980" y="102" style="stroke-width:0;stroke:none;fill:rgba(51,51,51,1.0);font-size:12.8px;font-family:'Roboto Medium',sans-serif">630.00</text><path  d="M 970 53
L 975 53" style="stroke-width:1;stroke:rgba(51,51,51,1.0);fill:none"/><text x="980" y="59" style="stroke-width:0;stroke:none;fill:rgba(51,51,51,1.0);font-size:12.8px;font-family:'Roboto Medium',sans-serif">735.00</text><path  d="M 970 11
L 975 11" style="stroke-width:1;stroke:rgba(51,51,51,1.0);fill:none"/><text x="980" y="17" style="stroke-width:0;stroke:none;fill:rgba(51,51,51,1.0);font-size:12.8px;font-family:'Roboto Medium',sans-serif">840.00</text><path  d="M 38 351
L 41 351
L 44 351
L 46 351
L 49 351
L 51 351
L 54 351
L 56 351
L 59 351
L 61 351
L 64 351
L 67 351
L 69 351
L 72 351
L 74 351
L 77 351
L 79 351
L 82 350
L 84 350
L 87 350
L 90 349
L 92 349
L 95 348
L 97 348
L 100 347
L 102 341
L 105 337
L 107 333
L 110 333
L 112 330
L 115 327
L 118 325
L 120 330
L 123 333
L 125 336
L 128 335
L 130 337
L 133 339
L 135 341
L 138 343
L 141 343
L 143 344
L 146 345
L 148 345
L 151 345
L 153 347
L 156 347
L 158 347
L 161 347
L 163 348
L 166 349
L 169 350
L 171 350
L 174 350
L 176 350
L 179 350
L 181 351
L 184 351
L 186 351
L 189 351
L 192 351
L 194 351
L 197 351
L 199 351
L 202 350
L 204 350
L 207 350
L 209 350
L 212 350
L 214 350
L 217 350
L 220 351
L 222 351
L 225 351
L 227 351
L 230 351
L 232 351
L 235 351
L 237 351
L 240 351
L 243 351
L 245 351
L 248 351
L 250 350
L 253 350
L 255 350
L 258 350
L 260 350
L 263 350
L 266 350
L 268 351
L 271 351
L 273 351
L 276 351
L 278 351
L 281 351
L 283 351
L 286 351
L 288 351
L 291 351
L 294 351
L 296 351
L 299 351
L 301 351
L 304 350
L 306 350
L 309 350
L 311 350
L 314 350
L 317 350
L 319 350
L 322 350
L 324 350
L 327 349
L 329 348
L 332 347
L 334 347
L 337 347
L 339 348
L 342 348
L 345 349
L 347 350
L 350 351
L 352 351
L 355 351
L 357 351
L 360 351
L 362 351
L 365 351
L 368 351
L 370 351
L 373 351
L 375 351
L 378 351
L 380 351
L 383 351
L 385 351
L 388 351
L 390 351
L 393 351
L 396 350
L 398 350
L 401 349
L 403 349
L 406 349
L 408 347
L 411 347
L 413 348
L 416 348
L 419 349
L 421 349
L 424 349
L 426 351
L 429 350
L 431 350
L 434 349
L 436 349
L 439 349
L 442 349
L 444 349
L 447 349
L 449 349
L 452 351
L 454 351
L 457 351
L 459 349
L 462 349
L 464 349
L 467 347
L 470 347
L 472 344
L 475 342
L 477 343
L 480 343
L 482 343
L 485 343
L 487 344
L 490 345
L 493 347
L 495 347
L 498 347
L 500 347
L 503 347
L 505 347
L 508 349
L 510 349
L 513 349
L 515 349
L 518 350
L 521 348
L 523 348
L 526 348
L 528 345
L 531 345
L 533 345
L 536 345
L 538 347
L 541 345
L 544 345
L 546 347
L 549 348
L 551 343
L 554 343
L 556 340
L 559 338
L 561 337
L 564 333
L 566 332
L 569 335
L 572 332
L 574 331
L 577 329
L 579 329
L 582 329
L 584 326
L 587 324
L 589 317
L 592 313
L 595 312
L 597 307
L 600 305
L 602 304
L 605 298
L 607 303
L 610 301
L 612 289
L 615 268
L 618 261
L 620 255
L 623 225
L 625 211
L 628 199
L 630 175
L 633 189
L 635 173
L 638 155
L 640 172
L 643 177
L 646 167
L 648 176
L 651 167
L 653 177
L 656 185
L 658 182
L 661 172
L 663 187
L 666 184
L 669 180
L 671 179
L 674 163
L 676 169
L 679 160
L 681 124
L 684 124
L 686 101
L 689 103
L 691 108
L 694 107
L 697 128
L 699 108
L 702 80
L 704 106
L 707 101
L 709 76
L 712 49
L 714 12
L 717 52
L 720 88
L 722 68
L 725 37
L 727 94
L 730 108
L 732 106
L 735 97
L 737 94
L 740 113
L 742 153
L 745 143
L 748 163
L 750 171
L 753 194
L 755 197
L 758 201
L 760 207
L 763 207
L 765 197
L 768 222
L 771 220
L 773 218
L 776 214
L 778 200
L 781 197
L 783 170
L 786 163
L 788 160
L 791 177
L 794 189
L 796 197
L 799 207
L 801 241
L 804 235
L 806 223
L 809 212
L 811 209
L 814 213
L 816 196
L 819 177
L 822 177
L 824 171
L 827 141
L 829 152
L 832 117
L 834 105
L 837 118
L 839 94
L 842 106
L 845 144
L 847 126
L 850 152
L 852 174
L 855 169
L 857 205
L 860 219
L 862 219
L 865 222
L 867 227
L 870 228
L 873 236
L 875 230
L 878 225
L 880 229
L 883 238
L 885 244
L 888 250
L 890 257
L 893 271
L 896 273
L 898 269
L 901 268
L 903 259
L 906 252
L 908 255
L 911 234
L 913 231
L 916 240
L 918 241
L 921 249
L 924 253
L 926 256
L 929 275
L 931 281
L 934 283
L 936 291
L 939 291
L 941 295
L 944 295
L 947 303
L 949 305
L 952 299
L 954 292
L 957 294
L 959 288
L 962 288
L 964 282
L 967 279
L 969 281" style="stroke-width:1;stroke:rgba(0,116,217,1.0);fill:none"/><path  d="M 38 351
L 41 351
L 44 351
L 46 351
L 49 351
L 51 351
L 54 351
L 56 351
L 59 351
L 61 351
L 64 351
L 67 351
L 69 351
L 72 351
L 74 351
L 77 351
L 79 351
L 82 350
L 84 351
L 87 351
L 90 350
L 92 350
L 95 350
L 97 351
L 100 350
L 102 346
L 105 348
L 107 348
L 110 350
L 112 348
L 115 348
L 118 349
L 120 349
L 123 350
L 125 350
L 128 349
L 130 350
L 133 350
L 135 350
L 138 351
L 141 351
L 143 350
L 146 350
L 148 350
L 151 350
L 153 351
L 156 351
L 158 351
L 161 351
L 163 350
L 166 351
L 169 351
L 171 351
L 174 351
L 176 351
L 179 351
L 181 351
L 184 351
L 186 351
L 189 351
L 192 351
L 194 351
L 197 351
L 199 351
L 202 350
L 204 351
L 207 351
L 209 351
L 212 351
L 214 351
L 217 351
L 220 351
L 222 351
L 225 351
L 227 351
L 230 351
L 232 351
L 235 351
L 237 351
L 240 351
L 243 351
L 245 351
L 248 351
L 250 350
L 253 351
L 255 351
L 258 351
L 260 351
L 263 351
L 266 351
L 268 351
L 271 351
L 273 351
L 276 351
L 278 351
L 281 351
L 283 351
L 286 351
L 288 351
L 291 351
L 294 351
L 296 351
L 299 351
L 301 351
L 304 350
L 306 351
L 309 351
L 311 351
L 314 351
L 317 351
L 319 351
L 322 350
L 324 351
L 327 350
L 329 350
L 332 350
L 334 351
L 337 351
L 339 351
L 342 351
L 345 351
L 347 351
L 350 351
L 352 351
L 355 351
L 357 351
L 360 351
L 362 351
L 365 351
L 368 351
L 370 351
L 373 351
L 375 351
L 378 351
L 380 351
L 383 351
L 385 351
L 388 351
L 390 351
L 393 351
L 396 350
L 398 351
L 401 350
L 403 351
L 406 351
L 408 350
L 411 351
L 413 351
L 416 351
L 419 351
L 421 351
L 424 351
L 426 351
L 429 350
L 431 351
L 434 350
L 436 351
L 439 351
L 442 351
L 444 351
L 447 351
L 449 351
L 452 351
L 454 351
L 457 351
L 459 350
L 462 351
L 464 350
L 467 350
L 470 350
L 472 349
L 475 349
L 477 351
L 480 351
L 482 350
L 485 350
L 487 351
L 490 349
L 493 351
L 495 351
L 498 351
L 500 350
L 503 351
L 505 351
L 508 351
L 510 351
L 513 351
L 515 350
L 518 351
L 521 349
L 523 351
L 526 351
L 528 349
L 531 350
L 533 351
L 536 351
L 538 351
L 541 349
L 544 350
L 546 351
L 549 351
L 551 348
L 554 351
L 556 348
L 559 348
L 561 349
L 564 348
L 566 350
L 569 350
L 572 348
L 574 348
L 577 347
L 579 349
L 582 348
L 584 348
L 587 348
L 589 344
L 592 346
L 595 346
L 597 346
L 600 347
L 602 348
L 605 345
L 607 347
L 610 345
L 612 339
L 615 333
L 618 343
L 620 344
L 623 327
L 625 338
L 628 338
L 630 324
L 633 342
L 635 333
L 638 333
L 640 337
L 643 341
L 646 331
L 648 330
L 651 336
L 653 339
L 656 338
L 658 336
L 661 335
L 663 341
L 666 328
L 669 334
L 671 339
L 674 328
L 676 339
L 679 329
L 681 319
L 684 328
L 686 319
L 689 340
L 691 331
L 694 339
L 697 342
L 699 307
L 702 311
L 704 335
L 707 337
L 709 315
L 712 323
L 714 320
L 717 331
L 720 333
L 722 323
L 725 318
L 727 350
L 730 331
L 732 319
L 735 326
L 737 331
L 740 334
L 742 342
L 745 344
L 748 343
L 750 324
L 753 340
L 755 333
L 758 337
L 760 346
L 763 344
L 765 337
L 768 339
L 771 339
L 773 331
L 776 334
L 778 337
L 781 342
L 783 321
L 786 335
L 788 337
L 791 342
L 794 342
L 796 342
L 799 348
L 801 342
L 804 331
L 806 330
L 809 335
L 811 340
L 814 344
L 816 338
L 819 330
L 822 331
L 824 326
L 827 317
L 829 347
L 832 323
L 834 330
L 837 338
L 839 317
L 842 334
L 845 340
L 847 336
L 850 338
L 852 344
L 855 335
L 857 339
L 860 342
L 862 340
L 865 338
L 867 342
L 870 344
L 873 340
L 875 335
L 878 339
L 880 342
L 883 343
L 885 345
L 888 348
L 890 344
L 893 344
L 896 341
L 898 340
L 901 342
L 903 340
L 906 344
L 908 346
L 911 331
L 913 339
L 916 345
L 918 342
L 921 345
L 924 346
L 926 347
L 929 342
L 931 343
L 934 346
L 936 347
L 939 345
L 941 348
L 944 348
L 947 347
L 949 344
L 952 342
L 954 343
L 957 346
L 959 345
L 962 348
L 964 344
L 967 342
L 969 343" style="stroke-width:1;stroke:rgba(0,217,101,1.0);fill:none"/><path  d="M 38 351
L 41 351
L 44 351
L 46 351
L 49 351
L 51 351
L 54 351
L 56 351
L 59 351
L 61 351
L 64 351
L 67 351
L 69 351
L 72 351
L 74 351
L 77 351
L 79 351
L 82 351
L 84 351
L 87 351
L 90 351
L 92 351
L 95 351
L 97 351
L 100 351
L 102 351
L 105 351
L 107 351
L 110 351
L 112 351
L 115 351
L 118 351
L 120 351
L 123 350
L 125 351
L 128 351
L 130 351
L 133 351
L 135 351
L 138 351
L 141 351
L 143 351
L 146 351
L 148 351
L 151 351
L 153 351
L 156 351
L 158 351
L 161 351
L 163 351
L 166 351
L 169 351
L 171 351
L 174 351
L 176 351
L 179 351
L 181 351
L 184 351
L 186 351
L 189 351
L 192 351
L 194 351
L 197 351
L 199 351
L 202 351
L 204 351
L 207 351
L 209 351
L 212 351
L 214 351
L 217 351
L 220 351
L 222 351
L 225 351
L 227 351
L 230 351
L 232 351
L 235 351
L 237 351
L 240 351
L 243 351
L 245 351
L 248 351
L 250 351
L 253 351
L 255 351
L 258 351
L 260 351
L 263 351
L 266 351
L 268 351
L 271 351
L 273 351
L 276 351
L 278 351
L 281 351
L 283 351
L 286 351
L 288 351
L 291 351
L 294 351
L 296 351
L 299 351
L 301 351
L 304 351
L 306 351
L 309 351
L 311 351
L 314 351
L 317 351
L 319 351
L 322 351
L 324 351
L 327 351
L 329 351
L 332 351
L 334 351
L 337 351
L 339 351
L 342 351
L 345 351
L 347 351
L 350 351
L 352 351
L 355 351
L 357 351
L 360 351
L 362 351
L 365 351
L 368 351
L 370 351
L 373 351
L 375 351
L 378 351
L 380 351
L 383 351
L 385 351
L 388 351
L 390 351
L 393 351
L 396 351
L 398 351
L 401 351
L 403 351
L 406 351
L 408 351
L 411 351
L 413 351
L 416 351
L 419 351
L 421 351
L 424 351
L 426 351
L 429 351
L 431 351
L 434 351
L 436 351
L 439 351
L 442 351
L 444 351
L 447 351
L 449 351
L 452 351
L 454 351
L 457 351
L 459 351
L 462 351
L 464 351
L 467 351
L 470 351
L 472 351
L 475 351
L 477 351
L 480 351
L 482 351
L 485 351
L 487 351
L 490 351
L 493 351
L 495 351
L 498 351
L 500 351
L 503 351
L 505 351
L 508 351
L 510 351
L 513 351
L 515 351
L 518 351
L 521 351
L 523 351
L 526 351
L 528 351
L 531 351
L 533 351
L 536 351
L 538 351
L 541 351
L 544 351
L 546 351
L 549 351
L 551 351
L 554 351
L 556 351
L 559 351
L 561 351
L 564 351
L 566 351
L 569 351
L 572 351
L 574 351
L 577 351
L 579 351
L 582 351
L 584 351
L 587 351
L 589 351
L 592 351
L 595 351
L 597 351
L 600 351
L 602 351
L 605 350
L 607 351
L 610 351
L 612 351
L 615 351
L 618 351
L 620 350
L 623 351
L 625 351
L 628 351
L 630 351
L 633 351
L 635 350
L 638 351
L 640 351
L 643 351
L 646 351
L 648 351
L 651 351
L 653 351
L 656 351
L 658 351
L 661 351
L 663 349
L 666 351
L 669 351
L 671 351
L 674 351
L 676 351
L 679 351
L 681 351
L 684 349
L 686 351
L 689 350
L 691 351
L 694 351
L 697 350
L 699 351
L 702 350
L 704 351
L 707 351
L 709 351
L 712 350
L 714 351
L 717 351
L 720 351
L 722 351
L 725 350
L 727 351
L 730 351
L 732 351
L 735 351
L 737 351
L 740 351
L 742 351
L 745 350
L 748 349
L 750 350
L 753 351
L 755 351
L 758 351
L 760 350
L 763 350
L 765 351
L 768 351
L 771 351
L 773 351
L 776 351
L 778 351
L 781 350
L 783 351
L 786 351
L 788 351
L 791 351
L 794 351
L 796 350
L 799 350
L 801 351
L 804 351
L 806 351
L 809 351
L 811 351
L 814 350
L 816 351
L 819 350
L 822 351
L 824 351
L 827 351
L 829 350
L 832 350
L 834 351
L 837 350
L 839 351
L 842 350
L 845 351
L 847 351
L 850 351
L 852 350
L 855 351
L 857 351
L 860 351
L 862 351
L 865 351
L 867 351
L 870 351
L 873 350
L 875 351
L 878 351
L 880 351
L 883 351
L 885 351
L 888 351
L 890 349
L 893 351
L 896 350
L 898 350
L 901 350
L 903 349
L 906 351
L 908 350
L 911 350
L 913 351
L 916 350
L 918 351
L 921 351
L 924 351
L 926 351
L 929 351
L 931 350
L 934 350
L 936 351
L 939 350
L 941 351
L 944 351
L 947 351
L 949 351
L 952 351
L 954 351
L 957 351
L 959 351
L 962 351
L 964 351
L 967 351
L 969 351" style="stroke-width:1;stroke:rgba(217,0,116,1.0);fill:none"/><text x="415" y="33" style="stroke-width:0;stroke:none;fill:rgba(51,51,51,1.0);font-size:23.0px;font-family:'Roboto Medium',sans-serif">Hallein 25.02.2021</text><path  d="M 38 11
L 251 11
L 251 91
L 38 91
L 38 11" style="stroke-width:1;stroke:rgba(51,51,51,1.0);fill:rgba(255,255,255,1.0)"/><text x="43" y="26" style="stroke-width:0;stroke:none;fill:rgba(51,51,51,1.0);font-size:10.2px;font-family:'Roboto Medium',sans-serif">Sieben Tage Durschnitt Inzidenz Fälle</text><path  d="M 221 21
L 241 21" style="stroke-width:1;stroke:rgba(0,116,217,1.0);fill:none"/><text x="43" y="56" style="stroke-width:0;stroke:none;fill:rgba(51,51,51,1.0);font-size:10.2px;font-family:'Roboto Medium',sans-serif">Anzahl Faelle</text><path  d="M 110 51
L 241 51" style="stroke-width:1;stroke:rgba(0,217,101,1.0);fill:none"/><text x="43" y="86" style="stroke-width:0;stroke:none;fill:rgba(51,51,51,1.0);font-size:10.2px;font-family:'Roboto Medium',sans-serif">Anzahl Tot</text><path  d="M 98 81
L 241 81" style="stroke-width:1;stroke:rgba(217,0,116,1.0);fill:none"/></svg>