<svg xmlns="http://www.w3.org/2000/svg" xmlns:xlink="http://www.w3.org/1999/xlink" width="1024" height="400">\n<path  d="M 0 0
L 1024 0
L 1024 400
L 0 400
L 0 0" style="stroke-width:0;stroke:rgba(255,255,255,1.0);fill:rgba(255,255,255,1.0)"/><path  d="M 38 11
L 961 11
L 961 351
L 38 351
L 38 11" style="stroke-width:0;stroke:rgba(255,255,255,1.0);fill:rgba(255,255,255,1.0)"/><path  d="M 38 351
L 961 351" style="stroke-width:1;stroke:rgba(51,51,51,1.0);fill:none"/><path  d="M 38 351
L 38 356" style="stroke-width:1;stroke:rgba(51,51,51,1.0);fill:none"/><text x="5" y="373" style="stroke-width:0;stroke:none;fill:rgba(51,51,51,1.0);font-size:12.8px;font-family:'Roboto Medium',sans-serif">2020-02-26</text><path  d="M 154 351
L 154 356" style="stroke-width:1;stroke:rgba(51,51,51,1.0);fill:none"/><text x="121" y="373" style="stroke-width:0;stroke:none;fill:rgba(51,51,51,1.0);font-size:12.8px;font-family:'Roboto Medium',sans-serif">2020-07-05</text><path  d="M 269 351
L 269 356" style="stroke-width:1;stroke:rgba(51,51,51,1.0);fill:none"/><text x="236" y="373" style="stroke-width:0;stroke:none;fill:rgba(51,51,51,1.0);font-size:12.8px;font-family:'Roboto Medium',sans-serif">2020-11-12</text><path  d="M 385 351
L 385 356" style="stroke-width:1;stroke:rgba(51,51,51,1.0);fill:none"/><text x="352" y="373" style="stroke-width:0;stroke:none;fill:rgba(51,51,51,1.0);font-size:12.8px;font-family:'Roboto Medium',sans-serif">2021-03-22</text><path  d="M 500 351
L 500 356" style="stroke-width:1;stroke:rgba(51,51,51,1.0);fill:none"/><text x="467" y="373" style="stroke-width:0;stroke:none;fill:rgba(51,51,51,1.0);font-size:12.8px;font-family:'Roboto Medium',sans-serif">2021-07-31</text><path  d="M 615 351
L 615 356" style="stroke-width:1;stroke:rgba(51,51,51,1.0);fill:none"/><text x="582" y="373" style="stroke-width:0;stroke:none;fill:rgba(51,51,51,1.0);font-size:12.8px;font-family:'Roboto Medium',sans-serif">2021-12-08</text><path  d="M 731 351
L 731 356" style="stroke-width:1;stroke:rgba(51,51,51,1.0);fill:none"/><text x="698" y="373" style="stroke-width:0;stroke:none;fill:rgba(51,51,51,1.0);font-size:12.8px;font-family:'Roboto Medium',sans-serif">2022-04-17</text><path  d="M 846 351
L 846 356" style="stroke-width:1;stroke:rgba(51,51,51,1.0);fill:none"/><text x="813" y="373" style="stroke-width:0;stroke:none;fill:rgba(51,51,51,1.0);font-size:12.8px;font-family:'Roboto Medium',sans-serif">2022-08-25</text><path  d="M 961 351
L 961 356" style="stroke-width:1;stroke:rgba(51,51,51,1.0);fill:none"/><text x="928" y="373" style="stroke-width:0;stroke:none;fill:rgba(51,51,51,1.0);font-size:12.8px;font-family:'Roboto Medium',sans-serif">2023-01-03</text><text x="481" y="395" style="stroke-width:0;stroke:none;fill:rgba(51,51,51,1.0);font-size:12.8px;font-family:'Roboto Medium',sans-serif">Datum</text><path  d="M 962 351
L 962 11" style="stroke-width:1;stroke:rgba(51,51,51,1.0);fill:none"/><path  d="M 962 351
L 967 351" style="stroke-width:1;stroke:rgba(51,51,51,1.0);fill:none"/><text x="972" y="357" style="stroke-width:0;stroke:none;fill:rgba(51,51,51,1.0);font-size:12.8px;font-family:'Roboto Medium',sans-serif">0.00</text><path  d="M 962 307
L 967 307" style="stroke-width:1;stroke:rgba(51,51,51,1.0);fill:none"/><text x="972" y="313" style="stroke-width:0;stroke:none;fill:rgba(51,51,51,1.0);font-size:12.8px;font-family:'Roboto Medium',sans-serif">470.00</text><path  d="M 962 265
L 967 265" style="stroke-width:1;stroke:rgba(51,51,51,1.0);fill:none"/><text x="972" y="271" style="stroke-width:0;stroke:none;fill:rgba(51,51,51,1.0);font-size:12.8px;font-family:'Roboto Medium',sans-serif">930.00</text><path  d="M 962 223
L 967 223" style="stroke-width:1;stroke:rgba(51,51,51,1.0);fill:none"/><text x="972" y="229" style="stroke-width:0;stroke:none;fill:rgba(51,51,51,1.0);font-size:12.8px;font-family:'Roboto Medium',sans-serif">1390.00</text><path  d="M 962 181
L 967 181" style="stroke-width:1;stroke:rgba(51,51,51,1.0);fill:none"/><text x="972" y="187" style="stroke-width:0;stroke:none;fill:rgba(51,51,51,1.0);font-size:12.8px;font-family:'Roboto Medium',sans-serif">1850.00</text><path  d="M 962 137
L 967 137" style="stroke-width:1;stroke:rgba(51,51,51,1.0);fill:none"/><text x="972" y="143" style="stroke-width:0;stroke:none;fill:rgba(51,51,51,1.0);font-size:12.8px;font-family:'Roboto Medium',sans-serif">2320.00</text><path  d="M 962 95
L 967 95" style="stroke-width:1;stroke:rgba(51,51,51,1.0);fill:none"/><text x="972" y="101" style="stroke-width:0;stroke:none;fill:rgba(51,51,51,1.0);font-size:12.8px;font-family:'Roboto Medium',sans-serif">2780.00</text><path  d="M 962 53
L 967 53" style="stroke-width:1;stroke:rgba(51,51,51,1.0);fill:none"/><text x="972" y="59" style="stroke-width:0;stroke:none;fill:rgba(51,51,51,1.0);font-size:12.8px;font-family:'Roboto Medium',sans-serif">3240.00</text><path  d="M 962 11
L 967 11" style="stroke-width:1;stroke:rgba(51,51,51,1.0);fill:none"/><text x="972" y="17" style="stroke-width:0;stroke:none;fill:rgba(51,51,51,1.0);font-size:12.8px;font-family:'Roboto Medium',sans-serif">3700.00</text><path  d="M 38 351
L 39 351
L 40 351
L 41 351
L 42 351
L 43 351
L 44 351
L 45 351
L 46 351
L 46 351
L 47 351
L 48 351
L 49 351
L 50 351
L 51 351
L 52 351
L 53 351
L 54 350
L 54 350
L 55 350
L 56 350
L 57 350
L 58 350
L 59 350
L 60 350
L 61 350
L 62 350
L 62 349
L 63 348
L 64 348
L 65 347
L 66 346
L 67 346
L 68 346
L 69 347
L 70 347
L 70 347
L 71 348
L 72 348
L 73 349
L 74 349
L 75 349
L 76 349
L 77 349
L 77 349
L 78 350
L 79 350
L 80 350
L 81 350
L 82 350
L 83 350
L 84 350
L 85 350
L 85 350
L 86 350
L 87 350
L 88 351
L 89 351
L 90 351
L 91 351
L 92 351
L 93 351
L 93 351
L 94 351
L 95 350
L 96 350
L 97 350
L 98 350
L 99 350
L 100 350
L 101 350
L 101 351
L 102 351
L 103 351
L 104 351
L 105 351
L 106 351
L 107 351
L 108 351
L 108 351
L 109 351
L 110 351
L 111 351
L 112 350
L 113 350
L 114 350
L 115 350
L 116 350
L 116 350
L 117 350
L 118 351
L 119 351
L 120 351
L 121 351
L 122 351
L 123 351
L 124 351
L 124 351
L 125 351
L 126 351
L 127 351
L 128 351
L 129 351
L 130 351
L 131 350
L 132 350
L 132 350
L 133 350
L 134 350
L 135 350
L 136 350
L 137 350
L 138 350
L 139 350
L 139 350
L 140 350
L 141 350
L 142 350
L 143 350
L 144 350
L 145 350
L 146 350
L 147 351
L 147 351
L 148 351
L 149 351
L 150 351
L 151 351
L 152 351
L 153 351
L 154 351
L 155 351
L 155 351
L 156 351
L 157 351
L 158 351
L 159 351
L 160 351
L 161 351
L 162 351
L 163 350
L 163 350
L 164 350
L 165 350
L 166 350
L 167 350
L 168 350
L 169 350
L 170 350
L 170 350
L 171 350
L 172 350
L 173 351
L 174 350
L 175 350
L 176 350
L 177 350
L 178 350
L 178 350
L 179 350
L 180 350
L 181 350
L 182 351
L 183 351
L 184 351
L 185 350
L 186 350
L 186 350
L 187 350
L 188 350
L 189 349
L 190 349
L 191 349
L 192 349
L 193 349
L 194 349
L 194 349
L 195 349
L 196 350
L 197 350
L 198 350
L 199 350
L 200 350
L 201 350
L 201 350
L 202 350
L 203 350
L 204 350
L 205 350
L 206 350
L 207 350
L 208 350
L 209 349
L 209 349
L 210 349
L 211 349
L 212 350
L 213 349
L 214 349
L 215 350
L 216 350
L 217 349
L 217 349
L 218 348
L 219 348
L 220 347
L 221 346
L 222 346
L 223 347
L 224 346
L 225 346
L 225 346
L 226 346
L 227 346
L 228 345
L 229 345
L 230 343
L 231 342
L 232 342
L 232 341
L 233 340
L 234 340
L 235 339
L 236 340
L 237 339
L 238 337
L 239 332
L 240 330
L 240 329
L 241 323
L 242 319
L 243 317
L 244 311
L 245 315
L 246 311
L 247 307
L 248 310
L 248 312
L 249 309
L 250 311
L 251 309
L 252 311
L 253 313
L 254 312
L 255 310
L 256 314
L 256 313
L 257 313
L 258 313
L 259 309
L 260 310
L 261 308
L 262 300
L 263 300
L 263 295
L 264 295
L 265 296
L 266 296
L 267 301
L 268 296
L 269 290
L 270 295
L 271 294
L 271 289
L 272 283
L 273 274
L 274 283
L 275 292
L 276 287
L 277 280
L 278 293
L 279 296
L 279 295
L 280 293
L 281 292
L 282 296
L 283 305
L 284 303
L 285 307
L 286 309
L 287 315
L 287 316
L 288 317
L 289 318
L 290 318
L 291 316
L 292 322
L 293 321
L 294 321
L 294 320
L 295 317
L 296 316
L 297 310
L 298 309
L 299 308
L 300 312
L 301 315
L 302 316
L 302 318
L 303 326
L 304 325
L 305 322
L 306 319
L 307 319
L 308 320
L 309 316
L 310 312
L 310 312
L 311 310
L 312 303
L 313 306
L 314 298
L 315 295
L 316 299
L 317 293
L 318 296
L 318 304
L 319 300
L 320 306
L 321 311
L 322 309
L 323 318
L 324 321
L 325 321
L 325 322
L 326 323
L 327 323
L 328 325
L 329 324
L 330 323
L 331 324
L 332 325
L 333 327
L 333 328
L 334 330
L 335 332
L 336 333
L 337 332
L 338 331
L 339 330
L 340 328
L 341 329
L 341 325
L 342 324
L 343 326
L 344 326
L 345 328
L 346 329
L 347 330
L 348 334
L 349 336
L 349 336
L 350 337
L 351 338
L 352 339
L 353 338
L 354 340
L 355 340
L 356 339
L 357 338
L 357 338
L 358 337
L 359 337
L 360 335
L 361 334
L 362 335
L 363 335
L 364 334
L 364 334
L 365 334
L 366 335
L 367 334
L 368 333
L 369 333
L 370 334
L 371 333
L 372 333
L 372 333
L 373 333
L 374 334
L 375 333
L 376 332
L 377 330
L 378 328
L 379 324
L 380 323
L 380 320
L 381 319
L 382 319
L 383 319
L 384 318
L 385 320
L 386 321
L 387 322
L 388 325
L 388 326
L 389 327
L 390 329
L 391 330
L 392 332
L 393 332
L 394 331
L 395 331
L 395 332
L 396 333
L 397 333
L 398 332
L 399 333
L 400 334
L 401 335
L 402 336
L 403 336
L 403 336
L 404 337
L 405 337
L 406 337
L 407 334
L 408 332
L 409 330
L 410 328
L 411 327
L 411 324
L 412 325
L 413 324
L 414 324
L 415 323
L 416 321
L 417 320
L 418 322
L 419 322
L 419 322
L 420 323
L 421 325
L 422 328
L 423 330
L 424 330
L 425 330
L 426 333
L 426 333
L 427 334
L 428 336
L 429 338
L 430 339
L 431 340
L 432 341
L 433 341
L 434 343
L 434 343
L 435 345
L 436 344
L 437 345
L 438 345
L 439 345
L 440 345
L 441 346
L 442 346
L 442 347
L 443 347
L 444 347
L 445 348
L 446 348
L 447 348
L 448 348
L 449 348
L 450 348
L 450 348
L 451 348
L 452 348
L 453 348
L 454 348
L 455 349
L 456 349
L 457 350
L 457 350
L 458 350
L 459 350
L 460 350
L 461 350
L 462 350
L 463 350
L 464 350
L 465 350
L 465 350
L 466 350
L 467 350
L 468 350
L 469 350
L 470 350
L 471 350
L 472 350
L 473 350
L 473 350
L 474 350
L 475 350
L 476 350
L 477 350
L 478 350
L 479 350
L 480 350
L 481 350
L 481 350
L 482 350
L 483 350
L 484 350
L 485 350
L 486 350
L 487 349
L 488 349
L 488 348
L 489 348
L 490 347
L 491 347
L 492 347
L 493 347
L 494 347
L 495 348
L 496 348
L 496 348
L 497 348
L 498 348
L 499 347
L 500 347
L 501 347
L 502 347
L 503 347
L 504 347
L 504 346
L 505 346
L 506 346
L 507 346
L 508 345
L 509 345
L 510 345
L 511 344
L 512 344
L 512 344
L 513 344
L 514 344
L 515 344
L 516 343
L 517 345
L 518 343
L 519 343
L 519 343
L 520 342
L 521 341
L 522 341
L 523 341
L 524 340
L 525 340
L 526 339
L 527 340
L 527 341
L 528 341
L 529 339
L 530 338
L 531 338
L 532 338
L 533 336
L 534 336
L 535 336
L 535 337
L 536 337
L 537 337
L 538 336
L 539 338
L 540 336
L 541 335
L 542 335
L 543 337
L 543 337
L 544 337
L 545 338
L 546 338
L 547 337
L 548 338
L 549 337
L 550 339
L 550 339
L 551 337
L 552 338
L 553 338
L 554 336
L 555 336
L 556 336
L 557 335
L 558 335
L 558 334
L 559 332
L 560 330
L 561 327
L 562 324
L 563 323
L 564 321
L 565 316
L 566 315
L 566 312
L 567 308
L 568 307
L 569 306
L 570 301
L 571 298
L 572 298
L 573 295
L 574 296
L 574 294
L 575 293
L 576 291
L 577 294
L 578 290
L 579 292
L 580 285
L 581 281
L 581 276
L 582 280
L 583 278
L 584 267
L 585 258
L 586 255
L 587 250
L 588 247
L 589 247
L 589 245
L 590 233
L 591 229
L 592 220
L 593 210
L 594 201
L 595 193
L 596 181
L 597 179
L 597 172
L 598 168
L 599 168
L 600 168
L 601 165
L 602 162
L 603 166
L 604 169
L 605 184
L 605 186
L 606 195
L 607 202
L 608 208
L 609 225
L 610 235
L 611 243
L 612 256
L 612 262
L 613 268
L 614 282
L 615 288
L 616 300
L 617 303
L 618 308
L 619 308
L 620 311
L 620 315
L 621 319
L 622 320
L 623 324
L 624 327
L 625 331
L 626 332
L 627 333
L 628 334
L 628 334
L 629 334
L 630 333
L 631 333
L 632 332
L 633 332
L 634 330
L 635 327
L 636 322
L 636 316
L 637 312
L 638 302
L 639 272
L 640 253
L 641 231
L 642 223
L 643 204
L 643 186
L 644 180
L 645 174
L 646 150
L 647 147
L 648 130
L 649 128
L 650 123
L 651 123
L 651 103
L 652 122
L 653 101
L 654 91
L 655 89
L 656 86
L 657 78
L 658 85
L 659 68
L 659 75
L 660 67
L 661 74
L 662 75
L 663 76
L 664 77
L 665 94
L 666 93
L 667 113
L 667 109
L 668 100
L 669 107
L 670 106
L 671 99
L 672 100
L 673 101
L 674 106
L 675 119
L 675 120
L 676 143
L 677 144
L 678 151
L 679 157
L 680 157
L 681 156
L 682 159
L 682 136
L 683 137
L 684 138
L 685 134
L 686 139
L 687 148
L 688 142
L 689 151
L 690 151
L 690 141
L 691 137
L 692 124
L 693 119
L 694 115
L 695 97
L 696 89
L 697 78
L 698 67
L 698 60
L 699 55
L 700 54
L 701 43
L 702 26
L 703 23
L 704 13
L 705 23
L 706 27
L 706 28
L 707 41
L 708 57
L 709 77
L 710 97
L 711 106
L 712 114
L 713 119
L 713 146
L 714 171
L 715 195
L 716 212
L 717 221
L 718 233
L 719 244
L 720 260
L 721 268
L 721 274
L 722 282
L 723 286
L 724 287
L 725 290
L 726 300
L 727 303
L 728 307
L 729 303
L 729 303
L 730 304
L 731 305
L 732 306
L 733 302
L 734 304
L 735 312
L 736 314
L 737 317
L 737 314
L 738 316
L 739 322
L 740 322
L 741 322
L 742 322
L 743 319
L 744 321
L 744 320
L 745 319
L 746 318
L 747 318
L 748 318
L 749 318
L 750 317
L 751 319
L 752 321
L 752 322
L 753 322
L 754 324
L 755 326
L 756 328
L 757 328
L 758 331
L 759 332
L 760 333
L 760 333
L 761 334
L 762 335
L 763 336
L 764 335
L 765 336
L 766 337
L 767 336
L 768 336
L 768 335
L 769 334
L 770 333
L 771 331
L 772 328
L 773 330
L 774 328
L 775 330
L 775 329
L 776 328
L 777 328
L 778 327
L 779 326
L 780 324
L 781 319
L 782 317
L 783 315
L 783 315
L 784 312
L 785 311
L 786 312
L 787 308
L 788 306
L 789 304
L 790 300
L 791 301
L 791 300
L 792 300
L 793 301
L 794 301
L 795 303
L 796 302
L 797 305
L 798 300
L 799 300
L 799 302
L 800 300
L 801 298
L 802 300
L 803 299
L 804 303
L 805 302
L 806 300
L 806 299
L 807 296
L 808 293
L 809 288
L 810 287
L 811 286
L 812 286
L 813 285
L 814 288
L 814 287
L 815 291
L 816 288
L 817 291
L 818 292
L 819 293
L 820 296
L 821 300
L 822 302
L 822 308
L 823 309
L 824 310
L 825 314
L 826 314
L 827 316
L 828 313
L 829 311
L 830 311
L 830 313
L 831 315
L 832 318
L 833 317
L 834 319
L 835 321
L 836 322
L 837 323
L 837 323
L 838 321
L 839 322
L 840 321
L 841 321
L 842 319
L 843 319
L 844 321
L 845 321
L 845 322
L 846 323
L 847 322
L 848 325
L 849 325
L 850 325
L 851 326
L 852 325
L 853 325
L 853 326
L 854 326
L 855 326
L 856 327
L 857 326
L 858 326
L 859 327
L 860 327
L 861 326
L 861 321
L 862 321
L 863 318
L 864 317
L 865 314
L 866 315
L 867 311
L 868 314
L 868 309
L 869 309
L 870 306
L 871 300
L 872 297
L 873 297
L 874 285
L 875 278
L 876 268
L 876 263
L 877 258
L 878 254
L 879 249
L 880 249
L 881 238
L 882 227
L 883 225
L 884 221
L 884 219
L 885 225
L 886 220
L 887 228
L 888 240
L 889 239
L 890 247
L 891 251
L 892 253
L 892 258
L 893 266
L 894 272
L 895 280
L 896 284
L 897 288
L 898 286
L 899 299
L 899 300
L 900 308
L 901 309
L 902 315
L 903 316
L 904 318
L 905 319
L 906 323
L 907 321
L 907 325
L 908 327
L 909 328
L 910 328
L 911 330
L 912 331
L 913 331
L 914 332
L 915 331
L 915 329
L 916 331
L 917 331
L 918 331
L 919 331
L 920 332
L 921 333
L 922 335
L 923 335
L 923 336
L 924 336
L 925 337
L 926 336
L 927 335
L 928 336
L 929 335
L 930 334
L 930 331
L 931 331
L 932 329
L 933 329
L 934 328
L 935 328
L 936 327
L 937 329
L 938 327
L 938 328
L 939 327
L 940 326
L 941 325
L 942 325
L 943 323
L 944 324
L 945 325
L 946 323
L 946 325
L 947 325
L 948 324
L 949 327
L 950 326
L 951 327
L 952 329
L 953 329
L 954 331
L 954 334
L 955 333
L 956 335
L 957 335
L 958 335
L 959 336
L 960 336
L 961 336
L 961 339" style="stroke-width:1;stroke:rgba(0,116,217,1.0);fill:none"/><path  d="M 38 351
L 39 351
L 40 351
L 41 351
L 42 351
L 43 351
L 44 351
L 45 351
L 46 351
L 46 351
L 47 351
L 48 351
L 49 351
L 50 351
L 51 351
L 52 351
L 53 351
L 54 350
L 54 351
L 55 351
L 56 351
L 57 351
L 58 351
L 59 351
L 60 350
L 61 350
L 62 350
L 62 350
L 63 350
L 64 350
L 65 350
L 66 350
L 67 350
L 68 350
L 69 350
L 70 350
L 70 350
L 71 350
L 72 350
L 73 351
L 74 351
L 75 350
L 76 350
L 77 350
L 77 350
L 78 351
L 79 351
L 80 351
L 81 351
L 82 350
L 83 351
L 84 351
L 85 351
L 85 351
L 86 351
L 87 351
L 88 351
L 89 351
L 90 351
L 91 351
L 92 351
L 93 351
L 93 351
L 94 351
L 95 350
L 96 351
L 97 351
L 98 351
L 99 351
L 100 351
L 101 351
L 101 351
L 102 351
L 103 351
L 104 351
L 105 351
L 106 351
L 107 351
L 108 351
L 108 351
L 109 351
L 110 351
L 111 351
L 112 350
L 113 351
L 114 351
L 115 351
L 116 351
L 116 351
L 117 351
L 118 351
L 119 351
L 120 351
L 121 351
L 122 351
L 123 351
L 124 351
L 124 351
L 125 351
L 126 351
L 127 351
L 128 351
L 129 351
L 130 351
L 131 350
L 132 351
L 132 351
L 133 351
L 134 351
L 135 351
L 136 351
L 137 350
L 138 351
L 139 350
L 139 350
L 140 350
L 141 351
L 142 351
L 143 351
L 144 351
L 145 351
L 146 351
L 147 351
L 147 351
L 148 351
L 149 351
L 150 351
L 151 351
L 152 351
L 153 351
L 154 351
L 155 351
L 155 351
L 156 351
L 157 351
L 158 351
L 159 351
L 160 351
L 161 351
L 162 351
L 163 350
L 163 351
L 164 350
L 165 351
L 166 351
L 167 350
L 168 351
L 169 351
L 170 351
L 170 351
L 171 351
L 172 351
L 173 351
L 174 350
L 175 351
L 176 350
L 177 351
L 178 351
L 178 351
L 179 351
L 180 351
L 181 351
L 182 351
L 183 351
L 184 351
L 185 350
L 186 351
L 186 350
L 187 350
L 188 351
L 189 350
L 190 350
L 191 351
L 192 351
L 193 350
L 194 350
L 194 351
L 195 350
L 196 351
L 197 351
L 198 351
L 199 350
L 200 351
L 201 351
L 201 351
L 202 351
L 203 351
L 204 350
L 205 351
L 206 350
L 207 351
L 208 351
L 209 350
L 209 350
L 210 351
L 211 351
L 212 351
L 213 350
L 214 350
L 215 351
L 216 351
L 217 350
L 217 351
L 218 350
L 219 350
L 220 350
L 221 350
L 222 350
L 223 350
L 224 350
L 225 350
L 225 350
L 226 350
L 227 350
L 228 350
L 229 350
L 230 349
L 231 349
L 232 350
L 232 349
L 233 350
L 234 350
L 235 349
L 236 350
L 237 349
L 238 348
L 239 346
L 240 349
L 240 349
L 241 345
L 242 348
L 243 348
L 244 345
L 245 348
L 246 347
L 247 347
L 248 347
L 248 348
L 249 346
L 250 346
L 251 347
L 252 348
L 253 348
L 254 347
L 255 347
L 256 348
L 256 346
L 257 347
L 258 348
L 259 345
L 260 348
L 261 346
L 262 344
L 263 345
L 263 344
L 264 348
L 265 346
L 266 348
L 267 349
L 268 341
L 269 341
L 270 347
L 271 347
L 271 343
L 272 344
L 273 344
L 274 346
L 275 347
L 276 344
L 277 343
L 278 350
L 279 346
L 279 343
L 280 345
L 281 346
L 282 347
L 283 349
L 284 349
L 285 349
L 286 345
L 287 348
L 287 346
L 288 347
L 289 349
L 290 349
L 291 348
L 292 348
L 293 348
L 294 346
L 294 347
L 295 348
L 296 349
L 297 344
L 298 347
L 299 348
L 300 348
L 301 348
L 302 349
L 302 350
L 303 348
L 304 346
L 305 346
L 306 347
L 307 348
L 308 349
L 309 348
L 310 346
L 310 346
L 311 345
L 312 343
L 313 350
L 314 344
L 315 346
L 316 348
L 317 343
L 318 347
L 318 348
L 319 347
L 320 348
L 321 349
L 322 347
L 323 348
L 324 349
L 325 348
L 325 348
L 326 348
L 327 349
L 328 348
L 329 347
L 330 348
L 331 349
L 332 349
L 333 349
L 333 350
L 334 349
L 335 349
L 336 348
L 337 348
L 338 348
L 339 348
L 340 349
L 341 349
L 341 346
L 342 348
L 343 349
L 344 349
L 345 349
L 346 350
L 347 350
L 348 349
L 349 349
L 349 349
L 350 350
L 351 349
L 352 350
L 353 350
L 354 350
L 355 349
L 356 349
L 357 349
L 357 349
L 358 349
L 359 350
L 360 349
L 361 349
L 362 349
L 363 349
L 364 349
L 364 350
L 365 350
L 366 349
L 367 348
L 368 349
L 369 349
L 370 349
L 371 349
L 372 350
L 372 349
L 373 348
L 374 349
L 375 348
L 376 349
L 377 348
L 378 349
L 379 347
L 380 347
L 380 347
L 381 348
L 382 349
L 383 348
L 384 348
L 385 348
L 386 348
L 387 348
L 388 349
L 388 349
L 389 349
L 390 349
L 391 348
L 392 349
L 393 348
L 394 349
L 395 349
L 395 349
L 396 350
L 397 348
L 398 349
L 399 349
L 400 349
L 401 350
L 402 350
L 403 350
L 403 348
L 404 349
L 405 349
L 406 349
L 407 348
L 408 349
L 409 348
L 410 347
L 411 348
L 411 347
L 412 349
L 413 348
L 414 349
L 415 348
L 416 347
L 417 347
L 418 349
L 419 349
L 419 348
L 420 349
L 421 349
L 422 349
L 423 348
L 424 349
L 425 350
L 426 349
L 426 349
L 427 349
L 428 350
L 429 349
L 430 350
L 431 350
L 432 350
L 433 349
L 434 350
L 434 350
L 435 350
L 436 349
L 437 350
L 438 350
L 439 350
L 440 350
L 441 350
L 442 350
L 442 350
L 443 350
L 444 350
L 445 350
L 446 350
L 447 350
L 448 350
L 449 350
L 450 350
L 450 350
L 451 350
L 452 350
L 453 350
L 454 350
L 455 351
L 456 351
L 457 351
L 457 351
L 458 350
L 459 350
L 460 350
L 461 351
L 462 350
L 463 351
L 464 351
L 465 351
L 465 351
L 466 350
L 467 351
L 468 351
L 469 351
L 470 351
L 471 351
L 472 350
L 473 351
L 473 350
L 474 351
L 475 351
L 476 350
L 477 351
L 478 351
L 479 350
L 480 350
L 481 351
L 481 351
L 482 351
L 483 351
L 484 350
L 485 351
L 486 350
L 487 350
L 488 350
L 488 350
L 489 350
L 490 350
L 491 350
L 492 350
L 493 350
L 494 350
L 495 350
L 496 350
L 496 350
L 497 350
L 498 350
L 499 350
L 500 350
L 501 350
L 502 350
L 503 350
L 504 351
L 504 350
L 505 350
L 506 350
L 507 350
L 508 349
L 509 350
L 510 351
L 511 349
L 512 351
L 512 350
L 513 350
L 514 350
L 515 350
L 516 349
L 517 350
L 518 349
L 519 350
L 519 350
L 520 349
L 521 349
L 522 349
L 523 350
L 524 349
L 525 349
L 526 350
L 527 350
L 527 349
L 528 350
L 529 349
L 530 349
L 531 349
L 532 350
L 533 348
L 534 350
L 535 349
L 535 349
L 536 349
L 537 349
L 538 350
L 539 349
L 540 348
L 541 349
L 542 349
L 543 350
L 543 349
L 544 350
L 545 350
L 546 348
L 547 348
L 548 350
L 549 350
L 550 350
L 550 350
L 551 348
L 552 349
L 553 349
L 554 349
L 555 349
L 556 350
L 557 350
L 558 348
L 558 349
L 559 347
L 560 348
L 561 347
L 562 349
L 563 349
L 564 347
L 565 346
L 566 347
L 566 346
L 567 345
L 568 348
L 569 348
L 570 344
L 571 344
L 572 346
L 573 344
L 574 345
L 574 347
L 575 348
L 576 343
L 577 345
L 578 344
L 579 345
L 580 341
L 581 344
L 581 345
L 582 345
L 583 344
L 584 337
L 585 340
L 586 338
L 587 342
L 588 343
L 589 345
L 589 343
L 590 330
L 591 338
L 592 333
L 593 335
L 594 338
L 595 340
L 596 335
L 597 328
L 597 334
L 598 330
L 599 336
L 600 338
L 601 338
L 602 333
L 603 331
L 604 335
L 605 340
L 605 337
L 606 344
L 607 343
L 608 337
L 609 341
L 610 341
L 611 345
L 612 345
L 612 347
L 613 347
L 614 345
L 615 346
L 616 349
L 617 346
L 618 348
L 619 347
L 620 349
L 620 348
L 621 348
L 622 349
L 623 349
L 624 349
L 625 349
L 626 350
L 627 348
L 628 349
L 628 349
L 629 349
L 630 349
L 631 349
L 632 349
L 633 348
L 634 348
L 635 348
L 636 346
L 636 345
L 637 347
L 638 342
L 639 330
L 640 335
L 641 334
L 642 342
L 643 333
L 643 336
L 644 339
L 645 326
L 646 321
L 647 333
L 648 331
L 649 331
L 650 333
L 651 338
L 651 314
L 652 333
L 653 320
L 654 325
L 655 330
L 656 331
L 657 334
L 658 318
L 659 322
L 659 325
L 660 320
L 661 335
L 662 332
L 663 334
L 664 319
L 665 332
L 666 324
L 667 332
L 667 332
L 668 326
L 669 338
L 670 318
L 671 328
L 672 325
L 673 333
L 674 335
L 675 334
L 675 339
L 676 332
L 677 328
L 678 329
L 679 337
L 680 335
L 681 333
L 682 341
L 682 318
L 683 329
L 684 330
L 685 334
L 686 338
L 687 339
L 688 338
L 689 324
L 690 329
L 690 324
L 691 331
L 692 330
L 693 336
L 694 336
L 695 313
L 696 324
L 697 317
L 698 325
L 698 326
L 699 332
L 700 335
L 701 306
L 702 314
L 703 315
L 704 319
L 705 332
L 706 335
L 706 336
L 707 314
L 708 324
L 709 326
L 710 331
L 711 338
L 712 339
L 713 339
L 713 331
L 714 339
L 715 341
L 716 341
L 717 344
L 718 347
L 719 345
L 720 340
L 721 345
L 721 345
L 722 346
L 723 347
L 724 347
L 725 347
L 726 346
L 727 346
L 728 347
L 729 344
L 729 347
L 730 348
L 731 348
L 732 347
L 733 344
L 734 348
L 735 348
L 736 348
L 737 349
L 737 346
L 738 348
L 739 347
L 740 348
L 741 348
L 742 349
L 743 348
L 744 348
L 744 347
L 745 347
L 746 348
L 747 348
L 748 348
L 749 348
L 750 347
L 751 349
L 752 347
L 752 348
L 753 349
L 754 349
L 755 349
L 756 349
L 757 349
L 758 349
L 759 349
L 760 349
L 760 349
L 761 350
L 762 349
L 763 349
L 764 349
L 765 349
L 766 350
L 767 349
L 768 350
L 768 348
L 769 349
L 770 348
L 771 348
L 772 348
L 773 350
L 774 348
L 775 350
L 775 348
L 776 348
L 777 348
L 778 348
L 779 349
L 780 347
L 781 346
L 782 347
L 783 347
L 783 348
L 784 346
L 785 348
L 786 348
L 787 344
L 788 345
L 789 346
L 790 346
L 791 346
L 791 348
L 792 347
L 793 344
L 794 346
L 795 347
L 796 345
L 797 348
L 798 345
L 799 347
L 799 346
L 800 344
L 801 345
L 802 346
L 803 348
L 804 348
L 805 346
L 806 345
L 806 344
L 807 343
L 808 345
L 809 345
L 810 347
L 811 345
L 812 345
L 813 344
L 814 345
L 814 344
L 815 347
L 816 345
L 817 347
L 818 345
L 819 344
L 820 347
L 821 346
L 822 348
L 822 349
L 823 348
L 824 346
L 825 347
L 826 346
L 827 347
L 828 347
L 829 348
L 830 348
L 830 347
L 831 348
L 832 348
L 833 347
L 834 348
L 835 349
L 836 348
L 837 348
L 837 348
L 838 348
L 839 347
L 840 348
L 841 349
L 842 347
L 843 348
L 844 348
L 845 348
L 845 348
L 846 348
L 847 348
L 848 349
L 849 348
L 850 348
L 851 348
L 852 348
L 853 348
L 853 349
L 854 349
L 855 348
L 856 348
L 857 348
L 858 348
L 859 349
L 860 348
L 861 349
L 861 345
L 862 348
L 863 346
L 864 347
L 865 347
L 866 349
L 867 347
L 868 346
L 868 345
L 869 347
L 870 345
L 871 344
L 872 347
L 873 346
L 874 339
L 875 341
L 876 340
L 876 342
L 877 340
L 878 345
L 879 343
L 880 340
L 881 334
L 882 334
L 883 341
L 884 338
L 884 343
L 885 347
L 886 337
L 887 339
L 888 341
L 889 340
L 890 343
L 891 345
L 892 348
L 892 340
L 893 344
L 894 345
L 895 345
L 896 345
L 897 348
L 898 347
L 899 348
L 899 345
L 900 349
L 901 346
L 902 348
L 903 349
L 904 348
L 905 348
L 906 348
L 907 348
L 907 349
L 908 349
L 909 350
L 910 348
L 911 349
L 912 348
L 913 348
L 914 349
L 915 349
L 915 348
L 916 350
L 917 348
L 918 349
L 919 349
L 920 349
L 921 350
L 922 349
L 923 350
L 923 349
L 924 349
L 925 349
L 926 349
L 927 349
L 928 350
L 929 349
L 930 349
L 930 347
L 931 349
L 932 348
L 933 349
L 934 349
L 935 349
L 936 348
L 937 349
L 938 347
L 938 348
L 939 349
L 940 348
L 941 348
L 942 348
L 943 347
L 944 348
L 945 348
L 946 348
L 946 349
L 947 349
L 948 347
L 949 349
L 950 348
L 951 349
L 952 349
L 953 349
L 954 350
L 954 349
L 955 348
L 956 349
L 957 349
L 958 349
L 959 350
L 960 350
L 961 349
L 961 350" style="stroke-width:1;stroke:rgba(0,217,101,1.0);fill:none"/><path  d="M 38 351
L 39 351
L 40 351
L 41 351
L 42 351
L 43 351
L 44 351
L 45 351
L 46 351
L 46 351
L 47 351
L 48 351
L 49 351
L 50 351
L 51 351
L 52 351
L 53 351
L 54 351
L 54 351
L 55 351
L 56 351
L 57 351
L 58 351
L 59 351
L 60 351
L 61 351
L 62 351
L 62 351
L 63 351
L 64 351
L 65 351
L 66 351
L 67 351
L 68 350
L 69 351
L 70 351
L 70 351
L 71 351
L 72 351
L 73 351
L 74 351
L 75 351
L 76 351
L 77 351
L 77 351
L 78 351
L 79 351
L 80 351
L 81 351
L 82 351
L 83 351
L 84 351
L 85 351
L 85 351
L 86 351
L 87 351
L 88 351
L 89 351
L 90 351
L 91 351
L 92 351
L 93 351
L 93 351
L 94 351
L 95 351
L 96 351
L 97 351
L 98 351
L 99 351
L 100 351
L 101 351
L 101 351
L 102 351
L 103 351
L 104 351
L 105 351
L 106 351
L 107 351
L 108 351
L 108 351
L 109 351
L 110 351
L 111 351
L 112 351
L 113 351
L 114 351
L 115 351
L 116 351
L 116 351
L 117 351
L 118 351
L 119 351
L 120 351
L 121 351
L 122 351
L 123 351
L 124 351
L 124 351
L 125 351
L 126 351
L 127 351
L 128 351
L 129 351
L 130 351
L 131 351
L 132 351
L 132 351
L 133 351
L 134 351
L 135 351
L 136 351
L 137 351
L 138 351
L 139 351
L 139 351
L 140 351
L 141 351
L 142 351
L 143 351
L 144 351
L 145 351
L 146 351
L 147 351
L 147 351
L 148 351
L 149 351
L 150 351
L 151 351
L 152 351
L 153 351
L 154 351
L 155 351
L 155 351
L 156 351
L 157 351
L 158 351
L 159 351
L 160 351
L 161 351
L 162 351
L 163 351
L 163 351
L 164 351
L 165 351
L 166 351
L 167 351
L 168 351
L 169 351
L 170 351
L 170 351
L 171 351
L 172 351
L 173 351
L 174 351
L 175 351
L 176 351
L 177 351
L 178 351
L 178 351
L 179 351
L 180 351
L 181 351
L 182 351
L 183 351
L 184 351
L 185 351
L 186 351
L 186 351
L 187 351
L 188 351
L 189 351
L 190 351
L 191 351
L 192 351
L 193 351
L 194 351
L 194 351
L 195 351
L 196 351
L 197 351
L 198 351
L 199 351
L 200 351
L 201 351
L 201 351
L 202 351
L 203 351
L 204 351
L 205 351
L 206 351
L 207 351
L 208 351
L 209 351
L 209 351
L 210 351
L 211 351
L 212 351
L 213 351
L 214 351
L 215 351
L 216 351
L 217 351
L 217 351
L 218 351
L 219 351
L 220 351
L 221 351
L 222 351
L 223 351
L 224 351
L 225 351
L 225 351
L 226 351
L 227 351
L 228 351
L 229 350
L 230 351
L 231 351
L 232 351
L 232 351
L 233 351
L 234 351
L 235 350
L 236 351
L 237 351
L 238 351
L 239 351
L 240 351
L 240 350
L 241 351
L 242 351
L 243 351
L 244 351
L 245 351
L 246 350
L 247 351
L 248 351
L 248 351
L 249 351
L 250 351
L 251 351
L 252 351
L 253 351
L 254 351
L 255 351
L 256 350
L 256 351
L 257 351
L 258 351
L 259 351
L 260 351
L 261 351
L 262 351
L 263 350
L 263 351
L 264 350
L 265 351
L 266 351
L 267 350
L 268 351
L 269 350
L 270 351
L 271 351
L 271 351
L 272 350
L 273 351
L 274 351
L 275 351
L 276 351
L 277 350
L 278 351
L 279 351
L 279 351
L 280 351
L 281 351
L 282 351
L 283 351
L 284 350
L 285 350
L 286 350
L 287 351
L 287 351
L 288 350
L 289 350
L 290 350
L 291 351
L 292 351
L 293 351
L 294 351
L 294 351
L 295 351
L 296 350
L 297 350
L 298 351
L 299 351
L 300 350
L 301 350
L 302 350
L 302 350
L 303 350
L 304 351
L 305 351
L 306 351
L 307 351
L 308 350
L 309 351
L 310 350
L 310 350
L 311 351
L 312 351
L 313 350
L 314 350
L 315 351
L 316 350
L 317 351
L 318 350
L 318 351
L 319 351
L 320 351
L 321 350
L 322 351
L 323 351
L 324 351
L 325 351
L 325 351
L 326 351
L 327 351
L 328 350
L 329 351
L 330 351
L 331 351
L 332 351
L 333 351
L 333 351
L 334 350
L 335 351
L 336 350
L 337 350
L 338 350
L 339 350
L 340 351
L 341 350
L 341 350
L 342 351
L 343 350
L 344 350
L 345 350
L 346 351
L 347 351
L 348 350
L 349 350
L 349 350
L 350 350
L 351 350
L 352 351
L 353 351
L 354 350
L 355 351
L 356 351
L 357 351
L 357 351
L 358 350
L 359 351
L 360 351
L 361 350
L 362 351
L 363 351
L 364 351
L 364 351
L 365 351
L 366 351
L 367 351
L 368 351
L 369 351
L 370 350
L 371 351
L 372 351
L 372 351
L 373 351
L 374 351
L 375 350
L 376 351
L 377 351
L 378 351
L 379 351
L 380 351
L 380 351
L 381 351
L 382 350
L 383 351
L 384 351
L 385 350
L 386 350
L 387 351
L 388 351
L 388 351
L 389 351
L 390 351
L 391 351
L 392 351
L 393 350
L 394 351
L 395 351
L 395 351
L 396 351
L 397 351
L 398 351
L 399 351
L 400 351
L 401 351
L 402 351
L 403 351
L 403 351
L 404 350
L 405 351
L 406 351
L 407 351
L 408 351
L 409 351
L 410 351
L 411 351
L 411 351
L 412 351
L 413 351
L 414 350
L 415 351
L 416 351
L 417 351
L 418 351
L 419 351
L 419 351
L 420 350
L 421 351
L 422 350
L 423 351
L 424 351
L 425 351
L 426 351
L 426 351
L 427 351
L 428 351
L 429 351
L 430 351
L 431 351
L 432 350
L 433 351
L 434 351
L 434 351
L 435 351
L 436 351
L 437 351
L 438 351
L 439 351
L 440 351
L 441 351
L 442 351
L 442 351
L 443 351
L 444 351
L 445 351
L 446 351
L 447 351
L 448 351
L 449 351
L 450 351
L 450 351
L 451 351
L 452 351
L 453 351
L 454 351
L 455 351
L 456 351
L 457 351
L 457 351
L 458 351
L 459 351
L 460 351
L 461 351
L 462 351
L 463 351
L 464 351
L 465 351
L 465 351
L 466 351
L 467 351
L 468 351
L 469 351
L 470 351
L 471 351
L 472 351
L 473 351
L 473 351
L 474 351
L 475 351
L 476 351
L 477 351
L 478 351
L 479 351
L 480 351
L 481 351
L 481 351
L 482 351
L 483 351
L 484 351
L 485 351
L 486 351
L 487 351
L 488 351
L 488 351
L 489 351
L 490 351
L 491 351
L 492 351
L 493 351
L 494 351
L 495 351
L 496 351
L 496 351
L 497 351
L 498 351
L 499 351
L 500 351
L 501 351
L 502 351
L 503 351
L 504 351
L 504 351
L 505 351
L 506 351
L 507 351
L 508 351
L 509 351
L 510 351
L 511 351
L 512 351
L 512 351
L 513 351
L 514 351
L 515 351
L 516 351
L 517 350
L 518 351
L 519 351
L 519 351
L 520 351
L 521 350
L 522 351
L 523 351
L 524 351
L 525 351
L 526 351
L 527 351
L 527 351
L 528 351
L 529 351
L 530 351
L 531 351
L 532 351
L 533 351
L 534 351
L 535 351
L 535 351
L 536 351
L 537 351
L 538 351
L 539 351
L 540 351
L 541 351
L 542 351
L 543 350
L 543 351
L 544 350
L 545 350
L 546 351
L 547 351
L 548 350
L 549 351
L 550 351
L 550 351
L 551 351
L 552 351
L 553 351
L 554 351
L 555 351
L 556 351
L 557 351
L 558 351
L 558 351
L 559 351
L 560 351
L 561 351
L 562 351
L 563 351
L 564 351
L 565 351
L 566 351
L 566 351
L 567 351
L 568 351
L 569 351
L 570 351
L 571 351
L 572 350
L 573 351
L 574 351
L 574 351
L 575 350
L 576 351
L 577 350
L 578 351
L 579 351
L 580 351
L 581 350
L 581 350
L 582 351
L 583 350
L 584 351
L 585 351
L 586 351
L 587 351
L 588 350
L 589 350
L 589 350
L 590 350
L 591 351
L 592 350
L 593 350
L 594 350
L 595 351
L 596 351
L 597 351
L 597 350
L 598 350
L 599 351
L 600 351
L 601 350
L 602 351
L 603 350
L 604 350
L 605 350
L 605 350
L 606 350
L 607 351
L 608 351
L 609 350
L 610 350
L 611 351
L 612 351
L 612 351
L 613 351
L 614 350
L 615 351
L 616 350
L 617 350
L 618 351
L 619 351
L 620 351
L 620 351
L 621 351
L 622 351
L 623 351
L 624 351
L 625 351
L 626 351
L 627 350
L 628 351
L 628 351
L 629 351
L 630 351
L 631 351
L 632 351
L 633 351
L 634 351
L 635 351
L 636 351
L 636 351
L 637 351
L 638 351
L 639 351
L 640 351
L 641 351
L 642 351
L 643 351
L 643 351
L 644 350
L 645 351
L 646 351
L 647 351
L 648 351
L 649 351
L 650 351
L 651 351
L 651 351
L 652 351
L 653 351
L 654 351
L 655 351
L 656 351
L 657 351
L 658 351
L 659 351
L 659 351
L 660 351
L 661 351
L 662 351
L 663 351
L 664 351
L 665 351
L 666 351
L 667 351
L 667 351
L 668 351
L 669 351
L 670 351
L 671 350
L 672 351
L 673 351
L 674 351
L 675 351
L 675 351
L 676 351
L 677 350
L 678 351
L 679 351
L 680 351
L 681 351
L 682 351
L 682 351
L 683 351
L 684 351
L 685 351
L 686 351
L 687 351
L 688 351
L 689 351
L 690 351
L 690 351
L 691 351
L 692 351
L 693 351
L 694 351
L 695 351
L 696 350
L 697 351
L 698 351
L 698 351
L 699 351
L 700 350
L 701 350
L 702 351
L 703 350
L 704 351
L 705 351
L 706 351
L 706 351
L 707 351
L 708 351
L 709 351
L 710 351
L 711 351
L 712 351
L 713 351
L 713 351
L 714 351
L 715 351
L 716 351
L 717 351
L 718 351
L 719 350
L 720 351
L 721 351
L 721 351
L 722 351
L 723 351
L 724 351
L 725 351
L 726 351
L 727 351
L 728 351
L 729 351
L 729 351
L 730 351
L 731 351
L 732 351
L 733 351
L 734 351
L 735 351
L 736 351
L 737 351
L 737 351
L 738 351
L 739 350
L 740 351
L 741 351
L 742 351
L 743 351
L 744 351
L 744 351
L 745 351
L 746 351
L 747 351
L 748 351
L 749 351
L 750 351
L 751 351
L 752 350
L 752 351
L 753 351
L 754 351
L 755 351
L 756 351
L 757 351
L 758 351
L 759 351
L 760 351
L 760 351
L 761 351
L 762 351
L 763 351
L 764 351
L 765 351
L 766 351
L 767 351
L 768 351
L 768 351
L 769 351
L 770 351
L 771 351
L 772 351
L 773 351
L 774 351
L 775 351
L 775 351
L 776 351
L 777 350
L 778 351
L 779 351
L 780 351
L 781 351
L 782 351
L 783 351
L 783 351
L 784 351
L 785 351
L 786 351
L 787 351
L 788 351
L 789 351
L 790 351
L 791 351
L 791 351
L 792 351
L 793 351
L 794 351
L 795 351
L 796 351
L 797 350
L 798 351
L 799 351
L 799 351
L 800 351
L 801 351
L 802 351
L 803 351
L 804 351
L 805 351
L 806 351
L 806 351
L 807 351
L 808 351
L 809 351
L 810 351
L 811 351
L 812 351
L 813 351
L 814 351
L 814 351
L 815 350
L 816 351
L 817 351
L 818 351
L 819 350
L 820 351
L 821 351
L 822 351
L 822 351
L 823 351
L 824 350
L 825 351
L 826 351
L 827 351
L 828 351
L 829 350
L 830 351
L 830 350
L 831 351
L 832 351
L 833 351
L 834 351
L 835 351
L 836 351
L 837 351
L 837 351
L 838 351
L 839 351
L 840 351
L 841 351
L 842 351
L 843 351
L 844 351
L 845 351
L 845 351
L 846 351
L 847 351
L 848 351
L 849 351
L 850 351
L 851 351
L 852 351
L 853 351
L 853 351
L 854 351
L 855 351
L 856 351
L 857 351
L 858 351
L 859 351
L 860 351
L 861 351
L 861 351
L 862 351
L 863 351
L 864 351
L 865 351
L 866 351
L 867 351
L 868 351
L 868 351
L 869 351
L 870 351
L 871 351
L 872 351
L 873 351
L 874 351
L 875 351
L 876 351
L 876 351
L 877 351
L 878 351
L 879 351
L 880 351
L 881 351
L 882 351
L 883 351
L 884 351
L 884 351
L 885 351
L 886 351
L 887 351
L 888 351
L 889 351
L 890 351
L 891 351
L 892 351
L 892 351
L 893 351
L 894 351
L 895 351
L 896 351
L 897 351
L 898 351
L 899 351
L 899 351
L 900 351
L 901 351
L 902 351
L 903 351
L 904 351
L 905 351
L 906 351
L 907 351
L 907 351
L 908 351
L 909 351
L 910 351
L 911 351
L 912 351
L 913 351
L 914 351
L 915 351
L 915 351
L 916 351
L 917 351
L 918 351
L 919 351
L 920 351
L 921 351
L 922 351
L 923 351
L 923 351
L 924 351
L 925 351
L 926 351
L 927 351
L 928 351
L 929 351
L 930 351
L 930 351
L 931 351
L 932 351
L 933 351
L 934 351
L 935 351
L 936 351
L 937 351
L 938 351
L 938 351
L 939 351
L 940 351
L 941 351
L 942 351
L 943 351
L 944 351
L 945 351
L 946 351
L 946 351
L 947 351
L 948 351
L 949 351
L 950 351
L 951 350
L 952 351
L 953 351
L 954 351
L 954 351
L 955 351
L 956 351
L 957 351
L 958 351
L 959 351
L 960 351
L 961 351
L 961 351" style="stroke-width:1;stroke:rgba(217,0,116,1.0);fill:none"/><text x="415" y="33" style="stroke-width:0;stroke:none;fill:rgba(51,51,51,1.0);font-size:23.0px;font-family:'Roboto Medium',sans-serif">Hallein 03.01.2023</text><path  d="M 38 11
L 251 11
L 251 91
L 38 91
L 38 11" style="stroke-width:1;stroke:rgba(51,51,51,1.0);fill:rgba(255,255,255,1.0)"/><text x="43" y="26" style="stroke-width:0;stroke:none;fill:rgba(51,51,51,1.0);font-size:10.2px;font-family:'Roboto Medium',sans-serif">Sieben Tage Durschnitt Inzidenz Fälle</text><path  d="M 221 21
L 241 21" style="stroke-width:1;stroke:rgba(0,116,217,1.0);fill:none"/><text x="43" y="56" style="stroke-width:0;stroke:none;fill:rgba(51,51,51,1.0);font-size:10.2px;font-family:'Roboto Medium',sans-serif">Anzahl Faelle</text><path  d="M 110 51
L 241 51" style="stroke-width:1;stroke:rgba(0,217,101,1.0);fill:none"/><text x="43" y="86" style="stroke-width:0;stroke:none;fill:rgba(51,51,51,1.0);font-size:10.2px;font-family:'Roboto Medium',sans-serif">Anzahl Tot</text><path  d="M 98 81
L 241 81" style="stroke-width:1;stroke:rgba(217,0,116,1.0);fill:none"/></svg>