<svg xmlns="http://www.w3.org/2000/svg" xmlns:xlink="http://www.w3.org/1999/xlink" width="1024" height="400">\n<path  d="M 0 0
L 1024 0
L 1024 400
L 0 400
L 0 0" style="stroke-width:0;stroke:rgba(255,255,255,1.0);fill:rgba(255,255,255,1.0)"/><path  d="M 38 11
L 969 11
L 969 351
L 38 351
L 38 11" style="stroke-width:0;stroke:rgba(255,255,255,1.0);fill:rgba(255,255,255,1.0)"/><path  d="M 38 351
L 969 351" style="stroke-width:1;stroke:rgba(51,51,51,1.0);fill:none"/><path  d="M 38 351
L 38 356" style="stroke-width:1;stroke:rgba(51,51,51,1.0);fill:none"/><text x="5" y="373" style="stroke-width:0;stroke:none;fill:rgba(51,51,51,1.0);font-size:12.8px;font-family:'Roboto Medium',sans-serif">2020-02-26</text><path  d="M 155 351
L 155 356" style="stroke-width:1;stroke:rgba(51,51,51,1.0);fill:none"/><text x="122" y="373" style="stroke-width:0;stroke:none;fill:rgba(51,51,51,1.0);font-size:12.8px;font-family:'Roboto Medium',sans-serif">2020-04-03</text><path  d="M 271 351
L 271 356" style="stroke-width:1;stroke:rgba(51,51,51,1.0);fill:none"/><text x="238" y="373" style="stroke-width:0;stroke:none;fill:rgba(51,51,51,1.0);font-size:12.8px;font-family:'Roboto Medium',sans-serif">2020-05-11</text><path  d="M 388 351
L 388 356" style="stroke-width:1;stroke:rgba(51,51,51,1.0);fill:none"/><text x="355" y="373" style="stroke-width:0;stroke:none;fill:rgba(51,51,51,1.0);font-size:12.8px;font-family:'Roboto Medium',sans-serif">2020-06-18</text><path  d="M 504 351
L 504 356" style="stroke-width:1;stroke:rgba(51,51,51,1.0);fill:none"/><text x="471" y="373" style="stroke-width:0;stroke:none;fill:rgba(51,51,51,1.0);font-size:12.8px;font-family:'Roboto Medium',sans-serif">2020-07-26</text><path  d="M 620 351
L 620 356" style="stroke-width:1;stroke:rgba(51,51,51,1.0);fill:none"/><text x="587" y="373" style="stroke-width:0;stroke:none;fill:rgba(51,51,51,1.0);font-size:12.8px;font-family:'Roboto Medium',sans-serif">2020-09-02</text><path  d="M 737 351
L 737 356" style="stroke-width:1;stroke:rgba(51,51,51,1.0);fill:none"/><text x="704" y="373" style="stroke-width:0;stroke:none;fill:rgba(51,51,51,1.0);font-size:12.8px;font-family:'Roboto Medium',sans-serif">2020-10-10</text><path  d="M 853 351
L 853 356" style="stroke-width:1;stroke:rgba(51,51,51,1.0);fill:none"/><text x="820" y="373" style="stroke-width:0;stroke:none;fill:rgba(51,51,51,1.0);font-size:12.8px;font-family:'Roboto Medium',sans-serif">2020-11-17</text><path  d="M 969 351
L 969 356" style="stroke-width:1;stroke:rgba(51,51,51,1.0);fill:none"/><text x="936" y="373" style="stroke-width:0;stroke:none;fill:rgba(51,51,51,1.0);font-size:12.8px;font-family:'Roboto Medium',sans-serif">2020-12-25</text><text x="485" y="395" style="stroke-width:0;stroke:none;fill:rgba(51,51,51,1.0);font-size:12.8px;font-family:'Roboto Medium',sans-serif">Datum</text><path  d="M 970 351
L 970 11" style="stroke-width:1;stroke:rgba(51,51,51,1.0);fill:none"/><path  d="M 970 351
L 975 351" style="stroke-width:1;stroke:rgba(51,51,51,1.0);fill:none"/><text x="980" y="357" style="stroke-width:0;stroke:none;fill:rgba(51,51,51,1.0);font-size:12.8px;font-family:'Roboto Medium',sans-serif">0.00</text><path  d="M 970 308
L 975 308" style="stroke-width:1;stroke:rgba(51,51,51,1.0);fill:none"/><text x="980" y="314" style="stroke-width:0;stroke:none;fill:rgba(51,51,51,1.0);font-size:12.8px;font-family:'Roboto Medium',sans-serif">84.00</text><path  d="M 970 265
L 975 265" style="stroke-width:1;stroke:rgba(51,51,51,1.0);fill:none"/><text x="980" y="271" style="stroke-width:0;stroke:none;fill:rgba(51,51,51,1.0);font-size:12.8px;font-family:'Roboto Medium',sans-serif">168.00</text><path  d="M 970 223
L 975 223" style="stroke-width:1;stroke:rgba(51,51,51,1.0);fill:none"/><text x="980" y="229" style="stroke-width:0;stroke:none;fill:rgba(51,51,51,1.0);font-size:12.8px;font-family:'Roboto Medium',sans-serif">252.00</text><path  d="M 970 181
L 975 181" style="stroke-width:1;stroke:rgba(51,51,51,1.0);fill:none"/><text x="980" y="187" style="stroke-width:0;stroke:none;fill:rgba(51,51,51,1.0);font-size:12.8px;font-family:'Roboto Medium',sans-serif">335.00</text><path  d="M 970 138
L 975 138" style="stroke-width:1;stroke:rgba(51,51,51,1.0);fill:none"/><text x="980" y="144" style="stroke-width:0;stroke:none;fill:rgba(51,51,51,1.0);font-size:12.8px;font-family:'Roboto Medium',sans-serif">419.00</text><path  d="M 970 95
L 975 95" style="stroke-width:1;stroke:rgba(51,51,51,1.0);fill:none"/><text x="980" y="101" style="stroke-width:0;stroke:none;fill:rgba(51,51,51,1.0);font-size:12.8px;font-family:'Roboto Medium',sans-serif">503.00</text><path  d="M 970 53
L 975 53" style="stroke-width:1;stroke:rgba(51,51,51,1.0);fill:none"/><text x="980" y="59" style="stroke-width:0;stroke:none;fill:rgba(51,51,51,1.0);font-size:12.8px;font-family:'Roboto Medium',sans-serif">587.00</text><path  d="M 970 11
L 975 11" style="stroke-width:1;stroke:rgba(51,51,51,1.0);fill:none"/><text x="980" y="17" style="stroke-width:0;stroke:none;fill:rgba(51,51,51,1.0);font-size:12.8px;font-family:'Roboto Medium',sans-serif">670.00</text><path  d="M 38 351
L 42 351
L 45 351
L 48 351
L 51 351
L 54 351
L 57 351
L 60 351
L 63 351
L 66 351
L 69 349
L 72 349
L 75 348
L 78 348
L 82 346
L 85 345
L 88 343
L 91 343
L 94 339
L 97 339
L 100 338
L 103 336
L 106 327
L 109 324
L 112 317
L 115 321
L 118 320
L 121 306
L 125 307
L 128 298
L 131 297
L 134 299
L 137 294
L 140 289
L 143 297
L 146 293
L 149 307
L 152 309
L 155 305
L 158 308
L 161 314
L 164 314
L 168 316
L 171 318
L 174 321
L 177 328
L 180 330
L 183 331
L 186 338
L 189 340
L 192 343
L 195 342
L 198 343
L 201 343
L 204 342
L 207 342
L 211 343
L 214 343
L 217 344
L 220 345
L 223 346
L 226 347
L 229 348
L 232 348
L 235 348
L 238 348
L 241 349
L 244 349
L 247 349
L 251 348
L 254 348
L 257 348
L 260 348
L 263 348
L 266 348
L 269 348
L 272 349
L 275 349
L 278 350
L 281 350
L 284 350
L 287 350
L 290 350
L 294 350
L 297 350
L 300 350
L 303 351
L 306 351
L 309 351
L 312 351
L 315 351
L 318 351
L 321 351
L 324 351
L 327 351
L 330 351
L 333 351
L 337 351
L 340 351
L 343 351
L 346 351
L 349 351
L 352 351
L 355 351
L 358 351
L 361 351
L 364 351
L 367 351
L 370 351
L 373 351
L 376 351
L 380 351
L 383 351
L 386 351
L 389 351
L 392 351
L 395 351
L 398 351
L 401 351
L 404 351
L 407 351
L 410 351
L 413 351
L 416 351
L 420 351
L 423 351
L 426 351
L 429 351
L 432 350
L 435 350
L 438 350
L 441 350
L 444 350
L 447 350
L 450 350
L 453 350
L 456 350
L 459 350
L 463 350
L 466 350
L 469 350
L 472 350
L 475 351
L 478 351
L 481 351
L 484 351
L 487 350
L 490 350
L 493 350
L 496 350
L 499 350
L 502 350
L 506 350
L 509 351
L 512 351
L 515 351
L 518 351
L 521 351
L 524 351
L 527 351
L 530 351
L 533 351
L 536 351
L 539 351
L 542 351
L 545 351
L 549 351
L 552 351
L 555 351
L 558 351
L 561 351
L 564 351
L 567 351
L 570 350
L 573 350
L 576 349
L 579 349
L 582 349
L 585 347
L 588 346
L 592 347
L 595 345
L 598 345
L 601 344
L 604 345
L 607 347
L 610 348
L 613 348
L 616 349
L 619 350
L 622 349
L 625 349
L 628 348
L 632 348
L 635 347
L 638 347
L 641 347
L 644 346
L 647 345
L 650 345
L 653 345
L 656 345
L 659 343
L 662 342
L 665 340
L 668 339
L 671 337
L 675 337
L 678 335
L 681 336
L 684 336
L 687 340
L 690 341
L 693 341
L 696 341
L 699 342
L 702 342
L 705 342
L 708 342
L 711 341
L 714 343
L 718 343
L 721 344
L 724 343
L 727 343
L 730 342
L 733 342
L 736 341
L 739 339
L 742 336
L 745 335
L 748 334
L 751 329
L 754 321
L 757 316
L 761 310
L 764 311
L 767 311
L 770 307
L 773 302
L 776 301
L 779 288
L 782 288
L 785 273
L 788 261
L 791 245
L 794 230
L 797 196
L 801 186
L 804 174
L 807 180
L 810 163
L 813 154
L 816 110
L 819 104
L 822 99
L 825 77
L 828 59
L 831 35
L 834 16
L 837 32
L 840 39
L 844 51
L 847 77
L 850 82
L 853 78
L 856 101
L 859 116
L 862 125
L 865 118
L 868 124
L 871 134
L 874 147
L 877 134
L 880 139
L 883 144
L 887 148
L 890 150
L 893 150
L 896 168
L 899 162
L 902 170
L 905 173
L 908 174
L 911 176
L 914 173
L 917 191
L 920 217
L 923 219
L 926 224
L 930 238
L 933 227
L 936 231
L 939 190
L 942 190
L 945 199
L 948 204
L 951 211
L 954 221
L 957 223
L 960 247
L 963 241
L 966 242
L 969 257" style="stroke-width:1;stroke:rgba(0,116,217,1.0);fill:none"/><path  d="M 38 351
L 42 351
L 45 351
L 48 351
L 51 351
L 54 351
L 57 351
L 60 351
L 63 351
L 66 351
L 69 349
L 72 350
L 75 349
L 78 351
L 82 349
L 85 349
L 88 349
L 91 349
L 94 346
L 97 349
L 100 349
L 103 348
L 106 341
L 109 346
L 112 343
L 115 350
L 118 348
L 121 337
L 125 348
L 128 333
L 131 345
L 134 345
L 137 345
L 140 344
L 143 343
L 146 345
L 149 346
L 152 347
L 155 341
L 158 348
L 161 349
L 164 344
L 168 347
L 171 347
L 174 349
L 177 348
L 180 349
L 183 351
L 186 349
L 189 350
L 192 349
L 195 349
L 198 348
L 201 350
L 204 349
L 207 349
L 211 351
L 214 349
L 217 350
L 220 350
L 223 351
L 226 350
L 229 351
L 232 351
L 235 349
L 238 351
L 241 351
L 244 351
L 247 350
L 251 349
L 254 351
L 257 350
L 260 350
L 263 351
L 266 351
L 269 351
L 272 351
L 275 351
L 278 351
L 281 350
L 284 351
L 287 351
L 290 351
L 294 351
L 297 351
L 300 351
L 303 351
L 306 351
L 309 351
L 312 351
L 315 351
L 318 351
L 321 351
L 324 351
L 327 351
L 330 351
L 333 351
L 337 351
L 340 351
L 343 351
L 346 351
L 349 351
L 352 351
L 355 351
L 358 351
L 361 351
L 364 351
L 367 351
L 370 351
L 373 351
L 376 351
L 380 351
L 383 351
L 386 351
L 389 351
L 392 351
L 395 351
L 398 351
L 401 351
L 404 351
L 407 351
L 410 351
L 413 351
L 416 351
L 420 351
L 423 351
L 426 351
L 429 351
L 432 350
L 435 351
L 438 351
L 441 351
L 444 351
L 447 351
L 450 351
L 453 350
L 456 351
L 459 351
L 463 351
L 466 351
L 469 351
L 472 351
L 475 351
L 478 351
L 481 351
L 484 351
L 487 350
L 490 351
L 493 351
L 496 351
L 499 351
L 502 351
L 506 351
L 509 351
L 512 351
L 515 351
L 518 351
L 521 351
L 524 351
L 527 351
L 530 351
L 533 351
L 536 351
L 539 351
L 542 351
L 545 351
L 549 351
L 552 351
L 555 351
L 558 351
L 561 351
L 564 351
L 567 351
L 570 350
L 573 351
L 576 350
L 579 351
L 582 350
L 585 348
L 588 350
L 592 351
L 595 349
L 598 350
L 601 350
L 604 351
L 607 351
L 610 351
L 613 351
L 616 351
L 619 351
L 622 349
L 625 350
L 628 350
L 632 350
L 635 350
L 638 351
L 641 351
L 644 348
L 647 349
L 650 350
L 653 349
L 656 350
L 659 349
L 662 349
L 665 347
L 668 348
L 671 348
L 675 349
L 678 348
L 681 350
L 684 349
L 687 351
L 690 349
L 693 348
L 696 349
L 699 349
L 702 350
L 705 349
L 708 351
L 711 348
L 714 350
L 718 350
L 721 349
L 724 349
L 727 349
L 730 349
L 733 348
L 736 349
L 739 348
L 742 347
L 745 348
L 748 348
L 751 344
L 754 341
L 757 345
L 761 343
L 764 348
L 767 348
L 770 344
L 773 340
L 776 340
L 779 333
L 782 342
L 785 334
L 788 338
L 791 330
L 794 326
L 797 310
L 801 324
L 804 331
L 807 340
L 810 323
L 813 322
L 816 286
L 819 304
L 822 320
L 825 311
L 828 324
L 831 301
L 834 304
L 837 301
L 840 310
L 844 331
L 847 335
L 850 328
L 853 298
L 856 325
L 859 315
L 862 318
L 865 324
L 868 340
L 871 337
L 874 310
L 877 313
L 880 320
L 883 322
L 887 328
L 890 342
L 893 337
L 896 326
L 899 308
L 902 326
L 905 325
L 908 329
L 911 344
L 914 334
L 917 343
L 920 331
L 923 329
L 926 330
L 930 341
L 933 334
L 936 338
L 939 305
L 942 331
L 945 337
L 948 334
L 951 347
L 954 343
L 957 340
L 960 327
L 963 326
L 966 337
L 969 348" style="stroke-width:1;stroke:rgba(0,217,101,1.0);fill:none"/><path  d="M 38 351
L 42 351
L 45 351
L 48 351
L 51 351
L 54 351
L 57 351
L 60 351
L 63 351
L 66 351
L 69 351
L 72 351
L 75 351
L 78 351
L 82 351
L 85 351
L 88 351
L 91 351
L 94 351
L 97 350
L 100 351
L 103 350
L 106 351
L 109 351
L 112 349
L 115 350
L 118 351
L 121 351
L 125 350
L 128 350
L 131 348
L 134 350
L 137 350
L 140 350
L 143 351
L 146 350
L 149 348
L 152 350
L 155 350
L 158 351
L 161 348
L 164 350
L 168 350
L 171 351
L 174 350
L 177 349
L 180 351
L 183 351
L 186 351
L 189 350
L 192 351
L 195 351
L 198 351
L 201 350
L 204 351
L 207 351
L 211 350
L 214 351
L 217 351
L 220 351
L 223 351
L 226 351
L 229 350
L 232 351
L 235 351
L 238 351
L 241 351
L 244 351
L 247 351
L 251 351
L 254 351
L 257 351
L 260 351
L 263 351
L 266 351
L 269 351
L 272 351
L 275 351
L 278 351
L 281 351
L 284 351
L 287 351
L 290 349
L 294 351
L 297 351
L 300 351
L 303 351
L 306 351
L 309 351
L 312 351
L 315 351
L 318 351
L 321 351
L 324 351
L 327 351
L 330 351
L 333 351
L 337 351
L 340 351
L 343 351
L 346 351
L 349 351
L 352 351
L 355 351
L 358 351
L 361 351
L 364 351
L 367 351
L 370 351
L 373 351
L 376 351
L 380 351
L 383 351
L 386 351
L 389 351
L 392 351
L 395 351
L 398 351
L 401 351
L 404 351
L 407 351
L 410 351
L 413 351
L 416 351
L 420 351
L 423 351
L 426 351
L 429 351
L 432 350
L 435 351
L 438 351
L 441 351
L 444 351
L 447 351
L 450 351
L 453 351
L 456 351
L 459 351
L 463 351
L 466 351
L 469 351
L 472 351
L 475 351
L 478 351
L 481 351
L 484 351
L 487 351
L 490 351
L 493 351
L 496 351
L 499 351
L 502 351
L 506 351
L 509 351
L 512 351
L 515 351
L 518 351
L 521 351
L 524 351
L 527 351
L 530 351
L 533 351
L 536 351
L 539 351
L 542 351
L 545 351
L 549 351
L 552 351
L 555 351
L 558 351
L 561 351
L 564 351
L 567 351
L 570 351
L 573 351
L 576 351
L 579 351
L 582 351
L 585 351
L 588 351
L 592 351
L 595 351
L 598 351
L 601 351
L 604 351
L 607 351
L 610 351
L 613 351
L 616 351
L 619 351
L 622 351
L 625 351
L 628 351
L 632 351
L 635 351
L 638 351
L 641 351
L 644 351
L 647 351
L 650 351
L 653 351
L 656 351
L 659 351
L 662 351
L 665 351
L 668 351
L 671 351
L 675 350
L 678 351
L 681 351
L 684 350
L 687 351
L 690 351
L 693 351
L 696 351
L 699 351
L 702 351
L 705 351
L 708 351
L 711 351
L 714 351
L 718 351
L 721 351
L 724 351
L 727 351
L 730 351
L 733 351
L 736 351
L 739 351
L 742 351
L 745 351
L 748 351
L 751 351
L 754 351
L 757 349
L 761 351
L 764 350
L 767 351
L 770 351
L 773 351
L 776 351
L 779 349
L 782 351
L 785 350
L 788 351
L 791 349
L 794 349
L 797 351
L 801 349
L 804 351
L 807 351
L 810 350
L 813 351
L 816 351
L 819 350
L 822 350
L 825 351
L 828 350
L 831 350
L 834 350
L 837 351
L 840 348
L 844 351
L 847 350
L 850 347
L 853 350
L 856 351
L 859 350
L 862 351
L 865 351
L 868 350
L 871 349
L 874 350
L 877 350
L 880 349
L 883 350
L 887 350
L 890 351
L 893 351
L 896 351
L 899 350
L 902 349
L 905 351
L 908 350
L 911 350
L 914 350
L 917 348
L 920 350
L 923 351
L 926 351
L 930 350
L 933 349
L 936 350
L 939 350
L 942 351
L 945 349
L 948 349
L 951 349
L 954 349
L 957 350
L 960 350
L 963 348
L 966 351
L 969 350" style="stroke-width:1;stroke:rgba(217,0,116,1.0);fill:none"/><text x="342" y="33" style="stroke-width:0;stroke:none;fill:rgba(51,51,51,1.0);font-size:23.0px;font-family:'Roboto Medium',sans-serif">Hartberg-Fürstenfeld 25.12.2020</text><path  d="M 38 11
L 251 11
L 251 91
L 38 91
L 38 11" style="stroke-width:1;stroke:rgba(51,51,51,1.0);fill:rgba(255,255,255,1.0)"/><text x="43" y="26" style="stroke-width:0;stroke:none;fill:rgba(51,51,51,1.0);font-size:10.2px;font-family:'Roboto Medium',sans-serif">Sieben Tage Durschnitt Inzidenz Fälle</text><path  d="M 221 21
L 241 21" style="stroke-width:1;stroke:rgba(0,116,217,1.0);fill:none"/><text x="43" y="56" style="stroke-width:0;stroke:none;fill:rgba(51,51,51,1.0);font-size:10.2px;font-family:'Roboto Medium',sans-serif">Anzahl Faelle</text><path  d="M 110 51
L 241 51" style="stroke-width:1;stroke:rgba(0,217,101,1.0);fill:none"/><text x="43" y="86" style="stroke-width:0;stroke:none;fill:rgba(51,51,51,1.0);font-size:10.2px;font-family:'Roboto Medium',sans-serif">Anzahl Tot</text><path  d="M 98 81
L 241 81" style="stroke-width:1;stroke:rgba(217,0,116,1.0);fill:none"/></svg>