<svg xmlns="http://www.w3.org/2000/svg" xmlns:xlink="http://www.w3.org/1999/xlink" width="1024" height="400">\n<path  d="M 0 0
L 1024 0
L 1024 400
L 0 400
L 0 0" style="stroke-width:0;stroke:rgba(255,255,255,1.0);fill:rgba(255,255,255,1.0)"/><path  d="M 38 11
L 961 11
L 961 351
L 38 351
L 38 11" style="stroke-width:0;stroke:rgba(255,255,255,1.0);fill:rgba(255,255,255,1.0)"/><path  d="M 38 351
L 961 351" style="stroke-width:1;stroke:rgba(51,51,51,1.0);fill:none"/><path  d="M 38 351
L 38 356" style="stroke-width:1;stroke:rgba(51,51,51,1.0);fill:none"/><text x="5" y="373" style="stroke-width:0;stroke:none;fill:rgba(51,51,51,1.0);font-size:12.8px;font-family:'Roboto Medium',sans-serif">2020-02-26</text><path  d="M 154 351
L 154 356" style="stroke-width:1;stroke:rgba(51,51,51,1.0);fill:none"/><text x="121" y="373" style="stroke-width:0;stroke:none;fill:rgba(51,51,51,1.0);font-size:12.8px;font-family:'Roboto Medium',sans-serif">2020-06-28</text><path  d="M 269 351
L 269 356" style="stroke-width:1;stroke:rgba(51,51,51,1.0);fill:none"/><text x="236" y="373" style="stroke-width:0;stroke:none;fill:rgba(51,51,51,1.0);font-size:12.8px;font-family:'Roboto Medium',sans-serif">2020-10-30</text><path  d="M 385 351
L 385 356" style="stroke-width:1;stroke:rgba(51,51,51,1.0);fill:none"/><text x="352" y="373" style="stroke-width:0;stroke:none;fill:rgba(51,51,51,1.0);font-size:12.8px;font-family:'Roboto Medium',sans-serif">2021-03-02</text><path  d="M 500 351
L 500 356" style="stroke-width:1;stroke:rgba(51,51,51,1.0);fill:none"/><text x="467" y="373" style="stroke-width:0;stroke:none;fill:rgba(51,51,51,1.0);font-size:12.8px;font-family:'Roboto Medium',sans-serif">2021-07-04</text><path  d="M 615 351
L 615 356" style="stroke-width:1;stroke:rgba(51,51,51,1.0);fill:none"/><text x="582" y="373" style="stroke-width:0;stroke:none;fill:rgba(51,51,51,1.0);font-size:12.8px;font-family:'Roboto Medium',sans-serif">2021-11-05</text><path  d="M 731 351
L 731 356" style="stroke-width:1;stroke:rgba(51,51,51,1.0);fill:none"/><text x="698" y="373" style="stroke-width:0;stroke:none;fill:rgba(51,51,51,1.0);font-size:12.8px;font-family:'Roboto Medium',sans-serif">2022-03-08</text><path  d="M 846 351
L 846 356" style="stroke-width:1;stroke:rgba(51,51,51,1.0);fill:none"/><text x="813" y="373" style="stroke-width:0;stroke:none;fill:rgba(51,51,51,1.0);font-size:12.8px;font-family:'Roboto Medium',sans-serif">2022-07-10</text><path  d="M 961 351
L 961 356" style="stroke-width:1;stroke:rgba(51,51,51,1.0);fill:none"/><text x="928" y="373" style="stroke-width:0;stroke:none;fill:rgba(51,51,51,1.0);font-size:12.8px;font-family:'Roboto Medium',sans-serif">2022-11-11</text><text x="481" y="395" style="stroke-width:0;stroke:none;fill:rgba(51,51,51,1.0);font-size:12.8px;font-family:'Roboto Medium',sans-serif">Datum</text><path  d="M 962 351
L 962 11" style="stroke-width:1;stroke:rgba(51,51,51,1.0);fill:none"/><path  d="M 962 351
L 967 351" style="stroke-width:1;stroke:rgba(51,51,51,1.0);fill:none"/><text x="972" y="357" style="stroke-width:0;stroke:none;fill:rgba(51,51,51,1.0);font-size:12.8px;font-family:'Roboto Medium',sans-serif">0.00</text><path  d="M 962 307
L 967 307" style="stroke-width:1;stroke:rgba(51,51,51,1.0);fill:none"/><text x="972" y="313" style="stroke-width:0;stroke:none;fill:rgba(51,51,51,1.0);font-size:12.8px;font-family:'Roboto Medium',sans-serif">520.00</text><path  d="M 962 265
L 967 265" style="stroke-width:1;stroke:rgba(51,51,51,1.0);fill:none"/><text x="972" y="271" style="stroke-width:0;stroke:none;fill:rgba(51,51,51,1.0);font-size:12.8px;font-family:'Roboto Medium',sans-serif">1030.00</text><path  d="M 962 223
L 967 223" style="stroke-width:1;stroke:rgba(51,51,51,1.0);fill:none"/><text x="972" y="229" style="stroke-width:0;stroke:none;fill:rgba(51,51,51,1.0);font-size:12.8px;font-family:'Roboto Medium',sans-serif">1540.00</text><path  d="M 962 181
L 967 181" style="stroke-width:1;stroke:rgba(51,51,51,1.0);fill:none"/><text x="972" y="187" style="stroke-width:0;stroke:none;fill:rgba(51,51,51,1.0);font-size:12.8px;font-family:'Roboto Medium',sans-serif">2050.00</text><path  d="M 962 137
L 967 137" style="stroke-width:1;stroke:rgba(51,51,51,1.0);fill:none"/><text x="972" y="143" style="stroke-width:0;stroke:none;fill:rgba(51,51,51,1.0);font-size:12.8px;font-family:'Roboto Medium',sans-serif">2570.00</text><path  d="M 962 95
L 967 95" style="stroke-width:1;stroke:rgba(51,51,51,1.0);fill:none"/><text x="972" y="101" style="stroke-width:0;stroke:none;fill:rgba(51,51,51,1.0);font-size:12.8px;font-family:'Roboto Medium',sans-serif">3080.00</text><path  d="M 962 53
L 967 53" style="stroke-width:1;stroke:rgba(51,51,51,1.0);fill:none"/><text x="972" y="59" style="stroke-width:0;stroke:none;fill:rgba(51,51,51,1.0);font-size:12.8px;font-family:'Roboto Medium',sans-serif">3590.00</text><path  d="M 962 11
L 967 11" style="stroke-width:1;stroke:rgba(51,51,51,1.0);fill:none"/><text x="972" y="17" style="stroke-width:0;stroke:none;fill:rgba(51,51,51,1.0);font-size:12.8px;font-family:'Roboto Medium',sans-serif">4100.00</text><path  d="M 38 351
L 39 351
L 40 351
L 41 351
L 42 351
L 43 351
L 44 351
L 45 351
L 46 351
L 47 351
L 48 350
L 49 350
L 50 350
L 51 350
L 52 350
L 52 350
L 53 349
L 54 349
L 55 349
L 56 349
L 57 349
L 58 349
L 59 349
L 60 350
L 61 350
L 62 351
L 63 350
L 64 348
L 65 347
L 66 344
L 66 343
L 67 342
L 68 341
L 69 341
L 70 342
L 71 341
L 72 344
L 73 344
L 74 343
L 75 344
L 76 345
L 77 345
L 78 345
L 79 345
L 80 346
L 80 347
L 81 347
L 82 347
L 83 348
L 84 349
L 85 349
L 86 349
L 87 349
L 88 349
L 89 349
L 90 349
L 91 349
L 92 349
L 93 349
L 94 350
L 94 350
L 95 350
L 96 350
L 97 350
L 98 350
L 99 350
L 100 350
L 101 350
L 102 350
L 103 350
L 104 350
L 105 350
L 106 350
L 107 350
L 108 350
L 108 350
L 109 350
L 110 350
L 111 350
L 112 350
L 113 350
L 114 350
L 115 350
L 116 350
L 117 350
L 118 350
L 119 351
L 120 351
L 121 351
L 122 351
L 122 351
L 123 351
L 124 351
L 125 351
L 126 351
L 127 351
L 128 351
L 129 351
L 130 351
L 131 351
L 132 351
L 133 351
L 134 351
L 135 351
L 136 351
L 136 351
L 137 351
L 138 351
L 139 351
L 140 351
L 141 351
L 142 351
L 143 351
L 144 351
L 145 351
L 146 351
L 147 351
L 148 351
L 149 351
L 150 351
L 150 351
L 151 351
L 152 351
L 153 351
L 154 351
L 155 351
L 156 351
L 157 351
L 158 350
L 159 350
L 160 350
L 161 350
L 162 350
L 163 350
L 164 350
L 164 350
L 165 350
L 166 350
L 167 350
L 168 350
L 169 350
L 170 350
L 171 351
L 172 351
L 173 351
L 174 351
L 175 350
L 176 350
L 177 350
L 178 350
L 178 350
L 179 350
L 180 350
L 181 351
L 182 351
L 183 351
L 184 351
L 185 351
L 186 351
L 187 351
L 188 351
L 189 351
L 190 351
L 191 351
L 192 351
L 192 351
L 193 351
L 194 351
L 195 351
L 196 351
L 197 351
L 198 351
L 199 351
L 200 350
L 201 350
L 202 350
L 203 350
L 204 350
L 205 350
L 206 350
L 206 350
L 207 350
L 208 350
L 209 349
L 210 350
L 211 350
L 212 350
L 213 350
L 214 350
L 215 350
L 216 350
L 217 350
L 218 350
L 219 350
L 220 350
L 220 350
L 221 350
L 222 350
L 223 350
L 224 350
L 225 350
L 226 350
L 227 349
L 228 349
L 229 349
L 230 349
L 231 348
L 232 348
L 233 348
L 234 348
L 234 348
L 235 349
L 236 349
L 237 349
L 238 349
L 239 349
L 240 349
L 241 349
L 242 349
L 243 349
L 244 349
L 245 349
L 246 349
L 247 349
L 248 349
L 248 349
L 249 349
L 250 349
L 251 349
L 252 348
L 253 348
L 254 348
L 255 347
L 256 346
L 257 345
L 258 344
L 259 344
L 260 344
L 261 343
L 262 343
L 262 342
L 263 340
L 264 340
L 265 338
L 266 336
L 267 333
L 268 331
L 269 325
L 270 324
L 271 322
L 272 323
L 273 320
L 274 319
L 275 311
L 276 310
L 276 309
L 277 305
L 278 303
L 279 299
L 280 296
L 281 298
L 282 300
L 283 302
L 284 306
L 285 307
L 286 306
L 287 310
L 288 312
L 289 314
L 290 313
L 290 314
L 291 315
L 292 318
L 293 315
L 294 316
L 295 317
L 296 317
L 297 318
L 298 318
L 299 320
L 300 320
L 301 321
L 302 322
L 303 322
L 304 322
L 304 322
L 305 325
L 306 329
L 307 329
L 308 330
L 309 332
L 310 330
L 311 331
L 312 325
L 313 325
L 314 326
L 315 327
L 316 328
L 317 330
L 318 330
L 318 335
L 319 334
L 320 334
L 321 337
L 322 337
L 323 336
L 324 336
L 325 336
L 326 337
L 327 338
L 328 338
L 329 337
L 330 337
L 331 336
L 332 335
L 332 337
L 333 336
L 334 334
L 335 334
L 336 335
L 337 336
L 338 339
L 339 339
L 340 341
L 341 341
L 342 342
L 343 343
L 344 343
L 345 342
L 346 343
L 346 342
L 347 342
L 348 342
L 349 342
L 350 342
L 351 342
L 352 341
L 353 341
L 354 341
L 355 340
L 356 340
L 357 340
L 358 339
L 359 338
L 360 338
L 360 338
L 361 338
L 362 336
L 363 334
L 364 334
L 365 332
L 366 331
L 367 330
L 368 328
L 369 328
L 370 328
L 371 329
L 372 331
L 373 329
L 374 328
L 374 330
L 375 330
L 376 330
L 377 330
L 378 326
L 379 329
L 380 331
L 381 326
L 382 327
L 383 325
L 384 324
L 385 328
L 386 328
L 387 326
L 388 330
L 388 329
L 389 328
L 390 330
L 391 331
L 392 330
L 393 330
L 394 329
L 395 330
L 396 332
L 397 333
L 398 329
L 399 328
L 400 330
L 401 329
L 402 328
L 402 328
L 403 324
L 404 323
L 405 324
L 406 326
L 407 328
L 408 326
L 409 326
L 410 329
L 411 333
L 412 332
L 413 330
L 414 327
L 415 330
L 416 329
L 416 330
L 417 329
L 418 332
L 419 330
L 420 334
L 421 335
L 422 335
L 423 334
L 424 334
L 425 333
L 426 335
L 427 334
L 428 333
L 429 334
L 430 335
L 430 335
L 431 335
L 432 335
L 433 335
L 434 336
L 435 336
L 436 336
L 437 335
L 438 334
L 439 334
L 440 336
L 441 335
L 442 335
L 443 336
L 444 337
L 444 338
L 445 339
L 446 338
L 447 339
L 448 340
L 449 341
L 450 343
L 451 344
L 452 344
L 453 345
L 454 345
L 455 345
L 456 345
L 457 344
L 458 344
L 458 344
L 459 343
L 460 343
L 461 343
L 462 344
L 463 344
L 464 344
L 465 345
L 466 345
L 467 345
L 468 346
L 469 346
L 470 347
L 471 347
L 472 348
L 472 349
L 473 349
L 474 349
L 475 349
L 476 349
L 477 349
L 478 349
L 479 349
L 480 350
L 481 350
L 482 350
L 483 350
L 484 350
L 485 350
L 486 350
L 486 350
L 487 350
L 488 350
L 489 350
L 490 350
L 491 350
L 492 350
L 493 350
L 494 350
L 495 350
L 496 350
L 497 350
L 498 350
L 499 350
L 500 351
L 500 351
L 501 351
L 502 351
L 503 351
L 504 351
L 505 351
L 506 350
L 507 350
L 508 350
L 509 350
L 510 350
L 511 350
L 512 350
L 513 350
L 514 350
L 514 350
L 515 350
L 516 350
L 517 350
L 518 350
L 519 350
L 520 350
L 521 349
L 522 350
L 523 349
L 524 349
L 525 349
L 526 349
L 527 348
L 528 348
L 528 348
L 529 348
L 530 348
L 531 348
L 532 348
L 533 348
L 534 348
L 535 347
L 536 347
L 537 347
L 538 347
L 539 348
L 540 348
L 541 348
L 542 349
L 542 349
L 543 348
L 544 348
L 545 348
L 546 348
L 547 348
L 548 347
L 549 346
L 550 346
L 551 345
L 552 345
L 553 344
L 554 344
L 555 344
L 556 345
L 556 346
L 557 345
L 558 346
L 559 345
L 560 346
L 561 345
L 562 345
L 563 344
L 564 344
L 565 344
L 566 344
L 567 343
L 568 344
L 569 344
L 570 343
L 570 343
L 571 343
L 572 344
L 573 344
L 574 343
L 575 343
L 576 343
L 577 345
L 578 344
L 579 344
L 580 344
L 581 344
L 582 344
L 583 344
L 584 343
L 584 343
L 585 343
L 586 341
L 587 342
L 588 341
L 589 340
L 590 340
L 591 340
L 592 340
L 593 341
L 594 340
L 595 340
L 596 339
L 597 338
L 598 337
L 598 336
L 599 336
L 600 333
L 601 331
L 602 331
L 603 330
L 604 327
L 605 327
L 606 325
L 607 327
L 608 327
L 609 324
L 610 323
L 611 321
L 612 322
L 612 317
L 613 313
L 614 308
L 615 303
L 616 303
L 617 299
L 618 296
L 619 294
L 620 292
L 621 292
L 622 294
L 623 293
L 624 299
L 625 297
L 626 297
L 626 300
L 627 298
L 628 295
L 629 289
L 630 286
L 631 287
L 632 287
L 633 278
L 634 280
L 635 277
L 636 281
L 637 279
L 638 273
L 639 272
L 640 281
L 640 281
L 641 290
L 642 293
L 643 298
L 644 305
L 645 312
L 646 314
L 647 318
L 648 320
L 649 322
L 650 324
L 651 326
L 652 326
L 653 328
L 654 331
L 654 333
L 655 336
L 656 336
L 657 338
L 658 339
L 659 340
L 660 340
L 661 340
L 662 339
L 663 339
L 664 339
L 665 340
L 666 339
L 667 340
L 668 340
L 668 341
L 669 341
L 670 341
L 671 339
L 672 339
L 673 338
L 674 337
L 675 334
L 676 332
L 677 330
L 678 328
L 679 322
L 680 318
L 681 313
L 682 313
L 682 310
L 683 307
L 684 300
L 685 294
L 686 281
L 687 269
L 688 256
L 689 241
L 690 231
L 691 212
L 692 195
L 693 175
L 694 152
L 695 132
L 696 129
L 696 121
L 697 102
L 698 94
L 699 87
L 700 91
L 701 92
L 702 88
L 703 86
L 704 95
L 705 92
L 706 104
L 707 105
L 708 111
L 709 109
L 710 113
L 710 107
L 711 116
L 712 116
L 713 125
L 714 127
L 715 140
L 716 139
L 717 150
L 718 153
L 719 155
L 720 155
L 721 154
L 722 149
L 723 145
L 724 142
L 724 130
L 725 131
L 726 123
L 727 120
L 728 111
L 729 113
L 730 95
L 731 76
L 732 56
L 733 48
L 734 41
L 735 25
L 736 24
L 737 11
L 738 14
L 738 17
L 739 19
L 740 18
L 741 35
L 742 33
L 743 62
L 744 76
L 745 96
L 746 112
L 747 134
L 748 143
L 749 157
L 750 171
L 751 193
L 752 212
L 752 227
L 753 236
L 754 250
L 755 255
L 756 269
L 757 281
L 758 283
L 759 289
L 760 290
L 761 295
L 762 300
L 763 305
L 764 310
L 765 313
L 766 316
L 766 317
L 767 317
L 768 318
L 769 323
L 770 322
L 771 322
L 772 321
L 773 323
L 774 324
L 775 325
L 776 322
L 777 325
L 778 327
L 779 330
L 780 331
L 780 332
L 781 332
L 782 334
L 783 335
L 784 336
L 785 337
L 786 337
L 787 337
L 788 337
L 789 337
L 790 337
L 791 337
L 792 336
L 793 337
L 794 337
L 794 338
L 795 338
L 796 340
L 797 341
L 798 342
L 799 342
L 800 343
L 801 342
L 802 343
L 803 343
L 804 343
L 805 344
L 806 343
L 807 343
L 808 343
L 808 343
L 809 342
L 810 342
L 811 341
L 812 342
L 813 342
L 814 342
L 815 342
L 816 342
L 817 341
L 818 341
L 819 341
L 820 340
L 821 340
L 822 338
L 822 338
L 823 338
L 824 338
L 825 335
L 826 335
L 827 333
L 828 328
L 829 325
L 830 322
L 831 319
L 832 318
L 833 317
L 834 316
L 835 316
L 836 316
L 836 313
L 837 311
L 838 310
L 839 310
L 840 309
L 841 308
L 842 305
L 843 305
L 844 304
L 845 301
L 846 301
L 847 298
L 848 296
L 849 296
L 850 292
L 850 294
L 851 294
L 852 293
L 853 296
L 854 293
L 855 292
L 856 294
L 857 291
L 858 292
L 859 296
L 860 294
L 861 297
L 862 301
L 863 303
L 864 307
L 864 309
L 865 309
L 866 313
L 867 319
L 868 319
L 869 323
L 870 323
L 871 325
L 872 324
L 873 323
L 874 323
L 875 324
L 876 325
L 877 326
L 878 327
L 878 327
L 879 328
L 880 331
L 881 329
L 882 326
L 883 326
L 884 323
L 885 322
L 886 322
L 887 321
L 888 323
L 889 325
L 890 327
L 891 329
L 892 330
L 892 330
L 893 330
L 894 330
L 895 331
L 896 330
L 897 330
L 898 331
L 899 331
L 900 331
L 901 330
L 902 331
L 903 330
L 904 331
L 905 329
L 906 330
L 906 328
L 907 330
L 908 330
L 909 331
L 910 329
L 911 330
L 912 329
L 913 329
L 914 326
L 915 323
L 916 321
L 917 320
L 918 319
L 919 318
L 920 311
L 920 308
L 921 302
L 922 296
L 923 291
L 924 288
L 925 284
L 926 281
L 927 275
L 928 273
L 929 275
L 930 273
L 931 272
L 932 272
L 933 271
L 934 273
L 934 272
L 935 271
L 936 273
L 937 275
L 938 278
L 939 280
L 940 284
L 941 287
L 942 291
L 943 294
L 944 297
L 945 298
L 946 303
L 947 306
L 948 315
L 948 317
L 949 318
L 950 318
L 951 321
L 952 325
L 953 329
L 954 327
L 955 327
L 956 330
L 957 330
L 958 329
L 959 328
L 960 327
L 961 328
L 961 330" style="stroke-width:1;stroke:rgba(0,116,217,1.0);fill:none"/><path  d="M 38 351
L 39 351
L 40 351
L 41 351
L 42 351
L 43 351
L 44 351
L 45 351
L 46 351
L 47 351
L 48 350
L 49 350
L 50 350
L 51 351
L 52 350
L 52 350
L 53 350
L 54 350
L 55 350
L 56 351
L 57 351
L 58 351
L 59 351
L 60 351
L 61 351
L 62 351
L 63 350
L 64 348
L 65 350
L 66 348
L 66 350
L 67 350
L 68 350
L 69 349
L 70 349
L 71 350
L 72 350
L 73 350
L 74 349
L 75 350
L 76 350
L 77 349
L 78 350
L 79 350
L 80 350
L 80 350
L 81 350
L 82 351
L 83 350
L 84 350
L 85 350
L 86 350
L 87 350
L 88 350
L 89 350
L 90 350
L 91 351
L 92 350
L 93 350
L 94 350
L 94 351
L 95 350
L 96 351
L 97 351
L 98 350
L 99 351
L 100 351
L 101 351
L 102 350
L 103 350
L 104 351
L 105 350
L 106 350
L 107 351
L 108 351
L 108 351
L 109 351
L 110 351
L 111 351
L 112 350
L 113 351
L 114 351
L 115 351
L 116 351
L 117 351
L 118 351
L 119 351
L 120 351
L 121 351
L 122 351
L 122 351
L 123 351
L 124 351
L 125 351
L 126 351
L 127 351
L 128 351
L 129 351
L 130 351
L 131 351
L 132 351
L 133 351
L 134 351
L 135 351
L 136 351
L 136 351
L 137 351
L 138 351
L 139 351
L 140 351
L 141 351
L 142 351
L 143 351
L 144 351
L 145 351
L 146 351
L 147 351
L 148 351
L 149 351
L 150 351
L 150 351
L 151 351
L 152 351
L 153 351
L 154 351
L 155 351
L 156 351
L 157 351
L 158 350
L 159 351
L 160 351
L 161 351
L 162 351
L 163 351
L 164 351
L 164 350
L 165 351
L 166 351
L 167 351
L 168 351
L 169 351
L 170 351
L 171 351
L 172 351
L 173 351
L 174 351
L 175 350
L 176 351
L 177 351
L 178 351
L 178 351
L 179 351
L 180 351
L 181 351
L 182 351
L 183 351
L 184 351
L 185 351
L 186 351
L 187 351
L 188 351
L 189 351
L 190 351
L 191 351
L 192 351
L 192 351
L 193 351
L 194 351
L 195 351
L 196 351
L 197 351
L 198 351
L 199 351
L 200 350
L 201 351
L 202 350
L 203 351
L 204 350
L 205 350
L 206 350
L 206 351
L 207 350
L 208 350
L 209 350
L 210 351
L 211 351
L 212 351
L 213 351
L 214 351
L 215 351
L 216 350
L 217 350
L 218 350
L 219 350
L 220 350
L 220 351
L 221 351
L 222 350
L 223 350
L 224 350
L 225 350
L 226 350
L 227 350
L 228 350
L 229 350
L 230 350
L 231 350
L 232 350
L 233 350
L 234 350
L 234 350
L 235 351
L 236 350
L 237 350
L 238 350
L 239 350
L 240 350
L 241 350
L 242 351
L 243 350
L 244 350
L 245 350
L 246 350
L 247 350
L 248 350
L 248 350
L 249 350
L 250 350
L 251 350
L 252 350
L 253 350
L 254 350
L 255 350
L 256 349
L 257 350
L 258 349
L 259 350
L 260 350
L 261 350
L 262 349
L 262 349
L 263 348
L 264 349
L 265 348
L 266 348
L 267 347
L 268 346
L 269 344
L 270 346
L 271 347
L 272 349
L 273 346
L 274 346
L 275 340
L 276 342
L 276 345
L 277 344
L 278 346
L 279 343
L 280 343
L 281 342
L 282 344
L 283 347
L 284 348
L 285 347
L 286 342
L 287 346
L 288 345
L 289 345
L 290 346
L 290 349
L 291 348
L 292 344
L 293 344
L 294 345
L 295 346
L 296 347
L 297 349
L 298 348
L 299 347
L 300 344
L 301 347
L 302 346
L 303 347
L 304 350
L 304 348
L 305 349
L 306 347
L 307 347
L 308 347
L 309 349
L 310 348
L 311 349
L 312 343
L 313 348
L 314 348
L 315 348
L 316 350
L 317 349
L 318 349
L 318 347
L 319 347
L 320 349
L 321 350
L 322 350
L 323 349
L 324 349
L 325 347
L 326 348
L 327 349
L 328 350
L 329 349
L 330 349
L 331 348
L 332 347
L 332 349
L 333 348
L 334 349
L 335 349
L 336 350
L 337 349
L 338 349
L 339 349
L 340 350
L 341 350
L 342 350
L 343 350
L 344 349
L 345 349
L 346 350
L 346 349
L 347 350
L 348 350
L 349 350
L 350 349
L 351 349
L 352 349
L 353 349
L 354 349
L 355 349
L 356 350
L 357 349
L 358 348
L 359 348
L 360 349
L 360 349
L 361 350
L 362 348
L 363 347
L 364 348
L 365 346
L 366 348
L 367 348
L 368 348
L 369 348
L 370 348
L 371 349
L 372 348
L 373 346
L 374 346
L 374 349
L 375 348
L 376 348
L 377 349
L 378 344
L 379 349
L 380 347
L 381 345
L 382 349
L 383 347
L 384 347
L 385 348
L 386 350
L 387 345
L 388 349
L 388 348
L 389 347
L 390 349
L 391 349
L 392 348
L 393 346
L 394 348
L 395 349
L 396 348
L 397 349
L 398 346
L 399 347
L 400 348
L 401 347
L 402 348
L 402 348
L 403 345
L 404 345
L 405 348
L 406 349
L 407 349
L 408 346
L 409 348
L 410 348
L 411 349
L 412 347
L 413 348
L 414 345
L 415 349
L 416 348
L 416 349
L 417 348
L 418 350
L 419 346
L 420 349
L 421 350
L 422 348
L 423 348
L 424 348
L 425 349
L 426 349
L 427 348
L 428 349
L 429 348
L 430 349
L 430 348
L 431 348
L 432 349
L 433 348
L 434 349
L 435 348
L 436 349
L 437 348
L 438 347
L 439 349
L 440 350
L 441 349
L 442 348
L 443 349
L 444 348
L 444 348
L 445 350
L 446 349
L 447 350
L 448 350
L 449 350
L 450 350
L 451 350
L 452 350
L 453 350
L 454 350
L 455 350
L 456 350
L 457 349
L 458 350
L 458 349
L 459 349
L 460 350
L 461 349
L 462 350
L 463 350
L 464 350
L 465 350
L 466 350
L 467 350
L 468 350
L 469 350
L 470 350
L 471 350
L 472 350
L 472 350
L 473 350
L 474 350
L 475 350
L 476 350
L 477 351
L 478 350
L 479 351
L 480 351
L 481 351
L 482 350
L 483 350
L 484 350
L 485 351
L 486 351
L 486 350
L 487 351
L 488 350
L 489 351
L 490 351
L 491 350
L 492 351
L 493 350
L 494 351
L 495 351
L 496 351
L 497 351
L 498 351
L 499 351
L 500 351
L 500 351
L 501 351
L 502 351
L 503 351
L 504 351
L 505 351
L 506 350
L 507 351
L 508 350
L 509 351
L 510 350
L 511 351
L 512 350
L 513 351
L 514 351
L 514 351
L 515 350
L 516 350
L 517 350
L 518 350
L 519 351
L 520 350
L 521 350
L 522 351
L 523 350
L 524 350
L 525 350
L 526 350
L 527 350
L 528 350
L 528 350
L 529 350
L 530 350
L 531 350
L 532 350
L 533 350
L 534 350
L 535 349
L 536 350
L 537 350
L 538 350
L 539 350
L 540 350
L 541 350
L 542 350
L 542 350
L 543 350
L 544 350
L 545 350
L 546 350
L 547 350
L 548 350
L 549 350
L 550 350
L 551 350
L 552 350
L 553 350
L 554 349
L 555 350
L 556 350
L 556 350
L 557 350
L 558 350
L 559 350
L 560 350
L 561 349
L 562 350
L 563 350
L 564 350
L 565 350
L 566 349
L 567 349
L 568 350
L 569 350
L 570 349
L 570 349
L 571 350
L 572 350
L 573 350
L 574 349
L 575 350
L 576 349
L 577 350
L 578 350
L 579 350
L 580 349
L 581 349
L 582 349
L 583 350
L 584 349
L 584 350
L 585 350
L 586 348
L 587 350
L 588 349
L 589 349
L 590 349
L 591 350
L 592 350
L 593 349
L 594 348
L 595 349
L 596 348
L 597 348
L 598 349
L 598 349
L 599 349
L 600 346
L 601 347
L 602 348
L 603 347
L 604 346
L 605 349
L 606 347
L 607 348
L 608 347
L 609 346
L 610 346
L 611 344
L 612 349
L 612 343
L 613 344
L 614 342
L 615 342
L 616 346
L 617 341
L 618 346
L 619 341
L 620 342
L 621 342
L 622 344
L 623 344
L 624 347
L 625 345
L 626 341
L 626 345
L 627 340
L 628 341
L 629 339
L 630 344
L 631 345
L 632 342
L 633 337
L 634 342
L 635 338
L 636 342
L 637 342
L 638 340
L 639 341
L 640 345
L 640 342
L 641 347
L 642 344
L 643 347
L 644 347
L 645 347
L 646 347
L 647 346
L 648 348
L 649 347
L 650 348
L 651 348
L 652 347
L 653 349
L 654 349
L 654 349
L 655 350
L 656 349
L 657 350
L 658 348
L 659 349
L 660 349
L 661 349
L 662 349
L 663 350
L 664 349
L 665 349
L 666 348
L 667 350
L 668 349
L 668 349
L 669 350
L 670 349
L 671 347
L 672 349
L 673 349
L 674 348
L 675 347
L 676 348
L 677 347
L 678 346
L 679 343
L 680 345
L 681 344
L 682 347
L 682 345
L 683 345
L 684 339
L 685 337
L 686 334
L 687 333
L 688 335
L 689 331
L 690 336
L 691 322
L 692 322
L 693 315
L 694 312
L 695 317
L 696 328
L 696 329
L 697 305
L 698 314
L 699 309
L 700 315
L 701 318
L 702 324
L 703 328
L 704 313
L 705 311
L 706 320
L 707 316
L 708 324
L 709 322
L 710 331
L 710 308
L 711 320
L 712 320
L 713 324
L 714 326
L 715 333
L 716 330
L 717 318
L 718 323
L 719 321
L 720 324
L 721 325
L 722 329
L 723 326
L 724 316
L 724 312
L 725 321
L 726 316
L 727 323
L 728 320
L 729 329
L 730 299
L 731 295
L 732 302
L 733 309
L 734 317
L 735 307
L 736 327
L 737 287
L 738 298
L 738 305
L 739 310
L 740 316
L 741 323
L 742 325
L 743 314
L 744 311
L 745 323
L 746 325
L 747 335
L 748 331
L 749 338
L 750 326
L 751 331
L 752 341
L 752 339
L 753 344
L 754 344
L 755 342
L 756 339
L 757 342
L 758 343
L 759 344
L 760 344
L 761 348
L 762 347
L 763 344
L 764 346
L 765 346
L 766 347
L 766 346
L 767 347
L 768 348
L 769 349
L 770 345
L 771 346
L 772 346
L 773 347
L 774 349
L 775 349
L 776 346
L 777 348
L 778 347
L 779 349
L 780 349
L 780 350
L 781 349
L 782 348
L 783 349
L 784 348
L 785 349
L 786 349
L 787 350
L 788 349
L 789 348
L 790 348
L 791 349
L 792 348
L 793 349
L 794 350
L 794 350
L 795 349
L 796 349
L 797 350
L 798 349
L 799 350
L 800 350
L 801 350
L 802 350
L 803 350
L 804 349
L 805 350
L 806 348
L 807 350
L 808 350
L 808 349
L 809 349
L 810 349
L 811 349
L 812 349
L 813 350
L 814 350
L 815 350
L 816 349
L 817 349
L 818 349
L 819 350
L 820 349
L 821 350
L 822 348
L 822 349
L 823 348
L 824 349
L 825 347
L 826 349
L 827 348
L 828 343
L 829 345
L 830 346
L 831 346
L 832 346
L 833 348
L 834 347
L 835 344
L 836 345
L 836 343
L 837 344
L 838 346
L 839 347
L 840 347
L 841 342
L 842 343
L 843 344
L 844 343
L 845 343
L 846 347
L 847 344
L 848 340
L 849 343
L 850 340
L 850 344
L 851 343
L 852 346
L 853 347
L 854 338
L 855 342
L 856 342
L 857 342
L 858 345
L 859 349
L 860 345
L 861 341
L 862 346
L 863 344
L 864 345
L 864 346
L 865 349
L 866 349
L 867 346
L 868 346
L 869 347
L 870 346
L 871 347
L 872 348
L 873 348
L 874 346
L 875 347
L 876 347
L 877 348
L 878 348
L 878 349
L 879 349
L 880 348
L 881 345
L 882 345
L 883 347
L 884 345
L 885 348
L 886 349
L 887 347
L 888 348
L 889 347
L 890 349
L 891 347
L 892 349
L 892 348
L 893 347
L 894 347
L 895 348
L 896 349
L 897 347
L 898 349
L 899 349
L 900 347
L 901 347
L 902 348
L 903 348
L 904 348
L 905 347
L 906 349
L 906 345
L 907 349
L 908 348
L 909 349
L 910 346
L 911 349
L 912 348
L 913 346
L 914 345
L 915 346
L 916 346
L 917 345
L 918 349
L 919 346
L 920 339
L 920 343
L 921 340
L 922 341
L 923 341
L 924 345
L 925 343
L 926 337
L 927 338
L 928 338
L 929 342
L 930 339
L 931 345
L 932 343
L 933 336
L 934 339
L 934 338
L 935 341
L 936 341
L 937 346
L 938 346
L 939 338
L 940 343
L 941 340
L 942 345
L 943 344
L 944 349
L 945 347
L 946 343
L 947 345
L 948 348
L 948 346
L 949 345
L 950 349
L 951 349
L 952 347
L 953 349
L 954 346
L 955 347
L 956 348
L 957 349
L 958 348
L 959 346
L 960 348
L 961 347
L 961 349" style="stroke-width:1;stroke:rgba(0,217,101,1.0);fill:none"/><path  d="M 38 351
L 39 351
L 40 351
L 41 351
L 42 351
L 43 351
L 44 351
L 45 351
L 46 351
L 47 351
L 48 351
L 49 351
L 50 351
L 51 351
L 52 351
L 52 351
L 53 351
L 54 351
L 55 351
L 56 350
L 57 351
L 58 351
L 59 351
L 60 351
L 61 351
L 62 351
L 63 351
L 64 351
L 65 351
L 66 350
L 66 350
L 67 351
L 68 351
L 69 350
L 70 351
L 71 350
L 72 350
L 73 351
L 74 350
L 75 351
L 76 350
L 77 351
L 78 350
L 79 351
L 80 351
L 80 350
L 81 351
L 82 351
L 83 351
L 84 350
L 85 351
L 86 351
L 87 351
L 88 350
L 89 351
L 90 351
L 91 350
L 92 351
L 93 351
L 94 351
L 94 351
L 95 351
L 96 350
L 97 351
L 98 350
L 99 351
L 100 351
L 101 351
L 102 351
L 103 351
L 104 351
L 105 351
L 106 351
L 107 350
L 108 350
L 108 351
L 109 351
L 110 351
L 111 351
L 112 351
L 113 351
L 114 351
L 115 350
L 116 351
L 117 351
L 118 351
L 119 351
L 120 351
L 121 351
L 122 351
L 122 351
L 123 351
L 124 351
L 125 351
L 126 351
L 127 351
L 128 351
L 129 351
L 130 351
L 131 351
L 132 351
L 133 351
L 134 351
L 135 351
L 136 351
L 136 351
L 137 351
L 138 351
L 139 351
L 140 351
L 141 351
L 142 351
L 143 351
L 144 351
L 145 351
L 146 351
L 147 351
L 148 350
L 149 351
L 150 351
L 150 351
L 151 351
L 152 351
L 153 351
L 154 351
L 155 351
L 156 351
L 157 351
L 158 350
L 159 351
L 160 351
L 161 351
L 162 351
L 163 351
L 164 351
L 164 351
L 165 351
L 166 351
L 167 351
L 168 351
L 169 351
L 170 351
L 171 351
L 172 351
L 173 351
L 174 351
L 175 351
L 176 351
L 177 351
L 178 351
L 178 351
L 179 351
L 180 351
L 181 351
L 182 351
L 183 351
L 184 350
L 185 351
L 186 351
L 187 351
L 188 351
L 189 351
L 190 351
L 191 351
L 192 351
L 192 351
L 193 351
L 194 351
L 195 351
L 196 351
L 197 351
L 198 351
L 199 351
L 200 351
L 201 351
L 202 351
L 203 350
L 204 351
L 205 350
L 206 351
L 206 350
L 207 351
L 208 351
L 209 351
L 210 351
L 211 351
L 212 351
L 213 351
L 214 351
L 215 350
L 216 350
L 217 351
L 218 351
L 219 351
L 220 351
L 220 351
L 221 351
L 222 351
L 223 351
L 224 351
L 225 351
L 226 351
L 227 351
L 228 351
L 229 351
L 230 351
L 231 350
L 232 350
L 233 351
L 234 351
L 234 350
L 235 351
L 236 351
L 237 351
L 238 351
L 239 351
L 240 351
L 241 351
L 242 351
L 243 351
L 244 351
L 245 351
L 246 351
L 247 351
L 248 351
L 248 351
L 249 351
L 250 351
L 251 351
L 252 351
L 253 351
L 254 351
L 255 351
L 256 351
L 257 350
L 258 351
L 259 350
L 260 351
L 261 351
L 262 351
L 262 351
L 263 350
L 264 351
L 265 350
L 266 350
L 267 350
L 268 350
L 269 351
L 270 350
L 271 351
L 272 351
L 273 350
L 274 351
L 275 351
L 276 350
L 276 350
L 277 351
L 278 350
L 279 350
L 280 350
L 281 350
L 282 350
L 283 351
L 284 350
L 285 350
L 286 350
L 287 351
L 288 350
L 289 350
L 290 351
L 290 350
L 291 350
L 292 350
L 293 350
L 294 350
L 295 350
L 296 350
L 297 350
L 298 351
L 299 351
L 300 350
L 301 350
L 302 350
L 303 350
L 304 350
L 304 350
L 305 350
L 306 350
L 307 350
L 308 350
L 309 350
L 310 350
L 311 350
L 312 350
L 313 350
L 314 350
L 315 350
L 316 350
L 317 350
L 318 350
L 318 350
L 319 350
L 320 350
L 321 350
L 322 350
L 323 350
L 324 350
L 325 350
L 326 351
L 327 351
L 328 351
L 329 351
L 330 351
L 331 350
L 332 350
L 332 350
L 333 351
L 334 351
L 335 351
L 336 351
L 337 350
L 338 350
L 339 350
L 340 351
L 341 351
L 342 351
L 343 350
L 344 350
L 345 350
L 346 350
L 346 350
L 347 351
L 348 350
L 349 350
L 350 350
L 351 350
L 352 350
L 353 350
L 354 351
L 355 351
L 356 351
L 357 351
L 358 351
L 359 351
L 360 351
L 360 351
L 361 351
L 362 351
L 363 351
L 364 350
L 365 351
L 366 351
L 367 351
L 368 351
L 369 350
L 370 350
L 371 350
L 372 351
L 373 351
L 374 350
L 374 350
L 375 351
L 376 351
L 377 350
L 378 350
L 379 351
L 380 351
L 381 351
L 382 351
L 383 350
L 384 351
L 385 351
L 386 350
L 387 350
L 388 351
L 388 351
L 389 351
L 390 351
L 391 350
L 392 351
L 393 351
L 394 350
L 395 350
L 396 351
L 397 351
L 398 351
L 399 350
L 400 350
L 401 351
L 402 350
L 402 350
L 403 351
L 404 351
L 405 350
L 406 351
L 407 351
L 408 351
L 409 350
L 410 351
L 411 350
L 412 351
L 413 350
L 414 351
L 415 351
L 416 351
L 416 351
L 417 351
L 418 351
L 419 351
L 420 350
L 421 351
L 422 351
L 423 350
L 424 351
L 425 351
L 426 351
L 427 350
L 428 351
L 429 350
L 430 350
L 430 351
L 431 350
L 432 351
L 433 351
L 434 351
L 435 351
L 436 351
L 437 351
L 438 350
L 439 350
L 440 351
L 441 350
L 442 351
L 443 351
L 444 351
L 444 351
L 445 351
L 446 351
L 447 351
L 448 351
L 449 350
L 450 351
L 451 351
L 452 350
L 453 351
L 454 351
L 455 351
L 456 351
L 457 351
L 458 351
L 458 351
L 459 351
L 460 351
L 461 351
L 462 351
L 463 351
L 464 351
L 465 351
L 466 351
L 467 351
L 468 351
L 469 351
L 470 351
L 471 350
L 472 351
L 472 351
L 473 351
L 474 351
L 475 351
L 476 351
L 477 351
L 478 351
L 479 351
L 480 351
L 481 351
L 482 351
L 483 351
L 484 351
L 485 351
L 486 351
L 486 350
L 487 351
L 488 351
L 489 351
L 490 351
L 491 351
L 492 351
L 493 351
L 494 351
L 495 351
L 496 351
L 497 351
L 498 351
L 499 351
L 500 351
L 500 351
L 501 351
L 502 351
L 503 351
L 504 351
L 505 351
L 506 351
L 507 351
L 508 351
L 509 351
L 510 351
L 511 351
L 512 351
L 513 351
L 514 351
L 514 351
L 515 351
L 516 351
L 517 350
L 518 351
L 519 351
L 520 351
L 521 351
L 522 351
L 523 351
L 524 351
L 525 351
L 526 351
L 527 351
L 528 351
L 528 351
L 529 351
L 530 351
L 531 351
L 532 351
L 533 350
L 534 350
L 535 351
L 536 350
L 537 351
L 538 351
L 539 351
L 540 351
L 541 351
L 542 351
L 542 351
L 543 351
L 544 350
L 545 351
L 546 351
L 547 351
L 548 351
L 549 351
L 550 351
L 551 351
L 552 351
L 553 351
L 554 351
L 555 351
L 556 350
L 556 351
L 557 351
L 558 351
L 559 351
L 560 351
L 561 351
L 562 351
L 563 351
L 564 350
L 565 351
L 566 351
L 567 351
L 568 351
L 569 351
L 570 351
L 570 351
L 571 351
L 572 350
L 573 351
L 574 351
L 575 351
L 576 351
L 577 351
L 578 351
L 579 351
L 580 351
L 581 351
L 582 351
L 583 351
L 584 351
L 584 351
L 585 351
L 586 351
L 587 351
L 588 351
L 589 351
L 590 351
L 591 351
L 592 351
L 593 350
L 594 351
L 595 351
L 596 351
L 597 351
L 598 350
L 598 351
L 599 351
L 600 351
L 601 350
L 602 351
L 603 351
L 604 350
L 605 350
L 606 351
L 607 351
L 608 351
L 609 351
L 610 351
L 611 351
L 612 351
L 612 351
L 613 351
L 614 351
L 615 351
L 616 350
L 617 350
L 618 350
L 619 351
L 620 351
L 621 351
L 622 350
L 623 350
L 624 350
L 625 351
L 626 351
L 626 351
L 627 351
L 628 350
L 629 351
L 630 351
L 631 351
L 632 351
L 633 350
L 634 350
L 635 350
L 636 351
L 637 351
L 638 351
L 639 351
L 640 351
L 640 351
L 641 351
L 642 351
L 643 351
L 644 350
L 645 350
L 646 351
L 647 351
L 648 350
L 649 350
L 650 351
L 651 351
L 652 351
L 653 351
L 654 351
L 654 351
L 655 351
L 656 351
L 657 351
L 658 351
L 659 351
L 660 351
L 661 351
L 662 351
L 663 351
L 664 351
L 665 351
L 666 351
L 667 350
L 668 351
L 668 350
L 669 351
L 670 350
L 671 350
L 672 351
L 673 351
L 674 351
L 675 351
L 676 351
L 677 351
L 678 351
L 679 351
L 680 351
L 681 351
L 682 350
L 682 351
L 683 351
L 684 351
L 685 351
L 686 351
L 687 351
L 688 351
L 689 351
L 690 351
L 691 351
L 692 351
L 693 350
L 694 351
L 695 351
L 696 351
L 696 351
L 697 351
L 698 351
L 699 351
L 700 351
L 701 350
L 702 351
L 703 351
L 704 351
L 705 351
L 706 351
L 707 351
L 708 350
L 709 351
L 710 351
L 710 351
L 711 351
L 712 351
L 713 351
L 714 351
L 715 351
L 716 351
L 717 351
L 718 351
L 719 350
L 720 350
L 721 351
L 722 351
L 723 350
L 724 351
L 724 351
L 725 351
L 726 351
L 727 351
L 728 351
L 729 351
L 730 350
L 731 351
L 732 351
L 733 351
L 734 351
L 735 350
L 736 351
L 737 351
L 738 351
L 738 350
L 739 351
L 740 351
L 741 350
L 742 350
L 743 350
L 744 350
L 745 351
L 746 350
L 747 351
L 748 351
L 749 351
L 750 351
L 751 351
L 752 350
L 752 351
L 753 351
L 754 350
L 755 351
L 756 351
L 757 351
L 758 351
L 759 350
L 760 350
L 761 350
L 762 351
L 763 351
L 764 350
L 765 351
L 766 350
L 766 351
L 767 351
L 768 351
L 769 351
L 770 351
L 771 351
L 772 351
L 773 351
L 774 351
L 775 351
L 776 350
L 777 351
L 778 350
L 779 351
L 780 351
L 780 351
L 781 351
L 782 351
L 783 351
L 784 351
L 785 351
L 786 351
L 787 351
L 788 351
L 789 351
L 790 351
L 791 351
L 792 351
L 793 351
L 794 351
L 794 351
L 795 351
L 796 351
L 797 351
L 798 351
L 799 351
L 800 351
L 801 351
L 802 351
L 803 351
L 804 351
L 805 351
L 806 351
L 807 351
L 808 351
L 808 351
L 809 351
L 810 351
L 811 351
L 812 351
L 813 351
L 814 351
L 815 351
L 816 351
L 817 351
L 818 351
L 819 351
L 820 351
L 821 351
L 822 351
L 822 351
L 823 351
L 824 351
L 825 351
L 826 351
L 827 351
L 828 351
L 829 351
L 830 351
L 831 351
L 832 351
L 833 351
L 834 351
L 835 351
L 836 351
L 836 350
L 837 351
L 838 351
L 839 351
L 840 351
L 841 351
L 842 351
L 843 351
L 844 350
L 845 351
L 846 350
L 847 350
L 848 351
L 849 351
L 850 351
L 850 351
L 851 351
L 852 351
L 853 351
L 854 350
L 855 351
L 856 351
L 857 351
L 858 351
L 859 351
L 860 351
L 861 351
L 862 351
L 863 350
L 864 351
L 864 351
L 865 351
L 866 351
L 867 351
L 868 351
L 869 351
L 870 351
L 871 351
L 872 351
L 873 351
L 874 351
L 875 351
L 876 351
L 877 351
L 878 351
L 878 351
L 879 351
L 880 351
L 881 351
L 882 351
L 883 351
L 884 351
L 885 351
L 886 351
L 887 351
L 888 351
L 889 351
L 890 351
L 891 351
L 892 351
L 892 351
L 893 351
L 894 351
L 895 351
L 896 351
L 897 351
L 898 351
L 899 351
L 900 351
L 901 351
L 902 351
L 903 351
L 904 351
L 905 351
L 906 351
L 906 351
L 907 351
L 908 351
L 909 351
L 910 351
L 911 351
L 912 351
L 913 351
L 914 351
L 915 351
L 916 351
L 917 351
L 918 351
L 919 351
L 920 351
L 920 351
L 921 351
L 922 351
L 923 351
L 924 351
L 925 351
L 926 351
L 927 351
L 928 351
L 929 351
L 930 350
L 931 351
L 932 351
L 933 351
L 934 350
L 934 351
L 935 351
L 936 351
L 937 351
L 938 351
L 939 351
L 940 351
L 941 351
L 942 351
L 943 351
L 944 351
L 945 350
L 946 351
L 947 351
L 948 351
L 948 351
L 949 351
L 950 351
L 951 351
L 952 351
L 953 351
L 954 351
L 955 351
L 956 351
L 957 351
L 958 351
L 959 351
L 960 351
L 961 351
L 961 351" style="stroke-width:1;stroke:rgba(217,0,116,1.0);fill:none"/><text x="342" y="33" style="stroke-width:0;stroke:none;fill:rgba(51,51,51,1.0);font-size:23.0px;font-family:'Roboto Medium',sans-serif">Hartberg-Fürstenfeld 11.11.2022</text><path  d="M 38 11
L 251 11
L 251 91
L 38 91
L 38 11" style="stroke-width:1;stroke:rgba(51,51,51,1.0);fill:rgba(255,255,255,1.0)"/><text x="43" y="26" style="stroke-width:0;stroke:none;fill:rgba(51,51,51,1.0);font-size:10.2px;font-family:'Roboto Medium',sans-serif">Sieben Tage Durschnitt Inzidenz Fälle</text><path  d="M 221 21
L 241 21" style="stroke-width:1;stroke:rgba(0,116,217,1.0);fill:none"/><text x="43" y="56" style="stroke-width:0;stroke:none;fill:rgba(51,51,51,1.0);font-size:10.2px;font-family:'Roboto Medium',sans-serif">Anzahl Faelle</text><path  d="M 110 51
L 241 51" style="stroke-width:1;stroke:rgba(0,217,101,1.0);fill:none"/><text x="43" y="86" style="stroke-width:0;stroke:none;fill:rgba(51,51,51,1.0);font-size:10.2px;font-family:'Roboto Medium',sans-serif">Anzahl Tot</text><path  d="M 98 81
L 241 81" style="stroke-width:1;stroke:rgba(217,0,116,1.0);fill:none"/></svg>