<svg xmlns="http://www.w3.org/2000/svg" xmlns:xlink="http://www.w3.org/1999/xlink" width="1024" height="400">\n<path  d="M 0 0
L 1024 0
L 1024 400
L 0 400
L 0 0" style="stroke-width:0;stroke:rgba(255,255,255,1.0);fill:rgba(255,255,255,1.0)"/><path  d="M 38 11
L 969 11
L 969 351
L 38 351
L 38 11" style="stroke-width:0;stroke:rgba(255,255,255,1.0);fill:rgba(255,255,255,1.0)"/><path  d="M 38 351
L 969 351" style="stroke-width:1;stroke:rgba(51,51,51,1.0);fill:none"/><path  d="M 38 351
L 38 356" style="stroke-width:1;stroke:rgba(51,51,51,1.0);fill:none"/><text x="5" y="373" style="stroke-width:0;stroke:none;fill:rgba(51,51,51,1.0);font-size:12.8px;font-family:'Roboto Medium',sans-serif">2020-02-26</text><path  d="M 155 351
L 155 356" style="stroke-width:1;stroke:rgba(51,51,51,1.0);fill:none"/><text x="122" y="373" style="stroke-width:0;stroke:none;fill:rgba(51,51,51,1.0);font-size:12.8px;font-family:'Roboto Medium',sans-serif">2020-05-02</text><path  d="M 271 351
L 271 356" style="stroke-width:1;stroke:rgba(51,51,51,1.0);fill:none"/><text x="238" y="373" style="stroke-width:0;stroke:none;fill:rgba(51,51,51,1.0);font-size:12.8px;font-family:'Roboto Medium',sans-serif">2020-07-08</text><path  d="M 388 351
L 388 356" style="stroke-width:1;stroke:rgba(51,51,51,1.0);fill:none"/><text x="355" y="373" style="stroke-width:0;stroke:none;fill:rgba(51,51,51,1.0);font-size:12.8px;font-family:'Roboto Medium',sans-serif">2020-09-12</text><path  d="M 504 351
L 504 356" style="stroke-width:1;stroke:rgba(51,51,51,1.0);fill:none"/><text x="471" y="373" style="stroke-width:0;stroke:none;fill:rgba(51,51,51,1.0);font-size:12.8px;font-family:'Roboto Medium',sans-serif">2020-11-18</text><path  d="M 620 351
L 620 356" style="stroke-width:1;stroke:rgba(51,51,51,1.0);fill:none"/><text x="587" y="373" style="stroke-width:0;stroke:none;fill:rgba(51,51,51,1.0);font-size:12.8px;font-family:'Roboto Medium',sans-serif">2021-01-24</text><path  d="M 737 351
L 737 356" style="stroke-width:1;stroke:rgba(51,51,51,1.0);fill:none"/><text x="704" y="373" style="stroke-width:0;stroke:none;fill:rgba(51,51,51,1.0);font-size:12.8px;font-family:'Roboto Medium',sans-serif">2021-03-31</text><path  d="M 853 351
L 853 356" style="stroke-width:1;stroke:rgba(51,51,51,1.0);fill:none"/><text x="820" y="373" style="stroke-width:0;stroke:none;fill:rgba(51,51,51,1.0);font-size:12.8px;font-family:'Roboto Medium',sans-serif">2021-06-06</text><path  d="M 969 351
L 969 356" style="stroke-width:1;stroke:rgba(51,51,51,1.0);fill:none"/><text x="936" y="373" style="stroke-width:0;stroke:none;fill:rgba(51,51,51,1.0);font-size:12.8px;font-family:'Roboto Medium',sans-serif">2021-08-12</text><text x="485" y="395" style="stroke-width:0;stroke:none;fill:rgba(51,51,51,1.0);font-size:12.8px;font-family:'Roboto Medium',sans-serif">Datum</text><path  d="M 970 351
L 970 11" style="stroke-width:1;stroke:rgba(51,51,51,1.0);fill:none"/><path  d="M 970 351
L 975 351" style="stroke-width:1;stroke:rgba(51,51,51,1.0);fill:none"/><text x="980" y="357" style="stroke-width:0;stroke:none;fill:rgba(51,51,51,1.0);font-size:12.8px;font-family:'Roboto Medium',sans-serif">0.00</text><path  d="M 970 308
L 975 308" style="stroke-width:1;stroke:rgba(51,51,51,1.0);fill:none"/><text x="980" y="314" style="stroke-width:0;stroke:none;fill:rgba(51,51,51,1.0);font-size:12.8px;font-family:'Roboto Medium',sans-serif">84.00</text><path  d="M 970 265
L 975 265" style="stroke-width:1;stroke:rgba(51,51,51,1.0);fill:none"/><text x="980" y="271" style="stroke-width:0;stroke:none;fill:rgba(51,51,51,1.0);font-size:12.8px;font-family:'Roboto Medium',sans-serif">168.00</text><path  d="M 970 223
L 975 223" style="stroke-width:1;stroke:rgba(51,51,51,1.0);fill:none"/><text x="980" y="229" style="stroke-width:0;stroke:none;fill:rgba(51,51,51,1.0);font-size:12.8px;font-family:'Roboto Medium',sans-serif">252.00</text><path  d="M 970 181
L 975 181" style="stroke-width:1;stroke:rgba(51,51,51,1.0);fill:none"/><text x="980" y="187" style="stroke-width:0;stroke:none;fill:rgba(51,51,51,1.0);font-size:12.8px;font-family:'Roboto Medium',sans-serif">335.00</text><path  d="M 970 138
L 975 138" style="stroke-width:1;stroke:rgba(51,51,51,1.0);fill:none"/><text x="980" y="144" style="stroke-width:0;stroke:none;fill:rgba(51,51,51,1.0);font-size:12.8px;font-family:'Roboto Medium',sans-serif">419.00</text><path  d="M 970 95
L 975 95" style="stroke-width:1;stroke:rgba(51,51,51,1.0);fill:none"/><text x="980" y="101" style="stroke-width:0;stroke:none;fill:rgba(51,51,51,1.0);font-size:12.8px;font-family:'Roboto Medium',sans-serif">503.00</text><path  d="M 970 53
L 975 53" style="stroke-width:1;stroke:rgba(51,51,51,1.0);fill:none"/><text x="980" y="59" style="stroke-width:0;stroke:none;fill:rgba(51,51,51,1.0);font-size:12.8px;font-family:'Roboto Medium',sans-serif">587.00</text><path  d="M 970 11
L 975 11" style="stroke-width:1;stroke:rgba(51,51,51,1.0);fill:none"/><text x="980" y="17" style="stroke-width:0;stroke:none;fill:rgba(51,51,51,1.0);font-size:12.8px;font-family:'Roboto Medium',sans-serif">670.00</text><path  d="M 38 351
L 40 351
L 42 351
L 44 351
L 45 351
L 47 351
L 49 351
L 51 351
L 52 351
L 54 351
L 56 349
L 58 349
L 59 348
L 61 348
L 63 346
L 65 345
L 66 343
L 68 343
L 70 339
L 72 339
L 73 338
L 75 337
L 77 327
L 79 324
L 80 317
L 82 321
L 84 320
L 86 306
L 87 307
L 89 298
L 91 297
L 93 299
L 94 294
L 96 289
L 98 297
L 100 293
L 101 307
L 103 309
L 105 305
L 107 308
L 108 314
L 110 314
L 112 316
L 114 318
L 115 321
L 117 328
L 119 330
L 121 331
L 122 338
L 124 340
L 126 343
L 128 342
L 129 343
L 131 343
L 133 342
L 135 342
L 136 343
L 138 343
L 140 344
L 142 345
L 143 346
L 145 347
L 147 348
L 149 348
L 150 348
L 152 348
L 154 349
L 156 349
L 157 349
L 159 348
L 161 348
L 163 348
L 164 348
L 166 348
L 168 348
L 170 348
L 171 349
L 173 349
L 175 350
L 176 350
L 178 350
L 180 350
L 182 350
L 183 350
L 185 350
L 187 350
L 189 351
L 190 351
L 192 351
L 194 351
L 196 351
L 197 351
L 199 351
L 201 351
L 203 351
L 204 351
L 206 351
L 208 351
L 210 351
L 211 351
L 213 351
L 215 351
L 217 351
L 218 351
L 220 351
L 222 351
L 224 351
L 225 351
L 227 351
L 229 351
L 231 351
L 232 351
L 234 351
L 236 351
L 238 351
L 239 351
L 241 351
L 243 351
L 245 351
L 246 351
L 248 351
L 250 351
L 252 351
L 253 351
L 255 351
L 257 351
L 259 351
L 260 351
L 262 350
L 264 350
L 266 350
L 267 350
L 269 350
L 271 350
L 273 350
L 274 350
L 276 350
L 278 350
L 280 350
L 281 350
L 283 350
L 285 350
L 287 351
L 288 351
L 290 351
L 292 351
L 294 350
L 295 350
L 297 350
L 299 350
L 301 350
L 302 350
L 304 350
L 306 351
L 307 351
L 309 351
L 311 351
L 313 351
L 314 351
L 316 351
L 318 351
L 320 351
L 321 351
L 323 351
L 325 351
L 327 351
L 328 351
L 330 351
L 332 351
L 334 351
L 335 351
L 337 351
L 339 351
L 341 350
L 342 350
L 344 349
L 346 349
L 348 349
L 349 347
L 351 346
L 353 347
L 355 345
L 356 345
L 358 344
L 360 345
L 362 347
L 363 348
L 365 348
L 367 349
L 369 350
L 370 349
L 372 349
L 374 348
L 376 348
L 377 347
L 379 347
L 381 347
L 383 346
L 384 345
L 386 345
L 388 345
L 390 345
L 391 343
L 393 342
L 395 340
L 397 339
L 398 337
L 400 337
L 402 335
L 404 337
L 405 337
L 407 340
L 409 341
L 411 341
L 412 341
L 414 342
L 416 342
L 418 342
L 419 342
L 421 341
L 423 343
L 425 343
L 426 344
L 428 343
L 430 343
L 432 342
L 433 342
L 435 341
L 437 339
L 438 337
L 440 335
L 442 334
L 444 329
L 445 321
L 447 316
L 449 310
L 451 311
L 452 311
L 454 307
L 456 302
L 458 301
L 459 288
L 461 287
L 463 272
L 465 260
L 466 245
L 468 229
L 470 195
L 472 186
L 473 173
L 475 179
L 477 163
L 479 154
L 480 110
L 482 103
L 484 99
L 486 77
L 487 59
L 489 35
L 491 15
L 493 32
L 494 39
L 496 51
L 498 77
L 500 82
L 501 79
L 503 102
L 505 118
L 507 126
L 508 119
L 510 125
L 512 135
L 514 148
L 515 133
L 517 138
L 519 143
L 521 147
L 522 149
L 524 149
L 526 167
L 528 162
L 529 170
L 531 173
L 533 174
L 535 177
L 536 174
L 538 192
L 540 217
L 542 220
L 543 225
L 545 239
L 547 227
L 549 232
L 550 190
L 552 191
L 554 200
L 556 205
L 557 212
L 559 222
L 561 226
L 563 254
L 564 250
L 566 253
L 568 268
L 570 267
L 571 265
L 573 264
L 575 265
L 576 270
L 578 275
L 580 277
L 582 270
L 583 271
L 585 262
L 587 256
L 589 268
L 590 258
L 592 250
L 594 250
L 596 252
L 597 261
L 599 277
L 601 276
L 603 289
L 604 292
L 606 299
L 608 303
L 610 303
L 611 301
L 613 306
L 615 301
L 617 299
L 618 299
L 620 298
L 622 297
L 624 295
L 625 289
L 627 288
L 629 287
L 631 283
L 632 284
L 634 282
L 636 280
L 638 274
L 639 274
L 641 269
L 643 274
L 645 258
L 646 249
L 648 247
L 650 235
L 652 228
L 653 223
L 655 208
L 657 207
L 659 210
L 660 218
L 662 230
L 664 219
L 666 208
L 667 221
L 669 219
L 671 225
L 673 222
L 674 197
L 676 218
L 678 227
L 680 198
L 681 204
L 683 194
L 685 185
L 687 210
L 688 213
L 690 200
L 692 224
L 694 217
L 695 214
L 697 227
L 699 232
L 701 222
L 702 223
L 704 216
L 706 225
L 707 240
L 709 241
L 711 221
L 713 212
L 714 226
L 716 219
L 718 214
L 720 212
L 721 185
L 723 182
L 725 189
L 727 201
L 728 214
L 730 198
L 732 198
L 734 221
L 735 244
L 737 235
L 739 225
L 741 204
L 742 227
L 744 222
L 746 223
L 748 218
L 749 239
L 751 227
L 753 250
L 755 254
L 756 257
L 758 250
L 760 247
L 762 237
L 763 254
L 765 247
L 767 241
L 769 243
L 770 250
L 772 254
L 774 252
L 776 254
L 777 254
L 779 255
L 781 254
L 783 254
L 784 250
L 786 244
L 788 236
L 790 249
L 791 248
L 793 244
L 795 245
L 797 249
L 798 256
L 800 268
L 802 265
L 804 269
L 805 284
L 807 292
L 809 302
L 811 312
L 812 314
L 814 318
L 816 319
L 818 318
L 819 316
L 821 312
L 823 313
L 825 309
L 826 305
L 828 307
L 830 306
L 832 308
L 833 310
L 835 312
L 837 315
L 838 317
L 840 318
L 842 324
L 844 325
L 845 330
L 847 331
L 849 335
L 851 340
L 852 341
L 854 342
L 856 343
L 858 342
L 859 343
L 861 343
L 863 344
L 865 345
L 866 347
L 868 347
L 870 348
L 872 348
L 873 349
L 875 349
L 877 348
L 879 348
L 880 348
L 882 349
L 884 349
L 886 349
L 887 349
L 889 349
L 891 349
L 893 349
L 894 349
L 896 349
L 898 350
L 900 350
L 901 351
L 903 351
L 905 351
L 907 351
L 908 351
L 910 351
L 912 351
L 914 350
L 915 350
L 917 349
L 919 349
L 921 348
L 922 348
L 924 347
L 926 347
L 928 347
L 929 348
L 931 346
L 933 347
L 935 346
L 936 347
L 938 347
L 940 345
L 942 343
L 943 345
L 945 344
L 947 342
L 949 340
L 950 339
L 952 338
L 954 338
L 956 335
L 957 335
L 959 334
L 961 336
L 963 333
L 964 335
L 966 334
L 968 328
L 969 329" style="stroke-width:1;stroke:rgba(0,116,217,1.0);fill:none"/><path  d="M 38 351
L 40 351
L 42 351
L 44 351
L 45 351
L 47 351
L 49 351
L 51 351
L 52 351
L 54 351
L 56 349
L 58 350
L 59 349
L 61 351
L 63 349
L 65 349
L 66 349
L 68 349
L 70 346
L 72 349
L 73 349
L 75 348
L 77 341
L 79 346
L 80 343
L 82 350
L 84 348
L 86 337
L 87 348
L 89 333
L 91 345
L 93 345
L 94 345
L 96 344
L 98 343
L 100 345
L 101 346
L 103 347
L 105 341
L 107 348
L 108 349
L 110 344
L 112 347
L 114 347
L 115 349
L 117 348
L 119 349
L 121 351
L 122 349
L 124 350
L 126 349
L 128 349
L 129 348
L 131 350
L 133 349
L 135 349
L 136 351
L 138 349
L 140 350
L 142 350
L 143 351
L 145 350
L 147 351
L 149 351
L 150 349
L 152 351
L 154 351
L 156 351
L 157 350
L 159 349
L 161 351
L 163 350
L 164 350
L 166 351
L 168 351
L 170 351
L 171 351
L 173 351
L 175 351
L 176 350
L 178 351
L 180 351
L 182 351
L 183 351
L 185 351
L 187 351
L 189 351
L 190 351
L 192 351
L 194 351
L 196 351
L 197 351
L 199 351
L 201 351
L 203 351
L 204 351
L 206 351
L 208 351
L 210 351
L 211 351
L 213 351
L 215 351
L 217 351
L 218 351
L 220 351
L 222 351
L 224 351
L 225 351
L 227 351
L 229 351
L 231 351
L 232 351
L 234 351
L 236 351
L 238 351
L 239 351
L 241 351
L 243 351
L 245 351
L 246 351
L 248 351
L 250 351
L 252 351
L 253 351
L 255 351
L 257 351
L 259 351
L 260 351
L 262 350
L 264 351
L 266 351
L 267 351
L 269 351
L 271 351
L 273 351
L 274 350
L 276 351
L 278 351
L 280 351
L 281 351
L 283 351
L 285 351
L 287 351
L 288 351
L 290 351
L 292 351
L 294 350
L 295 351
L 297 351
L 299 351
L 301 351
L 302 351
L 304 351
L 306 351
L 307 351
L 309 351
L 311 351
L 313 351
L 314 351
L 316 351
L 318 351
L 320 351
L 321 351
L 323 351
L 325 351
L 327 351
L 328 351
L 330 351
L 332 351
L 334 351
L 335 351
L 337 351
L 339 351
L 341 350
L 342 351
L 344 350
L 346 351
L 348 350
L 349 348
L 351 350
L 353 351
L 355 349
L 356 350
L 358 350
L 360 351
L 362 351
L 363 351
L 365 351
L 367 351
L 369 351
L 370 349
L 372 350
L 374 350
L 376 350
L 377 350
L 379 351
L 381 351
L 383 348
L 384 349
L 386 350
L 388 349
L 390 350
L 391 349
L 393 349
L 395 347
L 397 348
L 398 348
L 400 349
L 402 348
L 404 350
L 405 349
L 407 351
L 409 349
L 411 348
L 412 349
L 414 349
L 416 350
L 418 349
L 419 351
L 421 348
L 423 350
L 425 350
L 426 349
L 428 349
L 430 349
L 432 349
L 433 348
L 435 349
L 437 348
L 438 347
L 440 348
L 442 348
L 444 344
L 445 341
L 447 345
L 449 343
L 451 348
L 452 348
L 454 344
L 456 340
L 458 340
L 459 333
L 461 342
L 463 334
L 465 338
L 466 330
L 468 326
L 470 309
L 472 324
L 473 331
L 475 340
L 477 323
L 479 322
L 480 286
L 482 303
L 484 320
L 486 311
L 487 324
L 489 301
L 491 304
L 493 302
L 494 309
L 496 331
L 498 335
L 500 328
L 501 298
L 503 326
L 505 315
L 507 317
L 508 324
L 510 340
L 512 337
L 514 310
L 515 312
L 517 320
L 519 322
L 521 328
L 522 342
L 524 337
L 526 326
L 528 308
L 529 326
L 531 325
L 533 329
L 535 344
L 536 334
L 538 343
L 540 331
L 542 329
L 543 330
L 545 341
L 547 334
L 549 338
L 550 305
L 552 332
L 554 337
L 556 334
L 557 347
L 559 343
L 561 342
L 563 331
L 564 328
L 566 339
L 568 348
L 570 347
L 571 341
L 573 341
L 575 332
L 576 332
L 578 343
L 580 350
L 582 340
L 583 342
L 585 333
L 587 327
L 589 342
L 590 334
L 592 343
L 594 340
L 596 344
L 597 341
L 599 341
L 601 342
L 603 346
L 604 346
L 606 346
L 608 348
L 610 341
L 611 338
L 613 347
L 615 341
L 617 344
L 618 346
L 620 347
L 622 340
L 624 337
L 625 341
L 627 341
L 629 343
L 631 342
L 632 349
L 634 338
L 636 335
L 638 336
L 639 341
L 641 338
L 643 346
L 645 335
L 646 330
L 648 333
L 650 325
L 652 335
L 653 334
L 655 333
L 657 334
L 659 333
L 660 340
L 662 336
L 664 325
L 666 324
L 667 344
L 669 333
L 671 338
L 673 338
L 674 313
L 676 344
L 678 332
L 680 318
L 681 339
L 683 328
L 685 330
L 687 335
L 688 347
L 690 320
L 692 339
L 694 333
L 695 325
L 697 342
L 699 340
L 701 338
L 702 321
L 704 333
L 706 341
L 707 338
L 709 343
L 711 322
L 713 330
L 714 334
L 716 326
L 718 337
L 720 337
L 721 318
L 723 320
L 725 336
L 727 344
L 728 338
L 730 322
L 732 337
L 734 338
L 735 341
L 737 328
L 739 335
L 741 320
L 742 343
L 744 332
L 746 339
L 748 336
L 749 347
L 751 324
L 753 341
L 755 346
L 756 335
L 758 333
L 760 334
L 762 338
L 763 339
L 765 335
L 767 340
L 769 337
L 770 339
L 772 337
L 774 336
L 776 341
L 777 334
L 779 342
L 781 336
L 783 338
L 784 334
L 786 330
L 788 335
L 790 345
L 791 341
L 793 333
L 795 339
L 797 338
L 798 337
L 800 345
L 802 343
L 804 345
L 805 346
L 807 346
L 809 346
L 811 346
L 812 347
L 814 347
L 816 346
L 818 345
L 819 345
L 821 343
L 823 347
L 825 343
L 826 343
L 828 348
L 830 344
L 832 347
L 833 345
L 835 348
L 837 346
L 838 345
L 840 348
L 842 349
L 844 348
L 845 349
L 847 349
L 849 349
L 851 350
L 852 349
L 854 349
L 856 349
L 858 349
L 859 351
L 861 349
L 863 351
L 865 351
L 866 351
L 868 350
L 870 350
L 872 350
L 873 351
L 875 351
L 877 350
L 879 351
L 880 350
L 882 351
L 884 351
L 886 350
L 887 351
L 889 350
L 891 351
L 893 351
L 894 351
L 896 351
L 898 351
L 900 351
L 901 351
L 903 351
L 905 351
L 907 351
L 908 351
L 910 351
L 912 351
L 914 350
L 915 351
L 917 350
L 919 351
L 921 349
L 922 351
L 924 349
L 926 351
L 928 351
L 929 351
L 931 349
L 933 350
L 935 349
L 936 350
L 938 351
L 940 349
L 942 349
L 943 351
L 945 349
L 947 347
L 949 348
L 950 350
L 952 347
L 954 349
L 956 348
L 957 348
L 959 347
L 961 350
L 963 347
L 964 349
L 966 348
L 968 343
L 969 349" style="stroke-width:1;stroke:rgba(0,217,101,1.0);fill:none"/><path  d="M 38 351
L 40 351
L 42 351
L 44 351
L 45 351
L 47 351
L 49 351
L 51 351
L 52 351
L 54 351
L 56 351
L 58 351
L 59 351
L 61 351
L 63 351
L 65 351
L 66 351
L 68 351
L 70 351
L 72 350
L 73 351
L 75 350
L 77 351
L 79 351
L 80 349
L 82 350
L 84 351
L 86 351
L 87 350
L 89 350
L 91 348
L 93 350
L 94 350
L 96 350
L 98 351
L 100 350
L 101 348
L 103 350
L 105 350
L 107 351
L 108 348
L 110 350
L 112 350
L 114 351
L 115 350
L 117 349
L 119 351
L 121 351
L 122 351
L 124 350
L 126 351
L 128 351
L 129 351
L 131 350
L 133 351
L 135 351
L 136 350
L 138 351
L 140 351
L 142 351
L 143 351
L 145 351
L 147 350
L 149 351
L 150 351
L 152 351
L 154 351
L 156 351
L 157 351
L 159 351
L 161 351
L 163 351
L 164 351
L 166 351
L 168 351
L 170 351
L 171 351
L 173 351
L 175 351
L 176 351
L 178 351
L 180 351
L 182 349
L 183 351
L 185 351
L 187 351
L 189 351
L 190 351
L 192 351
L 194 351
L 196 351
L 197 351
L 199 351
L 201 351
L 203 351
L 204 351
L 206 351
L 208 351
L 210 351
L 211 351
L 213 351
L 215 351
L 217 351
L 218 351
L 220 351
L 222 351
L 224 351
L 225 351
L 227 351
L 229 351
L 231 351
L 232 351
L 234 351
L 236 351
L 238 351
L 239 351
L 241 351
L 243 351
L 245 351
L 246 351
L 248 351
L 250 351
L 252 351
L 253 351
L 255 351
L 257 351
L 259 351
L 260 351
L 262 350
L 264 351
L 266 351
L 267 351
L 269 351
L 271 351
L 273 351
L 274 351
L 276 351
L 278 351
L 280 351
L 281 351
L 283 351
L 285 351
L 287 351
L 288 351
L 290 351
L 292 351
L 294 351
L 295 351
L 297 351
L 299 351
L 301 351
L 302 351
L 304 351
L 306 351
L 307 351
L 309 351
L 311 351
L 313 351
L 314 351
L 316 351
L 318 351
L 320 351
L 321 351
L 323 351
L 325 351
L 327 351
L 328 351
L 330 351
L 332 351
L 334 351
L 335 351
L 337 351
L 339 351
L 341 351
L 342 351
L 344 351
L 346 351
L 348 351
L 349 351
L 351 351
L 353 351
L 355 351
L 356 351
L 358 351
L 360 351
L 362 351
L 363 351
L 365 351
L 367 351
L 369 351
L 370 351
L 372 351
L 374 351
L 376 351
L 377 351
L 379 351
L 381 351
L 383 351
L 384 351
L 386 351
L 388 351
L 390 351
L 391 351
L 393 351
L 395 351
L 397 351
L 398 351
L 400 350
L 402 351
L 404 351
L 405 350
L 407 351
L 409 351
L 411 351
L 412 351
L 414 351
L 416 351
L 418 351
L 419 351
L 421 351
L 423 351
L 425 351
L 426 351
L 428 351
L 430 351
L 432 351
L 433 351
L 435 351
L 437 351
L 438 351
L 440 351
L 442 351
L 444 351
L 445 351
L 447 349
L 449 351
L 451 350
L 452 351
L 454 351
L 456 351
L 458 351
L 459 349
L 461 351
L 463 350
L 465 351
L 466 349
L 468 349
L 470 351
L 472 349
L 473 351
L 475 351
L 477 350
L 479 351
L 480 351
L 482 350
L 484 350
L 486 351
L 487 350
L 489 350
L 491 350
L 493 351
L 494 348
L 496 351
L 498 350
L 500 347
L 501 350
L 503 351
L 505 350
L 507 351
L 508 351
L 510 350
L 512 349
L 514 350
L 515 350
L 517 349
L 519 350
L 521 350
L 522 351
L 524 351
L 526 351
L 528 350
L 529 349
L 531 351
L 533 350
L 535 350
L 536 349
L 538 348
L 540 349
L 542 349
L 543 351
L 545 349
L 547 349
L 549 350
L 550 350
L 552 351
L 554 349
L 556 349
L 557 348
L 559 348
L 561 350
L 563 349
L 564 348
L 566 349
L 568 350
L 570 349
L 571 349
L 573 349
L 575 351
L 576 351
L 578 351
L 580 351
L 582 351
L 583 351
L 585 349
L 587 351
L 589 350
L 590 351
L 592 351
L 594 351
L 596 351
L 597 350
L 599 349
L 601 350
L 603 351
L 604 351
L 606 351
L 608 350
L 610 350
L 611 351
L 613 351
L 615 350
L 617 351
L 618 350
L 620 349
L 622 350
L 624 350
L 625 350
L 627 350
L 629 351
L 631 351
L 632 351
L 634 351
L 636 351
L 638 351
L 639 351
L 641 351
L 643 351
L 645 351
L 646 351
L 648 349
L 650 351
L 652 351
L 653 351
L 655 351
L 657 351
L 659 350
L 660 350
L 662 351
L 664 351
L 666 350
L 667 350
L 669 351
L 671 351
L 673 350
L 674 351
L 676 351
L 678 351
L 680 351
L 681 351
L 683 351
L 685 351
L 687 351
L 688 350
L 690 350
L 692 351
L 694 351
L 695 351
L 697 351
L 699 350
L 701 351
L 702 351
L 704 350
L 706 350
L 707 351
L 709 351
L 711 351
L 713 350
L 714 350
L 716 351
L 718 350
L 720 350
L 721 351
L 723 351
L 725 350
L 727 351
L 728 351
L 730 351
L 732 350
L 734 351
L 735 351
L 737 351
L 739 350
L 741 351
L 742 351
L 744 351
L 746 351
L 748 351
L 749 351
L 751 351
L 753 350
L 755 351
L 756 351
L 758 350
L 760 351
L 762 351
L 763 351
L 765 351
L 767 351
L 769 350
L 770 349
L 772 351
L 774 350
L 776 351
L 777 351
L 779 351
L 781 351
L 783 351
L 784 351
L 786 351
L 788 350
L 790 351
L 791 350
L 793 351
L 795 351
L 797 351
L 798 351
L 800 351
L 802 351
L 804 351
L 805 351
L 807 350
L 809 351
L 811 351
L 812 350
L 814 351
L 816 351
L 818 351
L 819 351
L 821 351
L 823 351
L 825 351
L 826 351
L 828 351
L 830 351
L 832 351
L 833 351
L 835 351
L 837 351
L 838 351
L 840 351
L 842 351
L 844 351
L 845 351
L 847 350
L 849 351
L 851 351
L 852 351
L 854 351
L 856 351
L 858 351
L 859 351
L 861 351
L 863 351
L 865 351
L 866 351
L 868 351
L 870 351
L 872 351
L 873 351
L 875 351
L 877 351
L 879 351
L 880 351
L 882 351
L 884 351
L 886 351
L 887 351
L 889 351
L 891 351
L 893 351
L 894 351
L 896 351
L 898 351
L 900 351
L 901 351
L 903 351
L 905 351
L 907 351
L 908 351
L 910 351
L 912 351
L 914 351
L 915 351
L 917 351
L 919 351
L 921 351
L 922 351
L 924 351
L 926 351
L 928 351
L 929 351
L 931 351
L 933 351
L 935 351
L 936 351
L 938 351
L 940 351
L 942 351
L 943 351
L 945 351
L 947 351
L 949 351
L 950 351
L 952 351
L 954 351
L 956 351
L 957 351
L 959 351
L 961 351
L 963 351
L 964 351
L 966 350
L 968 351
L 969 350" style="stroke-width:1;stroke:rgba(217,0,116,1.0);fill:none"/><text x="342" y="33" style="stroke-width:0;stroke:none;fill:rgba(51,51,51,1.0);font-size:23.0px;font-family:'Roboto Medium',sans-serif">Hartberg-Fürstenfeld 12.08.2021</text><path  d="M 38 11
L 251 11
L 251 91
L 38 91
L 38 11" style="stroke-width:1;stroke:rgba(51,51,51,1.0);fill:rgba(255,255,255,1.0)"/><text x="43" y="26" style="stroke-width:0;stroke:none;fill:rgba(51,51,51,1.0);font-size:10.2px;font-family:'Roboto Medium',sans-serif">Sieben Tage Durschnitt Inzidenz Fälle</text><path  d="M 221 21
L 241 21" style="stroke-width:1;stroke:rgba(0,116,217,1.0);fill:none"/><text x="43" y="56" style="stroke-width:0;stroke:none;fill:rgba(51,51,51,1.0);font-size:10.2px;font-family:'Roboto Medium',sans-serif">Anzahl Faelle</text><path  d="M 110 51
L 241 51" style="stroke-width:1;stroke:rgba(0,217,101,1.0);fill:none"/><text x="43" y="86" style="stroke-width:0;stroke:none;fill:rgba(51,51,51,1.0);font-size:10.2px;font-family:'Roboto Medium',sans-serif">Anzahl Tot</text><path  d="M 98 81
L 241 81" style="stroke-width:1;stroke:rgba(217,0,116,1.0);fill:none"/></svg>