<svg xmlns="http://www.w3.org/2000/svg" xmlns:xlink="http://www.w3.org/1999/xlink" width="1024" height="400">\n<path  d="M 0 0
L 1024 0
L 1024 400
L 0 400
L 0 0" style="stroke-width:0;stroke:rgba(255,255,255,1.0);fill:rgba(255,255,255,1.0)"/><path  d="M 38 11
L 969 11
L 969 351
L 38 351
L 38 11" style="stroke-width:0;stroke:rgba(255,255,255,1.0);fill:rgba(255,255,255,1.0)"/><path  d="M 38 351
L 969 351" style="stroke-width:1;stroke:rgba(51,51,51,1.0);fill:none"/><path  d="M 38 351
L 38 356" style="stroke-width:1;stroke:rgba(51,51,51,1.0);fill:none"/><text x="5" y="373" style="stroke-width:0;stroke:none;fill:rgba(51,51,51,1.0);font-size:12.8px;font-family:'Roboto Medium',sans-serif">2020-02-26</text><path  d="M 155 351
L 155 356" style="stroke-width:1;stroke:rgba(51,51,51,1.0);fill:none"/><text x="122" y="373" style="stroke-width:0;stroke:none;fill:rgba(51,51,51,1.0);font-size:12.8px;font-family:'Roboto Medium',sans-serif">2020-05-16</text><path  d="M 271 351
L 271 356" style="stroke-width:1;stroke:rgba(51,51,51,1.0);fill:none"/><text x="238" y="373" style="stroke-width:0;stroke:none;fill:rgba(51,51,51,1.0);font-size:12.8px;font-family:'Roboto Medium',sans-serif">2020-08-04</text><path  d="M 388 351
L 388 356" style="stroke-width:1;stroke:rgba(51,51,51,1.0);fill:none"/><text x="355" y="373" style="stroke-width:0;stroke:none;fill:rgba(51,51,51,1.0);font-size:12.8px;font-family:'Roboto Medium',sans-serif">2020-10-24</text><path  d="M 504 351
L 504 356" style="stroke-width:1;stroke:rgba(51,51,51,1.0);fill:none"/><text x="471" y="373" style="stroke-width:0;stroke:none;fill:rgba(51,51,51,1.0);font-size:12.8px;font-family:'Roboto Medium',sans-serif">2021-01-12</text><path  d="M 620 351
L 620 356" style="stroke-width:1;stroke:rgba(51,51,51,1.0);fill:none"/><text x="587" y="373" style="stroke-width:0;stroke:none;fill:rgba(51,51,51,1.0);font-size:12.8px;font-family:'Roboto Medium',sans-serif">2021-04-02</text><path  d="M 737 351
L 737 356" style="stroke-width:1;stroke:rgba(51,51,51,1.0);fill:none"/><text x="704" y="373" style="stroke-width:0;stroke:none;fill:rgba(51,51,51,1.0);font-size:12.8px;font-family:'Roboto Medium',sans-serif">2021-06-22</text><path  d="M 853 351
L 853 356" style="stroke-width:1;stroke:rgba(51,51,51,1.0);fill:none"/><text x="820" y="373" style="stroke-width:0;stroke:none;fill:rgba(51,51,51,1.0);font-size:12.8px;font-family:'Roboto Medium',sans-serif">2021-09-10</text><path  d="M 969 351
L 969 356" style="stroke-width:1;stroke:rgba(51,51,51,1.0);fill:none"/><text x="936" y="373" style="stroke-width:0;stroke:none;fill:rgba(51,51,51,1.0);font-size:12.8px;font-family:'Roboto Medium',sans-serif">2021-11-30</text><text x="485" y="395" style="stroke-width:0;stroke:none;fill:rgba(51,51,51,1.0);font-size:12.8px;font-family:'Roboto Medium',sans-serif">Datum</text><path  d="M 970 351
L 970 11" style="stroke-width:1;stroke:rgba(51,51,51,1.0);fill:none"/><path  d="M 970 351
L 975 351" style="stroke-width:1;stroke:rgba(51,51,51,1.0);fill:none"/><text x="980" y="357" style="stroke-width:0;stroke:none;fill:rgba(51,51,51,1.0);font-size:12.8px;font-family:'Roboto Medium',sans-serif">0.00</text><path  d="M 970 308
L 975 308" style="stroke-width:1;stroke:rgba(51,51,51,1.0);fill:none"/><text x="980" y="314" style="stroke-width:0;stroke:none;fill:rgba(51,51,51,1.0);font-size:12.8px;font-family:'Roboto Medium',sans-serif">122.00</text><path  d="M 970 265
L 975 265" style="stroke-width:1;stroke:rgba(51,51,51,1.0);fill:none"/><text x="980" y="271" style="stroke-width:0;stroke:none;fill:rgba(51,51,51,1.0);font-size:12.8px;font-family:'Roboto Medium',sans-serif">243.00</text><path  d="M 970 223
L 975 223" style="stroke-width:1;stroke:rgba(51,51,51,1.0);fill:none"/><text x="980" y="229" style="stroke-width:0;stroke:none;fill:rgba(51,51,51,1.0);font-size:12.8px;font-family:'Roboto Medium',sans-serif">364.00</text><path  d="M 970 181
L 975 181" style="stroke-width:1;stroke:rgba(51,51,51,1.0);fill:none"/><text x="980" y="187" style="stroke-width:0;stroke:none;fill:rgba(51,51,51,1.0);font-size:12.8px;font-family:'Roboto Medium',sans-serif">485.00</text><path  d="M 970 138
L 975 138" style="stroke-width:1;stroke:rgba(51,51,51,1.0);fill:none"/><text x="980" y="144" style="stroke-width:0;stroke:none;fill:rgba(51,51,51,1.0);font-size:12.8px;font-family:'Roboto Medium',sans-serif">607.00</text><path  d="M 970 95
L 975 95" style="stroke-width:1;stroke:rgba(51,51,51,1.0);fill:none"/><text x="980" y="101" style="stroke-width:0;stroke:none;fill:rgba(51,51,51,1.0);font-size:12.8px;font-family:'Roboto Medium',sans-serif">728.00</text><path  d="M 970 53
L 975 53" style="stroke-width:1;stroke:rgba(51,51,51,1.0);fill:none"/><text x="980" y="59" style="stroke-width:0;stroke:none;fill:rgba(51,51,51,1.0);font-size:12.8px;font-family:'Roboto Medium',sans-serif">849.00</text><path  d="M 970 11
L 975 11" style="stroke-width:1;stroke:rgba(51,51,51,1.0);fill:none"/><text x="980" y="17" style="stroke-width:0;stroke:none;fill:rgba(51,51,51,1.0);font-size:12.8px;font-family:'Roboto Medium',sans-serif">970.00</text><path  d="M 38 351
L 40 351
L 41 351
L 43 351
L 44 351
L 46 351
L 47 351
L 49 351
L 50 351
L 52 351
L 53 350
L 54 349
L 56 349
L 57 349
L 59 347
L 60 347
L 62 345
L 63 345
L 65 343
L 66 342
L 67 342
L 69 341
L 70 334
L 72 332
L 73 328
L 75 330
L 76 330
L 78 320
L 79 320
L 80 315
L 82 314
L 83 315
L 85 312
L 86 309
L 88 314
L 89 311
L 91 321
L 92 322
L 94 320
L 95 321
L 96 325
L 98 325
L 99 327
L 101 328
L 102 330
L 104 335
L 105 336
L 107 337
L 108 342
L 109 344
L 111 345
L 112 345
L 114 345
L 115 345
L 117 345
L 118 345
L 120 345
L 121 345
L 122 346
L 124 347
L 125 347
L 127 348
L 128 349
L 130 349
L 131 349
L 133 349
L 134 349
L 136 349
L 137 349
L 138 349
L 140 349
L 141 349
L 143 349
L 144 349
L 146 349
L 147 349
L 149 350
L 150 350
L 151 350
L 153 350
L 154 350
L 156 350
L 157 350
L 159 350
L 160 350
L 162 350
L 163 351
L 164 351
L 166 351
L 167 351
L 169 351
L 170 351
L 172 351
L 173 351
L 175 351
L 176 351
L 177 351
L 179 351
L 180 351
L 182 351
L 183 351
L 185 351
L 186 351
L 188 351
L 189 351
L 191 351
L 192 351
L 193 351
L 195 351
L 196 351
L 198 351
L 199 351
L 201 351
L 202 351
L 204 351
L 205 351
L 206 351
L 208 351
L 209 351
L 211 351
L 212 351
L 214 351
L 215 351
L 217 351
L 218 351
L 219 351
L 221 351
L 222 351
L 224 350
L 225 350
L 227 350
L 228 350
L 230 350
L 231 350
L 233 350
L 234 350
L 235 350
L 237 350
L 238 350
L 240 350
L 241 350
L 243 350
L 244 351
L 246 351
L 247 351
L 248 351
L 250 350
L 251 350
L 253 350
L 254 350
L 256 350
L 257 350
L 259 350
L 260 351
L 261 351
L 263 351
L 264 351
L 266 351
L 267 351
L 269 351
L 270 351
L 272 351
L 273 351
L 275 351
L 276 351
L 277 351
L 279 351
L 280 351
L 282 351
L 283 351
L 285 351
L 286 351
L 288 351
L 289 350
L 290 350
L 292 350
L 293 350
L 295 349
L 296 348
L 298 347
L 299 348
L 301 347
L 302 347
L 303 346
L 305 347
L 306 348
L 308 349
L 309 349
L 311 350
L 312 350
L 314 350
L 315 349
L 316 349
L 318 349
L 319 348
L 321 348
L 322 348
L 324 347
L 325 347
L 327 347
L 328 347
L 330 347
L 331 345
L 332 344
L 334 343
L 335 342
L 337 341
L 338 341
L 340 340
L 341 341
L 343 341
L 344 344
L 345 344
L 347 344
L 348 344
L 350 344
L 351 344
L 353 344
L 354 344
L 356 344
L 357 345
L 358 345
L 360 346
L 361 345
L 363 345
L 364 344
L 366 344
L 367 344
L 369 343
L 370 341
L 372 340
L 373 339
L 374 336
L 376 330
L 377 327
L 379 322
L 380 323
L 382 323
L 383 320
L 385 317
L 386 316
L 387 307
L 389 307
L 390 296
L 392 288
L 393 277
L 395 266
L 396 243
L 398 236
L 399 227
L 400 232
L 402 221
L 403 215
L 405 185
L 406 180
L 408 176
L 409 161
L 411 149
L 412 133
L 414 119
L 415 131
L 416 135
L 418 144
L 419 162
L 421 165
L 422 162
L 424 178
L 425 189
L 427 195
L 428 190
L 429 194
L 431 201
L 432 210
L 434 200
L 435 204
L 437 207
L 438 210
L 440 212
L 441 212
L 442 224
L 444 221
L 445 226
L 447 228
L 448 229
L 450 231
L 451 228
L 453 241
L 454 258
L 455 260
L 457 264
L 458 274
L 460 265
L 461 268
L 463 240
L 464 241
L 466 246
L 467 250
L 469 255
L 470 262
L 471 265
L 473 284
L 474 281
L 476 283
L 477 293
L 479 293
L 480 291
L 482 291
L 483 292
L 484 295
L 486 298
L 487 300
L 489 295
L 490 296
L 492 289
L 493 286
L 495 293
L 496 286
L 497 280
L 499 280
L 500 282
L 502 288
L 503 299
L 505 299
L 506 308
L 508 310
L 509 315
L 511 318
L 512 318
L 513 316
L 515 320
L 516 316
L 518 315
L 519 315
L 521 314
L 522 313
L 524 312
L 525 308
L 526 308
L 528 307
L 529 304
L 531 305
L 532 304
L 534 302
L 535 298
L 537 298
L 538 294
L 539 297
L 541 286
L 542 280
L 544 279
L 545 270
L 547 265
L 548 262
L 550 251
L 551 251
L 553 253
L 554 259
L 555 267
L 557 260
L 558 252
L 560 261
L 561 260
L 563 264
L 564 262
L 566 245
L 567 260
L 568 265
L 570 245
L 571 250
L 573 243
L 574 237
L 576 253
L 577 256
L 579 246
L 580 263
L 581 258
L 583 256
L 584 265
L 586 269
L 587 262
L 589 263
L 590 258
L 592 264
L 593 274
L 594 274
L 596 260
L 597 254
L 599 264
L 600 259
L 602 256
L 603 255
L 605 236
L 606 234
L 608 239
L 609 247
L 610 257
L 612 246
L 613 246
L 615 261
L 616 277
L 618 271
L 619 264
L 621 250
L 622 265
L 623 262
L 625 263
L 626 259
L 628 274
L 629 265
L 631 281
L 632 284
L 634 286
L 635 281
L 636 279
L 638 272
L 639 284
L 641 279
L 642 275
L 644 277
L 645 281
L 647 284
L 648 283
L 650 284
L 651 284
L 652 285
L 654 284
L 655 284
L 657 281
L 658 277
L 660 272
L 661 280
L 663 280
L 664 277
L 665 278
L 667 280
L 668 286
L 670 294
L 671 292
L 673 295
L 674 304
L 676 310
L 677 316
L 678 324
L 680 325
L 681 328
L 683 328
L 684 328
L 686 327
L 687 324
L 689 325
L 690 322
L 692 319
L 693 320
L 694 320
L 696 321
L 697 323
L 699 324
L 700 326
L 702 328
L 703 328
L 705 332
L 706 333
L 707 337
L 709 337
L 710 340
L 712 344
L 713 344
L 715 344
L 716 345
L 718 345
L 719 345
L 720 345
L 722 346
L 723 347
L 725 348
L 726 348
L 728 349
L 729 349
L 731 349
L 732 349
L 733 349
L 735 349
L 736 349
L 738 349
L 739 350
L 741 349
L 742 349
L 744 349
L 745 349
L 747 350
L 748 350
L 749 350
L 751 350
L 752 350
L 754 351
L 755 351
L 757 351
L 758 351
L 760 351
L 761 351
L 762 351
L 764 350
L 765 350
L 767 350
L 768 350
L 770 349
L 771 349
L 773 348
L 774 348
L 775 348
L 777 349
L 778 347
L 780 348
L 781 347
L 783 348
L 784 348
L 786 347
L 787 345
L 789 347
L 790 346
L 791 344
L 793 343
L 794 343
L 796 342
L 797 342
L 799 340
L 800 340
L 802 339
L 803 340
L 804 339
L 806 340
L 807 339
L 809 335
L 810 335
L 812 337
L 813 337
L 815 338
L 816 338
L 817 339
L 819 344
L 820 343
L 822 342
L 823 341
L 825 341
L 826 341
L 828 339
L 829 335
L 831 332
L 832 330
L 833 329
L 835 327
L 836 325
L 838 323
L 839 325
L 841 327
L 842 330
L 844 328
L 845 330
L 846 329
L 848 333
L 849 328
L 851 326
L 852 325
L 854 325
L 855 323
L 857 322
L 858 318
L 859 323
L 861 323
L 862 320
L 864 317
L 865 319
L 867 321
L 868 323
L 870 319
L 871 320
L 872 320
L 874 325
L 875 323
L 877 324
L 878 323
L 880 325
L 881 323
L 883 325
L 884 320
L 886 320
L 887 318
L 888 311
L 890 313
L 891 309
L 893 307
L 894 306
L 896 307
L 897 308
L 899 311
L 900 304
L 901 307
L 903 302
L 904 298
L 906 293
L 907 288
L 909 289
L 910 276
L 912 267
L 913 268
L 914 262
L 916 250
L 917 251
L 919 242
L 920 252
L 922 251
L 923 239
L 925 236
L 926 226
L 928 230
L 929 210
L 930 193
L 932 169
L 933 151
L 935 150
L 936 133
L 938 119
L 939 112
L 941 103
L 942 102
L 943 112
L 945 104
L 946 130
L 948 123
L 949 123
L 951 138
L 952 129
L 954 118
L 955 92
L 956 79
L 958 79
L 959 83
L 961 41
L 962 51
L 964 36
L 965 53
L 967 45
L 968 20
L 969 14" style="stroke-width:1;stroke:rgba(0,116,217,1.0);fill:none"/><path  d="M 38 351
L 40 351
L 41 351
L 43 351
L 44 351
L 46 351
L 47 351
L 49 351
L 50 351
L 52 351
L 53 350
L 54 350
L 56 350
L 57 351
L 59 349
L 60 350
L 62 349
L 63 350
L 65 348
L 66 349
L 67 350
L 69 349
L 70 344
L 72 348
L 73 346
L 75 350
L 76 349
L 78 341
L 79 349
L 80 339
L 82 347
L 83 347
L 85 347
L 86 346
L 88 346
L 89 347
L 91 347
L 92 348
L 94 344
L 95 349
L 96 349
L 98 346
L 99 348
L 101 348
L 102 350
L 104 349
L 105 350
L 107 351
L 108 350
L 109 350
L 111 350
L 112 349
L 114 349
L 115 350
L 117 350
L 118 350
L 120 351
L 121 350
L 122 350
L 124 350
L 125 351
L 127 350
L 128 351
L 130 351
L 131 350
L 133 351
L 134 351
L 136 351
L 137 350
L 138 350
L 140 351
L 141 350
L 143 350
L 144 351
L 146 351
L 147 351
L 149 351
L 150 351
L 151 351
L 153 350
L 154 351
L 156 351
L 157 351
L 159 351
L 160 351
L 162 351
L 163 351
L 164 351
L 166 351
L 167 351
L 169 351
L 170 351
L 172 351
L 173 351
L 175 351
L 176 351
L 177 351
L 179 351
L 180 351
L 182 351
L 183 351
L 185 351
L 186 351
L 188 351
L 189 351
L 191 351
L 192 351
L 193 351
L 195 351
L 196 351
L 198 351
L 199 351
L 201 351
L 202 351
L 204 351
L 205 351
L 206 351
L 208 351
L 209 351
L 211 351
L 212 351
L 214 351
L 215 351
L 217 351
L 218 351
L 219 351
L 221 351
L 222 351
L 224 350
L 225 351
L 227 351
L 228 351
L 230 351
L 231 351
L 233 351
L 234 350
L 235 351
L 237 351
L 238 351
L 240 351
L 241 351
L 243 351
L 244 351
L 246 351
L 247 351
L 248 351
L 250 350
L 251 351
L 253 351
L 254 351
L 256 351
L 257 351
L 259 351
L 260 351
L 261 351
L 263 351
L 264 351
L 266 351
L 267 351
L 269 351
L 270 351
L 272 351
L 273 351
L 275 351
L 276 351
L 277 351
L 279 351
L 280 351
L 282 351
L 283 351
L 285 351
L 286 351
L 288 351
L 289 350
L 290 351
L 292 350
L 293 351
L 295 350
L 296 349
L 298 350
L 299 351
L 301 349
L 302 350
L 303 350
L 305 351
L 306 351
L 308 351
L 309 351
L 311 351
L 312 351
L 314 350
L 315 350
L 316 350
L 318 350
L 319 350
L 321 351
L 322 351
L 324 349
L 325 350
L 327 350
L 328 350
L 330 350
L 331 349
L 332 349
L 334 348
L 335 349
L 337 349
L 338 350
L 340 349
L 341 350
L 343 349
L 344 351
L 345 349
L 347 349
L 348 350
L 350 349
L 351 350
L 353 349
L 354 351
L 356 349
L 357 350
L 358 350
L 360 350
L 361 350
L 363 349
L 364 349
L 366 349
L 367 350
L 369 349
L 370 348
L 372 349
L 373 349
L 374 346
L 376 344
L 377 347
L 379 345
L 380 349
L 382 349
L 383 346
L 385 343
L 386 343
L 387 338
L 389 345
L 390 339
L 392 342
L 393 336
L 395 333
L 396 322
L 398 332
L 399 337
L 400 343
L 402 332
L 403 331
L 405 306
L 406 318
L 408 329
L 409 323
L 411 332
L 412 317
L 414 319
L 415 317
L 416 322
L 418 336
L 419 340
L 421 335
L 422 314
L 424 333
L 425 326
L 427 327
L 428 332
L 429 343
L 431 341
L 432 323
L 434 324
L 435 329
L 437 331
L 438 335
L 440 345
L 441 341
L 442 334
L 444 321
L 445 334
L 447 333
L 448 335
L 450 346
L 451 339
L 453 345
L 454 337
L 455 336
L 457 336
L 458 344
L 460 339
L 461 342
L 463 319
L 464 338
L 466 341
L 467 339
L 469 348
L 470 346
L 471 345
L 473 337
L 474 335
L 476 342
L 477 349
L 479 348
L 480 344
L 482 344
L 483 338
L 484 338
L 486 346
L 487 350
L 489 343
L 490 345
L 492 339
L 493 334
L 495 345
L 496 339
L 497 345
L 499 343
L 500 346
L 502 344
L 503 344
L 505 345
L 506 347
L 508 347
L 509 348
L 511 349
L 512 344
L 513 342
L 515 348
L 516 344
L 518 346
L 519 348
L 521 348
L 522 343
L 524 341
L 525 344
L 526 344
L 528 346
L 529 345
L 531 349
L 532 342
L 534 340
L 535 340
L 537 344
L 538 342
L 539 348
L 541 340
L 542 336
L 544 338
L 545 333
L 547 340
L 548 339
L 550 338
L 551 339
L 553 338
L 554 343
L 555 340
L 557 333
L 558 332
L 560 346
L 561 339
L 563 342
L 564 342
L 566 325
L 567 346
L 568 338
L 570 328
L 571 343
L 573 335
L 574 336
L 576 340
L 577 348
L 579 329
L 580 343
L 581 339
L 583 333
L 584 345
L 586 343
L 587 342
L 589 330
L 590 338
L 592 344
L 593 342
L 594 345
L 596 331
L 597 336
L 599 339
L 600 334
L 602 341
L 603 341
L 605 328
L 606 329
L 608 341
L 609 346
L 610 342
L 612 331
L 613 341
L 615 342
L 616 344
L 618 335
L 619 340
L 621 329
L 622 345
L 623 338
L 625 343
L 626 341
L 628 348
L 629 332
L 631 344
L 632 347
L 634 340
L 635 338
L 636 339
L 638 342
L 639 343
L 641 340
L 642 343
L 644 341
L 645 342
L 647 341
L 648 341
L 650 344
L 651 339
L 652 345
L 654 341
L 655 342
L 657 339
L 658 336
L 660 340
L 661 347
L 663 344
L 664 339
L 665 342
L 667 342
L 668 341
L 670 347
L 671 346
L 673 347
L 674 347
L 676 348
L 677 348
L 678 348
L 680 348
L 681 348
L 683 347
L 684 347
L 686 347
L 687 345
L 689 348
L 690 346
L 692 345
L 693 349
L 694 346
L 696 348
L 697 347
L 699 349
L 700 347
L 702 347
L 703 349
L 705 349
L 706 349
L 707 350
L 709 350
L 710 350
L 712 350
L 713 349
L 715 350
L 716 350
L 718 349
L 719 351
L 720 350
L 722 351
L 723 351
L 725 351
L 726 350
L 728 350
L 729 350
L 731 351
L 732 351
L 733 350
L 735 351
L 736 350
L 738 351
L 739 351
L 741 350
L 742 351
L 744 350
L 745 351
L 747 351
L 748 351
L 749 351
L 751 351
L 752 351
L 754 351
L 755 351
L 757 351
L 758 351
L 760 351
L 761 351
L 762 351
L 764 350
L 765 351
L 767 350
L 768 351
L 770 349
L 771 351
L 773 350
L 774 351
L 775 351
L 777 351
L 778 349
L 780 350
L 781 350
L 783 350
L 784 351
L 786 349
L 787 349
L 789 351
L 790 349
L 791 348
L 793 349
L 794 350
L 796 348
L 797 349
L 799 349
L 800 349
L 802 348
L 803 350
L 804 348
L 806 349
L 807 349
L 809 345
L 810 350
L 812 350
L 813 350
L 815 349
L 816 349
L 817 349
L 819 350
L 820 349
L 822 349
L 823 349
L 825 349
L 826 350
L 828 347
L 829 346
L 831 347
L 832 347
L 833 348
L 835 347
L 836 348
L 838 346
L 839 348
L 841 349
L 842 349
L 844 347
L 845 349
L 846 347
L 848 349
L 849 344
L 851 346
L 852 348
L 854 347
L 855 348
L 857 346
L 858 345
L 859 348
L 861 346
L 862 346
L 864 345
L 865 350
L 867 347
L 868 346
L 870 345
L 871 347
L 872 345
L 874 350
L 875 348
L 877 348
L 878 346
L 880 346
L 881 346
L 883 347
L 884 346
L 886 348
L 887 346
L 888 340
L 890 348
L 891 342
L 893 345
L 894 345
L 896 348
L 897 347
L 899 343
L 900 341
L 901 345
L 903 340
L 904 341
L 906 344
L 907 342
L 909 344
L 910 329
L 912 337
L 913 341
L 914 336
L 916 333
L 917 343
L 919 336
L 920 339
L 922 336
L 923 330
L 925 333
L 926 325
L 928 346
L 929 318
L 930 323
L 932 314
L 933 313
L 935 332
L 936 310
L 938 333
L 939 312
L 941 315
L 942 313
L 943 322
L 945 325
L 946 334
L 948 327
L 949 311
L 951 329
L 952 305
L 954 312
L 955 301
L 956 322
L 958 328
L 959 314
L 961 291
L 962 313
L 964 299
L 965 316
L 967 315
L 968 305
L 969 309" style="stroke-width:1;stroke:rgba(0,217,101,1.0);fill:none"/><path  d="M 38 351
L 40 351
L 41 351
L 43 351
L 44 351
L 46 351
L 47 351
L 49 351
L 50 351
L 52 351
L 53 351
L 54 351
L 56 351
L 57 351
L 59 351
L 60 351
L 62 351
L 63 351
L 65 351
L 66 350
L 67 351
L 69 350
L 70 351
L 72 351
L 73 350
L 75 350
L 76 351
L 78 351
L 79 350
L 80 350
L 82 349
L 83 350
L 85 350
L 86 350
L 88 351
L 89 350
L 91 349
L 92 350
L 94 350
L 95 351
L 96 349
L 98 350
L 99 350
L 101 351
L 102 350
L 104 349
L 105 351
L 107 351
L 108 351
L 109 350
L 111 351
L 112 351
L 114 351
L 115 350
L 117 351
L 118 351
L 120 350
L 121 351
L 122 351
L 124 351
L 125 351
L 127 351
L 128 350
L 130 351
L 131 351
L 133 351
L 134 351
L 136 351
L 137 351
L 138 351
L 140 351
L 141 351
L 143 351
L 144 351
L 146 351
L 147 351
L 149 351
L 150 351
L 151 351
L 153 351
L 154 351
L 156 351
L 157 350
L 159 351
L 160 351
L 162 351
L 163 351
L 164 351
L 166 351
L 167 351
L 169 351
L 170 351
L 172 351
L 173 351
L 175 351
L 176 351
L 177 351
L 179 351
L 180 351
L 182 351
L 183 351
L 185 351
L 186 351
L 188 351
L 189 351
L 191 351
L 192 351
L 193 351
L 195 351
L 196 351
L 198 351
L 199 351
L 201 351
L 202 351
L 204 351
L 205 351
L 206 351
L 208 351
L 209 351
L 211 351
L 212 351
L 214 351
L 215 351
L 217 351
L 218 351
L 219 351
L 221 351
L 222 351
L 224 350
L 225 351
L 227 351
L 228 351
L 230 351
L 231 351
L 233 351
L 234 351
L 235 351
L 237 351
L 238 351
L 240 351
L 241 351
L 243 351
L 244 351
L 246 351
L 247 351
L 248 351
L 250 351
L 251 351
L 253 351
L 254 351
L 256 351
L 257 351
L 259 351
L 260 351
L 261 351
L 263 351
L 264 351
L 266 351
L 267 351
L 269 351
L 270 351
L 272 351
L 273 351
L 275 351
L 276 351
L 277 351
L 279 351
L 280 351
L 282 351
L 283 351
L 285 351
L 286 351
L 288 351
L 289 351
L 290 351
L 292 351
L 293 351
L 295 351
L 296 351
L 298 351
L 299 351
L 301 351
L 302 351
L 303 351
L 305 351
L 306 351
L 308 351
L 309 351
L 311 351
L 312 351
L 314 351
L 315 351
L 316 351
L 318 351
L 319 351
L 321 351
L 322 351
L 324 351
L 325 351
L 327 351
L 328 351
L 330 351
L 331 351
L 332 351
L 334 351
L 335 351
L 337 351
L 338 350
L 340 351
L 341 351
L 343 350
L 344 351
L 345 351
L 347 351
L 348 351
L 350 351
L 351 351
L 353 351
L 354 351
L 356 351
L 357 351
L 358 351
L 360 351
L 361 351
L 363 351
L 364 351
L 366 351
L 367 351
L 369 351
L 370 351
L 372 351
L 373 351
L 374 351
L 376 351
L 377 350
L 379 351
L 380 350
L 382 351
L 383 351
L 385 351
L 386 351
L 387 350
L 389 351
L 390 350
L 392 351
L 393 350
L 395 350
L 396 351
L 398 350
L 399 351
L 400 351
L 402 350
L 403 351
L 405 351
L 406 350
L 408 350
L 409 351
L 411 350
L 412 350
L 414 350
L 415 351
L 416 349
L 418 351
L 419 350
L 421 348
L 422 350
L 424 351
L 425 350
L 427 351
L 428 351
L 429 350
L 431 349
L 432 350
L 434 350
L 435 349
L 437 350
L 438 350
L 440 351
L 441 351
L 442 351
L 444 350
L 445 349
L 447 351
L 448 350
L 450 350
L 451 350
L 453 349
L 454 350
L 455 350
L 457 351
L 458 350
L 460 350
L 461 350
L 463 350
L 464 351
L 466 350
L 467 350
L 469 349
L 470 349
L 471 350
L 473 350
L 474 349
L 476 350
L 477 350
L 479 350
L 480 350
L 482 350
L 483 351
L 484 351
L 486 351
L 487 351
L 489 351
L 490 351
L 492 349
L 493 351
L 495 350
L 496 351
L 497 351
L 499 351
L 500 351
L 502 350
L 503 349
L 505 350
L 506 351
L 508 351
L 509 351
L 511 350
L 512 350
L 513 351
L 515 351
L 516 350
L 518 351
L 519 350
L 521 350
L 522 350
L 524 350
L 525 350
L 526 350
L 528 351
L 529 351
L 531 351
L 532 351
L 534 351
L 535 351
L 537 351
L 538 351
L 539 351
L 541 351
L 542 351
L 544 350
L 545 351
L 547 351
L 548 351
L 550 351
L 551 351
L 553 350
L 554 350
L 555 351
L 557 351
L 558 350
L 560 350
L 561 351
L 563 351
L 564 350
L 566 351
L 567 351
L 568 351
L 570 351
L 571 351
L 573 351
L 574 351
L 576 351
L 577 350
L 579 350
L 580 351
L 581 351
L 583 351
L 584 351
L 586 350
L 587 351
L 589 351
L 590 350
L 592 350
L 593 351
L 594 351
L 596 351
L 597 350
L 599 350
L 600 351
L 602 350
L 603 350
L 605 351
L 606 351
L 608 350
L 609 351
L 610 351
L 612 351
L 613 350
L 615 351
L 616 351
L 618 351
L 619 350
L 621 351
L 622 351
L 623 351
L 625 351
L 626 351
L 628 351
L 629 351
L 631 350
L 632 351
L 634 351
L 635 350
L 636 351
L 638 351
L 639 351
L 641 351
L 642 351
L 644 350
L 645 349
L 647 351
L 648 350
L 650 351
L 651 351
L 652 351
L 654 351
L 655 351
L 657 351
L 658 351
L 660 350
L 661 351
L 663 350
L 664 351
L 665 351
L 667 351
L 668 351
L 670 351
L 671 351
L 673 351
L 674 351
L 676 350
L 677 351
L 678 351
L 680 350
L 681 351
L 683 351
L 684 351
L 686 351
L 687 351
L 689 351
L 690 351
L 692 351
L 693 351
L 694 351
L 696 351
L 697 351
L 699 351
L 700 351
L 702 351
L 703 351
L 705 351
L 706 351
L 707 351
L 709 350
L 710 351
L 712 351
L 713 351
L 715 351
L 716 351
L 718 351
L 719 351
L 720 351
L 722 351
L 723 351
L 725 351
L 726 351
L 728 351
L 729 351
L 731 351
L 732 351
L 733 351
L 735 351
L 736 351
L 738 351
L 739 351
L 741 351
L 742 351
L 744 351
L 745 351
L 747 351
L 748 351
L 749 351
L 751 351
L 752 351
L 754 351
L 755 351
L 757 351
L 758 351
L 760 351
L 761 351
L 762 351
L 764 351
L 765 351
L 767 351
L 768 351
L 770 351
L 771 351
L 773 351
L 774 351
L 775 351
L 777 351
L 778 351
L 780 351
L 781 351
L 783 351
L 784 351
L 786 351
L 787 351
L 789 351
L 790 351
L 791 351
L 793 351
L 794 351
L 796 351
L 797 351
L 799 351
L 800 351
L 802 351
L 803 351
L 804 351
L 806 351
L 807 350
L 809 351
L 810 350
L 812 351
L 813 351
L 815 351
L 816 351
L 817 351
L 819 351
L 820 351
L 822 351
L 823 350
L 825 351
L 826 351
L 828 351
L 829 351
L 831 351
L 832 351
L 833 351
L 835 351
L 836 351
L 838 351
L 839 351
L 841 350
L 842 351
L 844 351
L 845 351
L 846 351
L 848 351
L 849 351
L 851 351
L 852 351
L 854 350
L 855 351
L 857 351
L 858 351
L 859 351
L 861 351
L 862 351
L 864 351
L 865 351
L 867 350
L 868 351
L 870 351
L 871 351
L 872 351
L 874 351
L 875 351
L 877 351
L 878 351
L 880 351
L 881 351
L 883 351
L 884 351
L 886 351
L 887 351
L 888 351
L 890 351
L 891 351
L 893 351
L 894 351
L 896 351
L 897 351
L 899 350
L 900 351
L 901 351
L 903 351
L 904 351
L 906 350
L 907 351
L 909 351
L 910 351
L 912 350
L 913 351
L 914 351
L 916 351
L 917 350
L 919 351
L 920 351
L 922 351
L 923 351
L 925 351
L 926 351
L 928 351
L 929 351
L 930 351
L 932 351
L 933 351
L 935 350
L 936 350
L 938 350
L 939 351
L 941 351
L 942 351
L 943 350
L 945 350
L 946 350
L 948 351
L 949 351
L 951 351
L 952 351
L 954 350
L 955 351
L 956 351
L 958 351
L 959 351
L 961 350
L 962 350
L 964 350
L 965 351
L 967 351
L 968 351
L 969 351" style="stroke-width:1;stroke:rgba(217,0,116,1.0);fill:none"/><text x="342" y="33" style="stroke-width:0;stroke:none;fill:rgba(51,51,51,1.0);font-size:23.0px;font-family:'Roboto Medium',sans-serif">Hartberg-Fürstenfeld 30.11.2021</text><path  d="M 38 11
L 251 11
L 251 91
L 38 91
L 38 11" style="stroke-width:1;stroke:rgba(51,51,51,1.0);fill:rgba(255,255,255,1.0)"/><text x="43" y="26" style="stroke-width:0;stroke:none;fill:rgba(51,51,51,1.0);font-size:10.2px;font-family:'Roboto Medium',sans-serif">Sieben Tage Durschnitt Inzidenz Fälle</text><path  d="M 221 21
L 241 21" style="stroke-width:1;stroke:rgba(0,116,217,1.0);fill:none"/><text x="43" y="56" style="stroke-width:0;stroke:none;fill:rgba(51,51,51,1.0);font-size:10.2px;font-family:'Roboto Medium',sans-serif">Anzahl Faelle</text><path  d="M 110 51
L 241 51" style="stroke-width:1;stroke:rgba(0,217,101,1.0);fill:none"/><text x="43" y="86" style="stroke-width:0;stroke:none;fill:rgba(51,51,51,1.0);font-size:10.2px;font-family:'Roboto Medium',sans-serif">Anzahl Tot</text><path  d="M 98 81
L 241 81" style="stroke-width:1;stroke:rgba(217,0,116,1.0);fill:none"/></svg>