<svg xmlns="http://www.w3.org/2000/svg" xmlns:xlink="http://www.w3.org/1999/xlink" width="1024" height="400">\n<path  d="M 0 0
L 1024 0
L 1024 400
L 0 400
L 0 0" style="stroke-width:0;stroke:rgba(255,255,255,1.0);fill:rgba(255,255,255,1.0)"/><path  d="M 38 11
L 969 11
L 969 351
L 38 351
L 38 11" style="stroke-width:0;stroke:rgba(255,255,255,1.0);fill:rgba(255,255,255,1.0)"/><path  d="M 38 351
L 969 351" style="stroke-width:1;stroke:rgba(51,51,51,1.0);fill:none"/><path  d="M 38 351
L 38 356" style="stroke-width:1;stroke:rgba(51,51,51,1.0);fill:none"/><text x="5" y="373" style="stroke-width:0;stroke:none;fill:rgba(51,51,51,1.0);font-size:12.8px;font-family:'Roboto Medium',sans-serif">2020-02-26</text><path  d="M 155 351
L 155 356" style="stroke-width:1;stroke:rgba(51,51,51,1.0);fill:none"/><text x="122" y="373" style="stroke-width:0;stroke:none;fill:rgba(51,51,51,1.0);font-size:12.8px;font-family:'Roboto Medium',sans-serif">2020-04-28</text><path  d="M 271 351
L 271 356" style="stroke-width:1;stroke:rgba(51,51,51,1.0);fill:none"/><text x="238" y="373" style="stroke-width:0;stroke:none;fill:rgba(51,51,51,1.0);font-size:12.8px;font-family:'Roboto Medium',sans-serif">2020-06-30</text><path  d="M 388 351
L 388 356" style="stroke-width:1;stroke:rgba(51,51,51,1.0);fill:none"/><text x="355" y="373" style="stroke-width:0;stroke:none;fill:rgba(51,51,51,1.0);font-size:12.8px;font-family:'Roboto Medium',sans-serif">2020-08-31</text><path  d="M 504 351
L 504 356" style="stroke-width:1;stroke:rgba(51,51,51,1.0);fill:none"/><text x="471" y="373" style="stroke-width:0;stroke:none;fill:rgba(51,51,51,1.0);font-size:12.8px;font-family:'Roboto Medium',sans-serif">2020-11-02</text><path  d="M 620 351
L 620 356" style="stroke-width:1;stroke:rgba(51,51,51,1.0);fill:none"/><text x="587" y="373" style="stroke-width:0;stroke:none;fill:rgba(51,51,51,1.0);font-size:12.8px;font-family:'Roboto Medium',sans-serif">2021-01-04</text><path  d="M 737 351
L 737 356" style="stroke-width:1;stroke:rgba(51,51,51,1.0);fill:none"/><text x="704" y="373" style="stroke-width:0;stroke:none;fill:rgba(51,51,51,1.0);font-size:12.8px;font-family:'Roboto Medium',sans-serif">2021-03-07</text><path  d="M 853 351
L 853 356" style="stroke-width:1;stroke:rgba(51,51,51,1.0);fill:none"/><text x="820" y="373" style="stroke-width:0;stroke:none;fill:rgba(51,51,51,1.0);font-size:12.8px;font-family:'Roboto Medium',sans-serif">2021-05-09</text><path  d="M 969 351
L 969 356" style="stroke-width:1;stroke:rgba(51,51,51,1.0);fill:none"/><text x="936" y="373" style="stroke-width:0;stroke:none;fill:rgba(51,51,51,1.0);font-size:12.8px;font-family:'Roboto Medium',sans-serif">2021-07-11</text><text x="485" y="395" style="stroke-width:0;stroke:none;fill:rgba(51,51,51,1.0);font-size:12.8px;font-family:'Roboto Medium',sans-serif">Datum</text><path  d="M 970 351
L 970 11" style="stroke-width:1;stroke:rgba(51,51,51,1.0);fill:none"/><path  d="M 970 351
L 975 351" style="stroke-width:1;stroke:rgba(51,51,51,1.0);fill:none"/><text x="980" y="357" style="stroke-width:0;stroke:none;fill:rgba(51,51,51,1.0);font-size:12.8px;font-family:'Roboto Medium',sans-serif">0.00</text><path  d="M 970 308
L 975 308" style="stroke-width:1;stroke:rgba(51,51,51,1.0);fill:none"/><text x="980" y="314" style="stroke-width:0;stroke:none;fill:rgba(51,51,51,1.0);font-size:12.8px;font-family:'Roboto Medium',sans-serif">83.00</text><path  d="M 970 266
L 975 266" style="stroke-width:1;stroke:rgba(51,51,51,1.0);fill:none"/><text x="980" y="272" style="stroke-width:0;stroke:none;fill:rgba(51,51,51,1.0);font-size:12.8px;font-family:'Roboto Medium',sans-serif">165.00</text><path  d="M 970 223
L 975 223" style="stroke-width:1;stroke:rgba(51,51,51,1.0);fill:none"/><text x="980" y="229" style="stroke-width:0;stroke:none;fill:rgba(51,51,51,1.0);font-size:12.8px;font-family:'Roboto Medium',sans-serif">248.00</text><path  d="M 970 181
L 975 181" style="stroke-width:1;stroke:rgba(51,51,51,1.0);fill:none"/><text x="980" y="187" style="stroke-width:0;stroke:none;fill:rgba(51,51,51,1.0);font-size:12.8px;font-family:'Roboto Medium',sans-serif">330.00</text><path  d="M 970 138
L 975 138" style="stroke-width:1;stroke:rgba(51,51,51,1.0);fill:none"/><text x="980" y="144" style="stroke-width:0;stroke:none;fill:rgba(51,51,51,1.0);font-size:12.8px;font-family:'Roboto Medium',sans-serif">413.00</text><path  d="M 970 96
L 975 96" style="stroke-width:1;stroke:rgba(51,51,51,1.0);fill:none"/><text x="980" y="102" style="stroke-width:0;stroke:none;fill:rgba(51,51,51,1.0);font-size:12.8px;font-family:'Roboto Medium',sans-serif">495.00</text><path  d="M 970 53
L 975 53" style="stroke-width:1;stroke:rgba(51,51,51,1.0);fill:none"/><text x="980" y="59" style="stroke-width:0;stroke:none;fill:rgba(51,51,51,1.0);font-size:12.8px;font-family:'Roboto Medium',sans-serif">578.00</text><path  d="M 970 11
L 975 11" style="stroke-width:1;stroke:rgba(51,51,51,1.0);fill:none"/><text x="980" y="17" style="stroke-width:0;stroke:none;fill:rgba(51,51,51,1.0);font-size:12.8px;font-family:'Roboto Medium',sans-serif">660.00</text><path  d="M 38 351
L 40 351
L 42 351
L 44 351
L 46 351
L 48 351
L 50 351
L 52 351
L 53 351
L 55 351
L 57 349
L 59 349
L 61 348
L 63 348
L 65 346
L 66 345
L 68 343
L 70 343
L 72 339
L 74 339
L 76 337
L 78 336
L 79 327
L 81 324
L 83 317
L 85 321
L 87 320
L 89 306
L 91 306
L 92 298
L 94 296
L 96 298
L 98 293
L 100 289
L 102 296
L 104 293
L 105 307
L 107 308
L 109 304
L 111 307
L 113 313
L 115 314
L 117 316
L 118 318
L 120 320
L 122 328
L 124 329
L 126 331
L 128 337
L 130 340
L 131 343
L 133 342
L 135 343
L 137 343
L 139 342
L 141 342
L 143 343
L 144 343
L 146 344
L 148 345
L 150 346
L 152 347
L 154 348
L 156 348
L 157 348
L 159 348
L 161 349
L 163 349
L 165 349
L 167 348
L 169 348
L 170 348
L 172 348
L 174 348
L 176 348
L 178 348
L 180 349
L 182 349
L 183 350
L 185 350
L 187 350
L 189 350
L 191 350
L 193 350
L 195 350
L 196 350
L 198 351
L 200 351
L 202 351
L 204 351
L 206 351
L 208 351
L 209 351
L 211 351
L 213 351
L 215 351
L 217 351
L 219 351
L 221 351
L 222 351
L 224 351
L 226 351
L 228 351
L 230 351
L 232 351
L 234 351
L 235 351
L 237 351
L 239 351
L 241 351
L 243 351
L 245 351
L 247 351
L 248 351
L 250 351
L 252 351
L 254 351
L 256 351
L 258 351
L 260 351
L 261 351
L 263 351
L 265 351
L 267 351
L 269 351
L 271 351
L 273 351
L 275 351
L 276 350
L 278 350
L 280 350
L 282 350
L 284 350
L 286 350
L 288 350
L 289 350
L 291 350
L 293 350
L 295 350
L 297 350
L 299 350
L 301 350
L 302 351
L 304 351
L 306 351
L 308 351
L 310 350
L 312 350
L 314 350
L 315 350
L 317 350
L 319 350
L 321 350
L 323 351
L 325 351
L 327 351
L 328 351
L 330 351
L 332 351
L 334 351
L 336 351
L 338 351
L 340 351
L 341 351
L 343 351
L 345 351
L 347 351
L 349 351
L 351 351
L 353 351
L 354 351
L 356 351
L 358 351
L 360 350
L 362 350
L 364 349
L 366 349
L 367 349
L 369 347
L 371 346
L 373 347
L 375 345
L 377 345
L 379 344
L 380 345
L 382 347
L 384 348
L 386 348
L 388 349
L 390 350
L 392 349
L 393 349
L 395 348
L 397 348
L 399 347
L 401 347
L 403 347
L 405 346
L 406 345
L 408 345
L 410 345
L 412 345
L 414 343
L 416 341
L 418 340
L 419 339
L 421 337
L 423 337
L 425 335
L 427 336
L 429 336
L 431 340
L 432 341
L 434 341
L 436 341
L 438 341
L 440 341
L 442 341
L 444 341
L 445 341
L 447 343
L 449 343
L 451 344
L 453 343
L 455 343
L 457 341
L 458 341
L 460 341
L 462 339
L 464 336
L 466 335
L 468 334
L 470 329
L 471 320
L 473 315
L 475 309
L 477 310
L 479 310
L 481 306
L 483 302
L 484 300
L 486 287
L 488 286
L 490 271
L 492 259
L 494 243
L 496 227
L 497 193
L 499 183
L 501 170
L 503 177
L 505 160
L 507 151
L 509 106
L 511 100
L 512 95
L 514 73
L 516 55
L 518 30
L 520 11
L 522 28
L 524 34
L 525 46
L 527 73
L 529 78
L 531 75
L 533 99
L 535 114
L 537 123
L 538 115
L 540 121
L 542 132
L 544 145
L 546 130
L 548 134
L 550 140
L 551 144
L 553 146
L 555 146
L 557 164
L 559 159
L 561 167
L 563 170
L 564 171
L 566 174
L 568 171
L 570 190
L 572 215
L 574 218
L 576 223
L 577 237
L 579 225
L 581 230
L 583 188
L 585 188
L 587 197
L 589 202
L 590 209
L 592 220
L 594 224
L 596 252
L 598 249
L 600 251
L 602 266
L 603 266
L 605 264
L 607 263
L 609 264
L 611 269
L 613 274
L 615 276
L 616 269
L 618 270
L 620 261
L 622 255
L 624 266
L 626 256
L 628 248
L 629 248
L 631 250
L 633 260
L 635 275
L 637 275
L 639 288
L 641 291
L 642 298
L 644 303
L 646 303
L 648 300
L 650 306
L 652 300
L 654 298
L 655 298
L 657 297
L 659 296
L 661 294
L 663 288
L 665 287
L 667 286
L 668 282
L 670 283
L 672 281
L 674 279
L 676 273
L 678 273
L 680 268
L 681 273
L 683 257
L 685 248
L 687 246
L 689 233
L 691 226
L 693 221
L 694 206
L 696 205
L 698 208
L 700 216
L 702 228
L 704 217
L 706 206
L 707 219
L 709 217
L 711 223
L 713 220
L 715 195
L 717 216
L 719 225
L 720 195
L 722 202
L 724 191
L 726 183
L 728 208
L 730 211
L 732 198
L 733 222
L 735 215
L 737 212
L 739 225
L 741 231
L 743 220
L 745 221
L 747 214
L 748 223
L 750 238
L 752 239
L 754 219
L 756 210
L 758 224
L 760 217
L 761 212
L 763 210
L 765 182
L 767 179
L 769 187
L 771 199
L 773 212
L 774 196
L 776 196
L 778 219
L 780 242
L 782 233
L 784 223
L 786 202
L 787 225
L 789 220
L 791 221
L 793 216
L 795 237
L 797 225
L 799 249
L 800 252
L 802 256
L 804 248
L 806 245
L 808 235
L 810 252
L 812 245
L 813 239
L 815 241
L 817 248
L 819 252
L 821 250
L 823 253
L 825 252
L 826 254
L 828 253
L 830 252
L 832 249
L 834 242
L 836 235
L 838 247
L 839 246
L 841 242
L 843 243
L 845 247
L 847 254
L 849 266
L 851 264
L 852 268
L 854 282
L 856 291
L 858 300
L 860 311
L 862 313
L 864 317
L 865 318
L 867 318
L 869 316
L 871 312
L 873 312
L 875 308
L 877 304
L 878 306
L 880 305
L 882 307
L 884 310
L 886 311
L 888 314
L 890 317
L 891 318
L 893 323
L 895 325
L 897 330
L 899 331
L 901 335
L 903 340
L 904 341
L 906 341
L 908 343
L 910 342
L 912 343
L 914 343
L 916 344
L 917 345
L 919 347
L 921 347
L 923 348
L 925 348
L 927 349
L 929 349
L 930 348
L 932 348
L 934 348
L 936 349
L 938 349
L 940 349
L 942 349
L 943 349
L 945 349
L 947 349
L 949 349
L 951 349
L 953 350
L 955 350
L 956 351
L 958 351
L 960 351
L 962 351
L 964 351
L 966 351
L 968 351
L 969 350" style="stroke-width:1;stroke:rgba(0,116,217,1.0);fill:none"/><path  d="M 38 351
L 40 351
L 42 351
L 44 351
L 46 351
L 48 351
L 50 351
L 52 351
L 53 351
L 55 351
L 57 349
L 59 350
L 61 349
L 63 351
L 65 349
L 66 349
L 68 349
L 70 349
L 72 346
L 74 349
L 76 349
L 78 348
L 79 341
L 81 346
L 83 343
L 85 350
L 87 348
L 89 337
L 91 348
L 92 333
L 94 345
L 96 345
L 98 345
L 100 344
L 102 343
L 104 345
L 105 346
L 107 347
L 109 341
L 111 348
L 113 349
L 115 344
L 117 347
L 118 347
L 120 349
L 122 348
L 124 349
L 126 351
L 128 349
L 130 350
L 131 349
L 133 349
L 135 348
L 137 350
L 139 349
L 141 349
L 143 351
L 144 349
L 146 350
L 148 350
L 150 351
L 152 350
L 154 351
L 156 351
L 157 349
L 159 351
L 161 351
L 163 351
L 165 350
L 167 349
L 169 351
L 170 350
L 172 350
L 174 351
L 176 351
L 178 351
L 180 351
L 182 351
L 183 351
L 185 350
L 187 351
L 189 351
L 191 351
L 193 351
L 195 351
L 196 351
L 198 351
L 200 351
L 202 351
L 204 351
L 206 351
L 208 351
L 209 351
L 211 351
L 213 351
L 215 351
L 217 351
L 219 351
L 221 351
L 222 351
L 224 351
L 226 351
L 228 351
L 230 351
L 232 351
L 234 351
L 235 351
L 237 351
L 239 351
L 241 351
L 243 351
L 245 351
L 247 351
L 248 351
L 250 351
L 252 351
L 254 351
L 256 351
L 258 351
L 260 351
L 261 351
L 263 351
L 265 351
L 267 351
L 269 351
L 271 351
L 273 351
L 275 351
L 276 350
L 278 351
L 280 351
L 282 351
L 284 351
L 286 351
L 288 351
L 289 350
L 291 351
L 293 351
L 295 351
L 297 351
L 299 351
L 301 351
L 302 351
L 304 351
L 306 351
L 308 351
L 310 350
L 312 351
L 314 351
L 315 351
L 317 351
L 319 351
L 321 351
L 323 351
L 325 351
L 327 351
L 328 351
L 330 351
L 332 351
L 334 351
L 336 351
L 338 351
L 340 351
L 341 351
L 343 351
L 345 351
L 347 351
L 349 351
L 351 351
L 353 351
L 354 351
L 356 351
L 358 351
L 360 350
L 362 351
L 364 350
L 366 351
L 367 350
L 369 348
L 371 350
L 373 351
L 375 349
L 377 350
L 379 350
L 380 351
L 382 351
L 384 351
L 386 351
L 388 351
L 390 351
L 392 349
L 393 350
L 395 350
L 397 350
L 399 350
L 401 351
L 403 351
L 405 348
L 406 349
L 408 350
L 410 349
L 412 350
L 414 349
L 416 349
L 418 347
L 419 348
L 421 348
L 423 349
L 425 348
L 427 350
L 429 349
L 431 351
L 432 349
L 434 348
L 436 349
L 438 349
L 440 350
L 442 349
L 444 351
L 445 348
L 447 350
L 449 350
L 451 349
L 453 349
L 455 349
L 457 349
L 458 348
L 460 349
L 462 348
L 464 347
L 466 348
L 468 348
L 470 344
L 471 341
L 473 345
L 475 343
L 477 348
L 479 348
L 481 344
L 483 340
L 484 340
L 486 332
L 488 342
L 490 334
L 492 338
L 494 330
L 496 326
L 497 309
L 499 324
L 501 330
L 503 340
L 505 323
L 507 322
L 509 285
L 511 303
L 512 320
L 514 310
L 516 323
L 518 301
L 520 304
L 522 301
L 524 309
L 525 330
L 527 335
L 529 328
L 531 297
L 533 325
L 535 315
L 537 317
L 538 324
L 540 340
L 542 337
L 544 309
L 546 312
L 548 319
L 550 322
L 551 327
L 553 342
L 555 337
L 557 326
L 559 308
L 561 326
L 563 325
L 564 328
L 566 344
L 568 334
L 570 343
L 572 330
L 574 329
L 576 329
L 577 341
L 579 334
L 581 338
L 583 305
L 585 331
L 587 337
L 589 334
L 590 347
L 592 343
L 594 342
L 596 330
L 598 328
L 600 339
L 602 348
L 603 347
L 605 341
L 607 341
L 609 331
L 611 332
L 613 343
L 615 350
L 616 340
L 618 342
L 620 333
L 622 326
L 624 342
L 626 334
L 628 343
L 629 340
L 631 344
L 633 341
L 635 341
L 637 342
L 639 346
L 641 346
L 642 346
L 644 348
L 646 341
L 648 338
L 650 347
L 652 341
L 654 344
L 655 346
L 657 347
L 659 340
L 661 337
L 663 341
L 665 341
L 667 343
L 668 342
L 670 349
L 672 338
L 674 335
L 676 336
L 678 341
L 680 338
L 681 346
L 683 335
L 685 330
L 687 333
L 689 324
L 691 335
L 693 334
L 694 332
L 696 334
L 698 332
L 700 340
L 702 336
L 704 325
L 706 323
L 707 344
L 709 333
L 711 338
L 713 338
L 715 312
L 717 344
L 719 331
L 720 317
L 722 339
L 724 328
L 726 330
L 728 335
L 730 347
L 732 319
L 733 339
L 735 333
L 737 325
L 739 342
L 741 340
L 743 338
L 745 320
L 747 332
L 748 341
L 750 338
L 752 343
L 754 322
L 756 329
L 758 334
L 760 326
L 761 337
L 763 337
L 765 318
L 767 319
L 769 336
L 771 344
L 773 338
L 774 322
L 776 337
L 778 338
L 780 341
L 782 328
L 784 335
L 786 319
L 787 343
L 789 332
L 791 339
L 793 336
L 795 347
L 797 324
L 799 341
L 800 346
L 802 335
L 804 332
L 806 334
L 808 338
L 810 339
L 812 335
L 813 340
L 815 337
L 817 339
L 819 337
L 821 336
L 823 341
L 825 334
L 826 342
L 828 336
L 830 338
L 832 334
L 834 330
L 836 335
L 838 345
L 839 341
L 841 332
L 843 339
L 845 338
L 847 337
L 849 345
L 851 343
L 852 345
L 854 345
L 856 346
L 858 346
L 860 346
L 862 347
L 864 347
L 865 346
L 867 345
L 869 345
L 871 343
L 873 347
L 875 343
L 877 343
L 878 348
L 880 344
L 882 347
L 884 345
L 886 348
L 888 346
L 890 345
L 891 348
L 893 349
L 895 348
L 897 349
L 899 349
L 901 349
L 903 350
L 904 349
L 906 349
L 908 349
L 910 349
L 912 351
L 914 349
L 916 351
L 917 351
L 919 351
L 921 350
L 923 350
L 925 350
L 927 351
L 929 351
L 930 350
L 932 351
L 934 350
L 936 351
L 938 351
L 940 350
L 942 351
L 943 350
L 945 351
L 947 351
L 949 351
L 951 351
L 953 351
L 955 351
L 956 351
L 958 351
L 960 351
L 962 351
L 964 351
L 966 351
L 968 351
L 969 350" style="stroke-width:1;stroke:rgba(0,217,101,1.0);fill:none"/><path  d="M 38 351
L 40 351
L 42 351
L 44 351
L 46 351
L 48 351
L 50 351
L 52 351
L 53 351
L 55 351
L 57 351
L 59 351
L 61 351
L 63 351
L 65 351
L 66 351
L 68 351
L 70 351
L 72 351
L 74 350
L 76 351
L 78 350
L 79 351
L 81 351
L 83 349
L 85 350
L 87 351
L 89 351
L 91 350
L 92 350
L 94 348
L 96 350
L 98 350
L 100 350
L 102 351
L 104 350
L 105 348
L 107 350
L 109 350
L 111 351
L 113 348
L 115 350
L 117 350
L 118 351
L 120 350
L 122 349
L 124 351
L 126 351
L 128 351
L 130 350
L 131 351
L 133 351
L 135 351
L 137 350
L 139 351
L 141 351
L 143 350
L 144 351
L 146 351
L 148 351
L 150 351
L 152 351
L 154 350
L 156 351
L 157 351
L 159 351
L 161 351
L 163 351
L 165 351
L 167 351
L 169 351
L 170 351
L 172 351
L 174 351
L 176 351
L 178 351
L 180 351
L 182 351
L 183 351
L 185 351
L 187 351
L 189 351
L 191 349
L 193 351
L 195 351
L 196 351
L 198 351
L 200 351
L 202 351
L 204 351
L 206 351
L 208 351
L 209 351
L 211 351
L 213 351
L 215 351
L 217 351
L 219 351
L 221 351
L 222 351
L 224 351
L 226 351
L 228 351
L 230 351
L 232 351
L 234 351
L 235 351
L 237 351
L 239 351
L 241 351
L 243 351
L 245 351
L 247 351
L 248 351
L 250 351
L 252 351
L 254 351
L 256 351
L 258 351
L 260 351
L 261 351
L 263 351
L 265 351
L 267 351
L 269 351
L 271 351
L 273 351
L 275 351
L 276 350
L 278 351
L 280 351
L 282 351
L 284 351
L 286 351
L 288 351
L 289 351
L 291 351
L 293 351
L 295 351
L 297 351
L 299 351
L 301 351
L 302 351
L 304 351
L 306 351
L 308 351
L 310 351
L 312 351
L 314 351
L 315 351
L 317 351
L 319 351
L 321 351
L 323 351
L 325 351
L 327 351
L 328 351
L 330 351
L 332 351
L 334 351
L 336 351
L 338 351
L 340 351
L 341 351
L 343 351
L 345 351
L 347 351
L 349 351
L 351 351
L 353 351
L 354 351
L 356 351
L 358 351
L 360 351
L 362 351
L 364 351
L 366 351
L 367 351
L 369 351
L 371 351
L 373 351
L 375 351
L 377 351
L 379 351
L 380 351
L 382 351
L 384 351
L 386 351
L 388 351
L 390 351
L 392 351
L 393 351
L 395 351
L 397 351
L 399 351
L 401 351
L 403 351
L 405 351
L 406 351
L 408 351
L 410 351
L 412 351
L 414 351
L 416 351
L 418 351
L 419 351
L 421 351
L 423 350
L 425 351
L 427 351
L 429 350
L 431 351
L 432 351
L 434 351
L 436 351
L 438 351
L 440 351
L 442 351
L 444 351
L 445 351
L 447 351
L 449 351
L 451 351
L 453 351
L 455 351
L 457 351
L 458 351
L 460 351
L 462 351
L 464 351
L 466 351
L 468 351
L 470 351
L 471 351
L 473 349
L 475 351
L 477 350
L 479 351
L 481 351
L 483 351
L 484 351
L 486 349
L 488 351
L 490 350
L 492 351
L 494 349
L 496 349
L 497 351
L 499 349
L 501 351
L 503 351
L 505 350
L 507 351
L 509 351
L 511 350
L 512 350
L 514 351
L 516 350
L 518 350
L 520 350
L 522 351
L 524 348
L 525 351
L 527 350
L 529 347
L 531 350
L 533 351
L 535 350
L 537 351
L 538 351
L 540 350
L 542 349
L 544 350
L 546 350
L 548 349
L 550 350
L 551 350
L 553 351
L 555 351
L 557 351
L 559 350
L 561 349
L 563 351
L 564 350
L 566 350
L 568 349
L 570 348
L 572 349
L 574 349
L 576 351
L 577 349
L 579 349
L 581 350
L 583 350
L 585 351
L 587 349
L 589 349
L 590 348
L 592 348
L 594 350
L 596 349
L 598 348
L 600 349
L 602 350
L 603 349
L 605 349
L 607 349
L 609 351
L 611 351
L 613 351
L 615 351
L 616 351
L 618 351
L 620 349
L 622 351
L 624 350
L 626 351
L 628 351
L 629 351
L 631 351
L 633 350
L 635 349
L 637 350
L 639 351
L 641 351
L 642 351
L 644 350
L 646 350
L 648 351
L 650 351
L 652 350
L 654 351
L 655 350
L 657 349
L 659 350
L 661 350
L 663 350
L 665 350
L 667 351
L 668 351
L 670 351
L 672 351
L 674 351
L 676 351
L 678 351
L 680 351
L 681 351
L 683 351
L 685 351
L 687 349
L 689 351
L 691 351
L 693 351
L 694 351
L 696 351
L 698 350
L 700 350
L 702 351
L 704 351
L 706 350
L 707 350
L 709 351
L 711 351
L 713 350
L 715 351
L 717 351
L 719 351
L 720 351
L 722 351
L 724 351
L 726 351
L 728 351
L 730 350
L 732 350
L 733 351
L 735 351
L 737 351
L 739 351
L 741 350
L 743 351
L 745 351
L 747 350
L 748 350
L 750 351
L 752 351
L 754 351
L 756 350
L 758 350
L 760 351
L 761 350
L 763 350
L 765 351
L 767 351
L 769 350
L 771 351
L 773 351
L 774 351
L 776 350
L 778 351
L 780 351
L 782 351
L 784 350
L 786 351
L 787 351
L 789 351
L 791 351
L 793 351
L 795 351
L 797 351
L 799 350
L 800 351
L 802 351
L 804 350
L 806 351
L 808 351
L 810 351
L 812 351
L 813 351
L 815 350
L 817 349
L 819 351
L 821 350
L 823 351
L 825 351
L 826 351
L 828 351
L 830 351
L 832 351
L 834 351
L 836 350
L 838 351
L 839 350
L 841 351
L 843 351
L 845 351
L 847 351
L 849 351
L 851 351
L 852 351
L 854 351
L 856 350
L 858 351
L 860 351
L 862 350
L 864 351
L 865 351
L 867 351
L 869 351
L 871 351
L 873 351
L 875 351
L 877 351
L 878 351
L 880 351
L 882 351
L 884 351
L 886 351
L 888 351
L 890 351
L 891 351
L 893 351
L 895 351
L 897 351
L 899 350
L 901 351
L 903 351
L 904 351
L 906 351
L 908 351
L 910 351
L 912 351
L 914 351
L 916 351
L 917 351
L 919 351
L 921 351
L 923 351
L 925 351
L 927 351
L 929 351
L 930 351
L 932 351
L 934 351
L 936 351
L 938 351
L 940 351
L 942 351
L 943 351
L 945 351
L 947 351
L 949 351
L 951 351
L 953 351
L 955 351
L 956 351
L 958 351
L 960 351
L 962 351
L 964 351
L 966 351
L 968 351
L 969 351" style="stroke-width:1;stroke:rgba(217,0,116,1.0);fill:none"/><text x="342" y="33" style="stroke-width:0;stroke:none;fill:rgba(51,51,51,1.0);font-size:23.0px;font-family:'Roboto Medium',sans-serif">Hartberg-Fürstenfeld 11.07.2021</text><path  d="M 38 11
L 251 11
L 251 91
L 38 91
L 38 11" style="stroke-width:1;stroke:rgba(51,51,51,1.0);fill:rgba(255,255,255,1.0)"/><text x="43" y="26" style="stroke-width:0;stroke:none;fill:rgba(51,51,51,1.0);font-size:10.2px;font-family:'Roboto Medium',sans-serif">Sieben Tage Durschnitt Inzidenz Fälle</text><path  d="M 221 21
L 241 21" style="stroke-width:1;stroke:rgba(0,116,217,1.0);fill:none"/><text x="43" y="56" style="stroke-width:0;stroke:none;fill:rgba(51,51,51,1.0);font-size:10.2px;font-family:'Roboto Medium',sans-serif">Anzahl Faelle</text><path  d="M 110 51
L 241 51" style="stroke-width:1;stroke:rgba(0,217,101,1.0);fill:none"/><text x="43" y="86" style="stroke-width:0;stroke:none;fill:rgba(51,51,51,1.0);font-size:10.2px;font-family:'Roboto Medium',sans-serif">Anzahl Tot</text><path  d="M 98 81
L 241 81" style="stroke-width:1;stroke:rgba(217,0,116,1.0);fill:none"/></svg>