<svg xmlns="http://www.w3.org/2000/svg" xmlns:xlink="http://www.w3.org/1999/xlink" width="1024" height="400">\n<path  d="M 0 0
L 1024 0
L 1024 400
L 0 400
L 0 0" style="stroke-width:0;stroke:rgba(255,255,255,1.0);fill:rgba(255,255,255,1.0)"/><path  d="M 38 11
L 969 11
L 969 351
L 38 351
L 38 11" style="stroke-width:0;stroke:rgba(255,255,255,1.0);fill:rgba(255,255,255,1.0)"/><path  d="M 38 351
L 969 351" style="stroke-width:1;stroke:rgba(51,51,51,1.0);fill:none"/><path  d="M 38 351
L 38 356" style="stroke-width:1;stroke:rgba(51,51,51,1.0);fill:none"/><text x="5" y="373" style="stroke-width:0;stroke:none;fill:rgba(51,51,51,1.0);font-size:12.8px;font-family:'Roboto Medium',sans-serif">2020-02-26</text><path  d="M 155 351
L 155 356" style="stroke-width:1;stroke:rgba(51,51,51,1.0);fill:none"/><text x="122" y="373" style="stroke-width:0;stroke:none;fill:rgba(51,51,51,1.0);font-size:12.8px;font-family:'Roboto Medium',sans-serif">2020-04-19</text><path  d="M 271 351
L 271 356" style="stroke-width:1;stroke:rgba(51,51,51,1.0);fill:none"/><text x="238" y="373" style="stroke-width:0;stroke:none;fill:rgba(51,51,51,1.0);font-size:12.8px;font-family:'Roboto Medium',sans-serif">2020-06-11</text><path  d="M 388 351
L 388 356" style="stroke-width:1;stroke:rgba(51,51,51,1.0);fill:none"/><text x="355" y="373" style="stroke-width:0;stroke:none;fill:rgba(51,51,51,1.0);font-size:12.8px;font-family:'Roboto Medium',sans-serif">2020-08-03</text><path  d="M 504 351
L 504 356" style="stroke-width:1;stroke:rgba(51,51,51,1.0);fill:none"/><text x="471" y="373" style="stroke-width:0;stroke:none;fill:rgba(51,51,51,1.0);font-size:12.8px;font-family:'Roboto Medium',sans-serif">2020-09-25</text><path  d="M 620 351
L 620 356" style="stroke-width:1;stroke:rgba(51,51,51,1.0);fill:none"/><text x="587" y="373" style="stroke-width:0;stroke:none;fill:rgba(51,51,51,1.0);font-size:12.8px;font-family:'Roboto Medium',sans-serif">2020-11-17</text><path  d="M 737 351
L 737 356" style="stroke-width:1;stroke:rgba(51,51,51,1.0);fill:none"/><text x="704" y="373" style="stroke-width:0;stroke:none;fill:rgba(51,51,51,1.0);font-size:12.8px;font-family:'Roboto Medium',sans-serif">2021-01-09</text><path  d="M 853 351
L 853 356" style="stroke-width:1;stroke:rgba(51,51,51,1.0);fill:none"/><text x="820" y="373" style="stroke-width:0;stroke:none;fill:rgba(51,51,51,1.0);font-size:12.8px;font-family:'Roboto Medium',sans-serif">2021-03-03</text><path  d="M 969 351
L 969 356" style="stroke-width:1;stroke:rgba(51,51,51,1.0);fill:none"/><text x="936" y="373" style="stroke-width:0;stroke:none;fill:rgba(51,51,51,1.0);font-size:12.8px;font-family:'Roboto Medium',sans-serif">2021-04-26</text><text x="485" y="395" style="stroke-width:0;stroke:none;fill:rgba(51,51,51,1.0);font-size:12.8px;font-family:'Roboto Medium',sans-serif">Datum</text><path  d="M 970 351
L 970 11" style="stroke-width:1;stroke:rgba(51,51,51,1.0);fill:none"/><path  d="M 970 351
L 975 351" style="stroke-width:1;stroke:rgba(51,51,51,1.0);fill:none"/><text x="980" y="357" style="stroke-width:0;stroke:none;fill:rgba(51,51,51,1.0);font-size:12.8px;font-family:'Roboto Medium',sans-serif">0.00</text><path  d="M 970 308
L 975 308" style="stroke-width:1;stroke:rgba(51,51,51,1.0);fill:none"/><text x="980" y="314" style="stroke-width:0;stroke:none;fill:rgba(51,51,51,1.0);font-size:12.8px;font-family:'Roboto Medium',sans-serif">89.00</text><path  d="M 970 265
L 975 265" style="stroke-width:1;stroke:rgba(51,51,51,1.0);fill:none"/><text x="980" y="271" style="stroke-width:0;stroke:none;fill:rgba(51,51,51,1.0);font-size:12.8px;font-family:'Roboto Medium',sans-serif">178.00</text><path  d="M 970 223
L 975 223" style="stroke-width:1;stroke:rgba(51,51,51,1.0);fill:none"/><text x="980" y="229" style="stroke-width:0;stroke:none;fill:rgba(51,51,51,1.0);font-size:12.8px;font-family:'Roboto Medium',sans-serif">267.00</text><path  d="M 970 181
L 975 181" style="stroke-width:1;stroke:rgba(51,51,51,1.0);fill:none"/><text x="980" y="187" style="stroke-width:0;stroke:none;fill:rgba(51,51,51,1.0);font-size:12.8px;font-family:'Roboto Medium',sans-serif">355.00</text><path  d="M 970 138
L 975 138" style="stroke-width:1;stroke:rgba(51,51,51,1.0);fill:none"/><text x="980" y="144" style="stroke-width:0;stroke:none;fill:rgba(51,51,51,1.0);font-size:12.8px;font-family:'Roboto Medium',sans-serif">444.00</text><path  d="M 970 95
L 975 95" style="stroke-width:1;stroke:rgba(51,51,51,1.0);fill:none"/><text x="980" y="101" style="stroke-width:0;stroke:none;fill:rgba(51,51,51,1.0);font-size:12.8px;font-family:'Roboto Medium',sans-serif">533.00</text><path  d="M 970 53
L 975 53" style="stroke-width:1;stroke:rgba(51,51,51,1.0);fill:none"/><text x="980" y="59" style="stroke-width:0;stroke:none;fill:rgba(51,51,51,1.0);font-size:12.8px;font-family:'Roboto Medium',sans-serif">622.00</text><path  d="M 970 11
L 975 11" style="stroke-width:1;stroke:rgba(51,51,51,1.0);fill:none"/><text x="980" y="17" style="stroke-width:0;stroke:none;fill:rgba(51,51,51,1.0);font-size:12.8px;font-family:'Roboto Medium',sans-serif">710.00</text><path  d="M 38 351
L 41 351
L 43 351
L 45 351
L 47 351
L 49 351
L 52 351
L 54 351
L 56 351
L 58 351
L 60 351
L 63 351
L 65 351
L 67 351
L 69 351
L 71 351
L 74 351
L 76 351
L 78 351
L 80 351
L 82 345
L 85 345
L 87 343
L 89 343
L 91 343
L 93 343
L 95 340
L 98 345
L 100 343
L 102 345
L 104 345
L 106 345
L 109 345
L 111 348
L 113 348
L 115 351
L 117 351
L 120 345
L 122 345
L 124 345
L 126 345
L 128 345
L 131 345
L 133 345
L 135 351
L 137 351
L 139 351
L 141 351
L 144 351
L 146 351
L 148 351
L 150 351
L 152 351
L 155 351
L 157 351
L 159 351
L 161 351
L 163 351
L 166 351
L 168 351
L 170 351
L 172 351
L 174 351
L 177 351
L 179 351
L 181 351
L 183 351
L 185 351
L 187 351
L 190 351
L 192 351
L 194 351
L 196 351
L 198 351
L 201 351
L 203 351
L 205 351
L 207 351
L 209 351
L 212 351
L 214 351
L 216 351
L 218 351
L 220 351
L 223 351
L 225 351
L 227 351
L 229 351
L 231 351
L 233 351
L 236 351
L 238 351
L 240 351
L 242 351
L 244 351
L 247 351
L 249 351
L 251 351
L 253 351
L 255 351
L 258 351
L 260 351
L 262 351
L 264 351
L 266 351
L 269 351
L 271 351
L 273 351
L 275 351
L 277 351
L 279 351
L 282 351
L 284 351
L 286 351
L 288 351
L 290 351
L 293 351
L 295 351
L 297 351
L 299 351
L 301 351
L 304 351
L 306 351
L 308 351
L 310 351
L 312 351
L 315 351
L 317 351
L 319 351
L 321 351
L 323 351
L 325 351
L 328 351
L 330 351
L 332 351
L 334 351
L 336 351
L 339 351
L 341 351
L 343 351
L 345 351
L 347 351
L 350 351
L 352 351
L 354 351
L 356 351
L 358 351
L 361 351
L 363 351
L 365 351
L 367 351
L 369 351
L 371 351
L 374 351
L 376 351
L 378 351
L 380 351
L 382 351
L 385 351
L 387 351
L 389 351
L 391 351
L 393 351
L 396 351
L 398 351
L 400 351
L 402 351
L 404 351
L 407 351
L 409 351
L 411 351
L 413 351
L 415 351
L 417 351
L 420 351
L 422 351
L 424 351
L 426 351
L 428 351
L 431 351
L 433 351
L 435 351
L 437 351
L 439 351
L 442 348
L 444 348
L 446 348
L 448 348
L 450 348
L 453 348
L 455 348
L 457 351
L 459 351
L 461 351
L 463 351
L 466 351
L 468 351
L 470 351
L 472 351
L 474 351
L 477 351
L 479 351
L 481 351
L 483 348
L 485 348
L 488 348
L 490 348
L 492 348
L 494 348
L 496 348
L 499 348
L 501 348
L 503 345
L 505 313
L 507 313
L 509 287
L 512 258
L 514 250
L 516 239
L 518 234
L 520 263
L 523 263
L 525 284
L 527 308
L 529 319
L 531 329
L 534 335
L 536 335
L 538 335
L 540 340
L 542 343
L 545 337
L 547 337
L 549 340
L 551 340
L 553 332
L 555 329
L 558 329
L 560 335
L 562 316
L 564 311
L 566 295
L 569 303
L 571 300
L 573 300
L 575 282
L 577 271
L 580 215
L 582 210
L 584 202
L 586 181
L 588 154
L 591 93
L 593 80
L 595 120
L 597 109
L 599 85
L 601 96
L 604 114
L 606 80
L 608 96
L 610 69
L 612 96
L 615 109
L 617 101
L 619 61
L 621 130
L 623 99
L 626 133
L 628 91
L 630 80
L 632 83
L 634 93
L 637 125
L 639 130
L 641 112
L 643 146
L 645 170
L 647 183
L 650 191
L 652 186
L 654 175
L 656 175
L 658 144
L 661 138
L 663 120
L 665 130
L 667 120
L 669 152
L 672 120
L 674 138
L 676 128
L 678 93
L 680 83
L 683 88
L 685 99
L 687 122
L 689 122
L 691 114
L 693 133
L 696 83
L 698 51
L 700 24
L 702 43
L 704 43
L 707 56
L 709 83
L 711 130
L 713 112
L 715 146
L 718 112
L 720 125
L 722 125
L 724 99
L 726 80
L 729 136
L 731 122
L 733 152
L 735 152
L 737 162
L 739 191
L 742 221
L 744 213
L 746 218
L 748 210
L 750 197
L 753 191
L 755 178
L 757 170
L 759 186
L 761 189
L 764 186
L 766 194
L 768 194
L 770 199
L 772 199
L 775 202
L 777 202
L 779 226
L 781 231
L 783 234
L 785 231
L 788 231
L 790 213
L 792 221
L 794 210
L 796 213
L 799 178
L 801 181
L 803 197
L 805 175
L 807 146
L 810 152
L 812 120
L 814 146
L 816 109
L 818 96
L 821 93
L 823 72
L 825 48
L 827 45
L 829 51
L 831 67
L 834 30
L 836 32
L 838 51
L 840 22
L 842 16
L 845 27
L 847 14
L 849 30
L 851 27
L 853 22
L 856 43
L 858 64
L 860 59
L 862 72
L 864 104
L 867 120
L 869 162
L 871 202
L 873 210
L 875 202
L 877 242
L 880 244
L 882 276
L 884 276
L 886 279
L 888 295
L 891 297
L 893 289
L 895 300
L 897 295
L 899 287
L 902 292
L 904 284
L 906 279
L 908 271
L 910 271
L 913 255
L 915 255
L 917 250
L 919 244
L 921 255
L 923 263
L 926 260
L 928 276
L 930 282
L 932 276
L 934 289
L 937 282
L 939 284
L 941 289
L 943 292
L 945 295
L 948 305
L 950 313
L 952 324
L 954 332
L 956 335
L 959 340
L 961 343
L 963 337
L 965 335
L 967 332
L 969 329" style="stroke-width:1;stroke:rgba(0,116,217,1.0);fill:none"/><path  d="M 38 351
L 41 351
L 43 351
L 45 351
L 47 351
L 49 351
L 52 351
L 54 351
L 56 351
L 58 351
L 60 351
L 63 351
L 65 351
L 67 351
L 69 351
L 71 351
L 74 351
L 76 351
L 78 351
L 80 351
L 82 350
L 85 351
L 87 350
L 89 351
L 91 351
L 93 351
L 95 350
L 98 351
L 100 350
L 102 351
L 104 351
L 106 351
L 109 351
L 111 351
L 113 351
L 115 351
L 117 351
L 120 350
L 122 351
L 124 351
L 126 351
L 128 351
L 131 351
L 133 351
L 135 351
L 137 351
L 139 351
L 141 351
L 144 351
L 146 351
L 148 351
L 150 351
L 152 351
L 155 351
L 157 351
L 159 351
L 161 351
L 163 351
L 166 351
L 168 351
L 170 351
L 172 351
L 174 351
L 177 351
L 179 351
L 181 351
L 183 351
L 185 351
L 187 351
L 190 351
L 192 351
L 194 351
L 196 351
L 198 351
L 201 351
L 203 351
L 205 351
L 207 351
L 209 351
L 212 351
L 214 351
L 216 351
L 218 351
L 220 351
L 223 351
L 225 351
L 227 351
L 229 351
L 231 351
L 233 351
L 236 351
L 238 351
L 240 351
L 242 351
L 244 351
L 247 351
L 249 351
L 251 351
L 253 351
L 255 351
L 258 351
L 260 351
L 262 351
L 264 351
L 266 351
L 269 351
L 271 351
L 273 351
L 275 351
L 277 351
L 279 351
L 282 351
L 284 351
L 286 351
L 288 351
L 290 351
L 293 351
L 295 351
L 297 351
L 299 351
L 301 351
L 304 351
L 306 351
L 308 351
L 310 351
L 312 351
L 315 351
L 317 351
L 319 351
L 321 351
L 323 351
L 325 351
L 328 351
L 330 351
L 332 351
L 334 351
L 336 351
L 339 351
L 341 351
L 343 351
L 345 351
L 347 351
L 350 351
L 352 351
L 354 351
L 356 351
L 358 351
L 361 351
L 363 351
L 365 351
L 367 351
L 369 351
L 371 351
L 374 351
L 376 351
L 378 351
L 380 351
L 382 351
L 385 351
L 387 351
L 389 351
L 391 351
L 393 351
L 396 351
L 398 351
L 400 351
L 402 351
L 404 351
L 407 351
L 409 351
L 411 351
L 413 351
L 415 351
L 417 351
L 420 351
L 422 351
L 424 351
L 426 351
L 428 351
L 431 351
L 433 351
L 435 351
L 437 351
L 439 351
L 442 350
L 444 351
L 446 351
L 448 351
L 450 351
L 453 351
L 455 351
L 457 351
L 459 351
L 461 351
L 463 351
L 466 351
L 468 351
L 470 351
L 472 351
L 474 351
L 477 351
L 479 351
L 481 351
L 483 350
L 485 351
L 488 351
L 490 351
L 492 351
L 494 351
L 496 351
L 499 350
L 501 351
L 503 350
L 505 345
L 507 351
L 509 346
L 512 345
L 514 349
L 516 349
L 518 349
L 520 350
L 523 351
L 525 350
L 527 350
L 529 351
L 531 351
L 534 350
L 536 350
L 538 351
L 540 351
L 542 350
L 545 350
L 547 351
L 549 351
L 551 350
L 553 349
L 555 350
L 558 350
L 560 351
L 562 347
L 564 350
L 566 347
L 569 351
L 571 350
L 573 350
L 575 347
L 577 345
L 580 339
L 582 346
L 584 349
L 586 346
L 588 345
L 591 336
L 593 343
L 595 347
L 597 344
L 599 345
L 601 348
L 604 349
L 606 330
L 608 346
L 610 342
L 612 349
L 615 347
L 617 346
L 619 341
L 621 342
L 623 340
L 626 348
L 628 341
L 630 345
L 632 347
L 634 343
L 637 348
L 639 341
L 641 345
L 643 348
L 645 350
L 647 349
L 650 345
L 652 347
L 654 339
L 656 345
L 658 342
L 661 349
L 663 346
L 665 347
L 667 345
L 669 345
L 672 339
L 674 345
L 676 347
L 678 339
L 680 345
L 683 346
L 685 347
L 687 343
L 689 345
L 691 345
L 693 343
L 696 336
L 698 340
L 700 342
L 702 347
L 704 345
L 707 348
L 709 348
L 711 344
L 713 337
L 715 348
L 718 340
L 720 348
L 722 348
L 724 343
L 726 341
L 729 347
L 731 346
L 733 346
L 735 348
L 737 350
L 739 348
L 742 346
L 744 346
L 746 347
L 748 344
L 750 345
L 753 349
L 755 346
L 757 345
L 759 349
L 761 347
L 764 344
L 766 347
L 768 349
L 770 347
L 772 345
L 775 349
L 777 347
L 779 348
L 781 348
L 783 349
L 785 346
L 788 345
L 790 346
L 792 349
L 794 346
L 796 348
L 799 343
L 801 347
L 803 348
L 805 342
L 807 343
L 810 347
L 812 342
L 814 348
L 816 340
L 818 345
L 821 341
L 823 339
L 825 343
L 827 342
L 829 349
L 831 343
L 834 339
L 836 342
L 838 343
L 840 338
L 842 341
L 845 351
L 847 340
L 849 341
L 851 341
L 853 342
L 856 341
L 858 345
L 860 350
L 862 343
L 864 347
L 867 344
L 869 350
L 871 349
L 873 346
L 875 348
L 877 350
L 880 348
L 882 350
L 884 350
L 886 349
L 888 349
L 891 349
L 893 349
L 895 350
L 897 349
L 899 348
L 902 350
L 904 348
L 906 348
L 908 347
L 910 350
L 913 346
L 915 348
L 917 349
L 919 347
L 921 350
L 923 349
L 926 349
L 928 349
L 930 349
L 932 348
L 934 349
L 937 348
L 939 349
L 941 350
L 943 350
L 945 350
L 948 350
L 950 351
L 952 350
L 954 351
L 956 351
L 959 351
L 961 350
L 963 349
L 965 350
L 967 350
L 969 350" style="stroke-width:1;stroke:rgba(0,217,101,1.0);fill:none"/><path  d="M 38 351
L 41 351
L 43 351
L 45 351
L 47 351
L 49 351
L 52 351
L 54 351
L 56 351
L 58 351
L 60 351
L 63 351
L 65 351
L 67 351
L 69 351
L 71 351
L 74 351
L 76 351
L 78 351
L 80 351
L 82 351
L 85 351
L 87 351
L 89 351
L 91 351
L 93 351
L 95 351
L 98 351
L 100 351
L 102 351
L 104 351
L 106 351
L 109 351
L 111 351
L 113 351
L 115 351
L 117 351
L 120 351
L 122 351
L 124 351
L 126 351
L 128 351
L 131 351
L 133 351
L 135 351
L 137 351
L 139 351
L 141 351
L 144 351
L 146 351
L 148 351
L 150 351
L 152 351
L 155 351
L 157 351
L 159 351
L 161 351
L 163 351
L 166 351
L 168 351
L 170 351
L 172 351
L 174 351
L 177 351
L 179 351
L 181 351
L 183 351
L 185 351
L 187 351
L 190 351
L 192 351
L 194 351
L 196 351
L 198 351
L 201 351
L 203 351
L 205 351
L 207 351
L 209 351
L 212 351
L 214 351
L 216 351
L 218 351
L 220 351
L 223 351
L 225 351
L 227 351
L 229 351
L 231 351
L 233 351
L 236 351
L 238 351
L 240 351
L 242 351
L 244 351
L 247 351
L 249 351
L 251 351
L 253 351
L 255 351
L 258 351
L 260 351
L 262 351
L 264 351
L 266 351
L 269 351
L 271 351
L 273 351
L 275 351
L 277 351
L 279 351
L 282 351
L 284 351
L 286 351
L 288 351
L 290 351
L 293 351
L 295 351
L 297 351
L 299 351
L 301 351
L 304 351
L 306 351
L 308 351
L 310 351
L 312 351
L 315 351
L 317 351
L 319 351
L 321 351
L 323 351
L 325 351
L 328 351
L 330 351
L 332 351
L 334 351
L 336 351
L 339 351
L 341 351
L 343 351
L 345 351
L 347 351
L 350 351
L 352 351
L 354 351
L 356 351
L 358 351
L 361 351
L 363 351
L 365 351
L 367 351
L 369 351
L 371 351
L 374 351
L 376 351
L 378 351
L 380 351
L 382 351
L 385 351
L 387 351
L 389 351
L 391 351
L 393 351
L 396 351
L 398 351
L 400 351
L 402 351
L 404 351
L 407 351
L 409 351
L 411 351
L 413 351
L 415 351
L 417 351
L 420 351
L 422 351
L 424 351
L 426 351
L 428 351
L 431 351
L 433 351
L 435 351
L 437 351
L 439 351
L 442 351
L 444 351
L 446 351
L 448 351
L 450 351
L 453 351
L 455 351
L 457 351
L 459 351
L 461 351
L 463 351
L 466 351
L 468 351
L 470 351
L 472 351
L 474 351
L 477 351
L 479 351
L 481 351
L 483 351
L 485 351
L 488 351
L 490 351
L 492 351
L 494 351
L 496 351
L 499 351
L 501 351
L 503 351
L 505 351
L 507 351
L 509 351
L 512 351
L 514 351
L 516 351
L 518 351
L 520 351
L 523 351
L 525 351
L 527 351
L 529 351
L 531 351
L 534 351
L 536 351
L 538 351
L 540 351
L 542 351
L 545 351
L 547 351
L 549 351
L 551 351
L 553 351
L 555 351
L 558 351
L 560 351
L 562 351
L 564 351
L 566 351
L 569 351
L 571 351
L 573 351
L 575 351
L 577 351
L 580 351
L 582 351
L 584 351
L 586 351
L 588 351
L 591 351
L 593 351
L 595 350
L 597 351
L 599 351
L 601 350
L 604 351
L 606 351
L 608 351
L 610 350
L 612 351
L 615 351
L 617 351
L 619 351
L 621 351
L 623 351
L 626 351
L 628 351
L 630 351
L 632 351
L 634 351
L 637 351
L 639 351
L 641 351
L 643 351
L 645 351
L 647 351
L 650 351
L 652 351
L 654 351
L 656 351
L 658 351
L 661 350
L 663 350
L 665 351
L 667 351
L 669 350
L 672 351
L 674 350
L 676 351
L 678 351
L 680 350
L 683 350
L 685 350
L 687 350
L 689 351
L 691 351
L 693 351
L 696 351
L 698 351
L 700 351
L 702 351
L 704 351
L 707 351
L 709 351
L 711 350
L 713 350
L 715 351
L 718 351
L 720 351
L 722 350
L 724 350
L 726 351
L 729 351
L 731 351
L 733 351
L 735 351
L 737 351
L 739 351
L 742 351
L 744 351
L 746 351
L 748 351
L 750 351
L 753 351
L 755 351
L 757 351
L 759 351
L 761 350
L 764 351
L 766 351
L 768 351
L 770 351
L 772 351
L 775 351
L 777 351
L 779 351
L 781 351
L 783 351
L 785 351
L 788 351
L 790 351
L 792 351
L 794 351
L 796 350
L 799 351
L 801 351
L 803 351
L 805 351
L 807 351
L 810 351
L 812 351
L 814 351
L 816 351
L 818 351
L 821 351
L 823 351
L 825 351
L 827 351
L 829 351
L 831 351
L 834 351
L 836 350
L 838 351
L 840 350
L 842 351
L 845 351
L 847 351
L 849 351
L 851 350
L 853 351
L 856 351
L 858 351
L 860 351
L 862 350
L 864 351
L 867 351
L 869 351
L 871 350
L 873 351
L 875 350
L 877 351
L 880 351
L 882 350
L 884 351
L 886 351
L 888 351
L 891 351
L 893 351
L 895 350
L 897 351
L 899 351
L 902 351
L 904 351
L 906 351
L 908 350
L 910 351
L 913 351
L 915 351
L 917 351
L 919 351
L 921 351
L 923 351
L 926 351
L 928 351
L 930 351
L 932 351
L 934 351
L 937 351
L 939 351
L 941 351
L 943 351
L 945 351
L 948 351
L 950 351
L 952 351
L 954 351
L 956 351
L 959 351
L 961 351
L 963 351
L 965 351
L 967 351
L 969 351" style="stroke-width:1;stroke:rgba(217,0,116,1.0);fill:none"/><text x="399" y="33" style="stroke-width:0;stroke:none;fill:rgba(51,51,51,1.0);font-size:23.0px;font-family:'Roboto Medium',sans-serif">Hermagor 26.04.2021</text><path  d="M 38 11
L 251 11
L 251 91
L 38 91
L 38 11" style="stroke-width:1;stroke:rgba(51,51,51,1.0);fill:rgba(255,255,255,1.0)"/><text x="43" y="26" style="stroke-width:0;stroke:none;fill:rgba(51,51,51,1.0);font-size:10.2px;font-family:'Roboto Medium',sans-serif">Sieben Tage Durschnitt Inzidenz Fälle</text><path  d="M 221 21
L 241 21" style="stroke-width:1;stroke:rgba(0,116,217,1.0);fill:none"/><text x="43" y="56" style="stroke-width:0;stroke:none;fill:rgba(51,51,51,1.0);font-size:10.2px;font-family:'Roboto Medium',sans-serif">Anzahl Faelle</text><path  d="M 110 51
L 241 51" style="stroke-width:1;stroke:rgba(0,217,101,1.0);fill:none"/><text x="43" y="86" style="stroke-width:0;stroke:none;fill:rgba(51,51,51,1.0);font-size:10.2px;font-family:'Roboto Medium',sans-serif">Anzahl Tot</text><path  d="M 98 81
L 241 81" style="stroke-width:1;stroke:rgba(217,0,116,1.0);fill:none"/></svg>