<svg xmlns="http://www.w3.org/2000/svg" xmlns:xlink="http://www.w3.org/1999/xlink" width="1024" height="400">\n<path  d="M 0 0
L 1024 0
L 1024 400
L 0 400
L 0 0" style="stroke-width:0;stroke:rgba(255,255,255,1.0);fill:rgba(255,255,255,1.0)"/><path  d="M 38 11
L 961 11
L 961 351
L 38 351
L 38 11" style="stroke-width:0;stroke:rgba(255,255,255,1.0);fill:rgba(255,255,255,1.0)"/><path  d="M 38 351
L 961 351" style="stroke-width:1;stroke:rgba(51,51,51,1.0);fill:none"/><path  d="M 38 351
L 38 356" style="stroke-width:1;stroke:rgba(51,51,51,1.0);fill:none"/><text x="5" y="373" style="stroke-width:0;stroke:none;fill:rgba(51,51,51,1.0);font-size:12.8px;font-family:'Roboto Medium',sans-serif">2020-02-26</text><path  d="M 154 351
L 154 356" style="stroke-width:1;stroke:rgba(51,51,51,1.0);fill:none"/><text x="121" y="373" style="stroke-width:0;stroke:none;fill:rgba(51,51,51,1.0);font-size:12.8px;font-family:'Roboto Medium',sans-serif">2020-06-11</text><path  d="M 269 351
L 269 356" style="stroke-width:1;stroke:rgba(51,51,51,1.0);fill:none"/><text x="236" y="373" style="stroke-width:0;stroke:none;fill:rgba(51,51,51,1.0);font-size:12.8px;font-family:'Roboto Medium',sans-serif">2020-09-25</text><path  d="M 385 351
L 385 356" style="stroke-width:1;stroke:rgba(51,51,51,1.0);fill:none"/><text x="352" y="373" style="stroke-width:0;stroke:none;fill:rgba(51,51,51,1.0);font-size:12.8px;font-family:'Roboto Medium',sans-serif">2021-01-10</text><path  d="M 500 351
L 500 356" style="stroke-width:1;stroke:rgba(51,51,51,1.0);fill:none"/><text x="467" y="373" style="stroke-width:0;stroke:none;fill:rgba(51,51,51,1.0);font-size:12.8px;font-family:'Roboto Medium',sans-serif">2021-04-26</text><path  d="M 615 351
L 615 356" style="stroke-width:1;stroke:rgba(51,51,51,1.0);fill:none"/><text x="582" y="373" style="stroke-width:0;stroke:none;fill:rgba(51,51,51,1.0);font-size:12.8px;font-family:'Roboto Medium',sans-serif">2021-08-10</text><path  d="M 731 351
L 731 356" style="stroke-width:1;stroke:rgba(51,51,51,1.0);fill:none"/><text x="698" y="373" style="stroke-width:0;stroke:none;fill:rgba(51,51,51,1.0);font-size:12.8px;font-family:'Roboto Medium',sans-serif">2021-11-25</text><path  d="M 846 351
L 846 356" style="stroke-width:1;stroke:rgba(51,51,51,1.0);fill:none"/><text x="813" y="373" style="stroke-width:0;stroke:none;fill:rgba(51,51,51,1.0);font-size:12.8px;font-family:'Roboto Medium',sans-serif">2022-03-11</text><path  d="M 961 351
L 961 356" style="stroke-width:1;stroke:rgba(51,51,51,1.0);fill:none"/><text x="928" y="373" style="stroke-width:0;stroke:none;fill:rgba(51,51,51,1.0);font-size:12.8px;font-family:'Roboto Medium',sans-serif">2022-06-26</text><text x="481" y="395" style="stroke-width:0;stroke:none;fill:rgba(51,51,51,1.0);font-size:12.8px;font-family:'Roboto Medium',sans-serif">Datum</text><path  d="M 962 351
L 962 11" style="stroke-width:1;stroke:rgba(51,51,51,1.0);fill:none"/><path  d="M 962 351
L 967 351" style="stroke-width:1;stroke:rgba(51,51,51,1.0);fill:none"/><text x="972" y="357" style="stroke-width:0;stroke:none;fill:rgba(51,51,51,1.0);font-size:12.8px;font-family:'Roboto Medium',sans-serif">0.00</text><path  d="M 962 307
L 967 307" style="stroke-width:1;stroke:rgba(51,51,51,1.0);fill:none"/><text x="972" y="313" style="stroke-width:0;stroke:none;fill:rgba(51,51,51,1.0);font-size:12.8px;font-family:'Roboto Medium',sans-serif">420.00</text><path  d="M 962 265
L 967 265" style="stroke-width:1;stroke:rgba(51,51,51,1.0);fill:none"/><text x="972" y="271" style="stroke-width:0;stroke:none;fill:rgba(51,51,51,1.0);font-size:12.8px;font-family:'Roboto Medium',sans-serif">830.00</text><path  d="M 962 223
L 967 223" style="stroke-width:1;stroke:rgba(51,51,51,1.0);fill:none"/><text x="972" y="229" style="stroke-width:0;stroke:none;fill:rgba(51,51,51,1.0);font-size:12.8px;font-family:'Roboto Medium',sans-serif">1240.00</text><path  d="M 962 181
L 967 181" style="stroke-width:1;stroke:rgba(51,51,51,1.0);fill:none"/><text x="972" y="187" style="stroke-width:0;stroke:none;fill:rgba(51,51,51,1.0);font-size:12.8px;font-family:'Roboto Medium',sans-serif">1650.00</text><path  d="M 962 137
L 967 137" style="stroke-width:1;stroke:rgba(51,51,51,1.0);fill:none"/><text x="972" y="143" style="stroke-width:0;stroke:none;fill:rgba(51,51,51,1.0);font-size:12.8px;font-family:'Roboto Medium',sans-serif">2070.00</text><path  d="M 962 95
L 967 95" style="stroke-width:1;stroke:rgba(51,51,51,1.0);fill:none"/><text x="972" y="101" style="stroke-width:0;stroke:none;fill:rgba(51,51,51,1.0);font-size:12.8px;font-family:'Roboto Medium',sans-serif">2480.00</text><path  d="M 962 53
L 967 53" style="stroke-width:1;stroke:rgba(51,51,51,1.0);fill:none"/><text x="972" y="59" style="stroke-width:0;stroke:none;fill:rgba(51,51,51,1.0);font-size:12.8px;font-family:'Roboto Medium',sans-serif">2890.00</text><path  d="M 962 11
L 967 11" style="stroke-width:1;stroke:rgba(51,51,51,1.0);fill:none"/><text x="972" y="17" style="stroke-width:0;stroke:none;fill:rgba(51,51,51,1.0);font-size:12.8px;font-family:'Roboto Medium',sans-serif">3300.00</text><path  d="M 38 351
L 40 351
L 41 351
L 42 351
L 43 351
L 44 351
L 45 351
L 46 351
L 47 351
L 48 351
L 49 351
L 50 351
L 52 351
L 53 351
L 54 351
L 55 351
L 56 351
L 57 351
L 58 351
L 59 351
L 60 349
L 61 349
L 62 349
L 63 349
L 65 349
L 66 349
L 67 348
L 68 349
L 69 349
L 70 350
L 71 350
L 72 350
L 73 350
L 74 351
L 75 351
L 76 351
L 78 351
L 79 350
L 80 350
L 81 350
L 82 350
L 83 350
L 84 350
L 85 350
L 86 351
L 87 351
L 88 351
L 89 351
L 91 351
L 92 351
L 93 351
L 94 351
L 95 351
L 96 351
L 97 351
L 98 351
L 99 351
L 100 351
L 101 351
L 102 351
L 104 351
L 105 351
L 106 351
L 107 351
L 108 351
L 109 351
L 110 351
L 111 351
L 112 351
L 113 351
L 114 351
L 116 351
L 117 351
L 118 351
L 119 351
L 120 351
L 121 351
L 122 351
L 123 351
L 124 351
L 125 351
L 126 351
L 127 351
L 129 351
L 130 351
L 131 351
L 132 351
L 133 351
L 134 351
L 135 351
L 136 351
L 137 351
L 138 351
L 139 351
L 140 351
L 142 351
L 143 351
L 144 351
L 145 351
L 146 351
L 147 351
L 148 351
L 149 351
L 150 351
L 151 351
L 152 351
L 153 351
L 155 351
L 156 351
L 157 351
L 158 351
L 159 351
L 160 351
L 161 351
L 162 351
L 163 351
L 164 351
L 165 351
L 166 351
L 168 351
L 169 351
L 170 351
L 171 351
L 172 351
L 173 351
L 174 351
L 175 351
L 176 351
L 177 351
L 178 351
L 179 351
L 181 351
L 182 351
L 183 351
L 184 351
L 185 351
L 186 351
L 187 351
L 188 351
L 189 351
L 190 351
L 191 351
L 193 351
L 194 351
L 195 351
L 196 351
L 197 351
L 198 351
L 199 351
L 200 351
L 201 351
L 202 351
L 203 351
L 204 351
L 206 351
L 207 351
L 208 351
L 209 351
L 210 351
L 211 351
L 212 351
L 213 351
L 214 351
L 215 351
L 216 351
L 217 351
L 219 351
L 220 351
L 221 351
L 222 351
L 223 351
L 224 351
L 225 351
L 226 351
L 227 351
L 228 351
L 229 351
L 230 351
L 232 351
L 233 351
L 234 351
L 235 351
L 236 351
L 237 351
L 238 350
L 239 350
L 240 350
L 241 350
L 242 350
L 243 350
L 245 350
L 246 351
L 247 351
L 248 351
L 249 351
L 250 351
L 251 351
L 252 351
L 253 351
L 254 350
L 255 350
L 257 350
L 258 350
L 259 349
L 260 349
L 261 349
L 262 350
L 263 350
L 264 350
L 265 350
L 266 350
L 267 350
L 268 349
L 270 343
L 271 343
L 272 337
L 273 331
L 274 329
L 275 327
L 276 325
L 277 332
L 278 332
L 279 336
L 280 341
L 281 344
L 283 346
L 284 347
L 285 347
L 286 347
L 287 348
L 288 349
L 289 348
L 290 348
L 291 348
L 292 348
L 293 347
L 294 346
L 296 346
L 297 347
L 298 344
L 299 343
L 300 339
L 301 341
L 302 340
L 303 340
L 304 336
L 305 333
L 306 321
L 307 320
L 309 319
L 310 314
L 311 308
L 312 295
L 313 292
L 314 301
L 315 299
L 316 293
L 317 296
L 318 300
L 319 293
L 320 296
L 322 291
L 323 296
L 324 299
L 325 297
L 326 289
L 327 303
L 328 296
L 329 303
L 330 294
L 331 292
L 332 292
L 334 295
L 335 301
L 336 303
L 337 299
L 338 307
L 339 312
L 340 315
L 341 316
L 342 315
L 343 313
L 344 313
L 345 306
L 347 305
L 348 301
L 349 303
L 350 301
L 351 308
L 352 301
L 353 306
L 354 304
L 355 296
L 356 294
L 357 295
L 358 297
L 360 302
L 361 301
L 362 300
L 363 304
L 364 293
L 365 286
L 366 280
L 367 284
L 368 284
L 369 287
L 370 292
L 371 303
L 373 299
L 374 306
L 375 299
L 376 302
L 377 302
L 378 296
L 379 292
L 380 304
L 381 301
L 382 308
L 383 308
L 384 310
L 386 316
L 387 323
L 388 321
L 389 322
L 390 320
L 391 317
L 392 316
L 393 313
L 394 312
L 395 315
L 396 316
L 398 315
L 399 317
L 400 317
L 401 317
L 402 317
L 403 318
L 404 318
L 405 323
L 406 324
L 407 325
L 408 325
L 409 325
L 411 321
L 412 323
L 413 320
L 414 321
L 415 313
L 416 313
L 417 317
L 418 312
L 419 306
L 420 307
L 421 301
L 422 307
L 424 299
L 425 296
L 426 296
L 427 291
L 428 285
L 429 284
L 430 285
L 431 289
L 432 281
L 433 281
L 434 285
L 435 280
L 437 279
L 438 281
L 439 279
L 440 282
L 441 281
L 442 280
L 443 284
L 444 289
L 445 288
L 446 291
L 447 298
L 448 301
L 450 311
L 451 319
L 452 321
L 453 319
L 454 328
L 455 328
L 456 335
L 457 335
L 458 335
L 459 339
L 460 339
L 461 337
L 463 340
L 464 339
L 465 337
L 466 338
L 467 336
L 468 335
L 469 333
L 470 333
L 471 330
L 472 330
L 473 329
L 475 328
L 476 330
L 477 332
L 478 331
L 479 335
L 480 336
L 481 335
L 482 337
L 483 336
L 484 336
L 485 337
L 486 338
L 488 339
L 489 341
L 490 343
L 491 345
L 492 347
L 493 347
L 494 348
L 495 348
L 496 347
L 497 347
L 498 347
L 499 346
L 501 345
L 502 345
L 503 347
L 504 348
L 505 348
L 506 349
L 507 348
L 508 348
L 509 348
L 510 347
L 511 346
L 512 345
L 514 344
L 515 345
L 516 345
L 517 346
L 518 347
L 519 348
L 520 348
L 521 349
L 522 349
L 523 349
L 524 348
L 525 347
L 527 347
L 528 347
L 529 347
L 530 348
L 531 348
L 532 349
L 533 349
L 534 349
L 535 349
L 536 349
L 537 348
L 539 348
L 540 348
L 541 349
L 542 349
L 543 349
L 544 349
L 545 349
L 546 349
L 547 349
L 548 349
L 549 349
L 550 349
L 552 349
L 553 351
L 554 351
L 555 351
L 556 351
L 557 351
L 558 351
L 559 351
L 560 351
L 561 351
L 562 351
L 563 351
L 565 351
L 566 351
L 567 351
L 568 351
L 569 351
L 570 351
L 571 351
L 572 351
L 573 351
L 574 351
L 575 351
L 576 351
L 578 351
L 579 351
L 580 350
L 581 350
L 582 350
L 583 350
L 584 349
L 585 349
L 586 349
L 587 350
L 588 350
L 589 347
L 591 345
L 592 343
L 593 341
L 594 341
L 595 338
L 596 336
L 597 340
L 598 340
L 599 340
L 600 341
L 601 342
L 602 345
L 604 346
L 605 346
L 606 347
L 607 348
L 608 347
L 609 347
L 610 347
L 611 348
L 612 347
L 613 348
L 614 349
L 616 349
L 617 349
L 618 349
L 619 348
L 620 348
L 621 347
L 622 347
L 623 347
L 624 346
L 625 346
L 626 346
L 627 347
L 629 347
L 630 348
L 631 348
L 632 348
L 633 349
L 634 349
L 635 349
L 636 349
L 637 348
L 638 349
L 639 349
L 640 348
L 642 348
L 643 347
L 644 345
L 645 344
L 646 344
L 647 341
L 648 342
L 649 343
L 650 342
L 651 342
L 652 340
L 653 335
L 655 335
L 656 331
L 657 329
L 658 331
L 659 331
L 660 332
L 661 335
L 662 336
L 663 338
L 664 338
L 665 338
L 666 337
L 668 340
L 669 341
L 670 339
L 671 337
L 672 334
L 673 333
L 674 334
L 675 329
L 676 329
L 677 332
L 678 333
L 680 338
L 681 338
L 682 340
L 683 341
L 684 341
L 685 340
L 686 340
L 687 339
L 688 339
L 689 335
L 690 333
L 691 331
L 693 332
L 694 329
L 695 324
L 696 323
L 697 321
L 698 321
L 699 319
L 700 313
L 701 307
L 702 307
L 703 307
L 704 305
L 706 304
L 707 300
L 708 296
L 709 297
L 710 290
L 711 290
L 712 292
L 713 281
L 714 270
L 715 271
L 716 258
L 717 263
L 719 263
L 720 252
L 721 260
L 722 266
L 723 257
L 724 261
L 725 256
L 726 255
L 727 259
L 728 264
L 729 247
L 730 255
L 732 253
L 733 258
L 734 256
L 735 253
L 736 239
L 737 256
L 738 261
L 739 269
L 740 274
L 741 276
L 742 278
L 743 284
L 745 292
L 746 299
L 747 297
L 748 296
L 749 295
L 750 303
L 751 309
L 752 311
L 753 311
L 754 322
L 755 325
L 757 328
L 758 331
L 759 332
L 760 337
L 761 338
L 762 339
L 763 338
L 764 339
L 765 339
L 766 336
L 767 335
L 768 329
L 770 328
L 771 328
L 772 327
L 773 325
L 774 316
L 775 312
L 776 314
L 777 315
L 778 307
L 779 307
L 780 301
L 781 306
L 783 300
L 784 295
L 785 288
L 786 290
L 787 280
L 788 271
L 789 259
L 790 255
L 791 239
L 792 224
L 793 216
L 794 216
L 796 219
L 797 202
L 798 199
L 799 196
L 800 192
L 801 182
L 802 176
L 803 170
L 804 168
L 805 148
L 806 155
L 807 125
L 809 107
L 810 94
L 811 92
L 812 58
L 813 48
L 814 15
L 815 26
L 816 26
L 817 29
L 818 29
L 819 58
L 821 65
L 822 66
L 823 83
L 824 99
L 825 104
L 826 101
L 827 99
L 828 111
L 829 140
L 830 137
L 831 150
L 832 158
L 834 166
L 835 178
L 836 177
L 837 167
L 838 167
L 839 152
L 840 153
L 841 139
L 842 131
L 843 125
L 844 123
L 845 95
L 847 103
L 848 91
L 849 97
L 850 61
L 851 58
L 852 49
L 853 74
L 854 55
L 855 58
L 856 56
L 857 73
L 858 80
L 860 93
L 861 84
L 862 107
L 863 120
L 864 121
L 865 147
L 866 158
L 867 166
L 868 180
L 869 183
L 870 184
L 871 204
L 873 216
L 874 222
L 875 236
L 876 256
L 877 261
L 878 272
L 879 273
L 880 289
L 881 300
L 882 291
L 883 297
L 884 295
L 886 295
L 887 299
L 888 297
L 889 275
L 890 281
L 891 271
L 892 275
L 893 272
L 894 270
L 895 271
L 896 293
L 898 295
L 899 304
L 900 307
L 901 309
L 902 312
L 903 315
L 904 308
L 905 311
L 906 312
L 907 315
L 908 311
L 909 310
L 911 307
L 912 310
L 913 309
L 914 309
L 915 310
L 916 316
L 917 315
L 918 319
L 919 327
L 920 329
L 921 329
L 922 328
L 924 328
L 925 329
L 926 331
L 927 333
L 928 333
L 929 338
L 930 340
L 931 340
L 932 341
L 933 344
L 934 344
L 935 344
L 937 344
L 938 343
L 939 343
L 940 344
L 941 343
L 942 341
L 943 343
L 944 339
L 945 339
L 946 338
L 947 337
L 948 336
L 950 338
L 951 337
L 952 339
L 953 336
L 954 337
L 955 336
L 956 332
L 957 331
L 958 332
L 959 325
L 960 326
L 961 325" style="stroke-width:1;stroke:rgba(0,116,217,1.0);fill:none"/><path  d="M 38 351
L 40 351
L 41 351
L 42 351
L 43 351
L 44 351
L 45 351
L 46 351
L 47 351
L 48 351
L 49 351
L 50 351
L 52 351
L 53 351
L 54 351
L 55 351
L 56 351
L 57 351
L 58 351
L 59 351
L 60 350
L 61 351
L 62 350
L 63 351
L 65 351
L 66 351
L 67 350
L 68 351
L 69 351
L 70 351
L 71 351
L 72 351
L 73 351
L 74 351
L 75 351
L 76 351
L 78 351
L 79 350
L 80 351
L 81 351
L 82 351
L 83 351
L 84 351
L 85 351
L 86 351
L 87 351
L 88 351
L 89 351
L 91 351
L 92 351
L 93 351
L 94 351
L 95 351
L 96 351
L 97 351
L 98 351
L 99 351
L 100 351
L 101 351
L 102 351
L 104 351
L 105 351
L 106 351
L 107 351
L 108 351
L 109 351
L 110 351
L 111 351
L 112 351
L 113 351
L 114 351
L 116 351
L 117 351
L 118 351
L 119 351
L 120 351
L 121 351
L 122 351
L 123 351
L 124 351
L 125 351
L 126 351
L 127 351
L 129 351
L 130 351
L 131 351
L 132 351
L 133 351
L 134 351
L 135 351
L 136 351
L 137 351
L 138 351
L 139 351
L 140 351
L 142 351
L 143 351
L 144 351
L 145 351
L 146 351
L 147 351
L 148 351
L 149 351
L 150 351
L 151 351
L 152 351
L 153 351
L 155 351
L 156 351
L 157 351
L 158 351
L 159 351
L 160 351
L 161 351
L 162 351
L 163 351
L 164 351
L 165 351
L 166 351
L 168 351
L 169 351
L 170 351
L 171 351
L 172 351
L 173 351
L 174 351
L 175 351
L 176 351
L 177 351
L 178 351
L 179 351
L 181 351
L 182 351
L 183 351
L 184 351
L 185 351
L 186 351
L 187 351
L 188 351
L 189 351
L 190 351
L 191 351
L 193 351
L 194 351
L 195 351
L 196 351
L 197 351
L 198 351
L 199 351
L 200 351
L 201 351
L 202 351
L 203 351
L 204 351
L 206 351
L 207 351
L 208 351
L 209 351
L 210 351
L 211 351
L 212 351
L 213 351
L 214 351
L 215 351
L 216 351
L 217 351
L 219 351
L 220 351
L 221 351
L 222 351
L 223 351
L 224 351
L 225 351
L 226 351
L 227 351
L 228 351
L 229 351
L 230 351
L 232 351
L 233 351
L 234 351
L 235 351
L 236 351
L 237 351
L 238 350
L 239 351
L 240 351
L 241 351
L 242 351
L 243 351
L 245 351
L 246 351
L 247 351
L 248 351
L 249 351
L 250 351
L 251 351
L 252 351
L 253 351
L 254 350
L 255 351
L 257 351
L 258 351
L 259 350
L 260 351
L 261 351
L 262 351
L 263 351
L 264 351
L 265 351
L 266 350
L 267 351
L 268 350
L 270 349
L 271 351
L 272 349
L 273 349
L 274 350
L 275 350
L 276 350
L 277 350
L 278 351
L 279 350
L 280 350
L 281 351
L 283 351
L 284 350
L 285 350
L 286 351
L 287 351
L 288 350
L 289 350
L 290 351
L 291 351
L 292 350
L 293 350
L 294 350
L 296 350
L 297 351
L 298 350
L 299 350
L 300 350
L 301 351
L 302 350
L 303 350
L 304 350
L 305 349
L 306 348
L 307 350
L 309 350
L 310 349
L 311 349
L 312 347
L 313 349
L 314 350
L 315 349
L 316 349
L 317 350
L 318 350
L 319 346
L 320 349
L 322 349
L 323 350
L 324 350
L 325 350
L 326 349
L 327 349
L 328 348
L 329 350
L 330 349
L 331 349
L 332 350
L 334 349
L 335 350
L 336 348
L 337 349
L 338 350
L 339 350
L 340 350
L 341 349
L 342 350
L 343 348
L 344 349
L 345 349
L 347 350
L 348 349
L 349 350
L 350 349
L 351 349
L 352 348
L 353 349
L 354 350
L 355 348
L 356 349
L 357 350
L 358 350
L 360 349
L 361 349
L 362 349
L 363 349
L 364 347
L 365 348
L 366 349
L 367 350
L 368 349
L 369 350
L 370 350
L 371 349
L 373 348
L 374 350
L 375 348
L 376 350
L 377 350
L 378 349
L 379 348
L 380 350
L 381 349
L 382 349
L 383 350
L 384 350
L 386 350
L 387 350
L 388 349
L 389 350
L 390 349
L 391 349
L 392 350
L 393 349
L 394 349
L 395 350
L 396 350
L 398 349
L 399 350
L 400 350
L 401 350
L 402 349
L 403 350
L 404 350
L 405 350
L 406 350
L 407 350
L 408 350
L 409 349
L 411 349
L 412 350
L 413 350
L 414 350
L 415 349
L 416 350
L 417 350
L 418 349
L 419 349
L 420 350
L 421 349
L 422 350
L 424 348
L 425 349
L 426 349
L 427 348
L 428 349
L 429 349
L 430 350
L 431 349
L 432 348
L 433 349
L 434 349
L 435 348
L 437 348
L 438 351
L 439 348
L 440 349
L 441 349
L 442 349
L 443 349
L 444 349
L 445 350
L 446 349
L 447 350
L 448 349
L 450 350
L 451 350
L 452 350
L 453 350
L 454 350
L 455 350
L 456 350
L 457 350
L 458 350
L 459 350
L 460 350
L 461 350
L 463 350
L 464 350
L 465 350
L 466 350
L 467 350
L 468 350
L 469 350
L 470 350
L 471 350
L 472 350
L 473 350
L 475 350
L 476 350
L 477 350
L 478 350
L 479 350
L 480 350
L 481 350
L 482 350
L 483 350
L 484 350
L 485 350
L 486 350
L 488 350
L 489 350
L 490 351
L 491 350
L 492 351
L 493 351
L 494 351
L 495 350
L 496 350
L 497 350
L 498 350
L 499 350
L 501 350
L 502 350
L 503 351
L 504 351
L 505 351
L 506 351
L 507 350
L 508 350
L 509 350
L 510 350
L 511 350
L 512 350
L 514 350
L 515 350
L 516 350
L 517 351
L 518 351
L 519 351
L 520 351
L 521 351
L 522 350
L 523 350
L 524 350
L 525 350
L 527 351
L 528 351
L 529 351
L 530 351
L 531 350
L 532 351
L 533 350
L 534 350
L 535 351
L 536 351
L 537 350
L 539 351
L 540 351
L 541 351
L 542 351
L 543 351
L 544 351
L 545 350
L 546 351
L 547 351
L 548 351
L 549 351
L 550 351
L 552 351
L 553 351
L 554 351
L 555 351
L 556 351
L 557 351
L 558 351
L 559 351
L 560 351
L 561 351
L 562 351
L 563 351
L 565 351
L 566 351
L 567 351
L 568 351
L 569 351
L 570 351
L 571 351
L 572 351
L 573 351
L 574 351
L 575 351
L 576 351
L 578 351
L 579 351
L 580 350
L 581 351
L 582 351
L 583 351
L 584 350
L 585 351
L 586 351
L 587 351
L 588 351
L 589 350
L 591 350
L 592 350
L 593 350
L 594 350
L 595 350
L 596 350
L 597 351
L 598 350
L 599 350
L 600 351
L 601 351
L 602 351
L 604 350
L 605 351
L 606 350
L 607 350
L 608 350
L 609 351
L 610 351
L 611 351
L 612 350
L 613 351
L 614 350
L 616 351
L 617 351
L 618 350
L 619 350
L 620 350
L 621 350
L 622 350
L 623 351
L 624 350
L 625 350
L 626 350
L 627 351
L 629 350
L 630 351
L 631 350
L 632 351
L 633 351
L 634 350
L 635 351
L 636 351
L 637 350
L 638 351
L 639 351
L 640 350
L 642 350
L 643 350
L 644 350
L 645 350
L 646 350
L 647 350
L 648 351
L 649 351
L 650 350
L 651 350
L 652 350
L 653 350
L 655 350
L 656 350
L 657 350
L 658 350
L 659 350
L 660 350
L 661 350
L 662 350
L 663 350
L 664 350
L 665 350
L 666 350
L 668 350
L 669 350
L 670 350
L 671 350
L 672 350
L 673 350
L 674 350
L 675 350
L 676 350
L 677 350
L 678 350
L 680 350
L 681 350
L 682 351
L 683 350
L 684 350
L 685 350
L 686 350
L 687 350
L 688 350
L 689 350
L 690 349
L 691 350
L 693 350
L 694 350
L 695 349
L 696 350
L 697 350
L 698 349
L 699 349
L 700 349
L 701 349
L 702 349
L 703 350
L 704 349
L 706 349
L 707 349
L 708 348
L 709 349
L 710 348
L 711 350
L 712 350
L 713 347
L 714 347
L 715 349
L 716 347
L 717 349
L 719 350
L 720 348
L 721 349
L 722 348
L 723 347
L 724 347
L 725 348
L 726 350
L 727 348
L 728 350
L 729 345
L 730 348
L 732 347
L 733 349
L 734 349
L 735 348
L 736 347
L 737 348
L 738 349
L 739 349
L 740 350
L 741 350
L 742 348
L 743 348
L 745 349
L 746 350
L 747 348
L 748 350
L 749 349
L 750 350
L 751 350
L 752 349
L 753 350
L 754 350
L 755 350
L 757 350
L 758 350
L 759 350
L 760 350
L 761 351
L 762 350
L 763 350
L 764 350
L 765 350
L 766 349
L 767 350
L 768 349
L 770 350
L 771 350
L 772 350
L 773 350
L 774 348
L 775 349
L 776 350
L 777 350
L 778 349
L 779 350
L 780 349
L 781 349
L 783 348
L 784 349
L 785 349
L 786 349
L 787 348
L 788 347
L 789 346
L 790 348
L 791 346
L 792 346
L 793 348
L 794 348
L 796 348
L 797 343
L 798 347
L 799 345
L 800 346
L 801 346
L 802 347
L 803 347
L 804 343
L 805 343
L 806 347
L 807 340
L 809 342
L 810 345
L 811 346
L 812 337
L 813 342
L 814 341
L 815 342
L 816 342
L 817 345
L 818 346
L 819 342
L 821 343
L 822 341
L 823 345
L 824 345
L 825 346
L 826 346
L 827 342
L 828 345
L 829 347
L 830 345
L 831 348
L 832 347
L 834 347
L 835 344
L 836 345
L 837 345
L 838 345
L 839 345
L 840 347
L 841 345
L 842 343
L 843 344
L 844 344
L 845 340
L 847 346
L 848 345
L 849 346
L 850 336
L 851 343
L 852 343
L 853 344
L 854 343
L 855 346
L 856 345
L 857 339
L 858 344
L 860 345
L 861 342
L 862 347
L 863 348
L 864 346
L 865 344
L 866 346
L 867 347
L 868 345
L 869 348
L 870 348
L 871 349
L 873 346
L 874 347
L 875 349
L 876 348
L 877 349
L 878 350
L 879 349
L 880 349
L 881 349
L 882 348
L 883 349
L 884 349
L 886 350
L 887 350
L 888 349
L 889 345
L 890 349
L 891 348
L 892 349
L 893 350
L 894 350
L 895 349
L 896 349
L 898 349
L 899 349
L 900 350
L 901 350
L 902 350
L 903 349
L 904 348
L 905 350
L 906 350
L 907 350
L 908 349
L 909 350
L 911 349
L 912 349
L 913 350
L 914 350
L 915 350
L 916 351
L 917 350
L 918 350
L 919 350
L 920 350
L 921 350
L 922 350
L 924 350
L 925 350
L 926 350
L 927 350
L 928 350
L 929 351
L 930 351
L 931 350
L 932 350
L 933 350
L 934 350
L 935 350
L 937 350
L 938 350
L 939 350
L 940 351
L 941 350
L 942 350
L 943 350
L 944 350
L 945 350
L 946 350
L 947 350
L 948 350
L 950 350
L 951 350
L 952 350
L 953 350
L 954 350
L 955 350
L 956 349
L 957 350
L 958 350
L 959 349
L 960 350
L 961 350" style="stroke-width:1;stroke:rgba(0,217,101,1.0);fill:none"/><path  d="M 38 351
L 40 351
L 41 351
L 42 351
L 43 351
L 44 351
L 45 351
L 46 351
L 47 351
L 48 351
L 49 351
L 50 351
L 52 351
L 53 351
L 54 351
L 55 351
L 56 351
L 57 351
L 58 351
L 59 351
L 60 351
L 61 351
L 62 351
L 63 351
L 65 351
L 66 351
L 67 351
L 68 351
L 69 351
L 70 351
L 71 351
L 72 351
L 73 351
L 74 351
L 75 351
L 76 351
L 78 351
L 79 351
L 80 351
L 81 351
L 82 351
L 83 351
L 84 351
L 85 351
L 86 351
L 87 351
L 88 351
L 89 351
L 91 351
L 92 351
L 93 351
L 94 351
L 95 351
L 96 351
L 97 351
L 98 351
L 99 351
L 100 351
L 101 351
L 102 351
L 104 351
L 105 351
L 106 351
L 107 351
L 108 351
L 109 351
L 110 351
L 111 351
L 112 351
L 113 351
L 114 351
L 116 351
L 117 351
L 118 351
L 119 351
L 120 351
L 121 351
L 122 351
L 123 351
L 124 351
L 125 351
L 126 351
L 127 351
L 129 351
L 130 351
L 131 351
L 132 351
L 133 351
L 134 351
L 135 351
L 136 351
L 137 351
L 138 351
L 139 351
L 140 351
L 142 351
L 143 351
L 144 351
L 145 351
L 146 351
L 147 351
L 148 351
L 149 351
L 150 351
L 151 351
L 152 351
L 153 351
L 155 351
L 156 351
L 157 351
L 158 351
L 159 351
L 160 351
L 161 351
L 162 351
L 163 351
L 164 351
L 165 351
L 166 351
L 168 351
L 169 351
L 170 351
L 171 351
L 172 351
L 173 351
L 174 351
L 175 351
L 176 351
L 177 351
L 178 351
L 179 351
L 181 351
L 182 351
L 183 351
L 184 351
L 185 351
L 186 351
L 187 351
L 188 351
L 189 351
L 190 351
L 191 351
L 193 351
L 194 351
L 195 351
L 196 351
L 197 351
L 198 351
L 199 351
L 200 351
L 201 351
L 202 351
L 203 351
L 204 351
L 206 351
L 207 351
L 208 351
L 209 351
L 210 351
L 211 351
L 212 351
L 213 351
L 214 351
L 215 351
L 216 351
L 217 351
L 219 351
L 220 351
L 221 351
L 222 351
L 223 351
L 224 351
L 225 351
L 226 351
L 227 351
L 228 351
L 229 351
L 230 351
L 232 351
L 233 351
L 234 351
L 235 351
L 236 351
L 237 351
L 238 351
L 239 351
L 240 351
L 241 351
L 242 351
L 243 351
L 245 351
L 246 351
L 247 351
L 248 351
L 249 351
L 250 351
L 251 351
L 252 351
L 253 351
L 254 351
L 255 351
L 257 351
L 258 351
L 259 351
L 260 351
L 261 351
L 262 351
L 263 351
L 264 351
L 265 351
L 266 351
L 267 351
L 268 351
L 270 351
L 271 351
L 272 351
L 273 351
L 274 351
L 275 351
L 276 351
L 277 351
L 278 351
L 279 351
L 280 351
L 281 351
L 283 351
L 284 351
L 285 351
L 286 351
L 287 351
L 288 351
L 289 351
L 290 351
L 291 351
L 292 351
L 293 351
L 294 351
L 296 351
L 297 351
L 298 351
L 299 351
L 300 351
L 301 351
L 302 351
L 303 351
L 304 351
L 305 351
L 306 351
L 307 351
L 309 351
L 310 351
L 311 351
L 312 351
L 313 351
L 314 350
L 315 351
L 316 351
L 317 350
L 318 351
L 319 351
L 320 351
L 322 350
L 323 351
L 324 351
L 325 351
L 326 351
L 327 351
L 328 351
L 329 351
L 330 351
L 331 351
L 332 351
L 334 351
L 335 351
L 336 351
L 337 351
L 338 351
L 339 351
L 340 351
L 341 351
L 342 351
L 343 351
L 344 351
L 345 351
L 347 350
L 348 350
L 349 351
L 350 351
L 351 350
L 352 351
L 353 350
L 354 351
L 355 351
L 356 350
L 357 350
L 358 350
L 360 350
L 361 351
L 362 351
L 363 350
L 364 351
L 365 351
L 366 351
L 367 351
L 368 351
L 369 351
L 370 351
L 371 350
L 373 350
L 374 351
L 375 351
L 376 351
L 377 350
L 378 350
L 379 351
L 380 350
L 381 350
L 382 351
L 383 351
L 384 351
L 386 351
L 387 351
L 388 351
L 389 351
L 390 351
L 391 351
L 392 351
L 393 350
L 394 351
L 395 351
L 396 350
L 398 351
L 399 351
L 400 351
L 401 351
L 402 351
L 403 351
L 404 351
L 405 351
L 406 351
L 407 351
L 408 351
L 409 351
L 411 351
L 412 350
L 413 351
L 414 350
L 415 351
L 416 351
L 417 351
L 418 351
L 419 351
L 420 351
L 421 350
L 422 351
L 424 351
L 425 351
L 426 351
L 427 351
L 428 351
L 429 351
L 430 350
L 431 351
L 432 351
L 433 350
L 434 351
L 435 350
L 437 351
L 438 350
L 439 351
L 440 351
L 441 350
L 442 351
L 443 351
L 444 351
L 445 351
L 446 350
L 447 351
L 448 350
L 450 351
L 451 350
L 452 351
L 453 350
L 454 351
L 455 351
L 456 350
L 457 351
L 458 351
L 459 351
L 460 351
L 461 351
L 463 350
L 464 350
L 465 351
L 466 351
L 467 351
L 468 351
L 469 350
L 470 351
L 471 351
L 472 351
L 473 351
L 475 351
L 476 351
L 477 351
L 478 351
L 479 351
L 480 351
L 481 351
L 482 351
L 483 351
L 484 351
L 485 351
L 486 351
L 488 351
L 489 351
L 490 351
L 491 351
L 492 351
L 493 351
L 494 351
L 495 351
L 496 351
L 497 351
L 498 351
L 499 351
L 501 351
L 502 350
L 503 351
L 504 351
L 505 351
L 506 351
L 507 351
L 508 351
L 509 351
L 510 351
L 511 351
L 512 351
L 514 350
L 515 351
L 516 351
L 517 351
L 518 351
L 519 351
L 520 351
L 521 351
L 522 351
L 523 351
L 524 351
L 525 351
L 527 351
L 528 351
L 529 351
L 530 351
L 531 351
L 532 351
L 533 351
L 534 351
L 535 351
L 536 351
L 537 351
L 539 351
L 540 351
L 541 351
L 542 351
L 543 351
L 544 351
L 545 351
L 546 351
L 547 351
L 548 351
L 549 351
L 550 351
L 552 351
L 553 351
L 554 351
L 555 351
L 556 351
L 557 351
L 558 351
L 559 351
L 560 351
L 561 351
L 562 351
L 563 351
L 565 351
L 566 351
L 567 351
L 568 351
L 569 351
L 570 351
L 571 351
L 572 351
L 573 351
L 574 351
L 575 351
L 576 351
L 578 351
L 579 351
L 580 351
L 581 351
L 582 351
L 583 351
L 584 351
L 585 351
L 586 351
L 587 351
L 588 351
L 589 351
L 591 351
L 592 351
L 593 351
L 594 351
L 595 351
L 596 351
L 597 351
L 598 351
L 599 351
L 600 351
L 601 351
L 602 351
L 604 351
L 605 351
L 606 351
L 607 351
L 608 351
L 609 351
L 610 351
L 611 351
L 612 351
L 613 351
L 614 351
L 616 351
L 617 351
L 618 351
L 619 351
L 620 351
L 621 351
L 622 351
L 623 351
L 624 351
L 625 351
L 626 351
L 627 351
L 629 351
L 630 351
L 631 351
L 632 351
L 633 351
L 634 351
L 635 351
L 636 351
L 637 351
L 638 351
L 639 351
L 640 351
L 642 351
L 643 351
L 644 351
L 645 351
L 646 351
L 647 351
L 648 351
L 649 351
L 650 351
L 651 351
L 652 351
L 653 351
L 655 351
L 656 351
L 657 351
L 658 351
L 659 351
L 660 351
L 661 351
L 662 351
L 663 351
L 664 351
L 665 351
L 666 351
L 668 351
L 669 351
L 670 351
L 671 351
L 672 351
L 673 351
L 674 351
L 675 351
L 676 351
L 677 351
L 678 351
L 680 351
L 681 351
L 682 351
L 683 351
L 684 351
L 685 351
L 686 351
L 687 351
L 688 351
L 689 351
L 690 351
L 691 351
L 693 351
L 694 351
L 695 351
L 696 351
L 697 351
L 698 351
L 699 351
L 700 351
L 701 351
L 702 350
L 703 351
L 704 351
L 706 351
L 707 351
L 708 351
L 709 351
L 710 351
L 711 350
L 712 351
L 713 351
L 714 351
L 715 351
L 716 351
L 717 351
L 719 351
L 720 351
L 721 351
L 722 351
L 723 351
L 724 351
L 725 351
L 726 350
L 727 351
L 728 351
L 729 351
L 730 350
L 732 351
L 733 351
L 734 351
L 735 351
L 736 351
L 737 351
L 738 351
L 739 351
L 740 351
L 741 350
L 742 351
L 743 351
L 745 351
L 746 351
L 747 351
L 748 351
L 749 351
L 750 351
L 751 351
L 752 351
L 753 351
L 754 351
L 755 351
L 757 351
L 758 351
L 759 351
L 760 351
L 761 351
L 762 351
L 763 351
L 764 351
L 765 351
L 766 351
L 767 351
L 768 351
L 770 351
L 771 351
L 772 351
L 773 351
L 774 351
L 775 351
L 776 351
L 777 351
L 778 351
L 779 351
L 780 351
L 781 351
L 783 351
L 784 351
L 785 351
L 786 351
L 787 351
L 788 351
L 789 350
L 790 351
L 791 351
L 792 351
L 793 351
L 794 351
L 796 351
L 797 351
L 798 351
L 799 351
L 800 351
L 801 351
L 802 351
L 803 351
L 804 351
L 805 351
L 806 351
L 807 351
L 809 351
L 810 351
L 811 351
L 812 351
L 813 351
L 814 351
L 815 351
L 816 351
L 817 351
L 818 351
L 819 350
L 821 351
L 822 351
L 823 351
L 824 351
L 825 351
L 826 351
L 827 351
L 828 351
L 829 351
L 830 351
L 831 351
L 832 351
L 834 351
L 835 351
L 836 351
L 837 351
L 838 351
L 839 350
L 840 351
L 841 351
L 842 351
L 843 351
L 844 351
L 845 350
L 847 351
L 848 351
L 849 351
L 850 351
L 851 351
L 852 351
L 853 351
L 854 350
L 855 351
L 856 351
L 857 351
L 858 351
L 860 351
L 861 351
L 862 351
L 863 350
L 864 351
L 865 351
L 866 351
L 867 351
L 868 351
L 869 351
L 870 351
L 871 351
L 873 351
L 874 351
L 875 351
L 876 351
L 877 351
L 878 351
L 879 351
L 880 351
L 881 351
L 882 351
L 883 351
L 884 351
L 886 351
L 887 351
L 888 351
L 889 351
L 890 351
L 891 351
L 892 351
L 893 351
L 894 351
L 895 351
L 896 350
L 898 350
L 899 351
L 900 351
L 901 351
L 902 351
L 903 351
L 904 351
L 905 351
L 906 351
L 907 351
L 908 350
L 909 351
L 911 351
L 912 351
L 913 351
L 914 351
L 915 351
L 916 351
L 917 351
L 918 351
L 919 351
L 920 351
L 921 351
L 922 351
L 924 351
L 925 351
L 926 351
L 927 351
L 928 351
L 929 351
L 930 351
L 931 351
L 932 351
L 933 351
L 934 351
L 935 351
L 937 351
L 938 351
L 939 351
L 940 351
L 941 351
L 942 351
L 943 351
L 944 351
L 945 351
L 946 351
L 947 351
L 948 351
L 950 351
L 951 351
L 952 351
L 953 351
L 954 351
L 955 351
L 956 351
L 957 351
L 958 351
L 959 351
L 960 351
L 961 351" style="stroke-width:1;stroke:rgba(217,0,116,1.0);fill:none"/><text x="399" y="33" style="stroke-width:0;stroke:none;fill:rgba(51,51,51,1.0);font-size:23.0px;font-family:'Roboto Medium',sans-serif">Hermagor 26.06.2022</text><path  d="M 38 11
L 251 11
L 251 91
L 38 91
L 38 11" style="stroke-width:1;stroke:rgba(51,51,51,1.0);fill:rgba(255,255,255,1.0)"/><text x="43" y="26" style="stroke-width:0;stroke:none;fill:rgba(51,51,51,1.0);font-size:10.2px;font-family:'Roboto Medium',sans-serif">Sieben Tage Durschnitt Inzidenz Fälle</text><path  d="M 221 21
L 241 21" style="stroke-width:1;stroke:rgba(0,116,217,1.0);fill:none"/><text x="43" y="56" style="stroke-width:0;stroke:none;fill:rgba(51,51,51,1.0);font-size:10.2px;font-family:'Roboto Medium',sans-serif">Anzahl Faelle</text><path  d="M 110 51
L 241 51" style="stroke-width:1;stroke:rgba(0,217,101,1.0);fill:none"/><text x="43" y="86" style="stroke-width:0;stroke:none;fill:rgba(51,51,51,1.0);font-size:10.2px;font-family:'Roboto Medium',sans-serif">Anzahl Tot</text><path  d="M 98 81
L 241 81" style="stroke-width:1;stroke:rgba(217,0,116,1.0);fill:none"/></svg>