<svg xmlns="http://www.w3.org/2000/svg" xmlns:xlink="http://www.w3.org/1999/xlink" width="1024" height="400">\n<path  d="M 0 0
L 1024 0
L 1024 400
L 0 400
L 0 0" style="stroke-width:0;stroke:rgba(255,255,255,1.0);fill:rgba(255,255,255,1.0)"/><path  d="M 38 11
L 969 11
L 969 351
L 38 351
L 38 11" style="stroke-width:0;stroke:rgba(255,255,255,1.0);fill:rgba(255,255,255,1.0)"/><path  d="M 38 351
L 969 351" style="stroke-width:1;stroke:rgba(51,51,51,1.0);fill:none"/><path  d="M 38 351
L 38 356" style="stroke-width:1;stroke:rgba(51,51,51,1.0);fill:none"/><text x="5" y="373" style="stroke-width:0;stroke:none;fill:rgba(51,51,51,1.0);font-size:12.8px;font-family:'Roboto Medium',sans-serif">2020-02-26</text><path  d="M 155 351
L 155 356" style="stroke-width:1;stroke:rgba(51,51,51,1.0);fill:none"/><text x="122" y="373" style="stroke-width:0;stroke:none;fill:rgba(51,51,51,1.0);font-size:12.8px;font-family:'Roboto Medium',sans-serif">2020-04-02</text><path  d="M 271 351
L 271 356" style="stroke-width:1;stroke:rgba(51,51,51,1.0);fill:none"/><text x="238" y="373" style="stroke-width:0;stroke:none;fill:rgba(51,51,51,1.0);font-size:12.8px;font-family:'Roboto Medium',sans-serif">2020-05-08</text><path  d="M 388 351
L 388 356" style="stroke-width:1;stroke:rgba(51,51,51,1.0);fill:none"/><text x="355" y="373" style="stroke-width:0;stroke:none;fill:rgba(51,51,51,1.0);font-size:12.8px;font-family:'Roboto Medium',sans-serif">2020-06-13</text><path  d="M 504 351
L 504 356" style="stroke-width:1;stroke:rgba(51,51,51,1.0);fill:none"/><text x="471" y="373" style="stroke-width:0;stroke:none;fill:rgba(51,51,51,1.0);font-size:12.8px;font-family:'Roboto Medium',sans-serif">2020-07-19</text><path  d="M 620 351
L 620 356" style="stroke-width:1;stroke:rgba(51,51,51,1.0);fill:none"/><text x="587" y="373" style="stroke-width:0;stroke:none;fill:rgba(51,51,51,1.0);font-size:12.8px;font-family:'Roboto Medium',sans-serif">2020-08-24</text><path  d="M 737 351
L 737 356" style="stroke-width:1;stroke:rgba(51,51,51,1.0);fill:none"/><text x="704" y="373" style="stroke-width:0;stroke:none;fill:rgba(51,51,51,1.0);font-size:12.8px;font-family:'Roboto Medium',sans-serif">2020-09-29</text><path  d="M 853 351
L 853 356" style="stroke-width:1;stroke:rgba(51,51,51,1.0);fill:none"/><text x="820" y="373" style="stroke-width:0;stroke:none;fill:rgba(51,51,51,1.0);font-size:12.8px;font-family:'Roboto Medium',sans-serif">2020-11-04</text><path  d="M 969 351
L 969 356" style="stroke-width:1;stroke:rgba(51,51,51,1.0);fill:none"/><text x="936" y="373" style="stroke-width:0;stroke:none;fill:rgba(51,51,51,1.0);font-size:12.8px;font-family:'Roboto Medium',sans-serif">2020-12-10</text><text x="485" y="395" style="stroke-width:0;stroke:none;fill:rgba(51,51,51,1.0);font-size:12.8px;font-family:'Roboto Medium',sans-serif">Datum</text><path  d="M 970 351
L 970 11" style="stroke-width:1;stroke:rgba(51,51,51,1.0);fill:none"/><path  d="M 970 351
L 975 351" style="stroke-width:1;stroke:rgba(51,51,51,1.0);fill:none"/><text x="980" y="357" style="stroke-width:0;stroke:none;fill:rgba(51,51,51,1.0);font-size:12.8px;font-family:'Roboto Medium',sans-serif">0.00</text><path  d="M 970 308
L 975 308" style="stroke-width:1;stroke:rgba(51,51,51,1.0);fill:none"/><text x="980" y="314" style="stroke-width:0;stroke:none;fill:rgba(51,51,51,1.0);font-size:12.8px;font-family:'Roboto Medium',sans-serif">58.00</text><path  d="M 970 266
L 975 266" style="stroke-width:1;stroke:rgba(51,51,51,1.0);fill:none"/><text x="980" y="272" style="stroke-width:0;stroke:none;fill:rgba(51,51,51,1.0);font-size:12.8px;font-family:'Roboto Medium',sans-serif">115.00</text><path  d="M 970 223
L 975 223" style="stroke-width:1;stroke:rgba(51,51,51,1.0);fill:none"/><text x="980" y="229" style="stroke-width:0;stroke:none;fill:rgba(51,51,51,1.0);font-size:12.8px;font-family:'Roboto Medium',sans-serif">173.00</text><path  d="M 970 181
L 975 181" style="stroke-width:1;stroke:rgba(51,51,51,1.0);fill:none"/><text x="980" y="187" style="stroke-width:0;stroke:none;fill:rgba(51,51,51,1.0);font-size:12.8px;font-family:'Roboto Medium',sans-serif">230.00</text><path  d="M 970 138
L 975 138" style="stroke-width:1;stroke:rgba(51,51,51,1.0);fill:none"/><text x="980" y="144" style="stroke-width:0;stroke:none;fill:rgba(51,51,51,1.0);font-size:12.8px;font-family:'Roboto Medium',sans-serif">288.00</text><path  d="M 970 96
L 975 96" style="stroke-width:1;stroke:rgba(51,51,51,1.0);fill:none"/><text x="980" y="102" style="stroke-width:0;stroke:none;fill:rgba(51,51,51,1.0);font-size:12.8px;font-family:'Roboto Medium',sans-serif">345.00</text><path  d="M 970 53
L 975 53" style="stroke-width:1;stroke:rgba(51,51,51,1.0);fill:none"/><text x="980" y="59" style="stroke-width:0;stroke:none;fill:rgba(51,51,51,1.0);font-size:12.8px;font-family:'Roboto Medium',sans-serif">403.00</text><path  d="M 970 11
L 975 11" style="stroke-width:1;stroke:rgba(51,51,51,1.0);fill:none"/><text x="980" y="17" style="stroke-width:0;stroke:none;fill:rgba(51,51,51,1.0);font-size:12.8px;font-family:'Roboto Medium',sans-serif">460.00</text><path  d="M 38 351
L 42 351
L 45 351
L 48 351
L 51 351
L 55 351
L 58 351
L 61 351
L 64 351
L 68 351
L 71 349
L 74 349
L 77 348
L 81 348
L 84 348
L 87 348
L 90 348
L 93 349
L 97 349
L 100 351
L 103 351
L 106 351
L 110 351
L 113 351
L 116 351
L 119 351
L 123 351
L 126 349
L 129 349
L 132 340
L 135 337
L 139 337
L 142 333
L 145 330
L 148 330
L 152 330
L 155 336
L 158 337
L 161 337
L 165 339
L 168 337
L 171 335
L 174 330
L 178 332
L 181 333
L 184 333
L 187 336
L 190 340
L 194 345
L 197 348
L 200 349
L 203 348
L 207 348
L 210 348
L 213 348
L 216 348
L 220 349
L 223 349
L 226 351
L 229 351
L 232 349
L 236 349
L 239 349
L 242 346
L 245 345
L 249 345
L 252 345
L 255 346
L 258 346
L 262 346
L 265 349
L 268 351
L 271 351
L 274 351
L 278 351
L 281 351
L 284 349
L 287 349
L 291 349
L 294 346
L 297 346
L 300 346
L 304 346
L 307 346
L 310 346
L 313 346
L 317 349
L 320 349
L 323 349
L 326 349
L 329 351
L 333 351
L 336 351
L 339 351
L 342 351
L 346 351
L 349 351
L 352 351
L 355 351
L 359 351
L 362 349
L 365 349
L 368 349
L 371 349
L 375 349
L 378 349
L 381 348
L 384 349
L 388 349
L 391 349
L 394 349
L 397 349
L 401 349
L 404 351
L 407 351
L 410 346
L 413 346
L 417 346
L 420 346
L 423 346
L 426 346
L 430 346
L 433 351
L 436 351
L 439 351
L 443 351
L 446 351
L 449 351
L 452 351
L 456 351
L 459 351
L 462 351
L 465 351
L 468 351
L 472 351
L 475 351
L 478 351
L 481 351
L 485 351
L 488 348
L 491 346
L 494 342
L 498 342
L 501 342
L 504 342
L 507 342
L 510 345
L 514 346
L 517 351
L 520 351
L 523 351
L 527 351
L 530 351
L 533 351
L 536 351
L 540 351
L 543 349
L 546 349
L 549 349
L 552 349
L 556 349
L 559 349
L 562 349
L 565 351
L 569 349
L 572 349
L 575 348
L 578 348
L 582 348
L 585 348
L 588 348
L 591 349
L 595 349
L 598 349
L 601 349
L 604 349
L 607 349
L 611 348
L 614 348
L 617 348
L 620 349
L 624 348
L 627 348
L 630 348
L 633 349
L 637 349
L 640 348
L 643 346
L 646 346
L 649 342
L 653 342
L 656 342
L 659 342
L 662 343
L 666 345
L 669 345
L 672 349
L 675 346
L 679 343
L 682 342
L 685 335
L 688 330
L 691 329
L 695 326
L 698 324
L 701 326
L 704 326
L 708 333
L 711 337
L 714 336
L 717 337
L 721 342
L 724 342
L 727 343
L 730 343
L 734 343
L 737 346
L 740 348
L 743 337
L 746 335
L 750 320
L 753 317
L 756 314
L 759 308
L 763 307
L 766 314
L 769 317
L 772 329
L 776 330
L 779 330
L 782 330
L 785 327
L 788 327
L 792 326
L 795 324
L 798 324
L 801 324
L 805 323
L 808 317
L 811 308
L 814 303
L 818 294
L 821 290
L 824 281
L 827 266
L 830 266
L 834 258
L 837 213
L 840 182
L 843 148
L 847 117
L 850 104
L 853 61
L 856 30
L 860 32
L 863 36
L 866 52
L 869 51
L 873 42
L 876 16
L 879 30
L 882 48
L 885 49
L 889 29
L 892 22
L 895 22
L 898 81
L 902 78
L 905 75
L 908 101
L 911 136
L 915 161
L 918 180
L 921 185
L 924 211
L 927 227
L 931 213
L 934 214
L 937 232
L 940 249
L 944 255
L 947 255
L 950 264
L 953 288
L 957 295
L 960 290
L 963 297
L 966 293
L 969 300" style="stroke-width:1;stroke:rgba(0,116,217,1.0);fill:none"/><path  d="M 38 351
L 42 351
L 45 351
L 48 351
L 51 351
L 55 351
L 58 351
L 61 351
L 64 351
L 68 351
L 71 350
L 74 351
L 77 350
L 81 351
L 84 351
L 87 351
L 90 351
L 93 351
L 97 351
L 100 351
L 103 351
L 106 351
L 110 351
L 113 351
L 116 351
L 119 351
L 123 351
L 126 350
L 129 351
L 132 346
L 135 349
L 139 351
L 142 348
L 145 349
L 148 350
L 152 351
L 155 349
L 158 350
L 161 351
L 165 349
L 168 348
L 171 348
L 174 348
L 178 350
L 181 351
L 184 351
L 187 351
L 190 351
L 194 351
L 197 350
L 200 351
L 203 350
L 207 351
L 210 351
L 213 351
L 216 351
L 220 351
L 223 351
L 226 351
L 229 351
L 232 350
L 236 351
L 239 351
L 242 349
L 245 350
L 249 351
L 252 351
L 255 351
L 258 351
L 262 351
L 265 351
L 268 351
L 271 351
L 274 351
L 278 351
L 281 351
L 284 350
L 287 351
L 291 351
L 294 349
L 297 351
L 300 351
L 304 351
L 307 350
L 310 351
L 313 351
L 317 351
L 320 351
L 323 351
L 326 351
L 329 351
L 333 351
L 336 351
L 339 351
L 342 351
L 346 351
L 349 351
L 352 351
L 355 351
L 359 351
L 362 350
L 365 351
L 368 351
L 371 351
L 375 351
L 378 351
L 381 350
L 384 351
L 388 351
L 391 351
L 394 351
L 397 351
L 401 351
L 404 351
L 407 351
L 410 348
L 413 351
L 417 351
L 420 351
L 423 351
L 426 351
L 430 351
L 433 351
L 436 351
L 439 351
L 443 351
L 446 351
L 449 351
L 452 351
L 456 351
L 459 351
L 462 351
L 465 351
L 468 351
L 472 351
L 475 351
L 478 351
L 481 351
L 485 351
L 488 349
L 491 350
L 494 348
L 498 351
L 501 351
L 504 351
L 507 351
L 510 351
L 514 351
L 517 351
L 520 351
L 523 351
L 527 351
L 530 351
L 533 351
L 536 351
L 540 351
L 543 350
L 546 351
L 549 351
L 552 351
L 556 351
L 559 351
L 562 351
L 565 351
L 569 350
L 572 351
L 575 350
L 578 351
L 582 351
L 585 351
L 588 351
L 591 351
L 595 351
L 598 350
L 601 351
L 604 351
L 607 351
L 611 350
L 614 351
L 617 351
L 620 351
L 624 350
L 627 351
L 630 351
L 633 351
L 637 351
L 640 350
L 643 350
L 646 350
L 649 348
L 653 351
L 656 351
L 659 351
L 662 351
L 666 351
L 669 350
L 672 351
L 675 349
L 679 349
L 682 350
L 685 347
L 688 348
L 691 349
L 695 349
L 698 348
L 701 350
L 704 350
L 708 351
L 711 351
L 714 348
L 717 350
L 721 351
L 724 350
L 727 351
L 730 351
L 734 351
L 737 350
L 740 351
L 743 345
L 746 348
L 750 343
L 753 349
L 756 349
L 759 347
L 763 350
L 766 349
L 769 350
L 772 349
L 776 350
L 779 349
L 782 347
L 785 348
L 788 349
L 792 349
L 795 348
L 798 350
L 801 349
L 805 346
L 808 345
L 811 345
L 814 346
L 818 344
L 821 348
L 824 345
L 827 339
L 830 345
L 834 340
L 837 323
L 840 328
L 843 330
L 847 329
L 850 332
L 853 323
L 856 325
L 860 324
L 863 331
L 866 338
L 869 328
L 873 328
L 876 310
L 879 332
L 882 333
L 885 331
L 889 328
L 892 325
L 895 328
L 898 340
L 902 331
L 905 331
L 908 345
L 911 345
L 915 337
L 918 337
L 921 343
L 924 344
L 927 339
L 931 337
L 934 346
L 937 346
L 940 346
L 944 346
L 947 344
L 950 344
L 953 350
L 957 350
L 960 343
L 963 350
L 966 344
L 969 348" style="stroke-width:1;stroke:rgba(0,217,101,1.0);fill:none"/><path  d="M 38 351
L 42 351
L 45 351
L 48 351
L 51 351
L 55 351
L 58 351
L 61 351
L 64 351
L 68 351
L 71 351
L 74 351
L 77 351
L 81 351
L 84 351
L 87 351
L 90 351
L 93 351
L 97 351
L 100 351
L 103 351
L 106 351
L 110 351
L 113 351
L 116 351
L 119 351
L 123 351
L 126 351
L 129 351
L 132 351
L 135 351
L 139 351
L 142 351
L 145 351
L 148 351
L 152 351
L 155 351
L 158 351
L 161 351
L 165 351
L 168 351
L 171 351
L 174 351
L 178 351
L 181 351
L 184 351
L 187 351
L 190 351
L 194 351
L 197 351
L 200 351
L 203 351
L 207 351
L 210 351
L 213 351
L 216 351
L 220 351
L 223 351
L 226 351
L 229 351
L 232 351
L 236 351
L 239 351
L 242 351
L 245 351
L 249 351
L 252 351
L 255 351
L 258 351
L 262 351
L 265 351
L 268 351
L 271 351
L 274 351
L 278 351
L 281 351
L 284 351
L 287 351
L 291 351
L 294 351
L 297 351
L 300 351
L 304 351
L 307 351
L 310 351
L 313 351
L 317 351
L 320 351
L 323 351
L 326 351
L 329 351
L 333 351
L 336 351
L 339 351
L 342 351
L 346 351
L 349 351
L 352 351
L 355 351
L 359 351
L 362 351
L 365 351
L 368 351
L 371 351
L 375 351
L 378 351
L 381 351
L 384 351
L 388 351
L 391 351
L 394 351
L 397 351
L 401 351
L 404 351
L 407 351
L 410 351
L 413 351
L 417 351
L 420 351
L 423 351
L 426 351
L 430 351
L 433 351
L 436 351
L 439 351
L 443 351
L 446 351
L 449 351
L 452 351
L 456 351
L 459 351
L 462 351
L 465 351
L 468 351
L 472 351
L 475 351
L 478 351
L 481 351
L 485 351
L 488 351
L 491 351
L 494 351
L 498 351
L 501 351
L 504 351
L 507 351
L 510 351
L 514 351
L 517 351
L 520 351
L 523 351
L 527 351
L 530 351
L 533 351
L 536 351
L 540 351
L 543 351
L 546 351
L 549 351
L 552 351
L 556 351
L 559 351
L 562 351
L 565 351
L 569 351
L 572 351
L 575 351
L 578 351
L 582 351
L 585 351
L 588 351
L 591 351
L 595 351
L 598 351
L 601 351
L 604 351
L 607 351
L 611 351
L 614 351
L 617 351
L 620 351
L 624 351
L 627 351
L 630 351
L 633 351
L 637 351
L 640 351
L 643 351
L 646 351
L 649 351
L 653 351
L 656 351
L 659 351
L 662 351
L 666 351
L 669 351
L 672 351
L 675 351
L 679 351
L 682 351
L 685 351
L 688 351
L 691 351
L 695 351
L 698 351
L 701 351
L 704 351
L 708 351
L 711 351
L 714 351
L 717 351
L 721 351
L 724 351
L 727 351
L 730 351
L 734 351
L 737 351
L 740 351
L 743 351
L 746 351
L 750 351
L 753 351
L 756 351
L 759 351
L 763 350
L 766 350
L 769 351
L 772 351
L 776 351
L 779 351
L 782 351
L 785 351
L 788 351
L 792 351
L 795 351
L 798 351
L 801 351
L 805 351
L 808 351
L 811 351
L 814 351
L 818 351
L 821 351
L 824 351
L 827 351
L 830 351
L 834 351
L 837 351
L 840 351
L 843 351
L 847 351
L 850 351
L 853 351
L 856 350
L 860 351
L 863 351
L 866 351
L 869 351
L 873 351
L 876 350
L 879 350
L 882 351
L 885 351
L 889 351
L 892 351
L 895 350
L 898 350
L 902 350
L 905 351
L 908 351
L 911 348
L 915 350
L 918 351
L 921 350
L 924 350
L 927 351
L 931 351
L 934 350
L 937 351
L 940 350
L 944 350
L 947 351
L 950 351
L 953 350
L 957 351
L 960 351
L 963 351
L 966 351
L 969 351" style="stroke-width:1;stroke:rgba(217,0,116,1.0);fill:none"/><text x="394" y="33" style="stroke-width:0;stroke:none;fill:rgba(51,51,51,1.0);font-size:23.0px;font-family:'Roboto Medium',sans-serif">Hollabrunn 10.12.2020</text><path  d="M 38 11
L 251 11
L 251 91
L 38 91
L 38 11" style="stroke-width:1;stroke:rgba(51,51,51,1.0);fill:rgba(255,255,255,1.0)"/><text x="43" y="26" style="stroke-width:0;stroke:none;fill:rgba(51,51,51,1.0);font-size:10.2px;font-family:'Roboto Medium',sans-serif">Sieben Tage Durschnitt Inzidenz Fälle</text><path  d="M 221 21
L 241 21" style="stroke-width:1;stroke:rgba(0,116,217,1.0);fill:none"/><text x="43" y="56" style="stroke-width:0;stroke:none;fill:rgba(51,51,51,1.0);font-size:10.2px;font-family:'Roboto Medium',sans-serif">Anzahl Faelle</text><path  d="M 110 51
L 241 51" style="stroke-width:1;stroke:rgba(0,217,101,1.0);fill:none"/><text x="43" y="86" style="stroke-width:0;stroke:none;fill:rgba(51,51,51,1.0);font-size:10.2px;font-family:'Roboto Medium',sans-serif">Anzahl Tot</text><path  d="M 98 81
L 241 81" style="stroke-width:1;stroke:rgba(217,0,116,1.0);fill:none"/></svg>