<svg xmlns="http://www.w3.org/2000/svg" xmlns:xlink="http://www.w3.org/1999/xlink" width="1024" height="400">\n<path  d="M 0 0
L 1024 0
L 1024 400
L 0 400
L 0 0" style="stroke-width:0;stroke:rgba(255,255,255,1.0);fill:rgba(255,255,255,1.0)"/><path  d="M 38 11
L 969 11
L 969 351
L 38 351
L 38 11" style="stroke-width:0;stroke:rgba(255,255,255,1.0);fill:rgba(255,255,255,1.0)"/><path  d="M 38 351
L 969 351" style="stroke-width:1;stroke:rgba(51,51,51,1.0);fill:none"/><path  d="M 38 351
L 38 356" style="stroke-width:1;stroke:rgba(51,51,51,1.0);fill:none"/><text x="5" y="373" style="stroke-width:0;stroke:none;fill:rgba(51,51,51,1.0);font-size:12.8px;font-family:'Roboto Medium',sans-serif">2020-02-26</text><path  d="M 155 351
L 155 356" style="stroke-width:1;stroke:rgba(51,51,51,1.0);fill:none"/><text x="122" y="373" style="stroke-width:0;stroke:none;fill:rgba(51,51,51,1.0);font-size:12.8px;font-family:'Roboto Medium',sans-serif">2020-05-07</text><path  d="M 271 351
L 271 356" style="stroke-width:1;stroke:rgba(51,51,51,1.0);fill:none"/><text x="238" y="373" style="stroke-width:0;stroke:none;fill:rgba(51,51,51,1.0);font-size:12.8px;font-family:'Roboto Medium',sans-serif">2020-07-17</text><path  d="M 388 351
L 388 356" style="stroke-width:1;stroke:rgba(51,51,51,1.0);fill:none"/><text x="355" y="373" style="stroke-width:0;stroke:none;fill:rgba(51,51,51,1.0);font-size:12.8px;font-family:'Roboto Medium',sans-serif">2020-09-26</text><path  d="M 504 351
L 504 356" style="stroke-width:1;stroke:rgba(51,51,51,1.0);fill:none"/><text x="471" y="373" style="stroke-width:0;stroke:none;fill:rgba(51,51,51,1.0);font-size:12.8px;font-family:'Roboto Medium',sans-serif">2020-12-06</text><path  d="M 620 351
L 620 356" style="stroke-width:1;stroke:rgba(51,51,51,1.0);fill:none"/><text x="587" y="373" style="stroke-width:0;stroke:none;fill:rgba(51,51,51,1.0);font-size:12.8px;font-family:'Roboto Medium',sans-serif">2021-02-15</text><path  d="M 737 351
L 737 356" style="stroke-width:1;stroke:rgba(51,51,51,1.0);fill:none"/><text x="704" y="373" style="stroke-width:0;stroke:none;fill:rgba(51,51,51,1.0);font-size:12.8px;font-family:'Roboto Medium',sans-serif">2021-04-27</text><path  d="M 853 351
L 853 356" style="stroke-width:1;stroke:rgba(51,51,51,1.0);fill:none"/><text x="820" y="373" style="stroke-width:0;stroke:none;fill:rgba(51,51,51,1.0);font-size:12.8px;font-family:'Roboto Medium',sans-serif">2021-07-07</text><path  d="M 969 351
L 969 356" style="stroke-width:1;stroke:rgba(51,51,51,1.0);fill:none"/><text x="936" y="373" style="stroke-width:0;stroke:none;fill:rgba(51,51,51,1.0);font-size:12.8px;font-family:'Roboto Medium',sans-serif">2021-09-16</text><text x="485" y="395" style="stroke-width:0;stroke:none;fill:rgba(51,51,51,1.0);font-size:12.8px;font-family:'Roboto Medium',sans-serif">Datum</text><path  d="M 970 351
L 970 11" style="stroke-width:1;stroke:rgba(51,51,51,1.0);fill:none"/><path  d="M 970 351
L 975 351" style="stroke-width:1;stroke:rgba(51,51,51,1.0);fill:none"/><text x="980" y="357" style="stroke-width:0;stroke:none;fill:rgba(51,51,51,1.0);font-size:12.8px;font-family:'Roboto Medium',sans-serif">0.00</text><path  d="M 970 308
L 975 308" style="stroke-width:1;stroke:rgba(51,51,51,1.0);fill:none"/><text x="980" y="314" style="stroke-width:0;stroke:none;fill:rgba(51,51,51,1.0);font-size:12.8px;font-family:'Roboto Medium',sans-serif">58.00</text><path  d="M 970 266
L 975 266" style="stroke-width:1;stroke:rgba(51,51,51,1.0);fill:none"/><text x="980" y="272" style="stroke-width:0;stroke:none;fill:rgba(51,51,51,1.0);font-size:12.8px;font-family:'Roboto Medium',sans-serif">115.00</text><path  d="M 970 223
L 975 223" style="stroke-width:1;stroke:rgba(51,51,51,1.0);fill:none"/><text x="980" y="229" style="stroke-width:0;stroke:none;fill:rgba(51,51,51,1.0);font-size:12.8px;font-family:'Roboto Medium',sans-serif">173.00</text><path  d="M 970 181
L 975 181" style="stroke-width:1;stroke:rgba(51,51,51,1.0);fill:none"/><text x="980" y="187" style="stroke-width:0;stroke:none;fill:rgba(51,51,51,1.0);font-size:12.8px;font-family:'Roboto Medium',sans-serif">230.00</text><path  d="M 970 138
L 975 138" style="stroke-width:1;stroke:rgba(51,51,51,1.0);fill:none"/><text x="980" y="144" style="stroke-width:0;stroke:none;fill:rgba(51,51,51,1.0);font-size:12.8px;font-family:'Roboto Medium',sans-serif">288.00</text><path  d="M 970 96
L 975 96" style="stroke-width:1;stroke:rgba(51,51,51,1.0);fill:none"/><text x="980" y="102" style="stroke-width:0;stroke:none;fill:rgba(51,51,51,1.0);font-size:12.8px;font-family:'Roboto Medium',sans-serif">345.00</text><path  d="M 970 53
L 975 53" style="stroke-width:1;stroke:rgba(51,51,51,1.0);fill:none"/><text x="980" y="59" style="stroke-width:0;stroke:none;fill:rgba(51,51,51,1.0);font-size:12.8px;font-family:'Roboto Medium',sans-serif">403.00</text><path  d="M 970 11
L 975 11" style="stroke-width:1;stroke:rgba(51,51,51,1.0);fill:none"/><text x="980" y="17" style="stroke-width:0;stroke:none;fill:rgba(51,51,51,1.0);font-size:12.8px;font-family:'Roboto Medium',sans-serif">460.00</text><path  d="M 38 351
L 40 351
L 42 351
L 43 351
L 45 351
L 47 351
L 48 351
L 50 351
L 52 351
L 53 351
L 55 349
L 57 349
L 58 348
L 60 348
L 61 348
L 63 348
L 65 348
L 66 349
L 68 349
L 70 351
L 71 351
L 73 351
L 75 351
L 76 351
L 78 351
L 79 351
L 81 351
L 83 349
L 84 349
L 86 340
L 88 338
L 89 338
L 91 333
L 93 330
L 94 330
L 96 330
L 98 336
L 99 338
L 101 338
L 102 339
L 104 338
L 106 335
L 107 330
L 109 332
L 111 333
L 112 333
L 114 336
L 116 340
L 117 345
L 119 348
L 120 349
L 122 348
L 124 348
L 125 348
L 127 348
L 129 348
L 130 349
L 132 349
L 134 351
L 135 351
L 137 349
L 138 349
L 140 349
L 142 346
L 143 345
L 145 345
L 147 345
L 148 346
L 150 346
L 152 346
L 153 349
L 155 351
L 157 351
L 158 351
L 160 351
L 161 351
L 163 349
L 165 349
L 166 349
L 168 346
L 170 346
L 171 346
L 173 346
L 175 346
L 176 346
L 178 346
L 179 349
L 181 349
L 183 349
L 184 349
L 186 351
L 188 351
L 189 351
L 191 351
L 193 351
L 194 351
L 196 351
L 197 351
L 199 351
L 201 351
L 202 349
L 204 349
L 206 349
L 207 349
L 209 349
L 211 349
L 212 348
L 214 349
L 216 349
L 217 349
L 219 349
L 220 349
L 222 349
L 224 351
L 225 351
L 227 346
L 229 346
L 230 346
L 232 346
L 234 346
L 235 346
L 237 346
L 238 351
L 240 351
L 242 351
L 243 351
L 245 351
L 247 351
L 248 351
L 250 351
L 252 351
L 253 351
L 255 351
L 256 351
L 258 351
L 260 351
L 261 351
L 263 351
L 265 351
L 266 348
L 268 346
L 270 343
L 271 343
L 273 343
L 275 343
L 276 343
L 278 346
L 279 348
L 281 351
L 283 351
L 284 351
L 286 351
L 288 351
L 289 351
L 291 351
L 293 351
L 294 349
L 296 349
L 297 349
L 299 349
L 301 349
L 302 349
L 304 349
L 306 351
L 307 349
L 309 349
L 311 348
L 312 348
L 314 348
L 316 348
L 317 348
L 319 349
L 320 349
L 322 349
L 324 349
L 325 349
L 327 349
L 329 348
L 330 348
L 332 348
L 334 349
L 335 348
L 337 348
L 338 348
L 340 349
L 342 349
L 343 348
L 345 346
L 347 346
L 348 342
L 350 342
L 352 342
L 353 342
L 355 343
L 356 345
L 358 345
L 360 349
L 361 346
L 363 343
L 365 342
L 366 335
L 368 330
L 370 329
L 371 326
L 373 325
L 375 326
L 376 326
L 378 333
L 379 338
L 381 336
L 383 338
L 384 342
L 386 342
L 388 343
L 389 343
L 391 343
L 393 346
L 394 348
L 396 338
L 397 335
L 399 320
L 401 317
L 402 315
L 404 309
L 406 307
L 407 315
L 409 317
L 411 329
L 412 330
L 414 330
L 415 330
L 417 327
L 419 327
L 420 326
L 422 325
L 424 325
L 425 326
L 427 325
L 429 319
L 430 309
L 432 303
L 434 294
L 435 290
L 437 280
L 438 266
L 440 266
L 442 257
L 443 214
L 445 183
L 447 147
L 448 117
L 450 104
L 452 61
L 453 31
L 455 29
L 456 32
L 458 50
L 460 48
L 461 38
L 463 12
L 465 27
L 466 44
L 468 47
L 470 27
L 471 19
L 473 21
L 474 80
L 476 77
L 478 74
L 479 100
L 481 135
L 483 159
L 484 178
L 486 182
L 488 209
L 489 228
L 491 214
L 493 214
L 494 231
L 496 247
L 497 254
L 499 254
L 501 261
L 502 284
L 504 293
L 506 287
L 507 296
L 509 290
L 511 296
L 512 289
L 514 286
L 515 273
L 517 271
L 519 268
L 520 274
L 522 277
L 524 291
L 525 293
L 527 300
L 529 306
L 530 303
L 532 300
L 534 296
L 535 294
L 537 299
L 538 302
L 540 304
L 542 309
L 543 319
L 545 319
L 547 320
L 548 313
L 550 302
L 552 304
L 553 302
L 555 300
L 556 304
L 558 297
L 560 299
L 561 313
L 563 310
L 565 312
L 566 312
L 568 310
L 570 317
L 571 322
L 573 315
L 574 316
L 576 312
L 578 307
L 579 300
L 581 290
L 583 287
L 584 286
L 586 284
L 588 287
L 589 283
L 591 289
L 593 297
L 594 294
L 596 291
L 597 289
L 599 283
L 601 270
L 602 266
L 604 253
L 606 240
L 607 240
L 609 232
L 611 192
L 612 198
L 614 191
L 615 181
L 617 181
L 619 181
L 620 178
L 622 219
L 624 202
L 625 211
L 627 205
L 629 208
L 630 198
L 632 173
L 633 166
L 635 172
L 637 160
L 638 165
L 640 149
L 642 159
L 643 181
L 645 186
L 647 192
L 648 196
L 650 198
L 652 211
L 653 214
L 655 224
L 656 219
L 658 224
L 660 224
L 661 225
L 663 221
L 665 230
L 666 230
L 668 234
L 670 234
L 671 224
L 673 209
L 674 212
L 676 191
L 678 175
L 679 139
L 681 139
L 683 140
L 684 149
L 686 155
L 688 158
L 689 165
L 691 195
L 692 204
L 694 208
L 696 218
L 697 205
L 699 204
L 701 219
L 702 221
L 704 219
L 706 227
L 707 232
L 709 247
L 711 245
L 712 240
L 714 237
L 715 232
L 717 234
L 719 234
L 720 230
L 722 241
L 724 241
L 725 245
L 727 245
L 729 245
L 730 261
L 732 271
L 733 255
L 735 261
L 737 267
L 738 280
L 740 277
L 742 274
L 743 279
L 745 297
L 747 296
L 748 294
L 750 293
L 752 306
L 753 309
L 755 294
L 756 299
L 758 300
L 760 306
L 761 309
L 763 309
L 765 309
L 766 319
L 768 323
L 770 329
L 771 327
L 773 327
L 774 326
L 776 329
L 778 338
L 779 336
L 781 329
L 783 333
L 784 333
L 786 336
L 788 330
L 789 330
L 791 332
L 792 333
L 794 329
L 796 332
L 797 332
L 799 338
L 801 338
L 802 338
L 804 342
L 806 346
L 807 345
L 809 346
L 811 345
L 812 345
L 814 345
L 815 346
L 817 348
L 819 349
L 820 349
L 822 351
L 824 351
L 825 351
L 827 351
L 829 351
L 830 351
L 832 351
L 833 351
L 835 351
L 837 351
L 838 351
L 840 351
L 842 351
L 843 351
L 845 351
L 847 351
L 848 351
L 850 351
L 851 351
L 853 349
L 855 349
L 856 349
L 858 349
L 860 349
L 861 340
L 863 340
L 865 342
L 866 340
L 868 339
L 870 339
L 871 339
L 873 345
L 874 345
L 876 345
L 878 345
L 879 345
L 881 345
L 883 345
L 884 345
L 886 340
L 888 339
L 889 339
L 891 338
L 892 333
L 894 332
L 896 333
L 897 332
L 899 329
L 901 329
L 902 329
L 904 332
L 906 333
L 907 335
L 909 339
L 910 342
L 912 333
L 914 332
L 915 330
L 917 329
L 919 319
L 920 316
L 922 316
L 924 317
L 925 316
L 927 313
L 929 304
L 930 306
L 932 304
L 933 304
L 935 303
L 937 303
L 938 299
L 940 306
L 942 313
L 943 312
L 945 304
L 947 310
L 948 312
L 950 317
L 951 310
L 953 304
L 955 307
L 956 306
L 958 300
L 960 296
L 961 300
L 963 309
L 965 312
L 966 313
L 968 320
L 969 327" style="stroke-width:1;stroke:rgba(0,116,217,1.0);fill:none"/><path  d="M 38 351
L 40 351
L 42 351
L 43 351
L 45 351
L 47 351
L 48 351
L 50 351
L 52 351
L 53 351
L 55 350
L 57 351
L 58 350
L 60 351
L 61 351
L 63 351
L 65 351
L 66 351
L 68 351
L 70 351
L 71 351
L 73 351
L 75 351
L 76 351
L 78 351
L 79 351
L 81 351
L 83 350
L 84 351
L 86 346
L 88 349
L 89 351
L 91 348
L 93 349
L 94 350
L 96 351
L 98 349
L 99 350
L 101 351
L 102 349
L 104 348
L 106 348
L 107 348
L 109 350
L 111 351
L 112 351
L 114 351
L 116 351
L 117 351
L 119 350
L 120 351
L 122 350
L 124 351
L 125 351
L 127 351
L 129 351
L 130 351
L 132 351
L 134 351
L 135 351
L 137 350
L 138 351
L 140 351
L 142 349
L 143 350
L 145 351
L 147 351
L 148 351
L 150 351
L 152 351
L 153 351
L 155 351
L 157 351
L 158 351
L 160 351
L 161 351
L 163 350
L 165 351
L 166 351
L 168 349
L 170 351
L 171 351
L 173 351
L 175 350
L 176 351
L 178 351
L 179 351
L 181 351
L 183 351
L 184 351
L 186 351
L 188 351
L 189 351
L 191 351
L 193 351
L 194 351
L 196 351
L 197 351
L 199 351
L 201 351
L 202 350
L 204 351
L 206 351
L 207 351
L 209 351
L 211 351
L 212 350
L 214 351
L 216 351
L 217 351
L 219 351
L 220 351
L 222 351
L 224 351
L 225 351
L 227 348
L 229 351
L 230 351
L 232 351
L 234 351
L 235 351
L 237 351
L 238 351
L 240 351
L 242 351
L 243 351
L 245 351
L 247 351
L 248 351
L 250 351
L 252 351
L 253 351
L 255 351
L 256 351
L 258 351
L 260 351
L 261 351
L 263 351
L 265 351
L 266 349
L 268 350
L 270 349
L 271 351
L 273 351
L 275 351
L 276 351
L 278 351
L 279 351
L 281 351
L 283 351
L 284 351
L 286 351
L 288 351
L 289 351
L 291 351
L 293 351
L 294 350
L 296 351
L 297 351
L 299 351
L 301 351
L 302 351
L 304 351
L 306 351
L 307 350
L 309 351
L 311 350
L 312 351
L 314 351
L 316 351
L 317 351
L 319 351
L 320 351
L 322 350
L 324 351
L 325 351
L 327 351
L 329 350
L 330 351
L 332 351
L 334 351
L 335 350
L 337 351
L 338 351
L 340 351
L 342 351
L 343 350
L 345 350
L 347 350
L 348 348
L 350 351
L 352 351
L 353 351
L 355 351
L 356 351
L 358 350
L 360 351
L 361 349
L 363 349
L 365 350
L 366 347
L 368 348
L 370 349
L 371 349
L 373 348
L 375 350
L 376 350
L 378 351
L 379 351
L 381 348
L 383 350
L 384 351
L 386 350
L 388 351
L 389 351
L 391 351
L 393 350
L 394 351
L 396 345
L 397 348
L 399 343
L 401 349
L 402 349
L 404 347
L 406 350
L 407 349
L 409 350
L 411 349
L 412 350
L 414 349
L 415 347
L 417 348
L 419 349
L 420 349
L 422 348
L 424 350
L 425 350
L 427 346
L 429 345
L 430 344
L 432 346
L 434 344
L 435 348
L 437 345
L 438 339
L 440 345
L 442 339
L 443 324
L 445 328
L 447 329
L 448 329
L 450 332
L 452 323
L 453 324
L 455 323
L 456 330
L 458 338
L 460 328
L 461 327
L 463 310
L 465 331
L 466 332
L 468 331
L 470 328
L 471 325
L 473 328
L 474 340
L 476 330
L 478 331
L 479 345
L 481 345
L 483 337
L 484 337
L 486 342
L 488 344
L 489 340
L 491 337
L 493 345
L 494 346
L 496 345
L 497 346
L 499 344
L 501 344
L 502 349
L 504 350
L 506 343
L 507 350
L 509 343
L 511 347
L 512 340
L 514 348
L 515 343
L 517 342
L 519 348
L 520 346
L 522 348
L 524 348
L 525 348
L 527 347
L 529 345
L 530 347
L 532 345
L 534 346
L 535 347
L 537 351
L 538 348
L 540 347
L 542 349
L 543 350
L 545 346
L 547 348
L 548 347
L 550 342
L 552 348
L 553 348
L 555 349
L 556 348
L 558 344
L 560 348
L 561 350
L 563 347
L 565 348
L 566 349
L 568 348
L 570 348
L 571 350
L 573 346
L 574 348
L 576 346
L 578 347
L 579 344
L 581 342
L 583 348
L 584 345
L 586 347
L 588 348
L 589 345
L 591 347
L 593 347
L 594 347
L 596 344
L 597 345
L 599 345
L 601 338
L 602 345
L 604 340
L 606 340
L 607 344
L 609 342
L 611 324
L 612 341
L 614 341
L 615 335
L 617 340
L 619 344
L 620 340
L 622 345
L 624 332
L 625 345
L 627 332
L 629 342
L 630 339
L 632 328
L 633 342
L 635 335
L 637 339
L 638 334
L 640 334
L 642 344
L 643 339
L 645 345
L 647 338
L 648 342
L 650 335
L 652 340
L 653 345
L 655 344
L 656 342
L 658 340
L 660 342
L 661 336
L 663 338
L 665 350
L 666 344
L 668 345
L 670 340
L 671 336
L 673 328
L 674 339
L 676 339
L 678 336
L 679 326
L 681 340
L 683 337
L 684 333
L 686 342
L 688 340
L 689 339
L 691 342
L 692 345
L 694 339
L 696 338
L 697 336
L 699 339
L 701 348
L 702 342
L 704 344
L 706 343
L 707 341
L 709 343
L 711 339
L 712 345
L 714 341
L 715 342
L 717 344
L 719 341
L 720 341
L 722 345
L 724 345
L 725 343
L 727 342
L 729 344
L 730 349
L 732 346
L 733 336
L 735 348
L 737 346
L 738 348
L 740 342
L 742 348
L 743 348
L 745 346
L 747 347
L 748 345
L 750 348
L 752 349
L 753 349
L 755 341
L 756 348
L 758 348
L 760 348
L 761 349
L 763 349
L 765 349
L 766 346
L 768 351
L 770 351
L 771 348
L 773 349
L 774 348
L 776 351
L 778 351
L 779 350
L 781 347
L 783 350
L 784 349
L 786 350
L 788 348
L 789 351
L 791 351
L 792 348
L 794 348
L 796 351
L 797 350
L 799 351
L 801 351
L 802 351
L 804 350
L 806 350
L 807 350
L 809 351
L 811 350
L 812 351
L 814 351
L 815 351
L 817 351
L 819 351
L 820 351
L 822 351
L 824 351
L 825 351
L 827 351
L 829 351
L 830 351
L 832 351
L 833 351
L 835 351
L 837 351
L 838 351
L 840 351
L 842 351
L 843 351
L 845 351
L 847 351
L 848 351
L 850 351
L 851 351
L 853 350
L 855 351
L 856 351
L 858 351
L 860 351
L 861 346
L 863 351
L 865 351
L 866 350
L 868 350
L 870 351
L 871 351
L 873 349
L 874 351
L 876 351
L 878 350
L 879 350
L 881 351
L 883 351
L 884 349
L 886 348
L 888 350
L 889 350
L 891 349
L 892 348
L 894 350
L 896 350
L 897 348
L 899 348
L 901 350
L 902 349
L 904 350
L 906 351
L 907 351
L 909 350
L 910 350
L 912 345
L 914 348
L 915 349
L 917 350
L 919 345
L 920 348
L 922 350
L 924 346
L 925 348
L 927 348
L 929 345
L 930 346
L 932 348
L 933 350
L 935 345
L 937 348
L 938 345
L 940 349
L 942 350
L 943 347
L 945 346
L 947 348
L 948 348
L 950 348
L 951 345
L 953 347
L 955 348
L 956 345
L 958 345
L 960 346
L 961 351
L 963 350
L 965 348
L 966 349
L 968 349
L 969 349" style="stroke-width:1;stroke:rgba(0,217,101,1.0);fill:none"/><path  d="M 38 351
L 40 351
L 42 351
L 43 351
L 45 351
L 47 351
L 48 351
L 50 351
L 52 351
L 53 351
L 55 351
L 57 351
L 58 351
L 60 351
L 61 351
L 63 351
L 65 351
L 66 351
L 68 351
L 70 351
L 71 351
L 73 351
L 75 351
L 76 351
L 78 351
L 79 351
L 81 351
L 83 351
L 84 351
L 86 351
L 88 351
L 89 351
L 91 351
L 93 351
L 94 351
L 96 351
L 98 351
L 99 351
L 101 351
L 102 351
L 104 351
L 106 351
L 107 351
L 109 351
L 111 351
L 112 351
L 114 351
L 116 351
L 117 351
L 119 351
L 120 351
L 122 351
L 124 351
L 125 351
L 127 351
L 129 351
L 130 351
L 132 351
L 134 351
L 135 351
L 137 351
L 138 351
L 140 351
L 142 351
L 143 351
L 145 351
L 147 351
L 148 350
L 150 351
L 152 351
L 153 351
L 155 351
L 157 351
L 158 351
L 160 351
L 161 351
L 163 351
L 165 351
L 166 351
L 168 351
L 170 351
L 171 351
L 173 351
L 175 351
L 176 351
L 178 351
L 179 351
L 181 351
L 183 351
L 184 351
L 186 351
L 188 351
L 189 351
L 191 351
L 193 351
L 194 351
L 196 351
L 197 351
L 199 351
L 201 351
L 202 351
L 204 351
L 206 351
L 207 351
L 209 351
L 211 351
L 212 351
L 214 351
L 216 351
L 217 351
L 219 351
L 220 351
L 222 351
L 224 351
L 225 351
L 227 351
L 229 351
L 230 351
L 232 351
L 234 351
L 235 351
L 237 351
L 238 351
L 240 351
L 242 351
L 243 351
L 245 351
L 247 351
L 248 351
L 250 351
L 252 351
L 253 351
L 255 351
L 256 351
L 258 351
L 260 351
L 261 351
L 263 351
L 265 351
L 266 351
L 268 351
L 270 351
L 271 351
L 273 351
L 275 351
L 276 351
L 278 351
L 279 351
L 281 351
L 283 351
L 284 351
L 286 351
L 288 351
L 289 351
L 291 351
L 293 351
L 294 351
L 296 351
L 297 351
L 299 351
L 301 351
L 302 351
L 304 351
L 306 351
L 307 351
L 309 351
L 311 351
L 312 351
L 314 351
L 316 351
L 317 351
L 319 351
L 320 351
L 322 351
L 324 351
L 325 351
L 327 351
L 329 351
L 330 351
L 332 351
L 334 351
L 335 351
L 337 351
L 338 351
L 340 351
L 342 351
L 343 351
L 345 351
L 347 351
L 348 351
L 350 351
L 352 351
L 353 351
L 355 351
L 356 351
L 358 351
L 360 351
L 361 351
L 363 351
L 365 351
L 366 351
L 368 351
L 370 351
L 371 351
L 373 351
L 375 351
L 376 351
L 378 351
L 379 351
L 381 351
L 383 351
L 384 351
L 386 351
L 388 351
L 389 351
L 391 351
L 393 351
L 394 351
L 396 351
L 397 351
L 399 351
L 401 351
L 402 351
L 404 351
L 406 350
L 407 350
L 409 351
L 411 351
L 412 351
L 414 351
L 415 351
L 417 351
L 419 351
L 420 351
L 422 351
L 424 351
L 425 351
L 427 351
L 429 351
L 430 351
L 432 351
L 434 351
L 435 351
L 437 351
L 438 351
L 440 351
L 442 351
L 443 351
L 445 351
L 447 351
L 448 351
L 450 351
L 452 351
L 453 350
L 455 351
L 456 351
L 458 351
L 460 351
L 461 351
L 463 350
L 465 350
L 466 351
L 468 351
L 470 351
L 471 351
L 473 350
L 474 350
L 476 350
L 478 351
L 479 351
L 481 348
L 483 350
L 484 351
L 486 350
L 488 349
L 489 351
L 491 351
L 493 349
L 494 351
L 496 350
L 497 349
L 499 351
L 501 351
L 502 350
L 504 351
L 506 351
L 507 351
L 509 351
L 511 350
L 512 351
L 514 351
L 515 351
L 517 350
L 519 351
L 520 351
L 522 351
L 524 351
L 525 351
L 527 351
L 529 351
L 530 350
L 532 351
L 534 350
L 535 351
L 537 351
L 538 351
L 540 351
L 542 351
L 543 351
L 545 351
L 547 351
L 548 351
L 550 351
L 552 351
L 553 351
L 555 351
L 556 351
L 558 351
L 560 351
L 561 351
L 563 351
L 565 351
L 566 351
L 568 351
L 570 351
L 571 351
L 573 351
L 574 351
L 576 351
L 578 351
L 579 351
L 581 351
L 583 350
L 584 351
L 586 351
L 588 351
L 589 351
L 591 351
L 593 351
L 594 350
L 596 351
L 597 351
L 599 351
L 601 350
L 602 351
L 604 351
L 606 351
L 607 351
L 609 351
L 611 351
L 612 351
L 614 351
L 615 349
L 617 351
L 619 351
L 620 349
L 622 350
L 624 348
L 625 350
L 627 351
L 629 351
L 630 351
L 632 350
L 633 348
L 635 350
L 637 350
L 638 351
L 640 351
L 642 351
L 643 351
L 645 351
L 647 351
L 648 351
L 650 351
L 652 351
L 653 350
L 655 350
L 656 351
L 658 351
L 660 351
L 661 351
L 663 351
L 665 351
L 666 351
L 668 350
L 670 351
L 671 351
L 673 351
L 674 350
L 676 351
L 678 349
L 679 351
L 681 351
L 683 351
L 684 351
L 686 351
L 688 351
L 689 351
L 691 351
L 692 351
L 694 351
L 696 351
L 697 351
L 699 351
L 701 351
L 702 351
L 704 351
L 706 351
L 707 351
L 709 351
L 711 351
L 712 351
L 714 350
L 715 351
L 717 351
L 719 351
L 720 351
L 722 351
L 724 351
L 725 351
L 727 351
L 729 351
L 730 351
L 732 350
L 733 351
L 735 351
L 737 351
L 738 351
L 740 351
L 742 351
L 743 351
L 745 351
L 747 351
L 748 351
L 750 351
L 752 351
L 753 351
L 755 351
L 756 351
L 758 351
L 760 351
L 761 351
L 763 351
L 765 351
L 766 351
L 768 351
L 770 351
L 771 351
L 773 351
L 774 351
L 776 351
L 778 351
L 779 351
L 781 351
L 783 351
L 784 351
L 786 351
L 788 351
L 789 351
L 791 351
L 792 351
L 794 351
L 796 351
L 797 351
L 799 351
L 801 351
L 802 351
L 804 351
L 806 351
L 807 351
L 809 351
L 811 351
L 812 351
L 814 351
L 815 351
L 817 350
L 819 351
L 820 351
L 822 351
L 824 351
L 825 351
L 827 351
L 829 351
L 830 351
L 832 351
L 833 351
L 835 351
L 837 351
L 838 351
L 840 351
L 842 351
L 843 351
L 845 351
L 847 351
L 848 351
L 850 351
L 851 351
L 853 351
L 855 351
L 856 351
L 858 351
L 860 351
L 861 351
L 863 351
L 865 351
L 866 351
L 868 351
L 870 351
L 871 351
L 873 351
L 874 351
L 876 351
L 878 351
L 879 351
L 881 351
L 883 351
L 884 351
L 886 351
L 888 351
L 889 351
L 891 351
L 892 351
L 894 350
L 896 351
L 897 351
L 899 351
L 901 351
L 902 351
L 904 351
L 906 351
L 907 351
L 909 351
L 910 351
L 912 351
L 914 351
L 915 351
L 917 351
L 919 351
L 920 351
L 922 351
L 924 351
L 925 351
L 927 351
L 929 351
L 930 351
L 932 351
L 933 351
L 935 351
L 937 351
L 938 351
L 940 351
L 942 351
L 943 351
L 945 350
L 947 351
L 948 351
L 950 351
L 951 351
L 953 351
L 955 351
L 956 351
L 958 351
L 960 351
L 961 351
L 963 351
L 965 351
L 966 351
L 968 351
L 969 351" style="stroke-width:1;stroke:rgba(217,0,116,1.0);fill:none"/><text x="394" y="33" style="stroke-width:0;stroke:none;fill:rgba(51,51,51,1.0);font-size:23.0px;font-family:'Roboto Medium',sans-serif">Hollabrunn 16.09.2021</text><path  d="M 38 11
L 251 11
L 251 91
L 38 91
L 38 11" style="stroke-width:1;stroke:rgba(51,51,51,1.0);fill:rgba(255,255,255,1.0)"/><text x="43" y="26" style="stroke-width:0;stroke:none;fill:rgba(51,51,51,1.0);font-size:10.2px;font-family:'Roboto Medium',sans-serif">Sieben Tage Durschnitt Inzidenz Fälle</text><path  d="M 221 21
L 241 21" style="stroke-width:1;stroke:rgba(0,116,217,1.0);fill:none"/><text x="43" y="56" style="stroke-width:0;stroke:none;fill:rgba(51,51,51,1.0);font-size:10.2px;font-family:'Roboto Medium',sans-serif">Anzahl Faelle</text><path  d="M 110 51
L 241 51" style="stroke-width:1;stroke:rgba(0,217,101,1.0);fill:none"/><text x="43" y="86" style="stroke-width:0;stroke:none;fill:rgba(51,51,51,1.0);font-size:10.2px;font-family:'Roboto Medium',sans-serif">Anzahl Tot</text><path  d="M 98 81
L 241 81" style="stroke-width:1;stroke:rgba(217,0,116,1.0);fill:none"/></svg>