<svg xmlns="http://www.w3.org/2000/svg" xmlns:xlink="http://www.w3.org/1999/xlink" width="1024" height="400">\n<path  d="M 0 0
L 1024 0
L 1024 400
L 0 400
L 0 0" style="stroke-width:0;stroke:rgba(255,255,255,1.0);fill:rgba(255,255,255,1.0)"/><path  d="M 38 11
L 969 11
L 969 351
L 38 351
L 38 11" style="stroke-width:0;stroke:rgba(255,255,255,1.0);fill:rgba(255,255,255,1.0)"/><path  d="M 38 351
L 969 351" style="stroke-width:1;stroke:rgba(51,51,51,1.0);fill:none"/><path  d="M 38 351
L 38 356" style="stroke-width:1;stroke:rgba(51,51,51,1.0);fill:none"/><text x="5" y="373" style="stroke-width:0;stroke:none;fill:rgba(51,51,51,1.0);font-size:12.8px;font-family:'Roboto Medium',sans-serif">2020-02-26</text><path  d="M 155 351
L 155 356" style="stroke-width:1;stroke:rgba(51,51,51,1.0);fill:none"/><text x="122" y="373" style="stroke-width:0;stroke:none;fill:rgba(51,51,51,1.0);font-size:12.8px;font-family:'Roboto Medium',sans-serif">2020-04-01</text><path  d="M 271 351
L 271 356" style="stroke-width:1;stroke:rgba(51,51,51,1.0);fill:none"/><text x="238" y="373" style="stroke-width:0;stroke:none;fill:rgba(51,51,51,1.0);font-size:12.8px;font-family:'Roboto Medium',sans-serif">2020-05-07</text><path  d="M 388 351
L 388 356" style="stroke-width:1;stroke:rgba(51,51,51,1.0);fill:none"/><text x="355" y="373" style="stroke-width:0;stroke:none;fill:rgba(51,51,51,1.0);font-size:12.8px;font-family:'Roboto Medium',sans-serif">2020-06-12</text><path  d="M 504 351
L 504 356" style="stroke-width:1;stroke:rgba(51,51,51,1.0);fill:none"/><text x="471" y="373" style="stroke-width:0;stroke:none;fill:rgba(51,51,51,1.0);font-size:12.8px;font-family:'Roboto Medium',sans-serif">2020-07-18</text><path  d="M 620 351
L 620 356" style="stroke-width:1;stroke:rgba(51,51,51,1.0);fill:none"/><text x="587" y="373" style="stroke-width:0;stroke:none;fill:rgba(51,51,51,1.0);font-size:12.8px;font-family:'Roboto Medium',sans-serif">2020-08-22</text><path  d="M 737 351
L 737 356" style="stroke-width:1;stroke:rgba(51,51,51,1.0);fill:none"/><text x="704" y="373" style="stroke-width:0;stroke:none;fill:rgba(51,51,51,1.0);font-size:12.8px;font-family:'Roboto Medium',sans-serif">2020-09-27</text><path  d="M 853 351
L 853 356" style="stroke-width:1;stroke:rgba(51,51,51,1.0);fill:none"/><text x="820" y="373" style="stroke-width:0;stroke:none;fill:rgba(51,51,51,1.0);font-size:12.8px;font-family:'Roboto Medium',sans-serif">2020-11-02</text><path  d="M 969 351
L 969 356" style="stroke-width:1;stroke:rgba(51,51,51,1.0);fill:none"/><text x="936" y="373" style="stroke-width:0;stroke:none;fill:rgba(51,51,51,1.0);font-size:12.8px;font-family:'Roboto Medium',sans-serif">2020-12-08</text><text x="485" y="395" style="stroke-width:0;stroke:none;fill:rgba(51,51,51,1.0);font-size:12.8px;font-family:'Roboto Medium',sans-serif">Datum</text><path  d="M 970 351
L 970 11" style="stroke-width:1;stroke:rgba(51,51,51,1.0);fill:none"/><path  d="M 970 351
L 975 351" style="stroke-width:1;stroke:rgba(51,51,51,1.0);fill:none"/><text x="980" y="357" style="stroke-width:0;stroke:none;fill:rgba(51,51,51,1.0);font-size:12.8px;font-family:'Roboto Medium',sans-serif">0.00</text><path  d="M 970 307
L 975 307" style="stroke-width:1;stroke:rgba(51,51,51,1.0);fill:none"/><text x="980" y="313" style="stroke-width:0;stroke:none;fill:rgba(51,51,51,1.0);font-size:12.8px;font-family:'Roboto Medium',sans-serif">38.00</text><path  d="M 970 266
L 975 266" style="stroke-width:1;stroke:rgba(51,51,51,1.0);fill:none"/><text x="980" y="272" style="stroke-width:0;stroke:none;fill:rgba(51,51,51,1.0);font-size:12.8px;font-family:'Roboto Medium',sans-serif">75.00</text><path  d="M 970 222
L 975 222" style="stroke-width:1;stroke:rgba(51,51,51,1.0);fill:none"/><text x="980" y="228" style="stroke-width:0;stroke:none;fill:rgba(51,51,51,1.0);font-size:12.8px;font-family:'Roboto Medium',sans-serif">113.00</text><path  d="M 970 181
L 975 181" style="stroke-width:1;stroke:rgba(51,51,51,1.0);fill:none"/><text x="980" y="187" style="stroke-width:0;stroke:none;fill:rgba(51,51,51,1.0);font-size:12.8px;font-family:'Roboto Medium',sans-serif">150.00</text><path  d="M 970 137
L 975 137" style="stroke-width:1;stroke:rgba(51,51,51,1.0);fill:none"/><text x="980" y="143" style="stroke-width:0;stroke:none;fill:rgba(51,51,51,1.0);font-size:12.8px;font-family:'Roboto Medium',sans-serif">188.00</text><path  d="M 970 96
L 975 96" style="stroke-width:1;stroke:rgba(51,51,51,1.0);fill:none"/><text x="980" y="102" style="stroke-width:0;stroke:none;fill:rgba(51,51,51,1.0);font-size:12.8px;font-family:'Roboto Medium',sans-serif">225.00</text><path  d="M 970 52
L 975 52" style="stroke-width:1;stroke:rgba(51,51,51,1.0);fill:none"/><text x="980" y="58" style="stroke-width:0;stroke:none;fill:rgba(51,51,51,1.0);font-size:12.8px;font-family:'Roboto Medium',sans-serif">263.00</text><path  d="M 970 11
L 975 11" style="stroke-width:1;stroke:rgba(51,51,51,1.0);fill:none"/><text x="980" y="17" style="stroke-width:0;stroke:none;fill:rgba(51,51,51,1.0);font-size:12.8px;font-family:'Roboto Medium',sans-serif">300.00</text><path  d="M 38 351
L 42 351
L 45 351
L 48 351
L 52 351
L 55 351
L 58 351
L 61 351
L 65 351
L 68 351
L 71 351
L 74 351
L 78 351
L 81 351
L 84 351
L 87 351
L 91 351
L 94 351
L 97 351
L 100 351
L 104 351
L 107 351
L 110 351
L 113 351
L 117 351
L 120 351
L 123 351
L 126 343
L 130 336
L 133 329
L 136 318
L 139 318
L 143 307
L 146 296
L 149 303
L 152 307
L 156 292
L 159 299
L 162 288
L 165 299
L 169 310
L 172 299
L 175 303
L 178 321
L 182 318
L 185 307
L 188 303
L 191 303
L 195 310
L 198 307
L 201 310
L 205 318
L 208 340
L 211 340
L 214 340
L 218 340
L 221 340
L 224 340
L 227 340
L 231 336
L 234 340
L 237 340
L 240 343
L 244 347
L 247 347
L 250 347
L 253 351
L 257 351
L 260 347
L 263 347
L 266 347
L 270 340
L 273 336
L 276 336
L 279 332
L 283 336
L 286 329
L 289 325
L 292 321
L 296 325
L 299 325
L 302 325
L 305 325
L 309 329
L 312 332
L 315 343
L 318 343
L 322 343
L 325 347
L 328 347
L 331 351
L 335 340
L 338 340
L 341 340
L 344 336
L 348 336
L 351 336
L 354 336
L 358 347
L 361 347
L 364 347
L 367 351
L 371 351
L 374 351
L 377 351
L 380 351
L 384 347
L 387 347
L 390 347
L 393 347
L 397 347
L 400 347
L 403 347
L 406 351
L 410 351
L 413 351
L 416 351
L 419 351
L 423 351
L 426 351
L 429 351
L 432 351
L 436 351
L 439 351
L 442 351
L 445 351
L 449 351
L 452 351
L 455 351
L 458 351
L 462 351
L 465 351
L 468 351
L 471 351
L 475 351
L 478 351
L 481 351
L 484 351
L 488 351
L 491 340
L 494 325
L 497 252
L 501 248
L 504 248
L 507 248
L 511 244
L 514 255
L 517 270
L 520 343
L 524 347
L 527 347
L 530 347
L 533 351
L 537 351
L 540 347
L 543 347
L 546 347
L 550 347
L 553 347
L 556 347
L 559 347
L 563 351
L 566 351
L 569 351
L 572 351
L 576 351
L 579 351
L 582 351
L 585 351
L 589 351
L 592 351
L 595 351
L 598 351
L 602 351
L 605 351
L 608 351
L 611 351
L 615 347
L 618 347
L 621 347
L 624 347
L 628 347
L 631 347
L 634 347
L 637 351
L 641 351
L 644 351
L 647 351
L 650 351
L 654 351
L 657 351
L 660 351
L 664 351
L 667 351
L 670 351
L 673 351
L 677 347
L 680 347
L 683 340
L 686 340
L 690 336
L 693 332
L 696 321
L 699 325
L 703 325
L 706 332
L 709 332
L 712 336
L 716 336
L 719 336
L 722 332
L 725 332
L 729 332
L 732 332
L 735 332
L 738 336
L 742 343
L 745 340
L 748 336
L 751 336
L 755 336
L 758 332
L 761 321
L 764 321
L 768 314
L 771 310
L 774 310
L 777 303
L 781 296
L 784 299
L 787 303
L 790 307
L 794 307
L 797 303
L 800 307
L 803 314
L 807 318
L 810 310
L 813 318
L 817 314
L 820 299
L 823 288
L 826 292
L 830 285
L 833 266
L 836 233
L 839 215
L 843 197
L 846 182
L 849 160
L 852 127
L 856 138
L 859 101
L 862 76
L 865 57
L 869 61
L 872 54
L 875 57
L 878 21
L 882 50
L 885 61
L 888 72
L 891 61
L 895 68
L 898 65
L 901 54
L 904 79
L 908 90
L 911 79
L 914 83
L 917 101
L 921 127
L 924 153
L 927 149
L 930 149
L 934 186
L 937 204
L 940 200
L 943 197
L 947 226
L 950 244
L 953 259
L 956 259
L 960 241
L 963 215
L 966 211
L 969 197" style="stroke-width:1;stroke:rgba(0,116,217,1.0);fill:none"/><path  d="M 38 351
L 42 351
L 45 351
L 48 351
L 52 351
L 55 351
L 58 351
L 61 351
L 65 351
L 68 351
L 71 351
L 74 351
L 78 351
L 81 351
L 84 351
L 87 351
L 91 351
L 94 351
L 97 351
L 100 351
L 104 351
L 107 351
L 110 351
L 113 351
L 117 351
L 120 351
L 123 351
L 126 348
L 130 348
L 133 348
L 136 347
L 139 351
L 143 347
L 146 347
L 149 351
L 152 349
L 156 344
L 159 349
L 162 347
L 165 351
L 169 351
L 172 347
L 175 351
L 178 349
L 182 348
L 185 344
L 188 349
L 191 351
L 195 349
L 198 349
L 201 351
L 205 351
L 208 351
L 211 349
L 214 351
L 218 349
L 221 349
L 224 351
L 227 351
L 231 349
L 234 351
L 237 351
L 240 351
L 244 351
L 247 351
L 250 351
L 253 351
L 257 351
L 260 349
L 263 351
L 266 351
L 270 348
L 273 349
L 276 351
L 279 349
L 283 351
L 286 348
L 289 349
L 292 347
L 296 351
L 299 351
L 302 349
L 305 351
L 309 349
L 312 351
L 315 351
L 318 351
L 322 351
L 325 351
L 328 351
L 331 351
L 335 347
L 338 351
L 341 351
L 344 349
L 348 351
L 351 351
L 354 351
L 358 351
L 361 351
L 364 351
L 367 351
L 371 351
L 374 351
L 377 351
L 380 351
L 384 349
L 387 351
L 390 351
L 393 351
L 397 351
L 400 351
L 403 351
L 406 351
L 410 351
L 413 351
L 416 351
L 419 351
L 423 351
L 426 351
L 429 351
L 432 351
L 436 351
L 439 351
L 442 351
L 445 351
L 449 351
L 452 351
L 455 351
L 458 351
L 462 351
L 465 351
L 468 351
L 471 351
L 475 351
L 478 351
L 481 351
L 484 351
L 488 351
L 491 347
L 494 346
L 497 328
L 501 349
L 504 351
L 507 351
L 511 349
L 514 351
L 517 351
L 520 351
L 524 351
L 527 351
L 530 351
L 533 351
L 537 351
L 540 349
L 543 351
L 546 351
L 550 351
L 553 351
L 556 351
L 559 351
L 563 351
L 566 351
L 569 351
L 572 351
L 576 351
L 579 351
L 582 351
L 585 351
L 589 351
L 592 351
L 595 351
L 598 351
L 602 351
L 605 351
L 608 351
L 611 351
L 615 349
L 618 351
L 621 351
L 624 351
L 628 351
L 631 351
L 634 351
L 637 351
L 641 351
L 644 351
L 647 351
L 650 351
L 654 351
L 657 351
L 660 351
L 664 351
L 667 351
L 670 351
L 673 351
L 677 349
L 680 351
L 683 348
L 686 351
L 690 349
L 693 349
L 696 347
L 699 351
L 703 351
L 706 351
L 709 351
L 712 351
L 716 349
L 719 347
L 722 349
L 725 351
L 729 351
L 732 351
L 735 351
L 738 351
L 742 349
L 745 348
L 748 349
L 751 351
L 755 351
L 758 349
L 761 347
L 764 349
L 768 346
L 771 348
L 774 351
L 777 348
L 781 347
L 784 348
L 787 351
L 790 347
L 794 348
L 797 349
L 800 349
L 803 349
L 807 349
L 810 348
L 813 349
L 817 347
L 820 345
L 823 346
L 826 351
L 830 347
L 833 343
L 836 339
L 839 341
L 843 339
L 846 341
L 849 344
L 852 337
L 856 346
L 859 328
L 862 334
L 865 334
L 869 343
L 872 341
L 875 338
L 878 335
L 882 337
L 885 337
L 888 337
L 891 339
L 895 344
L 898 337
L 901 331
L 904 345
L 908 340
L 911 334
L 914 340
L 917 349
L 921 345
L 924 339
L 927 344
L 930 340
L 934 345
L 937 346
L 940 348
L 943 344
L 947 348
L 950 349
L 953 345
L 956 345
L 960 340
L 963 340
L 966 343
L 969 344" style="stroke-width:1;stroke:rgba(0,217,101,1.0);fill:none"/><path  d="M 38 351
L 42 351
L 45 351
L 48 351
L 52 351
L 55 351
L 58 351
L 61 351
L 65 351
L 68 351
L 71 351
L 74 351
L 78 351
L 81 351
L 84 351
L 87 351
L 91 351
L 94 351
L 97 351
L 100 351
L 104 351
L 107 351
L 110 351
L 113 351
L 117 351
L 120 351
L 123 351
L 126 351
L 130 351
L 133 351
L 136 351
L 139 351
L 143 351
L 146 351
L 149 351
L 152 351
L 156 351
L 159 351
L 162 351
L 165 351
L 169 351
L 172 351
L 175 349
L 178 349
L 182 351
L 185 349
L 188 351
L 191 351
L 195 351
L 198 351
L 201 349
L 205 351
L 208 351
L 211 351
L 214 351
L 218 351
L 221 351
L 224 351
L 227 351
L 231 351
L 234 351
L 237 351
L 240 351
L 244 351
L 247 351
L 250 351
L 253 351
L 257 351
L 260 351
L 263 351
L 266 351
L 270 351
L 273 351
L 276 351
L 279 351
L 283 351
L 286 351
L 289 351
L 292 349
L 296 351
L 299 351
L 302 351
L 305 351
L 309 351
L 312 351
L 315 351
L 318 351
L 322 351
L 325 351
L 328 351
L 331 351
L 335 351
L 338 351
L 341 351
L 344 351
L 348 351
L 351 351
L 354 351
L 358 351
L 361 351
L 364 351
L 367 351
L 371 351
L 374 351
L 377 351
L 380 351
L 384 351
L 387 351
L 390 351
L 393 351
L 397 351
L 400 351
L 403 351
L 406 351
L 410 351
L 413 351
L 416 351
L 419 351
L 423 351
L 426 351
L 429 351
L 432 351
L 436 351
L 439 351
L 442 351
L 445 351
L 449 351
L 452 351
L 455 351
L 458 351
L 462 351
L 465 351
L 468 351
L 471 351
L 475 351
L 478 351
L 481 351
L 484 351
L 488 351
L 491 351
L 494 351
L 497 351
L 501 351
L 504 351
L 507 351
L 511 351
L 514 351
L 517 351
L 520 351
L 524 351
L 527 351
L 530 351
L 533 351
L 537 351
L 540 351
L 543 351
L 546 351
L 550 351
L 553 351
L 556 351
L 559 351
L 563 351
L 566 351
L 569 351
L 572 351
L 576 351
L 579 351
L 582 351
L 585 351
L 589 351
L 592 351
L 595 351
L 598 351
L 602 351
L 605 351
L 608 351
L 611 351
L 615 351
L 618 351
L 621 351
L 624 351
L 628 351
L 631 351
L 634 351
L 637 351
L 641 351
L 644 351
L 647 351
L 650 351
L 654 351
L 657 351
L 660 351
L 664 351
L 667 351
L 670 351
L 673 351
L 677 351
L 680 351
L 683 351
L 686 351
L 690 351
L 693 351
L 696 351
L 699 351
L 703 351
L 706 351
L 709 351
L 712 351
L 716 351
L 719 351
L 722 351
L 725 351
L 729 351
L 732 351
L 735 351
L 738 351
L 742 351
L 745 351
L 748 351
L 751 351
L 755 351
L 758 351
L 761 351
L 764 351
L 768 351
L 771 351
L 774 351
L 777 351
L 781 351
L 784 351
L 787 351
L 790 351
L 794 351
L 797 351
L 800 351
L 803 351
L 807 351
L 810 351
L 813 351
L 817 351
L 820 351
L 823 351
L 826 351
L 830 351
L 833 351
L 836 351
L 839 351
L 843 351
L 846 351
L 849 351
L 852 351
L 856 351
L 859 351
L 862 351
L 865 351
L 869 351
L 872 351
L 875 351
L 878 351
L 882 351
L 885 351
L 888 351
L 891 351
L 895 351
L 898 349
L 901 351
L 904 351
L 908 351
L 911 351
L 914 351
L 917 351
L 921 351
L 924 351
L 927 351
L 930 349
L 934 351
L 937 351
L 940 351
L 943 351
L 947 351
L 950 351
L 953 351
L 956 351
L 960 351
L 963 351
L 966 351
L 969 351" style="stroke-width:1;stroke:rgba(217,0,116,1.0);fill:none"/><text x="425" y="33" style="stroke-width:0;stroke:none;fill:rgba(51,51,51,1.0);font-size:23.0px;font-family:'Roboto Medium',sans-serif">Horn 08.12.2020</text><path  d="M 38 11
L 251 11
L 251 91
L 38 91
L 38 11" style="stroke-width:1;stroke:rgba(51,51,51,1.0);fill:rgba(255,255,255,1.0)"/><text x="43" y="26" style="stroke-width:0;stroke:none;fill:rgba(51,51,51,1.0);font-size:10.2px;font-family:'Roboto Medium',sans-serif">Sieben Tage Durschnitt Inzidenz Fälle</text><path  d="M 221 21
L 241 21" style="stroke-width:1;stroke:rgba(0,116,217,1.0);fill:none"/><text x="43" y="56" style="stroke-width:0;stroke:none;fill:rgba(51,51,51,1.0);font-size:10.2px;font-family:'Roboto Medium',sans-serif">Anzahl Faelle</text><path  d="M 110 51
L 241 51" style="stroke-width:1;stroke:rgba(0,217,101,1.0);fill:none"/><text x="43" y="86" style="stroke-width:0;stroke:none;fill:rgba(51,51,51,1.0);font-size:10.2px;font-family:'Roboto Medium',sans-serif">Anzahl Tot</text><path  d="M 98 81
L 241 81" style="stroke-width:1;stroke:rgba(217,0,116,1.0);fill:none"/></svg>