<svg xmlns="http://www.w3.org/2000/svg" xmlns:xlink="http://www.w3.org/1999/xlink" width="1024" height="400">\n<path  d="M 0 0
L 1024 0
L 1024 400
L 0 400
L 0 0" style="stroke-width:0;stroke:rgba(255,255,255,1.0);fill:rgba(255,255,255,1.0)"/><path  d="M 38 11
L 969 11
L 969 351
L 38 351
L 38 11" style="stroke-width:0;stroke:rgba(255,255,255,1.0);fill:rgba(255,255,255,1.0)"/><path  d="M 38 351
L 969 351" style="stroke-width:1;stroke:rgba(51,51,51,1.0);fill:none"/><path  d="M 38 351
L 38 356" style="stroke-width:1;stroke:rgba(51,51,51,1.0);fill:none"/><text x="5" y="373" style="stroke-width:0;stroke:none;fill:rgba(51,51,51,1.0);font-size:12.8px;font-family:'Roboto Medium',sans-serif">2020-02-26</text><path  d="M 155 351
L 155 356" style="stroke-width:1;stroke:rgba(51,51,51,1.0);fill:none"/><text x="122" y="373" style="stroke-width:0;stroke:none;fill:rgba(51,51,51,1.0);font-size:12.8px;font-family:'Roboto Medium',sans-serif">2020-03-31</text><path  d="M 271 351
L 271 356" style="stroke-width:1;stroke:rgba(51,51,51,1.0);fill:none"/><text x="238" y="373" style="stroke-width:0;stroke:none;fill:rgba(51,51,51,1.0);font-size:12.8px;font-family:'Roboto Medium',sans-serif">2020-05-04</text><path  d="M 388 351
L 388 356" style="stroke-width:1;stroke:rgba(51,51,51,1.0);fill:none"/><text x="355" y="373" style="stroke-width:0;stroke:none;fill:rgba(51,51,51,1.0);font-size:12.8px;font-family:'Roboto Medium',sans-serif">2020-06-07</text><path  d="M 504 351
L 504 356" style="stroke-width:1;stroke:rgba(51,51,51,1.0);fill:none"/><text x="471" y="373" style="stroke-width:0;stroke:none;fill:rgba(51,51,51,1.0);font-size:12.8px;font-family:'Roboto Medium',sans-serif">2020-07-11</text><path  d="M 620 351
L 620 356" style="stroke-width:1;stroke:rgba(51,51,51,1.0);fill:none"/><text x="587" y="373" style="stroke-width:0;stroke:none;fill:rgba(51,51,51,1.0);font-size:12.8px;font-family:'Roboto Medium',sans-serif">2020-08-14</text><path  d="M 737 351
L 737 356" style="stroke-width:1;stroke:rgba(51,51,51,1.0);fill:none"/><text x="704" y="373" style="stroke-width:0;stroke:none;fill:rgba(51,51,51,1.0);font-size:12.8px;font-family:'Roboto Medium',sans-serif">2020-09-17</text><path  d="M 853 351
L 853 356" style="stroke-width:1;stroke:rgba(51,51,51,1.0);fill:none"/><text x="820" y="373" style="stroke-width:0;stroke:none;fill:rgba(51,51,51,1.0);font-size:12.8px;font-family:'Roboto Medium',sans-serif">2020-10-21</text><path  d="M 969 351
L 969 356" style="stroke-width:1;stroke:rgba(51,51,51,1.0);fill:none"/><text x="936" y="373" style="stroke-width:0;stroke:none;fill:rgba(51,51,51,1.0);font-size:12.8px;font-family:'Roboto Medium',sans-serif">2020-11-24</text><text x="485" y="395" style="stroke-width:0;stroke:none;fill:rgba(51,51,51,1.0);font-size:12.8px;font-family:'Roboto Medium',sans-serif">Datum</text><path  d="M 970 351
L 970 11" style="stroke-width:1;stroke:rgba(51,51,51,1.0);fill:none"/><path  d="M 970 351
L 975 351" style="stroke-width:1;stroke:rgba(51,51,51,1.0);fill:none"/><text x="980" y="357" style="stroke-width:0;stroke:none;fill:rgba(51,51,51,1.0);font-size:12.8px;font-family:'Roboto Medium',sans-serif">0.00</text><path  d="M 970 307
L 975 307" style="stroke-width:1;stroke:rgba(51,51,51,1.0);fill:none"/><text x="980" y="313" style="stroke-width:0;stroke:none;fill:rgba(51,51,51,1.0);font-size:12.8px;font-family:'Roboto Medium',sans-serif">38.00</text><path  d="M 970 266
L 975 266" style="stroke-width:1;stroke:rgba(51,51,51,1.0);fill:none"/><text x="980" y="272" style="stroke-width:0;stroke:none;fill:rgba(51,51,51,1.0);font-size:12.8px;font-family:'Roboto Medium',sans-serif">75.00</text><path  d="M 970 222
L 975 222" style="stroke-width:1;stroke:rgba(51,51,51,1.0);fill:none"/><text x="980" y="228" style="stroke-width:0;stroke:none;fill:rgba(51,51,51,1.0);font-size:12.8px;font-family:'Roboto Medium',sans-serif">113.00</text><path  d="M 970 181
L 975 181" style="stroke-width:1;stroke:rgba(51,51,51,1.0);fill:none"/><text x="980" y="187" style="stroke-width:0;stroke:none;fill:rgba(51,51,51,1.0);font-size:12.8px;font-family:'Roboto Medium',sans-serif">150.00</text><path  d="M 970 137
L 975 137" style="stroke-width:1;stroke:rgba(51,51,51,1.0);fill:none"/><text x="980" y="143" style="stroke-width:0;stroke:none;fill:rgba(51,51,51,1.0);font-size:12.8px;font-family:'Roboto Medium',sans-serif">188.00</text><path  d="M 970 96
L 975 96" style="stroke-width:1;stroke:rgba(51,51,51,1.0);fill:none"/><text x="980" y="102" style="stroke-width:0;stroke:none;fill:rgba(51,51,51,1.0);font-size:12.8px;font-family:'Roboto Medium',sans-serif">225.00</text><path  d="M 970 52
L 975 52" style="stroke-width:1;stroke:rgba(51,51,51,1.0);fill:none"/><text x="980" y="58" style="stroke-width:0;stroke:none;fill:rgba(51,51,51,1.0);font-size:12.8px;font-family:'Roboto Medium',sans-serif">263.00</text><path  d="M 970 11
L 975 11" style="stroke-width:1;stroke:rgba(51,51,51,1.0);fill:none"/><text x="980" y="17" style="stroke-width:0;stroke:none;fill:rgba(51,51,51,1.0);font-size:12.8px;font-family:'Roboto Medium',sans-serif">300.00</text><path  d="M 38 351
L 42 351
L 45 351
L 49 351
L 52 351
L 56 351
L 59 351
L 62 351
L 66 351
L 69 351
L 73 351
L 76 351
L 80 351
L 83 351
L 86 351
L 90 351
L 93 351
L 97 351
L 100 351
L 104 351
L 107 351
L 110 351
L 114 351
L 117 351
L 121 351
L 124 351
L 127 351
L 131 343
L 134 336
L 138 329
L 141 318
L 145 318
L 148 307
L 151 296
L 155 303
L 158 307
L 162 292
L 165 299
L 169 288
L 172 299
L 175 310
L 179 299
L 182 303
L 186 321
L 189 318
L 193 307
L 196 303
L 199 303
L 203 310
L 206 307
L 210 310
L 213 318
L 216 340
L 220 340
L 223 340
L 227 340
L 230 340
L 234 340
L 237 340
L 240 336
L 244 340
L 247 340
L 251 343
L 254 347
L 258 347
L 261 347
L 264 351
L 268 351
L 271 347
L 275 347
L 278 347
L 282 340
L 285 336
L 288 336
L 292 332
L 295 336
L 299 329
L 302 325
L 305 321
L 309 325
L 312 325
L 316 325
L 319 325
L 323 329
L 326 332
L 329 343
L 333 343
L 336 343
L 340 347
L 343 347
L 347 351
L 350 340
L 353 340
L 357 340
L 360 336
L 364 336
L 367 336
L 371 336
L 374 347
L 377 347
L 381 347
L 384 351
L 388 351
L 391 351
L 394 351
L 398 351
L 401 347
L 405 347
L 408 347
L 412 347
L 415 347
L 418 347
L 422 347
L 425 351
L 429 351
L 432 351
L 436 351
L 439 351
L 442 351
L 446 351
L 449 351
L 453 351
L 456 351
L 460 351
L 463 351
L 466 351
L 470 351
L 473 351
L 477 351
L 480 351
L 483 351
L 487 351
L 490 351
L 494 351
L 497 351
L 501 351
L 504 351
L 507 351
L 511 351
L 514 340
L 518 325
L 521 252
L 525 248
L 528 248
L 531 248
L 535 244
L 538 255
L 542 270
L 545 343
L 548 347
L 552 347
L 555 347
L 559 351
L 562 351
L 566 347
L 569 347
L 572 347
L 576 347
L 579 347
L 583 347
L 586 347
L 590 351
L 593 351
L 596 351
L 600 351
L 603 351
L 607 351
L 610 351
L 614 351
L 617 351
L 620 351
L 624 351
L 627 351
L 631 351
L 634 351
L 637 351
L 641 351
L 644 347
L 648 347
L 651 347
L 655 347
L 658 347
L 661 347
L 665 347
L 668 351
L 672 351
L 675 351
L 679 351
L 682 351
L 685 351
L 689 351
L 692 351
L 696 351
L 699 351
L 703 351
L 706 351
L 709 347
L 713 347
L 716 340
L 720 340
L 723 336
L 726 332
L 730 321
L 733 325
L 737 325
L 740 332
L 744 332
L 747 336
L 750 336
L 754 336
L 757 332
L 761 332
L 764 332
L 768 332
L 771 332
L 774 336
L 778 343
L 781 340
L 785 336
L 788 336
L 792 336
L 795 332
L 798 321
L 802 321
L 805 314
L 809 310
L 812 310
L 815 303
L 819 296
L 822 299
L 826 303
L 829 307
L 833 307
L 836 303
L 839 307
L 843 314
L 846 318
L 850 310
L 853 318
L 857 314
L 860 299
L 863 288
L 867 292
L 870 285
L 874 266
L 877 233
L 881 215
L 884 197
L 887 182
L 891 160
L 894 127
L 898 138
L 901 101
L 904 76
L 908 57
L 911 61
L 915 54
L 918 57
L 922 21
L 925 50
L 928 61
L 932 72
L 935 61
L 939 68
L 942 65
L 946 50
L 949 76
L 952 87
L 956 76
L 959 79
L 963 98
L 966 120
L 969 149" style="stroke-width:1;stroke:rgba(0,116,217,1.0);fill:none"/><path  d="M 38 351
L 42 351
L 45 351
L 49 351
L 52 351
L 56 351
L 59 351
L 62 351
L 66 351
L 69 351
L 73 351
L 76 351
L 80 351
L 83 351
L 86 351
L 90 351
L 93 351
L 97 351
L 100 351
L 104 351
L 107 351
L 110 351
L 114 351
L 117 351
L 121 351
L 124 351
L 127 351
L 131 348
L 134 348
L 138 348
L 141 347
L 145 351
L 148 347
L 151 347
L 155 351
L 158 349
L 162 344
L 165 349
L 169 347
L 172 351
L 175 351
L 179 347
L 182 351
L 186 349
L 189 348
L 193 344
L 196 349
L 199 351
L 203 349
L 206 349
L 210 351
L 213 351
L 216 351
L 220 349
L 223 351
L 227 349
L 230 349
L 234 351
L 237 351
L 240 349
L 244 351
L 247 351
L 251 351
L 254 351
L 258 351
L 261 351
L 264 351
L 268 351
L 271 349
L 275 351
L 278 351
L 282 348
L 285 349
L 288 351
L 292 349
L 295 351
L 299 348
L 302 349
L 305 347
L 309 351
L 312 351
L 316 349
L 319 351
L 323 349
L 326 351
L 329 351
L 333 351
L 336 351
L 340 351
L 343 351
L 347 351
L 350 347
L 353 351
L 357 351
L 360 349
L 364 351
L 367 351
L 371 351
L 374 351
L 377 351
L 381 351
L 384 351
L 388 351
L 391 351
L 394 351
L 398 351
L 401 349
L 405 351
L 408 351
L 412 351
L 415 351
L 418 351
L 422 351
L 425 351
L 429 351
L 432 351
L 436 351
L 439 351
L 442 351
L 446 351
L 449 351
L 453 351
L 456 351
L 460 351
L 463 351
L 466 351
L 470 351
L 473 351
L 477 351
L 480 351
L 483 351
L 487 351
L 490 351
L 494 351
L 497 351
L 501 351
L 504 351
L 507 351
L 511 351
L 514 347
L 518 346
L 521 328
L 525 349
L 528 351
L 531 351
L 535 349
L 538 351
L 542 351
L 545 351
L 548 351
L 552 351
L 555 351
L 559 351
L 562 351
L 566 349
L 569 351
L 572 351
L 576 351
L 579 351
L 583 351
L 586 351
L 590 351
L 593 351
L 596 351
L 600 351
L 603 351
L 607 351
L 610 351
L 614 351
L 617 351
L 620 351
L 624 351
L 627 351
L 631 351
L 634 351
L 637 351
L 641 351
L 644 349
L 648 351
L 651 351
L 655 351
L 658 351
L 661 351
L 665 351
L 668 351
L 672 351
L 675 351
L 679 351
L 682 351
L 685 351
L 689 351
L 692 351
L 696 351
L 699 351
L 703 351
L 706 351
L 709 349
L 713 351
L 716 348
L 720 351
L 723 349
L 726 349
L 730 347
L 733 351
L 737 351
L 740 351
L 744 351
L 747 351
L 750 349
L 754 347
L 757 349
L 761 351
L 764 351
L 768 351
L 771 351
L 774 351
L 778 349
L 781 348
L 785 349
L 788 351
L 792 351
L 795 349
L 798 347
L 802 349
L 805 346
L 809 348
L 812 351
L 815 348
L 819 347
L 822 348
L 826 351
L 829 347
L 833 348
L 836 349
L 839 349
L 843 349
L 846 349
L 850 348
L 853 349
L 857 347
L 860 345
L 863 346
L 867 351
L 870 347
L 874 343
L 877 339
L 881 341
L 884 339
L 887 341
L 891 344
L 894 337
L 898 346
L 901 328
L 904 334
L 908 334
L 911 343
L 915 341
L 918 338
L 922 335
L 925 337
L 928 337
L 932 337
L 935 339
L 939 344
L 942 337
L 946 330
L 949 345
L 952 340
L 956 334
L 959 340
L 963 349
L 966 344
L 969 339" style="stroke-width:1;stroke:rgba(0,217,101,1.0);fill:none"/><path  d="M 38 351
L 42 351
L 45 351
L 49 351
L 52 351
L 56 351
L 59 351
L 62 351
L 66 351
L 69 351
L 73 351
L 76 351
L 80 351
L 83 351
L 86 351
L 90 351
L 93 351
L 97 351
L 100 351
L 104 351
L 107 351
L 110 351
L 114 351
L 117 351
L 121 351
L 124 351
L 127 351
L 131 351
L 134 351
L 138 351
L 141 351
L 145 351
L 148 351
L 151 351
L 155 351
L 158 351
L 162 351
L 165 351
L 169 351
L 172 351
L 175 351
L 179 351
L 182 349
L 186 349
L 189 351
L 193 349
L 196 351
L 199 351
L 203 351
L 206 351
L 210 349
L 213 351
L 216 351
L 220 351
L 223 351
L 227 351
L 230 351
L 234 351
L 237 351
L 240 351
L 244 351
L 247 351
L 251 351
L 254 351
L 258 351
L 261 351
L 264 351
L 268 351
L 271 351
L 275 351
L 278 351
L 282 351
L 285 351
L 288 351
L 292 351
L 295 351
L 299 351
L 302 351
L 305 349
L 309 351
L 312 351
L 316 351
L 319 351
L 323 351
L 326 351
L 329 351
L 333 351
L 336 351
L 340 351
L 343 351
L 347 351
L 350 351
L 353 351
L 357 351
L 360 351
L 364 351
L 367 351
L 371 351
L 374 351
L 377 351
L 381 351
L 384 351
L 388 351
L 391 351
L 394 351
L 398 351
L 401 351
L 405 351
L 408 351
L 412 351
L 415 351
L 418 351
L 422 351
L 425 351
L 429 351
L 432 351
L 436 351
L 439 351
L 442 351
L 446 351
L 449 351
L 453 351
L 456 351
L 460 351
L 463 351
L 466 351
L 470 351
L 473 351
L 477 351
L 480 351
L 483 351
L 487 351
L 490 351
L 494 351
L 497 351
L 501 351
L 504 351
L 507 351
L 511 351
L 514 351
L 518 351
L 521 351
L 525 351
L 528 351
L 531 351
L 535 351
L 538 351
L 542 351
L 545 351
L 548 351
L 552 351
L 555 351
L 559 351
L 562 351
L 566 351
L 569 351
L 572 351
L 576 351
L 579 351
L 583 351
L 586 351
L 590 351
L 593 351
L 596 351
L 600 351
L 603 351
L 607 351
L 610 351
L 614 351
L 617 351
L 620 351
L 624 351
L 627 351
L 631 351
L 634 351
L 637 351
L 641 351
L 644 351
L 648 351
L 651 351
L 655 351
L 658 351
L 661 351
L 665 351
L 668 351
L 672 351
L 675 351
L 679 351
L 682 351
L 685 351
L 689 351
L 692 351
L 696 351
L 699 351
L 703 351
L 706 351
L 709 351
L 713 351
L 716 351
L 720 351
L 723 351
L 726 351
L 730 351
L 733 351
L 737 351
L 740 351
L 744 351
L 747 351
L 750 351
L 754 351
L 757 351
L 761 351
L 764 351
L 768 351
L 771 351
L 774 351
L 778 351
L 781 351
L 785 351
L 788 351
L 792 351
L 795 351
L 798 351
L 802 351
L 805 351
L 809 351
L 812 351
L 815 351
L 819 351
L 822 351
L 826 351
L 829 351
L 833 351
L 836 351
L 839 351
L 843 351
L 846 351
L 850 351
L 853 351
L 857 351
L 860 351
L 863 351
L 867 351
L 870 351
L 874 351
L 877 351
L 881 351
L 884 351
L 887 351
L 891 351
L 894 351
L 898 351
L 901 351
L 904 351
L 908 351
L 911 351
L 915 351
L 918 351
L 922 351
L 925 351
L 928 351
L 932 351
L 935 351
L 939 351
L 942 351
L 946 351
L 949 351
L 952 351
L 956 351
L 959 351
L 963 351
L 966 351
L 969 351" style="stroke-width:1;stroke:rgba(217,0,116,1.0);fill:none"/><text x="425" y="33" style="stroke-width:0;stroke:none;fill:rgba(51,51,51,1.0);font-size:23.0px;font-family:'Roboto Medium',sans-serif">Horn 24.11.2020</text><path  d="M 38 11
L 251 11
L 251 91
L 38 91
L 38 11" style="stroke-width:1;stroke:rgba(51,51,51,1.0);fill:rgba(255,255,255,1.0)"/><text x="43" y="26" style="stroke-width:0;stroke:none;fill:rgba(51,51,51,1.0);font-size:10.2px;font-family:'Roboto Medium',sans-serif">Sieben Tage Durschnitt Inzidenz Fälle</text><path  d="M 221 21
L 241 21" style="stroke-width:1;stroke:rgba(0,116,217,1.0);fill:none"/><text x="43" y="56" style="stroke-width:0;stroke:none;fill:rgba(51,51,51,1.0);font-size:10.2px;font-family:'Roboto Medium',sans-serif">Anzahl Faelle</text><path  d="M 110 51
L 241 51" style="stroke-width:1;stroke:rgba(0,217,101,1.0);fill:none"/><text x="43" y="86" style="stroke-width:0;stroke:none;fill:rgba(51,51,51,1.0);font-size:10.2px;font-family:'Roboto Medium',sans-serif">Anzahl Tot</text><path  d="M 98 81
L 241 81" style="stroke-width:1;stroke:rgba(217,0,116,1.0);fill:none"/></svg>