<svg xmlns="http://www.w3.org/2000/svg" xmlns:xlink="http://www.w3.org/1999/xlink" width="1024" height="400">\n<path  d="M 0 0
L 1024 0
L 1024 400
L 0 400
L 0 0" style="stroke-width:0;stroke:rgba(255,255,255,1.0);fill:rgba(255,255,255,1.0)"/><path  d="M 38 11
L 969 11
L 969 351
L 38 351
L 38 11" style="stroke-width:0;stroke:rgba(255,255,255,1.0);fill:rgba(255,255,255,1.0)"/><path  d="M 38 351
L 969 351" style="stroke-width:1;stroke:rgba(51,51,51,1.0);fill:none"/><path  d="M 38 351
L 38 356" style="stroke-width:1;stroke:rgba(51,51,51,1.0);fill:none"/><text x="5" y="373" style="stroke-width:0;stroke:none;fill:rgba(51,51,51,1.0);font-size:12.8px;font-family:'Roboto Medium',sans-serif">2020-02-26</text><path  d="M 155 351
L 155 356" style="stroke-width:1;stroke:rgba(51,51,51,1.0);fill:none"/><text x="122" y="373" style="stroke-width:0;stroke:none;fill:rgba(51,51,51,1.0);font-size:12.8px;font-family:'Roboto Medium',sans-serif">2020-04-02</text><path  d="M 271 351
L 271 356" style="stroke-width:1;stroke:rgba(51,51,51,1.0);fill:none"/><text x="238" y="373" style="stroke-width:0;stroke:none;fill:rgba(51,51,51,1.0);font-size:12.8px;font-family:'Roboto Medium',sans-serif">2020-05-08</text><path  d="M 388 351
L 388 356" style="stroke-width:1;stroke:rgba(51,51,51,1.0);fill:none"/><text x="355" y="373" style="stroke-width:0;stroke:none;fill:rgba(51,51,51,1.0);font-size:12.8px;font-family:'Roboto Medium',sans-serif">2020-06-13</text><path  d="M 504 351
L 504 356" style="stroke-width:1;stroke:rgba(51,51,51,1.0);fill:none"/><text x="471" y="373" style="stroke-width:0;stroke:none;fill:rgba(51,51,51,1.0);font-size:12.8px;font-family:'Roboto Medium',sans-serif">2020-07-20</text><path  d="M 620 351
L 620 356" style="stroke-width:1;stroke:rgba(51,51,51,1.0);fill:none"/><text x="587" y="373" style="stroke-width:0;stroke:none;fill:rgba(51,51,51,1.0);font-size:12.8px;font-family:'Roboto Medium',sans-serif">2020-08-25</text><path  d="M 737 351
L 737 356" style="stroke-width:1;stroke:rgba(51,51,51,1.0);fill:none"/><text x="704" y="373" style="stroke-width:0;stroke:none;fill:rgba(51,51,51,1.0);font-size:12.8px;font-family:'Roboto Medium',sans-serif">2020-09-30</text><path  d="M 853 351
L 853 356" style="stroke-width:1;stroke:rgba(51,51,51,1.0);fill:none"/><text x="820" y="373" style="stroke-width:0;stroke:none;fill:rgba(51,51,51,1.0);font-size:12.8px;font-family:'Roboto Medium',sans-serif">2020-11-05</text><path  d="M 969 351
L 969 356" style="stroke-width:1;stroke:rgba(51,51,51,1.0);fill:none"/><text x="936" y="373" style="stroke-width:0;stroke:none;fill:rgba(51,51,51,1.0);font-size:12.8px;font-family:'Roboto Medium',sans-serif">2020-12-12</text><text x="485" y="395" style="stroke-width:0;stroke:none;fill:rgba(51,51,51,1.0);font-size:12.8px;font-family:'Roboto Medium',sans-serif">Datum</text><path  d="M 970 351
L 970 11" style="stroke-width:1;stroke:rgba(51,51,51,1.0);fill:none"/><path  d="M 970 351
L 975 351" style="stroke-width:1;stroke:rgba(51,51,51,1.0);fill:none"/><text x="980" y="357" style="stroke-width:0;stroke:none;fill:rgba(51,51,51,1.0);font-size:12.8px;font-family:'Roboto Medium',sans-serif">0.00</text><path  d="M 970 307
L 975 307" style="stroke-width:1;stroke:rgba(51,51,51,1.0);fill:none"/><text x="980" y="313" style="stroke-width:0;stroke:none;fill:rgba(51,51,51,1.0);font-size:12.8px;font-family:'Roboto Medium',sans-serif">38.00</text><path  d="M 970 266
L 975 266" style="stroke-width:1;stroke:rgba(51,51,51,1.0);fill:none"/><text x="980" y="272" style="stroke-width:0;stroke:none;fill:rgba(51,51,51,1.0);font-size:12.8px;font-family:'Roboto Medium',sans-serif">75.00</text><path  d="M 970 222
L 975 222" style="stroke-width:1;stroke:rgba(51,51,51,1.0);fill:none"/><text x="980" y="228" style="stroke-width:0;stroke:none;fill:rgba(51,51,51,1.0);font-size:12.8px;font-family:'Roboto Medium',sans-serif">113.00</text><path  d="M 970 181
L 975 181" style="stroke-width:1;stroke:rgba(51,51,51,1.0);fill:none"/><text x="980" y="187" style="stroke-width:0;stroke:none;fill:rgba(51,51,51,1.0);font-size:12.8px;font-family:'Roboto Medium',sans-serif">150.00</text><path  d="M 970 137
L 975 137" style="stroke-width:1;stroke:rgba(51,51,51,1.0);fill:none"/><text x="980" y="143" style="stroke-width:0;stroke:none;fill:rgba(51,51,51,1.0);font-size:12.8px;font-family:'Roboto Medium',sans-serif">188.00</text><path  d="M 970 96
L 975 96" style="stroke-width:1;stroke:rgba(51,51,51,1.0);fill:none"/><text x="980" y="102" style="stroke-width:0;stroke:none;fill:rgba(51,51,51,1.0);font-size:12.8px;font-family:'Roboto Medium',sans-serif">225.00</text><path  d="M 970 52
L 975 52" style="stroke-width:1;stroke:rgba(51,51,51,1.0);fill:none"/><text x="980" y="58" style="stroke-width:0;stroke:none;fill:rgba(51,51,51,1.0);font-size:12.8px;font-family:'Roboto Medium',sans-serif">263.00</text><path  d="M 970 11
L 975 11" style="stroke-width:1;stroke:rgba(51,51,51,1.0);fill:none"/><text x="980" y="17" style="stroke-width:0;stroke:none;fill:rgba(51,51,51,1.0);font-size:12.8px;font-family:'Roboto Medium',sans-serif">300.00</text><path  d="M 38 351
L 42 351
L 45 351
L 48 351
L 51 351
L 55 351
L 58 351
L 61 351
L 64 351
L 67 351
L 71 351
L 74 351
L 77 351
L 80 351
L 83 351
L 87 351
L 90 351
L 93 351
L 96 351
L 99 351
L 103 351
L 106 351
L 109 351
L 112 351
L 116 351
L 119 351
L 122 351
L 125 343
L 128 336
L 132 329
L 135 318
L 138 318
L 141 307
L 144 296
L 148 303
L 151 307
L 154 292
L 157 299
L 160 288
L 164 299
L 167 310
L 170 299
L 173 303
L 177 321
L 180 318
L 183 307
L 186 303
L 189 303
L 193 310
L 196 307
L 199 310
L 202 318
L 205 340
L 209 340
L 212 340
L 215 340
L 218 340
L 221 340
L 225 340
L 228 336
L 231 340
L 234 340
L 238 343
L 241 347
L 244 347
L 247 347
L 250 351
L 254 351
L 257 347
L 260 347
L 263 347
L 266 340
L 270 336
L 273 336
L 276 332
L 279 336
L 282 329
L 286 325
L 289 321
L 292 325
L 295 325
L 299 325
L 302 325
L 305 329
L 308 332
L 311 343
L 315 343
L 318 343
L 321 347
L 324 347
L 327 351
L 331 340
L 334 340
L 337 340
L 340 336
L 343 336
L 347 336
L 350 336
L 353 347
L 356 347
L 360 347
L 363 351
L 366 351
L 369 351
L 372 351
L 376 351
L 379 347
L 382 347
L 385 347
L 388 347
L 392 347
L 395 347
L 398 347
L 401 351
L 404 351
L 408 351
L 411 351
L 414 351
L 417 351
L 421 351
L 424 351
L 427 351
L 430 351
L 433 351
L 437 351
L 440 351
L 443 351
L 446 351
L 449 351
L 453 351
L 456 351
L 459 351
L 462 351
L 465 351
L 469 351
L 472 351
L 475 351
L 478 351
L 482 351
L 485 340
L 488 325
L 491 252
L 494 248
L 498 248
L 501 248
L 504 244
L 507 255
L 510 270
L 514 343
L 517 347
L 520 347
L 523 347
L 526 351
L 530 351
L 533 347
L 536 347
L 539 347
L 543 347
L 546 347
L 549 347
L 552 347
L 555 351
L 559 351
L 562 351
L 565 351
L 568 351
L 571 351
L 575 351
L 578 351
L 581 351
L 584 351
L 587 351
L 591 351
L 594 351
L 597 351
L 600 351
L 604 351
L 607 347
L 610 347
L 613 347
L 616 347
L 620 347
L 623 347
L 626 347
L 629 351
L 632 351
L 636 351
L 639 351
L 642 351
L 645 351
L 648 351
L 652 351
L 655 351
L 658 351
L 661 351
L 665 351
L 668 347
L 671 347
L 674 340
L 677 340
L 681 336
L 684 332
L 687 321
L 690 325
L 693 325
L 697 332
L 700 332
L 703 336
L 706 336
L 709 336
L 713 332
L 716 332
L 719 332
L 722 332
L 726 332
L 729 336
L 732 343
L 735 340
L 738 336
L 742 336
L 745 336
L 748 332
L 751 321
L 754 321
L 758 314
L 761 310
L 764 310
L 767 303
L 770 296
L 774 299
L 777 303
L 780 307
L 783 307
L 787 303
L 790 307
L 793 314
L 796 318
L 799 310
L 803 318
L 806 314
L 809 299
L 812 288
L 815 292
L 819 285
L 822 266
L 825 233
L 828 215
L 831 197
L 835 182
L 838 160
L 841 127
L 844 138
L 848 101
L 851 76
L 854 57
L 857 61
L 860 54
L 864 57
L 867 21
L 870 50
L 873 61
L 876 72
L 880 61
L 883 68
L 886 65
L 889 54
L 892 79
L 896 90
L 899 79
L 902 83
L 905 101
L 909 127
L 912 153
L 915 149
L 918 149
L 921 186
L 925 204
L 928 200
L 931 197
L 934 226
L 937 244
L 941 259
L 944 259
L 947 241
L 950 215
L 953 211
L 957 197
L 960 156
L 963 145
L 966 138
L 969 142" style="stroke-width:1;stroke:rgba(0,116,217,1.0);fill:none"/><path  d="M 38 351
L 42 351
L 45 351
L 48 351
L 51 351
L 55 351
L 58 351
L 61 351
L 64 351
L 67 351
L 71 351
L 74 351
L 77 351
L 80 351
L 83 351
L 87 351
L 90 351
L 93 351
L 96 351
L 99 351
L 103 351
L 106 351
L 109 351
L 112 351
L 116 351
L 119 351
L 122 351
L 125 348
L 128 348
L 132 348
L 135 347
L 138 351
L 141 347
L 144 347
L 148 351
L 151 349
L 154 344
L 157 349
L 160 347
L 164 351
L 167 351
L 170 347
L 173 351
L 177 349
L 180 348
L 183 344
L 186 349
L 189 351
L 193 349
L 196 349
L 199 351
L 202 351
L 205 351
L 209 349
L 212 351
L 215 349
L 218 349
L 221 351
L 225 351
L 228 349
L 231 351
L 234 351
L 238 351
L 241 351
L 244 351
L 247 351
L 250 351
L 254 351
L 257 349
L 260 351
L 263 351
L 266 348
L 270 349
L 273 351
L 276 349
L 279 351
L 282 348
L 286 349
L 289 347
L 292 351
L 295 351
L 299 349
L 302 351
L 305 349
L 308 351
L 311 351
L 315 351
L 318 351
L 321 351
L 324 351
L 327 351
L 331 347
L 334 351
L 337 351
L 340 349
L 343 351
L 347 351
L 350 351
L 353 351
L 356 351
L 360 351
L 363 351
L 366 351
L 369 351
L 372 351
L 376 351
L 379 349
L 382 351
L 385 351
L 388 351
L 392 351
L 395 351
L 398 351
L 401 351
L 404 351
L 408 351
L 411 351
L 414 351
L 417 351
L 421 351
L 424 351
L 427 351
L 430 351
L 433 351
L 437 351
L 440 351
L 443 351
L 446 351
L 449 351
L 453 351
L 456 351
L 459 351
L 462 351
L 465 351
L 469 351
L 472 351
L 475 351
L 478 351
L 482 351
L 485 347
L 488 346
L 491 328
L 494 349
L 498 351
L 501 351
L 504 349
L 507 351
L 510 351
L 514 351
L 517 351
L 520 351
L 523 351
L 526 351
L 530 351
L 533 349
L 536 351
L 539 351
L 543 351
L 546 351
L 549 351
L 552 351
L 555 351
L 559 351
L 562 351
L 565 351
L 568 351
L 571 351
L 575 351
L 578 351
L 581 351
L 584 351
L 587 351
L 591 351
L 594 351
L 597 351
L 600 351
L 604 351
L 607 349
L 610 351
L 613 351
L 616 351
L 620 351
L 623 351
L 626 351
L 629 351
L 632 351
L 636 351
L 639 351
L 642 351
L 645 351
L 648 351
L 652 351
L 655 351
L 658 351
L 661 351
L 665 351
L 668 349
L 671 351
L 674 348
L 677 351
L 681 349
L 684 349
L 687 347
L 690 351
L 693 351
L 697 351
L 700 351
L 703 351
L 706 349
L 709 347
L 713 349
L 716 351
L 719 351
L 722 351
L 726 351
L 729 351
L 732 349
L 735 348
L 738 349
L 742 351
L 745 351
L 748 349
L 751 347
L 754 349
L 758 346
L 761 348
L 764 351
L 767 348
L 770 347
L 774 348
L 777 351
L 780 347
L 783 348
L 787 349
L 790 349
L 793 349
L 796 349
L 799 348
L 803 349
L 806 347
L 809 345
L 812 346
L 815 351
L 819 347
L 822 343
L 825 339
L 828 341
L 831 339
L 835 341
L 838 344
L 841 337
L 844 346
L 848 328
L 851 334
L 854 334
L 857 343
L 860 341
L 864 338
L 867 335
L 870 337
L 873 337
L 876 337
L 880 339
L 883 344
L 886 337
L 889 331
L 892 345
L 896 340
L 899 334
L 902 340
L 905 349
L 909 345
L 912 339
L 915 344
L 918 340
L 921 345
L 925 346
L 928 348
L 931 344
L 934 348
L 937 349
L 941 345
L 944 345
L 947 340
L 950 340
L 953 343
L 957 344
L 960 337
L 963 341
L 966 343
L 969 341" style="stroke-width:1;stroke:rgba(0,217,101,1.0);fill:none"/><path  d="M 38 351
L 42 351
L 45 351
L 48 351
L 51 351
L 55 351
L 58 351
L 61 351
L 64 351
L 67 351
L 71 351
L 74 351
L 77 351
L 80 351
L 83 351
L 87 351
L 90 351
L 93 351
L 96 351
L 99 351
L 103 351
L 106 351
L 109 351
L 112 351
L 116 351
L 119 351
L 122 351
L 125 351
L 128 351
L 132 351
L 135 351
L 138 351
L 141 351
L 144 351
L 148 351
L 151 351
L 154 351
L 157 351
L 160 351
L 164 351
L 167 351
L 170 351
L 173 349
L 177 349
L 180 351
L 183 349
L 186 351
L 189 351
L 193 351
L 196 351
L 199 349
L 202 351
L 205 351
L 209 351
L 212 351
L 215 351
L 218 351
L 221 351
L 225 351
L 228 351
L 231 351
L 234 351
L 238 351
L 241 351
L 244 351
L 247 351
L 250 351
L 254 351
L 257 351
L 260 351
L 263 351
L 266 351
L 270 351
L 273 351
L 276 351
L 279 351
L 282 351
L 286 351
L 289 349
L 292 351
L 295 351
L 299 351
L 302 351
L 305 351
L 308 351
L 311 351
L 315 351
L 318 351
L 321 351
L 324 351
L 327 351
L 331 351
L 334 351
L 337 351
L 340 351
L 343 351
L 347 351
L 350 351
L 353 351
L 356 351
L 360 351
L 363 351
L 366 351
L 369 351
L 372 351
L 376 351
L 379 351
L 382 351
L 385 351
L 388 351
L 392 351
L 395 351
L 398 351
L 401 351
L 404 351
L 408 351
L 411 351
L 414 351
L 417 351
L 421 351
L 424 351
L 427 351
L 430 351
L 433 351
L 437 351
L 440 351
L 443 351
L 446 351
L 449 351
L 453 351
L 456 351
L 459 351
L 462 351
L 465 351
L 469 351
L 472 351
L 475 351
L 478 351
L 482 351
L 485 351
L 488 351
L 491 351
L 494 351
L 498 351
L 501 351
L 504 351
L 507 351
L 510 351
L 514 351
L 517 351
L 520 351
L 523 351
L 526 351
L 530 351
L 533 351
L 536 351
L 539 351
L 543 351
L 546 351
L 549 351
L 552 351
L 555 351
L 559 351
L 562 351
L 565 351
L 568 351
L 571 351
L 575 351
L 578 351
L 581 351
L 584 351
L 587 351
L 591 351
L 594 351
L 597 351
L 600 351
L 604 351
L 607 351
L 610 351
L 613 351
L 616 351
L 620 351
L 623 351
L 626 351
L 629 351
L 632 351
L 636 351
L 639 351
L 642 351
L 645 351
L 648 351
L 652 351
L 655 351
L 658 351
L 661 351
L 665 351
L 668 351
L 671 351
L 674 351
L 677 351
L 681 351
L 684 351
L 687 351
L 690 351
L 693 351
L 697 351
L 700 351
L 703 351
L 706 351
L 709 351
L 713 351
L 716 351
L 719 351
L 722 351
L 726 351
L 729 351
L 732 351
L 735 351
L 738 351
L 742 351
L 745 351
L 748 351
L 751 351
L 754 351
L 758 351
L 761 351
L 764 351
L 767 351
L 770 351
L 774 351
L 777 351
L 780 351
L 783 351
L 787 351
L 790 351
L 793 351
L 796 351
L 799 351
L 803 351
L 806 351
L 809 351
L 812 351
L 815 351
L 819 351
L 822 351
L 825 351
L 828 351
L 831 351
L 835 351
L 838 351
L 841 351
L 844 351
L 848 351
L 851 351
L 854 351
L 857 351
L 860 351
L 864 351
L 867 351
L 870 351
L 873 351
L 876 351
L 880 351
L 883 351
L 886 349
L 889 351
L 892 351
L 896 351
L 899 351
L 902 351
L 905 351
L 909 351
L 912 351
L 915 351
L 918 349
L 921 351
L 925 351
L 928 351
L 931 351
L 934 351
L 937 351
L 941 351
L 944 351
L 947 351
L 950 351
L 953 351
L 957 351
L 960 351
L 963 351
L 966 351
L 969 351" style="stroke-width:1;stroke:rgba(217,0,116,1.0);fill:none"/><text x="425" y="33" style="stroke-width:0;stroke:none;fill:rgba(51,51,51,1.0);font-size:23.0px;font-family:'Roboto Medium',sans-serif">Horn 12.12.2020</text><path  d="M 38 11
L 251 11
L 251 91
L 38 91
L 38 11" style="stroke-width:1;stroke:rgba(51,51,51,1.0);fill:rgba(255,255,255,1.0)"/><text x="43" y="26" style="stroke-width:0;stroke:none;fill:rgba(51,51,51,1.0);font-size:10.2px;font-family:'Roboto Medium',sans-serif">Sieben Tage Durschnitt Inzidenz Fälle</text><path  d="M 221 21
L 241 21" style="stroke-width:1;stroke:rgba(0,116,217,1.0);fill:none"/><text x="43" y="56" style="stroke-width:0;stroke:none;fill:rgba(51,51,51,1.0);font-size:10.2px;font-family:'Roboto Medium',sans-serif">Anzahl Faelle</text><path  d="M 110 51
L 241 51" style="stroke-width:1;stroke:rgba(0,217,101,1.0);fill:none"/><text x="43" y="86" style="stroke-width:0;stroke:none;fill:rgba(51,51,51,1.0);font-size:10.2px;font-family:'Roboto Medium',sans-serif">Anzahl Tot</text><path  d="M 98 81
L 241 81" style="stroke-width:1;stroke:rgba(217,0,116,1.0);fill:none"/></svg>