<svg xmlns="http://www.w3.org/2000/svg" xmlns:xlink="http://www.w3.org/1999/xlink" width="1024" height="400">\n<path  d="M 0 0
L 1024 0
L 1024 400
L 0 400
L 0 0" style="stroke-width:0;stroke:rgba(255,255,255,1.0);fill:rgba(255,255,255,1.0)"/><path  d="M 38 11
L 969 11
L 969 351
L 38 351
L 38 11" style="stroke-width:0;stroke:rgba(255,255,255,1.0);fill:rgba(255,255,255,1.0)"/><path  d="M 38 351
L 969 351" style="stroke-width:1;stroke:rgba(51,51,51,1.0);fill:none"/><path  d="M 38 351
L 38 356" style="stroke-width:1;stroke:rgba(51,51,51,1.0);fill:none"/><text x="5" y="373" style="stroke-width:0;stroke:none;fill:rgba(51,51,51,1.0);font-size:12.8px;font-family:'Roboto Medium',sans-serif">2020-02-26</text><path  d="M 155 351
L 155 356" style="stroke-width:1;stroke:rgba(51,51,51,1.0);fill:none"/><text x="122" y="373" style="stroke-width:0;stroke:none;fill:rgba(51,51,51,1.0);font-size:12.8px;font-family:'Roboto Medium',sans-serif">2020-04-10</text><path  d="M 271 351
L 271 356" style="stroke-width:1;stroke:rgba(51,51,51,1.0);fill:none"/><text x="238" y="373" style="stroke-width:0;stroke:none;fill:rgba(51,51,51,1.0);font-size:12.8px;font-family:'Roboto Medium',sans-serif">2020-05-25</text><path  d="M 388 351
L 388 356" style="stroke-width:1;stroke:rgba(51,51,51,1.0);fill:none"/><text x="355" y="373" style="stroke-width:0;stroke:none;fill:rgba(51,51,51,1.0);font-size:12.8px;font-family:'Roboto Medium',sans-serif">2020-07-08</text><path  d="M 504 351
L 504 356" style="stroke-width:1;stroke:rgba(51,51,51,1.0);fill:none"/><text x="471" y="373" style="stroke-width:0;stroke:none;fill:rgba(51,51,51,1.0);font-size:12.8px;font-family:'Roboto Medium',sans-serif">2020-08-22</text><path  d="M 620 351
L 620 356" style="stroke-width:1;stroke:rgba(51,51,51,1.0);fill:none"/><text x="587" y="373" style="stroke-width:0;stroke:none;fill:rgba(51,51,51,1.0);font-size:12.8px;font-family:'Roboto Medium',sans-serif">2020-10-06</text><path  d="M 737 351
L 737 356" style="stroke-width:1;stroke:rgba(51,51,51,1.0);fill:none"/><text x="704" y="373" style="stroke-width:0;stroke:none;fill:rgba(51,51,51,1.0);font-size:12.8px;font-family:'Roboto Medium',sans-serif">2020-11-19</text><path  d="M 853 351
L 853 356" style="stroke-width:1;stroke:rgba(51,51,51,1.0);fill:none"/><text x="820" y="373" style="stroke-width:0;stroke:none;fill:rgba(51,51,51,1.0);font-size:12.8px;font-family:'Roboto Medium',sans-serif">2021-01-03</text><path  d="M 969 351
L 969 356" style="stroke-width:1;stroke:rgba(51,51,51,1.0);fill:none"/><text x="936" y="373" style="stroke-width:0;stroke:none;fill:rgba(51,51,51,1.0);font-size:12.8px;font-family:'Roboto Medium',sans-serif">2021-02-17</text><text x="485" y="395" style="stroke-width:0;stroke:none;fill:rgba(51,51,51,1.0);font-size:12.8px;font-family:'Roboto Medium',sans-serif">Datum</text><path  d="M 970 351
L 970 11" style="stroke-width:1;stroke:rgba(51,51,51,1.0);fill:none"/><path  d="M 970 351
L 975 351" style="stroke-width:1;stroke:rgba(51,51,51,1.0);fill:none"/><text x="980" y="357" style="stroke-width:0;stroke:none;fill:rgba(51,51,51,1.0);font-size:12.8px;font-family:'Roboto Medium',sans-serif">0.00</text><path  d="M 970 307
L 975 307" style="stroke-width:1;stroke:rgba(51,51,51,1.0);fill:none"/><text x="980" y="313" style="stroke-width:0;stroke:none;fill:rgba(51,51,51,1.0);font-size:12.8px;font-family:'Roboto Medium',sans-serif">38.00</text><path  d="M 970 266
L 975 266" style="stroke-width:1;stroke:rgba(51,51,51,1.0);fill:none"/><text x="980" y="272" style="stroke-width:0;stroke:none;fill:rgba(51,51,51,1.0);font-size:12.8px;font-family:'Roboto Medium',sans-serif">75.00</text><path  d="M 970 222
L 975 222" style="stroke-width:1;stroke:rgba(51,51,51,1.0);fill:none"/><text x="980" y="228" style="stroke-width:0;stroke:none;fill:rgba(51,51,51,1.0);font-size:12.8px;font-family:'Roboto Medium',sans-serif">113.00</text><path  d="M 970 181
L 975 181" style="stroke-width:1;stroke:rgba(51,51,51,1.0);fill:none"/><text x="980" y="187" style="stroke-width:0;stroke:none;fill:rgba(51,51,51,1.0);font-size:12.8px;font-family:'Roboto Medium',sans-serif">150.00</text><path  d="M 970 137
L 975 137" style="stroke-width:1;stroke:rgba(51,51,51,1.0);fill:none"/><text x="980" y="143" style="stroke-width:0;stroke:none;fill:rgba(51,51,51,1.0);font-size:12.8px;font-family:'Roboto Medium',sans-serif">188.00</text><path  d="M 970 96
L 975 96" style="stroke-width:1;stroke:rgba(51,51,51,1.0);fill:none"/><text x="980" y="102" style="stroke-width:0;stroke:none;fill:rgba(51,51,51,1.0);font-size:12.8px;font-family:'Roboto Medium',sans-serif">225.00</text><path  d="M 970 52
L 975 52" style="stroke-width:1;stroke:rgba(51,51,51,1.0);fill:none"/><text x="980" y="58" style="stroke-width:0;stroke:none;fill:rgba(51,51,51,1.0);font-size:12.8px;font-family:'Roboto Medium',sans-serif">263.00</text><path  d="M 970 11
L 975 11" style="stroke-width:1;stroke:rgba(51,51,51,1.0);fill:none"/><text x="980" y="17" style="stroke-width:0;stroke:none;fill:rgba(51,51,51,1.0);font-size:12.8px;font-family:'Roboto Medium',sans-serif">300.00</text><path  d="M 38 351
L 41 351
L 44 351
L 46 351
L 49 351
L 52 351
L 54 351
L 57 351
L 59 351
L 62 351
L 65 351
L 67 351
L 70 351
L 72 351
L 75 351
L 78 351
L 80 351
L 83 351
L 85 351
L 88 351
L 91 351
L 93 351
L 96 351
L 98 351
L 101 351
L 104 351
L 106 351
L 109 343
L 112 336
L 114 329
L 117 318
L 119 318
L 122 307
L 125 296
L 127 303
L 130 307
L 132 292
L 135 299
L 138 288
L 140 299
L 143 310
L 145 299
L 148 303
L 151 321
L 153 318
L 156 307
L 158 303
L 161 303
L 164 310
L 166 307
L 169 310
L 171 318
L 174 340
L 177 340
L 179 340
L 182 340
L 185 340
L 187 340
L 190 340
L 192 336
L 195 340
L 198 340
L 200 343
L 203 347
L 205 347
L 208 347
L 211 351
L 213 351
L 216 347
L 218 347
L 221 347
L 224 340
L 226 336
L 229 336
L 231 332
L 234 336
L 237 329
L 239 325
L 242 321
L 245 325
L 247 325
L 250 325
L 252 325
L 255 329
L 258 332
L 260 343
L 263 343
L 265 343
L 268 347
L 271 347
L 273 351
L 276 340
L 278 340
L 281 340
L 284 336
L 286 336
L 289 336
L 291 336
L 294 347
L 297 347
L 299 347
L 302 351
L 304 351
L 307 351
L 310 351
L 312 351
L 315 347
L 318 347
L 320 347
L 323 347
L 325 347
L 328 347
L 331 347
L 333 351
L 336 351
L 338 351
L 341 351
L 344 351
L 346 351
L 349 351
L 351 351
L 354 351
L 357 351
L 359 351
L 362 351
L 364 351
L 367 351
L 370 351
L 372 351
L 375 351
L 378 351
L 380 351
L 383 351
L 385 351
L 388 351
L 391 351
L 393 351
L 396 351
L 398 351
L 401 340
L 404 325
L 406 252
L 409 248
L 411 248
L 414 248
L 417 244
L 419 255
L 422 270
L 424 343
L 427 347
L 430 347
L 432 347
L 435 351
L 437 351
L 440 347
L 443 347
L 445 347
L 448 347
L 451 347
L 453 347
L 456 347
L 458 351
L 461 351
L 464 351
L 466 351
L 469 351
L 471 351
L 474 351
L 477 351
L 479 351
L 482 351
L 484 351
L 487 351
L 490 351
L 492 351
L 495 351
L 497 351
L 500 347
L 503 347
L 505 347
L 508 347
L 511 347
L 513 347
L 516 347
L 518 351
L 521 351
L 524 351
L 526 351
L 529 351
L 531 351
L 534 351
L 537 351
L 539 351
L 542 351
L 544 351
L 547 351
L 550 351
L 552 351
L 555 343
L 557 343
L 560 340
L 563 336
L 565 325
L 568 325
L 570 325
L 573 332
L 576 332
L 578 336
L 581 336
L 584 336
L 586 332
L 589 332
L 591 332
L 594 332
L 597 332
L 599 336
L 602 343
L 604 340
L 607 336
L 610 336
L 612 336
L 615 332
L 617 321
L 620 321
L 623 314
L 625 310
L 628 310
L 630 303
L 633 296
L 636 299
L 638 303
L 641 307
L 644 307
L 646 303
L 649 307
L 651 314
L 654 318
L 657 310
L 659 318
L 662 314
L 664 299
L 667 288
L 670 292
L 672 285
L 675 266
L 677 233
L 680 215
L 683 197
L 685 182
L 688 160
L 690 127
L 693 138
L 696 101
L 698 76
L 701 57
L 703 61
L 706 54
L 709 57
L 711 21
L 714 50
L 717 61
L 719 72
L 722 61
L 724 68
L 727 65
L 730 54
L 732 79
L 735 90
L 737 79
L 740 83
L 743 101
L 745 127
L 748 153
L 750 149
L 753 149
L 756 186
L 758 204
L 761 200
L 763 197
L 766 226
L 769 244
L 771 259
L 774 259
L 777 241
L 779 215
L 782 211
L 784 197
L 787 156
L 790 145
L 792 138
L 795 142
L 797 164
L 800 171
L 803 164
L 805 186
L 808 208
L 810 226
L 813 255
L 816 263
L 818 266
L 821 296
L 823 314
L 826 299
L 829 307
L 831 292
L 834 277
L 836 277
L 839 266
L 842 263
L 844 270
L 847 259
L 850 266
L 852 277
L 855 292
L 857 299
L 860 307
L 863 310
L 865 314
L 868 314
L 870 314
L 873 303
L 876 277
L 878 277
L 881 274
L 883 252
L 886 252
L 889 255
L 891 259
L 894 270
L 896 259
L 899 263
L 902 270
L 904 263
L 907 259
L 910 226
L 912 200
L 915 204
L 917 193
L 920 171
L 923 167
L 925 175
L 928 193
L 930 197
L 933 186
L 936 186
L 938 222
L 941 226
L 943 204
L 946 219
L 949 230
L 951 237
L 954 241
L 956 233
L 959 219
L 962 237
L 964 219
L 967 222
L 969 204" style="stroke-width:1;stroke:rgba(0,116,217,1.0);fill:none"/><path  d="M 38 351
L 41 351
L 44 351
L 46 351
L 49 351
L 52 351
L 54 351
L 57 351
L 59 351
L 62 351
L 65 351
L 67 351
L 70 351
L 72 351
L 75 351
L 78 351
L 80 351
L 83 351
L 85 351
L 88 351
L 91 351
L 93 351
L 96 351
L 98 351
L 101 351
L 104 351
L 106 351
L 109 348
L 112 348
L 114 348
L 117 347
L 119 351
L 122 347
L 125 347
L 127 351
L 130 349
L 132 344
L 135 349
L 138 347
L 140 351
L 143 351
L 145 347
L 148 351
L 151 349
L 153 348
L 156 344
L 158 349
L 161 351
L 164 349
L 166 349
L 169 351
L 171 351
L 174 351
L 177 349
L 179 351
L 182 349
L 185 349
L 187 351
L 190 351
L 192 349
L 195 351
L 198 351
L 200 351
L 203 351
L 205 351
L 208 351
L 211 351
L 213 351
L 216 349
L 218 351
L 221 351
L 224 348
L 226 349
L 229 351
L 231 349
L 234 351
L 237 348
L 239 349
L 242 347
L 245 351
L 247 351
L 250 349
L 252 351
L 255 349
L 258 351
L 260 351
L 263 351
L 265 351
L 268 351
L 271 351
L 273 351
L 276 347
L 278 351
L 281 351
L 284 349
L 286 351
L 289 351
L 291 351
L 294 351
L 297 351
L 299 351
L 302 351
L 304 351
L 307 351
L 310 351
L 312 351
L 315 349
L 318 351
L 320 351
L 323 351
L 325 351
L 328 351
L 331 351
L 333 351
L 336 351
L 338 351
L 341 351
L 344 351
L 346 351
L 349 351
L 351 351
L 354 351
L 357 351
L 359 351
L 362 351
L 364 351
L 367 351
L 370 351
L 372 351
L 375 351
L 378 351
L 380 351
L 383 351
L 385 351
L 388 351
L 391 351
L 393 351
L 396 351
L 398 351
L 401 347
L 404 346
L 406 328
L 409 349
L 411 351
L 414 351
L 417 349
L 419 351
L 422 351
L 424 351
L 427 351
L 430 351
L 432 351
L 435 351
L 437 351
L 440 349
L 443 351
L 445 351
L 448 351
L 451 351
L 453 351
L 456 351
L 458 351
L 461 351
L 464 351
L 466 351
L 469 351
L 471 351
L 474 351
L 477 351
L 479 351
L 482 351
L 484 351
L 487 351
L 490 351
L 492 351
L 495 351
L 497 351
L 500 349
L 503 351
L 505 351
L 508 351
L 511 351
L 513 351
L 516 351
L 518 351
L 521 351
L 524 351
L 526 351
L 529 351
L 531 351
L 534 351
L 537 351
L 539 351
L 542 351
L 544 351
L 547 351
L 550 351
L 552 351
L 555 348
L 557 351
L 560 349
L 563 349
L 565 347
L 568 351
L 570 351
L 573 351
L 576 351
L 578 351
L 581 349
L 584 347
L 586 349
L 589 351
L 591 351
L 594 351
L 597 351
L 599 351
L 602 349
L 604 348
L 607 349
L 610 351
L 612 351
L 615 349
L 617 347
L 620 349
L 623 346
L 625 348
L 628 351
L 630 348
L 633 347
L 636 348
L 638 351
L 641 347
L 644 348
L 646 349
L 649 349
L 651 349
L 654 349
L 657 348
L 659 349
L 662 347
L 664 345
L 667 346
L 670 351
L 672 347
L 675 343
L 677 339
L 680 341
L 683 339
L 685 341
L 688 344
L 690 337
L 693 346
L 696 328
L 698 334
L 701 334
L 703 343
L 706 341
L 709 338
L 711 335
L 714 337
L 717 337
L 719 337
L 722 339
L 724 344
L 727 337
L 730 331
L 732 345
L 735 340
L 737 334
L 740 340
L 743 349
L 745 345
L 748 339
L 750 344
L 753 340
L 756 345
L 758 346
L 761 348
L 763 344
L 766 348
L 769 349
L 771 345
L 774 345
L 777 340
L 779 340
L 782 343
L 784 344
L 787 337
L 790 341
L 792 343
L 795 341
L 797 347
L 800 345
L 803 341
L 805 344
L 808 348
L 810 348
L 813 351
L 816 349
L 818 346
L 821 351
L 823 349
L 826 344
L 829 351
L 831 346
L 834 345
L 836 346
L 839 347
L 842 348
L 844 346
L 847 347
L 850 348
L 852 348
L 855 351
L 857 349
L 860 351
L 863 347
L 865 348
L 868 348
L 870 348
L 873 347
L 876 341
L 878 351
L 881 346
L 883 341
L 886 348
L 889 349
L 891 348
L 894 345
L 896 347
L 899 347
L 902 344
L 904 346
L 907 348
L 910 338
L 912 337
L 915 348
L 917 344
L 920 337
L 923 345
L 925 351
L 928 344
L 930 338
L 933 345
L 936 344
L 938 348
L 941 346
L 943 344
L 946 348
L 949 341
L 951 347
L 954 345
L 956 346
L 959 341
L 962 349
L 964 343
L 967 343
L 969 341" style="stroke-width:1;stroke:rgba(0,217,101,1.0);fill:none"/><path  d="M 38 351
L 41 351
L 44 351
L 46 351
L 49 351
L 52 351
L 54 351
L 57 351
L 59 351
L 62 351
L 65 351
L 67 351
L 70 351
L 72 351
L 75 351
L 78 351
L 80 351
L 83 351
L 85 351
L 88 351
L 91 351
L 93 351
L 96 351
L 98 351
L 101 351
L 104 351
L 106 351
L 109 351
L 112 351
L 114 351
L 117 351
L 119 351
L 122 351
L 125 351
L 127 351
L 130 351
L 132 351
L 135 351
L 138 351
L 140 351
L 143 351
L 145 351
L 148 349
L 151 349
L 153 351
L 156 349
L 158 351
L 161 351
L 164 351
L 166 351
L 169 349
L 171 351
L 174 351
L 177 351
L 179 351
L 182 351
L 185 351
L 187 351
L 190 351
L 192 351
L 195 351
L 198 351
L 200 351
L 203 351
L 205 351
L 208 351
L 211 351
L 213 351
L 216 351
L 218 351
L 221 351
L 224 351
L 226 351
L 229 351
L 231 351
L 234 351
L 237 351
L 239 351
L 242 349
L 245 351
L 247 351
L 250 351
L 252 351
L 255 351
L 258 351
L 260 351
L 263 351
L 265 351
L 268 351
L 271 351
L 273 351
L 276 351
L 278 351
L 281 351
L 284 351
L 286 351
L 289 351
L 291 351
L 294 351
L 297 351
L 299 351
L 302 351
L 304 351
L 307 351
L 310 351
L 312 351
L 315 351
L 318 351
L 320 351
L 323 351
L 325 351
L 328 351
L 331 351
L 333 351
L 336 351
L 338 351
L 341 351
L 344 351
L 346 351
L 349 351
L 351 351
L 354 351
L 357 351
L 359 351
L 362 351
L 364 351
L 367 351
L 370 351
L 372 351
L 375 351
L 378 351
L 380 351
L 383 351
L 385 351
L 388 351
L 391 351
L 393 351
L 396 351
L 398 351
L 401 351
L 404 351
L 406 351
L 409 351
L 411 351
L 414 351
L 417 351
L 419 351
L 422 351
L 424 351
L 427 351
L 430 351
L 432 351
L 435 351
L 437 351
L 440 351
L 443 351
L 445 351
L 448 351
L 451 351
L 453 351
L 456 351
L 458 351
L 461 351
L 464 351
L 466 351
L 469 351
L 471 351
L 474 351
L 477 351
L 479 351
L 482 351
L 484 351
L 487 351
L 490 351
L 492 351
L 495 351
L 497 351
L 500 351
L 503 351
L 505 351
L 508 351
L 511 351
L 513 351
L 516 351
L 518 351
L 521 351
L 524 351
L 526 351
L 529 351
L 531 351
L 534 351
L 537 351
L 539 351
L 542 351
L 544 351
L 547 351
L 550 351
L 552 351
L 555 351
L 557 351
L 560 351
L 563 351
L 565 351
L 568 351
L 570 351
L 573 351
L 576 351
L 578 351
L 581 351
L 584 351
L 586 351
L 589 351
L 591 351
L 594 351
L 597 351
L 599 351
L 602 351
L 604 351
L 607 351
L 610 351
L 612 351
L 615 351
L 617 351
L 620 351
L 623 351
L 625 351
L 628 351
L 630 351
L 633 351
L 636 351
L 638 351
L 641 351
L 644 351
L 646 351
L 649 351
L 651 351
L 654 351
L 657 351
L 659 351
L 662 351
L 664 351
L 667 351
L 670 351
L 672 351
L 675 351
L 677 351
L 680 351
L 683 351
L 685 351
L 688 351
L 690 351
L 693 351
L 696 351
L 698 351
L 701 351
L 703 351
L 706 351
L 709 351
L 711 351
L 714 351
L 717 351
L 719 351
L 722 351
L 724 351
L 727 349
L 730 351
L 732 351
L 735 351
L 737 351
L 740 351
L 743 351
L 745 351
L 748 351
L 750 351
L 753 349
L 756 351
L 758 351
L 761 351
L 763 351
L 766 351
L 769 351
L 771 351
L 774 351
L 777 351
L 779 349
L 782 351
L 784 351
L 787 351
L 790 351
L 792 351
L 795 351
L 797 351
L 800 351
L 803 351
L 805 349
L 808 351
L 810 351
L 813 349
L 816 351
L 818 351
L 821 351
L 823 351
L 826 351
L 829 351
L 831 351
L 834 351
L 836 351
L 839 351
L 842 351
L 844 351
L 847 351
L 850 351
L 852 351
L 855 351
L 857 351
L 860 351
L 863 351
L 865 351
L 868 351
L 870 351
L 873 351
L 876 351
L 878 351
L 881 351
L 883 351
L 886 351
L 889 351
L 891 351
L 894 351
L 896 351
L 899 351
L 902 351
L 904 351
L 907 351
L 910 351
L 912 351
L 915 351
L 917 351
L 920 351
L 923 351
L 925 351
L 928 351
L 930 351
L 933 351
L 936 349
L 938 351
L 941 351
L 943 351
L 946 351
L 949 351
L 951 351
L 954 351
L 956 351
L 959 351
L 962 351
L 964 351
L 967 351
L 969 351" style="stroke-width:1;stroke:rgba(217,0,116,1.0);fill:none"/><text x="425" y="33" style="stroke-width:0;stroke:none;fill:rgba(51,51,51,1.0);font-size:23.0px;font-family:'Roboto Medium',sans-serif">Horn 17.02.2021</text><path  d="M 38 11
L 251 11
L 251 91
L 38 91
L 38 11" style="stroke-width:1;stroke:rgba(51,51,51,1.0);fill:rgba(255,255,255,1.0)"/><text x="43" y="26" style="stroke-width:0;stroke:none;fill:rgba(51,51,51,1.0);font-size:10.2px;font-family:'Roboto Medium',sans-serif">Sieben Tage Durschnitt Inzidenz Fälle</text><path  d="M 221 21
L 241 21" style="stroke-width:1;stroke:rgba(0,116,217,1.0);fill:none"/><text x="43" y="56" style="stroke-width:0;stroke:none;fill:rgba(51,51,51,1.0);font-size:10.2px;font-family:'Roboto Medium',sans-serif">Anzahl Faelle</text><path  d="M 110 51
L 241 51" style="stroke-width:1;stroke:rgba(0,217,101,1.0);fill:none"/><text x="43" y="86" style="stroke-width:0;stroke:none;fill:rgba(51,51,51,1.0);font-size:10.2px;font-family:'Roboto Medium',sans-serif">Anzahl Tot</text><path  d="M 98 81
L 241 81" style="stroke-width:1;stroke:rgba(217,0,116,1.0);fill:none"/></svg>