<svg xmlns="http://www.w3.org/2000/svg" xmlns:xlink="http://www.w3.org/1999/xlink" width="1024" height="400">\n<path  d="M 0 0
L 1024 0
L 1024 400
L 0 400
L 0 0" style="stroke-width:0;stroke:rgba(255,255,255,1.0);fill:rgba(255,255,255,1.0)"/><path  d="M 38 11
L 969 11
L 969 351
L 38 351
L 38 11" style="stroke-width:0;stroke:rgba(255,255,255,1.0);fill:rgba(255,255,255,1.0)"/><path  d="M 38 351
L 969 351" style="stroke-width:1;stroke:rgba(51,51,51,1.0);fill:none"/><path  d="M 38 351
L 38 356" style="stroke-width:1;stroke:rgba(51,51,51,1.0);fill:none"/><text x="5" y="373" style="stroke-width:0;stroke:none;fill:rgba(51,51,51,1.0);font-size:12.8px;font-family:'Roboto Medium',sans-serif">2020-02-26</text><path  d="M 155 351
L 155 356" style="stroke-width:1;stroke:rgba(51,51,51,1.0);fill:none"/><text x="122" y="373" style="stroke-width:0;stroke:none;fill:rgba(51,51,51,1.0);font-size:12.8px;font-family:'Roboto Medium',sans-serif">2020-05-07</text><path  d="M 271 351
L 271 356" style="stroke-width:1;stroke:rgba(51,51,51,1.0);fill:none"/><text x="238" y="373" style="stroke-width:0;stroke:none;fill:rgba(51,51,51,1.0);font-size:12.8px;font-family:'Roboto Medium',sans-serif">2020-07-18</text><path  d="M 388 351
L 388 356" style="stroke-width:1;stroke:rgba(51,51,51,1.0);fill:none"/><text x="355" y="373" style="stroke-width:0;stroke:none;fill:rgba(51,51,51,1.0);font-size:12.8px;font-family:'Roboto Medium',sans-serif">2020-09-28</text><path  d="M 504 351
L 504 356" style="stroke-width:1;stroke:rgba(51,51,51,1.0);fill:none"/><text x="471" y="373" style="stroke-width:0;stroke:none;fill:rgba(51,51,51,1.0);font-size:12.8px;font-family:'Roboto Medium',sans-serif">2020-12-09</text><path  d="M 620 351
L 620 356" style="stroke-width:1;stroke:rgba(51,51,51,1.0);fill:none"/><text x="587" y="373" style="stroke-width:0;stroke:none;fill:rgba(51,51,51,1.0);font-size:12.8px;font-family:'Roboto Medium',sans-serif">2021-02-18</text><path  d="M 737 351
L 737 356" style="stroke-width:1;stroke:rgba(51,51,51,1.0);fill:none"/><text x="704" y="373" style="stroke-width:0;stroke:none;fill:rgba(51,51,51,1.0);font-size:12.8px;font-family:'Roboto Medium',sans-serif">2021-05-01</text><path  d="M 853 351
L 853 356" style="stroke-width:1;stroke:rgba(51,51,51,1.0);fill:none"/><text x="820" y="373" style="stroke-width:0;stroke:none;fill:rgba(51,51,51,1.0);font-size:12.8px;font-family:'Roboto Medium',sans-serif">2021-07-12</text><path  d="M 969 351
L 969 356" style="stroke-width:1;stroke:rgba(51,51,51,1.0);fill:none"/><text x="936" y="373" style="stroke-width:0;stroke:none;fill:rgba(51,51,51,1.0);font-size:12.8px;font-family:'Roboto Medium',sans-serif">2021-09-22</text><text x="485" y="395" style="stroke-width:0;stroke:none;fill:rgba(51,51,51,1.0);font-size:12.8px;font-family:'Roboto Medium',sans-serif">Datum</text><path  d="M 970 351
L 970 11" style="stroke-width:1;stroke:rgba(51,51,51,1.0);fill:none"/><path  d="M 970 351
L 975 351" style="stroke-width:1;stroke:rgba(51,51,51,1.0);fill:none"/><text x="980" y="357" style="stroke-width:0;stroke:none;fill:rgba(51,51,51,1.0);font-size:12.8px;font-family:'Roboto Medium',sans-serif">0.00</text><path  d="M 970 307
L 975 307" style="stroke-width:1;stroke:rgba(51,51,51,1.0);fill:none"/><text x="980" y="313" style="stroke-width:0;stroke:none;fill:rgba(51,51,51,1.0);font-size:12.8px;font-family:'Roboto Medium',sans-serif">38.00</text><path  d="M 970 266
L 975 266" style="stroke-width:1;stroke:rgba(51,51,51,1.0);fill:none"/><text x="980" y="272" style="stroke-width:0;stroke:none;fill:rgba(51,51,51,1.0);font-size:12.8px;font-family:'Roboto Medium',sans-serif">75.00</text><path  d="M 970 222
L 975 222" style="stroke-width:1;stroke:rgba(51,51,51,1.0);fill:none"/><text x="980" y="228" style="stroke-width:0;stroke:none;fill:rgba(51,51,51,1.0);font-size:12.8px;font-family:'Roboto Medium',sans-serif">113.00</text><path  d="M 970 181
L 975 181" style="stroke-width:1;stroke:rgba(51,51,51,1.0);fill:none"/><text x="980" y="187" style="stroke-width:0;stroke:none;fill:rgba(51,51,51,1.0);font-size:12.8px;font-family:'Roboto Medium',sans-serif">150.00</text><path  d="M 970 137
L 975 137" style="stroke-width:1;stroke:rgba(51,51,51,1.0);fill:none"/><text x="980" y="143" style="stroke-width:0;stroke:none;fill:rgba(51,51,51,1.0);font-size:12.8px;font-family:'Roboto Medium',sans-serif">188.00</text><path  d="M 970 96
L 975 96" style="stroke-width:1;stroke:rgba(51,51,51,1.0);fill:none"/><text x="980" y="102" style="stroke-width:0;stroke:none;fill:rgba(51,51,51,1.0);font-size:12.8px;font-family:'Roboto Medium',sans-serif">225.00</text><path  d="M 970 52
L 975 52" style="stroke-width:1;stroke:rgba(51,51,51,1.0);fill:none"/><text x="980" y="58" style="stroke-width:0;stroke:none;fill:rgba(51,51,51,1.0);font-size:12.8px;font-family:'Roboto Medium',sans-serif">263.00</text><path  d="M 970 11
L 975 11" style="stroke-width:1;stroke:rgba(51,51,51,1.0);fill:none"/><text x="980" y="17" style="stroke-width:0;stroke:none;fill:rgba(51,51,51,1.0);font-size:12.8px;font-family:'Roboto Medium',sans-serif">300.00</text><path  d="M 38 351
L 40 351
L 42 351
L 43 351
L 45 351
L 47 351
L 48 351
L 50 351
L 51 351
L 53 351
L 55 351
L 56 351
L 58 351
L 60 351
L 61 351
L 63 351
L 64 351
L 66 351
L 68 351
L 69 351
L 71 351
L 73 351
L 74 351
L 76 351
L 77 351
L 79 351
L 81 351
L 82 343
L 84 336
L 86 328
L 87 317
L 89 317
L 90 306
L 92 295
L 94 303
L 95 306
L 97 292
L 99 299
L 100 288
L 102 299
L 103 310
L 105 299
L 107 303
L 108 321
L 110 317
L 111 306
L 113 303
L 115 303
L 116 310
L 118 306
L 120 310
L 121 317
L 123 339
L 124 339
L 126 339
L 128 339
L 129 339
L 131 339
L 133 339
L 134 336
L 136 339
L 137 339
L 139 343
L 141 347
L 142 347
L 144 347
L 146 351
L 147 351
L 149 347
L 150 347
L 152 347
L 154 339
L 155 336
L 157 336
L 159 332
L 160 336
L 162 328
L 163 325
L 165 321
L 167 325
L 168 325
L 170 325
L 171 325
L 173 328
L 175 332
L 176 343
L 178 343
L 180 343
L 181 347
L 183 347
L 184 351
L 186 339
L 188 339
L 189 339
L 191 336
L 193 336
L 194 336
L 196 336
L 197 347
L 199 347
L 201 347
L 202 351
L 204 351
L 206 351
L 207 351
L 209 351
L 210 347
L 212 347
L 214 347
L 215 347
L 217 347
L 219 347
L 220 347
L 222 351
L 223 351
L 225 351
L 227 351
L 228 351
L 230 351
L 232 351
L 233 351
L 235 351
L 236 351
L 238 351
L 240 351
L 241 351
L 243 351
L 244 351
L 246 351
L 248 351
L 249 351
L 251 351
L 253 351
L 254 351
L 256 351
L 257 351
L 259 351
L 261 351
L 262 351
L 264 339
L 266 325
L 267 251
L 269 248
L 270 248
L 272 248
L 274 244
L 275 255
L 277 270
L 279 343
L 280 347
L 282 347
L 283 347
L 285 351
L 287 351
L 288 347
L 290 347
L 292 347
L 293 347
L 295 347
L 296 347
L 298 347
L 300 351
L 301 351
L 303 351
L 304 351
L 306 351
L 308 351
L 309 351
L 311 351
L 313 351
L 314 351
L 316 351
L 317 351
L 319 351
L 321 351
L 322 351
L 324 351
L 326 347
L 327 347
L 329 347
L 330 347
L 332 347
L 334 347
L 335 347
L 337 351
L 339 351
L 340 351
L 342 351
L 343 351
L 345 351
L 347 351
L 348 351
L 350 351
L 352 351
L 353 351
L 355 351
L 356 351
L 358 351
L 360 343
L 361 343
L 363 339
L 365 336
L 366 325
L 368 325
L 369 325
L 371 332
L 373 332
L 374 336
L 376 336
L 377 336
L 379 332
L 381 332
L 382 332
L 384 332
L 386 332
L 387 336
L 389 343
L 390 339
L 392 336
L 394 336
L 395 336
L 397 332
L 399 321
L 400 321
L 402 314
L 403 310
L 405 310
L 407 303
L 408 295
L 410 299
L 412 303
L 413 306
L 415 306
L 416 303
L 418 306
L 420 314
L 421 317
L 423 310
L 425 317
L 426 314
L 428 299
L 429 288
L 431 292
L 433 284
L 434 266
L 436 233
L 437 215
L 439 192
L 441 174
L 442 152
L 444 119
L 446 126
L 447 90
L 449 64
L 450 45
L 452 53
L 454 45
L 455 42
L 457 12
L 459 42
L 460 45
L 462 60
L 463 49
L 465 56
L 467 60
L 468 45
L 470 71
L 472 82
L 473 71
L 475 75
L 476 93
L 478 119
L 480 145
L 481 137
L 483 145
L 485 181
L 486 196
L 488 192
L 489 189
L 491 218
L 493 240
L 494 255
L 496 255
L 498 240
L 499 215
L 501 211
L 502 196
L 504 156
L 506 141
L 507 134
L 509 137
L 510 159
L 512 167
L 514 159
L 515 181
L 517 207
L 519 226
L 520 255
L 522 262
L 523 266
L 525 295
L 527 314
L 528 299
L 530 306
L 532 292
L 533 277
L 535 277
L 536 266
L 538 262
L 540 270
L 541 259
L 543 266
L 545 277
L 546 292
L 548 299
L 549 306
L 551 310
L 553 314
L 554 314
L 556 314
L 558 303
L 559 295
L 561 295
L 562 292
L 564 270
L 566 270
L 567 273
L 569 277
L 570 270
L 572 259
L 574 262
L 575 270
L 577 262
L 579 259
L 580 229
L 582 200
L 583 203
L 585 192
L 587 170
L 588 167
L 590 174
L 592 192
L 593 203
L 595 192
L 596 192
L 598 229
L 600 233
L 601 211
L 603 222
L 605 229
L 606 237
L 608 240
L 609 233
L 611 218
L 613 240
L 614 218
L 616 222
L 618 203
L 619 181
L 621 148
L 622 159
L 624 137
L 626 152
L 627 167
L 629 181
L 631 218
L 632 215
L 634 203
L 635 203
L 637 192
L 639 163
L 640 156
L 642 130
L 643 123
L 645 123
L 647 130
L 648 108
L 650 123
L 652 93
L 653 75
L 655 56
L 656 38
L 658 42
L 660 31
L 661 34
L 663 20
L 665 23
L 666 49
L 668 71
L 669 53
L 671 79
L 673 53
L 674 56
L 676 75
L 678 79
L 679 101
L 681 97
L 682 86
L 684 101
L 686 86
L 687 86
L 689 104
L 691 79
L 692 97
L 694 115
L 695 123
L 697 174
L 699 163
L 700 148
L 702 159
L 703 130
L 705 137
L 707 134
L 708 137
L 710 137
L 712 145
L 713 148
L 715 170
L 716 148
L 718 141
L 720 137
L 721 126
L 723 141
L 725 141
L 726 130
L 728 159
L 729 163
L 731 167
L 733 185
L 734 189
L 736 196
L 738 200
L 739 200
L 741 215
L 742 222
L 744 248
L 746 255
L 747 251
L 749 262
L 751 259
L 752 270
L 754 273
L 755 277
L 757 281
L 759 284
L 760 295
L 762 310
L 764 317
L 765 328
L 767 321
L 768 328
L 770 332
L 772 332
L 773 328
L 775 321
L 776 317
L 778 321
L 780 314
L 781 317
L 783 314
L 785 317
L 786 325
L 788 328
L 789 328
L 791 336
L 793 336
L 794 347
L 796 343
L 798 339
L 799 339
L 801 343
L 802 343
L 804 343
L 806 339
L 807 343
L 809 347
L 811 347
L 812 347
L 814 343
L 815 343
L 817 347
L 819 347
L 820 347
L 822 347
L 824 347
L 825 351
L 827 351
L 828 351
L 830 351
L 832 351
L 833 351
L 835 351
L 836 351
L 838 351
L 840 351
L 841 351
L 843 351
L 845 351
L 846 351
L 848 351
L 849 351
L 851 351
L 853 351
L 854 347
L 856 347
L 858 347
L 859 339
L 861 336
L 862 336
L 864 336
L 866 339
L 867 339
L 869 339
L 871 347
L 872 347
L 874 347
L 875 343
L 877 343
L 879 332
L 880 328
L 882 314
L 884 314
L 885 306
L 887 306
L 888 292
L 890 299
L 892 303
L 893 310
L 895 314
L 897 317
L 898 317
L 900 328
L 901 332
L 903 328
L 905 336
L 906 332
L 908 336
L 909 339
L 911 336
L 913 328
L 914 277
L 916 255
L 918 237
L 919 233
L 921 222
L 922 215
L 924 215
L 926 259
L 927 266
L 929 284
L 931 281
L 932 284
L 934 270
L 935 255
L 937 262
L 939 251
L 940 244
L 942 222
L 944 181
L 945 203
L 947 185
L 948 178
L 950 178
L 952 178
L 953 189
L 955 226
L 957 203
L 958 200
L 960 189
L 961 207
L 963 196
L 965 181
L 966 181
L 968 200
L 969 226" style="stroke-width:1;stroke:rgba(0,116,217,1.0);fill:none"/><path  d="M 38 351
L 40 351
L 42 351
L 43 351
L 45 351
L 47 351
L 48 351
L 50 351
L 51 351
L 53 351
L 55 351
L 56 351
L 58 351
L 60 351
L 61 351
L 63 351
L 64 351
L 66 351
L 68 351
L 69 351
L 71 351
L 73 351
L 74 351
L 76 351
L 77 351
L 79 351
L 81 351
L 82 348
L 84 348
L 86 348
L 87 347
L 89 351
L 90 347
L 92 347
L 94 351
L 95 349
L 97 344
L 99 349
L 100 347
L 102 351
L 103 351
L 105 347
L 107 351
L 108 349
L 110 348
L 111 344
L 113 349
L 115 351
L 116 349
L 118 349
L 120 351
L 121 351
L 123 351
L 124 349
L 126 351
L 128 349
L 129 349
L 131 351
L 133 351
L 134 349
L 136 351
L 137 351
L 139 351
L 141 351
L 142 351
L 144 351
L 146 351
L 147 351
L 149 349
L 150 351
L 152 351
L 154 348
L 155 349
L 157 351
L 159 349
L 160 351
L 162 348
L 163 349
L 165 347
L 167 351
L 168 351
L 170 349
L 171 351
L 173 349
L 175 351
L 176 351
L 178 351
L 180 351
L 181 351
L 183 351
L 184 351
L 186 347
L 188 351
L 189 351
L 191 349
L 193 351
L 194 351
L 196 351
L 197 351
L 199 351
L 201 351
L 202 351
L 204 351
L 206 351
L 207 351
L 209 351
L 210 349
L 212 351
L 214 351
L 215 351
L 217 351
L 219 351
L 220 351
L 222 351
L 223 351
L 225 351
L 227 351
L 228 351
L 230 351
L 232 351
L 233 351
L 235 351
L 236 351
L 238 351
L 240 351
L 241 351
L 243 351
L 244 351
L 246 351
L 248 351
L 249 351
L 251 351
L 253 351
L 254 351
L 256 351
L 257 351
L 259 351
L 261 351
L 262 351
L 264 347
L 266 346
L 267 328
L 269 349
L 270 351
L 272 351
L 274 349
L 275 351
L 277 351
L 279 351
L 280 351
L 282 351
L 283 351
L 285 351
L 287 351
L 288 349
L 290 351
L 292 351
L 293 351
L 295 351
L 296 351
L 298 351
L 300 351
L 301 351
L 303 351
L 304 351
L 306 351
L 308 351
L 309 351
L 311 351
L 313 351
L 314 351
L 316 351
L 317 351
L 319 351
L 321 351
L 322 351
L 324 351
L 326 349
L 327 351
L 329 351
L 330 351
L 332 351
L 334 351
L 335 351
L 337 351
L 339 351
L 340 351
L 342 351
L 343 351
L 345 351
L 347 351
L 348 351
L 350 351
L 352 351
L 353 351
L 355 351
L 356 351
L 358 351
L 360 348
L 361 351
L 363 349
L 365 349
L 366 347
L 368 351
L 369 351
L 371 351
L 373 351
L 374 351
L 376 349
L 377 347
L 379 349
L 381 351
L 382 351
L 384 351
L 386 351
L 387 351
L 389 349
L 390 348
L 392 349
L 394 351
L 395 351
L 397 349
L 399 347
L 400 349
L 402 346
L 403 348
L 405 351
L 407 348
L 408 347
L 410 348
L 412 351
L 413 347
L 415 348
L 416 349
L 418 349
L 420 349
L 421 349
L 423 348
L 425 349
L 426 347
L 428 345
L 429 346
L 431 351
L 433 347
L 434 343
L 436 339
L 437 341
L 439 338
L 441 340
L 442 344
L 444 337
L 446 345
L 447 328
L 449 334
L 450 332
L 452 343
L 454 341
L 455 336
L 457 336
L 459 337
L 460 335
L 462 337
L 463 339
L 465 344
L 467 337
L 468 331
L 470 345
L 472 338
L 473 334
L 475 340
L 476 349
L 478 345
L 480 339
L 481 343
L 483 340
L 485 345
L 486 345
L 488 348
L 489 344
L 491 348
L 493 349
L 494 345
L 496 345
L 498 340
L 499 340
L 501 343
L 502 344
L 504 337
L 506 340
L 507 343
L 509 341
L 510 347
L 512 345
L 514 341
L 515 344
L 517 348
L 519 348
L 520 351
L 522 349
L 523 346
L 525 351
L 527 349
L 528 344
L 530 351
L 532 346
L 533 345
L 535 346
L 536 347
L 538 348
L 540 346
L 541 347
L 543 348
L 545 348
L 546 351
L 548 349
L 549 351
L 551 347
L 553 348
L 554 348
L 556 348
L 558 347
L 559 347
L 561 351
L 562 346
L 564 341
L 566 348
L 567 349
L 569 348
L 570 345
L 572 347
L 574 347
L 575 344
L 577 346
L 579 348
L 580 339
L 582 336
L 583 348
L 585 344
L 587 337
L 588 345
L 590 351
L 592 345
L 593 339
L 595 345
L 596 344
L 598 348
L 600 346
L 601 344
L 603 348
L 605 341
L 606 347
L 608 345
L 609 346
L 611 341
L 613 351
L 614 341
L 616 343
L 618 341
L 619 338
L 621 336
L 622 345
L 624 344
L 626 346
L 627 347
L 629 346
L 631 349
L 632 335
L 634 341
L 635 344
L 637 343
L 639 338
L 640 344
L 642 341
L 643 332
L 645 341
L 647 346
L 648 336
L 650 343
L 652 335
L 653 336
L 655 327
L 656 336
L 658 347
L 660 332
L 661 344
L 663 330
L 665 337
L 666 335
L 668 343
L 669 341
L 671 340
L 673 336
L 674 331
L 676 343
L 678 336
L 679 349
L 681 340
L 682 337
L 684 340
L 686 327
L 687 343
L 689 341
L 691 341
L 692 346
L 694 343
L 695 343
L 697 343
L 699 339
L 700 337
L 702 345
L 703 337
L 705 345
L 707 341
L 708 344
L 710 339
L 712 339
L 713 346
L 715 344
L 716 338
L 718 339
L 720 343
L 721 336
L 723 344
L 725 346
L 726 340
L 728 347
L 729 340
L 731 344
L 733 341
L 734 345
L 736 348
L 738 341
L 739 347
L 741 345
L 742 346
L 744 349
L 746 347
L 747 347
L 749 345
L 751 346
L 752 348
L 754 347
L 755 351
L 757 348
L 759 348
L 760 348
L 762 351
L 764 351
L 765 351
L 767 348
L 768 351
L 770 349
L 772 348
L 773 349
L 775 348
L 776 349
L 778 349
L 780 348
L 781 351
L 783 347
L 785 351
L 786 351
L 788 351
L 789 349
L 791 351
L 793 351
L 794 351
L 796 349
L 798 349
L 799 351
L 801 351
L 802 351
L 804 351
L 806 349
L 807 351
L 809 351
L 811 351
L 812 351
L 814 349
L 815 351
L 817 351
L 819 351
L 820 351
L 822 351
L 824 351
L 825 351
L 827 351
L 828 351
L 830 351
L 832 351
L 833 351
L 835 351
L 836 351
L 838 351
L 840 351
L 841 351
L 843 351
L 845 351
L 846 351
L 848 351
L 849 351
L 851 351
L 853 351
L 854 349
L 856 351
L 858 351
L 859 348
L 861 349
L 862 351
L 864 351
L 866 351
L 867 351
L 869 351
L 871 351
L 872 349
L 874 351
L 875 349
L 877 351
L 879 347
L 880 349
L 882 346
L 884 349
L 885 348
L 887 349
L 888 346
L 890 349
L 892 351
L 893 348
L 895 351
L 897 349
L 898 349
L 900 349
L 901 351
L 903 349
L 905 351
L 906 349
L 908 351
L 909 351
L 911 348
L 913 348
L 914 334
L 916 344
L 918 344
L 919 349
L 921 347
L 922 346
L 924 348
L 926 347
L 927 346
L 929 349
L 931 348
L 932 348
L 934 341
L 935 344
L 937 349
L 939 343
L 940 347
L 942 341
L 944 336
L 945 348
L 947 338
L 948 347
L 950 343
L 952 347
L 953 345
L 955 347
L 957 341
L 958 337
L 960 344
L 961 348
L 963 344
L 965 340
L 966 347
L 968 347
L 969 345" style="stroke-width:1;stroke:rgba(0,217,101,1.0);fill:none"/><path  d="M 38 351
L 40 351
L 42 351
L 43 351
L 45 351
L 47 351
L 48 351
L 50 351
L 51 351
L 53 351
L 55 351
L 56 351
L 58 351
L 60 351
L 61 351
L 63 351
L 64 351
L 66 351
L 68 351
L 69 351
L 71 351
L 73 351
L 74 351
L 76 351
L 77 351
L 79 351
L 81 351
L 82 351
L 84 351
L 86 351
L 87 351
L 89 351
L 90 351
L 92 351
L 94 351
L 95 351
L 97 351
L 99 351
L 100 351
L 102 351
L 103 351
L 105 351
L 107 349
L 108 349
L 110 351
L 111 349
L 113 351
L 115 351
L 116 351
L 118 351
L 120 349
L 121 351
L 123 351
L 124 351
L 126 351
L 128 351
L 129 351
L 131 351
L 133 351
L 134 351
L 136 351
L 137 351
L 139 351
L 141 351
L 142 351
L 144 351
L 146 351
L 147 351
L 149 351
L 150 351
L 152 351
L 154 351
L 155 351
L 157 351
L 159 351
L 160 351
L 162 351
L 163 351
L 165 349
L 167 351
L 168 351
L 170 351
L 171 351
L 173 351
L 175 351
L 176 351
L 178 351
L 180 351
L 181 351
L 183 351
L 184 351
L 186 351
L 188 351
L 189 351
L 191 351
L 193 351
L 194 351
L 196 351
L 197 351
L 199 351
L 201 351
L 202 351
L 204 351
L 206 351
L 207 351
L 209 351
L 210 351
L 212 351
L 214 351
L 215 351
L 217 351
L 219 351
L 220 351
L 222 351
L 223 351
L 225 351
L 227 351
L 228 351
L 230 351
L 232 351
L 233 351
L 235 351
L 236 351
L 238 351
L 240 351
L 241 351
L 243 351
L 244 351
L 246 351
L 248 351
L 249 351
L 251 351
L 253 351
L 254 351
L 256 351
L 257 351
L 259 351
L 261 351
L 262 351
L 264 351
L 266 351
L 267 351
L 269 351
L 270 351
L 272 351
L 274 351
L 275 351
L 277 351
L 279 351
L 280 351
L 282 351
L 283 351
L 285 351
L 287 351
L 288 351
L 290 351
L 292 351
L 293 351
L 295 351
L 296 351
L 298 351
L 300 351
L 301 351
L 303 351
L 304 351
L 306 351
L 308 351
L 309 351
L 311 351
L 313 351
L 314 351
L 316 351
L 317 351
L 319 351
L 321 351
L 322 351
L 324 351
L 326 351
L 327 351
L 329 351
L 330 351
L 332 351
L 334 351
L 335 351
L 337 351
L 339 351
L 340 351
L 342 351
L 343 351
L 345 351
L 347 351
L 348 351
L 350 351
L 352 351
L 353 351
L 355 351
L 356 351
L 358 351
L 360 351
L 361 351
L 363 351
L 365 351
L 366 351
L 368 351
L 369 351
L 371 351
L 373 351
L 374 351
L 376 351
L 377 351
L 379 351
L 381 351
L 382 351
L 384 351
L 386 351
L 387 351
L 389 351
L 390 351
L 392 351
L 394 351
L 395 351
L 397 351
L 399 351
L 400 351
L 402 351
L 403 351
L 405 351
L 407 351
L 408 351
L 410 351
L 412 351
L 413 351
L 415 351
L 416 351
L 418 351
L 420 351
L 421 351
L 423 351
L 425 351
L 426 351
L 428 351
L 429 351
L 431 351
L 433 351
L 434 351
L 436 351
L 437 351
L 439 351
L 441 351
L 442 351
L 444 351
L 446 351
L 447 351
L 449 351
L 450 351
L 452 351
L 454 351
L 455 351
L 457 351
L 459 351
L 460 351
L 462 351
L 463 351
L 465 351
L 467 349
L 468 351
L 470 351
L 472 351
L 473 351
L 475 351
L 476 351
L 478 351
L 480 351
L 481 351
L 483 349
L 485 351
L 486 351
L 488 351
L 489 351
L 491 351
L 493 351
L 494 351
L 496 351
L 498 351
L 499 349
L 501 351
L 502 351
L 504 351
L 506 351
L 507 351
L 509 351
L 510 351
L 512 351
L 514 351
L 515 349
L 517 351
L 519 351
L 520 349
L 522 351
L 523 351
L 525 351
L 527 351
L 528 351
L 530 351
L 532 351
L 533 351
L 535 351
L 536 351
L 538 351
L 540 351
L 541 351
L 543 351
L 545 351
L 546 351
L 548 351
L 549 351
L 551 351
L 553 351
L 554 351
L 556 351
L 558 351
L 559 351
L 561 351
L 562 351
L 564 349
L 566 351
L 567 351
L 569 351
L 570 351
L 572 351
L 574 351
L 575 351
L 577 351
L 579 351
L 580 351
L 582 351
L 583 351
L 585 351
L 587 349
L 588 351
L 590 351
L 592 351
L 593 351
L 595 351
L 596 349
L 598 349
L 600 351
L 601 351
L 603 351
L 605 351
L 606 351
L 608 351
L 609 351
L 611 349
L 613 351
L 614 351
L 616 351
L 618 349
L 619 349
L 621 349
L 622 351
L 624 351
L 626 351
L 627 351
L 629 351
L 631 351
L 632 351
L 634 349
L 635 351
L 637 351
L 639 349
L 640 351
L 642 351
L 643 351
L 645 351
L 647 351
L 648 351
L 650 351
L 652 349
L 653 351
L 655 351
L 656 351
L 658 351
L 660 351
L 661 351
L 663 351
L 665 351
L 666 351
L 668 351
L 669 351
L 671 349
L 673 351
L 674 351
L 676 351
L 678 351
L 679 349
L 681 351
L 682 351
L 684 349
L 686 351
L 687 351
L 689 351
L 691 351
L 692 351
L 694 351
L 695 351
L 697 351
L 699 351
L 700 351
L 702 349
L 703 349
L 705 351
L 707 351
L 708 351
L 710 351
L 712 351
L 713 351
L 715 351
L 716 351
L 718 351
L 720 351
L 721 351
L 723 351
L 725 351
L 726 351
L 728 351
L 729 351
L 731 351
L 733 351
L 734 351
L 736 351
L 738 351
L 739 351
L 741 351
L 742 351
L 744 351
L 746 351
L 747 351
L 749 351
L 751 351
L 752 351
L 754 351
L 755 351
L 757 351
L 759 351
L 760 351
L 762 351
L 764 351
L 765 351
L 767 351
L 768 351
L 770 351
L 772 351
L 773 351
L 775 351
L 776 351
L 778 351
L 780 351
L 781 351
L 783 351
L 785 351
L 786 351
L 788 351
L 789 351
L 791 351
L 793 351
L 794 349
L 796 351
L 798 351
L 799 351
L 801 351
L 802 351
L 804 351
L 806 351
L 807 351
L 809 351
L 811 351
L 812 351
L 814 351
L 815 351
L 817 351
L 819 351
L 820 351
L 822 351
L 824 351
L 825 351
L 827 351
L 828 351
L 830 351
L 832 351
L 833 351
L 835 351
L 836 351
L 838 351
L 840 351
L 841 351
L 843 351
L 845 351
L 846 351
L 848 351
L 849 351
L 851 351
L 853 351
L 854 351
L 856 351
L 858 351
L 859 351
L 861 351
L 862 351
L 864 351
L 866 351
L 867 351
L 869 351
L 871 351
L 872 351
L 874 351
L 875 351
L 877 351
L 879 351
L 880 351
L 882 351
L 884 351
L 885 351
L 887 351
L 888 351
L 890 351
L 892 351
L 893 351
L 895 351
L 897 351
L 898 351
L 900 351
L 901 351
L 903 351
L 905 351
L 906 351
L 908 351
L 909 351
L 911 351
L 913 351
L 914 351
L 916 351
L 918 351
L 919 351
L 921 351
L 922 351
L 924 351
L 926 351
L 927 351
L 929 351
L 931 351
L 932 351
L 934 351
L 935 351
L 937 351
L 939 351
L 940 351
L 942 351
L 944 351
L 945 351
L 947 351
L 948 351
L 950 351
L 952 351
L 953 351
L 955 351
L 957 351
L 958 351
L 960 351
L 961 351
L 963 351
L 965 351
L 966 351
L 968 351
L 969 351" style="stroke-width:1;stroke:rgba(217,0,116,1.0);fill:none"/><text x="425" y="33" style="stroke-width:0;stroke:none;fill:rgba(51,51,51,1.0);font-size:23.0px;font-family:'Roboto Medium',sans-serif">Horn 22.09.2021</text><path  d="M 38 11
L 251 11
L 251 91
L 38 91
L 38 11" style="stroke-width:1;stroke:rgba(51,51,51,1.0);fill:rgba(255,255,255,1.0)"/><text x="43" y="26" style="stroke-width:0;stroke:none;fill:rgba(51,51,51,1.0);font-size:10.2px;font-family:'Roboto Medium',sans-serif">Sieben Tage Durschnitt Inzidenz Fälle</text><path  d="M 221 21
L 241 21" style="stroke-width:1;stroke:rgba(0,116,217,1.0);fill:none"/><text x="43" y="56" style="stroke-width:0;stroke:none;fill:rgba(51,51,51,1.0);font-size:10.2px;font-family:'Roboto Medium',sans-serif">Anzahl Faelle</text><path  d="M 110 51
L 241 51" style="stroke-width:1;stroke:rgba(0,217,101,1.0);fill:none"/><text x="43" y="86" style="stroke-width:0;stroke:none;fill:rgba(51,51,51,1.0);font-size:10.2px;font-family:'Roboto Medium',sans-serif">Anzahl Tot</text><path  d="M 98 81
L 241 81" style="stroke-width:1;stroke:rgba(217,0,116,1.0);fill:none"/></svg>