<svg xmlns="http://www.w3.org/2000/svg" xmlns:xlink="http://www.w3.org/1999/xlink" width="1024" height="400">\n<path  d="M 0 0
L 1024 0
L 1024 400
L 0 400
L 0 0" style="stroke-width:0;stroke:rgba(255,255,255,1.0);fill:rgba(255,255,255,1.0)"/><path  d="M 38 11
L 969 11
L 969 351
L 38 351
L 38 11" style="stroke-width:0;stroke:rgba(255,255,255,1.0);fill:rgba(255,255,255,1.0)"/><path  d="M 38 351
L 969 351" style="stroke-width:1;stroke:rgba(51,51,51,1.0);fill:none"/><path  d="M 38 351
L 38 356" style="stroke-width:1;stroke:rgba(51,51,51,1.0);fill:none"/><text x="5" y="373" style="stroke-width:0;stroke:none;fill:rgba(51,51,51,1.0);font-size:12.8px;font-family:'Roboto Medium',sans-serif">2020-02-26</text><path  d="M 155 351
L 155 356" style="stroke-width:1;stroke:rgba(51,51,51,1.0);fill:none"/><text x="122" y="373" style="stroke-width:0;stroke:none;fill:rgba(51,51,51,1.0);font-size:12.8px;font-family:'Roboto Medium',sans-serif">2020-04-29</text><path  d="M 271 351
L 271 356" style="stroke-width:1;stroke:rgba(51,51,51,1.0);fill:none"/><text x="238" y="373" style="stroke-width:0;stroke:none;fill:rgba(51,51,51,1.0);font-size:12.8px;font-family:'Roboto Medium',sans-serif">2020-07-01</text><path  d="M 388 351
L 388 356" style="stroke-width:1;stroke:rgba(51,51,51,1.0);fill:none"/><text x="355" y="373" style="stroke-width:0;stroke:none;fill:rgba(51,51,51,1.0);font-size:12.8px;font-family:'Roboto Medium',sans-serif">2020-09-03</text><path  d="M 504 351
L 504 356" style="stroke-width:1;stroke:rgba(51,51,51,1.0);fill:none"/><text x="471" y="373" style="stroke-width:0;stroke:none;fill:rgba(51,51,51,1.0);font-size:12.8px;font-family:'Roboto Medium',sans-serif">2020-11-05</text><path  d="M 620 351
L 620 356" style="stroke-width:1;stroke:rgba(51,51,51,1.0);fill:none"/><text x="587" y="373" style="stroke-width:0;stroke:none;fill:rgba(51,51,51,1.0);font-size:12.8px;font-family:'Roboto Medium',sans-serif">2021-01-07</text><path  d="M 737 351
L 737 356" style="stroke-width:1;stroke:rgba(51,51,51,1.0);fill:none"/><text x="704" y="373" style="stroke-width:0;stroke:none;fill:rgba(51,51,51,1.0);font-size:12.8px;font-family:'Roboto Medium',sans-serif">2021-03-12</text><path  d="M 853 351
L 853 356" style="stroke-width:1;stroke:rgba(51,51,51,1.0);fill:none"/><text x="820" y="373" style="stroke-width:0;stroke:none;fill:rgba(51,51,51,1.0);font-size:12.8px;font-family:'Roboto Medium',sans-serif">2021-05-14</text><path  d="M 969 351
L 969 356" style="stroke-width:1;stroke:rgba(51,51,51,1.0);fill:none"/><text x="936" y="373" style="stroke-width:0;stroke:none;fill:rgba(51,51,51,1.0);font-size:12.8px;font-family:'Roboto Medium',sans-serif">2021-07-17</text><text x="485" y="395" style="stroke-width:0;stroke:none;fill:rgba(51,51,51,1.0);font-size:12.8px;font-family:'Roboto Medium',sans-serif">Datum</text><path  d="M 970 351
L 970 11" style="stroke-width:1;stroke:rgba(51,51,51,1.0);fill:none"/><path  d="M 970 351
L 975 351" style="stroke-width:1;stroke:rgba(51,51,51,1.0);fill:none"/><text x="980" y="357" style="stroke-width:0;stroke:none;fill:rgba(51,51,51,1.0);font-size:12.8px;font-family:'Roboto Medium',sans-serif">0.00</text><path  d="M 970 308
L 975 308" style="stroke-width:1;stroke:rgba(51,51,51,1.0);fill:none"/><text x="980" y="314" style="stroke-width:0;stroke:none;fill:rgba(51,51,51,1.0);font-size:12.8px;font-family:'Roboto Medium',sans-serif">97.00</text><path  d="M 970 265
L 975 265" style="stroke-width:1;stroke:rgba(51,51,51,1.0);fill:none"/><text x="980" y="271" style="stroke-width:0;stroke:none;fill:rgba(51,51,51,1.0);font-size:12.8px;font-family:'Roboto Medium',sans-serif">193.00</text><path  d="M 970 223
L 975 223" style="stroke-width:1;stroke:rgba(51,51,51,1.0);fill:none"/><text x="980" y="229" style="stroke-width:0;stroke:none;fill:rgba(51,51,51,1.0);font-size:12.8px;font-family:'Roboto Medium',sans-serif">289.00</text><path  d="M 970 181
L 975 181" style="stroke-width:1;stroke:rgba(51,51,51,1.0);fill:none"/><text x="980" y="187" style="stroke-width:0;stroke:none;fill:rgba(51,51,51,1.0);font-size:12.8px;font-family:'Roboto Medium',sans-serif">385.00</text><path  d="M 970 138
L 975 138" style="stroke-width:1;stroke:rgba(51,51,51,1.0);fill:none"/><text x="980" y="144" style="stroke-width:0;stroke:none;fill:rgba(51,51,51,1.0);font-size:12.8px;font-family:'Roboto Medium',sans-serif">482.00</text><path  d="M 970 95
L 975 95" style="stroke-width:1;stroke:rgba(51,51,51,1.0);fill:none"/><text x="980" y="101" style="stroke-width:0;stroke:none;fill:rgba(51,51,51,1.0);font-size:12.8px;font-family:'Roboto Medium',sans-serif">578.00</text><path  d="M 970 53
L 975 53" style="stroke-width:1;stroke:rgba(51,51,51,1.0);fill:none"/><text x="980" y="59" style="stroke-width:0;stroke:none;fill:rgba(51,51,51,1.0);font-size:12.8px;font-family:'Roboto Medium',sans-serif">674.00</text><path  d="M 970 11
L 975 11" style="stroke-width:1;stroke:rgba(51,51,51,1.0);fill:none"/><text x="980" y="17" style="stroke-width:0;stroke:none;fill:rgba(51,51,51,1.0);font-size:12.8px;font-family:'Roboto Medium',sans-serif">770.00</text><path  d="M 38 351
L 40 351
L 42 351
L 44 351
L 46 351
L 48 351
L 50 351
L 51 351
L 53 351
L 55 351
L 57 351
L 59 351
L 61 351
L 62 350
L 64 349
L 66 348
L 68 347
L 70 345
L 72 342
L 73 341
L 75 338
L 77 332
L 79 323
L 81 319
L 83 311
L 84 306
L 86 292
L 88 282
L 90 279
L 92 277
L 94 271
L 95 274
L 97 281
L 99 283
L 101 285
L 103 287
L 105 295
L 106 304
L 108 306
L 110 304
L 112 316
L 114 328
L 116 332
L 117 324
L 119 319
L 121 317
L 123 320
L 125 321
L 127 321
L 128 323
L 130 329
L 132 337
L 134 343
L 136 344
L 138 344
L 139 345
L 141 346
L 143 349
L 145 349
L 147 348
L 149 348
L 151 348
L 152 347
L 154 347
L 156 348
L 158 348
L 160 349
L 162 348
L 163 348
L 165 349
L 167 348
L 169 348
L 171 348
L 173 348
L 174 349
L 176 349
L 178 349
L 180 349
L 182 350
L 184 350
L 185 350
L 187 350
L 189 350
L 191 350
L 193 351
L 195 351
L 196 350
L 198 350
L 200 350
L 202 350
L 204 350
L 206 350
L 207 350
L 209 351
L 211 351
L 213 351
L 215 351
L 217 351
L 218 351
L 220 351
L 222 351
L 224 351
L 226 351
L 228 351
L 229 351
L 231 351
L 233 351
L 235 351
L 237 351
L 239 351
L 240 351
L 242 351
L 244 351
L 246 351
L 248 351
L 250 351
L 252 351
L 253 351
L 255 351
L 257 351
L 259 351
L 261 351
L 263 351
L 264 351
L 266 351
L 268 350
L 270 350
L 272 350
L 274 350
L 275 350
L 277 350
L 279 350
L 281 351
L 283 351
L 285 351
L 286 351
L 288 351
L 290 351
L 292 351
L 294 351
L 296 351
L 297 350
L 299 350
L 301 350
L 303 350
L 305 350
L 307 350
L 308 350
L 310 351
L 312 351
L 314 351
L 316 350
L 318 350
L 319 350
L 321 350
L 323 348
L 325 348
L 327 348
L 329 348
L 330 348
L 332 347
L 334 345
L 336 348
L 338 348
L 340 348
L 341 348
L 343 348
L 345 349
L 347 350
L 349 350
L 351 350
L 353 350
L 354 350
L 356 350
L 358 349
L 360 350
L 362 350
L 364 349
L 365 349
L 367 349
L 369 348
L 371 349
L 373 349
L 375 348
L 376 349
L 378 348
L 380 348
L 382 347
L 384 347
L 386 346
L 387 343
L 389 343
L 391 345
L 393 343
L 395 340
L 397 336
L 398 334
L 400 335
L 402 319
L 404 316
L 406 317
L 408 321
L 409 324
L 411 325
L 413 324
L 415 336
L 417 337
L 419 337
L 420 337
L 422 335
L 424 332
L 426 329
L 428 329
L 430 329
L 431 330
L 433 329
L 435 332
L 437 332
L 439 337
L 441 337
L 442 338
L 444 335
L 446 332
L 448 326
L 450 327
L 452 319
L 454 316
L 455 308
L 457 297
L 459 293
L 461 293
L 463 283
L 465 282
L 466 263
L 468 258
L 470 261
L 472 266
L 474 258
L 476 245
L 477 240
L 479 240
L 481 248
L 483 251
L 485 240
L 487 243
L 488 233
L 490 223
L 492 225
L 494 208
L 496 191
L 498 188
L 499 158
L 501 149
L 503 117
L 505 115
L 507 100
L 509 74
L 510 50
L 512 21
L 514 17
L 516 53
L 518 26
L 520 11
L 521 24
L 523 16
L 525 61
L 527 81
L 529 47
L 531 77
L 532 98
L 534 122
L 536 150
L 538 151
L 540 157
L 542 189
L 543 181
L 545 198
L 547 202
L 549 198
L 551 207
L 553 214
L 554 217
L 556 236
L 558 214
L 560 210
L 562 224
L 564 223
L 566 226
L 567 224
L 569 232
L 571 246
L 573 245
L 575 233
L 577 235
L 578 227
L 580 234
L 582 217
L 584 235
L 586 244
L 588 251
L 589 248
L 591 256
L 593 257
L 595 274
L 597 273
L 599 265
L 600 270
L 602 271
L 604 279
L 606 280
L 608 272
L 610 265
L 611 270
L 613 271
L 615 278
L 617 256
L 619 265
L 621 264
L 622 270
L 624 274
L 626 282
L 628 282
L 630 304
L 632 304
L 633 314
L 635 315
L 637 316
L 639 316
L 641 324
L 643 323
L 644 322
L 646 317
L 648 321
L 650 322
L 652 317
L 654 317
L 655 320
L 657 326
L 659 327
L 661 327
L 663 322
L 665 325
L 667 327
L 668 324
L 670 322
L 672 324
L 674 324
L 676 328
L 678 330
L 679 328
L 681 329
L 683 327
L 685 327
L 687 329
L 689 325
L 690 322
L 692 316
L 694 316
L 696 316
L 698 312
L 700 306
L 701 311
L 703 300
L 705 300
L 707 287
L 709 284
L 711 287
L 712 282
L 714 271
L 716 275
L 718 264
L 720 265
L 722 260
L 723 256
L 725 261
L 727 263
L 729 260
L 731 262
L 733 259
L 734 257
L 736 256
L 738 235
L 740 218
L 742 218
L 744 204
L 745 206
L 747 220
L 749 185
L 751 197
L 753 214
L 755 214
L 756 236
L 758 237
L 760 221
L 762 241
L 764 242
L 766 243
L 768 250
L 769 240
L 771 240
L 773 247
L 775 261
L 777 271
L 779 270
L 780 271
L 782 278
L 784 285
L 786 287
L 788 286
L 790 285
L 791 290
L 793 290
L 795 287
L 797 285
L 799 277
L 801 278
L 802 274
L 804 277
L 806 266
L 808 266
L 810 269
L 812 254
L 813 247
L 815 242
L 817 237
L 819 240
L 821 227
L 823 209
L 824 222
L 826 222
L 828 222
L 830 221
L 832 216
L 834 230
L 835 229
L 837 231
L 839 232
L 841 228
L 843 223
L 845 235
L 846 233
L 848 224
L 850 224
L 852 231
L 854 241
L 856 243
L 857 238
L 859 241
L 861 270
L 863 276
L 865 271
L 867 272
L 869 277
L 870 282
L 872 290
L 874 285
L 876 281
L 878 263
L 880 261
L 881 256
L 883 252
L 885 248
L 887 249
L 889 256
L 891 278
L 892 276
L 894 282
L 896 287
L 898 295
L 900 300
L 902 306
L 903 315
L 905 319
L 907 324
L 909 332
L 911 334
L 913 336
L 914 338
L 916 338
L 918 345
L 920 344
L 922 344
L 924 345
L 925 348
L 927 347
L 929 346
L 931 346
L 933 347
L 935 348
L 936 347
L 938 346
L 940 348
L 942 349
L 944 349
L 946 349
L 947 349
L 949 350
L 951 351
L 953 351
L 955 350
L 957 350
L 958 348
L 960 346
L 962 346
L 964 346
L 966 345
L 968 345
L 969 345" style="stroke-width:1;stroke:rgba(0,116,217,1.0);fill:none"/><path  d="M 38 351
L 40 351
L 42 351
L 44 351
L 46 351
L 48 351
L 50 351
L 51 351
L 53 351
L 55 351
L 57 351
L 59 351
L 61 351
L 62 350
L 64 350
L 66 350
L 68 350
L 70 350
L 72 348
L 73 350
L 75 348
L 77 346
L 79 345
L 81 347
L 83 345
L 84 345
L 86 341
L 88 342
L 90 344
L 92 344
L 94 343
L 95 347
L 97 349
L 99 343
L 101 343
L 103 346
L 105 349
L 106 349
L 108 348
L 110 348
L 112 350
L 114 350
L 116 348
L 117 344
L 119 346
L 121 347
L 123 350
L 125 351
L 127 350
L 128 350
L 130 348
L 132 351
L 134 350
L 136 351
L 138 351
L 139 351
L 141 351
L 143 350
L 145 351
L 147 350
L 149 351
L 151 350
L 152 350
L 154 351
L 156 351
L 158 351
L 160 351
L 162 350
L 163 351
L 165 351
L 167 350
L 169 350
L 171 351
L 173 351
L 174 351
L 176 351
L 178 351
L 180 350
L 182 351
L 184 351
L 185 351
L 187 351
L 189 351
L 191 351
L 193 351
L 195 351
L 196 350
L 198 351
L 200 351
L 202 351
L 204 351
L 206 351
L 207 351
L 209 351
L 211 351
L 213 351
L 215 351
L 217 351
L 218 351
L 220 351
L 222 351
L 224 351
L 226 351
L 228 351
L 229 351
L 231 351
L 233 351
L 235 351
L 237 351
L 239 351
L 240 351
L 242 351
L 244 351
L 246 351
L 248 351
L 250 351
L 252 351
L 253 351
L 255 351
L 257 351
L 259 351
L 261 351
L 263 351
L 264 351
L 266 351
L 268 350
L 270 351
L 272 351
L 274 351
L 275 351
L 277 351
L 279 351
L 281 351
L 283 351
L 285 351
L 286 351
L 288 351
L 290 351
L 292 351
L 294 351
L 296 351
L 297 350
L 299 351
L 301 351
L 303 351
L 305 351
L 307 351
L 308 351
L 310 351
L 312 351
L 314 351
L 316 350
L 318 351
L 319 351
L 321 351
L 323 349
L 325 351
L 327 351
L 329 350
L 330 351
L 332 350
L 334 350
L 336 351
L 338 351
L 340 351
L 341 351
L 343 351
L 345 351
L 347 350
L 349 351
L 351 351
L 353 351
L 354 351
L 356 351
L 358 350
L 360 351
L 362 351
L 364 350
L 365 351
L 367 351
L 369 350
L 371 351
L 373 351
L 375 350
L 376 351
L 378 350
L 380 351
L 382 350
L 384 351
L 386 350
L 387 348
L 389 351
L 391 351
L 393 350
L 395 347
L 397 348
L 398 349
L 400 349
L 402 341
L 404 349
L 406 350
L 408 350
L 409 350
L 411 350
L 413 348
L 415 348
L 417 349
L 419 350
L 420 350
L 422 348
L 424 348
L 426 347
L 428 348
L 430 349
L 431 351
L 433 350
L 435 350
L 437 348
L 439 350
L 441 349
L 442 350
L 444 349
L 446 348
L 448 346
L 450 349
L 452 344
L 454 347
L 455 345
L 457 342
L 459 346
L 461 346
L 463 343
L 465 343
L 466 335
L 468 342
L 470 344
L 472 348
L 474 341
L 476 335
L 477 340
L 479 335
L 481 347
L 483 346
L 485 342
L 487 343
L 488 329
L 490 334
L 492 337
L 494 336
L 496 336
L 498 340
L 499 324
L 501 324
L 503 315
L 505 335
L 507 327
L 509 320
L 510 325
L 512 307
L 514 321
L 516 337
L 518 319
L 520 318
L 521 327
L 523 321
L 525 334
L 527 333
L 529 316
L 531 337
L 532 331
L 534 342
L 536 338
L 538 335
L 540 337
L 542 335
L 543 332
L 545 342
L 547 344
L 549 335
L 551 341
L 553 341
L 554 338
L 556 343
L 558 328
L 560 342
L 562 344
L 564 340
L 566 343
L 567 336
L 569 348
L 571 337
L 573 341
L 575 336
L 577 341
L 578 338
L 580 341
L 582 338
L 584 348
L 586 347
L 588 341
L 589 339
L 591 342
L 593 342
L 595 349
L 597 347
L 599 342
L 600 344
L 602 339
L 604 347
L 606 342
L 608 344
L 610 343
L 611 345
L 613 344
L 615 344
L 617 334
L 619 348
L 621 343
L 622 346
L 624 348
L 626 349
L 628 343
L 630 347
L 632 348
L 633 350
L 635 347
L 637 349
L 639 349
L 641 348
L 643 347
L 644 347
L 646 347
L 648 349
L 650 349
L 652 347
L 654 348
L 655 348
L 657 351
L 659 348
L 661 349
L 663 346
L 665 348
L 667 350
L 668 347
L 670 349
L 672 349
L 674 349
L 676 349
L 678 350
L 679 348
L 681 347
L 683 347
L 685 349
L 687 351
L 689 346
L 690 347
L 692 345
L 694 348
L 696 347
L 698 347
L 700 347
L 701 349
L 703 340
L 705 345
L 707 340
L 709 345
L 711 349
L 712 343
L 714 343
L 716 343
L 718 338
L 720 341
L 722 342
L 723 346
L 725 347
L 727 343
L 729 341
L 731 339
L 733 339
L 734 340
L 736 345
L 738 335
L 740 333
L 742 341
L 744 331
L 745 340
L 747 349
L 749 324
L 751 342
L 753 343
L 755 341
L 756 344
L 758 341
L 760 339
L 762 336
L 764 343
L 766 344
L 768 346
L 769 338
L 771 341
L 773 343
L 775 345
L 777 348
L 779 343
L 780 347
L 782 342
L 784 345
L 786 345
L 788 344
L 790 347
L 791 347
L 793 347
L 795 340
L 797 343
L 799 340
L 801 345
L 802 345
L 804 349
L 806 339
L 808 340
L 810 345
L 812 331
L 813 341
L 815 342
L 817 346
L 819 341
L 821 332
L 823 334
L 824 339
L 826 341
L 828 342
L 830 345
L 832 338
L 834 341
L 835 334
L 837 340
L 839 341
L 841 340
L 843 342
L 845 345
L 846 340
L 848 328
L 850 340
L 852 345
L 854 346
L 856 343
L 857 342
L 859 342
L 861 346
L 863 343
L 865 342
L 867 347
L 869 346
L 870 345
L 872 347
L 874 343
L 876 341
L 878 331
L 880 346
L 881 343
L 883 343
L 885 344
L 887 344
L 889 346
L 891 344
L 892 344
L 894 347
L 896 346
L 898 349
L 900 347
L 902 349
L 903 350
L 905 347
L 907 351
L 909 350
L 911 350
L 913 349
L 914 350
L 916 350
L 918 351
L 920 350
L 922 350
L 924 351
L 925 351
L 927 350
L 929 350
L 931 351
L 933 351
L 935 351
L 936 350
L 938 350
L 940 351
L 942 351
L 944 351
L 946 351
L 947 351
L 949 351
L 951 351
L 953 351
L 955 350
L 957 351
L 958 350
L 960 349
L 962 351
L 964 351
L 966 350
L 968 350
L 969 350" style="stroke-width:1;stroke:rgba(0,217,101,1.0);fill:none"/><path  d="M 38 351
L 40 351
L 42 351
L 44 351
L 46 351
L 48 351
L 50 351
L 51 351
L 53 351
L 55 351
L 57 351
L 59 351
L 61 351
L 62 351
L 64 351
L 66 351
L 68 351
L 70 351
L 72 351
L 73 351
L 75 351
L 77 351
L 79 351
L 81 351
L 83 351
L 84 351
L 86 351
L 88 350
L 90 351
L 92 351
L 94 351
L 95 351
L 97 351
L 99 351
L 101 351
L 103 351
L 105 351
L 106 350
L 108 351
L 110 351
L 112 350
L 114 351
L 116 351
L 117 351
L 119 351
L 121 351
L 123 351
L 125 351
L 127 350
L 128 351
L 130 351
L 132 351
L 134 351
L 136 351
L 138 350
L 139 351
L 141 351
L 143 351
L 145 351
L 147 351
L 149 351
L 151 351
L 152 350
L 154 351
L 156 351
L 158 351
L 160 351
L 162 351
L 163 351
L 165 351
L 167 351
L 169 351
L 171 351
L 173 351
L 174 351
L 176 351
L 178 351
L 180 351
L 182 351
L 184 351
L 185 351
L 187 351
L 189 350
L 191 351
L 193 351
L 195 351
L 196 351
L 198 351
L 200 351
L 202 351
L 204 351
L 206 351
L 207 351
L 209 351
L 211 351
L 213 351
L 215 351
L 217 351
L 218 351
L 220 351
L 222 351
L 224 351
L 226 351
L 228 351
L 229 351
L 231 351
L 233 351
L 235 351
L 237 351
L 239 351
L 240 351
L 242 351
L 244 351
L 246 351
L 248 351
L 250 351
L 252 351
L 253 351
L 255 351
L 257 351
L 259 351
L 261 351
L 263 351
L 264 351
L 266 351
L 268 351
L 270 351
L 272 351
L 274 351
L 275 351
L 277 351
L 279 351
L 281 351
L 283 351
L 285 351
L 286 351
L 288 351
L 290 351
L 292 351
L 294 351
L 296 351
L 297 351
L 299 351
L 301 351
L 303 351
L 305 351
L 307 351
L 308 351
L 310 351
L 312 351
L 314 351
L 316 351
L 318 351
L 319 351
L 321 351
L 323 351
L 325 351
L 327 351
L 329 351
L 330 351
L 332 351
L 334 351
L 336 351
L 338 351
L 340 351
L 341 351
L 343 351
L 345 351
L 347 351
L 349 351
L 351 351
L 353 351
L 354 351
L 356 351
L 358 351
L 360 351
L 362 351
L 364 351
L 365 351
L 367 351
L 369 351
L 371 351
L 373 351
L 375 351
L 376 351
L 378 351
L 380 351
L 382 351
L 384 351
L 386 351
L 387 351
L 389 351
L 391 351
L 393 351
L 395 351
L 397 351
L 398 351
L 400 351
L 402 351
L 404 351
L 406 351
L 408 351
L 409 351
L 411 351
L 413 351
L 415 351
L 417 351
L 419 351
L 420 351
L 422 351
L 424 351
L 426 351
L 428 351
L 430 351
L 431 351
L 433 351
L 435 351
L 437 351
L 439 351
L 441 351
L 442 351
L 444 351
L 446 351
L 448 351
L 450 351
L 452 351
L 454 351
L 455 351
L 457 351
L 459 351
L 461 351
L 463 351
L 465 351
L 466 351
L 468 351
L 470 351
L 472 351
L 474 351
L 476 351
L 477 351
L 479 351
L 481 351
L 483 351
L 485 351
L 487 351
L 488 351
L 490 351
L 492 351
L 494 351
L 496 351
L 498 351
L 499 351
L 501 351
L 503 351
L 505 351
L 507 351
L 509 351
L 510 350
L 512 351
L 514 351
L 516 351
L 518 350
L 520 351
L 521 351
L 523 351
L 525 351
L 527 351
L 529 351
L 531 351
L 532 350
L 534 350
L 536 351
L 538 350
L 540 350
L 542 350
L 543 350
L 545 351
L 547 351
L 549 350
L 551 351
L 553 351
L 554 351
L 556 350
L 558 351
L 560 351
L 562 350
L 564 351
L 566 350
L 567 350
L 569 351
L 571 351
L 573 351
L 575 351
L 577 351
L 578 350
L 580 350
L 582 351
L 584 350
L 586 351
L 588 351
L 589 351
L 591 351
L 593 351
L 595 351
L 597 351
L 599 351
L 600 351
L 602 351
L 604 351
L 606 351
L 608 350
L 610 351
L 611 351
L 613 350
L 615 351
L 617 351
L 619 351
L 621 351
L 622 351
L 624 351
L 626 351
L 628 351
L 630 351
L 632 351
L 633 351
L 635 351
L 637 351
L 639 351
L 641 351
L 643 351
L 644 351
L 646 350
L 648 351
L 650 351
L 652 351
L 654 351
L 655 351
L 657 351
L 659 351
L 661 351
L 663 351
L 665 351
L 667 351
L 668 351
L 670 351
L 672 351
L 674 351
L 676 351
L 678 351
L 679 351
L 681 351
L 683 351
L 685 351
L 687 351
L 689 351
L 690 351
L 692 351
L 694 351
L 696 350
L 698 351
L 700 351
L 701 351
L 703 351
L 705 351
L 707 351
L 709 351
L 711 351
L 712 351
L 714 351
L 716 351
L 718 351
L 720 351
L 722 351
L 723 351
L 725 351
L 727 351
L 729 351
L 731 351
L 733 351
L 734 351
L 736 351
L 738 351
L 740 351
L 742 351
L 744 351
L 745 351
L 747 351
L 749 350
L 751 351
L 753 351
L 755 351
L 756 351
L 758 351
L 760 350
L 762 351
L 764 351
L 766 351
L 768 351
L 769 351
L 771 351
L 773 351
L 775 351
L 777 351
L 779 351
L 780 351
L 782 351
L 784 350
L 786 351
L 788 351
L 790 351
L 791 350
L 793 351
L 795 351
L 797 351
L 799 351
L 801 351
L 802 351
L 804 351
L 806 351
L 808 351
L 810 351
L 812 351
L 813 351
L 815 351
L 817 351
L 819 351
L 821 351
L 823 351
L 824 351
L 826 351
L 828 351
L 830 351
L 832 351
L 834 351
L 835 351
L 837 351
L 839 351
L 841 351
L 843 351
L 845 351
L 846 351
L 848 350
L 850 351
L 852 351
L 854 351
L 856 351
L 857 351
L 859 350
L 861 351
L 863 351
L 865 351
L 867 351
L 869 351
L 870 351
L 872 351
L 874 351
L 876 351
L 878 351
L 880 351
L 881 351
L 883 351
L 885 351
L 887 351
L 889 351
L 891 351
L 892 351
L 894 351
L 896 351
L 898 351
L 900 351
L 902 351
L 903 351
L 905 351
L 907 351
L 909 351
L 911 351
L 913 351
L 914 351
L 916 351
L 918 351
L 920 351
L 922 351
L 924 351
L 925 351
L 927 351
L 929 351
L 931 351
L 933 351
L 935 351
L 936 351
L 938 351
L 940 351
L 942 351
L 944 351
L 946 351
L 947 351
L 949 351
L 951 351
L 953 351
L 955 351
L 957 351
L 958 351
L 960 351
L 962 351
L 964 351
L 966 351
L 968 351
L 969 351" style="stroke-width:1;stroke:rgba(217,0,116,1.0);fill:none"/><text x="427" y="33" style="stroke-width:0;stroke:none;fill:rgba(51,51,51,1.0);font-size:23.0px;font-family:'Roboto Medium',sans-serif">Imst 17.07.2021</text><path  d="M 38 11
L 251 11
L 251 91
L 38 91
L 38 11" style="stroke-width:1;stroke:rgba(51,51,51,1.0);fill:rgba(255,255,255,1.0)"/><text x="43" y="26" style="stroke-width:0;stroke:none;fill:rgba(51,51,51,1.0);font-size:10.2px;font-family:'Roboto Medium',sans-serif">Sieben Tage Durschnitt Inzidenz Fälle</text><path  d="M 221 21
L 241 21" style="stroke-width:1;stroke:rgba(0,116,217,1.0);fill:none"/><text x="43" y="56" style="stroke-width:0;stroke:none;fill:rgba(51,51,51,1.0);font-size:10.2px;font-family:'Roboto Medium',sans-serif">Anzahl Faelle</text><path  d="M 110 51
L 241 51" style="stroke-width:1;stroke:rgba(0,217,101,1.0);fill:none"/><text x="43" y="86" style="stroke-width:0;stroke:none;fill:rgba(51,51,51,1.0);font-size:10.2px;font-family:'Roboto Medium',sans-serif">Anzahl Tot</text><path  d="M 98 81
L 241 81" style="stroke-width:1;stroke:rgba(217,0,116,1.0);fill:none"/></svg>