<svg xmlns="http://www.w3.org/2000/svg" xmlns:xlink="http://www.w3.org/1999/xlink" width="1024" height="400">\n<path  d="M 0 0
L 1024 0
L 1024 400
L 0 400
L 0 0" style="stroke-width:0;stroke:rgba(255,255,255,1.0);fill:rgba(255,255,255,1.0)"/><path  d="M 38 11
L 969 11
L 969 351
L 38 351
L 38 11" style="stroke-width:0;stroke:rgba(255,255,255,1.0);fill:rgba(255,255,255,1.0)"/><path  d="M 38 351
L 969 351" style="stroke-width:1;stroke:rgba(51,51,51,1.0);fill:none"/><path  d="M 38 351
L 38 356" style="stroke-width:1;stroke:rgba(51,51,51,1.0);fill:none"/><text x="5" y="373" style="stroke-width:0;stroke:none;fill:rgba(51,51,51,1.0);font-size:12.8px;font-family:'Roboto Medium',sans-serif">2020-02-26</text><path  d="M 155 351
L 155 356" style="stroke-width:1;stroke:rgba(51,51,51,1.0);fill:none"/><text x="122" y="373" style="stroke-width:0;stroke:none;fill:rgba(51,51,51,1.0);font-size:12.8px;font-family:'Roboto Medium',sans-serif">2020-04-24</text><path  d="M 271 351
L 271 356" style="stroke-width:1;stroke:rgba(51,51,51,1.0);fill:none"/><text x="238" y="373" style="stroke-width:0;stroke:none;fill:rgba(51,51,51,1.0);font-size:12.8px;font-family:'Roboto Medium',sans-serif">2020-06-21</text><path  d="M 388 351
L 388 356" style="stroke-width:1;stroke:rgba(51,51,51,1.0);fill:none"/><text x="355" y="373" style="stroke-width:0;stroke:none;fill:rgba(51,51,51,1.0);font-size:12.8px;font-family:'Roboto Medium',sans-serif">2020-08-19</text><path  d="M 504 351
L 504 356" style="stroke-width:1;stroke:rgba(51,51,51,1.0);fill:none"/><text x="471" y="373" style="stroke-width:0;stroke:none;fill:rgba(51,51,51,1.0);font-size:12.8px;font-family:'Roboto Medium',sans-serif">2020-10-16</text><path  d="M 620 351
L 620 356" style="stroke-width:1;stroke:rgba(51,51,51,1.0);fill:none"/><text x="587" y="373" style="stroke-width:0;stroke:none;fill:rgba(51,51,51,1.0);font-size:12.8px;font-family:'Roboto Medium',sans-serif">2020-12-13</text><path  d="M 737 351
L 737 356" style="stroke-width:1;stroke:rgba(51,51,51,1.0);fill:none"/><text x="704" y="373" style="stroke-width:0;stroke:none;fill:rgba(51,51,51,1.0);font-size:12.8px;font-family:'Roboto Medium',sans-serif">2021-02-10</text><path  d="M 853 351
L 853 356" style="stroke-width:1;stroke:rgba(51,51,51,1.0);fill:none"/><text x="820" y="373" style="stroke-width:0;stroke:none;fill:rgba(51,51,51,1.0);font-size:12.8px;font-family:'Roboto Medium',sans-serif">2021-04-09</text><path  d="M 969 351
L 969 356" style="stroke-width:1;stroke:rgba(51,51,51,1.0);fill:none"/><text x="936" y="373" style="stroke-width:0;stroke:none;fill:rgba(51,51,51,1.0);font-size:12.8px;font-family:'Roboto Medium',sans-serif">2021-06-07</text><text x="485" y="395" style="stroke-width:0;stroke:none;fill:rgba(51,51,51,1.0);font-size:12.8px;font-family:'Roboto Medium',sans-serif">Datum</text><path  d="M 970 351
L 970 11" style="stroke-width:1;stroke:rgba(51,51,51,1.0);fill:none"/><path  d="M 970 351
L 975 351" style="stroke-width:1;stroke:rgba(51,51,51,1.0);fill:none"/><text x="980" y="357" style="stroke-width:0;stroke:none;fill:rgba(51,51,51,1.0);font-size:12.8px;font-family:'Roboto Medium',sans-serif">0.00</text><path  d="M 970 308
L 975 308" style="stroke-width:1;stroke:rgba(51,51,51,1.0);fill:none"/><text x="980" y="314" style="stroke-width:0;stroke:none;fill:rgba(51,51,51,1.0);font-size:12.8px;font-family:'Roboto Medium',sans-serif">80.00</text><path  d="M 970 266
L 975 266" style="stroke-width:1;stroke:rgba(51,51,51,1.0);fill:none"/><text x="980" y="272" style="stroke-width:0;stroke:none;fill:rgba(51,51,51,1.0);font-size:12.8px;font-family:'Roboto Medium',sans-serif">160.00</text><path  d="M 970 223
L 975 223" style="stroke-width:1;stroke:rgba(51,51,51,1.0);fill:none"/><text x="980" y="229" style="stroke-width:0;stroke:none;fill:rgba(51,51,51,1.0);font-size:12.8px;font-family:'Roboto Medium',sans-serif">240.00</text><path  d="M 970 181
L 975 181" style="stroke-width:1;stroke:rgba(51,51,51,1.0);fill:none"/><text x="980" y="187" style="stroke-width:0;stroke:none;fill:rgba(51,51,51,1.0);font-size:12.8px;font-family:'Roboto Medium',sans-serif">320.00</text><path  d="M 970 138
L 975 138" style="stroke-width:1;stroke:rgba(51,51,51,1.0);fill:none"/><text x="980" y="144" style="stroke-width:0;stroke:none;fill:rgba(51,51,51,1.0);font-size:12.8px;font-family:'Roboto Medium',sans-serif">400.00</text><path  d="M 970 96
L 975 96" style="stroke-width:1;stroke:rgba(51,51,51,1.0);fill:none"/><text x="980" y="102" style="stroke-width:0;stroke:none;fill:rgba(51,51,51,1.0);font-size:12.8px;font-family:'Roboto Medium',sans-serif">480.00</text><path  d="M 970 53
L 975 53" style="stroke-width:1;stroke:rgba(51,51,51,1.0);fill:none"/><text x="980" y="59" style="stroke-width:0;stroke:none;fill:rgba(51,51,51,1.0);font-size:12.8px;font-family:'Roboto Medium',sans-serif">560.00</text><path  d="M 970 11
L 975 11" style="stroke-width:1;stroke:rgba(51,51,51,1.0);fill:none"/><text x="980" y="17" style="stroke-width:0;stroke:none;fill:rgba(51,51,51,1.0);font-size:12.8px;font-family:'Roboto Medium',sans-serif">640.00</text><path  d="M 38 351
L 40 351
L 42 351
L 44 351
L 46 351
L 48 351
L 50 351
L 52 350
L 54 350
L 56 349
L 58 349
L 60 347
L 62 346
L 64 345
L 66 340
L 68 336
L 70 329
L 72 326
L 74 325
L 76 318
L 78 310
L 80 311
L 82 305
L 84 301
L 86 291
L 88 288
L 90 278
L 92 284
L 94 278
L 96 279
L 98 283
L 100 291
L 102 295
L 104 310
L 106 313
L 108 321
L 110 328
L 112 333
L 114 335
L 116 338
L 118 338
L 120 339
L 122 341
L 124 341
L 126 343
L 128 346
L 130 346
L 132 347
L 134 347
L 136 346
L 138 348
L 140 349
L 142 349
L 144 348
L 146 348
L 148 347
L 150 347
L 152 347
L 154 345
L 156 344
L 158 344
L 160 344
L 162 346
L 164 345
L 166 345
L 168 347
L 170 347
L 172 348
L 174 348
L 176 348
L 178 349
L 180 349
L 182 349
L 184 350
L 186 350
L 188 351
L 190 350
L 192 350
L 194 350
L 196 350
L 198 350
L 200 350
L 202 350
L 204 351
L 206 351
L 208 351
L 210 351
L 212 351
L 214 351
L 216 351
L 218 351
L 220 351
L 222 351
L 224 351
L 226 351
L 228 351
L 230 351
L 232 351
L 234 351
L 236 351
L 238 351
L 240 351
L 242 351
L 244 351
L 246 351
L 248 351
L 250 351
L 252 351
L 254 351
L 256 351
L 258 351
L 260 351
L 262 351
L 264 351
L 266 351
L 268 351
L 270 350
L 272 350
L 274 350
L 276 350
L 278 349
L 280 349
L 282 349
L 284 349
L 286 348
L 288 348
L 290 348
L 292 348
L 294 348
L 296 347
L 298 347
L 300 348
L 302 348
L 304 348
L 306 348
L 308 348
L 310 348
L 312 348
L 314 346
L 316 346
L 318 346
L 320 346
L 322 346
L 324 347
L 326 347
L 328 348
L 330 348
L 332 348
L 334 349
L 336 348
L 338 348
L 340 348
L 342 347
L 344 348
L 346 348
L 348 348
L 349 348
L 351 348
L 353 348
L 355 349
L 357 349
L 359 348
L 361 349
L 363 348
L 365 348
L 367 348
L 369 346
L 371 340
L 373 336
L 375 319
L 377 313
L 379 311
L 381 306
L 383 302
L 385 305
L 387 308
L 389 320
L 391 319
L 393 319
L 395 322
L 397 326
L 399 324
L 401 323
L 403 325
L 405 329
L 407 327
L 409 326
L 411 324
L 413 324
L 415 320
L 417 318
L 419 319
L 421 321
L 423 319
L 425 315
L 427 313
L 429 309
L 431 303
L 433 294
L 435 293
L 437 289
L 439 285
L 441 284
L 443 290
L 445 293
L 447 293
L 449 290
L 451 294
L 453 295
L 455 296
L 457 296
L 459 298
L 461 303
L 463 305
L 465 306
L 467 310
L 469 311
L 471 309
L 473 307
L 475 299
L 477 296
L 479 287
L 481 282
L 483 273
L 485 266
L 487 264
L 489 271
L 491 262
L 493 263
L 495 257
L 497 252
L 499 236
L 501 227
L 503 214
L 505 216
L 507 221
L 509 197
L 511 195
L 513 200
L 515 168
L 517 155
L 519 144
L 521 122
L 523 136
L 525 108
L 527 98
L 529 108
L 531 87
L 533 68
L 535 72
L 537 49
L 539 52
L 541 37
L 543 34
L 545 19
L 547 36
L 549 13
L 551 15
L 553 18
L 555 13
L 557 23
L 559 62
L 561 77
L 563 94
L 565 100
L 567 114
L 569 130
L 571 130
L 573 139
L 575 135
L 577 140
L 579 149
L 581 147
L 583 159
L 585 168
L 587 162
L 589 162
L 591 178
L 593 192
L 595 212
L 597 219
L 599 229
L 601 234
L 603 241
L 605 237
L 607 244
L 609 249
L 611 251
L 613 255
L 615 270
L 617 269
L 619 276
L 621 274
L 623 277
L 625 283
L 627 287
L 629 285
L 631 291
L 633 291
L 635 293
L 637 291
L 639 295
L 641 301
L 643 306
L 645 309
L 647 311
L 649 317
L 651 313
L 653 313
L 655 310
L 657 303
L 659 300
L 660 300
L 662 298
L 664 305
L 666 302
L 668 303
L 670 308
L 672 308
L 674 308
L 676 309
L 678 308
L 680 312
L 682 309
L 684 314
L 686 311
L 688 311
L 690 313
L 692 314
L 694 314
L 696 317
L 698 312
L 700 317
L 702 318
L 704 316
L 706 314
L 708 316
L 710 317
L 712 319
L 714 321
L 716 315
L 718 316
L 720 316
L 722 316
L 724 317
L 726 317
L 728 316
L 730 322
L 732 325
L 734 328
L 736 327
L 738 328
L 740 328
L 742 328
L 744 324
L 746 325
L 748 323
L 750 323
L 752 322
L 754 324
L 756 322
L 758 325
L 760 324
L 762 325
L 764 324
L 766 324
L 768 325
L 770 328
L 772 327
L 774 326
L 776 326
L 778 326
L 780 320
L 782 317
L 784 315
L 786 316
L 788 316
L 790 316
L 792 313
L 794 303
L 796 302
L 798 292
L 800 282
L 802 280
L 804 269
L 806 266
L 808 271
L 810 258
L 812 261
L 814 263
L 816 259
L 818 260
L 820 252
L 822 247
L 824 249
L 826 243
L 828 238
L 830 229
L 832 221
L 834 218
L 836 221
L 838 218
L 840 222
L 842 224
L 844 227
L 846 230
L 848 240
L 850 240
L 852 247
L 854 243
L 856 245
L 858 246
L 860 243
L 862 235
L 864 231
L 866 224
L 868 228
L 870 226
L 872 220
L 874 219
L 876 222
L 878 228
L 880 234
L 882 237
L 884 240
L 886 241
L 888 250
L 890 252
L 892 242
L 894 238
L 896 238
L 898 241
L 900 249
L 902 251
L 904 260
L 906 276
L 908 287
L 910 290
L 912 290
L 914 293
L 916 297
L 918 298
L 920 299
L 922 299
L 924 301
L 926 308
L 928 307
L 930 310
L 932 312
L 934 313
L 936 316
L 938 320
L 940 317
L 942 326
L 944 327
L 946 327
L 948 328
L 950 327
L 952 330
L 954 331
L 956 326
L 958 323
L 960 319
L 962 318
L 964 313
L 966 309
L 968 305
L 969 306" style="stroke-width:1;stroke:rgba(0,116,217,1.0);fill:none"/><path  d="M 38 351
L 40 351
L 42 351
L 44 351
L 46 351
L 48 351
L 50 351
L 52 349
L 54 351
L 56 349
L 58 351
L 60 348
L 62 349
L 64 349
L 66 343
L 68 346
L 70 340
L 72 347
L 74 346
L 76 340
L 78 339
L 80 344
L 82 338
L 84 335
L 86 334
L 88 341
L 90 328
L 92 346
L 94 337
L 96 338
L 98 340
L 100 345
L 102 346
L 104 348
L 106 349
L 108 348
L 110 348
L 112 346
L 114 347
L 116 349
L 118 349
L 120 351
L 122 351
L 124 348
L 126 349
L 128 351
L 130 350
L 132 351
L 134 350
L 136 350
L 138 351
L 140 351
L 142 351
L 144 349
L 146 350
L 148 348
L 150 350
L 152 351
L 154 348
L 156 349
L 158 349
L 160 349
L 162 351
L 164 349
L 166 350
L 168 351
L 170 349
L 172 351
L 174 350
L 176 351
L 178 351
L 180 351
L 182 351
L 184 351
L 186 351
L 188 351
L 190 350
L 192 351
L 194 351
L 196 351
L 198 351
L 200 351
L 202 351
L 204 351
L 206 351
L 208 351
L 210 351
L 212 351
L 214 351
L 216 351
L 218 351
L 220 351
L 222 351
L 224 351
L 226 351
L 228 351
L 230 351
L 232 351
L 234 351
L 236 351
L 238 351
L 240 351
L 242 351
L 244 351
L 246 351
L 248 351
L 250 351
L 252 351
L 254 351
L 256 351
L 258 351
L 260 351
L 262 351
L 264 351
L 266 351
L 268 351
L 270 350
L 272 351
L 274 351
L 276 350
L 278 350
L 280 351
L 282 351
L 284 350
L 286 349
L 288 350
L 290 351
L 292 349
L 294 351
L 296 349
L 298 351
L 300 351
L 302 350
L 304 350
L 306 350
L 308 350
L 310 349
L 312 351
L 314 349
L 316 349
L 318 350
L 320 349
L 322 351
L 324 351
L 326 351
L 328 350
L 330 349
L 332 351
L 334 350
L 336 350
L 338 350
L 340 351
L 342 349
L 344 350
L 346 351
L 348 350
L 349 351
L 351 351
L 353 351
L 355 349
L 357 350
L 359 350
L 361 351
L 363 350
L 365 351
L 367 350
L 369 347
L 371 342
L 373 344
L 375 329
L 377 341
L 379 348
L 381 344
L 383 341
L 385 346
L 387 348
L 389 345
L 391 339
L 393 349
L 395 348
L 397 345
L 399 344
L 401 347
L 403 348
L 405 345
L 407 346
L 409 346
L 411 344
L 413 343
L 415 343
L 417 345
L 419 346
L 421 348
L 423 344
L 425 339
L 427 340
L 429 337
L 431 337
L 433 335
L 435 346
L 437 339
L 439 334
L 441 339
L 443 344
L 445 341
L 447 334
L 449 343
L 451 345
L 453 335
L 455 340
L 457 344
L 459 344
L 461 340
L 463 346
L 465 346
L 467 340
L 469 341
L 471 343
L 473 340
L 475 330
L 477 341
L 479 335
L 481 333
L 483 330
L 485 333
L 487 338
L 489 338
L 491 330
L 493 336
L 495 325
L 497 323
L 499 311
L 501 327
L 503 322
L 505 332
L 507 343
L 509 294
L 511 321
L 513 318
L 515 284
L 517 305
L 519 317
L 521 314
L 523 313
L 525 283
L 527 305
L 529 296
L 531 278
L 533 292
L 535 319
L 537 282
L 539 287
L 541 286
L 543 292
L 545 258
L 547 314
L 549 288
L 551 285
L 553 292
L 555 278
L 557 305
L 559 310
L 561 334
L 563 311
L 565 294
L 567 309
L 569 300
L 571 305
L 573 321
L 575 329
L 577 318
L 579 305
L 581 306
L 583 317
L 585 317
L 587 313
L 589 329
L 591 338
L 593 324
L 595 333
L 597 326
L 599 330
L 601 320
L 603 338
L 605 333
L 607 333
L 609 339
L 611 328
L 613 336
L 615 339
L 617 337
L 619 342
L 621 330
L 623 344
L 625 336
L 627 341
L 629 337
L 631 346
L 633 341
L 635 334
L 637 341
L 639 341
L 641 349
L 643 344
L 645 349
L 647 345
L 649 342
L 651 335
L 653 342
L 655 344
L 657 335
L 659 344
L 660 345
L 662 339
L 664 344
L 666 338
L 668 345
L 670 342
L 672 344
L 674 345
L 676 340
L 678 344
L 680 343
L 682 341
L 684 348
L 686 340
L 688 345
L 690 343
L 692 345
L 694 343
L 696 346
L 698 341
L 700 347
L 702 346
L 704 340
L 706 343
L 708 346
L 710 347
L 712 344
L 714 349
L 716 338
L 718 342
L 720 342
L 722 346
L 724 347
L 726 345
L 728 347
L 730 346
L 732 346
L 734 347
L 736 345
L 738 349
L 740 345
L 742 346
L 744 342
L 746 347
L 748 344
L 750 344
L 752 348
L 754 347
L 756 344
L 758 346
L 760 346
L 762 345
L 764 343
L 766 348
L 768 348
L 770 348
L 772 344
L 774 344
L 776 345
L 778 344
L 780 339
L 782 345
L 784 346
L 786 345
L 788 344
L 790 346
L 792 339
L 794 327
L 796 343
L 798 332
L 800 332
L 802 341
L 804 331
L 806 336
L 808 333
L 810 326
L 812 336
L 814 335
L 816 336
L 818 332
L 820 325
L 822 327
L 824 328
L 826 327
L 828 329
L 830 323
L 832 323
L 834 321
L 836 331
L 838 324
L 840 331
L 842 332
L 844 328
L 846 326
L 848 335
L 850 331
L 852 334
L 854 326
L 856 335
L 858 329
L 860 322
L 862 324
L 864 327
L 866 326
L 868 330
L 870 332
L 872 322
L 874 320
L 876 327
L 878 335
L 880 334
L 882 335
L 884 335
L 886 324
L 888 331
L 890 330
L 892 321
L 894 329
L 896 335
L 898 339
L 900 334
L 902 335
L 904 341
L 906 342
L 908 344
L 910 338
L 912 339
L 914 338
L 916 340
L 918 343
L 920 344
L 922 344
L 924 340
L 926 348
L 928 338
L 930 344
L 932 345
L 934 346
L 936 347
L 938 345
L 940 346
L 942 349
L 944 344
L 946 346
L 948 346
L 950 347
L 952 348
L 954 348
L 956 342
L 958 341
L 960 340
L 962 345
L 964 339
L 966 344
L 968 343
L 969 343" style="stroke-width:1;stroke:rgba(0,217,101,1.0);fill:none"/><path  d="M 38 351
L 40 351
L 42 351
L 44 351
L 46 351
L 48 351
L 50 351
L 52 351
L 54 351
L 56 351
L 58 351
L 60 351
L 62 351
L 64 351
L 66 351
L 68 351
L 70 351
L 72 351
L 74 351
L 76 351
L 78 351
L 80 351
L 82 351
L 84 351
L 86 351
L 88 351
L 90 351
L 92 350
L 94 351
L 96 351
L 98 351
L 100 351
L 102 351
L 104 351
L 106 349
L 108 351
L 110 351
L 112 351
L 114 351
L 116 351
L 118 351
L 120 351
L 122 351
L 124 351
L 126 350
L 128 351
L 130 351
L 132 351
L 134 349
L 136 351
L 138 351
L 140 351
L 142 351
L 144 351
L 146 351
L 148 351
L 150 351
L 152 351
L 154 351
L 156 351
L 158 351
L 160 351
L 162 351
L 164 351
L 166 351
L 168 351
L 170 351
L 172 351
L 174 351
L 176 351
L 178 351
L 180 351
L 182 351
L 184 351
L 186 351
L 188 351
L 190 351
L 192 351
L 194 351
L 196 351
L 198 351
L 200 351
L 202 351
L 204 351
L 206 351
L 208 351
L 210 351
L 212 351
L 214 351
L 216 351
L 218 351
L 220 351
L 222 351
L 224 351
L 226 351
L 228 351
L 230 351
L 232 351
L 234 351
L 236 351
L 238 351
L 240 351
L 242 351
L 244 351
L 246 351
L 248 351
L 250 351
L 252 351
L 254 351
L 256 351
L 258 351
L 260 351
L 262 351
L 264 351
L 266 351
L 268 351
L 270 351
L 272 351
L 274 351
L 276 351
L 278 351
L 280 351
L 282 351
L 284 351
L 286 351
L 288 351
L 290 351
L 292 351
L 294 351
L 296 351
L 298 351
L 300 351
L 302 351
L 304 351
L 306 351
L 308 351
L 310 351
L 312 351
L 314 351
L 316 351
L 318 351
L 320 351
L 322 351
L 324 351
L 326 351
L 328 351
L 330 351
L 332 351
L 334 351
L 336 351
L 338 351
L 340 351
L 342 351
L 344 351
L 346 351
L 348 351
L 349 351
L 351 351
L 353 351
L 355 351
L 357 351
L 359 351
L 361 351
L 363 351
L 365 351
L 367 351
L 369 351
L 371 351
L 373 351
L 375 351
L 377 351
L 379 351
L 381 351
L 383 351
L 385 351
L 387 351
L 389 351
L 391 351
L 393 351
L 395 351
L 397 351
L 399 351
L 401 351
L 403 351
L 405 351
L 407 351
L 409 351
L 411 351
L 413 351
L 415 351
L 417 351
L 419 351
L 421 351
L 423 351
L 425 351
L 427 351
L 429 351
L 431 351
L 433 351
L 435 351
L 437 351
L 439 351
L 441 351
L 443 351
L 445 351
L 447 351
L 449 351
L 451 351
L 453 351
L 455 351
L 457 351
L 459 351
L 461 351
L 463 351
L 465 351
L 467 351
L 469 351
L 471 351
L 473 351
L 475 351
L 477 351
L 479 351
L 481 351
L 483 350
L 485 351
L 487 351
L 489 351
L 491 351
L 493 350
L 495 351
L 497 351
L 499 351
L 501 350
L 503 351
L 505 351
L 507 350
L 509 350
L 511 351
L 513 351
L 515 351
L 517 350
L 519 350
L 521 350
L 523 351
L 525 350
L 527 351
L 529 351
L 531 349
L 533 348
L 535 351
L 537 350
L 539 349
L 541 349
L 543 349
L 545 349
L 547 348
L 549 350
L 551 351
L 553 350
L 555 349
L 557 349
L 559 350
L 561 351
L 563 350
L 565 350
L 567 350
L 569 350
L 571 349
L 573 351
L 575 350
L 577 349
L 579 350
L 581 351
L 583 349
L 585 351
L 587 349
L 589 351
L 591 351
L 593 351
L 595 350
L 597 351
L 599 351
L 601 350
L 603 351
L 605 351
L 607 350
L 609 351
L 611 351
L 613 349
L 615 350
L 617 351
L 619 350
L 621 350
L 623 349
L 625 350
L 627 351
L 629 349
L 631 349
L 633 350
L 635 351
L 637 349
L 639 350
L 641 350
L 643 351
L 645 351
L 647 351
L 649 351
L 651 351
L 653 351
L 655 351
L 657 351
L 659 351
L 660 351
L 662 351
L 664 351
L 666 351
L 668 351
L 670 351
L 672 351
L 674 350
L 676 351
L 678 350
L 680 351
L 682 351
L 684 351
L 686 351
L 688 351
L 690 351
L 692 350
L 694 351
L 696 351
L 698 351
L 700 351
L 702 351
L 704 351
L 706 351
L 708 350
L 710 351
L 712 350
L 714 351
L 716 350
L 718 351
L 720 351
L 722 351
L 724 351
L 726 351
L 728 351
L 730 351
L 732 351
L 734 351
L 736 351
L 738 351
L 740 351
L 742 351
L 744 350
L 746 351
L 748 349
L 750 351
L 752 351
L 754 351
L 756 351
L 758 351
L 760 351
L 762 351
L 764 351
L 766 351
L 768 351
L 770 351
L 772 351
L 774 351
L 776 351
L 778 351
L 780 351
L 782 351
L 784 351
L 786 351
L 788 351
L 790 351
L 792 351
L 794 351
L 796 351
L 798 351
L 800 351
L 802 351
L 804 351
L 806 351
L 808 351
L 810 351
L 812 351
L 814 350
L 816 351
L 818 351
L 820 351
L 822 350
L 824 351
L 826 351
L 828 351
L 830 351
L 832 351
L 834 351
L 836 351
L 838 351
L 840 351
L 842 351
L 844 351
L 846 350
L 848 351
L 850 351
L 852 351
L 854 350
L 856 351
L 858 351
L 860 351
L 862 351
L 864 351
L 866 351
L 868 351
L 870 351
L 872 350
L 874 351
L 876 351
L 878 350
L 880 351
L 882 351
L 884 351
L 886 351
L 888 351
L 890 351
L 892 351
L 894 351
L 896 351
L 898 351
L 900 350
L 902 351
L 904 351
L 906 351
L 908 351
L 910 351
L 912 351
L 914 351
L 916 351
L 918 351
L 920 351
L 922 351
L 924 351
L 926 351
L 928 351
L 930 351
L 932 351
L 934 351
L 936 351
L 938 351
L 940 350
L 942 351
L 944 351
L 946 351
L 948 351
L 950 351
L 952 351
L 954 351
L 956 351
L 958 351
L 960 351
L 962 351
L 964 351
L 966 351
L 968 351
L 969 351" style="stroke-width:1;stroke:rgba(217,0,116,1.0);fill:none"/><text x="368" y="33" style="stroke-width:0;stroke:none;fill:rgba(51,51,51,1.0);font-size:23.0px;font-family:'Roboto Medium',sans-serif">Innsbruck-Stadt 07.06.2021</text><path  d="M 38 11
L 251 11
L 251 91
L 38 91
L 38 11" style="stroke-width:1;stroke:rgba(51,51,51,1.0);fill:rgba(255,255,255,1.0)"/><text x="43" y="26" style="stroke-width:0;stroke:none;fill:rgba(51,51,51,1.0);font-size:10.2px;font-family:'Roboto Medium',sans-serif">Sieben Tage Durschnitt Inzidenz Fälle</text><path  d="M 221 21
L 241 21" style="stroke-width:1;stroke:rgba(0,116,217,1.0);fill:none"/><text x="43" y="56" style="stroke-width:0;stroke:none;fill:rgba(51,51,51,1.0);font-size:10.2px;font-family:'Roboto Medium',sans-serif">Anzahl Faelle</text><path  d="M 110 51
L 241 51" style="stroke-width:1;stroke:rgba(0,217,101,1.0);fill:none"/><text x="43" y="86" style="stroke-width:0;stroke:none;fill:rgba(51,51,51,1.0);font-size:10.2px;font-family:'Roboto Medium',sans-serif">Anzahl Tot</text><path  d="M 98 81
L 241 81" style="stroke-width:1;stroke:rgba(217,0,116,1.0);fill:none"/></svg>