<svg xmlns="http://www.w3.org/2000/svg" xmlns:xlink="http://www.w3.org/1999/xlink" width="1024" height="400">\n<path  d="M 0 0
L 1024 0
L 1024 400
L 0 400
L 0 0" style="stroke-width:0;stroke:rgba(255,255,255,1.0);fill:rgba(255,255,255,1.0)"/><path  d="M 38 11
L 969 11
L 969 351
L 38 351
L 38 11" style="stroke-width:0;stroke:rgba(255,255,255,1.0);fill:rgba(255,255,255,1.0)"/><path  d="M 38 351
L 969 351" style="stroke-width:1;stroke:rgba(51,51,51,1.0);fill:none"/><path  d="M 38 351
L 38 356" style="stroke-width:1;stroke:rgba(51,51,51,1.0);fill:none"/><text x="5" y="373" style="stroke-width:0;stroke:none;fill:rgba(51,51,51,1.0);font-size:12.8px;font-family:'Roboto Medium',sans-serif">2020-02-26</text><path  d="M 155 351
L 155 356" style="stroke-width:1;stroke:rgba(51,51,51,1.0);fill:none"/><text x="122" y="373" style="stroke-width:0;stroke:none;fill:rgba(51,51,51,1.0);font-size:12.8px;font-family:'Roboto Medium',sans-serif">2020-04-05</text><path  d="M 271 351
L 271 356" style="stroke-width:1;stroke:rgba(51,51,51,1.0);fill:none"/><text x="238" y="373" style="stroke-width:0;stroke:none;fill:rgba(51,51,51,1.0);font-size:12.8px;font-family:'Roboto Medium',sans-serif">2020-05-15</text><path  d="M 388 351
L 388 356" style="stroke-width:1;stroke:rgba(51,51,51,1.0);fill:none"/><text x="355" y="373" style="stroke-width:0;stroke:none;fill:rgba(51,51,51,1.0);font-size:12.8px;font-family:'Roboto Medium',sans-serif">2020-06-23</text><path  d="M 504 351
L 504 356" style="stroke-width:1;stroke:rgba(51,51,51,1.0);fill:none"/><text x="471" y="373" style="stroke-width:0;stroke:none;fill:rgba(51,51,51,1.0);font-size:12.8px;font-family:'Roboto Medium',sans-serif">2020-08-02</text><path  d="M 620 351
L 620 356" style="stroke-width:1;stroke:rgba(51,51,51,1.0);fill:none"/><text x="587" y="373" style="stroke-width:0;stroke:none;fill:rgba(51,51,51,1.0);font-size:12.8px;font-family:'Roboto Medium',sans-serif">2020-09-10</text><path  d="M 737 351
L 737 356" style="stroke-width:1;stroke:rgba(51,51,51,1.0);fill:none"/><text x="704" y="373" style="stroke-width:0;stroke:none;fill:rgba(51,51,51,1.0);font-size:12.8px;font-family:'Roboto Medium',sans-serif">2020-10-20</text><path  d="M 853 351
L 853 356" style="stroke-width:1;stroke:rgba(51,51,51,1.0);fill:none"/><text x="820" y="373" style="stroke-width:0;stroke:none;fill:rgba(51,51,51,1.0);font-size:12.8px;font-family:'Roboto Medium',sans-serif">2020-11-28</text><path  d="M 969 351
L 969 356" style="stroke-width:1;stroke:rgba(51,51,51,1.0);fill:none"/><text x="936" y="373" style="stroke-width:0;stroke:none;fill:rgba(51,51,51,1.0);font-size:12.8px;font-family:'Roboto Medium',sans-serif">2021-01-07</text><text x="485" y="395" style="stroke-width:0;stroke:none;fill:rgba(51,51,51,1.0);font-size:12.8px;font-family:'Roboto Medium',sans-serif">Datum</text><path  d="M 970 351
L 970 11" style="stroke-width:1;stroke:rgba(51,51,51,1.0);fill:none"/><path  d="M 970 351
L 975 351" style="stroke-width:1;stroke:rgba(51,51,51,1.0);fill:none"/><text x="980" y="357" style="stroke-width:0;stroke:none;fill:rgba(51,51,51,1.0);font-size:12.8px;font-family:'Roboto Medium',sans-serif">0.00</text><path  d="M 970 308
L 975 308" style="stroke-width:1;stroke:rgba(51,51,51,1.0);fill:none"/><text x="980" y="314" style="stroke-width:0;stroke:none;fill:rgba(51,51,51,1.0);font-size:12.8px;font-family:'Roboto Medium',sans-serif">80.00</text><path  d="M 970 266
L 975 266" style="stroke-width:1;stroke:rgba(51,51,51,1.0);fill:none"/><text x="980" y="272" style="stroke-width:0;stroke:none;fill:rgba(51,51,51,1.0);font-size:12.8px;font-family:'Roboto Medium',sans-serif">160.00</text><path  d="M 970 223
L 975 223" style="stroke-width:1;stroke:rgba(51,51,51,1.0);fill:none"/><text x="980" y="229" style="stroke-width:0;stroke:none;fill:rgba(51,51,51,1.0);font-size:12.8px;font-family:'Roboto Medium',sans-serif">240.00</text><path  d="M 970 181
L 975 181" style="stroke-width:1;stroke:rgba(51,51,51,1.0);fill:none"/><text x="980" y="187" style="stroke-width:0;stroke:none;fill:rgba(51,51,51,1.0);font-size:12.8px;font-family:'Roboto Medium',sans-serif">320.00</text><path  d="M 970 138
L 975 138" style="stroke-width:1;stroke:rgba(51,51,51,1.0);fill:none"/><text x="980" y="144" style="stroke-width:0;stroke:none;fill:rgba(51,51,51,1.0);font-size:12.8px;font-family:'Roboto Medium',sans-serif">400.00</text><path  d="M 970 96
L 975 96" style="stroke-width:1;stroke:rgba(51,51,51,1.0);fill:none"/><text x="980" y="102" style="stroke-width:0;stroke:none;fill:rgba(51,51,51,1.0);font-size:12.8px;font-family:'Roboto Medium',sans-serif">480.00</text><path  d="M 970 53
L 975 53" style="stroke-width:1;stroke:rgba(51,51,51,1.0);fill:none"/><text x="980" y="59" style="stroke-width:0;stroke:none;fill:rgba(51,51,51,1.0);font-size:12.8px;font-family:'Roboto Medium',sans-serif">560.00</text><path  d="M 970 11
L 975 11" style="stroke-width:1;stroke:rgba(51,51,51,1.0);fill:none"/><text x="980" y="17" style="stroke-width:0;stroke:none;fill:rgba(51,51,51,1.0);font-size:12.8px;font-family:'Roboto Medium',sans-serif">640.00</text><path  d="M 38 351
L 41 351
L 44 351
L 47 351
L 50 351
L 53 351
L 56 351
L 59 350
L 62 350
L 65 349
L 68 349
L 71 347
L 74 346
L 77 345
L 80 340
L 83 336
L 86 329
L 89 326
L 92 325
L 94 318
L 97 310
L 100 311
L 103 305
L 106 301
L 109 292
L 112 289
L 115 278
L 118 284
L 121 278
L 124 279
L 127 283
L 130 291
L 133 295
L 136 311
L 139 313
L 142 322
L 145 328
L 148 333
L 150 335
L 153 337
L 156 337
L 159 338
L 162 340
L 165 341
L 168 343
L 171 346
L 174 346
L 177 347
L 180 347
L 183 346
L 186 348
L 189 349
L 192 349
L 195 348
L 198 348
L 201 347
L 203 347
L 206 347
L 209 345
L 212 344
L 215 344
L 218 344
L 221 346
L 224 345
L 227 345
L 230 347
L 233 347
L 236 348
L 239 348
L 242 348
L 245 349
L 248 349
L 251 349
L 254 350
L 257 350
L 259 351
L 262 350
L 265 350
L 268 350
L 271 350
L 274 350
L 277 350
L 280 350
L 283 351
L 286 351
L 289 351
L 292 351
L 295 351
L 298 351
L 301 351
L 304 351
L 307 351
L 310 351
L 312 351
L 315 351
L 318 351
L 321 351
L 324 351
L 327 351
L 330 351
L 333 351
L 336 351
L 339 351
L 342 351
L 345 351
L 348 351
L 351 351
L 354 351
L 357 351
L 360 351
L 363 351
L 366 351
L 368 351
L 371 351
L 374 351
L 377 351
L 380 350
L 383 350
L 386 350
L 389 350
L 392 349
L 395 349
L 398 349
L 401 349
L 404 348
L 407 348
L 410 348
L 413 348
L 416 348
L 419 347
L 422 347
L 424 348
L 427 348
L 430 348
L 433 348
L 436 348
L 439 348
L 442 348
L 445 346
L 448 346
L 451 346
L 454 346
L 457 346
L 460 347
L 463 347
L 466 348
L 469 348
L 472 348
L 475 349
L 477 348
L 480 348
L 483 348
L 486 348
L 489 348
L 492 348
L 495 348
L 498 348
L 501 349
L 504 349
L 507 349
L 510 349
L 513 348
L 516 349
L 519 348
L 522 348
L 525 348
L 528 346
L 531 340
L 533 336
L 536 319
L 539 313
L 542 311
L 545 307
L 548 303
L 551 306
L 554 309
L 557 321
L 560 320
L 563 320
L 566 323
L 569 326
L 572 324
L 575 323
L 578 326
L 581 330
L 584 327
L 586 326
L 589 325
L 592 324
L 595 321
L 598 318
L 601 319
L 604 321
L 607 319
L 610 315
L 613 313
L 616 309
L 619 303
L 622 294
L 625 293
L 628 289
L 631 285
L 634 284
L 637 289
L 640 293
L 642 293
L 645 290
L 648 294
L 651 295
L 654 296
L 657 296
L 660 297
L 663 302
L 666 304
L 669 305
L 672 310
L 675 311
L 678 309
L 681 307
L 684 299
L 687 296
L 690 287
L 693 282
L 696 273
L 698 265
L 701 264
L 704 271
L 707 262
L 710 263
L 713 256
L 716 251
L 719 236
L 722 227
L 725 214
L 728 216
L 731 221
L 734 197
L 737 195
L 740 200
L 743 167
L 746 154
L 749 142
L 751 121
L 754 136
L 757 107
L 760 98
L 763 109
L 766 89
L 769 69
L 772 73
L 775 49
L 778 53
L 781 38
L 784 35
L 787 19
L 790 36
L 793 14
L 796 14
L 799 17
L 802 11
L 805 20
L 807 61
L 810 76
L 813 92
L 816 100
L 819 114
L 822 131
L 825 131
L 828 139
L 831 136
L 834 140
L 837 149
L 840 147
L 843 158
L 846 167
L 849 162
L 852 162
L 855 178
L 858 192
L 860 212
L 863 219
L 866 229
L 869 234
L 872 241
L 875 237
L 878 244
L 881 248
L 884 250
L 887 255
L 890 270
L 893 270
L 896 276
L 899 274
L 902 278
L 905 284
L 908 287
L 911 285
L 914 291
L 916 291
L 919 293
L 922 291
L 925 296
L 928 302
L 931 307
L 934 309
L 937 312
L 940 319
L 943 315
L 946 315
L 949 311
L 952 305
L 955 301
L 958 302
L 961 300
L 964 306
L 967 307
L 969 309" style="stroke-width:1;stroke:rgba(0,116,217,1.0);fill:none"/><path  d="M 38 351
L 41 351
L 44 351
L 47 351
L 50 351
L 53 351
L 56 351
L 59 349
L 62 351
L 65 349
L 68 351
L 71 348
L 74 349
L 77 349
L 80 343
L 83 345
L 86 340
L 89 347
L 92 346
L 94 341
L 97 338
L 100 345
L 103 337
L 106 335
L 109 335
L 112 341
L 115 328
L 118 346
L 121 337
L 124 338
L 127 340
L 130 345
L 133 347
L 136 349
L 139 349
L 142 348
L 145 347
L 148 346
L 150 347
L 153 349
L 156 349
L 159 351
L 162 351
L 165 348
L 168 349
L 171 351
L 174 350
L 177 351
L 180 350
L 183 350
L 186 351
L 189 351
L 192 351
L 195 349
L 198 350
L 201 348
L 203 350
L 206 351
L 209 348
L 212 349
L 215 349
L 218 349
L 221 351
L 224 349
L 227 350
L 230 351
L 233 349
L 236 351
L 239 350
L 242 351
L 245 351
L 248 351
L 251 351
L 254 351
L 257 351
L 259 351
L 262 350
L 265 351
L 268 351
L 271 351
L 274 351
L 277 351
L 280 351
L 283 351
L 286 351
L 289 351
L 292 351
L 295 351
L 298 351
L 301 351
L 304 351
L 307 351
L 310 351
L 312 351
L 315 351
L 318 351
L 321 351
L 324 351
L 327 351
L 330 351
L 333 351
L 336 351
L 339 351
L 342 351
L 345 351
L 348 351
L 351 351
L 354 351
L 357 351
L 360 351
L 363 351
L 366 351
L 368 351
L 371 351
L 374 351
L 377 351
L 380 350
L 383 351
L 386 351
L 389 350
L 392 350
L 395 351
L 398 351
L 401 350
L 404 349
L 407 350
L 410 351
L 413 349
L 416 351
L 419 349
L 422 351
L 424 351
L 427 350
L 430 350
L 433 350
L 436 350
L 439 349
L 442 351
L 445 349
L 448 349
L 451 350
L 454 349
L 457 351
L 460 351
L 463 351
L 466 350
L 469 349
L 472 351
L 475 350
L 477 350
L 480 350
L 483 351
L 486 349
L 489 350
L 492 351
L 495 350
L 498 351
L 501 351
L 504 351
L 507 349
L 510 350
L 513 350
L 516 351
L 519 350
L 522 351
L 525 350
L 528 347
L 531 342
L 533 344
L 536 329
L 539 341
L 542 348
L 545 344
L 548 341
L 551 346
L 554 348
L 557 345
L 560 339
L 563 349
L 566 348
L 569 345
L 572 344
L 575 347
L 578 348
L 581 345
L 584 346
L 586 346
L 589 344
L 592 343
L 595 343
L 598 345
L 601 346
L 604 348
L 607 344
L 610 339
L 613 340
L 616 337
L 619 337
L 622 334
L 625 346
L 628 339
L 631 334
L 634 339
L 637 344
L 640 341
L 642 334
L 645 343
L 648 345
L 651 335
L 654 340
L 657 344
L 660 343
L 663 340
L 666 346
L 669 346
L 672 340
L 675 341
L 678 343
L 681 340
L 684 330
L 687 341
L 690 335
L 693 334
L 696 329
L 698 332
L 701 338
L 704 339
L 707 329
L 710 336
L 713 325
L 716 323
L 719 311
L 722 327
L 725 322
L 728 332
L 731 343
L 734 294
L 737 321
L 740 317
L 743 284
L 746 304
L 749 317
L 751 314
L 754 314
L 757 283
L 760 305
L 763 297
L 766 278
L 769 291
L 772 319
L 775 283
L 778 288
L 781 286
L 784 293
L 787 256
L 790 314
L 793 289
L 796 283
L 799 292
L 802 278
L 805 305
L 807 310
L 810 334
L 813 311
L 816 294
L 819 310
L 822 301
L 825 305
L 828 321
L 831 329
L 834 317
L 837 305
L 840 307
L 843 316
L 846 317
L 849 314
L 852 329
L 855 338
L 858 324
L 860 334
L 863 325
L 866 330
L 869 320
L 872 338
L 875 333
L 878 333
L 881 339
L 884 328
L 887 336
L 890 339
L 893 338
L 896 342
L 899 330
L 902 344
L 905 336
L 908 341
L 911 337
L 914 346
L 916 341
L 919 334
L 922 341
L 925 342
L 928 349
L 931 344
L 934 349
L 937 345
L 940 343
L 943 336
L 946 342
L 949 344
L 952 335
L 955 344
L 958 346
L 961 340
L 964 344
L 967 343
L 969 347" style="stroke-width:1;stroke:rgba(0,217,101,1.0);fill:none"/><path  d="M 38 351
L 41 351
L 44 351
L 47 351
L 50 351
L 53 351
L 56 351
L 59 351
L 62 351
L 65 351
L 68 351
L 71 351
L 74 351
L 77 351
L 80 351
L 83 351
L 86 351
L 89 351
L 92 351
L 94 351
L 97 351
L 100 351
L 103 351
L 106 351
L 109 351
L 112 351
L 115 351
L 118 350
L 121 351
L 124 351
L 127 351
L 130 351
L 133 351
L 136 351
L 139 349
L 142 351
L 145 351
L 148 351
L 150 351
L 153 351
L 156 351
L 159 351
L 162 351
L 165 351
L 168 350
L 171 351
L 174 351
L 177 351
L 180 349
L 183 351
L 186 351
L 189 351
L 192 351
L 195 351
L 198 351
L 201 351
L 203 351
L 206 351
L 209 351
L 212 351
L 215 351
L 218 351
L 221 351
L 224 351
L 227 351
L 230 351
L 233 351
L 236 351
L 239 351
L 242 351
L 245 351
L 248 351
L 251 351
L 254 351
L 257 351
L 259 351
L 262 351
L 265 351
L 268 351
L 271 351
L 274 351
L 277 351
L 280 351
L 283 351
L 286 351
L 289 351
L 292 351
L 295 351
L 298 351
L 301 351
L 304 351
L 307 351
L 310 351
L 312 351
L 315 351
L 318 351
L 321 351
L 324 351
L 327 351
L 330 351
L 333 351
L 336 351
L 339 351
L 342 351
L 345 351
L 348 351
L 351 351
L 354 351
L 357 351
L 360 351
L 363 351
L 366 351
L 368 351
L 371 351
L 374 351
L 377 351
L 380 351
L 383 351
L 386 351
L 389 351
L 392 351
L 395 351
L 398 351
L 401 351
L 404 351
L 407 351
L 410 351
L 413 351
L 416 351
L 419 351
L 422 351
L 424 351
L 427 351
L 430 351
L 433 351
L 436 351
L 439 351
L 442 351
L 445 351
L 448 351
L 451 351
L 454 351
L 457 351
L 460 351
L 463 351
L 466 351
L 469 351
L 472 351
L 475 351
L 477 351
L 480 351
L 483 351
L 486 351
L 489 351
L 492 351
L 495 351
L 498 351
L 501 351
L 504 351
L 507 351
L 510 351
L 513 351
L 516 351
L 519 351
L 522 351
L 525 351
L 528 351
L 531 351
L 533 351
L 536 351
L 539 351
L 542 351
L 545 351
L 548 351
L 551 351
L 554 351
L 557 351
L 560 351
L 563 351
L 566 351
L 569 351
L 572 351
L 575 351
L 578 351
L 581 351
L 584 351
L 586 351
L 589 351
L 592 351
L 595 351
L 598 351
L 601 351
L 604 351
L 607 351
L 610 351
L 613 351
L 616 351
L 619 351
L 622 351
L 625 351
L 628 351
L 631 351
L 634 351
L 637 351
L 640 351
L 642 351
L 645 351
L 648 351
L 651 351
L 654 351
L 657 351
L 660 351
L 663 351
L 666 351
L 669 351
L 672 351
L 675 351
L 678 351
L 681 351
L 684 351
L 687 351
L 690 351
L 693 351
L 696 350
L 698 351
L 701 351
L 704 351
L 707 351
L 710 350
L 713 351
L 716 351
L 719 351
L 722 350
L 725 351
L 728 351
L 731 350
L 734 350
L 737 351
L 740 351
L 743 351
L 746 350
L 749 350
L 751 350
L 754 351
L 757 350
L 760 351
L 763 351
L 766 349
L 769 348
L 772 351
L 775 350
L 778 349
L 781 349
L 784 349
L 787 349
L 790 348
L 793 350
L 796 351
L 799 350
L 802 349
L 805 349
L 807 350
L 810 351
L 813 350
L 816 350
L 819 350
L 822 350
L 825 349
L 828 351
L 831 350
L 834 349
L 837 350
L 840 351
L 843 349
L 846 351
L 849 349
L 852 351
L 855 351
L 858 351
L 860 350
L 863 351
L 866 351
L 869 350
L 872 351
L 875 351
L 878 350
L 881 351
L 884 351
L 887 349
L 890 350
L 893 351
L 896 350
L 899 350
L 902 349
L 905 350
L 908 351
L 911 349
L 914 349
L 916 350
L 919 351
L 922 349
L 925 350
L 928 350
L 931 351
L 934 351
L 937 351
L 940 351
L 943 351
L 946 351
L 949 351
L 952 351
L 955 351
L 958 351
L 961 351
L 964 351
L 967 351
L 969 351" style="stroke-width:1;stroke:rgba(217,0,116,1.0);fill:none"/><text x="368" y="33" style="stroke-width:0;stroke:none;fill:rgba(51,51,51,1.0);font-size:23.0px;font-family:'Roboto Medium',sans-serif">Innsbruck-Stadt 07.01.2021</text><path  d="M 38 11
L 251 11
L 251 91
L 38 91
L 38 11" style="stroke-width:1;stroke:rgba(51,51,51,1.0);fill:rgba(255,255,255,1.0)"/><text x="43" y="26" style="stroke-width:0;stroke:none;fill:rgba(51,51,51,1.0);font-size:10.2px;font-family:'Roboto Medium',sans-serif">Sieben Tage Durschnitt Inzidenz Fälle</text><path  d="M 221 21
L 241 21" style="stroke-width:1;stroke:rgba(0,116,217,1.0);fill:none"/><text x="43" y="56" style="stroke-width:0;stroke:none;fill:rgba(51,51,51,1.0);font-size:10.2px;font-family:'Roboto Medium',sans-serif">Anzahl Faelle</text><path  d="M 110 51
L 241 51" style="stroke-width:1;stroke:rgba(0,217,101,1.0);fill:none"/><text x="43" y="86" style="stroke-width:0;stroke:none;fill:rgba(51,51,51,1.0);font-size:10.2px;font-family:'Roboto Medium',sans-serif">Anzahl Tot</text><path  d="M 98 81
L 241 81" style="stroke-width:1;stroke:rgba(217,0,116,1.0);fill:none"/></svg>