<svg xmlns="http://www.w3.org/2000/svg" xmlns:xlink="http://www.w3.org/1999/xlink" width="1024" height="400">\n<path  d="M 0 0
L 1024 0
L 1024 400
L 0 400
L 0 0" style="stroke-width:0;stroke:rgba(255,255,255,1.0);fill:rgba(255,255,255,1.0)"/><path  d="M 38 11
L 961 11
L 961 351
L 38 351
L 38 11" style="stroke-width:0;stroke:rgba(255,255,255,1.0);fill:rgba(255,255,255,1.0)"/><path  d="M 38 351
L 961 351" style="stroke-width:1;stroke:rgba(51,51,51,1.0);fill:none"/><path  d="M 38 351
L 38 356" style="stroke-width:1;stroke:rgba(51,51,51,1.0);fill:none"/><text x="5" y="373" style="stroke-width:0;stroke:none;fill:rgba(51,51,51,1.0);font-size:12.8px;font-family:'Roboto Medium',sans-serif">2020-02-26</text><path  d="M 154 351
L 154 356" style="stroke-width:1;stroke:rgba(51,51,51,1.0);fill:none"/><text x="121" y="373" style="stroke-width:0;stroke:none;fill:rgba(51,51,51,1.0);font-size:12.8px;font-family:'Roboto Medium',sans-serif">2020-07-11</text><path  d="M 269 351
L 269 356" style="stroke-width:1;stroke:rgba(51,51,51,1.0);fill:none"/><text x="236" y="373" style="stroke-width:0;stroke:none;fill:rgba(51,51,51,1.0);font-size:12.8px;font-family:'Roboto Medium',sans-serif">2020-11-24</text><path  d="M 385 351
L 385 356" style="stroke-width:1;stroke:rgba(51,51,51,1.0);fill:none"/><text x="352" y="373" style="stroke-width:0;stroke:none;fill:rgba(51,51,51,1.0);font-size:12.8px;font-family:'Roboto Medium',sans-serif">2021-04-09</text><path  d="M 500 351
L 500 356" style="stroke-width:1;stroke:rgba(51,51,51,1.0);fill:none"/><text x="467" y="373" style="stroke-width:0;stroke:none;fill:rgba(51,51,51,1.0);font-size:12.8px;font-family:'Roboto Medium',sans-serif">2021-08-24</text><path  d="M 615 351
L 615 356" style="stroke-width:1;stroke:rgba(51,51,51,1.0);fill:none"/><text x="582" y="373" style="stroke-width:0;stroke:none;fill:rgba(51,51,51,1.0);font-size:12.8px;font-family:'Roboto Medium',sans-serif">2022-01-07</text><path  d="M 731 351
L 731 356" style="stroke-width:1;stroke:rgba(51,51,51,1.0);fill:none"/><text x="698" y="373" style="stroke-width:0;stroke:none;fill:rgba(51,51,51,1.0);font-size:12.8px;font-family:'Roboto Medium',sans-serif">2022-05-23</text><path  d="M 846 351
L 846 356" style="stroke-width:1;stroke:rgba(51,51,51,1.0);fill:none"/><text x="813" y="373" style="stroke-width:0;stroke:none;fill:rgba(51,51,51,1.0);font-size:12.8px;font-family:'Roboto Medium',sans-serif">2022-10-06</text><path  d="M 961 351
L 961 356" style="stroke-width:1;stroke:rgba(51,51,51,1.0);fill:none"/><text x="928" y="373" style="stroke-width:0;stroke:none;fill:rgba(51,51,51,1.0);font-size:12.8px;font-family:'Roboto Medium',sans-serif">2023-02-20</text><text x="481" y="395" style="stroke-width:0;stroke:none;fill:rgba(51,51,51,1.0);font-size:12.8px;font-family:'Roboto Medium',sans-serif">Datum</text><path  d="M 962 351
L 962 11" style="stroke-width:1;stroke:rgba(51,51,51,1.0);fill:none"/><path  d="M 962 351
L 967 351" style="stroke-width:1;stroke:rgba(51,51,51,1.0);fill:none"/><text x="972" y="357" style="stroke-width:0;stroke:none;fill:rgba(51,51,51,1.0);font-size:12.8px;font-family:'Roboto Medium',sans-serif">0.00</text><path  d="M 962 308
L 967 308" style="stroke-width:1;stroke:rgba(51,51,51,1.0);fill:none"/><text x="972" y="314" style="stroke-width:0;stroke:none;fill:rgba(51,51,51,1.0);font-size:12.8px;font-family:'Roboto Medium',sans-serif">450.00</text><path  d="M 962 266
L 967 266" style="stroke-width:1;stroke:rgba(51,51,51,1.0);fill:none"/><text x="972" y="272" style="stroke-width:0;stroke:none;fill:rgba(51,51,51,1.0);font-size:12.8px;font-family:'Roboto Medium',sans-serif">900.00</text><path  d="M 962 223
L 967 223" style="stroke-width:1;stroke:rgba(51,51,51,1.0);fill:none"/><text x="972" y="229" style="stroke-width:0;stroke:none;fill:rgba(51,51,51,1.0);font-size:12.8px;font-family:'Roboto Medium',sans-serif">1350.00</text><path  d="M 962 181
L 967 181" style="stroke-width:1;stroke:rgba(51,51,51,1.0);fill:none"/><text x="972" y="187" style="stroke-width:0;stroke:none;fill:rgba(51,51,51,1.0);font-size:12.8px;font-family:'Roboto Medium',sans-serif">1800.00</text><path  d="M 962 138
L 967 138" style="stroke-width:1;stroke:rgba(51,51,51,1.0);fill:none"/><text x="972" y="144" style="stroke-width:0;stroke:none;fill:rgba(51,51,51,1.0);font-size:12.8px;font-family:'Roboto Medium',sans-serif">2250.00</text><path  d="M 962 96
L 967 96" style="stroke-width:1;stroke:rgba(51,51,51,1.0);fill:none"/><text x="972" y="102" style="stroke-width:0;stroke:none;fill:rgba(51,51,51,1.0);font-size:12.8px;font-family:'Roboto Medium',sans-serif">2700.00</text><path  d="M 962 53
L 967 53" style="stroke-width:1;stroke:rgba(51,51,51,1.0);fill:none"/><text x="972" y="59" style="stroke-width:0;stroke:none;fill:rgba(51,51,51,1.0);font-size:12.8px;font-family:'Roboto Medium',sans-serif">3150.00</text><path  d="M 962 11
L 967 11" style="stroke-width:1;stroke:rgba(51,51,51,1.0);fill:none"/><text x="972" y="17" style="stroke-width:0;stroke:none;fill:rgba(51,51,51,1.0);font-size:12.8px;font-family:'Roboto Medium',sans-serif">3600.00</text><path  d="M 38 351
L 39 351
L 40 351
L 41 351
L 42 351
L 43 351
L 44 351
L 44 351
L 45 351
L 46 350
L 47 350
L 48 350
L 49 350
L 50 350
L 50 350
L 51 349
L 52 349
L 53 349
L 54 349
L 55 349
L 55 349
L 56 349
L 57 350
L 58 350
L 59 350
L 60 350
L 61 349
L 61 349
L 62 347
L 63 345
L 64 344
L 65 343
L 66 343
L 66 343
L 67 344
L 68 345
L 69 346
L 70 347
L 71 347
L 72 347
L 72 348
L 73 347
L 74 348
L 75 348
L 76 349
L 77 349
L 77 349
L 78 350
L 79 350
L 80 350
L 81 350
L 82 350
L 83 350
L 83 350
L 84 350
L 85 350
L 86 350
L 87 350
L 88 350
L 88 350
L 89 350
L 90 350
L 91 350
L 92 350
L 93 350
L 94 350
L 94 350
L 95 350
L 96 351
L 97 350
L 98 350
L 99 350
L 99 350
L 100 350
L 101 350
L 102 350
L 103 351
L 104 351
L 105 351
L 105 351
L 106 351
L 107 351
L 108 351
L 109 350
L 110 350
L 110 350
L 111 350
L 112 350
L 113 350
L 114 350
L 115 351
L 116 351
L 116 350
L 117 350
L 118 350
L 119 350
L 120 350
L 121 350
L 121 350
L 122 350
L 123 350
L 124 350
L 125 350
L 126 350
L 127 350
L 127 350
L 128 350
L 129 350
L 130 350
L 131 350
L 132 351
L 132 351
L 133 351
L 134 351
L 135 350
L 136 350
L 137 350
L 138 350
L 138 350
L 139 350
L 140 350
L 141 351
L 142 351
L 143 351
L 144 351
L 144 351
L 145 351
L 146 351
L 147 351
L 148 350
L 149 350
L 149 350
L 150 350
L 151 350
L 152 350
L 153 350
L 154 350
L 155 350
L 155 350
L 156 350
L 157 350
L 158 350
L 159 350
L 160 350
L 160 350
L 161 350
L 162 350
L 163 350
L 164 350
L 165 350
L 166 350
L 166 350
L 167 350
L 168 350
L 169 350
L 170 350
L 171 350
L 171 350
L 172 350
L 173 350
L 174 350
L 175 350
L 176 350
L 177 350
L 177 350
L 178 350
L 179 350
L 180 350
L 181 350
L 182 350
L 182 350
L 183 349
L 184 349
L 185 349
L 186 349
L 187 349
L 188 349
L 188 349
L 189 349
L 190 349
L 191 349
L 192 349
L 193 348
L 193 348
L 194 348
L 195 347
L 196 347
L 197 347
L 198 347
L 199 346
L 199 346
L 200 346
L 201 347
L 202 347
L 203 347
L 204 347
L 204 347
L 205 347
L 206 346
L 207 346
L 208 346
L 209 344
L 210 344
L 210 344
L 211 344
L 212 344
L 213 344
L 214 344
L 215 346
L 215 346
L 216 346
L 217 347
L 218 347
L 219 346
L 220 346
L 221 346
L 221 346
L 222 345
L 223 344
L 224 343
L 225 343
L 226 341
L 226 341
L 227 340
L 228 339
L 229 340
L 230 340
L 231 339
L 232 339
L 232 338
L 233 336
L 234 336
L 235 331
L 236 329
L 237 329
L 237 330
L 238 329
L 239 328
L 240 327
L 241 328
L 242 325
L 243 322
L 243 319
L 244 318
L 245 315
L 246 311
L 247 309
L 248 306
L 249 304
L 249 304
L 250 298
L 251 295
L 252 293
L 253 291
L 254 288
L 254 287
L 255 283
L 256 282
L 257 283
L 258 281
L 259 283
L 260 289
L 260 292
L 261 292
L 262 294
L 263 294
L 264 296
L 265 294
L 265 293
L 266 290
L 267 294
L 268 296
L 269 298
L 270 301
L 271 304
L 271 307
L 272 311
L 273 313
L 274 316
L 275 320
L 276 322
L 276 326
L 277 326
L 278 324
L 279 324
L 280 326
L 281 327
L 282 328
L 282 329
L 283 331
L 284 333
L 285 334
L 286 334
L 287 334
L 287 334
L 288 335
L 289 335
L 290 336
L 291 335
L 292 336
L 293 336
L 293 336
L 294 336
L 295 337
L 296 338
L 297 338
L 298 337
L 298 338
L 299 338
L 300 337
L 301 336
L 302 336
L 303 336
L 304 337
L 304 338
L 305 338
L 306 338
L 307 339
L 308 340
L 309 341
L 309 341
L 310 341
L 311 342
L 312 343
L 313 344
L 314 343
L 315 343
L 315 343
L 316 344
L 317 343
L 318 343
L 319 343
L 320 343
L 320 343
L 321 343
L 322 343
L 323 344
L 324 344
L 325 344
L 326 345
L 326 344
L 327 344
L 328 343
L 329 343
L 330 343
L 331 343
L 331 343
L 332 344
L 333 344
L 334 345
L 335 346
L 336 346
L 337 346
L 337 346
L 338 347
L 339 347
L 340 347
L 341 347
L 342 347
L 342 346
L 343 346
L 344 346
L 345 345
L 346 344
L 347 345
L 348 345
L 348 345
L 349 346
L 350 346
L 351 346
L 352 345
L 353 345
L 354 345
L 354 344
L 355 344
L 356 344
L 357 343
L 358 343
L 359 343
L 359 341
L 360 342
L 361 340
L 362 338
L 363 338
L 364 337
L 365 336
L 365 335
L 366 333
L 367 333
L 368 334
L 369 333
L 370 333
L 370 332
L 371 332
L 372 331
L 373 330
L 374 330
L 375 328
L 376 327
L 376 327
L 377 327
L 378 327
L 379 328
L 380 327
L 381 329
L 381 329
L 382 330
L 383 331
L 384 333
L 385 334
L 386 335
L 387 335
L 387 334
L 388 333
L 389 333
L 390 333
L 391 332
L 392 331
L 392 330
L 393 331
L 394 332
L 395 331
L 396 332
L 397 331
L 398 332
L 398 333
L 399 333
L 400 333
L 401 333
L 402 334
L 403 335
L 403 335
L 404 335
L 405 336
L 406 337
L 407 338
L 408 338
L 409 338
L 409 340
L 410 341
L 411 342
L 412 343
L 413 343
L 414 343
L 414 344
L 415 344
L 416 343
L 417 343
L 418 342
L 419 342
L 420 342
L 420 342
L 421 342
L 422 344
L 423 344
L 424 345
L 425 345
L 425 345
L 426 345
L 427 345
L 428 344
L 429 345
L 430 346
L 431 345
L 431 346
L 432 346
L 433 346
L 434 345
L 435 345
L 436 346
L 436 346
L 437 346
L 438 346
L 439 347
L 440 348
L 441 348
L 442 349
L 442 349
L 443 349
L 444 349
L 445 349
L 446 349
L 447 349
L 447 349
L 448 349
L 449 349
L 450 349
L 451 350
L 452 350
L 453 350
L 453 350
L 454 350
L 455 350
L 456 350
L 457 350
L 458 350
L 459 350
L 459 350
L 460 350
L 461 350
L 462 349
L 463 350
L 464 349
L 464 349
L 465 350
L 466 349
L 467 349
L 468 349
L 469 349
L 470 349
L 470 349
L 471 349
L 472 349
L 473 348
L 474 348
L 475 348
L 475 348
L 476 348
L 477 347
L 478 347
L 479 348
L 480 348
L 481 348
L 481 347
L 482 347
L 483 348
L 484 348
L 485 348
L 486 347
L 486 347
L 487 348
L 488 348
L 489 347
L 490 346
L 491 346
L 492 346
L 492 346
L 493 346
L 494 346
L 495 346
L 496 346
L 497 345
L 497 345
L 498 344
L 499 344
L 500 344
L 501 342
L 502 342
L 503 342
L 503 342
L 504 342
L 505 341
L 506 341
L 507 342
L 508 342
L 508 342
L 509 343
L 510 343
L 511 343
L 512 342
L 513 343
L 514 342
L 514 342
L 515 342
L 516 343
L 517 342
L 518 342
L 519 342
L 519 342
L 520 342
L 521 342
L 522 342
L 523 342
L 524 343
L 525 342
L 525 341
L 526 341
L 527 341
L 528 341
L 529 341
L 530 340
L 530 340
L 531 341
L 532 341
L 533 341
L 534 341
L 535 342
L 536 341
L 536 342
L 537 342
L 538 341
L 539 341
L 540 341
L 541 341
L 541 343
L 542 342
L 543 342
L 544 342
L 545 342
L 546 340
L 547 338
L 547 336
L 548 335
L 549 335
L 550 332
L 551 330
L 552 330
L 553 330
L 553 329
L 554 329
L 555 326
L 556 325
L 557 322
L 558 321
L 558 321
L 559 316
L 560 312
L 561 311
L 562 309
L 563 309
L 564 306
L 564 302
L 565 298
L 566 297
L 567 294
L 568 289
L 569 285
L 569 280
L 570 274
L 571 269
L 572 259
L 573 254
L 574 248
L 575 245
L 575 245
L 576 236
L 577 233
L 578 230
L 579 227
L 580 228
L 580 230
L 581 231
L 582 240
L 583 246
L 584 259
L 585 267
L 586 274
L 586 281
L 587 284
L 588 290
L 589 298
L 590 303
L 591 307
L 591 311
L 592 312
L 593 316
L 594 320
L 595 323
L 596 322
L 597 323
L 597 324
L 598 325
L 599 325
L 600 325
L 601 326
L 602 328
L 602 328
L 603 329
L 604 329
L 605 329
L 606 328
L 607 327
L 608 326
L 608 322
L 609 319
L 610 315
L 611 315
L 612 309
L 613 305
L 613 299
L 614 298
L 615 296
L 616 288
L 617 280
L 618 275
L 619 271
L 619 265
L 620 250
L 621 237
L 622 229
L 623 220
L 624 207
L 624 182
L 625 165
L 626 146
L 627 129
L 628 115
L 629 106
L 630 85
L 630 71
L 631 56
L 632 56
L 633 54
L 634 47
L 635 47
L 635 43
L 636 53
L 637 57
L 638 53
L 639 51
L 640 56
L 641 56
L 641 69
L 642 67
L 643 71
L 644 83
L 645 95
L 646 109
L 646 115
L 647 114
L 648 122
L 649 127
L 650 125
L 651 123
L 652 117
L 652 115
L 653 109
L 654 108
L 655 109
L 656 111
L 657 110
L 658 110
L 658 111
L 659 105
L 660 94
L 661 79
L 662 71
L 663 59
L 663 54
L 664 48
L 665 42
L 666 40
L 667 33
L 668 25
L 669 22
L 669 19
L 670 19
L 671 22
L 672 22
L 673 32
L 674 43
L 674 50
L 675 62
L 676 70
L 677 75
L 678 88
L 679 107
L 680 118
L 680 135
L 681 142
L 682 152
L 683 175
L 684 197
L 685 201
L 685 211
L 686 222
L 687 231
L 688 235
L 689 244
L 690 246
L 691 255
L 691 263
L 692 268
L 693 271
L 694 273
L 695 280
L 696 288
L 696 293
L 697 295
L 698 299
L 699 300
L 700 300
L 701 307
L 702 307
L 702 307
L 703 310
L 704 310
L 705 312
L 706 312
L 707 309
L 707 312
L 708 314
L 709 315
L 710 316
L 711 315
L 712 316
L 713 317
L 713 316
L 714 317
L 715 317
L 716 317
L 717 318
L 718 317
L 718 316
L 719 317
L 720 315
L 721 316
L 722 316
L 723 315
L 724 316
L 724 318
L 725 319
L 726 322
L 727 324
L 728 327
L 729 330
L 729 332
L 730 334
L 731 336
L 732 338
L 733 340
L 734 339
L 735 339
L 735 339
L 736 338
L 737 337
L 738 334
L 739 332
L 740 331
L 740 330
L 741 329
L 742 330
L 743 327
L 744 327
L 745 327
L 746 326
L 746 325
L 747 324
L 748 320
L 749 319
L 750 317
L 751 316
L 751 312
L 752 311
L 753 308
L 754 302
L 755 302
L 756 300
L 757 295
L 757 295
L 758 292
L 759 294
L 760 292
L 761 289
L 762 287
L 763 286
L 763 284
L 764 283
L 765 281
L 766 280
L 767 278
L 768 277
L 768 276
L 769 274
L 770 272
L 771 271
L 772 269
L 773 266
L 774 264
L 774 260
L 775 260
L 776 259
L 777 257
L 778 258
L 779 261
L 779 262
L 780 266
L 781 269
L 782 271
L 783 275
L 784 279
L 785 283
L 785 289
L 786 294
L 787 296
L 788 299
L 789 302
L 790 306
L 790 309
L 791 310
L 792 311
L 793 312
L 794 314
L 795 313
L 796 313
L 796 313
L 797 313
L 798 312
L 799 313
L 800 315
L 801 316
L 801 321
L 802 319
L 803 320
L 804 321
L 805 320
L 806 319
L 807 318
L 807 316
L 808 318
L 809 319
L 810 318
L 811 319
L 812 320
L 812 320
L 813 320
L 814 321
L 815 322
L 816 324
L 817 325
L 818 326
L 818 326
L 819 326
L 820 326
L 821 326
L 822 326
L 823 324
L 823 323
L 824 322
L 825 320
L 826 317
L 827 315
L 828 313
L 829 311
L 829 310
L 830 309
L 831 305
L 832 302
L 833 297
L 834 291
L 834 288
L 835 284
L 836 280
L 837 269
L 838 263
L 839 257
L 840 251
L 840 248
L 841 244
L 842 244
L 843 239
L 844 235
L 845 232
L 845 229
L 846 228
L 847 228
L 848 225
L 849 226
L 850 226
L 851 230
L 851 232
L 852 233
L 853 237
L 854 240
L 855 249
L 856 255
L 856 262
L 857 270
L 858 276
L 859 281
L 860 285
L 861 293
L 862 302
L 862 309
L 863 311
L 864 314
L 865 316
L 866 317
L 867 321
L 868 325
L 868 322
L 869 324
L 870 324
L 871 323
L 872 324
L 873 324
L 873 321
L 874 323
L 875 325
L 876 325
L 877 327
L 878 326
L 879 325
L 879 325
L 880 324
L 881 324
L 882 325
L 883 324
L 884 324
L 884 323
L 885 323
L 886 324
L 887 323
L 888 322
L 889 322
L 890 322
L 890 323
L 891 322
L 892 320
L 893 319
L 894 319
L 895 319
L 895 318
L 896 318
L 897 318
L 898 318
L 899 321
L 900 319
L 901 319
L 901 319
L 902 321
L 903 322
L 904 323
L 905 321
L 906 324
L 906 325
L 907 325
L 908 327
L 909 326
L 910 327
L 911 327
L 912 327
L 912 327
L 913 328
L 914 330
L 915 329
L 916 329
L 917 330
L 917 331
L 918 331
L 919 331
L 920 329
L 921 333
L 922 333
L 923 335
L 923 336
L 924 335
L 925 334
L 926 333
L 927 334
L 928 335
L 928 335
L 929 335
L 930 335
L 931 336
L 932 338
L 933 338
L 934 337
L 934 338
L 935 337
L 936 337
L 937 337
L 938 335
L 939 334
L 939 332
L 940 330
L 941 329
L 942 327
L 943 327
L 944 325
L 945 325
L 945 325
L 946 323
L 947 323
L 948 324
L 949 324
L 950 323
L 950 322
L 951 320
L 952 320
L 953 320
L 954 319
L 955 319
L 956 319
L 956 319
L 957 318
L 958 318
L 959 316
L 960 316
L 961 315
L 961 314" style="stroke-width:1;stroke:rgba(0,116,217,1.0);fill:none"/><path  d="M 38 351
L 39 351
L 40 351
L 41 351
L 42 351
L 43 351
L 44 351
L 44 351
L 45 351
L 46 350
L 47 351
L 48 351
L 49 351
L 50 350
L 50 350
L 51 349
L 52 350
L 53 351
L 54 351
L 55 351
L 55 350
L 56 350
L 57 350
L 58 351
L 59 350
L 60 351
L 61 348
L 61 350
L 62 348
L 63 347
L 64 348
L 65 349
L 66 350
L 66 349
L 67 350
L 68 350
L 69 350
L 70 349
L 71 349
L 72 350
L 72 350
L 73 350
L 74 350
L 75 350
L 76 350
L 77 350
L 77 351
L 78 351
L 79 350
L 80 351
L 81 350
L 82 351
L 83 351
L 83 351
L 84 351
L 85 350
L 86 350
L 87 350
L 88 351
L 88 350
L 89 351
L 90 350
L 91 351
L 92 351
L 93 351
L 94 351
L 94 351
L 95 351
L 96 351
L 97 350
L 98 351
L 99 351
L 99 351
L 100 351
L 101 351
L 102 351
L 103 351
L 104 351
L 105 351
L 105 351
L 106 351
L 107 351
L 108 351
L 109 350
L 110 351
L 110 351
L 111 351
L 112 351
L 113 351
L 114 351
L 115 351
L 116 351
L 116 350
L 117 351
L 118 351
L 119 351
L 120 351
L 121 351
L 121 350
L 122 351
L 123 351
L 124 351
L 125 351
L 126 350
L 127 351
L 127 351
L 128 351
L 129 351
L 130 351
L 131 351
L 132 351
L 132 351
L 133 351
L 134 351
L 135 350
L 136 351
L 137 351
L 138 351
L 138 351
L 139 351
L 140 351
L 141 351
L 142 351
L 143 351
L 144 351
L 144 351
L 145 351
L 146 351
L 147 351
L 148 350
L 149 351
L 149 351
L 150 351
L 151 351
L 152 350
L 153 350
L 154 350
L 155 350
L 155 351
L 156 350
L 157 350
L 158 351
L 159 351
L 160 351
L 160 351
L 161 350
L 162 350
L 163 350
L 164 350
L 165 350
L 166 351
L 166 351
L 167 351
L 168 350
L 169 350
L 170 351
L 171 351
L 171 351
L 172 350
L 173 351
L 174 350
L 175 351
L 176 351
L 177 350
L 177 351
L 178 351
L 179 350
L 180 350
L 181 350
L 182 350
L 182 350
L 183 350
L 184 350
L 185 350
L 186 350
L 187 350
L 188 350
L 188 350
L 189 350
L 190 350
L 191 350
L 192 350
L 193 349
L 193 350
L 194 350
L 195 349
L 196 350
L 197 349
L 198 349
L 199 348
L 199 349
L 200 350
L 201 350
L 202 350
L 203 350
L 204 349
L 204 350
L 205 349
L 206 348
L 207 350
L 208 350
L 209 347
L 210 349
L 210 349
L 211 349
L 212 349
L 213 350
L 214 350
L 215 349
L 215 349
L 216 350
L 217 350
L 218 349
L 219 349
L 220 349
L 221 348
L 221 349
L 222 349
L 223 348
L 224 347
L 225 349
L 226 347
L 226 348
L 227 347
L 228 348
L 229 349
L 230 347
L 231 348
L 232 347
L 232 345
L 233 345
L 234 347
L 235 338
L 236 344
L 237 347
L 237 348
L 238 344
L 239 343
L 240 345
L 241 339
L 242 340
L 243 342
L 243 342
L 244 343
L 245 338
L 246 337
L 247 336
L 248 334
L 249 340
L 249 342
L 250 331
L 251 332
L 252 333
L 253 333
L 254 327
L 254 338
L 255 335
L 256 331
L 257 334
L 258 329
L 259 338
L 260 338
L 260 343
L 261 335
L 262 334
L 263 334
L 264 332
L 265 334
L 265 337
L 266 337
L 267 343
L 268 337
L 269 337
L 270 339
L 271 338
L 271 343
L 272 345
L 273 346
L 274 343
L 275 344
L 276 343
L 276 345
L 277 343
L 278 342
L 279 345
L 280 346
L 281 346
L 282 345
L 282 347
L 283 346
L 284 346
L 285 348
L 286 345
L 287 346
L 287 346
L 288 347
L 289 346
L 290 347
L 291 347
L 292 347
L 293 345
L 293 346
L 294 348
L 295 347
L 296 349
L 297 347
L 298 346
L 298 346
L 299 347
L 300 347
L 301 345
L 302 347
L 303 348
L 304 348
L 304 348
L 305 347
L 306 347
L 307 347
L 308 349
L 309 350
L 309 348
L 310 348
L 311 349
L 312 349
L 313 349
L 314 348
L 315 350
L 315 348
L 316 349
L 317 347
L 318 348
L 319 349
L 320 349
L 320 350
L 321 349
L 322 349
L 323 349
L 324 349
L 325 349
L 326 349
L 326 348
L 327 348
L 328 348
L 329 349
L 330 349
L 331 349
L 331 349
L 332 349
L 333 349
L 334 349
L 335 350
L 336 349
L 337 350
L 337 350
L 338 349
L 339 350
L 340 349
L 341 349
L 342 349
L 342 349
L 343 349
L 344 349
L 345 349
L 346 348
L 347 350
L 348 349
L 348 350
L 349 350
L 350 349
L 351 349
L 352 348
L 353 349
L 354 349
L 354 348
L 355 350
L 356 348
L 357 348
L 358 348
L 359 347
L 359 347
L 360 349
L 361 347
L 362 345
L 363 347
L 364 346
L 365 347
L 365 344
L 366 345
L 367 347
L 368 346
L 369 346
L 370 346
L 370 344
L 371 345
L 372 344
L 373 345
L 374 345
L 375 343
L 376 345
L 376 343
L 377 345
L 378 343
L 379 346
L 380 345
L 381 346
L 381 345
L 382 346
L 383 347
L 384 347
L 385 348
L 386 348
L 387 346
L 387 343
L 388 345
L 389 346
L 390 346
L 391 347
L 392 346
L 392 343
L 393 345
L 394 346
L 395 345
L 396 347
L 397 346
L 398 346
L 398 345
L 399 345
L 400 346
L 401 347
L 402 348
L 403 347
L 403 347
L 404 346
L 405 347
L 406 347
L 407 348
L 408 347
L 409 349
L 409 349
L 410 348
L 411 348
L 412 349
L 413 349
L 414 348
L 414 349
L 415 349
L 416 347
L 417 348
L 418 347
L 419 349
L 420 349
L 420 349
L 421 350
L 422 350
L 423 349
L 424 348
L 425 349
L 425 349
L 426 350
L 427 349
L 428 349
L 429 350
L 430 349
L 431 349
L 431 350
L 432 349
L 433 349
L 434 348
L 435 350
L 436 350
L 436 349
L 437 350
L 438 350
L 439 350
L 440 350
L 441 350
L 442 350
L 442 350
L 443 350
L 444 350
L 445 350
L 446 350
L 447 350
L 447 350
L 448 350
L 449 350
L 450 350
L 451 350
L 452 350
L 453 350
L 453 350
L 454 350
L 455 350
L 456 351
L 457 350
L 458 350
L 459 350
L 459 350
L 460 350
L 461 350
L 462 350
L 463 350
L 464 350
L 464 350
L 465 350
L 466 350
L 467 350
L 468 350
L 469 350
L 470 350
L 470 350
L 471 350
L 472 350
L 473 349
L 474 350
L 475 350
L 475 350
L 476 349
L 477 350
L 478 349
L 479 350
L 480 350
L 481 350
L 481 349
L 482 349
L 483 350
L 484 350
L 485 350
L 486 350
L 486 350
L 487 350
L 488 349
L 489 349
L 490 349
L 491 349
L 492 349
L 492 350
L 493 350
L 494 349
L 495 349
L 496 348
L 497 348
L 497 348
L 498 349
L 499 349
L 500 349
L 501 345
L 502 348
L 503 348
L 503 348
L 504 349
L 505 348
L 506 349
L 507 347
L 508 349
L 508 348
L 509 349
L 510 349
L 511 348
L 512 347
L 513 349
L 514 347
L 514 348
L 515 349
L 516 350
L 517 347
L 518 347
L 519 349
L 519 348
L 520 349
L 521 349
L 522 349
L 523 348
L 524 349
L 525 346
L 525 347
L 526 348
L 527 349
L 528 349
L 529 347
L 530 347
L 530 348
L 531 348
L 532 348
L 533 349
L 534 349
L 535 348
L 536 346
L 536 348
L 537 348
L 538 347
L 539 349
L 540 349
L 541 349
L 541 349
L 542 346
L 543 347
L 544 348
L 545 348
L 546 347
L 547 345
L 547 345
L 548 344
L 549 347
L 550 343
L 551 344
L 552 347
L 553 345
L 553 342
L 554 344
L 555 342
L 556 341
L 557 339
L 558 345
L 558 344
L 559 334
L 560 335
L 561 341
L 562 337
L 563 340
L 564 339
L 564 337
L 565 328
L 566 333
L 567 335
L 568 329
L 569 333
L 569 330
L 570 325
L 571 319
L 572 315
L 573 324
L 574 318
L 575 327
L 575 331
L 576 309
L 577 313
L 578 310
L 579 319
L 580 321
L 580 330
L 581 332
L 582 327
L 583 323
L 584 333
L 585 335
L 586 334
L 586 342
L 587 338
L 588 337
L 589 338
L 590 343
L 591 341
L 591 342
L 592 345
L 593 345
L 594 344
L 595 342
L 596 341
L 597 345
L 597 343
L 598 346
L 599 345
L 600 345
L 601 344
L 602 344
L 602 345
L 603 345
L 604 347
L 605 345
L 606 343
L 607 342
L 608 341
L 608 337
L 609 340
L 610 340
L 611 345
L 612 332
L 613 335
L 613 330
L 614 336
L 615 336
L 616 326
L 617 330
L 618 322
L 619 327
L 619 318
L 620 309
L 621 311
L 622 312
L 623 315
L 624 298
L 624 281
L 625 287
L 626 275
L 627 278
L 628 287
L 629 298
L 630 259
L 630 255
L 631 261
L 632 273
L 633 275
L 634 274
L 635 298
L 635 251
L 636 273
L 637 268
L 638 266
L 639 272
L 640 284
L 641 298
L 641 276
L 642 269
L 643 276
L 644 288
L 645 293
L 646 310
L 646 309
L 647 275
L 648 282
L 649 287
L 650 284
L 651 290
L 652 297
L 652 306
L 653 263
L 654 280
L 655 289
L 656 289
L 657 287
L 658 297
L 658 308
L 659 253
L 660 259
L 661 262
L 662 274
L 663 265
L 663 288
L 664 297
L 665 241
L 666 255
L 667 248
L 668 260
L 669 259
L 669 283
L 670 297
L 671 248
L 672 254
L 673 267
L 674 282
L 674 272
L 675 303
L 676 313
L 677 258
L 678 277
L 679 301
L 680 303
L 680 302
L 681 317
L 682 330
L 683 301
L 684 316
L 685 310
L 685 320
L 686 323
L 687 334
L 688 338
L 689 318
L 690 319
L 691 327
L 691 333
L 692 332
L 693 340
L 694 343
L 695 330
L 696 335
L 696 335
L 697 337
L 698 339
L 699 340
L 700 344
L 701 343
L 702 335
L 702 335
L 703 341
L 704 340
L 705 345
L 706 344
L 707 337
L 707 341
L 708 340
L 709 342
L 710 342
L 711 342
L 712 346
L 713 340
L 713 339
L 714 341
L 715 340
L 716 343
L 717 344
L 718 345
L 718 338
L 719 342
L 720 337
L 721 342
L 722 343
L 723 342
L 724 346
L 724 341
L 725 344
L 726 342
L 727 346
L 728 348
L 729 348
L 729 349
L 730 346
L 731 347
L 732 347
L 733 349
L 734 347
L 735 348
L 735 347
L 736 345
L 737 344
L 738 342
L 739 345
L 740 345
L 740 346
L 741 347
L 742 346
L 743 339
L 744 343
L 745 344
L 746 345
L 746 344
L 747 345
L 748 338
L 749 337
L 750 339
L 751 343
L 751 338
L 752 341
L 753 340
L 754 328
L 755 335
L 756 335
L 757 335
L 757 337
L 758 337
L 759 342
L 760 326
L 761 329
L 762 332
L 763 332
L 763 333
L 764 337
L 765 337
L 766 325
L 767 326
L 768 328
L 768 331
L 769 329
L 770 334
L 771 336
L 772 319
L 773 321
L 774 325
L 774 323
L 775 329
L 776 331
L 777 334
L 778 320
L 779 327
L 779 328
L 780 331
L 781 334
L 782 336
L 783 340
L 784 329
L 785 333
L 785 339
L 786 340
L 787 339
L 788 340
L 789 346
L 790 335
L 790 339
L 791 340
L 792 342
L 793 341
L 794 343
L 795 345
L 796 335
L 796 339
L 797 340
L 798 341
L 799 343
L 800 346
L 801 347
L 801 344
L 802 336
L 803 341
L 804 342
L 805 341
L 806 344
L 807 346
L 807 340
L 808 340
L 809 342
L 810 341
L 811 342
L 812 345
L 812 348
L 813 339
L 814 343
L 815 344
L 816 344
L 817 345
L 818 347
L 818 346
L 819 341
L 820 342
L 821 343
L 822 345
L 823 341
L 823 344
L 824 345
L 825 337
L 826 337
L 827 339
L 828 341
L 829 337
L 829 342
L 830 343
L 831 330
L 832 330
L 833 330
L 834 331
L 834 332
L 835 334
L 836 336
L 837 311
L 838 320
L 839 318
L 840 321
L 840 326
L 841 326
L 842 336
L 843 302
L 844 312
L 845 313
L 845 316
L 846 324
L 847 325
L 848 331
L 849 304
L 850 312
L 851 319
L 851 320
L 852 325
L 853 333
L 854 337
L 855 320
L 856 323
L 856 332
L 857 335
L 858 337
L 859 341
L 860 346
L 861 334
L 862 339
L 862 345
L 863 338
L 864 343
L 865 345
L 866 346
L 867 342
L 868 346
L 868 340
L 869 342
L 870 343
L 871 344
L 872 347
L 873 342
L 873 342
L 874 344
L 875 344
L 876 344
L 877 347
L 878 346
L 879 339
L 879 342
L 880 343
L 881 345
L 882 345
L 883 345
L 884 347
L 884 338
L 885 342
L 886 345
L 887 342
L 888 343
L 889 345
L 890 347
L 890 339
L 891 340
L 892 341
L 893 341
L 894 343
L 895 345
L 895 346
L 896 338
L 897 340
L 898 340
L 899 348
L 900 339
L 901 345
L 901 346
L 902 340
L 903 343
L 904 342
L 905 344
L 906 344
L 906 347
L 907 347
L 908 343
L 909 341
L 910 344
L 911 344
L 912 344
L 912 347
L 913 349
L 914 347
L 915 339
L 916 344
L 917 345
L 917 345
L 918 348
L 919 349
L 920 344
L 921 345
L 922 345
L 923 347
L 923 347
L 924 347
L 925 347
L 926 342
L 927 347
L 928 347
L 928 347
L 929 348
L 930 348
L 931 349
L 932 345
L 933 346
L 934 346
L 934 348
L 935 347
L 936 349
L 937 348
L 938 342
L 939 343
L 939 343
L 940 344
L 941 345
L 942 345
L 943 347
L 944 340
L 945 342
L 945 344
L 946 341
L 947 344
L 948 347
L 949 346
L 950 338
L 950 340
L 951 342
L 952 341
L 953 343
L 954 346
L 955 346
L 956 337
L 956 340
L 957 339
L 958 341
L 959 340
L 960 345
L 961 345
L 961 335" style="stroke-width:1;stroke:rgba(0,217,101,1.0);fill:none"/><path  d="M 38 351
L 39 351
L 40 351
L 41 351
L 42 351
L 43 351
L 44 351
L 44 351
L 45 351
L 46 351
L 47 351
L 48 351
L 49 351
L 50 351
L 50 351
L 51 351
L 52 351
L 53 351
L 54 351
L 55 351
L 55 351
L 56 351
L 57 351
L 58 351
L 59 351
L 60 351
L 61 351
L 61 350
L 62 351
L 63 350
L 64 351
L 65 350
L 66 351
L 66 350
L 67 350
L 68 351
L 69 350
L 70 350
L 71 351
L 72 350
L 72 351
L 73 350
L 74 351
L 75 351
L 76 351
L 77 351
L 77 351
L 78 351
L 79 351
L 80 351
L 81 351
L 82 351
L 83 351
L 83 351
L 84 350
L 85 351
L 86 350
L 87 351
L 88 351
L 88 351
L 89 351
L 90 351
L 91 351
L 92 351
L 93 351
L 94 351
L 94 351
L 95 351
L 96 351
L 97 351
L 98 351
L 99 351
L 99 351
L 100 351
L 101 351
L 102 351
L 103 351
L 104 351
L 105 351
L 105 351
L 106 351
L 107 351
L 108 351
L 109 351
L 110 351
L 110 351
L 111 351
L 112 351
L 113 351
L 114 351
L 115 351
L 116 351
L 116 351
L 117 351
L 118 351
L 119 351
L 120 351
L 121 351
L 121 351
L 122 351
L 123 351
L 124 351
L 125 351
L 126 351
L 127 351
L 127 351
L 128 351
L 129 351
L 130 351
L 131 351
L 132 351
L 132 351
L 133 351
L 134 351
L 135 351
L 136 351
L 137 351
L 138 351
L 138 351
L 139 351
L 140 351
L 141 351
L 142 351
L 143 351
L 144 351
L 144 351
L 145 351
L 146 351
L 147 351
L 148 351
L 149 351
L 149 351
L 150 351
L 151 351
L 152 351
L 153 351
L 154 351
L 155 351
L 155 351
L 156 351
L 157 351
L 158 351
L 159 351
L 160 351
L 160 351
L 161 351
L 162 351
L 163 351
L 164 351
L 165 351
L 166 351
L 166 351
L 167 351
L 168 351
L 169 351
L 170 351
L 171 351
L 171 351
L 172 351
L 173 351
L 174 351
L 175 351
L 176 351
L 177 351
L 177 351
L 178 351
L 179 351
L 180 351
L 181 351
L 182 351
L 182 351
L 183 351
L 184 351
L 185 351
L 186 351
L 187 351
L 188 351
L 188 351
L 189 351
L 190 351
L 191 351
L 192 351
L 193 351
L 193 351
L 194 351
L 195 351
L 196 351
L 197 351
L 198 351
L 199 351
L 199 351
L 200 351
L 201 351
L 202 351
L 203 351
L 204 351
L 204 351
L 205 351
L 206 351
L 207 350
L 208 351
L 209 351
L 210 351
L 210 351
L 211 351
L 212 351
L 213 351
L 214 351
L 215 351
L 215 351
L 216 351
L 217 351
L 218 351
L 219 351
L 220 351
L 221 351
L 221 351
L 222 351
L 223 351
L 224 351
L 225 351
L 226 351
L 226 351
L 227 350
L 228 351
L 229 351
L 230 351
L 231 351
L 232 351
L 232 351
L 233 351
L 234 351
L 235 351
L 236 351
L 237 351
L 237 351
L 238 351
L 239 351
L 240 351
L 241 351
L 242 351
L 243 351
L 243 351
L 244 351
L 245 350
L 246 350
L 247 351
L 248 351
L 249 351
L 249 350
L 250 350
L 251 350
L 252 351
L 253 350
L 254 350
L 254 350
L 255 350
L 256 350
L 257 350
L 258 350
L 259 350
L 260 350
L 260 350
L 261 350
L 262 350
L 263 350
L 264 350
L 265 350
L 265 350
L 266 350
L 267 350
L 268 350
L 269 350
L 270 350
L 271 350
L 271 350
L 272 350
L 273 350
L 274 350
L 275 350
L 276 350
L 276 350
L 277 350
L 278 351
L 279 350
L 280 350
L 281 350
L 282 350
L 282 350
L 283 350
L 284 350
L 285 350
L 286 350
L 287 350
L 287 351
L 288 350
L 289 351
L 290 350
L 291 350
L 292 350
L 293 350
L 293 350
L 294 350
L 295 350
L 296 351
L 297 350
L 298 350
L 298 351
L 299 350
L 300 350
L 301 350
L 302 350
L 303 351
L 304 350
L 304 350
L 305 351
L 306 351
L 307 350
L 308 350
L 309 350
L 309 351
L 310 350
L 311 351
L 312 350
L 313 351
L 314 350
L 315 351
L 315 350
L 316 350
L 317 350
L 318 351
L 319 350
L 320 351
L 320 351
L 321 351
L 322 351
L 323 350
L 324 351
L 325 351
L 326 351
L 326 350
L 327 351
L 328 351
L 329 351
L 330 351
L 331 351
L 331 351
L 332 351
L 333 351
L 334 350
L 335 351
L 336 351
L 337 351
L 337 351
L 338 350
L 339 351
L 340 350
L 341 350
L 342 350
L 342 351
L 343 351
L 344 351
L 345 350
L 346 351
L 347 351
L 348 351
L 348 351
L 349 351
L 350 351
L 351 351
L 352 350
L 353 351
L 354 350
L 354 350
L 355 351
L 356 350
L 357 351
L 358 351
L 359 351
L 359 350
L 360 351
L 361 351
L 362 351
L 363 351
L 364 351
L 365 351
L 365 351
L 366 351
L 367 351
L 368 351
L 369 351
L 370 351
L 370 351
L 371 351
L 372 351
L 373 351
L 374 351
L 375 350
L 376 350
L 376 351
L 377 351
L 378 351
L 379 351
L 380 351
L 381 351
L 381 351
L 382 350
L 383 351
L 384 351
L 385 351
L 386 351
L 387 351
L 387 351
L 388 351
L 389 351
L 390 351
L 391 351
L 392 351
L 392 351
L 393 351
L 394 351
L 395 351
L 396 351
L 397 351
L 398 351
L 398 351
L 399 351
L 400 351
L 401 351
L 402 351
L 403 351
L 403 351
L 404 351
L 405 351
L 406 351
L 407 351
L 408 351
L 409 351
L 409 351
L 410 351
L 411 350
L 412 351
L 413 351
L 414 351
L 414 350
L 415 351
L 416 351
L 417 351
L 418 351
L 419 351
L 420 351
L 420 351
L 421 351
L 422 351
L 423 351
L 424 351
L 425 351
L 425 351
L 426 350
L 427 351
L 428 351
L 429 350
L 430 351
L 431 351
L 431 351
L 432 351
L 433 351
L 434 351
L 435 351
L 436 351
L 436 351
L 437 351
L 438 351
L 439 351
L 440 351
L 441 351
L 442 351
L 442 351
L 443 351
L 444 350
L 445 351
L 446 351
L 447 351
L 447 351
L 448 351
L 449 351
L 450 351
L 451 351
L 452 351
L 453 351
L 453 351
L 454 351
L 455 351
L 456 351
L 457 351
L 458 351
L 459 351
L 459 351
L 460 351
L 461 351
L 462 351
L 463 351
L 464 351
L 464 351
L 465 351
L 466 351
L 467 351
L 468 351
L 469 351
L 470 351
L 470 351
L 471 351
L 472 351
L 473 351
L 474 351
L 475 351
L 475 351
L 476 351
L 477 351
L 478 350
L 479 351
L 480 351
L 481 351
L 481 351
L 482 351
L 483 351
L 484 351
L 485 351
L 486 351
L 486 350
L 487 351
L 488 351
L 489 351
L 490 351
L 491 351
L 492 351
L 492 351
L 493 351
L 494 351
L 495 351
L 496 351
L 497 350
L 497 351
L 498 351
L 499 351
L 500 351
L 501 351
L 502 351
L 503 351
L 503 351
L 504 351
L 505 351
L 506 351
L 507 351
L 508 351
L 508 351
L 509 351
L 510 351
L 511 351
L 512 351
L 513 351
L 514 351
L 514 351
L 515 351
L 516 351
L 517 351
L 518 351
L 519 351
L 519 351
L 520 350
L 521 351
L 522 351
L 523 351
L 524 351
L 525 351
L 525 350
L 526 351
L 527 351
L 528 351
L 529 351
L 530 351
L 530 351
L 531 351
L 532 351
L 533 351
L 534 351
L 535 351
L 536 351
L 536 351
L 537 351
L 538 351
L 539 351
L 540 351
L 541 351
L 541 351
L 542 351
L 543 350
L 544 351
L 545 351
L 546 351
L 547 351
L 547 351
L 548 351
L 549 351
L 550 350
L 551 351
L 552 351
L 553 350
L 553 350
L 554 351
L 555 351
L 556 351
L 557 351
L 558 351
L 558 351
L 559 351
L 560 350
L 561 350
L 562 351
L 563 350
L 564 351
L 564 351
L 565 351
L 566 351
L 567 350
L 568 351
L 569 351
L 569 351
L 570 351
L 571 350
L 572 351
L 573 350
L 574 351
L 575 350
L 575 351
L 576 350
L 577 351
L 578 350
L 579 350
L 580 350
L 580 350
L 581 350
L 582 350
L 583 351
L 584 350
L 585 351
L 586 351
L 586 350
L 587 350
L 588 350
L 589 350
L 590 351
L 591 350
L 591 350
L 592 351
L 593 351
L 594 351
L 595 351
L 596 350
L 597 351
L 597 351
L 598 350
L 599 351
L 600 351
L 601 350
L 602 351
L 602 351
L 603 350
L 604 351
L 605 351
L 606 350
L 607 351
L 608 350
L 608 350
L 609 351
L 610 351
L 611 351
L 612 350
L 613 350
L 613 351
L 614 351
L 615 351
L 616 351
L 617 351
L 618 351
L 619 351
L 619 351
L 620 350
L 621 351
L 622 351
L 623 351
L 624 351
L 624 351
L 625 350
L 626 351
L 627 350
L 628 351
L 629 351
L 630 351
L 630 351
L 631 351
L 632 351
L 633 351
L 634 351
L 635 350
L 635 351
L 636 351
L 637 351
L 638 351
L 639 350
L 640 351
L 641 351
L 641 351
L 642 351
L 643 351
L 644 351
L 645 351
L 646 351
L 646 351
L 647 351
L 648 351
L 649 351
L 650 351
L 651 351
L 652 350
L 652 350
L 653 350
L 654 350
L 655 351
L 656 351
L 657 351
L 658 351
L 658 351
L 659 351
L 660 351
L 661 351
L 662 350
L 663 351
L 663 351
L 664 351
L 665 351
L 666 351
L 667 351
L 668 351
L 669 351
L 669 351
L 670 351
L 671 351
L 672 350
L 673 351
L 674 351
L 674 351
L 675 351
L 676 351
L 677 351
L 678 350
L 679 351
L 680 351
L 680 351
L 681 351
L 682 351
L 683 351
L 684 351
L 685 351
L 685 351
L 686 351
L 687 351
L 688 350
L 689 351
L 690 351
L 691 351
L 691 351
L 692 351
L 693 351
L 694 351
L 695 351
L 696 350
L 696 351
L 697 351
L 698 351
L 699 351
L 700 351
L 701 351
L 702 351
L 702 351
L 703 351
L 704 350
L 705 350
L 706 351
L 707 351
L 707 351
L 708 351
L 709 351
L 710 351
L 711 351
L 712 351
L 713 351
L 713 351
L 714 351
L 715 351
L 716 351
L 717 351
L 718 351
L 718 351
L 719 351
L 720 351
L 721 351
L 722 351
L 723 351
L 724 351
L 724 351
L 725 351
L 726 351
L 727 351
L 728 351
L 729 351
L 729 351
L 730 351
L 731 351
L 732 351
L 733 351
L 734 351
L 735 351
L 735 351
L 736 350
L 737 351
L 738 351
L 739 351
L 740 351
L 740 351
L 741 351
L 742 351
L 743 351
L 744 351
L 745 351
L 746 351
L 746 351
L 747 351
L 748 351
L 749 351
L 750 351
L 751 351
L 751 351
L 752 351
L 753 351
L 754 350
L 755 351
L 756 351
L 757 351
L 757 351
L 758 351
L 759 350
L 760 351
L 761 350
L 762 351
L 763 351
L 763 351
L 764 351
L 765 351
L 766 351
L 767 351
L 768 351
L 768 351
L 769 351
L 770 351
L 771 351
L 772 351
L 773 351
L 774 351
L 774 351
L 775 351
L 776 351
L 777 351
L 778 351
L 779 351
L 779 351
L 780 351
L 781 350
L 782 351
L 783 351
L 784 351
L 785 351
L 785 351
L 786 351
L 787 351
L 788 351
L 789 351
L 790 351
L 790 351
L 791 350
L 792 351
L 793 351
L 794 351
L 795 351
L 796 351
L 796 350
L 797 351
L 798 351
L 799 351
L 800 350
L 801 350
L 801 351
L 802 351
L 803 351
L 804 351
L 805 350
L 806 351
L 807 351
L 807 351
L 808 351
L 809 351
L 810 351
L 811 351
L 812 351
L 812 350
L 813 351
L 814 351
L 815 351
L 816 351
L 817 351
L 818 351
L 818 351
L 819 351
L 820 351
L 821 351
L 822 351
L 823 351
L 823 351
L 824 350
L 825 351
L 826 351
L 827 351
L 828 350
L 829 351
L 829 351
L 830 351
L 831 351
L 832 351
L 833 351
L 834 351
L 834 351
L 835 351
L 836 351
L 837 351
L 838 351
L 839 351
L 840 351
L 840 351
L 841 351
L 842 351
L 843 351
L 844 351
L 845 350
L 845 351
L 846 351
L 847 351
L 848 351
L 849 351
L 850 351
L 851 351
L 851 351
L 852 351
L 853 351
L 854 350
L 855 351
L 856 351
L 856 350
L 857 351
L 858 350
L 859 351
L 860 351
L 861 350
L 862 351
L 862 351
L 863 351
L 864 351
L 865 351
L 866 351
L 867 351
L 868 351
L 868 351
L 869 351
L 870 351
L 871 351
L 872 351
L 873 351
L 873 351
L 874 351
L 875 351
L 876 351
L 877 351
L 878 351
L 879 351
L 879 351
L 880 350
L 881 351
L 882 351
L 883 351
L 884 351
L 884 351
L 885 351
L 886 351
L 887 351
L 888 351
L 889 351
L 890 351
L 890 351
L 891 351
L 892 351
L 893 351
L 894 351
L 895 351
L 895 351
L 896 351
L 897 351
L 898 351
L 899 351
L 900 351
L 901 351
L 901 351
L 902 351
L 903 351
L 904 351
L 905 351
L 906 351
L 906 351
L 907 351
L 908 351
L 909 351
L 910 351
L 911 351
L 912 351
L 912 351
L 913 351
L 914 350
L 915 351
L 916 350
L 917 351
L 917 351
L 918 351
L 919 351
L 920 350
L 921 351
L 922 350
L 923 350
L 923 351
L 924 351
L 925 351
L 926 351
L 927 350
L 928 351
L 928 351
L 929 350
L 930 351
L 931 351
L 932 351
L 933 351
L 934 351
L 934 351
L 935 351
L 936 351
L 937 351
L 938 351
L 939 351
L 939 351
L 940 351
L 941 351
L 942 351
L 943 351
L 944 351
L 945 351
L 945 351
L 946 351
L 947 351
L 948 351
L 949 351
L 950 351
L 950 351
L 951 351
L 952 351
L 953 351
L 954 351
L 955 351
L 956 351
L 956 351
L 957 351
L 958 351
L 959 351
L 960 351
L 961 351
L 961 351" style="stroke-width:1;stroke:rgba(217,0,116,1.0);fill:none"/><text x="370" y="33" style="stroke-width:0;stroke:none;fill:rgba(51,51,51,1.0);font-size:23.0px;font-family:'Roboto Medium',sans-serif">Innsbruck-Land 20.02.2023</text><path  d="M 38 11
L 251 11
L 251 91
L 38 91
L 38 11" style="stroke-width:1;stroke:rgba(51,51,51,1.0);fill:rgba(255,255,255,1.0)"/><text x="43" y="26" style="stroke-width:0;stroke:none;fill:rgba(51,51,51,1.0);font-size:10.2px;font-family:'Roboto Medium',sans-serif">Sieben Tage Durschnitt Inzidenz Fälle</text><path  d="M 221 21
L 241 21" style="stroke-width:1;stroke:rgba(0,116,217,1.0);fill:none"/><text x="43" y="56" style="stroke-width:0;stroke:none;fill:rgba(51,51,51,1.0);font-size:10.2px;font-family:'Roboto Medium',sans-serif">Anzahl Faelle</text><path  d="M 110 51
L 241 51" style="stroke-width:1;stroke:rgba(0,217,101,1.0);fill:none"/><text x="43" y="86" style="stroke-width:0;stroke:none;fill:rgba(51,51,51,1.0);font-size:10.2px;font-family:'Roboto Medium',sans-serif">Anzahl Tot</text><path  d="M 98 81
L 241 81" style="stroke-width:1;stroke:rgba(217,0,116,1.0);fill:none"/></svg>