<svg xmlns="http://www.w3.org/2000/svg" xmlns:xlink="http://www.w3.org/1999/xlink" width="1024" height="400">\n<path  d="M 0 0
L 1024 0
L 1024 400
L 0 400
L 0 0" style="stroke-width:0;stroke:rgba(255,255,255,1.0);fill:rgba(255,255,255,1.0)"/><path  d="M 38 11
L 961 11
L 961 351
L 38 351
L 38 11" style="stroke-width:0;stroke:rgba(255,255,255,1.0);fill:rgba(255,255,255,1.0)"/><path  d="M 38 351
L 961 351" style="stroke-width:1;stroke:rgba(51,51,51,1.0);fill:none"/><path  d="M 38 351
L 38 356" style="stroke-width:1;stroke:rgba(51,51,51,1.0);fill:none"/><text x="5" y="373" style="stroke-width:0;stroke:none;fill:rgba(51,51,51,1.0);font-size:12.8px;font-family:'Roboto Medium',sans-serif">2020-02-26</text><path  d="M 154 351
L 154 356" style="stroke-width:1;stroke:rgba(51,51,51,1.0);fill:none"/><text x="121" y="373" style="stroke-width:0;stroke:none;fill:rgba(51,51,51,1.0);font-size:12.8px;font-family:'Roboto Medium',sans-serif">2020-05-27</text><path  d="M 269 351
L 269 356" style="stroke-width:1;stroke:rgba(51,51,51,1.0);fill:none"/><text x="236" y="373" style="stroke-width:0;stroke:none;fill:rgba(51,51,51,1.0);font-size:12.8px;font-family:'Roboto Medium',sans-serif">2020-08-27</text><path  d="M 385 351
L 385 356" style="stroke-width:1;stroke:rgba(51,51,51,1.0);fill:none"/><text x="352" y="373" style="stroke-width:0;stroke:none;fill:rgba(51,51,51,1.0);font-size:12.8px;font-family:'Roboto Medium',sans-serif">2020-11-27</text><path  d="M 500 351
L 500 356" style="stroke-width:1;stroke:rgba(51,51,51,1.0);fill:none"/><text x="467" y="373" style="stroke-width:0;stroke:none;fill:rgba(51,51,51,1.0);font-size:12.8px;font-family:'Roboto Medium',sans-serif">2021-02-27</text><path  d="M 615 351
L 615 356" style="stroke-width:1;stroke:rgba(51,51,51,1.0);fill:none"/><text x="582" y="373" style="stroke-width:0;stroke:none;fill:rgba(51,51,51,1.0);font-size:12.8px;font-family:'Roboto Medium',sans-serif">2021-05-30</text><path  d="M 731 351
L 731 356" style="stroke-width:1;stroke:rgba(51,51,51,1.0);fill:none"/><text x="698" y="373" style="stroke-width:0;stroke:none;fill:rgba(51,51,51,1.0);font-size:12.8px;font-family:'Roboto Medium',sans-serif">2021-08-30</text><path  d="M 846 351
L 846 356" style="stroke-width:1;stroke:rgba(51,51,51,1.0);fill:none"/><text x="813" y="373" style="stroke-width:0;stroke:none;fill:rgba(51,51,51,1.0);font-size:12.8px;font-family:'Roboto Medium',sans-serif">2021-11-30</text><path  d="M 961 351
L 961 356" style="stroke-width:1;stroke:rgba(51,51,51,1.0);fill:none"/><text x="928" y="373" style="stroke-width:0;stroke:none;fill:rgba(51,51,51,1.0);font-size:12.8px;font-family:'Roboto Medium',sans-serif">2022-03-02</text><text x="481" y="395" style="stroke-width:0;stroke:none;fill:rgba(51,51,51,1.0);font-size:12.8px;font-family:'Roboto Medium',sans-serif">Datum</text><path  d="M 962 351
L 962 11" style="stroke-width:1;stroke:rgba(51,51,51,1.0);fill:none"/><path  d="M 962 351
L 967 351" style="stroke-width:1;stroke:rgba(51,51,51,1.0);fill:none"/><text x="972" y="357" style="stroke-width:0;stroke:none;fill:rgba(51,51,51,1.0);font-size:12.8px;font-family:'Roboto Medium',sans-serif">0.00</text><path  d="M 962 308
L 967 308" style="stroke-width:1;stroke:rgba(51,51,51,1.0);fill:none"/><text x="972" y="314" style="stroke-width:0;stroke:none;fill:rgba(51,51,51,1.0);font-size:12.8px;font-family:'Roboto Medium',sans-serif">390.00</text><path  d="M 962 265
L 967 265" style="stroke-width:1;stroke:rgba(51,51,51,1.0);fill:none"/><text x="972" y="271" style="stroke-width:0;stroke:none;fill:rgba(51,51,51,1.0);font-size:12.8px;font-family:'Roboto Medium',sans-serif">780.00</text><path  d="M 962 222
L 967 222" style="stroke-width:1;stroke:rgba(51,51,51,1.0);fill:none"/><text x="972" y="228" style="stroke-width:0;stroke:none;fill:rgba(51,51,51,1.0);font-size:12.8px;font-family:'Roboto Medium',sans-serif">1170.00</text><path  d="M 962 181
L 967 181" style="stroke-width:1;stroke:rgba(51,51,51,1.0);fill:none"/><text x="972" y="187" style="stroke-width:0;stroke:none;fill:rgba(51,51,51,1.0);font-size:12.8px;font-family:'Roboto Medium',sans-serif">1550.00</text><path  d="M 962 138
L 967 138" style="stroke-width:1;stroke:rgba(51,51,51,1.0);fill:none"/><text x="972" y="144" style="stroke-width:0;stroke:none;fill:rgba(51,51,51,1.0);font-size:12.8px;font-family:'Roboto Medium',sans-serif">1940.00</text><path  d="M 962 95
L 967 95" style="stroke-width:1;stroke:rgba(51,51,51,1.0);fill:none"/><text x="972" y="101" style="stroke-width:0;stroke:none;fill:rgba(51,51,51,1.0);font-size:12.8px;font-family:'Roboto Medium',sans-serif">2330.00</text><path  d="M 962 52
L 967 52" style="stroke-width:1;stroke:rgba(51,51,51,1.0);fill:none"/><text x="972" y="58" style="stroke-width:0;stroke:none;fill:rgba(51,51,51,1.0);font-size:12.8px;font-family:'Roboto Medium',sans-serif">2720.00</text><path  d="M 962 11
L 967 11" style="stroke-width:1;stroke:rgba(51,51,51,1.0);fill:none"/><text x="972" y="17" style="stroke-width:0;stroke:none;fill:rgba(51,51,51,1.0);font-size:12.8px;font-family:'Roboto Medium',sans-serif">3100.00</text><path  d="M 38 351
L 40 351
L 41 351
L 42 351
L 44 351
L 45 351
L 46 351
L 47 350
L 49 350
L 50 350
L 51 350
L 52 350
L 54 350
L 55 349
L 56 348
L 57 347
L 59 346
L 60 346
L 61 345
L 62 344
L 64 342
L 65 342
L 66 341
L 67 340
L 69 338
L 70 338
L 71 336
L 72 337
L 74 336
L 75 336
L 76 337
L 77 338
L 79 339
L 80 342
L 81 343
L 82 344
L 84 346
L 85 347
L 86 347
L 87 348
L 89 348
L 90 348
L 91 349
L 92 349
L 94 349
L 95 349
L 96 350
L 98 350
L 99 350
L 100 350
L 101 350
L 103 350
L 104 350
L 105 350
L 106 350
L 108 350
L 109 350
L 110 350
L 111 349
L 113 349
L 114 349
L 115 349
L 116 349
L 118 349
L 119 349
L 120 350
L 121 350
L 123 350
L 124 350
L 125 350
L 126 350
L 128 350
L 129 350
L 130 350
L 131 350
L 133 351
L 134 350
L 135 350
L 136 350
L 138 350
L 139 350
L 140 350
L 141 350
L 143 351
L 144 351
L 145 351
L 146 351
L 148 351
L 149 351
L 150 351
L 152 351
L 153 351
L 154 351
L 155 351
L 157 351
L 158 351
L 159 351
L 160 351
L 162 351
L 163 351
L 164 351
L 165 351
L 167 351
L 168 351
L 169 351
L 170 351
L 172 351
L 173 351
L 174 351
L 175 351
L 177 351
L 178 351
L 179 351
L 180 351
L 182 351
L 183 351
L 184 350
L 185 350
L 187 350
L 188 350
L 189 350
L 190 350
L 192 350
L 193 350
L 194 350
L 195 350
L 197 350
L 198 350
L 199 350
L 200 350
L 202 350
L 203 350
L 204 350
L 206 350
L 207 350
L 208 350
L 209 350
L 211 350
L 212 350
L 213 350
L 214 350
L 216 349
L 217 350
L 218 350
L 219 350
L 221 350
L 222 350
L 223 350
L 224 350
L 226 350
L 227 350
L 228 350
L 229 350
L 231 350
L 232 350
L 233 350
L 234 350
L 236 350
L 237 350
L 238 350
L 239 350
L 241 350
L 242 350
L 243 350
L 244 350
L 246 350
L 247 350
L 248 348
L 249 347
L 251 344
L 252 343
L 253 342
L 254 341
L 256 341
L 257 341
L 258 342
L 260 344
L 261 344
L 262 344
L 263 345
L 265 345
L 266 345
L 267 345
L 268 345
L 270 346
L 271 345
L 272 345
L 273 345
L 275 345
L 276 344
L 277 344
L 278 344
L 280 344
L 281 344
L 282 343
L 283 343
L 285 342
L 286 340
L 287 339
L 288 338
L 290 338
L 291 337
L 292 337
L 293 338
L 295 339
L 296 338
L 297 338
L 298 339
L 300 339
L 301 339
L 302 339
L 303 340
L 305 341
L 306 341
L 307 341
L 308 342
L 310 342
L 311 342
L 312 342
L 314 340
L 315 339
L 316 338
L 317 336
L 319 334
L 320 333
L 321 333
L 322 334
L 324 332
L 325 333
L 326 331
L 327 330
L 329 327
L 330 325
L 331 322
L 332 323
L 334 324
L 335 319
L 336 318
L 337 319
L 339 313
L 340 310
L 341 308
L 342 303
L 344 306
L 345 300
L 346 298
L 347 300
L 349 296
L 350 292
L 351 293
L 352 288
L 354 288
L 355 285
L 356 285
L 357 282
L 359 285
L 360 280
L 361 281
L 362 281
L 364 280
L 365 282
L 366 291
L 368 294
L 369 297
L 370 299
L 371 302
L 373 305
L 374 305
L 375 306
L 376 306
L 378 306
L 379 308
L 380 308
L 381 310
L 383 312
L 384 311
L 385 311
L 386 314
L 388 317
L 389 322
L 390 323
L 391 325
L 393 326
L 394 328
L 395 327
L 396 328
L 398 329
L 399 330
L 400 331
L 401 334
L 403 334
L 404 335
L 405 335
L 406 336
L 408 337
L 409 338
L 410 337
L 411 338
L 413 338
L 414 339
L 415 338
L 416 339
L 418 340
L 419 341
L 420 342
L 422 342
L 423 344
L 424 343
L 425 343
L 427 342
L 428 341
L 429 340
L 430 340
L 432 340
L 433 341
L 434 341
L 435 341
L 437 342
L 438 342
L 439 342
L 440 342
L 442 342
L 443 343
L 444 342
L 445 343
L 447 342
L 448 342
L 449 342
L 450 343
L 452 343
L 453 344
L 454 342
L 455 344
L 457 344
L 458 343
L 459 343
L 460 343
L 462 344
L 463 344
L 464 344
L 465 343
L 467 343
L 468 343
L 469 343
L 470 343
L 472 343
L 473 343
L 474 345
L 476 345
L 477 346
L 478 346
L 479 346
L 481 346
L 482 346
L 483 345
L 484 345
L 486 345
L 487 345
L 488 345
L 489 345
L 491 344
L 492 345
L 493 345
L 494 345
L 496 345
L 497 345
L 498 345
L 499 346
L 501 345
L 502 345
L 503 345
L 504 345
L 506 344
L 507 343
L 508 343
L 509 343
L 511 343
L 512 343
L 513 343
L 514 341
L 516 340
L 517 338
L 518 336
L 519 336
L 521 333
L 522 333
L 523 334
L 524 331
L 526 332
L 527 332
L 528 332
L 530 332
L 531 330
L 532 329
L 533 330
L 535 328
L 536 327
L 537 325
L 538 323
L 540 323
L 541 323
L 542 323
L 543 324
L 545 324
L 546 325
L 547 326
L 548 328
L 550 328
L 551 329
L 552 329
L 553 329
L 555 329
L 556 328
L 557 326
L 558 326
L 560 324
L 561 325
L 562 324
L 563 323
L 565 323
L 566 324
L 567 325
L 568 326
L 570 327
L 571 328
L 572 328
L 573 330
L 575 330
L 576 328
L 577 327
L 578 327
L 580 328
L 581 329
L 582 330
L 584 332
L 585 335
L 586 337
L 587 338
L 589 338
L 590 339
L 591 340
L 592 340
L 594 340
L 595 340
L 596 340
L 597 342
L 599 342
L 600 342
L 601 342
L 602 343
L 604 343
L 605 344
L 606 344
L 607 345
L 609 345
L 610 346
L 611 346
L 612 346
L 614 346
L 615 347
L 616 345
L 617 345
L 619 344
L 620 344
L 621 343
L 622 342
L 624 341
L 625 341
L 626 342
L 627 342
L 629 343
L 630 344
L 631 344
L 632 345
L 634 346
L 635 347
L 636 348
L 638 348
L 639 348
L 640 349
L 641 349
L 643 349
L 644 349
L 645 350
L 646 350
L 648 350
L 649 350
L 650 350
L 651 350
L 653 350
L 654 350
L 655 350
L 656 350
L 658 350
L 659 350
L 660 350
L 661 350
L 663 350
L 664 350
L 665 350
L 666 349
L 668 349
L 669 349
L 670 349
L 671 349
L 673 348
L 674 348
L 675 348
L 676 348
L 678 348
L 679 348
L 680 348
L 681 348
L 683 348
L 684 348
L 685 348
L 686 348
L 688 348
L 689 348
L 690 349
L 692 348
L 693 349
L 694 348
L 695 347
L 697 347
L 698 346
L 699 346
L 700 346
L 702 345
L 703 345
L 704 345
L 705 345
L 707 345
L 708 345
L 709 343
L 710 343
L 712 343
L 713 343
L 714 342
L 715 341
L 717 341
L 718 340
L 719 341
L 720 341
L 722 340
L 723 340
L 724 339
L 725 339
L 727 340
L 728 339
L 729 339
L 730 339
L 732 339
L 733 338
L 734 338
L 735 337
L 737 336
L 738 337
L 739 336
L 740 334
L 742 336
L 743 335
L 744 336
L 746 337
L 747 337
L 748 336
L 749 337
L 751 338
L 752 340
L 753 340
L 754 340
L 756 340
L 757 341
L 758 342
L 759 341
L 761 340
L 762 340
L 763 339
L 764 339
L 766 338
L 767 336
L 768 336
L 769 336
L 771 336
L 772 335
L 773 335
L 774 336
L 776 335
L 777 336
L 778 335
L 779 334
L 781 335
L 782 335
L 783 335
L 784 338
L 786 337
L 787 338
L 788 338
L 789 338
L 791 338
L 792 337
L 793 336
L 794 334
L 796 333
L 797 331
L 798 329
L 800 330
L 801 329
L 802 329
L 803 328
L 805 326
L 806 323
L 807 319
L 808 318
L 810 316
L 811 311
L 812 307
L 813 306
L 815 304
L 816 303
L 817 299
L 818 297
L 820 294
L 821 292
L 822 285
L 823 277
L 825 275
L 826 269
L 827 262
L 828 252
L 830 240
L 831 238
L 832 235
L 833 229
L 835 233
L 836 228
L 837 234
L 838 239
L 840 240
L 841 247
L 842 253
L 843 250
L 845 260
L 846 262
L 847 273
L 848 281
L 850 286
L 851 293
L 852 298
L 854 302
L 855 309
L 856 312
L 857 315
L 859 317
L 860 318
L 861 322
L 862 323
L 864 325
L 865 325
L 866 326
L 867 328
L 869 328
L 870 328
L 871 328
L 872 327
L 874 327
L 875 328
L 876 327
L 877 327
L 879 327
L 880 326
L 881 326
L 882 325
L 884 321
L 885 317
L 886 314
L 887 312
L 889 300
L 890 289
L 891 282
L 892 274
L 894 270
L 895 262
L 896 252
L 897 246
L 899 243
L 900 233
L 901 221
L 902 206
L 904 199
L 905 191
L 906 182
L 908 159
L 909 150
L 910 136
L 911 126
L 913 114
L 914 105
L 915 84
L 916 78
L 918 64
L 919 57
L 920 45
L 921 35
L 923 28
L 924 23
L 925 22
L 926 18
L 928 11
L 929 14
L 930 26
L 931 32
L 933 44
L 934 52
L 935 53
L 936 65
L 938 76
L 939 85
L 940 93
L 941 90
L 943 88
L 944 100
L 945 101
L 946 107
L 948 106
L 949 103
L 950 109
L 951 110
L 953 111
L 954 120
L 955 115
L 956 114
L 958 116
L 959 114
L 960 110
L 961 108" style="stroke-width:1;stroke:rgba(0,116,217,1.0);fill:none"/><path  d="M 38 351
L 40 351
L 41 351
L 42 351
L 44 351
L 45 351
L 46 351
L 47 350
L 49 351
L 50 350
L 51 351
L 52 350
L 54 350
L 55 350
L 56 349
L 57 350
L 59 349
L 60 350
L 61 350
L 62 348
L 64 348
L 65 349
L 66 348
L 67 347
L 69 347
L 70 349
L 71 346
L 72 350
L 74 348
L 75 348
L 76 348
L 77 349
L 79 350
L 80 350
L 81 350
L 82 350
L 84 350
L 85 350
L 86 350
L 87 350
L 89 350
L 90 351
L 91 351
L 92 350
L 94 350
L 95 351
L 96 350
L 98 351
L 99 350
L 100 350
L 101 351
L 103 351
L 104 351
L 105 350
L 106 350
L 108 350
L 109 350
L 110 351
L 111 350
L 113 350
L 114 350
L 115 350
L 116 351
L 118 350
L 119 350
L 120 351
L 121 350
L 123 351
L 124 350
L 125 351
L 126 351
L 128 351
L 129 351
L 130 351
L 131 351
L 133 351
L 134 350
L 135 351
L 136 351
L 138 351
L 139 351
L 140 351
L 141 351
L 143 351
L 144 351
L 145 351
L 146 351
L 148 351
L 149 351
L 150 351
L 152 351
L 153 351
L 154 351
L 155 351
L 157 351
L 158 351
L 159 351
L 160 351
L 162 351
L 163 351
L 164 351
L 165 351
L 167 351
L 168 351
L 169 351
L 170 351
L 172 351
L 173 351
L 174 351
L 175 351
L 177 351
L 178 351
L 179 351
L 180 351
L 182 351
L 183 351
L 184 350
L 185 351
L 187 351
L 188 350
L 189 350
L 190 351
L 192 351
L 193 350
L 194 350
L 195 350
L 197 351
L 198 350
L 199 351
L 200 350
L 202 351
L 203 351
L 204 350
L 206 350
L 207 350
L 208 350
L 209 350
L 211 351
L 212 350
L 213 350
L 214 350
L 216 350
L 217 351
L 218 351
L 219 351
L 221 350
L 222 350
L 223 351
L 224 350
L 226 350
L 227 350
L 228 351
L 229 350
L 231 350
L 232 351
L 233 350
L 234 351
L 236 351
L 237 351
L 238 350
L 239 350
L 241 350
L 242 351
L 243 350
L 244 351
L 246 350
L 247 350
L 248 349
L 249 349
L 251 346
L 252 349
L 253 350
L 254 349
L 256 349
L 257 350
L 258 350
L 260 349
L 261 348
L 262 350
L 263 350
L 265 349
L 266 349
L 267 350
L 268 350
L 270 349
L 271 350
L 272 350
L 273 349
L 275 349
L 276 349
L 277 349
L 278 350
L 280 350
L 281 349
L 282 348
L 283 348
L 285 348
L 286 347
L 287 347
L 288 350
L 290 348
L 291 347
L 292 348
L 293 349
L 295 349
L 296 347
L 297 349
L 298 349
L 300 347
L 301 348
L 302 349
L 303 349
L 305 348
L 306 350
L 307 350
L 308 348
L 310 349
L 311 349
L 312 348
L 314 346
L 315 349
L 316 347
L 317 347
L 319 346
L 320 347
L 321 348
L 322 348
L 324 346
L 325 348
L 326 345
L 327 345
L 329 342
L 330 346
L 331 345
L 332 347
L 334 349
L 335 339
L 336 344
L 337 344
L 339 337
L 340 341
L 341 344
L 342 343
L 344 343
L 345 337
L 346 341
L 347 339
L 349 336
L 350 338
L 351 344
L 352 336
L 354 338
L 355 337
L 356 339
L 357 331
L 359 343
L 360 338
L 361 337
L 362 338
L 364 336
L 365 341
L 366 342
L 368 347
L 369 342
L 370 339
L 371 342
L 373 340
L 374 341
L 375 344
L 376 346
L 378 343
L 379 341
L 380 341
L 381 343
L 383 343
L 384 343
L 385 346
L 386 348
L 388 345
L 389 347
L 390 345
L 391 346
L 393 344
L 394 348
L 395 347
L 396 347
L 398 348
L 399 346
L 400 348
L 401 348
L 403 348
L 404 349
L 405 346
L 406 349
L 408 348
L 409 349
L 410 348
L 411 349
L 413 349
L 414 347
L 415 349
L 416 349
L 418 350
L 419 349
L 420 350
L 422 349
L 423 349
L 424 347
L 425 349
L 427 349
L 428 347
L 429 349
L 430 350
L 432 348
L 433 349
L 434 348
L 435 349
L 437 349
L 438 349
L 439 349
L 440 348
L 442 349
L 443 349
L 444 349
L 445 350
L 447 348
L 448 349
L 449 349
L 450 349
L 452 349
L 453 350
L 454 349
L 455 350
L 457 350
L 458 348
L 459 349
L 460 350
L 462 350
L 463 349
L 464 350
L 465 348
L 467 349
L 468 349
L 469 350
L 470 350
L 472 349
L 473 350
L 474 350
L 476 350
L 477 350
L 478 349
L 479 350
L 481 349
L 482 350
L 483 349
L 484 350
L 486 349
L 487 349
L 488 350
L 489 350
L 491 349
L 492 350
L 493 350
L 494 349
L 496 349
L 497 350
L 498 350
L 499 350
L 501 349
L 502 349
L 503 349
L 504 349
L 506 348
L 507 349
L 508 350
L 509 349
L 511 349
L 512 350
L 513 348
L 514 346
L 516 349
L 517 347
L 518 347
L 519 348
L 521 347
L 522 348
L 523 346
L 524 345
L 526 348
L 527 348
L 528 348
L 530 347
L 531 345
L 532 346
L 533 346
L 535 345
L 536 346
L 537 345
L 538 344
L 540 345
L 541 346
L 542 345
L 543 347
L 545 347
L 546 346
L 547 346
L 548 347
L 550 346
L 551 347
L 552 345
L 553 347
L 555 346
L 556 345
L 557 345
L 558 346
L 560 345
L 561 346
L 562 347
L 563 345
L 565 344
L 566 346
L 567 347
L 568 347
L 570 347
L 571 347
L 572 345
L 573 347
L 575 346
L 576 344
L 577 346
L 578 347
L 580 348
L 581 347
L 582 347
L 584 349
L 585 349
L 586 349
L 587 348
L 589 348
L 590 348
L 591 348
L 592 349
L 594 349
L 595 349
L 596 348
L 597 350
L 599 348
L 600 349
L 601 349
L 602 349
L 604 350
L 605 349
L 606 350
L 607 350
L 609 349
L 610 350
L 611 350
L 612 350
L 614 350
L 615 350
L 616 349
L 617 349
L 619 348
L 620 349
L 621 348
L 622 349
L 624 349
L 625 349
L 626 349
L 627 349
L 629 350
L 630 350
L 631 350
L 632 350
L 634 350
L 635 350
L 636 350
L 638 350
L 639 350
L 640 350
L 641 351
L 643 350
L 644 350
L 645 351
L 646 351
L 648 351
L 649 351
L 650 351
L 651 350
L 653 351
L 654 351
L 655 350
L 656 351
L 658 351
L 659 351
L 660 350
L 661 350
L 663 350
L 664 351
L 665 350
L 666 350
L 668 350
L 669 350
L 670 351
L 671 350
L 673 350
L 674 350
L 675 351
L 676 350
L 678 350
L 679 350
L 680 350
L 681 349
L 683 350
L 684 350
L 685 350
L 686 350
L 688 350
L 689 350
L 690 350
L 692 350
L 693 351
L 694 349
L 695 349
L 697 350
L 698 349
L 699 349
L 700 350
L 702 349
L 703 350
L 704 350
L 705 350
L 707 349
L 708 349
L 709 348
L 710 349
L 712 350
L 713 349
L 714 349
L 715 347
L 717 349
L 718 348
L 719 349
L 720 349
L 722 349
L 723 349
L 724 346
L 725 348
L 727 348
L 728 349
L 729 349
L 730 349
L 732 349
L 733 346
L 734 348
L 735 347
L 737 348
L 738 349
L 739 348
L 740 347
L 742 347
L 743 348
L 744 348
L 746 350
L 747 349
L 748 346
L 749 348
L 751 349
L 752 349
L 753 349
L 754 349
L 756 350
L 757 348
L 758 349
L 759 347
L 761 348
L 762 348
L 763 349
L 764 349
L 766 347
L 767 346
L 768 347
L 769 348
L 771 348
L 772 348
L 773 349
L 774 348
L 776 345
L 777 348
L 778 347
L 779 347
L 781 348
L 782 349
L 783 348
L 784 348
L 786 348
L 787 348
L 788 348
L 789 348
L 791 348
L 792 348
L 793 346
L 794 346
L 796 346
L 797 345
L 798 347
L 800 349
L 801 346
L 802 346
L 803 345
L 805 343
L 806 341
L 807 342
L 808 347
L 810 345
L 811 339
L 812 339
L 813 342
L 815 340
L 816 340
L 817 341
L 818 342
L 820 334
L 821 338
L 822 333
L 823 329
L 825 337
L 826 334
L 827 333
L 828 322
L 830 322
L 831 330
L 832 324
L 833 330
L 835 340
L 836 326
L 837 330
L 838 328
L 840 331
L 841 334
L 842 337
L 843 337
L 845 338
L 846 334
L 847 342
L 848 341
L 850 341
L 851 346
L 852 343
L 854 344
L 855 343
L 856 345
L 857 344
L 859 345
L 860 347
L 861 348
L 862 345
L 864 346
L 865 344
L 866 345
L 867 348
L 869 348
L 870 347
L 871 346
L 872 345
L 874 344
L 875 346
L 876 346
L 877 348
L 879 347
L 880 345
L 881 344
L 882 343
L 884 341
L 885 341
L 886 344
L 887 344
L 889 330
L 890 330
L 891 333
L 892 331
L 894 336
L 895 333
L 896 331
L 897 323
L 899 326
L 900 320
L 901 315
L 902 316
L 904 323
L 905 321
L 906 311
L 908 296
L 909 308
L 910 297
L 911 303
L 913 307
L 914 310
L 915 284
L 916 287
L 918 289
L 919 289
L 920 287
L 921 293
L 923 301
L 924 277
L 925 286
L 926 284
L 928 280
L 929 292
L 930 308
L 931 309
L 933 292
L 934 297
L 935 286
L 936 295
L 938 307
L 939 320
L 940 320
L 941 287
L 943 295
L 944 301
L 945 297
L 946 315
L 948 318
L 949 317
L 950 294
L 951 297
L 953 303
L 954 308
L 955 308
L 956 318
L 958 319
L 959 292
L 960 292
L 961 300" style="stroke-width:1;stroke:rgba(0,217,101,1.0);fill:none"/><path  d="M 38 351
L 40 351
L 41 351
L 42 351
L 44 351
L 45 351
L 46 351
L 47 351
L 49 351
L 50 351
L 51 351
L 52 351
L 54 351
L 55 351
L 56 351
L 57 351
L 59 351
L 60 351
L 61 351
L 62 351
L 64 351
L 65 351
L 66 351
L 67 351
L 69 351
L 70 351
L 71 351
L 72 350
L 74 351
L 75 351
L 76 351
L 77 351
L 79 351
L 80 351
L 81 350
L 82 351
L 84 351
L 85 351
L 86 351
L 87 351
L 89 351
L 90 351
L 91 351
L 92 351
L 94 350
L 95 351
L 96 351
L 98 351
L 99 350
L 100 351
L 101 351
L 103 351
L 104 351
L 105 351
L 106 351
L 108 351
L 109 351
L 110 351
L 111 351
L 113 351
L 114 351
L 115 351
L 116 351
L 118 351
L 119 351
L 120 351
L 121 351
L 123 351
L 124 351
L 125 351
L 126 351
L 128 351
L 129 351
L 130 351
L 131 351
L 133 351
L 134 351
L 135 351
L 136 351
L 138 351
L 139 351
L 140 351
L 141 351
L 143 351
L 144 351
L 145 351
L 146 351
L 148 351
L 149 351
L 150 351
L 152 351
L 153 351
L 154 351
L 155 351
L 157 351
L 158 351
L 159 351
L 160 351
L 162 351
L 163 351
L 164 351
L 165 351
L 167 351
L 168 351
L 169 351
L 170 351
L 172 351
L 173 351
L 174 351
L 175 351
L 177 351
L 178 351
L 179 351
L 180 351
L 182 351
L 183 351
L 184 351
L 185 351
L 187 351
L 188 351
L 189 351
L 190 351
L 192 351
L 193 351
L 194 351
L 195 351
L 197 351
L 198 351
L 199 351
L 200 351
L 202 351
L 203 351
L 204 351
L 206 351
L 207 351
L 208 351
L 209 351
L 211 351
L 212 351
L 213 351
L 214 351
L 216 351
L 217 351
L 218 351
L 219 351
L 221 351
L 222 351
L 223 351
L 224 351
L 226 351
L 227 351
L 228 351
L 229 351
L 231 351
L 232 351
L 233 351
L 234 351
L 236 351
L 237 351
L 238 351
L 239 351
L 241 351
L 242 351
L 243 351
L 244 351
L 246 351
L 247 351
L 248 351
L 249 351
L 251 351
L 252 351
L 253 351
L 254 351
L 256 351
L 257 351
L 258 351
L 260 351
L 261 351
L 262 351
L 263 351
L 265 351
L 266 351
L 267 351
L 268 351
L 270 351
L 271 351
L 272 351
L 273 351
L 275 351
L 276 351
L 277 351
L 278 351
L 280 351
L 281 351
L 282 351
L 283 351
L 285 351
L 286 351
L 287 351
L 288 351
L 290 351
L 291 351
L 292 351
L 293 351
L 295 351
L 296 351
L 297 351
L 298 351
L 300 351
L 301 351
L 302 351
L 303 351
L 305 351
L 306 351
L 307 351
L 308 351
L 310 351
L 311 351
L 312 351
L 314 351
L 315 351
L 316 351
L 317 351
L 319 350
L 320 351
L 321 351
L 322 351
L 324 351
L 325 350
L 326 351
L 327 351
L 329 351
L 330 350
L 331 351
L 332 351
L 334 350
L 335 350
L 336 351
L 337 351
L 339 351
L 340 350
L 341 350
L 342 350
L 344 351
L 345 350
L 346 351
L 347 351
L 349 350
L 350 350
L 351 351
L 352 350
L 354 350
L 355 350
L 356 350
L 357 350
L 359 350
L 360 350
L 361 351
L 362 350
L 364 350
L 365 350
L 366 350
L 368 351
L 369 350
L 370 350
L 371 350
L 373 350
L 374 350
L 375 351
L 376 350
L 378 350
L 379 350
L 380 351
L 381 350
L 383 351
L 384 350
L 385 351
L 386 351
L 388 351
L 389 350
L 390 351
L 391 351
L 393 350
L 394 351
L 395 351
L 396 350
L 398 351
L 399 351
L 400 350
L 401 350
L 403 351
L 404 350
L 405 350
L 406 350
L 408 350
L 409 351
L 410 350
L 411 350
L 413 350
L 414 351
L 415 350
L 416 350
L 418 350
L 419 351
L 420 351
L 422 351
L 423 351
L 424 351
L 425 351
L 427 351
L 428 351
L 429 351
L 430 351
L 432 351
L 433 351
L 434 351
L 435 351
L 437 351
L 438 351
L 439 350
L 440 351
L 442 350
L 443 351
L 444 351
L 445 351
L 447 351
L 448 351
L 449 351
L 450 350
L 452 351
L 453 351
L 454 351
L 455 351
L 457 351
L 458 351
L 459 351
L 460 350
L 462 351
L 463 350
L 464 351
L 465 350
L 467 351
L 468 351
L 469 351
L 470 351
L 472 351
L 473 351
L 474 351
L 476 351
L 477 351
L 478 351
L 479 351
L 481 351
L 482 351
L 483 350
L 484 351
L 486 350
L 487 351
L 488 351
L 489 351
L 491 351
L 492 351
L 493 351
L 494 351
L 496 351
L 497 351
L 498 351
L 499 351
L 501 351
L 502 351
L 503 351
L 504 351
L 506 351
L 507 351
L 508 351
L 509 351
L 511 351
L 512 351
L 513 351
L 514 351
L 516 351
L 517 351
L 518 351
L 519 351
L 521 351
L 522 351
L 523 351
L 524 351
L 526 351
L 527 350
L 528 351
L 530 351
L 531 351
L 532 350
L 533 351
L 535 351
L 536 351
L 537 351
L 538 351
L 540 351
L 541 351
L 542 351
L 543 351
L 545 351
L 546 351
L 547 350
L 548 351
L 550 351
L 551 351
L 552 350
L 553 351
L 555 351
L 556 351
L 557 351
L 558 351
L 560 351
L 561 351
L 562 351
L 563 350
L 565 351
L 566 351
L 567 350
L 568 351
L 570 351
L 571 351
L 572 351
L 573 351
L 575 351
L 576 351
L 577 351
L 578 351
L 580 351
L 581 350
L 582 351
L 584 351
L 585 351
L 586 351
L 587 351
L 589 351
L 590 351
L 591 351
L 592 351
L 594 351
L 595 351
L 596 351
L 597 351
L 599 351
L 600 351
L 601 351
L 602 351
L 604 351
L 605 351
L 606 350
L 607 351
L 609 351
L 610 351
L 611 351
L 612 350
L 614 351
L 615 351
L 616 351
L 617 351
L 619 351
L 620 351
L 621 351
L 622 351
L 624 351
L 625 351
L 626 351
L 627 351
L 629 351
L 630 351
L 631 351
L 632 351
L 634 351
L 635 351
L 636 351
L 638 350
L 639 351
L 640 351
L 641 351
L 643 351
L 644 351
L 645 351
L 646 351
L 648 351
L 649 351
L 650 351
L 651 351
L 653 351
L 654 351
L 655 351
L 656 351
L 658 351
L 659 351
L 660 351
L 661 351
L 663 351
L 664 351
L 665 351
L 666 351
L 668 351
L 669 351
L 670 351
L 671 351
L 673 351
L 674 351
L 675 351
L 676 351
L 678 351
L 679 351
L 680 351
L 681 351
L 683 351
L 684 351
L 685 351
L 686 351
L 688 351
L 689 351
L 690 351
L 692 351
L 693 351
L 694 351
L 695 351
L 697 351
L 698 351
L 699 351
L 700 351
L 702 351
L 703 351
L 704 351
L 705 351
L 707 351
L 708 351
L 709 351
L 710 351
L 712 351
L 713 351
L 714 351
L 715 351
L 717 351
L 718 351
L 719 351
L 720 351
L 722 351
L 723 351
L 724 351
L 725 351
L 727 351
L 728 351
L 729 351
L 730 351
L 732 351
L 733 351
L 734 351
L 735 351
L 737 351
L 738 351
L 739 351
L 740 350
L 742 351
L 743 351
L 744 350
L 746 351
L 747 351
L 748 351
L 749 350
L 751 350
L 752 350
L 753 350
L 754 351
L 756 351
L 757 350
L 758 351
L 759 351
L 761 350
L 762 351
L 763 351
L 764 351
L 766 351
L 767 351
L 768 351
L 769 351
L 771 351
L 772 351
L 773 350
L 774 351
L 776 351
L 777 351
L 778 351
L 779 351
L 781 351
L 782 351
L 783 351
L 784 351
L 786 351
L 787 351
L 788 351
L 789 350
L 791 351
L 792 351
L 793 351
L 794 351
L 796 351
L 797 351
L 798 351
L 800 351
L 801 350
L 802 351
L 803 351
L 805 350
L 806 351
L 807 351
L 808 351
L 810 351
L 811 351
L 812 351
L 813 351
L 815 351
L 816 351
L 817 351
L 818 351
L 820 351
L 821 351
L 822 351
L 823 351
L 825 350
L 826 350
L 827 351
L 828 351
L 830 351
L 831 351
L 832 350
L 833 350
L 835 350
L 836 350
L 837 351
L 838 351
L 840 350
L 841 350
L 842 351
L 843 351
L 845 351
L 846 350
L 847 351
L 848 350
L 850 351
L 851 350
L 852 351
L 854 351
L 855 351
L 856 351
L 857 351
L 859 351
L 860 351
L 861 351
L 862 351
L 864 351
L 865 351
L 866 351
L 867 351
L 869 351
L 870 350
L 871 351
L 872 351
L 874 351
L 875 350
L 876 351
L 877 351
L 879 350
L 880 351
L 881 350
L 882 351
L 884 351
L 885 351
L 886 351
L 887 351
L 889 351
L 890 351
L 891 351
L 892 351
L 894 351
L 895 351
L 896 351
L 897 351
L 899 351
L 900 351
L 901 351
L 902 351
L 904 351
L 905 351
L 906 351
L 908 351
L 909 351
L 910 351
L 911 351
L 913 351
L 914 351
L 915 351
L 916 351
L 918 351
L 919 351
L 920 351
L 921 351
L 923 351
L 924 351
L 925 351
L 926 351
L 928 351
L 929 351
L 930 350
L 931 351
L 933 351
L 934 351
L 935 351
L 936 351
L 938 351
L 939 351
L 940 351
L 941 351
L 943 351
L 944 350
L 945 351
L 946 350
L 948 350
L 949 350
L 950 351
L 951 350
L 953 350
L 954 351
L 955 351
L 956 351
L 958 351
L 959 351
L 960 351
L 961 351" style="stroke-width:1;stroke:rgba(217,0,116,1.0);fill:none"/><text x="368" y="33" style="stroke-width:0;stroke:none;fill:rgba(51,51,51,1.0);font-size:23.0px;font-family:'Roboto Medium',sans-serif">Innsbruck-Stadt 02.03.2022</text><path  d="M 38 11
L 251 11
L 251 91
L 38 91
L 38 11" style="stroke-width:1;stroke:rgba(51,51,51,1.0);fill:rgba(255,255,255,1.0)"/><text x="43" y="26" style="stroke-width:0;stroke:none;fill:rgba(51,51,51,1.0);font-size:10.2px;font-family:'Roboto Medium',sans-serif">Sieben Tage Durschnitt Inzidenz Fälle</text><path  d="M 221 21
L 241 21" style="stroke-width:1;stroke:rgba(0,116,217,1.0);fill:none"/><text x="43" y="56" style="stroke-width:0;stroke:none;fill:rgba(51,51,51,1.0);font-size:10.2px;font-family:'Roboto Medium',sans-serif">Anzahl Faelle</text><path  d="M 110 51
L 241 51" style="stroke-width:1;stroke:rgba(0,217,101,1.0);fill:none"/><text x="43" y="86" style="stroke-width:0;stroke:none;fill:rgba(51,51,51,1.0);font-size:10.2px;font-family:'Roboto Medium',sans-serif">Anzahl Tot</text><path  d="M 98 81
L 241 81" style="stroke-width:1;stroke:rgba(217,0,116,1.0);fill:none"/></svg>