<svg xmlns="http://www.w3.org/2000/svg" xmlns:xlink="http://www.w3.org/1999/xlink" width="1024" height="400">\n<path  d="M 0 0
L 1024 0
L 1024 400
L 0 400
L 0 0" style="stroke-width:0;stroke:rgba(255,255,255,1.0);fill:rgba(255,255,255,1.0)"/><path  d="M 38 11
L 969 11
L 969 351
L 38 351
L 38 11" style="stroke-width:0;stroke:rgba(255,255,255,1.0);fill:rgba(255,255,255,1.0)"/><path  d="M 38 351
L 969 351" style="stroke-width:1;stroke:rgba(51,51,51,1.0);fill:none"/><path  d="M 38 351
L 38 356" style="stroke-width:1;stroke:rgba(51,51,51,1.0);fill:none"/><text x="5" y="373" style="stroke-width:0;stroke:none;fill:rgba(51,51,51,1.0);font-size:12.8px;font-family:'Roboto Medium',sans-serif">2020-02-26</text><path  d="M 155 351
L 155 356" style="stroke-width:1;stroke:rgba(51,51,51,1.0);fill:none"/><text x="122" y="373" style="stroke-width:0;stroke:none;fill:rgba(51,51,51,1.0);font-size:12.8px;font-family:'Roboto Medium',sans-serif">2020-04-29</text><path  d="M 271 351
L 271 356" style="stroke-width:1;stroke:rgba(51,51,51,1.0);fill:none"/><text x="238" y="373" style="stroke-width:0;stroke:none;fill:rgba(51,51,51,1.0);font-size:12.8px;font-family:'Roboto Medium',sans-serif">2020-07-02</text><path  d="M 388 351
L 388 356" style="stroke-width:1;stroke:rgba(51,51,51,1.0);fill:none"/><text x="355" y="373" style="stroke-width:0;stroke:none;fill:rgba(51,51,51,1.0);font-size:12.8px;font-family:'Roboto Medium',sans-serif">2020-09-04</text><path  d="M 504 351
L 504 356" style="stroke-width:1;stroke:rgba(51,51,51,1.0);fill:none"/><text x="471" y="373" style="stroke-width:0;stroke:none;fill:rgba(51,51,51,1.0);font-size:12.8px;font-family:'Roboto Medium',sans-serif">2020-11-07</text><path  d="M 620 351
L 620 356" style="stroke-width:1;stroke:rgba(51,51,51,1.0);fill:none"/><text x="587" y="373" style="stroke-width:0;stroke:none;fill:rgba(51,51,51,1.0);font-size:12.8px;font-family:'Roboto Medium',sans-serif">2021-01-10</text><path  d="M 737 351
L 737 356" style="stroke-width:1;stroke:rgba(51,51,51,1.0);fill:none"/><text x="704" y="373" style="stroke-width:0;stroke:none;fill:rgba(51,51,51,1.0);font-size:12.8px;font-family:'Roboto Medium',sans-serif">2021-03-15</text><path  d="M 853 351
L 853 356" style="stroke-width:1;stroke:rgba(51,51,51,1.0);fill:none"/><text x="820" y="373" style="stroke-width:0;stroke:none;fill:rgba(51,51,51,1.0);font-size:12.8px;font-family:'Roboto Medium',sans-serif">2021-05-18</text><path  d="M 969 351
L 969 356" style="stroke-width:1;stroke:rgba(51,51,51,1.0);fill:none"/><text x="936" y="373" style="stroke-width:0;stroke:none;fill:rgba(51,51,51,1.0);font-size:12.8px;font-family:'Roboto Medium',sans-serif">2021-07-21</text><text x="485" y="395" style="stroke-width:0;stroke:none;fill:rgba(51,51,51,1.0);font-size:12.8px;font-family:'Roboto Medium',sans-serif">Datum</text><path  d="M 970 351
L 970 11" style="stroke-width:1;stroke:rgba(51,51,51,1.0);fill:none"/><path  d="M 970 351
L 975 351" style="stroke-width:1;stroke:rgba(51,51,51,1.0);fill:none"/><text x="980" y="357" style="stroke-width:0;stroke:none;fill:rgba(51,51,51,1.0);font-size:12.8px;font-family:'Roboto Medium',sans-serif">0.00</text><path  d="M 970 308
L 975 308" style="stroke-width:1;stroke:rgba(51,51,51,1.0);fill:none"/><text x="980" y="314" style="stroke-width:0;stroke:none;fill:rgba(51,51,51,1.0);font-size:12.8px;font-family:'Roboto Medium',sans-serif">94.00</text><path  d="M 970 265
L 975 265" style="stroke-width:1;stroke:rgba(51,51,51,1.0);fill:none"/><text x="980" y="271" style="stroke-width:0;stroke:none;fill:rgba(51,51,51,1.0);font-size:12.8px;font-family:'Roboto Medium',sans-serif">188.00</text><path  d="M 970 223
L 975 223" style="stroke-width:1;stroke:rgba(51,51,51,1.0);fill:none"/><text x="980" y="229" style="stroke-width:0;stroke:none;fill:rgba(51,51,51,1.0);font-size:12.8px;font-family:'Roboto Medium',sans-serif">282.00</text><path  d="M 970 181
L 975 181" style="stroke-width:1;stroke:rgba(51,51,51,1.0);fill:none"/><text x="980" y="187" style="stroke-width:0;stroke:none;fill:rgba(51,51,51,1.0);font-size:12.8px;font-family:'Roboto Medium',sans-serif">375.00</text><path  d="M 970 138
L 975 138" style="stroke-width:1;stroke:rgba(51,51,51,1.0);fill:none"/><text x="980" y="144" style="stroke-width:0;stroke:none;fill:rgba(51,51,51,1.0);font-size:12.8px;font-family:'Roboto Medium',sans-serif">469.00</text><path  d="M 970 95
L 975 95" style="stroke-width:1;stroke:rgba(51,51,51,1.0);fill:none"/><text x="980" y="101" style="stroke-width:0;stroke:none;fill:rgba(51,51,51,1.0);font-size:12.8px;font-family:'Roboto Medium',sans-serif">563.00</text><path  d="M 970 53
L 975 53" style="stroke-width:1;stroke:rgba(51,51,51,1.0);fill:none"/><text x="980" y="59" style="stroke-width:0;stroke:none;fill:rgba(51,51,51,1.0);font-size:12.8px;font-family:'Roboto Medium',sans-serif">657.00</text><path  d="M 970 11
L 975 11" style="stroke-width:1;stroke:rgba(51,51,51,1.0);fill:none"/><text x="980" y="17" style="stroke-width:0;stroke:none;fill:rgba(51,51,51,1.0);font-size:12.8px;font-family:'Roboto Medium',sans-serif">750.00</text><path  d="M 38 351
L 40 351
L 42 351
L 44 351
L 46 351
L 48 351
L 49 351
L 51 351
L 53 351
L 55 350
L 57 350
L 59 350
L 60 350
L 62 350
L 64 348
L 66 345
L 68 343
L 69 342
L 71 342
L 73 339
L 75 338
L 77 337
L 79 335
L 80 333
L 82 326
L 84 325
L 86 322
L 88 321
L 90 316
L 91 312
L 93 309
L 95 313
L 97 312
L 99 315
L 100 317
L 102 323
L 104 329
L 106 333
L 108 333
L 110 335
L 111 336
L 113 336
L 115 337
L 117 339
L 119 342
L 120 345
L 122 346
L 124 347
L 126 348
L 128 349
L 130 349
L 131 349
L 133 349
L 135 349
L 137 349
L 139 349
L 141 349
L 142 350
L 144 350
L 146 349
L 148 349
L 150 349
L 151 349
L 153 350
L 155 350
L 157 350
L 159 350
L 161 350
L 162 351
L 164 350
L 166 350
L 168 350
L 170 350
L 171 350
L 173 350
L 175 350
L 177 351
L 179 351
L 181 351
L 182 351
L 184 351
L 186 351
L 188 351
L 190 350
L 192 350
L 193 350
L 195 350
L 197 350
L 199 350
L 201 350
L 202 351
L 204 351
L 206 350
L 208 350
L 210 350
L 212 350
L 213 350
L 215 350
L 217 350
L 219 350
L 221 350
L 223 350
L 224 350
L 226 350
L 228 350
L 230 350
L 232 350
L 233 350
L 235 350
L 237 350
L 239 351
L 241 351
L 243 351
L 244 351
L 246 350
L 248 350
L 250 350
L 252 350
L 253 350
L 255 350
L 257 350
L 259 351
L 261 351
L 263 351
L 264 351
L 266 351
L 268 351
L 270 351
L 272 351
L 274 351
L 275 351
L 277 351
L 279 351
L 281 351
L 283 350
L 284 350
L 286 349
L 288 349
L 290 349
L 292 349
L 294 349
L 295 349
L 297 349
L 299 350
L 301 350
L 303 350
L 304 350
L 306 350
L 308 349
L 310 349
L 312 349
L 314 349
L 315 349
L 317 349
L 319 349
L 321 349
L 323 350
L 325 350
L 326 349
L 328 349
L 330 349
L 332 350
L 334 350
L 335 350
L 337 350
L 339 350
L 341 349
L 343 349
L 345 349
L 346 347
L 348 346
L 350 345
L 352 345
L 354 344
L 356 343
L 357 343
L 359 343
L 361 344
L 363 344
L 365 343
L 366 342
L 368 342
L 370 340
L 372 340
L 374 338
L 376 335
L 377 335
L 379 335
L 381 333
L 383 331
L 385 328
L 386 329
L 388 333
L 390 333
L 392 333
L 394 333
L 396 336
L 397 335
L 399 331
L 401 330
L 403 329
L 405 321
L 407 320
L 408 318
L 410 318
L 412 321
L 414 321
L 416 322
L 417 327
L 419 328
L 421 330
L 423 332
L 425 332
L 427 330
L 428 328
L 430 327
L 432 327
L 434 325
L 436 319
L 437 314
L 439 313
L 441 306
L 443 306
L 445 300
L 447 297
L 448 299
L 450 297
L 452 295
L 454 295
L 456 287
L 458 281
L 459 280
L 461 252
L 463 245
L 465 245
L 467 249
L 468 246
L 470 243
L 472 235
L 474 239
L 476 228
L 478 215
L 479 197
L 481 194
L 483 180
L 485 159
L 487 150
L 489 132
L 490 125
L 492 125
L 494 95
L 496 78
L 498 68
L 499 62
L 501 43
L 503 38
L 505 19
L 507 17
L 509 23
L 510 14
L 512 26
L 514 56
L 516 69
L 518 70
L 519 79
L 521 78
L 523 87
L 525 76
L 527 72
L 529 58
L 530 77
L 532 84
L 534 94
L 536 110
L 538 123
L 540 140
L 541 160
L 543 168
L 545 184
L 547 201
L 549 212
L 550 229
L 552 230
L 554 222
L 556 221
L 558 229
L 560 236
L 561 242
L 563 247
L 565 254
L 567 265
L 569 272
L 570 271
L 572 271
L 574 274
L 576 274
L 578 275
L 580 279
L 581 276
L 583 282
L 585 279
L 587 278
L 589 282
L 591 286
L 592 289
L 594 288
L 596 285
L 598 288
L 600 291
L 601 288
L 603 282
L 605 278
L 607 282
L 609 285
L 611 290
L 612 289
L 614 290
L 616 294
L 618 299
L 620 303
L 622 305
L 623 305
L 625 309
L 627 313
L 629 319
L 631 316
L 632 316
L 634 316
L 636 318
L 638 314
L 640 313
L 642 312
L 643 313
L 645 313
L 647 314
L 649 315
L 651 319
L 652 321
L 654 321
L 656 323
L 658 318
L 660 317
L 662 314
L 663 315
L 665 314
L 667 316
L 669 316
L 671 319
L 673 320
L 674 324
L 676 326
L 678 327
L 680 329
L 682 331
L 683 331
L 685 335
L 687 334
L 689 333
L 691 332
L 693 329
L 694 327
L 696 327
L 698 323
L 700 321
L 702 322
L 703 322
L 705 325
L 707 327
L 709 327
L 711 326
L 713 325
L 714 322
L 716 322
L 718 318
L 720 319
L 722 317
L 724 316
L 725 315
L 727 311
L 729 304
L 731 308
L 733 298
L 734 289
L 736 287
L 738 282
L 740 281
L 742 276
L 744 265
L 745 265
L 747 268
L 749 265
L 751 264
L 753 257
L 755 258
L 756 254
L 758 248
L 760 245
L 762 238
L 764 237
L 765 234
L 767 235
L 769 233
L 771 239
L 773 239
L 775 245
L 776 245
L 778 252
L 780 254
L 782 264
L 784 268
L 785 275
L 787 275
L 789 269
L 791 266
L 793 264
L 795 264
L 796 260
L 798 255
L 800 248
L 802 254
L 804 257
L 806 257
L 807 257
L 809 256
L 811 257
L 813 263
L 815 264
L 816 262
L 818 265
L 820 268
L 822 272
L 824 273
L 826 275
L 827 280
L 829 285
L 831 290
L 833 288
L 835 292
L 836 298
L 838 303
L 840 307
L 842 312
L 844 314
L 846 316
L 847 318
L 849 317
L 851 315
L 853 313
L 855 308
L 857 309
L 858 311
L 860 310
L 862 311
L 864 319
L 866 320
L 867 321
L 869 322
L 871 322
L 873 324
L 875 323
L 877 320
L 878 323
L 880 326
L 882 325
L 884 328
L 886 327
L 888 327
L 889 325
L 891 326
L 893 327
L 895 328
L 897 329
L 898 331
L 900 333
L 902 338
L 904 340
L 906 341
L 908 343
L 909 343
L 911 345
L 913 345
L 915 345
L 917 345
L 918 344
L 920 345
L 922 345
L 924 345
L 926 346
L 928 346
L 929 347
L 931 348
L 933 348
L 935 348
L 937 349
L 939 348
L 940 348
L 942 348
L 944 347
L 946 346
L 948 346
L 949 346
L 951 346
L 953 346
L 955 345
L 957 346
L 959 346
L 960 345
L 962 344
L 964 343
L 966 343
L 968 343
L 969 343" style="stroke-width:1;stroke:rgba(0,116,217,1.0);fill:none"/><path  d="M 38 351
L 40 351
L 42 351
L 44 351
L 46 351
L 48 351
L 49 351
L 51 351
L 53 351
L 55 350
L 57 351
L 59 351
L 60 351
L 62 350
L 64 347
L 66 344
L 68 347
L 69 349
L 71 350
L 73 345
L 75 347
L 77 346
L 79 341
L 80 344
L 82 336
L 84 348
L 86 340
L 88 345
L 90 336
L 91 335
L 93 337
L 95 344
L 97 346
L 99 346
L 100 348
L 102 347
L 104 346
L 106 345
L 108 344
L 110 349
L 111 349
L 113 347
L 115 349
L 117 350
L 119 350
L 120 351
L 122 351
L 124 351
L 126 350
L 128 351
L 130 349
L 131 351
L 133 351
L 135 351
L 137 351
L 139 350
L 141 349
L 142 351
L 144 351
L 146 350
L 148 351
L 150 350
L 151 351
L 153 351
L 155 351
L 157 351
L 159 351
L 161 351
L 162 351
L 164 350
L 166 351
L 168 351
L 170 351
L 171 351
L 173 351
L 175 351
L 177 351
L 179 351
L 181 351
L 182 351
L 184 351
L 186 351
L 188 351
L 190 350
L 192 351
L 193 351
L 195 351
L 197 351
L 199 351
L 201 351
L 202 351
L 204 351
L 206 350
L 208 351
L 210 351
L 212 351
L 213 351
L 215 351
L 217 350
L 219 351
L 221 351
L 223 351
L 224 351
L 226 350
L 228 351
L 230 351
L 232 351
L 233 351
L 235 351
L 237 351
L 239 351
L 241 351
L 243 351
L 244 351
L 246 350
L 248 351
L 250 351
L 252 351
L 253 351
L 255 351
L 257 351
L 259 351
L 261 351
L 263 351
L 264 351
L 266 351
L 268 351
L 270 351
L 272 351
L 274 351
L 275 351
L 277 351
L 279 351
L 281 351
L 283 350
L 284 350
L 286 350
L 288 350
L 290 351
L 292 350
L 294 350
L 295 351
L 297 351
L 299 351
L 301 351
L 303 350
L 304 350
L 306 350
L 308 349
L 310 350
L 312 351
L 314 351
L 315 351
L 317 350
L 319 349
L 321 351
L 323 351
L 325 351
L 326 350
L 328 351
L 330 350
L 332 351
L 334 351
L 335 350
L 337 351
L 339 351
L 341 349
L 343 350
L 345 350
L 346 348
L 348 347
L 350 349
L 352 350
L 354 348
L 356 349
L 357 348
L 359 349
L 361 349
L 363 349
L 365 348
L 366 346
L 368 348
L 370 345
L 372 349
L 374 346
L 376 343
L 377 348
L 379 345
L 381 346
L 383 340
L 385 345
L 386 348
L 388 350
L 390 348
L 392 346
L 394 344
L 396 346
L 397 344
L 399 340
L 401 348
L 403 346
L 405 332
L 407 341
L 408 343
L 410 345
L 412 344
L 414 348
L 416 348
L 417 342
L 419 342
L 421 347
L 423 348
L 425 344
L 427 344
L 428 345
L 430 341
L 432 343
L 434 344
L 436 336
L 437 336
L 439 342
L 441 332
L 443 340
L 445 332
L 447 337
L 448 341
L 450 332
L 452 337
L 454 333
L 456 325
L 458 322
L 459 335
L 461 289
L 463 321
L 465 337
L 467 340
L 468 320
L 470 315
L 472 322
L 474 296
L 476 300
L 478 313
L 479 309
L 481 313
L 483 290
L 485 284
L 487 279
L 489 268
L 490 300
L 492 310
L 494 258
L 496 260
L 498 265
L 499 268
L 501 235
L 503 290
L 505 275
L 507 255
L 509 271
L 510 249
L 512 289
L 514 289
L 516 314
L 518 278
L 519 271
L 521 270
L 523 263
L 525 269
L 527 283
L 529 287
L 530 313
L 532 283
L 534 288
L 536 293
L 538 292
L 540 314
L 541 324
L 543 327
L 545 313
L 547 318
L 549 313
L 550 322
L 552 316
L 554 309
L 556 326
L 558 327
L 560 331
L 561 324
L 563 332
L 565 328
L 567 328
L 569 340
L 570 324
L 572 331
L 574 330
L 576 333
L 578 330
L 580 336
L 581 334
L 583 336
L 585 325
L 587 329
L 589 340
L 591 336
L 592 341
L 594 332
L 596 331
L 598 330
L 600 335
L 601 334
L 603 326
L 605 335
L 607 339
L 609 337
L 611 338
L 612 334
L 614 335
L 616 333
L 618 345
L 620 346
L 622 340
L 623 338
L 625 342
L 627 342
L 629 343
L 631 339
L 632 347
L 634 339
L 636 342
L 638 336
L 640 340
L 642 341
L 643 341
L 645 346
L 647 341
L 649 344
L 651 342
L 652 343
L 654 341
L 656 344
L 658 338
L 660 340
L 662 339
L 663 343
L 665 343
L 667 343
L 669 345
L 671 343
L 673 342
L 674 346
L 676 348
L 678 345
L 680 347
L 682 347
L 683 345
L 685 349
L 687 344
L 689 345
L 691 343
L 693 342
L 694 342
L 696 345
L 698 342
L 700 341
L 702 347
L 703 344
L 705 347
L 707 346
L 709 344
L 711 341
L 713 337
L 714 342
L 716 344
L 718 339
L 720 349
L 722 341
L 724 339
L 725 336
L 727 335
L 729 332
L 731 345
L 733 331
L 734 323
L 736 335
L 738 328
L 740 333
L 742 322
L 744 325
L 745 332
L 747 329
L 749 329
L 751 326
L 753 321
L 755 325
L 756 317
L 758 321
L 760 324
L 762 316
L 764 324
L 765 317
L 767 326
L 769 312
L 771 331
L 773 324
L 775 327
L 776 323
L 778 329
L 780 330
L 782 332
L 784 338
L 785 336
L 787 327
L 789 312
L 791 324
L 793 327
L 795 331
L 796 331
L 798 328
L 800 315
L 802 323
L 804 330
L 806 326
L 807 331
L 809 328
L 811 331
L 813 325
L 815 324
L 816 327
L 818 331
L 820 337
L 822 335
L 824 333
L 826 329
L 827 334
L 829 335
L 831 341
L 833 335
L 835 341
L 836 344
L 838 339
L 840 341
L 842 345
L 844 343
L 846 339
L 847 345
L 849 343
L 851 334
L 853 337
L 855 336
L 857 344
L 858 342
L 860 343
L 862 346
L 864 347
L 866 341
L 867 338
L 869 346
L 871 342
L 873 346
L 875 344
L 877 342
L 878 346
L 880 344
L 882 344
L 884 347
L 886 344
L 888 345
L 889 339
L 891 347
L 893 346
L 895 345
L 897 349
L 898 346
L 900 349
L 902 348
L 904 350
L 906 349
L 908 348
L 909 350
L 911 350
L 913 348
L 915 349
L 917 350
L 918 348
L 920 349
L 922 350
L 924 350
L 926 350
L 928 350
L 929 350
L 931 350
L 933 350
L 935 350
L 937 351
L 939 349
L 940 350
L 942 349
L 944 348
L 946 349
L 948 350
L 949 350
L 951 350
L 953 349
L 955 349
L 957 350
L 959 348
L 960 347
L 962 348
L 964 349
L 966 349
L 968 349
L 969 349" style="stroke-width:1;stroke:rgba(0,217,101,1.0);fill:none"/><path  d="M 38 351
L 40 351
L 42 351
L 44 351
L 46 351
L 48 351
L 49 351
L 51 351
L 53 351
L 55 351
L 57 351
L 59 351
L 60 351
L 62 351
L 64 351
L 66 351
L 68 351
L 69 351
L 71 351
L 73 351
L 75 351
L 77 351
L 79 350
L 80 351
L 82 351
L 84 351
L 86 351
L 88 351
L 90 351
L 91 350
L 93 351
L 95 350
L 97 351
L 99 350
L 100 350
L 102 351
L 104 350
L 106 350
L 108 351
L 110 351
L 111 350
L 113 350
L 115 351
L 117 351
L 119 351
L 120 351
L 122 351
L 124 351
L 126 351
L 128 351
L 130 351
L 131 351
L 133 351
L 135 351
L 137 350
L 139 351
L 141 350
L 142 351
L 144 351
L 146 351
L 148 351
L 150 351
L 151 351
L 153 351
L 155 351
L 157 351
L 159 351
L 161 351
L 162 351
L 164 351
L 166 351
L 168 351
L 170 351
L 171 351
L 173 351
L 175 351
L 177 351
L 179 351
L 181 351
L 182 351
L 184 351
L 186 351
L 188 351
L 190 351
L 192 351
L 193 351
L 195 351
L 197 351
L 199 351
L 201 351
L 202 351
L 204 351
L 206 351
L 208 351
L 210 351
L 212 351
L 213 351
L 215 351
L 217 351
L 219 351
L 221 351
L 223 351
L 224 351
L 226 351
L 228 351
L 230 351
L 232 351
L 233 351
L 235 351
L 237 351
L 239 351
L 241 351
L 243 351
L 244 351
L 246 351
L 248 351
L 250 351
L 252 351
L 253 351
L 255 351
L 257 351
L 259 351
L 261 351
L 263 351
L 264 351
L 266 351
L 268 351
L 270 351
L 272 351
L 274 351
L 275 351
L 277 351
L 279 351
L 281 351
L 283 351
L 284 351
L 286 351
L 288 351
L 290 351
L 292 351
L 294 351
L 295 351
L 297 351
L 299 351
L 301 351
L 303 351
L 304 351
L 306 351
L 308 351
L 310 351
L 312 351
L 314 351
L 315 351
L 317 351
L 319 351
L 321 351
L 323 351
L 325 351
L 326 351
L 328 351
L 330 351
L 332 351
L 334 351
L 335 351
L 337 351
L 339 351
L 341 351
L 343 351
L 345 351
L 346 351
L 348 351
L 350 351
L 352 351
L 354 351
L 356 351
L 357 351
L 359 351
L 361 351
L 363 351
L 365 351
L 366 351
L 368 351
L 370 351
L 372 351
L 374 351
L 376 351
L 377 351
L 379 351
L 381 351
L 383 351
L 385 351
L 386 351
L 388 351
L 390 351
L 392 351
L 394 351
L 396 351
L 397 351
L 399 351
L 401 350
L 403 351
L 405 351
L 407 351
L 408 351
L 410 351
L 412 351
L 414 351
L 416 351
L 417 351
L 419 351
L 421 351
L 423 351
L 425 351
L 427 351
L 428 351
L 430 351
L 432 351
L 434 351
L 436 351
L 437 351
L 439 351
L 441 351
L 443 351
L 445 351
L 447 351
L 448 350
L 450 351
L 452 351
L 454 351
L 456 351
L 458 351
L 459 351
L 461 351
L 463 351
L 465 351
L 467 351
L 468 351
L 470 351
L 472 351
L 474 351
L 476 351
L 478 351
L 479 351
L 481 351
L 483 350
L 485 350
L 487 351
L 489 351
L 490 351
L 492 350
L 494 350
L 496 350
L 498 351
L 499 350
L 501 351
L 503 350
L 505 351
L 507 350
L 509 350
L 510 350
L 512 350
L 514 350
L 516 349
L 518 350
L 519 349
L 521 350
L 523 350
L 525 350
L 527 349
L 529 350
L 530 349
L 532 349
L 534 349
L 536 349
L 538 350
L 540 348
L 541 350
L 543 350
L 545 350
L 547 350
L 549 350
L 550 350
L 552 350
L 554 351
L 556 349
L 558 350
L 560 349
L 561 349
L 563 350
L 565 351
L 567 350
L 569 350
L 570 349
L 572 350
L 574 351
L 576 350
L 578 351
L 580 351
L 581 350
L 583 351
L 585 351
L 587 350
L 589 350
L 591 350
L 592 351
L 594 351
L 596 350
L 598 351
L 600 350
L 601 350
L 603 351
L 605 350
L 607 351
L 609 350
L 611 350
L 612 351
L 614 351
L 616 350
L 618 351
L 620 351
L 622 351
L 623 351
L 625 351
L 627 350
L 629 351
L 631 350
L 632 351
L 634 350
L 636 351
L 638 350
L 640 351
L 642 350
L 643 351
L 645 351
L 647 351
L 649 351
L 651 350
L 652 351
L 654 351
L 656 351
L 658 350
L 660 351
L 662 351
L 663 351
L 665 351
L 667 351
L 669 351
L 671 351
L 673 351
L 674 350
L 676 351
L 678 351
L 680 351
L 682 351
L 683 350
L 685 351
L 687 350
L 689 350
L 691 350
L 693 351
L 694 351
L 696 351
L 698 350
L 700 351
L 702 351
L 703 351
L 705 351
L 707 351
L 709 351
L 711 351
L 713 351
L 714 351
L 716 350
L 718 350
L 720 351
L 722 350
L 724 351
L 725 351
L 727 351
L 729 351
L 731 351
L 733 351
L 734 351
L 736 351
L 738 351
L 740 351
L 742 351
L 744 351
L 745 351
L 747 351
L 749 351
L 751 351
L 753 351
L 755 351
L 756 351
L 758 351
L 760 351
L 762 350
L 764 350
L 765 351
L 767 351
L 769 351
L 771 351
L 773 351
L 775 351
L 776 351
L 778 350
L 780 351
L 782 351
L 784 351
L 785 351
L 787 351
L 789 351
L 791 351
L 793 351
L 795 351
L 796 351
L 798 351
L 800 351
L 802 351
L 804 351
L 806 351
L 807 351
L 809 351
L 811 351
L 813 351
L 815 351
L 816 351
L 818 351
L 820 351
L 822 351
L 824 351
L 826 351
L 827 351
L 829 351
L 831 351
L 833 351
L 835 351
L 836 351
L 838 351
L 840 351
L 842 351
L 844 351
L 846 351
L 847 351
L 849 351
L 851 351
L 853 351
L 855 351
L 857 351
L 858 351
L 860 351
L 862 351
L 864 351
L 866 351
L 867 351
L 869 351
L 871 351
L 873 351
L 875 351
L 877 351
L 878 351
L 880 351
L 882 351
L 884 351
L 886 351
L 888 351
L 889 351
L 891 351
L 893 351
L 895 351
L 897 351
L 898 351
L 900 351
L 902 351
L 904 351
L 906 351
L 908 351
L 909 351
L 911 351
L 913 351
L 915 351
L 917 351
L 918 351
L 920 351
L 922 351
L 924 351
L 926 351
L 928 351
L 929 351
L 931 351
L 933 351
L 935 351
L 937 351
L 939 351
L 940 351
L 942 351
L 944 351
L 946 351
L 948 351
L 949 351
L 951 351
L 953 351
L 955 351
L 957 351
L 959 351
L 960 351
L 962 351
L 964 351
L 966 351
L 968 351
L 969 351" style="stroke-width:1;stroke:rgba(217,0,116,1.0);fill:none"/><text x="370" y="33" style="stroke-width:0;stroke:none;fill:rgba(51,51,51,1.0);font-size:23.0px;font-family:'Roboto Medium',sans-serif">Innsbruck-Land 21.07.2021</text><path  d="M 38 11
L 251 11
L 251 91
L 38 91
L 38 11" style="stroke-width:1;stroke:rgba(51,51,51,1.0);fill:rgba(255,255,255,1.0)"/><text x="43" y="26" style="stroke-width:0;stroke:none;fill:rgba(51,51,51,1.0);font-size:10.2px;font-family:'Roboto Medium',sans-serif">Sieben Tage Durschnitt Inzidenz Fälle</text><path  d="M 221 21
L 241 21" style="stroke-width:1;stroke:rgba(0,116,217,1.0);fill:none"/><text x="43" y="56" style="stroke-width:0;stroke:none;fill:rgba(51,51,51,1.0);font-size:10.2px;font-family:'Roboto Medium',sans-serif">Anzahl Faelle</text><path  d="M 110 51
L 241 51" style="stroke-width:1;stroke:rgba(0,217,101,1.0);fill:none"/><text x="43" y="86" style="stroke-width:0;stroke:none;fill:rgba(51,51,51,1.0);font-size:10.2px;font-family:'Roboto Medium',sans-serif">Anzahl Tot</text><path  d="M 98 81
L 241 81" style="stroke-width:1;stroke:rgba(217,0,116,1.0);fill:none"/></svg>