<svg xmlns="http://www.w3.org/2000/svg" xmlns:xlink="http://www.w3.org/1999/xlink" width="1024" height="400">\n<path  d="M 0 0
L 1024 0
L 1024 400
L 0 400
L 0 0" style="stroke-width:0;stroke:rgba(255,255,255,1.0);fill:rgba(255,255,255,1.0)"/><path  d="M 38 11
L 961 11
L 961 351
L 38 351
L 38 11" style="stroke-width:0;stroke:rgba(255,255,255,1.0);fill:rgba(255,255,255,1.0)"/><path  d="M 38 351
L 961 351" style="stroke-width:1;stroke:rgba(51,51,51,1.0);fill:none"/><path  d="M 38 351
L 38 356" style="stroke-width:1;stroke:rgba(51,51,51,1.0);fill:none"/><text x="5" y="373" style="stroke-width:0;stroke:none;fill:rgba(51,51,51,1.0);font-size:12.8px;font-family:'Roboto Medium',sans-serif">2020-02-26</text><path  d="M 154 351
L 154 356" style="stroke-width:1;stroke:rgba(51,51,51,1.0);fill:none"/><text x="121" y="373" style="stroke-width:0;stroke:none;fill:rgba(51,51,51,1.0);font-size:12.8px;font-family:'Roboto Medium',sans-serif">2020-05-22</text><path  d="M 269 351
L 269 356" style="stroke-width:1;stroke:rgba(51,51,51,1.0);fill:none"/><text x="236" y="373" style="stroke-width:0;stroke:none;fill:rgba(51,51,51,1.0);font-size:12.8px;font-family:'Roboto Medium',sans-serif">2020-08-17</text><path  d="M 385 351
L 385 356" style="stroke-width:1;stroke:rgba(51,51,51,1.0);fill:none"/><text x="352" y="373" style="stroke-width:0;stroke:none;fill:rgba(51,51,51,1.0);font-size:12.8px;font-family:'Roboto Medium',sans-serif">2020-11-12</text><path  d="M 500 351
L 500 356" style="stroke-width:1;stroke:rgba(51,51,51,1.0);fill:none"/><text x="467" y="373" style="stroke-width:0;stroke:none;fill:rgba(51,51,51,1.0);font-size:12.8px;font-family:'Roboto Medium',sans-serif">2021-02-07</text><path  d="M 615 351
L 615 356" style="stroke-width:1;stroke:rgba(51,51,51,1.0);fill:none"/><text x="582" y="373" style="stroke-width:0;stroke:none;fill:rgba(51,51,51,1.0);font-size:12.8px;font-family:'Roboto Medium',sans-serif">2021-05-04</text><path  d="M 731 351
L 731 356" style="stroke-width:1;stroke:rgba(51,51,51,1.0);fill:none"/><text x="698" y="373" style="stroke-width:0;stroke:none;fill:rgba(51,51,51,1.0);font-size:12.8px;font-family:'Roboto Medium',sans-serif">2021-07-30</text><path  d="M 846 351
L 846 356" style="stroke-width:1;stroke:rgba(51,51,51,1.0);fill:none"/><text x="813" y="373" style="stroke-width:0;stroke:none;fill:rgba(51,51,51,1.0);font-size:12.8px;font-family:'Roboto Medium',sans-serif">2021-10-25</text><path  d="M 961 351
L 961 356" style="stroke-width:1;stroke:rgba(51,51,51,1.0);fill:none"/><text x="928" y="373" style="stroke-width:0;stroke:none;fill:rgba(51,51,51,1.0);font-size:12.8px;font-family:'Roboto Medium',sans-serif">2022-01-20</text><text x="481" y="395" style="stroke-width:0;stroke:none;fill:rgba(51,51,51,1.0);font-size:12.8px;font-family:'Roboto Medium',sans-serif">Datum</text><path  d="M 962 351
L 962 11" style="stroke-width:1;stroke:rgba(51,51,51,1.0);fill:none"/><path  d="M 962 351
L 967 351" style="stroke-width:1;stroke:rgba(51,51,51,1.0);fill:none"/><text x="972" y="357" style="stroke-width:0;stroke:none;fill:rgba(51,51,51,1.0);font-size:12.8px;font-family:'Roboto Medium',sans-serif">0.00</text><path  d="M 962 308
L 967 308" style="stroke-width:1;stroke:rgba(51,51,51,1.0);fill:none"/><text x="972" y="314" style="stroke-width:0;stroke:none;fill:rgba(51,51,51,1.0);font-size:12.8px;font-family:'Roboto Medium',sans-serif">250.00</text><path  d="M 962 266
L 967 266" style="stroke-width:1;stroke:rgba(51,51,51,1.0);fill:none"/><text x="972" y="272" style="stroke-width:0;stroke:none;fill:rgba(51,51,51,1.0);font-size:12.8px;font-family:'Roboto Medium',sans-serif">500.00</text><path  d="M 962 223
L 967 223" style="stroke-width:1;stroke:rgba(51,51,51,1.0);fill:none"/><text x="972" y="229" style="stroke-width:0;stroke:none;fill:rgba(51,51,51,1.0);font-size:12.8px;font-family:'Roboto Medium',sans-serif">750.00</text><path  d="M 962 181
L 967 181" style="stroke-width:1;stroke:rgba(51,51,51,1.0);fill:none"/><text x="972" y="187" style="stroke-width:0;stroke:none;fill:rgba(51,51,51,1.0);font-size:12.8px;font-family:'Roboto Medium',sans-serif">1000.00</text><path  d="M 962 138
L 967 138" style="stroke-width:1;stroke:rgba(51,51,51,1.0);fill:none"/><text x="972" y="144" style="stroke-width:0;stroke:none;fill:rgba(51,51,51,1.0);font-size:12.8px;font-family:'Roboto Medium',sans-serif">1250.00</text><path  d="M 962 96
L 967 96" style="stroke-width:1;stroke:rgba(51,51,51,1.0);fill:none"/><text x="972" y="102" style="stroke-width:0;stroke:none;fill:rgba(51,51,51,1.0);font-size:12.8px;font-family:'Roboto Medium',sans-serif">1500.00</text><path  d="M 962 53
L 967 53" style="stroke-width:1;stroke:rgba(51,51,51,1.0);fill:none"/><text x="972" y="59" style="stroke-width:0;stroke:none;fill:rgba(51,51,51,1.0);font-size:12.8px;font-family:'Roboto Medium',sans-serif">1750.00</text><path  d="M 962 11
L 967 11" style="stroke-width:1;stroke:rgba(51,51,51,1.0);fill:none"/><text x="972" y="17" style="stroke-width:0;stroke:none;fill:rgba(51,51,51,1.0);font-size:12.8px;font-family:'Roboto Medium',sans-serif">2000.00</text><path  d="M 38 351
L 40 351
L 41 351
L 42 351
L 44 351
L 45 351
L 46 351
L 48 350
L 49 350
L 50 350
L 52 350
L 53 349
L 54 349
L 56 349
L 57 347
L 58 346
L 60 344
L 61 343
L 62 342
L 64 340
L 65 338
L 66 338
L 68 336
L 69 334
L 70 331
L 72 331
L 73 328
L 74 329
L 76 328
L 77 328
L 78 329
L 80 332
L 81 333
L 82 338
L 84 338
L 85 341
L 86 343
L 88 345
L 89 346
L 90 346
L 92 347
L 93 347
L 94 348
L 96 348
L 97 348
L 98 349
L 100 349
L 101 349
L 102 349
L 104 349
L 105 350
L 106 350
L 108 350
L 109 350
L 110 350
L 112 349
L 113 349
L 114 349
L 116 349
L 117 348
L 118 349
L 120 348
L 121 349
L 122 349
L 124 349
L 125 349
L 126 349
L 128 350
L 129 350
L 130 350
L 132 350
L 133 350
L 134 350
L 136 350
L 137 350
L 138 351
L 140 350
L 141 350
L 142 350
L 144 350
L 145 350
L 146 350
L 148 350
L 149 351
L 150 351
L 152 351
L 153 351
L 154 351
L 156 351
L 157 351
L 158 351
L 160 351
L 161 351
L 162 351
L 164 351
L 165 351
L 166 351
L 168 351
L 169 351
L 170 351
L 171 351
L 173 351
L 174 351
L 175 351
L 177 351
L 178 351
L 179 351
L 181 351
L 182 351
L 183 351
L 185 351
L 186 351
L 187 351
L 189 351
L 190 351
L 191 351
L 193 350
L 194 350
L 195 350
L 197 350
L 198 350
L 199 350
L 201 350
L 202 350
L 203 350
L 205 350
L 206 350
L 207 350
L 209 350
L 210 350
L 211 350
L 213 350
L 214 350
L 215 350
L 217 350
L 218 350
L 219 350
L 221 350
L 222 349
L 223 349
L 225 349
L 226 349
L 227 349
L 229 349
L 230 349
L 231 350
L 233 350
L 234 350
L 235 350
L 237 350
L 238 349
L 239 349
L 241 349
L 242 349
L 243 349
L 245 349
L 246 349
L 247 350
L 249 350
L 250 350
L 251 350
L 253 350
L 254 350
L 255 350
L 257 350
L 258 350
L 259 349
L 261 347
L 262 346
L 263 341
L 265 339
L 266 338
L 267 336
L 269 335
L 270 336
L 271 337
L 273 341
L 274 340
L 275 340
L 277 341
L 278 342
L 279 342
L 281 342
L 282 342
L 283 343
L 285 343
L 286 342
L 287 342
L 289 342
L 290 341
L 291 340
L 293 341
L 294 341
L 295 340
L 297 339
L 298 339
L 299 337
L 301 335
L 302 332
L 303 332
L 304 331
L 306 329
L 307 329
L 308 331
L 310 332
L 311 332
L 312 331
L 314 332
L 315 332
L 316 333
L 318 333
L 319 334
L 320 335
L 322 336
L 323 336
L 324 338
L 326 338
L 327 338
L 328 337
L 330 334
L 331 333
L 332 330
L 334 329
L 335 326
L 336 323
L 338 323
L 339 325
L 340 322
L 342 323
L 343 321
L 344 319
L 346 314
L 347 311
L 348 307
L 350 307
L 351 309
L 352 301
L 354 301
L 355 302
L 356 292
L 358 288
L 359 284
L 360 277
L 362 282
L 363 272
L 364 270
L 366 272
L 367 266
L 368 259
L 370 261
L 371 253
L 372 254
L 374 250
L 375 249
L 376 244
L 378 249
L 379 242
L 380 242
L 382 243
L 383 241
L 384 245
L 386 258
L 387 263
L 388 268
L 390 270
L 391 275
L 392 280
L 394 280
L 395 282
L 396 281
L 398 282
L 399 285
L 400 284
L 402 288
L 403 291
L 404 289
L 406 289
L 407 295
L 408 299
L 410 306
L 411 308
L 412 311
L 414 313
L 415 315
L 416 314
L 418 316
L 419 318
L 420 319
L 422 320
L 423 325
L 424 325
L 426 327
L 427 327
L 428 327
L 430 329
L 431 330
L 432 330
L 434 332
L 435 331
L 436 332
L 437 332
L 439 333
L 440 335
L 441 336
L 443 337
L 444 338
L 445 340
L 447 338
L 448 338
L 449 337
L 451 335
L 452 334
L 453 334
L 455 334
L 456 336
L 457 335
L 459 335
L 460 337
L 461 337
L 463 337
L 464 337
L 465 337
L 467 338
L 468 337
L 469 339
L 471 338
L 472 338
L 473 338
L 475 339
L 476 339
L 477 340
L 479 338
L 480 340
L 481 340
L 483 339
L 484 339
L 485 339
L 487 340
L 488 340
L 489 341
L 491 339
L 492 339
L 493 339
L 495 339
L 496 339
L 497 340
L 499 339
L 500 341
L 501 342
L 503 343
L 504 343
L 505 343
L 507 344
L 508 343
L 509 342
L 511 343
L 512 342
L 513 342
L 515 341
L 516 342
L 517 341
L 519 342
L 520 342
L 521 342
L 523 342
L 524 342
L 525 342
L 527 343
L 528 343
L 529 342
L 531 342
L 532 342
L 533 340
L 535 340
L 536 339
L 537 339
L 539 339
L 540 339
L 541 338
L 543 335
L 544 335
L 545 331
L 547 328
L 548 327
L 549 324
L 551 323
L 552 324
L 553 320
L 555 321
L 556 322
L 557 321
L 559 321
L 560 318
L 561 317
L 563 318
L 564 316
L 565 314
L 566 311
L 568 308
L 569 307
L 570 308
L 572 307
L 573 309
L 574 310
L 576 311
L 577 312
L 578 316
L 580 316
L 581 318
L 582 317
L 584 317
L 585 317
L 586 316
L 588 313
L 589 312
L 590 310
L 592 311
L 593 310
L 594 309
L 596 308
L 597 309
L 598 311
L 600 313
L 601 314
L 602 315
L 604 315
L 605 318
L 606 319
L 608 316
L 609 315
L 610 315
L 612 315
L 613 318
L 614 318
L 616 321
L 617 326
L 618 330
L 620 331
L 621 331
L 622 332
L 624 334
L 625 334
L 626 334
L 628 334
L 629 335
L 630 337
L 632 337
L 633 337
L 634 338
L 636 338
L 637 339
L 638 340
L 640 340
L 641 343
L 642 343
L 644 343
L 645 343
L 646 343
L 648 344
L 649 344
L 650 342
L 652 342
L 653 340
L 654 340
L 656 338
L 657 337
L 658 336
L 660 336
L 661 337
L 662 338
L 664 338
L 665 340
L 666 341
L 668 342
L 669 344
L 670 345
L 672 346
L 673 347
L 674 347
L 676 348
L 677 349
L 678 349
L 680 349
L 681 349
L 682 349
L 684 350
L 685 350
L 686 350
L 688 350
L 689 350
L 690 350
L 692 350
L 693 350
L 694 350
L 696 350
L 697 350
L 698 350
L 699 349
L 701 349
L 702 349
L 703 349
L 705 349
L 706 349
L 707 349
L 709 349
L 710 347
L 711 347
L 713 347
L 714 347
L 715 347
L 717 346
L 718 346
L 719 346
L 721 347
L 722 346
L 723 346
L 725 347
L 726 346
L 727 347
L 729 348
L 730 347
L 731 348
L 733 346
L 734 345
L 735 345
L 737 344
L 738 343
L 739 343
L 741 342
L 742 342
L 743 342
L 745 343
L 746 342
L 747 341
L 749 339
L 750 339
L 751 339
L 753 338
L 754 337
L 755 335
L 757 335
L 758 335
L 759 335
L 761 335
L 762 334
L 763 334
L 765 333
L 766 333
L 767 334
L 769 333
L 770 332
L 771 332
L 773 332
L 774 331
L 775 331
L 777 329
L 778 329
L 779 329
L 781 328
L 782 326
L 783 328
L 785 327
L 786 328
L 787 330
L 789 330
L 790 328
L 791 330
L 793 332
L 794 334
L 795 335
L 797 334
L 798 334
L 799 336
L 801 337
L 802 336
L 803 335
L 805 334
L 806 333
L 807 332
L 809 332
L 810 328
L 811 328
L 813 328
L 814 329
L 815 327
L 817 327
L 818 328
L 819 327
L 821 328
L 822 327
L 823 326
L 825 327
L 826 327
L 827 327
L 829 331
L 830 330
L 831 330
L 832 332
L 834 332
L 835 331
L 836 330
L 838 327
L 839 325
L 840 323
L 842 320
L 843 318
L 844 318
L 846 316
L 847 317
L 848 316
L 850 312
L 851 308
L 852 302
L 854 300
L 855 298
L 856 290
L 858 283
L 859 281
L 860 279
L 862 277
L 863 271
L 864 268
L 866 262
L 867 260
L 868 249
L 870 236
L 871 233
L 872 224
L 874 213
L 875 198
L 876 180
L 878 176
L 879 171
L 880 162
L 882 169
L 883 161
L 884 170
L 886 177
L 887 179
L 888 190
L 890 199
L 891 195
L 892 210
L 894 214
L 895 230
L 896 242
L 898 251
L 899 262
L 900 269
L 902 276
L 903 287
L 904 291
L 906 295
L 907 299
L 908 301
L 910 306
L 911 308
L 912 312
L 914 310
L 915 312
L 916 315
L 918 316
L 919 315
L 920 316
L 922 315
L 923 315
L 924 315
L 926 314
L 927 314
L 928 314
L 930 313
L 931 312
L 932 311
L 934 305
L 935 299
L 936 294
L 938 290
L 939 273
L 940 255
L 942 243
L 943 231
L 944 225
L 946 212
L 947 197
L 948 188
L 950 184
L 951 168
L 952 149
L 954 126
L 955 114
L 956 102
L 958 87
L 959 49
L 960 35
L 961 14" style="stroke-width:1;stroke:rgba(0,116,217,1.0);fill:none"/><path  d="M 38 351
L 40 351
L 41 351
L 42 351
L 44 351
L 45 351
L 46 351
L 48 350
L 49 351
L 50 350
L 52 351
L 53 350
L 54 350
L 56 350
L 57 348
L 58 349
L 60 347
L 61 349
L 62 349
L 64 347
L 65 347
L 66 348
L 68 347
L 69 345
L 70 345
L 72 348
L 73 343
L 74 349
L 76 346
L 77 347
L 78 347
L 80 349
L 81 349
L 82 350
L 84 350
L 85 350
L 86 350
L 88 349
L 89 349
L 90 350
L 92 350
L 93 351
L 94 351
L 96 350
L 97 350
L 98 351
L 100 350
L 101 351
L 102 350
L 104 350
L 105 351
L 106 351
L 108 351
L 109 350
L 110 350
L 112 350
L 113 350
L 114 351
L 116 350
L 117 350
L 118 350
L 120 350
L 121 351
L 122 350
L 124 350
L 125 351
L 126 350
L 128 351
L 129 350
L 130 351
L 132 351
L 133 351
L 134 351
L 136 351
L 137 351
L 138 351
L 140 350
L 141 351
L 142 351
L 144 351
L 145 351
L 146 351
L 148 351
L 149 351
L 150 351
L 152 351
L 153 351
L 154 351
L 156 351
L 157 351
L 158 351
L 160 351
L 161 351
L 162 351
L 164 351
L 165 351
L 166 351
L 168 351
L 169 351
L 170 351
L 171 351
L 173 351
L 174 351
L 175 351
L 177 351
L 178 351
L 179 351
L 181 351
L 182 351
L 183 351
L 185 351
L 186 351
L 187 351
L 189 351
L 190 351
L 191 351
L 193 350
L 194 351
L 195 351
L 197 350
L 198 350
L 199 351
L 201 351
L 202 350
L 203 350
L 205 350
L 206 351
L 207 350
L 209 351
L 210 350
L 211 351
L 213 351
L 214 350
L 215 350
L 217 350
L 218 350
L 219 350
L 221 351
L 222 350
L 223 350
L 225 350
L 226 350
L 227 351
L 229 351
L 230 351
L 231 350
L 233 350
L 234 351
L 235 350
L 237 350
L 238 350
L 239 351
L 241 350
L 242 350
L 243 351
L 245 350
L 246 351
L 247 351
L 249 351
L 250 350
L 251 350
L 253 350
L 254 351
L 255 350
L 257 351
L 258 350
L 259 349
L 261 348
L 262 348
L 263 344
L 265 348
L 266 350
L 267 348
L 269 347
L 270 349
L 271 350
L 273 349
L 274 347
L 275 350
L 277 349
L 278 349
L 279 348
L 281 349
L 282 350
L 283 349
L 285 349
L 286 349
L 287 348
L 289 348
L 290 348
L 291 349
L 293 349
L 294 350
L 295 348
L 297 347
L 298 347
L 299 346
L 301 346
L 302 345
L 303 349
L 304 347
L 306 345
L 307 347
L 308 348
L 310 348
L 311 345
L 312 348
L 314 349
L 315 346
L 316 347
L 318 348
L 319 348
L 320 347
L 322 349
L 323 349
L 324 347
L 326 348
L 327 348
L 328 347
L 330 344
L 331 348
L 332 345
L 334 345
L 335 344
L 336 345
L 338 347
L 339 347
L 340 344
L 342 346
L 343 342
L 344 342
L 346 338
L 347 343
L 348 341
L 350 345
L 351 348
L 352 333
L 354 341
L 355 340
L 356 330
L 358 336
L 359 340
L 360 339
L 362 338
L 363 329
L 364 336
L 366 333
L 367 327
L 368 331
L 370 340
L 371 328
L 372 331
L 374 330
L 375 332
L 376 320
L 378 339
L 379 330
L 380 329
L 382 332
L 383 328
L 384 336
L 386 338
L 387 345
L 388 338
L 390 332
L 391 337
L 392 334
L 394 336
L 395 341
L 396 344
L 398 340
L 399 336
L 400 336
L 402 339
L 403 339
L 404 339
L 406 344
L 407 347
L 408 342
L 410 345
L 411 343
L 412 344
L 414 341
L 415 347
L 416 345
L 418 345
L 419 347
L 420 344
L 422 346
L 423 347
L 424 346
L 426 348
L 427 344
L 428 348
L 430 346
L 431 348
L 432 346
L 434 349
L 435 347
L 436 345
L 437 347
L 439 347
L 440 350
L 441 348
L 443 350
L 444 349
L 445 348
L 447 345
L 448 348
L 449 348
L 451 346
L 452 348
L 453 349
L 455 347
L 456 348
L 457 346
L 459 349
L 460 348
L 461 348
L 463 349
L 464 347
L 465 348
L 467 348
L 468 348
L 469 350
L 471 347
L 472 349
L 473 348
L 475 349
L 476 348
L 477 349
L 479 348
L 480 349
L 481 349
L 483 347
L 484 348
L 485 349
L 487 349
L 488 348
L 489 350
L 491 347
L 492 348
L 493 348
L 495 349
L 496 349
L 497 349
L 499 350
L 500 349
L 501 349
L 503 349
L 504 349
L 505 350
L 507 349
L 508 349
L 509 348
L 511 349
L 512 348
L 513 348
L 515 350
L 516 349
L 517 348
L 519 349
L 520 349
L 521 349
L 523 348
L 524 350
L 525 350
L 527 350
L 528 348
L 529 348
L 531 349
L 532 348
L 533 347
L 535 349
L 536 349
L 537 349
L 539 348
L 540 349
L 541 347
L 543 343
L 544 348
L 545 345
L 547 345
L 548 347
L 549 345
L 551 346
L 552 344
L 553 342
L 555 346
L 556 346
L 557 346
L 559 345
L 560 342
L 561 343
L 563 343
L 564 343
L 565 344
L 566 342
L 568 341
L 569 341
L 570 344
L 572 342
L 573 344
L 574 345
L 576 344
L 577 343
L 578 345
L 580 344
L 581 345
L 582 343
L 584 346
L 585 344
L 586 341
L 588 342
L 589 343
L 590 343
L 592 344
L 593 344
L 594 341
L 596 341
L 597 343
L 598 345
L 600 345
L 601 345
L 602 346
L 604 342
L 605 345
L 606 344
L 608 341
L 609 344
L 610 345
L 612 347
L 613 345
L 614 346
L 616 348
L 617 348
L 618 348
L 620 346
L 621 347
L 622 346
L 624 347
L 625 348
L 626 348
L 628 348
L 629 347
L 630 350
L 632 346
L 633 348
L 634 349
L 636 349
L 637 349
L 638 349
L 640 349
L 641 350
L 642 348
L 644 349
L 645 349
L 646 349
L 648 350
L 649 350
L 650 347
L 652 347
L 653 347
L 654 349
L 656 347
L 657 348
L 658 348
L 660 348
L 661 349
L 662 349
L 664 349
L 665 349
L 666 349
L 668 349
L 669 350
L 670 350
L 672 350
L 673 350
L 674 350
L 676 350
L 677 351
L 678 350
L 680 350
L 681 351
L 682 351
L 684 351
L 685 351
L 686 351
L 688 350
L 689 351
L 690 351
L 692 350
L 693 351
L 694 351
L 696 351
L 697 350
L 698 350
L 699 350
L 701 351
L 702 350
L 703 350
L 705 350
L 706 350
L 707 351
L 709 349
L 710 349
L 711 349
L 713 351
L 714 350
L 715 349
L 717 350
L 718 349
L 719 349
L 721 350
L 722 350
L 723 350
L 725 350
L 726 349
L 727 350
L 729 349
L 730 350
L 731 351
L 733 349
L 734 349
L 735 349
L 737 348
L 738 349
L 739 349
L 741 349
L 742 349
L 743 349
L 745 349
L 746 348
L 747 348
L 749 347
L 750 348
L 751 349
L 753 349
L 754 348
L 755 345
L 757 347
L 758 346
L 759 349
L 761 349
L 762 348
L 763 348
L 765 344
L 766 347
L 767 347
L 769 348
L 770 348
L 771 348
L 773 348
L 774 343
L 775 347
L 777 345
L 778 347
L 779 349
L 781 346
L 782 345
L 783 346
L 785 346
L 786 346
L 787 349
L 789 349
L 790 344
L 791 347
L 793 348
L 794 348
L 795 348
L 797 349
L 798 349
L 799 347
L 801 348
L 802 346
L 803 347
L 805 346
L 806 348
L 807 348
L 809 346
L 810 343
L 811 346
L 813 347
L 814 347
L 815 346
L 817 348
L 818 346
L 819 342
L 821 347
L 822 346
L 823 345
L 825 347
L 826 349
L 827 347
L 829 346
L 830 346
L 831 346
L 832 347
L 834 347
L 835 347
L 836 346
L 838 343
L 839 343
L 840 344
L 842 343
L 843 345
L 844 348
L 846 344
L 847 343
L 848 342
L 850 340
L 851 336
L 852 337
L 854 345
L 855 341
L 856 333
L 858 333
L 859 337
L 860 334
L 862 334
L 863 336
L 864 338
L 866 326
L 867 330
L 868 323
L 870 317
L 871 330
L 872 325
L 874 323
L 875 306
L 876 306
L 878 318
L 879 310
L 880 318
L 882 334
L 883 312
L 884 319
L 886 315
L 887 320
L 888 325
L 890 329
L 891 329
L 892 331
L 894 324
L 895 337
L 896 336
L 898 336
L 899 343
L 900 339
L 902 340
L 903 339
L 904 343
L 906 340
L 907 342
L 908 345
L 910 346
L 911 342
L 912 344
L 914 341
L 915 343
L 916 346
L 918 347
L 919 345
L 920 343
L 922 342
L 923 341
L 924 344
L 926 344
L 927 346
L 928 346
L 930 342
L 931 341
L 932 339
L 934 336
L 935 336
L 936 340
L 938 341
L 939 319
L 940 318
L 942 323
L 943 320
L 944 328
L 946 323
L 947 321
L 948 308
L 950 313
L 951 303
L 952 295
L 954 297
L 955 308
L 956 305
L 958 288
L 959 263
L 960 284
L 961 268" style="stroke-width:1;stroke:rgba(0,217,101,1.0);fill:none"/><path  d="M 38 351
L 40 351
L 41 351
L 42 351
L 44 351
L 45 351
L 46 351
L 48 351
L 49 351
L 50 351
L 52 351
L 53 351
L 54 351
L 56 351
L 57 351
L 58 351
L 60 351
L 61 351
L 62 351
L 64 351
L 65 351
L 66 351
L 68 351
L 69 351
L 70 351
L 72 351
L 73 351
L 74 350
L 76 351
L 77 351
L 78 351
L 80 351
L 81 351
L 82 351
L 84 350
L 85 351
L 86 351
L 88 351
L 89 351
L 90 351
L 92 351
L 93 351
L 94 351
L 96 351
L 97 350
L 98 351
L 100 351
L 101 351
L 102 350
L 104 351
L 105 351
L 106 351
L 108 351
L 109 351
L 110 351
L 112 351
L 113 351
L 114 351
L 116 351
L 117 351
L 118 351
L 120 351
L 121 351
L 122 351
L 124 351
L 125 351
L 126 351
L 128 351
L 129 351
L 130 351
L 132 351
L 133 351
L 134 351
L 136 351
L 137 351
L 138 351
L 140 351
L 141 351
L 142 351
L 144 351
L 145 351
L 146 351
L 148 351
L 149 351
L 150 351
L 152 351
L 153 351
L 154 351
L 156 351
L 157 351
L 158 351
L 160 351
L 161 351
L 162 351
L 164 351
L 165 351
L 166 351
L 168 351
L 169 351
L 170 351
L 171 351
L 173 351
L 174 351
L 175 351
L 177 351
L 178 351
L 179 351
L 181 351
L 182 351
L 183 351
L 185 351
L 186 351
L 187 351
L 189 351
L 190 351
L 191 351
L 193 351
L 194 351
L 195 351
L 197 351
L 198 351
L 199 351
L 201 351
L 202 351
L 203 351
L 205 351
L 206 351
L 207 351
L 209 351
L 210 351
L 211 351
L 213 351
L 214 351
L 215 351
L 217 351
L 218 351
L 219 351
L 221 351
L 222 351
L 223 351
L 225 351
L 226 351
L 227 351
L 229 351
L 230 351
L 231 351
L 233 351
L 234 351
L 235 351
L 237 351
L 238 351
L 239 351
L 241 351
L 242 351
L 243 351
L 245 351
L 246 351
L 247 351
L 249 351
L 250 351
L 251 351
L 253 351
L 254 351
L 255 351
L 257 351
L 258 351
L 259 351
L 261 351
L 262 351
L 263 351
L 265 351
L 266 351
L 267 351
L 269 351
L 270 351
L 271 351
L 273 351
L 274 351
L 275 351
L 277 351
L 278 351
L 279 351
L 281 351
L 282 351
L 283 351
L 285 351
L 286 351
L 287 351
L 289 351
L 290 351
L 291 351
L 293 351
L 294 351
L 295 351
L 297 351
L 298 351
L 299 351
L 301 351
L 302 351
L 303 351
L 304 351
L 306 351
L 307 351
L 308 351
L 310 351
L 311 351
L 312 351
L 314 351
L 315 351
L 316 351
L 318 351
L 319 351
L 320 351
L 322 351
L 323 351
L 324 351
L 326 351
L 327 351
L 328 351
L 330 351
L 331 351
L 332 351
L 334 351
L 335 350
L 336 351
L 338 351
L 339 351
L 340 351
L 342 350
L 343 351
L 344 351
L 346 351
L 347 350
L 348 351
L 350 351
L 351 350
L 352 350
L 354 351
L 355 351
L 356 351
L 358 350
L 359 350
L 360 350
L 362 351
L 363 350
L 364 351
L 366 351
L 367 350
L 368 350
L 370 351
L 371 350
L 372 350
L 374 350
L 375 350
L 376 350
L 378 350
L 379 350
L 380 351
L 382 350
L 383 350
L 384 350
L 386 350
L 387 351
L 388 350
L 390 350
L 391 350
L 392 350
L 394 350
L 395 351
L 396 350
L 398 350
L 399 350
L 400 351
L 402 350
L 403 351
L 404 350
L 406 351
L 407 351
L 408 351
L 410 350
L 411 351
L 412 351
L 414 350
L 415 351
L 416 351
L 418 350
L 419 351
L 420 351
L 422 350
L 423 350
L 424 351
L 426 350
L 427 350
L 428 350
L 430 350
L 431 351
L 432 350
L 434 350
L 435 350
L 436 351
L 437 350
L 439 350
L 440 350
L 441 351
L 443 351
L 444 351
L 445 351
L 447 351
L 448 351
L 449 351
L 451 351
L 452 351
L 453 351
L 455 351
L 456 351
L 457 351
L 459 351
L 460 351
L 461 351
L 463 350
L 464 351
L 465 350
L 467 351
L 468 351
L 469 351
L 471 351
L 472 351
L 473 351
L 475 350
L 476 351
L 477 351
L 479 351
L 480 351
L 481 351
L 483 351
L 484 351
L 485 350
L 487 351
L 488 350
L 489 351
L 491 350
L 492 351
L 493 351
L 495 351
L 496 351
L 497 351
L 499 351
L 500 351
L 501 351
L 503 351
L 504 351
L 505 351
L 507 351
L 508 351
L 509 350
L 511 351
L 512 350
L 513 351
L 515 351
L 516 351
L 517 351
L 519 351
L 520 351
L 521 351
L 523 351
L 524 351
L 525 351
L 527 351
L 528 351
L 529 351
L 531 351
L 532 351
L 533 351
L 535 351
L 536 351
L 537 351
L 539 351
L 540 351
L 541 351
L 543 351
L 544 351
L 545 351
L 547 351
L 548 351
L 549 351
L 551 351
L 552 351
L 553 351
L 555 351
L 556 350
L 557 351
L 559 351
L 560 351
L 561 350
L 563 351
L 564 351
L 565 351
L 566 351
L 568 351
L 569 351
L 570 351
L 572 351
L 573 351
L 574 351
L 576 351
L 577 350
L 578 351
L 580 351
L 581 351
L 582 350
L 584 351
L 585 351
L 586 351
L 588 351
L 589 351
L 590 351
L 592 351
L 593 351
L 594 350
L 596 351
L 597 351
L 598 350
L 600 351
L 601 351
L 602 351
L 604 351
L 605 351
L 606 351
L 608 351
L 609 351
L 610 351
L 612 351
L 613 350
L 614 351
L 616 351
L 617 351
L 618 351
L 620 351
L 621 351
L 622 351
L 624 351
L 625 351
L 626 351
L 628 351
L 629 351
L 630 351
L 632 351
L 633 351
L 634 351
L 636 351
L 637 351
L 638 351
L 640 350
L 641 351
L 642 351
L 644 351
L 645 351
L 646 350
L 648 351
L 649 351
L 650 351
L 652 351
L 653 351
L 654 351
L 656 351
L 657 351
L 658 351
L 660 351
L 661 351
L 662 351
L 664 351
L 665 351
L 666 351
L 668 351
L 669 351
L 670 351
L 672 351
L 673 350
L 674 351
L 676 351
L 677 351
L 678 351
L 680 351
L 681 351
L 682 351
L 684 351
L 685 351
L 686 351
L 688 351
L 689 351
L 690 351
L 692 351
L 693 351
L 694 351
L 696 351
L 697 351
L 698 351
L 699 351
L 701 351
L 702 351
L 703 351
L 705 351
L 706 351
L 707 351
L 709 351
L 710 351
L 711 351
L 713 351
L 714 351
L 715 351
L 717 351
L 718 351
L 719 351
L 721 351
L 722 351
L 723 351
L 725 351
L 726 351
L 727 351
L 729 351
L 730 351
L 731 351
L 733 351
L 734 351
L 735 351
L 737 351
L 738 351
L 739 351
L 741 351
L 742 351
L 743 351
L 745 351
L 746 351
L 747 351
L 749 351
L 750 351
L 751 351
L 753 351
L 754 351
L 755 351
L 757 351
L 758 351
L 759 351
L 761 351
L 762 351
L 763 351
L 765 351
L 766 351
L 767 351
L 769 351
L 770 351
L 771 351
L 773 351
L 774 351
L 775 351
L 777 351
L 778 351
L 779 351
L 781 351
L 782 350
L 783 351
L 785 351
L 786 350
L 787 351
L 789 351
L 790 351
L 791 350
L 793 350
L 794 350
L 795 350
L 797 351
L 798 351
L 799 350
L 801 351
L 802 351
L 803 350
L 805 351
L 806 351
L 807 351
L 809 351
L 810 351
L 811 351
L 813 351
L 814 351
L 815 351
L 817 350
L 818 351
L 819 351
L 821 351
L 822 351
L 823 351
L 825 351
L 826 351
L 827 351
L 829 351
L 830 351
L 831 351
L 832 351
L 834 350
L 835 351
L 836 351
L 838 351
L 839 351
L 840 351
L 842 351
L 843 351
L 844 351
L 846 350
L 847 351
L 848 351
L 850 350
L 851 351
L 852 351
L 854 351
L 855 351
L 856 351
L 858 351
L 859 351
L 860 351
L 862 351
L 863 351
L 864 351
L 866 351
L 867 351
L 868 351
L 870 351
L 871 350
L 872 350
L 874 351
L 875 351
L 876 351
L 878 351
L 879 350
L 880 350
L 882 350
L 883 350
L 884 351
L 886 351
L 887 350
L 888 350
L 890 351
L 891 351
L 892 351
L 894 350
L 895 351
L 896 350
L 898 351
L 899 350
L 900 351
L 902 351
L 903 351
L 904 351
L 906 351
L 907 351
L 908 351
L 910 351
L 911 351
L 912 351
L 914 351
L 915 351
L 916 351
L 918 351
L 919 350
L 920 351
L 922 351
L 923 351
L 924 350
L 926 351
L 927 351
L 928 350
L 930 351
L 931 350
L 932 351
L 934 351
L 935 351
L 936 351
L 938 351
L 939 351
L 940 351
L 942 351
L 943 351
L 944 351
L 946 351
L 947 351
L 948 351
L 950 351
L 951 351
L 952 351
L 954 351
L 955 351
L 956 351
L 958 351
L 959 351
L 960 351
L 961 351" style="stroke-width:1;stroke:rgba(217,0,116,1.0);fill:none"/><text x="368" y="33" style="stroke-width:0;stroke:none;fill:rgba(51,51,51,1.0);font-size:23.0px;font-family:'Roboto Medium',sans-serif">Innsbruck-Stadt 20.01.2022</text><path  d="M 38 11
L 251 11
L 251 91
L 38 91
L 38 11" style="stroke-width:1;stroke:rgba(51,51,51,1.0);fill:rgba(255,255,255,1.0)"/><text x="43" y="26" style="stroke-width:0;stroke:none;fill:rgba(51,51,51,1.0);font-size:10.2px;font-family:'Roboto Medium',sans-serif">Sieben Tage Durschnitt Inzidenz Fälle</text><path  d="M 221 21
L 241 21" style="stroke-width:1;stroke:rgba(0,116,217,1.0);fill:none"/><text x="43" y="56" style="stroke-width:0;stroke:none;fill:rgba(51,51,51,1.0);font-size:10.2px;font-family:'Roboto Medium',sans-serif">Anzahl Faelle</text><path  d="M 110 51
L 241 51" style="stroke-width:1;stroke:rgba(0,217,101,1.0);fill:none"/><text x="43" y="86" style="stroke-width:0;stroke:none;fill:rgba(51,51,51,1.0);font-size:10.2px;font-family:'Roboto Medium',sans-serif">Anzahl Tot</text><path  d="M 98 81
L 241 81" style="stroke-width:1;stroke:rgba(217,0,116,1.0);fill:none"/></svg>