<svg xmlns="http://www.w3.org/2000/svg" xmlns:xlink="http://www.w3.org/1999/xlink" width="1024" height="400">\n<path  d="M 0 0
L 1024 0
L 1024 400
L 0 400
L 0 0" style="stroke-width:0;stroke:rgba(255,255,255,1.0);fill:rgba(255,255,255,1.0)"/><path  d="M 38 11
L 961 11
L 961 351
L 38 351
L 38 11" style="stroke-width:0;stroke:rgba(255,255,255,1.0);fill:rgba(255,255,255,1.0)"/><path  d="M 38 351
L 961 351" style="stroke-width:1;stroke:rgba(51,51,51,1.0);fill:none"/><path  d="M 38 351
L 38 356" style="stroke-width:1;stroke:rgba(51,51,51,1.0);fill:none"/><text x="5" y="373" style="stroke-width:0;stroke:none;fill:rgba(51,51,51,1.0);font-size:12.8px;font-family:'Roboto Medium',sans-serif">2020-02-26</text><path  d="M 154 351
L 154 356" style="stroke-width:1;stroke:rgba(51,51,51,1.0);fill:none"/><text x="121" y="373" style="stroke-width:0;stroke:none;fill:rgba(51,51,51,1.0);font-size:12.8px;font-family:'Roboto Medium',sans-serif">2020-06-03</text><path  d="M 269 351
L 269 356" style="stroke-width:1;stroke:rgba(51,51,51,1.0);fill:none"/><text x="236" y="373" style="stroke-width:0;stroke:none;fill:rgba(51,51,51,1.0);font-size:12.8px;font-family:'Roboto Medium',sans-serif">2020-09-10</text><path  d="M 385 351
L 385 356" style="stroke-width:1;stroke:rgba(51,51,51,1.0);fill:none"/><text x="352" y="373" style="stroke-width:0;stroke:none;fill:rgba(51,51,51,1.0);font-size:12.8px;font-family:'Roboto Medium',sans-serif">2020-12-18</text><path  d="M 500 351
L 500 356" style="stroke-width:1;stroke:rgba(51,51,51,1.0);fill:none"/><text x="467" y="373" style="stroke-width:0;stroke:none;fill:rgba(51,51,51,1.0);font-size:12.8px;font-family:'Roboto Medium',sans-serif">2021-03-27</text><path  d="M 615 351
L 615 356" style="stroke-width:1;stroke:rgba(51,51,51,1.0);fill:none"/><text x="582" y="373" style="stroke-width:0;stroke:none;fill:rgba(51,51,51,1.0);font-size:12.8px;font-family:'Roboto Medium',sans-serif">2021-07-03</text><path  d="M 731 351
L 731 356" style="stroke-width:1;stroke:rgba(51,51,51,1.0);fill:none"/><text x="698" y="373" style="stroke-width:0;stroke:none;fill:rgba(51,51,51,1.0);font-size:12.8px;font-family:'Roboto Medium',sans-serif">2021-10-10</text><path  d="M 846 351
L 846 356" style="stroke-width:1;stroke:rgba(51,51,51,1.0);fill:none"/><text x="813" y="373" style="stroke-width:0;stroke:none;fill:rgba(51,51,51,1.0);font-size:12.8px;font-family:'Roboto Medium',sans-serif">2022-01-17</text><path  d="M 961 351
L 961 356" style="stroke-width:1;stroke:rgba(51,51,51,1.0);fill:none"/><text x="928" y="373" style="stroke-width:0;stroke:none;fill:rgba(51,51,51,1.0);font-size:12.8px;font-family:'Roboto Medium',sans-serif">2022-04-26</text><text x="481" y="395" style="stroke-width:0;stroke:none;fill:rgba(51,51,51,1.0);font-size:12.8px;font-family:'Roboto Medium',sans-serif">Datum</text><path  d="M 962 351
L 962 11" style="stroke-width:1;stroke:rgba(51,51,51,1.0);fill:none"/><path  d="M 962 351
L 967 351" style="stroke-width:1;stroke:rgba(51,51,51,1.0);fill:none"/><text x="972" y="357" style="stroke-width:0;stroke:none;fill:rgba(51,51,51,1.0);font-size:12.8px;font-family:'Roboto Medium',sans-serif">0.00</text><path  d="M 962 308
L 967 308" style="stroke-width:1;stroke:rgba(51,51,51,1.0);fill:none"/><text x="972" y="314" style="stroke-width:0;stroke:none;fill:rgba(51,51,51,1.0);font-size:12.8px;font-family:'Roboto Medium',sans-serif">450.00</text><path  d="M 962 266
L 967 266" style="stroke-width:1;stroke:rgba(51,51,51,1.0);fill:none"/><text x="972" y="272" style="stroke-width:0;stroke:none;fill:rgba(51,51,51,1.0);font-size:12.8px;font-family:'Roboto Medium',sans-serif">900.00</text><path  d="M 962 223
L 967 223" style="stroke-width:1;stroke:rgba(51,51,51,1.0);fill:none"/><text x="972" y="229" style="stroke-width:0;stroke:none;fill:rgba(51,51,51,1.0);font-size:12.8px;font-family:'Roboto Medium',sans-serif">1350.00</text><path  d="M 962 181
L 967 181" style="stroke-width:1;stroke:rgba(51,51,51,1.0);fill:none"/><text x="972" y="187" style="stroke-width:0;stroke:none;fill:rgba(51,51,51,1.0);font-size:12.8px;font-family:'Roboto Medium',sans-serif">1800.00</text><path  d="M 962 138
L 967 138" style="stroke-width:1;stroke:rgba(51,51,51,1.0);fill:none"/><text x="972" y="144" style="stroke-width:0;stroke:none;fill:rgba(51,51,51,1.0);font-size:12.8px;font-family:'Roboto Medium',sans-serif">2250.00</text><path  d="M 962 96
L 967 96" style="stroke-width:1;stroke:rgba(51,51,51,1.0);fill:none"/><text x="972" y="102" style="stroke-width:0;stroke:none;fill:rgba(51,51,51,1.0);font-size:12.8px;font-family:'Roboto Medium',sans-serif">2700.00</text><path  d="M 962 53
L 967 53" style="stroke-width:1;stroke:rgba(51,51,51,1.0);fill:none"/><text x="972" y="59" style="stroke-width:0;stroke:none;fill:rgba(51,51,51,1.0);font-size:12.8px;font-family:'Roboto Medium',sans-serif">3150.00</text><path  d="M 962 11
L 967 11" style="stroke-width:1;stroke:rgba(51,51,51,1.0);fill:none"/><text x="972" y="17" style="stroke-width:0;stroke:none;fill:rgba(51,51,51,1.0);font-size:12.8px;font-family:'Roboto Medium',sans-serif">3600.00</text><path  d="M 38 351
L 40 351
L 41 351
L 42 351
L 43 351
L 44 351
L 46 351
L 47 351
L 48 351
L 49 350
L 50 350
L 51 350
L 53 350
L 54 350
L 55 350
L 56 349
L 57 349
L 58 349
L 60 349
L 61 348
L 62 348
L 63 348
L 64 347
L 65 347
L 67 345
L 68 345
L 69 345
L 70 344
L 71 343
L 72 343
L 74 342
L 75 343
L 76 343
L 77 343
L 78 344
L 79 345
L 81 346
L 82 347
L 83 347
L 84 347
L 85 347
L 86 347
L 88 348
L 89 348
L 90 349
L 91 349
L 92 349
L 93 350
L 95 350
L 96 350
L 97 350
L 98 350
L 99 350
L 100 350
L 102 350
L 103 350
L 104 350
L 105 350
L 106 350
L 107 350
L 109 350
L 110 350
L 111 350
L 112 350
L 113 350
L 114 350
L 116 350
L 117 350
L 118 351
L 119 350
L 120 350
L 121 350
L 123 350
L 124 350
L 125 350
L 126 350
L 127 351
L 128 351
L 130 351
L 131 351
L 132 351
L 133 351
L 134 351
L 135 350
L 137 350
L 138 350
L 139 350
L 140 350
L 141 350
L 142 350
L 144 351
L 145 351
L 146 350
L 147 350
L 148 350
L 149 350
L 151 350
L 152 350
L 153 350
L 154 350
L 155 350
L 157 350
L 158 350
L 159 350
L 160 350
L 161 350
L 162 350
L 164 350
L 165 350
L 166 350
L 167 351
L 168 351
L 169 351
L 171 351
L 172 350
L 173 350
L 174 350
L 175 350
L 176 350
L 178 350
L 179 350
L 180 351
L 181 351
L 182 351
L 183 351
L 185 351
L 186 351
L 187 351
L 188 351
L 189 350
L 190 350
L 192 350
L 193 350
L 194 350
L 195 350
L 196 350
L 197 350
L 199 350
L 200 350
L 201 350
L 202 350
L 203 350
L 204 350
L 206 350
L 207 350
L 208 350
L 209 350
L 210 350
L 211 350
L 213 350
L 214 350
L 215 350
L 216 350
L 217 350
L 218 350
L 220 350
L 221 350
L 222 350
L 223 350
L 224 350
L 225 350
L 227 350
L 228 350
L 229 350
L 230 350
L 231 350
L 232 350
L 234 350
L 235 350
L 236 350
L 237 350
L 238 349
L 239 349
L 241 349
L 242 349
L 243 349
L 244 349
L 245 349
L 246 349
L 248 349
L 249 349
L 250 349
L 251 348
L 252 348
L 253 348
L 255 347
L 256 347
L 257 347
L 258 347
L 259 346
L 260 346
L 262 346
L 263 347
L 264 347
L 265 347
L 266 347
L 267 347
L 269 347
L 270 346
L 271 346
L 272 346
L 273 344
L 275 344
L 276 344
L 277 344
L 278 344
L 279 344
L 280 344
L 282 346
L 283 346
L 284 346
L 285 347
L 286 347
L 287 346
L 289 346
L 290 346
L 291 346
L 292 345
L 293 344
L 294 343
L 296 343
L 297 341
L 298 341
L 299 340
L 300 339
L 301 340
L 303 339
L 304 339
L 305 339
L 306 337
L 307 336
L 308 336
L 310 330
L 311 329
L 312 329
L 313 329
L 314 329
L 315 328
L 317 327
L 318 327
L 319 325
L 320 322
L 321 319
L 322 318
L 324 315
L 325 311
L 326 309
L 327 305
L 328 304
L 329 304
L 331 297
L 332 294
L 333 292
L 334 291
L 335 287
L 336 286
L 338 282
L 339 281
L 340 282
L 341 280
L 342 283
L 343 289
L 345 291
L 346 292
L 347 294
L 348 294
L 349 295
L 350 293
L 352 292
L 353 290
L 354 294
L 355 295
L 356 297
L 357 301
L 359 303
L 360 307
L 361 311
L 362 313
L 363 316
L 364 319
L 366 322
L 367 325
L 368 325
L 369 324
L 370 324
L 371 325
L 373 327
L 374 328
L 375 329
L 376 330
L 377 333
L 378 334
L 380 334
L 381 334
L 382 334
L 383 334
L 384 335
L 386 336
L 387 335
L 388 336
L 389 336
L 390 335
L 391 336
L 393 337
L 394 338
L 395 337
L 396 337
L 397 337
L 398 338
L 400 337
L 401 336
L 402 335
L 403 336
L 404 337
L 405 338
L 407 338
L 408 338
L 409 339
L 410 340
L 411 341
L 412 341
L 414 341
L 415 342
L 416 343
L 417 344
L 418 343
L 419 343
L 421 343
L 422 344
L 423 343
L 424 343
L 425 342
L 426 343
L 428 343
L 429 343
L 430 343
L 431 344
L 432 344
L 433 344
L 435 345
L 436 344
L 437 343
L 438 343
L 439 343
L 440 343
L 442 343
L 443 343
L 444 344
L 445 344
L 446 345
L 447 345
L 449 346
L 450 346
L 451 346
L 452 346
L 453 347
L 454 347
L 456 347
L 457 347
L 458 346
L 459 346
L 460 346
L 461 345
L 463 344
L 464 345
L 465 345
L 466 345
L 467 346
L 468 346
L 470 345
L 471 345
L 472 345
L 473 345
L 474 344
L 475 344
L 477 344
L 478 343
L 479 343
L 480 342
L 481 341
L 482 342
L 484 340
L 485 338
L 486 337
L 487 336
L 488 336
L 489 335
L 491 333
L 492 333
L 493 333
L 494 333
L 495 332
L 496 331
L 498 331
L 499 330
L 500 329
L 501 329
L 502 327
L 504 327
L 505 326
L 506 326
L 507 326
L 508 327
L 509 327
L 511 329
L 512 328
L 513 330
L 514 330
L 515 332
L 516 333
L 518 335
L 519 335
L 520 334
L 521 333
L 522 333
L 523 332
L 525 332
L 526 331
L 527 329
L 528 330
L 529 331
L 530 331
L 532 331
L 533 331
L 534 331
L 535 332
L 536 332
L 537 332
L 539 333
L 540 333
L 541 334
L 542 334
L 543 335
L 544 336
L 546 337
L 547 338
L 548 338
L 549 338
L 550 340
L 551 341
L 553 341
L 554 343
L 555 343
L 556 343
L 557 344
L 558 344
L 560 343
L 561 343
L 562 342
L 563 342
L 564 342
L 565 342
L 567 342
L 568 344
L 569 344
L 570 344
L 571 345
L 572 345
L 574 345
L 575 345
L 576 344
L 577 345
L 578 346
L 579 345
L 581 346
L 582 346
L 583 346
L 584 345
L 585 345
L 586 346
L 588 346
L 589 346
L 590 346
L 591 347
L 592 348
L 593 348
L 595 349
L 596 349
L 597 349
L 598 349
L 599 349
L 600 349
L 602 349
L 603 349
L 604 349
L 605 349
L 606 349
L 607 350
L 609 350
L 610 350
L 611 350
L 612 350
L 613 350
L 614 350
L 616 350
L 617 350
L 618 350
L 619 350
L 620 350
L 622 350
L 623 349
L 624 350
L 625 349
L 626 349
L 627 350
L 629 349
L 630 349
L 631 349
L 632 349
L 633 349
L 634 349
L 636 349
L 637 349
L 638 348
L 639 348
L 640 348
L 641 348
L 643 348
L 644 347
L 645 347
L 646 348
L 647 348
L 648 348
L 650 347
L 651 347
L 652 348
L 653 348
L 654 348
L 655 347
L 657 348
L 658 348
L 659 348
L 660 347
L 661 346
L 662 346
L 664 346
L 665 346
L 666 346
L 667 346
L 668 346
L 669 346
L 671 345
L 672 345
L 673 344
L 674 344
L 675 344
L 676 342
L 678 342
L 679 342
L 680 341
L 681 342
L 682 341
L 683 341
L 685 342
L 686 342
L 687 342
L 688 343
L 689 343
L 690 343
L 692 342
L 693 343
L 694 342
L 695 342
L 696 342
L 697 343
L 699 342
L 700 342
L 701 342
L 702 342
L 703 342
L 704 342
L 706 342
L 707 342
L 708 343
L 709 342
L 710 341
L 711 341
L 713 341
L 714 341
L 715 341
L 716 339
L 717 340
L 718 341
L 720 341
L 721 341
L 722 341
L 723 342
L 724 341
L 725 341
L 727 341
L 728 341
L 729 341
L 730 341
L 731 341
L 733 343
L 734 342
L 735 342
L 736 342
L 737 341
L 738 340
L 740 338
L 741 336
L 742 335
L 743 334
L 744 332
L 745 330
L 747 330
L 748 330
L 749 329
L 750 329
L 751 326
L 752 325
L 754 322
L 755 321
L 756 321
L 757 316
L 758 311
L 759 310
L 761 308
L 762 309
L 763 305
L 764 301
L 765 298
L 766 296
L 768 293
L 769 288
L 770 284
L 771 279
L 772 273
L 773 268
L 775 258
L 776 252
L 777 246
L 778 243
L 779 243
L 780 234
L 782 231
L 783 228
L 784 225
L 785 226
L 786 228
L 787 229
L 789 239
L 790 244
L 791 257
L 792 266
L 793 273
L 794 280
L 796 283
L 797 289
L 798 297
L 799 302
L 800 306
L 801 310
L 803 312
L 804 316
L 805 320
L 806 322
L 807 321
L 808 323
L 810 324
L 811 325
L 812 324
L 813 325
L 814 326
L 815 327
L 817 327
L 818 329
L 819 329
L 820 329
L 821 328
L 822 326
L 824 325
L 825 321
L 826 318
L 827 315
L 828 315
L 829 309
L 831 305
L 832 298
L 833 297
L 834 295
L 835 287
L 836 279
L 838 274
L 839 270
L 840 263
L 841 249
L 842 234
L 843 226
L 845 218
L 846 204
L 847 179
L 848 162
L 849 144
L 851 125
L 852 111
L 853 103
L 854 81
L 855 67
L 856 52
L 858 51
L 859 50
L 860 43
L 861 43
L 862 39
L 863 48
L 865 52
L 866 48
L 867 46
L 868 52
L 869 51
L 870 65
L 872 62
L 873 67
L 874 79
L 875 90
L 876 105
L 877 111
L 879 111
L 880 118
L 881 124
L 882 121
L 883 119
L 884 112
L 886 111
L 887 104
L 888 103
L 889 104
L 890 106
L 891 104
L 893 105
L 894 106
L 895 100
L 896 88
L 897 73
L 898 66
L 900 53
L 901 48
L 902 42
L 903 36
L 904 34
L 905 26
L 907 18
L 908 14
L 909 11
L 910 11
L 911 15
L 912 14
L 914 25
L 915 37
L 916 44
L 917 55
L 918 64
L 919 69
L 921 82
L 922 101
L 923 111
L 924 128
L 925 136
L 926 145
L 928 169
L 929 191
L 930 196
L 931 207
L 932 216
L 933 225
L 935 229
L 936 239
L 937 241
L 938 250
L 939 258
L 940 266
L 942 269
L 943 271
L 944 278
L 945 285
L 946 289
L 947 290
L 949 294
L 950 294
L 951 295
L 952 301
L 953 303
L 954 303
L 956 307
L 957 308
L 958 311
L 959 308
L 960 305
L 961 309" style="stroke-width:1;stroke:rgba(0,116,217,1.0);fill:none"/><path  d="M 38 351
L 40 351
L 41 351
L 42 351
L 43 351
L 44 351
L 46 351
L 47 351
L 48 351
L 49 350
L 50 351
L 51 351
L 53 351
L 54 350
L 55 350
L 56 349
L 57 350
L 58 350
L 60 350
L 61 349
L 62 350
L 63 350
L 64 348
L 65 349
L 67 347
L 68 350
L 69 348
L 70 349
L 71 348
L 72 347
L 74 348
L 75 349
L 76 350
L 77 349
L 78 350
L 79 350
L 81 350
L 82 349
L 83 349
L 84 350
L 85 350
L 86 350
L 88 350
L 89 350
L 90 350
L 91 350
L 92 351
L 93 351
L 95 350
L 96 351
L 97 350
L 98 351
L 99 351
L 100 351
L 102 351
L 103 350
L 104 350
L 105 350
L 106 351
L 107 350
L 109 351
L 110 350
L 111 351
L 112 351
L 113 351
L 114 351
L 116 351
L 117 351
L 118 351
L 119 350
L 120 351
L 121 351
L 123 351
L 124 351
L 125 351
L 126 351
L 127 351
L 128 351
L 130 351
L 131 351
L 132 351
L 133 351
L 134 351
L 135 350
L 137 351
L 138 351
L 139 351
L 140 351
L 141 351
L 142 351
L 144 351
L 145 351
L 146 350
L 147 351
L 148 351
L 149 351
L 151 351
L 152 351
L 153 350
L 154 351
L 155 351
L 157 351
L 158 351
L 159 350
L 160 351
L 161 351
L 162 351
L 164 351
L 165 351
L 166 351
L 167 351
L 168 351
L 169 351
L 171 351
L 172 350
L 173 351
L 174 351
L 175 351
L 176 351
L 178 351
L 179 351
L 180 351
L 181 351
L 182 351
L 183 351
L 185 351
L 186 351
L 187 351
L 188 351
L 189 350
L 190 351
L 192 351
L 193 351
L 194 351
L 195 350
L 196 350
L 197 350
L 199 350
L 200 351
L 201 350
L 202 350
L 203 351
L 204 351
L 206 351
L 207 351
L 208 350
L 209 350
L 210 350
L 211 350
L 213 350
L 214 351
L 215 351
L 216 351
L 217 350
L 218 350
L 220 351
L 221 351
L 222 351
L 223 350
L 224 351
L 225 350
L 227 351
L 228 351
L 229 350
L 230 351
L 231 351
L 232 350
L 234 350
L 235 350
L 236 350
L 237 350
L 238 350
L 239 350
L 241 350
L 242 350
L 243 350
L 244 350
L 245 350
L 246 350
L 248 350
L 249 350
L 250 350
L 251 349
L 252 350
L 253 350
L 255 349
L 256 350
L 257 349
L 258 349
L 259 348
L 260 349
L 262 350
L 263 350
L 264 350
L 265 350
L 266 349
L 267 350
L 269 349
L 270 348
L 271 350
L 272 350
L 273 347
L 275 349
L 276 349
L 277 349
L 278 349
L 279 350
L 280 350
L 282 349
L 283 349
L 284 350
L 285 350
L 286 349
L 287 349
L 289 349
L 290 348
L 291 349
L 292 349
L 293 347
L 294 347
L 296 349
L 297 347
L 298 348
L 299 347
L 300 348
L 301 348
L 303 347
L 304 348
L 305 347
L 306 345
L 307 345
L 308 347
L 310 338
L 311 344
L 312 348
L 313 348
L 314 344
L 315 343
L 317 345
L 318 339
L 319 340
L 320 343
L 321 342
L 322 343
L 324 338
L 325 337
L 326 336
L 327 333
L 328 340
L 329 342
L 331 331
L 332 332
L 333 333
L 334 333
L 335 327
L 336 338
L 338 335
L 339 331
L 340 334
L 341 329
L 342 338
L 343 338
L 345 343
L 346 335
L 347 334
L 348 334
L 349 332
L 350 334
L 352 336
L 353 337
L 354 343
L 355 337
L 356 337
L 357 339
L 359 338
L 360 343
L 361 345
L 362 346
L 363 343
L 364 344
L 366 343
L 367 345
L 368 343
L 369 342
L 370 345
L 371 346
L 373 346
L 374 345
L 375 347
L 376 346
L 377 346
L 378 348
L 380 345
L 381 346
L 382 346
L 383 347
L 384 346
L 386 347
L 387 347
L 388 347
L 389 345
L 390 346
L 391 348
L 393 348
L 394 349
L 395 347
L 396 346
L 397 346
L 398 347
L 400 347
L 401 345
L 402 347
L 403 348
L 404 348
L 405 348
L 407 347
L 408 347
L 409 347
L 410 349
L 411 350
L 412 348
L 414 348
L 415 349
L 416 349
L 417 349
L 418 348
L 419 350
L 421 348
L 422 349
L 423 347
L 424 348
L 425 349
L 426 349
L 428 350
L 429 349
L 430 349
L 431 349
L 432 349
L 433 349
L 435 349
L 436 348
L 437 348
L 438 348
L 439 349
L 440 349
L 442 349
L 443 349
L 444 349
L 445 349
L 446 349
L 447 350
L 449 349
L 450 350
L 451 350
L 452 349
L 453 350
L 454 349
L 456 349
L 457 349
L 458 349
L 459 349
L 460 349
L 461 349
L 463 348
L 464 350
L 465 349
L 466 350
L 467 350
L 468 349
L 470 349
L 471 348
L 472 349
L 473 349
L 474 348
L 475 350
L 477 348
L 478 348
L 479 347
L 480 347
L 481 347
L 482 349
L 484 347
L 485 345
L 486 347
L 487 346
L 488 347
L 489 344
L 491 345
L 492 347
L 493 346
L 494 346
L 495 345
L 496 344
L 498 345
L 499 343
L 500 344
L 501 345
L 502 343
L 504 345
L 505 343
L 506 345
L 507 343
L 508 346
L 509 345
L 511 346
L 512 345
L 513 346
L 514 346
L 515 347
L 516 348
L 518 348
L 519 346
L 520 343
L 521 345
L 522 346
L 523 346
L 525 346
L 526 346
L 527 343
L 528 345
L 529 346
L 530 345
L 532 347
L 533 346
L 534 346
L 535 345
L 536 345
L 537 346
L 539 347
L 540 348
L 541 347
L 542 347
L 543 346
L 544 347
L 546 347
L 547 348
L 548 347
L 549 349
L 550 349
L 551 348
L 553 348
L 554 349
L 555 349
L 556 348
L 557 349
L 558 349
L 560 347
L 561 348
L 562 347
L 563 349
L 564 349
L 565 349
L 567 349
L 568 350
L 569 348
L 570 348
L 571 349
L 572 349
L 574 350
L 575 349
L 576 349
L 577 350
L 578 349
L 579 349
L 581 350
L 582 349
L 583 349
L 584 348
L 585 350
L 586 350
L 588 349
L 589 350
L 590 350
L 591 350
L 592 350
L 593 350
L 595 350
L 596 350
L 597 350
L 598 350
L 599 350
L 600 350
L 602 350
L 603 350
L 604 350
L 605 350
L 606 350
L 607 350
L 609 350
L 610 350
L 611 350
L 612 350
L 613 350
L 614 351
L 616 350
L 617 350
L 618 350
L 619 350
L 620 350
L 622 350
L 623 350
L 624 350
L 625 350
L 626 350
L 627 350
L 629 350
L 630 350
L 631 350
L 632 350
L 633 350
L 634 350
L 636 350
L 637 350
L 638 349
L 639 350
L 640 350
L 641 350
L 643 349
L 644 350
L 645 349
L 646 350
L 647 350
L 648 350
L 650 349
L 651 349
L 652 350
L 653 350
L 654 350
L 655 350
L 657 350
L 658 350
L 659 349
L 660 349
L 661 349
L 662 349
L 664 349
L 665 350
L 666 350
L 667 349
L 668 349
L 669 348
L 671 348
L 672 348
L 673 349
L 674 349
L 675 349
L 676 345
L 678 348
L 679 348
L 680 348
L 681 349
L 682 348
L 683 349
L 685 347
L 686 349
L 687 348
L 688 349
L 689 349
L 690 348
L 692 347
L 693 349
L 694 347
L 695 348
L 696 349
L 697 350
L 699 347
L 700 347
L 701 349
L 702 348
L 703 349
L 704 349
L 706 349
L 707 348
L 708 349
L 709 346
L 710 347
L 711 348
L 713 349
L 714 349
L 715 347
L 716 347
L 717 348
L 718 348
L 720 348
L 721 349
L 722 349
L 723 348
L 724 346
L 725 348
L 727 348
L 728 347
L 729 349
L 730 349
L 731 349
L 733 349
L 734 346
L 735 347
L 736 348
L 737 348
L 738 347
L 740 345
L 741 345
L 742 344
L 743 347
L 744 343
L 745 344
L 747 347
L 748 345
L 749 342
L 750 344
L 751 343
L 752 341
L 754 339
L 755 345
L 756 344
L 757 334
L 758 335
L 759 341
L 761 337
L 762 340
L 763 339
L 764 337
L 765 328
L 766 333
L 768 335
L 769 329
L 770 333
L 771 330
L 772 325
L 773 319
L 775 315
L 776 324
L 777 318
L 778 327
L 779 331
L 780 309
L 782 313
L 783 310
L 784 319
L 785 321
L 786 330
L 787 332
L 789 327
L 790 323
L 791 333
L 792 335
L 793 334
L 794 342
L 796 338
L 797 337
L 798 338
L 799 343
L 800 341
L 801 342
L 803 345
L 804 345
L 805 344
L 806 342
L 807 341
L 808 345
L 810 343
L 811 346
L 812 345
L 813 345
L 814 344
L 815 344
L 817 345
L 818 345
L 819 347
L 820 345
L 821 343
L 822 342
L 824 341
L 825 337
L 826 340
L 827 340
L 828 345
L 829 332
L 831 334
L 832 329
L 833 336
L 834 336
L 835 326
L 836 330
L 838 323
L 839 327
L 840 317
L 841 309
L 842 310
L 843 312
L 845 314
L 846 298
L 847 281
L 848 287
L 849 275
L 851 278
L 852 286
L 853 298
L 854 258
L 855 255
L 856 261
L 858 273
L 859 275
L 860 274
L 861 298
L 862 251
L 863 272
L 865 268
L 866 265
L 867 272
L 868 284
L 869 298
L 870 275
L 872 269
L 873 276
L 874 287
L 875 293
L 876 309
L 877 309
L 879 275
L 880 282
L 881 286
L 882 283
L 883 289
L 884 297
L 886 306
L 887 263
L 888 279
L 889 288
L 890 288
L 891 286
L 893 297
L 894 308
L 895 252
L 896 258
L 897 261
L 898 274
L 900 264
L 901 288
L 902 296
L 903 241
L 904 254
L 905 246
L 907 260
L 908 258
L 909 282
L 910 296
L 911 248
L 912 252
L 914 266
L 915 280
L 916 271
L 917 303
L 918 313
L 919 257
L 921 276
L 922 300
L 923 299
L 924 302
L 925 317
L 926 330
L 928 301
L 929 315
L 930 310
L 931 319
L 932 317
L 933 334
L 935 338
L 936 318
L 937 319
L 938 327
L 939 332
L 940 332
L 942 339
L 943 343
L 944 330
L 945 332
L 946 334
L 947 334
L 949 337
L 950 340
L 951 344
L 952 342
L 953 334
L 954 335
L 956 342
L 957 339
L 958 345
L 959 340
L 960 337
L 961 342" style="stroke-width:1;stroke:rgba(0,217,101,1.0);fill:none"/><path  d="M 38 351
L 40 351
L 41 351
L 42 351
L 43 351
L 44 351
L 46 351
L 47 351
L 48 351
L 49 351
L 50 351
L 51 351
L 53 351
L 54 351
L 55 351
L 56 351
L 57 351
L 58 351
L 60 351
L 61 351
L 62 351
L 63 351
L 64 350
L 65 351
L 67 351
L 68 351
L 69 351
L 70 351
L 71 351
L 72 350
L 74 351
L 75 350
L 76 351
L 77 350
L 78 350
L 79 351
L 81 350
L 82 350
L 83 351
L 84 351
L 85 350
L 86 350
L 88 351
L 89 351
L 90 351
L 91 351
L 92 351
L 93 351
L 95 351
L 96 351
L 97 351
L 98 351
L 99 351
L 100 351
L 102 350
L 103 351
L 104 350
L 105 351
L 106 351
L 107 351
L 109 351
L 110 351
L 111 351
L 112 351
L 113 351
L 114 351
L 116 351
L 117 351
L 118 351
L 119 351
L 120 351
L 121 351
L 123 351
L 124 351
L 125 351
L 126 351
L 127 351
L 128 351
L 130 351
L 131 351
L 132 351
L 133 351
L 134 351
L 135 351
L 137 350
L 138 351
L 139 351
L 140 351
L 141 351
L 142 351
L 144 351
L 145 351
L 146 351
L 147 351
L 148 351
L 149 351
L 151 351
L 152 351
L 153 351
L 154 351
L 155 351
L 157 351
L 158 351
L 159 351
L 160 351
L 161 351
L 162 351
L 164 351
L 165 351
L 166 351
L 167 351
L 168 351
L 169 351
L 171 351
L 172 351
L 173 351
L 174 351
L 175 351
L 176 351
L 178 351
L 179 351
L 180 351
L 181 351
L 182 351
L 183 351
L 185 351
L 186 351
L 187 351
L 188 351
L 189 351
L 190 351
L 192 351
L 193 351
L 194 351
L 195 351
L 196 351
L 197 351
L 199 351
L 200 351
L 201 351
L 202 351
L 203 351
L 204 351
L 206 351
L 207 351
L 208 351
L 209 351
L 210 351
L 211 351
L 213 351
L 214 351
L 215 351
L 216 351
L 217 351
L 218 351
L 220 351
L 221 351
L 222 351
L 223 351
L 224 350
L 225 351
L 227 351
L 228 351
L 229 351
L 230 351
L 231 351
L 232 351
L 234 351
L 235 351
L 236 351
L 237 351
L 238 351
L 239 351
L 241 351
L 242 351
L 243 351
L 244 351
L 245 351
L 246 351
L 248 351
L 249 351
L 250 351
L 251 351
L 252 351
L 253 351
L 255 351
L 256 351
L 257 351
L 258 351
L 259 351
L 260 351
L 262 351
L 263 351
L 264 351
L 265 351
L 266 351
L 267 351
L 269 351
L 270 351
L 271 350
L 272 351
L 273 351
L 275 351
L 276 351
L 277 351
L 278 351
L 279 351
L 280 351
L 282 351
L 283 351
L 284 351
L 285 351
L 286 351
L 287 351
L 289 351
L 290 351
L 291 351
L 292 351
L 293 351
L 294 351
L 296 351
L 297 351
L 298 351
L 299 351
L 300 351
L 301 350
L 303 351
L 304 351
L 305 351
L 306 351
L 307 351
L 308 351
L 310 351
L 311 351
L 312 351
L 313 351
L 314 351
L 315 351
L 317 351
L 318 351
L 319 351
L 320 351
L 321 351
L 322 351
L 324 350
L 325 350
L 326 351
L 327 351
L 328 351
L 329 350
L 331 350
L 332 350
L 333 351
L 334 350
L 335 351
L 336 350
L 338 350
L 339 350
L 340 350
L 341 350
L 342 350
L 343 350
L 345 350
L 346 350
L 347 350
L 348 350
L 349 350
L 350 350
L 352 350
L 353 350
L 354 350
L 355 350
L 356 350
L 357 350
L 359 350
L 360 350
L 361 350
L 362 350
L 363 350
L 364 350
L 366 350
L 367 350
L 368 350
L 369 351
L 370 350
L 371 350
L 373 350
L 374 350
L 375 350
L 376 351
L 377 350
L 378 350
L 380 350
L 381 350
L 382 351
L 383 350
L 384 351
L 386 350
L 387 350
L 388 350
L 389 350
L 390 350
L 391 350
L 393 350
L 394 351
L 395 350
L 396 350
L 397 351
L 398 350
L 400 350
L 401 350
L 402 350
L 403 351
L 404 350
L 405 350
L 407 351
L 408 351
L 409 350
L 410 350
L 411 350
L 412 351
L 414 350
L 415 351
L 416 350
L 417 351
L 418 350
L 419 351
L 421 350
L 422 350
L 423 350
L 424 351
L 425 350
L 426 351
L 428 351
L 429 351
L 430 351
L 431 350
L 432 351
L 433 351
L 435 351
L 436 350
L 437 351
L 438 351
L 439 351
L 440 351
L 442 351
L 443 351
L 444 351
L 445 351
L 446 350
L 447 351
L 449 351
L 450 351
L 451 351
L 452 350
L 453 351
L 454 350
L 456 350
L 457 350
L 458 351
L 459 351
L 460 351
L 461 350
L 463 351
L 464 351
L 465 351
L 466 351
L 467 351
L 468 351
L 470 351
L 471 350
L 472 351
L 473 350
L 474 350
L 475 351
L 477 350
L 478 351
L 479 351
L 480 351
L 481 350
L 482 351
L 484 351
L 485 351
L 486 351
L 487 351
L 488 351
L 489 351
L 491 351
L 492 351
L 493 351
L 494 351
L 495 351
L 496 351
L 498 351
L 499 351
L 500 351
L 501 351
L 502 350
L 504 350
L 505 351
L 506 351
L 507 351
L 508 351
L 509 351
L 511 351
L 512 351
L 513 350
L 514 351
L 515 351
L 516 351
L 518 351
L 519 351
L 520 351
L 521 351
L 522 351
L 523 351
L 525 351
L 526 351
L 527 351
L 528 351
L 529 351
L 530 351
L 532 351
L 533 351
L 534 351
L 535 351
L 536 351
L 537 351
L 539 351
L 540 351
L 541 351
L 542 351
L 543 351
L 544 351
L 546 351
L 547 351
L 548 351
L 549 351
L 550 351
L 551 351
L 553 350
L 554 351
L 555 351
L 556 351
L 557 350
L 558 351
L 560 351
L 561 351
L 562 351
L 563 351
L 564 351
L 565 351
L 567 351
L 568 351
L 569 351
L 570 351
L 571 351
L 572 351
L 574 350
L 575 351
L 576 351
L 577 350
L 578 351
L 579 351
L 581 351
L 582 351
L 583 351
L 584 351
L 585 351
L 586 351
L 588 351
L 589 351
L 590 351
L 591 351
L 592 351
L 593 351
L 595 351
L 596 351
L 597 351
L 598 350
L 599 351
L 600 351
L 602 351
L 603 351
L 604 351
L 605 351
L 606 351
L 607 351
L 609 351
L 610 351
L 611 351
L 612 351
L 613 351
L 614 351
L 616 351
L 617 351
L 618 351
L 619 351
L 620 351
L 622 351
L 623 351
L 624 351
L 625 351
L 626 351
L 627 351
L 629 351
L 630 351
L 631 351
L 632 351
L 633 351
L 634 351
L 636 351
L 637 351
L 638 351
L 639 351
L 640 351
L 641 351
L 643 351
L 644 351
L 645 350
L 646 351
L 647 351
L 648 351
L 650 351
L 651 351
L 652 351
L 653 351
L 654 351
L 655 351
L 657 350
L 658 351
L 659 351
L 660 351
L 661 351
L 662 351
L 664 351
L 665 351
L 666 351
L 667 351
L 668 351
L 669 351
L 671 350
L 672 351
L 673 351
L 674 351
L 675 351
L 676 351
L 678 351
L 679 351
L 680 351
L 681 351
L 682 351
L 683 351
L 685 351
L 686 351
L 687 351
L 688 351
L 689 351
L 690 351
L 692 351
L 693 351
L 694 351
L 695 351
L 696 351
L 697 351
L 699 351
L 700 351
L 701 351
L 702 351
L 703 350
L 704 351
L 706 351
L 707 351
L 708 351
L 709 351
L 710 350
L 711 351
L 713 351
L 714 351
L 715 351
L 716 351
L 717 351
L 718 351
L 720 351
L 721 351
L 722 351
L 723 351
L 724 351
L 725 351
L 727 351
L 728 351
L 729 351
L 730 351
L 731 351
L 733 351
L 734 351
L 735 350
L 736 351
L 737 351
L 738 351
L 740 351
L 741 351
L 742 351
L 743 351
L 744 350
L 745 351
L 747 351
L 748 350
L 749 350
L 750 351
L 751 351
L 752 351
L 754 351
L 755 351
L 756 351
L 757 351
L 758 350
L 759 350
L 761 351
L 762 350
L 763 351
L 764 351
L 765 351
L 766 351
L 768 350
L 769 351
L 770 351
L 771 351
L 772 351
L 773 350
L 775 351
L 776 350
L 777 351
L 778 350
L 779 351
L 780 350
L 782 351
L 783 350
L 784 350
L 785 350
L 786 351
L 787 351
L 789 350
L 790 350
L 791 350
L 792 351
L 793 351
L 794 350
L 796 350
L 797 350
L 798 350
L 799 351
L 800 350
L 801 350
L 803 351
L 804 351
L 805 351
L 806 351
L 807 350
L 808 351
L 810 350
L 811 351
L 812 351
L 813 351
L 814 350
L 815 351
L 817 351
L 818 350
L 819 351
L 820 351
L 821 350
L 822 351
L 824 350
L 825 350
L 826 351
L 827 351
L 828 351
L 829 350
L 831 350
L 832 351
L 833 351
L 834 351
L 835 351
L 836 351
L 838 351
L 839 351
L 840 351
L 841 350
L 842 351
L 843 351
L 845 351
L 846 351
L 847 351
L 848 350
L 849 351
L 851 350
L 852 351
L 853 351
L 854 351
L 855 351
L 856 351
L 858 351
L 859 351
L 860 351
L 861 350
L 862 351
L 863 351
L 865 351
L 866 351
L 867 350
L 868 351
L 869 351
L 870 351
L 872 351
L 873 351
L 874 351
L 875 351
L 876 351
L 877 351
L 879 351
L 880 351
L 881 351
L 882 351
L 883 351
L 884 350
L 886 350
L 887 350
L 888 350
L 889 351
L 890 351
L 891 351
L 893 351
L 894 351
L 895 351
L 896 351
L 897 351
L 898 350
L 900 351
L 901 351
L 902 351
L 903 351
L 904 351
L 905 351
L 907 351
L 908 351
L 909 351
L 910 351
L 911 351
L 912 350
L 914 351
L 915 351
L 916 351
L 917 351
L 918 351
L 919 351
L 921 350
L 922 351
L 923 351
L 924 351
L 925 351
L 926 351
L 928 351
L 929 351
L 930 351
L 931 351
L 932 351
L 933 351
L 935 350
L 936 351
L 937 351
L 938 351
L 939 351
L 940 351
L 942 351
L 943 351
L 944 351
L 945 350
L 946 351
L 947 351
L 949 351
L 950 351
L 951 351
L 952 351
L 953 351
L 954 351
L 956 351
L 957 350
L 958 351
L 959 351
L 960 351
L 961 351" style="stroke-width:1;stroke:rgba(217,0,116,1.0);fill:none"/><text x="370" y="33" style="stroke-width:0;stroke:none;fill:rgba(51,51,51,1.0);font-size:23.0px;font-family:'Roboto Medium',sans-serif">Innsbruck-Land 26.04.2022</text><path  d="M 38 11
L 251 11
L 251 91
L 38 91
L 38 11" style="stroke-width:1;stroke:rgba(51,51,51,1.0);fill:rgba(255,255,255,1.0)"/><text x="43" y="26" style="stroke-width:0;stroke:none;fill:rgba(51,51,51,1.0);font-size:10.2px;font-family:'Roboto Medium',sans-serif">Sieben Tage Durschnitt Inzidenz Fälle</text><path  d="M 221 21
L 241 21" style="stroke-width:1;stroke:rgba(0,116,217,1.0);fill:none"/><text x="43" y="56" style="stroke-width:0;stroke:none;fill:rgba(51,51,51,1.0);font-size:10.2px;font-family:'Roboto Medium',sans-serif">Anzahl Faelle</text><path  d="M 110 51
L 241 51" style="stroke-width:1;stroke:rgba(0,217,101,1.0);fill:none"/><text x="43" y="86" style="stroke-width:0;stroke:none;fill:rgba(51,51,51,1.0);font-size:10.2px;font-family:'Roboto Medium',sans-serif">Anzahl Tot</text><path  d="M 98 81
L 241 81" style="stroke-width:1;stroke:rgba(217,0,116,1.0);fill:none"/></svg>