<svg xmlns="http://www.w3.org/2000/svg" xmlns:xlink="http://www.w3.org/1999/xlink" width="1024" height="400">\n<path  d="M 0 0
L 1024 0
L 1024 400
L 0 400
L 0 0" style="stroke-width:0;stroke:rgba(255,255,255,1.0);fill:rgba(255,255,255,1.0)"/><path  d="M 38 11
L 969 11
L 969 351
L 38 351
L 38 11" style="stroke-width:0;stroke:rgba(255,255,255,1.0);fill:rgba(255,255,255,1.0)"/><path  d="M 38 351
L 969 351" style="stroke-width:1;stroke:rgba(51,51,51,1.0);fill:none"/><path  d="M 38 351
L 38 356" style="stroke-width:1;stroke:rgba(51,51,51,1.0);fill:none"/><text x="5" y="373" style="stroke-width:0;stroke:none;fill:rgba(51,51,51,1.0);font-size:12.8px;font-family:'Roboto Medium',sans-serif">2020-02-26</text><path  d="M 155 351
L 155 356" style="stroke-width:1;stroke:rgba(51,51,51,1.0);fill:none"/><text x="122" y="373" style="stroke-width:0;stroke:none;fill:rgba(51,51,51,1.0);font-size:12.8px;font-family:'Roboto Medium',sans-serif">2020-05-13</text><path  d="M 271 351
L 271 356" style="stroke-width:1;stroke:rgba(51,51,51,1.0);fill:none"/><text x="238" y="373" style="stroke-width:0;stroke:none;fill:rgba(51,51,51,1.0);font-size:12.8px;font-family:'Roboto Medium',sans-serif">2020-07-29</text><path  d="M 388 351
L 388 356" style="stroke-width:1;stroke:rgba(51,51,51,1.0);fill:none"/><text x="355" y="373" style="stroke-width:0;stroke:none;fill:rgba(51,51,51,1.0);font-size:12.8px;font-family:'Roboto Medium',sans-serif">2020-10-14</text><path  d="M 504 351
L 504 356" style="stroke-width:1;stroke:rgba(51,51,51,1.0);fill:none"/><text x="471" y="373" style="stroke-width:0;stroke:none;fill:rgba(51,51,51,1.0);font-size:12.8px;font-family:'Roboto Medium',sans-serif">2020-12-31</text><path  d="M 620 351
L 620 356" style="stroke-width:1;stroke:rgba(51,51,51,1.0);fill:none"/><text x="587" y="373" style="stroke-width:0;stroke:none;fill:rgba(51,51,51,1.0);font-size:12.8px;font-family:'Roboto Medium',sans-serif">2021-03-18</text><path  d="M 737 351
L 737 356" style="stroke-width:1;stroke:rgba(51,51,51,1.0);fill:none"/><text x="704" y="373" style="stroke-width:0;stroke:none;fill:rgba(51,51,51,1.0);font-size:12.8px;font-family:'Roboto Medium',sans-serif">2021-06-03</text><path  d="M 853 351
L 853 356" style="stroke-width:1;stroke:rgba(51,51,51,1.0);fill:none"/><text x="820" y="373" style="stroke-width:0;stroke:none;fill:rgba(51,51,51,1.0);font-size:12.8px;font-family:'Roboto Medium',sans-serif">2021-08-19</text><path  d="M 969 351
L 969 356" style="stroke-width:1;stroke:rgba(51,51,51,1.0);fill:none"/><text x="936" y="373" style="stroke-width:0;stroke:none;fill:rgba(51,51,51,1.0);font-size:12.8px;font-family:'Roboto Medium',sans-serif">2021-11-05</text><text x="485" y="395" style="stroke-width:0;stroke:none;fill:rgba(51,51,51,1.0);font-size:12.8px;font-family:'Roboto Medium',sans-serif">Datum</text><path  d="M 970 351
L 970 11" style="stroke-width:1;stroke:rgba(51,51,51,1.0);fill:none"/><path  d="M 970 351
L 975 351" style="stroke-width:1;stroke:rgba(51,51,51,1.0);fill:none"/><text x="980" y="357" style="stroke-width:0;stroke:none;fill:rgba(51,51,51,1.0);font-size:12.8px;font-family:'Roboto Medium',sans-serif">0.00</text><path  d="M 970 308
L 975 308" style="stroke-width:1;stroke:rgba(51,51,51,1.0);fill:none"/><text x="980" y="314" style="stroke-width:0;stroke:none;fill:rgba(51,51,51,1.0);font-size:12.8px;font-family:'Roboto Medium',sans-serif">94.00</text><path  d="M 970 265
L 975 265" style="stroke-width:1;stroke:rgba(51,51,51,1.0);fill:none"/><text x="980" y="271" style="stroke-width:0;stroke:none;fill:rgba(51,51,51,1.0);font-size:12.8px;font-family:'Roboto Medium',sans-serif">188.00</text><path  d="M 970 223
L 975 223" style="stroke-width:1;stroke:rgba(51,51,51,1.0);fill:none"/><text x="980" y="229" style="stroke-width:0;stroke:none;fill:rgba(51,51,51,1.0);font-size:12.8px;font-family:'Roboto Medium',sans-serif">282.00</text><path  d="M 970 181
L 975 181" style="stroke-width:1;stroke:rgba(51,51,51,1.0);fill:none"/><text x="980" y="187" style="stroke-width:0;stroke:none;fill:rgba(51,51,51,1.0);font-size:12.8px;font-family:'Roboto Medium',sans-serif">375.00</text><path  d="M 970 138
L 975 138" style="stroke-width:1;stroke:rgba(51,51,51,1.0);fill:none"/><text x="980" y="144" style="stroke-width:0;stroke:none;fill:rgba(51,51,51,1.0);font-size:12.8px;font-family:'Roboto Medium',sans-serif">469.00</text><path  d="M 970 95
L 975 95" style="stroke-width:1;stroke:rgba(51,51,51,1.0);fill:none"/><text x="980" y="101" style="stroke-width:0;stroke:none;fill:rgba(51,51,51,1.0);font-size:12.8px;font-family:'Roboto Medium',sans-serif">563.00</text><path  d="M 970 53
L 975 53" style="stroke-width:1;stroke:rgba(51,51,51,1.0);fill:none"/><text x="980" y="59" style="stroke-width:0;stroke:none;fill:rgba(51,51,51,1.0);font-size:12.8px;font-family:'Roboto Medium',sans-serif">657.00</text><path  d="M 970 11
L 975 11" style="stroke-width:1;stroke:rgba(51,51,51,1.0);fill:none"/><text x="980" y="17" style="stroke-width:0;stroke:none;fill:rgba(51,51,51,1.0);font-size:12.8px;font-family:'Roboto Medium',sans-serif">750.00</text><path  d="M 38 351
L 40 351
L 42 351
L 43 351
L 45 351
L 46 351
L 48 351
L 49 351
L 51 351
L 52 350
L 54 350
L 55 350
L 57 350
L 58 350
L 60 348
L 61 345
L 63 343
L 64 343
L 66 342
L 67 339
L 69 338
L 70 337
L 72 335
L 73 333
L 75 326
L 76 325
L 78 322
L 79 321
L 81 316
L 82 312
L 84 309
L 85 313
L 87 313
L 88 316
L 90 317
L 91 323
L 93 329
L 94 333
L 96 333
L 97 335
L 99 336
L 100 336
L 102 337
L 103 339
L 105 341
L 106 345
L 108 346
L 109 347
L 111 348
L 112 349
L 114 349
L 115 349
L 117 349
L 118 349
L 120 349
L 121 349
L 123 349
L 124 349
L 126 349
L 127 349
L 129 349
L 130 349
L 132 349
L 133 350
L 135 350
L 136 350
L 138 350
L 139 350
L 141 351
L 142 350
L 144 350
L 145 350
L 147 350
L 148 350
L 150 350
L 151 350
L 153 351
L 154 351
L 156 351
L 158 351
L 159 351
L 161 351
L 162 351
L 164 350
L 165 350
L 167 350
L 168 350
L 170 350
L 171 350
L 173 350
L 174 351
L 176 351
L 177 350
L 179 350
L 180 350
L 182 350
L 183 350
L 185 350
L 186 350
L 188 350
L 189 350
L 191 350
L 192 350
L 194 350
L 195 350
L 197 350
L 198 350
L 200 350
L 201 350
L 203 350
L 204 351
L 206 351
L 207 351
L 209 351
L 210 350
L 212 350
L 213 350
L 215 350
L 216 350
L 218 350
L 219 350
L 221 351
L 222 351
L 224 351
L 225 351
L 227 351
L 228 351
L 230 351
L 231 351
L 233 350
L 234 350
L 236 350
L 237 350
L 239 350
L 240 350
L 242 350
L 243 349
L 245 349
L 246 349
L 248 349
L 249 349
L 251 349
L 252 349
L 254 350
L 255 350
L 257 350
L 258 350
L 260 350
L 261 349
L 263 349
L 264 349
L 266 349
L 267 349
L 269 349
L 270 349
L 272 349
L 274 350
L 275 350
L 277 349
L 278 349
L 280 349
L 281 350
L 283 350
L 284 350
L 286 350
L 287 350
L 289 349
L 290 349
L 292 349
L 293 348
L 295 346
L 296 345
L 298 345
L 299 344
L 301 343
L 302 343
L 304 343
L 305 344
L 307 344
L 308 343
L 310 342
L 311 342
L 313 340
L 314 340
L 316 338
L 317 335
L 319 335
L 320 335
L 322 333
L 323 330
L 325 328
L 326 329
L 328 333
L 329 333
L 331 333
L 332 333
L 334 336
L 335 335
L 337 331
L 338 330
L 340 329
L 341 321
L 343 319
L 344 318
L 346 318
L 347 320
L 349 320
L 350 321
L 352 327
L 353 328
L 355 330
L 356 332
L 358 332
L 359 330
L 361 328
L 362 327
L 364 327
L 365 325
L 367 318
L 368 314
L 370 313
L 371 306
L 373 306
L 374 300
L 376 297
L 377 299
L 379 297
L 380 295
L 382 295
L 383 287
L 385 281
L 386 280
L 388 252
L 390 246
L 391 245
L 393 249
L 394 247
L 396 243
L 397 236
L 399 239
L 400 228
L 402 215
L 403 198
L 405 194
L 406 180
L 408 159
L 409 150
L 411 132
L 412 125
L 414 126
L 415 95
L 417 79
L 418 69
L 420 62
L 421 44
L 423 39
L 424 20
L 426 18
L 427 23
L 429 13
L 430 25
L 432 54
L 433 67
L 435 68
L 436 77
L 438 77
L 439 86
L 441 75
L 442 72
L 444 58
L 445 77
L 447 84
L 448 94
L 450 111
L 451 123
L 453 140
L 454 160
L 456 168
L 457 184
L 459 201
L 460 212
L 462 229
L 463 230
L 465 222
L 466 221
L 468 229
L 469 236
L 471 242
L 472 247
L 474 254
L 475 264
L 477 272
L 478 270
L 480 270
L 481 273
L 483 273
L 484 274
L 486 279
L 487 276
L 489 282
L 490 279
L 492 278
L 493 282
L 495 286
L 496 289
L 498 288
L 499 285
L 501 287
L 502 290
L 504 287
L 506 281
L 507 278
L 509 281
L 510 284
L 512 289
L 513 289
L 515 290
L 516 293
L 518 299
L 519 303
L 521 304
L 522 305
L 524 309
L 525 313
L 527 319
L 528 316
L 530 316
L 531 316
L 533 318
L 534 314
L 536 313
L 537 312
L 539 313
L 540 313
L 542 314
L 543 315
L 545 319
L 546 321
L 548 321
L 549 323
L 551 318
L 552 317
L 554 314
L 555 315
L 557 314
L 558 316
L 560 316
L 561 319
L 563 320
L 564 324
L 566 326
L 567 327
L 569 329
L 570 330
L 572 331
L 573 335
L 575 334
L 576 332
L 578 332
L 579 329
L 581 327
L 582 327
L 584 323
L 585 321
L 587 322
L 588 322
L 590 325
L 591 327
L 593 327
L 594 326
L 596 325
L 597 322
L 599 322
L 600 318
L 602 319
L 603 317
L 605 316
L 606 315
L 608 311
L 609 304
L 611 307
L 612 298
L 614 288
L 615 286
L 617 282
L 618 281
L 620 276
L 622 265
L 623 265
L 625 268
L 626 265
L 628 264
L 629 257
L 631 258
L 632 254
L 634 248
L 635 245
L 637 238
L 638 236
L 640 234
L 641 235
L 643 233
L 644 238
L 646 238
L 647 245
L 649 245
L 650 252
L 652 254
L 653 264
L 655 268
L 656 275
L 658 275
L 659 269
L 661 266
L 662 264
L 664 264
L 665 260
L 667 255
L 668 249
L 670 254
L 671 258
L 673 257
L 674 258
L 676 256
L 677 258
L 679 263
L 680 264
L 682 262
L 683 265
L 685 269
L 686 272
L 688 273
L 689 275
L 691 280
L 692 285
L 694 290
L 695 288
L 697 292
L 698 298
L 700 303
L 701 307
L 703 312
L 704 314
L 706 316
L 707 318
L 709 317
L 710 315
L 712 313
L 713 308
L 715 309
L 716 311
L 718 310
L 719 311
L 721 319
L 722 320
L 724 321
L 725 322
L 727 322
L 728 324
L 730 323
L 731 320
L 733 323
L 734 327
L 736 326
L 738 328
L 739 327
L 741 327
L 742 325
L 744 326
L 745 327
L 747 328
L 748 329
L 750 331
L 751 333
L 753 338
L 754 340
L 756 341
L 757 343
L 759 343
L 760 345
L 762 345
L 763 345
L 765 345
L 766 344
L 768 345
L 769 345
L 771 345
L 772 346
L 774 346
L 775 347
L 777 348
L 778 348
L 780 348
L 781 349
L 783 348
L 784 348
L 786 348
L 787 347
L 789 346
L 790 346
L 792 346
L 793 346
L 795 346
L 796 345
L 798 346
L 799 346
L 801 344
L 802 343
L 804 343
L 805 343
L 807 343
L 808 343
L 810 342
L 811 341
L 813 340
L 814 340
L 816 339
L 817 337
L 819 336
L 820 335
L 822 337
L 823 337
L 825 337
L 826 336
L 828 336
L 829 336
L 831 338
L 832 337
L 834 336
L 835 336
L 837 337
L 838 336
L 840 334
L 841 330
L 843 330
L 844 329
L 846 328
L 847 330
L 849 330
L 850 329
L 852 328
L 854 325
L 855 323
L 857 321
L 858 318
L 860 319
L 861 309
L 863 308
L 864 308
L 866 307
L 867 308
L 869 304
L 870 303
L 872 309
L 873 311
L 875 311
L 876 314
L 878 314
L 879 315
L 881 310
L 882 314
L 884 310
L 885 311
L 887 311
L 888 313
L 890 310
L 891 309
L 893 309
L 894 311
L 896 312
L 897 311
L 899 308
L 900 310
L 902 317
L 903 309
L 905 305
L 906 303
L 908 305
L 909 305
L 911 303
L 912 297
L 914 302
L 915 306
L 917 307
L 918 305
L 920 306
L 921 309
L 923 306
L 924 307
L 926 307
L 927 304
L 929 304
L 930 303
L 932 305
L 933 314
L 935 310
L 936 308
L 938 310
L 939 308
L 941 301
L 942 292
L 944 281
L 945 275
L 947 273
L 948 261
L 950 251
L 951 252
L 953 252
L 954 245
L 956 246
L 957 234
L 959 228
L 960 214
L 962 210
L 963 207
L 965 185
L 966 162
L 968 156
L 969 149" style="stroke-width:1;stroke:rgba(0,116,217,1.0);fill:none"/><path  d="M 38 351
L 40 351
L 42 351
L 43 351
L 45 351
L 46 351
L 48 351
L 49 351
L 51 351
L 52 350
L 54 351
L 55 351
L 57 351
L 58 350
L 60 347
L 61 344
L 63 347
L 64 350
L 66 350
L 67 345
L 69 347
L 70 346
L 72 341
L 73 344
L 75 336
L 76 348
L 78 340
L 79 345
L 81 337
L 82 335
L 84 337
L 85 344
L 87 346
L 88 346
L 90 348
L 91 347
L 93 346
L 94 345
L 96 344
L 97 349
L 99 349
L 100 347
L 102 349
L 103 349
L 105 350
L 106 351
L 108 351
L 109 351
L 111 350
L 112 351
L 114 349
L 115 351
L 117 351
L 118 351
L 120 351
L 121 350
L 123 349
L 124 350
L 126 351
L 127 350
L 129 351
L 130 350
L 132 351
L 133 351
L 135 351
L 136 351
L 138 351
L 139 351
L 141 351
L 142 350
L 144 351
L 145 351
L 147 351
L 148 351
L 150 351
L 151 351
L 153 351
L 154 351
L 156 351
L 158 351
L 159 351
L 161 351
L 162 351
L 164 350
L 165 351
L 167 351
L 168 351
L 170 351
L 171 351
L 173 351
L 174 351
L 176 351
L 177 350
L 179 351
L 180 351
L 182 351
L 183 351
L 185 351
L 186 350
L 188 351
L 189 351
L 191 351
L 192 351
L 194 350
L 195 351
L 197 351
L 198 351
L 200 351
L 201 351
L 203 351
L 204 351
L 206 351
L 207 351
L 209 351
L 210 350
L 212 351
L 213 351
L 215 351
L 216 351
L 218 351
L 219 351
L 221 351
L 222 351
L 224 351
L 225 351
L 227 351
L 228 351
L 230 351
L 231 351
L 233 350
L 234 351
L 236 351
L 237 351
L 239 351
L 240 350
L 242 350
L 243 350
L 245 350
L 246 351
L 248 350
L 249 350
L 251 351
L 252 351
L 254 351
L 255 351
L 257 350
L 258 350
L 260 350
L 261 349
L 263 350
L 264 351
L 266 351
L 267 351
L 269 350
L 270 349
L 272 351
L 274 351
L 275 351
L 277 350
L 278 351
L 280 350
L 281 351
L 283 351
L 284 350
L 286 351
L 287 351
L 289 349
L 290 350
L 292 350
L 293 348
L 295 347
L 296 349
L 298 350
L 299 348
L 301 349
L 302 348
L 304 349
L 305 349
L 307 349
L 308 348
L 310 346
L 311 348
L 313 345
L 314 349
L 316 346
L 317 343
L 319 348
L 320 345
L 322 346
L 323 340
L 325 345
L 326 348
L 328 350
L 329 348
L 331 346
L 332 344
L 334 346
L 335 344
L 337 340
L 338 348
L 340 346
L 341 331
L 343 341
L 344 343
L 346 345
L 347 344
L 349 348
L 350 348
L 352 342
L 353 342
L 355 347
L 356 348
L 358 344
L 359 344
L 361 345
L 362 341
L 364 343
L 365 344
L 367 336
L 368 336
L 370 342
L 371 332
L 373 340
L 374 333
L 376 337
L 377 341
L 379 333
L 380 337
L 382 333
L 383 325
L 385 322
L 386 335
L 388 290
L 390 321
L 391 337
L 393 340
L 394 320
L 396 315
L 397 323
L 399 296
L 400 301
L 402 313
L 403 309
L 405 313
L 406 290
L 408 284
L 409 279
L 411 268
L 412 300
L 414 310
L 415 258
L 417 261
L 418 265
L 420 268
L 421 235
L 423 290
L 424 275
L 426 255
L 427 270
L 429 248
L 430 288
L 432 289
L 433 313
L 435 278
L 436 271
L 438 270
L 439 263
L 441 270
L 442 283
L 444 287
L 445 313
L 447 283
L 448 288
L 450 293
L 451 292
L 453 314
L 454 324
L 456 327
L 457 313
L 459 318
L 460 313
L 462 322
L 463 316
L 465 309
L 466 326
L 468 327
L 469 331
L 471 324
L 472 332
L 474 328
L 475 327
L 477 340
L 478 324
L 480 331
L 481 330
L 483 333
L 484 330
L 486 336
L 487 334
L 489 336
L 490 325
L 492 329
L 493 340
L 495 336
L 496 341
L 498 332
L 499 331
L 501 329
L 502 335
L 504 334
L 506 326
L 507 335
L 509 339
L 510 336
L 512 338
L 513 334
L 515 335
L 516 332
L 518 345
L 519 346
L 521 339
L 522 339
L 524 342
L 525 342
L 527 343
L 528 339
L 530 347
L 531 339
L 533 342
L 534 336
L 536 340
L 537 341
L 539 341
L 540 346
L 542 341
L 543 344
L 545 342
L 546 343
L 548 341
L 549 344
L 551 338
L 552 340
L 554 339
L 555 343
L 557 343
L 558 343
L 560 345
L 561 343
L 563 342
L 564 346
L 566 348
L 567 345
L 569 346
L 570 347
L 572 345
L 573 349
L 575 344
L 576 345
L 578 343
L 579 342
L 581 342
L 582 345
L 584 342
L 585 341
L 587 347
L 588 344
L 590 347
L 591 346
L 593 344
L 594 341
L 596 338
L 597 342
L 599 344
L 600 339
L 602 349
L 603 341
L 605 338
L 606 336
L 608 335
L 609 331
L 611 345
L 612 331
L 614 323
L 615 335
L 617 328
L 618 333
L 620 322
L 622 325
L 623 331
L 625 329
L 626 329
L 628 326
L 629 321
L 631 325
L 632 317
L 634 321
L 635 324
L 637 316
L 638 323
L 640 317
L 641 326
L 643 313
L 644 331
L 646 324
L 647 327
L 649 323
L 650 329
L 652 330
L 653 332
L 655 338
L 656 336
L 658 327
L 659 312
L 661 324
L 662 327
L 664 331
L 665 331
L 667 328
L 668 315
L 670 323
L 671 330
L 673 326
L 674 331
L 676 329
L 677 331
L 679 325
L 680 324
L 682 327
L 683 331
L 685 337
L 686 335
L 688 333
L 689 329
L 691 334
L 692 335
L 694 341
L 695 335
L 697 341
L 698 344
L 700 339
L 701 341
L 703 345
L 704 343
L 706 339
L 707 345
L 709 343
L 710 334
L 712 337
L 713 336
L 715 344
L 716 342
L 718 343
L 719 346
L 721 347
L 722 341
L 724 338
L 725 346
L 727 342
L 728 346
L 730 344
L 731 342
L 733 346
L 734 344
L 736 344
L 738 347
L 739 344
L 741 345
L 742 339
L 744 347
L 745 346
L 747 345
L 748 349
L 750 346
L 751 349
L 753 348
L 754 350
L 756 349
L 757 348
L 759 350
L 760 350
L 762 348
L 763 349
L 765 350
L 766 348
L 768 349
L 769 350
L 771 350
L 772 350
L 774 350
L 775 350
L 777 350
L 778 350
L 780 350
L 781 351
L 783 349
L 784 350
L 786 349
L 787 348
L 789 349
L 790 350
L 792 350
L 793 350
L 795 349
L 796 348
L 798 350
L 799 348
L 801 347
L 802 348
L 804 349
L 805 349
L 807 349
L 808 349
L 810 347
L 811 345
L 813 347
L 814 348
L 816 348
L 817 344
L 819 347
L 820 346
L 822 349
L 823 348
L 825 348
L 826 346
L 828 345
L 829 347
L 831 348
L 832 347
L 834 346
L 835 348
L 837 346
L 838 344
L 840 343
L 841 341
L 843 346
L 844 345
L 846 346
L 847 350
L 849 345
L 850 342
L 852 339
L 854 340
L 855 340
L 857 343
L 858 346
L 860 345
L 861 325
L 863 338
L 864 340
L 866 338
L 867 345
L 869 338
L 870 344
L 872 336
L 873 342
L 875 338
L 876 344
L 878 345
L 879 341
L 881 334
L 882 344
L 884 335
L 885 340
L 887 343
L 888 349
L 890 334
L 891 333
L 893 343
L 894 340
L 896 341
L 897 342
L 899 343
L 900 338
L 902 344
L 903 329
L 905 332
L 906 339
L 908 345
L 909 343
L 911 335
L 912 333
L 914 337
L 915 340
L 917 341
L 918 342
L 920 346
L 921 339
L 923 329
L 924 338
L 926 340
L 927 336
L 929 343
L 930 344
L 932 341
L 933 345
L 935 331
L 936 336
L 938 340
L 939 338
L 941 332
L 942 325
L 944 325
L 945 320
L 947 334
L 948 317
L 950 321
L 951 334
L 953 326
L 954 312
L 956 320
L 957 312
L 959 306
L 960 295
L 962 325
L 963 321
L 965 273
L 966 278
L 968 302
L 969 293" style="stroke-width:1;stroke:rgba(0,217,101,1.0);fill:none"/><path  d="M 38 351
L 40 351
L 42 351
L 43 351
L 45 351
L 46 351
L 48 351
L 49 351
L 51 351
L 52 351
L 54 351
L 55 351
L 57 351
L 58 351
L 60 351
L 61 351
L 63 351
L 64 351
L 66 351
L 67 351
L 69 351
L 70 351
L 72 350
L 73 351
L 75 351
L 76 351
L 78 351
L 79 351
L 81 351
L 82 350
L 84 351
L 85 350
L 87 351
L 88 350
L 90 350
L 91 351
L 93 350
L 94 350
L 96 351
L 97 351
L 99 350
L 100 350
L 102 351
L 103 351
L 105 351
L 106 351
L 108 351
L 109 351
L 111 351
L 112 351
L 114 351
L 115 351
L 117 351
L 118 351
L 120 350
L 121 351
L 123 350
L 124 351
L 126 351
L 127 351
L 129 351
L 130 351
L 132 351
L 133 351
L 135 351
L 136 351
L 138 351
L 139 351
L 141 351
L 142 351
L 144 351
L 145 351
L 147 351
L 148 351
L 150 351
L 151 351
L 153 351
L 154 351
L 156 351
L 158 351
L 159 351
L 161 351
L 162 351
L 164 351
L 165 351
L 167 351
L 168 351
L 170 351
L 171 351
L 173 351
L 174 351
L 176 351
L 177 351
L 179 351
L 180 351
L 182 351
L 183 351
L 185 351
L 186 351
L 188 351
L 189 351
L 191 351
L 192 351
L 194 351
L 195 351
L 197 351
L 198 351
L 200 351
L 201 351
L 203 351
L 204 351
L 206 351
L 207 351
L 209 351
L 210 351
L 212 351
L 213 351
L 215 351
L 216 351
L 218 351
L 219 351
L 221 351
L 222 351
L 224 351
L 225 351
L 227 351
L 228 351
L 230 351
L 231 351
L 233 351
L 234 351
L 236 351
L 237 351
L 239 351
L 240 351
L 242 351
L 243 351
L 245 351
L 246 351
L 248 351
L 249 351
L 251 351
L 252 351
L 254 351
L 255 351
L 257 351
L 258 351
L 260 351
L 261 351
L 263 351
L 264 351
L 266 351
L 267 351
L 269 351
L 270 351
L 272 351
L 274 351
L 275 351
L 277 351
L 278 351
L 280 351
L 281 351
L 283 351
L 284 351
L 286 351
L 287 351
L 289 351
L 290 351
L 292 351
L 293 351
L 295 351
L 296 351
L 298 351
L 299 351
L 301 351
L 302 351
L 304 351
L 305 351
L 307 351
L 308 351
L 310 351
L 311 351
L 313 351
L 314 351
L 316 351
L 317 351
L 319 351
L 320 351
L 322 351
L 323 351
L 325 351
L 326 351
L 328 351
L 329 351
L 331 351
L 332 351
L 334 351
L 335 351
L 337 351
L 338 350
L 340 351
L 341 351
L 343 351
L 344 351
L 346 351
L 347 351
L 349 351
L 350 351
L 352 351
L 353 351
L 355 351
L 356 351
L 358 351
L 359 351
L 361 351
L 362 351
L 364 351
L 365 351
L 367 351
L 368 351
L 370 351
L 371 351
L 373 351
L 374 351
L 376 351
L 377 350
L 379 351
L 380 351
L 382 351
L 383 351
L 385 351
L 386 351
L 388 351
L 390 351
L 391 351
L 393 351
L 394 351
L 396 351
L 397 351
L 399 351
L 400 351
L 402 351
L 403 351
L 405 351
L 406 350
L 408 350
L 409 351
L 411 351
L 412 351
L 414 350
L 415 350
L 417 350
L 418 351
L 420 350
L 421 351
L 423 350
L 424 351
L 426 350
L 427 350
L 429 350
L 430 350
L 432 350
L 433 349
L 435 350
L 436 349
L 438 350
L 439 350
L 441 350
L 442 349
L 444 350
L 445 349
L 447 349
L 448 349
L 450 349
L 451 350
L 453 348
L 454 350
L 456 350
L 457 350
L 459 350
L 460 350
L 462 350
L 463 350
L 465 351
L 466 349
L 468 350
L 469 349
L 471 349
L 472 350
L 474 351
L 475 350
L 477 350
L 478 349
L 480 350
L 481 351
L 483 350
L 484 351
L 486 351
L 487 350
L 489 351
L 490 351
L 492 350
L 493 350
L 495 350
L 496 351
L 498 351
L 499 350
L 501 351
L 502 350
L 504 350
L 506 351
L 507 350
L 509 351
L 510 350
L 512 350
L 513 351
L 515 351
L 516 350
L 518 351
L 519 351
L 521 351
L 522 351
L 524 351
L 525 350
L 527 351
L 528 350
L 530 351
L 531 350
L 533 351
L 534 350
L 536 351
L 537 350
L 539 351
L 540 351
L 542 351
L 543 351
L 545 350
L 546 351
L 548 351
L 549 351
L 551 350
L 552 351
L 554 351
L 555 351
L 557 351
L 558 351
L 560 351
L 561 351
L 563 351
L 564 350
L 566 351
L 567 351
L 569 351
L 570 351
L 572 350
L 573 351
L 575 350
L 576 350
L 578 350
L 579 351
L 581 351
L 582 351
L 584 350
L 585 351
L 587 351
L 588 351
L 590 351
L 591 351
L 593 351
L 594 351
L 596 351
L 597 351
L 599 350
L 600 350
L 602 351
L 603 350
L 605 351
L 606 351
L 608 351
L 609 351
L 611 351
L 612 351
L 614 351
L 615 351
L 617 351
L 618 351
L 620 351
L 622 351
L 623 351
L 625 351
L 626 351
L 628 351
L 629 351
L 631 351
L 632 351
L 634 351
L 635 351
L 637 350
L 638 350
L 640 351
L 641 351
L 643 351
L 644 351
L 646 351
L 647 351
L 649 351
L 650 350
L 652 351
L 653 351
L 655 351
L 656 351
L 658 351
L 659 351
L 661 351
L 662 351
L 664 351
L 665 351
L 667 351
L 668 351
L 670 351
L 671 351
L 673 351
L 674 351
L 676 351
L 677 351
L 679 351
L 680 351
L 682 351
L 683 351
L 685 351
L 686 351
L 688 351
L 689 351
L 691 351
L 692 351
L 694 351
L 695 351
L 697 351
L 698 351
L 700 351
L 701 351
L 703 351
L 704 351
L 706 351
L 707 351
L 709 351
L 710 351
L 712 351
L 713 351
L 715 351
L 716 351
L 718 351
L 719 351
L 721 351
L 722 351
L 724 351
L 725 351
L 727 351
L 728 351
L 730 351
L 731 351
L 733 350
L 734 351
L 736 351
L 738 351
L 739 351
L 741 351
L 742 351
L 744 351
L 745 351
L 747 351
L 748 351
L 750 351
L 751 351
L 753 351
L 754 351
L 756 351
L 757 351
L 759 351
L 760 351
L 762 351
L 763 351
L 765 351
L 766 351
L 768 351
L 769 351
L 771 351
L 772 351
L 774 351
L 775 351
L 777 351
L 778 351
L 780 351
L 781 351
L 783 351
L 784 351
L 786 351
L 787 351
L 789 351
L 790 351
L 792 351
L 793 351
L 795 351
L 796 351
L 798 351
L 799 351
L 801 351
L 802 351
L 804 351
L 805 351
L 807 351
L 808 351
L 810 351
L 811 351
L 813 351
L 814 351
L 816 351
L 817 351
L 819 351
L 820 350
L 822 351
L 823 351
L 825 351
L 826 351
L 828 351
L 829 351
L 831 351
L 832 351
L 834 351
L 835 351
L 837 351
L 838 351
L 840 351
L 841 351
L 843 351
L 844 351
L 846 351
L 847 351
L 849 351
L 850 351
L 852 351
L 854 351
L 855 351
L 857 351
L 858 351
L 860 351
L 861 351
L 863 351
L 864 351
L 866 351
L 867 351
L 869 351
L 870 351
L 872 351
L 873 351
L 875 351
L 876 351
L 878 351
L 879 351
L 881 351
L 882 351
L 884 351
L 885 351
L 887 351
L 888 351
L 890 351
L 891 351
L 893 351
L 894 351
L 896 350
L 897 351
L 899 351
L 900 351
L 902 351
L 903 351
L 905 350
L 906 351
L 908 351
L 909 351
L 911 351
L 912 351
L 914 351
L 915 351
L 917 351
L 918 351
L 920 351
L 921 351
L 923 351
L 924 351
L 926 351
L 927 351
L 929 351
L 930 351
L 932 351
L 933 351
L 935 351
L 936 350
L 938 351
L 939 351
L 941 351
L 942 351
L 944 351
L 945 351
L 947 351
L 948 351
L 950 351
L 951 351
L 953 350
L 954 351
L 956 351
L 957 351
L 959 351
L 960 351
L 962 351
L 963 351
L 965 351
L 966 350
L 968 350
L 969 351" style="stroke-width:1;stroke:rgba(217,0,116,1.0);fill:none"/><text x="370" y="33" style="stroke-width:0;stroke:none;fill:rgba(51,51,51,1.0);font-size:23.0px;font-family:'Roboto Medium',sans-serif">Innsbruck-Land 05.11.2021</text><path  d="M 38 11
L 251 11
L 251 91
L 38 91
L 38 11" style="stroke-width:1;stroke:rgba(51,51,51,1.0);fill:rgba(255,255,255,1.0)"/><text x="43" y="26" style="stroke-width:0;stroke:none;fill:rgba(51,51,51,1.0);font-size:10.2px;font-family:'Roboto Medium',sans-serif">Sieben Tage Durschnitt Inzidenz Fälle</text><path  d="M 221 21
L 241 21" style="stroke-width:1;stroke:rgba(0,116,217,1.0);fill:none"/><text x="43" y="56" style="stroke-width:0;stroke:none;fill:rgba(51,51,51,1.0);font-size:10.2px;font-family:'Roboto Medium',sans-serif">Anzahl Faelle</text><path  d="M 110 51
L 241 51" style="stroke-width:1;stroke:rgba(0,217,101,1.0);fill:none"/><text x="43" y="86" style="stroke-width:0;stroke:none;fill:rgba(51,51,51,1.0);font-size:10.2px;font-family:'Roboto Medium',sans-serif">Anzahl Tot</text><path  d="M 98 81
L 241 81" style="stroke-width:1;stroke:rgba(217,0,116,1.0);fill:none"/></svg>