<svg xmlns="http://www.w3.org/2000/svg" xmlns:xlink="http://www.w3.org/1999/xlink" width="1024" height="400">\n<path  d="M 0 0
L 1024 0
L 1024 400
L 0 400
L 0 0" style="stroke-width:0;stroke:rgba(255,255,255,1.0);fill:rgba(255,255,255,1.0)"/><path  d="M 38 11
L 969 11
L 969 351
L 38 351
L 38 11" style="stroke-width:0;stroke:rgba(255,255,255,1.0);fill:rgba(255,255,255,1.0)"/><path  d="M 38 351
L 969 351" style="stroke-width:1;stroke:rgba(51,51,51,1.0);fill:none"/><path  d="M 38 351
L 38 356" style="stroke-width:1;stroke:rgba(51,51,51,1.0);fill:none"/><text x="5" y="373" style="stroke-width:0;stroke:none;fill:rgba(51,51,51,1.0);font-size:12.8px;font-family:'Roboto Medium',sans-serif">2020-02-26</text><path  d="M 155 351
L 155 356" style="stroke-width:1;stroke:rgba(51,51,51,1.0);fill:none"/><text x="122" y="373" style="stroke-width:0;stroke:none;fill:rgba(51,51,51,1.0);font-size:12.8px;font-family:'Roboto Medium',sans-serif">2020-04-09</text><path  d="M 271 351
L 271 356" style="stroke-width:1;stroke:rgba(51,51,51,1.0);fill:none"/><text x="238" y="373" style="stroke-width:0;stroke:none;fill:rgba(51,51,51,1.0);font-size:12.8px;font-family:'Roboto Medium',sans-serif">2020-05-23</text><path  d="M 388 351
L 388 356" style="stroke-width:1;stroke:rgba(51,51,51,1.0);fill:none"/><text x="355" y="373" style="stroke-width:0;stroke:none;fill:rgba(51,51,51,1.0);font-size:12.8px;font-family:'Roboto Medium',sans-serif">2020-07-05</text><path  d="M 504 351
L 504 356" style="stroke-width:1;stroke:rgba(51,51,51,1.0);fill:none"/><text x="471" y="373" style="stroke-width:0;stroke:none;fill:rgba(51,51,51,1.0);font-size:12.8px;font-family:'Roboto Medium',sans-serif">2020-08-18</text><path  d="M 620 351
L 620 356" style="stroke-width:1;stroke:rgba(51,51,51,1.0);fill:none"/><text x="587" y="373" style="stroke-width:0;stroke:none;fill:rgba(51,51,51,1.0);font-size:12.8px;font-family:'Roboto Medium',sans-serif">2020-10-01</text><path  d="M 737 351
L 737 356" style="stroke-width:1;stroke:rgba(51,51,51,1.0);fill:none"/><text x="704" y="373" style="stroke-width:0;stroke:none;fill:rgba(51,51,51,1.0);font-size:12.8px;font-family:'Roboto Medium',sans-serif">2020-11-13</text><path  d="M 853 351
L 853 356" style="stroke-width:1;stroke:rgba(51,51,51,1.0);fill:none"/><text x="820" y="373" style="stroke-width:0;stroke:none;fill:rgba(51,51,51,1.0);font-size:12.8px;font-family:'Roboto Medium',sans-serif">2020-12-27</text><path  d="M 969 351
L 969 356" style="stroke-width:1;stroke:rgba(51,51,51,1.0);fill:none"/><text x="936" y="373" style="stroke-width:0;stroke:none;fill:rgba(51,51,51,1.0);font-size:12.8px;font-family:'Roboto Medium',sans-serif">2021-02-09</text><text x="485" y="395" style="stroke-width:0;stroke:none;fill:rgba(51,51,51,1.0);font-size:12.8px;font-family:'Roboto Medium',sans-serif">Datum</text><path  d="M 970 351
L 970 11" style="stroke-width:1;stroke:rgba(51,51,51,1.0);fill:none"/><path  d="M 970 351
L 975 351" style="stroke-width:1;stroke:rgba(51,51,51,1.0);fill:none"/><text x="980" y="357" style="stroke-width:0;stroke:none;fill:rgba(51,51,51,1.0);font-size:12.8px;font-family:'Roboto Medium',sans-serif">0.00</text><path  d="M 970 308
L 975 308" style="stroke-width:1;stroke:rgba(51,51,51,1.0);fill:none"/><text x="980" y="314" style="stroke-width:0;stroke:none;fill:rgba(51,51,51,1.0);font-size:12.8px;font-family:'Roboto Medium',sans-serif">80.00</text><path  d="M 970 266
L 975 266" style="stroke-width:1;stroke:rgba(51,51,51,1.0);fill:none"/><text x="980" y="272" style="stroke-width:0;stroke:none;fill:rgba(51,51,51,1.0);font-size:12.8px;font-family:'Roboto Medium',sans-serif">160.00</text><path  d="M 970 223
L 975 223" style="stroke-width:1;stroke:rgba(51,51,51,1.0);fill:none"/><text x="980" y="229" style="stroke-width:0;stroke:none;fill:rgba(51,51,51,1.0);font-size:12.8px;font-family:'Roboto Medium',sans-serif">240.00</text><path  d="M 970 181
L 975 181" style="stroke-width:1;stroke:rgba(51,51,51,1.0);fill:none"/><text x="980" y="187" style="stroke-width:0;stroke:none;fill:rgba(51,51,51,1.0);font-size:12.8px;font-family:'Roboto Medium',sans-serif">320.00</text><path  d="M 970 138
L 975 138" style="stroke-width:1;stroke:rgba(51,51,51,1.0);fill:none"/><text x="980" y="144" style="stroke-width:0;stroke:none;fill:rgba(51,51,51,1.0);font-size:12.8px;font-family:'Roboto Medium',sans-serif">400.00</text><path  d="M 970 96
L 975 96" style="stroke-width:1;stroke:rgba(51,51,51,1.0);fill:none"/><text x="980" y="102" style="stroke-width:0;stroke:none;fill:rgba(51,51,51,1.0);font-size:12.8px;font-family:'Roboto Medium',sans-serif">480.00</text><path  d="M 970 53
L 975 53" style="stroke-width:1;stroke:rgba(51,51,51,1.0);fill:none"/><text x="980" y="59" style="stroke-width:0;stroke:none;fill:rgba(51,51,51,1.0);font-size:12.8px;font-family:'Roboto Medium',sans-serif">560.00</text><path  d="M 970 11
L 975 11" style="stroke-width:1;stroke:rgba(51,51,51,1.0);fill:none"/><text x="980" y="17" style="stroke-width:0;stroke:none;fill:rgba(51,51,51,1.0);font-size:12.8px;font-family:'Roboto Medium',sans-serif">640.00</text><path  d="M 38 351
L 41 351
L 44 351
L 47 351
L 49 351
L 52 351
L 55 351
L 57 350
L 60 350
L 63 349
L 65 349
L 68 347
L 71 346
L 73 345
L 76 340
L 79 336
L 81 329
L 84 326
L 87 325
L 89 318
L 92 310
L 95 311
L 97 305
L 100 301
L 103 292
L 105 289
L 108 278
L 111 284
L 113 278
L 116 279
L 119 283
L 121 291
L 124 295
L 127 311
L 129 313
L 132 322
L 135 328
L 137 333
L 140 335
L 143 337
L 145 337
L 148 338
L 151 340
L 153 341
L 156 343
L 159 346
L 161 346
L 164 347
L 167 347
L 169 346
L 172 348
L 175 349
L 177 349
L 180 348
L 183 348
L 185 347
L 188 347
L 191 347
L 193 345
L 196 344
L 199 344
L 201 344
L 204 346
L 207 345
L 209 345
L 212 347
L 215 347
L 217 348
L 220 348
L 223 348
L 225 349
L 228 349
L 231 349
L 233 350
L 236 350
L 239 351
L 241 350
L 244 350
L 247 350
L 249 350
L 252 350
L 255 350
L 257 350
L 260 351
L 263 351
L 265 351
L 268 351
L 271 351
L 273 351
L 276 351
L 279 351
L 281 351
L 284 351
L 287 351
L 289 351
L 292 351
L 295 351
L 297 351
L 300 351
L 303 351
L 305 351
L 308 351
L 311 351
L 313 351
L 316 351
L 319 351
L 321 351
L 324 351
L 327 351
L 329 351
L 332 351
L 335 351
L 337 351
L 340 351
L 343 351
L 345 351
L 348 350
L 351 350
L 353 350
L 356 350
L 359 349
L 361 349
L 364 349
L 367 349
L 369 348
L 372 348
L 375 348
L 377 348
L 380 348
L 383 347
L 385 347
L 388 348
L 391 348
L 393 348
L 396 348
L 399 348
L 401 348
L 404 348
L 407 346
L 409 346
L 412 346
L 415 346
L 417 346
L 420 347
L 423 347
L 425 348
L 428 348
L 431 348
L 433 349
L 436 348
L 439 348
L 441 348
L 444 347
L 447 348
L 449 348
L 452 348
L 455 348
L 457 348
L 460 348
L 463 349
L 465 349
L 468 348
L 471 349
L 473 348
L 476 348
L 479 348
L 481 346
L 484 340
L 487 336
L 489 319
L 492 313
L 495 311
L 497 306
L 500 302
L 503 305
L 505 308
L 508 320
L 511 319
L 513 319
L 516 322
L 519 325
L 521 324
L 524 323
L 527 325
L 529 329
L 532 327
L 535 326
L 537 324
L 540 324
L 543 320
L 545 318
L 548 319
L 551 321
L 553 319
L 556 315
L 559 313
L 561 309
L 564 303
L 567 294
L 569 293
L 572 289
L 575 285
L 577 284
L 580 289
L 583 293
L 585 293
L 588 290
L 591 294
L 593 295
L 596 296
L 599 296
L 601 298
L 604 303
L 607 305
L 609 306
L 612 310
L 615 311
L 617 310
L 620 307
L 623 299
L 625 296
L 628 287
L 631 282
L 633 273
L 636 265
L 639 264
L 641 270
L 644 261
L 647 262
L 649 256
L 652 251
L 655 235
L 657 227
L 660 214
L 663 216
L 665 221
L 668 197
L 671 195
L 673 200
L 676 167
L 679 154
L 681 143
L 684 121
L 687 137
L 689 108
L 692 99
L 695 109
L 697 89
L 700 69
L 703 72
L 705 49
L 708 53
L 711 38
L 713 35
L 716 18
L 719 36
L 721 14
L 724 14
L 727 17
L 729 11
L 732 20
L 735 61
L 737 76
L 740 92
L 743 100
L 745 114
L 748 131
L 751 131
L 753 139
L 756 136
L 759 140
L 761 149
L 764 147
L 767 158
L 769 167
L 772 162
L 775 162
L 777 178
L 780 192
L 783 212
L 785 219
L 788 229
L 791 234
L 793 241
L 796 237
L 799 244
L 801 248
L 804 250
L 807 255
L 809 270
L 812 269
L 815 276
L 817 274
L 820 277
L 823 283
L 825 287
L 828 285
L 831 291
L 833 291
L 836 293
L 839 291
L 841 295
L 844 301
L 847 306
L 849 308
L 852 311
L 855 317
L 857 313
L 860 313
L 863 310
L 865 303
L 868 300
L 871 300
L 873 297
L 876 305
L 879 302
L 881 303
L 884 308
L 887 308
L 889 309
L 892 309
L 895 309
L 897 312
L 900 309
L 903 313
L 905 310
L 908 310
L 911 312
L 913 313
L 916 314
L 919 317
L 921 312
L 924 317
L 927 318
L 929 317
L 932 315
L 935 317
L 937 317
L 940 319
L 943 321
L 945 315
L 948 315
L 951 315
L 953 316
L 956 317
L 959 317
L 961 317
L 964 322
L 967 326
L 969 326" style="stroke-width:1;stroke:rgba(0,116,217,1.0);fill:none"/><path  d="M 38 351
L 41 351
L 44 351
L 47 351
L 49 351
L 52 351
L 55 351
L 57 349
L 60 351
L 63 349
L 65 351
L 68 348
L 71 349
L 73 349
L 76 343
L 79 345
L 81 340
L 84 347
L 87 346
L 89 341
L 92 338
L 95 345
L 97 337
L 100 335
L 103 335
L 105 341
L 108 328
L 111 346
L 113 337
L 116 338
L 119 340
L 121 345
L 124 347
L 127 349
L 129 349
L 132 348
L 135 347
L 137 346
L 140 347
L 143 349
L 145 349
L 148 351
L 151 351
L 153 348
L 156 349
L 159 351
L 161 350
L 164 351
L 167 350
L 169 350
L 172 351
L 175 351
L 177 351
L 180 349
L 183 350
L 185 348
L 188 350
L 191 351
L 193 348
L 196 349
L 199 349
L 201 349
L 204 351
L 207 349
L 209 350
L 212 351
L 215 349
L 217 351
L 220 350
L 223 351
L 225 351
L 228 351
L 231 351
L 233 351
L 236 351
L 239 351
L 241 350
L 244 351
L 247 351
L 249 351
L 252 351
L 255 351
L 257 351
L 260 351
L 263 351
L 265 351
L 268 351
L 271 351
L 273 351
L 276 351
L 279 351
L 281 351
L 284 351
L 287 351
L 289 351
L 292 351
L 295 351
L 297 351
L 300 351
L 303 351
L 305 351
L 308 351
L 311 351
L 313 351
L 316 351
L 319 351
L 321 351
L 324 351
L 327 351
L 329 351
L 332 351
L 335 351
L 337 351
L 340 351
L 343 351
L 345 351
L 348 350
L 351 351
L 353 351
L 356 350
L 359 350
L 361 351
L 364 351
L 367 350
L 369 349
L 372 350
L 375 351
L 377 349
L 380 351
L 383 349
L 385 351
L 388 351
L 391 350
L 393 350
L 396 350
L 399 350
L 401 349
L 404 351
L 407 349
L 409 349
L 412 350
L 415 349
L 417 351
L 420 351
L 423 351
L 425 350
L 428 349
L 431 351
L 433 350
L 436 350
L 439 350
L 441 351
L 444 349
L 447 350
L 449 351
L 452 350
L 455 351
L 457 351
L 460 351
L 463 349
L 465 350
L 468 350
L 471 351
L 473 350
L 476 351
L 479 350
L 481 347
L 484 342
L 487 344
L 489 329
L 492 341
L 495 348
L 497 344
L 500 341
L 503 345
L 505 348
L 508 345
L 511 339
L 513 349
L 516 348
L 519 345
L 521 344
L 524 347
L 527 348
L 529 345
L 532 346
L 535 346
L 537 344
L 540 343
L 543 343
L 545 345
L 548 346
L 551 348
L 553 344
L 556 339
L 559 340
L 561 337
L 564 337
L 567 334
L 569 346
L 572 339
L 575 334
L 577 339
L 580 344
L 583 341
L 585 334
L 588 343
L 591 345
L 593 335
L 596 340
L 599 344
L 601 344
L 604 340
L 607 346
L 609 346
L 612 340
L 615 341
L 617 343
L 620 340
L 623 330
L 625 341
L 628 335
L 631 334
L 633 329
L 636 332
L 639 338
L 641 338
L 644 329
L 647 336
L 649 325
L 652 323
L 655 311
L 657 327
L 660 322
L 663 332
L 665 343
L 668 294
L 671 321
L 673 317
L 676 284
L 679 305
L 681 317
L 684 314
L 687 314
L 689 283
L 692 305
L 695 297
L 697 278
L 700 290
L 703 319
L 705 283
L 708 288
L 711 286
L 713 293
L 716 256
L 719 314
L 721 289
L 724 283
L 727 292
L 729 278
L 732 305
L 735 310
L 737 334
L 740 311
L 743 294
L 745 310
L 748 301
L 751 305
L 753 321
L 756 329
L 759 317
L 761 305
L 764 307
L 767 316
L 769 317
L 772 314
L 775 329
L 777 338
L 780 324
L 783 334
L 785 325
L 788 330
L 791 320
L 793 338
L 796 333
L 799 333
L 801 339
L 804 328
L 807 336
L 809 339
L 812 337
L 815 342
L 817 330
L 820 344
L 823 336
L 825 341
L 828 337
L 831 346
L 833 341
L 836 334
L 839 340
L 841 341
L 844 349
L 847 344
L 849 349
L 852 345
L 855 343
L 857 334
L 860 342
L 863 344
L 865 335
L 868 344
L 871 345
L 873 339
L 876 344
L 879 338
L 881 345
L 884 343
L 887 344
L 889 345
L 892 340
L 895 344
L 897 342
L 900 341
L 903 348
L 905 340
L 908 345
L 911 343
L 913 345
L 916 343
L 919 346
L 921 341
L 924 347
L 927 346
L 929 340
L 932 343
L 935 346
L 937 346
L 940 344
L 943 349
L 945 339
L 948 341
L 951 343
L 953 346
L 956 347
L 959 345
L 961 348
L 964 346
L 967 345
L 969 343" style="stroke-width:1;stroke:rgba(0,217,101,1.0);fill:none"/><path  d="M 38 351
L 41 351
L 44 351
L 47 351
L 49 351
L 52 351
L 55 351
L 57 351
L 60 351
L 63 351
L 65 351
L 68 351
L 71 351
L 73 351
L 76 351
L 79 351
L 81 351
L 84 351
L 87 351
L 89 351
L 92 351
L 95 351
L 97 351
L 100 351
L 103 351
L 105 351
L 108 351
L 111 350
L 113 351
L 116 351
L 119 351
L 121 351
L 124 351
L 127 351
L 129 349
L 132 351
L 135 351
L 137 351
L 140 351
L 143 351
L 145 351
L 148 351
L 151 351
L 153 351
L 156 350
L 159 351
L 161 351
L 164 351
L 167 349
L 169 351
L 172 351
L 175 351
L 177 351
L 180 351
L 183 351
L 185 351
L 188 351
L 191 351
L 193 351
L 196 351
L 199 351
L 201 351
L 204 351
L 207 351
L 209 351
L 212 351
L 215 351
L 217 351
L 220 351
L 223 351
L 225 351
L 228 351
L 231 351
L 233 351
L 236 351
L 239 351
L 241 351
L 244 351
L 247 351
L 249 351
L 252 351
L 255 351
L 257 351
L 260 351
L 263 351
L 265 351
L 268 351
L 271 351
L 273 351
L 276 351
L 279 351
L 281 351
L 284 351
L 287 351
L 289 351
L 292 351
L 295 351
L 297 351
L 300 351
L 303 351
L 305 351
L 308 351
L 311 351
L 313 351
L 316 351
L 319 351
L 321 351
L 324 351
L 327 351
L 329 351
L 332 351
L 335 351
L 337 351
L 340 351
L 343 351
L 345 351
L 348 351
L 351 351
L 353 351
L 356 351
L 359 351
L 361 351
L 364 351
L 367 351
L 369 351
L 372 351
L 375 351
L 377 351
L 380 351
L 383 351
L 385 351
L 388 351
L 391 351
L 393 351
L 396 351
L 399 351
L 401 351
L 404 351
L 407 351
L 409 351
L 412 351
L 415 351
L 417 351
L 420 351
L 423 351
L 425 351
L 428 351
L 431 351
L 433 351
L 436 351
L 439 351
L 441 351
L 444 351
L 447 351
L 449 351
L 452 351
L 455 351
L 457 351
L 460 351
L 463 351
L 465 351
L 468 351
L 471 351
L 473 351
L 476 351
L 479 351
L 481 351
L 484 351
L 487 351
L 489 351
L 492 351
L 495 351
L 497 351
L 500 351
L 503 351
L 505 351
L 508 351
L 511 351
L 513 351
L 516 351
L 519 351
L 521 351
L 524 351
L 527 351
L 529 351
L 532 351
L 535 351
L 537 351
L 540 351
L 543 351
L 545 351
L 548 351
L 551 351
L 553 351
L 556 351
L 559 351
L 561 351
L 564 351
L 567 351
L 569 351
L 572 351
L 575 351
L 577 351
L 580 351
L 583 351
L 585 351
L 588 351
L 591 351
L 593 351
L 596 351
L 599 351
L 601 351
L 604 351
L 607 351
L 609 351
L 612 351
L 615 351
L 617 351
L 620 351
L 623 351
L 625 351
L 628 351
L 631 351
L 633 350
L 636 351
L 639 351
L 641 351
L 644 351
L 647 350
L 649 351
L 652 351
L 655 351
L 657 350
L 660 351
L 663 351
L 665 350
L 668 350
L 671 351
L 673 351
L 676 351
L 679 350
L 681 350
L 684 350
L 687 351
L 689 350
L 692 351
L 695 351
L 697 349
L 700 348
L 703 351
L 705 350
L 708 349
L 711 349
L 713 349
L 716 349
L 719 348
L 721 350
L 724 351
L 727 350
L 729 349
L 732 349
L 735 350
L 737 351
L 740 350
L 743 350
L 745 350
L 748 350
L 751 349
L 753 351
L 756 350
L 759 349
L 761 350
L 764 351
L 767 349
L 769 351
L 772 349
L 775 351
L 777 351
L 780 351
L 783 350
L 785 351
L 788 351
L 791 350
L 793 351
L 796 351
L 799 350
L 801 351
L 804 351
L 807 349
L 809 350
L 812 351
L 815 350
L 817 350
L 820 349
L 823 350
L 825 351
L 828 349
L 831 349
L 833 350
L 836 351
L 839 349
L 841 350
L 844 350
L 847 351
L 849 351
L 852 351
L 855 351
L 857 351
L 860 351
L 863 351
L 865 351
L 868 351
L 871 351
L 873 351
L 876 351
L 879 351
L 881 351
L 884 351
L 887 351
L 889 350
L 892 351
L 895 350
L 897 351
L 900 351
L 903 351
L 905 351
L 908 351
L 911 351
L 913 350
L 916 351
L 919 351
L 921 351
L 924 351
L 927 351
L 929 351
L 932 351
L 935 350
L 937 351
L 940 350
L 943 351
L 945 350
L 948 351
L 951 351
L 953 351
L 956 351
L 959 351
L 961 351
L 964 351
L 967 351
L 969 351" style="stroke-width:1;stroke:rgba(217,0,116,1.0);fill:none"/><text x="368" y="33" style="stroke-width:0;stroke:none;fill:rgba(51,51,51,1.0);font-size:23.0px;font-family:'Roboto Medium',sans-serif">Innsbruck-Stadt 09.02.2021</text><path  d="M 38 11
L 251 11
L 251 91
L 38 91
L 38 11" style="stroke-width:1;stroke:rgba(51,51,51,1.0);fill:rgba(255,255,255,1.0)"/><text x="43" y="26" style="stroke-width:0;stroke:none;fill:rgba(51,51,51,1.0);font-size:10.2px;font-family:'Roboto Medium',sans-serif">Sieben Tage Durschnitt Inzidenz Fälle</text><path  d="M 221 21
L 241 21" style="stroke-width:1;stroke:rgba(0,116,217,1.0);fill:none"/><text x="43" y="56" style="stroke-width:0;stroke:none;fill:rgba(51,51,51,1.0);font-size:10.2px;font-family:'Roboto Medium',sans-serif">Anzahl Faelle</text><path  d="M 110 51
L 241 51" style="stroke-width:1;stroke:rgba(0,217,101,1.0);fill:none"/><text x="43" y="86" style="stroke-width:0;stroke:none;fill:rgba(51,51,51,1.0);font-size:10.2px;font-family:'Roboto Medium',sans-serif">Anzahl Tot</text><path  d="M 98 81
L 241 81" style="stroke-width:1;stroke:rgba(217,0,116,1.0);fill:none"/></svg>