<svg xmlns="http://www.w3.org/2000/svg" xmlns:xlink="http://www.w3.org/1999/xlink" width="1024" height="400">\n<path  d="M 0 0
L 1024 0
L 1024 400
L 0 400
L 0 0" style="stroke-width:0;stroke:rgba(255,255,255,1.0);fill:rgba(255,255,255,1.0)"/><path  d="M 38 11
L 961 11
L 961 351
L 38 351
L 38 11" style="stroke-width:0;stroke:rgba(255,255,255,1.0);fill:rgba(255,255,255,1.0)"/><path  d="M 38 351
L 961 351" style="stroke-width:1;stroke:rgba(51,51,51,1.0);fill:none"/><path  d="M 38 351
L 38 356" style="stroke-width:1;stroke:rgba(51,51,51,1.0);fill:none"/><text x="5" y="373" style="stroke-width:0;stroke:none;fill:rgba(51,51,51,1.0);font-size:12.8px;font-family:'Roboto Medium',sans-serif">2020-02-26</text><path  d="M 154 351
L 154 356" style="stroke-width:1;stroke:rgba(51,51,51,1.0);fill:none"/><text x="121" y="373" style="stroke-width:0;stroke:none;fill:rgba(51,51,51,1.0);font-size:12.8px;font-family:'Roboto Medium',sans-serif">2020-04-12</text><path  d="M 269 351
L 269 356" style="stroke-width:1;stroke:rgba(51,51,51,1.0);fill:none"/><text x="236" y="373" style="stroke-width:0;stroke:none;fill:rgba(51,51,51,1.0);font-size:12.8px;font-family:'Roboto Medium',sans-serif">2020-05-29</text><path  d="M 385 351
L 385 356" style="stroke-width:1;stroke:rgba(51,51,51,1.0);fill:none"/><text x="352" y="373" style="stroke-width:0;stroke:none;fill:rgba(51,51,51,1.0);font-size:12.8px;font-family:'Roboto Medium',sans-serif">2020-07-15</text><path  d="M 500 351
L 500 356" style="stroke-width:1;stroke:rgba(51,51,51,1.0);fill:none"/><text x="467" y="373" style="stroke-width:0;stroke:none;fill:rgba(51,51,51,1.0);font-size:12.8px;font-family:'Roboto Medium',sans-serif">2020-08-31</text><path  d="M 615 351
L 615 356" style="stroke-width:1;stroke:rgba(51,51,51,1.0);fill:none"/><text x="582" y="373" style="stroke-width:0;stroke:none;fill:rgba(51,51,51,1.0);font-size:12.8px;font-family:'Roboto Medium',sans-serif">2020-10-17</text><path  d="M 731 351
L 731 356" style="stroke-width:1;stroke:rgba(51,51,51,1.0);fill:none"/><text x="698" y="373" style="stroke-width:0;stroke:none;fill:rgba(51,51,51,1.0);font-size:12.8px;font-family:'Roboto Medium',sans-serif">2020-12-03</text><path  d="M 846 351
L 846 356" style="stroke-width:1;stroke:rgba(51,51,51,1.0);fill:none"/><text x="813" y="373" style="stroke-width:0;stroke:none;fill:rgba(51,51,51,1.0);font-size:12.8px;font-family:'Roboto Medium',sans-serif">2021-01-19</text><path  d="M 961 351
L 961 356" style="stroke-width:1;stroke:rgba(51,51,51,1.0);fill:none"/><text x="928" y="373" style="stroke-width:0;stroke:none;fill:rgba(51,51,51,1.0);font-size:12.8px;font-family:'Roboto Medium',sans-serif">2021-03-07</text><text x="481" y="395" style="stroke-width:0;stroke:none;fill:rgba(51,51,51,1.0);font-size:12.8px;font-family:'Roboto Medium',sans-serif">Datum</text><path  d="M 962 351
L 962 11" style="stroke-width:1;stroke:rgba(51,51,51,1.0);fill:none"/><path  d="M 962 351
L 967 351" style="stroke-width:1;stroke:rgba(51,51,51,1.0);fill:none"/><text x="972" y="357" style="stroke-width:0;stroke:none;fill:rgba(51,51,51,1.0);font-size:12.8px;font-family:'Roboto Medium',sans-serif">0.00</text><path  d="M 962 308
L 967 308" style="stroke-width:1;stroke:rgba(51,51,51,1.0);fill:none"/><text x="972" y="314" style="stroke-width:0;stroke:none;fill:rgba(51,51,51,1.0);font-size:12.8px;font-family:'Roboto Medium',sans-serif">125.00</text><path  d="M 962 266
L 967 266" style="stroke-width:1;stroke:rgba(51,51,51,1.0);fill:none"/><text x="972" y="272" style="stroke-width:0;stroke:none;fill:rgba(51,51,51,1.0);font-size:12.8px;font-family:'Roboto Medium',sans-serif">250.00</text><path  d="M 962 223
L 967 223" style="stroke-width:1;stroke:rgba(51,51,51,1.0);fill:none"/><text x="972" y="229" style="stroke-width:0;stroke:none;fill:rgba(51,51,51,1.0);font-size:12.8px;font-family:'Roboto Medium',sans-serif">375.00</text><path  d="M 962 181
L 967 181" style="stroke-width:1;stroke:rgba(51,51,51,1.0);fill:none"/><text x="972" y="187" style="stroke-width:0;stroke:none;fill:rgba(51,51,51,1.0);font-size:12.8px;font-family:'Roboto Medium',sans-serif">500.00</text><path  d="M 962 138
L 967 138" style="stroke-width:1;stroke:rgba(51,51,51,1.0);fill:none"/><text x="972" y="144" style="stroke-width:0;stroke:none;fill:rgba(51,51,51,1.0);font-size:12.8px;font-family:'Roboto Medium',sans-serif">625.00</text><path  d="M 962 96
L 967 96" style="stroke-width:1;stroke:rgba(51,51,51,1.0);fill:none"/><text x="972" y="102" style="stroke-width:0;stroke:none;fill:rgba(51,51,51,1.0);font-size:12.8px;font-family:'Roboto Medium',sans-serif">750.00</text><path  d="M 962 53
L 967 53" style="stroke-width:1;stroke:rgba(51,51,51,1.0);fill:none"/><text x="972" y="59" style="stroke-width:0;stroke:none;fill:rgba(51,51,51,1.0);font-size:12.8px;font-family:'Roboto Medium',sans-serif">875.00</text><path  d="M 962 11
L 967 11" style="stroke-width:1;stroke:rgba(51,51,51,1.0);fill:none"/><text x="972" y="17" style="stroke-width:0;stroke:none;fill:rgba(51,51,51,1.0);font-size:12.8px;font-family:'Roboto Medium',sans-serif">1000.00</text><path  d="M 38 351
L 41 351
L 43 351
L 46 351
L 48 351
L 51 351
L 53 351
L 56 351
L 58 351
L 61 351
L 63 351
L 66 351
L 68 351
L 70 351
L 73 351
L 75 351
L 78 349
L 80 349
L 83 349
L 85 349
L 88 349
L 90 349
L 93 347
L 95 349
L 98 347
L 100 347
L 102 345
L 105 345
L 107 345
L 110 345
L 112 341
L 115 343
L 117 343
L 120 345
L 122 345
L 125 343
L 127 345
L 130 349
L 132 349
L 134 349
L 137 349
L 139 349
L 142 351
L 144 351
L 147 351
L 149 351
L 152 351
L 154 351
L 157 349
L 159 349
L 162 349
L 164 349
L 166 349
L 169 349
L 171 349
L 174 351
L 176 351
L 179 351
L 181 351
L 184 351
L 186 351
L 189 351
L 191 351
L 194 351
L 196 349
L 198 349
L 201 349
L 203 349
L 206 349
L 208 349
L 211 349
L 213 351
L 216 351
L 218 351
L 221 351
L 223 351
L 226 351
L 228 351
L 230 351
L 233 351
L 235 351
L 238 351
L 240 351
L 243 351
L 245 351
L 248 351
L 250 351
L 253 351
L 255 351
L 258 351
L 260 351
L 262 351
L 265 351
L 267 351
L 270 351
L 272 351
L 275 351
L 277 351
L 280 351
L 282 351
L 285 351
L 287 351
L 290 351
L 292 351
L 294 351
L 297 351
L 299 351
L 302 351
L 304 351
L 307 351
L 309 351
L 312 351
L 314 351
L 317 351
L 319 351
L 322 351
L 324 351
L 326 351
L 329 351
L 331 351
L 334 351
L 336 351
L 339 351
L 341 351
L 344 351
L 346 351
L 349 351
L 351 351
L 354 351
L 356 351
L 358 351
L 361 351
L 363 351
L 366 351
L 368 351
L 371 351
L 373 351
L 376 351
L 378 351
L 381 351
L 383 351
L 386 351
L 388 351
L 390 351
L 393 351
L 395 351
L 398 351
L 400 351
L 403 351
L 405 351
L 408 351
L 410 351
L 413 351
L 415 351
L 418 351
L 420 351
L 422 351
L 425 351
L 427 351
L 430 351
L 432 351
L 435 351
L 437 351
L 440 351
L 442 351
L 445 351
L 447 351
L 450 351
L 452 351
L 454 351
L 457 351
L 459 351
L 462 351
L 464 351
L 467 351
L 469 351
L 472 349
L 474 349
L 477 349
L 479 349
L 482 347
L 484 347
L 486 347
L 489 349
L 491 349
L 494 347
L 496 347
L 499 349
L 501 349
L 504 349
L 506 349
L 509 349
L 511 351
L 514 351
L 516 351
L 518 349
L 521 349
L 523 349
L 526 349
L 528 349
L 531 349
L 533 349
L 536 351
L 538 351
L 541 349
L 543 347
L 546 347
L 548 347
L 550 345
L 553 345
L 555 343
L 558 345
L 560 345
L 563 345
L 565 345
L 568 347
L 570 347
L 573 347
L 575 347
L 578 349
L 580 349
L 582 349
L 585 349
L 587 349
L 590 351
L 592 351
L 595 349
L 597 349
L 600 349
L 602 349
L 605 347
L 607 345
L 610 343
L 612 337
L 614 333
L 617 333
L 619 329
L 622 329
L 624 331
L 627 327
L 629 331
L 632 325
L 634 319
L 637 297
L 639 279
L 642 251
L 644 241
L 646 223
L 649 211
L 651 211
L 654 209
L 656 191
L 659 199
L 661 166
L 664 120
L 666 106
L 669 86
L 671 18
L 674 26
L 676 12
L 678 40
L 681 78
L 683 76
L 686 90
L 688 168
L 691 177
L 693 199
L 696 205
L 698 215
L 701 239
L 703 231
L 706 243
L 708 247
L 710 235
L 713 215
L 715 229
L 718 235
L 720 245
L 723 213
L 725 217
L 728 219
L 730 245
L 733 243
L 735 241
L 738 249
L 740 279
L 742 279
L 745 289
L 747 295
L 750 303
L 752 303
L 755 297
L 757 301
L 760 305
L 762 315
L 765 307
L 767 291
L 770 297
L 772 297
L 774 295
L 777 291
L 779 285
L 782 287
L 784 303
L 787 305
L 789 309
L 792 313
L 794 319
L 797 319
L 799 325
L 802 317
L 804 317
L 806 307
L 809 301
L 811 297
L 814 299
L 816 289
L 819 295
L 821 293
L 824 301
L 826 303
L 829 305
L 831 307
L 834 319
L 836 319
L 838 321
L 841 321
L 843 315
L 846 319
L 848 311
L 851 297
L 853 297
L 856 275
L 858 267
L 861 267
L 863 263
L 866 269
L 868 267
L 870 259
L 873 283
L 875 269
L 878 275
L 880 275
L 883 269
L 885 273
L 888 263
L 890 245
L 893 261
L 895 251
L 898 231
L 900 229
L 902 231
L 905 235
L 907 239
L 910 241
L 912 251
L 915 261
L 917 261
L 920 255
L 922 255
L 925 255
L 927 261
L 930 259
L 932 263
L 934 263
L 937 265
L 939 261
L 942 273
L 944 257
L 947 253
L 949 263
L 952 259
L 954 249
L 957 245
L 959 239
L 961 245" style="stroke-width:1;stroke:rgba(0,116,217,1.0);fill:none"/><path  d="M 38 351
L 41 351
L 43 351
L 46 351
L 48 351
L 51 351
L 53 351
L 56 351
L 58 351
L 61 351
L 63 351
L 66 351
L 68 351
L 70 351
L 73 351
L 75 351
L 78 350
L 80 351
L 83 351
L 85 351
L 88 351
L 90 351
L 93 350
L 95 351
L 98 350
L 100 351
L 102 350
L 105 351
L 107 351
L 110 350
L 112 350
L 115 351
L 117 351
L 120 351
L 122 351
L 125 350
L 127 351
L 130 351
L 132 351
L 134 351
L 137 351
L 139 351
L 142 351
L 144 351
L 147 351
L 149 351
L 152 351
L 154 351
L 157 350
L 159 351
L 162 351
L 164 351
L 166 351
L 169 351
L 171 351
L 174 351
L 176 351
L 179 351
L 181 351
L 184 351
L 186 351
L 189 351
L 191 351
L 194 351
L 196 350
L 198 351
L 201 351
L 203 351
L 206 351
L 208 351
L 211 351
L 213 351
L 216 351
L 218 351
L 221 351
L 223 351
L 226 351
L 228 351
L 230 351
L 233 351
L 235 351
L 238 351
L 240 351
L 243 351
L 245 351
L 248 351
L 250 351
L 253 351
L 255 351
L 258 351
L 260 351
L 262 351
L 265 351
L 267 351
L 270 351
L 272 351
L 275 351
L 277 351
L 280 351
L 282 351
L 285 351
L 287 351
L 290 351
L 292 351
L 294 351
L 297 351
L 299 351
L 302 351
L 304 351
L 307 351
L 309 351
L 312 351
L 314 351
L 317 351
L 319 351
L 322 351
L 324 351
L 326 351
L 329 351
L 331 351
L 334 351
L 336 351
L 339 351
L 341 351
L 344 351
L 346 351
L 349 351
L 351 351
L 354 351
L 356 351
L 358 351
L 361 351
L 363 351
L 366 351
L 368 351
L 371 351
L 373 351
L 376 351
L 378 351
L 381 351
L 383 351
L 386 351
L 388 351
L 390 351
L 393 351
L 395 351
L 398 351
L 400 351
L 403 351
L 405 351
L 408 351
L 410 351
L 413 351
L 415 351
L 418 351
L 420 351
L 422 351
L 425 351
L 427 351
L 430 351
L 432 351
L 435 351
L 437 351
L 440 351
L 442 351
L 445 351
L 447 351
L 450 351
L 452 351
L 454 351
L 457 351
L 459 351
L 462 351
L 464 351
L 467 351
L 469 351
L 472 350
L 474 351
L 477 351
L 479 351
L 482 350
L 484 351
L 486 351
L 489 351
L 491 351
L 494 350
L 496 351
L 499 351
L 501 351
L 504 351
L 506 351
L 509 351
L 511 351
L 514 351
L 516 351
L 518 350
L 521 351
L 523 351
L 526 351
L 528 351
L 531 351
L 533 351
L 536 351
L 538 351
L 541 350
L 543 350
L 546 351
L 548 351
L 550 350
L 553 351
L 555 350
L 558 351
L 560 350
L 563 351
L 565 351
L 568 351
L 570 351
L 573 350
L 575 351
L 578 351
L 580 351
L 582 351
L 585 351
L 587 351
L 590 351
L 592 351
L 595 350
L 597 351
L 600 351
L 602 351
L 605 350
L 607 350
L 610 350
L 612 349
L 614 350
L 617 351
L 619 350
L 622 350
L 624 351
L 627 349
L 629 350
L 632 349
L 634 349
L 637 346
L 639 347
L 642 346
L 644 348
L 646 347
L 649 347
L 651 349
L 654 346
L 656 344
L 659 347
L 661 342
L 664 339
L 666 344
L 669 346
L 671 334
L 674 345
L 676 345
L 678 347
L 681 345
L 683 344
L 686 348
L 688 347
L 691 347
L 693 348
L 696 348
L 698 347
L 701 348
L 703 347
L 706 349
L 708 348
L 710 346
L 713 344
L 715 349
L 718 349
L 720 349
L 723 344
L 725 348
L 728 347
L 730 349
L 733 349
L 735 349
L 738 350
L 740 349
L 742 348
L 745 348
L 747 350
L 750 351
L 752 349
L 755 349
L 757 350
L 760 349
L 762 350
L 765 348
L 767 348
L 770 350
L 772 349
L 774 349
L 777 348
L 779 349
L 782 349
L 784 351
L 787 350
L 789 350
L 792 350
L 794 349
L 797 349
L 799 350
L 802 349
L 804 350
L 806 348
L 809 349
L 811 349
L 814 349
L 816 348
L 819 350
L 821 350
L 824 349
L 826 349
L 829 349
L 831 350
L 834 350
L 836 350
L 838 350
L 841 349
L 843 348
L 846 350
L 848 348
L 851 348
L 853 350
L 856 346
L 858 348
L 861 348
L 863 349
L 866 349
L 868 347
L 870 349
L 873 351
L 875 346
L 878 349
L 880 349
L 883 348
L 885 348
L 888 347
L 890 347
L 893 348
L 895 348
L 898 346
L 900 348
L 902 348
L 905 348
L 907 348
L 910 349
L 912 349
L 915 347
L 917 348
L 920 347
L 922 348
L 925 348
L 927 350
L 930 349
L 932 348
L 934 348
L 937 348
L 939 347
L 942 350
L 944 347
L 947 348
L 949 350
L 952 347
L 954 346
L 957 346
L 959 349
L 961 348" style="stroke-width:1;stroke:rgba(0,217,101,1.0);fill:none"/><path  d="M 38 351
L 41 351
L 43 351
L 46 351
L 48 351
L 51 351
L 53 351
L 56 351
L 58 351
L 61 351
L 63 351
L 66 351
L 68 351
L 70 351
L 73 351
L 75 351
L 78 351
L 80 351
L 83 351
L 85 351
L 88 351
L 90 351
L 93 351
L 95 351
L 98 351
L 100 351
L 102 351
L 105 351
L 107 351
L 110 351
L 112 351
L 115 351
L 117 351
L 120 351
L 122 351
L 125 351
L 127 351
L 130 351
L 132 351
L 134 351
L 137 351
L 139 351
L 142 351
L 144 351
L 147 351
L 149 351
L 152 351
L 154 351
L 157 351
L 159 351
L 162 351
L 164 351
L 166 351
L 169 351
L 171 351
L 174 351
L 176 351
L 179 351
L 181 351
L 184 351
L 186 351
L 189 351
L 191 351
L 194 351
L 196 351
L 198 351
L 201 351
L 203 351
L 206 351
L 208 351
L 211 351
L 213 351
L 216 351
L 218 351
L 221 351
L 223 351
L 226 351
L 228 351
L 230 351
L 233 351
L 235 351
L 238 351
L 240 351
L 243 351
L 245 351
L 248 351
L 250 351
L 253 351
L 255 351
L 258 351
L 260 351
L 262 351
L 265 351
L 267 351
L 270 351
L 272 351
L 275 351
L 277 351
L 280 351
L 282 351
L 285 351
L 287 351
L 290 351
L 292 351
L 294 351
L 297 351
L 299 351
L 302 351
L 304 351
L 307 351
L 309 351
L 312 351
L 314 351
L 317 351
L 319 351
L 322 351
L 324 351
L 326 351
L 329 351
L 331 351
L 334 351
L 336 351
L 339 351
L 341 351
L 344 351
L 346 351
L 349 351
L 351 351
L 354 351
L 356 351
L 358 351
L 361 351
L 363 351
L 366 351
L 368 351
L 371 351
L 373 351
L 376 351
L 378 351
L 381 351
L 383 351
L 386 351
L 388 351
L 390 351
L 393 351
L 395 351
L 398 351
L 400 351
L 403 351
L 405 351
L 408 351
L 410 351
L 413 351
L 415 351
L 418 351
L 420 351
L 422 351
L 425 351
L 427 351
L 430 351
L 432 351
L 435 351
L 437 351
L 440 351
L 442 351
L 445 351
L 447 351
L 450 351
L 452 351
L 454 351
L 457 351
L 459 351
L 462 351
L 464 351
L 467 351
L 469 351
L 472 351
L 474 351
L 477 351
L 479 351
L 482 351
L 484 351
L 486 351
L 489 351
L 491 351
L 494 351
L 496 351
L 499 351
L 501 351
L 504 351
L 506 351
L 509 351
L 511 351
L 514 351
L 516 351
L 518 351
L 521 351
L 523 351
L 526 351
L 528 351
L 531 351
L 533 351
L 536 351
L 538 351
L 541 351
L 543 351
L 546 351
L 548 351
L 550 351
L 553 351
L 555 351
L 558 351
L 560 351
L 563 351
L 565 351
L 568 351
L 570 351
L 573 351
L 575 351
L 578 351
L 580 351
L 582 351
L 585 351
L 587 351
L 590 351
L 592 351
L 595 351
L 597 351
L 600 351
L 602 351
L 605 351
L 607 351
L 610 351
L 612 351
L 614 351
L 617 351
L 619 351
L 622 351
L 624 351
L 627 351
L 629 351
L 632 351
L 634 351
L 637 351
L 639 351
L 642 351
L 644 351
L 646 351
L 649 350
L 651 351
L 654 351
L 656 351
L 659 351
L 661 350
L 664 351
L 666 351
L 669 351
L 671 351
L 674 350
L 676 351
L 678 351
L 681 351
L 683 351
L 686 351
L 688 350
L 691 350
L 693 350
L 696 351
L 698 351
L 701 351
L 703 351
L 706 351
L 708 350
L 710 350
L 713 351
L 715 351
L 718 351
L 720 350
L 723 351
L 725 351
L 728 350
L 730 351
L 733 351
L 735 351
L 738 351
L 740 350
L 742 351
L 745 351
L 747 350
L 750 351
L 752 351
L 755 351
L 757 351
L 760 351
L 762 351
L 765 351
L 767 351
L 770 351
L 772 351
L 774 351
L 777 351
L 779 351
L 782 351
L 784 351
L 787 351
L 789 351
L 792 350
L 794 351
L 797 351
L 799 351
L 802 351
L 804 351
L 806 351
L 809 351
L 811 351
L 814 351
L 816 350
L 819 351
L 821 351
L 824 351
L 826 351
L 829 351
L 831 351
L 834 351
L 836 351
L 838 351
L 841 351
L 843 351
L 846 351
L 848 351
L 851 351
L 853 351
L 856 351
L 858 351
L 861 351
L 863 351
L 866 351
L 868 351
L 870 350
L 873 351
L 875 350
L 878 351
L 880 351
L 883 351
L 885 351
L 888 351
L 890 351
L 893 351
L 895 351
L 898 351
L 900 351
L 902 351
L 905 351
L 907 351
L 910 351
L 912 351
L 915 351
L 917 351
L 920 351
L 922 351
L 925 351
L 927 350
L 930 351
L 932 351
L 934 351
L 937 351
L 939 351
L 942 351
L 944 351
L 947 351
L 949 351
L 952 351
L 954 351
L 957 351
L 959 351
L 961 351" style="stroke-width:1;stroke:rgba(217,0,116,1.0);fill:none"/><text x="388" y="33" style="stroke-width:0;stroke:none;fill:rgba(51,51,51,1.0);font-size:23.0px;font-family:'Roboto Medium',sans-serif">Jennersdorf 07.03.2021</text><path  d="M 38 11
L 251 11
L 251 91
L 38 91
L 38 11" style="stroke-width:1;stroke:rgba(51,51,51,1.0);fill:rgba(255,255,255,1.0)"/><text x="43" y="26" style="stroke-width:0;stroke:none;fill:rgba(51,51,51,1.0);font-size:10.2px;font-family:'Roboto Medium',sans-serif">Sieben Tage Durschnitt Inzidenz Fälle</text><path  d="M 221 21
L 241 21" style="stroke-width:1;stroke:rgba(0,116,217,1.0);fill:none"/><text x="43" y="56" style="stroke-width:0;stroke:none;fill:rgba(51,51,51,1.0);font-size:10.2px;font-family:'Roboto Medium',sans-serif">Anzahl Faelle</text><path  d="M 110 51
L 241 51" style="stroke-width:1;stroke:rgba(0,217,101,1.0);fill:none"/><text x="43" y="86" style="stroke-width:0;stroke:none;fill:rgba(51,51,51,1.0);font-size:10.2px;font-family:'Roboto Medium',sans-serif">Anzahl Tot</text><path  d="M 98 81
L 241 81" style="stroke-width:1;stroke:rgba(217,0,116,1.0);fill:none"/></svg>