<svg xmlns="http://www.w3.org/2000/svg" xmlns:xlink="http://www.w3.org/1999/xlink" width="1024" height="400">\n<path  d="M 0 0
L 1024 0
L 1024 400
L 0 400
L 0 0" style="stroke-width:0;stroke:rgba(255,255,255,1.0);fill:rgba(255,255,255,1.0)"/><path  d="M 38 11
L 969 11
L 969 351
L 38 351
L 38 11" style="stroke-width:0;stroke:rgba(255,255,255,1.0);fill:rgba(255,255,255,1.0)"/><path  d="M 38 351
L 969 351" style="stroke-width:1;stroke:rgba(51,51,51,1.0);fill:none"/><path  d="M 38 351
L 38 356" style="stroke-width:1;stroke:rgba(51,51,51,1.0);fill:none"/><text x="5" y="373" style="stroke-width:0;stroke:none;fill:rgba(51,51,51,1.0);font-size:12.8px;font-family:'Roboto Medium',sans-serif">2020-02-26</text><path  d="M 155 351
L 155 356" style="stroke-width:1;stroke:rgba(51,51,51,1.0);fill:none"/><text x="122" y="373" style="stroke-width:0;stroke:none;fill:rgba(51,51,51,1.0);font-size:12.8px;font-family:'Roboto Medium',sans-serif">2020-04-29</text><path  d="M 271 351
L 271 356" style="stroke-width:1;stroke:rgba(51,51,51,1.0);fill:none"/><text x="238" y="373" style="stroke-width:0;stroke:none;fill:rgba(51,51,51,1.0);font-size:12.8px;font-family:'Roboto Medium',sans-serif">2020-07-01</text><path  d="M 388 351
L 388 356" style="stroke-width:1;stroke:rgba(51,51,51,1.0);fill:none"/><text x="355" y="373" style="stroke-width:0;stroke:none;fill:rgba(51,51,51,1.0);font-size:12.8px;font-family:'Roboto Medium',sans-serif">2020-09-02</text><path  d="M 504 351
L 504 356" style="stroke-width:1;stroke:rgba(51,51,51,1.0);fill:none"/><text x="471" y="373" style="stroke-width:0;stroke:none;fill:rgba(51,51,51,1.0);font-size:12.8px;font-family:'Roboto Medium',sans-serif">2020-11-04</text><path  d="M 620 351
L 620 356" style="stroke-width:1;stroke:rgba(51,51,51,1.0);fill:none"/><text x="587" y="373" style="stroke-width:0;stroke:none;fill:rgba(51,51,51,1.0);font-size:12.8px;font-family:'Roboto Medium',sans-serif">2021-01-06</text><path  d="M 737 351
L 737 356" style="stroke-width:1;stroke:rgba(51,51,51,1.0);fill:none"/><text x="704" y="373" style="stroke-width:0;stroke:none;fill:rgba(51,51,51,1.0);font-size:12.8px;font-family:'Roboto Medium',sans-serif">2021-03-10</text><path  d="M 853 351
L 853 356" style="stroke-width:1;stroke:rgba(51,51,51,1.0);fill:none"/><text x="820" y="373" style="stroke-width:0;stroke:none;fill:rgba(51,51,51,1.0);font-size:12.8px;font-family:'Roboto Medium',sans-serif">2021-05-12</text><path  d="M 969 351
L 969 356" style="stroke-width:1;stroke:rgba(51,51,51,1.0);fill:none"/><text x="936" y="373" style="stroke-width:0;stroke:none;fill:rgba(51,51,51,1.0);font-size:12.8px;font-family:'Roboto Medium',sans-serif">2021-07-15</text><text x="485" y="395" style="stroke-width:0;stroke:none;fill:rgba(51,51,51,1.0);font-size:12.8px;font-family:'Roboto Medium',sans-serif">Datum</text><path  d="M 970 351
L 970 11" style="stroke-width:1;stroke:rgba(51,51,51,1.0);fill:none"/><path  d="M 970 351
L 975 351" style="stroke-width:1;stroke:rgba(51,51,51,1.0);fill:none"/><text x="980" y="357" style="stroke-width:0;stroke:none;fill:rgba(51,51,51,1.0);font-size:12.8px;font-family:'Roboto Medium',sans-serif">0.00</text><path  d="M 970 308
L 975 308" style="stroke-width:1;stroke:rgba(51,51,51,1.0);fill:none"/><text x="980" y="314" style="stroke-width:0;stroke:none;fill:rgba(51,51,51,1.0);font-size:12.8px;font-family:'Roboto Medium',sans-serif">95.00</text><path  d="M 970 266
L 975 266" style="stroke-width:1;stroke:rgba(51,51,51,1.0);fill:none"/><text x="980" y="272" style="stroke-width:0;stroke:none;fill:rgba(51,51,51,1.0);font-size:12.8px;font-family:'Roboto Medium',sans-serif">190.00</text><path  d="M 970 223
L 975 223" style="stroke-width:1;stroke:rgba(51,51,51,1.0);fill:none"/><text x="980" y="229" style="stroke-width:0;stroke:none;fill:rgba(51,51,51,1.0);font-size:12.8px;font-family:'Roboto Medium',sans-serif">285.00</text><path  d="M 970 181
L 975 181" style="stroke-width:1;stroke:rgba(51,51,51,1.0);fill:none"/><text x="980" y="187" style="stroke-width:0;stroke:none;fill:rgba(51,51,51,1.0);font-size:12.8px;font-family:'Roboto Medium',sans-serif">380.00</text><path  d="M 970 138
L 975 138" style="stroke-width:1;stroke:rgba(51,51,51,1.0);fill:none"/><text x="980" y="144" style="stroke-width:0;stroke:none;fill:rgba(51,51,51,1.0);font-size:12.8px;font-family:'Roboto Medium',sans-serif">475.00</text><path  d="M 970 96
L 975 96" style="stroke-width:1;stroke:rgba(51,51,51,1.0);fill:none"/><text x="980" y="102" style="stroke-width:0;stroke:none;fill:rgba(51,51,51,1.0);font-size:12.8px;font-family:'Roboto Medium',sans-serif">570.00</text><path  d="M 970 53
L 975 53" style="stroke-width:1;stroke:rgba(51,51,51,1.0);fill:none"/><text x="980" y="59" style="stroke-width:0;stroke:none;fill:rgba(51,51,51,1.0);font-size:12.8px;font-family:'Roboto Medium',sans-serif">665.00</text><path  d="M 970 11
L 975 11" style="stroke-width:1;stroke:rgba(51,51,51,1.0);fill:none"/><text x="980" y="17" style="stroke-width:0;stroke:none;fill:rgba(51,51,51,1.0);font-size:12.8px;font-family:'Roboto Medium',sans-serif">760.00</text><path  d="M 38 351
L 40 351
L 42 351
L 44 351
L 46 351
L 48 351
L 50 351
L 51 351
L 53 351
L 55 351
L 57 351
L 59 351
L 61 351
L 62 351
L 64 351
L 66 351
L 68 351
L 70 350
L 72 347
L 74 347
L 75 342
L 77 341
L 79 340
L 81 339
L 83 339
L 85 340
L 86 340
L 88 343
L 90 343
L 92 340
L 94 340
L 96 340
L 97 338
L 99 339
L 101 340
L 103 341
L 105 345
L 107 344
L 109 346
L 110 348
L 112 348
L 114 348
L 116 347
L 118 347
L 120 348
L 121 348
L 123 348
L 125 348
L 127 349
L 129 350
L 131 350
L 133 350
L 134 350
L 136 350
L 138 348
L 140 348
L 142 349
L 144 349
L 145 349
L 147 349
L 149 349
L 151 351
L 153 351
L 155 351
L 156 351
L 158 351
L 160 351
L 162 351
L 164 351
L 166 351
L 168 350
L 169 350
L 171 350
L 173 350
L 175 350
L 177 350
L 179 350
L 180 351
L 182 351
L 184 351
L 186 351
L 188 351
L 190 351
L 192 351
L 193 351
L 195 351
L 197 351
L 199 351
L 201 351
L 203 351
L 204 351
L 206 351
L 208 351
L 210 351
L 212 351
L 214 351
L 215 351
L 217 351
L 219 351
L 221 351
L 223 351
L 225 351
L 227 351
L 228 351
L 230 351
L 232 351
L 234 351
L 236 351
L 238 351
L 239 351
L 241 351
L 243 351
L 245 351
L 247 351
L 249 351
L 251 351
L 252 351
L 254 351
L 256 351
L 258 351
L 260 351
L 262 351
L 263 351
L 265 351
L 267 351
L 269 351
L 271 350
L 273 347
L 274 346
L 276 345
L 278 343
L 280 343
L 282 341
L 284 342
L 286 344
L 287 346
L 289 347
L 291 349
L 293 349
L 295 346
L 297 346
L 298 345
L 300 345
L 302 345
L 304 344
L 306 344
L 308 348
L 310 348
L 311 349
L 313 349
L 315 349
L 317 350
L 319 348
L 321 349
L 322 347
L 324 347
L 326 347
L 328 347
L 330 347
L 332 348
L 333 348
L 335 350
L 337 351
L 339 350
L 341 350
L 343 350
L 345 350
L 346 347
L 348 346
L 350 345
L 352 346
L 354 344
L 356 343
L 357 343
L 359 343
L 361 343
L 363 341
L 365 341
L 367 342
L 368 340
L 370 340
L 372 343
L 374 343
L 376 345
L 378 345
L 380 346
L 381 348
L 383 348
L 385 347
L 387 347
L 389 346
L 391 342
L 392 340
L 394 337
L 396 336
L 398 335
L 400 335
L 402 336
L 404 339
L 405 340
L 407 343
L 409 345
L 411 345
L 413 346
L 415 347
L 416 346
L 418 344
L 420 343
L 422 343
L 424 343
L 426 343
L 427 343
L 429 343
L 431 346
L 433 347
L 435 345
L 437 347
L 439 346
L 440 346
L 442 345
L 444 345
L 446 344
L 448 345
L 450 345
L 451 346
L 453 344
L 455 342
L 457 341
L 459 340
L 461 342
L 463 340
L 464 339
L 466 339
L 468 340
L 470 336
L 472 332
L 474 325
L 475 323
L 477 319
L 479 314
L 481 312
L 483 303
L 485 296
L 486 295
L 488 289
L 490 274
L 492 257
L 494 232
L 496 234
L 498 199
L 499 199
L 501 177
L 503 156
L 505 139
L 507 109
L 509 53
L 510 33
L 512 11
L 514 30
L 516 28
L 518 16
L 520 28
L 522 70
L 523 118
L 525 98
L 527 64
L 529 60
L 531 77
L 533 95
L 534 95
L 536 92
L 538 116
L 540 123
L 542 137
L 544 149
L 545 156
L 547 154
L 549 167
L 551 183
L 553 203
L 555 224
L 557 236
L 558 217
L 560 232
L 562 228
L 564 225
L 566 230
L 568 230
L 569 220
L 571 239
L 573 232
L 575 230
L 577 223
L 579 221
L 581 214
L 582 220
L 584 228
L 586 232
L 588 237
L 590 246
L 592 251
L 593 241
L 595 247
L 597 247
L 599 255
L 601 253
L 603 253
L 604 250
L 606 254
L 608 250
L 610 250
L 612 259
L 614 209
L 616 211
L 617 211
L 619 214
L 621 214
L 623 213
L 625 203
L 627 254
L 628 256
L 630 261
L 632 270
L 634 282
L 636 283
L 638 287
L 640 280
L 641 284
L 643 289
L 645 294
L 647 293
L 649 302
L 651 296
L 652 305
L 654 306
L 656 309
L 658 309
L 660 307
L 662 310
L 663 319
L 665 326
L 667 327
L 669 328
L 671 328
L 673 332
L 675 329
L 676 330
L 678 328
L 680 322
L 682 320
L 684 323
L 686 322
L 687 322
L 689 318
L 691 315
L 693 322
L 695 320
L 697 320
L 698 321
L 700 320
L 702 316
L 704 316
L 706 313
L 708 308
L 710 308
L 711 304
L 713 304
L 715 307
L 717 311
L 719 307
L 721 301
L 722 296
L 724 289
L 726 279
L 728 278
L 730 258
L 732 250
L 734 245
L 735 236
L 737 224
L 739 210
L 741 203
L 743 211
L 745 210
L 746 210
L 748 201
L 750 205
L 752 222
L 754 178
L 756 175
L 757 178
L 759 186
L 761 185
L 763 183
L 765 182
L 767 224
L 769 233
L 770 232
L 772 222
L 774 226
L 776 236
L 778 239
L 780 235
L 781 228
L 783 234
L 785 246
L 787 256
L 789 249
L 791 251
L 793 266
L 794 275
L 796 285
L 798 285
L 800 292
L 802 304
L 804 307
L 805 308
L 807 310
L 809 306
L 811 309
L 813 311
L 815 311
L 816 311
L 818 306
L 820 301
L 822 300
L 824 297
L 826 294
L 828 297
L 829 293
L 831 297
L 833 302
L 835 299
L 837 291
L 839 293
L 840 298
L 842 287
L 844 287
L 846 288
L 848 293
L 850 297
L 852 300
L 853 292
L 855 304
L 857 307
L 859 303
L 861 304
L 863 308
L 864 311
L 866 316
L 868 321
L 870 321
L 872 326
L 874 327
L 875 330
L 877 328
L 879 332
L 881 333
L 883 331
L 885 329
L 887 331
L 888 336
L 890 339
L 892 340
L 894 343
L 896 346
L 898 348
L 899 349
L 901 348
L 903 349
L 905 349
L 907 349
L 909 350
L 911 350
L 912 350
L 914 351
L 916 351
L 918 351
L 920 351
L 922 351
L 923 351
L 925 351
L 927 351
L 929 351
L 931 351
L 933 351
L 934 351
L 936 351
L 938 351
L 940 351
L 942 351
L 944 351
L 946 351
L 947 351
L 949 351
L 951 351
L 953 350
L 955 350
L 957 347
L 958 347
L 960 346
L 962 346
L 964 342
L 966 341
L 968 338
L 969 337" style="stroke-width:1;stroke:rgba(0,116,217,1.0);fill:none"/><path  d="M 38 351
L 40 351
L 42 351
L 44 351
L 46 351
L 48 351
L 50 351
L 51 351
L 53 351
L 55 351
L 57 351
L 59 351
L 61 351
L 62 351
L 64 351
L 66 351
L 68 351
L 70 350
L 72 349
L 74 350
L 75 348
L 77 350
L 79 350
L 81 350
L 83 350
L 85 350
L 86 350
L 88 350
L 90 350
L 92 348
L 94 351
L 96 350
L 97 349
L 99 351
L 101 350
L 103 351
L 105 350
L 107 350
L 109 351
L 110 351
L 112 351
L 114 350
L 116 350
L 118 351
L 120 351
L 121 351
L 123 351
L 125 351
L 127 351
L 129 350
L 131 351
L 133 351
L 134 351
L 136 351
L 138 350
L 140 351
L 142 351
L 144 351
L 145 351
L 147 351
L 149 351
L 151 351
L 153 351
L 155 351
L 156 351
L 158 351
L 160 351
L 162 351
L 164 351
L 166 351
L 168 350
L 169 351
L 171 351
L 173 351
L 175 351
L 177 351
L 179 351
L 180 351
L 182 351
L 184 351
L 186 351
L 188 351
L 190 351
L 192 351
L 193 351
L 195 351
L 197 351
L 199 351
L 201 351
L 203 351
L 204 351
L 206 351
L 208 351
L 210 351
L 212 351
L 214 351
L 215 351
L 217 351
L 219 351
L 221 351
L 223 351
L 225 351
L 227 351
L 228 351
L 230 351
L 232 351
L 234 351
L 236 351
L 238 351
L 239 351
L 241 351
L 243 351
L 245 351
L 247 351
L 249 351
L 251 351
L 252 351
L 254 351
L 256 351
L 258 351
L 260 351
L 262 351
L 263 351
L 265 351
L 267 351
L 269 351
L 271 350
L 273 349
L 274 350
L 276 350
L 278 349
L 280 351
L 282 350
L 284 351
L 286 351
L 287 351
L 289 351
L 291 351
L 293 351
L 295 348
L 297 351
L 298 350
L 300 351
L 302 351
L 304 350
L 306 351
L 308 350
L 310 351
L 311 351
L 313 351
L 315 351
L 317 351
L 319 350
L 321 351
L 322 350
L 324 350
L 326 351
L 328 351
L 330 351
L 332 351
L 333 351
L 335 351
L 337 351
L 339 350
L 341 351
L 343 351
L 345 351
L 346 349
L 348 350
L 350 350
L 352 351
L 354 350
L 356 350
L 357 350
L 359 349
L 361 350
L 363 349
L 365 351
L 367 350
L 368 349
L 370 351
L 372 351
L 374 350
L 376 350
L 378 351
L 380 351
L 381 350
L 383 351
L 385 350
L 387 350
L 389 350
L 391 348
L 392 349
L 394 349
L 396 350
L 398 350
L 400 350
L 402 350
L 404 350
L 405 350
L 407 351
L 409 351
L 411 350
L 413 350
L 415 351
L 416 350
L 418 349
L 420 350
L 422 351
L 424 350
L 426 351
L 427 350
L 429 350
L 431 351
L 433 351
L 435 349
L 437 351
L 439 350
L 440 350
L 442 350
L 444 351
L 446 350
L 448 350
L 450 351
L 451 351
L 453 349
L 455 348
L 457 350
L 459 350
L 461 351
L 463 349
L 464 350
L 466 349
L 468 349
L 470 348
L 472 347
L 474 346
L 475 348
L 477 348
L 479 346
L 481 347
L 483 342
L 485 344
L 486 346
L 488 345
L 490 339
L 492 337
L 494 334
L 496 343
L 498 324
L 499 346
L 501 332
L 503 328
L 505 327
L 507 316
L 509 312
L 510 312
L 512 333
L 514 343
L 516 326
L 518 320
L 520 323
L 522 335
L 523 340
L 525 321
L 527 324
L 529 324
L 531 329
L 533 334
L 534 335
L 536 339
L 538 335
L 540 328
L 542 332
L 544 336
L 545 338
L 547 334
L 549 346
L 551 344
L 553 339
L 555 344
L 557 343
L 558 327
L 560 342
L 562 343
L 564 343
L 566 342
L 568 344
L 569 337
L 571 338
L 573 338
L 575 342
L 577 339
L 579 341
L 581 340
L 582 341
L 584 342
L 586 340
L 588 346
L 590 344
L 592 344
L 593 334
L 595 344
L 597 342
L 599 345
L 601 345
L 603 344
L 604 342
L 606 337
L 608 342
L 610 342
L 612 350
L 614 316
L 616 345
L 617 342
L 619 338
L 621 342
L 623 342
L 625 344
L 627 346
L 628 346
L 630 345
L 632 343
L 634 348
L 636 342
L 638 346
L 640 342
L 641 348
L 643 348
L 645 346
L 647 348
L 649 347
L 651 343
L 652 346
L 654 349
L 656 350
L 658 346
L 660 346
L 662 349
L 663 349
L 665 351
L 667 349
L 669 350
L 671 346
L 673 349
L 675 347
L 676 350
L 678 349
L 680 346
L 682 349
L 684 348
L 686 348
L 687 347
L 689 348
L 691 347
L 693 350
L 695 348
L 697 348
L 698 348
L 700 347
L 702 346
L 704 347
L 706 348
L 708 345
L 710 348
L 711 346
L 713 347
L 715 347
L 717 350
L 719 346
L 721 342
L 722 345
L 724 342
L 726 342
L 728 346
L 730 338
L 732 341
L 734 339
L 735 340
L 737 335
L 739 334
L 741 342
L 743 343
L 745 340
L 746 339
L 748 335
L 750 337
L 752 343
L 754 317
L 756 341
L 757 342
L 759 344
L 761 334
L 763 336
L 765 343
L 767 341
L 769 346
L 770 341
L 772 338
L 774 337
L 776 342
L 778 344
L 780 339
L 781 342
L 783 345
L 785 345
L 787 342
L 789 338
L 791 346
L 793 347
L 794 348
L 796 350
L 798 345
L 800 346
L 802 344
L 804 347
L 805 348
L 807 349
L 809 348
L 811 347
L 813 347
L 815 344
L 816 347
L 818 346
L 820 346
L 822 347
L 824 345
L 826 346
L 828 346
L 829 345
L 831 348
L 833 349
L 835 346
L 837 341
L 839 346
L 840 349
L 842 339
L 844 348
L 846 349
L 848 348
L 850 343
L 852 348
L 853 344
L 855 346
L 857 350
L 859 347
L 861 349
L 863 346
L 864 350
L 866 347
L 868 348
L 870 350
L 872 350
L 874 349
L 875 348
L 877 348
L 879 350
L 881 349
L 883 348
L 885 349
L 887 350
L 888 351
L 890 350
L 892 351
L 894 351
L 896 350
L 898 351
L 899 351
L 901 350
L 903 351
L 905 351
L 907 351
L 909 351
L 911 351
L 912 351
L 914 351
L 916 351
L 918 351
L 920 351
L 922 351
L 923 351
L 925 351
L 927 351
L 929 351
L 931 351
L 933 351
L 934 351
L 936 351
L 938 351
L 940 351
L 942 351
L 944 351
L 946 351
L 947 351
L 949 351
L 951 351
L 953 350
L 955 351
L 957 349
L 958 351
L 960 350
L 962 351
L 964 348
L 966 350
L 968 349
L 969 349" style="stroke-width:1;stroke:rgba(0,217,101,1.0);fill:none"/><path  d="M 38 351
L 40 351
L 42 351
L 44 351
L 46 351
L 48 351
L 50 351
L 51 351
L 53 351
L 55 351
L 57 351
L 59 351
L 61 351
L 62 351
L 64 351
L 66 351
L 68 351
L 70 351
L 72 351
L 74 351
L 75 351
L 77 351
L 79 351
L 81 351
L 83 351
L 85 351
L 86 351
L 88 351
L 90 351
L 92 351
L 94 351
L 96 351
L 97 350
L 99 351
L 101 351
L 103 351
L 105 351
L 107 351
L 109 351
L 110 351
L 112 351
L 114 351
L 116 351
L 118 351
L 120 351
L 121 351
L 123 351
L 125 351
L 127 351
L 129 351
L 131 351
L 133 351
L 134 351
L 136 351
L 138 351
L 140 351
L 142 351
L 144 351
L 145 351
L 147 351
L 149 351
L 151 351
L 153 351
L 155 351
L 156 351
L 158 351
L 160 351
L 162 351
L 164 351
L 166 351
L 168 351
L 169 351
L 171 351
L 173 351
L 175 351
L 177 351
L 179 351
L 180 351
L 182 351
L 184 351
L 186 351
L 188 351
L 190 351
L 192 351
L 193 351
L 195 351
L 197 351
L 199 351
L 201 351
L 203 351
L 204 351
L 206 351
L 208 351
L 210 351
L 212 351
L 214 351
L 215 351
L 217 351
L 219 351
L 221 351
L 223 351
L 225 351
L 227 351
L 228 351
L 230 351
L 232 351
L 234 351
L 236 351
L 238 351
L 239 351
L 241 351
L 243 351
L 245 351
L 247 351
L 249 351
L 251 351
L 252 351
L 254 351
L 256 351
L 258 351
L 260 351
L 262 351
L 263 351
L 265 351
L 267 351
L 269 351
L 271 351
L 273 351
L 274 351
L 276 351
L 278 351
L 280 351
L 282 351
L 284 351
L 286 351
L 287 351
L 289 351
L 291 351
L 293 351
L 295 351
L 297 351
L 298 351
L 300 351
L 302 351
L 304 351
L 306 351
L 308 351
L 310 351
L 311 351
L 313 351
L 315 351
L 317 351
L 319 351
L 321 351
L 322 351
L 324 351
L 326 351
L 328 351
L 330 351
L 332 351
L 333 351
L 335 351
L 337 351
L 339 351
L 341 351
L 343 351
L 345 351
L 346 351
L 348 351
L 350 351
L 352 351
L 354 351
L 356 351
L 357 351
L 359 351
L 361 351
L 363 351
L 365 351
L 367 351
L 368 351
L 370 351
L 372 351
L 374 351
L 376 351
L 378 351
L 380 351
L 381 351
L 383 351
L 385 351
L 387 351
L 389 351
L 391 351
L 392 351
L 394 351
L 396 351
L 398 351
L 400 351
L 402 351
L 404 350
L 405 351
L 407 351
L 409 351
L 411 351
L 413 351
L 415 351
L 416 351
L 418 351
L 420 351
L 422 351
L 424 351
L 426 351
L 427 351
L 429 351
L 431 351
L 433 351
L 435 351
L 437 351
L 439 351
L 440 351
L 442 351
L 444 351
L 446 351
L 448 351
L 450 351
L 451 351
L 453 351
L 455 351
L 457 351
L 459 351
L 461 351
L 463 351
L 464 351
L 466 351
L 468 351
L 470 351
L 472 351
L 474 351
L 475 351
L 477 350
L 479 351
L 481 351
L 483 351
L 485 351
L 486 351
L 488 351
L 490 351
L 492 351
L 494 351
L 496 351
L 498 350
L 499 351
L 501 351
L 503 351
L 505 351
L 507 351
L 509 351
L 510 351
L 512 351
L 514 350
L 516 351
L 518 350
L 520 351
L 522 351
L 523 351
L 525 349
L 527 350
L 529 351
L 531 351
L 533 351
L 534 350
L 536 351
L 538 350
L 540 351
L 542 351
L 544 350
L 545 349
L 547 350
L 549 350
L 551 349
L 553 350
L 555 349
L 557 349
L 558 350
L 560 350
L 562 351
L 564 351
L 566 351
L 568 350
L 569 351
L 571 350
L 573 351
L 575 351
L 577 350
L 579 350
L 581 351
L 582 350
L 584 351
L 586 350
L 588 350
L 590 351
L 592 351
L 593 350
L 595 350
L 597 350
L 599 350
L 601 350
L 603 350
L 604 350
L 606 351
L 608 351
L 610 351
L 612 351
L 614 351
L 616 348
L 617 349
L 619 351
L 621 350
L 623 351
L 625 351
L 627 351
L 628 351
L 630 350
L 632 350
L 634 350
L 636 350
L 638 350
L 640 350
L 641 351
L 643 351
L 645 351
L 647 350
L 649 351
L 651 350
L 652 351
L 654 350
L 656 350
L 658 350
L 660 351
L 662 351
L 663 351
L 665 351
L 667 351
L 669 351
L 671 350
L 673 351
L 675 351
L 676 351
L 678 351
L 680 350
L 682 351
L 684 351
L 686 351
L 687 351
L 689 351
L 691 351
L 693 351
L 695 351
L 697 351
L 698 351
L 700 351
L 702 351
L 704 351
L 706 351
L 708 351
L 710 351
L 711 351
L 713 351
L 715 351
L 717 351
L 719 351
L 721 351
L 722 351
L 724 351
L 726 351
L 728 351
L 730 351
L 732 351
L 734 351
L 735 351
L 737 351
L 739 351
L 741 351
L 743 351
L 745 350
L 746 351
L 748 351
L 750 351
L 752 351
L 754 351
L 756 351
L 757 351
L 759 351
L 761 351
L 763 351
L 765 350
L 767 351
L 769 350
L 770 351
L 772 351
L 774 351
L 776 351
L 778 351
L 780 350
L 781 351
L 783 351
L 785 351
L 787 351
L 789 351
L 791 351
L 793 351
L 794 351
L 796 351
L 798 351
L 800 351
L 802 350
L 804 351
L 805 351
L 807 351
L 809 351
L 811 350
L 813 351
L 815 351
L 816 351
L 818 351
L 820 351
L 822 351
L 824 351
L 826 351
L 828 351
L 829 351
L 831 351
L 833 351
L 835 351
L 837 351
L 839 351
L 840 351
L 842 351
L 844 351
L 846 351
L 848 351
L 850 351
L 852 351
L 853 351
L 855 351
L 857 351
L 859 351
L 861 351
L 863 351
L 864 351
L 866 351
L 868 351
L 870 351
L 872 351
L 874 351
L 875 351
L 877 351
L 879 351
L 881 351
L 883 351
L 885 351
L 887 351
L 888 351
L 890 351
L 892 350
L 894 351
L 896 351
L 898 351
L 899 351
L 901 351
L 903 351
L 905 351
L 907 351
L 909 351
L 911 351
L 912 351
L 914 351
L 916 351
L 918 351
L 920 351
L 922 351
L 923 351
L 925 351
L 927 351
L 929 351
L 931 351
L 933 351
L 934 351
L 936 351
L 938 351
L 940 351
L 942 351
L 944 351
L 946 351
L 947 351
L 949 351
L 951 351
L 953 351
L 955 351
L 957 351
L 958 351
L 960 351
L 962 351
L 964 351
L 966 351
L 968 351
L 969 351" style="stroke-width:1;stroke:rgba(217,0,116,1.0);fill:none"/><text x="331" y="33" style="stroke-width:0;stroke:none;fill:rgba(51,51,51,1.0);font-size:23.0px;font-family:'Roboto Medium',sans-serif">Kirchdorf an der Krems 15.07.2021</text><path  d="M 38 11
L 251 11
L 251 91
L 38 91
L 38 11" style="stroke-width:1;stroke:rgba(51,51,51,1.0);fill:rgba(255,255,255,1.0)"/><text x="43" y="26" style="stroke-width:0;stroke:none;fill:rgba(51,51,51,1.0);font-size:10.2px;font-family:'Roboto Medium',sans-serif">Sieben Tage Durschnitt Inzidenz Fälle</text><path  d="M 221 21
L 241 21" style="stroke-width:1;stroke:rgba(0,116,217,1.0);fill:none"/><text x="43" y="56" style="stroke-width:0;stroke:none;fill:rgba(51,51,51,1.0);font-size:10.2px;font-family:'Roboto Medium',sans-serif">Anzahl Faelle</text><path  d="M 110 51
L 241 51" style="stroke-width:1;stroke:rgba(0,217,101,1.0);fill:none"/><text x="43" y="86" style="stroke-width:0;stroke:none;fill:rgba(51,51,51,1.0);font-size:10.2px;font-family:'Roboto Medium',sans-serif">Anzahl Tot</text><path  d="M 98 81
L 241 81" style="stroke-width:1;stroke:rgba(217,0,116,1.0);fill:none"/></svg>