<svg xmlns="http://www.w3.org/2000/svg" xmlns:xlink="http://www.w3.org/1999/xlink" width="1024" height="400">\n<path  d="M 0 0
L 1024 0
L 1024 400
L 0 400
L 0 0" style="stroke-width:0;stroke:rgba(255,255,255,1.0);fill:rgba(255,255,255,1.0)"/><path  d="M 38 11
L 961 11
L 961 351
L 38 351
L 38 11" style="stroke-width:0;stroke:rgba(255,255,255,1.0);fill:rgba(255,255,255,1.0)"/><path  d="M 38 351
L 961 351" style="stroke-width:1;stroke:rgba(51,51,51,1.0);fill:none"/><path  d="M 38 351
L 38 356" style="stroke-width:1;stroke:rgba(51,51,51,1.0);fill:none"/><text x="5" y="373" style="stroke-width:0;stroke:none;fill:rgba(51,51,51,1.0);font-size:12.8px;font-family:'Roboto Medium',sans-serif">2020-02-26</text><path  d="M 154 351
L 154 356" style="stroke-width:1;stroke:rgba(51,51,51,1.0);fill:none"/><text x="121" y="373" style="stroke-width:0;stroke:none;fill:rgba(51,51,51,1.0);font-size:12.8px;font-family:'Roboto Medium',sans-serif">2020-06-25</text><path  d="M 269 351
L 269 356" style="stroke-width:1;stroke:rgba(51,51,51,1.0);fill:none"/><text x="236" y="373" style="stroke-width:0;stroke:none;fill:rgba(51,51,51,1.0);font-size:12.8px;font-family:'Roboto Medium',sans-serif">2020-10-24</text><path  d="M 385 351
L 385 356" style="stroke-width:1;stroke:rgba(51,51,51,1.0);fill:none"/><text x="352" y="373" style="stroke-width:0;stroke:none;fill:rgba(51,51,51,1.0);font-size:12.8px;font-family:'Roboto Medium',sans-serif">2021-02-21</text><path  d="M 500 351
L 500 356" style="stroke-width:1;stroke:rgba(51,51,51,1.0);fill:none"/><text x="467" y="373" style="stroke-width:0;stroke:none;fill:rgba(51,51,51,1.0);font-size:12.8px;font-family:'Roboto Medium',sans-serif">2021-06-22</text><path  d="M 615 351
L 615 356" style="stroke-width:1;stroke:rgba(51,51,51,1.0);fill:none"/><text x="582" y="373" style="stroke-width:0;stroke:none;fill:rgba(51,51,51,1.0);font-size:12.8px;font-family:'Roboto Medium',sans-serif">2021-10-21</text><path  d="M 731 351
L 731 356" style="stroke-width:1;stroke:rgba(51,51,51,1.0);fill:none"/><text x="698" y="373" style="stroke-width:0;stroke:none;fill:rgba(51,51,51,1.0);font-size:12.8px;font-family:'Roboto Medium',sans-serif">2022-02-18</text><path  d="M 846 351
L 846 356" style="stroke-width:1;stroke:rgba(51,51,51,1.0);fill:none"/><text x="813" y="373" style="stroke-width:0;stroke:none;fill:rgba(51,51,51,1.0);font-size:12.8px;font-family:'Roboto Medium',sans-serif">2022-06-19</text><path  d="M 961 351
L 961 356" style="stroke-width:1;stroke:rgba(51,51,51,1.0);fill:none"/><text x="928" y="373" style="stroke-width:0;stroke:none;fill:rgba(51,51,51,1.0);font-size:12.8px;font-family:'Roboto Medium',sans-serif">2022-10-18</text><text x="481" y="395" style="stroke-width:0;stroke:none;fill:rgba(51,51,51,1.0);font-size:12.8px;font-family:'Roboto Medium',sans-serif">Datum</text><path  d="M 962 351
L 962 11" style="stroke-width:1;stroke:rgba(51,51,51,1.0);fill:none"/><path  d="M 962 351
L 967 351" style="stroke-width:1;stroke:rgba(51,51,51,1.0);fill:none"/><text x="972" y="357" style="stroke-width:0;stroke:none;fill:rgba(51,51,51,1.0);font-size:12.8px;font-family:'Roboto Medium',sans-serif">0.00</text><path  d="M 962 308
L 967 308" style="stroke-width:1;stroke:rgba(51,51,51,1.0);fill:none"/><text x="972" y="314" style="stroke-width:0;stroke:none;fill:rgba(51,51,51,1.0);font-size:12.8px;font-family:'Roboto Medium',sans-serif">490.00</text><path  d="M 962 265
L 967 265" style="stroke-width:1;stroke:rgba(51,51,51,1.0);fill:none"/><text x="972" y="271" style="stroke-width:0;stroke:none;fill:rgba(51,51,51,1.0);font-size:12.8px;font-family:'Roboto Medium',sans-serif">980.00</text><path  d="M 962 222
L 967 222" style="stroke-width:1;stroke:rgba(51,51,51,1.0);fill:none"/><text x="972" y="228" style="stroke-width:0;stroke:none;fill:rgba(51,51,51,1.0);font-size:12.8px;font-family:'Roboto Medium',sans-serif">1470.00</text><path  d="M 962 181
L 967 181" style="stroke-width:1;stroke:rgba(51,51,51,1.0);fill:none"/><text x="972" y="187" style="stroke-width:0;stroke:none;fill:rgba(51,51,51,1.0);font-size:12.8px;font-family:'Roboto Medium',sans-serif">1950.00</text><path  d="M 962 138
L 967 138" style="stroke-width:1;stroke:rgba(51,51,51,1.0);fill:none"/><text x="972" y="144" style="stroke-width:0;stroke:none;fill:rgba(51,51,51,1.0);font-size:12.8px;font-family:'Roboto Medium',sans-serif">2440.00</text><path  d="M 962 95
L 967 95" style="stroke-width:1;stroke:rgba(51,51,51,1.0);fill:none"/><text x="972" y="101" style="stroke-width:0;stroke:none;fill:rgba(51,51,51,1.0);font-size:12.8px;font-family:'Roboto Medium',sans-serif">2930.00</text><path  d="M 962 52
L 967 52" style="stroke-width:1;stroke:rgba(51,51,51,1.0);fill:none"/><text x="972" y="58" style="stroke-width:0;stroke:none;fill:rgba(51,51,51,1.0);font-size:12.8px;font-family:'Roboto Medium',sans-serif">3420.00</text><path  d="M 962 11
L 967 11" style="stroke-width:1;stroke:rgba(51,51,51,1.0);fill:none"/><text x="972" y="17" style="stroke-width:0;stroke:none;fill:rgba(51,51,51,1.0);font-size:12.8px;font-family:'Roboto Medium',sans-serif">3900.00</text><path  d="M 38 351
L 39 351
L 40 351
L 41 351
L 42 351
L 43 351
L 44 351
L 45 351
L 46 351
L 47 351
L 48 351
L 49 351
L 50 351
L 51 351
L 52 351
L 53 351
L 54 351
L 55 350
L 56 350
L 57 350
L 58 349
L 59 349
L 60 349
L 60 348
L 61 348
L 62 349
L 63 349
L 64 349
L 65 349
L 66 348
L 67 349
L 68 348
L 69 348
L 70 348
L 71 348
L 72 349
L 73 349
L 74 349
L 75 350
L 76 350
L 77 350
L 78 350
L 79 350
L 80 350
L 81 350
L 82 350
L 82 350
L 83 350
L 84 350
L 85 350
L 86 350
L 87 350
L 88 350
L 89 350
L 90 350
L 91 350
L 92 350
L 93 350
L 94 350
L 95 350
L 96 350
L 97 351
L 98 351
L 99 351
L 100 351
L 101 351
L 102 351
L 103 351
L 104 351
L 104 351
L 105 350
L 106 350
L 107 350
L 108 350
L 109 350
L 110 350
L 111 350
L 112 351
L 113 351
L 114 351
L 115 351
L 116 351
L 117 351
L 118 351
L 119 351
L 120 351
L 121 351
L 122 351
L 123 351
L 124 351
L 125 351
L 126 351
L 126 351
L 127 351
L 128 351
L 129 351
L 130 351
L 131 351
L 132 351
L 133 351
L 134 351
L 135 351
L 136 351
L 137 351
L 138 351
L 139 351
L 140 351
L 141 351
L 142 351
L 143 351
L 144 351
L 145 351
L 146 351
L 147 351
L 148 351
L 148 351
L 149 351
L 150 351
L 151 351
L 152 351
L 153 351
L 154 351
L 155 351
L 156 351
L 157 351
L 158 351
L 159 350
L 160 350
L 161 350
L 162 349
L 163 349
L 164 349
L 165 349
L 166 349
L 167 349
L 168 350
L 169 350
L 170 350
L 170 350
L 171 350
L 172 350
L 173 349
L 174 349
L 175 349
L 176 349
L 177 349
L 178 350
L 179 350
L 180 350
L 181 350
L 182 350
L 183 350
L 184 350
L 185 350
L 186 350
L 187 350
L 188 350
L 189 350
L 190 350
L 191 350
L 192 350
L 192 350
L 193 351
L 194 350
L 195 350
L 196 350
L 197 350
L 198 350
L 199 350
L 200 349
L 201 350
L 202 349
L 203 349
L 204 349
L 205 349
L 206 349
L 207 349
L 208 349
L 209 349
L 210 348
L 211 349
L 212 349
L 213 349
L 214 349
L 214 349
L 215 350
L 216 350
L 217 350
L 218 350
L 219 350
L 220 350
L 221 349
L 222 348
L 223 348
L 224 348
L 225 347
L 226 347
L 227 348
L 228 348
L 229 349
L 230 349
L 231 349
L 232 349
L 233 350
L 234 350
L 235 350
L 236 349
L 236 349
L 237 349
L 238 349
L 239 349
L 240 349
L 241 349
L 242 350
L 243 350
L 244 349
L 245 350
L 246 350
L 247 350
L 248 349
L 249 349
L 250 349
L 251 349
L 252 349
L 253 350
L 254 349
L 255 349
L 256 349
L 257 349
L 258 349
L 258 348
L 259 348
L 260 348
L 261 348
L 262 348
L 263 347
L 264 346
L 265 345
L 266 344
L 267 344
L 268 343
L 269 341
L 270 340
L 271 340
L 272 339
L 273 336
L 274 333
L 275 328
L 276 328
L 277 322
L 278 322
L 279 317
L 280 313
L 280 310
L 281 304
L 282 293
L 283 289
L 284 285
L 285 289
L 286 288
L 287 286
L 288 288
L 289 296
L 290 305
L 291 302
L 292 295
L 293 294
L 294 297
L 295 301
L 296 301
L 297 301
L 298 305
L 299 306
L 300 309
L 301 311
L 302 313
L 302 312
L 303 315
L 304 318
L 305 322
L 306 326
L 307 328
L 308 325
L 309 328
L 310 327
L 311 326
L 312 327
L 313 327
L 314 325
L 315 329
L 316 328
L 317 327
L 318 326
L 319 326
L 320 324
L 321 325
L 322 327
L 323 327
L 324 328
L 324 330
L 325 331
L 326 329
L 327 330
L 328 330
L 329 332
L 330 332
L 331 332
L 332 331
L 333 332
L 334 331
L 335 331
L 336 333
L 337 323
L 338 324
L 339 324
L 340 324
L 341 324
L 342 324
L 343 322
L 344 332
L 345 332
L 346 333
L 346 335
L 347 337
L 348 338
L 349 338
L 350 337
L 351 338
L 352 339
L 353 340
L 354 340
L 355 342
L 356 341
L 357 342
L 358 342
L 359 343
L 360 343
L 361 342
L 362 343
L 363 344
L 364 346
L 365 346
L 366 346
L 367 346
L 368 347
L 368 346
L 369 347
L 370 346
L 371 345
L 372 345
L 373 345
L 374 345
L 375 345
L 376 344
L 377 344
L 378 345
L 379 345
L 380 345
L 381 345
L 382 344
L 383 344
L 384 344
L 385 343
L 386 342
L 387 342
L 388 341
L 389 342
L 390 342
L 390 343
L 391 342
L 392 341
L 393 340
L 394 339
L 395 337
L 396 336
L 397 333
L 398 331
L 399 330
L 400 329
L 401 326
L 402 324
L 403 323
L 404 324
L 405 324
L 406 324
L 407 322
L 408 323
L 409 326
L 410 317
L 411 317
L 412 317
L 412 319
L 413 319
L 414 318
L 415 318
L 416 326
L 417 328
L 418 328
L 419 326
L 420 326
L 421 329
L 422 329
L 423 328
L 424 327
L 425 328
L 426 330
L 427 332
L 428 331
L 429 332
L 430 334
L 431 336
L 432 338
L 433 338
L 434 339
L 434 341
L 435 342
L 436 342
L 437 343
L 438 342
L 439 343
L 440 343
L 441 343
L 442 343
L 443 342
L 444 341
L 445 341
L 446 340
L 447 340
L 448 340
L 449 340
L 450 340
L 451 341
L 452 341
L 453 339
L 454 340
L 455 341
L 456 338
L 456 338
L 457 338
L 458 339
L 459 340
L 460 341
L 461 339
L 462 341
L 463 342
L 464 341
L 465 341
L 466 342
L 467 343
L 468 344
L 469 345
L 470 345
L 471 346
L 472 346
L 473 347
L 474 346
L 475 347
L 476 347
L 477 347
L 478 346
L 478 347
L 479 348
L 480 348
L 481 349
L 482 349
L 483 350
L 484 350
L 485 350
L 486 350
L 487 350
L 488 350
L 489 350
L 490 350
L 491 350
L 492 350
L 493 351
L 494 351
L 495 351
L 496 351
L 497 351
L 498 351
L 499 351
L 500 351
L 500 351
L 501 351
L 502 351
L 503 351
L 504 351
L 505 351
L 506 351
L 507 351
L 508 351
L 509 351
L 510 351
L 511 351
L 512 351
L 513 350
L 514 350
L 515 350
L 516 350
L 517 350
L 518 350
L 519 349
L 520 349
L 521 348
L 522 348
L 522 347
L 523 347
L 524 346
L 525 347
L 526 347
L 527 347
L 528 347
L 529 347
L 530 347
L 531 347
L 532 347
L 533 346
L 534 347
L 535 347
L 536 347
L 537 347
L 538 346
L 539 346
L 540 344
L 541 343
L 542 340
L 543 340
L 544 340
L 544 340
L 545 340
L 546 340
L 547 340
L 548 341
L 549 341
L 550 341
L 551 341
L 552 342
L 553 341
L 554 341
L 555 343
L 556 343
L 557 343
L 558 343
L 559 342
L 560 343
L 561 342
L 562 341
L 563 341
L 564 340
L 565 340
L 566 339
L 566 341
L 567 341
L 568 342
L 569 342
L 570 343
L 571 342
L 572 343
L 573 341
L 574 340
L 575 338
L 576 338
L 577 336
L 578 336
L 579 337
L 580 335
L 581 337
L 582 337
L 583 336
L 584 335
L 585 334
L 586 334
L 587 334
L 588 333
L 588 334
L 589 333
L 590 333
L 591 333
L 592 330
L 593 327
L 594 327
L 595 325
L 596 324
L 597 323
L 598 324
L 599 325
L 600 326
L 601 326
L 602 328
L 603 329
L 604 331
L 605 330
L 606 331
L 607 332
L 608 332
L 609 331
L 610 331
L 610 330
L 611 330
L 612 328
L 613 325
L 614 325
L 615 322
L 616 320
L 617 317
L 618 315
L 619 316
L 620 317
L 621 316
L 622 312
L 623 310
L 624 307
L 625 304
L 626 299
L 627 295
L 628 285
L 629 286
L 630 282
L 631 278
L 632 279
L 632 279
L 633 275
L 634 278
L 635 276
L 636 278
L 637 273
L 638 259
L 639 256
L 640 244
L 641 241
L 642 236
L 643 232
L 644 234
L 645 236
L 646 236
L 647 240
L 648 237
L 649 238
L 650 241
L 651 241
L 652 244
L 653 247
L 654 258
L 654 265
L 655 268
L 656 272
L 657 280
L 658 290
L 659 296
L 660 295
L 661 298
L 662 307
L 663 307
L 664 307
L 665 308
L 666 306
L 667 310
L 668 317
L 669 316
L 670 322
L 671 324
L 672 327
L 673 330
L 674 333
L 675 333
L 676 334
L 676 336
L 677 338
L 678 338
L 679 336
L 680 338
L 681 336
L 682 334
L 683 333
L 684 333
L 685 333
L 686 333
L 687 330
L 688 329
L 689 327
L 690 326
L 691 323
L 692 318
L 693 315
L 694 311
L 695 308
L 696 305
L 697 299
L 698 291
L 698 283
L 699 277
L 700 273
L 701 258
L 702 245
L 703 243
L 704 233
L 705 226
L 706 216
L 707 209
L 708 195
L 709 183
L 710 158
L 711 155
L 712 154
L 713 144
L 714 125
L 715 123
L 716 117
L 717 123
L 718 112
L 719 98
L 720 104
L 720 93
L 721 89
L 722 87
L 723 90
L 724 97
L 725 109
L 726 106
L 727 121
L 728 123
L 729 132
L 730 137
L 731 145
L 732 157
L 733 159
L 734 155
L 735 162
L 736 168
L 737 164
L 738 159
L 739 153
L 740 141
L 741 132
L 742 128
L 742 118
L 743 121
L 744 122
L 745 114
L 746 108
L 747 114
L 748 99
L 749 82
L 750 59
L 751 46
L 752 42
L 753 33
L 754 19
L 755 29
L 756 29
L 757 33
L 758 37
L 759 37
L 760 39
L 761 30
L 762 21
L 763 29
L 764 35
L 764 34
L 765 37
L 766 66
L 767 92
L 768 117
L 769 140
L 770 166
L 771 190
L 772 199
L 773 207
L 774 224
L 775 229
L 776 237
L 777 235
L 778 235
L 779 244
L 780 250
L 781 259
L 782 269
L 783 275
L 784 282
L 785 290
L 786 297
L 786 301
L 787 305
L 788 308
L 789 310
L 790 312
L 791 314
L 792 310
L 793 310
L 794 310
L 795 313
L 796 311
L 797 311
L 798 310
L 799 314
L 800 312
L 801 312
L 802 312
L 803 314
L 804 315
L 805 316
L 806 315
L 807 320
L 808 322
L 808 322
L 809 322
L 810 325
L 811 329
L 812 329
L 813 329
L 814 332
L 815 333
L 816 336
L 817 335
L 818 335
L 819 336
L 820 338
L 821 336
L 822 336
L 823 336
L 824 336
L 825 337
L 826 336
L 827 336
L 828 338
L 829 340
L 830 340
L 830 339
L 831 339
L 832 339
L 833 340
L 834 338
L 835 337
L 836 336
L 837 336
L 838 336
L 839 336
L 840 333
L 841 331
L 842 328
L 843 330
L 844 325
L 845 322
L 846 321
L 847 319
L 848 318
L 849 318
L 850 311
L 851 313
L 852 312
L 852 310
L 853 314
L 854 306
L 855 302
L 856 303
L 857 300
L 858 298
L 859 297
L 860 288
L 861 291
L 862 288
L 863 285
L 864 285
L 865 288
L 866 285
L 867 293
L 868 286
L 869 290
L 870 287
L 871 289
L 872 284
L 873 291
L 874 279
L 874 286
L 875 286
L 876 288
L 877 288
L 878 290
L 879 287
L 880 292
L 881 294
L 882 300
L 883 301
L 884 305
L 885 307
L 886 311
L 887 313
L 888 317
L 889 316
L 890 320
L 891 318
L 892 318
L 893 316
L 894 319
L 895 319
L 896 319
L 896 320
L 897 322
L 898 323
L 899 324
L 900 325
L 901 324
L 902 323
L 903 322
L 904 323
L 905 323
L 906 321
L 907 321
L 908 322
L 909 323
L 910 321
L 911 321
L 912 320
L 913 321
L 914 320
L 915 320
L 916 318
L 917 320
L 918 320
L 918 321
L 919 320
L 920 321
L 921 321
L 922 324
L 923 323
L 924 326
L 925 327
L 926 327
L 927 327
L 928 323
L 929 323
L 930 322
L 931 321
L 932 319
L 933 320
L 934 323
L 935 321
L 936 317
L 937 311
L 938 306
L 939 302
L 940 297
L 940 288
L 941 276
L 942 270
L 943 258
L 944 249
L 945 243
L 946 234
L 947 232
L 948 232
L 949 232
L 950 235
L 951 238
L 952 238
L 953 243
L 954 242
L 955 240
L 956 235
L 957 240
L 958 244
L 959 250
L 960 253
L 961 255
L 961 266" style="stroke-width:1;stroke:rgba(0,116,217,1.0);fill:none"/><path  d="M 38 351
L 39 351
L 40 351
L 41 351
L 42 351
L 43 351
L 44 351
L 45 351
L 46 351
L 47 351
L 48 351
L 49 351
L 50 351
L 51 351
L 52 351
L 53 351
L 54 351
L 55 350
L 56 350
L 57 350
L 58 350
L 59 350
L 60 350
L 60 350
L 61 350
L 62 350
L 63 350
L 64 350
L 65 350
L 66 350
L 67 351
L 68 350
L 69 350
L 70 351
L 71 350
L 72 351
L 73 350
L 74 350
L 75 351
L 76 351
L 77 351
L 78 350
L 79 350
L 80 351
L 81 351
L 82 351
L 82 351
L 83 351
L 84 351
L 85 350
L 86 351
L 87 351
L 88 351
L 89 351
L 90 350
L 91 351
L 92 351
L 93 351
L 94 351
L 95 351
L 96 351
L 97 351
L 98 351
L 99 351
L 100 351
L 101 351
L 102 351
L 103 351
L 104 351
L 104 351
L 105 350
L 106 351
L 107 351
L 108 351
L 109 351
L 110 351
L 111 351
L 112 351
L 113 351
L 114 351
L 115 351
L 116 351
L 117 351
L 118 351
L 119 351
L 120 351
L 121 351
L 122 351
L 123 351
L 124 351
L 125 351
L 126 351
L 126 351
L 127 351
L 128 351
L 129 351
L 130 351
L 131 351
L 132 351
L 133 351
L 134 351
L 135 351
L 136 351
L 137 351
L 138 351
L 139 351
L 140 351
L 141 351
L 142 351
L 143 351
L 144 351
L 145 351
L 146 351
L 147 351
L 148 351
L 148 351
L 149 351
L 150 351
L 151 351
L 152 351
L 153 351
L 154 351
L 155 351
L 156 351
L 157 351
L 158 351
L 159 350
L 160 350
L 161 350
L 162 350
L 163 350
L 164 351
L 165 350
L 166 351
L 167 351
L 168 351
L 169 351
L 170 351
L 170 351
L 171 350
L 172 351
L 173 350
L 174 351
L 175 351
L 176 350
L 177 351
L 178 350
L 179 351
L 180 351
L 181 351
L 182 351
L 183 351
L 184 350
L 185 351
L 186 350
L 187 350
L 188 351
L 189 351
L 190 351
L 191 351
L 192 351
L 192 351
L 193 351
L 194 350
L 195 351
L 196 351
L 197 351
L 198 350
L 199 350
L 200 350
L 201 351
L 202 350
L 203 350
L 204 350
L 205 350
L 206 350
L 207 350
L 208 351
L 209 350
L 210 350
L 211 351
L 212 351
L 213 350
L 214 350
L 214 351
L 215 351
L 216 350
L 217 351
L 218 350
L 219 350
L 220 350
L 221 350
L 222 350
L 223 350
L 224 350
L 225 350
L 226 350
L 227 350
L 228 350
L 229 350
L 230 351
L 231 351
L 232 350
L 233 350
L 234 351
L 235 350
L 236 350
L 236 350
L 237 351
L 238 350
L 239 351
L 240 350
L 241 350
L 242 351
L 243 351
L 244 350
L 245 351
L 246 350
L 247 350
L 248 350
L 249 351
L 250 350
L 251 350
L 252 351
L 253 351
L 254 350
L 255 350
L 256 350
L 257 350
L 258 351
L 258 350
L 259 350
L 260 350
L 261 350
L 262 350
L 263 350
L 264 350
L 265 350
L 266 350
L 267 350
L 268 350
L 269 349
L 270 349
L 271 350
L 272 349
L 273 348
L 274 348
L 275 347
L 276 349
L 277 345
L 278 350
L 279 347
L 280 346
L 280 346
L 281 344
L 282 343
L 283 343
L 284 347
L 285 349
L 286 346
L 287 344
L 288 345
L 289 348
L 290 348
L 291 345
L 292 345
L 293 345
L 294 346
L 295 347
L 296 347
L 297 348
L 298 347
L 299 346
L 300 347
L 301 348
L 302 348
L 302 347
L 303 350
L 304 349
L 305 348
L 306 349
L 307 349
L 308 346
L 309 349
L 310 349
L 311 349
L 312 349
L 313 349
L 314 348
L 315 348
L 316 348
L 317 349
L 318 348
L 319 349
L 320 348
L 321 349
L 322 349
L 323 348
L 324 350
L 324 349
L 325 349
L 326 347
L 327 349
L 328 349
L 329 349
L 330 349
L 331 349
L 332 349
L 333 348
L 334 349
L 335 349
L 336 350
L 337 344
L 338 349
L 339 349
L 340 348
L 341 349
L 342 349
L 343 349
L 344 350
L 345 350
L 346 349
L 346 349
L 347 350
L 348 349
L 349 350
L 350 349
L 351 350
L 352 350
L 353 350
L 354 350
L 355 350
L 356 349
L 357 350
L 358 350
L 359 350
L 360 350
L 361 350
L 362 350
L 363 350
L 364 351
L 365 350
L 366 350
L 367 350
L 368 350
L 368 350
L 369 350
L 370 350
L 371 350
L 372 350
L 373 350
L 374 350
L 375 350
L 376 350
L 377 350
L 378 350
L 379 350
L 380 350
L 381 350
L 382 350
L 383 350
L 384 350
L 385 350
L 386 350
L 387 350
L 388 350
L 389 350
L 390 350
L 390 350
L 391 350
L 392 349
L 393 349
L 394 349
L 395 349
L 396 350
L 397 348
L 398 349
L 399 348
L 400 348
L 401 348
L 402 347
L 403 349
L 404 349
L 405 348
L 406 348
L 407 347
L 408 348
L 409 349
L 410 344
L 411 349
L 412 349
L 412 349
L 413 347
L 414 348
L 415 349
L 416 348
L 417 350
L 418 349
L 419 348
L 420 348
L 421 349
L 422 349
L 423 348
L 424 349
L 425 349
L 426 349
L 427 349
L 428 348
L 429 350
L 430 350
L 431 350
L 432 350
L 433 349
L 434 350
L 434 349
L 435 350
L 436 350
L 437 350
L 438 350
L 439 350
L 440 350
L 441 349
L 442 350
L 443 350
L 444 350
L 445 350
L 446 349
L 447 350
L 448 350
L 449 349
L 450 350
L 451 350
L 452 350
L 453 349
L 454 350
L 455 350
L 456 348
L 456 350
L 457 350
L 458 350
L 459 349
L 460 350
L 461 349
L 462 350
L 463 350
L 464 350
L 465 350
L 466 350
L 467 350
L 468 350
L 469 350
L 470 350
L 471 350
L 472 350
L 473 350
L 474 350
L 475 350
L 476 350
L 477 350
L 478 350
L 478 350
L 479 351
L 480 350
L 481 351
L 482 351
L 483 350
L 484 351
L 485 351
L 486 350
L 487 351
L 488 351
L 489 351
L 490 351
L 491 351
L 492 351
L 493 351
L 494 351
L 495 351
L 496 351
L 497 351
L 498 351
L 499 351
L 500 351
L 500 351
L 501 351
L 502 351
L 503 351
L 504 351
L 505 351
L 506 351
L 507 351
L 508 351
L 509 351
L 510 351
L 511 351
L 512 351
L 513 350
L 514 351
L 515 350
L 516 351
L 517 350
L 518 351
L 519 350
L 520 350
L 521 350
L 522 350
L 522 350
L 523 350
L 524 350
L 525 351
L 526 350
L 527 350
L 528 350
L 529 350
L 530 350
L 531 350
L 532 351
L 533 350
L 534 350
L 535 351
L 536 350
L 537 350
L 538 350
L 539 350
L 540 349
L 541 350
L 542 349
L 543 350
L 544 350
L 544 350
L 545 350
L 546 349
L 547 350
L 548 349
L 549 350
L 550 350
L 551 350
L 552 350
L 553 349
L 554 350
L 555 350
L 556 350
L 557 350
L 558 350
L 559 349
L 560 350
L 561 349
L 562 350
L 563 350
L 564 350
L 565 350
L 566 349
L 566 350
L 567 350
L 568 350
L 569 350
L 570 350
L 571 350
L 572 349
L 573 350
L 574 349
L 575 349
L 576 350
L 577 349
L 578 350
L 579 350
L 580 349
L 581 350
L 582 349
L 583 349
L 584 349
L 585 349
L 586 350
L 587 349
L 588 350
L 588 349
L 589 348
L 590 349
L 591 349
L 592 348
L 593 347
L 594 349
L 595 348
L 596 348
L 597 348
L 598 349
L 599 349
L 600 347
L 601 349
L 602 349
L 603 348
L 604 350
L 605 349
L 606 349
L 607 348
L 608 349
L 609 349
L 610 348
L 610 349
L 611 349
L 612 348
L 613 347
L 614 348
L 615 347
L 616 347
L 617 348
L 618 348
L 619 349
L 620 347
L 621 348
L 622 345
L 623 345
L 624 346
L 625 346
L 626 346
L 627 345
L 628 342
L 629 345
L 630 343
L 631 344
L 632 346
L 632 346
L 633 343
L 634 344
L 635 344
L 636 344
L 637 341
L 638 338
L 639 344
L 640 336
L 641 342
L 642 341
L 643 341
L 644 343
L 645 339
L 646 344
L 647 339
L 648 340
L 649 342
L 650 343
L 651 343
L 652 341
L 653 345
L 654 346
L 654 344
L 655 344
L 656 345
L 657 347
L 658 347
L 659 349
L 660 345
L 661 346
L 662 349
L 663 345
L 664 347
L 665 347
L 666 348
L 667 347
L 668 350
L 669 349
L 670 348
L 671 348
L 672 349
L 673 350
L 674 349
L 675 349
L 676 350
L 676 350
L 677 350
L 678 349
L 679 349
L 680 350
L 681 349
L 682 348
L 683 349
L 684 350
L 685 349
L 686 348
L 687 348
L 688 348
L 689 348
L 690 348
L 691 348
L 692 347
L 693 347
L 694 346
L 695 346
L 696 346
L 697 344
L 698 343
L 698 342
L 699 343
L 700 344
L 701 338
L 702 338
L 703 343
L 704 338
L 705 338
L 706 337
L 707 340
L 708 329
L 709 331
L 710 329
L 711 336
L 712 338
L 713 331
L 714 329
L 715 328
L 716 328
L 717 333
L 718 329
L 719 330
L 720 335
L 720 323
L 721 326
L 722 326
L 723 334
L 724 333
L 725 336
L 726 333
L 727 331
L 728 327
L 729 332
L 730 337
L 731 337
L 732 344
L 733 334
L 734 329
L 735 331
L 736 336
L 737 335
L 738 334
L 739 340
L 740 327
L 741 324
L 742 329
L 742 330
L 743 337
L 744 335
L 745 336
L 746 324
L 747 328
L 748 320
L 749 320
L 750 323
L 751 327
L 752 333
L 753 319
L 754 320
L 755 326
L 756 320
L 757 325
L 758 329
L 759 333
L 760 320
L 761 314
L 762 321
L 763 325
L 764 329
L 764 329
L 765 335
L 766 336
L 767 329
L 768 336
L 769 338
L 770 344
L 771 343
L 772 340
L 773 341
L 774 339
L 775 339
L 776 343
L 777 342
L 778 343
L 779 345
L 780 344
L 781 344
L 782 344
L 783 346
L 784 346
L 785 347
L 786 349
L 786 347
L 787 347
L 788 346
L 789 348
L 790 348
L 791 348
L 792 348
L 793 346
L 794 347
L 795 347
L 796 347
L 797 348
L 798 348
L 799 350
L 800 345
L 801 347
L 802 348
L 803 348
L 804 348
L 805 348
L 806 349
L 807 348
L 808 348
L 808 348
L 809 348
L 810 350
L 811 350
L 812 349
L 813 349
L 814 349
L 815 349
L 816 350
L 817 349
L 818 350
L 819 350
L 820 349
L 821 349
L 822 348
L 823 350
L 824 350
L 825 350
L 826 349
L 827 349
L 828 350
L 829 350
L 830 349
L 830 349
L 831 350
L 832 349
L 833 350
L 834 349
L 835 349
L 836 349
L 837 349
L 838 350
L 839 349
L 840 349
L 841 347
L 842 347
L 843 350
L 844 346
L 845 348
L 846 349
L 847 348
L 848 347
L 849 347
L 850 346
L 851 347
L 852 348
L 852 347
L 853 350
L 854 342
L 855 345
L 856 347
L 857 345
L 858 347
L 859 346
L 860 345
L 861 344
L 862 343
L 863 345
L 864 345
L 865 348
L 866 345
L 867 350
L 868 340
L 869 345
L 870 344
L 871 346
L 872 345
L 873 349
L 874 343
L 874 344
L 875 345
L 876 346
L 877 346
L 878 346
L 879 347
L 880 346
L 881 345
L 882 348
L 883 346
L 884 348
L 885 348
L 886 349
L 887 347
L 888 347
L 889 348
L 890 348
L 891 347
L 892 348
L 893 348
L 894 349
L 895 347
L 896 348
L 896 349
L 897 348
L 898 349
L 899 349
L 900 349
L 901 347
L 902 347
L 903 348
L 904 348
L 905 348
L 906 348
L 907 349
L 908 348
L 909 348
L 910 347
L 911 348
L 912 348
L 913 349
L 914 348
L 915 348
L 916 347
L 917 349
L 918 348
L 918 349
L 919 348
L 920 348
L 921 348
L 922 349
L 923 348
L 924 349
L 925 349
L 926 349
L 927 348
L 928 346
L 929 348
L 930 348
L 931 348
L 932 348
L 933 349
L 934 350
L 935 345
L 936 346
L 937 345
L 938 345
L 939 346
L 940 346
L 940 345
L 941 338
L 942 342
L 943 338
L 944 340
L 945 342
L 946 341
L 947 344
L 948 338
L 949 342
L 950 339
L 951 342
L 952 342
L 953 344
L 954 343
L 955 337
L 956 340
L 957 342
L 958 344
L 959 346
L 960 346
L 961 344
L 961 344" style="stroke-width:1;stroke:rgba(0,217,101,1.0);fill:none"/><path  d="M 38 351
L 39 351
L 40 351
L 41 351
L 42 351
L 43 351
L 44 351
L 45 351
L 46 351
L 47 351
L 48 351
L 49 351
L 50 351
L 51 351
L 52 351
L 53 351
L 54 351
L 55 351
L 56 351
L 57 351
L 58 351
L 59 351
L 60 351
L 60 351
L 61 351
L 62 351
L 63 351
L 64 351
L 65 351
L 66 351
L 67 351
L 68 351
L 69 350
L 70 351
L 71 351
L 72 351
L 73 351
L 74 351
L 75 351
L 76 351
L 77 351
L 78 351
L 79 351
L 80 351
L 81 351
L 82 351
L 82 351
L 83 351
L 84 351
L 85 351
L 86 351
L 87 351
L 88 351
L 89 351
L 90 351
L 91 351
L 92 351
L 93 351
L 94 351
L 95 351
L 96 351
L 97 351
L 98 351
L 99 351
L 100 351
L 101 351
L 102 351
L 103 351
L 104 351
L 104 351
L 105 351
L 106 351
L 107 351
L 108 351
L 109 351
L 110 351
L 111 351
L 112 351
L 113 351
L 114 351
L 115 351
L 116 351
L 117 351
L 118 351
L 119 351
L 120 351
L 121 351
L 122 351
L 123 351
L 124 351
L 125 351
L 126 351
L 126 351
L 127 351
L 128 351
L 129 351
L 130 351
L 131 351
L 132 351
L 133 351
L 134 351
L 135 351
L 136 351
L 137 351
L 138 351
L 139 351
L 140 351
L 141 351
L 142 351
L 143 351
L 144 351
L 145 351
L 146 351
L 147 351
L 148 351
L 148 351
L 149 351
L 150 351
L 151 351
L 152 351
L 153 351
L 154 351
L 155 351
L 156 351
L 157 351
L 158 351
L 159 351
L 160 351
L 161 351
L 162 351
L 163 351
L 164 351
L 165 351
L 166 351
L 167 351
L 168 351
L 169 351
L 170 351
L 170 351
L 171 351
L 172 351
L 173 351
L 174 351
L 175 351
L 176 351
L 177 351
L 178 351
L 179 351
L 180 351
L 181 351
L 182 351
L 183 351
L 184 351
L 185 351
L 186 351
L 187 351
L 188 351
L 189 351
L 190 351
L 191 351
L 192 351
L 192 351
L 193 351
L 194 351
L 195 351
L 196 351
L 197 351
L 198 351
L 199 351
L 200 351
L 201 351
L 202 351
L 203 351
L 204 351
L 205 351
L 206 351
L 207 351
L 208 350
L 209 351
L 210 351
L 211 351
L 212 351
L 213 351
L 214 351
L 214 351
L 215 351
L 216 351
L 217 351
L 218 351
L 219 351
L 220 351
L 221 351
L 222 351
L 223 351
L 224 351
L 225 351
L 226 351
L 227 351
L 228 350
L 229 351
L 230 351
L 231 351
L 232 351
L 233 351
L 234 351
L 235 351
L 236 351
L 236 351
L 237 351
L 238 351
L 239 351
L 240 351
L 241 351
L 242 351
L 243 351
L 244 351
L 245 351
L 246 351
L 247 351
L 248 351
L 249 351
L 250 351
L 251 351
L 252 351
L 253 351
L 254 351
L 255 351
L 256 351
L 257 351
L 258 351
L 258 351
L 259 351
L 260 351
L 261 351
L 262 351
L 263 351
L 264 351
L 265 351
L 266 350
L 267 351
L 268 351
L 269 351
L 270 351
L 271 351
L 272 351
L 273 351
L 274 351
L 275 351
L 276 351
L 277 350
L 278 351
L 279 351
L 280 351
L 280 351
L 281 351
L 282 351
L 283 351
L 284 351
L 285 350
L 286 351
L 287 350
L 288 351
L 289 350
L 290 351
L 291 350
L 292 350
L 293 351
L 294 351
L 295 351
L 296 350
L 297 351
L 298 350
L 299 351
L 300 351
L 301 350
L 302 350
L 302 350
L 303 350
L 304 350
L 305 350
L 306 350
L 307 350
L 308 350
L 309 350
L 310 351
L 311 351
L 312 351
L 313 350
L 314 350
L 315 350
L 316 351
L 317 351
L 318 350
L 319 350
L 320 351
L 321 350
L 322 351
L 323 350
L 324 350
L 324 351
L 325 351
L 326 350
L 327 350
L 328 350
L 329 350
L 330 350
L 331 350
L 332 350
L 333 351
L 334 351
L 335 351
L 336 351
L 337 351
L 338 350
L 339 350
L 340 351
L 341 350
L 342 350
L 343 350
L 344 351
L 345 351
L 346 350
L 346 350
L 347 350
L 348 350
L 349 350
L 350 350
L 351 351
L 352 351
L 353 350
L 354 350
L 355 350
L 356 350
L 357 351
L 358 350
L 359 350
L 360 350
L 361 350
L 362 350
L 363 351
L 364 351
L 365 351
L 366 351
L 367 350
L 368 351
L 368 350
L 369 351
L 370 351
L 371 350
L 372 351
L 373 351
L 374 351
L 375 351
L 376 351
L 377 350
L 378 350
L 379 351
L 380 351
L 381 351
L 382 351
L 383 351
L 384 351
L 385 351
L 386 351
L 387 351
L 388 351
L 389 350
L 390 351
L 390 351
L 391 351
L 392 351
L 393 351
L 394 351
L 395 351
L 396 351
L 397 351
L 398 351
L 399 350
L 400 351
L 401 351
L 402 351
L 403 351
L 404 351
L 405 350
L 406 351
L 407 351
L 408 351
L 409 351
L 410 350
L 411 351
L 412 351
L 412 351
L 413 351
L 414 351
L 415 350
L 416 351
L 417 350
L 418 351
L 419 351
L 420 351
L 421 351
L 422 351
L 423 350
L 424 351
L 425 351
L 426 351
L 427 351
L 428 351
L 429 351
L 430 351
L 431 351
L 432 351
L 433 351
L 434 351
L 434 350
L 435 351
L 436 351
L 437 351
L 438 351
L 439 350
L 440 351
L 441 351
L 442 351
L 443 351
L 444 351
L 445 351
L 446 351
L 447 351
L 448 351
L 449 351
L 450 351
L 451 351
L 452 351
L 453 351
L 454 351
L 455 351
L 456 351
L 456 351
L 457 351
L 458 351
L 459 351
L 460 351
L 461 351
L 462 351
L 463 351
L 464 351
L 465 351
L 466 351
L 467 351
L 468 351
L 469 351
L 470 351
L 471 351
L 472 351
L 473 351
L 474 351
L 475 351
L 476 351
L 477 351
L 478 351
L 478 351
L 479 351
L 480 351
L 481 350
L 482 351
L 483 351
L 484 351
L 485 351
L 486 351
L 487 351
L 488 351
L 489 351
L 490 351
L 491 351
L 492 351
L 493 351
L 494 351
L 495 351
L 496 351
L 497 351
L 498 351
L 499 351
L 500 351
L 500 351
L 501 351
L 502 351
L 503 351
L 504 351
L 505 351
L 506 351
L 507 351
L 508 351
L 509 351
L 510 351
L 511 351
L 512 351
L 513 351
L 514 351
L 515 351
L 516 351
L 517 351
L 518 351
L 519 351
L 520 351
L 521 351
L 522 351
L 522 351
L 523 351
L 524 351
L 525 351
L 526 351
L 527 351
L 528 351
L 529 351
L 530 351
L 531 351
L 532 351
L 533 351
L 534 351
L 535 351
L 536 351
L 537 351
L 538 351
L 539 351
L 540 351
L 541 351
L 542 351
L 543 351
L 544 351
L 544 351
L 545 351
L 546 351
L 547 351
L 548 351
L 549 351
L 550 350
L 551 351
L 552 351
L 553 351
L 554 351
L 555 351
L 556 351
L 557 351
L 558 351
L 559 351
L 560 351
L 561 351
L 562 351
L 563 351
L 564 351
L 565 351
L 566 351
L 566 351
L 567 350
L 568 351
L 569 351
L 570 351
L 571 351
L 572 351
L 573 351
L 574 351
L 575 351
L 576 351
L 577 351
L 578 351
L 579 351
L 580 351
L 581 351
L 582 351
L 583 351
L 584 351
L 585 351
L 586 351
L 587 351
L 588 351
L 588 351
L 589 351
L 590 351
L 591 350
L 592 351
L 593 351
L 594 351
L 595 351
L 596 351
L 597 351
L 598 351
L 599 351
L 600 351
L 601 351
L 602 351
L 603 351
L 604 351
L 605 351
L 606 351
L 607 351
L 608 351
L 609 351
L 610 351
L 610 351
L 611 351
L 612 351
L 613 351
L 614 350
L 615 350
L 616 351
L 617 351
L 618 351
L 619 351
L 620 351
L 621 351
L 622 351
L 623 351
L 624 351
L 625 351
L 626 351
L 627 351
L 628 351
L 629 351
L 630 351
L 631 351
L 632 351
L 632 351
L 633 350
L 634 350
L 635 351
L 636 350
L 637 351
L 638 351
L 639 351
L 640 351
L 641 350
L 642 350
L 643 350
L 644 351
L 645 351
L 646 350
L 647 351
L 648 350
L 649 351
L 650 350
L 651 351
L 652 351
L 653 350
L 654 351
L 654 350
L 655 351
L 656 350
L 657 350
L 658 351
L 659 351
L 660 351
L 661 351
L 662 351
L 663 351
L 664 351
L 665 351
L 666 351
L 667 351
L 668 351
L 669 351
L 670 350
L 671 351
L 672 351
L 673 350
L 674 351
L 675 351
L 676 351
L 676 351
L 677 351
L 678 351
L 679 351
L 680 351
L 681 350
L 682 350
L 683 350
L 684 351
L 685 351
L 686 351
L 687 351
L 688 351
L 689 351
L 690 351
L 691 351
L 692 351
L 693 351
L 694 351
L 695 351
L 696 351
L 697 351
L 698 351
L 698 351
L 699 351
L 700 351
L 701 351
L 702 351
L 703 351
L 704 351
L 705 351
L 706 351
L 707 351
L 708 351
L 709 351
L 710 351
L 711 351
L 712 351
L 713 351
L 714 351
L 715 351
L 716 351
L 717 351
L 718 351
L 719 351
L 720 351
L 720 351
L 721 351
L 722 351
L 723 350
L 724 351
L 725 351
L 726 351
L 727 351
L 728 351
L 729 351
L 730 351
L 731 351
L 732 351
L 733 351
L 734 350
L 735 351
L 736 351
L 737 351
L 738 351
L 739 351
L 740 351
L 741 351
L 742 351
L 742 350
L 743 351
L 744 351
L 745 351
L 746 351
L 747 350
L 748 351
L 749 351
L 750 350
L 751 351
L 752 351
L 753 351
L 754 351
L 755 351
L 756 351
L 757 350
L 758 351
L 759 351
L 760 350
L 761 351
L 762 350
L 763 351
L 764 351
L 764 351
L 765 350
L 766 350
L 767 351
L 768 350
L 769 351
L 770 351
L 771 351
L 772 351
L 773 350
L 774 351
L 775 350
L 776 351
L 777 351
L 778 351
L 779 351
L 780 351
L 781 350
L 782 351
L 783 351
L 784 351
L 785 351
L 786 351
L 786 351
L 787 351
L 788 351
L 789 351
L 790 351
L 791 351
L 792 351
L 793 351
L 794 351
L 795 351
L 796 351
L 797 351
L 798 351
L 799 351
L 800 351
L 801 351
L 802 351
L 803 351
L 804 351
L 805 351
L 806 351
L 807 351
L 808 351
L 808 351
L 809 351
L 810 351
L 811 351
L 812 351
L 813 351
L 814 351
L 815 351
L 816 351
L 817 351
L 818 351
L 819 351
L 820 351
L 821 351
L 822 351
L 823 351
L 824 351
L 825 351
L 826 351
L 827 351
L 828 351
L 829 351
L 830 351
L 830 351
L 831 351
L 832 351
L 833 351
L 834 351
L 835 351
L 836 351
L 837 351
L 838 351
L 839 351
L 840 351
L 841 351
L 842 351
L 843 351
L 844 351
L 845 351
L 846 351
L 847 351
L 848 351
L 849 351
L 850 351
L 851 351
L 852 351
L 852 351
L 853 351
L 854 351
L 855 351
L 856 351
L 857 351
L 858 351
L 859 351
L 860 351
L 861 351
L 862 351
L 863 351
L 864 351
L 865 351
L 866 351
L 867 351
L 868 351
L 869 351
L 870 351
L 871 351
L 872 351
L 873 351
L 874 351
L 874 351
L 875 351
L 876 351
L 877 351
L 878 351
L 879 351
L 880 351
L 881 351
L 882 351
L 883 351
L 884 351
L 885 351
L 886 351
L 887 351
L 888 351
L 889 351
L 890 351
L 891 351
L 892 351
L 893 350
L 894 351
L 895 351
L 896 351
L 896 351
L 897 351
L 898 351
L 899 351
L 900 351
L 901 351
L 902 351
L 903 351
L 904 351
L 905 351
L 906 351
L 907 351
L 908 350
L 909 351
L 910 350
L 911 351
L 912 351
L 913 351
L 914 351
L 915 351
L 916 351
L 917 351
L 918 351
L 918 351
L 919 351
L 920 351
L 921 351
L 922 351
L 923 351
L 924 351
L 925 351
L 926 351
L 927 351
L 928 351
L 929 351
L 930 351
L 931 351
L 932 351
L 933 351
L 934 351
L 935 351
L 936 351
L 937 351
L 938 351
L 939 351
L 940 351
L 940 351
L 941 351
L 942 351
L 943 351
L 944 351
L 945 350
L 946 351
L 947 351
L 948 351
L 949 351
L 950 351
L 951 351
L 952 351
L 953 351
L 954 350
L 955 351
L 956 350
L 957 351
L 958 351
L 959 351
L 960 351
L 961 351
L 961 351" style="stroke-width:1;stroke:rgba(217,0,116,1.0);fill:none"/><text x="331" y="33" style="stroke-width:0;stroke:none;fill:rgba(51,51,51,1.0);font-size:23.0px;font-family:'Roboto Medium',sans-serif">Kirchdorf an der Krems 18.10.2022</text><path  d="M 38 11
L 251 11
L 251 91
L 38 91
L 38 11" style="stroke-width:1;stroke:rgba(51,51,51,1.0);fill:rgba(255,255,255,1.0)"/><text x="43" y="26" style="stroke-width:0;stroke:none;fill:rgba(51,51,51,1.0);font-size:10.2px;font-family:'Roboto Medium',sans-serif">Sieben Tage Durschnitt Inzidenz Fälle</text><path  d="M 221 21
L 241 21" style="stroke-width:1;stroke:rgba(0,116,217,1.0);fill:none"/><text x="43" y="56" style="stroke-width:0;stroke:none;fill:rgba(51,51,51,1.0);font-size:10.2px;font-family:'Roboto Medium',sans-serif">Anzahl Faelle</text><path  d="M 110 51
L 241 51" style="stroke-width:1;stroke:rgba(0,217,101,1.0);fill:none"/><text x="43" y="86" style="stroke-width:0;stroke:none;fill:rgba(51,51,51,1.0);font-size:10.2px;font-family:'Roboto Medium',sans-serif">Anzahl Tot</text><path  d="M 98 81
L 241 81" style="stroke-width:1;stroke:rgba(217,0,116,1.0);fill:none"/></svg>