<svg xmlns="http://www.w3.org/2000/svg" xmlns:xlink="http://www.w3.org/1999/xlink" width="1024" height="400">\n<path  d="M 0 0
L 1024 0
L 1024 400
L 0 400
L 0 0" style="stroke-width:0;stroke:rgba(255,255,255,1.0);fill:rgba(255,255,255,1.0)"/><path  d="M 38 11
L 961 11
L 961 351
L 38 351
L 38 11" style="stroke-width:0;stroke:rgba(255,255,255,1.0);fill:rgba(255,255,255,1.0)"/><path  d="M 38 351
L 961 351" style="stroke-width:1;stroke:rgba(51,51,51,1.0);fill:none"/><path  d="M 38 351
L 38 356" style="stroke-width:1;stroke:rgba(51,51,51,1.0);fill:none"/><text x="5" y="373" style="stroke-width:0;stroke:none;fill:rgba(51,51,51,1.0);font-size:12.8px;font-family:'Roboto Medium',sans-serif">2020-02-26</text><path  d="M 154 351
L 154 356" style="stroke-width:1;stroke:rgba(51,51,51,1.0);fill:none"/><text x="121" y="373" style="stroke-width:0;stroke:none;fill:rgba(51,51,51,1.0);font-size:12.8px;font-family:'Roboto Medium',sans-serif">2020-06-21</text><path  d="M 269 351
L 269 356" style="stroke-width:1;stroke:rgba(51,51,51,1.0);fill:none"/><text x="236" y="373" style="stroke-width:0;stroke:none;fill:rgba(51,51,51,1.0);font-size:12.8px;font-family:'Roboto Medium',sans-serif">2020-10-16</text><path  d="M 385 351
L 385 356" style="stroke-width:1;stroke:rgba(51,51,51,1.0);fill:none"/><text x="352" y="373" style="stroke-width:0;stroke:none;fill:rgba(51,51,51,1.0);font-size:12.8px;font-family:'Roboto Medium',sans-serif">2021-02-10</text><path  d="M 500 351
L 500 356" style="stroke-width:1;stroke:rgba(51,51,51,1.0);fill:none"/><text x="467" y="373" style="stroke-width:0;stroke:none;fill:rgba(51,51,51,1.0);font-size:12.8px;font-family:'Roboto Medium',sans-serif">2021-06-07</text><path  d="M 615 351
L 615 356" style="stroke-width:1;stroke:rgba(51,51,51,1.0);fill:none"/><text x="582" y="373" style="stroke-width:0;stroke:none;fill:rgba(51,51,51,1.0);font-size:12.8px;font-family:'Roboto Medium',sans-serif">2021-10-01</text><path  d="M 731 351
L 731 356" style="stroke-width:1;stroke:rgba(51,51,51,1.0);fill:none"/><text x="698" y="373" style="stroke-width:0;stroke:none;fill:rgba(51,51,51,1.0);font-size:12.8px;font-family:'Roboto Medium',sans-serif">2022-01-26</text><path  d="M 846 351
L 846 356" style="stroke-width:1;stroke:rgba(51,51,51,1.0);fill:none"/><text x="813" y="373" style="stroke-width:0;stroke:none;fill:rgba(51,51,51,1.0);font-size:12.8px;font-family:'Roboto Medium',sans-serif">2022-05-23</text><path  d="M 961 351
L 961 356" style="stroke-width:1;stroke:rgba(51,51,51,1.0);fill:none"/><text x="928" y="373" style="stroke-width:0;stroke:none;fill:rgba(51,51,51,1.0);font-size:12.8px;font-family:'Roboto Medium',sans-serif">2022-09-17</text><text x="481" y="395" style="stroke-width:0;stroke:none;fill:rgba(51,51,51,1.0);font-size:12.8px;font-family:'Roboto Medium',sans-serif">Datum</text><path  d="M 962 351
L 962 11" style="stroke-width:1;stroke:rgba(51,51,51,1.0);fill:none"/><path  d="M 962 351
L 967 351" style="stroke-width:1;stroke:rgba(51,51,51,1.0);fill:none"/><text x="972" y="357" style="stroke-width:0;stroke:none;fill:rgba(51,51,51,1.0);font-size:12.8px;font-family:'Roboto Medium',sans-serif">0.00</text><path  d="M 962 308
L 967 308" style="stroke-width:1;stroke:rgba(51,51,51,1.0);fill:none"/><text x="972" y="314" style="stroke-width:0;stroke:none;fill:rgba(51,51,51,1.0);font-size:12.8px;font-family:'Roboto Medium',sans-serif">500.00</text><path  d="M 962 266
L 967 266" style="stroke-width:1;stroke:rgba(51,51,51,1.0);fill:none"/><text x="972" y="272" style="stroke-width:0;stroke:none;fill:rgba(51,51,51,1.0);font-size:12.8px;font-family:'Roboto Medium',sans-serif">1000.00</text><path  d="M 962 223
L 967 223" style="stroke-width:1;stroke:rgba(51,51,51,1.0);fill:none"/><text x="972" y="229" style="stroke-width:0;stroke:none;fill:rgba(51,51,51,1.0);font-size:12.8px;font-family:'Roboto Medium',sans-serif">1500.00</text><path  d="M 962 181
L 967 181" style="stroke-width:1;stroke:rgba(51,51,51,1.0);fill:none"/><text x="972" y="187" style="stroke-width:0;stroke:none;fill:rgba(51,51,51,1.0);font-size:12.8px;font-family:'Roboto Medium',sans-serif">2000.00</text><path  d="M 962 138
L 967 138" style="stroke-width:1;stroke:rgba(51,51,51,1.0);fill:none"/><text x="972" y="144" style="stroke-width:0;stroke:none;fill:rgba(51,51,51,1.0);font-size:12.8px;font-family:'Roboto Medium',sans-serif">2500.00</text><path  d="M 962 96
L 967 96" style="stroke-width:1;stroke:rgba(51,51,51,1.0);fill:none"/><text x="972" y="102" style="stroke-width:0;stroke:none;fill:rgba(51,51,51,1.0);font-size:12.8px;font-family:'Roboto Medium',sans-serif">3000.00</text><path  d="M 962 53
L 967 53" style="stroke-width:1;stroke:rgba(51,51,51,1.0);fill:none"/><text x="972" y="59" style="stroke-width:0;stroke:none;fill:rgba(51,51,51,1.0);font-size:12.8px;font-family:'Roboto Medium',sans-serif">3500.00</text><path  d="M 962 11
L 967 11" style="stroke-width:1;stroke:rgba(51,51,51,1.0);fill:none"/><text x="972" y="17" style="stroke-width:0;stroke:none;fill:rgba(51,51,51,1.0);font-size:12.8px;font-family:'Roboto Medium',sans-serif">4000.00</text><path  d="M 38 351
L 39 351
L 40 351
L 41 351
L 42 351
L 43 351
L 44 351
L 45 351
L 46 350
L 47 350
L 48 350
L 49 350
L 50 350
L 51 350
L 52 350
L 53 350
L 54 350
L 55 350
L 56 349
L 57 349
L 58 349
L 59 347
L 60 345
L 61 343
L 62 341
L 63 340
L 64 338
L 65 337
L 66 334
L 67 335
L 68 334
L 69 335
L 70 332
L 71 332
L 72 331
L 73 333
L 74 333
L 75 334
L 76 336
L 77 339
L 78 341
L 79 343
L 80 344
L 81 346
L 82 347
L 83 347
L 84 348
L 85 347
L 86 347
L 87 348
L 88 348
L 89 349
L 90 349
L 91 349
L 92 349
L 93 350
L 94 350
L 95 350
L 96 350
L 97 350
L 98 350
L 99 350
L 100 350
L 101 349
L 102 349
L 103 350
L 104 350
L 105 350
L 106 350
L 107 350
L 108 350
L 109 351
L 110 351
L 111 351
L 112 351
L 113 351
L 114 351
L 115 351
L 116 350
L 117 350
L 118 350
L 119 350
L 120 350
L 121 350
L 122 350
L 122 351
L 123 351
L 124 350
L 125 350
L 126 350
L 127 350
L 128 350
L 129 350
L 130 350
L 131 351
L 132 351
L 133 351
L 134 351
L 135 351
L 136 351
L 137 351
L 138 351
L 139 351
L 140 351
L 141 350
L 142 350
L 143 350
L 144 350
L 145 350
L 146 350
L 147 350
L 148 351
L 149 351
L 150 351
L 151 351
L 152 351
L 153 351
L 154 351
L 155 351
L 156 351
L 157 351
L 158 351
L 159 351
L 160 351
L 161 351
L 162 351
L 163 351
L 164 351
L 165 351
L 166 351
L 167 351
L 168 351
L 169 350
L 170 350
L 171 350
L 172 350
L 173 350
L 174 350
L 175 350
L 176 350
L 177 351
L 178 351
L 179 351
L 180 351
L 181 351
L 182 351
L 183 351
L 184 350
L 185 350
L 186 350
L 187 350
L 188 350
L 189 350
L 190 349
L 191 349
L 192 349
L 193 349
L 194 350
L 195 350
L 196 350
L 197 350
L 198 351
L 199 351
L 200 351
L 201 351
L 202 350
L 203 350
L 204 350
L 205 350
L 206 350
L 206 350
L 207 350
L 208 350
L 209 350
L 210 350
L 211 350
L 212 350
L 213 350
L 214 350
L 215 350
L 216 350
L 217 350
L 218 350
L 219 350
L 220 350
L 221 349
L 222 349
L 223 349
L 224 349
L 225 349
L 226 349
L 227 349
L 228 349
L 229 349
L 230 349
L 231 349
L 232 349
L 233 349
L 234 349
L 235 349
L 236 349
L 237 349
L 238 349
L 239 349
L 240 349
L 241 349
L 242 349
L 243 349
L 244 348
L 245 348
L 246 347
L 247 347
L 248 347
L 249 348
L 250 347
L 251 348
L 252 348
L 253 348
L 254 348
L 255 348
L 256 348
L 257 348
L 258 348
L 259 348
L 260 348
L 261 349
L 262 349
L 263 349
L 264 349
L 265 349
L 266 348
L 267 347
L 268 346
L 269 346
L 270 346
L 271 345
L 272 345
L 273 345
L 274 345
L 275 343
L 276 341
L 277 341
L 278 339
L 279 339
L 280 339
L 281 334
L 282 333
L 283 325
L 284 324
L 285 320
L 286 316
L 287 308
L 288 306
L 289 306
L 290 303
L 290 300
L 291 300
L 292 301
L 293 301
L 294 302
L 295 298
L 296 304
L 297 300
L 298 302
L 299 295
L 300 300
L 301 304
L 302 302
L 303 304
L 304 305
L 305 306
L 306 310
L 307 312
L 308 312
L 309 320
L 310 321
L 311 325
L 312 327
L 313 329
L 314 328
L 315 327
L 316 328
L 317 330
L 318 327
L 319 326
L 320 329
L 321 331
L 322 333
L 323 334
L 324 336
L 325 339
L 326 338
L 327 336
L 328 338
L 329 336
L 330 336
L 331 334
L 332 335
L 333 336
L 334 337
L 335 335
L 336 335
L 337 335
L 338 336
L 339 337
L 340 337
L 341 336
L 342 335
L 343 337
L 344 335
L 345 332
L 346 329
L 347 330
L 348 327
L 349 328
L 350 324
L 351 324
L 352 326
L 353 327
L 354 327
L 355 331
L 356 333
L 357 336
L 358 338
L 359 338
L 360 335
L 361 334
L 362 331
L 363 331
L 364 333
L 365 332
L 366 334
L 367 338
L 368 339
L 369 341
L 370 341
L 371 340
L 372 341
L 373 341
L 374 341
L 374 341
L 375 341
L 376 341
L 377 341
L 378 342
L 379 342
L 380 342
L 381 342
L 382 343
L 383 343
L 384 343
L 385 342
L 386 342
L 387 343
L 388 342
L 389 341
L 390 342
L 391 342
L 392 343
L 393 343
L 394 342
L 395 343
L 396 343
L 397 343
L 398 342
L 399 342
L 400 342
L 401 343
L 402 341
L 403 341
L 404 340
L 405 339
L 406 339
L 407 338
L 408 338
L 409 339
L 410 339
L 411 340
L 412 341
L 413 341
L 414 342
L 415 342
L 416 341
L 417 341
L 418 339
L 419 338
L 420 337
L 421 334
L 422 334
L 423 335
L 424 336
L 425 337
L 426 336
L 427 336
L 428 336
L 429 335
L 430 335
L 431 333
L 432 332
L 433 333
L 434 334
L 435 336
L 436 336
L 437 337
L 438 338
L 439 340
L 440 339
L 441 339
L 442 339
L 443 340
L 444 340
L 445 339
L 446 341
L 447 341
L 448 342
L 449 341
L 450 340
L 451 340
L 452 341
L 453 339
L 454 338
L 455 337
L 456 339
L 457 340
L 458 341
L 458 341
L 459 341
L 460 342
L 461 343
L 462 343
L 463 343
L 464 342
L 465 343
L 466 344
L 467 345
L 468 346
L 469 346
L 470 347
L 471 347
L 472 347
L 473 347
L 474 345
L 475 345
L 476 345
L 477 344
L 478 344
L 479 343
L 480 343
L 481 343
L 482 343
L 483 343
L 484 343
L 485 344
L 486 345
L 487 346
L 488 347
L 489 347
L 490 348
L 491 349
L 492 349
L 493 349
L 494 349
L 495 349
L 496 350
L 497 350
L 498 350
L 499 350
L 500 350
L 501 350
L 502 350
L 503 351
L 504 351
L 505 351
L 506 351
L 507 350
L 508 350
L 509 350
L 510 350
L 511 350
L 512 350
L 513 350
L 514 350
L 515 350
L 516 350
L 517 350
L 518 350
L 519 350
L 520 351
L 521 351
L 522 351
L 523 351
L 524 351
L 525 351
L 526 351
L 527 351
L 528 350
L 529 350
L 530 350
L 531 350
L 532 350
L 533 350
L 534 350
L 535 350
L 536 350
L 537 350
L 538 350
L 539 350
L 540 350
L 541 349
L 542 349
L 542 349
L 543 349
L 544 348
L 545 348
L 546 348
L 547 348
L 548 348
L 549 347
L 550 346
L 551 346
L 552 346
L 553 345
L 554 345
L 555 345
L 556 345
L 557 345
L 558 345
L 559 344
L 560 345
L 561 345
L 562 345
L 563 345
L 564 346
L 565 346
L 566 347
L 567 348
L 568 348
L 569 348
L 570 348
L 571 348
L 572 348
L 573 348
L 574 348
L 575 348
L 576 347
L 577 347
L 578 347
L 579 346
L 580 345
L 581 345
L 582 345
L 583 345
L 584 344
L 585 344
L 586 342
L 587 340
L 588 340
L 589 340
L 590 339
L 591 340
L 592 339
L 593 340
L 594 340
L 595 339
L 596 339
L 597 339
L 598 338
L 599 339
L 600 339
L 601 340
L 602 341
L 603 342
L 604 342
L 605 343
L 606 344
L 607 345
L 608 345
L 609 346
L 610 346
L 611 346
L 612 347
L 613 347
L 614 347
L 615 347
L 616 347
L 617 347
L 618 347
L 619 346
L 620 346
L 621 346
L 622 345
L 623 344
L 624 344
L 625 344
L 626 343
L 626 342
L 627 340
L 628 337
L 629 336
L 630 333
L 631 331
L 632 329
L 633 327
L 634 326
L 635 326
L 636 323
L 637 324
L 638 323
L 639 323
L 640 323
L 641 323
L 642 324
L 643 325
L 644 326
L 645 325
L 646 323
L 647 319
L 648 318
L 649 314
L 650 311
L 651 309
L 652 300
L 653 298
L 654 293
L 655 291
L 656 289
L 657 280
L 658 276
L 659 270
L 660 274
L 661 269
L 662 256
L 663 250
L 664 249
L 665 243
L 666 253
L 667 244
L 668 250
L 669 254
L 670 257
L 671 262
L 672 268
L 673 267
L 674 269
L 675 272
L 676 278
L 677 285
L 678 288
L 679 290
L 680 293
L 681 297
L 682 301
L 683 301
L 684 303
L 685 307
L 686 308
L 687 309
L 688 314
L 689 314
L 690 316
L 691 318
L 692 318
L 693 318
L 694 318
L 695 316
L 696 317
L 697 319
L 698 317
L 699 317
L 700 317
L 701 315
L 702 311
L 703 307
L 704 296
L 705 290
L 706 273
L 707 257
L 708 235
L 709 191
L 710 167
L 710 132
L 711 125
L 712 89
L 713 63
L 714 42
L 715 61
L 716 35
L 717 42
L 718 17
L 719 45
L 720 51
L 721 59
L 722 35
L 723 54
L 724 51
L 725 60
L 726 60
L 727 81
L 728 89
L 729 102
L 730 98
L 731 113
L 732 119
L 733 113
L 734 112
L 735 114
L 736 131
L 737 136
L 738 127
L 739 129
L 740 133
L 741 130
L 742 137
L 743 134
L 744 154
L 745 149
L 746 155
L 747 168
L 748 176
L 749 179
L 750 185
L 751 185
L 752 200
L 753 205
L 754 203
L 755 203
L 756 196
L 757 195
L 758 185
L 759 186
L 760 180
L 761 175
L 762 171
L 763 168
L 764 163
L 765 155
L 766 153
L 767 146
L 768 150
L 769 151
L 770 149
L 771 151
L 772 150
L 773 145
L 774 148
L 775 143
L 776 138
L 777 140
L 778 134
L 779 140
L 780 147
L 781 144
L 782 150
L 783 154
L 784 149
L 785 142
L 786 157
L 787 160
L 788 160
L 789 167
L 790 170
L 791 185
L 792 208
L 793 206
L 794 216
L 794 238
L 795 242
L 796 250
L 797 262
L 798 272
L 799 283
L 800 289
L 801 292
L 802 296
L 803 299
L 804 303
L 805 307
L 806 311
L 807 315
L 808 320
L 809 322
L 810 325
L 811 326
L 812 324
L 813 325
L 814 325
L 815 325
L 816 326
L 817 324
L 818 325
L 819 328
L 820 328
L 821 328
L 822 326
L 823 326
L 824 327
L 825 326
L 826 327
L 827 326
L 828 326
L 829 329
L 830 328
L 831 329
L 832 329
L 833 330
L 834 331
L 835 330
L 836 329
L 837 332
L 838 332
L 839 333
L 840 333
L 841 334
L 842 335
L 843 336
L 844 336
L 845 337
L 846 337
L 847 338
L 848 337
L 849 339
L 850 340
L 851 339
L 852 339
L 853 340
L 854 340
L 855 341
L 856 340
L 857 340
L 858 340
L 859 339
L 860 341
L 861 340
L 862 339
L 863 338
L 864 338
L 865 338
L 866 337
L 867 334
L 868 332
L 869 333
L 870 331
L 871 329
L 872 328
L 873 328
L 874 326
L 875 326
L 876 324
L 877 322
L 878 322
L 878 321
L 879 319
L 880 318
L 881 314
L 882 313
L 883 313
L 884 310
L 885 309
L 886 309
L 887 304
L 888 304
L 889 302
L 890 301
L 891 300
L 892 301
L 893 302
L 894 304
L 895 302
L 896 299
L 897 298
L 898 295
L 899 293
L 900 291
L 901 289
L 902 289
L 903 291
L 904 291
L 905 293
L 906 295
L 907 296
L 908 297
L 909 299
L 910 304
L 911 307
L 912 309
L 913 310
L 914 313
L 915 315
L 916 317
L 917 315
L 918 316
L 919 317
L 920 316
L 921 315
L 922 316
L 923 316
L 924 317
L 925 316
L 926 315
L 927 317
L 928 317
L 929 321
L 930 321
L 931 320
L 932 321
L 933 324
L 934 322
L 935 322
L 936 319
L 937 321
L 938 323
L 939 324
L 940 324
L 941 325
L 942 326
L 943 328
L 944 329
L 945 329
L 946 329
L 947 329
L 948 329
L 949 329
L 950 332
L 951 331
L 952 330
L 953 330
L 954 331
L 955 331
L 956 331
L 957 329
L 958 328
L 959 329
L 960 328
L 961 327
L 961 326" style="stroke-width:1;stroke:rgba(0,116,217,1.0);fill:none"/><path  d="M 38 351
L 39 351
L 40 351
L 41 351
L 42 351
L 43 351
L 44 351
L 45 351
L 46 350
L 47 351
L 48 351
L 49 351
L 50 351
L 51 351
L 52 351
L 53 350
L 54 351
L 55 350
L 56 350
L 57 350
L 58 350
L 59 350
L 60 349
L 61 349
L 62 348
L 63 350
L 64 349
L 65 349
L 66 348
L 67 350
L 68 348
L 69 349
L 70 348
L 71 349
L 72 349
L 73 349
L 74 349
L 75 349
L 76 350
L 77 350
L 78 350
L 79 350
L 80 350
L 81 350
L 82 350
L 83 350
L 84 351
L 85 350
L 86 350
L 87 350
L 88 351
L 89 350
L 90 350
L 91 351
L 92 351
L 93 351
L 94 351
L 95 350
L 96 350
L 97 350
L 98 351
L 99 351
L 100 350
L 101 350
L 102 350
L 103 351
L 104 351
L 105 351
L 106 351
L 107 351
L 108 351
L 109 351
L 110 351
L 111 351
L 112 351
L 113 351
L 114 351
L 115 351
L 116 350
L 117 351
L 118 351
L 119 351
L 120 351
L 121 351
L 122 351
L 122 351
L 123 351
L 124 350
L 125 351
L 126 351
L 127 351
L 128 351
L 129 351
L 130 351
L 131 351
L 132 351
L 133 351
L 134 351
L 135 351
L 136 351
L 137 351
L 138 351
L 139 351
L 140 351
L 141 350
L 142 351
L 143 351
L 144 351
L 145 351
L 146 351
L 147 351
L 148 351
L 149 351
L 150 351
L 151 351
L 152 351
L 153 351
L 154 351
L 155 351
L 156 351
L 157 351
L 158 351
L 159 351
L 160 351
L 161 351
L 162 351
L 163 351
L 164 351
L 165 351
L 166 351
L 167 351
L 168 351
L 169 350
L 170 350
L 171 351
L 172 351
L 173 351
L 174 351
L 175 351
L 176 351
L 177 351
L 178 351
L 179 351
L 180 351
L 181 351
L 182 351
L 183 351
L 184 350
L 185 351
L 186 350
L 187 350
L 188 351
L 189 350
L 190 350
L 191 350
L 192 351
L 193 351
L 194 351
L 195 351
L 196 351
L 197 351
L 198 351
L 199 351
L 200 351
L 201 351
L 202 350
L 203 351
L 204 351
L 205 350
L 206 350
L 206 351
L 207 350
L 208 351
L 209 351
L 210 351
L 211 351
L 212 350
L 213 351
L 214 351
L 215 350
L 216 351
L 217 350
L 218 351
L 219 351
L 220 350
L 221 350
L 222 350
L 223 350
L 224 350
L 225 350
L 226 350
L 227 350
L 228 351
L 229 351
L 230 350
L 231 350
L 232 350
L 233 350
L 234 350
L 235 350
L 236 351
L 237 350
L 238 350
L 239 351
L 240 350
L 241 350
L 242 350
L 243 351
L 244 350
L 245 350
L 246 350
L 247 350
L 248 350
L 249 350
L 250 350
L 251 350
L 252 350
L 253 350
L 254 350
L 255 350
L 256 350
L 257 350
L 258 351
L 259 350
L 260 350
L 261 350
L 262 350
L 263 350
L 264 351
L 265 350
L 266 349
L 267 350
L 268 350
L 269 350
L 270 350
L 271 350
L 272 350
L 273 349
L 274 350
L 275 349
L 276 349
L 277 350
L 278 349
L 279 350
L 280 349
L 281 347
L 282 348
L 283 344
L 284 349
L 285 346
L 286 348
L 287 344
L 288 345
L 289 348
L 290 342
L 290 347
L 291 346
L 292 348
L 293 344
L 294 346
L 295 345
L 296 346
L 297 345
L 298 348
L 299 344
L 300 347
L 301 349
L 302 344
L 303 347
L 304 346
L 305 348
L 306 347
L 307 348
L 308 349
L 309 348
L 310 348
L 311 349
L 312 350
L 313 348
L 314 347
L 315 348
L 316 349
L 317 349
L 318 347
L 319 349
L 320 350
L 321 348
L 322 350
L 323 350
L 324 350
L 325 349
L 326 349
L 327 349
L 328 349
L 329 348
L 330 349
L 331 349
L 332 349
L 333 349
L 334 349
L 335 348
L 336 349
L 337 349
L 338 350
L 339 350
L 340 349
L 341 349
L 342 348
L 343 349
L 344 348
L 345 348
L 346 349
L 347 349
L 348 347
L 349 348
L 350 347
L 351 348
L 352 349
L 353 349
L 354 350
L 355 350
L 356 349
L 357 349
L 358 349
L 359 349
L 360 347
L 361 349
L 362 348
L 363 350
L 364 350
L 365 349
L 366 350
L 367 350
L 368 350
L 369 349
L 370 349
L 371 349
L 372 350
L 373 350
L 374 350
L 374 350
L 375 349
L 376 349
L 377 350
L 378 350
L 379 350
L 380 350
L 381 350
L 382 350
L 383 350
L 384 350
L 385 349
L 386 350
L 387 350
L 388 350
L 389 349
L 390 350
L 391 350
L 392 350
L 393 350
L 394 349
L 395 350
L 396 349
L 397 350
L 398 349
L 399 349
L 400 350
L 401 350
L 402 349
L 403 349
L 404 349
L 405 349
L 406 349
L 407 349
L 408 349
L 409 350
L 410 349
L 411 350
L 412 350
L 413 349
L 414 350
L 415 350
L 416 349
L 417 349
L 418 349
L 419 349
L 420 349
L 421 348
L 422 350
L 423 349
L 424 350
L 425 349
L 426 349
L 427 349
L 428 348
L 429 349
L 430 349
L 431 349
L 432 348
L 433 350
L 434 350
L 435 350
L 436 349
L 437 349
L 438 350
L 439 349
L 440 349
L 441 349
L 442 349
L 443 350
L 444 349
L 445 349
L 446 350
L 447 350
L 448 350
L 449 349
L 450 350
L 451 349
L 452 350
L 453 349
L 454 349
L 455 349
L 456 350
L 457 350
L 458 350
L 458 350
L 459 349
L 460 350
L 461 350
L 462 350
L 463 350
L 464 350
L 465 350
L 466 350
L 467 351
L 468 350
L 469 350
L 470 350
L 471 350
L 472 350
L 473 350
L 474 349
L 475 350
L 476 350
L 477 350
L 478 350
L 479 350
L 480 350
L 481 350
L 482 350
L 483 350
L 484 350
L 485 350
L 486 350
L 487 350
L 488 350
L 489 350
L 490 351
L 491 351
L 492 350
L 493 350
L 494 350
L 495 350
L 496 350
L 497 351
L 498 351
L 499 351
L 500 351
L 501 351
L 502 351
L 503 351
L 504 351
L 505 351
L 506 351
L 507 350
L 508 351
L 509 351
L 510 351
L 511 350
L 512 351
L 513 350
L 514 351
L 515 351
L 516 351
L 517 351
L 518 351
L 519 351
L 520 351
L 521 351
L 522 351
L 523 351
L 524 351
L 525 351
L 526 351
L 527 351
L 528 350
L 529 351
L 530 350
L 531 350
L 532 350
L 533 351
L 534 351
L 535 350
L 536 350
L 537 350
L 538 350
L 539 350
L 540 350
L 541 350
L 542 350
L 542 351
L 543 350
L 544 350
L 545 350
L 546 350
L 547 350
L 548 350
L 549 350
L 550 350
L 551 350
L 552 350
L 553 350
L 554 350
L 555 350
L 556 350
L 557 350
L 558 350
L 559 350
L 560 350
L 561 350
L 562 351
L 563 350
L 564 350
L 565 350
L 566 350
L 567 350
L 568 350
L 569 350
L 570 350
L 571 350
L 572 350
L 573 350
L 574 350
L 575 350
L 576 350
L 577 350
L 578 350
L 579 350
L 580 350
L 581 350
L 582 350
L 583 350
L 584 349
L 585 350
L 586 349
L 587 349
L 588 350
L 589 350
L 590 350
L 591 350
L 592 349
L 593 349
L 594 349
L 595 349
L 596 349
L 597 350
L 598 349
L 599 350
L 600 349
L 601 350
L 602 350
L 603 350
L 604 350
L 605 350
L 606 350
L 607 350
L 608 350
L 609 350
L 610 350
L 611 350
L 612 350
L 613 350
L 614 350
L 615 350
L 616 350
L 617 350
L 618 350
L 619 350
L 620 350
L 621 350
L 622 349
L 623 350
L 624 350
L 625 350
L 626 350
L 626 349
L 627 348
L 628 348
L 629 349
L 630 348
L 631 349
L 632 348
L 633 348
L 634 348
L 635 348
L 636 347
L 637 349
L 638 349
L 639 348
L 640 348
L 641 348
L 642 348
L 643 348
L 644 349
L 645 348
L 646 347
L 647 345
L 648 348
L 649 345
L 650 346
L 651 348
L 652 342
L 653 345
L 654 342
L 655 347
L 656 343
L 657 341
L 658 345
L 659 339
L 660 348
L 661 339
L 662 338
L 663 339
L 664 340
L 665 341
L 666 345
L 667 342
L 668 342
L 669 341
L 670 341
L 671 343
L 672 345
L 673 345
L 674 343
L 675 344
L 676 346
L 677 345
L 678 345
L 679 346
L 680 347
L 681 345
L 682 347
L 683 346
L 684 347
L 685 348
L 686 347
L 687 348
L 688 348
L 689 347
L 690 347
L 691 348
L 692 347
L 693 347
L 694 348
L 695 347
L 696 347
L 697 349
L 698 346
L 699 347
L 700 347
L 701 347
L 702 344
L 703 345
L 704 342
L 705 342
L 706 336
L 707 337
L 708 333
L 709 315
L 710 329
L 710 319
L 711 337
L 712 313
L 713 320
L 714 319
L 715 327
L 716 312
L 717 324
L 718 321
L 719 331
L 720 324
L 721 324
L 722 312
L 723 324
L 724 322
L 725 326
L 726 331
L 727 338
L 728 329
L 729 320
L 730 322
L 731 332
L 732 330
L 733 327
L 734 337
L 735 330
L 736 332
L 737 325
L 738 326
L 739 332
L 740 330
L 741 335
L 742 335
L 743 330
L 744 338
L 745 323
L 746 335
L 747 338
L 748 340
L 749 337
L 750 334
L 751 338
L 752 333
L 753 338
L 754 337
L 755 341
L 756 332
L 757 333
L 758 331
L 759 334
L 760 334
L 761 334
L 762 337
L 763 330
L 764 330
L 765 326
L 766 333
L 767 329
L 768 337
L 769 339
L 770 329
L 771 331
L 772 326
L 773 329
L 774 331
L 775 333
L 776 336
L 777 330
L 778 327
L 779 329
L 780 334
L 781 329
L 782 337
L 783 338
L 784 327
L 785 323
L 786 339
L 787 336
L 788 329
L 789 342
L 790 340
L 791 336
L 792 338
L 793 337
L 794 342
L 794 343
L 795 345
L 796 346
L 797 344
L 798 345
L 799 345
L 800 346
L 801 345
L 802 347
L 803 347
L 804 347
L 805 347
L 806 348
L 807 348
L 808 349
L 809 349
L 810 349
L 811 348
L 812 346
L 813 348
L 814 349
L 815 348
L 816 349
L 817 348
L 818 348
L 819 348
L 820 348
L 821 349
L 822 347
L 823 349
L 824 349
L 825 348
L 826 348
L 827 348
L 828 349
L 829 349
L 830 348
L 831 349
L 832 348
L 833 349
L 834 348
L 835 348
L 836 348
L 837 350
L 838 349
L 839 349
L 840 349
L 841 349
L 842 349
L 843 349
L 844 350
L 845 350
L 846 349
L 847 350
L 848 348
L 849 350
L 850 350
L 851 349
L 852 350
L 853 349
L 854 350
L 855 349
L 856 350
L 857 350
L 858 349
L 859 350
L 860 350
L 861 349
L 862 348
L 863 349
L 864 349
L 865 350
L 866 349
L 867 348
L 868 348
L 869 348
L 870 348
L 871 348
L 872 348
L 873 349
L 874 347
L 875 348
L 876 347
L 877 347
L 878 348
L 878 348
L 879 348
L 880 346
L 881 346
L 882 346
L 883 347
L 884 346
L 885 347
L 886 348
L 887 343
L 888 346
L 889 345
L 890 346
L 891 346
L 892 347
L 893 348
L 894 344
L 895 345
L 896 343
L 897 345
L 898 344
L 899 346
L 900 347
L 901 343
L 902 345
L 903 344
L 904 345
L 905 346
L 906 347
L 907 347
L 908 344
L 909 346
L 910 348
L 911 347
L 912 347
L 913 348
L 914 349
L 915 346
L 916 347
L 917 346
L 918 348
L 919 348
L 920 348
L 921 349
L 922 346
L 923 347
L 924 347
L 925 347
L 926 347
L 927 349
L 928 349
L 929 348
L 930 347
L 931 347
L 932 348
L 933 348
L 934 348
L 935 348
L 936 346
L 937 348
L 938 348
L 939 349
L 940 348
L 941 349
L 942 349
L 943 347
L 944 349
L 945 348
L 946 348
L 947 348
L 948 349
L 949 349
L 950 349
L 951 349
L 952 347
L 953 349
L 954 348
L 955 349
L 956 349
L 957 348
L 958 348
L 959 348
L 960 348
L 961 348
L 961 349" style="stroke-width:1;stroke:rgba(0,217,101,1.0);fill:none"/><path  d="M 38 351
L 39 351
L 40 351
L 41 351
L 42 351
L 43 351
L 44 351
L 45 351
L 46 351
L 47 351
L 48 351
L 49 351
L 50 351
L 51 351
L 52 351
L 53 351
L 54 351
L 55 351
L 56 351
L 57 351
L 58 351
L 59 351
L 60 351
L 61 351
L 62 351
L 63 351
L 64 350
L 65 350
L 66 351
L 67 350
L 68 351
L 69 351
L 70 351
L 71 350
L 72 350
L 73 351
L 74 351
L 75 351
L 76 351
L 77 351
L 78 351
L 79 350
L 80 350
L 81 351
L 82 351
L 83 351
L 84 351
L 85 351
L 86 351
L 87 350
L 88 351
L 89 351
L 90 351
L 91 351
L 92 351
L 93 350
L 94 350
L 95 351
L 96 351
L 97 351
L 98 351
L 99 351
L 100 351
L 101 351
L 102 351
L 103 351
L 104 351
L 105 351
L 106 351
L 107 351
L 108 351
L 109 351
L 110 351
L 111 351
L 112 351
L 113 351
L 114 351
L 115 351
L 116 351
L 117 351
L 118 351
L 119 351
L 120 351
L 121 351
L 122 351
L 122 351
L 123 351
L 124 351
L 125 351
L 126 351
L 127 351
L 128 351
L 129 351
L 130 351
L 131 351
L 132 351
L 133 351
L 134 351
L 135 351
L 136 351
L 137 351
L 138 351
L 139 351
L 140 351
L 141 351
L 142 351
L 143 351
L 144 351
L 145 351
L 146 351
L 147 351
L 148 351
L 149 351
L 150 351
L 151 351
L 152 351
L 153 351
L 154 351
L 155 351
L 156 351
L 157 351
L 158 351
L 159 351
L 160 351
L 161 351
L 162 351
L 163 351
L 164 351
L 165 351
L 166 351
L 167 351
L 168 350
L 169 351
L 170 351
L 171 351
L 172 351
L 173 351
L 174 351
L 175 351
L 176 351
L 177 351
L 178 351
L 179 351
L 180 351
L 181 351
L 182 351
L 183 351
L 184 351
L 185 351
L 186 351
L 187 351
L 188 351
L 189 351
L 190 351
L 191 351
L 192 351
L 193 351
L 194 351
L 195 351
L 196 351
L 197 351
L 198 351
L 199 351
L 200 351
L 201 351
L 202 351
L 203 351
L 204 351
L 205 351
L 206 351
L 206 351
L 207 351
L 208 351
L 209 351
L 210 351
L 211 351
L 212 351
L 213 351
L 214 351
L 215 351
L 216 351
L 217 351
L 218 351
L 219 351
L 220 351
L 221 351
L 222 351
L 223 351
L 224 351
L 225 350
L 226 351
L 227 351
L 228 350
L 229 351
L 230 351
L 231 351
L 232 351
L 233 351
L 234 351
L 235 351
L 236 351
L 237 351
L 238 351
L 239 351
L 240 351
L 241 351
L 242 351
L 243 351
L 244 351
L 245 351
L 246 351
L 247 351
L 248 351
L 249 351
L 250 351
L 251 351
L 252 351
L 253 351
L 254 351
L 255 351
L 256 351
L 257 351
L 258 351
L 259 351
L 260 351
L 261 351
L 262 351
L 263 351
L 264 351
L 265 351
L 266 351
L 267 351
L 268 351
L 269 351
L 270 351
L 271 351
L 272 351
L 273 351
L 274 351
L 275 351
L 276 351
L 277 351
L 278 351
L 279 351
L 280 351
L 281 351
L 282 351
L 283 351
L 284 351
L 285 351
L 286 351
L 287 350
L 288 351
L 289 351
L 290 351
L 290 351
L 291 351
L 292 350
L 293 351
L 294 350
L 295 351
L 296 350
L 297 350
L 298 351
L 299 351
L 300 350
L 301 351
L 302 351
L 303 351
L 304 351
L 305 351
L 306 351
L 307 350
L 308 350
L 309 350
L 310 350
L 311 350
L 312 350
L 313 350
L 314 351
L 315 351
L 316 351
L 317 350
L 318 351
L 319 350
L 320 351
L 321 350
L 322 351
L 323 350
L 324 351
L 325 351
L 326 350
L 327 350
L 328 350
L 329 351
L 330 350
L 331 351
L 332 351
L 333 351
L 334 350
L 335 351
L 336 351
L 337 351
L 338 351
L 339 351
L 340 351
L 341 351
L 342 350
L 343 351
L 344 351
L 345 350
L 346 351
L 347 351
L 348 351
L 349 351
L 350 351
L 351 350
L 352 350
L 353 351
L 354 350
L 355 351
L 356 351
L 357 351
L 358 350
L 359 350
L 360 351
L 361 351
L 362 351
L 363 351
L 364 350
L 365 350
L 366 350
L 367 351
L 368 351
L 369 351
L 370 350
L 371 351
L 372 351
L 373 351
L 374 351
L 374 350
L 375 350
L 376 351
L 377 351
L 378 351
L 379 351
L 380 351
L 381 351
L 382 351
L 383 351
L 384 351
L 385 351
L 386 351
L 387 351
L 388 350
L 389 351
L 390 351
L 391 351
L 392 351
L 393 351
L 394 350
L 395 351
L 396 351
L 397 350
L 398 351
L 399 351
L 400 351
L 401 350
L 402 351
L 403 351
L 404 351
L 405 351
L 406 351
L 407 351
L 408 351
L 409 351
L 410 351
L 411 351
L 412 351
L 413 351
L 414 351
L 415 351
L 416 351
L 417 351
L 418 350
L 419 351
L 420 351
L 421 350
L 422 351
L 423 351
L 424 351
L 425 351
L 426 351
L 427 351
L 428 351
L 429 351
L 430 351
L 431 351
L 432 350
L 433 351
L 434 351
L 435 351
L 436 350
L 437 350
L 438 351
L 439 351
L 440 350
L 441 351
L 442 351
L 443 350
L 444 351
L 445 351
L 446 351
L 447 351
L 448 351
L 449 351
L 450 351
L 451 351
L 452 351
L 453 351
L 454 351
L 455 351
L 456 350
L 457 351
L 458 350
L 458 351
L 459 350
L 460 350
L 461 351
L 462 351
L 463 351
L 464 351
L 465 351
L 466 351
L 467 351
L 468 351
L 469 351
L 470 351
L 471 351
L 472 351
L 473 351
L 474 351
L 475 351
L 476 351
L 477 351
L 478 351
L 479 351
L 480 351
L 481 351
L 482 351
L 483 351
L 484 351
L 485 351
L 486 351
L 487 351
L 488 351
L 489 351
L 490 351
L 491 350
L 492 351
L 493 351
L 494 351
L 495 351
L 496 351
L 497 351
L 498 351
L 499 351
L 500 351
L 501 351
L 502 351
L 503 351
L 504 351
L 505 351
L 506 351
L 507 351
L 508 351
L 509 351
L 510 351
L 511 351
L 512 351
L 513 351
L 514 351
L 515 351
L 516 351
L 517 351
L 518 351
L 519 351
L 520 351
L 521 351
L 522 351
L 523 351
L 524 351
L 525 351
L 526 351
L 527 351
L 528 351
L 529 351
L 530 351
L 531 351
L 532 351
L 533 351
L 534 351
L 535 351
L 536 351
L 537 351
L 538 351
L 539 351
L 540 351
L 541 351
L 542 351
L 542 351
L 543 351
L 544 351
L 545 351
L 546 351
L 547 351
L 548 351
L 549 351
L 550 351
L 551 351
L 552 351
L 553 351
L 554 351
L 555 351
L 556 351
L 557 351
L 558 351
L 559 351
L 560 351
L 561 351
L 562 351
L 563 351
L 564 351
L 565 351
L 566 351
L 567 351
L 568 351
L 569 351
L 570 351
L 571 351
L 572 351
L 573 351
L 574 351
L 575 351
L 576 351
L 577 351
L 578 351
L 579 351
L 580 351
L 581 351
L 582 351
L 583 351
L 584 351
L 585 351
L 586 351
L 587 351
L 588 351
L 589 351
L 590 351
L 591 351
L 592 351
L 593 351
L 594 351
L 595 351
L 596 351
L 597 351
L 598 351
L 599 351
L 600 351
L 601 351
L 602 351
L 603 351
L 604 351
L 605 351
L 606 351
L 607 351
L 608 350
L 609 351
L 610 350
L 611 351
L 612 351
L 613 351
L 614 351
L 615 351
L 616 351
L 617 351
L 618 351
L 619 351
L 620 351
L 621 351
L 622 351
L 623 351
L 624 351
L 625 351
L 626 351
L 626 351
L 627 351
L 628 351
L 629 351
L 630 351
L 631 351
L 632 351
L 633 351
L 634 351
L 635 351
L 636 351
L 637 351
L 638 350
L 639 351
L 640 351
L 641 351
L 642 351
L 643 351
L 644 351
L 645 351
L 646 351
L 647 351
L 648 351
L 649 351
L 650 351
L 651 351
L 652 351
L 653 351
L 654 351
L 655 351
L 656 350
L 657 351
L 658 351
L 659 351
L 660 350
L 661 351
L 662 351
L 663 351
L 664 351
L 665 351
L 666 351
L 667 350
L 668 350
L 669 350
L 670 351
L 671 351
L 672 351
L 673 351
L 674 350
L 675 350
L 676 351
L 677 350
L 678 350
L 679 350
L 680 351
L 681 351
L 682 351
L 683 351
L 684 351
L 685 351
L 686 351
L 687 351
L 688 351
L 689 351
L 690 351
L 691 351
L 692 351
L 693 351
L 694 350
L 695 351
L 696 351
L 697 351
L 698 351
L 699 351
L 700 351
L 701 351
L 702 351
L 703 350
L 704 351
L 705 351
L 706 351
L 707 351
L 708 351
L 709 351
L 710 351
L 710 351
L 711 351
L 712 351
L 713 351
L 714 351
L 715 351
L 716 351
L 717 351
L 718 351
L 719 351
L 720 351
L 721 351
L 722 351
L 723 351
L 724 351
L 725 351
L 726 351
L 727 351
L 728 351
L 729 351
L 730 351
L 731 351
L 732 351
L 733 351
L 734 351
L 735 351
L 736 351
L 737 351
L 738 351
L 739 351
L 740 351
L 741 350
L 742 351
L 743 351
L 744 351
L 745 350
L 746 351
L 747 351
L 748 351
L 749 351
L 750 351
L 751 351
L 752 351
L 753 351
L 754 351
L 755 351
L 756 351
L 757 351
L 758 351
L 759 351
L 760 351
L 761 351
L 762 351
L 763 351
L 764 351
L 765 351
L 766 351
L 767 351
L 768 351
L 769 351
L 770 351
L 771 351
L 772 351
L 773 351
L 774 351
L 775 351
L 776 351
L 777 351
L 778 351
L 779 351
L 780 351
L 781 351
L 782 351
L 783 351
L 784 351
L 785 351
L 786 351
L 787 351
L 788 351
L 789 350
L 790 351
L 791 351
L 792 351
L 793 350
L 794 351
L 794 351
L 795 351
L 796 351
L 797 351
L 798 351
L 799 351
L 800 351
L 801 351
L 802 351
L 803 351
L 804 351
L 805 351
L 806 351
L 807 351
L 808 350
L 809 351
L 810 351
L 811 351
L 812 351
L 813 351
L 814 351
L 815 351
L 816 351
L 817 351
L 818 351
L 819 351
L 820 351
L 821 351
L 822 351
L 823 351
L 824 351
L 825 351
L 826 351
L 827 351
L 828 351
L 829 351
L 830 351
L 831 351
L 832 351
L 833 351
L 834 351
L 835 351
L 836 351
L 837 351
L 838 351
L 839 351
L 840 351
L 841 351
L 842 351
L 843 351
L 844 351
L 845 351
L 846 351
L 847 351
L 848 351
L 849 351
L 850 351
L 851 351
L 852 351
L 853 351
L 854 351
L 855 351
L 856 351
L 857 351
L 858 351
L 859 351
L 860 351
L 861 351
L 862 351
L 863 351
L 864 351
L 865 351
L 866 351
L 867 351
L 868 351
L 869 351
L 870 351
L 871 351
L 872 351
L 873 351
L 874 351
L 875 351
L 876 351
L 877 351
L 878 351
L 878 351
L 879 351
L 880 350
L 881 351
L 882 350
L 883 351
L 884 351
L 885 351
L 886 351
L 887 351
L 888 351
L 889 351
L 890 351
L 891 351
L 892 351
L 893 351
L 894 351
L 895 351
L 896 351
L 897 351
L 898 351
L 899 351
L 900 351
L 901 351
L 902 351
L 903 351
L 904 351
L 905 351
L 906 351
L 907 351
L 908 351
L 909 351
L 910 351
L 911 351
L 912 351
L 913 351
L 914 351
L 915 351
L 916 351
L 917 351
L 918 351
L 919 351
L 920 351
L 921 351
L 922 351
L 923 351
L 924 351
L 925 351
L 926 351
L 927 351
L 928 351
L 929 351
L 930 351
L 931 351
L 932 351
L 933 351
L 934 351
L 935 351
L 936 351
L 937 351
L 938 351
L 939 351
L 940 351
L 941 351
L 942 351
L 943 351
L 944 351
L 945 351
L 946 351
L 947 351
L 948 351
L 949 351
L 950 351
L 951 351
L 952 351
L 953 351
L 954 351
L 955 351
L 956 351
L 957 351
L 958 351
L 959 351
L 960 351
L 961 351
L 961 351" style="stroke-width:1;stroke:rgba(217,0,116,1.0);fill:none"/><text x="402" y="33" style="stroke-width:0;stroke:none;fill:rgba(51,51,51,1.0);font-size:23.0px;font-family:'Roboto Medium',sans-serif">Kitzbühel 17.09.2022</text><path  d="M 38 11
L 251 11
L 251 91
L 38 91
L 38 11" style="stroke-width:1;stroke:rgba(51,51,51,1.0);fill:rgba(255,255,255,1.0)"/><text x="43" y="26" style="stroke-width:0;stroke:none;fill:rgba(51,51,51,1.0);font-size:10.2px;font-family:'Roboto Medium',sans-serif">Sieben Tage Durschnitt Inzidenz Fälle</text><path  d="M 221 21
L 241 21" style="stroke-width:1;stroke:rgba(0,116,217,1.0);fill:none"/><text x="43" y="56" style="stroke-width:0;stroke:none;fill:rgba(51,51,51,1.0);font-size:10.2px;font-family:'Roboto Medium',sans-serif">Anzahl Faelle</text><path  d="M 110 51
L 241 51" style="stroke-width:1;stroke:rgba(0,217,101,1.0);fill:none"/><text x="43" y="86" style="stroke-width:0;stroke:none;fill:rgba(51,51,51,1.0);font-size:10.2px;font-family:'Roboto Medium',sans-serif">Anzahl Tot</text><path  d="M 98 81
L 241 81" style="stroke-width:1;stroke:rgba(217,0,116,1.0);fill:none"/></svg>