<svg xmlns="http://www.w3.org/2000/svg" xmlns:xlink="http://www.w3.org/1999/xlink" width="1024" height="400">\n<path  d="M 0 0
L 1024 0
L 1024 400
L 0 400
L 0 0" style="stroke-width:0;stroke:rgba(255,255,255,1.0);fill:rgba(255,255,255,1.0)"/><path  d="M 38 11
L 969 11
L 969 351
L 38 351
L 38 11" style="stroke-width:0;stroke:rgba(255,255,255,1.0);fill:rgba(255,255,255,1.0)"/><path  d="M 38 351
L 969 351" style="stroke-width:1;stroke:rgba(51,51,51,1.0);fill:none"/><path  d="M 38 351
L 38 356" style="stroke-width:1;stroke:rgba(51,51,51,1.0);fill:none"/><text x="5" y="373" style="stroke-width:0;stroke:none;fill:rgba(51,51,51,1.0);font-size:12.8px;font-family:'Roboto Medium',sans-serif">2020-02-26</text><path  d="M 155 351
L 155 356" style="stroke-width:1;stroke:rgba(51,51,51,1.0);fill:none"/><text x="122" y="373" style="stroke-width:0;stroke:none;fill:rgba(51,51,51,1.0);font-size:12.8px;font-family:'Roboto Medium',sans-serif">2020-05-01</text><path  d="M 271 351
L 271 356" style="stroke-width:1;stroke:rgba(51,51,51,1.0);fill:none"/><text x="238" y="373" style="stroke-width:0;stroke:none;fill:rgba(51,51,51,1.0);font-size:12.8px;font-family:'Roboto Medium',sans-serif">2020-07-05</text><path  d="M 388 351
L 388 356" style="stroke-width:1;stroke:rgba(51,51,51,1.0);fill:none"/><text x="355" y="373" style="stroke-width:0;stroke:none;fill:rgba(51,51,51,1.0);font-size:12.8px;font-family:'Roboto Medium',sans-serif">2020-09-08</text><path  d="M 504 351
L 504 356" style="stroke-width:1;stroke:rgba(51,51,51,1.0);fill:none"/><text x="471" y="373" style="stroke-width:0;stroke:none;fill:rgba(51,51,51,1.0);font-size:12.8px;font-family:'Roboto Medium',sans-serif">2020-11-12</text><path  d="M 620 351
L 620 356" style="stroke-width:1;stroke:rgba(51,51,51,1.0);fill:none"/><text x="587" y="373" style="stroke-width:0;stroke:none;fill:rgba(51,51,51,1.0);font-size:12.8px;font-family:'Roboto Medium',sans-serif">2021-01-16</text><path  d="M 737 351
L 737 356" style="stroke-width:1;stroke:rgba(51,51,51,1.0);fill:none"/><text x="704" y="373" style="stroke-width:0;stroke:none;fill:rgba(51,51,51,1.0);font-size:12.8px;font-family:'Roboto Medium',sans-serif">2021-03-22</text><path  d="M 853 351
L 853 356" style="stroke-width:1;stroke:rgba(51,51,51,1.0);fill:none"/><text x="820" y="373" style="stroke-width:0;stroke:none;fill:rgba(51,51,51,1.0);font-size:12.8px;font-family:'Roboto Medium',sans-serif">2021-05-26</text><path  d="M 969 351
L 969 356" style="stroke-width:1;stroke:rgba(51,51,51,1.0);fill:none"/><text x="936" y="373" style="stroke-width:0;stroke:none;fill:rgba(51,51,51,1.0);font-size:12.8px;font-family:'Roboto Medium',sans-serif">2021-07-31</text><text x="485" y="395" style="stroke-width:0;stroke:none;fill:rgba(51,51,51,1.0);font-size:12.8px;font-family:'Roboto Medium',sans-serif">Datum</text><path  d="M 970 351
L 970 11" style="stroke-width:1;stroke:rgba(51,51,51,1.0);fill:none"/><path  d="M 970 351
L 975 351" style="stroke-width:1;stroke:rgba(51,51,51,1.0);fill:none"/><text x="980" y="357" style="stroke-width:0;stroke:none;fill:rgba(51,51,51,1.0);font-size:12.8px;font-family:'Roboto Medium',sans-serif">0.00</text><path  d="M 970 308
L 975 308" style="stroke-width:1;stroke:rgba(51,51,51,1.0);fill:none"/><text x="980" y="314" style="stroke-width:0;stroke:none;fill:rgba(51,51,51,1.0);font-size:12.8px;font-family:'Roboto Medium',sans-serif">109.00</text><path  d="M 970 265
L 975 265" style="stroke-width:1;stroke:rgba(51,51,51,1.0);fill:none"/><text x="980" y="271" style="stroke-width:0;stroke:none;fill:rgba(51,51,51,1.0);font-size:12.8px;font-family:'Roboto Medium',sans-serif">218.00</text><path  d="M 970 223
L 975 223" style="stroke-width:1;stroke:rgba(51,51,51,1.0);fill:none"/><text x="980" y="229" style="stroke-width:0;stroke:none;fill:rgba(51,51,51,1.0);font-size:12.8px;font-family:'Roboto Medium',sans-serif">327.00</text><path  d="M 970 181
L 975 181" style="stroke-width:1;stroke:rgba(51,51,51,1.0);fill:none"/><text x="980" y="187" style="stroke-width:0;stroke:none;fill:rgba(51,51,51,1.0);font-size:12.8px;font-family:'Roboto Medium',sans-serif">435.00</text><path  d="M 970 138
L 975 138" style="stroke-width:1;stroke:rgba(51,51,51,1.0);fill:none"/><text x="980" y="144" style="stroke-width:0;stroke:none;fill:rgba(51,51,51,1.0);font-size:12.8px;font-family:'Roboto Medium',sans-serif">544.00</text><path  d="M 970 95
L 975 95" style="stroke-width:1;stroke:rgba(51,51,51,1.0);fill:none"/><text x="980" y="101" style="stroke-width:0;stroke:none;fill:rgba(51,51,51,1.0);font-size:12.8px;font-family:'Roboto Medium',sans-serif">653.00</text><path  d="M 970 53
L 975 53" style="stroke-width:1;stroke:rgba(51,51,51,1.0);fill:none"/><text x="980" y="59" style="stroke-width:0;stroke:none;fill:rgba(51,51,51,1.0);font-size:12.8px;font-family:'Roboto Medium',sans-serif">762.00</text><path  d="M 970 11
L 975 11" style="stroke-width:1;stroke:rgba(51,51,51,1.0);fill:none"/><text x="980" y="17" style="stroke-width:0;stroke:none;fill:rgba(51,51,51,1.0);font-size:12.8px;font-family:'Roboto Medium',sans-serif">870.00</text><path  d="M 38 351
L 40 351
L 42 351
L 44 351
L 46 351
L 47 351
L 49 351
L 51 351
L 53 351
L 55 351
L 56 351
L 58 351
L 60 351
L 62 351
L 64 351
L 65 350
L 67 350
L 69 350
L 71 349
L 72 348
L 74 347
L 76 346
L 78 344
L 80 344
L 81 344
L 83 344
L 85 343
L 87 340
L 89 340
L 90 342
L 92 340
L 94 341
L 96 339
L 97 341
L 99 344
L 101 343
L 103 344
L 105 345
L 106 346
L 108 347
L 110 347
L 112 347
L 114 345
L 115 344
L 117 342
L 119 342
L 121 342
L 122 343
L 124 344
L 126 347
L 128 347
L 130 350
L 131 350
L 133 350
L 135 351
L 137 351
L 139 351
L 140 351
L 142 351
L 144 350
L 146 349
L 148 349
L 149 349
L 151 349
L 153 349
L 155 349
L 156 350
L 158 351
L 160 351
L 162 351
L 164 351
L 165 351
L 167 351
L 169 351
L 171 351
L 173 351
L 174 351
L 176 351
L 178 351
L 180 351
L 181 351
L 183 351
L 185 351
L 187 351
L 189 351
L 190 351
L 192 351
L 194 351
L 196 351
L 198 351
L 199 351
L 201 350
L 203 350
L 205 350
L 206 350
L 208 350
L 210 350
L 212 350
L 214 351
L 215 351
L 217 351
L 219 351
L 221 351
L 223 351
L 224 351
L 226 351
L 228 351
L 230 351
L 231 351
L 233 351
L 235 351
L 237 351
L 239 351
L 240 351
L 242 351
L 244 350
L 246 350
L 248 350
L 249 349
L 251 349
L 253 349
L 255 349
L 257 349
L 258 349
L 260 349
L 262 350
L 264 350
L 265 350
L 267 350
L 269 350
L 271 350
L 273 349
L 274 350
L 276 350
L 278 349
L 280 348
L 282 347
L 283 347
L 285 348
L 287 348
L 289 348
L 290 349
L 292 349
L 294 350
L 296 350
L 298 350
L 299 350
L 301 350
L 303 350
L 305 350
L 307 350
L 308 350
L 310 351
L 312 351
L 314 351
L 315 350
L 317 350
L 319 349
L 321 349
L 323 349
L 324 349
L 326 349
L 328 348
L 330 349
L 332 349
L 333 349
L 335 349
L 337 349
L 339 347
L 340 344
L 342 339
L 344 338
L 346 336
L 348 336
L 349 336
L 351 337
L 353 341
L 355 346
L 357 347
L 358 349
L 360 349
L 362 349
L 364 349
L 366 347
L 367 347
L 369 347
L 371 346
L 373 347
L 374 347
L 376 347
L 378 349
L 380 349
L 382 349
L 383 350
L 385 350
L 387 350
L 389 349
L 391 349
L 392 349
L 394 348
L 396 348
L 398 348
L 399 347
L 401 347
L 403 349
L 405 348
L 407 349
L 408 349
L 410 348
L 412 348
L 414 347
L 416 345
L 417 343
L 419 342
L 421 341
L 423 342
L 424 342
L 426 344
L 428 345
L 430 347
L 432 346
L 433 347
L 435 347
L 437 346
L 439 344
L 441 343
L 442 341
L 444 339
L 446 336
L 448 331
L 449 329
L 451 327
L 453 325
L 455 325
L 457 314
L 458 316
L 460 317
L 462 315
L 464 312
L 466 305
L 467 299
L 469 307
L 471 304
L 473 299
L 475 293
L 476 276
L 478 261
L 480 256
L 482 245
L 483 241
L 485 227
L 487 220
L 489 213
L 491 207
L 492 204
L 494 214
L 496 212
L 498 221
L 500 212
L 501 170
L 503 142
L 505 109
L 507 81
L 508 80
L 510 58
L 512 11
L 514 68
L 516 105
L 517 140
L 519 145
L 521 142
L 523 157
L 525 200
L 526 194
L 528 194
L 530 187
L 532 185
L 533 190
L 535 196
L 537 207
L 539 207
L 541 214
L 542 223
L 544 246
L 546 248
L 548 246
L 550 254
L 551 261
L 553 256
L 555 257
L 557 252
L 559 251
L 560 255
L 562 254
L 564 258
L 566 271
L 567 278
L 569 285
L 571 291
L 573 290
L 575 291
L 576 277
L 578 273
L 580 275
L 582 275
L 584 269
L 585 272
L 587 275
L 589 289
L 591 289
L 592 291
L 594 288
L 596 291
L 598 294
L 600 296
L 601 304
L 603 310
L 605 294
L 607 298
L 609 297
L 610 301
L 612 302
L 614 298
L 616 297
L 617 312
L 619 313
L 621 317
L 623 318
L 625 321
L 626 322
L 628 322
L 630 319
L 632 319
L 634 317
L 635 319
L 637 319
L 639 321
L 641 321
L 642 326
L 644 322
L 646 324
L 648 319
L 650 316
L 651 316
L 653 316
L 655 312
L 657 314
L 659 315
L 660 316
L 662 315
L 664 316
L 666 314
L 668 316
L 669 313
L 671 312
L 673 313
L 675 311
L 676 309
L 678 307
L 680 307
L 682 308
L 684 305
L 685 304
L 687 302
L 689 303
L 691 299
L 693 294
L 694 293
L 696 298
L 698 293
L 700 295
L 701 296
L 703 294
L 705 298
L 707 299
L 709 295
L 710 294
L 712 294
L 714 288
L 716 288
L 718 285
L 719 283
L 721 283
L 723 290
L 725 287
L 726 289
L 728 294
L 730 296
L 732 300
L 734 300
L 735 298
L 737 302
L 739 305
L 741 304
L 743 304
L 744 296
L 746 293
L 748 291
L 750 286
L 751 276
L 753 278
L 755 274
L 757 281
L 759 283
L 760 281
L 762 281
L 764 283
L 766 277
L 768 277
L 769 276
L 771 275
L 773 278
L 775 280
L 777 288
L 778 294
L 780 294
L 782 291
L 784 292
L 785 289
L 787 293
L 789 297
L 791 296
L 793 301
L 794 304
L 796 305
L 798 308
L 800 307
L 802 303
L 803 303
L 805 302
L 807 299
L 809 299
L 810 300
L 812 302
L 814 305
L 816 308
L 818 313
L 819 319
L 821 323
L 823 322
L 825 324
L 827 325
L 828 326
L 830 327
L 832 327
L 834 326
L 835 331
L 837 331
L 839 332
L 841 334
L 843 334
L 844 334
L 846 335
L 848 336
L 850 339
L 852 341
L 853 342
L 855 343
L 857 342
L 859 342
L 860 343
L 862 342
L 864 341
L 866 340
L 868 341
L 869 344
L 871 343
L 873 343
L 875 344
L 877 343
L 878 344
L 880 345
L 882 346
L 884 346
L 886 347
L 887 347
L 889 349
L 891 350
L 893 348
L 894 347
L 896 347
L 898 347
L 900 347
L 902 346
L 903 346
L 905 347
L 907 349
L 909 349
L 911 349
L 912 349
L 914 349
L 916 350
L 918 350
L 919 351
L 921 351
L 923 351
L 925 350
L 927 350
L 928 344
L 930 342
L 932 342
L 934 342
L 936 339
L 937 338
L 939 336
L 941 342
L 943 343
L 944 342
L 946 342
L 948 344
L 950 343
L 952 344
L 953 344
L 955 343
L 957 343
L 959 342
L 961 341
L 962 340
L 964 338
L 966 334
L 968 332
L 969 329" style="stroke-width:1;stroke:rgba(0,116,217,1.0);fill:none"/><path  d="M 38 351
L 40 351
L 42 351
L 44 351
L 46 351
L 47 351
L 49 351
L 51 351
L 53 351
L 55 351
L 56 351
L 58 351
L 60 351
L 62 351
L 64 351
L 65 350
L 67 351
L 69 350
L 71 350
L 72 349
L 74 349
L 76 350
L 78 348
L 80 351
L 81 349
L 83 350
L 85 348
L 87 347
L 89 350
L 90 350
L 92 349
L 94 350
L 96 349
L 97 350
L 99 349
L 101 349
L 103 351
L 105 350
L 106 351
L 108 350
L 110 350
L 112 350
L 114 347
L 115 350
L 117 348
L 119 351
L 121 350
L 122 350
L 124 351
L 126 351
L 128 351
L 130 351
L 131 351
L 133 351
L 135 351
L 137 351
L 139 351
L 140 351
L 142 351
L 144 350
L 146 350
L 148 351
L 149 351
L 151 351
L 153 351
L 155 351
L 156 351
L 158 351
L 160 351
L 162 351
L 164 351
L 165 351
L 167 351
L 169 351
L 171 351
L 173 351
L 174 351
L 176 351
L 178 351
L 180 351
L 181 351
L 183 351
L 185 351
L 187 351
L 189 351
L 190 351
L 192 351
L 194 351
L 196 351
L 198 351
L 199 351
L 201 350
L 203 351
L 205 351
L 206 351
L 208 351
L 210 351
L 212 351
L 214 351
L 215 351
L 217 351
L 219 351
L 221 351
L 223 351
L 224 351
L 226 351
L 228 351
L 230 351
L 231 351
L 233 351
L 235 351
L 237 351
L 239 351
L 240 351
L 242 351
L 244 350
L 246 351
L 248 351
L 249 350
L 251 351
L 253 350
L 255 351
L 257 351
L 258 351
L 260 351
L 262 350
L 264 351
L 265 351
L 267 351
L 269 351
L 271 351
L 273 350
L 274 351
L 276 351
L 278 350
L 280 349
L 282 350
L 283 351
L 285 351
L 287 351
L 289 351
L 290 351
L 292 350
L 294 351
L 296 351
L 298 350
L 299 351
L 301 351
L 303 351
L 305 351
L 307 351
L 308 351
L 310 351
L 312 351
L 314 351
L 315 350
L 317 350
L 319 350
L 321 351
L 323 350
L 324 350
L 326 351
L 328 350
L 330 351
L 332 350
L 333 351
L 335 351
L 337 350
L 339 349
L 340 346
L 342 346
L 344 349
L 346 349
L 348 350
L 349 350
L 351 350
L 353 350
L 355 351
L 357 350
L 358 351
L 360 350
L 362 351
L 364 350
L 366 349
L 367 350
L 369 351
L 371 350
L 373 351
L 374 351
L 376 351
L 378 350
L 380 351
L 382 351
L 383 351
L 385 351
L 387 351
L 389 350
L 391 349
L 392 351
L 394 350
L 396 351
L 398 350
L 399 350
L 401 350
L 403 351
L 405 350
L 407 351
L 408 351
L 410 350
L 412 350
L 414 349
L 416 349
L 417 348
L 419 350
L 421 349
L 423 350
L 424 351
L 426 350
L 428 351
L 430 349
L 432 349
L 433 351
L 435 350
L 437 350
L 439 348
L 441 349
L 442 347
L 444 348
L 446 347
L 448 345
L 449 347
L 451 347
L 453 347
L 455 347
L 457 337
L 458 349
L 460 347
L 462 345
L 464 344
L 466 339
L 467 341
L 469 345
L 471 345
L 473 342
L 475 338
L 476 327
L 478 324
L 480 335
L 482 335
L 483 342
L 485 327
L 487 332
L 489 319
L 491 318
L 492 332
L 494 345
L 496 340
L 498 335
L 500 323
L 501 277
L 503 290
L 505 299
L 507 317
L 508 338
L 510 313
L 512 275
L 514 335
L 516 328
L 517 334
L 519 321
L 521 336
L 523 328
L 525 318
L 526 330
L 528 327
L 530 327
L 532 319
L 533 342
L 535 334
L 537 329
L 539 329
L 541 335
L 542 336
L 544 342
L 546 343
L 548 331
L 550 337
L 551 336
L 553 331
L 555 337
L 557 338
L 559 342
L 560 335
L 562 336
L 564 340
L 566 343
L 567 344
L 569 345
L 571 348
L 573 334
L 575 338
L 576 326
L 578 340
L 580 346
L 582 345
L 584 341
L 585 338
L 587 341
L 589 341
L 591 339
L 592 347
L 594 342
L 596 345
L 598 341
L 600 343
L 601 348
L 603 345
L 605 331
L 607 346
L 609 344
L 610 345
L 612 344
L 614 344
L 616 345
L 617 346
L 619 347
L 621 348
L 623 347
L 625 346
L 626 345
L 628 345
L 630 343
L 632 348
L 634 346
L 635 349
L 637 347
L 639 347
L 641 345
L 642 347
L 644 345
L 646 347
L 648 344
L 650 344
L 651 346
L 653 345
L 655 343
L 657 347
L 659 348
L 660 345
L 662 343
L 664 346
L 666 344
L 668 344
L 669 345
L 671 347
L 673 346
L 675 341
L 676 344
L 678 343
L 680 344
L 682 345
L 684 344
L 685 345
L 687 339
L 689 345
L 691 338
L 693 339
L 694 344
L 696 349
L 698 340
L 700 341
L 701 345
L 703 336
L 705 343
L 707 345
L 709 345
L 710 340
L 712 341
L 714 339
L 716 336
L 718 341
L 719 343
L 721 345
L 723 347
L 725 338
L 726 341
L 728 342
L 730 343
L 732 347
L 734 345
L 735 345
L 737 342
L 739 344
L 741 340
L 743 343
L 744 338
L 746 343
L 748 343
L 750 336
L 751 334
L 753 343
L 755 339
L 757 346
L 759 345
L 760 340
L 762 337
L 764 335
L 766 337
L 768 339
L 769 345
L 771 343
L 773 343
L 775 339
L 777 343
L 778 343
L 780 339
L 782 342
L 784 345
L 785 340
L 787 343
L 789 347
L 791 342
L 793 343
L 794 345
L 796 346
L 798 343
L 800 342
L 802 343
L 803 342
L 805 342
L 807 342
L 809 347
L 810 344
L 812 345
L 814 345
L 816 345
L 818 347
L 819 348
L 821 351
L 823 343
L 825 347
L 827 346
L 828 346
L 830 348
L 832 348
L 834 350
L 835 348
L 837 347
L 839 348
L 841 349
L 843 348
L 844 348
L 846 351
L 848 349
L 850 350
L 852 350
L 853 350
L 855 349
L 857 347
L 859 351
L 860 350
L 862 349
L 864 349
L 866 348
L 868 350
L 869 349
L 871 350
L 873 350
L 875 350
L 877 349
L 878 349
L 880 351
L 882 351
L 884 351
L 886 350
L 887 351
L 889 351
L 891 350
L 893 349
L 894 349
L 896 351
L 898 351
L 900 350
L 902 350
L 903 350
L 905 350
L 907 350
L 909 351
L 911 351
L 912 351
L 914 351
L 916 351
L 918 351
L 919 351
L 921 351
L 923 351
L 925 350
L 927 351
L 928 344
L 930 349
L 932 350
L 934 351
L 936 347
L 937 350
L 939 349
L 941 350
L 943 350
L 944 349
L 946 350
L 948 350
L 950 349
L 952 349
L 953 350
L 955 349
L 957 349
L 959 349
L 961 349
L 962 347
L 964 348
L 966 346
L 968 347
L 969 347" style="stroke-width:1;stroke:rgba(0,217,101,1.0);fill:none"/><path  d="M 38 351
L 40 351
L 42 351
L 44 351
L 46 351
L 47 351
L 49 351
L 51 351
L 53 351
L 55 351
L 56 351
L 58 351
L 60 351
L 62 351
L 64 351
L 65 351
L 67 351
L 69 351
L 71 351
L 72 351
L 74 351
L 76 351
L 78 351
L 80 351
L 81 350
L 83 351
L 85 351
L 87 351
L 89 351
L 90 351
L 92 351
L 94 351
L 96 351
L 97 351
L 99 351
L 101 351
L 103 351
L 105 351
L 106 351
L 108 351
L 110 351
L 112 351
L 114 351
L 115 351
L 117 351
L 119 351
L 121 351
L 122 350
L 124 351
L 126 351
L 128 351
L 130 351
L 131 350
L 133 351
L 135 351
L 137 351
L 139 351
L 140 351
L 142 351
L 144 351
L 146 351
L 148 351
L 149 351
L 151 351
L 153 351
L 155 351
L 156 351
L 158 351
L 160 351
L 162 351
L 164 351
L 165 351
L 167 351
L 169 351
L 171 351
L 173 351
L 174 351
L 176 351
L 178 351
L 180 351
L 181 351
L 183 351
L 185 351
L 187 351
L 189 351
L 190 351
L 192 351
L 194 351
L 196 351
L 198 351
L 199 351
L 201 351
L 203 351
L 205 351
L 206 351
L 208 351
L 210 351
L 212 351
L 214 351
L 215 351
L 217 351
L 219 351
L 221 351
L 223 351
L 224 351
L 226 351
L 228 351
L 230 351
L 231 351
L 233 351
L 235 351
L 237 351
L 239 351
L 240 351
L 242 351
L 244 351
L 246 351
L 248 351
L 249 351
L 251 351
L 253 351
L 255 351
L 257 351
L 258 351
L 260 351
L 262 351
L 264 351
L 265 351
L 267 351
L 269 351
L 271 351
L 273 351
L 274 351
L 276 351
L 278 351
L 280 351
L 282 351
L 283 351
L 285 351
L 287 351
L 289 351
L 290 351
L 292 351
L 294 351
L 296 351
L 298 351
L 299 351
L 301 351
L 303 351
L 305 351
L 307 351
L 308 351
L 310 351
L 312 351
L 314 351
L 315 351
L 317 351
L 319 351
L 321 351
L 323 351
L 324 351
L 326 351
L 328 351
L 330 351
L 332 351
L 333 351
L 335 351
L 337 351
L 339 351
L 340 351
L 342 351
L 344 351
L 346 351
L 348 351
L 349 351
L 351 351
L 353 351
L 355 351
L 357 351
L 358 351
L 360 351
L 362 351
L 364 351
L 366 351
L 367 351
L 369 351
L 371 351
L 373 351
L 374 351
L 376 351
L 378 351
L 380 351
L 382 351
L 383 351
L 385 351
L 387 351
L 389 351
L 391 351
L 392 351
L 394 351
L 396 351
L 398 351
L 399 351
L 401 351
L 403 351
L 405 351
L 407 351
L 408 351
L 410 351
L 412 351
L 414 351
L 416 351
L 417 351
L 419 351
L 421 351
L 423 351
L 424 351
L 426 351
L 428 351
L 430 351
L 432 351
L 433 351
L 435 351
L 437 351
L 439 351
L 441 351
L 442 351
L 444 351
L 446 351
L 448 351
L 449 351
L 451 351
L 453 351
L 455 351
L 457 351
L 458 351
L 460 351
L 462 351
L 464 351
L 466 351
L 467 350
L 469 351
L 471 351
L 473 350
L 475 350
L 476 349
L 478 350
L 480 350
L 482 349
L 483 350
L 485 349
L 487 350
L 489 350
L 491 349
L 492 350
L 494 350
L 496 350
L 498 350
L 500 349
L 501 351
L 503 350
L 505 350
L 507 350
L 508 349
L 510 351
L 512 350
L 514 350
L 516 351
L 517 349
L 519 350
L 521 350
L 523 350
L 525 351
L 526 349
L 528 350
L 530 349
L 532 350
L 533 349
L 535 349
L 537 349
L 539 350
L 541 350
L 542 351
L 544 350
L 546 350
L 548 350
L 550 350
L 551 351
L 553 350
L 555 351
L 557 349
L 559 349
L 560 351
L 562 350
L 564 349
L 566 350
L 567 349
L 569 350
L 571 350
L 573 350
L 575 351
L 576 350
L 578 351
L 580 350
L 582 350
L 584 350
L 585 350
L 587 350
L 589 349
L 591 350
L 592 350
L 594 350
L 596 350
L 598 349
L 600 349
L 601 351
L 603 351
L 605 351
L 607 351
L 609 350
L 610 351
L 612 351
L 614 351
L 616 351
L 617 351
L 619 350
L 621 351
L 623 350
L 625 351
L 626 350
L 628 351
L 630 351
L 632 351
L 634 351
L 635 351
L 637 351
L 639 351
L 641 351
L 642 351
L 644 351
L 646 350
L 648 350
L 650 351
L 651 351
L 653 351
L 655 351
L 657 351
L 659 351
L 660 351
L 662 351
L 664 350
L 666 350
L 668 351
L 669 351
L 671 351
L 673 351
L 675 350
L 676 351
L 678 351
L 680 351
L 682 350
L 684 350
L 685 351
L 687 351
L 689 351
L 691 351
L 693 351
L 694 351
L 696 351
L 698 350
L 700 351
L 701 350
L 703 351
L 705 351
L 707 351
L 709 351
L 710 351
L 712 351
L 714 350
L 716 351
L 718 350
L 719 351
L 721 351
L 723 351
L 725 351
L 726 351
L 728 351
L 730 351
L 732 351
L 734 351
L 735 350
L 737 351
L 739 351
L 741 351
L 743 351
L 744 351
L 746 351
L 748 351
L 750 351
L 751 351
L 753 351
L 755 351
L 757 351
L 759 350
L 760 351
L 762 351
L 764 351
L 766 351
L 768 351
L 769 351
L 771 351
L 773 351
L 775 351
L 777 350
L 778 351
L 780 351
L 782 351
L 784 350
L 785 351
L 787 351
L 789 351
L 791 351
L 793 350
L 794 351
L 796 351
L 798 350
L 800 351
L 802 351
L 803 350
L 805 351
L 807 351
L 809 351
L 810 351
L 812 351
L 814 351
L 816 351
L 818 351
L 819 351
L 821 351
L 823 351
L 825 351
L 827 351
L 828 351
L 830 351
L 832 351
L 834 350
L 835 351
L 837 351
L 839 351
L 841 351
L 843 351
L 844 351
L 846 351
L 848 351
L 850 351
L 852 351
L 853 351
L 855 351
L 857 351
L 859 351
L 860 351
L 862 351
L 864 351
L 866 351
L 868 351
L 869 351
L 871 351
L 873 351
L 875 351
L 877 351
L 878 351
L 880 351
L 882 351
L 884 351
L 886 351
L 887 351
L 889 351
L 891 351
L 893 351
L 894 351
L 896 351
L 898 351
L 900 351
L 902 351
L 903 351
L 905 351
L 907 351
L 909 351
L 911 351
L 912 351
L 914 351
L 916 351
L 918 351
L 919 351
L 921 351
L 923 351
L 925 351
L 927 350
L 928 351
L 930 351
L 932 351
L 934 351
L 936 351
L 937 351
L 939 351
L 941 351
L 943 351
L 944 351
L 946 351
L 948 351
L 950 351
L 952 351
L 953 351
L 955 351
L 957 351
L 959 351
L 961 351
L 962 351
L 964 351
L 966 351
L 968 351
L 969 351" style="stroke-width:1;stroke:rgba(217,0,116,1.0);fill:none"/><text x="366" y="33" style="stroke-width:0;stroke:none;fill:rgba(51,51,51,1.0);font-size:23.0px;font-family:'Roboto Medium',sans-serif">Klagenfurt Stadt 31.07.2021</text><path  d="M 38 11
L 251 11
L 251 91
L 38 91
L 38 11" style="stroke-width:1;stroke:rgba(51,51,51,1.0);fill:rgba(255,255,255,1.0)"/><text x="43" y="26" style="stroke-width:0;stroke:none;fill:rgba(51,51,51,1.0);font-size:10.2px;font-family:'Roboto Medium',sans-serif">Sieben Tage Durschnitt Inzidenz Fälle</text><path  d="M 221 21
L 241 21" style="stroke-width:1;stroke:rgba(0,116,217,1.0);fill:none"/><text x="43" y="56" style="stroke-width:0;stroke:none;fill:rgba(51,51,51,1.0);font-size:10.2px;font-family:'Roboto Medium',sans-serif">Anzahl Faelle</text><path  d="M 110 51
L 241 51" style="stroke-width:1;stroke:rgba(0,217,101,1.0);fill:none"/><text x="43" y="86" style="stroke-width:0;stroke:none;fill:rgba(51,51,51,1.0);font-size:10.2px;font-family:'Roboto Medium',sans-serif">Anzahl Tot</text><path  d="M 98 81
L 241 81" style="stroke-width:1;stroke:rgba(217,0,116,1.0);fill:none"/></svg>