<svg xmlns="http://www.w3.org/2000/svg" xmlns:xlink="http://www.w3.org/1999/xlink" width="1024" height="400">\n<path  d="M 0 0
L 1024 0
L 1024 400
L 0 400
L 0 0" style="stroke-width:0;stroke:rgba(255,255,255,1.0);fill:rgba(255,255,255,1.0)"/><path  d="M 38 11
L 969 11
L 969 351
L 38 351
L 38 11" style="stroke-width:0;stroke:rgba(255,255,255,1.0);fill:rgba(255,255,255,1.0)"/><path  d="M 38 351
L 969 351" style="stroke-width:1;stroke:rgba(51,51,51,1.0);fill:none"/><path  d="M 38 351
L 38 356" style="stroke-width:1;stroke:rgba(51,51,51,1.0);fill:none"/><text x="5" y="373" style="stroke-width:0;stroke:none;fill:rgba(51,51,51,1.0);font-size:12.8px;font-family:'Roboto Medium',sans-serif">2020-02-26</text><path  d="M 155 351
L 155 356" style="stroke-width:1;stroke:rgba(51,51,51,1.0);fill:none"/><text x="122" y="373" style="stroke-width:0;stroke:none;fill:rgba(51,51,51,1.0);font-size:12.8px;font-family:'Roboto Medium',sans-serif">2020-04-22</text><path  d="M 271 351
L 271 356" style="stroke-width:1;stroke:rgba(51,51,51,1.0);fill:none"/><text x="238" y="373" style="stroke-width:0;stroke:none;fill:rgba(51,51,51,1.0);font-size:12.8px;font-family:'Roboto Medium',sans-serif">2020-06-18</text><path  d="M 388 351
L 388 356" style="stroke-width:1;stroke:rgba(51,51,51,1.0);fill:none"/><text x="355" y="373" style="stroke-width:0;stroke:none;fill:rgba(51,51,51,1.0);font-size:12.8px;font-family:'Roboto Medium',sans-serif">2020-08-13</text><path  d="M 504 351
L 504 356" style="stroke-width:1;stroke:rgba(51,51,51,1.0);fill:none"/><text x="471" y="373" style="stroke-width:0;stroke:none;fill:rgba(51,51,51,1.0);font-size:12.8px;font-family:'Roboto Medium',sans-serif">2020-10-09</text><path  d="M 620 351
L 620 356" style="stroke-width:1;stroke:rgba(51,51,51,1.0);fill:none"/><text x="587" y="373" style="stroke-width:0;stroke:none;fill:rgba(51,51,51,1.0);font-size:12.8px;font-family:'Roboto Medium',sans-serif">2020-12-05</text><path  d="M 737 351
L 737 356" style="stroke-width:1;stroke:rgba(51,51,51,1.0);fill:none"/><text x="704" y="373" style="stroke-width:0;stroke:none;fill:rgba(51,51,51,1.0);font-size:12.8px;font-family:'Roboto Medium',sans-serif">2021-01-30</text><path  d="M 853 351
L 853 356" style="stroke-width:1;stroke:rgba(51,51,51,1.0);fill:none"/><text x="820" y="373" style="stroke-width:0;stroke:none;fill:rgba(51,51,51,1.0);font-size:12.8px;font-family:'Roboto Medium',sans-serif">2021-03-28</text><path  d="M 969 351
L 969 356" style="stroke-width:1;stroke:rgba(51,51,51,1.0);fill:none"/><text x="936" y="373" style="stroke-width:0;stroke:none;fill:rgba(51,51,51,1.0);font-size:12.8px;font-family:'Roboto Medium',sans-serif">2021-05-24</text><text x="485" y="395" style="stroke-width:0;stroke:none;fill:rgba(51,51,51,1.0);font-size:12.8px;font-family:'Roboto Medium',sans-serif">Datum</text><path  d="M 970 351
L 970 11" style="stroke-width:1;stroke:rgba(51,51,51,1.0);fill:none"/><path  d="M 970 351
L 975 351" style="stroke-width:1;stroke:rgba(51,51,51,1.0);fill:none"/><text x="980" y="357" style="stroke-width:0;stroke:none;fill:rgba(51,51,51,1.0);font-size:12.8px;font-family:'Roboto Medium',sans-serif">0.00</text><path  d="M 970 308
L 975 308" style="stroke-width:1;stroke:rgba(51,51,51,1.0);fill:none"/><text x="980" y="314" style="stroke-width:0;stroke:none;fill:rgba(51,51,51,1.0);font-size:12.8px;font-family:'Roboto Medium',sans-serif">104.00</text><path  d="M 970 265
L 975 265" style="stroke-width:1;stroke:rgba(51,51,51,1.0);fill:none"/><text x="980" y="271" style="stroke-width:0;stroke:none;fill:rgba(51,51,51,1.0);font-size:12.8px;font-family:'Roboto Medium',sans-serif">208.00</text><path  d="M 970 223
L 975 223" style="stroke-width:1;stroke:rgba(51,51,51,1.0);fill:none"/><text x="980" y="229" style="stroke-width:0;stroke:none;fill:rgba(51,51,51,1.0);font-size:12.8px;font-family:'Roboto Medium',sans-serif">312.00</text><path  d="M 970 181
L 975 181" style="stroke-width:1;stroke:rgba(51,51,51,1.0);fill:none"/><text x="980" y="187" style="stroke-width:0;stroke:none;fill:rgba(51,51,51,1.0);font-size:12.8px;font-family:'Roboto Medium',sans-serif">415.00</text><path  d="M 970 138
L 975 138" style="stroke-width:1;stroke:rgba(51,51,51,1.0);fill:none"/><text x="980" y="144" style="stroke-width:0;stroke:none;fill:rgba(51,51,51,1.0);font-size:12.8px;font-family:'Roboto Medium',sans-serif">519.00</text><path  d="M 970 95
L 975 95" style="stroke-width:1;stroke:rgba(51,51,51,1.0);fill:none"/><text x="980" y="101" style="stroke-width:0;stroke:none;fill:rgba(51,51,51,1.0);font-size:12.8px;font-family:'Roboto Medium',sans-serif">623.00</text><path  d="M 970 53
L 975 53" style="stroke-width:1;stroke:rgba(51,51,51,1.0);fill:none"/><text x="980" y="59" style="stroke-width:0;stroke:none;fill:rgba(51,51,51,1.0);font-size:12.8px;font-family:'Roboto Medium',sans-serif">727.00</text><path  d="M 970 11
L 975 11" style="stroke-width:1;stroke:rgba(51,51,51,1.0);fill:none"/><text x="980" y="17" style="stroke-width:0;stroke:none;fill:rgba(51,51,51,1.0);font-size:12.8px;font-family:'Roboto Medium',sans-serif">830.00</text><path  d="M 38 351
L 41 351
L 43 351
L 45 351
L 47 351
L 49 351
L 51 351
L 53 351
L 55 351
L 57 351
L 59 351
L 61 351
L 63 351
L 65 351
L 67 351
L 69 351
L 71 351
L 73 351
L 75 351
L 78 347
L 80 346
L 82 346
L 84 344
L 86 344
L 88 343
L 90 342
L 92 342
L 94 342
L 96 340
L 98 340
L 100 339
L 102 338
L 104 335
L 106 338
L 108 340
L 110 340
L 112 343
L 115 343
L 117 345
L 119 348
L 121 348
L 123 346
L 125 347
L 127 347
L 129 348
L 131 348
L 133 348
L 135 348
L 137 349
L 139 350
L 141 350
L 143 350
L 145 350
L 147 350
L 149 350
L 152 351
L 154 351
L 156 351
L 158 351
L 160 351
L 162 351
L 164 351
L 166 351
L 168 351
L 170 351
L 172 351
L 174 351
L 176 351
L 178 351
L 180 351
L 182 351
L 184 351
L 186 351
L 189 351
L 191 351
L 193 351
L 195 351
L 197 351
L 199 351
L 201 351
L 203 351
L 205 351
L 207 351
L 209 351
L 211 351
L 213 351
L 215 351
L 217 351
L 219 351
L 221 351
L 223 351
L 226 351
L 228 351
L 230 351
L 232 351
L 234 351
L 236 351
L 238 351
L 240 351
L 242 351
L 244 351
L 246 351
L 248 351
L 250 351
L 252 351
L 254 351
L 256 351
L 258 351
L 260 351
L 263 350
L 265 350
L 267 350
L 269 350
L 271 350
L 273 349
L 275 348
L 277 349
L 279 349
L 281 349
L 283 349
L 285 349
L 287 350
L 289 351
L 291 351
L 293 351
L 295 351
L 297 351
L 300 351
L 302 350
L 304 349
L 306 349
L 308 349
L 310 348
L 312 348
L 314 348
L 316 348
L 318 349
L 320 349
L 322 349
L 324 350
L 326 349
L 328 349
L 330 350
L 332 350
L 334 350
L 337 350
L 339 350
L 341 351
L 343 351
L 345 351
L 347 351
L 349 351
L 351 351
L 353 351
L 355 351
L 357 351
L 359 351
L 361 351
L 363 351
L 365 351
L 367 351
L 369 350
L 371 350
L 373 350
L 376 350
L 378 350
L 380 350
L 382 349
L 384 350
L 386 350
L 388 349
L 390 348
L 392 347
L 394 347
L 396 347
L 398 347
L 400 346
L 402 346
L 404 347
L 406 347
L 408 346
L 410 347
L 413 347
L 415 348
L 417 348
L 419 348
L 421 349
L 423 349
L 425 349
L 427 349
L 429 350
L 431 350
L 433 350
L 435 350
L 437 351
L 439 351
L 441 349
L 443 349
L 445 348
L 447 348
L 450 348
L 452 348
L 454 348
L 456 349
L 458 348
L 460 348
L 462 346
L 464 346
L 466 345
L 468 344
L 470 344
L 472 343
L 474 342
L 476 344
L 478 344
L 480 344
L 482 345
L 484 345
L 487 346
L 489 347
L 491 347
L 493 346
L 495 345
L 497 345
L 499 344
L 501 342
L 503 338
L 505 337
L 507 336
L 509 335
L 511 329
L 513 331
L 515 332
L 517 336
L 519 335
L 521 334
L 524 335
L 526 338
L 528 333
L 530 324
L 532 320
L 534 319
L 536 320
L 538 314
L 540 309
L 542 308
L 544 305
L 546 297
L 548 273
L 550 268
L 552 259
L 554 247
L 556 201
L 558 191
L 561 180
L 563 196
L 565 191
L 567 191
L 569 176
L 571 161
L 573 133
L 575 105
L 577 84
L 579 84
L 581 54
L 583 11
L 585 61
L 587 78
L 589 98
L 591 93
L 593 91
L 595 114
L 598 155
L 600 133
L 602 139
L 604 143
L 606 154
L 608 151
L 610 159
L 612 172
L 614 191
L 616 200
L 618 205
L 620 219
L 622 232
L 624 230
L 626 242
L 628 247
L 630 250
L 632 261
L 635 261
L 637 250
L 639 247
L 641 239
L 643 248
L 645 252
L 647 256
L 649 257
L 651 263
L 653 247
L 655 249
L 657 236
L 659 234
L 661 229
L 663 236
L 665 238
L 667 264
L 669 269
L 671 266
L 674 266
L 676 271
L 678 261
L 680 256
L 682 247
L 684 252
L 686 264
L 688 267
L 690 254
L 692 261
L 694 257
L 696 263
L 698 254
L 700 256
L 702 256
L 704 271
L 706 273
L 708 280
L 711 286
L 713 300
L 715 280
L 717 284
L 719 285
L 721 283
L 723 284
L 725 282
L 727 272
L 729 289
L 731 288
L 733 286
L 735 288
L 737 289
L 739 288
L 741 290
L 743 290
L 745 291
L 748 297
L 750 290
L 752 288
L 754 292
L 756 292
L 758 298
L 760 294
L 762 290
L 764 298
L 766 302
L 768 301
L 770 301
L 772 303
L 774 307
L 776 310
L 778 313
L 780 314
L 782 310
L 785 314
L 787 305
L 789 291
L 791 288
L 793 287
L 795 288
L 797 280
L 799 275
L 801 279
L 803 290
L 805 281
L 807 273
L 809 275
L 811 274
L 813 275
L 815 275
L 817 267
L 819 267
L 822 271
L 824 266
L 826 275
L 828 277
L 830 278
L 832 284
L 834 290
L 836 285
L 838 282
L 840 278
L 842 268
L 844 262
L 846 260
L 848 259
L 850 258
L 852 260
L 854 270
L 856 281
L 859 284
L 861 286
L 863 290
L 865 295
L 867 297
L 869 296
L 871 295
L 873 290
L 875 289
L 877 289
L 879 288
L 881 287
L 883 283
L 885 280
L 887 280
L 889 277
L 891 274
L 893 272
L 896 271
L 898 265
L 900 260
L 902 264
L 904 260
L 906 262
L 908 261
L 910 262
L 912 269
L 914 274
L 916 277
L 918 284
L 920 284
L 922 288
L 924 289
L 926 290
L 928 296
L 930 301
L 933 304
L 935 306
L 937 314
L 939 318
L 941 315
L 943 320
L 945 322
L 947 323
L 949 328
L 951 328
L 953 329
L 955 332
L 957 331
L 959 335
L 961 338
L 963 339
L 965 340
L 967 340
L 969 343" style="stroke-width:1;stroke:rgba(0,116,217,1.0);fill:none"/><path  d="M 38 351
L 41 351
L 43 351
L 45 351
L 47 351
L 49 351
L 51 351
L 53 351
L 55 351
L 57 351
L 59 351
L 61 351
L 63 351
L 65 351
L 67 351
L 69 351
L 71 351
L 73 351
L 75 351
L 78 348
L 80 350
L 82 350
L 84 349
L 86 351
L 88 350
L 90 350
L 92 349
L 94 350
L 96 349
L 98 349
L 100 350
L 102 349
L 104 348
L 106 351
L 108 351
L 110 350
L 112 351
L 115 350
L 117 351
L 119 351
L 121 350
L 123 350
L 125 350
L 127 351
L 129 351
L 131 351
L 133 351
L 135 351
L 137 350
L 139 351
L 141 351
L 143 351
L 145 351
L 147 351
L 149 351
L 152 351
L 154 351
L 156 351
L 158 351
L 160 351
L 162 351
L 164 351
L 166 351
L 168 351
L 170 351
L 172 351
L 174 351
L 176 351
L 178 351
L 180 351
L 182 351
L 184 351
L 186 351
L 189 351
L 191 351
L 193 351
L 195 351
L 197 351
L 199 351
L 201 351
L 203 351
L 205 351
L 207 351
L 209 351
L 211 351
L 213 351
L 215 351
L 217 351
L 219 351
L 221 351
L 223 351
L 226 351
L 228 351
L 230 351
L 232 351
L 234 351
L 236 351
L 238 351
L 240 351
L 242 351
L 244 351
L 246 351
L 248 351
L 250 351
L 252 351
L 254 351
L 256 351
L 258 351
L 260 351
L 263 350
L 265 351
L 267 351
L 269 351
L 271 351
L 273 350
L 275 350
L 277 351
L 279 351
L 281 351
L 283 351
L 285 351
L 287 351
L 289 351
L 291 351
L 293 351
L 295 351
L 297 351
L 300 351
L 302 350
L 304 350
L 306 351
L 308 351
L 310 350
L 312 351
L 314 351
L 316 350
L 318 351
L 320 351
L 322 351
L 324 351
L 326 350
L 328 351
L 330 351
L 332 351
L 334 351
L 337 351
L 339 351
L 341 351
L 343 351
L 345 351
L 347 351
L 349 351
L 351 351
L 353 351
L 355 351
L 357 351
L 359 351
L 361 351
L 363 351
L 365 351
L 367 351
L 369 350
L 371 351
L 373 351
L 376 351
L 378 351
L 380 351
L 382 350
L 384 351
L 386 351
L 388 350
L 390 350
L 392 350
L 394 351
L 396 350
L 398 351
L 400 350
L 402 351
L 404 350
L 406 350
L 408 350
L 410 351
L 413 351
L 415 350
L 417 351
L 419 351
L 421 351
L 423 350
L 425 351
L 427 351
L 429 351
L 431 351
L 433 351
L 435 351
L 437 351
L 439 351
L 441 350
L 443 351
L 445 350
L 447 351
L 450 351
L 452 351
L 454 351
L 456 350
L 458 350
L 460 351
L 462 349
L 464 350
L 466 350
L 468 350
L 470 350
L 472 349
L 474 350
L 476 350
L 478 350
L 480 351
L 482 350
L 484 350
L 487 350
L 489 351
L 491 350
L 493 350
L 495 350
L 497 350
L 499 349
L 501 349
L 503 348
L 505 350
L 507 349
L 509 349
L 511 346
L 513 350
L 515 350
L 517 350
L 519 349
L 521 349
L 524 350
L 526 348
L 528 347
L 530 345
L 532 348
L 534 348
L 536 349
L 538 346
L 540 346
L 542 346
L 544 343
L 546 343
L 548 334
L 550 346
L 552 341
L 554 339
L 556 319
L 558 337
L 561 336
L 563 344
L 565 343
L 567 341
L 569 330
L 571 309
L 573 320
L 575 319
L 577 331
L 579 343
L 581 323
L 583 304
L 585 339
L 587 330
L 589 331
L 591 328
L 593 342
L 595 337
L 598 329
L 600 326
L 602 334
L 604 333
L 606 335
L 608 340
L 610 341
L 612 337
L 614 337
L 616 339
L 618 337
L 620 344
L 622 348
L 624 340
L 626 344
L 628 341
L 630 341
L 632 343
L 635 344
L 637 341
L 639 338
L 641 339
L 643 346
L 645 343
L 647 346
L 649 344
L 651 345
L 653 328
L 655 340
L 657 338
L 659 342
L 661 342
L 663 348
L 665 346
L 667 344
L 669 343
L 671 337
L 674 342
L 676 346
L 678 342
L 680 343
L 682 339
L 684 346
L 686 344
L 688 344
L 690 337
L 692 346
L 694 341
L 696 343
L 698 340
L 700 345
L 702 345
L 704 346
L 706 347
L 708 345
L 711 346
L 713 349
L 715 333
L 717 347
L 719 347
L 721 346
L 723 346
L 725 345
L 727 343
L 729 343
L 731 347
L 733 346
L 735 347
L 737 346
L 739 344
L 741 344
L 743 343
L 745 348
L 748 349
L 750 343
L 752 345
L 754 347
L 756 344
L 758 346
L 760 345
L 762 346
L 764 348
L 766 348
L 768 347
L 770 344
L 772 348
L 774 347
L 776 348
L 778 349
L 780 348
L 782 345
L 785 346
L 787 343
L 789 339
L 791 346
L 793 349
L 795 348
L 797 340
L 799 343
L 801 345
L 803 346
L 805 341
L 807 344
L 809 349
L 811 339
L 813 344
L 815 345
L 817 341
L 819 340
L 822 347
L 824 346
L 826 345
L 828 345
L 830 345
L 832 345
L 834 344
L 836 344
L 838 344
L 840 343
L 842 339
L 844 341
L 846 344
L 848 343
L 850 343
L 852 346
L 854 349
L 856 346
L 859 344
L 861 345
L 863 346
L 865 346
L 867 347
L 869 348
L 871 345
L 873 341
L 875 345
L 877 346
L 879 345
L 881 346
L 883 346
L 885 343
L 887 340
L 889 344
L 891 344
L 893 344
L 896 346
L 898 343
L 900 340
L 902 342
L 904 341
L 906 345
L 908 343
L 910 346
L 912 347
L 914 343
L 916 344
L 918 345
L 920 346
L 922 345
L 924 347
L 926 348
L 928 346
L 930 347
L 933 347
L 935 347
L 937 349
L 939 350
L 941 346
L 943 350
L 945 348
L 947 348
L 949 350
L 951 349
L 953 351
L 955 348
L 957 349
L 959 350
L 961 349
L 963 351
L 965 350
L 967 351
L 969 349" style="stroke-width:1;stroke:rgba(0,217,101,1.0);fill:none"/><path  d="M 38 351
L 41 351
L 43 351
L 45 351
L 47 351
L 49 351
L 51 351
L 53 351
L 55 351
L 57 351
L 59 351
L 61 351
L 63 351
L 65 351
L 67 351
L 69 351
L 71 351
L 73 351
L 75 351
L 78 351
L 80 351
L 82 351
L 84 351
L 86 351
L 88 350
L 90 351
L 92 351
L 94 351
L 96 351
L 98 351
L 100 351
L 102 351
L 104 351
L 106 351
L 108 351
L 110 351
L 112 351
L 115 351
L 117 351
L 119 351
L 121 351
L 123 351
L 125 351
L 127 351
L 129 351
L 131 351
L 133 351
L 135 351
L 137 351
L 139 351
L 141 351
L 143 350
L 145 351
L 147 351
L 149 351
L 152 351
L 154 351
L 156 351
L 158 351
L 160 351
L 162 351
L 164 351
L 166 351
L 168 351
L 170 351
L 172 351
L 174 351
L 176 351
L 178 351
L 180 351
L 182 351
L 184 351
L 186 351
L 189 351
L 191 351
L 193 351
L 195 351
L 197 351
L 199 351
L 201 351
L 203 351
L 205 351
L 207 351
L 209 351
L 211 351
L 213 351
L 215 351
L 217 351
L 219 351
L 221 351
L 223 351
L 226 351
L 228 351
L 230 351
L 232 351
L 234 351
L 236 351
L 238 351
L 240 351
L 242 351
L 244 351
L 246 351
L 248 351
L 250 351
L 252 351
L 254 351
L 256 351
L 258 351
L 260 351
L 263 351
L 265 351
L 267 351
L 269 351
L 271 351
L 273 351
L 275 351
L 277 351
L 279 351
L 281 351
L 283 351
L 285 351
L 287 351
L 289 351
L 291 351
L 293 351
L 295 351
L 297 351
L 300 351
L 302 351
L 304 351
L 306 351
L 308 351
L 310 351
L 312 351
L 314 351
L 316 351
L 318 351
L 320 351
L 322 351
L 324 351
L 326 351
L 328 351
L 330 351
L 332 351
L 334 351
L 337 351
L 339 351
L 341 351
L 343 351
L 345 351
L 347 351
L 349 351
L 351 351
L 353 351
L 355 351
L 357 351
L 359 351
L 361 351
L 363 351
L 365 351
L 367 351
L 369 351
L 371 351
L 373 351
L 376 351
L 378 351
L 380 351
L 382 351
L 384 351
L 386 351
L 388 351
L 390 351
L 392 351
L 394 351
L 396 351
L 398 351
L 400 351
L 402 351
L 404 351
L 406 351
L 408 351
L 410 351
L 413 351
L 415 351
L 417 351
L 419 351
L 421 351
L 423 351
L 425 351
L 427 351
L 429 351
L 431 351
L 433 351
L 435 351
L 437 351
L 439 351
L 441 351
L 443 351
L 445 351
L 447 351
L 450 351
L 452 351
L 454 351
L 456 351
L 458 351
L 460 351
L 462 351
L 464 351
L 466 351
L 468 351
L 470 351
L 472 351
L 474 351
L 476 351
L 478 351
L 480 351
L 482 351
L 484 351
L 487 351
L 489 351
L 491 351
L 493 351
L 495 351
L 497 351
L 499 351
L 501 351
L 503 351
L 505 351
L 507 351
L 509 351
L 511 351
L 513 351
L 515 351
L 517 351
L 519 351
L 521 351
L 524 351
L 526 351
L 528 351
L 530 351
L 532 351
L 534 351
L 536 351
L 538 351
L 540 351
L 542 351
L 544 351
L 546 351
L 548 351
L 550 351
L 552 351
L 554 351
L 556 351
L 558 351
L 561 351
L 563 351
L 565 351
L 567 351
L 569 351
L 571 351
L 573 351
L 575 350
L 577 351
L 579 350
L 581 351
L 583 351
L 585 351
L 587 351
L 589 351
L 591 351
L 593 351
L 595 351
L 598 351
L 600 351
L 602 351
L 604 350
L 606 351
L 608 350
L 610 351
L 612 350
L 614 351
L 616 350
L 618 351
L 620 351
L 622 351
L 624 351
L 626 350
L 628 351
L 630 351
L 632 351
L 635 351
L 637 350
L 639 351
L 641 351
L 643 350
L 645 351
L 647 349
L 649 350
L 651 351
L 653 351
L 655 349
L 657 350
L 659 350
L 661 351
L 663 350
L 665 350
L 667 350
L 669 350
L 671 350
L 674 350
L 676 351
L 678 351
L 680 350
L 682 350
L 684 351
L 686 351
L 688 350
L 690 351
L 692 351
L 694 351
L 696 349
L 698 350
L 700 351
L 702 351
L 704 350
L 706 350
L 708 350
L 711 350
L 713 350
L 715 350
L 717 350
L 719 351
L 721 351
L 723 350
L 725 351
L 727 351
L 729 351
L 731 351
L 733 350
L 735 351
L 737 351
L 739 351
L 741 350
L 743 351
L 745 351
L 748 350
L 750 351
L 752 351
L 754 351
L 756 351
L 758 351
L 760 351
L 762 351
L 764 351
L 766 351
L 768 351
L 770 351
L 772 351
L 774 350
L 776 351
L 778 351
L 780 351
L 782 350
L 785 351
L 787 351
L 789 350
L 791 351
L 793 351
L 795 351
L 797 351
L 799 351
L 801 351
L 803 351
L 805 351
L 807 351
L 809 351
L 811 350
L 813 350
L 815 351
L 817 351
L 819 351
L 822 351
L 824 351
L 826 351
L 828 351
L 830 351
L 832 351
L 834 351
L 836 351
L 838 351
L 840 351
L 842 351
L 844 351
L 846 351
L 848 351
L 850 351
L 852 351
L 854 351
L 856 351
L 859 351
L 861 351
L 863 350
L 865 351
L 867 351
L 869 351
L 871 351
L 873 351
L 875 350
L 877 351
L 879 351
L 881 351
L 883 351
L 885 351
L 887 350
L 889 351
L 891 351
L 893 351
L 896 350
L 898 351
L 900 351
L 902 351
L 904 351
L 906 351
L 908 351
L 910 351
L 912 351
L 914 351
L 916 351
L 918 351
L 920 351
L 922 351
L 924 351
L 926 351
L 928 351
L 930 351
L 933 351
L 935 351
L 937 351
L 939 351
L 941 351
L 943 351
L 945 351
L 947 351
L 949 351
L 951 351
L 953 351
L 955 351
L 957 351
L 959 351
L 961 351
L 963 351
L 965 350
L 967 351
L 969 351" style="stroke-width:1;stroke:rgba(217,0,116,1.0);fill:none"/><text x="368" y="33" style="stroke-width:0;stroke:none;fill:rgba(51,51,51,1.0);font-size:23.0px;font-family:'Roboto Medium',sans-serif">Klagenfurt Land 24.05.2021</text><path  d="M 38 11
L 251 11
L 251 91
L 38 91
L 38 11" style="stroke-width:1;stroke:rgba(51,51,51,1.0);fill:rgba(255,255,255,1.0)"/><text x="43" y="26" style="stroke-width:0;stroke:none;fill:rgba(51,51,51,1.0);font-size:10.2px;font-family:'Roboto Medium',sans-serif">Sieben Tage Durschnitt Inzidenz Fälle</text><path  d="M 221 21
L 241 21" style="stroke-width:1;stroke:rgba(0,116,217,1.0);fill:none"/><text x="43" y="56" style="stroke-width:0;stroke:none;fill:rgba(51,51,51,1.0);font-size:10.2px;font-family:'Roboto Medium',sans-serif">Anzahl Faelle</text><path  d="M 110 51
L 241 51" style="stroke-width:1;stroke:rgba(0,217,101,1.0);fill:none"/><text x="43" y="86" style="stroke-width:0;stroke:none;fill:rgba(51,51,51,1.0);font-size:10.2px;font-family:'Roboto Medium',sans-serif">Anzahl Tot</text><path  d="M 98 81
L 241 81" style="stroke-width:1;stroke:rgba(217,0,116,1.0);fill:none"/></svg>