<svg xmlns="http://www.w3.org/2000/svg" xmlns:xlink="http://www.w3.org/1999/xlink" width="1024" height="400">\n<path  d="M 0 0
L 1024 0
L 1024 400
L 0 400
L 0 0" style="stroke-width:0;stroke:rgba(255,255,255,1.0);fill:rgba(255,255,255,1.0)"/><path  d="M 38 11
L 961 11
L 961 351
L 38 351
L 38 11" style="stroke-width:0;stroke:rgba(255,255,255,1.0);fill:rgba(255,255,255,1.0)"/><path  d="M 38 351
L 961 351" style="stroke-width:1;stroke:rgba(51,51,51,1.0);fill:none"/><path  d="M 38 351
L 38 356" style="stroke-width:1;stroke:rgba(51,51,51,1.0);fill:none"/><text x="5" y="373" style="stroke-width:0;stroke:none;fill:rgba(51,51,51,1.0);font-size:12.8px;font-family:'Roboto Medium',sans-serif">2020-02-26</text><path  d="M 154 351
L 154 356" style="stroke-width:1;stroke:rgba(51,51,51,1.0);fill:none"/><text x="121" y="373" style="stroke-width:0;stroke:none;fill:rgba(51,51,51,1.0);font-size:12.8px;font-family:'Roboto Medium',sans-serif">2020-06-13</text><path  d="M 269 351
L 269 356" style="stroke-width:1;stroke:rgba(51,51,51,1.0);fill:none"/><text x="236" y="373" style="stroke-width:0;stroke:none;fill:rgba(51,51,51,1.0);font-size:12.8px;font-family:'Roboto Medium',sans-serif">2020-09-29</text><path  d="M 385 351
L 385 356" style="stroke-width:1;stroke:rgba(51,51,51,1.0);fill:none"/><text x="352" y="373" style="stroke-width:0;stroke:none;fill:rgba(51,51,51,1.0);font-size:12.8px;font-family:'Roboto Medium',sans-serif">2021-01-15</text><path  d="M 500 351
L 500 356" style="stroke-width:1;stroke:rgba(51,51,51,1.0);fill:none"/><text x="467" y="373" style="stroke-width:0;stroke:none;fill:rgba(51,51,51,1.0);font-size:12.8px;font-family:'Roboto Medium',sans-serif">2021-05-04</text><path  d="M 615 351
L 615 356" style="stroke-width:1;stroke:rgba(51,51,51,1.0);fill:none"/><text x="582" y="373" style="stroke-width:0;stroke:none;fill:rgba(51,51,51,1.0);font-size:12.8px;font-family:'Roboto Medium',sans-serif">2021-08-20</text><path  d="M 731 351
L 731 356" style="stroke-width:1;stroke:rgba(51,51,51,1.0);fill:none"/><text x="698" y="373" style="stroke-width:0;stroke:none;fill:rgba(51,51,51,1.0);font-size:12.8px;font-family:'Roboto Medium',sans-serif">2021-12-06</text><path  d="M 846 351
L 846 356" style="stroke-width:1;stroke:rgba(51,51,51,1.0);fill:none"/><text x="813" y="373" style="stroke-width:0;stroke:none;fill:rgba(51,51,51,1.0);font-size:12.8px;font-family:'Roboto Medium',sans-serif">2022-03-24</text><path  d="M 961 351
L 961 356" style="stroke-width:1;stroke:rgba(51,51,51,1.0);fill:none"/><text x="928" y="373" style="stroke-width:0;stroke:none;fill:rgba(51,51,51,1.0);font-size:12.8px;font-family:'Roboto Medium',sans-serif">2022-07-11</text><text x="481" y="395" style="stroke-width:0;stroke:none;fill:rgba(51,51,51,1.0);font-size:12.8px;font-family:'Roboto Medium',sans-serif">Datum</text><path  d="M 962 351
L 962 11" style="stroke-width:1;stroke:rgba(51,51,51,1.0);fill:none"/><path  d="M 962 351
L 967 351" style="stroke-width:1;stroke:rgba(51,51,51,1.0);fill:none"/><text x="972" y="357" style="stroke-width:0;stroke:none;fill:rgba(51,51,51,1.0);font-size:12.8px;font-family:'Roboto Medium',sans-serif">0.00</text><path  d="M 962 308
L 967 308" style="stroke-width:1;stroke:rgba(51,51,51,1.0);fill:none"/><text x="972" y="314" style="stroke-width:0;stroke:none;fill:rgba(51,51,51,1.0);font-size:12.8px;font-family:'Roboto Medium',sans-serif">350.00</text><path  d="M 962 266
L 967 266" style="stroke-width:1;stroke:rgba(51,51,51,1.0);fill:none"/><text x="972" y="272" style="stroke-width:0;stroke:none;fill:rgba(51,51,51,1.0);font-size:12.8px;font-family:'Roboto Medium',sans-serif">700.00</text><path  d="M 962 223
L 967 223" style="stroke-width:1;stroke:rgba(51,51,51,1.0);fill:none"/><text x="972" y="229" style="stroke-width:0;stroke:none;fill:rgba(51,51,51,1.0);font-size:12.8px;font-family:'Roboto Medium',sans-serif">1050.00</text><path  d="M 962 181
L 967 181" style="stroke-width:1;stroke:rgba(51,51,51,1.0);fill:none"/><text x="972" y="187" style="stroke-width:0;stroke:none;fill:rgba(51,51,51,1.0);font-size:12.8px;font-family:'Roboto Medium',sans-serif">1400.00</text><path  d="M 962 138
L 967 138" style="stroke-width:1;stroke:rgba(51,51,51,1.0);fill:none"/><text x="972" y="144" style="stroke-width:0;stroke:none;fill:rgba(51,51,51,1.0);font-size:12.8px;font-family:'Roboto Medium',sans-serif">1750.00</text><path  d="M 962 96
L 967 96" style="stroke-width:1;stroke:rgba(51,51,51,1.0);fill:none"/><text x="972" y="102" style="stroke-width:0;stroke:none;fill:rgba(51,51,51,1.0);font-size:12.8px;font-family:'Roboto Medium',sans-serif">2100.00</text><path  d="M 962 53
L 967 53" style="stroke-width:1;stroke:rgba(51,51,51,1.0);fill:none"/><text x="972" y="59" style="stroke-width:0;stroke:none;fill:rgba(51,51,51,1.0);font-size:12.8px;font-family:'Roboto Medium',sans-serif">2450.00</text><path  d="M 962 11
L 967 11" style="stroke-width:1;stroke:rgba(51,51,51,1.0);fill:none"/><text x="972" y="17" style="stroke-width:0;stroke:none;fill:rgba(51,51,51,1.0);font-size:12.8px;font-family:'Roboto Medium',sans-serif">2800.00</text><path  d="M 38 351
L 40 351
L 41 351
L 42 351
L 43 351
L 44 351
L 45 351
L 46 351
L 47 351
L 48 351
L 49 351
L 50 351
L 51 351
L 52 351
L 53 351
L 54 350
L 56 350
L 57 350
L 58 350
L 59 350
L 60 349
L 61 349
L 62 349
L 63 349
L 64 348
L 65 348
L 66 348
L 67 347
L 68 347
L 69 348
L 70 347
L 72 347
L 73 347
L 74 347
L 75 348
L 76 348
L 77 348
L 78 349
L 79 349
L 80 350
L 81 349
L 82 349
L 83 349
L 84 348
L 85 348
L 86 348
L 88 348
L 89 348
L 90 348
L 91 349
L 92 350
L 93 350
L 94 350
L 95 350
L 96 351
L 97 351
L 98 351
L 99 351
L 100 351
L 101 350
L 102 350
L 104 350
L 105 350
L 106 350
L 107 350
L 108 350
L 109 350
L 110 351
L 111 351
L 112 351
L 113 351
L 114 351
L 115 351
L 116 351
L 117 351
L 118 351
L 120 351
L 121 351
L 122 351
L 123 351
L 124 351
L 125 351
L 126 351
L 127 351
L 128 351
L 129 351
L 130 351
L 131 351
L 132 351
L 133 351
L 134 351
L 135 350
L 137 350
L 138 350
L 139 350
L 140 350
L 141 350
L 142 350
L 143 351
L 144 351
L 145 351
L 146 351
L 147 351
L 148 351
L 149 351
L 150 351
L 151 351
L 153 351
L 154 351
L 155 351
L 156 351
L 157 351
L 158 351
L 159 351
L 160 351
L 161 350
L 162 350
L 163 350
L 164 350
L 165 350
L 166 350
L 167 350
L 169 350
L 170 350
L 171 350
L 172 350
L 173 350
L 174 350
L 175 350
L 176 350
L 177 350
L 178 350
L 179 350
L 180 350
L 181 350
L 182 350
L 183 350
L 185 350
L 186 350
L 187 350
L 188 350
L 189 350
L 190 350
L 191 350
L 192 350
L 193 350
L 194 350
L 195 350
L 196 350
L 197 350
L 198 350
L 199 350
L 201 351
L 202 351
L 203 351
L 204 350
L 205 350
L 206 350
L 207 350
L 208 350
L 209 350
L 210 350
L 211 350
L 212 350
L 213 350
L 214 350
L 215 350
L 216 350
L 218 350
L 219 348
L 220 347
L 221 346
L 222 346
L 223 346
L 224 346
L 225 346
L 226 347
L 227 349
L 228 349
L 229 350
L 230 350
L 231 350
L 232 350
L 234 350
L 235 349
L 236 349
L 237 349
L 238 349
L 239 349
L 240 350
L 241 350
L 242 350
L 243 350
L 244 350
L 245 350
L 246 350
L 247 350
L 248 350
L 250 350
L 251 350
L 252 350
L 253 350
L 254 350
L 255 350
L 256 350
L 257 350
L 258 350
L 259 350
L 260 350
L 261 350
L 262 349
L 263 349
L 264 348
L 266 348
L 267 348
L 268 348
L 269 348
L 270 348
L 271 349
L 272 349
L 273 349
L 274 349
L 275 349
L 276 349
L 277 349
L 278 348
L 279 347
L 280 347
L 282 346
L 283 344
L 284 343
L 285 343
L 286 342
L 287 342
L 288 339
L 289 340
L 290 340
L 291 340
L 292 339
L 293 336
L 294 335
L 295 337
L 296 336
L 297 335
L 299 332
L 300 327
L 301 322
L 302 321
L 303 317
L 304 316
L 305 312
L 306 310
L 307 308
L 308 306
L 309 305
L 310 308
L 311 308
L 312 310
L 313 307
L 315 294
L 316 285
L 317 275
L 318 266
L 319 265
L 320 259
L 321 244
L 322 262
L 323 274
L 324 285
L 325 286
L 326 285
L 327 290
L 328 303
L 329 301
L 331 302
L 332 300
L 333 299
L 334 301
L 335 302
L 336 306
L 337 306
L 338 308
L 339 311
L 340 318
L 341 319
L 342 318
L 343 320
L 344 322
L 345 321
L 347 321
L 348 320
L 349 319
L 350 321
L 351 320
L 352 322
L 353 326
L 354 328
L 355 330
L 356 332
L 357 332
L 358 332
L 359 328
L 360 327
L 361 327
L 363 327
L 364 325
L 365 326
L 366 327
L 367 332
L 368 331
L 369 332
L 370 331
L 371 332
L 372 333
L 373 334
L 374 336
L 375 338
L 376 333
L 377 334
L 378 334
L 380 335
L 381 335
L 382 334
L 383 334
L 384 338
L 385 339
L 386 340
L 387 340
L 388 341
L 389 342
L 390 342
L 391 341
L 392 341
L 393 340
L 394 341
L 396 341
L 397 341
L 398 341
L 399 343
L 400 342
L 401 342
L 402 341
L 403 340
L 404 340
L 405 340
L 406 339
L 407 339
L 408 340
L 409 340
L 410 340
L 412 340
L 413 339
L 414 340
L 415 339
L 416 339
L 417 339
L 418 338
L 419 338
L 420 337
L 421 337
L 422 337
L 423 336
L 424 336
L 425 336
L 426 336
L 428 335
L 429 333
L 430 333
L 431 334
L 432 333
L 433 333
L 434 333
L 435 333
L 436 334
L 437 334
L 438 333
L 439 333
L 440 333
L 441 331
L 442 331
L 444 330
L 445 329
L 446 329
L 447 332
L 448 331
L 449 331
L 450 333
L 451 334
L 452 335
L 453 335
L 454 334
L 455 335
L 456 336
L 457 336
L 458 336
L 459 333
L 461 333
L 462 332
L 463 330
L 464 327
L 465 328
L 466 327
L 467 329
L 468 329
L 469 329
L 470 329
L 471 329
L 472 328
L 473 328
L 474 327
L 475 327
L 477 328
L 478 329
L 479 331
L 480 333
L 481 333
L 482 332
L 483 332
L 484 331
L 485 333
L 486 334
L 487 333
L 488 335
L 489 336
L 490 336
L 491 337
L 493 337
L 494 336
L 495 336
L 496 335
L 497 334
L 498 335
L 499 335
L 500 336
L 501 336
L 502 337
L 503 339
L 504 341
L 505 342
L 506 342
L 507 342
L 509 343
L 510 343
L 511 343
L 512 343
L 513 343
L 514 344
L 515 344
L 516 345
L 517 345
L 518 345
L 519 345
L 520 346
L 521 346
L 522 347
L 523 348
L 525 348
L 526 348
L 527 348
L 528 348
L 529 348
L 530 348
L 531 348
L 532 347
L 533 348
L 534 348
L 535 348
L 536 348
L 537 348
L 538 348
L 539 349
L 541 349
L 542 349
L 543 349
L 544 349
L 545 349
L 546 350
L 547 350
L 548 350
L 549 349
L 550 349
L 551 349
L 552 349
L 553 349
L 554 349
L 555 350
L 556 350
L 558 350
L 559 350
L 560 350
L 561 350
L 562 350
L 563 350
L 564 351
L 565 351
L 566 351
L 567 350
L 568 350
L 569 348
L 570 348
L 571 348
L 572 348
L 574 347
L 575 347
L 576 346
L 577 348
L 578 348
L 579 348
L 580 348
L 581 349
L 582 348
L 583 348
L 584 348
L 585 348
L 586 348
L 587 348
L 588 348
L 590 347
L 591 347
L 592 346
L 593 345
L 594 344
L 595 345
L 596 344
L 597 344
L 598 344
L 599 344
L 600 344
L 601 345
L 602 344
L 603 345
L 604 343
L 606 343
L 607 342
L 608 343
L 609 343
L 610 342
L 611 342
L 612 343
L 613 343
L 614 343
L 615 343
L 616 343
L 617 343
L 618 343
L 619 342
L 620 341
L 622 342
L 623 341
L 624 341
L 625 340
L 626 341
L 627 342
L 628 342
L 629 341
L 630 341
L 631 341
L 632 340
L 633 340
L 634 340
L 635 339
L 636 338
L 637 338
L 639 338
L 640 339
L 641 339
L 642 338
L 643 338
L 644 340
L 645 340
L 646 340
L 647 340
L 648 340
L 649 338
L 650 339
L 651 338
L 652 336
L 653 336
L 655 334
L 656 331
L 657 329
L 658 326
L 659 325
L 660 327
L 661 326
L 662 326
L 663 328
L 664 329
L 665 331
L 666 331
L 667 329
L 668 329
L 669 329
L 671 329
L 672 331
L 673 332
L 674 333
L 675 334
L 676 335
L 677 336
L 678 336
L 679 332
L 680 329
L 681 325
L 682 323
L 683 319
L 684 318
L 685 315
L 687 315
L 688 316
L 689 313
L 690 309
L 691 309
L 692 307
L 693 306
L 694 304
L 695 300
L 696 295
L 697 292
L 698 286
L 699 285
L 700 279
L 701 274
L 703 258
L 704 257
L 705 255
L 706 259
L 707 255
L 708 254
L 709 249
L 710 246
L 711 237
L 712 229
L 713 217
L 714 218
L 715 218
L 716 219
L 717 222
L 718 220
L 720 224
L 721 223
L 722 217
L 723 216
L 724 217
L 725 223
L 726 238
L 727 250
L 728 260
L 729 269
L 730 275
L 731 280
L 732 291
L 733 300
L 734 299
L 736 304
L 737 306
L 738 310
L 739 317
L 740 320
L 741 321
L 742 326
L 743 330
L 744 332
L 745 334
L 746 335
L 747 336
L 748 335
L 749 335
L 750 335
L 752 333
L 753 331
L 754 328
L 755 327
L 756 324
L 757 323
L 758 323
L 759 324
L 760 322
L 761 316
L 762 309
L 763 300
L 764 295
L 765 283
L 766 274
L 768 265
L 769 257
L 770 256
L 771 249
L 772 242
L 773 235
L 774 228
L 775 225
L 776 213
L 777 197
L 778 182
L 779 159
L 780 150
L 781 142
L 782 131
L 784 112
L 785 87
L 786 63
L 787 62
L 788 52
L 789 54
L 790 52
L 791 52
L 792 71
L 793 84
L 794 73
L 795 57
L 796 47
L 797 50
L 798 37
L 799 20
L 801 20
L 802 35
L 803 59
L 804 64
L 805 65
L 806 85
L 807 103
L 808 111
L 809 117
L 810 121
L 811 125
L 812 121
L 813 120
L 814 117
L 815 123
L 817 122
L 818 122
L 819 130
L 820 136
L 821 141
L 822 143
L 823 140
L 824 135
L 825 127
L 826 113
L 827 104
L 828 83
L 829 63
L 830 48
L 831 43
L 833 36
L 834 34
L 835 37
L 836 25
L 837 17
L 838 22
L 839 19
L 840 19
L 841 18
L 842 15
L 843 31
L 844 50
L 845 56
L 846 72
L 847 88
L 849 104
L 850 113
L 851 135
L 852 155
L 853 176
L 854 183
L 855 190
L 856 202
L 857 217
L 858 221
L 859 229
L 860 233
L 861 244
L 862 248
L 863 251
L 865 259
L 866 277
L 867 287
L 868 291
L 869 294
L 870 296
L 871 297
L 872 295
L 873 297
L 874 292
L 875 294
L 876 293
L 877 298
L 878 297
L 879 299
L 880 301
L 882 306
L 883 308
L 884 311
L 885 309
L 886 311
L 887 310
L 888 310
L 889 312
L 890 313
L 891 311
L 892 313
L 893 312
L 894 315
L 895 314
L 896 313
L 898 315
L 899 318
L 900 319
L 901 319
L 902 320
L 903 321
L 904 323
L 905 324
L 906 326
L 907 327
L 908 330
L 909 330
L 910 335
L 911 336
L 912 338
L 914 340
L 915 341
L 916 340
L 917 342
L 918 341
L 919 338
L 920 336
L 921 334
L 922 332
L 923 331
L 924 329
L 925 328
L 926 325
L 927 325
L 928 324
L 930 324
L 931 324
L 932 325
L 933 323
L 934 325
L 935 325
L 936 327
L 937 323
L 938 321
L 939 318
L 940 308
L 941 306
L 942 302
L 943 297
L 944 296
L 946 294
L 947 292
L 948 295
L 949 292
L 950 290
L 951 287
L 952 287
L 953 285
L 954 281
L 955 280
L 956 277
L 957 274
L 958 270
L 959 267
L 960 269
L 961 268" style="stroke-width:1;stroke:rgba(0,116,217,1.0);fill:none"/><path  d="M 38 351
L 40 351
L 41 351
L 42 351
L 43 351
L 44 351
L 45 351
L 46 351
L 47 351
L 48 351
L 49 351
L 50 351
L 51 351
L 52 351
L 53 351
L 54 350
L 56 351
L 57 350
L 58 350
L 59 350
L 60 350
L 61 350
L 62 350
L 63 351
L 64 350
L 65 350
L 66 350
L 67 349
L 68 350
L 69 350
L 70 350
L 72 350
L 73 350
L 74 350
L 75 350
L 76 350
L 77 351
L 78 350
L 79 351
L 80 350
L 81 350
L 82 350
L 83 349
L 84 350
L 85 350
L 86 351
L 88 350
L 89 350
L 90 351
L 91 351
L 92 351
L 93 351
L 94 351
L 95 351
L 96 351
L 97 351
L 98 351
L 99 351
L 100 351
L 101 350
L 102 350
L 104 351
L 105 351
L 106 351
L 107 351
L 108 351
L 109 351
L 110 351
L 111 351
L 112 351
L 113 351
L 114 351
L 115 351
L 116 351
L 117 351
L 118 351
L 120 351
L 121 351
L 122 351
L 123 351
L 124 351
L 125 351
L 126 351
L 127 351
L 128 351
L 129 351
L 130 351
L 131 351
L 132 351
L 133 351
L 134 351
L 135 350
L 137 351
L 138 351
L 139 351
L 140 351
L 141 351
L 142 351
L 143 351
L 144 351
L 145 351
L 146 351
L 147 351
L 148 351
L 149 351
L 150 351
L 151 351
L 153 351
L 154 351
L 155 351
L 156 351
L 157 351
L 158 351
L 159 351
L 160 351
L 161 350
L 162 351
L 163 351
L 164 350
L 165 351
L 166 350
L 167 351
L 169 351
L 170 351
L 171 351
L 172 350
L 173 351
L 174 351
L 175 351
L 176 351
L 177 351
L 178 350
L 179 351
L 180 351
L 181 350
L 182 350
L 183 350
L 185 351
L 186 351
L 187 351
L 188 351
L 189 351
L 190 350
L 191 351
L 192 351
L 193 350
L 194 351
L 195 351
L 196 351
L 197 351
L 198 351
L 199 351
L 201 351
L 202 351
L 203 351
L 204 350
L 205 350
L 206 350
L 207 351
L 208 350
L 209 350
L 210 351
L 211 350
L 212 351
L 213 350
L 214 351
L 215 351
L 216 350
L 218 350
L 219 349
L 220 349
L 221 350
L 222 350
L 223 350
L 224 350
L 225 350
L 226 350
L 227 351
L 228 350
L 229 351
L 230 350
L 231 351
L 232 350
L 234 350
L 235 350
L 236 351
L 237 350
L 238 351
L 239 351
L 240 351
L 241 350
L 242 351
L 243 351
L 244 351
L 245 351
L 246 351
L 247 350
L 248 350
L 250 351
L 251 350
L 252 351
L 253 350
L 254 350
L 255 350
L 256 351
L 257 350
L 258 351
L 259 350
L 260 350
L 261 350
L 262 350
L 263 350
L 264 350
L 266 350
L 267 350
L 268 350
L 269 351
L 270 350
L 271 351
L 272 350
L 273 350
L 274 351
L 275 350
L 276 350
L 277 350
L 278 350
L 279 349
L 280 350
L 282 349
L 283 349
L 284 350
L 285 349
L 286 349
L 287 349
L 288 346
L 289 350
L 290 349
L 291 349
L 292 349
L 293 347
L 294 347
L 295 349
L 296 349
L 297 348
L 299 347
L 300 343
L 301 342
L 302 346
L 303 346
L 304 348
L 305 343
L 306 345
L 307 341
L 308 340
L 309 345
L 310 349
L 311 347
L 312 346
L 313 342
L 315 328
L 316 331
L 317 334
L 318 340
L 319 347
L 320 339
L 321 327
L 322 346
L 323 343
L 324 345
L 325 341
L 326 346
L 327 344
L 328 340
L 329 344
L 331 343
L 332 343
L 333 341
L 334 348
L 335 345
L 336 344
L 337 344
L 338 346
L 339 346
L 340 348
L 341 348
L 342 345
L 343 346
L 344 346
L 345 344
L 347 346
L 348 346
L 349 348
L 350 346
L 351 346
L 352 347
L 353 348
L 354 349
L 355 349
L 356 350
L 357 345
L 358 347
L 359 343
L 360 347
L 361 349
L 363 349
L 364 348
L 365 347
L 366 347
L 367 347
L 368 347
L 369 350
L 370 348
L 371 349
L 372 348
L 373 348
L 374 350
L 375 349
L 376 344
L 377 349
L 378 349
L 380 349
L 381 348
L 382 348
L 383 349
L 384 349
L 385 350
L 386 350
L 387 349
L 388 349
L 389 349
L 390 349
L 391 348
L 392 350
L 393 349
L 394 350
L 396 349
L 397 349
L 398 349
L 399 349
L 400 349
L 401 350
L 402 348
L 403 348
L 404 349
L 405 349
L 406 348
L 407 350
L 408 350
L 409 349
L 410 348
L 412 349
L 413 349
L 414 349
L 415 349
L 416 350
L 417 349
L 418 347
L 419 348
L 420 348
L 421 349
L 422 349
L 423 349
L 424 349
L 425 347
L 426 349
L 428 347
L 429 347
L 430 349
L 431 350
L 432 347
L 433 348
L 434 349
L 435 346
L 436 348
L 437 349
L 438 349
L 439 347
L 440 348
L 441 347
L 442 346
L 444 348
L 445 348
L 446 349
L 447 349
L 448 347
L 449 348
L 450 348
L 451 348
L 452 349
L 453 349
L 454 349
L 455 348
L 456 349
L 457 347
L 458 348
L 459 347
L 461 348
L 462 348
L 463 346
L 464 345
L 465 348
L 466 347
L 467 349
L 468 349
L 469 347
L 470 346
L 471 346
L 472 346
L 473 347
L 474 349
L 475 348
L 477 348
L 478 347
L 479 348
L 480 348
L 481 347
L 482 348
L 483 349
L 484 347
L 485 348
L 486 349
L 487 348
L 488 348
L 489 349
L 490 349
L 491 348
L 493 348
L 494 348
L 495 348
L 496 348
L 497 348
L 498 349
L 499 349
L 500 349
L 501 349
L 502 349
L 503 350
L 504 350
L 505 351
L 506 348
L 507 349
L 509 349
L 510 349
L 511 350
L 512 350
L 513 350
L 514 350
L 515 349
L 516 350
L 517 350
L 518 350
L 519 350
L 520 351
L 521 350
L 522 350
L 523 350
L 525 350
L 526 350
L 527 349
L 528 351
L 529 350
L 530 350
L 531 350
L 532 350
L 533 350
L 534 350
L 535 350
L 536 350
L 537 350
L 538 350
L 539 350
L 541 351
L 542 351
L 543 351
L 544 350
L 545 351
L 546 351
L 547 350
L 548 350
L 549 350
L 550 351
L 551 351
L 552 350
L 553 350
L 554 350
L 555 350
L 556 350
L 558 351
L 559 351
L 560 351
L 561 351
L 562 351
L 563 351
L 564 351
L 565 351
L 566 351
L 567 350
L 568 351
L 569 348
L 570 350
L 571 350
L 572 351
L 574 349
L 575 350
L 576 350
L 577 350
L 578 350
L 579 350
L 580 350
L 581 350
L 582 350
L 583 350
L 584 350
L 585 350
L 586 350
L 587 350
L 588 350
L 590 349
L 591 350
L 592 349
L 593 350
L 594 349
L 595 350
L 596 349
L 597 350
L 598 350
L 599 350
L 600 349
L 601 350
L 602 350
L 603 350
L 604 348
L 606 350
L 607 348
L 608 350
L 609 349
L 610 350
L 611 350
L 612 349
L 613 349
L 614 349
L 615 350
L 616 349
L 617 350
L 618 349
L 619 348
L 620 349
L 622 349
L 623 349
L 624 349
L 625 350
L 626 350
L 627 349
L 628 349
L 629 348
L 630 349
L 631 349
L 632 348
L 633 350
L 634 349
L 635 349
L 636 347
L 637 349
L 639 349
L 640 350
L 641 349
L 642 349
L 643 348
L 644 349
L 645 349
L 646 349
L 647 350
L 648 349
L 649 347
L 650 348
L 651 348
L 652 347
L 653 348
L 655 348
L 656 346
L 657 346
L 658 345
L 659 347
L 660 349
L 661 347
L 662 349
L 663 348
L 664 347
L 665 347
L 666 347
L 667 347
L 668 347
L 669 348
L 671 348
L 672 349
L 673 348
L 674 348
L 675 348
L 676 348
L 677 349
L 678 348
L 679 345
L 680 344
L 681 345
L 682 346
L 683 344
L 684 348
L 685 346
L 687 345
L 688 345
L 689 342
L 690 341
L 691 345
L 692 346
L 693 345
L 694 342
L 695 341
L 696 337
L 697 337
L 698 340
L 699 345
L 700 338
L 701 338
L 703 325
L 704 336
L 705 335
L 706 343
L 707 340
L 708 338
L 709 332
L 710 322
L 711 327
L 712 327
L 713 331
L 714 341
L 715 338
L 716 334
L 717 325
L 718 324
L 720 332
L 721 330
L 722 335
L 723 337
L 724 335
L 725 331
L 726 340
L 727 343
L 728 341
L 729 344
L 730 343
L 731 340
L 732 343
L 733 349
L 734 342
L 736 346
L 737 346
L 738 347
L 739 347
L 740 346
L 741 349
L 742 348
L 743 349
L 744 348
L 745 349
L 746 348
L 747 347
L 748 349
L 749 348
L 750 349
L 752 346
L 753 347
L 754 344
L 755 346
L 756 346
L 757 347
L 758 349
L 759 348
L 760 344
L 761 339
L 762 338
L 763 337
L 764 342
L 765 337
L 766 339
L 768 335
L 769 331
L 770 337
L 771 331
L 772 334
L 773 330
L 774 332
L 775 331
L 776 319
L 777 321
L 778 315
L 779 311
L 780 321
L 781 323
L 782 321
L 784 300
L 785 295
L 786 291
L 787 310
L 788 311
L 789 325
L 790 318
L 791 300
L 792 314
L 793 303
L 794 299
L 795 296
L 796 315
L 797 320
L 798 287
L 799 297
L 801 303
L 802 313
L 803 321
L 804 320
L 805 321
L 806 308
L 807 316
L 808 311
L 809 320
L 810 324
L 811 325
L 812 317
L 813 307
L 814 313
L 815 317
L 817 318
L 818 325
L 819 332
L 820 323
L 821 312
L 822 315
L 823 315
L 824 313
L 825 317
L 826 318
L 827 314
L 828 291
L 829 294
L 830 300
L 831 307
L 833 310
L 834 316
L 835 316
L 836 279
L 837 286
L 838 304
L 839 305
L 840 310
L 841 315
L 842 313
L 843 295
L 844 305
L 845 311
L 846 321
L 847 328
L 849 331
L 850 322
L 851 318
L 852 325
L 853 333
L 854 327
L 855 335
L 856 343
L 857 337
L 858 323
L 859 332
L 860 337
L 861 339
L 862 339
L 863 346
L 865 345
L 866 341
L 867 342
L 868 341
L 869 342
L 870 342
L 871 346
L 872 343
L 873 343
L 874 338
L 875 342
L 876 342
L 877 346
L 878 346
L 879 345
L 880 345
L 882 343
L 883 344
L 884 345
L 885 344
L 886 347
L 887 344
L 888 345
L 889 345
L 890 345
L 891 343
L 892 346
L 893 347
L 894 346
L 895 344
L 896 345
L 898 346
L 899 346
L 900 347
L 901 347
L 902 347
L 903 345
L 904 347
L 905 347
L 906 347
L 907 349
L 908 350
L 909 348
L 910 349
L 911 348
L 912 349
L 914 350
L 915 349
L 916 349
L 917 350
L 918 348
L 919 346
L 920 347
L 921 348
L 922 348
L 923 348
L 924 348
L 925 347
L 926 343
L 927 346
L 928 347
L 930 348
L 931 348
L 932 349
L 933 346
L 934 345
L 935 347
L 936 348
L 937 344
L 938 346
L 939 346
L 940 335
L 941 342
L 942 342
L 943 343
L 944 343
L 946 344
L 947 344
L 948 338
L 949 339
L 950 340
L 951 341
L 952 343
L 953 342
L 954 340
L 955 337
L 956 336
L 957 338
L 958 336
L 959 340
L 960 343
L 961 339" style="stroke-width:1;stroke:rgba(0,217,101,1.0);fill:none"/><path  d="M 38 351
L 40 351
L 41 351
L 42 351
L 43 351
L 44 351
L 45 351
L 46 351
L 47 351
L 48 351
L 49 351
L 50 351
L 51 351
L 52 351
L 53 351
L 54 351
L 56 351
L 57 351
L 58 351
L 59 351
L 60 351
L 61 351
L 62 351
L 63 351
L 64 350
L 65 351
L 66 351
L 67 351
L 68 351
L 69 351
L 70 351
L 72 351
L 73 351
L 74 351
L 75 351
L 76 351
L 77 351
L 78 351
L 79 351
L 80 351
L 81 351
L 82 351
L 83 351
L 84 351
L 85 351
L 86 351
L 88 351
L 89 350
L 90 351
L 91 351
L 92 351
L 93 351
L 94 350
L 95 351
L 96 351
L 97 351
L 98 351
L 99 351
L 100 351
L 101 351
L 102 351
L 104 351
L 105 351
L 106 351
L 107 351
L 108 351
L 109 351
L 110 351
L 111 351
L 112 351
L 113 351
L 114 351
L 115 351
L 116 351
L 117 351
L 118 351
L 120 351
L 121 351
L 122 351
L 123 351
L 124 351
L 125 351
L 126 351
L 127 351
L 128 351
L 129 351
L 130 351
L 131 351
L 132 351
L 133 351
L 134 351
L 135 351
L 137 351
L 138 351
L 139 351
L 140 351
L 141 351
L 142 351
L 143 351
L 144 351
L 145 351
L 146 351
L 147 351
L 148 351
L 149 351
L 150 351
L 151 351
L 153 351
L 154 351
L 155 351
L 156 351
L 157 351
L 158 351
L 159 351
L 160 351
L 161 351
L 162 351
L 163 351
L 164 351
L 165 351
L 166 351
L 167 351
L 169 351
L 170 351
L 171 351
L 172 351
L 173 351
L 174 351
L 175 351
L 176 351
L 177 351
L 178 351
L 179 351
L 180 351
L 181 351
L 182 351
L 183 351
L 185 351
L 186 351
L 187 351
L 188 351
L 189 351
L 190 351
L 191 351
L 192 351
L 193 351
L 194 351
L 195 351
L 196 351
L 197 351
L 198 351
L 199 351
L 201 351
L 202 351
L 203 351
L 204 351
L 205 351
L 206 351
L 207 351
L 208 351
L 209 351
L 210 351
L 211 351
L 212 351
L 213 351
L 214 351
L 215 351
L 216 351
L 218 351
L 219 351
L 220 351
L 221 351
L 222 351
L 223 351
L 224 351
L 225 351
L 226 351
L 227 351
L 228 351
L 229 351
L 230 351
L 231 351
L 232 351
L 234 351
L 235 351
L 236 351
L 237 351
L 238 351
L 239 351
L 240 351
L 241 351
L 242 351
L 243 351
L 244 351
L 245 351
L 246 351
L 247 351
L 248 351
L 250 351
L 251 351
L 252 351
L 253 351
L 254 351
L 255 351
L 256 351
L 257 351
L 258 351
L 259 351
L 260 351
L 261 351
L 262 351
L 263 351
L 264 351
L 266 351
L 267 351
L 268 351
L 269 351
L 270 351
L 271 351
L 272 351
L 273 351
L 274 351
L 275 351
L 276 351
L 277 351
L 278 351
L 279 351
L 280 351
L 282 351
L 283 351
L 284 351
L 285 351
L 286 351
L 287 351
L 288 351
L 289 351
L 290 351
L 291 351
L 292 351
L 293 351
L 294 350
L 295 351
L 296 351
L 297 350
L 299 350
L 300 350
L 301 350
L 302 350
L 303 350
L 304 350
L 305 350
L 306 350
L 307 350
L 308 350
L 309 350
L 310 350
L 311 350
L 312 350
L 313 350
L 315 351
L 316 350
L 317 350
L 318 350
L 319 350
L 320 351
L 321 350
L 322 350
L 323 351
L 324 350
L 325 350
L 326 350
L 327 350
L 328 350
L 329 350
L 331 350
L 332 350
L 333 350
L 334 350
L 335 350
L 336 350
L 337 350
L 338 350
L 339 350
L 340 350
L 341 350
L 342 350
L 343 350
L 344 351
L 345 350
L 347 351
L 348 350
L 349 350
L 350 350
L 351 350
L 352 350
L 353 350
L 354 350
L 355 350
L 356 350
L 357 350
L 358 351
L 359 350
L 360 351
L 361 350
L 363 350
L 364 350
L 365 350
L 366 350
L 367 350
L 368 350
L 369 350
L 370 350
L 371 350
L 372 350
L 373 350
L 374 350
L 375 351
L 376 351
L 377 351
L 378 350
L 380 351
L 381 351
L 382 351
L 383 351
L 384 351
L 385 350
L 386 350
L 387 350
L 388 351
L 389 350
L 390 351
L 391 351
L 392 351
L 393 350
L 394 351
L 396 351
L 397 351
L 398 351
L 399 350
L 400 351
L 401 350
L 402 350
L 403 351
L 404 351
L 405 351
L 406 351
L 407 351
L 408 351
L 409 351
L 410 351
L 412 350
L 413 350
L 414 351
L 415 351
L 416 351
L 417 350
L 418 350
L 419 351
L 420 351
L 421 351
L 422 350
L 423 350
L 424 351
L 425 351
L 426 351
L 428 351
L 429 351
L 430 351
L 431 351
L 432 350
L 433 351
L 434 350
L 435 351
L 436 351
L 437 351
L 438 351
L 439 351
L 440 351
L 441 350
L 442 351
L 444 350
L 445 351
L 446 351
L 447 351
L 448 351
L 449 351
L 450 351
L 451 351
L 452 351
L 453 351
L 454 350
L 455 351
L 456 351
L 457 351
L 458 350
L 459 351
L 461 351
L 462 351
L 463 351
L 464 351
L 465 351
L 466 350
L 467 351
L 468 350
L 469 351
L 470 351
L 471 351
L 472 351
L 473 351
L 474 351
L 475 351
L 477 351
L 478 351
L 479 350
L 480 350
L 481 351
L 482 351
L 483 350
L 484 351
L 485 351
L 486 351
L 487 351
L 488 350
L 489 350
L 490 351
L 491 350
L 493 351
L 494 351
L 495 350
L 496 351
L 497 351
L 498 351
L 499 351
L 500 351
L 501 351
L 502 351
L 503 351
L 504 351
L 505 351
L 506 351
L 507 351
L 509 351
L 510 351
L 511 351
L 512 351
L 513 350
L 514 351
L 515 351
L 516 351
L 517 351
L 518 351
L 519 351
L 520 351
L 521 351
L 522 351
L 523 351
L 525 351
L 526 351
L 527 351
L 528 351
L 529 351
L 530 351
L 531 351
L 532 351
L 533 351
L 534 351
L 535 351
L 536 351
L 537 351
L 538 351
L 539 351
L 541 350
L 542 351
L 543 351
L 544 351
L 545 351
L 546 351
L 547 351
L 548 351
L 549 351
L 550 351
L 551 351
L 552 351
L 553 351
L 554 351
L 555 351
L 556 351
L 558 351
L 559 351
L 560 351
L 561 351
L 562 351
L 563 351
L 564 351
L 565 351
L 566 351
L 567 351
L 568 350
L 569 351
L 570 351
L 571 351
L 572 351
L 574 351
L 575 351
L 576 351
L 577 351
L 578 351
L 579 351
L 580 351
L 581 351
L 582 351
L 583 351
L 584 351
L 585 351
L 586 351
L 587 351
L 588 351
L 590 351
L 591 351
L 592 351
L 593 351
L 594 350
L 595 351
L 596 351
L 597 351
L 598 351
L 599 351
L 600 351
L 601 351
L 602 351
L 603 351
L 604 351
L 606 351
L 607 351
L 608 351
L 609 351
L 610 351
L 611 351
L 612 351
L 613 351
L 614 351
L 615 351
L 616 351
L 617 351
L 618 351
L 619 351
L 620 351
L 622 351
L 623 351
L 624 351
L 625 351
L 626 351
L 627 351
L 628 351
L 629 350
L 630 351
L 631 351
L 632 351
L 633 351
L 634 351
L 635 351
L 636 351
L 637 351
L 639 350
L 640 351
L 641 351
L 642 350
L 643 351
L 644 351
L 645 351
L 646 351
L 647 351
L 648 351
L 649 351
L 650 351
L 651 351
L 652 351
L 653 351
L 655 351
L 656 351
L 657 351
L 658 351
L 659 351
L 660 351
L 661 351
L 662 351
L 663 351
L 664 351
L 665 351
L 666 351
L 667 351
L 668 351
L 669 351
L 671 351
L 672 351
L 673 351
L 674 351
L 675 351
L 676 351
L 677 351
L 678 351
L 679 351
L 680 351
L 681 351
L 682 351
L 683 351
L 684 351
L 685 351
L 687 351
L 688 351
L 689 350
L 690 351
L 691 351
L 692 351
L 693 351
L 694 351
L 695 351
L 696 351
L 697 351
L 698 351
L 699 351
L 700 351
L 701 350
L 703 351
L 704 350
L 705 350
L 706 351
L 707 351
L 708 351
L 709 351
L 710 350
L 711 350
L 712 350
L 713 351
L 714 351
L 715 350
L 716 351
L 717 351
L 718 351
L 720 351
L 721 351
L 722 351
L 723 351
L 724 350
L 725 350
L 726 350
L 727 350
L 728 350
L 729 350
L 730 351
L 731 350
L 732 350
L 733 350
L 734 350
L 736 351
L 737 350
L 738 350
L 739 350
L 740 351
L 741 351
L 742 350
L 743 351
L 744 350
L 745 350
L 746 350
L 747 351
L 748 351
L 749 351
L 750 351
L 752 351
L 753 350
L 754 350
L 755 351
L 756 351
L 757 351
L 758 351
L 759 351
L 760 351
L 761 351
L 762 351
L 763 351
L 764 351
L 765 351
L 766 351
L 768 351
L 769 351
L 770 351
L 771 351
L 772 351
L 773 351
L 774 351
L 775 351
L 776 351
L 777 351
L 778 351
L 779 351
L 780 350
L 781 351
L 782 351
L 784 351
L 785 351
L 786 351
L 787 351
L 788 351
L 789 351
L 790 351
L 791 351
L 792 351
L 793 350
L 794 351
L 795 351
L 796 351
L 797 350
L 798 351
L 799 351
L 801 351
L 802 351
L 803 350
L 804 350
L 805 351
L 806 351
L 807 351
L 808 351
L 809 351
L 810 350
L 811 350
L 812 350
L 813 351
L 814 351
L 815 350
L 817 350
L 818 350
L 819 351
L 820 351
L 821 351
L 822 351
L 823 351
L 824 350
L 825 351
L 826 351
L 827 351
L 828 351
L 829 351
L 830 350
L 831 351
L 833 351
L 834 350
L 835 351
L 836 351
L 837 351
L 838 350
L 839 350
L 840 351
L 841 351
L 842 351
L 843 351
L 844 351
L 845 350
L 846 350
L 847 350
L 849 350
L 850 351
L 851 351
L 852 350
L 853 350
L 854 351
L 855 351
L 856 350
L 857 351
L 858 351
L 859 351
L 860 350
L 861 351
L 862 350
L 863 351
L 865 351
L 866 350
L 867 351
L 868 351
L 869 351
L 870 351
L 871 351
L 872 351
L 873 350
L 874 351
L 875 351
L 876 351
L 877 351
L 878 351
L 879 351
L 880 350
L 882 351
L 883 351
L 884 351
L 885 351
L 886 351
L 887 351
L 888 351
L 889 351
L 890 351
L 891 351
L 892 351
L 893 350
L 894 351
L 895 351
L 896 350
L 898 351
L 899 351
L 900 351
L 901 351
L 902 351
L 903 351
L 904 351
L 905 351
L 906 351
L 907 350
L 908 351
L 909 350
L 910 351
L 911 351
L 912 351
L 914 351
L 915 351
L 916 351
L 917 350
L 918 351
L 919 351
L 920 351
L 921 351
L 922 351
L 923 351
L 924 351
L 925 351
L 926 351
L 927 351
L 928 351
L 930 351
L 931 351
L 932 350
L 933 351
L 934 351
L 935 351
L 936 351
L 937 351
L 938 351
L 939 351
L 940 351
L 941 351
L 942 351
L 943 351
L 944 351
L 946 351
L 947 351
L 948 351
L 949 351
L 950 351
L 951 351
L 952 351
L 953 351
L 954 351
L 955 351
L 956 351
L 957 351
L 958 351
L 959 351
L 960 351
L 961 351" style="stroke-width:1;stroke:rgba(217,0,116,1.0);fill:none"/><text x="366" y="33" style="stroke-width:0;stroke:none;fill:rgba(51,51,51,1.0);font-size:23.0px;font-family:'Roboto Medium',sans-serif">Klagenfurt Stadt 11.07.2022</text><path  d="M 38 11
L 251 11
L 251 91
L 38 91
L 38 11" style="stroke-width:1;stroke:rgba(51,51,51,1.0);fill:rgba(255,255,255,1.0)"/><text x="43" y="26" style="stroke-width:0;stroke:none;fill:rgba(51,51,51,1.0);font-size:10.2px;font-family:'Roboto Medium',sans-serif">Sieben Tage Durschnitt Inzidenz Fälle</text><path  d="M 221 21
L 241 21" style="stroke-width:1;stroke:rgba(0,116,217,1.0);fill:none"/><text x="43" y="56" style="stroke-width:0;stroke:none;fill:rgba(51,51,51,1.0);font-size:10.2px;font-family:'Roboto Medium',sans-serif">Anzahl Faelle</text><path  d="M 110 51
L 241 51" style="stroke-width:1;stroke:rgba(0,217,101,1.0);fill:none"/><text x="43" y="86" style="stroke-width:0;stroke:none;fill:rgba(51,51,51,1.0);font-size:10.2px;font-family:'Roboto Medium',sans-serif">Anzahl Tot</text><path  d="M 98 81
L 241 81" style="stroke-width:1;stroke:rgba(217,0,116,1.0);fill:none"/></svg>