<svg xmlns="http://www.w3.org/2000/svg" xmlns:xlink="http://www.w3.org/1999/xlink" width="1024" height="400">\n<path  d="M 0 0
L 1024 0
L 1024 400
L 0 400
L 0 0" style="stroke-width:0;stroke:rgba(255,255,255,1.0);fill:rgba(255,255,255,1.0)"/><path  d="M 38 11
L 969 11
L 969 351
L 38 351
L 38 11" style="stroke-width:0;stroke:rgba(255,255,255,1.0);fill:rgba(255,255,255,1.0)"/><path  d="M 38 351
L 969 351" style="stroke-width:1;stroke:rgba(51,51,51,1.0);fill:none"/><path  d="M 38 351
L 38 356" style="stroke-width:1;stroke:rgba(51,51,51,1.0);fill:none"/><text x="5" y="373" style="stroke-width:0;stroke:none;fill:rgba(51,51,51,1.0);font-size:12.8px;font-family:'Roboto Medium',sans-serif">2020-02-26</text><path  d="M 155 351
L 155 356" style="stroke-width:1;stroke:rgba(51,51,51,1.0);fill:none"/><text x="122" y="373" style="stroke-width:0;stroke:none;fill:rgba(51,51,51,1.0);font-size:12.8px;font-family:'Roboto Medium',sans-serif">2020-04-21</text><path  d="M 271 351
L 271 356" style="stroke-width:1;stroke:rgba(51,51,51,1.0);fill:none"/><text x="238" y="373" style="stroke-width:0;stroke:none;fill:rgba(51,51,51,1.0);font-size:12.8px;font-family:'Roboto Medium',sans-serif">2020-06-16</text><path  d="M 388 351
L 388 356" style="stroke-width:1;stroke:rgba(51,51,51,1.0);fill:none"/><text x="355" y="373" style="stroke-width:0;stroke:none;fill:rgba(51,51,51,1.0);font-size:12.8px;font-family:'Roboto Medium',sans-serif">2020-08-10</text><path  d="M 504 351
L 504 356" style="stroke-width:1;stroke:rgba(51,51,51,1.0);fill:none"/><text x="471" y="373" style="stroke-width:0;stroke:none;fill:rgba(51,51,51,1.0);font-size:12.8px;font-family:'Roboto Medium',sans-serif">2020-10-05</text><path  d="M 620 351
L 620 356" style="stroke-width:1;stroke:rgba(51,51,51,1.0);fill:none"/><text x="587" y="373" style="stroke-width:0;stroke:none;fill:rgba(51,51,51,1.0);font-size:12.8px;font-family:'Roboto Medium',sans-serif">2020-11-29</text><path  d="M 737 351
L 737 356" style="stroke-width:1;stroke:rgba(51,51,51,1.0);fill:none"/><text x="704" y="373" style="stroke-width:0;stroke:none;fill:rgba(51,51,51,1.0);font-size:12.8px;font-family:'Roboto Medium',sans-serif">2021-01-24</text><path  d="M 853 351
L 853 356" style="stroke-width:1;stroke:rgba(51,51,51,1.0);fill:none"/><text x="820" y="373" style="stroke-width:0;stroke:none;fill:rgba(51,51,51,1.0);font-size:12.8px;font-family:'Roboto Medium',sans-serif">2021-03-20</text><path  d="M 969 351
L 969 356" style="stroke-width:1;stroke:rgba(51,51,51,1.0);fill:none"/><text x="936" y="373" style="stroke-width:0;stroke:none;fill:rgba(51,51,51,1.0);font-size:12.8px;font-family:'Roboto Medium',sans-serif">2021-05-15</text><text x="485" y="395" style="stroke-width:0;stroke:none;fill:rgba(51,51,51,1.0);font-size:12.8px;font-family:'Roboto Medium',sans-serif">Datum</text><path  d="M 970 351
L 970 11" style="stroke-width:1;stroke:rgba(51,51,51,1.0);fill:none"/><path  d="M 970 351
L 975 351" style="stroke-width:1;stroke:rgba(51,51,51,1.0);fill:none"/><text x="980" y="357" style="stroke-width:0;stroke:none;fill:rgba(51,51,51,1.0);font-size:12.8px;font-family:'Roboto Medium',sans-serif">0.00</text><path  d="M 970 308
L 975 308" style="stroke-width:1;stroke:rgba(51,51,51,1.0);fill:none"/><text x="980" y="314" style="stroke-width:0;stroke:none;fill:rgba(51,51,51,1.0);font-size:12.8px;font-family:'Roboto Medium',sans-serif">110.00</text><path  d="M 970 266
L 975 266" style="stroke-width:1;stroke:rgba(51,51,51,1.0);fill:none"/><text x="980" y="272" style="stroke-width:0;stroke:none;fill:rgba(51,51,51,1.0);font-size:12.8px;font-family:'Roboto Medium',sans-serif">220.00</text><path  d="M 970 223
L 975 223" style="stroke-width:1;stroke:rgba(51,51,51,1.0);fill:none"/><text x="980" y="229" style="stroke-width:0;stroke:none;fill:rgba(51,51,51,1.0);font-size:12.8px;font-family:'Roboto Medium',sans-serif">330.00</text><path  d="M 970 181
L 975 181" style="stroke-width:1;stroke:rgba(51,51,51,1.0);fill:none"/><text x="980" y="187" style="stroke-width:0;stroke:none;fill:rgba(51,51,51,1.0);font-size:12.8px;font-family:'Roboto Medium',sans-serif">440.00</text><path  d="M 970 138
L 975 138" style="stroke-width:1;stroke:rgba(51,51,51,1.0);fill:none"/><text x="980" y="144" style="stroke-width:0;stroke:none;fill:rgba(51,51,51,1.0);font-size:12.8px;font-family:'Roboto Medium',sans-serif">550.00</text><path  d="M 970 96
L 975 96" style="stroke-width:1;stroke:rgba(51,51,51,1.0);fill:none"/><text x="980" y="102" style="stroke-width:0;stroke:none;fill:rgba(51,51,51,1.0);font-size:12.8px;font-family:'Roboto Medium',sans-serif">660.00</text><path  d="M 970 53
L 975 53" style="stroke-width:1;stroke:rgba(51,51,51,1.0);fill:none"/><text x="980" y="59" style="stroke-width:0;stroke:none;fill:rgba(51,51,51,1.0);font-size:12.8px;font-family:'Roboto Medium',sans-serif">770.00</text><path  d="M 970 11
L 975 11" style="stroke-width:1;stroke:rgba(51,51,51,1.0);fill:none"/><text x="980" y="17" style="stroke-width:0;stroke:none;fill:rgba(51,51,51,1.0);font-size:12.8px;font-family:'Roboto Medium',sans-serif">880.00</text><path  d="M 38 351
L 41 351
L 43 351
L 45 351
L 47 351
L 49 351
L 51 351
L 53 351
L 55 351
L 57 351
L 59 351
L 62 351
L 64 351
L 66 351
L 68 351
L 70 350
L 72 350
L 74 350
L 76 349
L 78 348
L 80 347
L 83 346
L 85 344
L 87 344
L 89 344
L 91 344
L 93 343
L 95 340
L 97 340
L 99 342
L 101 340
L 104 341
L 106 339
L 108 341
L 110 344
L 112 343
L 114 344
L 116 345
L 118 346
L 120 347
L 122 347
L 124 347
L 127 345
L 129 344
L 131 342
L 133 342
L 135 342
L 137 343
L 139 344
L 141 347
L 143 347
L 145 350
L 148 350
L 150 350
L 152 351
L 154 351
L 156 351
L 158 351
L 160 351
L 162 350
L 164 349
L 166 349
L 169 349
L 171 349
L 173 349
L 175 349
L 177 350
L 179 351
L 181 351
L 183 351
L 185 351
L 187 351
L 189 351
L 192 351
L 194 351
L 196 351
L 198 351
L 200 351
L 202 351
L 204 351
L 206 351
L 208 351
L 210 351
L 213 351
L 215 351
L 217 351
L 219 351
L 221 351
L 223 351
L 225 351
L 227 351
L 229 350
L 231 350
L 234 350
L 236 350
L 238 350
L 240 350
L 242 350
L 244 351
L 246 351
L 248 351
L 250 351
L 252 351
L 254 351
L 257 351
L 259 351
L 261 351
L 263 351
L 265 351
L 267 351
L 269 351
L 271 351
L 273 351
L 275 351
L 278 351
L 280 350
L 282 350
L 284 350
L 286 349
L 288 349
L 290 349
L 292 349
L 294 349
L 296 349
L 299 349
L 301 350
L 303 350
L 305 350
L 307 350
L 309 350
L 311 350
L 313 349
L 315 350
L 317 350
L 319 349
L 322 348
L 324 347
L 326 347
L 328 348
L 330 348
L 332 348
L 334 349
L 336 349
L 338 350
L 340 350
L 343 350
L 345 350
L 347 350
L 349 350
L 351 350
L 353 350
L 355 350
L 357 351
L 359 351
L 361 351
L 364 350
L 366 350
L 368 349
L 370 349
L 372 349
L 374 349
L 376 349
L 378 348
L 380 349
L 382 349
L 384 349
L 387 349
L 389 349
L 391 347
L 393 344
L 395 339
L 397 338
L 399 336
L 401 336
L 403 336
L 405 337
L 408 341
L 410 346
L 412 347
L 414 349
L 416 349
L 418 349
L 420 349
L 422 347
L 424 347
L 426 347
L 429 346
L 431 347
L 433 347
L 435 347
L 437 349
L 439 349
L 441 349
L 443 350
L 445 350
L 447 350
L 449 349
L 452 349
L 454 349
L 456 348
L 458 348
L 460 348
L 462 347
L 464 347
L 466 349
L 468 348
L 470 349
L 473 349
L 475 348
L 477 348
L 479 347
L 481 345
L 483 343
L 485 342
L 487 341
L 489 342
L 491 342
L 494 344
L 496 345
L 498 347
L 500 346
L 502 347
L 504 347
L 506 346
L 508 344
L 510 343
L 512 341
L 514 339
L 517 336
L 519 331
L 521 329
L 523 328
L 525 325
L 527 325
L 529 315
L 531 316
L 533 318
L 535 315
L 538 313
L 540 305
L 542 300
L 544 308
L 546 305
L 548 300
L 550 293
L 552 277
L 554 262
L 556 257
L 559 246
L 561 243
L 563 228
L 565 222
L 567 214
L 569 208
L 571 205
L 573 215
L 575 213
L 577 222
L 579 213
L 582 172
L 584 144
L 586 111
L 588 83
L 590 82
L 592 60
L 594 13
L 596 70
L 598 107
L 600 142
L 603 147
L 605 144
L 607 159
L 609 201
L 611 196
L 613 196
L 615 189
L 617 186
L 619 192
L 621 198
L 624 209
L 626 208
L 628 215
L 630 224
L 632 247
L 634 249
L 636 246
L 638 254
L 640 261
L 642 257
L 644 257
L 647 253
L 649 252
L 651 256
L 653 255
L 655 259
L 657 271
L 659 278
L 661 286
L 663 291
L 665 290
L 668 291
L 670 278
L 672 274
L 674 275
L 676 276
L 678 269
L 680 273
L 682 276
L 684 290
L 686 289
L 689 291
L 691 288
L 693 292
L 695 295
L 697 297
L 699 304
L 701 310
L 703 294
L 705 298
L 707 297
L 709 301
L 712 302
L 714 298
L 716 297
L 718 312
L 720 314
L 722 317
L 724 318
L 726 321
L 728 322
L 730 322
L 733 319
L 735 319
L 737 317
L 739 319
L 741 320
L 743 321
L 745 322
L 747 326
L 749 323
L 751 324
L 754 320
L 756 317
L 758 316
L 760 316
L 762 312
L 764 315
L 766 315
L 768 317
L 770 315
L 772 316
L 774 315
L 777 316
L 779 313
L 781 313
L 783 313
L 785 311
L 787 309
L 789 307
L 791 307
L 793 307
L 795 304
L 798 304
L 800 302
L 802 303
L 804 299
L 806 294
L 808 293
L 810 298
L 812 294
L 814 296
L 816 296
L 819 294
L 821 298
L 823 299
L 825 295
L 827 294
L 829 294
L 831 289
L 833 288
L 835 286
L 837 284
L 839 283
L 842 290
L 844 287
L 846 289
L 848 295
L 850 296
L 852 300
L 854 300
L 856 298
L 858 302
L 860 305
L 863 304
L 865 304
L 867 296
L 869 294
L 871 292
L 873 286
L 875 277
L 877 280
L 879 276
L 881 283
L 884 285
L 886 282
L 888 283
L 890 283
L 892 277
L 894 277
L 896 276
L 898 275
L 900 278
L 902 280
L 904 288
L 907 294
L 909 294
L 911 291
L 913 293
L 915 289
L 917 294
L 919 297
L 921 296
L 923 301
L 925 304
L 928 305
L 930 308
L 932 307
L 934 303
L 936 303
L 938 302
L 940 299
L 942 300
L 944 300
L 946 303
L 949 305
L 951 308
L 953 313
L 955 320
L 957 323
L 959 322
L 961 324
L 963 325
L 965 326
L 967 327
L 969 327" style="stroke-width:1;stroke:rgba(0,116,217,1.0);fill:none"/><path  d="M 38 351
L 41 351
L 43 351
L 45 351
L 47 351
L 49 351
L 51 351
L 53 351
L 55 351
L 57 351
L 59 351
L 62 351
L 64 351
L 66 351
L 68 351
L 70 350
L 72 351
L 74 350
L 76 350
L 78 349
L 80 349
L 83 350
L 85 348
L 87 351
L 89 349
L 91 350
L 93 348
L 95 347
L 97 350
L 99 350
L 101 349
L 104 350
L 106 349
L 108 350
L 110 349
L 112 349
L 114 351
L 116 350
L 118 351
L 120 350
L 122 350
L 124 350
L 127 347
L 129 350
L 131 348
L 133 351
L 135 350
L 137 350
L 139 351
L 141 351
L 143 351
L 145 351
L 148 351
L 150 351
L 152 351
L 154 351
L 156 351
L 158 351
L 160 351
L 162 350
L 164 350
L 166 351
L 169 351
L 171 351
L 173 351
L 175 351
L 177 351
L 179 351
L 181 351
L 183 351
L 185 351
L 187 351
L 189 351
L 192 351
L 194 351
L 196 351
L 198 351
L 200 351
L 202 351
L 204 351
L 206 351
L 208 351
L 210 351
L 213 351
L 215 351
L 217 351
L 219 351
L 221 351
L 223 351
L 225 351
L 227 351
L 229 350
L 231 351
L 234 351
L 236 351
L 238 351
L 240 351
L 242 351
L 244 351
L 246 351
L 248 351
L 250 351
L 252 351
L 254 351
L 257 351
L 259 351
L 261 351
L 263 351
L 265 351
L 267 351
L 269 351
L 271 351
L 273 351
L 275 351
L 278 351
L 280 350
L 282 351
L 284 351
L 286 350
L 288 351
L 290 350
L 292 351
L 294 351
L 296 351
L 299 351
L 301 350
L 303 351
L 305 351
L 307 351
L 309 351
L 311 351
L 313 350
L 315 351
L 317 351
L 319 350
L 322 349
L 324 350
L 326 351
L 328 351
L 330 351
L 332 351
L 334 351
L 336 350
L 338 351
L 340 351
L 343 350
L 345 351
L 347 351
L 349 351
L 351 351
L 353 351
L 355 351
L 357 351
L 359 351
L 361 351
L 364 350
L 366 350
L 368 350
L 370 351
L 372 350
L 374 350
L 376 351
L 378 350
L 380 351
L 382 350
L 384 351
L 387 351
L 389 350
L 391 349
L 393 346
L 395 346
L 397 349
L 399 349
L 401 350
L 403 350
L 405 350
L 408 350
L 410 351
L 412 350
L 414 351
L 416 350
L 418 351
L 420 350
L 422 349
L 424 350
L 426 351
L 429 350
L 431 351
L 433 351
L 435 351
L 437 350
L 439 351
L 441 351
L 443 351
L 445 351
L 447 351
L 449 350
L 452 349
L 454 351
L 456 350
L 458 351
L 460 350
L 462 350
L 464 350
L 466 351
L 468 350
L 470 351
L 473 351
L 475 350
L 477 350
L 479 349
L 481 349
L 483 348
L 485 350
L 487 349
L 489 350
L 491 351
L 494 350
L 496 351
L 498 349
L 500 349
L 502 351
L 504 350
L 506 350
L 508 348
L 510 349
L 512 347
L 514 348
L 517 347
L 519 345
L 521 347
L 523 347
L 525 347
L 527 347
L 529 337
L 531 349
L 533 347
L 535 345
L 538 344
L 540 339
L 542 341
L 544 345
L 546 345
L 548 342
L 550 339
L 552 327
L 554 325
L 556 335
L 559 335
L 561 342
L 563 327
L 565 332
L 567 320
L 569 318
L 571 332
L 573 345
L 575 340
L 577 335
L 579 323
L 582 278
L 584 290
L 586 299
L 588 317
L 590 339
L 592 313
L 594 276
L 596 335
L 598 328
L 600 334
L 603 322
L 605 336
L 607 328
L 609 318
L 611 330
L 613 328
L 615 327
L 617 319
L 619 342
L 621 334
L 624 330
L 626 330
L 628 335
L 630 337
L 632 342
L 634 344
L 636 332
L 638 337
L 640 337
L 642 331
L 644 337
L 647 338
L 649 342
L 651 335
L 653 337
L 655 340
L 657 344
L 659 344
L 661 345
L 663 348
L 665 335
L 668 338
L 670 327
L 672 340
L 674 346
L 676 345
L 678 341
L 680 338
L 682 341
L 684 341
L 686 339
L 689 347
L 691 342
L 693 345
L 695 341
L 697 343
L 699 348
L 701 345
L 703 331
L 705 346
L 707 344
L 709 345
L 712 344
L 714 344
L 716 345
L 718 346
L 720 347
L 722 348
L 724 347
L 726 346
L 728 345
L 730 345
L 733 343
L 735 348
L 737 346
L 739 349
L 741 347
L 743 347
L 745 345
L 747 347
L 749 345
L 751 347
L 754 344
L 756 344
L 758 346
L 760 345
L 762 343
L 764 347
L 766 348
L 768 345
L 770 343
L 772 346
L 774 344
L 777 344
L 779 345
L 781 347
L 783 345
L 785 341
L 787 344
L 789 343
L 791 344
L 793 345
L 795 344
L 798 345
L 800 339
L 802 345
L 804 339
L 806 339
L 808 344
L 810 349
L 812 340
L 814 341
L 816 345
L 819 337
L 821 344
L 823 345
L 825 345
L 827 340
L 829 341
L 831 339
L 833 336
L 835 341
L 837 343
L 839 345
L 842 347
L 844 338
L 846 341
L 848 342
L 850 343
L 852 347
L 854 345
L 856 345
L 858 342
L 860 344
L 863 340
L 865 344
L 867 338
L 869 343
L 871 343
L 873 336
L 875 335
L 877 343
L 879 339
L 881 346
L 884 345
L 886 340
L 888 337
L 890 335
L 892 337
L 894 339
L 896 345
L 898 344
L 900 344
L 902 339
L 904 344
L 907 343
L 909 339
L 911 342
L 913 345
L 915 340
L 917 344
L 919 347
L 921 342
L 923 344
L 925 345
L 928 346
L 930 344
L 932 342
L 934 343
L 936 342
L 938 342
L 940 342
L 942 347
L 944 344
L 946 345
L 949 345
L 951 345
L 953 347
L 955 348
L 957 351
L 959 343
L 961 347
L 963 346
L 965 346
L 967 348
L 969 348" style="stroke-width:1;stroke:rgba(0,217,101,1.0);fill:none"/><path  d="M 38 351
L 41 351
L 43 351
L 45 351
L 47 351
L 49 351
L 51 351
L 53 351
L 55 351
L 57 351
L 59 351
L 62 351
L 64 351
L 66 351
L 68 351
L 70 351
L 72 351
L 74 351
L 76 351
L 78 351
L 80 351
L 83 351
L 85 351
L 87 351
L 89 350
L 91 351
L 93 351
L 95 351
L 97 351
L 99 351
L 101 351
L 104 351
L 106 351
L 108 351
L 110 351
L 112 351
L 114 351
L 116 351
L 118 351
L 120 351
L 122 351
L 124 351
L 127 351
L 129 351
L 131 351
L 133 351
L 135 351
L 137 350
L 139 351
L 141 351
L 143 351
L 145 351
L 148 350
L 150 351
L 152 351
L 154 351
L 156 351
L 158 351
L 160 351
L 162 351
L 164 351
L 166 351
L 169 351
L 171 351
L 173 351
L 175 351
L 177 351
L 179 351
L 181 351
L 183 351
L 185 351
L 187 351
L 189 351
L 192 351
L 194 351
L 196 351
L 198 351
L 200 351
L 202 351
L 204 351
L 206 351
L 208 351
L 210 351
L 213 351
L 215 351
L 217 351
L 219 351
L 221 351
L 223 351
L 225 351
L 227 351
L 229 351
L 231 351
L 234 351
L 236 351
L 238 351
L 240 351
L 242 351
L 244 351
L 246 351
L 248 351
L 250 351
L 252 351
L 254 351
L 257 351
L 259 351
L 261 351
L 263 351
L 265 351
L 267 351
L 269 351
L 271 351
L 273 351
L 275 351
L 278 351
L 280 351
L 282 351
L 284 351
L 286 351
L 288 351
L 290 351
L 292 351
L 294 351
L 296 351
L 299 351
L 301 351
L 303 351
L 305 351
L 307 351
L 309 351
L 311 351
L 313 351
L 315 351
L 317 351
L 319 351
L 322 351
L 324 351
L 326 351
L 328 351
L 330 351
L 332 351
L 334 351
L 336 351
L 338 351
L 340 351
L 343 351
L 345 351
L 347 351
L 349 351
L 351 351
L 353 351
L 355 351
L 357 351
L 359 351
L 361 351
L 364 351
L 366 351
L 368 351
L 370 351
L 372 351
L 374 351
L 376 351
L 378 351
L 380 351
L 382 351
L 384 351
L 387 351
L 389 351
L 391 351
L 393 351
L 395 351
L 397 351
L 399 351
L 401 351
L 403 351
L 405 351
L 408 351
L 410 351
L 412 351
L 414 351
L 416 351
L 418 351
L 420 351
L 422 351
L 424 351
L 426 351
L 429 351
L 431 351
L 433 351
L 435 351
L 437 351
L 439 351
L 441 351
L 443 351
L 445 351
L 447 351
L 449 351
L 452 351
L 454 351
L 456 351
L 458 351
L 460 351
L 462 351
L 464 351
L 466 351
L 468 351
L 470 351
L 473 351
L 475 351
L 477 351
L 479 351
L 481 351
L 483 351
L 485 351
L 487 351
L 489 351
L 491 351
L 494 351
L 496 351
L 498 351
L 500 351
L 502 351
L 504 351
L 506 351
L 508 351
L 510 351
L 512 351
L 514 351
L 517 351
L 519 351
L 521 351
L 523 351
L 525 351
L 527 351
L 529 351
L 531 351
L 533 351
L 535 351
L 538 351
L 540 351
L 542 350
L 544 351
L 546 351
L 548 350
L 550 350
L 552 349
L 554 350
L 556 350
L 559 349
L 561 350
L 563 349
L 565 350
L 567 350
L 569 349
L 571 350
L 573 350
L 575 350
L 577 350
L 579 349
L 582 351
L 584 350
L 586 350
L 588 350
L 590 349
L 592 351
L 594 350
L 596 350
L 598 351
L 600 349
L 603 350
L 605 350
L 607 350
L 609 351
L 611 349
L 613 350
L 615 349
L 617 350
L 619 349
L 621 349
L 624 349
L 626 350
L 628 350
L 630 351
L 632 350
L 634 350
L 636 350
L 638 350
L 640 351
L 642 350
L 644 351
L 647 349
L 649 349
L 651 351
L 653 350
L 655 349
L 657 350
L 659 349
L 661 350
L 663 350
L 665 350
L 668 351
L 670 350
L 672 351
L 674 350
L 676 350
L 678 350
L 680 350
L 682 350
L 684 349
L 686 350
L 689 350
L 691 350
L 693 350
L 695 349
L 697 349
L 699 351
L 701 351
L 703 351
L 705 351
L 707 350
L 709 351
L 712 351
L 714 351
L 716 351
L 718 351
L 720 350
L 722 351
L 724 350
L 726 351
L 728 350
L 730 351
L 733 351
L 735 351
L 737 351
L 739 351
L 741 351
L 743 351
L 745 351
L 747 351
L 749 351
L 751 350
L 754 350
L 756 351
L 758 351
L 760 351
L 762 351
L 764 351
L 766 351
L 768 351
L 770 351
L 772 350
L 774 350
L 777 351
L 779 351
L 781 351
L 783 351
L 785 350
L 787 351
L 789 351
L 791 351
L 793 350
L 795 350
L 798 351
L 800 351
L 802 351
L 804 351
L 806 351
L 808 351
L 810 351
L 812 350
L 814 351
L 816 350
L 819 351
L 821 350
L 823 351
L 825 351
L 827 351
L 829 351
L 831 350
L 833 351
L 835 350
L 837 351
L 839 351
L 842 351
L 844 351
L 846 351
L 848 351
L 850 351
L 852 351
L 854 351
L 856 350
L 858 351
L 860 351
L 863 351
L 865 351
L 867 351
L 869 351
L 871 351
L 873 351
L 875 351
L 877 351
L 879 351
L 881 351
L 884 350
L 886 351
L 888 351
L 890 351
L 892 351
L 894 351
L 896 351
L 898 351
L 900 351
L 902 351
L 904 350
L 907 351
L 909 351
L 911 351
L 913 350
L 915 351
L 917 351
L 919 351
L 921 351
L 923 350
L 925 351
L 928 351
L 930 350
L 932 351
L 934 351
L 936 350
L 938 351
L 940 351
L 942 351
L 944 351
L 946 351
L 949 351
L 951 351
L 953 351
L 955 351
L 957 351
L 959 351
L 961 351
L 963 351
L 965 351
L 967 351
L 969 351" style="stroke-width:1;stroke:rgba(217,0,116,1.0);fill:none"/><text x="366" y="33" style="stroke-width:0;stroke:none;fill:rgba(51,51,51,1.0);font-size:23.0px;font-family:'Roboto Medium',sans-serif">Klagenfurt Stadt 15.05.2021</text><path  d="M 38 11
L 251 11
L 251 91
L 38 91
L 38 11" style="stroke-width:1;stroke:rgba(51,51,51,1.0);fill:rgba(255,255,255,1.0)"/><text x="43" y="26" style="stroke-width:0;stroke:none;fill:rgba(51,51,51,1.0);font-size:10.2px;font-family:'Roboto Medium',sans-serif">Sieben Tage Durschnitt Inzidenz Fälle</text><path  d="M 221 21
L 241 21" style="stroke-width:1;stroke:rgba(0,116,217,1.0);fill:none"/><text x="43" y="56" style="stroke-width:0;stroke:none;fill:rgba(51,51,51,1.0);font-size:10.2px;font-family:'Roboto Medium',sans-serif">Anzahl Faelle</text><path  d="M 110 51
L 241 51" style="stroke-width:1;stroke:rgba(0,217,101,1.0);fill:none"/><text x="43" y="86" style="stroke-width:0;stroke:none;fill:rgba(51,51,51,1.0);font-size:10.2px;font-family:'Roboto Medium',sans-serif">Anzahl Tot</text><path  d="M 98 81
L 241 81" style="stroke-width:1;stroke:rgba(217,0,116,1.0);fill:none"/></svg>