<svg xmlns="http://www.w3.org/2000/svg" xmlns:xlink="http://www.w3.org/1999/xlink" width="1024" height="400">\n<path  d="M 0 0
L 1024 0
L 1024 400
L 0 400
L 0 0" style="stroke-width:0;stroke:rgba(255,255,255,1.0);fill:rgba(255,255,255,1.0)"/><path  d="M 38 11
L 969 11
L 969 351
L 38 351
L 38 11" style="stroke-width:0;stroke:rgba(255,255,255,1.0);fill:rgba(255,255,255,1.0)"/><path  d="M 38 351
L 969 351" style="stroke-width:1;stroke:rgba(51,51,51,1.0);fill:none"/><path  d="M 38 351
L 38 356" style="stroke-width:1;stroke:rgba(51,51,51,1.0);fill:none"/><text x="5" y="373" style="stroke-width:0;stroke:none;fill:rgba(51,51,51,1.0);font-size:12.8px;font-family:'Roboto Medium',sans-serif">2020-02-26</text><path  d="M 155 351
L 155 356" style="stroke-width:1;stroke:rgba(51,51,51,1.0);fill:none"/><text x="122" y="373" style="stroke-width:0;stroke:none;fill:rgba(51,51,51,1.0);font-size:12.8px;font-family:'Roboto Medium',sans-serif">2020-05-13</text><path  d="M 271 351
L 271 356" style="stroke-width:1;stroke:rgba(51,51,51,1.0);fill:none"/><text x="238" y="373" style="stroke-width:0;stroke:none;fill:rgba(51,51,51,1.0);font-size:12.8px;font-family:'Roboto Medium',sans-serif">2020-07-30</text><path  d="M 388 351
L 388 356" style="stroke-width:1;stroke:rgba(51,51,51,1.0);fill:none"/><text x="355" y="373" style="stroke-width:0;stroke:none;fill:rgba(51,51,51,1.0);font-size:12.8px;font-family:'Roboto Medium',sans-serif">2020-10-15</text><path  d="M 504 351
L 504 356" style="stroke-width:1;stroke:rgba(51,51,51,1.0);fill:none"/><text x="471" y="373" style="stroke-width:0;stroke:none;fill:rgba(51,51,51,1.0);font-size:12.8px;font-family:'Roboto Medium',sans-serif">2021-01-01</text><path  d="M 620 351
L 620 356" style="stroke-width:1;stroke:rgba(51,51,51,1.0);fill:none"/><text x="587" y="373" style="stroke-width:0;stroke:none;fill:rgba(51,51,51,1.0);font-size:12.8px;font-family:'Roboto Medium',sans-serif">2021-03-20</text><path  d="M 737 351
L 737 356" style="stroke-width:1;stroke:rgba(51,51,51,1.0);fill:none"/><text x="704" y="373" style="stroke-width:0;stroke:none;fill:rgba(51,51,51,1.0);font-size:12.8px;font-family:'Roboto Medium',sans-serif">2021-06-05</text><path  d="M 853 351
L 853 356" style="stroke-width:1;stroke:rgba(51,51,51,1.0);fill:none"/><text x="820" y="373" style="stroke-width:0;stroke:none;fill:rgba(51,51,51,1.0);font-size:12.8px;font-family:'Roboto Medium',sans-serif">2021-08-22</text><path  d="M 969 351
L 969 356" style="stroke-width:1;stroke:rgba(51,51,51,1.0);fill:none"/><text x="936" y="373" style="stroke-width:0;stroke:none;fill:rgba(51,51,51,1.0);font-size:12.8px;font-family:'Roboto Medium',sans-serif">2021-11-08</text><text x="485" y="395" style="stroke-width:0;stroke:none;fill:rgba(51,51,51,1.0);font-size:12.8px;font-family:'Roboto Medium',sans-serif">Datum</text><path  d="M 970 351
L 970 11" style="stroke-width:1;stroke:rgba(51,51,51,1.0);fill:none"/><path  d="M 970 351
L 975 351" style="stroke-width:1;stroke:rgba(51,51,51,1.0);fill:none"/><text x="980" y="357" style="stroke-width:0;stroke:none;fill:rgba(51,51,51,1.0);font-size:12.8px;font-family:'Roboto Medium',sans-serif">0.00</text><path  d="M 970 308
L 975 308" style="stroke-width:1;stroke:rgba(51,51,51,1.0);fill:none"/><text x="980" y="314" style="stroke-width:0;stroke:none;fill:rgba(51,51,51,1.0);font-size:12.8px;font-family:'Roboto Medium',sans-serif">110.00</text><path  d="M 970 266
L 975 266" style="stroke-width:1;stroke:rgba(51,51,51,1.0);fill:none"/><text x="980" y="272" style="stroke-width:0;stroke:none;fill:rgba(51,51,51,1.0);font-size:12.8px;font-family:'Roboto Medium',sans-serif">220.00</text><path  d="M 970 223
L 975 223" style="stroke-width:1;stroke:rgba(51,51,51,1.0);fill:none"/><text x="980" y="229" style="stroke-width:0;stroke:none;fill:rgba(51,51,51,1.0);font-size:12.8px;font-family:'Roboto Medium',sans-serif">330.00</text><path  d="M 970 181
L 975 181" style="stroke-width:1;stroke:rgba(51,51,51,1.0);fill:none"/><text x="980" y="187" style="stroke-width:0;stroke:none;fill:rgba(51,51,51,1.0);font-size:12.8px;font-family:'Roboto Medium',sans-serif">440.00</text><path  d="M 970 138
L 975 138" style="stroke-width:1;stroke:rgba(51,51,51,1.0);fill:none"/><text x="980" y="144" style="stroke-width:0;stroke:none;fill:rgba(51,51,51,1.0);font-size:12.8px;font-family:'Roboto Medium',sans-serif">550.00</text><path  d="M 970 96
L 975 96" style="stroke-width:1;stroke:rgba(51,51,51,1.0);fill:none"/><text x="980" y="102" style="stroke-width:0;stroke:none;fill:rgba(51,51,51,1.0);font-size:12.8px;font-family:'Roboto Medium',sans-serif">660.00</text><path  d="M 970 53
L 975 53" style="stroke-width:1;stroke:rgba(51,51,51,1.0);fill:none"/><text x="980" y="59" style="stroke-width:0;stroke:none;fill:rgba(51,51,51,1.0);font-size:12.8px;font-family:'Roboto Medium',sans-serif">770.00</text><path  d="M 970 11
L 975 11" style="stroke-width:1;stroke:rgba(51,51,51,1.0);fill:none"/><text x="980" y="17" style="stroke-width:0;stroke:none;fill:rgba(51,51,51,1.0);font-size:12.8px;font-family:'Roboto Medium',sans-serif">880.00</text><path  d="M 38 351
L 40 351
L 41 351
L 43 351
L 44 351
L 46 351
L 47 351
L 49 351
L 50 351
L 52 351
L 53 351
L 55 351
L 56 351
L 58 351
L 59 351
L 61 350
L 62 350
L 64 350
L 65 349
L 67 348
L 68 347
L 70 346
L 71 344
L 73 344
L 74 344
L 76 344
L 77 343
L 79 340
L 80 340
L 82 341
L 83 340
L 85 340
L 86 339
L 88 341
L 89 344
L 91 343
L 92 344
L 94 345
L 95 346
L 97 347
L 98 347
L 100 347
L 101 345
L 103 344
L 104 343
L 106 343
L 107 343
L 109 343
L 110 344
L 112 347
L 113 347
L 115 350
L 116 350
L 118 350
L 119 351
L 121 351
L 122 351
L 124 351
L 125 351
L 127 350
L 128 349
L 130 349
L 131 349
L 133 349
L 134 349
L 136 349
L 137 350
L 139 351
L 140 351
L 142 351
L 143 351
L 145 351
L 146 351
L 148 351
L 149 351
L 151 351
L 152 351
L 154 351
L 155 351
L 157 351
L 158 351
L 160 351
L 161 351
L 163 351
L 164 351
L 166 351
L 167 351
L 169 351
L 170 351
L 172 351
L 173 351
L 175 350
L 176 350
L 178 350
L 179 350
L 181 350
L 182 350
L 184 350
L 185 351
L 187 351
L 188 351
L 190 351
L 191 351
L 193 351
L 194 351
L 196 351
L 197 351
L 199 351
L 200 351
L 202 351
L 203 351
L 205 351
L 206 351
L 208 351
L 209 351
L 211 350
L 212 350
L 214 350
L 215 349
L 217 349
L 218 349
L 220 349
L 221 349
L 223 349
L 224 349
L 226 350
L 227 350
L 229 350
L 230 350
L 232 350
L 233 350
L 235 349
L 236 350
L 238 350
L 239 349
L 241 348
L 242 348
L 244 348
L 245 349
L 247 349
L 248 349
L 250 349
L 251 350
L 253 350
L 254 350
L 256 350
L 257 350
L 259 350
L 260 350
L 262 350
L 263 350
L 265 350
L 266 351
L 268 351
L 269 351
L 271 350
L 272 350
L 274 349
L 275 349
L 277 349
L 278 349
L 280 349
L 281 348
L 283 349
L 284 349
L 286 349
L 287 349
L 289 349
L 290 347
L 292 344
L 293 339
L 295 338
L 296 336
L 298 335
L 299 335
L 301 336
L 302 341
L 304 345
L 305 347
L 307 349
L 308 349
L 310 349
L 311 349
L 313 347
L 314 347
L 316 347
L 317 346
L 319 347
L 320 347
L 322 347
L 323 349
L 325 349
L 326 349
L 328 350
L 329 350
L 331 350
L 332 349
L 334 349
L 335 349
L 337 348
L 338 348
L 340 348
L 341 347
L 343 347
L 344 349
L 346 348
L 347 349
L 349 349
L 350 348
L 352 348
L 353 347
L 355 345
L 356 343
L 358 343
L 359 341
L 361 342
L 362 343
L 364 344
L 365 345
L 367 347
L 368 346
L 370 347
L 371 347
L 373 346
L 374 344
L 376 343
L 377 341
L 379 339
L 380 336
L 382 331
L 383 329
L 385 328
L 386 325
L 388 325
L 389 315
L 391 316
L 392 318
L 394 316
L 395 313
L 397 306
L 398 300
L 400 308
L 401 305
L 403 300
L 404 294
L 406 276
L 407 262
L 409 256
L 410 246
L 412 242
L 413 228
L 415 221
L 416 215
L 418 209
L 419 206
L 421 216
L 422 215
L 424 223
L 425 214
L 427 172
L 428 143
L 430 110
L 431 83
L 433 81
L 434 60
L 436 13
L 437 70
L 439 108
L 440 142
L 442 145
L 443 143
L 445 157
L 446 199
L 448 194
L 449 194
L 451 188
L 452 186
L 454 192
L 455 197
L 457 209
L 458 209
L 460 216
L 461 224
L 463 247
L 464 249
L 466 247
L 467 254
L 469 261
L 470 257
L 472 257
L 473 253
L 475 252
L 476 256
L 478 255
L 479 259
L 481 272
L 482 279
L 484 286
L 485 291
L 487 290
L 488 292
L 490 278
L 491 274
L 493 276
L 494 276
L 496 270
L 497 273
L 499 276
L 500 290
L 502 290
L 503 291
L 505 288
L 506 292
L 508 295
L 509 297
L 511 305
L 512 311
L 514 295
L 515 298
L 517 298
L 518 302
L 520 302
L 521 298
L 523 297
L 524 312
L 526 313
L 527 317
L 529 318
L 530 321
L 532 322
L 533 322
L 535 319
L 536 319
L 538 317
L 539 319
L 541 320
L 542 321
L 544 322
L 545 326
L 547 323
L 548 324
L 550 320
L 551 317
L 553 316
L 554 316
L 556 313
L 557 315
L 559 316
L 560 317
L 562 316
L 563 316
L 565 314
L 566 315
L 568 313
L 569 312
L 571 313
L 572 311
L 574 309
L 575 308
L 577 308
L 578 309
L 580 306
L 581 305
L 583 303
L 584 304
L 586 300
L 587 295
L 589 294
L 590 298
L 592 294
L 593 296
L 595 296
L 596 294
L 598 298
L 599 299
L 601 295
L 602 294
L 604 294
L 605 288
L 607 287
L 608 285
L 610 283
L 611 283
L 613 291
L 614 287
L 616 289
L 617 295
L 619 297
L 620 300
L 622 301
L 623 299
L 625 303
L 626 306
L 628 304
L 629 305
L 631 296
L 632 294
L 634 292
L 635 286
L 637 276
L 638 279
L 640 275
L 641 282
L 643 284
L 644 281
L 646 283
L 647 284
L 649 278
L 650 278
L 652 277
L 653 276
L 655 280
L 656 281
L 658 289
L 659 295
L 661 294
L 662 291
L 664 293
L 665 289
L 667 294
L 668 298
L 670 297
L 671 301
L 673 304
L 674 305
L 676 309
L 677 308
L 679 303
L 680 303
L 682 302
L 683 299
L 685 300
L 686 301
L 688 303
L 689 306
L 691 309
L 692 314
L 694 320
L 695 324
L 697 323
L 698 325
L 700 325
L 701 327
L 703 327
L 704 327
L 706 327
L 707 331
L 709 331
L 710 332
L 712 335
L 713 335
L 715 334
L 716 335
L 718 336
L 719 339
L 721 341
L 722 343
L 724 343
L 725 342
L 727 342
L 728 343
L 730 342
L 731 341
L 733 340
L 734 341
L 736 344
L 737 343
L 739 343
L 740 344
L 742 343
L 743 344
L 745 345
L 746 346
L 748 346
L 749 347
L 751 347
L 752 349
L 754 350
L 755 348
L 757 347
L 758 347
L 760 347
L 761 347
L 763 346
L 764 346
L 766 347
L 767 349
L 769 349
L 770 349
L 772 349
L 773 349
L 775 350
L 776 350
L 778 351
L 779 351
L 781 351
L 782 350
L 784 350
L 785 344
L 787 343
L 788 342
L 790 342
L 791 339
L 793 338
L 794 336
L 796 342
L 797 343
L 799 342
L 800 342
L 802 344
L 803 343
L 805 344
L 806 344
L 808 343
L 809 344
L 811 343
L 812 342
L 814 340
L 815 339
L 817 335
L 818 333
L 820 330
L 821 332
L 823 329
L 824 329
L 826 329
L 827 331
L 829 330
L 830 331
L 832 329
L 833 332
L 835 327
L 836 328
L 838 323
L 839 326
L 841 325
L 842 324
L 844 324
L 845 327
L 847 325
L 848 327
L 850 325
L 851 325
L 853 327
L 854 325
L 856 322
L 857 322
L 859 323
L 860 321
L 862 320
L 863 319
L 865 320
L 866 324
L 868 324
L 869 321
L 871 321
L 872 319
L 874 316
L 875 316
L 877 316
L 878 314
L 880 312
L 881 312
L 883 312
L 884 315
L 886 313
L 887 312
L 889 310
L 890 317
L 892 316
L 893 316
L 895 316
L 896 317
L 898 312
L 899 313
L 901 309
L 902 305
L 904 303
L 905 299
L 907 288
L 908 283
L 910 273
L 911 270
L 913 275
L 914 271
L 916 272
L 917 278
L 919 282
L 920 289
L 922 289
L 923 283
L 925 284
L 926 283
L 928 283
L 929 288
L 931 290
L 932 294
L 934 297
L 935 300
L 937 304
L 938 305
L 940 292
L 941 281
L 943 270
L 944 262
L 946 249
L 947 246
L 949 238
L 950 238
L 952 240
L 953 231
L 955 218
L 956 220
L 958 212
L 959 209
L 961 202
L 962 191
L 964 176
L 965 163
L 967 146
L 968 141
L 969 121" style="stroke-width:1;stroke:rgba(0,116,217,1.0);fill:none"/><path  d="M 38 351
L 40 351
L 41 351
L 43 351
L 44 351
L 46 351
L 47 351
L 49 351
L 50 351
L 52 351
L 53 351
L 55 351
L 56 351
L 58 351
L 59 351
L 61 350
L 62 351
L 64 350
L 65 350
L 67 349
L 68 349
L 70 350
L 71 348
L 73 351
L 74 349
L 76 350
L 77 348
L 79 347
L 80 350
L 82 350
L 83 349
L 85 350
L 86 349
L 88 350
L 89 350
L 91 349
L 92 351
L 94 350
L 95 351
L 97 350
L 98 350
L 100 350
L 101 347
L 103 350
L 104 348
L 106 351
L 107 350
L 109 350
L 110 351
L 112 351
L 113 351
L 115 351
L 116 351
L 118 351
L 119 351
L 121 351
L 122 351
L 124 351
L 125 351
L 127 350
L 128 350
L 130 351
L 131 351
L 133 351
L 134 351
L 136 351
L 137 351
L 139 351
L 140 351
L 142 351
L 143 351
L 145 351
L 146 351
L 148 351
L 149 351
L 151 351
L 152 351
L 154 351
L 155 351
L 157 351
L 158 351
L 160 351
L 161 351
L 163 351
L 164 351
L 166 351
L 167 351
L 169 351
L 170 351
L 172 351
L 173 351
L 175 350
L 176 351
L 178 351
L 179 351
L 181 351
L 182 351
L 184 351
L 185 351
L 187 351
L 188 351
L 190 351
L 191 351
L 193 351
L 194 351
L 196 351
L 197 351
L 199 351
L 200 351
L 202 351
L 203 351
L 205 351
L 206 351
L 208 351
L 209 351
L 211 350
L 212 351
L 214 351
L 215 350
L 217 351
L 218 350
L 220 351
L 221 351
L 223 351
L 224 351
L 226 350
L 227 351
L 229 351
L 230 351
L 232 351
L 233 351
L 235 350
L 236 351
L 238 351
L 239 350
L 241 349
L 242 350
L 244 351
L 245 351
L 247 351
L 248 351
L 250 351
L 251 350
L 253 351
L 254 351
L 256 350
L 257 351
L 259 351
L 260 351
L 262 351
L 263 351
L 265 351
L 266 351
L 268 351
L 269 351
L 271 350
L 272 350
L 274 350
L 275 351
L 277 350
L 278 350
L 280 351
L 281 350
L 283 351
L 284 350
L 286 351
L 287 351
L 289 350
L 290 349
L 292 346
L 293 346
L 295 348
L 296 349
L 298 350
L 299 350
L 301 350
L 302 350
L 304 351
L 305 350
L 307 351
L 308 350
L 310 351
L 311 350
L 313 349
L 314 350
L 316 351
L 317 350
L 319 351
L 320 351
L 322 351
L 323 350
L 325 351
L 326 351
L 328 351
L 329 351
L 331 351
L 332 350
L 334 349
L 335 351
L 337 350
L 338 351
L 340 350
L 341 350
L 343 350
L 344 351
L 346 350
L 347 351
L 349 351
L 350 350
L 352 350
L 353 349
L 355 349
L 356 348
L 358 350
L 359 349
L 361 350
L 362 351
L 364 350
L 365 351
L 367 349
L 368 349
L 370 351
L 371 350
L 373 350
L 374 348
L 376 349
L 377 347
L 379 348
L 380 347
L 382 345
L 383 347
L 385 347
L 386 347
L 388 347
L 389 337
L 391 349
L 392 347
L 394 345
L 395 344
L 397 339
L 398 341
L 400 345
L 401 345
L 403 342
L 404 339
L 406 327
L 407 324
L 409 335
L 410 335
L 412 342
L 413 327
L 415 332
L 416 320
L 418 318
L 419 333
L 421 345
L 422 340
L 424 335
L 425 323
L 427 278
L 428 289
L 430 299
L 431 317
L 433 339
L 434 314
L 436 275
L 437 335
L 439 327
L 440 334
L 442 321
L 443 336
L 445 328
L 446 318
L 448 330
L 449 328
L 451 327
L 452 319
L 454 342
L 455 334
L 457 330
L 458 330
L 460 335
L 461 336
L 463 342
L 464 344
L 466 332
L 467 337
L 469 336
L 470 331
L 472 337
L 473 338
L 475 342
L 476 335
L 478 337
L 479 340
L 481 344
L 482 344
L 484 345
L 485 348
L 487 334
L 488 338
L 490 327
L 491 340
L 493 346
L 494 345
L 496 341
L 497 338
L 499 341
L 500 341
L 502 339
L 503 347
L 505 342
L 506 345
L 508 341
L 509 343
L 511 348
L 512 345
L 514 331
L 515 346
L 517 344
L 518 345
L 520 344
L 521 344
L 523 345
L 524 346
L 526 347
L 527 348
L 529 347
L 530 346
L 532 345
L 533 345
L 535 343
L 536 348
L 538 346
L 539 349
L 541 347
L 542 347
L 544 345
L 545 347
L 547 345
L 548 347
L 550 344
L 551 344
L 553 346
L 554 346
L 556 343
L 557 347
L 559 348
L 560 345
L 562 343
L 563 345
L 565 344
L 566 344
L 568 345
L 569 347
L 571 346
L 572 341
L 574 344
L 575 343
L 577 344
L 578 345
L 580 344
L 581 345
L 583 339
L 584 345
L 586 339
L 587 339
L 589 344
L 590 349
L 592 340
L 593 341
L 595 345
L 596 337
L 598 344
L 599 345
L 601 345
L 602 339
L 604 341
L 605 339
L 607 336
L 608 341
L 610 343
L 611 345
L 613 347
L 614 338
L 616 341
L 617 342
L 619 343
L 620 347
L 622 345
L 623 345
L 625 342
L 626 344
L 628 340
L 629 344
L 631 338
L 632 343
L 634 343
L 635 336
L 637 334
L 638 343
L 640 339
L 641 346
L 643 345
L 644 340
L 646 337
L 647 335
L 649 337
L 650 339
L 652 345
L 653 344
L 655 344
L 656 339
L 658 344
L 659 343
L 661 339
L 662 342
L 664 345
L 665 340
L 667 344
L 668 347
L 670 342
L 671 344
L 673 345
L 674 346
L 676 344
L 677 342
L 679 343
L 680 342
L 682 342
L 683 342
L 685 347
L 686 344
L 688 345
L 689 345
L 691 345
L 692 347
L 694 348
L 695 351
L 697 344
L 698 347
L 700 346
L 701 346
L 703 348
L 704 348
L 706 350
L 707 348
L 709 347
L 710 348
L 712 349
L 713 348
L 715 348
L 716 351
L 718 349
L 719 350
L 721 350
L 722 350
L 724 349
L 725 347
L 727 351
L 728 350
L 730 349
L 731 349
L 733 348
L 734 350
L 736 349
L 737 350
L 739 350
L 740 350
L 742 349
L 743 349
L 745 351
L 746 351
L 748 351
L 749 350
L 751 351
L 752 351
L 754 350
L 755 349
L 757 349
L 758 351
L 760 351
L 761 350
L 763 350
L 764 350
L 766 350
L 767 350
L 769 351
L 770 351
L 772 351
L 773 351
L 775 351
L 776 351
L 778 351
L 779 351
L 781 351
L 782 350
L 784 351
L 785 344
L 787 349
L 788 350
L 790 351
L 791 347
L 793 350
L 794 349
L 796 350
L 797 350
L 799 349
L 800 350
L 802 350
L 803 349
L 805 349
L 806 350
L 808 349
L 809 350
L 811 349
L 812 349
L 814 347
L 815 348
L 817 346
L 818 348
L 820 347
L 821 350
L 823 346
L 824 347
L 826 347
L 827 348
L 829 347
L 830 348
L 832 348
L 833 349
L 835 343
L 836 348
L 838 343
L 839 350
L 841 347
L 842 347
L 844 348
L 845 346
L 847 347
L 848 344
L 850 349
L 851 347
L 853 349
L 854 346
L 856 343
L 857 346
L 859 346
L 860 346
L 862 346
L 863 348
L 865 348
L 866 346
L 868 347
L 869 342
L 871 346
L 872 345
L 874 344
L 875 348
L 877 346
L 878 345
L 880 340
L 881 346
L 883 345
L 884 347
L 886 346
L 887 345
L 889 342
L 890 347
L 892 345
L 893 345
L 895 348
L 896 347
L 898 340
L 899 344
L 901 343
L 902 340
L 904 344
L 905 344
L 907 336
L 908 335
L 910 333
L 911 340
L 913 345
L 914 340
L 916 345
L 917 342
L 919 339
L 920 340
L 922 340
L 923 339
L 925 340
L 926 344
L 928 342
L 929 344
L 931 342
L 932 344
L 934 343
L 935 343
L 937 347
L 938 343
L 940 332
L 941 331
L 943 333
L 944 335
L 946 330
L 947 344
L 949 335
L 950 332
L 952 333
L 953 323
L 955 321
L 956 332
L 958 336
L 959 332
L 961 325
L 962 322
L 964 308
L 965 308
L 967 315
L 968 331
L 969 311" style="stroke-width:1;stroke:rgba(0,217,101,1.0);fill:none"/><path  d="M 38 351
L 40 351
L 41 351
L 43 351
L 44 351
L 46 351
L 47 351
L 49 351
L 50 351
L 52 351
L 53 351
L 55 351
L 56 351
L 58 351
L 59 351
L 61 351
L 62 351
L 64 351
L 65 351
L 67 351
L 68 351
L 70 351
L 71 351
L 73 351
L 74 350
L 76 351
L 77 351
L 79 351
L 80 351
L 82 351
L 83 351
L 85 351
L 86 351
L 88 351
L 89 351
L 91 351
L 92 351
L 94 351
L 95 351
L 97 351
L 98 351
L 100 351
L 101 351
L 103 351
L 104 351
L 106 351
L 107 351
L 109 350
L 110 351
L 112 351
L 113 351
L 115 351
L 116 350
L 118 351
L 119 351
L 121 351
L 122 351
L 124 351
L 125 351
L 127 351
L 128 351
L 130 351
L 131 351
L 133 351
L 134 351
L 136 351
L 137 351
L 139 351
L 140 351
L 142 351
L 143 351
L 145 351
L 146 351
L 148 351
L 149 351
L 151 351
L 152 351
L 154 351
L 155 351
L 157 351
L 158 351
L 160 351
L 161 351
L 163 351
L 164 351
L 166 351
L 167 351
L 169 351
L 170 351
L 172 351
L 173 351
L 175 351
L 176 351
L 178 351
L 179 351
L 181 351
L 182 351
L 184 351
L 185 351
L 187 351
L 188 351
L 190 351
L 191 351
L 193 351
L 194 351
L 196 351
L 197 351
L 199 351
L 200 351
L 202 351
L 203 351
L 205 351
L 206 351
L 208 351
L 209 351
L 211 351
L 212 351
L 214 351
L 215 351
L 217 351
L 218 351
L 220 351
L 221 351
L 223 351
L 224 351
L 226 351
L 227 351
L 229 351
L 230 351
L 232 351
L 233 351
L 235 351
L 236 351
L 238 351
L 239 351
L 241 351
L 242 351
L 244 351
L 245 351
L 247 351
L 248 351
L 250 351
L 251 351
L 253 351
L 254 351
L 256 351
L 257 351
L 259 351
L 260 351
L 262 351
L 263 351
L 265 351
L 266 351
L 268 351
L 269 351
L 271 351
L 272 351
L 274 351
L 275 351
L 277 351
L 278 351
L 280 351
L 281 351
L 283 351
L 284 351
L 286 351
L 287 351
L 289 351
L 290 351
L 292 351
L 293 351
L 295 351
L 296 351
L 298 351
L 299 351
L 301 351
L 302 351
L 304 351
L 305 351
L 307 351
L 308 351
L 310 351
L 311 351
L 313 351
L 314 351
L 316 351
L 317 351
L 319 351
L 320 351
L 322 351
L 323 351
L 325 351
L 326 351
L 328 351
L 329 351
L 331 351
L 332 351
L 334 351
L 335 351
L 337 351
L 338 351
L 340 351
L 341 351
L 343 351
L 344 351
L 346 351
L 347 351
L 349 351
L 350 351
L 352 351
L 353 351
L 355 351
L 356 351
L 358 351
L 359 351
L 361 351
L 362 351
L 364 351
L 365 351
L 367 351
L 368 351
L 370 351
L 371 351
L 373 351
L 374 351
L 376 351
L 377 351
L 379 351
L 380 351
L 382 351
L 383 351
L 385 351
L 386 351
L 388 351
L 389 351
L 391 351
L 392 351
L 394 351
L 395 351
L 397 351
L 398 350
L 400 351
L 401 351
L 403 350
L 404 350
L 406 349
L 407 350
L 409 350
L 410 349
L 412 350
L 413 349
L 415 350
L 416 350
L 418 349
L 419 350
L 421 350
L 422 350
L 424 350
L 425 349
L 427 351
L 428 350
L 430 350
L 431 350
L 433 349
L 434 351
L 436 350
L 437 350
L 439 351
L 440 349
L 442 350
L 443 350
L 445 350
L 446 351
L 448 349
L 449 350
L 451 349
L 452 350
L 454 349
L 455 349
L 457 349
L 458 350
L 460 350
L 461 351
L 463 350
L 464 350
L 466 350
L 467 350
L 469 351
L 470 350
L 472 351
L 473 349
L 475 349
L 476 351
L 478 350
L 479 349
L 481 350
L 482 349
L 484 350
L 485 350
L 487 350
L 488 351
L 490 350
L 491 351
L 493 350
L 494 350
L 496 350
L 497 350
L 499 350
L 500 349
L 502 350
L 503 350
L 505 350
L 506 350
L 508 349
L 509 349
L 511 351
L 512 351
L 514 351
L 515 351
L 517 350
L 518 351
L 520 351
L 521 351
L 523 351
L 524 351
L 526 350
L 527 351
L 529 350
L 530 351
L 532 350
L 533 351
L 535 351
L 536 351
L 538 351
L 539 351
L 541 351
L 542 351
L 544 351
L 545 351
L 547 351
L 548 350
L 550 350
L 551 351
L 553 351
L 554 351
L 556 351
L 557 351
L 559 351
L 560 351
L 562 351
L 563 350
L 565 350
L 566 351
L 568 351
L 569 351
L 571 351
L 572 350
L 574 351
L 575 351
L 577 351
L 578 350
L 580 350
L 581 351
L 583 351
L 584 351
L 586 351
L 587 351
L 589 351
L 590 351
L 592 350
L 593 351
L 595 350
L 596 351
L 598 351
L 599 351
L 601 351
L 602 351
L 604 351
L 605 350
L 607 351
L 608 350
L 610 351
L 611 351
L 613 351
L 614 351
L 616 351
L 617 351
L 619 351
L 620 351
L 622 351
L 623 350
L 625 351
L 626 351
L 628 351
L 629 351
L 631 351
L 632 351
L 634 351
L 635 351
L 637 351
L 638 351
L 640 351
L 641 351
L 643 350
L 644 351
L 646 351
L 647 351
L 649 351
L 650 351
L 652 351
L 653 351
L 655 351
L 656 351
L 658 350
L 659 351
L 661 351
L 662 351
L 664 350
L 665 351
L 667 351
L 668 351
L 670 351
L 671 350
L 673 351
L 674 351
L 676 350
L 677 351
L 679 351
L 680 350
L 682 351
L 683 351
L 685 351
L 686 351
L 688 351
L 689 351
L 691 351
L 692 351
L 694 351
L 695 351
L 697 351
L 698 351
L 700 351
L 701 351
L 703 351
L 704 351
L 706 350
L 707 351
L 709 351
L 710 351
L 712 351
L 713 351
L 715 351
L 716 351
L 718 351
L 719 351
L 721 351
L 722 351
L 724 351
L 725 351
L 727 351
L 728 351
L 730 351
L 731 351
L 733 351
L 734 351
L 736 351
L 737 351
L 739 351
L 740 351
L 742 351
L 743 351
L 745 351
L 746 351
L 748 351
L 749 351
L 751 351
L 752 351
L 754 351
L 755 351
L 757 351
L 758 351
L 760 351
L 761 351
L 763 351
L 764 351
L 766 351
L 767 351
L 769 351
L 770 351
L 772 351
L 773 351
L 775 351
L 776 351
L 778 351
L 779 351
L 781 351
L 782 351
L 784 350
L 785 351
L 787 351
L 788 351
L 790 351
L 791 351
L 793 351
L 794 351
L 796 351
L 797 351
L 799 351
L 800 351
L 802 351
L 803 351
L 805 351
L 806 351
L 808 351
L 809 351
L 811 351
L 812 351
L 814 351
L 815 351
L 817 351
L 818 351
L 820 351
L 821 351
L 823 351
L 824 351
L 826 351
L 827 351
L 829 351
L 830 351
L 832 351
L 833 351
L 835 351
L 836 351
L 838 351
L 839 351
L 841 351
L 842 351
L 844 351
L 845 351
L 847 351
L 848 351
L 850 351
L 851 351
L 853 351
L 854 351
L 856 351
L 857 351
L 859 351
L 860 351
L 862 351
L 863 351
L 865 351
L 866 351
L 868 351
L 869 350
L 871 351
L 872 351
L 874 351
L 875 351
L 877 351
L 878 351
L 880 351
L 881 351
L 883 350
L 884 351
L 886 351
L 887 350
L 889 351
L 890 351
L 892 351
L 893 351
L 895 351
L 896 351
L 898 351
L 899 351
L 901 351
L 902 351
L 904 351
L 905 351
L 907 351
L 908 351
L 910 351
L 911 351
L 913 351
L 914 351
L 916 351
L 917 351
L 919 351
L 920 351
L 922 351
L 923 351
L 925 351
L 926 351
L 928 351
L 929 351
L 931 351
L 932 351
L 934 351
L 935 351
L 937 351
L 938 351
L 940 351
L 941 351
L 943 351
L 944 351
L 946 351
L 947 351
L 949 351
L 950 351
L 952 351
L 953 351
L 955 351
L 956 351
L 958 351
L 959 351
L 961 351
L 962 351
L 964 351
L 965 351
L 967 351
L 968 351
L 969 351" style="stroke-width:1;stroke:rgba(217,0,116,1.0);fill:none"/><text x="366" y="33" style="stroke-width:0;stroke:none;fill:rgba(51,51,51,1.0);font-size:23.0px;font-family:'Roboto Medium',sans-serif">Klagenfurt Stadt 08.11.2021</text><path  d="M 38 11
L 251 11
L 251 91
L 38 91
L 38 11" style="stroke-width:1;stroke:rgba(51,51,51,1.0);fill:rgba(255,255,255,1.0)"/><text x="43" y="26" style="stroke-width:0;stroke:none;fill:rgba(51,51,51,1.0);font-size:10.2px;font-family:'Roboto Medium',sans-serif">Sieben Tage Durschnitt Inzidenz Fälle</text><path  d="M 221 21
L 241 21" style="stroke-width:1;stroke:rgba(0,116,217,1.0);fill:none"/><text x="43" y="56" style="stroke-width:0;stroke:none;fill:rgba(51,51,51,1.0);font-size:10.2px;font-family:'Roboto Medium',sans-serif">Anzahl Faelle</text><path  d="M 110 51
L 241 51" style="stroke-width:1;stroke:rgba(0,217,101,1.0);fill:none"/><text x="43" y="86" style="stroke-width:0;stroke:none;fill:rgba(51,51,51,1.0);font-size:10.2px;font-family:'Roboto Medium',sans-serif">Anzahl Tot</text><path  d="M 98 81
L 241 81" style="stroke-width:1;stroke:rgba(217,0,116,1.0);fill:none"/></svg>