<svg xmlns="http://www.w3.org/2000/svg" xmlns:xlink="http://www.w3.org/1999/xlink" width="1024" height="400">\n<path  d="M 0 0
L 1024 0
L 1024 400
L 0 400
L 0 0" style="stroke-width:0;stroke:rgba(255,255,255,1.0);fill:rgba(255,255,255,1.0)"/><path  d="M 38 11
L 969 11
L 969 351
L 38 351
L 38 11" style="stroke-width:0;stroke:rgba(255,255,255,1.0);fill:rgba(255,255,255,1.0)"/><path  d="M 38 351
L 969 351" style="stroke-width:1;stroke:rgba(51,51,51,1.0);fill:none"/><path  d="M 38 351
L 38 356" style="stroke-width:1;stroke:rgba(51,51,51,1.0);fill:none"/><text x="5" y="373" style="stroke-width:0;stroke:none;fill:rgba(51,51,51,1.0);font-size:12.8px;font-family:'Roboto Medium',sans-serif">2020-02-26</text><path  d="M 155 351
L 155 356" style="stroke-width:1;stroke:rgba(51,51,51,1.0);fill:none"/><text x="122" y="373" style="stroke-width:0;stroke:none;fill:rgba(51,51,51,1.0);font-size:12.8px;font-family:'Roboto Medium',sans-serif">2020-05-05</text><path  d="M 271 351
L 271 356" style="stroke-width:1;stroke:rgba(51,51,51,1.0);fill:none"/><text x="238" y="373" style="stroke-width:0;stroke:none;fill:rgba(51,51,51,1.0);font-size:12.8px;font-family:'Roboto Medium',sans-serif">2020-07-14</text><path  d="M 388 351
L 388 356" style="stroke-width:1;stroke:rgba(51,51,51,1.0);fill:none"/><text x="355" y="373" style="stroke-width:0;stroke:none;fill:rgba(51,51,51,1.0);font-size:12.8px;font-family:'Roboto Medium',sans-serif">2020-09-22</text><path  d="M 504 351
L 504 356" style="stroke-width:1;stroke:rgba(51,51,51,1.0);fill:none"/><text x="471" y="373" style="stroke-width:0;stroke:none;fill:rgba(51,51,51,1.0);font-size:12.8px;font-family:'Roboto Medium',sans-serif">2020-12-01</text><path  d="M 620 351
L 620 356" style="stroke-width:1;stroke:rgba(51,51,51,1.0);fill:none"/><text x="587" y="373" style="stroke-width:0;stroke:none;fill:rgba(51,51,51,1.0);font-size:12.8px;font-family:'Roboto Medium',sans-serif">2021-02-09</text><path  d="M 737 351
L 737 356" style="stroke-width:1;stroke:rgba(51,51,51,1.0);fill:none"/><text x="704" y="373" style="stroke-width:0;stroke:none;fill:rgba(51,51,51,1.0);font-size:12.8px;font-family:'Roboto Medium',sans-serif">2021-04-20</text><path  d="M 853 351
L 853 356" style="stroke-width:1;stroke:rgba(51,51,51,1.0);fill:none"/><text x="820" y="373" style="stroke-width:0;stroke:none;fill:rgba(51,51,51,1.0);font-size:12.8px;font-family:'Roboto Medium',sans-serif">2021-06-29</text><path  d="M 969 351
L 969 356" style="stroke-width:1;stroke:rgba(51,51,51,1.0);fill:none"/><text x="936" y="373" style="stroke-width:0;stroke:none;fill:rgba(51,51,51,1.0);font-size:12.8px;font-family:'Roboto Medium',sans-serif">2021-09-07</text><text x="485" y="395" style="stroke-width:0;stroke:none;fill:rgba(51,51,51,1.0);font-size:12.8px;font-family:'Roboto Medium',sans-serif">Datum</text><path  d="M 970 351
L 970 11" style="stroke-width:1;stroke:rgba(51,51,51,1.0);fill:none"/><path  d="M 970 351
L 975 351" style="stroke-width:1;stroke:rgba(51,51,51,1.0);fill:none"/><text x="980" y="357" style="stroke-width:0;stroke:none;fill:rgba(51,51,51,1.0);font-size:12.8px;font-family:'Roboto Medium',sans-serif">0.00</text><path  d="M 970 308
L 975 308" style="stroke-width:1;stroke:rgba(51,51,51,1.0);fill:none"/><text x="980" y="314" style="stroke-width:0;stroke:none;fill:rgba(51,51,51,1.0);font-size:12.8px;font-family:'Roboto Medium',sans-serif">45.00</text><path  d="M 970 266
L 975 266" style="stroke-width:1;stroke:rgba(51,51,51,1.0);fill:none"/><text x="980" y="272" style="stroke-width:0;stroke:none;fill:rgba(51,51,51,1.0);font-size:12.8px;font-family:'Roboto Medium',sans-serif">90.00</text><path  d="M 970 223
L 975 223" style="stroke-width:1;stroke:rgba(51,51,51,1.0);fill:none"/><text x="980" y="229" style="stroke-width:0;stroke:none;fill:rgba(51,51,51,1.0);font-size:12.8px;font-family:'Roboto Medium',sans-serif">135.00</text><path  d="M 970 181
L 975 181" style="stroke-width:1;stroke:rgba(51,51,51,1.0);fill:none"/><text x="980" y="187" style="stroke-width:0;stroke:none;fill:rgba(51,51,51,1.0);font-size:12.8px;font-family:'Roboto Medium',sans-serif">180.00</text><path  d="M 970 138
L 975 138" style="stroke-width:1;stroke:rgba(51,51,51,1.0);fill:none"/><text x="980" y="144" style="stroke-width:0;stroke:none;fill:rgba(51,51,51,1.0);font-size:12.8px;font-family:'Roboto Medium',sans-serif">225.00</text><path  d="M 970 96
L 975 96" style="stroke-width:1;stroke:rgba(51,51,51,1.0);fill:none"/><text x="980" y="102" style="stroke-width:0;stroke:none;fill:rgba(51,51,51,1.0);font-size:12.8px;font-family:'Roboto Medium',sans-serif">270.00</text><path  d="M 970 53
L 975 53" style="stroke-width:1;stroke:rgba(51,51,51,1.0);fill:none"/><text x="980" y="59" style="stroke-width:0;stroke:none;fill:rgba(51,51,51,1.0);font-size:12.8px;font-family:'Roboto Medium',sans-serif">315.00</text><path  d="M 970 11
L 975 11" style="stroke-width:1;stroke:rgba(51,51,51,1.0);fill:none"/><text x="980" y="17" style="stroke-width:0;stroke:none;fill:rgba(51,51,51,1.0);font-size:12.8px;font-family:'Roboto Medium',sans-serif">360.00</text><path  d="M 38 351
L 40 351
L 42 348
L 43 348
L 45 348
L 47 347
L 48 345
L 50 338
L 52 335
L 53 332
L 55 328
L 57 328
L 58 328
L 60 328
L 62 334
L 63 336
L 65 339
L 67 339
L 68 334
L 70 334
L 72 329
L 73 329
L 75 330
L 77 322
L 78 323
L 80 321
L 82 320
L 83 321
L 85 316
L 87 307
L 88 309
L 90 308
L 92 309
L 93 306
L 95 309
L 97 314
L 98 317
L 100 318
L 102 319
L 103 325
L 105 326
L 107 322
L 108 321
L 110 326
L 112 331
L 113 334
L 115 333
L 117 335
L 118 341
L 120 340
L 122 341
L 123 342
L 125 342
L 127 343
L 128 343
L 130 344
L 132 347
L 133 347
L 135 348
L 137 348
L 138 348
L 140 351
L 142 351
L 143 351
L 145 351
L 147 349
L 148 349
L 150 349
L 152 348
L 153 347
L 155 344
L 157 343
L 158 344
L 160 344
L 162 344
L 163 344
L 165 344
L 167 346
L 168 347
L 170 346
L 172 345
L 173 345
L 175 345
L 177 345
L 178 344
L 180 343
L 182 344
L 183 345
L 185 345
L 187 346
L 188 347
L 190 349
L 192 351
L 193 351
L 195 351
L 197 351
L 198 351
L 200 351
L 202 351
L 203 349
L 205 349
L 207 349
L 208 349
L 210 348
L 212 348
L 213 348
L 215 349
L 217 349
L 218 348
L 220 348
L 222 344
L 223 344
L 225 344
L 227 344
L 228 343
L 230 344
L 232 344
L 233 349
L 235 349
L 237 349
L 238 349
L 240 351
L 242 351
L 243 351
L 245 351
L 247 351
L 248 351
L 250 351
L 252 351
L 253 351
L 255 351
L 257 351
L 258 351
L 260 349
L 262 347
L 263 347
L 265 346
L 267 346
L 268 346
L 270 346
L 272 347
L 273 349
L 275 349
L 277 349
L 278 349
L 280 348
L 282 348
L 283 346
L 285 346
L 287 342
L 288 341
L 290 340
L 292 340
L 293 339
L 295 340
L 297 336
L 298 340
L 300 342
L 302 343
L 303 341
L 305 342
L 307 342
L 308 346
L 310 345
L 312 345
L 313 345
L 315 348
L 317 348
L 318 348
L 320 347
L 322 346
L 323 346
L 325 344
L 327 342
L 328 340
L 330 340
L 332 338
L 333 337
L 335 335
L 337 335
L 338 336
L 340 337
L 342 335
L 343 337
L 345 339
L 347 341
L 348 340
L 350 338
L 352 332
L 353 327
L 355 325
L 357 323
L 358 318
L 360 313
L 362 314
L 363 319
L 365 325
L 367 324
L 368 321
L 370 319
L 372 323
L 373 321
L 375 313
L 377 303
L 378 303
L 380 300
L 382 302
L 383 297
L 385 298
L 387 303
L 388 308
L 390 306
L 392 309
L 393 310
L 395 317
L 397 311
L 398 307
L 400 304
L 402 307
L 403 301
L 405 301
L 407 297
L 408 301
L 410 298
L 412 293
L 413 270
L 415 273
L 417 276
L 418 271
L 420 265
L 422 271
L 423 282
L 425 294
L 427 286
L 428 263
L 430 265
L 432 260
L 433 250
L 435 230
L 437 230
L 438 216
L 440 204
L 442 186
L 443 167
L 445 147
L 447 137
L 448 121
L 450 121
L 452 124
L 453 115
L 455 106
L 457 105
L 458 86
L 460 74
L 462 70
L 463 41
L 465 39
L 467 34
L 468 17
L 470 29
L 472 42
L 473 53
L 475 81
L 477 86
L 478 97
L 480 117
L 482 131
L 483 126
L 485 125
L 487 139
L 488 161
L 490 182
L 492 182
L 493 189
L 495 198
L 497 199
L 498 205
L 500 199
L 502 204
L 503 229
L 505 232
L 506 245
L 508 240
L 510 242
L 511 238
L 513 232
L 515 225
L 516 229
L 518 235
L 520 253
L 521 259
L 523 254
L 525 255
L 526 257
L 528 248
L 530 243
L 531 242
L 533 237
L 535 262
L 536 266
L 538 256
L 540 261
L 541 266
L 543 273
L 545 279
L 546 272
L 548 282
L 550 295
L 551 294
L 553 292
L 555 293
L 556 283
L 558 281
L 560 274
L 561 270
L 563 273
L 565 270
L 566 258
L 568 269
L 570 267
L 571 265
L 573 269
L 575 276
L 576 276
L 578 275
L 580 268
L 581 267
L 583 266
L 585 268
L 586 269
L 588 272
L 590 282
L 591 290
L 593 299
L 595 295
L 596 291
L 598 281
L 600 284
L 601 279
L 603 273
L 605 274
L 606 287
L 608 291
L 610 295
L 611 296
L 613 292
L 615 292
L 616 288
L 618 281
L 620 286
L 621 275
L 623 267
L 625 274
L 626 274
L 628 274
L 630 259
L 631 251
L 633 255
L 635 243
L 636 236
L 638 227
L 640 226
L 641 237
L 643 236
L 645 239
L 646 247
L 648 247
L 650 238
L 651 234
L 653 228
L 655 213
L 656 213
L 658 211
L 660 183
L 661 198
L 663 193
L 665 190
L 666 192
L 668 178
L 670 174
L 671 166
L 673 157
L 675 168
L 676 162
L 678 162
L 680 161
L 681 145
L 683 156
L 685 148
L 686 133
L 688 128
L 690 116
L 691 116
L 693 122
L 695 129
L 696 132
L 698 116
L 700 124
L 701 141
L 703 145
L 705 149
L 706 152
L 708 143
L 710 166
L 711 183
L 713 193
L 715 202
L 716 215
L 718 222
L 720 249
L 721 246
L 723 235
L 725 233
L 726 242
L 728 256
L 730 267
L 731 264
L 733 273
L 735 288
L 736 296
L 738 295
L 740 290
L 741 289
L 743 293
L 745 294
L 746 290
L 748 289
L 750 286
L 751 286
L 753 291
L 755 292
L 756 289
L 758 293
L 760 291
L 761 291
L 763 291
L 765 290
L 766 285
L 768 290
L 770 290
L 771 292
L 773 299
L 775 304
L 776 309
L 778 307
L 780 311
L 781 313
L 783 318
L 785 319
L 786 318
L 788 317
L 790 326
L 791 326
L 793 331
L 795 335
L 796 333
L 798 333
L 800 337
L 801 338
L 803 339
L 805 336
L 806 334
L 808 339
L 810 341
L 811 341
L 813 341
L 815 340
L 816 342
L 818 340
L 820 339
L 821 340
L 823 336
L 825 336
L 826 336
L 828 337
L 830 338
L 831 339
L 833 337
L 835 336
L 836 337
L 838 337
L 840 336
L 841 338
L 843 338
L 845 339
L 846 343
L 848 344
L 850 343
L 851 343
L 853 343
L 855 343
L 856 344
L 858 342
L 860 342
L 861 344
L 863 345
L 865 343
L 866 342
L 868 343
L 870 345
L 871 345
L 873 344
L 875 344
L 876 344
L 878 342
L 880 340
L 881 339
L 883 338
L 885 336
L 886 335
L 888 333
L 890 331
L 891 330
L 893 327
L 895 323
L 896 322
L 898 316
L 900 314
L 901 314
L 903 309
L 905 308
L 906 305
L 908 307
L 910 312
L 911 317
L 913 317
L 915 321
L 916 323
L 918 327
L 920 326
L 921 324
L 923 313
L 925 317
L 926 317
L 928 309
L 930 301
L 931 293
L 933 288
L 935 294
L 936 288
L 938 278
L 940 269
L 941 274
L 943 279
L 945 285
L 946 279
L 948 283
L 950 289
L 951 293
L 953 295
L 955 299
L 956 300
L 958 298
L 960 298
L 961 295
L 963 292
L 965 289
L 966 285
L 968 266
L 969 262" style="stroke-width:1;stroke:rgba(0,116,217,1.0);fill:none"/><path  d="M 38 351
L 40 351
L 42 349
L 43 351
L 45 351
L 47 350
L 48 349
L 50 344
L 52 348
L 53 346
L 55 347
L 57 351
L 58 350
L 60 349
L 62 350
L 63 350
L 65 349
L 67 347
L 68 346
L 70 350
L 72 344
L 73 350
L 75 351
L 77 341
L 78 348
L 80 344
L 82 349
L 83 345
L 85 345
L 87 343
L 88 343
L 90 347
L 92 345
L 93 346
L 95 348
L 97 350
L 98 345
L 100 344
L 102 348
L 103 351
L 105 347
L 107 344
L 108 349
L 110 350
L 112 349
L 113 351
L 115 350
L 117 349
L 118 350
L 120 348
L 122 351
L 123 350
L 125 351
L 127 351
L 128 349
L 130 351
L 132 351
L 133 351
L 135 351
L 137 351
L 138 351
L 140 351
L 142 351
L 143 351
L 145 351
L 147 350
L 148 351
L 150 351
L 152 350
L 153 350
L 155 348
L 157 350
L 158 351
L 160 351
L 162 351
L 163 350
L 165 350
L 167 350
L 168 351
L 170 350
L 172 350
L 173 351
L 175 350
L 177 350
L 178 349
L 180 350
L 182 351
L 183 351
L 185 351
L 187 351
L 188 351
L 190 351
L 192 351
L 193 351
L 195 351
L 197 351
L 198 351
L 200 351
L 202 351
L 203 350
L 205 351
L 207 351
L 208 351
L 210 350
L 212 351
L 213 351
L 215 351
L 217 351
L 218 350
L 220 351
L 222 346
L 223 351
L 225 351
L 227 351
L 228 350
L 230 351
L 232 351
L 233 351
L 235 351
L 237 351
L 238 351
L 240 351
L 242 351
L 243 351
L 245 351
L 247 351
L 248 351
L 250 351
L 252 351
L 253 351
L 255 351
L 257 351
L 258 351
L 260 350
L 262 349
L 263 351
L 265 350
L 267 351
L 268 351
L 270 351
L 272 351
L 273 351
L 275 351
L 277 350
L 278 351
L 280 350
L 282 351
L 283 349
L 285 351
L 287 347
L 288 349
L 290 350
L 292 350
L 293 350
L 295 350
L 297 347
L 298 351
L 300 351
L 302 351
L 303 348
L 305 351
L 307 350
L 308 351
L 310 350
L 312 351
L 313 351
L 315 351
L 317 351
L 318 350
L 320 350
L 322 349
L 323 351
L 325 349
L 327 349
L 328 349
L 330 350
L 332 348
L 333 348
L 335 349
L 337 349
L 338 350
L 340 350
L 342 348
L 343 350
L 345 350
L 347 351
L 348 348
L 350 348
L 352 344
L 353 343
L 355 348
L 357 348
L 358 346
L 360 344
L 362 349
L 363 348
L 365 349
L 367 347
L 368 345
L 370 344
L 372 348
L 373 347
L 375 341
L 377 339
L 378 347
L 380 342
L 382 346
L 383 343
L 385 348
L 387 346
L 388 344
L 390 345
L 392 345
L 393 347
L 395 349
L 397 343
L 398 342
L 400 341
L 402 348
L 403 339
L 405 347
L 407 345
L 408 347
L 410 339
L 412 336
L 413 327
L 415 342
L 417 350
L 418 340
L 420 341
L 422 345
L 423 346
L 425 338
L 427 334
L 428 329
L 430 342
L 432 336
L 433 335
L 435 328
L 437 338
L 438 321
L 440 318
L 442 325
L 443 319
L 445 317
L 447 319
L 448 323
L 450 321
L 452 321
L 453 317
L 455 311
L 457 316
L 458 302
L 460 312
L 462 317
L 463 295
L 465 315
L 467 306
L 468 300
L 470 314
L 472 323
L 473 328
L 475 320
L 477 319
L 478 317
L 480 318
L 482 327
L 483 318
L 485 327
L 487 333
L 488 340
L 490 335
L 492 318
L 493 334
L 495 327
L 497 328
L 498 338
L 500 334
L 502 340
L 503 341
L 505 336
L 506 338
L 508 324
L 510 340
L 511 331
L 513 334
L 515 334
L 516 340
L 518 344
L 520 340
L 521 346
L 523 326
L 525 335
L 526 336
L 528 332
L 530 340
L 531 339
L 533 341
L 535 349
L 536 339
L 538 327
L 540 336
L 541 345
L 543 346
L 545 347
L 546 342
L 548 348
L 550 339
L 551 335
L 553 343
L 555 347
L 556 337
L 558 340
L 560 342
L 561 335
L 563 338
L 565 340
L 566 335
L 568 348
L 570 338
L 571 340
L 573 339
L 575 345
L 576 340
L 578 334
L 580 341
L 581 337
L 583 339
L 585 341
L 586 346
L 588 343
L 590 343
L 591 349
L 593 346
L 595 335
L 596 337
L 598 336
L 600 346
L 601 339
L 603 343
L 605 347
L 606 347
L 608 341
L 610 340
L 611 347
L 613 335
L 615 343
L 616 343
L 618 340
L 620 346
L 621 331
L 623 339
L 625 342
L 626 343
L 628 343
L 630 326
L 631 338
L 633 334
L 635 329
L 636 335
L 638 334
L 640 342
L 641 336
L 643 337
L 645 337
L 646 335
L 648 335
L 650 327
L 651 338
L 653 331
L 655 323
L 656 337
L 658 334
L 660 310
L 661 341
L 663 334
L 665 328
L 666 325
L 668 324
L 670 330
L 671 303
L 673 333
L 675 344
L 676 322
L 678 325
L 680 323
L 681 315
L 683 314
L 685 325
L 686 331
L 688 317
L 690 314
L 691 323
L 693 320
L 695 320
L 696 328
L 698 316
L 700 325
L 701 329
L 703 327
L 705 324
L 706 323
L 708 319
L 710 337
L 711 340
L 713 338
L 715 335
L 716 335
L 718 330
L 720 344
L 721 334
L 723 331
L 725 336
L 726 344
L 728 348
L 730 340
L 731 341
L 733 343
L 735 344
L 736 344
L 738 343
L 740 343
L 741 339
L 743 345
L 745 344
L 746 340
L 748 343
L 750 340
L 751 343
L 753 344
L 755 346
L 756 341
L 758 344
L 760 341
L 761 340
L 763 343
L 765 343
L 766 341
L 768 346
L 770 344
L 771 343
L 773 347
L 775 348
L 776 348
L 778 339
L 780 350
L 781 346
L 783 347
L 785 348
L 786 347
L 788 347
L 790 348
L 791 350
L 793 351
L 795 351
L 796 346
L 798 347
L 800 351
L 801 349
L 803 351
L 805 348
L 806 349
L 808 351
L 810 349
L 811 351
L 813 349
L 815 350
L 816 350
L 818 347
L 820 350
L 821 350
L 823 347
L 825 349
L 826 350
L 828 351
L 830 348
L 831 351
L 833 348
L 835 346
L 836 350
L 838 350
L 840 350
L 841 350
L 843 351
L 845 349
L 846 350
L 848 351
L 850 349
L 851 350
L 853 350
L 855 351
L 856 350
L 858 348
L 860 351
L 861 351
L 863 351
L 865 348
L 866 350
L 868 351
L 870 350
L 871 351
L 873 350
L 875 351
L 876 348
L 878 348
L 880 349
L 881 349
L 883 350
L 885 348
L 886 350
L 888 346
L 890 346
L 891 348
L 893 346
L 895 346
L 896 347
L 898 344
L 900 345
L 901 346
L 903 343
L 905 345
L 906 343
L 908 349
L 910 349
L 911 349
L 913 346
L 915 347
L 916 347
L 918 347
L 920 348
L 921 347
L 923 339
L 925 349
L 926 347
L 928 340
L 930 339
L 931 340
L 933 342
L 935 345
L 936 343
L 938 338
L 940 332
L 941 344
L 943 345
L 945 347
L 946 340
L 948 346
L 950 344
L 951 335
L 953 346
L 955 349
L 956 348
L 958 338
L 960 346
L 961 341
L 963 333
L 965 343
L 966 345
L 968 331
L 969 334" style="stroke-width:1;stroke:rgba(0,217,101,1.0);fill:none"/><path  d="M 38 351
L 40 351
L 42 351
L 43 351
L 45 351
L 47 351
L 48 351
L 50 351
L 52 351
L 53 351
L 55 351
L 57 351
L 58 351
L 60 351
L 62 351
L 63 351
L 65 351
L 67 351
L 68 351
L 70 351
L 72 351
L 73 351
L 75 351
L 77 351
L 78 351
L 80 351
L 82 351
L 83 350
L 85 351
L 87 351
L 88 351
L 90 350
L 92 351
L 93 351
L 95 351
L 97 351
L 98 351
L 100 351
L 102 351
L 103 351
L 105 350
L 107 351
L 108 351
L 110 351
L 112 350
L 113 351
L 115 351
L 117 350
L 118 351
L 120 351
L 122 351
L 123 351
L 125 351
L 127 351
L 128 351
L 130 351
L 132 351
L 133 351
L 135 351
L 137 351
L 138 351
L 140 351
L 142 351
L 143 351
L 145 351
L 147 351
L 148 351
L 150 351
L 152 351
L 153 351
L 155 351
L 157 351
L 158 351
L 160 351
L 162 351
L 163 351
L 165 351
L 167 351
L 168 351
L 170 351
L 172 351
L 173 351
L 175 351
L 177 351
L 178 351
L 180 351
L 182 351
L 183 351
L 185 351
L 187 351
L 188 351
L 190 351
L 192 351
L 193 351
L 195 351
L 197 351
L 198 351
L 200 351
L 202 351
L 203 351
L 205 351
L 207 351
L 208 351
L 210 351
L 212 351
L 213 351
L 215 351
L 217 351
L 218 351
L 220 351
L 222 351
L 223 351
L 225 351
L 227 351
L 228 351
L 230 351
L 232 351
L 233 351
L 235 351
L 237 351
L 238 351
L 240 351
L 242 351
L 243 351
L 245 351
L 247 351
L 248 351
L 250 351
L 252 351
L 253 351
L 255 351
L 257 351
L 258 351
L 260 351
L 262 351
L 263 351
L 265 351
L 267 351
L 268 351
L 270 351
L 272 351
L 273 351
L 275 351
L 277 351
L 278 351
L 280 351
L 282 351
L 283 351
L 285 351
L 287 351
L 288 351
L 290 351
L 292 351
L 293 351
L 295 351
L 297 351
L 298 351
L 300 351
L 302 351
L 303 351
L 305 351
L 307 351
L 308 351
L 310 351
L 312 351
L 313 351
L 315 351
L 317 351
L 318 351
L 320 351
L 322 351
L 323 351
L 325 351
L 327 351
L 328 351
L 330 351
L 332 351
L 333 351
L 335 351
L 337 351
L 338 351
L 340 351
L 342 351
L 343 351
L 345 351
L 347 351
L 348 351
L 350 351
L 352 351
L 353 351
L 355 351
L 357 351
L 358 351
L 360 351
L 362 351
L 363 351
L 365 351
L 367 351
L 368 351
L 370 351
L 372 351
L 373 350
L 375 351
L 377 351
L 378 351
L 380 351
L 382 351
L 383 351
L 385 351
L 387 351
L 388 351
L 390 351
L 392 351
L 393 351
L 395 351
L 397 351
L 398 351
L 400 351
L 402 351
L 403 351
L 405 351
L 407 351
L 408 351
L 410 351
L 412 351
L 413 351
L 415 351
L 417 351
L 418 351
L 420 351
L 422 351
L 423 351
L 425 351
L 427 351
L 428 351
L 430 351
L 432 351
L 433 351
L 435 351
L 437 351
L 438 351
L 440 351
L 442 351
L 443 350
L 445 351
L 447 351
L 448 351
L 450 351
L 452 350
L 453 351
L 455 351
L 457 351
L 458 351
L 460 350
L 462 351
L 463 351
L 465 350
L 467 351
L 468 351
L 470 350
L 472 351
L 473 351
L 475 351
L 477 350
L 478 351
L 480 351
L 482 351
L 483 351
L 485 350
L 487 351
L 488 351
L 490 350
L 492 351
L 493 351
L 495 350
L 497 351
L 498 351
L 500 350
L 502 351
L 503 351
L 505 351
L 506 351
L 508 351
L 510 351
L 511 351
L 513 349
L 515 351
L 516 351
L 518 351
L 520 351
L 521 350
L 523 350
L 525 350
L 526 351
L 528 351
L 530 350
L 531 350
L 533 350
L 535 351
L 536 351
L 538 351
L 540 351
L 541 351
L 543 351
L 545 351
L 546 351
L 548 350
L 550 350
L 551 351
L 553 349
L 555 351
L 556 351
L 558 351
L 560 351
L 561 351
L 563 350
L 565 351
L 566 351
L 568 351
L 570 351
L 571 351
L 573 349
L 575 350
L 576 350
L 578 350
L 580 350
L 581 351
L 583 350
L 585 351
L 586 351
L 588 351
L 590 351
L 591 351
L 593 350
L 595 351
L 596 351
L 598 351
L 600 351
L 601 351
L 603 351
L 605 351
L 606 351
L 608 351
L 610 351
L 611 351
L 613 351
L 615 351
L 616 351
L 618 351
L 620 351
L 621 351
L 623 351
L 625 351
L 626 349
L 628 351
L 630 351
L 631 351
L 633 351
L 635 351
L 636 351
L 638 350
L 640 351
L 641 351
L 643 351
L 645 351
L 646 351
L 648 351
L 650 351
L 651 351
L 653 351
L 655 351
L 656 351
L 658 351
L 660 350
L 661 351
L 663 351
L 665 351
L 666 351
L 668 351
L 670 351
L 671 351
L 673 351
L 675 351
L 676 351
L 678 350
L 680 351
L 681 351
L 683 350
L 685 351
L 686 351
L 688 351
L 690 351
L 691 351
L 693 351
L 695 351
L 696 351
L 698 351
L 700 351
L 701 350
L 703 350
L 705 351
L 706 351
L 708 351
L 710 351
L 711 351
L 713 350
L 715 351
L 716 350
L 718 351
L 720 351
L 721 350
L 723 351
L 725 351
L 726 351
L 728 351
L 730 351
L 731 351
L 733 351
L 735 351
L 736 351
L 738 351
L 740 351
L 741 351
L 743 351
L 745 351
L 746 351
L 748 351
L 750 350
L 751 351
L 753 351
L 755 351
L 756 351
L 758 351
L 760 351
L 761 351
L 763 350
L 765 350
L 766 351
L 768 351
L 770 351
L 771 351
L 773 351
L 775 351
L 776 351
L 778 351
L 780 351
L 781 351
L 783 351
L 785 351
L 786 351
L 788 351
L 790 351
L 791 351
L 793 351
L 795 351
L 796 351
L 798 351
L 800 351
L 801 351
L 803 351
L 805 351
L 806 351
L 808 351
L 810 351
L 811 351
L 813 351
L 815 351
L 816 351
L 818 351
L 820 351
L 821 351
L 823 351
L 825 351
L 826 351
L 828 351
L 830 351
L 831 351
L 833 351
L 835 351
L 836 351
L 838 351
L 840 351
L 841 351
L 843 351
L 845 351
L 846 351
L 848 351
L 850 351
L 851 351
L 853 351
L 855 351
L 856 351
L 858 351
L 860 351
L 861 351
L 863 351
L 865 351
L 866 351
L 868 351
L 870 351
L 871 351
L 873 351
L 875 351
L 876 351
L 878 351
L 880 351
L 881 351
L 883 351
L 885 351
L 886 351
L 888 351
L 890 351
L 891 351
L 893 351
L 895 351
L 896 351
L 898 351
L 900 351
L 901 351
L 903 351
L 905 351
L 906 351
L 908 351
L 910 351
L 911 351
L 913 351
L 915 351
L 916 351
L 918 351
L 920 351
L 921 350
L 923 351
L 925 351
L 926 351
L 928 351
L 930 351
L 931 351
L 933 351
L 935 351
L 936 351
L 938 351
L 940 351
L 941 351
L 943 351
L 945 351
L 946 351
L 948 351
L 950 351
L 951 351
L 953 351
L 955 351
L 956 351
L 958 351
L 960 351
L 961 351
L 963 351
L 965 351
L 966 351
L 968 351
L 969 351" style="stroke-width:1;stroke:rgba(217,0,116,1.0);fill:none"/><text x="390" y="33" style="stroke-width:0;stroke:none;fill:rgba(51,51,51,1.0);font-size:23.0px;font-family:'Roboto Medium',sans-serif">Korneuburg 07.09.2021</text><path  d="M 38 11
L 251 11
L 251 91
L 38 91
L 38 11" style="stroke-width:1;stroke:rgba(51,51,51,1.0);fill:rgba(255,255,255,1.0)"/><text x="43" y="26" style="stroke-width:0;stroke:none;fill:rgba(51,51,51,1.0);font-size:10.2px;font-family:'Roboto Medium',sans-serif">Sieben Tage Durschnitt Inzidenz Fälle</text><path  d="M 221 21
L 241 21" style="stroke-width:1;stroke:rgba(0,116,217,1.0);fill:none"/><text x="43" y="56" style="stroke-width:0;stroke:none;fill:rgba(51,51,51,1.0);font-size:10.2px;font-family:'Roboto Medium',sans-serif">Anzahl Faelle</text><path  d="M 110 51
L 241 51" style="stroke-width:1;stroke:rgba(0,217,101,1.0);fill:none"/><text x="43" y="86" style="stroke-width:0;stroke:none;fill:rgba(51,51,51,1.0);font-size:10.2px;font-family:'Roboto Medium',sans-serif">Anzahl Tot</text><path  d="M 98 81
L 241 81" style="stroke-width:1;stroke:rgba(217,0,116,1.0);fill:none"/></svg>