<svg xmlns="http://www.w3.org/2000/svg" xmlns:xlink="http://www.w3.org/1999/xlink" width="1024" height="400">\n<path  d="M 0 0
L 1024 0
L 1024 400
L 0 400
L 0 0" style="stroke-width:0;stroke:rgba(255,255,255,1.0);fill:rgba(255,255,255,1.0)"/><path  d="M 38 11
L 969 11
L 969 351
L 38 351
L 38 11" style="stroke-width:0;stroke:rgba(255,255,255,1.0);fill:rgba(255,255,255,1.0)"/><path  d="M 38 351
L 969 351" style="stroke-width:1;stroke:rgba(51,51,51,1.0);fill:none"/><path  d="M 38 351
L 38 356" style="stroke-width:1;stroke:rgba(51,51,51,1.0);fill:none"/><text x="5" y="373" style="stroke-width:0;stroke:none;fill:rgba(51,51,51,1.0);font-size:12.8px;font-family:'Roboto Medium',sans-serif">2020-02-26</text><path  d="M 155 351
L 155 356" style="stroke-width:1;stroke:rgba(51,51,51,1.0);fill:none"/><text x="122" y="373" style="stroke-width:0;stroke:none;fill:rgba(51,51,51,1.0);font-size:12.8px;font-family:'Roboto Medium',sans-serif">2020-05-01</text><path  d="M 271 351
L 271 356" style="stroke-width:1;stroke:rgba(51,51,51,1.0);fill:none"/><text x="238" y="373" style="stroke-width:0;stroke:none;fill:rgba(51,51,51,1.0);font-size:12.8px;font-family:'Roboto Medium',sans-serif">2020-07-05</text><path  d="M 388 351
L 388 356" style="stroke-width:1;stroke:rgba(51,51,51,1.0);fill:none"/><text x="355" y="373" style="stroke-width:0;stroke:none;fill:rgba(51,51,51,1.0);font-size:12.8px;font-family:'Roboto Medium',sans-serif">2020-09-09</text><path  d="M 504 351
L 504 356" style="stroke-width:1;stroke:rgba(51,51,51,1.0);fill:none"/><text x="471" y="373" style="stroke-width:0;stroke:none;fill:rgba(51,51,51,1.0);font-size:12.8px;font-family:'Roboto Medium',sans-serif">2020-11-13</text><path  d="M 620 351
L 620 356" style="stroke-width:1;stroke:rgba(51,51,51,1.0);fill:none"/><text x="587" y="373" style="stroke-width:0;stroke:none;fill:rgba(51,51,51,1.0);font-size:12.8px;font-family:'Roboto Medium',sans-serif">2021-01-17</text><path  d="M 737 351
L 737 356" style="stroke-width:1;stroke:rgba(51,51,51,1.0);fill:none"/><text x="704" y="373" style="stroke-width:0;stroke:none;fill:rgba(51,51,51,1.0);font-size:12.8px;font-family:'Roboto Medium',sans-serif">2021-03-24</text><path  d="M 853 351
L 853 356" style="stroke-width:1;stroke:rgba(51,51,51,1.0);fill:none"/><text x="820" y="373" style="stroke-width:0;stroke:none;fill:rgba(51,51,51,1.0);font-size:12.8px;font-family:'Roboto Medium',sans-serif">2021-05-28</text><path  d="M 969 351
L 969 356" style="stroke-width:1;stroke:rgba(51,51,51,1.0);fill:none"/><text x="936" y="373" style="stroke-width:0;stroke:none;fill:rgba(51,51,51,1.0);font-size:12.8px;font-family:'Roboto Medium',sans-serif">2021-08-02</text><text x="485" y="395" style="stroke-width:0;stroke:none;fill:rgba(51,51,51,1.0);font-size:12.8px;font-family:'Roboto Medium',sans-serif">Datum</text><path  d="M 970 351
L 970 11" style="stroke-width:1;stroke:rgba(51,51,51,1.0);fill:none"/><path  d="M 970 351
L 975 351" style="stroke-width:1;stroke:rgba(51,51,51,1.0);fill:none"/><text x="980" y="357" style="stroke-width:0;stroke:none;fill:rgba(51,51,51,1.0);font-size:12.8px;font-family:'Roboto Medium',sans-serif">0.00</text><path  d="M 970 308
L 975 308" style="stroke-width:1;stroke:rgba(51,51,51,1.0);fill:none"/><text x="980" y="314" style="stroke-width:0;stroke:none;fill:rgba(51,51,51,1.0);font-size:12.8px;font-family:'Roboto Medium',sans-serif">68.00</text><path  d="M 970 266
L 975 266" style="stroke-width:1;stroke:rgba(51,51,51,1.0);fill:none"/><text x="980" y="272" style="stroke-width:0;stroke:none;fill:rgba(51,51,51,1.0);font-size:12.8px;font-family:'Roboto Medium',sans-serif">135.00</text><path  d="M 970 223
L 975 223" style="stroke-width:1;stroke:rgba(51,51,51,1.0);fill:none"/><text x="980" y="229" style="stroke-width:0;stroke:none;fill:rgba(51,51,51,1.0);font-size:12.8px;font-family:'Roboto Medium',sans-serif">203.00</text><path  d="M 970 181
L 975 181" style="stroke-width:1;stroke:rgba(51,51,51,1.0);fill:none"/><text x="980" y="187" style="stroke-width:0;stroke:none;fill:rgba(51,51,51,1.0);font-size:12.8px;font-family:'Roboto Medium',sans-serif">270.00</text><path  d="M 970 138
L 975 138" style="stroke-width:1;stroke:rgba(51,51,51,1.0);fill:none"/><text x="980" y="144" style="stroke-width:0;stroke:none;fill:rgba(51,51,51,1.0);font-size:12.8px;font-family:'Roboto Medium',sans-serif">338.00</text><path  d="M 970 96
L 975 96" style="stroke-width:1;stroke:rgba(51,51,51,1.0);fill:none"/><text x="980" y="102" style="stroke-width:0;stroke:none;fill:rgba(51,51,51,1.0);font-size:12.8px;font-family:'Roboto Medium',sans-serif">405.00</text><path  d="M 970 53
L 975 53" style="stroke-width:1;stroke:rgba(51,51,51,1.0);fill:none"/><text x="980" y="59" style="stroke-width:0;stroke:none;fill:rgba(51,51,51,1.0);font-size:12.8px;font-family:'Roboto Medium',sans-serif">473.00</text><path  d="M 970 11
L 975 11" style="stroke-width:1;stroke:rgba(51,51,51,1.0);fill:none"/><text x="980" y="17" style="stroke-width:0;stroke:none;fill:rgba(51,51,51,1.0);font-size:12.8px;font-family:'Roboto Medium',sans-serif">540.00</text><path  d="M 38 351
L 40 351
L 42 351
L 44 351
L 46 351
L 47 351
L 49 351
L 51 351
L 53 351
L 55 351
L 56 351
L 58 351
L 60 351
L 62 351
L 63 351
L 65 351
L 67 351
L 69 349
L 71 348
L 72 348
L 74 343
L 76 342
L 78 340
L 79 335
L 81 332
L 83 325
L 85 319
L 87 307
L 88 302
L 90 278
L 92 276
L 94 267
L 95 273
L 97 273
L 99 285
L 101 286
L 103 305
L 104 307
L 106 318
L 108 318
L 110 318
L 111 323
L 113 328
L 115 334
L 117 339
L 119 338
L 120 339
L 122 345
L 124 346
L 126 346
L 128 345
L 129 345
L 131 348
L 133 349
L 135 348
L 136 343
L 138 340
L 140 342
L 142 338
L 144 338
L 145 338
L 147 339
L 149 344
L 151 346
L 152 346
L 154 347
L 156 347
L 158 347
L 160 347
L 161 348
L 163 348
L 165 348
L 167 351
L 168 351
L 170 351
L 172 349
L 174 349
L 176 349
L 177 349
L 179 346
L 181 346
L 183 346
L 184 347
L 186 347
L 188 347
L 190 347
L 192 351
L 193 351
L 195 351
L 197 351
L 199 349
L 200 349
L 202 349
L 204 348
L 206 348
L 208 348
L 209 347
L 211 348
L 213 348
L 215 348
L 217 349
L 218 349
L 220 349
L 222 351
L 224 351
L 225 351
L 227 351
L 229 349
L 231 349
L 233 349
L 234 349
L 236 348
L 238 348
L 240 348
L 241 349
L 243 349
L 245 349
L 247 349
L 249 351
L 250 349
L 252 349
L 254 349
L 256 349
L 257 349
L 259 349
L 261 349
L 263 351
L 265 349
L 266 349
L 268 349
L 270 349
L 272 349
L 273 349
L 275 349
L 277 351
L 279 351
L 281 351
L 282 351
L 284 351
L 286 351
L 288 349
L 289 348
L 291 348
L 293 348
L 295 348
L 297 346
L 298 343
L 300 339
L 302 340
L 304 339
L 306 339
L 307 338
L 309 340
L 311 340
L 313 340
L 314 340
L 316 340
L 318 340
L 320 342
L 322 339
L 323 343
L 325 347
L 327 345
L 329 346
L 330 346
L 332 346
L 334 348
L 336 348
L 338 347
L 339 349
L 341 349
L 343 349
L 345 349
L 346 348
L 348 348
L 350 348
L 352 347
L 354 347
L 355 347
L 357 347
L 359 348
L 361 348
L 362 349
L 364 351
L 366 349
L 368 349
L 370 349
L 371 348
L 373 348
L 375 348
L 377 347
L 379 348
L 380 348
L 382 348
L 384 349
L 386 347
L 387 345
L 389 343
L 391 338
L 393 336
L 395 330
L 396 324
L 398 323
L 400 316
L 402 317
L 403 310
L 405 307
L 407 304
L 409 305
L 411 303
L 412 305
L 414 300
L 416 299
L 418 303
L 419 304
L 421 305
L 423 305
L 425 307
L 427 312
L 428 318
L 430 313
L 432 319
L 434 312
L 435 310
L 437 309
L 439 305
L 441 303
L 443 310
L 444 307
L 446 309
L 448 312
L 450 312
L 451 313
L 453 315
L 455 308
L 457 303
L 459 300
L 460 288
L 462 285
L 464 273
L 466 265
L 468 261
L 469 248
L 471 239
L 473 225
L 475 208
L 476 204
L 478 185
L 480 153
L 482 143
L 484 118
L 485 101
L 487 73
L 489 35
L 491 29
L 492 28
L 494 18
L 496 12
L 498 12
L 500 12
L 501 31
L 503 40
L 505 42
L 507 38
L 508 49
L 510 39
L 512 72
L 514 71
L 516 73
L 517 82
L 519 116
L 521 125
L 523 155
L 524 150
L 526 160
L 528 163
L 530 167
L 532 167
L 533 182
L 535 198
L 537 211
L 539 229
L 540 231
L 542 238
L 544 241
L 546 241
L 548 238
L 549 244
L 551 241
L 553 244
L 555 254
L 557 253
L 558 250
L 560 260
L 562 258
L 564 268
L 565 281
L 567 288
L 569 297
L 571 305
L 573 304
L 574 308
L 576 303
L 578 307
L 580 310
L 581 312
L 583 312
L 585 308
L 587 290
L 589 298
L 590 298
L 592 296
L 594 289
L 596 287
L 597 284
L 599 298
L 601 296
L 603 279
L 605 275
L 606 278
L 608 277
L 610 277
L 612 278
L 613 269
L 615 284
L 617 284
L 619 284
L 621 280
L 622 283
L 624 277
L 626 288
L 628 281
L 629 279
L 631 267
L 633 266
L 635 261
L 637 258
L 638 248
L 640 245
L 642 244
L 644 257
L 646 268
L 647 258
L 649 268
L 651 270
L 653 264
L 654 258
L 656 256
L 658 256
L 660 275
L 662 268
L 663 270
L 665 279
L 667 293
L 669 297
L 670 300
L 672 303
L 674 307
L 676 314
L 678 316
L 679 313
L 681 313
L 683 308
L 685 306
L 686 308
L 688 302
L 690 307
L 692 296
L 694 295
L 695 287
L 697 277
L 699 269
L 701 275
L 702 264
L 704 278
L 706 277
L 708 281
L 710 289
L 711 287
L 713 274
L 715 263
L 717 241
L 719 240
L 720 232
L 722 234
L 724 234
L 726 236
L 727 244
L 729 247
L 731 243
L 733 244
L 735 234
L 736 238
L 738 241
L 740 245
L 742 256
L 743 254
L 745 260
L 747 259
L 749 255
L 751 245
L 752 244
L 754 241
L 756 247
L 758 253
L 759 259
L 761 261
L 763 271
L 765 264
L 767 269
L 768 261
L 770 263
L 772 258
L 774 254
L 775 257
L 777 265
L 779 260
L 781 257
L 783 256
L 784 266
L 786 275
L 788 273
L 790 284
L 791 288
L 793 302
L 795 297
L 797 293
L 799 288
L 800 290
L 802 284
L 804 284
L 806 280
L 808 275
L 809 280
L 811 288
L 813 289
L 815 295
L 816 288
L 818 290
L 820 291
L 822 288
L 824 287
L 825 288
L 827 293
L 829 303
L 831 306
L 832 318
L 834 324
L 836 326
L 838 330
L 840 328
L 841 330
L 843 332
L 845 335
L 847 335
L 848 337
L 850 336
L 852 339
L 854 340
L 856 342
L 857 340
L 859 343
L 861 340
L 863 344
L 864 345
L 866 345
L 868 339
L 870 337
L 872 334
L 873 336
L 875 336
L 877 336
L 879 336
L 880 342
L 882 345
L 884 349
L 886 349
L 888 347
L 889 346
L 891 346
L 893 346
L 895 346
L 897 346
L 898 347
L 900 348
L 902 349
L 904 349
L 905 349
L 907 349
L 909 348
L 911 348
L 913 349
L 914 349
L 916 348
L 918 348
L 920 346
L 921 347
L 923 346
L 925 346
L 927 345
L 929 346
L 930 346
L 932 347
L 934 347
L 936 346
L 937 346
L 939 346
L 941 346
L 943 346
L 945 347
L 946 346
L 948 348
L 950 348
L 952 349
L 953 349
L 955 349
L 957 348
L 959 346
L 961 345
L 962 344
L 964 340
L 966 339
L 968 337
L 969 337" style="stroke-width:1;stroke:rgba(0,116,217,1.0);fill:none"/><path  d="M 38 351
L 40 351
L 42 351
L 44 351
L 46 351
L 47 351
L 49 351
L 51 351
L 53 351
L 55 351
L 56 351
L 58 351
L 60 351
L 62 351
L 63 351
L 65 351
L 67 351
L 69 350
L 71 350
L 72 351
L 74 347
L 76 350
L 78 350
L 79 347
L 81 348
L 83 346
L 85 347
L 87 340
L 88 347
L 90 337
L 92 346
L 94 343
L 95 349
L 97 347
L 99 347
L 101 347
L 103 347
L 104 347
L 106 349
L 108 349
L 110 347
L 111 350
L 113 351
L 115 351
L 117 351
L 119 349
L 120 350
L 122 351
L 124 351
L 126 351
L 128 350
L 129 351
L 131 351
L 133 351
L 135 350
L 136 347
L 138 349
L 140 351
L 142 349
L 144 351
L 145 351
L 147 351
L 149 350
L 151 351
L 152 351
L 154 349
L 156 351
L 158 351
L 160 351
L 161 351
L 163 351
L 165 351
L 167 351
L 168 351
L 170 351
L 172 350
L 174 351
L 176 351
L 177 351
L 179 349
L 181 351
L 183 351
L 184 351
L 186 351
L 188 351
L 190 351
L 192 351
L 193 351
L 195 351
L 197 351
L 199 350
L 200 351
L 202 351
L 204 350
L 206 351
L 208 351
L 209 350
L 211 351
L 213 351
L 215 351
L 217 351
L 218 351
L 220 351
L 222 351
L 224 351
L 225 351
L 227 351
L 229 350
L 231 351
L 233 351
L 234 351
L 236 350
L 238 351
L 240 351
L 241 351
L 243 351
L 245 351
L 247 351
L 249 351
L 250 350
L 252 351
L 254 351
L 256 351
L 257 351
L 259 351
L 261 351
L 263 351
L 265 350
L 266 351
L 268 351
L 270 351
L 272 351
L 273 351
L 275 351
L 277 351
L 279 351
L 281 351
L 282 351
L 284 351
L 286 351
L 288 350
L 289 350
L 291 351
L 293 351
L 295 351
L 297 349
L 298 349
L 300 348
L 302 351
L 304 350
L 306 351
L 307 350
L 309 351
L 311 349
L 313 348
L 314 351
L 316 350
L 318 351
L 320 351
L 322 349
L 323 351
L 325 351
L 327 349
L 329 351
L 330 351
L 332 351
L 334 351
L 336 351
L 338 350
L 339 351
L 341 351
L 343 351
L 345 351
L 346 350
L 348 351
L 350 350
L 352 350
L 354 351
L 355 351
L 357 351
L 359 351
L 361 351
L 362 351
L 364 351
L 366 350
L 368 351
L 370 351
L 371 350
L 373 351
L 375 351
L 377 350
L 379 351
L 380 351
L 382 351
L 384 351
L 386 349
L 387 349
L 389 349
L 391 348
L 393 349
L 395 347
L 396 347
L 398 349
L 400 345
L 402 349
L 403 344
L 405 347
L 407 345
L 409 347
L 411 347
L 412 347
L 414 347
L 416 344
L 418 349
L 419 346
L 421 348
L 423 347
L 425 348
L 427 349
L 428 347
L 430 346
L 432 350
L 434 344
L 435 347
L 437 347
L 439 347
L 441 346
L 443 351
L 444 348
L 446 345
L 448 348
L 450 347
L 451 347
L 453 347
L 455 347
L 457 345
L 459 344
L 460 341
L 462 345
L 464 340
L 466 343
L 468 345
L 469 337
L 471 339
L 473 333
L 475 336
L 476 338
L 478 332
L 480 327
L 482 332
L 484 324
L 485 323
L 487 320
L 489 317
L 491 328
L 492 327
L 494 326
L 496 321
L 498 323
L 500 320
L 501 327
L 503 334
L 505 328
L 507 323
L 508 327
L 510 318
L 512 339
L 514 327
L 516 335
L 517 333
L 519 342
L 521 332
L 523 335
L 524 337
L 526 332
L 528 337
L 530 335
L 532 342
L 533 341
L 535 344
L 537 344
L 539 342
L 540 338
L 542 339
L 544 344
L 546 341
L 548 342
L 549 347
L 551 341
L 553 339
L 555 344
L 557 344
L 558 340
L 560 347
L 562 346
L 564 347
L 565 347
L 567 348
L 569 349
L 571 344
L 573 347
L 574 349
L 576 344
L 578 349
L 580 350
L 581 349
L 583 344
L 585 345
L 587 339
L 589 348
L 590 349
L 592 349
L 594 345
L 596 343
L 597 343
L 599 347
L 601 347
L 603 340
L 605 346
L 606 347
L 608 342
L 610 343
L 612 347
L 613 342
L 615 348
L 617 346
L 619 347
L 621 340
L 622 344
L 624 344
L 626 348
L 628 344
L 629 345
L 631 340
L 633 340
L 635 342
L 637 342
L 638 342
L 640 342
L 642 344
L 644 348
L 646 346
L 647 336
L 649 348
L 651 344
L 653 339
L 654 341
L 656 347
L 658 346
L 660 347
L 662 344
L 663 345
L 665 344
L 667 349
L 669 349
L 670 348
L 672 348
L 674 347
L 676 349
L 678 345
L 679 347
L 681 349
L 683 345
L 685 347
L 686 348
L 688 345
L 690 348
L 692 340
L 694 349
L 695 341
L 697 341
L 699 344
L 701 348
L 702 342
L 704 349
L 706 348
L 708 344
L 710 345
L 711 342
L 713 340
L 715 335
L 717 337
L 719 347
L 720 339
L 722 346
L 724 342
L 726 342
L 727 340
L 729 339
L 731 345
L 733 340
L 735 340
L 736 345
L 738 344
L 740 342
L 742 345
L 743 344
L 745 344
L 747 340
L 749 342
L 751 338
L 752 341
L 754 344
L 756 347
L 758 347
L 759 344
L 761 344
L 763 344
L 765 337
L 767 347
L 768 342
L 770 347
L 772 341
L 774 341
L 775 345
L 777 341
L 779 344
L 781 340
L 783 347
L 784 347
L 786 346
L 788 344
L 790 347
L 791 347
L 793 348
L 795 344
L 797 344
L 799 344
L 800 345
L 802 344
L 804 347
L 806 346
L 808 341
L 809 347
L 811 348
L 813 346
L 815 347
L 816 343
L 818 347
L 820 342
L 822 345
L 824 347
L 825 347
L 827 349
L 829 349
L 831 349
L 832 349
L 834 349
L 836 349
L 838 349
L 840 348
L 841 350
L 843 350
L 845 351
L 847 349
L 848 350
L 850 349
L 852 350
L 854 351
L 856 351
L 857 350
L 859 350
L 861 349
L 863 351
L 864 351
L 866 351
L 868 347
L 870 349
L 872 348
L 873 350
L 875 351
L 877 351
L 879 351
L 880 351
L 882 351
L 884 351
L 886 350
L 888 349
L 889 350
L 891 351
L 893 351
L 895 351
L 897 351
L 898 351
L 900 350
L 902 351
L 904 351
L 905 351
L 907 351
L 909 350
L 911 351
L 913 351
L 914 351
L 916 350
L 918 351
L 920 349
L 921 351
L 923 350
L 925 351
L 927 350
L 929 351
L 930 351
L 932 350
L 934 351
L 936 349
L 937 351
L 939 350
L 941 351
L 943 351
L 945 351
L 946 350
L 948 351
L 950 351
L 952 351
L 953 351
L 955 351
L 957 350
L 959 349
L 961 350
L 962 350
L 964 349
L 966 350
L 968 349
L 969 350" style="stroke-width:1;stroke:rgba(0,217,101,1.0);fill:none"/><path  d="M 38 351
L 40 351
L 42 351
L 44 351
L 46 351
L 47 351
L 49 351
L 51 351
L 53 351
L 55 351
L 56 351
L 58 351
L 60 351
L 62 351
L 63 351
L 65 351
L 67 351
L 69 351
L 71 351
L 72 351
L 74 351
L 76 351
L 78 351
L 79 350
L 81 351
L 83 350
L 85 351
L 87 351
L 88 351
L 90 351
L 92 351
L 94 351
L 95 351
L 97 351
L 99 351
L 101 351
L 103 351
L 104 351
L 106 350
L 108 351
L 110 349
L 111 351
L 113 351
L 115 350
L 117 351
L 119 351
L 120 351
L 122 351
L 124 351
L 126 351
L 128 349
L 129 351
L 131 351
L 133 351
L 135 351
L 136 351
L 138 351
L 140 351
L 142 351
L 144 351
L 145 351
L 147 351
L 149 351
L 151 351
L 152 351
L 154 351
L 156 351
L 158 351
L 160 351
L 161 351
L 163 351
L 165 351
L 167 351
L 168 351
L 170 351
L 172 351
L 174 351
L 176 351
L 177 351
L 179 351
L 181 351
L 183 351
L 184 351
L 186 351
L 188 351
L 190 351
L 192 351
L 193 351
L 195 351
L 197 351
L 199 351
L 200 351
L 202 351
L 204 351
L 206 351
L 208 351
L 209 351
L 211 351
L 213 351
L 215 351
L 217 351
L 218 351
L 220 351
L 222 351
L 224 351
L 225 351
L 227 351
L 229 351
L 231 351
L 233 351
L 234 351
L 236 351
L 238 351
L 240 351
L 241 351
L 243 351
L 245 351
L 247 351
L 249 351
L 250 351
L 252 351
L 254 351
L 256 351
L 257 351
L 259 351
L 261 351
L 263 351
L 265 351
L 266 351
L 268 351
L 270 351
L 272 351
L 273 351
L 275 351
L 277 351
L 279 351
L 281 351
L 282 351
L 284 351
L 286 351
L 288 351
L 289 351
L 291 351
L 293 351
L 295 351
L 297 351
L 298 351
L 300 351
L 302 351
L 304 351
L 306 351
L 307 351
L 309 351
L 311 351
L 313 351
L 314 351
L 316 351
L 318 351
L 320 351
L 322 351
L 323 351
L 325 351
L 327 351
L 329 351
L 330 351
L 332 351
L 334 351
L 336 351
L 338 351
L 339 351
L 341 351
L 343 351
L 345 351
L 346 351
L 348 351
L 350 351
L 352 351
L 354 351
L 355 351
L 357 351
L 359 351
L 361 351
L 362 351
L 364 351
L 366 351
L 368 351
L 370 351
L 371 351
L 373 351
L 375 351
L 377 351
L 379 351
L 380 351
L 382 351
L 384 351
L 386 351
L 387 351
L 389 351
L 391 351
L 393 351
L 395 351
L 396 351
L 398 351
L 400 351
L 402 351
L 403 351
L 405 351
L 407 351
L 409 351
L 411 351
L 412 351
L 414 351
L 416 351
L 418 351
L 419 351
L 421 351
L 423 351
L 425 351
L 427 351
L 428 351
L 430 351
L 432 351
L 434 351
L 435 351
L 437 351
L 439 351
L 441 351
L 443 351
L 444 351
L 446 351
L 448 351
L 450 351
L 451 351
L 453 351
L 455 351
L 457 351
L 459 351
L 460 351
L 462 351
L 464 350
L 466 351
L 468 351
L 469 351
L 471 351
L 473 351
L 475 351
L 476 351
L 478 351
L 480 351
L 482 350
L 484 351
L 485 351
L 487 351
L 489 351
L 491 351
L 492 350
L 494 351
L 496 351
L 498 351
L 500 351
L 501 351
L 503 351
L 505 350
L 507 351
L 508 351
L 510 351
L 512 351
L 514 350
L 516 351
L 517 351
L 519 350
L 521 351
L 523 351
L 524 350
L 526 350
L 528 351
L 530 351
L 532 351
L 533 351
L 535 350
L 537 351
L 539 350
L 540 350
L 542 351
L 544 350
L 546 350
L 548 351
L 549 351
L 551 351
L 553 351
L 555 350
L 557 351
L 558 351
L 560 350
L 562 350
L 564 351
L 565 351
L 567 351
L 569 351
L 571 351
L 573 351
L 574 351
L 576 351
L 578 350
L 580 351
L 581 351
L 583 351
L 585 351
L 587 351
L 589 351
L 590 351
L 592 351
L 594 351
L 596 351
L 597 351
L 599 350
L 601 351
L 603 351
L 605 351
L 606 351
L 608 351
L 610 351
L 612 351
L 613 351
L 615 350
L 617 351
L 619 351
L 621 351
L 622 351
L 624 351
L 626 351
L 628 351
L 629 350
L 631 351
L 633 351
L 635 351
L 637 351
L 638 351
L 640 350
L 642 351
L 644 351
L 646 351
L 647 351
L 649 351
L 651 351
L 653 350
L 654 351
L 656 351
L 658 351
L 660 351
L 662 351
L 663 351
L 665 351
L 667 351
L 669 351
L 670 351
L 672 351
L 674 351
L 676 351
L 678 351
L 679 351
L 681 351
L 683 351
L 685 351
L 686 351
L 688 351
L 690 351
L 692 351
L 694 350
L 695 350
L 697 351
L 699 351
L 701 351
L 702 351
L 704 351
L 706 351
L 708 351
L 710 351
L 711 350
L 713 351
L 715 351
L 717 351
L 719 351
L 720 351
L 722 351
L 724 351
L 726 350
L 727 350
L 729 351
L 731 351
L 733 351
L 735 351
L 736 351
L 738 351
L 740 351
L 742 351
L 743 351
L 745 351
L 747 351
L 749 351
L 751 350
L 752 351
L 754 350
L 756 351
L 758 351
L 759 351
L 761 351
L 763 350
L 765 351
L 767 351
L 768 351
L 770 351
L 772 351
L 774 351
L 775 351
L 777 351
L 779 351
L 781 351
L 783 351
L 784 350
L 786 351
L 788 351
L 790 351
L 791 351
L 793 351
L 795 351
L 797 351
L 799 351
L 800 351
L 802 350
L 804 351
L 806 351
L 808 351
L 809 351
L 811 351
L 813 351
L 815 350
L 816 351
L 818 351
L 820 351
L 822 351
L 824 351
L 825 351
L 827 351
L 829 351
L 831 351
L 832 351
L 834 351
L 836 351
L 838 351
L 840 351
L 841 351
L 843 351
L 845 351
L 847 351
L 848 351
L 850 351
L 852 351
L 854 351
L 856 351
L 857 351
L 859 351
L 861 351
L 863 351
L 864 351
L 866 351
L 868 351
L 870 351
L 872 351
L 873 351
L 875 351
L 877 351
L 879 351
L 880 351
L 882 351
L 884 351
L 886 351
L 888 351
L 889 351
L 891 351
L 893 351
L 895 351
L 897 351
L 898 351
L 900 351
L 902 351
L 904 351
L 905 351
L 907 351
L 909 351
L 911 351
L 913 351
L 914 351
L 916 351
L 918 351
L 920 351
L 921 351
L 923 351
L 925 351
L 927 351
L 929 351
L 930 351
L 932 351
L 934 351
L 936 351
L 937 351
L 939 351
L 941 351
L 943 351
L 945 351
L 946 351
L 948 351
L 950 351
L 952 351
L 953 351
L 955 351
L 957 351
L 959 351
L 961 351
L 962 351
L 964 351
L 966 351
L 968 351
L 969 351" style="stroke-width:1;stroke:rgba(217,0,116,1.0);fill:none"/><text x="384" y="33" style="stroke-width:0;stroke:none;fill:rgba(51,51,51,1.0);font-size:23.0px;font-family:'Roboto Medium',sans-serif">Krems(Land) 02.08.2021</text><path  d="M 38 11
L 251 11
L 251 91
L 38 91
L 38 11" style="stroke-width:1;stroke:rgba(51,51,51,1.0);fill:rgba(255,255,255,1.0)"/><text x="43" y="26" style="stroke-width:0;stroke:none;fill:rgba(51,51,51,1.0);font-size:10.2px;font-family:'Roboto Medium',sans-serif">Sieben Tage Durschnitt Inzidenz Fälle</text><path  d="M 221 21
L 241 21" style="stroke-width:1;stroke:rgba(0,116,217,1.0);fill:none"/><text x="43" y="56" style="stroke-width:0;stroke:none;fill:rgba(51,51,51,1.0);font-size:10.2px;font-family:'Roboto Medium',sans-serif">Anzahl Faelle</text><path  d="M 110 51
L 241 51" style="stroke-width:1;stroke:rgba(0,217,101,1.0);fill:none"/><text x="43" y="86" style="stroke-width:0;stroke:none;fill:rgba(51,51,51,1.0);font-size:10.2px;font-family:'Roboto Medium',sans-serif">Anzahl Tot</text><path  d="M 98 81
L 241 81" style="stroke-width:1;stroke:rgba(217,0,116,1.0);fill:none"/></svg>