<svg xmlns="http://www.w3.org/2000/svg" xmlns:xlink="http://www.w3.org/1999/xlink" width="1024" height="400">\n<path  d="M 0 0
L 1024 0
L 1024 400
L 0 400
L 0 0" style="stroke-width:0;stroke:rgba(255,255,255,1.0);fill:rgba(255,255,255,1.0)"/><path  d="M 38 11
L 969 11
L 969 351
L 38 351
L 38 11" style="stroke-width:0;stroke:rgba(255,255,255,1.0);fill:rgba(255,255,255,1.0)"/><path  d="M 38 351
L 969 351" style="stroke-width:1;stroke:rgba(51,51,51,1.0);fill:none"/><path  d="M 38 351
L 38 356" style="stroke-width:1;stroke:rgba(51,51,51,1.0);fill:none"/><text x="5" y="373" style="stroke-width:0;stroke:none;fill:rgba(51,51,51,1.0);font-size:12.8px;font-family:'Roboto Medium',sans-serif">2020-02-26</text><path  d="M 155 351
L 155 356" style="stroke-width:1;stroke:rgba(51,51,51,1.0);fill:none"/><text x="122" y="373" style="stroke-width:0;stroke:none;fill:rgba(51,51,51,1.0);font-size:12.8px;font-family:'Roboto Medium',sans-serif">2020-05-08</text><path  d="M 271 351
L 271 356" style="stroke-width:1;stroke:rgba(51,51,51,1.0);fill:none"/><text x="238" y="373" style="stroke-width:0;stroke:none;fill:rgba(51,51,51,1.0);font-size:12.8px;font-family:'Roboto Medium',sans-serif">2020-07-20</text><path  d="M 388 351
L 388 356" style="stroke-width:1;stroke:rgba(51,51,51,1.0);fill:none"/><text x="355" y="373" style="stroke-width:0;stroke:none;fill:rgba(51,51,51,1.0);font-size:12.8px;font-family:'Roboto Medium',sans-serif">2020-10-01</text><path  d="M 504 351
L 504 356" style="stroke-width:1;stroke:rgba(51,51,51,1.0);fill:none"/><text x="471" y="373" style="stroke-width:0;stroke:none;fill:rgba(51,51,51,1.0);font-size:12.8px;font-family:'Roboto Medium',sans-serif">2020-12-13</text><path  d="M 620 351
L 620 356" style="stroke-width:1;stroke:rgba(51,51,51,1.0);fill:none"/><text x="587" y="373" style="stroke-width:0;stroke:none;fill:rgba(51,51,51,1.0);font-size:12.8px;font-family:'Roboto Medium',sans-serif">2021-02-23</text><path  d="M 737 351
L 737 356" style="stroke-width:1;stroke:rgba(51,51,51,1.0);fill:none"/><text x="704" y="373" style="stroke-width:0;stroke:none;fill:rgba(51,51,51,1.0);font-size:12.8px;font-family:'Roboto Medium',sans-serif">2021-05-07</text><path  d="M 853 351
L 853 356" style="stroke-width:1;stroke:rgba(51,51,51,1.0);fill:none"/><text x="820" y="373" style="stroke-width:0;stroke:none;fill:rgba(51,51,51,1.0);font-size:12.8px;font-family:'Roboto Medium',sans-serif">2021-07-19</text><path  d="M 969 351
L 969 356" style="stroke-width:1;stroke:rgba(51,51,51,1.0);fill:none"/><text x="936" y="373" style="stroke-width:0;stroke:none;fill:rgba(51,51,51,1.0);font-size:12.8px;font-family:'Roboto Medium',sans-serif">2021-09-30</text><text x="485" y="395" style="stroke-width:0;stroke:none;fill:rgba(51,51,51,1.0);font-size:12.8px;font-family:'Roboto Medium',sans-serif">Datum</text><path  d="M 970 351
L 970 11" style="stroke-width:1;stroke:rgba(51,51,51,1.0);fill:none"/><path  d="M 970 351
L 975 351" style="stroke-width:1;stroke:rgba(51,51,51,1.0);fill:none"/><text x="980" y="357" style="stroke-width:0;stroke:none;fill:rgba(51,51,51,1.0);font-size:12.8px;font-family:'Roboto Medium',sans-serif">0.00</text><path  d="M 970 308
L 975 308" style="stroke-width:1;stroke:rgba(51,51,51,1.0);fill:none"/><text x="980" y="314" style="stroke-width:0;stroke:none;fill:rgba(51,51,51,1.0);font-size:12.8px;font-family:'Roboto Medium',sans-serif">77.00</text><path  d="M 970 265
L 975 265" style="stroke-width:1;stroke:rgba(51,51,51,1.0);fill:none"/><text x="980" y="271" style="stroke-width:0;stroke:none;fill:rgba(51,51,51,1.0);font-size:12.8px;font-family:'Roboto Medium',sans-serif">153.00</text><path  d="M 970 223
L 975 223" style="stroke-width:1;stroke:rgba(51,51,51,1.0);fill:none"/><text x="980" y="229" style="stroke-width:0;stroke:none;fill:rgba(51,51,51,1.0);font-size:12.8px;font-family:'Roboto Medium',sans-serif">229.00</text><path  d="M 970 181
L 975 181" style="stroke-width:1;stroke:rgba(51,51,51,1.0);fill:none"/><text x="980" y="187" style="stroke-width:0;stroke:none;fill:rgba(51,51,51,1.0);font-size:12.8px;font-family:'Roboto Medium',sans-serif">305.00</text><path  d="M 970 138
L 975 138" style="stroke-width:1;stroke:rgba(51,51,51,1.0);fill:none"/><text x="980" y="144" style="stroke-width:0;stroke:none;fill:rgba(51,51,51,1.0);font-size:12.8px;font-family:'Roboto Medium',sans-serif">382.00</text><path  d="M 970 95
L 975 95" style="stroke-width:1;stroke:rgba(51,51,51,1.0);fill:none"/><text x="980" y="101" style="stroke-width:0;stroke:none;fill:rgba(51,51,51,1.0);font-size:12.8px;font-family:'Roboto Medium',sans-serif">458.00</text><path  d="M 970 53
L 975 53" style="stroke-width:1;stroke:rgba(51,51,51,1.0);fill:none"/><text x="980" y="59" style="stroke-width:0;stroke:none;fill:rgba(51,51,51,1.0);font-size:12.8px;font-family:'Roboto Medium',sans-serif">534.00</text><path  d="M 970 11
L 975 11" style="stroke-width:1;stroke:rgba(51,51,51,1.0);fill:none"/><text x="980" y="17" style="stroke-width:0;stroke:none;fill:rgba(51,51,51,1.0);font-size:12.8px;font-family:'Roboto Medium',sans-serif">610.00</text><path  d="M 38 351
L 40 351
L 42 351
L 43 351
L 45 351
L 46 351
L 48 351
L 50 351
L 51 351
L 53 351
L 54 351
L 56 351
L 58 351
L 59 351
L 61 351
L 62 351
L 64 351
L 66 351
L 67 351
L 69 351
L 70 348
L 72 346
L 74 346
L 75 346
L 77 346
L 78 346
L 80 339
L 82 339
L 83 337
L 85 328
L 86 317
L 88 308
L 90 308
L 91 312
L 93 315
L 94 317
L 96 321
L 98 328
L 99 337
L 101 330
L 102 330
L 104 330
L 106 333
L 107 337
L 109 339
L 110 339
L 112 346
L 114 346
L 115 346
L 117 346
L 118 346
L 120 346
L 122 344
L 123 344
L 125 346
L 126 346
L 128 344
L 130 342
L 131 344
L 133 346
L 134 346
L 136 346
L 138 344
L 139 342
L 141 344
L 142 344
L 144 344
L 146 344
L 147 344
L 149 346
L 150 351
L 152 351
L 154 351
L 155 351
L 157 351
L 158 351
L 160 351
L 162 351
L 163 351
L 165 351
L 166 351
L 168 351
L 170 351
L 171 351
L 173 348
L 174 348
L 176 348
L 178 348
L 179 348
L 181 348
L 182 348
L 184 351
L 186 351
L 187 351
L 189 351
L 190 351
L 192 351
L 194 351
L 195 351
L 197 351
L 198 351
L 200 351
L 202 351
L 203 348
L 205 348
L 206 348
L 208 348
L 210 348
L 211 348
L 213 348
L 214 351
L 216 351
L 218 351
L 219 351
L 221 351
L 222 351
L 224 351
L 226 351
L 227 351
L 229 351
L 230 351
L 232 351
L 234 351
L 235 351
L 237 351
L 238 351
L 240 351
L 242 351
L 243 351
L 245 351
L 246 351
L 248 351
L 250 351
L 251 351
L 253 351
L 254 351
L 256 351
L 258 351
L 259 351
L 261 351
L 262 351
L 264 348
L 266 348
L 267 346
L 269 346
L 270 346
L 272 344
L 274 344
L 275 344
L 277 344
L 278 346
L 280 346
L 282 346
L 283 348
L 285 348
L 286 351
L 288 351
L 290 351
L 291 351
L 293 351
L 294 351
L 296 348
L 298 348
L 299 348
L 301 348
L 302 348
L 304 348
L 306 348
L 307 351
L 309 351
L 310 351
L 312 351
L 314 351
L 315 351
L 317 348
L 318 348
L 320 344
L 322 344
L 323 344
L 325 344
L 326 344
L 328 346
L 330 346
L 331 351
L 333 351
L 334 351
L 336 351
L 338 351
L 339 351
L 341 351
L 342 346
L 344 346
L 346 344
L 347 344
L 349 344
L 350 344
L 352 339
L 354 339
L 355 328
L 357 328
L 358 324
L 360 317
L 362 306
L 363 299
L 365 285
L 366 283
L 368 285
L 370 285
L 371 288
L 373 283
L 374 281
L 376 285
L 378 294
L 379 294
L 381 288
L 382 281
L 384 294
L 386 297
L 387 303
L 389 299
L 390 292
L 392 303
L 394 310
L 395 310
L 397 315
L 398 321
L 400 324
L 402 328
L 403 326
L 405 326
L 406 321
L 408 326
L 410 321
L 411 321
L 413 319
L 414 312
L 416 306
L 418 285
L 419 272
L 421 258
L 422 252
L 424 243
L 426 245
L 427 250
L 429 256
L 430 252
L 432 250
L 434 236
L 435 223
L 437 189
L 438 162
L 440 140
L 442 122
L 443 88
L 445 79
L 446 86
L 448 99
L 450 63
L 451 70
L 453 39
L 454 39
L 456 32
L 458 14
L 459 12
L 461 30
L 462 21
L 464 52
L 466 77
L 467 16
L 469 34
L 470 54
L 472 86
L 474 101
L 475 124
L 477 119
L 478 184
L 480 187
L 482 175
L 483 187
L 485 191
L 486 198
L 488 207
L 490 238
L 491 247
L 493 263
L 494 265
L 496 285
L 498 288
L 499 301
L 501 301
L 502 299
L 504 294
L 506 299
L 507 288
L 509 290
L 510 301
L 512 301
L 514 306
L 515 303
L 517 303
L 518 308
L 520 306
L 522 299
L 523 306
L 525 312
L 526 310
L 528 299
L 530 303
L 531 303
L 533 299
L 534 297
L 536 283
L 538 292
L 539 292
L 541 290
L 542 297
L 544 301
L 546 297
L 547 310
L 549 297
L 550 303
L 552 306
L 554 301
L 555 306
L 557 303
L 558 301
L 560 315
L 562 317
L 563 317
L 565 317
L 566 303
L 568 301
L 570 301
L 571 306
L 573 310
L 574 310
L 576 312
L 578 321
L 579 326
L 581 326
L 582 326
L 584 326
L 586 324
L 587 315
L 589 319
L 590 326
L 592 321
L 594 319
L 595 310
L 597 317
L 598 321
L 600 312
L 602 312
L 603 319
L 605 315
L 606 324
L 608 321
L 610 328
L 611 339
L 613 330
L 614 330
L 616 337
L 618 324
L 619 324
L 621 319
L 622 308
L 624 315
L 626 310
L 627 310
L 629 319
L 630 319
L 632 317
L 634 324
L 635 303
L 637 290
L 638 288
L 640 276
L 642 274
L 643 267
L 645 263
L 646 263
L 648 263
L 650 261
L 651 256
L 653 247
L 654 234
L 656 227
L 658 209
L 659 214
L 661 205
L 662 207
L 664 209
L 666 214
L 667 218
L 669 241
L 670 247
L 672 252
L 674 236
L 675 238
L 677 247
L 678 250
L 680 256
L 682 247
L 683 254
L 685 288
L 686 283
L 688 285
L 690 285
L 691 279
L 693 292
L 694 290
L 696 288
L 698 279
L 699 283
L 701 281
L 702 290
L 704 281
L 706 281
L 707 281
L 709 288
L 710 285
L 712 285
L 714 276
L 715 279
L 717 274
L 718 261
L 720 267
L 722 263
L 723 265
L 725 276
L 726 285
L 728 283
L 730 294
L 731 301
L 733 310
L 734 306
L 736 310
L 738 308
L 739 319
L 741 315
L 742 312
L 744 317
L 746 330
L 747 333
L 749 335
L 750 335
L 752 337
L 754 344
L 755 344
L 757 339
L 758 335
L 760 333
L 762 333
L 763 339
L 765 337
L 766 335
L 768 335
L 770 339
L 771 342
L 773 339
L 774 335
L 776 335
L 778 335
L 779 337
L 781 337
L 782 337
L 784 333
L 786 335
L 787 335
L 789 335
L 790 335
L 792 333
L 794 333
L 795 337
L 797 339
L 798 339
L 800 342
L 802 344
L 803 346
L 805 346
L 806 348
L 808 348
L 810 351
L 811 351
L 813 351
L 814 351
L 816 351
L 818 351
L 819 351
L 821 348
L 822 348
L 824 348
L 826 348
L 827 348
L 829 348
L 830 348
L 832 351
L 834 351
L 835 348
L 837 346
L 838 346
L 840 346
L 842 346
L 843 346
L 845 346
L 846 346
L 848 346
L 850 346
L 851 346
L 853 346
L 854 346
L 856 344
L 858 346
L 859 348
L 861 348
L 862 346
L 864 346
L 866 344
L 867 346
L 869 344
L 870 342
L 872 339
L 874 342
L 875 342
L 877 342
L 878 337
L 880 339
L 882 337
L 883 337
L 885 335
L 886 335
L 888 337
L 890 339
L 891 337
L 893 342
L 894 344
L 896 342
L 898 335
L 899 335
L 901 333
L 902 328
L 904 315
L 906 306
L 907 310
L 909 315
L 910 303
L 912 303
L 914 301
L 915 310
L 917 315
L 918 308
L 920 306
L 922 301
L 923 281
L 925 267
L 926 267
L 928 258
L 930 258
L 931 229
L 933 216
L 934 205
L 936 207
L 938 166
L 939 140
L 941 124
L 942 146
L 944 155
L 946 149
L 947 155
L 949 178
L 950 207
L 952 207
L 954 211
L 955 227
L 957 252
L 958 252
L 960 256
L 962 263
L 963 276
L 965 281
L 966 276
L 968 281
L 969 292" style="stroke-width:1;stroke:rgba(0,116,217,1.0);fill:none"/><path  d="M 38 351
L 40 351
L 42 351
L 43 351
L 45 351
L 46 351
L 48 351
L 50 351
L 51 351
L 53 351
L 54 351
L 56 351
L 58 351
L 59 351
L 61 351
L 62 351
L 64 351
L 66 351
L 67 351
L 69 351
L 70 350
L 72 350
L 74 351
L 75 351
L 77 351
L 78 351
L 80 349
L 82 350
L 83 349
L 85 348
L 86 348
L 88 348
L 90 351
L 91 350
L 93 351
L 94 350
L 96 349
L 98 349
L 99 351
L 101 349
L 102 350
L 104 351
L 106 351
L 107 351
L 109 350
L 110 351
L 112 351
L 114 350
L 115 351
L 117 351
L 118 351
L 120 350
L 122 350
L 123 351
L 125 351
L 126 351
L 128 350
L 130 350
L 131 351
L 133 351
L 134 351
L 136 351
L 138 350
L 139 349
L 141 351
L 142 351
L 144 351
L 146 351
L 147 351
L 149 351
L 150 351
L 152 351
L 154 351
L 155 351
L 157 351
L 158 351
L 160 351
L 162 351
L 163 351
L 165 351
L 166 351
L 168 351
L 170 351
L 171 351
L 173 350
L 174 351
L 176 351
L 178 351
L 179 351
L 181 351
L 182 351
L 184 351
L 186 351
L 187 351
L 189 351
L 190 351
L 192 351
L 194 351
L 195 351
L 197 351
L 198 351
L 200 351
L 202 351
L 203 350
L 205 351
L 206 351
L 208 351
L 210 351
L 211 351
L 213 351
L 214 351
L 216 351
L 218 351
L 219 351
L 221 351
L 222 351
L 224 351
L 226 351
L 227 351
L 229 351
L 230 351
L 232 351
L 234 351
L 235 351
L 237 351
L 238 351
L 240 351
L 242 351
L 243 351
L 245 351
L 246 351
L 248 351
L 250 351
L 251 351
L 253 351
L 254 351
L 256 351
L 258 351
L 259 351
L 261 351
L 262 351
L 264 350
L 266 351
L 267 350
L 269 351
L 270 351
L 272 350
L 274 351
L 275 350
L 277 351
L 278 351
L 280 351
L 282 351
L 283 351
L 285 351
L 286 351
L 288 351
L 290 351
L 291 351
L 293 351
L 294 351
L 296 350
L 298 351
L 299 351
L 301 351
L 302 351
L 304 351
L 306 351
L 307 351
L 309 351
L 310 351
L 312 351
L 314 351
L 315 351
L 317 350
L 318 351
L 320 349
L 322 351
L 323 351
L 325 351
L 326 351
L 328 351
L 330 351
L 331 351
L 333 351
L 334 351
L 336 351
L 338 351
L 339 351
L 341 351
L 342 349
L 344 351
L 346 350
L 347 351
L 349 351
L 350 351
L 352 349
L 354 349
L 355 348
L 357 350
L 358 349
L 360 349
L 362 348
L 363 348
L 365 346
L 366 347
L 368 351
L 370 349
L 371 349
L 373 347
L 374 347
L 376 347
L 378 349
L 379 351
L 381 348
L 382 348
L 384 350
L 386 348
L 387 349
L 389 348
L 390 349
L 392 351
L 394 349
L 395 350
L 397 349
L 398 351
L 400 349
L 402 350
L 403 350
L 405 349
L 406 349
L 408 350
L 410 349
L 411 349
L 413 349
L 414 348
L 416 348
L 418 344
L 419 347
L 421 346
L 422 347
L 424 347
L 426 349
L 427 349
L 429 345
L 430 345
L 432 345
L 434 344
L 435 344
L 437 340
L 438 342
L 440 340
L 442 341
L 443 337
L 445 342
L 446 345
L 448 344
L 450 333
L 451 342
L 453 333
L 454 337
L 456 340
L 458 341
L 459 343
L 461 338
L 462 339
L 464 341
L 466 343
L 467 325
L 469 345
L 470 348
L 472 345
L 474 343
L 475 347
L 477 342
L 478 341
L 480 346
L 482 345
L 483 348
L 485 344
L 486 348
L 488 344
L 490 349
L 491 348
L 493 349
L 494 349
L 496 349
L 498 349
L 499 348
L 501 349
L 502 348
L 504 348
L 506 350
L 507 347
L 509 349
L 510 351
L 512 349
L 514 349
L 515 348
L 517 350
L 518 348
L 520 349
L 522 349
L 523 351
L 525 351
L 526 347
L 528 347
L 530 349
L 531 349
L 533 348
L 534 350
L 536 347
L 538 349
L 539 347
L 541 348
L 542 351
L 544 349
L 546 349
L 547 351
L 549 346
L 550 349
L 552 349
L 554 349
L 555 350
L 557 348
L 558 350
L 560 349
L 562 349
L 563 349
L 565 349
L 566 347
L 568 348
L 570 350
L 571 351
L 573 351
L 574 349
L 576 350
L 578 349
L 579 349
L 581 350
L 582 351
L 584 351
L 586 348
L 587 348
L 589 350
L 590 351
L 592 349
L 594 350
L 595 348
L 597 350
L 598 349
L 600 348
L 602 351
L 603 351
L 605 349
L 606 351
L 608 349
L 610 351
L 611 351
L 613 348
L 614 351
L 616 351
L 618 347
L 619 349
L 621 349
L 622 348
L 624 350
L 626 349
L 627 351
L 629 349
L 630 349
L 632 349
L 634 349
L 635 345
L 637 346
L 638 350
L 640 347
L 642 349
L 643 347
L 645 348
L 646 345
L 648 346
L 650 349
L 651 345
L 653 347
L 654 344
L 656 347
L 658 340
L 659 347
L 661 347
L 662 346
L 664 347
L 666 345
L 667 348
L 669 346
L 670 349
L 672 348
L 674 342
L 675 348
L 677 347
L 678 348
L 680 348
L 682 347
L 683 350
L 685 351
L 686 347
L 688 348
L 690 348
L 691 346
L 693 350
L 694 349
L 696 350
L 698 344
L 699 349
L 701 348
L 702 348
L 704 348
L 706 349
L 707 350
L 709 346
L 710 348
L 712 348
L 714 346
L 715 348
L 717 348
L 718 347
L 720 348
L 722 347
L 723 348
L 725 349
L 726 351
L 728 348
L 730 349
L 731 349
L 733 349
L 734 347
L 736 350
L 738 350
L 739 351
L 741 348
L 742 349
L 744 351
L 746 351
L 747 351
L 749 351
L 750 351
L 752 349
L 754 351
L 755 351
L 757 349
L 758 349
L 760 350
L 762 351
L 763 351
L 765 350
L 766 350
L 768 349
L 770 351
L 771 351
L 773 350
L 774 349
L 776 350
L 778 350
L 779 350
L 781 351
L 782 351
L 784 349
L 786 350
L 787 350
L 789 350
L 790 350
L 792 350
L 794 351
L 795 350
L 797 351
L 798 350
L 800 351
L 802 351
L 803 351
L 805 351
L 806 351
L 808 351
L 810 351
L 811 351
L 813 351
L 814 351
L 816 351
L 818 351
L 819 351
L 821 350
L 822 351
L 824 351
L 826 351
L 827 351
L 829 351
L 830 351
L 832 351
L 834 351
L 835 350
L 837 350
L 838 351
L 840 351
L 842 351
L 843 351
L 845 351
L 846 350
L 848 350
L 850 351
L 851 351
L 853 351
L 854 351
L 856 350
L 858 351
L 859 351
L 861 351
L 862 350
L 864 351
L 866 350
L 867 351
L 869 350
L 870 350
L 872 350
L 874 351
L 875 351
L 877 350
L 878 349
L 880 351
L 882 349
L 883 350
L 885 350
L 886 351
L 888 351
L 890 350
L 891 350
L 893 351
L 894 351
L 896 349
L 898 349
L 899 351
L 901 349
L 902 349
L 904 347
L 906 348
L 907 351
L 909 350
L 910 348
L 912 349
L 914 348
L 915 349
L 917 349
L 918 349
L 920 349
L 922 347
L 923 344
L 925 345
L 926 349
L 928 347
L 930 349
L 931 342
L 933 343
L 934 342
L 936 345
L 938 339
L 939 340
L 941 345
L 942 348
L 944 345
L 946 340
L 947 347
L 949 345
L 950 348
L 952 345
L 954 349
L 955 349
L 957 346
L 958 347
L 960 346
L 962 349
L 963 348
L 965 350
L 966 348
L 968 347
L 969 350" style="stroke-width:1;stroke:rgba(0,217,101,1.0);fill:none"/><path  d="M 38 351
L 40 351
L 42 351
L 43 351
L 45 351
L 46 351
L 48 351
L 50 351
L 51 351
L 53 351
L 54 351
L 56 351
L 58 351
L 59 351
L 61 351
L 62 351
L 64 351
L 66 351
L 67 351
L 69 351
L 70 351
L 72 351
L 74 351
L 75 351
L 77 351
L 78 351
L 80 351
L 82 351
L 83 351
L 85 351
L 86 351
L 88 351
L 90 351
L 91 351
L 93 351
L 94 351
L 96 351
L 98 351
L 99 350
L 101 350
L 102 351
L 104 351
L 106 351
L 107 351
L 109 351
L 110 351
L 112 351
L 114 351
L 115 351
L 117 351
L 118 351
L 120 351
L 122 351
L 123 350
L 125 351
L 126 351
L 128 351
L 130 351
L 131 351
L 133 351
L 134 351
L 136 351
L 138 351
L 139 351
L 141 351
L 142 351
L 144 351
L 146 351
L 147 351
L 149 351
L 150 351
L 152 351
L 154 351
L 155 351
L 157 351
L 158 351
L 160 351
L 162 351
L 163 351
L 165 351
L 166 351
L 168 351
L 170 351
L 171 351
L 173 351
L 174 351
L 176 351
L 178 351
L 179 351
L 181 351
L 182 351
L 184 351
L 186 351
L 187 351
L 189 351
L 190 351
L 192 351
L 194 351
L 195 351
L 197 351
L 198 351
L 200 351
L 202 351
L 203 351
L 205 351
L 206 351
L 208 351
L 210 351
L 211 351
L 213 351
L 214 351
L 216 351
L 218 351
L 219 351
L 221 351
L 222 351
L 224 351
L 226 351
L 227 351
L 229 351
L 230 351
L 232 351
L 234 351
L 235 351
L 237 351
L 238 351
L 240 351
L 242 351
L 243 351
L 245 351
L 246 351
L 248 351
L 250 351
L 251 351
L 253 351
L 254 351
L 256 351
L 258 351
L 259 351
L 261 351
L 262 351
L 264 351
L 266 351
L 267 351
L 269 351
L 270 351
L 272 351
L 274 351
L 275 351
L 277 351
L 278 351
L 280 351
L 282 350
L 283 351
L 285 351
L 286 351
L 288 351
L 290 351
L 291 351
L 293 351
L 294 351
L 296 351
L 298 351
L 299 351
L 301 351
L 302 351
L 304 351
L 306 351
L 307 351
L 309 351
L 310 351
L 312 351
L 314 351
L 315 351
L 317 351
L 318 351
L 320 351
L 322 351
L 323 351
L 325 351
L 326 351
L 328 351
L 330 351
L 331 351
L 333 351
L 334 351
L 336 351
L 338 351
L 339 351
L 341 351
L 342 351
L 344 351
L 346 351
L 347 351
L 349 351
L 350 351
L 352 351
L 354 351
L 355 351
L 357 351
L 358 351
L 360 351
L 362 351
L 363 351
L 365 351
L 366 351
L 368 351
L 370 351
L 371 351
L 373 351
L 374 351
L 376 351
L 378 351
L 379 351
L 381 351
L 382 351
L 384 351
L 386 351
L 387 351
L 389 351
L 390 351
L 392 351
L 394 351
L 395 351
L 397 351
L 398 351
L 400 351
L 402 351
L 403 351
L 405 351
L 406 351
L 408 351
L 410 351
L 411 350
L 413 351
L 414 350
L 416 351
L 418 351
L 419 351
L 421 351
L 422 351
L 424 351
L 426 351
L 427 351
L 429 351
L 430 351
L 432 351
L 434 351
L 435 351
L 437 351
L 438 351
L 440 351
L 442 351
L 443 351
L 445 351
L 446 351
L 448 351
L 450 351
L 451 351
L 453 351
L 454 351
L 456 351
L 458 351
L 459 351
L 461 350
L 462 349
L 464 351
L 466 350
L 467 351
L 469 351
L 470 350
L 472 351
L 474 351
L 475 349
L 477 351
L 478 350
L 480 351
L 482 351
L 483 350
L 485 349
L 486 350
L 488 351
L 490 351
L 491 351
L 493 350
L 494 351
L 496 351
L 498 351
L 499 350
L 501 351
L 502 351
L 504 350
L 506 351
L 507 351
L 509 351
L 510 350
L 512 351
L 514 351
L 515 351
L 517 351
L 518 351
L 520 351
L 522 351
L 523 351
L 525 351
L 526 351
L 528 351
L 530 351
L 531 351
L 533 350
L 534 351
L 536 351
L 538 351
L 539 351
L 541 351
L 542 351
L 544 351
L 546 351
L 547 351
L 549 351
L 550 351
L 552 351
L 554 351
L 555 351
L 557 351
L 558 351
L 560 351
L 562 351
L 563 351
L 565 351
L 566 351
L 568 351
L 570 351
L 571 351
L 573 351
L 574 351
L 576 351
L 578 351
L 579 351
L 581 351
L 582 351
L 584 351
L 586 351
L 587 351
L 589 351
L 590 351
L 592 351
L 594 351
L 595 351
L 597 351
L 598 351
L 600 351
L 602 351
L 603 351
L 605 351
L 606 351
L 608 351
L 610 351
L 611 351
L 613 351
L 614 351
L 616 351
L 618 351
L 619 351
L 621 351
L 622 351
L 624 351
L 626 349
L 627 351
L 629 351
L 630 351
L 632 351
L 634 351
L 635 351
L 637 351
L 638 351
L 640 351
L 642 351
L 643 350
L 645 351
L 646 351
L 648 351
L 650 351
L 651 351
L 653 351
L 654 351
L 656 351
L 658 351
L 659 351
L 661 351
L 662 351
L 664 351
L 666 351
L 667 351
L 669 351
L 670 351
L 672 351
L 674 351
L 675 351
L 677 351
L 678 351
L 680 351
L 682 351
L 683 350
L 685 351
L 686 351
L 688 351
L 690 350
L 691 351
L 693 351
L 694 351
L 696 351
L 698 351
L 699 351
L 701 351
L 702 351
L 704 351
L 706 351
L 707 351
L 709 351
L 710 351
L 712 351
L 714 351
L 715 351
L 717 351
L 718 351
L 720 351
L 722 351
L 723 351
L 725 351
L 726 351
L 728 351
L 730 351
L 731 351
L 733 350
L 734 351
L 736 350
L 738 351
L 739 351
L 741 351
L 742 351
L 744 351
L 746 351
L 747 351
L 749 351
L 750 351
L 752 351
L 754 351
L 755 351
L 757 351
L 758 351
L 760 351
L 762 351
L 763 351
L 765 351
L 766 351
L 768 351
L 770 351
L 771 351
L 773 351
L 774 351
L 776 351
L 778 351
L 779 351
L 781 351
L 782 351
L 784 351
L 786 351
L 787 351
L 789 351
L 790 351
L 792 351
L 794 351
L 795 351
L 797 351
L 798 351
L 800 351
L 802 351
L 803 351
L 805 351
L 806 351
L 808 351
L 810 351
L 811 351
L 813 351
L 814 351
L 816 351
L 818 351
L 819 351
L 821 351
L 822 351
L 824 351
L 826 351
L 827 351
L 829 351
L 830 351
L 832 351
L 834 351
L 835 351
L 837 351
L 838 351
L 840 351
L 842 351
L 843 351
L 845 351
L 846 351
L 848 351
L 850 351
L 851 351
L 853 351
L 854 351
L 856 351
L 858 351
L 859 351
L 861 351
L 862 351
L 864 351
L 866 351
L 867 351
L 869 351
L 870 351
L 872 351
L 874 351
L 875 351
L 877 351
L 878 351
L 880 351
L 882 351
L 883 351
L 885 351
L 886 351
L 888 351
L 890 351
L 891 351
L 893 351
L 894 351
L 896 351
L 898 351
L 899 351
L 901 351
L 902 351
L 904 351
L 906 351
L 907 351
L 909 351
L 910 351
L 912 351
L 914 351
L 915 351
L 917 351
L 918 351
L 920 351
L 922 351
L 923 351
L 925 351
L 926 351
L 928 351
L 930 351
L 931 351
L 933 351
L 934 351
L 936 351
L 938 351
L 939 351
L 941 351
L 942 351
L 944 351
L 946 351
L 947 351
L 949 351
L 950 351
L 952 351
L 954 351
L 955 351
L 957 351
L 958 351
L 960 351
L 962 351
L 963 351
L 965 351
L 966 351
L 968 351
L 969 351" style="stroke-width:1;stroke:rgba(217,0,116,1.0);fill:none"/><text x="311" y="33" style="stroke-width:0;stroke:none;fill:rgba(51,51,51,1.0);font-size:23.0px;font-family:'Roboto Medium',sans-serif">Krems an der Donau(Stadt) 30.09.2021</text><path  d="M 38 11
L 251 11
L 251 91
L 38 91
L 38 11" style="stroke-width:1;stroke:rgba(51,51,51,1.0);fill:rgba(255,255,255,1.0)"/><text x="43" y="26" style="stroke-width:0;stroke:none;fill:rgba(51,51,51,1.0);font-size:10.2px;font-family:'Roboto Medium',sans-serif">Sieben Tage Durschnitt Inzidenz Fälle</text><path  d="M 221 21
L 241 21" style="stroke-width:1;stroke:rgba(0,116,217,1.0);fill:none"/><text x="43" y="56" style="stroke-width:0;stroke:none;fill:rgba(51,51,51,1.0);font-size:10.2px;font-family:'Roboto Medium',sans-serif">Anzahl Faelle</text><path  d="M 110 51
L 241 51" style="stroke-width:1;stroke:rgba(0,217,101,1.0);fill:none"/><text x="43" y="86" style="stroke-width:0;stroke:none;fill:rgba(51,51,51,1.0);font-size:10.2px;font-family:'Roboto Medium',sans-serif">Anzahl Tot</text><path  d="M 98 81
L 241 81" style="stroke-width:1;stroke:rgba(217,0,116,1.0);fill:none"/></svg>