<svg xmlns="http://www.w3.org/2000/svg" xmlns:xlink="http://www.w3.org/1999/xlink" width="1024" height="400">\n<path  d="M 0 0
L 1024 0
L 1024 400
L 0 400
L 0 0" style="stroke-width:0;stroke:rgba(255,255,255,1.0);fill:rgba(255,255,255,1.0)"/><path  d="M 38 11
L 969 11
L 969 351
L 38 351
L 38 11" style="stroke-width:0;stroke:rgba(255,255,255,1.0);fill:rgba(255,255,255,1.0)"/><path  d="M 38 351
L 969 351" style="stroke-width:1;stroke:rgba(51,51,51,1.0);fill:none"/><path  d="M 38 351
L 38 356" style="stroke-width:1;stroke:rgba(51,51,51,1.0);fill:none"/><text x="5" y="373" style="stroke-width:0;stroke:none;fill:rgba(51,51,51,1.0);font-size:12.8px;font-family:'Roboto Medium',sans-serif">2020-02-26</text><path  d="M 155 351
L 155 356" style="stroke-width:1;stroke:rgba(51,51,51,1.0);fill:none"/><text x="122" y="373" style="stroke-width:0;stroke:none;fill:rgba(51,51,51,1.0);font-size:12.8px;font-family:'Roboto Medium',sans-serif">2020-04-20</text><path  d="M 271 351
L 271 356" style="stroke-width:1;stroke:rgba(51,51,51,1.0);fill:none"/><text x="238" y="373" style="stroke-width:0;stroke:none;fill:rgba(51,51,51,1.0);font-size:12.8px;font-family:'Roboto Medium',sans-serif">2020-06-14</text><path  d="M 388 351
L 388 356" style="stroke-width:1;stroke:rgba(51,51,51,1.0);fill:none"/><text x="355" y="373" style="stroke-width:0;stroke:none;fill:rgba(51,51,51,1.0);font-size:12.8px;font-family:'Roboto Medium',sans-serif">2020-08-07</text><path  d="M 504 351
L 504 356" style="stroke-width:1;stroke:rgba(51,51,51,1.0);fill:none"/><text x="471" y="373" style="stroke-width:0;stroke:none;fill:rgba(51,51,51,1.0);font-size:12.8px;font-family:'Roboto Medium',sans-serif">2020-10-01</text><path  d="M 620 351
L 620 356" style="stroke-width:1;stroke:rgba(51,51,51,1.0);fill:none"/><text x="587" y="373" style="stroke-width:0;stroke:none;fill:rgba(51,51,51,1.0);font-size:12.8px;font-family:'Roboto Medium',sans-serif">2020-11-24</text><path  d="M 737 351
L 737 356" style="stroke-width:1;stroke:rgba(51,51,51,1.0);fill:none"/><text x="704" y="373" style="stroke-width:0;stroke:none;fill:rgba(51,51,51,1.0);font-size:12.8px;font-family:'Roboto Medium',sans-serif">2021-01-18</text><path  d="M 853 351
L 853 356" style="stroke-width:1;stroke:rgba(51,51,51,1.0);fill:none"/><text x="820" y="373" style="stroke-width:0;stroke:none;fill:rgba(51,51,51,1.0);font-size:12.8px;font-family:'Roboto Medium',sans-serif">2021-03-13</text><path  d="M 969 351
L 969 356" style="stroke-width:1;stroke:rgba(51,51,51,1.0);fill:none"/><text x="936" y="373" style="stroke-width:0;stroke:none;fill:rgba(51,51,51,1.0);font-size:12.8px;font-family:'Roboto Medium',sans-serif">2021-05-07</text><text x="485" y="395" style="stroke-width:0;stroke:none;fill:rgba(51,51,51,1.0);font-size:12.8px;font-family:'Roboto Medium',sans-serif">Datum</text><path  d="M 970 351
L 970 11" style="stroke-width:1;stroke:rgba(51,51,51,1.0);fill:none"/><path  d="M 970 351
L 975 351" style="stroke-width:1;stroke:rgba(51,51,51,1.0);fill:none"/><text x="980" y="357" style="stroke-width:0;stroke:none;fill:rgba(51,51,51,1.0);font-size:12.8px;font-family:'Roboto Medium',sans-serif">0.00</text><path  d="M 970 308
L 975 308" style="stroke-width:1;stroke:rgba(51,51,51,1.0);fill:none"/><text x="980" y="314" style="stroke-width:0;stroke:none;fill:rgba(51,51,51,1.0);font-size:12.8px;font-family:'Roboto Medium',sans-serif">118.00</text><path  d="M 970 266
L 975 266" style="stroke-width:1;stroke:rgba(51,51,51,1.0);fill:none"/><text x="980" y="272" style="stroke-width:0;stroke:none;fill:rgba(51,51,51,1.0);font-size:12.8px;font-family:'Roboto Medium',sans-serif">235.00</text><path  d="M 970 223
L 975 223" style="stroke-width:1;stroke:rgba(51,51,51,1.0);fill:none"/><text x="980" y="229" style="stroke-width:0;stroke:none;fill:rgba(51,51,51,1.0);font-size:12.8px;font-family:'Roboto Medium',sans-serif">353.00</text><path  d="M 970 181
L 975 181" style="stroke-width:1;stroke:rgba(51,51,51,1.0);fill:none"/><text x="980" y="187" style="stroke-width:0;stroke:none;fill:rgba(51,51,51,1.0);font-size:12.8px;font-family:'Roboto Medium',sans-serif">470.00</text><path  d="M 970 138
L 975 138" style="stroke-width:1;stroke:rgba(51,51,51,1.0);fill:none"/><text x="980" y="144" style="stroke-width:0;stroke:none;fill:rgba(51,51,51,1.0);font-size:12.8px;font-family:'Roboto Medium',sans-serif">588.00</text><path  d="M 970 96
L 975 96" style="stroke-width:1;stroke:rgba(51,51,51,1.0);fill:none"/><text x="980" y="102" style="stroke-width:0;stroke:none;fill:rgba(51,51,51,1.0);font-size:12.8px;font-family:'Roboto Medium',sans-serif">705.00</text><path  d="M 970 53
L 975 53" style="stroke-width:1;stroke:rgba(51,51,51,1.0);fill:none"/><text x="980" y="59" style="stroke-width:0;stroke:none;fill:rgba(51,51,51,1.0);font-size:12.8px;font-family:'Roboto Medium',sans-serif">823.00</text><path  d="M 970 11
L 975 11" style="stroke-width:1;stroke:rgba(51,51,51,1.0);fill:none"/><text x="980" y="17" style="stroke-width:0;stroke:none;fill:rgba(51,51,51,1.0);font-size:12.8px;font-family:'Roboto Medium',sans-serif">940.00</text><path  d="M 38 351
L 41 351
L 43 351
L 45 351
L 47 351
L 49 351
L 51 351
L 53 351
L 56 351
L 58 351
L 60 351
L 62 351
L 64 351
L 66 351
L 68 351
L 71 351
L 73 351
L 75 350
L 77 349
L 79 348
L 81 344
L 83 340
L 85 337
L 88 333
L 90 322
L 92 321
L 94 315
L 96 314
L 98 307
L 100 303
L 103 295
L 105 295
L 107 290
L 109 287
L 111 284
L 113 288
L 115 281
L 118 287
L 120 294
L 122 299
L 124 307
L 126 312
L 128 316
L 130 328
L 132 332
L 135 336
L 137 335
L 139 337
L 141 339
L 143 340
L 145 340
L 147 341
L 150 342
L 152 344
L 154 345
L 156 345
L 158 347
L 160 348
L 162 348
L 164 348
L 167 348
L 169 348
L 171 349
L 173 349
L 175 349
L 177 350
L 179 350
L 182 350
L 184 350
L 186 349
L 188 349
L 190 349
L 192 349
L 194 349
L 197 349
L 199 349
L 201 349
L 203 350
L 205 350
L 207 350
L 209 350
L 211 350
L 214 350
L 216 350
L 218 350
L 220 350
L 222 351
L 224 351
L 226 351
L 229 351
L 231 351
L 233 351
L 235 351
L 237 351
L 239 351
L 241 351
L 243 351
L 246 351
L 248 351
L 250 351
L 252 351
L 254 351
L 256 351
L 258 351
L 261 351
L 263 351
L 265 351
L 267 351
L 269 351
L 271 351
L 273 351
L 276 351
L 278 351
L 280 351
L 282 351
L 284 351
L 286 351
L 288 351
L 290 351
L 293 351
L 295 351
L 297 351
L 299 350
L 301 350
L 303 350
L 305 350
L 308 350
L 310 350
L 312 350
L 314 350
L 316 350
L 318 350
L 320 351
L 322 351
L 325 350
L 327 350
L 329 350
L 331 350
L 333 350
L 335 350
L 337 350
L 340 350
L 342 350
L 344 351
L 346 351
L 348 351
L 350 350
L 352 350
L 355 350
L 357 350
L 359 349
L 361 347
L 363 347
L 365 346
L 367 345
L 369 345
L 372 345
L 374 345
L 376 347
L 378 347
L 380 349
L 382 349
L 384 350
L 387 350
L 389 350
L 391 350
L 393 350
L 395 350
L 397 350
L 399 349
L 402 349
L 404 347
L 406 347
L 408 347
L 410 346
L 412 344
L 414 343
L 416 339
L 419 336
L 421 336
L 423 336
L 425 333
L 427 328
L 429 328
L 431 326
L 434 327
L 436 326
L 438 326
L 440 325
L 442 327
L 444 326
L 446 329
L 448 330
L 451 332
L 453 329
L 455 328
L 457 328
L 459 327
L 461 324
L 463 321
L 466 320
L 468 320
L 470 321
L 472 322
L 474 325
L 476 329
L 478 331
L 481 331
L 483 334
L 485 339
L 487 338
L 489 337
L 491 338
L 493 338
L 495 338
L 498 337
L 500 334
L 502 336
L 504 335
L 506 332
L 508 330
L 510 330
L 513 330
L 515 330
L 517 328
L 519 328
L 521 326
L 523 327
L 525 326
L 527 325
L 530 322
L 532 321
L 534 323
L 536 322
L 538 320
L 540 322
L 542 320
L 545 323
L 547 323
L 549 296
L 551 284
L 553 278
L 555 256
L 557 245
L 560 219
L 562 193
L 564 189
L 566 172
L 568 170
L 570 156
L 572 126
L 574 119
L 577 110
L 579 106
L 581 93
L 583 94
L 585 92
L 587 91
L 589 52
L 592 34
L 594 30
L 596 26
L 598 11
L 600 21
L 602 23
L 604 41
L 606 62
L 609 53
L 611 63
L 613 62
L 615 67
L 617 79
L 619 68
L 621 56
L 624 68
L 626 84
L 628 102
L 630 121
L 632 135
L 634 188
L 636 223
L 639 245
L 641 259
L 643 248
L 645 244
L 647 251
L 649 250
L 651 257
L 653 264
L 656 274
L 658 285
L 660 286
L 662 289
L 664 295
L 666 297
L 668 302
L 671 294
L 673 301
L 675 300
L 677 296
L 679 294
L 681 294
L 683 290
L 686 291
L 688 295
L 690 295
L 692 295
L 694 293
L 696 296
L 698 295
L 700 295
L 703 286
L 705 284
L 707 286
L 709 290
L 711 282
L 713 284
L 715 289
L 718 296
L 720 300
L 722 305
L 724 308
L 726 318
L 728 321
L 730 323
L 732 322
L 735 326
L 737 324
L 739 321
L 741 320
L 743 320
L 745 320
L 747 318
L 750 316
L 752 318
L 754 317
L 756 315
L 758 314
L 760 312
L 762 316
L 765 313
L 767 313
L 769 318
L 771 316
L 773 318
L 775 319
L 777 320
L 779 324
L 782 325
L 784 318
L 786 317
L 788 315
L 790 314
L 792 315
L 794 312
L 797 310
L 799 316
L 801 318
L 803 322
L 805 321
L 807 319
L 809 323
L 811 321
L 814 322
L 816 322
L 818 319
L 820 322
L 822 322
L 824 313
L 826 310
L 829 304
L 831 306
L 833 304
L 835 302
L 837 299
L 839 304
L 841 309
L 844 310
L 846 309
L 848 309
L 850 311
L 852 309
L 854 302
L 856 298
L 858 298
L 861 295
L 863 292
L 865 284
L 867 283
L 869 282
L 871 283
L 873 272
L 876 265
L 878 263
L 880 250
L 882 255
L 884 257
L 886 252
L 888 256
L 890 263
L 893 258
L 895 272
L 897 269
L 899 271
L 901 280
L 903 290
L 905 283
L 908 286
L 910 282
L 912 286
L 914 277
L 916 267
L 918 261
L 920 261
L 923 264
L 925 258
L 927 256
L 929 261
L 931 260
L 933 256
L 935 255
L 937 256
L 940 265
L 942 266
L 944 273
L 946 284
L 948 288
L 950 296
L 952 293
L 955 298
L 957 286
L 959 287
L 961 285
L 963 289
L 965 297
L 967 307
L 969 310" style="stroke-width:1;stroke:rgba(0,116,217,1.0);fill:none"/><path  d="M 38 351
L 41 351
L 43 351
L 45 351
L 47 351
L 49 351
L 51 351
L 53 351
L 56 351
L 58 351
L 60 351
L 62 351
L 64 351
L 66 351
L 68 351
L 71 351
L 73 351
L 75 350
L 77 349
L 79 349
L 81 346
L 83 346
L 85 347
L 88 347
L 90 338
L 92 348
L 94 343
L 96 345
L 98 338
L 100 343
L 103 337
L 105 338
L 107 342
L 109 340
L 111 342
L 113 341
L 115 336
L 118 344
L 120 345
L 122 348
L 124 348
L 126 348
L 128 346
L 130 349
L 132 349
L 135 349
L 137 348
L 139 350
L 141 350
L 143 348
L 145 349
L 147 350
L 150 349
L 152 351
L 154 350
L 156 350
L 158 350
L 160 351
L 162 349
L 164 350
L 167 351
L 169 351
L 171 351
L 173 350
L 175 351
L 177 351
L 179 351
L 182 351
L 184 350
L 186 350
L 188 350
L 190 350
L 192 351
L 194 351
L 197 350
L 199 351
L 201 350
L 203 351
L 205 351
L 207 350
L 209 351
L 211 351
L 214 351
L 216 351
L 218 351
L 220 351
L 222 351
L 224 351
L 226 351
L 229 351
L 231 351
L 233 351
L 235 351
L 237 351
L 239 351
L 241 351
L 243 351
L 246 351
L 248 351
L 250 351
L 252 351
L 254 351
L 256 351
L 258 351
L 261 351
L 263 351
L 265 351
L 267 351
L 269 351
L 271 351
L 273 351
L 276 351
L 278 351
L 280 351
L 282 351
L 284 351
L 286 351
L 288 351
L 290 351
L 293 351
L 295 351
L 297 351
L 299 350
L 301 351
L 303 350
L 305 350
L 308 351
L 310 351
L 312 351
L 314 351
L 316 351
L 318 351
L 320 351
L 322 351
L 325 350
L 327 351
L 329 350
L 331 351
L 333 351
L 335 351
L 337 351
L 340 351
L 342 351
L 344 351
L 346 351
L 348 351
L 350 350
L 352 351
L 355 351
L 357 350
L 359 350
L 361 348
L 363 351
L 365 348
L 367 350
L 369 350
L 372 351
L 374 350
L 376 351
L 378 351
L 380 350
L 382 351
L 384 351
L 387 351
L 389 351
L 391 351
L 393 350
L 395 351
L 397 350
L 399 349
L 402 350
L 404 349
L 406 350
L 408 350
L 410 349
L 412 349
L 414 348
L 416 347
L 419 345
L 421 351
L 423 350
L 425 346
L 427 343
L 429 347
L 431 344
L 434 347
L 436 349
L 438 350
L 440 345
L 442 345
L 444 347
L 446 348
L 448 348
L 451 351
L 453 347
L 455 343
L 457 345
L 459 345
L 461 345
L 463 344
L 466 350
L 468 347
L 470 344
L 472 347
L 474 349
L 476 349
L 478 347
L 481 350
L 483 350
L 485 350
L 487 345
L 489 348
L 491 349
L 493 347
L 495 350
L 498 349
L 500 347
L 502 348
L 504 346
L 506 347
L 508 344
L 510 350
L 513 349
L 515 347
L 517 346
L 519 346
L 521 345
L 523 345
L 525 348
L 527 349
L 530 343
L 532 345
L 534 348
L 536 344
L 538 343
L 540 351
L 542 347
L 545 347
L 547 344
L 549 319
L 551 331
L 553 335
L 555 326
L 557 335
L 560 318
L 562 315
L 564 314
L 566 313
L 568 333
L 570 310
L 572 302
L 574 311
L 577 306
L 579 310
L 581 298
L 583 334
L 585 309
L 587 301
L 589 268
L 592 286
L 594 305
L 596 294
L 598 318
L 600 319
L 602 303
L 604 288
L 606 309
L 609 295
L 611 305
L 613 317
L 615 325
L 617 316
L 619 276
L 621 295
L 624 309
L 626 321
L 628 337
L 630 346
L 632 332
L 634 336
L 636 333
L 639 332
L 641 337
L 643 324
L 645 342
L 647 339
L 649 335
L 651 340
L 653 341
L 656 348
L 658 336
L 660 343
L 662 343
L 664 341
L 666 343
L 668 346
L 671 340
L 673 344
L 675 341
L 677 338
L 679 340
L 681 343
L 683 342
L 686 340
L 688 348
L 690 342
L 692 338
L 694 338
L 696 346
L 698 341
L 700 340
L 703 338
L 705 339
L 707 341
L 709 342
L 711 337
L 713 343
L 715 346
L 718 346
L 720 344
L 722 346
L 724 346
L 726 348
L 728 346
L 730 348
L 732 345
L 735 348
L 737 345
L 739 342
L 741 347
L 743 346
L 745 348
L 747 343
L 750 346
L 752 347
L 754 341
L 756 344
L 758 345
L 760 346
L 762 347
L 765 343
L 767 347
L 769 347
L 771 342
L 773 347
L 775 347
L 777 348
L 779 347
L 782 348
L 784 339
L 786 341
L 788 344
L 790 346
L 792 349
L 794 343
L 797 346
L 799 345
L 801 344
L 803 348
L 805 345
L 807 348
L 809 347
L 811 344
L 814 346
L 816 344
L 818 345
L 820 348
L 822 347
L 824 338
L 826 340
L 829 339
L 831 346
L 833 343
L 835 346
L 837 343
L 839 344
L 841 346
L 844 340
L 846 345
L 848 343
L 850 349
L 852 341
L 854 336
L 856 341
L 858 341
L 861 341
L 863 339
L 865 341
L 867 339
L 869 335
L 871 342
L 873 329
L 876 333
L 878 337
L 880 327
L 882 345
L 884 337
L 886 336
L 888 334
L 890 341
L 893 332
L 895 341
L 897 343
L 899 340
L 901 345
L 903 346
L 905 332
L 908 335
L 910 337
L 912 347
L 914 330
L 916 334
L 918 339
L 920 332
L 923 339
L 925 331
L 927 344
L 929 336
L 931 332
L 933 336
L 935 331
L 937 339
L 940 341
L 942 345
L 944 344
L 946 343
L 948 340
L 950 340
L 952 336
L 955 347
L 957 332
L 959 346
L 961 340
L 963 345
L 965 349
L 967 348
L 969 349" style="stroke-width:1;stroke:rgba(0,217,101,1.0);fill:none"/><path  d="M 38 351
L 41 351
L 43 351
L 45 351
L 47 351
L 49 351
L 51 351
L 53 351
L 56 351
L 58 351
L 60 351
L 62 351
L 64 351
L 66 351
L 68 351
L 71 351
L 73 351
L 75 351
L 77 351
L 79 351
L 81 351
L 83 351
L 85 351
L 88 351
L 90 351
L 92 351
L 94 351
L 96 351
L 98 351
L 100 350
L 103 350
L 105 350
L 107 351
L 109 350
L 111 350
L 113 350
L 115 350
L 118 350
L 120 350
L 122 350
L 124 351
L 126 350
L 128 350
L 130 349
L 132 350
L 135 350
L 137 349
L 139 350
L 141 351
L 143 350
L 145 351
L 147 350
L 150 350
L 152 351
L 154 350
L 156 351
L 158 351
L 160 351
L 162 351
L 164 351
L 167 350
L 169 351
L 171 351
L 173 351
L 175 351
L 177 351
L 179 351
L 182 351
L 184 351
L 186 351
L 188 351
L 190 351
L 192 351
L 194 351
L 197 351
L 199 351
L 201 351
L 203 351
L 205 351
L 207 351
L 209 351
L 211 351
L 214 351
L 216 351
L 218 350
L 220 351
L 222 351
L 224 351
L 226 351
L 229 351
L 231 351
L 233 351
L 235 351
L 237 351
L 239 351
L 241 351
L 243 351
L 246 351
L 248 351
L 250 351
L 252 351
L 254 351
L 256 351
L 258 351
L 261 351
L 263 351
L 265 351
L 267 351
L 269 351
L 271 351
L 273 351
L 276 351
L 278 351
L 280 351
L 282 351
L 284 351
L 286 351
L 288 351
L 290 351
L 293 351
L 295 351
L 297 351
L 299 351
L 301 351
L 303 351
L 305 351
L 308 351
L 310 351
L 312 351
L 314 351
L 316 351
L 318 351
L 320 351
L 322 351
L 325 351
L 327 351
L 329 351
L 331 351
L 333 351
L 335 351
L 337 351
L 340 351
L 342 351
L 344 351
L 346 351
L 348 351
L 350 351
L 352 351
L 355 351
L 357 351
L 359 351
L 361 351
L 363 351
L 365 351
L 367 351
L 369 351
L 372 351
L 374 351
L 376 351
L 378 351
L 380 351
L 382 351
L 384 351
L 387 351
L 389 351
L 391 351
L 393 351
L 395 351
L 397 351
L 399 351
L 402 351
L 404 351
L 406 351
L 408 351
L 410 351
L 412 351
L 414 351
L 416 351
L 419 351
L 421 351
L 423 351
L 425 351
L 427 351
L 429 351
L 431 351
L 434 351
L 436 351
L 438 351
L 440 351
L 442 351
L 444 351
L 446 351
L 448 351
L 451 351
L 453 351
L 455 351
L 457 351
L 459 351
L 461 351
L 463 351
L 466 351
L 468 351
L 470 351
L 472 351
L 474 351
L 476 351
L 478 351
L 481 351
L 483 351
L 485 351
L 487 351
L 489 351
L 491 351
L 493 351
L 495 351
L 498 351
L 500 351
L 502 351
L 504 351
L 506 351
L 508 351
L 510 351
L 513 351
L 515 351
L 517 351
L 519 351
L 521 351
L 523 351
L 525 351
L 527 351
L 530 351
L 532 351
L 534 351
L 536 351
L 538 351
L 540 351
L 542 351
L 545 351
L 547 351
L 549 351
L 551 350
L 553 351
L 555 351
L 557 351
L 560 351
L 562 351
L 564 350
L 566 350
L 568 350
L 570 351
L 572 351
L 574 351
L 577 350
L 579 350
L 581 351
L 583 349
L 585 351
L 587 350
L 589 351
L 592 350
L 594 350
L 596 350
L 598 350
L 600 349
L 602 350
L 604 350
L 606 350
L 609 349
L 611 349
L 613 350
L 615 351
L 617 350
L 619 350
L 621 350
L 624 350
L 626 351
L 628 350
L 630 349
L 632 349
L 634 350
L 636 350
L 639 350
L 641 350
L 643 350
L 645 351
L 647 350
L 649 350
L 651 350
L 653 351
L 656 351
L 658 351
L 660 351
L 662 350
L 664 351
L 666 350
L 668 350
L 671 351
L 673 351
L 675 351
L 677 350
L 679 350
L 681 351
L 683 351
L 686 351
L 688 350
L 690 351
L 692 350
L 694 351
L 696 350
L 698 351
L 700 350
L 703 351
L 705 350
L 707 351
L 709 351
L 711 351
L 713 351
L 715 351
L 718 351
L 720 350
L 722 351
L 724 350
L 726 351
L 728 351
L 730 351
L 732 351
L 735 351
L 737 350
L 739 350
L 741 351
L 743 351
L 745 350
L 747 351
L 750 351
L 752 351
L 754 351
L 756 350
L 758 350
L 760 350
L 762 351
L 765 351
L 767 351
L 769 351
L 771 351
L 773 351
L 775 351
L 777 350
L 779 350
L 782 350
L 784 350
L 786 351
L 788 351
L 790 351
L 792 351
L 794 350
L 797 350
L 799 351
L 801 351
L 803 351
L 805 351
L 807 351
L 809 351
L 811 351
L 814 351
L 816 351
L 818 351
L 820 351
L 822 351
L 824 351
L 826 351
L 829 351
L 831 351
L 833 351
L 835 351
L 837 351
L 839 351
L 841 351
L 844 351
L 846 351
L 848 351
L 850 351
L 852 351
L 854 351
L 856 351
L 858 351
L 861 351
L 863 351
L 865 351
L 867 351
L 869 351
L 871 351
L 873 351
L 876 351
L 878 351
L 880 350
L 882 350
L 884 351
L 886 351
L 888 351
L 890 351
L 893 350
L 895 351
L 897 351
L 899 351
L 901 351
L 903 350
L 905 350
L 908 351
L 910 351
L 912 351
L 914 351
L 916 351
L 918 351
L 920 351
L 923 351
L 925 351
L 927 350
L 929 351
L 931 351
L 933 351
L 935 351
L 937 351
L 940 351
L 942 351
L 944 351
L 946 351
L 948 350
L 950 351
L 952 350
L 955 351
L 957 351
L 959 351
L 961 351
L 963 351
L 965 351
L 967 351
L 969 351" style="stroke-width:1;stroke:rgba(217,0,116,1.0);fill:none"/><text x="407" y="33" style="stroke-width:0;stroke:none;fill:rgba(51,51,51,1.0);font-size:23.0px;font-family:'Roboto Medium',sans-serif">Kufstein 07.05.2021</text><path  d="M 38 11
L 251 11
L 251 91
L 38 91
L 38 11" style="stroke-width:1;stroke:rgba(51,51,51,1.0);fill:rgba(255,255,255,1.0)"/><text x="43" y="26" style="stroke-width:0;stroke:none;fill:rgba(51,51,51,1.0);font-size:10.2px;font-family:'Roboto Medium',sans-serif">Sieben Tage Durschnitt Inzidenz Fälle</text><path  d="M 221 21
L 241 21" style="stroke-width:1;stroke:rgba(0,116,217,1.0);fill:none"/><text x="43" y="56" style="stroke-width:0;stroke:none;fill:rgba(51,51,51,1.0);font-size:10.2px;font-family:'Roboto Medium',sans-serif">Anzahl Faelle</text><path  d="M 110 51
L 241 51" style="stroke-width:1;stroke:rgba(0,217,101,1.0);fill:none"/><text x="43" y="86" style="stroke-width:0;stroke:none;fill:rgba(51,51,51,1.0);font-size:10.2px;font-family:'Roboto Medium',sans-serif">Anzahl Tot</text><path  d="M 98 81
L 241 81" style="stroke-width:1;stroke:rgba(217,0,116,1.0);fill:none"/></svg>