<svg xmlns="http://www.w3.org/2000/svg" xmlns:xlink="http://www.w3.org/1999/xlink" width="1024" height="400">\n<path  d="M 0 0
L 1024 0
L 1024 400
L 0 400
L 0 0" style="stroke-width:0;stroke:rgba(255,255,255,1.0);fill:rgba(255,255,255,1.0)"/><path  d="M 38 11
L 969 11
L 969 351
L 38 351
L 38 11" style="stroke-width:0;stroke:rgba(255,255,255,1.0);fill:rgba(255,255,255,1.0)"/><path  d="M 38 351
L 969 351" style="stroke-width:1;stroke:rgba(51,51,51,1.0);fill:none"/><path  d="M 38 351
L 38 356" style="stroke-width:1;stroke:rgba(51,51,51,1.0);fill:none"/><text x="5" y="373" style="stroke-width:0;stroke:none;fill:rgba(51,51,51,1.0);font-size:12.8px;font-family:'Roboto Medium',sans-serif">2020-02-26</text><path  d="M 155 351
L 155 356" style="stroke-width:1;stroke:rgba(51,51,51,1.0);fill:none"/><text x="122" y="373" style="stroke-width:0;stroke:none;fill:rgba(51,51,51,1.0);font-size:12.8px;font-family:'Roboto Medium',sans-serif">2020-04-11</text><path  d="M 271 351
L 271 356" style="stroke-width:1;stroke:rgba(51,51,51,1.0);fill:none"/><text x="238" y="373" style="stroke-width:0;stroke:none;fill:rgba(51,51,51,1.0);font-size:12.8px;font-family:'Roboto Medium',sans-serif">2020-05-26</text><path  d="M 388 351
L 388 356" style="stroke-width:1;stroke:rgba(51,51,51,1.0);fill:none"/><text x="355" y="373" style="stroke-width:0;stroke:none;fill:rgba(51,51,51,1.0);font-size:12.8px;font-family:'Roboto Medium',sans-serif">2020-07-10</text><path  d="M 504 351
L 504 356" style="stroke-width:1;stroke:rgba(51,51,51,1.0);fill:none"/><text x="471" y="373" style="stroke-width:0;stroke:none;fill:rgba(51,51,51,1.0);font-size:12.8px;font-family:'Roboto Medium',sans-serif">2020-08-24</text><path  d="M 620 351
L 620 356" style="stroke-width:1;stroke:rgba(51,51,51,1.0);fill:none"/><text x="587" y="373" style="stroke-width:0;stroke:none;fill:rgba(51,51,51,1.0);font-size:12.8px;font-family:'Roboto Medium',sans-serif">2020-10-08</text><path  d="M 737 351
L 737 356" style="stroke-width:1;stroke:rgba(51,51,51,1.0);fill:none"/><text x="704" y="373" style="stroke-width:0;stroke:none;fill:rgba(51,51,51,1.0);font-size:12.8px;font-family:'Roboto Medium',sans-serif">2020-11-22</text><path  d="M 853 351
L 853 356" style="stroke-width:1;stroke:rgba(51,51,51,1.0);fill:none"/><text x="820" y="373" style="stroke-width:0;stroke:none;fill:rgba(51,51,51,1.0);font-size:12.8px;font-family:'Roboto Medium',sans-serif">2021-01-06</text><path  d="M 969 351
L 969 356" style="stroke-width:1;stroke:rgba(51,51,51,1.0);fill:none"/><text x="936" y="373" style="stroke-width:0;stroke:none;fill:rgba(51,51,51,1.0);font-size:12.8px;font-family:'Roboto Medium',sans-serif">2021-02-21</text><text x="485" y="395" style="stroke-width:0;stroke:none;fill:rgba(51,51,51,1.0);font-size:12.8px;font-family:'Roboto Medium',sans-serif">Datum</text><path  d="M 970 351
L 970 11" style="stroke-width:1;stroke:rgba(51,51,51,1.0);fill:none"/><path  d="M 970 351
L 975 351" style="stroke-width:1;stroke:rgba(51,51,51,1.0);fill:none"/><text x="980" y="357" style="stroke-width:0;stroke:none;fill:rgba(51,51,51,1.0);font-size:12.8px;font-family:'Roboto Medium',sans-serif">0.00</text><path  d="M 970 308
L 975 308" style="stroke-width:1;stroke:rgba(51,51,51,1.0);fill:none"/><text x="980" y="314" style="stroke-width:0;stroke:none;fill:rgba(51,51,51,1.0);font-size:12.8px;font-family:'Roboto Medium',sans-serif">118.00</text><path  d="M 970 266
L 975 266" style="stroke-width:1;stroke:rgba(51,51,51,1.0);fill:none"/><text x="980" y="272" style="stroke-width:0;stroke:none;fill:rgba(51,51,51,1.0);font-size:12.8px;font-family:'Roboto Medium',sans-serif">235.00</text><path  d="M 970 223
L 975 223" style="stroke-width:1;stroke:rgba(51,51,51,1.0);fill:none"/><text x="980" y="229" style="stroke-width:0;stroke:none;fill:rgba(51,51,51,1.0);font-size:12.8px;font-family:'Roboto Medium',sans-serif">353.00</text><path  d="M 970 181
L 975 181" style="stroke-width:1;stroke:rgba(51,51,51,1.0);fill:none"/><text x="980" y="187" style="stroke-width:0;stroke:none;fill:rgba(51,51,51,1.0);font-size:12.8px;font-family:'Roboto Medium',sans-serif">470.00</text><path  d="M 970 138
L 975 138" style="stroke-width:1;stroke:rgba(51,51,51,1.0);fill:none"/><text x="980" y="144" style="stroke-width:0;stroke:none;fill:rgba(51,51,51,1.0);font-size:12.8px;font-family:'Roboto Medium',sans-serif">588.00</text><path  d="M 970 96
L 975 96" style="stroke-width:1;stroke:rgba(51,51,51,1.0);fill:none"/><text x="980" y="102" style="stroke-width:0;stroke:none;fill:rgba(51,51,51,1.0);font-size:12.8px;font-family:'Roboto Medium',sans-serif">705.00</text><path  d="M 970 53
L 975 53" style="stroke-width:1;stroke:rgba(51,51,51,1.0);fill:none"/><text x="980" y="59" style="stroke-width:0;stroke:none;fill:rgba(51,51,51,1.0);font-size:12.8px;font-family:'Roboto Medium',sans-serif">823.00</text><path  d="M 970 11
L 975 11" style="stroke-width:1;stroke:rgba(51,51,51,1.0);fill:none"/><text x="980" y="17" style="stroke-width:0;stroke:none;fill:rgba(51,51,51,1.0);font-size:12.8px;font-family:'Roboto Medium',sans-serif">940.00</text><path  d="M 38 351
L 41 351
L 44 351
L 46 351
L 49 351
L 51 351
L 54 351
L 57 351
L 59 351
L 62 351
L 64 351
L 67 351
L 69 351
L 72 351
L 75 351
L 77 351
L 80 351
L 82 350
L 85 349
L 87 348
L 90 344
L 93 340
L 95 337
L 98 333
L 100 322
L 103 321
L 106 315
L 108 314
L 111 307
L 113 303
L 116 295
L 118 296
L 121 290
L 124 288
L 126 286
L 129 289
L 131 281
L 134 287
L 136 292
L 139 299
L 142 305
L 144 310
L 147 314
L 149 328
L 152 332
L 155 336
L 157 335
L 160 337
L 162 339
L 165 340
L 167 340
L 170 341
L 173 342
L 175 344
L 178 345
L 180 344
L 183 347
L 185 348
L 188 348
L 191 348
L 193 348
L 196 348
L 198 349
L 201 349
L 204 349
L 206 350
L 209 350
L 211 350
L 214 350
L 216 349
L 219 349
L 222 349
L 224 349
L 227 349
L 229 349
L 232 349
L 234 349
L 237 350
L 240 350
L 242 350
L 245 350
L 247 350
L 250 350
L 253 350
L 255 350
L 258 350
L 260 351
L 263 351
L 265 351
L 268 351
L 271 351
L 273 351
L 276 351
L 278 351
L 281 351
L 283 351
L 286 351
L 289 351
L 291 351
L 294 351
L 296 351
L 299 351
L 302 351
L 304 351
L 307 351
L 309 351
L 312 351
L 314 351
L 317 351
L 320 351
L 322 351
L 325 351
L 327 351
L 330 351
L 332 351
L 335 351
L 338 351
L 340 351
L 343 351
L 345 351
L 348 351
L 351 351
L 353 350
L 356 350
L 358 350
L 361 350
L 363 350
L 366 350
L 369 350
L 371 350
L 374 350
L 376 350
L 379 351
L 381 351
L 384 350
L 387 350
L 389 350
L 392 350
L 394 350
L 397 350
L 400 350
L 402 350
L 405 350
L 407 351
L 410 351
L 412 351
L 415 350
L 418 350
L 420 350
L 423 350
L 425 349
L 428 347
L 430 347
L 433 346
L 436 345
L 438 345
L 441 345
L 443 345
L 446 347
L 449 347
L 451 349
L 454 349
L 456 350
L 459 350
L 461 350
L 464 350
L 467 350
L 469 350
L 472 350
L 474 349
L 477 349
L 479 347
L 482 347
L 485 347
L 487 346
L 490 344
L 492 343
L 495 339
L 498 336
L 500 336
L 503 336
L 505 333
L 508 328
L 510 328
L 513 326
L 516 327
L 518 326
L 521 326
L 523 325
L 526 327
L 528 326
L 531 329
L 534 330
L 536 332
L 539 329
L 541 328
L 544 328
L 547 327
L 549 324
L 552 321
L 554 320
L 557 320
L 559 321
L 562 322
L 565 325
L 567 329
L 570 331
L 572 331
L 575 334
L 577 339
L 580 338
L 583 337
L 585 338
L 588 338
L 590 338
L 593 337
L 596 334
L 598 336
L 601 335
L 603 332
L 606 330
L 608 330
L 611 330
L 614 330
L 616 328
L 619 328
L 621 326
L 624 327
L 626 326
L 629 325
L 632 322
L 634 321
L 637 323
L 639 322
L 642 320
L 645 322
L 647 320
L 650 323
L 652 323
L 655 296
L 657 285
L 660 278
L 663 256
L 665 245
L 668 219
L 670 193
L 673 189
L 675 172
L 678 170
L 681 156
L 683 126
L 686 119
L 688 112
L 691 108
L 694 95
L 696 95
L 699 94
L 701 93
L 704 54
L 706 34
L 709 29
L 712 25
L 714 11
L 717 21
L 719 22
L 722 41
L 724 61
L 727 52
L 730 62
L 732 61
L 735 67
L 737 79
L 740 67
L 743 55
L 745 68
L 748 83
L 750 101
L 753 120
L 755 134
L 758 189
L 761 224
L 763 245
L 766 259
L 768 248
L 771 244
L 773 250
L 776 250
L 779 256
L 781 264
L 784 273
L 786 284
L 789 285
L 792 289
L 794 294
L 797 297
L 799 302
L 802 294
L 804 301
L 807 300
L 810 296
L 812 294
L 815 294
L 817 290
L 820 291
L 822 295
L 825 295
L 828 295
L 830 293
L 833 296
L 835 295
L 838 295
L 841 286
L 843 284
L 846 287
L 848 290
L 851 282
L 853 284
L 856 289
L 859 296
L 861 300
L 864 305
L 866 309
L 869 318
L 871 321
L 874 323
L 877 322
L 879 326
L 882 324
L 884 321
L 887 320
L 890 320
L 892 320
L 895 318
L 897 316
L 900 318
L 902 318
L 905 316
L 908 315
L 910 313
L 913 316
L 915 314
L 918 314
L 920 318
L 923 315
L 926 317
L 928 319
L 931 321
L 933 324
L 936 325
L 939 318
L 941 317
L 944 315
L 946 314
L 949 316
L 951 312
L 954 310
L 957 316
L 959 319
L 962 323
L 964 321
L 967 319
L 969 325" style="stroke-width:1;stroke:rgba(0,116,217,1.0);fill:none"/><path  d="M 38 351
L 41 351
L 44 351
L 46 351
L 49 351
L 51 351
L 54 351
L 57 351
L 59 351
L 62 351
L 64 351
L 67 351
L 69 351
L 72 351
L 75 351
L 77 351
L 80 351
L 82 350
L 85 349
L 87 349
L 90 346
L 93 346
L 95 347
L 98 347
L 100 338
L 103 348
L 106 343
L 108 345
L 111 338
L 113 343
L 116 337
L 118 340
L 121 340
L 124 341
L 126 342
L 129 342
L 131 334
L 134 344
L 136 345
L 139 348
L 142 348
L 144 348
L 147 346
L 149 349
L 152 349
L 155 349
L 157 348
L 160 350
L 162 351
L 165 347
L 167 349
L 170 350
L 173 349
L 175 351
L 178 350
L 180 350
L 183 350
L 185 351
L 188 349
L 191 350
L 193 351
L 196 351
L 198 351
L 201 350
L 204 351
L 206 351
L 209 351
L 211 351
L 214 350
L 216 350
L 219 350
L 222 350
L 224 351
L 227 351
L 229 350
L 232 351
L 234 350
L 237 351
L 240 351
L 242 350
L 245 351
L 247 351
L 250 351
L 253 351
L 255 351
L 258 351
L 260 351
L 263 351
L 265 351
L 268 351
L 271 351
L 273 351
L 276 351
L 278 351
L 281 351
L 283 351
L 286 351
L 289 351
L 291 351
L 294 351
L 296 351
L 299 351
L 302 351
L 304 351
L 307 351
L 309 351
L 312 351
L 314 351
L 317 351
L 320 351
L 322 351
L 325 351
L 327 351
L 330 351
L 332 351
L 335 351
L 338 351
L 340 351
L 343 351
L 345 351
L 348 351
L 351 351
L 353 350
L 356 351
L 358 350
L 361 350
L 363 351
L 366 351
L 369 351
L 371 351
L 374 351
L 376 351
L 379 351
L 381 351
L 384 350
L 387 351
L 389 350
L 392 351
L 394 351
L 397 351
L 400 351
L 402 351
L 405 351
L 407 351
L 410 351
L 412 351
L 415 350
L 418 351
L 420 351
L 423 350
L 425 350
L 428 348
L 430 351
L 433 348
L 436 350
L 438 350
L 441 351
L 443 350
L 446 351
L 449 351
L 451 350
L 454 351
L 456 351
L 459 351
L 461 351
L 464 351
L 467 350
L 469 351
L 472 350
L 474 349
L 477 350
L 479 349
L 482 350
L 485 350
L 487 349
L 490 349
L 492 348
L 495 347
L 498 345
L 500 351
L 503 350
L 505 346
L 508 343
L 510 347
L 513 344
L 516 347
L 518 349
L 521 350
L 523 345
L 526 345
L 528 347
L 531 348
L 534 348
L 536 351
L 539 347
L 541 343
L 544 345
L 547 345
L 549 345
L 552 344
L 554 350
L 557 347
L 559 344
L 562 347
L 565 349
L 567 349
L 570 347
L 572 350
L 575 350
L 577 350
L 580 345
L 583 348
L 585 349
L 588 347
L 590 350
L 593 349
L 596 347
L 598 348
L 601 346
L 603 347
L 606 344
L 608 350
L 611 349
L 614 347
L 616 346
L 619 346
L 621 345
L 624 345
L 626 348
L 629 349
L 632 343
L 634 345
L 637 348
L 639 344
L 642 343
L 645 351
L 647 347
L 650 347
L 652 344
L 655 319
L 657 331
L 660 335
L 663 326
L 665 335
L 668 318
L 670 315
L 673 314
L 675 313
L 678 333
L 681 310
L 683 302
L 686 311
L 688 307
L 691 310
L 694 298
L 696 334
L 699 308
L 701 302
L 704 268
L 706 285
L 709 305
L 712 294
L 714 318
L 717 319
L 719 303
L 722 288
L 724 308
L 727 295
L 730 305
L 732 317
L 735 325
L 737 316
L 740 275
L 743 295
L 745 309
L 748 321
L 750 337
L 753 346
L 755 332
L 758 336
L 761 333
L 763 332
L 766 337
L 768 324
L 771 342
L 773 339
L 776 335
L 779 340
L 781 341
L 784 348
L 786 336
L 789 343
L 792 343
L 794 341
L 797 343
L 799 346
L 802 340
L 804 344
L 807 341
L 810 338
L 812 340
L 815 343
L 817 341
L 820 340
L 822 348
L 825 342
L 828 338
L 830 338
L 833 346
L 835 340
L 838 340
L 841 338
L 843 339
L 846 341
L 848 342
L 851 337
L 853 343
L 856 346
L 859 346
L 861 344
L 864 346
L 866 346
L 869 348
L 871 346
L 874 348
L 877 345
L 879 348
L 882 345
L 884 342
L 887 347
L 890 346
L 892 348
L 895 343
L 897 346
L 900 347
L 902 342
L 905 345
L 908 344
L 910 345
L 913 347
L 915 343
L 918 347
L 920 347
L 923 342
L 926 347
L 928 347
L 931 348
L 933 347
L 936 348
L 939 339
L 941 341
L 944 344
L 946 347
L 949 350
L 951 343
L 954 346
L 957 345
L 959 344
L 962 348
L 964 345
L 967 347
L 969 349" style="stroke-width:1;stroke:rgba(0,217,101,1.0);fill:none"/><path  d="M 38 351
L 41 351
L 44 351
L 46 351
L 49 351
L 51 351
L 54 351
L 57 351
L 59 351
L 62 351
L 64 351
L 67 351
L 69 351
L 72 351
L 75 351
L 77 351
L 80 351
L 82 351
L 85 351
L 87 351
L 90 351
L 93 351
L 95 351
L 98 351
L 100 351
L 103 351
L 106 351
L 108 351
L 111 351
L 113 350
L 116 350
L 118 350
L 121 351
L 124 350
L 126 350
L 129 350
L 131 350
L 134 350
L 136 350
L 139 350
L 142 351
L 144 350
L 147 350
L 149 349
L 152 350
L 155 350
L 157 349
L 160 350
L 162 351
L 165 350
L 167 351
L 170 350
L 173 350
L 175 351
L 178 350
L 180 351
L 183 351
L 185 351
L 188 351
L 191 351
L 193 350
L 196 351
L 198 351
L 201 351
L 204 351
L 206 351
L 209 351
L 211 351
L 214 351
L 216 351
L 219 351
L 222 351
L 224 351
L 227 351
L 229 351
L 232 351
L 234 351
L 237 351
L 240 351
L 242 351
L 245 351
L 247 351
L 250 351
L 253 351
L 255 350
L 258 351
L 260 351
L 263 351
L 265 351
L 268 351
L 271 351
L 273 351
L 276 351
L 278 351
L 281 351
L 283 351
L 286 351
L 289 351
L 291 351
L 294 351
L 296 351
L 299 351
L 302 351
L 304 351
L 307 351
L 309 351
L 312 351
L 314 351
L 317 351
L 320 351
L 322 351
L 325 351
L 327 351
L 330 351
L 332 351
L 335 351
L 338 351
L 340 351
L 343 351
L 345 351
L 348 351
L 351 351
L 353 351
L 356 351
L 358 351
L 361 351
L 363 351
L 366 351
L 369 351
L 371 351
L 374 351
L 376 351
L 379 351
L 381 351
L 384 351
L 387 351
L 389 351
L 392 351
L 394 351
L 397 351
L 400 351
L 402 351
L 405 351
L 407 351
L 410 351
L 412 351
L 415 351
L 418 351
L 420 351
L 423 351
L 425 351
L 428 351
L 430 351
L 433 351
L 436 351
L 438 351
L 441 351
L 443 351
L 446 351
L 449 351
L 451 351
L 454 351
L 456 351
L 459 351
L 461 351
L 464 351
L 467 351
L 469 351
L 472 351
L 474 351
L 477 351
L 479 351
L 482 351
L 485 351
L 487 351
L 490 351
L 492 351
L 495 351
L 498 351
L 500 351
L 503 351
L 505 351
L 508 351
L 510 351
L 513 351
L 516 351
L 518 351
L 521 351
L 523 351
L 526 351
L 528 351
L 531 351
L 534 351
L 536 351
L 539 351
L 541 351
L 544 351
L 547 351
L 549 351
L 552 351
L 554 351
L 557 351
L 559 351
L 562 351
L 565 351
L 567 351
L 570 351
L 572 351
L 575 351
L 577 351
L 580 351
L 583 351
L 585 351
L 588 351
L 590 351
L 593 351
L 596 351
L 598 351
L 601 351
L 603 351
L 606 351
L 608 351
L 611 351
L 614 351
L 616 351
L 619 351
L 621 351
L 624 351
L 626 351
L 629 351
L 632 351
L 634 351
L 637 351
L 639 351
L 642 351
L 645 351
L 647 351
L 650 351
L 652 351
L 655 351
L 657 350
L 660 351
L 663 351
L 665 351
L 668 351
L 670 351
L 673 350
L 675 350
L 678 350
L 681 351
L 683 351
L 686 351
L 688 350
L 691 350
L 694 351
L 696 349
L 699 351
L 701 350
L 704 351
L 706 350
L 709 350
L 712 350
L 714 350
L 717 349
L 719 350
L 722 350
L 724 350
L 727 349
L 730 349
L 732 350
L 735 351
L 737 350
L 740 350
L 743 350
L 745 350
L 748 351
L 750 350
L 753 349
L 755 349
L 758 350
L 761 350
L 763 350
L 766 350
L 768 350
L 771 351
L 773 350
L 776 350
L 779 350
L 781 351
L 784 351
L 786 351
L 789 351
L 792 350
L 794 351
L 797 350
L 799 350
L 802 351
L 804 351
L 807 351
L 810 350
L 812 350
L 815 351
L 817 351
L 820 351
L 822 350
L 825 351
L 828 350
L 830 351
L 833 350
L 835 351
L 838 350
L 841 351
L 843 350
L 846 351
L 848 351
L 851 351
L 853 351
L 856 351
L 859 351
L 861 350
L 864 351
L 866 350
L 869 351
L 871 351
L 874 351
L 877 351
L 879 351
L 882 350
L 884 350
L 887 351
L 890 351
L 892 350
L 895 351
L 897 351
L 900 351
L 902 351
L 905 350
L 908 350
L 910 350
L 913 351
L 915 351
L 918 351
L 920 351
L 923 351
L 926 351
L 928 351
L 931 350
L 933 350
L 936 350
L 939 350
L 941 351
L 944 351
L 946 351
L 949 351
L 951 350
L 954 350
L 957 351
L 959 351
L 962 351
L 964 351
L 967 351
L 969 351" style="stroke-width:1;stroke:rgba(217,0,116,1.0);fill:none"/><text x="407" y="33" style="stroke-width:0;stroke:none;fill:rgba(51,51,51,1.0);font-size:23.0px;font-family:'Roboto Medium',sans-serif">Kufstein 21.02.2021</text><path  d="M 38 11
L 251 11
L 251 91
L 38 91
L 38 11" style="stroke-width:1;stroke:rgba(51,51,51,1.0);fill:rgba(255,255,255,1.0)"/><text x="43" y="26" style="stroke-width:0;stroke:none;fill:rgba(51,51,51,1.0);font-size:10.2px;font-family:'Roboto Medium',sans-serif">Sieben Tage Durschnitt Inzidenz Fälle</text><path  d="M 221 21
L 241 21" style="stroke-width:1;stroke:rgba(0,116,217,1.0);fill:none"/><text x="43" y="56" style="stroke-width:0;stroke:none;fill:rgba(51,51,51,1.0);font-size:10.2px;font-family:'Roboto Medium',sans-serif">Anzahl Faelle</text><path  d="M 110 51
L 241 51" style="stroke-width:1;stroke:rgba(0,217,101,1.0);fill:none"/><text x="43" y="86" style="stroke-width:0;stroke:none;fill:rgba(51,51,51,1.0);font-size:10.2px;font-family:'Roboto Medium',sans-serif">Anzahl Tot</text><path  d="M 98 81
L 241 81" style="stroke-width:1;stroke:rgba(217,0,116,1.0);fill:none"/></svg>