<svg xmlns="http://www.w3.org/2000/svg" xmlns:xlink="http://www.w3.org/1999/xlink" width="1024" height="400">\n<path  d="M 0 0
L 1024 0
L 1024 400
L 0 400
L 0 0" style="stroke-width:0;stroke:rgba(255,255,255,1.0);fill:rgba(255,255,255,1.0)"/><path  d="M 38 11
L 969 11
L 969 351
L 38 351
L 38 11" style="stroke-width:0;stroke:rgba(255,255,255,1.0);fill:rgba(255,255,255,1.0)"/><path  d="M 38 351
L 969 351" style="stroke-width:1;stroke:rgba(51,51,51,1.0);fill:none"/><path  d="M 38 351
L 38 356" style="stroke-width:1;stroke:rgba(51,51,51,1.0);fill:none"/><text x="5" y="373" style="stroke-width:0;stroke:none;fill:rgba(51,51,51,1.0);font-size:12.8px;font-family:'Roboto Medium',sans-serif">2020-02-26</text><path  d="M 155 351
L 155 356" style="stroke-width:1;stroke:rgba(51,51,51,1.0);fill:none"/><text x="122" y="373" style="stroke-width:0;stroke:none;fill:rgba(51,51,51,1.0);font-size:12.8px;font-family:'Roboto Medium',sans-serif">2020-05-04</text><path  d="M 271 351
L 271 356" style="stroke-width:1;stroke:rgba(51,51,51,1.0);fill:none"/><text x="238" y="373" style="stroke-width:0;stroke:none;fill:rgba(51,51,51,1.0);font-size:12.8px;font-family:'Roboto Medium',sans-serif">2020-07-12</text><path  d="M 388 351
L 388 356" style="stroke-width:1;stroke:rgba(51,51,51,1.0);fill:none"/><text x="355" y="373" style="stroke-width:0;stroke:none;fill:rgba(51,51,51,1.0);font-size:12.8px;font-family:'Roboto Medium',sans-serif">2020-09-19</text><path  d="M 504 351
L 504 356" style="stroke-width:1;stroke:rgba(51,51,51,1.0);fill:none"/><text x="471" y="373" style="stroke-width:0;stroke:none;fill:rgba(51,51,51,1.0);font-size:12.8px;font-family:'Roboto Medium',sans-serif">2020-11-27</text><path  d="M 620 351
L 620 356" style="stroke-width:1;stroke:rgba(51,51,51,1.0);fill:none"/><text x="587" y="373" style="stroke-width:0;stroke:none;fill:rgba(51,51,51,1.0);font-size:12.8px;font-family:'Roboto Medium',sans-serif">2021-02-04</text><path  d="M 737 351
L 737 356" style="stroke-width:1;stroke:rgba(51,51,51,1.0);fill:none"/><text x="704" y="373" style="stroke-width:0;stroke:none;fill:rgba(51,51,51,1.0);font-size:12.8px;font-family:'Roboto Medium',sans-serif">2021-04-14</text><path  d="M 853 351
L 853 356" style="stroke-width:1;stroke:rgba(51,51,51,1.0);fill:none"/><text x="820" y="373" style="stroke-width:0;stroke:none;fill:rgba(51,51,51,1.0);font-size:12.8px;font-family:'Roboto Medium',sans-serif">2021-06-22</text><path  d="M 969 351
L 969 356" style="stroke-width:1;stroke:rgba(51,51,51,1.0);fill:none"/><text x="936" y="373" style="stroke-width:0;stroke:none;fill:rgba(51,51,51,1.0);font-size:12.8px;font-family:'Roboto Medium',sans-serif">2021-08-30</text><text x="485" y="395" style="stroke-width:0;stroke:none;fill:rgba(51,51,51,1.0);font-size:12.8px;font-family:'Roboto Medium',sans-serif">Datum</text><path  d="M 970 351
L 970 11" style="stroke-width:1;stroke:rgba(51,51,51,1.0);fill:none"/><path  d="M 970 351
L 975 351" style="stroke-width:1;stroke:rgba(51,51,51,1.0);fill:none"/><text x="980" y="357" style="stroke-width:0;stroke:none;fill:rgba(51,51,51,1.0);font-size:12.8px;font-family:'Roboto Medium',sans-serif">0.00</text><path  d="M 970 308
L 975 308" style="stroke-width:1;stroke:rgba(51,51,51,1.0);fill:none"/><text x="980" y="314" style="stroke-width:0;stroke:none;fill:rgba(51,51,51,1.0);font-size:12.8px;font-family:'Roboto Medium',sans-serif">77.00</text><path  d="M 970 265
L 975 265" style="stroke-width:1;stroke:rgba(51,51,51,1.0);fill:none"/><text x="980" y="271" style="stroke-width:0;stroke:none;fill:rgba(51,51,51,1.0);font-size:12.8px;font-family:'Roboto Medium',sans-serif">153.00</text><path  d="M 970 223
L 975 223" style="stroke-width:1;stroke:rgba(51,51,51,1.0);fill:none"/><text x="980" y="229" style="stroke-width:0;stroke:none;fill:rgba(51,51,51,1.0);font-size:12.8px;font-family:'Roboto Medium',sans-serif">229.00</text><path  d="M 970 181
L 975 181" style="stroke-width:1;stroke:rgba(51,51,51,1.0);fill:none"/><text x="980" y="187" style="stroke-width:0;stroke:none;fill:rgba(51,51,51,1.0);font-size:12.8px;font-family:'Roboto Medium',sans-serif">305.00</text><path  d="M 970 138
L 975 138" style="stroke-width:1;stroke:rgba(51,51,51,1.0);fill:none"/><text x="980" y="144" style="stroke-width:0;stroke:none;fill:rgba(51,51,51,1.0);font-size:12.8px;font-family:'Roboto Medium',sans-serif">382.00</text><path  d="M 970 95
L 975 95" style="stroke-width:1;stroke:rgba(51,51,51,1.0);fill:none"/><text x="980" y="101" style="stroke-width:0;stroke:none;fill:rgba(51,51,51,1.0);font-size:12.8px;font-family:'Roboto Medium',sans-serif">458.00</text><path  d="M 970 53
L 975 53" style="stroke-width:1;stroke:rgba(51,51,51,1.0);fill:none"/><text x="980" y="59" style="stroke-width:0;stroke:none;fill:rgba(51,51,51,1.0);font-size:12.8px;font-family:'Roboto Medium',sans-serif">534.00</text><path  d="M 970 11
L 975 11" style="stroke-width:1;stroke:rgba(51,51,51,1.0);fill:none"/><text x="980" y="17" style="stroke-width:0;stroke:none;fill:rgba(51,51,51,1.0);font-size:12.8px;font-family:'Roboto Medium',sans-serif">610.00</text><path  d="M 38 351
L 40 351
L 42 351
L 44 351
L 45 351
L 47 351
L 49 351
L 50 351
L 52 351
L 54 351
L 55 351
L 57 351
L 59 351
L 60 351
L 62 351
L 64 351
L 66 349
L 67 347
L 69 343
L 71 341
L 72 339
L 74 336
L 76 328
L 77 326
L 79 322
L 81 322
L 82 321
L 84 312
L 86 312
L 87 317
L 89 311
L 91 307
L 93 311
L 94 307
L 96 315
L 98 311
L 99 311
L 101 318
L 103 323
L 104 323
L 106 330
L 108 331
L 109 337
L 111 339
L 113 341
L 115 344
L 116 345
L 118 345
L 120 346
L 121 344
L 123 345
L 125 345
L 126 346
L 128 346
L 130 346
L 131 347
L 133 347
L 135 348
L 136 348
L 138 347
L 140 347
L 142 347
L 143 347
L 145 349
L 147 349
L 148 348
L 150 348
L 152 349
L 153 349
L 155 349
L 157 349
L 158 349
L 160 350
L 162 351
L 164 351
L 165 351
L 167 351
L 169 351
L 170 351
L 172 351
L 174 351
L 175 351
L 177 351
L 179 351
L 180 351
L 182 351
L 184 351
L 185 351
L 187 351
L 189 351
L 191 351
L 192 351
L 194 351
L 196 351
L 197 351
L 199 351
L 201 351
L 202 351
L 204 351
L 206 351
L 207 351
L 209 351
L 211 351
L 213 351
L 214 351
L 216 351
L 218 351
L 219 351
L 221 351
L 223 351
L 224 351
L 226 351
L 228 351
L 229 351
L 231 351
L 233 351
L 234 351
L 236 351
L 238 351
L 240 351
L 241 351
L 243 351
L 245 351
L 246 351
L 248 351
L 250 351
L 251 351
L 253 351
L 255 349
L 256 349
L 258 349
L 260 349
L 262 347
L 263 347
L 265 347
L 267 349
L 268 349
L 270 349
L 272 349
L 273 350
L 275 349
L 277 349
L 278 349
L 280 349
L 282 349
L 283 349
L 285 348
L 287 348
L 289 348
L 290 348
L 292 348
L 294 348
L 295 349
L 297 350
L 299 351
L 300 351
L 302 351
L 304 351
L 305 351
L 307 351
L 309 351
L 311 351
L 312 351
L 314 351
L 316 350
L 317 350
L 319 350
L 321 350
L 322 350
L 324 350
L 326 350
L 327 351
L 329 351
L 331 351
L 332 351
L 334 351
L 336 351
L 338 351
L 339 351
L 341 350
L 343 349
L 344 348
L 346 347
L 348 347
L 349 346
L 351 346
L 353 347
L 354 348
L 356 349
L 358 349
L 360 348
L 361 348
L 363 347
L 365 347
L 366 347
L 368 345
L 370 345
L 371 344
L 373 343
L 375 343
L 376 344
L 378 344
L 380 345
L 381 342
L 383 343
L 385 341
L 387 340
L 388 332
L 390 332
L 392 331
L 393 332
L 395 334
L 397 334
L 398 336
L 400 341
L 402 341
L 403 341
L 405 341
L 407 341
L 409 343
L 410 342
L 412 345
L 414 343
L 415 343
L 417 342
L 419 341
L 420 339
L 422 335
L 424 333
L 425 332
L 427 326
L 429 328
L 430 324
L 432 322
L 434 319
L 436 311
L 437 311
L 439 313
L 441 304
L 442 286
L 444 275
L 446 264
L 447 257
L 449 248
L 451 232
L 452 206
L 454 181
L 456 151
L 458 139
L 459 138
L 461 139
L 463 114
L 464 109
L 466 83
L 468 51
L 469 41
L 471 30
L 473 13
L 474 22
L 476 11
L 478 40
L 479 79
L 481 94
L 483 110
L 485 109
L 486 113
L 488 130
L 490 149
L 491 145
L 493 145
L 495 146
L 496 164
L 498 160
L 500 166
L 501 160
L 503 185
L 505 184
L 507 188
L 508 173
L 510 187
L 512 187
L 513 188
L 515 171
L 517 183
L 518 188
L 520 196
L 522 207
L 523 235
L 525 243
L 527 249
L 528 258
L 530 240
L 532 245
L 534 228
L 535 215
L 537 220
L 539 224
L 540 226
L 542 241
L 544 241
L 545 244
L 547 234
L 549 241
L 550 266
L 552 266
L 554 265
L 556 263
L 557 258
L 559 265
L 561 266
L 562 265
L 564 255
L 566 256
L 567 267
L 569 275
L 571 284
L 572 281
L 574 270
L 576 272
L 577 273
L 579 266
L 581 263
L 583 260
L 584 259
L 586 258
L 588 263
L 589 267
L 591 275
L 593 283
L 594 290
L 596 286
L 598 295
L 599 298
L 601 298
L 603 286
L 605 294
L 606 289
L 608 295
L 610 286
L 611 282
L 613 282
L 615 291
L 616 293
L 618 296
L 620 292
L 621 298
L 623 300
L 625 298
L 626 298
L 628 296
L 630 298
L 632 307
L 633 310
L 635 309
L 637 309
L 638 302
L 640 301
L 642 292
L 643 281
L 645 269
L 647 269
L 648 256
L 650 244
L 652 243
L 654 224
L 655 229
L 657 226
L 659 223
L 660 222
L 662 236
L 664 226
L 665 252
L 667 247
L 669 235
L 670 230
L 672 234
L 674 218
L 675 226
L 677 203
L 679 187
L 681 168
L 682 169
L 684 172
L 686 187
L 687 187
L 689 185
L 691 196
L 692 210
L 694 204
L 696 198
L 697 186
L 699 173
L 701 190
L 703 197
L 704 224
L 706 230
L 708 226
L 709 239
L 711 256
L 713 254
L 714 250
L 716 238
L 718 235
L 719 241
L 721 245
L 723 232
L 724 249
L 726 245
L 728 236
L 730 245
L 731 250
L 733 241
L 735 246
L 736 234
L 738 240
L 740 258
L 741 252
L 743 257
L 745 252
L 746 251
L 748 244
L 750 243
L 752 238
L 753 237
L 755 238
L 757 247
L 758 250
L 760 257
L 762 253
L 763 267
L 765 266
L 767 260
L 768 258
L 770 257
L 772 261
L 773 268
L 775 263
L 777 272
L 779 284
L 780 292
L 782 299
L 784 300
L 785 306
L 787 313
L 789 309
L 790 307
L 792 310
L 794 316
L 795 320
L 797 320
L 799 318
L 801 327
L 802 329
L 804 329
L 806 330
L 807 332
L 809 334
L 811 335
L 812 334
L 814 334
L 816 337
L 817 339
L 819 342
L 821 343
L 822 344
L 824 345
L 826 345
L 828 345
L 829 347
L 831 347
L 833 347
L 834 346
L 836 347
L 838 347
L 839 347
L 841 347
L 843 347
L 844 347
L 846 349
L 848 349
L 850 349
L 851 350
L 853 350
L 855 350
L 856 350
L 858 349
L 860 349
L 861 349
L 863 349
L 865 349
L 866 349
L 868 349
L 870 350
L 871 351
L 873 351
L 875 350
L 877 349
L 878 348
L 880 347
L 882 345
L 883 345
L 885 344
L 887 342
L 888 343
L 890 344
L 892 343
L 893 343
L 895 340
L 897 341
L 899 343
L 900 342
L 902 339
L 904 339
L 905 341
L 907 343
L 909 343
L 910 342
L 912 341
L 914 341
L 915 339
L 917 339
L 919 338
L 920 335
L 922 336
L 924 334
L 926 335
L 927 335
L 929 335
L 931 334
L 932 336
L 934 334
L 936 333
L 937 331
L 939 330
L 941 327
L 942 325
L 944 325
L 946 327
L 948 328
L 949 324
L 951 324
L 953 326
L 954 328
L 956 327
L 958 326
L 959 327
L 961 330
L 963 334
L 964 334
L 966 333
L 968 334
L 969 334" style="stroke-width:1;stroke:rgba(0,116,217,1.0);fill:none"/><path  d="M 38 351
L 40 351
L 42 351
L 44 351
L 45 351
L 47 351
L 49 351
L 50 351
L 52 351
L 54 351
L 55 351
L 57 351
L 59 351
L 60 351
L 62 351
L 64 351
L 66 349
L 67 349
L 69 347
L 71 349
L 72 349
L 74 348
L 76 343
L 77 347
L 79 347
L 81 346
L 82 348
L 84 341
L 86 348
L 87 347
L 89 342
L 91 343
L 93 350
L 94 344
L 96 348
L 98 345
L 99 348
L 101 348
L 103 347
L 104 350
L 106 350
L 108 349
L 109 351
L 111 349
L 113 350
L 115 350
L 116 351
L 118 350
L 120 350
L 121 349
L 123 349
L 125 351
L 126 351
L 128 351
L 130 350
L 131 351
L 133 349
L 135 351
L 136 351
L 138 350
L 140 350
L 142 351
L 143 350
L 145 351
L 147 351
L 148 350
L 150 350
L 152 351
L 153 351
L 155 351
L 157 351
L 158 351
L 160 351
L 162 351
L 164 351
L 165 351
L 167 351
L 169 351
L 170 351
L 172 351
L 174 351
L 175 351
L 177 351
L 179 351
L 180 351
L 182 351
L 184 351
L 185 351
L 187 351
L 189 351
L 191 351
L 192 351
L 194 351
L 196 351
L 197 351
L 199 351
L 201 351
L 202 351
L 204 351
L 206 351
L 207 351
L 209 351
L 211 351
L 213 351
L 214 351
L 216 351
L 218 351
L 219 351
L 221 351
L 223 351
L 224 351
L 226 351
L 228 351
L 229 351
L 231 351
L 233 351
L 234 351
L 236 351
L 238 351
L 240 351
L 241 351
L 243 351
L 245 351
L 246 351
L 248 351
L 250 351
L 251 351
L 253 351
L 255 349
L 256 351
L 258 351
L 260 351
L 262 349
L 263 351
L 265 351
L 267 351
L 268 351
L 270 351
L 272 350
L 273 351
L 275 350
L 277 351
L 278 351
L 280 351
L 282 351
L 283 350
L 285 349
L 287 350
L 289 351
L 290 351
L 292 351
L 294 351
L 295 351
L 297 351
L 299 351
L 300 351
L 302 351
L 304 351
L 305 351
L 307 351
L 309 351
L 311 351
L 312 351
L 314 351
L 316 350
L 317 351
L 319 351
L 321 351
L 322 351
L 324 351
L 326 351
L 327 351
L 329 351
L 331 351
L 332 351
L 334 351
L 336 351
L 338 351
L 339 351
L 341 350
L 343 349
L 344 350
L 346 349
L 348 351
L 349 350
L 351 351
L 353 351
L 354 351
L 356 351
L 358 350
L 360 349
L 361 350
L 363 350
L 365 350
L 366 351
L 368 349
L 370 350
L 371 348
L 373 349
L 375 350
L 376 351
L 378 351
L 380 350
L 381 348
L 383 349
L 385 348
L 387 349
L 388 343
L 390 351
L 392 349
L 393 348
L 395 351
L 397 349
L 398 351
L 400 348
L 402 350
L 403 349
L 405 349
L 407 351
L 409 350
L 410 350
L 412 350
L 414 349
L 415 349
L 417 348
L 419 349
L 420 349
L 422 346
L 424 348
L 425 348
L 427 344
L 429 349
L 430 347
L 432 347
L 434 343
L 436 341
L 437 348
L 439 346
L 441 342
L 442 332
L 444 337
L 446 334
L 447 335
L 449 340
L 451 333
L 452 320
L 454 310
L 456 311
L 458 324
L 459 334
L 461 340
L 463 311
L 464 315
L 466 289
L 468 284
L 469 315
L 471 325
L 473 325
L 474 320
L 476 305
L 478 314
L 479 318
L 481 328
L 483 338
L 485 325
L 486 323
L 488 319
L 490 330
L 491 314
L 493 329
L 495 339
L 496 340
L 498 320
L 500 324
L 501 325
L 503 335
L 505 328
L 507 342
L 508 328
L 510 332
L 512 324
L 513 326
L 515 322
L 517 338
L 518 346
L 520 335
L 522 342
L 523 347
L 525 333
L 527 326
L 528 346
L 530 330
L 532 339
L 534 328
L 535 335
L 537 338
L 539 329
L 540 348
L 542 344
L 544 338
L 545 330
L 547 327
L 549 344
L 550 350
L 552 348
L 554 343
L 556 337
L 557 326
L 559 333
L 561 345
L 562 349
L 564 339
L 566 344
L 567 345
L 569 333
L 571 341
L 572 342
L 574 339
L 576 341
L 577 345
L 579 339
L 581 330
L 583 338
L 584 342
L 586 339
L 588 345
L 589 349
L 591 346
L 593 337
L 594 345
L 596 338
L 598 347
L 599 348
L 601 348
L 603 337
L 605 344
L 606 340
L 608 343
L 610 339
L 611 344
L 613 348
L 615 344
L 616 345
L 618 343
L 620 339
L 621 344
L 623 346
L 625 346
L 626 344
L 628 344
L 630 344
L 632 347
L 633 347
L 635 345
L 637 346
L 638 339
L 640 343
L 642 337
L 643 338
L 645 337
L 647 345
L 648 334
L 650 329
L 652 343
L 654 320
L 655 343
L 657 334
L 659 343
L 660 334
L 662 340
L 664 334
L 665 342
L 667 338
L 669 324
L 670 338
L 672 337
L 674 328
L 675 341
L 677 322
L 679 325
L 681 308
L 682 339
L 684 339
L 686 340
L 687 341
L 689 320
L 691 334
L 692 319
L 694 334
L 696 334
L 697 330
L 699 329
L 701 335
L 703 340
L 704 343
L 706 339
L 708 331
L 709 342
L 711 343
L 713 333
L 714 337
L 716 333
L 718 337
L 719 336
L 721 345
L 723 332
L 724 348
L 726 333
L 728 325
L 730 344
L 731 340
L 733 337
L 735 336
L 736 338
L 738 339
L 740 340
L 741 340
L 743 344
L 745 333
L 746 334
L 748 332
L 750 338
L 752 337
L 753 339
L 755 345
L 757 340
L 758 337
L 760 338
L 762 334
L 763 348
L 765 338
L 767 339
L 768 339
L 770 336
L 772 342
L 773 340
L 775 344
L 777 346
L 779 349
L 780 346
L 782 342
L 784 342
L 785 346
L 787 350
L 789 342
L 790 348
L 792 348
L 794 347
L 795 345
L 797 347
L 799 348
L 801 350
L 802 350
L 804 348
L 806 348
L 807 347
L 809 349
L 811 349
L 812 349
L 814 350
L 816 351
L 817 349
L 819 350
L 821 350
L 822 349
L 824 350
L 826 350
L 828 351
L 829 351
L 831 350
L 833 351
L 834 348
L 836 351
L 838 351
L 839 350
L 841 351
L 843 351
L 844 351
L 846 350
L 848 351
L 850 351
L 851 351
L 853 351
L 855 351
L 856 351
L 858 349
L 860 350
L 861 351
L 863 351
L 865 351
L 866 351
L 868 351
L 870 351
L 871 351
L 873 351
L 875 350
L 877 349
L 878 350
L 880 350
L 882 349
L 883 351
L 885 349
L 887 348
L 888 351
L 890 351
L 892 349
L 893 348
L 895 348
L 897 350
L 899 350
L 900 350
L 902 348
L 904 350
L 905 349
L 907 350
L 909 351
L 910 349
L 912 349
L 914 348
L 915 348
L 917 349
L 919 349
L 920 348
L 922 349
L 924 347
L 926 349
L 927 348
L 929 349
L 931 349
L 932 350
L 934 347
L 936 347
L 937 348
L 939 347
L 941 347
L 942 347
L 944 350
L 946 349
L 948 347
L 949 345
L 951 347
L 953 348
L 954 349
L 956 349
L 958 348
L 959 348
L 961 348
L 963 349
L 964 348
L 966 348
L 968 350
L 969 348" style="stroke-width:1;stroke:rgba(0,217,101,1.0);fill:none"/><path  d="M 38 351
L 40 351
L 42 351
L 44 351
L 45 351
L 47 351
L 49 351
L 50 351
L 52 351
L 54 351
L 55 351
L 57 351
L 59 351
L 60 351
L 62 351
L 64 351
L 66 351
L 67 351
L 69 351
L 71 351
L 72 351
L 74 351
L 76 351
L 77 351
L 79 351
L 81 351
L 82 350
L 84 351
L 86 351
L 87 351
L 89 351
L 91 350
L 93 351
L 94 351
L 96 350
L 98 351
L 99 351
L 101 351
L 103 350
L 104 351
L 106 351
L 108 351
L 109 351
L 111 351
L 113 351
L 115 351
L 116 351
L 118 351
L 120 351
L 121 351
L 123 351
L 125 351
L 126 351
L 128 351
L 130 351
L 131 351
L 133 351
L 135 351
L 136 351
L 138 351
L 140 351
L 142 351
L 143 351
L 145 351
L 147 351
L 148 351
L 150 351
L 152 351
L 153 351
L 155 351
L 157 351
L 158 351
L 160 351
L 162 351
L 164 351
L 165 351
L 167 351
L 169 351
L 170 351
L 172 351
L 174 351
L 175 351
L 177 351
L 179 351
L 180 351
L 182 351
L 184 351
L 185 351
L 187 351
L 189 351
L 191 351
L 192 351
L 194 351
L 196 351
L 197 351
L 199 351
L 201 351
L 202 351
L 204 351
L 206 351
L 207 351
L 209 351
L 211 351
L 213 351
L 214 351
L 216 351
L 218 351
L 219 351
L 221 351
L 223 351
L 224 351
L 226 351
L 228 351
L 229 351
L 231 351
L 233 351
L 234 351
L 236 351
L 238 351
L 240 351
L 241 351
L 243 351
L 245 351
L 246 351
L 248 351
L 250 351
L 251 351
L 253 351
L 255 351
L 256 351
L 258 351
L 260 351
L 262 351
L 263 351
L 265 351
L 267 351
L 268 351
L 270 351
L 272 351
L 273 351
L 275 351
L 277 351
L 278 351
L 280 351
L 282 351
L 283 351
L 285 351
L 287 351
L 289 351
L 290 351
L 292 351
L 294 351
L 295 351
L 297 351
L 299 351
L 300 351
L 302 351
L 304 351
L 305 351
L 307 351
L 309 351
L 311 351
L 312 351
L 314 351
L 316 351
L 317 351
L 319 351
L 321 351
L 322 351
L 324 351
L 326 351
L 327 351
L 329 351
L 331 351
L 332 351
L 334 351
L 336 351
L 338 351
L 339 351
L 341 351
L 343 351
L 344 351
L 346 351
L 348 351
L 349 351
L 351 351
L 353 351
L 354 351
L 356 351
L 358 351
L 360 351
L 361 351
L 363 351
L 365 351
L 366 351
L 368 351
L 370 351
L 371 351
L 373 351
L 375 351
L 376 351
L 378 351
L 380 351
L 381 351
L 383 351
L 385 350
L 387 351
L 388 351
L 390 351
L 392 351
L 393 351
L 395 351
L 397 351
L 398 351
L 400 351
L 402 351
L 403 351
L 405 351
L 407 350
L 409 351
L 410 351
L 412 349
L 414 350
L 415 351
L 417 351
L 419 351
L 420 351
L 422 351
L 424 351
L 425 351
L 427 351
L 429 351
L 430 351
L 432 351
L 434 351
L 436 351
L 437 351
L 439 351
L 441 351
L 442 351
L 444 351
L 446 351
L 447 351
L 449 351
L 451 349
L 452 351
L 454 351
L 456 349
L 458 351
L 459 350
L 461 351
L 463 349
L 464 350
L 466 351
L 468 351
L 469 350
L 471 350
L 473 350
L 474 351
L 476 351
L 478 349
L 479 349
L 481 351
L 483 351
L 485 349
L 486 351
L 488 348
L 490 349
L 491 350
L 493 351
L 495 349
L 496 350
L 498 350
L 500 350
L 501 351
L 503 351
L 505 350
L 507 349
L 508 351
L 510 350
L 512 351
L 513 350
L 515 349
L 517 350
L 518 349
L 520 351
L 522 350
L 523 349
L 525 349
L 527 351
L 528 350
L 530 351
L 532 350
L 534 351
L 535 351
L 537 349
L 539 350
L 540 351
L 542 351
L 544 351
L 545 350
L 547 350
L 549 351
L 550 350
L 552 351
L 554 351
L 556 351
L 557 350
L 559 349
L 561 350
L 562 351
L 564 351
L 566 351
L 567 351
L 569 351
L 571 351
L 572 351
L 574 351
L 576 351
L 577 350
L 579 351
L 581 351
L 583 351
L 584 350
L 586 351
L 588 351
L 589 351
L 591 349
L 593 351
L 594 351
L 596 351
L 598 351
L 599 349
L 601 351
L 603 351
L 605 351
L 606 350
L 608 351
L 610 351
L 611 351
L 613 350
L 615 351
L 616 351
L 618 351
L 620 351
L 621 351
L 623 351
L 625 351
L 626 351
L 628 349
L 630 349
L 632 350
L 633 351
L 635 350
L 637 351
L 638 351
L 640 349
L 642 351
L 643 351
L 645 351
L 647 351
L 648 350
L 650 351
L 652 351
L 654 351
L 655 350
L 657 351
L 659 351
L 660 351
L 662 351
L 664 351
L 665 350
L 667 351
L 669 350
L 670 350
L 672 350
L 674 351
L 675 351
L 677 351
L 679 351
L 681 351
L 682 351
L 684 351
L 686 351
L 687 351
L 689 350
L 691 350
L 692 351
L 694 351
L 696 350
L 697 351
L 699 351
L 701 351
L 703 350
L 704 351
L 706 351
L 708 351
L 709 351
L 711 351
L 713 351
L 714 351
L 716 351
L 718 351
L 719 351
L 721 351
L 723 351
L 724 351
L 726 351
L 728 350
L 730 350
L 731 350
L 733 351
L 735 351
L 736 351
L 738 351
L 740 350
L 741 351
L 743 349
L 745 351
L 746 350
L 748 351
L 750 351
L 752 350
L 753 350
L 755 351
L 757 351
L 758 350
L 760 351
L 762 350
L 763 350
L 765 351
L 767 351
L 768 350
L 770 351
L 772 351
L 773 350
L 775 351
L 777 351
L 779 351
L 780 351
L 782 351
L 784 351
L 785 351
L 787 351
L 789 351
L 790 351
L 792 351
L 794 351
L 795 351
L 797 350
L 799 351
L 801 351
L 802 351
L 804 351
L 806 351
L 807 351
L 809 351
L 811 351
L 812 351
L 814 351
L 816 351
L 817 351
L 819 351
L 821 351
L 822 351
L 824 351
L 826 351
L 828 351
L 829 351
L 831 351
L 833 351
L 834 351
L 836 351
L 838 351
L 839 351
L 841 351
L 843 351
L 844 351
L 846 351
L 848 351
L 850 351
L 851 351
L 853 351
L 855 351
L 856 351
L 858 351
L 860 351
L 861 351
L 863 351
L 865 351
L 866 351
L 868 351
L 870 351
L 871 351
L 873 351
L 875 351
L 877 351
L 878 351
L 880 351
L 882 351
L 883 351
L 885 351
L 887 351
L 888 351
L 890 351
L 892 351
L 893 351
L 895 351
L 897 351
L 899 351
L 900 351
L 902 351
L 904 351
L 905 351
L 907 351
L 909 351
L 910 351
L 912 351
L 914 351
L 915 351
L 917 351
L 919 351
L 920 351
L 922 351
L 924 351
L 926 351
L 927 351
L 929 351
L 931 351
L 932 351
L 934 351
L 936 351
L 937 351
L 939 351
L 941 351
L 942 351
L 944 351
L 946 351
L 948 351
L 949 351
L 951 351
L 953 351
L 954 351
L 956 351
L 958 351
L 959 351
L 961 351
L 963 351
L 964 351
L 966 351
L 968 351
L 969 351" style="stroke-width:1;stroke:rgba(217,0,116,1.0);fill:none"/><text x="410" y="33" style="stroke-width:0;stroke:none;fill:rgba(51,51,51,1.0);font-size:23.0px;font-family:'Roboto Medium',sans-serif">Leibnitz 30.08.2021</text><path  d="M 38 11
L 251 11
L 251 91
L 38 91
L 38 11" style="stroke-width:1;stroke:rgba(51,51,51,1.0);fill:rgba(255,255,255,1.0)"/><text x="43" y="26" style="stroke-width:0;stroke:none;fill:rgba(51,51,51,1.0);font-size:10.2px;font-family:'Roboto Medium',sans-serif">Sieben Tage Durschnitt Inzidenz Fälle</text><path  d="M 221 21
L 241 21" style="stroke-width:1;stroke:rgba(0,116,217,1.0);fill:none"/><text x="43" y="56" style="stroke-width:0;stroke:none;fill:rgba(51,51,51,1.0);font-size:10.2px;font-family:'Roboto Medium',sans-serif">Anzahl Faelle</text><path  d="M 110 51
L 241 51" style="stroke-width:1;stroke:rgba(0,217,101,1.0);fill:none"/><text x="43" y="86" style="stroke-width:0;stroke:none;fill:rgba(51,51,51,1.0);font-size:10.2px;font-family:'Roboto Medium',sans-serif">Anzahl Tot</text><path  d="M 98 81
L 241 81" style="stroke-width:1;stroke:rgba(217,0,116,1.0);fill:none"/></svg>