<svg xmlns="http://www.w3.org/2000/svg" xmlns:xlink="http://www.w3.org/1999/xlink" width="1024" height="400">\n<path  d="M 0 0
L 1024 0
L 1024 400
L 0 400
L 0 0" style="stroke-width:0;stroke:rgba(255,255,255,1.0);fill:rgba(255,255,255,1.0)"/><path  d="M 38 11
L 969 11
L 969 351
L 38 351
L 38 11" style="stroke-width:0;stroke:rgba(255,255,255,1.0);fill:rgba(255,255,255,1.0)"/><path  d="M 38 351
L 969 351" style="stroke-width:1;stroke:rgba(51,51,51,1.0);fill:none"/><path  d="M 38 351
L 38 356" style="stroke-width:1;stroke:rgba(51,51,51,1.0);fill:none"/><text x="5" y="373" style="stroke-width:0;stroke:none;fill:rgba(51,51,51,1.0);font-size:12.8px;font-family:'Roboto Medium',sans-serif">2020-02-26</text><path  d="M 155 351
L 155 356" style="stroke-width:1;stroke:rgba(51,51,51,1.0);fill:none"/><text x="122" y="373" style="stroke-width:0;stroke:none;fill:rgba(51,51,51,1.0);font-size:12.8px;font-family:'Roboto Medium',sans-serif">2020-04-03</text><path  d="M 271 351
L 271 356" style="stroke-width:1;stroke:rgba(51,51,51,1.0);fill:none"/><text x="238" y="373" style="stroke-width:0;stroke:none;fill:rgba(51,51,51,1.0);font-size:12.8px;font-family:'Roboto Medium',sans-serif">2020-05-10</text><path  d="M 388 351
L 388 356" style="stroke-width:1;stroke:rgba(51,51,51,1.0);fill:none"/><text x="355" y="373" style="stroke-width:0;stroke:none;fill:rgba(51,51,51,1.0);font-size:12.8px;font-family:'Roboto Medium',sans-serif">2020-06-16</text><path  d="M 504 351
L 504 356" style="stroke-width:1;stroke:rgba(51,51,51,1.0);fill:none"/><text x="471" y="373" style="stroke-width:0;stroke:none;fill:rgba(51,51,51,1.0);font-size:12.8px;font-family:'Roboto Medium',sans-serif">2020-07-23</text><path  d="M 620 351
L 620 356" style="stroke-width:1;stroke:rgba(51,51,51,1.0);fill:none"/><text x="587" y="373" style="stroke-width:0;stroke:none;fill:rgba(51,51,51,1.0);font-size:12.8px;font-family:'Roboto Medium',sans-serif">2020-08-29</text><path  d="M 737 351
L 737 356" style="stroke-width:1;stroke:rgba(51,51,51,1.0);fill:none"/><text x="704" y="373" style="stroke-width:0;stroke:none;fill:rgba(51,51,51,1.0);font-size:12.8px;font-family:'Roboto Medium',sans-serif">2020-10-05</text><path  d="M 853 351
L 853 356" style="stroke-width:1;stroke:rgba(51,51,51,1.0);fill:none"/><text x="820" y="373" style="stroke-width:0;stroke:none;fill:rgba(51,51,51,1.0);font-size:12.8px;font-family:'Roboto Medium',sans-serif">2020-11-11</text><path  d="M 969 351
L 969 356" style="stroke-width:1;stroke:rgba(51,51,51,1.0);fill:none"/><text x="936" y="373" style="stroke-width:0;stroke:none;fill:rgba(51,51,51,1.0);font-size:12.8px;font-family:'Roboto Medium',sans-serif">2020-12-19</text><text x="485" y="395" style="stroke-width:0;stroke:none;fill:rgba(51,51,51,1.0);font-size:12.8px;font-family:'Roboto Medium',sans-serif">Datum</text><path  d="M 970 351
L 970 11" style="stroke-width:1;stroke:rgba(51,51,51,1.0);fill:none"/><path  d="M 970 351
L 975 351" style="stroke-width:1;stroke:rgba(51,51,51,1.0);fill:none"/><text x="980" y="357" style="stroke-width:0;stroke:none;fill:rgba(51,51,51,1.0);font-size:12.8px;font-family:'Roboto Medium',sans-serif">0.00</text><path  d="M 970 308
L 975 308" style="stroke-width:1;stroke:rgba(51,51,51,1.0);fill:none"/><text x="980" y="314" style="stroke-width:0;stroke:none;fill:rgba(51,51,51,1.0);font-size:12.8px;font-family:'Roboto Medium',sans-serif">78.00</text><path  d="M 970 266
L 975 266" style="stroke-width:1;stroke:rgba(51,51,51,1.0);fill:none"/><text x="980" y="272" style="stroke-width:0;stroke:none;fill:rgba(51,51,51,1.0);font-size:12.8px;font-family:'Roboto Medium',sans-serif">155.00</text><path  d="M 970 223
L 975 223" style="stroke-width:1;stroke:rgba(51,51,51,1.0);fill:none"/><text x="980" y="229" style="stroke-width:0;stroke:none;fill:rgba(51,51,51,1.0);font-size:12.8px;font-family:'Roboto Medium',sans-serif">233.00</text><path  d="M 970 181
L 975 181" style="stroke-width:1;stroke:rgba(51,51,51,1.0);fill:none"/><text x="980" y="187" style="stroke-width:0;stroke:none;fill:rgba(51,51,51,1.0);font-size:12.8px;font-family:'Roboto Medium',sans-serif">310.00</text><path  d="M 970 138
L 975 138" style="stroke-width:1;stroke:rgba(51,51,51,1.0);fill:none"/><text x="980" y="144" style="stroke-width:0;stroke:none;fill:rgba(51,51,51,1.0);font-size:12.8px;font-family:'Roboto Medium',sans-serif">388.00</text><path  d="M 970 96
L 975 96" style="stroke-width:1;stroke:rgba(51,51,51,1.0);fill:none"/><text x="980" y="102" style="stroke-width:0;stroke:none;fill:rgba(51,51,51,1.0);font-size:12.8px;font-family:'Roboto Medium',sans-serif">465.00</text><path  d="M 970 53
L 975 53" style="stroke-width:1;stroke:rgba(51,51,51,1.0);fill:none"/><text x="980" y="59" style="stroke-width:0;stroke:none;fill:rgba(51,51,51,1.0);font-size:12.8px;font-family:'Roboto Medium',sans-serif">543.00</text><path  d="M 970 11
L 975 11" style="stroke-width:1;stroke:rgba(51,51,51,1.0);fill:none"/><text x="980" y="17" style="stroke-width:0;stroke:none;fill:rgba(51,51,51,1.0);font-size:12.8px;font-family:'Roboto Medium',sans-serif">620.00</text><path  d="M 38 351
L 42 351
L 45 351
L 48 351
L 51 351
L 54 351
L 57 351
L 60 351
L 64 351
L 67 351
L 70 351
L 73 351
L 76 351
L 79 351
L 82 351
L 86 351
L 89 349
L 92 347
L 95 343
L 98 341
L 101 339
L 104 336
L 107 328
L 111 326
L 114 323
L 117 322
L 120 321
L 123 312
L 126 312
L 129 317
L 133 311
L 136 307
L 139 312
L 142 307
L 145 315
L 148 311
L 151 312
L 154 319
L 158 323
L 161 323
L 164 329
L 167 330
L 170 337
L 173 338
L 176 340
L 180 344
L 183 345
L 186 345
L 189 346
L 192 344
L 195 345
L 198 345
L 202 346
L 205 346
L 208 346
L 211 347
L 214 347
L 217 348
L 220 348
L 223 347
L 227 347
L 230 347
L 233 347
L 236 349
L 239 349
L 242 348
L 245 348
L 249 349
L 252 349
L 255 349
L 258 349
L 261 349
L 264 350
L 267 351
L 270 351
L 274 351
L 277 351
L 280 351
L 283 351
L 286 351
L 289 351
L 292 351
L 296 351
L 299 351
L 302 351
L 305 351
L 308 351
L 311 351
L 314 351
L 317 351
L 321 351
L 324 351
L 327 351
L 330 351
L 333 351
L 336 351
L 339 351
L 343 351
L 346 351
L 349 351
L 352 351
L 355 351
L 358 351
L 361 351
L 365 351
L 368 351
L 371 351
L 374 351
L 377 351
L 380 351
L 383 351
L 386 351
L 390 351
L 393 351
L 396 351
L 399 351
L 402 351
L 405 351
L 408 351
L 412 351
L 415 351
L 418 351
L 421 351
L 424 351
L 427 351
L 430 351
L 433 351
L 437 351
L 440 349
L 443 349
L 446 349
L 449 349
L 452 347
L 455 347
L 459 347
L 462 349
L 465 349
L 468 349
L 471 349
L 474 350
L 477 349
L 480 349
L 484 349
L 487 349
L 490 349
L 493 349
L 496 348
L 499 348
L 502 348
L 506 348
L 509 348
L 512 348
L 515 349
L 518 350
L 521 351
L 524 351
L 528 351
L 531 351
L 534 351
L 537 351
L 540 351
L 543 351
L 546 351
L 549 351
L 553 350
L 556 350
L 559 350
L 562 350
L 565 350
L 568 350
L 571 350
L 575 351
L 578 351
L 581 351
L 584 351
L 587 351
L 590 351
L 593 351
L 596 351
L 600 350
L 603 349
L 606 348
L 609 347
L 612 347
L 615 346
L 618 346
L 622 347
L 625 348
L 628 349
L 631 349
L 634 348
L 637 348
L 640 347
L 643 347
L 647 347
L 650 346
L 653 345
L 656 344
L 659 343
L 662 343
L 665 344
L 669 344
L 672 344
L 675 342
L 678 343
L 681 341
L 684 340
L 687 332
L 691 332
L 694 331
L 697 332
L 700 334
L 703 334
L 706 336
L 709 341
L 712 341
L 716 341
L 719 341
L 722 341
L 725 343
L 728 342
L 731 345
L 734 343
L 738 343
L 741 342
L 744 341
L 747 340
L 750 335
L 753 333
L 756 332
L 759 326
L 763 328
L 766 325
L 769 323
L 772 319
L 775 311
L 778 311
L 781 314
L 785 305
L 788 288
L 791 276
L 794 266
L 797 259
L 800 250
L 803 233
L 806 208
L 810 182
L 813 153
L 816 141
L 819 140
L 822 141
L 825 116
L 828 111
L 832 87
L 835 54
L 838 44
L 841 33
L 844 15
L 847 26
L 850 15
L 854 44
L 857 83
L 860 98
L 863 113
L 866 113
L 869 116
L 872 132
L 875 151
L 879 155
L 882 155
L 885 156
L 888 174
L 891 170
L 894 176
L 897 171
L 901 188
L 904 187
L 907 186
L 910 171
L 913 185
L 916 184
L 919 184
L 922 167
L 926 179
L 929 189
L 932 197
L 935 209
L 938 236
L 941 244
L 944 249
L 948 259
L 951 240
L 954 244
L 957 228
L 960 215
L 963 221
L 966 222
L 969 222" style="stroke-width:1;stroke:rgba(0,116,217,1.0);fill:none"/><path  d="M 38 351
L 42 351
L 45 351
L 48 351
L 51 351
L 54 351
L 57 351
L 60 351
L 64 351
L 67 351
L 70 351
L 73 351
L 76 351
L 79 351
L 82 351
L 86 351
L 89 349
L 92 349
L 95 347
L 98 349
L 101 349
L 104 348
L 107 343
L 111 347
L 114 347
L 117 346
L 120 348
L 123 341
L 126 348
L 129 347
L 133 342
L 136 343
L 139 350
L 142 344
L 145 348
L 148 345
L 151 348
L 154 348
L 158 347
L 161 350
L 164 350
L 167 349
L 170 351
L 173 349
L 176 350
L 180 350
L 183 351
L 186 350
L 189 350
L 192 349
L 195 349
L 198 351
L 202 351
L 205 351
L 208 350
L 211 351
L 214 349
L 217 351
L 220 351
L 223 350
L 227 350
L 230 351
L 233 350
L 236 351
L 239 351
L 242 350
L 245 350
L 249 351
L 252 351
L 255 351
L 258 351
L 261 351
L 264 351
L 267 351
L 270 351
L 274 351
L 277 351
L 280 351
L 283 351
L 286 351
L 289 351
L 292 351
L 296 351
L 299 351
L 302 351
L 305 351
L 308 351
L 311 351
L 314 351
L 317 351
L 321 351
L 324 351
L 327 351
L 330 351
L 333 351
L 336 351
L 339 351
L 343 351
L 346 351
L 349 351
L 352 351
L 355 351
L 358 351
L 361 351
L 365 351
L 368 351
L 371 351
L 374 351
L 377 351
L 380 351
L 383 351
L 386 351
L 390 351
L 393 351
L 396 351
L 399 351
L 402 351
L 405 351
L 408 351
L 412 351
L 415 351
L 418 351
L 421 351
L 424 351
L 427 351
L 430 351
L 433 351
L 437 351
L 440 349
L 443 351
L 446 351
L 449 351
L 452 349
L 455 351
L 459 351
L 462 351
L 465 351
L 468 351
L 471 350
L 474 351
L 477 350
L 480 351
L 484 351
L 487 351
L 490 351
L 493 350
L 496 349
L 499 350
L 502 351
L 506 351
L 509 351
L 512 351
L 515 351
L 518 351
L 521 351
L 524 351
L 528 351
L 531 351
L 534 351
L 537 351
L 540 351
L 543 351
L 546 351
L 549 351
L 553 350
L 556 351
L 559 351
L 562 351
L 565 351
L 568 351
L 571 351
L 575 351
L 578 351
L 581 351
L 584 351
L 587 351
L 590 351
L 593 351
L 596 351
L 600 350
L 603 349
L 606 350
L 609 349
L 612 351
L 615 350
L 618 351
L 622 351
L 625 351
L 628 351
L 631 350
L 634 349
L 637 350
L 640 350
L 643 350
L 647 351
L 650 350
L 653 349
L 656 348
L 659 349
L 662 350
L 665 351
L 669 351
L 672 350
L 675 348
L 678 349
L 681 348
L 684 349
L 687 344
L 691 350
L 694 349
L 697 348
L 700 351
L 703 349
L 706 351
L 709 348
L 712 350
L 716 349
L 719 349
L 722 351
L 725 350
L 728 350
L 731 350
L 734 349
L 738 349
L 741 348
L 744 349
L 747 349
L 750 346
L 753 348
L 756 348
L 759 344
L 763 349
L 766 347
L 769 347
L 772 343
L 775 341
L 778 348
L 781 347
L 785 342
L 788 332
L 791 337
L 794 335
L 797 335
L 800 340
L 803 333
L 806 320
L 810 310
L 813 313
L 816 324
L 819 335
L 822 341
L 825 312
L 828 317
L 832 290
L 835 285
L 838 316
L 841 325
L 844 325
L 847 321
L 850 307
L 854 314
L 857 318
L 860 329
L 863 338
L 866 325
L 869 324
L 872 320
L 875 331
L 879 321
L 882 329
L 885 339
L 888 341
L 891 320
L 894 325
L 897 326
L 901 336
L 904 328
L 907 338
L 910 328
L 913 332
L 916 324
L 919 326
L 922 322
L 926 338
L 929 346
L 932 335
L 935 342
L 938 347
L 941 334
L 944 326
L 948 346
L 951 330
L 954 339
L 957 328
L 960 336
L 963 339
L 966 326
L 969 347" style="stroke-width:1;stroke:rgba(0,217,101,1.0);fill:none"/><path  d="M 38 351
L 42 351
L 45 351
L 48 351
L 51 351
L 54 351
L 57 351
L 60 351
L 64 351
L 67 351
L 70 351
L 73 351
L 76 351
L 79 351
L 82 351
L 86 351
L 89 351
L 92 351
L 95 351
L 98 351
L 101 351
L 104 351
L 107 351
L 111 351
L 114 351
L 117 351
L 120 350
L 123 351
L 126 351
L 129 351
L 133 351
L 136 350
L 139 351
L 142 351
L 145 350
L 148 351
L 151 351
L 154 351
L 158 350
L 161 351
L 164 351
L 167 351
L 170 351
L 173 351
L 176 351
L 180 351
L 183 351
L 186 351
L 189 351
L 192 351
L 195 351
L 198 351
L 202 351
L 205 351
L 208 351
L 211 351
L 214 351
L 217 351
L 220 351
L 223 351
L 227 351
L 230 351
L 233 351
L 236 351
L 239 351
L 242 351
L 245 351
L 249 351
L 252 351
L 255 351
L 258 351
L 261 351
L 264 351
L 267 351
L 270 351
L 274 351
L 277 351
L 280 351
L 283 351
L 286 351
L 289 351
L 292 351
L 296 351
L 299 351
L 302 351
L 305 351
L 308 351
L 311 351
L 314 351
L 317 351
L 321 351
L 324 351
L 327 351
L 330 351
L 333 351
L 336 351
L 339 351
L 343 351
L 346 351
L 349 351
L 352 351
L 355 351
L 358 351
L 361 351
L 365 351
L 368 351
L 371 351
L 374 351
L 377 351
L 380 351
L 383 351
L 386 351
L 390 351
L 393 351
L 396 351
L 399 351
L 402 351
L 405 351
L 408 351
L 412 351
L 415 351
L 418 351
L 421 351
L 424 351
L 427 351
L 430 351
L 433 351
L 437 351
L 440 351
L 443 351
L 446 351
L 449 351
L 452 351
L 455 351
L 459 351
L 462 351
L 465 351
L 468 351
L 471 351
L 474 351
L 477 351
L 480 351
L 484 351
L 487 351
L 490 351
L 493 351
L 496 351
L 499 351
L 502 351
L 506 351
L 509 351
L 512 351
L 515 351
L 518 351
L 521 351
L 524 351
L 528 351
L 531 351
L 534 351
L 537 351
L 540 351
L 543 351
L 546 351
L 549 351
L 553 351
L 556 351
L 559 351
L 562 351
L 565 351
L 568 351
L 571 351
L 575 351
L 578 351
L 581 351
L 584 351
L 587 351
L 590 351
L 593 351
L 596 351
L 600 351
L 603 351
L 606 351
L 609 351
L 612 351
L 615 351
L 618 351
L 622 351
L 625 351
L 628 351
L 631 351
L 634 351
L 637 351
L 640 351
L 643 351
L 647 351
L 650 351
L 653 351
L 656 351
L 659 351
L 662 351
L 665 351
L 669 351
L 672 351
L 675 351
L 678 351
L 681 350
L 684 351
L 687 351
L 691 351
L 694 351
L 697 351
L 700 351
L 703 351
L 706 351
L 709 351
L 712 351
L 716 351
L 719 351
L 722 350
L 725 351
L 728 351
L 731 349
L 734 350
L 738 351
L 741 351
L 744 351
L 747 351
L 750 351
L 753 351
L 756 351
L 759 351
L 763 351
L 766 351
L 769 351
L 772 351
L 775 351
L 778 351
L 781 351
L 785 351
L 788 351
L 791 351
L 794 351
L 797 351
L 800 351
L 803 349
L 806 351
L 810 351
L 813 349
L 816 351
L 819 350
L 822 351
L 825 349
L 828 350
L 832 351
L 835 351
L 838 350
L 841 350
L 844 350
L 847 351
L 850 351
L 854 349
L 857 349
L 860 351
L 863 351
L 866 350
L 869 351
L 872 348
L 875 349
L 879 350
L 882 351
L 885 349
L 888 350
L 891 350
L 894 350
L 897 351
L 901 351
L 904 350
L 907 349
L 910 351
L 913 350
L 916 351
L 919 350
L 922 349
L 926 350
L 929 349
L 932 351
L 935 350
L 938 349
L 941 349
L 944 351
L 948 350
L 951 351
L 954 350
L 957 351
L 960 351
L 963 349
L 966 350
L 969 351" style="stroke-width:1;stroke:rgba(217,0,116,1.0);fill:none"/><text x="410" y="33" style="stroke-width:0;stroke:none;fill:rgba(51,51,51,1.0);font-size:23.0px;font-family:'Roboto Medium',sans-serif">Leibnitz 19.12.2020</text><path  d="M 38 11
L 251 11
L 251 91
L 38 91
L 38 11" style="stroke-width:1;stroke:rgba(51,51,51,1.0);fill:rgba(255,255,255,1.0)"/><text x="43" y="26" style="stroke-width:0;stroke:none;fill:rgba(51,51,51,1.0);font-size:10.2px;font-family:'Roboto Medium',sans-serif">Sieben Tage Durschnitt Inzidenz Fälle</text><path  d="M 221 21
L 241 21" style="stroke-width:1;stroke:rgba(0,116,217,1.0);fill:none"/><text x="43" y="56" style="stroke-width:0;stroke:none;fill:rgba(51,51,51,1.0);font-size:10.2px;font-family:'Roboto Medium',sans-serif">Anzahl Faelle</text><path  d="M 110 51
L 241 51" style="stroke-width:1;stroke:rgba(0,217,101,1.0);fill:none"/><text x="43" y="86" style="stroke-width:0;stroke:none;fill:rgba(51,51,51,1.0);font-size:10.2px;font-family:'Roboto Medium',sans-serif">Anzahl Tot</text><path  d="M 98 81
L 241 81" style="stroke-width:1;stroke:rgba(217,0,116,1.0);fill:none"/></svg>