<svg xmlns="http://www.w3.org/2000/svg" xmlns:xlink="http://www.w3.org/1999/xlink" width="1024" height="400">\n<path  d="M 0 0
L 1024 0
L 1024 400
L 0 400
L 0 0" style="stroke-width:0;stroke:rgba(255,255,255,1.0);fill:rgba(255,255,255,1.0)"/><path  d="M 38 11
L 969 11
L 969 351
L 38 351
L 38 11" style="stroke-width:0;stroke:rgba(255,255,255,1.0);fill:rgba(255,255,255,1.0)"/><path  d="M 38 351
L 969 351" style="stroke-width:1;stroke:rgba(51,51,51,1.0);fill:none"/><path  d="M 38 351
L 38 356" style="stroke-width:1;stroke:rgba(51,51,51,1.0);fill:none"/><text x="5" y="373" style="stroke-width:0;stroke:none;fill:rgba(51,51,51,1.0);font-size:12.8px;font-family:'Roboto Medium',sans-serif">2020-02-26</text><path  d="M 155 351
L 155 356" style="stroke-width:1;stroke:rgba(51,51,51,1.0);fill:none"/><text x="122" y="373" style="stroke-width:0;stroke:none;fill:rgba(51,51,51,1.0);font-size:12.8px;font-family:'Roboto Medium',sans-serif">2020-05-12</text><path  d="M 271 351
L 271 356" style="stroke-width:1;stroke:rgba(51,51,51,1.0);fill:none"/><text x="238" y="373" style="stroke-width:0;stroke:none;fill:rgba(51,51,51,1.0);font-size:12.8px;font-family:'Roboto Medium',sans-serif">2020-07-28</text><path  d="M 388 351
L 388 356" style="stroke-width:1;stroke:rgba(51,51,51,1.0);fill:none"/><text x="355" y="373" style="stroke-width:0;stroke:none;fill:rgba(51,51,51,1.0);font-size:12.8px;font-family:'Roboto Medium',sans-serif">2020-10-13</text><path  d="M 504 351
L 504 356" style="stroke-width:1;stroke:rgba(51,51,51,1.0);fill:none"/><text x="471" y="373" style="stroke-width:0;stroke:none;fill:rgba(51,51,51,1.0);font-size:12.8px;font-family:'Roboto Medium',sans-serif">2020-12-29</text><path  d="M 620 351
L 620 356" style="stroke-width:1;stroke:rgba(51,51,51,1.0);fill:none"/><text x="587" y="373" style="stroke-width:0;stroke:none;fill:rgba(51,51,51,1.0);font-size:12.8px;font-family:'Roboto Medium',sans-serif">2021-03-16</text><path  d="M 737 351
L 737 356" style="stroke-width:1;stroke:rgba(51,51,51,1.0);fill:none"/><text x="704" y="373" style="stroke-width:0;stroke:none;fill:rgba(51,51,51,1.0);font-size:12.8px;font-family:'Roboto Medium',sans-serif">2021-06-01</text><path  d="M 853 351
L 853 356" style="stroke-width:1;stroke:rgba(51,51,51,1.0);fill:none"/><text x="820" y="373" style="stroke-width:0;stroke:none;fill:rgba(51,51,51,1.0);font-size:12.8px;font-family:'Roboto Medium',sans-serif">2021-08-17</text><path  d="M 969 351
L 969 356" style="stroke-width:1;stroke:rgba(51,51,51,1.0);fill:none"/><text x="936" y="373" style="stroke-width:0;stroke:none;fill:rgba(51,51,51,1.0);font-size:12.8px;font-family:'Roboto Medium',sans-serif">2021-11-02</text><text x="485" y="395" style="stroke-width:0;stroke:none;fill:rgba(51,51,51,1.0);font-size:12.8px;font-family:'Roboto Medium',sans-serif">Datum</text><path  d="M 970 351
L 970 11" style="stroke-width:1;stroke:rgba(51,51,51,1.0);fill:none"/><path  d="M 970 351
L 975 351" style="stroke-width:1;stroke:rgba(51,51,51,1.0);fill:none"/><text x="980" y="357" style="stroke-width:0;stroke:none;fill:rgba(51,51,51,1.0);font-size:12.8px;font-family:'Roboto Medium',sans-serif">0.00</text><path  d="M 970 308
L 975 308" style="stroke-width:1;stroke:rgba(51,51,51,1.0);fill:none"/><text x="980" y="314" style="stroke-width:0;stroke:none;fill:rgba(51,51,51,1.0);font-size:12.8px;font-family:'Roboto Medium',sans-serif">68.00</text><path  d="M 970 266
L 975 266" style="stroke-width:1;stroke:rgba(51,51,51,1.0);fill:none"/><text x="980" y="272" style="stroke-width:0;stroke:none;fill:rgba(51,51,51,1.0);font-size:12.8px;font-family:'Roboto Medium',sans-serif">135.00</text><path  d="M 970 223
L 975 223" style="stroke-width:1;stroke:rgba(51,51,51,1.0);fill:none"/><text x="980" y="229" style="stroke-width:0;stroke:none;fill:rgba(51,51,51,1.0);font-size:12.8px;font-family:'Roboto Medium',sans-serif">203.00</text><path  d="M 970 181
L 975 181" style="stroke-width:1;stroke:rgba(51,51,51,1.0);fill:none"/><text x="980" y="187" style="stroke-width:0;stroke:none;fill:rgba(51,51,51,1.0);font-size:12.8px;font-family:'Roboto Medium',sans-serif">270.00</text><path  d="M 970 138
L 975 138" style="stroke-width:1;stroke:rgba(51,51,51,1.0);fill:none"/><text x="980" y="144" style="stroke-width:0;stroke:none;fill:rgba(51,51,51,1.0);font-size:12.8px;font-family:'Roboto Medium',sans-serif">338.00</text><path  d="M 970 96
L 975 96" style="stroke-width:1;stroke:rgba(51,51,51,1.0);fill:none"/><text x="980" y="102" style="stroke-width:0;stroke:none;fill:rgba(51,51,51,1.0);font-size:12.8px;font-family:'Roboto Medium',sans-serif">405.00</text><path  d="M 970 53
L 975 53" style="stroke-width:1;stroke:rgba(51,51,51,1.0);fill:none"/><text x="980" y="59" style="stroke-width:0;stroke:none;fill:rgba(51,51,51,1.0);font-size:12.8px;font-family:'Roboto Medium',sans-serif">473.00</text><path  d="M 970 11
L 975 11" style="stroke-width:1;stroke:rgba(51,51,51,1.0);fill:none"/><text x="980" y="17" style="stroke-width:0;stroke:none;fill:rgba(51,51,51,1.0);font-size:12.8px;font-family:'Roboto Medium',sans-serif">540.00</text><path  d="M 38 351
L 40 351
L 42 351
L 43 351
L 45 351
L 46 351
L 48 351
L 49 351
L 51 351
L 52 351
L 54 351
L 55 351
L 57 346
L 58 346
L 60 346
L 61 346
L 63 346
L 64 346
L 66 345
L 67 349
L 69 348
L 70 348
L 72 348
L 73 348
L 75 348
L 76 348
L 78 348
L 79 346
L 81 345
L 82 341
L 84 341
L 85 339
L 87 340
L 88 339
L 90 342
L 91 342
L 93 343
L 95 342
L 96 344
L 98 344
L 99 345
L 101 344
L 102 345
L 104 348
L 105 349
L 107 349
L 108 349
L 110 349
L 111 351
L 113 351
L 114 351
L 116 351
L 117 351
L 119 351
L 120 351
L 122 351
L 123 351
L 125 351
L 126 349
L 128 349
L 129 349
L 131 349
L 132 349
L 134 349
L 135 349
L 137 351
L 138 351
L 140 351
L 141 351
L 143 351
L 144 351
L 146 351
L 147 351
L 149 351
L 151 351
L 152 351
L 154 351
L 155 351
L 157 351
L 158 351
L 160 351
L 161 351
L 163 351
L 164 351
L 166 351
L 167 351
L 169 351
L 170 351
L 172 351
L 173 351
L 175 351
L 176 351
L 178 351
L 179 351
L 181 351
L 182 351
L 184 351
L 185 351
L 187 351
L 188 351
L 190 351
L 191 351
L 193 351
L 194 351
L 196 351
L 197 351
L 199 351
L 200 351
L 202 351
L 204 351
L 205 351
L 207 351
L 208 351
L 210 351
L 211 351
L 213 351
L 214 351
L 216 351
L 217 351
L 219 351
L 220 351
L 222 351
L 223 351
L 225 351
L 226 351
L 228 351
L 229 351
L 231 351
L 232 349
L 234 349
L 235 349
L 237 348
L 238 348
L 240 348
L 241 348
L 243 349
L 244 349
L 246 349
L 247 351
L 249 346
L 250 346
L 252 346
L 253 346
L 255 346
L 256 346
L 258 346
L 260 351
L 261 349
L 263 346
L 264 346
L 266 346
L 267 343
L 269 341
L 270 339
L 272 336
L 273 338
L 275 338
L 276 338
L 278 341
L 279 343
L 281 345
L 282 349
L 284 351
L 285 351
L 287 351
L 288 351
L 290 351
L 291 351
L 293 351
L 294 351
L 296 351
L 297 351
L 299 351
L 300 351
L 302 351
L 303 351
L 305 351
L 306 351
L 308 349
L 309 347
L 311 347
L 313 347
L 314 347
L 316 347
L 317 347
L 319 348
L 320 351
L 322 349
L 323 349
L 325 349
L 326 349
L 328 347
L 329 346
L 331 346
L 332 347
L 334 347
L 335 345
L 337 343
L 338 343
L 340 341
L 341 339
L 343 333
L 344 331
L 346 333
L 347 333
L 349 333
L 350 337
L 352 337
L 353 341
L 355 343
L 356 341
L 358 343
L 359 343
L 361 342
L 362 343
L 364 343
L 365 341
L 367 341
L 369 341
L 370 342
L 372 343
L 373 328
L 375 327
L 376 327
L 378 321
L 379 310
L 381 294
L 382 283
L 384 299
L 385 290
L 387 282
L 388 288
L 390 291
L 391 299
L 393 308
L 394 298
L 396 302
L 397 296
L 399 283
L 400 264
L 402 259
L 403 230
L 405 226
L 406 213
L 408 199
L 409 191
L 411 182
L 412 163
L 414 156
L 415 155
L 417 143
L 418 118
L 420 122
L 421 102
L 423 72
L 425 72
L 426 51
L 428 51
L 429 34
L 431 12
L 432 15
L 434 13
L 435 32
L 437 44
L 438 39
L 440 59
L 441 83
L 443 68
L 444 102
L 446 76
L 447 68
L 449 80
L 450 80
L 452 38
L 453 54
L 455 71
L 456 93
L 458 110
L 459 120
L 461 130
L 462 181
L 464 210
L 465 194
L 467 201
L 468 210
L 470 205
L 471 213
L 473 209
L 474 197
L 476 215
L 478 204
L 479 190
L 481 201
L 482 211
L 484 215
L 485 226
L 487 230
L 488 243
L 490 261
L 491 238
L 493 247
L 494 248
L 496 262
L 497 269
L 499 281
L 500 281
L 502 308
L 503 313
L 505 315
L 506 307
L 508 305
L 509 291
L 511 282
L 512 266
L 514 256
L 515 255
L 517 257
L 518 257
L 520 270
L 521 264
L 523 283
L 524 286
L 526 285
L 527 288
L 529 291
L 530 286
L 532 299
L 534 299
L 535 310
L 537 314
L 538 312
L 540 309
L 541 318
L 543 315
L 544 313
L 546 313
L 547 312
L 549 321
L 550 316
L 552 309
L 553 312
L 555 314
L 556 314
L 558 310
L 559 307
L 561 311
L 562 313
L 564 312
L 565 306
L 567 296
L 568 297
L 570 303
L 571 297
L 573 294
L 574 290
L 576 290
L 577 291
L 579 288
L 580 287
L 582 278
L 583 278
L 585 277
L 587 277
L 588 287
L 590 279
L 591 282
L 593 287
L 594 276
L 596 281
L 597 267
L 599 255
L 600 269
L 602 262
L 603 261
L 605 263
L 606 261
L 608 266
L 609 270
L 611 269
L 612 255
L 614 261
L 615 246
L 617 244
L 618 242
L 620 247
L 621 234
L 623 233
L 624 212
L 626 228
L 627 223
L 629 219
L 630 213
L 632 224
L 633 224
L 635 249
L 636 256
L 638 248
L 639 256
L 641 257
L 643 255
L 644 269
L 646 260
L 647 250
L 649 269
L 650 269
L 652 272
L 653 273
L 655 276
L 656 258
L 658 259
L 659 248
L 661 262
L 662 255
L 664 250
L 665 242
L 667 257
L 668 265
L 670 267
L 671 259
L 673 271
L 674 263
L 676 270
L 677 275
L 679 282
L 680 275
L 682 280
L 683 281
L 685 294
L 686 292
L 688 294
L 689 290
L 691 305
L 692 306
L 694 303
L 695 306
L 697 307
L 699 307
L 700 311
L 702 305
L 703 304
L 705 305
L 706 307
L 708 309
L 709 315
L 711 310
L 712 313
L 714 318
L 715 318
L 717 320
L 718 321
L 720 320
L 721 325
L 723 328
L 724 331
L 726 337
L 727 338
L 729 342
L 730 344
L 732 346
L 733 346
L 735 346
L 736 344
L 738 345
L 739 345
L 741 346
L 742 346
L 744 347
L 745 346
L 747 348
L 748 346
L 750 347
L 752 346
L 753 346
L 755 346
L 756 347
L 758 347
L 759 348
L 761 348
L 762 349
L 764 349
L 765 349
L 767 349
L 768 348
L 770 349
L 771 349
L 773 349
L 774 349
L 776 349
L 777 349
L 779 351
L 780 351
L 782 351
L 783 351
L 785 349
L 786 349
L 788 348
L 789 348
L 791 348
L 792 348
L 794 348
L 795 349
L 797 348
L 798 349
L 800 349
L 801 349
L 803 349
L 804 349
L 806 346
L 808 347
L 809 347
L 811 347
L 812 347
L 814 347
L 815 347
L 817 351
L 818 351
L 820 351
L 821 346
L 823 345
L 824 342
L 826 331
L 827 330
L 829 328
L 830 321
L 832 320
L 833 320
L 835 319
L 836 328
L 838 326
L 839 327
L 841 332
L 842 333
L 844 326
L 845 321
L 847 316
L 848 315
L 850 311
L 851 308
L 853 309
L 854 313
L 856 322
L 857 320
L 859 316
L 861 321
L 862 325
L 864 321
L 865 324
L 867 322
L 868 327
L 870 332
L 871 329
L 873 328
L 874 335
L 876 325
L 877 324
L 879 321
L 880 318
L 882 319
L 883 315
L 885 311
L 886 318
L 888 316
L 889 319
L 891 322
L 892 323
L 894 326
L 895 326
L 897 326
L 898 324
L 900 324
L 901 323
L 903 323
L 904 323
L 906 324
L 907 325
L 909 325
L 910 321
L 912 313
L 913 312
L 915 309
L 917 295
L 918 285
L 920 283
L 921 285
L 923 287
L 924 286
L 926 278
L 927 285
L 929 283
L 930 282
L 932 272
L 933 266
L 935 262
L 936 267
L 938 259
L 939 261
L 941 265
L 942 265
L 944 263
L 945 264
L 947 264
L 948 264
L 950 262
L 951 252
L 953 242
L 954 234
L 956 230
L 957 227
L 959 230
L 960 223
L 962 219
L 963 219
L 965 224
L 966 210
L 968 192
L 969 180" style="stroke-width:1;stroke:rgba(0,116,217,1.0);fill:none"/><path  d="M 38 351
L 40 351
L 42 351
L 43 351
L 45 351
L 46 351
L 48 351
L 49 351
L 51 351
L 52 351
L 54 351
L 55 351
L 57 348
L 58 351
L 60 351
L 61 351
L 63 351
L 64 351
L 66 350
L 67 351
L 69 350
L 70 351
L 72 351
L 73 351
L 75 351
L 76 350
L 78 351
L 79 349
L 81 350
L 82 348
L 84 351
L 85 349
L 87 351
L 88 350
L 90 351
L 91 350
L 93 349
L 95 350
L 96 351
L 98 351
L 99 351
L 101 350
L 102 351
L 104 351
L 105 351
L 107 351
L 108 351
L 110 351
L 111 351
L 113 351
L 114 351
L 116 351
L 117 351
L 119 351
L 120 351
L 122 351
L 123 351
L 125 351
L 126 350
L 128 351
L 129 351
L 131 351
L 132 351
L 134 351
L 135 351
L 137 351
L 138 351
L 140 351
L 141 351
L 143 351
L 144 351
L 146 351
L 147 351
L 149 351
L 151 351
L 152 351
L 154 351
L 155 351
L 157 351
L 158 351
L 160 351
L 161 351
L 163 351
L 164 351
L 166 351
L 167 351
L 169 351
L 170 351
L 172 351
L 173 351
L 175 351
L 176 351
L 178 351
L 179 351
L 181 351
L 182 351
L 184 351
L 185 351
L 187 351
L 188 351
L 190 351
L 191 351
L 193 351
L 194 351
L 196 351
L 197 351
L 199 351
L 200 351
L 202 351
L 204 351
L 205 351
L 207 351
L 208 351
L 210 351
L 211 351
L 213 351
L 214 351
L 216 351
L 217 351
L 219 351
L 220 351
L 222 351
L 223 351
L 225 351
L 226 351
L 228 351
L 229 351
L 231 351
L 232 350
L 234 351
L 235 351
L 237 350
L 238 351
L 240 351
L 241 351
L 243 351
L 244 351
L 246 351
L 247 351
L 249 348
L 250 351
L 252 351
L 253 351
L 255 351
L 256 351
L 258 351
L 260 351
L 261 350
L 263 349
L 264 351
L 266 351
L 267 349
L 269 349
L 270 349
L 272 348
L 273 350
L 275 351
L 276 351
L 278 351
L 279 351
L 281 351
L 282 351
L 284 351
L 285 351
L 287 351
L 288 351
L 290 351
L 291 351
L 293 351
L 294 351
L 296 351
L 297 351
L 299 351
L 300 351
L 302 351
L 303 351
L 305 351
L 306 351
L 308 350
L 309 349
L 311 351
L 313 351
L 314 351
L 316 351
L 317 351
L 319 351
L 320 351
L 322 350
L 323 351
L 325 351
L 326 351
L 328 349
L 329 350
L 331 351
L 332 351
L 334 351
L 335 349
L 337 349
L 338 349
L 340 349
L 341 349
L 343 347
L 344 349
L 346 351
L 347 349
L 349 349
L 350 351
L 352 349
L 353 350
L 355 351
L 356 349
L 358 351
L 359 349
L 361 350
L 362 350
L 364 350
L 365 349
L 367 349
L 369 351
L 370 350
L 372 351
L 373 341
L 375 349
L 376 349
L 378 345
L 379 344
L 381 340
L 382 344
L 384 351
L 385 344
L 387 345
L 388 349
L 390 346
L 391 345
L 393 349
L 394 345
L 396 345
L 397 342
L 399 341
L 400 335
L 402 342
L 403 332
L 405 342
L 406 338
L 408 334
L 409 336
L 411 330
L 412 331
L 414 328
L 415 342
L 417 331
L 418 319
L 420 338
L 421 318
L 423 313
L 425 328
L 426 330
L 428 331
L 429 309
L 431 325
L 432 320
L 434 311
L 435 339
L 437 337
L 438 328
L 440 321
L 441 339
L 443 311
L 444 332
L 446 323
L 447 332
L 449 335
L 450 321
L 452 314
L 453 321
L 455 342
L 456 337
L 458 342
L 459 340
L 461 327
L 462 344
L 464 338
L 465 332
L 467 341
L 468 347
L 470 337
L 471 332
L 473 342
L 474 331
L 476 343
L 478 334
L 479 339
L 481 344
L 482 338
L 484 344
L 485 337
L 487 345
L 488 342
L 490 350
L 491 330
L 493 344
L 494 345
L 496 345
L 497 349
L 499 349
L 500 350
L 502 346
L 503 347
L 505 346
L 506 340
L 508 348
L 509 341
L 511 345
L 512 337
L 514 340
L 515 345
L 517 342
L 518 348
L 520 349
L 521 342
L 523 348
L 524 342
L 526 345
L 527 344
L 529 350
L 530 345
L 532 350
L 534 348
L 535 348
L 537 347
L 538 342
L 540 348
L 541 351
L 543 349
L 544 347
L 546 348
L 547 347
L 549 347
L 550 345
L 552 346
L 553 351
L 555 348
L 556 348
L 558 344
L 559 345
L 561 348
L 562 347
L 564 350
L 565 344
L 567 342
L 568 345
L 570 349
L 571 345
L 573 345
L 574 347
L 576 344
L 577 343
L 579 343
L 580 348
L 582 340
L 583 345
L 585 347
L 587 344
L 588 349
L 590 339
L 591 350
L 593 342
L 594 339
L 596 350
L 597 336
L 599 341
L 600 347
L 602 346
L 603 342
L 605 340
L 606 349
L 608 339
L 609 343
L 611 346
L 612 338
L 614 345
L 615 332
L 617 347
L 618 338
L 620 346
L 621 339
L 623 337
L 624 333
L 626 341
L 627 344
L 629 335
L 630 343
L 632 345
L 633 337
L 635 348
L 636 345
L 638 340
L 639 340
L 641 344
L 643 344
L 644 345
L 646 343
L 647 339
L 649 351
L 650 340
L 652 345
L 653 344
L 655 347
L 656 332
L 658 340
L 659 344
L 661 348
L 662 341
L 664 342
L 665 342
L 667 341
L 668 345
L 670 345
L 671 343
L 673 348
L 674 337
L 676 346
L 677 344
L 679 349
L 680 341
L 682 346
L 683 349
L 685 345
L 686 345
L 688 345
L 689 347
L 691 350
L 692 347
L 694 347
L 695 347
L 697 345
L 699 345
L 700 349
L 702 346
L 703 346
L 705 347
L 706 348
L 708 347
L 709 349
L 711 346
L 712 348
L 714 349
L 715 347
L 717 349
L 718 347
L 720 349
L 721 349
L 723 350
L 724 351
L 726 351
L 727 350
L 729 350
L 730 350
L 732 351
L 733 350
L 735 351
L 736 349
L 738 351
L 739 350
L 741 351
L 742 351
L 744 351
L 745 350
L 747 351
L 748 349
L 750 351
L 752 350
L 753 351
L 755 351
L 756 351
L 758 351
L 759 350
L 761 351
L 762 351
L 764 351
L 765 351
L 767 351
L 768 350
L 770 351
L 771 351
L 773 351
L 774 351
L 776 351
L 777 351
L 779 351
L 780 351
L 782 351
L 783 351
L 785 350
L 786 351
L 788 350
L 789 351
L 791 351
L 792 351
L 794 351
L 795 351
L 797 350
L 798 351
L 800 351
L 801 351
L 803 351
L 804 351
L 806 349
L 808 351
L 809 351
L 811 351
L 812 351
L 814 351
L 815 351
L 817 351
L 818 351
L 820 351
L 821 348
L 823 350
L 824 349
L 826 344
L 827 350
L 829 349
L 830 346
L 832 347
L 833 350
L 835 348
L 836 350
L 838 349
L 839 350
L 841 349
L 842 348
L 844 345
L 845 345
L 847 347
L 848 348
L 850 347
L 851 347
L 853 349
L 854 348
L 856 350
L 857 346
L 859 346
L 861 350
L 862 350
L 864 346
L 865 350
L 867 349
L 868 349
L 870 349
L 871 348
L 873 349
L 874 350
L 876 344
L 877 348
L 879 347
L 880 347
L 882 349
L 883 347
L 885 347
L 886 348
L 888 347
L 889 349
L 891 349
L 892 349
L 894 349
L 895 347
L 897 348
L 898 346
L 900 349
L 901 349
L 903 349
L 904 349
L 906 348
L 907 349
L 909 346
L 910 346
L 912 344
L 913 349
L 915 347
L 917 340
L 918 342
L 920 345
L 921 347
L 923 345
L 924 348
L 926 343
L 927 344
L 929 342
L 930 345
L 932 340
L 933 342
L 935 345
L 936 346
L 938 339
L 939 343
L 941 347
L 942 340
L 944 341
L 945 346
L 947 346
L 948 339
L 950 342
L 951 341
L 953 335
L 954 337
L 956 344
L 957 344
L 959 340
L 960 337
L 962 339
L 963 335
L 965 340
L 966 335
L 968 334
L 969 334" style="stroke-width:1;stroke:rgba(0,217,101,1.0);fill:none"/><path  d="M 38 351
L 40 351
L 42 351
L 43 351
L 45 351
L 46 351
L 48 351
L 49 351
L 51 351
L 52 351
L 54 351
L 55 351
L 57 351
L 58 351
L 60 351
L 61 351
L 63 351
L 64 351
L 66 351
L 67 351
L 69 351
L 70 351
L 72 351
L 73 351
L 75 351
L 76 351
L 78 351
L 79 351
L 81 351
L 82 351
L 84 351
L 85 351
L 87 351
L 88 351
L 90 350
L 91 351
L 93 351
L 95 351
L 96 351
L 98 351
L 99 351
L 101 350
L 102 351
L 104 351
L 105 351
L 107 351
L 108 351
L 110 350
L 111 351
L 113 351
L 114 351
L 116 351
L 117 351
L 119 351
L 120 351
L 122 351
L 123 351
L 125 351
L 126 351
L 128 351
L 129 351
L 131 351
L 132 351
L 134 351
L 135 351
L 137 351
L 138 351
L 140 351
L 141 351
L 143 351
L 144 351
L 146 351
L 147 351
L 149 351
L 151 351
L 152 351
L 154 351
L 155 351
L 157 351
L 158 351
L 160 351
L 161 351
L 163 351
L 164 351
L 166 351
L 167 351
L 169 351
L 170 351
L 172 351
L 173 351
L 175 351
L 176 351
L 178 351
L 179 351
L 181 351
L 182 351
L 184 351
L 185 351
L 187 351
L 188 351
L 190 351
L 191 351
L 193 351
L 194 351
L 196 351
L 197 351
L 199 351
L 200 351
L 202 351
L 204 351
L 205 351
L 207 351
L 208 351
L 210 351
L 211 351
L 213 351
L 214 351
L 216 351
L 217 351
L 219 351
L 220 351
L 222 351
L 223 351
L 225 351
L 226 351
L 228 351
L 229 351
L 231 351
L 232 351
L 234 351
L 235 351
L 237 351
L 238 351
L 240 351
L 241 351
L 243 351
L 244 351
L 246 351
L 247 351
L 249 351
L 250 351
L 252 351
L 253 351
L 255 351
L 256 351
L 258 351
L 260 351
L 261 351
L 263 351
L 264 351
L 266 351
L 267 351
L 269 351
L 270 351
L 272 351
L 273 351
L 275 351
L 276 351
L 278 351
L 279 351
L 281 351
L 282 351
L 284 351
L 285 351
L 287 351
L 288 351
L 290 351
L 291 351
L 293 351
L 294 351
L 296 351
L 297 351
L 299 351
L 300 351
L 302 351
L 303 351
L 305 351
L 306 351
L 308 351
L 309 351
L 311 351
L 313 351
L 314 351
L 316 351
L 317 351
L 319 351
L 320 351
L 322 351
L 323 351
L 325 351
L 326 351
L 328 351
L 329 351
L 331 351
L 332 351
L 334 351
L 335 351
L 337 351
L 338 351
L 340 351
L 341 351
L 343 351
L 344 351
L 346 351
L 347 351
L 349 351
L 350 351
L 352 351
L 353 351
L 355 351
L 356 351
L 358 351
L 359 351
L 361 351
L 362 351
L 364 351
L 365 351
L 367 351
L 369 351
L 370 351
L 372 351
L 373 351
L 375 351
L 376 351
L 378 351
L 379 351
L 381 351
L 382 351
L 384 351
L 385 351
L 387 351
L 388 351
L 390 351
L 391 351
L 393 351
L 394 351
L 396 350
L 397 350
L 399 351
L 400 350
L 402 351
L 403 351
L 405 351
L 406 351
L 408 351
L 409 351
L 411 351
L 412 350
L 414 351
L 415 351
L 417 351
L 418 349
L 420 351
L 421 349
L 423 350
L 425 350
L 426 350
L 428 349
L 429 349
L 431 350
L 432 351
L 434 349
L 435 350
L 437 351
L 438 349
L 440 349
L 441 350
L 443 349
L 444 349
L 446 350
L 447 348
L 449 349
L 450 349
L 452 349
L 453 351
L 455 350
L 456 350
L 458 348
L 459 349
L 461 349
L 462 351
L 464 351
L 465 351
L 467 349
L 468 350
L 470 350
L 471 350
L 473 351
L 474 350
L 476 351
L 478 349
L 479 351
L 481 350
L 482 349
L 484 351
L 485 349
L 487 349
L 488 350
L 490 349
L 491 350
L 493 349
L 494 351
L 496 349
L 497 351
L 499 351
L 500 351
L 502 351
L 503 351
L 505 351
L 506 351
L 508 350
L 509 351
L 511 351
L 512 351
L 514 351
L 515 351
L 517 351
L 518 351
L 520 351
L 521 351
L 523 350
L 524 349
L 526 351
L 527 351
L 529 349
L 530 351
L 532 350
L 534 351
L 535 351
L 537 351
L 538 351
L 540 351
L 541 351
L 543 349
L 544 351
L 546 351
L 547 350
L 549 350
L 550 351
L 552 351
L 553 351
L 555 351
L 556 351
L 558 351
L 559 351
L 561 351
L 562 351
L 564 351
L 565 351
L 567 351
L 568 351
L 570 351
L 571 350
L 573 350
L 574 351
L 576 351
L 577 351
L 579 350
L 580 351
L 582 351
L 583 351
L 585 351
L 587 351
L 588 351
L 590 351
L 591 351
L 593 350
L 594 351
L 596 351
L 597 351
L 599 351
L 600 351
L 602 351
L 603 351
L 605 351
L 606 351
L 608 351
L 609 350
L 611 350
L 612 351
L 614 351
L 615 351
L 617 351
L 618 351
L 620 351
L 621 350
L 623 351
L 624 350
L 626 351
L 627 350
L 629 350
L 630 350
L 632 350
L 633 351
L 635 351
L 636 350
L 638 351
L 639 350
L 641 350
L 643 351
L 644 351
L 646 351
L 647 350
L 649 351
L 650 350
L 652 351
L 653 350
L 655 351
L 656 350
L 658 351
L 659 351
L 661 351
L 662 351
L 664 351
L 665 350
L 667 351
L 668 350
L 670 351
L 671 351
L 673 350
L 674 351
L 676 351
L 677 351
L 679 351
L 680 351
L 682 351
L 683 351
L 685 351
L 686 351
L 688 351
L 689 351
L 691 351
L 692 350
L 694 351
L 695 351
L 697 351
L 699 351
L 700 351
L 702 351
L 703 351
L 705 351
L 706 351
L 708 351
L 709 351
L 711 351
L 712 351
L 714 351
L 715 351
L 717 351
L 718 351
L 720 351
L 721 351
L 723 351
L 724 351
L 726 351
L 727 351
L 729 351
L 730 351
L 732 351
L 733 351
L 735 351
L 736 351
L 738 351
L 739 351
L 741 351
L 742 351
L 744 351
L 745 351
L 747 351
L 748 351
L 750 351
L 752 351
L 753 351
L 755 351
L 756 351
L 758 351
L 759 351
L 761 351
L 762 351
L 764 351
L 765 351
L 767 351
L 768 351
L 770 351
L 771 351
L 773 351
L 774 351
L 776 351
L 777 351
L 779 351
L 780 351
L 782 351
L 783 351
L 785 351
L 786 351
L 788 351
L 789 351
L 791 351
L 792 351
L 794 351
L 795 351
L 797 351
L 798 351
L 800 351
L 801 351
L 803 351
L 804 351
L 806 351
L 808 351
L 809 351
L 811 351
L 812 351
L 814 351
L 815 351
L 817 351
L 818 351
L 820 351
L 821 351
L 823 351
L 824 351
L 826 351
L 827 351
L 829 351
L 830 351
L 832 351
L 833 351
L 835 351
L 836 351
L 838 351
L 839 351
L 841 351
L 842 351
L 844 351
L 845 351
L 847 351
L 848 351
L 850 351
L 851 351
L 853 351
L 854 351
L 856 351
L 857 351
L 859 351
L 861 351
L 862 351
L 864 351
L 865 351
L 867 351
L 868 351
L 870 351
L 871 351
L 873 351
L 874 351
L 876 351
L 877 351
L 879 351
L 880 351
L 882 351
L 883 351
L 885 351
L 886 351
L 888 351
L 889 351
L 891 351
L 892 351
L 894 351
L 895 351
L 897 351
L 898 351
L 900 351
L 901 351
L 903 351
L 904 351
L 906 351
L 907 351
L 909 351
L 910 351
L 912 351
L 913 351
L 915 351
L 917 351
L 918 351
L 920 351
L 921 351
L 923 351
L 924 351
L 926 351
L 927 351
L 929 351
L 930 351
L 932 351
L 933 351
L 935 351
L 936 351
L 938 351
L 939 351
L 941 351
L 942 351
L 944 351
L 945 351
L 947 351
L 948 351
L 950 351
L 951 351
L 953 351
L 954 351
L 956 351
L 957 351
L 959 351
L 960 351
L 962 351
L 963 351
L 965 351
L 966 351
L 968 351
L 969 351" style="stroke-width:1;stroke:rgba(217,0,116,1.0);fill:none"/><text x="412" y="33" style="stroke-width:0;stroke:none;fill:rgba(51,51,51,1.0);font-size:23.0px;font-family:'Roboto Medium',sans-serif">Leoben 02.11.2021</text><path  d="M 38 11
L 251 11
L 251 91
L 38 91
L 38 11" style="stroke-width:1;stroke:rgba(51,51,51,1.0);fill:rgba(255,255,255,1.0)"/><text x="43" y="26" style="stroke-width:0;stroke:none;fill:rgba(51,51,51,1.0);font-size:10.2px;font-family:'Roboto Medium',sans-serif">Sieben Tage Durschnitt Inzidenz Fälle</text><path  d="M 221 21
L 241 21" style="stroke-width:1;stroke:rgba(0,116,217,1.0);fill:none"/><text x="43" y="56" style="stroke-width:0;stroke:none;fill:rgba(51,51,51,1.0);font-size:10.2px;font-family:'Roboto Medium',sans-serif">Anzahl Faelle</text><path  d="M 110 51
L 241 51" style="stroke-width:1;stroke:rgba(0,217,101,1.0);fill:none"/><text x="43" y="86" style="stroke-width:0;stroke:none;fill:rgba(51,51,51,1.0);font-size:10.2px;font-family:'Roboto Medium',sans-serif">Anzahl Tot</text><path  d="M 98 81
L 241 81" style="stroke-width:1;stroke:rgba(217,0,116,1.0);fill:none"/></svg>