<svg xmlns="http://www.w3.org/2000/svg" xmlns:xlink="http://www.w3.org/1999/xlink" width="1024" height="400">\n<path  d="M 0 0
L 1024 0
L 1024 400
L 0 400
L 0 0" style="stroke-width:0;stroke:rgba(255,255,255,1.0);fill:rgba(255,255,255,1.0)"/><path  d="M 38 11
L 969 11
L 969 351
L 38 351
L 38 11" style="stroke-width:0;stroke:rgba(255,255,255,1.0);fill:rgba(255,255,255,1.0)"/><path  d="M 38 351
L 969 351" style="stroke-width:1;stroke:rgba(51,51,51,1.0);fill:none"/><path  d="M 38 351
L 38 356" style="stroke-width:1;stroke:rgba(51,51,51,1.0);fill:none"/><text x="5" y="373" style="stroke-width:0;stroke:none;fill:rgba(51,51,51,1.0);font-size:12.8px;font-family:'Roboto Medium',sans-serif">2020-02-26</text><path  d="M 155 351
L 155 356" style="stroke-width:1;stroke:rgba(51,51,51,1.0);fill:none"/><text x="122" y="373" style="stroke-width:0;stroke:none;fill:rgba(51,51,51,1.0);font-size:12.8px;font-family:'Roboto Medium',sans-serif">2020-05-04</text><path  d="M 271 351
L 271 356" style="stroke-width:1;stroke:rgba(51,51,51,1.0);fill:none"/><text x="238" y="373" style="stroke-width:0;stroke:none;fill:rgba(51,51,51,1.0);font-size:12.8px;font-family:'Roboto Medium',sans-serif">2020-07-11</text><path  d="M 388 351
L 388 356" style="stroke-width:1;stroke:rgba(51,51,51,1.0);fill:none"/><text x="355" y="373" style="stroke-width:0;stroke:none;fill:rgba(51,51,51,1.0);font-size:12.8px;font-family:'Roboto Medium',sans-serif">2020-09-18</text><path  d="M 504 351
L 504 356" style="stroke-width:1;stroke:rgba(51,51,51,1.0);fill:none"/><text x="471" y="373" style="stroke-width:0;stroke:none;fill:rgba(51,51,51,1.0);font-size:12.8px;font-family:'Roboto Medium',sans-serif">2020-11-25</text><path  d="M 620 351
L 620 356" style="stroke-width:1;stroke:rgba(51,51,51,1.0);fill:none"/><text x="587" y="373" style="stroke-width:0;stroke:none;fill:rgba(51,51,51,1.0);font-size:12.8px;font-family:'Roboto Medium',sans-serif">2021-02-01</text><path  d="M 737 351
L 737 356" style="stroke-width:1;stroke:rgba(51,51,51,1.0);fill:none"/><text x="704" y="373" style="stroke-width:0;stroke:none;fill:rgba(51,51,51,1.0);font-size:12.8px;font-family:'Roboto Medium',sans-serif">2021-04-11</text><path  d="M 853 351
L 853 356" style="stroke-width:1;stroke:rgba(51,51,51,1.0);fill:none"/><text x="820" y="373" style="stroke-width:0;stroke:none;fill:rgba(51,51,51,1.0);font-size:12.8px;font-family:'Roboto Medium',sans-serif">2021-06-18</text><path  d="M 969 351
L 969 356" style="stroke-width:1;stroke:rgba(51,51,51,1.0);fill:none"/><text x="936" y="373" style="stroke-width:0;stroke:none;fill:rgba(51,51,51,1.0);font-size:12.8px;font-family:'Roboto Medium',sans-serif">2021-08-26</text><text x="485" y="395" style="stroke-width:0;stroke:none;fill:rgba(51,51,51,1.0);font-size:12.8px;font-family:'Roboto Medium',sans-serif">Datum</text><path  d="M 970 351
L 970 11" style="stroke-width:1;stroke:rgba(51,51,51,1.0);fill:none"/><path  d="M 970 351
L 975 351" style="stroke-width:1;stroke:rgba(51,51,51,1.0);fill:none"/><text x="980" y="357" style="stroke-width:0;stroke:none;fill:rgba(51,51,51,1.0);font-size:12.8px;font-family:'Roboto Medium',sans-serif">0.00</text><path  d="M 970 308
L 975 308" style="stroke-width:1;stroke:rgba(51,51,51,1.0);fill:none"/><text x="980" y="314" style="stroke-width:0;stroke:none;fill:rgba(51,51,51,1.0);font-size:12.8px;font-family:'Roboto Medium',sans-serif">68.00</text><path  d="M 970 266
L 975 266" style="stroke-width:1;stroke:rgba(51,51,51,1.0);fill:none"/><text x="980" y="272" style="stroke-width:0;stroke:none;fill:rgba(51,51,51,1.0);font-size:12.8px;font-family:'Roboto Medium',sans-serif">135.00</text><path  d="M 970 223
L 975 223" style="stroke-width:1;stroke:rgba(51,51,51,1.0);fill:none"/><text x="980" y="229" style="stroke-width:0;stroke:none;fill:rgba(51,51,51,1.0);font-size:12.8px;font-family:'Roboto Medium',sans-serif">203.00</text><path  d="M 970 181
L 975 181" style="stroke-width:1;stroke:rgba(51,51,51,1.0);fill:none"/><text x="980" y="187" style="stroke-width:0;stroke:none;fill:rgba(51,51,51,1.0);font-size:12.8px;font-family:'Roboto Medium',sans-serif">270.00</text><path  d="M 970 138
L 975 138" style="stroke-width:1;stroke:rgba(51,51,51,1.0);fill:none"/><text x="980" y="144" style="stroke-width:0;stroke:none;fill:rgba(51,51,51,1.0);font-size:12.8px;font-family:'Roboto Medium',sans-serif">338.00</text><path  d="M 970 96
L 975 96" style="stroke-width:1;stroke:rgba(51,51,51,1.0);fill:none"/><text x="980" y="102" style="stroke-width:0;stroke:none;fill:rgba(51,51,51,1.0);font-size:12.8px;font-family:'Roboto Medium',sans-serif">405.00</text><path  d="M 970 53
L 975 53" style="stroke-width:1;stroke:rgba(51,51,51,1.0);fill:none"/><text x="980" y="59" style="stroke-width:0;stroke:none;fill:rgba(51,51,51,1.0);font-size:12.8px;font-family:'Roboto Medium',sans-serif">473.00</text><path  d="M 970 11
L 975 11" style="stroke-width:1;stroke:rgba(51,51,51,1.0);fill:none"/><text x="980" y="17" style="stroke-width:0;stroke:none;fill:rgba(51,51,51,1.0);font-size:12.8px;font-family:'Roboto Medium',sans-serif">540.00</text><path  d="M 38 351
L 40 351
L 42 351
L 44 351
L 45 351
L 47 351
L 49 351
L 50 351
L 52 351
L 54 351
L 56 351
L 57 351
L 59 346
L 61 346
L 62 346
L 64 346
L 66 346
L 67 346
L 69 345
L 71 349
L 73 348
L 74 348
L 76 348
L 78 348
L 79 348
L 81 348
L 83 348
L 84 346
L 86 345
L 88 341
L 90 341
L 91 339
L 93 340
L 95 339
L 96 342
L 98 342
L 100 343
L 101 342
L 103 344
L 105 344
L 107 345
L 108 344
L 110 345
L 112 348
L 113 349
L 115 349
L 117 349
L 118 349
L 120 351
L 122 351
L 124 351
L 125 351
L 127 351
L 129 351
L 130 351
L 132 351
L 134 351
L 136 351
L 137 349
L 139 349
L 141 349
L 142 349
L 144 349
L 146 349
L 147 349
L 149 351
L 151 351
L 153 351
L 154 351
L 156 351
L 158 351
L 159 351
L 161 351
L 163 351
L 164 351
L 166 351
L 168 351
L 170 351
L 171 351
L 173 351
L 175 351
L 176 351
L 178 351
L 180 351
L 181 351
L 183 351
L 185 351
L 187 351
L 188 351
L 190 351
L 192 351
L 193 351
L 195 351
L 197 351
L 198 351
L 200 351
L 202 351
L 204 351
L 205 351
L 207 351
L 209 351
L 210 351
L 212 351
L 214 351
L 216 351
L 217 351
L 219 351
L 221 351
L 222 351
L 224 351
L 226 351
L 227 351
L 229 351
L 231 351
L 233 351
L 234 351
L 236 351
L 238 351
L 239 351
L 241 351
L 243 351
L 244 351
L 246 351
L 248 351
L 250 351
L 251 351
L 253 351
L 255 351
L 256 349
L 258 349
L 260 349
L 261 348
L 263 348
L 265 348
L 267 348
L 268 349
L 270 349
L 272 349
L 273 351
L 275 346
L 277 346
L 278 346
L 280 346
L 282 346
L 284 346
L 285 346
L 287 351
L 289 349
L 290 346
L 292 346
L 294 346
L 296 343
L 297 341
L 299 339
L 301 336
L 302 338
L 304 338
L 306 338
L 307 341
L 309 343
L 311 345
L 313 349
L 314 351
L 316 351
L 318 351
L 319 351
L 321 351
L 323 351
L 324 351
L 326 351
L 328 351
L 330 351
L 331 351
L 333 351
L 335 351
L 336 351
L 338 351
L 340 351
L 341 349
L 343 347
L 345 347
L 347 347
L 348 347
L 350 347
L 352 347
L 353 348
L 355 351
L 357 349
L 358 349
L 360 349
L 362 348
L 364 346
L 365 345
L 367 345
L 369 346
L 370 346
L 372 344
L 374 343
L 375 343
L 377 341
L 379 339
L 381 333
L 382 331
L 384 333
L 386 333
L 387 333
L 389 337
L 391 337
L 393 341
L 394 343
L 396 341
L 398 343
L 399 343
L 401 342
L 403 343
L 404 343
L 406 341
L 408 341
L 410 341
L 411 342
L 413 343
L 415 328
L 416 327
L 418 327
L 420 321
L 421 310
L 423 294
L 425 283
L 427 299
L 428 290
L 430 282
L 432 288
L 433 291
L 435 299
L 437 308
L 438 298
L 440 302
L 442 296
L 444 283
L 445 264
L 447 259
L 449 230
L 450 225
L 452 212
L 454 198
L 455 190
L 457 181
L 459 162
L 461 155
L 462 155
L 464 143
L 466 118
L 467 122
L 469 102
L 471 72
L 473 72
L 474 51
L 476 51
L 478 34
L 479 12
L 481 15
L 483 13
L 484 32
L 486 44
L 488 39
L 490 59
L 491 83
L 493 68
L 495 102
L 496 76
L 498 68
L 500 80
L 501 80
L 503 38
L 505 54
L 507 71
L 508 93
L 510 110
L 512 120
L 513 130
L 515 181
L 517 210
L 518 194
L 520 201
L 522 210
L 524 205
L 525 213
L 527 209
L 529 197
L 530 215
L 532 204
L 534 190
L 535 201
L 537 211
L 539 215
L 541 226
L 542 230
L 544 243
L 546 261
L 547 239
L 549 248
L 551 249
L 553 263
L 554 270
L 556 282
L 558 282
L 559 308
L 561 313
L 563 315
L 564 308
L 566 306
L 568 292
L 570 283
L 571 266
L 573 256
L 575 255
L 576 256
L 578 256
L 580 269
L 581 263
L 583 283
L 585 286
L 587 285
L 588 288
L 590 291
L 592 286
L 593 299
L 595 299
L 597 310
L 598 314
L 600 312
L 602 309
L 604 318
L 605 315
L 607 313
L 609 313
L 610 312
L 612 321
L 614 316
L 615 308
L 617 311
L 619 313
L 621 313
L 622 309
L 624 306
L 626 310
L 627 313
L 629 312
L 631 306
L 633 296
L 634 297
L 636 303
L 638 297
L 639 294
L 641 290
L 643 289
L 644 290
L 646 287
L 648 286
L 650 277
L 651 277
L 653 276
L 655 277
L 656 287
L 658 279
L 660 282
L 661 287
L 663 276
L 665 281
L 667 267
L 668 255
L 670 269
L 672 262
L 673 261
L 675 263
L 677 261
L 678 266
L 680 270
L 682 269
L 684 255
L 685 261
L 687 246
L 689 244
L 690 242
L 692 247
L 694 234
L 695 233
L 697 212
L 699 228
L 701 223
L 702 219
L 704 213
L 706 224
L 707 224
L 709 249
L 711 256
L 712 248
L 714 256
L 716 257
L 718 255
L 719 269
L 721 260
L 723 250
L 724 269
L 726 269
L 728 272
L 730 273
L 731 276
L 733 258
L 735 259
L 736 248
L 738 262
L 740 255
L 741 250
L 743 242
L 745 257
L 747 265
L 748 267
L 750 259
L 752 271
L 753 263
L 755 270
L 757 275
L 758 282
L 760 275
L 762 280
L 764 281
L 765 294
L 767 292
L 769 294
L 770 290
L 772 305
L 774 306
L 775 303
L 777 306
L 779 307
L 781 307
L 782 311
L 784 305
L 786 304
L 787 305
L 789 307
L 791 309
L 792 315
L 794 310
L 796 313
L 798 318
L 799 318
L 801 320
L 803 321
L 804 320
L 806 325
L 808 328
L 810 331
L 811 337
L 813 338
L 815 342
L 816 344
L 818 346
L 820 346
L 821 346
L 823 344
L 825 345
L 827 345
L 828 346
L 830 346
L 832 347
L 833 346
L 835 348
L 837 346
L 838 347
L 840 346
L 842 346
L 844 346
L 845 347
L 847 347
L 849 348
L 850 348
L 852 349
L 854 349
L 855 349
L 857 349
L 859 348
L 861 349
L 862 349
L 864 349
L 866 349
L 867 349
L 869 349
L 871 351
L 872 351
L 874 351
L 876 351
L 878 349
L 879 349
L 881 348
L 883 348
L 884 348
L 886 348
L 888 348
L 890 349
L 891 348
L 893 349
L 895 349
L 896 349
L 898 349
L 900 349
L 901 346
L 903 347
L 905 347
L 907 347
L 908 347
L 910 347
L 912 347
L 913 351
L 915 351
L 917 351
L 918 346
L 920 345
L 922 342
L 924 331
L 925 330
L 927 328
L 929 321
L 930 320
L 932 320
L 934 319
L 935 328
L 937 326
L 939 327
L 941 332
L 942 333
L 944 326
L 946 321
L 947 316
L 949 315
L 951 311
L 952 308
L 954 309
L 956 313
L 958 322
L 959 320
L 961 316
L 963 321
L 964 325
L 966 321
L 968 324
L 969 322" style="stroke-width:1;stroke:rgba(0,116,217,1.0);fill:none"/><path  d="M 38 351
L 40 351
L 42 351
L 44 351
L 45 351
L 47 351
L 49 351
L 50 351
L 52 351
L 54 351
L 56 351
L 57 351
L 59 348
L 61 351
L 62 351
L 64 351
L 66 351
L 67 351
L 69 350
L 71 351
L 73 350
L 74 351
L 76 351
L 78 351
L 79 351
L 81 350
L 83 351
L 84 349
L 86 350
L 88 348
L 90 351
L 91 349
L 93 351
L 95 350
L 96 351
L 98 350
L 100 349
L 101 350
L 103 351
L 105 351
L 107 351
L 108 350
L 110 351
L 112 351
L 113 351
L 115 351
L 117 351
L 118 351
L 120 351
L 122 351
L 124 351
L 125 351
L 127 351
L 129 351
L 130 351
L 132 351
L 134 351
L 136 351
L 137 350
L 139 351
L 141 351
L 142 351
L 144 351
L 146 351
L 147 351
L 149 351
L 151 351
L 153 351
L 154 351
L 156 351
L 158 351
L 159 351
L 161 351
L 163 351
L 164 351
L 166 351
L 168 351
L 170 351
L 171 351
L 173 351
L 175 351
L 176 351
L 178 351
L 180 351
L 181 351
L 183 351
L 185 351
L 187 351
L 188 351
L 190 351
L 192 351
L 193 351
L 195 351
L 197 351
L 198 351
L 200 351
L 202 351
L 204 351
L 205 351
L 207 351
L 209 351
L 210 351
L 212 351
L 214 351
L 216 351
L 217 351
L 219 351
L 221 351
L 222 351
L 224 351
L 226 351
L 227 351
L 229 351
L 231 351
L 233 351
L 234 351
L 236 351
L 238 351
L 239 351
L 241 351
L 243 351
L 244 351
L 246 351
L 248 351
L 250 351
L 251 351
L 253 351
L 255 351
L 256 350
L 258 351
L 260 351
L 261 350
L 263 351
L 265 351
L 267 351
L 268 351
L 270 351
L 272 351
L 273 351
L 275 348
L 277 351
L 278 351
L 280 351
L 282 351
L 284 351
L 285 351
L 287 351
L 289 350
L 290 349
L 292 351
L 294 351
L 296 349
L 297 349
L 299 349
L 301 348
L 302 350
L 304 351
L 306 351
L 307 351
L 309 351
L 311 351
L 313 351
L 314 351
L 316 351
L 318 351
L 319 351
L 321 351
L 323 351
L 324 351
L 326 351
L 328 351
L 330 351
L 331 351
L 333 351
L 335 351
L 336 351
L 338 351
L 340 351
L 341 350
L 343 349
L 345 351
L 347 351
L 348 351
L 350 351
L 352 351
L 353 351
L 355 351
L 357 350
L 358 351
L 360 351
L 362 350
L 364 349
L 365 350
L 367 351
L 369 351
L 370 351
L 372 349
L 374 349
L 375 349
L 377 349
L 379 349
L 381 347
L 382 349
L 384 351
L 386 349
L 387 349
L 389 351
L 391 349
L 393 350
L 394 351
L 396 349
L 398 351
L 399 349
L 401 350
L 403 350
L 404 350
L 406 349
L 408 349
L 410 351
L 411 350
L 413 351
L 415 341
L 416 349
L 418 349
L 420 345
L 421 344
L 423 340
L 425 344
L 427 351
L 428 344
L 430 345
L 432 349
L 433 346
L 435 345
L 437 349
L 438 345
L 440 345
L 442 342
L 444 341
L 445 335
L 447 342
L 449 332
L 450 342
L 452 338
L 454 334
L 455 336
L 457 330
L 459 331
L 461 328
L 462 342
L 464 331
L 466 319
L 467 338
L 469 318
L 471 313
L 473 328
L 474 330
L 476 331
L 478 309
L 479 325
L 481 320
L 483 311
L 484 339
L 486 337
L 488 328
L 490 321
L 491 339
L 493 311
L 495 332
L 496 323
L 498 332
L 500 335
L 501 321
L 503 314
L 505 321
L 507 342
L 508 337
L 510 342
L 512 340
L 513 327
L 515 344
L 517 338
L 518 332
L 520 341
L 522 347
L 524 337
L 525 332
L 527 342
L 529 331
L 530 343
L 532 334
L 534 339
L 535 344
L 537 338
L 539 344
L 541 337
L 542 345
L 544 342
L 546 350
L 547 331
L 549 344
L 551 345
L 553 345
L 554 349
L 556 349
L 558 350
L 559 346
L 561 347
L 563 346
L 564 341
L 566 348
L 568 341
L 570 345
L 571 336
L 573 340
L 575 345
L 576 342
L 578 348
L 580 349
L 581 342
L 583 348
L 585 342
L 587 345
L 588 344
L 590 350
L 592 345
L 593 350
L 595 348
L 597 348
L 598 347
L 600 342
L 602 348
L 604 351
L 605 349
L 607 347
L 609 348
L 610 347
L 612 347
L 614 345
L 615 345
L 617 351
L 619 348
L 621 348
L 622 344
L 624 345
L 626 348
L 627 347
L 629 350
L 631 344
L 633 342
L 634 345
L 636 349
L 638 345
L 639 345
L 641 347
L 643 344
L 644 343
L 646 343
L 648 348
L 650 340
L 651 345
L 653 347
L 655 344
L 656 349
L 658 339
L 660 350
L 661 342
L 663 339
L 665 350
L 667 336
L 668 341
L 670 347
L 672 346
L 673 342
L 675 340
L 677 349
L 678 339
L 680 343
L 682 346
L 684 338
L 685 345
L 687 332
L 689 347
L 690 338
L 692 346
L 694 339
L 695 337
L 697 333
L 699 341
L 701 344
L 702 335
L 704 343
L 706 345
L 707 337
L 709 348
L 711 345
L 712 340
L 714 340
L 716 344
L 718 344
L 719 345
L 721 343
L 723 339
L 724 351
L 726 340
L 728 345
L 730 344
L 731 347
L 733 332
L 735 340
L 736 344
L 738 348
L 740 341
L 741 342
L 743 342
L 745 341
L 747 345
L 748 345
L 750 343
L 752 348
L 753 337
L 755 346
L 757 344
L 758 349
L 760 341
L 762 346
L 764 349
L 765 345
L 767 345
L 769 345
L 770 347
L 772 350
L 774 347
L 775 347
L 777 347
L 779 345
L 781 345
L 782 349
L 784 346
L 786 346
L 787 347
L 789 348
L 791 347
L 792 349
L 794 346
L 796 348
L 798 349
L 799 347
L 801 349
L 803 347
L 804 349
L 806 349
L 808 350
L 810 351
L 811 351
L 813 350
L 815 350
L 816 350
L 818 351
L 820 350
L 821 351
L 823 349
L 825 351
L 827 350
L 828 351
L 830 351
L 832 351
L 833 350
L 835 351
L 837 349
L 838 351
L 840 350
L 842 351
L 844 351
L 845 351
L 847 351
L 849 350
L 850 351
L 852 351
L 854 351
L 855 351
L 857 351
L 859 350
L 861 351
L 862 351
L 864 351
L 866 351
L 867 351
L 869 351
L 871 351
L 872 351
L 874 351
L 876 351
L 878 350
L 879 351
L 881 350
L 883 351
L 884 351
L 886 351
L 888 351
L 890 351
L 891 350
L 893 351
L 895 351
L 896 351
L 898 351
L 900 351
L 901 349
L 903 351
L 905 351
L 907 351
L 908 351
L 910 351
L 912 351
L 913 351
L 915 351
L 917 351
L 918 348
L 920 350
L 922 349
L 924 344
L 925 350
L 927 349
L 929 346
L 930 347
L 932 350
L 934 348
L 935 350
L 937 349
L 939 350
L 941 349
L 942 348
L 944 345
L 946 345
L 947 347
L 949 348
L 951 347
L 952 347
L 954 349
L 956 348
L 958 350
L 959 346
L 961 346
L 963 350
L 964 350
L 966 346
L 968 350
L 969 349" style="stroke-width:1;stroke:rgba(0,217,101,1.0);fill:none"/><path  d="M 38 351
L 40 351
L 42 351
L 44 351
L 45 351
L 47 351
L 49 351
L 50 351
L 52 351
L 54 351
L 56 351
L 57 351
L 59 351
L 61 351
L 62 351
L 64 351
L 66 351
L 67 351
L 69 351
L 71 351
L 73 351
L 74 351
L 76 351
L 78 351
L 79 351
L 81 351
L 83 351
L 84 351
L 86 351
L 88 351
L 90 351
L 91 351
L 93 351
L 95 351
L 96 350
L 98 351
L 100 351
L 101 351
L 103 351
L 105 351
L 107 351
L 108 350
L 110 351
L 112 351
L 113 351
L 115 351
L 117 351
L 118 350
L 120 351
L 122 351
L 124 351
L 125 351
L 127 351
L 129 351
L 130 351
L 132 351
L 134 351
L 136 351
L 137 351
L 139 351
L 141 351
L 142 351
L 144 351
L 146 351
L 147 351
L 149 351
L 151 351
L 153 351
L 154 351
L 156 351
L 158 351
L 159 351
L 161 351
L 163 351
L 164 351
L 166 351
L 168 351
L 170 351
L 171 351
L 173 351
L 175 351
L 176 351
L 178 351
L 180 351
L 181 351
L 183 351
L 185 351
L 187 351
L 188 351
L 190 351
L 192 351
L 193 351
L 195 351
L 197 351
L 198 351
L 200 351
L 202 351
L 204 351
L 205 351
L 207 351
L 209 351
L 210 351
L 212 351
L 214 351
L 216 351
L 217 351
L 219 351
L 221 351
L 222 351
L 224 351
L 226 351
L 227 351
L 229 351
L 231 351
L 233 351
L 234 351
L 236 351
L 238 351
L 239 351
L 241 351
L 243 351
L 244 351
L 246 351
L 248 351
L 250 351
L 251 351
L 253 351
L 255 351
L 256 351
L 258 351
L 260 351
L 261 351
L 263 351
L 265 351
L 267 351
L 268 351
L 270 351
L 272 351
L 273 351
L 275 351
L 277 351
L 278 351
L 280 351
L 282 351
L 284 351
L 285 351
L 287 351
L 289 351
L 290 351
L 292 351
L 294 351
L 296 351
L 297 351
L 299 351
L 301 351
L 302 351
L 304 351
L 306 351
L 307 351
L 309 351
L 311 351
L 313 351
L 314 351
L 316 351
L 318 351
L 319 351
L 321 351
L 323 351
L 324 351
L 326 351
L 328 351
L 330 351
L 331 351
L 333 351
L 335 351
L 336 351
L 338 351
L 340 351
L 341 351
L 343 351
L 345 351
L 347 351
L 348 351
L 350 351
L 352 351
L 353 351
L 355 351
L 357 351
L 358 351
L 360 351
L 362 351
L 364 351
L 365 351
L 367 351
L 369 351
L 370 351
L 372 351
L 374 351
L 375 351
L 377 351
L 379 351
L 381 351
L 382 351
L 384 351
L 386 351
L 387 351
L 389 351
L 391 351
L 393 351
L 394 351
L 396 351
L 398 351
L 399 351
L 401 351
L 403 351
L 404 351
L 406 351
L 408 351
L 410 351
L 411 351
L 413 351
L 415 351
L 416 351
L 418 351
L 420 351
L 421 351
L 423 351
L 425 351
L 427 351
L 428 351
L 430 351
L 432 351
L 433 351
L 435 351
L 437 351
L 438 351
L 440 350
L 442 350
L 444 351
L 445 350
L 447 351
L 449 351
L 450 351
L 452 351
L 454 351
L 455 351
L 457 351
L 459 350
L 461 351
L 462 351
L 464 351
L 466 349
L 467 351
L 469 349
L 471 350
L 473 350
L 474 350
L 476 349
L 478 349
L 479 350
L 481 351
L 483 349
L 484 350
L 486 351
L 488 349
L 490 349
L 491 350
L 493 349
L 495 349
L 496 350
L 498 348
L 500 349
L 501 349
L 503 349
L 505 351
L 507 350
L 508 350
L 510 348
L 512 349
L 513 349
L 515 351
L 517 351
L 518 351
L 520 349
L 522 350
L 524 350
L 525 350
L 527 351
L 529 350
L 530 351
L 532 349
L 534 351
L 535 350
L 537 349
L 539 351
L 541 349
L 542 349
L 544 350
L 546 349
L 547 350
L 549 349
L 551 351
L 553 349
L 554 351
L 556 351
L 558 351
L 559 351
L 561 351
L 563 351
L 564 351
L 566 350
L 568 351
L 570 351
L 571 351
L 573 351
L 575 351
L 576 351
L 578 351
L 580 351
L 581 351
L 583 350
L 585 349
L 587 351
L 588 351
L 590 349
L 592 351
L 593 350
L 595 351
L 597 351
L 598 351
L 600 351
L 602 351
L 604 351
L 605 349
L 607 351
L 609 351
L 610 350
L 612 350
L 614 351
L 615 351
L 617 351
L 619 351
L 621 351
L 622 351
L 624 351
L 626 351
L 627 351
L 629 351
L 631 351
L 633 351
L 634 351
L 636 351
L 638 350
L 639 350
L 641 351
L 643 351
L 644 351
L 646 350
L 648 351
L 650 351
L 651 351
L 653 351
L 655 351
L 656 351
L 658 351
L 660 351
L 661 350
L 663 351
L 665 351
L 667 351
L 668 351
L 670 351
L 672 351
L 673 351
L 675 351
L 677 351
L 678 351
L 680 350
L 682 350
L 684 351
L 685 351
L 687 351
L 689 351
L 690 351
L 692 351
L 694 350
L 695 351
L 697 350
L 699 351
L 701 350
L 702 350
L 704 350
L 706 350
L 707 351
L 709 351
L 711 350
L 712 351
L 714 350
L 716 350
L 718 351
L 719 351
L 721 351
L 723 350
L 724 351
L 726 350
L 728 351
L 730 350
L 731 351
L 733 350
L 735 351
L 736 351
L 738 351
L 740 351
L 741 351
L 743 350
L 745 351
L 747 350
L 748 351
L 750 351
L 752 350
L 753 351
L 755 351
L 757 351
L 758 351
L 760 351
L 762 351
L 764 351
L 765 351
L 767 351
L 769 351
L 770 351
L 772 351
L 774 350
L 775 351
L 777 351
L 779 351
L 781 351
L 782 351
L 784 351
L 786 351
L 787 351
L 789 351
L 791 351
L 792 351
L 794 351
L 796 351
L 798 351
L 799 351
L 801 351
L 803 351
L 804 351
L 806 351
L 808 351
L 810 351
L 811 351
L 813 351
L 815 351
L 816 351
L 818 351
L 820 351
L 821 351
L 823 351
L 825 351
L 827 351
L 828 351
L 830 351
L 832 351
L 833 351
L 835 351
L 837 351
L 838 351
L 840 351
L 842 351
L 844 351
L 845 351
L 847 351
L 849 351
L 850 351
L 852 351
L 854 351
L 855 351
L 857 351
L 859 351
L 861 351
L 862 351
L 864 351
L 866 351
L 867 351
L 869 351
L 871 351
L 872 351
L 874 351
L 876 351
L 878 351
L 879 351
L 881 351
L 883 351
L 884 351
L 886 351
L 888 351
L 890 351
L 891 351
L 893 351
L 895 351
L 896 351
L 898 351
L 900 351
L 901 351
L 903 351
L 905 351
L 907 351
L 908 351
L 910 351
L 912 351
L 913 351
L 915 351
L 917 351
L 918 351
L 920 351
L 922 351
L 924 351
L 925 351
L 927 351
L 929 351
L 930 351
L 932 351
L 934 351
L 935 351
L 937 351
L 939 351
L 941 351
L 942 351
L 944 351
L 946 351
L 947 351
L 949 351
L 951 351
L 952 351
L 954 351
L 956 351
L 958 351
L 959 351
L 961 351
L 963 351
L 964 351
L 966 351
L 968 351
L 969 351" style="stroke-width:1;stroke:rgba(217,0,116,1.0);fill:none"/><text x="412" y="33" style="stroke-width:0;stroke:none;fill:rgba(51,51,51,1.0);font-size:23.0px;font-family:'Roboto Medium',sans-serif">Leoben 26.08.2021</text><path  d="M 38 11
L 251 11
L 251 91
L 38 91
L 38 11" style="stroke-width:1;stroke:rgba(51,51,51,1.0);fill:rgba(255,255,255,1.0)"/><text x="43" y="26" style="stroke-width:0;stroke:none;fill:rgba(51,51,51,1.0);font-size:10.2px;font-family:'Roboto Medium',sans-serif">Sieben Tage Durschnitt Inzidenz Fälle</text><path  d="M 221 21
L 241 21" style="stroke-width:1;stroke:rgba(0,116,217,1.0);fill:none"/><text x="43" y="56" style="stroke-width:0;stroke:none;fill:rgba(51,51,51,1.0);font-size:10.2px;font-family:'Roboto Medium',sans-serif">Anzahl Faelle</text><path  d="M 110 51
L 241 51" style="stroke-width:1;stroke:rgba(0,217,101,1.0);fill:none"/><text x="43" y="86" style="stroke-width:0;stroke:none;fill:rgba(51,51,51,1.0);font-size:10.2px;font-family:'Roboto Medium',sans-serif">Anzahl Tot</text><path  d="M 98 81
L 241 81" style="stroke-width:1;stroke:rgba(217,0,116,1.0);fill:none"/></svg>