<svg xmlns="http://www.w3.org/2000/svg" xmlns:xlink="http://www.w3.org/1999/xlink" width="1024" height="400">\n<path  d="M 0 0
L 1024 0
L 1024 400
L 0 400
L 0 0" style="stroke-width:0;stroke:rgba(255,255,255,1.0);fill:rgba(255,255,255,1.0)"/><path  d="M 38 11
L 969 11
L 969 351
L 38 351
L 38 11" style="stroke-width:0;stroke:rgba(255,255,255,1.0);fill:rgba(255,255,255,1.0)"/><path  d="M 38 351
L 969 351" style="stroke-width:1;stroke:rgba(51,51,51,1.0);fill:none"/><path  d="M 38 351
L 38 356" style="stroke-width:1;stroke:rgba(51,51,51,1.0);fill:none"/><text x="5" y="373" style="stroke-width:0;stroke:none;fill:rgba(51,51,51,1.0);font-size:12.8px;font-family:'Roboto Medium',sans-serif">2020-02-26</text><path  d="M 155 351
L 155 356" style="stroke-width:1;stroke:rgba(51,51,51,1.0);fill:none"/><text x="122" y="373" style="stroke-width:0;stroke:none;fill:rgba(51,51,51,1.0);font-size:12.8px;font-family:'Roboto Medium',sans-serif">2020-04-16</text><path  d="M 271 351
L 271 356" style="stroke-width:1;stroke:rgba(51,51,51,1.0);fill:none"/><text x="238" y="373" style="stroke-width:0;stroke:none;fill:rgba(51,51,51,1.0);font-size:12.8px;font-family:'Roboto Medium',sans-serif">2020-06-06</text><path  d="M 388 351
L 388 356" style="stroke-width:1;stroke:rgba(51,51,51,1.0);fill:none"/><text x="355" y="373" style="stroke-width:0;stroke:none;fill:rgba(51,51,51,1.0);font-size:12.8px;font-family:'Roboto Medium',sans-serif">2020-07-26</text><path  d="M 504 351
L 504 356" style="stroke-width:1;stroke:rgba(51,51,51,1.0);fill:none"/><text x="471" y="373" style="stroke-width:0;stroke:none;fill:rgba(51,51,51,1.0);font-size:12.8px;font-family:'Roboto Medium',sans-serif">2020-09-15</text><path  d="M 620 351
L 620 356" style="stroke-width:1;stroke:rgba(51,51,51,1.0);fill:none"/><text x="587" y="373" style="stroke-width:0;stroke:none;fill:rgba(51,51,51,1.0);font-size:12.8px;font-family:'Roboto Medium',sans-serif">2020-11-05</text><path  d="M 737 351
L 737 356" style="stroke-width:1;stroke:rgba(51,51,51,1.0);fill:none"/><text x="704" y="373" style="stroke-width:0;stroke:none;fill:rgba(51,51,51,1.0);font-size:12.8px;font-family:'Roboto Medium',sans-serif">2020-12-25</text><path  d="M 853 351
L 853 356" style="stroke-width:1;stroke:rgba(51,51,51,1.0);fill:none"/><text x="820" y="373" style="stroke-width:0;stroke:none;fill:rgba(51,51,51,1.0);font-size:12.8px;font-family:'Roboto Medium',sans-serif">2021-02-14</text><path  d="M 969 351
L 969 356" style="stroke-width:1;stroke:rgba(51,51,51,1.0);fill:none"/><text x="936" y="373" style="stroke-width:0;stroke:none;fill:rgba(51,51,51,1.0);font-size:12.8px;font-family:'Roboto Medium',sans-serif">2021-04-06</text><text x="485" y="395" style="stroke-width:0;stroke:none;fill:rgba(51,51,51,1.0);font-size:12.8px;font-family:'Roboto Medium',sans-serif">Datum</text><path  d="M 970 351
L 970 11" style="stroke-width:1;stroke:rgba(51,51,51,1.0);fill:none"/><path  d="M 970 351
L 975 351" style="stroke-width:1;stroke:rgba(51,51,51,1.0);fill:none"/><text x="980" y="357" style="stroke-width:0;stroke:none;fill:rgba(51,51,51,1.0);font-size:12.8px;font-family:'Roboto Medium',sans-serif">0.00</text><path  d="M 970 308
L 975 308" style="stroke-width:1;stroke:rgba(51,51,51,1.0);fill:none"/><text x="980" y="314" style="stroke-width:0;stroke:none;fill:rgba(51,51,51,1.0);font-size:12.8px;font-family:'Roboto Medium',sans-serif">68.00</text><path  d="M 970 266
L 975 266" style="stroke-width:1;stroke:rgba(51,51,51,1.0);fill:none"/><text x="980" y="272" style="stroke-width:0;stroke:none;fill:rgba(51,51,51,1.0);font-size:12.8px;font-family:'Roboto Medium',sans-serif">135.00</text><path  d="M 970 223
L 975 223" style="stroke-width:1;stroke:rgba(51,51,51,1.0);fill:none"/><text x="980" y="229" style="stroke-width:0;stroke:none;fill:rgba(51,51,51,1.0);font-size:12.8px;font-family:'Roboto Medium',sans-serif">203.00</text><path  d="M 970 181
L 975 181" style="stroke-width:1;stroke:rgba(51,51,51,1.0);fill:none"/><text x="980" y="187" style="stroke-width:0;stroke:none;fill:rgba(51,51,51,1.0);font-size:12.8px;font-family:'Roboto Medium',sans-serif">270.00</text><path  d="M 970 138
L 975 138" style="stroke-width:1;stroke:rgba(51,51,51,1.0);fill:none"/><text x="980" y="144" style="stroke-width:0;stroke:none;fill:rgba(51,51,51,1.0);font-size:12.8px;font-family:'Roboto Medium',sans-serif">338.00</text><path  d="M 970 96
L 975 96" style="stroke-width:1;stroke:rgba(51,51,51,1.0);fill:none"/><text x="980" y="102" style="stroke-width:0;stroke:none;fill:rgba(51,51,51,1.0);font-size:12.8px;font-family:'Roboto Medium',sans-serif">405.00</text><path  d="M 970 53
L 975 53" style="stroke-width:1;stroke:rgba(51,51,51,1.0);fill:none"/><text x="980" y="59" style="stroke-width:0;stroke:none;fill:rgba(51,51,51,1.0);font-size:12.8px;font-family:'Roboto Medium',sans-serif">473.00</text><path  d="M 970 11
L 975 11" style="stroke-width:1;stroke:rgba(51,51,51,1.0);fill:none"/><text x="980" y="17" style="stroke-width:0;stroke:none;fill:rgba(51,51,51,1.0);font-size:12.8px;font-family:'Roboto Medium',sans-serif">540.00</text><path  d="M 38 351
L 41 351
L 43 351
L 45 351
L 48 351
L 50 351
L 52 351
L 55 351
L 57 351
L 59 351
L 61 351
L 64 351
L 66 346
L 68 346
L 71 346
L 73 346
L 75 346
L 78 346
L 80 345
L 82 349
L 84 348
L 87 348
L 89 348
L 91 348
L 94 348
L 96 348
L 98 348
L 101 346
L 103 345
L 105 341
L 107 341
L 110 339
L 112 340
L 114 339
L 117 342
L 119 342
L 121 343
L 124 342
L 126 344
L 128 344
L 130 345
L 133 344
L 135 345
L 137 348
L 140 349
L 142 349
L 144 349
L 147 349
L 149 351
L 151 351
L 153 351
L 156 351
L 158 351
L 160 351
L 163 351
L 165 351
L 167 351
L 170 351
L 172 349
L 174 349
L 176 349
L 179 349
L 181 349
L 183 349
L 186 349
L 188 351
L 190 351
L 193 351
L 195 351
L 197 351
L 199 351
L 202 351
L 204 351
L 206 351
L 209 351
L 211 351
L 213 351
L 216 351
L 218 351
L 220 351
L 222 351
L 225 351
L 227 351
L 229 351
L 232 351
L 234 351
L 236 351
L 238 351
L 241 351
L 243 351
L 245 351
L 248 351
L 250 351
L 252 351
L 255 351
L 257 351
L 259 351
L 261 351
L 264 351
L 266 351
L 268 351
L 271 351
L 273 351
L 275 351
L 278 351
L 280 351
L 282 351
L 284 351
L 287 351
L 289 351
L 291 351
L 294 351
L 296 351
L 298 351
L 301 351
L 303 351
L 305 351
L 307 351
L 310 351
L 312 351
L 314 351
L 317 351
L 319 351
L 321 351
L 324 351
L 326 351
L 328 351
L 330 351
L 333 349
L 335 349
L 337 349
L 340 348
L 342 348
L 344 348
L 347 348
L 349 349
L 351 349
L 353 349
L 356 351
L 358 346
L 360 346
L 363 346
L 365 346
L 367 346
L 370 346
L 372 346
L 374 351
L 376 349
L 379 346
L 381 346
L 383 346
L 386 343
L 388 341
L 390 339
L 393 336
L 395 338
L 397 338
L 399 338
L 402 341
L 404 343
L 406 345
L 409 349
L 411 351
L 413 351
L 415 351
L 418 351
L 420 351
L 422 351
L 425 351
L 427 351
L 429 351
L 432 351
L 434 351
L 436 351
L 438 351
L 441 351
L 443 351
L 445 351
L 448 349
L 450 347
L 452 347
L 455 347
L 457 347
L 459 347
L 461 347
L 464 348
L 466 351
L 468 349
L 471 349
L 473 349
L 475 348
L 478 346
L 480 345
L 482 345
L 484 346
L 487 346
L 489 344
L 491 343
L 494 343
L 496 341
L 498 339
L 501 334
L 503 332
L 505 334
L 507 334
L 510 334
L 512 337
L 514 337
L 517 341
L 519 343
L 521 341
L 524 343
L 526 343
L 528 342
L 530 343
L 533 343
L 535 341
L 537 341
L 540 341
L 542 342
L 544 343
L 547 328
L 549 327
L 551 327
L 553 321
L 556 310
L 558 295
L 560 284
L 563 300
L 565 290
L 567 283
L 570 288
L 572 291
L 574 300
L 576 308
L 579 299
L 581 302
L 583 297
L 586 284
L 588 265
L 590 260
L 593 231
L 595 226
L 597 213
L 599 200
L 602 191
L 604 183
L 606 164
L 609 156
L 611 156
L 613 145
L 615 121
L 618 124
L 620 105
L 622 74
L 625 74
L 627 54
L 629 54
L 632 37
L 634 15
L 636 17
L 638 16
L 641 35
L 643 47
L 645 40
L 648 60
L 650 85
L 652 71
L 655 104
L 657 77
L 659 70
L 661 82
L 664 82
L 666 39
L 668 54
L 671 71
L 673 93
L 675 110
L 678 121
L 680 131
L 682 182
L 684 211
L 687 195
L 689 203
L 691 211
L 694 206
L 696 214
L 698 210
L 701 199
L 703 217
L 705 205
L 707 191
L 710 203
L 712 212
L 714 217
L 717 227
L 719 231
L 721 244
L 724 262
L 726 240
L 728 250
L 730 251
L 733 265
L 735 271
L 737 284
L 740 284
L 742 309
L 744 314
L 747 317
L 749 309
L 751 307
L 753 294
L 756 285
L 758 268
L 760 258
L 763 256
L 765 257
L 767 257
L 770 269
L 772 264
L 774 284
L 776 286
L 779 285
L 781 288
L 783 291
L 786 286
L 788 300
L 790 300
L 792 310
L 795 314
L 797 311
L 799 308
L 802 317
L 804 315
L 806 313
L 809 313
L 811 313
L 813 321
L 815 317
L 818 308
L 820 311
L 822 314
L 825 314
L 827 309
L 829 306
L 832 310
L 834 314
L 836 313
L 838 306
L 841 297
L 843 298
L 845 303
L 848 298
L 850 295
L 852 290
L 855 289
L 857 290
L 859 288
L 861 287
L 864 279
L 866 279
L 868 278
L 871 279
L 873 288
L 875 281
L 878 284
L 880 288
L 882 278
L 884 283
L 887 269
L 889 257
L 891 269
L 894 263
L 896 262
L 898 264
L 901 262
L 903 267
L 905 270
L 907 269
L 910 256
L 912 262
L 914 248
L 917 245
L 919 244
L 921 249
L 924 237
L 926 236
L 928 214
L 930 229
L 933 224
L 935 219
L 937 213
L 940 224
L 942 223
L 944 248
L 947 255
L 949 248
L 951 256
L 953 257
L 956 255
L 958 269
L 960 260
L 963 249
L 965 267
L 967 268
L 969 271" style="stroke-width:1;stroke:rgba(0,116,217,1.0);fill:none"/><path  d="M 38 351
L 41 351
L 43 351
L 45 351
L 48 351
L 50 351
L 52 351
L 55 351
L 57 351
L 59 351
L 61 351
L 64 351
L 66 348
L 68 351
L 71 351
L 73 351
L 75 351
L 78 351
L 80 350
L 82 351
L 84 350
L 87 351
L 89 351
L 91 351
L 94 351
L 96 350
L 98 351
L 101 349
L 103 350
L 105 348
L 107 351
L 110 349
L 112 351
L 114 350
L 117 351
L 119 350
L 121 349
L 124 350
L 126 351
L 128 351
L 130 351
L 133 350
L 135 351
L 137 351
L 140 351
L 142 351
L 144 351
L 147 351
L 149 351
L 151 351
L 153 351
L 156 351
L 158 351
L 160 351
L 163 351
L 165 351
L 167 351
L 170 351
L 172 350
L 174 351
L 176 351
L 179 351
L 181 351
L 183 351
L 186 351
L 188 351
L 190 351
L 193 351
L 195 351
L 197 351
L 199 351
L 202 351
L 204 351
L 206 351
L 209 351
L 211 351
L 213 351
L 216 351
L 218 351
L 220 351
L 222 351
L 225 351
L 227 351
L 229 351
L 232 351
L 234 351
L 236 351
L 238 351
L 241 351
L 243 351
L 245 351
L 248 351
L 250 351
L 252 351
L 255 351
L 257 351
L 259 351
L 261 351
L 264 351
L 266 351
L 268 351
L 271 351
L 273 351
L 275 351
L 278 351
L 280 351
L 282 351
L 284 351
L 287 351
L 289 351
L 291 351
L 294 351
L 296 351
L 298 351
L 301 351
L 303 351
L 305 351
L 307 351
L 310 351
L 312 351
L 314 351
L 317 351
L 319 351
L 321 351
L 324 351
L 326 351
L 328 351
L 330 351
L 333 350
L 335 351
L 337 351
L 340 350
L 342 351
L 344 351
L 347 351
L 349 351
L 351 351
L 353 351
L 356 351
L 358 348
L 360 351
L 363 351
L 365 351
L 367 351
L 370 351
L 372 351
L 374 351
L 376 350
L 379 349
L 381 351
L 383 351
L 386 349
L 388 349
L 390 349
L 393 348
L 395 350
L 397 351
L 399 351
L 402 351
L 404 351
L 406 351
L 409 351
L 411 351
L 413 351
L 415 351
L 418 351
L 420 351
L 422 351
L 425 351
L 427 351
L 429 351
L 432 351
L 434 351
L 436 351
L 438 351
L 441 351
L 443 351
L 445 351
L 448 350
L 450 349
L 452 351
L 455 351
L 457 351
L 459 351
L 461 351
L 464 351
L 466 351
L 468 350
L 471 351
L 473 351
L 475 350
L 478 349
L 480 350
L 482 351
L 484 351
L 487 351
L 489 349
L 491 349
L 494 349
L 496 349
L 498 349
L 501 347
L 503 349
L 505 351
L 507 349
L 510 349
L 512 351
L 514 349
L 517 350
L 519 351
L 521 349
L 524 351
L 526 349
L 528 350
L 530 350
L 533 350
L 535 349
L 537 349
L 540 351
L 542 350
L 544 351
L 547 341
L 549 349
L 551 349
L 553 345
L 556 344
L 558 340
L 560 344
L 563 351
L 565 344
L 567 345
L 570 349
L 572 346
L 574 345
L 576 349
L 579 345
L 581 345
L 583 342
L 586 341
L 588 335
L 590 342
L 593 332
L 595 342
L 597 338
L 599 334
L 602 336
L 604 330
L 606 331
L 609 328
L 611 342
L 613 331
L 615 319
L 618 338
L 620 318
L 622 313
L 625 328
L 627 330
L 629 331
L 632 309
L 634 325
L 636 320
L 638 312
L 641 339
L 643 337
L 645 327
L 648 321
L 650 339
L 652 311
L 655 332
L 657 323
L 659 332
L 661 334
L 664 321
L 666 314
L 668 320
L 671 342
L 673 337
L 675 342
L 678 340
L 680 327
L 682 344
L 684 338
L 687 332
L 689 341
L 691 347
L 694 337
L 696 332
L 698 342
L 701 331
L 703 343
L 705 334
L 707 339
L 710 344
L 712 338
L 714 344
L 717 337
L 719 345
L 721 342
L 724 350
L 726 331
L 728 344
L 730 345
L 733 345
L 735 349
L 737 349
L 740 350
L 742 346
L 744 347
L 747 347
L 749 341
L 751 348
L 753 341
L 756 345
L 758 336
L 760 340
L 763 345
L 765 342
L 767 348
L 770 349
L 772 342
L 774 348
L 776 342
L 779 345
L 781 344
L 783 350
L 786 345
L 788 350
L 790 348
L 792 348
L 795 347
L 797 342
L 799 348
L 802 351
L 804 349
L 806 347
L 809 348
L 811 347
L 813 347
L 815 345
L 818 345
L 820 351
L 822 348
L 825 348
L 827 344
L 829 345
L 832 348
L 834 347
L 836 350
L 838 344
L 841 342
L 843 345
L 845 349
L 848 345
L 850 345
L 852 347
L 855 344
L 857 343
L 859 344
L 861 348
L 864 340
L 866 345
L 868 347
L 871 344
L 873 349
L 875 339
L 878 350
L 880 342
L 882 339
L 884 350
L 887 336
L 889 341
L 891 347
L 894 346
L 896 342
L 898 340
L 901 349
L 903 339
L 905 343
L 907 346
L 910 338
L 912 345
L 914 332
L 917 347
L 919 339
L 921 346
L 924 339
L 926 337
L 928 333
L 930 341
L 933 344
L 935 335
L 937 343
L 940 345
L 942 337
L 944 348
L 947 345
L 949 340
L 951 340
L 953 344
L 956 344
L 958 345
L 960 342
L 963 339
L 965 351
L 967 340
L 969 345" style="stroke-width:1;stroke:rgba(0,217,101,1.0);fill:none"/><path  d="M 38 351
L 41 351
L 43 351
L 45 351
L 48 351
L 50 351
L 52 351
L 55 351
L 57 351
L 59 351
L 61 351
L 64 351
L 66 351
L 68 351
L 71 351
L 73 351
L 75 351
L 78 351
L 80 351
L 82 351
L 84 351
L 87 351
L 89 351
L 91 351
L 94 351
L 96 351
L 98 351
L 101 351
L 103 351
L 105 351
L 107 351
L 110 351
L 112 351
L 114 351
L 117 350
L 119 351
L 121 351
L 124 351
L 126 351
L 128 351
L 130 351
L 133 350
L 135 351
L 137 351
L 140 351
L 142 351
L 144 351
L 147 350
L 149 351
L 151 351
L 153 351
L 156 351
L 158 351
L 160 351
L 163 351
L 165 351
L 167 351
L 170 351
L 172 351
L 174 351
L 176 351
L 179 351
L 181 351
L 183 351
L 186 351
L 188 351
L 190 351
L 193 351
L 195 351
L 197 351
L 199 351
L 202 351
L 204 351
L 206 351
L 209 351
L 211 351
L 213 351
L 216 351
L 218 351
L 220 351
L 222 351
L 225 351
L 227 351
L 229 351
L 232 351
L 234 351
L 236 351
L 238 351
L 241 351
L 243 351
L 245 351
L 248 351
L 250 351
L 252 351
L 255 351
L 257 351
L 259 351
L 261 351
L 264 351
L 266 351
L 268 351
L 271 351
L 273 351
L 275 351
L 278 351
L 280 351
L 282 351
L 284 351
L 287 351
L 289 351
L 291 351
L 294 351
L 296 351
L 298 351
L 301 351
L 303 351
L 305 351
L 307 351
L 310 351
L 312 351
L 314 351
L 317 351
L 319 351
L 321 351
L 324 351
L 326 351
L 328 351
L 330 351
L 333 351
L 335 351
L 337 351
L 340 351
L 342 351
L 344 351
L 347 351
L 349 351
L 351 351
L 353 351
L 356 351
L 358 351
L 360 351
L 363 351
L 365 351
L 367 351
L 370 351
L 372 351
L 374 351
L 376 351
L 379 351
L 381 351
L 383 351
L 386 351
L 388 351
L 390 351
L 393 351
L 395 351
L 397 351
L 399 351
L 402 351
L 404 351
L 406 351
L 409 351
L 411 351
L 413 351
L 415 351
L 418 351
L 420 351
L 422 351
L 425 351
L 427 351
L 429 351
L 432 351
L 434 351
L 436 351
L 438 351
L 441 351
L 443 351
L 445 351
L 448 351
L 450 351
L 452 351
L 455 351
L 457 351
L 459 351
L 461 351
L 464 351
L 466 351
L 468 351
L 471 351
L 473 351
L 475 351
L 478 351
L 480 351
L 482 351
L 484 351
L 487 351
L 489 351
L 491 351
L 494 351
L 496 351
L 498 351
L 501 351
L 503 351
L 505 351
L 507 351
L 510 351
L 512 351
L 514 351
L 517 351
L 519 351
L 521 351
L 524 351
L 526 351
L 528 351
L 530 351
L 533 351
L 535 351
L 537 351
L 540 351
L 542 351
L 544 351
L 547 351
L 549 351
L 551 351
L 553 351
L 556 351
L 558 351
L 560 351
L 563 351
L 565 351
L 567 351
L 570 351
L 572 351
L 574 351
L 576 351
L 579 351
L 581 350
L 583 350
L 586 351
L 588 350
L 590 351
L 593 351
L 595 351
L 597 351
L 599 351
L 602 351
L 604 351
L 606 350
L 609 351
L 611 351
L 613 351
L 615 349
L 618 351
L 620 349
L 622 350
L 625 350
L 627 350
L 629 349
L 632 349
L 634 350
L 636 351
L 638 349
L 641 350
L 643 351
L 645 349
L 648 349
L 650 350
L 652 349
L 655 349
L 657 350
L 659 348
L 661 349
L 664 349
L 666 349
L 668 351
L 671 350
L 673 350
L 675 348
L 678 349
L 680 349
L 682 351
L 684 351
L 687 351
L 689 350
L 691 350
L 694 351
L 696 350
L 698 351
L 701 350
L 703 351
L 705 349
L 707 351
L 710 350
L 712 349
L 714 351
L 717 349
L 719 349
L 721 350
L 724 349
L 726 350
L 728 349
L 730 351
L 733 349
L 735 351
L 737 351
L 740 351
L 742 351
L 744 351
L 747 351
L 749 351
L 751 350
L 753 351
L 756 351
L 758 351
L 760 351
L 763 351
L 765 351
L 767 351
L 770 351
L 772 351
L 774 350
L 776 349
L 779 351
L 781 351
L 783 349
L 786 351
L 788 350
L 790 351
L 792 351
L 795 351
L 797 351
L 799 351
L 802 351
L 804 350
L 806 351
L 809 351
L 811 350
L 813 350
L 815 351
L 818 351
L 820 351
L 822 351
L 825 351
L 827 351
L 829 351
L 832 351
L 834 351
L 836 351
L 838 351
L 841 351
L 843 351
L 845 351
L 848 350
L 850 350
L 852 351
L 855 351
L 857 351
L 859 350
L 861 351
L 864 351
L 866 351
L 868 351
L 871 351
L 873 351
L 875 351
L 878 351
L 880 350
L 882 351
L 884 351
L 887 351
L 889 351
L 891 351
L 894 351
L 896 351
L 898 351
L 901 351
L 903 351
L 905 350
L 907 350
L 910 351
L 912 351
L 914 351
L 917 351
L 919 351
L 921 351
L 924 350
L 926 351
L 928 350
L 930 351
L 933 350
L 935 350
L 937 350
L 940 350
L 942 351
L 944 351
L 947 350
L 949 351
L 951 350
L 953 350
L 956 351
L 958 351
L 960 351
L 963 350
L 965 351
L 967 351
L 969 351" style="stroke-width:1;stroke:rgba(217,0,116,1.0);fill:none"/><text x="412" y="33" style="stroke-width:0;stroke:none;fill:rgba(51,51,51,1.0);font-size:23.0px;font-family:'Roboto Medium',sans-serif">Leoben 06.04.2021</text><path  d="M 38 11
L 251 11
L 251 91
L 38 91
L 38 11" style="stroke-width:1;stroke:rgba(51,51,51,1.0);fill:rgba(255,255,255,1.0)"/><text x="43" y="26" style="stroke-width:0;stroke:none;fill:rgba(51,51,51,1.0);font-size:10.2px;font-family:'Roboto Medium',sans-serif">Sieben Tage Durschnitt Inzidenz Fälle</text><path  d="M 221 21
L 241 21" style="stroke-width:1;stroke:rgba(0,116,217,1.0);fill:none"/><text x="43" y="56" style="stroke-width:0;stroke:none;fill:rgba(51,51,51,1.0);font-size:10.2px;font-family:'Roboto Medium',sans-serif">Anzahl Faelle</text><path  d="M 110 51
L 241 51" style="stroke-width:1;stroke:rgba(0,217,101,1.0);fill:none"/><text x="43" y="86" style="stroke-width:0;stroke:none;fill:rgba(51,51,51,1.0);font-size:10.2px;font-family:'Roboto Medium',sans-serif">Anzahl Tot</text><path  d="M 98 81
L 241 81" style="stroke-width:1;stroke:rgba(217,0,116,1.0);fill:none"/></svg>