<svg xmlns="http://www.w3.org/2000/svg" xmlns:xlink="http://www.w3.org/1999/xlink" width="1024" height="400">\n<path  d="M 0 0
L 1024 0
L 1024 400
L 0 400
L 0 0" style="stroke-width:0;stroke:rgba(255,255,255,1.0);fill:rgba(255,255,255,1.0)"/><path  d="M 38 11
L 961 11
L 961 351
L 38 351
L 38 11" style="stroke-width:0;stroke:rgba(255,255,255,1.0);fill:rgba(255,255,255,1.0)"/><path  d="M 38 351
L 961 351" style="stroke-width:1;stroke:rgba(51,51,51,1.0);fill:none"/><path  d="M 38 351
L 38 356" style="stroke-width:1;stroke:rgba(51,51,51,1.0);fill:none"/><text x="5" y="373" style="stroke-width:0;stroke:none;fill:rgba(51,51,51,1.0);font-size:12.8px;font-family:'Roboto Medium',sans-serif">2020-02-26</text><path  d="M 154 351
L 154 356" style="stroke-width:1;stroke:rgba(51,51,51,1.0);fill:none"/><text x="121" y="373" style="stroke-width:0;stroke:none;fill:rgba(51,51,51,1.0);font-size:12.8px;font-family:'Roboto Medium',sans-serif">2020-07-03</text><path  d="M 269 351
L 269 356" style="stroke-width:1;stroke:rgba(51,51,51,1.0);fill:none"/><text x="236" y="373" style="stroke-width:0;stroke:none;fill:rgba(51,51,51,1.0);font-size:12.8px;font-family:'Roboto Medium',sans-serif">2020-11-09</text><path  d="M 385 351
L 385 356" style="stroke-width:1;stroke:rgba(51,51,51,1.0);fill:none"/><text x="352" y="373" style="stroke-width:0;stroke:none;fill:rgba(51,51,51,1.0);font-size:12.8px;font-family:'Roboto Medium',sans-serif">2021-03-18</text><path  d="M 500 351
L 500 356" style="stroke-width:1;stroke:rgba(51,51,51,1.0);fill:none"/><text x="467" y="373" style="stroke-width:0;stroke:none;fill:rgba(51,51,51,1.0);font-size:12.8px;font-family:'Roboto Medium',sans-serif">2021-07-25</text><path  d="M 615 351
L 615 356" style="stroke-width:1;stroke:rgba(51,51,51,1.0);fill:none"/><text x="582" y="373" style="stroke-width:0;stroke:none;fill:rgba(51,51,51,1.0);font-size:12.8px;font-family:'Roboto Medium',sans-serif">2021-12-01</text><path  d="M 731 351
L 731 356" style="stroke-width:1;stroke:rgba(51,51,51,1.0);fill:none"/><text x="698" y="373" style="stroke-width:0;stroke:none;fill:rgba(51,51,51,1.0);font-size:12.8px;font-family:'Roboto Medium',sans-serif">2022-04-09</text><path  d="M 846 351
L 846 356" style="stroke-width:1;stroke:rgba(51,51,51,1.0);fill:none"/><text x="813" y="373" style="stroke-width:0;stroke:none;fill:rgba(51,51,51,1.0);font-size:12.8px;font-family:'Roboto Medium',sans-serif">2022-08-16</text><path  d="M 961 351
L 961 356" style="stroke-width:1;stroke:rgba(51,51,51,1.0);fill:none"/><text x="928" y="373" style="stroke-width:0;stroke:none;fill:rgba(51,51,51,1.0);font-size:12.8px;font-family:'Roboto Medium',sans-serif">2022-12-23</text><text x="481" y="395" style="stroke-width:0;stroke:none;fill:rgba(51,51,51,1.0);font-size:12.8px;font-family:'Roboto Medium',sans-serif">Datum</text><path  d="M 962 351
L 962 11" style="stroke-width:1;stroke:rgba(51,51,51,1.0);fill:none"/><path  d="M 962 351
L 967 351" style="stroke-width:1;stroke:rgba(51,51,51,1.0);fill:none"/><text x="972" y="357" style="stroke-width:0;stroke:none;fill:rgba(51,51,51,1.0);font-size:12.8px;font-family:'Roboto Medium',sans-serif">0.00</text><path  d="M 962 307
L 967 307" style="stroke-width:1;stroke:rgba(51,51,51,1.0);fill:none"/><text x="972" y="313" style="stroke-width:0;stroke:none;fill:rgba(51,51,51,1.0);font-size:12.8px;font-family:'Roboto Medium',sans-serif">520.00</text><path  d="M 962 265
L 967 265" style="stroke-width:1;stroke:rgba(51,51,51,1.0);fill:none"/><text x="972" y="271" style="stroke-width:0;stroke:none;fill:rgba(51,51,51,1.0);font-size:12.8px;font-family:'Roboto Medium',sans-serif">1030.00</text><path  d="M 962 223
L 967 223" style="stroke-width:1;stroke:rgba(51,51,51,1.0);fill:none"/><text x="972" y="229" style="stroke-width:0;stroke:none;fill:rgba(51,51,51,1.0);font-size:12.8px;font-family:'Roboto Medium',sans-serif">1540.00</text><path  d="M 962 181
L 967 181" style="stroke-width:1;stroke:rgba(51,51,51,1.0);fill:none"/><text x="972" y="187" style="stroke-width:0;stroke:none;fill:rgba(51,51,51,1.0);font-size:12.8px;font-family:'Roboto Medium',sans-serif">2050.00</text><path  d="M 962 137
L 967 137" style="stroke-width:1;stroke:rgba(51,51,51,1.0);fill:none"/><text x="972" y="143" style="stroke-width:0;stroke:none;fill:rgba(51,51,51,1.0);font-size:12.8px;font-family:'Roboto Medium',sans-serif">2570.00</text><path  d="M 962 95
L 967 95" style="stroke-width:1;stroke:rgba(51,51,51,1.0);fill:none"/><text x="972" y="101" style="stroke-width:0;stroke:none;fill:rgba(51,51,51,1.0);font-size:12.8px;font-family:'Roboto Medium',sans-serif">3080.00</text><path  d="M 962 53
L 967 53" style="stroke-width:1;stroke:rgba(51,51,51,1.0);fill:none"/><text x="972" y="59" style="stroke-width:0;stroke:none;fill:rgba(51,51,51,1.0);font-size:12.8px;font-family:'Roboto Medium',sans-serif">3590.00</text><path  d="M 962 11
L 967 11" style="stroke-width:1;stroke:rgba(51,51,51,1.0);fill:none"/><text x="972" y="17" style="stroke-width:0;stroke:none;fill:rgba(51,51,51,1.0);font-size:12.8px;font-family:'Roboto Medium',sans-serif">4100.00</text><path  d="M 38 351
L 39 351
L 40 351
L 41 351
L 42 351
L 43 351
L 44 351
L 45 351
L 46 351
L 47 351
L 47 351
L 48 351
L 49 350
L 50 350
L 51 350
L 52 350
L 53 350
L 54 350
L 55 350
L 56 350
L 56 350
L 57 350
L 58 350
L 59 350
L 60 350
L 61 351
L 62 351
L 63 350
L 64 350
L 64 349
L 65 349
L 66 349
L 67 349
L 68 349
L 69 349
L 70 349
L 71 350
L 72 349
L 73 350
L 73 350
L 74 350
L 75 350
L 76 350
L 77 350
L 78 350
L 79 350
L 80 350
L 81 350
L 81 351
L 82 351
L 83 351
L 84 351
L 85 351
L 86 351
L 87 351
L 88 351
L 89 351
L 90 351
L 90 350
L 91 350
L 92 350
L 93 350
L 94 350
L 95 350
L 96 350
L 97 351
L 98 351
L 98 351
L 99 351
L 100 351
L 101 351
L 102 351
L 103 351
L 104 351
L 105 351
L 106 351
L 107 351
L 107 351
L 108 351
L 109 351
L 110 351
L 111 351
L 112 351
L 113 351
L 114 351
L 115 351
L 115 351
L 116 351
L 117 351
L 118 351
L 119 351
L 120 351
L 121 351
L 122 351
L 123 351
L 124 351
L 124 351
L 125 351
L 126 351
L 127 351
L 128 351
L 129 351
L 130 351
L 131 351
L 132 351
L 133 351
L 133 351
L 134 351
L 135 351
L 136 351
L 137 351
L 138 351
L 139 351
L 140 351
L 141 351
L 141 351
L 142 351
L 143 351
L 144 351
L 145 351
L 146 351
L 147 351
L 148 351
L 149 351
L 150 351
L 150 351
L 151 351
L 152 351
L 153 350
L 154 350
L 155 350
L 156 350
L 157 350
L 158 350
L 158 350
L 159 350
L 160 350
L 161 350
L 162 351
L 163 350
L 164 350
L 165 350
L 166 350
L 167 350
L 167 350
L 168 350
L 169 351
L 170 350
L 171 350
L 172 350
L 173 350
L 174 350
L 175 349
L 175 349
L 176 349
L 177 349
L 178 349
L 179 349
L 180 349
L 181 350
L 182 350
L 183 350
L 184 351
L 184 351
L 185 351
L 186 351
L 187 351
L 188 351
L 189 351
L 190 351
L 191 351
L 192 351
L 192 351
L 193 351
L 194 351
L 195 351
L 196 351
L 197 351
L 198 350
L 199 350
L 200 350
L 201 350
L 201 350
L 202 350
L 203 350
L 204 350
L 205 351
L 206 350
L 207 350
L 208 350
L 209 350
L 209 350
L 210 350
L 211 350
L 212 350
L 213 350
L 214 350
L 215 350
L 216 350
L 217 349
L 218 349
L 218 348
L 219 348
L 220 348
L 221 348
L 222 348
L 223 349
L 224 349
L 225 349
L 226 350
L 227 349
L 227 350
L 228 350
L 229 349
L 230 350
L 231 350
L 232 349
L 233 349
L 234 349
L 235 349
L 235 350
L 236 348
L 237 347
L 238 347
L 239 347
L 240 345
L 241 343
L 242 342
L 243 344
L 244 343
L 244 342
L 245 342
L 246 343
L 247 344
L 248 345
L 249 344
L 250 344
L 251 344
L 252 342
L 252 339
L 253 339
L 254 335
L 255 334
L 256 333
L 257 331
L 258 330
L 259 328
L 260 326
L 261 325
L 261 325
L 262 323
L 263 320
L 264 320
L 265 318
L 266 314
L 267 314
L 268 311
L 269 311
L 269 309
L 270 306
L 271 306
L 272 306
L 273 309
L 274 310
L 275 309
L 276 312
L 277 316
L 278 313
L 278 318
L 279 314
L 280 313
L 281 315
L 282 315
L 283 309
L 284 311
L 285 314
L 286 317
L 286 319
L 287 320
L 288 321
L 289 328
L 290 332
L 291 330
L 292 331
L 293 332
L 294 331
L 295 332
L 295 332
L 296 330
L 297 333
L 298 331
L 299 329
L 300 331
L 301 332
L 302 333
L 303 334
L 303 335
L 304 336
L 305 338
L 306 335
L 307 337
L 308 337
L 309 339
L 310 340
L 311 342
L 312 342
L 312 345
L 313 346
L 314 346
L 315 345
L 316 345
L 317 343
L 318 342
L 319 340
L 320 338
L 321 338
L 321 338
L 322 338
L 323 340
L 324 339
L 325 342
L 326 342
L 327 342
L 328 342
L 329 343
L 329 342
L 330 344
L 331 344
L 332 345
L 333 346
L 334 345
L 335 345
L 336 346
L 337 346
L 338 346
L 338 346
L 339 346
L 340 347
L 341 346
L 342 345
L 343 346
L 344 346
L 345 346
L 346 345
L 346 345
L 347 345
L 348 346
L 349 345
L 350 345
L 351 344
L 352 344
L 353 345
L 354 344
L 355 344
L 355 343
L 356 343
L 357 343
L 358 343
L 359 343
L 360 342
L 361 342
L 362 342
L 363 342
L 363 343
L 364 341
L 365 342
L 366 342
L 367 341
L 368 342
L 369 340
L 370 338
L 371 340
L 372 339
L 372 339
L 373 339
L 374 339
L 375 339
L 376 340
L 377 340
L 378 338
L 379 339
L 380 337
L 380 337
L 381 336
L 382 337
L 383 335
L 384 335
L 385 332
L 386 335
L 387 334
L 388 333
L 389 333
L 389 334
L 390 334
L 391 337
L 392 338
L 393 337
L 394 338
L 395 338
L 396 338
L 397 340
L 397 339
L 398 338
L 399 340
L 400 340
L 401 341
L 402 341
L 403 341
L 404 339
L 405 339
L 406 337
L 406 339
L 407 338
L 408 338
L 409 337
L 410 339
L 411 340
L 412 340
L 413 339
L 414 341
L 415 340
L 415 340
L 416 341
L 417 342
L 418 341
L 419 341
L 420 342
L 421 343
L 422 343
L 423 343
L 423 343
L 424 345
L 425 345
L 426 345
L 427 345
L 428 345
L 429 345
L 430 346
L 431 345
L 432 345
L 432 345
L 433 345
L 434 345
L 435 346
L 436 345
L 437 346
L 438 346
L 439 346
L 440 346
L 440 347
L 441 346
L 442 347
L 443 347
L 444 348
L 445 349
L 446 349
L 447 349
L 448 350
L 449 350
L 449 350
L 450 350
L 451 350
L 452 350
L 453 350
L 454 350
L 455 350
L 456 350
L 457 350
L 457 350
L 458 350
L 459 350
L 460 350
L 461 350
L 462 350
L 463 350
L 464 350
L 465 350
L 466 350
L 466 350
L 467 350
L 468 350
L 469 350
L 470 350
L 471 350
L 472 350
L 473 350
L 474 350
L 474 350
L 475 350
L 476 351
L 477 351
L 478 351
L 479 351
L 480 350
L 481 350
L 482 350
L 483 350
L 483 350
L 484 350
L 485 350
L 486 350
L 487 350
L 488 350
L 489 350
L 490 350
L 491 350
L 491 350
L 492 350
L 493 350
L 494 350
L 495 350
L 496 350
L 497 350
L 498 350
L 499 351
L 500 351
L 500 351
L 501 350
L 502 350
L 503 349
L 504 348
L 505 348
L 506 347
L 507 346
L 508 346
L 509 346
L 509 346
L 510 347
L 511 347
L 512 347
L 513 348
L 514 348
L 515 347
L 516 347
L 517 346
L 517 346
L 518 345
L 519 345
L 520 345
L 521 346
L 522 347
L 523 346
L 524 346
L 525 347
L 526 347
L 526 347
L 527 347
L 528 347
L 529 347
L 530 348
L 531 348
L 532 348
L 533 348
L 534 347
L 534 347
L 535 346
L 536 346
L 537 346
L 538 346
L 539 345
L 540 346
L 541 346
L 542 346
L 543 347
L 543 347
L 544 347
L 545 347
L 546 347
L 547 347
L 548 347
L 549 347
L 550 347
L 551 347
L 551 347
L 552 347
L 553 347
L 554 347
L 555 346
L 556 345
L 557 345
L 558 343
L 559 342
L 560 342
L 560 342
L 561 342
L 562 342
L 563 341
L 564 342
L 565 342
L 566 342
L 567 340
L 568 339
L 568 339
L 569 340
L 570 338
L 571 339
L 572 339
L 573 339
L 574 339
L 575 339
L 576 339
L 577 339
L 577 339
L 578 338
L 579 336
L 580 335
L 581 335
L 582 334
L 583 335
L 584 334
L 585 333
L 585 333
L 586 334
L 587 332
L 588 330
L 589 328
L 590 326
L 591 320
L 592 316
L 593 316
L 594 309
L 594 307
L 595 297
L 596 287
L 597 287
L 598 285
L 599 275
L 600 278
L 601 276
L 602 267
L 603 276
L 603 274
L 604 273
L 605 275
L 606 273
L 607 273
L 608 280
L 609 271
L 610 271
L 611 274
L 611 278
L 612 280
L 613 280
L 614 285
L 615 297
L 616 302
L 617 304
L 618 306
L 619 311
L 620 318
L 620 323
L 621 325
L 622 327
L 623 331
L 624 332
L 625 332
L 626 332
L 627 332
L 628 332
L 628 333
L 629 332
L 630 333
L 631 335
L 632 334
L 633 335
L 634 334
L 635 335
L 636 337
L 637 338
L 637 338
L 638 339
L 639 340
L 640 342
L 641 340
L 642 341
L 643 341
L 644 341
L 645 340
L 645 339
L 646 336
L 647 337
L 648 336
L 649 333
L 650 331
L 651 331
L 652 327
L 653 323
L 654 317
L 654 314
L 655 312
L 656 311
L 657 305
L 658 300
L 659 298
L 660 292
L 661 280
L 662 279
L 662 271
L 663 264
L 664 256
L 665 242
L 666 228
L 667 223
L 668 210
L 669 204
L 670 201
L 671 184
L 671 181
L 672 180
L 673 170
L 674 171
L 675 169
L 676 166
L 677 174
L 678 173
L 679 175
L 679 174
L 680 175
L 681 181
L 682 183
L 683 178
L 684 178
L 685 178
L 686 182
L 687 185
L 688 185
L 688 179
L 689 179
L 690 181
L 691 187
L 692 194
L 693 192
L 694 192
L 695 188
L 696 187
L 697 184
L 697 183
L 698 171
L 699 167
L 700 158
L 701 150
L 702 131
L 703 107
L 704 78
L 705 61
L 705 47
L 706 41
L 707 28
L 708 15
L 709 14
L 710 19
L 711 28
L 712 24
L 713 30
L 714 44
L 714 71
L 715 88
L 716 108
L 717 123
L 718 145
L 719 155
L 720 172
L 721 186
L 722 209
L 722 221
L 723 235
L 724 245
L 725 253
L 726 260
L 727 270
L 728 274
L 729 277
L 730 282
L 731 284
L 731 285
L 732 289
L 733 295
L 734 299
L 735 300
L 736 303
L 737 305
L 738 306
L 739 312
L 739 315
L 740 314
L 741 317
L 742 319
L 743 319
L 744 318
L 745 316
L 746 317
L 747 322
L 748 324
L 748 325
L 749 327
L 750 328
L 751 329
L 752 330
L 753 330
L 754 327
L 755 326
L 756 325
L 756 324
L 757 326
L 758 325
L 759 324
L 760 326
L 761 327
L 762 329
L 763 330
L 764 330
L 765 332
L 765 335
L 766 337
L 767 336
L 768 336
L 769 337
L 770 337
L 771 337
L 772 337
L 773 339
L 773 340
L 774 341
L 775 341
L 776 342
L 777 342
L 778 342
L 779 342
L 780 342
L 781 343
L 782 343
L 782 344
L 783 344
L 784 343
L 785 342
L 786 341
L 787 340
L 788 339
L 789 336
L 790 334
L 791 332
L 791 331
L 792 331
L 793 328
L 794 329
L 795 328
L 796 323
L 797 323
L 798 319
L 799 317
L 799 316
L 800 313
L 801 312
L 802 312
L 803 310
L 804 310
L 805 312
L 806 310
L 807 310
L 808 309
L 808 308
L 809 306
L 810 306
L 811 300
L 812 300
L 813 300
L 814 299
L 815 300
L 816 297
L 816 298
L 817 300
L 818 300
L 819 299
L 820 299
L 821 295
L 822 298
L 823 295
L 824 297
L 825 296
L 825 296
L 826 298
L 827 304
L 828 307
L 829 311
L 830 310
L 831 313
L 832 315
L 833 315
L 833 315
L 834 316
L 835 318
L 836 319
L 837 322
L 838 320
L 839 320
L 840 321
L 841 321
L 842 322
L 842 324
L 843 324
L 844 325
L 845 330
L 846 333
L 847 333
L 848 331
L 849 330
L 850 328
L 850 328
L 851 324
L 852 322
L 853 324
L 854 323
L 855 323
L 856 327
L 857 326
L 858 328
L 859 328
L 859 330
L 860 330
L 861 331
L 862 331
L 863 332
L 864 331
L 865 333
L 866 332
L 867 333
L 867 333
L 868 332
L 869 332
L 870 330
L 871 326
L 872 319
L 873 314
L 874 310
L 875 308
L 876 306
L 876 303
L 877 301
L 878 303
L 879 305
L 880 301
L 881 299
L 882 298
L 883 300
L 884 295
L 885 292
L 885 285
L 886 286
L 887 282
L 888 282
L 889 277
L 890 274
L 891 270
L 892 274
L 893 271
L 893 272
L 894 271
L 895 269
L 896 268
L 897 271
L 898 269
L 899 270
L 900 272
L 901 272
L 902 280
L 902 287
L 903 290
L 904 296
L 905 300
L 906 303
L 907 305
L 908 306
L 909 309
L 910 313
L 910 316
L 911 318
L 912 321
L 913 322
L 914 323
L 915 328
L 916 330
L 917 330
L 918 332
L 919 333
L 919 332
L 920 334
L 921 336
L 922 335
L 923 337
L 924 338
L 925 339
L 926 339
L 927 338
L 927 336
L 928 337
L 929 337
L 930 337
L 931 336
L 932 336
L 933 338
L 934 337
L 935 336
L 936 335
L 936 334
L 937 333
L 938 333
L 939 333
L 940 333
L 941 333
L 942 332
L 943 332
L 944 333
L 944 333
L 945 331
L 946 329
L 947 330
L 948 331
L 949 330
L 950 330
L 951 329
L 952 329
L 953 332
L 953 331
L 954 331
L 955 332
L 956 333
L 957 333
L 958 335
L 959 336
L 960 337
L 961 336
L 961 334" style="stroke-width:1;stroke:rgba(0,116,217,1.0);fill:none"/><path  d="M 38 351
L 39 351
L 40 351
L 41 351
L 42 351
L 43 351
L 44 351
L 45 351
L 46 351
L 47 351
L 47 351
L 48 351
L 49 350
L 50 351
L 51 351
L 52 351
L 53 351
L 54 351
L 55 350
L 56 351
L 56 351
L 57 351
L 58 351
L 59 351
L 60 351
L 61 351
L 62 351
L 63 350
L 64 350
L 64 350
L 65 351
L 66 350
L 67 351
L 68 350
L 69 351
L 70 350
L 71 350
L 72 350
L 73 351
L 73 350
L 74 351
L 75 350
L 76 351
L 77 351
L 78 351
L 79 351
L 80 351
L 81 351
L 81 351
L 82 351
L 83 351
L 84 351
L 85 351
L 86 351
L 87 351
L 88 351
L 89 351
L 90 351
L 90 350
L 91 351
L 92 351
L 93 351
L 94 351
L 95 351
L 96 351
L 97 351
L 98 351
L 98 351
L 99 351
L 100 351
L 101 351
L 102 351
L 103 351
L 104 351
L 105 351
L 106 351
L 107 351
L 107 351
L 108 351
L 109 351
L 110 351
L 111 351
L 112 351
L 113 351
L 114 351
L 115 351
L 115 351
L 116 351
L 117 351
L 118 351
L 119 351
L 120 351
L 121 351
L 122 351
L 123 351
L 124 351
L 124 351
L 125 351
L 126 351
L 127 351
L 128 351
L 129 351
L 130 351
L 131 351
L 132 351
L 133 351
L 133 351
L 134 351
L 135 351
L 136 351
L 137 351
L 138 351
L 139 351
L 140 351
L 141 351
L 141 351
L 142 351
L 143 351
L 144 351
L 145 351
L 146 351
L 147 351
L 148 351
L 149 351
L 150 351
L 150 351
L 151 351
L 152 351
L 153 350
L 154 351
L 155 351
L 156 350
L 157 351
L 158 351
L 158 351
L 159 351
L 160 351
L 161 351
L 162 351
L 163 350
L 164 351
L 165 351
L 166 351
L 167 351
L 167 351
L 168 351
L 169 351
L 170 350
L 171 350
L 172 351
L 173 351
L 174 350
L 175 350
L 175 350
L 176 350
L 177 350
L 178 351
L 179 351
L 180 351
L 181 351
L 182 351
L 183 351
L 184 351
L 184 351
L 185 351
L 186 351
L 187 351
L 188 351
L 189 351
L 190 351
L 191 351
L 192 351
L 192 351
L 193 351
L 194 351
L 195 351
L 196 351
L 197 351
L 198 350
L 199 350
L 200 351
L 201 351
L 201 351
L 202 351
L 203 351
L 204 351
L 205 351
L 206 350
L 207 351
L 208 351
L 209 351
L 209 350
L 210 350
L 211 351
L 212 351
L 213 351
L 214 350
L 215 350
L 216 350
L 217 350
L 218 350
L 218 350
L 219 350
L 220 351
L 221 350
L 222 350
L 223 351
L 224 350
L 225 350
L 226 351
L 227 350
L 227 351
L 228 350
L 229 350
L 230 350
L 231 350
L 232 350
L 233 350
L 234 351
L 235 350
L 235 351
L 236 349
L 237 350
L 238 350
L 239 350
L 240 350
L 241 349
L 242 350
L 243 351
L 244 350
L 244 350
L 245 350
L 246 350
L 247 350
L 248 350
L 249 350
L 250 350
L 251 349
L 252 349
L 252 348
L 253 349
L 254 348
L 255 349
L 256 349
L 257 348
L 258 349
L 259 348
L 260 348
L 261 348
L 261 349
L 262 348
L 263 346
L 264 349
L 265 346
L 266 346
L 267 348
L 268 348
L 269 348
L 269 345
L 270 347
L 271 347
L 272 345
L 273 349
L 274 349
L 275 347
L 276 347
L 277 349
L 278 345
L 278 348
L 279 347
L 280 348
L 281 348
L 282 347
L 283 346
L 284 347
L 285 349
L 286 349
L 286 349
L 287 349
L 288 347
L 289 350
L 290 349
L 291 348
L 292 349
L 293 350
L 294 349
L 295 348
L 295 349
L 296 348
L 297 350
L 298 348
L 299 349
L 300 350
L 301 349
L 302 350
L 303 349
L 303 350
L 304 349
L 305 350
L 306 348
L 307 350
L 308 350
L 309 350
L 310 350
L 311 350
L 312 350
L 312 350
L 313 350
L 314 350
L 315 349
L 316 350
L 317 349
L 318 350
L 319 349
L 320 349
L 321 350
L 321 349
L 322 350
L 323 350
L 324 349
L 325 350
L 326 349
L 327 350
L 328 350
L 329 350
L 329 350
L 330 350
L 331 350
L 332 350
L 333 350
L 334 349
L 335 350
L 336 351
L 337 350
L 338 350
L 338 350
L 339 350
L 340 350
L 341 350
L 342 350
L 343 351
L 344 350
L 345 350
L 346 350
L 346 350
L 347 350
L 348 350
L 349 350
L 350 350
L 351 350
L 352 350
L 353 350
L 354 350
L 355 350
L 355 350
L 356 350
L 357 350
L 358 350
L 359 350
L 360 349
L 361 350
L 362 350
L 363 350
L 363 350
L 364 349
L 365 350
L 366 349
L 367 349
L 368 350
L 369 349
L 370 349
L 371 350
L 372 350
L 372 349
L 373 349
L 374 350
L 375 349
L 376 350
L 377 350
L 378 349
L 379 350
L 380 348
L 380 350
L 381 349
L 382 350
L 383 349
L 384 349
L 385 348
L 386 349
L 387 350
L 388 349
L 389 350
L 389 350
L 390 349
L 391 350
L 392 350
L 393 349
L 394 349
L 395 350
L 396 350
L 397 350
L 397 350
L 398 349
L 399 351
L 400 349
L 401 350
L 402 350
L 403 350
L 404 348
L 405 349
L 406 350
L 406 350
L 407 349
L 408 349
L 409 350
L 410 350
L 411 350
L 412 350
L 413 350
L 414 350
L 415 349
L 415 350
L 416 350
L 417 350
L 418 349
L 419 350
L 420 350
L 421 350
L 422 350
L 423 350
L 423 350
L 424 350
L 425 350
L 426 350
L 427 350
L 428 350
L 429 350
L 430 350
L 431 350
L 432 350
L 432 350
L 433 350
L 434 350
L 435 350
L 436 350
L 437 350
L 438 350
L 439 350
L 440 350
L 440 350
L 441 350
L 442 350
L 443 350
L 444 351
L 445 351
L 446 350
L 447 350
L 448 350
L 449 351
L 449 350
L 450 351
L 451 350
L 452 350
L 453 350
L 454 351
L 455 351
L 456 351
L 457 350
L 457 351
L 458 350
L 459 351
L 460 350
L 461 351
L 462 351
L 463 351
L 464 351
L 465 350
L 466 351
L 466 351
L 467 351
L 468 351
L 469 351
L 470 350
L 471 351
L 472 351
L 473 351
L 474 351
L 474 351
L 475 351
L 476 351
L 477 351
L 478 351
L 479 351
L 480 350
L 481 351
L 482 350
L 483 351
L 483 351
L 484 351
L 485 351
L 486 351
L 487 350
L 488 351
L 489 351
L 490 351
L 491 351
L 491 351
L 492 350
L 493 351
L 494 351
L 495 351
L 496 351
L 497 351
L 498 351
L 499 351
L 500 351
L 500 351
L 501 350
L 502 350
L 503 350
L 504 350
L 505 350
L 506 350
L 507 350
L 508 350
L 509 350
L 509 350
L 510 350
L 511 350
L 512 350
L 513 350
L 514 350
L 515 350
L 516 350
L 517 350
L 517 350
L 518 350
L 519 350
L 520 350
L 521 350
L 522 350
L 523 350
L 524 350
L 525 350
L 526 350
L 526 350
L 527 350
L 528 350
L 529 350
L 530 350
L 531 350
L 532 350
L 533 350
L 534 350
L 534 350
L 535 350
L 536 350
L 537 350
L 538 350
L 539 350
L 540 350
L 541 350
L 542 350
L 543 350
L 543 350
L 544 350
L 545 350
L 546 350
L 547 350
L 548 350
L 549 350
L 550 350
L 551 350
L 551 350
L 552 350
L 553 350
L 554 350
L 555 350
L 556 350
L 557 350
L 558 349
L 559 349
L 560 350
L 560 350
L 561 350
L 562 350
L 563 350
L 564 350
L 565 349
L 566 350
L 567 349
L 568 349
L 568 350
L 569 350
L 570 349
L 571 350
L 572 350
L 573 349
L 574 349
L 575 350
L 576 350
L 577 349
L 577 349
L 578 349
L 579 348
L 580 349
L 581 350
L 582 350
L 583 349
L 584 349
L 585 349
L 585 348
L 586 349
L 587 349
L 588 348
L 589 348
L 590 347
L 591 346
L 592 346
L 593 349
L 594 345
L 594 347
L 595 343
L 596 341
L 597 346
L 598 344
L 599 343
L 600 346
L 601 345
L 602 338
L 603 347
L 603 344
L 604 344
L 605 345
L 606 345
L 607 345
L 608 342
L 609 341
L 610 345
L 611 345
L 611 347
L 612 346
L 613 346
L 614 345
L 615 348
L 616 347
L 617 346
L 618 349
L 619 349
L 620 350
L 620 349
L 621 349
L 622 349
L 623 348
L 624 349
L 625 349
L 626 350
L 627 348
L 628 349
L 628 349
L 629 348
L 630 350
L 631 350
L 632 349
L 633 349
L 634 348
L 635 350
L 636 349
L 637 350
L 637 350
L 638 350
L 639 350
L 640 349
L 641 349
L 642 350
L 643 350
L 644 350
L 645 350
L 645 349
L 646 348
L 647 349
L 648 349
L 649 349
L 650 349
L 651 349
L 652 347
L 653 345
L 654 346
L 654 347
L 655 347
L 656 348
L 657 346
L 658 343
L 659 344
L 660 343
L 661 341
L 662 347
L 662 343
L 663 342
L 664 339
L 665 335
L 666 334
L 667 338
L 668 339
L 669 340
L 670 340
L 671 328
L 671 334
L 672 334
L 673 332
L 674 339
L 675 338
L 676 338
L 677 333
L 678 333
L 679 335
L 679 331
L 680 340
L 681 342
L 682 339
L 683 331
L 684 333
L 685 335
L 686 334
L 687 341
L 688 342
L 688 336
L 689 331
L 690 334
L 691 338
L 692 338
L 693 340
L 694 342
L 695 333
L 696 331
L 697 332
L 697 338
L 698 331
L 699 338
L 700 337
L 701 329
L 702 319
L 703 318
L 704 321
L 705 320
L 705 329
L 706 334
L 707 321
L 708 311
L 709 318
L 710 324
L 711 326
L 712 327
L 713 338
L 714 329
L 714 327
L 715 327
L 716 336
L 717 335
L 718 339
L 719 344
L 720 339
L 721 336
L 722 341
L 722 343
L 723 343
L 724 345
L 725 349
L 726 343
L 727 341
L 728 344
L 729 345
L 730 346
L 731 346
L 731 349
L 732 345
L 733 345
L 734 346
L 735 346
L 736 347
L 737 348
L 738 350
L 739 349
L 739 347
L 740 346
L 741 347
L 742 348
L 743 348
L 744 350
L 745 348
L 746 347
L 747 348
L 748 349
L 748 349
L 749 349
L 750 350
L 751 348
L 752 348
L 753 349
L 754 347
L 755 349
L 756 348
L 756 349
L 757 349
L 758 348
L 759 348
L 760 348
L 761 349
L 762 350
L 763 350
L 764 349
L 765 349
L 765 350
L 766 349
L 767 349
L 768 349
L 769 350
L 770 349
L 771 349
L 772 350
L 773 350
L 773 350
L 774 350
L 775 350
L 776 350
L 777 349
L 778 350
L 779 350
L 780 350
L 781 350
L 782 350
L 782 350
L 783 350
L 784 349
L 785 350
L 786 349
L 787 350
L 788 350
L 789 348
L 790 348
L 791 348
L 791 349
L 792 349
L 793 348
L 794 350
L 795 348
L 796 345
L 797 348
L 798 347
L 799 347
L 799 348
L 800 349
L 801 347
L 802 346
L 803 346
L 804 347
L 805 349
L 806 346
L 807 349
L 808 347
L 808 345
L 809 345
L 810 346
L 811 345
L 812 346
L 813 349
L 814 346
L 815 346
L 816 343
L 816 347
L 817 346
L 818 346
L 819 348
L 820 346
L 821 344
L 822 345
L 823 345
L 824 348
L 825 345
L 825 349
L 826 348
L 827 347
L 828 347
L 829 347
L 830 347
L 831 347
L 832 350
L 833 347
L 833 347
L 834 348
L 835 348
L 836 348
L 837 349
L 838 349
L 839 347
L 840 347
L 841 348
L 842 349
L 842 349
L 843 349
L 844 350
L 845 350
L 846 349
L 847 348
L 848 348
L 849 348
L 850 347
L 850 350
L 851 348
L 852 347
L 853 349
L 854 348
L 855 348
L 856 349
L 857 350
L 858 349
L 859 347
L 859 350
L 860 348
L 861 349
L 862 349
L 863 350
L 864 348
L 865 349
L 866 349
L 867 348
L 867 349
L 868 349
L 869 350
L 870 347
L 871 347
L 872 345
L 873 345
L 874 347
L 875 347
L 876 349
L 876 345
L 877 345
L 878 347
L 879 346
L 880 345
L 881 346
L 882 349
L 883 346
L 884 342
L 885 344
L 885 342
L 886 345
L 887 344
L 888 349
L 889 343
L 890 341
L 891 342
L 892 344
L 893 343
L 893 344
L 894 349
L 895 342
L 896 340
L 897 344
L 898 343
L 899 344
L 900 345
L 901 349
L 902 347
L 902 344
L 903 346
L 904 347
L 905 346
L 906 347
L 907 350
L 908 347
L 909 346
L 910 348
L 910 349
L 911 347
L 912 349
L 913 350
L 914 348
L 915 349
L 916 350
L 917 348
L 918 349
L 919 349
L 919 350
L 920 349
L 921 350
L 922 349
L 923 349
L 924 350
L 925 350
L 926 350
L 927 348
L 927 349
L 928 349
L 929 350
L 930 349
L 931 349
L 932 350
L 933 350
L 934 348
L 935 349
L 936 349
L 936 349
L 937 349
L 938 350
L 939 349
L 940 348
L 941 348
L 942 349
L 943 349
L 944 349
L 944 350
L 945 348
L 946 347
L 947 349
L 948 349
L 949 349
L 950 349
L 951 350
L 952 348
L 953 349
L 953 348
L 954 349
L 955 350
L 956 349
L 957 350
L 958 349
L 959 349
L 960 349
L 961 349
L 961 349" style="stroke-width:1;stroke:rgba(0,217,101,1.0);fill:none"/><path  d="M 38 351
L 39 351
L 40 351
L 41 351
L 42 351
L 43 351
L 44 351
L 45 351
L 46 351
L 47 351
L 47 351
L 48 351
L 49 351
L 50 351
L 51 351
L 52 351
L 53 351
L 54 351
L 55 351
L 56 351
L 56 351
L 57 351
L 58 351
L 59 351
L 60 351
L 61 351
L 62 351
L 63 351
L 64 351
L 64 351
L 65 351
L 66 351
L 67 351
L 68 351
L 69 350
L 70 351
L 71 351
L 72 351
L 73 351
L 73 351
L 74 351
L 75 350
L 76 351
L 77 351
L 78 351
L 79 351
L 80 351
L 81 350
L 81 351
L 82 351
L 83 351
L 84 351
L 85 351
L 86 351
L 87 351
L 88 351
L 89 351
L 90 351
L 90 351
L 91 351
L 92 351
L 93 351
L 94 351
L 95 351
L 96 351
L 97 351
L 98 351
L 98 351
L 99 351
L 100 351
L 101 351
L 102 351
L 103 351
L 104 351
L 105 351
L 106 351
L 107 351
L 107 351
L 108 351
L 109 351
L 110 351
L 111 351
L 112 351
L 113 351
L 114 351
L 115 351
L 115 351
L 116 351
L 117 351
L 118 351
L 119 351
L 120 351
L 121 351
L 122 351
L 123 351
L 124 351
L 124 351
L 125 351
L 126 351
L 127 351
L 128 351
L 129 351
L 130 351
L 131 351
L 132 351
L 133 351
L 133 351
L 134 351
L 135 351
L 136 351
L 137 351
L 138 351
L 139 351
L 140 351
L 141 351
L 141 351
L 142 351
L 143 351
L 144 351
L 145 351
L 146 351
L 147 351
L 148 351
L 149 351
L 150 351
L 150 351
L 151 351
L 152 351
L 153 351
L 154 351
L 155 351
L 156 351
L 157 351
L 158 351
L 158 351
L 159 351
L 160 351
L 161 351
L 162 351
L 163 351
L 164 351
L 165 351
L 166 351
L 167 351
L 167 351
L 168 351
L 169 351
L 170 351
L 171 351
L 172 351
L 173 351
L 174 351
L 175 351
L 175 351
L 176 351
L 177 351
L 178 351
L 179 351
L 180 351
L 181 351
L 182 351
L 183 351
L 184 351
L 184 351
L 185 351
L 186 351
L 187 351
L 188 351
L 189 351
L 190 351
L 191 351
L 192 351
L 192 351
L 193 351
L 194 351
L 195 351
L 196 351
L 197 351
L 198 351
L 199 351
L 200 351
L 201 351
L 201 351
L 202 351
L 203 351
L 204 351
L 205 351
L 206 351
L 207 351
L 208 351
L 209 351
L 209 351
L 210 351
L 211 351
L 212 351
L 213 351
L 214 351
L 215 351
L 216 351
L 217 351
L 218 351
L 218 351
L 219 351
L 220 351
L 221 351
L 222 351
L 223 351
L 224 351
L 225 351
L 226 351
L 227 351
L 227 351
L 228 351
L 229 351
L 230 351
L 231 351
L 232 351
L 233 351
L 234 351
L 235 351
L 235 351
L 236 351
L 237 351
L 238 351
L 239 351
L 240 351
L 241 351
L 242 351
L 243 351
L 244 351
L 244 351
L 245 351
L 246 351
L 247 351
L 248 351
L 249 351
L 250 350
L 251 350
L 252 351
L 252 350
L 253 351
L 254 351
L 255 351
L 256 351
L 257 351
L 258 351
L 259 351
L 260 350
L 261 351
L 261 351
L 262 351
L 263 350
L 264 350
L 265 350
L 266 350
L 267 350
L 268 350
L 269 350
L 269 350
L 270 350
L 271 351
L 272 350
L 273 350
L 274 351
L 275 350
L 276 350
L 277 350
L 278 350
L 278 350
L 279 350
L 280 350
L 281 350
L 282 350
L 283 350
L 284 351
L 285 350
L 286 350
L 286 350
L 287 350
L 288 350
L 289 350
L 290 351
L 291 351
L 292 350
L 293 350
L 294 350
L 295 350
L 295 350
L 296 350
L 297 351
L 298 350
L 299 350
L 300 350
L 301 350
L 302 351
L 303 350
L 303 350
L 304 350
L 305 350
L 306 350
L 307 350
L 308 351
L 309 350
L 310 351
L 311 350
L 312 351
L 312 350
L 313 351
L 314 351
L 315 351
L 316 350
L 317 351
L 318 351
L 319 351
L 320 351
L 321 351
L 321 351
L 322 351
L 323 351
L 324 351
L 325 350
L 326 350
L 327 351
L 328 351
L 329 350
L 329 351
L 330 350
L 331 351
L 332 351
L 333 351
L 334 351
L 335 351
L 336 351
L 337 350
L 338 351
L 338 351
L 339 350
L 340 350
L 341 351
L 342 351
L 343 351
L 344 350
L 345 350
L 346 351
L 346 350
L 347 351
L 348 351
L 349 351
L 350 350
L 351 351
L 352 351
L 353 351
L 354 350
L 355 350
L 355 351
L 356 351
L 357 351
L 358 350
L 359 351
L 360 351
L 361 351
L 362 351
L 363 351
L 363 351
L 364 351
L 365 351
L 366 350
L 367 351
L 368 351
L 369 351
L 370 351
L 371 351
L 372 351
L 372 351
L 373 351
L 374 351
L 375 351
L 376 350
L 377 350
L 378 351
L 379 350
L 380 351
L 380 351
L 381 351
L 382 351
L 383 350
L 384 351
L 385 350
L 386 351
L 387 350
L 388 350
L 389 350
L 389 350
L 390 351
L 391 351
L 392 350
L 393 351
L 394 350
L 395 350
L 396 351
L 397 351
L 397 351
L 398 350
L 399 351
L 400 350
L 401 350
L 402 350
L 403 351
L 404 350
L 405 351
L 406 351
L 406 351
L 407 351
L 408 351
L 409 350
L 410 351
L 411 350
L 412 350
L 413 351
L 414 350
L 415 351
L 415 351
L 416 351
L 417 351
L 418 351
L 419 351
L 420 351
L 421 351
L 422 351
L 423 351
L 423 351
L 424 351
L 425 350
L 426 351
L 427 351
L 428 351
L 429 351
L 430 351
L 431 351
L 432 351
L 432 351
L 433 351
L 434 351
L 435 351
L 436 351
L 437 351
L 438 350
L 439 351
L 440 351
L 440 351
L 441 351
L 442 351
L 443 351
L 444 351
L 445 351
L 446 351
L 447 351
L 448 351
L 449 351
L 449 351
L 450 351
L 451 351
L 452 351
L 453 351
L 454 351
L 455 351
L 456 351
L 457 351
L 457 351
L 458 351
L 459 350
L 460 351
L 461 351
L 462 351
L 463 351
L 464 351
L 465 351
L 466 351
L 466 351
L 467 351
L 468 351
L 469 351
L 470 351
L 471 351
L 472 351
L 473 351
L 474 351
L 474 351
L 475 351
L 476 351
L 477 351
L 478 351
L 479 351
L 480 351
L 481 351
L 482 351
L 483 351
L 483 351
L 484 351
L 485 351
L 486 351
L 487 351
L 488 351
L 489 351
L 490 351
L 491 351
L 491 351
L 492 351
L 493 351
L 494 351
L 495 351
L 496 351
L 497 351
L 498 351
L 499 351
L 500 351
L 500 351
L 501 351
L 502 351
L 503 351
L 504 351
L 505 351
L 506 351
L 507 351
L 508 351
L 509 351
L 509 351
L 510 351
L 511 351
L 512 351
L 513 351
L 514 351
L 515 351
L 516 351
L 517 351
L 517 351
L 518 351
L 519 351
L 520 351
L 521 351
L 522 351
L 523 351
L 524 351
L 525 351
L 526 351
L 526 351
L 527 351
L 528 351
L 529 351
L 530 351
L 531 351
L 532 351
L 533 351
L 534 351
L 534 351
L 535 351
L 536 351
L 537 351
L 538 351
L 539 351
L 540 351
L 541 351
L 542 351
L 543 351
L 543 351
L 544 351
L 545 351
L 546 351
L 547 351
L 548 351
L 549 351
L 550 351
L 551 351
L 551 351
L 552 351
L 553 351
L 554 351
L 555 351
L 556 351
L 557 351
L 558 351
L 559 351
L 560 351
L 560 351
L 561 351
L 562 351
L 563 351
L 564 351
L 565 351
L 566 351
L 567 351
L 568 351
L 568 351
L 569 351
L 570 351
L 571 351
L 572 351
L 573 351
L 574 351
L 575 351
L 576 351
L 577 351
L 577 351
L 578 351
L 579 351
L 580 351
L 581 351
L 582 351
L 583 351
L 584 351
L 585 351
L 585 351
L 586 351
L 587 351
L 588 350
L 589 351
L 590 351
L 591 351
L 592 351
L 593 351
L 594 351
L 594 350
L 595 351
L 596 351
L 597 350
L 598 350
L 599 350
L 600 350
L 601 350
L 602 350
L 603 350
L 603 350
L 604 351
L 605 351
L 606 350
L 607 351
L 608 350
L 609 351
L 610 351
L 611 350
L 611 351
L 612 350
L 613 351
L 614 350
L 615 350
L 616 351
L 617 351
L 618 351
L 619 351
L 620 351
L 620 350
L 621 351
L 622 350
L 623 351
L 624 350
L 625 350
L 626 350
L 627 351
L 628 351
L 628 351
L 629 351
L 630 351
L 631 351
L 632 351
L 633 351
L 634 351
L 635 351
L 636 350
L 637 351
L 637 351
L 638 351
L 639 351
L 640 351
L 641 351
L 642 351
L 643 351
L 644 351
L 645 351
L 645 351
L 646 351
L 647 351
L 648 351
L 649 351
L 650 351
L 651 351
L 652 351
L 653 351
L 654 351
L 654 351
L 655 351
L 656 351
L 657 351
L 658 351
L 659 351
L 660 351
L 661 350
L 662 351
L 662 351
L 663 351
L 664 351
L 665 351
L 666 350
L 667 351
L 668 351
L 669 351
L 670 351
L 671 351
L 671 351
L 672 351
L 673 351
L 674 351
L 675 351
L 676 351
L 677 351
L 678 351
L 679 351
L 679 350
L 680 351
L 681 351
L 682 350
L 683 351
L 684 350
L 685 350
L 686 351
L 687 351
L 688 351
L 688 351
L 689 351
L 690 350
L 691 351
L 692 351
L 693 351
L 694 351
L 695 350
L 696 351
L 697 351
L 697 351
L 698 350
L 699 351
L 700 351
L 701 350
L 702 351
L 703 350
L 704 351
L 705 351
L 705 351
L 706 351
L 707 351
L 708 351
L 709 351
L 710 351
L 711 351
L 712 351
L 713 351
L 714 350
L 714 351
L 715 351
L 716 351
L 717 351
L 718 351
L 719 351
L 720 351
L 721 351
L 722 351
L 722 350
L 723 350
L 724 351
L 725 351
L 726 351
L 727 351
L 728 351
L 729 351
L 730 351
L 731 351
L 731 351
L 732 351
L 733 350
L 734 351
L 735 351
L 736 351
L 737 351
L 738 351
L 739 351
L 739 351
L 740 351
L 741 351
L 742 351
L 743 351
L 744 351
L 745 351
L 746 351
L 747 351
L 748 351
L 748 351
L 749 351
L 750 351
L 751 350
L 752 351
L 753 351
L 754 351
L 755 350
L 756 351
L 756 351
L 757 351
L 758 351
L 759 351
L 760 351
L 761 351
L 762 351
L 763 351
L 764 351
L 765 351
L 765 351
L 766 351
L 767 351
L 768 351
L 769 351
L 770 351
L 771 351
L 772 351
L 773 351
L 773 351
L 774 351
L 775 351
L 776 351
L 777 351
L 778 351
L 779 351
L 780 351
L 781 351
L 782 351
L 782 351
L 783 351
L 784 351
L 785 351
L 786 351
L 787 351
L 788 351
L 789 351
L 790 351
L 791 351
L 791 351
L 792 351
L 793 351
L 794 351
L 795 351
L 796 351
L 797 351
L 798 351
L 799 351
L 799 351
L 800 351
L 801 351
L 802 351
L 803 351
L 804 351
L 805 351
L 806 351
L 807 351
L 808 351
L 808 351
L 809 351
L 810 351
L 811 351
L 812 351
L 813 351
L 814 351
L 815 351
L 816 351
L 816 351
L 817 351
L 818 350
L 819 351
L 820 351
L 821 351
L 822 351
L 823 351
L 824 351
L 825 351
L 825 350
L 826 351
L 827 351
L 828 351
L 829 351
L 830 351
L 831 351
L 832 351
L 833 351
L 833 351
L 834 351
L 835 351
L 836 351
L 837 351
L 838 351
L 839 351
L 840 351
L 841 351
L 842 351
L 842 350
L 843 351
L 844 351
L 845 351
L 846 351
L 847 351
L 848 351
L 849 351
L 850 351
L 850 351
L 851 351
L 852 351
L 853 351
L 854 351
L 855 351
L 856 351
L 857 351
L 858 351
L 859 351
L 859 351
L 860 351
L 861 351
L 862 351
L 863 351
L 864 351
L 865 351
L 866 351
L 867 351
L 867 351
L 868 351
L 869 351
L 870 351
L 871 351
L 872 350
L 873 351
L 874 351
L 875 351
L 876 351
L 876 351
L 877 351
L 878 351
L 879 351
L 880 351
L 881 351
L 882 351
L 883 350
L 884 351
L 885 351
L 885 351
L 886 351
L 887 351
L 888 351
L 889 351
L 890 350
L 891 351
L 892 351
L 893 351
L 893 351
L 894 351
L 895 351
L 896 351
L 897 351
L 898 351
L 899 351
L 900 351
L 901 351
L 902 351
L 902 351
L 903 351
L 904 351
L 905 351
L 906 351
L 907 351
L 908 351
L 909 351
L 910 351
L 910 351
L 911 351
L 912 351
L 913 351
L 914 351
L 915 351
L 916 351
L 917 351
L 918 351
L 919 351
L 919 351
L 920 351
L 921 351
L 922 351
L 923 351
L 924 351
L 925 351
L 926 351
L 927 351
L 927 351
L 928 351
L 929 351
L 930 350
L 931 351
L 932 351
L 933 351
L 934 351
L 935 351
L 936 351
L 936 351
L 937 351
L 938 351
L 939 351
L 940 351
L 941 351
L 942 351
L 943 351
L 944 351
L 944 351
L 945 351
L 946 351
L 947 351
L 948 351
L 949 351
L 950 351
L 951 351
L 952 351
L 953 350
L 953 351
L 954 351
L 955 351
L 956 351
L 957 351
L 958 351
L 959 350
L 960 351
L 961 351
L 961 351" style="stroke-width:1;stroke:rgba(217,0,116,1.0);fill:none"/><text x="412" y="33" style="stroke-width:0;stroke:none;fill:rgba(51,51,51,1.0);font-size:23.0px;font-family:'Roboto Medium',sans-serif">Leoben 23.12.2022</text><path  d="M 38 11
L 251 11
L 251 91
L 38 91
L 38 11" style="stroke-width:1;stroke:rgba(51,51,51,1.0);fill:rgba(255,255,255,1.0)"/><text x="43" y="26" style="stroke-width:0;stroke:none;fill:rgba(51,51,51,1.0);font-size:10.2px;font-family:'Roboto Medium',sans-serif">Sieben Tage Durschnitt Inzidenz Fälle</text><path  d="M 221 21
L 241 21" style="stroke-width:1;stroke:rgba(0,116,217,1.0);fill:none"/><text x="43" y="56" style="stroke-width:0;stroke:none;fill:rgba(51,51,51,1.0);font-size:10.2px;font-family:'Roboto Medium',sans-serif">Anzahl Faelle</text><path  d="M 110 51
L 241 51" style="stroke-width:1;stroke:rgba(0,217,101,1.0);fill:none"/><text x="43" y="86" style="stroke-width:0;stroke:none;fill:rgba(51,51,51,1.0);font-size:10.2px;font-family:'Roboto Medium',sans-serif">Anzahl Tot</text><path  d="M 98 81
L 241 81" style="stroke-width:1;stroke:rgba(217,0,116,1.0);fill:none"/></svg>