<svg xmlns="http://www.w3.org/2000/svg" xmlns:xlink="http://www.w3.org/1999/xlink" width="1024" height="400">\n<path  d="M 0 0
L 1024 0
L 1024 400
L 0 400
L 0 0" style="stroke-width:0;stroke:rgba(255,255,255,1.0);fill:rgba(255,255,255,1.0)"/><path  d="M 38 11
L 961 11
L 961 351
L 38 351
L 38 11" style="stroke-width:0;stroke:rgba(255,255,255,1.0);fill:rgba(255,255,255,1.0)"/><path  d="M 38 351
L 961 351" style="stroke-width:1;stroke:rgba(51,51,51,1.0);fill:none"/><path  d="M 38 351
L 38 356" style="stroke-width:1;stroke:rgba(51,51,51,1.0);fill:none"/><text x="5" y="373" style="stroke-width:0;stroke:none;fill:rgba(51,51,51,1.0);font-size:12.8px;font-family:'Roboto Medium',sans-serif">2020-02-26</text><path  d="M 154 351
L 154 356" style="stroke-width:1;stroke:rgba(51,51,51,1.0);fill:none"/><text x="121" y="373" style="stroke-width:0;stroke:none;fill:rgba(51,51,51,1.0);font-size:12.8px;font-family:'Roboto Medium',sans-serif">2020-04-03</text><path  d="M 269 351
L 269 356" style="stroke-width:1;stroke:rgba(51,51,51,1.0);fill:none"/><text x="236" y="373" style="stroke-width:0;stroke:none;fill:rgba(51,51,51,1.0);font-size:12.8px;font-family:'Roboto Medium',sans-serif">2020-05-11</text><path  d="M 385 351
L 385 356" style="stroke-width:1;stroke:rgba(51,51,51,1.0);fill:none"/><text x="352" y="373" style="stroke-width:0;stroke:none;fill:rgba(51,51,51,1.0);font-size:12.8px;font-family:'Roboto Medium',sans-serif">2020-06-18</text><path  d="M 500 351
L 500 356" style="stroke-width:1;stroke:rgba(51,51,51,1.0);fill:none"/><text x="467" y="373" style="stroke-width:0;stroke:none;fill:rgba(51,51,51,1.0);font-size:12.8px;font-family:'Roboto Medium',sans-serif">2020-07-26</text><path  d="M 615 351
L 615 356" style="stroke-width:1;stroke:rgba(51,51,51,1.0);fill:none"/><text x="582" y="373" style="stroke-width:0;stroke:none;fill:rgba(51,51,51,1.0);font-size:12.8px;font-family:'Roboto Medium',sans-serif">2020-09-02</text><path  d="M 731 351
L 731 356" style="stroke-width:1;stroke:rgba(51,51,51,1.0);fill:none"/><text x="698" y="373" style="stroke-width:0;stroke:none;fill:rgba(51,51,51,1.0);font-size:12.8px;font-family:'Roboto Medium',sans-serif">2020-10-10</text><path  d="M 846 351
L 846 356" style="stroke-width:1;stroke:rgba(51,51,51,1.0);fill:none"/><text x="813" y="373" style="stroke-width:0;stroke:none;fill:rgba(51,51,51,1.0);font-size:12.8px;font-family:'Roboto Medium',sans-serif">2020-11-17</text><path  d="M 961 351
L 961 356" style="stroke-width:1;stroke:rgba(51,51,51,1.0);fill:none"/><text x="928" y="373" style="stroke-width:0;stroke:none;fill:rgba(51,51,51,1.0);font-size:12.8px;font-family:'Roboto Medium',sans-serif">2020-12-25</text><text x="481" y="395" style="stroke-width:0;stroke:none;fill:rgba(51,51,51,1.0);font-size:12.8px;font-family:'Roboto Medium',sans-serif">Datum</text><path  d="M 962 351
L 962 11" style="stroke-width:1;stroke:rgba(51,51,51,1.0);fill:none"/><path  d="M 962 351
L 967 351" style="stroke-width:1;stroke:rgba(51,51,51,1.0);fill:none"/><text x="972" y="357" style="stroke-width:0;stroke:none;fill:rgba(51,51,51,1.0);font-size:12.8px;font-family:'Roboto Medium',sans-serif">0.00</text><path  d="M 962 307
L 967 307" style="stroke-width:1;stroke:rgba(51,51,51,1.0);fill:none"/><text x="972" y="313" style="stroke-width:0;stroke:none;fill:rgba(51,51,51,1.0);font-size:12.8px;font-family:'Roboto Medium',sans-serif">140.00</text><path  d="M 962 264
L 967 264" style="stroke-width:1;stroke:rgba(51,51,51,1.0);fill:none"/><text x="972" y="270" style="stroke-width:0;stroke:none;fill:rgba(51,51,51,1.0);font-size:12.8px;font-family:'Roboto Medium',sans-serif">280.00</text><path  d="M 962 221
L 967 221" style="stroke-width:1;stroke:rgba(51,51,51,1.0);fill:none"/><text x="972" y="227" style="stroke-width:0;stroke:none;fill:rgba(51,51,51,1.0);font-size:12.8px;font-family:'Roboto Medium',sans-serif">420.00</text><path  d="M 962 181
L 967 181" style="stroke-width:1;stroke:rgba(51,51,51,1.0);fill:none"/><text x="972" y="187" style="stroke-width:0;stroke:none;fill:rgba(51,51,51,1.0);font-size:12.8px;font-family:'Roboto Medium',sans-serif">550.00</text><path  d="M 962 137
L 967 137" style="stroke-width:1;stroke:rgba(51,51,51,1.0);fill:none"/><text x="972" y="143" style="stroke-width:0;stroke:none;fill:rgba(51,51,51,1.0);font-size:12.8px;font-family:'Roboto Medium',sans-serif">690.00</text><path  d="M 962 94
L 967 94" style="stroke-width:1;stroke:rgba(51,51,51,1.0);fill:none"/><text x="972" y="100" style="stroke-width:0;stroke:none;fill:rgba(51,51,51,1.0);font-size:12.8px;font-family:'Roboto Medium',sans-serif">830.00</text><path  d="M 962 51
L 967 51" style="stroke-width:1;stroke:rgba(51,51,51,1.0);fill:none"/><text x="972" y="57" style="stroke-width:0;stroke:none;fill:rgba(51,51,51,1.0);font-size:12.8px;font-family:'Roboto Medium',sans-serif">970.00</text><path  d="M 962 11
L 967 11" style="stroke-width:1;stroke:rgba(51,51,51,1.0);fill:none"/><text x="972" y="17" style="stroke-width:0;stroke:none;fill:rgba(51,51,51,1.0);font-size:12.8px;font-family:'Roboto Medium',sans-serif">1100.00</text><path  d="M 38 351
L 42 351
L 45 351
L 48 351
L 51 351
L 54 351
L 57 351
L 60 351
L 63 351
L 66 351
L 69 351
L 72 351
L 75 351
L 78 351
L 81 351
L 84 351
L 87 351
L 90 347
L 93 347
L 96 340
L 99 339
L 102 332
L 106 328
L 109 325
L 112 327
L 115 324
L 118 330
L 121 324
L 124 329
L 127 324
L 130 325
L 133 323
L 136 318
L 139 318
L 142 320
L 145 318
L 148 323
L 151 322
L 154 325
L 157 332
L 160 330
L 163 333
L 166 337
L 169 340
L 173 342
L 176 341
L 179 341
L 182 344
L 185 345
L 188 345
L 191 344
L 194 344
L 197 346
L 200 346
L 203 347
L 206 348
L 209 349
L 212 351
L 215 350
L 218 349
L 221 349
L 224 349
L 227 349
L 230 349
L 233 349
L 237 349
L 240 351
L 243 351
L 246 350
L 249 350
L 252 350
L 255 350
L 258 350
L 261 350
L 264 350
L 267 351
L 270 351
L 273 351
L 276 351
L 279 351
L 282 351
L 285 350
L 288 350
L 291 350
L 294 350
L 297 350
L 300 350
L 304 350
L 307 351
L 310 351
L 313 351
L 316 351
L 319 351
L 322 351
L 325 351
L 328 351
L 331 351
L 334 351
L 337 350
L 340 350
L 343 350
L 346 350
L 349 350
L 352 350
L 355 350
L 358 351
L 361 351
L 364 351
L 367 351
L 371 351
L 374 351
L 377 351
L 380 351
L 383 351
L 386 351
L 389 351
L 392 351
L 395 350
L 398 350
L 401 350
L 404 350
L 407 350
L 410 350
L 413 350
L 416 351
L 419 351
L 422 351
L 425 351
L 428 351
L 431 351
L 435 351
L 438 351
L 441 351
L 444 351
L 447 351
L 450 351
L 453 350
L 456 350
L 459 349
L 462 349
L 465 349
L 468 349
L 471 349
L 474 350
L 477 350
L 480 351
L 483 351
L 486 351
L 489 351
L 492 351
L 495 351
L 498 351
L 502 351
L 505 351
L 508 351
L 511 351
L 514 351
L 517 351
L 520 351
L 523 351
L 526 351
L 529 351
L 532 351
L 535 351
L 538 351
L 541 351
L 544 351
L 547 351
L 550 351
L 553 351
L 556 350
L 559 349
L 562 347
L 565 347
L 569 347
L 572 346
L 575 346
L 578 347
L 581 347
L 584 349
L 587 350
L 590 350
L 593 351
L 596 351
L 599 351
L 602 351
L 605 351
L 608 351
L 611 350
L 614 350
L 617 350
L 620 350
L 623 350
L 626 349
L 629 349
L 633 350
L 636 350
L 639 350
L 642 350
L 645 349
L 648 350
L 651 349
L 654 345
L 657 343
L 660 342
L 663 341
L 666 342
L 669 342
L 672 342
L 675 345
L 678 348
L 681 349
L 684 349
L 687 349
L 690 349
L 693 349
L 696 349
L 700 349
L 703 349
L 706 350
L 709 350
L 712 350
L 715 350
L 718 351
L 721 350
L 724 349
L 727 348
L 730 348
L 733 347
L 736 347
L 739 345
L 742 339
L 745 338
L 748 337
L 751 331
L 754 330
L 757 330
L 760 326
L 763 332
L 767 324
L 770 324
L 773 316
L 776 298
L 779 293
L 782 288
L 785 288
L 788 285
L 791 272
L 794 266
L 797 272
L 800 267
L 803 257
L 806 241
L 809 226
L 812 204
L 815 196
L 818 189
L 821 172
L 824 161
L 827 145
L 831 140
L 834 133
L 837 132
L 840 118
L 843 118
L 846 112
L 849 117
L 852 120
L 855 141
L 858 111
L 861 111
L 864 109
L 867 90
L 870 64
L 873 68
L 876 31
L 879 53
L 882 84
L 885 57
L 888 105
L 891 131
L 894 116
L 898 169
L 901 165
L 904 149
L 907 199
L 910 199
L 913 208
L 916 245
L 919 213
L 922 241
L 925 243
L 928 234
L 931 220
L 934 239
L 937 237
L 940 272
L 943 275
L 946 292
L 949 283
L 952 292
L 955 289
L 958 286
L 961 281" style="stroke-width:1;stroke:rgba(0,116,217,1.0);fill:none"/><path  d="M 38 351
L 42 351
L 45 351
L 48 351
L 51 351
L 54 351
L 57 351
L 60 351
L 63 351
L 66 351
L 69 351
L 72 351
L 75 351
L 78 351
L 81 351
L 84 351
L 87 351
L 90 349
L 93 351
L 96 347
L 99 350
L 102 347
L 106 348
L 109 349
L 112 350
L 115 349
L 118 349
L 121 347
L 124 350
L 127 346
L 130 350
L 133 349
L 136 347
L 139 349
L 142 348
L 145 348
L 148 349
L 151 349
L 154 350
L 157 351
L 160 348
L 163 350
L 166 350
L 169 350
L 173 351
L 176 350
L 179 351
L 182 350
L 185 350
L 188 350
L 191 350
L 194 351
L 197 351
L 200 351
L 203 351
L 206 351
L 209 351
L 212 351
L 215 350
L 218 350
L 221 351
L 224 351
L 227 351
L 230 351
L 233 351
L 237 351
L 240 351
L 243 351
L 246 350
L 249 351
L 252 351
L 255 351
L 258 351
L 261 351
L 264 351
L 267 351
L 270 351
L 273 351
L 276 351
L 279 351
L 282 351
L 285 350
L 288 351
L 291 351
L 294 351
L 297 351
L 300 351
L 304 351
L 307 351
L 310 351
L 313 351
L 316 351
L 319 351
L 322 351
L 325 351
L 328 351
L 331 351
L 334 351
L 337 350
L 340 351
L 343 351
L 346 351
L 349 351
L 352 351
L 355 351
L 358 351
L 361 351
L 364 351
L 367 351
L 371 351
L 374 351
L 377 351
L 380 351
L 383 351
L 386 351
L 389 351
L 392 351
L 395 350
L 398 351
L 401 351
L 404 351
L 407 351
L 410 351
L 413 351
L 416 351
L 419 351
L 422 351
L 425 351
L 428 351
L 431 351
L 435 351
L 438 351
L 441 351
L 444 351
L 447 351
L 450 351
L 453 350
L 456 351
L 459 350
L 462 351
L 465 351
L 468 351
L 471 351
L 474 351
L 477 351
L 480 351
L 483 351
L 486 351
L 489 351
L 492 351
L 495 351
L 498 351
L 502 351
L 505 351
L 508 351
L 511 351
L 514 351
L 517 351
L 520 351
L 523 351
L 526 351
L 529 351
L 532 351
L 535 351
L 538 351
L 541 351
L 544 351
L 547 351
L 550 351
L 553 351
L 556 350
L 559 350
L 562 350
L 565 350
L 569 351
L 572 350
L 575 351
L 578 351
L 581 351
L 584 351
L 587 351
L 590 351
L 593 351
L 596 351
L 599 351
L 602 351
L 605 351
L 608 351
L 611 350
L 614 351
L 617 351
L 620 351
L 623 351
L 626 350
L 629 351
L 633 351
L 636 351
L 639 351
L 642 351
L 645 350
L 648 351
L 651 350
L 654 349
L 657 349
L 660 350
L 663 350
L 666 351
L 669 351
L 672 351
L 675 350
L 678 351
L 681 350
L 684 350
L 687 351
L 690 351
L 693 351
L 696 350
L 700 351
L 703 351
L 706 351
L 709 351
L 712 351
L 715 351
L 718 351
L 721 350
L 724 350
L 727 350
L 730 351
L 733 350
L 736 350
L 739 350
L 742 347
L 745 349
L 748 350
L 751 348
L 754 350
L 757 351
L 760 348
L 763 350
L 767 345
L 770 350
L 773 344
L 776 341
L 779 348
L 782 346
L 785 350
L 788 344
L 791 343
L 794 341
L 797 344
L 800 346
L 803 340
L 806 342
L 809 336
L 812 333
L 815 337
L 818 340
L 821 338
L 824 335
L 827 335
L 831 334
L 834 329
L 837 336
L 840 334
L 843 338
L 846 332
L 849 337
L 852 335
L 855 339
L 858 322
L 861 334
L 864 336
L 867 323
L 870 325
L 873 337
L 876 321
L 879 333
L 882 349
L 885 323
L 888 346
L 891 337
L 894 330
L 898 347
L 901 331
L 904 341
L 907 348
L 910 346
L 913 342
L 916 348
L 919 331
L 922 344
L 925 342
L 928 343
L 931 340
L 934 351
L 937 347
L 940 349
L 943 346
L 946 351
L 949 339
L 952 344
L 955 349
L 958 346
L 961 346" style="stroke-width:1;stroke:rgba(0,217,101,1.0);fill:none"/><path  d="M 38 351
L 42 351
L 45 351
L 48 351
L 51 351
L 54 351
L 57 351
L 60 351
L 63 351
L 66 351
L 69 351
L 72 351
L 75 351
L 78 351
L 81 351
L 84 351
L 87 351
L 90 351
L 93 351
L 96 351
L 99 351
L 102 351
L 106 351
L 109 351
L 112 351
L 115 351
L 118 351
L 121 351
L 124 351
L 127 351
L 130 351
L 133 351
L 136 351
L 139 351
L 142 350
L 145 351
L 148 351
L 151 351
L 154 351
L 157 351
L 160 351
L 163 350
L 166 351
L 169 351
L 173 351
L 176 351
L 179 351
L 182 351
L 185 351
L 188 351
L 191 350
L 194 350
L 197 351
L 200 350
L 203 350
L 206 351
L 209 351
L 212 351
L 215 351
L 218 351
L 221 351
L 224 351
L 227 351
L 230 351
L 233 351
L 237 351
L 240 351
L 243 351
L 246 351
L 249 351
L 252 351
L 255 351
L 258 351
L 261 351
L 264 351
L 267 351
L 270 351
L 273 351
L 276 351
L 279 351
L 282 351
L 285 351
L 288 351
L 291 351
L 294 351
L 297 351
L 300 351
L 304 351
L 307 351
L 310 351
L 313 351
L 316 351
L 319 351
L 322 351
L 325 351
L 328 351
L 331 351
L 334 351
L 337 351
L 340 351
L 343 351
L 346 351
L 349 351
L 352 351
L 355 351
L 358 351
L 361 351
L 364 351
L 367 351
L 371 351
L 374 351
L 377 351
L 380 351
L 383 351
L 386 351
L 389 351
L 392 351
L 395 351
L 398 351
L 401 351
L 404 351
L 407 351
L 410 351
L 413 351
L 416 351
L 419 351
L 422 351
L 425 351
L 428 351
L 431 351
L 435 351
L 438 351
L 441 351
L 444 351
L 447 351
L 450 351
L 453 351
L 456 351
L 459 351
L 462 351
L 465 351
L 468 351
L 471 351
L 474 351
L 477 351
L 480 351
L 483 351
L 486 351
L 489 351
L 492 351
L 495 351
L 498 351
L 502 351
L 505 351
L 508 351
L 511 351
L 514 351
L 517 351
L 520 351
L 523 351
L 526 351
L 529 351
L 532 351
L 535 351
L 538 351
L 541 351
L 544 351
L 547 351
L 550 351
L 553 351
L 556 351
L 559 351
L 562 351
L 565 351
L 569 351
L 572 351
L 575 351
L 578 351
L 581 351
L 584 351
L 587 351
L 590 351
L 593 351
L 596 351
L 599 351
L 602 351
L 605 351
L 608 351
L 611 351
L 614 351
L 617 351
L 620 351
L 623 351
L 626 351
L 629 351
L 633 351
L 636 351
L 639 351
L 642 351
L 645 351
L 648 351
L 651 351
L 654 351
L 657 351
L 660 351
L 663 351
L 666 351
L 669 351
L 672 351
L 675 351
L 678 351
L 681 351
L 684 351
L 687 351
L 690 351
L 693 351
L 696 351
L 700 351
L 703 351
L 706 351
L 709 351
L 712 351
L 715 351
L 718 351
L 721 351
L 724 351
L 727 351
L 730 351
L 733 351
L 736 351
L 739 351
L 742 351
L 745 351
L 748 351
L 751 351
L 754 351
L 757 351
L 760 351
L 763 351
L 767 351
L 770 351
L 773 351
L 776 351
L 779 351
L 782 351
L 785 351
L 788 351
L 791 351
L 794 351
L 797 351
L 800 351
L 803 351
L 806 351
L 809 351
L 812 351
L 815 351
L 818 351
L 821 351
L 824 351
L 827 351
L 831 350
L 834 351
L 837 350
L 840 350
L 843 351
L 846 350
L 849 351
L 852 351
L 855 351
L 858 351
L 861 351
L 864 351
L 867 350
L 870 350
L 873 351
L 876 350
L 879 350
L 882 351
L 885 351
L 888 350
L 891 351
L 894 350
L 898 350
L 901 350
L 904 351
L 907 351
L 910 351
L 913 350
L 916 350
L 919 351
L 922 351
L 925 350
L 928 351
L 931 351
L 934 351
L 937 351
L 940 351
L 943 351
L 946 350
L 949 350
L 952 351
L 955 351
L 958 351
L 961 351" style="stroke-width:1;stroke:rgba(217,0,116,1.0);fill:none"/><text x="423" y="33" style="stroke-width:0;stroke:none;fill:rgba(51,51,51,1.0);font-size:23.0px;font-family:'Roboto Medium',sans-serif">Lienz 25.12.2020</text><path  d="M 38 11
L 251 11
L 251 91
L 38 91
L 38 11" style="stroke-width:1;stroke:rgba(51,51,51,1.0);fill:rgba(255,255,255,1.0)"/><text x="43" y="26" style="stroke-width:0;stroke:none;fill:rgba(51,51,51,1.0);font-size:10.2px;font-family:'Roboto Medium',sans-serif">Sieben Tage Durschnitt Inzidenz Fälle</text><path  d="M 221 21
L 241 21" style="stroke-width:1;stroke:rgba(0,116,217,1.0);fill:none"/><text x="43" y="56" style="stroke-width:0;stroke:none;fill:rgba(51,51,51,1.0);font-size:10.2px;font-family:'Roboto Medium',sans-serif">Anzahl Faelle</text><path  d="M 110 51
L 241 51" style="stroke-width:1;stroke:rgba(0,217,101,1.0);fill:none"/><text x="43" y="86" style="stroke-width:0;stroke:none;fill:rgba(51,51,51,1.0);font-size:10.2px;font-family:'Roboto Medium',sans-serif">Anzahl Tot</text><path  d="M 98 81
L 241 81" style="stroke-width:1;stroke:rgba(217,0,116,1.0);fill:none"/></svg>