<svg xmlns="http://www.w3.org/2000/svg" xmlns:xlink="http://www.w3.org/1999/xlink" width="1024" height="400">\n<path  d="M 0 0
L 1024 0
L 1024 400
L 0 400
L 0 0" style="stroke-width:0;stroke:rgba(255,255,255,1.0);fill:rgba(255,255,255,1.0)"/><path  d="M 38 11
L 969 11
L 969 351
L 38 351
L 38 11" style="stroke-width:0;stroke:rgba(255,255,255,1.0);fill:rgba(255,255,255,1.0)"/><path  d="M 38 351
L 969 351" style="stroke-width:1;stroke:rgba(51,51,51,1.0);fill:none"/><path  d="M 38 351
L 38 356" style="stroke-width:1;stroke:rgba(51,51,51,1.0);fill:none"/><text x="5" y="373" style="stroke-width:0;stroke:none;fill:rgba(51,51,51,1.0);font-size:12.8px;font-family:'Roboto Medium',sans-serif">2020-02-26</text><path  d="M 155 351
L 155 356" style="stroke-width:1;stroke:rgba(51,51,51,1.0);fill:none"/><text x="122" y="373" style="stroke-width:0;stroke:none;fill:rgba(51,51,51,1.0);font-size:12.8px;font-family:'Roboto Medium',sans-serif">2020-04-08</text><path  d="M 271 351
L 271 356" style="stroke-width:1;stroke:rgba(51,51,51,1.0);fill:none"/><text x="238" y="373" style="stroke-width:0;stroke:none;fill:rgba(51,51,51,1.0);font-size:12.8px;font-family:'Roboto Medium',sans-serif">2020-05-21</text><path  d="M 388 351
L 388 356" style="stroke-width:1;stroke:rgba(51,51,51,1.0);fill:none"/><text x="355" y="373" style="stroke-width:0;stroke:none;fill:rgba(51,51,51,1.0);font-size:12.8px;font-family:'Roboto Medium',sans-serif">2020-07-02</text><path  d="M 504 351
L 504 356" style="stroke-width:1;stroke:rgba(51,51,51,1.0);fill:none"/><text x="471" y="373" style="stroke-width:0;stroke:none;fill:rgba(51,51,51,1.0);font-size:12.8px;font-family:'Roboto Medium',sans-serif">2020-08-14</text><path  d="M 620 351
L 620 356" style="stroke-width:1;stroke:rgba(51,51,51,1.0);fill:none"/><text x="587" y="373" style="stroke-width:0;stroke:none;fill:rgba(51,51,51,1.0);font-size:12.8px;font-family:'Roboto Medium',sans-serif">2020-09-25</text><path  d="M 737 351
L 737 356" style="stroke-width:1;stroke:rgba(51,51,51,1.0);fill:none"/><text x="704" y="373" style="stroke-width:0;stroke:none;fill:rgba(51,51,51,1.0);font-size:12.8px;font-family:'Roboto Medium',sans-serif">2020-11-07</text><path  d="M 853 351
L 853 356" style="stroke-width:1;stroke:rgba(51,51,51,1.0);fill:none"/><text x="820" y="373" style="stroke-width:0;stroke:none;fill:rgba(51,51,51,1.0);font-size:12.8px;font-family:'Roboto Medium',sans-serif">2020-12-19</text><path  d="M 969 351
L 969 356" style="stroke-width:1;stroke:rgba(51,51,51,1.0);fill:none"/><text x="936" y="373" style="stroke-width:0;stroke:none;fill:rgba(51,51,51,1.0);font-size:12.8px;font-family:'Roboto Medium',sans-serif">2021-01-31</text><text x="485" y="395" style="stroke-width:0;stroke:none;fill:rgba(51,51,51,1.0);font-size:12.8px;font-family:'Roboto Medium',sans-serif">Datum</text><path  d="M 970 351
L 970 11" style="stroke-width:1;stroke:rgba(51,51,51,1.0);fill:none"/><path  d="M 970 351
L 975 351" style="stroke-width:1;stroke:rgba(51,51,51,1.0);fill:none"/><text x="980" y="357" style="stroke-width:0;stroke:none;fill:rgba(51,51,51,1.0);font-size:12.8px;font-family:'Roboto Medium',sans-serif">0.00</text><path  d="M 970 308
L 975 308" style="stroke-width:1;stroke:rgba(51,51,51,1.0);fill:none"/><text x="980" y="314" style="stroke-width:0;stroke:none;fill:rgba(51,51,51,1.0);font-size:12.8px;font-family:'Roboto Medium',sans-serif">78.00</text><path  d="M 970 266
L 975 266" style="stroke-width:1;stroke:rgba(51,51,51,1.0);fill:none"/><text x="980" y="272" style="stroke-width:0;stroke:none;fill:rgba(51,51,51,1.0);font-size:12.8px;font-family:'Roboto Medium',sans-serif">155.00</text><path  d="M 970 223
L 975 223" style="stroke-width:1;stroke:rgba(51,51,51,1.0);fill:none"/><text x="980" y="229" style="stroke-width:0;stroke:none;fill:rgba(51,51,51,1.0);font-size:12.8px;font-family:'Roboto Medium',sans-serif">233.00</text><path  d="M 970 181
L 975 181" style="stroke-width:1;stroke:rgba(51,51,51,1.0);fill:none"/><text x="980" y="187" style="stroke-width:0;stroke:none;fill:rgba(51,51,51,1.0);font-size:12.8px;font-family:'Roboto Medium',sans-serif">310.00</text><path  d="M 970 138
L 975 138" style="stroke-width:1;stroke:rgba(51,51,51,1.0);fill:none"/><text x="980" y="144" style="stroke-width:0;stroke:none;fill:rgba(51,51,51,1.0);font-size:12.8px;font-family:'Roboto Medium',sans-serif">388.00</text><path  d="M 970 96
L 975 96" style="stroke-width:1;stroke:rgba(51,51,51,1.0);fill:none"/><text x="980" y="102" style="stroke-width:0;stroke:none;fill:rgba(51,51,51,1.0);font-size:12.8px;font-family:'Roboto Medium',sans-serif">465.00</text><path  d="M 970 53
L 975 53" style="stroke-width:1;stroke:rgba(51,51,51,1.0);fill:none"/><text x="980" y="59" style="stroke-width:0;stroke:none;fill:rgba(51,51,51,1.0);font-size:12.8px;font-family:'Roboto Medium',sans-serif">543.00</text><path  d="M 970 11
L 975 11" style="stroke-width:1;stroke:rgba(51,51,51,1.0);fill:none"/><text x="980" y="17" style="stroke-width:0;stroke:none;fill:rgba(51,51,51,1.0);font-size:12.8px;font-family:'Roboto Medium',sans-serif">620.00</text><path  d="M 38 351
L 41 351
L 44 351
L 47 351
L 49 351
L 52 351
L 55 351
L 58 351
L 60 351
L 63 351
L 66 351
L 69 351
L 71 351
L 74 351
L 77 351
L 80 350
L 82 349
L 85 349
L 88 347
L 91 344
L 93 342
L 96 340
L 99 339
L 101 334
L 104 331
L 107 328
L 110 330
L 112 331
L 115 331
L 118 327
L 121 331
L 123 333
L 126 337
L 129 337
L 132 339
L 134 336
L 137 339
L 140 339
L 143 341
L 145 342
L 148 342
L 151 339
L 154 342
L 156 342
L 159 344
L 162 343
L 164 343
L 167 344
L 170 346
L 173 348
L 175 348
L 178 348
L 181 348
L 184 348
L 186 348
L 189 348
L 192 348
L 195 348
L 197 348
L 200 348
L 203 348
L 206 348
L 208 349
L 211 349
L 214 350
L 216 351
L 219 351
L 222 351
L 225 351
L 227 351
L 230 351
L 233 351
L 236 351
L 238 351
L 241 351
L 244 351
L 247 351
L 249 351
L 252 351
L 255 351
L 258 351
L 260 351
L 263 351
L 266 351
L 269 351
L 271 351
L 274 351
L 277 351
L 279 351
L 282 351
L 285 351
L 288 351
L 290 351
L 293 351
L 296 351
L 299 351
L 301 351
L 304 351
L 307 351
L 310 351
L 312 351
L 315 351
L 318 351
L 321 351
L 323 351
L 326 351
L 329 351
L 331 351
L 334 351
L 337 351
L 340 351
L 342 351
L 345 351
L 348 351
L 351 351
L 353 351
L 356 351
L 359 351
L 362 351
L 364 351
L 367 351
L 370 351
L 373 351
L 375 351
L 378 351
L 381 351
L 384 351
L 386 351
L 389 351
L 392 351
L 394 351
L 397 351
L 400 350
L 403 349
L 405 349
L 408 349
L 411 349
L 414 349
L 416 348
L 419 349
L 422 348
L 425 348
L 427 347
L 430 347
L 433 346
L 436 344
L 438 342
L 441 344
L 444 344
L 446 344
L 449 344
L 452 345
L 455 348
L 457 350
L 460 350
L 463 351
L 466 351
L 468 351
L 471 351
L 474 351
L 477 351
L 479 351
L 482 347
L 485 347
L 488 346
L 490 346
L 493 346
L 496 346
L 499 346
L 501 348
L 504 347
L 507 348
L 509 348
L 512 348
L 515 348
L 518 348
L 520 349
L 523 350
L 526 350
L 529 349
L 531 349
L 534 347
L 537 346
L 540 346
L 542 344
L 545 344
L 548 345
L 551 345
L 553 347
L 556 348
L 559 348
L 562 350
L 564 350
L 567 350
L 570 350
L 572 349
L 575 348
L 578 346
L 581 345
L 583 344
L 586 344
L 589 343
L 592 340
L 594 339
L 597 340
L 600 342
L 603 339
L 605 337
L 608 337
L 611 339
L 614 337
L 616 339
L 619 335
L 622 336
L 624 336
L 627 335
L 630 335
L 633 334
L 635 331
L 638 331
L 641 331
L 644 331
L 646 334
L 649 333
L 652 333
L 655 333
L 657 333
L 660 332
L 663 334
L 666 327
L 668 328
L 671 329
L 674 327
L 677 325
L 679 324
L 682 315
L 685 313
L 687 309
L 690 297
L 693 281
L 696 262
L 698 250
L 701 233
L 704 229
L 707 216
L 709 196
L 712 176
L 715 169
L 718 155
L 720 165
L 723 153
L 726 118
L 729 102
L 731 70
L 734 52
L 737 46
L 739 19
L 742 19
L 745 13
L 748 24
L 750 60
L 753 76
L 756 95
L 759 125
L 761 129
L 764 123
L 767 143
L 770 116
L 772 86
L 775 96
L 778 104
L 781 85
L 783 100
L 786 95
L 789 128
L 792 158
L 794 145
L 797 145
L 800 167
L 802 189
L 805 194
L 808 211
L 811 214
L 813 220
L 816 220
L 819 221
L 822 243
L 824 242
L 827 247
L 830 263
L 833 274
L 835 261
L 838 267
L 841 262
L 844 264
L 846 263
L 849 262
L 852 257
L 854 254
L 857 245
L 860 222
L 863 222
L 865 219
L 868 220
L 871 219
L 874 229
L 876 211
L 879 213
L 882 206
L 885 198
L 887 202
L 890 196
L 893 188
L 896 196
L 898 198
L 901 217
L 904 222
L 907 203
L 909 202
L 912 205
L 915 205
L 917 207
L 920 200
L 923 203
L 926 202
L 928 204
L 931 205
L 934 203
L 937 219
L 939 221
L 942 222
L 945 234
L 948 242
L 950 257
L 953 277
L 956 270
L 959 277
L 961 267
L 964 271
L 967 271
L 969 264" style="stroke-width:1;stroke:rgba(0,116,217,1.0);fill:none"/><path  d="M 38 351
L 41 351
L 44 351
L 47 351
L 49 351
L 52 351
L 55 351
L 58 351
L 60 351
L 63 351
L 66 351
L 69 351
L 71 351
L 74 351
L 77 351
L 80 350
L 82 350
L 85 351
L 88 349
L 91 348
L 93 348
L 96 349
L 99 349
L 101 346
L 104 348
L 107 346
L 110 350
L 112 349
L 115 349
L 118 347
L 121 349
L 123 349
L 126 349
L 129 350
L 132 351
L 134 347
L 137 349
L 140 349
L 143 351
L 145 351
L 148 350
L 151 348
L 154 349
L 156 349
L 159 351
L 162 350
L 164 351
L 167 351
L 170 350
L 173 351
L 175 350
L 178 350
L 181 351
L 184 350
L 186 351
L 189 350
L 192 351
L 195 350
L 197 350
L 200 351
L 203 351
L 206 351
L 208 351
L 211 351
L 214 351
L 216 351
L 219 351
L 222 351
L 225 351
L 227 351
L 230 351
L 233 351
L 236 351
L 238 351
L 241 351
L 244 351
L 247 351
L 249 351
L 252 351
L 255 351
L 258 351
L 260 351
L 263 351
L 266 351
L 269 351
L 271 351
L 274 351
L 277 351
L 279 351
L 282 351
L 285 351
L 288 351
L 290 351
L 293 351
L 296 351
L 299 351
L 301 351
L 304 351
L 307 351
L 310 351
L 312 351
L 315 351
L 318 351
L 321 351
L 323 351
L 326 351
L 329 351
L 331 351
L 334 351
L 337 351
L 340 351
L 342 351
L 345 351
L 348 351
L 351 351
L 353 351
L 356 351
L 359 351
L 362 351
L 364 351
L 367 351
L 370 351
L 373 351
L 375 351
L 378 351
L 381 351
L 384 351
L 386 351
L 389 351
L 392 351
L 394 351
L 397 351
L 400 350
L 403 350
L 405 351
L 408 351
L 411 351
L 414 351
L 416 350
L 419 351
L 422 349
L 425 351
L 427 350
L 430 351
L 433 350
L 436 348
L 438 349
L 441 351
L 444 350
L 446 351
L 449 351
L 452 351
L 455 351
L 457 351
L 460 351
L 463 351
L 466 351
L 468 351
L 471 351
L 474 351
L 477 351
L 479 351
L 482 348
L 485 351
L 488 350
L 490 351
L 493 351
L 496 350
L 499 351
L 501 350
L 504 349
L 507 351
L 509 351
L 512 351
L 515 351
L 518 351
L 520 351
L 523 350
L 526 351
L 529 350
L 531 351
L 534 349
L 537 349
L 540 351
L 542 349
L 545 351
L 548 351
L 551 351
L 553 351
L 556 350
L 559 351
L 562 351
L 564 351
L 567 351
L 570 351
L 572 350
L 575 349
L 578 349
L 581 349
L 583 350
L 586 350
L 589 350
L 592 348
L 594 349
L 597 349
L 600 351
L 603 348
L 605 348
L 608 349
L 611 349
L 614 348
L 616 351
L 619 348
L 622 349
L 624 348
L 627 348
L 630 350
L 633 347
L 635 348
L 638 348
L 641 349
L 644 349
L 646 351
L 649 349
L 652 347
L 655 347
L 657 348
L 660 348
L 663 351
L 666 345
L 668 349
L 671 348
L 674 346
L 677 346
L 679 348
L 682 343
L 685 343
L 687 346
L 690 339
L 693 333
L 696 331
L 698 338
L 701 330
L 704 340
L 707 335
L 709 323
L 712 318
L 715 325
L 718 327
L 720 337
L 723 331
L 726 308
L 729 310
L 731 292
L 734 310
L 737 323
L 739 316
L 742 331
L 745 303
L 748 319
L 750 320
L 753 324
L 756 337
L 759 340
L 761 335
L 764 298
L 767 335
L 770 298
L 772 300
L 775 346
L 778 346
L 781 320
L 783 309
L 786 331
L 789 325
L 792 324
L 794 335
L 797 346
L 800 338
L 802 327
L 805 334
L 808 339
L 811 326
L 813 339
L 816 346
L 819 339
L 822 344
L 824 333
L 827 343
L 830 339
L 833 348
L 835 336
L 838 343
L 841 341
L 844 335
L 846 342
L 849 338
L 852 344
L 854 334
L 857 336
L 860 323
L 863 335
L 865 340
L 868 338
L 871 343
L 874 341
L 876 322
L 879 324
L 882 329
L 885 334
L 887 342
L 890 338
L 893 335
L 896 329
L 898 326
L 901 344
L 904 337
L 907 327
L 909 338
L 912 337
L 915 328
L 917 328
L 920 338
L 923 340
L 926 326
L 928 340
L 931 337
L 934 327
L 937 341
L 939 340
L 942 341
L 945 336
L 948 346
L 950 349
L 953 343
L 956 335
L 959 345
L 961 333
L 964 340
L 967 346
L 969 343" style="stroke-width:1;stroke:rgba(0,217,101,1.0);fill:none"/><path  d="M 38 351
L 41 351
L 44 351
L 47 351
L 49 351
L 52 351
L 55 351
L 58 351
L 60 351
L 63 351
L 66 351
L 69 351
L 71 351
L 74 351
L 77 351
L 80 351
L 82 351
L 85 351
L 88 351
L 91 351
L 93 351
L 96 351
L 99 351
L 101 351
L 104 351
L 107 351
L 110 351
L 112 351
L 115 351
L 118 351
L 121 350
L 123 351
L 126 351
L 129 351
L 132 351
L 134 351
L 137 351
L 140 351
L 143 351
L 145 351
L 148 351
L 151 351
L 154 351
L 156 351
L 159 351
L 162 351
L 164 351
L 167 351
L 170 351
L 173 351
L 175 351
L 178 351
L 181 351
L 184 351
L 186 351
L 189 351
L 192 351
L 195 351
L 197 351
L 200 351
L 203 351
L 206 351
L 208 351
L 211 351
L 214 351
L 216 351
L 219 351
L 222 351
L 225 351
L 227 351
L 230 351
L 233 351
L 236 351
L 238 351
L 241 351
L 244 351
L 247 351
L 249 351
L 252 351
L 255 351
L 258 351
L 260 351
L 263 351
L 266 351
L 269 351
L 271 351
L 274 351
L 277 351
L 279 351
L 282 351
L 285 351
L 288 351
L 290 351
L 293 351
L 296 351
L 299 351
L 301 351
L 304 351
L 307 351
L 310 351
L 312 351
L 315 351
L 318 351
L 321 351
L 323 351
L 326 351
L 329 351
L 331 351
L 334 351
L 337 351
L 340 351
L 342 351
L 345 351
L 348 351
L 351 351
L 353 351
L 356 351
L 359 351
L 362 351
L 364 351
L 367 351
L 370 351
L 373 351
L 375 351
L 378 351
L 381 351
L 384 351
L 386 351
L 389 351
L 392 351
L 394 351
L 397 351
L 400 351
L 403 351
L 405 351
L 408 351
L 411 351
L 414 351
L 416 351
L 419 351
L 422 351
L 425 351
L 427 351
L 430 351
L 433 351
L 436 350
L 438 351
L 441 351
L 444 351
L 446 351
L 449 351
L 452 351
L 455 351
L 457 351
L 460 351
L 463 351
L 466 351
L 468 351
L 471 351
L 474 351
L 477 351
L 479 351
L 482 351
L 485 351
L 488 351
L 490 351
L 493 351
L 496 351
L 499 351
L 501 351
L 504 351
L 507 351
L 509 351
L 512 351
L 515 351
L 518 351
L 520 351
L 523 351
L 526 351
L 529 351
L 531 351
L 534 351
L 537 351
L 540 351
L 542 351
L 545 351
L 548 351
L 551 351
L 553 351
L 556 351
L 559 351
L 562 351
L 564 351
L 567 351
L 570 351
L 572 351
L 575 351
L 578 351
L 581 351
L 583 351
L 586 351
L 589 351
L 592 351
L 594 351
L 597 351
L 600 351
L 603 351
L 605 351
L 608 351
L 611 351
L 614 351
L 616 351
L 619 351
L 622 351
L 624 351
L 627 351
L 630 351
L 633 351
L 635 351
L 638 351
L 641 351
L 644 351
L 646 351
L 649 351
L 652 351
L 655 351
L 657 351
L 660 351
L 663 351
L 666 351
L 668 351
L 671 351
L 674 351
L 677 351
L 679 351
L 682 351
L 685 351
L 687 351
L 690 351
L 693 351
L 696 351
L 698 351
L 701 351
L 704 351
L 707 350
L 709 351
L 712 350
L 715 350
L 718 351
L 720 351
L 723 351
L 726 351
L 729 351
L 731 350
L 734 350
L 737 350
L 739 351
L 742 349
L 745 350
L 748 350
L 750 349
L 753 349
L 756 351
L 759 349
L 761 351
L 764 350
L 767 350
L 770 349
L 772 350
L 775 350
L 778 350
L 781 349
L 783 349
L 786 350
L 789 349
L 792 348
L 794 351
L 797 351
L 800 349
L 802 349
L 805 351
L 808 349
L 811 348
L 813 350
L 816 351
L 819 351
L 822 350
L 824 348
L 827 350
L 830 351
L 833 351
L 835 349
L 838 350
L 841 350
L 844 350
L 846 350
L 849 349
L 852 351
L 854 351
L 857 351
L 860 351
L 863 350
L 865 351
L 868 350
L 871 350
L 874 351
L 876 351
L 879 351
L 882 350
L 885 349
L 887 351
L 890 350
L 893 349
L 896 349
L 898 350
L 901 351
L 904 350
L 907 351
L 909 351
L 912 351
L 915 351
L 917 351
L 920 351
L 923 351
L 926 350
L 928 349
L 931 349
L 934 351
L 937 351
L 939 351
L 942 351
L 945 349
L 948 351
L 950 350
L 953 350
L 956 350
L 959 351
L 961 351
L 964 350
L 967 351
L 969 351" style="stroke-width:1;stroke:rgba(217,0,116,1.0);fill:none"/><text x="417" y="33" style="stroke-width:0;stroke:none;fill:rgba(51,51,51,1.0);font-size:23.0px;font-family:'Roboto Medium',sans-serif">Liezen 31.01.2021</text><path  d="M 38 11
L 251 11
L 251 91
L 38 91
L 38 11" style="stroke-width:1;stroke:rgba(51,51,51,1.0);fill:rgba(255,255,255,1.0)"/><text x="43" y="26" style="stroke-width:0;stroke:none;fill:rgba(51,51,51,1.0);font-size:10.2px;font-family:'Roboto Medium',sans-serif">Sieben Tage Durschnitt Inzidenz Fälle</text><path  d="M 221 21
L 241 21" style="stroke-width:1;stroke:rgba(0,116,217,1.0);fill:none"/><text x="43" y="56" style="stroke-width:0;stroke:none;fill:rgba(51,51,51,1.0);font-size:10.2px;font-family:'Roboto Medium',sans-serif">Anzahl Faelle</text><path  d="M 110 51
L 241 51" style="stroke-width:1;stroke:rgba(0,217,101,1.0);fill:none"/><text x="43" y="86" style="stroke-width:0;stroke:none;fill:rgba(51,51,51,1.0);font-size:10.2px;font-family:'Roboto Medium',sans-serif">Anzahl Tot</text><path  d="M 98 81
L 241 81" style="stroke-width:1;stroke:rgba(217,0,116,1.0);fill:none"/></svg>