<svg xmlns="http://www.w3.org/2000/svg" xmlns:xlink="http://www.w3.org/1999/xlink" width="1024" height="400">\n<path  d="M 0 0
L 1024 0
L 1024 400
L 0 400
L 0 0" style="stroke-width:0;stroke:rgba(255,255,255,1.0);fill:rgba(255,255,255,1.0)"/><path  d="M 38 11
L 969 11
L 969 351
L 38 351
L 38 11" style="stroke-width:0;stroke:rgba(255,255,255,1.0);fill:rgba(255,255,255,1.0)"/><path  d="M 38 351
L 969 351" style="stroke-width:1;stroke:rgba(51,51,51,1.0);fill:none"/><path  d="M 38 351
L 38 356" style="stroke-width:1;stroke:rgba(51,51,51,1.0);fill:none"/><text x="5" y="373" style="stroke-width:0;stroke:none;fill:rgba(51,51,51,1.0);font-size:12.8px;font-family:'Roboto Medium',sans-serif">2020-02-26</text><path  d="M 155 351
L 155 356" style="stroke-width:1;stroke:rgba(51,51,51,1.0);fill:none"/><text x="122" y="373" style="stroke-width:0;stroke:none;fill:rgba(51,51,51,1.0);font-size:12.8px;font-family:'Roboto Medium',sans-serif">2020-04-19</text><path  d="M 271 351
L 271 356" style="stroke-width:1;stroke:rgba(51,51,51,1.0);fill:none"/><text x="238" y="373" style="stroke-width:0;stroke:none;fill:rgba(51,51,51,1.0);font-size:12.8px;font-family:'Roboto Medium',sans-serif">2020-06-12</text><path  d="M 388 351
L 388 356" style="stroke-width:1;stroke:rgba(51,51,51,1.0);fill:none"/><text x="355" y="373" style="stroke-width:0;stroke:none;fill:rgba(51,51,51,1.0);font-size:12.8px;font-family:'Roboto Medium',sans-serif">2020-08-05</text><path  d="M 504 351
L 504 356" style="stroke-width:1;stroke:rgba(51,51,51,1.0);fill:none"/><text x="471" y="373" style="stroke-width:0;stroke:none;fill:rgba(51,51,51,1.0);font-size:12.8px;font-family:'Roboto Medium',sans-serif">2020-09-28</text><path  d="M 620 351
L 620 356" style="stroke-width:1;stroke:rgba(51,51,51,1.0);fill:none"/><text x="587" y="373" style="stroke-width:0;stroke:none;fill:rgba(51,51,51,1.0);font-size:12.8px;font-family:'Roboto Medium',sans-serif">2020-11-20</text><path  d="M 737 351
L 737 356" style="stroke-width:1;stroke:rgba(51,51,51,1.0);fill:none"/><text x="704" y="373" style="stroke-width:0;stroke:none;fill:rgba(51,51,51,1.0);font-size:12.8px;font-family:'Roboto Medium',sans-serif">2021-01-13</text><path  d="M 853 351
L 853 356" style="stroke-width:1;stroke:rgba(51,51,51,1.0);fill:none"/><text x="820" y="373" style="stroke-width:0;stroke:none;fill:rgba(51,51,51,1.0);font-size:12.8px;font-family:'Roboto Medium',sans-serif">2021-03-08</text><path  d="M 969 351
L 969 356" style="stroke-width:1;stroke:rgba(51,51,51,1.0);fill:none"/><text x="936" y="373" style="stroke-width:0;stroke:none;fill:rgba(51,51,51,1.0);font-size:12.8px;font-family:'Roboto Medium',sans-serif">2021-05-01</text><text x="485" y="395" style="stroke-width:0;stroke:none;fill:rgba(51,51,51,1.0);font-size:12.8px;font-family:'Roboto Medium',sans-serif">Datum</text><path  d="M 970 351
L 970 11" style="stroke-width:1;stroke:rgba(51,51,51,1.0);fill:none"/><path  d="M 970 351
L 975 351" style="stroke-width:1;stroke:rgba(51,51,51,1.0);fill:none"/><text x="980" y="357" style="stroke-width:0;stroke:none;fill:rgba(51,51,51,1.0);font-size:12.8px;font-family:'Roboto Medium',sans-serif">0.00</text><path  d="M 970 308
L 975 308" style="stroke-width:1;stroke:rgba(51,51,51,1.0);fill:none"/><text x="980" y="314" style="stroke-width:0;stroke:none;fill:rgba(51,51,51,1.0);font-size:12.8px;font-family:'Roboto Medium',sans-serif">78.00</text><path  d="M 970 266
L 975 266" style="stroke-width:1;stroke:rgba(51,51,51,1.0);fill:none"/><text x="980" y="272" style="stroke-width:0;stroke:none;fill:rgba(51,51,51,1.0);font-size:12.8px;font-family:'Roboto Medium',sans-serif">155.00</text><path  d="M 970 223
L 975 223" style="stroke-width:1;stroke:rgba(51,51,51,1.0);fill:none"/><text x="980" y="229" style="stroke-width:0;stroke:none;fill:rgba(51,51,51,1.0);font-size:12.8px;font-family:'Roboto Medium',sans-serif">233.00</text><path  d="M 970 181
L 975 181" style="stroke-width:1;stroke:rgba(51,51,51,1.0);fill:none"/><text x="980" y="187" style="stroke-width:0;stroke:none;fill:rgba(51,51,51,1.0);font-size:12.8px;font-family:'Roboto Medium',sans-serif">310.00</text><path  d="M 970 138
L 975 138" style="stroke-width:1;stroke:rgba(51,51,51,1.0);fill:none"/><text x="980" y="144" style="stroke-width:0;stroke:none;fill:rgba(51,51,51,1.0);font-size:12.8px;font-family:'Roboto Medium',sans-serif">388.00</text><path  d="M 970 96
L 975 96" style="stroke-width:1;stroke:rgba(51,51,51,1.0);fill:none"/><text x="980" y="102" style="stroke-width:0;stroke:none;fill:rgba(51,51,51,1.0);font-size:12.8px;font-family:'Roboto Medium',sans-serif">465.00</text><path  d="M 970 53
L 975 53" style="stroke-width:1;stroke:rgba(51,51,51,1.0);fill:none"/><text x="980" y="59" style="stroke-width:0;stroke:none;fill:rgba(51,51,51,1.0);font-size:12.8px;font-family:'Roboto Medium',sans-serif">543.00</text><path  d="M 970 11
L 975 11" style="stroke-width:1;stroke:rgba(51,51,51,1.0);fill:none"/><text x="980" y="17" style="stroke-width:0;stroke:none;fill:rgba(51,51,51,1.0);font-size:12.8px;font-family:'Roboto Medium',sans-serif">620.00</text><path  d="M 38 351
L 41 351
L 43 351
L 45 351
L 47 351
L 49 351
L 51 351
L 54 351
L 56 351
L 58 351
L 60 351
L 62 351
L 64 351
L 67 351
L 69 351
L 71 350
L 73 349
L 75 349
L 77 347
L 80 344
L 82 342
L 84 340
L 86 339
L 88 334
L 90 331
L 93 328
L 95 330
L 97 331
L 99 331
L 101 327
L 103 331
L 106 333
L 108 337
L 110 337
L 112 339
L 114 336
L 116 339
L 119 339
L 121 341
L 123 342
L 125 342
L 127 339
L 129 342
L 132 342
L 134 344
L 136 343
L 138 343
L 140 344
L 142 346
L 145 348
L 147 348
L 149 348
L 151 348
L 153 348
L 155 348
L 158 348
L 160 348
L 162 348
L 164 348
L 166 348
L 168 348
L 171 348
L 173 349
L 175 349
L 177 350
L 179 351
L 181 351
L 184 351
L 186 351
L 188 351
L 190 351
L 192 351
L 194 351
L 197 351
L 199 351
L 201 351
L 203 351
L 205 351
L 207 351
L 210 351
L 212 351
L 214 351
L 216 351
L 218 351
L 220 351
L 223 351
L 225 351
L 227 351
L 229 351
L 231 351
L 233 351
L 236 351
L 238 351
L 240 351
L 242 351
L 244 351
L 246 351
L 249 351
L 251 351
L 253 351
L 255 351
L 257 351
L 259 351
L 262 351
L 264 351
L 266 351
L 268 351
L 270 351
L 272 351
L 274 351
L 277 351
L 279 351
L 281 351
L 283 351
L 285 351
L 287 351
L 290 351
L 292 351
L 294 351
L 296 351
L 298 351
L 300 351
L 303 351
L 305 351
L 307 351
L 309 351
L 311 351
L 313 351
L 316 351
L 318 351
L 320 351
L 322 351
L 324 350
L 326 349
L 329 349
L 331 349
L 333 349
L 335 349
L 337 348
L 339 349
L 342 348
L 344 348
L 346 347
L 348 347
L 350 346
L 352 344
L 355 342
L 357 344
L 359 344
L 361 344
L 363 344
L 365 345
L 368 348
L 370 350
L 372 350
L 374 351
L 376 351
L 378 351
L 381 351
L 383 351
L 385 351
L 387 351
L 389 347
L 391 347
L 394 346
L 396 346
L 398 346
L 400 346
L 402 346
L 404 348
L 407 347
L 409 348
L 411 348
L 413 348
L 415 348
L 417 348
L 420 349
L 422 350
L 424 350
L 426 349
L 428 349
L 430 347
L 433 346
L 435 346
L 437 344
L 439 344
L 441 345
L 443 345
L 446 347
L 448 348
L 450 348
L 452 350
L 454 350
L 456 350
L 459 350
L 461 349
L 463 348
L 465 346
L 467 345
L 469 344
L 472 344
L 474 343
L 476 340
L 478 339
L 480 340
L 482 342
L 485 339
L 487 337
L 489 337
L 491 339
L 493 337
L 495 339
L 498 335
L 500 336
L 502 336
L 504 335
L 506 335
L 508 334
L 510 331
L 513 331
L 515 331
L 517 331
L 519 334
L 521 333
L 523 333
L 526 333
L 528 333
L 530 332
L 532 334
L 534 327
L 536 328
L 539 329
L 541 327
L 543 325
L 545 324
L 547 315
L 549 313
L 552 308
L 554 296
L 556 280
L 558 261
L 560 250
L 562 233
L 565 229
L 567 216
L 569 196
L 571 176
L 573 168
L 575 154
L 578 164
L 580 152
L 582 118
L 584 101
L 586 70
L 588 52
L 591 46
L 593 19
L 595 19
L 597 12
L 599 23
L 601 59
L 604 75
L 606 94
L 608 123
L 610 127
L 612 122
L 614 143
L 617 115
L 619 85
L 621 96
L 623 104
L 625 85
L 627 100
L 630 95
L 632 128
L 634 158
L 636 145
L 638 145
L 640 167
L 643 189
L 645 194
L 647 211
L 649 214
L 651 220
L 653 220
L 656 221
L 658 243
L 660 242
L 662 247
L 664 263
L 666 274
L 669 261
L 671 267
L 673 262
L 675 264
L 677 262
L 679 261
L 682 256
L 684 253
L 686 247
L 688 224
L 690 224
L 692 220
L 695 220
L 697 219
L 699 229
L 701 209
L 703 208
L 705 201
L 708 194
L 710 200
L 712 194
L 714 187
L 716 194
L 718 199
L 721 218
L 723 222
L 725 204
L 727 203
L 729 205
L 731 207
L 734 208
L 736 202
L 738 206
L 740 207
L 742 209
L 744 208
L 746 210
L 749 229
L 751 227
L 753 229
L 755 238
L 757 242
L 759 258
L 762 274
L 764 265
L 766 275
L 768 264
L 770 270
L 772 271
L 775 263
L 777 262
L 779 268
L 781 262
L 783 275
L 785 279
L 788 285
L 790 292
L 792 298
L 794 304
L 796 306
L 798 310
L 801 318
L 803 315
L 805 317
L 807 316
L 809 317
L 811 322
L 814 324
L 816 318
L 818 317
L 820 318
L 822 300
L 824 304
L 827 297
L 829 295
L 831 289
L 833 263
L 835 260
L 837 269
L 840 260
L 842 260
L 844 262
L 846 251
L 848 271
L 850 262
L 853 260
L 855 262
L 857 270
L 859 249
L 861 257
L 863 249
L 866 250
L 868 253
L 870 253
L 872 239
L 874 247
L 876 241
L 879 247
L 881 247
L 883 240
L 885 229
L 887 224
L 889 220
L 892 240
L 894 242
L 896 229
L 898 240
L 900 253
L 902 258
L 905 251
L 907 243
L 909 231
L 911 244
L 913 240
L 915 232
L 918 236
L 920 253
L 922 231
L 924 241
L 926 244
L 928 242
L 931 244
L 933 246
L 935 240
L 937 267
L 939 271
L 941 271
L 944 272
L 946 264
L 948 265
L 950 269
L 952 266
L 954 262
L 957 264
L 959 267
L 961 282
L 963 284
L 965 281
L 967 286
L 969 289" style="stroke-width:1;stroke:rgba(0,116,217,1.0);fill:none"/><path  d="M 38 351
L 41 351
L 43 351
L 45 351
L 47 351
L 49 351
L 51 351
L 54 351
L 56 351
L 58 351
L 60 351
L 62 351
L 64 351
L 67 351
L 69 351
L 71 350
L 73 350
L 75 351
L 77 349
L 80 348
L 82 348
L 84 349
L 86 349
L 88 346
L 90 348
L 93 346
L 95 350
L 97 349
L 99 349
L 101 347
L 103 349
L 106 349
L 108 349
L 110 350
L 112 351
L 114 347
L 116 349
L 119 349
L 121 351
L 123 351
L 125 350
L 127 348
L 129 349
L 132 349
L 134 351
L 136 350
L 138 351
L 140 351
L 142 350
L 145 351
L 147 350
L 149 350
L 151 351
L 153 350
L 155 351
L 158 350
L 160 351
L 162 350
L 164 350
L 166 351
L 168 351
L 171 351
L 173 351
L 175 351
L 177 351
L 179 351
L 181 351
L 184 351
L 186 351
L 188 351
L 190 351
L 192 351
L 194 351
L 197 351
L 199 351
L 201 351
L 203 351
L 205 351
L 207 351
L 210 351
L 212 351
L 214 351
L 216 351
L 218 351
L 220 351
L 223 351
L 225 351
L 227 351
L 229 351
L 231 351
L 233 351
L 236 351
L 238 351
L 240 351
L 242 351
L 244 351
L 246 351
L 249 351
L 251 351
L 253 351
L 255 351
L 257 351
L 259 351
L 262 351
L 264 351
L 266 351
L 268 351
L 270 351
L 272 351
L 274 351
L 277 351
L 279 351
L 281 351
L 283 351
L 285 351
L 287 351
L 290 351
L 292 351
L 294 351
L 296 351
L 298 351
L 300 351
L 303 351
L 305 351
L 307 351
L 309 351
L 311 351
L 313 351
L 316 351
L 318 351
L 320 351
L 322 351
L 324 350
L 326 350
L 329 351
L 331 351
L 333 351
L 335 351
L 337 350
L 339 351
L 342 349
L 344 351
L 346 350
L 348 351
L 350 350
L 352 348
L 355 349
L 357 351
L 359 350
L 361 351
L 363 351
L 365 351
L 368 351
L 370 351
L 372 351
L 374 351
L 376 351
L 378 351
L 381 351
L 383 351
L 385 351
L 387 351
L 389 348
L 391 351
L 394 350
L 396 351
L 398 351
L 400 350
L 402 351
L 404 350
L 407 349
L 409 351
L 411 351
L 413 351
L 415 351
L 417 351
L 420 351
L 422 350
L 424 351
L 426 350
L 428 351
L 430 349
L 433 349
L 435 351
L 437 349
L 439 351
L 441 351
L 443 351
L 446 351
L 448 350
L 450 351
L 452 351
L 454 351
L 456 351
L 459 351
L 461 350
L 463 349
L 465 349
L 467 349
L 469 350
L 472 350
L 474 350
L 476 348
L 478 349
L 480 349
L 482 351
L 485 348
L 487 348
L 489 349
L 491 349
L 493 348
L 495 351
L 498 348
L 500 349
L 502 348
L 504 348
L 506 350
L 508 347
L 510 348
L 513 348
L 515 349
L 517 349
L 519 351
L 521 349
L 523 347
L 526 347
L 528 348
L 530 348
L 532 351
L 534 345
L 536 349
L 539 348
L 541 346
L 543 346
L 545 347
L 547 343
L 549 343
L 552 346
L 554 339
L 556 333
L 558 331
L 560 338
L 562 330
L 565 340
L 567 335
L 569 323
L 571 317
L 573 325
L 575 327
L 578 337
L 580 331
L 582 308
L 584 310
L 586 292
L 588 310
L 591 323
L 593 316
L 595 331
L 597 302
L 599 318
L 601 320
L 604 324
L 606 337
L 608 339
L 610 335
L 612 298
L 614 335
L 617 298
L 619 300
L 621 346
L 623 346
L 625 320
L 627 309
L 630 331
L 632 325
L 634 324
L 636 335
L 638 346
L 640 338
L 643 327
L 645 334
L 647 339
L 649 326
L 651 339
L 653 346
L 656 339
L 658 344
L 660 333
L 662 343
L 664 339
L 666 348
L 669 336
L 671 343
L 673 341
L 675 335
L 677 342
L 679 338
L 682 344
L 684 334
L 686 338
L 688 323
L 690 335
L 692 339
L 695 337
L 697 343
L 699 341
L 701 322
L 703 323
L 705 329
L 708 334
L 710 342
L 712 338
L 714 335
L 716 328
L 718 326
L 721 344
L 723 337
L 725 327
L 727 338
L 729 337
L 731 329
L 734 327
L 736 339
L 738 341
L 740 328
L 742 340
L 744 336
L 746 331
L 749 342
L 751 337
L 753 342
L 755 335
L 757 344
L 759 348
L 762 343
L 764 335
L 766 346
L 768 333
L 770 340
L 772 345
L 775 342
L 777 343
L 779 340
L 781 341
L 783 343
L 785 343
L 788 350
L 790 347
L 792 348
L 794 344
L 796 343
L 798 346
L 801 349
L 803 348
L 805 348
L 807 347
L 809 345
L 811 347
L 814 348
L 816 344
L 818 347
L 820 349
L 822 333
L 824 348
L 827 341
L 829 347
L 831 339
L 833 327
L 835 347
L 837 340
L 840 340
L 842 341
L 844 349
L 846 331
L 848 343
L 850 339
L 853 339
L 855 342
L 857 347
L 859 332
L 861 337
L 863 337
L 866 340
L 868 341
L 870 342
L 872 336
L 874 338
L 876 332
L 879 342
L 881 339
L 883 336
L 885 333
L 887 332
L 889 336
L 892 348
L 894 343
L 896 329
L 898 344
L 900 343
L 902 337
L 905 330
L 907 341
L 909 334
L 911 339
L 913 342
L 915 336
L 918 340
L 920 344
L 922 324
L 924 342
L 926 341
L 928 340
L 931 338
L 933 341
L 935 340
L 937 344
L 939 346
L 941 341
L 944 341
L 946 332
L 948 341
L 950 343
L 952 342
L 954 343
L 957 343
L 959 343
L 961 345
L 963 343
L 965 340
L 967 346
L 969 345" style="stroke-width:1;stroke:rgba(0,217,101,1.0);fill:none"/><path  d="M 38 351
L 41 351
L 43 351
L 45 351
L 47 351
L 49 351
L 51 351
L 54 351
L 56 351
L 58 351
L 60 351
L 62 351
L 64 351
L 67 351
L 69 351
L 71 351
L 73 351
L 75 351
L 77 351
L 80 351
L 82 351
L 84 351
L 86 351
L 88 351
L 90 351
L 93 351
L 95 351
L 97 351
L 99 351
L 101 351
L 103 350
L 106 351
L 108 351
L 110 351
L 112 351
L 114 351
L 116 351
L 119 351
L 121 351
L 123 351
L 125 351
L 127 351
L 129 351
L 132 351
L 134 351
L 136 351
L 138 351
L 140 351
L 142 351
L 145 351
L 147 351
L 149 351
L 151 351
L 153 351
L 155 351
L 158 351
L 160 351
L 162 351
L 164 351
L 166 351
L 168 351
L 171 351
L 173 351
L 175 351
L 177 351
L 179 351
L 181 351
L 184 351
L 186 351
L 188 351
L 190 351
L 192 351
L 194 351
L 197 351
L 199 351
L 201 351
L 203 351
L 205 351
L 207 351
L 210 351
L 212 351
L 214 351
L 216 351
L 218 351
L 220 351
L 223 351
L 225 351
L 227 351
L 229 351
L 231 351
L 233 351
L 236 351
L 238 351
L 240 351
L 242 351
L 244 351
L 246 351
L 249 351
L 251 351
L 253 351
L 255 351
L 257 351
L 259 351
L 262 351
L 264 351
L 266 351
L 268 351
L 270 351
L 272 351
L 274 351
L 277 351
L 279 351
L 281 351
L 283 351
L 285 351
L 287 351
L 290 351
L 292 351
L 294 351
L 296 351
L 298 351
L 300 351
L 303 351
L 305 351
L 307 351
L 309 351
L 311 351
L 313 351
L 316 351
L 318 351
L 320 351
L 322 351
L 324 351
L 326 351
L 329 351
L 331 351
L 333 351
L 335 351
L 337 351
L 339 351
L 342 351
L 344 351
L 346 351
L 348 351
L 350 351
L 352 350
L 355 351
L 357 351
L 359 351
L 361 351
L 363 351
L 365 351
L 368 351
L 370 351
L 372 351
L 374 351
L 376 351
L 378 351
L 381 351
L 383 351
L 385 351
L 387 351
L 389 351
L 391 351
L 394 351
L 396 351
L 398 351
L 400 351
L 402 351
L 404 351
L 407 351
L 409 351
L 411 351
L 413 351
L 415 351
L 417 351
L 420 351
L 422 351
L 424 351
L 426 351
L 428 351
L 430 351
L 433 351
L 435 351
L 437 351
L 439 351
L 441 351
L 443 351
L 446 351
L 448 351
L 450 351
L 452 351
L 454 351
L 456 351
L 459 351
L 461 351
L 463 351
L 465 351
L 467 351
L 469 351
L 472 351
L 474 351
L 476 351
L 478 351
L 480 351
L 482 351
L 485 351
L 487 351
L 489 351
L 491 351
L 493 351
L 495 351
L 498 351
L 500 351
L 502 351
L 504 351
L 506 351
L 508 351
L 510 351
L 513 351
L 515 351
L 517 351
L 519 351
L 521 351
L 523 351
L 526 351
L 528 351
L 530 351
L 532 351
L 534 351
L 536 351
L 539 351
L 541 351
L 543 351
L 545 351
L 547 351
L 549 351
L 552 351
L 554 351
L 556 351
L 558 351
L 560 351
L 562 351
L 565 351
L 567 350
L 569 351
L 571 350
L 573 350
L 575 351
L 578 351
L 580 351
L 582 351
L 584 351
L 586 350
L 588 350
L 591 350
L 593 351
L 595 349
L 597 350
L 599 350
L 601 349
L 604 349
L 606 351
L 608 349
L 610 351
L 612 350
L 614 350
L 617 349
L 619 350
L 621 350
L 623 350
L 625 349
L 627 349
L 630 350
L 632 349
L 634 348
L 636 351
L 638 351
L 640 349
L 643 349
L 645 351
L 647 349
L 649 348
L 651 350
L 653 351
L 656 351
L 658 350
L 660 348
L 662 350
L 664 351
L 666 351
L 669 349
L 671 350
L 673 350
L 675 350
L 677 350
L 679 349
L 682 351
L 684 351
L 686 351
L 688 351
L 690 350
L 692 351
L 695 350
L 697 350
L 699 351
L 701 351
L 703 351
L 705 350
L 708 349
L 710 351
L 712 350
L 714 349
L 716 349
L 718 350
L 721 351
L 723 350
L 725 351
L 727 351
L 729 351
L 731 351
L 734 351
L 736 351
L 738 351
L 740 350
L 742 349
L 744 349
L 746 351
L 749 351
L 751 351
L 753 351
L 755 349
L 757 351
L 759 350
L 762 350
L 764 350
L 766 351
L 768 351
L 770 350
L 772 351
L 775 351
L 777 351
L 779 350
L 781 350
L 783 351
L 785 351
L 788 351
L 790 351
L 792 351
L 794 351
L 796 350
L 798 351
L 801 351
L 803 351
L 805 350
L 807 351
L 809 351
L 811 351
L 814 351
L 816 351
L 818 351
L 820 351
L 822 351
L 824 351
L 827 351
L 829 350
L 831 351
L 833 351
L 835 351
L 837 350
L 840 351
L 842 351
L 844 351
L 846 351
L 848 351
L 850 351
L 853 351
L 855 351
L 857 351
L 859 351
L 861 350
L 863 351
L 866 351
L 868 351
L 870 351
L 872 351
L 874 350
L 876 351
L 879 351
L 881 350
L 883 350
L 885 351
L 887 351
L 889 351
L 892 351
L 894 351
L 896 349
L 898 351
L 900 351
L 902 351
L 905 351
L 907 351
L 909 351
L 911 350
L 913 351
L 915 351
L 918 349
L 920 350
L 922 350
L 924 351
L 926 351
L 928 351
L 931 350
L 933 351
L 935 350
L 937 351
L 939 351
L 941 350
L 944 351
L 946 351
L 948 351
L 950 351
L 952 351
L 954 351
L 957 351
L 959 351
L 961 351
L 963 351
L 965 351
L 967 351
L 969 351" style="stroke-width:1;stroke:rgba(217,0,116,1.0);fill:none"/><text x="417" y="33" style="stroke-width:0;stroke:none;fill:rgba(51,51,51,1.0);font-size:23.0px;font-family:'Roboto Medium',sans-serif">Liezen 01.05.2021</text><path  d="M 38 11
L 251 11
L 251 91
L 38 91
L 38 11" style="stroke-width:1;stroke:rgba(51,51,51,1.0);fill:rgba(255,255,255,1.0)"/><text x="43" y="26" style="stroke-width:0;stroke:none;fill:rgba(51,51,51,1.0);font-size:10.2px;font-family:'Roboto Medium',sans-serif">Sieben Tage Durschnitt Inzidenz Fälle</text><path  d="M 221 21
L 241 21" style="stroke-width:1;stroke:rgba(0,116,217,1.0);fill:none"/><text x="43" y="56" style="stroke-width:0;stroke:none;fill:rgba(51,51,51,1.0);font-size:10.2px;font-family:'Roboto Medium',sans-serif">Anzahl Faelle</text><path  d="M 110 51
L 241 51" style="stroke-width:1;stroke:rgba(0,217,101,1.0);fill:none"/><text x="43" y="86" style="stroke-width:0;stroke:none;fill:rgba(51,51,51,1.0);font-size:10.2px;font-family:'Roboto Medium',sans-serif">Anzahl Tot</text><path  d="M 98 81
L 241 81" style="stroke-width:1;stroke:rgba(217,0,116,1.0);fill:none"/></svg>