<svg xmlns="http://www.w3.org/2000/svg" xmlns:xlink="http://www.w3.org/1999/xlink" width="1024" height="400">\n<path  d="M 0 0
L 1024 0
L 1024 400
L 0 400
L 0 0" style="stroke-width:0;stroke:rgba(255,255,255,1.0);fill:rgba(255,255,255,1.0)"/><path  d="M 38 11
L 969 11
L 969 351
L 38 351
L 38 11" style="stroke-width:0;stroke:rgba(255,255,255,1.0);fill:rgba(255,255,255,1.0)"/><path  d="M 38 351
L 969 351" style="stroke-width:1;stroke:rgba(51,51,51,1.0);fill:none"/><path  d="M 38 351
L 38 356" style="stroke-width:1;stroke:rgba(51,51,51,1.0);fill:none"/><text x="5" y="373" style="stroke-width:0;stroke:none;fill:rgba(51,51,51,1.0);font-size:12.8px;font-family:'Roboto Medium',sans-serif">2020-02-26</text><path  d="M 155 351
L 155 356" style="stroke-width:1;stroke:rgba(51,51,51,1.0);fill:none"/><text x="122" y="373" style="stroke-width:0;stroke:none;fill:rgba(51,51,51,1.0);font-size:12.8px;font-family:'Roboto Medium',sans-serif">2020-04-26</text><path  d="M 271 351
L 271 356" style="stroke-width:1;stroke:rgba(51,51,51,1.0);fill:none"/><text x="238" y="373" style="stroke-width:0;stroke:none;fill:rgba(51,51,51,1.0);font-size:12.8px;font-family:'Roboto Medium',sans-serif">2020-06-25</text><path  d="M 388 351
L 388 356" style="stroke-width:1;stroke:rgba(51,51,51,1.0);fill:none"/><text x="355" y="373" style="stroke-width:0;stroke:none;fill:rgba(51,51,51,1.0);font-size:12.8px;font-family:'Roboto Medium',sans-serif">2020-08-25</text><path  d="M 504 351
L 504 356" style="stroke-width:1;stroke:rgba(51,51,51,1.0);fill:none"/><text x="471" y="373" style="stroke-width:0;stroke:none;fill:rgba(51,51,51,1.0);font-size:12.8px;font-family:'Roboto Medium',sans-serif">2020-10-24</text><path  d="M 620 351
L 620 356" style="stroke-width:1;stroke:rgba(51,51,51,1.0);fill:none"/><text x="587" y="373" style="stroke-width:0;stroke:none;fill:rgba(51,51,51,1.0);font-size:12.8px;font-family:'Roboto Medium',sans-serif">2020-12-23</text><path  d="M 737 351
L 737 356" style="stroke-width:1;stroke:rgba(51,51,51,1.0);fill:none"/><text x="704" y="373" style="stroke-width:0;stroke:none;fill:rgba(51,51,51,1.0);font-size:12.8px;font-family:'Roboto Medium',sans-serif">2021-02-22</text><path  d="M 853 351
L 853 356" style="stroke-width:1;stroke:rgba(51,51,51,1.0);fill:none"/><text x="820" y="373" style="stroke-width:0;stroke:none;fill:rgba(51,51,51,1.0);font-size:12.8px;font-family:'Roboto Medium',sans-serif">2021-04-23</text><path  d="M 969 351
L 969 356" style="stroke-width:1;stroke:rgba(51,51,51,1.0);fill:none"/><text x="936" y="373" style="stroke-width:0;stroke:none;fill:rgba(51,51,51,1.0);font-size:12.8px;font-family:'Roboto Medium',sans-serif">2021-06-23</text><text x="485" y="395" style="stroke-width:0;stroke:none;fill:rgba(51,51,51,1.0);font-size:12.8px;font-family:'Roboto Medium',sans-serif">Datum</text><path  d="M 970 351
L 970 11" style="stroke-width:1;stroke:rgba(51,51,51,1.0);fill:none"/><path  d="M 970 351
L 975 351" style="stroke-width:1;stroke:rgba(51,51,51,1.0);fill:none"/><text x="980" y="357" style="stroke-width:0;stroke:none;fill:rgba(51,51,51,1.0);font-size:12.8px;font-family:'Roboto Medium',sans-serif">0.00</text><path  d="M 970 308
L 975 308" style="stroke-width:1;stroke:rgba(51,51,51,1.0);fill:none"/><text x="980" y="314" style="stroke-width:0;stroke:none;fill:rgba(51,51,51,1.0);font-size:12.8px;font-family:'Roboto Medium',sans-serif">72.00</text><path  d="M 970 265
L 975 265" style="stroke-width:1;stroke:rgba(51,51,51,1.0);fill:none"/><text x="980" y="271" style="stroke-width:0;stroke:none;fill:rgba(51,51,51,1.0);font-size:12.8px;font-family:'Roboto Medium',sans-serif">143.00</text><path  d="M 970 223
L 975 223" style="stroke-width:1;stroke:rgba(51,51,51,1.0);fill:none"/><text x="980" y="229" style="stroke-width:0;stroke:none;fill:rgba(51,51,51,1.0);font-size:12.8px;font-family:'Roboto Medium',sans-serif">214.00</text><path  d="M 970 181
L 975 181" style="stroke-width:1;stroke:rgba(51,51,51,1.0);fill:none"/><text x="980" y="187" style="stroke-width:0;stroke:none;fill:rgba(51,51,51,1.0);font-size:12.8px;font-family:'Roboto Medium',sans-serif">285.00</text><path  d="M 970 138
L 975 138" style="stroke-width:1;stroke:rgba(51,51,51,1.0);fill:none"/><text x="980" y="144" style="stroke-width:0;stroke:none;fill:rgba(51,51,51,1.0);font-size:12.8px;font-family:'Roboto Medium',sans-serif">357.00</text><path  d="M 970 95
L 975 95" style="stroke-width:1;stroke:rgba(51,51,51,1.0);fill:none"/><text x="980" y="101" style="stroke-width:0;stroke:none;fill:rgba(51,51,51,1.0);font-size:12.8px;font-family:'Roboto Medium',sans-serif">428.00</text><path  d="M 970 53
L 975 53" style="stroke-width:1;stroke:rgba(51,51,51,1.0);fill:none"/><text x="980" y="59" style="stroke-width:0;stroke:none;fill:rgba(51,51,51,1.0);font-size:12.8px;font-family:'Roboto Medium',sans-serif">499.00</text><path  d="M 970 11
L 975 11" style="stroke-width:1;stroke:rgba(51,51,51,1.0);fill:none"/><text x="980" y="17" style="stroke-width:0;stroke:none;fill:rgba(51,51,51,1.0);font-size:12.8px;font-family:'Roboto Medium',sans-serif">570.00</text><path  d="M 38 351
L 40 351
L 42 351
L 44 351
L 46 351
L 48 351
L 50 351
L 52 351
L 54 351
L 56 351
L 58 351
L 60 351
L 62 351
L 64 351
L 65 348
L 67 348
L 69 346
L 71 346
L 73 346
L 75 346
L 77 344
L 79 346
L 81 339
L 83 337
L 85 334
L 87 332
L 89 330
L 91 330
L 92 318
L 94 320
L 96 318
L 98 316
L 100 309
L 102 306
L 104 304
L 106 309
L 108 311
L 110 318
L 112 320
L 114 327
L 116 332
L 118 332
L 119 339
L 121 341
L 123 341
L 125 344
L 127 344
L 129 344
L 131 348
L 133 348
L 135 348
L 137 348
L 139 348
L 141 351
L 143 351
L 145 351
L 146 351
L 148 351
L 150 351
L 152 351
L 154 351
L 156 351
L 158 351
L 160 351
L 162 351
L 164 351
L 166 351
L 168 351
L 170 348
L 171 348
L 173 346
L 175 346
L 177 344
L 179 344
L 181 344
L 183 346
L 185 346
L 187 348
L 189 348
L 191 351
L 193 351
L 195 348
L 197 348
L 198 348
L 200 348
L 202 346
L 204 346
L 206 346
L 208 348
L 210 348
L 212 348
L 214 348
L 216 351
L 218 351
L 220 351
L 222 351
L 224 351
L 225 351
L 227 351
L 229 351
L 231 351
L 233 351
L 235 348
L 237 339
L 239 339
L 241 339
L 243 339
L 245 339
L 247 339
L 249 341
L 251 351
L 252 351
L 254 351
L 256 351
L 258 351
L 260 351
L 262 351
L 264 351
L 266 348
L 268 348
L 270 348
L 272 348
L 274 348
L 276 348
L 278 348
L 279 348
L 281 348
L 283 348
L 285 348
L 287 348
L 289 348
L 291 348
L 293 351
L 295 351
L 297 351
L 299 351
L 301 351
L 303 351
L 304 351
L 306 351
L 308 351
L 310 351
L 312 351
L 314 351
L 316 351
L 318 351
L 320 351
L 322 351
L 324 351
L 326 351
L 328 351
L 330 348
L 331 348
L 333 348
L 335 348
L 337 348
L 339 348
L 341 348
L 343 351
L 345 351
L 347 351
L 349 351
L 351 351
L 353 351
L 355 351
L 357 351
L 358 351
L 360 351
L 362 351
L 364 351
L 366 351
L 368 351
L 370 351
L 372 351
L 374 346
L 376 346
L 378 344
L 380 344
L 382 344
L 384 344
L 385 344
L 387 348
L 389 348
L 391 351
L 393 348
L 395 348
L 397 346
L 399 344
L 401 344
L 403 341
L 405 339
L 407 339
L 409 339
L 411 339
L 412 339
L 414 339
L 416 330
L 418 330
L 420 311
L 422 306
L 424 306
L 426 306
L 428 306
L 430 318
L 432 316
L 434 334
L 436 339
L 437 337
L 439 337
L 441 334
L 443 330
L 445 332
L 447 332
L 449 330
L 451 334
L 453 337
L 455 339
L 457 339
L 459 339
L 461 337
L 463 339
L 464 337
L 466 337
L 468 334
L 470 327
L 472 330
L 474 334
L 476 332
L 478 332
L 480 330
L 482 327
L 484 337
L 486 327
L 488 325
L 490 325
L 491 304
L 493 295
L 495 276
L 497 260
L 499 241
L 501 218
L 503 181
L 505 176
L 507 151
L 509 132
L 511 106
L 513 99
L 515 90
L 517 104
L 518 102
L 520 106
L 522 97
L 524 102
L 526 104
L 528 71
L 530 58
L 532 65
L 534 37
L 536 46
L 538 27
L 540 16
L 542 46
L 544 62
L 545 41
L 547 85
L 549 102
L 551 137
L 553 141
L 555 139
L 557 125
L 559 148
L 561 148
L 563 148
L 565 153
L 567 162
L 569 183
L 570 190
L 572 209
L 574 204
L 576 206
L 578 190
L 580 190
L 582 148
L 584 153
L 586 146
L 588 160
L 590 116
L 592 144
L 594 144
L 596 195
L 597 213
L 599 204
L 601 192
L 603 244
L 605 237
L 607 262
L 609 255
L 611 251
L 613 255
L 615 267
L 617 262
L 619 271
L 621 260
L 623 269
L 624 269
L 626 267
L 628 269
L 630 288
L 632 288
L 634 292
L 636 297
L 638 306
L 640 318
L 642 309
L 644 302
L 646 299
L 648 306
L 650 297
L 651 295
L 653 295
L 655 304
L 657 299
L 659 302
L 661 304
L 663 302
L 665 299
L 667 297
L 669 290
L 671 290
L 673 288
L 675 285
L 677 292
L 678 288
L 680 295
L 682 302
L 684 302
L 686 304
L 688 304
L 690 309
L 692 313
L 694 313
L 696 316
L 698 327
L 700 332
L 702 337
L 703 327
L 705 327
L 707 327
L 709 327
L 711 320
L 713 318
L 715 318
L 717 318
L 719 323
L 721 323
L 723 318
L 725 323
L 727 304
L 729 295
L 730 290
L 732 276
L 734 271
L 736 269
L 738 262
L 740 251
L 742 251
L 744 260
L 746 257
L 748 251
L 750 248
L 752 246
L 754 276
L 756 269
L 757 246
L 759 253
L 761 255
L 763 260
L 765 267
L 767 264
L 769 257
L 771 269
L 773 267
L 775 274
L 777 269
L 779 260
L 781 246
L 783 253
L 784 241
L 786 246
L 788 239
L 790 220
L 792 211
L 794 206
L 796 188
L 798 199
L 800 197
L 802 178
L 804 178
L 806 183
L 808 199
L 810 211
L 811 209
L 813 178
L 815 185
L 817 211
L 819 218
L 821 206
L 823 209
L 825 213
L 827 248
L 829 232
L 831 223
L 833 227
L 835 239
L 836 255
L 838 264
L 840 264
L 842 295
L 844 304
L 846 311
L 848 316
L 850 304
L 852 297
L 854 292
L 856 295
L 858 285
L 860 276
L 862 251
L 863 246
L 865 234
L 867 234
L 869 232
L 871 232
L 873 232
L 875 237
L 877 225
L 879 244
L 881 241
L 883 248
L 885 255
L 887 255
L 889 267
L 890 281
L 892 281
L 894 290
L 896 283
L 898 288
L 900 285
L 902 285
L 904 304
L 906 302
L 908 299
L 910 304
L 912 299
L 914 306
L 916 316
L 917 313
L 919 320
L 921 325
L 923 316
L 925 318
L 927 320
L 929 323
L 931 320
L 933 318
L 935 318
L 937 330
L 939 330
L 941 330
L 943 325
L 944 323
L 946 327
L 948 330
L 950 330
L 952 334
L 954 339
L 956 344
L 958 351
L 960 351
L 962 351
L 964 351
L 966 351
L 968 351
L 969 351" style="stroke-width:1;stroke:rgba(0,116,217,1.0);fill:none"/><path  d="M 38 351
L 40 351
L 42 351
L 44 351
L 46 351
L 48 351
L 50 351
L 52 351
L 54 351
L 56 351
L 58 351
L 60 351
L 62 351
L 64 351
L 65 350
L 67 351
L 69 350
L 71 351
L 73 351
L 75 351
L 77 350
L 79 351
L 81 349
L 83 349
L 85 350
L 87 350
L 89 350
L 91 350
L 92 348
L 94 349
L 96 349
L 98 349
L 100 348
L 102 349
L 104 349
L 106 349
L 108 350
L 110 351
L 112 350
L 114 350
L 116 351
L 118 349
L 119 351
L 121 351
L 123 351
L 125 351
L 127 350
L 129 351
L 131 351
L 133 351
L 135 351
L 137 351
L 139 351
L 141 351
L 143 351
L 145 351
L 146 351
L 148 351
L 150 351
L 152 351
L 154 351
L 156 351
L 158 351
L 160 351
L 162 351
L 164 351
L 166 351
L 168 351
L 170 350
L 171 351
L 173 350
L 175 351
L 177 350
L 179 351
L 181 351
L 183 351
L 185 351
L 187 351
L 189 351
L 191 351
L 193 351
L 195 350
L 197 351
L 198 351
L 200 351
L 202 350
L 204 351
L 206 351
L 208 351
L 210 351
L 212 351
L 214 351
L 216 351
L 218 351
L 220 351
L 222 351
L 224 351
L 225 351
L 227 351
L 229 351
L 231 351
L 233 351
L 235 350
L 237 348
L 239 351
L 241 351
L 243 351
L 245 351
L 247 351
L 249 351
L 251 351
L 252 351
L 254 351
L 256 351
L 258 351
L 260 351
L 262 351
L 264 351
L 266 350
L 268 351
L 270 351
L 272 351
L 274 351
L 276 351
L 278 351
L 279 350
L 281 351
L 283 351
L 285 351
L 287 351
L 289 351
L 291 351
L 293 351
L 295 351
L 297 351
L 299 351
L 301 351
L 303 351
L 304 351
L 306 351
L 308 351
L 310 351
L 312 351
L 314 351
L 316 351
L 318 351
L 320 351
L 322 351
L 324 351
L 326 351
L 328 351
L 330 350
L 331 351
L 333 351
L 335 351
L 337 351
L 339 351
L 341 351
L 343 351
L 345 351
L 347 351
L 349 351
L 351 351
L 353 351
L 355 351
L 357 351
L 358 351
L 360 351
L 362 351
L 364 351
L 366 351
L 368 351
L 370 351
L 372 351
L 374 349
L 376 351
L 378 350
L 380 351
L 382 351
L 384 351
L 385 351
L 387 351
L 389 351
L 391 351
L 393 350
L 395 351
L 397 350
L 399 350
L 401 351
L 403 350
L 405 350
L 407 350
L 409 351
L 411 350
L 412 350
L 414 351
L 416 348
L 418 350
L 420 345
L 422 349
L 424 350
L 426 350
L 428 351
L 430 351
L 432 349
L 434 350
L 436 351
L 437 349
L 439 350
L 441 350
L 443 349
L 445 350
L 447 350
L 449 350
L 451 351
L 453 351
L 455 351
L 457 349
L 459 350
L 461 349
L 463 351
L 464 350
L 466 351
L 468 350
L 470 348
L 472 351
L 474 351
L 476 350
L 478 350
L 480 350
L 482 349
L 484 350
L 486 348
L 488 350
L 490 350
L 491 345
L 493 348
L 495 345
L 497 346
L 499 343
L 501 344
L 503 340
L 505 343
L 507 341
L 509 340
L 511 339
L 513 342
L 515 342
L 517 344
L 518 343
L 520 342
L 522 337
L 524 340
L 526 342
L 528 333
L 530 340
L 532 345
L 534 335
L 536 340
L 538 336
L 540 339
L 542 341
L 544 345
L 545 339
L 547 346
L 549 344
L 551 345
L 553 340
L 555 340
L 557 341
L 559 345
L 561 346
L 563 344
L 565 346
L 567 343
L 569 346
L 570 343
L 572 350
L 574 345
L 576 345
L 578 342
L 580 343
L 582 335
L 584 344
L 586 348
L 588 349
L 590 333
L 592 349
L 594 343
L 596 348
L 597 349
L 599 346
L 601 346
L 603 346
L 605 347
L 607 349
L 609 346
L 611 348
L 613 347
L 615 349
L 617 345
L 619 349
L 621 346
L 623 349
L 624 348
L 626 346
L 628 349
L 630 350
L 632 349
L 634 348
L 636 350
L 638 350
L 640 349
L 642 347
L 644 348
L 646 349
L 648 349
L 650 348
L 651 349
L 653 349
L 655 349
L 657 347
L 659 349
L 661 350
L 663 347
L 665 349
L 667 349
L 669 348
L 671 347
L 673 349
L 675 349
L 677 349
L 678 348
L 680 351
L 682 349
L 684 347
L 686 349
L 688 349
L 690 350
L 692 349
L 694 351
L 696 350
L 698 350
L 700 351
L 702 351
L 703 348
L 705 349
L 707 351
L 709 350
L 711 348
L 713 350
L 715 351
L 717 348
L 719 350
L 721 351
L 723 349
L 725 349
L 727 345
L 729 348
L 730 346
L 732 346
L 734 349
L 736 348
L 738 348
L 740 342
L 742 348
L 744 349
L 746 346
L 748 348
L 750 348
L 752 347
L 754 350
L 756 346
L 757 343
L 759 348
L 761 348
L 763 349
L 765 349
L 767 349
L 769 345
L 771 346
L 773 347
L 775 350
L 777 348
L 779 346
L 781 346
L 783 346
L 784 343
L 786 348
L 788 348
L 790 343
L 792 344
L 794 345
L 796 342
L 798 346
L 800 348
L 802 343
L 804 343
L 806 345
L 808 349
L 810 345
L 811 345
L 813 340
L 815 345
L 817 349
L 819 347
L 821 346
L 823 345
L 825 346
L 827 349
L 829 341
L 831 347
L 833 348
L 835 349
L 836 349
L 838 349
L 840 349
L 842 349
L 844 349
L 846 350
L 848 350
L 850 346
L 852 347
L 854 348
L 856 349
L 858 347
L 860 348
L 862 343
L 863 345
L 865 344
L 867 348
L 869 349
L 871 347
L 873 348
L 875 345
L 877 342
L 879 349
L 881 347
L 883 351
L 885 349
L 887 348
L 889 348
L 890 346
L 892 349
L 894 349
L 896 349
L 898 350
L 900 347
L 902 348
L 904 351
L 906 348
L 908 349
L 910 350
L 912 349
L 914 349
L 916 350
L 917 350
L 919 350
L 921 350
L 923 348
L 925 349
L 927 349
L 929 351
L 931 349
L 933 349
L 935 350
L 937 351
L 939 349
L 941 349
L 943 349
L 944 349
L 946 351
L 948 351
L 950 351
L 952 351
L 954 351
L 956 351
L 958 351
L 960 351
L 962 351
L 964 351
L 966 351
L 968 351
L 969 351" style="stroke-width:1;stroke:rgba(0,217,101,1.0);fill:none"/><path  d="M 38 351
L 40 351
L 42 351
L 44 351
L 46 351
L 48 351
L 50 351
L 52 351
L 54 351
L 56 351
L 58 351
L 60 351
L 62 351
L 64 351
L 65 351
L 67 351
L 69 351
L 71 351
L 73 351
L 75 351
L 77 351
L 79 351
L 81 351
L 83 351
L 85 351
L 87 351
L 89 351
L 91 350
L 92 351
L 94 350
L 96 351
L 98 351
L 100 351
L 102 351
L 104 351
L 106 351
L 108 350
L 110 351
L 112 351
L 114 351
L 116 351
L 118 351
L 119 351
L 121 351
L 123 350
L 125 351
L 127 351
L 129 351
L 131 351
L 133 351
L 135 351
L 137 351
L 139 351
L 141 351
L 143 351
L 145 351
L 146 350
L 148 351
L 150 351
L 152 351
L 154 351
L 156 351
L 158 351
L 160 351
L 162 351
L 164 351
L 166 351
L 168 351
L 170 351
L 171 350
L 173 351
L 175 351
L 177 351
L 179 351
L 181 351
L 183 351
L 185 351
L 187 351
L 189 351
L 191 351
L 193 351
L 195 351
L 197 351
L 198 351
L 200 351
L 202 351
L 204 351
L 206 351
L 208 351
L 210 351
L 212 351
L 214 351
L 216 351
L 218 351
L 220 351
L 222 351
L 224 351
L 225 351
L 227 351
L 229 351
L 231 351
L 233 351
L 235 351
L 237 351
L 239 351
L 241 351
L 243 351
L 245 351
L 247 351
L 249 351
L 251 351
L 252 351
L 254 351
L 256 351
L 258 351
L 260 351
L 262 351
L 264 351
L 266 351
L 268 351
L 270 351
L 272 351
L 274 351
L 276 351
L 278 351
L 279 351
L 281 351
L 283 351
L 285 351
L 287 351
L 289 351
L 291 351
L 293 351
L 295 351
L 297 351
L 299 351
L 301 351
L 303 351
L 304 351
L 306 351
L 308 351
L 310 351
L 312 351
L 314 351
L 316 351
L 318 351
L 320 351
L 322 351
L 324 351
L 326 351
L 328 351
L 330 351
L 331 351
L 333 351
L 335 351
L 337 351
L 339 351
L 341 351
L 343 351
L 345 351
L 347 351
L 349 351
L 351 351
L 353 351
L 355 351
L 357 351
L 358 351
L 360 351
L 362 351
L 364 351
L 366 351
L 368 351
L 370 351
L 372 351
L 374 351
L 376 351
L 378 351
L 380 351
L 382 351
L 384 351
L 385 351
L 387 351
L 389 351
L 391 351
L 393 351
L 395 351
L 397 351
L 399 351
L 401 351
L 403 351
L 405 351
L 407 351
L 409 351
L 411 351
L 412 351
L 414 351
L 416 351
L 418 351
L 420 351
L 422 351
L 424 351
L 426 351
L 428 351
L 430 351
L 432 351
L 434 351
L 436 351
L 437 351
L 439 351
L 441 351
L 443 351
L 445 351
L 447 351
L 449 351
L 451 351
L 453 351
L 455 351
L 457 351
L 459 351
L 461 351
L 463 351
L 464 351
L 466 351
L 468 351
L 470 351
L 472 351
L 474 351
L 476 351
L 478 351
L 480 351
L 482 351
L 484 351
L 486 351
L 488 351
L 490 351
L 491 351
L 493 351
L 495 351
L 497 351
L 499 351
L 501 351
L 503 351
L 505 351
L 507 351
L 509 351
L 511 351
L 513 351
L 515 351
L 517 351
L 518 351
L 520 351
L 522 351
L 524 351
L 526 351
L 528 350
L 530 349
L 532 351
L 534 351
L 536 351
L 538 351
L 540 351
L 542 351
L 544 351
L 545 351
L 547 351
L 549 351
L 551 351
L 553 351
L 555 350
L 557 350
L 559 351
L 561 351
L 563 351
L 565 351
L 567 351
L 569 351
L 570 349
L 572 350
L 574 351
L 576 351
L 578 350
L 580 350
L 582 351
L 584 350
L 586 349
L 588 349
L 590 351
L 592 351
L 594 351
L 596 350
L 597 350
L 599 351
L 601 351
L 603 351
L 605 350
L 607 351
L 609 351
L 611 351
L 613 351
L 615 350
L 617 351
L 619 351
L 621 351
L 623 350
L 624 351
L 626 351
L 628 351
L 630 351
L 632 349
L 634 351
L 636 351
L 638 351
L 640 351
L 642 350
L 644 351
L 646 351
L 648 351
L 650 351
L 651 351
L 653 351
L 655 351
L 657 351
L 659 351
L 661 351
L 663 351
L 665 351
L 667 350
L 669 351
L 671 351
L 673 351
L 675 351
L 677 351
L 678 351
L 680 351
L 682 351
L 684 351
L 686 351
L 688 351
L 690 351
L 692 351
L 694 351
L 696 351
L 698 351
L 700 351
L 702 351
L 703 351
L 705 351
L 707 351
L 709 351
L 711 351
L 713 351
L 715 351
L 717 351
L 719 351
L 721 351
L 723 351
L 725 351
L 727 351
L 729 351
L 730 351
L 732 351
L 734 351
L 736 351
L 738 351
L 740 351
L 742 351
L 744 351
L 746 351
L 748 351
L 750 351
L 752 351
L 754 351
L 756 351
L 757 351
L 759 350
L 761 351
L 763 351
L 765 351
L 767 350
L 769 351
L 771 351
L 773 351
L 775 351
L 777 351
L 779 351
L 781 351
L 783 351
L 784 351
L 786 351
L 788 351
L 790 351
L 792 351
L 794 350
L 796 351
L 798 351
L 800 351
L 802 351
L 804 351
L 806 351
L 808 351
L 810 349
L 811 350
L 813 351
L 815 351
L 817 351
L 819 351
L 821 351
L 823 351
L 825 351
L 827 351
L 829 350
L 831 350
L 833 351
L 835 351
L 836 350
L 838 351
L 840 351
L 842 351
L 844 351
L 846 350
L 848 351
L 850 351
L 852 351
L 854 351
L 856 351
L 858 351
L 860 351
L 862 351
L 863 351
L 865 351
L 867 351
L 869 350
L 871 351
L 873 351
L 875 351
L 877 350
L 879 350
L 881 350
L 883 351
L 885 351
L 887 351
L 889 350
L 890 351
L 892 351
L 894 351
L 896 351
L 898 351
L 900 351
L 902 351
L 904 350
L 906 351
L 908 351
L 910 350
L 912 351
L 914 351
L 916 351
L 917 351
L 919 351
L 921 351
L 923 350
L 925 351
L 927 351
L 929 351
L 931 350
L 933 351
L 935 350
L 937 351
L 939 351
L 941 351
L 943 351
L 944 351
L 946 351
L 948 351
L 950 351
L 952 351
L 954 351
L 956 351
L 958 351
L 960 351
L 962 351
L 964 351
L 966 351
L 968 351
L 969 351" style="stroke-width:1;stroke:rgba(217,0,116,1.0);fill:none"/><text x="403" y="33" style="stroke-width:0;stroke:none;fill:rgba(51,51,51,1.0);font-size:23.0px;font-family:'Roboto Medium',sans-serif">Lilienfeld 23.06.2021</text><path  d="M 38 11
L 251 11
L 251 91
L 38 91
L 38 11" style="stroke-width:1;stroke:rgba(51,51,51,1.0);fill:rgba(255,255,255,1.0)"/><text x="43" y="26" style="stroke-width:0;stroke:none;fill:rgba(51,51,51,1.0);font-size:10.2px;font-family:'Roboto Medium',sans-serif">Sieben Tage Durschnitt Inzidenz Fälle</text><path  d="M 221 21
L 241 21" style="stroke-width:1;stroke:rgba(0,116,217,1.0);fill:none"/><text x="43" y="56" style="stroke-width:0;stroke:none;fill:rgba(51,51,51,1.0);font-size:10.2px;font-family:'Roboto Medium',sans-serif">Anzahl Faelle</text><path  d="M 110 51
L 241 51" style="stroke-width:1;stroke:rgba(0,217,101,1.0);fill:none"/><text x="43" y="86" style="stroke-width:0;stroke:none;fill:rgba(51,51,51,1.0);font-size:10.2px;font-family:'Roboto Medium',sans-serif">Anzahl Tot</text><path  d="M 98 81
L 241 81" style="stroke-width:1;stroke:rgba(217,0,116,1.0);fill:none"/></svg>