<svg xmlns="http://www.w3.org/2000/svg" xmlns:xlink="http://www.w3.org/1999/xlink" width="1024" height="400">\n<path  d="M 0 0
L 1024 0
L 1024 400
L 0 400
L 0 0" style="stroke-width:0;stroke:rgba(255,255,255,1.0);fill:rgba(255,255,255,1.0)"/><path  d="M 38 11
L 969 11
L 969 351
L 38 351
L 38 11" style="stroke-width:0;stroke:rgba(255,255,255,1.0);fill:rgba(255,255,255,1.0)"/><path  d="M 38 351
L 969 351" style="stroke-width:1;stroke:rgba(51,51,51,1.0);fill:none"/><path  d="M 38 351
L 38 356" style="stroke-width:1;stroke:rgba(51,51,51,1.0);fill:none"/><text x="5" y="373" style="stroke-width:0;stroke:none;fill:rgba(51,51,51,1.0);font-size:12.8px;font-family:'Roboto Medium',sans-serif">2020-02-26</text><path  d="M 155 351
L 155 356" style="stroke-width:1;stroke:rgba(51,51,51,1.0);fill:none"/><text x="122" y="373" style="stroke-width:0;stroke:none;fill:rgba(51,51,51,1.0);font-size:12.8px;font-family:'Roboto Medium',sans-serif">2020-04-25</text><path  d="M 271 351
L 271 356" style="stroke-width:1;stroke:rgba(51,51,51,1.0);fill:none"/><text x="238" y="373" style="stroke-width:0;stroke:none;fill:rgba(51,51,51,1.0);font-size:12.8px;font-family:'Roboto Medium',sans-serif">2020-06-23</text><path  d="M 388 351
L 388 356" style="stroke-width:1;stroke:rgba(51,51,51,1.0);fill:none"/><text x="355" y="373" style="stroke-width:0;stroke:none;fill:rgba(51,51,51,1.0);font-size:12.8px;font-family:'Roboto Medium',sans-serif">2020-08-21</text><path  d="M 504 351
L 504 356" style="stroke-width:1;stroke:rgba(51,51,51,1.0);fill:none"/><text x="471" y="373" style="stroke-width:0;stroke:none;fill:rgba(51,51,51,1.0);font-size:12.8px;font-family:'Roboto Medium',sans-serif">2020-10-19</text><path  d="M 620 351
L 620 356" style="stroke-width:1;stroke:rgba(51,51,51,1.0);fill:none"/><text x="587" y="373" style="stroke-width:0;stroke:none;fill:rgba(51,51,51,1.0);font-size:12.8px;font-family:'Roboto Medium',sans-serif">2020-12-17</text><path  d="M 737 351
L 737 356" style="stroke-width:1;stroke:rgba(51,51,51,1.0);fill:none"/><text x="704" y="373" style="stroke-width:0;stroke:none;fill:rgba(51,51,51,1.0);font-size:12.8px;font-family:'Roboto Medium',sans-serif">2021-02-14</text><path  d="M 853 351
L 853 356" style="stroke-width:1;stroke:rgba(51,51,51,1.0);fill:none"/><text x="820" y="373" style="stroke-width:0;stroke:none;fill:rgba(51,51,51,1.0);font-size:12.8px;font-family:'Roboto Medium',sans-serif">2021-04-14</text><path  d="M 969 351
L 969 356" style="stroke-width:1;stroke:rgba(51,51,51,1.0);fill:none"/><text x="936" y="373" style="stroke-width:0;stroke:none;fill:rgba(51,51,51,1.0);font-size:12.8px;font-family:'Roboto Medium',sans-serif">2021-06-13</text><text x="485" y="395" style="stroke-width:0;stroke:none;fill:rgba(51,51,51,1.0);font-size:12.8px;font-family:'Roboto Medium',sans-serif">Datum</text><path  d="M 970 351
L 970 11" style="stroke-width:1;stroke:rgba(51,51,51,1.0);fill:none"/><path  d="M 970 351
L 975 351" style="stroke-width:1;stroke:rgba(51,51,51,1.0);fill:none"/><text x="980" y="357" style="stroke-width:0;stroke:none;fill:rgba(51,51,51,1.0);font-size:12.8px;font-family:'Roboto Medium',sans-serif">0.00</text><path  d="M 970 308
L 975 308" style="stroke-width:1;stroke:rgba(51,51,51,1.0);fill:none"/><text x="980" y="314" style="stroke-width:0;stroke:none;fill:rgba(51,51,51,1.0);font-size:12.8px;font-family:'Roboto Medium',sans-serif">82.00</text><path  d="M 970 265
L 975 265" style="stroke-width:1;stroke:rgba(51,51,51,1.0);fill:none"/><text x="980" y="271" style="stroke-width:0;stroke:none;fill:rgba(51,51,51,1.0);font-size:12.8px;font-family:'Roboto Medium',sans-serif">163.00</text><path  d="M 970 223
L 975 223" style="stroke-width:1;stroke:rgba(51,51,51,1.0);fill:none"/><text x="980" y="229" style="stroke-width:0;stroke:none;fill:rgba(51,51,51,1.0);font-size:12.8px;font-family:'Roboto Medium',sans-serif">244.00</text><path  d="M 970 181
L 975 181" style="stroke-width:1;stroke:rgba(51,51,51,1.0);fill:none"/><text x="980" y="187" style="stroke-width:0;stroke:none;fill:rgba(51,51,51,1.0);font-size:12.8px;font-family:'Roboto Medium',sans-serif">325.00</text><path  d="M 970 138
L 975 138" style="stroke-width:1;stroke:rgba(51,51,51,1.0);fill:none"/><text x="980" y="144" style="stroke-width:0;stroke:none;fill:rgba(51,51,51,1.0);font-size:12.8px;font-family:'Roboto Medium',sans-serif">407.00</text><path  d="M 970 95
L 975 95" style="stroke-width:1;stroke:rgba(51,51,51,1.0);fill:none"/><text x="980" y="101" style="stroke-width:0;stroke:none;fill:rgba(51,51,51,1.0);font-size:12.8px;font-family:'Roboto Medium',sans-serif">488.00</text><path  d="M 970 53
L 975 53" style="stroke-width:1;stroke:rgba(51,51,51,1.0);fill:none"/><text x="980" y="59" style="stroke-width:0;stroke:none;fill:rgba(51,51,51,1.0);font-size:12.8px;font-family:'Roboto Medium',sans-serif">569.00</text><path  d="M 970 11
L 975 11" style="stroke-width:1;stroke:rgba(51,51,51,1.0);fill:none"/><text x="980" y="17" style="stroke-width:0;stroke:none;fill:rgba(51,51,51,1.0);font-size:12.8px;font-family:'Roboto Medium',sans-serif">650.00</text><path  d="M 38 351
L 40 351
L 42 351
L 44 351
L 46 351
L 48 351
L 50 351
L 52 351
L 54 351
L 56 351
L 58 350
L 60 350
L 62 350
L 64 350
L 66 349
L 68 348
L 70 346
L 72 347
L 74 342
L 76 341
L 78 340
L 80 340
L 82 340
L 84 337
L 86 334
L 88 336
L 90 336
L 92 331
L 94 329
L 96 326
L 98 328
L 100 331
L 101 327
L 103 326
L 105 327
L 107 326
L 109 328
L 111 328
L 113 328
L 115 334
L 117 337
L 119 340
L 121 344
L 123 344
L 125 346
L 127 346
L 129 346
L 131 346
L 133 348
L 135 348
L 137 350
L 139 349
L 141 349
L 143 349
L 145 349
L 147 349
L 149 349
L 151 349
L 153 349
L 155 349
L 157 349
L 159 350
L 161 349
L 163 349
L 164 349
L 166 350
L 168 350
L 170 350
L 172 350
L 174 351
L 176 351
L 178 351
L 180 351
L 182 351
L 184 351
L 186 351
L 188 351
L 190 351
L 192 351
L 194 350
L 196 350
L 198 350
L 200 350
L 202 348
L 204 348
L 206 348
L 208 349
L 210 349
L 212 349
L 214 349
L 216 351
L 218 351
L 220 351
L 222 351
L 224 351
L 225 351
L 227 351
L 229 351
L 231 350
L 233 350
L 235 350
L 237 349
L 239 349
L 241 349
L 243 349
L 245 349
L 247 349
L 249 349
L 251 349
L 253 349
L 255 349
L 257 349
L 259 350
L 261 350
L 263 351
L 265 351
L 267 350
L 269 350
L 271 349
L 273 349
L 275 348
L 277 346
L 279 343
L 281 338
L 283 337
L 285 336
L 287 330
L 288 326
L 290 327
L 292 322
L 294 318
L 296 318
L 298 317
L 300 321
L 302 324
L 304 321
L 306 325
L 308 331
L 310 329
L 312 329
L 314 327
L 316 325
L 318 328
L 320 329
L 322 331
L 324 334
L 326 335
L 328 334
L 330 339
L 332 338
L 334 339
L 336 339
L 338 338
L 340 339
L 342 343
L 344 338
L 346 339
L 348 339
L 349 340
L 351 341
L 353 341
L 355 338
L 357 343
L 359 341
L 361 342
L 363 341
L 365 341
L 367 341
L 369 344
L 371 343
L 373 342
L 375 340
L 377 341
L 379 340
L 381 337
L 383 334
L 385 334
L 387 334
L 389 333
L 391 334
L 393 333
L 395 335
L 397 335
L 399 334
L 401 333
L 403 333
L 405 332
L 407 333
L 409 334
L 411 335
L 412 337
L 414 340
L 416 342
L 418 342
L 420 341
L 422 342
L 424 339
L 426 340
L 428 333
L 430 331
L 432 326
L 434 324
L 436 319
L 438 319
L 440 311
L 442 315
L 444 315
L 446 318
L 448 320
L 450 323
L 452 327
L 454 334
L 456 336
L 458 339
L 460 339
L 462 338
L 464 336
L 466 335
L 468 333
L 470 331
L 472 318
L 473 314
L 475 313
L 477 314
L 479 313
L 481 313
L 483 314
L 485 320
L 487 322
L 489 325
L 491 325
L 493 326
L 495 324
L 497 319
L 499 320
L 501 318
L 503 317
L 505 307
L 507 293
L 509 280
L 511 270
L 513 262
L 515 247
L 517 245
L 519 222
L 521 221
L 523 197
L 525 196
L 527 185
L 529 181
L 531 138
L 533 140
L 535 116
L 536 104
L 538 60
L 540 53
L 542 41
L 544 42
L 546 21
L 548 14
L 550 22
L 552 20
L 554 14
L 556 29
L 558 14
L 560 24
L 562 23
L 564 32
L 566 27
L 568 54
L 570 69
L 572 74
L 574 95
L 576 122
L 578 128
L 580 168
L 582 165
L 584 148
L 586 169
L 588 177
L 590 174
L 592 178
L 594 196
L 596 191
L 597 208
L 599 235
L 601 231
L 603 251
L 605 259
L 607 245
L 609 255
L 611 245
L 613 232
L 615 238
L 617 229
L 619 236
L 621 251
L 623 256
L 625 268
L 627 285
L 629 292
L 631 295
L 633 295
L 635 296
L 637 300
L 639 295
L 641 297
L 643 290
L 645 296
L 647 301
L 649 304
L 651 301
L 653 297
L 655 294
L 657 286
L 659 283
L 660 288
L 662 281
L 664 279
L 666 285
L 668 283
L 670 297
L 672 299
L 674 294
L 676 305
L 678 308
L 680 311
L 682 314
L 684 316
L 686 315
L 688 317
L 690 313
L 692 314
L 694 316
L 696 315
L 698 315
L 700 316
L 702 315
L 704 317
L 706 317
L 708 314
L 710 316
L 712 315
L 714 319
L 716 318
L 718 318
L 720 320
L 721 322
L 723 317
L 725 317
L 727 317
L 729 317
L 731 318
L 733 315
L 735 315
L 737 320
L 739 317
L 741 309
L 743 305
L 745 302
L 747 300
L 749 298
L 751 298
L 753 298
L 755 302
L 757 289
L 759 287
L 761 283
L 763 286
L 765 285
L 767 290
L 769 282
L 771 297
L 773 298
L 775 301
L 777 297
L 779 297
L 781 293
L 783 297
L 784 295
L 786 298
L 788 290
L 790 288
L 792 288
L 794 281
L 796 272
L 798 266
L 800 262
L 802 265
L 804 261
L 806 260
L 808 257
L 810 263
L 812 259
L 814 259
L 816 251
L 818 244
L 820 241
L 822 246
L 824 239
L 826 241
L 828 250
L 830 255
L 832 249
L 834 250
L 836 252
L 838 259
L 840 258
L 842 242
L 844 244
L 845 258
L 847 251
L 849 246
L 851 245
L 853 256
L 855 256
L 857 254
L 859 254
L 861 260
L 863 259
L 865 255
L 867 250
L 869 252
L 871 255
L 873 258
L 875 254
L 877 263
L 879 268
L 881 269
L 883 275
L 885 278
L 887 277
L 889 279
L 891 271
L 893 271
L 895 274
L 897 274
L 899 270
L 901 277
L 903 281
L 905 291
L 907 299
L 908 302
L 910 311
L 912 324
L 914 323
L 916 325
L 918 328
L 920 328
L 922 330
L 924 326
L 926 322
L 928 326
L 930 326
L 932 330
L 934 329
L 936 332
L 938 336
L 940 339
L 942 339
L 944 339
L 946 339
L 948 345
L 950 345
L 952 346
L 954 345
L 956 344
L 958 345
L 960 343
L 962 342
L 964 343
L 966 342
L 968 341
L 969 342" style="stroke-width:1;stroke:rgba(0,116,217,1.0);fill:none"/><path  d="M 38 351
L 40 351
L 42 351
L 44 351
L 46 351
L 48 351
L 50 351
L 52 351
L 54 351
L 56 351
L 58 349
L 60 351
L 62 351
L 64 351
L 66 349
L 68 348
L 70 348
L 72 350
L 74 343
L 76 349
L 78 349
L 80 349
L 82 348
L 84 345
L 86 345
L 88 346
L 90 348
L 92 342
L 94 346
L 96 344
L 98 347
L 100 349
L 101 341
L 103 347
L 105 344
L 107 344
L 109 347
L 111 347
L 113 349
L 115 351
L 117 351
L 119 348
L 121 350
L 123 347
L 125 350
L 127 351
L 129 351
L 131 351
L 133 351
L 135 350
L 137 351
L 139 349
L 141 351
L 143 351
L 145 350
L 147 350
L 149 351
L 151 351
L 153 350
L 155 351
L 157 351
L 159 351
L 161 349
L 163 351
L 164 351
L 166 351
L 168 351
L 170 351
L 172 351
L 174 351
L 176 351
L 178 351
L 180 351
L 182 351
L 184 351
L 186 351
L 188 351
L 190 351
L 192 351
L 194 349
L 196 351
L 198 351
L 200 351
L 202 348
L 204 351
L 206 351
L 208 351
L 210 351
L 212 351
L 214 351
L 216 351
L 218 351
L 220 351
L 222 351
L 224 351
L 225 351
L 227 351
L 229 351
L 231 350
L 233 351
L 235 350
L 237 350
L 239 351
L 241 351
L 243 350
L 245 349
L 247 351
L 249 350
L 251 351
L 253 351
L 255 351
L 257 351
L 259 351
L 261 351
L 263 351
L 265 351
L 267 349
L 269 351
L 271 349
L 273 350
L 275 349
L 277 347
L 279 347
L 281 342
L 283 349
L 285 348
L 287 341
L 288 343
L 290 349
L 292 339
L 294 335
L 296 349
L 298 347
L 300 346
L 302 347
L 304 345
L 306 345
L 308 346
L 310 346
L 312 347
L 314 344
L 316 343
L 318 349
L 320 346
L 322 350
L 324 350
L 326 347
L 328 343
L 330 350
L 332 347
L 334 349
L 336 349
L 338 348
L 340 349
L 342 349
L 344 342
L 346 350
L 348 349
L 349 351
L 351 349
L 353 349
L 355 345
L 357 349
L 359 347
L 361 349
L 363 349
L 365 350
L 367 348
L 369 349
L 371 347
L 373 346
L 375 347
L 377 350
L 379 349
L 381 343
L 383 345
L 385 347
L 387 346
L 389 346
L 391 351
L 393 348
L 395 346
L 397 346
L 399 346
L 401 344
L 403 345
L 405 349
L 407 351
L 409 347
L 411 348
L 412 348
L 414 350
L 416 347
L 418 350
L 420 348
L 422 348
L 424 345
L 426 349
L 428 339
L 430 345
L 432 343
L 434 346
L 436 341
L 438 344
L 440 337
L 442 344
L 444 345
L 446 348
L 448 349
L 450 345
L 452 349
L 454 348
L 456 347
L 458 348
L 460 348
L 462 348
L 464 342
L 466 347
L 468 345
L 470 345
L 472 329
L 473 343
L 475 346
L 477 344
L 479 346
L 481 345
L 483 346
L 485 338
L 487 346
L 489 351
L 491 344
L 493 347
L 495 342
L 497 339
L 499 339
L 501 344
L 503 348
L 505 329
L 507 327
L 509 322
L 511 324
L 513 327
L 515 320
L 517 345
L 519 294
L 521 326
L 523 285
L 525 323
L 527 310
L 529 314
L 531 279
L 533 298
L 535 289
L 536 267
L 538 256
L 540 299
L 542 296
L 544 282
L 546 266
L 548 278
L 550 278
L 552 254
L 554 290
L 556 319
L 558 259
L 560 282
L 562 276
L 564 292
L 566 247
L 568 330
L 570 341
L 572 267
L 574 314
L 576 317
L 578 301
L 580 307
L 582 325
L 584 316
L 586 299
L 588 326
L 590 311
L 592 308
L 594 334
L 596 318
L 597 342
L 599 340
L 601 320
L 603 341
L 605 320
L 607 314
L 609 333
L 611 326
L 613 320
L 615 329
L 617 327
L 619 332
L 621 335
L 623 342
L 625 344
L 627 347
L 629 339
L 631 331
L 633 332
L 635 338
L 637 347
L 639 337
L 641 350
L 643 329
L 645 339
L 647 340
L 649 341
L 651 344
L 653 330
L 655 346
L 657 316
L 659 336
L 660 347
L 662 331
L 664 340
L 666 339
L 668 344
L 670 336
L 672 340
L 674 340
L 676 347
L 678 344
L 680 344
L 682 348
L 684 340
L 686 338
L 688 343
L 690 341
L 692 346
L 694 346
L 696 346
L 698 340
L 700 340
L 702 342
L 704 343
L 706 346
L 708 342
L 710 349
L 712 339
L 714 345
L 716 341
L 718 342
L 720 350
L 721 345
L 723 342
L 725 339
L 727 344
L 729 341
L 731 343
L 733 345
L 735 346
L 737 349
L 739 334
L 741 332
L 743 336
L 745 338
L 747 342
L 749 344
L 751 349
L 753 333
L 755 338
L 757 317
L 759 334
L 761 336
L 763 347
L 765 348
L 767 340
L 769 327
L 771 338
L 773 336
L 775 341
L 777 342
L 779 348
L 781 334
L 783 334
L 784 335
L 786 340
L 788 329
L 790 339
L 792 348
L 794 324
L 796 320
L 798 326
L 800 334
L 802 333
L 804 332
L 806 347
L 808 319
L 810 330
L 812 321
L 814 333
L 816 321
L 818 322
L 820 343
L 822 326
L 824 318
L 826 324
L 828 346
L 830 329
L 832 313
L 834 345
L 836 330
L 838 329
L 840 322
L 842 321
L 844 333
L 845 333
L 847 334
L 849 322
L 851 329
L 853 338
L 855 321
L 857 330
L 859 333
L 861 343
L 863 322
L 865 322
L 867 331
L 869 325
L 871 335
L 873 336
L 875 337
L 877 335
L 879 330
L 881 332
L 883 334
L 885 339
L 887 334
L 889 341
L 891 323
L 893 330
L 895 337
L 897 334
L 899 332
L 901 345
L 903 347
L 905 338
L 907 343
L 908 342
L 910 348
L 912 351
L 914 344
L 916 349
L 918 343
L 920 343
L 922 345
L 924 342
L 926 345
L 928 349
L 930 349
L 932 349
L 934 342
L 936 348
L 938 348
L 940 349
L 942 349
L 944 349
L 946 349
L 948 351
L 950 348
L 952 350
L 954 348
L 956 348
L 958 351
L 960 347
L 962 349
L 964 349
L 966 349
L 968 346
L 969 349" style="stroke-width:1;stroke:rgba(0,217,101,1.0);fill:none"/><path  d="M 38 351
L 40 351
L 42 351
L 44 351
L 46 351
L 48 351
L 50 351
L 52 351
L 54 351
L 56 351
L 58 351
L 60 351
L 62 351
L 64 351
L 66 351
L 68 351
L 70 351
L 72 351
L 74 351
L 76 351
L 78 351
L 80 350
L 82 351
L 84 350
L 86 351
L 88 351
L 90 351
L 92 351
L 94 351
L 96 351
L 98 351
L 100 351
L 101 351
L 103 350
L 105 351
L 107 351
L 109 351
L 111 351
L 113 351
L 115 351
L 117 350
L 119 349
L 121 351
L 123 351
L 125 351
L 127 351
L 129 351
L 131 351
L 133 350
L 135 351
L 137 351
L 139 351
L 141 351
L 143 351
L 145 351
L 147 349
L 149 351
L 151 351
L 153 351
L 155 351
L 157 351
L 159 351
L 161 351
L 163 351
L 164 351
L 166 351
L 168 351
L 170 351
L 172 351
L 174 351
L 176 351
L 178 351
L 180 351
L 182 351
L 184 351
L 186 351
L 188 351
L 190 351
L 192 351
L 194 351
L 196 351
L 198 351
L 200 351
L 202 351
L 204 351
L 206 351
L 208 351
L 210 351
L 212 351
L 214 351
L 216 351
L 218 351
L 220 351
L 222 351
L 224 351
L 225 351
L 227 351
L 229 351
L 231 351
L 233 351
L 235 351
L 237 351
L 239 351
L 241 351
L 243 351
L 245 351
L 247 351
L 249 351
L 251 351
L 253 351
L 255 351
L 257 351
L 259 351
L 261 351
L 263 351
L 265 351
L 267 351
L 269 351
L 271 351
L 273 351
L 275 351
L 277 351
L 279 351
L 281 351
L 283 351
L 285 351
L 287 351
L 288 351
L 290 351
L 292 351
L 294 351
L 296 351
L 298 351
L 300 351
L 302 351
L 304 351
L 306 351
L 308 351
L 310 351
L 312 351
L 314 351
L 316 351
L 318 351
L 320 351
L 322 351
L 324 351
L 326 351
L 328 351
L 330 351
L 332 351
L 334 351
L 336 351
L 338 351
L 340 351
L 342 351
L 344 351
L 346 351
L 348 351
L 349 351
L 351 351
L 353 351
L 355 351
L 357 351
L 359 351
L 361 351
L 363 351
L 365 351
L 367 351
L 369 351
L 371 351
L 373 351
L 375 351
L 377 351
L 379 351
L 381 351
L 383 351
L 385 351
L 387 351
L 389 351
L 391 351
L 393 351
L 395 351
L 397 351
L 399 351
L 401 351
L 403 351
L 405 351
L 407 351
L 409 351
L 411 351
L 412 351
L 414 351
L 416 351
L 418 351
L 420 351
L 422 351
L 424 351
L 426 351
L 428 351
L 430 351
L 432 351
L 434 351
L 436 351
L 438 351
L 440 351
L 442 351
L 444 351
L 446 351
L 448 351
L 450 351
L 452 351
L 454 351
L 456 351
L 458 351
L 460 351
L 462 351
L 464 351
L 466 351
L 468 351
L 470 351
L 472 351
L 473 351
L 475 351
L 477 351
L 479 351
L 481 351
L 483 351
L 485 351
L 487 350
L 489 351
L 491 351
L 493 351
L 495 351
L 497 351
L 499 351
L 501 351
L 503 350
L 505 351
L 507 351
L 509 351
L 511 351
L 513 351
L 515 351
L 517 351
L 519 351
L 521 351
L 523 351
L 525 351
L 527 350
L 529 350
L 531 351
L 533 349
L 535 351
L 536 350
L 538 351
L 540 350
L 542 351
L 544 349
L 546 350
L 548 351
L 550 350
L 552 351
L 554 349
L 556 350
L 558 348
L 560 349
L 562 351
L 564 349
L 566 348
L 568 349
L 570 350
L 572 349
L 574 351
L 576 349
L 578 349
L 580 350
L 582 350
L 584 351
L 586 349
L 588 351
L 590 351
L 592 351
L 594 350
L 596 350
L 597 351
L 599 350
L 601 351
L 603 349
L 605 350
L 607 351
L 609 350
L 611 350
L 613 350
L 615 350
L 617 349
L 619 351
L 621 351
L 623 351
L 625 351
L 627 351
L 629 349
L 631 350
L 633 351
L 635 351
L 637 351
L 639 351
L 641 349
L 643 350
L 645 351
L 647 351
L 649 351
L 651 351
L 653 351
L 655 351
L 657 351
L 659 351
L 660 351
L 662 351
L 664 351
L 666 351
L 668 350
L 670 351
L 672 350
L 674 351
L 676 351
L 678 351
L 680 351
L 682 351
L 684 351
L 686 351
L 688 350
L 690 351
L 692 350
L 694 351
L 696 351
L 698 351
L 700 351
L 702 350
L 704 351
L 706 351
L 708 351
L 710 351
L 712 351
L 714 351
L 716 351
L 718 351
L 720 351
L 721 351
L 723 351
L 725 351
L 727 351
L 729 351
L 731 350
L 733 351
L 735 351
L 737 351
L 739 351
L 741 351
L 743 351
L 745 351
L 747 351
L 749 351
L 751 351
L 753 351
L 755 351
L 757 351
L 759 351
L 761 351
L 763 351
L 765 349
L 767 351
L 769 351
L 771 351
L 773 351
L 775 351
L 777 351
L 779 351
L 781 351
L 783 351
L 784 351
L 786 351
L 788 351
L 790 351
L 792 351
L 794 351
L 796 351
L 798 351
L 800 351
L 802 351
L 804 351
L 806 351
L 808 351
L 810 350
L 812 351
L 814 351
L 816 351
L 818 351
L 820 350
L 822 351
L 824 351
L 826 351
L 828 350
L 830 351
L 832 351
L 834 351
L 836 351
L 838 351
L 840 351
L 842 351
L 844 351
L 845 351
L 847 350
L 849 350
L 851 351
L 853 351
L 855 351
L 857 351
L 859 351
L 861 351
L 863 351
L 865 351
L 867 351
L 869 351
L 871 351
L 873 351
L 875 351
L 877 351
L 879 351
L 881 351
L 883 351
L 885 351
L 887 351
L 889 351
L 891 351
L 893 351
L 895 351
L 897 351
L 899 351
L 901 351
L 903 351
L 905 351
L 907 349
L 908 351
L 910 351
L 912 351
L 914 351
L 916 351
L 918 351
L 920 351
L 922 351
L 924 351
L 926 351
L 928 351
L 930 351
L 932 351
L 934 351
L 936 351
L 938 351
L 940 351
L 942 351
L 944 351
L 946 351
L 948 351
L 950 351
L 952 351
L 954 351
L 956 351
L 958 351
L 960 351
L 962 351
L 964 351
L 966 351
L 968 351
L 969 351" style="stroke-width:1;stroke:rgba(217,0,116,1.0);fill:none"/><text x="400" y="33" style="stroke-width:0;stroke:none;fill:rgba(51,51,51,1.0);font-size:23.0px;font-family:'Roboto Medium',sans-serif">Linz-Land 13.06.2021</text><path  d="M 38 11
L 251 11
L 251 91
L 38 91
L 38 11" style="stroke-width:1;stroke:rgba(51,51,51,1.0);fill:rgba(255,255,255,1.0)"/><text x="43" y="26" style="stroke-width:0;stroke:none;fill:rgba(51,51,51,1.0);font-size:10.2px;font-family:'Roboto Medium',sans-serif">Sieben Tage Durschnitt Inzidenz Fälle</text><path  d="M 221 21
L 241 21" style="stroke-width:1;stroke:rgba(0,116,217,1.0);fill:none"/><text x="43" y="56" style="stroke-width:0;stroke:none;fill:rgba(51,51,51,1.0);font-size:10.2px;font-family:'Roboto Medium',sans-serif">Anzahl Faelle</text><path  d="M 110 51
L 241 51" style="stroke-width:1;stroke:rgba(0,217,101,1.0);fill:none"/><text x="43" y="86" style="stroke-width:0;stroke:none;fill:rgba(51,51,51,1.0);font-size:10.2px;font-family:'Roboto Medium',sans-serif">Anzahl Tot</text><path  d="M 98 81
L 241 81" style="stroke-width:1;stroke:rgba(217,0,116,1.0);fill:none"/></svg>