<svg xmlns="http://www.w3.org/2000/svg" xmlns:xlink="http://www.w3.org/1999/xlink" width="1024" height="400">\n<path  d="M 0 0
L 1024 0
L 1024 400
L 0 400
L 0 0" style="stroke-width:0;stroke:rgba(255,255,255,1.0);fill:rgba(255,255,255,1.0)"/><path  d="M 38 11
L 961 11
L 961 351
L 38 351
L 38 11" style="stroke-width:0;stroke:rgba(255,255,255,1.0);fill:rgba(255,255,255,1.0)"/><path  d="M 38 351
L 961 351" style="stroke-width:1;stroke:rgba(51,51,51,1.0);fill:none"/><path  d="M 38 351
L 38 356" style="stroke-width:1;stroke:rgba(51,51,51,1.0);fill:none"/><text x="5" y="373" style="stroke-width:0;stroke:none;fill:rgba(51,51,51,1.0);font-size:12.8px;font-family:'Roboto Medium',sans-serif">2020-02-26</text><path  d="M 154 351
L 154 356" style="stroke-width:1;stroke:rgba(51,51,51,1.0);fill:none"/><text x="121" y="373" style="stroke-width:0;stroke:none;fill:rgba(51,51,51,1.0);font-size:12.8px;font-family:'Roboto Medium',sans-serif">2020-06-09</text><path  d="M 269 351
L 269 356" style="stroke-width:1;stroke:rgba(51,51,51,1.0);fill:none"/><text x="236" y="373" style="stroke-width:0;stroke:none;fill:rgba(51,51,51,1.0);font-size:12.8px;font-family:'Roboto Medium',sans-serif">2020-09-21</text><path  d="M 385 351
L 385 356" style="stroke-width:1;stroke:rgba(51,51,51,1.0);fill:none"/><text x="352" y="373" style="stroke-width:0;stroke:none;fill:rgba(51,51,51,1.0);font-size:12.8px;font-family:'Roboto Medium',sans-serif">2021-01-03</text><path  d="M 500 351
L 500 356" style="stroke-width:1;stroke:rgba(51,51,51,1.0);fill:none"/><text x="467" y="373" style="stroke-width:0;stroke:none;fill:rgba(51,51,51,1.0);font-size:12.8px;font-family:'Roboto Medium',sans-serif">2021-04-18</text><path  d="M 615 351
L 615 356" style="stroke-width:1;stroke:rgba(51,51,51,1.0);fill:none"/><text x="582" y="373" style="stroke-width:0;stroke:none;fill:rgba(51,51,51,1.0);font-size:12.8px;font-family:'Roboto Medium',sans-serif">2021-07-31</text><path  d="M 731 351
L 731 356" style="stroke-width:1;stroke:rgba(51,51,51,1.0);fill:none"/><text x="698" y="373" style="stroke-width:0;stroke:none;fill:rgba(51,51,51,1.0);font-size:12.8px;font-family:'Roboto Medium',sans-serif">2021-11-12</text><path  d="M 846 351
L 846 356" style="stroke-width:1;stroke:rgba(51,51,51,1.0);fill:none"/><text x="813" y="373" style="stroke-width:0;stroke:none;fill:rgba(51,51,51,1.0);font-size:12.8px;font-family:'Roboto Medium',sans-serif">2022-02-24</text><path  d="M 961 351
L 961 356" style="stroke-width:1;stroke:rgba(51,51,51,1.0);fill:none"/><text x="928" y="373" style="stroke-width:0;stroke:none;fill:rgba(51,51,51,1.0);font-size:12.8px;font-family:'Roboto Medium',sans-serif">2022-06-09</text><text x="481" y="395" style="stroke-width:0;stroke:none;fill:rgba(51,51,51,1.0);font-size:12.8px;font-family:'Roboto Medium',sans-serif">Datum</text><path  d="M 962 351
L 962 11" style="stroke-width:1;stroke:rgba(51,51,51,1.0);fill:none"/><path  d="M 962 351
L 967 351" style="stroke-width:1;stroke:rgba(51,51,51,1.0);fill:none"/><text x="972" y="357" style="stroke-width:0;stroke:none;fill:rgba(51,51,51,1.0);font-size:12.8px;font-family:'Roboto Medium',sans-serif">0.00</text><path  d="M 962 308
L 967 308" style="stroke-width:1;stroke:rgba(51,51,51,1.0);fill:none"/><text x="972" y="314" style="stroke-width:0;stroke:none;fill:rgba(51,51,51,1.0);font-size:12.8px;font-family:'Roboto Medium',sans-serif">440.00</text><path  d="M 962 265
L 967 265" style="stroke-width:1;stroke:rgba(51,51,51,1.0);fill:none"/><text x="972" y="271" style="stroke-width:0;stroke:none;fill:rgba(51,51,51,1.0);font-size:12.8px;font-family:'Roboto Medium',sans-serif">880.00</text><path  d="M 962 222
L 967 222" style="stroke-width:1;stroke:rgba(51,51,51,1.0);fill:none"/><text x="972" y="228" style="stroke-width:0;stroke:none;fill:rgba(51,51,51,1.0);font-size:12.8px;font-family:'Roboto Medium',sans-serif">1320.00</text><path  d="M 962 181
L 967 181" style="stroke-width:1;stroke:rgba(51,51,51,1.0);fill:none"/><text x="972" y="187" style="stroke-width:0;stroke:none;fill:rgba(51,51,51,1.0);font-size:12.8px;font-family:'Roboto Medium',sans-serif">1750.00</text><path  d="M 962 138
L 967 138" style="stroke-width:1;stroke:rgba(51,51,51,1.0);fill:none"/><text x="972" y="144" style="stroke-width:0;stroke:none;fill:rgba(51,51,51,1.0);font-size:12.8px;font-family:'Roboto Medium',sans-serif">2190.00</text><path  d="M 962 95
L 967 95" style="stroke-width:1;stroke:rgba(51,51,51,1.0);fill:none"/><text x="972" y="101" style="stroke-width:0;stroke:none;fill:rgba(51,51,51,1.0);font-size:12.8px;font-family:'Roboto Medium',sans-serif">2630.00</text><path  d="M 962 52
L 967 52" style="stroke-width:1;stroke:rgba(51,51,51,1.0);fill:none"/><text x="972" y="58" style="stroke-width:0;stroke:none;fill:rgba(51,51,51,1.0);font-size:12.8px;font-family:'Roboto Medium',sans-serif">3070.00</text><path  d="M 962 11
L 967 11" style="stroke-width:1;stroke:rgba(51,51,51,1.0);fill:none"/><text x="972" y="17" style="stroke-width:0;stroke:none;fill:rgba(51,51,51,1.0);font-size:12.8px;font-family:'Roboto Medium',sans-serif">3500.00</text><path  d="M 38 351
L 40 351
L 41 351
L 42 351
L 43 351
L 44 351
L 45 351
L 46 351
L 47 351
L 48 351
L 50 350
L 51 350
L 52 350
L 53 350
L 54 350
L 55 350
L 56 349
L 57 349
L 58 349
L 60 349
L 61 348
L 62 348
L 63 348
L 64 348
L 65 348
L 66 348
L 67 347
L 68 347
L 69 347
L 71 346
L 72 346
L 73 346
L 74 345
L 75 346
L 76 346
L 77 346
L 78 346
L 79 347
L 81 346
L 82 347
L 83 347
L 84 347
L 85 348
L 86 348
L 87 349
L 88 349
L 89 350
L 91 350
L 92 350
L 93 350
L 94 350
L 95 350
L 96 350
L 97 350
L 98 350
L 99 350
L 100 350
L 102 350
L 103 350
L 104 350
L 105 350
L 106 350
L 107 350
L 108 350
L 109 350
L 110 350
L 112 350
L 113 350
L 114 350
L 115 350
L 116 350
L 117 350
L 118 350
L 119 350
L 120 350
L 122 350
L 123 350
L 124 350
L 125 351
L 126 350
L 127 350
L 128 350
L 129 350
L 130 350
L 131 350
L 133 350
L 134 350
L 135 350
L 136 350
L 137 350
L 138 350
L 139 350
L 140 350
L 141 350
L 143 350
L 144 350
L 145 350
L 146 350
L 147 350
L 148 350
L 149 350
L 150 350
L 151 350
L 152 350
L 154 350
L 155 350
L 156 350
L 157 350
L 158 350
L 159 350
L 160 350
L 161 350
L 162 350
L 164 350
L 165 350
L 166 350
L 167 350
L 168 350
L 169 350
L 170 350
L 171 350
L 172 350
L 174 349
L 175 349
L 176 349
L 177 348
L 178 348
L 179 347
L 180 347
L 181 347
L 182 347
L 183 347
L 185 347
L 186 348
L 187 347
L 188 347
L 189 347
L 190 347
L 191 347
L 192 347
L 193 347
L 195 347
L 196 347
L 197 347
L 198 347
L 199 347
L 200 347
L 201 347
L 202 346
L 203 346
L 205 346
L 206 347
L 207 347
L 208 347
L 209 347
L 210 348
L 211 348
L 212 348
L 213 348
L 214 348
L 216 348
L 217 348
L 218 348
L 219 349
L 220 349
L 221 349
L 222 349
L 223 349
L 224 349
L 226 348
L 227 348
L 228 348
L 229 348
L 230 348
L 231 348
L 232 347
L 233 347
L 234 347
L 235 347
L 237 347
L 238 347
L 239 347
L 240 348
L 241 348
L 242 348
L 243 348
L 244 348
L 245 348
L 247 348
L 248 348
L 249 349
L 250 349
L 251 349
L 252 349
L 253 349
L 254 349
L 255 349
L 257 349
L 258 348
L 259 348
L 260 347
L 261 346
L 262 346
L 263 345
L 264 344
L 265 343
L 266 343
L 268 344
L 269 344
L 270 344
L 271 345
L 272 346
L 273 346
L 274 346
L 275 346
L 276 346
L 278 346
L 279 345
L 280 344
L 281 345
L 282 343
L 283 343
L 284 342
L 285 342
L 286 343
L 288 343
L 289 343
L 290 344
L 291 344
L 292 345
L 293 344
L 294 343
L 295 343
L 296 342
L 297 340
L 299 341
L 300 340
L 301 338
L 302 336
L 303 334
L 304 333
L 305 330
L 306 328
L 307 328
L 309 327
L 310 327
L 311 322
L 312 320
L 313 321
L 314 321
L 315 314
L 316 311
L 317 309
L 318 310
L 320 305
L 321 298
L 322 294
L 323 294
L 324 295
L 325 292
L 326 292
L 327 293
L 328 296
L 330 299
L 331 299
L 332 297
L 333 296
L 334 298
L 335 298
L 336 303
L 337 305
L 338 305
L 340 310
L 341 313
L 342 313
L 343 317
L 344 316
L 345 312
L 346 318
L 347 318
L 348 318
L 349 320
L 351 323
L 352 322
L 353 324
L 354 327
L 355 325
L 356 329
L 357 330
L 358 329
L 359 331
L 361 331
L 362 330
L 363 331
L 364 330
L 365 331
L 366 333
L 367 335
L 368 336
L 369 338
L 371 337
L 372 338
L 373 338
L 374 338
L 375 339
L 376 338
L 377 338
L 378 338
L 379 339
L 380 339
L 382 339
L 383 339
L 384 340
L 385 339
L 386 340
L 387 339
L 388 341
L 389 340
L 390 339
L 392 340
L 393 340
L 394 340
L 395 341
L 396 340
L 397 341
L 398 341
L 399 342
L 400 342
L 402 343
L 403 343
L 404 343
L 405 344
L 406 344
L 407 344
L 408 344
L 409 345
L 410 345
L 411 346
L 413 346
L 414 345
L 415 345
L 416 346
L 417 345
L 418 346
L 419 345
L 420 345
L 421 346
L 423 346
L 424 346
L 425 346
L 426 346
L 427 346
L 428 346
L 429 346
L 430 346
L 431 346
L 432 346
L 434 345
L 435 344
L 436 343
L 437 341
L 438 341
L 439 341
L 440 340
L 441 340
L 442 340
L 444 340
L 445 340
L 446 340
L 447 340
L 448 341
L 449 340
L 450 340
L 451 341
L 452 340
L 454 341
L 455 341
L 456 339
L 457 339
L 458 339
L 459 339
L 460 338
L 461 336
L 462 336
L 463 335
L 465 335
L 466 334
L 467 333
L 468 335
L 469 335
L 470 335
L 471 336
L 472 336
L 473 336
L 475 337
L 476 337
L 477 337
L 478 337
L 479 336
L 480 336
L 481 336
L 482 335
L 483 335
L 485 334
L 486 334
L 487 335
L 488 334
L 489 333
L 490 333
L 491 333
L 492 333
L 493 332
L 494 330
L 496 330
L 497 331
L 498 330
L 499 330
L 500 330
L 501 330
L 502 330
L 503 329
L 504 329
L 506 330
L 507 330
L 508 331
L 509 332
L 510 332
L 511 332
L 512 332
L 513 333
L 514 333
L 515 334
L 517 334
L 518 334
L 519 336
L 520 337
L 521 337
L 522 339
L 523 339
L 524 339
L 525 340
L 527 341
L 528 342
L 529 342
L 530 343
L 531 343
L 532 343
L 533 344
L 534 345
L 535 344
L 537 344
L 538 344
L 539 345
L 540 345
L 541 347
L 542 346
L 543 346
L 544 346
L 545 347
L 546 347
L 548 347
L 549 346
L 550 347
L 551 348
L 552 348
L 553 348
L 554 348
L 555 348
L 556 348
L 558 348
L 559 348
L 560 348
L 561 348
L 562 348
L 563 348
L 564 349
L 565 349
L 566 349
L 568 349
L 569 349
L 570 349
L 571 349
L 572 349
L 573 349
L 574 349
L 575 349
L 576 349
L 577 349
L 579 349
L 580 349
L 581 349
L 582 349
L 583 349
L 584 349
L 585 349
L 586 349
L 587 349
L 589 349
L 590 349
L 591 349
L 592 349
L 593 349
L 594 349
L 595 349
L 596 349
L 597 349
L 598 348
L 600 347
L 601 347
L 602 347
L 603 346
L 604 346
L 605 345
L 606 345
L 607 346
L 608 346
L 610 346
L 611 347
L 612 347
L 613 347
L 614 347
L 615 347
L 616 347
L 617 346
L 618 346
L 620 347
L 621 347
L 622 347
L 623 347
L 624 347
L 625 346
L 626 346
L 627 345
L 628 345
L 629 345
L 631 344
L 632 344
L 633 344
L 634 343
L 635 342
L 636 340
L 637 337
L 638 336
L 639 335
L 641 335
L 642 333
L 643 333
L 644 332
L 645 334
L 646 332
L 647 331
L 648 330
L 649 330
L 651 331
L 652 330
L 653 327
L 654 329
L 655 330
L 656 329
L 657 329
L 658 327
L 659 327
L 660 328
L 662 326
L 663 327
L 664 326
L 665 327
L 666 328
L 667 328
L 668 327
L 669 329
L 670 330
L 672 331
L 673 332
L 674 333
L 675 333
L 676 334
L 677 333
L 678 332
L 679 332
L 680 331
L 682 331
L 683 331
L 684 330
L 685 329
L 686 328
L 687 328
L 688 327
L 689 327
L 690 328
L 691 329
L 693 331
L 694 332
L 695 331
L 696 332
L 697 332
L 698 332
L 699 331
L 700 332
L 701 331
L 703 330
L 704 329
L 705 328
L 706 328
L 707 327
L 708 326
L 709 326
L 710 326
L 711 328
L 712 327
L 714 324
L 715 322
L 716 320
L 717 318
L 718 318
L 719 316
L 720 313
L 721 309
L 722 308
L 724 304
L 725 302
L 726 299
L 727 293
L 728 290
L 729 293
L 730 287
L 731 283
L 732 277
L 734 271
L 735 262
L 736 260
L 737 248
L 738 246
L 739 243
L 740 241
L 741 242
L 742 241
L 743 243
L 745 248
L 746 251
L 747 255
L 748 262
L 749 263
L 750 270
L 751 272
L 752 280
L 753 285
L 755 292
L 756 295
L 757 302
L 758 311
L 759 315
L 760 321
L 761 323
L 762 324
L 763 324
L 765 324
L 766 326
L 767 327
L 768 327
L 769 330
L 770 331
L 771 334
L 772 335
L 773 336
L 774 338
L 776 338
L 777 338
L 778 339
L 779 340
L 780 339
L 781 338
L 782 337
L 783 336
L 784 335
L 786 334
L 787 333
L 788 329
L 789 326
L 790 318
L 791 310
L 792 304
L 793 299
L 794 290
L 795 283
L 797 270
L 798 266
L 799 260
L 800 247
L 801 241
L 802 235
L 803 230
L 804 222
L 805 213
L 807 198
L 808 193
L 809 185
L 810 176
L 811 171
L 812 167
L 813 154
L 814 149
L 815 139
L 817 136
L 818 134
L 819 134
L 820 126
L 821 122
L 822 121
L 823 127
L 824 127
L 825 127
L 826 117
L 828 117
L 829 115
L 830 119
L 831 118
L 832 118
L 833 120
L 834 128
L 835 132
L 836 140
L 838 144
L 839 150
L 840 155
L 841 163
L 842 170
L 843 179
L 844 188
L 845 190
L 846 196
L 848 198
L 849 194
L 850 188
L 851 182
L 852 176
L 853 181
L 854 173
L 855 168
L 856 168
L 857 164
L 859 160
L 860 146
L 861 128
L 862 115
L 863 101
L 864 88
L 865 74
L 866 52
L 867 39
L 869 21
L 870 17
L 871 16
L 872 16
L 873 26
L 874 24
L 875 35
L 876 53
L 877 62
L 878 69
L 880 80
L 881 91
L 882 117
L 883 134
L 884 151
L 885 163
L 886 179
L 887 194
L 888 203
L 890 218
L 891 229
L 892 238
L 893 250
L 894 254
L 895 257
L 896 264
L 897 274
L 898 280
L 900 286
L 901 290
L 902 293
L 903 294
L 904 295
L 905 304
L 906 304
L 907 304
L 908 306
L 909 308
L 911 310
L 912 311
L 913 306
L 914 311
L 915 313
L 916 316
L 917 318
L 918 318
L 919 319
L 921 320
L 922 320
L 923 321
L 924 321
L 925 321
L 926 321
L 927 320
L 928 321
L 929 322
L 931 322
L 932 324
L 933 322
L 934 323
L 935 324
L 936 325
L 937 325
L 938 327
L 939 327
L 940 330
L 942 331
L 943 332
L 944 333
L 945 336
L 946 337
L 947 339
L 948 338
L 949 338
L 950 337
L 952 338
L 953 338
L 954 338
L 955 336
L 956 337
L 957 336
L 958 336
L 959 337
L 960 336
L 961 335" style="stroke-width:1;stroke:rgba(0,116,217,1.0);fill:none"/><path  d="M 38 351
L 40 351
L 41 351
L 42 351
L 43 351
L 44 351
L 45 351
L 46 351
L 47 351
L 48 351
L 50 350
L 51 350
L 52 351
L 53 350
L 54 350
L 55 350
L 56 350
L 57 350
L 58 350
L 60 350
L 61 349
L 62 350
L 63 350
L 64 349
L 65 350
L 66 350
L 67 349
L 68 349
L 69 349
L 71 348
L 72 349
L 73 350
L 74 348
L 75 350
L 76 350
L 77 349
L 78 349
L 79 350
L 81 349
L 82 350
L 83 350
L 84 350
L 85 350
L 86 350
L 87 350
L 88 350
L 89 350
L 91 350
L 92 351
L 93 350
L 94 351
L 95 350
L 96 350
L 97 351
L 98 351
L 99 351
L 100 351
L 102 350
L 103 350
L 104 351
L 105 351
L 106 350
L 107 350
L 108 351
L 109 351
L 110 351
L 112 351
L 113 350
L 114 351
L 115 351
L 116 350
L 117 350
L 118 351
L 119 351
L 120 351
L 122 351
L 123 351
L 124 351
L 125 351
L 126 350
L 127 351
L 128 351
L 129 351
L 130 350
L 131 350
L 133 351
L 134 350
L 135 351
L 136 351
L 137 351
L 138 351
L 139 351
L 140 350
L 141 351
L 143 351
L 144 350
L 145 351
L 146 351
L 147 350
L 148 351
L 149 350
L 150 350
L 151 351
L 152 351
L 154 350
L 155 350
L 156 351
L 157 351
L 158 351
L 159 351
L 160 351
L 161 350
L 162 350
L 164 350
L 165 351
L 166 350
L 167 350
L 168 351
L 169 350
L 170 350
L 171 350
L 172 349
L 174 350
L 175 350
L 176 350
L 177 349
L 178 349
L 179 350
L 180 349
L 181 349
L 182 350
L 183 350
L 185 349
L 186 350
L 187 348
L 188 349
L 189 349
L 190 349
L 191 350
L 192 350
L 193 349
L 195 349
L 196 350
L 197 349
L 198 349
L 199 351
L 200 348
L 201 349
L 202 349
L 203 349
L 205 350
L 206 350
L 207 350
L 208 350
L 209 349
L 210 350
L 211 350
L 212 350
L 213 350
L 214 350
L 216 350
L 217 350
L 218 350
L 219 350
L 220 350
L 221 350
L 222 350
L 223 350
L 224 350
L 226 350
L 227 350
L 228 350
L 229 349
L 230 350
L 231 349
L 232 349
L 233 349
L 234 350
L 235 350
L 237 350
L 238 350
L 239 350
L 240 349
L 241 349
L 242 349
L 243 350
L 244 350
L 245 350
L 247 350
L 248 350
L 249 350
L 250 351
L 251 350
L 252 350
L 253 350
L 254 350
L 255 350
L 257 350
L 258 349
L 259 349
L 260 348
L 261 349
L 262 349
L 263 347
L 264 348
L 265 347
L 266 349
L 268 350
L 269 349
L 270 348
L 271 350
L 272 350
L 273 347
L 274 350
L 275 349
L 276 350
L 278 349
L 279 348
L 280 348
L 281 348
L 282 346
L 283 350
L 284 348
L 285 349
L 286 350
L 288 348
L 289 348
L 290 349
L 291 349
L 292 350
L 293 348
L 294 347
L 295 347
L 296 346
L 297 346
L 299 349
L 300 348
L 301 344
L 302 342
L 303 343
L 304 343
L 305 341
L 306 344
L 307 348
L 309 342
L 310 343
L 311 334
L 312 340
L 313 342
L 314 345
L 315 332
L 316 337
L 317 339
L 318 336
L 320 328
L 321 329
L 322 336
L 323 333
L 324 338
L 325 334
L 326 335
L 327 330
L 328 335
L 330 342
L 331 333
L 332 333
L 333 333
L 334 338
L 335 330
L 336 346
L 337 348
L 338 332
L 340 344
L 341 340
L 342 337
L 343 339
L 344 344
L 345 341
L 346 342
L 347 345
L 348 339
L 349 341
L 351 345
L 352 340
L 353 346
L 354 347
L 355 343
L 356 347
L 357 343
L 358 344
L 359 344
L 361 345
L 362 346
L 363 346
L 364 344
L 365 346
L 366 347
L 367 348
L 368 348
L 369 349
L 371 345
L 372 345
L 373 346
L 374 348
L 375 349
L 376 345
L 377 349
L 378 345
L 379 347
L 380 346
L 382 348
L 383 349
L 384 346
L 385 349
L 386 346
L 387 346
L 388 349
L 389 346
L 390 348
L 392 348
L 393 349
L 394 347
L 395 348
L 396 347
L 397 348
L 398 348
L 399 349
L 400 350
L 402 348
L 403 347
L 404 348
L 405 349
L 406 350
L 407 349
L 408 350
L 409 348
L 410 349
L 411 350
L 413 349
L 414 349
L 415 349
L 416 350
L 417 348
L 418 349
L 419 349
L 420 349
L 421 350
L 423 349
L 424 350
L 425 349
L 426 349
L 427 349
L 428 349
L 429 349
L 430 349
L 431 350
L 432 348
L 434 347
L 435 347
L 436 347
L 437 347
L 438 347
L 439 350
L 440 347
L 441 348
L 442 346
L 444 346
L 445 347
L 446 347
L 447 350
L 448 349
L 449 347
L 450 346
L 451 348
L 452 346
L 454 348
L 455 350
L 456 346
L 457 345
L 458 347
L 459 347
L 460 343
L 461 346
L 462 350
L 463 343
L 465 347
L 466 345
L 467 345
L 468 347
L 469 347
L 470 349
L 471 345
L 472 346
L 473 345
L 475 347
L 476 347
L 477 347
L 478 349
L 479 343
L 480 345
L 481 346
L 482 345
L 483 346
L 485 346
L 486 348
L 487 346
L 488 343
L 489 344
L 490 345
L 491 345
L 492 346
L 493 348
L 494 342
L 496 343
L 497 346
L 498 343
L 499 345
L 500 344
L 501 347
L 502 343
L 503 342
L 504 345
L 506 345
L 507 346
L 508 346
L 509 349
L 510 343
L 511 342
L 512 346
L 513 347
L 514 345
L 515 348
L 517 349
L 518 344
L 519 345
L 520 348
L 521 347
L 522 348
L 523 348
L 524 349
L 525 345
L 527 348
L 528 349
L 529 349
L 530 350
L 531 347
L 532 350
L 533 347
L 534 350
L 535 349
L 537 349
L 538 350
L 539 349
L 540 350
L 541 350
L 542 347
L 543 349
L 544 350
L 545 350
L 546 349
L 548 350
L 549 349
L 550 350
L 551 350
L 552 350
L 553 350
L 554 350
L 555 350
L 556 349
L 558 349
L 559 349
L 560 350
L 561 350
L 562 350
L 563 351
L 564 350
L 565 350
L 566 350
L 568 350
L 569 350
L 570 350
L 571 350
L 572 349
L 573 350
L 574 350
L 575 350
L 576 350
L 577 351
L 579 350
L 580 350
L 581 350
L 582 350
L 583 350
L 584 350
L 585 350
L 586 351
L 587 350
L 589 350
L 590 350
L 591 350
L 592 350
L 593 350
L 594 350
L 595 350
L 596 350
L 597 349
L 598 349
L 600 349
L 601 350
L 602 350
L 603 348
L 604 349
L 605 349
L 606 349
L 607 350
L 608 350
L 610 350
L 611 349
L 612 349
L 613 349
L 614 349
L 615 350
L 616 350
L 617 350
L 618 349
L 620 350
L 621 349
L 622 349
L 623 350
L 624 350
L 625 349
L 626 347
L 627 349
L 628 348
L 629 349
L 631 348
L 632 349
L 633 349
L 634 346
L 635 345
L 636 345
L 637 343
L 638 346
L 639 347
L 641 349
L 642 343
L 643 345
L 644 344
L 645 347
L 646 342
L 647 345
L 648 345
L 649 344
L 651 346
L 652 342
L 653 341
L 654 347
L 655 345
L 656 345
L 657 342
L 658 343
L 659 342
L 660 343
L 662 343
L 663 347
L 664 344
L 665 344
L 666 344
L 667 342
L 668 341
L 669 347
L 670 348
L 672 347
L 673 345
L 674 345
L 675 342
L 676 344
L 677 345
L 678 347
L 679 348
L 680 343
L 682 344
L 683 344
L 684 342
L 685 343
L 686 345
L 687 346
L 688 340
L 689 345
L 690 345
L 691 345
L 693 346
L 694 347
L 695 345
L 696 342
L 697 344
L 698 344
L 699 344
L 700 347
L 701 345
L 703 344
L 704 341
L 705 343
L 706 343
L 707 343
L 708 344
L 709 344
L 710 345
L 711 344
L 712 340
L 714 338
L 715 338
L 716 341
L 717 340
L 718 343
L 719 341
L 720 335
L 721 329
L 722 335
L 724 333
L 725 337
L 726 337
L 727 329
L 728 328
L 729 334
L 730 323
L 731 326
L 732 324
L 734 326
L 735 310
L 736 322
L 737 312
L 738 318
L 739 321
L 740 319
L 741 328
L 742 308
L 743 327
L 745 321
L 746 324
L 747 328
L 748 335
L 749 330
L 750 321
L 751 333
L 752 337
L 753 334
L 755 343
L 756 343
L 757 344
L 758 339
L 759 341
L 760 348
L 761 340
L 762 345
L 763 341
L 765 346
L 766 344
L 767 344
L 768 347
L 769 346
L 770 346
L 771 347
L 772 348
L 773 346
L 774 347
L 776 347
L 777 347
L 778 348
L 779 349
L 780 346
L 781 344
L 782 345
L 783 345
L 784 345
L 786 345
L 787 346
L 788 338
L 789 338
L 790 329
L 791 329
L 792 333
L 793 333
L 794 329
L 795 322
L 797 313
L 798 320
L 799 316
L 800 306
L 801 321
L 802 316
L 803 312
L 804 297
L 805 301
L 807 286
L 808 296
L 809 303
L 810 299
L 811 302
L 812 287
L 813 274
L 814 275
L 815 278
L 817 297
L 818 293
L 819 303
L 820 270
L 821 267
L 822 272
L 823 291
L 824 296
L 825 293
L 826 281
L 828 270
L 829 263
L 830 281
L 831 289
L 832 295
L 833 298
L 834 298
L 835 278
L 836 280
L 838 288
L 839 302
L 840 305
L 841 314
L 842 315
L 843 295
L 844 300
L 845 292
L 846 314
L 848 309
L 849 306
L 850 303
L 851 281
L 852 289
L 853 302
L 854 296
L 855 300
L 856 305
L 857 295
L 859 272
L 860 259
L 861 266
L 862 268
L 863 273
L 864 278
L 865 265
L 866 227
L 867 233
L 869 229
L 870 259
L 871 273
L 872 277
L 873 287
L 874 221
L 875 256
L 876 267
L 877 276
L 878 288
L 880 300
L 881 308
L 882 275
L 883 293
L 884 302
L 885 300
L 886 320
L 887 330
L 888 327
L 890 306
L 891 316
L 892 321
L 893 324
L 894 330
L 895 336
L 896 341
L 897 328
L 898 328
L 900 333
L 901 332
L 902 335
L 903 340
L 904 343
L 905 345
L 906 330
L 907 333
L 908 337
L 909 339
L 911 343
L 912 344
L 913 335
L 914 340
L 915 338
L 916 342
L 917 343
L 918 344
L 919 347
L 921 337
L 922 340
L 923 340
L 924 342
L 925 344
L 926 344
L 927 345
L 928 340
L 929 341
L 931 341
L 932 345
L 933 341
L 934 345
L 935 348
L 936 340
L 937 342
L 938 344
L 939 345
L 940 347
L 942 348
L 943 349
L 944 343
L 945 347
L 946 346
L 947 350
L 948 346
L 949 348
L 950 347
L 952 344
L 953 347
L 954 345
L 955 347
L 956 347
L 957 346
L 958 347
L 959 347
L 960 343
L 961 343" style="stroke-width:1;stroke:rgba(0,217,101,1.0);fill:none"/><path  d="M 38 351
L 40 351
L 41 351
L 42 351
L 43 351
L 44 351
L 45 351
L 46 351
L 47 351
L 48 351
L 50 351
L 51 351
L 52 351
L 53 351
L 54 351
L 55 351
L 56 351
L 57 351
L 58 351
L 60 351
L 61 351
L 62 351
L 63 351
L 64 351
L 65 351
L 66 351
L 67 351
L 68 351
L 69 351
L 71 351
L 72 351
L 73 351
L 74 350
L 75 351
L 76 351
L 77 350
L 78 351
L 79 350
L 81 351
L 82 350
L 83 351
L 84 350
L 85 350
L 86 351
L 87 351
L 88 350
L 89 351
L 91 351
L 92 351
L 93 351
L 94 351
L 95 351
L 96 351
L 97 351
L 98 351
L 99 351
L 100 351
L 102 351
L 103 351
L 104 351
L 105 351
L 106 351
L 107 351
L 108 350
L 109 351
L 110 351
L 112 350
L 113 351
L 114 351
L 115 351
L 116 351
L 117 351
L 118 350
L 119 351
L 120 351
L 122 351
L 123 351
L 124 351
L 125 350
L 126 351
L 127 351
L 128 351
L 129 351
L 130 351
L 131 351
L 133 351
L 134 351
L 135 351
L 136 351
L 137 351
L 138 351
L 139 351
L 140 351
L 141 351
L 143 351
L 144 351
L 145 351
L 146 351
L 147 351
L 148 351
L 149 351
L 150 351
L 151 351
L 152 351
L 154 351
L 155 351
L 156 351
L 157 351
L 158 351
L 159 351
L 160 351
L 161 351
L 162 351
L 164 351
L 165 351
L 166 351
L 167 351
L 168 351
L 169 351
L 170 351
L 171 351
L 172 351
L 174 351
L 175 351
L 176 351
L 177 351
L 178 351
L 179 351
L 180 351
L 181 351
L 182 351
L 183 351
L 185 351
L 186 351
L 187 351
L 188 351
L 189 351
L 190 351
L 191 351
L 192 351
L 193 351
L 195 351
L 196 351
L 197 351
L 198 351
L 199 351
L 200 351
L 201 351
L 202 351
L 203 351
L 205 351
L 206 351
L 207 350
L 208 351
L 209 351
L 210 351
L 211 351
L 212 351
L 213 351
L 214 351
L 216 351
L 217 351
L 218 350
L 219 351
L 220 350
L 221 351
L 222 351
L 223 351
L 224 351
L 226 351
L 227 351
L 228 351
L 229 351
L 230 351
L 231 351
L 232 351
L 233 351
L 234 351
L 235 351
L 237 351
L 238 351
L 239 351
L 240 351
L 241 351
L 242 351
L 243 351
L 244 351
L 245 351
L 247 350
L 248 351
L 249 351
L 250 351
L 251 351
L 252 351
L 253 351
L 254 351
L 255 351
L 257 351
L 258 351
L 259 351
L 260 351
L 261 351
L 262 351
L 263 351
L 264 350
L 265 351
L 266 351
L 268 351
L 269 351
L 270 351
L 271 351
L 272 350
L 273 351
L 274 351
L 275 351
L 276 351
L 278 351
L 279 351
L 280 350
L 281 351
L 282 351
L 283 351
L 284 351
L 285 350
L 286 351
L 288 351
L 289 351
L 290 351
L 291 351
L 292 351
L 293 351
L 294 350
L 295 351
L 296 351
L 297 351
L 299 350
L 300 351
L 301 350
L 302 350
L 303 350
L 304 351
L 305 350
L 306 350
L 307 350
L 309 351
L 310 351
L 311 350
L 312 350
L 313 350
L 314 351
L 315 351
L 316 350
L 317 350
L 318 350
L 320 351
L 321 350
L 322 350
L 323 350
L 324 350
L 325 350
L 326 350
L 327 350
L 328 350
L 330 350
L 331 350
L 332 350
L 333 350
L 334 350
L 335 350
L 336 350
L 337 350
L 338 350
L 340 350
L 341 350
L 342 350
L 343 350
L 344 350
L 345 350
L 346 350
L 347 350
L 348 350
L 349 350
L 351 350
L 352 350
L 353 350
L 354 350
L 355 350
L 356 350
L 357 350
L 358 350
L 359 350
L 361 350
L 362 350
L 363 350
L 364 350
L 365 350
L 366 350
L 367 350
L 368 350
L 369 350
L 371 350
L 372 350
L 373 350
L 374 350
L 375 350
L 376 350
L 377 350
L 378 351
L 379 350
L 380 350
L 382 350
L 383 350
L 384 350
L 385 351
L 386 351
L 387 350
L 388 350
L 389 350
L 390 351
L 392 350
L 393 350
L 394 350
L 395 350
L 396 350
L 397 351
L 398 351
L 399 351
L 400 350
L 402 350
L 403 351
L 404 350
L 405 350
L 406 350
L 407 351
L 408 350
L 409 351
L 410 351
L 411 350
L 413 351
L 414 350
L 415 350
L 416 351
L 417 351
L 418 350
L 419 350
L 420 351
L 421 351
L 423 350
L 424 351
L 425 351
L 426 350
L 427 351
L 428 350
L 429 351
L 430 351
L 431 351
L 432 351
L 434 351
L 435 351
L 436 351
L 437 350
L 438 351
L 439 351
L 440 350
L 441 351
L 442 351
L 444 350
L 445 351
L 446 350
L 447 351
L 448 351
L 449 351
L 450 351
L 451 351
L 452 350
L 454 351
L 455 351
L 456 351
L 457 351
L 458 351
L 459 351
L 460 351
L 461 351
L 462 351
L 463 350
L 465 351
L 466 351
L 467 350
L 468 350
L 469 351
L 470 351
L 471 351
L 472 351
L 473 350
L 475 351
L 476 351
L 477 351
L 478 350
L 479 350
L 480 350
L 481 350
L 482 351
L 483 350
L 485 351
L 486 351
L 487 351
L 488 351
L 489 351
L 490 351
L 491 350
L 492 350
L 493 351
L 494 351
L 496 350
L 497 350
L 498 351
L 499 351
L 500 351
L 501 351
L 502 351
L 503 351
L 504 351
L 506 351
L 507 351
L 508 351
L 509 351
L 510 351
L 511 351
L 512 351
L 513 350
L 514 351
L 515 351
L 517 351
L 518 350
L 519 351
L 520 351
L 521 351
L 522 351
L 523 351
L 524 351
L 525 350
L 527 351
L 528 351
L 529 351
L 530 351
L 531 351
L 532 351
L 533 351
L 534 351
L 535 351
L 537 351
L 538 351
L 539 351
L 540 351
L 541 351
L 542 351
L 543 351
L 544 351
L 545 351
L 546 351
L 548 351
L 549 351
L 550 351
L 551 351
L 552 351
L 553 351
L 554 351
L 555 351
L 556 351
L 558 350
L 559 351
L 560 351
L 561 351
L 562 350
L 563 351
L 564 351
L 565 351
L 566 351
L 568 351
L 569 351
L 570 351
L 571 351
L 572 351
L 573 351
L 574 351
L 575 351
L 576 351
L 577 351
L 579 351
L 580 351
L 581 351
L 582 351
L 583 351
L 584 351
L 585 351
L 586 351
L 587 351
L 589 351
L 590 351
L 591 351
L 592 351
L 593 351
L 594 351
L 595 351
L 596 351
L 597 351
L 598 351
L 600 351
L 601 351
L 602 351
L 603 351
L 604 351
L 605 351
L 606 351
L 607 351
L 608 351
L 610 351
L 611 351
L 612 351
L 613 351
L 614 351
L 615 351
L 616 351
L 617 351
L 618 351
L 620 351
L 621 350
L 622 350
L 623 351
L 624 351
L 625 351
L 626 351
L 627 351
L 628 351
L 629 351
L 631 351
L 632 351
L 633 351
L 634 351
L 635 351
L 636 351
L 637 351
L 638 351
L 639 351
L 641 350
L 642 351
L 643 350
L 644 351
L 645 350
L 646 350
L 647 351
L 648 351
L 649 351
L 651 351
L 652 351
L 653 351
L 654 350
L 655 351
L 656 351
L 657 351
L 658 350
L 659 350
L 660 350
L 662 350
L 663 351
L 664 351
L 665 350
L 666 351
L 667 350
L 668 351
L 669 351
L 670 350
L 672 351
L 673 350
L 674 350
L 675 351
L 676 351
L 677 350
L 678 351
L 679 351
L 680 350
L 682 351
L 683 350
L 684 350
L 685 351
L 686 350
L 687 351
L 688 350
L 689 350
L 690 350
L 691 351
L 693 350
L 694 351
L 695 351
L 696 351
L 697 351
L 698 351
L 699 351
L 700 350
L 701 351
L 703 351
L 704 351
L 705 351
L 706 350
L 707 351
L 708 351
L 709 350
L 710 351
L 711 350
L 712 351
L 714 350
L 715 351
L 716 351
L 717 350
L 718 351
L 719 351
L 720 350
L 721 351
L 722 351
L 724 351
L 725 351
L 726 350
L 727 351
L 728 351
L 729 350
L 730 350
L 731 350
L 732 350
L 734 351
L 735 351
L 736 350
L 737 350
L 738 350
L 739 351
L 740 350
L 741 350
L 742 350
L 743 350
L 745 350
L 746 350
L 747 350
L 748 350
L 749 350
L 750 351
L 751 351
L 752 350
L 753 350
L 755 350
L 756 350
L 757 350
L 758 350
L 759 350
L 760 350
L 761 350
L 762 351
L 763 351
L 765 351
L 766 350
L 767 350
L 768 350
L 769 351
L 770 350
L 771 350
L 772 350
L 773 351
L 774 351
L 776 350
L 777 351
L 778 351
L 779 350
L 780 350
L 781 350
L 782 350
L 783 351
L 784 351
L 786 351
L 787 351
L 788 350
L 789 351
L 790 350
L 791 351
L 792 350
L 793 351
L 794 351
L 795 351
L 797 351
L 798 351
L 799 351
L 800 350
L 801 350
L 802 351
L 803 351
L 804 351
L 805 350
L 807 351
L 808 351
L 809 351
L 810 351
L 811 351
L 812 350
L 813 351
L 814 350
L 815 351
L 817 351
L 818 351
L 819 351
L 820 350
L 821 351
L 822 350
L 823 351
L 824 351
L 825 351
L 826 350
L 828 351
L 829 350
L 830 351
L 831 350
L 832 350
L 833 351
L 834 350
L 835 351
L 836 350
L 838 350
L 839 351
L 840 350
L 841 351
L 842 350
L 843 351
L 844 351
L 845 351
L 846 351
L 848 351
L 849 351
L 850 350
L 851 350
L 852 351
L 853 350
L 854 351
L 855 351
L 856 350
L 857 351
L 859 351
L 860 350
L 861 351
L 862 350
L 863 351
L 864 351
L 865 351
L 866 350
L 867 350
L 869 351
L 870 350
L 871 350
L 872 350
L 873 350
L 874 350
L 875 350
L 876 350
L 877 350
L 878 350
L 880 351
L 881 351
L 882 350
L 883 351
L 884 350
L 885 350
L 886 350
L 887 350
L 888 351
L 890 350
L 891 351
L 892 350
L 893 350
L 894 350
L 895 351
L 896 350
L 897 350
L 898 351
L 900 350
L 901 350
L 902 351
L 903 351
L 904 351
L 905 351
L 906 351
L 907 351
L 908 350
L 909 351
L 911 351
L 912 351
L 913 351
L 914 351
L 915 351
L 916 351
L 917 351
L 918 351
L 919 351
L 921 351
L 922 351
L 923 351
L 924 351
L 925 351
L 926 351
L 927 351
L 928 351
L 929 350
L 931 350
L 932 351
L 933 351
L 934 351
L 935 351
L 936 351
L 937 351
L 938 351
L 939 351
L 940 351
L 942 351
L 943 351
L 944 351
L 945 351
L 946 351
L 947 351
L 948 351
L 949 351
L 950 351
L 952 351
L 953 351
L 954 351
L 955 351
L 956 351
L 957 351
L 958 351
L 959 351
L 960 351
L 961 351" style="stroke-width:1;stroke:rgba(217,0,116,1.0);fill:none"/><text x="394" y="33" style="stroke-width:0;stroke:none;fill:rgba(51,51,51,1.0);font-size:23.0px;font-family:'Roboto Medium',sans-serif">Linz(Stadt) 09.06.2022</text><path  d="M 38 11
L 251 11
L 251 91
L 38 91
L 38 11" style="stroke-width:1;stroke:rgba(51,51,51,1.0);fill:rgba(255,255,255,1.0)"/><text x="43" y="26" style="stroke-width:0;stroke:none;fill:rgba(51,51,51,1.0);font-size:10.2px;font-family:'Roboto Medium',sans-serif">Sieben Tage Durschnitt Inzidenz Fälle</text><path  d="M 221 21
L 241 21" style="stroke-width:1;stroke:rgba(0,116,217,1.0);fill:none"/><text x="43" y="56" style="stroke-width:0;stroke:none;fill:rgba(51,51,51,1.0);font-size:10.2px;font-family:'Roboto Medium',sans-serif">Anzahl Faelle</text><path  d="M 110 51
L 241 51" style="stroke-width:1;stroke:rgba(0,217,101,1.0);fill:none"/><text x="43" y="86" style="stroke-width:0;stroke:none;fill:rgba(51,51,51,1.0);font-size:10.2px;font-family:'Roboto Medium',sans-serif">Anzahl Tot</text><path  d="M 98 81
L 241 81" style="stroke-width:1;stroke:rgba(217,0,116,1.0);fill:none"/></svg>