<svg xmlns="http://www.w3.org/2000/svg" xmlns:xlink="http://www.w3.org/1999/xlink" width="1024" height="400">\n<path  d="M 0 0
L 1024 0
L 1024 400
L 0 400
L 0 0" style="stroke-width:0;stroke:rgba(255,255,255,1.0);fill:rgba(255,255,255,1.0)"/><path  d="M 38 11
L 961 11
L 961 351
L 38 351
L 38 11" style="stroke-width:0;stroke:rgba(255,255,255,1.0);fill:rgba(255,255,255,1.0)"/><path  d="M 38 351
L 961 351" style="stroke-width:1;stroke:rgba(51,51,51,1.0);fill:none"/><path  d="M 38 351
L 38 356" style="stroke-width:1;stroke:rgba(51,51,51,1.0);fill:none"/><text x="5" y="373" style="stroke-width:0;stroke:none;fill:rgba(51,51,51,1.0);font-size:12.8px;font-family:'Roboto Medium',sans-serif">2020-02-26</text><path  d="M 154 351
L 154 356" style="stroke-width:1;stroke:rgba(51,51,51,1.0);fill:none"/><text x="121" y="373" style="stroke-width:0;stroke:none;fill:rgba(51,51,51,1.0);font-size:12.8px;font-family:'Roboto Medium',sans-serif">2020-05-24</text><path  d="M 269 351
L 269 356" style="stroke-width:1;stroke:rgba(51,51,51,1.0);fill:none"/><text x="236" y="373" style="stroke-width:0;stroke:none;fill:rgba(51,51,51,1.0);font-size:12.8px;font-family:'Roboto Medium',sans-serif">2020-08-20</text><path  d="M 385 351
L 385 356" style="stroke-width:1;stroke:rgba(51,51,51,1.0);fill:none"/><text x="352" y="373" style="stroke-width:0;stroke:none;fill:rgba(51,51,51,1.0);font-size:12.8px;font-family:'Roboto Medium',sans-serif">2020-11-16</text><path  d="M 500 351
L 500 356" style="stroke-width:1;stroke:rgba(51,51,51,1.0);fill:none"/><text x="467" y="373" style="stroke-width:0;stroke:none;fill:rgba(51,51,51,1.0);font-size:12.8px;font-family:'Roboto Medium',sans-serif">2021-02-13</text><path  d="M 615 351
L 615 356" style="stroke-width:1;stroke:rgba(51,51,51,1.0);fill:none"/><text x="582" y="373" style="stroke-width:0;stroke:none;fill:rgba(51,51,51,1.0);font-size:12.8px;font-family:'Roboto Medium',sans-serif">2021-05-12</text><path  d="M 731 351
L 731 356" style="stroke-width:1;stroke:rgba(51,51,51,1.0);fill:none"/><text x="698" y="373" style="stroke-width:0;stroke:none;fill:rgba(51,51,51,1.0);font-size:12.8px;font-family:'Roboto Medium',sans-serif">2021-08-08</text><path  d="M 846 351
L 846 356" style="stroke-width:1;stroke:rgba(51,51,51,1.0);fill:none"/><text x="813" y="373" style="stroke-width:0;stroke:none;fill:rgba(51,51,51,1.0);font-size:12.8px;font-family:'Roboto Medium',sans-serif">2021-11-04</text><path  d="M 961 351
L 961 356" style="stroke-width:1;stroke:rgba(51,51,51,1.0);fill:none"/><text x="928" y="373" style="stroke-width:0;stroke:none;fill:rgba(51,51,51,1.0);font-size:12.8px;font-family:'Roboto Medium',sans-serif">2022-02-01</text><text x="481" y="395" style="stroke-width:0;stroke:none;fill:rgba(51,51,51,1.0);font-size:12.8px;font-family:'Roboto Medium',sans-serif">Datum</text><path  d="M 962 351
L 962 11" style="stroke-width:1;stroke:rgba(51,51,51,1.0);fill:none"/><path  d="M 962 351
L 967 351" style="stroke-width:1;stroke:rgba(51,51,51,1.0);fill:none"/><text x="972" y="357" style="stroke-width:0;stroke:none;fill:rgba(51,51,51,1.0);font-size:12.8px;font-family:'Roboto Medium',sans-serif">0.00</text><path  d="M 962 307
L 967 307" style="stroke-width:1;stroke:rgba(51,51,51,1.0);fill:none"/><text x="972" y="313" style="stroke-width:0;stroke:none;fill:rgba(51,51,51,1.0);font-size:12.8px;font-family:'Roboto Medium',sans-serif">370.00</text><path  d="M 962 265
L 967 265" style="stroke-width:1;stroke:rgba(51,51,51,1.0);fill:none"/><text x="972" y="271" style="stroke-width:0;stroke:none;fill:rgba(51,51,51,1.0);font-size:12.8px;font-family:'Roboto Medium',sans-serif">730.00</text><path  d="M 962 223
L 967 223" style="stroke-width:1;stroke:rgba(51,51,51,1.0);fill:none"/><text x="972" y="229" style="stroke-width:0;stroke:none;fill:rgba(51,51,51,1.0);font-size:12.8px;font-family:'Roboto Medium',sans-serif">1090.00</text><path  d="M 962 181
L 967 181" style="stroke-width:1;stroke:rgba(51,51,51,1.0);fill:none"/><text x="972" y="187" style="stroke-width:0;stroke:none;fill:rgba(51,51,51,1.0);font-size:12.8px;font-family:'Roboto Medium',sans-serif">1450.00</text><path  d="M 962 137
L 967 137" style="stroke-width:1;stroke:rgba(51,51,51,1.0);fill:none"/><text x="972" y="143" style="stroke-width:0;stroke:none;fill:rgba(51,51,51,1.0);font-size:12.8px;font-family:'Roboto Medium',sans-serif">1820.00</text><path  d="M 962 95
L 967 95" style="stroke-width:1;stroke:rgba(51,51,51,1.0);fill:none"/><text x="972" y="101" style="stroke-width:0;stroke:none;fill:rgba(51,51,51,1.0);font-size:12.8px;font-family:'Roboto Medium',sans-serif">2180.00</text><path  d="M 962 53
L 967 53" style="stroke-width:1;stroke:rgba(51,51,51,1.0);fill:none"/><text x="972" y="59" style="stroke-width:0;stroke:none;fill:rgba(51,51,51,1.0);font-size:12.8px;font-family:'Roboto Medium',sans-serif">2540.00</text><path  d="M 962 11
L 967 11" style="stroke-width:1;stroke:rgba(51,51,51,1.0);fill:none"/><text x="972" y="17" style="stroke-width:0;stroke:none;fill:rgba(51,51,51,1.0);font-size:12.8px;font-family:'Roboto Medium',sans-serif">2900.00</text><path  d="M 38 351
L 40 351
L 41 351
L 42 351
L 44 351
L 45 351
L 46 351
L 48 351
L 49 351
L 50 351
L 52 350
L 53 350
L 54 350
L 55 350
L 57 350
L 58 350
L 59 350
L 61 350
L 62 349
L 63 348
L 65 348
L 66 348
L 67 348
L 69 347
L 70 347
L 71 347
L 72 347
L 74 346
L 75 346
L 76 345
L 78 345
L 79 346
L 80 345
L 82 345
L 83 345
L 84 345
L 86 345
L 87 345
L 88 345
L 89 347
L 91 347
L 92 348
L 93 349
L 95 349
L 96 349
L 97 350
L 99 350
L 100 350
L 101 350
L 103 350
L 104 350
L 105 350
L 106 350
L 108 350
L 109 350
L 110 350
L 112 350
L 113 350
L 114 350
L 116 350
L 117 350
L 118 350
L 120 350
L 121 350
L 122 350
L 123 350
L 125 350
L 126 350
L 127 350
L 129 351
L 130 351
L 131 351
L 133 351
L 134 351
L 135 351
L 137 351
L 138 351
L 139 351
L 140 351
L 142 350
L 143 350
L 144 350
L 146 350
L 147 350
L 148 350
L 150 350
L 151 350
L 152 350
L 154 350
L 155 350
L 156 351
L 157 351
L 159 351
L 160 351
L 161 351
L 163 351
L 164 351
L 165 351
L 167 350
L 168 350
L 169 350
L 171 350
L 172 350
L 173 350
L 174 350
L 176 350
L 177 350
L 178 350
L 180 350
L 181 350
L 182 350
L 184 350
L 185 350
L 186 350
L 188 351
L 189 351
L 190 350
L 191 350
L 193 350
L 194 350
L 195 350
L 197 349
L 198 349
L 199 348
L 201 348
L 202 347
L 203 346
L 205 345
L 206 345
L 207 344
L 208 343
L 210 343
L 211 343
L 212 344
L 214 344
L 215 344
L 216 344
L 218 346
L 219 345
L 220 346
L 222 345
L 223 345
L 224 345
L 225 346
L 227 346
L 228 347
L 229 347
L 231 347
L 232 348
L 233 348
L 235 348
L 236 348
L 237 348
L 239 348
L 240 349
L 241 348
L 242 348
L 244 348
L 245 348
L 246 348
L 248 348
L 249 348
L 250 349
L 252 348
L 253 348
L 254 348
L 256 348
L 257 348
L 258 349
L 259 349
L 261 348
L 262 348
L 263 348
L 265 348
L 266 347
L 267 347
L 269 347
L 270 347
L 271 347
L 273 347
L 274 347
L 275 347
L 276 347
L 278 347
L 279 347
L 280 346
L 282 346
L 283 347
L 284 347
L 286 347
L 287 347
L 288 348
L 290 349
L 291 349
L 292 348
L 293 348
L 295 348
L 296 348
L 297 347
L 299 346
L 300 345
L 301 345
L 303 344
L 304 344
L 305 342
L 307 342
L 308 342
L 309 343
L 310 344
L 312 344
L 313 345
L 314 347
L 316 347
L 317 348
L 318 348
L 320 348
L 321 347
L 322 347
L 324 346
L 325 346
L 326 343
L 327 342
L 329 342
L 330 342
L 331 342
L 333 342
L 334 342
L 335 344
L 337 344
L 338 345
L 339 345
L 341 345
L 342 345
L 343 344
L 344 344
L 346 343
L 347 343
L 348 341
L 350 338
L 351 335
L 352 333
L 354 331
L 355 327
L 356 327
L 357 322
L 359 322
L 360 316
L 361 316
L 363 313
L 364 312
L 365 303
L 367 303
L 368 298
L 369 295
L 371 285
L 372 284
L 373 281
L 374 282
L 376 277
L 377 276
L 378 278
L 380 277
L 381 276
L 382 279
L 384 276
L 385 279
L 386 278
L 388 280
L 389 279
L 390 285
L 391 288
L 393 289
L 394 294
L 395 300
L 397 301
L 398 310
L 399 309
L 401 306
L 402 310
L 403 312
L 405 311
L 406 312
L 407 316
L 408 315
L 410 319
L 411 324
L 412 324
L 414 328
L 415 330
L 416 327
L 418 329
L 419 327
L 420 324
L 422 325
L 423 323
L 424 325
L 425 328
L 427 330
L 428 332
L 429 336
L 431 338
L 432 338
L 433 338
L 435 338
L 436 339
L 437 338
L 439 339
L 440 337
L 441 338
L 442 339
L 444 340
L 445 339
L 446 338
L 448 338
L 449 336
L 450 335
L 452 337
L 453 335
L 454 334
L 456 336
L 457 336
L 458 339
L 459 339
L 461 338
L 462 340
L 463 341
L 465 342
L 466 342
L 467 343
L 469 343
L 470 343
L 471 342
L 473 342
L 474 343
L 475 343
L 476 343
L 478 343
L 479 343
L 480 343
L 482 343
L 483 342
L 484 343
L 486 343
L 487 344
L 488 343
L 490 343
L 491 344
L 492 344
L 493 343
L 495 343
L 496 343
L 497 343
L 499 343
L 500 342
L 501 343
L 503 344
L 504 343
L 505 341
L 507 340
L 508 340
L 509 339
L 510 339
L 512 339
L 513 339
L 514 340
L 516 337
L 517 336
L 518 335
L 520 336
L 521 336
L 522 337
L 524 335
L 525 338
L 526 339
L 527 339
L 529 339
L 530 338
L 531 338
L 533 339
L 534 338
L 535 339
L 537 337
L 538 337
L 539 337
L 541 335
L 542 333
L 543 332
L 544 331
L 546 331
L 547 330
L 548 330
L 550 329
L 551 331
L 552 330
L 554 330
L 555 328
L 556 327
L 558 326
L 559 327
L 560 326
L 561 326
L 563 328
L 564 329
L 565 328
L 567 328
L 568 329
L 569 330
L 571 330
L 572 326
L 573 327
L 575 330
L 576 328
L 577 327
L 578 327
L 580 330
L 581 330
L 582 329
L 584 329
L 585 330
L 586 330
L 588 329
L 589 328
L 590 329
L 592 329
L 593 330
L 594 329
L 595 331
L 597 332
L 598 332
L 599 334
L 601 334
L 602 334
L 603 335
L 605 333
L 606 333
L 607 334
L 609 334
L 610 333
L 611 334
L 612 335
L 614 337
L 615 339
L 616 340
L 618 342
L 619 345
L 620 344
L 622 345
L 623 345
L 624 345
L 626 346
L 627 345
L 628 344
L 629 345
L 631 345
L 632 346
L 633 346
L 635 346
L 636 347
L 637 348
L 639 348
L 640 348
L 641 348
L 643 349
L 644 349
L 645 349
L 646 349
L 648 349
L 649 349
L 650 349
L 652 349
L 653 349
L 654 349
L 656 348
L 657 349
L 658 349
L 659 348
L 661 349
L 662 349
L 663 349
L 665 349
L 666 349
L 667 349
L 669 350
L 670 350
L 671 350
L 673 350
L 674 350
L 675 350
L 676 350
L 678 350
L 679 350
L 680 350
L 682 350
L 683 350
L 684 349
L 686 349
L 687 349
L 688 349
L 690 349
L 691 349
L 692 349
L 693 348
L 695 348
L 696 348
L 697 348
L 699 348
L 700 347
L 701 347
L 703 347
L 704 347
L 705 347
L 707 347
L 708 347
L 709 347
L 710 347
L 712 347
L 713 347
L 714 347
L 716 346
L 717 346
L 718 346
L 720 346
L 721 346
L 722 346
L 724 346
L 725 347
L 726 345
L 727 346
L 729 345
L 730 344
L 731 344
L 733 343
L 734 343
L 735 343
L 737 342
L 738 342
L 739 342
L 741 342
L 742 342
L 743 340
L 744 339
L 746 338
L 747 338
L 748 338
L 750 338
L 751 336
L 752 335
L 754 335
L 755 334
L 756 332
L 758 331
L 759 329
L 760 331
L 761 332
L 763 333
L 764 330
L 765 330
L 767 328
L 768 327
L 769 323
L 771 321
L 772 319
L 773 321
L 775 322
L 776 323
L 777 322
L 778 326
L 780 324
L 781 323
L 782 319
L 784 322
L 785 323
L 786 325
L 788 323
L 789 324
L 790 325
L 792 330
L 793 328
L 794 325
L 795 327
L 797 326
L 798 324
L 799 322
L 801 322
L 802 321
L 803 319
L 805 317
L 806 319
L 807 321
L 809 322
L 810 321
L 811 321
L 812 324
L 814 322
L 815 320
L 816 320
L 818 318
L 819 318
L 820 319
L 822 317
L 823 317
L 824 315
L 826 311
L 827 311
L 828 311
L 829 310
L 831 308
L 832 308
L 833 311
L 835 312
L 836 307
L 837 304
L 839 299
L 840 297
L 841 294
L 843 293
L 844 287
L 845 279
L 846 276
L 848 271
L 849 267
L 850 260
L 852 247
L 853 242
L 854 252
L 856 243
L 857 243
L 858 236
L 860 232
L 861 218
L 862 212
L 863 189
L 865 185
L 866 174
L 867 167
L 869 164
L 870 171
L 871 172
L 873 183
L 874 191
L 875 196
L 877 216
L 878 221
L 879 234
L 880 246
L 882 255
L 883 262
L 884 274
L 886 273
L 887 284
L 888 290
L 890 296
L 891 303
L 892 305
L 894 310
L 895 310
L 896 311
L 897 311
L 899 311
L 900 310
L 901 315
L 903 317
L 904 321
L 905 325
L 907 328
L 908 332
L 909 333
L 911 334
L 912 335
L 913 336
L 914 335
L 916 335
L 917 332
L 918 331
L 920 330
L 921 328
L 922 327
L 924 321
L 925 318
L 926 312
L 928 304
L 929 298
L 930 289
L 931 275
L 933 264
L 934 252
L 935 242
L 937 237
L 938 214
L 939 211
L 941 201
L 942 193
L 943 176
L 945 161
L 946 135
L 947 131
L 948 112
L 950 105
L 951 96
L 952 87
L 954 70
L 955 66
L 956 51
L 958 46
L 959 37
L 960 38
L 961 22" style="stroke-width:1;stroke:rgba(0,116,217,1.0);fill:none"/><path  d="M 38 351
L 40 351
L 41 351
L 42 351
L 44 351
L 45 351
L 46 351
L 48 351
L 49 351
L 50 351
L 52 350
L 53 351
L 54 351
L 55 351
L 57 350
L 58 350
L 59 350
L 61 350
L 62 349
L 63 350
L 65 350
L 66 350
L 67 350
L 69 349
L 70 349
L 71 350
L 72 350
L 74 349
L 75 350
L 76 349
L 78 350
L 79 350
L 80 348
L 82 350
L 83 349
L 84 349
L 86 350
L 87 350
L 88 350
L 89 351
L 91 351
L 92 350
L 93 350
L 95 350
L 96 350
L 97 351
L 99 351
L 100 351
L 101 351
L 103 350
L 104 351
L 105 350
L 106 351
L 108 351
L 109 350
L 110 350
L 112 351
L 113 351
L 114 350
L 116 351
L 117 351
L 118 351
L 120 350
L 121 351
L 122 351
L 123 351
L 125 351
L 126 351
L 127 351
L 129 351
L 130 351
L 131 351
L 133 351
L 134 351
L 135 351
L 137 351
L 138 351
L 139 351
L 140 351
L 142 350
L 143 351
L 144 351
L 146 351
L 147 350
L 148 351
L 150 351
L 151 351
L 152 351
L 154 351
L 155 351
L 156 351
L 157 351
L 159 351
L 160 351
L 161 351
L 163 351
L 164 351
L 165 351
L 167 350
L 168 351
L 169 350
L 171 350
L 172 351
L 173 351
L 174 350
L 176 350
L 177 351
L 178 350
L 180 351
L 181 351
L 182 351
L 184 351
L 185 351
L 186 351
L 188 351
L 189 351
L 190 350
L 191 351
L 193 350
L 194 350
L 195 350
L 197 350
L 198 350
L 199 349
L 201 350
L 202 350
L 203 348
L 205 349
L 206 350
L 207 348
L 208 347
L 210 350
L 211 350
L 212 350
L 214 350
L 215 349
L 216 349
L 218 349
L 219 349
L 220 350
L 222 349
L 223 349
L 224 350
L 225 350
L 227 350
L 228 350
L 229 350
L 231 349
L 232 350
L 233 350
L 235 350
L 236 350
L 237 350
L 239 350
L 240 350
L 241 349
L 242 350
L 244 350
L 245 351
L 246 350
L 248 350
L 249 349
L 250 350
L 252 350
L 253 350
L 254 350
L 256 350
L 257 350
L 258 350
L 259 350
L 261 350
L 262 350
L 263 350
L 265 350
L 266 349
L 267 349
L 269 350
L 270 349
L 271 350
L 273 351
L 274 350
L 275 349
L 276 350
L 278 349
L 279 349
L 280 349
L 282 350
L 283 351
L 284 350
L 286 350
L 287 350
L 288 350
L 290 350
L 291 350
L 292 350
L 293 350
L 295 349
L 296 350
L 297 348
L 299 349
L 300 349
L 301 349
L 303 348
L 304 349
L 305 348
L 307 349
L 308 349
L 309 350
L 310 350
L 312 349
L 313 350
L 314 350
L 316 350
L 317 350
L 318 350
L 320 350
L 321 349
L 322 350
L 324 349
L 325 349
L 326 346
L 327 349
L 329 350
L 330 349
L 331 349
L 333 349
L 334 349
L 335 348
L 337 349
L 338 351
L 339 349
L 341 350
L 342 349
L 343 348
L 344 348
L 346 349
L 347 350
L 348 346
L 350 345
L 351 344
L 352 345
L 354 345
L 355 344
L 356 349
L 357 338
L 359 345
L 360 335
L 361 344
L 363 341
L 364 342
L 365 334
L 367 339
L 368 336
L 369 332
L 371 329
L 372 339
L 373 339
L 374 335
L 376 332
L 377 335
L 378 334
L 380 329
L 381 337
L 382 343
L 384 330
L 385 335
L 386 334
L 388 337
L 389 328
L 390 346
L 391 348
L 393 332
L 394 342
L 395 343
L 397 340
L 398 341
L 399 345
L 401 343
L 402 339
L 403 345
L 405 342
L 406 341
L 407 347
L 408 343
L 410 348
L 411 348
L 412 344
L 414 348
L 415 344
L 416 342
L 418 347
L 419 345
L 420 344
L 422 346
L 423 345
L 424 347
L 425 347
L 427 349
L 428 349
L 429 350
L 431 348
L 432 346
L 433 346
L 435 348
L 436 350
L 437 347
L 439 350
L 440 346
L 441 348
L 442 348
L 444 348
L 445 349
L 446 346
L 448 349
L 449 343
L 450 347
L 452 350
L 453 346
L 454 348
L 456 348
L 457 349
L 458 347
L 459 348
L 461 348
L 462 350
L 463 349
L 465 349
L 466 350
L 467 348
L 469 348
L 470 349
L 471 348
L 473 349
L 474 350
L 475 350
L 476 348
L 478 348
L 479 349
L 480 349
L 482 350
L 483 349
L 484 350
L 486 348
L 487 349
L 488 348
L 490 349
L 491 350
L 492 349
L 493 348
L 495 348
L 496 349
L 497 348
L 499 349
L 500 349
L 501 350
L 503 350
L 504 347
L 505 346
L 507 347
L 508 348
L 509 349
L 510 349
L 512 350
L 513 347
L 514 348
L 516 343
L 517 347
L 518 347
L 520 350
L 521 350
L 522 348
L 524 345
L 525 348
L 526 347
L 527 348
L 529 349
L 530 350
L 531 347
L 533 347
L 534 347
L 535 348
L 537 346
L 538 348
L 539 350
L 541 345
L 542 344
L 543 345
L 544 347
L 546 347
L 547 346
L 548 350
L 550 343
L 551 346
L 552 344
L 554 347
L 555 344
L 556 344
L 558 349
L 559 345
L 560 343
L 561 345
L 563 349
L 564 346
L 565 342
L 567 349
L 568 346
L 569 346
L 571 344
L 572 344
L 573 347
L 575 347
L 576 347
L 577 344
L 578 346
L 580 348
L 581 344
L 582 346
L 584 347
L 585 349
L 586 344
L 588 344
L 589 346
L 590 345
L 592 347
L 593 347
L 594 347
L 595 347
L 597 346
L 598 346
L 599 347
L 601 348
L 602 347
L 603 348
L 605 344
L 606 346
L 607 347
L 609 347
L 610 346
L 611 349
L 612 350
L 614 348
L 615 349
L 616 349
L 618 350
L 619 351
L 620 349
L 622 350
L 623 349
L 624 349
L 626 349
L 627 349
L 628 349
L 629 350
L 631 350
L 632 350
L 633 349
L 635 350
L 636 350
L 637 350
L 639 350
L 640 350
L 641 350
L 643 351
L 644 350
L 645 350
L 646 350
L 648 350
L 649 351
L 650 350
L 652 350
L 653 350
L 654 350
L 656 350
L 657 350
L 658 351
L 659 350
L 661 350
L 662 350
L 663 351
L 665 350
L 666 351
L 667 350
L 669 350
L 670 350
L 671 350
L 673 351
L 674 351
L 675 351
L 676 350
L 678 351
L 679 350
L 680 350
L 682 350
L 683 351
L 684 350
L 686 350
L 687 350
L 688 350
L 690 350
L 691 350
L 692 351
L 693 349
L 695 350
L 696 350
L 697 349
L 699 350
L 700 349
L 701 350
L 703 350
L 704 350
L 705 349
L 707 350
L 708 350
L 709 350
L 710 350
L 712 350
L 713 350
L 714 348
L 716 349
L 717 350
L 718 350
L 720 350
L 721 350
L 722 350
L 724 349
L 725 349
L 726 348
L 727 350
L 729 349
L 730 349
L 731 350
L 733 348
L 734 349
L 735 348
L 737 349
L 738 349
L 739 348
L 741 350
L 742 347
L 743 347
L 744 347
L 746 347
L 747 348
L 748 349
L 750 350
L 751 344
L 752 346
L 754 347
L 755 345
L 756 345
L 758 347
L 759 347
L 760 346
L 761 348
L 763 347
L 764 341
L 765 345
L 767 344
L 768 345
L 769 340
L 771 346
L 772 344
L 773 344
L 775 345
L 776 347
L 777 344
L 778 345
L 780 344
L 781 343
L 782 338
L 784 349
L 785 350
L 786 347
L 788 342
L 789 345
L 790 345
L 792 345
L 793 345
L 794 346
L 795 349
L 797 341
L 798 342
L 799 343
L 801 344
L 802 344
L 803 344
L 805 345
L 806 344
L 807 345
L 809 345
L 810 342
L 811 344
L 812 348
L 814 342
L 815 341
L 816 345
L 818 342
L 819 343
L 820 345
L 822 345
L 823 342
L 824 337
L 826 339
L 827 342
L 828 343
L 829 344
L 831 341
L 832 343
L 833 342
L 835 341
L 836 335
L 837 338
L 839 335
L 840 338
L 841 339
L 843 339
L 844 333
L 845 322
L 846 334
L 848 327
L 849 332
L 850 328
L 852 320
L 853 326
L 854 336
L 856 320
L 857 328
L 858 321
L 860 322
L 861 298
L 862 316
L 863 302
L 865 314
L 866 312
L 867 309
L 869 317
L 870 310
L 871 317
L 873 320
L 874 325
L 875 319
L 877 340
L 878 325
L 879 330
L 880 335
L 882 334
L 883 336
L 884 337
L 886 340
L 887 341
L 888 340
L 890 342
L 891 346
L 892 339
L 894 344
L 895 340
L 896 342
L 897 341
L 899 342
L 900 345
L 901 346
L 903 347
L 904 347
L 905 347
L 907 346
L 908 347
L 909 347
L 911 347
L 912 348
L 913 348
L 914 347
L 916 345
L 917 343
L 918 345
L 920 345
L 921 346
L 922 346
L 924 338
L 925 341
L 926 333
L 928 333
L 929 336
L 930 332
L 931 324
L 933 322
L 934 323
L 935 318
L 937 326
L 938 301
L 939 327
L 941 309
L 942 311
L 943 297
L 945 296
L 946 285
L 947 295
L 948 298
L 950 298
L 951 298
L 952 283
L 954 270
L 955 278
L 956 272
L 958 291
L 959 284
L 960 298
L 961 259" style="stroke-width:1;stroke:rgba(0,217,101,1.0);fill:none"/><path  d="M 38 351
L 40 351
L 41 351
L 42 351
L 44 351
L 45 351
L 46 351
L 48 351
L 49 351
L 50 351
L 52 351
L 53 351
L 54 351
L 55 351
L 57 351
L 58 351
L 59 351
L 61 351
L 62 351
L 63 351
L 65 351
L 66 350
L 67 351
L 69 350
L 70 351
L 71 351
L 72 351
L 74 351
L 75 351
L 76 351
L 78 351
L 79 351
L 80 351
L 82 350
L 83 351
L 84 351
L 86 351
L 87 351
L 88 351
L 89 351
L 91 350
L 92 350
L 93 351
L 95 351
L 96 351
L 97 351
L 99 351
L 100 351
L 101 350
L 103 351
L 104 351
L 105 351
L 106 351
L 108 351
L 109 351
L 110 350
L 112 351
L 113 351
L 114 351
L 116 351
L 117 351
L 118 351
L 120 351
L 121 351
L 122 351
L 123 351
L 125 351
L 126 351
L 127 351
L 129 351
L 130 351
L 131 351
L 133 351
L 134 351
L 135 351
L 137 351
L 138 351
L 139 351
L 140 351
L 142 351
L 143 351
L 144 351
L 146 351
L 147 351
L 148 351
L 150 351
L 151 351
L 152 351
L 154 351
L 155 351
L 156 351
L 157 351
L 159 351
L 160 351
L 161 351
L 163 351
L 164 351
L 165 351
L 167 351
L 168 351
L 169 351
L 171 351
L 172 351
L 173 351
L 174 351
L 176 351
L 177 351
L 178 351
L 180 351
L 181 351
L 182 351
L 184 351
L 185 351
L 186 351
L 188 351
L 189 351
L 190 351
L 191 351
L 193 351
L 194 351
L 195 351
L 197 351
L 198 351
L 199 351
L 201 351
L 202 351
L 203 351
L 205 351
L 206 351
L 207 351
L 208 351
L 210 351
L 211 351
L 212 351
L 214 351
L 215 351
L 216 351
L 218 351
L 219 351
L 220 351
L 222 351
L 223 351
L 224 351
L 225 351
L 227 351
L 228 351
L 229 351
L 231 351
L 232 351
L 233 351
L 235 351
L 236 351
L 237 351
L 239 351
L 240 351
L 241 351
L 242 351
L 244 351
L 245 351
L 246 351
L 248 351
L 249 351
L 250 351
L 252 351
L 253 351
L 254 351
L 256 351
L 257 351
L 258 351
L 259 351
L 261 351
L 262 351
L 263 351
L 265 351
L 266 351
L 267 351
L 269 351
L 270 351
L 271 351
L 273 351
L 274 351
L 275 351
L 276 351
L 278 351
L 279 351
L 280 351
L 282 351
L 283 351
L 284 351
L 286 351
L 287 351
L 288 351
L 290 351
L 291 351
L 292 351
L 293 351
L 295 351
L 296 351
L 297 351
L 299 351
L 300 351
L 301 351
L 303 351
L 304 351
L 305 351
L 307 351
L 308 351
L 309 351
L 310 351
L 312 351
L 313 351
L 314 351
L 316 351
L 317 351
L 318 351
L 320 351
L 321 351
L 322 351
L 324 351
L 325 351
L 326 351
L 327 351
L 329 351
L 330 351
L 331 351
L 333 351
L 334 351
L 335 351
L 337 350
L 338 351
L 339 351
L 341 351
L 342 351
L 343 351
L 344 351
L 346 351
L 347 350
L 348 351
L 350 351
L 351 351
L 352 351
L 354 351
L 355 351
L 356 351
L 357 351
L 359 351
L 360 351
L 361 351
L 363 350
L 364 350
L 365 351
L 367 350
L 368 351
L 369 350
L 371 351
L 372 350
L 373 351
L 374 350
L 376 350
L 377 351
L 378 350
L 380 351
L 381 350
L 382 350
L 384 350
L 385 350
L 386 351
L 388 350
L 389 350
L 390 350
L 391 350
L 393 350
L 394 350
L 395 350
L 397 350
L 398 350
L 399 350
L 401 351
L 402 350
L 403 351
L 405 351
L 406 351
L 407 350
L 408 350
L 410 351
L 411 350
L 412 350
L 414 350
L 415 350
L 416 350
L 418 350
L 419 350
L 420 350
L 422 350
L 423 350
L 424 350
L 425 351
L 427 351
L 428 351
L 429 351
L 431 350
L 432 350
L 433 351
L 435 351
L 436 350
L 437 351
L 439 350
L 440 350
L 441 351
L 442 351
L 444 351
L 445 350
L 446 350
L 448 351
L 449 351
L 450 350
L 452 351
L 453 351
L 454 351
L 456 350
L 457 350
L 458 351
L 459 350
L 461 351
L 462 351
L 463 351
L 465 351
L 466 351
L 467 351
L 469 351
L 470 350
L 471 351
L 473 350
L 474 351
L 475 351
L 476 350
L 478 350
L 479 350
L 480 351
L 482 351
L 483 351
L 484 351
L 486 351
L 487 351
L 488 351
L 490 351
L 491 351
L 492 351
L 493 351
L 495 351
L 496 351
L 497 351
L 499 350
L 500 351
L 501 351
L 503 351
L 504 351
L 505 351
L 507 351
L 508 351
L 509 351
L 510 351
L 512 351
L 513 351
L 514 351
L 516 351
L 517 351
L 518 351
L 520 351
L 521 350
L 522 351
L 524 351
L 525 351
L 526 351
L 527 351
L 529 351
L 530 351
L 531 351
L 533 351
L 534 351
L 535 351
L 537 351
L 538 351
L 539 351
L 541 351
L 542 351
L 543 351
L 544 351
L 546 351
L 547 351
L 548 351
L 550 351
L 551 350
L 552 351
L 554 351
L 555 351
L 556 351
L 558 350
L 559 350
L 560 351
L 561 351
L 563 350
L 564 351
L 565 351
L 567 351
L 568 351
L 569 351
L 571 351
L 572 351
L 573 351
L 575 351
L 576 350
L 577 350
L 578 351
L 580 351
L 581 351
L 582 351
L 584 351
L 585 351
L 586 350
L 588 351
L 589 351
L 590 351
L 592 351
L 593 351
L 594 351
L 595 351
L 597 351
L 598 351
L 599 351
L 601 351
L 602 351
L 603 351
L 605 351
L 606 351
L 607 351
L 609 350
L 610 351
L 611 351
L 612 351
L 614 351
L 615 350
L 616 351
L 618 351
L 619 351
L 620 351
L 622 351
L 623 351
L 624 351
L 626 351
L 627 351
L 628 351
L 629 351
L 631 351
L 632 351
L 633 351
L 635 351
L 636 351
L 637 351
L 639 351
L 640 350
L 641 351
L 643 351
L 644 351
L 645 351
L 646 351
L 648 351
L 649 351
L 650 351
L 652 351
L 653 351
L 654 351
L 656 351
L 657 351
L 658 350
L 659 351
L 661 351
L 662 351
L 663 351
L 665 351
L 666 351
L 667 351
L 669 351
L 670 351
L 671 351
L 673 351
L 674 351
L 675 351
L 676 351
L 678 351
L 679 351
L 680 351
L 682 351
L 683 351
L 684 351
L 686 351
L 687 351
L 688 351
L 690 351
L 691 351
L 692 351
L 693 351
L 695 351
L 696 351
L 697 351
L 699 351
L 700 351
L 701 351
L 703 351
L 704 351
L 705 351
L 707 351
L 708 351
L 709 351
L 710 351
L 712 351
L 713 351
L 714 351
L 716 351
L 717 351
L 718 351
L 720 351
L 721 351
L 722 351
L 724 351
L 725 351
L 726 351
L 727 351
L 729 351
L 730 351
L 731 351
L 733 351
L 734 351
L 735 351
L 737 351
L 738 351
L 739 351
L 741 351
L 742 351
L 743 351
L 744 351
L 746 351
L 747 351
L 748 351
L 750 351
L 751 351
L 752 351
L 754 351
L 755 351
L 756 351
L 758 351
L 759 351
L 760 351
L 761 351
L 763 351
L 764 350
L 765 351
L 767 351
L 768 351
L 769 350
L 771 351
L 772 351
L 773 351
L 775 350
L 776 351
L 777 351
L 778 351
L 780 351
L 781 351
L 782 350
L 784 351
L 785 350
L 786 350
L 788 351
L 789 351
L 790 351
L 792 351
L 793 351
L 794 351
L 795 351
L 797 350
L 798 351
L 799 350
L 801 351
L 802 351
L 803 351
L 805 351
L 806 351
L 807 351
L 809 351
L 810 351
L 811 350
L 812 351
L 814 350
L 815 351
L 816 351
L 818 351
L 819 351
L 820 350
L 822 351
L 823 351
L 824 351
L 826 351
L 827 351
L 828 350
L 829 351
L 831 351
L 832 350
L 833 350
L 835 350
L 836 351
L 837 351
L 839 350
L 840 351
L 841 351
L 843 351
L 844 351
L 845 350
L 846 350
L 848 350
L 849 350
L 850 351
L 852 350
L 853 350
L 854 350
L 856 351
L 857 350
L 858 350
L 860 350
L 861 351
L 862 351
L 863 351
L 865 350
L 866 350
L 867 351
L 869 351
L 870 350
L 871 351
L 873 350
L 874 351
L 875 351
L 877 350
L 878 350
L 879 351
L 880 350
L 882 350
L 883 351
L 884 351
L 886 350
L 887 351
L 888 351
L 890 350
L 891 350
L 892 350
L 894 350
L 895 351
L 896 350
L 897 351
L 899 350
L 900 350
L 901 351
L 903 350
L 904 350
L 905 351
L 907 351
L 908 351
L 909 351
L 911 351
L 912 351
L 913 351
L 914 351
L 916 351
L 917 351
L 918 351
L 920 351
L 921 350
L 922 351
L 924 350
L 925 351
L 926 351
L 928 351
L 929 351
L 930 351
L 931 351
L 933 351
L 934 351
L 935 351
L 937 351
L 938 351
L 939 351
L 941 351
L 942 351
L 943 351
L 945 351
L 946 351
L 947 351
L 948 351
L 950 351
L 951 350
L 952 350
L 954 351
L 955 351
L 956 351
L 958 351
L 959 350
L 960 351
L 961 351" style="stroke-width:1;stroke:rgba(217,0,116,1.0);fill:none"/><text x="400" y="33" style="stroke-width:0;stroke:none;fill:rgba(51,51,51,1.0);font-size:23.0px;font-family:'Roboto Medium',sans-serif">Linz-Land 01.02.2022</text><path  d="M 38 11
L 251 11
L 251 91
L 38 91
L 38 11" style="stroke-width:1;stroke:rgba(51,51,51,1.0);fill:rgba(255,255,255,1.0)"/><text x="43" y="26" style="stroke-width:0;stroke:none;fill:rgba(51,51,51,1.0);font-size:10.2px;font-family:'Roboto Medium',sans-serif">Sieben Tage Durschnitt Inzidenz Fälle</text><path  d="M 221 21
L 241 21" style="stroke-width:1;stroke:rgba(0,116,217,1.0);fill:none"/><text x="43" y="56" style="stroke-width:0;stroke:none;fill:rgba(51,51,51,1.0);font-size:10.2px;font-family:'Roboto Medium',sans-serif">Anzahl Faelle</text><path  d="M 110 51
L 241 51" style="stroke-width:1;stroke:rgba(0,217,101,1.0);fill:none"/><text x="43" y="86" style="stroke-width:0;stroke:none;fill:rgba(51,51,51,1.0);font-size:10.2px;font-family:'Roboto Medium',sans-serif">Anzahl Tot</text><path  d="M 98 81
L 241 81" style="stroke-width:1;stroke:rgba(217,0,116,1.0);fill:none"/></svg>