<svg xmlns="http://www.w3.org/2000/svg" xmlns:xlink="http://www.w3.org/1999/xlink" width="1024" height="400">\n<path  d="M 0 0
L 1024 0
L 1024 400
L 0 400
L 0 0" style="stroke-width:0;stroke:rgba(255,255,255,1.0);fill:rgba(255,255,255,1.0)"/><path  d="M 38 11
L 969 11
L 969 351
L 38 351
L 38 11" style="stroke-width:0;stroke:rgba(255,255,255,1.0);fill:rgba(255,255,255,1.0)"/><path  d="M 38 351
L 969 351" style="stroke-width:1;stroke:rgba(51,51,51,1.0);fill:none"/><path  d="M 38 351
L 38 356" style="stroke-width:1;stroke:rgba(51,51,51,1.0);fill:none"/><text x="5" y="373" style="stroke-width:0;stroke:none;fill:rgba(51,51,51,1.0);font-size:12.8px;font-family:'Roboto Medium',sans-serif">2020-02-26</text><path  d="M 155 351
L 155 356" style="stroke-width:1;stroke:rgba(51,51,51,1.0);fill:none"/><text x="122" y="373" style="stroke-width:0;stroke:none;fill:rgba(51,51,51,1.0);font-size:12.8px;font-family:'Roboto Medium',sans-serif">2020-04-24</text><path  d="M 271 351
L 271 356" style="stroke-width:1;stroke:rgba(51,51,51,1.0);fill:none"/><text x="238" y="373" style="stroke-width:0;stroke:none;fill:rgba(51,51,51,1.0);font-size:12.8px;font-family:'Roboto Medium',sans-serif">2020-06-21</text><path  d="M 388 351
L 388 356" style="stroke-width:1;stroke:rgba(51,51,51,1.0);fill:none"/><text x="355" y="373" style="stroke-width:0;stroke:none;fill:rgba(51,51,51,1.0);font-size:12.8px;font-family:'Roboto Medium',sans-serif">2020-08-18</text><path  d="M 504 351
L 504 356" style="stroke-width:1;stroke:rgba(51,51,51,1.0);fill:none"/><text x="471" y="373" style="stroke-width:0;stroke:none;fill:rgba(51,51,51,1.0);font-size:12.8px;font-family:'Roboto Medium',sans-serif">2020-10-15</text><path  d="M 620 351
L 620 356" style="stroke-width:1;stroke:rgba(51,51,51,1.0);fill:none"/><text x="587" y="373" style="stroke-width:0;stroke:none;fill:rgba(51,51,51,1.0);font-size:12.8px;font-family:'Roboto Medium',sans-serif">2020-12-12</text><path  d="M 737 351
L 737 356" style="stroke-width:1;stroke:rgba(51,51,51,1.0);fill:none"/><text x="704" y="373" style="stroke-width:0;stroke:none;fill:rgba(51,51,51,1.0);font-size:12.8px;font-family:'Roboto Medium',sans-serif">2021-02-08</text><path  d="M 853 351
L 853 356" style="stroke-width:1;stroke:rgba(51,51,51,1.0);fill:none"/><text x="820" y="373" style="stroke-width:0;stroke:none;fill:rgba(51,51,51,1.0);font-size:12.8px;font-family:'Roboto Medium',sans-serif">2021-04-07</text><path  d="M 969 351
L 969 356" style="stroke-width:1;stroke:rgba(51,51,51,1.0);fill:none"/><text x="936" y="373" style="stroke-width:0;stroke:none;fill:rgba(51,51,51,1.0);font-size:12.8px;font-family:'Roboto Medium',sans-serif">2021-06-05</text><text x="485" y="395" style="stroke-width:0;stroke:none;fill:rgba(51,51,51,1.0);font-size:12.8px;font-family:'Roboto Medium',sans-serif">Datum</text><path  d="M 970 351
L 970 11" style="stroke-width:1;stroke:rgba(51,51,51,1.0);fill:none"/><path  d="M 970 351
L 975 351" style="stroke-width:1;stroke:rgba(51,51,51,1.0);fill:none"/><text x="980" y="357" style="stroke-width:0;stroke:none;fill:rgba(51,51,51,1.0);font-size:12.8px;font-family:'Roboto Medium',sans-serif">0.00</text><path  d="M 970 308
L 975 308" style="stroke-width:1;stroke:rgba(51,51,51,1.0);fill:none"/><text x="980" y="314" style="stroke-width:0;stroke:none;fill:rgba(51,51,51,1.0);font-size:12.8px;font-family:'Roboto Medium',sans-serif">54.00</text><path  d="M 970 265
L 975 265" style="stroke-width:1;stroke:rgba(51,51,51,1.0);fill:none"/><text x="980" y="271" style="stroke-width:0;stroke:none;fill:rgba(51,51,51,1.0);font-size:12.8px;font-family:'Roboto Medium',sans-serif">108.00</text><path  d="M 970 222
L 975 222" style="stroke-width:1;stroke:rgba(51,51,51,1.0);fill:none"/><text x="980" y="228" style="stroke-width:0;stroke:none;fill:rgba(51,51,51,1.0);font-size:12.8px;font-family:'Roboto Medium',sans-serif">162.00</text><path  d="M 970 181
L 975 181" style="stroke-width:1;stroke:rgba(51,51,51,1.0);fill:none"/><text x="980" y="187" style="stroke-width:0;stroke:none;fill:rgba(51,51,51,1.0);font-size:12.8px;font-family:'Roboto Medium',sans-serif">215.00</text><path  d="M 970 138
L 975 138" style="stroke-width:1;stroke:rgba(51,51,51,1.0);fill:none"/><text x="980" y="144" style="stroke-width:0;stroke:none;fill:rgba(51,51,51,1.0);font-size:12.8px;font-family:'Roboto Medium',sans-serif">269.00</text><path  d="M 970 95
L 975 95" style="stroke-width:1;stroke:rgba(51,51,51,1.0);fill:none"/><text x="980" y="101" style="stroke-width:0;stroke:none;fill:rgba(51,51,51,1.0);font-size:12.8px;font-family:'Roboto Medium',sans-serif">323.00</text><path  d="M 970 52
L 975 52" style="stroke-width:1;stroke:rgba(51,51,51,1.0);fill:none"/><text x="980" y="58" style="stroke-width:0;stroke:none;fill:rgba(51,51,51,1.0);font-size:12.8px;font-family:'Roboto Medium',sans-serif">377.00</text><path  d="M 970 11
L 975 11" style="stroke-width:1;stroke:rgba(51,51,51,1.0);fill:none"/><text x="980" y="17" style="stroke-width:0;stroke:none;fill:rgba(51,51,51,1.0);font-size:12.8px;font-family:'Roboto Medium',sans-serif">430.00</text><path  d="M 38 351
L 41 351
L 43 351
L 45 351
L 47 351
L 49 351
L 51 351
L 53 351
L 55 351
L 57 351
L 59 351
L 61 351
L 63 351
L 65 351
L 67 351
L 69 349
L 71 349
L 73 349
L 75 349
L 77 349
L 79 349
L 81 349
L 83 351
L 85 351
L 87 347
L 89 345
L 91 339
L 93 339
L 95 339
L 97 325
L 99 319
L 101 323
L 103 315
L 105 321
L 107 321
L 109 311
L 111 319
L 113 325
L 115 323
L 117 331
L 119 331
L 121 329
L 123 339
L 125 345
L 127 343
L 129 345
L 131 347
L 133 347
L 135 349
L 137 349
L 139 345
L 141 341
L 143 341
L 145 341
L 147 341
L 149 337
L 151 335
L 153 339
L 155 345
L 157 345
L 159 345
L 161 341
L 163 345
L 165 347
L 167 347
L 169 347
L 171 347
L 173 347
L 175 351
L 177 349
L 179 349
L 181 349
L 183 349
L 185 349
L 187 349
L 189 349
L 191 351
L 193 351
L 195 351
L 197 351
L 199 349
L 201 349
L 203 349
L 205 349
L 207 349
L 209 347
L 211 347
L 213 349
L 215 347
L 217 347
L 219 347
L 221 347
L 223 349
L 225 349
L 227 349
L 229 351
L 231 351
L 233 351
L 235 351
L 237 351
L 239 351
L 241 351
L 243 351
L 245 351
L 247 351
L 249 351
L 251 351
L 253 351
L 255 351
L 257 351
L 259 351
L 261 351
L 263 349
L 265 349
L 267 347
L 269 347
L 271 347
L 273 347
L 275 345
L 277 347
L 279 347
L 281 349
L 283 349
L 285 349
L 287 349
L 289 351
L 291 351
L 293 349
L 295 347
L 297 347
L 299 347
L 301 347
L 303 347
L 305 347
L 307 349
L 309 351
L 311 351
L 313 351
L 315 351
L 317 345
L 319 345
L 321 343
L 323 339
L 325 337
L 327 327
L 329 319
L 331 325
L 333 325
L 335 325
L 337 329
L 339 325
L 341 329
L 343 337
L 345 337
L 347 337
L 349 339
L 351 339
L 353 345
L 355 349
L 357 349
L 359 349
L 361 347
L 363 347
L 365 347
L 367 347
L 369 349
L 371 349
L 373 347
L 375 349
L 377 349
L 379 349
L 381 349
L 383 349
L 385 349
L 387 351
L 389 349
L 391 349
L 393 347
L 395 347
L 397 345
L 399 345
L 401 345
L 403 347
L 405 347
L 407 343
L 409 341
L 411 335
L 413 331
L 415 325
L 417 321
L 419 311
L 421 311
L 423 311
L 425 319
L 427 323
L 429 325
L 431 325
L 433 333
L 435 337
L 437 339
L 439 335
L 441 335
L 443 335
L 445 337
L 447 335
L 449 335
L 451 335
L 453 337
L 455 331
L 457 335
L 459 337
L 461 337
L 463 337
L 465 333
L 467 335
L 469 335
L 471 333
L 473 323
L 475 321
L 477 321
L 479 321
L 481 319
L 483 323
L 485 319
L 487 321
L 489 323
L 491 317
L 493 317
L 495 315
L 497 309
L 499 309
L 501 317
L 503 319
L 505 321
L 507 323
L 509 325
L 511 331
L 513 317
L 515 299
L 517 270
L 519 254
L 521 230
L 523 222
L 525 198
L 527 177
L 529 181
L 531 183
L 533 161
L 535 159
L 537 151
L 539 121
L 541 114
L 543 72
L 545 60
L 547 37
L 549 29
L 551 17
L 553 27
L 555 17
L 557 31
L 559 35
L 561 76
L 563 50
L 565 60
L 567 94
L 569 80
L 571 88
L 573 96
L 575 44
L 577 54
L 579 48
L 581 58
L 583 92
L 585 78
L 587 74
L 589 125
L 591 119
L 593 108
L 595 80
L 597 17
L 599 37
L 601 40
L 603 46
L 605 82
L 607 94
L 609 100
L 611 191
L 613 202
L 615 216
L 617 224
L 619 232
L 621 256
L 623 272
L 625 273
L 627 285
L 629 277
L 631 281
L 633 279
L 635 277
L 637 275
L 639 281
L 641 281
L 643 285
L 645 285
L 647 287
L 649 285
L 651 283
L 653 268
L 655 258
L 657 270
L 659 270
L 661 272
L 663 264
L 665 258
L 667 246
L 669 250
L 671 240
L 673 240
L 675 244
L 677 254
L 679 258
L 681 281
L 683 285
L 685 297
L 687 293
L 689 289
L 691 273
L 693 277
L 695 273
L 697 254
L 699 238
L 701 248
L 703 248
L 705 260
L 707 252
L 709 250
L 711 272
L 713 287
L 715 287
L 717 295
L 719 285
L 721 285
L 723 297
L 725 295
L 727 293
L 729 293
L 731 287
L 733 305
L 735 315
L 737 313
L 739 313
L 741 311
L 743 307
L 745 303
L 747 299
L 749 299
L 751 281
L 753 268
L 755 272
L 757 256
L 759 254
L 761 252
L 763 232
L 765 228
L 767 232
L 769 212
L 771 200
L 773 204
L 775 189
L 777 189
L 779 187
L 781 187
L 783 183
L 785 200
L 787 202
L 789 202
L 791 208
L 793 218
L 795 196
L 797 191
L 799 181
L 801 179
L 803 179
L 805 193
L 807 167
L 809 191
L 811 196
L 813 177
L 815 157
L 817 153
L 819 117
L 821 108
L 823 88
L 825 60
L 827 64
L 829 76
L 831 80
L 833 88
L 835 121
L 837 139
L 839 185
L 841 216
L 843 220
L 845 240
L 847 258
L 849 230
L 851 230
L 853 224
L 855 226
L 857 230
L 859 228
L 861 232
L 863 262
L 865 272
L 867 279
L 869 272
L 871 277
L 873 277
L 875 266
L 877 275
L 879 266
L 881 268
L 883 268
L 885 260
L 887 256
L 889 272
L 891 272
L 893 268
L 895 270
L 897 277
L 899 289
L 901 293
L 903 297
L 905 293
L 907 291
L 909 287
L 911 293
L 913 291
L 915 295
L 917 295
L 919 297
L 921 317
L 923 317
L 925 309
L 927 309
L 929 309
L 931 307
L 933 309
L 935 301
L 937 307
L 939 317
L 941 319
L 943 319
L 945 319
L 947 319
L 949 325
L 951 329
L 953 325
L 955 323
L 957 321
L 959 327
L 961 331
L 963 333
L 965 331
L 967 335
L 969 339" style="stroke-width:1;stroke:rgba(0,116,217,1.0);fill:none"/><path  d="M 38 351
L 41 351
L 43 351
L 45 351
L 47 351
L 49 351
L 51 351
L 53 351
L 55 351
L 57 351
L 59 351
L 61 351
L 63 351
L 65 351
L 67 351
L 69 350
L 71 351
L 73 351
L 75 351
L 77 351
L 79 351
L 81 351
L 83 351
L 85 351
L 87 349
L 89 350
L 91 348
L 93 351
L 95 351
L 97 345
L 99 348
L 101 351
L 103 347
L 105 351
L 107 351
L 109 347
L 111 348
L 113 351
L 115 350
L 117 350
L 119 351
L 121 350
L 123 351
L 125 351
L 127 350
L 129 351
L 131 351
L 133 351
L 135 351
L 137 351
L 139 349
L 141 348
L 143 351
L 145 351
L 147 351
L 149 349
L 151 350
L 153 351
L 155 351
L 157 351
L 159 351
L 161 349
L 163 351
L 165 351
L 167 351
L 169 351
L 171 351
L 173 351
L 175 351
L 177 350
L 179 351
L 181 351
L 183 351
L 185 351
L 187 351
L 189 351
L 191 351
L 193 351
L 195 351
L 197 351
L 199 350
L 201 351
L 203 351
L 205 351
L 207 351
L 209 350
L 211 351
L 213 351
L 215 350
L 217 351
L 219 351
L 221 351
L 223 351
L 225 351
L 227 351
L 229 351
L 231 351
L 233 351
L 235 351
L 237 351
L 239 351
L 241 351
L 243 351
L 245 351
L 247 351
L 249 351
L 251 351
L 253 351
L 255 351
L 257 351
L 259 351
L 261 351
L 263 350
L 265 351
L 267 350
L 269 351
L 271 351
L 273 351
L 275 350
L 277 351
L 279 351
L 281 351
L 283 351
L 285 351
L 287 351
L 289 351
L 291 351
L 293 350
L 295 350
L 297 351
L 299 351
L 301 351
L 303 351
L 305 351
L 307 351
L 309 351
L 311 351
L 313 351
L 315 351
L 317 348
L 319 351
L 321 350
L 323 349
L 325 350
L 327 347
L 329 347
L 331 351
L 333 351
L 335 350
L 337 351
L 339 348
L 341 348
L 343 351
L 345 351
L 347 351
L 349 351
L 351 351
L 353 351
L 355 350
L 357 351
L 359 351
L 361 350
L 363 351
L 365 351
L 367 351
L 369 351
L 371 351
L 373 350
L 375 351
L 377 351
L 379 351
L 381 351
L 383 351
L 385 351
L 387 351
L 389 350
L 391 351
L 393 350
L 395 351
L 397 350
L 399 351
L 401 351
L 403 351
L 405 351
L 407 348
L 409 350
L 411 347
L 413 349
L 415 348
L 417 349
L 419 347
L 421 348
L 423 350
L 425 351
L 427 351
L 429 349
L 431 349
L 433 350
L 435 350
L 437 351
L 439 349
L 441 351
L 443 349
L 445 350
L 447 349
L 449 350
L 451 351
L 453 350
L 455 348
L 457 351
L 459 351
L 461 349
L 463 350
L 465 349
L 467 351
L 469 348
L 471 350
L 473 347
L 475 348
L 477 350
L 479 349
L 481 350
L 483 350
L 485 348
L 487 347
L 489 349
L 491 347
L 493 349
L 495 349
L 497 347
L 499 348
L 501 351
L 503 350
L 505 348
L 507 350
L 509 350
L 511 350
L 513 343
L 515 343
L 517 338
L 519 342
L 521 340
L 523 347
L 525 340
L 527 334
L 529 345
L 531 339
L 533 333
L 535 339
L 537 343
L 539 328
L 541 331
L 543 328
L 545 334
L 547 324
L 549 336
L 551 339
L 553 332
L 555 327
L 557 334
L 559 335
L 561 340
L 563 326
L 565 343
L 567 346
L 569 321
L 571 337
L 573 339
L 575 320
L 577 330
L 579 340
L 581 350
L 583 335
L 585 332
L 587 337
L 589 340
L 591 328
L 593 335
L 595 339
L 597 309
L 599 339
L 601 339
L 603 343
L 605 342
L 607 340
L 609 341
L 611 346
L 613 344
L 615 344
L 617 346
L 619 345
L 621 350
L 623 347
L 625 347
L 627 349
L 629 341
L 631 347
L 633 344
L 635 349
L 637 347
L 639 349
L 641 349
L 643 343
L 645 347
L 647 345
L 649 348
L 651 346
L 653 343
L 655 345
L 657 347
L 659 347
L 661 346
L 663 345
L 665 343
L 667 338
L 669 347
L 671 343
L 673 347
L 675 347
L 677 349
L 679 345
L 681 347
L 683 348
L 685 348
L 687 346
L 689 346
L 691 343
L 693 347
L 695 346
L 697 340
L 699 342
L 701 350
L 703 346
L 705 347
L 707 343
L 709 345
L 711 349
L 713 348
L 715 350
L 717 349
L 719 343
L 721 343
L 723 350
L 725 348
L 727 347
L 729 350
L 731 347
L 733 351
L 735 347
L 737 349
L 739 348
L 741 347
L 743 348
L 745 345
L 747 349
L 749 347
L 751 342
L 753 343
L 755 348
L 757 342
L 759 344
L 761 348
L 763 339
L 765 340
L 767 344
L 769 340
L 771 337
L 773 346
L 775 342
L 777 339
L 779 339
L 781 344
L 783 339
L 785 344
L 787 347
L 789 342
L 791 342
L 793 343
L 795 335
L 797 336
L 799 340
L 801 346
L 803 342
L 805 347
L 807 333
L 809 345
L 811 339
L 813 332
L 815 338
L 817 340
L 819 333
L 821 329
L 823 337
L 825 328
L 827 334
L 829 343
L 831 342
L 833 336
L 835 343
L 837 344
L 839 346
L 841 347
L 843 344
L 845 350
L 847 343
L 849 332
L 851 344
L 853 343
L 855 347
L 857 346
L 859 349
L 861 345
L 863 343
L 865 348
L 867 347
L 869 344
L 871 348
L 873 349
L 875 340
L 877 347
L 879 344
L 881 347
L 883 344
L 885 345
L 887 347
L 889 347
L 891 347
L 893 343
L 895 348
L 897 347
L 899 350
L 901 349
L 903 348
L 905 346
L 907 342
L 909 347
L 911 350
L 913 349
L 915 351
L 917 348
L 919 347
L 921 350
L 923 347
L 925 347
L 927 349
L 929 351
L 931 347
L 933 347
L 935 347
L 937 349
L 939 351
L 941 350
L 943 351
L 945 347
L 947 347
L 949 349
L 951 351
L 953 349
L 955 349
L 957 350
L 959 350
L 961 349
L 963 350
L 965 350
L 967 351
L 969 351" style="stroke-width:1;stroke:rgba(0,217,101,1.0);fill:none"/><path  d="M 38 351
L 41 351
L 43 351
L 45 351
L 47 351
L 49 351
L 51 351
L 53 351
L 55 351
L 57 351
L 59 351
L 61 351
L 63 351
L 65 351
L 67 351
L 69 351
L 71 351
L 73 351
L 75 351
L 77 351
L 79 351
L 81 351
L 83 351
L 85 351
L 87 351
L 89 351
L 91 351
L 93 351
L 95 351
L 97 351
L 99 351
L 101 351
L 103 351
L 105 351
L 107 351
L 109 351
L 111 351
L 113 351
L 115 351
L 117 351
L 119 351
L 121 351
L 123 351
L 125 351
L 127 351
L 129 351
L 131 351
L 133 351
L 135 351
L 137 351
L 139 351
L 141 351
L 143 350
L 145 351
L 147 351
L 149 351
L 151 351
L 153 351
L 155 351
L 157 351
L 159 351
L 161 351
L 163 351
L 165 351
L 167 351
L 169 351
L 171 351
L 173 351
L 175 351
L 177 351
L 179 351
L 181 351
L 183 351
L 185 351
L 187 351
L 189 351
L 191 351
L 193 351
L 195 351
L 197 351
L 199 351
L 201 351
L 203 351
L 205 351
L 207 351
L 209 351
L 211 351
L 213 351
L 215 351
L 217 351
L 219 351
L 221 351
L 223 351
L 225 351
L 227 351
L 229 351
L 231 351
L 233 351
L 235 351
L 237 351
L 239 351
L 241 351
L 243 351
L 245 351
L 247 351
L 249 351
L 251 351
L 253 351
L 255 351
L 257 351
L 259 351
L 261 351
L 263 351
L 265 351
L 267 351
L 269 351
L 271 351
L 273 351
L 275 351
L 277 351
L 279 351
L 281 351
L 283 351
L 285 351
L 287 351
L 289 351
L 291 351
L 293 351
L 295 351
L 297 351
L 299 351
L 301 351
L 303 351
L 305 351
L 307 351
L 309 351
L 311 351
L 313 351
L 315 351
L 317 351
L 319 351
L 321 351
L 323 351
L 325 351
L 327 351
L 329 351
L 331 351
L 333 351
L 335 351
L 337 351
L 339 351
L 341 351
L 343 351
L 345 351
L 347 351
L 349 351
L 351 351
L 353 351
L 355 351
L 357 351
L 359 351
L 361 351
L 363 351
L 365 351
L 367 351
L 369 351
L 371 351
L 373 351
L 375 351
L 377 351
L 379 351
L 381 351
L 383 351
L 385 351
L 387 351
L 389 351
L 391 351
L 393 351
L 395 351
L 397 351
L 399 351
L 401 351
L 403 351
L 405 351
L 407 351
L 409 351
L 411 351
L 413 351
L 415 351
L 417 351
L 419 351
L 421 351
L 423 351
L 425 351
L 427 351
L 429 351
L 431 351
L 433 351
L 435 351
L 437 351
L 439 351
L 441 351
L 443 351
L 445 351
L 447 351
L 449 351
L 451 351
L 453 351
L 455 351
L 457 351
L 459 351
L 461 351
L 463 351
L 465 351
L 467 351
L 469 351
L 471 351
L 473 351
L 475 351
L 477 351
L 479 351
L 481 351
L 483 351
L 485 351
L 487 351
L 489 351
L 491 351
L 493 351
L 495 351
L 497 350
L 499 351
L 501 351
L 503 351
L 505 351
L 507 351
L 509 351
L 511 351
L 513 351
L 515 351
L 517 351
L 519 351
L 521 351
L 523 351
L 525 351
L 527 351
L 529 351
L 531 351
L 533 351
L 535 351
L 537 351
L 539 351
L 541 351
L 543 351
L 545 351
L 547 351
L 549 351
L 551 348
L 553 351
L 555 351
L 557 351
L 559 351
L 561 351
L 563 350
L 565 351
L 567 351
L 569 351
L 571 351
L 573 351
L 575 351
L 577 350
L 579 351
L 581 351
L 583 351
L 585 351
L 587 351
L 589 351
L 591 349
L 593 351
L 595 350
L 597 351
L 599 351
L 601 351
L 603 348
L 605 351
L 607 350
L 609 350
L 611 350
L 613 351
L 615 351
L 617 351
L 619 351
L 621 351
L 623 351
L 625 351
L 627 351
L 629 351
L 631 350
L 633 351
L 635 351
L 637 351
L 639 350
L 641 351
L 643 350
L 645 351
L 647 351
L 649 350
L 651 351
L 653 351
L 655 351
L 657 350
L 659 351
L 661 351
L 663 351
L 665 351
L 667 351
L 669 351
L 671 351
L 673 351
L 675 351
L 677 351
L 679 351
L 681 351
L 683 351
L 685 351
L 687 351
L 689 351
L 691 350
L 693 351
L 695 351
L 697 351
L 699 351
L 701 351
L 703 351
L 705 351
L 707 350
L 709 351
L 711 351
L 713 351
L 715 351
L 717 351
L 719 351
L 721 351
L 723 350
L 725 351
L 727 351
L 729 351
L 731 351
L 733 351
L 735 351
L 737 351
L 739 351
L 741 351
L 743 351
L 745 351
L 747 351
L 749 351
L 751 351
L 753 351
L 755 351
L 757 351
L 759 351
L 761 351
L 763 351
L 765 351
L 767 351
L 769 351
L 771 351
L 773 351
L 775 351
L 777 351
L 779 351
L 781 351
L 783 351
L 785 351
L 787 351
L 789 351
L 791 351
L 793 351
L 795 351
L 797 351
L 799 350
L 801 351
L 803 351
L 805 351
L 807 351
L 809 350
L 811 351
L 813 350
L 815 351
L 817 351
L 819 351
L 821 351
L 823 351
L 825 351
L 827 351
L 829 351
L 831 350
L 833 351
L 835 351
L 837 351
L 839 350
L 841 349
L 843 351
L 845 351
L 847 351
L 849 351
L 851 351
L 853 351
L 855 351
L 857 351
L 859 351
L 861 351
L 863 351
L 865 351
L 867 351
L 869 351
L 871 351
L 873 351
L 875 351
L 877 351
L 879 351
L 881 351
L 883 351
L 885 350
L 887 351
L 889 351
L 891 351
L 893 351
L 895 351
L 897 351
L 899 351
L 901 351
L 903 351
L 905 351
L 907 351
L 909 351
L 911 351
L 913 351
L 915 351
L 917 351
L 919 351
L 921 351
L 923 351
L 925 351
L 927 351
L 929 351
L 931 351
L 933 351
L 935 351
L 937 351
L 939 350
L 941 351
L 943 351
L 945 351
L 947 351
L 949 351
L 951 351
L 953 351
L 955 351
L 957 351
L 959 351
L 961 351
L 963 351
L 965 351
L 967 351
L 969 351" style="stroke-width:1;stroke:rgba(217,0,116,1.0);fill:none"/><text x="387" y="33" style="stroke-width:0;stroke:none;fill:rgba(51,51,51,1.0);font-size:23.0px;font-family:'Roboto Medium',sans-serif">Mattersburg 05.06.2021</text><path  d="M 38 11
L 251 11
L 251 91
L 38 91
L 38 11" style="stroke-width:1;stroke:rgba(51,51,51,1.0);fill:rgba(255,255,255,1.0)"/><text x="43" y="26" style="stroke-width:0;stroke:none;fill:rgba(51,51,51,1.0);font-size:10.2px;font-family:'Roboto Medium',sans-serif">Sieben Tage Durschnitt Inzidenz Fälle</text><path  d="M 221 21
L 241 21" style="stroke-width:1;stroke:rgba(0,116,217,1.0);fill:none"/><text x="43" y="56" style="stroke-width:0;stroke:none;fill:rgba(51,51,51,1.0);font-size:10.2px;font-family:'Roboto Medium',sans-serif">Anzahl Faelle</text><path  d="M 110 51
L 241 51" style="stroke-width:1;stroke:rgba(0,217,101,1.0);fill:none"/><text x="43" y="86" style="stroke-width:0;stroke:none;fill:rgba(51,51,51,1.0);font-size:10.2px;font-family:'Roboto Medium',sans-serif">Anzahl Tot</text><path  d="M 98 81
L 241 81" style="stroke-width:1;stroke:rgba(217,0,116,1.0);fill:none"/></svg>