<svg xmlns="http://www.w3.org/2000/svg" xmlns:xlink="http://www.w3.org/1999/xlink" width="1024" height="400">\n<path  d="M 0 0
L 1024 0
L 1024 400
L 0 400
L 0 0" style="stroke-width:0;stroke:rgba(255,255,255,1.0);fill:rgba(255,255,255,1.0)"/><path  d="M 38 11
L 969 11
L 969 351
L 38 351
L 38 11" style="stroke-width:0;stroke:rgba(255,255,255,1.0);fill:rgba(255,255,255,1.0)"/><path  d="M 38 351
L 969 351" style="stroke-width:1;stroke:rgba(51,51,51,1.0);fill:none"/><path  d="M 38 351
L 38 356" style="stroke-width:1;stroke:rgba(51,51,51,1.0);fill:none"/><text x="5" y="373" style="stroke-width:0;stroke:none;fill:rgba(51,51,51,1.0);font-size:12.8px;font-family:'Roboto Medium',sans-serif">2020-02-26</text><path  d="M 155 351
L 155 356" style="stroke-width:1;stroke:rgba(51,51,51,1.0);fill:none"/><text x="122" y="373" style="stroke-width:0;stroke:none;fill:rgba(51,51,51,1.0);font-size:12.8px;font-family:'Roboto Medium',sans-serif">2020-05-11</text><path  d="M 271 351
L 271 356" style="stroke-width:1;stroke:rgba(51,51,51,1.0);fill:none"/><text x="238" y="373" style="stroke-width:0;stroke:none;fill:rgba(51,51,51,1.0);font-size:12.8px;font-family:'Roboto Medium',sans-serif">2020-07-25</text><path  d="M 388 351
L 388 356" style="stroke-width:1;stroke:rgba(51,51,51,1.0);fill:none"/><text x="355" y="373" style="stroke-width:0;stroke:none;fill:rgba(51,51,51,1.0);font-size:12.8px;font-family:'Roboto Medium',sans-serif">2020-10-08</text><path  d="M 504 351
L 504 356" style="stroke-width:1;stroke:rgba(51,51,51,1.0);fill:none"/><text x="471" y="373" style="stroke-width:0;stroke:none;fill:rgba(51,51,51,1.0);font-size:12.8px;font-family:'Roboto Medium',sans-serif">2020-12-22</text><path  d="M 620 351
L 620 356" style="stroke-width:1;stroke:rgba(51,51,51,1.0);fill:none"/><text x="587" y="373" style="stroke-width:0;stroke:none;fill:rgba(51,51,51,1.0);font-size:12.8px;font-family:'Roboto Medium',sans-serif">2021-03-07</text><path  d="M 737 351
L 737 356" style="stroke-width:1;stroke:rgba(51,51,51,1.0);fill:none"/><text x="704" y="373" style="stroke-width:0;stroke:none;fill:rgba(51,51,51,1.0);font-size:12.8px;font-family:'Roboto Medium',sans-serif">2021-05-21</text><path  d="M 853 351
L 853 356" style="stroke-width:1;stroke:rgba(51,51,51,1.0);fill:none"/><text x="820" y="373" style="stroke-width:0;stroke:none;fill:rgba(51,51,51,1.0);font-size:12.8px;font-family:'Roboto Medium',sans-serif">2021-08-04</text><path  d="M 969 351
L 969 356" style="stroke-width:1;stroke:rgba(51,51,51,1.0);fill:none"/><text x="936" y="373" style="stroke-width:0;stroke:none;fill:rgba(51,51,51,1.0);font-size:12.8px;font-family:'Roboto Medium',sans-serif">2021-10-19</text><text x="485" y="395" style="stroke-width:0;stroke:none;fill:rgba(51,51,51,1.0);font-size:12.8px;font-family:'Roboto Medium',sans-serif">Datum</text><path  d="M 970 351
L 970 11" style="stroke-width:1;stroke:rgba(51,51,51,1.0);fill:none"/><path  d="M 970 351
L 975 351" style="stroke-width:1;stroke:rgba(51,51,51,1.0);fill:none"/><text x="980" y="357" style="stroke-width:0;stroke:none;fill:rgba(51,51,51,1.0);font-size:12.8px;font-family:'Roboto Medium',sans-serif">0.00</text><path  d="M 970 307
L 975 307" style="stroke-width:1;stroke:rgba(51,51,51,1.0);fill:none"/><text x="980" y="313" style="stroke-width:0;stroke:none;fill:rgba(51,51,51,1.0);font-size:12.8px;font-family:'Roboto Medium',sans-serif">42.00</text><path  d="M 970 265
L 975 265" style="stroke-width:1;stroke:rgba(51,51,51,1.0);fill:none"/><text x="980" y="271" style="stroke-width:0;stroke:none;fill:rgba(51,51,51,1.0);font-size:12.8px;font-family:'Roboto Medium',sans-serif">83.00</text><path  d="M 970 223
L 975 223" style="stroke-width:1;stroke:rgba(51,51,51,1.0);fill:none"/><text x="980" y="229" style="stroke-width:0;stroke:none;fill:rgba(51,51,51,1.0);font-size:12.8px;font-family:'Roboto Medium',sans-serif">124.00</text><path  d="M 970 181
L 975 181" style="stroke-width:1;stroke:rgba(51,51,51,1.0);fill:none"/><text x="980" y="187" style="stroke-width:0;stroke:none;fill:rgba(51,51,51,1.0);font-size:12.8px;font-family:'Roboto Medium',sans-serif">165.00</text><path  d="M 970 137
L 975 137" style="stroke-width:1;stroke:rgba(51,51,51,1.0);fill:none"/><text x="980" y="143" style="stroke-width:0;stroke:none;fill:rgba(51,51,51,1.0);font-size:12.8px;font-family:'Roboto Medium',sans-serif">207.00</text><path  d="M 970 95
L 975 95" style="stroke-width:1;stroke:rgba(51,51,51,1.0);fill:none"/><text x="980" y="101" style="stroke-width:0;stroke:none;fill:rgba(51,51,51,1.0);font-size:12.8px;font-family:'Roboto Medium',sans-serif">248.00</text><path  d="M 970 53
L 975 53" style="stroke-width:1;stroke:rgba(51,51,51,1.0);fill:none"/><text x="980" y="59" style="stroke-width:0;stroke:none;fill:rgba(51,51,51,1.0);font-size:12.8px;font-family:'Roboto Medium',sans-serif">289.00</text><path  d="M 970 11
L 975 11" style="stroke-width:1;stroke:rgba(51,51,51,1.0);fill:none"/><text x="980" y="17" style="stroke-width:0;stroke:none;fill:rgba(51,51,51,1.0);font-size:12.8px;font-family:'Roboto Medium',sans-serif">330.00</text><path  d="M 38 351
L 40 351
L 42 351
L 43 351
L 45 351
L 46 351
L 48 351
L 49 351
L 51 351
L 52 351
L 54 351
L 56 351
L 57 351
L 59 351
L 60 351
L 62 351
L 63 346
L 65 346
L 66 344
L 68 341
L 69 337
L 71 333
L 73 329
L 74 326
L 76 318
L 77 314
L 79 310
L 80 307
L 82 296
L 83 288
L 85 292
L 87 282
L 88 284
L 90 285
L 91 288
L 93 299
L 94 304
L 96 303
L 97 319
L 99 323
L 100 318
L 102 318
L 104 316
L 105 322
L 107 322
L 108 322
L 110 323
L 111 334
L 113 338
L 114 341
L 116 340
L 118 341
L 119 342
L 121 342
L 122 342
L 124 342
L 125 341
L 127 342
L 128 345
L 130 342
L 131 342
L 133 341
L 135 341
L 136 345
L 138 346
L 139 346
L 141 349
L 142 349
L 144 351
L 145 348
L 147 348
L 148 346
L 150 346
L 152 345
L 153 345
L 155 345
L 156 348
L 158 348
L 159 348
L 161 345
L 162 346
L 164 345
L 166 342
L 167 342
L 169 342
L 170 342
L 172 345
L 173 345
L 175 346
L 176 349
L 178 349
L 179 348
L 181 348
L 183 346
L 184 346
L 186 346
L 187 346
L 189 346
L 190 348
L 192 349
L 193 349
L 195 349
L 197 349
L 198 349
L 200 349
L 201 349
L 203 349
L 204 351
L 206 351
L 207 351
L 209 351
L 210 351
L 212 351
L 214 351
L 215 351
L 217 351
L 218 351
L 220 351
L 221 351
L 223 351
L 224 351
L 226 351
L 227 351
L 229 351
L 231 351
L 232 351
L 234 351
L 235 351
L 237 351
L 238 351
L 240 351
L 241 351
L 243 351
L 245 351
L 246 351
L 248 351
L 249 351
L 251 351
L 252 351
L 254 351
L 255 351
L 257 351
L 258 351
L 260 351
L 262 351
L 263 351
L 265 351
L 266 351
L 268 351
L 269 351
L 271 351
L 272 351
L 274 351
L 276 349
L 277 349
L 279 348
L 280 348
L 282 348
L 283 345
L 285 345
L 286 346
L 288 345
L 289 344
L 291 344
L 293 344
L 294 345
L 296 344
L 297 342
L 299 344
L 300 346
L 302 342
L 303 342
L 305 344
L 306 342
L 308 344
L 310 342
L 311 342
L 313 346
L 314 345
L 316 344
L 317 346
L 319 345
L 320 344
L 322 342
L 324 341
L 325 342
L 327 342
L 328 342
L 330 344
L 331 345
L 333 340
L 334 336
L 336 323
L 337 322
L 339 322
L 341 316
L 342 312
L 344 315
L 345 318
L 347 327
L 348 323
L 350 322
L 351 315
L 353 310
L 355 306
L 356 301
L 358 293
L 359 293
L 361 291
L 362 299
L 364 304
L 365 307
L 367 303
L 368 301
L 370 301
L 372 300
L 373 286
L 375 285
L 376 280
L 378 277
L 379 281
L 381 281
L 382 277
L 384 288
L 385 278
L 387 280
L 389 277
L 390 280
L 392 278
L 393 278
L 395 277
L 396 282
L 398 288
L 399 297
L 401 297
L 403 297
L 404 300
L 406 303
L 407 307
L 409 297
L 410 295
L 412 291
L 413 284
L 415 278
L 416 266
L 418 254
L 420 257
L 421 248
L 423 240
L 424 236
L 426 227
L 427 220
L 429 201
L 430 160
L 432 161
L 434 141
L 435 123
L 437 116
L 438 89
L 440 71
L 441 89
L 443 67
L 444 62
L 446 55
L 447 28
L 449 44
L 451 67
L 452 55
L 454 54
L 455 79
L 457 112
L 458 152
L 460 165
L 461 176
L 463 201
L 464 209
L 466 201
L 468 183
L 469 186
L 471 190
L 472 199
L 474 213
L 475 227
L 477 239
L 478 263
L 480 272
L 482 272
L 483 278
L 485 250
L 486 263
L 488 258
L 489 246
L 491 233
L 492 240
L 494 232
L 495 262
L 497 262
L 499 276
L 500 285
L 502 293
L 503 301
L 505 304
L 506 303
L 508 301
L 509 297
L 511 292
L 513 284
L 514 263
L 516 244
L 517 240
L 519 235
L 520 236
L 522 229
L 523 237
L 525 242
L 526 252
L 528 248
L 530 232
L 531 239
L 533 242
L 534 237
L 536 236
L 537 242
L 539 243
L 540 263
L 542 255
L 544 250
L 545 243
L 547 255
L 548 265
L 550 265
L 551 263
L 553 262
L 554 276
L 556 292
L 557 286
L 559 277
L 561 274
L 562 270
L 564 263
L 565 250
L 567 231
L 568 213
L 570 197
L 571 190
L 573 165
L 574 153
L 576 139
L 578 118
L 579 119
L 581 109
L 582 105
L 584 122
L 585 142
L 587 146
L 588 164
L 590 163
L 592 182
L 593 186
L 595 160
L 596 139
L 598 149
L 599 119
L 601 129
L 602 119
L 604 120
L 605 129
L 607 69
L 609 63
L 610 71
L 612 52
L 613 45
L 615 39
L 616 17
L 618 50
L 619 59
L 621 70
L 623 81
L 624 89
L 626 100
L 627 120
L 629 139
L 630 148
L 632 164
L 633 165
L 635 173
L 636 154
L 638 143
L 640 157
L 641 146
L 643 116
L 644 107
L 646 97
L 647 104
L 649 107
L 650 101
L 652 94
L 653 118
L 655 133
L 657 134
L 658 141
L 660 160
L 661 168
L 663 173
L 664 171
L 666 173
L 667 194
L 669 203
L 671 208
L 672 209
L 674 214
L 675 225
L 677 235
L 678 220
L 680 214
L 681 225
L 683 224
L 684 227
L 686 237
L 688 239
L 689 240
L 691 251
L 692 254
L 694 259
L 695 263
L 697 265
L 698 269
L 700 274
L 702 277
L 703 276
L 705 286
L 706 281
L 708 277
L 709 273
L 711 276
L 712 276
L 714 282
L 715 282
L 717 297
L 719 308
L 720 314
L 722 326
L 723 323
L 725 326
L 726 329
L 728 325
L 729 321
L 731 319
L 732 319
L 734 327
L 736 326
L 737 325
L 739 325
L 740 327
L 742 327
L 743 322
L 745 321
L 746 323
L 748 326
L 750 330
L 751 326
L 753 329
L 754 331
L 756 333
L 757 327
L 759 319
L 760 316
L 762 321
L 763 318
L 765 321
L 767 318
L 768 322
L 770 331
L 771 333
L 773 334
L 774 338
L 776 340
L 777 344
L 779 346
L 781 346
L 782 348
L 784 349
L 785 351
L 787 351
L 788 351
L 790 351
L 791 351
L 793 351
L 794 351
L 796 351
L 798 351
L 799 349
L 801 349
L 802 349
L 804 349
L 805 349
L 807 349
L 808 349
L 810 351
L 811 351
L 813 351
L 815 351
L 816 349
L 818 348
L 819 346
L 821 345
L 822 341
L 824 340
L 825 340
L 827 336
L 829 334
L 830 334
L 832 334
L 833 337
L 835 337
L 836 336
L 838 338
L 839 336
L 841 331
L 842 330
L 844 325
L 846 323
L 847 322
L 849 323
L 850 323
L 852 329
L 853 327
L 855 333
L 856 331
L 858 330
L 860 331
L 861 333
L 863 326
L 864 329
L 866 329
L 867 333
L 869 336
L 870 329
L 872 325
L 873 325
L 875 314
L 877 308
L 878 308
L 880 308
L 881 304
L 883 310
L 884 303
L 886 315
L 887 315
L 889 304
L 890 300
L 892 304
L 894 291
L 895 291
L 897 280
L 898 270
L 900 278
L 901 276
L 903 276
L 904 286
L 906 282
L 908 286
L 909 288
L 911 276
L 912 274
L 914 274
L 915 266
L 917 269
L 918 262
L 920 265
L 921 274
L 923 273
L 925 265
L 926 267
L 928 267
L 929 272
L 931 276
L 932 276
L 934 281
L 935 280
L 937 269
L 939 274
L 940 274
L 942 273
L 943 254
L 945 240
L 946 247
L 948 255
L 949 237
L 951 235
L 952 232
L 954 243
L 956 254
L 957 240
L 959 227
L 960 218
L 962 218
L 963 218
L 965 212
L 966 213
L 968 214
L 969 220" style="stroke-width:1;stroke:rgba(0,116,217,1.0);fill:none"/><path  d="M 38 351
L 40 351
L 42 351
L 43 351
L 45 351
L 46 351
L 48 351
L 49 351
L 51 351
L 52 351
L 54 351
L 56 351
L 57 351
L 59 351
L 60 351
L 62 351
L 63 347
L 65 351
L 66 348
L 68 348
L 69 347
L 71 347
L 73 347
L 74 345
L 76 344
L 77 345
L 79 345
L 80 345
L 82 339
L 83 341
L 85 348
L 87 337
L 88 346
L 90 346
L 91 347
L 93 347
L 94 345
L 96 347
L 97 349
L 99 349
L 100 342
L 102 347
L 104 346
L 105 349
L 107 347
L 108 349
L 110 351
L 111 351
L 113 351
L 114 348
L 116 348
L 118 348
L 119 351
L 121 351
L 122 351
L 124 351
L 125 347
L 127 349
L 128 351
L 130 348
L 131 351
L 133 349
L 135 351
L 136 351
L 138 351
L 139 351
L 141 351
L 142 351
L 144 351
L 145 348
L 147 351
L 148 349
L 150 351
L 152 349
L 153 351
L 155 351
L 156 351
L 158 351
L 159 349
L 161 348
L 162 351
L 164 349
L 166 348
L 167 351
L 169 351
L 170 349
L 172 351
L 173 351
L 175 351
L 176 351
L 178 351
L 179 349
L 181 349
L 183 349
L 184 351
L 186 351
L 187 351
L 189 351
L 190 351
L 192 351
L 193 349
L 195 351
L 197 351
L 198 351
L 200 351
L 201 351
L 203 351
L 204 351
L 206 351
L 207 351
L 209 351
L 210 351
L 212 351
L 214 351
L 215 351
L 217 351
L 218 351
L 220 351
L 221 351
L 223 351
L 224 351
L 226 351
L 227 351
L 229 351
L 231 351
L 232 351
L 234 351
L 235 351
L 237 351
L 238 351
L 240 351
L 241 351
L 243 351
L 245 351
L 246 351
L 248 351
L 249 351
L 251 351
L 252 351
L 254 351
L 255 351
L 257 351
L 258 351
L 260 351
L 262 351
L 263 351
L 265 351
L 266 351
L 268 351
L 269 351
L 271 351
L 272 351
L 274 351
L 276 349
L 277 351
L 279 349
L 280 351
L 282 351
L 283 348
L 285 351
L 286 351
L 288 349
L 289 348
L 291 351
L 293 351
L 294 349
L 296 349
L 297 349
L 299 351
L 300 351
L 302 347
L 303 351
L 305 351
L 306 348
L 308 351
L 310 349
L 311 351
L 313 351
L 314 349
L 316 349
L 317 351
L 319 349
L 320 348
L 322 349
L 324 349
L 325 351
L 327 349
L 328 351
L 330 351
L 331 349
L 333 345
L 334 346
L 336 341
L 337 348
L 339 351
L 341 346
L 342 346
L 344 347
L 345 348
L 347 348
L 348 345
L 350 349
L 351 341
L 353 342
L 355 344
L 356 345
L 358 342
L 359 345
L 361 347
L 362 347
L 364 346
L 365 346
L 367 342
L 368 341
L 370 345
L 372 346
L 373 337
L 375 345
L 376 342
L 378 340
L 379 344
L 381 345
L 382 343
L 384 345
L 385 338
L 387 343
L 389 338
L 390 346
L 392 344
L 393 343
L 395 344
L 396 342
L 398 347
L 399 345
L 401 346
L 403 344
L 404 345
L 406 346
L 407 345
L 409 340
L 410 343
L 412 343
L 413 339
L 415 341
L 416 337
L 418 336
L 420 342
L 421 337
L 423 337
L 424 336
L 426 334
L 427 332
L 429 322
L 430 311
L 432 338
L 434 322
L 435 323
L 437 329
L 438 311
L 440 308
L 441 325
L 443 322
L 444 318
L 446 318
L 447 308
L 449 324
L 451 326
L 452 315
L 454 321
L 455 337
L 457 342
L 458 338
L 460 334
L 461 334
L 463 334
L 464 327
L 466 331
L 468 329
L 469 340
L 471 337
L 472 341
L 474 344
L 475 337
L 477 340
L 478 347
L 480 346
L 482 337
L 483 346
L 485 323
L 486 347
L 488 336
L 489 338
L 491 337
L 492 342
L 494 340
L 495 345
L 497 347
L 499 346
L 500 345
L 502 343
L 503 348
L 505 342
L 506 344
L 508 346
L 509 343
L 511 341
L 513 337
L 514 333
L 516 328
L 517 341
L 519 342
L 520 344
L 522 336
L 523 343
L 525 336
L 526 336
L 528 338
L 530 330
L 531 349
L 533 338
L 534 340
L 536 335
L 537 340
L 539 339
L 540 345
L 542 343
L 544 334
L 545 335
L 547 344
L 548 347
L 550 339
L 551 344
L 553 342
L 554 344
L 556 347
L 557 340
L 559 340
L 561 337
L 562 341
L 564 337
L 565 334
L 567 333
L 568 327
L 570 328
L 571 332
L 573 323
L 574 328
L 576 324
L 578 317
L 579 328
L 581 321
L 582 329
L 584 335
L 585 343
L 587 327
L 588 330
L 590 327
L 592 335
L 593 332
L 595 315
L 596 328
L 598 334
L 599 307
L 601 334
L 602 328
L 604 333
L 605 322
L 607 283
L 609 330
L 610 313
L 612 320
L 613 323
L 615 328
L 616 305
L 618 307
L 619 337
L 621 322
L 623 328
L 624 329
L 626 336
L 627 321
L 629 322
L 630 343
L 632 334
L 633 329
L 635 335
L 636 322
L 638 312
L 640 332
L 641 335
L 643 311
L 644 322
L 646 328
L 647 327
L 649 314
L 650 328
L 652 330
L 653 329
L 655 333
L 657 329
L 658 332
L 660 329
L 661 334
L 663 334
L 664 327
L 666 335
L 667 344
L 669 339
L 671 332
L 672 335
L 674 338
L 675 335
L 677 342
L 678 333
L 680 335
L 681 340
L 683 334
L 684 340
L 686 343
L 688 343
L 689 334
L 691 343
L 692 342
L 694 338
L 695 343
L 697 344
L 698 346
L 700 338
L 702 345
L 703 341
L 705 346
L 706 339
L 708 341
L 709 343
L 711 340
L 712 345
L 714 346
L 715 346
L 717 351
L 719 349
L 720 347
L 722 349
L 723 343
L 725 348
L 726 348
L 728 347
L 729 346
L 731 346
L 732 349
L 734 349
L 736 347
L 737 347
L 739 347
L 740 348
L 742 346
L 743 345
L 745 348
L 746 349
L 748 349
L 750 351
L 751 345
L 753 348
L 754 347
L 756 349
L 757 345
L 759 343
L 760 348
L 762 348
L 763 346
L 765 349
L 767 347
L 768 348
L 770 351
L 771 349
L 773 349
L 774 349
L 776 351
L 777 351
L 779 351
L 781 351
L 782 351
L 784 351
L 785 351
L 787 351
L 788 351
L 790 351
L 791 351
L 793 351
L 794 351
L 796 351
L 798 351
L 799 349
L 801 351
L 802 351
L 804 351
L 805 351
L 807 351
L 808 351
L 810 351
L 811 351
L 813 351
L 815 351
L 816 349
L 818 349
L 819 349
L 821 349
L 822 347
L 824 349
L 825 351
L 827 346
L 829 348
L 830 349
L 832 349
L 833 349
L 835 349
L 836 349
L 838 348
L 839 346
L 841 346
L 842 348
L 844 345
L 846 348
L 847 348
L 849 349
L 850 346
L 852 351
L 853 347
L 855 349
L 856 347
L 858 347
L 860 351
L 861 347
L 863 345
L 864 349
L 866 349
L 867 351
L 869 349
L 870 345
L 872 344
L 873 345
L 875 341
L 877 345
L 878 351
L 880 349
L 881 342
L 883 348
L 884 340
L 886 351
L 887 345
L 889 342
L 890 346
L 892 345
L 894 338
L 895 340
L 897 342
L 898 338
L 900 348
L 901 344
L 903 345
L 904 346
L 906 337
L 908 345
L 909 339
L 911 339
L 912 343
L 914 345
L 915 340
L 917 339
L 918 340
L 920 341
L 921 346
L 923 342
L 925 339
L 926 342
L 928 339
L 929 343
L 931 344
L 932 346
L 934 346
L 935 338
L 937 334
L 939 343
L 940 343
L 942 343
L 943 332
L 945 336
L 946 343
L 948 340
L 949 330
L 951 341
L 952 341
L 954 340
L 956 344
L 957 333
L 959 330
L 960 324
L 962 341
L 963 341
L 965 335
L 966 345
L 968 334
L 969 334" style="stroke-width:1;stroke:rgba(0,217,101,1.0);fill:none"/><path  d="M 38 351
L 40 351
L 42 351
L 43 351
L 45 351
L 46 351
L 48 351
L 49 351
L 51 351
L 52 351
L 54 351
L 56 351
L 57 351
L 59 351
L 60 351
L 62 351
L 63 351
L 65 351
L 66 351
L 68 351
L 69 351
L 71 351
L 73 351
L 74 351
L 76 351
L 77 351
L 79 351
L 80 351
L 82 351
L 83 351
L 85 351
L 87 351
L 88 351
L 90 351
L 91 351
L 93 351
L 94 351
L 96 351
L 97 351
L 99 349
L 100 351
L 102 351
L 104 351
L 105 349
L 107 351
L 108 349
L 110 351
L 111 351
L 113 349
L 114 351
L 116 351
L 118 351
L 119 351
L 121 351
L 122 351
L 124 351
L 125 351
L 127 351
L 128 349
L 130 351
L 131 351
L 133 351
L 135 351
L 136 351
L 138 351
L 139 351
L 141 351
L 142 349
L 144 349
L 145 351
L 147 351
L 148 351
L 150 351
L 152 351
L 153 351
L 155 351
L 156 351
L 158 351
L 159 351
L 161 351
L 162 351
L 164 351
L 166 351
L 167 351
L 169 351
L 170 351
L 172 351
L 173 351
L 175 351
L 176 351
L 178 351
L 179 351
L 181 351
L 183 351
L 184 351
L 186 351
L 187 351
L 189 351
L 190 351
L 192 351
L 193 351
L 195 351
L 197 351
L 198 351
L 200 351
L 201 351
L 203 351
L 204 351
L 206 351
L 207 351
L 209 351
L 210 351
L 212 351
L 214 351
L 215 351
L 217 351
L 218 351
L 220 351
L 221 351
L 223 351
L 224 351
L 226 351
L 227 351
L 229 351
L 231 351
L 232 351
L 234 351
L 235 351
L 237 351
L 238 351
L 240 351
L 241 351
L 243 351
L 245 351
L 246 351
L 248 351
L 249 351
L 251 351
L 252 351
L 254 351
L 255 351
L 257 351
L 258 351
L 260 351
L 262 351
L 263 351
L 265 351
L 266 351
L 268 351
L 269 351
L 271 351
L 272 351
L 274 351
L 276 351
L 277 351
L 279 351
L 280 351
L 282 351
L 283 351
L 285 351
L 286 351
L 288 351
L 289 351
L 291 351
L 293 351
L 294 351
L 296 351
L 297 351
L 299 351
L 300 351
L 302 351
L 303 351
L 305 351
L 306 351
L 308 351
L 310 351
L 311 351
L 313 351
L 314 351
L 316 351
L 317 351
L 319 351
L 320 351
L 322 351
L 324 351
L 325 351
L 327 351
L 328 351
L 330 351
L 331 351
L 333 351
L 334 351
L 336 351
L 337 351
L 339 351
L 341 351
L 342 351
L 344 351
L 345 351
L 347 351
L 348 351
L 350 351
L 351 351
L 353 351
L 355 351
L 356 351
L 358 351
L 359 351
L 361 351
L 362 351
L 364 351
L 365 351
L 367 351
L 368 351
L 370 351
L 372 351
L 373 351
L 375 351
L 376 351
L 378 351
L 379 351
L 381 351
L 382 351
L 384 351
L 385 351
L 387 351
L 389 351
L 390 351
L 392 351
L 393 351
L 395 351
L 396 351
L 398 351
L 399 351
L 401 351
L 403 351
L 404 351
L 406 351
L 407 349
L 409 351
L 410 351
L 412 349
L 413 349
L 415 349
L 416 349
L 418 351
L 420 351
L 421 351
L 423 349
L 424 351
L 426 351
L 427 351
L 429 351
L 430 351
L 432 351
L 434 349
L 435 351
L 437 349
L 438 351
L 440 351
L 441 349
L 443 351
L 444 351
L 446 351
L 447 351
L 449 349
L 451 351
L 452 351
L 454 349
L 455 349
L 457 351
L 458 349
L 460 351
L 461 351
L 463 351
L 464 347
L 466 351
L 468 351
L 469 351
L 471 351
L 472 349
L 474 351
L 475 351
L 477 351
L 478 351
L 480 351
L 482 351
L 483 351
L 485 351
L 486 351
L 488 349
L 489 351
L 491 349
L 492 351
L 494 349
L 495 351
L 497 351
L 499 351
L 500 351
L 502 351
L 503 351
L 505 351
L 506 351
L 508 351
L 509 351
L 511 351
L 513 351
L 514 351
L 516 351
L 517 351
L 519 351
L 520 351
L 522 351
L 523 351
L 525 351
L 526 351
L 528 351
L 530 351
L 531 351
L 533 351
L 534 351
L 536 351
L 537 349
L 539 351
L 540 351
L 542 349
L 544 351
L 545 351
L 547 349
L 548 351
L 550 351
L 551 351
L 553 351
L 554 351
L 556 351
L 557 351
L 559 351
L 561 351
L 562 351
L 564 351
L 565 349
L 567 351
L 568 351
L 570 351
L 571 351
L 573 351
L 574 351
L 576 351
L 578 351
L 579 351
L 581 351
L 582 351
L 584 351
L 585 351
L 587 351
L 588 351
L 590 351
L 592 349
L 593 351
L 595 351
L 596 351
L 598 351
L 599 351
L 601 351
L 602 351
L 604 351
L 605 351
L 607 351
L 609 349
L 610 351
L 612 351
L 613 351
L 615 351
L 616 351
L 618 351
L 619 351
L 621 349
L 623 351
L 624 351
L 626 351
L 627 351
L 629 351
L 630 351
L 632 351
L 633 351
L 635 351
L 636 351
L 638 351
L 640 351
L 641 351
L 643 351
L 644 351
L 646 351
L 647 351
L 649 351
L 650 351
L 652 351
L 653 351
L 655 351
L 657 351
L 658 351
L 660 351
L 661 351
L 663 351
L 664 351
L 666 351
L 667 351
L 669 351
L 671 351
L 672 351
L 674 351
L 675 351
L 677 351
L 678 351
L 680 351
L 681 351
L 683 351
L 684 351
L 686 351
L 688 351
L 689 351
L 691 351
L 692 351
L 694 351
L 695 351
L 697 351
L 698 351
L 700 351
L 702 351
L 703 351
L 705 351
L 706 351
L 708 351
L 709 351
L 711 351
L 712 351
L 714 351
L 715 351
L 717 351
L 719 351
L 720 351
L 722 351
L 723 351
L 725 351
L 726 351
L 728 351
L 729 351
L 731 351
L 732 351
L 734 351
L 736 351
L 737 351
L 739 351
L 740 351
L 742 351
L 743 351
L 745 351
L 746 351
L 748 351
L 750 351
L 751 351
L 753 351
L 754 351
L 756 351
L 757 351
L 759 351
L 760 351
L 762 351
L 763 351
L 765 351
L 767 351
L 768 351
L 770 351
L 771 351
L 773 351
L 774 351
L 776 351
L 777 351
L 779 351
L 781 351
L 782 351
L 784 351
L 785 351
L 787 351
L 788 351
L 790 351
L 791 351
L 793 351
L 794 351
L 796 351
L 798 351
L 799 351
L 801 351
L 802 351
L 804 351
L 805 351
L 807 351
L 808 351
L 810 351
L 811 351
L 813 351
L 815 351
L 816 351
L 818 351
L 819 351
L 821 351
L 822 351
L 824 351
L 825 351
L 827 351
L 829 351
L 830 351
L 832 351
L 833 351
L 835 351
L 836 351
L 838 351
L 839 351
L 841 351
L 842 351
L 844 351
L 846 351
L 847 351
L 849 351
L 850 351
L 852 351
L 853 351
L 855 351
L 856 351
L 858 351
L 860 351
L 861 351
L 863 351
L 864 351
L 866 351
L 867 351
L 869 351
L 870 351
L 872 351
L 873 351
L 875 351
L 877 351
L 878 351
L 880 351
L 881 351
L 883 351
L 884 351
L 886 351
L 887 351
L 889 351
L 890 351
L 892 351
L 894 351
L 895 351
L 897 351
L 898 351
L 900 351
L 901 351
L 903 351
L 904 351
L 906 351
L 908 351
L 909 351
L 911 351
L 912 351
L 914 351
L 915 351
L 917 351
L 918 351
L 920 351
L 921 351
L 923 351
L 925 351
L 926 351
L 928 351
L 929 351
L 931 351
L 932 351
L 934 351
L 935 351
L 937 351
L 939 351
L 940 351
L 942 351
L 943 351
L 945 351
L 946 351
L 948 351
L 949 351
L 951 351
L 952 351
L 954 351
L 956 351
L 957 351
L 959 351
L 960 351
L 962 351
L 963 351
L 965 351
L 966 351
L 968 351
L 969 351" style="stroke-width:1;stroke:rgba(217,0,116,1.0);fill:none"/><text x="393" y="33" style="stroke-width:0;stroke:none;fill:rgba(51,51,51,1.0);font-size:23.0px;font-family:'Roboto Medium',sans-serif">Mistelbach 19.10.2021</text><path  d="M 38 11
L 251 11
L 251 91
L 38 91
L 38 11" style="stroke-width:1;stroke:rgba(51,51,51,1.0);fill:rgba(255,255,255,1.0)"/><text x="43" y="26" style="stroke-width:0;stroke:none;fill:rgba(51,51,51,1.0);font-size:10.2px;font-family:'Roboto Medium',sans-serif">Sieben Tage Durschnitt Inzidenz Fälle</text><path  d="M 221 21
L 241 21" style="stroke-width:1;stroke:rgba(0,116,217,1.0);fill:none"/><text x="43" y="56" style="stroke-width:0;stroke:none;fill:rgba(51,51,51,1.0);font-size:10.2px;font-family:'Roboto Medium',sans-serif">Anzahl Faelle</text><path  d="M 110 51
L 241 51" style="stroke-width:1;stroke:rgba(0,217,101,1.0);fill:none"/><text x="43" y="86" style="stroke-width:0;stroke:none;fill:rgba(51,51,51,1.0);font-size:10.2px;font-family:'Roboto Medium',sans-serif">Anzahl Tot</text><path  d="M 98 81
L 241 81" style="stroke-width:1;stroke:rgba(217,0,116,1.0);fill:none"/></svg>