<svg xmlns="http://www.w3.org/2000/svg" xmlns:xlink="http://www.w3.org/1999/xlink" width="1024" height="400">\n<path  d="M 0 0
L 1024 0
L 1024 400
L 0 400
L 0 0" style="stroke-width:0;stroke:rgba(255,255,255,1.0);fill:rgba(255,255,255,1.0)"/><path  d="M 38 11
L 969 11
L 969 351
L 38 351
L 38 11" style="stroke-width:0;stroke:rgba(255,255,255,1.0);fill:rgba(255,255,255,1.0)"/><path  d="M 38 351
L 969 351" style="stroke-width:1;stroke:rgba(51,51,51,1.0);fill:none"/><path  d="M 38 351
L 38 356" style="stroke-width:1;stroke:rgba(51,51,51,1.0);fill:none"/><text x="5" y="373" style="stroke-width:0;stroke:none;fill:rgba(51,51,51,1.0);font-size:12.8px;font-family:'Roboto Medium',sans-serif">2020-02-26</text><path  d="M 155 351
L 155 356" style="stroke-width:1;stroke:rgba(51,51,51,1.0);fill:none"/><text x="122" y="373" style="stroke-width:0;stroke:none;fill:rgba(51,51,51,1.0);font-size:12.8px;font-family:'Roboto Medium',sans-serif">2020-04-30</text><path  d="M 271 351
L 271 356" style="stroke-width:1;stroke:rgba(51,51,51,1.0);fill:none"/><text x="238" y="373" style="stroke-width:0;stroke:none;fill:rgba(51,51,51,1.0);font-size:12.8px;font-family:'Roboto Medium',sans-serif">2020-07-03</text><path  d="M 388 351
L 388 356" style="stroke-width:1;stroke:rgba(51,51,51,1.0);fill:none"/><text x="355" y="373" style="stroke-width:0;stroke:none;fill:rgba(51,51,51,1.0);font-size:12.8px;font-family:'Roboto Medium',sans-serif">2020-09-05</text><path  d="M 504 351
L 504 356" style="stroke-width:1;stroke:rgba(51,51,51,1.0);fill:none"/><text x="471" y="373" style="stroke-width:0;stroke:none;fill:rgba(51,51,51,1.0);font-size:12.8px;font-family:'Roboto Medium',sans-serif">2020-11-08</text><path  d="M 620 351
L 620 356" style="stroke-width:1;stroke:rgba(51,51,51,1.0);fill:none"/><text x="587" y="373" style="stroke-width:0;stroke:none;fill:rgba(51,51,51,1.0);font-size:12.8px;font-family:'Roboto Medium',sans-serif">2021-01-11</text><path  d="M 737 351
L 737 356" style="stroke-width:1;stroke:rgba(51,51,51,1.0);fill:none"/><text x="704" y="373" style="stroke-width:0;stroke:none;fill:rgba(51,51,51,1.0);font-size:12.8px;font-family:'Roboto Medium',sans-serif">2021-03-16</text><path  d="M 853 351
L 853 356" style="stroke-width:1;stroke:rgba(51,51,51,1.0);fill:none"/><text x="820" y="373" style="stroke-width:0;stroke:none;fill:rgba(51,51,51,1.0);font-size:12.8px;font-family:'Roboto Medium',sans-serif">2021-05-19</text><path  d="M 969 351
L 969 356" style="stroke-width:1;stroke:rgba(51,51,51,1.0);fill:none"/><text x="936" y="373" style="stroke-width:0;stroke:none;fill:rgba(51,51,51,1.0);font-size:12.8px;font-family:'Roboto Medium',sans-serif">2021-07-23</text><text x="485" y="395" style="stroke-width:0;stroke:none;fill:rgba(51,51,51,1.0);font-size:12.8px;font-family:'Roboto Medium',sans-serif">Datum</text><path  d="M 970 351
L 970 11" style="stroke-width:1;stroke:rgba(51,51,51,1.0);fill:none"/><path  d="M 970 351
L 975 351" style="stroke-width:1;stroke:rgba(51,51,51,1.0);fill:none"/><text x="980" y="357" style="stroke-width:0;stroke:none;fill:rgba(51,51,51,1.0);font-size:12.8px;font-family:'Roboto Medium',sans-serif">0.00</text><path  d="M 970 308
L 975 308" style="stroke-width:1;stroke:rgba(51,51,51,1.0);fill:none"/><text x="980" y="314" style="stroke-width:0;stroke:none;fill:rgba(51,51,51,1.0);font-size:12.8px;font-family:'Roboto Medium',sans-serif">72.00</text><path  d="M 970 265
L 975 265" style="stroke-width:1;stroke:rgba(51,51,51,1.0);fill:none"/><text x="980" y="271" style="stroke-width:0;stroke:none;fill:rgba(51,51,51,1.0);font-size:12.8px;font-family:'Roboto Medium',sans-serif">143.00</text><path  d="M 970 223
L 975 223" style="stroke-width:1;stroke:rgba(51,51,51,1.0);fill:none"/><text x="980" y="229" style="stroke-width:0;stroke:none;fill:rgba(51,51,51,1.0);font-size:12.8px;font-family:'Roboto Medium',sans-serif">214.00</text><path  d="M 970 181
L 975 181" style="stroke-width:1;stroke:rgba(51,51,51,1.0);fill:none"/><text x="980" y="187" style="stroke-width:0;stroke:none;fill:rgba(51,51,51,1.0);font-size:12.8px;font-family:'Roboto Medium',sans-serif">285.00</text><path  d="M 970 138
L 975 138" style="stroke-width:1;stroke:rgba(51,51,51,1.0);fill:none"/><text x="980" y="144" style="stroke-width:0;stroke:none;fill:rgba(51,51,51,1.0);font-size:12.8px;font-family:'Roboto Medium',sans-serif">357.00</text><path  d="M 970 95
L 975 95" style="stroke-width:1;stroke:rgba(51,51,51,1.0);fill:none"/><text x="980" y="101" style="stroke-width:0;stroke:none;fill:rgba(51,51,51,1.0);font-size:12.8px;font-family:'Roboto Medium',sans-serif">428.00</text><path  d="M 970 53
L 975 53" style="stroke-width:1;stroke:rgba(51,51,51,1.0);fill:none"/><text x="980" y="59" style="stroke-width:0;stroke:none;fill:rgba(51,51,51,1.0);font-size:12.8px;font-family:'Roboto Medium',sans-serif">499.00</text><path  d="M 970 11
L 975 11" style="stroke-width:1;stroke:rgba(51,51,51,1.0);fill:none"/><text x="980" y="17" style="stroke-width:0;stroke:none;fill:rgba(51,51,51,1.0);font-size:12.8px;font-family:'Roboto Medium',sans-serif">570.00</text><path  d="M 38 351
L 40 351
L 42 351
L 44 351
L 46 351
L 48 351
L 49 351
L 51 351
L 53 351
L 55 350
L 57 350
L 58 349
L 60 348
L 62 347
L 64 345
L 66 345
L 68 343
L 69 342
L 71 343
L 73 344
L 75 342
L 77 345
L 78 344
L 80 345
L 82 345
L 84 345
L 86 345
L 87 348
L 89 347
L 91 345
L 93 345
L 95 345
L 97 344
L 98 343
L 100 342
L 102 340
L 104 340
L 106 341
L 107 342
L 109 343
L 111 344
L 113 345
L 115 348
L 117 350
L 118 350
L 120 350
L 122 351
L 124 351
L 126 351
L 127 351
L 129 351
L 131 350
L 133 350
L 135 350
L 136 350
L 138 350
L 140 350
L 142 350
L 144 350
L 146 350
L 147 350
L 149 350
L 151 350
L 153 350
L 155 350
L 156 351
L 158 351
L 160 351
L 162 351
L 164 351
L 166 351
L 167 351
L 169 351
L 171 351
L 173 351
L 175 350
L 176 350
L 178 350
L 180 350
L 182 350
L 184 350
L 185 350
L 187 351
L 189 351
L 191 351
L 193 351
L 195 351
L 196 351
L 198 351
L 200 351
L 202 351
L 204 351
L 205 351
L 207 351
L 209 351
L 211 351
L 213 351
L 215 351
L 216 351
L 218 351
L 220 351
L 222 351
L 224 351
L 225 351
L 227 351
L 229 351
L 231 351
L 233 351
L 234 351
L 236 351
L 238 351
L 240 351
L 242 351
L 244 351
L 245 351
L 247 351
L 249 351
L 251 351
L 253 351
L 254 351
L 256 351
L 258 351
L 260 351
L 262 351
L 264 351
L 265 351
L 267 351
L 269 351
L 271 351
L 273 351
L 274 351
L 276 351
L 278 351
L 280 351
L 282 351
L 283 351
L 285 351
L 287 351
L 289 351
L 291 351
L 293 351
L 294 351
L 296 350
L 298 349
L 300 349
L 302 349
L 303 344
L 305 340
L 307 336
L 309 336
L 311 335
L 313 334
L 314 333
L 316 337
L 318 339
L 320 342
L 322 343
L 323 345
L 325 346
L 327 346
L 329 346
L 331 348
L 332 348
L 334 347
L 336 346
L 338 346
L 340 347
L 342 347
L 343 346
L 345 347
L 347 347
L 349 348
L 351 347
L 352 347
L 354 345
L 356 345
L 358 342
L 360 343
L 362 342
L 363 343
L 365 343
L 367 346
L 369 345
L 371 348
L 372 346
L 374 347
L 376 347
L 378 345
L 380 345
L 381 344
L 383 344
L 385 345
L 387 341
L 389 341
L 391 344
L 392 343
L 394 345
L 396 345
L 398 346
L 400 350
L 401 350
L 403 347
L 405 348
L 407 346
L 409 345
L 411 345
L 412 344
L 414 344
L 416 346
L 418 344
L 420 345
L 421 345
L 423 345
L 425 345
L 427 343
L 429 340
L 430 342
L 432 341
L 434 340
L 436 340
L 438 340
L 440 340
L 441 341
L 443 334
L 445 335
L 447 334
L 449 331
L 450 330
L 452 330
L 454 325
L 456 329
L 458 327
L 460 315
L 461 311
L 463 309
L 465 296
L 467 290
L 469 291
L 470 274
L 472 278
L 474 276
L 476 277
L 478 284
L 479 275
L 481 260
L 483 267
L 485 260
L 487 239
L 489 219
L 490 204
L 492 203
L 494 187
L 496 172
L 498 149
L 499 152
L 501 131
L 503 110
L 505 53
L 507 58
L 509 61
L 510 70
L 512 37
L 514 54
L 516 69
L 518 118
L 519 111
L 521 122
L 523 70
L 525 74
L 527 75
L 528 72
L 530 72
L 532 73
L 534 19
L 536 35
L 538 63
L 539 13
L 541 29
L 543 27
L 545 35
L 547 55
L 548 73
L 550 56
L 552 106
L 554 98
L 556 115
L 558 125
L 559 150
L 561 162
L 563 161
L 565 167
L 567 161
L 568 159
L 570 161
L 572 149
L 574 162
L 576 187
L 577 200
L 579 226
L 581 226
L 583 231
L 585 232
L 587 231
L 588 238
L 590 242
L 592 235
L 594 227
L 596 223
L 597 212
L 599 221
L 601 222
L 603 199
L 605 194
L 607 193
L 608 180
L 610 205
L 612 211
L 614 206
L 616 226
L 617 227
L 619 236
L 621 254
L 623 258
L 625 253
L 626 258
L 628 256
L 630 253
L 632 255
L 634 255
L 636 259
L 637 259
L 639 253
L 641 253
L 643 269
L 645 266
L 646 263
L 648 268
L 650 277
L 652 288
L 654 295
L 656 295
L 657 310
L 659 315
L 661 309
L 663 307
L 665 301
L 666 293
L 668 295
L 670 290
L 672 297
L 674 300
L 675 300
L 677 310
L 679 312
L 681 302
L 683 302
L 685 291
L 686 289
L 688 293
L 690 293
L 692 300
L 694 305
L 695 304
L 697 309
L 699 310
L 701 312
L 703 306
L 705 293
L 706 289
L 708 288
L 710 287
L 712 282
L 714 282
L 715 278
L 717 288
L 719 279
L 721 279
L 723 275
L 724 282
L 726 266
L 728 257
L 730 259
L 732 264
L 734 262
L 735 272
L 737 250
L 739 259
L 741 264
L 743 250
L 744 256
L 746 257
L 748 233
L 750 247
L 752 242
L 754 261
L 755 260
L 757 235
L 759 236
L 761 254
L 763 261
L 764 249
L 766 230
L 768 223
L 770 233
L 772 231
L 773 228
L 775 213
L 777 227
L 779 203
L 781 201
L 783 203
L 784 199
L 786 195
L 788 213
L 790 198
L 792 228
L 793 247
L 795 257
L 797 259
L 799 247
L 801 239
L 803 244
L 804 244
L 806 231
L 808 218
L 810 205
L 812 215
L 813 210
L 815 207
L 817 196
L 819 199
L 821 201
L 822 198
L 824 194
L 826 186
L 828 195
L 830 200
L 832 209
L 833 212
L 835 218
L 837 230
L 839 246
L 841 244
L 842 254
L 844 255
L 846 266
L 848 277
L 850 276
L 852 284
L 853 294
L 855 297
L 857 294
L 859 300
L 861 305
L 862 309
L 864 304
L 866 307
L 868 309
L 870 310
L 871 313
L 873 313
L 875 316
L 877 326
L 879 323
L 881 325
L 882 331
L 884 330
L 886 335
L 888 333
L 890 333
L 891 341
L 893 342
L 895 343
L 897 345
L 899 345
L 901 348
L 902 349
L 904 349
L 906 349
L 908 350
L 910 350
L 911 349
L 913 350
L 915 350
L 917 350
L 919 350
L 920 350
L 922 350
L 924 350
L 926 349
L 928 349
L 930 348
L 931 348
L 933 348
L 935 348
L 937 349
L 939 350
L 940 350
L 942 350
L 944 349
L 946 348
L 948 348
L 950 347
L 951 345
L 953 345
L 955 345
L 957 345
L 959 345
L 960 345
L 962 345
L 964 346
L 966 343
L 968 340
L 969 340" style="stroke-width:1;stroke:rgba(0,116,217,1.0);fill:none"/><path  d="M 38 351
L 40 351
L 42 351
L 44 351
L 46 351
L 48 351
L 49 351
L 51 351
L 53 351
L 55 350
L 57 351
L 58 350
L 60 350
L 62 350
L 64 349
L 66 351
L 68 349
L 69 350
L 71 351
L 73 351
L 75 349
L 77 351
L 78 350
L 80 350
L 82 350
L 84 351
L 86 351
L 87 351
L 89 350
L 91 349
L 93 350
L 95 350
L 97 349
L 98 350
L 100 350
L 102 348
L 104 349
L 106 351
L 107 351
L 109 350
L 111 351
L 113 351
L 115 351
L 117 351
L 118 351
L 120 351
L 122 351
L 124 351
L 126 351
L 127 351
L 129 351
L 131 350
L 133 351
L 135 351
L 136 351
L 138 351
L 140 351
L 142 351
L 144 350
L 146 351
L 147 351
L 149 351
L 151 351
L 153 351
L 155 351
L 156 351
L 158 351
L 160 351
L 162 351
L 164 351
L 166 351
L 167 351
L 169 351
L 171 351
L 173 351
L 175 350
L 176 351
L 178 351
L 180 351
L 182 351
L 184 351
L 185 351
L 187 351
L 189 351
L 191 351
L 193 351
L 195 351
L 196 351
L 198 351
L 200 351
L 202 351
L 204 351
L 205 351
L 207 351
L 209 351
L 211 351
L 213 351
L 215 351
L 216 351
L 218 351
L 220 351
L 222 351
L 224 351
L 225 351
L 227 351
L 229 351
L 231 351
L 233 351
L 234 351
L 236 351
L 238 351
L 240 351
L 242 351
L 244 351
L 245 351
L 247 351
L 249 351
L 251 351
L 253 351
L 254 351
L 256 351
L 258 351
L 260 351
L 262 351
L 264 351
L 265 351
L 267 351
L 269 351
L 271 351
L 273 351
L 274 351
L 276 351
L 278 351
L 280 351
L 282 351
L 283 351
L 285 351
L 287 351
L 289 351
L 291 351
L 293 351
L 294 351
L 296 350
L 298 350
L 300 351
L 302 351
L 303 347
L 305 348
L 307 348
L 309 350
L 311 349
L 313 349
L 314 350
L 316 350
L 318 349
L 320 350
L 322 351
L 323 351
L 325 351
L 327 350
L 329 350
L 331 351
L 332 350
L 334 350
L 336 350
L 338 351
L 340 351
L 342 350
L 343 350
L 345 351
L 347 350
L 349 351
L 351 350
L 352 351
L 354 348
L 356 351
L 358 348
L 360 351
L 362 350
L 363 351
L 365 351
L 367 351
L 369 349
L 371 351
L 372 349
L 374 351
L 376 351
L 378 349
L 380 351
L 381 349
L 383 351
L 385 350
L 387 348
L 389 351
L 391 351
L 392 350
L 394 351
L 396 351
L 398 351
L 400 351
L 401 351
L 403 349
L 405 351
L 407 349
L 409 350
L 411 351
L 412 349
L 414 351
L 416 351
L 418 349
L 420 350
L 421 351
L 423 350
L 425 350
L 427 349
L 429 349
L 430 350
L 432 349
L 434 350
L 436 350
L 438 349
L 440 349
L 441 349
L 443 345
L 445 351
L 447 349
L 449 348
L 450 349
L 452 349
L 454 346
L 456 347
L 458 349
L 460 340
L 461 345
L 463 347
L 465 340
L 467 342
L 469 348
L 470 337
L 472 343
L 474 344
L 476 348
L 478 345
L 479 336
L 481 337
L 483 342
L 485 338
L 487 329
L 489 333
L 490 334
L 492 335
L 494 325
L 496 331
L 498 322
L 499 331
L 501 318
L 503 319
L 505 294
L 507 328
L 509 334
L 510 328
L 512 308
L 514 330
L 516 330
L 518 330
L 519 323
L 521 342
L 523 291
L 525 310
L 527 331
L 528 328
L 530 330
L 532 324
L 534 303
L 536 303
L 538 330
L 539 295
L 541 339
L 543 328
L 545 330
L 547 317
L 548 317
L 550 318
L 552 330
L 554 334
L 556 340
L 558 337
L 559 335
L 561 325
L 563 317
L 565 335
L 567 329
L 568 339
L 570 338
L 572 327
L 574 334
L 576 334
L 577 345
L 579 348
L 581 339
L 583 342
L 585 327
L 587 334
L 588 339
L 590 348
L 592 343
L 594 333
L 596 339
L 597 319
L 599 340
L 601 340
L 603 331
L 605 339
L 607 333
L 608 330
L 610 337
L 612 345
L 614 336
L 616 346
L 617 340
L 619 339
L 621 343
L 623 339
L 625 341
L 626 340
L 628 345
L 630 337
L 632 341
L 634 343
L 636 342
L 637 341
L 639 336
L 641 345
L 643 349
L 645 339
L 646 340
L 648 345
L 650 348
L 652 343
L 654 350
L 656 349
L 657 350
L 659 344
L 661 340
L 663 346
L 665 339
L 666 344
L 668 351
L 670 346
L 672 349
L 674 343
L 675 346
L 677 346
L 679 346
L 681 343
L 683 346
L 685 341
L 686 342
L 688 348
L 690 346
L 692 351
L 694 347
L 695 346
L 697 345
L 699 342
L 701 350
L 703 342
L 705 341
L 706 344
L 708 345
L 710 344
L 712 339
L 714 350
L 715 339
L 717 348
L 719 337
L 721 345
L 723 342
L 724 343
L 726 339
L 728 333
L 730 349
L 732 341
L 734 344
L 735 349
L 737 328
L 739 345
L 741 337
L 743 339
L 744 345
L 746 345
L 748 331
L 750 338
L 752 341
L 754 351
L 755 339
L 757 327
L 759 345
L 761 345
L 763 343
L 764 332
L 766 337
L 768 333
L 770 334
L 772 344
L 773 343
L 775 331
L 777 342
L 779 321
L 781 331
L 783 336
L 784 341
L 786 340
L 788 344
L 790 332
L 792 342
L 793 345
L 795 343
L 797 342
L 799 331
L 801 339
L 803 335
L 804 342
L 806 336
L 808 334
L 810 333
L 812 339
L 813 335
L 815 333
L 817 334
L 819 338
L 821 335
L 822 331
L 824 336
L 826 329
L 828 339
L 830 338
L 832 345
L 833 337
L 835 336
L 837 345
L 839 340
L 841 338
L 842 345
L 844 346
L 846 345
L 848 343
L 850 344
L 852 346
L 853 345
L 855 347
L 857 344
L 859 348
L 861 347
L 862 347
L 864 343
L 866 347
L 868 348
L 870 345
L 871 350
L 873 347
L 875 349
L 877 350
L 879 345
L 881 350
L 882 349
L 884 349
L 886 350
L 888 348
L 890 350
L 891 351
L 893 351
L 895 350
L 897 351
L 899 351
L 901 350
L 902 351
L 904 351
L 906 351
L 908 351
L 910 351
L 911 350
L 913 351
L 915 351
L 917 351
L 919 351
L 920 351
L 922 351
L 924 350
L 926 350
L 928 351
L 930 350
L 931 351
L 933 351
L 935 351
L 937 351
L 939 351
L 940 351
L 942 350
L 944 350
L 946 350
L 948 351
L 950 350
L 951 349
L 953 350
L 955 351
L 957 350
L 959 350
L 960 350
L 962 350
L 964 351
L 966 348
L 968 349
L 969 349" style="stroke-width:1;stroke:rgba(0,217,101,1.0);fill:none"/><path  d="M 38 351
L 40 351
L 42 351
L 44 351
L 46 351
L 48 351
L 49 351
L 51 351
L 53 351
L 55 351
L 57 351
L 58 351
L 60 351
L 62 351
L 64 351
L 66 351
L 68 351
L 69 351
L 71 351
L 73 351
L 75 351
L 77 350
L 78 351
L 80 351
L 82 351
L 84 351
L 86 351
L 87 351
L 89 351
L 91 351
L 93 351
L 95 351
L 97 351
L 98 351
L 100 351
L 102 351
L 104 351
L 106 351
L 107 351
L 109 351
L 111 351
L 113 351
L 115 351
L 117 351
L 118 351
L 120 351
L 122 351
L 124 351
L 126 351
L 127 351
L 129 351
L 131 351
L 133 351
L 135 351
L 136 351
L 138 351
L 140 351
L 142 351
L 144 351
L 146 351
L 147 351
L 149 351
L 151 351
L 153 351
L 155 351
L 156 351
L 158 351
L 160 351
L 162 351
L 164 351
L 166 351
L 167 351
L 169 351
L 171 351
L 173 351
L 175 351
L 176 351
L 178 351
L 180 351
L 182 351
L 184 351
L 185 351
L 187 351
L 189 351
L 191 351
L 193 351
L 195 351
L 196 351
L 198 351
L 200 351
L 202 351
L 204 351
L 205 351
L 207 351
L 209 351
L 211 351
L 213 351
L 215 351
L 216 351
L 218 351
L 220 351
L 222 351
L 224 351
L 225 351
L 227 351
L 229 351
L 231 351
L 233 351
L 234 351
L 236 351
L 238 351
L 240 351
L 242 351
L 244 351
L 245 351
L 247 351
L 249 351
L 251 351
L 253 351
L 254 351
L 256 351
L 258 351
L 260 351
L 262 351
L 264 351
L 265 351
L 267 351
L 269 351
L 271 351
L 273 351
L 274 351
L 276 351
L 278 351
L 280 351
L 282 351
L 283 351
L 285 351
L 287 351
L 289 351
L 291 351
L 293 351
L 294 351
L 296 351
L 298 351
L 300 351
L 302 351
L 303 351
L 305 351
L 307 351
L 309 351
L 311 351
L 313 351
L 314 351
L 316 351
L 318 351
L 320 351
L 322 351
L 323 351
L 325 351
L 327 351
L 329 351
L 331 351
L 332 351
L 334 351
L 336 351
L 338 351
L 340 351
L 342 351
L 343 351
L 345 351
L 347 351
L 349 351
L 351 351
L 352 351
L 354 351
L 356 351
L 358 351
L 360 351
L 362 351
L 363 351
L 365 351
L 367 351
L 369 351
L 371 351
L 372 351
L 374 351
L 376 351
L 378 351
L 380 351
L 381 351
L 383 351
L 385 351
L 387 351
L 389 351
L 391 351
L 392 351
L 394 351
L 396 351
L 398 351
L 400 351
L 401 351
L 403 351
L 405 351
L 407 351
L 409 351
L 411 351
L 412 351
L 414 351
L 416 351
L 418 351
L 420 351
L 421 351
L 423 351
L 425 351
L 427 351
L 429 351
L 430 351
L 432 351
L 434 351
L 436 351
L 438 351
L 440 351
L 441 351
L 443 351
L 445 351
L 447 351
L 449 351
L 450 351
L 452 350
L 454 351
L 456 351
L 458 351
L 460 351
L 461 351
L 463 351
L 465 351
L 467 351
L 469 351
L 470 351
L 472 351
L 474 351
L 476 351
L 478 351
L 479 350
L 481 351
L 483 350
L 485 351
L 487 351
L 489 351
L 490 351
L 492 351
L 494 351
L 496 350
L 498 350
L 499 351
L 501 350
L 503 351
L 505 351
L 507 350
L 509 351
L 510 351
L 512 350
L 514 350
L 516 350
L 518 350
L 519 349
L 521 349
L 523 349
L 525 350
L 527 349
L 528 351
L 530 350
L 532 349
L 534 349
L 536 348
L 538 349
L 539 348
L 541 350
L 543 349
L 545 349
L 547 350
L 548 347
L 550 349
L 552 349
L 554 348
L 556 350
L 558 349
L 559 347
L 561 349
L 563 347
L 565 349
L 567 349
L 568 349
L 570 349
L 572 350
L 574 350
L 576 349
L 577 351
L 579 348
L 581 350
L 583 349
L 585 350
L 587 348
L 588 349
L 590 349
L 592 351
L 594 350
L 596 350
L 597 349
L 599 349
L 601 351
L 603 351
L 605 350
L 607 350
L 608 351
L 610 350
L 612 350
L 614 351
L 616 350
L 617 351
L 619 350
L 621 349
L 623 349
L 625 351
L 626 350
L 628 350
L 630 351
L 632 351
L 634 350
L 636 351
L 637 350
L 639 351
L 641 351
L 643 350
L 645 350
L 646 350
L 648 350
L 650 349
L 652 350
L 654 349
L 656 351
L 657 351
L 659 350
L 661 351
L 663 351
L 665 351
L 666 350
L 668 350
L 670 350
L 672 351
L 674 351
L 675 351
L 677 351
L 679 350
L 681 351
L 683 350
L 685 351
L 686 351
L 688 350
L 690 351
L 692 351
L 694 351
L 695 351
L 697 351
L 699 351
L 701 351
L 703 350
L 705 351
L 706 351
L 708 351
L 710 350
L 712 351
L 714 350
L 715 351
L 717 351
L 719 351
L 721 351
L 723 351
L 724 350
L 726 351
L 728 351
L 730 351
L 732 350
L 734 351
L 735 351
L 737 351
L 739 351
L 741 349
L 743 351
L 744 351
L 746 351
L 748 351
L 750 351
L 752 350
L 754 350
L 755 351
L 757 351
L 759 351
L 761 351
L 763 351
L 764 351
L 766 351
L 768 351
L 770 351
L 772 351
L 773 350
L 775 349
L 777 351
L 779 350
L 781 351
L 783 351
L 784 351
L 786 351
L 788 351
L 790 349
L 792 351
L 793 351
L 795 351
L 797 351
L 799 349
L 801 351
L 803 351
L 804 351
L 806 351
L 808 351
L 810 351
L 812 351
L 813 350
L 815 351
L 817 351
L 819 351
L 821 351
L 822 350
L 824 350
L 826 351
L 828 351
L 830 351
L 832 351
L 833 351
L 835 351
L 837 351
L 839 351
L 841 351
L 842 351
L 844 351
L 846 351
L 848 351
L 850 350
L 852 351
L 853 351
L 855 351
L 857 351
L 859 351
L 861 351
L 862 350
L 864 351
L 866 351
L 868 351
L 870 351
L 871 350
L 873 351
L 875 350
L 877 351
L 879 351
L 881 351
L 882 351
L 884 349
L 886 351
L 888 351
L 890 351
L 891 351
L 893 351
L 895 351
L 897 350
L 899 351
L 901 351
L 902 351
L 904 351
L 906 351
L 908 351
L 910 351
L 911 351
L 913 351
L 915 351
L 917 351
L 919 351
L 920 351
L 922 351
L 924 351
L 926 351
L 928 351
L 930 351
L 931 351
L 933 351
L 935 351
L 937 351
L 939 351
L 940 351
L 942 351
L 944 351
L 946 351
L 948 351
L 950 351
L 951 351
L 953 351
L 955 351
L 957 351
L 959 351
L 960 351
L 962 351
L 964 351
L 966 351
L 968 351
L 969 351" style="stroke-width:1;stroke:rgba(217,0,116,1.0);fill:none"/><text x="417" y="33" style="stroke-width:0;stroke:none;fill:rgba(51,51,51,1.0);font-size:23.0px;font-family:'Roboto Medium',sans-serif">Murtal 23.07.2021</text><path  d="M 38 11
L 251 11
L 251 91
L 38 91
L 38 11" style="stroke-width:1;stroke:rgba(51,51,51,1.0);fill:rgba(255,255,255,1.0)"/><text x="43" y="26" style="stroke-width:0;stroke:none;fill:rgba(51,51,51,1.0);font-size:10.2px;font-family:'Roboto Medium',sans-serif">Sieben Tage Durschnitt Inzidenz Fälle</text><path  d="M 221 21
L 241 21" style="stroke-width:1;stroke:rgba(0,116,217,1.0);fill:none"/><text x="43" y="56" style="stroke-width:0;stroke:none;fill:rgba(51,51,51,1.0);font-size:10.2px;font-family:'Roboto Medium',sans-serif">Anzahl Faelle</text><path  d="M 110 51
L 241 51" style="stroke-width:1;stroke:rgba(0,217,101,1.0);fill:none"/><text x="43" y="86" style="stroke-width:0;stroke:none;fill:rgba(51,51,51,1.0);font-size:10.2px;font-family:'Roboto Medium',sans-serif">Anzahl Tot</text><path  d="M 98 81
L 241 81" style="stroke-width:1;stroke:rgba(217,0,116,1.0);fill:none"/></svg>