<svg xmlns="http://www.w3.org/2000/svg" xmlns:xlink="http://www.w3.org/1999/xlink" width="1024" height="400">\n<path  d="M 0 0
L 1024 0
L 1024 400
L 0 400
L 0 0" style="stroke-width:0;stroke:rgba(255,255,255,1.0);fill:rgba(255,255,255,1.0)"/><path  d="M 38 11
L 961 11
L 961 351
L 38 351
L 38 11" style="stroke-width:0;stroke:rgba(255,255,255,1.0);fill:rgba(255,255,255,1.0)"/><path  d="M 38 351
L 961 351" style="stroke-width:1;stroke:rgba(51,51,51,1.0);fill:none"/><path  d="M 38 351
L 38 356" style="stroke-width:1;stroke:rgba(51,51,51,1.0);fill:none"/><text x="5" y="373" style="stroke-width:0;stroke:none;fill:rgba(51,51,51,1.0);font-size:12.8px;font-family:'Roboto Medium',sans-serif">2020-02-26</text><path  d="M 154 351
L 154 356" style="stroke-width:1;stroke:rgba(51,51,51,1.0);fill:none"/><text x="121" y="373" style="stroke-width:0;stroke:none;fill:rgba(51,51,51,1.0);font-size:12.8px;font-family:'Roboto Medium',sans-serif">2020-06-11</text><path  d="M 269 351
L 269 356" style="stroke-width:1;stroke:rgba(51,51,51,1.0);fill:none"/><text x="236" y="373" style="stroke-width:0;stroke:none;fill:rgba(51,51,51,1.0);font-size:12.8px;font-family:'Roboto Medium',sans-serif">2020-09-26</text><path  d="M 385 351
L 385 356" style="stroke-width:1;stroke:rgba(51,51,51,1.0);fill:none"/><text x="352" y="373" style="stroke-width:0;stroke:none;fill:rgba(51,51,51,1.0);font-size:12.8px;font-family:'Roboto Medium',sans-serif">2021-01-10</text><path  d="M 500 351
L 500 356" style="stroke-width:1;stroke:rgba(51,51,51,1.0);fill:none"/><text x="467" y="373" style="stroke-width:0;stroke:none;fill:rgba(51,51,51,1.0);font-size:12.8px;font-family:'Roboto Medium',sans-serif">2021-04-27</text><path  d="M 615 351
L 615 356" style="stroke-width:1;stroke:rgba(51,51,51,1.0);fill:none"/><text x="582" y="373" style="stroke-width:0;stroke:none;fill:rgba(51,51,51,1.0);font-size:12.8px;font-family:'Roboto Medium',sans-serif">2021-08-12</text><path  d="M 731 351
L 731 356" style="stroke-width:1;stroke:rgba(51,51,51,1.0);fill:none"/><text x="698" y="373" style="stroke-width:0;stroke:none;fill:rgba(51,51,51,1.0);font-size:12.8px;font-family:'Roboto Medium',sans-serif">2021-11-26</text><path  d="M 846 351
L 846 356" style="stroke-width:1;stroke:rgba(51,51,51,1.0);fill:none"/><text x="813" y="373" style="stroke-width:0;stroke:none;fill:rgba(51,51,51,1.0);font-size:12.8px;font-family:'Roboto Medium',sans-serif">2022-03-13</text><path  d="M 961 351
L 961 356" style="stroke-width:1;stroke:rgba(51,51,51,1.0);fill:none"/><text x="928" y="373" style="stroke-width:0;stroke:none;fill:rgba(51,51,51,1.0);font-size:12.8px;font-family:'Roboto Medium',sans-serif">2022-06-28</text><text x="481" y="395" style="stroke-width:0;stroke:none;fill:rgba(51,51,51,1.0);font-size:12.8px;font-family:'Roboto Medium',sans-serif">Datum</text><path  d="M 962 351
L 962 11" style="stroke-width:1;stroke:rgba(51,51,51,1.0);fill:none"/><path  d="M 962 351
L 967 351" style="stroke-width:1;stroke:rgba(51,51,51,1.0);fill:none"/><text x="972" y="357" style="stroke-width:0;stroke:none;fill:rgba(51,51,51,1.0);font-size:12.8px;font-family:'Roboto Medium',sans-serif">0.00</text><path  d="M 962 308
L 967 308" style="stroke-width:1;stroke:rgba(51,51,51,1.0);fill:none"/><text x="972" y="314" style="stroke-width:0;stroke:none;fill:rgba(51,51,51,1.0);font-size:12.8px;font-family:'Roboto Medium',sans-serif">430.00</text><path  d="M 962 266
L 967 266" style="stroke-width:1;stroke:rgba(51,51,51,1.0);fill:none"/><text x="972" y="272" style="stroke-width:0;stroke:none;fill:rgba(51,51,51,1.0);font-size:12.8px;font-family:'Roboto Medium',sans-serif">850.00</text><path  d="M 962 223
L 967 223" style="stroke-width:1;stroke:rgba(51,51,51,1.0);fill:none"/><text x="972" y="229" style="stroke-width:0;stroke:none;fill:rgba(51,51,51,1.0);font-size:12.8px;font-family:'Roboto Medium',sans-serif">1280.00</text><path  d="M 962 181
L 967 181" style="stroke-width:1;stroke:rgba(51,51,51,1.0);fill:none"/><text x="972" y="187" style="stroke-width:0;stroke:none;fill:rgba(51,51,51,1.0);font-size:12.8px;font-family:'Roboto Medium',sans-serif">1700.00</text><path  d="M 962 138
L 967 138" style="stroke-width:1;stroke:rgba(51,51,51,1.0);fill:none"/><text x="972" y="144" style="stroke-width:0;stroke:none;fill:rgba(51,51,51,1.0);font-size:12.8px;font-family:'Roboto Medium',sans-serif">2130.00</text><path  d="M 962 96
L 967 96" style="stroke-width:1;stroke:rgba(51,51,51,1.0);fill:none"/><text x="972" y="102" style="stroke-width:0;stroke:none;fill:rgba(51,51,51,1.0);font-size:12.8px;font-family:'Roboto Medium',sans-serif">2550.00</text><path  d="M 962 53
L 967 53" style="stroke-width:1;stroke:rgba(51,51,51,1.0);fill:none"/><text x="972" y="59" style="stroke-width:0;stroke:none;fill:rgba(51,51,51,1.0);font-size:12.8px;font-family:'Roboto Medium',sans-serif">2980.00</text><path  d="M 962 11
L 967 11" style="stroke-width:1;stroke:rgba(51,51,51,1.0);fill:none"/><text x="972" y="17" style="stroke-width:0;stroke:none;fill:rgba(51,51,51,1.0);font-size:12.8px;font-family:'Roboto Medium',sans-serif">3400.00</text><path  d="M 38 351
L 40 351
L 41 351
L 42 351
L 43 351
L 44 351
L 45 351
L 46 351
L 47 351
L 48 350
L 49 350
L 50 350
L 51 350
L 53 350
L 54 350
L 55 350
L 56 349
L 57 349
L 58 349
L 59 349
L 60 349
L 61 350
L 62 349
L 63 350
L 64 350
L 66 350
L 67 350
L 68 350
L 69 350
L 70 350
L 71 350
L 72 350
L 73 349
L 74 349
L 75 349
L 76 349
L 77 349
L 79 349
L 80 349
L 81 349
L 82 349
L 83 350
L 84 350
L 85 350
L 86 350
L 87 350
L 88 351
L 89 351
L 90 351
L 92 351
L 93 351
L 94 350
L 95 350
L 96 350
L 97 350
L 98 350
L 99 350
L 100 350
L 101 350
L 102 350
L 103 350
L 105 350
L 106 350
L 107 350
L 108 350
L 109 351
L 110 351
L 111 351
L 112 351
L 113 351
L 114 351
L 115 351
L 116 351
L 117 351
L 119 351
L 120 350
L 121 350
L 122 350
L 123 350
L 124 350
L 125 350
L 126 350
L 127 351
L 128 351
L 129 351
L 130 351
L 132 351
L 133 351
L 134 351
L 135 351
L 136 351
L 137 351
L 138 351
L 139 351
L 140 351
L 141 351
L 142 351
L 143 351
L 145 351
L 146 351
L 147 351
L 148 351
L 149 351
L 150 351
L 151 351
L 152 351
L 153 351
L 154 351
L 155 351
L 156 351
L 158 351
L 159 351
L 160 351
L 161 351
L 162 351
L 163 351
L 164 351
L 165 351
L 166 351
L 167 351
L 168 351
L 169 351
L 171 351
L 172 351
L 173 351
L 174 351
L 175 351
L 176 351
L 177 351
L 178 351
L 179 351
L 180 351
L 181 351
L 182 351
L 183 351
L 185 351
L 186 351
L 187 351
L 188 351
L 189 351
L 190 351
L 191 351
L 192 350
L 193 350
L 194 350
L 195 350
L 196 349
L 198 349
L 199 348
L 200 348
L 201 348
L 202 348
L 203 348
L 204 348
L 205 349
L 206 349
L 207 349
L 208 350
L 209 350
L 211 350
L 212 350
L 213 350
L 214 350
L 215 350
L 216 350
L 217 350
L 218 350
L 219 350
L 220 350
L 221 350
L 222 350
L 224 350
L 225 350
L 226 350
L 227 350
L 228 350
L 229 349
L 230 349
L 231 349
L 232 349
L 233 349
L 234 350
L 235 350
L 237 350
L 238 350
L 239 350
L 240 350
L 241 350
L 242 350
L 243 349
L 244 349
L 245 350
L 246 349
L 247 349
L 248 349
L 250 349
L 251 350
L 252 350
L 253 350
L 254 350
L 255 350
L 256 350
L 257 350
L 258 350
L 259 350
L 260 350
L 261 349
L 262 349
L 264 350
L 265 349
L 266 350
L 267 350
L 268 350
L 269 350
L 270 349
L 271 349
L 272 349
L 273 349
L 274 349
L 275 349
L 277 349
L 278 349
L 279 349
L 280 348
L 281 348
L 282 348
L 283 347
L 284 347
L 285 347
L 286 346
L 287 347
L 288 347
L 290 345
L 291 344
L 292 343
L 293 341
L 294 340
L 295 340
L 296 337
L 297 338
L 298 338
L 299 338
L 300 339
L 301 338
L 303 335
L 304 336
L 305 335
L 306 332
L 307 328
L 308 326
L 309 326
L 310 323
L 311 320
L 312 317
L 313 317
L 314 314
L 316 310
L 317 300
L 318 301
L 319 302
L 320 303
L 321 298
L 322 300
L 323 303
L 324 311
L 325 310
L 326 312
L 327 304
L 328 304
L 330 305
L 331 304
L 332 304
L 333 304
L 334 295
L 335 298
L 336 302
L 337 294
L 338 297
L 339 296
L 340 298
L 341 301
L 343 304
L 344 301
L 345 309
L 346 308
L 347 311
L 348 312
L 349 316
L 350 319
L 351 319
L 352 320
L 353 319
L 354 318
L 356 319
L 357 317
L 358 319
L 359 323
L 360 325
L 361 329
L 362 329
L 363 330
L 364 330
L 365 330
L 366 331
L 367 332
L 369 331
L 370 330
L 371 329
L 372 327
L 373 329
L 374 329
L 375 325
L 376 324
L 377 324
L 378 322
L 379 326
L 380 327
L 382 326
L 383 329
L 384 330
L 385 331
L 386 334
L 387 335
L 388 334
L 389 335
L 390 335
L 391 334
L 392 335
L 393 335
L 394 335
L 396 335
L 397 334
L 398 334
L 399 337
L 400 336
L 401 336
L 402 337
L 403 338
L 404 340
L 405 341
L 406 341
L 407 343
L 409 344
L 410 343
L 411 343
L 412 342
L 413 341
L 414 341
L 415 340
L 416 341
L 417 342
L 418 342
L 419 344
L 420 344
L 422 342
L 423 342
L 424 341
L 425 340
L 426 341
L 427 341
L 428 342
L 429 343
L 430 343
L 431 343
L 432 344
L 433 344
L 435 343
L 436 341
L 437 340
L 438 340
L 439 340
L 440 339
L 441 339
L 442 339
L 443 340
L 444 339
L 445 339
L 446 338
L 448 339
L 449 336
L 450 335
L 451 335
L 452 336
L 453 336
L 454 337
L 455 334
L 456 335
L 457 336
L 458 334
L 459 335
L 461 335
L 462 331
L 463 333
L 464 332
L 465 336
L 466 336
L 467 331
L 468 332
L 469 335
L 470 336
L 471 334
L 472 330
L 473 329
L 475 331
L 476 330
L 477 330
L 478 327
L 479 330
L 480 326
L 481 325
L 482 326
L 483 325
L 484 324
L 485 327
L 486 325
L 488 330
L 489 333
L 490 335
L 491 335
L 492 333
L 493 332
L 494 333
L 495 333
L 496 330
L 497 328
L 498 326
L 499 328
L 501 327
L 502 327
L 503 325
L 504 325
L 505 325
L 506 325
L 507 324
L 508 323
L 509 324
L 510 325
L 511 327
L 512 327
L 514 328
L 515 330
L 516 333
L 517 333
L 518 334
L 519 335
L 520 336
L 521 338
L 522 338
L 523 339
L 524 341
L 525 342
L 527 341
L 528 342
L 529 343
L 530 343
L 531 343
L 532 343
L 533 343
L 534 344
L 535 344
L 536 344
L 537 345
L 538 346
L 539 346
L 541 346
L 542 347
L 543 347
L 544 348
L 545 348
L 546 348
L 547 349
L 548 349
L 549 349
L 550 350
L 551 350
L 552 350
L 554 350
L 555 350
L 556 350
L 557 350
L 558 350
L 559 350
L 560 350
L 561 350
L 562 350
L 563 350
L 564 350
L 565 350
L 567 350
L 568 350
L 569 350
L 570 350
L 571 350
L 572 350
L 573 350
L 574 350
L 575 350
L 576 350
L 577 350
L 578 350
L 580 350
L 581 350
L 582 350
L 583 350
L 584 349
L 585 350
L 586 350
L 587 350
L 588 350
L 589 350
L 590 350
L 591 349
L 593 349
L 594 349
L 595 349
L 596 349
L 597 348
L 598 348
L 599 349
L 600 349
L 601 349
L 602 349
L 603 349
L 604 349
L 606 350
L 607 349
L 608 349
L 609 349
L 610 349
L 611 349
L 612 348
L 613 347
L 614 347
L 615 347
L 616 346
L 617 346
L 618 346
L 620 347
L 621 346
L 622 345
L 623 345
L 624 345
L 625 344
L 626 344
L 627 343
L 628 344
L 629 345
L 630 344
L 631 346
L 633 345
L 634 346
L 635 346
L 636 346
L 637 345
L 638 347
L 639 346
L 640 346
L 641 345
L 642 344
L 643 343
L 644 343
L 646 342
L 647 341
L 648 341
L 649 342
L 650 342
L 651 342
L 652 340
L 653 340
L 654 341
L 655 341
L 656 341
L 657 342
L 659 343
L 660 345
L 661 345
L 662 345
L 663 344
L 664 343
L 665 342
L 666 341
L 667 339
L 668 338
L 669 338
L 670 337
L 672 336
L 673 336
L 674 334
L 675 334
L 676 333
L 677 333
L 678 333
L 679 335
L 680 336
L 681 336
L 682 336
L 683 338
L 684 337
L 686 336
L 687 337
L 688 335
L 689 334
L 690 332
L 691 329
L 692 329
L 693 327
L 694 324
L 695 323
L 696 323
L 697 323
L 699 325
L 700 322
L 701 320
L 702 320
L 703 320
L 704 320
L 705 313
L 706 308
L 707 302
L 708 308
L 709 303
L 710 302
L 712 293
L 713 286
L 714 288
L 715 287
L 716 276
L 717 273
L 718 265
L 719 260
L 720 265
L 721 256
L 722 250
L 723 250
L 725 252
L 726 252
L 727 248
L 728 236
L 729 238
L 730 243
L 731 247
L 732 246
L 733 251
L 734 259
L 735 271
L 736 276
L 738 281
L 739 283
L 740 291
L 741 297
L 742 304
L 743 315
L 744 320
L 745 323
L 746 326
L 747 328
L 748 328
L 749 331
L 750 331
L 752 332
L 753 335
L 754 337
L 755 338
L 756 338
L 757 340
L 758 342
L 759 342
L 760 342
L 761 342
L 762 342
L 763 343
L 765 343
L 766 342
L 767 342
L 768 341
L 769 341
L 770 341
L 771 340
L 772 339
L 773 337
L 774 337
L 775 334
L 776 331
L 778 330
L 779 328
L 780 325
L 781 319
L 782 314
L 783 310
L 784 310
L 785 305
L 786 299
L 787 291
L 788 283
L 789 261
L 791 248
L 792 230
L 793 210
L 794 192
L 795 171
L 796 148
L 797 130
L 798 117
L 799 101
L 800 106
L 801 102
L 802 75
L 804 67
L 805 66
L 806 58
L 807 62
L 808 50
L 809 58
L 810 51
L 811 58
L 812 61
L 813 66
L 814 71
L 815 78
L 817 73
L 818 91
L 819 89
L 820 88
L 821 96
L 822 94
L 823 95
L 824 92
L 825 109
L 826 114
L 827 124
L 828 121
L 829 122
L 831 125
L 832 128
L 833 110
L 834 113
L 835 106
L 836 105
L 837 102
L 838 100
L 839 96
L 840 84
L 841 62
L 842 45
L 844 32
L 845 19
L 846 15
L 847 17
L 848 14
L 849 13
L 850 27
L 851 38
L 852 43
L 853 49
L 854 53
L 855 71
L 857 92
L 858 104
L 859 113
L 860 129
L 861 139
L 862 149
L 863 169
L 864 180
L 865 200
L 866 213
L 867 228
L 868 238
L 870 243
L 871 253
L 872 268
L 873 271
L 874 277
L 875 279
L 876 282
L 877 282
L 878 294
L 879 300
L 880 299
L 881 303
L 883 305
L 884 305
L 885 310
L 886 313
L 887 311
L 888 316
L 889 314
L 890 314
L 891 318
L 892 316
L 893 313
L 894 317
L 895 319
L 897 320
L 898 322
L 899 319
L 900 320
L 901 321
L 902 321
L 903 321
L 904 322
L 905 321
L 906 323
L 907 324
L 908 324
L 910 323
L 911 323
L 912 324
L 913 323
L 914 323
L 915 322
L 916 324
L 917 326
L 918 328
L 919 328
L 920 331
L 921 330
L 923 332
L 924 334
L 925 335
L 926 334
L 927 336
L 928 335
L 929 336
L 930 337
L 931 338
L 932 338
L 933 338
L 934 338
L 936 339
L 937 339
L 938 340
L 939 342
L 940 339
L 941 340
L 942 339
L 943 339
L 944 338
L 945 337
L 946 335
L 947 336
L 949 336
L 950 336
L 951 334
L 952 333
L 953 331
L 954 329
L 955 326
L 956 324
L 957 319
L 958 315
L 959 314
L 960 314
L 961 311" style="stroke-width:1;stroke:rgba(0,116,217,1.0);fill:none"/><path  d="M 38 351
L 40 351
L 41 351
L 42 351
L 43 351
L 44 351
L 45 351
L 46 351
L 47 351
L 48 350
L 49 351
L 50 350
L 51 350
L 53 350
L 54 350
L 55 351
L 56 350
L 57 350
L 58 351
L 59 351
L 60 350
L 61 351
L 62 350
L 63 350
L 64 350
L 66 351
L 67 351
L 68 351
L 69 350
L 70 350
L 71 350
L 72 350
L 73 350
L 74 350
L 75 350
L 76 350
L 77 350
L 79 351
L 80 351
L 81 350
L 82 351
L 83 351
L 84 351
L 85 351
L 86 351
L 87 351
L 88 351
L 89 351
L 90 351
L 92 351
L 93 351
L 94 350
L 95 351
L 96 351
L 97 351
L 98 351
L 99 351
L 100 351
L 101 350
L 102 351
L 103 351
L 105 351
L 106 351
L 107 351
L 108 351
L 109 351
L 110 351
L 111 351
L 112 351
L 113 351
L 114 351
L 115 351
L 116 351
L 117 351
L 119 351
L 120 350
L 121 351
L 122 351
L 123 351
L 124 351
L 125 351
L 126 351
L 127 351
L 128 351
L 129 351
L 130 351
L 132 351
L 133 351
L 134 351
L 135 351
L 136 351
L 137 351
L 138 351
L 139 351
L 140 351
L 141 351
L 142 351
L 143 351
L 145 351
L 146 351
L 147 351
L 148 351
L 149 351
L 150 351
L 151 351
L 152 351
L 153 351
L 154 351
L 155 351
L 156 351
L 158 351
L 159 351
L 160 351
L 161 351
L 162 351
L 163 351
L 164 351
L 165 351
L 166 351
L 167 351
L 168 351
L 169 351
L 171 351
L 172 351
L 173 351
L 174 351
L 175 351
L 176 351
L 177 351
L 178 351
L 179 351
L 180 351
L 181 351
L 182 351
L 183 351
L 185 351
L 186 351
L 187 351
L 188 351
L 189 351
L 190 351
L 191 351
L 192 350
L 193 350
L 194 351
L 195 351
L 196 350
L 198 350
L 199 350
L 200 350
L 201 350
L 202 350
L 203 350
L 204 350
L 205 350
L 206 350
L 207 351
L 208 351
L 209 351
L 211 350
L 212 350
L 213 351
L 214 350
L 215 350
L 216 350
L 217 351
L 218 351
L 219 350
L 220 350
L 221 351
L 222 350
L 224 351
L 225 350
L 226 351
L 227 350
L 228 351
L 229 350
L 230 351
L 231 350
L 232 351
L 233 351
L 234 351
L 235 350
L 237 351
L 238 350
L 239 351
L 240 351
L 241 350
L 242 351
L 243 350
L 244 351
L 245 350
L 246 350
L 247 351
L 248 351
L 250 350
L 251 351
L 252 351
L 253 351
L 254 351
L 255 351
L 256 350
L 257 351
L 258 350
L 259 350
L 260 351
L 261 350
L 262 351
L 264 351
L 265 350
L 266 350
L 267 351
L 268 350
L 269 350
L 270 350
L 271 350
L 272 350
L 273 350
L 274 350
L 275 350
L 277 350
L 278 350
L 279 350
L 280 350
L 281 351
L 282 350
L 283 350
L 284 350
L 285 350
L 286 350
L 287 350
L 288 350
L 290 349
L 291 350
L 292 350
L 293 349
L 294 349
L 295 350
L 296 348
L 297 349
L 298 349
L 299 350
L 300 350
L 301 348
L 303 348
L 304 349
L 305 348
L 306 347
L 307 348
L 308 348
L 309 348
L 310 346
L 311 347
L 312 346
L 313 347
L 314 345
L 316 345
L 317 341
L 318 347
L 319 348
L 320 347
L 321 343
L 322 347
L 323 347
L 324 347
L 325 346
L 326 349
L 327 341
L 328 344
L 330 347
L 331 347
L 332 347
L 333 346
L 334 343
L 335 343
L 336 347
L 337 341
L 338 349
L 339 347
L 340 347
L 341 345
L 343 345
L 344 345
L 345 347
L 346 348
L 347 349
L 348 348
L 349 348
L 350 346
L 351 345
L 352 348
L 353 347
L 354 349
L 356 348
L 357 347
L 358 348
L 359 348
L 360 349
L 361 350
L 362 349
L 363 349
L 364 347
L 365 348
L 366 349
L 367 350
L 369 349
L 370 348
L 371 349
L 372 345
L 373 349
L 374 349
L 375 347
L 376 349
L 377 348
L 378 347
L 379 348
L 380 350
L 382 348
L 383 350
L 384 349
L 385 349
L 386 349
L 387 349
L 388 349
L 389 349
L 390 350
L 391 348
L 392 349
L 393 349
L 394 349
L 396 349
L 397 348
L 398 350
L 399 350
L 400 349
L 401 349
L 402 350
L 403 350
L 404 349
L 405 350
L 406 350
L 407 350
L 409 349
L 410 349
L 411 350
L 412 349
L 413 349
L 414 351
L 415 350
L 416 350
L 417 349
L 418 350
L 419 350
L 420 350
L 422 349
L 423 350
L 424 349
L 425 349
L 426 350
L 427 350
L 428 351
L 429 350
L 430 350
L 431 350
L 432 349
L 433 350
L 435 349
L 436 349
L 437 349
L 438 350
L 439 349
L 440 349
L 441 350
L 442 349
L 443 350
L 444 348
L 445 350
L 446 349
L 448 349
L 449 349
L 450 348
L 451 350
L 452 349
L 453 349
L 454 350
L 455 347
L 456 350
L 457 348
L 458 349
L 459 350
L 461 350
L 462 347
L 463 348
L 464 349
L 465 351
L 466 349
L 467 347
L 468 350
L 469 350
L 470 349
L 471 347
L 472 348
L 473 348
L 475 348
L 476 349
L 477 349
L 478 347
L 479 349
L 480 346
L 481 347
L 482 348
L 483 349
L 484 349
L 485 349
L 486 347
L 488 349
L 489 350
L 490 349
L 491 349
L 492 347
L 493 349
L 494 348
L 495 349
L 496 348
L 497 348
L 498 348
L 499 349
L 501 348
L 502 348
L 503 348
L 504 348
L 505 348
L 506 347
L 507 348
L 508 347
L 509 349
L 510 348
L 511 350
L 512 348
L 514 348
L 515 350
L 516 349
L 517 348
L 518 350
L 519 350
L 520 350
L 521 349
L 522 349
L 523 350
L 524 350
L 525 350
L 527 349
L 528 350
L 529 350
L 530 350
L 531 349
L 532 350
L 533 350
L 534 350
L 535 350
L 536 350
L 537 350
L 538 350
L 539 350
L 541 350
L 542 350
L 543 350
L 544 350
L 545 350
L 546 350
L 547 351
L 548 351
L 549 350
L 550 351
L 551 351
L 552 350
L 554 351
L 555 351
L 556 351
L 557 351
L 558 351
L 559 350
L 560 351
L 561 351
L 562 351
L 563 351
L 564 351
L 565 351
L 567 350
L 568 350
L 569 351
L 570 350
L 571 351
L 572 351
L 573 351
L 574 351
L 575 351
L 576 351
L 577 350
L 578 350
L 580 350
L 581 351
L 582 350
L 583 350
L 584 350
L 585 351
L 586 350
L 587 350
L 588 350
L 589 350
L 590 351
L 591 350
L 593 350
L 594 350
L 595 350
L 596 351
L 597 350
L 598 350
L 599 351
L 600 351
L 601 350
L 602 351
L 603 350
L 604 351
L 606 351
L 607 350
L 608 350
L 609 350
L 610 350
L 611 350
L 612 350
L 613 350
L 614 350
L 615 350
L 616 350
L 617 350
L 618 350
L 620 350
L 621 350
L 622 350
L 623 350
L 624 349
L 625 350
L 626 350
L 627 350
L 628 350
L 629 350
L 630 349
L 631 350
L 633 350
L 634 350
L 635 350
L 636 350
L 637 350
L 638 350
L 639 350
L 640 350
L 641 350
L 642 350
L 643 349
L 644 350
L 646 350
L 647 349
L 648 350
L 649 350
L 650 350
L 651 349
L 652 348
L 653 350
L 654 350
L 655 350
L 656 350
L 657 350
L 659 350
L 660 350
L 661 350
L 662 350
L 663 349
L 664 350
L 665 349
L 666 349
L 667 349
L 668 349
L 669 350
L 670 349
L 672 348
L 673 350
L 674 348
L 675 349
L 676 348
L 677 350
L 678 349
L 679 350
L 680 350
L 681 348
L 682 349
L 683 350
L 684 349
L 686 348
L 687 350
L 688 349
L 689 347
L 690 348
L 691 348
L 692 349
L 693 347
L 694 347
L 695 348
L 696 347
L 697 348
L 699 349
L 700 347
L 701 345
L 702 348
L 703 348
L 704 347
L 705 343
L 706 345
L 707 343
L 708 349
L 709 345
L 710 347
L 712 341
L 713 339
L 714 346
L 715 343
L 716 341
L 717 342
L 718 342
L 719 337
L 720 342
L 721 339
L 722 339
L 723 341
L 725 344
L 726 341
L 727 335
L 728 333
L 729 341
L 730 342
L 731 344
L 732 343
L 733 345
L 734 341
L 735 341
L 736 345
L 738 346
L 739 346
L 740 348
L 741 349
L 742 346
L 743 349
L 744 348
L 745 348
L 746 348
L 747 349
L 748 349
L 749 348
L 750 349
L 752 349
L 753 350
L 754 349
L 755 350
L 756 350
L 757 349
L 758 350
L 759 349
L 760 350
L 761 350
L 762 350
L 763 350
L 765 349
L 766 349
L 767 349
L 768 350
L 769 350
L 770 350
L 771 349
L 772 349
L 773 348
L 774 349
L 775 348
L 776 347
L 778 349
L 779 348
L 780 346
L 781 344
L 782 346
L 783 344
L 784 348
L 785 345
L 786 344
L 787 340
L 788 338
L 789 330
L 791 335
L 792 335
L 793 331
L 794 332
L 795 325
L 796 322
L 797 318
L 798 325
L 799 324
L 800 334
L 801 329
L 802 306
L 804 316
L 805 317
L 806 320
L 807 326
L 808 326
L 809 335
L 810 301
L 811 320
L 812 319
L 813 323
L 814 330
L 815 331
L 817 332
L 818 314
L 819 319
L 820 318
L 821 328
L 822 329
L 823 331
L 824 330
L 825 326
L 826 323
L 827 325
L 828 326
L 829 330
L 831 334
L 832 332
L 833 312
L 834 325
L 835 320
L 836 325
L 837 328
L 838 332
L 839 329
L 840 303
L 841 310
L 842 309
L 844 316
L 845 318
L 846 329
L 847 330
L 848 302
L 849 309
L 850 318
L 851 324
L 852 322
L 853 333
L 854 333
L 855 315
L 857 324
L 858 327
L 859 330
L 860 334
L 861 340
L 862 340
L 863 329
L 864 332
L 865 341
L 866 340
L 867 344
L 868 347
L 870 344
L 871 336
L 872 343
L 873 344
L 874 344
L 875 345
L 876 348
L 877 345
L 878 344
L 879 347
L 880 343
L 881 348
L 883 347
L 884 348
L 885 348
L 886 347
L 887 345
L 888 346
L 889 346
L 890 347
L 891 351
L 892 347
L 893 345
L 894 348
L 895 348
L 897 347
L 898 349
L 899 348
L 900 348
L 901 345
L 902 348
L 903 348
L 904 348
L 905 348
L 906 349
L 907 349
L 908 345
L 910 347
L 911 348
L 912 348
L 913 348
L 914 350
L 915 348
L 916 347
L 917 348
L 918 349
L 919 348
L 920 350
L 921 349
L 923 349
L 924 348
L 925 349
L 926 348
L 927 350
L 928 349
L 929 350
L 930 349
L 931 349
L 932 349
L 933 349
L 934 350
L 936 350
L 937 350
L 938 350
L 939 350
L 940 348
L 941 349
L 942 349
L 943 349
L 944 350
L 945 349
L 946 348
L 947 348
L 949 349
L 950 349
L 951 348
L 952 349
L 953 348
L 954 347
L 955 347
L 956 347
L 957 345
L 958 345
L 959 349
L 960 347
L 961 345" style="stroke-width:1;stroke:rgba(0,217,101,1.0);fill:none"/><path  d="M 38 351
L 40 351
L 41 351
L 42 351
L 43 351
L 44 351
L 45 351
L 46 351
L 47 351
L 48 351
L 49 351
L 50 351
L 51 351
L 53 351
L 54 351
L 55 351
L 56 351
L 57 351
L 58 351
L 59 351
L 60 351
L 61 350
L 62 351
L 63 351
L 64 351
L 66 351
L 67 351
L 68 351
L 69 351
L 70 351
L 71 351
L 72 351
L 73 351
L 74 351
L 75 351
L 76 351
L 77 351
L 79 351
L 80 351
L 81 351
L 82 351
L 83 351
L 84 351
L 85 351
L 86 351
L 87 351
L 88 351
L 89 351
L 90 351
L 92 351
L 93 351
L 94 351
L 95 351
L 96 351
L 97 351
L 98 351
L 99 351
L 100 351
L 101 351
L 102 351
L 103 351
L 105 351
L 106 351
L 107 351
L 108 351
L 109 351
L 110 351
L 111 351
L 112 351
L 113 351
L 114 351
L 115 351
L 116 351
L 117 351
L 119 351
L 120 351
L 121 351
L 122 351
L 123 351
L 124 351
L 125 351
L 126 351
L 127 351
L 128 351
L 129 351
L 130 351
L 132 351
L 133 351
L 134 351
L 135 351
L 136 351
L 137 351
L 138 351
L 139 351
L 140 351
L 141 351
L 142 351
L 143 351
L 145 351
L 146 351
L 147 351
L 148 351
L 149 351
L 150 351
L 151 351
L 152 351
L 153 351
L 154 351
L 155 351
L 156 351
L 158 351
L 159 351
L 160 351
L 161 351
L 162 351
L 163 351
L 164 351
L 165 351
L 166 351
L 167 351
L 168 351
L 169 351
L 171 351
L 172 351
L 173 351
L 174 351
L 175 351
L 176 351
L 177 351
L 178 351
L 179 351
L 180 351
L 181 351
L 182 351
L 183 351
L 185 351
L 186 351
L 187 351
L 188 351
L 189 351
L 190 351
L 191 351
L 192 351
L 193 351
L 194 351
L 195 351
L 196 351
L 198 351
L 199 351
L 200 351
L 201 351
L 202 351
L 203 351
L 204 351
L 205 351
L 206 351
L 207 351
L 208 351
L 209 351
L 211 351
L 212 351
L 213 351
L 214 351
L 215 351
L 216 351
L 217 351
L 218 351
L 219 351
L 220 351
L 221 351
L 222 351
L 224 351
L 225 351
L 226 351
L 227 351
L 228 351
L 229 351
L 230 351
L 231 351
L 232 351
L 233 351
L 234 351
L 235 351
L 237 351
L 238 351
L 239 351
L 240 351
L 241 351
L 242 351
L 243 351
L 244 351
L 245 351
L 246 351
L 247 351
L 248 351
L 250 351
L 251 351
L 252 351
L 253 351
L 254 351
L 255 351
L 256 351
L 257 351
L 258 351
L 259 351
L 260 351
L 261 351
L 262 351
L 264 351
L 265 351
L 266 351
L 267 351
L 268 351
L 269 351
L 270 351
L 271 351
L 272 351
L 273 351
L 274 351
L 275 351
L 277 351
L 278 351
L 279 351
L 280 351
L 281 351
L 282 351
L 283 351
L 284 351
L 285 350
L 286 351
L 287 351
L 288 351
L 290 351
L 291 351
L 292 351
L 293 351
L 294 351
L 295 351
L 296 351
L 297 351
L 298 351
L 299 351
L 300 351
L 301 350
L 303 351
L 304 350
L 305 351
L 306 351
L 307 351
L 308 351
L 309 351
L 310 351
L 311 350
L 312 350
L 313 351
L 314 350
L 316 351
L 317 351
L 318 350
L 319 351
L 320 351
L 321 350
L 322 350
L 323 350
L 324 350
L 325 350
L 326 350
L 327 350
L 328 350
L 330 350
L 331 351
L 332 350
L 333 350
L 334 350
L 335 350
L 336 350
L 337 350
L 338 350
L 339 350
L 340 350
L 341 350
L 343 350
L 344 350
L 345 350
L 346 350
L 347 350
L 348 350
L 349 350
L 350 350
L 351 350
L 352 350
L 353 350
L 354 350
L 356 350
L 357 350
L 358 350
L 359 350
L 360 351
L 361 350
L 362 350
L 363 350
L 364 350
L 365 350
L 366 350
L 367 350
L 369 351
L 370 350
L 371 350
L 372 350
L 373 350
L 374 351
L 375 351
L 376 350
L 377 350
L 378 351
L 379 350
L 380 350
L 382 351
L 383 350
L 384 351
L 385 350
L 386 350
L 387 350
L 388 351
L 389 350
L 390 350
L 391 351
L 392 351
L 393 350
L 394 350
L 396 350
L 397 351
L 398 350
L 399 350
L 400 350
L 401 350
L 402 350
L 403 350
L 404 350
L 405 350
L 406 351
L 407 351
L 409 350
L 410 351
L 411 351
L 412 351
L 413 350
L 414 350
L 415 350
L 416 351
L 417 351
L 418 351
L 419 351
L 420 350
L 422 350
L 423 351
L 424 351
L 425 351
L 426 350
L 427 351
L 428 351
L 429 351
L 430 351
L 431 351
L 432 351
L 433 351
L 435 350
L 436 351
L 437 351
L 438 351
L 439 350
L 440 351
L 441 350
L 442 351
L 443 351
L 444 351
L 445 351
L 446 351
L 448 350
L 449 351
L 450 351
L 451 351
L 452 350
L 453 351
L 454 350
L 455 351
L 456 351
L 457 350
L 458 351
L 459 351
L 461 351
L 462 351
L 463 351
L 464 350
L 465 350
L 466 351
L 467 351
L 468 351
L 469 351
L 470 351
L 471 351
L 472 351
L 473 351
L 475 351
L 476 351
L 477 350
L 478 350
L 479 351
L 480 350
L 481 351
L 482 351
L 483 351
L 484 351
L 485 351
L 486 350
L 488 351
L 489 351
L 490 351
L 491 351
L 492 350
L 493 351
L 494 351
L 495 351
L 496 351
L 497 351
L 498 351
L 499 351
L 501 350
L 502 351
L 503 351
L 504 351
L 505 351
L 506 350
L 507 350
L 508 351
L 509 351
L 510 351
L 511 351
L 512 351
L 514 351
L 515 351
L 516 351
L 517 351
L 518 351
L 519 351
L 520 351
L 521 351
L 522 350
L 523 351
L 524 351
L 525 351
L 527 351
L 528 351
L 529 351
L 530 350
L 531 351
L 532 351
L 533 351
L 534 351
L 535 350
L 536 351
L 537 350
L 538 351
L 539 351
L 541 351
L 542 351
L 543 350
L 544 351
L 545 351
L 546 351
L 547 351
L 548 351
L 549 351
L 550 350
L 551 351
L 552 351
L 554 351
L 555 351
L 556 351
L 557 351
L 558 351
L 559 351
L 560 351
L 561 351
L 562 351
L 563 351
L 564 351
L 565 351
L 567 351
L 568 351
L 569 351
L 570 351
L 571 351
L 572 351
L 573 351
L 574 351
L 575 351
L 576 351
L 577 351
L 578 351
L 580 351
L 581 351
L 582 351
L 583 351
L 584 351
L 585 351
L 586 351
L 587 351
L 588 351
L 589 351
L 590 351
L 591 351
L 593 351
L 594 351
L 595 351
L 596 351
L 597 351
L 598 351
L 599 351
L 600 351
L 601 351
L 602 351
L 603 351
L 604 351
L 606 351
L 607 351
L 608 351
L 609 351
L 610 351
L 611 351
L 612 351
L 613 351
L 614 351
L 615 351
L 616 351
L 617 351
L 618 351
L 620 351
L 621 351
L 622 351
L 623 351
L 624 351
L 625 351
L 626 351
L 627 351
L 628 351
L 629 351
L 630 351
L 631 351
L 633 351
L 634 351
L 635 351
L 636 351
L 637 351
L 638 351
L 639 351
L 640 351
L 641 351
L 642 351
L 643 351
L 644 351
L 646 351
L 647 351
L 648 351
L 649 351
L 650 351
L 651 351
L 652 351
L 653 351
L 654 351
L 655 351
L 656 351
L 657 351
L 659 351
L 660 351
L 661 351
L 662 351
L 663 351
L 664 351
L 665 351
L 666 350
L 667 351
L 668 351
L 669 351
L 670 350
L 672 351
L 673 350
L 674 351
L 675 351
L 676 351
L 677 351
L 678 351
L 679 351
L 680 351
L 681 350
L 682 351
L 683 351
L 684 351
L 686 350
L 687 351
L 688 350
L 689 351
L 690 351
L 691 350
L 692 350
L 693 351
L 694 350
L 695 351
L 696 351
L 697 350
L 699 351
L 700 351
L 701 350
L 702 350
L 703 351
L 704 350
L 705 350
L 706 351
L 707 350
L 708 350
L 709 351
L 710 351
L 712 351
L 713 351
L 714 350
L 715 350
L 716 351
L 717 350
L 718 351
L 719 351
L 720 350
L 721 351
L 722 350
L 723 351
L 725 351
L 726 351
L 727 350
L 728 350
L 729 350
L 730 350
L 731 350
L 732 350
L 733 351
L 734 351
L 735 350
L 736 350
L 738 350
L 739 351
L 740 351
L 741 351
L 742 350
L 743 351
L 744 350
L 745 351
L 746 351
L 747 350
L 748 350
L 749 350
L 750 351
L 752 351
L 753 351
L 754 351
L 755 351
L 756 350
L 757 350
L 758 351
L 759 350
L 760 350
L 761 351
L 762 350
L 763 351
L 765 351
L 766 351
L 767 350
L 768 351
L 769 350
L 770 351
L 771 351
L 772 351
L 773 351
L 774 351
L 775 351
L 776 351
L 778 351
L 779 351
L 780 351
L 781 351
L 782 351
L 783 351
L 784 351
L 785 351
L 786 351
L 787 351
L 788 351
L 789 351
L 791 351
L 792 351
L 793 351
L 794 351
L 795 351
L 796 351
L 797 351
L 798 351
L 799 351
L 800 351
L 801 351
L 802 351
L 804 351
L 805 351
L 806 350
L 807 351
L 808 351
L 809 351
L 810 351
L 811 351
L 812 351
L 813 351
L 814 351
L 815 351
L 817 351
L 818 351
L 819 351
L 820 350
L 821 351
L 822 351
L 823 351
L 824 350
L 825 351
L 826 350
L 827 351
L 828 350
L 829 351
L 831 350
L 832 351
L 833 351
L 834 350
L 835 350
L 836 351
L 837 351
L 838 350
L 839 351
L 840 351
L 841 351
L 842 351
L 844 350
L 845 350
L 846 351
L 847 351
L 848 351
L 849 351
L 850 351
L 851 351
L 852 351
L 853 351
L 854 351
L 855 351
L 857 350
L 858 350
L 859 351
L 860 351
L 861 351
L 862 350
L 863 351
L 864 351
L 865 351
L 866 351
L 867 351
L 868 351
L 870 350
L 871 350
L 872 351
L 873 350
L 874 350
L 875 351
L 876 351
L 877 351
L 878 351
L 879 351
L 880 351
L 881 351
L 883 350
L 884 351
L 885 351
L 886 351
L 887 350
L 888 350
L 889 351
L 890 351
L 891 351
L 892 350
L 893 351
L 894 350
L 895 351
L 897 351
L 898 351
L 899 351
L 900 351
L 901 351
L 902 351
L 903 351
L 904 351
L 905 351
L 906 351
L 907 351
L 908 351
L 910 351
L 911 351
L 912 351
L 913 351
L 914 351
L 915 351
L 916 351
L 917 351
L 918 350
L 919 351
L 920 351
L 921 351
L 923 351
L 924 351
L 925 351
L 926 350
L 927 351
L 928 351
L 929 351
L 930 351
L 931 351
L 932 351
L 933 351
L 934 351
L 936 351
L 937 351
L 938 351
L 939 351
L 940 351
L 941 351
L 942 351
L 943 351
L 944 351
L 945 351
L 946 351
L 947 351
L 949 351
L 950 351
L 951 351
L 952 351
L 953 351
L 954 351
L 955 351
L 956 351
L 957 351
L 958 351
L 959 351
L 960 351
L 961 351" style="stroke-width:1;stroke:rgba(217,0,116,1.0);fill:none"/><text x="417" y="33" style="stroke-width:0;stroke:none;fill:rgba(51,51,51,1.0);font-size:23.0px;font-family:'Roboto Medium',sans-serif">Murtal 28.06.2022</text><path  d="M 38 11
L 251 11
L 251 91
L 38 91
L 38 11" style="stroke-width:1;stroke:rgba(51,51,51,1.0);fill:rgba(255,255,255,1.0)"/><text x="43" y="26" style="stroke-width:0;stroke:none;fill:rgba(51,51,51,1.0);font-size:10.2px;font-family:'Roboto Medium',sans-serif">Sieben Tage Durschnitt Inzidenz Fälle</text><path  d="M 221 21
L 241 21" style="stroke-width:1;stroke:rgba(0,116,217,1.0);fill:none"/><text x="43" y="56" style="stroke-width:0;stroke:none;fill:rgba(51,51,51,1.0);font-size:10.2px;font-family:'Roboto Medium',sans-serif">Anzahl Faelle</text><path  d="M 110 51
L 241 51" style="stroke-width:1;stroke:rgba(0,217,101,1.0);fill:none"/><text x="43" y="86" style="stroke-width:0;stroke:none;fill:rgba(51,51,51,1.0);font-size:10.2px;font-family:'Roboto Medium',sans-serif">Anzahl Tot</text><path  d="M 98 81
L 241 81" style="stroke-width:1;stroke:rgba(217,0,116,1.0);fill:none"/></svg>