<svg xmlns="http://www.w3.org/2000/svg" xmlns:xlink="http://www.w3.org/1999/xlink" width="1024" height="400">\n<path  d="M 0 0
L 1024 0
L 1024 400
L 0 400
L 0 0" style="stroke-width:0;stroke:rgba(255,255,255,1.0);fill:rgba(255,255,255,1.0)"/><path  d="M 38 11
L 969 11
L 969 351
L 38 351
L 38 11" style="stroke-width:0;stroke:rgba(255,255,255,1.0);fill:rgba(255,255,255,1.0)"/><path  d="M 38 351
L 969 351" style="stroke-width:1;stroke:rgba(51,51,51,1.0);fill:none"/><path  d="M 38 351
L 38 356" style="stroke-width:1;stroke:rgba(51,51,51,1.0);fill:none"/><text x="5" y="373" style="stroke-width:0;stroke:none;fill:rgba(51,51,51,1.0);font-size:12.8px;font-family:'Roboto Medium',sans-serif">2020-02-26</text><path  d="M 155 351
L 155 356" style="stroke-width:1;stroke:rgba(51,51,51,1.0);fill:none"/><text x="122" y="373" style="stroke-width:0;stroke:none;fill:rgba(51,51,51,1.0);font-size:12.8px;font-family:'Roboto Medium',sans-serif">2020-04-12</text><path  d="M 271 351
L 271 356" style="stroke-width:1;stroke:rgba(51,51,51,1.0);fill:none"/><text x="238" y="373" style="stroke-width:0;stroke:none;fill:rgba(51,51,51,1.0);font-size:12.8px;font-family:'Roboto Medium',sans-serif">2020-05-29</text><path  d="M 388 351
L 388 356" style="stroke-width:1;stroke:rgba(51,51,51,1.0);fill:none"/><text x="355" y="373" style="stroke-width:0;stroke:none;fill:rgba(51,51,51,1.0);font-size:12.8px;font-family:'Roboto Medium',sans-serif">2020-07-15</text><path  d="M 504 351
L 504 356" style="stroke-width:1;stroke:rgba(51,51,51,1.0);fill:none"/><text x="471" y="373" style="stroke-width:0;stroke:none;fill:rgba(51,51,51,1.0);font-size:12.8px;font-family:'Roboto Medium',sans-serif">2020-08-31</text><path  d="M 620 351
L 620 356" style="stroke-width:1;stroke:rgba(51,51,51,1.0);fill:none"/><text x="587" y="373" style="stroke-width:0;stroke:none;fill:rgba(51,51,51,1.0);font-size:12.8px;font-family:'Roboto Medium',sans-serif">2020-10-16</text><path  d="M 737 351
L 737 356" style="stroke-width:1;stroke:rgba(51,51,51,1.0);fill:none"/><text x="704" y="373" style="stroke-width:0;stroke:none;fill:rgba(51,51,51,1.0);font-size:12.8px;font-family:'Roboto Medium',sans-serif">2020-12-02</text><path  d="M 853 351
L 853 356" style="stroke-width:1;stroke:rgba(51,51,51,1.0);fill:none"/><text x="820" y="373" style="stroke-width:0;stroke:none;fill:rgba(51,51,51,1.0);font-size:12.8px;font-family:'Roboto Medium',sans-serif">2021-01-18</text><path  d="M 969 351
L 969 356" style="stroke-width:1;stroke:rgba(51,51,51,1.0);fill:none"/><text x="936" y="373" style="stroke-width:0;stroke:none;fill:rgba(51,51,51,1.0);font-size:12.8px;font-family:'Roboto Medium',sans-serif">2021-03-06</text><text x="485" y="395" style="stroke-width:0;stroke:none;fill:rgba(51,51,51,1.0);font-size:12.8px;font-family:'Roboto Medium',sans-serif">Datum</text><path  d="M 970 351
L 970 11" style="stroke-width:1;stroke:rgba(51,51,51,1.0);fill:none"/><path  d="M 970 351
L 975 351" style="stroke-width:1;stroke:rgba(51,51,51,1.0);fill:none"/><text x="980" y="357" style="stroke-width:0;stroke:none;fill:rgba(51,51,51,1.0);font-size:12.8px;font-family:'Roboto Medium',sans-serif">0.00</text><path  d="M 970 308
L 975 308" style="stroke-width:1;stroke:rgba(51,51,51,1.0);fill:none"/><text x="980" y="314" style="stroke-width:0;stroke:none;fill:rgba(51,51,51,1.0);font-size:12.8px;font-family:'Roboto Medium',sans-serif">49.00</text><path  d="M 970 265
L 975 265" style="stroke-width:1;stroke:rgba(51,51,51,1.0);fill:none"/><text x="980" y="271" style="stroke-width:0;stroke:none;fill:rgba(51,51,51,1.0);font-size:12.8px;font-family:'Roboto Medium',sans-serif">98.00</text><path  d="M 970 222
L 975 222" style="stroke-width:1;stroke:rgba(51,51,51,1.0);fill:none"/><text x="980" y="228" style="stroke-width:0;stroke:none;fill:rgba(51,51,51,1.0);font-size:12.8px;font-family:'Roboto Medium',sans-serif">147.00</text><path  d="M 970 181
L 975 181" style="stroke-width:1;stroke:rgba(51,51,51,1.0);fill:none"/><text x="980" y="187" style="stroke-width:0;stroke:none;fill:rgba(51,51,51,1.0);font-size:12.8px;font-family:'Roboto Medium',sans-serif">195.00</text><path  d="M 970 138
L 975 138" style="stroke-width:1;stroke:rgba(51,51,51,1.0);fill:none"/><text x="980" y="144" style="stroke-width:0;stroke:none;fill:rgba(51,51,51,1.0);font-size:12.8px;font-family:'Roboto Medium',sans-serif">244.00</text><path  d="M 970 95
L 975 95" style="stroke-width:1;stroke:rgba(51,51,51,1.0);fill:none"/><text x="980" y="101" style="stroke-width:0;stroke:none;fill:rgba(51,51,51,1.0);font-size:12.8px;font-family:'Roboto Medium',sans-serif">293.00</text><path  d="M 970 52
L 975 52" style="stroke-width:1;stroke:rgba(51,51,51,1.0);fill:none"/><text x="980" y="58" style="stroke-width:0;stroke:none;fill:rgba(51,51,51,1.0);font-size:12.8px;font-family:'Roboto Medium',sans-serif">342.00</text><path  d="M 970 11
L 975 11" style="stroke-width:1;stroke:rgba(51,51,51,1.0);fill:none"/><text x="980" y="17" style="stroke-width:0;stroke:none;fill:rgba(51,51,51,1.0);font-size:12.8px;font-family:'Roboto Medium',sans-serif">390.00</text><path  d="M 38 351
L 41 351
L 43 351
L 46 351
L 48 351
L 51 351
L 53 351
L 56 351
L 58 351
L 61 351
L 63 351
L 66 351
L 68 351
L 71 350
L 73 349
L 76 348
L 78 348
L 81 345
L 83 338
L 86 336
L 88 328
L 91 327
L 93 325
L 96 322
L 98 325
L 101 323
L 103 320
L 106 323
L 108 320
L 111 317
L 113 311
L 116 310
L 118 316
L 121 313
L 123 318
L 126 319
L 128 322
L 131 328
L 133 328
L 136 329
L 138 330
L 141 327
L 143 328
L 146 331
L 148 334
L 151 334
L 153 334
L 155 341
L 158 343
L 160 345
L 163 345
L 165 345
L 168 346
L 170 347
L 173 345
L 175 348
L 178 348
L 180 348
L 183 348
L 185 348
L 188 348
L 190 348
L 193 348
L 195 348
L 198 347
L 200 347
L 203 347
L 205 347
L 208 348
L 210 348
L 213 350
L 215 350
L 218 350
L 220 350
L 223 350
L 225 350
L 228 350
L 230 350
L 233 350
L 235 348
L 238 348
L 240 348
L 243 346
L 245 346
L 248 345
L 250 346
L 253 347
L 255 347
L 258 346
L 260 346
L 263 345
L 265 345
L 268 345
L 270 346
L 272 346
L 275 347
L 277 349
L 280 350
L 282 351
L 285 351
L 287 351
L 290 351
L 292 350
L 295 350
L 297 350
L 300 350
L 302 349
L 305 349
L 307 348
L 310 349
L 312 349
L 315 349
L 317 349
L 320 350
L 322 350
L 325 351
L 327 348
L 330 348
L 332 347
L 335 346
L 337 345
L 340 345
L 342 345
L 345 346
L 347 346
L 350 346
L 352 347
L 355 348
L 357 348
L 360 348
L 362 348
L 365 348
L 367 349
L 370 348
L 372 347
L 375 346
L 377 346
L 380 346
L 382 345
L 385 344
L 387 345
L 389 345
L 392 345
L 394 345
L 397 345
L 399 346
L 402 348
L 404 346
L 407 347
L 409 347
L 412 346
L 414 346
L 417 346
L 419 345
L 422 348
L 424 348
L 427 345
L 429 345
L 432 345
L 434 345
L 437 344
L 439 342
L 442 340
L 444 340
L 447 341
L 449 340
L 452 341
L 454 340
L 457 341
L 459 342
L 462 342
L 464 340
L 467 340
L 469 340
L 472 341
L 474 342
L 477 338
L 479 339
L 482 340
L 484 338
L 487 338
L 489 337
L 492 336
L 494 337
L 497 336
L 499 334
L 502 334
L 504 334
L 506 334
L 509 333
L 511 333
L 514 329
L 516 331
L 519 328
L 521 325
L 524 323
L 526 316
L 529 312
L 531 307
L 534 302
L 536 305
L 539 302
L 541 305
L 544 311
L 546 309
L 549 315
L 551 317
L 554 313
L 556 314
L 559 305
L 561 304
L 564 303
L 566 301
L 569 300
L 571 299
L 574 302
L 576 305
L 579 304
L 581 307
L 584 308
L 586 302
L 589 299
L 591 291
L 594 285
L 596 280
L 599 271
L 601 266
L 604 252
L 606 255
L 609 255
L 611 260
L 614 261
L 616 266
L 619 264
L 621 275
L 623 267
L 626 261
L 628 255
L 631 236
L 633 219
L 636 210
L 638 194
L 641 192
L 643 189
L 646 176
L 648 179
L 651 165
L 653 143
L 656 138
L 658 105
L 661 81
L 663 51
L 666 35
L 668 37
L 671 31
L 673 19
L 676 34
L 678 39
L 681 68
L 683 61
L 686 75
L 688 77
L 691 99
L 693 109
L 696 130
L 698 125
L 701 149
L 703 157
L 706 170
L 708 164
L 711 178
L 713 177
L 716 184
L 718 187
L 721 183
L 723 207
L 726 219
L 728 206
L 731 202
L 733 212
L 736 215
L 738 220
L 740 206
L 743 205
L 745 211
L 748 217
L 750 207
L 753 217
L 755 200
L 758 209
L 760 200
L 763 209
L 765 195
L 768 198
L 770 192
L 773 209
L 775 212
L 778 229
L 780 225
L 783 242
L 785 237
L 788 236
L 790 232
L 793 238
L 795 242
L 798 249
L 800 251
L 803 257
L 805 256
L 808 268
L 810 261
L 813 262
L 815 246
L 818 243
L 820 251
L 823 253
L 825 248
L 828 244
L 830 244
L 833 257
L 835 252
L 838 255
L 840 261
L 843 261
L 845 269
L 848 269
L 850 271
L 853 276
L 855 280
L 857 282
L 860 291
L 862 292
L 865 290
L 867 293
L 870 295
L 872 295
L 875 286
L 877 286
L 880 286
L 882 286
L 885 285
L 887 285
L 890 283
L 892 288
L 895 287
L 897 285
L 900 287
L 902 288
L 905 282
L 907 285
L 910 280
L 912 280
L 915 285
L 917 284
L 920 278
L 922 284
L 925 282
L 927 282
L 930 281
L 932 260
L 935 248
L 937 245
L 940 236
L 942 230
L 945 220
L 947 209
L 950 209
L 952 196
L 955 194
L 957 189
L 960 185
L 962 179
L 965 180
L 967 172
L 969 184" style="stroke-width:1;stroke:rgba(0,116,217,1.0);fill:none"/><path  d="M 38 351
L 41 351
L 43 351
L 46 351
L 48 351
L 51 351
L 53 351
L 56 351
L 58 351
L 61 351
L 63 351
L 66 351
L 68 351
L 71 350
L 73 350
L 76 350
L 78 350
L 81 347
L 83 343
L 86 348
L 88 340
L 91 349
L 93 347
L 96 346
L 98 351
L 101 341
L 103 344
L 106 343
L 108 346
L 111 343
L 113 339
L 116 350
L 118 348
L 121 341
L 123 349
L 126 347
L 128 346
L 131 346
L 133 350
L 136 349
L 138 343
L 141 345
L 143 348
L 146 351
L 148 349
L 151 350
L 153 350
L 155 351
L 158 348
L 160 350
L 163 351
L 165 350
L 168 351
L 170 351
L 173 349
L 175 351
L 178 350
L 180 351
L 183 351
L 185 351
L 188 351
L 190 349
L 193 351
L 195 349
L 198 350
L 200 351
L 203 351
L 205 351
L 208 351
L 210 351
L 213 351
L 215 350
L 218 351
L 220 351
L 223 351
L 225 351
L 228 351
L 230 351
L 233 350
L 235 349
L 238 351
L 240 351
L 243 348
L 245 351
L 248 350
L 250 351
L 253 350
L 255 351
L 258 350
L 260 348
L 263 350
L 265 350
L 268 351
L 270 351
L 272 351
L 275 351
L 277 351
L 280 351
L 282 351
L 285 351
L 287 351
L 290 351
L 292 350
L 295 351
L 297 351
L 300 351
L 302 350
L 305 351
L 307 350
L 310 351
L 312 351
L 315 351
L 317 351
L 320 351
L 322 351
L 325 351
L 327 348
L 330 351
L 332 349
L 335 350
L 337 350
L 340 351
L 342 351
L 345 349
L 347 351
L 350 349
L 352 351
L 355 351
L 357 351
L 360 351
L 362 350
L 365 351
L 367 350
L 370 349
L 372 350
L 375 350
L 377 351
L 380 350
L 382 350
L 385 348
L 387 350
L 389 350
L 392 351
L 394 351
L 397 350
L 399 351
L 402 350
L 404 348
L 407 351
L 409 351
L 412 350
L 414 350
L 417 351
L 419 349
L 422 351
L 424 351
L 427 347
L 429 350
L 432 351
L 434 350
L 437 348
L 439 348
L 442 349
L 444 347
L 447 351
L 449 350
L 452 351
L 454 347
L 457 349
L 459 350
L 462 348
L 464 347
L 467 350
L 469 351
L 472 349
L 474 350
L 477 345
L 479 349
L 482 349
L 484 347
L 487 351
L 489 348
L 492 348
L 494 347
L 497 347
L 499 346
L 502 348
L 504 351
L 506 347
L 509 347
L 511 347
L 514 343
L 516 349
L 519 344
L 521 347
L 524 345
L 526 338
L 529 343
L 531 336
L 534 344
L 536 347
L 539 344
L 541 349
L 544 345
L 546 340
L 549 344
L 551 345
L 554 343
L 556 344
L 559 338
L 561 344
L 564 338
L 566 342
L 569 344
L 571 342
L 574 348
L 576 342
L 579 343
L 581 342
L 584 344
L 586 337
L 589 337
L 591 339
L 594 334
L 596 337
L 599 331
L 601 338
L 604 320
L 606 340
L 609 339
L 611 340
L 614 338
L 616 337
L 619 336
L 621 333
L 623 330
L 626 332
L 628 332
L 631 316
L 633 317
L 636 325
L 638 314
L 641 329
L 643 328
L 646 317
L 648 319
L 651 301
L 653 300
L 656 308
L 658 289
L 661 299
L 663 281
L 666 300
L 668 303
L 671 293
L 673 294
L 676 307
L 678 305
L 681 316
L 683 292
L 686 318
L 688 296
L 691 320
L 693 319
L 696 330
L 698 310
L 701 321
L 703 328
L 706 310
L 708 313
L 711 336
L 713 330
L 716 317
L 718 325
L 721 323
L 723 339
L 726 328
L 728 320
L 731 324
L 733 330
L 736 329
L 738 329
L 740 323
L 743 326
L 745 327
L 748 332
L 750 317
L 753 340
L 755 310
L 758 333
L 760 315
L 763 337
L 765 317
L 768 320
L 770 334
L 773 330
L 775 337
L 778 335
L 780 332
L 783 337
L 785 314
L 788 332
L 790 325
L 793 344
L 795 340
L 798 340
L 800 340
L 803 321
L 805 331
L 808 339
L 810 336
L 813 341
L 815 321
L 818 337
L 820 330
L 823 334
L 825 333
L 828 331
L 830 340
L 833 337
L 835 331
L 838 333
L 840 342
L 843 333
L 845 340
L 848 341
L 850 338
L 853 337
L 855 338
L 857 344
L 860 344
L 862 341
L 865 338
L 867 342
L 870 340
L 872 338
L 875 334
L 877 344
L 880 341
L 882 338
L 885 341
L 887 339
L 890 337
L 892 340
L 895 342
L 897 339
L 900 340
L 902 343
L 905 332
L 907 339
L 910 335
L 912 341
L 915 345
L 917 339
L 920 336
L 922 339
L 925 337
L 927 336
L 930 339
L 932 321
L 935 324
L 937 332
L 940 328
L 942 330
L 945 323
L 947 326
L 950 320
L 952 310
L 955 330
L 957 322
L 960 326
L 962 317
L 965 327
L 967 310
L 969 323" style="stroke-width:1;stroke:rgba(0,217,101,1.0);fill:none"/><path  d="M 38 351
L 41 351
L 43 351
L 46 351
L 48 351
L 51 351
L 53 351
L 56 351
L 58 351
L 61 351
L 63 351
L 66 351
L 68 351
L 71 351
L 73 351
L 76 351
L 78 351
L 81 351
L 83 351
L 86 351
L 88 351
L 91 351
L 93 351
L 96 351
L 98 351
L 101 351
L 103 350
L 106 351
L 108 350
L 111 351
L 113 351
L 116 351
L 118 351
L 121 351
L 123 351
L 126 351
L 128 350
L 131 351
L 133 351
L 136 351
L 138 350
L 141 351
L 143 351
L 146 351
L 148 351
L 151 351
L 153 351
L 155 351
L 158 351
L 160 351
L 163 351
L 165 350
L 168 351
L 170 350
L 173 351
L 175 351
L 178 351
L 180 351
L 183 350
L 185 351
L 188 351
L 190 351
L 193 351
L 195 351
L 198 351
L 200 351
L 203 351
L 205 351
L 208 351
L 210 351
L 213 351
L 215 351
L 218 351
L 220 351
L 223 351
L 225 351
L 228 351
L 230 351
L 233 351
L 235 351
L 238 351
L 240 351
L 243 351
L 245 351
L 248 351
L 250 351
L 253 351
L 255 351
L 258 351
L 260 351
L 263 351
L 265 351
L 268 351
L 270 351
L 272 351
L 275 351
L 277 351
L 280 351
L 282 351
L 285 351
L 287 351
L 290 351
L 292 351
L 295 351
L 297 351
L 300 351
L 302 351
L 305 351
L 307 351
L 310 351
L 312 351
L 315 351
L 317 351
L 320 351
L 322 351
L 325 351
L 327 351
L 330 351
L 332 351
L 335 351
L 337 351
L 340 351
L 342 351
L 345 351
L 347 351
L 350 351
L 352 351
L 355 351
L 357 351
L 360 351
L 362 351
L 365 351
L 367 351
L 370 351
L 372 351
L 375 351
L 377 351
L 380 351
L 382 351
L 385 351
L 387 351
L 389 351
L 392 351
L 394 351
L 397 351
L 399 351
L 402 351
L 404 351
L 407 351
L 409 351
L 412 351
L 414 351
L 417 351
L 419 351
L 422 351
L 424 351
L 427 351
L 429 351
L 432 351
L 434 351
L 437 351
L 439 351
L 442 351
L 444 351
L 447 351
L 449 351
L 452 351
L 454 351
L 457 351
L 459 351
L 462 351
L 464 351
L 467 351
L 469 351
L 472 351
L 474 351
L 477 351
L 479 351
L 482 351
L 484 351
L 487 351
L 489 351
L 492 351
L 494 351
L 497 351
L 499 351
L 502 351
L 504 351
L 506 351
L 509 351
L 511 351
L 514 351
L 516 351
L 519 351
L 521 351
L 524 351
L 526 351
L 529 351
L 531 351
L 534 351
L 536 351
L 539 351
L 541 351
L 544 351
L 546 351
L 549 351
L 551 351
L 554 351
L 556 351
L 559 351
L 561 351
L 564 351
L 566 351
L 569 351
L 571 351
L 574 351
L 576 351
L 579 351
L 581 350
L 584 351
L 586 351
L 589 350
L 591 351
L 594 351
L 596 351
L 599 351
L 601 351
L 604 351
L 606 348
L 609 351
L 611 351
L 614 351
L 616 351
L 619 351
L 621 351
L 623 351
L 626 351
L 628 350
L 631 351
L 633 351
L 636 351
L 638 351
L 641 351
L 643 351
L 646 351
L 648 351
L 651 350
L 653 351
L 656 351
L 658 351
L 661 351
L 663 351
L 666 350
L 668 351
L 671 350
L 673 350
L 676 351
L 678 351
L 681 351
L 683 351
L 686 351
L 688 349
L 691 349
L 693 350
L 696 351
L 698 351
L 701 350
L 703 351
L 706 351
L 708 350
L 711 350
L 713 351
L 716 348
L 718 350
L 721 350
L 723 349
L 726 350
L 728 351
L 731 348
L 733 351
L 736 349
L 738 350
L 740 351
L 743 350
L 745 349
L 748 351
L 750 351
L 753 350
L 755 349
L 758 350
L 760 351
L 763 350
L 765 350
L 768 350
L 770 350
L 773 351
L 775 351
L 778 349
L 780 350
L 783 351
L 785 350
L 788 350
L 790 351
L 793 350
L 795 351
L 798 351
L 800 351
L 803 351
L 805 351
L 808 350
L 810 349
L 813 351
L 815 351
L 818 349
L 820 348
L 823 348
L 825 349
L 828 346
L 830 350
L 833 349
L 835 350
L 838 350
L 840 351
L 843 350
L 845 349
L 848 350
L 850 351
L 853 351
L 855 351
L 857 350
L 860 351
L 862 350
L 865 350
L 867 351
L 870 350
L 872 349
L 875 351
L 877 351
L 880 351
L 882 350
L 885 351
L 887 351
L 890 350
L 892 351
L 895 349
L 897 351
L 900 351
L 902 351
L 905 351
L 907 351
L 910 349
L 912 351
L 915 351
L 917 350
L 920 351
L 922 351
L 925 351
L 927 351
L 930 351
L 932 351
L 935 351
L 937 351
L 940 351
L 942 351
L 945 350
L 947 351
L 950 351
L 952 350
L 955 351
L 957 351
L 960 351
L 962 349
L 965 351
L 967 351
L 969 351" style="stroke-width:1;stroke:rgba(217,0,116,1.0);fill:none"/><text x="408" y="33" style="stroke-width:0;stroke:none;fill:rgba(51,51,51,1.0);font-size:23.0px;font-family:'Roboto Medium',sans-serif">Mödling 06.03.2021</text><path  d="M 38 11
L 251 11
L 251 91
L 38 91
L 38 11" style="stroke-width:1;stroke:rgba(51,51,51,1.0);fill:rgba(255,255,255,1.0)"/><text x="43" y="26" style="stroke-width:0;stroke:none;fill:rgba(51,51,51,1.0);font-size:10.2px;font-family:'Roboto Medium',sans-serif">Sieben Tage Durschnitt Inzidenz Fälle</text><path  d="M 221 21
L 241 21" style="stroke-width:1;stroke:rgba(0,116,217,1.0);fill:none"/><text x="43" y="56" style="stroke-width:0;stroke:none;fill:rgba(51,51,51,1.0);font-size:10.2px;font-family:'Roboto Medium',sans-serif">Anzahl Faelle</text><path  d="M 110 51
L 241 51" style="stroke-width:1;stroke:rgba(0,217,101,1.0);fill:none"/><text x="43" y="86" style="stroke-width:0;stroke:none;fill:rgba(51,51,51,1.0);font-size:10.2px;font-family:'Roboto Medium',sans-serif">Anzahl Tot</text><path  d="M 98 81
L 241 81" style="stroke-width:1;stroke:rgba(217,0,116,1.0);fill:none"/></svg>