<svg xmlns="http://www.w3.org/2000/svg" xmlns:xlink="http://www.w3.org/1999/xlink" width="1024" height="400">\n<path  d="M 0 0
L 1024 0
L 1024 400
L 0 400
L 0 0" style="stroke-width:0;stroke:rgba(255,255,255,1.0);fill:rgba(255,255,255,1.0)"/><path  d="M 38 11
L 969 11
L 969 351
L 38 351
L 38 11" style="stroke-width:0;stroke:rgba(255,255,255,1.0);fill:rgba(255,255,255,1.0)"/><path  d="M 38 351
L 969 351" style="stroke-width:1;stroke:rgba(51,51,51,1.0);fill:none"/><path  d="M 38 351
L 38 356" style="stroke-width:1;stroke:rgba(51,51,51,1.0);fill:none"/><text x="5" y="373" style="stroke-width:0;stroke:none;fill:rgba(51,51,51,1.0);font-size:12.8px;font-family:'Roboto Medium',sans-serif">2020-02-26</text><path  d="M 155 351
L 155 356" style="stroke-width:1;stroke:rgba(51,51,51,1.0);fill:none"/><text x="122" y="373" style="stroke-width:0;stroke:none;fill:rgba(51,51,51,1.0);font-size:12.8px;font-family:'Roboto Medium',sans-serif">2020-04-11</text><path  d="M 271 351
L 271 356" style="stroke-width:1;stroke:rgba(51,51,51,1.0);fill:none"/><text x="238" y="373" style="stroke-width:0;stroke:none;fill:rgba(51,51,51,1.0);font-size:12.8px;font-family:'Roboto Medium',sans-serif">2020-05-26</text><path  d="M 388 351
L 388 356" style="stroke-width:1;stroke:rgba(51,51,51,1.0);fill:none"/><text x="355" y="373" style="stroke-width:0;stroke:none;fill:rgba(51,51,51,1.0);font-size:12.8px;font-family:'Roboto Medium',sans-serif">2020-07-10</text><path  d="M 504 351
L 504 356" style="stroke-width:1;stroke:rgba(51,51,51,1.0);fill:none"/><text x="471" y="373" style="stroke-width:0;stroke:none;fill:rgba(51,51,51,1.0);font-size:12.8px;font-family:'Roboto Medium',sans-serif">2020-08-24</text><path  d="M 620 351
L 620 356" style="stroke-width:1;stroke:rgba(51,51,51,1.0);fill:none"/><text x="587" y="373" style="stroke-width:0;stroke:none;fill:rgba(51,51,51,1.0);font-size:12.8px;font-family:'Roboto Medium',sans-serif">2020-10-08</text><path  d="M 737 351
L 737 356" style="stroke-width:1;stroke:rgba(51,51,51,1.0);fill:none"/><text x="704" y="373" style="stroke-width:0;stroke:none;fill:rgba(51,51,51,1.0);font-size:12.8px;font-family:'Roboto Medium',sans-serif">2020-11-22</text><path  d="M 853 351
L 853 356" style="stroke-width:1;stroke:rgba(51,51,51,1.0);fill:none"/><text x="820" y="373" style="stroke-width:0;stroke:none;fill:rgba(51,51,51,1.0);font-size:12.8px;font-family:'Roboto Medium',sans-serif">2021-01-06</text><path  d="M 969 351
L 969 356" style="stroke-width:1;stroke:rgba(51,51,51,1.0);fill:none"/><text x="936" y="373" style="stroke-width:0;stroke:none;fill:rgba(51,51,51,1.0);font-size:12.8px;font-family:'Roboto Medium',sans-serif">2021-02-21</text><text x="485" y="395" style="stroke-width:0;stroke:none;fill:rgba(51,51,51,1.0);font-size:12.8px;font-family:'Roboto Medium',sans-serif">Datum</text><path  d="M 970 351
L 970 11" style="stroke-width:1;stroke:rgba(51,51,51,1.0);fill:none"/><path  d="M 970 351
L 975 351" style="stroke-width:1;stroke:rgba(51,51,51,1.0);fill:none"/><text x="980" y="357" style="stroke-width:0;stroke:none;fill:rgba(51,51,51,1.0);font-size:12.8px;font-family:'Roboto Medium',sans-serif">0.00</text><path  d="M 970 308
L 975 308" style="stroke-width:1;stroke:rgba(51,51,51,1.0);fill:none"/><text x="980" y="314" style="stroke-width:0;stroke:none;fill:rgba(51,51,51,1.0);font-size:12.8px;font-family:'Roboto Medium',sans-serif">49.00</text><path  d="M 970 265
L 975 265" style="stroke-width:1;stroke:rgba(51,51,51,1.0);fill:none"/><text x="980" y="271" style="stroke-width:0;stroke:none;fill:rgba(51,51,51,1.0);font-size:12.8px;font-family:'Roboto Medium',sans-serif">98.00</text><path  d="M 970 222
L 975 222" style="stroke-width:1;stroke:rgba(51,51,51,1.0);fill:none"/><text x="980" y="228" style="stroke-width:0;stroke:none;fill:rgba(51,51,51,1.0);font-size:12.8px;font-family:'Roboto Medium',sans-serif">147.00</text><path  d="M 970 181
L 975 181" style="stroke-width:1;stroke:rgba(51,51,51,1.0);fill:none"/><text x="980" y="187" style="stroke-width:0;stroke:none;fill:rgba(51,51,51,1.0);font-size:12.8px;font-family:'Roboto Medium',sans-serif">195.00</text><path  d="M 970 138
L 975 138" style="stroke-width:1;stroke:rgba(51,51,51,1.0);fill:none"/><text x="980" y="144" style="stroke-width:0;stroke:none;fill:rgba(51,51,51,1.0);font-size:12.8px;font-family:'Roboto Medium',sans-serif">244.00</text><path  d="M 970 95
L 975 95" style="stroke-width:1;stroke:rgba(51,51,51,1.0);fill:none"/><text x="980" y="101" style="stroke-width:0;stroke:none;fill:rgba(51,51,51,1.0);font-size:12.8px;font-family:'Roboto Medium',sans-serif">293.00</text><path  d="M 970 52
L 975 52" style="stroke-width:1;stroke:rgba(51,51,51,1.0);fill:none"/><text x="980" y="58" style="stroke-width:0;stroke:none;fill:rgba(51,51,51,1.0);font-size:12.8px;font-family:'Roboto Medium',sans-serif">342.00</text><path  d="M 970 11
L 975 11" style="stroke-width:1;stroke:rgba(51,51,51,1.0);fill:none"/><text x="980" y="17" style="stroke-width:0;stroke:none;fill:rgba(51,51,51,1.0);font-size:12.8px;font-family:'Roboto Medium',sans-serif">390.00</text><path  d="M 38 351
L 41 351
L 44 351
L 46 351
L 49 351
L 51 351
L 54 351
L 57 351
L 59 351
L 62 351
L 64 351
L 67 351
L 69 351
L 72 350
L 75 349
L 77 348
L 80 348
L 82 345
L 85 338
L 87 336
L 90 328
L 93 327
L 95 325
L 98 322
L 100 325
L 103 323
L 106 320
L 108 323
L 111 320
L 113 317
L 116 311
L 118 310
L 121 316
L 124 313
L 126 318
L 129 319
L 131 322
L 134 328
L 136 328
L 139 329
L 142 330
L 144 327
L 147 328
L 149 331
L 152 334
L 155 334
L 157 334
L 160 341
L 162 343
L 165 345
L 167 345
L 170 345
L 173 346
L 175 347
L 178 345
L 180 348
L 183 348
L 185 348
L 188 348
L 191 348
L 193 348
L 196 348
L 198 348
L 201 348
L 204 347
L 206 347
L 209 347
L 211 347
L 214 348
L 216 348
L 219 350
L 222 350
L 224 350
L 227 350
L 229 350
L 232 350
L 234 350
L 237 350
L 240 350
L 242 348
L 245 348
L 247 348
L 250 346
L 253 346
L 255 345
L 258 346
L 260 347
L 263 347
L 265 346
L 268 346
L 271 345
L 273 345
L 276 345
L 278 346
L 281 346
L 283 347
L 286 349
L 289 350
L 291 351
L 294 351
L 296 351
L 299 351
L 302 350
L 304 350
L 307 350
L 309 350
L 312 349
L 314 349
L 317 348
L 320 349
L 322 349
L 325 349
L 327 349
L 330 350
L 332 350
L 335 351
L 338 348
L 340 348
L 343 347
L 345 346
L 348 345
L 351 345
L 353 345
L 356 346
L 358 346
L 361 346
L 363 347
L 366 348
L 369 348
L 371 348
L 374 348
L 376 348
L 379 349
L 381 348
L 384 347
L 387 346
L 389 346
L 392 346
L 394 345
L 397 344
L 400 345
L 402 345
L 405 345
L 407 345
L 410 345
L 412 346
L 415 348
L 418 346
L 420 347
L 423 347
L 425 346
L 428 346
L 430 346
L 433 345
L 436 348
L 438 348
L 441 345
L 443 345
L 446 345
L 449 345
L 451 344
L 454 342
L 456 340
L 459 340
L 461 341
L 464 340
L 467 341
L 469 340
L 472 341
L 474 342
L 477 342
L 479 340
L 482 340
L 485 340
L 487 341
L 490 342
L 492 338
L 495 339
L 498 340
L 500 338
L 503 338
L 505 337
L 508 336
L 510 337
L 513 336
L 516 334
L 518 334
L 521 334
L 523 334
L 526 333
L 528 333
L 531 329
L 534 331
L 536 328
L 539 325
L 541 323
L 544 316
L 547 312
L 549 307
L 552 302
L 554 305
L 557 302
L 559 305
L 562 311
L 565 309
L 567 315
L 570 317
L 572 313
L 575 314
L 577 305
L 580 304
L 583 303
L 585 301
L 588 300
L 590 299
L 593 302
L 596 305
L 598 304
L 601 307
L 603 308
L 606 302
L 608 299
L 611 291
L 614 285
L 616 280
L 619 271
L 621 266
L 624 252
L 626 255
L 629 255
L 632 260
L 634 261
L 637 266
L 639 264
L 642 275
L 645 267
L 647 261
L 650 255
L 652 236
L 655 219
L 657 210
L 660 194
L 663 192
L 665 189
L 668 176
L 670 179
L 673 165
L 675 143
L 678 138
L 681 105
L 683 81
L 686 51
L 688 35
L 691 37
L 694 31
L 696 19
L 699 34
L 701 39
L 704 68
L 706 61
L 709 75
L 712 77
L 714 99
L 717 109
L 719 130
L 722 125
L 724 149
L 727 157
L 730 170
L 732 164
L 735 178
L 737 177
L 740 184
L 743 187
L 745 183
L 748 207
L 750 219
L 753 206
L 755 202
L 758 212
L 761 215
L 763 220
L 766 206
L 768 205
L 771 211
L 773 217
L 776 207
L 779 217
L 781 200
L 784 209
L 786 200
L 789 209
L 792 195
L 794 198
L 797 193
L 799 210
L 802 213
L 804 230
L 807 225
L 810 243
L 812 237
L 815 236
L 817 232
L 820 238
L 822 242
L 825 249
L 828 251
L 830 257
L 833 256
L 835 268
L 838 261
L 841 262
L 843 246
L 846 243
L 848 251
L 851 253
L 853 248
L 856 244
L 859 244
L 861 257
L 864 252
L 866 255
L 869 261
L 871 261
L 874 269
L 877 269
L 879 271
L 882 276
L 884 280
L 887 282
L 890 291
L 892 292
L 895 290
L 897 293
L 900 295
L 902 295
L 905 286
L 908 286
L 910 286
L 913 286
L 915 285
L 918 285
L 920 283
L 923 288
L 926 287
L 928 285
L 931 287
L 933 288
L 936 282
L 939 284
L 941 280
L 944 279
L 946 284
L 949 283
L 951 277
L 954 282
L 957 282
L 959 283
L 962 282
L 964 259
L 967 248
L 969 246" style="stroke-width:1;stroke:rgba(0,116,217,1.0);fill:none"/><path  d="M 38 351
L 41 351
L 44 351
L 46 351
L 49 351
L 51 351
L 54 351
L 57 351
L 59 351
L 62 351
L 64 351
L 67 351
L 69 351
L 72 350
L 75 350
L 77 350
L 80 350
L 82 347
L 85 343
L 87 348
L 90 340
L 93 349
L 95 347
L 98 346
L 100 351
L 103 341
L 106 344
L 108 343
L 111 346
L 113 343
L 116 339
L 118 350
L 121 348
L 124 341
L 126 349
L 129 347
L 131 346
L 134 346
L 136 350
L 139 349
L 142 343
L 144 345
L 147 348
L 149 351
L 152 349
L 155 350
L 157 350
L 160 351
L 162 348
L 165 350
L 167 351
L 170 350
L 173 351
L 175 351
L 178 349
L 180 351
L 183 350
L 185 351
L 188 351
L 191 351
L 193 351
L 196 349
L 198 351
L 201 349
L 204 350
L 206 351
L 209 351
L 211 351
L 214 351
L 216 351
L 219 351
L 222 350
L 224 351
L 227 351
L 229 351
L 232 351
L 234 351
L 237 351
L 240 350
L 242 349
L 245 351
L 247 351
L 250 348
L 253 351
L 255 350
L 258 351
L 260 350
L 263 351
L 265 350
L 268 348
L 271 350
L 273 350
L 276 351
L 278 351
L 281 351
L 283 351
L 286 351
L 289 351
L 291 351
L 294 351
L 296 351
L 299 351
L 302 350
L 304 351
L 307 351
L 309 351
L 312 350
L 314 351
L 317 350
L 320 351
L 322 351
L 325 351
L 327 351
L 330 351
L 332 351
L 335 351
L 338 348
L 340 351
L 343 349
L 345 350
L 348 350
L 351 351
L 353 351
L 356 349
L 358 351
L 361 349
L 363 351
L 366 351
L 369 351
L 371 351
L 374 350
L 376 351
L 379 350
L 381 349
L 384 350
L 387 350
L 389 351
L 392 350
L 394 350
L 397 348
L 400 350
L 402 350
L 405 351
L 407 351
L 410 350
L 412 351
L 415 350
L 418 348
L 420 351
L 423 351
L 425 350
L 428 350
L 430 351
L 433 349
L 436 351
L 438 351
L 441 347
L 443 350
L 446 351
L 449 350
L 451 348
L 454 348
L 456 349
L 459 347
L 461 351
L 464 350
L 467 351
L 469 347
L 472 349
L 474 350
L 477 348
L 479 347
L 482 350
L 485 351
L 487 349
L 490 350
L 492 345
L 495 349
L 498 349
L 500 347
L 503 351
L 505 348
L 508 348
L 510 347
L 513 347
L 516 346
L 518 348
L 521 351
L 523 347
L 526 347
L 528 347
L 531 343
L 534 349
L 536 344
L 539 347
L 541 345
L 544 338
L 547 343
L 549 336
L 552 344
L 554 347
L 557 344
L 559 349
L 562 345
L 565 340
L 567 344
L 570 345
L 572 343
L 575 344
L 577 338
L 580 344
L 583 338
L 585 342
L 588 344
L 590 342
L 593 348
L 596 342
L 598 343
L 601 342
L 603 344
L 606 337
L 608 337
L 611 339
L 614 334
L 616 337
L 619 331
L 621 338
L 624 320
L 626 340
L 629 339
L 632 340
L 634 338
L 637 337
L 639 336
L 642 333
L 645 330
L 647 332
L 650 332
L 652 316
L 655 317
L 657 325
L 660 314
L 663 329
L 665 328
L 668 317
L 670 319
L 673 301
L 675 300
L 678 308
L 681 289
L 683 299
L 686 281
L 688 300
L 691 303
L 694 293
L 696 294
L 699 307
L 701 305
L 704 316
L 706 292
L 709 318
L 712 296
L 714 320
L 717 319
L 719 330
L 722 310
L 724 321
L 727 328
L 730 310
L 732 313
L 735 336
L 737 330
L 740 317
L 743 325
L 745 323
L 748 339
L 750 328
L 753 320
L 755 324
L 758 330
L 761 329
L 763 329
L 766 323
L 768 326
L 771 327
L 773 332
L 776 317
L 779 340
L 781 310
L 784 333
L 786 315
L 789 337
L 792 317
L 794 321
L 797 334
L 799 330
L 802 337
L 804 335
L 807 332
L 810 337
L 812 314
L 815 332
L 817 325
L 820 344
L 822 340
L 825 340
L 828 340
L 830 321
L 833 331
L 835 339
L 838 336
L 841 341
L 843 321
L 846 337
L 848 330
L 851 334
L 853 333
L 856 331
L 859 340
L 861 337
L 864 331
L 866 333
L 869 342
L 871 333
L 874 340
L 877 341
L 879 338
L 882 337
L 884 338
L 887 344
L 890 344
L 892 341
L 895 338
L 897 342
L 900 340
L 902 338
L 905 334
L 908 344
L 910 341
L 913 338
L 915 341
L 918 339
L 920 337
L 923 340
L 926 342
L 928 339
L 931 340
L 933 343
L 936 332
L 939 338
L 941 335
L 944 341
L 946 345
L 949 339
L 951 336
L 954 338
L 957 337
L 959 337
L 962 340
L 964 317
L 967 326
L 969 333" style="stroke-width:1;stroke:rgba(0,217,101,1.0);fill:none"/><path  d="M 38 351
L 41 351
L 44 351
L 46 351
L 49 351
L 51 351
L 54 351
L 57 351
L 59 351
L 62 351
L 64 351
L 67 351
L 69 351
L 72 351
L 75 351
L 77 351
L 80 351
L 82 351
L 85 351
L 87 351
L 90 351
L 93 351
L 95 351
L 98 351
L 100 351
L 103 351
L 106 350
L 108 351
L 111 350
L 113 351
L 116 351
L 118 351
L 121 351
L 124 351
L 126 351
L 129 351
L 131 350
L 134 351
L 136 351
L 139 351
L 142 350
L 144 351
L 147 351
L 149 351
L 152 351
L 155 351
L 157 351
L 160 351
L 162 351
L 165 351
L 167 351
L 170 350
L 173 351
L 175 350
L 178 351
L 180 351
L 183 351
L 185 351
L 188 350
L 191 351
L 193 351
L 196 351
L 198 351
L 201 351
L 204 351
L 206 351
L 209 351
L 211 351
L 214 351
L 216 351
L 219 351
L 222 351
L 224 351
L 227 351
L 229 351
L 232 351
L 234 351
L 237 351
L 240 351
L 242 351
L 245 351
L 247 351
L 250 351
L 253 351
L 255 351
L 258 351
L 260 351
L 263 351
L 265 351
L 268 351
L 271 351
L 273 351
L 276 351
L 278 351
L 281 351
L 283 351
L 286 351
L 289 351
L 291 351
L 294 351
L 296 351
L 299 351
L 302 351
L 304 351
L 307 351
L 309 351
L 312 351
L 314 351
L 317 351
L 320 351
L 322 351
L 325 351
L 327 351
L 330 351
L 332 351
L 335 351
L 338 351
L 340 351
L 343 351
L 345 351
L 348 351
L 351 351
L 353 351
L 356 351
L 358 351
L 361 351
L 363 351
L 366 351
L 369 351
L 371 351
L 374 351
L 376 351
L 379 351
L 381 351
L 384 351
L 387 351
L 389 351
L 392 351
L 394 351
L 397 351
L 400 351
L 402 351
L 405 351
L 407 351
L 410 351
L 412 351
L 415 351
L 418 351
L 420 351
L 423 351
L 425 351
L 428 351
L 430 351
L 433 351
L 436 351
L 438 351
L 441 351
L 443 351
L 446 351
L 449 351
L 451 351
L 454 351
L 456 351
L 459 351
L 461 351
L 464 351
L 467 351
L 469 351
L 472 351
L 474 351
L 477 351
L 479 351
L 482 351
L 485 351
L 487 351
L 490 351
L 492 351
L 495 351
L 498 351
L 500 351
L 503 351
L 505 351
L 508 351
L 510 351
L 513 351
L 516 351
L 518 351
L 521 351
L 523 351
L 526 351
L 528 351
L 531 351
L 534 351
L 536 351
L 539 351
L 541 351
L 544 351
L 547 351
L 549 351
L 552 351
L 554 351
L 557 351
L 559 351
L 562 351
L 565 351
L 567 351
L 570 351
L 572 351
L 575 351
L 577 351
L 580 351
L 583 351
L 585 351
L 588 351
L 590 351
L 593 351
L 596 351
L 598 351
L 601 350
L 603 351
L 606 351
L 608 350
L 611 351
L 614 351
L 616 351
L 619 351
L 621 351
L 624 351
L 626 348
L 629 351
L 632 351
L 634 351
L 637 351
L 639 351
L 642 351
L 645 351
L 647 351
L 650 350
L 652 351
L 655 351
L 657 351
L 660 351
L 663 351
L 665 351
L 668 351
L 670 351
L 673 350
L 675 351
L 678 351
L 681 351
L 683 351
L 686 351
L 688 350
L 691 351
L 694 350
L 696 350
L 699 351
L 701 351
L 704 351
L 706 351
L 709 351
L 712 349
L 714 349
L 717 350
L 719 351
L 722 351
L 724 350
L 727 351
L 730 351
L 732 350
L 735 350
L 737 351
L 740 348
L 743 350
L 745 350
L 748 349
L 750 350
L 753 351
L 755 348
L 758 351
L 761 349
L 763 350
L 766 351
L 768 350
L 771 349
L 773 351
L 776 351
L 779 350
L 781 349
L 784 350
L 786 351
L 789 350
L 792 350
L 794 350
L 797 350
L 799 351
L 802 351
L 804 349
L 807 350
L 810 351
L 812 350
L 815 350
L 817 351
L 820 350
L 822 351
L 825 351
L 828 351
L 830 351
L 833 351
L 835 350
L 838 349
L 841 351
L 843 351
L 846 349
L 848 348
L 851 348
L 853 349
L 856 346
L 859 350
L 861 349
L 864 350
L 866 350
L 869 351
L 871 350
L 874 349
L 877 350
L 879 351
L 882 351
L 884 351
L 887 350
L 890 351
L 892 350
L 895 350
L 897 351
L 900 350
L 902 349
L 905 351
L 908 351
L 910 351
L 913 350
L 915 351
L 918 351
L 920 350
L 923 351
L 926 349
L 928 351
L 931 351
L 933 351
L 936 351
L 939 351
L 941 349
L 944 351
L 946 351
L 949 350
L 951 351
L 954 351
L 957 351
L 959 351
L 962 351
L 964 351
L 967 351
L 969 351" style="stroke-width:1;stroke:rgba(217,0,116,1.0);fill:none"/><text x="408" y="33" style="stroke-width:0;stroke:none;fill:rgba(51,51,51,1.0);font-size:23.0px;font-family:'Roboto Medium',sans-serif">Mödling 21.02.2021</text><path  d="M 38 11
L 251 11
L 251 91
L 38 91
L 38 11" style="stroke-width:1;stroke:rgba(51,51,51,1.0);fill:rgba(255,255,255,1.0)"/><text x="43" y="26" style="stroke-width:0;stroke:none;fill:rgba(51,51,51,1.0);font-size:10.2px;font-family:'Roboto Medium',sans-serif">Sieben Tage Durschnitt Inzidenz Fälle</text><path  d="M 221 21
L 241 21" style="stroke-width:1;stroke:rgba(0,116,217,1.0);fill:none"/><text x="43" y="56" style="stroke-width:0;stroke:none;fill:rgba(51,51,51,1.0);font-size:10.2px;font-family:'Roboto Medium',sans-serif">Anzahl Faelle</text><path  d="M 110 51
L 241 51" style="stroke-width:1;stroke:rgba(0,217,101,1.0);fill:none"/><text x="43" y="86" style="stroke-width:0;stroke:none;fill:rgba(51,51,51,1.0);font-size:10.2px;font-family:'Roboto Medium',sans-serif">Anzahl Tot</text><path  d="M 98 81
L 241 81" style="stroke-width:1;stroke:rgba(217,0,116,1.0);fill:none"/></svg>