<svg xmlns="http://www.w3.org/2000/svg" xmlns:xlink="http://www.w3.org/1999/xlink" width="1024" height="400">\n<path  d="M 0 0
L 1024 0
L 1024 400
L 0 400
L 0 0" style="stroke-width:0;stroke:rgba(255,255,255,1.0);fill:rgba(255,255,255,1.0)"/><path  d="M 38 11
L 969 11
L 969 351
L 38 351
L 38 11" style="stroke-width:0;stroke:rgba(255,255,255,1.0);fill:rgba(255,255,255,1.0)"/><path  d="M 38 351
L 969 351" style="stroke-width:1;stroke:rgba(51,51,51,1.0);fill:none"/><path  d="M 38 351
L 38 356" style="stroke-width:1;stroke:rgba(51,51,51,1.0);fill:none"/><text x="5" y="373" style="stroke-width:0;stroke:none;fill:rgba(51,51,51,1.0);font-size:12.8px;font-family:'Roboto Medium',sans-serif">2020-02-26</text><path  d="M 155 351
L 155 356" style="stroke-width:1;stroke:rgba(51,51,51,1.0);fill:none"/><text x="122" y="373" style="stroke-width:0;stroke:none;fill:rgba(51,51,51,1.0);font-size:12.8px;font-family:'Roboto Medium',sans-serif">2020-04-27</text><path  d="M 271 351
L 271 356" style="stroke-width:1;stroke:rgba(51,51,51,1.0);fill:none"/><text x="238" y="373" style="stroke-width:0;stroke:none;fill:rgba(51,51,51,1.0);font-size:12.8px;font-family:'Roboto Medium',sans-serif">2020-06-28</text><path  d="M 388 351
L 388 356" style="stroke-width:1;stroke:rgba(51,51,51,1.0);fill:none"/><text x="355" y="373" style="stroke-width:0;stroke:none;fill:rgba(51,51,51,1.0);font-size:12.8px;font-family:'Roboto Medium',sans-serif">2020-08-29</text><path  d="M 504 351
L 504 356" style="stroke-width:1;stroke:rgba(51,51,51,1.0);fill:none"/><text x="471" y="373" style="stroke-width:0;stroke:none;fill:rgba(51,51,51,1.0);font-size:12.8px;font-family:'Roboto Medium',sans-serif">2020-10-30</text><path  d="M 620 351
L 620 356" style="stroke-width:1;stroke:rgba(51,51,51,1.0);fill:none"/><text x="587" y="373" style="stroke-width:0;stroke:none;fill:rgba(51,51,51,1.0);font-size:12.8px;font-family:'Roboto Medium',sans-serif">2020-12-31</text><path  d="M 737 351
L 737 356" style="stroke-width:1;stroke:rgba(51,51,51,1.0);fill:none"/><text x="704" y="373" style="stroke-width:0;stroke:none;fill:rgba(51,51,51,1.0);font-size:12.8px;font-family:'Roboto Medium',sans-serif">2021-03-03</text><path  d="M 853 351
L 853 356" style="stroke-width:1;stroke:rgba(51,51,51,1.0);fill:none"/><text x="820" y="373" style="stroke-width:0;stroke:none;fill:rgba(51,51,51,1.0);font-size:12.8px;font-family:'Roboto Medium',sans-serif">2021-05-04</text><path  d="M 969 351
L 969 356" style="stroke-width:1;stroke:rgba(51,51,51,1.0);fill:none"/><text x="936" y="373" style="stroke-width:0;stroke:none;fill:rgba(51,51,51,1.0);font-size:12.8px;font-family:'Roboto Medium',sans-serif">2021-07-05</text><text x="485" y="395" style="stroke-width:0;stroke:none;fill:rgba(51,51,51,1.0);font-size:12.8px;font-family:'Roboto Medium',sans-serif">Datum</text><path  d="M 970 351
L 970 11" style="stroke-width:1;stroke:rgba(51,51,51,1.0);fill:none"/><path  d="M 970 351
L 975 351" style="stroke-width:1;stroke:rgba(51,51,51,1.0);fill:none"/><text x="980" y="357" style="stroke-width:0;stroke:none;fill:rgba(51,51,51,1.0);font-size:12.8px;font-family:'Roboto Medium',sans-serif">0.00</text><path  d="M 970 308
L 975 308" style="stroke-width:1;stroke:rgba(51,51,51,1.0);fill:none"/><text x="980" y="314" style="stroke-width:0;stroke:none;fill:rgba(51,51,51,1.0);font-size:12.8px;font-family:'Roboto Medium',sans-serif">48.00</text><path  d="M 970 266
L 975 266" style="stroke-width:1;stroke:rgba(51,51,51,1.0);fill:none"/><text x="980" y="272" style="stroke-width:0;stroke:none;fill:rgba(51,51,51,1.0);font-size:12.8px;font-family:'Roboto Medium',sans-serif">95.00</text><path  d="M 970 223
L 975 223" style="stroke-width:1;stroke:rgba(51,51,51,1.0);fill:none"/><text x="980" y="229" style="stroke-width:0;stroke:none;fill:rgba(51,51,51,1.0);font-size:12.8px;font-family:'Roboto Medium',sans-serif">143.00</text><path  d="M 970 181
L 975 181" style="stroke-width:1;stroke:rgba(51,51,51,1.0);fill:none"/><text x="980" y="187" style="stroke-width:0;stroke:none;fill:rgba(51,51,51,1.0);font-size:12.8px;font-family:'Roboto Medium',sans-serif">190.00</text><path  d="M 970 138
L 975 138" style="stroke-width:1;stroke:rgba(51,51,51,1.0);fill:none"/><text x="980" y="144" style="stroke-width:0;stroke:none;fill:rgba(51,51,51,1.0);font-size:12.8px;font-family:'Roboto Medium',sans-serif">238.00</text><path  d="M 970 96
L 975 96" style="stroke-width:1;stroke:rgba(51,51,51,1.0);fill:none"/><text x="980" y="102" style="stroke-width:0;stroke:none;fill:rgba(51,51,51,1.0);font-size:12.8px;font-family:'Roboto Medium',sans-serif">285.00</text><path  d="M 970 53
L 975 53" style="stroke-width:1;stroke:rgba(51,51,51,1.0);fill:none"/><text x="980" y="59" style="stroke-width:0;stroke:none;fill:rgba(51,51,51,1.0);font-size:12.8px;font-family:'Roboto Medium',sans-serif">333.00</text><path  d="M 970 11
L 975 11" style="stroke-width:1;stroke:rgba(51,51,51,1.0);fill:none"/><text x="980" y="17" style="stroke-width:0;stroke:none;fill:rgba(51,51,51,1.0);font-size:12.8px;font-family:'Roboto Medium',sans-serif">380.00</text><path  d="M 38 351
L 40 351
L 42 351
L 44 351
L 46 351
L 48 351
L 50 351
L 52 351
L 54 351
L 55 351
L 57 351
L 59 351
L 61 351
L 63 350
L 65 349
L 67 348
L 69 347
L 70 344
L 72 338
L 74 335
L 76 327
L 78 326
L 80 324
L 82 321
L 84 324
L 86 323
L 87 320
L 89 322
L 91 320
L 93 316
L 95 310
L 97 309
L 99 315
L 101 312
L 102 317
L 104 318
L 106 320
L 108 327
L 110 327
L 112 328
L 114 329
L 116 326
L 117 326
L 119 331
L 121 332
L 123 332
L 125 333
L 127 340
L 129 342
L 131 344
L 133 344
L 134 345
L 136 346
L 138 347
L 140 345
L 142 347
L 144 348
L 146 348
L 148 349
L 149 349
L 151 349
L 153 349
L 155 349
L 157 347
L 159 347
L 161 347
L 163 347
L 165 347
L 166 348
L 168 348
L 170 350
L 172 350
L 174 350
L 176 350
L 178 350
L 180 350
L 181 350
L 183 349
L 185 349
L 187 347
L 189 347
L 191 347
L 193 346
L 195 346
L 196 346
L 198 346
L 200 347
L 202 347
L 204 347
L 206 346
L 208 345
L 210 345
L 212 346
L 213 346
L 215 346
L 217 347
L 219 349
L 221 350
L 223 351
L 225 351
L 227 351
L 228 351
L 230 350
L 232 350
L 234 350
L 236 350
L 238 349
L 240 349
L 242 348
L 244 349
L 245 349
L 247 349
L 249 349
L 251 350
L 253 350
L 255 351
L 257 348
L 259 348
L 260 347
L 262 346
L 264 345
L 266 345
L 268 345
L 270 346
L 272 346
L 274 346
L 275 347
L 277 347
L 279 347
L 281 347
L 283 348
L 285 348
L 287 349
L 289 347
L 291 347
L 292 346
L 294 346
L 296 346
L 298 345
L 300 344
L 302 344
L 304 344
L 306 345
L 307 345
L 309 345
L 311 346
L 313 347
L 315 346
L 317 347
L 319 347
L 321 346
L 323 346
L 324 346
L 326 345
L 328 347
L 330 347
L 332 344
L 334 344
L 336 345
L 338 344
L 339 344
L 341 341
L 343 340
L 345 340
L 347 341
L 349 340
L 351 341
L 353 340
L 354 341
L 356 341
L 358 342
L 360 339
L 362 340
L 364 340
L 366 341
L 368 342
L 370 338
L 371 339
L 373 341
L 375 338
L 377 338
L 379 337
L 381 335
L 383 337
L 385 335
L 386 333
L 388 334
L 390 334
L 392 333
L 394 333
L 396 333
L 398 329
L 400 332
L 401 328
L 403 325
L 405 323
L 407 315
L 409 311
L 411 305
L 413 301
L 415 304
L 417 301
L 418 304
L 420 310
L 422 308
L 424 314
L 426 316
L 428 312
L 430 313
L 432 304
L 433 303
L 435 302
L 437 300
L 439 299
L 441 298
L 443 301
L 445 304
L 447 302
L 449 305
L 450 307
L 452 301
L 454 297
L 456 290
L 458 283
L 460 278
L 462 268
L 464 263
L 465 248
L 467 251
L 469 251
L 471 256
L 473 257
L 475 263
L 477 261
L 479 272
L 480 265
L 482 255
L 484 254
L 486 235
L 488 218
L 490 208
L 492 192
L 494 190
L 496 190
L 497 171
L 499 174
L 501 161
L 503 139
L 505 134
L 507 101
L 509 75
L 511 45
L 512 29
L 514 29
L 516 23
L 518 12
L 520 26
L 522 32
L 524 61
L 526 56
L 528 69
L 529 71
L 531 93
L 533 104
L 535 126
L 537 121
L 539 144
L 541 152
L 543 166
L 544 161
L 546 175
L 548 174
L 550 181
L 552 185
L 554 181
L 556 205
L 558 217
L 559 204
L 561 200
L 563 209
L 565 212
L 567 218
L 569 203
L 571 202
L 573 207
L 575 214
L 576 204
L 578 213
L 580 197
L 582 206
L 584 196
L 586 205
L 588 192
L 590 195
L 591 190
L 593 207
L 595 210
L 597 227
L 599 223
L 601 240
L 603 234
L 605 233
L 607 229
L 608 234
L 610 239
L 612 245
L 614 248
L 616 254
L 618 254
L 620 266
L 622 260
L 623 260
L 625 244
L 627 241
L 629 249
L 631 251
L 633 246
L 635 242
L 637 242
L 638 255
L 640 251
L 642 251
L 644 258
L 646 258
L 648 266
L 650 266
L 652 268
L 654 273
L 655 278
L 657 281
L 659 290
L 661 290
L 663 288
L 665 291
L 667 291
L 669 291
L 670 282
L 672 282
L 674 282
L 676 282
L 678 281
L 680 283
L 682 281
L 684 287
L 685 285
L 687 284
L 689 285
L 691 287
L 693 281
L 695 284
L 697 279
L 699 278
L 701 284
L 702 282
L 704 276
L 706 282
L 708 278
L 710 281
L 712 280
L 714 259
L 716 247
L 717 244
L 719 234
L 721 229
L 723 218
L 725 206
L 727 207
L 729 195
L 731 193
L 733 188
L 734 185
L 736 179
L 738 179
L 740 172
L 742 181
L 744 182
L 746 185
L 748 186
L 749 185
L 751 184
L 753 185
L 755 181
L 757 188
L 759 179
L 761 176
L 763 170
L 764 169
L 766 140
L 768 140
L 770 124
L 772 125
L 774 100
L 776 100
L 778 93
L 780 128
L 781 139
L 783 128
L 785 133
L 787 143
L 789 136
L 791 134
L 793 113
L 795 97
L 796 111
L 798 116
L 800 130
L 802 151
L 804 166
L 806 176
L 808 200
L 810 197
L 812 206
L 813 206
L 815 217
L 817 219
L 819 235
L 821 227
L 823 232
L 825 233
L 827 239
L 828 241
L 830 239
L 832 247
L 834 255
L 836 271
L 838 267
L 840 269
L 842 269
L 843 278
L 845 284
L 847 290
L 849 290
L 851 303
L 853 311
L 855 314
L 857 317
L 859 321
L 860 322
L 862 324
L 864 316
L 866 319
L 868 317
L 870 314
L 872 307
L 874 308
L 875 311
L 877 315
L 879 317
L 881 320
L 883 326
L 885 331
L 887 332
L 889 333
L 891 338
L 892 339
L 894 342
L 896 343
L 898 344
L 900 341
L 902 340
L 904 340
L 906 340
L 907 341
L 909 343
L 911 343
L 913 346
L 915 347
L 917 347
L 919 347
L 921 347
L 922 347
L 924 346
L 926 347
L 928 346
L 930 344
L 932 344
L 934 344
L 936 344
L 938 341
L 939 336
L 941 336
L 943 337
L 945 336
L 947 337
L 949 337
L 951 338
L 953 341
L 954 341
L 956 338
L 958 339
L 960 340
L 962 340
L 964 342
L 966 343
L 968 344
L 969 344" style="stroke-width:1;stroke:rgba(0,116,217,1.0);fill:none"/><path  d="M 38 351
L 40 351
L 42 351
L 44 351
L 46 351
L 48 351
L 50 351
L 52 351
L 54 351
L 55 351
L 57 351
L 59 351
L 61 351
L 63 350
L 65 350
L 67 350
L 69 350
L 70 347
L 72 342
L 74 348
L 76 340
L 78 349
L 80 347
L 82 346
L 84 351
L 86 341
L 87 344
L 89 342
L 91 346
L 93 342
L 95 339
L 97 350
L 99 348
L 101 341
L 102 349
L 104 347
L 106 345
L 108 347
L 110 350
L 112 349
L 114 342
L 116 345
L 117 347
L 119 351
L 121 349
L 123 350
L 125 350
L 127 351
L 129 348
L 131 350
L 133 351
L 134 350
L 136 351
L 138 351
L 140 349
L 142 351
L 144 351
L 146 351
L 148 351
L 149 351
L 151 351
L 153 349
L 155 351
L 157 349
L 159 350
L 161 351
L 163 351
L 165 351
L 166 351
L 168 351
L 170 351
L 172 350
L 174 351
L 176 351
L 178 351
L 180 351
L 181 351
L 183 350
L 185 350
L 187 349
L 189 351
L 191 351
L 193 349
L 195 351
L 196 350
L 198 350
L 200 351
L 202 351
L 204 350
L 206 348
L 208 350
L 210 350
L 212 351
L 213 351
L 215 351
L 217 351
L 219 351
L 221 351
L 223 351
L 225 351
L 227 351
L 228 351
L 230 350
L 232 351
L 234 351
L 236 351
L 238 350
L 240 351
L 242 350
L 244 351
L 245 351
L 247 351
L 249 351
L 251 351
L 253 351
L 255 351
L 257 348
L 259 351
L 260 349
L 262 350
L 264 350
L 266 351
L 268 351
L 270 349
L 272 351
L 274 349
L 275 351
L 277 351
L 279 351
L 281 351
L 283 350
L 285 351
L 287 350
L 289 349
L 291 350
L 292 350
L 294 351
L 296 350
L 298 350
L 300 348
L 302 350
L 304 350
L 306 351
L 307 351
L 309 350
L 311 351
L 313 350
L 315 348
L 317 351
L 319 351
L 321 350
L 323 350
L 324 351
L 326 349
L 328 351
L 330 351
L 332 347
L 334 350
L 336 351
L 338 350
L 339 348
L 341 348
L 343 349
L 345 347
L 347 351
L 349 350
L 351 351
L 353 347
L 354 349
L 356 350
L 358 348
L 360 347
L 362 351
L 364 351
L 366 349
L 368 350
L 370 345
L 371 349
L 373 349
L 375 347
L 377 351
L 379 348
L 381 348
L 383 347
L 385 347
L 386 346
L 388 348
L 390 351
L 392 347
L 394 348
L 396 347
L 398 342
L 400 349
L 401 343
L 403 347
L 405 345
L 407 338
L 409 342
L 411 335
L 413 343
L 415 347
L 417 343
L 418 349
L 420 345
L 422 340
L 424 343
L 426 345
L 428 342
L 430 344
L 432 338
L 433 344
L 435 338
L 437 342
L 439 343
L 441 342
L 443 348
L 445 342
L 447 342
L 449 342
L 450 343
L 452 336
L 454 337
L 456 339
L 458 334
L 460 336
L 462 330
L 464 338
L 465 318
L 467 340
L 469 339
L 471 340
L 473 337
L 475 337
L 477 336
L 479 332
L 480 331
L 482 327
L 484 338
L 486 315
L 488 317
L 490 325
L 492 313
L 494 328
L 496 327
L 497 316
L 499 318
L 501 300
L 503 299
L 505 307
L 507 289
L 509 297
L 511 280
L 512 299
L 514 301
L 516 291
L 518 293
L 520 305
L 522 304
L 524 315
L 526 292
L 528 317
L 529 294
L 531 319
L 533 318
L 535 330
L 537 308
L 539 320
L 541 327
L 543 310
L 544 313
L 546 335
L 548 329
L 550 317
L 552 325
L 554 322
L 556 339
L 558 327
L 559 320
L 561 324
L 563 328
L 565 329
L 567 328
L 569 322
L 571 325
L 573 326
L 575 332
L 576 317
L 578 340
L 580 308
L 582 333
L 584 314
L 586 337
L 588 317
L 590 320
L 591 334
L 593 329
L 595 336
L 597 334
L 599 332
L 601 337
L 603 313
L 605 332
L 607 325
L 608 342
L 610 340
L 612 340
L 614 340
L 616 321
L 618 331
L 620 339
L 622 335
L 623 341
L 625 320
L 627 336
L 629 331
L 631 334
L 633 333
L 635 331
L 637 340
L 638 336
L 640 331
L 642 332
L 644 342
L 646 333
L 648 340
L 650 341
L 652 338
L 654 337
L 655 338
L 657 344
L 659 343
L 661 341
L 663 338
L 665 342
L 667 337
L 669 338
L 670 334
L 672 343
L 674 341
L 676 338
L 678 341
L 680 339
L 682 336
L 684 340
L 685 342
L 687 339
L 689 340
L 691 342
L 693 332
L 695 341
L 697 334
L 699 341
L 701 345
L 702 338
L 704 335
L 706 339
L 708 336
L 710 336
L 712 340
L 714 320
L 716 324
L 717 332
L 719 327
L 721 330
L 723 324
L 725 325
L 727 321
L 729 309
L 731 329
L 733 321
L 734 327
L 736 317
L 738 325
L 740 312
L 742 320
L 744 331
L 746 324
L 748 329
L 749 315
L 751 325
L 753 313
L 755 316
L 757 340
L 759 313
L 761 325
L 763 308
L 764 323
L 766 279
L 768 316
L 770 320
L 772 314
L 774 295
L 776 308
L 778 315
L 780 321
L 781 328
L 783 308
L 785 319
L 787 308
L 789 300
L 791 312
L 793 297
L 795 308
L 796 325
L 798 325
L 800 324
L 802 325
L 804 330
L 806 309
L 808 337
L 810 321
L 812 336
L 813 324
L 815 337
L 817 333
L 819 328
L 821 328
L 823 326
L 825 338
L 827 330
L 828 340
L 830 331
L 832 337
L 834 338
L 836 345
L 838 334
L 840 333
L 842 339
L 843 342
L 845 345
L 847 345
L 849 344
L 851 350
L 853 342
L 855 342
L 857 345
L 859 351
L 860 346
L 862 347
L 864 340
L 866 346
L 868 340
L 870 341
L 872 342
L 874 348
L 875 350
L 877 345
L 879 348
L 881 344
L 883 347
L 885 349
L 887 350
L 889 351
L 891 351
L 892 350
L 894 348
L 896 348
L 898 350
L 900 346
L 902 350
L 904 351
L 906 350
L 907 349
L 909 351
L 911 350
L 913 350
L 915 351
L 917 351
L 919 351
L 921 349
L 922 350
L 924 349
L 926 351
L 928 350
L 930 349
L 932 350
L 934 349
L 936 350
L 938 346
L 939 344
L 941 350
L 943 350
L 945 349
L 947 350
L 949 350
L 951 347
L 953 349
L 954 350
L 956 346
L 958 350
L 960 351
L 962 350
L 964 350
L 966 350
L 968 351
L 969 347" style="stroke-width:1;stroke:rgba(0,217,101,1.0);fill:none"/><path  d="M 38 351
L 40 351
L 42 351
L 44 351
L 46 351
L 48 351
L 50 351
L 52 351
L 54 351
L 55 351
L 57 351
L 59 351
L 61 351
L 63 351
L 65 351
L 67 351
L 69 351
L 70 351
L 72 351
L 74 351
L 76 351
L 78 351
L 80 351
L 82 351
L 84 351
L 86 351
L 87 350
L 89 351
L 91 350
L 93 351
L 95 351
L 97 351
L 99 351
L 101 351
L 102 351
L 104 351
L 106 350
L 108 351
L 110 351
L 112 351
L 114 350
L 116 351
L 117 351
L 119 351
L 121 351
L 123 351
L 125 351
L 127 351
L 129 351
L 131 351
L 133 351
L 134 350
L 136 351
L 138 350
L 140 351
L 142 351
L 144 351
L 146 351
L 148 350
L 149 351
L 151 351
L 153 351
L 155 351
L 157 351
L 159 351
L 161 351
L 163 351
L 165 351
L 166 351
L 168 351
L 170 351
L 172 351
L 174 351
L 176 351
L 178 351
L 180 351
L 181 351
L 183 351
L 185 351
L 187 351
L 189 351
L 191 351
L 193 351
L 195 351
L 196 351
L 198 351
L 200 351
L 202 351
L 204 351
L 206 351
L 208 351
L 210 351
L 212 351
L 213 351
L 215 351
L 217 351
L 219 351
L 221 351
L 223 351
L 225 351
L 227 351
L 228 351
L 230 351
L 232 351
L 234 351
L 236 351
L 238 351
L 240 351
L 242 351
L 244 351
L 245 351
L 247 351
L 249 351
L 251 351
L 253 351
L 255 351
L 257 351
L 259 351
L 260 351
L 262 351
L 264 351
L 266 351
L 268 351
L 270 351
L 272 351
L 274 351
L 275 351
L 277 351
L 279 351
L 281 351
L 283 351
L 285 351
L 287 351
L 289 351
L 291 351
L 292 351
L 294 351
L 296 351
L 298 351
L 300 351
L 302 351
L 304 351
L 306 351
L 307 351
L 309 351
L 311 351
L 313 351
L 315 351
L 317 351
L 319 351
L 321 351
L 323 351
L 324 351
L 326 351
L 328 351
L 330 351
L 332 351
L 334 351
L 336 351
L 338 351
L 339 351
L 341 351
L 343 351
L 345 351
L 347 351
L 349 351
L 351 351
L 353 351
L 354 351
L 356 351
L 358 351
L 360 351
L 362 351
L 364 351
L 366 351
L 368 351
L 370 351
L 371 351
L 373 351
L 375 351
L 377 351
L 379 351
L 381 351
L 383 351
L 385 351
L 386 351
L 388 351
L 390 351
L 392 351
L 394 351
L 396 351
L 398 351
L 400 351
L 401 351
L 403 351
L 405 351
L 407 351
L 409 351
L 411 351
L 413 351
L 415 351
L 417 351
L 418 351
L 420 351
L 422 351
L 424 351
L 426 351
L 428 351
L 430 351
L 432 351
L 433 351
L 435 351
L 437 351
L 439 351
L 441 351
L 443 351
L 445 351
L 447 351
L 449 350
L 450 351
L 452 351
L 454 350
L 456 351
L 458 351
L 460 351
L 462 351
L 464 351
L 465 351
L 467 348
L 469 351
L 471 351
L 473 351
L 475 351
L 477 351
L 479 351
L 480 351
L 482 351
L 484 350
L 486 351
L 488 351
L 490 351
L 492 351
L 494 351
L 496 351
L 497 351
L 499 351
L 501 350
L 503 351
L 505 351
L 507 351
L 509 351
L 511 351
L 512 350
L 514 351
L 516 350
L 518 350
L 520 351
L 522 351
L 524 351
L 526 351
L 528 351
L 529 349
L 531 349
L 533 350
L 535 351
L 537 351
L 539 350
L 541 351
L 543 351
L 544 350
L 546 350
L 548 351
L 550 348
L 552 350
L 554 350
L 556 349
L 558 350
L 559 351
L 561 348
L 563 351
L 565 349
L 567 350
L 569 351
L 571 350
L 573 349
L 575 351
L 576 351
L 578 350
L 580 349
L 582 350
L 584 351
L 586 350
L 588 350
L 590 350
L 591 350
L 593 351
L 595 351
L 597 349
L 599 350
L 601 351
L 603 350
L 605 350
L 607 351
L 608 350
L 610 351
L 612 351
L 614 351
L 616 351
L 618 351
L 620 350
L 622 349
L 623 351
L 625 351
L 627 349
L 629 348
L 631 348
L 633 349
L 635 346
L 637 350
L 638 349
L 640 350
L 642 350
L 644 351
L 646 350
L 648 349
L 650 350
L 652 351
L 654 351
L 655 351
L 657 350
L 659 351
L 661 350
L 663 350
L 665 351
L 667 350
L 669 349
L 670 351
L 672 351
L 674 351
L 676 350
L 678 351
L 680 351
L 682 350
L 684 351
L 685 349
L 687 351
L 689 351
L 691 351
L 693 351
L 695 351
L 697 349
L 699 351
L 701 351
L 702 350
L 704 351
L 706 351
L 708 351
L 710 351
L 712 351
L 714 351
L 716 351
L 717 351
L 719 351
L 721 350
L 723 350
L 725 351
L 727 351
L 729 350
L 731 351
L 733 351
L 734 351
L 736 349
L 738 351
L 740 351
L 742 351
L 744 350
L 746 350
L 748 351
L 749 351
L 751 351
L 753 350
L 755 351
L 757 351
L 759 351
L 761 351
L 763 351
L 764 351
L 766 351
L 768 350
L 770 351
L 772 351
L 774 351
L 776 350
L 778 351
L 780 350
L 781 350
L 783 351
L 785 351
L 787 351
L 789 351
L 791 351
L 793 350
L 795 351
L 796 351
L 798 349
L 800 351
L 802 351
L 804 351
L 806 351
L 808 351
L 810 351
L 812 351
L 813 351
L 815 351
L 817 350
L 819 350
L 821 351
L 823 351
L 825 351
L 827 351
L 828 351
L 830 350
L 832 351
L 834 351
L 836 350
L 838 351
L 840 351
L 842 351
L 843 351
L 845 351
L 847 351
L 849 351
L 851 351
L 853 351
L 855 351
L 857 351
L 859 351
L 860 351
L 862 351
L 864 351
L 866 351
L 868 351
L 870 351
L 872 351
L 874 351
L 875 351
L 877 351
L 879 351
L 881 351
L 883 351
L 885 350
L 887 351
L 889 351
L 891 351
L 892 351
L 894 350
L 896 351
L 898 350
L 900 351
L 902 351
L 904 351
L 906 351
L 907 351
L 909 351
L 911 351
L 913 351
L 915 351
L 917 351
L 919 351
L 921 351
L 922 351
L 924 350
L 926 351
L 928 351
L 930 351
L 932 351
L 934 351
L 936 351
L 938 351
L 939 351
L 941 351
L 943 351
L 945 351
L 947 351
L 949 351
L 951 351
L 953 351
L 954 351
L 956 350
L 958 351
L 960 351
L 962 351
L 964 351
L 966 351
L 968 351
L 969 351" style="stroke-width:1;stroke:rgba(217,0,116,1.0);fill:none"/><text x="408" y="33" style="stroke-width:0;stroke:none;fill:rgba(51,51,51,1.0);font-size:23.0px;font-family:'Roboto Medium',sans-serif">Mödling 05.07.2021</text><path  d="M 38 11
L 251 11
L 251 91
L 38 91
L 38 11" style="stroke-width:1;stroke:rgba(51,51,51,1.0);fill:rgba(255,255,255,1.0)"/><text x="43" y="26" style="stroke-width:0;stroke:none;fill:rgba(51,51,51,1.0);font-size:10.2px;font-family:'Roboto Medium',sans-serif">Sieben Tage Durschnitt Inzidenz Fälle</text><path  d="M 221 21
L 241 21" style="stroke-width:1;stroke:rgba(0,116,217,1.0);fill:none"/><text x="43" y="56" style="stroke-width:0;stroke:none;fill:rgba(51,51,51,1.0);font-size:10.2px;font-family:'Roboto Medium',sans-serif">Anzahl Faelle</text><path  d="M 110 51
L 241 51" style="stroke-width:1;stroke:rgba(0,217,101,1.0);fill:none"/><text x="43" y="86" style="stroke-width:0;stroke:none;fill:rgba(51,51,51,1.0);font-size:10.2px;font-family:'Roboto Medium',sans-serif">Anzahl Tot</text><path  d="M 98 81
L 241 81" style="stroke-width:1;stroke:rgba(217,0,116,1.0);fill:none"/></svg>