<svg xmlns="http://www.w3.org/2000/svg" xmlns:xlink="http://www.w3.org/1999/xlink" width="1024" height="400">\n<path  d="M 0 0
L 1024 0
L 1024 400
L 0 400
L 0 0" style="stroke-width:0;stroke:rgba(255,255,255,1.0);fill:rgba(255,255,255,1.0)"/><path  d="M 38 11
L 961 11
L 961 351
L 38 351
L 38 11" style="stroke-width:0;stroke:rgba(255,255,255,1.0);fill:rgba(255,255,255,1.0)"/><path  d="M 38 351
L 961 351" style="stroke-width:1;stroke:rgba(51,51,51,1.0);fill:none"/><path  d="M 38 351
L 38 356" style="stroke-width:1;stroke:rgba(51,51,51,1.0);fill:none"/><text x="5" y="373" style="stroke-width:0;stroke:none;fill:rgba(51,51,51,1.0);font-size:12.8px;font-family:'Roboto Medium',sans-serif">2020-02-26</text><path  d="M 154 351
L 154 356" style="stroke-width:1;stroke:rgba(51,51,51,1.0);fill:none"/><text x="121" y="373" style="stroke-width:0;stroke:none;fill:rgba(51,51,51,1.0);font-size:12.8px;font-family:'Roboto Medium',sans-serif">2020-06-10</text><path  d="M 269 351
L 269 356" style="stroke-width:1;stroke:rgba(51,51,51,1.0);fill:none"/><text x="236" y="373" style="stroke-width:0;stroke:none;fill:rgba(51,51,51,1.0);font-size:12.8px;font-family:'Roboto Medium',sans-serif">2020-09-24</text><path  d="M 385 351
L 385 356" style="stroke-width:1;stroke:rgba(51,51,51,1.0);fill:none"/><text x="352" y="373" style="stroke-width:0;stroke:none;fill:rgba(51,51,51,1.0);font-size:12.8px;font-family:'Roboto Medium',sans-serif">2021-01-07</text><path  d="M 500 351
L 500 356" style="stroke-width:1;stroke:rgba(51,51,51,1.0);fill:none"/><text x="467" y="373" style="stroke-width:0;stroke:none;fill:rgba(51,51,51,1.0);font-size:12.8px;font-family:'Roboto Medium',sans-serif">2021-04-23</text><path  d="M 615 351
L 615 356" style="stroke-width:1;stroke:rgba(51,51,51,1.0);fill:none"/><text x="582" y="373" style="stroke-width:0;stroke:none;fill:rgba(51,51,51,1.0);font-size:12.8px;font-family:'Roboto Medium',sans-serif">2021-08-07</text><path  d="M 731 351
L 731 356" style="stroke-width:1;stroke:rgba(51,51,51,1.0);fill:none"/><text x="698" y="373" style="stroke-width:0;stroke:none;fill:rgba(51,51,51,1.0);font-size:12.8px;font-family:'Roboto Medium',sans-serif">2021-11-20</text><path  d="M 846 351
L 846 356" style="stroke-width:1;stroke:rgba(51,51,51,1.0);fill:none"/><text x="813" y="373" style="stroke-width:0;stroke:none;fill:rgba(51,51,51,1.0);font-size:12.8px;font-family:'Roboto Medium',sans-serif">2022-03-06</text><path  d="M 961 351
L 961 356" style="stroke-width:1;stroke:rgba(51,51,51,1.0);fill:none"/><text x="928" y="373" style="stroke-width:0;stroke:none;fill:rgba(51,51,51,1.0);font-size:12.8px;font-family:'Roboto Medium',sans-serif">2022-06-20</text><text x="481" y="395" style="stroke-width:0;stroke:none;fill:rgba(51,51,51,1.0);font-size:12.8px;font-family:'Roboto Medium',sans-serif">Datum</text><path  d="M 962 351
L 962 11" style="stroke-width:1;stroke:rgba(51,51,51,1.0);fill:none"/><path  d="M 962 351
L 967 351" style="stroke-width:1;stroke:rgba(51,51,51,1.0);fill:none"/><text x="972" y="357" style="stroke-width:0;stroke:none;fill:rgba(51,51,51,1.0);font-size:12.8px;font-family:'Roboto Medium',sans-serif">0.00</text><path  d="M 962 308
L 967 308" style="stroke-width:1;stroke:rgba(51,51,51,1.0);fill:none"/><text x="972" y="314" style="stroke-width:0;stroke:none;fill:rgba(51,51,51,1.0);font-size:12.8px;font-family:'Roboto Medium',sans-serif">450.00</text><path  d="M 962 266
L 967 266" style="stroke-width:1;stroke:rgba(51,51,51,1.0);fill:none"/><text x="972" y="272" style="stroke-width:0;stroke:none;fill:rgba(51,51,51,1.0);font-size:12.8px;font-family:'Roboto Medium',sans-serif">900.00</text><path  d="M 962 223
L 967 223" style="stroke-width:1;stroke:rgba(51,51,51,1.0);fill:none"/><text x="972" y="229" style="stroke-width:0;stroke:none;fill:rgba(51,51,51,1.0);font-size:12.8px;font-family:'Roboto Medium',sans-serif">1350.00</text><path  d="M 962 181
L 967 181" style="stroke-width:1;stroke:rgba(51,51,51,1.0);fill:none"/><text x="972" y="187" style="stroke-width:0;stroke:none;fill:rgba(51,51,51,1.0);font-size:12.8px;font-family:'Roboto Medium',sans-serif">1800.00</text><path  d="M 962 138
L 967 138" style="stroke-width:1;stroke:rgba(51,51,51,1.0);fill:none"/><text x="972" y="144" style="stroke-width:0;stroke:none;fill:rgba(51,51,51,1.0);font-size:12.8px;font-family:'Roboto Medium',sans-serif">2250.00</text><path  d="M 962 96
L 967 96" style="stroke-width:1;stroke:rgba(51,51,51,1.0);fill:none"/><text x="972" y="102" style="stroke-width:0;stroke:none;fill:rgba(51,51,51,1.0);font-size:12.8px;font-family:'Roboto Medium',sans-serif">2700.00</text><path  d="M 962 53
L 967 53" style="stroke-width:1;stroke:rgba(51,51,51,1.0);fill:none"/><text x="972" y="59" style="stroke-width:0;stroke:none;fill:rgba(51,51,51,1.0);font-size:12.8px;font-family:'Roboto Medium',sans-serif">3150.00</text><path  d="M 962 11
L 967 11" style="stroke-width:1;stroke:rgba(51,51,51,1.0);fill:none"/><text x="972" y="17" style="stroke-width:0;stroke:none;fill:rgba(51,51,51,1.0);font-size:12.8px;font-family:'Roboto Medium',sans-serif">3600.00</text><path  d="M 38 351
L 40 351
L 41 351
L 42 351
L 43 351
L 44 351
L 45 351
L 46 351
L 47 351
L 48 351
L 49 351
L 51 351
L 52 351
L 53 350
L 54 350
L 55 350
L 56 350
L 57 350
L 58 349
L 59 349
L 60 348
L 61 348
L 63 348
L 64 347
L 65 348
L 66 348
L 67 347
L 68 348
L 69 347
L 70 347
L 71 346
L 72 346
L 73 347
L 75 347
L 76 347
L 77 347
L 78 347
L 79 348
L 80 348
L 81 348
L 82 348
L 83 348
L 84 348
L 85 348
L 87 349
L 88 349
L 89 349
L 90 349
L 91 350
L 92 350
L 93 350
L 94 350
L 95 350
L 96 350
L 97 350
L 99 350
L 100 350
L 101 350
L 102 350
L 103 350
L 104 350
L 105 350
L 106 350
L 107 350
L 108 350
L 109 350
L 111 350
L 112 350
L 113 350
L 114 350
L 115 350
L 116 350
L 117 350
L 118 350
L 119 350
L 120 350
L 122 350
L 123 350
L 124 350
L 125 350
L 126 350
L 127 350
L 128 350
L 129 350
L 130 350
L 131 350
L 132 350
L 134 350
L 135 350
L 136 350
L 137 350
L 138 350
L 139 350
L 140 350
L 141 350
L 142 350
L 143 350
L 144 350
L 146 351
L 147 351
L 148 351
L 149 351
L 150 350
L 151 350
L 152 350
L 153 350
L 154 350
L 155 350
L 156 350
L 158 350
L 159 350
L 160 350
L 161 350
L 162 350
L 163 350
L 164 351
L 165 350
L 166 350
L 167 350
L 168 350
L 170 350
L 171 350
L 172 350
L 173 350
L 174 350
L 175 350
L 176 350
L 177 350
L 178 350
L 179 350
L 180 350
L 182 350
L 183 350
L 184 350
L 185 350
L 186 350
L 187 350
L 188 350
L 189 350
L 190 350
L 191 350
L 193 350
L 194 350
L 195 350
L 196 350
L 197 350
L 198 350
L 199 350
L 200 350
L 201 350
L 202 350
L 203 350
L 205 350
L 206 350
L 207 350
L 208 350
L 209 350
L 210 350
L 211 350
L 212 350
L 213 350
L 214 349
L 215 349
L 217 349
L 218 349
L 219 349
L 220 349
L 221 349
L 222 349
L 223 349
L 224 350
L 225 349
L 226 349
L 227 349
L 229 349
L 230 349
L 231 349
L 232 349
L 233 349
L 234 349
L 235 349
L 236 349
L 237 349
L 238 349
L 239 349
L 241 349
L 242 349
L 243 349
L 244 349
L 245 349
L 246 349
L 247 348
L 248 349
L 249 348
L 250 348
L 251 348
L 253 347
L 254 346
L 255 346
L 256 345
L 257 346
L 258 345
L 259 346
L 260 346
L 261 346
L 262 347
L 264 347
L 265 346
L 266 346
L 267 345
L 268 345
L 269 345
L 270 345
L 271 345
L 272 345
L 273 345
L 274 346
L 276 345
L 277 346
L 278 346
L 279 345
L 280 345
L 281 344
L 282 343
L 283 343
L 284 342
L 285 341
L 286 340
L 288 340
L 289 340
L 290 341
L 291 341
L 292 341
L 293 341
L 294 342
L 295 341
L 296 340
L 297 340
L 298 338
L 300 336
L 301 335
L 302 334
L 303 333
L 304 334
L 305 332
L 306 332
L 307 330
L 308 328
L 309 328
L 310 324
L 312 321
L 313 318
L 314 317
L 315 317
L 316 316
L 317 315
L 318 316
L 319 317
L 320 320
L 321 319
L 322 321
L 324 321
L 325 323
L 326 324
L 327 327
L 328 326
L 329 328
L 330 329
L 331 331
L 332 330
L 333 332
L 335 332
L 336 332
L 337 333
L 338 333
L 339 335
L 340 336
L 341 335
L 342 334
L 343 335
L 344 335
L 345 336
L 347 335
L 348 334
L 349 335
L 350 336
L 351 335
L 352 336
L 353 334
L 354 335
L 355 334
L 356 335
L 357 334
L 359 334
L 360 333
L 361 335
L 362 335
L 363 337
L 364 337
L 365 339
L 366 338
L 367 338
L 368 338
L 369 338
L 371 339
L 372 339
L 373 339
L 374 340
L 375 340
L 376 342
L 377 341
L 378 341
L 379 340
L 380 339
L 381 340
L 383 341
L 384 340
L 385 339
L 386 339
L 387 340
L 388 340
L 389 340
L 390 341
L 391 340
L 392 341
L 393 341
L 395 342
L 396 342
L 397 343
L 398 343
L 399 344
L 400 344
L 401 344
L 402 344
L 403 344
L 404 344
L 406 343
L 407 343
L 408 343
L 409 343
L 410 343
L 411 343
L 412 343
L 413 344
L 414 344
L 415 344
L 416 344
L 418 344
L 419 343
L 420 343
L 421 343
L 422 343
L 423 344
L 424 343
L 425 343
L 426 343
L 427 343
L 428 343
L 430 343
L 431 341
L 432 339
L 433 339
L 434 338
L 435 338
L 436 337
L 437 335
L 438 335
L 439 334
L 440 334
L 442 333
L 443 333
L 444 332
L 445 332
L 446 331
L 447 332
L 448 332
L 449 333
L 450 333
L 451 333
L 452 332
L 454 333
L 455 332
L 456 333
L 457 332
L 458 332
L 459 331
L 460 331
L 461 328
L 462 328
L 463 326
L 464 327
L 466 324
L 467 324
L 468 323
L 469 327
L 470 328
L 471 327
L 472 327
L 473 328
L 474 328
L 475 328
L 477 326
L 478 324
L 479 325
L 480 326
L 481 327
L 482 329
L 483 331
L 484 332
L 485 335
L 486 334
L 487 335
L 489 335
L 490 336
L 491 336
L 492 338
L 493 337
L 494 338
L 495 338
L 496 339
L 497 339
L 498 339
L 499 340
L 501 340
L 502 342
L 503 342
L 504 342
L 505 342
L 506 343
L 507 344
L 508 344
L 509 344
L 510 346
L 511 346
L 513 347
L 514 347
L 515 347
L 516 348
L 517 348
L 518 347
L 519 347
L 520 347
L 521 347
L 522 346
L 523 346
L 525 346
L 526 347
L 527 347
L 528 347
L 529 348
L 530 348
L 531 349
L 532 349
L 533 349
L 534 349
L 535 350
L 537 350
L 538 350
L 539 349
L 540 349
L 541 349
L 542 349
L 543 349
L 544 350
L 545 350
L 546 350
L 548 350
L 549 350
L 550 350
L 551 350
L 552 350
L 553 350
L 554 350
L 555 350
L 556 350
L 557 350
L 558 350
L 560 350
L 561 350
L 562 349
L 563 349
L 564 349
L 565 349
L 566 349
L 567 349
L 568 349
L 569 349
L 570 349
L 572 349
L 573 349
L 574 349
L 575 349
L 576 350
L 577 350
L 578 350
L 579 350
L 580 349
L 581 349
L 582 349
L 584 349
L 585 349
L 586 349
L 587 349
L 588 349
L 589 349
L 590 349
L 591 349
L 592 349
L 593 348
L 594 348
L 596 348
L 597 348
L 598 348
L 599 348
L 600 348
L 601 348
L 602 348
L 603 348
L 604 348
L 605 348
L 606 348
L 608 347
L 609 347
L 610 347
L 611 347
L 612 347
L 613 347
L 614 346
L 615 347
L 616 347
L 617 347
L 619 347
L 620 346
L 621 345
L 622 344
L 623 344
L 624 344
L 625 344
L 626 344
L 627 344
L 628 345
L 629 346
L 631 346
L 632 346
L 633 345
L 634 345
L 635 345
L 636 345
L 637 344
L 638 345
L 639 345
L 640 345
L 641 343
L 643 343
L 644 342
L 645 341
L 646 340
L 647 339
L 648 339
L 649 337
L 650 337
L 651 337
L 652 337
L 653 337
L 655 337
L 656 338
L 657 340
L 658 340
L 659 339
L 660 341
L 661 342
L 662 342
L 663 342
L 664 342
L 665 342
L 667 343
L 668 343
L 669 343
L 670 342
L 671 342
L 672 341
L 673 341
L 674 341
L 675 341
L 676 340
L 677 342
L 679 343
L 680 343
L 681 344
L 682 344
L 683 344
L 684 343
L 685 343
L 686 343
L 687 343
L 688 343
L 690 343
L 691 342
L 692 342
L 693 341
L 694 339
L 695 338
L 696 337
L 697 335
L 698 334
L 699 335
L 700 335
L 702 335
L 703 335
L 704 335
L 705 335
L 706 334
L 707 333
L 708 331
L 709 329
L 710 328
L 711 325
L 712 322
L 714 319
L 715 317
L 716 317
L 717 315
L 718 313
L 719 309
L 720 309
L 721 308
L 722 306
L 723 303
L 724 300
L 726 299
L 727 298
L 728 295
L 729 295
L 730 294
L 731 291
L 732 289
L 733 291
L 734 294
L 735 293
L 736 291
L 738 293
L 739 298
L 740 302
L 741 303
L 742 303
L 743 307
L 744 312
L 745 316
L 746 319
L 747 322
L 748 325
L 750 330
L 751 332
L 752 334
L 753 335
L 754 335
L 755 336
L 756 337
L 757 337
L 758 337
L 759 338
L 761 338
L 762 339
L 763 339
L 764 338
L 765 338
L 766 338
L 767 337
L 768 337
L 769 336
L 770 335
L 771 336
L 773 334
L 774 333
L 775 332
L 776 331
L 777 330
L 778 325
L 779 318
L 780 314
L 781 310
L 782 306
L 783 300
L 785 292
L 786 281
L 787 271
L 788 262
L 789 255
L 790 246
L 791 245
L 792 242
L 793 238
L 794 231
L 795 229
L 797 215
L 798 209
L 799 199
L 800 188
L 801 182
L 802 171
L 803 162
L 804 160
L 805 155
L 806 149
L 807 152
L 809 157
L 810 158
L 811 161
L 812 164
L 813 166
L 814 171
L 815 174
L 816 171
L 817 180
L 818 181
L 819 185
L 821 187
L 822 186
L 823 182
L 824 180
L 825 162
L 826 155
L 827 147
L 828 147
L 829 150
L 830 152
L 832 154
L 833 155
L 834 159
L 835 158
L 836 162
L 837 160
L 838 163
L 839 160
L 840 163
L 841 163
L 842 160
L 844 154
L 845 150
L 846 144
L 847 138
L 848 132
L 849 110
L 850 95
L 851 80
L 852 71
L 853 57
L 854 46
L 856 25
L 857 25
L 858 21
L 859 18
L 860 16
L 861 20
L 862 22
L 863 34
L 864 41
L 865 51
L 866 65
L 868 73
L 869 85
L 870 97
L 871 111
L 872 127
L 873 139
L 874 149
L 875 159
L 876 163
L 877 177
L 878 187
L 880 194
L 881 203
L 882 207
L 883 211
L 884 220
L 885 222
L 886 231
L 887 235
L 888 241
L 889 240
L 890 243
L 892 245
L 893 250
L 894 256
L 895 256
L 896 260
L 897 264
L 898 269
L 899 271
L 900 272
L 901 277
L 903 283
L 904 287
L 905 288
L 906 289
L 907 293
L 908 289
L 909 290
L 910 292
L 911 291
L 912 292
L 913 293
L 915 293
L 916 299
L 917 299
L 918 301
L 919 305
L 920 307
L 921 309
L 922 310
L 923 313
L 924 316
L 925 318
L 927 321
L 928 323
L 929 323
L 930 325
L 931 325
L 932 326
L 933 326
L 934 327
L 935 327
L 936 327
L 937 326
L 939 325
L 940 324
L 941 324
L 942 321
L 943 320
L 944 320
L 945 319
L 946 321
L 947 322
L 948 318
L 949 319
L 951 315
L 952 314
L 953 314
L 954 310
L 955 305
L 956 301
L 957 298
L 958 297
L 959 292
L 960 285
L 961 279" style="stroke-width:1;stroke:rgba(0,116,217,1.0);fill:none"/><path  d="M 38 351
L 40 351
L 41 351
L 42 351
L 43 351
L 44 351
L 45 351
L 46 351
L 47 351
L 48 351
L 49 351
L 51 351
L 52 351
L 53 350
L 54 350
L 55 350
L 56 350
L 57 350
L 58 350
L 59 350
L 60 349
L 61 350
L 63 350
L 64 350
L 65 351
L 66 350
L 67 350
L 68 350
L 69 350
L 70 350
L 71 349
L 72 350
L 73 350
L 75 349
L 76 350
L 77 350
L 78 350
L 79 350
L 80 350
L 81 350
L 82 350
L 83 350
L 84 350
L 85 351
L 87 350
L 88 350
L 89 350
L 90 351
L 91 350
L 92 350
L 93 351
L 94 350
L 95 351
L 96 351
L 97 350
L 99 351
L 100 350
L 101 351
L 102 351
L 103 351
L 104 351
L 105 350
L 106 351
L 107 350
L 108 350
L 109 351
L 111 351
L 112 351
L 113 351
L 114 351
L 115 351
L 116 350
L 117 351
L 118 351
L 119 351
L 120 351
L 122 351
L 123 350
L 124 350
L 125 350
L 126 351
L 127 351
L 128 350
L 129 351
L 130 350
L 131 350
L 132 351
L 134 351
L 135 350
L 136 350
L 137 350
L 138 350
L 139 351
L 140 351
L 141 351
L 142 351
L 143 351
L 144 351
L 146 351
L 147 351
L 148 351
L 149 351
L 150 350
L 151 351
L 152 351
L 153 351
L 154 350
L 155 351
L 156 350
L 158 351
L 159 351
L 160 351
L 161 351
L 162 351
L 163 351
L 164 351
L 165 350
L 166 351
L 167 350
L 168 350
L 170 350
L 171 351
L 172 351
L 173 350
L 174 351
L 175 350
L 176 351
L 177 351
L 178 351
L 179 351
L 180 350
L 182 351
L 183 350
L 184 350
L 185 350
L 186 350
L 187 351
L 188 350
L 189 350
L 190 350
L 191 350
L 193 350
L 194 351
L 195 351
L 196 350
L 197 351
L 198 350
L 199 350
L 200 351
L 201 351
L 202 350
L 203 350
L 205 351
L 206 350
L 207 351
L 208 351
L 209 350
L 210 350
L 211 351
L 212 350
L 213 350
L 214 350
L 215 350
L 217 350
L 218 351
L 219 350
L 220 351
L 221 350
L 222 350
L 223 350
L 224 350
L 225 350
L 226 350
L 227 351
L 229 350
L 230 350
L 231 350
L 232 350
L 233 350
L 234 350
L 235 350
L 236 350
L 237 350
L 238 350
L 239 350
L 241 350
L 242 350
L 243 351
L 244 350
L 245 350
L 246 350
L 247 350
L 248 350
L 249 350
L 250 350
L 251 350
L 253 349
L 254 350
L 255 349
L 256 350
L 257 350
L 258 350
L 259 350
L 260 350
L 261 349
L 262 350
L 264 350
L 265 350
L 266 350
L 267 349
L 268 350
L 269 349
L 270 350
L 271 350
L 272 350
L 273 350
L 274 350
L 276 350
L 277 349
L 278 350
L 279 349
L 280 349
L 281 349
L 282 349
L 283 349
L 284 348
L 285 349
L 286 347
L 288 349
L 289 349
L 290 349
L 291 349
L 292 349
L 293 349
L 294 349
L 295 348
L 296 348
L 297 349
L 298 347
L 300 347
L 301 348
L 302 347
L 303 348
L 304 348
L 305 347
L 306 347
L 307 345
L 308 345
L 309 346
L 310 344
L 312 345
L 313 343
L 314 345
L 315 345
L 316 344
L 317 345
L 318 346
L 319 345
L 320 347
L 321 344
L 322 347
L 324 345
L 325 347
L 326 347
L 327 348
L 328 346
L 329 347
L 330 348
L 331 346
L 332 347
L 333 349
L 335 348
L 336 347
L 337 348
L 338 348
L 339 349
L 340 348
L 341 347
L 342 347
L 343 348
L 344 348
L 345 348
L 347 347
L 348 348
L 349 348
L 350 349
L 351 347
L 352 349
L 353 346
L 354 349
L 355 346
L 356 349
L 357 347
L 359 347
L 360 349
L 361 348
L 362 349
L 363 349
L 364 349
L 365 349
L 366 346
L 367 349
L 368 348
L 369 350
L 371 349
L 372 349
L 373 349
L 374 347
L 375 349
L 376 349
L 377 349
L 378 350
L 379 347
L 380 349
L 381 349
L 383 349
L 384 349
L 385 348
L 386 349
L 387 349
L 388 348
L 389 349
L 390 349
L 391 349
L 392 349
L 393 349
L 395 349
L 396 349
L 397 349
L 398 350
L 399 350
L 400 349
L 401 349
L 402 350
L 403 349
L 404 349
L 406 349
L 407 350
L 408 349
L 409 349
L 410 349
L 411 349
L 412 349
L 413 349
L 414 350
L 415 349
L 416 349
L 418 350
L 419 349
L 420 349
L 421 349
L 422 349
L 423 350
L 424 349
L 425 349
L 426 349
L 427 349
L 428 349
L 430 349
L 431 347
L 432 348
L 433 349
L 434 348
L 435 348
L 436 348
L 437 348
L 438 347
L 439 346
L 440 348
L 442 347
L 443 348
L 444 347
L 445 348
L 446 346
L 447 347
L 448 348
L 449 348
L 450 348
L 451 347
L 452 348
L 454 347
L 455 347
L 456 349
L 457 346
L 458 348
L 459 346
L 460 348
L 461 343
L 462 347
L 463 347
L 464 347
L 466 345
L 467 346
L 468 347
L 469 347
L 470 348
L 471 346
L 472 347
L 473 346
L 474 345
L 475 346
L 477 345
L 478 346
L 479 348
L 480 348
L 481 348
L 482 348
L 483 348
L 484 346
L 485 349
L 486 347
L 487 349
L 489 348
L 490 349
L 491 349
L 492 348
L 493 348
L 494 348
L 495 349
L 496 348
L 497 349
L 498 348
L 499 349
L 501 349
L 502 350
L 503 349
L 504 349
L 505 349
L 506 350
L 507 350
L 508 350
L 509 350
L 510 350
L 511 350
L 513 350
L 514 350
L 515 351
L 516 350
L 517 350
L 518 349
L 519 350
L 520 349
L 521 349
L 522 350
L 523 350
L 525 350
L 526 350
L 527 350
L 528 350
L 529 350
L 530 350
L 531 350
L 532 351
L 533 351
L 534 350
L 535 350
L 537 350
L 538 350
L 539 350
L 540 350
L 541 351
L 542 350
L 543 350
L 544 351
L 545 350
L 546 350
L 548 351
L 549 351
L 550 351
L 551 350
L 552 350
L 553 350
L 554 351
L 555 350
L 556 350
L 557 350
L 558 350
L 560 350
L 561 350
L 562 350
L 563 350
L 564 350
L 565 350
L 566 350
L 567 350
L 568 350
L 569 350
L 570 350
L 572 350
L 573 350
L 574 351
L 575 350
L 576 350
L 577 350
L 578 351
L 579 350
L 580 350
L 581 350
L 582 350
L 584 350
L 585 350
L 586 350
L 587 350
L 588 350
L 589 350
L 590 350
L 591 350
L 592 350
L 593 350
L 594 350
L 596 350
L 597 350
L 598 350
L 599 350
L 600 350
L 601 350
L 602 350
L 603 350
L 604 350
L 605 350
L 606 350
L 608 349
L 609 350
L 610 350
L 611 350
L 612 350
L 613 350
L 614 350
L 615 350
L 616 350
L 617 350
L 619 349
L 620 350
L 621 349
L 622 349
L 623 350
L 624 350
L 625 350
L 626 349
L 627 350
L 628 350
L 629 350
L 631 349
L 632 350
L 633 349
L 634 350
L 635 349
L 636 350
L 637 349
L 638 350
L 639 350
L 640 349
L 641 348
L 643 349
L 644 348
L 645 348
L 646 349
L 647 349
L 648 349
L 649 347
L 650 348
L 651 349
L 652 348
L 653 349
L 655 349
L 656 349
L 657 349
L 658 349
L 659 348
L 660 350
L 661 350
L 662 350
L 663 349
L 664 349
L 665 349
L 667 349
L 668 349
L 669 350
L 670 348
L 671 349
L 672 349
L 673 349
L 674 349
L 675 349
L 676 349
L 677 350
L 679 350
L 680 349
L 681 350
L 682 349
L 683 349
L 684 348
L 685 350
L 686 350
L 687 349
L 688 349
L 690 349
L 691 349
L 692 348
L 693 348
L 694 348
L 695 348
L 696 348
L 697 347
L 698 347
L 699 348
L 700 349
L 702 349
L 703 347
L 704 348
L 705 347
L 706 346
L 707 346
L 708 347
L 709 347
L 710 346
L 711 344
L 712 344
L 714 342
L 715 343
L 716 347
L 717 345
L 718 343
L 719 339
L 720 345
L 721 341
L 722 340
L 723 342
L 724 342
L 726 341
L 727 338
L 728 342
L 729 341
L 730 340
L 731 339
L 732 340
L 733 343
L 734 341
L 735 340
L 736 339
L 738 342
L 739 345
L 740 344
L 741 345
L 742 342
L 743 345
L 744 346
L 745 347
L 746 348
L 747 347
L 748 348
L 750 347
L 751 348
L 752 348
L 753 348
L 754 349
L 755 349
L 756 349
L 757 348
L 758 348
L 759 348
L 761 349
L 762 349
L 763 349
L 764 347
L 765 349
L 766 347
L 767 348
L 768 348
L 769 348
L 770 348
L 771 348
L 773 347
L 774 346
L 775 346
L 776 347
L 777 346
L 778 342
L 779 340
L 780 342
L 781 342
L 782 342
L 783 340
L 785 337
L 786 329
L 787 329
L 788 331
L 789 334
L 790 330
L 791 339
L 792 333
L 793 324
L 794 320
L 795 328
L 797 318
L 798 323
L 799 327
L 800 319
L 801 317
L 802 307
L 803 318
L 804 315
L 805 317
L 806 320
L 807 322
L 809 324
L 810 307
L 811 322
L 812 319
L 813 319
L 814 325
L 815 326
L 816 320
L 817 319
L 818 323
L 819 323
L 821 321
L 822 325
L 823 321
L 824 318
L 825 297
L 826 315
L 827 314
L 828 322
L 829 328
L 830 323
L 832 321
L 833 298
L 834 319
L 835 313
L 836 327
L 837 325
L 838 326
L 839 317
L 840 302
L 841 318
L 842 310
L 844 319
L 845 322
L 846 319
L 847 309
L 848 296
L 849 291
L 850 292
L 851 302
L 852 310
L 853 303
L 854 295
L 856 271
L 857 292
L 858 288
L 859 299
L 860 307
L 861 308
L 862 298
L 863 285
L 864 301
L 865 300
L 866 315
L 868 316
L 869 323
L 870 311
L 871 302
L 872 320
L 873 314
L 874 327
L 875 327
L 876 328
L 877 329
L 878 313
L 880 328
L 881 324
L 882 333
L 883 332
L 884 338
L 885 331
L 886 325
L 887 332
L 888 331
L 889 333
L 890 336
L 892 340
L 893 337
L 894 332
L 895 332
L 896 336
L 897 338
L 898 341
L 899 341
L 900 339
L 901 339
L 903 339
L 904 340
L 905 339
L 906 342
L 907 346
L 908 335
L 909 339
L 910 342
L 911 338
L 912 341
L 913 344
L 915 346
L 916 342
L 917 339
L 918 344
L 919 343
L 920 344
L 921 347
L 922 346
L 923 346
L 924 343
L 925 346
L 927 347
L 928 346
L 929 347
L 930 348
L 931 346
L 932 344
L 933 346
L 934 348
L 935 347
L 936 347
L 937 347
L 939 345
L 940 343
L 941 346
L 942 343
L 943 346
L 944 346
L 945 346
L 946 346
L 947 344
L 948 342
L 949 345
L 951 341
L 952 345
L 953 347
L 954 341
L 955 338
L 956 338
L 957 342
L 958 340
L 959 338
L 960 339
L 961 334" style="stroke-width:1;stroke:rgba(0,217,101,1.0);fill:none"/><path  d="M 38 351
L 40 351
L 41 351
L 42 351
L 43 351
L 44 351
L 45 351
L 46 351
L 47 351
L 48 351
L 49 351
L 51 351
L 52 351
L 53 351
L 54 351
L 55 351
L 56 351
L 57 351
L 58 351
L 59 351
L 60 351
L 61 351
L 63 351
L 64 351
L 65 351
L 66 351
L 67 350
L 68 351
L 69 350
L 70 351
L 71 351
L 72 351
L 73 351
L 75 351
L 76 351
L 77 351
L 78 350
L 79 351
L 80 351
L 81 351
L 82 350
L 83 351
L 84 351
L 85 351
L 87 351
L 88 351
L 89 351
L 90 351
L 91 351
L 92 351
L 93 351
L 94 350
L 95 351
L 96 350
L 97 351
L 99 351
L 100 351
L 101 351
L 102 350
L 103 351
L 104 351
L 105 351
L 106 351
L 107 351
L 108 351
L 109 351
L 111 351
L 112 351
L 113 351
L 114 351
L 115 351
L 116 351
L 117 351
L 118 350
L 119 351
L 120 351
L 122 351
L 123 351
L 124 351
L 125 351
L 126 351
L 127 351
L 128 351
L 129 351
L 130 351
L 131 351
L 132 351
L 134 351
L 135 351
L 136 351
L 137 351
L 138 351
L 139 351
L 140 351
L 141 351
L 142 351
L 143 351
L 144 351
L 146 351
L 147 351
L 148 351
L 149 351
L 150 351
L 151 351
L 152 351
L 153 351
L 154 351
L 155 351
L 156 351
L 158 351
L 159 351
L 160 351
L 161 351
L 162 351
L 163 351
L 164 351
L 165 351
L 166 351
L 167 351
L 168 351
L 170 351
L 171 351
L 172 351
L 173 351
L 174 351
L 175 351
L 176 351
L 177 351
L 178 351
L 179 351
L 180 351
L 182 351
L 183 351
L 184 351
L 185 351
L 186 351
L 187 351
L 188 351
L 189 351
L 190 351
L 191 351
L 193 351
L 194 351
L 195 351
L 196 351
L 197 351
L 198 351
L 199 351
L 200 351
L 201 351
L 202 351
L 203 351
L 205 351
L 206 351
L 207 351
L 208 351
L 209 351
L 210 351
L 211 350
L 212 351
L 213 351
L 214 351
L 215 351
L 217 351
L 218 351
L 219 351
L 220 351
L 221 351
L 222 351
L 223 351
L 224 351
L 225 351
L 226 351
L 227 351
L 229 351
L 230 351
L 231 351
L 232 351
L 233 351
L 234 351
L 235 351
L 236 351
L 237 351
L 238 351
L 239 351
L 241 351
L 242 351
L 243 351
L 244 351
L 245 351
L 246 351
L 247 351
L 248 351
L 249 351
L 250 351
L 251 351
L 253 351
L 254 351
L 255 351
L 256 351
L 257 351
L 258 351
L 259 351
L 260 351
L 261 351
L 262 351
L 264 351
L 265 351
L 266 351
L 267 351
L 268 351
L 269 351
L 270 351
L 271 351
L 272 351
L 273 351
L 274 351
L 276 351
L 277 350
L 278 351
L 279 351
L 280 350
L 281 351
L 282 351
L 283 351
L 284 351
L 285 351
L 286 351
L 288 350
L 289 351
L 290 351
L 291 351
L 292 351
L 293 351
L 294 351
L 295 351
L 296 351
L 297 350
L 298 351
L 300 351
L 301 351
L 302 351
L 303 351
L 304 351
L 305 351
L 306 351
L 307 350
L 308 351
L 309 350
L 310 351
L 312 351
L 313 351
L 314 350
L 315 351
L 316 350
L 317 350
L 318 351
L 319 351
L 320 351
L 321 351
L 322 351
L 324 350
L 325 350
L 326 350
L 327 351
L 328 351
L 329 350
L 330 351
L 331 351
L 332 350
L 333 350
L 335 351
L 336 350
L 337 350
L 338 350
L 339 350
L 340 350
L 341 350
L 342 350
L 343 351
L 344 350
L 345 350
L 347 351
L 348 350
L 349 350
L 350 351
L 351 350
L 352 350
L 353 350
L 354 350
L 355 351
L 356 350
L 357 350
L 359 350
L 360 350
L 361 351
L 362 351
L 363 350
L 364 350
L 365 351
L 366 350
L 367 350
L 368 351
L 369 350
L 371 351
L 372 351
L 373 351
L 374 351
L 375 351
L 376 350
L 377 350
L 378 351
L 379 351
L 380 350
L 381 350
L 383 350
L 384 350
L 385 350
L 386 350
L 387 350
L 388 350
L 389 350
L 390 351
L 391 350
L 392 350
L 393 350
L 395 351
L 396 351
L 397 351
L 398 350
L 399 351
L 400 350
L 401 350
L 402 350
L 403 350
L 404 350
L 406 351
L 407 351
L 408 351
L 409 350
L 410 350
L 411 351
L 412 350
L 413 351
L 414 350
L 415 351
L 416 351
L 418 351
L 419 351
L 420 351
L 421 350
L 422 351
L 423 351
L 424 350
L 425 351
L 426 350
L 427 351
L 428 351
L 430 351
L 431 351
L 432 351
L 433 351
L 434 351
L 435 350
L 436 350
L 437 350
L 438 351
L 439 350
L 440 351
L 442 351
L 443 351
L 444 350
L 445 351
L 446 351
L 447 351
L 448 350
L 449 350
L 450 350
L 451 350
L 452 351
L 454 350
L 455 351
L 456 351
L 457 351
L 458 351
L 459 351
L 460 351
L 461 351
L 462 350
L 463 351
L 464 351
L 466 351
L 467 350
L 468 351
L 469 350
L 470 350
L 471 350
L 472 350
L 473 351
L 474 350
L 475 351
L 477 350
L 478 350
L 479 351
L 480 350
L 481 351
L 482 351
L 483 351
L 484 351
L 485 351
L 486 351
L 487 351
L 489 351
L 490 351
L 491 350
L 492 350
L 493 350
L 494 351
L 495 351
L 496 351
L 497 351
L 498 350
L 499 351
L 501 351
L 502 350
L 503 351
L 504 351
L 505 351
L 506 351
L 507 350
L 508 351
L 509 351
L 510 351
L 511 351
L 513 351
L 514 351
L 515 351
L 516 351
L 517 351
L 518 351
L 519 351
L 520 351
L 521 351
L 522 351
L 523 351
L 525 351
L 526 351
L 527 351
L 528 351
L 529 351
L 530 350
L 531 351
L 532 351
L 533 351
L 534 351
L 535 350
L 537 351
L 538 350
L 539 351
L 540 351
L 541 351
L 542 351
L 543 351
L 544 350
L 545 351
L 546 351
L 548 351
L 549 351
L 550 351
L 551 351
L 552 351
L 553 350
L 554 351
L 555 351
L 556 350
L 557 351
L 558 351
L 560 351
L 561 351
L 562 351
L 563 350
L 564 351
L 565 351
L 566 351
L 567 351
L 568 351
L 569 351
L 570 351
L 572 350
L 573 351
L 574 351
L 575 351
L 576 350
L 577 351
L 578 351
L 579 351
L 580 351
L 581 351
L 582 351
L 584 351
L 585 351
L 586 351
L 587 351
L 588 351
L 589 350
L 590 351
L 591 350
L 592 350
L 593 351
L 594 351
L 596 351
L 597 351
L 598 351
L 599 350
L 600 351
L 601 351
L 602 351
L 603 351
L 604 351
L 605 351
L 606 351
L 608 351
L 609 351
L 610 351
L 611 350
L 612 351
L 613 351
L 614 350
L 615 351
L 616 351
L 617 351
L 619 351
L 620 351
L 621 351
L 622 351
L 623 351
L 624 351
L 625 351
L 626 351
L 627 351
L 628 351
L 629 351
L 631 351
L 632 351
L 633 351
L 634 351
L 635 351
L 636 351
L 637 351
L 638 351
L 639 351
L 640 351
L 641 351
L 643 351
L 644 351
L 645 351
L 646 351
L 647 351
L 648 351
L 649 351
L 650 351
L 651 351
L 652 351
L 653 351
L 655 351
L 656 351
L 657 351
L 658 351
L 659 351
L 660 350
L 661 351
L 662 351
L 663 351
L 664 351
L 665 351
L 667 351
L 668 351
L 669 351
L 670 351
L 671 351
L 672 350
L 673 351
L 674 351
L 675 351
L 676 350
L 677 351
L 679 351
L 680 351
L 681 351
L 682 351
L 683 351
L 684 351
L 685 351
L 686 351
L 687 351
L 688 351
L 690 351
L 691 351
L 692 351
L 693 351
L 694 351
L 695 351
L 696 351
L 697 351
L 698 350
L 699 350
L 700 350
L 702 351
L 703 351
L 704 351
L 705 351
L 706 351
L 707 351
L 708 351
L 709 350
L 710 350
L 711 351
L 712 351
L 714 351
L 715 351
L 716 351
L 717 351
L 718 351
L 719 351
L 720 350
L 721 350
L 722 350
L 723 351
L 724 350
L 726 351
L 727 350
L 728 350
L 729 351
L 730 351
L 731 351
L 732 350
L 733 350
L 734 350
L 735 351
L 736 351
L 738 350
L 739 350
L 740 351
L 741 351
L 742 351
L 743 350
L 744 350
L 745 350
L 746 351
L 747 350
L 748 351
L 750 351
L 751 350
L 752 351
L 753 351
L 754 351
L 755 351
L 756 351
L 757 351
L 758 351
L 759 351
L 761 351
L 762 350
L 763 351
L 764 351
L 765 351
L 766 351
L 767 350
L 768 351
L 769 350
L 770 351
L 771 351
L 773 351
L 774 351
L 775 351
L 776 351
L 777 350
L 778 351
L 779 351
L 780 351
L 781 351
L 782 351
L 783 351
L 785 350
L 786 351
L 787 351
L 788 351
L 789 350
L 790 351
L 791 351
L 792 351
L 793 351
L 794 351
L 795 351
L 797 351
L 798 351
L 799 351
L 800 351
L 801 351
L 802 350
L 803 351
L 804 351
L 805 351
L 806 350
L 807 351
L 809 351
L 810 350
L 811 350
L 812 351
L 813 351
L 814 351
L 815 351
L 816 351
L 817 350
L 818 350
L 819 351
L 821 351
L 822 351
L 823 350
L 824 351
L 825 351
L 826 351
L 827 350
L 828 351
L 829 350
L 830 351
L 832 350
L 833 350
L 834 350
L 835 351
L 836 351
L 837 351
L 838 351
L 839 351
L 840 350
L 841 351
L 842 351
L 844 350
L 845 351
L 846 351
L 847 350
L 848 351
L 849 351
L 850 351
L 851 350
L 852 351
L 853 351
L 854 351
L 856 350
L 857 350
L 858 351
L 859 351
L 860 351
L 861 350
L 862 351
L 863 350
L 864 350
L 865 351
L 866 350
L 868 350
L 869 350
L 870 350
L 871 351
L 872 350
L 873 350
L 874 351
L 875 351
L 876 351
L 877 350
L 878 351
L 880 351
L 881 350
L 882 351
L 883 351
L 884 351
L 885 350
L 886 350
L 887 351
L 888 351
L 889 351
L 890 350
L 892 350
L 893 350
L 894 351
L 895 351
L 896 350
L 897 350
L 898 351
L 899 350
L 900 351
L 901 351
L 903 351
L 904 350
L 905 350
L 906 351
L 907 350
L 908 350
L 909 351
L 910 351
L 911 351
L 912 350
L 913 351
L 915 350
L 916 350
L 917 351
L 918 351
L 919 351
L 920 351
L 921 351
L 922 351
L 923 350
L 924 351
L 925 351
L 927 351
L 928 351
L 929 351
L 930 351
L 931 351
L 932 351
L 933 351
L 934 350
L 935 351
L 936 351
L 937 351
L 939 351
L 940 350
L 941 351
L 942 351
L 943 351
L 944 351
L 945 351
L 946 351
L 947 351
L 948 351
L 949 351
L 951 351
L 952 351
L 953 351
L 954 351
L 955 351
L 956 351
L 957 351
L 958 351
L 959 351
L 960 351
L 961 351" style="stroke-width:1;stroke:rgba(217,0,116,1.0);fill:none"/><text x="408" y="33" style="stroke-width:0;stroke:none;fill:rgba(51,51,51,1.0);font-size:23.0px;font-family:'Roboto Medium',sans-serif">Mödling 20.06.2022</text><path  d="M 38 11
L 251 11
L 251 91
L 38 91
L 38 11" style="stroke-width:1;stroke:rgba(51,51,51,1.0);fill:rgba(255,255,255,1.0)"/><text x="43" y="26" style="stroke-width:0;stroke:none;fill:rgba(51,51,51,1.0);font-size:10.2px;font-family:'Roboto Medium',sans-serif">Sieben Tage Durschnitt Inzidenz Fälle</text><path  d="M 221 21
L 241 21" style="stroke-width:1;stroke:rgba(0,116,217,1.0);fill:none"/><text x="43" y="56" style="stroke-width:0;stroke:none;fill:rgba(51,51,51,1.0);font-size:10.2px;font-family:'Roboto Medium',sans-serif">Anzahl Faelle</text><path  d="M 110 51
L 241 51" style="stroke-width:1;stroke:rgba(0,217,101,1.0);fill:none"/><text x="43" y="86" style="stroke-width:0;stroke:none;fill:rgba(51,51,51,1.0);font-size:10.2px;font-family:'Roboto Medium',sans-serif">Anzahl Tot</text><path  d="M 98 81
L 241 81" style="stroke-width:1;stroke:rgba(217,0,116,1.0);fill:none"/></svg>