<svg xmlns="http://www.w3.org/2000/svg" xmlns:xlink="http://www.w3.org/1999/xlink" width="1024" height="400">\n<path  d="M 0 0
L 1024 0
L 1024 400
L 0 400
L 0 0" style="stroke-width:0;stroke:rgba(255,255,255,1.0);fill:rgba(255,255,255,1.0)"/><path  d="M 38 11
L 961 11
L 961 351
L 38 351
L 38 11" style="stroke-width:0;stroke:rgba(255,255,255,1.0);fill:rgba(255,255,255,1.0)"/><path  d="M 38 351
L 961 351" style="stroke-width:1;stroke:rgba(51,51,51,1.0);fill:none"/><path  d="M 38 351
L 38 356" style="stroke-width:1;stroke:rgba(51,51,51,1.0);fill:none"/><text x="5" y="373" style="stroke-width:0;stroke:none;fill:rgba(51,51,51,1.0);font-size:12.8px;font-family:'Roboto Medium',sans-serif">2020-02-26</text><path  d="M 154 351
L 154 356" style="stroke-width:1;stroke:rgba(51,51,51,1.0);fill:none"/><text x="121" y="373" style="stroke-width:0;stroke:none;fill:rgba(51,51,51,1.0);font-size:12.8px;font-family:'Roboto Medium',sans-serif">2020-06-30</text><path  d="M 269 351
L 269 356" style="stroke-width:1;stroke:rgba(51,51,51,1.0);fill:none"/><text x="236" y="373" style="stroke-width:0;stroke:none;fill:rgba(51,51,51,1.0);font-size:12.8px;font-family:'Roboto Medium',sans-serif">2020-11-03</text><path  d="M 385 351
L 385 356" style="stroke-width:1;stroke:rgba(51,51,51,1.0);fill:none"/><text x="352" y="373" style="stroke-width:0;stroke:none;fill:rgba(51,51,51,1.0);font-size:12.8px;font-family:'Roboto Medium',sans-serif">2021-03-09</text><path  d="M 500 351
L 500 356" style="stroke-width:1;stroke:rgba(51,51,51,1.0);fill:none"/><text x="467" y="373" style="stroke-width:0;stroke:none;fill:rgba(51,51,51,1.0);font-size:12.8px;font-family:'Roboto Medium',sans-serif">2021-07-13</text><path  d="M 615 351
L 615 356" style="stroke-width:1;stroke:rgba(51,51,51,1.0);fill:none"/><text x="582" y="373" style="stroke-width:0;stroke:none;fill:rgba(51,51,51,1.0);font-size:12.8px;font-family:'Roboto Medium',sans-serif">2021-11-15</text><path  d="M 731 351
L 731 356" style="stroke-width:1;stroke:rgba(51,51,51,1.0);fill:none"/><text x="698" y="373" style="stroke-width:0;stroke:none;fill:rgba(51,51,51,1.0);font-size:12.8px;font-family:'Roboto Medium',sans-serif">2022-03-21</text><path  d="M 846 351
L 846 356" style="stroke-width:1;stroke:rgba(51,51,51,1.0);fill:none"/><text x="813" y="373" style="stroke-width:0;stroke:none;fill:rgba(51,51,51,1.0);font-size:12.8px;font-family:'Roboto Medium',sans-serif">2022-07-25</text><path  d="M 961 351
L 961 356" style="stroke-width:1;stroke:rgba(51,51,51,1.0);fill:none"/><text x="928" y="373" style="stroke-width:0;stroke:none;fill:rgba(51,51,51,1.0);font-size:12.8px;font-family:'Roboto Medium',sans-serif">2022-11-28</text><text x="481" y="395" style="stroke-width:0;stroke:none;fill:rgba(51,51,51,1.0);font-size:12.8px;font-family:'Roboto Medium',sans-serif">Datum</text><path  d="M 962 351
L 962 11" style="stroke-width:1;stroke:rgba(51,51,51,1.0);fill:none"/><path  d="M 962 351
L 967 351" style="stroke-width:1;stroke:rgba(51,51,51,1.0);fill:none"/><text x="972" y="357" style="stroke-width:0;stroke:none;fill:rgba(51,51,51,1.0);font-size:12.8px;font-family:'Roboto Medium',sans-serif">0.00</text><path  d="M 962 308
L 967 308" style="stroke-width:1;stroke:rgba(51,51,51,1.0);fill:none"/><text x="972" y="314" style="stroke-width:0;stroke:none;fill:rgba(51,51,51,1.0);font-size:12.8px;font-family:'Roboto Medium',sans-serif">480.00</text><path  d="M 962 266
L 967 266" style="stroke-width:1;stroke:rgba(51,51,51,1.0);fill:none"/><text x="972" y="272" style="stroke-width:0;stroke:none;fill:rgba(51,51,51,1.0);font-size:12.8px;font-family:'Roboto Medium',sans-serif">950.00</text><path  d="M 962 223
L 967 223" style="stroke-width:1;stroke:rgba(51,51,51,1.0);fill:none"/><text x="972" y="229" style="stroke-width:0;stroke:none;fill:rgba(51,51,51,1.0);font-size:12.8px;font-family:'Roboto Medium',sans-serif">1430.00</text><path  d="M 962 181
L 967 181" style="stroke-width:1;stroke:rgba(51,51,51,1.0);fill:none"/><text x="972" y="187" style="stroke-width:0;stroke:none;fill:rgba(51,51,51,1.0);font-size:12.8px;font-family:'Roboto Medium',sans-serif">1900.00</text><path  d="M 962 138
L 967 138" style="stroke-width:1;stroke:rgba(51,51,51,1.0);fill:none"/><text x="972" y="144" style="stroke-width:0;stroke:none;fill:rgba(51,51,51,1.0);font-size:12.8px;font-family:'Roboto Medium',sans-serif">2380.00</text><path  d="M 962 96
L 967 96" style="stroke-width:1;stroke:rgba(51,51,51,1.0);fill:none"/><text x="972" y="102" style="stroke-width:0;stroke:none;fill:rgba(51,51,51,1.0);font-size:12.8px;font-family:'Roboto Medium',sans-serif">2850.00</text><path  d="M 962 53
L 967 53" style="stroke-width:1;stroke:rgba(51,51,51,1.0);fill:none"/><text x="972" y="59" style="stroke-width:0;stroke:none;fill:rgba(51,51,51,1.0);font-size:12.8px;font-family:'Roboto Medium',sans-serif">3330.00</text><path  d="M 962 11
L 967 11" style="stroke-width:1;stroke:rgba(51,51,51,1.0);fill:none"/><text x="972" y="17" style="stroke-width:0;stroke:none;fill:rgba(51,51,51,1.0);font-size:12.8px;font-family:'Roboto Medium',sans-serif">3800.00</text><path  d="M 38 351
L 39 351
L 40 351
L 41 351
L 42 351
L 43 351
L 44 351
L 45 351
L 46 351
L 47 351
L 48 351
L 49 351
L 50 351
L 50 351
L 51 351
L 52 350
L 53 350
L 54 350
L 55 350
L 56 350
L 57 350
L 58 350
L 59 350
L 60 350
L 61 350
L 61 350
L 62 350
L 63 350
L 64 349
L 65 348
L 66 348
L 67 348
L 68 346
L 69 345
L 70 345
L 71 345
L 72 345
L 72 345
L 73 346
L 74 347
L 75 347
L 76 347
L 77 347
L 78 348
L 79 348
L 80 348
L 81 348
L 82 349
L 83 350
L 83 350
L 84 350
L 85 350
L 86 350
L 87 350
L 88 350
L 89 350
L 90 350
L 91 350
L 92 350
L 93 350
L 94 350
L 94 350
L 95 351
L 96 351
L 97 351
L 98 351
L 99 351
L 100 351
L 101 351
L 102 350
L 103 350
L 104 350
L 105 350
L 105 350
L 106 350
L 107 350
L 108 350
L 109 350
L 110 350
L 111 350
L 112 350
L 113 350
L 114 350
L 115 350
L 116 350
L 116 350
L 117 350
L 118 350
L 119 350
L 120 350
L 121 350
L 122 351
L 123 351
L 124 351
L 125 351
L 126 351
L 127 351
L 127 351
L 128 351
L 129 351
L 130 351
L 131 351
L 132 351
L 133 351
L 134 351
L 135 351
L 136 351
L 137 351
L 138 351
L 139 351
L 139 351
L 140 351
L 141 351
L 142 350
L 143 350
L 144 350
L 145 350
L 146 350
L 147 350
L 148 349
L 149 349
L 150 349
L 150 349
L 151 349
L 152 349
L 153 349
L 154 349
L 155 350
L 156 350
L 157 350
L 158 350
L 159 350
L 160 350
L 161 350
L 161 350
L 162 350
L 163 350
L 164 350
L 165 350
L 166 350
L 167 350
L 168 350
L 169 350
L 170 350
L 171 350
L 172 350
L 172 350
L 173 350
L 174 350
L 175 350
L 176 350
L 177 350
L 178 350
L 179 350
L 180 350
L 181 350
L 182 350
L 183 350
L 183 350
L 184 350
L 185 350
L 186 351
L 187 351
L 188 351
L 189 350
L 190 350
L 191 350
L 192 350
L 193 350
L 194 350
L 194 350
L 195 350
L 196 350
L 197 350
L 198 351
L 199 351
L 200 350
L 201 350
L 202 350
L 203 350
L 204 350
L 205 350
L 205 350
L 206 350
L 207 350
L 208 350
L 209 350
L 210 349
L 211 349
L 212 348
L 213 348
L 214 348
L 215 348
L 216 348
L 216 348
L 217 347
L 218 347
L 219 347
L 220 345
L 221 345
L 222 344
L 223 343
L 224 343
L 225 344
L 226 342
L 227 341
L 228 342
L 228 342
L 229 344
L 230 343
L 231 343
L 232 345
L 233 346
L 234 346
L 235 346
L 236 346
L 237 347
L 238 346
L 239 347
L 239 347
L 240 347
L 241 347
L 242 347
L 243 347
L 244 346
L 245 347
L 246 346
L 247 346
L 248 346
L 249 346
L 250 345
L 250 345
L 251 345
L 252 344
L 253 344
L 254 344
L 255 344
L 256 343
L 257 342
L 258 342
L 259 343
L 260 341
L 261 341
L 261 341
L 262 340
L 263 338
L 264 332
L 265 329
L 266 327
L 267 326
L 268 322
L 269 322
L 270 322
L 271 324
L 272 323
L 272 323
L 273 322
L 274 324
L 275 323
L 276 322
L 277 323
L 278 324
L 279 323
L 280 323
L 281 324
L 282 324
L 283 325
L 283 325
L 284 327
L 285 327
L 286 328
L 287 328
L 288 328
L 289 328
L 290 328
L 291 327
L 292 327
L 293 325
L 294 325
L 294 325
L 295 323
L 296 322
L 297 322
L 298 324
L 299 325
L 300 326
L 301 326
L 302 329
L 303 330
L 304 332
L 305 330
L 305 329
L 306 328
L 307 330
L 308 328
L 309 329
L 310 330
L 311 331
L 312 334
L 313 335
L 314 335
L 315 335
L 316 336
L 317 336
L 317 338
L 318 338
L 319 339
L 320 337
L 321 338
L 322 336
L 323 335
L 324 334
L 325 333
L 326 330
L 327 331
L 328 330
L 328 333
L 329 331
L 330 331
L 331 332
L 332 334
L 333 335
L 334 337
L 335 337
L 336 339
L 337 340
L 338 339
L 339 337
L 339 337
L 340 336
L 341 337
L 342 337
L 343 337
L 344 338
L 345 341
L 346 342
L 347 343
L 348 344
L 349 343
L 350 344
L 350 344
L 351 344
L 352 344
L 353 343
L 354 343
L 355 343
L 356 343
L 357 342
L 358 341
L 359 341
L 360 340
L 361 339
L 361 339
L 362 339
L 363 340
L 364 339
L 365 338
L 366 338
L 367 337
L 368 335
L 369 334
L 370 333
L 371 333
L 372 333
L 372 332
L 373 332
L 374 332
L 375 329
L 376 328
L 377 329
L 378 326
L 379 326
L 380 328
L 381 325
L 382 328
L 383 329
L 383 326
L 384 329
L 385 327
L 386 324
L 387 322
L 388 320
L 389 319
L 390 318
L 391 316
L 392 310
L 393 310
L 394 310
L 394 311
L 395 308
L 396 307
L 397 305
L 398 311
L 399 311
L 400 314
L 401 315
L 402 317
L 403 321
L 404 323
L 405 325
L 405 326
L 406 327
L 407 325
L 408 327
L 409 327
L 410 329
L 411 330
L 412 330
L 413 331
L 414 334
L 415 333
L 416 334
L 417 335
L 417 334
L 418 335
L 419 337
L 420 338
L 421 338
L 422 340
L 423 341
L 424 342
L 425 342
L 426 342
L 427 343
L 428 344
L 428 343
L 429 344
L 430 343
L 431 343
L 432 343
L 433 343
L 434 341
L 435 342
L 436 342
L 437 343
L 438 344
L 439 344
L 439 345
L 440 346
L 441 347
L 442 346
L 443 347
L 444 347
L 445 347
L 446 347
L 447 348
L 448 348
L 449 348
L 450 348
L 450 349
L 451 349
L 452 349
L 453 349
L 454 350
L 455 349
L 456 349
L 457 348
L 458 348
L 459 348
L 460 347
L 461 347
L 461 348
L 462 348
L 463 348
L 464 348
L 465 348
L 466 348
L 467 348
L 468 347
L 469 347
L 470 347
L 471 348
L 472 348
L 472 348
L 473 348
L 474 349
L 475 349
L 476 349
L 477 350
L 478 350
L 479 350
L 480 350
L 481 350
L 482 350
L 483 350
L 483 350
L 484 350
L 485 350
L 486 350
L 487 350
L 488 350
L 489 351
L 490 351
L 491 351
L 492 351
L 493 351
L 494 351
L 494 350
L 495 350
L 496 350
L 497 350
L 498 350
L 499 350
L 500 350
L 501 350
L 502 349
L 503 349
L 504 349
L 505 349
L 506 349
L 506 349
L 507 349
L 508 350
L 509 350
L 510 350
L 511 350
L 512 350
L 513 349
L 514 349
L 515 348
L 516 348
L 517 348
L 517 348
L 518 348
L 519 348
L 520 348
L 521 349
L 522 349
L 523 349
L 524 349
L 525 349
L 526 349
L 527 348
L 528 347
L 528 346
L 529 345
L 530 343
L 531 342
L 532 340
L 533 340
L 534 339
L 535 339
L 536 339
L 537 340
L 538 338
L 539 340
L 539 340
L 540 341
L 541 340
L 542 340
L 543 340
L 544 341
L 545 340
L 546 341
L 547 340
L 548 340
L 549 341
L 550 341
L 550 340
L 551 342
L 552 341
L 553 341
L 554 341
L 555 340
L 556 340
L 557 339
L 558 339
L 559 339
L 560 339
L 561 339
L 561 340
L 562 340
L 563 340
L 564 341
L 565 342
L 566 342
L 567 343
L 568 343
L 569 344
L 570 344
L 571 343
L 572 342
L 572 342
L 573 342
L 574 341
L 575 341
L 576 340
L 577 340
L 578 340
L 579 339
L 580 339
L 581 340
L 582 341
L 583 341
L 583 341
L 584 341
L 585 342
L 586 342
L 587 341
L 588 339
L 589 337
L 590 335
L 591 333
L 592 328
L 593 324
L 594 323
L 595 320
L 595 318
L 596 316
L 597 315
L 598 313
L 599 308
L 600 304
L 601 302
L 602 301
L 603 297
L 604 293
L 605 288
L 606 285
L 606 282
L 607 277
L 608 270
L 609 263
L 610 255
L 611 252
L 612 246
L 613 243
L 614 237
L 615 234
L 616 239
L 617 239
L 617 245
L 618 240
L 619 231
L 620 230
L 621 231
L 622 230
L 623 237
L 624 233
L 625 240
L 626 252
L 627 264
L 628 269
L 628 269
L 629 268
L 630 274
L 631 281
L 632 288
L 633 289
L 634 294
L 635 299
L 636 306
L 637 311
L 638 312
L 639 313
L 639 315
L 640 317
L 641 318
L 642 320
L 643 322
L 644 328
L 645 329
L 646 333
L 647 334
L 648 338
L 649 338
L 650 339
L 650 339
L 651 340
L 652 339
L 653 339
L 654 338
L 655 338
L 656 336
L 657 333
L 658 332
L 659 332
L 660 330
L 661 328
L 661 325
L 662 322
L 663 320
L 664 316
L 665 312
L 666 307
L 667 300
L 668 294
L 669 288
L 670 286
L 671 281
L 672 277
L 672 271
L 673 262
L 674 257
L 675 249
L 676 239
L 677 240
L 678 231
L 679 226
L 680 222
L 681 211
L 682 205
L 683 201
L 683 191
L 684 194
L 685 191
L 686 181
L 687 176
L 688 171
L 689 171
L 690 166
L 691 163
L 692 157
L 693 158
L 694 158
L 695 157
L 695 154
L 696 154
L 697 152
L 698 148
L 699 128
L 700 131
L 701 126
L 702 125
L 703 127
L 704 131
L 705 139
L 706 153
L 706 155
L 707 163
L 708 163
L 709 162
L 710 160
L 711 154
L 712 156
L 713 158
L 714 157
L 715 145
L 716 144
L 717 139
L 717 129
L 718 111
L 719 87
L 720 67
L 721 61
L 722 44
L 723 36
L 724 28
L 725 11
L 726 18
L 727 16
L 728 21
L 728 23
L 729 23
L 730 31
L 731 53
L 732 56
L 733 68
L 734 76
L 735 84
L 736 99
L 737 106
L 738 118
L 739 130
L 739 140
L 740 151
L 741 165
L 742 176
L 743 189
L 744 204
L 745 220
L 746 237
L 747 249
L 748 251
L 749 254
L 750 264
L 750 277
L 751 279
L 752 283
L 753 284
L 754 288
L 755 289
L 756 293
L 757 296
L 758 297
L 759 298
L 760 300
L 761 301
L 761 302
L 762 303
L 763 303
L 764 307
L 765 310
L 766 313
L 767 315
L 768 316
L 769 315
L 770 317
L 771 316
L 772 317
L 772 316
L 773 317
L 774 317
L 775 318
L 776 317
L 777 316
L 778 317
L 779 318
L 780 315
L 781 317
L 782 319
L 783 321
L 784 322
L 784 323
L 785 324
L 786 330
L 787 331
L 788 332
L 789 334
L 790 336
L 791 338
L 792 338
L 793 338
L 794 337
L 795 337
L 795 335
L 796 336
L 797 334
L 798 333
L 799 334
L 800 334
L 801 334
L 802 336
L 803 334
L 804 334
L 805 334
L 806 332
L 806 331
L 807 330
L 808 326
L 809 323
L 810 322
L 811 318
L 812 316
L 813 313
L 814 308
L 815 305
L 816 305
L 817 299
L 817 296
L 818 296
L 819 294
L 820 293
L 821 291
L 822 286
L 823 286
L 824 284
L 825 284
L 826 285
L 827 283
L 828 287
L 828 289
L 829 287
L 830 288
L 831 286
L 832 286
L 833 288
L 834 282
L 835 282
L 836 279
L 837 276
L 838 270
L 839 266
L 839 262
L 840 259
L 841 254
L 842 259
L 843 261
L 844 269
L 845 268
L 846 271
L 847 275
L 848 281
L 849 287
L 850 288
L 850 288
L 851 296
L 852 300
L 853 304
L 854 305
L 855 304
L 856 305
L 857 306
L 858 307
L 859 308
L 860 309
L 861 310
L 861 310
L 862 309
L 863 311
L 864 310
L 865 313
L 866 311
L 867 311
L 868 312
L 869 313
L 870 311
L 871 312
L 872 311
L 873 312
L 873 313
L 874 314
L 875 314
L 876 315
L 877 316
L 878 315
L 879 316
L 880 318
L 881 318
L 882 319
L 883 321
L 884 321
L 884 320
L 885 321
L 886 320
L 887 320
L 888 320
L 889 321
L 890 321
L 891 322
L 892 319
L 893 319
L 894 317
L 895 313
L 895 311
L 896 308
L 897 305
L 898 304
L 899 303
L 900 301
L 901 302
L 902 303
L 903 305
L 904 301
L 905 300
L 906 295
L 906 291
L 907 284
L 908 279
L 909 275
L 910 270
L 911 263
L 912 260
L 913 259
L 914 258
L 915 257
L 916 254
L 917 253
L 917 252
L 918 251
L 919 250
L 920 251
L 921 253
L 922 254
L 923 258
L 924 265
L 925 272
L 926 279
L 927 283
L 928 288
L 928 294
L 929 301
L 930 302
L 931 306
L 932 307
L 933 310
L 934 310
L 935 310
L 936 311
L 937 318
L 938 315
L 939 314
L 939 316
L 940 317
L 941 317
L 942 318
L 943 316
L 944 320
L 945 323
L 946 322
L 947 324
L 948 325
L 949 325
L 950 327
L 950 327
L 951 327
L 952 328
L 953 327
L 954 326
L 955 324
L 956 322
L 957 319
L 958 317
L 959 315
L 960 315
L 961 314
L 961 314" style="stroke-width:1;stroke:rgba(0,116,217,1.0);fill:none"/><path  d="M 38 351
L 39 351
L 40 351
L 41 351
L 42 351
L 43 351
L 44 351
L 45 351
L 46 351
L 47 351
L 48 351
L 49 351
L 50 351
L 50 351
L 51 351
L 52 350
L 53 351
L 54 351
L 55 350
L 56 351
L 57 350
L 58 351
L 59 351
L 60 350
L 61 350
L 61 350
L 62 350
L 63 350
L 64 350
L 65 350
L 66 350
L 67 350
L 68 349
L 69 350
L 70 350
L 71 350
L 72 350
L 72 350
L 73 350
L 74 350
L 75 350
L 76 350
L 77 350
L 78 351
L 79 350
L 80 351
L 81 351
L 82 351
L 83 350
L 83 350
L 84 350
L 85 351
L 86 351
L 87 351
L 88 350
L 89 350
L 90 351
L 91 351
L 92 351
L 93 351
L 94 351
L 94 351
L 95 351
L 96 351
L 97 351
L 98 351
L 99 351
L 100 351
L 101 351
L 102 350
L 103 351
L 104 351
L 105 350
L 105 350
L 106 351
L 107 351
L 108 351
L 109 351
L 110 351
L 111 350
L 112 351
L 113 351
L 114 350
L 115 351
L 116 350
L 116 351
L 117 351
L 118 351
L 119 351
L 120 351
L 121 351
L 122 351
L 123 351
L 124 351
L 125 351
L 126 351
L 127 351
L 127 351
L 128 351
L 129 351
L 130 351
L 131 351
L 132 351
L 133 351
L 134 351
L 135 351
L 136 351
L 137 351
L 138 351
L 139 351
L 139 351
L 140 351
L 141 351
L 142 350
L 143 350
L 144 350
L 145 351
L 146 351
L 147 351
L 148 350
L 149 350
L 150 350
L 150 350
L 151 350
L 152 351
L 153 350
L 154 350
L 155 350
L 156 351
L 157 351
L 158 350
L 159 351
L 160 350
L 161 351
L 161 351
L 162 350
L 163 351
L 164 351
L 165 351
L 166 350
L 167 351
L 168 350
L 169 351
L 170 351
L 171 351
L 172 350
L 172 351
L 173 351
L 174 350
L 175 351
L 176 350
L 177 351
L 178 351
L 179 351
L 180 350
L 181 351
L 182 351
L 183 351
L 183 351
L 184 351
L 185 351
L 186 351
L 187 351
L 188 351
L 189 350
L 190 350
L 191 351
L 192 350
L 193 351
L 194 351
L 194 351
L 195 351
L 196 351
L 197 351
L 198 351
L 199 351
L 200 350
L 201 350
L 202 351
L 203 350
L 204 350
L 205 351
L 205 351
L 206 350
L 207 350
L 208 350
L 209 350
L 210 350
L 211 351
L 212 350
L 213 350
L 214 350
L 215 350
L 216 350
L 216 350
L 217 350
L 218 350
L 219 350
L 220 349
L 221 350
L 222 350
L 223 349
L 224 350
L 225 350
L 226 349
L 227 349
L 228 350
L 228 350
L 229 350
L 230 350
L 231 350
L 232 350
L 233 350
L 234 350
L 235 350
L 236 350
L 237 350
L 238 350
L 239 350
L 239 350
L 240 350
L 241 350
L 242 350
L 243 350
L 244 350
L 245 350
L 246 350
L 247 350
L 248 350
L 249 350
L 250 350
L 250 350
L 251 350
L 252 349
L 253 350
L 254 350
L 255 350
L 256 349
L 257 349
L 258 350
L 259 349
L 260 349
L 261 349
L 261 350
L 262 349
L 263 348
L 264 344
L 265 347
L 266 347
L 267 348
L 268 346
L 269 348
L 270 347
L 271 346
L 272 346
L 272 347
L 273 348
L 274 348
L 275 347
L 276 347
L 277 347
L 278 347
L 279 346
L 280 347
L 281 348
L 282 347
L 283 348
L 283 348
L 284 348
L 285 346
L 286 348
L 287 349
L 288 347
L 289 348
L 290 348
L 291 348
L 292 346
L 293 347
L 294 348
L 294 347
L 295 347
L 296 347
L 297 347
L 298 348
L 299 348
L 300 349
L 301 347
L 302 349
L 303 348
L 304 349
L 305 347
L 305 347
L 306 348
L 307 348
L 308 348
L 309 348
L 310 350
L 311 348
L 312 349
L 313 349
L 314 348
L 315 347
L 316 349
L 317 350
L 317 350
L 318 350
L 319 350
L 320 347
L 321 348
L 322 347
L 323 349
L 324 349
L 325 349
L 326 347
L 327 347
L 328 348
L 328 350
L 329 347
L 330 349
L 331 350
L 332 349
L 333 348
L 334 349
L 335 349
L 336 349
L 337 349
L 338 349
L 339 347
L 339 348
L 340 349
L 341 349
L 342 350
L 343 349
L 344 350
L 345 350
L 346 349
L 347 350
L 348 350
L 349 349
L 350 350
L 350 350
L 351 350
L 352 349
L 353 350
L 354 349
L 355 349
L 356 350
L 357 349
L 358 350
L 359 349
L 360 348
L 361 349
L 361 349
L 362 350
L 363 349
L 364 349
L 365 349
L 366 349
L 367 348
L 368 347
L 369 349
L 370 349
L 371 348
L 372 349
L 372 348
L 373 348
L 374 348
L 375 346
L 376 348
L 377 349
L 378 346
L 379 348
L 380 349
L 381 345
L 382 348
L 383 349
L 383 347
L 384 349
L 385 346
L 386 347
L 387 344
L 388 345
L 389 349
L 390 346
L 391 347
L 392 342
L 393 347
L 394 344
L 394 347
L 395 345
L 396 345
L 397 345
L 398 346
L 399 347
L 400 346
L 401 347
L 402 347
L 403 349
L 404 347
L 405 348
L 405 347
L 406 347
L 407 346
L 408 349
L 409 348
L 410 348
L 411 349
L 412 348
L 413 348
L 414 349
L 415 349
L 416 349
L 417 349
L 417 348
L 418 349
L 419 350
L 420 349
L 421 350
L 422 350
L 423 350
L 424 349
L 425 349
L 426 350
L 427 350
L 428 350
L 428 349
L 429 350
L 430 349
L 431 349
L 432 350
L 433 349
L 434 349
L 435 350
L 436 350
L 437 350
L 438 350
L 439 350
L 439 350
L 440 350
L 441 350
L 442 350
L 443 350
L 444 350
L 445 350
L 446 350
L 447 351
L 448 350
L 449 350
L 450 350
L 450 351
L 451 350
L 452 350
L 453 350
L 454 350
L 455 350
L 456 350
L 457 350
L 458 350
L 459 350
L 460 350
L 461 350
L 461 350
L 462 350
L 463 350
L 464 350
L 465 350
L 466 350
L 467 350
L 468 350
L 469 350
L 470 350
L 471 350
L 472 350
L 472 350
L 473 350
L 474 351
L 475 351
L 476 350
L 477 351
L 478 351
L 479 351
L 480 350
L 481 351
L 482 351
L 483 350
L 483 351
L 484 351
L 485 351
L 486 351
L 487 351
L 488 351
L 489 351
L 490 351
L 491 351
L 492 351
L 493 351
L 494 351
L 494 350
L 495 351
L 496 351
L 497 350
L 498 350
L 499 351
L 500 350
L 501 350
L 502 350
L 503 350
L 504 351
L 505 350
L 506 350
L 506 350
L 507 350
L 508 351
L 509 350
L 510 351
L 511 350
L 512 350
L 513 350
L 514 350
L 515 350
L 516 350
L 517 350
L 517 350
L 518 350
L 519 350
L 520 350
L 521 350
L 522 350
L 523 350
L 524 350
L 525 350
L 526 350
L 527 350
L 528 350
L 528 349
L 529 349
L 530 349
L 531 350
L 532 348
L 533 349
L 534 349
L 535 350
L 536 349
L 537 349
L 538 349
L 539 350
L 539 349
L 540 350
L 541 349
L 542 349
L 543 350
L 544 350
L 545 348
L 546 350
L 547 349
L 548 349
L 549 350
L 550 349
L 550 349
L 551 349
L 552 349
L 553 349
L 554 350
L 555 349
L 556 349
L 557 349
L 558 349
L 559 349
L 560 349
L 561 349
L 561 350
L 562 349
L 563 349
L 564 350
L 565 349
L 566 350
L 567 349
L 568 350
L 569 350
L 570 350
L 571 349
L 572 349
L 572 350
L 573 349
L 574 349
L 575 349
L 576 349
L 577 349
L 578 349
L 579 349
L 580 349
L 581 350
L 582 350
L 583 350
L 583 348
L 584 349
L 585 350
L 586 350
L 587 349
L 588 349
L 589 347
L 590 347
L 591 347
L 592 346
L 593 346
L 594 347
L 595 347
L 595 345
L 596 345
L 597 346
L 598 344
L 599 342
L 600 344
L 601 346
L 602 344
L 603 342
L 604 342
L 605 340
L 606 339
L 606 341
L 607 341
L 608 338
L 609 336
L 610 335
L 611 337
L 612 335
L 613 338
L 614 335
L 615 336
L 616 341
L 617 335
L 617 341
L 618 331
L 619 331
L 620 334
L 621 337
L 622 340
L 623 341
L 624 338
L 625 337
L 626 341
L 627 344
L 628 341
L 628 340
L 629 340
L 630 343
L 631 344
L 632 346
L 633 345
L 634 345
L 635 345
L 636 346
L 637 347
L 638 345
L 639 348
L 639 347
L 640 347
L 641 346
L 642 348
L 643 349
L 644 349
L 645 349
L 646 349
L 647 349
L 648 349
L 649 348
L 650 350
L 650 349
L 651 350
L 652 349
L 653 349
L 654 348
L 655 348
L 656 348
L 657 347
L 658 349
L 659 348
L 660 347
L 661 346
L 661 346
L 662 346
L 663 345
L 664 346
L 665 344
L 666 343
L 667 341
L 668 340
L 669 340
L 670 343
L 671 342
L 672 341
L 672 338
L 673 333
L 674 336
L 675 334
L 676 334
L 677 342
L 678 333
L 679 333
L 680 329
L 681 326
L 682 329
L 683 330
L 683 334
L 684 335
L 685 331
L 686 321
L 687 322
L 688 324
L 689 331
L 690 330
L 691 332
L 692 327
L 693 322
L 694 322
L 695 323
L 695 328
L 696 330
L 697 330
L 698 323
L 699 304
L 700 324
L 701 319
L 702 327
L 703 332
L 704 333
L 705 330
L 706 316
L 706 327
L 707 325
L 708 327
L 709 331
L 710 332
L 711 325
L 712 317
L 713 328
L 714 324
L 715 317
L 716 331
L 717 327
L 717 317
L 718 302
L 719 307
L 720 306
L 721 312
L 722 316
L 723 320
L 724 310
L 725 287
L 726 314
L 727 304
L 728 316
L 728 318
L 729 320
L 730 318
L 731 305
L 732 316
L 733 315
L 734 323
L 735 325
L 736 332
L 737 324
L 738 316
L 739 327
L 739 324
L 740 332
L 741 338
L 742 341
L 743 335
L 744 329
L 745 340
L 746 338
L 747 342
L 748 340
L 749 344
L 750 343
L 750 341
L 751 343
L 752 341
L 753 343
L 754 344
L 755 345
L 756 346
L 757 344
L 758 344
L 759 342
L 760 345
L 761 346
L 761 346
L 762 346
L 763 344
L 764 347
L 765 345
L 766 347
L 767 347
L 768 346
L 769 345
L 770 346
L 771 346
L 772 346
L 772 347
L 773 348
L 774 347
L 775 346
L 776 345
L 777 346
L 778 346
L 779 348
L 780 345
L 781 349
L 782 348
L 783 347
L 784 346
L 784 348
L 785 349
L 786 349
L 787 350
L 788 348
L 789 349
L 790 348
L 791 350
L 792 349
L 793 348
L 794 349
L 795 349
L 795 346
L 796 349
L 797 348
L 798 349
L 799 349
L 800 350
L 801 348
L 802 348
L 803 347
L 804 348
L 805 349
L 806 348
L 806 349
L 807 347
L 808 345
L 809 345
L 810 346
L 811 345
L 812 346
L 813 346
L 814 343
L 815 342
L 816 345
L 817 341
L 817 343
L 818 346
L 819 345
L 820 341
L 821 340
L 822 341
L 823 341
L 824 342
L 825 346
L 826 345
L 827 340
L 828 344
L 828 343
L 829 339
L 830 343
L 831 344
L 832 345
L 833 341
L 834 339
L 835 343
L 836 336
L 837 341
L 838 339
L 839 341
L 839 338
L 840 336
L 841 339
L 842 340
L 843 342
L 844 346
L 845 340
L 846 341
L 847 340
L 848 344
L 849 345
L 850 344
L 850 345
L 851 347
L 852 344
L 853 344
L 854 345
L 855 344
L 856 345
L 857 346
L 858 348
L 859 345
L 860 344
L 861 346
L 861 344
L 862 344
L 863 347
L 864 347
L 865 348
L 866 343
L 867 345
L 868 345
L 869 345
L 870 346
L 871 347
L 872 347
L 873 345
L 873 345
L 874 347
L 875 345
L 876 346
L 877 348
L 878 346
L 879 345
L 880 347
L 881 347
L 882 346
L 883 347
L 884 348
L 884 345
L 885 346
L 886 346
L 887 347
L 888 347
L 889 348
L 890 349
L 891 346
L 892 344
L 893 346
L 894 345
L 895 344
L 895 346
L 896 346
L 897 344
L 898 342
L 899 345
L 900 343
L 901 345
L 902 346
L 903 348
L 904 341
L 905 341
L 906 341
L 906 340
L 907 339
L 908 341
L 909 344
L 910 337
L 911 335
L 912 338
L 913 339
L 914 338
L 915 341
L 916 341
L 917 335
L 917 334
L 918 338
L 919 338
L 920 338
L 921 343
L 922 343
L 923 338
L 924 341
L 925 343
L 926 344
L 927 342
L 928 347
L 928 347
L 929 345
L 930 342
L 931 346
L 932 345
L 933 346
L 934 347
L 935 348
L 936 345
L 937 348
L 938 344
L 939 344
L 939 347
L 940 347
L 941 348
L 942 346
L 943 346
L 944 347
L 945 347
L 946 347
L 947 349
L 948 349
L 949 346
L 950 348
L 950 347
L 951 347
L 952 347
L 953 348
L 954 348
L 955 345
L 956 346
L 957 345
L 958 346
L 959 346
L 960 347
L 961 347
L 961 345" style="stroke-width:1;stroke:rgba(0,217,101,1.0);fill:none"/><path  d="M 38 351
L 39 351
L 40 351
L 41 351
L 42 351
L 43 351
L 44 351
L 45 351
L 46 351
L 47 351
L 48 351
L 49 351
L 50 351
L 50 351
L 51 351
L 52 351
L 53 351
L 54 351
L 55 351
L 56 351
L 57 351
L 58 351
L 59 351
L 60 351
L 61 351
L 61 350
L 62 351
L 63 351
L 64 351
L 65 351
L 66 351
L 67 351
L 68 351
L 69 351
L 70 351
L 71 351
L 72 351
L 72 351
L 73 351
L 74 351
L 75 350
L 76 351
L 77 351
L 78 351
L 79 351
L 80 351
L 81 351
L 82 351
L 83 351
L 83 351
L 84 351
L 85 351
L 86 351
L 87 351
L 88 351
L 89 351
L 90 351
L 91 351
L 92 351
L 93 351
L 94 351
L 94 351
L 95 351
L 96 351
L 97 351
L 98 351
L 99 351
L 100 351
L 101 351
L 102 351
L 103 351
L 104 351
L 105 351
L 105 351
L 106 351
L 107 351
L 108 351
L 109 351
L 110 351
L 111 351
L 112 351
L 113 351
L 114 351
L 115 351
L 116 351
L 116 351
L 117 351
L 118 351
L 119 351
L 120 351
L 121 351
L 122 351
L 123 351
L 124 351
L 125 351
L 126 351
L 127 351
L 127 351
L 128 351
L 129 351
L 130 351
L 131 351
L 132 351
L 133 351
L 134 351
L 135 351
L 136 351
L 137 351
L 138 351
L 139 351
L 139 351
L 140 351
L 141 351
L 142 351
L 143 351
L 144 351
L 145 351
L 146 351
L 147 350
L 148 351
L 149 351
L 150 351
L 150 350
L 151 351
L 152 350
L 153 351
L 154 351
L 155 351
L 156 351
L 157 351
L 158 351
L 159 351
L 160 351
L 161 351
L 161 351
L 162 351
L 163 351
L 164 350
L 165 351
L 166 351
L 167 351
L 168 351
L 169 351
L 170 351
L 171 351
L 172 351
L 172 351
L 173 351
L 174 351
L 175 351
L 176 351
L 177 351
L 178 351
L 179 351
L 180 351
L 181 351
L 182 351
L 183 351
L 183 351
L 184 351
L 185 351
L 186 351
L 187 351
L 188 351
L 189 351
L 190 351
L 191 351
L 192 351
L 193 351
L 194 351
L 194 351
L 195 351
L 196 351
L 197 351
L 198 351
L 199 351
L 200 351
L 201 351
L 202 351
L 203 351
L 204 351
L 205 351
L 205 351
L 206 351
L 207 351
L 208 351
L 209 351
L 210 351
L 211 351
L 212 351
L 213 351
L 214 351
L 215 351
L 216 351
L 216 351
L 217 351
L 218 351
L 219 351
L 220 350
L 221 351
L 222 351
L 223 351
L 224 351
L 225 351
L 226 351
L 227 351
L 228 351
L 228 351
L 229 351
L 230 351
L 231 351
L 232 351
L 233 351
L 234 351
L 235 351
L 236 351
L 237 351
L 238 351
L 239 351
L 239 351
L 240 351
L 241 351
L 242 351
L 243 351
L 244 351
L 245 351
L 246 351
L 247 351
L 248 351
L 249 351
L 250 351
L 250 350
L 251 351
L 252 351
L 253 351
L 254 350
L 255 351
L 256 351
L 257 351
L 258 351
L 259 351
L 260 351
L 261 351
L 261 350
L 262 351
L 263 351
L 264 350
L 265 351
L 266 351
L 267 351
L 268 351
L 269 351
L 270 351
L 271 350
L 272 350
L 272 351
L 273 351
L 274 350
L 275 350
L 276 350
L 277 350
L 278 350
L 279 350
L 280 350
L 281 351
L 282 350
L 283 351
L 283 351
L 284 350
L 285 350
L 286 351
L 287 350
L 288 350
L 289 351
L 290 350
L 291 350
L 292 350
L 293 350
L 294 351
L 294 350
L 295 350
L 296 351
L 297 351
L 298 351
L 299 351
L 300 350
L 301 350
L 302 350
L 303 350
L 304 351
L 305 350
L 305 351
L 306 350
L 307 351
L 308 350
L 309 350
L 310 351
L 311 350
L 312 350
L 313 351
L 314 350
L 315 350
L 316 350
L 317 351
L 317 350
L 318 350
L 319 350
L 320 350
L 321 350
L 322 351
L 323 350
L 324 350
L 325 350
L 326 351
L 327 350
L 328 350
L 328 350
L 329 351
L 330 350
L 331 351
L 332 351
L 333 350
L 334 350
L 335 350
L 336 350
L 337 350
L 338 350
L 339 351
L 339 350
L 340 350
L 341 350
L 342 350
L 343 350
L 344 350
L 345 351
L 346 350
L 347 351
L 348 351
L 349 351
L 350 351
L 350 350
L 351 351
L 352 350
L 353 351
L 354 351
L 355 351
L 356 351
L 357 351
L 358 351
L 359 351
L 360 351
L 361 351
L 361 350
L 362 351
L 363 351
L 364 351
L 365 351
L 366 351
L 367 351
L 368 350
L 369 351
L 370 351
L 371 351
L 372 351
L 372 350
L 373 351
L 374 350
L 375 351
L 376 350
L 377 351
L 378 351
L 379 350
L 380 351
L 381 351
L 382 350
L 383 351
L 383 351
L 384 350
L 385 351
L 386 350
L 387 351
L 388 350
L 389 351
L 390 351
L 391 351
L 392 351
L 393 351
L 394 351
L 394 350
L 395 351
L 396 350
L 397 351
L 398 351
L 399 351
L 400 351
L 401 351
L 402 350
L 403 351
L 404 350
L 405 350
L 405 350
L 406 350
L 407 351
L 408 350
L 409 350
L 410 350
L 411 350
L 412 351
L 413 350
L 414 350
L 415 350
L 416 351
L 417 350
L 417 351
L 418 351
L 419 351
L 420 351
L 421 351
L 422 350
L 423 351
L 424 351
L 425 350
L 426 351
L 427 350
L 428 351
L 428 351
L 429 351
L 430 351
L 431 350
L 432 351
L 433 350
L 434 351
L 435 351
L 436 351
L 437 351
L 438 350
L 439 350
L 439 350
L 440 351
L 441 351
L 442 351
L 443 351
L 444 351
L 445 351
L 446 351
L 447 351
L 448 351
L 449 351
L 450 351
L 450 351
L 451 351
L 452 351
L 453 351
L 454 350
L 455 351
L 456 351
L 457 351
L 458 351
L 459 351
L 460 351
L 461 351
L 461 351
L 462 350
L 463 351
L 464 351
L 465 351
L 466 351
L 467 351
L 468 351
L 469 351
L 470 351
L 471 350
L 472 351
L 472 351
L 473 351
L 474 351
L 475 351
L 476 351
L 477 351
L 478 351
L 479 351
L 480 351
L 481 351
L 482 351
L 483 351
L 483 351
L 484 351
L 485 351
L 486 351
L 487 351
L 488 351
L 489 351
L 490 351
L 491 351
L 492 351
L 493 351
L 494 350
L 494 351
L 495 351
L 496 351
L 497 351
L 498 351
L 499 351
L 500 351
L 501 351
L 502 351
L 503 351
L 504 351
L 505 351
L 506 351
L 506 350
L 507 351
L 508 351
L 509 351
L 510 351
L 511 351
L 512 351
L 513 351
L 514 351
L 515 351
L 516 351
L 517 351
L 517 351
L 518 351
L 519 351
L 520 351
L 521 351
L 522 351
L 523 351
L 524 351
L 525 351
L 526 351
L 527 351
L 528 351
L 528 351
L 529 350
L 530 351
L 531 351
L 532 351
L 533 351
L 534 351
L 535 351
L 536 351
L 537 351
L 538 351
L 539 351
L 539 351
L 540 351
L 541 351
L 542 351
L 543 351
L 544 350
L 545 351
L 546 351
L 547 351
L 548 351
L 549 351
L 550 350
L 550 351
L 551 351
L 552 351
L 553 351
L 554 351
L 555 350
L 556 351
L 557 351
L 558 351
L 559 351
L 560 351
L 561 350
L 561 351
L 562 351
L 563 351
L 564 351
L 565 351
L 566 351
L 567 351
L 568 351
L 569 351
L 570 351
L 571 351
L 572 351
L 572 351
L 573 351
L 574 351
L 575 351
L 576 351
L 577 351
L 578 350
L 579 351
L 580 351
L 581 351
L 582 351
L 583 351
L 583 351
L 584 350
L 585 351
L 586 350
L 587 351
L 588 350
L 589 351
L 590 351
L 591 351
L 592 351
L 593 350
L 594 351
L 595 351
L 595 351
L 596 350
L 597 350
L 598 351
L 599 350
L 600 351
L 601 351
L 602 350
L 603 350
L 604 350
L 605 351
L 606 351
L 606 351
L 607 350
L 608 351
L 609 350
L 610 350
L 611 351
L 612 351
L 613 351
L 614 350
L 615 350
L 616 350
L 617 350
L 617 351
L 618 351
L 619 350
L 620 351
L 621 350
L 622 350
L 623 350
L 624 351
L 625 351
L 626 350
L 627 350
L 628 351
L 628 350
L 629 351
L 630 350
L 631 350
L 632 350
L 633 350
L 634 350
L 635 350
L 636 350
L 637 350
L 638 351
L 639 351
L 639 350
L 640 351
L 641 350
L 642 350
L 643 351
L 644 351
L 645 351
L 646 350
L 647 350
L 648 350
L 649 351
L 650 351
L 650 350
L 651 351
L 652 351
L 653 351
L 654 351
L 655 351
L 656 351
L 657 351
L 658 351
L 659 350
L 660 351
L 661 351
L 661 351
L 662 351
L 663 350
L 664 351
L 665 351
L 666 351
L 667 351
L 668 351
L 669 351
L 670 350
L 671 351
L 672 351
L 672 351
L 673 351
L 674 351
L 675 351
L 676 351
L 677 350
L 678 350
L 679 351
L 680 351
L 681 351
L 682 351
L 683 351
L 683 351
L 684 351
L 685 351
L 686 351
L 687 351
L 688 351
L 689 351
L 690 351
L 691 350
L 692 351
L 693 351
L 694 351
L 695 350
L 695 351
L 696 351
L 697 350
L 698 351
L 699 351
L 700 351
L 701 351
L 702 351
L 703 350
L 704 350
L 705 351
L 706 350
L 706 350
L 707 351
L 708 350
L 709 351
L 710 351
L 711 350
L 712 351
L 713 351
L 714 351
L 715 351
L 716 351
L 717 351
L 717 350
L 718 351
L 719 351
L 720 351
L 721 350
L 722 351
L 723 350
L 724 350
L 725 351
L 726 351
L 727 350
L 728 351
L 728 350
L 729 351
L 730 350
L 731 351
L 732 351
L 733 350
L 734 351
L 735 350
L 736 351
L 737 350
L 738 351
L 739 350
L 739 351
L 740 350
L 741 351
L 742 351
L 743 350
L 744 350
L 745 350
L 746 351
L 747 351
L 748 351
L 749 350
L 750 351
L 750 351
L 751 351
L 752 351
L 753 351
L 754 351
L 755 351
L 756 351
L 757 351
L 758 350
L 759 351
L 760 351
L 761 351
L 761 351
L 762 351
L 763 351
L 764 351
L 765 351
L 766 350
L 767 351
L 768 351
L 769 351
L 770 351
L 771 351
L 772 351
L 772 351
L 773 351
L 774 351
L 775 351
L 776 351
L 777 351
L 778 351
L 779 351
L 780 351
L 781 351
L 782 351
L 783 351
L 784 351
L 784 351
L 785 351
L 786 351
L 787 351
L 788 351
L 789 351
L 790 351
L 791 351
L 792 351
L 793 351
L 794 351
L 795 351
L 795 351
L 796 351
L 797 351
L 798 351
L 799 351
L 800 351
L 801 351
L 802 351
L 803 351
L 804 351
L 805 351
L 806 351
L 806 351
L 807 351
L 808 351
L 809 351
L 810 351
L 811 351
L 812 351
L 813 351
L 814 351
L 815 351
L 816 351
L 817 351
L 817 351
L 818 351
L 819 351
L 820 351
L 821 351
L 822 351
L 823 351
L 824 351
L 825 351
L 826 351
L 827 351
L 828 351
L 828 350
L 829 351
L 830 351
L 831 351
L 832 351
L 833 351
L 834 351
L 835 351
L 836 351
L 837 351
L 838 351
L 839 351
L 839 351
L 840 351
L 841 351
L 842 351
L 843 351
L 844 351
L 845 351
L 846 351
L 847 351
L 848 351
L 849 351
L 850 351
L 850 351
L 851 351
L 852 351
L 853 351
L 854 351
L 855 351
L 856 351
L 857 351
L 858 351
L 859 351
L 860 351
L 861 351
L 861 351
L 862 351
L 863 351
L 864 351
L 865 351
L 866 351
L 867 351
L 868 351
L 869 351
L 870 351
L 871 351
L 872 351
L 873 351
L 873 351
L 874 351
L 875 351
L 876 351
L 877 351
L 878 351
L 879 351
L 880 351
L 881 351
L 882 351
L 883 351
L 884 351
L 884 351
L 885 351
L 886 351
L 887 351
L 888 351
L 889 351
L 890 351
L 891 351
L 892 351
L 893 351
L 894 351
L 895 351
L 895 351
L 896 351
L 897 351
L 898 351
L 899 351
L 900 351
L 901 351
L 902 351
L 903 351
L 904 351
L 905 351
L 906 351
L 906 351
L 907 351
L 908 351
L 909 351
L 910 351
L 911 351
L 912 351
L 913 351
L 914 351
L 915 351
L 916 351
L 917 351
L 917 351
L 918 351
L 919 351
L 920 351
L 921 351
L 922 351
L 923 351
L 924 351
L 925 351
L 926 351
L 927 351
L 928 351
L 928 350
L 929 351
L 930 351
L 931 351
L 932 351
L 933 350
L 934 351
L 935 351
L 936 351
L 937 351
L 938 350
L 939 351
L 939 351
L 940 351
L 941 351
L 942 351
L 943 351
L 944 351
L 945 351
L 946 351
L 947 351
L 948 351
L 949 351
L 950 351
L 950 351
L 951 351
L 952 351
L 953 351
L 954 351
L 955 351
L 956 351
L 957 351
L 958 351
L 959 351
L 960 351
L 961 351
L 961 351" style="stroke-width:1;stroke:rgba(217,0,116,1.0);fill:none"/><text x="385" y="33" style="stroke-width:0;stroke:none;fill:rgba(51,51,51,1.0);font-size:23.0px;font-family:'Roboto Medium',sans-serif">Neunkirchen 28.11.2022</text><path  d="M 38 11
L 251 11
L 251 91
L 38 91
L 38 11" style="stroke-width:1;stroke:rgba(51,51,51,1.0);fill:rgba(255,255,255,1.0)"/><text x="43" y="26" style="stroke-width:0;stroke:none;fill:rgba(51,51,51,1.0);font-size:10.2px;font-family:'Roboto Medium',sans-serif">Sieben Tage Durschnitt Inzidenz Fälle</text><path  d="M 221 21
L 241 21" style="stroke-width:1;stroke:rgba(0,116,217,1.0);fill:none"/><text x="43" y="56" style="stroke-width:0;stroke:none;fill:rgba(51,51,51,1.0);font-size:10.2px;font-family:'Roboto Medium',sans-serif">Anzahl Faelle</text><path  d="M 110 51
L 241 51" style="stroke-width:1;stroke:rgba(0,217,101,1.0);fill:none"/><text x="43" y="86" style="stroke-width:0;stroke:none;fill:rgba(51,51,51,1.0);font-size:10.2px;font-family:'Roboto Medium',sans-serif">Anzahl Tot</text><path  d="M 98 81
L 241 81" style="stroke-width:1;stroke:rgba(217,0,116,1.0);fill:none"/></svg>