<svg xmlns="http://www.w3.org/2000/svg" xmlns:xlink="http://www.w3.org/1999/xlink" width="1024" height="400">\n<path  d="M 0 0
L 1024 0
L 1024 400
L 0 400
L 0 0" style="stroke-width:0;stroke:rgba(255,255,255,1.0);fill:rgba(255,255,255,1.0)"/><path  d="M 38 11
L 969 11
L 969 351
L 38 351
L 38 11" style="stroke-width:0;stroke:rgba(255,255,255,1.0);fill:rgba(255,255,255,1.0)"/><path  d="M 38 351
L 969 351" style="stroke-width:1;stroke:rgba(51,51,51,1.0);fill:none"/><path  d="M 38 351
L 38 356" style="stroke-width:1;stroke:rgba(51,51,51,1.0);fill:none"/><text x="5" y="373" style="stroke-width:0;stroke:none;fill:rgba(51,51,51,1.0);font-size:12.8px;font-family:'Roboto Medium',sans-serif">2020-02-26</text><path  d="M 155 351
L 155 356" style="stroke-width:1;stroke:rgba(51,51,51,1.0);fill:none"/><text x="122" y="373" style="stroke-width:0;stroke:none;fill:rgba(51,51,51,1.0);font-size:12.8px;font-family:'Roboto Medium',sans-serif">2020-04-05</text><path  d="M 271 351
L 271 356" style="stroke-width:1;stroke:rgba(51,51,51,1.0);fill:none"/><text x="238" y="373" style="stroke-width:0;stroke:none;fill:rgba(51,51,51,1.0);font-size:12.8px;font-family:'Roboto Medium',sans-serif">2020-05-14</text><path  d="M 388 351
L 388 356" style="stroke-width:1;stroke:rgba(51,51,51,1.0);fill:none"/><text x="355" y="373" style="stroke-width:0;stroke:none;fill:rgba(51,51,51,1.0);font-size:12.8px;font-family:'Roboto Medium',sans-serif">2020-06-22</text><path  d="M 504 351
L 504 356" style="stroke-width:1;stroke:rgba(51,51,51,1.0);fill:none"/><text x="471" y="373" style="stroke-width:0;stroke:none;fill:rgba(51,51,51,1.0);font-size:12.8px;font-family:'Roboto Medium',sans-serif">2020-07-31</text><path  d="M 620 351
L 620 356" style="stroke-width:1;stroke:rgba(51,51,51,1.0);fill:none"/><text x="587" y="373" style="stroke-width:0;stroke:none;fill:rgba(51,51,51,1.0);font-size:12.8px;font-family:'Roboto Medium',sans-serif">2020-09-08</text><path  d="M 737 351
L 737 356" style="stroke-width:1;stroke:rgba(51,51,51,1.0);fill:none"/><text x="704" y="373" style="stroke-width:0;stroke:none;fill:rgba(51,51,51,1.0);font-size:12.8px;font-family:'Roboto Medium',sans-serif">2020-10-17</text><path  d="M 853 351
L 853 356" style="stroke-width:1;stroke:rgba(51,51,51,1.0);fill:none"/><text x="820" y="373" style="stroke-width:0;stroke:none;fill:rgba(51,51,51,1.0);font-size:12.8px;font-family:'Roboto Medium',sans-serif">2020-11-25</text><path  d="M 969 351
L 969 356" style="stroke-width:1;stroke:rgba(51,51,51,1.0);fill:none"/><text x="936" y="373" style="stroke-width:0;stroke:none;fill:rgba(51,51,51,1.0);font-size:12.8px;font-family:'Roboto Medium',sans-serif">2021-01-04</text><text x="485" y="395" style="stroke-width:0;stroke:none;fill:rgba(51,51,51,1.0);font-size:12.8px;font-family:'Roboto Medium',sans-serif">Datum</text><path  d="M 970 351
L 970 11" style="stroke-width:1;stroke:rgba(51,51,51,1.0);fill:none"/><path  d="M 970 351
L 975 351" style="stroke-width:1;stroke:rgba(51,51,51,1.0);fill:none"/><text x="980" y="357" style="stroke-width:0;stroke:none;fill:rgba(51,51,51,1.0);font-size:12.8px;font-family:'Roboto Medium',sans-serif">0.00</text><path  d="M 970 308
L 975 308" style="stroke-width:1;stroke:rgba(51,51,51,1.0);fill:none"/><text x="980" y="314" style="stroke-width:0;stroke:none;fill:rgba(51,51,51,1.0);font-size:12.8px;font-family:'Roboto Medium',sans-serif">72.00</text><path  d="M 970 265
L 975 265" style="stroke-width:1;stroke:rgba(51,51,51,1.0);fill:none"/><text x="980" y="271" style="stroke-width:0;stroke:none;fill:rgba(51,51,51,1.0);font-size:12.8px;font-family:'Roboto Medium',sans-serif">143.00</text><path  d="M 970 223
L 975 223" style="stroke-width:1;stroke:rgba(51,51,51,1.0);fill:none"/><text x="980" y="229" style="stroke-width:0;stroke:none;fill:rgba(51,51,51,1.0);font-size:12.8px;font-family:'Roboto Medium',sans-serif">214.00</text><path  d="M 970 181
L 975 181" style="stroke-width:1;stroke:rgba(51,51,51,1.0);fill:none"/><text x="980" y="187" style="stroke-width:0;stroke:none;fill:rgba(51,51,51,1.0);font-size:12.8px;font-family:'Roboto Medium',sans-serif">285.00</text><path  d="M 970 138
L 975 138" style="stroke-width:1;stroke:rgba(51,51,51,1.0);fill:none"/><text x="980" y="144" style="stroke-width:0;stroke:none;fill:rgba(51,51,51,1.0);font-size:12.8px;font-family:'Roboto Medium',sans-serif">357.00</text><path  d="M 970 95
L 975 95" style="stroke-width:1;stroke:rgba(51,51,51,1.0);fill:none"/><text x="980" y="101" style="stroke-width:0;stroke:none;fill:rgba(51,51,51,1.0);font-size:12.8px;font-family:'Roboto Medium',sans-serif">428.00</text><path  d="M 970 53
L 975 53" style="stroke-width:1;stroke:rgba(51,51,51,1.0);fill:none"/><text x="980" y="59" style="stroke-width:0;stroke:none;fill:rgba(51,51,51,1.0);font-size:12.8px;font-family:'Roboto Medium',sans-serif">499.00</text><path  d="M 970 11
L 975 11" style="stroke-width:1;stroke:rgba(51,51,51,1.0);fill:none"/><text x="980" y="17" style="stroke-width:0;stroke:none;fill:rgba(51,51,51,1.0);font-size:12.8px;font-family:'Roboto Medium',sans-serif">570.00</text><path  d="M 38 351
L 41 351
L 44 351
L 47 351
L 50 351
L 53 351
L 56 351
L 59 351
L 62 351
L 65 351
L 68 351
L 71 351
L 74 351
L 77 351
L 80 351
L 83 351
L 86 349
L 89 349
L 92 349
L 95 349
L 98 349
L 101 347
L 104 344
L 107 342
L 110 333
L 113 330
L 116 322
L 119 321
L 122 322
L 125 312
L 128 306
L 131 306
L 134 308
L 137 312
L 140 312
L 143 308
L 146 320
L 149 328
L 152 333
L 155 333
L 157 336
L 160 337
L 163 337
L 166 335
L 169 331
L 172 333
L 175 327
L 178 325
L 181 322
L 184 326
L 187 325
L 190 326
L 193 327
L 196 332
L 199 330
L 202 333
L 205 332
L 208 335
L 211 337
L 214 337
L 217 341
L 220 344
L 223 344
L 226 345
L 229 345
L 232 345
L 235 345
L 238 345
L 241 346
L 244 346
L 247 347
L 250 348
L 253 349
L 256 351
L 259 351
L 262 351
L 265 351
L 268 351
L 271 351
L 273 351
L 276 351
L 279 351
L 282 349
L 285 349
L 288 349
L 291 349
L 294 349
L 297 349
L 300 349
L 303 351
L 306 351
L 309 351
L 312 349
L 315 349
L 318 348
L 321 348
L 324 348
L 327 348
L 330 348
L 333 349
L 336 349
L 339 351
L 342 351
L 345 351
L 348 351
L 351 351
L 354 351
L 357 351
L 360 351
L 363 351
L 366 351
L 369 351
L 372 351
L 375 351
L 378 351
L 381 351
L 384 351
L 387 351
L 389 351
L 392 351
L 395 351
L 398 351
L 401 348
L 404 347
L 407 347
L 410 347
L 413 346
L 416 345
L 419 344
L 422 346
L 425 347
L 428 346
L 431 346
L 434 345
L 437 344
L 440 345
L 443 345
L 446 345
L 449 346
L 452 345
L 455 347
L 458 349
L 461 349
L 464 349
L 467 349
L 470 349
L 473 351
L 476 351
L 479 351
L 482 351
L 485 351
L 488 351
L 491 351
L 494 351
L 497 351
L 500 351
L 503 351
L 505 351
L 508 351
L 511 351
L 514 351
L 517 351
L 520 351
L 523 351
L 526 351
L 529 351
L 532 349
L 535 349
L 538 348
L 541 347
L 544 346
L 547 346
L 550 346
L 553 346
L 556 344
L 559 345
L 562 345
L 565 345
L 568 343
L 571 343
L 574 343
L 577 344
L 580 344
L 583 343
L 586 344
L 589 346
L 592 346
L 595 347
L 598 348
L 601 348
L 604 349
L 607 346
L 610 345
L 613 345
L 616 345
L 619 344
L 621 338
L 624 338
L 627 339
L 630 341
L 633 338
L 636 337
L 639 337
L 642 337
L 645 338
L 648 338
L 651 335
L 654 337
L 657 330
L 660 327
L 663 326
L 666 326
L 669 324
L 672 321
L 675 319
L 678 325
L 681 322
L 684 326
L 687 325
L 690 330
L 693 335
L 696 334
L 699 331
L 702 332
L 705 327
L 708 321
L 711 310
L 714 302
L 717 304
L 720 294
L 723 293
L 726 290
L 729 288
L 732 293
L 735 292
L 737 288
L 740 293
L 743 292
L 746 298
L 749 284
L 752 279
L 755 250
L 758 248
L 761 184
L 764 170
L 767 134
L 770 130
L 773 100
L 776 72
L 779 47
L 782 72
L 785 48
L 788 32
L 791 27
L 794 56
L 797 52
L 800 17
L 803 13
L 806 26
L 809 60
L 812 50
L 815 38
L 818 78
L 821 111
L 824 151
L 827 123
L 830 95
L 833 119
L 836 111
L 839 93
L 842 107
L 845 109
L 848 150
L 851 167
L 853 162
L 856 190
L 859 233
L 862 232
L 865 216
L 868 227
L 871 235
L 874 242
L 877 232
L 880 236
L 883 247
L 886 258
L 889 256
L 892 270
L 895 244
L 898 255
L 901 240
L 904 240
L 907 245
L 910 245
L 913 251
L 916 279
L 919 276
L 922 282
L 925 282
L 928 280
L 931 282
L 934 277
L 937 281
L 940 286
L 943 289
L 946 294
L 949 303
L 952 304
L 955 308
L 958 311
L 961 310
L 964 310
L 967 311
L 969 304" style="stroke-width:1;stroke:rgba(0,116,217,1.0);fill:none"/><path  d="M 38 351
L 41 351
L 44 351
L 47 351
L 50 351
L 53 351
L 56 351
L 59 351
L 62 351
L 65 351
L 68 351
L 71 351
L 74 351
L 77 351
L 80 351
L 83 351
L 86 350
L 89 351
L 92 351
L 95 351
L 98 351
L 101 349
L 104 349
L 107 349
L 110 346
L 113 349
L 116 346
L 119 350
L 122 350
L 125 343
L 128 346
L 131 346
L 134 349
L 137 349
L 140 350
L 143 348
L 146 350
L 149 351
L 152 348
L 155 349
L 157 351
L 160 351
L 163 348
L 166 349
L 169 348
L 172 349
L 175 346
L 178 349
L 181 349
L 184 350
L 187 348
L 190 349
L 193 350
L 196 349
L 199 348
L 202 351
L 205 349
L 208 350
L 211 350
L 214 350
L 217 351
L 220 350
L 223 351
L 226 350
L 229 350
L 232 350
L 235 350
L 238 351
L 241 351
L 244 351
L 247 351
L 250 351
L 253 351
L 256 351
L 259 351
L 262 351
L 265 351
L 268 351
L 271 351
L 273 351
L 276 351
L 279 351
L 282 350
L 285 351
L 288 351
L 291 351
L 294 351
L 297 351
L 300 351
L 303 351
L 306 351
L 309 351
L 312 350
L 315 351
L 318 350
L 321 351
L 324 351
L 327 351
L 330 351
L 333 351
L 336 351
L 339 351
L 342 351
L 345 351
L 348 351
L 351 351
L 354 351
L 357 351
L 360 351
L 363 351
L 366 351
L 369 351
L 372 351
L 375 351
L 378 351
L 381 351
L 384 351
L 387 351
L 389 351
L 392 351
L 395 351
L 398 351
L 401 349
L 404 350
L 407 351
L 410 351
L 413 350
L 416 350
L 419 350
L 422 351
L 425 351
L 428 350
L 431 351
L 434 349
L 437 349
L 440 351
L 443 351
L 446 351
L 449 351
L 452 350
L 455 351
L 458 351
L 461 351
L 464 351
L 467 351
L 470 351
L 473 351
L 476 351
L 479 351
L 482 351
L 485 351
L 488 351
L 491 351
L 494 351
L 497 351
L 500 351
L 503 351
L 505 351
L 508 351
L 511 351
L 514 351
L 517 351
L 520 351
L 523 351
L 526 351
L 529 351
L 532 350
L 535 351
L 538 350
L 541 350
L 544 350
L 547 351
L 550 351
L 553 350
L 556 349
L 559 351
L 562 350
L 565 350
L 568 349
L 571 351
L 574 350
L 577 350
L 580 351
L 583 349
L 586 351
L 589 351
L 592 351
L 595 351
L 598 351
L 601 351
L 604 350
L 607 349
L 610 350
L 613 351
L 616 351
L 619 350
L 621 348
L 624 350
L 627 349
L 630 351
L 633 349
L 636 350
L 639 350
L 642 348
L 645 351
L 648 349
L 651 349
L 654 351
L 657 346
L 660 349
L 663 347
L 666 351
L 669 348
L 672 347
L 675 349
L 678 349
L 681 347
L 684 349
L 687 350
L 690 351
L 693 350
L 696 349
L 699 348
L 702 348
L 705 347
L 708 346
L 711 345
L 714 346
L 717 350
L 720 342
L 723 347
L 726 345
L 729 345
L 732 348
L 735 345
L 737 348
L 740 345
L 743 346
L 746 348
L 749 338
L 752 345
L 755 330
L 758 346
L 761 311
L 764 339
L 767 328
L 770 336
L 773 328
L 776 315
L 779 333
L 782 324
L 785 325
L 788 320
L 791 333
L 794 343
L 797 313
L 800 314
L 803 322
L 806 333
L 809 339
L 812 328
L 815 337
L 818 334
L 821 331
L 824 344
L 827 317
L 830 324
L 833 341
L 836 332
L 839 325
L 842 339
L 845 345
L 848 339
L 851 333
L 853 339
L 856 347
L 859 348
L 862 339
L 865 337
L 868 345
L 871 337
L 874 342
L 877 342
L 880 351
L 883 345
L 886 343
L 889 344
L 892 345
L 895 328
L 898 348
L 901 343
L 904 345
L 907 345
L 910 344
L 913 348
L 916 343
L 919 346
L 922 346
L 925 345
L 928 344
L 931 345
L 934 345
L 937 345
L 940 348
L 943 348
L 946 348
L 949 349
L 952 346
L 955 347
L 958 347
L 961 348
L 964 348
L 967 348
L 969 345" style="stroke-width:1;stroke:rgba(0,217,101,1.0);fill:none"/><path  d="M 38 351
L 41 351
L 44 351
L 47 351
L 50 351
L 53 351
L 56 351
L 59 351
L 62 351
L 65 351
L 68 351
L 71 351
L 74 351
L 77 351
L 80 351
L 83 351
L 86 351
L 89 351
L 92 351
L 95 351
L 98 351
L 101 351
L 104 351
L 107 351
L 110 351
L 113 351
L 116 351
L 119 351
L 122 351
L 125 351
L 128 351
L 131 350
L 134 351
L 137 351
L 140 351
L 143 351
L 146 351
L 149 351
L 152 351
L 155 351
L 157 351
L 160 351
L 163 351
L 166 351
L 169 351
L 172 351
L 175 350
L 178 351
L 181 351
L 184 351
L 187 351
L 190 351
L 193 351
L 196 351
L 199 351
L 202 351
L 205 350
L 208 351
L 211 351
L 214 351
L 217 351
L 220 351
L 223 351
L 226 351
L 229 351
L 232 351
L 235 351
L 238 350
L 241 351
L 244 351
L 247 351
L 250 351
L 253 351
L 256 351
L 259 351
L 262 351
L 265 351
L 268 351
L 271 351
L 273 351
L 276 351
L 279 351
L 282 351
L 285 351
L 288 351
L 291 351
L 294 351
L 297 351
L 300 351
L 303 351
L 306 351
L 309 351
L 312 351
L 315 351
L 318 351
L 321 351
L 324 351
L 327 351
L 330 351
L 333 351
L 336 351
L 339 351
L 342 351
L 345 351
L 348 351
L 351 351
L 354 351
L 357 351
L 360 351
L 363 351
L 366 351
L 369 351
L 372 351
L 375 351
L 378 351
L 381 351
L 384 351
L 387 351
L 389 351
L 392 351
L 395 351
L 398 351
L 401 351
L 404 351
L 407 351
L 410 351
L 413 351
L 416 351
L 419 351
L 422 351
L 425 351
L 428 351
L 431 351
L 434 351
L 437 351
L 440 351
L 443 351
L 446 351
L 449 351
L 452 351
L 455 351
L 458 351
L 461 351
L 464 351
L 467 351
L 470 351
L 473 351
L 476 351
L 479 351
L 482 351
L 485 351
L 488 351
L 491 351
L 494 351
L 497 351
L 500 351
L 503 351
L 505 351
L 508 351
L 511 351
L 514 351
L 517 351
L 520 351
L 523 351
L 526 351
L 529 351
L 532 351
L 535 351
L 538 351
L 541 351
L 544 351
L 547 351
L 550 351
L 553 351
L 556 351
L 559 351
L 562 351
L 565 351
L 568 351
L 571 351
L 574 351
L 577 351
L 580 351
L 583 351
L 586 351
L 589 351
L 592 351
L 595 351
L 598 351
L 601 351
L 604 351
L 607 351
L 610 351
L 613 351
L 616 351
L 619 351
L 621 351
L 624 351
L 627 351
L 630 351
L 633 351
L 636 351
L 639 351
L 642 351
L 645 351
L 648 351
L 651 351
L 654 351
L 657 351
L 660 351
L 663 351
L 666 351
L 669 351
L 672 351
L 675 351
L 678 351
L 681 351
L 684 351
L 687 351
L 690 351
L 693 351
L 696 351
L 699 351
L 702 351
L 705 351
L 708 351
L 711 351
L 714 351
L 717 351
L 720 351
L 723 351
L 726 351
L 729 351
L 732 351
L 735 351
L 737 351
L 740 351
L 743 351
L 746 351
L 749 351
L 752 350
L 755 351
L 758 351
L 761 350
L 764 351
L 767 351
L 770 350
L 773 349
L 776 349
L 779 351
L 782 350
L 785 350
L 788 351
L 791 351
L 794 350
L 797 350
L 800 348
L 803 350
L 806 351
L 809 350
L 812 349
L 815 349
L 818 351
L 821 351
L 824 349
L 827 349
L 830 350
L 833 349
L 836 349
L 839 350
L 842 350
L 845 350
L 848 351
L 851 351
L 853 349
L 856 351
L 859 351
L 862 351
L 865 350
L 868 351
L 871 350
L 874 351
L 877 351
L 880 351
L 883 351
L 886 351
L 889 351
L 892 350
L 895 351
L 898 349
L 901 351
L 904 350
L 907 351
L 910 351
L 913 351
L 916 351
L 919 351
L 922 351
L 925 351
L 928 350
L 931 351
L 934 350
L 937 351
L 940 351
L 943 351
L 946 351
L 949 351
L 952 350
L 955 351
L 958 351
L 961 351
L 964 351
L 967 351
L 969 351" style="stroke-width:1;stroke:rgba(217,0,116,1.0);fill:none"/><text x="403" y="33" style="stroke-width:0;stroke:none;fill:rgba(51,51,51,1.0);font-size:23.0px;font-family:'Roboto Medium',sans-serif">Oberwart 04.01.2021</text><path  d="M 38 11
L 251 11
L 251 91
L 38 91
L 38 11" style="stroke-width:1;stroke:rgba(51,51,51,1.0);fill:rgba(255,255,255,1.0)"/><text x="43" y="26" style="stroke-width:0;stroke:none;fill:rgba(51,51,51,1.0);font-size:10.2px;font-family:'Roboto Medium',sans-serif">Sieben Tage Durschnitt Inzidenz Fälle</text><path  d="M 221 21
L 241 21" style="stroke-width:1;stroke:rgba(0,116,217,1.0);fill:none"/><text x="43" y="56" style="stroke-width:0;stroke:none;fill:rgba(51,51,51,1.0);font-size:10.2px;font-family:'Roboto Medium',sans-serif">Anzahl Faelle</text><path  d="M 110 51
L 241 51" style="stroke-width:1;stroke:rgba(0,217,101,1.0);fill:none"/><text x="43" y="86" style="stroke-width:0;stroke:none;fill:rgba(51,51,51,1.0);font-size:10.2px;font-family:'Roboto Medium',sans-serif">Anzahl Tot</text><path  d="M 98 81
L 241 81" style="stroke-width:1;stroke:rgba(217,0,116,1.0);fill:none"/></svg>