<svg xmlns="http://www.w3.org/2000/svg" xmlns:xlink="http://www.w3.org/1999/xlink" width="1024" height="400">\n<path  d="M 0 0
L 1024 0
L 1024 400
L 0 400
L 0 0" style="stroke-width:0;stroke:rgba(255,255,255,1.0);fill:rgba(255,255,255,1.0)"/><path  d="M 38 11
L 969 11
L 969 351
L 38 351
L 38 11" style="stroke-width:0;stroke:rgba(255,255,255,1.0);fill:rgba(255,255,255,1.0)"/><path  d="M 38 351
L 969 351" style="stroke-width:1;stroke:rgba(51,51,51,1.0);fill:none"/><path  d="M 38 351
L 38 356" style="stroke-width:1;stroke:rgba(51,51,51,1.0);fill:none"/><text x="5" y="373" style="stroke-width:0;stroke:none;fill:rgba(51,51,51,1.0);font-size:12.8px;font-family:'Roboto Medium',sans-serif">2020-02-26</text><path  d="M 155 351
L 155 356" style="stroke-width:1;stroke:rgba(51,51,51,1.0);fill:none"/><text x="122" y="373" style="stroke-width:0;stroke:none;fill:rgba(51,51,51,1.0);font-size:12.8px;font-family:'Roboto Medium',sans-serif">2020-04-07</text><path  d="M 271 351
L 271 356" style="stroke-width:1;stroke:rgba(51,51,51,1.0);fill:none"/><text x="238" y="373" style="stroke-width:0;stroke:none;fill:rgba(51,51,51,1.0);font-size:12.8px;font-family:'Roboto Medium',sans-serif">2020-05-18</text><path  d="M 388 351
L 388 356" style="stroke-width:1;stroke:rgba(51,51,51,1.0);fill:none"/><text x="355" y="373" style="stroke-width:0;stroke:none;fill:rgba(51,51,51,1.0);font-size:12.8px;font-family:'Roboto Medium',sans-serif">2020-06-29</text><path  d="M 504 351
L 504 356" style="stroke-width:1;stroke:rgba(51,51,51,1.0);fill:none"/><text x="471" y="373" style="stroke-width:0;stroke:none;fill:rgba(51,51,51,1.0);font-size:12.8px;font-family:'Roboto Medium',sans-serif">2020-08-09</text><path  d="M 620 351
L 620 356" style="stroke-width:1;stroke:rgba(51,51,51,1.0);fill:none"/><text x="587" y="373" style="stroke-width:0;stroke:none;fill:rgba(51,51,51,1.0);font-size:12.8px;font-family:'Roboto Medium',sans-serif">2020-09-19</text><path  d="M 737 351
L 737 356" style="stroke-width:1;stroke:rgba(51,51,51,1.0);fill:none"/><text x="704" y="373" style="stroke-width:0;stroke:none;fill:rgba(51,51,51,1.0);font-size:12.8px;font-family:'Roboto Medium',sans-serif">2020-10-31</text><path  d="M 853 351
L 853 356" style="stroke-width:1;stroke:rgba(51,51,51,1.0);fill:none"/><text x="820" y="373" style="stroke-width:0;stroke:none;fill:rgba(51,51,51,1.0);font-size:12.8px;font-family:'Roboto Medium',sans-serif">2020-12-11</text><path  d="M 969 351
L 969 356" style="stroke-width:1;stroke:rgba(51,51,51,1.0);fill:none"/><text x="936" y="373" style="stroke-width:0;stroke:none;fill:rgba(51,51,51,1.0);font-size:12.8px;font-family:'Roboto Medium',sans-serif">2021-01-22</text><text x="485" y="395" style="stroke-width:0;stroke:none;fill:rgba(51,51,51,1.0);font-size:12.8px;font-family:'Roboto Medium',sans-serif">Datum</text><path  d="M 970 351
L 970 11" style="stroke-width:1;stroke:rgba(51,51,51,1.0);fill:none"/><path  d="M 970 351
L 975 351" style="stroke-width:1;stroke:rgba(51,51,51,1.0);fill:none"/><text x="980" y="357" style="stroke-width:0;stroke:none;fill:rgba(51,51,51,1.0);font-size:12.8px;font-family:'Roboto Medium',sans-serif">0.00</text><path  d="M 970 308
L 975 308" style="stroke-width:1;stroke:rgba(51,51,51,1.0);fill:none"/><text x="980" y="314" style="stroke-width:0;stroke:none;fill:rgba(51,51,51,1.0);font-size:12.8px;font-family:'Roboto Medium',sans-serif">72.00</text><path  d="M 970 265
L 975 265" style="stroke-width:1;stroke:rgba(51,51,51,1.0);fill:none"/><text x="980" y="271" style="stroke-width:0;stroke:none;fill:rgba(51,51,51,1.0);font-size:12.8px;font-family:'Roboto Medium',sans-serif">143.00</text><path  d="M 970 223
L 975 223" style="stroke-width:1;stroke:rgba(51,51,51,1.0);fill:none"/><text x="980" y="229" style="stroke-width:0;stroke:none;fill:rgba(51,51,51,1.0);font-size:12.8px;font-family:'Roboto Medium',sans-serif">214.00</text><path  d="M 970 181
L 975 181" style="stroke-width:1;stroke:rgba(51,51,51,1.0);fill:none"/><text x="980" y="187" style="stroke-width:0;stroke:none;fill:rgba(51,51,51,1.0);font-size:12.8px;font-family:'Roboto Medium',sans-serif">285.00</text><path  d="M 970 138
L 975 138" style="stroke-width:1;stroke:rgba(51,51,51,1.0);fill:none"/><text x="980" y="144" style="stroke-width:0;stroke:none;fill:rgba(51,51,51,1.0);font-size:12.8px;font-family:'Roboto Medium',sans-serif">357.00</text><path  d="M 970 95
L 975 95" style="stroke-width:1;stroke:rgba(51,51,51,1.0);fill:none"/><text x="980" y="101" style="stroke-width:0;stroke:none;fill:rgba(51,51,51,1.0);font-size:12.8px;font-family:'Roboto Medium',sans-serif">428.00</text><path  d="M 970 53
L 975 53" style="stroke-width:1;stroke:rgba(51,51,51,1.0);fill:none"/><text x="980" y="59" style="stroke-width:0;stroke:none;fill:rgba(51,51,51,1.0);font-size:12.8px;font-family:'Roboto Medium',sans-serif">499.00</text><path  d="M 970 11
L 975 11" style="stroke-width:1;stroke:rgba(51,51,51,1.0);fill:none"/><text x="980" y="17" style="stroke-width:0;stroke:none;fill:rgba(51,51,51,1.0);font-size:12.8px;font-family:'Roboto Medium',sans-serif">570.00</text><path  d="M 38 351
L 41 351
L 44 351
L 47 351
L 50 351
L 53 351
L 55 351
L 58 351
L 61 351
L 64 351
L 67 351
L 69 351
L 72 351
L 75 351
L 78 351
L 81 351
L 84 349
L 86 349
L 89 349
L 92 349
L 95 349
L 98 347
L 100 344
L 103 342
L 106 333
L 109 330
L 112 322
L 114 321
L 117 322
L 120 312
L 123 306
L 126 306
L 129 308
L 131 312
L 134 312
L 137 308
L 140 320
L 143 328
L 145 333
L 148 333
L 151 336
L 154 337
L 157 337
L 159 335
L 162 331
L 165 333
L 168 327
L 171 325
L 174 322
L 176 326
L 179 325
L 182 326
L 185 327
L 188 332
L 190 330
L 193 333
L 196 332
L 199 335
L 202 337
L 204 337
L 207 341
L 210 344
L 213 344
L 216 345
L 219 345
L 221 345
L 224 345
L 227 345
L 230 346
L 233 346
L 235 347
L 238 348
L 241 349
L 244 351
L 247 351
L 249 351
L 252 351
L 255 351
L 258 351
L 261 351
L 264 351
L 266 351
L 269 349
L 272 349
L 275 349
L 278 349
L 280 349
L 283 349
L 286 349
L 289 351
L 292 351
L 294 351
L 297 349
L 300 349
L 303 348
L 306 348
L 309 348
L 311 348
L 314 348
L 317 349
L 320 349
L 323 351
L 325 351
L 328 351
L 331 351
L 334 351
L 337 351
L 339 351
L 342 351
L 345 351
L 348 351
L 351 351
L 354 351
L 356 351
L 359 351
L 362 351
L 365 351
L 368 351
L 370 351
L 373 351
L 376 351
L 379 351
L 382 348
L 384 347
L 387 347
L 390 347
L 393 346
L 396 345
L 399 344
L 401 346
L 404 347
L 407 346
L 410 346
L 413 345
L 415 344
L 418 345
L 421 345
L 424 345
L 427 346
L 429 345
L 432 347
L 435 349
L 438 349
L 441 349
L 444 349
L 446 349
L 449 351
L 452 351
L 455 351
L 458 351
L 460 351
L 463 351
L 466 351
L 469 351
L 472 351
L 474 351
L 477 351
L 480 351
L 483 351
L 486 351
L 489 351
L 491 351
L 494 351
L 497 351
L 500 351
L 503 351
L 505 349
L 508 349
L 511 348
L 514 347
L 517 346
L 519 346
L 522 346
L 525 346
L 528 344
L 531 345
L 534 345
L 536 345
L 539 343
L 542 343
L 545 343
L 548 344
L 550 344
L 553 343
L 556 344
L 559 346
L 562 346
L 564 347
L 567 348
L 570 348
L 573 349
L 576 346
L 579 345
L 581 345
L 584 345
L 587 344
L 590 338
L 593 338
L 595 339
L 598 341
L 601 338
L 604 337
L 607 337
L 609 337
L 612 338
L 615 338
L 618 336
L 621 338
L 624 331
L 626 328
L 629 327
L 632 327
L 635 325
L 638 321
L 640 319
L 643 325
L 646 322
L 649 326
L 652 325
L 654 330
L 657 335
L 660 334
L 663 331
L 666 332
L 669 327
L 671 321
L 674 310
L 677 302
L 680 304
L 683 294
L 685 293
L 688 290
L 691 288
L 694 293
L 697 292
L 699 288
L 702 293
L 705 292
L 708 298
L 711 284
L 714 279
L 716 249
L 719 247
L 722 183
L 725 170
L 728 134
L 730 130
L 733 100
L 736 73
L 739 48
L 742 73
L 744 48
L 747 32
L 750 28
L 753 57
L 756 53
L 759 17
L 761 14
L 764 27
L 767 61
L 770 50
L 773 38
L 775 78
L 778 112
L 781 151
L 784 123
L 787 95
L 789 119
L 792 111
L 795 93
L 798 107
L 801 109
L 804 150
L 806 167
L 809 161
L 812 189
L 815 232
L 818 231
L 820 215
L 823 226
L 826 234
L 829 242
L 832 232
L 834 236
L 837 247
L 840 258
L 843 256
L 846 270
L 849 244
L 851 255
L 854 240
L 857 240
L 860 245
L 863 245
L 865 251
L 868 279
L 871 276
L 874 282
L 877 282
L 879 280
L 882 282
L 885 277
L 888 281
L 891 287
L 894 290
L 896 295
L 899 304
L 902 305
L 905 309
L 908 312
L 910 310
L 913 310
L 916 311
L 919 304
L 922 301
L 924 305
L 927 294
L 930 293
L 933 290
L 936 292
L 939 293
L 941 303
L 944 298
L 947 311
L 950 309
L 953 312
L 955 312
L 958 315
L 961 311
L 964 309
L 967 308
L 969 313" style="stroke-width:1;stroke:rgba(0,116,217,1.0);fill:none"/><path  d="M 38 351
L 41 351
L 44 351
L 47 351
L 50 351
L 53 351
L 55 351
L 58 351
L 61 351
L 64 351
L 67 351
L 69 351
L 72 351
L 75 351
L 78 351
L 81 351
L 84 350
L 86 351
L 89 351
L 92 351
L 95 351
L 98 349
L 100 349
L 103 349
L 106 346
L 109 349
L 112 346
L 114 350
L 117 350
L 120 343
L 123 346
L 126 346
L 129 349
L 131 349
L 134 350
L 137 348
L 140 350
L 143 351
L 145 348
L 148 349
L 151 351
L 154 351
L 157 348
L 159 349
L 162 348
L 165 349
L 168 346
L 171 349
L 174 349
L 176 350
L 179 348
L 182 349
L 185 350
L 188 349
L 190 348
L 193 351
L 196 349
L 199 350
L 202 350
L 204 350
L 207 351
L 210 350
L 213 351
L 216 350
L 219 350
L 221 350
L 224 350
L 227 351
L 230 351
L 233 351
L 235 351
L 238 351
L 241 351
L 244 351
L 247 351
L 249 351
L 252 351
L 255 351
L 258 351
L 261 351
L 264 351
L 266 351
L 269 350
L 272 351
L 275 351
L 278 351
L 280 351
L 283 351
L 286 351
L 289 351
L 292 351
L 294 351
L 297 350
L 300 351
L 303 350
L 306 351
L 309 351
L 311 351
L 314 351
L 317 351
L 320 351
L 323 351
L 325 351
L 328 351
L 331 351
L 334 351
L 337 351
L 339 351
L 342 351
L 345 351
L 348 351
L 351 351
L 354 351
L 356 351
L 359 351
L 362 351
L 365 351
L 368 351
L 370 351
L 373 351
L 376 351
L 379 351
L 382 349
L 384 350
L 387 351
L 390 351
L 393 350
L 396 350
L 399 350
L 401 351
L 404 351
L 407 350
L 410 351
L 413 349
L 415 349
L 418 351
L 421 351
L 424 351
L 427 351
L 429 350
L 432 351
L 435 351
L 438 351
L 441 351
L 444 351
L 446 351
L 449 351
L 452 351
L 455 351
L 458 351
L 460 351
L 463 351
L 466 351
L 469 351
L 472 351
L 474 351
L 477 351
L 480 351
L 483 351
L 486 351
L 489 351
L 491 351
L 494 351
L 497 351
L 500 351
L 503 351
L 505 350
L 508 351
L 511 350
L 514 350
L 517 350
L 519 351
L 522 351
L 525 350
L 528 349
L 531 351
L 534 350
L 536 350
L 539 349
L 542 351
L 545 350
L 548 350
L 550 351
L 553 349
L 556 351
L 559 351
L 562 351
L 564 351
L 567 351
L 570 351
L 573 350
L 576 349
L 579 350
L 581 351
L 584 351
L 587 350
L 590 348
L 593 350
L 595 349
L 598 351
L 601 349
L 604 350
L 607 350
L 609 348
L 612 351
L 615 349
L 618 349
L 621 351
L 624 346
L 626 349
L 629 347
L 632 351
L 635 348
L 638 347
L 640 349
L 643 349
L 646 347
L 649 349
L 652 350
L 654 351
L 657 350
L 660 349
L 663 348
L 666 348
L 669 347
L 671 346
L 674 345
L 677 346
L 680 350
L 683 342
L 685 347
L 688 345
L 691 345
L 694 348
L 697 345
L 699 348
L 702 345
L 705 346
L 708 348
L 711 338
L 714 345
L 716 329
L 719 346
L 722 311
L 725 339
L 728 328
L 730 336
L 733 328
L 736 315
L 739 333
L 742 324
L 744 325
L 747 320
L 750 334
L 753 343
L 756 313
L 759 313
L 761 322
L 764 333
L 767 339
L 770 328
L 773 337
L 775 334
L 778 331
L 781 344
L 784 317
L 787 324
L 789 341
L 792 332
L 795 325
L 798 339
L 801 345
L 804 339
L 806 333
L 809 338
L 812 347
L 815 348
L 818 339
L 820 337
L 823 345
L 826 337
L 829 342
L 832 342
L 834 351
L 837 345
L 840 343
L 843 344
L 846 345
L 849 328
L 851 348
L 854 343
L 857 345
L 860 345
L 863 344
L 865 348
L 868 343
L 871 346
L 874 346
L 877 345
L 879 344
L 882 345
L 885 345
L 888 345
L 891 349
L 894 348
L 896 348
L 899 349
L 902 346
L 905 347
L 908 347
L 910 348
L 913 348
L 916 348
L 919 345
L 922 344
L 924 349
L 927 341
L 930 347
L 933 346
L 936 349
L 939 346
L 941 349
L 944 346
L 947 348
L 950 346
L 953 348
L 955 349
L 958 348
L 961 347
L 964 345
L 967 348
L 969 349" style="stroke-width:1;stroke:rgba(0,217,101,1.0);fill:none"/><path  d="M 38 351
L 41 351
L 44 351
L 47 351
L 50 351
L 53 351
L 55 351
L 58 351
L 61 351
L 64 351
L 67 351
L 69 351
L 72 351
L 75 351
L 78 351
L 81 351
L 84 351
L 86 351
L 89 351
L 92 351
L 95 351
L 98 351
L 100 351
L 103 351
L 106 351
L 109 351
L 112 351
L 114 351
L 117 351
L 120 351
L 123 351
L 126 350
L 129 351
L 131 351
L 134 351
L 137 351
L 140 351
L 143 351
L 145 351
L 148 351
L 151 351
L 154 351
L 157 351
L 159 351
L 162 351
L 165 351
L 168 350
L 171 351
L 174 351
L 176 351
L 179 351
L 182 351
L 185 351
L 188 351
L 190 351
L 193 351
L 196 350
L 199 351
L 202 351
L 204 351
L 207 351
L 210 351
L 213 351
L 216 351
L 219 351
L 221 351
L 224 351
L 227 350
L 230 351
L 233 351
L 235 351
L 238 351
L 241 351
L 244 351
L 247 351
L 249 351
L 252 351
L 255 351
L 258 351
L 261 351
L 264 351
L 266 351
L 269 351
L 272 351
L 275 351
L 278 351
L 280 351
L 283 351
L 286 351
L 289 351
L 292 351
L 294 351
L 297 351
L 300 351
L 303 351
L 306 351
L 309 351
L 311 351
L 314 351
L 317 351
L 320 351
L 323 351
L 325 351
L 328 351
L 331 351
L 334 351
L 337 351
L 339 351
L 342 351
L 345 351
L 348 351
L 351 351
L 354 351
L 356 351
L 359 351
L 362 351
L 365 351
L 368 351
L 370 351
L 373 351
L 376 351
L 379 351
L 382 351
L 384 351
L 387 351
L 390 351
L 393 351
L 396 351
L 399 351
L 401 351
L 404 351
L 407 351
L 410 351
L 413 351
L 415 351
L 418 351
L 421 351
L 424 351
L 427 351
L 429 351
L 432 351
L 435 351
L 438 351
L 441 351
L 444 351
L 446 351
L 449 351
L 452 351
L 455 351
L 458 351
L 460 351
L 463 351
L 466 351
L 469 351
L 472 351
L 474 351
L 477 351
L 480 351
L 483 351
L 486 351
L 489 351
L 491 351
L 494 351
L 497 351
L 500 351
L 503 351
L 505 351
L 508 351
L 511 351
L 514 351
L 517 351
L 519 351
L 522 351
L 525 351
L 528 351
L 531 351
L 534 351
L 536 351
L 539 351
L 542 351
L 545 351
L 548 351
L 550 351
L 553 351
L 556 351
L 559 351
L 562 351
L 564 351
L 567 351
L 570 351
L 573 351
L 576 351
L 579 351
L 581 351
L 584 351
L 587 351
L 590 351
L 593 351
L 595 351
L 598 351
L 601 351
L 604 351
L 607 351
L 609 351
L 612 351
L 615 351
L 618 351
L 621 351
L 624 351
L 626 351
L 629 351
L 632 351
L 635 351
L 638 351
L 640 351
L 643 351
L 646 351
L 649 351
L 652 351
L 654 351
L 657 351
L 660 351
L 663 351
L 666 351
L 669 351
L 671 351
L 674 351
L 677 351
L 680 351
L 683 351
L 685 351
L 688 351
L 691 351
L 694 351
L 697 351
L 699 351
L 702 351
L 705 351
L 708 351
L 711 351
L 714 350
L 716 351
L 719 351
L 722 350
L 725 351
L 728 351
L 730 350
L 733 349
L 736 349
L 739 351
L 742 350
L 744 350
L 747 351
L 750 351
L 753 350
L 756 350
L 759 348
L 761 350
L 764 351
L 767 350
L 770 349
L 773 349
L 775 351
L 778 351
L 781 349
L 784 349
L 787 350
L 789 349
L 792 349
L 795 350
L 798 350
L 801 350
L 804 351
L 806 351
L 809 349
L 812 351
L 815 351
L 818 351
L 820 350
L 823 351
L 826 350
L 829 351
L 832 351
L 834 351
L 837 351
L 840 351
L 843 351
L 846 350
L 849 351
L 851 349
L 854 351
L 857 350
L 860 351
L 863 351
L 865 351
L 868 351
L 871 351
L 874 351
L 877 351
L 879 350
L 882 351
L 885 350
L 888 351
L 891 351
L 894 351
L 896 351
L 899 351
L 902 350
L 905 351
L 908 351
L 910 351
L 913 351
L 916 351
L 919 351
L 922 351
L 924 351
L 927 351
L 930 351
L 933 351
L 936 351
L 939 351
L 941 351
L 944 351
L 947 351
L 950 351
L 953 351
L 955 351
L 958 351
L 961 351
L 964 351
L 967 351
L 969 351" style="stroke-width:1;stroke:rgba(217,0,116,1.0);fill:none"/><text x="403" y="33" style="stroke-width:0;stroke:none;fill:rgba(51,51,51,1.0);font-size:23.0px;font-family:'Roboto Medium',sans-serif">Oberwart 22.01.2021</text><path  d="M 38 11
L 251 11
L 251 91
L 38 91
L 38 11" style="stroke-width:1;stroke:rgba(51,51,51,1.0);fill:rgba(255,255,255,1.0)"/><text x="43" y="26" style="stroke-width:0;stroke:none;fill:rgba(51,51,51,1.0);font-size:10.2px;font-family:'Roboto Medium',sans-serif">Sieben Tage Durschnitt Inzidenz Fälle</text><path  d="M 221 21
L 241 21" style="stroke-width:1;stroke:rgba(0,116,217,1.0);fill:none"/><text x="43" y="56" style="stroke-width:0;stroke:none;fill:rgba(51,51,51,1.0);font-size:10.2px;font-family:'Roboto Medium',sans-serif">Anzahl Faelle</text><path  d="M 110 51
L 241 51" style="stroke-width:1;stroke:rgba(0,217,101,1.0);fill:none"/><text x="43" y="86" style="stroke-width:0;stroke:none;fill:rgba(51,51,51,1.0);font-size:10.2px;font-family:'Roboto Medium',sans-serif">Anzahl Tot</text><path  d="M 98 81
L 241 81" style="stroke-width:1;stroke:rgba(217,0,116,1.0);fill:none"/></svg>