<svg xmlns="http://www.w3.org/2000/svg" xmlns:xlink="http://www.w3.org/1999/xlink" width="1024" height="400">\n<path  d="M 0 0
L 1024 0
L 1024 400
L 0 400
L 0 0" style="stroke-width:0;stroke:rgba(255,255,255,1.0);fill:rgba(255,255,255,1.0)"/><path  d="M 38 11
L 969 11
L 969 351
L 38 351
L 38 11" style="stroke-width:0;stroke:rgba(255,255,255,1.0);fill:rgba(255,255,255,1.0)"/><path  d="M 38 351
L 969 351" style="stroke-width:1;stroke:rgba(51,51,51,1.0);fill:none"/><path  d="M 38 351
L 38 356" style="stroke-width:1;stroke:rgba(51,51,51,1.0);fill:none"/><text x="5" y="373" style="stroke-width:0;stroke:none;fill:rgba(51,51,51,1.0);font-size:12.8px;font-family:'Roboto Medium',sans-serif">2020-02-26</text><path  d="M 155 351
L 155 356" style="stroke-width:1;stroke:rgba(51,51,51,1.0);fill:none"/><text x="122" y="373" style="stroke-width:0;stroke:none;fill:rgba(51,51,51,1.0);font-size:12.8px;font-family:'Roboto Medium',sans-serif">2020-04-09</text><path  d="M 271 351
L 271 356" style="stroke-width:1;stroke:rgba(51,51,51,1.0);fill:none"/><text x="238" y="373" style="stroke-width:0;stroke:none;fill:rgba(51,51,51,1.0);font-size:12.8px;font-family:'Roboto Medium',sans-serif">2020-05-22</text><path  d="M 388 351
L 388 356" style="stroke-width:1;stroke:rgba(51,51,51,1.0);fill:none"/><text x="355" y="373" style="stroke-width:0;stroke:none;fill:rgba(51,51,51,1.0);font-size:12.8px;font-family:'Roboto Medium',sans-serif">2020-07-04</text><path  d="M 504 351
L 504 356" style="stroke-width:1;stroke:rgba(51,51,51,1.0);fill:none"/><text x="471" y="373" style="stroke-width:0;stroke:none;fill:rgba(51,51,51,1.0);font-size:12.8px;font-family:'Roboto Medium',sans-serif">2020-08-16</text><path  d="M 620 351
L 620 356" style="stroke-width:1;stroke:rgba(51,51,51,1.0);fill:none"/><text x="587" y="373" style="stroke-width:0;stroke:none;fill:rgba(51,51,51,1.0);font-size:12.8px;font-family:'Roboto Medium',sans-serif">2020-09-28</text><path  d="M 737 351
L 737 356" style="stroke-width:1;stroke:rgba(51,51,51,1.0);fill:none"/><text x="704" y="373" style="stroke-width:0;stroke:none;fill:rgba(51,51,51,1.0);font-size:12.8px;font-family:'Roboto Medium',sans-serif">2020-11-10</text><path  d="M 853 351
L 853 356" style="stroke-width:1;stroke:rgba(51,51,51,1.0);fill:none"/><text x="820" y="373" style="stroke-width:0;stroke:none;fill:rgba(51,51,51,1.0);font-size:12.8px;font-family:'Roboto Medium',sans-serif">2020-12-23</text><path  d="M 969 351
L 969 356" style="stroke-width:1;stroke:rgba(51,51,51,1.0);fill:none"/><text x="936" y="373" style="stroke-width:0;stroke:none;fill:rgba(51,51,51,1.0);font-size:12.8px;font-family:'Roboto Medium',sans-serif">2021-02-04</text><text x="485" y="395" style="stroke-width:0;stroke:none;fill:rgba(51,51,51,1.0);font-size:12.8px;font-family:'Roboto Medium',sans-serif">Datum</text><path  d="M 970 351
L 970 11" style="stroke-width:1;stroke:rgba(51,51,51,1.0);fill:none"/><path  d="M 970 351
L 975 351" style="stroke-width:1;stroke:rgba(51,51,51,1.0);fill:none"/><text x="980" y="357" style="stroke-width:0;stroke:none;fill:rgba(51,51,51,1.0);font-size:12.8px;font-family:'Roboto Medium',sans-serif">0.00</text><path  d="M 970 308
L 975 308" style="stroke-width:1;stroke:rgba(51,51,51,1.0);fill:none"/><text x="980" y="314" style="stroke-width:0;stroke:none;fill:rgba(51,51,51,1.0);font-size:12.8px;font-family:'Roboto Medium',sans-serif">95.00</text><path  d="M 970 266
L 975 266" style="stroke-width:1;stroke:rgba(51,51,51,1.0);fill:none"/><text x="980" y="272" style="stroke-width:0;stroke:none;fill:rgba(51,51,51,1.0);font-size:12.8px;font-family:'Roboto Medium',sans-serif">190.00</text><path  d="M 970 223
L 975 223" style="stroke-width:1;stroke:rgba(51,51,51,1.0);fill:none"/><text x="980" y="229" style="stroke-width:0;stroke:none;fill:rgba(51,51,51,1.0);font-size:12.8px;font-family:'Roboto Medium',sans-serif">285.00</text><path  d="M 970 181
L 975 181" style="stroke-width:1;stroke:rgba(51,51,51,1.0);fill:none"/><text x="980" y="187" style="stroke-width:0;stroke:none;fill:rgba(51,51,51,1.0);font-size:12.8px;font-family:'Roboto Medium',sans-serif">380.00</text><path  d="M 970 138
L 975 138" style="stroke-width:1;stroke:rgba(51,51,51,1.0);fill:none"/><text x="980" y="144" style="stroke-width:0;stroke:none;fill:rgba(51,51,51,1.0);font-size:12.8px;font-family:'Roboto Medium',sans-serif">475.00</text><path  d="M 970 96
L 975 96" style="stroke-width:1;stroke:rgba(51,51,51,1.0);fill:none"/><text x="980" y="102" style="stroke-width:0;stroke:none;fill:rgba(51,51,51,1.0);font-size:12.8px;font-family:'Roboto Medium',sans-serif">570.00</text><path  d="M 970 53
L 975 53" style="stroke-width:1;stroke:rgba(51,51,51,1.0);fill:none"/><text x="980" y="59" style="stroke-width:0;stroke:none;fill:rgba(51,51,51,1.0);font-size:12.8px;font-family:'Roboto Medium',sans-serif">665.00</text><path  d="M 970 11
L 975 11" style="stroke-width:1;stroke:rgba(51,51,51,1.0);fill:none"/><text x="980" y="17" style="stroke-width:0;stroke:none;fill:rgba(51,51,51,1.0);font-size:12.8px;font-family:'Roboto Medium',sans-serif">760.00</text><path  d="M 38 351
L 41 351
L 44 351
L 47 351
L 49 351
L 52 351
L 55 351
L 57 351
L 60 351
L 63 351
L 66 351
L 68 351
L 71 351
L 74 351
L 76 351
L 79 351
L 82 351
L 85 351
L 87 351
L 90 351
L 93 351
L 95 349
L 98 348
L 101 348
L 103 347
L 106 345
L 109 342
L 112 342
L 114 343
L 117 342
L 120 339
L 122 340
L 125 339
L 128 341
L 131 340
L 133 340
L 136 342
L 139 345
L 141 343
L 144 347
L 147 347
L 149 348
L 152 346
L 155 346
L 158 347
L 160 346
L 163 346
L 166 345
L 168 345
L 171 347
L 174 346
L 177 346
L 179 347
L 182 347
L 185 348
L 187 348
L 190 348
L 193 349
L 195 349
L 198 351
L 201 351
L 204 351
L 206 351
L 209 349
L 212 349
L 214 349
L 217 349
L 220 349
L 223 349
L 225 349
L 228 351
L 231 351
L 233 351
L 236 351
L 239 351
L 241 351
L 244 351
L 247 351
L 250 351
L 252 351
L 255 351
L 258 351
L 260 351
L 263 351
L 266 351
L 269 351
L 271 351
L 274 351
L 277 351
L 279 351
L 282 351
L 285 351
L 287 351
L 290 351
L 293 351
L 296 351
L 298 351
L 301 351
L 304 351
L 306 351
L 309 351
L 312 351
L 315 351
L 317 351
L 320 351
L 323 351
L 325 351
L 328 351
L 331 351
L 333 351
L 336 351
L 339 351
L 342 351
L 344 351
L 347 349
L 350 349
L 352 349
L 355 349
L 358 349
L 361 348
L 363 348
L 366 349
L 369 349
L 371 349
L 374 349
L 377 349
L 380 351
L 382 351
L 385 349
L 388 349
L 390 349
L 393 349
L 396 349
L 398 349
L 401 349
L 404 351
L 407 351
L 409 351
L 412 351
L 415 351
L 417 351
L 420 351
L 423 351
L 426 351
L 428 351
L 431 351
L 434 351
L 436 351
L 439 351
L 442 351
L 444 351
L 447 351
L 450 351
L 453 351
L 455 351
L 458 348
L 461 348
L 463 348
L 466 348
L 469 348
L 472 347
L 474 347
L 477 349
L 480 349
L 482 349
L 485 349
L 488 349
L 490 349
L 493 349
L 496 349
L 499 349
L 501 349
L 504 349
L 507 349
L 509 351
L 512 348
L 515 348
L 518 348
L 520 348
L 523 347
L 526 347
L 528 347
L 531 349
L 534 349
L 536 349
L 539 348
L 542 349
L 545 349
L 547 348
L 550 348
L 553 347
L 555 347
L 558 348
L 561 348
L 564 348
L 566 349
L 569 349
L 572 349
L 574 349
L 577 349
L 580 347
L 582 345
L 585 345
L 588 341
L 591 341
L 593 341
L 596 339
L 599 341
L 601 342
L 604 340
L 607 342
L 610 342
L 612 340
L 615 341
L 618 339
L 620 337
L 623 339
L 626 335
L 628 335
L 631 329
L 634 329
L 637 329
L 639 323
L 642 321
L 645 321
L 647 319
L 650 322
L 653 319
L 656 322
L 658 324
L 661 323
L 664 323
L 666 324
L 669 325
L 672 323
L 675 317
L 677 318
L 680 313
L 683 316
L 685 298
L 688 285
L 691 270
L 693 257
L 696 226
L 699 215
L 702 181
L 704 167
L 707 182
L 710 167
L 712 181
L 715 164
L 718 157
L 721 147
L 723 127
L 726 106
L 729 57
L 731 12
L 734 36
L 737 27
L 739 63
L 742 55
L 745 68
L 748 88
L 750 108
L 753 112
L 756 110
L 758 72
L 761 118
L 764 92
L 767 129
L 769 141
L 772 159
L 775 136
L 777 164
L 780 165
L 783 184
L 785 197
L 788 208
L 791 176
L 794 228
L 796 230
L 799 233
L 802 244
L 804 251
L 807 256
L 810 289
L 813 289
L 815 303
L 818 299
L 821 300
L 823 291
L 826 291
L 829 285
L 831 286
L 834 289
L 837 288
L 840 286
L 842 298
L 845 301
L 848 300
L 850 304
L 853 303
L 856 313
L 859 322
L 861 325
L 864 327
L 867 333
L 869 316
L 872 310
L 875 306
L 877 301
L 880 292
L 883 280
L 886 275
L 888 273
L 891 283
L 894 286
L 896 286
L 899 287
L 902 291
L 905 294
L 907 312
L 910 305
L 913 307
L 915 306
L 918 310
L 921 316
L 923 312
L 926 315
L 929 311
L 932 307
L 934 310
L 937 304
L 940 300
L 942 310
L 945 310
L 948 317
L 951 322
L 953 318
L 956 329
L 959 330
L 961 330
L 964 328
L 967 328
L 969 318" style="stroke-width:1;stroke:rgba(0,116,217,1.0);fill:none"/><path  d="M 38 351
L 41 351
L 44 351
L 47 351
L 49 351
L 52 351
L 55 351
L 57 351
L 60 351
L 63 351
L 66 351
L 68 351
L 71 351
L 74 351
L 76 351
L 79 351
L 82 351
L 85 351
L 87 351
L 90 351
L 93 351
L 95 350
L 98 350
L 101 351
L 103 350
L 106 350
L 109 350
L 112 351
L 114 351
L 117 350
L 120 349
L 122 351
L 125 349
L 128 351
L 131 350
L 133 351
L 136 351
L 139 350
L 141 350
L 144 351
L 147 351
L 149 351
L 152 350
L 155 351
L 158 351
L 160 350
L 163 351
L 166 350
L 168 351
L 171 351
L 174 350
L 177 351
L 179 350
L 182 351
L 185 351
L 187 351
L 190 351
L 193 351
L 195 351
L 198 351
L 201 351
L 204 351
L 206 351
L 209 350
L 212 351
L 214 351
L 217 351
L 220 351
L 223 351
L 225 351
L 228 351
L 231 351
L 233 351
L 236 351
L 239 351
L 241 351
L 244 351
L 247 351
L 250 351
L 252 351
L 255 351
L 258 351
L 260 351
L 263 351
L 266 351
L 269 351
L 271 351
L 274 351
L 277 351
L 279 351
L 282 351
L 285 351
L 287 351
L 290 351
L 293 351
L 296 351
L 298 351
L 301 351
L 304 351
L 306 351
L 309 351
L 312 351
L 315 351
L 317 351
L 320 351
L 323 351
L 325 351
L 328 351
L 331 351
L 333 351
L 336 351
L 339 351
L 342 351
L 344 351
L 347 350
L 350 351
L 352 351
L 355 351
L 358 351
L 361 350
L 363 351
L 366 351
L 369 351
L 371 351
L 374 351
L 377 351
L 380 351
L 382 351
L 385 350
L 388 351
L 390 351
L 393 351
L 396 351
L 398 351
L 401 351
L 404 351
L 407 351
L 409 351
L 412 351
L 415 351
L 417 351
L 420 351
L 423 351
L 426 351
L 428 351
L 431 351
L 434 351
L 436 351
L 439 351
L 442 351
L 444 351
L 447 351
L 450 351
L 453 351
L 455 351
L 458 350
L 461 351
L 463 351
L 466 351
L 469 351
L 472 350
L 474 351
L 477 351
L 480 351
L 482 351
L 485 351
L 488 351
L 490 350
L 493 351
L 496 351
L 499 351
L 501 351
L 504 351
L 507 351
L 509 351
L 512 350
L 515 351
L 518 351
L 520 351
L 523 350
L 526 351
L 528 351
L 531 351
L 534 351
L 536 351
L 539 350
L 542 351
L 545 351
L 547 350
L 550 351
L 553 350
L 555 351
L 558 351
L 561 351
L 564 351
L 566 351
L 569 351
L 572 350
L 574 351
L 577 351
L 580 350
L 582 350
L 585 351
L 588 349
L 591 350
L 593 351
L 596 350
L 599 351
L 601 350
L 604 350
L 607 350
L 610 350
L 612 350
L 615 350
L 618 350
L 620 350
L 623 350
L 626 349
L 628 350
L 631 347
L 634 350
L 637 350
L 639 347
L 642 349
L 645 349
L 647 350
L 650 348
L 653 349
L 656 351
L 658 348
L 661 349
L 664 349
L 666 350
L 669 349
L 672 348
L 675 348
L 677 349
L 680 347
L 683 350
L 685 343
L 688 344
L 691 343
L 693 343
L 696 337
L 699 343
L 702 337
L 704 338
L 707 349
L 710 338
L 712 348
L 715 331
L 718 340
L 721 333
L 723 331
L 726 342
L 729 319
L 731 331
L 734 340
L 737 337
L 739 346
L 742 328
L 745 346
L 748 327
L 750 338
L 753 342
L 756 336
L 758 332
L 761 345
L 764 337
L 767 341
L 769 343
L 772 348
L 775 328
L 777 342
L 780 346
L 783 344
L 785 346
L 788 347
L 791 336
L 794 347
L 796 343
L 799 347
L 802 348
L 804 348
L 807 349
L 810 349
L 813 347
L 815 348
L 818 346
L 821 348
L 823 345
L 826 349
L 829 346
L 831 348
L 834 349
L 837 345
L 840 347
L 842 349
L 845 350
L 848 346
L 850 349
L 853 349
L 856 349
L 859 351
L 861 351
L 864 351
L 867 348
L 869 343
L 872 346
L 875 348
L 877 349
L 880 347
L 883 346
L 886 346
L 888 342
L 891 351
L 894 349
L 896 349
L 899 347
L 902 347
L 905 348
L 907 349
L 910 348
L 913 350
L 915 348
L 918 349
L 921 350
L 923 346
L 926 350
L 929 346
L 932 348
L 934 349
L 937 346
L 940 348
L 942 350
L 945 350
L 948 349
L 951 350
L 953 348
L 956 351
L 959 349
L 961 350
L 964 349
L 967 349
L 969 346" style="stroke-width:1;stroke:rgba(0,217,101,1.0);fill:none"/><path  d="M 38 351
L 41 351
L 44 351
L 47 351
L 49 351
L 52 351
L 55 351
L 57 351
L 60 351
L 63 351
L 66 351
L 68 351
L 71 351
L 74 351
L 76 351
L 79 351
L 82 351
L 85 351
L 87 351
L 90 351
L 93 351
L 95 351
L 98 351
L 101 350
L 103 351
L 106 351
L 109 351
L 112 351
L 114 351
L 117 351
L 120 351
L 122 351
L 125 351
L 128 351
L 131 351
L 133 351
L 136 351
L 139 351
L 141 351
L 144 351
L 147 351
L 149 351
L 152 351
L 155 351
L 158 351
L 160 351
L 163 351
L 166 351
L 168 351
L 171 351
L 174 351
L 177 351
L 179 351
L 182 351
L 185 351
L 187 351
L 190 351
L 193 351
L 195 351
L 198 351
L 201 351
L 204 351
L 206 351
L 209 351
L 212 351
L 214 351
L 217 351
L 220 351
L 223 351
L 225 351
L 228 351
L 231 351
L 233 351
L 236 351
L 239 351
L 241 351
L 244 351
L 247 351
L 250 351
L 252 351
L 255 351
L 258 351
L 260 351
L 263 351
L 266 351
L 269 351
L 271 351
L 274 351
L 277 351
L 279 351
L 282 351
L 285 351
L 287 351
L 290 351
L 293 351
L 296 351
L 298 351
L 301 351
L 304 351
L 306 351
L 309 351
L 312 351
L 315 351
L 317 351
L 320 351
L 323 351
L 325 351
L 328 351
L 331 351
L 333 351
L 336 351
L 339 351
L 342 351
L 344 351
L 347 351
L 350 351
L 352 351
L 355 351
L 358 351
L 361 351
L 363 351
L 366 351
L 369 351
L 371 351
L 374 351
L 377 351
L 380 351
L 382 351
L 385 351
L 388 351
L 390 351
L 393 351
L 396 351
L 398 351
L 401 351
L 404 351
L 407 351
L 409 351
L 412 351
L 415 351
L 417 351
L 420 351
L 423 351
L 426 351
L 428 351
L 431 351
L 434 351
L 436 351
L 439 351
L 442 351
L 444 351
L 447 351
L 450 351
L 453 351
L 455 351
L 458 351
L 461 351
L 463 351
L 466 351
L 469 351
L 472 351
L 474 351
L 477 351
L 480 351
L 482 351
L 485 351
L 488 351
L 490 351
L 493 351
L 496 351
L 499 351
L 501 351
L 504 351
L 507 351
L 509 351
L 512 351
L 515 351
L 518 351
L 520 351
L 523 351
L 526 351
L 528 351
L 531 351
L 534 351
L 536 351
L 539 351
L 542 351
L 545 351
L 547 351
L 550 351
L 553 351
L 555 351
L 558 351
L 561 351
L 564 351
L 566 351
L 569 351
L 572 351
L 574 351
L 577 351
L 580 351
L 582 351
L 585 351
L 588 351
L 591 351
L 593 351
L 596 351
L 599 351
L 601 351
L 604 351
L 607 351
L 610 351
L 612 351
L 615 351
L 618 351
L 620 351
L 623 351
L 626 351
L 628 351
L 631 351
L 634 351
L 637 351
L 639 351
L 642 351
L 645 351
L 647 351
L 650 351
L 653 351
L 656 351
L 658 351
L 661 351
L 664 351
L 666 351
L 669 351
L 672 351
L 675 351
L 677 351
L 680 351
L 683 351
L 685 351
L 688 351
L 691 351
L 693 351
L 696 351
L 699 351
L 702 350
L 704 351
L 707 351
L 710 351
L 712 350
L 715 351
L 718 351
L 721 351
L 723 351
L 726 351
L 729 351
L 731 350
L 734 351
L 737 351
L 739 351
L 742 351
L 745 351
L 748 351
L 750 350
L 753 351
L 756 350
L 758 351
L 761 351
L 764 351
L 767 351
L 769 351
L 772 351
L 775 350
L 777 350
L 780 351
L 783 351
L 785 350
L 788 351
L 791 351
L 794 351
L 796 350
L 799 351
L 802 350
L 804 351
L 807 351
L 810 351
L 813 351
L 815 351
L 818 350
L 821 351
L 823 351
L 826 351
L 829 351
L 831 351
L 834 351
L 837 351
L 840 351
L 842 351
L 845 351
L 848 351
L 850 351
L 853 351
L 856 350
L 859 351
L 861 351
L 864 351
L 867 351
L 869 351
L 872 350
L 875 351
L 877 351
L 880 351
L 883 351
L 886 351
L 888 351
L 891 351
L 894 351
L 896 350
L 899 351
L 902 351
L 905 351
L 907 350
L 910 351
L 913 351
L 915 351
L 918 351
L 921 350
L 923 351
L 926 350
L 929 351
L 932 351
L 934 350
L 937 351
L 940 351
L 942 351
L 945 350
L 948 351
L 951 351
L 953 351
L 956 351
L 959 351
L 961 351
L 964 351
L 967 351
L 969 351" style="stroke-width:1;stroke:rgba(217,0,116,1.0);fill:none"/><text x="373" y="33" style="stroke-width:0;stroke:none;fill:rgba(51,51,51,1.0);font-size:23.0px;font-family:'Roboto Medium',sans-serif">Oberpullendorf 04.02.2021</text><path  d="M 38 11
L 251 11
L 251 91
L 38 91
L 38 11" style="stroke-width:1;stroke:rgba(51,51,51,1.0);fill:rgba(255,255,255,1.0)"/><text x="43" y="26" style="stroke-width:0;stroke:none;fill:rgba(51,51,51,1.0);font-size:10.2px;font-family:'Roboto Medium',sans-serif">Sieben Tage Durschnitt Inzidenz Fälle</text><path  d="M 221 21
L 241 21" style="stroke-width:1;stroke:rgba(0,116,217,1.0);fill:none"/><text x="43" y="56" style="stroke-width:0;stroke:none;fill:rgba(51,51,51,1.0);font-size:10.2px;font-family:'Roboto Medium',sans-serif">Anzahl Faelle</text><path  d="M 110 51
L 241 51" style="stroke-width:1;stroke:rgba(0,217,101,1.0);fill:none"/><text x="43" y="86" style="stroke-width:0;stroke:none;fill:rgba(51,51,51,1.0);font-size:10.2px;font-family:'Roboto Medium',sans-serif">Anzahl Tot</text><path  d="M 98 81
L 241 81" style="stroke-width:1;stroke:rgba(217,0,116,1.0);fill:none"/></svg>