<svg xmlns="http://www.w3.org/2000/svg" xmlns:xlink="http://www.w3.org/1999/xlink" width="1024" height="400">\n<path  d="M 0 0
L 1024 0
L 1024 400
L 0 400
L 0 0" style="stroke-width:0;stroke:rgba(255,255,255,1.0);fill:rgba(255,255,255,1.0)"/><path  d="M 38 11
L 969 11
L 969 351
L 38 351
L 38 11" style="stroke-width:0;stroke:rgba(255,255,255,1.0);fill:rgba(255,255,255,1.0)"/><path  d="M 38 351
L 969 351" style="stroke-width:1;stroke:rgba(51,51,51,1.0);fill:none"/><path  d="M 38 351
L 38 356" style="stroke-width:1;stroke:rgba(51,51,51,1.0);fill:none"/><text x="5" y="373" style="stroke-width:0;stroke:none;fill:rgba(51,51,51,1.0);font-size:12.8px;font-family:'Roboto Medium',sans-serif">2020-02-26</text><path  d="M 155 351
L 155 356" style="stroke-width:1;stroke:rgba(51,51,51,1.0);fill:none"/><text x="122" y="373" style="stroke-width:0;stroke:none;fill:rgba(51,51,51,1.0);font-size:12.8px;font-family:'Roboto Medium',sans-serif">2020-06-05</text><path  d="M 271 351
L 271 356" style="stroke-width:1;stroke:rgba(51,51,51,1.0);fill:none"/><text x="238" y="373" style="stroke-width:0;stroke:none;fill:rgba(51,51,51,1.0);font-size:12.8px;font-family:'Roboto Medium',sans-serif">2020-09-14</text><path  d="M 388 351
L 388 356" style="stroke-width:1;stroke:rgba(51,51,51,1.0);fill:none"/><text x="355" y="373" style="stroke-width:0;stroke:none;fill:rgba(51,51,51,1.0);font-size:12.8px;font-family:'Roboto Medium',sans-serif">2020-12-23</text><path  d="M 504 351
L 504 356" style="stroke-width:1;stroke:rgba(51,51,51,1.0);fill:none"/><text x="471" y="373" style="stroke-width:0;stroke:none;fill:rgba(51,51,51,1.0);font-size:12.8px;font-family:'Roboto Medium',sans-serif">2021-04-03</text><path  d="M 620 351
L 620 356" style="stroke-width:1;stroke:rgba(51,51,51,1.0);fill:none"/><text x="587" y="373" style="stroke-width:0;stroke:none;fill:rgba(51,51,51,1.0);font-size:12.8px;font-family:'Roboto Medium',sans-serif">2021-07-13</text><path  d="M 737 351
L 737 356" style="stroke-width:1;stroke:rgba(51,51,51,1.0);fill:none"/><text x="704" y="373" style="stroke-width:0;stroke:none;fill:rgba(51,51,51,1.0);font-size:12.8px;font-family:'Roboto Medium',sans-serif">2021-10-21</text><path  d="M 853 351
L 853 356" style="stroke-width:1;stroke:rgba(51,51,51,1.0);fill:none"/><text x="820" y="373" style="stroke-width:0;stroke:none;fill:rgba(51,51,51,1.0);font-size:12.8px;font-family:'Roboto Medium',sans-serif">2022-01-30</text><path  d="M 969 351
L 969 356" style="stroke-width:1;stroke:rgba(51,51,51,1.0);fill:none"/><text x="936" y="373" style="stroke-width:0;stroke:none;fill:rgba(51,51,51,1.0);font-size:12.8px;font-family:'Roboto Medium',sans-serif">2022-05-11</text><text x="485" y="395" style="stroke-width:0;stroke:none;fill:rgba(51,51,51,1.0);font-size:12.8px;font-family:'Roboto Medium',sans-serif">Datum</text><path  d="M 970 351
L 970 11" style="stroke-width:1;stroke:rgba(51,51,51,1.0);fill:none"/><path  d="M 970 351
L 975 351" style="stroke-width:1;stroke:rgba(51,51,51,1.0);fill:none"/><text x="980" y="357" style="stroke-width:0;stroke:none;fill:rgba(51,51,51,1.0);font-size:12.8px;font-family:'Roboto Medium',sans-serif">0.00</text><path  d="M 970 307
L 975 307" style="stroke-width:1;stroke:rgba(51,51,51,1.0);fill:none"/><text x="980" y="313" style="stroke-width:0;stroke:none;fill:rgba(51,51,51,1.0);font-size:12.8px;font-family:'Roboto Medium',sans-serif">19.00</text><path  d="M 970 264
L 975 264" style="stroke-width:1;stroke:rgba(51,51,51,1.0);fill:none"/><text x="980" y="270" style="stroke-width:0;stroke:none;fill:rgba(51,51,51,1.0);font-size:12.8px;font-family:'Roboto Medium',sans-serif">38.00</text><path  d="M 970 221
L 975 221" style="stroke-width:1;stroke:rgba(51,51,51,1.0);fill:none"/><text x="980" y="227" style="stroke-width:0;stroke:none;fill:rgba(51,51,51,1.0);font-size:12.8px;font-family:'Roboto Medium',sans-serif">57.00</text><path  d="M 970 181
L 975 181" style="stroke-width:1;stroke:rgba(51,51,51,1.0);fill:none"/><text x="980" y="187" style="stroke-width:0;stroke:none;fill:rgba(51,51,51,1.0);font-size:12.8px;font-family:'Roboto Medium',sans-serif">75.00</text><path  d="M 970 137
L 975 137" style="stroke-width:1;stroke:rgba(51,51,51,1.0);fill:none"/><text x="980" y="143" style="stroke-width:0;stroke:none;fill:rgba(51,51,51,1.0);font-size:12.8px;font-family:'Roboto Medium',sans-serif">94.00</text><path  d="M 970 94
L 975 94" style="stroke-width:1;stroke:rgba(51,51,51,1.0);fill:none"/><text x="980" y="100" style="stroke-width:0;stroke:none;fill:rgba(51,51,51,1.0);font-size:12.8px;font-family:'Roboto Medium',sans-serif">113.00</text><path  d="M 970 51
L 975 51" style="stroke-width:1;stroke:rgba(51,51,51,1.0);fill:none"/><text x="980" y="57" style="stroke-width:0;stroke:none;fill:rgba(51,51,51,1.0);font-size:12.8px;font-family:'Roboto Medium',sans-serif">132.00</text><path  d="M 970 11
L 975 11" style="stroke-width:1;stroke:rgba(51,51,51,1.0);fill:none"/><text x="980" y="17" style="stroke-width:0;stroke:none;fill:rgba(51,51,51,1.0);font-size:12.8px;font-family:'Roboto Medium',sans-serif">150.00</text><path  d="M 38 351
L 40 351
L 41 351
L 42 351
L 43 351
L 44 351
L 45 351
L 47 351
L 48 351
L 49 351
L 50 351
L 51 351
L 52 351
L 54 351
L 55 351
L 56 351
L 57 351
L 58 351
L 59 351
L 60 351
L 62 351
L 63 351
L 64 351
L 65 351
L 66 351
L 67 351
L 69 351
L 70 351
L 71 351
L 72 351
L 73 351
L 74 351
L 76 351
L 77 351
L 78 351
L 79 351
L 80 351
L 81 351
L 82 351
L 84 351
L 85 351
L 86 351
L 87 351
L 88 351
L 89 351
L 91 351
L 92 351
L 93 351
L 94 351
L 95 351
L 96 351
L 97 351
L 99 351
L 100 351
L 101 351
L 102 351
L 103 351
L 104 351
L 106 351
L 107 351
L 108 351
L 109 351
L 110 351
L 111 351
L 113 351
L 114 351
L 115 351
L 116 351
L 117 351
L 118 351
L 119 351
L 121 351
L 122 351
L 123 351
L 124 351
L 125 351
L 126 351
L 128 351
L 129 351
L 130 351
L 131 351
L 132 351
L 133 351
L 134 351
L 136 351
L 137 351
L 138 351
L 139 351
L 140 351
L 141 351
L 143 351
L 144 351
L 145 351
L 146 351
L 147 351
L 148 351
L 150 351
L 151 351
L 152 351
L 153 351
L 154 351
L 155 351
L 156 351
L 158 351
L 159 351
L 160 351
L 161 351
L 162 351
L 163 351
L 165 351
L 166 351
L 167 351
L 168 351
L 169 351
L 170 351
L 171 351
L 173 351
L 174 351
L 175 351
L 176 351
L 177 351
L 178 351
L 180 351
L 181 351
L 182 351
L 183 351
L 184 351
L 185 351
L 187 351
L 188 351
L 189 351
L 190 351
L 191 351
L 192 351
L 193 351
L 195 351
L 196 351
L 197 351
L 198 351
L 199 351
L 200 351
L 202 351
L 203 351
L 204 351
L 205 351
L 206 351
L 207 351
L 209 351
L 210 351
L 211 351
L 212 351
L 213 351
L 214 351
L 215 351
L 217 351
L 218 351
L 219 351
L 220 351
L 221 351
L 222 351
L 224 351
L 225 351
L 226 351
L 227 351
L 228 351
L 229 351
L 230 351
L 232 351
L 233 351
L 234 351
L 235 351
L 236 351
L 237 351
L 239 351
L 240 351
L 241 351
L 242 351
L 243 351
L 244 351
L 246 351
L 247 351
L 248 351
L 249 351
L 250 351
L 251 351
L 252 351
L 254 351
L 255 351
L 256 351
L 257 351
L 258 351
L 259 351
L 261 351
L 262 351
L 263 351
L 264 351
L 265 351
L 266 351
L 267 351
L 269 351
L 270 351
L 271 351
L 272 351
L 273 351
L 274 351
L 276 351
L 277 351
L 278 351
L 279 351
L 280 351
L 281 351
L 283 351
L 284 351
L 285 351
L 286 351
L 287 351
L 288 351
L 289 351
L 291 351
L 292 351
L 293 351
L 294 351
L 295 351
L 296 351
L 298 351
L 299 351
L 300 351
L 301 351
L 302 351
L 303 351
L 304 351
L 306 351
L 307 351
L 308 351
L 309 351
L 310 351
L 311 351
L 313 351
L 314 351
L 315 351
L 316 351
L 317 351
L 318 351
L 320 351
L 321 351
L 322 351
L 323 351
L 324 351
L 325 351
L 326 351
L 328 351
L 329 351
L 330 351
L 331 351
L 332 351
L 333 351
L 335 351
L 336 351
L 337 351
L 338 351
L 339 351
L 340 351
L 342 351
L 343 351
L 344 351
L 345 351
L 346 351
L 347 351
L 348 351
L 350 351
L 351 351
L 352 351
L 353 351
L 354 351
L 355 351
L 357 351
L 358 351
L 359 351
L 360 351
L 361 351
L 362 351
L 363 351
L 365 351
L 366 351
L 367 351
L 368 351
L 369 351
L 370 351
L 372 351
L 373 351
L 374 351
L 375 351
L 376 351
L 377 351
L 379 351
L 380 351
L 381 351
L 382 351
L 383 351
L 384 351
L 385 351
L 387 351
L 388 351
L 389 351
L 390 351
L 391 351
L 392 351
L 394 351
L 395 351
L 396 351
L 397 351
L 398 351
L 399 351
L 400 351
L 402 351
L 403 351
L 404 351
L 405 351
L 406 351
L 407 351
L 409 351
L 410 351
L 411 351
L 412 351
L 413 351
L 414 351
L 416 351
L 417 351
L 418 351
L 419 351
L 420 351
L 421 351
L 422 351
L 424 351
L 425 351
L 426 351
L 427 351
L 428 351
L 429 351
L 431 351
L 432 351
L 433 351
L 434 351
L 435 351
L 436 351
L 437 351
L 439 351
L 440 351
L 441 351
L 442 351
L 443 351
L 444 351
L 446 351
L 447 351
L 448 351
L 449 351
L 450 351
L 451 351
L 453 351
L 454 351
L 455 351
L 456 351
L 457 351
L 458 351
L 459 351
L 461 351
L 462 351
L 463 351
L 464 351
L 465 351
L 466 351
L 468 351
L 469 351
L 470 351
L 471 351
L 472 351
L 473 351
L 475 351
L 476 351
L 477 351
L 478 351
L 479 351
L 480 351
L 481 351
L 483 351
L 484 351
L 485 351
L 486 351
L 487 351
L 488 351
L 490 351
L 491 351
L 492 351
L 493 351
L 494 351
L 495 351
L 496 351
L 498 351
L 499 351
L 500 351
L 501 351
L 502 351
L 503 351
L 505 351
L 506 351
L 507 351
L 508 351
L 509 351
L 510 351
L 512 351
L 513 351
L 514 351
L 515 351
L 516 351
L 517 351
L 518 351
L 520 351
L 521 351
L 522 351
L 523 351
L 524 351
L 525 351
L 527 351
L 528 351
L 529 351
L 530 351
L 531 351
L 532 351
L 533 351
L 535 351
L 536 351
L 537 351
L 538 351
L 539 351
L 540 351
L 542 351
L 543 351
L 544 351
L 545 351
L 546 351
L 547 351
L 549 351
L 550 351
L 551 351
L 552 351
L 553 351
L 554 351
L 555 351
L 557 351
L 558 351
L 559 351
L 560 351
L 561 351
L 562 351
L 564 351
L 565 351
L 566 351
L 567 351
L 568 351
L 569 351
L 570 351
L 572 351
L 573 351
L 574 351
L 575 351
L 576 351
L 577 351
L 579 351
L 580 351
L 581 351
L 582 351
L 583 351
L 584 351
L 586 351
L 587 351
L 588 351
L 589 351
L 590 351
L 591 351
L 592 351
L 594 351
L 595 351
L 596 351
L 597 351
L 598 351
L 599 351
L 601 351
L 602 351
L 603 351
L 604 351
L 605 351
L 606 351
L 608 351
L 609 351
L 610 351
L 611 351
L 612 351
L 613 351
L 614 351
L 616 351
L 617 351
L 618 351
L 619 351
L 620 351
L 621 351
L 623 351
L 624 351
L 625 351
L 626 351
L 627 351
L 628 351
L 629 351
L 631 351
L 632 351
L 633 351
L 634 351
L 635 351
L 636 351
L 638 351
L 639 351
L 640 351
L 641 351
L 642 351
L 643 351
L 645 351
L 646 351
L 647 351
L 648 351
L 649 351
L 650 351
L 651 351
L 653 351
L 654 351
L 655 351
L 656 351
L 657 351
L 658 351
L 660 351
L 661 351
L 662 351
L 663 351
L 664 351
L 665 351
L 666 351
L 668 351
L 669 351
L 670 351
L 671 351
L 672 351
L 673 351
L 675 351
L 676 351
L 677 351
L 678 351
L 679 351
L 680 351
L 682 351
L 683 351
L 684 351
L 685 351
L 686 351
L 687 351
L 688 351
L 690 351
L 691 351
L 692 351
L 693 351
L 694 351
L 695 351
L 697 351
L 698 351
L 699 351
L 700 351
L 701 351
L 702 351
L 703 351
L 705 351
L 706 351
L 707 351
L 708 351
L 709 351
L 710 351
L 712 351
L 713 351
L 714 351
L 715 351
L 716 351
L 717 351
L 719 351
L 720 351
L 721 351
L 722 351
L 723 351
L 724 351
L 725 351
L 727 351
L 728 351
L 729 351
L 730 351
L 731 351
L 732 351
L 734 351
L 735 351
L 736 351
L 737 351
L 738 351
L 739 351
L 741 351
L 742 351
L 743 351
L 744 351
L 745 351
L 746 351
L 747 351
L 749 351
L 750 351
L 751 351
L 752 351
L 753 351
L 754 351
L 756 351
L 757 351
L 758 351
L 759 351
L 760 351
L 761 351
L 762 351
L 764 351
L 765 351
L 766 351
L 767 351
L 768 351
L 769 351
L 771 351
L 772 351
L 773 351
L 774 351
L 775 351
L 776 351
L 778 351
L 779 351
L 780 351
L 781 351
L 782 351
L 783 351
L 784 351
L 786 351
L 787 351
L 788 351
L 789 351
L 790 351
L 791 351
L 793 351
L 794 351
L 795 351
L 796 351
L 797 351
L 798 351
L 799 351
L 801 351
L 802 351
L 803 351
L 804 351
L 805 351
L 806 351
L 808 351
L 809 351
L 810 351
L 811 351
L 812 351
L 813 351
L 815 351
L 816 351
L 817 351
L 818 351
L 819 351
L 820 351
L 821 351
L 823 351
L 824 351
L 825 351
L 826 351
L 827 351
L 828 351
L 830 351
L 831 351
L 832 351
L 833 351
L 834 351
L 835 351
L 836 351
L 838 351
L 839 351
L 840 351
L 841 351
L 842 351
L 843 351
L 845 351
L 846 351
L 847 351
L 848 351
L 849 351
L 850 351
L 852 351
L 853 351
L 854 351
L 855 351
L 856 351
L 857 351
L 858 351
L 860 351
L 861 351
L 862 351
L 863 351
L 864 351
L 865 351
L 867 351
L 868 351
L 869 351
L 870 351
L 871 351
L 872 351
L 874 351
L 875 351
L 876 351
L 877 351
L 878 351
L 879 351
L 880 351
L 882 351
L 883 351
L 884 351
L 885 351
L 886 351
L 887 351
L 889 351
L 890 351
L 891 351
L 892 351
L 893 351
L 894 351
L 895 351
L 897 351
L 898 351
L 899 351
L 900 351
L 901 351
L 902 351
L 904 351
L 905 351
L 906 351
L 907 351
L 908 351
L 909 351
L 911 351
L 912 351
L 913 351
L 914 351
L 915 351
L 916 351
L 917 351
L 919 351
L 920 351
L 921 351
L 922 351
L 923 351
L 924 351
L 926 351
L 927 351
L 928 351
L 929 351
L 930 351
L 931 351
L 932 351
L 934 351
L 935 351
L 936 351
L 937 351
L 938 351
L 939 351
L 941 351
L 942 351
L 943 351
L 944 351
L 945 351
L 946 351
L 948 351
L 949 351
L 950 351
L 951 351
L 952 351
L 953 351
L 954 351
L 956 351
L 957 351
L 958 351
L 959 351
L 960 351
L 961 351
L 963 351
L 964 351
L 965 351
L 966 351
L 967 351
L 968 351
L 969 351" style="stroke-width:1;stroke:rgba(0,116,217,1.0);fill:none"/><path  d="M 38 351
L 40 350
L 41 350
L 42 351
L 43 350
L 44 350
L 45 350
L 47 350
L 48 350
L 49 350
L 50 350
L 51 350
L 52 350
L 54 350
L 55 350
L 56 350
L 57 350
L 58 349
L 59 349
L 60 349
L 62 349
L 63 349
L 64 348
L 65 348
L 66 348
L 67 347
L 69 347
L 70 347
L 71 347
L 72 345
L 73 346
L 74 347
L 76 348
L 77 347
L 78 348
L 79 348
L 80 348
L 81 348
L 82 349
L 84 350
L 85 349
L 86 349
L 87 349
L 88 349
L 89 349
L 91 349
L 92 350
L 93 350
L 94 350
L 95 350
L 96 350
L 97 350
L 99 350
L 100 350
L 101 350
L 102 350
L 103 350
L 104 350
L 106 350
L 107 350
L 108 350
L 109 350
L 110 350
L 111 350
L 113 350
L 114 350
L 115 350
L 116 350
L 117 350
L 118 350
L 119 350
L 121 350
L 122 350
L 123 350
L 124 350
L 125 350
L 126 350
L 128 350
L 129 350
L 130 350
L 131 350
L 132 350
L 133 350
L 134 350
L 136 350
L 137 350
L 138 350
L 139 350
L 140 350
L 141 350
L 143 350
L 144 350
L 145 350
L 146 350
L 147 350
L 148 350
L 150 350
L 151 350
L 152 350
L 153 350
L 154 350
L 155 350
L 156 350
L 158 350
L 159 350
L 160 350
L 161 350
L 162 350
L 163 350
L 165 350
L 166 350
L 167 350
L 168 350
L 169 350
L 170 350
L 171 350
L 173 350
L 174 350
L 175 350
L 176 350
L 177 350
L 178 350
L 180 350
L 181 350
L 182 350
L 183 350
L 184 350
L 185 350
L 187 350
L 188 350
L 189 350
L 190 350
L 191 350
L 192 350
L 193 350
L 195 350
L 196 350
L 197 350
L 198 350
L 199 350
L 200 350
L 202 350
L 203 350
L 204 350
L 205 350
L 206 350
L 207 350
L 209 350
L 210 350
L 211 350
L 212 350
L 213 350
L 214 350
L 215 350
L 217 350
L 218 349
L 219 350
L 220 350
L 221 350
L 222 350
L 224 350
L 225 350
L 226 350
L 227 350
L 228 350
L 229 350
L 230 350
L 232 350
L 233 349
L 234 349
L 235 349
L 236 350
L 237 350
L 239 349
L 240 349
L 241 349
L 242 349
L 243 349
L 244 349
L 246 349
L 247 349
L 248 349
L 249 349
L 250 349
L 251 348
L 252 349
L 254 349
L 255 349
L 256 349
L 257 348
L 258 349
L 259 348
L 261 349
L 262 349
L 263 348
L 264 348
L 265 347
L 266 347
L 267 346
L 269 348
L 270 348
L 271 346
L 272 347
L 273 346
L 274 346
L 276 346
L 277 347
L 278 348
L 279 347
L 280 347
L 281 346
L 283 347
L 284 346
L 285 347
L 286 348
L 287 347
L 288 346
L 289 346
L 291 346
L 292 345
L 293 347
L 294 347
L 295 346
L 296 345
L 298 344
L 299 345
L 300 344
L 301 345
L 302 346
L 303 344
L 304 343
L 306 343
L 307 342
L 308 341
L 309 343
L 310 344
L 311 342
L 313 340
L 314 336
L 315 333
L 316 333
L 317 335
L 318 337
L 320 336
L 321 327
L 322 327
L 323 324
L 324 320
L 325 325
L 326 327
L 328 323
L 329 317
L 330 313
L 331 314
L 332 308
L 333 322
L 335 320
L 336 317
L 337 311
L 338 302
L 339 307
L 340 313
L 342 323
L 343 326
L 344 318
L 345 311
L 346 316
L 347 315
L 348 316
L 350 323
L 351 338
L 352 326
L 353 320
L 354 322
L 355 324
L 357 328
L 358 331
L 359 338
L 360 333
L 361 330
L 362 332
L 363 331
L 365 331
L 366 335
L 367 340
L 368 337
L 369 337
L 370 337
L 372 334
L 373 335
L 374 336
L 375 337
L 376 336
L 377 336
L 379 338
L 380 340
L 381 339
L 382 343
L 383 343
L 384 339
L 385 337
L 387 335
L 388 341
L 389 344
L 390 344
L 391 341
L 392 339
L 394 335
L 395 336
L 396 340
L 397 342
L 398 342
L 399 340
L 400 338
L 402 335
L 403 339
L 404 340
L 405 338
L 406 342
L 407 343
L 409 341
L 410 339
L 411 342
L 412 342
L 413 342
L 414 343
L 416 345
L 417 342
L 418 342
L 419 341
L 420 341
L 421 343
L 422 344
L 424 345
L 425 343
L 426 342
L 427 343
L 428 343
L 429 343
L 431 345
L 432 344
L 433 344
L 434 342
L 435 342
L 436 344
L 437 343
L 439 344
L 440 345
L 441 344
L 442 343
L 443 342
L 444 342
L 446 344
L 447 344
L 448 344
L 449 343
L 450 342
L 451 340
L 453 341
L 454 339
L 455 342
L 456 344
L 457 340
L 458 340
L 459 338
L 461 340
L 462 337
L 463 339
L 464 343
L 465 339
L 466 337
L 468 338
L 469 338
L 470 336
L 471 339
L 472 340
L 473 337
L 475 338
L 476 335
L 477 334
L 478 334
L 479 337
L 480 340
L 481 336
L 483 335
L 484 332
L 485 333
L 486 331
L 487 336
L 488 338
L 490 334
L 491 332
L 492 332
L 493 333
L 494 333
L 495 336
L 496 333
L 498 336
L 499 334
L 500 332
L 501 334
L 502 333
L 503 336
L 505 338
L 506 340
L 507 335
L 508 335
L 509 337
L 510 332
L 512 340
L 513 340
L 514 339
L 515 334
L 516 336
L 517 338
L 518 338
L 520 340
L 521 340
L 522 339
L 523 337
L 524 337
L 525 337
L 527 340
L 528 340
L 529 342
L 530 340
L 531 338
L 532 339
L 533 339
L 535 342
L 536 342
L 537 345
L 538 343
L 539 341
L 540 343
L 542 343
L 543 344
L 544 345
L 545 347
L 546 346
L 547 344
L 549 345
L 550 346
L 551 347
L 552 347
L 553 348
L 554 347
L 555 346
L 557 347
L 558 347
L 559 347
L 560 348
L 561 349
L 562 348
L 564 348
L 565 347
L 566 348
L 567 348
L 568 348
L 569 349
L 570 349
L 572 348
L 573 349
L 574 349
L 575 349
L 576 349
L 577 349
L 579 349
L 580 349
L 581 349
L 582 349
L 583 349
L 584 349
L 586 350
L 587 350
L 588 350
L 589 350
L 590 350
L 591 350
L 592 350
L 594 350
L 595 350
L 596 350
L 597 350
L 598 350
L 599 350
L 601 350
L 602 350
L 603 350
L 604 350
L 605 350
L 606 350
L 608 350
L 609 350
L 610 350
L 611 350
L 612 350
L 613 350
L 614 349
L 616 350
L 617 350
L 618 350
L 619 349
L 620 349
L 621 349
L 623 349
L 624 348
L 625 349
L 626 349
L 627 349
L 628 349
L 629 348
L 631 348
L 632 349
L 633 349
L 634 349
L 635 349
L 636 348
L 638 348
L 639 348
L 640 348
L 641 348
L 642 349
L 643 348
L 645 347
L 646 348
L 647 347
L 648 347
L 649 348
L 650 348
L 651 347
L 653 346
L 654 346
L 655 345
L 656 345
L 657 346
L 658 346
L 660 346
L 661 344
L 662 344
L 663 344
L 664 344
L 665 345
L 666 345
L 668 344
L 669 342
L 670 343
L 671 343
L 672 343
L 673 343
L 675 345
L 676 344
L 677 341
L 678 342
L 679 342
L 680 340
L 682 342
L 683 343
L 684 341
L 685 338
L 686 339
L 687 338
L 688 339
L 690 341
L 691 343
L 692 341
L 693 337
L 694 338
L 695 339
L 697 340
L 698 343
L 699 343
L 700 343
L 701 339
L 702 341
L 703 341
L 705 341
L 706 343
L 707 343
L 708 342
L 709 337
L 710 340
L 712 341
L 713 341
L 714 342
L 715 343
L 716 343
L 717 336
L 719 340
L 720 341
L 721 341
L 722 342
L 723 344
L 724 342
L 725 336
L 727 339
L 728 338
L 729 338
L 730 339
L 731 340
L 732 336
L 734 329
L 735 331
L 736 332
L 737 331
L 738 332
L 739 336
L 741 332
L 742 327
L 743 328
L 744 319
L 745 319
L 746 321
L 747 325
L 749 322
L 750 316
L 751 303
L 752 299
L 753 299
L 754 307
L 756 308
L 757 309
L 758 287
L 759 280
L 760 294
L 761 283
L 762 290
L 764 291
L 765 292
L 766 263
L 767 271
L 768 271
L 769 276
L 771 276
L 772 289
L 773 287
L 774 273
L 775 274
L 776 286
L 778 287
L 779 299
L 780 308
L 781 307
L 782 292
L 783 304
L 784 312
L 786 317
L 787 322
L 788 328
L 789 327
L 790 318
L 791 328
L 793 334
L 794 325
L 795 333
L 796 333
L 797 335
L 798 329
L 799 335
L 801 336
L 802 338
L 803 340
L 804 340
L 805 340
L 806 336
L 808 339
L 809 338
L 810 339
L 811 342
L 812 341
L 813 337
L 815 333
L 816 334
L 817 330
L 818 331
L 819 335
L 820 332
L 821 319
L 823 297
L 824 304
L 825 303
L 826 313
L 827 294
L 828 292
L 830 283
L 831 263
L 832 261
L 833 261
L 834 260
L 835 272
L 836 265
L 838 253
L 839 201
L 840 217
L 841 193
L 842 209
L 843 227
L 845 217
L 846 209
L 847 148
L 848 161
L 849 150
L 850 172
L 852 197
L 853 212
L 854 203
L 855 117
L 856 172
L 857 155
L 858 174
L 860 191
L 861 213
L 862 196
L 863 136
L 864 163
L 865 173
L 867 192
L 868 218
L 869 223
L 870 210
L 871 144
L 872 186
L 874 188
L 875 213
L 876 235
L 877 237
L 878 224
L 879 163
L 880 199
L 882 192
L 883 217
L 884 233
L 885 237
L 886 205
L 887 132
L 889 181
L 890 180
L 891 182
L 892 203
L 893 209
L 894 169
L 895 78
L 897 84
L 898 87
L 899 118
L 900 151
L 901 167
L 902 137
L 904 11
L 905 75
L 906 80
L 907 126
L 908 150
L 909 184
L 911 154
L 912 59
L 913 131
L 914 152
L 915 174
L 916 214
L 917 239
L 919 212
L 920 169
L 921 212
L 922 232
L 923 250
L 924 276
L 926 289
L 927 269
L 928 239
L 929 264
L 930 277
L 931 281
L 932 294
L 934 312
L 935 300
L 936 284
L 937 295
L 938 298
L 939 304
L 941 311
L 942 321
L 943 320
L 944 305
L 945 292
L 946 307
L 948 316
L 949 321
L 950 327
L 951 317
L 952 306
L 953 315
L 954 318
L 956 322
L 957 327
L 958 329
L 959 320
L 960 312
L 961 319
L 963 318
L 964 323
L 965 332
L 966 330
L 967 324
L 968 318
L 969 324" style="stroke-width:1;stroke:rgba(0,217,101,1.0);fill:none"/><path  d="M 38 351
L 40 348
L 41 351
L 42 348
L 43 348
L 44 346
L 45 346
L 47 339
L 48 344
L 49 339
L 50 337
L 51 332
L 52 323
L 54 328
L 55 330
L 56 314
L 57 305
L 58 307
L 59 319
L 60 303
L 62 307
L 63 326
L 64 305
L 65 310
L 66 305
L 67 301
L 69 280
L 70 285
L 71 312
L 72 301
L 73 298
L 74 312
L 76 323
L 77 303
L 78 321
L 79 314
L 80 298
L 81 321
L 82 310
L 84 312
L 85 330
L 86 310
L 87 323
L 88 332
L 89 332
L 91 319
L 92 330
L 93 337
L 94 319
L 95 335
L 96 335
L 97 341
L 99 341
L 100 330
L 101 341
L 102 344
L 103 335
L 104 344
L 106 339
L 107 335
L 108 344
L 109 344
L 110 348
L 111 344
L 113 341
L 114 351
L 115 348
L 116 346
L 117 341
L 118 348
L 119 341
L 121 344
L 122 341
L 123 348
L 124 348
L 125 346
L 126 341
L 128 348
L 129 346
L 130 346
L 131 351
L 132 341
L 133 348
L 134 344
L 136 344
L 137 341
L 138 346
L 139 348
L 140 348
L 141 344
L 143 346
L 144 346
L 145 348
L 146 346
L 147 348
L 148 339
L 150 337
L 151 344
L 152 348
L 153 351
L 154 346
L 155 344
L 156 346
L 158 344
L 159 346
L 160 341
L 161 346
L 162 348
L 163 344
L 165 346
L 166 348
L 167 351
L 168 348
L 169 344
L 170 348
L 171 344
L 173 351
L 174 348
L 175 351
L 176 351
L 177 348
L 178 351
L 180 344
L 181 346
L 182 346
L 183 348
L 184 348
L 185 348
L 187 351
L 188 351
L 189 339
L 190 344
L 191 351
L 192 348
L 193 346
L 195 351
L 196 346
L 197 351
L 198 344
L 199 351
L 200 348
L 202 341
L 203 341
L 204 344
L 205 346
L 206 346
L 207 351
L 209 348
L 210 346
L 211 341
L 212 346
L 213 348
L 214 351
L 215 346
L 217 346
L 218 344
L 219 348
L 220 348
L 221 348
L 222 348
L 224 346
L 225 346
L 226 346
L 227 344
L 228 346
L 229 346
L 230 339
L 232 351
L 233 351
L 234 351
L 235 348
L 236 351
L 237 351
L 239 344
L 240 346
L 241 346
L 242 348
L 243 339
L 244 348
L 246 346
L 247 351
L 248 348
L 249 348
L 250 341
L 251 341
L 252 341
L 254 348
L 255 348
L 256 348
L 257 339
L 258 339
L 259 341
L 261 344
L 262 339
L 263 341
L 264 344
L 265 339
L 266 337
L 267 339
L 269 339
L 270 337
L 271 346
L 272 337
L 273 344
L 274 332
L 276 337
L 277 339
L 278 328
L 279 328
L 280 326
L 281 332
L 283 326
L 284 330
L 285 332
L 286 319
L 287 328
L 288 335
L 289 332
L 291 337
L 292 328
L 293 314
L 294 330
L 295 317
L 296 321
L 298 305
L 299 307
L 300 305
L 301 314
L 302 298
L 303 292
L 304 280
L 306 271
L 307 253
L 308 258
L 309 233
L 310 276
L 311 258
L 313 224
L 314 203
L 315 212
L 316 246
L 317 181
L 318 226
L 320 169
L 321 187
L 322 144
L 323 126
L 324 126
L 325 133
L 326 158
L 328 115
L 329 113
L 330 135
L 331 85
L 332 63
L 333 83
L 335 113
L 336 74
L 337 113
L 338 72
L 339 79
L 340 56
L 342 42
L 343 76
L 344 45
L 345 24
L 346 40
L 347 22
L 348 35
L 350 72
L 351 110
L 352 51
L 353 85
L 354 49
L 355 74
L 357 35
L 358 113
L 359 115
L 360 83
L 361 131
L 362 113
L 363 106
L 365 133
L 366 133
L 367 144
L 368 149
L 369 92
L 370 126
L 372 156
L 373 192
L 374 137
L 375 205
L 376 149
L 377 162
L 379 174
L 380 185
L 381 194
L 382 194
L 383 221
L 384 181
L 385 212
L 387 194
L 388 190
L 389 233
L 390 242
L 391 215
L 392 194
L 394 187
L 395 205
L 396 212
L 397 208
L 398 192
L 399 233
L 400 203
L 402 221
L 403 249
L 404 205
L 405 237
L 406 192
L 407 235
L 409 233
L 410 219
L 411 235
L 412 237
L 413 224
L 414 249
L 416 219
L 417 235
L 418 219
L 419 269
L 420 264
L 421 269
L 422 262
L 424 260
L 425 267
L 426 260
L 427 258
L 428 267
L 429 273
L 431 271
L 432 280
L 433 273
L 434 287
L 435 264
L 436 283
L 437 298
L 439 273
L 440 278
L 441 269
L 442 269
L 443 271
L 444 287
L 446 294
L 447 278
L 448 278
L 449 301
L 450 283
L 451 289
L 453 296
L 454 283
L 455 273
L 456 298
L 457 296
L 458 278
L 459 283
L 461 273
L 462 278
L 463 276
L 464 283
L 465 271
L 466 276
L 468 260
L 469 283
L 470 253
L 471 283
L 472 269
L 473 264
L 475 301
L 476 287
L 477 267
L 478 287
L 479 285
L 480 273
L 481 267
L 483 276
L 484 264
L 485 269
L 486 255
L 487 264
L 488 244
L 490 278
L 491 294
L 492 237
L 493 269
L 494 269
L 495 273
L 496 262
L 498 271
L 499 276
L 500 260
L 501 276
L 502 273
L 503 262
L 505 287
L 506 283
L 507 246
L 508 294
L 509 273
L 510 310
L 512 287
L 513 307
L 514 285
L 515 296
L 516 280
L 517 289
L 518 310
L 520 280
L 521 280
L 522 296
L 523 289
L 524 305
L 525 298
L 527 298
L 528 317
L 529 294
L 530 317
L 531 321
L 532 292
L 533 326
L 535 323
L 536 317
L 537 323
L 538 323
L 539 317
L 540 344
L 542 332
L 543 319
L 544 330
L 545 323
L 546 335
L 547 328
L 549 321
L 550 326
L 551 321
L 552 330
L 553 330
L 554 335
L 555 330
L 557 328
L 558 339
L 559 339
L 560 339
L 561 337
L 562 339
L 564 341
L 565 337
L 566 341
L 567 332
L 568 339
L 569 341
L 570 341
L 572 341
L 573 344
L 574 344
L 575 335
L 576 337
L 577 339
L 579 339
L 580 348
L 581 337
L 582 344
L 583 351
L 584 344
L 586 348
L 587 346
L 588 339
L 589 344
L 590 348
L 591 337
L 592 341
L 594 346
L 595 351
L 596 344
L 597 346
L 598 346
L 599 346
L 601 346
L 602 351
L 603 348
L 604 344
L 605 341
L 606 351
L 608 344
L 609 348
L 610 348
L 611 344
L 612 348
L 613 348
L 614 348
L 616 339
L 617 348
L 618 344
L 619 346
L 620 348
L 621 351
L 623 346
L 624 344
L 625 341
L 626 344
L 627 346
L 628 344
L 629 344
L 631 339
L 632 344
L 633 348
L 634 346
L 635 346
L 636 344
L 638 351
L 639 346
L 640 344
L 641 339
L 642 348
L 643 351
L 645 351
L 646 346
L 647 344
L 648 346
L 649 344
L 650 346
L 651 337
L 653 346
L 654 337
L 655 344
L 656 337
L 657 330
L 658 344
L 660 344
L 661 341
L 662 341
L 663 332
L 664 337
L 665 330
L 666 330
L 668 341
L 669 332
L 670 332
L 671 328
L 672 326
L 673 335
L 675 344
L 676 330
L 677 317
L 678 323
L 679 326
L 680 326
L 682 335
L 683 307
L 684 323
L 685 330
L 686 326
L 687 328
L 688 330
L 690 319
L 691 326
L 692 332
L 693 312
L 694 332
L 695 330
L 697 330
L 698 317
L 699 326
L 700 332
L 701 314
L 702 332
L 703 326
L 705 332
L 706 323
L 707 328
L 708 323
L 709 307
L 710 326
L 712 326
L 713 323
L 714 303
L 715 305
L 716 326
L 717 321
L 719 319
L 720 314
L 721 312
L 722 312
L 723 298
L 724 323
L 725 294
L 727 285
L 728 312
L 729 319
L 730 289
L 731 310
L 732 298
L 734 296
L 735 271
L 736 285
L 737 271
L 738 278
L 739 285
L 741 271
L 742 262
L 743 280
L 744 208
L 745 217
L 746 215
L 747 242
L 749 242
L 750 235
L 751 217
L 752 228
L 753 201
L 754 242
L 756 194
L 757 201
L 758 203
L 759 212
L 760 183
L 761 169
L 762 217
L 764 190
L 765 169
L 766 235
L 767 181
L 768 176
L 769 192
L 771 192
L 772 217
L 773 203
L 774 192
L 775 208
L 776 217
L 778 221
L 779 237
L 780 258
L 781 239
L 782 233
L 783 269
L 784 260
L 786 271
L 787 283
L 788 267
L 789 276
L 790 280
L 791 298
L 793 296
L 794 307
L 795 303
L 796 296
L 797 292
L 798 294
L 799 314
L 801 283
L 802 319
L 803 332
L 804 323
L 805 303
L 806 323
L 808 328
L 809 330
L 810 319
L 811 332
L 812 321
L 813 323
L 815 328
L 816 330
L 817 330
L 818 323
L 819 332
L 820 326
L 821 332
L 823 332
L 824 323
L 825 332
L 826 314
L 827 326
L 828 314
L 830 321
L 831 317
L 832 328
L 833 310
L 834 305
L 835 317
L 836 314
L 838 321
L 839 314
L 840 303
L 841 294
L 842 312
L 843 294
L 845 307
L 846 292
L 847 314
L 848 307
L 849 287
L 850 278
L 852 276
L 853 298
L 854 269
L 855 280
L 856 294
L 857 283
L 858 305
L 860 287
L 861 298
L 862 285
L 863 283
L 864 294
L 865 276
L 867 267
L 868 283
L 869 285
L 870 280
L 871 262
L 872 280
L 874 276
L 875 276
L 876 278
L 877 298
L 878 276
L 879 292
L 880 294
L 882 294
L 883 285
L 884 287
L 885 289
L 886 285
L 887 273
L 889 289
L 890 262
L 891 258
L 892 273
L 893 269
L 894 262
L 895 271
L 897 239
L 898 258
L 899 246
L 900 260
L 901 276
L 902 267
L 904 264
L 905 239
L 906 251
L 907 237
L 908 285
L 909 260
L 911 292
L 912 271
L 913 264
L 914 280
L 915 289
L 916 283
L 917 292
L 919 285
L 920 276
L 921 296
L 922 314
L 923 303
L 924 301
L 926 305
L 927 314
L 928 310
L 929 319
L 930 292
L 931 298
L 932 312
L 934 323
L 935 317
L 936 319
L 937 317
L 938 321
L 939 328
L 941 337
L 942 326
L 943 321
L 944 323
L 945 330
L 946 337
L 948 332
L 949 341
L 950 314
L 951 335
L 952 337
L 953 346" style="stroke-width:1;stroke:rgba(217,0,116,1.0);fill:none"/><text x="397" y="33" style="stroke-width:0;stroke:none;fill:rgba(51,51,51,1.0);font-size:23.0px;font-family:'Roboto Medium',sans-serif">Österreich 11.05.2022</text><path  d="M 38 11
L 251 11
L 251 91
L 38 91
L 38 11" style="stroke-width:1;stroke:rgba(51,51,51,1.0);fill:rgba(255,255,255,1.0)"/><text x="43" y="26" style="stroke-width:0;stroke:none;fill:rgba(51,51,51,1.0);font-size:10.2px;font-family:'Roboto Medium',sans-serif">Sieben Tage Durschnitt Inzidenz Fälle</text><path  d="M 221 21
L 241 21" style="stroke-width:1;stroke:rgba(0,116,217,1.0);fill:none"/><text x="43" y="56" style="stroke-width:0;stroke:none;fill:rgba(51,51,51,1.0);font-size:10.2px;font-family:'Roboto Medium',sans-serif">Anzahl Faelle</text><path  d="M 110 51
L 241 51" style="stroke-width:1;stroke:rgba(0,217,101,1.0);fill:none"/><text x="43" y="86" style="stroke-width:0;stroke:none;fill:rgba(51,51,51,1.0);font-size:10.2px;font-family:'Roboto Medium',sans-serif">Anzahl Tot (-14 Tage)</text><path  d="M 148 81
L 241 81" style="stroke-width:1;stroke:rgba(217,0,116,1.0);fill:none"/></svg>