<svg xmlns="http://www.w3.org/2000/svg" xmlns:xlink="http://www.w3.org/1999/xlink" width="1024" height="400">\n<path  d="M 0 0
L 1024 0
L 1024 400
L 0 400
L 0 0" style="stroke-width:0;stroke:rgba(255,255,255,1.0);fill:rgba(255,255,255,1.0)"/><path  d="M 38 11
L 969 11
L 969 351
L 38 351
L 38 11" style="stroke-width:0;stroke:rgba(255,255,255,1.0);fill:rgba(255,255,255,1.0)"/><path  d="M 38 351
L 969 351" style="stroke-width:1;stroke:rgba(51,51,51,1.0);fill:none"/><path  d="M 38 351
L 38 356" style="stroke-width:1;stroke:rgba(51,51,51,1.0);fill:none"/><text x="5" y="373" style="stroke-width:0;stroke:none;fill:rgba(51,51,51,1.0);font-size:12.8px;font-family:'Roboto Medium',sans-serif">2020-02-26</text><path  d="M 155 351
L 155 356" style="stroke-width:1;stroke:rgba(51,51,51,1.0);fill:none"/><text x="122" y="373" style="stroke-width:0;stroke:none;fill:rgba(51,51,51,1.0);font-size:12.8px;font-family:'Roboto Medium',sans-serif">2020-05-23</text><path  d="M 271 351
L 271 356" style="stroke-width:1;stroke:rgba(51,51,51,1.0);fill:none"/><text x="238" y="373" style="stroke-width:0;stroke:none;fill:rgba(51,51,51,1.0);font-size:12.8px;font-family:'Roboto Medium',sans-serif">2020-08-18</text><path  d="M 388 351
L 388 356" style="stroke-width:1;stroke:rgba(51,51,51,1.0);fill:none"/><text x="355" y="373" style="stroke-width:0;stroke:none;fill:rgba(51,51,51,1.0);font-size:12.8px;font-family:'Roboto Medium',sans-serif">2020-11-13</text><path  d="M 504 351
L 504 356" style="stroke-width:1;stroke:rgba(51,51,51,1.0);fill:none"/><text x="471" y="373" style="stroke-width:0;stroke:none;fill:rgba(51,51,51,1.0);font-size:12.8px;font-family:'Roboto Medium',sans-serif">2021-02-08</text><path  d="M 620 351
L 620 356" style="stroke-width:1;stroke:rgba(51,51,51,1.0);fill:none"/><text x="587" y="373" style="stroke-width:0;stroke:none;fill:rgba(51,51,51,1.0);font-size:12.8px;font-family:'Roboto Medium',sans-serif">2021-05-06</text><path  d="M 737 351
L 737 356" style="stroke-width:1;stroke:rgba(51,51,51,1.0);fill:none"/><text x="704" y="373" style="stroke-width:0;stroke:none;fill:rgba(51,51,51,1.0);font-size:12.8px;font-family:'Roboto Medium',sans-serif">2021-08-01</text><path  d="M 853 351
L 853 356" style="stroke-width:1;stroke:rgba(51,51,51,1.0);fill:none"/><text x="820" y="373" style="stroke-width:0;stroke:none;fill:rgba(51,51,51,1.0);font-size:12.8px;font-family:'Roboto Medium',sans-serif">2021-10-27</text><path  d="M 969 351
L 969 356" style="stroke-width:1;stroke:rgba(51,51,51,1.0);fill:none"/><text x="936" y="373" style="stroke-width:0;stroke:none;fill:rgba(51,51,51,1.0);font-size:12.8px;font-family:'Roboto Medium',sans-serif">2022-01-22</text><text x="485" y="395" style="stroke-width:0;stroke:none;fill:rgba(51,51,51,1.0);font-size:12.8px;font-family:'Roboto Medium',sans-serif">Datum</text><path  d="M 970 351
L 970 11" style="stroke-width:1;stroke:rgba(51,51,51,1.0);fill:none"/><path  d="M 970 351
L 975 351" style="stroke-width:1;stroke:rgba(51,51,51,1.0);fill:none"/><text x="980" y="357" style="stroke-width:0;stroke:none;fill:rgba(51,51,51,1.0);font-size:12.8px;font-family:'Roboto Medium',sans-serif">0.00</text><path  d="M 970 306
L 975 306" style="stroke-width:1;stroke:rgba(51,51,51,1.0);fill:none"/><text x="980" y="312" style="stroke-width:0;stroke:none;fill:rgba(51,51,51,1.0);font-size:12.8px;font-family:'Roboto Medium',sans-serif">17.00</text><path  d="M 970 264
L 975 264" style="stroke-width:1;stroke:rgba(51,51,51,1.0);fill:none"/><text x="980" y="270" style="stroke-width:0;stroke:none;fill:rgba(51,51,51,1.0);font-size:12.8px;font-family:'Roboto Medium',sans-serif">33.00</text><path  d="M 970 222
L 975 222" style="stroke-width:1;stroke:rgba(51,51,51,1.0);fill:none"/><text x="980" y="228" style="stroke-width:0;stroke:none;fill:rgba(51,51,51,1.0);font-size:12.8px;font-family:'Roboto Medium',sans-serif">49.00</text><path  d="M 970 181
L 975 181" style="stroke-width:1;stroke:rgba(51,51,51,1.0);fill:none"/><text x="980" y="187" style="stroke-width:0;stroke:none;fill:rgba(51,51,51,1.0);font-size:12.8px;font-family:'Roboto Medium',sans-serif">65.00</text><path  d="M 970 136
L 975 136" style="stroke-width:1;stroke:rgba(51,51,51,1.0);fill:none"/><text x="980" y="142" style="stroke-width:0;stroke:none;fill:rgba(51,51,51,1.0);font-size:12.8px;font-family:'Roboto Medium',sans-serif">82.00</text><path  d="M 970 94
L 975 94" style="stroke-width:1;stroke:rgba(51,51,51,1.0);fill:none"/><text x="980" y="100" style="stroke-width:0;stroke:none;fill:rgba(51,51,51,1.0);font-size:12.8px;font-family:'Roboto Medium',sans-serif">98.00</text><path  d="M 970 52
L 975 52" style="stroke-width:1;stroke:rgba(51,51,51,1.0);fill:none"/><text x="980" y="58" style="stroke-width:0;stroke:none;fill:rgba(51,51,51,1.0);font-size:12.8px;font-family:'Roboto Medium',sans-serif">114.00</text><path  d="M 970 11
L 975 11" style="stroke-width:1;stroke:rgba(51,51,51,1.0);fill:none"/><text x="980" y="17" style="stroke-width:0;stroke:none;fill:rgba(51,51,51,1.0);font-size:12.8px;font-family:'Roboto Medium',sans-serif">130.00</text><path  d="M 38 351
L 40 351
L 41 351
L 43 351
L 44 351
L 45 351
L 47 351
L 48 351
L 49 351
L 51 351
L 52 351
L 53 351
L 55 351
L 56 351
L 57 351
L 59 351
L 60 351
L 61 351
L 63 351
L 64 351
L 65 351
L 67 351
L 68 351
L 69 351
L 71 351
L 72 351
L 73 351
L 75 351
L 76 351
L 77 351
L 79 351
L 80 351
L 81 351
L 83 351
L 84 351
L 85 351
L 87 351
L 88 351
L 89 351
L 91 351
L 92 351
L 93 351
L 95 351
L 96 351
L 97 351
L 99 351
L 100 351
L 101 351
L 103 351
L 104 351
L 105 351
L 107 351
L 108 351
L 109 351
L 111 351
L 112 351
L 113 351
L 115 351
L 116 351
L 117 351
L 119 351
L 120 351
L 121 351
L 123 351
L 124 351
L 125 351
L 127 351
L 128 351
L 129 351
L 131 351
L 132 351
L 133 351
L 135 351
L 136 351
L 137 351
L 139 351
L 140 351
L 141 351
L 143 351
L 144 351
L 146 351
L 147 351
L 148 351
L 150 351
L 151 351
L 152 351
L 154 351
L 155 351
L 156 351
L 158 351
L 159 351
L 160 351
L 162 351
L 163 351
L 164 351
L 166 351
L 167 351
L 168 351
L 170 351
L 171 351
L 172 351
L 174 351
L 175 351
L 176 351
L 178 351
L 179 351
L 180 351
L 182 351
L 183 351
L 184 351
L 186 351
L 187 351
L 188 351
L 190 351
L 191 351
L 192 351
L 194 351
L 195 351
L 196 351
L 198 351
L 199 351
L 200 351
L 202 351
L 203 351
L 204 351
L 206 351
L 207 351
L 208 351
L 210 351
L 211 351
L 212 351
L 214 351
L 215 351
L 216 351
L 218 351
L 219 351
L 220 351
L 222 351
L 223 351
L 224 351
L 226 351
L 227 351
L 228 351
L 230 351
L 231 351
L 232 351
L 234 351
L 235 351
L 236 351
L 238 351
L 239 351
L 240 351
L 242 351
L 243 351
L 244 351
L 246 351
L 247 351
L 249 351
L 250 351
L 251 351
L 253 351
L 254 351
L 255 351
L 257 351
L 258 351
L 259 351
L 261 351
L 262 351
L 263 351
L 265 351
L 266 351
L 267 351
L 269 351
L 270 351
L 271 351
L 273 351
L 274 351
L 275 351
L 277 351
L 278 351
L 279 351
L 281 351
L 282 351
L 283 351
L 285 351
L 286 351
L 287 351
L 289 351
L 290 351
L 291 351
L 293 351
L 294 351
L 295 351
L 297 351
L 298 351
L 299 351
L 301 351
L 302 351
L 303 351
L 305 351
L 306 351
L 307 351
L 309 351
L 310 351
L 311 351
L 313 351
L 314 351
L 315 351
L 317 351
L 318 351
L 319 351
L 321 351
L 322 351
L 323 351
L 325 351
L 326 351
L 327 351
L 329 351
L 330 351
L 331 351
L 333 351
L 334 351
L 335 351
L 337 351
L 338 351
L 339 351
L 341 351
L 342 351
L 343 351
L 345 351
L 346 351
L 347 351
L 349 351
L 350 351
L 352 351
L 353 351
L 354 351
L 356 351
L 357 351
L 358 351
L 360 351
L 361 351
L 362 351
L 364 351
L 365 351
L 366 351
L 368 351
L 369 351
L 370 351
L 372 351
L 373 351
L 374 351
L 376 351
L 377 351
L 378 351
L 380 351
L 381 351
L 382 351
L 384 351
L 385 351
L 386 351
L 388 351
L 389 351
L 390 351
L 392 351
L 393 351
L 394 351
L 396 351
L 397 351
L 398 351
L 400 351
L 401 351
L 402 351
L 404 351
L 405 351
L 406 351
L 408 351
L 409 351
L 410 351
L 412 351
L 413 351
L 414 351
L 416 351
L 417 351
L 418 351
L 420 351
L 421 351
L 422 351
L 424 351
L 425 351
L 426 351
L 428 351
L 429 351
L 430 351
L 432 351
L 433 351
L 434 351
L 436 351
L 437 351
L 438 351
L 440 351
L 441 351
L 442 351
L 444 351
L 445 351
L 446 351
L 448 351
L 449 351
L 450 351
L 452 351
L 453 351
L 455 351
L 456 351
L 457 351
L 459 351
L 460 351
L 461 351
L 463 351
L 464 351
L 465 351
L 467 351
L 468 351
L 469 351
L 471 351
L 472 351
L 473 351
L 475 351
L 476 351
L 477 351
L 479 351
L 480 351
L 481 351
L 483 351
L 484 351
L 485 351
L 487 351
L 488 351
L 489 351
L 491 351
L 492 351
L 493 351
L 495 351
L 496 351
L 497 351
L 499 351
L 500 351
L 501 351
L 503 351
L 504 351
L 505 351
L 507 351
L 508 351
L 509 351
L 511 351
L 512 351
L 513 351
L 515 351
L 516 351
L 517 351
L 519 351
L 520 351
L 521 351
L 523 351
L 524 351
L 525 351
L 527 351
L 528 351
L 529 351
L 531 351
L 532 351
L 533 351
L 535 351
L 536 351
L 537 351
L 539 351
L 540 351
L 541 351
L 543 351
L 544 351
L 545 351
L 547 351
L 548 351
L 549 351
L 551 351
L 552 351
L 553 351
L 555 351
L 556 351
L 558 351
L 559 351
L 560 351
L 562 351
L 563 351
L 564 351
L 566 351
L 567 351
L 568 351
L 570 351
L 571 351
L 572 351
L 574 351
L 575 351
L 576 351
L 578 351
L 579 351
L 580 351
L 582 351
L 583 351
L 584 351
L 586 351
L 587 351
L 588 351
L 590 351
L 591 351
L 592 351
L 594 351
L 595 351
L 596 351
L 598 351
L 599 351
L 600 351
L 602 351
L 603 351
L 604 351
L 606 351
L 607 351
L 608 351
L 610 351
L 611 351
L 612 351
L 614 351
L 615 351
L 616 351
L 618 351
L 619 351
L 620 351
L 622 351
L 623 351
L 624 351
L 626 351
L 627 351
L 628 351
L 630 351
L 631 351
L 632 351
L 634 351
L 635 351
L 636 351
L 638 351
L 639 351
L 640 351
L 642 351
L 643 351
L 644 351
L 646 351
L 647 351
L 648 351
L 650 351
L 651 351
L 652 351
L 654 351
L 655 351
L 656 351
L 658 351
L 659 351
L 661 351
L 662 351
L 663 351
L 665 351
L 666 351
L 667 351
L 669 351
L 670 351
L 671 351
L 673 351
L 674 351
L 675 351
L 677 351
L 678 351
L 679 351
L 681 351
L 682 351
L 683 351
L 685 351
L 686 351
L 687 351
L 689 351
L 690 351
L 691 351
L 693 351
L 694 351
L 695 351
L 697 351
L 698 351
L 699 351
L 701 351
L 702 351
L 703 351
L 705 351
L 706 351
L 707 351
L 709 351
L 710 351
L 711 351
L 713 351
L 714 351
L 715 351
L 717 351
L 718 351
L 719 351
L 721 351
L 722 351
L 723 351
L 725 351
L 726 351
L 727 351
L 729 351
L 730 351
L 731 351
L 733 351
L 734 351
L 735 351
L 737 351
L 738 351
L 739 351
L 741 351
L 742 351
L 743 351
L 745 351
L 746 351
L 747 351
L 749 351
L 750 351
L 751 351
L 753 351
L 754 351
L 755 351
L 757 351
L 758 351
L 759 351
L 761 351
L 762 351
L 764 351
L 765 351
L 766 351
L 768 351
L 769 351
L 770 351
L 772 351
L 773 351
L 774 351
L 776 351
L 777 351
L 778 351
L 780 351
L 781 351
L 782 351
L 784 351
L 785 351
L 786 351
L 788 351
L 789 351
L 790 351
L 792 351
L 793 351
L 794 351
L 796 351
L 797 351
L 798 351
L 800 351
L 801 351
L 802 351
L 804 351
L 805 351
L 806 351
L 808 351
L 809 351
L 810 351
L 812 351
L 813 351
L 814 351
L 816 351
L 817 351
L 818 351
L 820 351
L 821 351
L 822 351
L 824 351
L 825 351
L 826 351
L 828 351
L 829 351
L 830 351
L 832 351
L 833 351
L 834 351
L 836 351
L 837 351
L 838 351
L 840 351
L 841 351
L 842 351
L 844 351
L 845 351
L 846 351
L 848 351
L 849 351
L 850 351
L 852 351
L 853 351
L 854 351
L 856 351
L 857 351
L 858 351
L 860 351
L 861 351
L 862 351
L 864 351
L 865 351
L 867 351
L 868 351
L 869 351
L 871 351
L 872 351
L 873 351
L 875 351
L 876 351
L 877 351
L 879 351
L 880 351
L 881 351
L 883 351
L 884 351
L 885 351
L 887 351
L 888 351
L 889 351
L 891 351
L 892 351
L 893 351
L 895 351
L 896 351
L 897 351
L 899 351
L 900 351
L 901 351
L 903 351
L 904 351
L 905 351
L 907 351
L 908 351
L 909 351
L 911 351
L 912 351
L 913 351
L 915 351
L 916 351
L 917 351
L 919 351
L 920 351
L 921 351
L 923 351
L 924 351
L 925 351
L 927 351
L 928 351
L 929 351
L 931 351
L 932 351
L 933 351
L 935 351
L 936 351
L 937 351
L 939 351
L 940 351
L 941 351
L 943 351
L 944 351
L 945 351
L 947 351
L 948 351
L 949 351
L 951 351
L 952 351
L 953 351
L 955 351
L 956 351
L 957 351
L 959 351
L 960 351
L 961 351
L 963 351
L 964 351
L 965 351
L 967 351
L 968 351
L 969 351" style="stroke-width:1;stroke:rgba(0,116,217,1.0);fill:none"/><path  d="M 38 351
L 40 350
L 41 350
L 43 351
L 44 350
L 45 350
L 47 350
L 48 350
L 49 350
L 51 350
L 52 350
L 53 350
L 55 350
L 56 350
L 57 349
L 59 349
L 60 348
L 61 348
L 63 348
L 64 348
L 65 347
L 67 346
L 68 345
L 69 345
L 71 344
L 72 343
L 73 343
L 75 342
L 76 342
L 77 338
L 79 341
L 80 343
L 81 344
L 83 343
L 84 344
L 85 344
L 87 346
L 88 346
L 89 348
L 91 348
L 92 347
L 93 347
L 95 347
L 96 347
L 97 346
L 99 348
L 100 349
L 101 350
L 103 349
L 104 349
L 105 349
L 107 349
L 108 350
L 109 350
L 111 350
L 112 350
L 113 350
L 115 350
L 116 350
L 117 350
L 119 350
L 120 350
L 121 350
L 123 350
L 124 350
L 125 350
L 127 350
L 128 350
L 129 350
L 131 350
L 132 350
L 133 350
L 135 350
L 136 350
L 137 350
L 139 350
L 140 350
L 141 350
L 143 350
L 144 350
L 146 350
L 147 350
L 148 350
L 150 350
L 151 350
L 152 350
L 154 350
L 155 350
L 156 350
L 158 350
L 159 350
L 160 350
L 162 350
L 163 350
L 164 350
L 166 350
L 167 350
L 168 350
L 170 350
L 171 350
L 172 350
L 174 350
L 175 350
L 176 350
L 178 350
L 179 350
L 180 350
L 182 350
L 183 350
L 184 350
L 186 350
L 187 350
L 188 350
L 190 350
L 191 350
L 192 350
L 194 350
L 195 350
L 196 350
L 198 350
L 199 350
L 200 350
L 202 350
L 203 350
L 204 350
L 206 349
L 207 349
L 208 350
L 210 349
L 211 349
L 212 350
L 214 350
L 215 349
L 216 349
L 218 350
L 219 349
L 220 349
L 222 350
L 223 349
L 224 349
L 226 349
L 227 349
L 228 349
L 230 350
L 231 350
L 232 349
L 234 349
L 235 349
L 236 349
L 238 349
L 239 349
L 240 349
L 242 349
L 243 349
L 244 349
L 246 348
L 247 349
L 249 350
L 250 350
L 251 349
L 253 350
L 254 349
L 255 349
L 257 349
L 258 349
L 259 350
L 261 349
L 262 348
L 263 348
L 265 348
L 266 347
L 267 349
L 269 349
L 270 348
L 271 348
L 273 347
L 274 347
L 275 347
L 277 348
L 278 348
L 279 348
L 281 347
L 282 347
L 283 348
L 285 346
L 286 348
L 287 348
L 289 348
L 290 347
L 291 346
L 293 346
L 294 346
L 295 348
L 297 346
L 298 346
L 299 344
L 301 343
L 302 344
L 303 340
L 305 346
L 306 346
L 307 341
L 309 342
L 310 341
L 311 341
L 313 341
L 314 343
L 315 345
L 317 344
L 318 342
L 319 341
L 321 343
L 322 342
L 323 344
L 325 344
L 326 342
L 327 342
L 329 341
L 330 341
L 331 339
L 333 342
L 334 342
L 335 340
L 337 338
L 338 336
L 339 338
L 341 336
L 342 339
L 343 341
L 345 337
L 346 335
L 347 334
L 349 333
L 350 330
L 352 334
L 353 337
L 354 332
L 356 328
L 357 320
L 358 314
L 360 312
L 361 317
L 362 322
L 364 319
L 365 301
L 366 300
L 368 293
L 369 285
L 370 296
L 372 299
L 373 291
L 374 278
L 376 269
L 377 271
L 378 258
L 380 290
L 381 285
L 382 279
L 384 266
L 385 246
L 386 256
L 388 270
L 389 292
L 390 298
L 392 281
L 393 265
L 394 277
L 396 275
L 397 277
L 398 292
L 400 323
L 401 298
L 402 285
L 404 289
L 405 293
L 406 302
L 408 308
L 409 323
L 410 312
L 412 306
L 413 310
L 414 309
L 416 310
L 417 318
L 418 327
L 420 322
L 421 320
L 422 322
L 424 315
L 425 318
L 426 320
L 428 322
L 429 319
L 430 319
L 432 323
L 433 328
L 434 326
L 436 333
L 437 335
L 438 326
L 440 321
L 441 318
L 442 330
L 444 336
L 445 337
L 446 331
L 448 326
L 449 317
L 450 320
L 452 328
L 453 332
L 455 332
L 456 329
L 457 324
L 459 317
L 460 327
L 461 328
L 463 324
L 464 333
L 465 335
L 467 331
L 468 326
L 469 332
L 471 333
L 472 333
L 473 335
L 475 339
L 476 332
L 477 332
L 479 331
L 480 330
L 481 334
L 483 336
L 484 340
L 485 334
L 487 332
L 488 334
L 489 334
L 491 334
L 492 338
L 493 338
L 495 337
L 496 332
L 497 333
L 499 336
L 500 335
L 501 337
L 503 339
L 504 336
L 505 334
L 507 331
L 508 333
L 509 336
L 511 337
L 512 337
L 513 333
L 515 332
L 516 329
L 517 331
L 519 327
L 520 332
L 521 337
L 523 329
L 524 328
L 525 323
L 527 329
L 528 322
L 529 325
L 531 335
L 532 326
L 533 323
L 535 323
L 536 324
L 537 319
L 539 325
L 540 328
L 541 322
L 543 323
L 544 318
L 545 316
L 547 316
L 548 322
L 549 329
L 551 319
L 552 318
L 553 310
L 555 314
L 556 309
L 558 320
L 559 323
L 560 316
L 562 310
L 563 311
L 564 314
L 566 313
L 567 320
L 568 314
L 570 319
L 571 315
L 572 312
L 574 315
L 575 313
L 576 318
L 578 324
L 579 328
L 580 318
L 582 318
L 583 322
L 584 311
L 586 328
L 587 327
L 588 325
L 590 314
L 591 319
L 592 324
L 594 324
L 595 327
L 596 328
L 598 327
L 599 322
L 600 321
L 602 322
L 603 328
L 604 329
L 606 332
L 607 329
L 608 325
L 610 326
L 611 326
L 612 331
L 614 333
L 615 338
L 616 334
L 618 331
L 619 335
L 620 335
L 622 337
L 623 338
L 624 342
L 626 340
L 627 337
L 628 339
L 630 341
L 631 343
L 632 343
L 634 345
L 635 343
L 636 341
L 638 344
L 639 343
L 640 344
L 642 345
L 643 347
L 644 346
L 646 345
L 647 344
L 648 344
L 650 346
L 651 346
L 652 347
L 654 346
L 655 345
L 656 347
L 658 347
L 659 347
L 661 347
L 662 347
L 663 347
L 665 346
L 666 347
L 667 348
L 669 348
L 670 348
L 671 349
L 673 349
L 674 348
L 675 349
L 677 349
L 678 349
L 679 349
L 681 349
L 682 349
L 683 349
L 685 349
L 686 349
L 687 349
L 689 350
L 690 350
L 691 349
L 693 349
L 694 350
L 695 349
L 697 349
L 698 350
L 699 350
L 701 349
L 702 349
L 703 349
L 705 348
L 706 348
L 707 349
L 709 348
L 710 348
L 711 347
L 713 347
L 714 346
L 715 346
L 717 347
L 718 347
L 719 347
L 721 346
L 722 346
L 723 346
L 725 347
L 726 347
L 727 347
L 729 346
L 730 344
L 731 345
L 733 344
L 734 344
L 735 346
L 737 347
L 738 346
L 739 344
L 741 345
L 742 344
L 743 344
L 745 344
L 746 346
L 747 343
L 749 341
L 750 341
L 751 339
L 753 340
L 754 341
L 755 341
L 757 341
L 758 337
L 759 336
L 761 336
L 762 336
L 764 338
L 765 339
L 766 337
L 768 332
L 769 334
L 770 335
L 772 335
L 773 335
L 774 338
L 776 336
L 777 329
L 778 333
L 780 331
L 781 328
L 782 333
L 784 335
L 785 330
L 786 324
L 788 326
L 789 324
L 790 325
L 792 330
L 793 335
L 794 329
L 796 321
L 797 324
L 798 325
L 800 327
L 801 334
L 802 335
L 804 335
L 805 326
L 806 330
L 808 330
L 809 330
L 810 335
L 812 335
L 813 332
L 814 321
L 816 329
L 817 331
L 818 330
L 820 333
L 821 335
L 822 334
L 824 320
L 825 327
L 826 329
L 828 329
L 829 332
L 830 336
L 832 332
L 833 319
L 834 326
L 836 323
L 837 323
L 838 326
L 840 328
L 841 319
L 842 305
L 844 309
L 845 311
L 846 308
L 848 310
L 849 319
L 850 311
L 852 299
L 853 301
L 854 283
L 856 282
L 857 286
L 858 296
L 860 290
L 861 275
L 862 248
L 864 239
L 865 240
L 867 258
L 868 259
L 869 262
L 871 214
L 872 200
L 873 230
L 875 206
L 876 220
L 877 223
L 879 225
L 880 163
L 881 179
L 883 181
L 884 190
L 885 190
L 887 218
L 888 214
L 889 185
L 891 186
L 892 212
L 893 213
L 895 241
L 896 259
L 897 258
L 899 225
L 900 251
L 901 268
L 903 279
L 904 290
L 905 302
L 907 300
L 908 281
L 909 301
L 911 315
L 912 295
L 913 313
L 915 313
L 916 317
L 917 303
L 919 317
L 920 320
L 921 324
L 923 328
L 924 329
L 925 328
L 927 318
L 928 326
L 929 325
L 931 326
L 932 332
L 933 331
L 935 321
L 936 312
L 937 314
L 939 307
L 940 308
L 941 316
L 943 311
L 944 282
L 945 235
L 947 250
L 948 249
L 949 270
L 951 228
L 952 226
L 953 206
L 955 161
L 956 157
L 957 156
L 959 154
L 960 179
L 961 165
L 963 141
L 964 29
L 965 62
L 967 11
L 968 46
L 969 97" style="stroke-width:1;stroke:rgba(0,217,101,1.0);fill:none"/><path  d="M 38 351
L 40 348
L 41 351
L 43 348
L 44 348
L 45 345
L 47 345
L 48 337
L 49 343
L 51 337
L 52 335
L 53 330
L 55 319
L 56 324
L 57 327
L 59 309
L 60 298
L 61 301
L 63 314
L 64 296
L 65 303
L 67 322
L 68 298
L 69 303
L 71 298
L 72 293
L 73 269
L 75 275
L 76 306
L 77 293
L 79 290
L 80 306
L 81 319
L 83 296
L 84 317
L 85 311
L 87 293
L 88 317
L 89 306
L 91 309
L 92 327
L 93 303
L 95 319
L 96 335
L 97 332
L 99 314
L 100 327
L 101 340
L 103 317
L 104 335
L 105 335
L 107 343
L 108 345
L 109 335
L 111 343
L 112 343
L 113 340
L 115 345
L 116 337
L 117 340
L 119 345
L 120 345
L 121 348
L 123 348
L 124 343
L 125 351
L 127 348
L 128 348
L 129 343
L 131 348
L 132 343
L 133 345
L 135 343
L 136 348
L 137 351
L 139 348
L 140 345
L 141 351
L 143 351
L 144 348
L 146 351
L 147 351
L 148 348
L 150 351
L 151 343
L 152 345
L 154 348
L 155 351
L 156 351
L 158 348
L 159 345
L 160 345
L 162 351
L 163 351
L 164 348
L 166 343
L 167 337
L 168 345
L 170 348
L 171 351
L 172 348
L 174 345
L 175 348
L 176 348
L 178 345
L 179 345
L 180 348
L 182 351
L 183 345
L 184 348
L 186 348
L 187 351
L 188 351
L 190 351
L 191 348
L 192 351
L 194 351
L 195 351
L 196 351
L 198 351
L 199 351
L 200 351
L 202 345
L 203 348
L 204 348
L 206 351
L 207 348
L 208 351
L 210 351
L 211 351
L 212 351
L 214 345
L 215 351
L 216 351
L 218 348
L 219 351
L 220 348
L 222 351
L 223 343
L 224 351
L 226 348
L 227 351
L 228 351
L 230 351
L 231 348
L 232 351
L 234 351
L 235 348
L 236 348
L 238 348
L 239 348
L 240 351
L 242 351
L 243 345
L 244 348
L 246 345
L 247 348
L 249 351
L 250 351
L 251 351
L 253 351
L 254 348
L 255 351
L 257 348
L 258 351
L 259 351
L 261 348
L 262 351
L 263 351
L 265 351
L 266 351
L 267 351
L 269 351
L 270 348
L 271 348
L 273 351
L 274 351
L 275 345
L 277 351
L 278 351
L 279 351
L 281 348
L 282 351
L 283 340
L 285 340
L 286 345
L 287 351
L 289 348
L 290 351
L 291 340
L 293 343
L 294 343
L 295 351
L 297 340
L 298 343
L 299 343
L 301 337
L 302 343
L 303 343
L 305 340
L 306 337
L 307 348
L 309 337
L 310 348
L 311 335
L 313 337
L 314 340
L 315 330
L 317 332
L 318 330
L 319 335
L 321 330
L 322 337
L 323 335
L 325 327
L 326 327
L 327 337
L 329 335
L 330 335
L 331 330
L 333 309
L 334 330
L 335 322
L 337 319
L 338 303
L 339 301
L 341 319
L 342 319
L 343 303
L 345 285
L 346 277
L 347 267
L 349 256
L 350 256
L 352 228
L 353 267
L 354 251
L 356 212
L 357 207
L 358 196
L 360 238
L 361 170
L 362 217
L 364 157
L 365 183
L 366 152
L 368 139
L 369 107
L 370 133
L 372 139
L 373 110
L 374 99
L 376 133
L 377 84
L 378 58
L 380 81
L 381 123
L 382 76
L 384 99
L 385 63
L 386 76
L 388 63
L 389 65
L 390 84
L 392 55
L 393 34
L 394 45
L 396 29
L 397 50
L 398 68
L 400 107
L 401 50
L 402 86
L 404 60
L 405 81
L 406 45
L 408 149
L 409 123
L 410 97
L 412 131
L 413 123
L 414 113
L 416 128
L 417 167
L 418 162
L 420 183
L 421 136
L 422 149
L 424 170
L 425 209
L 426 141
L 428 233
L 429 160
L 430 220
L 432 175
L 433 199
L 434 217
L 436 212
L 437 233
L 438 183
L 440 225
L 441 209
L 442 196
L 444 228
L 445 269
L 446 225
L 448 199
L 449 204
L 450 199
L 452 225
L 453 215
L 455 217
L 456 241
L 457 217
L 459 249
L 460 259
L 461 215
L 463 256
L 464 209
L 465 262
L 467 241
L 468 222
L 469 246
L 471 246
L 472 235
L 473 259
L 475 249
L 476 251
L 477 243
L 479 272
L 480 272
L 481 285
L 483 280
L 484 280
L 485 277
L 487 275
L 488 267
L 489 290
L 491 288
L 492 288
L 493 298
L 495 288
L 496 298
L 497 275
L 499 296
L 500 309
L 501 298
L 503 293
L 504 288
L 505 296
L 507 303
L 508 301
L 509 301
L 511 290
L 512 293
L 513 311
L 515 303
L 516 296
L 517 309
L 519 303
L 520 283
L 521 303
L 523 303
L 524 296
L 525 301
L 527 285
L 528 285
L 529 280
L 531 285
L 532 285
L 533 290
L 535 267
L 536 285
L 537 272
L 539 298
L 540 280
L 541 272
L 543 303
L 544 290
L 545 272
L 547 285
L 548 290
L 549 277
L 551 269
L 552 277
L 553 277
L 555 272
L 556 262
L 558 283
L 559 249
L 560 277
L 562 293
L 563 256
L 564 267
L 566 259
L 567 280
L 568 283
L 570 277
L 571 272
L 572 262
L 574 280
L 575 277
L 576 269
L 578 290
L 579 293
L 580 238
L 582 301
L 583 280
L 584 317
L 586 290
L 587 309
L 588 293
L 590 298
L 591 280
L 592 296
L 594 311
L 595 288
L 596 285
L 598 309
L 599 293
L 600 314
L 602 309
L 603 301
L 604 327
L 606 306
L 607 317
L 608 335
L 610 296
L 611 322
L 612 335
L 614 319
L 615 327
L 616 330
L 618 319
L 619 345
L 620 335
L 622 324
L 623 332
L 624 327
L 626 337
L 627 335
L 628 327
L 630 335
L 631 327
L 632 337
L 634 337
L 635 337
L 636 332
L 638 335
L 639 340
L 640 345
L 642 340
L 643 337
L 644 340
L 646 340
L 647 340
L 648 351
L 650 343
L 651 340
L 652 343
L 654 345
L 655 343
L 656 348
L 658 345
L 659 340
L 661 345
L 662 348
L 663 345
L 665 351
L 666 340
L 667 343
L 669 351
L 670 345
L 671 348
L 673 348
L 674 348
L 675 351
L 677 348
L 678 343
L 679 343
L 681 351
L 682 351
L 683 348
L 685 348
L 686 351
L 687 351
L 689 351
L 690 351
L 691 351
L 693 345
L 694 348
L 695 351
L 697 348
L 698 351
L 699 351
L 701 351
L 702 351
L 703 351
L 705 348
L 706 348
L 707 348
L 709 345
L 710 348
L 711 351
L 713 351
L 714 348
L 715 351
L 717 348
L 718 348
L 719 345
L 721 348
L 722 345
L 723 348
L 725 348
L 726 348
L 727 348
L 729 348
L 730 348
L 731 351
L 733 345
L 734 345
L 735 345
L 737 351
L 738 351
L 739 351
L 741 351
L 742 345
L 743 348
L 745 345
L 746 345
L 747 343
L 749 345
L 750 340
L 751 345
L 753 335
L 754 332
L 755 343
L 757 345
L 758 343
L 759 340
L 761 332
L 762 337
L 764 330
L 765 330
L 766 343
L 768 330
L 769 332
L 770 340
L 772 327
L 773 335
L 774 345
L 776 335
L 777 317
L 778 327
L 780 332
L 781 335
L 782 332
L 784 311
L 785 322
L 786 327
L 788 322
L 789 324
L 790 330
L 792 327
L 793 327
L 794 337
L 796 317
L 797 332
L 798 335
L 800 330
L 801 319
L 802 332
L 804 332
L 805 317
L 806 332
L 808 324
L 809 337
L 810 327
L 812 330
L 813 322
L 814 319
L 816 335
L 817 324
L 818 332
L 820 309
L 821 311
L 822 335
L 824 322
L 825 324
L 826 322
L 828 330
L 829 322
L 830 311
L 832 324
L 833 306
L 834 311
L 836 322
L 837 324
L 838 309
L 840 317
L 841 298
L 842 306
L 844 285
L 845 296
L 846 280
L 848 296
L 849 301
L 850 280
L 852 275
L 853 285
L 854 217
L 856 233
L 857 228
L 858 243
L 860 254
L 861 251
L 862 230
L 864 235
L 865 220
L 867 249
L 868 209
L 869 207
L 871 212
L 872 225
L 873 196
L 875 181
L 876 228
L 877 207
L 879 178
L 880 249
L 881 188
L 883 196
L 884 199
L 885 217
L 887 241
L 888 235
L 889 215
L 891 217
L 892 235
L 893 238
L 895 267
L 896 262
L 897 249
L 899 249
L 900 280
L 901 283
L 903 285
L 904 290
L 905 277
L 907 306
L 908 303
L 909 314
L 911 311
L 912 327
L 913 319
L 915 311
L 916 306
L 917 309
L 919 314
L 920 290
L 921 322
L 923 330
L 924 327
L 925 311
L 927 324
L 928 335
L 929 335
L 931 330
L 932 332
L 933 322
L 935 324
L 936 330
L 937 330
L 939 340
L 940 322
L 941 330
L 943 327
L 944 343
L 945 340
L 947 330
L 948 345
L 949 327
L 951 348" style="stroke-width:1;stroke:rgba(217,0,116,1.0);fill:none"/><text x="397" y="33" style="stroke-width:0;stroke:none;fill:rgba(51,51,51,1.0);font-size:23.0px;font-family:'Roboto Medium',sans-serif">Österreich 22.01.2022</text><path  d="M 38 11
L 251 11
L 251 91
L 38 91
L 38 11" style="stroke-width:1;stroke:rgba(51,51,51,1.0);fill:rgba(255,255,255,1.0)"/><text x="43" y="26" style="stroke-width:0;stroke:none;fill:rgba(51,51,51,1.0);font-size:10.2px;font-family:'Roboto Medium',sans-serif">Sieben Tage Durschnitt Inzidenz Fälle</text><path  d="M 221 21
L 241 21" style="stroke-width:1;stroke:rgba(0,116,217,1.0);fill:none"/><text x="43" y="56" style="stroke-width:0;stroke:none;fill:rgba(51,51,51,1.0);font-size:10.2px;font-family:'Roboto Medium',sans-serif">Anzahl Faelle</text><path  d="M 110 51
L 241 51" style="stroke-width:1;stroke:rgba(0,217,101,1.0);fill:none"/><text x="43" y="86" style="stroke-width:0;stroke:none;fill:rgba(51,51,51,1.0);font-size:10.2px;font-family:'Roboto Medium',sans-serif">Anzahl Tot (-14 Tage)</text><path  d="M 148 81
L 241 81" style="stroke-width:1;stroke:rgba(217,0,116,1.0);fill:none"/></svg>