<svg xmlns="http://www.w3.org/2000/svg" xmlns:xlink="http://www.w3.org/1999/xlink" width="1024" height="400">\n<path  d="M 0 0
L 1024 0
L 1024 400
L 0 400
L 0 0" style="stroke-width:0;stroke:rgba(255,255,255,1.0);fill:rgba(255,255,255,1.0)"/><path  d="M 38 11
L 969 11
L 969 351
L 38 351
L 38 11" style="stroke-width:0;stroke:rgba(255,255,255,1.0);fill:rgba(255,255,255,1.0)"/><path  d="M 38 351
L 969 351" style="stroke-width:1;stroke:rgba(51,51,51,1.0);fill:none"/><path  d="M 38 351
L 38 356" style="stroke-width:1;stroke:rgba(51,51,51,1.0);fill:none"/><text x="5" y="373" style="stroke-width:0;stroke:none;fill:rgba(51,51,51,1.0);font-size:12.8px;font-family:'Roboto Medium',sans-serif">2020-02-26</text><path  d="M 155 351
L 155 356" style="stroke-width:1;stroke:rgba(51,51,51,1.0);fill:none"/><text x="122" y="373" style="stroke-width:0;stroke:none;fill:rgba(51,51,51,1.0);font-size:12.8px;font-family:'Roboto Medium',sans-serif">2020-03-31</text><path  d="M 271 351
L 271 356" style="stroke-width:1;stroke:rgba(51,51,51,1.0);fill:none"/><text x="238" y="373" style="stroke-width:0;stroke:none;fill:rgba(51,51,51,1.0);font-size:12.8px;font-family:'Roboto Medium',sans-serif">2020-05-04</text><path  d="M 388 351
L 388 356" style="stroke-width:1;stroke:rgba(51,51,51,1.0);fill:none"/><text x="355" y="373" style="stroke-width:0;stroke:none;fill:rgba(51,51,51,1.0);font-size:12.8px;font-family:'Roboto Medium',sans-serif">2020-06-07</text><path  d="M 504 351
L 504 356" style="stroke-width:1;stroke:rgba(51,51,51,1.0);fill:none"/><text x="471" y="373" style="stroke-width:0;stroke:none;fill:rgba(51,51,51,1.0);font-size:12.8px;font-family:'Roboto Medium',sans-serif">2020-07-12</text><path  d="M 620 351
L 620 356" style="stroke-width:1;stroke:rgba(51,51,51,1.0);fill:none"/><text x="587" y="373" style="stroke-width:0;stroke:none;fill:rgba(51,51,51,1.0);font-size:12.8px;font-family:'Roboto Medium',sans-serif">2020-08-15</text><path  d="M 737 351
L 737 356" style="stroke-width:1;stroke:rgba(51,51,51,1.0);fill:none"/><text x="704" y="373" style="stroke-width:0;stroke:none;fill:rgba(51,51,51,1.0);font-size:12.8px;font-family:'Roboto Medium',sans-serif">2020-09-18</text><path  d="M 853 351
L 853 356" style="stroke-width:1;stroke:rgba(51,51,51,1.0);fill:none"/><text x="820" y="373" style="stroke-width:0;stroke:none;fill:rgba(51,51,51,1.0);font-size:12.8px;font-family:'Roboto Medium',sans-serif">2020-10-22</text><path  d="M 969 351
L 969 356" style="stroke-width:1;stroke:rgba(51,51,51,1.0);fill:none"/><text x="936" y="373" style="stroke-width:0;stroke:none;fill:rgba(51,51,51,1.0);font-size:12.8px;font-family:'Roboto Medium',sans-serif">2020-11-26</text><text x="485" y="395" style="stroke-width:0;stroke:none;fill:rgba(51,51,51,1.0);font-size:12.8px;font-family:'Roboto Medium',sans-serif">Datum</text><path  d="M 970 351
L 970 11" style="stroke-width:1;stroke:rgba(51,51,51,1.0);fill:none"/><path  d="M 970 351
L 975 351" style="stroke-width:1;stroke:rgba(51,51,51,1.0);fill:none"/><text x="980" y="357" style="stroke-width:0;stroke:none;fill:rgba(51,51,51,1.0);font-size:12.8px;font-family:'Roboto Medium',sans-serif">0.00</text><path  d="M 970 308
L 975 308" style="stroke-width:1;stroke:rgba(51,51,51,1.0);fill:none"/><text x="980" y="314" style="stroke-width:0;stroke:none;fill:rgba(51,51,51,1.0);font-size:12.8px;font-family:'Roboto Medium',sans-serif">59.00</text><path  d="M 970 265
L 975 265" style="stroke-width:1;stroke:rgba(51,51,51,1.0);fill:none"/><text x="980" y="271" style="stroke-width:0;stroke:none;fill:rgba(51,51,51,1.0);font-size:12.8px;font-family:'Roboto Medium',sans-serif">118.00</text><path  d="M 970 222
L 975 222" style="stroke-width:1;stroke:rgba(51,51,51,1.0);fill:none"/><text x="980" y="228" style="stroke-width:0;stroke:none;fill:rgba(51,51,51,1.0);font-size:12.8px;font-family:'Roboto Medium',sans-serif">177.00</text><path  d="M 970 181
L 975 181" style="stroke-width:1;stroke:rgba(51,51,51,1.0);fill:none"/><text x="980" y="187" style="stroke-width:0;stroke:none;fill:rgba(51,51,51,1.0);font-size:12.8px;font-family:'Roboto Medium',sans-serif">235.00</text><path  d="M 970 138
L 975 138" style="stroke-width:1;stroke:rgba(51,51,51,1.0);fill:none"/><text x="980" y="144" style="stroke-width:0;stroke:none;fill:rgba(51,51,51,1.0);font-size:12.8px;font-family:'Roboto Medium',sans-serif">294.00</text><path  d="M 970 95
L 975 95" style="stroke-width:1;stroke:rgba(51,51,51,1.0);fill:none"/><text x="980" y="101" style="stroke-width:0;stroke:none;fill:rgba(51,51,51,1.0);font-size:12.8px;font-family:'Roboto Medium',sans-serif">353.00</text><path  d="M 970 52
L 975 52" style="stroke-width:1;stroke:rgba(51,51,51,1.0);fill:none"/><text x="980" y="58" style="stroke-width:0;stroke:none;fill:rgba(51,51,51,1.0);font-size:12.8px;font-family:'Roboto Medium',sans-serif">412.00</text><path  d="M 970 11
L 975 11" style="stroke-width:1;stroke:rgba(51,51,51,1.0);fill:none"/><text x="980" y="17" style="stroke-width:0;stroke:none;fill:rgba(51,51,51,1.0);font-size:12.8px;font-family:'Roboto Medium',sans-serif">470.00</text><path  d="M 38 351
L 42 351
L 45 351
L 49 351
L 52 351
L 55 351
L 59 351
L 62 351
L 66 351
L 69 351
L 72 351
L 76 351
L 79 351
L 83 351
L 86 351
L 89 351
L 93 348
L 96 348
L 100 348
L 103 346
L 106 342
L 110 339
L 113 333
L 117 335
L 120 326
L 123 317
L 127 304
L 130 304
L 134 304
L 137 300
L 140 300
L 144 306
L 147 313
L 151 320
L 154 306
L 157 309
L 161 320
L 164 313
L 168 315
L 171 317
L 174 324
L 178 339
L 181 339
L 185 339
L 188 346
L 191 337
L 195 333
L 198 333
L 202 335
L 205 333
L 208 333
L 212 333
L 215 342
L 219 346
L 222 348
L 225 348
L 229 351
L 232 351
L 236 351
L 239 351
L 242 351
L 246 351
L 249 351
L 253 351
L 256 351
L 259 351
L 263 351
L 266 351
L 270 351
L 273 351
L 276 351
L 280 351
L 283 351
L 287 351
L 290 351
L 293 351
L 297 351
L 300 351
L 304 348
L 307 348
L 310 348
L 314 348
L 317 348
L 321 348
L 324 348
L 327 351
L 331 351
L 334 351
L 338 351
L 341 351
L 344 351
L 348 351
L 351 351
L 354 351
L 358 351
L 361 351
L 365 351
L 368 351
L 371 351
L 375 351
L 378 351
L 382 351
L 385 351
L 388 351
L 392 351
L 395 351
L 399 351
L 402 351
L 405 351
L 409 351
L 412 351
L 416 351
L 419 351
L 422 351
L 426 351
L 429 351
L 433 351
L 436 351
L 439 351
L 443 351
L 446 351
L 450 351
L 453 351
L 456 351
L 460 351
L 463 351
L 467 351
L 470 351
L 473 351
L 477 351
L 480 351
L 484 351
L 487 351
L 490 351
L 494 351
L 497 351
L 501 351
L 504 351
L 507 351
L 511 351
L 514 351
L 518 351
L 521 351
L 524 351
L 528 348
L 531 348
L 535 337
L 538 337
L 541 337
L 545 337
L 548 337
L 552 337
L 555 337
L 558 348
L 562 348
L 565 348
L 569 348
L 572 348
L 575 351
L 579 351
L 582 351
L 586 351
L 589 351
L 592 351
L 596 351
L 599 351
L 603 351
L 606 351
L 609 351
L 613 351
L 616 351
L 620 351
L 623 351
L 626 351
L 630 346
L 633 337
L 637 335
L 640 333
L 643 333
L 647 333
L 650 333
L 654 337
L 657 346
L 660 342
L 664 344
L 667 342
L 670 342
L 674 331
L 677 331
L 681 331
L 684 337
L 687 335
L 691 331
L 694 311
L 698 317
L 701 317
L 704 313
L 708 311
L 711 311
L 715 309
L 718 328
L 721 328
L 725 326
L 728 328
L 732 328
L 735 320
L 738 317
L 742 317
L 745 322
L 749 324
L 752 324
L 755 326
L 759 335
L 762 346
L 766 346
L 769 344
L 772 344
L 776 346
L 779 346
L 783 348
L 786 348
L 789 348
L 793 348
L 796 346
L 800 344
L 803 339
L 806 337
L 810 333
L 813 328
L 817 331
L 820 328
L 823 328
L 827 333
L 830 333
L 834 324
L 837 304
L 840 295
L 844 295
L 847 291
L 851 276
L 854 249
L 857 260
L 861 284
L 864 289
L 868 284
L 871 245
L 874 245
L 878 254
L 881 245
L 885 172
L 888 113
L 891 69
L 895 86
L 898 44
L 902 22
L 905 16
L 908 44
L 912 73
L 915 84
L 919 35
L 922 66
L 925 69
L 929 64
L 932 69
L 936 75
L 939 55
L 942 119
L 946 75
L 949 115
L 953 99
L 956 119
L 959 106
L 963 130
L 966 91
L 969 148" style="stroke-width:1;stroke:rgba(0,116,217,1.0);fill:none"/><path  d="M 38 351
L 42 351
L 45 351
L 49 351
L 52 351
L 55 351
L 59 351
L 62 351
L 66 351
L 69 351
L 72 351
L 76 351
L 79 351
L 83 351
L 86 351
L 89 351
L 93 350
L 96 351
L 100 351
L 103 350
L 106 349
L 110 350
L 113 348
L 117 351
L 120 348
L 123 348
L 127 345
L 130 349
L 134 350
L 137 347
L 140 351
L 144 350
L 147 350
L 151 348
L 154 345
L 157 351
L 161 351
L 164 348
L 168 351
L 171 351
L 174 350
L 178 350
L 181 351
L 185 351
L 188 351
L 191 348
L 195 349
L 198 350
L 202 351
L 205 350
L 208 351
L 212 351
L 215 351
L 219 351
L 222 351
L 225 351
L 229 351
L 232 351
L 236 351
L 239 351
L 242 351
L 246 351
L 249 351
L 253 351
L 256 351
L 259 351
L 263 351
L 266 351
L 270 351
L 273 351
L 276 351
L 280 351
L 283 351
L 287 351
L 290 351
L 293 351
L 297 351
L 300 351
L 304 350
L 307 351
L 310 351
L 314 351
L 317 351
L 321 351
L 324 351
L 327 351
L 331 351
L 334 351
L 338 351
L 341 351
L 344 351
L 348 351
L 351 351
L 354 351
L 358 351
L 361 351
L 365 351
L 368 351
L 371 351
L 375 351
L 378 351
L 382 351
L 385 351
L 388 351
L 392 351
L 395 351
L 399 351
L 402 351
L 405 351
L 409 351
L 412 351
L 416 351
L 419 351
L 422 351
L 426 351
L 429 351
L 433 351
L 436 351
L 439 351
L 443 351
L 446 351
L 450 351
L 453 351
L 456 351
L 460 351
L 463 351
L 467 351
L 470 351
L 473 351
L 477 351
L 480 351
L 484 351
L 487 351
L 490 351
L 494 351
L 497 351
L 501 351
L 504 351
L 507 351
L 511 351
L 514 351
L 518 351
L 521 351
L 524 351
L 528 350
L 531 351
L 535 347
L 538 351
L 541 351
L 545 351
L 548 351
L 552 350
L 555 351
L 558 351
L 562 351
L 565 351
L 569 351
L 572 351
L 575 351
L 579 351
L 582 351
L 586 351
L 589 351
L 592 351
L 596 351
L 599 351
L 603 351
L 606 351
L 609 351
L 613 351
L 616 351
L 620 351
L 623 351
L 626 351
L 630 349
L 633 348
L 637 350
L 640 350
L 643 351
L 647 351
L 650 351
L 654 351
L 657 351
L 660 348
L 664 351
L 667 350
L 670 351
L 674 347
L 677 351
L 681 351
L 684 351
L 687 350
L 691 348
L 694 344
L 698 349
L 701 351
L 704 349
L 708 350
L 711 350
L 715 348
L 718 351
L 721 349
L 725 350
L 728 350
L 732 350
L 735 347
L 738 347
L 742 351
L 745 351
L 749 351
L 752 350
L 755 351
L 759 350
L 762 351
L 766 351
L 769 350
L 772 351
L 776 351
L 779 351
L 783 351
L 786 351
L 789 351
L 793 350
L 796 350
L 800 350
L 803 349
L 806 350
L 810 349
L 813 349
L 817 351
L 820 349
L 823 350
L 827 351
L 830 350
L 834 346
L 837 343
L 840 348
L 844 349
L 847 348
L 851 345
L 854 341
L 857 350
L 861 351
L 864 349
L 868 348
L 871 335
L 874 345
L 878 344
L 881 347
L 885 327
L 888 330
L 891 333
L 895 341
L 898 332
L 902 337
L 905 345
L 908 336
L 912 339
L 915 337
L 919 325
L 922 342
L 925 337
L 929 343
L 932 337
L 936 341
L 939 330
L 942 346
L 946 327
L 949 351
L 953 338
L 956 344
L 959 337
L 963 338
L 966 333
L 969 346" style="stroke-width:1;stroke:rgba(0,217,101,1.0);fill:none"/><path  d="M 38 351
L 42 351
L 45 351
L 49 351
L 52 351
L 55 351
L 59 351
L 62 351
L 66 351
L 69 351
L 72 351
L 76 351
L 79 351
L 83 351
L 86 351
L 89 351
L 93 351
L 96 351
L 100 351
L 103 351
L 106 351
L 110 351
L 113 351
L 117 351
L 120 351
L 123 351
L 127 351
L 130 351
L 134 351
L 137 351
L 140 351
L 144 351
L 147 351
L 151 351
L 154 351
L 157 351
L 161 351
L 164 351
L 168 351
L 171 351
L 174 351
L 178 351
L 181 351
L 185 351
L 188 351
L 191 350
L 195 351
L 198 351
L 202 351
L 205 351
L 208 351
L 212 351
L 215 351
L 219 351
L 222 351
L 225 351
L 229 351
L 232 351
L 236 351
L 239 351
L 242 351
L 246 351
L 249 351
L 253 351
L 256 351
L 259 351
L 263 351
L 266 351
L 270 351
L 273 351
L 276 351
L 280 351
L 283 351
L 287 351
L 290 351
L 293 351
L 297 351
L 300 351
L 304 351
L 307 351
L 310 351
L 314 351
L 317 351
L 321 351
L 324 351
L 327 351
L 331 351
L 334 351
L 338 351
L 341 351
L 344 351
L 348 351
L 351 351
L 354 351
L 358 351
L 361 351
L 365 351
L 368 351
L 371 351
L 375 351
L 378 351
L 382 351
L 385 351
L 388 351
L 392 351
L 395 351
L 399 351
L 402 351
L 405 351
L 409 351
L 412 351
L 416 351
L 419 351
L 422 351
L 426 351
L 429 351
L 433 351
L 436 351
L 439 351
L 443 351
L 446 351
L 450 351
L 453 351
L 456 351
L 460 351
L 463 351
L 467 351
L 470 351
L 473 351
L 477 351
L 480 351
L 484 351
L 487 351
L 490 351
L 494 351
L 497 351
L 501 351
L 504 351
L 507 351
L 511 351
L 514 351
L 518 351
L 521 351
L 524 351
L 528 351
L 531 351
L 535 351
L 538 351
L 541 351
L 545 351
L 548 351
L 552 351
L 555 351
L 558 351
L 562 351
L 565 351
L 569 351
L 572 351
L 575 351
L 579 351
L 582 351
L 586 351
L 589 351
L 592 351
L 596 351
L 599 351
L 603 351
L 606 351
L 609 351
L 613 351
L 616 351
L 620 351
L 623 351
L 626 351
L 630 351
L 633 351
L 637 351
L 640 351
L 643 351
L 647 351
L 650 351
L 654 351
L 657 351
L 660 351
L 664 351
L 667 351
L 670 351
L 674 351
L 677 351
L 681 351
L 684 351
L 687 351
L 691 351
L 694 351
L 698 351
L 701 351
L 704 351
L 708 351
L 711 351
L 715 351
L 718 351
L 721 351
L 725 351
L 728 351
L 732 351
L 735 351
L 738 351
L 742 351
L 745 351
L 749 351
L 752 351
L 755 351
L 759 351
L 762 351
L 766 351
L 769 351
L 772 351
L 776 351
L 779 351
L 783 351
L 786 351
L 789 351
L 793 351
L 796 351
L 800 351
L 803 351
L 806 351
L 810 351
L 813 351
L 817 351
L 820 351
L 823 351
L 827 351
L 830 351
L 834 351
L 837 351
L 840 351
L 844 351
L 847 351
L 851 351
L 854 351
L 857 351
L 861 351
L 864 351
L 868 351
L 871 351
L 874 351
L 878 351
L 881 351
L 885 351
L 888 351
L 891 351
L 895 350
L 898 351
L 902 351
L 905 351
L 908 351
L 912 351
L 915 351
L 919 351
L 922 351
L 925 351
L 929 351
L 932 351
L 936 351
L 939 351
L 942 351
L 946 351
L 949 351
L 953 351
L 956 351
L 959 351
L 963 351
L 966 351
L 969 351" style="stroke-width:1;stroke:rgba(217,0,116,1.0);fill:none"/><text x="417" y="33" style="stroke-width:0;stroke:none;fill:rgba(51,51,51,1.0);font-size:23.0px;font-family:'Roboto Medium',sans-serif">Reutte 26.11.2020</text><path  d="M 38 11
L 251 11
L 251 91
L 38 91
L 38 11" style="stroke-width:1;stroke:rgba(51,51,51,1.0);fill:rgba(255,255,255,1.0)"/><text x="43" y="26" style="stroke-width:0;stroke:none;fill:rgba(51,51,51,1.0);font-size:10.2px;font-family:'Roboto Medium',sans-serif">Sieben Tage Durschnitt Inzidenz Fälle</text><path  d="M 221 21
L 241 21" style="stroke-width:1;stroke:rgba(0,116,217,1.0);fill:none"/><text x="43" y="56" style="stroke-width:0;stroke:none;fill:rgba(51,51,51,1.0);font-size:10.2px;font-family:'Roboto Medium',sans-serif">Anzahl Faelle</text><path  d="M 110 51
L 241 51" style="stroke-width:1;stroke:rgba(0,217,101,1.0);fill:none"/><text x="43" y="86" style="stroke-width:0;stroke:none;fill:rgba(51,51,51,1.0);font-size:10.2px;font-family:'Roboto Medium',sans-serif">Anzahl Tot</text><path  d="M 98 81
L 241 81" style="stroke-width:1;stroke:rgba(217,0,116,1.0);fill:none"/></svg>