<svg xmlns="http://www.w3.org/2000/svg" xmlns:xlink="http://www.w3.org/1999/xlink" width="1024" height="400">\n<path  d="M 0 0
L 1024 0
L 1024 400
L 0 400
L 0 0" style="stroke-width:0;stroke:rgba(255,255,255,1.0);fill:rgba(255,255,255,1.0)"/><path  d="M 38 11
L 969 11
L 969 351
L 38 351
L 38 11" style="stroke-width:0;stroke:rgba(255,255,255,1.0);fill:rgba(255,255,255,1.0)"/><path  d="M 38 351
L 969 351" style="stroke-width:1;stroke:rgba(51,51,51,1.0);fill:none"/><path  d="M 38 351
L 38 356" style="stroke-width:1;stroke:rgba(51,51,51,1.0);fill:none"/><text x="5" y="373" style="stroke-width:0;stroke:none;fill:rgba(51,51,51,1.0);font-size:12.8px;font-family:'Roboto Medium',sans-serif">2020-02-26</text><path  d="M 155 351
L 155 356" style="stroke-width:1;stroke:rgba(51,51,51,1.0);fill:none"/><text x="122" y="373" style="stroke-width:0;stroke:none;fill:rgba(51,51,51,1.0);font-size:12.8px;font-family:'Roboto Medium',sans-serif">2020-04-16</text><path  d="M 271 351
L 271 356" style="stroke-width:1;stroke:rgba(51,51,51,1.0);fill:none"/><text x="238" y="373" style="stroke-width:0;stroke:none;fill:rgba(51,51,51,1.0);font-size:12.8px;font-family:'Roboto Medium',sans-serif">2020-06-06</text><path  d="M 388 351
L 388 356" style="stroke-width:1;stroke:rgba(51,51,51,1.0);fill:none"/><text x="355" y="373" style="stroke-width:0;stroke:none;fill:rgba(51,51,51,1.0);font-size:12.8px;font-family:'Roboto Medium',sans-serif">2020-07-26</text><path  d="M 504 351
L 504 356" style="stroke-width:1;stroke:rgba(51,51,51,1.0);fill:none"/><text x="471" y="373" style="stroke-width:0;stroke:none;fill:rgba(51,51,51,1.0);font-size:12.8px;font-family:'Roboto Medium',sans-serif">2020-09-15</text><path  d="M 620 351
L 620 356" style="stroke-width:1;stroke:rgba(51,51,51,1.0);fill:none"/><text x="587" y="373" style="stroke-width:0;stroke:none;fill:rgba(51,51,51,1.0);font-size:12.8px;font-family:'Roboto Medium',sans-serif">2020-11-05</text><path  d="M 737 351
L 737 356" style="stroke-width:1;stroke:rgba(51,51,51,1.0);fill:none"/><text x="704" y="373" style="stroke-width:0;stroke:none;fill:rgba(51,51,51,1.0);font-size:12.8px;font-family:'Roboto Medium',sans-serif">2020-12-25</text><path  d="M 853 351
L 853 356" style="stroke-width:1;stroke:rgba(51,51,51,1.0);fill:none"/><text x="820" y="373" style="stroke-width:0;stroke:none;fill:rgba(51,51,51,1.0);font-size:12.8px;font-family:'Roboto Medium',sans-serif">2021-02-14</text><path  d="M 969 351
L 969 356" style="stroke-width:1;stroke:rgba(51,51,51,1.0);fill:none"/><text x="936" y="373" style="stroke-width:0;stroke:none;fill:rgba(51,51,51,1.0);font-size:12.8px;font-family:'Roboto Medium',sans-serif">2021-04-06</text><text x="485" y="395" style="stroke-width:0;stroke:none;fill:rgba(51,51,51,1.0);font-size:12.8px;font-family:'Roboto Medium',sans-serif">Datum</text><path  d="M 970 351
L 970 11" style="stroke-width:1;stroke:rgba(51,51,51,1.0);fill:none"/><path  d="M 970 351
L 975 351" style="stroke-width:1;stroke:rgba(51,51,51,1.0);fill:none"/><text x="980" y="357" style="stroke-width:0;stroke:none;fill:rgba(51,51,51,1.0);font-size:12.8px;font-family:'Roboto Medium',sans-serif">0.00</text><path  d="M 970 308
L 975 308" style="stroke-width:1;stroke:rgba(51,51,51,1.0);fill:none"/><text x="980" y="314" style="stroke-width:0;stroke:none;fill:rgba(51,51,51,1.0);font-size:12.8px;font-family:'Roboto Medium',sans-serif">59.00</text><path  d="M 970 265
L 975 265" style="stroke-width:1;stroke:rgba(51,51,51,1.0);fill:none"/><text x="980" y="271" style="stroke-width:0;stroke:none;fill:rgba(51,51,51,1.0);font-size:12.8px;font-family:'Roboto Medium',sans-serif">118.00</text><path  d="M 970 222
L 975 222" style="stroke-width:1;stroke:rgba(51,51,51,1.0);fill:none"/><text x="980" y="228" style="stroke-width:0;stroke:none;fill:rgba(51,51,51,1.0);font-size:12.8px;font-family:'Roboto Medium',sans-serif">177.00</text><path  d="M 970 181
L 975 181" style="stroke-width:1;stroke:rgba(51,51,51,1.0);fill:none"/><text x="980" y="187" style="stroke-width:0;stroke:none;fill:rgba(51,51,51,1.0);font-size:12.8px;font-family:'Roboto Medium',sans-serif">235.00</text><path  d="M 970 138
L 975 138" style="stroke-width:1;stroke:rgba(51,51,51,1.0);fill:none"/><text x="980" y="144" style="stroke-width:0;stroke:none;fill:rgba(51,51,51,1.0);font-size:12.8px;font-family:'Roboto Medium',sans-serif">294.00</text><path  d="M 970 95
L 975 95" style="stroke-width:1;stroke:rgba(51,51,51,1.0);fill:none"/><text x="980" y="101" style="stroke-width:0;stroke:none;fill:rgba(51,51,51,1.0);font-size:12.8px;font-family:'Roboto Medium',sans-serif">353.00</text><path  d="M 970 52
L 975 52" style="stroke-width:1;stroke:rgba(51,51,51,1.0);fill:none"/><text x="980" y="58" style="stroke-width:0;stroke:none;fill:rgba(51,51,51,1.0);font-size:12.8px;font-family:'Roboto Medium',sans-serif">412.00</text><path  d="M 970 11
L 975 11" style="stroke-width:1;stroke:rgba(51,51,51,1.0);fill:none"/><text x="980" y="17" style="stroke-width:0;stroke:none;fill:rgba(51,51,51,1.0);font-size:12.8px;font-family:'Roboto Medium',sans-serif">470.00</text><path  d="M 38 351
L 41 351
L 43 351
L 45 351
L 48 351
L 50 351
L 52 351
L 55 351
L 57 351
L 59 351
L 61 351
L 64 351
L 66 351
L 68 351
L 71 351
L 73 351
L 75 348
L 78 348
L 80 348
L 82 346
L 84 342
L 87 339
L 89 333
L 91 335
L 94 326
L 96 317
L 98 304
L 101 304
L 103 304
L 105 300
L 107 300
L 110 306
L 112 313
L 114 320
L 117 306
L 119 309
L 121 320
L 124 313
L 126 315
L 128 317
L 130 324
L 133 339
L 135 339
L 137 339
L 140 346
L 142 337
L 144 333
L 147 333
L 149 335
L 151 333
L 153 333
L 156 333
L 158 342
L 160 346
L 163 348
L 165 348
L 167 351
L 170 351
L 172 351
L 174 351
L 176 351
L 179 351
L 181 351
L 183 351
L 186 351
L 188 351
L 190 351
L 193 351
L 195 351
L 197 351
L 199 351
L 202 351
L 204 351
L 206 351
L 209 351
L 211 351
L 213 351
L 216 351
L 218 348
L 220 348
L 222 348
L 225 348
L 227 348
L 229 348
L 232 348
L 234 351
L 236 351
L 238 351
L 241 351
L 243 351
L 245 351
L 248 351
L 250 351
L 252 351
L 255 351
L 257 351
L 259 351
L 261 351
L 264 351
L 266 351
L 268 351
L 271 351
L 273 351
L 275 351
L 278 351
L 280 351
L 282 351
L 284 351
L 287 351
L 289 351
L 291 351
L 294 351
L 296 351
L 298 351
L 301 351
L 303 351
L 305 351
L 307 351
L 310 351
L 312 351
L 314 351
L 317 351
L 319 351
L 321 351
L 324 351
L 326 351
L 328 351
L 330 351
L 333 351
L 335 351
L 337 351
L 340 351
L 342 351
L 344 351
L 347 351
L 349 351
L 351 351
L 353 351
L 356 351
L 358 351
L 360 351
L 363 351
L 365 351
L 367 351
L 370 348
L 372 348
L 374 337
L 376 337
L 379 337
L 381 337
L 383 337
L 386 337
L 388 337
L 390 348
L 393 348
L 395 348
L 397 348
L 399 348
L 402 351
L 404 351
L 406 351
L 409 351
L 411 351
L 413 351
L 415 351
L 418 351
L 420 351
L 422 351
L 425 351
L 427 351
L 429 351
L 432 351
L 434 351
L 436 351
L 438 346
L 441 337
L 443 335
L 445 333
L 448 333
L 450 333
L 452 331
L 455 335
L 457 344
L 459 339
L 461 342
L 464 339
L 466 339
L 468 331
L 471 331
L 473 331
L 475 337
L 478 335
L 480 331
L 482 311
L 484 317
L 487 317
L 489 315
L 491 313
L 494 313
L 496 311
L 498 331
L 501 331
L 503 328
L 505 328
L 507 328
L 510 320
L 512 317
L 514 317
L 517 322
L 519 324
L 521 324
L 524 326
L 526 335
L 528 346
L 530 346
L 533 344
L 535 344
L 537 346
L 540 346
L 542 348
L 544 348
L 547 348
L 549 351
L 551 348
L 553 346
L 556 342
L 558 339
L 560 335
L 563 331
L 565 331
L 567 328
L 570 328
L 572 333
L 574 333
L 576 324
L 579 304
L 581 295
L 583 295
L 586 291
L 588 273
L 590 247
L 593 258
L 595 280
L 597 284
L 599 280
L 602 236
L 604 236
L 606 240
L 609 232
L 611 161
L 613 99
L 615 58
L 618 77
L 620 38
L 622 18
L 625 16
L 627 44
L 629 75
L 632 84
L 634 38
L 636 69
L 638 73
L 641 62
L 643 64
L 645 73
L 648 53
L 650 117
L 652 73
L 655 110
L 657 97
L 659 119
L 661 102
L 664 126
L 666 80
L 668 110
L 671 91
L 673 110
L 675 121
L 678 141
L 680 163
L 682 205
L 684 245
L 687 260
L 689 249
L 691 221
L 694 227
L 696 218
L 698 225
L 701 207
L 703 203
L 705 225
L 707 256
L 710 271
L 712 276
L 714 267
L 717 260
L 719 265
L 721 262
L 724 265
L 726 249
L 728 258
L 730 260
L 733 265
L 735 260
L 737 262
L 740 256
L 742 258
L 744 232
L 747 238
L 749 245
L 751 240
L 753 227
L 756 225
L 758 218
L 760 249
L 763 238
L 765 240
L 767 194
L 770 176
L 772 168
L 774 176
L 776 154
L 779 163
L 781 154
L 783 203
L 786 229
L 788 251
L 790 251
L 792 267
L 795 273
L 797 271
L 799 280
L 802 289
L 804 267
L 806 269
L 809 276
L 811 256
L 813 271
L 815 238
L 818 236
L 820 216
L 822 212
L 825 198
L 827 194
L 829 190
L 832 218
L 834 223
L 836 260
L 838 251
L 841 249
L 843 265
L 845 265
L 848 271
L 850 256
L 852 216
L 855 240
L 857 234
L 859 223
L 861 218
L 864 216
L 866 227
L 868 267
L 871 256
L 873 260
L 875 271
L 878 280
L 880 278
L 882 269
L 884 269
L 887 278
L 889 291
L 891 304
L 894 304
L 896 311
L 898 324
L 901 328
L 903 331
L 905 339
L 907 339
L 910 342
L 912 339
L 914 337
L 917 335
L 919 326
L 921 315
L 924 309
L 926 302
L 928 278
L 930 265
L 933 247
L 935 254
L 937 245
L 940 234
L 942 210
L 944 210
L 947 207
L 949 214
L 951 194
L 953 203
L 956 207
L 958 223
L 960 225
L 963 227
L 965 229
L 967 240
L 969 238" style="stroke-width:1;stroke:rgba(0,116,217,1.0);fill:none"/><path  d="M 38 351
L 41 351
L 43 351
L 45 351
L 48 351
L 50 351
L 52 351
L 55 351
L 57 351
L 59 351
L 61 351
L 64 351
L 66 351
L 68 351
L 71 351
L 73 351
L 75 350
L 78 351
L 80 351
L 82 350
L 84 349
L 87 350
L 89 348
L 91 351
L 94 348
L 96 348
L 98 345
L 101 349
L 103 350
L 105 347
L 107 351
L 110 350
L 112 350
L 114 348
L 117 345
L 119 351
L 121 351
L 124 348
L 126 351
L 128 351
L 130 350
L 133 350
L 135 351
L 137 351
L 140 351
L 142 348
L 144 349
L 147 350
L 149 351
L 151 350
L 153 351
L 156 351
L 158 351
L 160 351
L 163 351
L 165 351
L 167 351
L 170 351
L 172 351
L 174 351
L 176 351
L 179 351
L 181 351
L 183 351
L 186 351
L 188 351
L 190 351
L 193 351
L 195 351
L 197 351
L 199 351
L 202 351
L 204 351
L 206 351
L 209 351
L 211 351
L 213 351
L 216 351
L 218 350
L 220 351
L 222 351
L 225 351
L 227 351
L 229 351
L 232 351
L 234 351
L 236 351
L 238 351
L 241 351
L 243 351
L 245 351
L 248 351
L 250 351
L 252 351
L 255 351
L 257 351
L 259 351
L 261 351
L 264 351
L 266 351
L 268 351
L 271 351
L 273 351
L 275 351
L 278 351
L 280 351
L 282 351
L 284 351
L 287 351
L 289 351
L 291 351
L 294 351
L 296 351
L 298 351
L 301 351
L 303 351
L 305 351
L 307 351
L 310 351
L 312 351
L 314 351
L 317 351
L 319 351
L 321 351
L 324 351
L 326 351
L 328 351
L 330 351
L 333 351
L 335 351
L 337 351
L 340 351
L 342 351
L 344 351
L 347 351
L 349 351
L 351 351
L 353 351
L 356 351
L 358 351
L 360 351
L 363 351
L 365 351
L 367 351
L 370 350
L 372 351
L 374 347
L 376 351
L 379 351
L 381 351
L 383 351
L 386 350
L 388 351
L 390 351
L 393 351
L 395 351
L 397 351
L 399 351
L 402 351
L 404 351
L 406 351
L 409 351
L 411 351
L 413 351
L 415 351
L 418 351
L 420 351
L 422 351
L 425 351
L 427 351
L 429 351
L 432 351
L 434 351
L 436 351
L 438 349
L 441 348
L 443 350
L 445 350
L 448 351
L 450 351
L 452 350
L 455 351
L 457 351
L 459 348
L 461 351
L 464 350
L 466 351
L 468 347
L 471 351
L 473 351
L 475 351
L 478 350
L 480 348
L 482 344
L 484 349
L 487 351
L 489 350
L 491 350
L 494 350
L 496 348
L 498 351
L 501 349
L 503 350
L 505 350
L 507 350
L 510 347
L 512 347
L 514 351
L 517 351
L 519 351
L 521 350
L 524 351
L 526 350
L 528 351
L 530 351
L 533 350
L 535 351
L 537 351
L 540 351
L 542 351
L 544 351
L 547 351
L 549 351
L 551 350
L 553 350
L 556 349
L 558 350
L 560 349
L 563 349
L 565 351
L 567 349
L 570 350
L 572 351
L 574 350
L 576 346
L 579 343
L 581 348
L 583 349
L 586 348
L 588 345
L 590 341
L 593 350
L 595 350
L 597 349
L 599 348
L 602 334
L 604 345
L 606 343
L 609 347
L 611 327
L 613 329
L 615 334
L 618 340
L 620 332
L 622 336
L 625 346
L 627 336
L 629 339
L 632 337
L 634 325
L 636 342
L 638 337
L 641 343
L 643 337
L 645 342
L 648 330
L 650 346
L 652 327
L 655 350
L 657 338
L 659 344
L 661 336
L 664 338
L 666 331
L 668 337
L 671 343
L 673 345
L 675 348
L 678 343
L 680 345
L 682 345
L 684 351
L 687 348
L 689 341
L 691 338
L 694 345
L 696 343
L 698 347
L 701 345
L 703 347
L 705 348
L 707 348
L 710 350
L 712 344
L 714 344
L 717 343
L 719 348
L 721 348
L 724 349
L 726 345
L 728 347
L 730 345
L 733 344
L 735 347
L 737 348
L 740 347
L 742 345
L 744 338
L 747 347
L 749 346
L 751 345
L 753 344
L 756 346
L 758 343
L 760 348
L 763 343
L 765 347
L 767 330
L 770 338
L 772 343
L 774 346
L 776 341
L 779 346
L 781 344
L 783 346
L 786 347
L 788 351
L 790 346
L 792 346
L 795 348
L 797 343
L 799 349
L 802 350
L 804 343
L 806 347
L 809 348
L 811 342
L 813 348
L 815 338
L 818 349
L 820 337
L 822 345
L 825 344
L 827 340
L 829 347
L 832 348
L 834 351
L 836 349
L 838 343
L 841 343
L 843 345
L 845 347
L 848 350
L 850 345
L 852 336
L 855 351
L 857 341
L 859 342
L 861 345
L 864 349
L 866 349
L 868 349
L 871 347
L 873 343
L 875 345
L 878 348
L 880 348
L 882 346
L 884 349
L 887 350
L 889 347
L 891 350
L 894 348
L 896 351
L 898 351
L 901 351
L 903 351
L 905 350
L 907 350
L 910 349
L 912 350
L 914 350
L 917 350
L 919 348
L 921 346
L 924 348
L 926 347
L 928 342
L 930 345
L 933 344
L 935 350
L 937 343
L 940 344
L 942 339
L 944 342
L 947 345
L 949 346
L 951 343
L 953 346
L 956 345
L 958 344
L 960 343
L 963 345
L 965 347
L 967 347
L 969 345" style="stroke-width:1;stroke:rgba(0,217,101,1.0);fill:none"/><path  d="M 38 351
L 41 351
L 43 351
L 45 351
L 48 351
L 50 351
L 52 351
L 55 351
L 57 351
L 59 351
L 61 351
L 64 351
L 66 351
L 68 351
L 71 351
L 73 351
L 75 351
L 78 351
L 80 351
L 82 351
L 84 351
L 87 351
L 89 351
L 91 351
L 94 351
L 96 351
L 98 351
L 101 351
L 103 351
L 105 351
L 107 351
L 110 351
L 112 351
L 114 351
L 117 351
L 119 351
L 121 351
L 124 351
L 126 351
L 128 351
L 130 351
L 133 351
L 135 351
L 137 351
L 140 351
L 142 350
L 144 351
L 147 351
L 149 351
L 151 351
L 153 351
L 156 351
L 158 351
L 160 351
L 163 351
L 165 351
L 167 351
L 170 351
L 172 351
L 174 351
L 176 351
L 179 351
L 181 351
L 183 351
L 186 351
L 188 351
L 190 351
L 193 351
L 195 351
L 197 351
L 199 351
L 202 351
L 204 351
L 206 351
L 209 351
L 211 351
L 213 351
L 216 351
L 218 351
L 220 351
L 222 351
L 225 351
L 227 351
L 229 351
L 232 351
L 234 351
L 236 351
L 238 351
L 241 351
L 243 351
L 245 351
L 248 351
L 250 351
L 252 351
L 255 351
L 257 351
L 259 351
L 261 351
L 264 351
L 266 351
L 268 351
L 271 351
L 273 351
L 275 351
L 278 351
L 280 351
L 282 351
L 284 351
L 287 351
L 289 351
L 291 351
L 294 351
L 296 351
L 298 351
L 301 351
L 303 351
L 305 351
L 307 351
L 310 351
L 312 351
L 314 351
L 317 351
L 319 351
L 321 351
L 324 351
L 326 351
L 328 351
L 330 351
L 333 351
L 335 351
L 337 351
L 340 351
L 342 351
L 344 351
L 347 351
L 349 351
L 351 351
L 353 351
L 356 351
L 358 351
L 360 351
L 363 351
L 365 351
L 367 351
L 370 351
L 372 351
L 374 351
L 376 351
L 379 351
L 381 351
L 383 351
L 386 351
L 388 351
L 390 351
L 393 351
L 395 351
L 397 351
L 399 351
L 402 351
L 404 351
L 406 351
L 409 351
L 411 351
L 413 351
L 415 351
L 418 351
L 420 351
L 422 351
L 425 351
L 427 351
L 429 351
L 432 351
L 434 351
L 436 351
L 438 351
L 441 351
L 443 351
L 445 351
L 448 351
L 450 351
L 452 351
L 455 351
L 457 351
L 459 351
L 461 351
L 464 351
L 466 351
L 468 351
L 471 351
L 473 351
L 475 351
L 478 351
L 480 351
L 482 351
L 484 351
L 487 351
L 489 351
L 491 351
L 494 351
L 496 351
L 498 351
L 501 351
L 503 351
L 505 351
L 507 351
L 510 351
L 512 351
L 514 351
L 517 351
L 519 351
L 521 351
L 524 351
L 526 351
L 528 351
L 530 351
L 533 351
L 535 351
L 537 351
L 540 351
L 542 351
L 544 351
L 547 351
L 549 351
L 551 351
L 553 351
L 556 351
L 558 351
L 560 351
L 563 351
L 565 351
L 567 351
L 570 351
L 572 351
L 574 351
L 576 351
L 579 351
L 581 351
L 583 351
L 586 351
L 588 351
L 590 351
L 593 351
L 595 351
L 597 351
L 599 351
L 602 351
L 604 351
L 606 351
L 609 351
L 611 351
L 613 351
L 615 351
L 618 350
L 620 351
L 622 351
L 625 351
L 627 351
L 629 351
L 632 351
L 634 351
L 636 351
L 638 351
L 641 351
L 643 351
L 645 351
L 648 351
L 650 351
L 652 351
L 655 351
L 657 351
L 659 351
L 661 351
L 664 351
L 666 351
L 668 351
L 671 351
L 673 350
L 675 351
L 678 351
L 680 351
L 682 351
L 684 351
L 687 351
L 689 351
L 691 351
L 694 351
L 696 351
L 698 351
L 701 351
L 703 351
L 705 351
L 707 351
L 710 351
L 712 351
L 714 351
L 717 351
L 719 351
L 721 351
L 724 351
L 726 351
L 728 351
L 730 351
L 733 351
L 735 351
L 737 351
L 740 351
L 742 351
L 744 351
L 747 351
L 749 351
L 751 351
L 753 351
L 756 351
L 758 351
L 760 351
L 763 351
L 765 351
L 767 351
L 770 351
L 772 351
L 774 350
L 776 351
L 779 351
L 781 351
L 783 351
L 786 350
L 788 351
L 790 351
L 792 351
L 795 351
L 797 351
L 799 351
L 802 351
L 804 351
L 806 351
L 809 351
L 811 351
L 813 351
L 815 351
L 818 351
L 820 351
L 822 351
L 825 351
L 827 351
L 829 351
L 832 351
L 834 351
L 836 351
L 838 351
L 841 351
L 843 351
L 845 351
L 848 351
L 850 351
L 852 351
L 855 351
L 857 351
L 859 351
L 861 351
L 864 351
L 866 351
L 868 351
L 871 351
L 873 351
L 875 351
L 878 351
L 880 351
L 882 351
L 884 351
L 887 351
L 889 351
L 891 351
L 894 351
L 896 351
L 898 351
L 901 351
L 903 351
L 905 351
L 907 351
L 910 351
L 912 351
L 914 351
L 917 351
L 919 351
L 921 351
L 924 351
L 926 351
L 928 351
L 930 351
L 933 351
L 935 351
L 937 351
L 940 351
L 942 351
L 944 351
L 947 351
L 949 351
L 951 351
L 953 351
L 956 351
L 958 351
L 960 351
L 963 351
L 965 351
L 967 351
L 969 351" style="stroke-width:1;stroke:rgba(217,0,116,1.0);fill:none"/><text x="417" y="33" style="stroke-width:0;stroke:none;fill:rgba(51,51,51,1.0);font-size:23.0px;font-family:'Roboto Medium',sans-serif">Reutte 06.04.2021</text><path  d="M 38 11
L 251 11
L 251 91
L 38 91
L 38 11" style="stroke-width:1;stroke:rgba(51,51,51,1.0);fill:rgba(255,255,255,1.0)"/><text x="43" y="26" style="stroke-width:0;stroke:none;fill:rgba(51,51,51,1.0);font-size:10.2px;font-family:'Roboto Medium',sans-serif">Sieben Tage Durschnitt Inzidenz Fälle</text><path  d="M 221 21
L 241 21" style="stroke-width:1;stroke:rgba(0,116,217,1.0);fill:none"/><text x="43" y="56" style="stroke-width:0;stroke:none;fill:rgba(51,51,51,1.0);font-size:10.2px;font-family:'Roboto Medium',sans-serif">Anzahl Faelle</text><path  d="M 110 51
L 241 51" style="stroke-width:1;stroke:rgba(0,217,101,1.0);fill:none"/><text x="43" y="86" style="stroke-width:0;stroke:none;fill:rgba(51,51,51,1.0);font-size:10.2px;font-family:'Roboto Medium',sans-serif">Anzahl Tot</text><path  d="M 98 81
L 241 81" style="stroke-width:1;stroke:rgba(217,0,116,1.0);fill:none"/></svg>