<svg xmlns="http://www.w3.org/2000/svg" xmlns:xlink="http://www.w3.org/1999/xlink" width="1024" height="400">\n<path  d="M 0 0
L 1024 0
L 1024 400
L 0 400
L 0 0" style="stroke-width:0;stroke:rgba(255,255,255,1.0);fill:rgba(255,255,255,1.0)"/><path  d="M 38 11
L 961 11
L 961 351
L 38 351
L 38 11" style="stroke-width:0;stroke:rgba(255,255,255,1.0);fill:rgba(255,255,255,1.0)"/><path  d="M 38 351
L 961 351" style="stroke-width:1;stroke:rgba(51,51,51,1.0);fill:none"/><path  d="M 38 351
L 38 356" style="stroke-width:1;stroke:rgba(51,51,51,1.0);fill:none"/><text x="5" y="373" style="stroke-width:0;stroke:none;fill:rgba(51,51,51,1.0);font-size:12.8px;font-family:'Roboto Medium',sans-serif">2020-02-26</text><path  d="M 154 351
L 154 356" style="stroke-width:1;stroke:rgba(51,51,51,1.0);fill:none"/><text x="121" y="373" style="stroke-width:0;stroke:none;fill:rgba(51,51,51,1.0);font-size:12.8px;font-family:'Roboto Medium',sans-serif">2020-06-02</text><path  d="M 269 351
L 269 356" style="stroke-width:1;stroke:rgba(51,51,51,1.0);fill:none"/><text x="236" y="373" style="stroke-width:0;stroke:none;fill:rgba(51,51,51,1.0);font-size:12.8px;font-family:'Roboto Medium',sans-serif">2020-09-08</text><path  d="M 385 351
L 385 356" style="stroke-width:1;stroke:rgba(51,51,51,1.0);fill:none"/><text x="352" y="373" style="stroke-width:0;stroke:none;fill:rgba(51,51,51,1.0);font-size:12.8px;font-family:'Roboto Medium',sans-serif">2020-12-14</text><path  d="M 500 351
L 500 356" style="stroke-width:1;stroke:rgba(51,51,51,1.0);fill:none"/><text x="467" y="373" style="stroke-width:0;stroke:none;fill:rgba(51,51,51,1.0);font-size:12.8px;font-family:'Roboto Medium',sans-serif">2021-03-22</text><path  d="M 615 351
L 615 356" style="stroke-width:1;stroke:rgba(51,51,51,1.0);fill:none"/><text x="582" y="373" style="stroke-width:0;stroke:none;fill:rgba(51,51,51,1.0);font-size:12.8px;font-family:'Roboto Medium',sans-serif">2021-06-27</text><path  d="M 731 351
L 731 356" style="stroke-width:1;stroke:rgba(51,51,51,1.0);fill:none"/><text x="698" y="373" style="stroke-width:0;stroke:none;fill:rgba(51,51,51,1.0);font-size:12.8px;font-family:'Roboto Medium',sans-serif">2021-10-03</text><path  d="M 846 351
L 846 356" style="stroke-width:1;stroke:rgba(51,51,51,1.0);fill:none"/><text x="813" y="373" style="stroke-width:0;stroke:none;fill:rgba(51,51,51,1.0);font-size:12.8px;font-family:'Roboto Medium',sans-serif">2022-01-08</text><path  d="M 961 351
L 961 356" style="stroke-width:1;stroke:rgba(51,51,51,1.0);fill:none"/><text x="928" y="373" style="stroke-width:0;stroke:none;fill:rgba(51,51,51,1.0);font-size:12.8px;font-family:'Roboto Medium',sans-serif">2022-04-16</text><text x="481" y="395" style="stroke-width:0;stroke:none;fill:rgba(51,51,51,1.0);font-size:12.8px;font-family:'Roboto Medium',sans-serif">Datum</text><path  d="M 962 351
L 962 11" style="stroke-width:1;stroke:rgba(51,51,51,1.0);fill:none"/><path  d="M 962 351
L 967 351" style="stroke-width:1;stroke:rgba(51,51,51,1.0);fill:none"/><text x="972" y="357" style="stroke-width:0;stroke:none;fill:rgba(51,51,51,1.0);font-size:12.8px;font-family:'Roboto Medium',sans-serif">0.00</text><path  d="M 962 308
L 967 308" style="stroke-width:1;stroke:rgba(51,51,51,1.0);fill:none"/><text x="972" y="314" style="stroke-width:0;stroke:none;fill:rgba(51,51,51,1.0);font-size:12.8px;font-family:'Roboto Medium',sans-serif">480.00</text><path  d="M 962 266
L 967 266" style="stroke-width:1;stroke:rgba(51,51,51,1.0);fill:none"/><text x="972" y="272" style="stroke-width:0;stroke:none;fill:rgba(51,51,51,1.0);font-size:12.8px;font-family:'Roboto Medium',sans-serif">950.00</text><path  d="M 962 223
L 967 223" style="stroke-width:1;stroke:rgba(51,51,51,1.0);fill:none"/><text x="972" y="229" style="stroke-width:0;stroke:none;fill:rgba(51,51,51,1.0);font-size:12.8px;font-family:'Roboto Medium',sans-serif">1430.00</text><path  d="M 962 181
L 967 181" style="stroke-width:1;stroke:rgba(51,51,51,1.0);fill:none"/><text x="972" y="187" style="stroke-width:0;stroke:none;fill:rgba(51,51,51,1.0);font-size:12.8px;font-family:'Roboto Medium',sans-serif">1900.00</text><path  d="M 962 138
L 967 138" style="stroke-width:1;stroke:rgba(51,51,51,1.0);fill:none"/><text x="972" y="144" style="stroke-width:0;stroke:none;fill:rgba(51,51,51,1.0);font-size:12.8px;font-family:'Roboto Medium',sans-serif">2380.00</text><path  d="M 962 96
L 967 96" style="stroke-width:1;stroke:rgba(51,51,51,1.0);fill:none"/><text x="972" y="102" style="stroke-width:0;stroke:none;fill:rgba(51,51,51,1.0);font-size:12.8px;font-family:'Roboto Medium',sans-serif">2850.00</text><path  d="M 962 53
L 967 53" style="stroke-width:1;stroke:rgba(51,51,51,1.0);fill:none"/><text x="972" y="59" style="stroke-width:0;stroke:none;fill:rgba(51,51,51,1.0);font-size:12.8px;font-family:'Roboto Medium',sans-serif">3330.00</text><path  d="M 962 11
L 967 11" style="stroke-width:1;stroke:rgba(51,51,51,1.0);fill:none"/><text x="972" y="17" style="stroke-width:0;stroke:none;fill:rgba(51,51,51,1.0);font-size:12.8px;font-family:'Roboto Medium',sans-serif">3800.00</text><path  d="M 38 351
L 40 351
L 41 351
L 42 351
L 43 351
L 44 351
L 46 351
L 47 351
L 48 351
L 49 351
L 50 351
L 52 351
L 53 351
L 54 351
L 55 351
L 56 351
L 57 350
L 59 350
L 60 350
L 61 350
L 62 349
L 63 349
L 65 348
L 66 349
L 67 348
L 68 346
L 69 345
L 70 345
L 72 345
L 73 344
L 74 344
L 75 345
L 76 346
L 78 346
L 79 345
L 80 345
L 81 347
L 82 346
L 83 346
L 85 346
L 86 347
L 87 349
L 88 349
L 89 349
L 91 350
L 92 349
L 93 348
L 94 348
L 95 349
L 96 348
L 98 348
L 99 348
L 100 349
L 101 350
L 102 350
L 104 350
L 105 351
L 106 351
L 107 351
L 108 351
L 109 351
L 111 351
L 112 351
L 113 351
L 114 351
L 115 351
L 117 351
L 118 351
L 119 351
L 120 351
L 121 351
L 123 351
L 124 351
L 125 351
L 126 351
L 127 351
L 128 351
L 130 351
L 131 350
L 132 350
L 133 350
L 134 350
L 136 350
L 137 350
L 138 350
L 139 351
L 140 351
L 141 351
L 143 351
L 144 351
L 145 351
L 146 351
L 147 351
L 149 351
L 150 351
L 151 351
L 152 351
L 153 351
L 154 351
L 156 351
L 157 351
L 158 351
L 159 351
L 160 351
L 162 351
L 163 351
L 164 351
L 165 351
L 166 351
L 167 351
L 169 351
L 170 351
L 171 351
L 172 351
L 173 351
L 175 351
L 176 351
L 177 351
L 178 351
L 179 351
L 180 351
L 182 351
L 183 351
L 184 351
L 185 351
L 186 351
L 188 351
L 189 351
L 190 351
L 191 351
L 192 351
L 194 351
L 195 351
L 196 351
L 197 351
L 198 351
L 199 351
L 201 351
L 202 351
L 203 351
L 204 351
L 205 351
L 207 351
L 208 351
L 209 350
L 210 350
L 211 349
L 212 349
L 214 349
L 215 349
L 216 349
L 217 349
L 218 349
L 220 350
L 221 350
L 222 350
L 223 350
L 224 350
L 225 351
L 227 351
L 228 351
L 229 351
L 230 351
L 231 351
L 233 351
L 234 351
L 235 351
L 236 351
L 237 351
L 238 351
L 240 351
L 241 351
L 242 351
L 243 351
L 244 350
L 246 349
L 247 349
L 248 348
L 249 348
L 250 348
L 251 348
L 253 349
L 254 350
L 255 349
L 256 349
L 257 349
L 259 349
L 260 348
L 261 348
L 262 348
L 263 349
L 265 349
L 266 348
L 267 346
L 268 346
L 269 346
L 270 346
L 272 346
L 273 346
L 274 346
L 275 348
L 276 348
L 278 348
L 279 348
L 280 348
L 281 347
L 282 346
L 283 346
L 285 347
L 286 347
L 287 347
L 288 348
L 289 349
L 291 350
L 292 350
L 293 350
L 294 350
L 295 350
L 296 350
L 298 350
L 299 350
L 300 350
L 301 351
L 302 350
L 304 350
L 305 349
L 306 349
L 307 349
L 308 348
L 309 348
L 311 348
L 312 348
L 313 348
L 314 348
L 315 347
L 317 345
L 318 344
L 319 344
L 320 343
L 321 341
L 322 338
L 324 339
L 325 342
L 326 343
L 327 342
L 328 336
L 330 336
L 331 337
L 332 336
L 333 327
L 334 320
L 336 314
L 337 317
L 338 312
L 339 309
L 340 309
L 341 313
L 343 316
L 344 317
L 345 312
L 346 316
L 347 316
L 349 315
L 350 315
L 351 316
L 352 314
L 353 322
L 354 316
L 356 321
L 357 319
L 358 322
L 359 320
L 360 323
L 362 317
L 363 321
L 364 319
L 365 321
L 366 322
L 367 325
L 369 327
L 370 333
L 371 338
L 372 339
L 373 338
L 375 335
L 376 335
L 377 334
L 378 335
L 379 333
L 380 332
L 382 335
L 383 339
L 384 340
L 385 341
L 386 340
L 388 339
L 389 340
L 390 340
L 391 340
L 392 338
L 393 339
L 395 339
L 396 340
L 397 339
L 398 340
L 399 339
L 401 339
L 402 336
L 403 337
L 404 338
L 405 337
L 407 335
L 408 335
L 409 334
L 410 338
L 411 337
L 412 337
L 414 331
L 415 329
L 416 328
L 417 329
L 418 326
L 420 327
L 421 326
L 422 332
L 423 336
L 424 338
L 425 338
L 427 340
L 428 341
L 429 341
L 430 342
L 431 343
L 433 340
L 434 340
L 435 341
L 436 339
L 437 341
L 438 337
L 440 336
L 441 334
L 442 333
L 443 332
L 444 331
L 446 330
L 447 334
L 448 335
L 449 339
L 450 338
L 451 338
L 453 340
L 454 340
L 455 341
L 456 339
L 457 334
L 459 337
L 460 336
L 461 335
L 462 334
L 463 334
L 464 335
L 466 340
L 467 339
L 468 340
L 469 341
L 470 342
L 472 342
L 473 341
L 474 341
L 475 342
L 476 343
L 478 345
L 479 345
L 480 346
L 481 347
L 482 348
L 483 348
L 485 349
L 486 349
L 487 349
L 488 349
L 489 349
L 491 349
L 492 348
L 493 346
L 494 345
L 495 345
L 496 342
L 498 340
L 499 338
L 500 339
L 501 338
L 502 336
L 504 333
L 505 333
L 506 333
L 507 334
L 508 332
L 509 333
L 511 333
L 512 335
L 513 335
L 514 336
L 515 336
L 517 337
L 518 336
L 519 335
L 520 333
L 521 332
L 522 332
L 524 330
L 525 329
L 526 324
L 527 322
L 528 325
L 530 324
L 531 322
L 532 319
L 533 316
L 534 319
L 535 321
L 537 319
L 538 321
L 539 323
L 540 328
L 541 330
L 543 332
L 544 330
L 545 331
L 546 332
L 547 332
L 549 333
L 550 328
L 551 329
L 552 333
L 553 336
L 554 336
L 556 336
L 557 336
L 558 342
L 559 343
L 560 342
L 562 340
L 563 341
L 564 343
L 565 344
L 566 344
L 567 343
L 569 345
L 570 347
L 571 348
L 572 347
L 573 346
L 575 346
L 576 347
L 577 348
L 578 348
L 579 348
L 580 349
L 582 350
L 583 351
L 584 351
L 585 351
L 586 351
L 588 350
L 589 350
L 590 350
L 591 350
L 592 350
L 593 350
L 595 350
L 596 351
L 597 351
L 598 351
L 599 350
L 601 350
L 602 350
L 603 350
L 604 350
L 605 349
L 606 349
L 608 350
L 609 350
L 610 350
L 611 350
L 612 350
L 614 351
L 615 351
L 616 351
L 617 351
L 618 351
L 620 351
L 621 351
L 622 350
L 623 349
L 624 349
L 625 349
L 627 349
L 628 342
L 629 340
L 630 339
L 631 339
L 633 338
L 634 336
L 635 336
L 636 343
L 637 344
L 638 345
L 640 345
L 641 346
L 642 347
L 643 346
L 644 347
L 646 347
L 647 348
L 648 348
L 649 349
L 650 350
L 651 349
L 653 349
L 654 348
L 655 348
L 656 348
L 657 348
L 659 345
L 660 345
L 661 345
L 662 346
L 663 346
L 664 345
L 666 345
L 667 347
L 668 348
L 669 347
L 670 347
L 672 348
L 673 348
L 674 349
L 675 348
L 676 348
L 677 348
L 679 348
L 680 348
L 681 348
L 682 347
L 683 348
L 685 348
L 686 347
L 687 345
L 688 346
L 689 346
L 691 345
L 692 344
L 693 342
L 694 341
L 695 340
L 696 339
L 698 338
L 699 337
L 700 338
L 701 339
L 702 338
L 704 338
L 705 338
L 706 338
L 707 338
L 708 336
L 709 333
L 711 335
L 712 335
L 713 336
L 714 337
L 715 336
L 717 339
L 718 341
L 719 341
L 720 342
L 721 343
L 722 344
L 724 346
L 725 345
L 726 346
L 727 346
L 728 345
L 730 345
L 731 344
L 732 345
L 733 345
L 734 345
L 735 346
L 737 346
L 738 346
L 739 347
L 740 346
L 741 345
L 743 344
L 744 339
L 745 337
L 746 334
L 747 332
L 748 329
L 750 324
L 751 320
L 752 320
L 753 313
L 754 312
L 756 309
L 757 308
L 758 308
L 759 303
L 760 303
L 762 304
L 763 299
L 764 296
L 765 287
L 766 282
L 767 282
L 769 273
L 770 269
L 771 266
L 772 257
L 773 268
L 775 251
L 776 241
L 777 235
L 778 233
L 779 231
L 780 226
L 782 205
L 783 217
L 784 226
L 785 227
L 786 223
L 788 213
L 789 206
L 790 209
L 791 203
L 792 193
L 793 186
L 795 191
L 796 202
L 797 219
L 798 230
L 799 242
L 801 259
L 802 275
L 803 278
L 804 285
L 805 290
L 806 296
L 808 302
L 809 304
L 810 312
L 811 318
L 812 324
L 814 328
L 815 330
L 816 334
L 817 336
L 818 336
L 819 335
L 821 335
L 822 335
L 823 334
L 824 335
L 825 337
L 827 336
L 828 338
L 829 336
L 830 336
L 831 336
L 833 335
L 834 334
L 835 331
L 836 329
L 837 329
L 838 325
L 840 322
L 841 314
L 842 309
L 843 308
L 844 304
L 846 297
L 847 293
L 848 283
L 849 283
L 850 267
L 851 261
L 853 248
L 854 250
L 855 240
L 856 230
L 857 216
L 859 221
L 860 210
L 861 202
L 862 191
L 863 191
L 864 188
L 866 176
L 867 161
L 868 150
L 869 151
L 870 142
L 872 136
L 873 121
L 874 119
L 875 116
L 876 116
L 877 110
L 879 106
L 880 106
L 881 113
L 882 105
L 883 105
L 885 104
L 886 106
L 887 120
L 888 124
L 889 132
L 890 146
L 892 155
L 893 163
L 894 165
L 895 163
L 896 163
L 898 153
L 899 158
L 900 157
L 901 156
L 902 156
L 904 155
L 905 157
L 906 161
L 907 163
L 908 160
L 909 151
L 911 141
L 912 136
L 913 139
L 914 137
L 915 116
L 917 91
L 918 85
L 919 76
L 920 70
L 921 47
L 922 29
L 924 14
L 925 19
L 926 25
L 927 19
L 928 19
L 930 25
L 931 29
L 932 45
L 933 62
L 934 64
L 935 74
L 937 78
L 938 96
L 939 115
L 940 131
L 941 139
L 943 155
L 944 182
L 945 199
L 946 207
L 947 219
L 948 232
L 950 247
L 951 252
L 952 258
L 953 264
L 954 264
L 956 274
L 957 283
L 958 287
L 959 291
L 960 293
L 961 292" style="stroke-width:1;stroke:rgba(0,116,217,1.0);fill:none"/><path  d="M 38 351
L 40 351
L 41 351
L 42 351
L 43 351
L 44 351
L 46 351
L 47 351
L 48 351
L 49 351
L 50 351
L 52 351
L 53 351
L 54 351
L 55 351
L 56 351
L 57 350
L 59 351
L 60 351
L 61 350
L 62 350
L 63 350
L 65 350
L 66 351
L 67 350
L 68 350
L 69 350
L 70 350
L 72 350
L 73 350
L 74 351
L 75 350
L 76 350
L 78 350
L 79 350
L 80 351
L 81 351
L 82 350
L 83 351
L 85 351
L 86 350
L 87 350
L 88 351
L 89 351
L 91 351
L 92 350
L 93 350
L 94 350
L 95 351
L 96 350
L 98 351
L 99 351
L 100 351
L 101 351
L 102 351
L 104 351
L 105 351
L 106 351
L 107 351
L 108 351
L 109 351
L 111 351
L 112 351
L 113 351
L 114 351
L 115 351
L 117 351
L 118 351
L 119 351
L 120 351
L 121 351
L 123 351
L 124 351
L 125 351
L 126 351
L 127 351
L 128 351
L 130 351
L 131 350
L 132 351
L 133 351
L 134 351
L 136 351
L 137 351
L 138 351
L 139 351
L 140 351
L 141 351
L 143 351
L 144 351
L 145 351
L 146 351
L 147 351
L 149 351
L 150 351
L 151 351
L 152 351
L 153 351
L 154 351
L 156 351
L 157 351
L 158 351
L 159 351
L 160 351
L 162 351
L 163 351
L 164 351
L 165 351
L 166 351
L 167 351
L 169 351
L 170 351
L 171 351
L 172 351
L 173 351
L 175 351
L 176 351
L 177 351
L 178 351
L 179 351
L 180 351
L 182 351
L 183 351
L 184 351
L 185 351
L 186 351
L 188 351
L 189 351
L 190 351
L 191 351
L 192 351
L 194 351
L 195 351
L 196 351
L 197 351
L 198 351
L 199 351
L 201 351
L 202 351
L 203 351
L 204 351
L 205 351
L 207 351
L 208 351
L 209 350
L 210 351
L 211 350
L 212 351
L 214 351
L 215 351
L 216 351
L 217 350
L 218 351
L 220 351
L 221 351
L 222 351
L 223 351
L 224 351
L 225 351
L 227 351
L 228 351
L 229 351
L 230 351
L 231 351
L 233 351
L 234 351
L 235 351
L 236 351
L 237 351
L 238 351
L 240 351
L 241 351
L 242 351
L 243 351
L 244 350
L 246 350
L 247 350
L 248 350
L 249 351
L 250 351
L 251 350
L 253 351
L 254 351
L 255 350
L 256 351
L 257 350
L 259 351
L 260 350
L 261 351
L 262 351
L 263 351
L 265 350
L 266 350
L 267 350
L 268 350
L 269 351
L 270 350
L 272 350
L 273 350
L 274 350
L 275 351
L 276 350
L 278 350
L 279 350
L 280 350
L 281 350
L 282 350
L 283 351
L 285 351
L 286 351
L 287 350
L 288 351
L 289 350
L 291 351
L 292 351
L 293 350
L 294 351
L 295 351
L 296 351
L 298 351
L 299 351
L 300 351
L 301 351
L 302 350
L 304 350
L 305 350
L 306 350
L 307 350
L 308 350
L 309 351
L 311 350
L 312 350
L 313 351
L 314 350
L 315 350
L 317 350
L 318 350
L 319 350
L 320 350
L 321 350
L 322 349
L 324 350
L 325 350
L 326 350
L 327 350
L 328 348
L 330 350
L 331 350
L 332 350
L 333 348
L 334 348
L 336 348
L 337 349
L 338 348
L 339 349
L 340 350
L 341 349
L 343 349
L 344 349
L 345 347
L 346 349
L 347 349
L 349 350
L 350 349
L 351 349
L 352 348
L 353 350
L 354 348
L 356 350
L 357 349
L 358 350
L 359 349
L 360 349
L 362 348
L 363 349
L 364 350
L 365 350
L 366 350
L 367 350
L 369 350
L 370 350
L 371 351
L 372 350
L 373 349
L 375 349
L 376 350
L 377 350
L 378 350
L 379 350
L 380 350
L 382 350
L 383 350
L 384 350
L 385 350
L 386 350
L 388 350
L 389 350
L 390 350
L 391 350
L 392 350
L 393 350
L 395 350
L 396 350
L 397 350
L 398 350
L 399 350
L 401 350
L 402 349
L 403 350
L 404 350
L 405 350
L 407 350
L 408 350
L 409 350
L 410 350
L 411 350
L 412 350
L 414 348
L 415 349
L 416 350
L 417 350
L 418 349
L 420 350
L 421 350
L 422 350
L 423 350
L 424 351
L 425 350
L 427 350
L 428 350
L 429 350
L 430 350
L 431 350
L 433 350
L 434 350
L 435 350
L 436 349
L 437 350
L 438 349
L 440 350
L 441 349
L 442 350
L 443 350
L 444 349
L 446 350
L 447 350
L 448 351
L 449 350
L 450 350
L 451 350
L 453 350
L 454 350
L 455 350
L 456 350
L 457 349
L 459 351
L 460 349
L 461 349
L 462 350
L 463 350
L 464 350
L 466 350
L 467 350
L 468 350
L 469 350
L 470 350
L 472 350
L 473 350
L 474 350
L 475 350
L 476 350
L 478 350
L 479 350
L 480 351
L 481 351
L 482 351
L 483 351
L 485 350
L 486 350
L 487 350
L 488 350
L 489 350
L 491 350
L 492 350
L 493 350
L 494 350
L 495 350
L 496 349
L 498 350
L 499 350
L 500 350
L 501 350
L 502 350
L 504 349
L 505 349
L 506 350
L 507 350
L 508 350
L 509 350
L 511 350
L 512 350
L 513 350
L 514 350
L 515 350
L 517 350
L 518 350
L 519 349
L 520 349
L 521 349
L 522 350
L 524 349
L 525 350
L 526 348
L 527 349
L 528 350
L 530 349
L 531 349
L 532 348
L 533 349
L 534 349
L 535 349
L 537 349
L 538 350
L 539 350
L 540 350
L 541 350
L 543 350
L 544 349
L 545 349
L 546 350
L 547 350
L 549 350
L 550 348
L 551 350
L 552 350
L 553 350
L 554 350
L 556 350
L 557 350
L 558 350
L 559 350
L 560 350
L 562 350
L 563 350
L 564 351
L 565 351
L 566 350
L 567 350
L 569 350
L 570 350
L 571 350
L 572 350
L 573 350
L 575 350
L 576 351
L 577 351
L 578 351
L 579 351
L 580 351
L 582 351
L 583 351
L 584 351
L 585 351
L 586 351
L 588 350
L 589 351
L 590 351
L 591 351
L 592 351
L 593 351
L 595 351
L 596 351
L 597 351
L 598 351
L 599 350
L 601 351
L 602 351
L 603 351
L 604 351
L 605 350
L 606 351
L 608 351
L 609 351
L 610 351
L 611 351
L 612 351
L 614 351
L 615 351
L 616 351
L 617 351
L 618 351
L 620 351
L 621 351
L 622 350
L 623 350
L 624 350
L 625 351
L 627 351
L 628 348
L 629 350
L 630 350
L 631 350
L 633 350
L 634 350
L 635 350
L 636 350
L 637 350
L 638 350
L 640 350
L 641 350
L 642 350
L 643 350
L 644 351
L 646 351
L 647 351
L 648 350
L 649 351
L 650 351
L 651 350
L 653 351
L 654 350
L 655 350
L 656 351
L 657 350
L 659 350
L 660 350
L 661 351
L 662 351
L 663 350
L 664 350
L 666 350
L 667 351
L 668 350
L 669 350
L 670 351
L 672 350
L 673 350
L 674 351
L 675 350
L 676 351
L 677 350
L 679 351
L 680 350
L 681 350
L 682 350
L 683 350
L 685 350
L 686 350
L 687 350
L 688 350
L 689 351
L 691 350
L 692 350
L 693 350
L 694 350
L 695 350
L 696 350
L 698 350
L 699 350
L 700 350
L 701 350
L 702 350
L 704 350
L 705 350
L 706 350
L 707 350
L 708 350
L 709 349
L 711 350
L 712 350
L 713 350
L 714 350
L 715 350
L 717 350
L 718 350
L 719 350
L 720 350
L 721 350
L 722 351
L 724 350
L 725 350
L 726 350
L 727 350
L 728 350
L 730 350
L 731 350
L 732 351
L 733 350
L 734 350
L 735 351
L 737 350
L 738 350
L 739 351
L 740 350
L 741 350
L 743 350
L 744 349
L 745 350
L 746 349
L 747 350
L 748 349
L 750 348
L 751 348
L 752 349
L 753 347
L 754 349
L 756 349
L 757 349
L 758 348
L 759 347
L 760 349
L 762 347
L 763 347
L 764 348
L 765 346
L 766 347
L 767 346
L 769 346
L 770 346
L 771 346
L 772 345
L 773 350
L 775 341
L 776 343
L 777 344
L 778 346
L 779 345
L 780 344
L 782 343
L 783 345
L 784 346
L 785 344
L 786 345
L 788 342
L 789 341
L 790 344
L 791 343
L 792 343
L 793 342
L 795 346
L 796 346
L 797 347
L 798 347
L 799 347
L 801 348
L 802 347
L 803 347
L 804 348
L 805 349
L 806 349
L 808 349
L 809 349
L 810 350
L 811 350
L 812 350
L 814 350
L 815 350
L 816 350
L 817 349
L 818 350
L 819 349
L 821 350
L 822 350
L 823 350
L 824 350
L 825 350
L 827 350
L 828 350
L 829 349
L 830 350
L 831 349
L 833 350
L 834 350
L 835 349
L 836 349
L 837 349
L 838 349
L 840 348
L 841 348
L 842 348
L 843 349
L 844 348
L 846 347
L 847 347
L 848 345
L 849 347
L 850 343
L 851 346
L 853 344
L 854 348
L 855 344
L 856 342
L 857 343
L 859 344
L 860 343
L 861 341
L 862 344
L 863 344
L 864 341
L 866 339
L 867 339
L 868 339
L 869 342
L 870 341
L 872 342
L 873 336
L 874 338
L 875 338
L 876 339
L 877 340
L 879 339
L 880 342
L 881 338
L 882 336
L 883 338
L 885 339
L 886 341
L 887 344
L 888 343
L 889 341
L 890 340
L 892 341
L 893 342
L 894 341
L 895 344
L 896 343
L 898 338
L 899 342
L 900 340
L 901 342
L 902 341
L 904 343
L 905 344
L 906 339
L 907 342
L 908 339
L 909 339
L 911 338
L 912 342
L 913 345
L 914 338
L 915 335
L 917 331
L 918 337
L 919 335
L 920 340
L 921 337
L 922 333
L 924 330
L 925 333
L 926 339
L 927 333
L 928 340
L 930 339
L 931 334
L 932 335
L 933 338
L 934 340
L 935 336
L 937 341
L 938 345
L 939 340
L 940 341
L 941 341
L 943 345
L 944 345
L 945 347
L 946 348
L 947 344
L 948 345
L 950 346
L 951 347
L 952 347
L 953 349
L 954 348
L 956 347
L 957 348
L 958 347
L 959 348
L 960 347
L 961 349" style="stroke-width:1;stroke:rgba(0,217,101,1.0);fill:none"/><path  d="M 38 351
L 40 351
L 41 351
L 42 351
L 43 351
L 44 351
L 46 351
L 47 351
L 48 351
L 49 351
L 50 351
L 52 351
L 53 351
L 54 351
L 55 351
L 56 351
L 57 351
L 59 351
L 60 351
L 61 351
L 62 351
L 63 351
L 65 351
L 66 351
L 67 351
L 68 351
L 69 351
L 70 351
L 72 351
L 73 351
L 74 351
L 75 351
L 76 351
L 78 351
L 79 351
L 80 351
L 81 351
L 82 351
L 83 351
L 85 351
L 86 351
L 87 351
L 88 351
L 89 351
L 91 351
L 92 350
L 93 351
L 94 351
L 95 351
L 96 351
L 98 351
L 99 351
L 100 351
L 101 351
L 102 351
L 104 351
L 105 351
L 106 351
L 107 351
L 108 351
L 109 351
L 111 351
L 112 351
L 113 351
L 114 351
L 115 351
L 117 351
L 118 351
L 119 351
L 120 351
L 121 351
L 123 351
L 124 351
L 125 351
L 126 351
L 127 351
L 128 351
L 130 351
L 131 351
L 132 351
L 133 351
L 134 351
L 136 351
L 137 351
L 138 351
L 139 351
L 140 351
L 141 351
L 143 351
L 144 351
L 145 351
L 146 351
L 147 351
L 149 351
L 150 351
L 151 351
L 152 351
L 153 351
L 154 351
L 156 351
L 157 351
L 158 351
L 159 351
L 160 351
L 162 351
L 163 351
L 164 351
L 165 351
L 166 351
L 167 351
L 169 351
L 170 351
L 171 351
L 172 351
L 173 351
L 175 351
L 176 351
L 177 351
L 178 351
L 179 351
L 180 351
L 182 351
L 183 351
L 184 351
L 185 351
L 186 351
L 188 351
L 189 351
L 190 351
L 191 351
L 192 351
L 194 351
L 195 351
L 196 351
L 197 351
L 198 351
L 199 351
L 201 351
L 202 351
L 203 351
L 204 351
L 205 351
L 207 351
L 208 351
L 209 351
L 210 351
L 211 351
L 212 351
L 214 351
L 215 351
L 216 351
L 217 351
L 218 351
L 220 351
L 221 351
L 222 351
L 223 351
L 224 351
L 225 351
L 227 351
L 228 351
L 229 351
L 230 351
L 231 351
L 233 351
L 234 351
L 235 351
L 236 351
L 237 351
L 238 351
L 240 351
L 241 351
L 242 351
L 243 351
L 244 351
L 246 351
L 247 351
L 248 351
L 249 351
L 250 351
L 251 351
L 253 351
L 254 351
L 255 351
L 256 351
L 257 351
L 259 351
L 260 351
L 261 351
L 262 351
L 263 351
L 265 351
L 266 351
L 267 351
L 268 351
L 269 351
L 270 351
L 272 351
L 273 351
L 274 351
L 275 351
L 276 351
L 278 351
L 279 351
L 280 351
L 281 351
L 282 351
L 283 351
L 285 351
L 286 351
L 287 351
L 288 351
L 289 351
L 291 351
L 292 351
L 293 351
L 294 351
L 295 351
L 296 351
L 298 351
L 299 351
L 300 351
L 301 351
L 302 351
L 304 351
L 305 351
L 306 351
L 307 351
L 308 351
L 309 351
L 311 351
L 312 351
L 313 351
L 314 351
L 315 351
L 317 351
L 318 351
L 319 351
L 320 351
L 321 351
L 322 351
L 324 351
L 325 351
L 326 351
L 327 351
L 328 351
L 330 351
L 331 351
L 332 351
L 333 351
L 334 351
L 336 351
L 337 350
L 338 351
L 339 351
L 340 351
L 341 351
L 343 351
L 344 351
L 345 351
L 346 351
L 347 351
L 349 351
L 350 351
L 351 351
L 352 351
L 353 351
L 354 351
L 356 351
L 357 351
L 358 351
L 359 351
L 360 351
L 362 351
L 363 351
L 364 351
L 365 350
L 366 351
L 367 351
L 369 351
L 370 351
L 371 351
L 372 351
L 373 351
L 375 351
L 376 351
L 377 351
L 378 351
L 379 351
L 380 351
L 382 351
L 383 351
L 384 351
L 385 351
L 386 351
L 388 351
L 389 351
L 390 351
L 391 351
L 392 351
L 393 351
L 395 351
L 396 351
L 397 351
L 398 351
L 399 351
L 401 351
L 402 351
L 403 351
L 404 351
L 405 351
L 407 351
L 408 351
L 409 351
L 410 351
L 411 351
L 412 351
L 414 351
L 415 351
L 416 351
L 417 350
L 418 351
L 420 351
L 421 351
L 422 351
L 423 350
L 424 351
L 425 351
L 427 351
L 428 351
L 429 351
L 430 351
L 431 351
L 433 351
L 434 351
L 435 351
L 436 351
L 437 351
L 438 351
L 440 351
L 441 351
L 442 351
L 443 351
L 444 351
L 446 351
L 447 351
L 448 351
L 449 351
L 450 351
L 451 351
L 453 351
L 454 351
L 455 351
L 456 351
L 457 351
L 459 351
L 460 351
L 461 351
L 462 351
L 463 351
L 464 351
L 466 351
L 467 351
L 468 351
L 469 351
L 470 351
L 472 351
L 473 351
L 474 351
L 475 351
L 476 351
L 478 351
L 479 351
L 480 351
L 481 351
L 482 351
L 483 351
L 485 351
L 486 351
L 487 351
L 488 351
L 489 351
L 491 351
L 492 351
L 493 351
L 494 351
L 495 351
L 496 351
L 498 351
L 499 351
L 500 351
L 501 351
L 502 351
L 504 351
L 505 351
L 506 351
L 507 351
L 508 351
L 509 351
L 511 351
L 512 351
L 513 351
L 514 351
L 515 351
L 517 351
L 518 351
L 519 351
L 520 351
L 521 351
L 522 351
L 524 351
L 525 351
L 526 351
L 527 351
L 528 351
L 530 351
L 531 351
L 532 351
L 533 351
L 534 351
L 535 351
L 537 351
L 538 351
L 539 351
L 540 351
L 541 351
L 543 351
L 544 351
L 545 350
L 546 351
L 547 351
L 549 351
L 550 351
L 551 351
L 552 351
L 553 351
L 554 351
L 556 351
L 557 351
L 558 351
L 559 351
L 560 351
L 562 351
L 563 351
L 564 351
L 565 351
L 566 351
L 567 351
L 569 351
L 570 351
L 571 351
L 572 351
L 573 351
L 575 351
L 576 351
L 577 351
L 578 351
L 579 351
L 580 351
L 582 351
L 583 351
L 584 351
L 585 351
L 586 351
L 588 351
L 589 351
L 590 351
L 591 351
L 592 351
L 593 351
L 595 351
L 596 351
L 597 351
L 598 351
L 599 351
L 601 351
L 602 351
L 603 351
L 604 351
L 605 351
L 606 351
L 608 351
L 609 351
L 610 351
L 611 351
L 612 351
L 614 351
L 615 351
L 616 351
L 617 351
L 618 351
L 620 351
L 621 351
L 622 351
L 623 351
L 624 351
L 625 351
L 627 351
L 628 351
L 629 351
L 630 351
L 631 351
L 633 351
L 634 351
L 635 351
L 636 351
L 637 351
L 638 351
L 640 351
L 641 351
L 642 351
L 643 351
L 644 351
L 646 351
L 647 351
L 648 351
L 649 351
L 650 351
L 651 351
L 653 351
L 654 351
L 655 351
L 656 351
L 657 351
L 659 351
L 660 351
L 661 351
L 662 351
L 663 351
L 664 351
L 666 351
L 667 351
L 668 351
L 669 351
L 670 351
L 672 351
L 673 351
L 674 351
L 675 351
L 676 351
L 677 351
L 679 351
L 680 351
L 681 351
L 682 351
L 683 351
L 685 351
L 686 351
L 687 351
L 688 351
L 689 351
L 691 351
L 692 351
L 693 351
L 694 351
L 695 351
L 696 351
L 698 351
L 699 351
L 700 351
L 701 351
L 702 351
L 704 351
L 705 351
L 706 351
L 707 351
L 708 351
L 709 351
L 711 351
L 712 351
L 713 351
L 714 351
L 715 351
L 717 351
L 718 351
L 719 351
L 720 351
L 721 351
L 722 351
L 724 351
L 725 351
L 726 351
L 727 351
L 728 351
L 730 351
L 731 351
L 732 351
L 733 351
L 734 351
L 735 351
L 737 351
L 738 351
L 739 351
L 740 351
L 741 351
L 743 351
L 744 351
L 745 351
L 746 351
L 747 351
L 748 351
L 750 351
L 751 351
L 752 351
L 753 351
L 754 351
L 756 351
L 757 351
L 758 351
L 759 351
L 760 351
L 762 351
L 763 351
L 764 351
L 765 351
L 766 351
L 767 351
L 769 351
L 770 351
L 771 351
L 772 351
L 773 351
L 775 351
L 776 351
L 777 350
L 778 351
L 779 351
L 780 351
L 782 351
L 783 351
L 784 350
L 785 350
L 786 350
L 788 351
L 789 351
L 790 350
L 791 351
L 792 351
L 793 351
L 795 351
L 796 351
L 797 351
L 798 351
L 799 351
L 801 350
L 802 351
L 803 351
L 804 351
L 805 351
L 806 351
L 808 351
L 809 351
L 810 351
L 811 351
L 812 351
L 814 351
L 815 351
L 816 351
L 817 351
L 818 351
L 819 351
L 821 351
L 822 351
L 823 351
L 824 351
L 825 351
L 827 351
L 828 351
L 829 351
L 830 351
L 831 351
L 833 351
L 834 351
L 835 351
L 836 351
L 837 351
L 838 351
L 840 351
L 841 351
L 842 351
L 843 351
L 844 351
L 846 351
L 847 351
L 848 351
L 849 351
L 850 351
L 851 351
L 853 351
L 854 351
L 855 351
L 856 351
L 857 351
L 859 351
L 860 351
L 861 351
L 862 351
L 863 351
L 864 351
L 866 350
L 867 351
L 868 351
L 869 351
L 870 351
L 872 351
L 873 351
L 874 351
L 875 351
L 876 351
L 877 351
L 879 351
L 880 351
L 881 351
L 882 351
L 883 351
L 885 351
L 886 351
L 887 351
L 888 351
L 889 351
L 890 350
L 892 351
L 893 351
L 894 351
L 895 351
L 896 351
L 898 351
L 899 351
L 900 351
L 901 351
L 902 351
L 904 351
L 905 351
L 906 351
L 907 351
L 908 351
L 909 351
L 911 351
L 912 351
L 913 351
L 914 351
L 915 351
L 917 351
L 918 351
L 919 351
L 920 351
L 921 351
L 922 350
L 924 351
L 925 351
L 926 351
L 927 351
L 928 351
L 930 351
L 931 351
L 932 351
L 933 351
L 934 351
L 935 351
L 937 351
L 938 351
L 939 351
L 940 351
L 941 351
L 943 351
L 944 351
L 945 351
L 946 350
L 947 350
L 948 351
L 950 351
L 951 351
L 952 351
L 953 351
L 954 351
L 956 351
L 957 351
L 958 351
L 959 351
L 960 351
L 961 351" style="stroke-width:1;stroke:rgba(217,0,116,1.0);fill:none"/><text x="417" y="33" style="stroke-width:0;stroke:none;fill:rgba(51,51,51,1.0);font-size:23.0px;font-family:'Roboto Medium',sans-serif">Reutte 16.04.2022</text><path  d="M 38 11
L 251 11
L 251 91
L 38 91
L 38 11" style="stroke-width:1;stroke:rgba(51,51,51,1.0);fill:rgba(255,255,255,1.0)"/><text x="43" y="26" style="stroke-width:0;stroke:none;fill:rgba(51,51,51,1.0);font-size:10.2px;font-family:'Roboto Medium',sans-serif">Sieben Tage Durschnitt Inzidenz Fälle</text><path  d="M 221 21
L 241 21" style="stroke-width:1;stroke:rgba(0,116,217,1.0);fill:none"/><text x="43" y="56" style="stroke-width:0;stroke:none;fill:rgba(51,51,51,1.0);font-size:10.2px;font-family:'Roboto Medium',sans-serif">Anzahl Faelle</text><path  d="M 110 51
L 241 51" style="stroke-width:1;stroke:rgba(0,217,101,1.0);fill:none"/><text x="43" y="86" style="stroke-width:0;stroke:none;fill:rgba(51,51,51,1.0);font-size:10.2px;font-family:'Roboto Medium',sans-serif">Anzahl Tot</text><path  d="M 98 81
L 241 81" style="stroke-width:1;stroke:rgba(217,0,116,1.0);fill:none"/></svg>