<svg xmlns="http://www.w3.org/2000/svg" xmlns:xlink="http://www.w3.org/1999/xlink" width="1024" height="400">\n<path  d="M 0 0
L 1024 0
L 1024 400
L 0 400
L 0 0" style="stroke-width:0;stroke:rgba(255,255,255,1.0);fill:rgba(255,255,255,1.0)"/><path  d="M 38 11
L 961 11
L 961 351
L 38 351
L 38 11" style="stroke-width:0;stroke:rgba(255,255,255,1.0);fill:rgba(255,255,255,1.0)"/><path  d="M 38 351
L 961 351" style="stroke-width:1;stroke:rgba(51,51,51,1.0);fill:none"/><path  d="M 38 351
L 38 356" style="stroke-width:1;stroke:rgba(51,51,51,1.0);fill:none"/><text x="5" y="373" style="stroke-width:0;stroke:none;fill:rgba(51,51,51,1.0);font-size:12.8px;font-family:'Roboto Medium',sans-serif">2020-02-26</text><path  d="M 154 351
L 154 356" style="stroke-width:1;stroke:rgba(51,51,51,1.0);fill:none"/><text x="121" y="373" style="stroke-width:0;stroke:none;fill:rgba(51,51,51,1.0);font-size:12.8px;font-family:'Roboto Medium',sans-serif">2020-04-02</text><path  d="M 269 351
L 269 356" style="stroke-width:1;stroke:rgba(51,51,51,1.0);fill:none"/><text x="236" y="373" style="stroke-width:0;stroke:none;fill:rgba(51,51,51,1.0);font-size:12.8px;font-family:'Roboto Medium',sans-serif">2020-05-08</text><path  d="M 385 351
L 385 356" style="stroke-width:1;stroke:rgba(51,51,51,1.0);fill:none"/><text x="352" y="373" style="stroke-width:0;stroke:none;fill:rgba(51,51,51,1.0);font-size:12.8px;font-family:'Roboto Medium',sans-serif">2020-06-13</text><path  d="M 500 351
L 500 356" style="stroke-width:1;stroke:rgba(51,51,51,1.0);fill:none"/><text x="467" y="373" style="stroke-width:0;stroke:none;fill:rgba(51,51,51,1.0);font-size:12.8px;font-family:'Roboto Medium',sans-serif">2020-07-20</text><path  d="M 615 351
L 615 356" style="stroke-width:1;stroke:rgba(51,51,51,1.0);fill:none"/><text x="582" y="373" style="stroke-width:0;stroke:none;fill:rgba(51,51,51,1.0);font-size:12.8px;font-family:'Roboto Medium',sans-serif">2020-08-25</text><path  d="M 731 351
L 731 356" style="stroke-width:1;stroke:rgba(51,51,51,1.0);fill:none"/><text x="698" y="373" style="stroke-width:0;stroke:none;fill:rgba(51,51,51,1.0);font-size:12.8px;font-family:'Roboto Medium',sans-serif">2020-09-30</text><path  d="M 846 351
L 846 356" style="stroke-width:1;stroke:rgba(51,51,51,1.0);fill:none"/><text x="813" y="373" style="stroke-width:0;stroke:none;fill:rgba(51,51,51,1.0);font-size:12.8px;font-family:'Roboto Medium',sans-serif">2020-11-05</text><path  d="M 961 351
L 961 356" style="stroke-width:1;stroke:rgba(51,51,51,1.0);fill:none"/><text x="928" y="373" style="stroke-width:0;stroke:none;fill:rgba(51,51,51,1.0);font-size:12.8px;font-family:'Roboto Medium',sans-serif">2020-12-12</text><text x="481" y="395" style="stroke-width:0;stroke:none;fill:rgba(51,51,51,1.0);font-size:12.8px;font-family:'Roboto Medium',sans-serif">Datum</text><path  d="M 962 351
L 962 11" style="stroke-width:1;stroke:rgba(51,51,51,1.0);fill:none"/><path  d="M 962 351
L 967 351" style="stroke-width:1;stroke:rgba(51,51,51,1.0);fill:none"/><text x="972" y="357" style="stroke-width:0;stroke:none;fill:rgba(51,51,51,1.0);font-size:12.8px;font-family:'Roboto Medium',sans-serif">0.00</text><path  d="M 962 307
L 967 307" style="stroke-width:1;stroke:rgba(51,51,51,1.0);fill:none"/><text x="972" y="313" style="stroke-width:0;stroke:none;fill:rgba(51,51,51,1.0);font-size:12.8px;font-family:'Roboto Medium',sans-serif">140.00</text><path  d="M 962 264
L 967 264" style="stroke-width:1;stroke:rgba(51,51,51,1.0);fill:none"/><text x="972" y="270" style="stroke-width:0;stroke:none;fill:rgba(51,51,51,1.0);font-size:12.8px;font-family:'Roboto Medium',sans-serif">280.00</text><path  d="M 962 221
L 967 221" style="stroke-width:1;stroke:rgba(51,51,51,1.0);fill:none"/><text x="972" y="227" style="stroke-width:0;stroke:none;fill:rgba(51,51,51,1.0);font-size:12.8px;font-family:'Roboto Medium',sans-serif">420.00</text><path  d="M 962 181
L 967 181" style="stroke-width:1;stroke:rgba(51,51,51,1.0);fill:none"/><text x="972" y="187" style="stroke-width:0;stroke:none;fill:rgba(51,51,51,1.0);font-size:12.8px;font-family:'Roboto Medium',sans-serif">550.00</text><path  d="M 962 137
L 967 137" style="stroke-width:1;stroke:rgba(51,51,51,1.0);fill:none"/><text x="972" y="143" style="stroke-width:0;stroke:none;fill:rgba(51,51,51,1.0);font-size:12.8px;font-family:'Roboto Medium',sans-serif">690.00</text><path  d="M 962 94
L 967 94" style="stroke-width:1;stroke:rgba(51,51,51,1.0);fill:none"/><text x="972" y="100" style="stroke-width:0;stroke:none;fill:rgba(51,51,51,1.0);font-size:12.8px;font-family:'Roboto Medium',sans-serif">830.00</text><path  d="M 962 51
L 967 51" style="stroke-width:1;stroke:rgba(51,51,51,1.0);fill:none"/><text x="972" y="57" style="stroke-width:0;stroke:none;fill:rgba(51,51,51,1.0);font-size:12.8px;font-family:'Roboto Medium',sans-serif">970.00</text><path  d="M 962 11
L 967 11" style="stroke-width:1;stroke:rgba(51,51,51,1.0);fill:none"/><text x="972" y="17" style="stroke-width:0;stroke:none;fill:rgba(51,51,51,1.0);font-size:12.8px;font-family:'Roboto Medium',sans-serif">1100.00</text><path  d="M 38 351
L 42 351
L 45 351
L 48 351
L 51 351
L 54 351
L 58 351
L 61 351
L 64 351
L 67 351
L 70 351
L 74 351
L 77 351
L 80 349
L 83 349
L 86 348
L 89 347
L 93 346
L 96 346
L 99 346
L 102 347
L 105 346
L 109 346
L 112 346
L 115 347
L 118 347
L 121 345
L 124 344
L 128 345
L 131 345
L 134 346
L 137 346
L 140 346
L 144 347
L 147 349
L 150 347
L 153 347
L 156 346
L 159 346
L 163 345
L 166 346
L 169 345
L 172 343
L 175 343
L 179 344
L 182 344
L 185 345
L 188 344
L 191 345
L 194 349
L 198 349
L 201 349
L 204 349
L 207 349
L 210 350
L 214 350
L 217 350
L 220 350
L 223 350
L 226 350
L 229 350
L 233 350
L 236 350
L 239 350
L 242 351
L 245 351
L 249 351
L 252 351
L 255 351
L 258 351
L 261 351
L 264 351
L 268 351
L 271 351
L 274 351
L 277 351
L 280 351
L 284 351
L 287 351
L 290 351
L 293 351
L 296 351
L 299 351
L 303 351
L 306 351
L 309 351
L 312 351
L 315 351
L 319 351
L 322 351
L 325 351
L 328 351
L 331 351
L 334 351
L 338 351
L 341 351
L 344 351
L 347 351
L 350 351
L 354 351
L 357 351
L 360 351
L 363 351
L 366 351
L 370 351
L 373 351
L 376 351
L 379 351
L 382 351
L 385 351
L 389 351
L 392 351
L 395 351
L 398 351
L 401 351
L 405 351
L 408 351
L 411 351
L 414 351
L 417 351
L 420 351
L 424 351
L 427 351
L 430 351
L 433 351
L 436 351
L 440 349
L 443 348
L 446 343
L 449 343
L 452 341
L 455 341
L 459 338
L 462 338
L 465 339
L 468 343
L 471 343
L 475 345
L 478 346
L 481 348
L 484 349
L 487 349
L 490 349
L 494 348
L 497 348
L 500 348
L 503 349
L 506 349
L 510 349
L 513 350
L 516 351
L 519 351
L 522 350
L 525 350
L 529 350
L 532 350
L 535 350
L 538 350
L 541 350
L 545 351
L 548 351
L 551 350
L 554 350
L 557 350
L 560 350
L 564 350
L 567 349
L 570 349
L 573 349
L 576 346
L 580 345
L 583 345
L 586 345
L 589 346
L 592 344
L 595 344
L 599 345
L 602 346
L 605 346
L 608 346
L 611 346
L 615 347
L 618 346
L 621 348
L 624 346
L 627 346
L 630 346
L 634 346
L 637 346
L 640 346
L 643 346
L 646 348
L 650 348
L 653 348
L 656 349
L 659 349
L 662 351
L 666 350
L 669 348
L 672 346
L 675 346
L 678 345
L 681 344
L 685 341
L 688 341
L 691 340
L 694 341
L 697 338
L 701 324
L 704 318
L 707 318
L 710 318
L 713 317
L 716 315
L 720 316
L 723 328
L 726 324
L 729 323
L 732 317
L 736 317
L 739 319
L 742 320
L 745 319
L 748 323
L 751 323
L 755 326
L 758 328
L 761 320
L 764 318
L 767 321
L 771 319
L 774 309
L 777 306
L 780 304
L 783 307
L 786 307
L 790 297
L 793 279
L 796 281
L 799 270
L 802 244
L 806 234
L 809 226
L 812 219
L 815 222
L 818 206
L 821 207
L 825 201
L 828 183
L 831 174
L 834 128
L 837 110
L 841 79
L 844 59
L 847 44
L 850 69
L 853 41
L 856 49
L 860 35
L 863 48
L 866 37
L 869 33
L 872 32
L 876 52
L 879 67
L 882 79
L 885 93
L 888 87
L 891 107
L 895 102
L 898 117
L 901 128
L 904 137
L 907 145
L 911 181
L 914 191
L 917 198
L 920 206
L 923 215
L 926 229
L 930 236
L 933 238
L 936 249
L 939 252
L 942 249
L 946 257
L 949 275
L 952 273
L 955 275
L 958 276
L 961 274" style="stroke-width:1;stroke:rgba(0,116,217,1.0);fill:none"/><path  d="M 38 351
L 42 351
L 45 351
L 48 351
L 51 351
L 54 351
L 58 351
L 61 351
L 64 351
L 67 351
L 70 351
L 74 351
L 77 351
L 80 350
L 83 351
L 86 350
L 89 350
L 93 350
L 96 351
L 99 351
L 102 350
L 105 350
L 109 350
L 112 350
L 115 351
L 118 350
L 121 350
L 124 349
L 128 351
L 131 350
L 134 351
L 137 351
L 140 351
L 144 350
L 147 350
L 150 350
L 153 350
L 156 350
L 159 351
L 163 350
L 166 351
L 169 350
L 172 348
L 175 350
L 179 351
L 182 351
L 185 351
L 188 350
L 191 351
L 194 351
L 198 350
L 201 351
L 204 351
L 207 351
L 210 351
L 214 351
L 217 351
L 220 350
L 223 351
L 226 351
L 229 351
L 233 351
L 236 351
L 239 351
L 242 351
L 245 351
L 249 351
L 252 351
L 255 351
L 258 351
L 261 351
L 264 351
L 268 351
L 271 351
L 274 351
L 277 351
L 280 351
L 284 351
L 287 351
L 290 351
L 293 351
L 296 351
L 299 351
L 303 351
L 306 351
L 309 351
L 312 351
L 315 351
L 319 351
L 322 351
L 325 351
L 328 351
L 331 351
L 334 351
L 338 351
L 341 351
L 344 351
L 347 351
L 350 351
L 354 351
L 357 351
L 360 351
L 363 351
L 366 351
L 370 351
L 373 351
L 376 351
L 379 351
L 382 351
L 385 351
L 389 351
L 392 351
L 395 351
L 398 351
L 401 351
L 405 351
L 408 351
L 411 351
L 414 351
L 417 351
L 420 351
L 424 351
L 427 351
L 430 351
L 433 351
L 436 351
L 440 350
L 443 350
L 446 348
L 449 351
L 452 349
L 455 350
L 459 349
L 462 350
L 465 350
L 468 351
L 471 351
L 475 351
L 478 351
L 481 350
L 484 351
L 487 350
L 490 350
L 494 350
L 497 351
L 500 351
L 503 351
L 506 351
L 510 351
L 513 351
L 516 351
L 519 351
L 522 350
L 525 351
L 529 351
L 532 351
L 535 351
L 538 351
L 541 351
L 545 351
L 548 351
L 551 350
L 554 351
L 557 351
L 560 351
L 564 351
L 567 350
L 570 351
L 573 350
L 576 349
L 580 350
L 583 351
L 586 351
L 589 351
L 592 349
L 595 351
L 599 349
L 602 351
L 605 351
L 608 351
L 611 351
L 615 350
L 618 350
L 621 351
L 624 349
L 627 351
L 630 351
L 634 350
L 637 350
L 640 350
L 643 351
L 646 351
L 650 351
L 653 351
L 656 351
L 659 351
L 662 351
L 666 350
L 669 350
L 672 349
L 675 350
L 678 350
L 681 350
L 685 349
L 688 350
L 691 349
L 694 350
L 697 349
L 701 341
L 704 346
L 707 349
L 710 350
L 713 348
L 716 349
L 720 349
L 723 349
L 726 344
L 729 348
L 732 346
L 736 347
L 739 351
L 742 350
L 745 348
L 748 346
L 751 348
L 755 348
L 758 349
L 761 346
L 764 349
L 767 350
L 771 345
L 774 342
L 777 346
L 780 347
L 783 348
L 786 348
L 790 344
L 793 334
L 796 344
L 799 340
L 802 331
L 806 341
L 809 343
L 812 339
L 815 336
L 818 334
L 821 341
L 825 327
L 828 330
L 831 338
L 834 311
L 837 325
L 841 315
L 844 329
L 847 318
L 850 345
L 853 321
L 856 316
L 860 316
L 863 322
L 866 322
L 869 315
L 872 345
L 876 333
L 879 325
L 882 324
L 885 331
L 888 319
L 891 328
L 895 341
L 898 342
L 901 332
L 904 329
L 907 336
L 911 341
L 914 334
L 917 345
L 920 347
L 923 337
L 926 338
L 930 341
L 933 342
L 936 341
L 939 347
L 942 346
L 946 342
L 949 349
L 952 339
L 955 343
L 958 341
L 961 346" style="stroke-width:1;stroke:rgba(0,217,101,1.0);fill:none"/><path  d="M 38 351
L 42 351
L 45 351
L 48 351
L 51 351
L 54 351
L 58 351
L 61 351
L 64 351
L 67 351
L 70 351
L 74 351
L 77 351
L 80 351
L 83 351
L 86 351
L 89 351
L 93 351
L 96 351
L 99 351
L 102 351
L 105 351
L 109 351
L 112 351
L 115 351
L 118 351
L 121 351
L 124 351
L 128 351
L 131 351
L 134 351
L 137 351
L 140 351
L 144 351
L 147 351
L 150 351
L 153 351
L 156 351
L 159 351
L 163 351
L 166 351
L 169 351
L 172 351
L 175 351
L 179 351
L 182 351
L 185 351
L 188 351
L 191 351
L 194 351
L 198 351
L 201 351
L 204 351
L 207 351
L 210 351
L 214 351
L 217 351
L 220 351
L 223 351
L 226 351
L 229 351
L 233 351
L 236 351
L 239 351
L 242 351
L 245 351
L 249 351
L 252 351
L 255 351
L 258 351
L 261 351
L 264 351
L 268 351
L 271 351
L 274 351
L 277 351
L 280 351
L 284 351
L 287 351
L 290 351
L 293 351
L 296 351
L 299 351
L 303 351
L 306 351
L 309 351
L 312 351
L 315 351
L 319 351
L 322 351
L 325 351
L 328 351
L 331 351
L 334 351
L 338 351
L 341 351
L 344 351
L 347 351
L 350 351
L 354 351
L 357 351
L 360 351
L 363 351
L 366 350
L 370 351
L 373 351
L 376 351
L 379 351
L 382 351
L 385 351
L 389 351
L 392 351
L 395 351
L 398 351
L 401 351
L 405 351
L 408 351
L 411 351
L 414 351
L 417 351
L 420 351
L 424 351
L 427 351
L 430 351
L 433 351
L 436 351
L 440 351
L 443 351
L 446 351
L 449 351
L 452 351
L 455 351
L 459 351
L 462 351
L 465 351
L 468 351
L 471 351
L 475 351
L 478 351
L 481 351
L 484 351
L 487 351
L 490 351
L 494 351
L 497 351
L 500 351
L 503 351
L 506 351
L 510 351
L 513 351
L 516 351
L 519 351
L 522 351
L 525 351
L 529 351
L 532 351
L 535 351
L 538 351
L 541 351
L 545 351
L 548 351
L 551 351
L 554 351
L 557 351
L 560 351
L 564 351
L 567 351
L 570 351
L 573 351
L 576 351
L 580 351
L 583 351
L 586 351
L 589 351
L 592 351
L 595 351
L 599 351
L 602 351
L 605 351
L 608 351
L 611 351
L 615 351
L 618 351
L 621 351
L 624 351
L 627 351
L 630 351
L 634 351
L 637 351
L 640 351
L 643 351
L 646 351
L 650 351
L 653 351
L 656 351
L 659 351
L 662 351
L 666 351
L 669 351
L 672 351
L 675 351
L 678 351
L 681 351
L 685 351
L 688 351
L 691 351
L 694 351
L 697 351
L 701 351
L 704 351
L 707 351
L 710 351
L 713 351
L 716 351
L 720 351
L 723 351
L 726 351
L 729 351
L 732 351
L 736 351
L 739 351
L 742 351
L 745 351
L 748 351
L 751 351
L 755 351
L 758 351
L 761 351
L 764 351
L 767 351
L 771 351
L 774 351
L 777 350
L 780 351
L 783 351
L 786 351
L 790 351
L 793 350
L 796 351
L 799 351
L 802 351
L 806 351
L 809 351
L 812 351
L 815 350
L 818 351
L 821 350
L 825 351
L 828 350
L 831 350
L 834 350
L 837 351
L 841 350
L 844 350
L 847 350
L 850 349
L 853 350
L 856 350
L 860 351
L 863 350
L 866 350
L 869 349
L 872 350
L 876 350
L 879 350
L 882 350
L 885 350
L 888 350
L 891 350
L 895 351
L 898 351
L 901 350
L 904 350
L 907 351
L 911 351
L 914 350
L 917 350
L 920 350
L 923 350
L 926 350
L 930 350
L 933 351
L 936 350
L 939 351
L 942 350
L 946 350
L 949 350
L 952 350
L 955 351
L 958 350
L 961 350" style="stroke-width:1;stroke:rgba(217,0,116,1.0);fill:none"/><text x="368" y="33" style="stroke-width:0;stroke:none;fill:rgba(51,51,51,1.0);font-size:23.0px;font-family:'Roboto Medium',sans-serif">Ried im Innkreis 12.12.2020</text><path  d="M 38 11
L 251 11
L 251 91
L 38 91
L 38 11" style="stroke-width:1;stroke:rgba(51,51,51,1.0);fill:rgba(255,255,255,1.0)"/><text x="43" y="26" style="stroke-width:0;stroke:none;fill:rgba(51,51,51,1.0);font-size:10.2px;font-family:'Roboto Medium',sans-serif">Sieben Tage Durschnitt Inzidenz Fälle</text><path  d="M 221 21
L 241 21" style="stroke-width:1;stroke:rgba(0,116,217,1.0);fill:none"/><text x="43" y="56" style="stroke-width:0;stroke:none;fill:rgba(51,51,51,1.0);font-size:10.2px;font-family:'Roboto Medium',sans-serif">Anzahl Faelle</text><path  d="M 110 51
L 241 51" style="stroke-width:1;stroke:rgba(0,217,101,1.0);fill:none"/><text x="43" y="86" style="stroke-width:0;stroke:none;fill:rgba(51,51,51,1.0);font-size:10.2px;font-family:'Roboto Medium',sans-serif">Anzahl Tot</text><path  d="M 98 81
L 241 81" style="stroke-width:1;stroke:rgba(217,0,116,1.0);fill:none"/></svg>