<svg xmlns="http://www.w3.org/2000/svg" xmlns:xlink="http://www.w3.org/1999/xlink" width="1024" height="400">\n<path  d="M 0 0
L 1024 0
L 1024 400
L 0 400
L 0 0" style="stroke-width:0;stroke:rgba(255,255,255,1.0);fill:rgba(255,255,255,1.0)"/><path  d="M 38 11
L 961 11
L 961 351
L 38 351
L 38 11" style="stroke-width:0;stroke:rgba(255,255,255,1.0);fill:rgba(255,255,255,1.0)"/><path  d="M 38 351
L 961 351" style="stroke-width:1;stroke:rgba(51,51,51,1.0);fill:none"/><path  d="M 38 351
L 38 356" style="stroke-width:1;stroke:rgba(51,51,51,1.0);fill:none"/><text x="5" y="373" style="stroke-width:0;stroke:none;fill:rgba(51,51,51,1.0);font-size:12.8px;font-family:'Roboto Medium',sans-serif">2020-02-26</text><path  d="M 154 351
L 154 356" style="stroke-width:1;stroke:rgba(51,51,51,1.0);fill:none"/><text x="121" y="373" style="stroke-width:0;stroke:none;fill:rgba(51,51,51,1.0);font-size:12.8px;font-family:'Roboto Medium',sans-serif">2020-03-29</text><path  d="M 269 351
L 269 356" style="stroke-width:1;stroke:rgba(51,51,51,1.0);fill:none"/><text x="236" y="373" style="stroke-width:0;stroke:none;fill:rgba(51,51,51,1.0);font-size:12.8px;font-family:'Roboto Medium',sans-serif">2020-04-30</text><path  d="M 385 351
L 385 356" style="stroke-width:1;stroke:rgba(51,51,51,1.0);fill:none"/><text x="352" y="373" style="stroke-width:0;stroke:none;fill:rgba(51,51,51,1.0);font-size:12.8px;font-family:'Roboto Medium',sans-serif">2020-06-01</text><path  d="M 500 351
L 500 356" style="stroke-width:1;stroke:rgba(51,51,51,1.0);fill:none"/><text x="467" y="373" style="stroke-width:0;stroke:none;fill:rgba(51,51,51,1.0);font-size:12.8px;font-family:'Roboto Medium',sans-serif">2020-07-03</text><path  d="M 615 351
L 615 356" style="stroke-width:1;stroke:rgba(51,51,51,1.0);fill:none"/><text x="582" y="373" style="stroke-width:0;stroke:none;fill:rgba(51,51,51,1.0);font-size:12.8px;font-family:'Roboto Medium',sans-serif">2020-08-04</text><path  d="M 731 351
L 731 356" style="stroke-width:1;stroke:rgba(51,51,51,1.0);fill:none"/><text x="698" y="373" style="stroke-width:0;stroke:none;fill:rgba(51,51,51,1.0);font-size:12.8px;font-family:'Roboto Medium',sans-serif">2020-09-05</text><path  d="M 846 351
L 846 356" style="stroke-width:1;stroke:rgba(51,51,51,1.0);fill:none"/><text x="813" y="373" style="stroke-width:0;stroke:none;fill:rgba(51,51,51,1.0);font-size:12.8px;font-family:'Roboto Medium',sans-serif">2020-10-07</text><path  d="M 961 351
L 961 356" style="stroke-width:1;stroke:rgba(51,51,51,1.0);fill:none"/><text x="928" y="373" style="stroke-width:0;stroke:none;fill:rgba(51,51,51,1.0);font-size:12.8px;font-family:'Roboto Medium',sans-serif">2020-11-08</text><text x="481" y="395" style="stroke-width:0;stroke:none;fill:rgba(51,51,51,1.0);font-size:12.8px;font-family:'Roboto Medium',sans-serif">Datum</text><path  d="M 962 351
L 962 11" style="stroke-width:1;stroke:rgba(51,51,51,1.0);fill:none"/><path  d="M 962 351
L 967 351" style="stroke-width:1;stroke:rgba(51,51,51,1.0);fill:none"/><text x="972" y="357" style="stroke-width:0;stroke:none;fill:rgba(51,51,51,1.0);font-size:12.8px;font-family:'Roboto Medium',sans-serif">0.00</text><path  d="M 962 308
L 967 308" style="stroke-width:1;stroke:rgba(51,51,51,1.0);fill:none"/><text x="972" y="314" style="stroke-width:0;stroke:none;fill:rgba(51,51,51,1.0);font-size:12.8px;font-family:'Roboto Medium',sans-serif">125.00</text><path  d="M 962 266
L 967 266" style="stroke-width:1;stroke:rgba(51,51,51,1.0);fill:none"/><text x="972" y="272" style="stroke-width:0;stroke:none;fill:rgba(51,51,51,1.0);font-size:12.8px;font-family:'Roboto Medium',sans-serif">250.00</text><path  d="M 962 223
L 967 223" style="stroke-width:1;stroke:rgba(51,51,51,1.0);fill:none"/><text x="972" y="229" style="stroke-width:0;stroke:none;fill:rgba(51,51,51,1.0);font-size:12.8px;font-family:'Roboto Medium',sans-serif">375.00</text><path  d="M 962 181
L 967 181" style="stroke-width:1;stroke:rgba(51,51,51,1.0);fill:none"/><text x="972" y="187" style="stroke-width:0;stroke:none;fill:rgba(51,51,51,1.0);font-size:12.8px;font-family:'Roboto Medium',sans-serif">500.00</text><path  d="M 962 138
L 967 138" style="stroke-width:1;stroke:rgba(51,51,51,1.0);fill:none"/><text x="972" y="144" style="stroke-width:0;stroke:none;fill:rgba(51,51,51,1.0);font-size:12.8px;font-family:'Roboto Medium',sans-serif">625.00</text><path  d="M 962 96
L 967 96" style="stroke-width:1;stroke:rgba(51,51,51,1.0);fill:none"/><text x="972" y="102" style="stroke-width:0;stroke:none;fill:rgba(51,51,51,1.0);font-size:12.8px;font-family:'Roboto Medium',sans-serif">750.00</text><path  d="M 962 53
L 967 53" style="stroke-width:1;stroke:rgba(51,51,51,1.0);fill:none"/><text x="972" y="59" style="stroke-width:0;stroke:none;fill:rgba(51,51,51,1.0);font-size:12.8px;font-family:'Roboto Medium',sans-serif">875.00</text><path  d="M 962 11
L 967 11" style="stroke-width:1;stroke:rgba(51,51,51,1.0);fill:none"/><text x="972" y="17" style="stroke-width:0;stroke:none;fill:rgba(51,51,51,1.0);font-size:12.8px;font-family:'Roboto Medium',sans-serif">1000.00</text><path  d="M 38 351
L 42 351
L 46 351
L 49 351
L 53 351
L 57 351
L 60 351
L 64 351
L 67 351
L 71 351
L 75 351
L 78 351
L 82 351
L 85 349
L 89 349
L 93 348
L 96 347
L 100 346
L 103 346
L 107 346
L 111 347
L 114 346
L 118 346
L 121 346
L 125 347
L 129 347
L 132 345
L 136 343
L 139 344
L 143 345
L 147 346
L 150 346
L 154 346
L 157 347
L 161 349
L 165 347
L 168 347
L 172 346
L 176 346
L 179 345
L 183 346
L 186 345
L 190 342
L 194 343
L 197 343
L 201 343
L 204 344
L 208 344
L 212 345
L 215 349
L 219 349
L 222 349
L 226 349
L 230 349
L 233 350
L 237 350
L 240 350
L 244 350
L 248 350
L 251 350
L 255 350
L 258 350
L 262 350
L 266 350
L 269 351
L 273 351
L 276 351
L 280 351
L 284 351
L 287 351
L 291 351
L 294 351
L 298 351
L 302 351
L 305 351
L 309 351
L 313 351
L 316 351
L 320 351
L 323 351
L 327 351
L 331 351
L 334 351
L 338 351
L 341 351
L 345 351
L 349 351
L 352 351
L 356 351
L 359 351
L 363 351
L 367 351
L 370 351
L 374 351
L 377 351
L 381 351
L 385 351
L 388 351
L 392 351
L 395 351
L 399 351
L 403 351
L 406 351
L 410 351
L 413 351
L 417 351
L 421 351
L 424 351
L 428 351
L 431 351
L 435 351
L 439 351
L 442 351
L 446 351
L 450 351
L 453 351
L 457 351
L 460 351
L 464 351
L 468 351
L 471 351
L 475 351
L 478 351
L 482 351
L 486 351
L 489 351
L 493 349
L 496 348
L 500 343
L 504 343
L 507 341
L 511 340
L 514 337
L 518 337
L 522 338
L 525 343
L 529 343
L 532 345
L 536 346
L 540 348
L 543 349
L 547 349
L 550 349
L 554 348
L 558 348
L 561 348
L 565 349
L 569 349
L 572 349
L 576 350
L 579 351
L 583 351
L 587 350
L 590 350
L 594 350
L 597 350
L 601 350
L 605 350
L 608 350
L 612 351
L 615 351
L 619 350
L 623 350
L 626 350
L 630 350
L 633 350
L 637 349
L 641 349
L 644 349
L 648 346
L 651 345
L 655 345
L 659 345
L 662 346
L 666 343
L 669 344
L 673 344
L 677 346
L 680 346
L 684 346
L 687 346
L 691 347
L 695 346
L 698 348
L 702 346
L 706 346
L 709 346
L 713 346
L 716 346
L 720 346
L 724 346
L 727 348
L 731 348
L 734 348
L 738 349
L 742 349
L 745 351
L 749 350
L 752 348
L 756 346
L 760 346
L 763 344
L 767 344
L 770 341
L 774 341
L 778 339
L 781 340
L 785 337
L 788 322
L 792 315
L 796 315
L 799 315
L 803 314
L 806 312
L 810 312
L 814 326
L 817 322
L 821 321
L 824 314
L 828 314
L 832 316
L 835 317
L 839 316
L 843 320
L 846 320
L 850 323
L 853 326
L 857 317
L 861 315
L 864 319
L 868 316
L 871 305
L 875 302
L 879 299
L 882 303
L 886 303
L 889 292
L 893 272
L 897 274
L 900 262
L 904 233
L 907 222
L 911 213
L 915 206
L 918 209
L 922 191
L 925 193
L 929 187
L 933 166
L 936 156
L 940 106
L 943 87
L 947 53
L 951 33
L 954 18
L 958 45
L 961 14" style="stroke-width:1;stroke:rgba(0,116,217,1.0);fill:none"/><path  d="M 38 351
L 42 351
L 46 351
L 49 351
L 53 351
L 57 351
L 60 351
L 64 351
L 67 351
L 71 351
L 75 351
L 78 351
L 82 351
L 85 349
L 89 351
L 93 350
L 96 350
L 100 350
L 103 351
L 107 351
L 111 350
L 114 350
L 118 350
L 121 350
L 125 351
L 129 350
L 132 349
L 136 349
L 139 351
L 143 350
L 147 351
L 150 351
L 154 351
L 157 350
L 161 350
L 165 349
L 168 350
L 172 350
L 176 351
L 179 350
L 183 351
L 186 350
L 190 348
L 194 350
L 197 351
L 201 351
L 204 351
L 208 350
L 212 351
L 215 351
L 219 350
L 222 351
L 226 351
L 230 351
L 233 351
L 237 351
L 240 351
L 244 350
L 248 351
L 251 351
L 255 351
L 258 351
L 262 351
L 266 351
L 269 351
L 273 351
L 276 351
L 280 351
L 284 351
L 287 351
L 291 351
L 294 351
L 298 351
L 302 351
L 305 351
L 309 351
L 313 351
L 316 351
L 320 351
L 323 351
L 327 351
L 331 351
L 334 351
L 338 351
L 341 351
L 345 351
L 349 351
L 352 351
L 356 351
L 359 351
L 363 351
L 367 351
L 370 351
L 374 351
L 377 351
L 381 351
L 385 351
L 388 351
L 392 351
L 395 351
L 399 351
L 403 351
L 406 351
L 410 351
L 413 351
L 417 351
L 421 351
L 424 351
L 428 351
L 431 351
L 435 351
L 439 351
L 442 351
L 446 351
L 450 351
L 453 351
L 457 351
L 460 351
L 464 351
L 468 351
L 471 351
L 475 351
L 478 351
L 482 351
L 486 351
L 489 351
L 493 350
L 496 349
L 500 347
L 504 351
L 507 349
L 511 350
L 514 348
L 518 350
L 522 350
L 525 351
L 529 351
L 532 351
L 536 351
L 540 350
L 543 351
L 547 350
L 550 350
L 554 350
L 558 351
L 561 351
L 565 351
L 569 351
L 572 351
L 576 351
L 579 351
L 583 351
L 587 350
L 590 351
L 594 351
L 597 351
L 601 351
L 605 351
L 608 351
L 612 351
L 615 351
L 619 350
L 623 351
L 626 351
L 630 351
L 633 351
L 637 350
L 641 351
L 644 350
L 648 348
L 651 350
L 655 351
L 659 351
L 662 351
L 666 349
L 669 351
L 673 349
L 677 351
L 680 351
L 684 351
L 687 351
L 691 350
L 695 350
L 698 351
L 702 349
L 706 351
L 709 351
L 713 350
L 716 350
L 720 350
L 724 351
L 727 351
L 731 351
L 734 351
L 738 351
L 742 351
L 745 351
L 749 350
L 752 349
L 756 349
L 760 350
L 763 350
L 767 350
L 770 348
L 774 350
L 778 348
L 781 350
L 785 348
L 788 340
L 792 346
L 796 348
L 799 350
L 803 347
L 806 349
L 810 349
L 814 349
L 817 343
L 821 348
L 824 346
L 828 347
L 832 351
L 835 349
L 839 348
L 843 346
L 846 348
L 850 348
L 853 348
L 857 345
L 861 348
L 864 350
L 868 344
L 871 341
L 875 346
L 879 347
L 882 347
L 886 348
L 889 343
L 893 332
L 897 343
L 900 338
L 904 329
L 907 340
L 911 343
L 915 338
L 918 335
L 922 332
L 925 340
L 929 325
L 933 328
L 936 337
L 940 307
L 943 322
L 947 311
L 951 327
L 954 315
L 958 344
L 961 318" style="stroke-width:1;stroke:rgba(0,217,101,1.0);fill:none"/><path  d="M 38 351
L 42 351
L 46 351
L 49 351
L 53 351
L 57 351
L 60 351
L 64 351
L 67 351
L 71 351
L 75 351
L 78 351
L 82 351
L 85 351
L 89 351
L 93 351
L 96 351
L 100 351
L 103 351
L 107 351
L 111 351
L 114 351
L 118 351
L 121 351
L 125 351
L 129 351
L 132 351
L 136 351
L 139 351
L 143 351
L 147 351
L 150 351
L 154 351
L 157 351
L 161 351
L 165 351
L 168 351
L 172 351
L 176 351
L 179 351
L 183 351
L 186 351
L 190 351
L 194 351
L 197 351
L 201 351
L 204 351
L 208 351
L 212 351
L 215 351
L 219 351
L 222 351
L 226 351
L 230 351
L 233 351
L 237 351
L 240 351
L 244 351
L 248 351
L 251 351
L 255 351
L 258 351
L 262 351
L 266 351
L 269 351
L 273 351
L 276 351
L 280 351
L 284 351
L 287 351
L 291 351
L 294 351
L 298 351
L 302 351
L 305 351
L 309 351
L 313 351
L 316 351
L 320 351
L 323 351
L 327 351
L 331 351
L 334 351
L 338 351
L 341 351
L 345 351
L 349 351
L 352 351
L 356 351
L 359 351
L 363 351
L 367 351
L 370 351
L 374 351
L 377 351
L 381 351
L 385 351
L 388 351
L 392 351
L 395 351
L 399 351
L 403 351
L 406 351
L 410 351
L 413 351
L 417 351
L 421 351
L 424 351
L 428 351
L 431 351
L 435 351
L 439 351
L 442 351
L 446 351
L 450 351
L 453 351
L 457 351
L 460 351
L 464 351
L 468 351
L 471 351
L 475 351
L 478 351
L 482 351
L 486 351
L 489 351
L 493 351
L 496 351
L 500 351
L 504 351
L 507 351
L 511 351
L 514 351
L 518 351
L 522 351
L 525 351
L 529 351
L 532 351
L 536 351
L 540 351
L 543 351
L 547 351
L 550 351
L 554 351
L 558 351
L 561 351
L 565 351
L 569 351
L 572 351
L 576 351
L 579 351
L 583 351
L 587 351
L 590 351
L 594 351
L 597 351
L 601 351
L 605 351
L 608 351
L 612 351
L 615 351
L 619 351
L 623 351
L 626 351
L 630 351
L 633 351
L 637 351
L 641 351
L 644 351
L 648 351
L 651 351
L 655 351
L 659 351
L 662 351
L 666 351
L 669 351
L 673 351
L 677 351
L 680 351
L 684 351
L 687 351
L 691 351
L 695 351
L 698 351
L 702 351
L 706 351
L 709 351
L 713 351
L 716 351
L 720 351
L 724 351
L 727 351
L 731 351
L 734 351
L 738 351
L 742 351
L 745 351
L 749 351
L 752 351
L 756 351
L 760 351
L 763 351
L 767 351
L 770 351
L 774 351
L 778 351
L 781 351
L 785 351
L 788 351
L 792 351
L 796 351
L 799 351
L 803 351
L 806 351
L 810 351
L 814 351
L 817 351
L 821 351
L 824 351
L 828 351
L 832 351
L 835 351
L 839 351
L 843 351
L 846 351
L 850 351
L 853 351
L 857 351
L 861 351
L 864 351
L 868 351
L 871 351
L 875 351
L 879 351
L 882 351
L 886 351
L 889 351
L 893 350
L 897 351
L 900 351
L 904 351
L 907 351
L 911 351
L 915 351
L 918 350
L 922 351
L 925 350
L 929 351
L 933 351
L 936 351
L 940 351
L 943 351
L 947 349
L 951 350
L 954 351
L 958 350
L 961 350" style="stroke-width:1;stroke:rgba(217,0,116,1.0);fill:none"/><text x="368" y="33" style="stroke-width:0;stroke:none;fill:rgba(51,51,51,1.0);font-size:23.0px;font-family:'Roboto Medium',sans-serif">Ried im Innkreis 08.11.2020</text><path  d="M 38 11
L 251 11
L 251 91
L 38 91
L 38 11" style="stroke-width:1;stroke:rgba(51,51,51,1.0);fill:rgba(255,255,255,1.0)"/><text x="43" y="26" style="stroke-width:0;stroke:none;fill:rgba(51,51,51,1.0);font-size:10.2px;font-family:'Roboto Medium',sans-serif">Sieben Tage Durschnitt Inzidenz Fälle</text><path  d="M 221 21
L 241 21" style="stroke-width:1;stroke:rgba(0,116,217,1.0);fill:none"/><text x="43" y="56" style="stroke-width:0;stroke:none;fill:rgba(51,51,51,1.0);font-size:10.2px;font-family:'Roboto Medium',sans-serif">Anzahl Faelle</text><path  d="M 110 51
L 241 51" style="stroke-width:1;stroke:rgba(0,217,101,1.0);fill:none"/><text x="43" y="86" style="stroke-width:0;stroke:none;fill:rgba(51,51,51,1.0);font-size:10.2px;font-family:'Roboto Medium',sans-serif">Anzahl Tot</text><path  d="M 98 81
L 241 81" style="stroke-width:1;stroke:rgba(217,0,116,1.0);fill:none"/></svg>