<svg xmlns="http://www.w3.org/2000/svg" xmlns:xlink="http://www.w3.org/1999/xlink" width="1024" height="400">\n<path  d="M 0 0
L 1024 0
L 1024 400
L 0 400
L 0 0" style="stroke-width:0;stroke:rgba(255,255,255,1.0);fill:rgba(255,255,255,1.0)"/><path  d="M 38 11
L 961 11
L 961 351
L 38 351
L 38 11" style="stroke-width:0;stroke:rgba(255,255,255,1.0);fill:rgba(255,255,255,1.0)"/><path  d="M 38 351
L 961 351" style="stroke-width:1;stroke:rgba(51,51,51,1.0);fill:none"/><path  d="M 38 351
L 38 356" style="stroke-width:1;stroke:rgba(51,51,51,1.0);fill:none"/><text x="5" y="373" style="stroke-width:0;stroke:none;fill:rgba(51,51,51,1.0);font-size:12.8px;font-family:'Roboto Medium',sans-serif">2020-02-26</text><path  d="M 154 351
L 154 356" style="stroke-width:1;stroke:rgba(51,51,51,1.0);fill:none"/><text x="121" y="373" style="stroke-width:0;stroke:none;fill:rgba(51,51,51,1.0);font-size:12.8px;font-family:'Roboto Medium',sans-serif">2020-06-24</text><path  d="M 269 351
L 269 356" style="stroke-width:1;stroke:rgba(51,51,51,1.0);fill:none"/><text x="236" y="373" style="stroke-width:0;stroke:none;fill:rgba(51,51,51,1.0);font-size:12.8px;font-family:'Roboto Medium',sans-serif">2020-10-21</text><path  d="M 385 351
L 385 356" style="stroke-width:1;stroke:rgba(51,51,51,1.0);fill:none"/><text x="352" y="373" style="stroke-width:0;stroke:none;fill:rgba(51,51,51,1.0);font-size:12.8px;font-family:'Roboto Medium',sans-serif">2021-02-17</text><path  d="M 500 351
L 500 356" style="stroke-width:1;stroke:rgba(51,51,51,1.0);fill:none"/><text x="467" y="373" style="stroke-width:0;stroke:none;fill:rgba(51,51,51,1.0);font-size:12.8px;font-family:'Roboto Medium',sans-serif">2021-06-16</text><path  d="M 615 351
L 615 356" style="stroke-width:1;stroke:rgba(51,51,51,1.0);fill:none"/><text x="582" y="373" style="stroke-width:0;stroke:none;fill:rgba(51,51,51,1.0);font-size:12.8px;font-family:'Roboto Medium',sans-serif">2021-10-13</text><path  d="M 731 351
L 731 356" style="stroke-width:1;stroke:rgba(51,51,51,1.0);fill:none"/><text x="698" y="373" style="stroke-width:0;stroke:none;fill:rgba(51,51,51,1.0);font-size:12.8px;font-family:'Roboto Medium',sans-serif">2022-02-09</text><path  d="M 846 351
L 846 356" style="stroke-width:1;stroke:rgba(51,51,51,1.0);fill:none"/><text x="813" y="373" style="stroke-width:0;stroke:none;fill:rgba(51,51,51,1.0);font-size:12.8px;font-family:'Roboto Medium',sans-serif">2022-06-08</text><path  d="M 961 351
L 961 356" style="stroke-width:1;stroke:rgba(51,51,51,1.0);fill:none"/><text x="928" y="373" style="stroke-width:0;stroke:none;fill:rgba(51,51,51,1.0);font-size:12.8px;font-family:'Roboto Medium',sans-serif">2022-10-06</text><text x="481" y="395" style="stroke-width:0;stroke:none;fill:rgba(51,51,51,1.0);font-size:12.8px;font-family:'Roboto Medium',sans-serif">Datum</text><path  d="M 962 351
L 962 11" style="stroke-width:1;stroke:rgba(51,51,51,1.0);fill:none"/><path  d="M 962 351
L 967 351" style="stroke-width:1;stroke:rgba(51,51,51,1.0);fill:none"/><text x="972" y="357" style="stroke-width:0;stroke:none;fill:rgba(51,51,51,1.0);font-size:12.8px;font-family:'Roboto Medium',sans-serif">0.00</text><path  d="M 962 308
L 967 308" style="stroke-width:1;stroke:rgba(51,51,51,1.0);fill:none"/><text x="972" y="314" style="stroke-width:0;stroke:none;fill:rgba(51,51,51,1.0);font-size:12.8px;font-family:'Roboto Medium',sans-serif">540.00</text><path  d="M 962 265
L 967 265" style="stroke-width:1;stroke:rgba(51,51,51,1.0);fill:none"/><text x="972" y="271" style="stroke-width:0;stroke:none;fill:rgba(51,51,51,1.0);font-size:12.8px;font-family:'Roboto Medium',sans-serif">1080.00</text><path  d="M 962 222
L 967 222" style="stroke-width:1;stroke:rgba(51,51,51,1.0);fill:none"/><text x="972" y="228" style="stroke-width:0;stroke:none;fill:rgba(51,51,51,1.0);font-size:12.8px;font-family:'Roboto Medium',sans-serif">1620.00</text><path  d="M 962 181
L 967 181" style="stroke-width:1;stroke:rgba(51,51,51,1.0);fill:none"/><text x="972" y="187" style="stroke-width:0;stroke:none;fill:rgba(51,51,51,1.0);font-size:12.8px;font-family:'Roboto Medium',sans-serif">2150.00</text><path  d="M 962 138
L 967 138" style="stroke-width:1;stroke:rgba(51,51,51,1.0);fill:none"/><text x="972" y="144" style="stroke-width:0;stroke:none;fill:rgba(51,51,51,1.0);font-size:12.8px;font-family:'Roboto Medium',sans-serif">2690.00</text><path  d="M 962 95
L 967 95" style="stroke-width:1;stroke:rgba(51,51,51,1.0);fill:none"/><text x="972" y="101" style="stroke-width:0;stroke:none;fill:rgba(51,51,51,1.0);font-size:12.8px;font-family:'Roboto Medium',sans-serif">3230.00</text><path  d="M 962 52
L 967 52" style="stroke-width:1;stroke:rgba(51,51,51,1.0);fill:none"/><text x="972" y="58" style="stroke-width:0;stroke:none;fill:rgba(51,51,51,1.0);font-size:12.8px;font-family:'Roboto Medium',sans-serif">3770.00</text><path  d="M 962 11
L 967 11" style="stroke-width:1;stroke:rgba(51,51,51,1.0);fill:none"/><text x="972" y="17" style="stroke-width:0;stroke:none;fill:rgba(51,51,51,1.0);font-size:12.8px;font-family:'Roboto Medium',sans-serif">4300.00</text><path  d="M 38 351
L 39 351
L 40 351
L 41 351
L 42 351
L 43 351
L 44 351
L 45 351
L 46 351
L 47 351
L 48 351
L 49 351
L 50 351
L 51 350
L 52 350
L 53 350
L 54 350
L 55 349
L 56 349
L 57 349
L 58 350
L 59 349
L 60 349
L 61 349
L 62 350
L 63 350
L 64 349
L 65 349
L 66 349
L 67 349
L 68 349
L 69 349
L 69 349
L 70 350
L 71 350
L 72 350
L 73 350
L 74 349
L 75 349
L 76 349
L 77 349
L 78 349
L 79 349
L 80 349
L 81 349
L 82 349
L 83 349
L 84 349
L 85 349
L 86 350
L 87 350
L 88 350
L 89 350
L 90 350
L 91 350
L 92 350
L 93 350
L 94 350
L 95 350
L 96 350
L 97 350
L 98 350
L 99 350
L 100 350
L 100 351
L 101 351
L 102 351
L 103 351
L 104 351
L 105 351
L 106 351
L 107 351
L 108 351
L 109 351
L 110 351
L 111 351
L 112 351
L 113 351
L 114 351
L 115 351
L 116 351
L 117 351
L 118 351
L 119 351
L 120 351
L 121 351
L 122 351
L 123 351
L 124 351
L 125 351
L 126 351
L 127 351
L 128 351
L 129 351
L 130 351
L 131 351
L 131 351
L 132 351
L 133 351
L 134 351
L 135 351
L 136 351
L 137 351
L 138 351
L 139 351
L 140 351
L 141 351
L 142 351
L 143 351
L 144 351
L 145 351
L 146 351
L 147 351
L 148 351
L 149 351
L 150 351
L 151 351
L 152 351
L 153 351
L 154 351
L 155 351
L 156 351
L 157 351
L 158 351
L 159 351
L 160 351
L 161 350
L 162 350
L 162 349
L 163 349
L 164 348
L 165 348
L 166 347
L 167 347
L 168 348
L 169 349
L 170 349
L 171 349
L 172 349
L 173 350
L 174 350
L 175 350
L 176 350
L 177 350
L 178 350
L 179 350
L 180 350
L 181 350
L 182 350
L 183 350
L 184 351
L 185 351
L 186 350
L 187 350
L 188 350
L 189 350
L 190 350
L 191 350
L 192 350
L 192 351
L 193 351
L 194 350
L 195 350
L 196 350
L 197 350
L 198 350
L 199 350
L 200 350
L 201 350
L 202 349
L 203 349
L 204 349
L 205 349
L 206 349
L 207 349
L 208 349
L 209 349
L 210 349
L 211 349
L 212 349
L 213 349
L 214 349
L 215 349
L 216 350
L 217 349
L 218 349
L 219 349
L 220 349
L 221 349
L 222 349
L 223 349
L 223 350
L 224 350
L 225 350
L 226 350
L 227 350
L 228 351
L 229 350
L 230 350
L 231 349
L 232 349
L 233 349
L 234 349
L 235 348
L 236 348
L 237 348
L 238 348
L 239 347
L 240 344
L 241 342
L 242 342
L 243 342
L 244 342
L 245 342
L 246 342
L 247 345
L 248 344
L 249 344
L 250 342
L 251 342
L 252 343
L 253 343
L 254 343
L 254 344
L 255 344
L 256 344
L 257 345
L 258 343
L 259 342
L 260 343
L 261 343
L 262 340
L 263 339
L 264 339
L 265 340
L 266 339
L 267 337
L 268 332
L 269 333
L 270 330
L 271 323
L 272 321
L 273 319
L 274 317
L 275 318
L 276 314
L 277 314
L 278 312
L 279 308
L 280 305
L 281 294
L 282 289
L 283 282
L 284 277
L 285 273
L 285 280
L 286 272
L 287 274
L 288 271
L 289 274
L 290 272
L 291 271
L 292 270
L 293 275
L 294 279
L 295 282
L 296 286
L 297 284
L 298 289
L 299 288
L 300 292
L 301 294
L 302 297
L 303 299
L 304 308
L 305 310
L 306 312
L 307 314
L 308 316
L 309 320
L 310 322
L 311 322
L 312 325
L 313 326
L 314 325
L 315 327
L 315 332
L 316 331
L 317 332
L 318 332
L 319 331
L 320 330
L 321 332
L 322 329
L 323 332
L 324 334
L 325 336
L 326 336
L 327 338
L 328 338
L 329 338
L 330 337
L 331 337
L 332 337
L 333 338
L 334 336
L 335 335
L 336 336
L 337 336
L 338 336
L 339 336
L 340 333
L 341 335
L 342 335
L 343 334
L 344 337
L 345 335
L 346 335
L 346 338
L 347 338
L 348 340
L 349 341
L 350 339
L 351 339
L 352 337
L 353 336
L 354 336
L 355 336
L 356 336
L 357 336
L 358 336
L 359 337
L 360 338
L 361 338
L 362 339
L 363 339
L 364 340
L 365 341
L 366 341
L 367 341
L 368 342
L 369 342
L 370 342
L 371 343
L 372 343
L 373 343
L 374 343
L 375 343
L 376 343
L 377 344
L 377 344
L 378 344
L 379 345
L 380 346
L 381 346
L 382 346
L 383 345
L 384 345
L 385 344
L 386 343
L 387 342
L 388 342
L 389 341
L 390 340
L 391 339
L 392 338
L 393 338
L 394 339
L 395 338
L 396 337
L 397 337
L 398 336
L 399 336
L 400 337
L 401 336
L 402 336
L 403 335
L 404 334
L 405 334
L 406 333
L 407 333
L 408 332
L 408 330
L 409 330
L 410 332
L 411 333
L 412 331
L 413 330
L 414 331
L 415 332
L 416 333
L 417 333
L 418 330
L 419 333
L 420 332
L 421 332
L 422 333
L 423 334
L 424 333
L 425 334
L 426 334
L 427 335
L 428 333
L 429 332
L 430 331
L 431 330
L 432 328
L 433 328
L 434 327
L 435 327
L 436 327
L 437 325
L 438 324
L 438 326
L 439 327
L 440 327
L 441 328
L 442 329
L 443 331
L 444 332
L 445 332
L 446 332
L 447 333
L 448 332
L 449 333
L 450 331
L 451 333
L 452 334
L 453 334
L 454 335
L 455 335
L 456 336
L 457 339
L 458 340
L 459 341
L 460 342
L 461 343
L 462 344
L 463 345
L 464 346
L 465 346
L 466 346
L 467 347
L 468 347
L 469 347
L 469 347
L 470 346
L 471 346
L 472 346
L 473 346
L 474 346
L 475 346
L 476 347
L 477 347
L 478 346
L 479 346
L 480 345
L 481 344
L 482 345
L 483 343
L 484 343
L 485 343
L 486 344
L 487 345
L 488 346
L 489 345
L 490 346
L 491 346
L 492 346
L 493 346
L 494 347
L 495 347
L 496 348
L 497 349
L 498 350
L 499 350
L 500 350
L 500 350
L 501 350
L 502 350
L 503 350
L 504 350
L 505 350
L 506 350
L 507 350
L 508 350
L 509 350
L 510 350
L 511 350
L 512 350
L 513 350
L 514 350
L 515 350
L 516 350
L 517 350
L 518 350
L 519 350
L 520 350
L 521 350
L 522 350
L 523 350
L 524 350
L 525 350
L 526 350
L 527 350
L 528 350
L 529 350
L 530 349
L 531 349
L 531 349
L 532 349
L 533 349
L 534 349
L 535 349
L 536 349
L 537 349
L 538 349
L 539 349
L 540 349
L 541 349
L 542 349
L 543 349
L 544 348
L 545 348
L 546 348
L 547 347
L 548 348
L 549 348
L 550 348
L 551 348
L 552 347
L 553 346
L 554 346
L 555 346
L 556 345
L 557 344
L 558 344
L 559 344
L 560 345
L 561 345
L 562 344
L 562 344
L 563 344
L 564 343
L 565 343
L 566 342
L 567 341
L 568 341
L 569 341
L 570 342
L 571 342
L 572 342
L 573 342
L 574 343
L 575 342
L 576 341
L 577 338
L 578 337
L 579 336
L 580 334
L 581 333
L 582 331
L 583 329
L 584 330
L 585 330
L 586 330
L 587 330
L 588 329
L 589 329
L 590 327
L 591 327
L 592 328
L 592 329
L 593 327
L 594 328
L 595 328
L 596 327
L 597 325
L 598 324
L 599 323
L 600 325
L 601 324
L 602 325
L 603 328
L 604 330
L 605 330
L 606 330
L 607 330
L 608 331
L 609 332
L 610 332
L 611 333
L 612 334
L 613 335
L 614 335
L 615 334
L 616 335
L 617 334
L 618 333
L 619 332
L 620 330
L 621 328
L 622 327
L 623 325
L 623 324
L 624 322
L 625 321
L 626 320
L 627 320
L 628 318
L 629 310
L 630 309
L 631 306
L 632 300
L 633 297
L 634 290
L 635 284
L 636 275
L 637 266
L 638 259
L 639 251
L 640 245
L 641 233
L 642 230
L 643 232
L 644 228
L 645 226
L 646 221
L 647 214
L 648 214
L 649 203
L 650 196
L 651 191
L 652 183
L 653 182
L 654 175
L 654 174
L 655 181
L 656 195
L 657 197
L 658 211
L 659 220
L 660 239
L 661 252
L 662 262
L 663 263
L 664 278
L 665 283
L 666 293
L 667 299
L 668 306
L 669 310
L 670 319
L 671 320
L 672 321
L 673 322
L 674 325
L 675 325
L 676 327
L 677 325
L 678 330
L 679 332
L 680 334
L 681 335
L 682 339
L 683 341
L 684 344
L 685 344
L 685 345
L 686 346
L 687 345
L 688 342
L 689 342
L 690 340
L 691 340
L 692 340
L 693 339
L 694 338
L 695 336
L 696 332
L 697 328
L 698 325
L 699 321
L 700 313
L 701 310
L 702 305
L 703 299
L 704 292
L 705 284
L 706 277
L 707 279
L 708 272
L 709 265
L 710 258
L 711 251
L 712 247
L 713 243
L 714 235
L 715 234
L 715 225
L 716 212
L 717 204
L 718 194
L 719 187
L 720 180
L 721 180
L 722 173
L 723 174
L 724 165
L 725 169
L 726 162
L 727 160
L 728 142
L 729 139
L 730 132
L 731 135
L 732 130
L 733 133
L 734 134
L 735 142
L 736 144
L 737 153
L 738 154
L 739 163
L 740 161
L 741 167
L 742 177
L 743 181
L 744 181
L 745 182
L 746 179
L 746 179
L 747 170
L 748 164
L 749 150
L 750 149
L 751 152
L 752 150
L 753 152
L 754 156
L 755 145
L 756 146
L 757 130
L 758 105
L 759 88
L 760 60
L 761 45
L 762 43
L 763 23
L 764 19
L 765 14
L 766 16
L 767 20
L 768 31
L 769 33
L 770 44
L 771 51
L 772 78
L 773 88
L 774 103
L 775 112
L 776 130
L 777 148
L 777 168
L 778 178
L 779 191
L 780 213
L 781 221
L 782 224
L 783 240
L 784 249
L 785 253
L 786 260
L 787 262
L 788 267
L 789 268
L 790 277
L 791 282
L 792 292
L 793 295
L 794 299
L 795 301
L 796 304
L 797 303
L 798 302
L 799 304
L 800 305
L 801 309
L 802 311
L 803 308
L 804 312
L 805 315
L 806 315
L 807 315
L 808 315
L 808 316
L 809 318
L 810 317
L 811 318
L 812 319
L 813 320
L 814 319
L 815 319
L 816 322
L 817 325
L 818 328
L 819 330
L 820 330
L 821 333
L 822 334
L 823 335
L 824 336
L 825 335
L 826 336
L 827 338
L 828 337
L 829 337
L 830 337
L 831 338
L 832 339
L 833 340
L 834 340
L 835 342
L 836 342
L 837 342
L 838 343
L 838 343
L 839 341
L 840 340
L 841 339
L 842 339
L 843 339
L 844 340
L 845 339
L 846 339
L 847 340
L 848 340
L 849 340
L 850 341
L 851 338
L 852 337
L 853 338
L 854 336
L 855 333
L 856 332
L 857 330
L 858 326
L 859 327
L 860 320
L 861 321
L 862 317
L 863 316
L 864 312
L 865 317
L 866 315
L 867 314
L 868 307
L 869 311
L 869 308
L 870 302
L 871 301
L 872 294
L 873 287
L 874 276
L 875 270
L 876 272
L 877 272
L 878 260
L 879 257
L 880 257
L 881 260
L 882 261
L 883 260
L 884 266
L 885 267
L 886 275
L 887 279
L 888 291
L 889 293
L 890 295
L 891 292
L 892 299
L 893 299
L 894 306
L 895 309
L 896 313
L 897 314
L 898 320
L 899 320
L 900 325
L 900 326
L 901 327
L 902 328
L 903 329
L 904 326
L 905 328
L 906 326
L 907 327
L 908 326
L 909 324
L 910 324
L 911 328
L 912 327
L 913 328
L 914 327
L 915 328
L 916 329
L 917 330
L 918 327
L 919 330
L 920 332
L 921 332
L 922 332
L 923 333
L 924 332
L 925 332
L 926 329
L 927 328
L 928 329
L 929 330
L 930 330
L 931 331
L 931 331
L 932 333
L 933 333
L 934 332
L 935 332
L 936 332
L 937 329
L 938 327
L 939 323
L 940 321
L 941 320
L 942 318
L 943 315
L 944 315
L 945 313
L 946 309
L 947 304
L 948 305
L 949 300
L 950 291
L 951 289
L 952 286
L 953 277
L 954 278
L 955 256
L 956 252
L 957 256
L 958 254
L 959 253
L 960 250
L 961 238
L 961 247" style="stroke-width:1;stroke:rgba(0,116,217,1.0);fill:none"/><path  d="M 38 351
L 39 351
L 40 351
L 41 351
L 42 351
L 43 351
L 44 351
L 45 351
L 46 351
L 47 351
L 48 351
L 49 351
L 50 351
L 51 350
L 52 351
L 53 350
L 54 350
L 55 350
L 56 351
L 57 351
L 58 350
L 59 350
L 60 350
L 61 350
L 62 351
L 63 350
L 64 350
L 65 350
L 66 351
L 67 350
L 68 351
L 69 351
L 69 351
L 70 350
L 71 350
L 72 350
L 73 350
L 74 350
L 75 351
L 76 350
L 77 351
L 78 350
L 79 350
L 80 350
L 81 351
L 82 351
L 83 351
L 84 350
L 85 351
L 86 351
L 87 350
L 88 351
L 89 351
L 90 351
L 91 351
L 92 351
L 93 351
L 94 350
L 95 351
L 96 351
L 97 351
L 98 351
L 99 351
L 100 351
L 100 351
L 101 351
L 102 351
L 103 351
L 104 351
L 105 351
L 106 351
L 107 351
L 108 351
L 109 351
L 110 351
L 111 351
L 112 351
L 113 351
L 114 351
L 115 351
L 116 351
L 117 351
L 118 351
L 119 351
L 120 351
L 121 351
L 122 351
L 123 351
L 124 351
L 125 351
L 126 351
L 127 351
L 128 351
L 129 351
L 130 351
L 131 351
L 131 351
L 132 351
L 133 351
L 134 351
L 135 351
L 136 351
L 137 351
L 138 351
L 139 351
L 140 351
L 141 351
L 142 351
L 143 351
L 144 351
L 145 351
L 146 351
L 147 351
L 148 351
L 149 351
L 150 351
L 151 351
L 152 351
L 153 351
L 154 351
L 155 351
L 156 351
L 157 351
L 158 351
L 159 351
L 160 351
L 161 350
L 162 350
L 162 350
L 163 351
L 164 350
L 165 350
L 166 350
L 167 350
L 168 350
L 169 351
L 170 351
L 171 351
L 172 351
L 173 350
L 174 351
L 175 350
L 176 350
L 177 350
L 178 351
L 179 351
L 180 351
L 181 351
L 182 351
L 183 351
L 184 351
L 185 351
L 186 350
L 187 351
L 188 351
L 189 351
L 190 351
L 191 351
L 192 351
L 192 351
L 193 351
L 194 350
L 195 351
L 196 351
L 197 351
L 198 351
L 199 350
L 200 351
L 201 350
L 202 350
L 203 350
L 204 351
L 205 351
L 206 351
L 207 350
L 208 351
L 209 350
L 210 351
L 211 351
L 212 351
L 213 351
L 214 350
L 215 350
L 216 351
L 217 350
L 218 351
L 219 351
L 220 350
L 221 350
L 222 350
L 223 351
L 223 351
L 224 351
L 225 351
L 226 351
L 227 351
L 228 351
L 229 350
L 230 350
L 231 350
L 232 350
L 233 350
L 234 350
L 235 350
L 236 350
L 237 350
L 238 350
L 239 350
L 240 348
L 241 349
L 242 350
L 243 350
L 244 350
L 245 350
L 246 350
L 247 350
L 248 349
L 249 350
L 250 349
L 251 350
L 252 351
L 253 350
L 254 350
L 254 349
L 255 350
L 256 350
L 257 350
L 258 349
L 259 350
L 260 350
L 261 349
L 262 348
L 263 349
L 264 350
L 265 350
L 266 350
L 267 349
L 268 346
L 269 349
L 270 348
L 271 346
L 272 348
L 273 349
L 274 348
L 275 347
L 276 346
L 277 348
L 278 344
L 279 345
L 280 347
L 281 340
L 282 344
L 283 341
L 284 345
L 285 342
L 285 349
L 286 343
L 287 341
L 288 342
L 289 343
L 290 343
L 291 342
L 292 349
L 293 346
L 294 344
L 295 344
L 296 346
L 297 342
L 298 345
L 299 348
L 300 348
L 301 346
L 302 345
L 303 347
L 304 348
L 305 346
L 306 349
L 307 350
L 308 347
L 309 347
L 310 348
L 311 348
L 312 348
L 313 350
L 314 349
L 315 348
L 315 350
L 316 348
L 317 349
L 318 348
L 319 349
L 320 349
L 321 349
L 322 348
L 323 350
L 324 350
L 325 350
L 326 349
L 327 350
L 328 349
L 329 349
L 330 349
L 331 349
L 332 350
L 333 350
L 334 349
L 335 348
L 336 349
L 337 349
L 338 350
L 339 350
L 340 348
L 341 350
L 342 348
L 343 349
L 344 350
L 345 349
L 346 350
L 346 350
L 347 350
L 348 349
L 349 350
L 350 349
L 351 349
L 352 349
L 353 349
L 354 350
L 355 349
L 356 350
L 357 349
L 358 349
L 359 350
L 360 350
L 361 350
L 362 349
L 363 350
L 364 350
L 365 350
L 366 349
L 367 350
L 368 350
L 369 350
L 370 350
L 371 350
L 372 350
L 373 350
L 374 350
L 375 350
L 376 350
L 377 350
L 377 350
L 378 350
L 379 350
L 380 350
L 381 350
L 382 350
L 383 350
L 384 350
L 385 349
L 386 350
L 387 350
L 388 350
L 389 349
L 390 349
L 391 349
L 392 349
L 393 349
L 394 351
L 395 349
L 396 349
L 397 349
L 398 348
L 399 350
L 400 349
L 401 350
L 402 350
L 403 348
L 404 348
L 405 349
L 406 349
L 407 349
L 408 349
L 408 349
L 409 348
L 410 349
L 411 350
L 412 347
L 413 349
L 414 349
L 415 349
L 416 349
L 417 349
L 418 348
L 419 349
L 420 349
L 421 350
L 422 350
L 423 349
L 424 349
L 425 349
L 426 349
L 427 349
L 428 349
L 429 349
L 430 348
L 431 348
L 432 348
L 433 349
L 434 348
L 435 349
L 436 349
L 437 347
L 438 348
L 438 349
L 439 349
L 440 349
L 441 349
L 442 349
L 443 349
L 444 348
L 445 349
L 446 349
L 447 349
L 448 349
L 449 349
L 450 348
L 451 349
L 452 349
L 453 349
L 454 349
L 455 350
L 456 350
L 457 350
L 458 350
L 459 350
L 460 349
L 461 350
L 462 350
L 463 350
L 464 350
L 465 350
L 466 350
L 467 350
L 468 350
L 469 350
L 469 350
L 470 350
L 471 350
L 472 350
L 473 350
L 474 350
L 475 350
L 476 351
L 477 350
L 478 350
L 479 350
L 480 349
L 481 350
L 482 350
L 483 350
L 484 350
L 485 350
L 486 350
L 487 350
L 488 350
L 489 350
L 490 350
L 491 350
L 492 350
L 493 350
L 494 351
L 495 350
L 496 351
L 497 351
L 498 350
L 499 351
L 500 351
L 500 351
L 501 351
L 502 351
L 503 350
L 504 350
L 505 351
L 506 351
L 507 351
L 508 351
L 509 350
L 510 351
L 511 351
L 512 351
L 513 350
L 514 351
L 515 351
L 516 351
L 517 350
L 518 351
L 519 351
L 520 351
L 521 350
L 522 351
L 523 351
L 524 350
L 525 350
L 526 351
L 527 351
L 528 350
L 529 350
L 530 350
L 531 350
L 531 350
L 532 350
L 533 350
L 534 350
L 535 350
L 536 350
L 537 350
L 538 350
L 539 350
L 540 350
L 541 350
L 542 350
L 543 350
L 544 350
L 545 350
L 546 350
L 547 350
L 548 350
L 549 351
L 550 350
L 551 350
L 552 350
L 553 350
L 554 350
L 555 350
L 556 350
L 557 350
L 558 350
L 559 350
L 560 350
L 561 350
L 562 350
L 562 350
L 563 350
L 564 350
L 565 350
L 566 349
L 567 349
L 568 350
L 569 350
L 570 350
L 571 350
L 572 350
L 573 349
L 574 350
L 575 349
L 576 349
L 577 348
L 578 349
L 579 349
L 580 348
L 581 349
L 582 347
L 583 349
L 584 349
L 585 349
L 586 349
L 587 349
L 588 348
L 589 348
L 590 347
L 591 349
L 592 350
L 592 350
L 593 347
L 594 349
L 595 348
L 596 347
L 597 348
L 598 349
L 599 349
L 600 348
L 601 348
L 602 348
L 603 349
L 604 349
L 605 349
L 606 349
L 607 349
L 608 349
L 609 349
L 610 349
L 611 350
L 612 349
L 613 349
L 614 348
L 615 349
L 616 349
L 617 349
L 618 349
L 619 349
L 620 348
L 621 347
L 622 348
L 623 348
L 623 348
L 624 348
L 625 348
L 626 347
L 627 347
L 628 347
L 629 343
L 630 347
L 631 346
L 632 344
L 633 345
L 634 343
L 635 343
L 636 337
L 637 342
L 638 342
L 639 339
L 640 342
L 641 336
L 642 341
L 643 339
L 644 340
L 645 340
L 646 336
L 647 337
L 648 335
L 649 334
L 650 335
L 651 336
L 652 335
L 653 336
L 654 333
L 654 334
L 655 339
L 656 343
L 657 338
L 658 344
L 659 341
L 660 345
L 661 343
L 662 345
L 663 344
L 664 347
L 665 347
L 666 348
L 667 348
L 668 347
L 669 348
L 670 349
L 671 347
L 672 348
L 673 348
L 674 350
L 675 347
L 676 349
L 677 348
L 678 350
L 679 349
L 680 349
L 681 350
L 682 350
L 683 350
L 684 350
L 685 350
L 685 350
L 686 350
L 687 350
L 688 349
L 689 350
L 690 349
L 691 350
L 692 350
L 693 349
L 694 349
L 695 348
L 696 347
L 697 347
L 698 348
L 699 347
L 700 345
L 701 346
L 702 345
L 703 343
L 704 343
L 705 343
L 706 343
L 707 346
L 708 342
L 709 340
L 710 339
L 711 338
L 712 340
L 713 341
L 714 341
L 715 342
L 715 335
L 716 331
L 717 334
L 718 333
L 719 336
L 720 336
L 721 342
L 722 331
L 723 331
L 724 328
L 725 336
L 726 332
L 727 335
L 728 331
L 729 329
L 730 327
L 731 330
L 732 333
L 733 334
L 734 336
L 735 336
L 736 330
L 737 332
L 738 331
L 739 338
L 740 333
L 741 340
L 742 342
L 743 332
L 744 332
L 745 331
L 746 336
L 746 333
L 747 334
L 748 338
L 749 324
L 750 332
L 751 333
L 752 335
L 753 334
L 754 336
L 755 332
L 756 324
L 757 322
L 758 317
L 759 324
L 760 317
L 761 327
L 762 331
L 763 311
L 764 319
L 765 314
L 766 326
L 767 320
L 768 333
L 769 332
L 770 318
L 771 324
L 772 331
L 773 332
L 774 329
L 775 339
L 776 343
L 777 330
L 777 337
L 778 337
L 779 340
L 780 343
L 781 343
L 782 345
L 783 340
L 784 342
L 785 339
L 786 345
L 787 344
L 788 346
L 789 346
L 790 345
L 791 346
L 792 346
L 793 346
L 794 346
L 795 347
L 796 348
L 797 344
L 798 345
L 799 347
L 800 347
L 801 349
L 802 348
L 803 347
L 804 346
L 805 347
L 806 347
L 807 347
L 808 349
L 808 348
L 809 348
L 810 346
L 811 347
L 812 348
L 813 348
L 814 348
L 815 349
L 816 350
L 817 348
L 818 349
L 819 349
L 820 348
L 821 350
L 822 349
L 823 350
L 824 349
L 825 349
L 826 349
L 827 349
L 828 349
L 829 350
L 830 350
L 831 349
L 832 349
L 833 350
L 834 349
L 835 350
L 836 350
L 837 350
L 838 349
L 838 350
L 839 349
L 840 349
L 841 350
L 842 350
L 843 350
L 844 350
L 845 349
L 846 349
L 847 349
L 848 350
L 849 350
L 850 350
L 851 349
L 852 348
L 853 350
L 854 348
L 855 348
L 856 349
L 857 349
L 858 346
L 859 348
L 860 347
L 861 348
L 862 346
L 863 348
L 864 346
L 865 349
L 866 347
L 867 346
L 868 344
L 869 348
L 869 346
L 870 343
L 871 349
L 872 343
L 873 341
L 874 336
L 875 345
L 876 347
L 877 343
L 878 341
L 879 341
L 880 341
L 881 339
L 882 346
L 883 346
L 884 347
L 885 342
L 886 346
L 887 343
L 888 346
L 889 347
L 890 347
L 891 345
L 892 346
L 893 346
L 894 347
L 895 348
L 896 349
L 897 348
L 898 349
L 899 347
L 900 349
L 900 348
L 901 349
L 902 350
L 903 349
L 904 347
L 905 348
L 906 348
L 907 349
L 908 349
L 909 348
L 910 349
L 911 350
L 912 347
L 913 348
L 914 348
L 915 349
L 916 349
L 917 349
L 918 348
L 919 349
L 920 349
L 921 348
L 922 349
L 923 350
L 924 349
L 925 348
L 926 347
L 927 349
L 928 349
L 929 349
L 930 350
L 931 349
L 931 348
L 932 349
L 933 349
L 934 348
L 935 350
L 936 349
L 937 347
L 938 347
L 939 346
L 940 348
L 941 347
L 942 349
L 943 347
L 944 347
L 945 346
L 946 343
L 947 345
L 948 348
L 949 346
L 950 342
L 951 346
L 952 343
L 953 338
L 954 345
L 955 334
L 956 343
L 957 344
L 958 345
L 959 343
L 960 336
L 961 337
L 961 340" style="stroke-width:1;stroke:rgba(0,217,101,1.0);fill:none"/><path  d="M 38 351
L 39 351
L 40 351
L 41 351
L 42 351
L 43 351
L 44 351
L 45 351
L 46 351
L 47 351
L 48 351
L 49 351
L 50 351
L 51 351
L 52 351
L 53 351
L 54 351
L 55 351
L 56 351
L 57 351
L 58 351
L 59 351
L 60 351
L 61 351
L 62 351
L 63 351
L 64 351
L 65 351
L 66 351
L 67 351
L 68 351
L 69 351
L 69 351
L 70 351
L 71 351
L 72 351
L 73 351
L 74 351
L 75 351
L 76 351
L 77 351
L 78 351
L 79 351
L 80 351
L 81 351
L 82 351
L 83 351
L 84 351
L 85 351
L 86 351
L 87 351
L 88 351
L 89 351
L 90 351
L 91 351
L 92 351
L 93 351
L 94 351
L 95 351
L 96 351
L 97 351
L 98 351
L 99 351
L 100 351
L 100 351
L 101 351
L 102 351
L 103 351
L 104 351
L 105 351
L 106 351
L 107 351
L 108 351
L 109 351
L 110 351
L 111 351
L 112 351
L 113 351
L 114 351
L 115 351
L 116 351
L 117 351
L 118 351
L 119 351
L 120 351
L 121 351
L 122 351
L 123 351
L 124 351
L 125 351
L 126 351
L 127 351
L 128 351
L 129 351
L 130 351
L 131 351
L 131 351
L 132 351
L 133 351
L 134 351
L 135 351
L 136 351
L 137 351
L 138 350
L 139 351
L 140 351
L 141 351
L 142 351
L 143 351
L 144 351
L 145 351
L 146 351
L 147 351
L 148 351
L 149 351
L 150 351
L 151 351
L 152 351
L 153 351
L 154 351
L 155 351
L 156 351
L 157 351
L 158 351
L 159 351
L 160 351
L 161 351
L 162 351
L 162 351
L 163 351
L 164 351
L 165 351
L 166 351
L 167 351
L 168 351
L 169 351
L 170 351
L 171 351
L 172 351
L 173 351
L 174 351
L 175 351
L 176 351
L 177 351
L 178 351
L 179 351
L 180 351
L 181 351
L 182 351
L 183 351
L 184 351
L 185 351
L 186 351
L 187 351
L 188 351
L 189 351
L 190 351
L 191 351
L 192 351
L 192 351
L 193 351
L 194 351
L 195 351
L 196 351
L 197 351
L 198 351
L 199 351
L 200 351
L 201 351
L 202 351
L 203 351
L 204 351
L 205 351
L 206 351
L 207 351
L 208 351
L 209 351
L 210 351
L 211 351
L 212 351
L 213 351
L 214 351
L 215 351
L 216 351
L 217 351
L 218 351
L 219 351
L 220 351
L 221 351
L 222 351
L 223 351
L 223 351
L 224 351
L 225 351
L 226 351
L 227 351
L 228 351
L 229 351
L 230 351
L 231 351
L 232 351
L 233 351
L 234 351
L 235 351
L 236 351
L 237 351
L 238 351
L 239 351
L 240 351
L 241 351
L 242 351
L 243 351
L 244 351
L 245 351
L 246 351
L 247 351
L 248 351
L 249 351
L 250 351
L 251 351
L 252 351
L 253 351
L 254 351
L 254 351
L 255 351
L 256 351
L 257 351
L 258 351
L 259 351
L 260 351
L 261 351
L 262 351
L 263 350
L 264 351
L 265 351
L 266 351
L 267 351
L 268 350
L 269 351
L 270 351
L 271 351
L 272 351
L 273 351
L 274 351
L 275 350
L 276 351
L 277 350
L 278 351
L 279 350
L 280 350
L 281 350
L 282 351
L 283 350
L 284 350
L 285 350
L 285 350
L 286 350
L 287 350
L 288 351
L 289 350
L 290 350
L 291 350
L 292 350
L 293 350
L 294 350
L 295 350
L 296 350
L 297 350
L 298 350
L 299 351
L 300 350
L 301 350
L 302 350
L 303 351
L 304 351
L 305 350
L 306 350
L 307 350
L 308 350
L 309 350
L 310 350
L 311 351
L 312 350
L 313 350
L 314 350
L 315 350
L 315 350
L 316 350
L 317 350
L 318 350
L 319 350
L 320 350
L 321 351
L 322 351
L 323 350
L 324 350
L 325 351
L 326 350
L 327 351
L 328 350
L 329 351
L 330 351
L 331 350
L 332 350
L 333 351
L 334 350
L 335 350
L 336 350
L 337 351
L 338 350
L 339 351
L 340 351
L 341 350
L 342 351
L 343 351
L 344 350
L 345 351
L 346 350
L 346 351
L 347 350
L 348 350
L 349 350
L 350 350
L 351 351
L 352 350
L 353 350
L 354 351
L 355 351
L 356 350
L 357 350
L 358 350
L 359 351
L 360 350
L 361 351
L 362 351
L 363 351
L 364 351
L 365 351
L 366 350
L 367 351
L 368 351
L 369 351
L 370 351
L 371 351
L 372 351
L 373 351
L 374 351
L 375 351
L 376 351
L 377 350
L 377 351
L 378 351
L 379 351
L 380 351
L 381 351
L 382 351
L 383 351
L 384 351
L 385 351
L 386 350
L 387 351
L 388 351
L 389 351
L 390 351
L 391 351
L 392 351
L 393 351
L 394 351
L 395 351
L 396 351
L 397 350
L 398 351
L 399 351
L 400 351
L 401 351
L 402 351
L 403 351
L 404 351
L 405 351
L 406 350
L 407 350
L 408 351
L 408 351
L 409 351
L 410 351
L 411 351
L 412 351
L 413 351
L 414 351
L 415 350
L 416 351
L 417 350
L 418 351
L 419 351
L 420 351
L 421 351
L 422 351
L 423 350
L 424 351
L 425 351
L 426 351
L 427 351
L 428 350
L 429 350
L 430 351
L 431 351
L 432 350
L 433 351
L 434 351
L 435 351
L 436 351
L 437 351
L 438 351
L 438 351
L 439 350
L 440 350
L 441 351
L 442 351
L 443 351
L 444 351
L 445 351
L 446 351
L 447 351
L 448 351
L 449 351
L 450 351
L 451 351
L 452 351
L 453 351
L 454 350
L 455 351
L 456 351
L 457 351
L 458 351
L 459 351
L 460 351
L 461 351
L 462 350
L 463 350
L 464 351
L 465 351
L 466 351
L 467 351
L 468 351
L 469 351
L 469 351
L 470 351
L 471 351
L 472 351
L 473 351
L 474 351
L 475 350
L 476 351
L 477 351
L 478 351
L 479 351
L 480 351
L 481 351
L 482 351
L 483 351
L 484 351
L 485 351
L 486 351
L 487 351
L 488 351
L 489 351
L 490 351
L 491 351
L 492 351
L 493 351
L 494 351
L 495 351
L 496 351
L 497 351
L 498 351
L 499 351
L 500 351
L 500 351
L 501 351
L 502 351
L 503 351
L 504 351
L 505 351
L 506 351
L 507 351
L 508 351
L 509 351
L 510 351
L 511 351
L 512 351
L 513 351
L 514 351
L 515 350
L 516 351
L 517 351
L 518 351
L 519 351
L 520 351
L 521 351
L 522 351
L 523 351
L 524 351
L 525 351
L 526 351
L 527 350
L 528 351
L 529 351
L 530 351
L 531 351
L 531 351
L 532 351
L 533 351
L 534 351
L 535 351
L 536 351
L 537 351
L 538 351
L 539 351
L 540 351
L 541 351
L 542 351
L 543 351
L 544 351
L 545 351
L 546 351
L 547 351
L 548 351
L 549 351
L 550 351
L 551 351
L 552 351
L 553 351
L 554 351
L 555 351
L 556 351
L 557 351
L 558 351
L 559 351
L 560 351
L 561 351
L 562 351
L 562 351
L 563 351
L 564 351
L 565 351
L 566 351
L 567 351
L 568 351
L 569 351
L 570 351
L 571 351
L 572 351
L 573 351
L 574 351
L 575 351
L 576 351
L 577 351
L 578 350
L 579 351
L 580 351
L 581 351
L 582 351
L 583 351
L 584 351
L 585 351
L 586 351
L 587 351
L 588 351
L 589 351
L 590 351
L 591 351
L 592 351
L 592 351
L 593 351
L 594 351
L 595 351
L 596 351
L 597 351
L 598 351
L 599 351
L 600 351
L 601 351
L 602 351
L 603 351
L 604 351
L 605 351
L 606 351
L 607 351
L 608 351
L 609 351
L 610 351
L 611 351
L 612 351
L 613 351
L 614 350
L 615 351
L 616 351
L 617 351
L 618 350
L 619 351
L 620 351
L 621 351
L 622 351
L 623 351
L 623 350
L 624 351
L 625 351
L 626 351
L 627 351
L 628 350
L 629 351
L 630 350
L 631 351
L 632 351
L 633 351
L 634 350
L 635 351
L 636 351
L 637 351
L 638 351
L 639 350
L 640 350
L 641 351
L 642 351
L 643 351
L 644 350
L 645 351
L 646 351
L 647 351
L 648 351
L 649 351
L 650 351
L 651 351
L 652 351
L 653 350
L 654 350
L 654 351
L 655 350
L 656 350
L 657 350
L 658 350
L 659 351
L 660 351
L 661 351
L 662 351
L 663 350
L 664 351
L 665 351
L 666 351
L 667 350
L 668 350
L 669 350
L 670 351
L 671 350
L 672 351
L 673 350
L 674 350
L 675 351
L 676 351
L 677 350
L 678 351
L 679 351
L 680 351
L 681 351
L 682 351
L 683 350
L 684 350
L 685 351
L 685 351
L 686 351
L 687 351
L 688 351
L 689 351
L 690 351
L 691 351
L 692 351
L 693 351
L 694 351
L 695 351
L 696 351
L 697 351
L 698 351
L 699 351
L 700 351
L 701 351
L 702 351
L 703 351
L 704 351
L 705 351
L 706 351
L 707 351
L 708 351
L 709 351
L 710 351
L 711 351
L 712 351
L 713 351
L 714 351
L 715 351
L 715 351
L 716 351
L 717 351
L 718 351
L 719 351
L 720 351
L 721 351
L 722 351
L 723 351
L 724 351
L 725 351
L 726 351
L 727 351
L 728 351
L 729 351
L 730 351
L 731 351
L 732 351
L 733 351
L 734 351
L 735 351
L 736 350
L 737 351
L 738 351
L 739 351
L 740 350
L 741 351
L 742 351
L 743 351
L 744 351
L 745 351
L 746 351
L 746 351
L 747 351
L 748 351
L 749 351
L 750 351
L 751 351
L 752 351
L 753 350
L 754 351
L 755 350
L 756 351
L 757 351
L 758 351
L 759 351
L 760 351
L 761 351
L 762 351
L 763 350
L 764 351
L 765 350
L 766 351
L 767 351
L 768 351
L 769 350
L 770 351
L 771 351
L 772 351
L 773 351
L 774 351
L 775 351
L 776 350
L 777 351
L 777 351
L 778 351
L 779 351
L 780 351
L 781 351
L 782 351
L 783 351
L 784 351
L 785 351
L 786 351
L 787 351
L 788 351
L 789 351
L 790 351
L 791 351
L 792 351
L 793 351
L 794 351
L 795 351
L 796 351
L 797 351
L 798 351
L 799 351
L 800 351
L 801 351
L 802 351
L 803 351
L 804 351
L 805 351
L 806 351
L 807 351
L 808 351
L 808 351
L 809 351
L 810 351
L 811 351
L 812 351
L 813 351
L 814 351
L 815 351
L 816 351
L 817 351
L 818 351
L 819 351
L 820 351
L 821 351
L 822 351
L 823 351
L 824 351
L 825 351
L 826 351
L 827 351
L 828 351
L 829 351
L 830 351
L 831 351
L 832 351
L 833 351
L 834 351
L 835 351
L 836 351
L 837 351
L 838 351
L 838 351
L 839 351
L 840 351
L 841 351
L 842 351
L 843 351
L 844 351
L 845 351
L 846 351
L 847 351
L 848 351
L 849 351
L 850 351
L 851 351
L 852 351
L 853 351
L 854 351
L 855 351
L 856 351
L 857 351
L 858 351
L 859 351
L 860 351
L 861 351
L 862 351
L 863 351
L 864 351
L 865 351
L 866 351
L 867 351
L 868 351
L 869 351
L 869 351
L 870 351
L 871 351
L 872 351
L 873 351
L 874 351
L 875 351
L 876 351
L 877 351
L 878 351
L 879 351
L 880 351
L 881 351
L 882 351
L 883 351
L 884 351
L 885 351
L 886 351
L 887 351
L 888 351
L 889 351
L 890 351
L 891 351
L 892 351
L 893 351
L 894 351
L 895 351
L 896 351
L 897 351
L 898 351
L 899 351
L 900 351
L 900 351
L 901 350
L 902 351
L 903 351
L 904 351
L 905 351
L 906 351
L 907 351
L 908 351
L 909 351
L 910 351
L 911 351
L 912 351
L 913 351
L 914 351
L 915 351
L 916 351
L 917 351
L 918 351
L 919 351
L 920 351
L 921 351
L 922 351
L 923 351
L 924 350
L 925 351
L 926 351
L 927 351
L 928 351
L 929 351
L 930 351
L 931 351
L 931 351
L 932 351
L 933 351
L 934 351
L 935 351
L 936 351
L 937 351
L 938 351
L 939 351
L 940 351
L 941 351
L 942 351
L 943 351
L 944 351
L 945 351
L 946 351
L 947 351
L 948 351
L 949 351
L 950 351
L 951 351
L 952 351
L 953 351
L 954 351
L 955 351
L 956 351
L 957 351
L 958 351
L 959 351
L 960 351
L 961 351
L 961 351" style="stroke-width:1;stroke:rgba(217,0,116,1.0);fill:none"/><text x="368" y="33" style="stroke-width:0;stroke:none;fill:rgba(51,51,51,1.0);font-size:23.0px;font-family:'Roboto Medium',sans-serif">Ried im Innkreis 06.10.2022</text><path  d="M 38 11
L 251 11
L 251 91
L 38 91
L 38 11" style="stroke-width:1;stroke:rgba(51,51,51,1.0);fill:rgba(255,255,255,1.0)"/><text x="43" y="26" style="stroke-width:0;stroke:none;fill:rgba(51,51,51,1.0);font-size:10.2px;font-family:'Roboto Medium',sans-serif">Sieben Tage Durschnitt Inzidenz Fälle</text><path  d="M 221 21
L 241 21" style="stroke-width:1;stroke:rgba(0,116,217,1.0);fill:none"/><text x="43" y="56" style="stroke-width:0;stroke:none;fill:rgba(51,51,51,1.0);font-size:10.2px;font-family:'Roboto Medium',sans-serif">Anzahl Faelle</text><path  d="M 110 51
L 241 51" style="stroke-width:1;stroke:rgba(0,217,101,1.0);fill:none"/><text x="43" y="86" style="stroke-width:0;stroke:none;fill:rgba(51,51,51,1.0);font-size:10.2px;font-family:'Roboto Medium',sans-serif">Anzahl Tot</text><path  d="M 98 81
L 241 81" style="stroke-width:1;stroke:rgba(217,0,116,1.0);fill:none"/></svg>