<svg xmlns="http://www.w3.org/2000/svg" xmlns:xlink="http://www.w3.org/1999/xlink" width="1024" height="400">\n<path  d="M 0 0
L 1024 0
L 1024 400
L 0 400
L 0 0" style="stroke-width:0;stroke:rgba(255,255,255,1.0);fill:rgba(255,255,255,1.0)"/><path  d="M 38 11
L 961 11
L 961 351
L 38 351
L 38 11" style="stroke-width:0;stroke:rgba(255,255,255,1.0);fill:rgba(255,255,255,1.0)"/><path  d="M 38 351
L 961 351" style="stroke-width:1;stroke:rgba(51,51,51,1.0);fill:none"/><path  d="M 38 351
L 38 356" style="stroke-width:1;stroke:rgba(51,51,51,1.0);fill:none"/><text x="5" y="373" style="stroke-width:0;stroke:none;fill:rgba(51,51,51,1.0);font-size:12.8px;font-family:'Roboto Medium',sans-serif">2020-02-26</text><path  d="M 154 351
L 154 356" style="stroke-width:1;stroke:rgba(51,51,51,1.0);fill:none"/><text x="121" y="373" style="stroke-width:0;stroke:none;fill:rgba(51,51,51,1.0);font-size:12.8px;font-family:'Roboto Medium',sans-serif">2020-04-28</text><path  d="M 269 351
L 269 356" style="stroke-width:1;stroke:rgba(51,51,51,1.0);fill:none"/><text x="236" y="373" style="stroke-width:0;stroke:none;fill:rgba(51,51,51,1.0);font-size:12.8px;font-family:'Roboto Medium',sans-serif">2020-06-30</text><path  d="M 385 351
L 385 356" style="stroke-width:1;stroke:rgba(51,51,51,1.0);fill:none"/><text x="352" y="373" style="stroke-width:0;stroke:none;fill:rgba(51,51,51,1.0);font-size:12.8px;font-family:'Roboto Medium',sans-serif">2020-09-01</text><path  d="M 500 351
L 500 356" style="stroke-width:1;stroke:rgba(51,51,51,1.0);fill:none"/><text x="467" y="373" style="stroke-width:0;stroke:none;fill:rgba(51,51,51,1.0);font-size:12.8px;font-family:'Roboto Medium',sans-serif">2020-11-03</text><path  d="M 615 351
L 615 356" style="stroke-width:1;stroke:rgba(51,51,51,1.0);fill:none"/><text x="582" y="373" style="stroke-width:0;stroke:none;fill:rgba(51,51,51,1.0);font-size:12.8px;font-family:'Roboto Medium',sans-serif">2021-01-04</text><path  d="M 731 351
L 731 356" style="stroke-width:1;stroke:rgba(51,51,51,1.0);fill:none"/><text x="698" y="373" style="stroke-width:0;stroke:none;fill:rgba(51,51,51,1.0);font-size:12.8px;font-family:'Roboto Medium',sans-serif">2021-03-08</text><path  d="M 846 351
L 846 356" style="stroke-width:1;stroke:rgba(51,51,51,1.0);fill:none"/><text x="813" y="373" style="stroke-width:0;stroke:none;fill:rgba(51,51,51,1.0);font-size:12.8px;font-family:'Roboto Medium',sans-serif">2021-05-10</text><path  d="M 961 351
L 961 356" style="stroke-width:1;stroke:rgba(51,51,51,1.0);fill:none"/><text x="928" y="373" style="stroke-width:0;stroke:none;fill:rgba(51,51,51,1.0);font-size:12.8px;font-family:'Roboto Medium',sans-serif">2021-07-12</text><text x="481" y="395" style="stroke-width:0;stroke:none;fill:rgba(51,51,51,1.0);font-size:12.8px;font-family:'Roboto Medium',sans-serif">Datum</text><path  d="M 962 351
L 962 11" style="stroke-width:1;stroke:rgba(51,51,51,1.0);fill:none"/><path  d="M 962 351
L 967 351" style="stroke-width:1;stroke:rgba(51,51,51,1.0);fill:none"/><text x="972" y="357" style="stroke-width:0;stroke:none;fill:rgba(51,51,51,1.0);font-size:12.8px;font-family:'Roboto Medium',sans-serif">0.00</text><path  d="M 962 306
L 967 306" style="stroke-width:1;stroke:rgba(51,51,51,1.0);fill:none"/><text x="972" y="312" style="stroke-width:0;stroke:none;fill:rgba(51,51,51,1.0);font-size:12.8px;font-family:'Roboto Medium',sans-serif">220.00</text><path  d="M 962 265
L 967 265" style="stroke-width:1;stroke:rgba(51,51,51,1.0);fill:none"/><text x="972" y="271" style="stroke-width:0;stroke:none;fill:rgba(51,51,51,1.0);font-size:12.8px;font-family:'Roboto Medium',sans-serif">430.00</text><path  d="M 962 223
L 967 223" style="stroke-width:1;stroke:rgba(51,51,51,1.0);fill:none"/><text x="972" y="229" style="stroke-width:0;stroke:none;fill:rgba(51,51,51,1.0);font-size:12.8px;font-family:'Roboto Medium',sans-serif">640.00</text><path  d="M 962 181
L 967 181" style="stroke-width:1;stroke:rgba(51,51,51,1.0);fill:none"/><text x="972" y="187" style="stroke-width:0;stroke:none;fill:rgba(51,51,51,1.0);font-size:12.8px;font-family:'Roboto Medium',sans-serif">850.00</text><path  d="M 962 137
L 967 137" style="stroke-width:1;stroke:rgba(51,51,51,1.0);fill:none"/><text x="972" y="143" style="stroke-width:0;stroke:none;fill:rgba(51,51,51,1.0);font-size:12.8px;font-family:'Roboto Medium',sans-serif">1070.00</text><path  d="M 962 95
L 967 95" style="stroke-width:1;stroke:rgba(51,51,51,1.0);fill:none"/><text x="972" y="101" style="stroke-width:0;stroke:none;fill:rgba(51,51,51,1.0);font-size:12.8px;font-family:'Roboto Medium',sans-serif">1280.00</text><path  d="M 962 53
L 967 53" style="stroke-width:1;stroke:rgba(51,51,51,1.0);fill:none"/><text x="972" y="59" style="stroke-width:0;stroke:none;fill:rgba(51,51,51,1.0);font-size:12.8px;font-family:'Roboto Medium',sans-serif">1490.00</text><path  d="M 962 11
L 967 11" style="stroke-width:1;stroke:rgba(51,51,51,1.0);fill:none"/><text x="972" y="17" style="stroke-width:0;stroke:none;fill:rgba(51,51,51,1.0);font-size:12.8px;font-family:'Roboto Medium',sans-serif">1700.00</text><path  d="M 38 351
L 40 351
L 42 351
L 44 351
L 46 351
L 48 351
L 50 351
L 51 351
L 53 351
L 55 351
L 57 351
L 59 350
L 61 350
L 62 350
L 64 350
L 66 350
L 68 350
L 70 349
L 72 347
L 73 346
L 75 346
L 77 344
L 79 341
L 81 338
L 83 338
L 84 333
L 86 333
L 88 332
L 90 330
L 92 331
L 94 331
L 95 332
L 97 335
L 99 336
L 101 336
L 103 337
L 105 338
L 107 339
L 108 340
L 110 341
L 112 342
L 114 342
L 116 344
L 118 345
L 119 345
L 121 345
L 123 347
L 125 347
L 127 348
L 129 348
L 130 348
L 132 348
L 134 348
L 136 348
L 138 349
L 140 349
L 141 350
L 143 349
L 145 349
L 147 349
L 149 349
L 151 349
L 152 349
L 154 349
L 156 350
L 158 350
L 160 350
L 162 350
L 164 350
L 165 350
L 167 350
L 169 351
L 171 351
L 173 351
L 175 351
L 176 351
L 178 351
L 180 351
L 182 351
L 184 351
L 186 351
L 187 351
L 189 351
L 191 351
L 193 351
L 195 350
L 197 350
L 198 350
L 200 350
L 202 350
L 204 350
L 206 350
L 208 351
L 209 351
L 211 351
L 213 351
L 215 351
L 217 351
L 219 351
L 221 351
L 222 351
L 224 351
L 226 351
L 228 351
L 230 350
L 232 350
L 233 350
L 235 350
L 237 350
L 239 350
L 241 350
L 243 350
L 244 351
L 246 351
L 248 351
L 250 351
L 252 351
L 254 351
L 255 351
L 257 351
L 259 351
L 261 351
L 263 351
L 265 351
L 266 351
L 268 351
L 270 351
L 272 350
L 274 350
L 276 350
L 278 350
L 279 350
L 281 350
L 283 350
L 285 350
L 287 349
L 289 349
L 290 349
L 292 349
L 294 348
L 296 348
L 298 349
L 300 349
L 301 349
L 303 349
L 305 349
L 307 350
L 309 349
L 311 349
L 312 349
L 314 348
L 316 347
L 318 347
L 320 346
L 322 347
L 323 346
L 325 346
L 327 347
L 329 347
L 331 347
L 333 348
L 335 348
L 336 349
L 338 349
L 340 349
L 342 349
L 344 349
L 346 349
L 347 349
L 349 350
L 351 349
L 353 350
L 355 350
L 357 350
L 358 350
L 360 349
L 362 349
L 364 349
L 366 349
L 368 349
L 369 349
L 371 346
L 373 346
L 375 346
L 377 346
L 379 346
L 380 346
L 382 346
L 384 348
L 386 348
L 388 347
L 390 347
L 392 347
L 393 348
L 395 348
L 397 349
L 399 349
L 401 350
L 403 350
L 404 350
L 406 350
L 408 349
L 410 349
L 412 349
L 414 349
L 415 348
L 417 348
L 419 348
L 421 349
L 423 349
L 425 349
L 426 349
L 428 350
L 430 349
L 432 349
L 434 348
L 436 348
L 437 346
L 439 345
L 441 344
L 443 342
L 445 339
L 447 335
L 449 335
L 450 335
L 452 331
L 454 328
L 456 324
L 458 323
L 460 326
L 461 320
L 463 319
L 465 323
L 467 322
L 469 324
L 471 324
L 472 326
L 474 331
L 476 319
L 478 313
L 480 307
L 482 288
L 483 281
L 485 271
L 487 255
L 489 247
L 491 229
L 493 203
L 494 205
L 496 200
L 498 198
L 500 193
L 502 180
L 504 176
L 506 143
L 507 111
L 509 113
L 511 101
L 513 65
L 515 37
L 517 27
L 518 66
L 520 74
L 522 71
L 524 50
L 526 67
L 528 106
L 529 122
L 531 123
L 533 155
L 535 162
L 537 181
L 539 201
L 540 215
L 542 223
L 544 231
L 546 238
L 548 241
L 550 263
L 551 276
L 553 280
L 555 288
L 557 306
L 559 310
L 561 312
L 563 314
L 564 315
L 566 321
L 568 324
L 570 312
L 572 306
L 574 299
L 575 297
L 577 293
L 579 291
L 581 291
L 583 304
L 585 312
L 586 320
L 588 318
L 590 321
L 592 318
L 594 315
L 596 316
L 597 317
L 599 312
L 601 305
L 603 304
L 605 304
L 607 305
L 608 306
L 610 307
L 612 308
L 614 316
L 616 317
L 618 317
L 620 317
L 621 314
L 623 311
L 625 315
L 627 315
L 629 315
L 631 317
L 632 318
L 634 317
L 636 318
L 638 318
L 640 318
L 642 324
L 643 324
L 645 325
L 647 329
L 649 330
L 651 331
L 653 335
L 654 336
L 656 338
L 658 338
L 660 338
L 662 340
L 664 339
L 665 339
L 667 336
L 669 336
L 671 333
L 673 333
L 675 332
L 677 330
L 678 331
L 680 329
L 682 327
L 684 328
L 686 327
L 688 328
L 689 327
L 691 325
L 693 323
L 695 323
L 697 325
L 699 321
L 700 317
L 702 319
L 704 321
L 706 324
L 708 323
L 710 318
L 711 323
L 713 326
L 715 324
L 717 325
L 719 328
L 721 328
L 722 327
L 724 328
L 726 322
L 728 319
L 730 318
L 732 317
L 734 316
L 735 318
L 737 312
L 739 317
L 741 318
L 743 317
L 745 316
L 746 317
L 748 317
L 750 323
L 752 324
L 754 325
L 756 325
L 757 324
L 759 327
L 761 332
L 763 330
L 765 329
L 767 331
L 768 333
L 770 335
L 772 336
L 774 330
L 776 331
L 778 332
L 779 331
L 781 329
L 783 328
L 785 324
L 787 329
L 789 329
L 791 329
L 792 331
L 794 331
L 796 333
L 798 327
L 800 329
L 802 329
L 803 329
L 805 328
L 807 331
L 809 331
L 811 339
L 813 336
L 814 336
L 816 335
L 818 334
L 820 334
L 822 334
L 824 332
L 825 335
L 827 334
L 829 335
L 831 334
L 833 335
L 835 335
L 836 336
L 838 335
L 840 338
L 842 339
L 844 341
L 846 342
L 848 343
L 849 345
L 851 345
L 853 346
L 855 344
L 857 344
L 859 344
L 860 344
L 862 344
L 864 346
L 866 347
L 868 348
L 870 348
L 871 348
L 873 349
L 875 348
L 877 348
L 879 347
L 881 348
L 882 348
L 884 348
L 886 348
L 888 350
L 890 350
L 892 351
L 893 351
L 895 350
L 897 350
L 899 350
L 901 349
L 903 349
L 905 348
L 906 348
L 908 349
L 910 349
L 912 349
L 914 349
L 916 349
L 917 350
L 919 350
L 921 350
L 923 350
L 925 349
L 927 350
L 928 350
L 930 349
L 932 349
L 934 349
L 936 349
L 938 349
L 939 349
L 941 349
L 943 349
L 945 350
L 947 350
L 949 350
L 950 350
L 952 350
L 954 350
L 956 350
L 958 350
L 960 350
L 961 350" style="stroke-width:1;stroke:rgba(0,116,217,1.0);fill:none"/><path  d="M 38 351
L 40 351
L 42 351
L 44 351
L 46 351
L 48 351
L 50 351
L 51 351
L 53 351
L 55 351
L 57 351
L 59 350
L 61 351
L 62 351
L 64 351
L 66 351
L 68 350
L 70 350
L 72 350
L 73 350
L 75 350
L 77 349
L 79 349
L 81 349
L 83 350
L 84 347
L 86 350
L 88 350
L 90 349
L 92 349
L 94 349
L 95 350
L 97 349
L 99 350
L 101 350
L 103 349
L 105 350
L 107 350
L 108 350
L 110 350
L 112 351
L 114 350
L 116 350
L 118 351
L 119 350
L 121 350
L 123 351
L 125 350
L 127 350
L 129 350
L 130 351
L 132 350
L 134 351
L 136 351
L 138 351
L 140 351
L 141 351
L 143 350
L 145 351
L 147 350
L 149 351
L 151 351
L 152 351
L 154 351
L 156 350
L 158 351
L 160 351
L 162 351
L 164 351
L 165 351
L 167 351
L 169 351
L 171 351
L 173 351
L 175 351
L 176 351
L 178 351
L 180 351
L 182 351
L 184 351
L 186 351
L 187 351
L 189 351
L 191 351
L 193 351
L 195 350
L 197 351
L 198 351
L 200 351
L 202 351
L 204 351
L 206 351
L 208 351
L 209 351
L 211 351
L 213 351
L 215 351
L 217 351
L 219 351
L 221 351
L 222 351
L 224 351
L 226 351
L 228 351
L 230 350
L 232 350
L 233 351
L 235 351
L 237 351
L 239 351
L 241 351
L 243 351
L 244 351
L 246 351
L 248 351
L 250 351
L 252 351
L 254 351
L 255 351
L 257 351
L 259 351
L 261 351
L 263 351
L 265 351
L 266 351
L 268 351
L 270 351
L 272 350
L 274 351
L 276 351
L 278 351
L 279 351
L 281 351
L 283 351
L 285 350
L 287 350
L 289 350
L 290 351
L 292 351
L 294 350
L 296 351
L 298 350
L 300 351
L 301 351
L 303 351
L 305 351
L 307 351
L 309 350
L 311 350
L 312 351
L 314 350
L 316 350
L 318 351
L 320 350
L 322 350
L 323 350
L 325 350
L 327 351
L 329 351
L 331 351
L 333 351
L 335 350
L 336 350
L 338 351
L 340 350
L 342 351
L 344 351
L 346 351
L 347 351
L 349 351
L 351 350
L 353 351
L 355 351
L 357 351
L 358 351
L 360 350
L 362 351
L 364 350
L 366 351
L 368 350
L 369 351
L 371 349
L 373 350
L 375 351
L 377 350
L 379 350
L 380 350
L 382 351
L 384 350
L 386 351
L 388 350
L 390 350
L 392 351
L 393 351
L 395 351
L 397 351
L 399 351
L 401 350
L 403 351
L 404 351
L 406 350
L 408 350
L 410 351
L 412 350
L 414 350
L 415 350
L 417 351
L 419 350
L 421 351
L 423 351
L 425 351
L 426 351
L 428 350
L 430 350
L 432 350
L 434 350
L 436 350
L 437 349
L 439 350
L 441 350
L 443 349
L 445 349
L 447 348
L 449 350
L 450 349
L 452 348
L 454 348
L 456 347
L 458 349
L 460 349
L 461 347
L 463 348
L 465 350
L 467 348
L 469 348
L 471 349
L 472 350
L 474 350
L 476 342
L 478 347
L 480 345
L 482 336
L 483 345
L 485 344
L 487 341
L 489 337
L 491 337
L 493 330
L 494 337
L 496 343
L 498 343
L 500 338
L 502 330
L 504 334
L 506 311
L 507 319
L 509 344
L 511 336
L 513 318
L 515 314
L 517 328
L 518 334
L 520 323
L 522 343
L 524 324
L 526 328
L 528 336
L 529 338
L 531 334
L 533 341
L 535 346
L 537 335
L 539 339
L 540 344
L 542 343
L 544 339
L 546 345
L 548 348
L 550 347
L 551 347
L 553 346
L 555 347
L 557 348
L 559 347
L 561 349
L 563 349
L 564 347
L 566 349
L 568 349
L 570 341
L 572 344
L 574 345
L 575 348
L 577 345
L 579 348
L 581 349
L 583 348
L 585 349
L 586 350
L 588 346
L 590 346
L 592 347
L 594 347
L 596 349
L 597 349
L 599 347
L 601 342
L 603 346
L 605 347
L 607 348
L 608 350
L 610 350
L 612 348
L 614 347
L 616 346
L 618 347
L 620 348
L 621 348
L 623 348
L 625 350
L 627 347
L 629 346
L 631 348
L 632 349
L 634 347
L 636 349
L 638 350
L 640 346
L 642 350
L 643 348
L 645 350
L 647 349
L 649 349
L 651 350
L 653 349
L 654 350
L 656 350
L 658 349
L 660 349
L 662 350
L 664 350
L 665 349
L 667 349
L 669 349
L 671 348
L 673 349
L 675 350
L 677 349
L 678 349
L 680 347
L 682 348
L 684 348
L 686 349
L 688 350
L 689 349
L 691 348
L 693 346
L 695 348
L 697 350
L 699 346
L 700 348
L 702 350
L 704 349
L 706 348
L 708 348
L 710 347
L 711 349
L 713 350
L 715 349
L 717 349
L 719 349
L 721 348
L 722 347
L 724 349
L 726 346
L 728 348
L 730 349
L 732 349
L 734 347
L 735 348
L 737 346
L 739 349
L 741 348
L 743 348
L 745 348
L 746 348
L 748 348
L 750 349
L 752 349
L 754 349
L 756 349
L 757 347
L 759 350
L 761 350
L 763 348
L 765 349
L 767 350
L 768 350
L 770 349
L 772 351
L 774 347
L 776 349
L 778 349
L 779 349
L 781 349
L 783 348
L 785 349
L 787 349
L 789 349
L 791 349
L 792 351
L 794 348
L 796 349
L 798 346
L 800 350
L 802 349
L 803 350
L 805 350
L 807 350
L 809 349
L 811 350
L 813 348
L 814 349
L 816 349
L 818 350
L 820 349
L 822 350
L 824 349
L 825 350
L 827 349
L 829 350
L 831 349
L 833 350
L 835 350
L 836 349
L 838 350
L 840 350
L 842 350
L 844 351
L 846 350
L 848 350
L 849 350
L 851 350
L 853 350
L 855 350
L 857 351
L 859 350
L 860 350
L 862 351
L 864 350
L 866 351
L 868 350
L 870 351
L 871 351
L 873 351
L 875 350
L 877 350
L 879 350
L 881 351
L 882 351
L 884 351
L 886 351
L 888 351
L 890 351
L 892 351
L 893 351
L 895 350
L 897 351
L 899 351
L 901 350
L 903 350
L 905 350
L 906 351
L 908 351
L 910 350
L 912 351
L 914 350
L 916 351
L 917 351
L 919 351
L 921 351
L 923 351
L 925 350
L 927 351
L 928 351
L 930 350
L 932 350
L 934 350
L 936 351
L 938 350
L 939 351
L 941 351
L 943 351
L 945 351
L 947 351
L 949 351
L 950 350
L 952 351
L 954 351
L 956 350
L 958 351
L 960 351
L 961 351" style="stroke-width:1;stroke:rgba(0,217,101,1.0);fill:none"/><path  d="M 38 351
L 40 351
L 42 351
L 44 351
L 46 351
L 48 351
L 50 351
L 51 351
L 53 351
L 55 351
L 57 351
L 59 351
L 61 351
L 62 351
L 64 351
L 66 351
L 68 351
L 70 351
L 72 351
L 73 351
L 75 351
L 77 351
L 79 351
L 81 351
L 83 351
L 84 351
L 86 351
L 88 351
L 90 351
L 92 351
L 94 351
L 95 351
L 97 351
L 99 351
L 101 351
L 103 351
L 105 351
L 107 351
L 108 351
L 110 351
L 112 351
L 114 351
L 116 351
L 118 351
L 119 351
L 121 351
L 123 351
L 125 351
L 127 351
L 129 351
L 130 351
L 132 351
L 134 351
L 136 351
L 138 351
L 140 351
L 141 351
L 143 351
L 145 351
L 147 351
L 149 351
L 151 351
L 152 351
L 154 351
L 156 351
L 158 351
L 160 351
L 162 351
L 164 351
L 165 351
L 167 351
L 169 351
L 171 351
L 173 351
L 175 351
L 176 351
L 178 351
L 180 351
L 182 351
L 184 351
L 186 351
L 187 351
L 189 351
L 191 351
L 193 351
L 195 351
L 197 351
L 198 351
L 200 351
L 202 351
L 204 351
L 206 351
L 208 351
L 209 351
L 211 351
L 213 351
L 215 351
L 217 351
L 219 351
L 221 351
L 222 351
L 224 351
L 226 351
L 228 351
L 230 351
L 232 351
L 233 351
L 235 351
L 237 351
L 239 351
L 241 351
L 243 351
L 244 351
L 246 351
L 248 351
L 250 351
L 252 351
L 254 351
L 255 351
L 257 351
L 259 351
L 261 351
L 263 351
L 265 351
L 266 351
L 268 351
L 270 351
L 272 351
L 274 351
L 276 351
L 278 351
L 279 351
L 281 351
L 283 351
L 285 351
L 287 351
L 289 351
L 290 351
L 292 351
L 294 351
L 296 351
L 298 351
L 300 351
L 301 351
L 303 351
L 305 351
L 307 351
L 309 351
L 311 351
L 312 351
L 314 351
L 316 351
L 318 351
L 320 351
L 322 351
L 323 351
L 325 351
L 327 351
L 329 351
L 331 351
L 333 351
L 335 351
L 336 351
L 338 351
L 340 351
L 342 351
L 344 351
L 346 351
L 347 351
L 349 351
L 351 351
L 353 351
L 355 351
L 357 351
L 358 351
L 360 351
L 362 351
L 364 351
L 366 351
L 368 351
L 369 351
L 371 351
L 373 351
L 375 351
L 377 351
L 379 351
L 380 351
L 382 351
L 384 351
L 386 351
L 388 351
L 390 351
L 392 351
L 393 351
L 395 351
L 397 351
L 399 351
L 401 351
L 403 351
L 404 351
L 406 351
L 408 351
L 410 351
L 412 351
L 414 351
L 415 351
L 417 351
L 419 351
L 421 351
L 423 351
L 425 351
L 426 351
L 428 351
L 430 351
L 432 351
L 434 351
L 436 351
L 437 351
L 439 351
L 441 351
L 443 351
L 445 351
L 447 351
L 449 351
L 450 351
L 452 351
L 454 351
L 456 351
L 458 351
L 460 351
L 461 351
L 463 351
L 465 351
L 467 350
L 469 351
L 471 351
L 472 351
L 474 351
L 476 351
L 478 351
L 480 351
L 482 351
L 483 351
L 485 351
L 487 351
L 489 351
L 491 351
L 493 351
L 494 350
L 496 351
L 498 350
L 500 351
L 502 350
L 504 350
L 506 351
L 507 350
L 509 350
L 511 350
L 513 350
L 515 351
L 517 350
L 518 351
L 520 349
L 522 350
L 524 350
L 526 350
L 528 350
L 529 350
L 531 350
L 533 350
L 535 350
L 537 350
L 539 350
L 540 350
L 542 350
L 544 350
L 546 351
L 548 350
L 550 350
L 551 350
L 553 351
L 555 350
L 557 350
L 559 350
L 561 351
L 563 350
L 564 350
L 566 350
L 568 351
L 570 351
L 572 351
L 574 350
L 575 350
L 577 351
L 579 351
L 581 350
L 583 350
L 585 351
L 586 351
L 588 351
L 590 350
L 592 350
L 594 351
L 596 350
L 597 350
L 599 351
L 601 351
L 603 351
L 605 350
L 607 350
L 608 351
L 610 351
L 612 351
L 614 351
L 616 351
L 618 351
L 620 351
L 621 351
L 623 351
L 625 351
L 627 351
L 629 350
L 631 351
L 632 351
L 634 351
L 636 350
L 638 351
L 640 351
L 642 350
L 643 351
L 645 351
L 647 351
L 649 351
L 651 351
L 653 351
L 654 351
L 656 351
L 658 351
L 660 351
L 662 351
L 664 351
L 665 351
L 667 350
L 669 351
L 671 351
L 673 351
L 675 351
L 677 351
L 678 351
L 680 351
L 682 351
L 684 351
L 686 351
L 688 351
L 689 350
L 691 351
L 693 351
L 695 350
L 697 351
L 699 351
L 700 351
L 702 351
L 704 351
L 706 351
L 708 351
L 710 351
L 711 351
L 713 351
L 715 351
L 717 351
L 719 351
L 721 351
L 722 351
L 724 351
L 726 351
L 728 351
L 730 351
L 732 351
L 734 351
L 735 351
L 737 351
L 739 351
L 741 351
L 743 351
L 745 350
L 746 351
L 748 351
L 750 351
L 752 351
L 754 351
L 756 351
L 757 351
L 759 351
L 761 351
L 763 351
L 765 351
L 767 351
L 768 351
L 770 351
L 772 351
L 774 350
L 776 351
L 778 351
L 779 351
L 781 351
L 783 351
L 785 351
L 787 351
L 789 351
L 791 351
L 792 351
L 794 351
L 796 350
L 798 351
L 800 350
L 802 351
L 803 351
L 805 351
L 807 351
L 809 351
L 811 351
L 813 351
L 814 351
L 816 351
L 818 351
L 820 351
L 822 351
L 824 351
L 825 351
L 827 351
L 829 351
L 831 351
L 833 351
L 835 351
L 836 351
L 838 351
L 840 351
L 842 351
L 844 351
L 846 351
L 848 351
L 849 351
L 851 351
L 853 351
L 855 351
L 857 351
L 859 351
L 860 351
L 862 351
L 864 351
L 866 351
L 868 351
L 870 351
L 871 351
L 873 351
L 875 351
L 877 351
L 879 351
L 881 351
L 882 351
L 884 351
L 886 351
L 888 351
L 890 351
L 892 351
L 893 351
L 895 351
L 897 351
L 899 351
L 901 351
L 903 351
L 905 351
L 906 351
L 908 351
L 910 351
L 912 351
L 914 351
L 916 351
L 917 351
L 919 351
L 921 351
L 923 351
L 925 351
L 927 351
L 928 351
L 930 351
L 932 351
L 934 351
L 936 351
L 938 351
L 939 351
L 941 351
L 943 351
L 945 351
L 947 351
L 949 351
L 950 351
L 952 351
L 954 351
L 956 351
L 958 351
L 960 351
L 961 351" style="stroke-width:1;stroke:rgba(217,0,116,1.0);fill:none"/><text x="401" y="33" style="stroke-width:0;stroke:none;fill:rgba(51,51,51,1.0);font-size:23.0px;font-family:'Roboto Medium',sans-serif">Rohrbach 12.07.2021</text><path  d="M 38 11
L 251 11
L 251 91
L 38 91
L 38 11" style="stroke-width:1;stroke:rgba(51,51,51,1.0);fill:rgba(255,255,255,1.0)"/><text x="43" y="26" style="stroke-width:0;stroke:none;fill:rgba(51,51,51,1.0);font-size:10.2px;font-family:'Roboto Medium',sans-serif">Sieben Tage Durschnitt Inzidenz Fälle</text><path  d="M 221 21
L 241 21" style="stroke-width:1;stroke:rgba(0,116,217,1.0);fill:none"/><text x="43" y="56" style="stroke-width:0;stroke:none;fill:rgba(51,51,51,1.0);font-size:10.2px;font-family:'Roboto Medium',sans-serif">Anzahl Faelle</text><path  d="M 110 51
L 241 51" style="stroke-width:1;stroke:rgba(0,217,101,1.0);fill:none"/><text x="43" y="86" style="stroke-width:0;stroke:none;fill:rgba(51,51,51,1.0);font-size:10.2px;font-family:'Roboto Medium',sans-serif">Anzahl Tot</text><path  d="M 98 81
L 241 81" style="stroke-width:1;stroke:rgba(217,0,116,1.0);fill:none"/></svg>