<svg xmlns="http://www.w3.org/2000/svg" xmlns:xlink="http://www.w3.org/1999/xlink" width="1024" height="400">\n<path  d="M 0 0
L 1024 0
L 1024 400
L 0 400
L 0 0" style="stroke-width:0;stroke:rgba(255,255,255,1.0);fill:rgba(255,255,255,1.0)"/><path  d="M 38 11
L 969 11
L 969 351
L 38 351
L 38 11" style="stroke-width:0;stroke:rgba(255,255,255,1.0);fill:rgba(255,255,255,1.0)"/><path  d="M 38 351
L 969 351" style="stroke-width:1;stroke:rgba(51,51,51,1.0);fill:none"/><path  d="M 38 351
L 38 356" style="stroke-width:1;stroke:rgba(51,51,51,1.0);fill:none"/><text x="5" y="373" style="stroke-width:0;stroke:none;fill:rgba(51,51,51,1.0);font-size:12.8px;font-family:'Roboto Medium',sans-serif">2020-02-26</text><path  d="M 155 351
L 155 356" style="stroke-width:1;stroke:rgba(51,51,51,1.0);fill:none"/><text x="122" y="373" style="stroke-width:0;stroke:none;fill:rgba(51,51,51,1.0);font-size:12.8px;font-family:'Roboto Medium',sans-serif">2020-05-02</text><path  d="M 271 351
L 271 356" style="stroke-width:1;stroke:rgba(51,51,51,1.0);fill:none"/><text x="238" y="373" style="stroke-width:0;stroke:none;fill:rgba(51,51,51,1.0);font-size:12.8px;font-family:'Roboto Medium',sans-serif">2020-07-07</text><path  d="M 388 351
L 388 356" style="stroke-width:1;stroke:rgba(51,51,51,1.0);fill:none"/><text x="355" y="373" style="stroke-width:0;stroke:none;fill:rgba(51,51,51,1.0);font-size:12.8px;font-family:'Roboto Medium',sans-serif">2020-09-12</text><path  d="M 504 351
L 504 356" style="stroke-width:1;stroke:rgba(51,51,51,1.0);fill:none"/><text x="471" y="373" style="stroke-width:0;stroke:none;fill:rgba(51,51,51,1.0);font-size:12.8px;font-family:'Roboto Medium',sans-serif">2020-11-17</text><path  d="M 620 351
L 620 356" style="stroke-width:1;stroke:rgba(51,51,51,1.0);fill:none"/><text x="587" y="373" style="stroke-width:0;stroke:none;fill:rgba(51,51,51,1.0);font-size:12.8px;font-family:'Roboto Medium',sans-serif">2021-01-22</text><path  d="M 737 351
L 737 356" style="stroke-width:1;stroke:rgba(51,51,51,1.0);fill:none"/><text x="704" y="373" style="stroke-width:0;stroke:none;fill:rgba(51,51,51,1.0);font-size:12.8px;font-family:'Roboto Medium',sans-serif">2021-03-30</text><path  d="M 853 351
L 853 356" style="stroke-width:1;stroke:rgba(51,51,51,1.0);fill:none"/><text x="820" y="373" style="stroke-width:0;stroke:none;fill:rgba(51,51,51,1.0);font-size:12.8px;font-family:'Roboto Medium',sans-serif">2021-06-04</text><path  d="M 969 351
L 969 356" style="stroke-width:1;stroke:rgba(51,51,51,1.0);fill:none"/><text x="936" y="373" style="stroke-width:0;stroke:none;fill:rgba(51,51,51,1.0);font-size:12.8px;font-family:'Roboto Medium',sans-serif">2021-08-10</text><text x="485" y="395" style="stroke-width:0;stroke:none;fill:rgba(51,51,51,1.0);font-size:12.8px;font-family:'Roboto Medium',sans-serif">Datum</text><path  d="M 970 351
L 970 11" style="stroke-width:1;stroke:rgba(51,51,51,1.0);fill:none"/><path  d="M 970 351
L 975 351" style="stroke-width:1;stroke:rgba(51,51,51,1.0);fill:none"/><text x="980" y="357" style="stroke-width:0;stroke:none;fill:rgba(51,51,51,1.0);font-size:12.8px;font-family:'Roboto Medium',sans-serif">0.00</text><path  d="M 970 308
L 975 308" style="stroke-width:1;stroke:rgba(51,51,51,1.0);fill:none"/><text x="980" y="314" style="stroke-width:0;stroke:none;fill:rgba(51,51,51,1.0);font-size:12.8px;font-family:'Roboto Medium',sans-serif">83.00</text><path  d="M 970 266
L 975 266" style="stroke-width:1;stroke:rgba(51,51,51,1.0);fill:none"/><text x="980" y="272" style="stroke-width:0;stroke:none;fill:rgba(51,51,51,1.0);font-size:12.8px;font-family:'Roboto Medium',sans-serif">165.00</text><path  d="M 970 223
L 975 223" style="stroke-width:1;stroke:rgba(51,51,51,1.0);fill:none"/><text x="980" y="229" style="stroke-width:0;stroke:none;fill:rgba(51,51,51,1.0);font-size:12.8px;font-family:'Roboto Medium',sans-serif">248.00</text><path  d="M 970 181
L 975 181" style="stroke-width:1;stroke:rgba(51,51,51,1.0);fill:none"/><text x="980" y="187" style="stroke-width:0;stroke:none;fill:rgba(51,51,51,1.0);font-size:12.8px;font-family:'Roboto Medium',sans-serif">330.00</text><path  d="M 970 138
L 975 138" style="stroke-width:1;stroke:rgba(51,51,51,1.0);fill:none"/><text x="980" y="144" style="stroke-width:0;stroke:none;fill:rgba(51,51,51,1.0);font-size:12.8px;font-family:'Roboto Medium',sans-serif">413.00</text><path  d="M 970 96
L 975 96" style="stroke-width:1;stroke:rgba(51,51,51,1.0);fill:none"/><text x="980" y="102" style="stroke-width:0;stroke:none;fill:rgba(51,51,51,1.0);font-size:12.8px;font-family:'Roboto Medium',sans-serif">495.00</text><path  d="M 970 53
L 975 53" style="stroke-width:1;stroke:rgba(51,51,51,1.0);fill:none"/><text x="980" y="59" style="stroke-width:0;stroke:none;fill:rgba(51,51,51,1.0);font-size:12.8px;font-family:'Roboto Medium',sans-serif">578.00</text><path  d="M 970 11
L 975 11" style="stroke-width:1;stroke:rgba(51,51,51,1.0);fill:none"/><text x="980" y="17" style="stroke-width:0;stroke:none;fill:rgba(51,51,51,1.0);font-size:12.8px;font-family:'Roboto Medium',sans-serif">660.00</text><path  d="M 38 351
L 40 351
L 42 351
L 44 351
L 46 351
L 47 351
L 49 351
L 51 351
L 53 351
L 54 351
L 56 351
L 58 351
L 60 351
L 61 350
L 63 350
L 65 348
L 67 348
L 68 346
L 70 345
L 72 345
L 74 344
L 75 343
L 77 343
L 79 340
L 81 341
L 82 339
L 84 334
L 86 332
L 88 330
L 89 330
L 91 331
L 93 330
L 95 332
L 96 335
L 98 338
L 100 341
L 102 341
L 103 343
L 105 345
L 107 346
L 109 347
L 110 346
L 112 347
L 114 347
L 116 347
L 117 348
L 119 346
L 121 346
L 123 347
L 124 347
L 126 347
L 128 348
L 130 348
L 131 349
L 133 350
L 135 350
L 137 350
L 138 351
L 140 350
L 142 350
L 144 350
L 145 350
L 147 350
L 149 350
L 151 350
L 152 351
L 154 351
L 156 351
L 158 351
L 159 351
L 161 351
L 163 351
L 165 351
L 166 351
L 168 351
L 170 351
L 172 351
L 174 351
L 175 351
L 177 351
L 179 351
L 181 351
L 182 351
L 184 350
L 186 350
L 188 350
L 189 350
L 191 350
L 193 350
L 195 350
L 196 351
L 198 351
L 200 351
L 202 351
L 203 351
L 205 351
L 207 351
L 209 351
L 210 351
L 212 351
L 214 351
L 216 351
L 217 351
L 219 351
L 221 351
L 223 351
L 224 351
L 226 351
L 228 351
L 230 351
L 231 351
L 233 351
L 235 350
L 237 350
L 238 349
L 240 349
L 242 349
L 244 349
L 245 348
L 247 348
L 249 349
L 251 349
L 252 350
L 254 350
L 256 350
L 258 350
L 259 350
L 261 350
L 263 349
L 265 349
L 266 349
L 268 348
L 270 347
L 272 345
L 273 345
L 275 345
L 277 346
L 279 346
L 280 347
L 282 348
L 284 350
L 286 349
L 287 348
L 289 347
L 291 347
L 293 348
L 294 346
L 296 345
L 298 344
L 300 345
L 301 345
L 303 345
L 305 344
L 307 346
L 309 346
L 310 346
L 312 347
L 314 347
L 316 346
L 317 346
L 319 345
L 321 346
L 323 347
L 324 347
L 326 347
L 328 348
L 330 348
L 331 348
L 333 346
L 335 346
L 337 345
L 338 345
L 340 345
L 342 345
L 344 344
L 345 341
L 347 342
L 349 340
L 351 336
L 352 336
L 354 335
L 356 336
L 358 339
L 359 338
L 361 340
L 363 341
L 365 341
L 366 341
L 368 341
L 370 341
L 372 341
L 373 341
L 375 340
L 377 339
L 379 339
L 380 341
L 382 340
L 384 339
L 386 335
L 387 336
L 389 336
L 391 335
L 393 334
L 394 333
L 396 329
L 398 329
L 400 330
L 401 328
L 403 329
L 405 331
L 407 331
L 408 332
L 410 332
L 412 333
L 414 333
L 415 331
L 417 327
L 419 328
L 421 330
L 422 331
L 424 330
L 426 330
L 428 330
L 429 331
L 431 327
L 433 324
L 435 324
L 436 324
L 438 322
L 440 319
L 442 321
L 444 322
L 445 319
L 447 319
L 449 314
L 451 313
L 452 310
L 454 301
L 456 286
L 458 273
L 459 256
L 461 254
L 463 239
L 465 242
L 466 238
L 468 233
L 470 225
L 472 223
L 473 203
L 475 191
L 477 183
L 479 159
L 480 155
L 482 125
L 484 108
L 486 109
L 487 116
L 489 107
L 491 129
L 493 97
L 494 99
L 496 107
L 498 116
L 500 90
L 501 72
L 503 26
L 505 52
L 507 78
L 508 45
L 510 12
L 512 62
L 514 49
L 515 74
L 517 65
L 519 56
L 521 89
L 522 111
L 524 95
L 526 124
L 528 138
L 529 162
L 531 181
L 533 199
L 535 220
L 536 226
L 538 234
L 540 251
L 542 243
L 543 246
L 545 240
L 547 229
L 549 221
L 550 216
L 552 211
L 554 225
L 556 232
L 557 231
L 559 243
L 561 255
L 563 261
L 564 260
L 566 256
L 568 257
L 570 267
L 572 264
L 573 261
L 575 257
L 577 241
L 579 230
L 580 226
L 582 226
L 584 219
L 586 218
L 587 220
L 589 207
L 591 218
L 593 209
L 594 201
L 596 197
L 598 196
L 600 200
L 601 227
L 603 228
L 605 241
L 607 248
L 608 248
L 610 254
L 612 256
L 614 253
L 615 244
L 617 243
L 619 244
L 621 248
L 622 247
L 624 244
L 626 250
L 628 261
L 629 261
L 631 260
L 633 269
L 635 270
L 636 274
L 638 271
L 640 279
L 642 279
L 643 281
L 645 283
L 647 282
L 649 290
L 650 292
L 652 285
L 654 290
L 656 292
L 657 289
L 659 292
L 661 288
L 663 291
L 664 297
L 666 299
L 668 301
L 670 297
L 671 295
L 673 296
L 675 295
L 677 295
L 678 292
L 680 288
L 682 291
L 684 290
L 685 285
L 687 286
L 689 276
L 691 270
L 692 264
L 694 262
L 696 261
L 698 256
L 699 251
L 701 253
L 703 246
L 705 240
L 707 237
L 708 232
L 710 228
L 712 217
L 714 210
L 715 214
L 717 215
L 719 211
L 721 218
L 722 222
L 724 223
L 726 224
L 728 221
L 729 224
L 731 224
L 733 218
L 735 222
L 736 224
L 738 228
L 740 228
L 742 225
L 743 232
L 745 231
L 747 237
L 749 240
L 750 235
L 752 236
L 754 231
L 756 233
L 757 239
L 759 236
L 761 237
L 763 247
L 764 257
L 766 270
L 768 268
L 770 264
L 771 258
L 773 263
L 775 268
L 777 255
L 778 262
L 780 260
L 782 259
L 784 261
L 785 261
L 787 259
L 789 272
L 791 270
L 792 277
L 794 283
L 796 286
L 798 292
L 799 297
L 801 297
L 803 302
L 805 304
L 806 304
L 808 310
L 810 316
L 812 317
L 813 321
L 815 322
L 817 322
L 819 326
L 820 329
L 822 330
L 824 332
L 826 335
L 827 337
L 829 336
L 831 331
L 833 332
L 834 332
L 836 332
L 838 332
L 840 331
L 842 335
L 843 337
L 845 338
L 847 339
L 849 340
L 850 342
L 852 342
L 854 343
L 856 345
L 857 345
L 859 345
L 861 346
L 863 347
L 864 347
L 866 347
L 868 347
L 870 346
L 871 346
L 873 345
L 875 344
L 877 344
L 878 345
L 880 344
L 882 345
L 884 346
L 885 346
L 887 347
L 889 348
L 891 348
L 892 349
L 894 349
L 896 349
L 898 349
L 899 349
L 901 349
L 903 349
L 905 350
L 906 350
L 908 350
L 910 349
L 912 349
L 913 349
L 915 348
L 917 348
L 919 347
L 920 344
L 922 344
L 924 342
L 926 340
L 927 338
L 929 336
L 931 332
L 933 332
L 934 328
L 936 324
L 938 324
L 940 323
L 941 322
L 943 318
L 945 318
L 947 320
L 948 322
L 950 321
L 952 323
L 954 322
L 955 325
L 957 324
L 959 326
L 961 322
L 962 322
L 964 319
L 966 320
L 968 319
L 969 313" style="stroke-width:1;stroke:rgba(0,116,217,1.0);fill:none"/><path  d="M 38 351
L 40 351
L 42 351
L 44 351
L 46 351
L 47 351
L 49 351
L 51 351
L 53 351
L 54 351
L 56 351
L 58 351
L 60 351
L 61 350
L 63 350
L 65 348
L 67 351
L 68 346
L 70 349
L 72 351
L 74 349
L 75 348
L 77 348
L 79 345
L 81 349
L 82 345
L 84 344
L 86 345
L 88 345
L 89 348
L 91 346
L 93 347
L 95 348
L 96 349
L 98 349
L 100 349
L 102 349
L 103 349
L 105 349
L 107 350
L 109 351
L 110 348
L 112 351
L 114 350
L 116 349
L 117 351
L 119 348
L 121 349
L 123 350
L 124 351
L 126 350
L 128 351
L 130 351
L 131 351
L 133 351
L 135 351
L 137 351
L 138 351
L 140 350
L 142 351
L 144 351
L 145 351
L 147 351
L 149 351
L 151 351
L 152 351
L 154 351
L 156 351
L 158 351
L 159 351
L 161 351
L 163 351
L 165 351
L 166 351
L 168 351
L 170 351
L 172 351
L 174 351
L 175 351
L 177 351
L 179 351
L 181 351
L 182 351
L 184 350
L 186 351
L 188 351
L 189 351
L 191 351
L 193 351
L 195 351
L 196 351
L 198 351
L 200 351
L 202 351
L 203 351
L 205 351
L 207 351
L 209 351
L 210 351
L 212 351
L 214 351
L 216 351
L 217 351
L 219 351
L 221 351
L 223 351
L 224 351
L 226 351
L 228 351
L 230 351
L 231 351
L 233 351
L 235 350
L 237 349
L 238 350
L 240 350
L 242 350
L 244 351
L 245 350
L 247 350
L 249 351
L 251 351
L 252 351
L 254 351
L 256 350
L 258 350
L 259 351
L 261 350
L 263 350
L 265 349
L 266 351
L 268 349
L 270 348
L 272 347
L 273 351
L 275 350
L 277 351
L 279 351
L 280 350
L 282 351
L 284 350
L 286 349
L 287 348
L 289 349
L 291 351
L 293 351
L 294 347
L 296 348
L 298 348
L 300 349
L 301 349
L 303 351
L 305 350
L 307 350
L 309 349
L 310 348
L 312 351
L 314 349
L 316 349
L 317 350
L 319 349
L 321 351
L 323 349
L 324 351
L 326 349
L 328 351
L 330 350
L 331 348
L 333 348
L 335 348
L 337 349
L 338 351
L 340 349
L 342 351
L 344 347
L 345 344
L 347 351
L 349 345
L 351 344
L 352 351
L 354 348
L 356 348
L 358 349
L 359 349
L 361 348
L 363 346
L 365 351
L 366 348
L 368 347
L 370 349
L 372 349
L 373 348
L 375 344
L 377 350
L 379 348
L 380 349
L 382 347
L 384 347
L 386 343
L 387 346
L 389 351
L 391 346
L 393 347
L 394 346
L 396 341
L 398 343
L 400 347
L 401 347
L 403 348
L 405 349
L 407 346
L 408 343
L 410 343
L 412 348
L 414 348
L 415 346
L 417 343
L 419 348
L 421 346
L 422 343
L 424 348
L 426 347
L 428 346
L 429 343
L 431 342
L 433 342
L 435 344
L 436 348
L 438 344
L 440 342
L 442 347
L 444 342
L 445 338
L 447 344
L 449 340
L 451 342
L 452 338
L 454 332
L 456 319
L 458 319
L 459 318
L 461 337
L 463 318
L 465 342
L 466 326
L 468 312
L 470 305
L 472 315
L 473 307
L 475 299
L 477 329
L 479 288
L 480 306
L 482 258
L 484 288
L 486 309
L 487 311
L 489 315
L 491 323
L 493 255
L 494 262
L 496 301
L 498 324
L 500 270
L 501 286
L 503 252
L 505 296
L 507 302
L 508 249
L 510 274
L 512 347
L 514 266
L 515 291
L 517 281
L 519 288
L 521 300
L 522 308
L 524 322
L 526 311
L 528 311
L 529 319
L 531 319
L 533 328
L 535 340
L 536 332
L 538 324
L 540 337
L 542 307
L 543 322
L 545 320
L 547 322
L 549 321
L 550 315
L 552 330
L 554 328
L 556 334
L 557 318
L 559 341
L 561 340
L 563 324
L 564 329
L 566 322
L 568 335
L 570 334
L 572 337
L 573 334
L 575 318
L 577 305
L 579 304
L 580 329
L 582 333
L 584 326
L 586 333
L 587 321
L 589 284
L 591 322
L 593 314
L 594 321
L 596 321
L 598 331
L 600 327
L 601 326
L 603 324
L 605 335
L 607 331
L 608 321
L 610 341
L 612 329
L 614 322
L 615 309
L 617 334
L 619 332
L 621 327
L 622 340
L 624 324
L 626 331
L 628 327
L 629 333
L 631 331
L 633 341
L 635 341
L 636 331
L 638 326
L 640 339
L 642 332
L 643 335
L 645 343
L 647 340
L 649 344
L 650 329
L 652 328
L 654 340
L 656 338
L 657 339
L 659 345
L 661 337
L 663 335
L 664 337
L 666 343
L 668 341
L 670 332
L 671 342
L 673 339
L 675 334
L 677 336
L 678 339
L 680 334
L 682 338
L 684 340
L 685 332
L 687 335
L 689 320
L 691 329
L 692 324
L 694 336
L 696 339
L 698 324
L 699 327
L 701 322
L 703 319
L 705 315
L 707 331
L 708 330
L 710 318
L 712 309
L 714 312
L 715 325
L 717 317
L 719 325
L 721 342
L 722 324
L 724 310
L 726 313
L 728 321
L 729 321
L 731 325
L 733 334
L 735 330
L 736 313
L 738 320
L 740 321
L 742 317
L 743 335
L 745 332
L 747 340
L 749 317
L 750 313
L 752 323
L 754 308
L 756 338
L 757 341
L 759 336
L 761 320
L 763 328
L 764 337
L 766 328
L 768 336
L 770 335
L 771 326
L 773 327
L 775 336
L 777 318
L 778 338
L 780 332
L 782 334
L 784 328
L 785 327
L 787 334
L 789 338
L 791 335
L 792 344
L 794 343
L 796 334
L 798 337
L 799 342
L 801 337
L 803 343
L 805 346
L 806 344
L 808 342
L 810 346
L 812 343
L 813 344
L 815 345
L 817 345
L 819 351
L 820 347
L 822 347
L 824 347
L 826 347
L 827 349
L 829 343
L 831 344
L 833 347
L 834 348
L 836 347
L 838 347
L 840 348
L 842 348
L 843 348
L 845 348
L 847 350
L 849 348
L 850 349
L 852 349
L 854 349
L 856 351
L 857 349
L 859 349
L 861 350
L 863 350
L 864 350
L 866 348
L 868 350
L 870 348
L 871 349
L 873 349
L 875 348
L 877 349
L 878 350
L 880 349
L 882 350
L 884 351
L 885 349
L 887 350
L 889 351
L 891 351
L 892 349
L 894 351
L 896 350
L 898 351
L 899 350
L 901 350
L 903 351
L 905 351
L 906 351
L 908 351
L 910 349
L 912 350
L 913 349
L 915 348
L 917 351
L 919 350
L 920 346
L 922 349
L 924 347
L 926 346
L 927 345
L 929 348
L 931 344
L 933 345
L 934 343
L 936 342
L 938 346
L 940 342
L 941 347
L 943 338
L 945 345
L 947 346
L 948 344
L 950 344
L 952 346
L 954 345
L 955 342
L 957 344
L 959 348
L 961 339
L 962 344
L 964 342
L 966 347
L 968 341
L 969 334" style="stroke-width:1;stroke:rgba(0,217,101,1.0);fill:none"/><path  d="M 38 351
L 40 351
L 42 351
L 44 351
L 46 351
L 47 351
L 49 351
L 51 351
L 53 351
L 54 351
L 56 351
L 58 351
L 60 351
L 61 351
L 63 351
L 65 351
L 67 351
L 68 351
L 70 351
L 72 351
L 74 351
L 75 351
L 77 351
L 79 351
L 81 351
L 82 351
L 84 351
L 86 351
L 88 351
L 89 351
L 91 351
L 93 351
L 95 351
L 96 351
L 98 351
L 100 351
L 102 351
L 103 351
L 105 350
L 107 351
L 109 351
L 110 351
L 112 351
L 114 351
L 116 351
L 117 351
L 119 351
L 121 351
L 123 351
L 124 351
L 126 351
L 128 351
L 130 351
L 131 351
L 133 351
L 135 351
L 137 351
L 138 351
L 140 351
L 142 351
L 144 351
L 145 351
L 147 351
L 149 351
L 151 351
L 152 351
L 154 351
L 156 351
L 158 351
L 159 351
L 161 351
L 163 351
L 165 351
L 166 351
L 168 351
L 170 351
L 172 351
L 174 351
L 175 351
L 177 351
L 179 351
L 181 351
L 182 351
L 184 351
L 186 351
L 188 351
L 189 351
L 191 351
L 193 351
L 195 351
L 196 351
L 198 351
L 200 351
L 202 351
L 203 351
L 205 351
L 207 351
L 209 351
L 210 351
L 212 351
L 214 351
L 216 351
L 217 351
L 219 351
L 221 351
L 223 351
L 224 351
L 226 351
L 228 351
L 230 351
L 231 351
L 233 351
L 235 351
L 237 351
L 238 351
L 240 351
L 242 351
L 244 351
L 245 351
L 247 351
L 249 351
L 251 351
L 252 351
L 254 351
L 256 351
L 258 351
L 259 351
L 261 351
L 263 351
L 265 351
L 266 351
L 268 351
L 270 351
L 272 351
L 273 351
L 275 351
L 277 351
L 279 351
L 280 351
L 282 351
L 284 351
L 286 351
L 287 351
L 289 351
L 291 351
L 293 351
L 294 351
L 296 351
L 298 351
L 300 351
L 301 351
L 303 351
L 305 351
L 307 351
L 309 351
L 310 351
L 312 351
L 314 351
L 316 351
L 317 351
L 319 351
L 321 351
L 323 351
L 324 351
L 326 351
L 328 351
L 330 351
L 331 351
L 333 351
L 335 351
L 337 351
L 338 351
L 340 351
L 342 351
L 344 351
L 345 351
L 347 351
L 349 351
L 351 351
L 352 351
L 354 351
L 356 351
L 358 351
L 359 351
L 361 351
L 363 351
L 365 351
L 366 351
L 368 351
L 370 351
L 372 351
L 373 351
L 375 351
L 377 351
L 379 351
L 380 351
L 382 351
L 384 351
L 386 351
L 387 351
L 389 351
L 391 351
L 393 351
L 394 351
L 396 351
L 398 351
L 400 351
L 401 351
L 403 351
L 405 351
L 407 351
L 408 350
L 410 351
L 412 351
L 414 351
L 415 351
L 417 351
L 419 350
L 421 351
L 422 351
L 424 351
L 426 351
L 428 351
L 429 351
L 431 351
L 433 351
L 435 351
L 436 351
L 438 351
L 440 351
L 442 351
L 444 351
L 445 351
L 447 351
L 449 351
L 451 351
L 452 351
L 454 351
L 456 351
L 458 351
L 459 351
L 461 351
L 463 351
L 465 351
L 466 351
L 468 351
L 470 351
L 472 351
L 473 350
L 475 351
L 477 351
L 479 351
L 480 350
L 482 351
L 484 351
L 486 350
L 487 351
L 489 351
L 491 350
L 493 350
L 494 351
L 496 350
L 498 350
L 500 351
L 501 349
L 503 350
L 505 351
L 507 349
L 508 351
L 510 348
L 512 350
L 514 351
L 515 350
L 517 350
L 519 349
L 521 349
L 522 349
L 524 349
L 526 350
L 528 348
L 529 349
L 531 351
L 533 350
L 535 349
L 536 351
L 538 350
L 540 349
L 542 350
L 543 350
L 545 350
L 547 351
L 549 351
L 550 349
L 552 351
L 554 351
L 556 351
L 557 350
L 559 351
L 561 350
L 563 349
L 564 350
L 566 349
L 568 351
L 570 349
L 572 349
L 573 350
L 575 351
L 577 350
L 579 351
L 580 351
L 582 351
L 584 349
L 586 350
L 587 350
L 589 349
L 591 350
L 593 351
L 594 349
L 596 351
L 598 351
L 600 351
L 601 351
L 603 350
L 605 349
L 607 349
L 608 349
L 610 350
L 612 351
L 614 350
L 615 349
L 617 350
L 619 350
L 621 351
L 622 349
L 624 350
L 626 349
L 628 349
L 629 350
L 631 351
L 633 349
L 635 351
L 636 350
L 638 349
L 640 351
L 642 350
L 643 351
L 645 350
L 647 351
L 649 350
L 650 351
L 652 350
L 654 351
L 656 351
L 657 350
L 659 349
L 661 349
L 663 351
L 664 350
L 666 351
L 668 351
L 670 350
L 671 351
L 673 350
L 675 351
L 677 351
L 678 351
L 680 351
L 682 351
L 684 350
L 685 350
L 687 351
L 689 351
L 691 351
L 692 351
L 694 350
L 696 351
L 698 350
L 699 351
L 701 351
L 703 350
L 705 351
L 707 350
L 708 351
L 710 350
L 712 349
L 714 351
L 715 351
L 717 351
L 719 351
L 721 351
L 722 351
L 724 351
L 726 351
L 728 350
L 729 349
L 731 351
L 733 351
L 735 350
L 736 351
L 738 351
L 740 351
L 742 351
L 743 351
L 745 351
L 747 351
L 749 351
L 750 351
L 752 351
L 754 351
L 756 350
L 757 351
L 759 350
L 761 351
L 763 350
L 764 350
L 766 351
L 768 351
L 770 351
L 771 351
L 773 351
L 775 349
L 777 351
L 778 351
L 780 351
L 782 351
L 784 351
L 785 351
L 787 351
L 789 351
L 791 350
L 792 351
L 794 351
L 796 351
L 798 350
L 799 351
L 801 351
L 803 350
L 805 351
L 806 351
L 808 351
L 810 351
L 812 349
L 813 351
L 815 351
L 817 350
L 819 351
L 820 351
L 822 351
L 824 351
L 826 350
L 827 351
L 829 351
L 831 351
L 833 351
L 834 351
L 836 351
L 838 351
L 840 351
L 842 351
L 843 351
L 845 351
L 847 351
L 849 351
L 850 351
L 852 351
L 854 351
L 856 351
L 857 351
L 859 351
L 861 351
L 863 351
L 864 351
L 866 351
L 868 351
L 870 351
L 871 351
L 873 350
L 875 351
L 877 351
L 878 351
L 880 351
L 882 351
L 884 351
L 885 350
L 887 351
L 889 351
L 891 350
L 892 351
L 894 351
L 896 351
L 898 351
L 899 351
L 901 351
L 903 351
L 905 351
L 906 351
L 908 351
L 910 351
L 912 351
L 913 351
L 915 351
L 917 351
L 919 351
L 920 351
L 922 351
L 924 351
L 926 351
L 927 351
L 929 351
L 931 351
L 933 351
L 934 351
L 936 351
L 938 351
L 940 351
L 941 351
L 943 351
L 945 351
L 947 351
L 948 351
L 950 351
L 952 351
L 954 351
L 955 351
L 957 351
L 959 351
L 961 351
L 962 351
L 964 351
L 966 351
L 968 351
L 969 351" style="stroke-width:1;stroke:rgba(217,0,116,1.0);fill:none"/><text x="370" y="33" style="stroke-width:0;stroke:none;fill:rgba(51,51,51,1.0);font-size:23.0px;font-family:'Roboto Medium',sans-serif">Salzburg(Stadt) 10.08.2021</text><path  d="M 38 11
L 251 11
L 251 91
L 38 91
L 38 11" style="stroke-width:1;stroke:rgba(51,51,51,1.0);fill:rgba(255,255,255,1.0)"/><text x="43" y="26" style="stroke-width:0;stroke:none;fill:rgba(51,51,51,1.0);font-size:10.2px;font-family:'Roboto Medium',sans-serif">Sieben Tage Durschnitt Inzidenz Fälle</text><path  d="M 221 21
L 241 21" style="stroke-width:1;stroke:rgba(0,116,217,1.0);fill:none"/><text x="43" y="56" style="stroke-width:0;stroke:none;fill:rgba(51,51,51,1.0);font-size:10.2px;font-family:'Roboto Medium',sans-serif">Anzahl Faelle</text><path  d="M 110 51
L 241 51" style="stroke-width:1;stroke:rgba(0,217,101,1.0);fill:none"/><text x="43" y="86" style="stroke-width:0;stroke:none;fill:rgba(51,51,51,1.0);font-size:10.2px;font-family:'Roboto Medium',sans-serif">Anzahl Tot</text><path  d="M 98 81
L 241 81" style="stroke-width:1;stroke:rgba(217,0,116,1.0);fill:none"/></svg>