<svg xmlns="http://www.w3.org/2000/svg" xmlns:xlink="http://www.w3.org/1999/xlink" width="1024" height="400">\n<path  d="M 0 0
L 1024 0
L 1024 400
L 0 400
L 0 0" style="stroke-width:0;stroke:rgba(255,255,255,1.0);fill:rgba(255,255,255,1.0)"/><path  d="M 38 11
L 969 11
L 969 351
L 38 351
L 38 11" style="stroke-width:0;stroke:rgba(255,255,255,1.0);fill:rgba(255,255,255,1.0)"/><path  d="M 38 351
L 969 351" style="stroke-width:1;stroke:rgba(51,51,51,1.0);fill:none"/><path  d="M 38 351
L 38 356" style="stroke-width:1;stroke:rgba(51,51,51,1.0);fill:none"/><text x="5" y="373" style="stroke-width:0;stroke:none;fill:rgba(51,51,51,1.0);font-size:12.8px;font-family:'Roboto Medium',sans-serif">2020-02-26</text><path  d="M 155 351
L 155 356" style="stroke-width:1;stroke:rgba(51,51,51,1.0);fill:none"/><text x="122" y="373" style="stroke-width:0;stroke:none;fill:rgba(51,51,51,1.0);font-size:12.8px;font-family:'Roboto Medium',sans-serif">2020-04-24</text><path  d="M 271 351
L 271 356" style="stroke-width:1;stroke:rgba(51,51,51,1.0);fill:none"/><text x="238" y="373" style="stroke-width:0;stroke:none;fill:rgba(51,51,51,1.0);font-size:12.8px;font-family:'Roboto Medium',sans-serif">2020-06-22</text><path  d="M 388 351
L 388 356" style="stroke-width:1;stroke:rgba(51,51,51,1.0);fill:none"/><text x="355" y="373" style="stroke-width:0;stroke:none;fill:rgba(51,51,51,1.0);font-size:12.8px;font-family:'Roboto Medium',sans-serif">2020-08-20</text><path  d="M 504 351
L 504 356" style="stroke-width:1;stroke:rgba(51,51,51,1.0);fill:none"/><text x="471" y="373" style="stroke-width:0;stroke:none;fill:rgba(51,51,51,1.0);font-size:12.8px;font-family:'Roboto Medium',sans-serif">2020-10-18</text><path  d="M 620 351
L 620 356" style="stroke-width:1;stroke:rgba(51,51,51,1.0);fill:none"/><text x="587" y="373" style="stroke-width:0;stroke:none;fill:rgba(51,51,51,1.0);font-size:12.8px;font-family:'Roboto Medium',sans-serif">2020-12-16</text><path  d="M 737 351
L 737 356" style="stroke-width:1;stroke:rgba(51,51,51,1.0);fill:none"/><text x="704" y="373" style="stroke-width:0;stroke:none;fill:rgba(51,51,51,1.0);font-size:12.8px;font-family:'Roboto Medium',sans-serif">2021-02-13</text><path  d="M 853 351
L 853 356" style="stroke-width:1;stroke:rgba(51,51,51,1.0);fill:none"/><text x="820" y="373" style="stroke-width:0;stroke:none;fill:rgba(51,51,51,1.0);font-size:12.8px;font-family:'Roboto Medium',sans-serif">2021-04-13</text><path  d="M 969 351
L 969 356" style="stroke-width:1;stroke:rgba(51,51,51,1.0);fill:none"/><text x="936" y="373" style="stroke-width:0;stroke:none;fill:rgba(51,51,51,1.0);font-size:12.8px;font-family:'Roboto Medium',sans-serif">2021-06-11</text><text x="485" y="395" style="stroke-width:0;stroke:none;fill:rgba(51,51,51,1.0);font-size:12.8px;font-family:'Roboto Medium',sans-serif">Datum</text><path  d="M 970 351
L 970 11" style="stroke-width:1;stroke:rgba(51,51,51,1.0);fill:none"/><path  d="M 970 351
L 975 351" style="stroke-width:1;stroke:rgba(51,51,51,1.0);fill:none"/><text x="980" y="357" style="stroke-width:0;stroke:none;fill:rgba(51,51,51,1.0);font-size:12.8px;font-family:'Roboto Medium',sans-serif">0.00</text><path  d="M 970 308
L 975 308" style="stroke-width:1;stroke:rgba(51,51,51,1.0);fill:none"/><text x="980" y="314" style="stroke-width:0;stroke:none;fill:rgba(51,51,51,1.0);font-size:12.8px;font-family:'Roboto Medium',sans-serif">89.00</text><path  d="M 970 265
L 975 265" style="stroke-width:1;stroke:rgba(51,51,51,1.0);fill:none"/><text x="980" y="271" style="stroke-width:0;stroke:none;fill:rgba(51,51,51,1.0);font-size:12.8px;font-family:'Roboto Medium',sans-serif">178.00</text><path  d="M 970 223
L 975 223" style="stroke-width:1;stroke:rgba(51,51,51,1.0);fill:none"/><text x="980" y="229" style="stroke-width:0;stroke:none;fill:rgba(51,51,51,1.0);font-size:12.8px;font-family:'Roboto Medium',sans-serif">267.00</text><path  d="M 970 181
L 975 181" style="stroke-width:1;stroke:rgba(51,51,51,1.0);fill:none"/><text x="980" y="187" style="stroke-width:0;stroke:none;fill:rgba(51,51,51,1.0);font-size:12.8px;font-family:'Roboto Medium',sans-serif">355.00</text><path  d="M 970 138
L 975 138" style="stroke-width:1;stroke:rgba(51,51,51,1.0);fill:none"/><text x="980" y="144" style="stroke-width:0;stroke:none;fill:rgba(51,51,51,1.0);font-size:12.8px;font-family:'Roboto Medium',sans-serif">444.00</text><path  d="M 970 95
L 975 95" style="stroke-width:1;stroke:rgba(51,51,51,1.0);fill:none"/><text x="980" y="101" style="stroke-width:0;stroke:none;fill:rgba(51,51,51,1.0);font-size:12.8px;font-family:'Roboto Medium',sans-serif">533.00</text><path  d="M 970 53
L 975 53" style="stroke-width:1;stroke:rgba(51,51,51,1.0);fill:none"/><text x="980" y="59" style="stroke-width:0;stroke:none;fill:rgba(51,51,51,1.0);font-size:12.8px;font-family:'Roboto Medium',sans-serif">622.00</text><path  d="M 970 11
L 975 11" style="stroke-width:1;stroke:rgba(51,51,51,1.0);fill:none"/><text x="980" y="17" style="stroke-width:0;stroke:none;fill:rgba(51,51,51,1.0);font-size:12.8px;font-family:'Roboto Medium',sans-serif">710.00</text><path  d="M 38 351
L 40 351
L 42 351
L 44 351
L 46 351
L 48 351
L 50 351
L 52 351
L 54 351
L 56 351
L 58 350
L 60 350
L 62 350
L 64 350
L 66 350
L 68 350
L 70 350
L 72 349
L 74 349
L 76 348
L 78 347
L 80 345
L 82 344
L 84 343
L 86 343
L 88 338
L 90 335
L 92 332
L 94 330
L 96 329
L 98 327
L 100 325
L 102 326
L 104 328
L 106 328
L 108 330
L 110 331
L 112 331
L 114 333
L 116 336
L 118 338
L 120 341
L 122 341
L 123 343
L 125 345
L 127 346
L 129 347
L 131 347
L 133 348
L 135 348
L 137 348
L 139 348
L 141 348
L 143 347
L 145 347
L 147 347
L 149 348
L 151 348
L 153 349
L 155 349
L 157 350
L 159 350
L 161 350
L 163 350
L 165 350
L 167 350
L 169 350
L 171 350
L 173 350
L 175 350
L 177 350
L 179 350
L 181 350
L 183 350
L 185 350
L 187 350
L 189 351
L 191 351
L 193 351
L 195 351
L 197 351
L 199 351
L 201 351
L 203 351
L 205 351
L 207 351
L 208 351
L 210 351
L 212 350
L 214 350
L 216 350
L 218 350
L 220 350
L 222 350
L 224 350
L 226 351
L 228 351
L 230 351
L 232 351
L 234 351
L 236 351
L 238 351
L 240 351
L 242 351
L 244 351
L 246 351
L 248 351
L 250 351
L 252 351
L 254 351
L 256 351
L 258 350
L 260 350
L 262 350
L 264 350
L 266 349
L 268 349
L 270 349
L 272 349
L 274 348
L 276 349
L 278 349
L 280 349
L 282 349
L 284 349
L 286 349
L 288 349
L 290 349
L 292 349
L 293 349
L 295 349
L 297 349
L 299 349
L 301 350
L 303 350
L 305 350
L 307 350
L 309 350
L 311 349
L 313 347
L 315 347
L 317 347
L 319 347
L 321 346
L 323 346
L 325 348
L 327 349
L 329 349
L 331 349
L 333 349
L 335 348
L 337 347
L 339 347
L 341 347
L 343 345
L 345 344
L 347 345
L 349 346
L 351 347
L 353 346
L 355 346
L 357 348
L 359 347
L 361 347
L 363 343
L 365 343
L 367 342
L 369 341
L 371 340
L 373 341
L 375 340
L 377 342
L 378 342
L 380 344
L 382 341
L 384 342
L 386 343
L 388 344
L 390 345
L 392 345
L 394 343
L 396 347
L 398 346
L 400 346
L 402 346
L 404 346
L 406 346
L 408 348
L 410 348
L 412 349
L 414 350
L 416 349
L 418 348
L 420 348
L 422 348
L 424 348
L 426 346
L 428 345
L 430 346
L 432 346
L 434 346
L 436 345
L 438 345
L 440 345
L 442 345
L 444 340
L 446 340
L 448 340
L 450 340
L 452 340
L 454 340
L 456 340
L 458 342
L 460 343
L 462 342
L 463 340
L 465 338
L 467 338
L 469 334
L 471 335
L 473 334
L 475 332
L 477 329
L 479 329
L 481 329
L 483 328
L 485 325
L 487 324
L 489 324
L 491 320
L 493 314
L 495 310
L 497 296
L 499 290
L 501 277
L 503 269
L 505 266
L 507 258
L 509 245
L 511 238
L 513 221
L 515 222
L 517 209
L 519 209
L 521 199
L 523 194
L 525 185
L 527 180
L 529 161
L 531 145
L 533 138
L 535 123
L 537 106
L 539 85
L 541 55
L 543 66
L 545 59
L 546 63
L 548 83
L 550 62
L 552 58
L 554 75
L 556 82
L 558 76
L 560 41
L 562 12
L 564 39
L 566 66
L 568 76
L 570 43
L 572 94
L 574 96
L 576 110
L 578 107
L 580 98
L 582 104
L 584 126
L 586 116
L 588 149
L 590 149
L 592 174
L 594 187
L 596 202
L 598 220
L 600 226
L 602 228
L 604 248
L 606 246
L 608 260
L 610 257
L 612 250
L 614 245
L 616 209
L 618 199
L 620 204
L 622 205
L 624 205
L 626 207
L 628 211
L 630 243
L 631 249
L 633 241
L 635 248
L 637 251
L 639 258
L 641 244
L 643 242
L 645 235
L 647 234
L 649 215
L 651 217
L 653 201
L 655 210
L 657 221
L 659 210
L 661 226
L 663 224
L 665 222
L 667 234
L 669 233
L 671 228
L 673 247
L 675 243
L 677 260
L 679 263
L 681 262
L 683 268
L 685 277
L 687 280
L 689 276
L 691 273
L 693 272
L 695 275
L 697 274
L 699 270
L 701 272
L 703 279
L 705 280
L 707 283
L 709 287
L 711 278
L 713 281
L 715 274
L 716 281
L 718 286
L 720 288
L 722 290
L 724 297
L 726 299
L 728 307
L 730 304
L 732 297
L 734 299
L 736 298
L 738 304
L 740 301
L 742 300
L 744 296
L 746 297
L 748 295
L 750 289
L 752 288
L 754 289
L 756 286
L 758 286
L 760 290
L 762 285
L 764 279
L 766 278
L 768 268
L 770 268
L 772 266
L 774 250
L 776 246
L 778 250
L 780 246
L 782 251
L 784 248
L 786 243
L 788 255
L 790 253
L 792 252
L 794 249
L 796 243
L 798 240
L 800 242
L 801 239
L 803 236
L 805 238
L 807 234
L 809 232
L 811 227
L 813 221
L 815 210
L 817 209
L 819 207
L 821 208
L 823 215
L 825 214
L 827 221
L 829 229
L 831 234
L 833 237
L 835 242
L 837 245
L 839 250
L 841 243
L 843 244
L 845 242
L 847 242
L 849 242
L 851 237
L 853 241
L 855 247
L 857 257
L 859 264
L 861 268
L 863 270
L 865 265
L 867 271
L 869 275
L 871 266
L 873 266
L 875 267
L 877 267
L 879 266
L 881 270
L 883 266
L 885 274
L 886 274
L 888 277
L 890 281
L 892 294
L 894 298
L 896 310
L 898 311
L 900 318
L 902 322
L 904 322
L 906 327
L 908 330
L 910 331
L 912 333
L 914 335
L 916 335
L 918 335
L 920 336
L 922 336
L 924 335
L 926 335
L 928 335
L 930 335
L 932 335
L 934 336
L 936 338
L 938 339
L 940 340
L 942 340
L 944 339
L 946 340
L 948 339
L 950 341
L 952 342
L 954 342
L 956 344
L 958 344
L 960 346
L 962 345
L 964 345
L 966 345
L 968 346
L 969 344" style="stroke-width:1;stroke:rgba(0,116,217,1.0);fill:none"/><path  d="M 38 351
L 40 351
L 42 351
L 44 351
L 46 351
L 48 351
L 50 351
L 52 351
L 54 351
L 56 351
L 58 350
L 60 351
L 62 351
L 64 351
L 66 351
L 68 350
L 70 350
L 72 349
L 74 351
L 76 349
L 78 350
L 80 347
L 82 348
L 84 349
L 86 349
L 88 343
L 90 344
L 92 345
L 94 345
L 96 345
L 98 347
L 100 345
L 102 346
L 104 346
L 106 346
L 108 347
L 110 348
L 112 345
L 114 349
L 116 349
L 118 351
L 120 349
L 122 349
L 123 350
L 125 349
L 127 350
L 129 351
L 131 351
L 133 351
L 135 350
L 137 350
L 139 350
L 141 350
L 143 349
L 145 351
L 147 351
L 149 351
L 151 351
L 153 351
L 155 351
L 157 350
L 159 351
L 161 350
L 163 351
L 165 351
L 167 351
L 169 351
L 171 351
L 173 351
L 175 350
L 177 351
L 179 351
L 181 351
L 183 351
L 185 351
L 187 351
L 189 351
L 191 351
L 193 351
L 195 351
L 197 351
L 199 351
L 201 351
L 203 351
L 205 351
L 207 351
L 208 351
L 210 351
L 212 350
L 214 351
L 216 351
L 218 351
L 220 351
L 222 351
L 224 351
L 226 351
L 228 351
L 230 351
L 232 351
L 234 351
L 236 351
L 238 351
L 240 351
L 242 351
L 244 351
L 246 351
L 248 351
L 250 351
L 252 351
L 254 351
L 256 351
L 258 350
L 260 351
L 262 350
L 264 350
L 266 350
L 268 351
L 270 350
L 272 350
L 274 350
L 276 351
L 278 351
L 280 350
L 282 351
L 284 351
L 286 350
L 288 350
L 290 351
L 292 350
L 293 351
L 295 351
L 297 351
L 299 350
L 301 351
L 303 351
L 305 350
L 307 351
L 309 351
L 311 349
L 313 348
L 315 351
L 317 351
L 319 350
L 321 350
L 323 351
L 325 351
L 327 351
L 329 350
L 331 350
L 333 350
L 335 348
L 337 350
L 339 351
L 341 350
L 343 348
L 345 349
L 347 351
L 349 351
L 351 351
L 353 350
L 355 350
L 357 350
L 359 348
L 361 350
L 363 345
L 365 351
L 367 348
L 369 348
L 371 349
L 373 349
L 375 348
L 377 349
L 378 350
L 380 351
L 382 344
L 384 351
L 386 351
L 388 350
L 390 350
L 392 351
L 394 347
L 396 350
L 398 350
L 400 350
L 402 351
L 404 350
L 406 351
L 408 350
L 410 350
L 412 351
L 414 351
L 416 349
L 418 349
L 420 351
L 422 351
L 424 350
L 426 348
L 428 349
L 430 351
L 432 349
L 434 351
L 436 350
L 438 350
L 440 347
L 442 349
L 444 344
L 446 348
L 448 351
L 450 350
L 452 351
L 454 347
L 456 349
L 458 347
L 460 349
L 462 350
L 463 347
L 465 347
L 467 348
L 469 341
L 471 348
L 473 348
L 475 347
L 477 342
L 479 347
L 481 347
L 483 340
L 485 343
L 487 347
L 489 347
L 491 336
L 493 338
L 495 340
L 497 319
L 499 334
L 501 328
L 503 334
L 505 331
L 507 325
L 509 320
L 511 308
L 513 307
L 515 329
L 517 314
L 519 332
L 521 309
L 523 312
L 525 295
L 527 301
L 529 300
L 531 290
L 533 321
L 535 287
L 537 285
L 539 264
L 541 255
L 543 317
L 545 279
L 546 326
L 548 319
L 550 251
L 552 259
L 554 280
L 556 328
L 558 270
L 560 271
L 562 275
L 564 292
L 566 301
L 568 295
L 570 276
L 572 349
L 574 274
L 576 296
L 578 287
L 580 287
L 582 305
L 584 310
L 586 333
L 588 325
L 590 297
L 592 325
L 594 307
L 596 328
L 598 338
L 600 342
L 602 328
L 604 329
L 606 321
L 608 330
L 610 323
L 612 327
L 614 335
L 616 272
L 618 313
L 620 328
L 622 332
L 624 324
L 626 328
L 628 341
L 630 322
L 631 323
L 633 315
L 635 343
L 637 328
L 639 340
L 641 319
L 643 318
L 645 313
L 647 312
L 649 315
L 651 332
L 653 315
L 655 334
L 657 334
L 659 297
L 661 337
L 663 311
L 665 329
L 667 334
L 669 331
L 671 327
L 673 326
L 675 330
L 677 338
L 679 334
L 681 331
L 683 340
L 685 341
L 687 331
L 689 324
L 691 333
L 693 332
L 695 336
L 697 339
L 699 335
L 701 334
L 703 334
L 705 335
L 707 337
L 709 341
L 711 327
L 713 339
L 715 323
L 716 345
L 718 342
L 720 341
L 722 344
L 724 338
L 726 342
L 728 336
L 730 339
L 732 333
L 734 344
L 736 342
L 738 347
L 740 337
L 742 334
L 744 334
L 746 334
L 748 340
L 750 334
L 752 344
L 754 339
L 756 328
L 758 333
L 760 341
L 762 332
L 764 325
L 766 343
L 768 323
L 770 328
L 772 331
L 774 316
L 776 327
L 778 331
L 780 337
L 782 331
L 784 324
L 786 323
L 788 334
L 790 324
L 792 330
L 794 332
L 796 323
L 798 319
L 800 325
L 801 330
L 803 319
L 805 333
L 807 327
L 809 318
L 811 311
L 813 316
L 815 314
L 817 318
L 819 329
L 821 328
L 823 329
L 825 310
L 827 326
L 829 326
L 831 327
L 833 333
L 835 336
L 837 334
L 839 318
L 841 316
L 843 327
L 845 323
L 847 334
L 849 336
L 851 327
L 853 323
L 855 325
L 857 343
L 859 333
L 861 339
L 863 339
L 865 320
L 867 331
L 869 332
L 871 329
L 873 333
L 875 340
L 877 339
L 879 318
L 881 338
L 883 326
L 885 342
L 886 334
L 888 344
L 890 347
L 892 338
L 894 343
L 896 345
L 898 343
L 900 345
L 902 349
L 904 348
L 906 346
L 908 346
L 910 347
L 912 347
L 914 347
L 916 350
L 918 348
L 920 348
L 922 345
L 924 346
L 926 347
L 928 347
L 930 350
L 932 348
L 934 350
L 936 348
L 938 347
L 940 348
L 942 348
L 944 349
L 946 349
L 948 349
L 950 350
L 952 349
L 954 349
L 956 350
L 958 350
L 960 351
L 962 348
L 964 350
L 966 349
L 968 351
L 969 346" style="stroke-width:1;stroke:rgba(0,217,101,1.0);fill:none"/><path  d="M 38 351
L 40 351
L 42 351
L 44 351
L 46 351
L 48 351
L 50 351
L 52 351
L 54 351
L 56 351
L 58 351
L 60 351
L 62 351
L 64 351
L 66 351
L 68 351
L 70 351
L 72 351
L 74 351
L 76 351
L 78 351
L 80 351
L 82 351
L 84 351
L 86 351
L 88 351
L 90 351
L 92 351
L 94 350
L 96 351
L 98 351
L 100 351
L 102 350
L 104 351
L 106 351
L 108 351
L 110 351
L 112 351
L 114 351
L 116 351
L 118 351
L 120 350
L 122 351
L 123 350
L 125 351
L 127 351
L 129 351
L 131 351
L 133 351
L 135 351
L 137 350
L 139 351
L 141 351
L 143 351
L 145 351
L 147 350
L 149 351
L 151 351
L 153 351
L 155 351
L 157 351
L 159 351
L 161 350
L 163 351
L 165 351
L 167 351
L 169 351
L 171 351
L 173 351
L 175 351
L 177 351
L 179 351
L 181 350
L 183 351
L 185 351
L 187 351
L 189 351
L 191 351
L 193 351
L 195 351
L 197 351
L 199 351
L 201 351
L 203 351
L 205 351
L 207 351
L 208 351
L 210 351
L 212 351
L 214 351
L 216 351
L 218 351
L 220 351
L 222 351
L 224 351
L 226 351
L 228 351
L 230 351
L 232 351
L 234 351
L 236 351
L 238 351
L 240 351
L 242 351
L 244 351
L 246 351
L 248 351
L 250 351
L 252 351
L 254 351
L 256 351
L 258 351
L 260 351
L 262 351
L 264 351
L 266 351
L 268 351
L 270 351
L 272 351
L 274 351
L 276 351
L 278 351
L 280 351
L 282 351
L 284 351
L 286 351
L 288 351
L 290 351
L 292 351
L 293 351
L 295 351
L 297 351
L 299 351
L 301 351
L 303 351
L 305 351
L 307 351
L 309 351
L 311 351
L 313 351
L 315 351
L 317 351
L 319 351
L 321 351
L 323 351
L 325 351
L 327 351
L 329 351
L 331 351
L 333 351
L 335 351
L 337 351
L 339 351
L 341 351
L 343 351
L 345 351
L 347 351
L 349 351
L 351 351
L 353 351
L 355 351
L 357 350
L 359 351
L 361 351
L 363 351
L 365 351
L 367 351
L 369 351
L 371 351
L 373 351
L 375 351
L 377 351
L 378 351
L 380 351
L 382 351
L 384 351
L 386 351
L 388 351
L 390 351
L 392 351
L 394 351
L 396 351
L 398 351
L 400 351
L 402 351
L 404 351
L 406 351
L 408 351
L 410 351
L 412 351
L 414 351
L 416 351
L 418 351
L 420 351
L 422 351
L 424 351
L 426 351
L 428 351
L 430 351
L 432 351
L 434 351
L 436 351
L 438 351
L 440 351
L 442 351
L 444 351
L 446 351
L 448 351
L 450 351
L 452 351
L 454 351
L 456 351
L 458 351
L 460 351
L 462 351
L 463 351
L 465 351
L 467 351
L 469 351
L 471 351
L 473 351
L 475 351
L 477 351
L 479 351
L 481 351
L 483 351
L 485 351
L 487 351
L 489 351
L 491 351
L 493 351
L 495 351
L 497 351
L 499 351
L 501 350
L 503 351
L 505 351
L 507 351
L 509 350
L 511 351
L 513 350
L 515 350
L 517 351
L 519 351
L 521 351
L 523 351
L 525 350
L 527 351
L 529 351
L 531 351
L 533 351
L 535 350
L 537 351
L 539 351
L 541 351
L 543 350
L 545 350
L 546 349
L 548 351
L 550 351
L 552 351
L 554 351
L 556 350
L 558 350
L 560 349
L 562 351
L 564 351
L 566 350
L 568 351
L 570 350
L 572 350
L 574 351
L 576 350
L 578 351
L 580 350
L 582 351
L 584 350
L 586 351
L 588 351
L 590 349
L 592 351
L 594 350
L 596 350
L 598 350
L 600 350
L 602 350
L 604 349
L 606 350
L 608 350
L 610 348
L 612 351
L 614 351
L 616 351
L 618 351
L 620 350
L 622 350
L 624 351
L 626 351
L 628 350
L 630 349
L 631 350
L 633 351
L 635 350
L 637 351
L 639 349
L 641 351
L 643 350
L 645 349
L 647 350
L 649 351
L 651 350
L 653 351
L 655 350
L 657 350
L 659 350
L 661 350
L 663 351
L 665 351
L 667 351
L 669 351
L 671 350
L 673 351
L 675 351
L 677 351
L 679 351
L 681 351
L 683 350
L 685 350
L 687 351
L 689 350
L 691 351
L 693 350
L 695 350
L 697 351
L 699 350
L 701 351
L 703 351
L 705 351
L 707 351
L 709 351
L 711 351
L 713 351
L 715 351
L 716 350
L 718 351
L 720 351
L 722 351
L 724 351
L 726 351
L 728 350
L 730 351
L 732 351
L 734 351
L 736 350
L 738 351
L 740 350
L 742 351
L 744 351
L 746 351
L 748 351
L 750 351
L 752 350
L 754 350
L 756 351
L 758 351
L 760 351
L 762 351
L 764 351
L 766 350
L 768 351
L 770 351
L 772 351
L 774 350
L 776 351
L 778 351
L 780 351
L 782 351
L 784 351
L 786 351
L 788 351
L 790 351
L 792 350
L 794 350
L 796 350
L 798 351
L 800 350
L 801 350
L 803 351
L 805 351
L 807 350
L 809 350
L 811 351
L 813 349
L 815 351
L 817 351
L 819 351
L 821 351
L 823 351
L 825 351
L 827 351
L 829 350
L 831 351
L 833 351
L 835 351
L 837 351
L 839 350
L 841 351
L 843 351
L 845 351
L 847 351
L 849 351
L 851 351
L 853 350
L 855 350
L 857 351
L 859 351
L 861 351
L 863 350
L 865 351
L 867 349
L 869 351
L 871 351
L 873 350
L 875 351
L 877 350
L 879 351
L 881 351
L 883 351
L 885 351
L 886 351
L 888 351
L 890 351
L 892 351
L 894 351
L 896 351
L 898 351
L 900 351
L 902 351
L 904 351
L 906 350
L 908 351
L 910 351
L 912 350
L 914 351
L 916 351
L 918 351
L 920 351
L 922 351
L 924 351
L 926 351
L 928 351
L 930 351
L 932 351
L 934 351
L 936 351
L 938 351
L 940 351
L 942 351
L 944 351
L 946 351
L 948 351
L 950 351
L 952 350
L 954 351
L 956 351
L 958 351
L 960 351
L 962 350
L 964 351
L 966 351
L 968 351
L 969 351" style="stroke-width:1;stroke:rgba(217,0,116,1.0);fill:none"/><text x="345" y="33" style="stroke-width:0;stroke:none;fill:rgba(51,51,51,1.0);font-size:23.0px;font-family:'Roboto Medium',sans-serif">Salzburg-Umgebung 11.06.2021</text><path  d="M 38 11
L 251 11
L 251 91
L 38 91
L 38 11" style="stroke-width:1;stroke:rgba(51,51,51,1.0);fill:rgba(255,255,255,1.0)"/><text x="43" y="26" style="stroke-width:0;stroke:none;fill:rgba(51,51,51,1.0);font-size:10.2px;font-family:'Roboto Medium',sans-serif">Sieben Tage Durschnitt Inzidenz Fälle</text><path  d="M 221 21
L 241 21" style="stroke-width:1;stroke:rgba(0,116,217,1.0);fill:none"/><text x="43" y="56" style="stroke-width:0;stroke:none;fill:rgba(51,51,51,1.0);font-size:10.2px;font-family:'Roboto Medium',sans-serif">Anzahl Faelle</text><path  d="M 110 51
L 241 51" style="stroke-width:1;stroke:rgba(0,217,101,1.0);fill:none"/><text x="43" y="86" style="stroke-width:0;stroke:none;fill:rgba(51,51,51,1.0);font-size:10.2px;font-family:'Roboto Medium',sans-serif">Anzahl Tot</text><path  d="M 98 81
L 241 81" style="stroke-width:1;stroke:rgba(217,0,116,1.0);fill:none"/></svg>