<svg xmlns="http://www.w3.org/2000/svg" xmlns:xlink="http://www.w3.org/1999/xlink" width="1024" height="400">\n<path  d="M 0 0
L 1024 0
L 1024 400
L 0 400
L 0 0" style="stroke-width:0;stroke:rgba(255,255,255,1.0);fill:rgba(255,255,255,1.0)"/><path  d="M 38 11
L 969 11
L 969 351
L 38 351
L 38 11" style="stroke-width:0;stroke:rgba(255,255,255,1.0);fill:rgba(255,255,255,1.0)"/><path  d="M 38 351
L 969 351" style="stroke-width:1;stroke:rgba(51,51,51,1.0);fill:none"/><path  d="M 38 351
L 38 356" style="stroke-width:1;stroke:rgba(51,51,51,1.0);fill:none"/><text x="5" y="373" style="stroke-width:0;stroke:none;fill:rgba(51,51,51,1.0);font-size:12.8px;font-family:'Roboto Medium',sans-serif">2020-02-26</text><path  d="M 155 351
L 155 356" style="stroke-width:1;stroke:rgba(51,51,51,1.0);fill:none"/><text x="122" y="373" style="stroke-width:0;stroke:none;fill:rgba(51,51,51,1.0);font-size:12.8px;font-family:'Roboto Medium',sans-serif">2020-04-15</text><path  d="M 271 351
L 271 356" style="stroke-width:1;stroke:rgba(51,51,51,1.0);fill:none"/><text x="238" y="373" style="stroke-width:0;stroke:none;fill:rgba(51,51,51,1.0);font-size:12.8px;font-family:'Roboto Medium',sans-serif">2020-06-03</text><path  d="M 388 351
L 388 356" style="stroke-width:1;stroke:rgba(51,51,51,1.0);fill:none"/><text x="355" y="373" style="stroke-width:0;stroke:none;fill:rgba(51,51,51,1.0);font-size:12.8px;font-family:'Roboto Medium',sans-serif">2020-07-22</text><path  d="M 504 351
L 504 356" style="stroke-width:1;stroke:rgba(51,51,51,1.0);fill:none"/><text x="471" y="373" style="stroke-width:0;stroke:none;fill:rgba(51,51,51,1.0);font-size:12.8px;font-family:'Roboto Medium',sans-serif">2020-09-09</text><path  d="M 620 351
L 620 356" style="stroke-width:1;stroke:rgba(51,51,51,1.0);fill:none"/><text x="587" y="373" style="stroke-width:0;stroke:none;fill:rgba(51,51,51,1.0);font-size:12.8px;font-family:'Roboto Medium',sans-serif">2020-10-28</text><path  d="M 737 351
L 737 356" style="stroke-width:1;stroke:rgba(51,51,51,1.0);fill:none"/><text x="704" y="373" style="stroke-width:0;stroke:none;fill:rgba(51,51,51,1.0);font-size:12.8px;font-family:'Roboto Medium',sans-serif">2020-12-16</text><path  d="M 853 351
L 853 356" style="stroke-width:1;stroke:rgba(51,51,51,1.0);fill:none"/><text x="820" y="373" style="stroke-width:0;stroke:none;fill:rgba(51,51,51,1.0);font-size:12.8px;font-family:'Roboto Medium',sans-serif">2021-02-03</text><path  d="M 969 351
L 969 356" style="stroke-width:1;stroke:rgba(51,51,51,1.0);fill:none"/><text x="936" y="373" style="stroke-width:0;stroke:none;fill:rgba(51,51,51,1.0);font-size:12.8px;font-family:'Roboto Medium',sans-serif">2021-03-24</text><text x="485" y="395" style="stroke-width:0;stroke:none;fill:rgba(51,51,51,1.0);font-size:12.8px;font-family:'Roboto Medium',sans-serif">Datum</text><path  d="M 970 351
L 970 11" style="stroke-width:1;stroke:rgba(51,51,51,1.0);fill:none"/><path  d="M 970 351
L 975 351" style="stroke-width:1;stroke:rgba(51,51,51,1.0);fill:none"/><text x="980" y="357" style="stroke-width:0;stroke:none;fill:rgba(51,51,51,1.0);font-size:12.8px;font-family:'Roboto Medium',sans-serif">0.00</text><path  d="M 970 308
L 975 308" style="stroke-width:1;stroke:rgba(51,51,51,1.0);fill:none"/><text x="980" y="314" style="stroke-width:0;stroke:none;fill:rgba(51,51,51,1.0);font-size:12.8px;font-family:'Roboto Medium',sans-serif">83.00</text><path  d="M 970 266
L 975 266" style="stroke-width:1;stroke:rgba(51,51,51,1.0);fill:none"/><text x="980" y="272" style="stroke-width:0;stroke:none;fill:rgba(51,51,51,1.0);font-size:12.8px;font-family:'Roboto Medium',sans-serif">165.00</text><path  d="M 970 223
L 975 223" style="stroke-width:1;stroke:rgba(51,51,51,1.0);fill:none"/><text x="980" y="229" style="stroke-width:0;stroke:none;fill:rgba(51,51,51,1.0);font-size:12.8px;font-family:'Roboto Medium',sans-serif">248.00</text><path  d="M 970 181
L 975 181" style="stroke-width:1;stroke:rgba(51,51,51,1.0);fill:none"/><text x="980" y="187" style="stroke-width:0;stroke:none;fill:rgba(51,51,51,1.0);font-size:12.8px;font-family:'Roboto Medium',sans-serif">330.00</text><path  d="M 970 138
L 975 138" style="stroke-width:1;stroke:rgba(51,51,51,1.0);fill:none"/><text x="980" y="144" style="stroke-width:0;stroke:none;fill:rgba(51,51,51,1.0);font-size:12.8px;font-family:'Roboto Medium',sans-serif">413.00</text><path  d="M 970 96
L 975 96" style="stroke-width:1;stroke:rgba(51,51,51,1.0);fill:none"/><text x="980" y="102" style="stroke-width:0;stroke:none;fill:rgba(51,51,51,1.0);font-size:12.8px;font-family:'Roboto Medium',sans-serif">495.00</text><path  d="M 970 53
L 975 53" style="stroke-width:1;stroke:rgba(51,51,51,1.0);fill:none"/><text x="980" y="59" style="stroke-width:0;stroke:none;fill:rgba(51,51,51,1.0);font-size:12.8px;font-family:'Roboto Medium',sans-serif">578.00</text><path  d="M 970 11
L 975 11" style="stroke-width:1;stroke:rgba(51,51,51,1.0);fill:none"/><text x="980" y="17" style="stroke-width:0;stroke:none;fill:rgba(51,51,51,1.0);font-size:12.8px;font-family:'Roboto Medium',sans-serif">660.00</text><path  d="M 38 351
L 41 351
L 43 351
L 46 351
L 48 351
L 50 351
L 53 351
L 55 351
L 57 351
L 60 351
L 62 351
L 65 351
L 67 351
L 69 350
L 72 350
L 74 348
L 76 348
L 79 346
L 81 345
L 84 345
L 86 344
L 88 343
L 91 343
L 93 340
L 95 341
L 98 339
L 100 334
L 103 332
L 105 330
L 107 330
L 110 331
L 112 330
L 114 332
L 117 335
L 119 338
L 122 340
L 124 341
L 126 343
L 129 345
L 131 346
L 133 347
L 136 346
L 138 347
L 141 347
L 143 347
L 145 348
L 148 346
L 150 346
L 152 347
L 155 347
L 157 347
L 160 348
L 162 348
L 164 349
L 167 350
L 169 350
L 171 350
L 174 351
L 176 350
L 179 350
L 181 350
L 183 350
L 186 350
L 188 350
L 190 350
L 193 351
L 195 351
L 198 351
L 200 351
L 202 351
L 205 351
L 207 351
L 209 351
L 212 351
L 214 351
L 217 351
L 219 351
L 221 351
L 224 351
L 226 351
L 228 351
L 231 351
L 233 351
L 236 350
L 238 350
L 240 350
L 243 350
L 245 350
L 247 350
L 250 350
L 252 351
L 255 351
L 257 351
L 259 351
L 262 351
L 264 351
L 266 351
L 269 351
L 271 351
L 274 351
L 276 351
L 278 351
L 281 351
L 283 351
L 286 351
L 288 351
L 290 351
L 293 351
L 295 351
L 297 351
L 300 351
L 302 351
L 304 350
L 307 350
L 309 349
L 312 349
L 314 349
L 316 349
L 319 348
L 321 348
L 323 349
L 326 349
L 328 350
L 331 350
L 333 350
L 335 350
L 338 350
L 340 350
L 342 349
L 345 349
L 347 349
L 350 348
L 352 347
L 354 345
L 357 345
L 359 345
L 361 346
L 364 346
L 366 347
L 369 348
L 371 350
L 373 349
L 376 348
L 378 347
L 380 347
L 383 348
L 385 346
L 388 345
L 390 344
L 392 345
L 395 345
L 397 345
L 399 344
L 402 346
L 404 346
L 407 346
L 409 347
L 411 347
L 414 346
L 416 346
L 418 345
L 421 346
L 423 347
L 426 347
L 428 347
L 430 348
L 433 348
L 435 348
L 437 346
L 440 346
L 442 344
L 445 345
L 447 344
L 449 345
L 452 344
L 454 341
L 456 342
L 459 340
L 461 336
L 464 336
L 466 335
L 468 335
L 471 339
L 473 338
L 475 340
L 478 341
L 480 341
L 483 341
L 485 341
L 487 341
L 490 341
L 492 341
L 494 340
L 497 339
L 499 339
L 502 341
L 504 340
L 506 339
L 509 335
L 511 336
L 513 336
L 516 335
L 518 333
L 521 332
L 523 329
L 525 329
L 528 330
L 530 328
L 533 330
L 535 331
L 537 331
L 540 332
L 542 332
L 544 333
L 547 333
L 549 331
L 551 327
L 554 328
L 556 330
L 559 331
L 561 330
L 563 330
L 566 330
L 568 331
L 570 327
L 573 324
L 575 324
L 578 324
L 580 322
L 582 319
L 585 321
L 587 322
L 589 319
L 592 319
L 594 314
L 597 313
L 599 310
L 601 301
L 604 286
L 606 273
L 608 257
L 611 255
L 613 240
L 616 242
L 618 239
L 620 234
L 623 225
L 625 222
L 627 203
L 630 191
L 632 182
L 635 158
L 637 154
L 639 125
L 642 108
L 644 109
L 646 116
L 649 107
L 651 129
L 654 96
L 656 99
L 658 106
L 661 116
L 663 89
L 665 71
L 668 25
L 670 50
L 673 76
L 675 43
L 677 11
L 680 60
L 682 47
L 684 73
L 687 63
L 689 54
L 692 87
L 694 109
L 696 93
L 699 123
L 701 135
L 703 160
L 706 180
L 708 198
L 711 220
L 713 226
L 715 233
L 718 250
L 720 242
L 722 243
L 725 238
L 727 227
L 730 219
L 732 214
L 734 210
L 737 224
L 739 232
L 741 231
L 744 242
L 746 255
L 749 259
L 751 259
L 753 255
L 756 256
L 758 266
L 760 264
L 763 260
L 765 257
L 768 242
L 770 230
L 772 225
L 775 224
L 777 217
L 779 217
L 782 219
L 784 206
L 787 218
L 789 209
L 791 201
L 794 198
L 796 196
L 798 200
L 801 226
L 803 228
L 806 241
L 808 248
L 810 247
L 813 253
L 815 255
L 817 252
L 820 243
L 822 242
L 825 243
L 827 247
L 829 247
L 832 243
L 834 249
L 836 260
L 839 260
L 841 259
L 844 268
L 846 269
L 848 273
L 851 270
L 853 278
L 855 277
L 858 279
L 860 281
L 863 281
L 865 289
L 867 291
L 870 285
L 872 290
L 874 292
L 877 290
L 879 292
L 882 288
L 884 292
L 886 297
L 889 299
L 891 300
L 893 296
L 896 294
L 898 296
L 901 295
L 903 294
L 905 291
L 908 287
L 910 291
L 912 290
L 915 284
L 917 285
L 920 275
L 922 269
L 924 263
L 927 262
L 929 260
L 931 255
L 934 250
L 936 251
L 939 243
L 941 236
L 943 232
L 946 227
L 948 223
L 950 210
L 953 202
L 955 205
L 958 205
L 960 201
L 962 209
L 965 214
L 967 213
L 969 212" style="stroke-width:1;stroke:rgba(0,116,217,1.0);fill:none"/><path  d="M 38 351
L 41 351
L 43 351
L 46 351
L 48 351
L 50 351
L 53 351
L 55 351
L 57 351
L 60 351
L 62 351
L 65 351
L 67 351
L 69 350
L 72 350
L 74 348
L 76 351
L 79 346
L 81 349
L 84 351
L 86 349
L 88 348
L 91 348
L 93 345
L 95 349
L 98 345
L 100 344
L 103 345
L 105 345
L 107 348
L 110 346
L 112 347
L 114 348
L 117 349
L 119 349
L 122 349
L 124 349
L 126 349
L 129 349
L 131 350
L 133 351
L 136 348
L 138 351
L 141 350
L 143 349
L 145 351
L 148 348
L 150 349
L 152 350
L 155 351
L 157 350
L 160 351
L 162 351
L 164 351
L 167 351
L 169 351
L 171 351
L 174 351
L 176 350
L 179 351
L 181 351
L 183 351
L 186 351
L 188 351
L 190 351
L 193 351
L 195 351
L 198 351
L 200 351
L 202 351
L 205 351
L 207 351
L 209 351
L 212 351
L 214 351
L 217 351
L 219 351
L 221 351
L 224 351
L 226 351
L 228 351
L 231 351
L 233 351
L 236 350
L 238 351
L 240 351
L 243 351
L 245 351
L 247 351
L 250 351
L 252 351
L 255 351
L 257 351
L 259 351
L 262 351
L 264 351
L 266 351
L 269 351
L 271 351
L 274 351
L 276 351
L 278 351
L 281 351
L 283 351
L 286 351
L 288 351
L 290 351
L 293 351
L 295 351
L 297 351
L 300 351
L 302 351
L 304 350
L 307 349
L 309 350
L 312 350
L 314 350
L 316 351
L 319 350
L 321 350
L 323 351
L 326 351
L 328 351
L 331 351
L 333 350
L 335 350
L 338 351
L 340 350
L 342 350
L 345 349
L 347 351
L 350 349
L 352 348
L 354 347
L 357 351
L 359 350
L 361 351
L 364 351
L 366 350
L 369 351
L 371 350
L 373 349
L 376 348
L 378 349
L 380 351
L 383 351
L 385 347
L 388 348
L 390 348
L 392 349
L 395 349
L 397 351
L 399 350
L 402 350
L 404 349
L 407 348
L 409 351
L 411 349
L 414 349
L 416 350
L 418 349
L 421 351
L 423 349
L 426 351
L 428 349
L 430 351
L 433 350
L 435 348
L 437 348
L 440 348
L 442 348
L 445 351
L 447 349
L 449 351
L 452 347
L 454 344
L 456 351
L 459 345
L 461 344
L 464 351
L 466 348
L 468 348
L 471 349
L 473 349
L 475 348
L 478 346
L 480 351
L 483 348
L 485 347
L 487 349
L 490 349
L 492 348
L 494 344
L 497 350
L 499 348
L 502 349
L 504 347
L 506 347
L 509 342
L 511 346
L 513 351
L 516 346
L 518 347
L 521 346
L 523 342
L 525 343
L 528 347
L 530 347
L 533 348
L 535 349
L 537 346
L 540 343
L 542 343
L 544 348
L 547 348
L 549 346
L 551 343
L 554 348
L 556 346
L 559 343
L 561 348
L 563 347
L 566 346
L 568 343
L 570 342
L 573 342
L 575 344
L 578 348
L 580 344
L 582 342
L 585 347
L 587 342
L 589 338
L 592 344
L 594 340
L 597 342
L 599 338
L 601 332
L 604 319
L 606 319
L 608 319
L 611 338
L 613 318
L 616 342
L 618 326
L 620 312
L 623 304
L 625 315
L 627 307
L 630 299
L 632 329
L 635 288
L 637 307
L 639 258
L 642 288
L 644 309
L 646 310
L 649 315
L 651 323
L 654 256
L 656 262
L 658 300
L 661 324
L 663 270
L 665 286
L 668 251
L 670 296
L 673 302
L 675 249
L 677 274
L 680 347
L 682 265
L 684 291
L 687 281
L 689 288
L 692 300
L 694 307
L 696 323
L 699 312
L 701 310
L 703 319
L 706 319
L 708 328
L 711 340
L 713 333
L 715 322
L 718 337
L 720 307
L 722 321
L 725 320
L 727 322
L 730 321
L 732 315
L 734 330
L 737 328
L 739 334
L 741 318
L 744 340
L 746 340
L 749 323
L 751 329
L 753 322
L 756 336
L 758 334
L 760 337
L 763 334
L 765 318
L 768 305
L 770 304
L 772 328
L 775 332
L 777 326
L 779 333
L 782 321
L 784 285
L 787 322
L 789 314
L 791 321
L 794 322
L 796 330
L 798 327
L 801 326
L 803 324
L 806 335
L 808 331
L 810 321
L 813 340
L 815 330
L 817 321
L 820 309
L 822 334
L 825 332
L 827 327
L 829 340
L 832 325
L 834 330
L 836 326
L 839 333
L 841 331
L 844 340
L 846 341
L 848 331
L 851 325
L 853 339
L 855 331
L 858 335
L 860 343
L 863 341
L 865 344
L 867 329
L 870 328
L 872 340
L 874 338
L 877 339
L 879 345
L 882 337
L 884 335
L 886 337
L 889 343
L 891 340
L 893 332
L 896 342
L 898 339
L 901 334
L 903 336
L 905 339
L 908 334
L 910 338
L 912 340
L 915 331
L 917 334
L 920 321
L 922 330
L 924 324
L 927 336
L 929 338
L 931 323
L 934 327
L 936 321
L 939 318
L 941 312
L 943 331
L 946 329
L 948 316
L 950 308
L 953 309
L 955 322
L 958 313
L 960 324
L 962 342
L 965 323
L 967 307
L 969 308" style="stroke-width:1;stroke:rgba(0,217,101,1.0);fill:none"/><path  d="M 38 351
L 41 351
L 43 351
L 46 351
L 48 351
L 50 351
L 53 351
L 55 351
L 57 351
L 60 351
L 62 351
L 65 351
L 67 351
L 69 351
L 72 351
L 74 351
L 76 351
L 79 351
L 81 351
L 84 351
L 86 351
L 88 351
L 91 351
L 93 351
L 95 351
L 98 351
L 100 351
L 103 351
L 105 351
L 107 351
L 110 351
L 112 351
L 114 351
L 117 351
L 119 351
L 122 351
L 124 351
L 126 351
L 129 350
L 131 351
L 133 351
L 136 351
L 138 351
L 141 351
L 143 351
L 145 351
L 148 351
L 150 351
L 152 351
L 155 351
L 157 351
L 160 351
L 162 351
L 164 351
L 167 351
L 169 351
L 171 351
L 174 351
L 176 351
L 179 351
L 181 351
L 183 351
L 186 351
L 188 351
L 190 351
L 193 351
L 195 351
L 198 351
L 200 351
L 202 351
L 205 351
L 207 351
L 209 351
L 212 351
L 214 351
L 217 351
L 219 351
L 221 351
L 224 351
L 226 351
L 228 351
L 231 351
L 233 351
L 236 351
L 238 351
L 240 351
L 243 351
L 245 351
L 247 351
L 250 351
L 252 351
L 255 351
L 257 351
L 259 351
L 262 351
L 264 351
L 266 351
L 269 351
L 271 351
L 274 351
L 276 351
L 278 351
L 281 351
L 283 351
L 286 351
L 288 351
L 290 351
L 293 351
L 295 351
L 297 351
L 300 351
L 302 351
L 304 351
L 307 351
L 309 351
L 312 351
L 314 351
L 316 351
L 319 351
L 321 351
L 323 351
L 326 351
L 328 351
L 331 351
L 333 351
L 335 351
L 338 351
L 340 351
L 342 351
L 345 351
L 347 351
L 350 351
L 352 351
L 354 351
L 357 351
L 359 351
L 361 351
L 364 351
L 366 351
L 369 351
L 371 351
L 373 351
L 376 351
L 378 351
L 380 351
L 383 351
L 385 351
L 388 351
L 390 351
L 392 351
L 395 351
L 397 351
L 399 351
L 402 351
L 404 351
L 407 351
L 409 351
L 411 351
L 414 351
L 416 351
L 418 351
L 421 351
L 423 351
L 426 351
L 428 351
L 430 351
L 433 351
L 435 351
L 437 351
L 440 351
L 442 351
L 445 351
L 447 351
L 449 351
L 452 351
L 454 351
L 456 351
L 459 351
L 461 351
L 464 351
L 466 351
L 468 351
L 471 351
L 473 351
L 475 351
L 478 351
L 480 351
L 483 351
L 485 351
L 487 351
L 490 351
L 492 351
L 494 351
L 497 351
L 499 351
L 502 351
L 504 351
L 506 351
L 509 351
L 511 351
L 513 351
L 516 351
L 518 351
L 521 351
L 523 351
L 525 351
L 528 351
L 530 351
L 533 351
L 535 351
L 537 351
L 540 350
L 542 351
L 544 351
L 547 351
L 549 351
L 551 351
L 554 350
L 556 351
L 559 351
L 561 351
L 563 351
L 566 351
L 568 351
L 570 351
L 573 351
L 575 351
L 578 351
L 580 351
L 582 351
L 585 351
L 587 351
L 589 351
L 592 351
L 594 351
L 597 351
L 599 351
L 601 351
L 604 351
L 606 351
L 608 351
L 611 351
L 613 351
L 616 351
L 618 351
L 620 351
L 623 351
L 625 351
L 627 350
L 630 351
L 632 351
L 635 351
L 637 350
L 639 351
L 642 351
L 644 350
L 646 351
L 649 351
L 651 350
L 654 350
L 656 351
L 658 350
L 661 350
L 663 351
L 665 349
L 668 350
L 670 351
L 673 349
L 675 351
L 677 348
L 680 350
L 682 351
L 684 350
L 687 350
L 689 349
L 692 349
L 694 349
L 696 349
L 699 350
L 701 348
L 703 349
L 706 351
L 708 350
L 711 349
L 713 351
L 715 350
L 718 349
L 720 350
L 722 350
L 725 350
L 727 351
L 730 351
L 732 349
L 734 351
L 737 351
L 739 351
L 741 350
L 744 351
L 746 350
L 749 349
L 751 350
L 753 349
L 756 351
L 758 349
L 760 349
L 763 350
L 765 351
L 768 350
L 770 351
L 772 351
L 775 351
L 777 349
L 779 350
L 782 350
L 784 349
L 787 350
L 789 351
L 791 349
L 794 351
L 796 351
L 798 351
L 801 351
L 803 350
L 806 349
L 808 349
L 810 349
L 813 350
L 815 351
L 817 350
L 820 349
L 822 350
L 825 350
L 827 351
L 829 349
L 832 350
L 834 349
L 836 349
L 839 350
L 841 351
L 844 349
L 846 351
L 848 350
L 851 349
L 853 351
L 855 350
L 858 351
L 860 350
L 863 351
L 865 350
L 867 351
L 870 350
L 872 351
L 874 351
L 877 350
L 879 349
L 882 349
L 884 351
L 886 350
L 889 351
L 891 351
L 893 350
L 896 351
L 898 350
L 901 351
L 903 351
L 905 351
L 908 351
L 910 351
L 912 350
L 915 350
L 917 351
L 920 351
L 922 351
L 924 351
L 927 350
L 929 351
L 931 350
L 934 351
L 936 351
L 939 350
L 941 351
L 943 350
L 946 351
L 948 350
L 950 349
L 953 351
L 955 351
L 958 351
L 960 351
L 962 351
L 965 351
L 967 351
L 969 351" style="stroke-width:1;stroke:rgba(217,0,116,1.0);fill:none"/><text x="370" y="33" style="stroke-width:0;stroke:none;fill:rgba(51,51,51,1.0);font-size:23.0px;font-family:'Roboto Medium',sans-serif">Salzburg(Stadt) 24.03.2021</text><path  d="M 38 11
L 251 11
L 251 91
L 38 91
L 38 11" style="stroke-width:1;stroke:rgba(51,51,51,1.0);fill:rgba(255,255,255,1.0)"/><text x="43" y="26" style="stroke-width:0;stroke:none;fill:rgba(51,51,51,1.0);font-size:10.2px;font-family:'Roboto Medium',sans-serif">Sieben Tage Durschnitt Inzidenz Fälle</text><path  d="M 221 21
L 241 21" style="stroke-width:1;stroke:rgba(0,116,217,1.0);fill:none"/><text x="43" y="56" style="stroke-width:0;stroke:none;fill:rgba(51,51,51,1.0);font-size:10.2px;font-family:'Roboto Medium',sans-serif">Anzahl Faelle</text><path  d="M 110 51
L 241 51" style="stroke-width:1;stroke:rgba(0,217,101,1.0);fill:none"/><text x="43" y="86" style="stroke-width:0;stroke:none;fill:rgba(51,51,51,1.0);font-size:10.2px;font-family:'Roboto Medium',sans-serif">Anzahl Tot</text><path  d="M 98 81
L 241 81" style="stroke-width:1;stroke:rgba(217,0,116,1.0);fill:none"/></svg>