<svg xmlns="http://www.w3.org/2000/svg" xmlns:xlink="http://www.w3.org/1999/xlink" width="1024" height="400">\n<path  d="M 0 0
L 1024 0
L 1024 400
L 0 400
L 0 0" style="stroke-width:0;stroke:rgba(255,255,255,1.0);fill:rgba(255,255,255,1.0)"/><path  d="M 38 11
L 969 11
L 969 351
L 38 351
L 38 11" style="stroke-width:0;stroke:rgba(255,255,255,1.0);fill:rgba(255,255,255,1.0)"/><path  d="M 38 351
L 969 351" style="stroke-width:1;stroke:rgba(51,51,51,1.0);fill:none"/><path  d="M 38 351
L 38 356" style="stroke-width:1;stroke:rgba(51,51,51,1.0);fill:none"/><text x="5" y="373" style="stroke-width:0;stroke:none;fill:rgba(51,51,51,1.0);font-size:12.8px;font-family:'Roboto Medium',sans-serif">2020-02-26</text><path  d="M 155 351
L 155 356" style="stroke-width:1;stroke:rgba(51,51,51,1.0);fill:none"/><text x="122" y="373" style="stroke-width:0;stroke:none;fill:rgba(51,51,51,1.0);font-size:12.8px;font-family:'Roboto Medium',sans-serif">2020-04-18</text><path  d="M 271 351
L 271 356" style="stroke-width:1;stroke:rgba(51,51,51,1.0);fill:none"/><text x="238" y="373" style="stroke-width:0;stroke:none;fill:rgba(51,51,51,1.0);font-size:12.8px;font-family:'Roboto Medium',sans-serif">2020-06-10</text><path  d="M 388 351
L 388 356" style="stroke-width:1;stroke:rgba(51,51,51,1.0);fill:none"/><text x="355" y="373" style="stroke-width:0;stroke:none;fill:rgba(51,51,51,1.0);font-size:12.8px;font-family:'Roboto Medium',sans-serif">2020-08-02</text><path  d="M 504 351
L 504 356" style="stroke-width:1;stroke:rgba(51,51,51,1.0);fill:none"/><text x="471" y="373" style="stroke-width:0;stroke:none;fill:rgba(51,51,51,1.0);font-size:12.8px;font-family:'Roboto Medium',sans-serif">2020-09-24</text><path  d="M 620 351
L 620 356" style="stroke-width:1;stroke:rgba(51,51,51,1.0);fill:none"/><text x="587" y="373" style="stroke-width:0;stroke:none;fill:rgba(51,51,51,1.0);font-size:12.8px;font-family:'Roboto Medium',sans-serif">2020-11-16</text><path  d="M 737 351
L 737 356" style="stroke-width:1;stroke:rgba(51,51,51,1.0);fill:none"/><text x="704" y="373" style="stroke-width:0;stroke:none;fill:rgba(51,51,51,1.0);font-size:12.8px;font-family:'Roboto Medium',sans-serif">2021-01-08</text><path  d="M 853 351
L 853 356" style="stroke-width:1;stroke:rgba(51,51,51,1.0);fill:none"/><text x="820" y="373" style="stroke-width:0;stroke:none;fill:rgba(51,51,51,1.0);font-size:12.8px;font-family:'Roboto Medium',sans-serif">2021-03-02</text><path  d="M 969 351
L 969 356" style="stroke-width:1;stroke:rgba(51,51,51,1.0);fill:none"/><text x="936" y="373" style="stroke-width:0;stroke:none;fill:rgba(51,51,51,1.0);font-size:12.8px;font-family:'Roboto Medium',sans-serif">2021-04-24</text><text x="485" y="395" style="stroke-width:0;stroke:none;fill:rgba(51,51,51,1.0);font-size:12.8px;font-family:'Roboto Medium',sans-serif">Datum</text><path  d="M 970 351
L 970 11" style="stroke-width:1;stroke:rgba(51,51,51,1.0);fill:none"/><path  d="M 970 351
L 975 351" style="stroke-width:1;stroke:rgba(51,51,51,1.0);fill:none"/><text x="980" y="357" style="stroke-width:0;stroke:none;fill:rgba(51,51,51,1.0);font-size:12.8px;font-family:'Roboto Medium',sans-serif">0.00</text><path  d="M 970 308
L 975 308" style="stroke-width:1;stroke:rgba(51,51,51,1.0);fill:none"/><text x="980" y="314" style="stroke-width:0;stroke:none;fill:rgba(51,51,51,1.0);font-size:12.8px;font-family:'Roboto Medium',sans-serif">89.00</text><path  d="M 970 265
L 975 265" style="stroke-width:1;stroke:rgba(51,51,51,1.0);fill:none"/><text x="980" y="271" style="stroke-width:0;stroke:none;fill:rgba(51,51,51,1.0);font-size:12.8px;font-family:'Roboto Medium',sans-serif">178.00</text><path  d="M 970 223
L 975 223" style="stroke-width:1;stroke:rgba(51,51,51,1.0);fill:none"/><text x="980" y="229" style="stroke-width:0;stroke:none;fill:rgba(51,51,51,1.0);font-size:12.8px;font-family:'Roboto Medium',sans-serif">267.00</text><path  d="M 970 181
L 975 181" style="stroke-width:1;stroke:rgba(51,51,51,1.0);fill:none"/><text x="980" y="187" style="stroke-width:0;stroke:none;fill:rgba(51,51,51,1.0);font-size:12.8px;font-family:'Roboto Medium',sans-serif">355.00</text><path  d="M 970 138
L 975 138" style="stroke-width:1;stroke:rgba(51,51,51,1.0);fill:none"/><text x="980" y="144" style="stroke-width:0;stroke:none;fill:rgba(51,51,51,1.0);font-size:12.8px;font-family:'Roboto Medium',sans-serif">444.00</text><path  d="M 970 95
L 975 95" style="stroke-width:1;stroke:rgba(51,51,51,1.0);fill:none"/><text x="980" y="101" style="stroke-width:0;stroke:none;fill:rgba(51,51,51,1.0);font-size:12.8px;font-family:'Roboto Medium',sans-serif">533.00</text><path  d="M 970 53
L 975 53" style="stroke-width:1;stroke:rgba(51,51,51,1.0);fill:none"/><text x="980" y="59" style="stroke-width:0;stroke:none;fill:rgba(51,51,51,1.0);font-size:12.8px;font-family:'Roboto Medium',sans-serif">622.00</text><path  d="M 970 11
L 975 11" style="stroke-width:1;stroke:rgba(51,51,51,1.0);fill:none"/><text x="980" y="17" style="stroke-width:0;stroke:none;fill:rgba(51,51,51,1.0);font-size:12.8px;font-family:'Roboto Medium',sans-serif">710.00</text><path  d="M 38 351
L 41 351
L 43 351
L 45 351
L 47 351
L 50 351
L 52 351
L 54 351
L 56 351
L 58 351
L 61 350
L 63 350
L 65 350
L 67 350
L 69 350
L 72 350
L 74 350
L 76 349
L 78 349
L 80 348
L 83 347
L 85 345
L 87 344
L 89 343
L 91 343
L 94 338
L 96 335
L 98 332
L 100 330
L 102 329
L 105 327
L 107 325
L 109 326
L 111 328
L 113 328
L 116 330
L 118 331
L 120 331
L 122 333
L 124 336
L 127 338
L 129 341
L 131 341
L 133 343
L 135 345
L 138 346
L 140 347
L 142 347
L 144 348
L 146 348
L 149 348
L 151 348
L 153 348
L 155 347
L 157 347
L 160 347
L 162 348
L 164 348
L 166 349
L 168 349
L 171 350
L 173 350
L 175 350
L 177 350
L 179 350
L 182 350
L 184 350
L 186 350
L 188 350
L 190 350
L 193 350
L 195 350
L 197 350
L 199 350
L 201 350
L 204 350
L 206 351
L 208 351
L 210 351
L 212 351
L 215 351
L 217 351
L 219 351
L 221 351
L 223 351
L 226 351
L 228 351
L 230 351
L 232 350
L 234 350
L 237 350
L 239 350
L 241 350
L 243 350
L 245 350
L 248 351
L 250 351
L 252 351
L 254 351
L 256 351
L 259 351
L 261 351
L 263 351
L 265 351
L 267 351
L 270 351
L 272 351
L 274 351
L 276 351
L 278 351
L 281 351
L 283 350
L 285 350
L 287 350
L 289 350
L 292 349
L 294 349
L 296 349
L 298 349
L 300 348
L 303 349
L 305 349
L 307 349
L 309 349
L 311 349
L 314 349
L 316 349
L 318 349
L 320 349
L 322 349
L 325 349
L 327 349
L 329 349
L 331 350
L 333 350
L 336 350
L 338 350
L 340 350
L 342 349
L 344 347
L 347 347
L 349 347
L 351 347
L 353 346
L 355 346
L 358 348
L 360 349
L 362 349
L 364 349
L 366 349
L 369 348
L 371 347
L 373 347
L 375 347
L 377 345
L 380 344
L 382 345
L 384 346
L 386 347
L 388 346
L 391 346
L 393 348
L 395 347
L 397 347
L 399 343
L 402 343
L 404 342
L 406 341
L 408 340
L 410 341
L 413 340
L 415 342
L 417 342
L 419 344
L 421 341
L 424 342
L 426 343
L 428 344
L 430 345
L 432 345
L 435 343
L 437 347
L 439 346
L 441 346
L 443 346
L 446 346
L 448 346
L 450 348
L 452 348
L 454 349
L 457 350
L 459 349
L 461 348
L 463 348
L 465 348
L 468 348
L 470 346
L 472 345
L 474 346
L 476 346
L 479 346
L 481 345
L 483 345
L 485 345
L 487 345
L 490 340
L 492 340
L 494 340
L 496 340
L 498 340
L 501 340
L 503 340
L 505 342
L 507 343
L 510 342
L 512 340
L 514 338
L 516 338
L 518 334
L 521 335
L 523 334
L 525 332
L 527 329
L 529 329
L 532 329
L 534 328
L 536 325
L 538 324
L 540 324
L 543 320
L 545 314
L 547 310
L 549 296
L 551 290
L 554 277
L 556 269
L 558 266
L 560 258
L 562 245
L 565 238
L 567 221
L 569 221
L 571 208
L 573 209
L 576 199
L 578 193
L 580 185
L 582 180
L 584 161
L 587 145
L 589 138
L 591 123
L 593 106
L 595 86
L 598 53
L 600 63
L 602 56
L 604 60
L 606 80
L 609 58
L 611 55
L 613 74
L 615 82
L 617 76
L 620 40
L 622 12
L 624 39
L 626 66
L 628 76
L 631 43
L 633 94
L 635 96
L 637 110
L 639 107
L 642 98
L 644 104
L 646 126
L 648 116
L 650 149
L 653 149
L 655 174
L 657 187
L 659 202
L 661 220
L 664 225
L 666 227
L 668 248
L 670 246
L 672 260
L 675 257
L 677 250
L 679 245
L 681 209
L 683 199
L 686 204
L 688 204
L 690 205
L 692 206
L 694 210
L 697 243
L 699 249
L 701 240
L 703 248
L 705 251
L 708 258
L 710 244
L 712 242
L 714 235
L 716 234
L 719 215
L 721 217
L 723 201
L 725 210
L 727 221
L 730 210
L 732 226
L 734 224
L 736 222
L 738 234
L 741 233
L 743 228
L 745 247
L 747 243
L 749 260
L 752 263
L 754 262
L 756 268
L 758 277
L 760 280
L 763 275
L 765 273
L 767 271
L 769 274
L 771 273
L 774 270
L 776 272
L 778 279
L 780 280
L 782 283
L 785 287
L 787 278
L 789 281
L 791 273
L 793 280
L 796 284
L 798 287
L 800 289
L 802 296
L 804 297
L 807 306
L 809 302
L 811 296
L 813 298
L 815 297
L 818 303
L 820 300
L 822 299
L 824 295
L 826 296
L 829 294
L 831 289
L 833 287
L 835 288
L 837 285
L 840 285
L 842 288
L 844 283
L 846 277
L 848 277
L 851 267
L 853 267
L 855 265
L 857 248
L 859 244
L 862 249
L 864 244
L 866 250
L 868 246
L 870 241
L 873 253
L 875 252
L 877 250
L 879 246
L 881 241
L 884 238
L 886 240
L 888 237
L 890 234
L 892 237
L 895 234
L 897 230
L 899 225
L 901 219
L 903 208
L 906 207
L 908 204
L 910 204
L 912 212
L 914 211
L 917 218
L 919 227
L 921 233
L 923 235
L 925 241
L 928 245
L 930 250
L 932 243
L 934 245
L 936 242
L 939 243
L 941 242
L 943 236
L 945 239
L 947 245
L 950 254
L 952 261
L 954 264
L 956 267
L 958 263
L 961 269
L 963 273
L 965 265
L 967 265
L 969 266" style="stroke-width:1;stroke:rgba(0,116,217,1.0);fill:none"/><path  d="M 38 351
L 41 351
L 43 351
L 45 351
L 47 351
L 50 351
L 52 351
L 54 351
L 56 351
L 58 351
L 61 350
L 63 351
L 65 351
L 67 351
L 69 351
L 72 350
L 74 350
L 76 349
L 78 351
L 80 349
L 83 350
L 85 347
L 87 348
L 89 349
L 91 349
L 94 343
L 96 344
L 98 345
L 100 345
L 102 345
L 105 347
L 107 345
L 109 346
L 111 346
L 113 346
L 116 347
L 118 348
L 120 345
L 122 349
L 124 349
L 127 351
L 129 349
L 131 349
L 133 350
L 135 349
L 138 350
L 140 351
L 142 351
L 144 351
L 146 350
L 149 350
L 151 350
L 153 350
L 155 349
L 157 351
L 160 351
L 162 351
L 164 351
L 166 351
L 168 351
L 171 350
L 173 351
L 175 350
L 177 351
L 179 351
L 182 351
L 184 351
L 186 351
L 188 351
L 190 350
L 193 351
L 195 351
L 197 351
L 199 351
L 201 351
L 204 351
L 206 351
L 208 351
L 210 351
L 212 351
L 215 351
L 217 351
L 219 351
L 221 351
L 223 351
L 226 351
L 228 351
L 230 351
L 232 350
L 234 351
L 237 351
L 239 351
L 241 351
L 243 351
L 245 351
L 248 351
L 250 351
L 252 351
L 254 351
L 256 351
L 259 351
L 261 351
L 263 351
L 265 351
L 267 351
L 270 351
L 272 351
L 274 351
L 276 351
L 278 351
L 281 351
L 283 350
L 285 351
L 287 350
L 289 350
L 292 350
L 294 351
L 296 350
L 298 350
L 300 350
L 303 351
L 305 351
L 307 350
L 309 351
L 311 351
L 314 350
L 316 350
L 318 351
L 320 350
L 322 351
L 325 351
L 327 351
L 329 350
L 331 351
L 333 351
L 336 350
L 338 351
L 340 351
L 342 349
L 344 348
L 347 351
L 349 351
L 351 350
L 353 350
L 355 351
L 358 351
L 360 351
L 362 350
L 364 350
L 366 350
L 369 348
L 371 350
L 373 351
L 375 350
L 377 348
L 380 349
L 382 351
L 384 351
L 386 351
L 388 350
L 391 350
L 393 350
L 395 348
L 397 350
L 399 345
L 402 351
L 404 348
L 406 348
L 408 349
L 410 349
L 413 348
L 415 349
L 417 350
L 419 351
L 421 344
L 424 351
L 426 351
L 428 350
L 430 350
L 432 351
L 435 347
L 437 350
L 439 350
L 441 350
L 443 351
L 446 350
L 448 351
L 450 350
L 452 350
L 454 351
L 457 351
L 459 349
L 461 349
L 463 351
L 465 351
L 468 350
L 470 348
L 472 349
L 474 351
L 476 349
L 479 351
L 481 350
L 483 350
L 485 347
L 487 348
L 490 344
L 492 348
L 494 351
L 496 350
L 498 351
L 501 347
L 503 349
L 505 347
L 507 349
L 510 350
L 512 347
L 514 347
L 516 348
L 518 341
L 521 348
L 523 348
L 525 347
L 527 342
L 529 347
L 532 347
L 534 340
L 536 343
L 538 347
L 540 347
L 543 336
L 545 338
L 547 340
L 549 319
L 551 334
L 554 328
L 556 334
L 558 331
L 560 325
L 562 320
L 565 308
L 567 307
L 569 329
L 571 314
L 573 332
L 576 309
L 578 312
L 580 295
L 582 301
L 584 300
L 587 290
L 589 321
L 591 287
L 593 285
L 595 264
L 598 250
L 600 317
L 602 279
L 604 326
L 606 318
L 609 251
L 611 259
L 613 280
L 615 328
L 617 270
L 620 271
L 622 275
L 624 292
L 626 301
L 628 295
L 631 276
L 633 349
L 635 274
L 637 296
L 639 287
L 642 287
L 644 305
L 646 311
L 648 333
L 650 325
L 653 297
L 655 325
L 657 307
L 659 328
L 661 338
L 664 342
L 666 328
L 668 329
L 670 321
L 672 330
L 675 323
L 677 327
L 679 335
L 681 272
L 683 313
L 686 328
L 688 331
L 690 324
L 692 328
L 694 341
L 697 322
L 699 323
L 701 315
L 703 343
L 705 328
L 708 340
L 710 319
L 712 318
L 714 313
L 716 312
L 719 315
L 721 332
L 723 315
L 725 334
L 727 334
L 730 297
L 732 337
L 734 311
L 736 329
L 738 334
L 741 331
L 743 327
L 745 326
L 747 330
L 749 338
L 752 334
L 754 331
L 756 340
L 758 341
L 760 331
L 763 323
L 765 333
L 767 332
L 769 336
L 771 339
L 774 335
L 776 334
L 778 334
L 780 335
L 782 337
L 785 340
L 787 327
L 789 339
L 791 322
L 793 345
L 796 342
L 798 341
L 800 344
L 802 337
L 804 341
L 807 336
L 809 339
L 811 332
L 813 343
L 815 342
L 818 347
L 820 337
L 822 334
L 824 334
L 826 334
L 829 340
L 831 334
L 833 343
L 835 339
L 837 328
L 840 333
L 842 339
L 844 332
L 846 325
L 848 343
L 851 323
L 853 328
L 855 330
L 857 315
L 859 326
L 862 332
L 864 336
L 866 331
L 868 323
L 870 322
L 873 334
L 875 324
L 877 329
L 879 331
L 881 323
L 884 319
L 886 325
L 888 329
L 890 319
L 892 333
L 895 326
L 897 317
L 899 311
L 901 316
L 903 312
L 906 318
L 908 329
L 910 327
L 912 329
L 914 310
L 917 326
L 919 325
L 921 327
L 923 333
L 925 336
L 928 334
L 930 318
L 932 316
L 934 328
L 936 323
L 939 333
L 941 335
L 943 326
L 945 322
L 947 325
L 950 341
L 952 333
L 954 339
L 956 339
L 958 320
L 961 331
L 963 331
L 965 329
L 967 333
L 969 340" style="stroke-width:1;stroke:rgba(0,217,101,1.0);fill:none"/><path  d="M 38 351
L 41 351
L 43 351
L 45 351
L 47 351
L 50 351
L 52 351
L 54 351
L 56 351
L 58 351
L 61 351
L 63 351
L 65 351
L 67 351
L 69 351
L 72 351
L 74 351
L 76 351
L 78 351
L 80 351
L 83 351
L 85 351
L 87 351
L 89 351
L 91 351
L 94 351
L 96 351
L 98 351
L 100 350
L 102 351
L 105 351
L 107 351
L 109 350
L 111 351
L 113 351
L 116 351
L 118 351
L 120 351
L 122 351
L 124 351
L 127 351
L 129 350
L 131 351
L 133 350
L 135 351
L 138 351
L 140 351
L 142 351
L 144 351
L 146 351
L 149 350
L 151 351
L 153 351
L 155 351
L 157 351
L 160 350
L 162 351
L 164 351
L 166 351
L 168 351
L 171 351
L 173 351
L 175 350
L 177 351
L 179 351
L 182 351
L 184 351
L 186 351
L 188 351
L 190 351
L 193 351
L 195 351
L 197 350
L 199 351
L 201 351
L 204 351
L 206 351
L 208 351
L 210 351
L 212 351
L 215 351
L 217 351
L 219 351
L 221 351
L 223 351
L 226 351
L 228 351
L 230 351
L 232 351
L 234 351
L 237 351
L 239 351
L 241 351
L 243 351
L 245 351
L 248 351
L 250 351
L 252 351
L 254 351
L 256 351
L 259 351
L 261 351
L 263 351
L 265 351
L 267 351
L 270 351
L 272 351
L 274 351
L 276 351
L 278 351
L 281 351
L 283 351
L 285 351
L 287 351
L 289 351
L 292 351
L 294 351
L 296 351
L 298 351
L 300 351
L 303 351
L 305 351
L 307 351
L 309 351
L 311 351
L 314 351
L 316 351
L 318 351
L 320 351
L 322 351
L 325 351
L 327 351
L 329 351
L 331 351
L 333 351
L 336 351
L 338 351
L 340 351
L 342 351
L 344 351
L 347 351
L 349 351
L 351 351
L 353 351
L 355 351
L 358 351
L 360 351
L 362 351
L 364 351
L 366 351
L 369 351
L 371 351
L 373 351
L 375 351
L 377 351
L 380 351
L 382 351
L 384 351
L 386 351
L 388 351
L 391 351
L 393 350
L 395 351
L 397 351
L 399 351
L 402 351
L 404 351
L 406 351
L 408 351
L 410 351
L 413 351
L 415 351
L 417 351
L 419 351
L 421 351
L 424 351
L 426 351
L 428 351
L 430 351
L 432 351
L 435 351
L 437 351
L 439 351
L 441 351
L 443 351
L 446 351
L 448 351
L 450 351
L 452 351
L 454 351
L 457 351
L 459 351
L 461 351
L 463 351
L 465 351
L 468 351
L 470 351
L 472 351
L 474 351
L 476 351
L 479 351
L 481 351
L 483 351
L 485 351
L 487 351
L 490 351
L 492 351
L 494 351
L 496 351
L 498 351
L 501 351
L 503 351
L 505 351
L 507 351
L 510 351
L 512 351
L 514 351
L 516 351
L 518 351
L 521 351
L 523 351
L 525 351
L 527 351
L 529 351
L 532 351
L 534 351
L 536 351
L 538 351
L 540 351
L 543 351
L 545 351
L 547 351
L 549 351
L 551 351
L 554 350
L 556 351
L 558 351
L 560 351
L 562 350
L 565 351
L 567 350
L 569 350
L 571 351
L 573 351
L 576 351
L 578 351
L 580 350
L 582 351
L 584 351
L 587 351
L 589 351
L 591 350
L 593 351
L 595 351
L 598 351
L 600 350
L 602 350
L 604 349
L 606 351
L 609 351
L 611 351
L 613 351
L 615 350
L 617 350
L 620 349
L 622 351
L 624 351
L 626 350
L 628 351
L 631 350
L 633 350
L 635 351
L 637 350
L 639 351
L 642 350
L 644 351
L 646 350
L 648 351
L 650 351
L 653 349
L 655 351
L 657 350
L 659 350
L 661 350
L 664 350
L 666 350
L 668 349
L 670 350
L 672 350
L 675 348
L 677 351
L 679 351
L 681 351
L 683 351
L 686 350
L 688 350
L 690 351
L 692 351
L 694 350
L 697 349
L 699 350
L 701 351
L 703 350
L 705 351
L 708 349
L 710 351
L 712 350
L 714 349
L 716 350
L 719 351
L 721 350
L 723 351
L 725 350
L 727 350
L 730 350
L 732 350
L 734 351
L 736 351
L 738 351
L 741 351
L 743 350
L 745 351
L 747 351
L 749 351
L 752 351
L 754 351
L 756 350
L 758 350
L 760 351
L 763 350
L 765 351
L 767 350
L 769 350
L 771 351
L 774 350
L 776 351
L 778 351
L 780 351
L 782 351
L 785 351
L 787 351
L 789 351
L 791 351
L 793 350
L 796 351
L 798 351
L 800 351
L 802 351
L 804 351
L 807 350
L 809 351
L 811 351
L 813 351
L 815 350
L 818 351
L 820 350
L 822 351
L 824 351
L 826 351
L 829 351
L 831 351
L 833 350
L 835 350
L 837 351
L 840 351
L 842 351
L 844 351
L 846 351
L 848 350
L 851 351
L 853 351
L 855 351
L 857 350
L 859 351
L 862 351
L 864 351
L 866 351
L 868 351
L 870 351
L 873 351
L 875 351
L 877 350
L 879 350
L 881 350
L 884 351
L 886 350
L 888 350
L 890 351
L 892 351
L 895 350
L 897 350
L 899 351
L 901 349
L 903 351
L 906 351
L 908 351
L 910 351
L 912 351
L 914 351
L 917 351
L 919 350
L 921 351
L 923 351
L 925 351
L 928 351
L 930 350
L 932 351
L 934 351
L 936 351
L 939 351
L 941 351
L 943 351
L 945 350
L 947 350
L 950 351
L 952 351
L 954 351
L 956 350
L 958 351
L 961 349
L 963 351
L 965 351
L 967 350
L 969 351" style="stroke-width:1;stroke:rgba(217,0,116,1.0);fill:none"/><text x="345" y="33" style="stroke-width:0;stroke:none;fill:rgba(51,51,51,1.0);font-size:23.0px;font-family:'Roboto Medium',sans-serif">Salzburg-Umgebung 24.04.2021</text><path  d="M 38 11
L 251 11
L 251 91
L 38 91
L 38 11" style="stroke-width:1;stroke:rgba(51,51,51,1.0);fill:rgba(255,255,255,1.0)"/><text x="43" y="26" style="stroke-width:0;stroke:none;fill:rgba(51,51,51,1.0);font-size:10.2px;font-family:'Roboto Medium',sans-serif">Sieben Tage Durschnitt Inzidenz Fälle</text><path  d="M 221 21
L 241 21" style="stroke-width:1;stroke:rgba(0,116,217,1.0);fill:none"/><text x="43" y="56" style="stroke-width:0;stroke:none;fill:rgba(51,51,51,1.0);font-size:10.2px;font-family:'Roboto Medium',sans-serif">Anzahl Faelle</text><path  d="M 110 51
L 241 51" style="stroke-width:1;stroke:rgba(0,217,101,1.0);fill:none"/><text x="43" y="86" style="stroke-width:0;stroke:none;fill:rgba(51,51,51,1.0);font-size:10.2px;font-family:'Roboto Medium',sans-serif">Anzahl Tot</text><path  d="M 98 81
L 241 81" style="stroke-width:1;stroke:rgba(217,0,116,1.0);fill:none"/></svg>