<svg xmlns="http://www.w3.org/2000/svg" xmlns:xlink="http://www.w3.org/1999/xlink" width="1024" height="400">\n<path  d="M 0 0
L 1024 0
L 1024 400
L 0 400
L 0 0" style="stroke-width:0;stroke:rgba(255,255,255,1.0);fill:rgba(255,255,255,1.0)"/><path  d="M 38 11
L 961 11
L 961 351
L 38 351
L 38 11" style="stroke-width:0;stroke:rgba(255,255,255,1.0);fill:rgba(255,255,255,1.0)"/><path  d="M 38 351
L 961 351" style="stroke-width:1;stroke:rgba(51,51,51,1.0);fill:none"/><path  d="M 38 351
L 38 356" style="stroke-width:1;stroke:rgba(51,51,51,1.0);fill:none"/><text x="5" y="373" style="stroke-width:0;stroke:none;fill:rgba(51,51,51,1.0);font-size:12.8px;font-family:'Roboto Medium',sans-serif">2020-02-26</text><path  d="M 154 351
L 154 356" style="stroke-width:1;stroke:rgba(51,51,51,1.0);fill:none"/><text x="121" y="373" style="stroke-width:0;stroke:none;fill:rgba(51,51,51,1.0);font-size:12.8px;font-family:'Roboto Medium',sans-serif">2020-05-29</text><path  d="M 269 351
L 269 356" style="stroke-width:1;stroke:rgba(51,51,51,1.0);fill:none"/><text x="236" y="373" style="stroke-width:0;stroke:none;fill:rgba(51,51,51,1.0);font-size:12.8px;font-family:'Roboto Medium',sans-serif">2020-08-31</text><path  d="M 385 351
L 385 356" style="stroke-width:1;stroke:rgba(51,51,51,1.0);fill:none"/><text x="352" y="373" style="stroke-width:0;stroke:none;fill:rgba(51,51,51,1.0);font-size:12.8px;font-family:'Roboto Medium',sans-serif">2020-12-02</text><path  d="M 500 351
L 500 356" style="stroke-width:1;stroke:rgba(51,51,51,1.0);fill:none"/><text x="467" y="373" style="stroke-width:0;stroke:none;fill:rgba(51,51,51,1.0);font-size:12.8px;font-family:'Roboto Medium',sans-serif">2021-03-06</text><path  d="M 615 351
L 615 356" style="stroke-width:1;stroke:rgba(51,51,51,1.0);fill:none"/><text x="582" y="373" style="stroke-width:0;stroke:none;fill:rgba(51,51,51,1.0);font-size:12.8px;font-family:'Roboto Medium',sans-serif">2021-06-07</text><path  d="M 731 351
L 731 356" style="stroke-width:1;stroke:rgba(51,51,51,1.0);fill:none"/><text x="698" y="373" style="stroke-width:0;stroke:none;fill:rgba(51,51,51,1.0);font-size:12.8px;font-family:'Roboto Medium',sans-serif">2021-09-09</text><path  d="M 846 351
L 846 356" style="stroke-width:1;stroke:rgba(51,51,51,1.0);fill:none"/><text x="813" y="373" style="stroke-width:0;stroke:none;fill:rgba(51,51,51,1.0);font-size:12.8px;font-family:'Roboto Medium',sans-serif">2021-12-11</text><path  d="M 961 351
L 961 356" style="stroke-width:1;stroke:rgba(51,51,51,1.0);fill:none"/><text x="928" y="373" style="stroke-width:0;stroke:none;fill:rgba(51,51,51,1.0);font-size:12.8px;font-family:'Roboto Medium',sans-serif">2022-03-15</text><text x="481" y="395" style="stroke-width:0;stroke:none;fill:rgba(51,51,51,1.0);font-size:12.8px;font-family:'Roboto Medium',sans-serif">Datum</text><path  d="M 962 351
L 962 11" style="stroke-width:1;stroke:rgba(51,51,51,1.0);fill:none"/><path  d="M 962 351
L 967 351" style="stroke-width:1;stroke:rgba(51,51,51,1.0);fill:none"/><text x="972" y="357" style="stroke-width:0;stroke:none;fill:rgba(51,51,51,1.0);font-size:12.8px;font-family:'Roboto Medium',sans-serif">0.00</text><path  d="M 962 308
L 967 308" style="stroke-width:1;stroke:rgba(51,51,51,1.0);fill:none"/><text x="972" y="314" style="stroke-width:0;stroke:none;fill:rgba(51,51,51,1.0);font-size:12.8px;font-family:'Roboto Medium',sans-serif">430.00</text><path  d="M 962 266
L 967 266" style="stroke-width:1;stroke:rgba(51,51,51,1.0);fill:none"/><text x="972" y="272" style="stroke-width:0;stroke:none;fill:rgba(51,51,51,1.0);font-size:12.8px;font-family:'Roboto Medium',sans-serif">850.00</text><path  d="M 962 223
L 967 223" style="stroke-width:1;stroke:rgba(51,51,51,1.0);fill:none"/><text x="972" y="229" style="stroke-width:0;stroke:none;fill:rgba(51,51,51,1.0);font-size:12.8px;font-family:'Roboto Medium',sans-serif">1280.00</text><path  d="M 962 181
L 967 181" style="stroke-width:1;stroke:rgba(51,51,51,1.0);fill:none"/><text x="972" y="187" style="stroke-width:0;stroke:none;fill:rgba(51,51,51,1.0);font-size:12.8px;font-family:'Roboto Medium',sans-serif">1700.00</text><path  d="M 962 138
L 967 138" style="stroke-width:1;stroke:rgba(51,51,51,1.0);fill:none"/><text x="972" y="144" style="stroke-width:0;stroke:none;fill:rgba(51,51,51,1.0);font-size:12.8px;font-family:'Roboto Medium',sans-serif">2130.00</text><path  d="M 962 96
L 967 96" style="stroke-width:1;stroke:rgba(51,51,51,1.0);fill:none"/><text x="972" y="102" style="stroke-width:0;stroke:none;fill:rgba(51,51,51,1.0);font-size:12.8px;font-family:'Roboto Medium',sans-serif">2550.00</text><path  d="M 962 53
L 967 53" style="stroke-width:1;stroke:rgba(51,51,51,1.0);fill:none"/><text x="972" y="59" style="stroke-width:0;stroke:none;fill:rgba(51,51,51,1.0);font-size:12.8px;font-family:'Roboto Medium',sans-serif">2980.00</text><path  d="M 962 11
L 967 11" style="stroke-width:1;stroke:rgba(51,51,51,1.0);fill:none"/><text x="972" y="17" style="stroke-width:0;stroke:none;fill:rgba(51,51,51,1.0);font-size:12.8px;font-family:'Roboto Medium',sans-serif">3400.00</text><path  d="M 38 351
L 40 351
L 41 351
L 42 351
L 43 351
L 45 351
L 46 351
L 47 351
L 48 351
L 50 351
L 51 351
L 52 351
L 53 351
L 55 350
L 56 350
L 57 350
L 58 350
L 59 350
L 61 349
L 62 349
L 63 349
L 64 349
L 66 349
L 67 349
L 68 349
L 69 348
L 71 347
L 72 347
L 73 346
L 74 346
L 76 347
L 77 346
L 78 347
L 79 348
L 80 348
L 82 349
L 83 349
L 84 349
L 85 349
L 87 350
L 88 350
L 89 350
L 90 350
L 92 350
L 93 350
L 94 350
L 95 350
L 96 350
L 98 350
L 99 350
L 100 350
L 101 350
L 103 350
L 104 350
L 105 350
L 106 350
L 108 350
L 109 351
L 110 350
L 111 350
L 113 350
L 114 350
L 115 350
L 116 350
L 117 350
L 119 351
L 120 351
L 121 351
L 122 351
L 124 351
L 125 351
L 126 351
L 127 351
L 129 351
L 130 351
L 131 351
L 132 351
L 134 351
L 135 351
L 136 351
L 137 351
L 138 351
L 140 351
L 141 350
L 142 350
L 143 350
L 145 350
L 146 350
L 147 350
L 148 350
L 150 351
L 151 351
L 152 351
L 153 351
L 154 351
L 156 351
L 157 351
L 158 351
L 159 351
L 161 350
L 162 350
L 163 350
L 164 350
L 166 350
L 167 350
L 168 350
L 169 351
L 171 351
L 172 351
L 173 351
L 174 351
L 175 351
L 177 350
L 178 350
L 179 350
L 180 350
L 182 350
L 183 350
L 184 350
L 185 350
L 187 350
L 188 350
L 189 350
L 190 350
L 192 350
L 193 350
L 194 350
L 195 350
L 196 350
L 198 350
L 199 350
L 200 350
L 201 350
L 203 349
L 204 349
L 205 349
L 206 350
L 208 350
L 209 350
L 210 350
L 211 350
L 212 350
L 214 350
L 215 350
L 216 350
L 217 350
L 219 350
L 220 349
L 221 349
L 222 349
L 224 349
L 225 349
L 226 349
L 227 350
L 229 350
L 230 350
L 231 350
L 232 350
L 233 350
L 235 350
L 236 349
L 237 350
L 238 350
L 240 350
L 241 350
L 242 350
L 243 350
L 245 350
L 246 350
L 247 349
L 248 349
L 250 349
L 251 349
L 252 349
L 253 349
L 254 349
L 256 349
L 257 349
L 258 348
L 259 348
L 261 348
L 262 348
L 263 348
L 264 348
L 266 348
L 267 349
L 268 349
L 269 349
L 270 349
L 272 349
L 273 349
L 274 349
L 275 348
L 277 348
L 278 348
L 279 349
L 280 348
L 282 348
L 283 347
L 284 348
L 285 348
L 287 348
L 288 347
L 289 347
L 290 346
L 291 346
L 293 347
L 294 346
L 295 347
L 296 347
L 298 347
L 299 347
L 300 347
L 301 347
L 303 347
L 304 347
L 305 346
L 306 346
L 308 347
L 309 347
L 310 347
L 311 347
L 312 347
L 314 347
L 315 346
L 316 345
L 317 345
L 319 345
L 320 345
L 321 345
L 322 345
L 324 345
L 325 344
L 326 345
L 327 344
L 328 343
L 330 343
L 331 341
L 332 338
L 333 335
L 335 332
L 336 332
L 337 329
L 338 329
L 340 328
L 341 327
L 342 325
L 343 325
L 345 321
L 346 319
L 347 317
L 348 313
L 349 312
L 351 306
L 352 303
L 353 303
L 354 305
L 356 303
L 357 308
L 358 301
L 359 302
L 361 303
L 362 305
L 363 300
L 364 297
L 365 288
L 367 293
L 368 298
L 369 291
L 370 285
L 372 295
L 373 292
L 374 297
L 375 295
L 377 294
L 378 300
L 379 304
L 380 301
L 382 307
L 383 309
L 384 314
L 385 318
L 386 321
L 388 325
L 389 326
L 390 328
L 391 331
L 393 330
L 394 330
L 395 329
L 396 326
L 398 325
L 399 324
L 400 323
L 401 326
L 403 328
L 404 328
L 405 330
L 406 332
L 407 333
L 409 333
L 410 332
L 411 332
L 412 334
L 414 334
L 415 333
L 416 333
L 417 330
L 419 327
L 420 327
L 421 327
L 422 325
L 423 325
L 425 325
L 426 323
L 427 325
L 428 323
L 430 322
L 431 321
L 432 321
L 433 322
L 435 326
L 436 327
L 437 329
L 438 331
L 440 331
L 441 332
L 442 332
L 443 332
L 444 330
L 446 330
L 447 330
L 448 331
L 449 330
L 451 330
L 452 331
L 453 333
L 454 333
L 456 333
L 457 335
L 458 335
L 459 336
L 461 335
L 462 337
L 463 337
L 464 337
L 465 337
L 467 337
L 468 339
L 469 339
L 470 338
L 472 339
L 473 339
L 474 339
L 475 339
L 477 338
L 478 339
L 479 340
L 480 341
L 481 341
L 483 340
L 484 340
L 485 340
L 486 340
L 488 340
L 489 339
L 490 338
L 491 339
L 493 339
L 494 338
L 495 338
L 496 336
L 498 335
L 499 334
L 500 334
L 501 333
L 502 332
L 504 331
L 505 332
L 506 330
L 507 329
L 509 328
L 510 327
L 511 327
L 512 324
L 514 323
L 515 324
L 516 324
L 517 323
L 519 325
L 520 325
L 521 325
L 522 326
L 523 325
L 525 326
L 526 326
L 527 325
L 528 326
L 530 326
L 531 327
L 532 327
L 533 326
L 535 327
L 536 327
L 537 328
L 538 329
L 539 328
L 541 328
L 542 327
L 543 328
L 544 329
L 546 328
L 547 329
L 548 330
L 549 332
L 551 335
L 552 334
L 553 334
L 554 333
L 556 334
L 557 335
L 558 332
L 559 334
L 560 333
L 562 333
L 563 333
L 564 333
L 565 333
L 567 335
L 568 335
L 569 336
L 570 337
L 572 338
L 573 339
L 574 340
L 575 340
L 577 341
L 578 341
L 579 342
L 580 343
L 581 344
L 583 344
L 584 345
L 585 345
L 586 345
L 588 346
L 589 346
L 590 346
L 591 347
L 593 347
L 594 348
L 595 348
L 596 347
L 597 347
L 599 347
L 600 347
L 601 347
L 602 347
L 604 347
L 605 348
L 606 348
L 607 348
L 609 348
L 610 349
L 611 349
L 612 349
L 614 349
L 615 349
L 616 349
L 617 350
L 618 350
L 620 350
L 621 350
L 622 350
L 623 350
L 625 350
L 626 349
L 627 349
L 628 349
L 630 349
L 631 349
L 632 349
L 633 350
L 635 350
L 636 350
L 637 350
L 638 350
L 639 350
L 641 350
L 642 350
L 643 350
L 644 350
L 646 350
L 647 350
L 648 350
L 649 350
L 651 350
L 652 350
L 653 350
L 654 350
L 655 350
L 657 350
L 658 350
L 659 349
L 660 349
L 662 349
L 663 348
L 664 348
L 665 348
L 667 347
L 668 347
L 669 346
L 670 345
L 672 345
L 673 345
L 674 345
L 675 344
L 676 344
L 678 344
L 679 345
L 680 345
L 681 345
L 683 345
L 684 346
L 685 345
L 686 346
L 688 345
L 689 345
L 690 344
L 691 345
L 692 345
L 694 343
L 695 342
L 696 342
L 697 341
L 699 340
L 700 339
L 701 339
L 702 338
L 704 337
L 705 339
L 706 338
L 707 339
L 709 340
L 710 338
L 711 337
L 712 335
L 713 334
L 715 333
L 716 332
L 717 331
L 718 331
L 720 332
L 721 332
L 722 332
L 723 331
L 725 330
L 726 331
L 727 328
L 728 328
L 730 327
L 731 328
L 732 324
L 733 325
L 734 324
L 736 327
L 737 326
L 738 325
L 739 323
L 741 327
L 742 328
L 743 327
L 744 328
L 746 328
L 747 331
L 748 332
L 749 333
L 750 333
L 752 334
L 753 333
L 754 334
L 755 333
L 757 333
L 758 333
L 759 333
L 760 333
L 762 333
L 763 334
L 764 334
L 765 333
L 767 333
L 768 333
L 769 333
L 770 333
L 771 332
L 773 333
L 774 333
L 775 333
L 776 334
L 778 335
L 779 334
L 780 332
L 781 329
L 783 325
L 784 324
L 785 322
L 786 321
L 788 319
L 789 319
L 790 318
L 791 318
L 792 316
L 794 312
L 795 309
L 796 307
L 797 306
L 799 299
L 800 293
L 801 284
L 802 275
L 804 270
L 805 270
L 806 266
L 807 253
L 808 247
L 810 239
L 811 235
L 812 226
L 813 220
L 815 212
L 816 202
L 817 195
L 818 195
L 820 196
L 821 201
L 822 198
L 823 193
L 825 204
L 826 209
L 827 218
L 828 220
L 829 225
L 831 234
L 832 242
L 833 254
L 834 267
L 836 277
L 837 288
L 838 292
L 839 297
L 841 306
L 842 313
L 843 317
L 844 317
L 846 320
L 847 322
L 848 323
L 849 323
L 850 327
L 852 327
L 853 329
L 854 331
L 855 331
L 857 331
L 858 333
L 859 333
L 860 334
L 862 334
L 863 335
L 864 335
L 865 334
L 866 334
L 868 334
L 869 332
L 870 330
L 871 327
L 873 325
L 874 321
L 875 308
L 876 303
L 878 293
L 879 288
L 880 278
L 881 268
L 883 261
L 884 253
L 885 232
L 886 225
L 887 214
L 889 214
L 890 205
L 891 204
L 892 195
L 894 198
L 895 182
L 896 172
L 897 163
L 899 160
L 900 150
L 901 145
L 902 129
L 904 123
L 905 118
L 906 114
L 907 116
L 908 109
L 910 105
L 911 115
L 912 123
L 913 124
L 915 123
L 916 115
L 917 129
L 918 116
L 920 116
L 921 110
L 922 114
L 923 123
L 924 131
L 926 131
L 927 157
L 928 162
L 929 176
L 931 178
L 932 179
L 933 183
L 934 177
L 936 166
L 937 164
L 938 160
L 939 158
L 941 167
L 942 167
L 943 167
L 944 160
L 945 156
L 947 138
L 948 132
L 949 122
L 950 116
L 952 106
L 953 88
L 954 72
L 955 63
L 957 50
L 958 28
L 959 21
L 960 23
L 961 20" style="stroke-width:1;stroke:rgba(0,116,217,1.0);fill:none"/><path  d="M 38 351
L 40 351
L 41 351
L 42 351
L 43 351
L 45 351
L 46 351
L 47 351
L 48 351
L 50 351
L 51 351
L 52 351
L 53 351
L 55 350
L 56 350
L 57 350
L 58 351
L 59 350
L 61 350
L 62 351
L 63 350
L 64 350
L 66 350
L 67 350
L 68 350
L 69 349
L 71 349
L 72 350
L 73 350
L 74 350
L 76 350
L 77 350
L 78 350
L 79 350
L 80 350
L 82 350
L 83 350
L 84 350
L 85 350
L 87 350
L 88 351
L 89 350
L 90 351
L 92 350
L 93 350
L 94 351
L 95 350
L 96 350
L 98 350
L 99 351
L 100 350
L 101 351
L 103 351
L 104 351
L 105 351
L 106 351
L 108 351
L 109 351
L 110 350
L 111 351
L 113 351
L 114 351
L 115 351
L 116 351
L 117 351
L 119 351
L 120 351
L 121 351
L 122 351
L 124 351
L 125 351
L 126 351
L 127 351
L 129 351
L 130 351
L 131 351
L 132 351
L 134 351
L 135 351
L 136 351
L 137 351
L 138 351
L 140 351
L 141 350
L 142 351
L 143 351
L 145 351
L 146 351
L 147 351
L 148 351
L 150 351
L 151 351
L 152 351
L 153 351
L 154 351
L 156 351
L 157 351
L 158 351
L 159 351
L 161 350
L 162 351
L 163 351
L 164 351
L 166 351
L 167 351
L 168 351
L 169 351
L 171 351
L 172 351
L 173 351
L 174 351
L 175 351
L 177 350
L 178 350
L 179 350
L 180 350
L 182 350
L 183 351
L 184 350
L 185 350
L 187 351
L 188 351
L 189 351
L 190 351
L 192 350
L 193 350
L 194 351
L 195 350
L 196 350
L 198 350
L 199 351
L 200 350
L 201 350
L 203 350
L 204 351
L 205 350
L 206 351
L 208 351
L 209 350
L 210 351
L 211 350
L 212 350
L 214 350
L 215 350
L 216 351
L 217 351
L 219 350
L 220 350
L 221 350
L 222 350
L 224 350
L 225 351
L 226 350
L 227 350
L 229 350
L 230 350
L 231 351
L 232 350
L 233 350
L 235 350
L 236 350
L 237 351
L 238 350
L 240 351
L 241 350
L 242 351
L 243 350
L 245 350
L 246 350
L 247 350
L 248 350
L 250 351
L 251 350
L 252 351
L 253 350
L 254 349
L 256 351
L 257 350
L 258 349
L 259 351
L 261 350
L 262 350
L 263 350
L 264 350
L 266 350
L 267 350
L 268 351
L 269 350
L 270 350
L 272 350
L 273 350
L 274 350
L 275 349
L 277 350
L 278 350
L 279 350
L 280 350
L 282 350
L 283 349
L 284 350
L 285 351
L 287 350
L 288 350
L 289 350
L 290 349
L 291 349
L 293 350
L 294 350
L 295 350
L 296 350
L 298 350
L 299 349
L 300 349
L 301 350
L 303 350
L 304 350
L 305 349
L 306 350
L 308 350
L 309 349
L 310 350
L 311 350
L 312 350
L 314 349
L 315 349
L 316 349
L 317 349
L 319 350
L 320 349
L 321 349
L 322 350
L 324 349
L 325 348
L 326 349
L 327 349
L 328 349
L 330 348
L 331 347
L 332 345
L 333 344
L 335 344
L 336 348
L 337 344
L 338 349
L 340 346
L 341 343
L 342 341
L 343 343
L 345 342
L 346 341
L 347 346
L 348 338
L 349 342
L 351 332
L 352 338
L 353 343
L 354 343
L 356 344
L 357 345
L 358 332
L 359 333
L 361 341
L 362 346
L 363 335
L 364 338
L 365 332
L 367 340
L 368 341
L 369 331
L 370 336
L 372 350
L 373 334
L 374 339
L 375 337
L 377 339
L 378 341
L 379 342
L 380 345
L 382 343
L 383 343
L 384 344
L 385 344
L 386 346
L 388 348
L 389 347
L 390 345
L 391 348
L 393 342
L 394 345
L 395 345
L 396 345
L 398 345
L 399 344
L 400 347
L 401 346
L 403 348
L 404 344
L 405 349
L 406 348
L 407 345
L 409 346
L 410 345
L 411 348
L 412 347
L 414 348
L 415 347
L 416 345
L 417 341
L 419 342
L 420 346
L 421 347
L 422 346
L 423 347
L 425 345
L 426 338
L 427 345
L 428 344
L 430 345
L 431 345
L 432 347
L 433 346
L 435 346
L 436 346
L 437 347
L 438 347
L 440 345
L 441 349
L 442 346
L 443 345
L 444 343
L 446 347
L 447 347
L 448 346
L 449 348
L 451 346
L 452 347
L 453 346
L 454 347
L 456 347
L 457 349
L 458 349
L 459 347
L 461 346
L 462 348
L 463 347
L 464 347
L 465 349
L 467 349
L 468 349
L 469 346
L 470 346
L 472 349
L 473 348
L 474 348
L 475 349
L 477 348
L 478 348
L 479 348
L 480 349
L 481 349
L 483 347
L 484 349
L 485 348
L 486 347
L 488 348
L 489 348
L 490 347
L 491 348
L 493 349
L 494 347
L 495 347
L 496 345
L 498 347
L 499 345
L 500 348
L 501 348
L 502 345
L 504 346
L 505 345
L 506 344
L 507 344
L 509 347
L 510 347
L 511 344
L 512 343
L 514 343
L 515 346
L 516 344
L 517 346
L 519 349
L 520 345
L 521 343
L 522 343
L 523 345
L 525 345
L 526 346
L 527 347
L 528 347
L 530 343
L 531 345
L 532 345
L 533 344
L 535 347
L 536 347
L 537 349
L 538 344
L 539 343
L 541 345
L 542 342
L 543 348
L 544 349
L 546 348
L 547 345
L 548 346
L 549 348
L 551 346
L 552 348
L 553 348
L 554 346
L 556 346
L 557 348
L 558 344
L 559 348
L 560 347
L 562 347
L 563 346
L 564 346
L 565 347
L 567 348
L 568 348
L 569 349
L 570 349
L 572 347
L 573 348
L 574 349
L 575 348
L 577 349
L 578 350
L 579 349
L 580 349
L 581 350
L 583 349
L 584 349
L 585 349
L 586 350
L 588 351
L 589 350
L 590 350
L 591 350
L 593 350
L 594 350
L 595 349
L 596 349
L 597 350
L 599 350
L 600 350
L 601 350
L 602 350
L 604 350
L 605 350
L 606 350
L 607 350
L 609 350
L 610 350
L 611 350
L 612 350
L 614 351
L 615 350
L 616 350
L 617 350
L 618 350
L 620 350
L 621 350
L 622 350
L 623 350
L 625 350
L 626 350
L 627 350
L 628 350
L 630 350
L 631 350
L 632 350
L 633 351
L 635 350
L 636 350
L 637 351
L 638 351
L 639 350
L 641 351
L 642 350
L 643 351
L 644 350
L 646 350
L 647 351
L 648 351
L 649 351
L 651 351
L 652 350
L 653 350
L 654 350
L 655 350
L 657 351
L 658 350
L 659 350
L 660 350
L 662 350
L 663 350
L 664 349
L 665 350
L 667 349
L 668 350
L 669 349
L 670 349
L 672 350
L 673 349
L 674 350
L 675 348
L 676 349
L 678 350
L 679 349
L 680 349
L 681 350
L 683 350
L 684 349
L 685 349
L 686 350
L 688 348
L 689 349
L 690 349
L 691 350
L 692 349
L 694 347
L 695 349
L 696 347
L 697 348
L 699 348
L 700 348
L 701 348
L 702 346
L 704 347
L 705 350
L 706 348
L 707 349
L 709 350
L 710 345
L 711 345
L 712 345
L 713 347
L 715 346
L 716 347
L 717 348
L 718 345
L 720 346
L 721 345
L 722 346
L 723 346
L 725 346
L 726 349
L 727 341
L 728 345
L 730 344
L 731 347
L 732 340
L 733 346
L 734 348
L 736 346
L 737 345
L 738 342
L 739 345
L 741 345
L 742 348
L 743 347
L 744 347
L 746 345
L 747 346
L 748 348
L 749 347
L 750 347
L 752 348
L 753 346
L 754 346
L 755 346
L 757 347
L 758 346
L 759 347
L 760 348
L 762 347
L 763 347
L 764 345
L 765 346
L 767 346
L 768 347
L 769 347
L 770 347
L 771 346
L 773 347
L 774 346
L 775 346
L 776 349
L 778 348
L 779 345
L 780 343
L 781 343
L 783 339
L 784 344
L 785 346
L 786 347
L 788 342
L 789 343
L 790 343
L 791 339
L 792 341
L 794 339
L 795 343
L 796 339
L 797 341
L 799 332
L 800 330
L 801 326
L 802 326
L 804 335
L 805 339
L 806 335
L 807 312
L 808 320
L 810 314
L 811 319
L 812 322
L 813 329
L 815 323
L 816 296
L 817 310
L 818 313
L 820 322
L 821 329
L 822 324
L 823 316
L 825 312
L 826 319
L 827 325
L 828 325
L 829 337
L 831 339
L 832 328
L 833 331
L 834 338
L 836 342
L 837 341
L 838 344
L 839 346
L 841 343
L 842 341
L 843 345
L 844 343
L 846 344
L 847 347
L 848 347
L 849 344
L 850 347
L 852 345
L 853 347
L 854 347
L 855 348
L 857 346
L 858 346
L 859 346
L 860 347
L 862 347
L 863 348
L 864 348
L 865 345
L 866 346
L 868 346
L 869 344
L 870 345
L 871 344
L 873 344
L 874 339
L 875 326
L 876 337
L 878 329
L 879 337
L 880 327
L 881 329
L 883 329
L 884 314
L 885 303
L 886 319
L 887 320
L 889 326
L 890 316
L 891 328
L 892 299
L 894 309
L 895 294
L 896 304
L 897 311
L 899 312
L 900 312
L 901 291
L 902 285
L 904 285
L 905 297
L 906 304
L 907 315
L 908 302
L 910 284
L 911 300
L 912 297
L 913 299
L 915 302
L 916 304
L 917 323
L 918 264
L 920 300
L 921 288
L 922 305
L 923 315
L 924 317
L 926 322
L 927 305
L 928 307
L 929 311
L 931 308
L 932 316
L 933 324
L 934 313
L 936 289
L 937 304
L 938 305
L 939 305
L 941 330
L 942 324
L 943 312
L 944 278
L 945 297
L 947 277
L 948 295
L 949 315
L 950 315
L 952 297
L 953 249
L 954 273
L 955 263
L 957 275
L 958 280
L 959 304
L 960 300
L 961 245" style="stroke-width:1;stroke:rgba(0,217,101,1.0);fill:none"/><path  d="M 38 351
L 40 351
L 41 351
L 42 351
L 43 351
L 45 351
L 46 351
L 47 351
L 48 351
L 50 351
L 51 351
L 52 351
L 53 351
L 55 351
L 56 351
L 57 351
L 58 351
L 59 351
L 61 351
L 62 351
L 63 351
L 64 351
L 66 351
L 67 351
L 68 351
L 69 351
L 71 351
L 72 351
L 73 351
L 74 351
L 76 351
L 77 351
L 78 351
L 79 351
L 80 351
L 82 351
L 83 351
L 84 351
L 85 350
L 87 351
L 88 351
L 89 351
L 90 351
L 92 351
L 93 351
L 94 351
L 95 351
L 96 351
L 98 351
L 99 351
L 100 351
L 101 351
L 103 351
L 104 351
L 105 351
L 106 351
L 108 351
L 109 351
L 110 351
L 111 351
L 113 351
L 114 351
L 115 351
L 116 351
L 117 351
L 119 351
L 120 351
L 121 351
L 122 351
L 124 351
L 125 351
L 126 351
L 127 351
L 129 351
L 130 351
L 131 351
L 132 351
L 134 351
L 135 351
L 136 351
L 137 351
L 138 351
L 140 351
L 141 351
L 142 351
L 143 351
L 145 351
L 146 351
L 147 351
L 148 351
L 150 351
L 151 351
L 152 351
L 153 351
L 154 351
L 156 351
L 157 351
L 158 351
L 159 351
L 161 351
L 162 351
L 163 351
L 164 351
L 166 351
L 167 351
L 168 351
L 169 351
L 171 351
L 172 351
L 173 351
L 174 351
L 175 351
L 177 351
L 178 351
L 179 351
L 180 351
L 182 351
L 183 351
L 184 351
L 185 351
L 187 351
L 188 351
L 189 351
L 190 351
L 192 351
L 193 351
L 194 351
L 195 351
L 196 351
L 198 351
L 199 351
L 200 351
L 201 351
L 203 351
L 204 351
L 205 351
L 206 351
L 208 351
L 209 351
L 210 351
L 211 351
L 212 351
L 214 351
L 215 351
L 216 351
L 217 351
L 219 351
L 220 351
L 221 351
L 222 351
L 224 351
L 225 351
L 226 351
L 227 351
L 229 351
L 230 351
L 231 351
L 232 351
L 233 351
L 235 351
L 236 351
L 237 351
L 238 351
L 240 351
L 241 351
L 242 351
L 243 351
L 245 351
L 246 351
L 247 351
L 248 351
L 250 351
L 251 351
L 252 351
L 253 351
L 254 351
L 256 351
L 257 351
L 258 351
L 259 351
L 261 351
L 262 351
L 263 351
L 264 351
L 266 351
L 267 351
L 268 351
L 269 351
L 270 351
L 272 351
L 273 351
L 274 351
L 275 351
L 277 351
L 278 351
L 279 351
L 280 351
L 282 351
L 283 351
L 284 351
L 285 351
L 287 351
L 288 351
L 289 351
L 290 351
L 291 351
L 293 351
L 294 351
L 295 351
L 296 351
L 298 351
L 299 350
L 300 351
L 301 351
L 303 351
L 304 351
L 305 351
L 306 350
L 308 351
L 309 351
L 310 351
L 311 351
L 312 351
L 314 351
L 315 351
L 316 351
L 317 351
L 319 351
L 320 351
L 321 351
L 322 351
L 324 351
L 325 351
L 326 351
L 327 351
L 328 351
L 330 351
L 331 351
L 332 351
L 333 351
L 335 351
L 336 351
L 337 351
L 338 351
L 340 351
L 341 351
L 342 351
L 343 351
L 345 350
L 346 351
L 347 351
L 348 351
L 349 350
L 351 351
L 352 351
L 353 350
L 354 351
L 356 351
L 357 350
L 358 350
L 359 351
L 361 350
L 362 350
L 363 351
L 364 350
L 365 350
L 367 351
L 368 350
L 369 351
L 370 350
L 372 350
L 373 351
L 374 350
L 375 350
L 377 350
L 378 350
L 379 350
L 380 350
L 382 350
L 383 350
L 384 350
L 385 351
L 386 350
L 388 350
L 389 351
L 390 350
L 391 350
L 393 350
L 394 350
L 395 350
L 396 351
L 398 351
L 399 350
L 400 351
L 401 351
L 403 351
L 404 350
L 405 351
L 406 350
L 407 350
L 409 350
L 410 350
L 411 351
L 412 350
L 414 350
L 415 350
L 416 351
L 417 350
L 419 351
L 420 351
L 421 351
L 422 350
L 423 350
L 425 350
L 426 350
L 427 350
L 428 351
L 430 350
L 431 351
L 432 351
L 433 351
L 435 351
L 436 350
L 437 350
L 438 350
L 440 350
L 441 350
L 442 351
L 443 350
L 444 350
L 446 350
L 447 350
L 448 351
L 449 350
L 451 350
L 452 350
L 453 350
L 454 350
L 456 351
L 457 350
L 458 351
L 459 350
L 461 350
L 462 351
L 463 350
L 464 351
L 465 350
L 467 351
L 468 350
L 469 351
L 470 350
L 472 351
L 473 351
L 474 350
L 475 350
L 477 350
L 478 351
L 479 350
L 480 351
L 481 351
L 483 350
L 484 351
L 485 350
L 486 351
L 488 351
L 489 351
L 490 351
L 491 351
L 493 350
L 494 350
L 495 351
L 496 351
L 498 351
L 499 351
L 500 350
L 501 351
L 502 350
L 504 351
L 505 351
L 506 350
L 507 351
L 509 350
L 510 351
L 511 350
L 512 350
L 514 351
L 515 351
L 516 351
L 517 351
L 519 351
L 520 351
L 521 351
L 522 351
L 523 350
L 525 350
L 526 351
L 527 351
L 528 350
L 530 351
L 531 351
L 532 351
L 533 351
L 535 351
L 536 351
L 537 351
L 538 351
L 539 351
L 541 351
L 542 351
L 543 350
L 544 351
L 546 350
L 547 351
L 548 350
L 549 350
L 551 351
L 552 351
L 553 351
L 554 351
L 556 351
L 557 350
L 558 351
L 559 351
L 560 351
L 562 351
L 563 351
L 564 351
L 565 351
L 567 351
L 568 350
L 569 351
L 570 351
L 572 351
L 573 350
L 574 351
L 575 351
L 577 350
L 578 351
L 579 351
L 580 351
L 581 351
L 583 350
L 584 351
L 585 351
L 586 350
L 588 351
L 589 351
L 590 351
L 591 351
L 593 350
L 594 351
L 595 351
L 596 351
L 597 351
L 599 351
L 600 351
L 601 351
L 602 351
L 604 351
L 605 351
L 606 351
L 607 351
L 609 351
L 610 351
L 611 351
L 612 351
L 614 351
L 615 351
L 616 351
L 617 351
L 618 351
L 620 351
L 621 351
L 622 351
L 623 351
L 625 351
L 626 350
L 627 351
L 628 351
L 630 351
L 631 351
L 632 351
L 633 351
L 635 350
L 636 351
L 637 351
L 638 350
L 639 351
L 641 351
L 642 351
L 643 351
L 644 351
L 646 351
L 647 351
L 648 351
L 649 351
L 651 351
L 652 351
L 653 351
L 654 351
L 655 351
L 657 351
L 658 351
L 659 351
L 660 351
L 662 351
L 663 351
L 664 351
L 665 351
L 667 351
L 668 351
L 669 351
L 670 351
L 672 351
L 673 351
L 674 351
L 675 351
L 676 351
L 678 351
L 679 351
L 680 351
L 681 351
L 683 351
L 684 351
L 685 351
L 686 351
L 688 351
L 689 351
L 690 351
L 691 351
L 692 351
L 694 351
L 695 351
L 696 351
L 697 351
L 699 351
L 700 351
L 701 351
L 702 351
L 704 351
L 705 351
L 706 351
L 707 351
L 709 351
L 710 351
L 711 351
L 712 351
L 713 351
L 715 351
L 716 351
L 717 351
L 718 351
L 720 351
L 721 351
L 722 351
L 723 351
L 725 351
L 726 351
L 727 351
L 728 351
L 730 351
L 731 351
L 732 351
L 733 351
L 734 351
L 736 351
L 737 350
L 738 351
L 739 351
L 741 351
L 742 351
L 743 351
L 744 351
L 746 350
L 747 351
L 748 351
L 749 351
L 750 351
L 752 351
L 753 351
L 754 351
L 755 351
L 757 351
L 758 351
L 759 351
L 760 351
L 762 351
L 763 351
L 764 351
L 765 351
L 767 350
L 768 351
L 769 350
L 770 351
L 771 351
L 773 351
L 774 350
L 775 351
L 776 350
L 778 351
L 779 351
L 780 351
L 781 351
L 783 350
L 784 351
L 785 351
L 786 351
L 788 351
L 789 350
L 790 350
L 791 351
L 792 351
L 794 351
L 795 350
L 796 351
L 797 351
L 799 350
L 800 350
L 801 351
L 802 351
L 804 351
L 805 351
L 806 351
L 807 351
L 808 350
L 810 350
L 811 351
L 812 351
L 813 351
L 815 350
L 816 350
L 817 351
L 818 351
L 820 350
L 821 350
L 822 350
L 823 350
L 825 350
L 826 350
L 827 350
L 828 350
L 829 350
L 831 350
L 832 350
L 833 350
L 834 350
L 836 350
L 837 350
L 838 350
L 839 351
L 841 350
L 842 350
L 843 351
L 844 350
L 846 351
L 847 351
L 848 350
L 849 351
L 850 350
L 852 351
L 853 350
L 854 351
L 855 351
L 857 350
L 858 350
L 859 351
L 860 351
L 862 351
L 863 351
L 864 351
L 865 350
L 866 350
L 868 351
L 869 350
L 870 351
L 871 350
L 873 351
L 874 351
L 875 351
L 876 351
L 878 351
L 879 351
L 880 351
L 881 351
L 883 351
L 884 351
L 885 350
L 886 350
L 887 350
L 889 351
L 890 351
L 891 351
L 892 350
L 894 351
L 895 351
L 896 351
L 897 351
L 899 350
L 900 351
L 901 351
L 902 351
L 904 351
L 905 351
L 906 350
L 907 350
L 908 351
L 910 351
L 911 351
L 912 350
L 913 351
L 915 350
L 916 351
L 917 351
L 918 351
L 920 351
L 921 351
L 922 350
L 923 350
L 924 351
L 926 351
L 927 351
L 928 351
L 929 351
L 931 351
L 932 351
L 933 351
L 934 351
L 936 350
L 937 351
L 938 351
L 939 351
L 941 350
L 942 350
L 943 351
L 944 350
L 945 351
L 947 351
L 948 351
L 949 350
L 950 350
L 952 350
L 953 350
L 954 351
L 955 351
L 957 351
L 958 350
L 959 351
L 960 350
L 961 351" style="stroke-width:1;stroke:rgba(217,0,116,1.0);fill:none"/><text x="370" y="33" style="stroke-width:0;stroke:none;fill:rgba(51,51,51,1.0);font-size:23.0px;font-family:'Roboto Medium',sans-serif">Salzburg(Stadt) 15.03.2022</text><path  d="M 38 11
L 251 11
L 251 91
L 38 91
L 38 11" style="stroke-width:1;stroke:rgba(51,51,51,1.0);fill:rgba(255,255,255,1.0)"/><text x="43" y="26" style="stroke-width:0;stroke:none;fill:rgba(51,51,51,1.0);font-size:10.2px;font-family:'Roboto Medium',sans-serif">Sieben Tage Durschnitt Inzidenz Fälle</text><path  d="M 221 21
L 241 21" style="stroke-width:1;stroke:rgba(0,116,217,1.0);fill:none"/><text x="43" y="56" style="stroke-width:0;stroke:none;fill:rgba(51,51,51,1.0);font-size:10.2px;font-family:'Roboto Medium',sans-serif">Anzahl Faelle</text><path  d="M 110 51
L 241 51" style="stroke-width:1;stroke:rgba(0,217,101,1.0);fill:none"/><text x="43" y="86" style="stroke-width:0;stroke:none;fill:rgba(51,51,51,1.0);font-size:10.2px;font-family:'Roboto Medium',sans-serif">Anzahl Tot</text><path  d="M 98 81
L 241 81" style="stroke-width:1;stroke:rgba(217,0,116,1.0);fill:none"/></svg>