<svg xmlns="http://www.w3.org/2000/svg" xmlns:xlink="http://www.w3.org/1999/xlink" width="1024" height="400">\n<path  d="M 0 0
L 1024 0
L 1024 400
L 0 400
L 0 0" style="stroke-width:0;stroke:rgba(255,255,255,1.0);fill:rgba(255,255,255,1.0)"/><path  d="M 38 11
L 961 11
L 961 351
L 38 351
L 38 11" style="stroke-width:0;stroke:rgba(255,255,255,1.0);fill:rgba(255,255,255,1.0)"/><path  d="M 38 351
L 961 351" style="stroke-width:1;stroke:rgba(51,51,51,1.0);fill:none"/><path  d="M 38 351
L 38 356" style="stroke-width:1;stroke:rgba(51,51,51,1.0);fill:none"/><text x="5" y="373" style="stroke-width:0;stroke:none;fill:rgba(51,51,51,1.0);font-size:12.8px;font-family:'Roboto Medium',sans-serif">2020-02-26</text><path  d="M 154 351
L 154 356" style="stroke-width:1;stroke:rgba(51,51,51,1.0);fill:none"/><text x="121" y="373" style="stroke-width:0;stroke:none;fill:rgba(51,51,51,1.0);font-size:12.8px;font-family:'Roboto Medium',sans-serif">2020-06-22</text><path  d="M 269 351
L 269 356" style="stroke-width:1;stroke:rgba(51,51,51,1.0);fill:none"/><text x="236" y="373" style="stroke-width:0;stroke:none;fill:rgba(51,51,51,1.0);font-size:12.8px;font-family:'Roboto Medium',sans-serif">2020-10-18</text><path  d="M 385 351
L 385 356" style="stroke-width:1;stroke:rgba(51,51,51,1.0);fill:none"/><text x="352" y="373" style="stroke-width:0;stroke:none;fill:rgba(51,51,51,1.0);font-size:12.8px;font-family:'Roboto Medium',sans-serif">2021-02-13</text><path  d="M 500 351
L 500 356" style="stroke-width:1;stroke:rgba(51,51,51,1.0);fill:none"/><text x="467" y="373" style="stroke-width:0;stroke:none;fill:rgba(51,51,51,1.0);font-size:12.8px;font-family:'Roboto Medium',sans-serif">2021-06-11</text><path  d="M 615 351
L 615 356" style="stroke-width:1;stroke:rgba(51,51,51,1.0);fill:none"/><text x="582" y="373" style="stroke-width:0;stroke:none;fill:rgba(51,51,51,1.0);font-size:12.8px;font-family:'Roboto Medium',sans-serif">2021-10-07</text><path  d="M 731 351
L 731 356" style="stroke-width:1;stroke:rgba(51,51,51,1.0);fill:none"/><text x="698" y="373" style="stroke-width:0;stroke:none;fill:rgba(51,51,51,1.0);font-size:12.8px;font-family:'Roboto Medium',sans-serif">2022-02-02</text><path  d="M 846 351
L 846 356" style="stroke-width:1;stroke:rgba(51,51,51,1.0);fill:none"/><text x="813" y="373" style="stroke-width:0;stroke:none;fill:rgba(51,51,51,1.0);font-size:12.8px;font-family:'Roboto Medium',sans-serif">2022-05-31</text><path  d="M 961 351
L 961 356" style="stroke-width:1;stroke:rgba(51,51,51,1.0);fill:none"/><text x="928" y="373" style="stroke-width:0;stroke:none;fill:rgba(51,51,51,1.0);font-size:12.8px;font-family:'Roboto Medium',sans-serif">2022-09-26</text><text x="481" y="395" style="stroke-width:0;stroke:none;fill:rgba(51,51,51,1.0);font-size:12.8px;font-family:'Roboto Medium',sans-serif">Datum</text><path  d="M 962 351
L 962 11" style="stroke-width:1;stroke:rgba(51,51,51,1.0);fill:none"/><path  d="M 962 351
L 967 351" style="stroke-width:1;stroke:rgba(51,51,51,1.0);fill:none"/><text x="972" y="357" style="stroke-width:0;stroke:none;fill:rgba(51,51,51,1.0);font-size:12.8px;font-family:'Roboto Medium',sans-serif">0.00</text><path  d="M 962 308
L 967 308" style="stroke-width:1;stroke:rgba(51,51,51,1.0);fill:none"/><text x="972" y="314" style="stroke-width:0;stroke:none;fill:rgba(51,51,51,1.0);font-size:12.8px;font-family:'Roboto Medium',sans-serif">540.00</text><path  d="M 962 265
L 967 265" style="stroke-width:1;stroke:rgba(51,51,51,1.0);fill:none"/><text x="972" y="271" style="stroke-width:0;stroke:none;fill:rgba(51,51,51,1.0);font-size:12.8px;font-family:'Roboto Medium',sans-serif">1080.00</text><path  d="M 962 222
L 967 222" style="stroke-width:1;stroke:rgba(51,51,51,1.0);fill:none"/><text x="972" y="228" style="stroke-width:0;stroke:none;fill:rgba(51,51,51,1.0);font-size:12.8px;font-family:'Roboto Medium',sans-serif">1620.00</text><path  d="M 962 181
L 967 181" style="stroke-width:1;stroke:rgba(51,51,51,1.0);fill:none"/><text x="972" y="187" style="stroke-width:0;stroke:none;fill:rgba(51,51,51,1.0);font-size:12.8px;font-family:'Roboto Medium',sans-serif">2150.00</text><path  d="M 962 138
L 967 138" style="stroke-width:1;stroke:rgba(51,51,51,1.0);fill:none"/><text x="972" y="144" style="stroke-width:0;stroke:none;fill:rgba(51,51,51,1.0);font-size:12.8px;font-family:'Roboto Medium',sans-serif">2690.00</text><path  d="M 962 95
L 967 95" style="stroke-width:1;stroke:rgba(51,51,51,1.0);fill:none"/><text x="972" y="101" style="stroke-width:0;stroke:none;fill:rgba(51,51,51,1.0);font-size:12.8px;font-family:'Roboto Medium',sans-serif">3230.00</text><path  d="M 962 52
L 967 52" style="stroke-width:1;stroke:rgba(51,51,51,1.0);fill:none"/><text x="972" y="58" style="stroke-width:0;stroke:none;fill:rgba(51,51,51,1.0);font-size:12.8px;font-family:'Roboto Medium',sans-serif">3770.00</text><path  d="M 962 11
L 967 11" style="stroke-width:1;stroke:rgba(51,51,51,1.0);fill:none"/><text x="972" y="17" style="stroke-width:0;stroke:none;fill:rgba(51,51,51,1.0);font-size:12.8px;font-family:'Roboto Medium',sans-serif">4300.00</text><path  d="M 38 351
L 39 351
L 40 351
L 41 351
L 42 351
L 43 351
L 44 351
L 45 351
L 46 351
L 47 351
L 48 351
L 49 351
L 50 351
L 51 351
L 52 351
L 53 351
L 54 351
L 55 350
L 56 350
L 57 350
L 58 350
L 59 350
L 60 350
L 61 349
L 62 349
L 63 349
L 64 349
L 65 349
L 66 348
L 67 347
L 68 346
L 69 346
L 70 346
L 71 345
L 72 345
L 73 346
L 74 346
L 75 347
L 76 347
L 77 348
L 78 347
L 79 347
L 80 348
L 81 348
L 82 348
L 83 349
L 84 349
L 85 350
L 85 350
L 86 350
L 87 350
L 88 350
L 89 350
L 90 350
L 91 350
L 92 350
L 93 350
L 94 350
L 95 350
L 96 350
L 97 350
L 98 350
L 99 350
L 100 350
L 101 350
L 102 350
L 103 350
L 104 350
L 105 350
L 106 350
L 107 350
L 108 350
L 109 350
L 110 350
L 111 350
L 112 350
L 113 350
L 114 350
L 115 351
L 116 351
L 117 351
L 118 351
L 119 351
L 120 351
L 121 351
L 122 351
L 123 351
L 124 351
L 125 351
L 126 351
L 127 351
L 128 351
L 129 351
L 130 351
L 131 351
L 131 351
L 132 351
L 133 351
L 134 351
L 135 351
L 136 350
L 137 350
L 138 350
L 139 350
L 140 350
L 141 350
L 142 350
L 143 350
L 144 351
L 145 351
L 146 351
L 147 351
L 148 351
L 149 350
L 150 350
L 151 350
L 152 350
L 153 350
L 154 350
L 155 350
L 156 350
L 157 350
L 158 350
L 159 350
L 160 350
L 161 350
L 162 350
L 163 350
L 164 350
L 165 350
L 166 350
L 167 350
L 168 350
L 169 350
L 170 350
L 171 350
L 172 350
L 173 350
L 174 350
L 175 350
L 176 350
L 177 350
L 177 350
L 178 350
L 179 350
L 180 350
L 181 350
L 182 350
L 183 350
L 184 350
L 185 350
L 186 350
L 187 350
L 188 350
L 189 350
L 190 350
L 191 350
L 192 350
L 193 350
L 194 350
L 195 350
L 196 350
L 197 350
L 198 350
L 199 350
L 200 350
L 201 350
L 202 350
L 203 350
L 204 350
L 205 350
L 206 349
L 207 350
L 208 350
L 209 350
L 210 350
L 211 350
L 212 350
L 213 350
L 214 350
L 215 350
L 216 350
L 217 350
L 218 350
L 219 349
L 220 349
L 221 349
L 222 349
L 223 349
L 223 349
L 224 349
L 225 349
L 226 349
L 227 350
L 228 349
L 229 348
L 230 349
L 231 348
L 232 347
L 233 347
L 234 347
L 235 347
L 236 347
L 237 347
L 238 347
L 239 348
L 240 347
L 241 347
L 242 347
L 243 347
L 244 347
L 245 347
L 246 346
L 247 346
L 248 346
L 249 346
L 250 345
L 251 345
L 252 344
L 253 345
L 254 344
L 255 343
L 256 342
L 257 341
L 258 341
L 259 341
L 260 340
L 261 340
L 262 341
L 263 341
L 264 342
L 265 341
L 266 341
L 267 341
L 268 342
L 269 343
L 269 342
L 270 343
L 271 343
L 272 342
L 273 342
L 274 341
L 275 339
L 276 340
L 277 337
L 278 335
L 279 334
L 280 330
L 281 329
L 282 328
L 283 325
L 284 323
L 285 321
L 286 320
L 287 318
L 288 316
L 289 315
L 290 317
L 291 317
L 292 319
L 293 319
L 294 323
L 295 322
L 296 320
L 297 316
L 298 316
L 299 314
L 300 312
L 301 311
L 302 311
L 303 313
L 304 316
L 305 316
L 306 315
L 307 317
L 308 316
L 309 313
L 310 311
L 311 315
L 312 313
L 313 317
L 314 314
L 315 317
L 315 320
L 316 323
L 317 321
L 318 326
L 319 326
L 320 328
L 321 330
L 322 333
L 323 333
L 324 332
L 325 332
L 326 331
L 327 333
L 328 334
L 329 334
L 330 335
L 331 338
L 332 338
L 333 339
L 334 341
L 335 342
L 336 343
L 337 344
L 338 343
L 339 343
L 340 342
L 341 343
L 342 342
L 343 342
L 344 342
L 345 342
L 346 341
L 347 341
L 348 341
L 349 341
L 350 341
L 351 341
L 352 341
L 353 342
L 354 343
L 355 342
L 356 342
L 357 342
L 358 342
L 359 342
L 360 343
L 361 343
L 362 344
L 362 345
L 363 345
L 364 346
L 365 346
L 366 347
L 367 347
L 368 346
L 369 345
L 370 346
L 371 346
L 372 345
L 373 345
L 374 345
L 375 346
L 376 347
L 377 347
L 378 347
L 379 348
L 380 347
L 381 347
L 382 346
L 383 346
L 384 346
L 385 346
L 386 345
L 387 345
L 388 344
L 389 344
L 390 344
L 391 344
L 392 344
L 393 343
L 394 343
L 395 342
L 396 342
L 397 341
L 398 338
L 399 338
L 400 336
L 401 334
L 402 335
L 403 335
L 404 334
L 405 334
L 406 333
L 407 333
L 408 335
L 408 335
L 409 333
L 410 331
L 411 331
L 412 331
L 413 330
L 414 331
L 415 331
L 416 333
L 417 334
L 418 336
L 419 335
L 420 336
L 421 335
L 422 334
L 423 334
L 424 332
L 425 333
L 426 333
L 427 331
L 428 331
L 429 331
L 430 329
L 431 330
L 432 329
L 433 329
L 434 331
L 435 331
L 436 332
L 437 334
L 438 335
L 439 337
L 440 337
L 441 337
L 442 337
L 443 337
L 444 336
L 445 338
L 446 337
L 447 337
L 448 338
L 449 337
L 450 336
L 451 337
L 452 336
L 453 337
L 454 338
L 454 337
L 455 337
L 456 337
L 457 337
L 458 337
L 459 336
L 460 336
L 461 337
L 462 338
L 463 339
L 464 338
L 465 339
L 466 339
L 467 340
L 468 339
L 469 340
L 470 339
L 471 340
L 472 340
L 473 341
L 474 342
L 475 342
L 476 342
L 477 343
L 478 343
L 479 344
L 480 345
L 481 345
L 482 346
L 483 346
L 484 346
L 485 347
L 486 347
L 487 347
L 488 347
L 489 347
L 490 347
L 491 348
L 492 348
L 493 349
L 494 348
L 495 348
L 496 348
L 497 348
L 498 348
L 499 348
L 500 348
L 500 349
L 501 349
L 502 349
L 503 349
L 504 350
L 505 350
L 506 350
L 507 350
L 508 350
L 509 350
L 510 350
L 511 350
L 512 350
L 513 350
L 514 350
L 515 350
L 516 349
L 517 349
L 518 349
L 519 348
L 520 348
L 521 348
L 522 348
L 523 348
L 524 348
L 525 348
L 526 348
L 527 349
L 528 349
L 529 349
L 530 348
L 531 348
L 532 348
L 533 349
L 534 348
L 535 348
L 536 348
L 537 349
L 538 349
L 539 349
L 540 349
L 541 350
L 542 350
L 543 349
L 544 349
L 545 350
L 546 350
L 546 349
L 547 349
L 548 349
L 549 349
L 550 349
L 551 348
L 552 348
L 553 348
L 554 348
L 555 348
L 556 348
L 557 347
L 558 346
L 559 346
L 560 343
L 561 342
L 562 341
L 563 340
L 564 340
L 565 340
L 566 341
L 567 341
L 568 341
L 569 341
L 570 342
L 571 342
L 572 341
L 573 340
L 574 342
L 575 342
L 576 341
L 577 342
L 578 342
L 579 342
L 580 343
L 581 343
L 582 343
L 583 343
L 584 343
L 585 342
L 586 341
L 587 338
L 588 336
L 589 335
L 590 335
L 591 334
L 592 335
L 592 336
L 593 337
L 594 339
L 595 338
L 596 338
L 597 338
L 598 338
L 599 337
L 600 338
L 601 338
L 602 340
L 603 340
L 604 341
L 605 341
L 606 340
L 607 341
L 608 340
L 609 340
L 610 339
L 611 340
L 612 340
L 613 341
L 614 342
L 615 343
L 616 343
L 617 343
L 618 344
L 619 344
L 620 343
L 621 344
L 622 344
L 623 344
L 624 344
L 625 343
L 626 341
L 627 342
L 628 340
L 629 339
L 630 337
L 631 336
L 632 336
L 633 337
L 634 336
L 635 335
L 636 333
L 637 331
L 638 328
L 638 326
L 639 321
L 640 319
L 641 317
L 642 312
L 643 308
L 644 304
L 645 300
L 646 295
L 647 289
L 648 281
L 649 283
L 650 280
L 651 276
L 652 272
L 653 276
L 654 276
L 655 280
L 656 281
L 657 284
L 658 286
L 659 288
L 660 286
L 661 285
L 662 283
L 663 282
L 664 281
L 665 282
L 666 287
L 667 289
L 668 293
L 669 296
L 670 297
L 671 300
L 672 305
L 673 306
L 674 310
L 675 311
L 676 316
L 677 320
L 678 322
L 679 323
L 680 324
L 681 326
L 682 327
L 683 329
L 684 330
L 685 332
L 685 333
L 686 335
L 687 336
L 688 338
L 689 339
L 690 339
L 691 340
L 692 341
L 693 341
L 694 341
L 695 341
L 696 341
L 697 339
L 698 337
L 699 337
L 700 335
L 701 334
L 702 327
L 703 319
L 704 317
L 705 314
L 706 307
L 707 304
L 708 297
L 709 293
L 710 296
L 711 289
L 712 281
L 713 277
L 714 267
L 715 260
L 716 255
L 717 246
L 718 236
L 719 231
L 720 227
L 721 222
L 722 214
L 723 202
L 724 191
L 725 188
L 726 188
L 727 178
L 728 183
L 729 191
L 730 177
L 731 185
L 731 187
L 732 175
L 733 178
L 734 180
L 735 179
L 736 194
L 737 184
L 738 192
L 739 199
L 740 202
L 741 198
L 742 200
L 743 186
L 744 190
L 745 183
L 746 188
L 747 194
L 748 195
L 749 192
L 750 207
L 751 208
L 752 212
L 753 215
L 754 212
L 755 212
L 756 209
L 757 198
L 758 206
L 759 198
L 760 188
L 761 183
L 762 175
L 763 170
L 764 161
L 765 133
L 766 103
L 767 80
L 768 66
L 769 56
L 770 51
L 771 15
L 772 13
L 773 21
L 774 28
L 775 21
L 776 21
L 777 14
L 777 41
L 778 55
L 779 75
L 780 90
L 781 111
L 782 128
L 783 139
L 784 161
L 785 170
L 786 181
L 787 189
L 788 197
L 789 205
L 790 217
L 791 229
L 792 241
L 793 248
L 794 256
L 795 260
L 796 263
L 797 272
L 798 282
L 799 284
L 800 288
L 801 292
L 802 296
L 803 299
L 804 300
L 805 300
L 806 301
L 807 302
L 808 302
L 809 301
L 810 300
L 811 300
L 812 299
L 813 301
L 814 302
L 815 303
L 816 304
L 817 303
L 818 301
L 819 305
L 820 307
L 821 306
L 822 306
L 823 309
L 823 310
L 824 313
L 825 314
L 826 314
L 827 317
L 828 320
L 829 321
L 830 323
L 831 326
L 832 328
L 833 331
L 834 334
L 835 333
L 836 334
L 837 336
L 838 336
L 839 336
L 840 337
L 841 337
L 842 337
L 843 338
L 844 337
L 845 337
L 846 340
L 847 339
L 848 337
L 849 337
L 850 335
L 851 334
L 852 333
L 853 331
L 854 331
L 855 331
L 856 329
L 857 330
L 858 331
L 859 330
L 860 329
L 861 326
L 862 321
L 863 320
L 864 316
L 865 314
L 866 310
L 867 308
L 868 309
L 869 308
L 869 308
L 870 310
L 871 309
L 872 306
L 873 306
L 874 305
L 875 306
L 876 305
L 877 301
L 878 300
L 879 301
L 880 299
L 881 294
L 882 293
L 883 292
L 884 294
L 885 294
L 886 292
L 887 292
L 888 294
L 889 289
L 890 286
L 891 286
L 892 285
L 893 285
L 894 281
L 895 282
L 896 282
L 897 282
L 898 284
L 899 282
L 900 282
L 901 282
L 902 284
L 903 291
L 904 295
L 905 295
L 906 301
L 907 306
L 908 311
L 909 313
L 910 311
L 911 311
L 912 312
L 913 310
L 914 310
L 915 312
L 915 314
L 916 316
L 917 318
L 918 317
L 919 319
L 920 321
L 921 320
L 922 317
L 923 316
L 924 314
L 925 316
L 926 316
L 927 314
L 928 314
L 929 315
L 930 314
L 931 315
L 932 313
L 933 311
L 934 312
L 935 310
L 936 313
L 937 316
L 938 317
L 939 319
L 940 320
L 941 320
L 942 321
L 943 319
L 944 317
L 945 316
L 946 316
L 947 316
L 948 317
L 949 316
L 950 316
L 951 314
L 952 313
L 953 312
L 954 310
L 955 308
L 956 309
L 957 308
L 958 308
L 959 308
L 960 307
L 961 306
L 961 302" style="stroke-width:1;stroke:rgba(0,116,217,1.0);fill:none"/><path  d="M 38 351
L 39 351
L 40 351
L 41 351
L 42 351
L 43 351
L 44 351
L 45 351
L 46 351
L 47 351
L 48 351
L 49 351
L 50 351
L 51 351
L 52 351
L 53 351
L 54 351
L 55 350
L 56 351
L 57 351
L 58 350
L 59 351
L 60 350
L 61 350
L 62 351
L 63 350
L 64 351
L 65 350
L 66 350
L 67 350
L 68 350
L 69 350
L 70 350
L 71 350
L 72 350
L 73 350
L 74 350
L 75 350
L 76 350
L 77 351
L 78 350
L 79 350
L 80 351
L 81 350
L 82 350
L 83 351
L 84 351
L 85 350
L 85 350
L 86 351
L 87 350
L 88 351
L 89 351
L 90 351
L 91 351
L 92 351
L 93 350
L 94 351
L 95 350
L 96 350
L 97 351
L 98 351
L 99 351
L 100 351
L 101 350
L 102 351
L 103 351
L 104 351
L 105 351
L 106 351
L 107 351
L 108 350
L 109 351
L 110 351
L 111 351
L 112 351
L 113 351
L 114 351
L 115 351
L 116 351
L 117 351
L 118 351
L 119 351
L 120 351
L 121 351
L 122 351
L 123 351
L 124 351
L 125 351
L 126 351
L 127 351
L 128 351
L 129 351
L 130 351
L 131 351
L 131 351
L 132 351
L 133 351
L 134 351
L 135 351
L 136 350
L 137 350
L 138 351
L 139 351
L 140 351
L 141 351
L 142 351
L 143 351
L 144 351
L 145 351
L 146 351
L 147 351
L 148 351
L 149 350
L 150 351
L 151 350
L 152 351
L 153 350
L 154 351
L 155 351
L 156 351
L 157 351
L 158 351
L 159 350
L 160 351
L 161 351
L 162 350
L 163 350
L 164 351
L 165 351
L 166 350
L 167 351
L 168 351
L 169 351
L 170 350
L 171 351
L 172 351
L 173 351
L 174 351
L 175 351
L 176 351
L 177 350
L 177 350
L 178 350
L 179 351
L 180 351
L 181 351
L 182 351
L 183 351
L 184 350
L 185 351
L 186 351
L 187 350
L 188 351
L 189 351
L 190 351
L 191 351
L 192 350
L 193 350
L 194 351
L 195 350
L 196 350
L 197 351
L 198 351
L 199 351
L 200 350
L 201 350
L 202 350
L 203 351
L 204 351
L 205 350
L 206 350
L 207 351
L 208 351
L 209 350
L 210 351
L 211 350
L 212 351
L 213 351
L 214 351
L 215 350
L 216 350
L 217 350
L 218 350
L 219 350
L 220 351
L 221 350
L 222 351
L 223 350
L 223 350
L 224 351
L 225 350
L 226 350
L 227 351
L 228 350
L 229 350
L 230 350
L 231 350
L 232 350
L 233 350
L 234 350
L 235 350
L 236 350
L 237 350
L 238 350
L 239 350
L 240 350
L 241 350
L 242 350
L 243 350
L 244 350
L 245 350
L 246 350
L 247 350
L 248 350
L 249 350
L 250 350
L 251 350
L 252 350
L 253 350
L 254 350
L 255 350
L 256 349
L 257 349
L 258 350
L 259 350
L 260 350
L 261 350
L 262 350
L 263 350
L 264 350
L 265 349
L 266 350
L 267 349
L 268 350
L 269 350
L 269 350
L 270 350
L 271 350
L 272 349
L 273 350
L 274 350
L 275 349
L 276 350
L 277 349
L 278 348
L 279 349
L 280 347
L 281 349
L 282 349
L 283 347
L 284 348
L 285 347
L 286 348
L 287 346
L 288 348
L 289 349
L 290 348
L 291 348
L 292 349
L 293 348
L 294 348
L 295 348
L 296 347
L 297 346
L 298 348
L 299 348
L 300 347
L 301 347
L 302 348
L 303 348
L 304 348
L 305 348
L 306 347
L 307 348
L 308 347
L 309 347
L 310 347
L 311 350
L 312 347
L 313 350
L 314 346
L 315 348
L 315 348
L 316 349
L 317 349
L 318 349
L 319 350
L 320 347
L 321 349
L 322 350
L 323 349
L 324 349
L 325 349
L 326 349
L 327 348
L 328 350
L 329 350
L 330 350
L 331 350
L 332 349
L 333 350
L 334 350
L 335 350
L 336 350
L 337 350
L 338 350
L 339 349
L 340 349
L 341 350
L 342 350
L 343 350
L 344 350
L 345 350
L 346 349
L 347 349
L 348 350
L 349 350
L 350 350
L 351 350
L 352 350
L 353 349
L 354 350
L 355 349
L 356 350
L 357 350
L 358 350
L 359 350
L 360 350
L 361 350
L 362 350
L 362 350
L 363 350
L 364 350
L 365 350
L 366 350
L 367 350
L 368 349
L 369 350
L 370 350
L 371 350
L 372 350
L 373 350
L 374 350
L 375 350
L 376 350
L 377 350
L 378 350
L 379 350
L 380 350
L 381 350
L 382 350
L 383 350
L 384 350
L 385 350
L 386 350
L 387 350
L 388 350
L 389 350
L 390 350
L 391 350
L 392 350
L 393 349
L 394 350
L 395 350
L 396 349
L 397 349
L 398 348
L 399 350
L 400 349
L 401 349
L 402 350
L 403 349
L 404 349
L 405 349
L 406 350
L 407 349
L 408 350
L 408 349
L 409 348
L 410 348
L 411 348
L 412 350
L 413 349
L 414 350
L 415 349
L 416 349
L 417 349
L 418 349
L 419 349
L 420 349
L 421 349
L 422 349
L 423 349
L 424 348
L 425 350
L 426 349
L 427 348
L 428 349
L 429 349
L 430 348
L 431 348
L 432 349
L 433 349
L 434 349
L 435 349
L 436 350
L 437 349
L 438 349
L 439 350
L 440 349
L 441 349
L 442 349
L 443 350
L 444 349
L 445 350
L 446 349
L 447 349
L 448 350
L 449 349
L 450 349
L 451 349
L 452 350
L 453 350
L 454 350
L 454 349
L 455 349
L 456 349
L 457 349
L 458 349
L 459 349
L 460 350
L 461 350
L 462 349
L 463 350
L 464 349
L 465 350
L 466 349
L 467 350
L 468 350
L 469 350
L 470 349
L 471 350
L 472 350
L 473 350
L 474 350
L 475 350
L 476 350
L 477 350
L 478 350
L 479 350
L 480 350
L 481 350
L 482 350
L 483 350
L 484 350
L 485 350
L 486 350
L 487 350
L 488 350
L 489 350
L 490 350
L 491 350
L 492 350
L 493 351
L 494 350
L 495 351
L 496 350
L 497 350
L 498 350
L 499 350
L 500 350
L 500 350
L 501 351
L 502 350
L 503 351
L 504 350
L 505 350
L 506 350
L 507 350
L 508 351
L 509 350
L 510 350
L 511 351
L 512 350
L 513 351
L 514 351
L 515 350
L 516 350
L 517 350
L 518 350
L 519 350
L 520 350
L 521 350
L 522 351
L 523 350
L 524 350
L 525 350
L 526 350
L 527 351
L 528 351
L 529 350
L 530 350
L 531 350
L 532 350
L 533 350
L 534 350
L 535 350
L 536 350
L 537 350
L 538 350
L 539 350
L 540 351
L 541 351
L 542 350
L 543 350
L 544 350
L 545 350
L 546 350
L 546 350
L 547 350
L 548 350
L 549 350
L 550 350
L 551 350
L 552 350
L 553 350
L 554 351
L 555 350
L 556 350
L 557 350
L 558 350
L 559 350
L 560 349
L 561 350
L 562 350
L 563 350
L 564 350
L 565 350
L 566 350
L 567 349
L 568 350
L 569 350
L 570 350
L 571 350
L 572 349
L 573 350
L 574 350
L 575 350
L 576 350
L 577 350
L 578 350
L 579 350
L 580 350
L 581 350
L 582 349
L 583 350
L 584 350
L 585 350
L 586 349
L 587 348
L 588 349
L 589 349
L 590 350
L 591 349
L 592 350
L 592 350
L 593 349
L 594 350
L 595 349
L 596 350
L 597 349
L 598 350
L 599 350
L 600 349
L 601 350
L 602 350
L 603 350
L 604 350
L 605 350
L 606 349
L 607 349
L 608 349
L 609 350
L 610 350
L 611 350
L 612 350
L 613 350
L 614 350
L 615 350
L 616 350
L 617 350
L 618 350
L 619 350
L 620 349
L 621 350
L 622 350
L 623 350
L 624 350
L 625 350
L 626 349
L 627 349
L 628 349
L 629 349
L 630 349
L 631 349
L 632 350
L 633 350
L 634 349
L 635 349
L 636 348
L 637 348
L 638 348
L 638 348
L 639 347
L 640 348
L 641 347
L 642 345
L 643 345
L 644 346
L 645 346
L 646 344
L 647 345
L 648 343
L 649 346
L 650 344
L 651 344
L 652 344
L 653 347
L 654 345
L 655 345
L 656 347
L 657 346
L 658 345
L 659 345
L 660 345
L 661 345
L 662 344
L 663 346
L 664 345
L 665 345
L 666 347
L 667 347
L 668 347
L 669 345
L 670 347
L 671 347
L 672 348
L 673 348
L 674 349
L 675 347
L 676 348
L 677 349
L 678 348
L 679 349
L 680 348
L 681 350
L 682 348
L 683 349
L 684 350
L 685 349
L 685 349
L 686 350
L 687 350
L 688 349
L 689 350
L 690 349
L 691 350
L 692 350
L 693 350
L 694 350
L 695 349
L 696 350
L 697 348
L 698 349
L 699 350
L 700 349
L 701 349
L 702 346
L 703 345
L 704 347
L 705 347
L 706 346
L 707 347
L 708 345
L 709 344
L 710 347
L 711 343
L 712 343
L 713 344
L 714 341
L 715 341
L 716 341
L 717 341
L 718 337
L 719 340
L 720 342
L 721 338
L 722 336
L 723 334
L 724 335
L 725 335
L 726 340
L 727 336
L 728 341
L 729 341
L 730 327
L 731 339
L 731 336
L 732 333
L 733 338
L 734 343
L 735 340
L 736 336
L 737 334
L 738 340
L 739 337
L 740 339
L 741 341
L 742 341
L 743 328
L 744 336
L 745 336
L 746 340
L 747 343
L 748 342
L 749 339
L 750 337
L 751 336
L 752 339
L 753 342
L 754 341
L 755 341
L 756 338
L 757 331
L 758 340
L 759 334
L 760 336
L 761 338
L 762 337
L 763 335
L 764 325
L 765 324
L 766 317
L 767 323
L 768 330
L 769 331
L 770 332
L 771 305
L 772 323
L 773 322
L 774 327
L 775 326
L 776 331
L 777 328
L 777 320
L 778 331
L 779 333
L 780 336
L 781 338
L 782 341
L 783 334
L 784 333
L 785 337
L 786 339
L 787 340
L 788 343
L 789 345
L 790 341
L 791 340
L 792 343
L 793 343
L 794 345
L 795 345
L 796 347
L 797 346
L 798 346
L 799 344
L 800 345
L 801 347
L 802 347
L 803 349
L 804 347
L 805 345
L 806 345
L 807 346
L 808 347
L 809 347
L 810 348
L 811 347
L 812 344
L 813 346
L 814 346
L 815 348
L 816 347
L 817 347
L 818 346
L 819 347
L 820 347
L 821 346
L 822 348
L 823 348
L 823 348
L 824 348
L 825 347
L 826 347
L 827 348
L 828 350
L 829 349
L 830 349
L 831 350
L 832 348
L 833 349
L 834 350
L 835 349
L 836 350
L 837 350
L 838 350
L 839 348
L 840 349
L 841 350
L 842 349
L 843 350
L 844 350
L 845 350
L 846 350
L 847 349
L 848 349
L 849 349
L 850 348
L 851 349
L 852 349
L 853 348
L 854 349
L 855 349
L 856 348
L 857 349
L 858 349
L 859 349
L 860 348
L 861 347
L 862 347
L 863 347
L 864 347
L 865 348
L 866 347
L 867 347
L 868 347
L 869 346
L 869 348
L 870 348
L 871 347
L 872 345
L 873 346
L 874 347
L 875 347
L 876 347
L 877 346
L 878 347
L 879 346
L 880 345
L 881 344
L 882 346
L 883 347
L 884 347
L 885 347
L 886 345
L 887 345
L 888 345
L 889 344
L 890 345
L 891 346
L 892 346
L 893 345
L 894 343
L 895 345
L 896 344
L 897 345
L 898 347
L 899 346
L 900 344
L 901 344
L 902 346
L 903 347
L 904 347
L 905 348
L 906 349
L 907 348
L 908 346
L 909 347
L 910 346
L 911 347
L 912 348
L 913 348
L 914 347
L 915 347
L 915 348
L 916 348
L 917 349
L 918 348
L 919 349
L 920 349
L 921 347
L 922 346
L 923 348
L 924 347
L 925 348
L 926 349
L 927 347
L 928 347
L 929 347
L 930 347
L 931 348
L 932 347
L 933 348
L 934 348
L 935 346
L 936 348
L 937 349
L 938 349
L 939 348
L 940 349
L 941 347
L 942 347
L 943 347
L 944 348
L 945 348
L 946 348
L 947 348
L 948 348
L 949 346
L 950 347
L 951 347
L 952 348
L 953 348
L 954 347
L 955 347
L 956 347
L 957 346
L 958 347
L 959 348
L 960 347
L 961 347
L 961 345" style="stroke-width:1;stroke:rgba(0,217,101,1.0);fill:none"/><path  d="M 38 351
L 39 351
L 40 351
L 41 351
L 42 351
L 43 351
L 44 351
L 45 351
L 46 351
L 47 351
L 48 351
L 49 351
L 50 351
L 51 351
L 52 351
L 53 351
L 54 351
L 55 351
L 56 351
L 57 351
L 58 351
L 59 350
L 60 351
L 61 351
L 62 351
L 63 351
L 64 351
L 65 351
L 66 351
L 67 351
L 68 351
L 69 351
L 70 351
L 71 351
L 72 351
L 73 351
L 74 351
L 75 351
L 76 351
L 77 351
L 78 351
L 79 351
L 80 351
L 81 351
L 82 351
L 83 351
L 84 351
L 85 351
L 85 351
L 86 351
L 87 351
L 88 351
L 89 351
L 90 351
L 91 351
L 92 351
L 93 351
L 94 351
L 95 351
L 96 351
L 97 351
L 98 351
L 99 351
L 100 351
L 101 351
L 102 351
L 103 351
L 104 351
L 105 351
L 106 351
L 107 351
L 108 351
L 109 351
L 110 351
L 111 351
L 112 351
L 113 350
L 114 351
L 115 351
L 116 351
L 117 351
L 118 351
L 119 351
L 120 351
L 121 351
L 122 351
L 123 351
L 124 351
L 125 351
L 126 351
L 127 351
L 128 351
L 129 351
L 130 351
L 131 351
L 131 351
L 132 351
L 133 351
L 134 351
L 135 350
L 136 351
L 137 351
L 138 351
L 139 351
L 140 351
L 141 351
L 142 351
L 143 351
L 144 351
L 145 351
L 146 351
L 147 351
L 148 351
L 149 351
L 150 351
L 151 351
L 152 351
L 153 351
L 154 351
L 155 351
L 156 351
L 157 351
L 158 351
L 159 351
L 160 351
L 161 351
L 162 351
L 163 351
L 164 351
L 165 351
L 166 351
L 167 351
L 168 351
L 169 351
L 170 351
L 171 351
L 172 351
L 173 351
L 174 351
L 175 351
L 176 351
L 177 351
L 177 351
L 178 351
L 179 351
L 180 351
L 181 351
L 182 351
L 183 351
L 184 351
L 185 351
L 186 351
L 187 351
L 188 351
L 189 351
L 190 350
L 191 351
L 192 351
L 193 351
L 194 351
L 195 351
L 196 351
L 197 351
L 198 351
L 199 351
L 200 351
L 201 351
L 202 351
L 203 351
L 204 351
L 205 351
L 206 351
L 207 351
L 208 351
L 209 351
L 210 351
L 211 351
L 212 351
L 213 351
L 214 351
L 215 351
L 216 351
L 217 351
L 218 351
L 219 351
L 220 351
L 221 351
L 222 351
L 223 351
L 223 351
L 224 351
L 225 351
L 226 351
L 227 351
L 228 351
L 229 351
L 230 351
L 231 351
L 232 351
L 233 351
L 234 351
L 235 351
L 236 351
L 237 351
L 238 351
L 239 351
L 240 351
L 241 351
L 242 351
L 243 351
L 244 351
L 245 351
L 246 350
L 247 351
L 248 351
L 249 351
L 250 350
L 251 351
L 252 351
L 253 351
L 254 351
L 255 351
L 256 350
L 257 351
L 258 351
L 259 350
L 260 351
L 261 350
L 262 351
L 263 351
L 264 351
L 265 351
L 266 351
L 267 351
L 268 351
L 269 351
L 269 351
L 270 351
L 271 351
L 272 351
L 273 351
L 274 351
L 275 351
L 276 351
L 277 351
L 278 350
L 279 351
L 280 351
L 281 351
L 282 351
L 283 351
L 284 351
L 285 351
L 286 351
L 287 351
L 288 351
L 289 351
L 290 351
L 291 351
L 292 351
L 293 350
L 294 351
L 295 351
L 296 351
L 297 351
L 298 351
L 299 351
L 300 350
L 301 350
L 302 351
L 303 351
L 304 351
L 305 351
L 306 350
L 307 351
L 308 351
L 309 350
L 310 350
L 311 350
L 312 351
L 313 350
L 314 351
L 315 350
L 315 350
L 316 351
L 317 350
L 318 350
L 319 351
L 320 350
L 321 350
L 322 350
L 323 350
L 324 351
L 325 350
L 326 350
L 327 350
L 328 350
L 329 351
L 330 351
L 331 350
L 332 350
L 333 350
L 334 350
L 335 351
L 336 351
L 337 350
L 338 350
L 339 350
L 340 351
L 341 351
L 342 351
L 343 351
L 344 351
L 345 351
L 346 351
L 347 351
L 348 351
L 349 350
L 350 350
L 351 351
L 352 351
L 353 351
L 354 351
L 355 350
L 356 351
L 357 351
L 358 350
L 359 351
L 360 351
L 361 351
L 362 350
L 362 351
L 363 350
L 364 351
L 365 351
L 366 351
L 367 350
L 368 351
L 369 351
L 370 351
L 371 351
L 372 351
L 373 351
L 374 351
L 375 350
L 376 351
L 377 351
L 378 351
L 379 351
L 380 351
L 381 351
L 382 351
L 383 351
L 384 351
L 385 351
L 386 351
L 387 351
L 388 351
L 389 351
L 390 351
L 391 351
L 392 351
L 393 350
L 394 351
L 395 351
L 396 351
L 397 351
L 398 351
L 399 351
L 400 351
L 401 351
L 402 351
L 403 351
L 404 351
L 405 350
L 406 351
L 407 351
L 408 351
L 408 351
L 409 351
L 410 350
L 411 350
L 412 351
L 413 350
L 414 351
L 415 350
L 416 351
L 417 351
L 418 350
L 419 351
L 420 351
L 421 351
L 422 351
L 423 351
L 424 351
L 425 351
L 426 351
L 427 350
L 428 351
L 429 351
L 430 351
L 431 351
L 432 351
L 433 350
L 434 351
L 435 351
L 436 351
L 437 351
L 438 351
L 439 351
L 440 350
L 441 351
L 442 350
L 443 350
L 444 351
L 445 351
L 446 351
L 447 351
L 448 350
L 449 351
L 450 351
L 451 350
L 452 351
L 453 351
L 454 351
L 454 351
L 455 351
L 456 351
L 457 351
L 458 351
L 459 351
L 460 350
L 461 351
L 462 351
L 463 351
L 464 351
L 465 351
L 466 351
L 467 351
L 468 351
L 469 351
L 470 350
L 471 351
L 472 351
L 473 351
L 474 351
L 475 350
L 476 351
L 477 351
L 478 351
L 479 351
L 480 351
L 481 351
L 482 351
L 483 350
L 484 351
L 485 351
L 486 351
L 487 351
L 488 351
L 489 351
L 490 351
L 491 351
L 492 351
L 493 351
L 494 351
L 495 351
L 496 351
L 497 351
L 498 351
L 499 351
L 500 351
L 500 351
L 501 351
L 502 351
L 503 351
L 504 351
L 505 351
L 506 351
L 507 351
L 508 351
L 509 351
L 510 351
L 511 351
L 512 351
L 513 351
L 514 351
L 515 351
L 516 351
L 517 351
L 518 351
L 519 351
L 520 351
L 521 350
L 522 351
L 523 351
L 524 351
L 525 351
L 526 350
L 527 351
L 528 351
L 529 351
L 530 351
L 531 351
L 532 351
L 533 351
L 534 351
L 535 351
L 536 351
L 537 351
L 538 351
L 539 351
L 540 351
L 541 351
L 542 351
L 543 351
L 544 351
L 545 351
L 546 351
L 546 351
L 547 351
L 548 351
L 549 351
L 550 351
L 551 351
L 552 351
L 553 351
L 554 351
L 555 351
L 556 351
L 557 351
L 558 351
L 559 351
L 560 351
L 561 351
L 562 351
L 563 351
L 564 351
L 565 351
L 566 351
L 567 351
L 568 351
L 569 351
L 570 351
L 571 351
L 572 351
L 573 351
L 574 351
L 575 351
L 576 350
L 577 351
L 578 351
L 579 351
L 580 351
L 581 351
L 582 351
L 583 351
L 584 351
L 585 351
L 586 350
L 587 351
L 588 351
L 589 351
L 590 351
L 591 350
L 592 351
L 592 350
L 593 351
L 594 351
L 595 351
L 596 351
L 597 351
L 598 351
L 599 351
L 600 351
L 601 351
L 602 350
L 603 351
L 604 351
L 605 351
L 606 351
L 607 351
L 608 351
L 609 351
L 610 350
L 611 351
L 612 351
L 613 351
L 614 351
L 615 351
L 616 351
L 617 351
L 618 351
L 619 351
L 620 351
L 621 351
L 622 351
L 623 351
L 624 351
L 625 351
L 626 351
L 627 350
L 628 351
L 629 351
L 630 351
L 631 351
L 632 351
L 633 351
L 634 350
L 635 351
L 636 351
L 637 351
L 638 351
L 638 351
L 639 351
L 640 351
L 641 351
L 642 351
L 643 350
L 644 350
L 645 351
L 646 351
L 647 351
L 648 351
L 649 351
L 650 350
L 651 350
L 652 351
L 653 351
L 654 351
L 655 351
L 656 350
L 657 351
L 658 351
L 659 350
L 660 351
L 661 351
L 662 351
L 663 351
L 664 351
L 665 351
L 666 350
L 667 350
L 668 351
L 669 350
L 670 351
L 671 350
L 672 351
L 673 351
L 674 351
L 675 350
L 676 351
L 677 350
L 678 351
L 679 351
L 680 351
L 681 351
L 682 351
L 683 351
L 684 351
L 685 351
L 685 351
L 686 351
L 687 351
L 688 350
L 689 351
L 690 351
L 691 351
L 692 351
L 693 351
L 694 351
L 695 351
L 696 351
L 697 351
L 698 351
L 699 351
L 700 351
L 701 351
L 702 351
L 703 351
L 704 351
L 705 351
L 706 351
L 707 351
L 708 351
L 709 351
L 710 350
L 711 351
L 712 351
L 713 351
L 714 351
L 715 351
L 716 351
L 717 351
L 718 351
L 719 351
L 720 351
L 721 351
L 722 351
L 723 351
L 724 351
L 725 351
L 726 351
L 727 351
L 728 351
L 729 351
L 730 351
L 731 351
L 731 351
L 732 350
L 733 351
L 734 351
L 735 351
L 736 351
L 737 351
L 738 351
L 739 351
L 740 351
L 741 351
L 742 351
L 743 351
L 744 351
L 745 351
L 746 351
L 747 350
L 748 351
L 749 351
L 750 351
L 751 351
L 752 351
L 753 350
L 754 350
L 755 351
L 756 351
L 757 351
L 758 351
L 759 351
L 760 350
L 761 350
L 762 350
L 763 351
L 764 351
L 765 351
L 766 351
L 767 351
L 768 351
L 769 351
L 770 351
L 771 351
L 772 351
L 773 351
L 774 350
L 775 351
L 776 351
L 777 351
L 777 350
L 778 351
L 779 351
L 780 351
L 781 351
L 782 351
L 783 351
L 784 350
L 785 350
L 786 351
L 787 351
L 788 350
L 789 351
L 790 351
L 791 351
L 792 350
L 793 351
L 794 351
L 795 350
L 796 351
L 797 351
L 798 351
L 799 351
L 800 350
L 801 351
L 802 351
L 803 351
L 804 351
L 805 351
L 806 350
L 807 351
L 808 351
L 809 351
L 810 351
L 811 351
L 812 351
L 813 351
L 814 351
L 815 351
L 816 351
L 817 350
L 818 351
L 819 351
L 820 351
L 821 351
L 822 351
L 823 351
L 823 351
L 824 351
L 825 351
L 826 351
L 827 351
L 828 351
L 829 351
L 830 351
L 831 351
L 832 350
L 833 351
L 834 351
L 835 351
L 836 350
L 837 351
L 838 351
L 839 350
L 840 351
L 841 351
L 842 351
L 843 351
L 844 351
L 845 351
L 846 351
L 847 350
L 848 351
L 849 351
L 850 351
L 851 351
L 852 351
L 853 351
L 854 351
L 855 351
L 856 351
L 857 351
L 858 351
L 859 351
L 860 351
L 861 351
L 862 351
L 863 351
L 864 350
L 865 351
L 866 351
L 867 351
L 868 351
L 869 351
L 869 351
L 870 351
L 871 351
L 872 350
L 873 351
L 874 351
L 875 351
L 876 351
L 877 351
L 878 351
L 879 351
L 880 351
L 881 351
L 882 351
L 883 350
L 884 351
L 885 351
L 886 351
L 887 351
L 888 351
L 889 351
L 890 351
L 891 351
L 892 351
L 893 351
L 894 351
L 895 351
L 896 351
L 897 351
L 898 351
L 899 351
L 900 351
L 901 351
L 902 351
L 903 351
L 904 351
L 905 351
L 906 351
L 907 351
L 908 351
L 909 351
L 910 351
L 911 351
L 912 351
L 913 351
L 914 351
L 915 350
L 915 350
L 916 351
L 917 351
L 918 351
L 919 351
L 920 351
L 921 351
L 922 351
L 923 350
L 924 351
L 925 351
L 926 351
L 927 351
L 928 351
L 929 351
L 930 351
L 931 351
L 932 351
L 933 351
L 934 351
L 935 351
L 936 351
L 937 351
L 938 351
L 939 351
L 940 351
L 941 351
L 942 351
L 943 351
L 944 351
L 945 351
L 946 351
L 947 351
L 948 351
L 949 351
L 950 351
L 951 351
L 952 351
L 953 351
L 954 351
L 955 351
L 956 351
L 957 351
L 958 351
L 959 351
L 960 351
L 961 351
L 961 351" style="stroke-width:1;stroke:rgba(217,0,116,1.0);fill:none"/><text x="349" y="33" style="stroke-width:0;stroke:none;fill:rgba(51,51,51,1.0);font-size:23.0px;font-family:'Roboto Medium',sans-serif">Sankt Pölten(Stadt) 26.09.2022</text><path  d="M 38 11
L 251 11
L 251 91
L 38 91
L 38 11" style="stroke-width:1;stroke:rgba(51,51,51,1.0);fill:rgba(255,255,255,1.0)"/><text x="43" y="26" style="stroke-width:0;stroke:none;fill:rgba(51,51,51,1.0);font-size:10.2px;font-family:'Roboto Medium',sans-serif">Sieben Tage Durschnitt Inzidenz Fälle</text><path  d="M 221 21
L 241 21" style="stroke-width:1;stroke:rgba(0,116,217,1.0);fill:none"/><text x="43" y="56" style="stroke-width:0;stroke:none;fill:rgba(51,51,51,1.0);font-size:10.2px;font-family:'Roboto Medium',sans-serif">Anzahl Faelle</text><path  d="M 110 51
L 241 51" style="stroke-width:1;stroke:rgba(0,217,101,1.0);fill:none"/><text x="43" y="86" style="stroke-width:0;stroke:none;fill:rgba(51,51,51,1.0);font-size:10.2px;font-family:'Roboto Medium',sans-serif">Anzahl Tot</text><path  d="M 98 81
L 241 81" style="stroke-width:1;stroke:rgba(217,0,116,1.0);fill:none"/></svg>