<svg xmlns="http://www.w3.org/2000/svg" xmlns:xlink="http://www.w3.org/1999/xlink" width="1024" height="400">\n<path  d="M 0 0
L 1024 0
L 1024 400
L 0 400
L 0 0" style="stroke-width:0;stroke:rgba(255,255,255,1.0);fill:rgba(255,255,255,1.0)"/><path  d="M 38 11
L 961 11
L 961 351
L 38 351
L 38 11" style="stroke-width:0;stroke:rgba(255,255,255,1.0);fill:rgba(255,255,255,1.0)"/><path  d="M 38 351
L 961 351" style="stroke-width:1;stroke:rgba(51,51,51,1.0);fill:none"/><path  d="M 38 351
L 38 356" style="stroke-width:1;stroke:rgba(51,51,51,1.0);fill:none"/><text x="5" y="373" style="stroke-width:0;stroke:none;fill:rgba(51,51,51,1.0);font-size:12.8px;font-family:'Roboto Medium',sans-serif">2020-02-26</text><path  d="M 154 351
L 154 356" style="stroke-width:1;stroke:rgba(51,51,51,1.0);fill:none"/><text x="121" y="373" style="stroke-width:0;stroke:none;fill:rgba(51,51,51,1.0);font-size:12.8px;font-family:'Roboto Medium',sans-serif">2020-06-04</text><path  d="M 269 351
L 269 356" style="stroke-width:1;stroke:rgba(51,51,51,1.0);fill:none"/><text x="236" y="373" style="stroke-width:0;stroke:none;fill:rgba(51,51,51,1.0);font-size:12.8px;font-family:'Roboto Medium',sans-serif">2020-09-11</text><path  d="M 385 351
L 385 356" style="stroke-width:1;stroke:rgba(51,51,51,1.0);fill:none"/><text x="352" y="373" style="stroke-width:0;stroke:none;fill:rgba(51,51,51,1.0);font-size:12.8px;font-family:'Roboto Medium',sans-serif">2020-12-20</text><path  d="M 500 351
L 500 356" style="stroke-width:1;stroke:rgba(51,51,51,1.0);fill:none"/><text x="467" y="373" style="stroke-width:0;stroke:none;fill:rgba(51,51,51,1.0);font-size:12.8px;font-family:'Roboto Medium',sans-serif">2021-03-29</text><path  d="M 615 351
L 615 356" style="stroke-width:1;stroke:rgba(51,51,51,1.0);fill:none"/><text x="582" y="373" style="stroke-width:0;stroke:none;fill:rgba(51,51,51,1.0);font-size:12.8px;font-family:'Roboto Medium',sans-serif">2021-07-06</text><path  d="M 731 351
L 731 356" style="stroke-width:1;stroke:rgba(51,51,51,1.0);fill:none"/><text x="698" y="373" style="stroke-width:0;stroke:none;fill:rgba(51,51,51,1.0);font-size:12.8px;font-family:'Roboto Medium',sans-serif">2021-10-14</text><path  d="M 846 351
L 846 356" style="stroke-width:1;stroke:rgba(51,51,51,1.0);fill:none"/><text x="813" y="373" style="stroke-width:0;stroke:none;fill:rgba(51,51,51,1.0);font-size:12.8px;font-family:'Roboto Medium',sans-serif">2022-01-21</text><path  d="M 961 351
L 961 356" style="stroke-width:1;stroke:rgba(51,51,51,1.0);fill:none"/><text x="928" y="373" style="stroke-width:0;stroke:none;fill:rgba(51,51,51,1.0);font-size:12.8px;font-family:'Roboto Medium',sans-serif">2022-05-01</text><text x="481" y="395" style="stroke-width:0;stroke:none;fill:rgba(51,51,51,1.0);font-size:12.8px;font-family:'Roboto Medium',sans-serif">Datum</text><path  d="M 962 351
L 962 11" style="stroke-width:1;stroke:rgba(51,51,51,1.0);fill:none"/><path  d="M 962 351
L 967 351" style="stroke-width:1;stroke:rgba(51,51,51,1.0);fill:none"/><text x="972" y="357" style="stroke-width:0;stroke:none;fill:rgba(51,51,51,1.0);font-size:12.8px;font-family:'Roboto Medium',sans-serif">0.00</text><path  d="M 962 308
L 967 308" style="stroke-width:1;stroke:rgba(51,51,51,1.0);fill:none"/><text x="972" y="314" style="stroke-width:0;stroke:none;fill:rgba(51,51,51,1.0);font-size:12.8px;font-family:'Roboto Medium',sans-serif">490.00</text><path  d="M 962 265
L 967 265" style="stroke-width:1;stroke:rgba(51,51,51,1.0);fill:none"/><text x="972" y="271" style="stroke-width:0;stroke:none;fill:rgba(51,51,51,1.0);font-size:12.8px;font-family:'Roboto Medium',sans-serif">980.00</text><path  d="M 962 222
L 967 222" style="stroke-width:1;stroke:rgba(51,51,51,1.0);fill:none"/><text x="972" y="228" style="stroke-width:0;stroke:none;fill:rgba(51,51,51,1.0);font-size:12.8px;font-family:'Roboto Medium',sans-serif">1470.00</text><path  d="M 962 181
L 967 181" style="stroke-width:1;stroke:rgba(51,51,51,1.0);fill:none"/><text x="972" y="187" style="stroke-width:0;stroke:none;fill:rgba(51,51,51,1.0);font-size:12.8px;font-family:'Roboto Medium',sans-serif">1950.00</text><path  d="M 962 138
L 967 138" style="stroke-width:1;stroke:rgba(51,51,51,1.0);fill:none"/><text x="972" y="144" style="stroke-width:0;stroke:none;fill:rgba(51,51,51,1.0);font-size:12.8px;font-family:'Roboto Medium',sans-serif">2440.00</text><path  d="M 962 95
L 967 95" style="stroke-width:1;stroke:rgba(51,51,51,1.0);fill:none"/><text x="972" y="101" style="stroke-width:0;stroke:none;fill:rgba(51,51,51,1.0);font-size:12.8px;font-family:'Roboto Medium',sans-serif">2930.00</text><path  d="M 962 52
L 967 52" style="stroke-width:1;stroke:rgba(51,51,51,1.0);fill:none"/><text x="972" y="58" style="stroke-width:0;stroke:none;fill:rgba(51,51,51,1.0);font-size:12.8px;font-family:'Roboto Medium',sans-serif">3420.00</text><path  d="M 962 11
L 967 11" style="stroke-width:1;stroke:rgba(51,51,51,1.0);fill:none"/><text x="972" y="17" style="stroke-width:0;stroke:none;fill:rgba(51,51,51,1.0);font-size:12.8px;font-family:'Roboto Medium',sans-serif">3900.00</text><path  d="M 38 351
L 40 351
L 41 351
L 42 351
L 43 351
L 44 351
L 45 351
L 47 350
L 48 350
L 49 350
L 50 350
L 51 350
L 52 350
L 54 350
L 55 351
L 56 351
L 57 351
L 58 350
L 59 350
L 61 350
L 62 350
L 63 349
L 64 347
L 65 345
L 66 343
L 68 338
L 69 337
L 70 333
L 71 331
L 72 328
L 73 328
L 74 327
L 76 331
L 77 330
L 78 332
L 79 334
L 80 339
L 81 339
L 83 342
L 84 344
L 85 345
L 86 345
L 87 346
L 88 346
L 90 346
L 91 346
L 92 346
L 93 347
L 94 348
L 95 348
L 97 349
L 98 349
L 99 350
L 100 350
L 101 350
L 102 350
L 104 350
L 105 350
L 106 350
L 107 350
L 108 350
L 109 350
L 110 350
L 112 350
L 113 350
L 114 350
L 115 350
L 116 350
L 117 350
L 119 350
L 120 350
L 121 350
L 122 350
L 123 351
L 124 351
L 126 351
L 127 351
L 128 351
L 129 351
L 130 351
L 131 351
L 133 351
L 134 351
L 135 351
L 136 351
L 137 351
L 138 351
L 140 351
L 141 351
L 142 351
L 143 351
L 144 351
L 145 351
L 146 351
L 148 351
L 149 351
L 150 351
L 151 351
L 152 351
L 153 351
L 155 351
L 156 351
L 157 351
L 158 351
L 159 351
L 160 351
L 162 351
L 163 351
L 164 351
L 165 351
L 166 351
L 167 351
L 169 351
L 170 351
L 171 350
L 172 350
L 173 350
L 174 350
L 175 350
L 177 350
L 178 350
L 179 350
L 180 350
L 181 350
L 182 350
L 184 350
L 185 350
L 186 350
L 187 350
L 188 350
L 189 351
L 191 351
L 192 350
L 193 350
L 194 350
L 195 350
L 196 350
L 198 350
L 199 350
L 200 350
L 201 350
L 202 350
L 203 350
L 205 350
L 206 350
L 207 350
L 208 350
L 209 350
L 210 350
L 211 350
L 213 350
L 214 350
L 215 350
L 216 350
L 217 350
L 218 349
L 220 349
L 221 350
L 222 350
L 223 350
L 224 350
L 225 350
L 227 350
L 228 350
L 229 350
L 230 350
L 231 350
L 232 350
L 234 350
L 235 350
L 236 350
L 237 350
L 238 350
L 239 350
L 241 350
L 242 350
L 243 350
L 244 350
L 245 350
L 246 350
L 247 350
L 249 350
L 250 350
L 251 350
L 252 350
L 253 350
L 254 350
L 256 350
L 257 350
L 258 350
L 259 350
L 260 350
L 261 350
L 263 350
L 264 350
L 265 350
L 266 350
L 267 349
L 268 350
L 270 349
L 271 349
L 272 350
L 273 349
L 274 349
L 275 348
L 277 348
L 278 347
L 279 347
L 280 346
L 281 346
L 282 346
L 283 346
L 285 346
L 286 347
L 287 347
L 288 348
L 289 347
L 290 348
L 292 348
L 293 347
L 294 347
L 295 347
L 296 347
L 297 347
L 299 346
L 300 345
L 301 343
L 302 343
L 303 343
L 304 340
L 306 338
L 307 337
L 308 335
L 309 336
L 310 332
L 311 332
L 312 331
L 314 328
L 315 325
L 316 325
L 317 321
L 318 321
L 319 312
L 321 313
L 322 312
L 323 311
L 324 304
L 325 302
L 326 298
L 328 300
L 329 294
L 330 294
L 331 288
L 332 282
L 333 276
L 335 276
L 336 276
L 337 273
L 338 273
L 339 269
L 340 269
L 342 275
L 343 278
L 344 273
L 345 272
L 346 272
L 347 278
L 348 283
L 350 281
L 351 273
L 352 286
L 353 288
L 354 289
L 355 288
L 357 292
L 358 297
L 359 304
L 360 304
L 361 307
L 362 306
L 364 310
L 365 312
L 366 312
L 367 316
L 368 314
L 369 316
L 371 320
L 372 322
L 373 326
L 374 323
L 375 323
L 376 322
L 378 320
L 379 321
L 380 324
L 381 324
L 382 329
L 383 330
L 384 330
L 386 333
L 387 332
L 388 328
L 389 327
L 390 327
L 391 327
L 393 325
L 394 325
L 395 322
L 396 324
L 397 321
L 398 320
L 400 318
L 401 317
L 402 318
L 403 319
L 404 319
L 405 320
L 407 319
L 408 319
L 409 322
L 410 320
L 411 320
L 412 319
L 414 321
L 415 322
L 416 322
L 417 322
L 418 324
L 419 327
L 420 330
L 422 329
L 423 326
L 424 325
L 425 326
L 426 325
L 427 325
L 429 324
L 430 326
L 431 329
L 432 329
L 433 327
L 434 330
L 436 328
L 437 328
L 438 328
L 439 329
L 440 331
L 441 331
L 443 330
L 444 332
L 445 332
L 446 330
L 447 331
L 448 329
L 449 332
L 451 332
L 452 332
L 453 330
L 454 331
L 455 330
L 456 331
L 458 329
L 459 329
L 460 326
L 461 325
L 462 321
L 463 315
L 465 314
L 466 314
L 467 309
L 468 310
L 469 308
L 470 308
L 472 312
L 473 312
L 474 311
L 475 313
L 476 309
L 477 310
L 479 311
L 480 309
L 481 309
L 482 309
L 483 311
L 484 313
L 485 313
L 487 313
L 488 312
L 489 314
L 490 313
L 491 314
L 492 314
L 494 318
L 495 322
L 496 327
L 497 327
L 498 330
L 499 330
L 501 333
L 502 335
L 503 333
L 504 330
L 505 330
L 506 331
L 508 331
L 509 332
L 510 332
L 511 335
L 512 338
L 513 338
L 515 339
L 516 339
L 517 339
L 518 338
L 519 338
L 520 337
L 521 337
L 523 336
L 524 333
L 525 335
L 526 336
L 527 335
L 528 336
L 530 336
L 531 336
L 532 337
L 533 336
L 534 337
L 535 337
L 537 336
L 538 336
L 539 337
L 540 339
L 541 339
L 542 340
L 544 340
L 545 341
L 546 341
L 547 342
L 548 342
L 549 343
L 551 343
L 552 344
L 553 344
L 554 345
L 555 344
L 556 345
L 557 345
L 559 345
L 560 345
L 561 346
L 562 346
L 563 347
L 564 347
L 566 348
L 567 348
L 568 348
L 569 348
L 570 348
L 571 348
L 573 348
L 574 348
L 575 348
L 576 348
L 577 348
L 578 348
L 580 349
L 581 349
L 582 349
L 583 349
L 584 350
L 585 350
L 586 350
L 588 350
L 589 350
L 590 350
L 591 350
L 592 350
L 593 350
L 595 350
L 596 350
L 597 351
L 598 351
L 599 351
L 600 351
L 602 351
L 603 351
L 604 351
L 605 351
L 606 351
L 607 351
L 609 351
L 610 351
L 611 351
L 612 351
L 613 351
L 614 351
L 616 351
L 617 351
L 618 350
L 619 350
L 620 350
L 621 350
L 622 350
L 624 350
L 625 349
L 626 346
L 627 344
L 628 344
L 629 342
L 631 341
L 632 339
L 633 339
L 634 342
L 635 342
L 636 342
L 638 344
L 639 343
L 640 345
L 641 345
L 642 344
L 643 345
L 645 345
L 646 345
L 647 346
L 648 345
L 649 345
L 650 344
L 652 343
L 653 344
L 654 343
L 655 343
L 656 343
L 657 343
L 658 344
L 660 345
L 661 345
L 662 345
L 663 344
L 664 345
L 665 344
L 667 344
L 668 344
L 669 344
L 670 344
L 671 344
L 672 343
L 674 344
L 675 345
L 676 343
L 677 343
L 678 341
L 679 340
L 681 340
L 682 338
L 683 337
L 684 337
L 685 337
L 686 338
L 688 338
L 689 338
L 690 336
L 691 336
L 692 336
L 693 336
L 694 336
L 696 338
L 697 334
L 698 336
L 699 336
L 700 338
L 701 338
L 703 337
L 704 338
L 705 341
L 706 342
L 707 343
L 708 343
L 710 343
L 711 344
L 712 341
L 713 342
L 714 342
L 715 343
L 717 342
L 718 342
L 719 340
L 720 342
L 721 342
L 722 342
L 723 342
L 725 342
L 726 341
L 727 342
L 728 341
L 729 340
L 730 338
L 732 338
L 733 334
L 734 332
L 735 330
L 736 326
L 737 321
L 739 318
L 740 315
L 741 315
L 742 316
L 743 314
L 744 313
L 746 312
L 747 309
L 748 306
L 749 300
L 750 295
L 751 293
L 753 290
L 754 286
L 755 285
L 756 281
L 757 281
L 758 276
L 759 277
L 761 277
L 762 266
L 763 259
L 764 256
L 765 254
L 766 249
L 768 241
L 769 226
L 770 221
L 771 221
L 772 210
L 773 205
L 775 211
L 776 213
L 777 222
L 778 225
L 779 226
L 780 239
L 782 243
L 783 245
L 784 249
L 785 254
L 786 265
L 787 272
L 789 279
L 790 289
L 791 292
L 792 295
L 793 303
L 794 307
L 795 313
L 797 317
L 798 317
L 799 320
L 800 325
L 801 324
L 802 330
L 804 330
L 805 332
L 806 334
L 807 336
L 808 336
L 809 340
L 811 339
L 812 339
L 813 340
L 814 341
L 815 339
L 816 339
L 818 335
L 819 330
L 820 317
L 821 297
L 822 279
L 823 270
L 825 248
L 826 201
L 827 158
L 828 125
L 829 120
L 830 96
L 831 64
L 833 46
L 834 43
L 835 32
L 836 32
L 837 20
L 838 16
L 840 27
L 841 34
L 842 37
L 843 41
L 844 32
L 845 25
L 847 37
L 848 37
L 849 36
L 850 40
L 851 50
L 852 64
L 854 74
L 855 80
L 856 80
L 857 87
L 858 95
L 859 108
L 860 114
L 862 112
L 863 121
L 864 126
L 865 132
L 866 133
L 867 141
L 869 140
L 870 155
L 871 161
L 872 165
L 873 170
L 874 182
L 876 187
L 877 198
L 878 191
L 879 190
L 880 193
L 881 190
L 883 187
L 884 178
L 885 180
L 886 185
L 887 191
L 888 195
L 890 190
L 891 186
L 892 193
L 893 186
L 894 181
L 895 172
L 896 170
L 898 165
L 899 152
L 900 145
L 901 135
L 902 127
L 903 120
L 905 112
L 906 110
L 907 104
L 908 95
L 909 97
L 910 101
L 912 110
L 913 106
L 914 107
L 915 117
L 916 123
L 917 134
L 919 139
L 920 142
L 921 158
L 922 162
L 923 175
L 924 193
L 926 198
L 927 209
L 928 210
L 929 212
L 930 227
L 931 242
L 932 252
L 934 264
L 935 272
L 936 280
L 937 288
L 938 292
L 939 302
L 941 307
L 942 313
L 943 318
L 944 321
L 945 322
L 946 326
L 948 328
L 949 327
L 950 327
L 951 326
L 952 326
L 953 326
L 955 325
L 956 325
L 957 327
L 958 329
L 959 329
L 960 330
L 961 333" style="stroke-width:1;stroke:rgba(0,116,217,1.0);fill:none"/><path  d="M 38 351
L 40 351
L 41 351
L 42 351
L 43 351
L 44 351
L 45 351
L 47 350
L 48 351
L 49 351
L 50 351
L 51 351
L 52 351
L 54 351
L 55 351
L 56 351
L 57 351
L 58 350
L 59 350
L 61 351
L 62 350
L 63 350
L 64 348
L 65 349
L 66 348
L 68 346
L 69 350
L 70 348
L 71 348
L 72 346
L 73 350
L 74 348
L 76 349
L 77 349
L 78 349
L 79 349
L 80 350
L 81 350
L 83 350
L 84 350
L 85 350
L 86 350
L 87 350
L 88 350
L 90 350
L 91 350
L 92 350
L 93 351
L 94 351
L 95 350
L 97 351
L 98 350
L 99 351
L 100 351
L 101 351
L 102 351
L 104 351
L 105 350
L 106 351
L 107 351
L 108 350
L 109 351
L 110 351
L 112 351
L 113 351
L 114 351
L 115 350
L 116 351
L 117 351
L 119 351
L 120 351
L 121 351
L 122 351
L 123 351
L 124 351
L 126 351
L 127 351
L 128 351
L 129 351
L 130 351
L 131 351
L 133 351
L 134 351
L 135 351
L 136 351
L 137 351
L 138 351
L 140 351
L 141 351
L 142 351
L 143 351
L 144 351
L 145 351
L 146 351
L 148 351
L 149 351
L 150 351
L 151 351
L 152 351
L 153 351
L 155 351
L 156 351
L 157 351
L 158 351
L 159 351
L 160 351
L 162 351
L 163 351
L 164 351
L 165 351
L 166 351
L 167 351
L 169 351
L 170 351
L 171 350
L 172 351
L 173 351
L 174 351
L 175 350
L 177 351
L 178 351
L 179 351
L 180 351
L 181 350
L 182 351
L 184 351
L 185 351
L 186 351
L 187 351
L 188 351
L 189 351
L 191 351
L 192 350
L 193 350
L 194 350
L 195 350
L 196 350
L 198 351
L 199 350
L 200 350
L 201 351
L 202 351
L 203 350
L 205 350
L 206 351
L 207 350
L 208 351
L 209 351
L 210 351
L 211 350
L 213 350
L 214 351
L 215 351
L 216 351
L 217 350
L 218 350
L 220 351
L 221 351
L 222 351
L 223 351
L 224 351
L 225 351
L 227 350
L 228 350
L 229 351
L 230 351
L 231 351
L 232 351
L 234 351
L 235 350
L 236 350
L 237 351
L 238 351
L 239 350
L 241 350
L 242 350
L 243 351
L 244 350
L 245 350
L 246 351
L 247 350
L 249 351
L 250 350
L 251 350
L 252 350
L 253 350
L 254 351
L 256 350
L 257 350
L 258 351
L 259 351
L 260 350
L 261 351
L 263 351
L 264 350
L 265 351
L 266 350
L 267 350
L 268 350
L 270 350
L 271 351
L 272 351
L 273 350
L 274 350
L 275 350
L 277 350
L 278 350
L 279 350
L 280 350
L 281 350
L 282 350
L 283 350
L 285 350
L 286 350
L 287 350
L 288 350
L 289 350
L 290 350
L 292 350
L 293 350
L 294 350
L 295 350
L 296 350
L 297 350
L 299 349
L 300 350
L 301 348
L 302 350
L 303 350
L 304 348
L 306 349
L 307 348
L 308 347
L 309 349
L 310 347
L 311 349
L 312 347
L 314 347
L 315 346
L 316 347
L 317 346
L 318 347
L 319 342
L 321 348
L 322 345
L 323 346
L 324 342
L 325 344
L 326 344
L 328 344
L 329 343
L 330 345
L 331 341
L 332 336
L 333 340
L 335 344
L 336 343
L 337 341
L 338 345
L 339 338
L 340 337
L 342 345
L 343 346
L 344 339
L 345 341
L 346 345
L 347 342
L 348 341
L 350 343
L 351 339
L 352 350
L 353 343
L 354 345
L 355 341
L 357 344
L 358 347
L 359 345
L 360 350
L 361 345
L 362 344
L 364 345
L 365 346
L 366 347
L 367 349
L 368 349
L 369 346
L 371 347
L 372 347
L 373 349
L 374 345
L 375 348
L 376 349
L 378 344
L 379 348
L 380 349
L 381 349
L 382 348
L 383 349
L 384 349
L 386 346
L 387 347
L 388 345
L 389 348
L 390 349
L 391 349
L 393 348
L 394 346
L 395 345
L 396 347
L 397 345
L 398 348
L 400 347
L 401 347
L 402 347
L 403 346
L 404 347
L 405 347
L 407 347
L 408 348
L 409 349
L 410 346
L 411 345
L 412 346
L 414 348
L 415 347
L 416 348
L 417 349
L 418 348
L 419 347
L 420 349
L 422 347
L 423 345
L 424 348
L 425 349
L 426 347
L 427 347
L 429 348
L 430 349
L 431 347
L 432 348
L 433 348
L 434 349
L 436 346
L 437 348
L 438 349
L 439 348
L 440 349
L 441 348
L 443 348
L 444 348
L 445 348
L 446 347
L 447 349
L 448 348
L 449 350
L 451 348
L 452 348
L 453 346
L 454 348
L 455 348
L 456 349
L 458 348
L 459 348
L 460 346
L 461 346
L 462 345
L 463 343
L 465 348
L 466 348
L 467 345
L 468 347
L 469 344
L 470 345
L 472 346
L 473 348
L 474 346
L 475 347
L 476 343
L 477 345
L 479 346
L 480 345
L 481 348
L 482 347
L 483 348
L 484 345
L 485 345
L 487 346
L 488 344
L 489 349
L 490 346
L 491 349
L 492 345
L 494 348
L 495 349
L 496 349
L 497 349
L 498 348
L 499 349
L 501 348
L 502 349
L 503 347
L 504 346
L 505 350
L 506 349
L 508 349
L 509 348
L 510 349
L 511 350
L 512 349
L 513 350
L 515 350
L 516 349
L 517 348
L 518 348
L 519 350
L 520 348
L 521 349
L 523 349
L 524 347
L 525 350
L 526 348
L 527 348
L 528 349
L 530 350
L 531 349
L 532 348
L 533 349
L 534 349
L 535 349
L 537 348
L 538 350
L 539 350
L 540 349
L 541 349
L 542 350
L 544 349
L 545 349
L 546 350
L 547 350
L 548 350
L 549 349
L 551 350
L 552 350
L 553 350
L 554 350
L 555 349
L 556 351
L 557 350
L 559 350
L 560 350
L 561 350
L 562 350
L 563 350
L 564 351
L 566 350
L 567 350
L 568 350
L 569 350
L 570 350
L 571 350
L 573 350
L 574 350
L 575 350
L 576 350
L 577 350
L 578 350
L 580 351
L 581 350
L 582 350
L 583 351
L 584 351
L 585 351
L 586 351
L 588 351
L 589 350
L 590 351
L 591 351
L 592 351
L 593 351
L 595 351
L 596 351
L 597 351
L 598 351
L 599 351
L 600 351
L 602 351
L 603 351
L 604 351
L 605 351
L 606 351
L 607 351
L 609 351
L 610 351
L 611 351
L 612 351
L 613 351
L 614 351
L 616 351
L 617 351
L 618 350
L 619 351
L 620 351
L 621 351
L 622 350
L 624 350
L 625 350
L 626 347
L 627 349
L 628 350
L 629 349
L 631 350
L 632 348
L 633 349
L 634 350
L 635 349
L 636 350
L 638 350
L 639 349
L 640 350
L 641 350
L 642 350
L 643 350
L 645 350
L 646 351
L 647 350
L 648 350
L 649 350
L 650 349
L 652 349
L 653 350
L 654 350
L 655 350
L 656 349
L 657 350
L 658 350
L 660 350
L 661 350
L 662 350
L 663 349
L 664 350
L 665 349
L 667 350
L 668 350
L 669 351
L 670 350
L 671 349
L 672 350
L 674 350
L 675 350
L 676 348
L 677 350
L 678 348
L 679 348
L 681 350
L 682 348
L 683 350
L 684 348
L 685 351
L 686 349
L 688 348
L 689 350
L 690 347
L 691 349
L 692 348
L 693 351
L 694 350
L 696 349
L 697 346
L 698 349
L 699 349
L 700 350
L 701 350
L 703 349
L 704 350
L 705 349
L 706 350
L 707 349
L 708 350
L 710 350
L 711 350
L 712 348
L 713 350
L 714 350
L 715 350
L 717 350
L 718 350
L 719 349
L 720 349
L 721 349
L 722 350
L 723 349
L 725 350
L 726 349
L 727 349
L 728 348
L 729 349
L 730 348
L 732 349
L 733 346
L 734 348
L 735 348
L 736 345
L 737 345
L 739 346
L 740 347
L 741 346
L 742 348
L 743 346
L 744 345
L 746 344
L 747 344
L 748 344
L 749 342
L 750 344
L 751 344
L 753 342
L 754 341
L 755 343
L 756 340
L 757 342
L 758 340
L 759 345
L 761 342
L 762 332
L 763 338
L 764 337
L 765 340
L 766 336
L 768 339
L 769 329
L 770 329
L 771 337
L 772 328
L 773 336
L 775 342
L 776 340
L 777 336
L 778 332
L 779 338
L 780 339
L 782 339
L 783 344
L 784 344
L 785 340
L 786 341
L 787 344
L 789 344
L 790 348
L 791 346
L 792 346
L 793 347
L 794 344
L 795 349
L 797 347
L 798 348
L 799 348
L 800 350
L 801 346
L 802 349
L 804 349
L 805 349
L 806 349
L 807 350
L 808 350
L 809 349
L 811 348
L 812 350
L 813 350
L 814 349
L 815 349
L 816 349
L 818 346
L 819 344
L 820 339
L 821 334
L 822 334
L 823 341
L 825 332
L 826 307
L 827 309
L 828 312
L 829 330
L 830 315
L 831 315
L 833 317
L 834 305
L 835 299
L 836 313
L 837 320
L 838 311
L 840 324
L 841 323
L 842 308
L 843 302
L 844 305
L 845 315
L 847 321
L 848 324
L 849 322
L 850 311
L 851 310
L 852 317
L 854 323
L 855 325
L 856 324
L 857 329
L 858 317
L 859 321
L 860 321
L 862 322
L 863 333
L 864 328
L 865 333
L 866 318
L 867 327
L 869 321
L 870 334
L 871 338
L 872 330
L 873 337
L 874 328
L 876 332
L 877 330
L 878 328
L 879 337
L 880 333
L 881 335
L 883 325
L 884 325
L 885 331
L 886 332
L 887 342
L 888 336
L 890 331
L 891 323
L 892 330
L 893 325
L 894 328
L 895 334
L 896 335
L 898 327
L 899 312
L 900 325
L 901 317
L 902 322
L 903 328
L 905 329
L 906 326
L 907 307
L 908 317
L 909 319
L 910 326
L 912 336
L 913 326
L 914 326
L 915 316
L 916 321
L 917 328
L 919 330
L 920 338
L 921 339
L 922 330
L 923 326
L 924 335
L 926 332
L 927 339
L 928 339
L 929 340
L 930 342
L 931 338
L 932 343
L 934 343
L 935 345
L 936 346
L 937 347
L 938 345
L 939 346
L 941 346
L 942 348
L 943 348
L 944 348
L 945 348
L 946 348
L 948 348
L 949 346
L 950 348
L 951 348
L 952 348
L 953 348
L 955 347
L 956 348
L 957 348
L 958 349
L 959 348
L 960 349
L 961 350" style="stroke-width:1;stroke:rgba(0,217,101,1.0);fill:none"/><path  d="M 38 351
L 40 351
L 41 351
L 42 351
L 43 351
L 44 351
L 45 351
L 47 351
L 48 351
L 49 351
L 50 351
L 51 351
L 52 351
L 54 351
L 55 351
L 56 351
L 57 351
L 58 351
L 59 351
L 61 351
L 62 351
L 63 351
L 64 351
L 65 351
L 66 351
L 68 351
L 69 351
L 70 351
L 71 351
L 72 351
L 73 350
L 74 350
L 76 350
L 77 351
L 78 350
L 79 350
L 80 351
L 81 351
L 83 350
L 84 350
L 85 351
L 86 351
L 87 351
L 88 350
L 90 350
L 91 351
L 92 351
L 93 351
L 94 351
L 95 351
L 97 351
L 98 351
L 99 351
L 100 350
L 101 351
L 102 350
L 104 351
L 105 351
L 106 350
L 107 351
L 108 351
L 109 351
L 110 350
L 112 351
L 113 351
L 114 351
L 115 351
L 116 350
L 117 351
L 119 351
L 120 351
L 121 351
L 122 351
L 123 351
L 124 351
L 126 351
L 127 351
L 128 351
L 129 351
L 130 351
L 131 351
L 133 351
L 134 351
L 135 350
L 136 351
L 137 351
L 138 351
L 140 351
L 141 351
L 142 351
L 143 351
L 144 351
L 145 351
L 146 351
L 148 351
L 149 351
L 150 351
L 151 351
L 152 351
L 153 351
L 155 351
L 156 351
L 157 351
L 158 351
L 159 351
L 160 351
L 162 351
L 163 351
L 164 351
L 165 351
L 166 351
L 167 350
L 169 351
L 170 351
L 171 351
L 172 351
L 173 351
L 174 351
L 175 351
L 177 351
L 178 351
L 179 351
L 180 351
L 181 351
L 182 351
L 184 351
L 185 351
L 186 351
L 187 351
L 188 351
L 189 351
L 191 351
L 192 351
L 193 351
L 194 351
L 195 351
L 196 351
L 198 351
L 199 351
L 200 351
L 201 351
L 202 351
L 203 351
L 205 351
L 206 351
L 207 351
L 208 351
L 209 351
L 210 351
L 211 351
L 213 351
L 214 351
L 215 351
L 216 351
L 217 351
L 218 351
L 220 351
L 221 351
L 222 351
L 223 351
L 224 351
L 225 351
L 227 351
L 228 351
L 229 351
L 230 351
L 231 351
L 232 351
L 234 351
L 235 351
L 236 351
L 237 351
L 238 351
L 239 351
L 241 351
L 242 351
L 243 351
L 244 351
L 245 351
L 246 351
L 247 351
L 249 351
L 250 351
L 251 351
L 252 351
L 253 351
L 254 351
L 256 351
L 257 351
L 258 351
L 259 351
L 260 351
L 261 351
L 263 351
L 264 351
L 265 351
L 266 351
L 267 351
L 268 351
L 270 350
L 271 351
L 272 351
L 273 351
L 274 351
L 275 351
L 277 351
L 278 351
L 279 351
L 280 351
L 281 351
L 282 351
L 283 351
L 285 351
L 286 351
L 287 351
L 288 351
L 289 351
L 290 351
L 292 351
L 293 351
L 294 351
L 295 351
L 296 351
L 297 351
L 299 351
L 300 351
L 301 351
L 302 351
L 303 351
L 304 351
L 306 351
L 307 351
L 308 351
L 309 351
L 310 351
L 311 351
L 312 351
L 314 351
L 315 351
L 316 351
L 317 351
L 318 351
L 319 351
L 321 351
L 322 351
L 323 351
L 324 351
L 325 351
L 326 351
L 328 350
L 329 351
L 330 351
L 331 350
L 332 350
L 333 351
L 335 351
L 336 351
L 337 350
L 338 351
L 339 350
L 340 350
L 342 350
L 343 350
L 344 350
L 345 350
L 346 350
L 347 350
L 348 350
L 350 350
L 351 350
L 352 350
L 353 351
L 354 350
L 355 350
L 357 350
L 358 351
L 359 350
L 360 350
L 361 350
L 362 350
L 364 351
L 365 351
L 366 350
L 367 350
L 368 350
L 369 350
L 371 350
L 372 350
L 373 350
L 374 350
L 375 350
L 376 351
L 378 350
L 379 350
L 380 351
L 381 351
L 382 351
L 383 351
L 384 350
L 386 351
L 387 351
L 388 350
L 389 350
L 390 351
L 391 350
L 393 351
L 394 351
L 395 351
L 396 351
L 397 350
L 398 351
L 400 351
L 401 350
L 402 351
L 403 351
L 404 351
L 405 351
L 407 350
L 408 351
L 409 351
L 410 351
L 411 350
L 412 351
L 414 351
L 415 350
L 416 351
L 417 351
L 418 351
L 419 350
L 420 350
L 422 351
L 423 351
L 424 351
L 425 351
L 426 351
L 427 350
L 429 350
L 430 351
L 431 351
L 432 351
L 433 351
L 434 351
L 436 351
L 437 351
L 438 350
L 439 351
L 440 351
L 441 351
L 443 351
L 444 350
L 445 350
L 446 350
L 447 350
L 448 351
L 449 350
L 451 350
L 452 351
L 453 351
L 454 351
L 455 351
L 456 350
L 458 351
L 459 351
L 460 351
L 461 351
L 462 350
L 463 351
L 465 351
L 466 351
L 467 351
L 468 350
L 469 351
L 470 351
L 472 350
L 473 350
L 474 350
L 475 351
L 476 350
L 477 351
L 479 351
L 480 350
L 481 350
L 482 351
L 483 350
L 484 351
L 485 350
L 487 351
L 488 351
L 489 351
L 490 351
L 491 350
L 492 351
L 494 350
L 495 350
L 496 350
L 497 351
L 498 351
L 499 351
L 501 351
L 502 351
L 503 351
L 504 351
L 505 350
L 506 351
L 508 351
L 509 351
L 510 351
L 511 351
L 512 350
L 513 351
L 515 351
L 516 351
L 517 351
L 518 350
L 519 351
L 520 351
L 521 350
L 523 351
L 524 351
L 525 351
L 526 351
L 527 351
L 528 351
L 530 351
L 531 350
L 532 351
L 533 351
L 534 351
L 535 351
L 537 351
L 538 350
L 539 351
L 540 351
L 541 351
L 542 350
L 544 350
L 545 351
L 546 351
L 547 351
L 548 351
L 549 351
L 551 351
L 552 351
L 553 351
L 554 351
L 555 351
L 556 351
L 557 351
L 559 351
L 560 351
L 561 351
L 562 351
L 563 351
L 564 351
L 566 351
L 567 351
L 568 351
L 569 351
L 570 351
L 571 351
L 573 351
L 574 350
L 575 351
L 576 351
L 577 351
L 578 351
L 580 351
L 581 351
L 582 351
L 583 351
L 584 351
L 585 351
L 586 351
L 588 351
L 589 351
L 590 351
L 591 351
L 592 351
L 593 351
L 595 351
L 596 351
L 597 351
L 598 351
L 599 351
L 600 351
L 602 351
L 603 351
L 604 351
L 605 351
L 606 351
L 607 351
L 609 351
L 610 351
L 611 351
L 612 351
L 613 351
L 614 351
L 616 351
L 617 351
L 618 351
L 619 351
L 620 351
L 621 351
L 622 351
L 624 351
L 625 351
L 626 351
L 627 351
L 628 351
L 629 351
L 631 351
L 632 351
L 633 351
L 634 351
L 635 351
L 636 351
L 638 351
L 639 351
L 640 351
L 641 351
L 642 351
L 643 351
L 645 351
L 646 351
L 647 351
L 648 351
L 649 351
L 650 351
L 652 351
L 653 351
L 654 351
L 655 351
L 656 351
L 657 351
L 658 351
L 660 351
L 661 351
L 662 351
L 663 351
L 664 351
L 665 351
L 667 351
L 668 351
L 669 351
L 670 351
L 671 351
L 672 351
L 674 351
L 675 351
L 676 351
L 677 351
L 678 351
L 679 351
L 681 351
L 682 351
L 683 351
L 684 351
L 685 351
L 686 351
L 688 351
L 689 351
L 690 351
L 691 351
L 692 351
L 693 351
L 694 351
L 696 351
L 697 351
L 698 351
L 699 351
L 700 351
L 701 351
L 703 351
L 704 351
L 705 351
L 706 351
L 707 351
L 708 351
L 710 350
L 711 351
L 712 351
L 713 351
L 714 351
L 715 351
L 717 351
L 718 351
L 719 351
L 720 351
L 721 351
L 722 351
L 723 351
L 725 351
L 726 351
L 727 351
L 728 351
L 729 351
L 730 351
L 732 351
L 733 351
L 734 351
L 735 351
L 736 350
L 737 351
L 739 351
L 740 351
L 741 351
L 742 350
L 743 351
L 744 350
L 746 350
L 747 351
L 748 351
L 749 351
L 750 350
L 751 351
L 753 351
L 754 351
L 755 351
L 756 351
L 757 350
L 758 350
L 759 351
L 761 351
L 762 351
L 763 350
L 764 351
L 765 350
L 766 350
L 768 350
L 769 350
L 770 351
L 771 351
L 772 350
L 773 351
L 775 350
L 776 351
L 777 350
L 778 351
L 779 351
L 780 350
L 782 350
L 783 351
L 784 351
L 785 351
L 786 350
L 787 350
L 789 351
L 790 351
L 791 350
L 792 350
L 793 350
L 794 350
L 795 351
L 797 351
L 798 351
L 799 351
L 800 351
L 801 351
L 802 351
L 804 351
L 805 350
L 806 351
L 807 350
L 808 350
L 809 351
L 811 351
L 812 351
L 813 351
L 814 351
L 815 351
L 816 351
L 818 351
L 819 351
L 820 351
L 821 351
L 822 351
L 823 351
L 825 351
L 826 351
L 827 351
L 828 351
L 829 351
L 830 351
L 831 351
L 833 351
L 834 351
L 835 351
L 836 351
L 837 350
L 838 351
L 840 351
L 841 351
L 842 351
L 843 351
L 844 350
L 845 351
L 847 351
L 848 351
L 849 351
L 850 351
L 851 351
L 852 351
L 854 351
L 855 351
L 856 351
L 857 351
L 858 351
L 859 350
L 860 351
L 862 351
L 863 351
L 864 350
L 865 351
L 866 351
L 867 351
L 869 351
L 870 350
L 871 351
L 872 351
L 873 351
L 874 351
L 876 351
L 877 351
L 878 351
L 879 351
L 880 351
L 881 351
L 883 351
L 884 351
L 885 351
L 886 351
L 887 351
L 888 351
L 890 351
L 891 351
L 892 351
L 893 351
L 894 351
L 895 351
L 896 351
L 898 351
L 899 351
L 900 351
L 901 351
L 902 351
L 903 350
L 905 350
L 906 351
L 907 350
L 908 351
L 909 351
L 910 351
L 912 351
L 913 351
L 914 351
L 915 351
L 916 351
L 917 351
L 919 350
L 920 351
L 921 351
L 922 351
L 923 351
L 924 350
L 926 351
L 927 350
L 928 351
L 929 351
L 930 351
L 931 351
L 932 351
L 934 351
L 935 351
L 936 351
L 937 351
L 938 350
L 939 351
L 941 351
L 942 350
L 943 350
L 944 351
L 945 350
L 946 351
L 948 351
L 949 351
L 950 351
L 951 351
L 952 351
L 953 351
L 955 351
L 956 351
L 957 351
L 958 351
L 959 351
L 960 351
L 961 351" style="stroke-width:1;stroke:rgba(217,0,116,1.0);fill:none"/><text x="322" y="33" style="stroke-width:0;stroke:none;fill:rgba(51,51,51,1.0);font-size:23.0px;font-family:'Roboto Medium',sans-serif">Sankt Johann im Pongau 01.05.2022</text><path  d="M 38 11
L 251 11
L 251 91
L 38 91
L 38 11" style="stroke-width:1;stroke:rgba(51,51,51,1.0);fill:rgba(255,255,255,1.0)"/><text x="43" y="26" style="stroke-width:0;stroke:none;fill:rgba(51,51,51,1.0);font-size:10.2px;font-family:'Roboto Medium',sans-serif">Sieben Tage Durschnitt Inzidenz Fälle</text><path  d="M 221 21
L 241 21" style="stroke-width:1;stroke:rgba(0,116,217,1.0);fill:none"/><text x="43" y="56" style="stroke-width:0;stroke:none;fill:rgba(51,51,51,1.0);font-size:10.2px;font-family:'Roboto Medium',sans-serif">Anzahl Faelle</text><path  d="M 110 51
L 241 51" style="stroke-width:1;stroke:rgba(0,217,101,1.0);fill:none"/><text x="43" y="86" style="stroke-width:0;stroke:none;fill:rgba(51,51,51,1.0);font-size:10.2px;font-family:'Roboto Medium',sans-serif">Anzahl Tot</text><path  d="M 98 81
L 241 81" style="stroke-width:1;stroke:rgba(217,0,116,1.0);fill:none"/></svg>