<svg xmlns="http://www.w3.org/2000/svg" xmlns:xlink="http://www.w3.org/1999/xlink" width="1024" height="400">\n<path  d="M 0 0
L 1024 0
L 1024 400
L 0 400
L 0 0" style="stroke-width:0;stroke:rgba(255,255,255,1.0);fill:rgba(255,255,255,1.0)"/><path  d="M 38 11
L 961 11
L 961 351
L 38 351
L 38 11" style="stroke-width:0;stroke:rgba(255,255,255,1.0);fill:rgba(255,255,255,1.0)"/><path  d="M 38 351
L 961 351" style="stroke-width:1;stroke:rgba(51,51,51,1.0);fill:none"/><path  d="M 38 351
L 38 356" style="stroke-width:1;stroke:rgba(51,51,51,1.0);fill:none"/><text x="5" y="373" style="stroke-width:0;stroke:none;fill:rgba(51,51,51,1.0);font-size:12.8px;font-family:'Roboto Medium',sans-serif">2020-02-26</text><path  d="M 154 351
L 154 356" style="stroke-width:1;stroke:rgba(51,51,51,1.0);fill:none"/><text x="121" y="373" style="stroke-width:0;stroke:none;fill:rgba(51,51,51,1.0);font-size:12.8px;font-family:'Roboto Medium',sans-serif">2020-07-08</text><path  d="M 269 351
L 269 356" style="stroke-width:1;stroke:rgba(51,51,51,1.0);fill:none"/><text x="236" y="373" style="stroke-width:0;stroke:none;fill:rgba(51,51,51,1.0);font-size:12.8px;font-family:'Roboto Medium',sans-serif">2020-11-19</text><path  d="M 385 351
L 385 356" style="stroke-width:1;stroke:rgba(51,51,51,1.0);fill:none"/><text x="352" y="373" style="stroke-width:0;stroke:none;fill:rgba(51,51,51,1.0);font-size:12.8px;font-family:'Roboto Medium',sans-serif">2021-04-01</text><path  d="M 500 351
L 500 356" style="stroke-width:1;stroke:rgba(51,51,51,1.0);fill:none"/><text x="467" y="373" style="stroke-width:0;stroke:none;fill:rgba(51,51,51,1.0);font-size:12.8px;font-family:'Roboto Medium',sans-serif">2021-08-13</text><path  d="M 615 351
L 615 356" style="stroke-width:1;stroke:rgba(51,51,51,1.0);fill:none"/><text x="582" y="373" style="stroke-width:0;stroke:none;fill:rgba(51,51,51,1.0);font-size:12.8px;font-family:'Roboto Medium',sans-serif">2021-12-25</text><path  d="M 731 351
L 731 356" style="stroke-width:1;stroke:rgba(51,51,51,1.0);fill:none"/><text x="698" y="373" style="stroke-width:0;stroke:none;fill:rgba(51,51,51,1.0);font-size:12.8px;font-family:'Roboto Medium',sans-serif">2022-05-07</text><path  d="M 846 351
L 846 356" style="stroke-width:1;stroke:rgba(51,51,51,1.0);fill:none"/><text x="813" y="373" style="stroke-width:0;stroke:none;fill:rgba(51,51,51,1.0);font-size:12.8px;font-family:'Roboto Medium',sans-serif">2022-09-18</text><path  d="M 961 351
L 961 356" style="stroke-width:1;stroke:rgba(51,51,51,1.0);fill:none"/><text x="928" y="373" style="stroke-width:0;stroke:none;fill:rgba(51,51,51,1.0);font-size:12.8px;font-family:'Roboto Medium',sans-serif">2023-01-30</text><text x="481" y="395" style="stroke-width:0;stroke:none;fill:rgba(51,51,51,1.0);font-size:12.8px;font-family:'Roboto Medium',sans-serif">Datum</text><path  d="M 962 351
L 962 11" style="stroke-width:1;stroke:rgba(51,51,51,1.0);fill:none"/><path  d="M 962 351
L 967 351" style="stroke-width:1;stroke:rgba(51,51,51,1.0);fill:none"/><text x="972" y="357" style="stroke-width:0;stroke:none;fill:rgba(51,51,51,1.0);font-size:12.8px;font-family:'Roboto Medium',sans-serif">0.00</text><path  d="M 962 308
L 967 308" style="stroke-width:1;stroke:rgba(51,51,51,1.0);fill:none"/><text x="972" y="314" style="stroke-width:0;stroke:none;fill:rgba(51,51,51,1.0);font-size:12.8px;font-family:'Roboto Medium',sans-serif">490.00</text><path  d="M 962 265
L 967 265" style="stroke-width:1;stroke:rgba(51,51,51,1.0);fill:none"/><text x="972" y="271" style="stroke-width:0;stroke:none;fill:rgba(51,51,51,1.0);font-size:12.8px;font-family:'Roboto Medium',sans-serif">980.00</text><path  d="M 962 222
L 967 222" style="stroke-width:1;stroke:rgba(51,51,51,1.0);fill:none"/><text x="972" y="228" style="stroke-width:0;stroke:none;fill:rgba(51,51,51,1.0);font-size:12.8px;font-family:'Roboto Medium',sans-serif">1470.00</text><path  d="M 962 181
L 967 181" style="stroke-width:1;stroke:rgba(51,51,51,1.0);fill:none"/><text x="972" y="187" style="stroke-width:0;stroke:none;fill:rgba(51,51,51,1.0);font-size:12.8px;font-family:'Roboto Medium',sans-serif">1950.00</text><path  d="M 962 138
L 967 138" style="stroke-width:1;stroke:rgba(51,51,51,1.0);fill:none"/><text x="972" y="144" style="stroke-width:0;stroke:none;fill:rgba(51,51,51,1.0);font-size:12.8px;font-family:'Roboto Medium',sans-serif">2440.00</text><path  d="M 962 95
L 967 95" style="stroke-width:1;stroke:rgba(51,51,51,1.0);fill:none"/><text x="972" y="101" style="stroke-width:0;stroke:none;fill:rgba(51,51,51,1.0);font-size:12.8px;font-family:'Roboto Medium',sans-serif">2930.00</text><path  d="M 962 52
L 967 52" style="stroke-width:1;stroke:rgba(51,51,51,1.0);fill:none"/><text x="972" y="58" style="stroke-width:0;stroke:none;fill:rgba(51,51,51,1.0);font-size:12.8px;font-family:'Roboto Medium',sans-serif">3420.00</text><path  d="M 962 11
L 967 11" style="stroke-width:1;stroke:rgba(51,51,51,1.0);fill:none"/><text x="972" y="17" style="stroke-width:0;stroke:none;fill:rgba(51,51,51,1.0);font-size:12.8px;font-family:'Roboto Medium',sans-serif">3900.00</text><path  d="M 38 351
L 39 351
L 40 351
L 41 351
L 42 351
L 43 351
L 44 351
L 45 350
L 45 350
L 46 350
L 47 350
L 48 350
L 49 350
L 50 350
L 51 351
L 51 351
L 52 351
L 53 350
L 54 350
L 55 350
L 56 350
L 57 350
L 57 350
L 58 350
L 59 350
L 60 351
L 61 350
L 62 347
L 63 344
L 64 338
L 64 337
L 65 334
L 66 332
L 67 331
L 68 333
L 69 334
L 70 339
L 70 340
L 71 343
L 72 344
L 73 345
L 74 345
L 75 346
L 76 346
L 76 346
L 77 346
L 78 346
L 79 347
L 80 348
L 81 348
L 82 349
L 83 349
L 83 350
L 84 350
L 85 350
L 86 350
L 87 350
L 88 350
L 89 350
L 89 350
L 90 350
L 91 350
L 92 350
L 93 350
L 94 350
L 95 350
L 95 350
L 96 350
L 97 350
L 98 350
L 99 350
L 100 350
L 101 350
L 102 351
L 102 351
L 103 351
L 104 351
L 105 351
L 106 351
L 107 351
L 108 351
L 108 351
L 109 351
L 110 351
L 111 351
L 112 351
L 113 351
L 114 351
L 114 351
L 115 351
L 116 351
L 117 351
L 118 351
L 119 351
L 120 351
L 121 351
L 121 351
L 122 351
L 123 351
L 124 351
L 125 351
L 126 351
L 127 351
L 127 351
L 128 351
L 129 351
L 130 351
L 131 351
L 132 351
L 133 351
L 133 351
L 134 351
L 135 351
L 136 351
L 137 350
L 138 350
L 139 350
L 140 350
L 140 350
L 141 350
L 142 350
L 143 350
L 144 350
L 145 350
L 146 350
L 146 350
L 147 350
L 148 350
L 149 350
L 150 350
L 151 351
L 152 351
L 152 350
L 153 350
L 154 350
L 155 350
L 156 350
L 157 350
L 158 350
L 159 350
L 159 350
L 160 350
L 161 350
L 162 350
L 163 350
L 164 350
L 165 350
L 165 350
L 166 350
L 167 350
L 168 350
L 169 350
L 170 350
L 171 350
L 171 350
L 172 349
L 173 349
L 174 350
L 175 350
L 176 350
L 177 350
L 178 350
L 178 350
L 179 350
L 180 350
L 181 350
L 182 350
L 183 350
L 184 350
L 184 350
L 185 350
L 186 350
L 187 350
L 188 350
L 189 350
L 190 350
L 190 350
L 191 350
L 192 350
L 193 350
L 194 350
L 195 350
L 196 350
L 197 350
L 197 350
L 198 350
L 199 350
L 200 350
L 201 350
L 202 350
L 203 350
L 203 350
L 204 350
L 205 350
L 206 350
L 207 350
L 208 350
L 209 349
L 209 350
L 210 349
L 211 349
L 212 350
L 213 349
L 214 349
L 215 348
L 216 348
L 216 347
L 217 347
L 218 346
L 219 346
L 220 346
L 221 346
L 222 346
L 222 347
L 223 347
L 224 348
L 225 347
L 226 348
L 227 348
L 228 347
L 228 347
L 229 347
L 230 347
L 231 347
L 232 346
L 233 346
L 234 343
L 234 343
L 235 343
L 236 340
L 237 338
L 238 337
L 239 335
L 240 336
L 241 332
L 241 332
L 242 331
L 243 328
L 244 326
L 245 325
L 246 321
L 247 321
L 247 312
L 248 314
L 249 312
L 250 311
L 251 305
L 252 302
L 253 298
L 253 300
L 254 294
L 255 294
L 256 288
L 257 282
L 258 277
L 259 277
L 260 277
L 260 274
L 261 274
L 262 270
L 263 270
L 264 275
L 265 278
L 266 273
L 266 273
L 267 272
L 268 278
L 269 283
L 270 282
L 271 273
L 272 287
L 272 289
L 273 289
L 274 288
L 275 293
L 276 297
L 277 305
L 278 305
L 279 307
L 279 306
L 280 311
L 281 312
L 282 312
L 283 316
L 284 315
L 285 316
L 285 320
L 286 322
L 287 326
L 288 323
L 289 323
L 290 323
L 291 320
L 291 321
L 292 324
L 293 324
L 294 329
L 295 330
L 296 331
L 297 333
L 298 332
L 298 328
L 299 327
L 300 328
L 301 327
L 302 325
L 303 326
L 304 323
L 304 325
L 305 321
L 306 320
L 307 318
L 308 317
L 309 318
L 310 319
L 310 319
L 311 321
L 312 320
L 313 320
L 314 323
L 315 321
L 316 320
L 317 320
L 317 322
L 318 322
L 319 322
L 320 323
L 321 325
L 322 327
L 323 330
L 323 329
L 324 326
L 325 326
L 326 326
L 327 325
L 328 326
L 329 324
L 329 326
L 330 329
L 331 329
L 332 327
L 333 330
L 334 328
L 335 329
L 336 328
L 336 329
L 337 331
L 338 331
L 339 330
L 340 332
L 341 332
L 342 331
L 342 331
L 343 330
L 344 332
L 345 332
L 346 333
L 347 330
L 348 331
L 348 330
L 349 331
L 350 329
L 351 329
L 352 326
L 353 326
L 354 322
L 355 315
L 355 315
L 356 314
L 357 310
L 358 311
L 359 309
L 360 309
L 361 313
L 361 313
L 362 311
L 363 314
L 364 309
L 365 310
L 366 311
L 367 309
L 367 309
L 368 309
L 369 311
L 370 313
L 371 313
L 372 313
L 373 313
L 374 314
L 374 314
L 375 314
L 376 315
L 377 318
L 378 322
L 379 327
L 380 327
L 380 330
L 381 330
L 382 333
L 383 335
L 384 333
L 385 330
L 386 331
L 386 331
L 387 331
L 388 332
L 389 332
L 390 335
L 391 338
L 392 338
L 393 339
L 393 339
L 394 339
L 395 338
L 396 338
L 397 337
L 398 337
L 399 336
L 399 333
L 400 336
L 401 336
L 402 335
L 403 336
L 404 336
L 405 336
L 405 337
L 406 336
L 407 337
L 408 337
L 409 336
L 410 336
L 411 337
L 411 339
L 412 339
L 413 340
L 414 340
L 415 341
L 416 341
L 417 342
L 418 343
L 418 343
L 419 343
L 420 344
L 421 344
L 422 345
L 423 344
L 424 345
L 424 345
L 425 346
L 426 346
L 427 346
L 428 346
L 429 347
L 430 347
L 430 348
L 431 348
L 432 348
L 433 348
L 434 348
L 435 348
L 436 348
L 437 348
L 437 348
L 438 348
L 439 348
L 440 348
L 441 349
L 442 349
L 443 349
L 443 349
L 444 350
L 445 350
L 446 350
L 447 350
L 448 350
L 449 350
L 449 350
L 450 350
L 451 350
L 452 350
L 453 350
L 454 351
L 455 351
L 456 351
L 456 351
L 457 351
L 458 351
L 459 351
L 460 351
L 461 351
L 462 351
L 462 351
L 463 351
L 464 351
L 465 351
L 466 351
L 467 351
L 468 351
L 468 351
L 469 350
L 470 350
L 471 350
L 472 350
L 473 350
L 474 350
L 475 349
L 475 346
L 476 344
L 477 344
L 478 342
L 479 341
L 480 339
L 481 339
L 481 342
L 482 342
L 483 342
L 484 344
L 485 343
L 486 345
L 487 345
L 487 344
L 488 345
L 489 345
L 490 346
L 491 346
L 492 345
L 493 345
L 494 344
L 494 343
L 495 344
L 496 343
L 497 343
L 498 343
L 499 343
L 500 344
L 500 345
L 501 345
L 502 345
L 503 344
L 504 345
L 505 344
L 506 344
L 506 344
L 507 344
L 508 344
L 509 344
L 510 343
L 511 344
L 512 345
L 513 343
L 513 343
L 514 341
L 515 340
L 516 340
L 517 338
L 518 337
L 519 337
L 519 337
L 520 338
L 521 338
L 522 338
L 523 336
L 524 336
L 525 336
L 525 336
L 526 337
L 527 338
L 528 334
L 529 336
L 530 336
L 531 338
L 532 338
L 532 337
L 533 338
L 534 341
L 535 342
L 536 343
L 537 343
L 538 343
L 538 344
L 539 341
L 540 342
L 541 343
L 542 343
L 543 343
L 544 342
L 544 341
L 545 343
L 546 342
L 547 342
L 548 342
L 549 342
L 550 341
L 551 342
L 551 341
L 552 341
L 553 338
L 554 338
L 555 334
L 556 332
L 557 330
L 557 326
L 558 321
L 559 318
L 560 315
L 561 315
L 562 316
L 563 314
L 563 313
L 564 312
L 565 310
L 566 306
L 567 301
L 568 295
L 569 293
L 570 290
L 570 286
L 571 285
L 572 281
L 573 281
L 574 277
L 575 278
L 576 277
L 576 267
L 577 260
L 578 256
L 579 254
L 580 249
L 581 241
L 582 226
L 582 222
L 583 222
L 584 211
L 585 206
L 586 212
L 587 214
L 588 223
L 589 226
L 589 227
L 590 239
L 591 243
L 592 246
L 593 250
L 594 254
L 595 266
L 595 273
L 596 279
L 597 290
L 598 292
L 599 295
L 600 304
L 601 308
L 601 313
L 602 317
L 603 318
L 604 321
L 605 325
L 606 324
L 607 330
L 607 330
L 608 333
L 609 334
L 610 336
L 611 336
L 612 340
L 613 339
L 614 340
L 614 340
L 615 341
L 616 339
L 617 339
L 618 335
L 619 330
L 620 317
L 620 298
L 621 280
L 622 270
L 623 249
L 624 202
L 625 159
L 626 126
L 626 122
L 627 98
L 628 66
L 629 48
L 630 46
L 631 34
L 632 34
L 633 22
L 633 18
L 634 30
L 635 37
L 636 40
L 637 43
L 638 34
L 639 28
L 639 40
L 640 39
L 641 38
L 642 42
L 643 52
L 644 67
L 645 77
L 645 82
L 646 82
L 647 90
L 648 98
L 649 111
L 650 116
L 651 114
L 652 123
L 652 128
L 653 134
L 654 135
L 655 143
L 656 142
L 657 157
L 658 163
L 658 167
L 659 172
L 660 184
L 661 189
L 662 199
L 663 193
L 664 191
L 664 195
L 665 192
L 666 189
L 667 180
L 668 182
L 669 188
L 670 193
L 671 197
L 671 192
L 672 189
L 673 197
L 674 190
L 675 185
L 676 176
L 677 175
L 677 170
L 678 156
L 679 150
L 680 140
L 681 133
L 682 126
L 683 118
L 683 116
L 684 111
L 685 100
L 686 102
L 687 106
L 688 114
L 689 110
L 690 111
L 690 121
L 691 126
L 692 137
L 693 143
L 694 146
L 695 162
L 696 166
L 696 178
L 697 196
L 698 201
L 699 211
L 700 212
L 701 214
L 702 229
L 702 243
L 703 252
L 704 265
L 705 273
L 706 281
L 707 289
L 708 293
L 709 303
L 709 307
L 710 314
L 711 318
L 712 321
L 713 323
L 714 326
L 715 328
L 715 328
L 716 327
L 717 326
L 718 327
L 719 326
L 720 325
L 721 325
L 721 328
L 722 329
L 723 329
L 724 330
L 725 333
L 726 333
L 727 334
L 728 334
L 728 334
L 729 335
L 730 335
L 731 335
L 732 337
L 733 338
L 734 338
L 734 339
L 735 340
L 736 341
L 737 340
L 738 340
L 739 340
L 740 341
L 740 340
L 741 340
L 742 340
L 743 340
L 744 339
L 745 338
L 746 339
L 747 341
L 747 341
L 748 341
L 749 342
L 750 342
L 751 342
L 752 341
L 753 340
L 753 339
L 754 339
L 755 338
L 756 338
L 757 336
L 758 333
L 759 333
L 759 332
L 760 332
L 761 332
L 762 329
L 763 330
L 764 330
L 765 328
L 766 328
L 766 325
L 767 323
L 768 319
L 769 316
L 770 311
L 771 309
L 772 308
L 772 308
L 773 306
L 774 308
L 775 308
L 776 310
L 777 310
L 778 308
L 778 307
L 779 306
L 780 301
L 781 300
L 782 298
L 783 297
L 784 298
L 784 296
L 785 299
L 786 302
L 787 297
L 788 294
L 789 293
L 790 286
L 791 285
L 791 283
L 792 279
L 793 283
L 794 282
L 795 281
L 796 285
L 797 286
L 797 286
L 798 288
L 799 290
L 800 296
L 801 300
L 802 303
L 803 306
L 803 307
L 804 312
L 805 315
L 806 315
L 807 317
L 808 318
L 809 318
L 810 320
L 810 320
L 811 320
L 812 323
L 813 323
L 814 325
L 815 324
L 816 325
L 816 327
L 817 326
L 818 325
L 819 323
L 820 321
L 821 321
L 822 321
L 822 320
L 823 322
L 824 324
L 825 325
L 826 326
L 827 329
L 828 327
L 829 328
L 829 327
L 830 327
L 831 327
L 832 327
L 833 326
L 834 328
L 835 330
L 835 332
L 836 332
L 837 333
L 838 331
L 839 331
L 840 332
L 841 328
L 841 328
L 842 326
L 843 325
L 844 324
L 845 324
L 846 320
L 847 318
L 848 314
L 848 311
L 849 307
L 850 301
L 851 298
L 852 296
L 853 290
L 854 286
L 854 279
L 855 275
L 856 271
L 857 268
L 858 269
L 859 272
L 860 266
L 860 264
L 861 264
L 862 264
L 863 266
L 864 267
L 865 265
L 866 267
L 867 274
L 867 277
L 868 282
L 869 286
L 870 288
L 871 292
L 872 301
L 873 302
L 873 306
L 874 310
L 875 311
L 876 312
L 877 316
L 878 320
L 879 325
L 879 327
L 880 329
L 881 330
L 882 331
L 883 331
L 884 333
L 885 332
L 886 333
L 886 335
L 887 336
L 888 335
L 889 336
L 890 335
L 891 335
L 892 335
L 892 333
L 893 333
L 894 333
L 895 332
L 896 332
L 897 333
L 898 333
L 898 333
L 899 333
L 900 333
L 901 333
L 902 333
L 903 333
L 904 333
L 905 333
L 905 333
L 906 333
L 907 332
L 908 331
L 909 330
L 910 330
L 911 331
L 911 331
L 912 332
L 913 332
L 914 331
L 915 332
L 916 334
L 917 333
L 917 333
L 918 332
L 919 333
L 920 334
L 921 335
L 922 333
L 923 333
L 924 333
L 924 334
L 925 334
L 926 336
L 927 337
L 928 338
L 929 339
L 930 339
L 930 339
L 931 341
L 932 340
L 933 339
L 934 339
L 935 340
L 936 340
L 936 340
L 937 339
L 938 339
L 939 338
L 940 339
L 941 339
L 942 339
L 943 339
L 943 338
L 944 339
L 945 340
L 946 340
L 947 339
L 948 339
L 949 340
L 949 340
L 950 342
L 951 341
L 952 342
L 953 342
L 954 342
L 955 342
L 955 342
L 956 341
L 957 343
L 958 342
L 959 342
L 960 341
L 961 341
L 961 340" style="stroke-width:1;stroke:rgba(0,116,217,1.0);fill:none"/><path  d="M 38 351
L 39 351
L 40 351
L 41 351
L 42 351
L 43 351
L 44 351
L 45 350
L 45 351
L 46 351
L 47 351
L 48 351
L 49 351
L 50 351
L 51 351
L 51 351
L 52 351
L 53 350
L 54 350
L 55 351
L 56 351
L 57 351
L 57 351
L 58 351
L 59 351
L 60 351
L 61 350
L 62 348
L 63 348
L 64 346
L 64 350
L 65 348
L 66 349
L 67 349
L 68 349
L 69 349
L 70 350
L 70 350
L 71 350
L 72 350
L 73 350
L 74 350
L 75 350
L 76 350
L 76 350
L 77 350
L 78 350
L 79 351
L 80 351
L 81 350
L 82 351
L 83 350
L 83 351
L 84 351
L 85 351
L 86 351
L 87 351
L 88 350
L 89 351
L 89 351
L 90 350
L 91 351
L 92 351
L 93 351
L 94 351
L 95 351
L 95 350
L 96 351
L 97 351
L 98 351
L 99 351
L 100 351
L 101 351
L 102 351
L 102 351
L 103 351
L 104 351
L 105 351
L 106 351
L 107 351
L 108 351
L 108 351
L 109 351
L 110 351
L 111 351
L 112 351
L 113 351
L 114 351
L 114 351
L 115 351
L 116 351
L 117 351
L 118 351
L 119 351
L 120 351
L 121 351
L 121 351
L 122 351
L 123 351
L 124 351
L 125 351
L 126 351
L 127 351
L 127 351
L 128 351
L 129 351
L 130 351
L 131 351
L 132 351
L 133 351
L 133 351
L 134 351
L 135 351
L 136 351
L 137 350
L 138 351
L 139 351
L 140 351
L 140 350
L 141 351
L 142 351
L 143 351
L 144 351
L 145 350
L 146 351
L 146 351
L 147 351
L 148 351
L 149 351
L 150 351
L 151 351
L 152 351
L 152 350
L 153 350
L 154 350
L 155 350
L 156 350
L 157 351
L 158 350
L 159 350
L 159 351
L 160 351
L 161 350
L 162 350
L 163 351
L 164 350
L 165 351
L 165 351
L 166 351
L 167 350
L 168 350
L 169 351
L 170 351
L 171 351
L 171 350
L 172 350
L 173 351
L 174 351
L 175 351
L 176 351
L 177 351
L 178 351
L 178 350
L 179 350
L 180 351
L 181 351
L 182 351
L 183 351
L 184 351
L 184 350
L 185 350
L 186 351
L 187 351
L 188 350
L 189 350
L 190 350
L 190 351
L 191 350
L 192 350
L 193 351
L 194 350
L 195 351
L 196 350
L 197 350
L 197 350
L 198 350
L 199 351
L 200 350
L 201 350
L 202 351
L 203 351
L 203 350
L 204 351
L 205 351
L 206 350
L 207 351
L 208 350
L 209 350
L 209 350
L 210 350
L 211 351
L 212 351
L 213 350
L 214 350
L 215 350
L 216 350
L 216 350
L 217 350
L 218 350
L 219 350
L 220 350
L 221 350
L 222 350
L 222 350
L 223 350
L 224 350
L 225 350
L 226 350
L 227 350
L 228 350
L 228 350
L 229 350
L 230 350
L 231 350
L 232 349
L 233 350
L 234 348
L 234 350
L 235 350
L 236 348
L 237 349
L 238 348
L 239 347
L 240 349
L 241 347
L 241 349
L 242 347
L 243 347
L 244 346
L 245 347
L 246 346
L 247 347
L 247 342
L 248 348
L 249 345
L 250 346
L 251 342
L 252 344
L 253 344
L 253 344
L 254 343
L 255 345
L 256 341
L 257 336
L 258 340
L 259 344
L 260 343
L 260 341
L 261 345
L 262 338
L 263 337
L 264 345
L 265 346
L 266 339
L 266 341
L 267 345
L 268 342
L 269 341
L 270 343
L 271 339
L 272 350
L 272 343
L 273 345
L 274 341
L 275 344
L 276 347
L 277 345
L 278 350
L 279 345
L 279 344
L 280 345
L 281 346
L 282 347
L 283 349
L 284 349
L 285 346
L 285 347
L 286 347
L 287 349
L 288 345
L 289 348
L 290 349
L 291 344
L 291 348
L 292 349
L 293 349
L 294 348
L 295 349
L 296 349
L 297 346
L 298 347
L 298 345
L 299 348
L 300 349
L 301 349
L 302 348
L 303 346
L 304 345
L 304 347
L 305 345
L 306 348
L 307 347
L 308 347
L 309 347
L 310 346
L 310 347
L 311 347
L 312 347
L 313 348
L 314 349
L 315 346
L 316 345
L 317 346
L 317 348
L 318 347
L 319 348
L 320 349
L 321 348
L 322 347
L 323 349
L 323 347
L 324 345
L 325 348
L 326 349
L 327 347
L 328 347
L 329 348
L 329 349
L 330 347
L 331 348
L 332 348
L 333 349
L 334 346
L 335 348
L 336 349
L 336 348
L 337 349
L 338 348
L 339 348
L 340 348
L 341 348
L 342 347
L 342 349
L 343 348
L 344 350
L 345 348
L 346 348
L 347 346
L 348 348
L 348 348
L 349 349
L 350 348
L 351 348
L 352 346
L 353 346
L 354 345
L 355 343
L 355 348
L 356 348
L 357 345
L 358 347
L 359 344
L 360 345
L 361 346
L 361 348
L 362 346
L 363 347
L 364 343
L 365 345
L 366 346
L 367 345
L 367 348
L 368 347
L 369 348
L 370 345
L 371 345
L 372 346
L 373 344
L 374 349
L 374 346
L 375 349
L 376 345
L 377 347
L 378 349
L 379 349
L 380 349
L 380 348
L 381 349
L 382 348
L 383 349
L 384 347
L 385 347
L 386 350
L 386 349
L 387 349
L 388 348
L 389 349
L 390 350
L 391 349
L 392 350
L 393 350
L 393 349
L 394 348
L 395 348
L 396 350
L 397 348
L 398 349
L 399 349
L 399 347
L 400 350
L 401 348
L 402 348
L 403 349
L 404 350
L 405 349
L 405 348
L 406 349
L 407 349
L 408 349
L 409 348
L 410 350
L 411 350
L 411 349
L 412 349
L 413 350
L 414 349
L 415 349
L 416 350
L 417 350
L 418 350
L 418 349
L 419 350
L 420 350
L 421 350
L 422 350
L 423 349
L 424 351
L 424 350
L 425 350
L 426 350
L 427 350
L 428 350
L 429 350
L 430 351
L 430 350
L 431 350
L 432 350
L 433 350
L 434 350
L 435 350
L 436 350
L 437 350
L 437 350
L 438 350
L 439 350
L 440 350
L 441 351
L 442 350
L 443 350
L 443 351
L 444 351
L 445 351
L 446 351
L 447 351
L 448 350
L 449 351
L 449 351
L 450 351
L 451 351
L 452 351
L 453 351
L 454 351
L 455 351
L 456 351
L 456 351
L 457 351
L 458 351
L 459 351
L 460 351
L 461 351
L 462 351
L 462 351
L 463 351
L 464 351
L 465 351
L 466 351
L 467 351
L 468 351
L 468 351
L 469 350
L 470 351
L 471 351
L 472 351
L 473 350
L 474 350
L 475 350
L 475 347
L 476 349
L 477 350
L 478 349
L 479 350
L 480 348
L 481 349
L 481 350
L 482 349
L 483 350
L 484 350
L 485 349
L 486 350
L 487 350
L 487 350
L 488 350
L 489 350
L 490 351
L 491 350
L 492 350
L 493 350
L 494 349
L 494 349
L 495 350
L 496 350
L 497 350
L 498 349
L 499 350
L 500 350
L 500 350
L 501 350
L 502 350
L 503 349
L 504 350
L 505 349
L 506 350
L 506 350
L 507 351
L 508 350
L 509 349
L 510 350
L 511 350
L 512 350
L 513 348
L 513 350
L 514 348
L 515 348
L 516 350
L 517 348
L 518 350
L 519 348
L 519 351
L 520 349
L 521 348
L 522 350
L 523 347
L 524 349
L 525 348
L 525 351
L 526 350
L 527 349
L 528 346
L 529 349
L 530 349
L 531 349
L 532 350
L 532 349
L 533 350
L 534 349
L 535 350
L 536 349
L 537 350
L 538 350
L 538 350
L 539 348
L 540 350
L 541 350
L 542 350
L 543 350
L 544 350
L 544 349
L 545 349
L 546 349
L 547 350
L 548 349
L 549 350
L 550 349
L 551 349
L 551 348
L 552 349
L 553 348
L 554 349
L 555 346
L 556 348
L 557 348
L 557 345
L 558 345
L 559 346
L 560 347
L 561 346
L 562 348
L 563 346
L 563 345
L 564 344
L 565 344
L 566 344
L 567 342
L 568 344
L 569 344
L 570 342
L 570 341
L 571 343
L 572 340
L 573 342
L 574 340
L 575 345
L 576 342
L 576 332
L 577 338
L 578 337
L 579 340
L 580 336
L 581 339
L 582 329
L 582 329
L 583 337
L 584 329
L 585 336
L 586 342
L 587 340
L 588 336
L 589 332
L 589 338
L 590 339
L 591 339
L 592 344
L 593 344
L 594 340
L 595 341
L 595 344
L 596 344
L 597 348
L 598 346
L 599 346
L 600 347
L 601 344
L 601 349
L 602 347
L 603 348
L 604 348
L 605 350
L 606 346
L 607 349
L 607 349
L 608 349
L 609 349
L 610 350
L 611 350
L 612 349
L 613 348
L 614 350
L 614 349
L 615 349
L 616 349
L 617 349
L 618 346
L 619 344
L 620 339
L 620 334
L 621 334
L 622 341
L 623 332
L 624 307
L 625 309
L 626 312
L 626 330
L 627 315
L 628 315
L 629 317
L 630 305
L 631 299
L 632 313
L 633 320
L 633 311
L 634 324
L 635 323
L 636 308
L 637 302
L 638 305
L 639 315
L 639 321
L 640 324
L 641 322
L 642 311
L 643 310
L 644 317
L 645 323
L 645 326
L 646 324
L 647 329
L 648 318
L 649 321
L 650 321
L 651 322
L 652 333
L 652 328
L 653 333
L 654 318
L 655 328
L 656 321
L 657 334
L 658 338
L 658 331
L 659 337
L 660 328
L 661 332
L 662 330
L 663 328
L 664 337
L 664 334
L 665 335
L 666 326
L 667 325
L 668 331
L 669 333
L 670 341
L 671 337
L 671 331
L 672 323
L 673 331
L 674 326
L 675 329
L 676 335
L 677 335
L 677 327
L 678 312
L 679 325
L 680 317
L 681 323
L 682 329
L 683 329
L 683 326
L 684 308
L 685 317
L 686 319
L 687 325
L 688 336
L 689 326
L 690 327
L 690 316
L 691 321
L 692 328
L 693 330
L 694 338
L 695 339
L 696 330
L 696 326
L 697 336
L 698 332
L 699 339
L 700 339
L 701 340
L 702 342
L 702 338
L 703 343
L 704 343
L 705 345
L 706 346
L 707 347
L 708 345
L 709 346
L 709 347
L 710 348
L 711 348
L 712 348
L 713 348
L 714 348
L 715 348
L 715 346
L 716 348
L 717 348
L 718 348
L 719 348
L 720 347
L 721 348
L 721 348
L 722 349
L 723 348
L 724 349
L 725 350
L 726 348
L 727 348
L 728 348
L 728 349
L 729 349
L 730 349
L 731 350
L 732 349
L 733 349
L 734 348
L 734 350
L 735 350
L 736 350
L 737 349
L 738 349
L 739 349
L 740 349
L 740 349
L 741 349
L 742 350
L 743 349
L 744 349
L 745 349
L 746 350
L 747 350
L 747 349
L 748 350
L 749 350
L 750 349
L 751 349
L 752 349
L 753 349
L 753 349
L 754 349
L 755 349
L 756 349
L 757 347
L 758 347
L 759 349
L 759 348
L 760 349
L 761 349
L 762 347
L 763 347
L 764 347
L 765 348
L 766 348
L 766 347
L 767 347
L 768 344
L 769 344
L 770 343
L 771 346
L 772 347
L 772 347
L 773 346
L 774 345
L 775 344
L 776 345
L 777 346
L 778 345
L 778 346
L 779 346
L 780 341
L 781 344
L 782 343
L 783 344
L 784 346
L 784 345
L 785 348
L 786 344
L 787 340
L 788 341
L 789 343
L 790 341
L 791 344
L 791 346
L 792 340
L 793 343
L 794 340
L 795 342
L 796 344
L 797 345
L 797 346
L 798 342
L 799 345
L 800 345
L 801 346
L 802 346
L 803 348
L 803 347
L 804 346
L 805 347
L 806 344
L 807 347
L 808 347
L 809 348
L 810 348
L 810 346
L 811 347
L 812 347
L 813 348
L 814 348
L 815 348
L 816 348
L 816 348
L 817 346
L 818 346
L 819 347
L 820 347
L 821 348
L 822 349
L 822 346
L 823 348
L 824 348
L 825 347
L 826 348
L 827 350
L 828 348
L 829 347
L 829 347
L 830 348
L 831 347
L 832 348
L 833 349
L 834 349
L 835 349
L 835 348
L 836 348
L 837 348
L 838 347
L 839 348
L 840 350
L 841 346
L 841 348
L 842 346
L 843 347
L 844 347
L 845 348
L 846 347
L 847 344
L 848 344
L 848 344
L 849 344
L 850 342
L 851 345
L 852 345
L 853 340
L 854 341
L 854 338
L 855 341
L 856 339
L 857 343
L 858 346
L 859 342
L 860 336
L 860 337
L 861 341
L 862 339
L 863 344
L 864 347
L 865 340
L 866 337
L 867 343
L 867 343
L 868 343
L 869 347
L 870 348
L 871 344
L 872 344
L 873 344
L 873 346
L 874 346
L 875 348
L 876 349
L 877 347
L 878 348
L 879 348
L 879 347
L 880 348
L 881 349
L 882 350
L 883 347
L 884 349
L 885 348
L 886 348
L 886 349
L 887 350
L 888 349
L 889 348
L 890 348
L 891 348
L 892 348
L 892 348
L 893 349
L 894 349
L 895 347
L 896 348
L 897 349
L 898 349
L 898 348
L 899 349
L 900 349
L 901 347
L 902 348
L 903 349
L 904 349
L 905 348
L 905 349
L 906 349
L 907 347
L 908 347
L 909 348
L 910 348
L 911 349
L 911 349
L 912 350
L 913 347
L 914 347
L 915 348
L 916 349
L 917 349
L 917 349
L 918 349
L 919 348
L 920 348
L 921 349
L 922 348
L 923 349
L 924 349
L 924 350
L 925 348
L 926 350
L 927 350
L 928 349
L 929 349
L 930 349
L 930 350
L 931 350
L 932 348
L 933 349
L 934 349
L 935 350
L 936 349
L 936 350
L 937 349
L 938 348
L 939 349
L 940 349
L 941 350
L 942 350
L 943 350
L 943 349
L 944 349
L 945 349
L 946 349
L 947 349
L 948 350
L 949 350
L 949 349
L 950 350
L 951 348
L 952 350
L 953 349
L 954 350
L 955 350
L 955 348
L 956 350
L 957 349
L 958 350
L 959 349
L 960 349
L 961 350
L 961 348" style="stroke-width:1;stroke:rgba(0,217,101,1.0);fill:none"/><path  d="M 38 351
L 39 351
L 40 351
L 41 351
L 42 351
L 43 351
L 44 351
L 45 351
L 45 351
L 46 351
L 47 351
L 48 351
L 49 351
L 50 351
L 51 351
L 51 351
L 52 351
L 53 351
L 54 351
L 55 351
L 56 351
L 57 351
L 57 351
L 58 351
L 59 351
L 60 351
L 61 351
L 62 351
L 63 351
L 64 351
L 64 351
L 65 350
L 66 350
L 67 351
L 68 350
L 69 350
L 70 351
L 70 351
L 71 350
L 72 350
L 73 351
L 74 351
L 75 351
L 76 350
L 76 350
L 77 351
L 78 351
L 79 351
L 80 351
L 81 351
L 82 351
L 83 351
L 83 351
L 84 350
L 85 351
L 86 350
L 87 351
L 88 351
L 89 351
L 89 351
L 90 351
L 91 351
L 92 350
L 93 351
L 94 351
L 95 351
L 95 351
L 96 351
L 97 351
L 98 351
L 99 351
L 100 351
L 101 351
L 102 351
L 102 351
L 103 351
L 104 351
L 105 351
L 106 351
L 107 351
L 108 351
L 108 351
L 109 351
L 110 350
L 111 351
L 112 351
L 113 351
L 114 351
L 114 351
L 115 351
L 116 351
L 117 351
L 118 351
L 119 351
L 120 351
L 121 351
L 121 351
L 122 351
L 123 351
L 124 351
L 125 351
L 126 351
L 127 351
L 127 351
L 128 351
L 129 351
L 130 351
L 131 351
L 132 351
L 133 351
L 133 351
L 134 350
L 135 351
L 136 351
L 137 351
L 138 351
L 139 351
L 140 351
L 140 351
L 141 351
L 142 351
L 143 351
L 144 351
L 145 351
L 146 351
L 146 351
L 147 351
L 148 351
L 149 351
L 150 351
L 151 351
L 152 351
L 152 351
L 153 351
L 154 351
L 155 351
L 156 351
L 157 351
L 158 351
L 159 351
L 159 351
L 160 351
L 161 351
L 162 351
L 163 351
L 164 351
L 165 351
L 165 351
L 166 351
L 167 351
L 168 351
L 169 351
L 170 351
L 171 351
L 171 351
L 172 351
L 173 351
L 174 351
L 175 351
L 176 351
L 177 351
L 178 351
L 178 351
L 179 351
L 180 351
L 181 351
L 182 351
L 183 351
L 184 351
L 184 351
L 185 351
L 186 351
L 187 351
L 188 351
L 189 351
L 190 351
L 190 351
L 191 351
L 192 351
L 193 351
L 194 351
L 195 351
L 196 351
L 197 351
L 197 351
L 198 351
L 199 351
L 200 351
L 201 351
L 202 351
L 203 351
L 203 351
L 204 351
L 205 351
L 206 351
L 207 351
L 208 351
L 209 351
L 209 351
L 210 350
L 211 351
L 212 351
L 213 351
L 214 351
L 215 351
L 216 351
L 216 351
L 217 351
L 218 351
L 219 351
L 220 351
L 221 351
L 222 351
L 222 351
L 223 351
L 224 351
L 225 351
L 226 351
L 227 351
L 228 351
L 228 351
L 229 351
L 230 351
L 231 351
L 232 351
L 233 351
L 234 351
L 234 351
L 235 351
L 236 351
L 237 351
L 238 351
L 239 351
L 240 351
L 241 351
L 241 351
L 242 351
L 243 351
L 244 351
L 245 351
L 246 351
L 247 351
L 247 351
L 248 351
L 249 351
L 250 351
L 251 351
L 252 351
L 253 351
L 253 350
L 254 351
L 255 351
L 256 350
L 257 350
L 258 351
L 259 351
L 260 351
L 260 350
L 261 351
L 262 350
L 263 350
L 264 350
L 265 350
L 266 350
L 266 350
L 267 350
L 268 350
L 269 350
L 270 350
L 271 350
L 272 350
L 272 351
L 273 350
L 274 350
L 275 350
L 276 351
L 277 350
L 278 350
L 279 350
L 279 350
L 280 351
L 281 351
L 282 350
L 283 350
L 284 350
L 285 350
L 285 350
L 286 350
L 287 350
L 288 350
L 289 350
L 290 351
L 291 350
L 291 350
L 292 351
L 293 351
L 294 351
L 295 351
L 296 350
L 297 351
L 298 351
L 298 350
L 299 350
L 300 351
L 301 350
L 302 351
L 303 351
L 304 351
L 304 351
L 305 350
L 306 351
L 307 351
L 308 350
L 309 351
L 310 351
L 310 351
L 311 351
L 312 350
L 313 351
L 314 351
L 315 351
L 316 350
L 317 351
L 317 351
L 318 350
L 319 351
L 320 351
L 321 351
L 322 350
L 323 350
L 323 351
L 324 351
L 325 351
L 326 351
L 327 351
L 328 350
L 329 350
L 329 351
L 330 351
L 331 351
L 332 351
L 333 351
L 334 351
L 335 351
L 336 350
L 336 351
L 337 351
L 338 351
L 339 351
L 340 350
L 341 350
L 342 350
L 342 350
L 343 351
L 344 350
L 345 350
L 346 351
L 347 351
L 348 351
L 348 351
L 349 350
L 350 351
L 351 351
L 352 351
L 353 351
L 354 350
L 355 351
L 355 351
L 356 351
L 357 351
L 358 350
L 359 351
L 360 351
L 361 350
L 361 350
L 362 350
L 363 351
L 364 350
L 365 351
L 366 351
L 367 350
L 367 350
L 368 351
L 369 350
L 370 351
L 371 350
L 372 351
L 373 351
L 374 351
L 374 351
L 375 350
L 376 351
L 377 350
L 378 350
L 379 350
L 380 351
L 380 351
L 381 351
L 382 351
L 383 351
L 384 351
L 385 351
L 386 350
L 386 351
L 387 351
L 388 351
L 389 351
L 390 351
L 391 350
L 392 351
L 393 351
L 393 351
L 394 351
L 395 350
L 396 351
L 397 351
L 398 350
L 399 351
L 399 351
L 400 351
L 401 351
L 402 351
L 403 351
L 404 351
L 405 350
L 405 351
L 406 351
L 407 351
L 408 351
L 409 351
L 410 350
L 411 351
L 411 351
L 412 351
L 413 350
L 414 350
L 415 351
L 416 351
L 417 351
L 418 351
L 418 351
L 419 351
L 420 351
L 421 351
L 422 351
L 423 351
L 424 351
L 424 351
L 425 351
L 426 351
L 427 351
L 428 351
L 429 351
L 430 351
L 430 351
L 431 351
L 432 351
L 433 351
L 434 351
L 435 351
L 436 351
L 437 350
L 437 351
L 438 351
L 439 351
L 440 351
L 441 351
L 442 351
L 443 351
L 443 351
L 444 351
L 445 351
L 446 351
L 447 351
L 448 351
L 449 351
L 449 351
L 450 351
L 451 351
L 452 351
L 453 351
L 454 351
L 455 351
L 456 351
L 456 351
L 457 351
L 458 351
L 459 351
L 460 351
L 461 351
L 462 351
L 462 351
L 463 351
L 464 351
L 465 351
L 466 351
L 467 351
L 468 351
L 468 351
L 469 351
L 470 351
L 471 351
L 472 351
L 473 351
L 474 351
L 475 351
L 475 351
L 476 351
L 477 351
L 478 351
L 479 351
L 480 351
L 481 351
L 481 351
L 482 351
L 483 351
L 484 351
L 485 351
L 486 351
L 487 351
L 487 351
L 488 351
L 489 351
L 490 351
L 491 351
L 492 351
L 493 351
L 494 351
L 494 351
L 495 351
L 496 351
L 497 351
L 498 351
L 499 351
L 500 351
L 500 351
L 501 351
L 502 351
L 503 351
L 504 351
L 505 351
L 506 351
L 506 351
L 507 351
L 508 351
L 509 351
L 510 351
L 511 351
L 512 351
L 513 351
L 513 351
L 514 351
L 515 351
L 516 351
L 517 351
L 518 351
L 519 351
L 519 351
L 520 351
L 521 351
L 522 351
L 523 351
L 524 351
L 525 351
L 525 351
L 526 351
L 527 351
L 528 351
L 529 351
L 530 351
L 531 351
L 532 351
L 532 351
L 533 351
L 534 351
L 535 351
L 536 351
L 537 351
L 538 350
L 538 351
L 539 351
L 540 351
L 541 351
L 542 351
L 543 351
L 544 351
L 544 351
L 545 351
L 546 351
L 547 351
L 548 351
L 549 351
L 550 351
L 551 351
L 551 351
L 552 351
L 553 351
L 554 351
L 555 351
L 556 351
L 557 351
L 557 350
L 558 351
L 559 351
L 560 351
L 561 351
L 562 350
L 563 351
L 563 350
L 564 350
L 565 351
L 566 351
L 567 351
L 568 350
L 569 351
L 570 351
L 570 351
L 571 351
L 572 351
L 573 350
L 574 350
L 575 351
L 576 351
L 576 351
L 577 350
L 578 351
L 579 350
L 580 350
L 581 350
L 582 350
L 582 351
L 583 351
L 584 350
L 585 351
L 586 350
L 587 351
L 588 350
L 589 351
L 589 351
L 590 350
L 591 350
L 592 351
L 593 351
L 594 351
L 595 350
L 595 350
L 596 351
L 597 351
L 598 350
L 599 350
L 600 350
L 601 350
L 601 351
L 602 351
L 603 351
L 604 351
L 605 351
L 606 351
L 607 351
L 607 351
L 608 350
L 609 351
L 610 350
L 611 350
L 612 351
L 613 351
L 614 351
L 614 351
L 615 351
L 616 351
L 617 351
L 618 351
L 619 351
L 620 351
L 620 351
L 621 351
L 622 351
L 623 351
L 624 351
L 625 351
L 626 351
L 626 351
L 627 351
L 628 351
L 629 351
L 630 351
L 631 351
L 632 351
L 633 350
L 633 351
L 634 351
L 635 351
L 636 351
L 637 351
L 638 350
L 639 351
L 639 351
L 640 351
L 641 351
L 642 351
L 643 351
L 644 351
L 645 351
L 645 351
L 646 351
L 647 351
L 648 351
L 649 350
L 650 351
L 651 351
L 652 351
L 652 350
L 653 351
L 654 351
L 655 351
L 656 351
L 657 350
L 658 351
L 658 351
L 659 351
L 660 351
L 661 351
L 662 351
L 663 351
L 664 351
L 664 351
L 665 351
L 666 351
L 667 351
L 668 351
L 669 351
L 670 351
L 671 351
L 671 351
L 672 351
L 673 351
L 674 351
L 675 351
L 676 351
L 677 351
L 677 351
L 678 351
L 679 351
L 680 351
L 681 351
L 682 350
L 683 350
L 683 351
L 684 350
L 685 351
L 686 351
L 687 351
L 688 351
L 689 351
L 690 351
L 690 351
L 691 351
L 692 351
L 693 350
L 694 351
L 695 351
L 696 351
L 696 351
L 697 350
L 698 351
L 699 350
L 700 351
L 701 351
L 702 351
L 702 351
L 703 351
L 704 351
L 705 351
L 706 351
L 707 351
L 708 350
L 709 351
L 709 351
L 710 350
L 711 350
L 712 351
L 713 350
L 714 351
L 715 351
L 715 351
L 716 351
L 717 351
L 718 351
L 719 351
L 720 351
L 721 351
L 721 351
L 722 351
L 723 351
L 724 351
L 725 351
L 726 351
L 727 351
L 728 351
L 728 351
L 729 351
L 730 351
L 731 351
L 732 351
L 733 351
L 734 351
L 734 351
L 735 351
L 736 351
L 737 351
L 738 351
L 739 351
L 740 351
L 740 351
L 741 351
L 742 351
L 743 351
L 744 351
L 745 351
L 746 351
L 747 351
L 747 351
L 748 351
L 749 351
L 750 351
L 751 351
L 752 351
L 753 351
L 753 351
L 754 351
L 755 351
L 756 351
L 757 351
L 758 351
L 759 351
L 759 351
L 760 351
L 761 351
L 762 351
L 763 351
L 764 351
L 765 351
L 766 351
L 766 351
L 767 351
L 768 351
L 769 351
L 770 351
L 771 351
L 772 351
L 772 351
L 773 351
L 774 351
L 775 351
L 776 351
L 777 351
L 778 351
L 778 351
L 779 351
L 780 350
L 781 351
L 782 351
L 783 350
L 784 351
L 784 351
L 785 351
L 786 350
L 787 351
L 788 351
L 789 351
L 790 351
L 791 351
L 791 351
L 792 351
L 793 351
L 794 351
L 795 351
L 796 351
L 797 351
L 797 351
L 798 351
L 799 351
L 800 351
L 801 351
L 802 351
L 803 351
L 803 350
L 804 351
L 805 351
L 806 351
L 807 351
L 808 351
L 809 351
L 810 351
L 810 351
L 811 351
L 812 351
L 813 351
L 814 351
L 815 351
L 816 351
L 816 351
L 817 351
L 818 351
L 819 351
L 820 351
L 821 351
L 822 351
L 822 351
L 823 351
L 824 351
L 825 351
L 826 351
L 827 351
L 828 351
L 829 351
L 829 351
L 830 351
L 831 351
L 832 351
L 833 351
L 834 351
L 835 351
L 835 351
L 836 351
L 837 351
L 838 351
L 839 351
L 840 351
L 841 351
L 841 351
L 842 351
L 843 351
L 844 351
L 845 351
L 846 351
L 847 351
L 848 351
L 848 351
L 849 351
L 850 351
L 851 351
L 852 351
L 853 351
L 854 351
L 854 351
L 855 351
L 856 351
L 857 351
L 858 351
L 859 351
L 860 351
L 860 351
L 861 351
L 862 351
L 863 351
L 864 351
L 865 351
L 866 351
L 867 351
L 867 351
L 868 351
L 869 351
L 870 351
L 871 351
L 872 351
L 873 351
L 873 351
L 874 351
L 875 351
L 876 351
L 877 351
L 878 351
L 879 351
L 879 351
L 880 351
L 881 351
L 882 351
L 883 351
L 884 351
L 885 351
L 886 351
L 886 351
L 887 351
L 888 351
L 889 351
L 890 351
L 891 351
L 892 351
L 892 351
L 893 351
L 894 351
L 895 351
L 896 351
L 897 351
L 898 351
L 898 351
L 899 351
L 900 351
L 901 351
L 902 351
L 903 351
L 904 351
L 905 351
L 905 351
L 906 351
L 907 351
L 908 351
L 909 351
L 910 351
L 911 351
L 911 351
L 912 351
L 913 351
L 914 351
L 915 351
L 916 351
L 917 351
L 917 351
L 918 351
L 919 351
L 920 351
L 921 351
L 922 351
L 923 351
L 924 351
L 924 351
L 925 351
L 926 351
L 927 351
L 928 351
L 929 351
L 930 351
L 930 351
L 931 351
L 932 351
L 933 351
L 934 351
L 935 351
L 936 351
L 936 351
L 937 351
L 938 351
L 939 351
L 940 351
L 941 351
L 942 351
L 943 351
L 943 351
L 944 351
L 945 351
L 946 351
L 947 351
L 948 351
L 949 351
L 949 351
L 950 351
L 951 351
L 952 351
L 953 351
L 954 351
L 955 351
L 955 351
L 956 351
L 957 351
L 958 351
L 959 351
L 960 351
L 961 351
L 961 351" style="stroke-width:1;stroke:rgba(217,0,116,1.0);fill:none"/><text x="322" y="33" style="stroke-width:0;stroke:none;fill:rgba(51,51,51,1.0);font-size:23.0px;font-family:'Roboto Medium',sans-serif">Sankt Johann im Pongau 30.01.2023</text><path  d="M 38 11
L 251 11
L 251 91
L 38 91
L 38 11" style="stroke-width:1;stroke:rgba(51,51,51,1.0);fill:rgba(255,255,255,1.0)"/><text x="43" y="26" style="stroke-width:0;stroke:none;fill:rgba(51,51,51,1.0);font-size:10.2px;font-family:'Roboto Medium',sans-serif">Sieben Tage Durschnitt Inzidenz Fälle</text><path  d="M 221 21
L 241 21" style="stroke-width:1;stroke:rgba(0,116,217,1.0);fill:none"/><text x="43" y="56" style="stroke-width:0;stroke:none;fill:rgba(51,51,51,1.0);font-size:10.2px;font-family:'Roboto Medium',sans-serif">Anzahl Faelle</text><path  d="M 110 51
L 241 51" style="stroke-width:1;stroke:rgba(0,217,101,1.0);fill:none"/><text x="43" y="86" style="stroke-width:0;stroke:none;fill:rgba(51,51,51,1.0);font-size:10.2px;font-family:'Roboto Medium',sans-serif">Anzahl Tot</text><path  d="M 98 81
L 241 81" style="stroke-width:1;stroke:rgba(217,0,116,1.0);fill:none"/></svg>