<svg xmlns="http://www.w3.org/2000/svg" xmlns:xlink="http://www.w3.org/1999/xlink" width="1024" height="400">\n<path  d="M 0 0
L 1024 0
L 1024 400
L 0 400
L 0 0" style="stroke-width:0;stroke:rgba(255,255,255,1.0);fill:rgba(255,255,255,1.0)"/><path  d="M 38 11
L 969 11
L 969 351
L 38 351
L 38 11" style="stroke-width:0;stroke:rgba(255,255,255,1.0);fill:rgba(255,255,255,1.0)"/><path  d="M 38 351
L 969 351" style="stroke-width:1;stroke:rgba(51,51,51,1.0);fill:none"/><path  d="M 38 351
L 38 356" style="stroke-width:1;stroke:rgba(51,51,51,1.0);fill:none"/><text x="5" y="373" style="stroke-width:0;stroke:none;fill:rgba(51,51,51,1.0);font-size:12.8px;font-family:'Roboto Medium',sans-serif">2020-02-26</text><path  d="M 155 351
L 155 356" style="stroke-width:1;stroke:rgba(51,51,51,1.0);fill:none"/><text x="122" y="373" style="stroke-width:0;stroke:none;fill:rgba(51,51,51,1.0);font-size:12.8px;font-family:'Roboto Medium',sans-serif">2020-04-15</text><path  d="M 271 351
L 271 356" style="stroke-width:1;stroke:rgba(51,51,51,1.0);fill:none"/><text x="238" y="373" style="stroke-width:0;stroke:none;fill:rgba(51,51,51,1.0);font-size:12.8px;font-family:'Roboto Medium',sans-serif">2020-06-04</text><path  d="M 388 351
L 388 356" style="stroke-width:1;stroke:rgba(51,51,51,1.0);fill:none"/><text x="355" y="373" style="stroke-width:0;stroke:none;fill:rgba(51,51,51,1.0);font-size:12.8px;font-family:'Roboto Medium',sans-serif">2020-07-23</text><path  d="M 504 351
L 504 356" style="stroke-width:1;stroke:rgba(51,51,51,1.0);fill:none"/><text x="471" y="373" style="stroke-width:0;stroke:none;fill:rgba(51,51,51,1.0);font-size:12.8px;font-family:'Roboto Medium',sans-serif">2020-09-11</text><path  d="M 620 351
L 620 356" style="stroke-width:1;stroke:rgba(51,51,51,1.0);fill:none"/><text x="587" y="373" style="stroke-width:0;stroke:none;fill:rgba(51,51,51,1.0);font-size:12.8px;font-family:'Roboto Medium',sans-serif">2020-10-30</text><path  d="M 737 351
L 737 356" style="stroke-width:1;stroke:rgba(51,51,51,1.0);fill:none"/><text x="704" y="373" style="stroke-width:0;stroke:none;fill:rgba(51,51,51,1.0);font-size:12.8px;font-family:'Roboto Medium',sans-serif">2020-12-19</text><path  d="M 853 351
L 853 356" style="stroke-width:1;stroke:rgba(51,51,51,1.0);fill:none"/><text x="820" y="373" style="stroke-width:0;stroke:none;fill:rgba(51,51,51,1.0);font-size:12.8px;font-family:'Roboto Medium',sans-serif">2021-02-06</text><path  d="M 969 351
L 969 356" style="stroke-width:1;stroke:rgba(51,51,51,1.0);fill:none"/><text x="936" y="373" style="stroke-width:0;stroke:none;fill:rgba(51,51,51,1.0);font-size:12.8px;font-family:'Roboto Medium',sans-serif">2021-03-28</text><text x="485" y="395" style="stroke-width:0;stroke:none;fill:rgba(51,51,51,1.0);font-size:12.8px;font-family:'Roboto Medium',sans-serif">Datum</text><path  d="M 970 351
L 970 11" style="stroke-width:1;stroke:rgba(51,51,51,1.0);fill:none"/><path  d="M 970 351
L 975 351" style="stroke-width:1;stroke:rgba(51,51,51,1.0);fill:none"/><text x="980" y="357" style="stroke-width:0;stroke:none;fill:rgba(51,51,51,1.0);font-size:12.8px;font-family:'Roboto Medium',sans-serif">0.00</text><path  d="M 970 308
L 975 308" style="stroke-width:1;stroke:rgba(51,51,51,1.0);fill:none"/><text x="980" y="314" style="stroke-width:0;stroke:none;fill:rgba(51,51,51,1.0);font-size:12.8px;font-family:'Roboto Medium',sans-serif">65.00</text><path  d="M 970 266
L 975 266" style="stroke-width:1;stroke:rgba(51,51,51,1.0);fill:none"/><text x="980" y="272" style="stroke-width:0;stroke:none;fill:rgba(51,51,51,1.0);font-size:12.8px;font-family:'Roboto Medium',sans-serif">130.00</text><path  d="M 970 223
L 975 223" style="stroke-width:1;stroke:rgba(51,51,51,1.0);fill:none"/><text x="980" y="229" style="stroke-width:0;stroke:none;fill:rgba(51,51,51,1.0);font-size:12.8px;font-family:'Roboto Medium',sans-serif">195.00</text><path  d="M 970 181
L 975 181" style="stroke-width:1;stroke:rgba(51,51,51,1.0);fill:none"/><text x="980" y="187" style="stroke-width:0;stroke:none;fill:rgba(51,51,51,1.0);font-size:12.8px;font-family:'Roboto Medium',sans-serif">260.00</text><path  d="M 970 138
L 975 138" style="stroke-width:1;stroke:rgba(51,51,51,1.0);fill:none"/><text x="980" y="144" style="stroke-width:0;stroke:none;fill:rgba(51,51,51,1.0);font-size:12.8px;font-family:'Roboto Medium',sans-serif">325.00</text><path  d="M 970 96
L 975 96" style="stroke-width:1;stroke:rgba(51,51,51,1.0);fill:none"/><text x="980" y="102" style="stroke-width:0;stroke:none;fill:rgba(51,51,51,1.0);font-size:12.8px;font-family:'Roboto Medium',sans-serif">390.00</text><path  d="M 970 53
L 975 53" style="stroke-width:1;stroke:rgba(51,51,51,1.0);fill:none"/><text x="980" y="59" style="stroke-width:0;stroke:none;fill:rgba(51,51,51,1.0);font-size:12.8px;font-family:'Roboto Medium',sans-serif">455.00</text><path  d="M 970 11
L 975 11" style="stroke-width:1;stroke:rgba(51,51,51,1.0);fill:none"/><text x="980" y="17" style="stroke-width:0;stroke:none;fill:rgba(51,51,51,1.0);font-size:12.8px;font-family:'Roboto Medium',sans-serif">520.00</text><path  d="M 38 351
L 41 351
L 43 351
L 46 351
L 48 351
L 50 351
L 53 351
L 55 351
L 57 351
L 60 351
L 62 351
L 64 351
L 67 351
L 69 351
L 71 351
L 74 351
L 76 351
L 78 349
L 81 349
L 83 349
L 86 347
L 88 347
L 90 346
L 93 340
L 95 341
L 97 339
L 100 338
L 102 336
L 104 328
L 107 322
L 109 315
L 111 312
L 114 308
L 116 306
L 118 306
L 121 309
L 123 315
L 125 321
L 128 319
L 130 325
L 133 322
L 135 322
L 137 327
L 140 326
L 142 332
L 144 338
L 147 338
L 149 342
L 151 345
L 154 345
L 156 345
L 158 346
L 161 346
L 163 346
L 165 347
L 168 348
L 170 347
L 173 349
L 175 348
L 177 347
L 180 347
L 182 347
L 184 347
L 187 348
L 189 347
L 191 348
L 194 349
L 196 349
L 198 349
L 201 349
L 203 349
L 205 349
L 208 349
L 210 349
L 212 349
L 215 349
L 217 349
L 220 349
L 222 351
L 224 349
L 227 349
L 229 349
L 231 349
L 234 349
L 236 349
L 238 349
L 241 351
L 243 351
L 245 351
L 248 351
L 250 351
L 252 351
L 255 351
L 257 351
L 259 351
L 262 351
L 264 351
L 267 351
L 269 351
L 271 351
L 274 349
L 276 348
L 278 348
L 281 348
L 283 348
L 285 348
L 288 348
L 290 349
L 292 351
L 295 351
L 297 351
L 299 351
L 302 351
L 304 349
L 307 349
L 309 347
L 311 347
L 314 346
L 316 346
L 318 346
L 321 347
L 323 347
L 325 349
L 328 347
L 330 348
L 332 348
L 335 347
L 337 346
L 339 346
L 342 346
L 344 347
L 346 347
L 349 347
L 351 348
L 354 348
L 356 348
L 358 348
L 361 349
L 363 349
L 365 349
L 368 349
L 370 349
L 372 347
L 375 345
L 377 345
L 379 345
L 382 345
L 384 345
L 386 346
L 389 347
L 391 349
L 394 349
L 396 347
L 398 347
L 401 347
L 403 347
L 405 348
L 408 347
L 410 345
L 412 347
L 415 346
L 417 345
L 419 345
L 422 343
L 424 345
L 426 345
L 429 343
L 431 342
L 433 343
L 436 343
L 438 343
L 441 342
L 443 345
L 445 346
L 448 346
L 450 346
L 452 346
L 455 347
L 457 348
L 459 348
L 462 347
L 464 348
L 466 346
L 469 345
L 471 342
L 473 342
L 476 340
L 478 341
L 480 341
L 483 339
L 485 340
L 488 341
L 490 340
L 492 342
L 495 340
L 497 334
L 499 335
L 502 332
L 504 327
L 506 327
L 509 325
L 511 326
L 513 326
L 516 327
L 518 327
L 520 329
L 523 323
L 525 323
L 528 321
L 530 325
L 532 323
L 535 323
L 537 315
L 539 318
L 542 315
L 544 313
L 546 302
L 549 300
L 551 294
L 553 299
L 556 289
L 558 282
L 560 272
L 563 270
L 565 268
L 567 267
L 570 260
L 572 262
L 575 268
L 577 273
L 579 279
L 582 270
L 584 272
L 586 270
L 589 279
L 591 283
L 593 281
L 596 283
L 598 288
L 600 276
L 603 277
L 605 270
L 607 256
L 610 259
L 612 240
L 614 220
L 617 215
L 619 180
L 622 167
L 624 163
L 626 130
L 629 114
L 631 100
L 633 91
L 636 75
L 638 61
L 640 50
L 643 63
L 645 64
L 647 82
L 650 77
L 652 110
L 654 110
L 657 93
L 659 60
L 662 57
L 664 44
L 666 28
L 669 15
L 671 22
L 673 38
L 676 61
L 678 64
L 680 57
L 683 74
L 685 67
L 687 36
L 690 20
L 692 48
L 694 34
L 697 68
L 699 41
L 701 61
L 704 90
L 706 115
L 709 104
L 711 142
L 713 143
L 716 163
L 718 182
L 720 200
L 723 200
L 725 196
L 727 194
L 730 187
L 732 202
L 734 204
L 737 209
L 739 219
L 741 241
L 744 237
L 746 247
L 749 266
L 751 274
L 753 279
L 756 288
L 758 281
L 760 285
L 763 279
L 765 285
L 767 283
L 770 283
L 772 283
L 774 283
L 777 275
L 779 274
L 781 274
L 784 272
L 786 269
L 788 266
L 791 269
L 793 281
L 796 289
L 798 280
L 800 277
L 803 282
L 805 280
L 807 280
L 810 286
L 812 289
L 814 300
L 817 309
L 819 303
L 821 312
L 824 318
L 826 322
L 828 326
L 831 315
L 833 307
L 835 314
L 838 310
L 840 307
L 843 308
L 845 306
L 847 316
L 850 320
L 852 320
L 854 322
L 857 328
L 859 325
L 861 320
L 864 315
L 866 312
L 868 312
L 871 310
L 873 303
L 875 300
L 878 297
L 880 296
L 883 295
L 885 292
L 887 292
L 890 283
L 892 285
L 894 282
L 897 277
L 899 269
L 901 239
L 904 236
L 906 227
L 908 209
L 911 214
L 913 215
L 915 209
L 918 217
L 920 209
L 922 210
L 925 224
L 927 219
L 930 199
L 932 188
L 934 182
L 937 184
L 939 183
L 941 184
L 944 186
L 946 204
L 948 213
L 951 228
L 953 220
L 955 227
L 958 219
L 960 209
L 962 210
L 965 199
L 967 204
L 969 206" style="stroke-width:1;stroke:rgba(0,116,217,1.0);fill:none"/><path  d="M 38 351
L 41 351
L 43 351
L 46 351
L 48 351
L 50 351
L 53 351
L 55 351
L 57 351
L 60 351
L 62 351
L 64 351
L 67 351
L 69 351
L 71 351
L 74 351
L 76 351
L 78 350
L 81 351
L 83 351
L 86 349
L 88 351
L 90 350
L 93 347
L 95 351
L 97 349
L 100 350
L 102 349
L 104 346
L 107 347
L 109 343
L 111 349
L 114 347
L 116 349
L 118 349
L 121 348
L 123 350
L 125 347
L 128 347
L 130 351
L 133 347
L 135 349
L 137 351
L 140 349
L 142 350
L 144 351
L 147 351
L 149 350
L 151 350
L 154 351
L 156 349
L 158 351
L 161 351
L 163 351
L 165 351
L 168 351
L 170 350
L 173 351
L 175 350
L 177 350
L 180 351
L 182 351
L 184 351
L 187 351
L 189 350
L 191 351
L 194 351
L 196 351
L 198 351
L 201 351
L 203 351
L 205 350
L 208 351
L 210 351
L 212 351
L 215 351
L 217 351
L 220 351
L 222 351
L 224 350
L 227 351
L 229 351
L 231 351
L 234 351
L 236 351
L 238 351
L 241 351
L 243 351
L 245 351
L 248 351
L 250 351
L 252 351
L 255 351
L 257 351
L 259 351
L 262 351
L 264 351
L 267 351
L 269 351
L 271 351
L 274 350
L 276 350
L 278 351
L 281 351
L 283 351
L 285 351
L 288 351
L 290 351
L 292 351
L 295 351
L 297 351
L 299 351
L 302 351
L 304 350
L 307 351
L 309 349
L 311 351
L 314 350
L 316 351
L 318 351
L 321 351
L 323 351
L 325 351
L 328 349
L 330 351
L 332 351
L 335 350
L 337 350
L 339 351
L 342 351
L 344 350
L 346 351
L 349 351
L 351 351
L 354 350
L 356 351
L 358 351
L 361 351
L 363 351
L 365 351
L 368 351
L 370 350
L 372 349
L 375 349
L 377 351
L 379 351
L 382 351
L 384 351
L 386 351
L 389 350
L 391 351
L 394 351
L 396 349
L 398 351
L 401 351
L 403 351
L 405 351
L 408 350
L 410 349
L 412 351
L 415 350
L 417 350
L 419 351
L 422 350
L 424 351
L 426 349
L 429 350
L 431 349
L 433 351
L 436 351
L 438 350
L 441 350
L 443 351
L 445 351
L 448 349
L 450 351
L 452 351
L 455 351
L 457 351
L 459 351
L 462 350
L 464 350
L 466 349
L 469 350
L 471 349
L 473 351
L 476 349
L 478 351
L 480 350
L 483 348
L 485 351
L 488 350
L 490 350
L 492 351
L 495 349
L 497 347
L 499 349
L 502 349
L 504 347
L 506 350
L 509 349
L 511 350
L 513 347
L 516 349
L 518 349
L 520 349
L 523 347
L 525 349
L 528 349
L 530 349
L 532 349
L 535 349
L 537 344
L 539 348
L 542 348
L 544 347
L 546 343
L 549 347
L 551 345
L 553 347
L 556 343
L 558 344
L 560 341
L 563 342
L 565 346
L 567 345
L 570 343
L 572 344
L 575 347
L 577 344
L 579 345
L 582 341
L 584 345
L 586 342
L 589 349
L 591 350
L 593 343
L 596 347
L 598 344
L 600 339
L 603 343
L 605 345
L 607 342
L 610 344
L 612 336
L 614 333
L 617 336
L 619 323
L 622 337
L 624 340
L 626 326
L 629 327
L 631 325
L 633 332
L 636 314
L 638 330
L 640 334
L 643 333
L 645 328
L 647 335
L 650 329
L 652 332
L 654 330
L 657 324
L 659 315
L 662 326
L 664 328
L 666 320
L 669 325
L 671 334
L 673 334
L 676 327
L 678 328
L 680 324
L 683 329
L 685 321
L 687 317
L 690 324
L 692 343
L 694 320
L 697 343
L 699 314
L 701 332
L 704 333
L 706 338
L 709 337
L 711 341
L 713 343
L 716 325
L 718 343
L 720 343
L 723 338
L 725 335
L 727 340
L 730 339
L 732 334
L 734 344
L 737 345
L 739 343
L 741 347
L 744 338
L 746 345
L 749 344
L 751 349
L 753 348
L 756 349
L 758 343
L 760 340
L 763 341
L 765 347
L 767 348
L 770 348
L 772 349
L 774 343
L 777 335
L 779 341
L 781 347
L 784 347
L 786 347
L 788 347
L 791 345
L 793 342
L 796 345
L 798 342
L 800 345
L 803 349
L 805 345
L 807 345
L 810 345
L 812 347
L 814 348
L 817 351
L 819 346
L 821 350
L 824 349
L 826 348
L 828 349
L 831 342
L 833 346
L 835 350
L 838 348
L 840 347
L 843 349
L 845 348
L 847 348
L 850 348
L 852 350
L 854 349
L 857 350
L 859 347
L 861 345
L 864 345
L 866 346
L 868 350
L 871 349
L 873 346
L 875 345
L 878 344
L 880 345
L 883 345
L 885 348
L 887 349
L 890 341
L 892 345
L 894 343
L 897 342
L 899 341
L 901 331
L 904 347
L 906 336
L 908 335
L 911 345
L 913 343
L 915 337
L 918 335
L 920 343
L 922 337
L 925 343
L 927 342
L 930 332
L 932 332
L 934 332
L 937 344
L 939 336
L 941 344
L 944 343
L 946 342
L 948 336
L 951 341
L 953 339
L 955 340
L 958 339
L 960 337
L 962 343
L 965 330
L 967 344
L 969 340" style="stroke-width:1;stroke:rgba(0,217,101,1.0);fill:none"/><path  d="M 38 351
L 41 351
L 43 351
L 46 351
L 48 351
L 50 351
L 53 351
L 55 351
L 57 351
L 60 351
L 62 351
L 64 351
L 67 351
L 69 351
L 71 351
L 74 351
L 76 351
L 78 351
L 81 351
L 83 351
L 86 351
L 88 350
L 90 351
L 93 351
L 95 351
L 97 351
L 100 351
L 102 351
L 104 351
L 107 351
L 109 351
L 111 351
L 114 351
L 116 351
L 118 351
L 121 351
L 123 351
L 125 351
L 128 351
L 130 351
L 133 351
L 135 351
L 137 351
L 140 351
L 142 351
L 144 351
L 147 351
L 149 351
L 151 351
L 154 351
L 156 351
L 158 351
L 161 351
L 163 351
L 165 351
L 168 351
L 170 351
L 173 351
L 175 351
L 177 351
L 180 351
L 182 351
L 184 351
L 187 351
L 189 351
L 191 351
L 194 351
L 196 351
L 198 351
L 201 351
L 203 351
L 205 351
L 208 351
L 210 351
L 212 351
L 215 351
L 217 350
L 220 351
L 222 351
L 224 351
L 227 351
L 229 351
L 231 351
L 234 351
L 236 351
L 238 351
L 241 351
L 243 351
L 245 351
L 248 351
L 250 351
L 252 351
L 255 351
L 257 351
L 259 351
L 262 351
L 264 351
L 267 351
L 269 351
L 271 350
L 274 351
L 276 351
L 278 351
L 281 351
L 283 351
L 285 351
L 288 351
L 290 351
L 292 351
L 295 351
L 297 351
L 299 351
L 302 351
L 304 351
L 307 351
L 309 351
L 311 351
L 314 351
L 316 351
L 318 351
L 321 351
L 323 351
L 325 351
L 328 351
L 330 351
L 332 351
L 335 351
L 337 351
L 339 351
L 342 351
L 344 351
L 346 351
L 349 351
L 351 351
L 354 351
L 356 351
L 358 351
L 361 351
L 363 351
L 365 351
L 368 351
L 370 351
L 372 351
L 375 351
L 377 351
L 379 351
L 382 351
L 384 351
L 386 351
L 389 351
L 391 351
L 394 351
L 396 351
L 398 351
L 401 351
L 403 351
L 405 351
L 408 351
L 410 351
L 412 351
L 415 351
L 417 351
L 419 351
L 422 351
L 424 351
L 426 351
L 429 351
L 431 351
L 433 351
L 436 351
L 438 351
L 441 351
L 443 351
L 445 351
L 448 351
L 450 351
L 452 351
L 455 351
L 457 351
L 459 351
L 462 351
L 464 351
L 466 351
L 469 351
L 471 351
L 473 351
L 476 351
L 478 351
L 480 351
L 483 351
L 485 351
L 488 351
L 490 351
L 492 351
L 495 351
L 497 351
L 499 351
L 502 351
L 504 351
L 506 351
L 509 351
L 511 351
L 513 351
L 516 351
L 518 351
L 520 351
L 523 351
L 525 351
L 528 351
L 530 351
L 532 351
L 535 351
L 537 350
L 539 351
L 542 351
L 544 351
L 546 350
L 549 351
L 551 351
L 553 351
L 556 351
L 558 351
L 560 350
L 563 351
L 565 351
L 567 349
L 570 351
L 572 350
L 575 351
L 577 351
L 579 351
L 582 351
L 584 351
L 586 351
L 589 351
L 591 351
L 593 351
L 596 351
L 598 351
L 600 351
L 603 351
L 605 351
L 607 351
L 610 351
L 612 351
L 614 350
L 617 351
L 619 351
L 622 351
L 624 351
L 626 351
L 629 351
L 631 351
L 633 351
L 636 351
L 638 351
L 640 351
L 643 351
L 645 351
L 647 351
L 650 350
L 652 351
L 654 351
L 657 351
L 659 351
L 662 351
L 664 351
L 666 350
L 669 350
L 671 351
L 673 351
L 676 351
L 678 351
L 680 350
L 683 351
L 685 351
L 687 349
L 690 350
L 692 350
L 694 351
L 697 350
L 699 351
L 701 350
L 704 350
L 706 351
L 709 349
L 711 348
L 713 351
L 716 349
L 718 351
L 720 349
L 723 349
L 725 351
L 727 350
L 730 351
L 732 351
L 734 350
L 737 351
L 739 351
L 741 351
L 744 351
L 746 350
L 749 351
L 751 351
L 753 351
L 756 350
L 758 350
L 760 351
L 763 351
L 765 351
L 767 351
L 770 351
L 772 351
L 774 351
L 777 351
L 779 351
L 781 351
L 784 350
L 786 351
L 788 351
L 791 351
L 793 351
L 796 351
L 798 351
L 800 351
L 803 351
L 805 350
L 807 351
L 810 351
L 812 351
L 814 350
L 817 351
L 819 351
L 821 351
L 824 351
L 826 351
L 828 350
L 831 351
L 833 351
L 835 351
L 838 351
L 840 351
L 843 351
L 845 351
L 847 351
L 850 351
L 852 351
L 854 351
L 857 351
L 859 351
L 861 351
L 864 351
L 866 351
L 868 351
L 871 351
L 873 351
L 875 351
L 878 351
L 880 351
L 883 351
L 885 351
L 887 351
L 890 350
L 892 351
L 894 351
L 897 351
L 899 351
L 901 351
L 904 351
L 906 351
L 908 351
L 911 351
L 913 351
L 915 351
L 918 351
L 920 351
L 922 351
L 925 351
L 927 351
L 930 351
L 932 351
L 934 350
L 937 351
L 939 350
L 941 351
L 944 349
L 946 351
L 948 351
L 951 350
L 953 351
L 955 351
L 958 351
L 960 351
L 962 351
L 965 351
L 967 351
L 969 351" style="stroke-width:1;stroke:rgba(217,0,116,1.0);fill:none"/><text x="349" y="33" style="stroke-width:0;stroke:none;fill:rgba(51,51,51,1.0);font-size:23.0px;font-family:'Roboto Medium',sans-serif">Sankt Pölten(Stadt) 28.03.2021</text><path  d="M 38 11
L 251 11
L 251 91
L 38 91
L 38 11" style="stroke-width:1;stroke:rgba(51,51,51,1.0);fill:rgba(255,255,255,1.0)"/><text x="43" y="26" style="stroke-width:0;stroke:none;fill:rgba(51,51,51,1.0);font-size:10.2px;font-family:'Roboto Medium',sans-serif">Sieben Tage Durschnitt Inzidenz Fälle</text><path  d="M 221 21
L 241 21" style="stroke-width:1;stroke:rgba(0,116,217,1.0);fill:none"/><text x="43" y="56" style="stroke-width:0;stroke:none;fill:rgba(51,51,51,1.0);font-size:10.2px;font-family:'Roboto Medium',sans-serif">Anzahl Faelle</text><path  d="M 110 51
L 241 51" style="stroke-width:1;stroke:rgba(0,217,101,1.0);fill:none"/><text x="43" y="86" style="stroke-width:0;stroke:none;fill:rgba(51,51,51,1.0);font-size:10.2px;font-family:'Roboto Medium',sans-serif">Anzahl Tot</text><path  d="M 98 81
L 241 81" style="stroke-width:1;stroke:rgba(217,0,116,1.0);fill:none"/></svg>