<svg xmlns="http://www.w3.org/2000/svg" xmlns:xlink="http://www.w3.org/1999/xlink" width="1024" height="400">\n<path  d="M 0 0
L 1024 0
L 1024 400
L 0 400
L 0 0" style="stroke-width:0;stroke:rgba(255,255,255,1.0);fill:rgba(255,255,255,1.0)"/><path  d="M 38 11
L 961 11
L 961 351
L 38 351
L 38 11" style="stroke-width:0;stroke:rgba(255,255,255,1.0);fill:rgba(255,255,255,1.0)"/><path  d="M 38 351
L 961 351" style="stroke-width:1;stroke:rgba(51,51,51,1.0);fill:none"/><path  d="M 38 351
L 38 356" style="stroke-width:1;stroke:rgba(51,51,51,1.0);fill:none"/><text x="5" y="373" style="stroke-width:0;stroke:none;fill:rgba(51,51,51,1.0);font-size:12.8px;font-family:'Roboto Medium',sans-serif">2020-02-26</text><path  d="M 154 351
L 154 356" style="stroke-width:1;stroke:rgba(51,51,51,1.0);fill:none"/><text x="121" y="373" style="stroke-width:0;stroke:none;fill:rgba(51,51,51,1.0);font-size:12.8px;font-family:'Roboto Medium',sans-serif">2020-05-23</text><path  d="M 269 351
L 269 356" style="stroke-width:1;stroke:rgba(51,51,51,1.0);fill:none"/><text x="236" y="373" style="stroke-width:0;stroke:none;fill:rgba(51,51,51,1.0);font-size:12.8px;font-family:'Roboto Medium',sans-serif">2020-08-18</text><path  d="M 385 351
L 385 356" style="stroke-width:1;stroke:rgba(51,51,51,1.0);fill:none"/><text x="352" y="373" style="stroke-width:0;stroke:none;fill:rgba(51,51,51,1.0);font-size:12.8px;font-family:'Roboto Medium',sans-serif">2020-11-13</text><path  d="M 500 351
L 500 356" style="stroke-width:1;stroke:rgba(51,51,51,1.0);fill:none"/><text x="467" y="373" style="stroke-width:0;stroke:none;fill:rgba(51,51,51,1.0);font-size:12.8px;font-family:'Roboto Medium',sans-serif">2021-02-08</text><path  d="M 615 351
L 615 356" style="stroke-width:1;stroke:rgba(51,51,51,1.0);fill:none"/><text x="582" y="373" style="stroke-width:0;stroke:none;fill:rgba(51,51,51,1.0);font-size:12.8px;font-family:'Roboto Medium',sans-serif">2021-05-06</text><path  d="M 731 351
L 731 356" style="stroke-width:1;stroke:rgba(51,51,51,1.0);fill:none"/><text x="698" y="373" style="stroke-width:0;stroke:none;fill:rgba(51,51,51,1.0);font-size:12.8px;font-family:'Roboto Medium',sans-serif">2021-08-01</text><path  d="M 846 351
L 846 356" style="stroke-width:1;stroke:rgba(51,51,51,1.0);fill:none"/><text x="813" y="373" style="stroke-width:0;stroke:none;fill:rgba(51,51,51,1.0);font-size:12.8px;font-family:'Roboto Medium',sans-serif">2021-10-27</text><path  d="M 961 351
L 961 356" style="stroke-width:1;stroke:rgba(51,51,51,1.0);fill:none"/><text x="928" y="373" style="stroke-width:0;stroke:none;fill:rgba(51,51,51,1.0);font-size:12.8px;font-family:'Roboto Medium',sans-serif">2022-01-23</text><text x="481" y="395" style="stroke-width:0;stroke:none;fill:rgba(51,51,51,1.0);font-size:12.8px;font-family:'Roboto Medium',sans-serif">Datum</text><path  d="M 962 351
L 962 11" style="stroke-width:1;stroke:rgba(51,51,51,1.0);fill:none"/><path  d="M 962 351
L 967 351" style="stroke-width:1;stroke:rgba(51,51,51,1.0);fill:none"/><text x="972" y="357" style="stroke-width:0;stroke:none;fill:rgba(51,51,51,1.0);font-size:12.8px;font-family:'Roboto Medium',sans-serif">0.00</text><path  d="M 962 306
L 967 306" style="stroke-width:1;stroke:rgba(51,51,51,1.0);fill:none"/><text x="972" y="312" style="stroke-width:0;stroke:none;fill:rgba(51,51,51,1.0);font-size:12.8px;font-family:'Roboto Medium',sans-serif">220.00</text><path  d="M 962 265
L 967 265" style="stroke-width:1;stroke:rgba(51,51,51,1.0);fill:none"/><text x="972" y="271" style="stroke-width:0;stroke:none;fill:rgba(51,51,51,1.0);font-size:12.8px;font-family:'Roboto Medium',sans-serif">430.00</text><path  d="M 962 223
L 967 223" style="stroke-width:1;stroke:rgba(51,51,51,1.0);fill:none"/><text x="972" y="229" style="stroke-width:0;stroke:none;fill:rgba(51,51,51,1.0);font-size:12.8px;font-family:'Roboto Medium',sans-serif">640.00</text><path  d="M 962 181
L 967 181" style="stroke-width:1;stroke:rgba(51,51,51,1.0);fill:none"/><text x="972" y="187" style="stroke-width:0;stroke:none;fill:rgba(51,51,51,1.0);font-size:12.8px;font-family:'Roboto Medium',sans-serif">850.00</text><path  d="M 962 137
L 967 137" style="stroke-width:1;stroke:rgba(51,51,51,1.0);fill:none"/><text x="972" y="143" style="stroke-width:0;stroke:none;fill:rgba(51,51,51,1.0);font-size:12.8px;font-family:'Roboto Medium',sans-serif">1070.00</text><path  d="M 962 95
L 967 95" style="stroke-width:1;stroke:rgba(51,51,51,1.0);fill:none"/><text x="972" y="101" style="stroke-width:0;stroke:none;fill:rgba(51,51,51,1.0);font-size:12.8px;font-family:'Roboto Medium',sans-serif">1280.00</text><path  d="M 962 53
L 967 53" style="stroke-width:1;stroke:rgba(51,51,51,1.0);fill:none"/><text x="972" y="59" style="stroke-width:0;stroke:none;fill:rgba(51,51,51,1.0);font-size:12.8px;font-family:'Roboto Medium',sans-serif">1490.00</text><path  d="M 962 11
L 967 11" style="stroke-width:1;stroke:rgba(51,51,51,1.0);fill:none"/><text x="972" y="17" style="stroke-width:0;stroke:none;fill:rgba(51,51,51,1.0);font-size:12.8px;font-family:'Roboto Medium',sans-serif">1700.00</text><path  d="M 38 351
L 40 351
L 41 351
L 42 351
L 44 351
L 45 351
L 46 351
L 48 351
L 49 351
L 50 351
L 52 351
L 53 351
L 54 351
L 56 351
L 57 351
L 58 351
L 60 351
L 61 350
L 62 350
L 64 350
L 65 349
L 66 349
L 68 349
L 69 347
L 70 348
L 72 347
L 73 347
L 74 346
L 76 344
L 77 342
L 78 340
L 80 339
L 81 338
L 82 337
L 84 337
L 85 338
L 86 340
L 87 342
L 89 341
L 90 343
L 91 342
L 93 342
L 94 344
L 95 343
L 97 345
L 98 347
L 99 347
L 101 348
L 102 349
L 103 349
L 105 349
L 106 349
L 107 349
L 109 349
L 110 349
L 111 350
L 113 349
L 114 350
L 115 350
L 117 349
L 118 349
L 119 349
L 121 349
L 122 350
L 123 349
L 125 350
L 126 350
L 127 350
L 129 350
L 130 350
L 131 350
L 133 350
L 134 350
L 135 350
L 136 350
L 138 350
L 139 350
L 140 350
L 142 351
L 143 351
L 144 351
L 146 351
L 147 351
L 148 351
L 150 351
L 151 351
L 152 351
L 154 351
L 155 351
L 156 351
L 158 351
L 159 351
L 160 351
L 162 351
L 163 351
L 164 351
L 166 351
L 167 351
L 168 351
L 170 351
L 171 350
L 172 350
L 174 350
L 175 350
L 176 350
L 178 350
L 179 350
L 180 350
L 182 351
L 183 351
L 184 351
L 185 351
L 187 351
L 188 350
L 189 350
L 191 349
L 192 349
L 193 349
L 195 349
L 196 349
L 197 349
L 199 349
L 200 350
L 201 349
L 203 350
L 204 350
L 205 349
L 207 349
L 208 349
L 209 349
L 211 349
L 212 349
L 213 349
L 215 350
L 216 350
L 217 350
L 219 350
L 220 350
L 221 350
L 223 350
L 224 350
L 225 350
L 227 349
L 228 349
L 229 349
L 231 349
L 232 349
L 233 349
L 234 349
L 236 349
L 237 350
L 238 350
L 240 349
L 241 349
L 242 349
L 244 349
L 245 350
L 246 349
L 248 349
L 249 349
L 250 349
L 252 349
L 253 349
L 254 349
L 256 349
L 257 349
L 258 349
L 260 348
L 261 349
L 262 349
L 264 348
L 265 348
L 266 348
L 268 349
L 269 349
L 270 349
L 272 348
L 273 349
L 274 349
L 276 349
L 277 349
L 278 349
L 280 348
L 281 348
L 282 348
L 283 348
L 285 347
L 286 347
L 287 347
L 289 347
L 290 347
L 291 348
L 293 347
L 294 348
L 295 347
L 297 345
L 298 345
L 299 344
L 301 343
L 302 343
L 303 342
L 305 342
L 306 342
L 307 342
L 309 342
L 310 343
L 311 341
L 313 342
L 314 342
L 315 343
L 317 342
L 318 342
L 319 339
L 321 340
L 322 339
L 323 339
L 325 336
L 326 335
L 327 334
L 329 335
L 330 333
L 331 330
L 332 328
L 334 327
L 335 326
L 336 325
L 338 323
L 339 324
L 340 326
L 342 327
L 343 329
L 344 327
L 346 327
L 347 327
L 348 329
L 350 331
L 351 330
L 352 330
L 354 332
L 355 328
L 356 328
L 358 326
L 359 322
L 360 323
L 362 316
L 363 310
L 364 308
L 366 298
L 367 295
L 368 294
L 370 284
L 371 279
L 372 275
L 374 273
L 375 267
L 376 262
L 378 260
L 379 264
L 380 264
L 381 270
L 383 269
L 384 279
L 385 279
L 387 273
L 388 262
L 389 262
L 391 258
L 392 252
L 393 248
L 395 250
L 396 255
L 397 262
L 399 263
L 400 260
L 401 266
L 403 263
L 404 255
L 405 250
L 407 259
L 408 254
L 409 265
L 411 257
L 412 264
L 413 271
L 415 279
L 416 276
L 417 288
L 419 288
L 420 294
L 421 299
L 423 304
L 424 305
L 425 304
L 427 303
L 428 301
L 429 306
L 430 307
L 432 309
L 433 311
L 434 318
L 436 317
L 437 320
L 438 327
L 440 329
L 441 330
L 442 333
L 444 330
L 445 331
L 446 329
L 448 330
L 449 330
L 450 329
L 452 329
L 453 329
L 454 327
L 456 327
L 457 327
L 458 327
L 460 326
L 461 325
L 462 326
L 464 329
L 465 332
L 466 329
L 468 328
L 469 330
L 470 329
L 472 329
L 473 330
L 474 332
L 476 335
L 477 337
L 478 335
L 479 338
L 481 340
L 482 342
L 483 343
L 485 339
L 486 337
L 487 339
L 489 338
L 490 337
L 491 338
L 493 337
L 494 340
L 495 341
L 497 341
L 498 342
L 499 344
L 501 343
L 502 341
L 503 340
L 505 339
L 506 339
L 507 338
L 509 337
L 510 335
L 511 335
L 513 334
L 514 334
L 515 333
L 517 333
L 518 330
L 519 330
L 521 330
L 522 328
L 523 326
L 524 318
L 526 317
L 527 314
L 528 309
L 530 310
L 531 310
L 532 308
L 534 309
L 535 307
L 536 307
L 538 312
L 539 310
L 540 304
L 542 301
L 543 299
L 544 300
L 546 299
L 547 299
L 548 300
L 550 305
L 551 308
L 552 313
L 554 310
L 555 313
L 556 311
L 558 308
L 559 308
L 560 304
L 562 305
L 563 305
L 564 300
L 566 301
L 567 301
L 568 296
L 570 298
L 571 295
L 572 296
L 573 301
L 575 300
L 576 304
L 577 308
L 579 310
L 580 315
L 581 315
L 583 315
L 584 317
L 585 317
L 587 314
L 588 318
L 589 315
L 591 315
L 592 317
L 593 316
L 595 313
L 596 315
L 597 314
L 599 316
L 600 319
L 601 315
L 603 315
L 604 316
L 605 317
L 607 316
L 608 313
L 609 313
L 611 317
L 612 318
L 613 320
L 615 319
L 616 321
L 617 322
L 619 323
L 620 322
L 621 323
L 622 322
L 624 324
L 625 324
L 626 326
L 628 328
L 629 330
L 630 330
L 632 332
L 633 332
L 634 334
L 636 335
L 637 336
L 638 338
L 640 339
L 641 340
L 642 342
L 644 342
L 645 342
L 646 342
L 648 342
L 649 343
L 650 344
L 652 344
L 653 345
L 654 344
L 656 345
L 657 345
L 658 344
L 660 343
L 661 344
L 662 344
L 664 345
L 665 345
L 666 346
L 668 348
L 669 348
L 670 348
L 671 348
L 673 348
L 674 348
L 675 348
L 677 348
L 678 348
L 679 348
L 681 349
L 682 349
L 683 348
L 685 348
L 686 348
L 687 346
L 689 345
L 690 344
L 691 343
L 693 344
L 694 345
L 695 344
L 697 345
L 698 345
L 699 346
L 701 347
L 702 347
L 703 345
L 705 345
L 706 345
L 707 346
L 709 345
L 710 344
L 711 344
L 713 346
L 714 346
L 715 346
L 717 347
L 718 348
L 719 348
L 720 348
L 722 348
L 723 348
L 724 348
L 726 347
L 727 346
L 728 346
L 730 347
L 731 346
L 732 345
L 734 344
L 735 343
L 736 344
L 738 344
L 739 344
L 740 342
L 742 339
L 743 338
L 744 332
L 746 328
L 747 326
L 748 323
L 750 323
L 751 325
L 752 326
L 754 327
L 755 327
L 756 327
L 758 329
L 759 330
L 760 327
L 762 324
L 763 329
L 764 328
L 766 327
L 767 328
L 768 328
L 769 330
L 771 331
L 772 331
L 773 330
L 775 332
L 776 332
L 777 329
L 779 325
L 780 318
L 781 313
L 783 312
L 784 310
L 785 308
L 787 310
L 788 314
L 789 317
L 791 321
L 792 318
L 793 319
L 795 319
L 796 318
L 797 316
L 799 318
L 800 319
L 801 324
L 803 324
L 804 325
L 805 325
L 807 324
L 808 325
L 809 323
L 811 323
L 812 322
L 813 324
L 815 324
L 816 327
L 817 329
L 818 330
L 820 330
L 821 331
L 822 331
L 824 332
L 825 329
L 826 331
L 828 331
L 829 332
L 830 333
L 832 331
L 833 327
L 834 328
L 836 323
L 837 320
L 838 316
L 840 313
L 841 313
L 842 315
L 844 314
L 845 311
L 846 306
L 848 300
L 849 293
L 850 288
L 852 276
L 853 270
L 854 265
L 856 252
L 857 241
L 858 231
L 860 220
L 861 207
L 862 193
L 864 172
L 865 176
L 866 169
L 867 160
L 869 149
L 870 160
L 871 160
L 873 169
L 874 172
L 875 180
L 877 184
L 878 189
L 879 183
L 881 182
L 882 177
L 883 173
L 885 172
L 886 175
L 887 187
L 889 194
L 890 202
L 891 211
L 893 215
L 894 222
L 895 235
L 897 238
L 898 247
L 899 250
L 901 261
L 902 271
L 903 277
L 905 281
L 906 283
L 907 286
L 909 290
L 910 294
L 911 298
L 913 302
L 914 304
L 915 311
L 916 313
L 918 319
L 919 321
L 920 320
L 922 324
L 923 326
L 924 325
L 926 325
L 927 324
L 928 324
L 930 319
L 931 314
L 932 314
L 934 311
L 935 307
L 936 291
L 938 271
L 939 264
L 940 257
L 942 240
L 943 231
L 944 213
L 946 204
L 947 211
L 948 193
L 950 172
L 951 161
L 952 137
L 954 120
L 955 106
L 956 81
L 958 53
L 959 37
L 960 27
L 961 12" style="stroke-width:1;stroke:rgba(0,116,217,1.0);fill:none"/><path  d="M 38 351
L 40 351
L 41 351
L 42 351
L 44 351
L 45 351
L 46 351
L 48 351
L 49 351
L 50 351
L 52 351
L 53 351
L 54 351
L 56 351
L 57 351
L 58 351
L 60 351
L 61 350
L 62 351
L 64 351
L 65 350
L 66 351
L 68 350
L 69 350
L 70 351
L 72 350
L 73 350
L 74 350
L 76 349
L 77 349
L 78 348
L 80 350
L 81 350
L 82 350
L 84 350
L 85 350
L 86 350
L 87 350
L 89 350
L 90 351
L 91 350
L 93 350
L 94 351
L 95 350
L 97 350
L 98 351
L 99 351
L 101 350
L 102 350
L 103 351
L 105 350
L 106 351
L 107 351
L 109 351
L 110 351
L 111 351
L 113 350
L 114 351
L 115 350
L 117 350
L 118 351
L 119 351
L 121 351
L 122 351
L 123 350
L 125 351
L 126 351
L 127 351
L 129 351
L 130 351
L 131 351
L 133 350
L 134 351
L 135 351
L 136 351
L 138 351
L 139 351
L 140 351
L 142 351
L 143 351
L 144 351
L 146 351
L 147 351
L 148 351
L 150 351
L 151 351
L 152 351
L 154 351
L 155 351
L 156 351
L 158 351
L 159 351
L 160 351
L 162 351
L 163 351
L 164 351
L 166 351
L 167 351
L 168 351
L 170 351
L 171 350
L 172 350
L 174 351
L 175 351
L 176 351
L 178 351
L 179 351
L 180 351
L 182 351
L 183 351
L 184 351
L 185 351
L 187 351
L 188 350
L 189 351
L 191 350
L 192 351
L 193 350
L 195 351
L 196 351
L 197 351
L 199 351
L 200 351
L 201 350
L 203 351
L 204 351
L 205 350
L 207 350
L 208 351
L 209 351
L 211 350
L 212 351
L 213 351
L 215 351
L 216 350
L 217 351
L 219 351
L 220 351
L 221 351
L 223 351
L 224 351
L 225 350
L 227 350
L 228 350
L 229 351
L 231 351
L 232 351
L 233 351
L 234 351
L 236 350
L 237 351
L 238 351
L 240 350
L 241 351
L 242 351
L 244 351
L 245 351
L 246 350
L 248 350
L 249 351
L 250 350
L 252 350
L 253 351
L 254 351
L 256 351
L 257 350
L 258 350
L 260 350
L 261 351
L 262 351
L 264 350
L 265 350
L 266 351
L 268 351
L 269 350
L 270 351
L 272 350
L 273 351
L 274 351
L 276 351
L 277 350
L 278 350
L 280 350
L 281 350
L 282 350
L 283 351
L 285 350
L 286 351
L 287 350
L 289 350
L 290 351
L 291 350
L 293 350
L 294 351
L 295 350
L 297 349
L 298 350
L 299 350
L 301 350
L 302 350
L 303 350
L 305 350
L 306 349
L 307 350
L 309 350
L 310 350
L 311 349
L 313 350
L 314 350
L 315 350
L 317 350
L 318 350
L 319 349
L 321 350
L 322 350
L 323 350
L 325 349
L 326 350
L 327 349
L 329 349
L 330 348
L 331 349
L 332 348
L 334 348
L 335 349
L 336 349
L 338 348
L 339 349
L 340 350
L 342 349
L 343 349
L 344 348
L 346 349
L 347 348
L 348 350
L 350 350
L 351 348
L 352 349
L 354 349
L 355 347
L 356 348
L 358 349
L 359 348
L 360 349
L 362 346
L 363 345
L 364 346
L 366 343
L 367 347
L 368 347
L 370 343
L 371 343
L 372 343
L 374 345
L 375 339
L 376 344
L 378 346
L 379 345
L 380 344
L 381 346
L 383 344
L 384 345
L 385 344
L 387 343
L 388 339
L 389 343
L 391 344
L 392 341
L 393 343
L 395 345
L 396 345
L 397 343
L 399 344
L 400 342
L 401 344
L 403 341
L 404 341
L 405 343
L 407 348
L 408 341
L 409 348
L 411 339
L 412 345
L 413 345
L 415 347
L 416 346
L 417 348
L 419 348
L 420 343
L 421 348
L 423 348
L 424 347
L 425 346
L 427 347
L 428 347
L 429 345
L 430 349
L 432 349
L 433 348
L 434 350
L 436 347
L 437 349
L 438 349
L 440 350
L 441 350
L 442 350
L 444 348
L 445 347
L 446 348
L 448 349
L 449 350
L 450 350
L 452 350
L 453 348
L 454 346
L 456 348
L 457 350
L 458 349
L 460 349
L 461 349
L 462 349
L 464 348
L 465 349
L 466 348
L 468 349
L 469 350
L 470 349
L 472 349
L 473 349
L 474 350
L 476 350
L 477 350
L 478 349
L 479 350
L 481 350
L 482 350
L 483 350
L 485 348
L 486 349
L 487 350
L 489 350
L 490 349
L 491 350
L 493 350
L 494 350
L 495 350
L 497 350
L 498 350
L 499 350
L 501 349
L 502 349
L 503 349
L 505 349
L 506 350
L 507 350
L 509 349
L 510 349
L 511 349
L 513 349
L 514 349
L 515 350
L 517 350
L 518 348
L 519 349
L 521 348
L 522 348
L 523 348
L 524 345
L 526 350
L 527 346
L 528 346
L 530 349
L 531 348
L 532 347
L 534 346
L 535 348
L 536 346
L 538 348
L 539 348
L 540 345
L 542 345
L 543 345
L 544 348
L 546 346
L 547 349
L 548 348
L 550 348
L 551 346
L 552 348
L 554 347
L 555 347
L 556 347
L 558 346
L 559 348
L 560 344
L 562 349
L 563 347
L 564 345
L 566 348
L 567 347
L 568 345
L 570 345
L 571 347
L 572 348
L 573 347
L 575 347
L 576 349
L 577 348
L 579 347
L 580 350
L 581 347
L 583 348
L 584 348
L 585 349
L 587 346
L 588 349
L 589 348
L 591 347
L 592 349
L 593 347
L 595 347
L 596 347
L 597 348
L 599 349
L 600 349
L 601 347
L 603 347
L 604 347
L 605 348
L 607 348
L 608 347
L 609 349
L 611 349
L 612 348
L 613 348
L 615 348
L 616 349
L 617 348
L 619 349
L 620 348
L 621 349
L 622 348
L 624 349
L 625 348
L 626 349
L 628 350
L 629 349
L 630 349
L 632 349
L 633 349
L 634 349
L 636 350
L 637 350
L 638 350
L 640 350
L 641 350
L 642 350
L 644 350
L 645 350
L 646 350
L 648 350
L 649 350
L 650 350
L 652 350
L 653 351
L 654 349
L 656 351
L 657 350
L 658 350
L 660 350
L 661 350
L 662 350
L 664 350
L 665 351
L 666 350
L 668 351
L 669 350
L 670 350
L 671 350
L 673 350
L 674 351
L 675 350
L 677 350
L 678 351
L 679 350
L 681 351
L 682 351
L 683 350
L 685 350
L 686 350
L 687 350
L 689 350
L 690 350
L 691 350
L 693 351
L 694 350
L 695 350
L 697 350
L 698 350
L 699 351
L 701 351
L 702 350
L 703 350
L 705 350
L 706 350
L 707 350
L 709 350
L 710 350
L 711 350
L 713 350
L 714 350
L 715 350
L 717 351
L 718 351
L 719 350
L 720 350
L 722 350
L 723 350
L 724 350
L 726 350
L 727 350
L 728 350
L 730 350
L 731 350
L 732 350
L 734 350
L 735 350
L 736 351
L 738 350
L 739 350
L 740 349
L 742 348
L 743 349
L 744 346
L 746 349
L 747 349
L 748 348
L 750 349
L 751 349
L 752 350
L 754 346
L 755 349
L 756 350
L 758 349
L 759 349
L 760 348
L 762 348
L 763 349
L 764 349
L 766 349
L 767 350
L 768 349
L 769 349
L 771 349
L 772 349
L 773 348
L 775 350
L 776 349
L 777 348
L 779 347
L 780 345
L 781 346
L 783 347
L 784 349
L 785 348
L 787 349
L 788 349
L 789 346
L 791 349
L 792 346
L 793 350
L 795 348
L 796 349
L 797 348
L 799 347
L 800 349
L 801 349
L 803 349
L 804 348
L 805 349
L 807 348
L 808 348
L 809 348
L 811 349
L 812 349
L 813 350
L 815 349
L 816 349
L 817 349
L 818 349
L 820 349
L 821 349
L 822 350
L 824 350
L 825 348
L 826 350
L 828 349
L 829 350
L 830 349
L 832 349
L 833 347
L 834 348
L 836 347
L 837 347
L 838 348
L 840 348
L 841 348
L 842 349
L 844 347
L 845 346
L 846 344
L 848 344
L 849 344
L 850 345
L 852 342
L 853 344
L 854 343
L 856 337
L 857 337
L 858 339
L 860 339
L 861 335
L 862 336
L 864 331
L 865 339
L 866 334
L 867 333
L 869 333
L 870 341
L 871 337
L 873 336
L 874 341
L 875 338
L 877 335
L 878 336
L 879 337
L 881 336
L 882 333
L 883 338
L 885 338
L 886 337
L 887 343
L 889 341
L 890 341
L 891 338
L 893 341
L 894 342
L 895 344
L 897 344
L 898 346
L 899 342
L 901 345
L 902 346
L 903 345
L 905 347
L 906 345
L 907 348
L 909 344
L 910 347
L 911 348
L 913 348
L 914 348
L 915 349
L 916 349
L 918 348
L 919 348
L 920 348
L 922 350
L 923 349
L 924 349
L 926 349
L 927 347
L 928 348
L 930 345
L 931 347
L 932 349
L 934 347
L 935 347
L 936 338
L 938 337
L 939 341
L 940 343
L 942 339
L 943 342
L 944 337
L 946 334
L 947 341
L 948 331
L 950 331
L 951 334
L 952 328
L 954 327
L 955 326
L 956 327
L 958 315
L 959 322
L 960 328
L 961 320" style="stroke-width:1;stroke:rgba(0,217,101,1.0);fill:none"/><path  d="M 38 351
L 40 351
L 41 351
L 42 351
L 44 351
L 45 351
L 46 351
L 48 351
L 49 351
L 50 351
L 52 351
L 53 351
L 54 351
L 56 351
L 57 351
L 58 351
L 60 351
L 61 351
L 62 351
L 64 351
L 65 351
L 66 350
L 68 351
L 69 351
L 70 351
L 72 351
L 73 351
L 74 351
L 76 351
L 77 351
L 78 351
L 80 351
L 81 351
L 82 351
L 84 351
L 85 351
L 86 351
L 87 351
L 89 351
L 90 351
L 91 351
L 93 351
L 94 351
L 95 351
L 97 351
L 98 351
L 99 351
L 101 351
L 102 351
L 103 351
L 105 351
L 106 351
L 107 351
L 109 351
L 110 351
L 111 351
L 113 351
L 114 351
L 115 351
L 117 351
L 118 351
L 119 351
L 121 351
L 122 351
L 123 351
L 125 351
L 126 351
L 127 351
L 129 351
L 130 351
L 131 351
L 133 351
L 134 351
L 135 351
L 136 351
L 138 351
L 139 350
L 140 351
L 142 351
L 143 351
L 144 351
L 146 351
L 147 351
L 148 351
L 150 351
L 151 351
L 152 351
L 154 351
L 155 351
L 156 351
L 158 351
L 159 351
L 160 351
L 162 351
L 163 351
L 164 351
L 166 351
L 167 351
L 168 351
L 170 350
L 171 351
L 172 351
L 174 351
L 175 351
L 176 351
L 178 351
L 179 351
L 180 351
L 182 351
L 183 351
L 184 351
L 185 351
L 187 351
L 188 351
L 189 351
L 191 351
L 192 351
L 193 351
L 195 351
L 196 351
L 197 351
L 199 351
L 200 351
L 201 351
L 203 351
L 204 351
L 205 351
L 207 351
L 208 351
L 209 351
L 211 351
L 212 351
L 213 351
L 215 351
L 216 351
L 217 351
L 219 351
L 220 351
L 221 351
L 223 351
L 224 351
L 225 351
L 227 351
L 228 351
L 229 351
L 231 351
L 232 351
L 233 351
L 234 351
L 236 351
L 237 351
L 238 351
L 240 351
L 241 351
L 242 351
L 244 351
L 245 351
L 246 351
L 248 351
L 249 351
L 250 351
L 252 351
L 253 351
L 254 351
L 256 351
L 257 351
L 258 351
L 260 351
L 261 351
L 262 351
L 264 351
L 265 351
L 266 351
L 268 351
L 269 351
L 270 351
L 272 351
L 273 351
L 274 351
L 276 351
L 277 351
L 278 351
L 280 351
L 281 351
L 282 351
L 283 351
L 285 351
L 286 351
L 287 351
L 289 351
L 290 351
L 291 351
L 293 351
L 294 351
L 295 351
L 297 351
L 298 351
L 299 351
L 301 351
L 302 351
L 303 351
L 305 351
L 306 351
L 307 351
L 309 351
L 310 351
L 311 351
L 313 351
L 314 351
L 315 351
L 317 351
L 318 351
L 319 350
L 321 351
L 322 351
L 323 351
L 325 350
L 326 351
L 327 351
L 329 351
L 330 351
L 331 351
L 332 350
L 334 351
L 335 351
L 336 350
L 338 351
L 339 350
L 340 351
L 342 351
L 343 351
L 344 351
L 346 351
L 347 351
L 348 351
L 350 351
L 351 351
L 352 351
L 354 351
L 355 351
L 356 351
L 358 351
L 359 351
L 360 351
L 362 351
L 363 350
L 364 351
L 366 351
L 367 351
L 368 351
L 370 351
L 371 351
L 372 351
L 374 351
L 375 351
L 376 351
L 378 351
L 379 351
L 380 351
L 381 351
L 383 350
L 384 351
L 385 351
L 387 351
L 388 351
L 389 351
L 391 351
L 392 350
L 393 350
L 395 351
L 396 351
L 397 351
L 399 351
L 400 350
L 401 351
L 403 351
L 404 350
L 405 350
L 407 350
L 408 351
L 409 350
L 411 351
L 412 350
L 413 350
L 415 351
L 416 350
L 417 350
L 419 351
L 420 350
L 421 351
L 423 350
L 424 350
L 425 351
L 427 350
L 428 351
L 429 351
L 430 350
L 432 351
L 433 351
L 434 351
L 436 351
L 437 350
L 438 351
L 440 351
L 441 351
L 442 350
L 444 350
L 445 351
L 446 351
L 448 351
L 449 351
L 450 351
L 452 351
L 453 351
L 454 351
L 456 351
L 457 351
L 458 350
L 460 351
L 461 351
L 462 351
L 464 351
L 465 351
L 466 351
L 468 351
L 469 351
L 470 350
L 472 351
L 473 351
L 474 351
L 476 350
L 477 351
L 478 351
L 479 351
L 481 351
L 482 351
L 483 350
L 485 351
L 486 351
L 487 351
L 489 351
L 490 351
L 491 351
L 493 351
L 494 351
L 495 351
L 497 351
L 498 351
L 499 351
L 501 351
L 502 351
L 503 351
L 505 351
L 506 351
L 507 351
L 509 351
L 510 351
L 511 351
L 513 351
L 514 351
L 515 351
L 517 351
L 518 350
L 519 351
L 521 351
L 522 351
L 523 351
L 524 351
L 526 351
L 527 351
L 528 351
L 530 351
L 531 351
L 532 351
L 534 351
L 535 351
L 536 351
L 538 351
L 539 351
L 540 351
L 542 351
L 543 350
L 544 351
L 546 350
L 547 351
L 548 350
L 550 351
L 551 351
L 552 350
L 554 351
L 555 351
L 556 351
L 558 351
L 559 351
L 560 351
L 562 351
L 563 351
L 564 350
L 566 351
L 567 351
L 568 351
L 570 351
L 571 351
L 572 350
L 573 351
L 575 351
L 576 351
L 577 351
L 579 351
L 580 351
L 581 351
L 583 351
L 584 350
L 585 350
L 587 351
L 588 351
L 589 351
L 591 351
L 592 350
L 593 351
L 595 351
L 596 350
L 597 351
L 599 351
L 600 351
L 601 351
L 603 351
L 604 351
L 605 351
L 607 351
L 608 351
L 609 351
L 611 351
L 612 351
L 613 351
L 615 351
L 616 351
L 617 351
L 619 351
L 620 351
L 621 351
L 622 350
L 624 351
L 625 351
L 626 351
L 628 351
L 629 350
L 630 351
L 632 351
L 633 351
L 634 351
L 636 351
L 637 351
L 638 351
L 640 350
L 641 351
L 642 351
L 644 351
L 645 351
L 646 351
L 648 351
L 649 351
L 650 351
L 652 351
L 653 351
L 654 351
L 656 351
L 657 351
L 658 351
L 660 351
L 661 351
L 662 351
L 664 351
L 665 351
L 666 351
L 668 351
L 669 351
L 670 351
L 671 351
L 673 351
L 674 351
L 675 351
L 677 351
L 678 351
L 679 351
L 681 351
L 682 351
L 683 351
L 685 351
L 686 351
L 687 351
L 689 351
L 690 351
L 691 350
L 693 351
L 694 351
L 695 351
L 697 351
L 698 351
L 699 351
L 701 351
L 702 351
L 703 351
L 705 351
L 706 351
L 707 351
L 709 351
L 710 351
L 711 351
L 713 351
L 714 351
L 715 351
L 717 351
L 718 351
L 719 351
L 720 351
L 722 351
L 723 351
L 724 351
L 726 351
L 727 351
L 728 351
L 730 351
L 731 351
L 732 351
L 734 351
L 735 351
L 736 351
L 738 351
L 739 351
L 740 351
L 742 351
L 743 351
L 744 351
L 746 351
L 747 351
L 748 351
L 750 351
L 751 351
L 752 351
L 754 351
L 755 351
L 756 351
L 758 351
L 759 351
L 760 351
L 762 351
L 763 351
L 764 351
L 766 350
L 767 351
L 768 351
L 769 351
L 771 351
L 772 351
L 773 351
L 775 351
L 776 351
L 777 351
L 779 350
L 780 351
L 781 351
L 783 351
L 784 351
L 785 351
L 787 351
L 788 350
L 789 351
L 791 351
L 792 351
L 793 351
L 795 351
L 796 351
L 797 351
L 799 351
L 800 351
L 801 350
L 803 351
L 804 351
L 805 351
L 807 351
L 808 351
L 809 351
L 811 351
L 812 350
L 813 351
L 815 351
L 816 351
L 817 351
L 818 351
L 820 351
L 821 351
L 822 351
L 824 351
L 825 351
L 826 351
L 828 351
L 829 351
L 830 351
L 832 351
L 833 351
L 834 350
L 836 351
L 837 351
L 838 351
L 840 351
L 841 351
L 842 351
L 844 350
L 845 351
L 846 351
L 848 351
L 849 351
L 850 351
L 852 351
L 853 351
L 854 351
L 856 351
L 857 350
L 858 350
L 860 351
L 861 351
L 862 351
L 864 351
L 865 351
L 866 350
L 867 351
L 869 351
L 870 351
L 871 351
L 873 351
L 874 350
L 875 351
L 877 351
L 878 350
L 879 351
L 881 351
L 882 351
L 883 351
L 885 351
L 886 351
L 887 350
L 889 350
L 890 351
L 891 350
L 893 351
L 894 350
L 895 351
L 897 351
L 898 351
L 899 350
L 901 351
L 902 350
L 903 351
L 905 351
L 906 351
L 907 351
L 909 351
L 910 351
L 911 351
L 913 351
L 914 351
L 915 351
L 916 351
L 918 350
L 919 351
L 920 351
L 922 351
L 923 351
L 924 351
L 926 351
L 927 351
L 928 351
L 930 351
L 931 351
L 932 351
L 934 351
L 935 351
L 936 351
L 938 351
L 939 351
L 940 351
L 942 351
L 943 351
L 944 351
L 946 351
L 947 350
L 948 351
L 950 351
L 951 351
L 952 351
L 954 351
L 955 351
L 956 351
L 958 351
L 959 351
L 960 351
L 961 351" style="stroke-width:1;stroke:rgba(217,0,116,1.0);fill:none"/><text x="349" y="33" style="stroke-width:0;stroke:none;fill:rgba(51,51,51,1.0);font-size:23.0px;font-family:'Roboto Medium',sans-serif">Sankt Pölten(Stadt) 23.01.2022</text><path  d="M 38 11
L 251 11
L 251 91
L 38 91
L 38 11" style="stroke-width:1;stroke:rgba(51,51,51,1.0);fill:rgba(255,255,255,1.0)"/><text x="43" y="26" style="stroke-width:0;stroke:none;fill:rgba(51,51,51,1.0);font-size:10.2px;font-family:'Roboto Medium',sans-serif">Sieben Tage Durschnitt Inzidenz Fälle</text><path  d="M 221 21
L 241 21" style="stroke-width:1;stroke:rgba(0,116,217,1.0);fill:none"/><text x="43" y="56" style="stroke-width:0;stroke:none;fill:rgba(51,51,51,1.0);font-size:10.2px;font-family:'Roboto Medium',sans-serif">Anzahl Faelle</text><path  d="M 110 51
L 241 51" style="stroke-width:1;stroke:rgba(0,217,101,1.0);fill:none"/><text x="43" y="86" style="stroke-width:0;stroke:none;fill:rgba(51,51,51,1.0);font-size:10.2px;font-family:'Roboto Medium',sans-serif">Anzahl Tot</text><path  d="M 98 81
L 241 81" style="stroke-width:1;stroke:rgba(217,0,116,1.0);fill:none"/></svg>