<svg xmlns="http://www.w3.org/2000/svg" xmlns:xlink="http://www.w3.org/1999/xlink" width="1024" height="400">\n<path  d="M 0 0
L 1024 0
L 1024 400
L 0 400
L 0 0" style="stroke-width:0;stroke:rgba(255,255,255,1.0);fill:rgba(255,255,255,1.0)"/><path  d="M 38 11
L 969 11
L 969 351
L 38 351
L 38 11" style="stroke-width:0;stroke:rgba(255,255,255,1.0);fill:rgba(255,255,255,1.0)"/><path  d="M 38 351
L 969 351" style="stroke-width:1;stroke:rgba(51,51,51,1.0);fill:none"/><path  d="M 38 351
L 38 356" style="stroke-width:1;stroke:rgba(51,51,51,1.0);fill:none"/><text x="5" y="373" style="stroke-width:0;stroke:none;fill:rgba(51,51,51,1.0);font-size:12.8px;font-family:'Roboto Medium',sans-serif">2020-02-26</text><path  d="M 155 351
L 155 356" style="stroke-width:1;stroke:rgba(51,51,51,1.0);fill:none"/><text x="122" y="373" style="stroke-width:0;stroke:none;fill:rgba(51,51,51,1.0);font-size:12.8px;font-family:'Roboto Medium',sans-serif">2020-05-05</text><path  d="M 271 351
L 271 356" style="stroke-width:1;stroke:rgba(51,51,51,1.0);fill:none"/><text x="238" y="373" style="stroke-width:0;stroke:none;fill:rgba(51,51,51,1.0);font-size:12.8px;font-family:'Roboto Medium',sans-serif">2020-07-14</text><path  d="M 388 351
L 388 356" style="stroke-width:1;stroke:rgba(51,51,51,1.0);fill:none"/><text x="355" y="373" style="stroke-width:0;stroke:none;fill:rgba(51,51,51,1.0);font-size:12.8px;font-family:'Roboto Medium',sans-serif">2020-09-22</text><path  d="M 504 351
L 504 356" style="stroke-width:1;stroke:rgba(51,51,51,1.0);fill:none"/><text x="471" y="373" style="stroke-width:0;stroke:none;fill:rgba(51,51,51,1.0);font-size:12.8px;font-family:'Roboto Medium',sans-serif">2020-12-01</text><path  d="M 620 351
L 620 356" style="stroke-width:1;stroke:rgba(51,51,51,1.0);fill:none"/><text x="587" y="373" style="stroke-width:0;stroke:none;fill:rgba(51,51,51,1.0);font-size:12.8px;font-family:'Roboto Medium',sans-serif">2021-02-08</text><path  d="M 737 351
L 737 356" style="stroke-width:1;stroke:rgba(51,51,51,1.0);fill:none"/><text x="704" y="373" style="stroke-width:0;stroke:none;fill:rgba(51,51,51,1.0);font-size:12.8px;font-family:'Roboto Medium',sans-serif">2021-04-19</text><path  d="M 853 351
L 853 356" style="stroke-width:1;stroke:rgba(51,51,51,1.0);fill:none"/><text x="820" y="373" style="stroke-width:0;stroke:none;fill:rgba(51,51,51,1.0);font-size:12.8px;font-family:'Roboto Medium',sans-serif">2021-06-28</text><path  d="M 969 351
L 969 356" style="stroke-width:1;stroke:rgba(51,51,51,1.0);fill:none"/><text x="936" y="373" style="stroke-width:0;stroke:none;fill:rgba(51,51,51,1.0);font-size:12.8px;font-family:'Roboto Medium',sans-serif">2021-09-06</text><text x="485" y="395" style="stroke-width:0;stroke:none;fill:rgba(51,51,51,1.0);font-size:12.8px;font-family:'Roboto Medium',sans-serif">Datum</text><path  d="M 970 351
L 970 11" style="stroke-width:1;stroke:rgba(51,51,51,1.0);fill:none"/><path  d="M 970 351
L 975 351" style="stroke-width:1;stroke:rgba(51,51,51,1.0);fill:none"/><text x="980" y="357" style="stroke-width:0;stroke:none;fill:rgba(51,51,51,1.0);font-size:12.8px;font-family:'Roboto Medium',sans-serif">0.00</text><path  d="M 970 308
L 975 308" style="stroke-width:1;stroke:rgba(51,51,51,1.0);fill:none"/><text x="980" y="314" style="stroke-width:0;stroke:none;fill:rgba(51,51,51,1.0);font-size:12.8px;font-family:'Roboto Medium',sans-serif">117.00</text><path  d="M 970 265
L 975 265" style="stroke-width:1;stroke:rgba(51,51,51,1.0);fill:none"/><text x="980" y="271" style="stroke-width:0;stroke:none;fill:rgba(51,51,51,1.0);font-size:12.8px;font-family:'Roboto Medium',sans-serif">233.00</text><path  d="M 970 223
L 975 223" style="stroke-width:1;stroke:rgba(51,51,51,1.0);fill:none"/><text x="980" y="229" style="stroke-width:0;stroke:none;fill:rgba(51,51,51,1.0);font-size:12.8px;font-family:'Roboto Medium',sans-serif">349.00</text><path  d="M 970 181
L 975 181" style="stroke-width:1;stroke:rgba(51,51,51,1.0);fill:none"/><text x="980" y="187" style="stroke-width:0;stroke:none;fill:rgba(51,51,51,1.0);font-size:12.8px;font-family:'Roboto Medium',sans-serif">465.00</text><path  d="M 970 138
L 975 138" style="stroke-width:1;stroke:rgba(51,51,51,1.0);fill:none"/><text x="980" y="144" style="stroke-width:0;stroke:none;fill:rgba(51,51,51,1.0);font-size:12.8px;font-family:'Roboto Medium',sans-serif">582.00</text><path  d="M 970 95
L 975 95" style="stroke-width:1;stroke:rgba(51,51,51,1.0);fill:none"/><text x="980" y="101" style="stroke-width:0;stroke:none;fill:rgba(51,51,51,1.0);font-size:12.8px;font-family:'Roboto Medium',sans-serif">698.00</text><path  d="M 970 53
L 975 53" style="stroke-width:1;stroke:rgba(51,51,51,1.0);fill:none"/><text x="980" y="59" style="stroke-width:0;stroke:none;fill:rgba(51,51,51,1.0);font-size:12.8px;font-family:'Roboto Medium',sans-serif">814.00</text><path  d="M 970 11
L 975 11" style="stroke-width:1;stroke:rgba(51,51,51,1.0);fill:none"/><text x="980" y="17" style="stroke-width:0;stroke:none;fill:rgba(51,51,51,1.0);font-size:12.8px;font-family:'Roboto Medium',sans-serif">930.00</text><path  d="M 38 351
L 40 351
L 42 351
L 44 351
L 45 351
L 47 351
L 49 351
L 50 350
L 52 350
L 54 350
L 55 350
L 57 350
L 59 350
L 60 350
L 62 351
L 64 351
L 65 351
L 67 350
L 69 350
L 70 350
L 72 349
L 74 345
L 75 334
L 77 328
L 79 318
L 80 296
L 82 292
L 84 278
L 85 270
L 87 255
L 89 256
L 90 252
L 92 267
L 94 264
L 95 273
L 97 279
L 99 301
L 100 303
L 102 316
L 104 323
L 105 326
L 107 327
L 109 332
L 110 333
L 112 333
L 114 332
L 115 331
L 117 335
L 119 340
L 120 341
L 122 345
L 124 345
L 125 348
L 127 349
L 129 349
L 130 349
L 132 350
L 134 349
L 135 350
L 137 350
L 139 350
L 140 350
L 142 350
L 144 350
L 145 350
L 147 350
L 149 350
L 150 350
L 152 350
L 154 350
L 155 350
L 157 350
L 159 350
L 160 351
L 162 351
L 164 351
L 165 351
L 167 351
L 169 351
L 170 351
L 172 351
L 174 351
L 175 351
L 177 351
L 179 351
L 180 351
L 182 351
L 184 351
L 185 351
L 187 351
L 189 351
L 190 351
L 192 351
L 194 351
L 195 351
L 197 351
L 199 351
L 200 351
L 202 351
L 204 351
L 205 351
L 207 351
L 209 351
L 210 351
L 212 351
L 214 351
L 215 351
L 217 351
L 219 351
L 220 351
L 222 351
L 224 351
L 225 351
L 227 351
L 229 350
L 230 350
L 232 350
L 234 350
L 235 350
L 237 350
L 239 350
L 240 351
L 242 351
L 244 350
L 245 350
L 247 350
L 249 350
L 250 350
L 252 350
L 254 350
L 255 351
L 257 351
L 259 350
L 260 349
L 262 349
L 264 348
L 265 347
L 267 347
L 269 346
L 270 347
L 272 347
L 274 348
L 275 348
L 277 349
L 279 349
L 280 349
L 282 349
L 284 349
L 285 349
L 287 348
L 289 347
L 290 347
L 292 348
L 294 348
L 295 347
L 297 344
L 299 345
L 300 346
L 302 346
L 304 346
L 305 346
L 307 347
L 309 350
L 310 350
L 312 350
L 314 350
L 315 350
L 317 350
L 319 350
L 320 350
L 322 349
L 324 349
L 325 349
L 327 348
L 329 347
L 330 346
L 332 347
L 334 347
L 335 346
L 337 346
L 339 346
L 340 348
L 342 348
L 344 347
L 345 348
L 347 347
L 349 347
L 351 347
L 352 346
L 354 347
L 356 347
L 357 347
L 359 348
L 361 348
L 362 346
L 364 347
L 366 346
L 367 346
L 369 346
L 371 345
L 372 345
L 374 347
L 376 344
L 377 343
L 379 340
L 381 339
L 382 336
L 384 334
L 386 331
L 387 333
L 389 330
L 391 333
L 392 333
L 394 336
L 396 337
L 397 339
L 399 337
L 401 341
L 402 338
L 404 337
L 406 338
L 407 335
L 409 335
L 411 335
L 412 330
L 414 329
L 416 320
L 417 317
L 419 318
L 421 306
L 422 299
L 424 295
L 426 283
L 427 289
L 429 275
L 431 273
L 432 267
L 434 256
L 436 244
L 437 242
L 439 226
L 441 226
L 442 188
L 444 195
L 446 189
L 447 184
L 449 157
L 451 147
L 452 130
L 454 137
L 456 113
L 457 112
L 459 88
L 461 62
L 462 40
L 464 41
L 466 40
L 467 27
L 469 28
L 471 11
L 472 11
L 474 35
L 476 47
L 477 25
L 479 23
L 481 21
L 482 45
L 484 66
L 486 59
L 487 24
L 489 82
L 491 92
L 492 94
L 494 87
L 496 106
L 497 124
L 499 155
L 501 155
L 502 165
L 504 160
L 506 181
L 507 188
L 509 189
L 511 206
L 512 199
L 514 207
L 516 223
L 517 231
L 519 247
L 521 235
L 522 233
L 524 232
L 526 221
L 527 227
L 529 237
L 531 239
L 532 258
L 534 264
L 536 266
L 537 276
L 539 272
L 541 256
L 542 251
L 544 254
L 546 252
L 547 245
L 549 246
L 551 232
L 552 240
L 554 224
L 556 220
L 557 211
L 559 208
L 561 214
L 562 219
L 564 218
L 566 224
L 567 217
L 569 220
L 571 230
L 572 223
L 574 220
L 576 218
L 577 227
L 579 231
L 581 231
L 582 232
L 584 240
L 586 250
L 587 265
L 589 260
L 591 246
L 592 245
L 594 246
L 596 243
L 597 245
L 599 239
L 601 248
L 602 261
L 604 261
L 606 252
L 607 262
L 609 257
L 611 258
L 612 255
L 614 261
L 616 267
L 617 270
L 619 265
L 621 272
L 622 273
L 624 267
L 626 269
L 627 262
L 629 272
L 631 271
L 632 274
L 634 263
L 636 269
L 637 264
L 639 270
L 641 259
L 642 260
L 644 247
L 646 244
L 647 228
L 649 200
L 651 196
L 652 195
L 654 176
L 656 180
L 657 172
L 659 169
L 661 189
L 663 188
L 664 182
L 666 192
L 668 174
L 669 179
L 671 183
L 673 176
L 674 174
L 676 177
L 678 185
L 679 193
L 681 191
L 683 192
L 684 190
L 686 197
L 688 194
L 689 196
L 691 199
L 693 214
L 694 229
L 696 251
L 698 252
L 699 263
L 701 263
L 703 276
L 704 285
L 706 276
L 708 265
L 709 266
L 711 268
L 713 270
L 714 273
L 716 271
L 718 285
L 719 297
L 721 298
L 723 302
L 724 303
L 726 302
L 728 297
L 729 297
L 731 294
L 733 293
L 734 289
L 736 279
L 738 287
L 739 289
L 741 284
L 743 288
L 744 290
L 746 291
L 748 294
L 749 289
L 751 292
L 753 293
L 754 289
L 756 291
L 758 294
L 759 301
L 761 302
L 763 306
L 764 308
L 766 312
L 768 311
L 769 314
L 771 317
L 773 320
L 774 318
L 776 322
L 778 325
L 779 326
L 781 322
L 783 326
L 784 327
L 786 328
L 788 329
L 789 330
L 791 331
L 793 334
L 794 334
L 796 337
L 798 338
L 799 339
L 801 340
L 803 340
L 804 340
L 806 339
L 808 339
L 809 341
L 811 341
L 813 342
L 814 342
L 816 344
L 818 344
L 819 344
L 821 345
L 823 346
L 824 347
L 826 349
L 828 349
L 829 350
L 831 350
L 833 350
L 834 350
L 836 350
L 838 350
L 839 350
L 841 351
L 843 351
L 844 351
L 846 351
L 848 351
L 849 351
L 851 351
L 853 351
L 854 351
L 856 351
L 858 351
L 859 351
L 861 351
L 863 351
L 864 351
L 866 351
L 868 351
L 869 351
L 871 350
L 873 350
L 874 350
L 876 350
L 878 350
L 879 348
L 881 345
L 883 330
L 884 324
L 886 322
L 888 313
L 889 312
L 891 303
L 893 300
L 894 315
L 896 316
L 898 315
L 899 322
L 901 318
L 903 326
L 904 327
L 906 325
L 908 327
L 909 327
L 911 329
L 913 330
L 914 328
L 916 327
L 918 324
L 919 320
L 921 322
L 923 318
L 924 319
L 926 318
L 928 320
L 929 322
L 931 328
L 933 328
L 934 326
L 936 322
L 938 327
L 939 324
L 941 323
L 943 322
L 944 323
L 946 324
L 948 324
L 949 320
L 951 323
L 953 326
L 954 318
L 956 317
L 958 311
L 959 306
L 961 307
L 963 298
L 964 295
L 966 294
L 968 295
L 969 301" style="stroke-width:1;stroke:rgba(0,116,217,1.0);fill:none"/><path  d="M 38 351
L 40 351
L 42 351
L 44 351
L 45 351
L 47 351
L 49 351
L 50 350
L 52 351
L 54 351
L 55 351
L 57 351
L 59 351
L 60 351
L 62 351
L 64 351
L 65 351
L 67 350
L 69 350
L 70 351
L 72 350
L 74 347
L 75 342
L 77 346
L 79 342
L 80 332
L 82 347
L 84 338
L 85 341
L 87 330
L 89 347
L 90 338
L 92 345
L 94 345
L 95 346
L 97 345
L 99 347
L 100 349
L 102 349
L 104 350
L 105 347
L 107 346
L 109 349
L 110 348
L 112 349
L 114 348
L 115 349
L 117 351
L 119 351
L 120 350
L 122 351
L 124 350
L 125 351
L 127 351
L 129 351
L 130 351
L 132 351
L 134 350
L 135 351
L 137 351
L 139 350
L 140 351
L 142 351
L 144 351
L 145 351
L 147 351
L 149 350
L 150 351
L 152 351
L 154 351
L 155 351
L 157 351
L 159 351
L 160 351
L 162 351
L 164 351
L 165 351
L 167 351
L 169 351
L 170 351
L 172 351
L 174 351
L 175 351
L 177 351
L 179 351
L 180 351
L 182 351
L 184 351
L 185 351
L 187 351
L 189 351
L 190 351
L 192 351
L 194 351
L 195 351
L 197 351
L 199 351
L 200 351
L 202 351
L 204 351
L 205 351
L 207 351
L 209 351
L 210 351
L 212 351
L 214 351
L 215 351
L 217 351
L 219 351
L 220 351
L 222 351
L 224 351
L 225 351
L 227 351
L 229 350
L 230 351
L 232 351
L 234 351
L 235 351
L 237 351
L 239 351
L 240 351
L 242 351
L 244 350
L 245 351
L 247 351
L 249 351
L 250 351
L 252 351
L 254 351
L 255 351
L 257 351
L 259 350
L 260 350
L 262 350
L 264 350
L 265 349
L 267 351
L 269 350
L 270 350
L 272 351
L 274 351
L 275 350
L 277 350
L 279 351
L 280 350
L 282 351
L 284 351
L 285 351
L 287 349
L 289 349
L 290 351
L 292 351
L 294 351
L 295 350
L 297 348
L 299 351
L 300 351
L 302 351
L 304 351
L 305 351
L 307 351
L 309 350
L 310 350
L 312 351
L 314 351
L 315 351
L 317 351
L 319 351
L 320 350
L 322 349
L 324 351
L 325 351
L 327 350
L 329 349
L 330 350
L 332 351
L 334 349
L 335 350
L 337 351
L 339 350
L 340 351
L 342 350
L 344 350
L 345 350
L 347 350
L 349 351
L 351 350
L 352 350
L 354 351
L 356 351
L 357 350
L 359 351
L 361 351
L 362 348
L 364 351
L 366 350
L 367 350
L 369 350
L 371 349
L 372 351
L 374 351
L 376 348
L 377 349
L 379 347
L 381 349
L 382 347
L 384 349
L 386 348
L 387 350
L 389 347
L 391 349
L 392 349
L 394 349
L 396 349
L 397 350
L 399 348
L 401 350
L 402 348
L 404 348
L 406 350
L 407 347
L 409 350
L 411 349
L 412 346
L 414 347
L 416 341
L 417 348
L 419 347
L 421 340
L 422 343
L 424 342
L 426 337
L 427 346
L 429 336
L 431 346
L 432 336
L 434 334
L 436 333
L 437 335
L 439 333
L 441 336
L 442 315
L 444 341
L 446 329
L 447 329
L 449 313
L 451 325
L 452 322
L 454 321
L 456 321
L 457 328
L 459 310
L 461 292
L 462 307
L 464 322
L 466 320
L 467 311
L 469 329
L 471 296
L 472 292
L 474 326
L 476 332
L 477 302
L 479 310
L 481 327
L 482 316
L 484 309
L 486 320
L 487 304
L 489 349
L 491 318
L 492 328
L 494 311
L 496 325
L 497 335
L 499 329
L 501 350
L 502 326
L 504 323
L 506 328
L 507 331
L 509 336
L 511 342
L 512 344
L 514 333
L 516 336
L 517 334
L 519 344
L 521 326
L 522 341
L 524 344
L 526 323
L 527 341
L 529 342
L 531 346
L 532 341
L 534 346
L 536 345
L 537 332
L 539 337
L 541 329
L 542 342
L 544 344
L 546 344
L 547 339
L 549 333
L 551 326
L 552 335
L 554 329
L 556 341
L 557 337
L 559 337
L 561 338
L 562 330
L 564 334
L 566 334
L 567 335
L 569 339
L 571 345
L 572 333
L 574 328
L 576 333
L 577 342
L 579 337
L 581 340
L 582 345
L 584 339
L 586 336
L 587 344
L 589 338
L 591 326
L 592 339
L 594 346
L 596 337
L 597 338
L 599 339
L 601 345
L 602 337
L 604 339
L 606 339
L 607 345
L 609 333
L 611 340
L 612 343
L 614 342
L 616 344
L 617 341
L 619 342
L 621 339
L 622 341
L 624 337
L 626 344
L 627 338
L 629 349
L 631 341
L 632 341
L 634 333
L 636 342
L 637 340
L 639 343
L 641 340
L 642 342
L 644 330
L 646 330
L 647 329
L 649 317
L 651 340
L 652 339
L 654 326
L 656 334
L 657 323
L 659 327
L 661 333
L 663 340
L 664 334
L 666 335
L 668 319
L 669 327
L 671 330
L 673 327
L 674 338
L 676 336
L 678 341
L 679 326
L 681 325
L 683 331
L 684 325
L 686 344
L 688 333
L 689 343
L 691 329
L 693 338
L 694 343
L 696 343
L 698 345
L 699 342
L 701 343
L 703 339
L 704 345
L 706 336
L 708 334
L 709 346
L 711 344
L 713 345
L 714 341
L 716 344
L 718 347
L 719 344
L 721 346
L 723 347
L 724 345
L 726 341
L 728 340
L 729 346
L 731 342
L 733 345
L 734 343
L 736 338
L 738 347
L 739 342
L 741 342
L 743 345
L 744 347
L 746 344
L 748 340
L 749 343
L 751 345
L 753 343
L 754 342
L 756 348
L 758 347
L 759 345
L 761 344
L 763 348
L 764 345
L 766 346
L 768 347
L 769 349
L 771 348
L 773 346
L 774 347
L 776 348
L 778 348
L 779 348
L 781 346
L 783 351
L 784 347
L 786 348
L 788 348
L 789 349
L 791 349
L 793 349
L 794 351
L 796 350
L 798 348
L 799 349
L 801 350
L 803 349
L 804 349
L 806 349
L 808 350
L 809 350
L 811 349
L 813 350
L 814 349
L 816 351
L 818 349
L 819 350
L 821 351
L 823 351
L 824 351
L 826 351
L 828 351
L 829 350
L 831 351
L 833 351
L 834 351
L 836 351
L 838 351
L 839 351
L 841 351
L 843 351
L 844 351
L 846 351
L 848 351
L 849 351
L 851 351
L 853 351
L 854 351
L 856 351
L 858 351
L 859 351
L 861 351
L 863 351
L 864 351
L 866 351
L 868 351
L 869 351
L 871 350
L 873 351
L 874 351
L 876 351
L 878 350
L 879 349
L 881 348
L 883 338
L 884 345
L 886 349
L 888 343
L 889 349
L 891 342
L 893 346
L 894 350
L 896 346
L 898 349
L 899 348
L 901 346
L 903 348
L 904 347
L 906 348
L 908 348
L 909 349
L 911 351
L 913 346
L 914 347
L 916 346
L 918 346
L 919 344
L 921 350
L 923 348
L 924 347
L 926 346
L 928 348
L 929 348
L 931 348
L 933 350
L 934 346
L 936 344
L 938 350
L 939 346
L 941 346
L 943 348
L 944 351
L 946 348
L 948 344
L 949 347
L 951 348
L 953 349
L 954 341
L 956 350
L 958 342
L 959 340
L 961 348
L 963 340
L 964 347
L 966 340
L 968 351
L 969 347" style="stroke-width:1;stroke:rgba(0,217,101,1.0);fill:none"/><path  d="M 38 351
L 40 351
L 42 351
L 44 351
L 45 351
L 47 351
L 49 351
L 50 351
L 52 351
L 54 351
L 55 351
L 57 351
L 59 351
L 60 351
L 62 351
L 64 351
L 65 351
L 67 351
L 69 351
L 70 351
L 72 351
L 74 351
L 75 351
L 77 351
L 79 351
L 80 351
L 82 351
L 84 351
L 85 351
L 87 351
L 89 350
L 90 350
L 92 350
L 94 351
L 95 350
L 97 350
L 99 351
L 100 351
L 102 350
L 104 350
L 105 351
L 107 351
L 109 351
L 110 350
L 112 350
L 114 351
L 115 351
L 117 351
L 119 351
L 120 351
L 122 351
L 124 351
L 125 351
L 127 350
L 129 351
L 130 350
L 132 351
L 134 351
L 135 351
L 137 351
L 139 351
L 140 351
L 142 350
L 144 351
L 145 351
L 147 351
L 149 351
L 150 351
L 152 351
L 154 351
L 155 351
L 157 351
L 159 351
L 160 351
L 162 351
L 164 351
L 165 351
L 167 351
L 169 351
L 170 351
L 172 351
L 174 351
L 175 351
L 177 350
L 179 351
L 180 351
L 182 351
L 184 351
L 185 351
L 187 351
L 189 351
L 190 351
L 192 351
L 194 351
L 195 351
L 197 351
L 199 351
L 200 351
L 202 351
L 204 351
L 205 351
L 207 351
L 209 351
L 210 351
L 212 351
L 214 351
L 215 351
L 217 351
L 219 351
L 220 351
L 222 351
L 224 351
L 225 351
L 227 351
L 229 351
L 230 351
L 232 351
L 234 351
L 235 351
L 237 351
L 239 351
L 240 351
L 242 351
L 244 351
L 245 351
L 247 351
L 249 351
L 250 351
L 252 351
L 254 351
L 255 351
L 257 351
L 259 351
L 260 351
L 262 351
L 264 351
L 265 351
L 267 351
L 269 351
L 270 351
L 272 351
L 274 351
L 275 351
L 277 351
L 279 351
L 280 351
L 282 351
L 284 351
L 285 351
L 287 351
L 289 351
L 290 351
L 292 351
L 294 351
L 295 351
L 297 351
L 299 351
L 300 351
L 302 351
L 304 351
L 305 351
L 307 351
L 309 351
L 310 351
L 312 351
L 314 351
L 315 351
L 317 351
L 319 351
L 320 351
L 322 351
L 324 351
L 325 351
L 327 351
L 329 351
L 330 351
L 332 351
L 334 351
L 335 351
L 337 351
L 339 351
L 340 351
L 342 351
L 344 351
L 345 351
L 347 351
L 349 351
L 351 351
L 352 351
L 354 351
L 356 351
L 357 351
L 359 351
L 361 351
L 362 351
L 364 351
L 366 351
L 367 351
L 369 351
L 371 350
L 372 351
L 374 351
L 376 351
L 377 351
L 379 351
L 381 351
L 382 351
L 384 351
L 386 351
L 387 351
L 389 351
L 391 351
L 392 351
L 394 351
L 396 351
L 397 351
L 399 351
L 401 351
L 402 351
L 404 351
L 406 351
L 407 351
L 409 351
L 411 351
L 412 351
L 414 351
L 416 351
L 417 351
L 419 351
L 421 351
L 422 351
L 424 351
L 426 351
L 427 351
L 429 351
L 431 351
L 432 351
L 434 351
L 436 351
L 437 351
L 439 351
L 441 351
L 442 351
L 444 351
L 446 351
L 447 351
L 449 351
L 451 351
L 452 351
L 454 350
L 456 351
L 457 351
L 459 350
L 461 350
L 462 351
L 464 351
L 466 351
L 467 350
L 469 351
L 471 349
L 472 350
L 474 350
L 476 350
L 477 350
L 479 350
L 481 349
L 482 350
L 484 350
L 486 349
L 487 350
L 489 350
L 491 351
L 492 350
L 494 350
L 496 350
L 497 351
L 499 350
L 501 351
L 502 350
L 504 350
L 506 351
L 507 351
L 509 349
L 511 350
L 512 350
L 514 350
L 516 350
L 517 350
L 519 350
L 521 350
L 522 351
L 524 351
L 526 350
L 527 350
L 529 351
L 531 351
L 532 351
L 534 351
L 536 350
L 537 351
L 539 351
L 541 350
L 542 350
L 544 351
L 546 350
L 547 351
L 549 351
L 551 351
L 552 351
L 554 351
L 556 351
L 557 351
L 559 350
L 561 351
L 562 351
L 564 351
L 566 351
L 567 350
L 569 351
L 571 351
L 572 351
L 574 350
L 576 351
L 577 351
L 579 350
L 581 351
L 582 351
L 584 351
L 586 351
L 587 351
L 589 351
L 591 351
L 592 351
L 594 351
L 596 351
L 597 350
L 599 350
L 601 351
L 602 351
L 604 351
L 606 351
L 607 351
L 609 351
L 611 351
L 612 350
L 614 351
L 616 351
L 617 351
L 619 351
L 621 350
L 622 350
L 624 350
L 626 351
L 627 351
L 629 350
L 631 350
L 632 351
L 634 351
L 636 351
L 637 351
L 639 350
L 641 351
L 642 351
L 644 351
L 646 351
L 647 351
L 649 351
L 651 351
L 652 351
L 654 351
L 656 350
L 657 351
L 659 351
L 661 350
L 663 350
L 664 350
L 666 351
L 668 350
L 669 351
L 671 351
L 673 350
L 674 350
L 676 351
L 678 350
L 679 351
L 681 351
L 683 351
L 684 351
L 686 351
L 688 351
L 689 350
L 691 351
L 693 350
L 694 350
L 696 350
L 698 351
L 699 351
L 701 351
L 703 351
L 704 351
L 706 351
L 708 351
L 709 350
L 711 351
L 713 351
L 714 351
L 716 351
L 718 351
L 719 350
L 721 351
L 723 351
L 724 351
L 726 351
L 728 350
L 729 351
L 731 351
L 733 350
L 734 351
L 736 351
L 738 351
L 739 351
L 741 351
L 743 351
L 744 351
L 746 350
L 748 351
L 749 351
L 751 351
L 753 351
L 754 351
L 756 350
L 758 351
L 759 351
L 761 351
L 763 350
L 764 351
L 766 351
L 768 351
L 769 351
L 771 351
L 773 351
L 774 351
L 776 351
L 778 351
L 779 351
L 781 351
L 783 351
L 784 351
L 786 351
L 788 351
L 789 351
L 791 351
L 793 351
L 794 351
L 796 351
L 798 351
L 799 351
L 801 351
L 803 351
L 804 351
L 806 351
L 808 351
L 809 351
L 811 351
L 813 351
L 814 351
L 816 351
L 818 351
L 819 351
L 821 351
L 823 351
L 824 351
L 826 351
L 828 351
L 829 351
L 831 351
L 833 351
L 834 351
L 836 351
L 838 351
L 839 351
L 841 351
L 843 351
L 844 351
L 846 351
L 848 351
L 849 351
L 851 351
L 853 351
L 854 351
L 856 351
L 858 351
L 859 351
L 861 351
L 863 351
L 864 351
L 866 351
L 868 351
L 869 351
L 871 351
L 873 351
L 874 351
L 876 351
L 878 351
L 879 351
L 881 351
L 883 351
L 884 351
L 886 351
L 888 351
L 889 351
L 891 351
L 893 351
L 894 351
L 896 351
L 898 351
L 899 351
L 901 351
L 903 351
L 904 351
L 906 351
L 908 351
L 909 351
L 911 351
L 913 351
L 914 351
L 916 351
L 918 351
L 919 351
L 921 351
L 923 351
L 924 351
L 926 351
L 928 351
L 929 351
L 931 351
L 933 351
L 934 351
L 936 351
L 938 351
L 939 351
L 941 351
L 943 351
L 944 351
L 946 351
L 948 351
L 949 351
L 951 351
L 953 351
L 954 351
L 956 351
L 958 351
L 959 351
L 961 351
L 963 351
L 964 351
L 966 351
L 968 351
L 969 351" style="stroke-width:1;stroke:rgba(217,0,116,1.0);fill:none"/><text x="322" y="33" style="stroke-width:0;stroke:none;fill:rgba(51,51,51,1.0);font-size:23.0px;font-family:'Roboto Medium',sans-serif">Sankt Johann im Pongau 06.09.2021</text><path  d="M 38 11
L 251 11
L 251 91
L 38 91
L 38 11" style="stroke-width:1;stroke:rgba(51,51,51,1.0);fill:rgba(255,255,255,1.0)"/><text x="43" y="26" style="stroke-width:0;stroke:none;fill:rgba(51,51,51,1.0);font-size:10.2px;font-family:'Roboto Medium',sans-serif">Sieben Tage Durschnitt Inzidenz Fälle</text><path  d="M 221 21
L 241 21" style="stroke-width:1;stroke:rgba(0,116,217,1.0);fill:none"/><text x="43" y="56" style="stroke-width:0;stroke:none;fill:rgba(51,51,51,1.0);font-size:10.2px;font-family:'Roboto Medium',sans-serif">Anzahl Faelle</text><path  d="M 110 51
L 241 51" style="stroke-width:1;stroke:rgba(0,217,101,1.0);fill:none"/><text x="43" y="86" style="stroke-width:0;stroke:none;fill:rgba(51,51,51,1.0);font-size:10.2px;font-family:'Roboto Medium',sans-serif">Anzahl Tot</text><path  d="M 98 81
L 241 81" style="stroke-width:1;stroke:rgba(217,0,116,1.0);fill:none"/></svg>