<svg xmlns="http://www.w3.org/2000/svg" xmlns:xlink="http://www.w3.org/1999/xlink" width="1024" height="400">\n<path  d="M 0 0
L 1024 0
L 1024 400
L 0 400
L 0 0" style="stroke-width:0;stroke:rgba(255,255,255,1.0);fill:rgba(255,255,255,1.0)"/><path  d="M 38 11
L 969 11
L 969 351
L 38 351
L 38 11" style="stroke-width:0;stroke:rgba(255,255,255,1.0);fill:rgba(255,255,255,1.0)"/><path  d="M 38 351
L 969 351" style="stroke-width:1;stroke:rgba(51,51,51,1.0);fill:none"/><path  d="M 38 351
L 38 356" style="stroke-width:1;stroke:rgba(51,51,51,1.0);fill:none"/><text x="5" y="373" style="stroke-width:0;stroke:none;fill:rgba(51,51,51,1.0);font-size:12.8px;font-family:'Roboto Medium',sans-serif">2020-02-26</text><path  d="M 155 351
L 155 356" style="stroke-width:1;stroke:rgba(51,51,51,1.0);fill:none"/><text x="122" y="373" style="stroke-width:0;stroke:none;fill:rgba(51,51,51,1.0);font-size:12.8px;font-family:'Roboto Medium',sans-serif">2020-05-03</text><path  d="M 271 351
L 271 356" style="stroke-width:1;stroke:rgba(51,51,51,1.0);fill:none"/><text x="238" y="373" style="stroke-width:0;stroke:none;fill:rgba(51,51,51,1.0);font-size:12.8px;font-family:'Roboto Medium',sans-serif">2020-07-09</text><path  d="M 388 351
L 388 356" style="stroke-width:1;stroke:rgba(51,51,51,1.0);fill:none"/><text x="355" y="373" style="stroke-width:0;stroke:none;fill:rgba(51,51,51,1.0);font-size:12.8px;font-family:'Roboto Medium',sans-serif">2020-09-15</text><path  d="M 504 351
L 504 356" style="stroke-width:1;stroke:rgba(51,51,51,1.0);fill:none"/><text x="471" y="373" style="stroke-width:0;stroke:none;fill:rgba(51,51,51,1.0);font-size:12.8px;font-family:'Roboto Medium',sans-serif">2020-11-21</text><path  d="M 620 351
L 620 356" style="stroke-width:1;stroke:rgba(51,51,51,1.0);fill:none"/><text x="587" y="373" style="stroke-width:0;stroke:none;fill:rgba(51,51,51,1.0);font-size:12.8px;font-family:'Roboto Medium',sans-serif">2021-01-27</text><path  d="M 737 351
L 737 356" style="stroke-width:1;stroke:rgba(51,51,51,1.0);fill:none"/><text x="704" y="373" style="stroke-width:0;stroke:none;fill:rgba(51,51,51,1.0);font-size:12.8px;font-family:'Roboto Medium',sans-serif">2021-04-05</text><path  d="M 853 351
L 853 356" style="stroke-width:1;stroke:rgba(51,51,51,1.0);fill:none"/><text x="820" y="373" style="stroke-width:0;stroke:none;fill:rgba(51,51,51,1.0);font-size:12.8px;font-family:'Roboto Medium',sans-serif">2021-06-11</text><path  d="M 969 351
L 969 356" style="stroke-width:1;stroke:rgba(51,51,51,1.0);fill:none"/><text x="936" y="373" style="stroke-width:0;stroke:none;fill:rgba(51,51,51,1.0);font-size:12.8px;font-family:'Roboto Medium',sans-serif">2021-08-18</text><text x="485" y="395" style="stroke-width:0;stroke:none;fill:rgba(51,51,51,1.0);font-size:12.8px;font-family:'Roboto Medium',sans-serif">Datum</text><path  d="M 970 351
L 970 11" style="stroke-width:1;stroke:rgba(51,51,51,1.0);fill:none"/><path  d="M 970 351
L 975 351" style="stroke-width:1;stroke:rgba(51,51,51,1.0);fill:none"/><text x="980" y="357" style="stroke-width:0;stroke:none;fill:rgba(51,51,51,1.0);font-size:12.8px;font-family:'Roboto Medium',sans-serif">0.00</text><path  d="M 970 308
L 975 308" style="stroke-width:1;stroke:rgba(51,51,51,1.0);fill:none"/><text x="980" y="314" style="stroke-width:0;stroke:none;fill:rgba(51,51,51,1.0);font-size:12.8px;font-family:'Roboto Medium',sans-serif">65.00</text><path  d="M 970 266
L 975 266" style="stroke-width:1;stroke:rgba(51,51,51,1.0);fill:none"/><text x="980" y="272" style="stroke-width:0;stroke:none;fill:rgba(51,51,51,1.0);font-size:12.8px;font-family:'Roboto Medium',sans-serif">130.00</text><path  d="M 970 223
L 975 223" style="stroke-width:1;stroke:rgba(51,51,51,1.0);fill:none"/><text x="980" y="229" style="stroke-width:0;stroke:none;fill:rgba(51,51,51,1.0);font-size:12.8px;font-family:'Roboto Medium',sans-serif">195.00</text><path  d="M 970 181
L 975 181" style="stroke-width:1;stroke:rgba(51,51,51,1.0);fill:none"/><text x="980" y="187" style="stroke-width:0;stroke:none;fill:rgba(51,51,51,1.0);font-size:12.8px;font-family:'Roboto Medium',sans-serif">260.00</text><path  d="M 970 138
L 975 138" style="stroke-width:1;stroke:rgba(51,51,51,1.0);fill:none"/><text x="980" y="144" style="stroke-width:0;stroke:none;fill:rgba(51,51,51,1.0);font-size:12.8px;font-family:'Roboto Medium',sans-serif">325.00</text><path  d="M 970 96
L 975 96" style="stroke-width:1;stroke:rgba(51,51,51,1.0);fill:none"/><text x="980" y="102" style="stroke-width:0;stroke:none;fill:rgba(51,51,51,1.0);font-size:12.8px;font-family:'Roboto Medium',sans-serif">390.00</text><path  d="M 970 53
L 975 53" style="stroke-width:1;stroke:rgba(51,51,51,1.0);fill:none"/><text x="980" y="59" style="stroke-width:0;stroke:none;fill:rgba(51,51,51,1.0);font-size:12.8px;font-family:'Roboto Medium',sans-serif">455.00</text><path  d="M 970 11
L 975 11" style="stroke-width:1;stroke:rgba(51,51,51,1.0);fill:none"/><text x="980" y="17" style="stroke-width:0;stroke:none;fill:rgba(51,51,51,1.0);font-size:12.8px;font-family:'Roboto Medium',sans-serif">520.00</text><path  d="M 38 351
L 40 351
L 42 351
L 44 351
L 45 351
L 47 351
L 49 351
L 51 351
L 52 351
L 54 351
L 56 351
L 57 351
L 59 351
L 61 351
L 63 351
L 64 351
L 66 351
L 68 349
L 70 349
L 71 349
L 73 347
L 75 347
L 76 346
L 78 340
L 80 341
L 82 339
L 83 338
L 85 336
L 87 328
L 89 322
L 90 315
L 92 312
L 94 308
L 95 306
L 97 306
L 99 310
L 101 315
L 102 321
L 104 319
L 106 325
L 108 322
L 109 322
L 111 327
L 113 326
L 114 332
L 116 338
L 118 338
L 120 342
L 121 345
L 123 345
L 125 345
L 127 346
L 128 346
L 130 346
L 132 347
L 133 348
L 135 347
L 137 349
L 139 348
L 140 347
L 142 347
L 144 347
L 146 347
L 147 348
L 149 347
L 151 348
L 152 349
L 154 349
L 156 349
L 158 349
L 159 349
L 161 349
L 163 349
L 165 349
L 166 349
L 168 349
L 170 349
L 171 349
L 173 351
L 175 351
L 177 351
L 178 351
L 180 351
L 182 351
L 184 351
L 185 351
L 187 351
L 189 351
L 190 351
L 192 351
L 194 351
L 196 351
L 197 351
L 199 351
L 201 351
L 203 351
L 204 351
L 206 351
L 208 351
L 209 351
L 211 349
L 213 348
L 215 348
L 216 348
L 218 348
L 220 348
L 222 348
L 223 349
L 225 351
L 227 351
L 228 351
L 230 351
L 232 351
L 234 349
L 235 349
L 237 347
L 239 347
L 241 346
L 242 346
L 244 346
L 246 347
L 247 347
L 249 349
L 251 347
L 253 348
L 254 348
L 256 347
L 258 346
L 260 346
L 261 346
L 263 347
L 265 347
L 266 347
L 268 348
L 270 348
L 272 348
L 273 348
L 275 349
L 277 349
L 279 349
L 280 349
L 282 349
L 284 347
L 286 345
L 287 345
L 289 345
L 291 345
L 292 345
L 294 346
L 296 347
L 298 349
L 299 349
L 301 347
L 303 347
L 304 347
L 306 347
L 308 348
L 310 347
L 311 345
L 313 347
L 315 346
L 317 345
L 318 345
L 320 343
L 322 345
L 323 345
L 325 343
L 327 342
L 329 343
L 330 343
L 332 342
L 334 341
L 336 343
L 337 345
L 339 345
L 341 345
L 342 343
L 344 346
L 346 347
L 348 347
L 349 346
L 351 347
L 353 345
L 355 345
L 356 342
L 358 342
L 360 340
L 361 341
L 363 341
L 365 339
L 367 340
L 368 341
L 370 340
L 372 342
L 374 340
L 375 334
L 377 335
L 379 332
L 380 327
L 382 327
L 384 325
L 386 326
L 387 326
L 389 327
L 391 327
L 393 329
L 394 324
L 396 324
L 398 321
L 399 325
L 401 324
L 403 322
L 405 314
L 406 317
L 408 314
L 410 312
L 412 303
L 413 300
L 415 296
L 417 300
L 418 291
L 420 284
L 422 274
L 424 272
L 425 270
L 427 269
L 429 262
L 431 264
L 432 270
L 434 273
L 436 279
L 437 271
L 439 272
L 441 271
L 443 279
L 444 284
L 446 281
L 448 284
L 450 288
L 451 277
L 453 278
L 455 271
L 456 257
L 458 259
L 460 241
L 462 221
L 463 216
L 465 181
L 467 168
L 469 164
L 470 132
L 472 115
L 474 101
L 475 93
L 477 76
L 479 61
L 481 51
L 482 64
L 484 65
L 486 83
L 488 78
L 489 113
L 491 113
L 493 95
L 494 63
L 496 60
L 498 47
L 500 31
L 501 17
L 503 24
L 505 40
L 507 61
L 508 65
L 510 58
L 512 74
L 513 66
L 515 36
L 517 19
L 519 49
L 520 33
L 522 68
L 524 42
L 526 63
L 527 92
L 529 116
L 531 106
L 533 145
L 534 145
L 536 164
L 538 183
L 539 201
L 541 201
L 543 198
L 545 196
L 546 189
L 548 204
L 550 208
L 551 212
L 553 222
L 555 243
L 557 238
L 558 248
L 560 267
L 562 274
L 564 279
L 565 288
L 567 281
L 569 286
L 570 280
L 572 285
L 574 284
L 576 284
L 577 284
L 579 284
L 581 276
L 583 274
L 584 274
L 586 272
L 588 270
L 589 266
L 591 270
L 593 281
L 595 290
L 596 280
L 598 278
L 600 283
L 602 280
L 603 280
L 605 286
L 607 290
L 608 300
L 610 310
L 612 304
L 614 312
L 615 318
L 617 322
L 619 326
L 621 315
L 622 307
L 624 314
L 626 311
L 627 307
L 629 308
L 631 306
L 633 317
L 634 320
L 636 320
L 638 322
L 640 328
L 641 325
L 643 320
L 645 315
L 646 312
L 648 312
L 650 311
L 652 305
L 653 301
L 655 299
L 657 298
L 659 297
L 660 293
L 662 293
L 664 284
L 665 285
L 667 283
L 669 278
L 671 271
L 672 241
L 674 238
L 676 229
L 678 211
L 679 216
L 681 216
L 683 209
L 684 217
L 686 209
L 688 210
L 690 224
L 691 217
L 693 200
L 695 189
L 697 183
L 698 184
L 700 183
L 702 184
L 703 187
L 705 204
L 707 212
L 709 229
L 710 222
L 712 229
L 714 221
L 716 210
L 717 211
L 719 200
L 721 204
L 722 201
L 724 184
L 726 188
L 728 189
L 729 170
L 731 177
L 733 167
L 735 173
L 736 189
L 738 186
L 740 197
L 741 212
L 743 219
L 745 236
L 747 233
L 748 236
L 750 241
L 752 241
L 754 231
L 755 244
L 757 233
L 759 233
L 760 241
L 762 235
L 764 226
L 766 235
L 767 231
L 769 237
L 771 248
L 773 233
L 774 236
L 776 237
L 778 241
L 779 238
L 781 229
L 783 226
L 785 241
L 786 245
L 788 251
L 790 250
L 792 255
L 793 259
L 795 262
L 797 257
L 798 262
L 800 258
L 802 265
L 804 263
L 805 271
L 807 278
L 809 283
L 811 283
L 812 291
L 814 291
L 816 298
L 817 301
L 819 303
L 821 310
L 823 313
L 824 317
L 826 321
L 828 322
L 830 324
L 831 322
L 833 321
L 835 325
L 836 328
L 838 328
L 840 334
L 842 329
L 843 332
L 845 332
L 847 328
L 849 327
L 850 331
L 852 328
L 854 334
L 855 334
L 857 335
L 859 341
L 861 342
L 862 342
L 864 342
L 866 342
L 868 342
L 869 343
L 871 342
L 873 343
L 874 342
L 876 345
L 878 346
L 880 343
L 881 341
L 883 341
L 885 335
L 887 333
L 888 331
L 890 327
L 892 329
L 893 332
L 895 329
L 897 333
L 899 333
L 900 335
L 902 339
L 904 338
L 906 333
L 907 333
L 909 333
L 911 335
L 912 332
L 914 331
L 916 331
L 918 335
L 919 336
L 921 336
L 923 339
L 925 342
L 926 342
L 928 341
L 930 341
L 931 342
L 933 342
L 935 340
L 937 336
L 938 336
L 940 338
L 942 335
L 944 332
L 945 328
L 947 327
L 949 331
L 950 331
L 952 328
L 954 321
L 956 313
L 957 311
L 959 288
L 961 278
L 963 270
L 964 260
L 966 259
L 968 265
L 969 271" style="stroke-width:1;stroke:rgba(0,116,217,1.0);fill:none"/><path  d="M 38 351
L 40 351
L 42 351
L 44 351
L 45 351
L 47 351
L 49 351
L 51 351
L 52 351
L 54 351
L 56 351
L 57 351
L 59 351
L 61 351
L 63 351
L 64 351
L 66 351
L 68 350
L 70 351
L 71 351
L 73 349
L 75 351
L 76 350
L 78 347
L 80 351
L 82 349
L 83 350
L 85 349
L 87 346
L 89 347
L 90 343
L 92 349
L 94 347
L 95 349
L 97 349
L 99 348
L 101 350
L 102 347
L 104 347
L 106 351
L 108 347
L 109 349
L 111 351
L 113 349
L 114 350
L 116 351
L 118 351
L 120 350
L 121 350
L 123 351
L 125 349
L 127 351
L 128 351
L 130 351
L 132 351
L 133 351
L 135 350
L 137 351
L 139 350
L 140 350
L 142 351
L 144 351
L 146 351
L 147 351
L 149 350
L 151 351
L 152 351
L 154 351
L 156 351
L 158 351
L 159 351
L 161 350
L 163 351
L 165 351
L 166 351
L 168 351
L 170 351
L 171 351
L 173 351
L 175 351
L 177 351
L 178 351
L 180 351
L 182 351
L 184 351
L 185 351
L 187 351
L 189 351
L 190 351
L 192 351
L 194 351
L 196 351
L 197 351
L 199 351
L 201 351
L 203 351
L 204 351
L 206 351
L 208 351
L 209 351
L 211 350
L 213 350
L 215 351
L 216 351
L 218 351
L 220 351
L 222 351
L 223 351
L 225 351
L 227 351
L 228 351
L 230 351
L 232 351
L 234 350
L 235 351
L 237 349
L 239 351
L 241 350
L 242 351
L 244 351
L 246 351
L 247 351
L 249 351
L 251 349
L 253 351
L 254 351
L 256 350
L 258 350
L 260 351
L 261 351
L 263 350
L 265 351
L 266 351
L 268 351
L 270 350
L 272 351
L 273 351
L 275 351
L 277 351
L 279 351
L 280 351
L 282 350
L 284 349
L 286 349
L 287 351
L 289 351
L 291 351
L 292 351
L 294 351
L 296 350
L 298 351
L 299 351
L 301 349
L 303 351
L 304 351
L 306 351
L 308 351
L 310 350
L 311 349
L 313 351
L 315 350
L 317 350
L 318 351
L 320 350
L 322 351
L 323 349
L 325 350
L 327 349
L 329 351
L 330 351
L 332 349
L 334 350
L 336 351
L 337 351
L 339 349
L 341 351
L 342 350
L 344 351
L 346 351
L 348 351
L 349 350
L 351 350
L 353 349
L 355 350
L 356 349
L 358 351
L 360 349
L 361 351
L 363 350
L 365 348
L 367 351
L 368 350
L 370 350
L 372 351
L 374 349
L 375 347
L 377 349
L 379 349
L 380 347
L 382 350
L 384 349
L 386 350
L 387 347
L 389 349
L 391 349
L 393 349
L 394 347
L 396 349
L 398 349
L 399 349
L 401 349
L 403 348
L 405 344
L 406 348
L 408 348
L 410 347
L 412 343
L 413 347
L 415 345
L 417 347
L 418 343
L 420 344
L 422 342
L 424 342
L 425 346
L 427 345
L 429 343
L 431 344
L 432 347
L 434 344
L 436 345
L 437 341
L 439 345
L 441 342
L 443 349
L 444 350
L 446 343
L 448 347
L 450 344
L 451 339
L 453 343
L 455 345
L 456 342
L 458 344
L 460 336
L 462 333
L 463 336
L 465 323
L 467 337
L 469 340
L 470 326
L 472 327
L 474 325
L 475 332
L 477 313
L 479 330
L 481 334
L 482 333
L 484 328
L 486 335
L 488 329
L 489 333
L 491 330
L 493 324
L 494 315
L 496 326
L 498 328
L 500 320
L 501 325
L 503 334
L 505 334
L 507 326
L 508 328
L 510 324
L 512 329
L 513 320
L 515 317
L 517 324
L 519 343
L 520 320
L 522 343
L 524 314
L 526 332
L 527 333
L 529 338
L 531 337
L 533 341
L 534 343
L 536 325
L 538 343
L 539 343
L 541 338
L 543 335
L 545 340
L 546 339
L 548 334
L 550 345
L 551 345
L 553 343
L 555 347
L 557 337
L 558 345
L 560 345
L 562 349
L 564 348
L 565 349
L 567 343
L 569 340
L 570 341
L 572 347
L 574 348
L 576 348
L 577 349
L 579 343
L 581 335
L 583 341
L 584 347
L 586 347
L 588 347
L 589 347
L 591 345
L 593 342
L 595 345
L 596 342
L 598 345
L 600 349
L 602 345
L 603 345
L 605 345
L 607 347
L 608 348
L 610 351
L 612 346
L 614 350
L 615 349
L 617 348
L 619 349
L 621 342
L 622 346
L 624 350
L 626 348
L 627 347
L 629 349
L 631 348
L 633 348
L 634 348
L 636 350
L 638 349
L 640 350
L 641 347
L 643 345
L 645 345
L 646 346
L 648 350
L 650 349
L 652 347
L 653 345
L 655 344
L 657 345
L 659 345
L 660 348
L 662 349
L 664 341
L 665 345
L 667 343
L 669 342
L 671 341
L 672 331
L 674 347
L 676 336
L 678 335
L 679 345
L 681 342
L 683 337
L 684 335
L 686 343
L 688 337
L 690 343
L 691 341
L 693 332
L 695 332
L 697 332
L 698 343
L 700 336
L 702 344
L 703 343
L 705 342
L 707 336
L 709 341
L 710 339
L 712 340
L 714 339
L 716 337
L 717 343
L 719 330
L 721 344
L 722 337
L 724 331
L 726 341
L 728 337
L 729 332
L 731 334
L 733 338
L 735 341
L 736 340
L 738 339
L 740 344
L 741 341
L 743 337
L 745 347
L 747 339
L 748 341
L 750 342
L 752 344
L 754 335
L 755 345
L 757 341
L 759 339
L 760 345
L 762 339
L 764 339
L 766 340
L 767 343
L 769 345
L 771 345
L 773 337
L 774 340
L 776 340
L 778 342
L 779 341
L 781 339
L 783 344
L 785 345
L 786 343
L 788 343
L 790 341
L 792 344
L 793 342
L 795 345
L 797 343
L 798 345
L 800 341
L 802 345
L 804 343
L 805 347
L 807 349
L 809 345
L 811 345
L 812 346
L 814 345
L 816 347
L 817 349
L 819 350
L 821 349
L 823 347
L 824 348
L 826 348
L 828 347
L 830 349
L 831 349
L 833 349
L 835 349
L 836 350
L 838 348
L 840 351
L 842 347
L 843 351
L 845 349
L 847 347
L 849 349
L 850 350
L 852 349
L 854 350
L 855 351
L 857 349
L 859 351
L 861 350
L 862 350
L 864 349
L 866 350
L 868 351
L 869 350
L 871 350
L 873 351
L 874 349
L 876 351
L 878 351
L 880 349
L 881 349
L 883 350
L 885 347
L 887 348
L 888 349
L 890 349
L 892 351
L 893 350
L 895 349
L 897 349
L 899 348
L 900 351
L 902 351
L 904 350
L 906 347
L 907 349
L 909 349
L 911 349
L 912 349
L 914 350
L 916 350
L 918 350
L 919 349
L 921 349
L 923 351
L 925 351
L 926 350
L 928 349
L 930 350
L 931 350
L 933 349
L 935 349
L 937 349
L 938 350
L 940 350
L 942 349
L 944 348
L 945 347
L 947 349
L 949 351
L 950 350
L 952 349
L 954 345
L 956 343
L 957 346
L 959 336
L 961 345
L 963 345
L 964 343
L 966 344
L 968 347
L 969 349" style="stroke-width:1;stroke:rgba(0,217,101,1.0);fill:none"/><path  d="M 38 351
L 40 351
L 42 351
L 44 351
L 45 351
L 47 351
L 49 351
L 51 351
L 52 351
L 54 351
L 56 351
L 57 351
L 59 351
L 61 351
L 63 351
L 64 351
L 66 351
L 68 351
L 70 351
L 71 351
L 73 351
L 75 350
L 76 351
L 78 351
L 80 351
L 82 351
L 83 351
L 85 351
L 87 351
L 89 351
L 90 351
L 92 351
L 94 351
L 95 351
L 97 351
L 99 351
L 101 351
L 102 351
L 104 351
L 106 351
L 108 351
L 109 351
L 111 351
L 113 351
L 114 351
L 116 351
L 118 351
L 120 351
L 121 351
L 123 351
L 125 351
L 127 351
L 128 351
L 130 351
L 132 351
L 133 351
L 135 351
L 137 351
L 139 351
L 140 351
L 142 351
L 144 351
L 146 351
L 147 351
L 149 351
L 151 351
L 152 351
L 154 351
L 156 351
L 158 351
L 159 351
L 161 351
L 163 351
L 165 351
L 166 351
L 168 351
L 170 350
L 171 351
L 173 351
L 175 351
L 177 351
L 178 351
L 180 351
L 182 351
L 184 351
L 185 351
L 187 351
L 189 351
L 190 351
L 192 351
L 194 351
L 196 351
L 197 351
L 199 351
L 201 351
L 203 351
L 204 351
L 206 351
L 208 351
L 209 350
L 211 351
L 213 351
L 215 351
L 216 351
L 218 351
L 220 351
L 222 351
L 223 351
L 225 351
L 227 351
L 228 351
L 230 351
L 232 351
L 234 351
L 235 351
L 237 351
L 239 351
L 241 351
L 242 351
L 244 351
L 246 351
L 247 351
L 249 351
L 251 351
L 253 351
L 254 351
L 256 351
L 258 351
L 260 351
L 261 351
L 263 351
L 265 351
L 266 351
L 268 351
L 270 351
L 272 351
L 273 351
L 275 351
L 277 351
L 279 351
L 280 351
L 282 351
L 284 351
L 286 351
L 287 351
L 289 351
L 291 351
L 292 351
L 294 351
L 296 351
L 298 351
L 299 351
L 301 351
L 303 351
L 304 351
L 306 351
L 308 351
L 310 351
L 311 351
L 313 351
L 315 351
L 317 351
L 318 351
L 320 351
L 322 351
L 323 351
L 325 351
L 327 351
L 329 351
L 330 351
L 332 351
L 334 351
L 336 351
L 337 351
L 339 351
L 341 351
L 342 351
L 344 351
L 346 351
L 348 351
L 349 351
L 351 351
L 353 351
L 355 351
L 356 351
L 358 351
L 360 351
L 361 351
L 363 351
L 365 351
L 367 351
L 368 351
L 370 351
L 372 351
L 374 351
L 375 351
L 377 351
L 379 351
L 380 351
L 382 351
L 384 351
L 386 351
L 387 351
L 389 351
L 391 351
L 393 351
L 394 351
L 396 351
L 398 351
L 399 351
L 401 351
L 403 351
L 405 350
L 406 351
L 408 351
L 410 351
L 412 350
L 413 351
L 415 351
L 417 351
L 418 351
L 420 351
L 422 350
L 424 351
L 425 351
L 427 349
L 429 351
L 431 350
L 432 351
L 434 351
L 436 351
L 437 351
L 439 351
L 441 351
L 443 351
L 444 351
L 446 351
L 448 351
L 450 351
L 451 351
L 453 351
L 455 351
L 456 351
L 458 351
L 460 351
L 462 350
L 463 351
L 465 351
L 467 351
L 469 351
L 470 351
L 472 351
L 474 351
L 475 351
L 477 351
L 479 351
L 481 351
L 482 351
L 484 351
L 486 351
L 488 350
L 489 351
L 491 351
L 493 351
L 494 351
L 496 351
L 498 351
L 500 350
L 501 350
L 503 351
L 505 351
L 507 351
L 508 351
L 510 350
L 512 351
L 513 351
L 515 349
L 517 350
L 519 350
L 520 351
L 522 350
L 524 351
L 526 350
L 527 350
L 529 351
L 531 349
L 533 348
L 534 351
L 536 349
L 538 351
L 539 349
L 541 349
L 543 351
L 545 350
L 546 351
L 548 351
L 550 350
L 551 351
L 553 351
L 555 351
L 557 351
L 558 350
L 560 351
L 562 351
L 564 351
L 565 350
L 567 350
L 569 351
L 570 351
L 572 351
L 574 351
L 576 351
L 577 351
L 579 351
L 581 351
L 583 351
L 584 351
L 586 350
L 588 351
L 589 351
L 591 351
L 593 351
L 595 351
L 596 351
L 598 351
L 600 351
L 602 350
L 603 351
L 605 351
L 607 351
L 608 350
L 610 351
L 612 351
L 614 351
L 615 351
L 617 351
L 619 350
L 621 351
L 622 351
L 624 351
L 626 351
L 627 351
L 629 351
L 631 351
L 633 351
L 634 351
L 636 351
L 638 351
L 640 351
L 641 351
L 643 351
L 645 351
L 646 351
L 648 351
L 650 351
L 652 351
L 653 351
L 655 351
L 657 351
L 659 351
L 660 351
L 662 351
L 664 350
L 665 351
L 667 351
L 669 351
L 671 351
L 672 351
L 674 351
L 676 351
L 678 351
L 679 351
L 681 351
L 683 351
L 684 351
L 686 351
L 688 351
L 690 351
L 691 351
L 693 351
L 695 351
L 697 350
L 698 351
L 700 350
L 702 351
L 703 349
L 705 351
L 707 351
L 709 350
L 710 351
L 712 351
L 714 351
L 716 351
L 717 351
L 719 351
L 721 351
L 722 351
L 724 350
L 726 351
L 728 351
L 729 351
L 731 351
L 733 351
L 735 350
L 736 351
L 738 351
L 740 351
L 741 351
L 743 351
L 745 351
L 747 351
L 748 351
L 750 350
L 752 350
L 754 351
L 755 351
L 757 351
L 759 351
L 760 351
L 762 351
L 764 351
L 766 350
L 767 351
L 769 351
L 771 351
L 773 351
L 774 351
L 776 351
L 778 351
L 779 351
L 781 351
L 783 351
L 785 351
L 786 351
L 788 351
L 790 351
L 792 351
L 793 351
L 795 351
L 797 351
L 798 351
L 800 350
L 802 351
L 804 351
L 805 351
L 807 351
L 809 350
L 811 351
L 812 351
L 814 351
L 816 351
L 817 351
L 819 351
L 821 351
L 823 350
L 824 351
L 826 351
L 828 351
L 830 351
L 831 351
L 833 351
L 835 351
L 836 351
L 838 351
L 840 351
L 842 351
L 843 351
L 845 351
L 847 351
L 849 351
L 850 351
L 852 351
L 854 351
L 855 351
L 857 351
L 859 351
L 861 351
L 862 351
L 864 351
L 866 351
L 868 351
L 869 351
L 871 351
L 873 351
L 874 351
L 876 351
L 878 351
L 880 351
L 881 351
L 883 351
L 885 351
L 887 351
L 888 351
L 890 350
L 892 351
L 893 351
L 895 351
L 897 351
L 899 351
L 900 351
L 902 351
L 904 351
L 906 351
L 907 351
L 909 351
L 911 351
L 912 351
L 914 351
L 916 351
L 918 351
L 919 351
L 921 351
L 923 351
L 925 351
L 926 351
L 928 351
L 930 351
L 931 351
L 933 351
L 935 351
L 937 351
L 938 351
L 940 351
L 942 351
L 944 351
L 945 351
L 947 351
L 949 351
L 950 351
L 952 351
L 954 351
L 956 351
L 957 351
L 959 351
L 961 351
L 963 351
L 964 351
L 966 351
L 968 351
L 969 351" style="stroke-width:1;stroke:rgba(217,0,116,1.0);fill:none"/><text x="349" y="33" style="stroke-width:0;stroke:none;fill:rgba(51,51,51,1.0);font-size:23.0px;font-family:'Roboto Medium',sans-serif">Sankt Pölten(Stadt) 18.08.2021</text><path  d="M 38 11
L 251 11
L 251 91
L 38 91
L 38 11" style="stroke-width:1;stroke:rgba(51,51,51,1.0);fill:rgba(255,255,255,1.0)"/><text x="43" y="26" style="stroke-width:0;stroke:none;fill:rgba(51,51,51,1.0);font-size:10.2px;font-family:'Roboto Medium',sans-serif">Sieben Tage Durschnitt Inzidenz Fälle</text><path  d="M 221 21
L 241 21" style="stroke-width:1;stroke:rgba(0,116,217,1.0);fill:none"/><text x="43" y="56" style="stroke-width:0;stroke:none;fill:rgba(51,51,51,1.0);font-size:10.2px;font-family:'Roboto Medium',sans-serif">Anzahl Faelle</text><path  d="M 110 51
L 241 51" style="stroke-width:1;stroke:rgba(0,217,101,1.0);fill:none"/><text x="43" y="86" style="stroke-width:0;stroke:none;fill:rgba(51,51,51,1.0);font-size:10.2px;font-family:'Roboto Medium',sans-serif">Anzahl Tot</text><path  d="M 98 81
L 241 81" style="stroke-width:1;stroke:rgba(217,0,116,1.0);fill:none"/></svg>