<svg xmlns="http://www.w3.org/2000/svg" xmlns:xlink="http://www.w3.org/1999/xlink" width="1024" height="400">\n<path  d="M 0 0
L 1024 0
L 1024 400
L 0 400
L 0 0" style="stroke-width:0;stroke:rgba(255,255,255,1.0);fill:rgba(255,255,255,1.0)"/><path  d="M 38 11
L 969 11
L 969 351
L 38 351
L 38 11" style="stroke-width:0;stroke:rgba(255,255,255,1.0);fill:rgba(255,255,255,1.0)"/><path  d="M 38 351
L 969 351" style="stroke-width:1;stroke:rgba(51,51,51,1.0);fill:none"/><path  d="M 38 351
L 38 356" style="stroke-width:1;stroke:rgba(51,51,51,1.0);fill:none"/><text x="5" y="373" style="stroke-width:0;stroke:none;fill:rgba(51,51,51,1.0);font-size:12.8px;font-family:'Roboto Medium',sans-serif">2020-02-26</text><path  d="M 155 351
L 155 356" style="stroke-width:1;stroke:rgba(51,51,51,1.0);fill:none"/><text x="122" y="373" style="stroke-width:0;stroke:none;fill:rgba(51,51,51,1.0);font-size:12.8px;font-family:'Roboto Medium',sans-serif">2020-05-03</text><path  d="M 271 351
L 271 356" style="stroke-width:1;stroke:rgba(51,51,51,1.0);fill:none"/><text x="238" y="373" style="stroke-width:0;stroke:none;fill:rgba(51,51,51,1.0);font-size:12.8px;font-family:'Roboto Medium',sans-serif">2020-07-09</text><path  d="M 388 351
L 388 356" style="stroke-width:1;stroke:rgba(51,51,51,1.0);fill:none"/><text x="355" y="373" style="stroke-width:0;stroke:none;fill:rgba(51,51,51,1.0);font-size:12.8px;font-family:'Roboto Medium',sans-serif">2020-09-15</text><path  d="M 504 351
L 504 356" style="stroke-width:1;stroke:rgba(51,51,51,1.0);fill:none"/><text x="471" y="373" style="stroke-width:0;stroke:none;fill:rgba(51,51,51,1.0);font-size:12.8px;font-family:'Roboto Medium',sans-serif">2020-11-21</text><path  d="M 620 351
L 620 356" style="stroke-width:1;stroke:rgba(51,51,51,1.0);fill:none"/><text x="587" y="373" style="stroke-width:0;stroke:none;fill:rgba(51,51,51,1.0);font-size:12.8px;font-family:'Roboto Medium',sans-serif">2021-01-27</text><path  d="M 737 351
L 737 356" style="stroke-width:1;stroke:rgba(51,51,51,1.0);fill:none"/><text x="704" y="373" style="stroke-width:0;stroke:none;fill:rgba(51,51,51,1.0);font-size:12.8px;font-family:'Roboto Medium',sans-serif">2021-04-05</text><path  d="M 853 351
L 853 356" style="stroke-width:1;stroke:rgba(51,51,51,1.0);fill:none"/><text x="820" y="373" style="stroke-width:0;stroke:none;fill:rgba(51,51,51,1.0);font-size:12.8px;font-family:'Roboto Medium',sans-serif">2021-06-11</text><path  d="M 969 351
L 969 356" style="stroke-width:1;stroke:rgba(51,51,51,1.0);fill:none"/><text x="936" y="373" style="stroke-width:0;stroke:none;fill:rgba(51,51,51,1.0);font-size:12.8px;font-family:'Roboto Medium',sans-serif">2021-08-18</text><text x="485" y="395" style="stroke-width:0;stroke:none;fill:rgba(51,51,51,1.0);font-size:12.8px;font-family:'Roboto Medium',sans-serif">Datum</text><path  d="M 970 351
L 970 11" style="stroke-width:1;stroke:rgba(51,51,51,1.0);fill:none"/><path  d="M 970 351
L 975 351" style="stroke-width:1;stroke:rgba(51,51,51,1.0);fill:none"/><text x="980" y="357" style="stroke-width:0;stroke:none;fill:rgba(51,51,51,1.0);font-size:12.8px;font-family:'Roboto Medium',sans-serif">0.00</text><path  d="M 970 308
L 975 308" style="stroke-width:1;stroke:rgba(51,51,51,1.0);fill:none"/><text x="980" y="314" style="stroke-width:0;stroke:none;fill:rgba(51,51,51,1.0);font-size:12.8px;font-family:'Roboto Medium',sans-serif">120.00</text><path  d="M 970 266
L 975 266" style="stroke-width:1;stroke:rgba(51,51,51,1.0);fill:none"/><text x="980" y="272" style="stroke-width:0;stroke:none;fill:rgba(51,51,51,1.0);font-size:12.8px;font-family:'Roboto Medium',sans-serif">240.00</text><path  d="M 970 223
L 975 223" style="stroke-width:1;stroke:rgba(51,51,51,1.0);fill:none"/><text x="980" y="229" style="stroke-width:0;stroke:none;fill:rgba(51,51,51,1.0);font-size:12.8px;font-family:'Roboto Medium',sans-serif">360.00</text><path  d="M 970 181
L 975 181" style="stroke-width:1;stroke:rgba(51,51,51,1.0);fill:none"/><text x="980" y="187" style="stroke-width:0;stroke:none;fill:rgba(51,51,51,1.0);font-size:12.8px;font-family:'Roboto Medium',sans-serif">480.00</text><path  d="M 970 138
L 975 138" style="stroke-width:1;stroke:rgba(51,51,51,1.0);fill:none"/><text x="980" y="144" style="stroke-width:0;stroke:none;fill:rgba(51,51,51,1.0);font-size:12.8px;font-family:'Roboto Medium',sans-serif">600.00</text><path  d="M 970 96
L 975 96" style="stroke-width:1;stroke:rgba(51,51,51,1.0);fill:none"/><text x="980" y="102" style="stroke-width:0;stroke:none;fill:rgba(51,51,51,1.0);font-size:12.8px;font-family:'Roboto Medium',sans-serif">720.00</text><path  d="M 970 53
L 975 53" style="stroke-width:1;stroke:rgba(51,51,51,1.0);fill:none"/><text x="980" y="59" style="stroke-width:0;stroke:none;fill:rgba(51,51,51,1.0);font-size:12.8px;font-family:'Roboto Medium',sans-serif">840.00</text><path  d="M 970 11
L 975 11" style="stroke-width:1;stroke:rgba(51,51,51,1.0);fill:none"/><text x="980" y="17" style="stroke-width:0;stroke:none;fill:rgba(51,51,51,1.0);font-size:12.8px;font-family:'Roboto Medium',sans-serif">960.00</text><path  d="M 38 351
L 40 351
L 42 351
L 44 351
L 45 351
L 47 351
L 49 351
L 51 351
L 52 351
L 54 351
L 56 351
L 57 351
L 59 351
L 61 351
L 63 351
L 64 351
L 66 351
L 68 351
L 70 351
L 71 351
L 73 348
L 75 348
L 76 348
L 78 348
L 80 346
L 82 342
L 83 340
L 85 340
L 87 326
L 89 312
L 90 302
L 92 300
L 94 296
L 95 290
L 97 286
L 99 299
L 101 310
L 102 321
L 104 323
L 106 330
L 108 337
L 109 342
L 111 344
L 113 345
L 114 345
L 116 346
L 118 348
L 120 349
L 121 351
L 123 351
L 125 351
L 127 351
L 128 351
L 130 351
L 132 350
L 133 350
L 135 350
L 137 350
L 139 350
L 140 350
L 142 350
L 144 351
L 146 351
L 147 351
L 149 351
L 151 351
L 152 351
L 154 351
L 156 351
L 158 351
L 159 351
L 161 351
L 163 351
L 165 351
L 166 351
L 168 351
L 170 351
L 171 351
L 173 351
L 175 351
L 177 351
L 178 351
L 180 351
L 182 351
L 184 351
L 185 351
L 187 351
L 189 351
L 190 351
L 192 351
L 194 351
L 196 351
L 197 351
L 199 351
L 201 351
L 203 351
L 204 351
L 206 351
L 208 351
L 209 351
L 211 351
L 213 351
L 215 351
L 216 351
L 218 351
L 220 351
L 222 351
L 223 351
L 225 351
L 227 351
L 228 351
L 230 351
L 232 351
L 234 351
L 235 351
L 237 351
L 239 351
L 241 351
L 242 351
L 244 351
L 246 351
L 247 351
L 249 351
L 251 351
L 253 351
L 254 351
L 256 351
L 258 350
L 260 350
L 261 350
L 263 350
L 265 350
L 266 350
L 268 348
L 270 349
L 272 349
L 273 349
L 275 349
L 277 349
L 279 349
L 280 351
L 282 351
L 284 351
L 286 351
L 287 351
L 289 351
L 291 351
L 292 351
L 294 351
L 296 351
L 298 351
L 299 350
L 301 349
L 303 349
L 304 346
L 306 346
L 308 346
L 310 346
L 311 347
L 313 348
L 315 348
L 317 351
L 318 351
L 320 351
L 322 351
L 323 351
L 325 351
L 327 351
L 329 351
L 330 350
L 332 350
L 334 350
L 336 350
L 337 350
L 339 348
L 341 348
L 342 349
L 344 349
L 346 349
L 348 349
L 349 349
L 351 351
L 353 351
L 355 351
L 356 351
L 358 351
L 360 351
L 361 350
L 363 350
L 365 350
L 367 350
L 368 350
L 370 350
L 372 350
L 374 351
L 375 351
L 377 351
L 379 351
L 380 350
L 382 348
L 384 348
L 386 348
L 387 345
L 389 344
L 391 343
L 393 342
L 394 339
L 396 339
L 398 335
L 399 334
L 401 333
L 403 331
L 405 328
L 406 333
L 408 327
L 410 331
L 412 333
L 413 334
L 415 335
L 417 339
L 418 339
L 420 345
L 422 343
L 424 345
L 425 344
L 427 346
L 429 345
L 431 344
L 432 344
L 434 345
L 436 342
L 437 343
L 439 339
L 441 339
L 443 339
L 444 340
L 446 339
L 448 339
L 450 339
L 451 336
L 453 327
L 455 325
L 456 317
L 458 317
L 460 305
L 462 294
L 463 269
L 465 252
L 467 241
L 469 219
L 470 194
L 472 185
L 474 173
L 475 179
L 477 170
L 479 120
L 481 123
L 482 102
L 484 82
L 486 68
L 488 51
L 489 51
L 491 74
L 493 51
L 494 56
L 496 51
L 498 42
L 500 35
L 501 11
L 503 15
L 505 50
L 507 56
L 508 78
L 510 91
L 512 117
L 513 163
L 515 166
L 517 156
L 519 174
L 520 177
L 522 194
L 524 189
L 526 184
L 527 195
L 529 207
L 531 217
L 533 208
L 534 219
L 536 233
L 538 240
L 539 252
L 541 254
L 543 258
L 545 283
L 546 279
L 548 287
L 550 298
L 551 293
L 553 286
L 555 285
L 557 277
L 558 274
L 560 275
L 562 275
L 564 282
L 565 293
L 567 292
L 569 293
L 570 295
L 572 288
L 574 287
L 576 284
L 577 282
L 579 281
L 581 281
L 583 282
L 584 288
L 586 286
L 588 281
L 589 282
L 591 284
L 593 270
L 595 275
L 596 272
L 598 264
L 600 266
L 602 260
L 603 252
L 605 271
L 607 264
L 608 264
L 610 270
L 612 272
L 614 280
L 615 287
L 617 280
L 619 285
L 621 292
L 622 298
L 624 303
L 626 300
L 627 303
L 629 314
L 631 315
L 633 315
L 634 313
L 636 313
L 638 317
L 640 317
L 641 316
L 643 315
L 645 315
L 646 306
L 648 304
L 650 304
L 652 301
L 653 301
L 655 307
L 657 309
L 659 315
L 660 314
L 662 312
L 664 312
L 665 313
L 667 304
L 669 292
L 671 293
L 672 291
L 674 293
L 676 293
L 678 286
L 679 289
L 681 298
L 683 295
L 684 293
L 686 293
L 688 296
L 690 299
L 691 299
L 693 293
L 695 283
L 697 270
L 698 268
L 700 254
L 702 245
L 703 240
L 705 225
L 707 221
L 709 231
L 710 218
L 712 209
L 714 215
L 716 194
L 717 204
L 719 200
L 721 205
L 722 199
L 724 193
L 726 194
L 728 212
L 729 193
L 731 195
L 733 166
L 735 176
L 736 198
L 738 187
L 740 197
L 741 221
L 743 216
L 745 247
L 747 245
L 748 241
L 750 240
L 752 237
L 754 235
L 755 253
L 757 248
L 759 255
L 760 264
L 762 281
L 764 271
L 766 275
L 767 280
L 769 281
L 771 286
L 773 281
L 774 273
L 776 286
L 778 286
L 779 288
L 781 294
L 783 298
L 785 300
L 786 307
L 788 310
L 790 316
L 792 317
L 793 321
L 795 322
L 797 331
L 798 333
L 800 334
L 802 337
L 804 338
L 805 338
L 807 338
L 809 338
L 811 341
L 812 340
L 814 339
L 816 342
L 817 342
L 819 342
L 821 339
L 823 336
L 824 335
L 826 336
L 828 332
L 830 333
L 831 330
L 833 334
L 835 336
L 836 339
L 838 340
L 840 344
L 842 345
L 843 348
L 845 347
L 847 346
L 849 346
L 850 346
L 852 346
L 854 345
L 855 345
L 857 346
L 859 349
L 861 349
L 862 349
L 864 350
L 866 351
L 868 351
L 869 350
L 871 350
L 873 350
L 874 350
L 876 350
L 878 350
L 880 350
L 881 351
L 883 350
L 885 350
L 887 350
L 888 350
L 890 350
L 892 350
L 893 350
L 895 351
L 897 351
L 899 351
L 900 351
L 902 351
L 904 351
L 906 351
L 907 351
L 909 350
L 911 349
L 912 347
L 914 347
L 916 346
L 918 346
L 919 346
L 921 347
L 923 347
L 925 349
L 926 346
L 928 347
L 930 346
L 931 345
L 933 344
L 935 342
L 937 340
L 938 342
L 940 340
L 942 340
L 944 340
L 945 342
L 947 341
L 949 343
L 950 339
L 952 341
L 954 341
L 956 339
L 957 338
L 959 336
L 961 331
L 963 328
L 964 325
L 966 322
L 968 322
L 969 321" style="stroke-width:1;stroke:rgba(0,116,217,1.0);fill:none"/><path  d="M 38 351
L 40 351
L 42 351
L 44 351
L 45 351
L 47 351
L 49 351
L 51 351
L 52 351
L 54 351
L 56 351
L 57 351
L 59 351
L 61 351
L 63 351
L 64 351
L 66 351
L 68 351
L 70 351
L 71 351
L 73 349
L 75 351
L 76 351
L 78 351
L 80 350
L 82 349
L 83 350
L 85 349
L 87 344
L 89 345
L 90 346
L 92 349
L 94 347
L 95 347
L 97 348
L 99 350
L 101 350
L 102 351
L 104 350
L 106 350
L 108 350
L 109 350
L 111 351
L 113 351
L 114 351
L 116 351
L 118 351
L 120 351
L 121 351
L 123 351
L 125 351
L 127 351
L 128 351
L 130 351
L 132 350
L 133 351
L 135 351
L 137 351
L 139 351
L 140 351
L 142 351
L 144 351
L 146 351
L 147 351
L 149 351
L 151 351
L 152 351
L 154 351
L 156 351
L 158 351
L 159 351
L 161 351
L 163 351
L 165 351
L 166 351
L 168 351
L 170 351
L 171 351
L 173 351
L 175 351
L 177 351
L 178 351
L 180 351
L 182 351
L 184 351
L 185 351
L 187 351
L 189 351
L 190 351
L 192 351
L 194 351
L 196 351
L 197 351
L 199 351
L 201 351
L 203 351
L 204 351
L 206 351
L 208 351
L 209 351
L 211 351
L 213 351
L 215 351
L 216 351
L 218 351
L 220 351
L 222 351
L 223 351
L 225 351
L 227 351
L 228 351
L 230 351
L 232 351
L 234 351
L 235 351
L 237 351
L 239 351
L 241 351
L 242 351
L 244 351
L 246 351
L 247 351
L 249 351
L 251 351
L 253 351
L 254 351
L 256 351
L 258 350
L 260 351
L 261 351
L 263 351
L 265 351
L 266 351
L 268 350
L 270 351
L 272 351
L 273 351
L 275 351
L 277 351
L 279 351
L 280 351
L 282 351
L 284 351
L 286 351
L 287 351
L 289 351
L 291 351
L 292 351
L 294 351
L 296 351
L 298 351
L 299 350
L 301 350
L 303 351
L 304 349
L 306 351
L 308 351
L 310 351
L 311 351
L 313 351
L 315 351
L 317 351
L 318 351
L 320 351
L 322 351
L 323 351
L 325 351
L 327 351
L 329 351
L 330 350
L 332 351
L 334 351
L 336 351
L 337 351
L 339 350
L 341 351
L 342 351
L 344 351
L 346 351
L 348 351
L 349 351
L 351 351
L 353 351
L 355 351
L 356 351
L 358 351
L 360 351
L 361 350
L 363 351
L 365 351
L 367 351
L 368 351
L 370 351
L 372 351
L 374 351
L 375 351
L 377 351
L 379 351
L 380 350
L 382 350
L 384 351
L 386 351
L 387 349
L 389 350
L 391 350
L 393 350
L 394 349
L 396 350
L 398 349
L 399 349
L 401 349
L 403 349
L 405 349
L 406 351
L 408 348
L 410 351
L 412 350
L 413 350
L 415 349
L 417 351
L 418 351
L 420 350
L 422 350
L 424 351
L 425 350
L 427 351
L 429 350
L 431 350
L 432 350
L 434 350
L 436 349
L 437 350
L 439 349
L 441 350
L 443 350
L 444 351
L 446 350
L 448 349
L 450 350
L 451 348
L 453 346
L 455 349
L 456 347
L 458 350
L 460 344
L 462 345
L 463 337
L 465 339
L 467 345
L 469 338
L 470 339
L 472 341
L 474 340
L 475 340
L 477 335
L 479 324
L 481 339
L 482 330
L 484 333
L 486 334
L 488 333
L 489 335
L 491 334
L 493 330
L 494 332
L 496 331
L 498 331
L 500 330
L 501 325
L 503 336
L 505 344
L 507 335
L 508 340
L 510 336
L 512 341
L 513 344
L 515 337
L 517 340
L 519 342
L 520 341
L 522 343
L 524 338
L 526 342
L 527 342
L 529 345
L 531 346
L 533 337
L 534 348
L 536 344
L 538 345
L 539 347
L 541 346
L 543 348
L 545 348
L 546 346
L 548 348
L 550 349
L 551 345
L 553 343
L 555 348
L 557 344
L 558 345
L 560 348
L 562 349
L 564 348
L 565 347
L 567 347
L 569 345
L 570 346
L 572 345
L 574 348
L 576 347
L 577 347
L 579 347
L 581 345
L 583 346
L 584 348
L 586 347
L 588 345
L 589 347
L 591 347
L 593 340
L 595 348
L 596 347
L 598 344
L 600 346
L 602 344
L 603 344
L 605 348
L 607 345
L 608 347
L 610 347
L 612 347
L 614 348
L 615 347
L 617 344
L 619 347
L 621 349
L 622 349
L 624 349
L 626 347
L 627 348
L 629 349
L 631 348
L 633 349
L 634 348
L 636 349
L 638 348
L 640 348
L 641 349
L 643 347
L 645 349
L 646 345
L 648 348
L 650 348
L 652 347
L 653 349
L 655 349
L 657 350
L 659 347
L 660 348
L 662 348
L 664 347
L 665 349
L 667 346
L 669 345
L 671 348
L 672 347
L 674 349
L 676 346
L 678 346
L 679 347
L 681 349
L 683 347
L 684 346
L 686 348
L 688 348
L 690 347
L 691 347
L 693 346
L 695 343
L 697 341
L 698 348
L 700 342
L 702 343
L 703 345
L 705 340
L 707 341
L 709 345
L 710 342
L 712 338
L 714 346
L 716 336
L 717 344
L 719 339
L 721 347
L 722 340
L 724 336
L 726 346
L 728 344
L 729 336
L 731 340
L 733 335
L 735 344
L 736 345
L 738 342
L 740 348
L 741 346
L 743 338
L 745 347
L 747 343
L 748 343
L 750 341
L 752 347
L 754 345
L 755 345
L 757 346
L 759 346
L 760 347
L 762 348
L 764 343
L 766 347
L 767 347
L 769 346
L 771 348
L 773 345
L 774 345
L 776 348
L 778 347
L 779 348
L 781 348
L 783 349
L 785 346
L 786 348
L 788 350
L 790 349
L 792 349
L 793 350
L 795 350
L 797 350
L 798 349
L 800 350
L 802 350
L 804 349
L 805 350
L 807 350
L 809 350
L 811 351
L 812 350
L 814 349
L 816 351
L 817 350
L 819 350
L 821 349
L 823 349
L 824 349
L 826 350
L 828 349
L 830 350
L 831 349
L 833 351
L 835 350
L 836 351
L 838 351
L 840 350
L 842 351
L 843 351
L 845 350
L 847 349
L 849 351
L 850 351
L 852 350
L 854 350
L 855 351
L 857 351
L 859 351
L 861 351
L 862 351
L 864 351
L 866 351
L 868 351
L 869 350
L 871 351
L 873 351
L 874 351
L 876 351
L 878 351
L 880 351
L 881 351
L 883 350
L 885 351
L 887 351
L 888 351
L 890 351
L 892 351
L 893 351
L 895 351
L 897 351
L 899 351
L 900 351
L 902 351
L 904 351
L 906 351
L 907 351
L 909 350
L 911 350
L 912 350
L 914 351
L 916 350
L 918 351
L 919 351
L 921 351
L 923 350
L 925 351
L 926 349
L 928 351
L 930 350
L 931 350
L 933 350
L 935 349
L 937 350
L 938 350
L 940 350
L 942 350
L 944 350
L 945 351
L 947 349
L 949 351
L 950 349
L 952 351
L 954 350
L 956 349
L 957 350
L 959 348
L 961 348
L 963 348
L 964 349
L 966 349
L 968 349
L 969 350" style="stroke-width:1;stroke:rgba(0,217,101,1.0);fill:none"/><path  d="M 38 351
L 40 351
L 42 351
L 44 351
L 45 351
L 47 351
L 49 351
L 51 351
L 52 351
L 54 351
L 56 351
L 57 351
L 59 351
L 61 351
L 63 351
L 64 351
L 66 351
L 68 351
L 70 351
L 71 351
L 73 351
L 75 351
L 76 351
L 78 351
L 80 351
L 82 351
L 83 351
L 85 351
L 87 351
L 89 351
L 90 351
L 92 351
L 94 351
L 95 351
L 97 351
L 99 351
L 101 351
L 102 351
L 104 351
L 106 351
L 108 351
L 109 351
L 111 351
L 113 351
L 114 351
L 116 351
L 118 351
L 120 351
L 121 351
L 123 351
L 125 351
L 127 351
L 128 351
L 130 351
L 132 351
L 133 351
L 135 351
L 137 351
L 139 351
L 140 351
L 142 351
L 144 351
L 146 351
L 147 351
L 149 351
L 151 351
L 152 351
L 154 351
L 156 351
L 158 351
L 159 351
L 161 351
L 163 351
L 165 351
L 166 350
L 168 351
L 170 351
L 171 351
L 173 351
L 175 351
L 177 351
L 178 351
L 180 351
L 182 351
L 184 351
L 185 351
L 187 351
L 189 351
L 190 351
L 192 351
L 194 351
L 196 351
L 197 351
L 199 351
L 201 351
L 203 351
L 204 351
L 206 351
L 208 351
L 209 351
L 211 351
L 213 351
L 215 351
L 216 351
L 218 351
L 220 351
L 222 351
L 223 351
L 225 351
L 227 351
L 228 351
L 230 351
L 232 351
L 234 351
L 235 351
L 237 351
L 239 351
L 241 351
L 242 351
L 244 351
L 246 351
L 247 351
L 249 351
L 251 351
L 253 351
L 254 351
L 256 351
L 258 351
L 260 351
L 261 351
L 263 351
L 265 351
L 266 351
L 268 351
L 270 351
L 272 351
L 273 351
L 275 351
L 277 351
L 279 351
L 280 351
L 282 351
L 284 351
L 286 351
L 287 351
L 289 351
L 291 351
L 292 351
L 294 351
L 296 351
L 298 351
L 299 351
L 301 351
L 303 351
L 304 351
L 306 351
L 308 351
L 310 351
L 311 351
L 313 351
L 315 351
L 317 351
L 318 351
L 320 351
L 322 351
L 323 351
L 325 351
L 327 351
L 329 351
L 330 351
L 332 351
L 334 351
L 336 351
L 337 351
L 339 351
L 341 351
L 342 351
L 344 351
L 346 351
L 348 351
L 349 351
L 351 351
L 353 351
L 355 351
L 356 351
L 358 351
L 360 351
L 361 351
L 363 351
L 365 351
L 367 351
L 368 351
L 370 351
L 372 351
L 374 351
L 375 351
L 377 351
L 379 351
L 380 351
L 382 351
L 384 351
L 386 351
L 387 351
L 389 351
L 391 351
L 393 351
L 394 351
L 396 351
L 398 351
L 399 351
L 401 351
L 403 351
L 405 351
L 406 351
L 408 351
L 410 351
L 412 350
L 413 351
L 415 351
L 417 351
L 418 351
L 420 351
L 422 351
L 424 351
L 425 351
L 427 351
L 429 351
L 431 351
L 432 351
L 434 351
L 436 351
L 437 351
L 439 351
L 441 351
L 443 351
L 444 351
L 446 351
L 448 351
L 450 351
L 451 351
L 453 351
L 455 351
L 456 351
L 458 351
L 460 351
L 462 351
L 463 351
L 465 351
L 467 351
L 469 351
L 470 351
L 472 351
L 474 351
L 475 351
L 477 351
L 479 351
L 481 351
L 482 350
L 484 351
L 486 351
L 488 350
L 489 351
L 491 351
L 493 351
L 494 351
L 496 351
L 498 351
L 500 351
L 501 351
L 503 350
L 505 351
L 507 351
L 508 351
L 510 350
L 512 350
L 513 350
L 515 351
L 517 351
L 519 351
L 520 351
L 522 350
L 524 351
L 526 351
L 527 351
L 529 350
L 531 350
L 533 350
L 534 351
L 536 350
L 538 351
L 539 351
L 541 350
L 543 351
L 545 350
L 546 351
L 548 350
L 550 351
L 551 350
L 553 351
L 555 351
L 557 351
L 558 351
L 560 350
L 562 351
L 564 351
L 565 350
L 567 351
L 569 351
L 570 351
L 572 351
L 574 351
L 576 350
L 577 351
L 579 351
L 581 351
L 583 350
L 584 351
L 586 351
L 588 351
L 589 351
L 591 351
L 593 351
L 595 351
L 596 350
L 598 351
L 600 350
L 602 351
L 603 351
L 605 350
L 607 351
L 608 351
L 610 351
L 612 350
L 614 351
L 615 351
L 617 350
L 619 351
L 621 351
L 622 351
L 624 351
L 626 350
L 627 351
L 629 351
L 631 351
L 633 351
L 634 351
L 636 351
L 638 351
L 640 351
L 641 351
L 643 351
L 645 351
L 646 351
L 648 351
L 650 351
L 652 351
L 653 351
L 655 351
L 657 351
L 659 351
L 660 351
L 662 351
L 664 351
L 665 351
L 667 351
L 669 351
L 671 351
L 672 351
L 674 351
L 676 351
L 678 351
L 679 351
L 681 351
L 683 351
L 684 351
L 686 351
L 688 351
L 690 351
L 691 351
L 693 351
L 695 351
L 697 351
L 698 351
L 700 351
L 702 351
L 703 351
L 705 351
L 707 351
L 709 351
L 710 351
L 712 351
L 714 351
L 716 351
L 717 351
L 719 351
L 721 351
L 722 351
L 724 351
L 726 351
L 728 351
L 729 351
L 731 351
L 733 350
L 735 351
L 736 351
L 738 351
L 740 351
L 741 351
L 743 350
L 745 351
L 747 351
L 748 351
L 750 350
L 752 351
L 754 351
L 755 351
L 757 350
L 759 350
L 760 351
L 762 351
L 764 351
L 766 351
L 767 351
L 769 351
L 771 351
L 773 351
L 774 350
L 776 350
L 778 351
L 779 350
L 781 350
L 783 351
L 785 351
L 786 351
L 788 351
L 790 351
L 792 351
L 793 351
L 795 351
L 797 351
L 798 351
L 800 351
L 802 351
L 804 351
L 805 351
L 807 351
L 809 351
L 811 351
L 812 351
L 814 351
L 816 351
L 817 351
L 819 351
L 821 351
L 823 351
L 824 351
L 826 351
L 828 351
L 830 350
L 831 351
L 833 351
L 835 351
L 836 351
L 838 351
L 840 351
L 842 351
L 843 351
L 845 351
L 847 351
L 849 351
L 850 351
L 852 351
L 854 351
L 855 351
L 857 351
L 859 351
L 861 351
L 862 351
L 864 351
L 866 351
L 868 351
L 869 351
L 871 351
L 873 351
L 874 351
L 876 351
L 878 351
L 880 351
L 881 351
L 883 351
L 885 351
L 887 351
L 888 351
L 890 351
L 892 351
L 893 351
L 895 351
L 897 351
L 899 351
L 900 351
L 902 351
L 904 351
L 906 351
L 907 351
L 909 351
L 911 351
L 912 351
L 914 351
L 916 351
L 918 351
L 919 351
L 921 351
L 923 351
L 925 351
L 926 351
L 928 351
L 930 351
L 931 351
L 933 351
L 935 351
L 937 351
L 938 351
L 940 351
L 942 351
L 944 351
L 945 351
L 947 351
L 949 351
L 950 351
L 952 351
L 954 351
L 956 351
L 957 351
L 959 351
L 961 351
L 963 351
L 964 351
L 966 351
L 968 351
L 969 351" style="stroke-width:1;stroke:rgba(217,0,116,1.0);fill:none"/><text x="403" y="33" style="stroke-width:0;stroke:none;fill:rgba(51,51,51,1.0);font-size:23.0px;font-family:'Roboto Medium',sans-serif">Scheibbs 18.08.2021</text><path  d="M 38 11
L 251 11
L 251 91
L 38 91
L 38 11" style="stroke-width:1;stroke:rgba(51,51,51,1.0);fill:rgba(255,255,255,1.0)"/><text x="43" y="26" style="stroke-width:0;stroke:none;fill:rgba(51,51,51,1.0);font-size:10.2px;font-family:'Roboto Medium',sans-serif">Sieben Tage Durschnitt Inzidenz Fälle</text><path  d="M 221 21
L 241 21" style="stroke-width:1;stroke:rgba(0,116,217,1.0);fill:none"/><text x="43" y="56" style="stroke-width:0;stroke:none;fill:rgba(51,51,51,1.0);font-size:10.2px;font-family:'Roboto Medium',sans-serif">Anzahl Faelle</text><path  d="M 110 51
L 241 51" style="stroke-width:1;stroke:rgba(0,217,101,1.0);fill:none"/><text x="43" y="86" style="stroke-width:0;stroke:none;fill:rgba(51,51,51,1.0);font-size:10.2px;font-family:'Roboto Medium',sans-serif">Anzahl Tot</text><path  d="M 98 81
L 241 81" style="stroke-width:1;stroke:rgba(217,0,116,1.0);fill:none"/></svg>