<svg xmlns="http://www.w3.org/2000/svg" xmlns:xlink="http://www.w3.org/1999/xlink" width="1024" height="400">\n<path  d="M 0 0
L 1024 0
L 1024 400
L 0 400
L 0 0" style="stroke-width:0;stroke:rgba(255,255,255,1.0);fill:rgba(255,255,255,1.0)"/><path  d="M 38 11
L 961 11
L 961 351
L 38 351
L 38 11" style="stroke-width:0;stroke:rgba(255,255,255,1.0);fill:rgba(255,255,255,1.0)"/><path  d="M 38 351
L 961 351" style="stroke-width:1;stroke:rgba(51,51,51,1.0);fill:none"/><path  d="M 38 351
L 38 356" style="stroke-width:1;stroke:rgba(51,51,51,1.0);fill:none"/><text x="5" y="373" style="stroke-width:0;stroke:none;fill:rgba(51,51,51,1.0);font-size:12.8px;font-family:'Roboto Medium',sans-serif">2020-02-26</text><path  d="M 154 351
L 154 356" style="stroke-width:1;stroke:rgba(51,51,51,1.0);fill:none"/><text x="121" y="373" style="stroke-width:0;stroke:none;fill:rgba(51,51,51,1.0);font-size:12.8px;font-family:'Roboto Medium',sans-serif">2020-05-20</text><path  d="M 269 351
L 269 356" style="stroke-width:1;stroke:rgba(51,51,51,1.0);fill:none"/><text x="236" y="373" style="stroke-width:0;stroke:none;fill:rgba(51,51,51,1.0);font-size:12.8px;font-family:'Roboto Medium',sans-serif">2020-08-13</text><path  d="M 385 351
L 385 356" style="stroke-width:1;stroke:rgba(51,51,51,1.0);fill:none"/><text x="352" y="373" style="stroke-width:0;stroke:none;fill:rgba(51,51,51,1.0);font-size:12.8px;font-family:'Roboto Medium',sans-serif">2020-11-05</text><path  d="M 500 351
L 500 356" style="stroke-width:1;stroke:rgba(51,51,51,1.0);fill:none"/><text x="467" y="373" style="stroke-width:0;stroke:none;fill:rgba(51,51,51,1.0);font-size:12.8px;font-family:'Roboto Medium',sans-serif">2021-01-29</text><path  d="M 615 351
L 615 356" style="stroke-width:1;stroke:rgba(51,51,51,1.0);fill:none"/><text x="582" y="373" style="stroke-width:0;stroke:none;fill:rgba(51,51,51,1.0);font-size:12.8px;font-family:'Roboto Medium',sans-serif">2021-04-23</text><path  d="M 731 351
L 731 356" style="stroke-width:1;stroke:rgba(51,51,51,1.0);fill:none"/><text x="698" y="373" style="stroke-width:0;stroke:none;fill:rgba(51,51,51,1.0);font-size:12.8px;font-family:'Roboto Medium',sans-serif">2021-07-17</text><path  d="M 846 351
L 846 356" style="stroke-width:1;stroke:rgba(51,51,51,1.0);fill:none"/><text x="813" y="373" style="stroke-width:0;stroke:none;fill:rgba(51,51,51,1.0);font-size:12.8px;font-family:'Roboto Medium',sans-serif">2021-10-09</text><path  d="M 961 351
L 961 356" style="stroke-width:1;stroke:rgba(51,51,51,1.0);fill:none"/><text x="928" y="373" style="stroke-width:0;stroke:none;fill:rgba(51,51,51,1.0);font-size:12.8px;font-family:'Roboto Medium',sans-serif">2022-01-02</text><text x="481" y="395" style="stroke-width:0;stroke:none;fill:rgba(51,51,51,1.0);font-size:12.8px;font-family:'Roboto Medium',sans-serif">Datum</text><path  d="M 962 351
L 962 11" style="stroke-width:1;stroke:rgba(51,51,51,1.0);fill:none"/><path  d="M 962 351
L 967 351" style="stroke-width:1;stroke:rgba(51,51,51,1.0);fill:none"/><text x="972" y="357" style="stroke-width:0;stroke:none;fill:rgba(51,51,51,1.0);font-size:12.8px;font-family:'Roboto Medium',sans-serif">0.00</text><path  d="M 962 307
L 967 307" style="stroke-width:1;stroke:rgba(51,51,51,1.0);fill:none"/><text x="972" y="313" style="stroke-width:0;stroke:none;fill:rgba(51,51,51,1.0);font-size:12.8px;font-family:'Roboto Medium',sans-serif">190.00</text><path  d="M 962 264
L 967 264" style="stroke-width:1;stroke:rgba(51,51,51,1.0);fill:none"/><text x="972" y="270" style="stroke-width:0;stroke:none;fill:rgba(51,51,51,1.0);font-size:12.8px;font-family:'Roboto Medium',sans-serif">380.00</text><path  d="M 962 221
L 967 221" style="stroke-width:1;stroke:rgba(51,51,51,1.0);fill:none"/><text x="972" y="227" style="stroke-width:0;stroke:none;fill:rgba(51,51,51,1.0);font-size:12.8px;font-family:'Roboto Medium',sans-serif">570.00</text><path  d="M 962 181
L 967 181" style="stroke-width:1;stroke:rgba(51,51,51,1.0);fill:none"/><text x="972" y="187" style="stroke-width:0;stroke:none;fill:rgba(51,51,51,1.0);font-size:12.8px;font-family:'Roboto Medium',sans-serif">750.00</text><path  d="M 962 137
L 967 137" style="stroke-width:1;stroke:rgba(51,51,51,1.0);fill:none"/><text x="972" y="143" style="stroke-width:0;stroke:none;fill:rgba(51,51,51,1.0);font-size:12.8px;font-family:'Roboto Medium',sans-serif">940.00</text><path  d="M 962 94
L 967 94" style="stroke-width:1;stroke:rgba(51,51,51,1.0);fill:none"/><text x="972" y="100" style="stroke-width:0;stroke:none;fill:rgba(51,51,51,1.0);font-size:12.8px;font-family:'Roboto Medium',sans-serif">1130.00</text><path  d="M 962 51
L 967 51" style="stroke-width:1;stroke:rgba(51,51,51,1.0);fill:none"/><text x="972" y="57" style="stroke-width:0;stroke:none;fill:rgba(51,51,51,1.0);font-size:12.8px;font-family:'Roboto Medium',sans-serif">1320.00</text><path  d="M 962 11
L 967 11" style="stroke-width:1;stroke:rgba(51,51,51,1.0);fill:none"/><text x="972" y="17" style="stroke-width:0;stroke:none;fill:rgba(51,51,51,1.0);font-size:12.8px;font-family:'Roboto Medium',sans-serif">1500.00</text><path  d="M 38 351
L 40 351
L 41 351
L 43 351
L 44 351
L 45 351
L 47 351
L 48 351
L 49 351
L 51 351
L 52 351
L 54 351
L 55 351
L 56 351
L 58 351
L 59 351
L 60 350
L 62 350
L 63 350
L 64 350
L 66 348
L 67 348
L 69 348
L 70 349
L 71 348
L 73 345
L 74 344
L 75 344
L 77 335
L 78 326
L 79 320
L 81 318
L 82 316
L 84 312
L 85 309
L 86 317
L 88 325
L 89 331
L 90 333
L 92 337
L 93 342
L 94 345
L 96 346
L 97 347
L 99 347
L 100 348
L 101 349
L 103 349
L 104 351
L 105 351
L 107 351
L 108 351
L 109 351
L 111 351
L 112 350
L 114 350
L 115 350
L 116 350
L 118 350
L 119 350
L 120 350
L 122 351
L 123 351
L 125 351
L 126 351
L 127 351
L 129 351
L 130 351
L 131 351
L 133 351
L 134 351
L 135 351
L 137 351
L 138 351
L 140 351
L 141 351
L 142 351
L 144 351
L 145 351
L 146 351
L 148 351
L 149 351
L 150 351
L 152 351
L 153 351
L 155 351
L 156 351
L 157 351
L 159 351
L 160 351
L 161 351
L 163 351
L 164 351
L 165 351
L 167 351
L 168 351
L 170 351
L 171 351
L 172 351
L 174 351
L 175 351
L 176 351
L 178 351
L 179 351
L 180 351
L 182 351
L 183 351
L 185 351
L 186 351
L 187 351
L 189 351
L 190 351
L 191 351
L 193 351
L 194 351
L 196 351
L 197 351
L 198 351
L 200 351
L 201 351
L 202 351
L 204 351
L 205 351
L 206 351
L 208 351
L 209 351
L 211 351
L 212 350
L 213 350
L 215 350
L 216 350
L 217 350
L 219 350
L 220 349
L 221 349
L 223 349
L 224 349
L 226 349
L 227 349
L 228 349
L 230 351
L 231 351
L 232 351
L 234 351
L 235 351
L 236 351
L 238 351
L 239 351
L 241 351
L 242 351
L 243 351
L 245 350
L 246 349
L 247 349
L 249 348
L 250 348
L 251 348
L 253 348
L 254 348
L 256 349
L 257 349
L 258 351
L 260 351
L 261 351
L 262 351
L 264 351
L 265 351
L 267 351
L 268 351
L 269 350
L 271 350
L 272 350
L 273 350
L 275 350
L 276 349
L 277 349
L 279 349
L 280 349
L 282 349
L 283 349
L 284 349
L 286 351
L 287 351
L 288 351
L 290 351
L 291 351
L 292 351
L 294 350
L 295 350
L 297 350
L 298 350
L 299 350
L 301 350
L 302 350
L 303 351
L 305 351
L 306 351
L 307 351
L 309 350
L 310 349
L 312 349
L 313 349
L 314 347
L 316 346
L 317 346
L 318 345
L 320 343
L 321 343
L 322 341
L 324 340
L 325 340
L 327 338
L 328 336
L 329 339
L 331 336
L 332 338
L 333 339
L 335 340
L 336 341
L 338 343
L 339 343
L 340 347
L 342 346
L 343 347
L 344 346
L 346 348
L 347 347
L 348 346
L 350 346
L 351 347
L 353 345
L 354 346
L 355 343
L 357 343
L 358 343
L 359 344
L 361 343
L 362 343
L 363 342
L 365 341
L 366 335
L 368 334
L 369 329
L 370 329
L 372 322
L 373 315
L 374 299
L 376 288
L 377 281
L 378 268
L 380 251
L 381 246
L 383 238
L 384 242
L 385 236
L 387 204
L 388 205
L 389 191
L 391 178
L 392 169
L 393 158
L 395 158
L 396 173
L 398 159
L 399 162
L 400 159
L 402 153
L 403 149
L 404 133
L 406 135
L 407 157
L 409 161
L 410 175
L 411 184
L 413 200
L 414 229
L 415 232
L 417 225
L 418 235
L 419 237
L 421 249
L 422 246
L 424 243
L 425 251
L 426 258
L 428 267
L 429 261
L 430 268
L 432 276
L 433 280
L 434 287
L 436 288
L 437 291
L 439 306
L 440 304
L 441 310
L 443 316
L 444 315
L 445 310
L 447 309
L 448 304
L 449 302
L 451 303
L 452 303
L 454 306
L 455 313
L 456 312
L 458 313
L 459 315
L 460 311
L 462 310
L 463 309
L 464 307
L 466 306
L 467 306
L 469 307
L 470 310
L 471 309
L 473 306
L 474 307
L 475 309
L 477 299
L 478 302
L 480 300
L 481 295
L 482 297
L 484 293
L 485 287
L 486 300
L 488 295
L 489 295
L 490 300
L 492 301
L 493 306
L 495 311
L 496 306
L 497 309
L 499 313
L 500 316
L 501 319
L 503 318
L 504 319
L 505 327
L 507 328
L 508 328
L 510 327
L 511 327
L 512 330
L 514 330
L 515 329
L 516 328
L 518 328
L 519 322
L 520 321
L 522 321
L 523 319
L 525 319
L 526 323
L 527 324
L 529 328
L 530 327
L 531 326
L 533 326
L 534 327
L 535 321
L 537 313
L 538 314
L 540 313
L 541 315
L 542 314
L 544 311
L 545 312
L 546 318
L 548 316
L 549 315
L 551 315
L 552 317
L 553 317
L 555 318
L 556 313
L 557 307
L 559 299
L 560 298
L 561 289
L 563 283
L 564 279
L 566 270
L 567 267
L 568 274
L 570 265
L 571 259
L 572 263
L 574 250
L 575 257
L 576 254
L 578 257
L 579 253
L 581 250
L 582 250
L 583 262
L 585 249
L 586 251
L 587 232
L 589 238
L 590 252
L 591 245
L 593 252
L 594 267
L 596 264
L 597 283
L 598 283
L 600 279
L 601 278
L 602 276
L 604 275
L 605 286
L 606 283
L 608 288
L 609 295
L 611 307
L 612 301
L 613 303
L 615 306
L 616 307
L 617 310
L 619 306
L 620 301
L 622 309
L 623 309
L 624 311
L 626 315
L 627 317
L 628 319
L 630 324
L 631 326
L 632 329
L 634 330
L 635 333
L 637 334
L 638 338
L 639 340
L 641 340
L 642 342
L 643 342
L 645 342
L 646 342
L 647 343
L 649 345
L 650 345
L 652 344
L 653 346
L 654 346
L 656 346
L 657 343
L 658 341
L 660 341
L 661 341
L 662 339
L 664 339
L 665 337
L 667 340
L 668 341
L 669 343
L 671 344
L 672 346
L 673 347
L 675 349
L 676 348
L 677 348
L 679 348
L 680 348
L 682 348
L 683 347
L 684 347
L 686 348
L 687 349
L 688 349
L 690 349
L 691 350
L 693 351
L 694 351
L 695 350
L 697 350
L 698 350
L 699 350
L 701 350
L 702 350
L 703 350
L 705 351
L 706 350
L 708 350
L 709 350
L 710 350
L 712 350
L 713 350
L 714 350
L 716 351
L 717 351
L 718 351
L 720 351
L 721 351
L 723 351
L 724 351
L 725 351
L 727 350
L 728 349
L 729 348
L 731 348
L 732 348
L 733 348
L 735 348
L 736 348
L 738 348
L 739 349
L 740 348
L 742 348
L 743 348
L 744 347
L 746 346
L 747 345
L 748 344
L 750 345
L 751 344
L 753 344
L 754 344
L 755 345
L 757 345
L 758 346
L 759 343
L 761 345
L 762 345
L 764 343
L 765 342
L 766 341
L 768 338
L 769 336
L 770 334
L 772 332
L 773 331
L 774 331
L 776 331
L 777 334
L 779 337
L 780 339
L 781 341
L 783 340
L 784 338
L 785 340
L 787 339
L 788 340
L 789 337
L 791 334
L 792 335
L 794 334
L 795 325
L 796 322
L 798 318
L 799 319
L 800 313
L 802 310
L 803 301
L 804 295
L 806 290
L 807 286
L 809 282
L 810 286
L 811 289
L 813 285
L 814 289
L 815 298
L 817 293
L 818 292
L 819 292
L 821 290
L 822 299
L 824 300
L 825 297
L 826 307
L 828 309
L 829 311
L 830 305
L 832 303
L 833 307
L 835 300
L 836 298
L 837 294
L 839 298
L 840 297
L 841 291
L 843 286
L 844 278
L 845 275
L 847 275
L 848 263
L 850 265
L 851 264
L 852 256
L 854 265
L 855 253
L 856 242
L 858 231
L 859 225
L 860 219
L 862 222
L 863 210
L 865 214
L 866 219
L 867 223
L 869 219
L 870 211
L 871 209
L 873 210
L 874 198
L 875 196
L 877 186
L 878 190
L 880 189
L 881 172
L 882 152
L 884 151
L 885 125
L 886 112
L 888 84
L 889 41
L 890 40
L 892 42
L 893 24
L 895 33
L 896 18
L 897 22
L 899 48
L 900 49
L 901 51
L 903 43
L 904 31
L 906 63
L 907 51
L 908 49
L 910 58
L 911 53
L 912 84
L 914 107
L 915 107
L 916 130
L 918 143
L 919 153
L 921 176
L 922 178
L 923 183
L 925 198
L 926 216
L 927 238
L 929 250
L 930 250
L 931 258
L 933 258
L 934 260
L 936 259
L 937 265
L 938 257
L 940 266
L 941 271
L 942 279
L 944 280
L 945 282
L 946 286
L 948 286
L 949 293
L 951 297
L 952 302
L 953 304
L 955 296
L 956 290
L 957 296
L 959 291
L 960 291
L 961 290" style="stroke-width:1;stroke:rgba(0,116,217,1.0);fill:none"/><path  d="M 38 351
L 40 351
L 41 351
L 43 351
L 44 351
L 45 351
L 47 351
L 48 351
L 49 351
L 51 351
L 52 351
L 54 351
L 55 351
L 56 351
L 58 351
L 59 351
L 60 350
L 62 351
L 63 351
L 64 351
L 66 350
L 67 351
L 69 351
L 70 351
L 71 350
L 73 349
L 74 350
L 75 350
L 77 347
L 78 347
L 79 348
L 81 349
L 82 348
L 84 348
L 85 349
L 86 350
L 88 350
L 89 351
L 90 350
L 92 350
L 93 350
L 94 350
L 96 351
L 97 351
L 99 351
L 100 351
L 101 351
L 103 351
L 104 351
L 105 351
L 107 351
L 108 351
L 109 351
L 111 351
L 112 350
L 114 351
L 115 351
L 116 351
L 118 351
L 119 351
L 120 351
L 122 351
L 123 351
L 125 351
L 126 351
L 127 351
L 129 351
L 130 351
L 131 351
L 133 351
L 134 351
L 135 351
L 137 351
L 138 351
L 140 351
L 141 351
L 142 351
L 144 351
L 145 351
L 146 351
L 148 351
L 149 351
L 150 351
L 152 351
L 153 351
L 155 351
L 156 351
L 157 351
L 159 351
L 160 351
L 161 351
L 163 351
L 164 351
L 165 351
L 167 351
L 168 351
L 170 351
L 171 351
L 172 351
L 174 351
L 175 351
L 176 351
L 178 351
L 179 351
L 180 351
L 182 351
L 183 351
L 185 351
L 186 351
L 187 351
L 189 351
L 190 351
L 191 351
L 193 351
L 194 351
L 196 351
L 197 351
L 198 351
L 200 351
L 201 351
L 202 351
L 204 351
L 205 351
L 206 351
L 208 351
L 209 351
L 211 351
L 212 350
L 213 351
L 215 351
L 216 351
L 217 351
L 219 351
L 220 350
L 221 351
L 223 351
L 224 351
L 226 351
L 227 351
L 228 351
L 230 351
L 231 351
L 232 351
L 234 351
L 235 351
L 236 351
L 238 351
L 239 351
L 241 351
L 242 351
L 243 351
L 245 350
L 246 350
L 247 351
L 249 350
L 250 351
L 251 351
L 253 351
L 254 351
L 256 351
L 257 351
L 258 351
L 260 351
L 261 351
L 262 351
L 264 351
L 265 351
L 267 351
L 268 351
L 269 350
L 271 351
L 272 351
L 273 351
L 275 351
L 276 350
L 277 351
L 279 351
L 280 351
L 282 351
L 283 351
L 284 351
L 286 351
L 287 351
L 288 351
L 290 351
L 291 351
L 292 351
L 294 350
L 295 351
L 297 351
L 298 351
L 299 351
L 301 351
L 302 351
L 303 351
L 305 351
L 306 351
L 307 351
L 309 350
L 310 350
L 312 351
L 313 351
L 314 350
L 316 350
L 317 350
L 318 350
L 320 349
L 321 350
L 322 350
L 324 350
L 325 350
L 327 350
L 328 349
L 329 351
L 331 349
L 332 351
L 333 350
L 335 350
L 336 350
L 338 351
L 339 351
L 340 350
L 342 350
L 343 351
L 344 350
L 346 351
L 347 350
L 348 350
L 350 350
L 351 350
L 353 350
L 354 350
L 355 350
L 357 350
L 358 350
L 359 351
L 361 350
L 362 350
L 363 350
L 365 349
L 366 348
L 368 350
L 369 348
L 370 350
L 372 347
L 373 347
L 374 342
L 376 343
L 377 347
L 378 343
L 380 343
L 381 345
L 383 344
L 384 344
L 385 341
L 387 334
L 388 343
L 389 337
L 391 339
L 392 340
L 393 339
L 395 341
L 396 340
L 398 337
L 399 339
L 400 338
L 402 338
L 403 337
L 404 334
L 406 341
L 407 347
L 409 340
L 410 344
L 411 341
L 413 344
L 414 346
L 415 342
L 417 344
L 418 345
L 419 344
L 421 346
L 422 343
L 424 345
L 425 345
L 426 347
L 428 348
L 429 342
L 430 349
L 432 346
L 433 347
L 434 348
L 436 348
L 437 349
L 439 349
L 440 348
L 441 349
L 443 350
L 444 347
L 445 346
L 447 349
L 448 347
L 449 347
L 451 349
L 452 350
L 454 349
L 455 348
L 456 348
L 458 347
L 459 348
L 460 347
L 462 349
L 463 348
L 464 348
L 466 348
L 467 347
L 469 348
L 470 349
L 471 348
L 473 347
L 474 348
L 475 349
L 477 343
L 478 349
L 480 348
L 481 346
L 482 348
L 484 347
L 485 346
L 486 349
L 488 347
L 489 348
L 490 348
L 492 348
L 493 349
L 495 348
L 496 347
L 497 348
L 499 350
L 500 350
L 501 349
L 503 348
L 504 349
L 505 350
L 507 349
L 508 350
L 510 349
L 511 349
L 512 349
L 514 349
L 515 349
L 516 348
L 518 350
L 519 347
L 520 349
L 522 349
L 523 348
L 525 349
L 526 350
L 527 350
L 529 348
L 530 349
L 531 349
L 533 348
L 534 350
L 535 348
L 537 347
L 538 349
L 540 348
L 541 349
L 542 348
L 544 348
L 545 348
L 546 349
L 548 348
L 549 348
L 551 349
L 552 349
L 553 348
L 555 348
L 556 348
L 557 346
L 559 344
L 560 349
L 561 345
L 563 346
L 564 347
L 566 344
L 567 344
L 568 347
L 570 345
L 571 343
L 572 348
L 574 341
L 575 346
L 576 343
L 578 348
L 579 343
L 581 341
L 582 348
L 583 346
L 585 341
L 586 344
L 587 340
L 589 346
L 590 347
L 591 345
L 593 349
L 594 348
L 596 343
L 597 348
L 598 346
L 600 346
L 601 344
L 602 348
L 604 347
L 605 347
L 606 347
L 608 348
L 609 348
L 611 349
L 612 346
L 613 348
L 615 348
L 616 348
L 617 349
L 619 347
L 620 347
L 622 349
L 623 348
L 624 349
L 626 349
L 627 350
L 628 348
L 630 349
L 631 350
L 632 349
L 634 350
L 635 350
L 637 350
L 638 350
L 639 350
L 641 350
L 642 350
L 643 350
L 645 350
L 646 350
L 647 350
L 649 351
L 650 350
L 652 350
L 653 351
L 654 350
L 656 350
L 657 349
L 658 350
L 660 350
L 661 350
L 662 349
L 664 350
L 665 350
L 667 351
L 668 350
L 669 351
L 671 351
L 672 350
L 673 351
L 675 351
L 676 350
L 677 350
L 679 351
L 680 351
L 682 350
L 683 350
L 684 351
L 686 351
L 687 351
L 688 351
L 690 351
L 691 351
L 693 351
L 694 351
L 695 350
L 697 351
L 698 351
L 699 351
L 701 351
L 702 351
L 703 351
L 705 351
L 706 350
L 708 351
L 709 351
L 710 351
L 712 351
L 713 351
L 714 351
L 716 351
L 717 351
L 718 351
L 720 351
L 721 351
L 723 351
L 724 351
L 725 351
L 727 350
L 728 350
L 729 350
L 731 351
L 732 350
L 733 351
L 735 351
L 736 351
L 738 350
L 739 351
L 740 350
L 742 351
L 743 350
L 744 350
L 746 350
L 747 350
L 748 350
L 750 350
L 751 350
L 753 350
L 754 350
L 755 351
L 757 350
L 758 351
L 759 349
L 761 351
L 762 350
L 764 350
L 765 350
L 766 349
L 768 349
L 769 348
L 770 350
L 772 350
L 773 349
L 774 350
L 776 349
L 777 350
L 779 350
L 780 350
L 781 350
L 783 349
L 784 350
L 785 350
L 787 350
L 788 350
L 789 349
L 791 349
L 792 349
L 794 349
L 795 347
L 796 348
L 798 349
L 799 349
L 800 346
L 802 348
L 803 346
L 804 344
L 806 346
L 807 347
L 809 348
L 810 348
L 811 349
L 813 344
L 814 346
L 815 350
L 817 345
L 818 348
L 819 348
L 821 348
L 822 347
L 824 347
L 825 349
L 826 349
L 828 348
L 829 349
L 830 346
L 832 347
L 833 348
L 835 346
L 836 348
L 837 347
L 839 350
L 840 345
L 841 344
L 843 346
L 844 343
L 845 347
L 847 347
L 848 345
L 850 346
L 851 344
L 852 343
L 854 346
L 855 342
L 856 342
L 858 341
L 859 343
L 860 342
L 862 344
L 863 341
L 865 344
L 866 344
L 867 343
L 869 341
L 870 338
L 871 343
L 873 342
L 874 339
L 875 343
L 877 339
L 878 343
L 880 338
L 881 336
L 882 334
L 884 338
L 885 332
L 886 334
L 888 331
L 889 320
L 890 335
L 892 335
L 893 331
L 895 336
L 896 327
L 897 333
L 899 331
L 900 336
L 901 335
L 903 328
L 904 331
L 906 340
L 907 328
L 908 330
L 910 339
L 911 333
L 912 341
L 914 341
L 915 341
L 916 337
L 918 336
L 919 343
L 921 343
L 922 341
L 923 343
L 925 347
L 926 345
L 927 345
L 929 348
L 930 343
L 931 345
L 933 343
L 934 348
L 936 345
L 937 347
L 938 345
L 940 346
L 941 347
L 942 346
L 944 348
L 945 346
L 946 348
L 948 345
L 949 349
L 951 348
L 952 348
L 953 349
L 955 342
L 956 346
L 957 348
L 959 347
L 960 349
L 961 348" style="stroke-width:1;stroke:rgba(0,217,101,1.0);fill:none"/><path  d="M 38 351
L 40 351
L 41 351
L 43 351
L 44 351
L 45 351
L 47 351
L 48 351
L 49 351
L 51 351
L 52 351
L 54 351
L 55 351
L 56 351
L 58 351
L 59 351
L 60 351
L 62 351
L 63 351
L 64 351
L 66 351
L 67 351
L 69 351
L 70 351
L 71 351
L 73 351
L 74 351
L 75 351
L 77 351
L 78 351
L 79 351
L 81 351
L 82 351
L 84 351
L 85 351
L 86 351
L 88 351
L 89 351
L 90 351
L 92 351
L 93 351
L 94 351
L 96 351
L 97 351
L 99 351
L 100 351
L 101 351
L 103 351
L 104 351
L 105 351
L 107 351
L 108 351
L 109 351
L 111 351
L 112 351
L 114 351
L 115 351
L 116 351
L 118 351
L 119 351
L 120 351
L 122 351
L 123 351
L 125 351
L 126 351
L 127 351
L 129 351
L 130 351
L 131 351
L 133 351
L 134 351
L 135 351
L 137 351
L 138 351
L 140 350
L 141 351
L 142 351
L 144 351
L 145 351
L 146 351
L 148 351
L 149 351
L 150 351
L 152 351
L 153 351
L 155 351
L 156 351
L 157 351
L 159 351
L 160 351
L 161 351
L 163 351
L 164 351
L 165 351
L 167 351
L 168 351
L 170 351
L 171 351
L 172 351
L 174 351
L 175 351
L 176 351
L 178 351
L 179 351
L 180 351
L 182 351
L 183 351
L 185 351
L 186 351
L 187 351
L 189 351
L 190 351
L 191 351
L 193 351
L 194 351
L 196 351
L 197 351
L 198 351
L 200 351
L 201 351
L 202 351
L 204 351
L 205 351
L 206 351
L 208 351
L 209 351
L 211 351
L 212 351
L 213 351
L 215 351
L 216 351
L 217 351
L 219 351
L 220 351
L 221 351
L 223 351
L 224 351
L 226 351
L 227 351
L 228 351
L 230 351
L 231 351
L 232 351
L 234 351
L 235 351
L 236 351
L 238 351
L 239 351
L 241 351
L 242 351
L 243 351
L 245 351
L 246 351
L 247 351
L 249 351
L 250 351
L 251 351
L 253 351
L 254 351
L 256 351
L 257 351
L 258 351
L 260 351
L 261 351
L 262 351
L 264 351
L 265 351
L 267 351
L 268 351
L 269 351
L 271 351
L 272 351
L 273 351
L 275 351
L 276 351
L 277 351
L 279 351
L 280 351
L 282 351
L 283 351
L 284 351
L 286 351
L 287 351
L 288 351
L 290 351
L 291 351
L 292 351
L 294 351
L 295 351
L 297 351
L 298 351
L 299 351
L 301 351
L 302 351
L 303 351
L 305 351
L 306 351
L 307 351
L 309 351
L 310 351
L 312 351
L 313 351
L 314 351
L 316 351
L 317 351
L 318 351
L 320 351
L 321 351
L 322 351
L 324 351
L 325 351
L 327 351
L 328 351
L 329 351
L 331 351
L 332 351
L 333 350
L 335 351
L 336 351
L 338 351
L 339 351
L 340 351
L 342 351
L 343 351
L 344 351
L 346 351
L 347 351
L 348 351
L 350 351
L 351 351
L 353 351
L 354 351
L 355 351
L 357 351
L 358 351
L 359 351
L 361 351
L 362 351
L 363 351
L 365 351
L 366 351
L 368 351
L 369 351
L 370 351
L 372 351
L 373 351
L 374 351
L 376 351
L 377 351
L 378 351
L 380 351
L 381 351
L 383 351
L 384 351
L 385 351
L 387 351
L 388 351
L 389 350
L 391 351
L 392 351
L 393 350
L 395 351
L 396 351
L 398 351
L 399 351
L 400 351
L 402 351
L 403 351
L 404 351
L 406 350
L 407 351
L 409 351
L 410 351
L 411 350
L 413 350
L 414 350
L 415 351
L 417 351
L 418 351
L 419 351
L 421 350
L 422 351
L 424 351
L 425 351
L 426 350
L 428 350
L 429 350
L 430 351
L 432 350
L 433 351
L 434 351
L 436 350
L 437 351
L 439 350
L 440 351
L 441 350
L 443 351
L 444 350
L 445 351
L 447 351
L 448 351
L 449 351
L 451 350
L 452 351
L 454 351
L 455 350
L 456 351
L 458 351
L 459 351
L 460 351
L 462 351
L 463 350
L 464 351
L 466 351
L 467 351
L 469 350
L 470 351
L 471 351
L 473 351
L 474 351
L 475 351
L 477 351
L 478 351
L 480 350
L 481 351
L 482 350
L 484 351
L 485 351
L 486 350
L 488 351
L 489 351
L 490 351
L 492 350
L 493 351
L 495 351
L 496 350
L 497 351
L 499 351
L 500 351
L 501 351
L 503 350
L 504 351
L 505 351
L 507 351
L 508 351
L 510 351
L 511 351
L 512 351
L 514 351
L 515 351
L 516 351
L 518 351
L 519 351
L 520 351
L 522 351
L 523 351
L 525 351
L 526 351
L 527 351
L 529 351
L 530 351
L 531 351
L 533 351
L 534 351
L 535 351
L 537 351
L 538 351
L 540 351
L 541 351
L 542 351
L 544 351
L 545 351
L 546 351
L 548 351
L 549 351
L 551 351
L 552 351
L 553 351
L 555 351
L 556 351
L 557 351
L 559 351
L 560 351
L 561 351
L 563 351
L 564 351
L 566 351
L 567 351
L 568 351
L 570 351
L 571 351
L 572 351
L 574 351
L 575 351
L 576 351
L 578 351
L 579 351
L 581 351
L 582 351
L 583 351
L 585 351
L 586 351
L 587 350
L 589 351
L 590 351
L 591 351
L 593 351
L 594 351
L 596 350
L 597 351
L 598 351
L 600 351
L 601 350
L 602 351
L 604 351
L 605 351
L 606 350
L 608 350
L 609 351
L 611 351
L 612 351
L 613 351
L 615 351
L 616 351
L 617 351
L 619 351
L 620 350
L 622 350
L 623 351
L 624 350
L 626 350
L 627 351
L 628 351
L 630 351
L 631 351
L 632 351
L 634 351
L 635 351
L 637 351
L 638 351
L 639 351
L 641 351
L 642 351
L 643 351
L 645 351
L 646 351
L 647 351
L 649 351
L 650 351
L 652 351
L 653 351
L 654 351
L 656 351
L 657 351
L 658 351
L 660 351
L 661 351
L 662 351
L 664 350
L 665 351
L 667 351
L 668 351
L 669 351
L 671 351
L 672 351
L 673 351
L 675 351
L 676 351
L 677 351
L 679 351
L 680 351
L 682 351
L 683 351
L 684 351
L 686 351
L 687 351
L 688 351
L 690 351
L 691 351
L 693 351
L 694 351
L 695 351
L 697 351
L 698 351
L 699 351
L 701 351
L 702 351
L 703 351
L 705 351
L 706 351
L 708 351
L 709 351
L 710 351
L 712 351
L 713 351
L 714 351
L 716 351
L 717 351
L 718 351
L 720 351
L 721 351
L 723 351
L 724 351
L 725 351
L 727 351
L 728 351
L 729 351
L 731 351
L 732 351
L 733 351
L 735 351
L 736 351
L 738 351
L 739 351
L 740 351
L 742 351
L 743 351
L 744 351
L 746 351
L 747 351
L 748 351
L 750 351
L 751 351
L 753 351
L 754 351
L 755 351
L 757 351
L 758 351
L 759 351
L 761 351
L 762 351
L 764 351
L 765 351
L 766 351
L 768 351
L 769 351
L 770 351
L 772 351
L 773 351
L 774 351
L 776 351
L 777 351
L 779 351
L 780 351
L 781 351
L 783 351
L 784 351
L 785 351
L 787 351
L 788 351
L 789 351
L 791 351
L 792 351
L 794 351
L 795 351
L 796 351
L 798 351
L 799 351
L 800 351
L 802 351
L 803 350
L 804 351
L 806 351
L 807 351
L 809 351
L 810 351
L 811 351
L 813 351
L 814 351
L 815 351
L 817 351
L 818 350
L 819 351
L 821 351
L 822 351
L 824 351
L 825 351
L 826 351
L 828 351
L 829 351
L 830 351
L 832 351
L 833 351
L 835 351
L 836 351
L 837 351
L 839 351
L 840 350
L 841 351
L 843 351
L 844 351
L 845 351
L 847 351
L 848 351
L 850 351
L 851 351
L 852 351
L 854 351
L 855 351
L 856 351
L 858 351
L 859 351
L 860 351
L 862 351
L 863 351
L 865 351
L 866 351
L 867 351
L 869 351
L 870 351
L 871 351
L 873 350
L 874 350
L 875 351
L 877 351
L 878 351
L 880 350
L 881 351
L 882 350
L 884 351
L 885 351
L 886 351
L 888 351
L 889 350
L 890 351
L 892 351
L 893 351
L 895 351
L 896 350
L 897 351
L 899 350
L 900 351
L 901 350
L 903 351
L 904 350
L 906 351
L 907 351
L 908 350
L 910 350
L 911 350
L 912 351
L 914 351
L 915 350
L 916 350
L 918 351
L 919 351
L 921 350
L 922 351
L 923 350
L 925 351
L 926 351
L 927 351
L 929 351
L 930 351
L 931 351
L 933 351
L 934 351
L 936 351
L 937 351
L 938 351
L 940 351
L 941 351
L 942 351
L 944 351
L 945 351
L 946 351
L 948 351
L 949 351
L 951 351
L 952 351
L 953 351
L 955 351
L 956 351
L 957 351
L 959 351
L 960 351
L 961 351" style="stroke-width:1;stroke:rgba(217,0,116,1.0);fill:none"/><text x="403" y="33" style="stroke-width:0;stroke:none;fill:rgba(51,51,51,1.0);font-size:23.0px;font-family:'Roboto Medium',sans-serif">Scheibbs 02.01.2022</text><path  d="M 38 11
L 251 11
L 251 91
L 38 91
L 38 11" style="stroke-width:1;stroke:rgba(51,51,51,1.0);fill:rgba(255,255,255,1.0)"/><text x="43" y="26" style="stroke-width:0;stroke:none;fill:rgba(51,51,51,1.0);font-size:10.2px;font-family:'Roboto Medium',sans-serif">Sieben Tage Durschnitt Inzidenz Fälle</text><path  d="M 221 21
L 241 21" style="stroke-width:1;stroke:rgba(0,116,217,1.0);fill:none"/><text x="43" y="56" style="stroke-width:0;stroke:none;fill:rgba(51,51,51,1.0);font-size:10.2px;font-family:'Roboto Medium',sans-serif">Anzahl Faelle</text><path  d="M 110 51
L 241 51" style="stroke-width:1;stroke:rgba(0,217,101,1.0);fill:none"/><text x="43" y="86" style="stroke-width:0;stroke:none;fill:rgba(51,51,51,1.0);font-size:10.2px;font-family:'Roboto Medium',sans-serif">Anzahl Tot</text><path  d="M 98 81
L 241 81" style="stroke-width:1;stroke:rgba(217,0,116,1.0);fill:none"/></svg>