<svg xmlns="http://www.w3.org/2000/svg" xmlns:xlink="http://www.w3.org/1999/xlink" width="1024" height="400">\n<path  d="M 0 0
L 1024 0
L 1024 400
L 0 400
L 0 0" style="stroke-width:0;stroke:rgba(255,255,255,1.0);fill:rgba(255,255,255,1.0)"/><path  d="M 38 11
L 961 11
L 961 351
L 38 351
L 38 11" style="stroke-width:0;stroke:rgba(255,255,255,1.0);fill:rgba(255,255,255,1.0)"/><path  d="M 38 351
L 961 351" style="stroke-width:1;stroke:rgba(51,51,51,1.0);fill:none"/><path  d="M 38 351
L 38 356" style="stroke-width:1;stroke:rgba(51,51,51,1.0);fill:none"/><text x="5" y="373" style="stroke-width:0;stroke:none;fill:rgba(51,51,51,1.0);font-size:12.8px;font-family:'Roboto Medium',sans-serif">2020-02-26</text><path  d="M 154 351
L 154 356" style="stroke-width:1;stroke:rgba(51,51,51,1.0);fill:none"/><text x="121" y="373" style="stroke-width:0;stroke:none;fill:rgba(51,51,51,1.0);font-size:12.8px;font-family:'Roboto Medium',sans-serif">2020-07-13</text><path  d="M 269 351
L 269 356" style="stroke-width:1;stroke:rgba(51,51,51,1.0);fill:none"/><text x="236" y="373" style="stroke-width:0;stroke:none;fill:rgba(51,51,51,1.0);font-size:12.8px;font-family:'Roboto Medium',sans-serif">2020-11-28</text><path  d="M 385 351
L 385 356" style="stroke-width:1;stroke:rgba(51,51,51,1.0);fill:none"/><text x="352" y="373" style="stroke-width:0;stroke:none;fill:rgba(51,51,51,1.0);font-size:12.8px;font-family:'Roboto Medium',sans-serif">2021-04-15</text><path  d="M 500 351
L 500 356" style="stroke-width:1;stroke:rgba(51,51,51,1.0);fill:none"/><text x="467" y="373" style="stroke-width:0;stroke:none;fill:rgba(51,51,51,1.0);font-size:12.8px;font-family:'Roboto Medium',sans-serif">2021-09-01</text><path  d="M 615 351
L 615 356" style="stroke-width:1;stroke:rgba(51,51,51,1.0);fill:none"/><text x="582" y="373" style="stroke-width:0;stroke:none;fill:rgba(51,51,51,1.0);font-size:12.8px;font-family:'Roboto Medium',sans-serif">2022-01-17</text><path  d="M 731 351
L 731 356" style="stroke-width:1;stroke:rgba(51,51,51,1.0);fill:none"/><text x="698" y="373" style="stroke-width:0;stroke:none;fill:rgba(51,51,51,1.0);font-size:12.8px;font-family:'Roboto Medium',sans-serif">2022-06-04</text><path  d="M 846 351
L 846 356" style="stroke-width:1;stroke:rgba(51,51,51,1.0);fill:none"/><text x="813" y="373" style="stroke-width:0;stroke:none;fill:rgba(51,51,51,1.0);font-size:12.8px;font-family:'Roboto Medium',sans-serif">2022-10-20</text><path  d="M 961 351
L 961 356" style="stroke-width:1;stroke:rgba(51,51,51,1.0);fill:none"/><text x="928" y="373" style="stroke-width:0;stroke:none;fill:rgba(51,51,51,1.0);font-size:12.8px;font-family:'Roboto Medium',sans-serif">2023-03-08</text><text x="481" y="395" style="stroke-width:0;stroke:none;fill:rgba(51,51,51,1.0);font-size:12.8px;font-family:'Roboto Medium',sans-serif">Datum</text><path  d="M 962 351
L 962 11" style="stroke-width:1;stroke:rgba(51,51,51,1.0);fill:none"/><path  d="M 962 351
L 967 351" style="stroke-width:1;stroke:rgba(51,51,51,1.0);fill:none"/><text x="972" y="357" style="stroke-width:0;stroke:none;fill:rgba(51,51,51,1.0);font-size:12.8px;font-family:'Roboto Medium',sans-serif">0.00</text><path  d="M 962 308
L 967 308" style="stroke-width:1;stroke:rgba(51,51,51,1.0);fill:none"/><text x="972" y="314" style="stroke-width:0;stroke:none;fill:rgba(51,51,51,1.0);font-size:12.8px;font-family:'Roboto Medium',sans-serif">400.00</text><path  d="M 962 266
L 967 266" style="stroke-width:1;stroke:rgba(51,51,51,1.0);fill:none"/><text x="972" y="272" style="stroke-width:0;stroke:none;fill:rgba(51,51,51,1.0);font-size:12.8px;font-family:'Roboto Medium',sans-serif">800.00</text><path  d="M 962 223
L 967 223" style="stroke-width:1;stroke:rgba(51,51,51,1.0);fill:none"/><text x="972" y="229" style="stroke-width:0;stroke:none;fill:rgba(51,51,51,1.0);font-size:12.8px;font-family:'Roboto Medium',sans-serif">1200.00</text><path  d="M 962 181
L 967 181" style="stroke-width:1;stroke:rgba(51,51,51,1.0);fill:none"/><text x="972" y="187" style="stroke-width:0;stroke:none;fill:rgba(51,51,51,1.0);font-size:12.8px;font-family:'Roboto Medium',sans-serif">1600.00</text><path  d="M 962 138
L 967 138" style="stroke-width:1;stroke:rgba(51,51,51,1.0);fill:none"/><text x="972" y="144" style="stroke-width:0;stroke:none;fill:rgba(51,51,51,1.0);font-size:12.8px;font-family:'Roboto Medium',sans-serif">2000.00</text><path  d="M 962 96
L 967 96" style="stroke-width:1;stroke:rgba(51,51,51,1.0);fill:none"/><text x="972" y="102" style="stroke-width:0;stroke:none;fill:rgba(51,51,51,1.0);font-size:12.8px;font-family:'Roboto Medium',sans-serif">2400.00</text><path  d="M 962 53
L 967 53" style="stroke-width:1;stroke:rgba(51,51,51,1.0);fill:none"/><text x="972" y="59" style="stroke-width:0;stroke:none;fill:rgba(51,51,51,1.0);font-size:12.8px;font-family:'Roboto Medium',sans-serif">2800.00</text><path  d="M 962 11
L 967 11" style="stroke-width:1;stroke:rgba(51,51,51,1.0);fill:none"/><text x="972" y="17" style="stroke-width:0;stroke:none;fill:rgba(51,51,51,1.0);font-size:12.8px;font-family:'Roboto Medium',sans-serif">3200.00</text><path  d="M 38 351
L 39 351
L 40 351
L 41 351
L 42 351
L 43 351
L 44 351
L 44 351
L 45 351
L 46 351
L 47 351
L 48 351
L 49 351
L 49 350
L 50 350
L 51 350
L 52 350
L 53 350
L 54 350
L 54 350
L 55 350
L 56 350
L 57 350
L 58 350
L 59 349
L 59 348
L 60 346
L 61 344
L 62 342
L 63 338
L 64 336
L 64 334
L 65 333
L 66 334
L 67 334
L 68 334
L 69 336
L 69 338
L 70 338
L 71 339
L 72 339
L 73 340
L 74 342
L 74 344
L 75 344
L 76 347
L 77 347
L 78 348
L 79 348
L 79 348
L 80 348
L 81 349
L 82 349
L 83 349
L 84 349
L 84 350
L 85 350
L 86 350
L 87 350
L 88 350
L 89 350
L 89 350
L 90 350
L 91 350
L 92 350
L 93 350
L 94 350
L 94 350
L 95 350
L 96 350
L 97 350
L 98 350
L 99 350
L 99 350
L 100 350
L 101 350
L 102 350
L 103 350
L 104 350
L 104 350
L 105 350
L 106 350
L 107 350
L 108 350
L 109 350
L 109 350
L 110 350
L 111 350
L 112 350
L 113 350
L 114 350
L 114 351
L 115 351
L 116 351
L 117 351
L 118 351
L 119 351
L 119 351
L 120 351
L 121 351
L 122 351
L 123 351
L 124 351
L 124 351
L 125 351
L 126 351
L 127 351
L 128 351
L 129 351
L 129 351
L 130 351
L 131 351
L 132 351
L 133 351
L 134 351
L 134 351
L 135 351
L 136 351
L 137 351
L 138 351
L 139 351
L 139 351
L 140 351
L 141 351
L 142 350
L 143 350
L 144 350
L 144 350
L 145 350
L 146 350
L 147 350
L 148 350
L 149 350
L 149 350
L 150 350
L 151 350
L 152 350
L 153 350
L 154 350
L 155 350
L 155 350
L 156 351
L 157 350
L 158 350
L 159 350
L 160 350
L 160 350
L 161 350
L 162 350
L 163 350
L 164 350
L 165 350
L 165 350
L 166 351
L 167 351
L 168 351
L 169 350
L 170 350
L 170 350
L 171 350
L 172 350
L 173 350
L 174 350
L 175 350
L 175 350
L 176 350
L 177 350
L 178 349
L 179 349
L 180 348
L 180 347
L 181 347
L 182 346
L 183 345
L 184 346
L 185 346
L 185 346
L 186 347
L 187 347
L 188 347
L 189 348
L 190 348
L 190 348
L 191 348
L 192 348
L 193 349
L 194 349
L 195 348
L 195 348
L 196 348
L 197 348
L 198 347
L 199 347
L 200 347
L 200 347
L 201 346
L 202 345
L 203 345
L 204 344
L 205 344
L 205 344
L 206 344
L 207 344
L 208 344
L 209 343
L 210 342
L 210 342
L 211 342
L 212 342
L 213 341
L 214 342
L 215 342
L 215 343
L 216 343
L 217 343
L 218 343
L 219 345
L 220 344
L 220 345
L 221 344
L 222 343
L 223 342
L 224 342
L 225 340
L 225 341
L 226 337
L 227 337
L 228 337
L 229 336
L 230 333
L 230 332
L 231 328
L 232 326
L 233 324
L 234 324
L 235 325
L 235 322
L 236 321
L 237 317
L 238 311
L 239 303
L 240 298
L 240 297
L 241 288
L 242 280
L 243 273
L 244 274
L 245 269
L 245 266
L 246 264
L 247 253
L 248 248
L 249 237
L 250 232
L 250 226
L 251 223
L 252 210
L 253 215
L 254 211
L 255 206
L 255 202
L 256 205
L 257 204
L 258 208
L 259 206
L 260 210
L 260 220
L 261 226
L 262 228
L 263 228
L 264 235
L 265 245
L 265 252
L 266 262
L 267 268
L 268 277
L 269 285
L 270 289
L 271 295
L 271 301
L 272 305
L 273 307
L 274 309
L 275 308
L 276 305
L 276 309
L 277 312
L 278 314
L 279 318
L 280 323
L 281 326
L 281 330
L 282 331
L 283 333
L 284 335
L 285 335
L 286 335
L 286 336
L 287 337
L 288 335
L 289 334
L 290 332
L 291 334
L 291 332
L 292 334
L 293 332
L 294 332
L 295 331
L 296 334
L 296 331
L 297 331
L 298 329
L 299 331
L 300 333
L 301 334
L 301 332
L 302 333
L 303 334
L 304 334
L 305 336
L 306 336
L 306 337
L 307 336
L 308 338
L 309 338
L 310 338
L 311 337
L 311 336
L 312 334
L 313 333
L 314 332
L 315 331
L 316 332
L 316 329
L 317 326
L 318 325
L 319 325
L 320 325
L 321 326
L 321 327
L 322 327
L 323 329
L 324 331
L 325 332
L 326 332
L 326 331
L 327 331
L 328 333
L 329 334
L 330 335
L 331 336
L 331 337
L 332 340
L 333 340
L 334 338
L 335 339
L 336 338
L 336 335
L 337 335
L 338 332
L 339 331
L 340 334
L 341 330
L 341 329
L 342 331
L 343 331
L 344 332
L 345 331
L 346 328
L 346 330
L 347 329
L 348 330
L 349 331
L 350 331
L 351 332
L 351 336
L 352 338
L 353 340
L 354 339
L 355 339
L 356 340
L 356 338
L 357 337
L 358 333
L 359 332
L 360 330
L 361 329
L 361 326
L 362 328
L 363 329
L 364 328
L 365 327
L 366 328
L 366 326
L 367 325
L 368 323
L 369 322
L 370 323
L 371 325
L 371 325
L 372 329
L 373 331
L 374 334
L 375 336
L 376 338
L 376 339
L 377 340
L 378 340
L 379 342
L 380 343
L 381 343
L 381 344
L 382 345
L 383 345
L 384 345
L 385 344
L 386 343
L 387 344
L 387 341
L 388 340
L 389 341
L 390 342
L 391 343
L 392 343
L 392 342
L 393 344
L 394 345
L 395 346
L 396 346
L 397 346
L 397 347
L 398 347
L 399 347
L 400 346
L 401 346
L 402 347
L 402 347
L 403 348
L 404 348
L 405 348
L 406 348
L 407 348
L 407 348
L 408 348
L 409 348
L 410 348
L 411 348
L 412 349
L 412 349
L 413 349
L 414 349
L 415 349
L 416 349
L 417 349
L 417 349
L 418 350
L 419 350
L 420 350
L 421 350
L 422 350
L 422 350
L 423 350
L 424 350
L 425 350
L 426 350
L 427 350
L 427 350
L 428 350
L 429 350
L 430 350
L 431 350
L 432 350
L 432 350
L 433 350
L 434 350
L 435 350
L 436 350
L 437 350
L 437 350
L 438 350
L 439 350
L 440 350
L 441 350
L 442 350
L 442 350
L 443 351
L 444 351
L 445 351
L 446 351
L 447 351
L 447 351
L 448 351
L 449 351
L 450 351
L 451 351
L 452 351
L 452 351
L 453 351
L 454 351
L 455 350
L 456 350
L 457 350
L 457 350
L 458 350
L 459 350
L 460 350
L 461 350
L 462 350
L 462 350
L 463 350
L 464 350
L 465 350
L 466 350
L 467 350
L 467 349
L 468 349
L 469 349
L 470 348
L 471 348
L 472 349
L 472 349
L 473 348
L 474 348
L 475 348
L 476 349
L 477 349
L 477 349
L 478 348
L 479 349
L 480 349
L 481 348
L 482 348
L 482 347
L 483 346
L 484 346
L 485 345
L 486 345
L 487 345
L 487 345
L 488 344
L 489 344
L 490 344
L 491 344
L 492 345
L 492 344
L 493 344
L 494 345
L 495 345
L 496 345
L 497 345
L 497 346
L 498 346
L 499 346
L 500 345
L 501 346
L 502 345
L 503 345
L 503 345
L 504 345
L 505 344
L 506 345
L 507 343
L 508 343
L 508 343
L 509 343
L 510 343
L 511 343
L 512 343
L 513 345
L 513 345
L 514 345
L 515 345
L 516 346
L 517 347
L 518 347
L 518 346
L 519 345
L 520 345
L 521 344
L 522 344
L 523 343
L 523 343
L 524 343
L 525 343
L 526 343
L 527 343
L 528 342
L 528 341
L 529 341
L 530 341
L 531 341
L 532 340
L 533 341
L 533 340
L 534 342
L 535 343
L 536 342
L 537 342
L 538 342
L 538 341
L 539 340
L 540 339
L 541 338
L 542 338
L 543 339
L 543 337
L 544 337
L 545 337
L 546 337
L 547 338
L 548 336
L 548 333
L 549 334
L 550 332
L 551 329
L 552 326
L 553 323
L 553 319
L 554 312
L 555 308
L 556 306
L 557 302
L 558 294
L 558 283
L 559 274
L 560 273
L 561 268
L 562 259
L 563 247
L 563 238
L 564 233
L 565 226
L 566 214
L 567 216
L 568 213
L 568 205
L 569 205
L 570 198
L 571 202
L 572 207
L 573 209
L 573 209
L 574 219
L 575 222
L 576 234
L 577 243
L 578 249
L 578 249
L 579 261
L 580 269
L 581 279
L 582 288
L 583 290
L 583 293
L 584 296
L 585 297
L 586 301
L 587 303
L 588 303
L 588 306
L 589 313
L 590 315
L 591 315
L 592 317
L 593 320
L 593 324
L 594 326
L 595 326
L 596 326
L 597 329
L 598 329
L 598 328
L 599 327
L 600 324
L 601 324
L 602 317
L 603 307
L 603 295
L 604 284
L 605 273
L 606 261
L 607 254
L 608 243
L 608 228
L 609 219
L 610 213
L 611 195
L 612 178
L 613 162
L 613 151
L 614 152
L 615 138
L 616 119
L 617 115
L 618 108
L 619 100
L 619 91
L 620 91
L 621 71
L 622 57
L 623 42
L 624 32
L 624 28
L 625 24
L 626 17
L 627 24
L 628 33
L 629 41
L 629 46
L 630 44
L 631 54
L 632 59
L 633 67
L 634 77
L 634 66
L 635 67
L 636 74
L 637 75
L 638 80
L 639 85
L 639 82
L 640 93
L 641 101
L 642 102
L 643 109
L 644 105
L 644 87
L 645 86
L 646 94
L 647 95
L 648 94
L 649 92
L 649 93
L 650 105
L 651 102
L 652 93
L 653 83
L 654 85
L 654 80
L 655 72
L 656 65
L 657 70
L 658 62
L 659 59
L 659 49
L 660 43
L 661 47
L 662 47
L 663 43
L 664 51
L 664 60
L 665 65
L 666 76
L 667 87
L 668 92
L 669 100
L 669 117
L 670 132
L 671 148
L 672 158
L 673 163
L 674 183
L 674 197
L 675 205
L 676 213
L 677 222
L 678 231
L 679 239
L 679 252
L 680 261
L 681 269
L 682 276
L 683 282
L 684 284
L 684 285
L 685 291
L 686 294
L 687 299
L 688 300
L 689 302
L 689 301
L 690 302
L 691 305
L 692 305
L 693 304
L 694 306
L 694 311
L 695 313
L 696 314
L 697 313
L 698 318
L 699 321
L 699 322
L 700 322
L 701 324
L 702 325
L 703 327
L 704 325
L 704 326
L 705 326
L 706 326
L 707 324
L 708 325
L 709 323
L 709 324
L 710 325
L 711 326
L 712 327
L 713 328
L 714 328
L 714 329
L 715 330
L 716 331
L 717 332
L 718 331
L 719 332
L 719 333
L 720 333
L 721 335
L 722 336
L 723 336
L 724 337
L 724 337
L 725 337
L 726 339
L 727 338
L 728 339
L 729 339
L 729 337
L 730 336
L 731 337
L 732 338
L 733 336
L 734 336
L 735 335
L 735 336
L 736 335
L 737 334
L 738 332
L 739 328
L 740 326
L 740 325
L 741 321
L 742 321
L 743 319
L 744 316
L 745 315
L 745 313
L 746 311
L 747 310
L 748 310
L 749 309
L 750 306
L 750 306
L 751 302
L 752 301
L 753 300
L 754 300
L 755 299
L 755 297
L 756 293
L 757 294
L 758 292
L 759 289
L 760 288
L 760 287
L 761 287
L 762 284
L 763 280
L 764 277
L 765 277
L 765 272
L 766 268
L 767 268
L 768 269
L 769 272
L 770 274
L 770 274
L 771 280
L 772 284
L 773 285
L 774 289
L 775 295
L 775 300
L 776 305
L 777 307
L 778 310
L 779 315
L 780 319
L 780 318
L 781 318
L 782 318
L 783 317
L 784 316
L 785 315
L 785 314
L 786 316
L 787 318
L 788 317
L 789 319
L 790 320
L 790 325
L 791 325
L 792 324
L 793 323
L 794 324
L 795 323
L 795 322
L 796 319
L 797 321
L 798 319
L 799 319
L 800 318
L 800 316
L 801 317
L 802 317
L 803 315
L 804 316
L 805 316
L 805 319
L 806 320
L 807 318
L 808 319
L 809 319
L 810 319
L 810 320
L 811 319
L 812 319
L 813 319
L 814 319
L 815 320
L 815 320
L 816 318
L 817 318
L 818 317
L 819 318
L 820 313
L 820 307
L 821 304
L 822 298
L 823 294
L 824 291
L 825 286
L 825 278
L 826 275
L 827 268
L 828 263
L 829 258
L 830 256
L 830 254
L 831 250
L 832 244
L 833 244
L 834 247
L 835 244
L 835 245
L 836 250
L 837 251
L 838 253
L 839 255
L 840 258
L 840 262
L 841 264
L 842 264
L 843 270
L 844 278
L 845 281
L 845 286
L 846 291
L 847 293
L 848 297
L 849 303
L 850 309
L 851 315
L 851 318
L 852 320
L 853 321
L 854 321
L 855 327
L 856 329
L 856 329
L 857 330
L 858 331
L 859 332
L 860 332
L 861 331
L 861 330
L 862 332
L 863 331
L 864 332
L 865 333
L 866 335
L 866 334
L 867 333
L 868 332
L 869 334
L 870 334
L 871 334
L 871 334
L 872 335
L 873 335
L 874 334
L 875 334
L 876 334
L 876 332
L 877 332
L 878 331
L 879 330
L 880 328
L 881 326
L 881 324
L 882 324
L 883 324
L 884 323
L 885 323
L 886 324
L 886 326
L 887 328
L 888 329
L 889 329
L 890 330
L 891 331
L 891 333
L 892 331
L 893 330
L 894 329
L 895 330
L 896 333
L 896 334
L 897 335
L 898 337
L 899 340
L 900 340
L 901 340
L 901 340
L 902 339
L 903 338
L 904 337
L 905 336
L 906 336
L 906 337
L 907 335
L 908 336
L 909 337
L 910 336
L 911 338
L 911 338
L 912 337
L 913 337
L 914 338
L 915 338
L 916 339
L 916 339
L 917 339
L 918 340
L 919 342
L 920 344
L 921 344
L 921 343
L 922 342
L 923 342
L 924 342
L 925 340
L 926 338
L 926 337
L 927 337
L 928 337
L 929 337
L 930 336
L 931 335
L 931 335
L 932 329
L 933 328
L 934 326
L 935 324
L 936 324
L 936 323
L 937 319
L 938 320
L 939 318
L 940 317
L 941 316
L 941 316
L 942 313
L 943 312
L 944 313
L 945 316
L 946 316
L 946 317
L 947 317
L 948 318
L 949 319
L 950 319
L 951 317
L 951 316
L 952 315
L 953 316
L 954 318
L 955 320
L 956 321
L 956 324
L 957 326
L 958 327
L 959 327
L 960 329
L 961 329
L 961 332" style="stroke-width:1;stroke:rgba(0,116,217,1.0);fill:none"/><path  d="M 38 351
L 39 351
L 40 351
L 41 351
L 42 351
L 43 351
L 44 351
L 44 351
L 45 351
L 46 351
L 47 351
L 48 351
L 49 351
L 49 350
L 50 351
L 51 351
L 52 350
L 53 350
L 54 351
L 54 351
L 55 351
L 56 351
L 57 351
L 58 350
L 59 349
L 59 350
L 60 349
L 61 349
L 62 349
L 63 347
L 64 348
L 64 348
L 65 349
L 66 350
L 67 349
L 68 348
L 69 349
L 69 350
L 70 348
L 71 350
L 72 350
L 73 350
L 74 350
L 74 350
L 75 350
L 76 350
L 77 350
L 78 350
L 79 350
L 79 351
L 80 350
L 81 351
L 82 350
L 83 350
L 84 350
L 84 350
L 85 351
L 86 351
L 87 350
L 88 351
L 89 351
L 89 351
L 90 350
L 91 351
L 92 350
L 93 351
L 94 351
L 94 351
L 95 351
L 96 350
L 97 350
L 98 351
L 99 351
L 99 351
L 100 351
L 101 351
L 102 351
L 103 350
L 104 350
L 104 351
L 105 351
L 106 350
L 107 351
L 108 351
L 109 350
L 109 351
L 110 351
L 111 351
L 112 351
L 113 351
L 114 351
L 114 351
L 115 351
L 116 351
L 117 351
L 118 351
L 119 351
L 119 351
L 120 351
L 121 351
L 122 351
L 123 351
L 124 351
L 124 351
L 125 351
L 126 351
L 127 351
L 128 351
L 129 351
L 129 351
L 130 351
L 131 351
L 132 351
L 133 351
L 134 351
L 134 351
L 135 351
L 136 351
L 137 351
L 138 351
L 139 351
L 139 351
L 140 351
L 141 351
L 142 350
L 143 351
L 144 350
L 144 351
L 145 351
L 146 350
L 147 351
L 148 351
L 149 350
L 149 350
L 150 350
L 151 351
L 152 351
L 153 351
L 154 351
L 155 351
L 155 351
L 156 351
L 157 350
L 158 351
L 159 351
L 160 351
L 160 350
L 161 351
L 162 351
L 163 351
L 164 351
L 165 351
L 165 351
L 166 351
L 167 351
L 168 351
L 169 350
L 170 351
L 170 351
L 171 351
L 172 350
L 173 351
L 174 351
L 175 351
L 175 351
L 176 350
L 177 350
L 178 349
L 179 350
L 180 350
L 180 349
L 181 351
L 182 350
L 183 350
L 184 350
L 185 350
L 185 350
L 186 350
L 187 350
L 188 350
L 189 350
L 190 350
L 190 350
L 191 350
L 192 350
L 193 351
L 194 350
L 195 350
L 195 350
L 196 350
L 197 350
L 198 350
L 199 350
L 200 350
L 200 350
L 201 349
L 202 349
L 203 350
L 204 349
L 205 350
L 205 351
L 206 350
L 207 349
L 208 349
L 209 349
L 210 349
L 210 350
L 211 350
L 212 350
L 213 348
L 214 350
L 215 349
L 215 350
L 216 350
L 217 350
L 218 350
L 219 350
L 220 349
L 220 350
L 221 349
L 222 349
L 223 349
L 224 350
L 225 348
L 225 350
L 226 347
L 227 349
L 228 349
L 229 348
L 230 348
L 230 347
L 231 346
L 232 346
L 233 347
L 234 349
L 235 349
L 235 345
L 236 346
L 237 343
L 238 341
L 239 339
L 240 345
L 240 348
L 241 338
L 242 338
L 243 338
L 244 341
L 245 335
L 245 343
L 246 346
L 247 328
L 248 334
L 249 329
L 250 337
L 250 330
L 251 340
L 252 336
L 253 332
L 254 331
L 255 325
L 255 333
L 256 333
L 257 340
L 258 339
L 259 331
L 260 334
L 260 333
L 261 338
L 262 334
L 263 339
L 264 345
L 265 339
L 265 340
L 266 342
L 267 343
L 268 343
L 269 346
L 270 348
L 271 344
L 271 345
L 272 345
L 273 346
L 274 344
L 275 346
L 276 345
L 276 348
L 277 347
L 278 347
L 279 348
L 280 349
L 281 348
L 281 349
L 282 349
L 283 349
L 284 349
L 285 348
L 286 349
L 286 349
L 287 349
L 288 347
L 289 348
L 290 348
L 291 350
L 291 348
L 292 350
L 293 347
L 294 347
L 295 348
L 296 350
L 296 347
L 297 347
L 298 349
L 299 348
L 300 349
L 301 348
L 301 349
L 302 348
L 303 348
L 304 349
L 305 350
L 306 350
L 306 349
L 307 348
L 308 349
L 309 349
L 310 349
L 311 349
L 311 349
L 312 348
L 313 347
L 314 348
L 315 348
L 316 349
L 316 347
L 317 346
L 318 347
L 319 347
L 320 348
L 321 349
L 321 350
L 322 347
L 323 348
L 324 348
L 325 348
L 326 349
L 326 347
L 327 350
L 328 349
L 329 349
L 330 349
L 331 349
L 331 349
L 332 350
L 333 350
L 334 348
L 335 349
L 336 348
L 336 346
L 337 349
L 338 348
L 339 349
L 340 350
L 341 346
L 341 348
L 342 348
L 343 349
L 344 349
L 345 348
L 346 347
L 346 347
L 347 348
L 348 349
L 349 349
L 350 349
L 351 349
L 351 350
L 352 349
L 353 349
L 354 348
L 355 349
L 356 350
L 356 347
L 357 349
L 358 346
L 359 348
L 360 347
L 361 348
L 361 347
L 362 349
L 363 349
L 364 346
L 365 347
L 366 348
L 366 346
L 367 347
L 368 347
L 369 348
L 370 347
L 371 348
L 371 348
L 372 349
L 373 349
L 374 350
L 375 349
L 376 349
L 376 349
L 377 349
L 378 350
L 379 350
L 380 350
L 381 350
L 381 350
L 382 350
L 383 349
L 384 350
L 385 349
L 386 349
L 387 351
L 387 348
L 388 350
L 389 349
L 390 350
L 391 350
L 392 350
L 392 350
L 393 350
L 394 351
L 395 350
L 396 350
L 397 350
L 397 350
L 398 350
L 399 350
L 400 350
L 401 350
L 402 350
L 402 351
L 403 351
L 404 350
L 405 350
L 406 350
L 407 350
L 407 350
L 408 350
L 409 350
L 410 350
L 411 350
L 412 350
L 412 350
L 413 350
L 414 350
L 415 351
L 416 351
L 417 351
L 417 350
L 418 351
L 419 350
L 420 351
L 421 351
L 422 351
L 422 351
L 423 351
L 424 350
L 425 351
L 426 351
L 427 351
L 427 351
L 428 350
L 429 351
L 430 351
L 431 350
L 432 351
L 432 351
L 433 350
L 434 350
L 435 350
L 436 350
L 437 351
L 437 350
L 438 351
L 439 351
L 440 351
L 441 351
L 442 351
L 442 351
L 443 351
L 444 351
L 445 351
L 446 351
L 447 351
L 447 351
L 448 351
L 449 351
L 450 351
L 451 351
L 452 351
L 452 351
L 453 351
L 454 351
L 455 350
L 456 351
L 457 351
L 457 350
L 458 351
L 459 351
L 460 350
L 461 350
L 462 351
L 462 351
L 463 350
L 464 351
L 465 350
L 466 350
L 467 350
L 467 350
L 468 350
L 469 350
L 470 350
L 471 350
L 472 350
L 472 350
L 473 350
L 474 350
L 475 350
L 476 350
L 477 350
L 477 351
L 478 350
L 479 350
L 480 350
L 481 349
L 482 350
L 482 350
L 483 350
L 484 350
L 485 350
L 486 350
L 487 350
L 487 350
L 488 349
L 489 350
L 490 350
L 491 350
L 492 350
L 492 350
L 493 350
L 494 349
L 495 350
L 496 350
L 497 350
L 497 350
L 498 350
L 499 350
L 500 349
L 501 350
L 502 350
L 503 350
L 503 350
L 504 350
L 505 349
L 506 350
L 507 349
L 508 350
L 508 350
L 509 350
L 510 349
L 511 349
L 512 350
L 513 350
L 513 350
L 514 350
L 515 350
L 516 350
L 517 350
L 518 349
L 518 350
L 519 349
L 520 350
L 521 350
L 522 350
L 523 349
L 523 349
L 524 350
L 525 350
L 526 349
L 527 350
L 528 350
L 528 348
L 529 349
L 530 350
L 531 349
L 532 349
L 533 350
L 533 349
L 534 350
L 535 349
L 536 349
L 537 349
L 538 350
L 538 350
L 539 348
L 540 349
L 541 348
L 542 349
L 543 350
L 543 348
L 544 349
L 545 349
L 546 349
L 547 349
L 548 348
L 548 347
L 549 349
L 550 348
L 551 346
L 552 346
L 553 346
L 553 345
L 554 341
L 555 346
L 556 346
L 557 343
L 558 340
L 558 337
L 559 337
L 560 340
L 561 341
L 562 338
L 563 333
L 563 332
L 564 332
L 565 331
L 566 330
L 567 342
L 568 335
L 568 326
L 569 332
L 570 327
L 571 334
L 572 334
L 573 344
L 573 335
L 574 335
L 575 335
L 576 337
L 577 342
L 578 338
L 578 345
L 579 345
L 580 342
L 581 344
L 582 344
L 583 344
L 583 341
L 584 347
L 585 346
L 586 345
L 587 346
L 588 345
L 588 346
L 589 347
L 590 349
L 591 347
L 592 347
L 593 347
L 593 348
L 594 348
L 595 347
L 596 349
L 597 350
L 598 347
L 598 347
L 599 347
L 600 346
L 601 346
L 602 343
L 603 341
L 603 337
L 604 337
L 605 337
L 606 336
L 607 340
L 608 334
L 608 328
L 609 329
L 610 331
L 611 322
L 612 322
L 613 326
L 613 324
L 614 329
L 615 317
L 616 314
L 617 318
L 618 317
L 619 319
L 619 317
L 620 328
L 621 300
L 622 302
L 623 305
L 624 309
L 624 315
L 625 314
L 626 322
L 627 307
L 628 310
L 629 312
L 629 313
L 630 314
L 631 323
L 632 326
L 633 314
L 634 318
L 634 303
L 635 314
L 636 319
L 637 324
L 638 330
L 639 318
L 639 316
L 640 313
L 641 321
L 642 321
L 643 329
L 644 327
L 644 302
L 645 316
L 646 319
L 647 322
L 648 319
L 649 328
L 649 328
L 650 312
L 651 313
L 652 312
L 653 313
L 654 320
L 654 324
L 655 321
L 656 307
L 657 317
L 658 305
L 659 310
L 659 312
L 660 319
L 661 324
L 662 307
L 663 314
L 664 312
L 664 319
L 665 315
L 666 329
L 667 333
L 668 311
L 669 320
L 669 327
L 670 331
L 671 329
L 672 337
L 673 338
L 674 328
L 674 333
L 675 333
L 676 339
L 677 337
L 678 345
L 679 345
L 679 339
L 680 340
L 681 340
L 682 344
L 683 342
L 684 346
L 684 346
L 685 344
L 686 343
L 687 344
L 688 345
L 689 344
L 689 345
L 690 347
L 691 347
L 692 343
L 693 344
L 694 346
L 694 348
L 695 347
L 696 348
L 697 346
L 698 347
L 699 346
L 699 348
L 700 348
L 701 349
L 702 348
L 703 348
L 704 346
L 704 346
L 705 348
L 706 348
L 707 347
L 708 349
L 709 346
L 709 347
L 710 347
L 711 348
L 712 349
L 713 348
L 714 349
L 714 347
L 715 348
L 716 348
L 717 349
L 718 348
L 719 350
L 719 349
L 720 346
L 721 350
L 722 349
L 723 350
L 724 349
L 724 350
L 725 349
L 726 348
L 727 349
L 728 349
L 729 349
L 729 348
L 730 349
L 731 350
L 732 348
L 733 348
L 734 349
L 735 348
L 735 349
L 736 348
L 737 349
L 738 346
L 739 345
L 740 346
L 740 347
L 741 346
L 742 348
L 743 347
L 744 344
L 745 344
L 745 345
L 746 346
L 747 345
L 748 347
L 749 347
L 750 341
L 750 344
L 751 342
L 752 344
L 753 345
L 754 347
L 755 346
L 755 340
L 756 341
L 757 343
L 758 343
L 759 342
L 760 346
L 760 345
L 761 340
L 762 338
L 763 339
L 764 341
L 765 342
L 765 341
L 766 342
L 767 339
L 768 340
L 769 341
L 770 343
L 770 342
L 771 347
L 772 346
L 773 340
L 774 343
L 775 346
L 775 347
L 776 346
L 777 348
L 778 349
L 779 345
L 780 346
L 780 346
L 781 347
L 782 346
L 783 347
L 784 347
L 785 345
L 785 345
L 786 347
L 787 348
L 788 345
L 789 349
L 790 349
L 790 349
L 791 345
L 792 346
L 793 347
L 794 347
L 795 348
L 795 348
L 796 345
L 797 347
L 798 345
L 799 347
L 800 346
L 800 347
L 801 349
L 802 345
L 803 346
L 804 346
L 805 347
L 805 348
L 806 347
L 807 348
L 808 346
L 809 346
L 810 346
L 810 348
L 811 347
L 812 348
L 813 348
L 814 346
L 815 346
L 815 346
L 816 346
L 817 346
L 818 347
L 819 348
L 820 342
L 820 341
L 821 343
L 822 341
L 823 343
L 824 344
L 825 344
L 825 335
L 826 339
L 827 337
L 828 336
L 829 339
L 830 342
L 830 342
L 831 332
L 832 333
L 833 337
L 834 338
L 835 338
L 835 343
L 836 346
L 837 333
L 838 335
L 839 339
L 840 341
L 840 341
L 841 345
L 842 345
L 843 338
L 844 342
L 845 342
L 845 345
L 846 345
L 847 347
L 848 349
L 849 343
L 850 346
L 851 348
L 851 347
L 852 347
L 853 348
L 854 348
L 855 348
L 856 349
L 856 348
L 857 348
L 858 347
L 859 349
L 860 349
L 861 347
L 861 348
L 862 349
L 863 347
L 864 349
L 865 350
L 866 350
L 866 347
L 867 347
L 868 348
L 869 349
L 870 348
L 871 350
L 871 350
L 872 347
L 873 347
L 874 348
L 875 349
L 876 348
L 876 348
L 877 349
L 878 347
L 879 346
L 880 346
L 881 347
L 881 347
L 882 348
L 883 349
L 884 346
L 885 346
L 886 347
L 886 349
L 887 349
L 888 350
L 889 349
L 890 347
L 891 347
L 891 348
L 892 348
L 893 348
L 894 349
L 895 350
L 896 349
L 896 348
L 897 349
L 898 350
L 899 350
L 900 350
L 901 349
L 901 349
L 902 347
L 903 348
L 904 349
L 905 348
L 906 350
L 906 350
L 907 348
L 908 348
L 909 349
L 910 348
L 911 350
L 911 350
L 912 350
L 913 347
L 914 349
L 915 349
L 916 350
L 916 349
L 917 350
L 918 350
L 919 349
L 920 350
L 921 350
L 921 349
L 922 349
L 923 350
L 924 350
L 925 348
L 926 348
L 926 349
L 927 348
L 928 349
L 929 349
L 930 350
L 931 347
L 931 347
L 932 345
L 933 347
L 934 347
L 935 348
L 936 349
L 936 346
L 937 344
L 938 346
L 939 345
L 940 346
L 941 348
L 941 349
L 942 343
L 943 344
L 944 346
L 945 348
L 946 347
L 946 349
L 947 349
L 948 344
L 949 345
L 950 346
L 951 346
L 951 346
L 952 348
L 953 349
L 954 346
L 955 346
L 956 347
L 956 349
L 957 348
L 958 349
L 959 349
L 960 348
L 961 347
L 961 349" style="stroke-width:1;stroke:rgba(0,217,101,1.0);fill:none"/><path  d="M 38 351
L 39 351
L 40 351
L 41 351
L 42 351
L 43 351
L 44 351
L 44 351
L 45 351
L 46 351
L 47 351
L 48 351
L 49 351
L 49 351
L 50 351
L 51 351
L 52 351
L 53 351
L 54 351
L 54 351
L 55 351
L 56 351
L 57 351
L 58 351
L 59 351
L 59 351
L 60 351
L 61 351
L 62 351
L 63 351
L 64 351
L 64 351
L 65 350
L 66 351
L 67 351
L 68 350
L 69 351
L 69 351
L 70 351
L 71 351
L 72 350
L 73 350
L 74 350
L 74 350
L 75 351
L 76 351
L 77 351
L 78 351
L 79 351
L 79 350
L 80 350
L 81 350
L 82 351
L 83 351
L 84 351
L 84 351
L 85 351
L 86 351
L 87 351
L 88 350
L 89 351
L 89 350
L 90 351
L 91 351
L 92 351
L 93 351
L 94 351
L 94 351
L 95 351
L 96 350
L 97 351
L 98 351
L 99 351
L 99 351
L 100 351
L 101 351
L 102 351
L 103 351
L 104 351
L 104 351
L 105 351
L 106 351
L 107 351
L 108 351
L 109 351
L 109 351
L 110 351
L 111 351
L 112 351
L 113 351
L 114 351
L 114 351
L 115 351
L 116 351
L 117 351
L 118 351
L 119 351
L 119 351
L 120 351
L 121 351
L 122 351
L 123 351
L 124 351
L 124 350
L 125 351
L 126 351
L 127 351
L 128 351
L 129 351
L 129 351
L 130 351
L 131 351
L 132 351
L 133 351
L 134 351
L 134 351
L 135 351
L 136 351
L 137 351
L 138 351
L 139 351
L 139 351
L 140 351
L 141 351
L 142 351
L 143 351
L 144 351
L 144 351
L 145 351
L 146 351
L 147 351
L 148 351
L 149 351
L 149 351
L 150 351
L 151 351
L 152 351
L 153 351
L 154 351
L 155 351
L 155 351
L 156 351
L 157 351
L 158 351
L 159 351
L 160 351
L 160 351
L 161 351
L 162 351
L 163 351
L 164 351
L 165 351
L 165 351
L 166 351
L 167 351
L 168 350
L 169 351
L 170 351
L 170 351
L 171 351
L 172 351
L 173 351
L 174 351
L 175 351
L 175 351
L 176 351
L 177 351
L 178 351
L 179 351
L 180 351
L 180 351
L 181 351
L 182 351
L 183 351
L 184 351
L 185 351
L 185 351
L 186 351
L 187 351
L 188 350
L 189 351
L 190 351
L 190 351
L 191 351
L 192 351
L 193 351
L 194 351
L 195 351
L 195 351
L 196 351
L 197 351
L 198 350
L 199 351
L 200 351
L 200 351
L 201 351
L 202 351
L 203 351
L 204 351
L 205 351
L 205 351
L 206 351
L 207 351
L 208 351
L 209 351
L 210 351
L 210 351
L 211 351
L 212 351
L 213 351
L 214 351
L 215 351
L 215 351
L 216 351
L 217 351
L 218 351
L 219 351
L 220 351
L 220 351
L 221 351
L 222 351
L 223 351
L 224 351
L 225 351
L 225 351
L 226 351
L 227 351
L 228 350
L 229 351
L 230 351
L 230 351
L 231 351
L 232 351
L 233 351
L 234 351
L 235 351
L 235 351
L 236 351
L 237 350
L 238 351
L 239 351
L 240 351
L 240 351
L 241 351
L 242 351
L 243 350
L 244 350
L 245 351
L 245 351
L 246 350
L 247 351
L 248 351
L 249 350
L 250 350
L 250 350
L 251 350
L 252 351
L 253 350
L 254 351
L 255 350
L 255 350
L 256 350
L 257 350
L 258 350
L 259 350
L 260 350
L 260 350
L 261 350
L 262 351
L 263 350
L 264 350
L 265 350
L 265 350
L 266 350
L 267 350
L 268 351
L 269 350
L 270 350
L 271 350
L 271 350
L 272 350
L 273 350
L 274 350
L 275 350
L 276 350
L 276 350
L 277 350
L 278 350
L 279 350
L 280 350
L 281 350
L 281 350
L 282 350
L 283 351
L 284 351
L 285 351
L 286 351
L 286 350
L 287 351
L 288 351
L 289 351
L 290 350
L 291 351
L 291 351
L 292 351
L 293 350
L 294 350
L 295 350
L 296 350
L 296 351
L 297 350
L 298 350
L 299 350
L 300 351
L 301 351
L 301 351
L 302 350
L 303 351
L 304 351
L 305 350
L 306 351
L 306 350
L 307 350
L 308 351
L 309 350
L 310 351
L 311 351
L 311 350
L 312 351
L 313 351
L 314 350
L 315 350
L 316 351
L 316 351
L 317 351
L 318 351
L 319 351
L 320 350
L 321 351
L 321 351
L 322 350
L 323 351
L 324 350
L 325 351
L 326 351
L 326 351
L 327 350
L 328 351
L 329 351
L 330 350
L 331 351
L 331 350
L 332 351
L 333 351
L 334 350
L 335 351
L 336 351
L 336 351
L 337 351
L 338 350
L 339 350
L 340 350
L 341 351
L 341 350
L 342 351
L 343 351
L 344 350
L 345 351
L 346 351
L 346 351
L 347 351
L 348 351
L 349 350
L 350 351
L 351 351
L 351 351
L 352 351
L 353 351
L 354 351
L 355 351
L 356 351
L 356 351
L 357 351
L 358 350
L 359 351
L 360 351
L 361 351
L 361 351
L 362 351
L 363 351
L 364 351
L 365 351
L 366 351
L 366 351
L 367 351
L 368 350
L 369 351
L 370 351
L 371 351
L 371 351
L 372 351
L 373 351
L 374 351
L 375 351
L 376 350
L 376 350
L 377 351
L 378 351
L 379 351
L 380 351
L 381 350
L 381 351
L 382 351
L 383 351
L 384 351
L 385 351
L 386 351
L 387 351
L 387 351
L 388 351
L 389 351
L 390 351
L 391 350
L 392 351
L 392 351
L 393 351
L 394 351
L 395 351
L 396 351
L 397 351
L 397 351
L 398 351
L 399 351
L 400 351
L 401 351
L 402 351
L 402 351
L 403 351
L 404 351
L 405 351
L 406 351
L 407 351
L 407 351
L 408 351
L 409 351
L 410 351
L 411 351
L 412 351
L 412 351
L 413 351
L 414 351
L 415 351
L 416 351
L 417 351
L 417 351
L 418 351
L 419 351
L 420 351
L 421 351
L 422 351
L 422 351
L 423 351
L 424 351
L 425 351
L 426 351
L 427 351
L 427 351
L 428 351
L 429 351
L 430 351
L 431 351
L 432 351
L 432 351
L 433 351
L 434 351
L 435 351
L 436 351
L 437 351
L 437 351
L 438 351
L 439 350
L 440 351
L 441 351
L 442 350
L 442 351
L 443 351
L 444 351
L 445 351
L 446 351
L 447 351
L 447 351
L 448 351
L 449 351
L 450 351
L 451 351
L 452 351
L 452 351
L 453 351
L 454 351
L 455 351
L 456 351
L 457 351
L 457 351
L 458 351
L 459 351
L 460 351
L 461 351
L 462 351
L 462 351
L 463 351
L 464 351
L 465 351
L 466 351
L 467 351
L 467 351
L 468 351
L 469 351
L 470 351
L 471 351
L 472 351
L 472 351
L 473 351
L 474 351
L 475 351
L 476 351
L 477 350
L 477 351
L 478 351
L 479 351
L 480 351
L 481 351
L 482 351
L 482 351
L 483 351
L 484 351
L 485 351
L 486 351
L 487 351
L 487 351
L 488 351
L 489 351
L 490 351
L 491 351
L 492 351
L 492 351
L 493 351
L 494 351
L 495 351
L 496 351
L 497 351
L 497 351
L 498 351
L 499 351
L 500 351
L 501 351
L 502 351
L 503 351
L 503 351
L 504 351
L 505 351
L 506 351
L 507 351
L 508 351
L 508 351
L 509 351
L 510 351
L 511 351
L 512 351
L 513 351
L 513 351
L 514 351
L 515 351
L 516 351
L 517 351
L 518 351
L 518 351
L 519 351
L 520 351
L 521 351
L 522 351
L 523 351
L 523 351
L 524 351
L 525 351
L 526 351
L 527 351
L 528 351
L 528 351
L 529 351
L 530 351
L 531 351
L 532 351
L 533 351
L 533 351
L 534 350
L 535 351
L 536 351
L 537 351
L 538 351
L 538 351
L 539 351
L 540 351
L 541 351
L 542 351
L 543 351
L 543 351
L 544 351
L 545 351
L 546 351
L 547 351
L 548 351
L 548 351
L 549 351
L 550 351
L 551 351
L 552 351
L 553 351
L 553 351
L 554 351
L 555 351
L 556 351
L 557 351
L 558 351
L 558 351
L 559 351
L 560 351
L 561 351
L 562 351
L 563 351
L 563 351
L 564 351
L 565 351
L 566 351
L 567 351
L 568 351
L 568 351
L 569 351
L 570 350
L 571 351
L 572 351
L 573 350
L 573 351
L 574 351
L 575 350
L 576 351
L 577 350
L 578 350
L 578 350
L 579 351
L 580 351
L 581 351
L 582 351
L 583 351
L 583 350
L 584 350
L 585 351
L 586 351
L 587 351
L 588 351
L 588 350
L 589 351
L 590 350
L 591 351
L 592 351
L 593 351
L 593 351
L 594 351
L 595 350
L 596 351
L 597 350
L 598 351
L 598 351
L 599 351
L 600 350
L 601 351
L 602 351
L 603 351
L 603 350
L 604 350
L 605 351
L 606 351
L 607 350
L 608 351
L 608 351
L 609 351
L 610 351
L 611 351
L 612 351
L 613 351
L 613 351
L 614 351
L 615 351
L 616 351
L 617 351
L 618 351
L 619 351
L 619 351
L 620 351
L 621 351
L 622 351
L 623 351
L 624 350
L 624 351
L 625 351
L 626 351
L 627 351
L 628 351
L 629 351
L 629 351
L 630 351
L 631 351
L 632 351
L 633 351
L 634 351
L 634 351
L 635 351
L 636 351
L 637 351
L 638 351
L 639 350
L 639 351
L 640 351
L 641 351
L 642 350
L 643 351
L 644 351
L 644 351
L 645 351
L 646 351
L 647 350
L 648 351
L 649 351
L 649 351
L 650 351
L 651 351
L 652 350
L 653 350
L 654 351
L 654 351
L 655 351
L 656 351
L 657 351
L 658 350
L 659 351
L 659 351
L 660 351
L 661 350
L 662 351
L 663 350
L 664 351
L 664 351
L 665 351
L 666 351
L 667 351
L 668 351
L 669 351
L 669 351
L 670 351
L 671 351
L 672 351
L 673 351
L 674 350
L 674 350
L 675 351
L 676 351
L 677 351
L 678 351
L 679 350
L 679 351
L 680 351
L 681 351
L 682 351
L 683 351
L 684 351
L 684 351
L 685 351
L 686 351
L 687 351
L 688 351
L 689 351
L 689 350
L 690 351
L 691 351
L 692 351
L 693 351
L 694 351
L 694 351
L 695 351
L 696 351
L 697 351
L 698 351
L 699 351
L 699 351
L 700 351
L 701 351
L 702 351
L 703 351
L 704 351
L 704 351
L 705 351
L 706 351
L 707 351
L 708 351
L 709 351
L 709 351
L 710 351
L 711 351
L 712 351
L 713 351
L 714 350
L 714 351
L 715 351
L 716 351
L 717 351
L 718 351
L 719 351
L 719 351
L 720 351
L 721 351
L 722 351
L 723 351
L 724 351
L 724 351
L 725 351
L 726 351
L 727 351
L 728 351
L 729 351
L 729 351
L 730 351
L 731 351
L 732 351
L 733 351
L 734 351
L 735 351
L 735 351
L 736 351
L 737 351
L 738 351
L 739 351
L 740 351
L 740 351
L 741 351
L 742 351
L 743 351
L 744 351
L 745 350
L 745 350
L 746 351
L 747 351
L 748 351
L 749 351
L 750 351
L 750 351
L 751 351
L 752 351
L 753 350
L 754 351
L 755 351
L 755 351
L 756 351
L 757 350
L 758 351
L 759 350
L 760 350
L 760 350
L 761 351
L 762 351
L 763 351
L 764 351
L 765 351
L 765 351
L 766 351
L 767 351
L 768 351
L 769 351
L 770 351
L 770 351
L 771 350
L 772 351
L 773 351
L 774 351
L 775 351
L 775 351
L 776 351
L 777 351
L 778 351
L 779 351
L 780 351
L 780 350
L 781 351
L 782 351
L 783 351
L 784 350
L 785 351
L 785 351
L 786 351
L 787 351
L 788 351
L 789 351
L 790 351
L 790 351
L 791 351
L 792 350
L 793 351
L 794 351
L 795 351
L 795 351
L 796 351
L 797 351
L 798 350
L 799 351
L 800 351
L 800 351
L 801 351
L 802 351
L 803 351
L 804 351
L 805 351
L 805 351
L 806 351
L 807 351
L 808 351
L 809 351
L 810 351
L 810 351
L 811 351
L 812 351
L 813 351
L 814 351
L 815 351
L 815 351
L 816 351
L 817 351
L 818 351
L 819 351
L 820 351
L 820 351
L 821 351
L 822 351
L 823 351
L 824 351
L 825 351
L 825 351
L 826 351
L 827 351
L 828 351
L 829 351
L 830 351
L 830 351
L 831 351
L 832 351
L 833 351
L 834 351
L 835 351
L 835 351
L 836 351
L 837 351
L 838 351
L 839 351
L 840 351
L 840 351
L 841 351
L 842 351
L 843 351
L 844 350
L 845 351
L 845 351
L 846 351
L 847 351
L 848 350
L 849 350
L 850 351
L 851 351
L 851 351
L 852 351
L 853 351
L 854 351
L 855 351
L 856 351
L 856 351
L 857 351
L 858 351
L 859 351
L 860 351
L 861 351
L 861 351
L 862 351
L 863 351
L 864 351
L 865 351
L 866 351
L 866 351
L 867 351
L 868 351
L 869 351
L 870 351
L 871 351
L 871 351
L 872 351
L 873 351
L 874 351
L 875 351
L 876 351
L 876 351
L 877 351
L 878 351
L 879 351
L 880 351
L 881 351
L 881 351
L 882 351
L 883 351
L 884 351
L 885 351
L 886 351
L 886 351
L 887 351
L 888 351
L 889 351
L 890 351
L 891 351
L 891 351
L 892 351
L 893 351
L 894 351
L 895 351
L 896 351
L 896 351
L 897 351
L 898 351
L 899 351
L 900 351
L 901 351
L 901 351
L 902 351
L 903 351
L 904 351
L 905 351
L 906 351
L 906 351
L 907 351
L 908 351
L 909 351
L 910 351
L 911 351
L 911 351
L 912 351
L 913 351
L 914 351
L 915 351
L 916 351
L 916 351
L 917 351
L 918 351
L 919 351
L 920 351
L 921 350
L 921 351
L 922 351
L 923 351
L 924 351
L 925 351
L 926 351
L 926 351
L 927 350
L 928 351
L 929 351
L 930 351
L 931 351
L 931 351
L 932 351
L 933 351
L 934 351
L 935 351
L 936 351
L 936 351
L 937 351
L 938 351
L 939 351
L 940 351
L 941 351
L 941 351
L 942 351
L 943 351
L 944 351
L 945 351
L 946 351
L 946 351
L 947 351
L 948 351
L 949 351
L 950 351
L 951 351
L 951 351
L 952 350
L 953 351
L 954 351
L 955 351
L 956 351
L 956 351
L 957 351
L 958 351
L 959 351
L 960 351
L 961 351
L 961 351" style="stroke-width:1;stroke:rgba(217,0,116,1.0);fill:none"/><text x="410" y="33" style="stroke-width:0;stroke:none;fill:rgba(51,51,51,1.0);font-size:23.0px;font-family:'Roboto Medium',sans-serif">Schwaz 08.03.2023</text><path  d="M 38 11
L 251 11
L 251 91
L 38 91
L 38 11" style="stroke-width:1;stroke:rgba(51,51,51,1.0);fill:rgba(255,255,255,1.0)"/><text x="43" y="26" style="stroke-width:0;stroke:none;fill:rgba(51,51,51,1.0);font-size:10.2px;font-family:'Roboto Medium',sans-serif">Sieben Tage Durschnitt Inzidenz Fälle</text><path  d="M 221 21
L 241 21" style="stroke-width:1;stroke:rgba(0,116,217,1.0);fill:none"/><text x="43" y="56" style="stroke-width:0;stroke:none;fill:rgba(51,51,51,1.0);font-size:10.2px;font-family:'Roboto Medium',sans-serif">Anzahl Faelle</text><path  d="M 110 51
L 241 51" style="stroke-width:1;stroke:rgba(0,217,101,1.0);fill:none"/><text x="43" y="86" style="stroke-width:0;stroke:none;fill:rgba(51,51,51,1.0);font-size:10.2px;font-family:'Roboto Medium',sans-serif">Anzahl Tot</text><path  d="M 98 81
L 241 81" style="stroke-width:1;stroke:rgba(217,0,116,1.0);fill:none"/></svg>