<svg xmlns="http://www.w3.org/2000/svg" xmlns:xlink="http://www.w3.org/1999/xlink" width="1024" height="400">\n<path  d="M 0 0
L 1024 0
L 1024 400
L 0 400
L 0 0" style="stroke-width:0;stroke:rgba(255,255,255,1.0);fill:rgba(255,255,255,1.0)"/><path  d="M 38 11
L 961 11
L 961 351
L 38 351
L 38 11" style="stroke-width:0;stroke:rgba(255,255,255,1.0);fill:rgba(255,255,255,1.0)"/><path  d="M 38 351
L 961 351" style="stroke-width:1;stroke:rgba(51,51,51,1.0);fill:none"/><path  d="M 38 351
L 38 356" style="stroke-width:1;stroke:rgba(51,51,51,1.0);fill:none"/><text x="5" y="373" style="stroke-width:0;stroke:none;fill:rgba(51,51,51,1.0);font-size:12.8px;font-family:'Roboto Medium',sans-serif">2020-02-26</text><path  d="M 154 351
L 154 356" style="stroke-width:1;stroke:rgba(51,51,51,1.0);fill:none"/><text x="121" y="373" style="stroke-width:0;stroke:none;fill:rgba(51,51,51,1.0);font-size:12.8px;font-family:'Roboto Medium',sans-serif">2020-04-20</text><path  d="M 269 351
L 269 356" style="stroke-width:1;stroke:rgba(51,51,51,1.0);fill:none"/><text x="236" y="373" style="stroke-width:0;stroke:none;fill:rgba(51,51,51,1.0);font-size:12.8px;font-family:'Roboto Medium',sans-serif">2020-06-14</text><path  d="M 385 351
L 385 356" style="stroke-width:1;stroke:rgba(51,51,51,1.0);fill:none"/><text x="352" y="373" style="stroke-width:0;stroke:none;fill:rgba(51,51,51,1.0);font-size:12.8px;font-family:'Roboto Medium',sans-serif">2020-08-07</text><path  d="M 500 351
L 500 356" style="stroke-width:1;stroke:rgba(51,51,51,1.0);fill:none"/><text x="467" y="373" style="stroke-width:0;stroke:none;fill:rgba(51,51,51,1.0);font-size:12.8px;font-family:'Roboto Medium',sans-serif">2020-10-01</text><path  d="M 615 351
L 615 356" style="stroke-width:1;stroke:rgba(51,51,51,1.0);fill:none"/><text x="582" y="373" style="stroke-width:0;stroke:none;fill:rgba(51,51,51,1.0);font-size:12.8px;font-family:'Roboto Medium',sans-serif">2020-11-24</text><path  d="M 731 351
L 731 356" style="stroke-width:1;stroke:rgba(51,51,51,1.0);fill:none"/><text x="698" y="373" style="stroke-width:0;stroke:none;fill:rgba(51,51,51,1.0);font-size:12.8px;font-family:'Roboto Medium',sans-serif">2021-01-18</text><path  d="M 846 351
L 846 356" style="stroke-width:1;stroke:rgba(51,51,51,1.0);fill:none"/><text x="813" y="373" style="stroke-width:0;stroke:none;fill:rgba(51,51,51,1.0);font-size:12.8px;font-family:'Roboto Medium',sans-serif">2021-03-13</text><path  d="M 961 351
L 961 356" style="stroke-width:1;stroke:rgba(51,51,51,1.0);fill:none"/><text x="928" y="373" style="stroke-width:0;stroke:none;fill:rgba(51,51,51,1.0);font-size:12.8px;font-family:'Roboto Medium',sans-serif">2021-05-07</text><text x="481" y="395" style="stroke-width:0;stroke:none;fill:rgba(51,51,51,1.0);font-size:12.8px;font-family:'Roboto Medium',sans-serif">Datum</text><path  d="M 962 351
L 962 11" style="stroke-width:1;stroke:rgba(51,51,51,1.0);fill:none"/><path  d="M 962 351
L 967 351" style="stroke-width:1;stroke:rgba(51,51,51,1.0);fill:none"/><text x="972" y="357" style="stroke-width:0;stroke:none;fill:rgba(51,51,51,1.0);font-size:12.8px;font-family:'Roboto Medium',sans-serif">0.00</text><path  d="M 962 307
L 967 307" style="stroke-width:1;stroke:rgba(51,51,51,1.0);fill:none"/><text x="972" y="313" style="stroke-width:0;stroke:none;fill:rgba(51,51,51,1.0);font-size:12.8px;font-family:'Roboto Medium',sans-serif">190.00</text><path  d="M 962 264
L 967 264" style="stroke-width:1;stroke:rgba(51,51,51,1.0);fill:none"/><text x="972" y="270" style="stroke-width:0;stroke:none;fill:rgba(51,51,51,1.0);font-size:12.8px;font-family:'Roboto Medium',sans-serif">380.00</text><path  d="M 962 221
L 967 221" style="stroke-width:1;stroke:rgba(51,51,51,1.0);fill:none"/><text x="972" y="227" style="stroke-width:0;stroke:none;fill:rgba(51,51,51,1.0);font-size:12.8px;font-family:'Roboto Medium',sans-serif">570.00</text><path  d="M 962 181
L 967 181" style="stroke-width:1;stroke:rgba(51,51,51,1.0);fill:none"/><text x="972" y="187" style="stroke-width:0;stroke:none;fill:rgba(51,51,51,1.0);font-size:12.8px;font-family:'Roboto Medium',sans-serif">750.00</text><path  d="M 962 137
L 967 137" style="stroke-width:1;stroke:rgba(51,51,51,1.0);fill:none"/><text x="972" y="143" style="stroke-width:0;stroke:none;fill:rgba(51,51,51,1.0);font-size:12.8px;font-family:'Roboto Medium',sans-serif">940.00</text><path  d="M 962 94
L 967 94" style="stroke-width:1;stroke:rgba(51,51,51,1.0);fill:none"/><text x="972" y="100" style="stroke-width:0;stroke:none;fill:rgba(51,51,51,1.0);font-size:12.8px;font-family:'Roboto Medium',sans-serif">1130.00</text><path  d="M 962 51
L 967 51" style="stroke-width:1;stroke:rgba(51,51,51,1.0);fill:none"/><text x="972" y="57" style="stroke-width:0;stroke:none;fill:rgba(51,51,51,1.0);font-size:12.8px;font-family:'Roboto Medium',sans-serif">1320.00</text><path  d="M 962 11
L 967 11" style="stroke-width:1;stroke:rgba(51,51,51,1.0);fill:none"/><text x="972" y="17" style="stroke-width:0;stroke:none;fill:rgba(51,51,51,1.0);font-size:12.8px;font-family:'Roboto Medium',sans-serif">1500.00</text><path  d="M 38 351
L 41 351
L 43 351
L 45 351
L 47 351
L 49 351
L 51 351
L 53 351
L 55 351
L 58 351
L 60 351
L 62 351
L 64 351
L 66 350
L 68 350
L 70 350
L 72 349
L 74 349
L 77 349
L 79 349
L 81 347
L 83 347
L 85 346
L 87 342
L 89 336
L 91 334
L 94 331
L 96 329
L 98 325
L 100 317
L 102 316
L 104 315
L 106 313
L 108 315
L 110 315
L 113 314
L 115 320
L 117 323
L 119 324
L 121 326
L 123 327
L 125 328
L 127 333
L 130 336
L 132 337
L 134 342
L 136 343
L 138 344
L 140 345
L 142 345
L 144 345
L 146 347
L 149 347
L 151 347
L 153 348
L 155 349
L 157 349
L 159 349
L 161 349
L 163 349
L 166 350
L 168 350
L 170 350
L 172 350
L 174 350
L 176 350
L 178 350
L 180 350
L 182 350
L 185 350
L 187 350
L 189 350
L 191 350
L 193 350
L 195 350
L 197 350
L 199 350
L 202 350
L 204 350
L 206 350
L 208 350
L 210 349
L 212 349
L 214 349
L 216 349
L 218 350
L 221 350
L 223 350
L 225 350
L 227 350
L 229 350
L 231 351
L 233 351
L 235 351
L 237 351
L 240 351
L 242 351
L 244 351
L 246 351
L 248 351
L 250 351
L 252 351
L 254 351
L 257 351
L 259 351
L 261 351
L 263 351
L 265 351
L 267 351
L 269 351
L 271 351
L 273 351
L 276 351
L 278 351
L 280 351
L 282 351
L 284 351
L 286 351
L 288 351
L 290 351
L 293 351
L 295 351
L 297 351
L 299 351
L 301 350
L 303 350
L 305 350
L 307 350
L 309 350
L 312 350
L 314 350
L 316 350
L 318 350
L 320 350
L 322 349
L 324 349
L 326 350
L 329 350
L 331 350
L 333 350
L 335 350
L 337 351
L 339 350
L 341 350
L 343 350
L 345 350
L 348 350
L 350 350
L 352 350
L 354 350
L 356 350
L 358 350
L 360 350
L 362 351
L 365 351
L 367 351
L 369 350
L 371 350
L 373 350
L 375 350
L 377 350
L 379 350
L 381 350
L 384 350
L 386 350
L 388 350
L 390 349
L 392 347
L 394 346
L 396 345
L 398 342
L 401 342
L 403 341
L 405 339
L 407 341
L 409 341
L 411 342
L 413 344
L 415 343
L 417 344
L 420 345
L 422 345
L 424 345
L 426 345
L 428 345
L 430 346
L 432 346
L 434 345
L 436 344
L 439 344
L 441 344
L 443 342
L 445 342
L 447 342
L 449 342
L 451 340
L 453 338
L 456 337
L 458 337
L 460 336
L 462 336
L 464 336
L 466 335
L 468 336
L 470 334
L 472 332
L 475 332
L 477 331
L 479 332
L 481 330
L 483 332
L 485 332
L 487 335
L 489 334
L 492 335
L 494 334
L 496 337
L 498 335
L 500 338
L 502 337
L 504 334
L 506 331
L 508 331
L 511 327
L 513 329
L 515 322
L 517 322
L 519 322
L 521 319
L 523 314
L 525 311
L 528 302
L 530 298
L 532 292
L 534 292
L 536 295
L 538 289
L 540 286
L 542 279
L 544 266
L 547 248
L 549 238
L 551 236
L 553 216
L 555 198
L 557 184
L 559 185
L 561 174
L 564 169
L 566 163
L 568 138
L 570 128
L 572 105
L 574 93
L 576 81
L 578 74
L 580 48
L 583 58
L 585 49
L 587 38
L 589 30
L 591 36
L 593 34
L 595 42
L 597 39
L 599 47
L 602 68
L 604 81
L 606 85
L 608 84
L 610 100
L 612 121
L 614 137
L 616 158
L 619 171
L 621 192
L 623 209
L 625 217
L 627 230
L 629 242
L 631 251
L 633 257
L 635 261
L 638 259
L 640 251
L 642 261
L 644 267
L 646 271
L 648 278
L 650 290
L 652 296
L 655 305
L 657 307
L 659 312
L 661 317
L 663 316
L 665 318
L 667 320
L 669 321
L 671 317
L 674 314
L 676 311
L 678 316
L 680 311
L 682 315
L 684 310
L 686 309
L 688 309
L 691 314
L 693 309
L 695 307
L 697 304
L 699 307
L 701 312
L 703 314
L 705 311
L 707 312
L 710 315
L 712 315
L 714 318
L 716 320
L 718 321
L 720 319
L 722 322
L 724 323
L 727 323
L 729 320
L 731 318
L 733 315
L 735 313
L 737 310
L 739 309
L 741 310
L 743 305
L 746 298
L 748 295
L 750 295
L 752 296
L 754 297
L 756 299
L 758 300
L 760 304
L 763 309
L 765 309
L 767 312
L 769 308
L 771 309
L 773 313
L 775 315
L 777 317
L 779 320
L 782 321
L 784 328
L 786 327
L 788 324
L 790 326
L 792 323
L 794 317
L 796 316
L 798 310
L 801 308
L 803 314
L 805 305
L 807 304
L 809 309
L 811 308
L 813 312
L 815 309
L 818 302
L 820 306
L 822 305
L 824 307
L 826 307
L 828 307
L 830 311
L 832 319
L 834 324
L 837 328
L 839 326
L 841 326
L 843 328
L 845 323
L 847 321
L 849 313
L 851 310
L 854 307
L 856 304
L 858 297
L 860 301
L 862 302
L 864 302
L 866 298
L 868 301
L 870 297
L 873 296
L 875 292
L 877 288
L 879 291
L 881 295
L 883 296
L 885 304
L 887 309
L 890 315
L 892 318
L 894 323
L 896 325
L 898 327
L 900 328
L 902 332
L 904 333
L 906 334
L 909 336
L 911 338
L 913 337
L 915 337
L 917 335
L 919 333
L 921 336
L 923 330
L 926 329
L 928 330
L 930 331
L 932 333
L 934 334
L 936 332
L 938 337
L 940 340
L 942 341
L 945 341
L 947 342
L 949 342
L 951 342
L 953 342
L 955 340
L 957 341
L 959 338
L 961 338" style="stroke-width:1;stroke:rgba(0,116,217,1.0);fill:none"/><path  d="M 38 351
L 41 351
L 43 351
L 45 351
L 47 351
L 49 351
L 51 351
L 53 351
L 55 351
L 58 351
L 60 351
L 62 351
L 64 351
L 66 350
L 68 351
L 70 351
L 72 350
L 74 351
L 77 351
L 79 350
L 81 349
L 83 350
L 85 349
L 87 347
L 89 345
L 91 349
L 94 347
L 96 348
L 98 347
L 100 343
L 102 346
L 104 344
L 106 347
L 108 348
L 110 348
L 113 346
L 115 347
L 117 348
L 119 346
L 121 349
L 123 349
L 125 349
L 127 350
L 130 350
L 132 349
L 134 350
L 136 350
L 138 350
L 140 350
L 142 351
L 144 350
L 146 351
L 149 350
L 151 350
L 153 350
L 155 350
L 157 351
L 159 351
L 161 350
L 163 351
L 166 351
L 168 351
L 170 350
L 172 351
L 174 350
L 176 351
L 178 351
L 180 351
L 182 351
L 185 350
L 187 350
L 189 351
L 191 351
L 193 351
L 195 351
L 197 351
L 199 351
L 202 350
L 204 350
L 206 351
L 208 351
L 210 350
L 212 351
L 214 351
L 216 350
L 218 351
L 221 351
L 223 351
L 225 351
L 227 351
L 229 351
L 231 351
L 233 351
L 235 351
L 237 351
L 240 351
L 242 351
L 244 351
L 246 351
L 248 351
L 250 351
L 252 351
L 254 351
L 257 351
L 259 351
L 261 351
L 263 351
L 265 351
L 267 351
L 269 351
L 271 351
L 273 351
L 276 351
L 278 351
L 280 351
L 282 351
L 284 351
L 286 351
L 288 351
L 290 351
L 293 351
L 295 351
L 297 351
L 299 351
L 301 350
L 303 351
L 305 350
L 307 351
L 309 351
L 312 350
L 314 351
L 316 351
L 318 350
L 320 350
L 322 350
L 324 351
L 326 351
L 329 351
L 331 351
L 333 351
L 335 351
L 337 351
L 339 350
L 341 351
L 343 351
L 345 351
L 348 350
L 350 351
L 352 351
L 354 351
L 356 351
L 358 351
L 360 351
L 362 351
L 365 351
L 367 351
L 369 350
L 371 351
L 373 351
L 375 351
L 377 350
L 379 351
L 381 351
L 384 351
L 386 351
L 388 350
L 390 350
L 392 348
L 394 350
L 396 349
L 398 348
L 401 351
L 403 350
L 405 348
L 407 350
L 409 350
L 411 349
L 413 350
L 415 350
L 417 350
L 420 350
L 422 350
L 424 350
L 426 349
L 428 350
L 430 351
L 432 350
L 434 350
L 436 349
L 439 350
L 441 349
L 443 349
L 445 350
L 447 350
L 449 350
L 451 348
L 453 348
L 456 348
L 458 348
L 460 350
L 462 351
L 464 349
L 466 348
L 468 348
L 470 347
L 472 347
L 475 350
L 477 349
L 479 350
L 481 346
L 483 350
L 485 347
L 487 349
L 489 349
L 492 350
L 494 349
L 496 349
L 498 348
L 500 349
L 502 348
L 504 347
L 506 348
L 508 349
L 511 345
L 513 350
L 515 343
L 517 348
L 519 347
L 521 345
L 523 345
L 525 343
L 528 342
L 530 340
L 532 343
L 534 347
L 536 348
L 538 340
L 540 340
L 542 336
L 544 330
L 547 327
L 549 339
L 551 346
L 553 323
L 555 324
L 557 324
L 559 331
L 561 317
L 564 334
L 566 341
L 568 302
L 570 316
L 572 304
L 574 321
L 576 307
L 578 329
L 580 319
L 583 311
L 585 308
L 587 295
L 589 314
L 591 312
L 593 327
L 595 326
L 597 308
L 599 315
L 602 314
L 604 324
L 606 316
L 608 327
L 610 339
L 612 326
L 614 328
L 616 331
L 619 335
L 621 334
L 623 342
L 625 346
L 627 336
L 629 338
L 631 339
L 633 340
L 635 337
L 638 340
L 640 339
L 642 345
L 644 343
L 646 343
L 648 346
L 650 346
L 652 345
L 655 347
L 657 347
L 659 347
L 661 347
L 663 345
L 665 348
L 667 347
L 669 348
L 671 344
L 674 345
L 676 344
L 678 349
L 680 344
L 682 350
L 684 343
L 686 343
L 688 344
L 691 349
L 693 344
L 695 343
L 697 347
L 699 346
L 701 347
L 703 346
L 705 347
L 707 344
L 710 346
L 712 347
L 714 349
L 716 349
L 718 347
L 720 345
L 722 347
L 724 347
L 727 347
L 729 347
L 731 347
L 733 344
L 735 343
L 737 345
L 739 346
L 741 347
L 743 343
L 746 341
L 748 342
L 750 343
L 752 345
L 754 347
L 756 348
L 758 343
L 760 345
L 763 346
L 765 344
L 767 347
L 769 344
L 771 349
L 773 347
L 775 347
L 777 348
L 779 347
L 782 347
L 784 350
L 786 349
L 788 344
L 790 348
L 792 346
L 794 341
L 796 347
L 798 345
L 801 347
L 803 349
L 805 341
L 807 345
L 809 345
L 811 347
L 813 348
L 815 345
L 818 342
L 820 344
L 822 345
L 824 347
L 826 347
L 828 348
L 830 348
L 832 349
L 834 348
L 837 348
L 839 345
L 841 347
L 843 350
L 845 344
L 847 347
L 849 341
L 851 346
L 854 343
L 856 344
L 858 344
L 860 347
L 862 348
L 864 341
L 866 342
L 868 345
L 870 341
L 873 343
L 875 344
L 877 345
L 879 343
L 881 346
L 883 346
L 885 348
L 887 347
L 890 349
L 892 348
L 894 348
L 896 348
L 898 348
L 900 348
L 902 350
L 904 349
L 906 348
L 909 350
L 911 349
L 913 347
L 915 349
L 917 348
L 919 348
L 921 351
L 923 344
L 926 348
L 928 348
L 930 350
L 932 350
L 934 349
L 936 349
L 938 348
L 940 351
L 942 350
L 945 350
L 947 350
L 949 349
L 951 349
L 953 349
L 955 348
L 957 350
L 959 348
L 961 351" style="stroke-width:1;stroke:rgba(0,217,101,1.0);fill:none"/><path  d="M 38 351
L 41 351
L 43 351
L 45 351
L 47 351
L 49 351
L 51 351
L 53 351
L 55 351
L 58 351
L 60 351
L 62 351
L 64 351
L 66 351
L 68 351
L 70 351
L 72 351
L 74 351
L 77 351
L 79 351
L 81 351
L 83 351
L 85 351
L 87 351
L 89 351
L 91 351
L 94 351
L 96 351
L 98 351
L 100 351
L 102 351
L 104 350
L 106 351
L 108 351
L 110 351
L 113 350
L 115 351
L 117 351
L 119 351
L 121 351
L 123 350
L 125 350
L 127 350
L 130 350
L 132 351
L 134 351
L 136 351
L 138 351
L 140 351
L 142 350
L 144 350
L 146 350
L 149 351
L 151 351
L 153 351
L 155 351
L 157 351
L 159 351
L 161 351
L 163 350
L 166 351
L 168 350
L 170 351
L 172 351
L 174 351
L 176 351
L 178 351
L 180 351
L 182 351
L 185 350
L 187 351
L 189 351
L 191 351
L 193 351
L 195 351
L 197 351
L 199 351
L 202 351
L 204 351
L 206 351
L 208 351
L 210 351
L 212 351
L 214 351
L 216 351
L 218 351
L 221 351
L 223 351
L 225 351
L 227 351
L 229 351
L 231 351
L 233 351
L 235 351
L 237 351
L 240 351
L 242 351
L 244 351
L 246 351
L 248 351
L 250 351
L 252 351
L 254 351
L 257 351
L 259 351
L 261 351
L 263 351
L 265 351
L 267 351
L 269 351
L 271 351
L 273 351
L 276 351
L 278 351
L 280 351
L 282 351
L 284 351
L 286 351
L 288 351
L 290 351
L 293 351
L 295 351
L 297 351
L 299 351
L 301 351
L 303 351
L 305 351
L 307 351
L 309 351
L 312 351
L 314 351
L 316 351
L 318 351
L 320 351
L 322 351
L 324 351
L 326 351
L 329 351
L 331 351
L 333 351
L 335 351
L 337 351
L 339 351
L 341 351
L 343 351
L 345 351
L 348 351
L 350 351
L 352 351
L 354 351
L 356 351
L 358 351
L 360 351
L 362 351
L 365 351
L 367 351
L 369 351
L 371 351
L 373 351
L 375 351
L 377 351
L 379 351
L 381 351
L 384 351
L 386 351
L 388 351
L 390 351
L 392 351
L 394 351
L 396 351
L 398 351
L 401 351
L 403 351
L 405 351
L 407 351
L 409 351
L 411 351
L 413 351
L 415 351
L 417 351
L 420 351
L 422 351
L 424 351
L 426 351
L 428 351
L 430 351
L 432 351
L 434 351
L 436 351
L 439 351
L 441 351
L 443 351
L 445 351
L 447 351
L 449 351
L 451 351
L 453 351
L 456 351
L 458 351
L 460 351
L 462 351
L 464 351
L 466 351
L 468 351
L 470 351
L 472 351
L 475 351
L 477 351
L 479 351
L 481 351
L 483 351
L 485 351
L 487 351
L 489 351
L 492 351
L 494 351
L 496 351
L 498 351
L 500 351
L 502 351
L 504 351
L 506 351
L 508 351
L 511 351
L 513 351
L 515 351
L 517 351
L 519 350
L 521 351
L 523 351
L 525 351
L 528 351
L 530 351
L 532 351
L 534 351
L 536 351
L 538 351
L 540 351
L 542 351
L 544 351
L 547 351
L 549 351
L 551 351
L 553 351
L 555 351
L 557 350
L 559 350
L 561 351
L 564 351
L 566 350
L 568 351
L 570 351
L 572 350
L 574 350
L 576 350
L 578 350
L 580 351
L 583 350
L 585 351
L 587 350
L 589 350
L 591 350
L 593 351
L 595 349
L 597 350
L 599 350
L 602 350
L 604 350
L 606 351
L 608 350
L 610 350
L 612 350
L 614 350
L 616 350
L 619 350
L 621 351
L 623 350
L 625 350
L 627 350
L 629 350
L 631 350
L 633 350
L 635 350
L 638 351
L 640 350
L 642 351
L 644 350
L 646 350
L 648 350
L 650 350
L 652 351
L 655 350
L 657 350
L 659 351
L 661 351
L 663 351
L 665 351
L 667 350
L 669 351
L 671 351
L 674 351
L 676 351
L 678 351
L 680 351
L 682 351
L 684 350
L 686 351
L 688 350
L 691 350
L 693 351
L 695 350
L 697 350
L 699 350
L 701 351
L 703 351
L 705 351
L 707 350
L 710 351
L 712 351
L 714 350
L 716 351
L 718 350
L 720 350
L 722 351
L 724 350
L 727 351
L 729 351
L 731 351
L 733 351
L 735 351
L 737 350
L 739 351
L 741 351
L 743 351
L 746 351
L 748 351
L 750 351
L 752 351
L 754 351
L 756 351
L 758 350
L 760 351
L 763 351
L 765 351
L 767 351
L 769 351
L 771 350
L 773 351
L 775 351
L 777 350
L 779 351
L 782 350
L 784 351
L 786 351
L 788 350
L 790 351
L 792 351
L 794 351
L 796 351
L 798 350
L 801 350
L 803 350
L 805 351
L 807 350
L 809 351
L 811 351
L 813 350
L 815 351
L 818 351
L 820 351
L 822 351
L 824 351
L 826 350
L 828 351
L 830 351
L 832 351
L 834 351
L 837 351
L 839 351
L 841 351
L 843 351
L 845 351
L 847 351
L 849 350
L 851 351
L 854 351
L 856 351
L 858 351
L 860 351
L 862 351
L 864 351
L 866 351
L 868 351
L 870 351
L 873 351
L 875 350
L 877 351
L 879 351
L 881 351
L 883 351
L 885 351
L 887 351
L 890 351
L 892 351
L 894 350
L 896 350
L 898 351
L 900 351
L 902 351
L 904 351
L 906 350
L 909 351
L 911 351
L 913 351
L 915 351
L 917 351
L 919 351
L 921 351
L 923 351
L 926 351
L 928 351
L 930 351
L 932 350
L 934 351
L 936 351
L 938 351
L 940 351
L 942 351
L 945 351
L 947 351
L 949 351
L 951 351
L 953 351
L 955 351
L 957 351
L 959 351
L 961 351" style="stroke-width:1;stroke:rgba(217,0,116,1.0);fill:none"/><text x="410" y="33" style="stroke-width:0;stroke:none;fill:rgba(51,51,51,1.0);font-size:23.0px;font-family:'Roboto Medium',sans-serif">Schwaz 07.05.2021</text><path  d="M 38 11
L 251 11
L 251 91
L 38 91
L 38 11" style="stroke-width:1;stroke:rgba(51,51,51,1.0);fill:rgba(255,255,255,1.0)"/><text x="43" y="26" style="stroke-width:0;stroke:none;fill:rgba(51,51,51,1.0);font-size:10.2px;font-family:'Roboto Medium',sans-serif">Sieben Tage Durschnitt Inzidenz Fälle</text><path  d="M 221 21
L 241 21" style="stroke-width:1;stroke:rgba(0,116,217,1.0);fill:none"/><text x="43" y="56" style="stroke-width:0;stroke:none;fill:rgba(51,51,51,1.0);font-size:10.2px;font-family:'Roboto Medium',sans-serif">Anzahl Faelle</text><path  d="M 110 51
L 241 51" style="stroke-width:1;stroke:rgba(0,217,101,1.0);fill:none"/><text x="43" y="86" style="stroke-width:0;stroke:none;fill:rgba(51,51,51,1.0);font-size:10.2px;font-family:'Roboto Medium',sans-serif">Anzahl Tot</text><path  d="M 98 81
L 241 81" style="stroke-width:1;stroke:rgba(217,0,116,1.0);fill:none"/></svg>