<svg xmlns="http://www.w3.org/2000/svg" xmlns:xlink="http://www.w3.org/1999/xlink" width="1024" height="400">\n<path  d="M 0 0
L 1024 0
L 1024 400
L 0 400
L 0 0" style="stroke-width:0;stroke:rgba(255,255,255,1.0);fill:rgba(255,255,255,1.0)"/><path  d="M 38 11
L 961 11
L 961 351
L 38 351
L 38 11" style="stroke-width:0;stroke:rgba(255,255,255,1.0);fill:rgba(255,255,255,1.0)"/><path  d="M 38 351
L 961 351" style="stroke-width:1;stroke:rgba(51,51,51,1.0);fill:none"/><path  d="M 38 351
L 38 356" style="stroke-width:1;stroke:rgba(51,51,51,1.0);fill:none"/><text x="5" y="373" style="stroke-width:0;stroke:none;fill:rgba(51,51,51,1.0);font-size:12.8px;font-family:'Roboto Medium',sans-serif">2020-02-26</text><path  d="M 154 351
L 154 356" style="stroke-width:1;stroke:rgba(51,51,51,1.0);fill:none"/><text x="121" y="373" style="stroke-width:0;stroke:none;fill:rgba(51,51,51,1.0);font-size:12.8px;font-family:'Roboto Medium',sans-serif">2020-05-25</text><path  d="M 269 351
L 269 356" style="stroke-width:1;stroke:rgba(51,51,51,1.0);fill:none"/><text x="236" y="373" style="stroke-width:0;stroke:none;fill:rgba(51,51,51,1.0);font-size:12.8px;font-family:'Roboto Medium',sans-serif">2020-08-22</text><path  d="M 385 351
L 385 356" style="stroke-width:1;stroke:rgba(51,51,51,1.0);fill:none"/><text x="352" y="373" style="stroke-width:0;stroke:none;fill:rgba(51,51,51,1.0);font-size:12.8px;font-family:'Roboto Medium',sans-serif">2020-11-19</text><path  d="M 500 351
L 500 356" style="stroke-width:1;stroke:rgba(51,51,51,1.0);fill:none"/><text x="467" y="373" style="stroke-width:0;stroke:none;fill:rgba(51,51,51,1.0);font-size:12.8px;font-family:'Roboto Medium',sans-serif">2021-02-16</text><path  d="M 615 351
L 615 356" style="stroke-width:1;stroke:rgba(51,51,51,1.0);fill:none"/><text x="582" y="373" style="stroke-width:0;stroke:none;fill:rgba(51,51,51,1.0);font-size:12.8px;font-family:'Roboto Medium',sans-serif">2021-05-16</text><path  d="M 731 351
L 731 356" style="stroke-width:1;stroke:rgba(51,51,51,1.0);fill:none"/><text x="698" y="373" style="stroke-width:0;stroke:none;fill:rgba(51,51,51,1.0);font-size:12.8px;font-family:'Roboto Medium',sans-serif">2021-08-13</text><path  d="M 846 351
L 846 356" style="stroke-width:1;stroke:rgba(51,51,51,1.0);fill:none"/><text x="813" y="373" style="stroke-width:0;stroke:none;fill:rgba(51,51,51,1.0);font-size:12.8px;font-family:'Roboto Medium',sans-serif">2021-11-10</text><path  d="M 961 351
L 961 356" style="stroke-width:1;stroke:rgba(51,51,51,1.0);fill:none"/><text x="928" y="373" style="stroke-width:0;stroke:none;fill:rgba(51,51,51,1.0);font-size:12.8px;font-family:'Roboto Medium',sans-serif">2022-02-08</text><text x="481" y="395" style="stroke-width:0;stroke:none;fill:rgba(51,51,51,1.0);font-size:12.8px;font-family:'Roboto Medium',sans-serif">Datum</text><path  d="M 962 351
L 962 11" style="stroke-width:1;stroke:rgba(51,51,51,1.0);fill:none"/><path  d="M 962 351
L 967 351" style="stroke-width:1;stroke:rgba(51,51,51,1.0);fill:none"/><text x="972" y="357" style="stroke-width:0;stroke:none;fill:rgba(51,51,51,1.0);font-size:12.8px;font-family:'Roboto Medium',sans-serif">0.00</text><path  d="M 962 307
L 967 307" style="stroke-width:1;stroke:rgba(51,51,51,1.0);fill:none"/><text x="972" y="313" style="stroke-width:0;stroke:none;fill:rgba(51,51,51,1.0);font-size:12.8px;font-family:'Roboto Medium',sans-serif">380.00</text><path  d="M 962 266
L 967 266" style="stroke-width:1;stroke:rgba(51,51,51,1.0);fill:none"/><text x="972" y="272" style="stroke-width:0;stroke:none;fill:rgba(51,51,51,1.0);font-size:12.8px;font-family:'Roboto Medium',sans-serif">750.00</text><path  d="M 962 222
L 967 222" style="stroke-width:1;stroke:rgba(51,51,51,1.0);fill:none"/><text x="972" y="228" style="stroke-width:0;stroke:none;fill:rgba(51,51,51,1.0);font-size:12.8px;font-family:'Roboto Medium',sans-serif">1130.00</text><path  d="M 962 181
L 967 181" style="stroke-width:1;stroke:rgba(51,51,51,1.0);fill:none"/><text x="972" y="187" style="stroke-width:0;stroke:none;fill:rgba(51,51,51,1.0);font-size:12.8px;font-family:'Roboto Medium',sans-serif">1500.00</text><path  d="M 962 137
L 967 137" style="stroke-width:1;stroke:rgba(51,51,51,1.0);fill:none"/><text x="972" y="143" style="stroke-width:0;stroke:none;fill:rgba(51,51,51,1.0);font-size:12.8px;font-family:'Roboto Medium',sans-serif">1880.00</text><path  d="M 962 96
L 967 96" style="stroke-width:1;stroke:rgba(51,51,51,1.0);fill:none"/><text x="972" y="102" style="stroke-width:0;stroke:none;fill:rgba(51,51,51,1.0);font-size:12.8px;font-family:'Roboto Medium',sans-serif">2250.00</text><path  d="M 962 52
L 967 52" style="stroke-width:1;stroke:rgba(51,51,51,1.0);fill:none"/><text x="972" y="58" style="stroke-width:0;stroke:none;fill:rgba(51,51,51,1.0);font-size:12.8px;font-family:'Roboto Medium',sans-serif">2630.00</text><path  d="M 962 11
L 967 11" style="stroke-width:1;stroke:rgba(51,51,51,1.0);fill:none"/><text x="972" y="17" style="stroke-width:0;stroke:none;fill:rgba(51,51,51,1.0);font-size:12.8px;font-family:'Roboto Medium',sans-serif">3000.00</text><path  d="M 38 351
L 40 351
L 41 351
L 42 351
L 44 351
L 45 351
L 46 351
L 48 351
L 49 351
L 50 351
L 51 351
L 53 350
L 54 350
L 55 350
L 57 350
L 58 350
L 59 350
L 61 350
L 62 350
L 63 349
L 64 349
L 66 349
L 67 348
L 68 348
L 70 347
L 71 347
L 72 347
L 73 347
L 75 346
L 76 346
L 77 346
L 79 347
L 80 346
L 81 346
L 83 347
L 84 347
L 85 348
L 86 348
L 88 348
L 89 349
L 90 349
L 92 349
L 93 349
L 94 350
L 95 350
L 97 350
L 98 350
L 99 350
L 101 350
L 102 350
L 103 350
L 105 350
L 106 350
L 107 350
L 108 351
L 110 351
L 111 350
L 112 350
L 114 350
L 115 350
L 116 350
L 117 350
L 119 350
L 120 350
L 121 350
L 123 350
L 124 350
L 125 350
L 127 351
L 128 351
L 129 351
L 130 351
L 132 351
L 133 351
L 134 351
L 136 351
L 137 351
L 138 351
L 139 351
L 141 351
L 142 351
L 143 351
L 145 351
L 146 351
L 147 351
L 149 351
L 150 351
L 151 351
L 152 351
L 154 351
L 155 351
L 156 351
L 158 351
L 159 351
L 160 351
L 161 351
L 163 351
L 164 351
L 165 351
L 167 351
L 168 351
L 169 351
L 171 351
L 172 351
L 173 351
L 174 351
L 176 351
L 177 351
L 178 351
L 180 351
L 181 351
L 182 351
L 183 351
L 185 351
L 186 351
L 187 351
L 189 351
L 190 351
L 191 351
L 193 351
L 194 351
L 195 351
L 196 350
L 198 350
L 199 350
L 200 350
L 202 350
L 203 350
L 204 350
L 205 350
L 207 351
L 208 350
L 209 350
L 211 350
L 212 350
L 213 350
L 215 350
L 216 350
L 217 350
L 218 350
L 220 350
L 221 350
L 222 350
L 224 350
L 225 350
L 226 351
L 228 351
L 229 351
L 230 351
L 231 351
L 233 351
L 234 351
L 235 351
L 237 351
L 238 351
L 239 351
L 240 351
L 242 351
L 243 351
L 244 350
L 246 350
L 247 350
L 248 350
L 250 350
L 251 350
L 252 350
L 253 350
L 255 350
L 256 351
L 257 351
L 259 351
L 260 351
L 261 351
L 262 351
L 264 350
L 265 350
L 266 350
L 268 350
L 269 350
L 270 350
L 272 350
L 273 350
L 274 350
L 275 350
L 277 350
L 278 350
L 279 350
L 281 350
L 282 350
L 283 350
L 284 350
L 286 350
L 287 350
L 288 349
L 290 349
L 291 349
L 292 349
L 294 349
L 295 349
L 296 349
L 297 349
L 299 349
L 300 350
L 301 349
L 303 349
L 304 350
L 305 350
L 306 350
L 308 350
L 309 349
L 310 348
L 312 347
L 313 345
L 314 344
L 316 344
L 317 344
L 318 344
L 319 344
L 321 345
L 322 347
L 323 348
L 325 348
L 326 348
L 327 347
L 328 346
L 330 345
L 331 343
L 332 341
L 334 339
L 335 337
L 336 337
L 338 336
L 339 334
L 340 332
L 341 330
L 343 327
L 344 323
L 345 321
L 347 318
L 348 319
L 349 312
L 350 312
L 352 313
L 353 311
L 354 304
L 356 299
L 357 292
L 358 291
L 360 282
L 361 272
L 362 273
L 363 259
L 365 256
L 366 249
L 367 240
L 369 239
L 370 235
L 371 229
L 372 232
L 374 239
L 375 244
L 376 251
L 378 255
L 379 264
L 380 266
L 382 280
L 383 270
L 384 270
L 385 265
L 387 263
L 388 269
L 389 270
L 391 274
L 392 282
L 393 280
L 394 291
L 396 290
L 397 289
L 398 288
L 400 282
L 401 289
L 402 296
L 404 293
L 405 299
L 406 301
L 407 306
L 409 306
L 410 304
L 411 298
L 413 301
L 414 294
L 415 292
L 417 292
L 418 292
L 419 291
L 420 298
L 422 300
L 423 310
L 424 315
L 426 315
L 427 320
L 428 321
L 429 322
L 431 325
L 432 324
L 433 324
L 435 326
L 436 323
L 437 322
L 439 322
L 440 324
L 441 324
L 442 324
L 444 324
L 445 325
L 446 330
L 448 328
L 449 323
L 450 325
L 451 325
L 453 328
L 454 328
L 455 326
L 457 329
L 458 333
L 459 335
L 461 336
L 462 337
L 463 339
L 464 339
L 466 339
L 467 340
L 468 339
L 470 338
L 471 338
L 472 339
L 473 339
L 475 339
L 476 338
L 477 338
L 479 339
L 480 339
L 481 340
L 483 340
L 484 341
L 485 342
L 486 344
L 488 343
L 489 343
L 490 342
L 492 342
L 493 342
L 494 341
L 495 339
L 497 338
L 498 338
L 499 337
L 501 336
L 502 335
L 503 335
L 505 334
L 506 332
L 507 331
L 508 330
L 510 330
L 511 328
L 512 328
L 514 329
L 515 331
L 516 329
L 517 329
L 519 330
L 520 330
L 521 330
L 523 332
L 524 332
L 525 334
L 527 336
L 528 337
L 529 338
L 530 338
L 532 337
L 533 338
L 534 339
L 536 339
L 537 339
L 538 340
L 539 339
L 541 340
L 542 339
L 543 340
L 545 339
L 546 337
L 547 334
L 549 334
L 550 332
L 551 331
L 552 330
L 554 330
L 555 332
L 556 334
L 558 336
L 559 336
L 560 333
L 561 334
L 563 331
L 564 330
L 565 327
L 567 323
L 568 320
L 569 323
L 571 319
L 572 320
L 573 319
L 574 320
L 576 323
L 577 325
L 578 324
L 580 324
L 581 325
L 582 323
L 583 324
L 585 323
L 586 322
L 587 322
L 589 323
L 590 324
L 591 327
L 593 328
L 594 330
L 595 333
L 596 336
L 598 339
L 599 339
L 600 340
L 602 340
L 603 341
L 604 342
L 606 341
L 607 342
L 608 343
L 609 343
L 611 345
L 612 345
L 613 345
L 615 347
L 616 346
L 617 347
L 618 348
L 620 348
L 621 348
L 622 348
L 624 348
L 625 349
L 626 350
L 628 349
L 629 349
L 630 349
L 631 349
L 633 349
L 634 348
L 635 348
L 637 348
L 638 348
L 639 349
L 640 349
L 642 349
L 643 350
L 644 350
L 646 349
L 647 349
L 648 349
L 650 349
L 651 350
L 652 350
L 653 350
L 655 350
L 656 351
L 657 351
L 659 351
L 660 351
L 661 351
L 662 351
L 664 351
L 665 351
L 666 350
L 668 350
L 669 350
L 670 350
L 672 350
L 673 350
L 674 350
L 675 351
L 677 351
L 678 351
L 679 351
L 681 351
L 682 351
L 683 351
L 684 350
L 686 350
L 687 350
L 688 350
L 690 350
L 691 350
L 692 350
L 694 350
L 695 350
L 696 350
L 697 350
L 699 350
L 700 350
L 701 350
L 703 350
L 704 350
L 705 350
L 706 350
L 708 349
L 709 350
L 710 349
L 712 349
L 713 349
L 714 348
L 716 348
L 717 348
L 718 348
L 719 349
L 721 349
L 722 349
L 723 350
L 725 349
L 726 349
L 727 349
L 728 348
L 730 348
L 731 347
L 732 347
L 734 346
L 735 344
L 736 343
L 738 343
L 739 343
L 740 343
L 741 344
L 743 344
L 744 345
L 745 343
L 747 341
L 748 339
L 749 338
L 750 337
L 752 336
L 753 335
L 754 338
L 756 337
L 757 337
L 758 337
L 760 338
L 761 336
L 762 338
L 763 336
L 765 338
L 766 338
L 767 336
L 769 336
L 770 336
L 771 334
L 772 334
L 774 332
L 775 332
L 776 334
L 778 332
L 779 333
L 780 332
L 782 332
L 783 331
L 784 329
L 785 326
L 787 324
L 788 322
L 789 324
L 791 323
L 792 323
L 793 325
L 795 327
L 796 329
L 797 330
L 798 328
L 800 328
L 801 329
L 802 329
L 804 329
L 805 330
L 806 331
L 807 331
L 809 330
L 810 330
L 811 329
L 813 328
L 814 327
L 815 326
L 817 324
L 818 323
L 819 323
L 820 321
L 822 317
L 823 314
L 824 309
L 826 308
L 827 305
L 828 294
L 829 295
L 831 288
L 832 282
L 833 277
L 835 269
L 836 260
L 837 247
L 839 230
L 840 216
L 841 209
L 842 192
L 844 174
L 845 160
L 846 159
L 848 129
L 849 141
L 850 101
L 851 95
L 853 80
L 854 72
L 855 67
L 857 89
L 858 71
L 859 97
L 861 113
L 862 126
L 863 142
L 864 154
L 866 166
L 867 184
L 868 198
L 870 202
L 871 218
L 872 228
L 873 237
L 875 248
L 876 254
L 877 266
L 879 275
L 880 285
L 881 291
L 883 300
L 884 301
L 885 303
L 886 305
L 888 306
L 889 308
L 890 314
L 892 314
L 893 319
L 894 323
L 895 325
L 897 328
L 898 332
L 899 331
L 901 333
L 902 334
L 903 335
L 905 336
L 906 337
L 907 339
L 908 340
L 910 340
L 911 339
L 912 340
L 914 339
L 915 339
L 916 336
L 917 334
L 919 332
L 920 332
L 921 329
L 923 327
L 924 322
L 925 319
L 927 313
L 928 306
L 929 298
L 930 291
L 932 286
L 933 282
L 934 275
L 936 271
L 937 256
L 938 249
L 939 246
L 941 229
L 942 219
L 943 192
L 945 178
L 946 167
L 947 152
L 949 135
L 950 131
L 951 121
L 952 114
L 954 91
L 955 77
L 956 72
L 958 70
L 959 52
L 960 20
L 961 11" style="stroke-width:1;stroke:rgba(0,116,217,1.0);fill:none"/><path  d="M 38 351
L 40 351
L 41 351
L 42 351
L 44 351
L 45 351
L 46 351
L 48 351
L 49 351
L 50 351
L 51 351
L 53 350
L 54 351
L 55 351
L 57 350
L 58 351
L 59 350
L 61 350
L 62 351
L 63 350
L 64 351
L 66 351
L 67 350
L 68 350
L 70 350
L 71 350
L 72 350
L 73 350
L 75 350
L 76 350
L 77 350
L 79 351
L 80 350
L 81 350
L 83 351
L 84 350
L 85 350
L 86 350
L 88 351
L 89 351
L 90 350
L 92 351
L 93 350
L 94 351
L 95 351
L 97 350
L 98 351
L 99 350
L 101 351
L 102 351
L 103 351
L 105 351
L 106 351
L 107 351
L 108 351
L 110 351
L 111 350
L 112 351
L 114 351
L 115 351
L 116 351
L 117 350
L 119 351
L 120 351
L 121 351
L 123 351
L 124 351
L 125 351
L 127 351
L 128 351
L 129 351
L 130 351
L 132 351
L 133 351
L 134 351
L 136 351
L 137 351
L 138 351
L 139 351
L 141 351
L 142 351
L 143 351
L 145 351
L 146 351
L 147 351
L 149 351
L 150 351
L 151 351
L 152 351
L 154 351
L 155 351
L 156 351
L 158 351
L 159 351
L 160 351
L 161 351
L 163 351
L 164 351
L 165 351
L 167 351
L 168 351
L 169 351
L 171 351
L 172 351
L 173 351
L 174 351
L 176 351
L 177 351
L 178 351
L 180 351
L 181 351
L 182 351
L 183 351
L 185 351
L 186 351
L 187 351
L 189 351
L 190 351
L 191 351
L 193 351
L 194 351
L 195 351
L 196 350
L 198 350
L 199 351
L 200 351
L 202 351
L 203 351
L 204 351
L 205 351
L 207 351
L 208 350
L 209 351
L 211 351
L 212 350
L 213 350
L 215 351
L 216 351
L 217 350
L 218 351
L 220 351
L 221 351
L 222 351
L 224 351
L 225 351
L 226 351
L 228 351
L 229 351
L 230 351
L 231 351
L 233 351
L 234 351
L 235 351
L 237 351
L 238 351
L 239 351
L 240 351
L 242 351
L 243 351
L 244 350
L 246 351
L 247 350
L 248 351
L 250 351
L 251 351
L 252 351
L 253 351
L 255 351
L 256 351
L 257 351
L 259 351
L 260 351
L 261 351
L 262 351
L 264 350
L 265 351
L 266 351
L 268 350
L 269 350
L 270 351
L 272 350
L 273 351
L 274 351
L 275 351
L 277 351
L 278 351
L 279 351
L 281 350
L 282 350
L 283 351
L 284 351
L 286 351
L 287 350
L 288 350
L 290 351
L 291 350
L 292 351
L 294 351
L 295 350
L 296 351
L 297 350
L 299 351
L 300 350
L 301 350
L 303 351
L 304 351
L 305 351
L 306 350
L 308 350
L 309 350
L 310 350
L 312 350
L 313 349
L 314 350
L 316 350
L 317 350
L 318 350
L 319 350
L 321 350
L 322 350
L 323 351
L 325 350
L 326 350
L 327 350
L 328 349
L 330 350
L 331 349
L 332 349
L 334 349
L 335 349
L 336 350
L 338 349
L 339 348
L 340 348
L 341 348
L 343 347
L 344 347
L 345 348
L 347 347
L 348 349
L 349 344
L 350 348
L 352 348
L 353 346
L 354 344
L 356 345
L 357 344
L 358 344
L 360 343
L 361 342
L 362 347
L 363 336
L 365 343
L 366 341
L 367 339
L 369 342
L 370 339
L 371 343
L 372 338
L 374 346
L 375 344
L 376 343
L 378 345
L 379 344
L 380 344
L 382 347
L 383 340
L 384 344
L 385 340
L 387 344
L 388 347
L 389 345
L 391 349
L 392 345
L 393 343
L 394 346
L 396 343
L 397 347
L 398 344
L 400 345
L 401 349
L 402 347
L 404 344
L 405 347
L 406 348
L 407 347
L 409 346
L 410 348
L 411 344
L 413 346
L 414 343
L 415 346
L 417 347
L 418 346
L 419 347
L 420 348
L 422 347
L 423 349
L 424 349
L 426 347
L 427 349
L 428 348
L 429 348
L 431 349
L 432 349
L 433 349
L 435 348
L 436 347
L 437 347
L 439 349
L 440 350
L 441 348
L 442 349
L 444 347
L 445 348
L 446 350
L 448 348
L 449 347
L 450 349
L 451 350
L 453 349
L 454 348
L 455 349
L 457 349
L 458 349
L 459 350
L 461 351
L 462 349
L 463 349
L 464 350
L 466 349
L 467 350
L 468 349
L 470 350
L 471 349
L 472 349
L 473 350
L 475 349
L 476 349
L 477 349
L 479 350
L 480 350
L 481 350
L 483 350
L 484 349
L 485 350
L 486 350
L 488 350
L 489 350
L 490 349
L 492 350
L 493 350
L 494 349
L 495 349
L 497 349
L 498 349
L 499 349
L 501 349
L 502 349
L 503 349
L 505 349
L 506 348
L 507 349
L 508 349
L 510 349
L 511 349
L 512 349
L 514 349
L 515 349
L 516 348
L 517 348
L 519 349
L 520 349
L 521 349
L 523 350
L 524 349
L 525 349
L 527 349
L 528 350
L 529 349
L 530 350
L 532 350
L 533 350
L 534 349
L 536 350
L 537 350
L 538 350
L 539 349
L 541 350
L 542 350
L 543 349
L 545 349
L 546 348
L 547 348
L 549 349
L 550 349
L 551 349
L 552 349
L 554 349
L 555 349
L 556 349
L 558 350
L 559 349
L 560 348
L 561 349
L 563 348
L 564 349
L 565 348
L 567 347
L 568 347
L 569 349
L 571 347
L 572 348
L 573 349
L 574 348
L 576 349
L 577 348
L 578 349
L 580 348
L 581 348
L 582 348
L 583 349
L 585 348
L 586 348
L 587 349
L 589 348
L 590 349
L 591 349
L 593 349
L 594 349
L 595 350
L 596 351
L 598 350
L 599 349
L 600 349
L 602 350
L 603 350
L 604 350
L 606 350
L 607 350
L 608 350
L 609 350
L 611 350
L 612 350
L 613 350
L 615 351
L 616 350
L 617 350
L 618 350
L 620 350
L 621 350
L 622 350
L 624 351
L 625 351
L 626 351
L 628 350
L 629 351
L 630 350
L 631 351
L 633 350
L 634 350
L 635 350
L 637 351
L 638 350
L 639 351
L 640 351
L 642 350
L 643 351
L 644 350
L 646 350
L 647 350
L 648 351
L 650 351
L 651 351
L 652 351
L 653 351
L 655 351
L 656 351
L 657 351
L 659 351
L 660 351
L 661 351
L 662 351
L 664 351
L 665 351
L 666 350
L 668 351
L 669 351
L 670 351
L 672 351
L 673 351
L 674 351
L 675 351
L 677 351
L 678 351
L 679 351
L 681 351
L 682 351
L 683 351
L 684 350
L 686 351
L 687 350
L 688 351
L 690 351
L 691 350
L 692 351
L 694 350
L 695 351
L 696 351
L 697 351
L 699 351
L 700 350
L 701 351
L 703 351
L 704 350
L 705 351
L 706 350
L 708 350
L 709 350
L 710 350
L 712 350
L 713 350
L 714 350
L 716 351
L 717 350
L 718 351
L 719 351
L 721 350
L 722 350
L 723 350
L 725 350
L 726 350
L 727 350
L 728 350
L 730 350
L 731 350
L 732 350
L 734 350
L 735 349
L 736 350
L 738 350
L 739 350
L 740 350
L 741 350
L 743 350
L 744 350
L 745 349
L 747 349
L 748 349
L 749 349
L 750 349
L 752 350
L 753 349
L 754 350
L 756 348
L 757 349
L 758 350
L 760 350
L 761 349
L 762 350
L 763 349
L 765 350
L 766 349
L 767 349
L 769 350
L 770 349
L 771 349
L 772 349
L 774 348
L 775 349
L 776 349
L 778 349
L 779 350
L 780 348
L 782 349
L 783 348
L 784 348
L 785 348
L 787 348
L 788 348
L 789 349
L 791 349
L 792 348
L 793 349
L 795 349
L 796 349
L 797 349
L 798 348
L 800 349
L 801 349
L 802 349
L 804 349
L 805 349
L 806 349
L 807 348
L 809 348
L 810 348
L 811 348
L 813 349
L 814 349
L 815 349
L 817 347
L 818 348
L 819 348
L 820 347
L 822 347
L 823 347
L 824 346
L 826 346
L 827 346
L 828 342
L 829 348
L 831 342
L 832 344
L 833 344
L 835 341
L 836 341
L 837 334
L 839 338
L 840 335
L 841 340
L 842 334
L 844 331
L 845 333
L 846 333
L 848 320
L 849 342
L 850 317
L 851 330
L 853 323
L 854 329
L 855 331
L 857 333
L 858 331
L 859 332
L 861 340
L 862 330
L 863 337
L 864 337
L 866 340
L 867 342
L 868 340
L 870 342
L 871 339
L 872 343
L 873 343
L 875 346
L 876 345
L 877 347
L 879 347
L 880 345
L 881 346
L 883 348
L 884 346
L 885 347
L 886 348
L 888 348
L 889 346
L 890 349
L 892 348
L 893 349
L 894 349
L 895 349
L 897 349
L 898 349
L 899 349
L 901 349
L 902 349
L 903 350
L 905 350
L 906 350
L 907 350
L 908 349
L 910 349
L 911 349
L 912 350
L 914 349
L 915 350
L 916 349
L 917 348
L 919 348
L 920 349
L 921 348
L 923 348
L 924 347
L 925 347
L 927 345
L 928 344
L 929 344
L 930 344
L 932 344
L 933 345
L 934 342
L 936 342
L 937 336
L 938 340
L 939 343
L 941 335
L 942 340
L 943 327
L 945 334
L 946 330
L 947 331
L 949 333
L 950 333
L 951 334
L 952 323
L 954 321
L 955 322
L 956 329
L 958 332
L 959 322
L 960 316
L 961 317" style="stroke-width:1;stroke:rgba(0,217,101,1.0);fill:none"/><path  d="M 38 351
L 40 351
L 41 351
L 42 351
L 44 351
L 45 351
L 46 351
L 48 351
L 49 351
L 50 351
L 51 351
L 53 351
L 54 351
L 55 351
L 57 351
L 58 351
L 59 351
L 61 351
L 62 351
L 63 351
L 64 351
L 66 351
L 67 351
L 68 351
L 70 351
L 71 351
L 72 351
L 73 351
L 75 351
L 76 351
L 77 351
L 79 351
L 80 351
L 81 351
L 83 351
L 84 351
L 85 351
L 86 351
L 88 351
L 89 351
L 90 351
L 92 351
L 93 351
L 94 351
L 95 351
L 97 351
L 98 350
L 99 351
L 101 351
L 102 351
L 103 351
L 105 351
L 106 351
L 107 351
L 108 351
L 110 351
L 111 351
L 112 351
L 114 351
L 115 351
L 116 351
L 117 351
L 119 351
L 120 351
L 121 351
L 123 351
L 124 351
L 125 351
L 127 351
L 128 351
L 129 351
L 130 351
L 132 351
L 133 351
L 134 351
L 136 351
L 137 351
L 138 351
L 139 351
L 141 351
L 142 351
L 143 351
L 145 351
L 146 351
L 147 351
L 149 351
L 150 351
L 151 351
L 152 351
L 154 351
L 155 351
L 156 351
L 158 351
L 159 351
L 160 351
L 161 351
L 163 351
L 164 351
L 165 351
L 167 351
L 168 351
L 169 351
L 171 351
L 172 351
L 173 351
L 174 351
L 176 351
L 177 351
L 178 351
L 180 351
L 181 351
L 182 351
L 183 351
L 185 351
L 186 351
L 187 351
L 189 351
L 190 351
L 191 351
L 193 351
L 194 351
L 195 351
L 196 351
L 198 351
L 199 351
L 200 351
L 202 351
L 203 351
L 204 351
L 205 351
L 207 351
L 208 351
L 209 351
L 211 351
L 212 351
L 213 351
L 215 351
L 216 351
L 217 351
L 218 351
L 220 351
L 221 351
L 222 351
L 224 351
L 225 351
L 226 351
L 228 351
L 229 351
L 230 351
L 231 351
L 233 351
L 234 351
L 235 351
L 237 351
L 238 351
L 239 351
L 240 351
L 242 351
L 243 351
L 244 351
L 246 351
L 247 351
L 248 351
L 250 351
L 251 351
L 252 351
L 253 351
L 255 351
L 256 351
L 257 351
L 259 351
L 260 351
L 261 351
L 262 351
L 264 351
L 265 351
L 266 351
L 268 351
L 269 351
L 270 351
L 272 351
L 273 351
L 274 351
L 275 351
L 277 351
L 278 351
L 279 351
L 281 351
L 282 351
L 283 351
L 284 351
L 286 351
L 287 351
L 288 351
L 290 351
L 291 351
L 292 351
L 294 351
L 295 351
L 296 351
L 297 351
L 299 351
L 300 351
L 301 351
L 303 351
L 304 351
L 305 351
L 306 351
L 308 351
L 309 351
L 310 351
L 312 351
L 313 351
L 314 351
L 316 351
L 317 351
L 318 351
L 319 351
L 321 351
L 322 351
L 323 351
L 325 351
L 326 351
L 327 351
L 328 351
L 330 351
L 331 351
L 332 351
L 334 351
L 335 351
L 336 351
L 338 351
L 339 351
L 340 351
L 341 351
L 343 351
L 344 351
L 345 351
L 347 351
L 348 351
L 349 351
L 350 351
L 352 351
L 353 351
L 354 351
L 356 351
L 357 350
L 358 350
L 360 351
L 361 351
L 362 351
L 363 350
L 365 350
L 366 351
L 367 351
L 369 351
L 370 351
L 371 351
L 372 351
L 374 350
L 375 351
L 376 351
L 378 351
L 379 351
L 380 351
L 382 350
L 383 350
L 384 350
L 385 350
L 387 350
L 388 350
L 389 351
L 391 351
L 392 351
L 393 351
L 394 350
L 396 350
L 397 350
L 398 351
L 400 350
L 401 350
L 402 350
L 404 350
L 405 350
L 406 350
L 407 351
L 409 351
L 410 350
L 411 350
L 413 350
L 414 350
L 415 350
L 417 350
L 418 350
L 419 350
L 420 350
L 422 351
L 423 351
L 424 351
L 426 350
L 427 350
L 428 350
L 429 350
L 431 350
L 432 350
L 433 351
L 435 350
L 436 350
L 437 350
L 439 351
L 440 351
L 441 351
L 442 351
L 444 351
L 445 350
L 446 351
L 448 351
L 449 351
L 450 351
L 451 351
L 453 351
L 454 351
L 455 350
L 457 351
L 458 351
L 459 351
L 461 351
L 462 351
L 463 351
L 464 351
L 466 351
L 467 351
L 468 351
L 470 351
L 471 351
L 472 351
L 473 351
L 475 351
L 476 351
L 477 351
L 479 351
L 480 351
L 481 351
L 483 351
L 484 351
L 485 351
L 486 350
L 488 351
L 489 351
L 490 351
L 492 351
L 493 351
L 494 351
L 495 351
L 497 351
L 498 351
L 499 351
L 501 350
L 502 351
L 503 351
L 505 351
L 506 351
L 507 351
L 508 351
L 510 351
L 511 351
L 512 351
L 514 351
L 515 351
L 516 351
L 517 351
L 519 351
L 520 351
L 521 351
L 523 351
L 524 351
L 525 351
L 527 351
L 528 351
L 529 350
L 530 351
L 532 351
L 533 351
L 534 351
L 536 351
L 537 351
L 538 350
L 539 350
L 541 351
L 542 351
L 543 351
L 545 351
L 546 351
L 547 351
L 549 351
L 550 351
L 551 351
L 552 351
L 554 351
L 555 351
L 556 351
L 558 350
L 559 351
L 560 350
L 561 351
L 563 351
L 564 351
L 565 350
L 567 351
L 568 351
L 569 351
L 571 351
L 572 351
L 573 351
L 574 351
L 576 351
L 577 351
L 578 351
L 580 351
L 581 351
L 582 350
L 583 351
L 585 351
L 586 351
L 587 351
L 589 351
L 590 351
L 591 351
L 593 351
L 594 351
L 595 351
L 596 351
L 598 351
L 599 351
L 600 351
L 602 351
L 603 351
L 604 351
L 606 351
L 607 351
L 608 351
L 609 351
L 611 351
L 612 351
L 613 351
L 615 351
L 616 351
L 617 351
L 618 351
L 620 351
L 621 350
L 622 351
L 624 351
L 625 351
L 626 351
L 628 351
L 629 351
L 630 351
L 631 351
L 633 351
L 634 351
L 635 351
L 637 351
L 638 351
L 639 351
L 640 351
L 642 351
L 643 351
L 644 350
L 646 351
L 647 351
L 648 351
L 650 351
L 651 351
L 652 351
L 653 351
L 655 351
L 656 351
L 657 351
L 659 351
L 660 351
L 661 351
L 662 351
L 664 351
L 665 351
L 666 351
L 668 351
L 669 351
L 670 351
L 672 351
L 673 351
L 674 351
L 675 351
L 677 351
L 678 351
L 679 351
L 681 351
L 682 351
L 683 351
L 684 351
L 686 351
L 687 351
L 688 351
L 690 351
L 691 351
L 692 351
L 694 351
L 695 351
L 696 351
L 697 351
L 699 351
L 700 351
L 701 351
L 703 351
L 704 351
L 705 351
L 706 351
L 708 351
L 709 351
L 710 351
L 712 351
L 713 351
L 714 351
L 716 351
L 717 351
L 718 351
L 719 351
L 721 351
L 722 351
L 723 351
L 725 351
L 726 351
L 727 351
L 728 351
L 730 351
L 731 351
L 732 351
L 734 351
L 735 351
L 736 351
L 738 351
L 739 351
L 740 351
L 741 351
L 743 351
L 744 351
L 745 351
L 747 351
L 748 351
L 749 351
L 750 351
L 752 351
L 753 351
L 754 351
L 756 351
L 757 351
L 758 351
L 760 351
L 761 351
L 762 351
L 763 351
L 765 351
L 766 351
L 767 351
L 769 351
L 770 351
L 771 351
L 772 351
L 774 351
L 775 351
L 776 350
L 778 351
L 779 351
L 780 351
L 782 351
L 783 351
L 784 351
L 785 351
L 787 351
L 788 351
L 789 350
L 791 351
L 792 351
L 793 351
L 795 351
L 796 351
L 797 351
L 798 351
L 800 351
L 801 350
L 802 351
L 804 351
L 805 351
L 806 351
L 807 351
L 809 351
L 810 351
L 811 351
L 813 351
L 814 351
L 815 351
L 817 351
L 818 351
L 819 351
L 820 351
L 822 351
L 823 351
L 824 351
L 826 351
L 827 351
L 828 351
L 829 351
L 831 351
L 832 351
L 833 351
L 835 351
L 836 350
L 837 351
L 839 351
L 840 351
L 841 351
L 842 351
L 844 351
L 845 351
L 846 351
L 848 351
L 849 350
L 850 351
L 851 351
L 853 350
L 854 351
L 855 350
L 857 350
L 858 350
L 859 350
L 861 351
L 862 350
L 863 350
L 864 350
L 866 351
L 867 350
L 868 351
L 870 350
L 871 350
L 872 351
L 873 350
L 875 350
L 876 351
L 877 351
L 879 351
L 880 351
L 881 350
L 883 350
L 884 350
L 885 351
L 886 350
L 888 351
L 889 351
L 890 351
L 892 351
L 893 351
L 894 351
L 895 350
L 897 350
L 898 351
L 899 351
L 901 351
L 902 351
L 903 351
L 905 351
L 906 351
L 907 351
L 908 351
L 910 351
L 911 351
L 912 351
L 914 351
L 915 351
L 916 351
L 917 351
L 919 351
L 920 351
L 921 351
L 923 351
L 924 351
L 925 351
L 927 350
L 928 351
L 929 351
L 930 351
L 932 351
L 933 351
L 934 351
L 936 350
L 937 351
L 938 351
L 939 351
L 941 351
L 942 351
L 943 351
L 945 351
L 946 351
L 947 351
L 949 351
L 950 351
L 951 351
L 952 351
L 954 351
L 955 351
L 956 351
L 958 351
L 959 351
L 960 351
L 961 351" style="stroke-width:1;stroke:rgba(217,0,116,1.0);fill:none"/><text x="398" y="33" style="stroke-width:0;stroke:none;fill:rgba(51,51,51,1.0);font-size:23.0px;font-family:'Roboto Medium',sans-serif">Schärding 08.02.2022</text><path  d="M 38 11
L 251 11
L 251 91
L 38 91
L 38 11" style="stroke-width:1;stroke:rgba(51,51,51,1.0);fill:rgba(255,255,255,1.0)"/><text x="43" y="26" style="stroke-width:0;stroke:none;fill:rgba(51,51,51,1.0);font-size:10.2px;font-family:'Roboto Medium',sans-serif">Sieben Tage Durschnitt Inzidenz Fälle</text><path  d="M 221 21
L 241 21" style="stroke-width:1;stroke:rgba(0,116,217,1.0);fill:none"/><text x="43" y="56" style="stroke-width:0;stroke:none;fill:rgba(51,51,51,1.0);font-size:10.2px;font-family:'Roboto Medium',sans-serif">Anzahl Faelle</text><path  d="M 110 51
L 241 51" style="stroke-width:1;stroke:rgba(0,217,101,1.0);fill:none"/><text x="43" y="86" style="stroke-width:0;stroke:none;fill:rgba(51,51,51,1.0);font-size:10.2px;font-family:'Roboto Medium',sans-serif">Anzahl Tot</text><path  d="M 98 81
L 241 81" style="stroke-width:1;stroke:rgba(217,0,116,1.0);fill:none"/></svg>