<svg xmlns="http://www.w3.org/2000/svg" xmlns:xlink="http://www.w3.org/1999/xlink" width="1024" height="400">\n<path  d="M 0 0
L 1024 0
L 1024 400
L 0 400
L 0 0" style="stroke-width:0;stroke:rgba(255,255,255,1.0);fill:rgba(255,255,255,1.0)"/><path  d="M 38 11
L 961 11
L 961 351
L 38 351
L 38 11" style="stroke-width:0;stroke:rgba(255,255,255,1.0);fill:rgba(255,255,255,1.0)"/><path  d="M 38 351
L 961 351" style="stroke-width:1;stroke:rgba(51,51,51,1.0);fill:none"/><path  d="M 38 351
L 38 356" style="stroke-width:1;stroke:rgba(51,51,51,1.0);fill:none"/><text x="5" y="373" style="stroke-width:0;stroke:none;fill:rgba(51,51,51,1.0);font-size:12.8px;font-family:'Roboto Medium',sans-serif">2020-02-26</text><path  d="M 154 351
L 154 356" style="stroke-width:1;stroke:rgba(51,51,51,1.0);fill:none"/><text x="121" y="373" style="stroke-width:0;stroke:none;fill:rgba(51,51,51,1.0);font-size:12.8px;font-family:'Roboto Medium',sans-serif">2020-05-29</text><path  d="M 269 351
L 269 356" style="stroke-width:1;stroke:rgba(51,51,51,1.0);fill:none"/><text x="236" y="373" style="stroke-width:0;stroke:none;fill:rgba(51,51,51,1.0);font-size:12.8px;font-family:'Roboto Medium',sans-serif">2020-08-30</text><path  d="M 385 351
L 385 356" style="stroke-width:1;stroke:rgba(51,51,51,1.0);fill:none"/><text x="352" y="373" style="stroke-width:0;stroke:none;fill:rgba(51,51,51,1.0);font-size:12.8px;font-family:'Roboto Medium',sans-serif">2020-12-01</text><path  d="M 500 351
L 500 356" style="stroke-width:1;stroke:rgba(51,51,51,1.0);fill:none"/><text x="467" y="373" style="stroke-width:0;stroke:none;fill:rgba(51,51,51,1.0);font-size:12.8px;font-family:'Roboto Medium',sans-serif">2021-03-04</text><path  d="M 615 351
L 615 356" style="stroke-width:1;stroke:rgba(51,51,51,1.0);fill:none"/><text x="582" y="373" style="stroke-width:0;stroke:none;fill:rgba(51,51,51,1.0);font-size:12.8px;font-family:'Roboto Medium',sans-serif">2021-06-05</text><path  d="M 731 351
L 731 356" style="stroke-width:1;stroke:rgba(51,51,51,1.0);fill:none"/><text x="698" y="373" style="stroke-width:0;stroke:none;fill:rgba(51,51,51,1.0);font-size:12.8px;font-family:'Roboto Medium',sans-serif">2021-09-06</text><path  d="M 846 351
L 846 356" style="stroke-width:1;stroke:rgba(51,51,51,1.0);fill:none"/><text x="813" y="373" style="stroke-width:0;stroke:none;fill:rgba(51,51,51,1.0);font-size:12.8px;font-family:'Roboto Medium',sans-serif">2021-12-08</text><path  d="M 961 351
L 961 356" style="stroke-width:1;stroke:rgba(51,51,51,1.0);fill:none"/><text x="928" y="373" style="stroke-width:0;stroke:none;fill:rgba(51,51,51,1.0);font-size:12.8px;font-family:'Roboto Medium',sans-serif">2022-03-11</text><text x="481" y="395" style="stroke-width:0;stroke:none;fill:rgba(51,51,51,1.0);font-size:12.8px;font-family:'Roboto Medium',sans-serif">Datum</text><path  d="M 962 351
L 962 11" style="stroke-width:1;stroke:rgba(51,51,51,1.0);fill:none"/><path  d="M 962 351
L 967 351" style="stroke-width:1;stroke:rgba(51,51,51,1.0);fill:none"/><text x="972" y="357" style="stroke-width:0;stroke:none;fill:rgba(51,51,51,1.0);font-size:12.8px;font-family:'Roboto Medium',sans-serif">0.00</text><path  d="M 962 307
L 967 307" style="stroke-width:1;stroke:rgba(51,51,51,1.0);fill:none"/><text x="972" y="313" style="stroke-width:0;stroke:none;fill:rgba(51,51,51,1.0);font-size:12.8px;font-family:'Roboto Medium',sans-serif">420.00</text><path  d="M 962 265
L 967 265" style="stroke-width:1;stroke:rgba(51,51,51,1.0);fill:none"/><text x="972" y="271" style="stroke-width:0;stroke:none;fill:rgba(51,51,51,1.0);font-size:12.8px;font-family:'Roboto Medium',sans-serif">830.00</text><path  d="M 962 223
L 967 223" style="stroke-width:1;stroke:rgba(51,51,51,1.0);fill:none"/><text x="972" y="229" style="stroke-width:0;stroke:none;fill:rgba(51,51,51,1.0);font-size:12.8px;font-family:'Roboto Medium',sans-serif">1240.00</text><path  d="M 962 181
L 967 181" style="stroke-width:1;stroke:rgba(51,51,51,1.0);fill:none"/><text x="972" y="187" style="stroke-width:0;stroke:none;fill:rgba(51,51,51,1.0);font-size:12.8px;font-family:'Roboto Medium',sans-serif">1650.00</text><path  d="M 962 137
L 967 137" style="stroke-width:1;stroke:rgba(51,51,51,1.0);fill:none"/><text x="972" y="143" style="stroke-width:0;stroke:none;fill:rgba(51,51,51,1.0);font-size:12.8px;font-family:'Roboto Medium',sans-serif">2070.00</text><path  d="M 962 95
L 967 95" style="stroke-width:1;stroke:rgba(51,51,51,1.0);fill:none"/><text x="972" y="101" style="stroke-width:0;stroke:none;fill:rgba(51,51,51,1.0);font-size:12.8px;font-family:'Roboto Medium',sans-serif">2480.00</text><path  d="M 962 53
L 967 53" style="stroke-width:1;stroke:rgba(51,51,51,1.0);fill:none"/><text x="972" y="59" style="stroke-width:0;stroke:none;fill:rgba(51,51,51,1.0);font-size:12.8px;font-family:'Roboto Medium',sans-serif">2890.00</text><path  d="M 962 11
L 967 11" style="stroke-width:1;stroke:rgba(51,51,51,1.0);fill:none"/><text x="972" y="17" style="stroke-width:0;stroke:none;fill:rgba(51,51,51,1.0);font-size:12.8px;font-family:'Roboto Medium',sans-serif">3300.00</text><path  d="M 38 351
L 40 351
L 41 351
L 42 351
L 43 351
L 45 351
L 46 351
L 47 351
L 48 351
L 50 351
L 51 351
L 52 351
L 53 351
L 55 351
L 56 350
L 57 350
L 58 350
L 60 350
L 61 350
L 62 350
L 63 350
L 65 350
L 66 349
L 67 349
L 68 349
L 70 349
L 71 349
L 72 349
L 73 350
L 74 349
L 76 349
L 77 349
L 78 349
L 79 349
L 81 348
L 82 348
L 83 348
L 84 348
L 86 348
L 87 349
L 88 349
L 89 350
L 91 350
L 92 350
L 93 350
L 94 350
L 96 350
L 97 350
L 98 350
L 99 350
L 101 350
L 102 350
L 103 351
L 104 351
L 105 350
L 107 350
L 108 350
L 109 350
L 110 350
L 112 350
L 113 350
L 114 351
L 115 351
L 117 351
L 118 351
L 119 351
L 120 351
L 122 351
L 123 351
L 124 351
L 125 351
L 127 351
L 128 351
L 129 351
L 130 351
L 132 350
L 133 350
L 134 350
L 135 350
L 137 350
L 138 350
L 139 350
L 140 351
L 141 351
L 143 351
L 144 351
L 145 351
L 146 351
L 148 351
L 149 351
L 150 351
L 151 351
L 153 351
L 154 351
L 155 351
L 156 351
L 158 351
L 159 351
L 160 351
L 161 351
L 163 351
L 164 351
L 165 351
L 166 351
L 168 351
L 169 351
L 170 351
L 171 351
L 172 351
L 174 351
L 175 351
L 176 351
L 177 351
L 179 351
L 180 351
L 181 351
L 182 351
L 184 351
L 185 350
L 186 350
L 187 350
L 189 350
L 190 350
L 191 350
L 192 350
L 194 350
L 195 350
L 196 350
L 197 350
L 199 350
L 200 350
L 201 350
L 202 350
L 203 350
L 205 350
L 206 351
L 207 351
L 208 351
L 210 351
L 211 351
L 212 351
L 213 351
L 215 351
L 216 351
L 217 351
L 218 351
L 220 351
L 221 351
L 222 351
L 223 351
L 225 350
L 226 350
L 227 350
L 228 350
L 230 350
L 231 350
L 232 350
L 233 350
L 235 350
L 236 350
L 237 351
L 238 350
L 239 350
L 241 350
L 242 350
L 243 350
L 244 350
L 246 350
L 247 350
L 248 350
L 249 349
L 251 349
L 252 349
L 253 349
L 254 350
L 256 350
L 257 350
L 258 350
L 259 350
L 261 350
L 262 350
L 263 350
L 264 350
L 266 350
L 267 350
L 268 350
L 269 351
L 270 351
L 272 351
L 273 351
L 274 351
L 275 351
L 277 351
L 278 351
L 279 351
L 280 351
L 282 351
L 283 351
L 284 351
L 285 350
L 287 350
L 288 350
L 289 350
L 290 350
L 292 350
L 293 350
L 294 350
L 295 350
L 297 350
L 298 350
L 299 350
L 300 350
L 302 350
L 303 350
L 304 350
L 305 350
L 306 350
L 308 350
L 309 350
L 310 350
L 311 350
L 313 350
L 314 350
L 315 350
L 316 350
L 318 350
L 319 349
L 320 349
L 321 349
L 323 349
L 324 348
L 325 348
L 326 348
L 328 348
L 329 348
L 330 348
L 331 348
L 333 348
L 334 348
L 335 348
L 336 348
L 337 347
L 339 347
L 340 347
L 341 345
L 342 344
L 344 343
L 345 342
L 346 341
L 347 340
L 349 340
L 350 339
L 351 339
L 352 336
L 354 334
L 355 335
L 356 334
L 357 332
L 359 328
L 360 324
L 361 316
L 362 314
L 364 308
L 365 308
L 366 305
L 367 309
L 368 307
L 370 312
L 371 312
L 372 313
L 373 311
L 375 312
L 376 307
L 377 312
L 378 300
L 380 298
L 381 294
L 382 298
L 383 300
L 385 303
L 386 304
L 387 318
L 388 323
L 390 332
L 391 330
L 392 330
L 393 330
L 395 331
L 396 334
L 397 335
L 398 334
L 400 330
L 401 329
L 402 329
L 403 327
L 404 327
L 406 327
L 407 329
L 408 333
L 409 336
L 411 337
L 412 334
L 413 333
L 414 333
L 416 331
L 417 331
L 418 329
L 419 328
L 421 329
L 422 326
L 423 326
L 424 323
L 426 322
L 427 321
L 428 318
L 429 317
L 431 319
L 432 316
L 433 318
L 434 316
L 435 316
L 437 314
L 438 315
L 439 314
L 440 315
L 442 313
L 443 315
L 444 317
L 445 322
L 447 318
L 448 318
L 449 317
L 450 317
L 452 317
L 453 314
L 454 313
L 455 319
L 457 319
L 458 319
L 459 320
L 460 321
L 462 324
L 463 323
L 464 322
L 465 324
L 467 326
L 468 325
L 469 327
L 470 329
L 471 330
L 473 331
L 474 331
L 475 331
L 476 332
L 478 330
L 479 326
L 480 326
L 481 327
L 483 325
L 484 325
L 485 326
L 486 328
L 488 328
L 489 328
L 490 328
L 491 330
L 493 329
L 494 330
L 495 329
L 496 330
L 498 329
L 499 328
L 500 328
L 501 329
L 502 328
L 504 330
L 505 330
L 506 331
L 507 332
L 509 330
L 510 328
L 511 327
L 512 325
L 514 326
L 515 328
L 516 323
L 517 323
L 519 320
L 520 318
L 521 317
L 522 315
L 524 310
L 525 313
L 526 317
L 527 321
L 529 322
L 530 320
L 531 321
L 532 325
L 533 327
L 535 324
L 536 323
L 537 321
L 538 323
L 540 323
L 541 321
L 542 320
L 543 315
L 545 314
L 546 318
L 547 317
L 548 316
L 550 315
L 551 316
L 552 320
L 553 324
L 555 323
L 556 326
L 557 326
L 558 326
L 560 326
L 561 328
L 562 327
L 563 327
L 565 326
L 566 327
L 567 327
L 568 325
L 569 324
L 571 325
L 572 324
L 573 325
L 574 324
L 576 325
L 577 326
L 578 328
L 579 329
L 581 331
L 582 332
L 583 334
L 584 337
L 586 338
L 587 339
L 588 340
L 589 342
L 591 341
L 592 342
L 593 343
L 594 344
L 596 345
L 597 345
L 598 346
L 599 346
L 600 346
L 602 346
L 603 347
L 604 347
L 605 347
L 607 347
L 608 348
L 609 348
L 610 347
L 612 347
L 613 348
L 614 348
L 615 348
L 617 347
L 618 347
L 619 348
L 620 348
L 622 348
L 623 348
L 624 348
L 625 349
L 627 349
L 628 350
L 629 350
L 630 350
L 632 350
L 633 350
L 634 350
L 635 350
L 636 350
L 638 350
L 639 351
L 640 350
L 641 350
L 643 350
L 644 350
L 645 350
L 646 350
L 648 350
L 649 350
L 650 350
L 651 350
L 653 350
L 654 350
L 655 350
L 656 350
L 658 350
L 659 350
L 660 350
L 661 350
L 663 350
L 664 350
L 665 349
L 666 349
L 667 349
L 669 349
L 670 349
L 671 349
L 672 349
L 674 349
L 675 349
L 676 349
L 677 348
L 679 348
L 680 348
L 681 348
L 682 347
L 684 347
L 685 346
L 686 346
L 687 345
L 689 345
L 690 345
L 691 345
L 692 345
L 694 345
L 695 346
L 696 346
L 697 345
L 698 346
L 700 346
L 701 345
L 702 344
L 703 344
L 705 344
L 706 344
L 707 344
L 708 343
L 710 343
L 711 343
L 712 342
L 713 342
L 715 342
L 716 342
L 717 341
L 718 341
L 720 342
L 721 343
L 722 343
L 723 342
L 725 342
L 726 342
L 727 342
L 728 342
L 730 341
L 731 339
L 732 337
L 733 335
L 734 334
L 736 331
L 737 328
L 738 328
L 739 329
L 741 329
L 742 328
L 743 329
L 744 330
L 746 333
L 747 334
L 748 335
L 749 335
L 751 336
L 752 336
L 753 335
L 754 333
L 756 331
L 757 329
L 758 330
L 759 327
L 761 327
L 762 328
L 763 329
L 764 330
L 765 331
L 767 330
L 768 331
L 769 333
L 770 333
L 772 334
L 773 334
L 774 334
L 775 335
L 777 335
L 778 336
L 779 334
L 780 333
L 782 335
L 783 333
L 784 333
L 785 330
L 787 327
L 788 327
L 789 323
L 790 322
L 792 320
L 793 315
L 794 316
L 795 314
L 797 311
L 798 309
L 799 308
L 800 305
L 801 306
L 803 302
L 804 297
L 805 293
L 806 289
L 808 282
L 809 278
L 810 271
L 811 255
L 813 246
L 814 235
L 815 237
L 816 236
L 818 229
L 819 219
L 820 209
L 821 186
L 823 185
L 824 162
L 825 168
L 826 170
L 828 175
L 829 171
L 830 183
L 831 173
L 832 179
L 834 175
L 835 177
L 836 172
L 837 195
L 839 210
L 840 234
L 841 248
L 842 252
L 844 261
L 845 274
L 846 280
L 847 294
L 849 295
L 850 303
L 851 304
L 852 306
L 854 312
L 855 315
L 856 315
L 857 318
L 859 318
L 860 320
L 861 321
L 862 322
L 863 322
L 865 322
L 866 325
L 867 327
L 868 330
L 870 332
L 871 330
L 872 335
L 873 336
L 875 334
L 876 337
L 877 335
L 878 334
L 880 331
L 881 327
L 882 320
L 883 317
L 885 307
L 886 304
L 887 293
L 888 286
L 890 276
L 891 271
L 892 259
L 893 254
L 895 244
L 896 243
L 897 233
L 898 222
L 899 205
L 901 182
L 902 171
L 903 148
L 904 139
L 906 112
L 907 87
L 908 70
L 909 77
L 911 53
L 912 66
L 913 54
L 914 72
L 916 73
L 917 83
L 918 52
L 919 53
L 921 41
L 922 52
L 923 17
L 924 22
L 926 16
L 927 49
L 928 71
L 929 85
L 930 91
L 932 132
L 933 149
L 934 164
L 935 173
L 937 179
L 938 185
L 939 183
L 940 179
L 942 165
L 943 164
L 944 160
L 945 161
L 947 165
L 948 164
L 949 161
L 950 165
L 952 161
L 953 149
L 954 136
L 955 126
L 957 123
L 958 110
L 959 95
L 960 88
L 961 79" style="stroke-width:1;stroke:rgba(0,116,217,1.0);fill:none"/><path  d="M 38 351
L 40 351
L 41 351
L 42 351
L 43 351
L 45 351
L 46 351
L 47 351
L 48 351
L 50 351
L 51 351
L 52 351
L 53 351
L 55 351
L 56 350
L 57 351
L 58 351
L 60 351
L 61 351
L 62 351
L 63 350
L 65 350
L 66 350
L 67 351
L 68 350
L 70 351
L 71 351
L 72 350
L 73 351
L 74 350
L 76 350
L 77 350
L 78 350
L 79 350
L 81 350
L 82 350
L 83 350
L 84 350
L 86 350
L 87 351
L 88 351
L 89 351
L 91 350
L 92 350
L 93 351
L 94 350
L 96 351
L 97 351
L 98 351
L 99 351
L 101 351
L 102 351
L 103 351
L 104 351
L 105 350
L 107 351
L 108 351
L 109 351
L 110 351
L 112 351
L 113 351
L 114 351
L 115 351
L 117 351
L 118 351
L 119 351
L 120 351
L 122 351
L 123 351
L 124 351
L 125 351
L 127 351
L 128 351
L 129 351
L 130 351
L 132 350
L 133 351
L 134 351
L 135 351
L 137 351
L 138 351
L 139 351
L 140 351
L 141 351
L 143 351
L 144 351
L 145 351
L 146 351
L 148 351
L 149 351
L 150 351
L 151 351
L 153 351
L 154 351
L 155 351
L 156 351
L 158 351
L 159 351
L 160 351
L 161 351
L 163 351
L 164 351
L 165 351
L 166 351
L 168 351
L 169 351
L 170 351
L 171 351
L 172 351
L 174 351
L 175 351
L 176 351
L 177 351
L 179 351
L 180 351
L 181 351
L 182 351
L 184 351
L 185 350
L 186 351
L 187 350
L 189 350
L 190 351
L 191 351
L 192 351
L 194 351
L 195 351
L 196 351
L 197 350
L 199 351
L 200 351
L 201 351
L 202 351
L 203 351
L 205 351
L 206 351
L 207 351
L 208 351
L 210 351
L 211 351
L 212 351
L 213 351
L 215 351
L 216 351
L 217 351
L 218 351
L 220 351
L 221 351
L 222 351
L 223 351
L 225 350
L 226 351
L 227 350
L 228 350
L 230 351
L 231 351
L 232 351
L 233 351
L 235 351
L 236 351
L 237 351
L 238 350
L 239 351
L 241 351
L 242 351
L 243 351
L 244 351
L 246 350
L 247 351
L 248 350
L 249 350
L 251 351
L 252 351
L 253 351
L 254 351
L 256 351
L 257 350
L 258 350
L 259 350
L 261 350
L 262 351
L 263 351
L 264 351
L 266 351
L 267 351
L 268 351
L 269 351
L 270 351
L 272 351
L 273 351
L 274 351
L 275 351
L 277 351
L 278 351
L 279 351
L 280 351
L 282 351
L 283 351
L 284 351
L 285 350
L 287 350
L 288 351
L 289 351
L 290 350
L 292 350
L 293 350
L 294 351
L 295 351
L 297 350
L 298 350
L 299 350
L 300 350
L 302 351
L 303 351
L 304 351
L 305 350
L 306 350
L 308 351
L 309 350
L 310 350
L 311 351
L 313 351
L 314 351
L 315 351
L 316 350
L 318 350
L 319 350
L 320 351
L 321 351
L 323 350
L 324 350
L 325 350
L 326 350
L 328 350
L 329 350
L 330 350
L 331 350
L 333 350
L 334 350
L 335 350
L 336 350
L 337 350
L 339 350
L 340 350
L 341 350
L 342 349
L 344 349
L 345 349
L 346 349
L 347 350
L 349 350
L 350 349
L 351 349
L 352 347
L 354 348
L 355 349
L 356 349
L 357 349
L 359 346
L 360 346
L 361 341
L 362 346
L 364 345
L 365 349
L 366 346
L 367 349
L 368 344
L 370 345
L 371 347
L 372 346
L 373 347
L 375 348
L 376 345
L 377 348
L 378 336
L 380 345
L 381 342
L 382 350
L 383 349
L 385 348
L 386 348
L 387 346
L 388 348
L 390 349
L 391 349
L 392 349
L 393 348
L 395 349
L 396 349
L 397 349
L 398 349
L 400 346
L 401 347
L 402 348
L 403 348
L 404 349
L 406 349
L 407 350
L 408 349
L 409 350
L 411 348
L 412 346
L 413 348
L 414 349
L 416 349
L 417 349
L 418 349
L 419 348
L 421 347
L 422 346
L 423 349
L 424 347
L 426 348
L 427 347
L 428 346
L 429 346
L 431 348
L 432 346
L 433 348
L 434 347
L 435 347
L 437 344
L 438 347
L 439 346
L 440 348
L 442 346
L 443 349
L 444 348
L 445 348
L 447 343
L 448 347
L 449 346
L 450 347
L 452 348
L 453 346
L 454 348
L 455 348
L 457 346
L 458 347
L 459 348
L 460 349
L 462 348
L 463 347
L 464 347
L 465 348
L 467 348
L 468 347
L 469 350
L 470 350
L 471 348
L 473 348
L 474 348
L 475 348
L 476 348
L 478 349
L 479 347
L 480 348
L 481 348
L 483 347
L 484 348
L 485 349
L 486 350
L 488 347
L 489 348
L 490 348
L 491 348
L 493 347
L 494 350
L 495 349
L 496 348
L 498 347
L 499 348
L 500 348
L 501 348
L 502 349
L 504 350
L 505 348
L 506 348
L 507 348
L 509 346
L 510 347
L 511 348
L 512 349
L 514 348
L 515 350
L 516 345
L 517 346
L 519 345
L 520 347
L 521 348
L 522 346
L 524 346
L 525 347
L 526 349
L 527 347
L 529 348
L 530 346
L 531 348
L 532 349
L 533 348
L 535 347
L 536 347
L 537 346
L 538 348
L 540 348
L 541 347
L 542 348
L 543 344
L 545 346
L 546 349
L 547 347
L 548 348
L 550 346
L 551 348
L 552 347
L 553 348
L 555 348
L 556 349
L 557 348
L 558 346
L 560 349
L 561 348
L 562 347
L 563 348
L 565 348
L 566 348
L 567 347
L 568 347
L 569 347
L 571 348
L 572 347
L 573 349
L 574 348
L 576 347
L 577 348
L 578 349
L 579 349
L 581 349
L 582 350
L 583 350
L 584 349
L 586 349
L 587 349
L 588 350
L 589 349
L 591 350
L 592 350
L 593 350
L 594 350
L 596 350
L 597 350
L 598 350
L 599 350
L 600 350
L 602 350
L 603 350
L 604 350
L 605 350
L 607 350
L 608 350
L 609 350
L 610 350
L 612 350
L 613 350
L 614 350
L 615 350
L 617 350
L 618 350
L 619 350
L 620 350
L 622 351
L 623 350
L 624 351
L 625 350
L 627 351
L 628 351
L 629 350
L 630 350
L 632 351
L 633 351
L 634 351
L 635 351
L 636 351
L 638 351
L 639 351
L 640 350
L 641 351
L 643 351
L 644 351
L 645 350
L 646 351
L 648 351
L 649 351
L 650 351
L 651 351
L 653 351
L 654 350
L 655 351
L 656 351
L 658 350
L 659 351
L 660 351
L 661 351
L 663 351
L 664 350
L 665 350
L 666 350
L 667 351
L 669 351
L 670 350
L 671 350
L 672 350
L 674 350
L 675 350
L 676 351
L 677 350
L 679 350
L 680 350
L 681 350
L 682 350
L 684 350
L 685 350
L 686 350
L 687 350
L 689 350
L 690 350
L 691 350
L 692 350
L 694 350
L 695 350
L 696 350
L 697 350
L 698 350
L 700 350
L 701 349
L 702 350
L 703 350
L 705 350
L 706 350
L 707 350
L 708 350
L 710 349
L 711 349
L 712 349
L 713 350
L 715 350
L 716 350
L 717 349
L 718 350
L 720 350
L 721 350
L 722 350
L 723 349
L 725 350
L 726 349
L 727 349
L 728 350
L 730 349
L 731 348
L 732 348
L 733 349
L 734 348
L 736 347
L 737 348
L 738 348
L 739 349
L 741 348
L 742 348
L 743 349
L 744 348
L 746 349
L 747 350
L 748 350
L 749 348
L 751 349
L 752 348
L 753 348
L 754 348
L 756 348
L 757 348
L 758 349
L 759 348
L 761 348
L 762 349
L 763 349
L 764 349
L 765 349
L 767 347
L 768 349
L 769 349
L 770 349
L 772 350
L 773 349
L 774 349
L 775 348
L 777 349
L 778 349
L 779 348
L 780 349
L 782 349
L 783 348
L 784 348
L 785 346
L 787 347
L 788 348
L 789 346
L 790 349
L 792 346
L 793 345
L 794 346
L 795 346
L 797 345
L 798 345
L 799 348
L 800 344
L 801 346
L 803 344
L 804 342
L 805 342
L 806 341
L 808 342
L 809 341
L 810 340
L 811 332
L 813 335
L 814 334
L 815 343
L 816 342
L 818 336
L 819 333
L 820 324
L 821 318
L 823 333
L 824 325
L 825 346
L 826 337
L 828 337
L 829 321
L 830 327
L 831 326
L 832 330
L 834 343
L 835 338
L 836 333
L 837 338
L 839 339
L 840 343
L 841 340
L 842 346
L 844 345
L 845 343
L 846 343
L 847 349
L 849 345
L 850 347
L 851 346
L 852 347
L 854 348
L 855 346
L 856 349
L 857 347
L 859 346
L 860 348
L 861 348
L 862 348
L 863 346
L 865 348
L 866 350
L 867 348
L 868 350
L 870 349
L 871 347
L 872 349
L 873 349
L 875 349
L 876 350
L 877 348
L 878 349
L 880 345
L 881 346
L 882 343
L 883 346
L 885 343
L 886 346
L 887 340
L 888 340
L 890 339
L 891 340
L 892 338
L 893 339
L 895 338
L 896 340
L 897 331
L 898 331
L 899 327
L 901 320
L 902 331
L 903 321
L 904 333
L 906 310
L 907 312
L 908 314
L 909 325
L 911 313
L 912 331
L 913 324
L 914 324
L 916 313
L 917 321
L 918 302
L 919 314
L 921 322
L 922 332
L 923 298
L 924 317
L 926 316
L 927 327
L 928 331
L 929 332
L 930 336
L 932 329
L 933 331
L 934 327
L 935 334
L 937 335
L 938 337
L 939 334
L 940 325
L 942 321
L 943 327
L 944 330
L 945 336
L 947 340
L 948 334
L 949 323
L 950 324
L 952 323
L 953 321
L 954 327
L 955 332
L 957 332
L 958 313
L 959 312
L 960 318
L 961 315" style="stroke-width:1;stroke:rgba(0,217,101,1.0);fill:none"/><path  d="M 38 351
L 40 351
L 41 351
L 42 351
L 43 351
L 45 351
L 46 351
L 47 351
L 48 351
L 50 351
L 51 351
L 52 351
L 53 351
L 55 351
L 56 351
L 57 351
L 58 351
L 60 351
L 61 351
L 62 351
L 63 351
L 65 351
L 66 351
L 67 351
L 68 351
L 70 351
L 71 351
L 72 351
L 73 351
L 74 351
L 76 351
L 77 351
L 78 351
L 79 351
L 81 351
L 82 351
L 83 351
L 84 351
L 86 350
L 87 351
L 88 351
L 89 351
L 91 351
L 92 351
L 93 351
L 94 351
L 96 351
L 97 351
L 98 351
L 99 351
L 101 351
L 102 351
L 103 351
L 104 351
L 105 351
L 107 351
L 108 351
L 109 351
L 110 351
L 112 351
L 113 351
L 114 351
L 115 351
L 117 351
L 118 351
L 119 351
L 120 351
L 122 351
L 123 351
L 124 351
L 125 351
L 127 351
L 128 351
L 129 351
L 130 351
L 132 351
L 133 351
L 134 351
L 135 351
L 137 351
L 138 351
L 139 351
L 140 351
L 141 351
L 143 351
L 144 351
L 145 351
L 146 351
L 148 351
L 149 351
L 150 351
L 151 351
L 153 351
L 154 351
L 155 351
L 156 351
L 158 351
L 159 351
L 160 351
L 161 351
L 163 351
L 164 351
L 165 351
L 166 351
L 168 351
L 169 351
L 170 351
L 171 351
L 172 351
L 174 351
L 175 351
L 176 351
L 177 351
L 179 351
L 180 351
L 181 351
L 182 351
L 184 351
L 185 351
L 186 351
L 187 351
L 189 351
L 190 351
L 191 351
L 192 351
L 194 351
L 195 351
L 196 351
L 197 351
L 199 351
L 200 351
L 201 351
L 202 351
L 203 351
L 205 351
L 206 351
L 207 351
L 208 351
L 210 351
L 211 351
L 212 351
L 213 351
L 215 351
L 216 351
L 217 351
L 218 351
L 220 351
L 221 351
L 222 351
L 223 351
L 225 351
L 226 351
L 227 351
L 228 351
L 230 351
L 231 351
L 232 351
L 233 351
L 235 351
L 236 351
L 237 351
L 238 351
L 239 351
L 241 351
L 242 351
L 243 351
L 244 351
L 246 351
L 247 351
L 248 351
L 249 351
L 251 351
L 252 351
L 253 351
L 254 351
L 256 351
L 257 351
L 258 351
L 259 351
L 261 351
L 262 351
L 263 351
L 264 351
L 266 351
L 267 351
L 268 351
L 269 351
L 270 351
L 272 351
L 273 351
L 274 351
L 275 351
L 277 351
L 278 351
L 279 351
L 280 351
L 282 351
L 283 351
L 284 351
L 285 351
L 287 351
L 288 351
L 289 351
L 290 351
L 292 351
L 293 351
L 294 351
L 295 351
L 297 351
L 298 351
L 299 351
L 300 351
L 302 351
L 303 351
L 304 351
L 305 351
L 306 351
L 308 351
L 309 351
L 310 351
L 311 351
L 313 351
L 314 351
L 315 351
L 316 351
L 318 351
L 319 351
L 320 351
L 321 351
L 323 351
L 324 351
L 325 351
L 326 351
L 328 351
L 329 351
L 330 351
L 331 351
L 333 351
L 334 351
L 335 351
L 336 351
L 337 351
L 339 351
L 340 351
L 341 351
L 342 351
L 344 351
L 345 350
L 346 351
L 347 351
L 349 351
L 350 351
L 351 351
L 352 350
L 354 351
L 355 351
L 356 351
L 357 351
L 359 351
L 360 350
L 361 351
L 362 351
L 364 351
L 365 350
L 366 351
L 367 351
L 368 350
L 370 351
L 371 350
L 372 351
L 373 351
L 375 351
L 376 351
L 377 350
L 378 350
L 380 351
L 381 350
L 382 350
L 383 350
L 385 350
L 386 350
L 387 350
L 388 351
L 390 350
L 391 350
L 392 351
L 393 350
L 395 351
L 396 351
L 397 351
L 398 351
L 400 351
L 401 351
L 402 351
L 403 350
L 404 351
L 406 351
L 407 350
L 408 351
L 409 351
L 411 351
L 412 351
L 413 351
L 414 351
L 416 350
L 417 351
L 418 350
L 419 351
L 421 350
L 422 351
L 423 351
L 424 350
L 426 351
L 427 350
L 428 350
L 429 351
L 431 350
L 432 350
L 433 350
L 434 351
L 435 350
L 437 350
L 438 350
L 439 350
L 440 350
L 442 350
L 443 351
L 444 350
L 445 350
L 447 350
L 448 350
L 449 351
L 450 350
L 452 351
L 453 351
L 454 350
L 455 351
L 457 350
L 458 350
L 459 350
L 460 350
L 462 350
L 463 350
L 464 350
L 465 350
L 467 350
L 468 350
L 469 350
L 470 350
L 471 350
L 473 351
L 474 350
L 475 351
L 476 351
L 478 350
L 479 351
L 480 351
L 481 350
L 483 351
L 484 351
L 485 351
L 486 351
L 488 351
L 489 351
L 490 351
L 491 351
L 493 351
L 494 351
L 495 350
L 496 350
L 498 351
L 499 351
L 500 350
L 501 350
L 502 350
L 504 351
L 505 351
L 506 351
L 507 351
L 509 351
L 510 351
L 511 351
L 512 351
L 514 351
L 515 351
L 516 351
L 517 350
L 519 350
L 520 351
L 521 350
L 522 351
L 524 351
L 525 350
L 526 351
L 527 351
L 529 351
L 530 350
L 531 350
L 532 351
L 533 351
L 535 351
L 536 350
L 537 351
L 538 350
L 540 351
L 541 351
L 542 351
L 543 351
L 545 351
L 546 351
L 547 351
L 548 350
L 550 350
L 551 351
L 552 351
L 553 351
L 555 350
L 556 351
L 557 351
L 558 351
L 560 351
L 561 351
L 562 351
L 563 351
L 565 351
L 566 350
L 567 350
L 568 351
L 569 351
L 571 350
L 572 351
L 573 351
L 574 351
L 576 350
L 577 351
L 578 350
L 579 351
L 581 351
L 582 351
L 583 351
L 584 351
L 586 351
L 587 351
L 588 351
L 589 350
L 591 351
L 592 351
L 593 351
L 594 351
L 596 351
L 597 351
L 598 351
L 599 351
L 600 351
L 602 351
L 603 351
L 604 351
L 605 351
L 607 351
L 608 351
L 609 351
L 610 351
L 612 351
L 613 351
L 614 351
L 615 351
L 617 351
L 618 351
L 619 351
L 620 351
L 622 351
L 623 351
L 624 351
L 625 351
L 627 351
L 628 351
L 629 351
L 630 351
L 632 351
L 633 351
L 634 351
L 635 351
L 636 351
L 638 351
L 639 351
L 640 351
L 641 351
L 643 351
L 644 351
L 645 351
L 646 351
L 648 351
L 649 351
L 650 351
L 651 351
L 653 351
L 654 351
L 655 351
L 656 351
L 658 351
L 659 351
L 660 351
L 661 351
L 663 351
L 664 351
L 665 351
L 666 351
L 667 351
L 669 351
L 670 351
L 671 351
L 672 351
L 674 351
L 675 351
L 676 351
L 677 351
L 679 351
L 680 351
L 681 351
L 682 351
L 684 351
L 685 351
L 686 351
L 687 351
L 689 351
L 690 351
L 691 351
L 692 351
L 694 351
L 695 351
L 696 351
L 697 351
L 698 351
L 700 351
L 701 351
L 702 351
L 703 351
L 705 351
L 706 351
L 707 351
L 708 351
L 710 351
L 711 351
L 712 351
L 713 351
L 715 351
L 716 351
L 717 351
L 718 351
L 720 351
L 721 351
L 722 351
L 723 351
L 725 351
L 726 351
L 727 351
L 728 351
L 730 351
L 731 351
L 732 351
L 733 351
L 734 351
L 736 351
L 737 351
L 738 351
L 739 351
L 741 351
L 742 351
L 743 351
L 744 351
L 746 351
L 747 351
L 748 351
L 749 351
L 751 351
L 752 351
L 753 351
L 754 351
L 756 351
L 757 351
L 758 351
L 759 351
L 761 350
L 762 351
L 763 351
L 764 351
L 765 350
L 767 351
L 768 351
L 769 351
L 770 351
L 772 351
L 773 351
L 774 351
L 775 351
L 777 351
L 778 350
L 779 351
L 780 351
L 782 351
L 783 351
L 784 351
L 785 351
L 787 351
L 788 351
L 789 351
L 790 351
L 792 351
L 793 350
L 794 351
L 795 351
L 797 351
L 798 351
L 799 350
L 800 351
L 801 351
L 803 351
L 804 350
L 805 351
L 806 351
L 808 351
L 809 351
L 810 350
L 811 351
L 813 350
L 814 350
L 815 351
L 816 351
L 818 351
L 819 351
L 820 351
L 821 350
L 823 351
L 824 351
L 825 351
L 826 351
L 828 351
L 829 350
L 830 350
L 831 350
L 832 350
L 834 350
L 835 350
L 836 350
L 837 350
L 839 350
L 840 350
L 841 350
L 842 350
L 844 351
L 845 351
L 846 351
L 847 350
L 849 350
L 850 351
L 851 351
L 852 350
L 854 350
L 855 350
L 856 350
L 857 351
L 859 351
L 860 350
L 861 350
L 862 351
L 863 351
L 865 351
L 866 351
L 867 351
L 868 351
L 870 351
L 871 351
L 872 350
L 873 351
L 875 351
L 876 351
L 877 351
L 878 351
L 880 351
L 881 351
L 882 351
L 883 351
L 885 351
L 886 351
L 887 351
L 888 351
L 890 351
L 891 351
L 892 351
L 893 351
L 895 351
L 896 351
L 897 351
L 898 350
L 899 351
L 901 351
L 902 351
L 903 351
L 904 351
L 906 351
L 907 351
L 908 351
L 909 350
L 911 351
L 912 351
L 913 351
L 914 351
L 916 351
L 917 351
L 918 351
L 919 351
L 921 351
L 922 351
L 923 350
L 924 351
L 926 351
L 927 350
L 928 351
L 929 350
L 930 350
L 932 351
L 933 351
L 934 351
L 935 351
L 937 351
L 938 351
L 939 351
L 940 351
L 942 351
L 943 351
L 944 350
L 945 350
L 947 351
L 948 351
L 949 351
L 950 350
L 952 351
L 953 351
L 954 351
L 955 350
L 957 350
L 958 351
L 959 351
L 960 351
L 961 351" style="stroke-width:1;stroke:rgba(217,0,116,1.0);fill:none"/><text x="355" y="33" style="stroke-width:0;stroke:none;fill:rgba(51,51,51,1.0);font-size:23.0px;font-family:'Roboto Medium',sans-serif">Spittal an der Drau 11.03.2022</text><path  d="M 38 11
L 251 11
L 251 91
L 38 91
L 38 11" style="stroke-width:1;stroke:rgba(51,51,51,1.0);fill:rgba(255,255,255,1.0)"/><text x="43" y="26" style="stroke-width:0;stroke:none;fill:rgba(51,51,51,1.0);font-size:10.2px;font-family:'Roboto Medium',sans-serif">Sieben Tage Durschnitt Inzidenz Fälle</text><path  d="M 221 21
L 241 21" style="stroke-width:1;stroke:rgba(0,116,217,1.0);fill:none"/><text x="43" y="56" style="stroke-width:0;stroke:none;fill:rgba(51,51,51,1.0);font-size:10.2px;font-family:'Roboto Medium',sans-serif">Anzahl Faelle</text><path  d="M 110 51
L 241 51" style="stroke-width:1;stroke:rgba(0,217,101,1.0);fill:none"/><text x="43" y="86" style="stroke-width:0;stroke:none;fill:rgba(51,51,51,1.0);font-size:10.2px;font-family:'Roboto Medium',sans-serif">Anzahl Tot</text><path  d="M 98 81
L 241 81" style="stroke-width:1;stroke:rgba(217,0,116,1.0);fill:none"/></svg>