<svg xmlns="http://www.w3.org/2000/svg" xmlns:xlink="http://www.w3.org/1999/xlink" width="1024" height="400">\n<path  d="M 0 0
L 1024 0
L 1024 400
L 0 400
L 0 0" style="stroke-width:0;stroke:rgba(255,255,255,1.0);fill:rgba(255,255,255,1.0)"/><path  d="M 38 11
L 969 11
L 969 351
L 38 351
L 38 11" style="stroke-width:0;stroke:rgba(255,255,255,1.0);fill:rgba(255,255,255,1.0)"/><path  d="M 38 351
L 969 351" style="stroke-width:1;stroke:rgba(51,51,51,1.0);fill:none"/><path  d="M 38 351
L 38 356" style="stroke-width:1;stroke:rgba(51,51,51,1.0);fill:none"/><text x="5" y="373" style="stroke-width:0;stroke:none;fill:rgba(51,51,51,1.0);font-size:12.8px;font-family:'Roboto Medium',sans-serif">2020-02-26</text><path  d="M 155 351
L 155 356" style="stroke-width:1;stroke:rgba(51,51,51,1.0);fill:none"/><text x="122" y="373" style="stroke-width:0;stroke:none;fill:rgba(51,51,51,1.0);font-size:12.8px;font-family:'Roboto Medium',sans-serif">2020-04-16</text><path  d="M 271 351
L 271 356" style="stroke-width:1;stroke:rgba(51,51,51,1.0);fill:none"/><text x="238" y="373" style="stroke-width:0;stroke:none;fill:rgba(51,51,51,1.0);font-size:12.8px;font-family:'Roboto Medium',sans-serif">2020-06-05</text><path  d="M 388 351
L 388 356" style="stroke-width:1;stroke:rgba(51,51,51,1.0);fill:none"/><text x="355" y="373" style="stroke-width:0;stroke:none;fill:rgba(51,51,51,1.0);font-size:12.8px;font-family:'Roboto Medium',sans-serif">2020-07-25</text><path  d="M 504 351
L 504 356" style="stroke-width:1;stroke:rgba(51,51,51,1.0);fill:none"/><text x="471" y="373" style="stroke-width:0;stroke:none;fill:rgba(51,51,51,1.0);font-size:12.8px;font-family:'Roboto Medium',sans-serif">2020-09-14</text><path  d="M 620 351
L 620 356" style="stroke-width:1;stroke:rgba(51,51,51,1.0);fill:none"/><text x="587" y="373" style="stroke-width:0;stroke:none;fill:rgba(51,51,51,1.0);font-size:12.8px;font-family:'Roboto Medium',sans-serif">2020-11-03</text><path  d="M 737 351
L 737 356" style="stroke-width:1;stroke:rgba(51,51,51,1.0);fill:none"/><text x="704" y="373" style="stroke-width:0;stroke:none;fill:rgba(51,51,51,1.0);font-size:12.8px;font-family:'Roboto Medium',sans-serif">2020-12-23</text><path  d="M 853 351
L 853 356" style="stroke-width:1;stroke:rgba(51,51,51,1.0);fill:none"/><text x="820" y="373" style="stroke-width:0;stroke:none;fill:rgba(51,51,51,1.0);font-size:12.8px;font-family:'Roboto Medium',sans-serif">2021-02-11</text><path  d="M 969 351
L 969 356" style="stroke-width:1;stroke:rgba(51,51,51,1.0);fill:none"/><text x="936" y="373" style="stroke-width:0;stroke:none;fill:rgba(51,51,51,1.0);font-size:12.8px;font-family:'Roboto Medium',sans-serif">2021-04-03</text><text x="485" y="395" style="stroke-width:0;stroke:none;fill:rgba(51,51,51,1.0);font-size:12.8px;font-family:'Roboto Medium',sans-serif">Datum</text><path  d="M 970 351
L 970 11" style="stroke-width:1;stroke:rgba(51,51,51,1.0);fill:none"/><path  d="M 970 351
L 975 351" style="stroke-width:1;stroke:rgba(51,51,51,1.0);fill:none"/><text x="980" y="357" style="stroke-width:0;stroke:none;fill:rgba(51,51,51,1.0);font-size:12.8px;font-family:'Roboto Medium',sans-serif">0.00</text><path  d="M 970 308
L 975 308" style="stroke-width:1;stroke:rgba(51,51,51,1.0);fill:none"/><text x="980" y="314" style="stroke-width:0;stroke:none;fill:rgba(51,51,51,1.0);font-size:12.8px;font-family:'Roboto Medium',sans-serif">70.00</text><path  d="M 970 266
L 975 266" style="stroke-width:1;stroke:rgba(51,51,51,1.0);fill:none"/><text x="980" y="272" style="stroke-width:0;stroke:none;fill:rgba(51,51,51,1.0);font-size:12.8px;font-family:'Roboto Medium',sans-serif">140.00</text><path  d="M 970 223
L 975 223" style="stroke-width:1;stroke:rgba(51,51,51,1.0);fill:none"/><text x="980" y="229" style="stroke-width:0;stroke:none;fill:rgba(51,51,51,1.0);font-size:12.8px;font-family:'Roboto Medium',sans-serif">210.00</text><path  d="M 970 181
L 975 181" style="stroke-width:1;stroke:rgba(51,51,51,1.0);fill:none"/><text x="980" y="187" style="stroke-width:0;stroke:none;fill:rgba(51,51,51,1.0);font-size:12.8px;font-family:'Roboto Medium',sans-serif">280.00</text><path  d="M 970 138
L 975 138" style="stroke-width:1;stroke:rgba(51,51,51,1.0);fill:none"/><text x="980" y="144" style="stroke-width:0;stroke:none;fill:rgba(51,51,51,1.0);font-size:12.8px;font-family:'Roboto Medium',sans-serif">350.00</text><path  d="M 970 96
L 975 96" style="stroke-width:1;stroke:rgba(51,51,51,1.0);fill:none"/><text x="980" y="102" style="stroke-width:0;stroke:none;fill:rgba(51,51,51,1.0);font-size:12.8px;font-family:'Roboto Medium',sans-serif">420.00</text><path  d="M 970 53
L 975 53" style="stroke-width:1;stroke:rgba(51,51,51,1.0);fill:none"/><text x="980" y="59" style="stroke-width:0;stroke:none;fill:rgba(51,51,51,1.0);font-size:12.8px;font-family:'Roboto Medium',sans-serif">490.00</text><path  d="M 970 11
L 975 11" style="stroke-width:1;stroke:rgba(51,51,51,1.0);fill:none"/><text x="980" y="17" style="stroke-width:0;stroke:none;fill:rgba(51,51,51,1.0);font-size:12.8px;font-family:'Roboto Medium',sans-serif">560.00</text><path  d="M 38 351
L 41 351
L 43 351
L 45 351
L 48 351
L 50 351
L 52 351
L 55 351
L 57 351
L 59 351
L 62 351
L 64 351
L 66 351
L 69 351
L 71 349
L 73 349
L 76 349
L 78 349
L 80 349
L 83 349
L 85 348
L 87 345
L 89 344
L 92 344
L 94 343
L 96 343
L 99 343
L 101 342
L 103 347
L 106 344
L 108 343
L 110 343
L 113 342
L 115 340
L 117 338
L 120 336
L 122 338
L 124 338
L 127 338
L 129 339
L 131 341
L 133 345
L 136 346
L 138 346
L 140 347
L 143 348
L 145 348
L 147 348
L 150 348
L 152 349
L 154 350
L 157 350
L 159 351
L 161 351
L 164 349
L 166 349
L 168 349
L 171 349
L 173 349
L 175 349
L 177 349
L 180 351
L 182 351
L 184 351
L 187 351
L 189 351
L 191 351
L 194 351
L 196 351
L 198 351
L 201 351
L 203 351
L 205 351
L 208 351
L 210 351
L 212 350
L 215 350
L 217 350
L 219 350
L 221 350
L 224 350
L 226 350
L 228 351
L 231 351
L 233 351
L 235 351
L 238 351
L 240 351
L 242 351
L 245 351
L 247 351
L 249 351
L 252 351
L 254 351
L 256 351
L 259 351
L 261 351
L 263 351
L 265 351
L 268 351
L 270 351
L 272 351
L 275 351
L 277 351
L 279 351
L 282 351
L 284 351
L 286 351
L 289 351
L 291 351
L 293 351
L 296 351
L 298 351
L 300 351
L 303 351
L 305 351
L 307 351
L 309 351
L 312 350
L 314 350
L 316 349
L 319 348
L 321 348
L 323 348
L 326 348
L 328 349
L 330 349
L 333 350
L 335 350
L 337 350
L 340 350
L 342 350
L 344 350
L 347 350
L 349 350
L 351 351
L 353 351
L 356 351
L 358 351
L 360 351
L 363 351
L 365 351
L 367 351
L 370 351
L 372 351
L 374 351
L 377 351
L 379 351
L 381 351
L 384 351
L 386 350
L 388 350
L 391 348
L 393 347
L 395 347
L 397 347
L 400 347
L 402 348
L 404 348
L 407 350
L 409 351
L 411 349
L 414 349
L 416 349
L 418 349
L 421 349
L 423 349
L 425 348
L 428 350
L 430 348
L 432 343
L 435 343
L 437 343
L 439 343
L 441 344
L 444 344
L 446 345
L 448 349
L 451 348
L 453 347
L 455 347
L 458 347
L 460 347
L 462 348
L 465 349
L 467 350
L 469 351
L 472 351
L 474 351
L 476 351
L 479 351
L 481 351
L 483 351
L 485 351
L 488 351
L 490 351
L 492 351
L 495 351
L 497 351
L 499 350
L 502 349
L 504 349
L 506 349
L 509 346
L 511 346
L 513 345
L 516 346
L 518 346
L 520 346
L 523 345
L 525 346
L 527 346
L 529 347
L 532 347
L 534 347
L 536 347
L 539 346
L 541 346
L 543 346
L 546 346
L 548 346
L 550 345
L 553 346
L 555 348
L 557 346
L 560 345
L 562 342
L 564 342
L 567 343
L 569 340
L 571 335
L 573 336
L 576 337
L 578 338
L 580 334
L 583 332
L 585 334
L 587 338
L 590 338
L 592 333
L 594 334
L 597 332
L 599 331
L 601 328
L 604 322
L 606 316
L 608 308
L 611 301
L 613 294
L 615 290
L 617 288
L 620 284
L 622 282
L 624 268
L 627 256
L 629 260
L 631 254
L 634 245
L 636 222
L 638 194
L 641 147
L 643 138
L 645 104
L 648 102
L 650 86
L 652 105
L 655 94
L 657 126
L 659 126
L 661 130
L 664 118
L 666 126
L 668 98
L 671 126
L 673 54
L 675 42
L 678 16
L 680 40
L 682 51
L 685 72
L 687 74
L 689 159
L 692 186
L 694 239
L 696 230
L 699 227
L 701 230
L 703 234
L 705 254
L 708 255
L 710 250
L 712 230
L 715 219
L 717 218
L 719 211
L 722 210
L 724 214
L 726 223
L 729 247
L 731 266
L 733 269
L 736 252
L 738 244
L 740 242
L 743 235
L 745 231
L 747 222
L 749 217
L 752 225
L 754 210
L 756 208
L 759 190
L 761 185
L 763 173
L 766 159
L 768 150
L 770 163
L 773 145
L 775 156
L 777 146
L 780 147
L 782 135
L 784 142
L 787 133
L 789 144
L 791 131
L 793 144
L 796 153
L 798 183
L 800 160
L 803 165
L 805 154
L 807 158
L 810 155
L 812 143
L 814 138
L 817 170
L 819 166
L 821 173
L 824 180
L 826 186
L 828 196
L 831 195
L 833 186
L 835 199
L 837 204
L 840 195
L 842 202
L 844 216
L 847 219
L 849 231
L 851 230
L 854 227
L 856 238
L 858 227
L 861 206
L 863 206
L 865 208
L 868 200
L 870 202
L 872 207
L 875 220
L 877 218
L 879 218
L 881 219
L 884 228
L 886 224
L 888 232
L 891 222
L 893 229
L 895 222
L 898 216
L 900 217
L 902 223
L 905 221
L 907 230
L 909 230
L 912 238
L 914 242
L 916 226
L 919 216
L 921 209
L 923 199
L 925 204
L 928 218
L 930 191
L 932 191
L 935 174
L 937 162
L 939 155
L 942 141
L 944 114
L 946 128
L 949 154
L 951 174
L 953 181
L 956 168
L 958 178
L 960 201
L 963 214
L 965 198
L 967 194
L 969 178" style="stroke-width:1;stroke:rgba(0,116,217,1.0);fill:none"/><path  d="M 38 351
L 41 351
L 43 351
L 45 351
L 48 351
L 50 351
L 52 351
L 55 351
L 57 351
L 59 351
L 62 351
L 64 351
L 66 351
L 69 351
L 71 349
L 73 351
L 76 351
L 78 351
L 80 351
L 83 351
L 85 350
L 87 347
L 89 350
L 92 351
L 94 350
L 96 351
L 99 351
L 101 349
L 103 351
L 106 347
L 108 350
L 110 350
L 113 349
L 115 349
L 117 347
L 120 349
L 122 349
L 124 350
L 127 349
L 129 351
L 131 351
L 133 351
L 136 350
L 138 350
L 140 351
L 143 350
L 145 351
L 147 351
L 150 351
L 152 351
L 154 351
L 157 351
L 159 351
L 161 351
L 164 349
L 166 351
L 168 351
L 171 351
L 173 351
L 175 351
L 177 351
L 180 351
L 182 351
L 184 351
L 187 351
L 189 351
L 191 351
L 194 351
L 196 351
L 198 351
L 201 351
L 203 351
L 205 351
L 208 351
L 210 351
L 212 350
L 215 351
L 217 351
L 219 351
L 221 351
L 224 351
L 226 351
L 228 351
L 231 351
L 233 351
L 235 351
L 238 351
L 240 351
L 242 351
L 245 351
L 247 351
L 249 351
L 252 351
L 254 351
L 256 351
L 259 351
L 261 351
L 263 351
L 265 351
L 268 351
L 270 351
L 272 351
L 275 351
L 277 351
L 279 351
L 282 351
L 284 351
L 286 351
L 289 351
L 291 351
L 293 351
L 296 351
L 298 351
L 300 351
L 303 351
L 305 351
L 307 351
L 309 351
L 312 350
L 314 351
L 316 350
L 319 350
L 321 351
L 323 351
L 326 351
L 328 351
L 330 351
L 333 351
L 335 350
L 337 351
L 340 351
L 342 351
L 344 351
L 347 351
L 349 351
L 351 351
L 353 351
L 356 351
L 358 351
L 360 351
L 363 351
L 365 351
L 367 351
L 370 351
L 372 351
L 374 351
L 377 351
L 379 351
L 381 351
L 384 351
L 386 350
L 388 351
L 391 349
L 393 350
L 395 351
L 397 351
L 400 351
L 402 351
L 404 351
L 407 351
L 409 351
L 411 349
L 414 351
L 416 351
L 418 351
L 421 351
L 423 351
L 425 350
L 428 351
L 430 349
L 432 347
L 435 351
L 437 351
L 439 351
L 441 351
L 444 351
L 446 350
L 448 350
L 451 350
L 453 350
L 455 351
L 458 351
L 460 351
L 462 351
L 465 351
L 467 351
L 469 351
L 472 351
L 474 351
L 476 351
L 479 351
L 481 351
L 483 351
L 485 351
L 488 351
L 490 351
L 492 351
L 495 351
L 497 351
L 499 350
L 502 350
L 504 351
L 506 351
L 509 349
L 511 350
L 513 350
L 516 351
L 518 351
L 520 350
L 523 350
L 525 350
L 527 350
L 529 351
L 532 351
L 534 351
L 536 350
L 539 349
L 541 351
L 543 350
L 546 350
L 548 351
L 550 350
L 553 351
L 555 351
L 557 349
L 560 349
L 562 348
L 564 351
L 567 351
L 569 348
L 571 347
L 573 349
L 576 350
L 578 349
L 580 347
L 583 349
L 585 350
L 587 350
L 590 349
L 592 346
L 594 349
L 597 346
L 599 349
L 601 347
L 604 346
L 606 344
L 608 340
L 611 344
L 613 341
L 615 345
L 617 346
L 620 343
L 622 343
L 624 329
L 627 335
L 629 344
L 631 340
L 634 340
L 636 325
L 638 322
L 641 293
L 643 327
L 645 319
L 648 339
L 650 327
L 652 340
L 655 314
L 657 317
L 659 328
L 661 321
L 664 330
L 666 334
L 668 318
L 671 335
L 673 262
L 675 318
L 678 302
L 680 348
L 682 342
L 685 334
L 687 337
L 689 327
L 692 338
L 694 343
L 696 341
L 699 340
L 701 337
L 703 340
L 705 342
L 708 340
L 710 339
L 712 326
L 715 332
L 717 335
L 719 335
L 722 341
L 724 342
L 726 346
L 729 344
L 731 346
L 733 337
L 736 322
L 738 335
L 740 341
L 743 341
L 745 341
L 747 340
L 749 333
L 752 328
L 754 324
L 756 340
L 759 327
L 761 337
L 763 330
L 766 323
L 768 321
L 770 334
L 773 326
L 775 335
L 777 330
L 780 331
L 782 313
L 784 327
L 787 326
L 789 334
L 791 326
L 793 340
L 796 338
L 798 337
L 800 309
L 803 330
L 805 326
L 807 329
L 810 337
L 812 329
L 814 333
L 817 333
L 819 327
L 821 331
L 824 335
L 826 341
L 828 337
L 831 332
L 833 326
L 835 337
L 837 335
L 840 328
L 842 347
L 844 347
L 847 335
L 849 335
L 851 335
L 854 333
L 856 336
L 858 339
L 861 331
L 863 334
L 865 337
L 868 329
L 870 335
L 872 340
L 875 349
L 877 329
L 879 335
L 881 338
L 884 336
L 886 332
L 888 346
L 891 341
L 893 334
L 895 329
L 898 334
L 900 337
L 902 337
L 905 344
L 907 349
L 909 334
L 912 336
L 914 337
L 916 324
L 919 329
L 921 338
L 923 341
L 925 337
L 928 346
L 930 317
L 932 324
L 935 315
L 937 329
L 939 337
L 942 326
L 944 326
L 946 327
L 949 344
L 951 330
L 953 335
L 956 327
L 958 334
L 960 343
L 963 338
L 965 331
L 967 328
L 969 322" style="stroke-width:1;stroke:rgba(0,217,101,1.0);fill:none"/><path  d="M 38 351
L 41 351
L 43 351
L 45 351
L 48 351
L 50 351
L 52 351
L 55 351
L 57 351
L 59 351
L 62 351
L 64 351
L 66 351
L 69 351
L 71 351
L 73 351
L 76 351
L 78 351
L 80 351
L 83 351
L 85 351
L 87 351
L 89 351
L 92 351
L 94 351
L 96 351
L 99 351
L 101 351
L 103 351
L 106 351
L 108 351
L 110 351
L 113 351
L 115 351
L 117 351
L 120 351
L 122 351
L 124 351
L 127 350
L 129 351
L 131 351
L 133 351
L 136 351
L 138 351
L 140 351
L 143 351
L 145 351
L 147 351
L 150 351
L 152 351
L 154 351
L 157 351
L 159 351
L 161 351
L 164 351
L 166 351
L 168 351
L 171 351
L 173 351
L 175 351
L 177 351
L 180 351
L 182 351
L 184 351
L 187 351
L 189 351
L 191 351
L 194 351
L 196 351
L 198 351
L 201 351
L 203 351
L 205 351
L 208 351
L 210 351
L 212 351
L 215 351
L 217 351
L 219 351
L 221 351
L 224 351
L 226 351
L 228 351
L 231 351
L 233 351
L 235 351
L 238 351
L 240 351
L 242 351
L 245 351
L 247 351
L 249 351
L 252 351
L 254 351
L 256 351
L 259 351
L 261 351
L 263 351
L 265 351
L 268 351
L 270 351
L 272 351
L 275 351
L 277 351
L 279 351
L 282 351
L 284 351
L 286 351
L 289 351
L 291 351
L 293 351
L 296 351
L 298 351
L 300 351
L 303 351
L 305 351
L 307 351
L 309 351
L 312 351
L 314 351
L 316 351
L 319 351
L 321 351
L 323 351
L 326 351
L 328 351
L 330 351
L 333 351
L 335 351
L 337 351
L 340 351
L 342 351
L 344 351
L 347 351
L 349 351
L 351 351
L 353 351
L 356 351
L 358 351
L 360 351
L 363 351
L 365 351
L 367 351
L 370 351
L 372 351
L 374 351
L 377 351
L 379 351
L 381 351
L 384 351
L 386 351
L 388 351
L 391 351
L 393 351
L 395 351
L 397 351
L 400 351
L 402 351
L 404 351
L 407 351
L 409 351
L 411 351
L 414 351
L 416 351
L 418 351
L 421 351
L 423 351
L 425 351
L 428 351
L 430 351
L 432 351
L 435 351
L 437 351
L 439 351
L 441 351
L 444 351
L 446 351
L 448 351
L 451 351
L 453 351
L 455 351
L 458 351
L 460 351
L 462 351
L 465 351
L 467 351
L 469 351
L 472 351
L 474 351
L 476 351
L 479 351
L 481 351
L 483 351
L 485 351
L 488 351
L 490 351
L 492 351
L 495 351
L 497 351
L 499 351
L 502 351
L 504 351
L 506 351
L 509 351
L 511 351
L 513 351
L 516 351
L 518 351
L 520 351
L 523 351
L 525 351
L 527 351
L 529 351
L 532 351
L 534 351
L 536 351
L 539 351
L 541 351
L 543 351
L 546 351
L 548 351
L 550 351
L 553 351
L 555 351
L 557 351
L 560 351
L 562 351
L 564 351
L 567 351
L 569 351
L 571 351
L 573 351
L 576 351
L 578 351
L 580 351
L 583 351
L 585 351
L 587 351
L 590 351
L 592 351
L 594 351
L 597 351
L 599 351
L 601 351
L 604 351
L 606 351
L 608 351
L 611 350
L 613 351
L 615 351
L 617 351
L 620 351
L 622 351
L 624 350
L 627 351
L 629 351
L 631 351
L 634 351
L 636 351
L 638 350
L 641 351
L 643 351
L 645 351
L 648 349
L 650 351
L 652 351
L 655 350
L 657 351
L 659 350
L 661 351
L 664 351
L 666 351
L 668 351
L 671 350
L 673 350
L 675 351
L 678 349
L 680 349
L 682 349
L 685 350
L 687 349
L 689 349
L 692 351
L 694 350
L 696 349
L 699 351
L 701 350
L 703 351
L 705 351
L 708 351
L 710 351
L 712 351
L 715 351
L 717 351
L 719 349
L 722 351
L 724 351
L 726 349
L 729 351
L 731 351
L 733 351
L 736 351
L 738 351
L 740 351
L 743 350
L 745 351
L 747 349
L 749 351
L 752 350
L 754 351
L 756 351
L 759 350
L 761 351
L 763 349
L 766 350
L 768 351
L 770 350
L 773 350
L 775 349
L 777 351
L 780 349
L 782 350
L 784 350
L 787 350
L 789 347
L 791 350
L 793 351
L 796 349
L 798 348
L 800 349
L 803 349
L 805 351
L 807 349
L 810 351
L 812 351
L 814 349
L 817 351
L 819 351
L 821 349
L 824 349
L 826 350
L 828 349
L 831 349
L 833 350
L 835 349
L 837 350
L 840 350
L 842 349
L 844 350
L 847 350
L 849 351
L 851 350
L 854 351
L 856 351
L 858 349
L 861 351
L 863 351
L 865 350
L 868 351
L 870 351
L 872 351
L 875 351
L 877 351
L 879 351
L 881 351
L 884 351
L 886 351
L 888 351
L 891 350
L 893 350
L 895 351
L 898 351
L 900 350
L 902 350
L 905 350
L 907 351
L 909 351
L 912 351
L 914 351
L 916 351
L 919 351
L 921 351
L 923 351
L 925 351
L 928 351
L 930 351
L 932 351
L 935 350
L 937 351
L 939 350
L 942 351
L 944 351
L 946 350
L 949 351
L 951 351
L 953 351
L 956 350
L 958 351
L 960 351
L 963 351
L 965 351
L 967 351
L 969 351" style="stroke-width:1;stroke:rgba(217,0,116,1.0);fill:none"/><text x="355" y="33" style="stroke-width:0;stroke:none;fill:rgba(51,51,51,1.0);font-size:23.0px;font-family:'Roboto Medium',sans-serif">Spittal an der Drau 03.04.2021</text><path  d="M 38 11
L 251 11
L 251 91
L 38 91
L 38 11" style="stroke-width:1;stroke:rgba(51,51,51,1.0);fill:rgba(255,255,255,1.0)"/><text x="43" y="26" style="stroke-width:0;stroke:none;fill:rgba(51,51,51,1.0);font-size:10.2px;font-family:'Roboto Medium',sans-serif">Sieben Tage Durschnitt Inzidenz Fälle</text><path  d="M 221 21
L 241 21" style="stroke-width:1;stroke:rgba(0,116,217,1.0);fill:none"/><text x="43" y="56" style="stroke-width:0;stroke:none;fill:rgba(51,51,51,1.0);font-size:10.2px;font-family:'Roboto Medium',sans-serif">Anzahl Faelle</text><path  d="M 110 51
L 241 51" style="stroke-width:1;stroke:rgba(0,217,101,1.0);fill:none"/><text x="43" y="86" style="stroke-width:0;stroke:none;fill:rgba(51,51,51,1.0);font-size:10.2px;font-family:'Roboto Medium',sans-serif">Anzahl Tot</text><path  d="M 98 81
L 241 81" style="stroke-width:1;stroke:rgba(217,0,116,1.0);fill:none"/></svg>