<svg xmlns="http://www.w3.org/2000/svg" xmlns:xlink="http://www.w3.org/1999/xlink" width="1024" height="400">\n<path  d="M 0 0
L 1024 0
L 1024 400
L 0 400
L 0 0" style="stroke-width:0;stroke:rgba(255,255,255,1.0);fill:rgba(255,255,255,1.0)"/><path  d="M 38 11
L 961 11
L 961 351
L 38 351
L 38 11" style="stroke-width:0;stroke:rgba(255,255,255,1.0);fill:rgba(255,255,255,1.0)"/><path  d="M 38 351
L 961 351" style="stroke-width:1;stroke:rgba(51,51,51,1.0);fill:none"/><path  d="M 38 351
L 38 356" style="stroke-width:1;stroke:rgba(51,51,51,1.0);fill:none"/><text x="5" y="373" style="stroke-width:0;stroke:none;fill:rgba(51,51,51,1.0);font-size:12.8px;font-family:'Roboto Medium',sans-serif">2020-02-26</text><path  d="M 154 351
L 154 356" style="stroke-width:1;stroke:rgba(51,51,51,1.0);fill:none"/><text x="121" y="373" style="stroke-width:0;stroke:none;fill:rgba(51,51,51,1.0);font-size:12.8px;font-family:'Roboto Medium',sans-serif">2020-03-30</text><path  d="M 269 351
L 269 356" style="stroke-width:1;stroke:rgba(51,51,51,1.0);fill:none"/><text x="236" y="373" style="stroke-width:0;stroke:none;fill:rgba(51,51,51,1.0);font-size:12.8px;font-family:'Roboto Medium',sans-serif">2020-05-03</text><path  d="M 385 351
L 385 356" style="stroke-width:1;stroke:rgba(51,51,51,1.0);fill:none"/><text x="352" y="373" style="stroke-width:0;stroke:none;fill:rgba(51,51,51,1.0);font-size:12.8px;font-family:'Roboto Medium',sans-serif">2020-06-06</text><path  d="M 500 351
L 500 356" style="stroke-width:1;stroke:rgba(51,51,51,1.0);fill:none"/><text x="467" y="373" style="stroke-width:0;stroke:none;fill:rgba(51,51,51,1.0);font-size:12.8px;font-family:'Roboto Medium',sans-serif">2020-07-10</text><path  d="M 615 351
L 615 356" style="stroke-width:1;stroke:rgba(51,51,51,1.0);fill:none"/><text x="582" y="373" style="stroke-width:0;stroke:none;fill:rgba(51,51,51,1.0);font-size:12.8px;font-family:'Roboto Medium',sans-serif">2020-08-12</text><path  d="M 731 351
L 731 356" style="stroke-width:1;stroke:rgba(51,51,51,1.0);fill:none"/><text x="698" y="373" style="stroke-width:0;stroke:none;fill:rgba(51,51,51,1.0);font-size:12.8px;font-family:'Roboto Medium',sans-serif">2020-09-15</text><path  d="M 846 351
L 846 356" style="stroke-width:1;stroke:rgba(51,51,51,1.0);fill:none"/><text x="813" y="373" style="stroke-width:0;stroke:none;fill:rgba(51,51,51,1.0);font-size:12.8px;font-family:'Roboto Medium',sans-serif">2020-10-19</text><path  d="M 961 351
L 961 356" style="stroke-width:1;stroke:rgba(51,51,51,1.0);fill:none"/><text x="928" y="373" style="stroke-width:0;stroke:none;fill:rgba(51,51,51,1.0);font-size:12.8px;font-family:'Roboto Medium',sans-serif">2020-11-22</text><text x="481" y="395" style="stroke-width:0;stroke:none;fill:rgba(51,51,51,1.0);font-size:12.8px;font-family:'Roboto Medium',sans-serif">Datum</text><path  d="M 962 351
L 962 11" style="stroke-width:1;stroke:rgba(51,51,51,1.0);fill:none"/><path  d="M 962 351
L 967 351" style="stroke-width:1;stroke:rgba(51,51,51,1.0);fill:none"/><text x="972" y="357" style="stroke-width:0;stroke:none;fill:rgba(51,51,51,1.0);font-size:12.8px;font-family:'Roboto Medium',sans-serif">0.00</text><path  d="M 962 307
L 967 307" style="stroke-width:1;stroke:rgba(51,51,51,1.0);fill:none"/><text x="972" y="313" style="stroke-width:0;stroke:none;fill:rgba(51,51,51,1.0);font-size:12.8px;font-family:'Roboto Medium',sans-serif">140.00</text><path  d="M 962 264
L 967 264" style="stroke-width:1;stroke:rgba(51,51,51,1.0);fill:none"/><text x="972" y="270" style="stroke-width:0;stroke:none;fill:rgba(51,51,51,1.0);font-size:12.8px;font-family:'Roboto Medium',sans-serif">280.00</text><path  d="M 962 221
L 967 221" style="stroke-width:1;stroke:rgba(51,51,51,1.0);fill:none"/><text x="972" y="227" style="stroke-width:0;stroke:none;fill:rgba(51,51,51,1.0);font-size:12.8px;font-family:'Roboto Medium',sans-serif">420.00</text><path  d="M 962 181
L 967 181" style="stroke-width:1;stroke:rgba(51,51,51,1.0);fill:none"/><text x="972" y="187" style="stroke-width:0;stroke:none;fill:rgba(51,51,51,1.0);font-size:12.8px;font-family:'Roboto Medium',sans-serif">550.00</text><path  d="M 962 137
L 967 137" style="stroke-width:1;stroke:rgba(51,51,51,1.0);fill:none"/><text x="972" y="143" style="stroke-width:0;stroke:none;fill:rgba(51,51,51,1.0);font-size:12.8px;font-family:'Roboto Medium',sans-serif">690.00</text><path  d="M 962 94
L 967 94" style="stroke-width:1;stroke:rgba(51,51,51,1.0);fill:none"/><text x="972" y="100" style="stroke-width:0;stroke:none;fill:rgba(51,51,51,1.0);font-size:12.8px;font-family:'Roboto Medium',sans-serif">830.00</text><path  d="M 962 51
L 967 51" style="stroke-width:1;stroke:rgba(51,51,51,1.0);fill:none"/><text x="972" y="57" style="stroke-width:0;stroke:none;fill:rgba(51,51,51,1.0);font-size:12.8px;font-family:'Roboto Medium',sans-serif">970.00</text><path  d="M 962 11
L 967 11" style="stroke-width:1;stroke:rgba(51,51,51,1.0);fill:none"/><text x="972" y="17" style="stroke-width:0;stroke:none;fill:rgba(51,51,51,1.0);font-size:12.8px;font-family:'Roboto Medium',sans-serif">1100.00</text><path  d="M 38 351
L 42 351
L 45 351
L 49 351
L 52 351
L 56 351
L 59 351
L 62 351
L 66 351
L 69 351
L 73 351
L 76 351
L 80 351
L 83 351
L 86 351
L 90 351
L 93 351
L 97 349
L 100 349
L 103 348
L 107 347
L 110 344
L 114 342
L 117 341
L 121 339
L 124 337
L 127 337
L 131 334
L 134 329
L 138 325
L 141 318
L 144 313
L 148 311
L 151 310
L 155 314
L 158 320
L 162 324
L 165 328
L 168 334
L 172 336
L 175 334
L 179 335
L 182 332
L 185 332
L 189 332
L 192 333
L 196 335
L 199 338
L 203 337
L 206 340
L 209 342
L 213 345
L 216 345
L 220 345
L 223 345
L 227 346
L 230 347
L 233 347
L 237 346
L 240 347
L 244 348
L 247 348
L 250 349
L 254 348
L 257 349
L 261 350
L 264 350
L 268 350
L 271 350
L 274 350
L 278 351
L 281 351
L 285 351
L 288 351
L 291 351
L 295 351
L 298 351
L 302 351
L 305 351
L 309 351
L 312 351
L 315 351
L 319 351
L 322 351
L 326 351
L 329 351
L 332 351
L 336 351
L 339 351
L 343 351
L 346 351
L 350 351
L 353 351
L 356 351
L 360 351
L 363 351
L 367 351
L 370 351
L 374 351
L 377 351
L 380 351
L 384 351
L 387 350
L 391 350
L 394 350
L 397 350
L 401 350
L 404 350
L 408 350
L 411 351
L 415 351
L 418 351
L 421 351
L 425 351
L 428 351
L 432 351
L 435 351
L 438 351
L 442 350
L 445 350
L 449 350
L 452 350
L 456 350
L 459 350
L 462 350
L 466 351
L 469 351
L 473 351
L 476 351
L 479 351
L 483 351
L 486 351
L 490 351
L 493 349
L 497 348
L 500 347
L 503 346
L 507 346
L 510 346
L 514 345
L 517 346
L 521 346
L 524 348
L 527 348
L 531 348
L 534 349
L 538 349
L 541 350
L 544 350
L 548 348
L 551 348
L 555 347
L 558 347
L 562 347
L 565 347
L 568 347
L 572 349
L 575 349
L 579 349
L 582 349
L 585 349
L 589 349
L 592 348
L 596 348
L 599 349
L 603 349
L 606 347
L 609 347
L 613 347
L 616 347
L 620 346
L 623 344
L 626 344
L 630 345
L 633 345
L 637 343
L 640 344
L 644 344
L 647 346
L 650 346
L 654 346
L 657 346
L 661 347
L 664 347
L 668 347
L 671 348
L 674 348
L 678 348
L 681 349
L 685 349
L 688 348
L 691 344
L 695 343
L 698 342
L 702 342
L 705 340
L 709 340
L 712 340
L 715 344
L 719 345
L 722 345
L 726 345
L 729 345
L 732 345
L 736 345
L 739 346
L 743 346
L 746 346
L 750 346
L 753 347
L 756 347
L 760 346
L 763 346
L 767 346
L 770 346
L 773 347
L 777 348
L 780 348
L 784 348
L 787 347
L 791 346
L 794 346
L 797 346
L 801 343
L 804 342
L 808 342
L 811 340
L 815 339
L 818 337
L 821 331
L 825 330
L 828 327
L 832 319
L 835 321
L 838 315
L 842 317
L 845 321
L 849 316
L 852 314
L 856 310
L 859 302
L 862 297
L 866 294
L 869 278
L 873 280
L 876 264
L 879 247
L 883 228
L 886 223
L 890 199
L 893 183
L 897 165
L 900 153
L 903 157
L 907 113
L 910 126
L 914 60
L 917 57
L 920 44
L 924 41
L 927 19
L 931 50
L 934 43
L 938 125
L 941 140
L 944 145
L 948 147
L 951 170
L 955 182
L 958 173
L 961 170" style="stroke-width:1;stroke:rgba(0,116,217,1.0);fill:none"/><path  d="M 38 351
L 42 351
L 45 351
L 49 351
L 52 351
L 56 351
L 59 351
L 62 351
L 66 351
L 69 351
L 73 351
L 76 351
L 80 351
L 83 351
L 86 351
L 90 351
L 93 351
L 97 350
L 100 350
L 103 350
L 107 350
L 110 349
L 114 349
L 117 350
L 121 349
L 124 349
L 127 350
L 131 348
L 134 346
L 138 347
L 141 346
L 144 346
L 148 347
L 151 350
L 155 350
L 158 349
L 162 349
L 165 349
L 168 350
L 172 349
L 175 348
L 179 351
L 182 347
L 185 349
L 189 349
L 192 350
L 196 350
L 199 350
L 203 350
L 206 350
L 209 350
L 213 351
L 216 350
L 220 350
L 223 350
L 227 350
L 230 351
L 233 350
L 237 350
L 240 351
L 244 351
L 247 351
L 250 351
L 254 350
L 257 351
L 261 351
L 264 351
L 268 351
L 271 351
L 274 351
L 278 351
L 281 351
L 285 351
L 288 351
L 291 351
L 295 351
L 298 351
L 302 351
L 305 351
L 309 351
L 312 351
L 315 351
L 319 351
L 322 351
L 326 351
L 329 351
L 332 351
L 336 351
L 339 351
L 343 351
L 346 351
L 350 351
L 353 351
L 356 351
L 360 351
L 363 351
L 367 351
L 370 351
L 374 351
L 377 351
L 380 351
L 384 351
L 387 350
L 391 351
L 394 351
L 397 351
L 401 351
L 404 351
L 408 351
L 411 351
L 415 351
L 418 351
L 421 351
L 425 351
L 428 351
L 432 351
L 435 351
L 438 351
L 442 350
L 445 351
L 449 351
L 452 351
L 456 351
L 459 351
L 462 351
L 466 351
L 469 351
L 473 351
L 476 351
L 479 351
L 483 351
L 486 351
L 490 351
L 493 350
L 497 350
L 500 350
L 503 350
L 507 351
L 510 350
L 514 350
L 517 350
L 521 351
L 524 351
L 527 351
L 531 351
L 534 351
L 538 351
L 541 350
L 544 351
L 548 349
L 551 351
L 555 350
L 558 351
L 562 350
L 565 351
L 568 351
L 572 351
L 575 350
L 579 351
L 582 351
L 585 350
L 589 351
L 592 350
L 596 351
L 599 351
L 603 351
L 606 349
L 609 350
L 613 351
L 616 350
L 620 350
L 623 349
L 626 351
L 630 350
L 633 350
L 637 350
L 640 351
L 644 350
L 647 350
L 650 351
L 654 350
L 657 350
L 661 350
L 664 351
L 668 351
L 671 351
L 674 351
L 678 350
L 681 351
L 685 350
L 688 350
L 691 348
L 695 350
L 698 350
L 702 350
L 705 350
L 709 350
L 712 350
L 715 350
L 719 351
L 722 350
L 726 350
L 729 349
L 732 350
L 736 351
L 739 351
L 743 351
L 746 350
L 750 350
L 753 350
L 756 350
L 760 350
L 763 350
L 767 351
L 770 350
L 773 351
L 777 351
L 780 350
L 784 350
L 787 350
L 791 350
L 794 351
L 797 350
L 801 349
L 804 350
L 808 351
L 811 348
L 815 349
L 818 349
L 821 346
L 825 348
L 828 347
L 832 346
L 835 349
L 838 346
L 842 350
L 845 349
L 849 345
L 852 346
L 856 343
L 859 344
L 862 343
L 866 349
L 869 339
L 873 346
L 876 337
L 879 333
L 883 333
L 886 339
L 890 334
L 893 329
L 897 335
L 900 330
L 903 334
L 907 307
L 910 347
L 914 294
L 917 328
L 920 327
L 924 328
L 927 321
L 931 326
L 934 343
L 938 344
L 941 337
L 944 330
L 948 329
L 951 335
L 955 333
L 958 338
L 961 342" style="stroke-width:1;stroke:rgba(0,217,101,1.0);fill:none"/><path  d="M 38 351
L 42 351
L 45 351
L 49 351
L 52 351
L 56 351
L 59 351
L 62 351
L 66 351
L 69 351
L 73 351
L 76 351
L 80 351
L 83 351
L 86 351
L 90 351
L 93 351
L 97 351
L 100 351
L 103 351
L 107 351
L 110 351
L 114 351
L 117 351
L 121 351
L 124 351
L 127 351
L 131 351
L 134 351
L 138 351
L 141 351
L 144 351
L 148 351
L 151 351
L 155 351
L 158 351
L 162 351
L 165 351
L 168 351
L 172 351
L 175 350
L 179 350
L 182 351
L 185 351
L 189 351
L 192 351
L 196 351
L 199 351
L 203 351
L 206 350
L 209 351
L 213 351
L 216 350
L 220 351
L 223 351
L 227 350
L 230 350
L 233 351
L 237 351
L 240 351
L 244 351
L 247 351
L 250 351
L 254 351
L 257 351
L 261 351
L 264 351
L 268 351
L 271 351
L 274 351
L 278 351
L 281 351
L 285 351
L 288 351
L 291 351
L 295 351
L 298 351
L 302 351
L 305 351
L 309 351
L 312 351
L 315 351
L 319 351
L 322 351
L 326 351
L 329 351
L 332 351
L 336 351
L 339 351
L 343 351
L 346 351
L 350 351
L 353 351
L 356 351
L 360 351
L 363 351
L 367 351
L 370 351
L 374 351
L 377 351
L 380 351
L 384 351
L 387 351
L 391 351
L 394 351
L 397 351
L 401 351
L 404 351
L 408 351
L 411 351
L 415 351
L 418 351
L 421 351
L 425 351
L 428 351
L 432 351
L 435 351
L 438 351
L 442 351
L 445 351
L 449 351
L 452 351
L 456 351
L 459 351
L 462 351
L 466 351
L 469 351
L 473 351
L 476 351
L 479 351
L 483 351
L 486 351
L 490 351
L 493 351
L 497 351
L 500 351
L 503 351
L 507 351
L 510 351
L 514 351
L 517 351
L 521 351
L 524 351
L 527 351
L 531 351
L 534 351
L 538 351
L 541 351
L 544 351
L 548 351
L 551 351
L 555 351
L 558 351
L 562 351
L 565 351
L 568 351
L 572 351
L 575 351
L 579 351
L 582 351
L 585 351
L 589 351
L 592 351
L 596 351
L 599 351
L 603 351
L 606 351
L 609 351
L 613 351
L 616 351
L 620 351
L 623 351
L 626 351
L 630 351
L 633 351
L 637 351
L 640 351
L 644 351
L 647 351
L 650 351
L 654 351
L 657 351
L 661 351
L 664 351
L 668 351
L 671 351
L 674 351
L 678 351
L 681 351
L 685 351
L 688 351
L 691 351
L 695 351
L 698 351
L 702 351
L 705 351
L 709 351
L 712 351
L 715 351
L 719 351
L 722 351
L 726 351
L 729 351
L 732 351
L 736 351
L 739 351
L 743 351
L 746 351
L 750 351
L 753 351
L 756 351
L 760 351
L 763 351
L 767 351
L 770 351
L 773 351
L 777 351
L 780 351
L 784 351
L 787 351
L 791 351
L 794 351
L 797 351
L 801 351
L 804 351
L 808 351
L 811 351
L 815 351
L 818 351
L 821 351
L 825 351
L 828 351
L 832 351
L 835 351
L 838 351
L 842 351
L 845 351
L 849 351
L 852 351
L 856 351
L 859 351
L 862 351
L 866 351
L 869 350
L 873 351
L 876 350
L 879 351
L 883 350
L 886 350
L 890 351
L 893 350
L 897 350
L 900 351
L 903 351
L 907 351
L 910 350
L 914 350
L 917 350
L 920 351
L 924 350
L 927 351
L 931 350
L 934 350
L 938 351
L 941 351
L 944 351
L 948 351
L 951 351
L 955 350
L 958 350
L 961 351" style="stroke-width:1;stroke:rgba(217,0,116,1.0);fill:none"/><text x="395" y="33" style="stroke-width:0;stroke:none;fill:rgba(51,51,51,1.0);font-size:23.0px;font-family:'Roboto Medium',sans-serif">Steyr-Land 22.11.2020</text><path  d="M 38 11
L 251 11
L 251 91
L 38 91
L 38 11" style="stroke-width:1;stroke:rgba(51,51,51,1.0);fill:rgba(255,255,255,1.0)"/><text x="43" y="26" style="stroke-width:0;stroke:none;fill:rgba(51,51,51,1.0);font-size:10.2px;font-family:'Roboto Medium',sans-serif">Sieben Tage Durschnitt Inzidenz Fälle</text><path  d="M 221 21
L 241 21" style="stroke-width:1;stroke:rgba(0,116,217,1.0);fill:none"/><text x="43" y="56" style="stroke-width:0;stroke:none;fill:rgba(51,51,51,1.0);font-size:10.2px;font-family:'Roboto Medium',sans-serif">Anzahl Faelle</text><path  d="M 110 51
L 241 51" style="stroke-width:1;stroke:rgba(0,217,101,1.0);fill:none"/><text x="43" y="86" style="stroke-width:0;stroke:none;fill:rgba(51,51,51,1.0);font-size:10.2px;font-family:'Roboto Medium',sans-serif">Anzahl Tot</text><path  d="M 98 81
L 241 81" style="stroke-width:1;stroke:rgba(217,0,116,1.0);fill:none"/></svg>