<svg xmlns="http://www.w3.org/2000/svg" xmlns:xlink="http://www.w3.org/1999/xlink" width="1024" height="400">\n<path  d="M 0 0
L 1024 0
L 1024 400
L 0 400
L 0 0" style="stroke-width:0;stroke:rgba(255,255,255,1.0);fill:rgba(255,255,255,1.0)"/><path  d="M 38 11
L 961 11
L 961 351
L 38 351
L 38 11" style="stroke-width:0;stroke:rgba(255,255,255,1.0);fill:rgba(255,255,255,1.0)"/><path  d="M 38 351
L 961 351" style="stroke-width:1;stroke:rgba(51,51,51,1.0);fill:none"/><path  d="M 38 351
L 38 356" style="stroke-width:1;stroke:rgba(51,51,51,1.0);fill:none"/><text x="5" y="373" style="stroke-width:0;stroke:none;fill:rgba(51,51,51,1.0);font-size:12.8px;font-family:'Roboto Medium',sans-serif">2020-02-26</text><path  d="M 154 351
L 154 356" style="stroke-width:1;stroke:rgba(51,51,51,1.0);fill:none"/><text x="121" y="373" style="stroke-width:0;stroke:none;fill:rgba(51,51,51,1.0);font-size:12.8px;font-family:'Roboto Medium',sans-serif">2020-04-18</text><path  d="M 269 351
L 269 356" style="stroke-width:1;stroke:rgba(51,51,51,1.0);fill:none"/><text x="236" y="373" style="stroke-width:0;stroke:none;fill:rgba(51,51,51,1.0);font-size:12.8px;font-family:'Roboto Medium',sans-serif">2020-06-09</text><path  d="M 385 351
L 385 356" style="stroke-width:1;stroke:rgba(51,51,51,1.0);fill:none"/><text x="352" y="373" style="stroke-width:0;stroke:none;fill:rgba(51,51,51,1.0);font-size:12.8px;font-family:'Roboto Medium',sans-serif">2020-07-31</text><path  d="M 500 351
L 500 356" style="stroke-width:1;stroke:rgba(51,51,51,1.0);fill:none"/><text x="467" y="373" style="stroke-width:0;stroke:none;fill:rgba(51,51,51,1.0);font-size:12.8px;font-family:'Roboto Medium',sans-serif">2020-09-21</text><path  d="M 615 351
L 615 356" style="stroke-width:1;stroke:rgba(51,51,51,1.0);fill:none"/><text x="582" y="373" style="stroke-width:0;stroke:none;fill:rgba(51,51,51,1.0);font-size:12.8px;font-family:'Roboto Medium',sans-serif">2020-11-12</text><path  d="M 731 351
L 731 356" style="stroke-width:1;stroke:rgba(51,51,51,1.0);fill:none"/><text x="698" y="373" style="stroke-width:0;stroke:none;fill:rgba(51,51,51,1.0);font-size:12.8px;font-family:'Roboto Medium',sans-serif">2021-01-03</text><path  d="M 846 351
L 846 356" style="stroke-width:1;stroke:rgba(51,51,51,1.0);fill:none"/><text x="813" y="373" style="stroke-width:0;stroke:none;fill:rgba(51,51,51,1.0);font-size:12.8px;font-family:'Roboto Medium',sans-serif">2021-02-24</text><path  d="M 961 351
L 961 356" style="stroke-width:1;stroke:rgba(51,51,51,1.0);fill:none"/><text x="928" y="373" style="stroke-width:0;stroke:none;fill:rgba(51,51,51,1.0);font-size:12.8px;font-family:'Roboto Medium',sans-serif">2021-04-17</text><text x="481" y="395" style="stroke-width:0;stroke:none;fill:rgba(51,51,51,1.0);font-size:12.8px;font-family:'Roboto Medium',sans-serif">Datum</text><path  d="M 962 351
L 962 11" style="stroke-width:1;stroke:rgba(51,51,51,1.0);fill:none"/><path  d="M 962 351
L 967 351" style="stroke-width:1;stroke:rgba(51,51,51,1.0);fill:none"/><text x="972" y="357" style="stroke-width:0;stroke:none;fill:rgba(51,51,51,1.0);font-size:12.8px;font-family:'Roboto Medium',sans-serif">0.00</text><path  d="M 962 307
L 967 307" style="stroke-width:1;stroke:rgba(51,51,51,1.0);fill:none"/><text x="972" y="313" style="stroke-width:0;stroke:none;fill:rgba(51,51,51,1.0);font-size:12.8px;font-family:'Roboto Medium',sans-serif">140.00</text><path  d="M 962 264
L 967 264" style="stroke-width:1;stroke:rgba(51,51,51,1.0);fill:none"/><text x="972" y="270" style="stroke-width:0;stroke:none;fill:rgba(51,51,51,1.0);font-size:12.8px;font-family:'Roboto Medium',sans-serif">280.00</text><path  d="M 962 221
L 967 221" style="stroke-width:1;stroke:rgba(51,51,51,1.0);fill:none"/><text x="972" y="227" style="stroke-width:0;stroke:none;fill:rgba(51,51,51,1.0);font-size:12.8px;font-family:'Roboto Medium',sans-serif">420.00</text><path  d="M 962 181
L 967 181" style="stroke-width:1;stroke:rgba(51,51,51,1.0);fill:none"/><text x="972" y="187" style="stroke-width:0;stroke:none;fill:rgba(51,51,51,1.0);font-size:12.8px;font-family:'Roboto Medium',sans-serif">550.00</text><path  d="M 962 137
L 967 137" style="stroke-width:1;stroke:rgba(51,51,51,1.0);fill:none"/><text x="972" y="143" style="stroke-width:0;stroke:none;fill:rgba(51,51,51,1.0);font-size:12.8px;font-family:'Roboto Medium',sans-serif">690.00</text><path  d="M 962 94
L 967 94" style="stroke-width:1;stroke:rgba(51,51,51,1.0);fill:none"/><text x="972" y="100" style="stroke-width:0;stroke:none;fill:rgba(51,51,51,1.0);font-size:12.8px;font-family:'Roboto Medium',sans-serif">830.00</text><path  d="M 962 51
L 967 51" style="stroke-width:1;stroke:rgba(51,51,51,1.0);fill:none"/><text x="972" y="57" style="stroke-width:0;stroke:none;fill:rgba(51,51,51,1.0);font-size:12.8px;font-family:'Roboto Medium',sans-serif">970.00</text><path  d="M 962 11
L 967 11" style="stroke-width:1;stroke:rgba(51,51,51,1.0);fill:none"/><text x="972" y="17" style="stroke-width:0;stroke:none;fill:rgba(51,51,51,1.0);font-size:12.8px;font-family:'Roboto Medium',sans-serif">1100.00</text><path  d="M 38 351
L 41 351
L 43 351
L 45 351
L 47 351
L 50 351
L 52 351
L 54 351
L 56 351
L 58 351
L 61 351
L 63 351
L 65 351
L 67 351
L 70 351
L 72 351
L 74 351
L 76 349
L 78 349
L 81 348
L 83 347
L 85 344
L 87 342
L 90 341
L 92 339
L 94 337
L 96 337
L 98 334
L 101 329
L 103 325
L 105 318
L 107 313
L 109 311
L 112 310
L 114 314
L 116 320
L 118 324
L 121 328
L 123 334
L 125 336
L 127 334
L 129 335
L 132 332
L 134 332
L 136 332
L 138 333
L 141 335
L 143 338
L 145 337
L 147 340
L 149 342
L 152 345
L 154 345
L 156 345
L 158 345
L 161 346
L 163 347
L 165 347
L 167 346
L 169 347
L 172 348
L 174 348
L 176 349
L 178 348
L 180 349
L 183 350
L 185 350
L 187 350
L 189 350
L 192 350
L 194 351
L 196 351
L 198 351
L 200 351
L 203 351
L 205 351
L 207 351
L 209 351
L 212 351
L 214 351
L 216 351
L 218 351
L 220 351
L 223 351
L 225 351
L 227 351
L 229 351
L 232 351
L 234 351
L 236 351
L 238 351
L 240 351
L 243 351
L 245 351
L 247 351
L 249 351
L 251 351
L 254 351
L 256 351
L 258 351
L 260 351
L 263 351
L 265 350
L 267 350
L 269 350
L 271 350
L 274 350
L 276 350
L 278 350
L 280 351
L 283 351
L 285 351
L 287 351
L 289 351
L 291 351
L 294 351
L 296 351
L 298 351
L 300 350
L 303 350
L 305 350
L 307 350
L 309 350
L 311 350
L 314 350
L 316 351
L 318 351
L 320 351
L 322 351
L 325 351
L 327 351
L 329 351
L 331 351
L 334 349
L 336 348
L 338 347
L 340 346
L 342 346
L 345 346
L 347 345
L 349 346
L 351 346
L 354 348
L 356 348
L 358 348
L 360 349
L 362 349
L 365 350
L 367 350
L 369 348
L 371 348
L 374 347
L 376 347
L 378 347
L 380 347
L 382 347
L 385 349
L 387 349
L 389 349
L 391 349
L 393 349
L 396 349
L 398 348
L 400 348
L 402 349
L 405 349
L 407 347
L 409 347
L 411 347
L 413 347
L 416 346
L 418 344
L 420 344
L 422 346
L 425 345
L 427 344
L 429 344
L 431 345
L 433 346
L 436 346
L 438 346
L 440 347
L 442 347
L 445 347
L 447 347
L 449 348
L 451 348
L 453 348
L 456 349
L 458 349
L 460 348
L 462 344
L 464 343
L 467 342
L 469 342
L 471 340
L 473 340
L 476 340
L 478 344
L 480 345
L 482 345
L 484 345
L 487 345
L 489 345
L 491 345
L 493 346
L 496 346
L 498 346
L 500 346
L 502 347
L 504 347
L 507 346
L 509 346
L 511 346
L 513 346
L 516 347
L 518 348
L 520 348
L 522 348
L 524 347
L 527 346
L 529 346
L 531 346
L 533 343
L 535 342
L 538 342
L 540 340
L 542 339
L 544 337
L 547 331
L 549 330
L 551 327
L 553 319
L 555 321
L 558 315
L 560 317
L 562 322
L 564 316
L 567 314
L 569 310
L 571 302
L 573 297
L 575 294
L 578 278
L 580 279
L 582 263
L 584 246
L 587 227
L 589 222
L 591 199
L 593 184
L 595 165
L 598 155
L 600 157
L 602 113
L 604 126
L 606 60
L 609 54
L 611 40
L 613 37
L 615 15
L 618 45
L 620 38
L 622 120
L 624 137
L 626 143
L 629 142
L 631 166
L 633 180
L 635 173
L 638 169
L 640 176
L 642 186
L 644 196
L 646 206
L 649 224
L 651 225
L 653 222
L 655 223
L 658 241
L 660 256
L 662 263
L 664 259
L 666 269
L 669 277
L 671 280
L 673 281
L 675 280
L 677 280
L 680 279
L 682 276
L 684 272
L 686 267
L 689 258
L 691 254
L 693 251
L 695 260
L 697 265
L 700 275
L 702 284
L 704 288
L 706 297
L 709 300
L 711 302
L 713 301
L 715 296
L 717 297
L 720 300
L 722 302
L 724 301
L 726 303
L 729 308
L 731 308
L 733 307
L 735 307
L 737 307
L 740 308
L 742 303
L 744 296
L 746 301
L 748 307
L 751 310
L 753 313
L 755 318
L 757 321
L 760 327
L 762 329
L 764 329
L 766 332
L 768 330
L 771 328
L 773 330
L 775 332
L 777 331
L 780 331
L 782 331
L 784 335
L 786 336
L 788 335
L 791 336
L 793 337
L 795 338
L 797 337
L 800 338
L 802 338
L 804 339
L 806 339
L 808 339
L 811 337
L 813 340
L 815 339
L 817 338
L 819 339
L 822 339
L 824 335
L 826 336
L 828 336
L 831 333
L 833 335
L 835 333
L 837 331
L 839 326
L 842 325
L 844 316
L 846 318
L 848 315
L 851 313
L 853 308
L 855 316
L 857 315
L 859 320
L 862 318
L 864 319
L 866 323
L 868 329
L 871 327
L 873 329
L 875 328
L 877 327
L 879 327
L 882 323
L 884 318
L 886 316
L 888 313
L 890 314
L 893 313
L 895 310
L 897 310
L 899 307
L 902 305
L 904 304
L 906 307
L 908 302
L 910 301
L 913 302
L 915 305
L 917 304
L 919 309
L 922 307
L 924 310
L 926 317
L 928 316
L 930 318
L 933 318
L 935 315
L 937 308
L 939 310
L 942 301
L 944 305
L 946 300
L 948 300
L 950 299
L 953 301
L 955 296
L 957 300
L 959 293
L 961 298" style="stroke-width:1;stroke:rgba(0,116,217,1.0);fill:none"/><path  d="M 38 351
L 41 351
L 43 351
L 45 351
L 47 351
L 50 351
L 52 351
L 54 351
L 56 351
L 58 351
L 61 351
L 63 351
L 65 351
L 67 351
L 70 351
L 72 351
L 74 351
L 76 350
L 78 350
L 81 350
L 83 350
L 85 349
L 87 349
L 90 350
L 92 349
L 94 349
L 96 350
L 98 348
L 101 346
L 103 347
L 105 346
L 107 346
L 109 347
L 112 350
L 114 350
L 116 349
L 118 349
L 121 349
L 123 350
L 125 349
L 127 348
L 129 351
L 132 347
L 134 349
L 136 349
L 138 350
L 141 350
L 143 350
L 145 350
L 147 350
L 149 350
L 152 351
L 154 350
L 156 350
L 158 350
L 161 350
L 163 351
L 165 350
L 167 350
L 169 351
L 172 351
L 174 351
L 176 351
L 178 350
L 180 351
L 183 351
L 185 351
L 187 351
L 189 351
L 192 351
L 194 351
L 196 351
L 198 351
L 200 351
L 203 351
L 205 351
L 207 351
L 209 351
L 212 351
L 214 351
L 216 351
L 218 351
L 220 351
L 223 351
L 225 351
L 227 351
L 229 351
L 232 351
L 234 351
L 236 351
L 238 351
L 240 351
L 243 351
L 245 351
L 247 351
L 249 351
L 251 351
L 254 351
L 256 351
L 258 351
L 260 351
L 263 351
L 265 350
L 267 351
L 269 351
L 271 351
L 274 351
L 276 351
L 278 351
L 280 351
L 283 351
L 285 351
L 287 351
L 289 351
L 291 351
L 294 351
L 296 351
L 298 351
L 300 350
L 303 351
L 305 351
L 307 351
L 309 351
L 311 351
L 314 351
L 316 351
L 318 351
L 320 351
L 322 351
L 325 351
L 327 351
L 329 351
L 331 351
L 334 350
L 336 350
L 338 350
L 340 350
L 342 351
L 345 350
L 347 350
L 349 350
L 351 351
L 354 351
L 356 351
L 358 351
L 360 351
L 362 351
L 365 350
L 367 351
L 369 349
L 371 351
L 374 350
L 376 351
L 378 350
L 380 351
L 382 351
L 385 351
L 387 350
L 389 351
L 391 351
L 393 350
L 396 351
L 398 350
L 400 351
L 402 351
L 405 351
L 407 349
L 409 350
L 411 351
L 413 350
L 416 350
L 418 349
L 420 351
L 422 350
L 425 350
L 427 350
L 429 351
L 431 350
L 433 350
L 436 351
L 438 350
L 440 350
L 442 350
L 445 351
L 447 351
L 449 351
L 451 351
L 453 350
L 456 351
L 458 350
L 460 350
L 462 348
L 464 350
L 467 350
L 469 350
L 471 350
L 473 350
L 476 350
L 478 350
L 480 351
L 482 350
L 484 350
L 487 349
L 489 350
L 491 351
L 493 351
L 496 351
L 498 350
L 500 350
L 502 350
L 504 350
L 507 350
L 509 350
L 511 351
L 513 350
L 516 351
L 518 351
L 520 350
L 522 350
L 524 350
L 527 350
L 529 351
L 531 350
L 533 349
L 535 350
L 538 351
L 540 348
L 542 349
L 544 349
L 547 346
L 549 348
L 551 347
L 553 346
L 555 349
L 558 346
L 560 350
L 562 349
L 564 345
L 567 346
L 569 343
L 571 344
L 573 342
L 575 349
L 578 339
L 580 346
L 582 337
L 584 333
L 587 333
L 589 339
L 591 334
L 593 330
L 595 335
L 598 330
L 600 334
L 602 307
L 604 347
L 606 294
L 609 327
L 611 326
L 613 328
L 615 321
L 618 325
L 620 343
L 622 344
L 624 337
L 626 330
L 629 328
L 631 335
L 633 334
L 635 338
L 638 342
L 640 341
L 642 336
L 644 334
L 646 342
L 649 344
L 651 339
L 653 340
L 655 341
L 658 346
L 660 343
L 662 346
L 664 342
L 666 345
L 669 345
L 671 343
L 673 347
L 675 343
L 677 346
L 680 342
L 682 343
L 684 342
L 686 340
L 689 342
L 691 341
L 693 344
L 695 347
L 697 346
L 700 348
L 702 345
L 704 344
L 706 346
L 709 346
L 711 348
L 713 346
L 715 345
L 717 346
L 720 346
L 722 347
L 724 345
L 726 350
L 729 349
L 731 345
L 733 345
L 735 346
L 737 347
L 740 346
L 742 347
L 744 345
L 746 348
L 748 349
L 751 347
L 753 349
L 755 349
L 757 348
L 760 348
L 762 350
L 764 349
L 766 349
L 768 347
L 771 348
L 773 350
L 775 349
L 777 349
L 780 349
L 782 349
L 784 350
L 786 349
L 788 349
L 791 350
L 793 350
L 795 350
L 797 348
L 800 350
L 802 349
L 804 349
L 806 350
L 808 350
L 811 349
L 813 350
L 815 350
L 817 349
L 819 350
L 822 350
L 824 348
L 826 349
L 828 350
L 831 348
L 833 350
L 835 348
L 837 348
L 839 345
L 842 348
L 844 345
L 846 349
L 848 348
L 851 347
L 853 345
L 855 350
L 857 348
L 859 348
L 862 348
L 864 348
L 866 349
L 868 349
L 871 349
L 873 349
L 875 347
L 877 348
L 879 348
L 882 347
L 884 346
L 886 347
L 888 347
L 890 348
L 893 347
L 895 346
L 897 347
L 899 345
L 902 346
L 904 346
L 906 350
L 908 344
L 910 346
L 913 347
L 915 346
L 917 346
L 919 349
L 922 348
L 924 346
L 926 350
L 928 346
L 930 348
L 933 346
L 935 347
L 937 344
L 939 347
L 942 344
L 944 349
L 946 345
L 948 346
L 950 346
L 953 346
L 955 344
L 957 347
L 959 346
L 961 347" style="stroke-width:1;stroke:rgba(0,217,101,1.0);fill:none"/><path  d="M 38 351
L 41 351
L 43 351
L 45 351
L 47 351
L 50 351
L 52 351
L 54 351
L 56 351
L 58 351
L 61 351
L 63 351
L 65 351
L 67 351
L 70 351
L 72 351
L 74 351
L 76 351
L 78 351
L 81 351
L 83 351
L 85 351
L 87 351
L 90 351
L 92 351
L 94 351
L 96 351
L 98 351
L 101 351
L 103 351
L 105 351
L 107 351
L 109 351
L 112 351
L 114 351
L 116 351
L 118 351
L 121 351
L 123 351
L 125 351
L 127 350
L 129 350
L 132 351
L 134 351
L 136 351
L 138 351
L 141 351
L 143 351
L 145 351
L 147 350
L 149 351
L 152 351
L 154 350
L 156 351
L 158 351
L 161 350
L 163 350
L 165 351
L 167 351
L 169 351
L 172 351
L 174 351
L 176 351
L 178 351
L 180 351
L 183 351
L 185 351
L 187 351
L 189 351
L 192 351
L 194 351
L 196 351
L 198 351
L 200 351
L 203 351
L 205 351
L 207 351
L 209 351
L 212 351
L 214 351
L 216 351
L 218 351
L 220 351
L 223 351
L 225 351
L 227 351
L 229 351
L 232 351
L 234 351
L 236 351
L 238 351
L 240 351
L 243 351
L 245 351
L 247 351
L 249 351
L 251 351
L 254 351
L 256 351
L 258 351
L 260 351
L 263 351
L 265 351
L 267 351
L 269 351
L 271 351
L 274 351
L 276 351
L 278 351
L 280 351
L 283 351
L 285 351
L 287 351
L 289 351
L 291 351
L 294 351
L 296 351
L 298 351
L 300 351
L 303 351
L 305 351
L 307 351
L 309 351
L 311 351
L 314 351
L 316 351
L 318 351
L 320 351
L 322 351
L 325 351
L 327 351
L 329 351
L 331 351
L 334 351
L 336 351
L 338 351
L 340 351
L 342 351
L 345 351
L 347 351
L 349 351
L 351 351
L 354 351
L 356 351
L 358 351
L 360 351
L 362 351
L 365 351
L 367 351
L 369 351
L 371 351
L 374 351
L 376 351
L 378 351
L 380 351
L 382 351
L 385 351
L 387 351
L 389 351
L 391 351
L 393 351
L 396 351
L 398 351
L 400 351
L 402 351
L 405 351
L 407 351
L 409 351
L 411 351
L 413 351
L 416 351
L 418 351
L 420 351
L 422 351
L 425 351
L 427 351
L 429 351
L 431 351
L 433 351
L 436 351
L 438 351
L 440 351
L 442 351
L 445 351
L 447 351
L 449 351
L 451 351
L 453 351
L 456 351
L 458 351
L 460 351
L 462 351
L 464 351
L 467 351
L 469 351
L 471 351
L 473 351
L 476 351
L 478 351
L 480 351
L 482 351
L 484 351
L 487 351
L 489 351
L 491 351
L 493 351
L 496 351
L 498 351
L 500 351
L 502 351
L 504 351
L 507 351
L 509 351
L 511 351
L 513 351
L 516 351
L 518 351
L 520 351
L 522 351
L 524 351
L 527 351
L 529 351
L 531 351
L 533 351
L 535 351
L 538 351
L 540 351
L 542 351
L 544 351
L 547 351
L 549 351
L 551 351
L 553 351
L 555 351
L 558 351
L 560 351
L 562 351
L 564 351
L 567 351
L 569 351
L 571 351
L 573 351
L 575 351
L 578 350
L 580 351
L 582 350
L 584 351
L 587 350
L 589 350
L 591 351
L 593 350
L 595 350
L 598 351
L 600 351
L 602 351
L 604 350
L 606 350
L 609 350
L 611 351
L 613 350
L 615 351
L 618 350
L 620 350
L 622 351
L 624 351
L 626 350
L 629 351
L 631 351
L 633 350
L 635 350
L 638 351
L 640 351
L 642 350
L 644 349
L 646 351
L 649 350
L 651 350
L 653 350
L 655 350
L 658 351
L 660 351
L 662 350
L 664 350
L 666 350
L 669 351
L 671 351
L 673 350
L 675 351
L 677 351
L 680 350
L 682 351
L 684 350
L 686 351
L 689 351
L 691 350
L 693 351
L 695 351
L 697 351
L 700 351
L 702 350
L 704 351
L 706 351
L 709 351
L 711 351
L 713 350
L 715 351
L 717 351
L 720 350
L 722 351
L 724 351
L 726 350
L 729 351
L 731 351
L 733 350
L 735 351
L 737 351
L 740 351
L 742 351
L 744 351
L 746 351
L 748 351
L 751 351
L 753 350
L 755 351
L 757 351
L 760 351
L 762 351
L 764 351
L 766 350
L 768 351
L 771 351
L 773 351
L 775 351
L 777 351
L 780 351
L 782 351
L 784 351
L 786 351
L 788 350
L 791 351
L 793 351
L 795 351
L 797 351
L 800 351
L 802 351
L 804 351
L 806 351
L 808 351
L 811 351
L 813 351
L 815 351
L 817 351
L 819 351
L 822 351
L 824 351
L 826 351
L 828 351
L 831 351
L 833 351
L 835 351
L 837 351
L 839 351
L 842 351
L 844 351
L 846 351
L 848 351
L 851 351
L 853 351
L 855 351
L 857 351
L 859 351
L 862 351
L 864 351
L 866 351
L 868 351
L 871 351
L 873 351
L 875 351
L 877 351
L 879 351
L 882 351
L 884 351
L 886 351
L 888 351
L 890 351
L 893 351
L 895 351
L 897 351
L 899 350
L 902 351
L 904 350
L 906 351
L 908 351
L 910 351
L 913 351
L 915 351
L 917 351
L 919 351
L 922 351
L 924 351
L 926 351
L 928 351
L 930 351
L 933 351
L 935 351
L 937 350
L 939 351
L 942 351
L 944 351
L 946 351
L 948 350
L 950 351
L 953 350
L 955 351
L 957 351
L 959 351
L 961 351" style="stroke-width:1;stroke:rgba(217,0,116,1.0);fill:none"/><text x="395" y="33" style="stroke-width:0;stroke:none;fill:rgba(51,51,51,1.0);font-size:23.0px;font-family:'Roboto Medium',sans-serif">Steyr-Land 17.04.2021</text><path  d="M 38 11
L 251 11
L 251 91
L 38 91
L 38 11" style="stroke-width:1;stroke:rgba(51,51,51,1.0);fill:rgba(255,255,255,1.0)"/><text x="43" y="26" style="stroke-width:0;stroke:none;fill:rgba(51,51,51,1.0);font-size:10.2px;font-family:'Roboto Medium',sans-serif">Sieben Tage Durschnitt Inzidenz Fälle</text><path  d="M 221 21
L 241 21" style="stroke-width:1;stroke:rgba(0,116,217,1.0);fill:none"/><text x="43" y="56" style="stroke-width:0;stroke:none;fill:rgba(51,51,51,1.0);font-size:10.2px;font-family:'Roboto Medium',sans-serif">Anzahl Faelle</text><path  d="M 110 51
L 241 51" style="stroke-width:1;stroke:rgba(0,217,101,1.0);fill:none"/><text x="43" y="86" style="stroke-width:0;stroke:none;fill:rgba(51,51,51,1.0);font-size:10.2px;font-family:'Roboto Medium',sans-serif">Anzahl Tot</text><path  d="M 98 81
L 241 81" style="stroke-width:1;stroke:rgba(217,0,116,1.0);fill:none"/></svg>