<svg xmlns="http://www.w3.org/2000/svg" xmlns:xlink="http://www.w3.org/1999/xlink" width="1024" height="400">\n<path  d="M 0 0
L 1024 0
L 1024 400
L 0 400
L 0 0" style="stroke-width:0;stroke:rgba(255,255,255,1.0);fill:rgba(255,255,255,1.0)"/><path  d="M 38 11
L 969 11
L 969 351
L 38 351
L 38 11" style="stroke-width:0;stroke:rgba(255,255,255,1.0);fill:rgba(255,255,255,1.0)"/><path  d="M 38 351
L 969 351" style="stroke-width:1;stroke:rgba(51,51,51,1.0);fill:none"/><path  d="M 38 351
L 38 356" style="stroke-width:1;stroke:rgba(51,51,51,1.0);fill:none"/><text x="5" y="373" style="stroke-width:0;stroke:none;fill:rgba(51,51,51,1.0);font-size:12.8px;font-family:'Roboto Medium',sans-serif">2020-02-26</text><path  d="M 155 351
L 155 356" style="stroke-width:1;stroke:rgba(51,51,51,1.0);fill:none"/><text x="122" y="373" style="stroke-width:0;stroke:none;fill:rgba(51,51,51,1.0);font-size:12.8px;font-family:'Roboto Medium',sans-serif">2020-04-22</text><path  d="M 271 351
L 271 356" style="stroke-width:1;stroke:rgba(51,51,51,1.0);fill:none"/><text x="238" y="373" style="stroke-width:0;stroke:none;fill:rgba(51,51,51,1.0);font-size:12.8px;font-family:'Roboto Medium',sans-serif">2020-06-18</text><path  d="M 388 351
L 388 356" style="stroke-width:1;stroke:rgba(51,51,51,1.0);fill:none"/><text x="355" y="373" style="stroke-width:0;stroke:none;fill:rgba(51,51,51,1.0);font-size:12.8px;font-family:'Roboto Medium',sans-serif">2020-08-13</text><path  d="M 504 351
L 504 356" style="stroke-width:1;stroke:rgba(51,51,51,1.0);fill:none"/><text x="471" y="373" style="stroke-width:0;stroke:none;fill:rgba(51,51,51,1.0);font-size:12.8px;font-family:'Roboto Medium',sans-serif">2020-10-09</text><path  d="M 620 351
L 620 356" style="stroke-width:1;stroke:rgba(51,51,51,1.0);fill:none"/><text x="587" y="373" style="stroke-width:0;stroke:none;fill:rgba(51,51,51,1.0);font-size:12.8px;font-family:'Roboto Medium',sans-serif">2020-12-05</text><path  d="M 737 351
L 737 356" style="stroke-width:1;stroke:rgba(51,51,51,1.0);fill:none"/><text x="704" y="373" style="stroke-width:0;stroke:none;fill:rgba(51,51,51,1.0);font-size:12.8px;font-family:'Roboto Medium',sans-serif">2021-01-30</text><path  d="M 853 351
L 853 356" style="stroke-width:1;stroke:rgba(51,51,51,1.0);fill:none"/><text x="820" y="373" style="stroke-width:0;stroke:none;fill:rgba(51,51,51,1.0);font-size:12.8px;font-family:'Roboto Medium',sans-serif">2021-03-28</text><path  d="M 969 351
L 969 356" style="stroke-width:1;stroke:rgba(51,51,51,1.0);fill:none"/><text x="936" y="373" style="stroke-width:0;stroke:none;fill:rgba(51,51,51,1.0);font-size:12.8px;font-family:'Roboto Medium',sans-serif">2021-05-24</text><text x="485" y="395" style="stroke-width:0;stroke:none;fill:rgba(51,51,51,1.0);font-size:12.8px;font-family:'Roboto Medium',sans-serif">Datum</text><path  d="M 970 351
L 970 11" style="stroke-width:1;stroke:rgba(51,51,51,1.0);fill:none"/><path  d="M 970 351
L 975 351" style="stroke-width:1;stroke:rgba(51,51,51,1.0);fill:none"/><text x="980" y="357" style="stroke-width:0;stroke:none;fill:rgba(51,51,51,1.0);font-size:12.8px;font-family:'Roboto Medium',sans-serif">0.00</text><path  d="M 970 308
L 975 308" style="stroke-width:1;stroke:rgba(51,51,51,1.0);fill:none"/><text x="980" y="314" style="stroke-width:0;stroke:none;fill:rgba(51,51,51,1.0);font-size:12.8px;font-family:'Roboto Medium',sans-serif">80.00</text><path  d="M 970 266
L 975 266" style="stroke-width:1;stroke:rgba(51,51,51,1.0);fill:none"/><text x="980" y="272" style="stroke-width:0;stroke:none;fill:rgba(51,51,51,1.0);font-size:12.8px;font-family:'Roboto Medium',sans-serif">160.00</text><path  d="M 970 223
L 975 223" style="stroke-width:1;stroke:rgba(51,51,51,1.0);fill:none"/><text x="980" y="229" style="stroke-width:0;stroke:none;fill:rgba(51,51,51,1.0);font-size:12.8px;font-family:'Roboto Medium',sans-serif">240.00</text><path  d="M 970 181
L 975 181" style="stroke-width:1;stroke:rgba(51,51,51,1.0);fill:none"/><text x="980" y="187" style="stroke-width:0;stroke:none;fill:rgba(51,51,51,1.0);font-size:12.8px;font-family:'Roboto Medium',sans-serif">320.00</text><path  d="M 970 138
L 975 138" style="stroke-width:1;stroke:rgba(51,51,51,1.0);fill:none"/><text x="980" y="144" style="stroke-width:0;stroke:none;fill:rgba(51,51,51,1.0);font-size:12.8px;font-family:'Roboto Medium',sans-serif">400.00</text><path  d="M 970 96
L 975 96" style="stroke-width:1;stroke:rgba(51,51,51,1.0);fill:none"/><text x="980" y="102" style="stroke-width:0;stroke:none;fill:rgba(51,51,51,1.0);font-size:12.8px;font-family:'Roboto Medium',sans-serif">480.00</text><path  d="M 970 53
L 975 53" style="stroke-width:1;stroke:rgba(51,51,51,1.0);fill:none"/><text x="980" y="59" style="stroke-width:0;stroke:none;fill:rgba(51,51,51,1.0);font-size:12.8px;font-family:'Roboto Medium',sans-serif">560.00</text><path  d="M 970 11
L 975 11" style="stroke-width:1;stroke:rgba(51,51,51,1.0);fill:none"/><text x="980" y="17" style="stroke-width:0;stroke:none;fill:rgba(51,51,51,1.0);font-size:12.8px;font-family:'Roboto Medium',sans-serif">640.00</text><path  d="M 38 351
L 41 351
L 43 351
L 45 351
L 47 351
L 49 351
L 51 351
L 53 351
L 55 351
L 57 351
L 59 351
L 61 351
L 63 351
L 65 351
L 67 351
L 69 350
L 71 349
L 73 349
L 75 349
L 78 346
L 80 345
L 82 343
L 84 342
L 86 340
L 88 339
L 90 338
L 92 341
L 94 340
L 96 342
L 98 341
L 100 342
L 102 342
L 104 342
L 106 342
L 108 341
L 110 342
L 112 344
L 115 344
L 117 344
L 119 345
L 121 345
L 123 346
L 125 344
L 127 345
L 129 346
L 131 346
L 133 346
L 135 347
L 137 348
L 139 349
L 141 349
L 143 348
L 145 348
L 147 347
L 149 345
L 152 345
L 154 345
L 156 345
L 158 346
L 160 345
L 162 346
L 164 348
L 166 348
L 168 349
L 170 348
L 172 349
L 174 350
L 176 350
L 178 349
L 180 349
L 182 348
L 184 349
L 186 349
L 189 349
L 191 349
L 193 349
L 195 349
L 197 351
L 199 351
L 201 351
L 203 351
L 205 351
L 207 351
L 209 351
L 211 351
L 213 351
L 215 351
L 217 351
L 219 351
L 221 351
L 223 351
L 226 351
L 228 351
L 230 351
L 232 351
L 234 351
L 236 351
L 238 351
L 240 351
L 242 351
L 244 351
L 246 351
L 248 351
L 250 351
L 252 351
L 254 351
L 256 351
L 258 351
L 260 351
L 263 351
L 265 351
L 267 351
L 269 351
L 271 351
L 273 351
L 275 351
L 277 351
L 279 351
L 281 351
L 283 351
L 285 351
L 287 350
L 289 350
L 291 350
L 293 350
L 295 350
L 297 350
L 300 350
L 302 349
L 304 349
L 306 349
L 308 349
L 310 349
L 312 348
L 314 348
L 316 349
L 318 349
L 320 349
L 322 349
L 324 349
L 326 351
L 328 351
L 330 350
L 332 350
L 334 350
L 337 350
L 339 350
L 341 350
L 343 350
L 345 351
L 347 351
L 349 351
L 351 351
L 353 351
L 355 351
L 357 351
L 359 351
L 361 351
L 363 351
L 365 351
L 367 351
L 369 351
L 371 351
L 373 351
L 376 351
L 378 351
L 380 351
L 382 351
L 384 351
L 386 351
L 388 351
L 390 351
L 392 351
L 394 351
L 396 350
L 398 350
L 400 349
L 402 349
L 404 349
L 406 349
L 408 348
L 410 349
L 413 349
L 415 349
L 417 349
L 419 348
L 421 349
L 423 349
L 425 349
L 427 349
L 429 349
L 431 349
L 433 349
L 435 349
L 437 349
L 439 349
L 441 348
L 443 348
L 445 346
L 447 345
L 450 344
L 452 344
L 454 344
L 456 344
L 458 345
L 460 346
L 462 347
L 464 347
L 466 347
L 468 347
L 470 348
L 472 347
L 474 347
L 476 348
L 478 348
L 480 348
L 482 348
L 484 348
L 487 349
L 489 349
L 491 349
L 493 349
L 495 349
L 497 349
L 499 349
L 501 347
L 503 346
L 505 344
L 507 344
L 509 342
L 511 337
L 513 335
L 515 337
L 517 333
L 519 331
L 521 326
L 524 324
L 526 326
L 528 316
L 530 306
L 532 302
L 534 289
L 536 282
L 538 260
L 540 242
L 542 218
L 544 186
L 546 139
L 548 116
L 550 104
L 552 117
L 554 90
L 556 63
L 558 59
L 561 54
L 563 47
L 565 36
L 567 17
L 569 31
L 571 15
L 573 24
L 575 43
L 577 56
L 579 72
L 581 81
L 583 86
L 585 106
L 587 113
L 589 120
L 591 132
L 593 141
L 595 151
L 598 136
L 600 164
L 602 169
L 604 184
L 606 180
L 608 172
L 610 167
L 612 173
L 614 165
L 616 173
L 618 164
L 620 170
L 622 181
L 624 187
L 626 211
L 628 235
L 630 239
L 632 251
L 635 257
L 637 244
L 639 239
L 641 239
L 643 239
L 645 244
L 647 252
L 649 258
L 651 268
L 653 270
L 655 273
L 657 265
L 659 253
L 661 261
L 663 264
L 665 265
L 667 272
L 669 267
L 671 266
L 674 278
L 676 277
L 678 271
L 680 272
L 682 268
L 684 266
L 686 274
L 688 267
L 690 256
L 692 246
L 694 246
L 696 244
L 698 237
L 700 241
L 702 253
L 704 254
L 706 263
L 708 265
L 711 267
L 713 275
L 715 276
L 717 265
L 719 258
L 721 252
L 723 239
L 725 229
L 727 215
L 729 201
L 731 201
L 733 201
L 735 209
L 737 220
L 739 229
L 741 239
L 743 242
L 745 241
L 748 249
L 750 256
L 752 243
L 754 243
L 756 251
L 758 259
L 760 268
L 762 270
L 764 256
L 766 265
L 768 268
L 770 273
L 772 270
L 774 249
L 776 242
L 778 250
L 780 242
L 782 238
L 785 230
L 787 227
L 789 247
L 791 247
L 793 234
L 795 244
L 797 244
L 799 240
L 801 247
L 803 244
L 805 235
L 807 244
L 809 235
L 811 236
L 813 253
L 815 251
L 817 250
L 819 253
L 822 246
L 824 249
L 826 254
L 828 253
L 830 247
L 832 240
L 834 239
L 836 251
L 838 254
L 840 247
L 842 232
L 844 236
L 846 225
L 848 245
L 850 247
L 852 219
L 854 223
L 856 237
L 859 239
L 861 246
L 863 233
L 865 221
L 867 249
L 869 251
L 871 242
L 873 249
L 875 260
L 877 251
L 879 264
L 881 254
L 883 253
L 885 256
L 887 249
L 889 251
L 891 270
L 893 266
L 896 282
L 898 278
L 900 278
L 902 278
L 904 270
L 906 266
L 908 264
L 910 254
L 912 246
L 914 247
L 916 249
L 918 250
L 920 251
L 922 254
L 924 259
L 926 263
L 928 259
L 930 261
L 933 264
L 935 268
L 937 271
L 939 272
L 941 285
L 943 299
L 945 303
L 947 311
L 949 316
L 951 316
L 953 321
L 955 325
L 957 326
L 959 330
L 961 333
L 963 328
L 965 332
L 967 333
L 969 334" style="stroke-width:1;stroke:rgba(0,116,217,1.0);fill:none"/><path  d="M 38 351
L 41 351
L 43 351
L 45 351
L 47 351
L 49 351
L 51 351
L 53 351
L 55 351
L 57 351
L 59 351
L 61 351
L 63 351
L 65 351
L 67 351
L 69 350
L 71 350
L 73 351
L 75 351
L 78 348
L 80 350
L 82 348
L 84 349
L 86 348
L 88 350
L 90 350
L 92 350
L 94 349
L 96 349
L 98 348
L 100 349
L 102 351
L 104 349
L 106 350
L 108 349
L 110 351
L 112 349
L 115 349
L 117 351
L 119 351
L 121 349
L 123 350
L 125 349
L 127 350
L 129 351
L 131 351
L 133 351
L 135 351
L 137 351
L 139 349
L 141 351
L 143 349
L 145 351
L 147 349
L 149 349
L 152 351
L 154 350
L 156 351
L 158 350
L 160 349
L 162 351
L 164 351
L 166 351
L 168 351
L 170 350
L 172 351
L 174 351
L 176 351
L 178 350
L 180 351
L 182 349
L 184 351
L 186 351
L 189 351
L 191 351
L 193 351
L 195 351
L 197 351
L 199 351
L 201 351
L 203 351
L 205 351
L 207 351
L 209 351
L 211 351
L 213 351
L 215 351
L 217 351
L 219 351
L 221 351
L 223 351
L 226 351
L 228 351
L 230 351
L 232 351
L 234 351
L 236 351
L 238 351
L 240 351
L 242 351
L 244 351
L 246 351
L 248 351
L 250 351
L 252 351
L 254 351
L 256 351
L 258 351
L 260 351
L 263 351
L 265 351
L 267 351
L 269 351
L 271 351
L 273 351
L 275 351
L 277 351
L 279 351
L 281 351
L 283 351
L 285 351
L 287 350
L 289 351
L 291 351
L 293 351
L 295 351
L 297 351
L 300 351
L 302 349
L 304 351
L 306 351
L 308 351
L 310 351
L 312 349
L 314 351
L 316 351
L 318 351
L 320 351
L 322 351
L 324 351
L 326 351
L 328 351
L 330 350
L 332 351
L 334 351
L 337 351
L 339 351
L 341 351
L 343 351
L 345 351
L 347 351
L 349 351
L 351 351
L 353 351
L 355 351
L 357 351
L 359 351
L 361 351
L 363 351
L 365 351
L 367 351
L 369 351
L 371 351
L 373 351
L 376 351
L 378 351
L 380 351
L 382 351
L 384 351
L 386 351
L 388 351
L 390 351
L 392 351
L 394 351
L 396 350
L 398 351
L 400 350
L 402 351
L 404 351
L 406 350
L 408 350
L 410 351
L 413 351
L 415 351
L 417 350
L 419 350
L 421 351
L 423 351
L 425 351
L 427 351
L 429 350
L 431 351
L 433 350
L 435 351
L 437 351
L 439 350
L 441 350
L 443 350
L 445 349
L 447 349
L 450 350
L 452 350
L 454 351
L 456 350
L 458 351
L 460 350
L 462 349
L 464 350
L 466 351
L 468 351
L 470 351
L 472 350
L 474 350
L 476 350
L 478 350
L 480 351
L 482 351
L 484 351
L 487 351
L 489 350
L 491 350
L 493 350
L 495 351
L 497 351
L 499 351
L 501 349
L 503 349
L 505 348
L 507 351
L 509 349
L 511 346
L 513 349
L 515 351
L 517 346
L 519 346
L 521 347
L 524 347
L 526 347
L 528 341
L 530 341
L 532 343
L 534 336
L 536 341
L 538 328
L 540 332
L 542 321
L 544 314
L 546 304
L 548 316
L 550 331
L 552 339
L 554 310
L 556 298
L 558 311
L 561 300
L 563 310
L 565 322
L 567 323
L 569 322
L 571 285
L 573 319
L 575 315
L 577 321
L 579 335
L 581 331
L 583 326
L 585 301
L 587 325
L 589 320
L 591 331
L 593 343
L 595 339
L 598 313
L 600 325
L 602 329
L 604 332
L 606 329
L 608 336
L 610 335
L 612 318
L 614 318
L 616 337
L 618 324
L 620 334
L 622 345
L 624 340
L 626 338
L 628 339
L 630 339
L 632 335
L 635 339
L 637 334
L 639 336
L 641 337
L 643 339
L 645 343
L 647 341
L 649 344
L 651 343
L 653 338
L 655 340
L 657 332
L 659 333
L 661 349
L 663 346
L 665 344
L 667 344
L 669 336
L 671 331
L 674 343
L 676 348
L 678 341
L 680 345
L 682 340
L 684 334
L 686 338
L 688 337
L 690 339
L 692 332
L 694 345
L 696 339
L 698 328
L 700 341
L 702 347
L 704 340
L 706 339
L 708 347
L 711 341
L 713 335
L 715 341
L 717 338
L 719 334
L 721 335
L 723 336
L 725 332
L 727 323
L 729 330
L 731 337
L 733 335
L 735 341
L 737 345
L 739 340
L 741 331
L 743 333
L 745 337
L 748 341
L 750 347
L 752 334
L 754 340
L 756 338
L 758 339
L 760 345
L 762 343
L 764 335
L 766 342
L 768 343
L 770 342
L 772 336
L 774 328
L 776 337
L 778 341
L 780 336
L 782 339
L 785 336
L 787 333
L 789 345
L 791 337
L 793 330
L 795 345
L 797 339
L 799 332
L 801 339
L 803 343
L 805 329
L 807 337
L 809 337
L 811 340
L 813 346
L 815 338
L 817 342
L 819 331
L 822 332
L 824 339
L 826 345
L 828 345
L 830 332
L 832 336
L 834 330
L 836 343
L 838 342
L 840 339
L 842 331
L 844 336
L 846 327
L 848 347
L 850 344
L 852 319
L 854 342
L 856 344
L 859 338
L 861 332
L 863 336
L 865 334
L 867 343
L 869 344
L 871 336
L 873 344
L 875 341
L 877 329
L 879 345
L 881 334
L 883 343
L 885 339
L 887 338
L 889 343
L 891 344
L 893 342
L 896 347
L 898 339
L 900 338
L 902 338
L 904 337
L 906 340
L 908 340
L 910 339
L 912 333
L 914 339
L 916 340
L 918 337
L 920 341
L 922 344
L 924 343
L 926 336
L 928 336
L 930 341
L 933 339
L 935 344
L 937 346
L 939 344
L 941 347
L 943 348
L 945 345
L 947 346
L 949 349
L 951 346
L 953 349
L 955 349
L 957 349
L 959 348
L 961 348
L 963 345
L 965 348
L 967 351
L 969 350" style="stroke-width:1;stroke:rgba(0,217,101,1.0);fill:none"/><path  d="M 38 351
L 41 351
L 43 351
L 45 351
L 47 351
L 49 351
L 51 351
L 53 351
L 55 351
L 57 351
L 59 351
L 61 351
L 63 351
L 65 351
L 67 351
L 69 351
L 71 351
L 73 351
L 75 351
L 78 351
L 80 351
L 82 351
L 84 351
L 86 351
L 88 351
L 90 351
L 92 351
L 94 351
L 96 351
L 98 351
L 100 351
L 102 351
L 104 351
L 106 351
L 108 351
L 110 351
L 112 351
L 115 351
L 117 351
L 119 351
L 121 351
L 123 351
L 125 351
L 127 351
L 129 351
L 131 351
L 133 351
L 135 351
L 137 351
L 139 351
L 141 351
L 143 351
L 145 351
L 147 350
L 149 351
L 152 351
L 154 351
L 156 351
L 158 351
L 160 351
L 162 351
L 164 351
L 166 351
L 168 351
L 170 351
L 172 351
L 174 351
L 176 351
L 178 351
L 180 351
L 182 351
L 184 351
L 186 351
L 189 351
L 191 351
L 193 351
L 195 351
L 197 350
L 199 351
L 201 351
L 203 351
L 205 351
L 207 351
L 209 351
L 211 351
L 213 351
L 215 351
L 217 351
L 219 351
L 221 351
L 223 351
L 226 351
L 228 351
L 230 351
L 232 351
L 234 351
L 236 351
L 238 351
L 240 351
L 242 351
L 244 351
L 246 351
L 248 351
L 250 351
L 252 351
L 254 351
L 256 351
L 258 351
L 260 351
L 263 351
L 265 351
L 267 351
L 269 351
L 271 351
L 273 351
L 275 351
L 277 351
L 279 351
L 281 351
L 283 351
L 285 351
L 287 351
L 289 351
L 291 351
L 293 351
L 295 351
L 297 351
L 300 351
L 302 351
L 304 351
L 306 351
L 308 351
L 310 351
L 312 351
L 314 351
L 316 351
L 318 351
L 320 351
L 322 351
L 324 351
L 326 351
L 328 351
L 330 351
L 332 351
L 334 351
L 337 351
L 339 351
L 341 351
L 343 351
L 345 351
L 347 351
L 349 351
L 351 351
L 353 351
L 355 351
L 357 351
L 359 351
L 361 351
L 363 351
L 365 351
L 367 351
L 369 351
L 371 351
L 373 351
L 376 351
L 378 351
L 380 351
L 382 351
L 384 351
L 386 351
L 388 351
L 390 351
L 392 351
L 394 351
L 396 351
L 398 351
L 400 351
L 402 351
L 404 351
L 406 351
L 408 351
L 410 351
L 413 351
L 415 351
L 417 351
L 419 351
L 421 351
L 423 351
L 425 351
L 427 351
L 429 351
L 431 351
L 433 351
L 435 351
L 437 351
L 439 351
L 441 351
L 443 351
L 445 351
L 447 351
L 450 351
L 452 351
L 454 351
L 456 351
L 458 351
L 460 351
L 462 351
L 464 351
L 466 351
L 468 351
L 470 351
L 472 351
L 474 351
L 476 351
L 478 351
L 480 351
L 482 351
L 484 351
L 487 351
L 489 351
L 491 351
L 493 351
L 495 351
L 497 351
L 499 351
L 501 351
L 503 351
L 505 351
L 507 351
L 509 351
L 511 351
L 513 351
L 515 351
L 517 351
L 519 350
L 521 351
L 524 351
L 526 351
L 528 351
L 530 351
L 532 351
L 534 351
L 536 351
L 538 351
L 540 350
L 542 349
L 544 351
L 546 349
L 548 351
L 550 351
L 552 351
L 554 350
L 556 350
L 558 349
L 561 350
L 563 350
L 565 349
L 567 350
L 569 349
L 571 351
L 573 351
L 575 348
L 577 349
L 579 349
L 581 349
L 583 349
L 585 349
L 587 351
L 589 347
L 591 349
L 593 351
L 595 350
L 598 348
L 600 349
L 602 349
L 604 349
L 606 349
L 608 350
L 610 349
L 612 348
L 614 348
L 616 348
L 618 351
L 620 350
L 622 349
L 624 348
L 626 347
L 628 349
L 630 349
L 632 349
L 635 350
L 637 350
L 639 351
L 641 350
L 643 350
L 645 349
L 647 350
L 649 349
L 651 351
L 653 350
L 655 350
L 657 351
L 659 351
L 661 351
L 663 350
L 665 350
L 667 351
L 669 351
L 671 350
L 674 350
L 676 350
L 678 350
L 680 350
L 682 350
L 684 350
L 686 351
L 688 350
L 690 350
L 692 351
L 694 351
L 696 350
L 698 351
L 700 351
L 702 350
L 704 351
L 706 349
L 708 350
L 711 351
L 713 350
L 715 351
L 717 351
L 719 350
L 721 351
L 723 351
L 725 351
L 727 351
L 729 350
L 731 350
L 733 351
L 735 350
L 737 350
L 739 351
L 741 350
L 743 351
L 745 351
L 748 350
L 750 351
L 752 349
L 754 349
L 756 350
L 758 349
L 760 350
L 762 350
L 764 351
L 766 351
L 768 350
L 770 351
L 772 351
L 774 350
L 776 350
L 778 351
L 780 351
L 782 351
L 785 351
L 787 349
L 789 349
L 791 351
L 793 349
L 795 351
L 797 349
L 799 351
L 801 349
L 803 351
L 805 351
L 807 351
L 809 351
L 811 350
L 813 350
L 815 351
L 817 350
L 819 350
L 822 350
L 824 351
L 826 351
L 828 351
L 830 351
L 832 351
L 834 350
L 836 351
L 838 351
L 840 351
L 842 350
L 844 351
L 846 351
L 848 351
L 850 351
L 852 351
L 854 351
L 856 351
L 859 350
L 861 350
L 863 351
L 865 351
L 867 351
L 869 350
L 871 351
L 873 351
L 875 351
L 877 351
L 879 351
L 881 351
L 883 351
L 885 351
L 887 351
L 889 351
L 891 350
L 893 351
L 896 351
L 898 351
L 900 349
L 902 351
L 904 351
L 906 351
L 908 351
L 910 351
L 912 351
L 914 351
L 916 351
L 918 350
L 920 351
L 922 350
L 924 351
L 926 351
L 928 351
L 930 351
L 933 351
L 935 351
L 937 351
L 939 351
L 941 351
L 943 351
L 945 351
L 947 351
L 949 350
L 951 351
L 953 351
L 955 351
L 957 351
L 959 351
L 961 351
L 963 351
L 965 351
L 967 351
L 969 351" style="stroke-width:1;stroke:rgba(217,0,116,1.0);fill:none"/><text x="359" y="33" style="stroke-width:0;stroke:none;fill:rgba(51,51,51,1.0);font-size:23.0px;font-family:'Roboto Medium',sans-serif">Südoststeiermark 24.05.2021</text><path  d="M 38 11
L 251 11
L 251 91
L 38 91
L 38 11" style="stroke-width:1;stroke:rgba(51,51,51,1.0);fill:rgba(255,255,255,1.0)"/><text x="43" y="26" style="stroke-width:0;stroke:none;fill:rgba(51,51,51,1.0);font-size:10.2px;font-family:'Roboto Medium',sans-serif">Sieben Tage Durschnitt Inzidenz Fälle</text><path  d="M 221 21
L 241 21" style="stroke-width:1;stroke:rgba(0,116,217,1.0);fill:none"/><text x="43" y="56" style="stroke-width:0;stroke:none;fill:rgba(51,51,51,1.0);font-size:10.2px;font-family:'Roboto Medium',sans-serif">Anzahl Faelle</text><path  d="M 110 51
L 241 51" style="stroke-width:1;stroke:rgba(0,217,101,1.0);fill:none"/><text x="43" y="86" style="stroke-width:0;stroke:none;fill:rgba(51,51,51,1.0);font-size:10.2px;font-family:'Roboto Medium',sans-serif">Anzahl Tot</text><path  d="M 98 81
L 241 81" style="stroke-width:1;stroke:rgba(217,0,116,1.0);fill:none"/></svg>