<svg xmlns="http://www.w3.org/2000/svg" xmlns:xlink="http://www.w3.org/1999/xlink" width="1024" height="400">\n<path  d="M 0 0
L 1024 0
L 1024 400
L 0 400
L 0 0" style="stroke-width:0;stroke:rgba(255,255,255,1.0);fill:rgba(255,255,255,1.0)"/><path  d="M 38 11
L 961 11
L 961 351
L 38 351
L 38 11" style="stroke-width:0;stroke:rgba(255,255,255,1.0);fill:rgba(255,255,255,1.0)"/><path  d="M 38 351
L 961 351" style="stroke-width:1;stroke:rgba(51,51,51,1.0);fill:none"/><path  d="M 38 351
L 38 356" style="stroke-width:1;stroke:rgba(51,51,51,1.0);fill:none"/><text x="5" y="373" style="stroke-width:0;stroke:none;fill:rgba(51,51,51,1.0);font-size:12.8px;font-family:'Roboto Medium',sans-serif">2020-02-26</text><path  d="M 154 351
L 154 356" style="stroke-width:1;stroke:rgba(51,51,51,1.0);fill:none"/><text x="121" y="373" style="stroke-width:0;stroke:none;fill:rgba(51,51,51,1.0);font-size:12.8px;font-family:'Roboto Medium',sans-serif">2020-06-04</text><path  d="M 269 351
L 269 356" style="stroke-width:1;stroke:rgba(51,51,51,1.0);fill:none"/><text x="236" y="373" style="stroke-width:0;stroke:none;fill:rgba(51,51,51,1.0);font-size:12.8px;font-family:'Roboto Medium',sans-serif">2020-09-12</text><path  d="M 385 351
L 385 356" style="stroke-width:1;stroke:rgba(51,51,51,1.0);fill:none"/><text x="352" y="373" style="stroke-width:0;stroke:none;fill:rgba(51,51,51,1.0);font-size:12.8px;font-family:'Roboto Medium',sans-serif">2020-12-21</text><path  d="M 500 351
L 500 356" style="stroke-width:1;stroke:rgba(51,51,51,1.0);fill:none"/><text x="467" y="373" style="stroke-width:0;stroke:none;fill:rgba(51,51,51,1.0);font-size:12.8px;font-family:'Roboto Medium',sans-serif">2021-03-31</text><path  d="M 615 351
L 615 356" style="stroke-width:1;stroke:rgba(51,51,51,1.0);fill:none"/><text x="582" y="373" style="stroke-width:0;stroke:none;fill:rgba(51,51,51,1.0);font-size:12.8px;font-family:'Roboto Medium',sans-serif">2021-07-08</text><path  d="M 731 351
L 731 356" style="stroke-width:1;stroke:rgba(51,51,51,1.0);fill:none"/><text x="698" y="373" style="stroke-width:0;stroke:none;fill:rgba(51,51,51,1.0);font-size:12.8px;font-family:'Roboto Medium',sans-serif">2021-10-16</text><path  d="M 846 351
L 846 356" style="stroke-width:1;stroke:rgba(51,51,51,1.0);fill:none"/><text x="813" y="373" style="stroke-width:0;stroke:none;fill:rgba(51,51,51,1.0);font-size:12.8px;font-family:'Roboto Medium',sans-serif">2022-01-24</text><path  d="M 961 351
L 961 356" style="stroke-width:1;stroke:rgba(51,51,51,1.0);fill:none"/><text x="928" y="373" style="stroke-width:0;stroke:none;fill:rgba(51,51,51,1.0);font-size:12.8px;font-family:'Roboto Medium',sans-serif">2022-05-04</text><text x="481" y="395" style="stroke-width:0;stroke:none;fill:rgba(51,51,51,1.0);font-size:12.8px;font-family:'Roboto Medium',sans-serif">Datum</text><path  d="M 962 351
L 962 11" style="stroke-width:1;stroke:rgba(51,51,51,1.0);fill:none"/><path  d="M 962 351
L 967 351" style="stroke-width:1;stroke:rgba(51,51,51,1.0);fill:none"/><text x="972" y="357" style="stroke-width:0;stroke:none;fill:rgba(51,51,51,1.0);font-size:12.8px;font-family:'Roboto Medium',sans-serif">0.00</text><path  d="M 962 308
L 967 308" style="stroke-width:1;stroke:rgba(51,51,51,1.0);fill:none"/><text x="972" y="314" style="stroke-width:0;stroke:none;fill:rgba(51,51,51,1.0);font-size:12.8px;font-family:'Roboto Medium',sans-serif">650.00</text><path  d="M 962 266
L 967 266" style="stroke-width:1;stroke:rgba(51,51,51,1.0);fill:none"/><text x="972" y="272" style="stroke-width:0;stroke:none;fill:rgba(51,51,51,1.0);font-size:12.8px;font-family:'Roboto Medium',sans-serif">1300.00</text><path  d="M 962 223
L 967 223" style="stroke-width:1;stroke:rgba(51,51,51,1.0);fill:none"/><text x="972" y="229" style="stroke-width:0;stroke:none;fill:rgba(51,51,51,1.0);font-size:12.8px;font-family:'Roboto Medium',sans-serif">1950.00</text><path  d="M 962 181
L 967 181" style="stroke-width:1;stroke:rgba(51,51,51,1.0);fill:none"/><text x="972" y="187" style="stroke-width:0;stroke:none;fill:rgba(51,51,51,1.0);font-size:12.8px;font-family:'Roboto Medium',sans-serif">2600.00</text><path  d="M 962 138
L 967 138" style="stroke-width:1;stroke:rgba(51,51,51,1.0);fill:none"/><text x="972" y="144" style="stroke-width:0;stroke:none;fill:rgba(51,51,51,1.0);font-size:12.8px;font-family:'Roboto Medium',sans-serif">3250.00</text><path  d="M 962 96
L 967 96" style="stroke-width:1;stroke:rgba(51,51,51,1.0);fill:none"/><text x="972" y="102" style="stroke-width:0;stroke:none;fill:rgba(51,51,51,1.0);font-size:12.8px;font-family:'Roboto Medium',sans-serif">3900.00</text><path  d="M 962 53
L 967 53" style="stroke-width:1;stroke:rgba(51,51,51,1.0);fill:none"/><text x="972" y="59" style="stroke-width:0;stroke:none;fill:rgba(51,51,51,1.0);font-size:12.8px;font-family:'Roboto Medium',sans-serif">4550.00</text><path  d="M 962 11
L 967 11" style="stroke-width:1;stroke:rgba(51,51,51,1.0);fill:none"/><text x="972" y="17" style="stroke-width:0;stroke:none;fill:rgba(51,51,51,1.0);font-size:12.8px;font-family:'Roboto Medium',sans-serif">5200.00</text><path  d="M 38 351
L 40 351
L 41 351
L 42 351
L 43 351
L 44 351
L 45 351
L 47 351
L 48 351
L 49 351
L 50 351
L 51 351
L 52 351
L 54 351
L 55 351
L 56 350
L 57 350
L 58 350
L 59 350
L 60 350
L 62 350
L 63 350
L 64 349
L 65 349
L 66 349
L 67 349
L 69 349
L 70 349
L 71 349
L 72 349
L 73 349
L 74 349
L 76 349
L 77 349
L 78 349
L 79 349
L 80 350
L 81 350
L 82 350
L 84 350
L 85 350
L 86 350
L 87 350
L 88 350
L 89 350
L 91 350
L 92 350
L 93 350
L 94 350
L 95 350
L 96 350
L 97 350
L 99 350
L 100 350
L 101 350
L 102 350
L 103 350
L 104 350
L 106 350
L 107 350
L 108 350
L 109 350
L 110 350
L 111 350
L 113 350
L 114 350
L 115 350
L 116 350
L 117 350
L 118 350
L 119 350
L 121 350
L 122 350
L 123 350
L 124 350
L 125 350
L 126 350
L 128 351
L 129 351
L 130 351
L 131 351
L 132 351
L 133 351
L 135 351
L 136 351
L 137 351
L 138 351
L 139 351
L 140 351
L 141 351
L 143 351
L 144 351
L 145 351
L 146 351
L 147 351
L 148 351
L 150 351
L 151 351
L 152 351
L 153 351
L 154 351
L 155 351
L 156 351
L 158 351
L 159 351
L 160 351
L 161 351
L 162 351
L 163 351
L 165 351
L 166 351
L 167 351
L 168 351
L 169 351
L 170 351
L 172 351
L 173 351
L 174 351
L 175 351
L 176 351
L 177 351
L 178 350
L 180 350
L 181 350
L 182 350
L 183 350
L 184 350
L 185 350
L 187 350
L 188 350
L 189 350
L 190 350
L 191 350
L 192 350
L 193 350
L 195 350
L 196 350
L 197 350
L 198 350
L 199 350
L 200 351
L 202 351
L 203 350
L 204 350
L 205 350
L 206 350
L 207 350
L 209 350
L 210 350
L 211 351
L 212 351
L 213 351
L 214 351
L 215 351
L 217 351
L 218 351
L 219 351
L 220 351
L 221 351
L 222 351
L 224 351
L 225 351
L 226 351
L 227 351
L 228 351
L 229 351
L 231 351
L 232 351
L 233 351
L 234 351
L 235 351
L 236 351
L 237 351
L 239 351
L 240 350
L 241 350
L 242 350
L 243 350
L 244 350
L 246 350
L 247 350
L 248 350
L 249 350
L 250 350
L 251 350
L 252 350
L 254 350
L 255 350
L 256 350
L 257 350
L 258 350
L 259 350
L 261 350
L 262 350
L 263 350
L 264 350
L 265 350
L 266 350
L 268 350
L 269 350
L 270 350
L 271 350
L 272 350
L 273 350
L 274 350
L 276 350
L 277 350
L 278 350
L 279 350
L 280 350
L 281 350
L 283 350
L 284 350
L 285 350
L 286 350
L 287 350
L 288 350
L 289 350
L 291 350
L 292 350
L 293 350
L 294 350
L 295 350
L 296 350
L 298 350
L 299 350
L 300 350
L 301 350
L 302 350
L 303 349
L 305 349
L 306 349
L 307 349
L 308 348
L 309 348
L 310 348
L 311 347
L 313 347
L 314 346
L 315 345
L 316 344
L 317 343
L 318 342
L 320 339
L 321 337
L 322 334
L 323 330
L 324 325
L 325 322
L 327 320
L 328 322
L 329 318
L 330 315
L 331 315
L 332 314
L 333 313
L 335 312
L 336 309
L 337 311
L 338 309
L 339 310
L 340 312
L 342 314
L 343 316
L 344 317
L 345 318
L 346 321
L 347 321
L 348 322
L 350 324
L 351 325
L 352 326
L 353 324
L 354 328
L 355 328
L 357 330
L 358 330
L 359 329
L 360 328
L 361 329
L 362 327
L 364 329
L 365 327
L 366 328
L 367 330
L 368 330
L 369 333
L 370 336
L 372 337
L 373 338
L 374 339
L 375 337
L 376 337
L 377 337
L 379 337
L 380 337
L 381 338
L 382 339
L 383 340
L 384 340
L 385 341
L 387 340
L 388 338
L 389 339
L 390 340
L 391 340
L 392 341
L 394 340
L 395 340
L 396 342
L 397 341
L 398 341
L 399 341
L 401 340
L 402 340
L 403 341
L 404 340
L 405 339
L 406 338
L 407 338
L 409 338
L 410 337
L 411 337
L 412 339
L 413 339
L 414 340
L 416 340
L 417 340
L 418 341
L 419 341
L 420 340
L 421 339
L 423 338
L 424 337
L 425 336
L 426 334
L 427 332
L 428 332
L 429 332
L 431 333
L 432 334
L 433 335
L 434 337
L 435 337
L 436 337
L 438 338
L 439 339
L 440 337
L 441 337
L 442 338
L 443 339
L 444 340
L 446 341
L 447 339
L 448 340
L 449 340
L 450 341
L 451 341
L 453 338
L 454 337
L 455 338
L 456 337
L 457 337
L 458 336
L 460 335
L 461 338
L 462 338
L 463 336
L 464 337
L 465 337
L 466 337
L 468 338
L 469 337
L 470 336
L 471 337
L 472 336
L 473 336
L 475 338
L 476 338
L 477 338
L 478 338
L 479 338
L 480 338
L 481 339
L 483 339
L 484 338
L 485 337
L 486 337
L 487 338
L 488 339
L 490 338
L 491 336
L 492 336
L 493 335
L 494 337
L 495 338
L 497 334
L 498 335
L 499 336
L 500 337
L 501 337
L 502 336
L 503 334
L 505 338
L 506 338
L 507 337
L 508 338
L 509 339
L 510 338
L 512 340
L 513 339
L 514 338
L 515 339
L 516 338
L 517 338
L 519 341
L 520 340
L 521 342
L 522 342
L 523 342
L 524 342
L 525 341
L 527 340
L 528 340
L 529 339
L 530 338
L 531 338
L 532 338
L 534 338
L 535 338
L 536 339
L 537 339
L 538 340
L 539 339
L 540 340
L 542 340
L 543 340
L 544 341
L 545 341
L 546 343
L 547 344
L 549 345
L 550 346
L 551 346
L 552 346
L 553 347
L 554 347
L 556 348
L 557 348
L 558 348
L 559 348
L 560 348
L 561 348
L 562 348
L 564 348
L 565 348
L 566 348
L 567 349
L 568 349
L 569 349
L 571 348
L 572 348
L 573 349
L 574 349
L 575 349
L 576 349
L 577 348
L 579 348
L 580 349
L 581 349
L 582 349
L 583 349
L 584 349
L 586 350
L 587 350
L 588 350
L 589 350
L 590 350
L 591 350
L 593 351
L 594 351
L 595 350
L 596 350
L 597 350
L 598 350
L 599 350
L 601 350
L 602 350
L 603 351
L 604 351
L 605 350
L 606 350
L 608 350
L 609 350
L 610 350
L 611 350
L 612 350
L 613 350
L 615 350
L 616 350
L 617 350
L 618 350
L 619 350
L 620 350
L 621 350
L 623 350
L 624 350
L 625 350
L 626 350
L 627 350
L 628 350
L 630 350
L 631 350
L 632 350
L 633 350
L 634 350
L 635 350
L 636 350
L 638 350
L 639 350
L 640 350
L 641 349
L 642 349
L 643 349
L 645 349
L 646 349
L 647 350
L 648 349
L 649 349
L 650 349
L 652 349
L 653 349
L 654 349
L 655 349
L 656 349
L 657 349
L 658 349
L 660 349
L 661 349
L 662 348
L 663 349
L 664 348
L 665 349
L 667 348
L 668 349
L 669 349
L 670 348
L 671 348
L 672 348
L 673 348
L 675 348
L 676 347
L 677 347
L 678 347
L 679 347
L 680 348
L 682 347
L 683 348
L 684 347
L 685 348
L 686 348
L 687 348
L 689 347
L 690 347
L 691 347
L 692 347
L 693 347
L 694 347
L 695 346
L 697 346
L 698 345
L 699 345
L 700 344
L 701 344
L 702 344
L 704 344
L 705 344
L 706 345
L 707 345
L 708 345
L 709 344
L 711 343
L 712 343
L 713 342
L 714 342
L 715 341
L 716 341
L 717 341
L 719 340
L 720 340
L 721 341
L 722 339
L 723 340
L 724 340
L 726 338
L 727 339
L 728 338
L 729 338
L 730 339
L 731 338
L 732 337
L 734 339
L 735 336
L 736 335
L 737 333
L 738 332
L 739 331
L 741 329
L 742 328
L 743 331
L 744 329
L 745 327
L 746 325
L 748 323
L 749 323
L 750 319
L 751 311
L 752 308
L 753 303
L 754 305
L 756 300
L 757 298
L 758 296
L 759 293
L 760 294
L 761 295
L 763 288
L 764 291
L 765 291
L 766 288
L 767 296
L 768 294
L 769 295
L 771 297
L 772 294
L 773 293
L 774 301
L 775 296
L 776 298
L 778 299
L 779 301
L 780 306
L 781 309
L 782 307
L 783 310
L 785 314
L 786 317
L 787 320
L 788 322
L 789 322
L 790 325
L 791 329
L 793 330
L 794 332
L 795 334
L 796 334
L 797 335
L 798 336
L 800 336
L 801 337
L 802 338
L 803 339
L 804 339
L 805 340
L 807 342
L 808 342
L 809 343
L 810 343
L 811 343
L 812 343
L 813 343
L 815 343
L 816 343
L 817 344
L 818 344
L 819 344
L 820 344
L 822 343
L 823 342
L 824 341
L 825 339
L 826 337
L 827 334
L 828 333
L 830 332
L 831 331
L 832 329
L 833 328
L 834 325
L 835 325
L 837 322
L 838 319
L 839 313
L 840 305
L 841 297
L 842 289
L 844 283
L 845 275
L 846 272
L 847 263
L 848 258
L 849 246
L 850 238
L 852 228
L 853 223
L 854 219
L 855 204
L 856 196
L 857 190
L 859 186
L 860 180
L 861 177
L 862 170
L 863 172
L 864 164
L 865 173
L 867 169
L 868 173
L 869 175
L 870 180
L 871 184
L 872 195
L 874 193
L 875 200
L 876 201
L 877 206
L 878 205
L 879 211
L 881 211
L 882 215
L 883 216
L 884 218
L 885 213
L 886 205
L 887 192
L 889 177
L 890 171
L 891 160
L 892 144
L 893 138
L 894 138
L 896 124
L 897 98
L 898 71
L 899 55
L 900 50
L 901 32
L 903 23
L 904 15
L 905 18
L 906 31
L 907 31
L 908 34
L 909 50
L 911 59
L 912 75
L 913 98
L 914 110
L 915 136
L 916 155
L 918 164
L 919 173
L 920 190
L 921 207
L 922 220
L 923 231
L 924 239
L 926 251
L 927 259
L 928 273
L 929 284
L 930 287
L 931 294
L 933 297
L 934 300
L 935 304
L 936 307
L 937 309
L 938 312
L 940 314
L 941 315
L 942 315
L 943 316
L 944 320
L 945 320
L 946 324
L 948 326
L 949 326
L 950 327
L 951 327
L 952 326
L 953 329
L 955 329
L 956 329
L 957 330
L 958 330
L 959 330
L 960 332
L 961 333" style="stroke-width:1;stroke:rgba(0,116,217,1.0);fill:none"/><path  d="M 38 351
L 40 351
L 41 351
L 42 351
L 43 351
L 44 351
L 45 351
L 47 351
L 48 351
L 49 351
L 50 351
L 51 351
L 52 351
L 54 351
L 55 351
L 56 350
L 57 350
L 58 351
L 59 351
L 60 350
L 62 350
L 63 350
L 64 350
L 65 350
L 66 350
L 67 350
L 69 350
L 70 350
L 71 350
L 72 350
L 73 350
L 74 350
L 76 350
L 77 350
L 78 350
L 79 351
L 80 350
L 81 350
L 82 351
L 84 351
L 85 350
L 86 350
L 87 350
L 88 350
L 89 351
L 91 351
L 92 351
L 93 351
L 94 351
L 95 350
L 96 351
L 97 350
L 99 351
L 100 350
L 101 350
L 102 351
L 103 350
L 104 351
L 106 350
L 107 350
L 108 351
L 109 351
L 110 351
L 111 351
L 113 350
L 114 351
L 115 351
L 116 351
L 117 350
L 118 351
L 119 350
L 121 351
L 122 351
L 123 351
L 124 351
L 125 351
L 126 351
L 128 351
L 129 351
L 130 351
L 131 351
L 132 351
L 133 351
L 135 351
L 136 351
L 137 351
L 138 351
L 139 351
L 140 351
L 141 351
L 143 351
L 144 351
L 145 351
L 146 351
L 147 351
L 148 351
L 150 351
L 151 351
L 152 351
L 153 351
L 154 351
L 155 351
L 156 351
L 158 351
L 159 351
L 160 351
L 161 351
L 162 351
L 163 351
L 165 351
L 166 351
L 167 351
L 168 351
L 169 351
L 170 351
L 172 351
L 173 351
L 174 351
L 175 351
L 176 351
L 177 351
L 178 350
L 180 351
L 181 351
L 182 351
L 183 351
L 184 351
L 185 351
L 187 350
L 188 351
L 189 351
L 190 351
L 191 351
L 192 350
L 193 351
L 195 351
L 196 351
L 197 351
L 198 351
L 199 351
L 200 351
L 202 351
L 203 350
L 204 351
L 205 351
L 206 351
L 207 351
L 209 351
L 210 351
L 211 351
L 212 351
L 213 351
L 214 351
L 215 351
L 217 351
L 218 351
L 219 351
L 220 351
L 221 351
L 222 351
L 224 351
L 225 351
L 226 351
L 227 351
L 228 351
L 229 351
L 231 351
L 232 351
L 233 351
L 234 351
L 235 351
L 236 351
L 237 351
L 239 351
L 240 350
L 241 351
L 242 350
L 243 351
L 244 351
L 246 350
L 247 350
L 248 351
L 249 351
L 250 351
L 251 350
L 252 350
L 254 351
L 255 351
L 256 351
L 257 351
L 258 350
L 259 351
L 261 350
L 262 351
L 263 351
L 264 350
L 265 350
L 266 350
L 268 350
L 269 350
L 270 350
L 271 350
L 272 351
L 273 350
L 274 351
L 276 350
L 277 350
L 278 350
L 279 351
L 280 351
L 281 351
L 283 350
L 284 350
L 285 350
L 286 350
L 287 351
L 288 351
L 289 351
L 291 351
L 292 350
L 293 350
L 294 350
L 295 351
L 296 351
L 298 351
L 299 350
L 300 350
L 301 350
L 302 351
L 303 350
L 305 350
L 306 350
L 307 351
L 308 350
L 309 350
L 310 350
L 311 350
L 313 350
L 314 349
L 315 349
L 316 350
L 317 349
L 318 349
L 320 348
L 321 348
L 322 347
L 323 346
L 324 345
L 325 346
L 327 348
L 328 349
L 329 346
L 330 344
L 331 346
L 332 344
L 333 346
L 335 347
L 336 347
L 337 347
L 338 342
L 339 347
L 340 346
L 342 347
L 343 349
L 344 348
L 345 347
L 346 344
L 347 347
L 348 347
L 350 348
L 351 350
L 352 349
L 353 346
L 354 347
L 355 348
L 357 348
L 358 348
L 359 349
L 360 349
L 361 346
L 362 347
L 364 349
L 365 347
L 366 348
L 367 350
L 368 349
L 369 349
L 370 349
L 372 349
L 373 349
L 374 349
L 375 348
L 376 349
L 377 349
L 379 349
L 380 350
L 381 349
L 382 350
L 383 350
L 384 349
L 385 349
L 387 348
L 388 348
L 389 350
L 390 350
L 391 350
L 392 350
L 394 349
L 395 348
L 396 350
L 397 350
L 398 349
L 399 350
L 401 349
L 402 349
L 403 349
L 404 349
L 405 349
L 406 348
L 407 350
L 409 349
L 410 348
L 411 349
L 412 350
L 413 349
L 414 349
L 416 350
L 417 349
L 418 349
L 419 349
L 420 349
L 421 349
L 423 349
L 424 349
L 425 348
L 426 347
L 427 348
L 428 349
L 429 349
L 431 349
L 432 350
L 433 349
L 434 348
L 435 348
L 436 349
L 438 349
L 439 350
L 440 348
L 441 349
L 442 349
L 443 349
L 444 350
L 446 350
L 447 349
L 448 349
L 449 350
L 450 350
L 451 349
L 453 348
L 454 349
L 455 349
L 456 349
L 457 349
L 458 349
L 460 348
L 461 350
L 462 349
L 463 348
L 464 350
L 465 349
L 466 348
L 468 349
L 469 350
L 470 348
L 471 349
L 472 349
L 473 349
L 475 350
L 476 349
L 477 349
L 478 348
L 479 348
L 480 349
L 481 350
L 483 350
L 484 348
L 485 349
L 486 348
L 487 350
L 488 349
L 490 349
L 491 348
L 492 349
L 493 348
L 494 350
L 495 350
L 497 347
L 498 349
L 499 350
L 500 349
L 501 348
L 502 349
L 503 348
L 505 350
L 506 350
L 507 349
L 508 350
L 509 349
L 510 348
L 512 350
L 513 348
L 514 350
L 515 349
L 516 349
L 517 350
L 519 350
L 520 349
L 521 350
L 522 349
L 523 349
L 524 349
L 525 349
L 527 349
L 528 349
L 529 349
L 530 348
L 531 349
L 532 349
L 534 349
L 535 349
L 536 350
L 537 350
L 538 349
L 539 349
L 540 349
L 542 349
L 543 350
L 544 350
L 545 350
L 546 350
L 547 350
L 549 350
L 550 350
L 551 350
L 552 350
L 553 350
L 554 350
L 556 350
L 557 350
L 558 350
L 559 350
L 560 350
L 561 351
L 562 350
L 564 350
L 565 350
L 566 350
L 567 350
L 568 350
L 569 350
L 571 350
L 572 350
L 573 351
L 574 350
L 575 350
L 576 350
L 577 350
L 579 350
L 580 350
L 581 351
L 582 350
L 583 350
L 584 350
L 586 351
L 587 351
L 588 351
L 589 351
L 590 351
L 591 351
L 593 351
L 594 351
L 595 350
L 596 351
L 597 351
L 598 351
L 599 351
L 601 351
L 602 351
L 603 351
L 604 351
L 605 350
L 606 351
L 608 351
L 609 350
L 610 351
L 611 351
L 612 351
L 613 351
L 615 351
L 616 350
L 617 351
L 618 350
L 619 350
L 620 351
L 621 351
L 623 351
L 624 350
L 625 351
L 626 351
L 627 350
L 628 351
L 630 350
L 631 350
L 632 350
L 633 351
L 634 351
L 635 350
L 636 350
L 638 350
L 639 350
L 640 350
L 641 350
L 642 350
L 643 350
L 645 350
L 646 350
L 647 351
L 648 350
L 649 350
L 650 350
L 652 350
L 653 350
L 654 350
L 655 350
L 656 350
L 657 350
L 658 350
L 660 350
L 661 350
L 662 350
L 663 350
L 664 350
L 665 350
L 667 350
L 668 350
L 669 350
L 670 350
L 671 350
L 672 350
L 673 350
L 675 350
L 676 350
L 677 350
L 678 350
L 679 350
L 680 351
L 682 350
L 683 350
L 684 350
L 685 350
L 686 350
L 687 350
L 689 350
L 690 350
L 691 350
L 692 350
L 693 350
L 694 350
L 695 349
L 697 350
L 698 349
L 699 350
L 700 350
L 701 350
L 702 350
L 704 349
L 705 350
L 706 350
L 707 350
L 708 350
L 709 349
L 711 350
L 712 349
L 713 349
L 714 350
L 715 349
L 716 350
L 717 349
L 719 349
L 720 349
L 721 349
L 722 349
L 723 350
L 724 350
L 726 347
L 727 350
L 728 349
L 729 349
L 730 349
L 731 349
L 732 349
L 734 349
L 735 347
L 736 348
L 737 348
L 738 348
L 739 348
L 741 348
L 742 348
L 743 349
L 744 346
L 745 347
L 746 346
L 748 346
L 749 348
L 750 344
L 751 342
L 752 344
L 753 343
L 754 348
L 756 342
L 757 346
L 758 343
L 759 340
L 760 345
L 761 343
L 763 343
L 764 344
L 765 347
L 766 340
L 767 347
L 768 343
L 769 343
L 771 344
L 772 342
L 773 346
L 774 346
L 775 343
L 776 345
L 778 345
L 779 346
L 780 347
L 781 348
L 782 345
L 783 345
L 785 348
L 786 347
L 787 348
L 788 348
L 789 348
L 790 347
L 791 349
L 793 349
L 794 349
L 795 349
L 796 349
L 797 349
L 798 348
L 800 349
L 801 349
L 802 349
L 803 350
L 804 349
L 805 350
L 807 349
L 808 349
L 809 350
L 810 349
L 811 350
L 812 349
L 813 350
L 815 349
L 816 350
L 817 350
L 818 350
L 819 350
L 820 350
L 822 349
L 823 349
L 824 349
L 825 348
L 826 348
L 827 348
L 828 349
L 830 348
L 831 348
L 832 347
L 833 347
L 834 346
L 835 348
L 837 346
L 838 345
L 839 342
L 840 341
L 841 340
L 842 339
L 844 343
L 845 340
L 846 342
L 847 335
L 848 336
L 849 330
L 850 332
L 852 335
L 853 336
L 854 339
L 855 323
L 856 330
L 857 325
L 859 329
L 860 330
L 861 333
L 862 334
L 863 324
L 864 323
L 865 332
L 867 326
L 868 333
L 869 335
L 870 338
L 871 327
L 872 332
L 874 331
L 875 331
L 876 334
L 877 339
L 878 337
L 879 332
L 881 332
L 882 334
L 883 331
L 884 336
L 885 335
L 886 330
L 887 321
L 889 319
L 890 329
L 891 322
L 892 323
L 893 330
L 894 331
L 896 309
L 897 298
L 898 307
L 899 308
L 900 319
L 901 315
L 903 323
L 904 302
L 905 300
L 906 318
L 907 308
L 908 321
L 909 329
L 911 330
L 912 316
L 913 319
L 914 328
L 915 330
L 916 338
L 918 336
L 919 338
L 920 330
L 921 334
L 922 340
L 923 339
L 924 344
L 926 346
L 927 344
L 928 341
L 929 343
L 930 343
L 931 344
L 933 346
L 934 349
L 935 348
L 936 344
L 937 345
L 938 345
L 940 346
L 941 347
L 942 349
L 943 349
L 944 347
L 945 345
L 946 348
L 948 348
L 949 348
L 950 349
L 951 349
L 952 346
L 953 348
L 955 348
L 956 348
L 957 348
L 958 350
L 959 349
L 960 348
L 961 349" style="stroke-width:1;stroke:rgba(0,217,101,1.0);fill:none"/><path  d="M 38 351
L 40 351
L 41 351
L 42 351
L 43 351
L 44 351
L 45 351
L 47 351
L 48 351
L 49 351
L 50 351
L 51 351
L 52 351
L 54 351
L 55 351
L 56 351
L 57 351
L 58 351
L 59 351
L 60 351
L 62 351
L 63 351
L 64 351
L 65 351
L 66 351
L 67 351
L 69 351
L 70 351
L 71 351
L 72 351
L 73 351
L 74 351
L 76 351
L 77 351
L 78 351
L 79 351
L 80 351
L 81 351
L 82 351
L 84 351
L 85 351
L 86 351
L 87 351
L 88 351
L 89 351
L 91 351
L 92 351
L 93 351
L 94 351
L 95 351
L 96 351
L 97 351
L 99 351
L 100 350
L 101 351
L 102 351
L 103 351
L 104 351
L 106 351
L 107 351
L 108 351
L 109 351
L 110 351
L 111 351
L 113 351
L 114 351
L 115 351
L 116 351
L 117 351
L 118 351
L 119 351
L 121 351
L 122 351
L 123 351
L 124 351
L 125 351
L 126 351
L 128 350
L 129 351
L 130 351
L 131 351
L 132 351
L 133 351
L 135 351
L 136 351
L 137 351
L 138 351
L 139 351
L 140 351
L 141 351
L 143 351
L 144 351
L 145 351
L 146 351
L 147 351
L 148 351
L 150 351
L 151 351
L 152 351
L 153 351
L 154 351
L 155 351
L 156 351
L 158 351
L 159 351
L 160 351
L 161 351
L 162 351
L 163 351
L 165 351
L 166 351
L 167 351
L 168 351
L 169 351
L 170 351
L 172 351
L 173 351
L 174 351
L 175 351
L 176 351
L 177 351
L 178 351
L 180 351
L 181 351
L 182 351
L 183 351
L 184 351
L 185 351
L 187 351
L 188 351
L 189 351
L 190 351
L 191 351
L 192 351
L 193 351
L 195 351
L 196 351
L 197 351
L 198 351
L 199 351
L 200 351
L 202 351
L 203 351
L 204 351
L 205 351
L 206 351
L 207 351
L 209 351
L 210 351
L 211 351
L 212 351
L 213 351
L 214 351
L 215 351
L 217 351
L 218 351
L 219 351
L 220 351
L 221 351
L 222 351
L 224 351
L 225 351
L 226 351
L 227 351
L 228 351
L 229 351
L 231 351
L 232 351
L 233 351
L 234 351
L 235 351
L 236 351
L 237 351
L 239 351
L 240 351
L 241 351
L 242 351
L 243 351
L 244 351
L 246 351
L 247 351
L 248 351
L 249 351
L 250 351
L 251 351
L 252 351
L 254 351
L 255 351
L 256 351
L 257 351
L 258 351
L 259 351
L 261 351
L 262 351
L 263 351
L 264 351
L 265 351
L 266 351
L 268 351
L 269 351
L 270 351
L 271 351
L 272 351
L 273 351
L 274 351
L 276 351
L 277 351
L 278 351
L 279 351
L 280 351
L 281 351
L 283 351
L 284 351
L 285 351
L 286 351
L 287 351
L 288 351
L 289 351
L 291 351
L 292 351
L 293 351
L 294 351
L 295 351
L 296 351
L 298 351
L 299 351
L 300 351
L 301 351
L 302 351
L 303 351
L 305 351
L 306 351
L 307 351
L 308 351
L 309 350
L 310 351
L 311 351
L 313 351
L 314 351
L 315 351
L 316 351
L 317 351
L 318 351
L 320 351
L 321 350
L 322 350
L 323 351
L 324 350
L 325 351
L 327 351
L 328 351
L 329 350
L 330 350
L 331 350
L 332 350
L 333 350
L 335 350
L 336 350
L 337 350
L 338 351
L 339 351
L 340 350
L 342 350
L 343 350
L 344 350
L 345 350
L 346 350
L 347 351
L 348 350
L 350 350
L 351 351
L 352 350
L 353 350
L 354 350
L 355 350
L 357 350
L 358 350
L 359 350
L 360 350
L 361 350
L 362 350
L 364 350
L 365 350
L 366 350
L 367 350
L 368 350
L 369 350
L 370 350
L 372 350
L 373 350
L 374 350
L 375 350
L 376 350
L 377 350
L 379 350
L 380 350
L 381 350
L 382 350
L 383 351
L 384 350
L 385 350
L 387 351
L 388 351
L 389 351
L 390 350
L 391 350
L 392 351
L 394 351
L 395 350
L 396 350
L 397 350
L 398 350
L 399 350
L 401 350
L 402 350
L 403 351
L 404 350
L 405 350
L 406 351
L 407 351
L 409 350
L 410 351
L 411 351
L 412 350
L 413 351
L 414 350
L 416 350
L 417 351
L 418 350
L 419 350
L 420 351
L 421 350
L 423 351
L 424 351
L 425 351
L 426 351
L 427 350
L 428 350
L 429 351
L 431 350
L 432 350
L 433 351
L 434 350
L 435 351
L 436 351
L 438 350
L 439 350
L 440 350
L 441 350
L 442 350
L 443 350
L 444 350
L 446 350
L 447 351
L 448 351
L 449 350
L 450 351
L 451 351
L 453 350
L 454 350
L 455 350
L 456 351
L 457 350
L 458 351
L 460 350
L 461 350
L 462 351
L 463 350
L 464 350
L 465 350
L 466 351
L 468 350
L 469 350
L 470 351
L 471 351
L 472 351
L 473 350
L 475 350
L 476 351
L 477 350
L 478 350
L 479 350
L 480 351
L 481 351
L 483 351
L 484 351
L 485 351
L 486 350
L 487 351
L 488 351
L 490 351
L 491 350
L 492 351
L 493 351
L 494 351
L 495 351
L 497 351
L 498 351
L 499 351
L 500 350
L 501 350
L 502 351
L 503 351
L 505 351
L 506 350
L 507 351
L 508 350
L 509 351
L 510 351
L 512 351
L 513 351
L 514 351
L 515 351
L 516 351
L 517 351
L 519 350
L 520 351
L 521 351
L 522 351
L 523 350
L 524 351
L 525 351
L 527 351
L 528 351
L 529 350
L 530 351
L 531 351
L 532 351
L 534 350
L 535 351
L 536 350
L 537 351
L 538 351
L 539 351
L 540 351
L 542 351
L 543 351
L 544 351
L 545 351
L 546 351
L 547 351
L 549 351
L 550 351
L 551 350
L 552 351
L 553 351
L 554 351
L 556 351
L 557 351
L 558 351
L 559 351
L 560 351
L 561 351
L 562 351
L 564 351
L 565 351
L 566 351
L 567 351
L 568 351
L 569 351
L 571 351
L 572 351
L 573 351
L 574 351
L 575 351
L 576 351
L 577 351
L 579 351
L 580 351
L 581 351
L 582 351
L 583 351
L 584 351
L 586 351
L 587 351
L 588 351
L 589 351
L 590 351
L 591 350
L 593 351
L 594 351
L 595 351
L 596 351
L 597 351
L 598 351
L 599 351
L 601 351
L 602 351
L 603 351
L 604 351
L 605 351
L 606 350
L 608 351
L 609 351
L 610 351
L 611 351
L 612 351
L 613 351
L 615 351
L 616 351
L 617 351
L 618 351
L 619 351
L 620 351
L 621 351
L 623 351
L 624 351
L 625 351
L 626 351
L 627 351
L 628 351
L 630 351
L 631 351
L 632 351
L 633 351
L 634 351
L 635 351
L 636 351
L 638 351
L 639 351
L 640 351
L 641 351
L 642 351
L 643 351
L 645 351
L 646 351
L 647 351
L 648 351
L 649 351
L 650 351
L 652 351
L 653 351
L 654 351
L 655 351
L 656 351
L 657 351
L 658 351
L 660 351
L 661 351
L 662 351
L 663 351
L 664 351
L 665 351
L 667 351
L 668 351
L 669 351
L 670 351
L 671 351
L 672 351
L 673 351
L 675 351
L 676 351
L 677 351
L 678 351
L 679 351
L 680 351
L 682 351
L 683 351
L 684 351
L 685 351
L 686 351
L 687 351
L 689 351
L 690 351
L 691 351
L 692 351
L 693 351
L 694 350
L 695 351
L 697 351
L 698 351
L 699 351
L 700 350
L 701 351
L 702 351
L 704 351
L 705 351
L 706 351
L 707 351
L 708 351
L 709 351
L 711 351
L 712 351
L 713 351
L 714 350
L 715 351
L 716 351
L 717 351
L 719 351
L 720 351
L 721 351
L 722 351
L 723 351
L 724 350
L 726 351
L 727 351
L 728 351
L 729 351
L 730 351
L 731 350
L 732 351
L 734 350
L 735 350
L 736 350
L 737 350
L 738 351
L 739 351
L 741 351
L 742 351
L 743 350
L 744 351
L 745 351
L 746 350
L 748 351
L 749 351
L 750 351
L 751 351
L 752 350
L 753 350
L 754 351
L 756 350
L 757 351
L 758 350
L 759 351
L 760 351
L 761 351
L 763 351
L 764 351
L 765 350
L 766 351
L 767 350
L 768 351
L 769 351
L 771 351
L 772 351
L 773 351
L 774 350
L 775 351
L 776 350
L 778 351
L 779 350
L 780 350
L 781 350
L 782 350
L 783 351
L 785 351
L 786 351
L 787 351
L 788 351
L 789 350
L 790 351
L 791 351
L 793 351
L 794 350
L 795 351
L 796 351
L 797 351
L 798 351
L 800 351
L 801 351
L 802 351
L 803 350
L 804 351
L 805 351
L 807 351
L 808 351
L 809 351
L 810 351
L 811 351
L 812 351
L 813 351
L 815 351
L 816 350
L 817 351
L 818 351
L 819 350
L 820 351
L 822 351
L 823 351
L 824 351
L 825 350
L 826 350
L 827 351
L 828 351
L 830 350
L 831 351
L 832 351
L 833 351
L 834 350
L 835 351
L 837 351
L 838 350
L 839 351
L 840 351
L 841 351
L 842 351
L 844 351
L 845 351
L 846 351
L 847 351
L 848 350
L 849 351
L 850 350
L 852 351
L 853 351
L 854 351
L 855 351
L 856 351
L 857 351
L 859 351
L 860 351
L 861 351
L 862 351
L 863 351
L 864 351
L 865 351
L 867 351
L 868 350
L 869 351
L 870 351
L 871 351
L 872 351
L 874 351
L 875 351
L 876 351
L 877 351
L 878 351
L 879 351
L 881 350
L 882 351
L 883 350
L 884 350
L 885 351
L 886 350
L 887 351
L 889 351
L 890 350
L 891 351
L 892 351
L 893 351
L 894 351
L 896 350
L 897 351
L 898 350
L 899 351
L 900 351
L 901 351
L 903 351
L 904 351
L 905 350
L 906 351
L 907 350
L 908 351
L 909 350
L 911 351
L 912 350
L 913 350
L 914 350
L 915 351
L 916 351
L 918 350
L 919 351
L 920 351
L 921 350
L 922 351
L 923 351
L 924 351
L 926 351
L 927 350
L 928 351
L 929 351
L 930 350
L 931 350
L 933 351
L 934 350
L 935 351
L 936 350
L 937 351
L 938 351
L 940 351
L 941 351
L 942 351
L 943 351
L 944 350
L 945 350
L 946 351
L 948 351
L 949 351
L 950 351
L 951 351
L 952 351
L 953 351
L 955 351
L 956 351
L 957 351
L 958 350
L 959 351
L 960 351
L 961 351" style="stroke-width:1;stroke:rgba(217,0,116,1.0);fill:none"/><text x="359" y="33" style="stroke-width:0;stroke:none;fill:rgba(51,51,51,1.0);font-size:23.0px;font-family:'Roboto Medium',sans-serif">Südoststeiermark 04.05.2022</text><path  d="M 38 11
L 251 11
L 251 91
L 38 91
L 38 11" style="stroke-width:1;stroke:rgba(51,51,51,1.0);fill:rgba(255,255,255,1.0)"/><text x="43" y="26" style="stroke-width:0;stroke:none;fill:rgba(51,51,51,1.0);font-size:10.2px;font-family:'Roboto Medium',sans-serif">Sieben Tage Durschnitt Inzidenz Fälle</text><path  d="M 221 21
L 241 21" style="stroke-width:1;stroke:rgba(0,116,217,1.0);fill:none"/><text x="43" y="56" style="stroke-width:0;stroke:none;fill:rgba(51,51,51,1.0);font-size:10.2px;font-family:'Roboto Medium',sans-serif">Anzahl Faelle</text><path  d="M 110 51
L 241 51" style="stroke-width:1;stroke:rgba(0,217,101,1.0);fill:none"/><text x="43" y="86" style="stroke-width:0;stroke:none;fill:rgba(51,51,51,1.0);font-size:10.2px;font-family:'Roboto Medium',sans-serif">Anzahl Tot</text><path  d="M 98 81
L 241 81" style="stroke-width:1;stroke:rgba(217,0,116,1.0);fill:none"/></svg>