<svg xmlns="http://www.w3.org/2000/svg" xmlns:xlink="http://www.w3.org/1999/xlink" width="1024" height="400">\n<path  d="M 0 0
L 1024 0
L 1024 400
L 0 400
L 0 0" style="stroke-width:0;stroke:rgba(255,255,255,1.0);fill:rgba(255,255,255,1.0)"/><path  d="M 38 11
L 961 11
L 961 351
L 38 351
L 38 11" style="stroke-width:0;stroke:rgba(255,255,255,1.0);fill:rgba(255,255,255,1.0)"/><path  d="M 38 351
L 961 351" style="stroke-width:1;stroke:rgba(51,51,51,1.0);fill:none"/><path  d="M 38 351
L 38 356" style="stroke-width:1;stroke:rgba(51,51,51,1.0);fill:none"/><text x="5" y="373" style="stroke-width:0;stroke:none;fill:rgba(51,51,51,1.0);font-size:12.8px;font-family:'Roboto Medium',sans-serif">2020-02-26</text><path  d="M 154 351
L 154 356" style="stroke-width:1;stroke:rgba(51,51,51,1.0);fill:none"/><text x="121" y="373" style="stroke-width:0;stroke:none;fill:rgba(51,51,51,1.0);font-size:12.8px;font-family:'Roboto Medium',sans-serif">2020-07-03</text><path  d="M 269 351
L 269 356" style="stroke-width:1;stroke:rgba(51,51,51,1.0);fill:none"/><text x="236" y="373" style="stroke-width:0;stroke:none;fill:rgba(51,51,51,1.0);font-size:12.8px;font-family:'Roboto Medium',sans-serif">2020-11-08</text><path  d="M 385 351
L 385 356" style="stroke-width:1;stroke:rgba(51,51,51,1.0);fill:none"/><text x="352" y="373" style="stroke-width:0;stroke:none;fill:rgba(51,51,51,1.0);font-size:12.8px;font-family:'Roboto Medium',sans-serif">2021-03-16</text><path  d="M 500 351
L 500 356" style="stroke-width:1;stroke:rgba(51,51,51,1.0);fill:none"/><text x="467" y="373" style="stroke-width:0;stroke:none;fill:rgba(51,51,51,1.0);font-size:12.8px;font-family:'Roboto Medium',sans-serif">2021-07-22</text><path  d="M 615 351
L 615 356" style="stroke-width:1;stroke:rgba(51,51,51,1.0);fill:none"/><text x="582" y="373" style="stroke-width:0;stroke:none;fill:rgba(51,51,51,1.0);font-size:12.8px;font-family:'Roboto Medium',sans-serif">2021-11-27</text><path  d="M 731 351
L 731 356" style="stroke-width:1;stroke:rgba(51,51,51,1.0);fill:none"/><text x="698" y="373" style="stroke-width:0;stroke:none;fill:rgba(51,51,51,1.0);font-size:12.8px;font-family:'Roboto Medium',sans-serif">2022-04-04</text><path  d="M 846 351
L 846 356" style="stroke-width:1;stroke:rgba(51,51,51,1.0);fill:none"/><text x="813" y="373" style="stroke-width:0;stroke:none;fill:rgba(51,51,51,1.0);font-size:12.8px;font-family:'Roboto Medium',sans-serif">2022-08-10</text><path  d="M 961 351
L 961 356" style="stroke-width:1;stroke:rgba(51,51,51,1.0);fill:none"/><text x="928" y="373" style="stroke-width:0;stroke:none;fill:rgba(51,51,51,1.0);font-size:12.8px;font-family:'Roboto Medium',sans-serif">2022-12-17</text><text x="481" y="395" style="stroke-width:0;stroke:none;fill:rgba(51,51,51,1.0);font-size:12.8px;font-family:'Roboto Medium',sans-serif">Datum</text><path  d="M 962 351
L 962 11" style="stroke-width:1;stroke:rgba(51,51,51,1.0);fill:none"/><path  d="M 962 351
L 967 351" style="stroke-width:1;stroke:rgba(51,51,51,1.0);fill:none"/><text x="972" y="357" style="stroke-width:0;stroke:none;fill:rgba(51,51,51,1.0);font-size:12.8px;font-family:'Roboto Medium',sans-serif">0.00</text><path  d="M 962 308
L 967 308" style="stroke-width:1;stroke:rgba(51,51,51,1.0);fill:none"/><text x="972" y="314" style="stroke-width:0;stroke:none;fill:rgba(51,51,51,1.0);font-size:12.8px;font-family:'Roboto Medium',sans-serif">640.00</text><path  d="M 962 265
L 967 265" style="stroke-width:1;stroke:rgba(51,51,51,1.0);fill:none"/><text x="972" y="271" style="stroke-width:0;stroke:none;fill:rgba(51,51,51,1.0);font-size:12.8px;font-family:'Roboto Medium',sans-serif">1280.00</text><path  d="M 962 223
L 967 223" style="stroke-width:1;stroke:rgba(51,51,51,1.0);fill:none"/><text x="972" y="229" style="stroke-width:0;stroke:none;fill:rgba(51,51,51,1.0);font-size:12.8px;font-family:'Roboto Medium',sans-serif">1920.00</text><path  d="M 962 181
L 967 181" style="stroke-width:1;stroke:rgba(51,51,51,1.0);fill:none"/><text x="972" y="187" style="stroke-width:0;stroke:none;fill:rgba(51,51,51,1.0);font-size:12.8px;font-family:'Roboto Medium',sans-serif">2550.00</text><path  d="M 962 138
L 967 138" style="stroke-width:1;stroke:rgba(51,51,51,1.0);fill:none"/><text x="972" y="144" style="stroke-width:0;stroke:none;fill:rgba(51,51,51,1.0);font-size:12.8px;font-family:'Roboto Medium',sans-serif">3190.00</text><path  d="M 962 95
L 967 95" style="stroke-width:1;stroke:rgba(51,51,51,1.0);fill:none"/><text x="972" y="101" style="stroke-width:0;stroke:none;fill:rgba(51,51,51,1.0);font-size:12.8px;font-family:'Roboto Medium',sans-serif">3830.00</text><path  d="M 962 53
L 967 53" style="stroke-width:1;stroke:rgba(51,51,51,1.0);fill:none"/><text x="972" y="59" style="stroke-width:0;stroke:none;fill:rgba(51,51,51,1.0);font-size:12.8px;font-family:'Roboto Medium',sans-serif">4470.00</text><path  d="M 962 11
L 967 11" style="stroke-width:1;stroke:rgba(51,51,51,1.0);fill:none"/><text x="972" y="17" style="stroke-width:0;stroke:none;fill:rgba(51,51,51,1.0);font-size:12.8px;font-family:'Roboto Medium',sans-serif">5100.00</text><path  d="M 38 351
L 39 351
L 40 351
L 41 351
L 42 351
L 43 351
L 44 351
L 45 351
L 46 351
L 47 351
L 48 351
L 48 351
L 49 351
L 50 351
L 51 351
L 52 350
L 53 350
L 54 350
L 55 350
L 56 350
L 57 350
L 57 350
L 58 350
L 59 350
L 60 350
L 61 350
L 62 350
L 63 350
L 64 350
L 65 350
L 66 350
L 66 350
L 67 349
L 68 349
L 69 349
L 70 349
L 71 350
L 72 350
L 73 350
L 74 350
L 75 350
L 75 350
L 76 350
L 77 350
L 78 350
L 79 350
L 80 350
L 81 350
L 82 350
L 83 350
L 84 350
L 84 350
L 85 350
L 86 350
L 87 350
L 88 350
L 89 350
L 90 350
L 91 350
L 92 350
L 93 350
L 93 350
L 94 350
L 95 350
L 96 350
L 97 350
L 98 350
L 99 350
L 100 350
L 101 350
L 102 350
L 102 350
L 103 350
L 104 350
L 105 350
L 106 350
L 107 350
L 108 351
L 109 351
L 110 351
L 111 351
L 111 351
L 112 351
L 113 351
L 114 351
L 115 351
L 116 351
L 117 351
L 118 351
L 119 351
L 120 351
L 120 351
L 121 351
L 122 351
L 123 351
L 124 351
L 125 351
L 126 351
L 127 351
L 128 351
L 129 351
L 129 351
L 130 351
L 131 351
L 132 351
L 133 351
L 134 351
L 135 351
L 136 351
L 137 351
L 138 351
L 138 351
L 139 351
L 140 351
L 141 351
L 142 351
L 143 351
L 144 351
L 145 351
L 146 351
L 147 351
L 147 350
L 148 350
L 149 350
L 150 350
L 151 350
L 152 350
L 153 350
L 154 350
L 155 350
L 156 350
L 156 350
L 157 350
L 158 350
L 159 350
L 160 350
L 161 350
L 162 350
L 163 350
L 164 350
L 165 351
L 165 351
L 166 350
L 167 350
L 168 350
L 169 350
L 170 350
L 171 350
L 172 350
L 173 351
L 174 351
L 174 351
L 175 351
L 176 351
L 177 351
L 178 351
L 179 351
L 180 351
L 181 351
L 182 351
L 183 351
L 183 351
L 184 351
L 185 351
L 186 351
L 187 351
L 188 351
L 189 351
L 190 351
L 191 351
L 192 351
L 192 351
L 193 351
L 194 351
L 195 350
L 196 350
L 197 350
L 198 350
L 199 350
L 200 350
L 201 350
L 201 350
L 202 350
L 203 350
L 204 350
L 205 350
L 206 350
L 207 350
L 208 350
L 209 350
L 210 350
L 210 350
L 211 350
L 212 350
L 213 350
L 214 350
L 215 350
L 216 350
L 217 350
L 218 350
L 219 350
L 219 350
L 220 350
L 221 350
L 222 350
L 223 350
L 224 350
L 225 350
L 226 350
L 227 350
L 228 350
L 229 350
L 229 350
L 230 350
L 231 350
L 232 350
L 233 350
L 234 350
L 235 350
L 236 350
L 237 350
L 238 350
L 238 350
L 239 350
L 240 350
L 241 350
L 242 350
L 243 350
L 244 350
L 245 349
L 246 349
L 247 349
L 247 349
L 248 348
L 249 348
L 250 347
L 251 347
L 252 347
L 253 346
L 254 345
L 255 344
L 256 343
L 256 342
L 257 339
L 258 337
L 259 334
L 260 330
L 261 324
L 262 321
L 263 320
L 264 321
L 265 318
L 265 314
L 266 314
L 267 313
L 268 312
L 269 311
L 270 309
L 271 310
L 272 308
L 273 309
L 274 312
L 274 313
L 275 316
L 276 317
L 277 317
L 278 320
L 279 321
L 280 322
L 281 323
L 282 324
L 283 326
L 283 324
L 284 327
L 285 328
L 286 330
L 287 329
L 288 328
L 289 328
L 290 328
L 291 327
L 292 328
L 292 327
L 293 328
L 294 329
L 295 330
L 296 333
L 297 336
L 298 336
L 299 338
L 300 339
L 301 337
L 301 337
L 302 337
L 303 337
L 304 337
L 305 338
L 306 339
L 307 340
L 308 340
L 309 341
L 310 340
L 310 338
L 311 339
L 312 340
L 313 340
L 314 341
L 315 340
L 316 340
L 317 342
L 318 341
L 319 341
L 319 341
L 320 340
L 321 340
L 322 341
L 323 340
L 324 339
L 325 338
L 326 338
L 327 338
L 328 337
L 328 338
L 329 339
L 330 339
L 331 340
L 332 340
L 333 341
L 334 341
L 335 341
L 336 340
L 337 339
L 337 338
L 338 337
L 339 335
L 340 334
L 341 332
L 342 332
L 343 332
L 344 333
L 345 335
L 346 336
L 346 337
L 347 337
L 348 337
L 349 338
L 350 339
L 351 337
L 352 337
L 353 338
L 354 339
L 355 340
L 355 341
L 356 339
L 357 340
L 358 340
L 359 341
L 360 341
L 361 339
L 362 338
L 363 339
L 364 339
L 364 339
L 365 337
L 366 337
L 367 339
L 368 339
L 369 336
L 370 338
L 371 337
L 372 337
L 373 338
L 373 337
L 374 336
L 375 337
L 376 336
L 377 336
L 378 339
L 379 338
L 380 338
L 381 338
L 382 337
L 382 338
L 383 339
L 384 338
L 385 338
L 386 337
L 387 337
L 388 338
L 389 339
L 390 338
L 391 336
L 391 336
L 392 335
L 393 337
L 394 338
L 395 334
L 396 335
L 397 336
L 398 337
L 399 338
L 400 336
L 400 335
L 401 338
L 402 339
L 403 337
L 404 338
L 405 339
L 406 338
L 407 340
L 408 338
L 409 338
L 410 339
L 410 338
L 411 338
L 412 341
L 413 340
L 414 342
L 415 342
L 416 342
L 417 342
L 418 341
L 419 340
L 419 340
L 420 339
L 421 338
L 422 338
L 423 338
L 424 338
L 425 338
L 426 339
L 427 339
L 428 340
L 428 339
L 429 339
L 430 340
L 431 340
L 432 341
L 433 341
L 434 343
L 435 344
L 436 345
L 437 346
L 437 347
L 438 346
L 439 347
L 440 347
L 441 347
L 442 348
L 443 348
L 444 348
L 445 348
L 446 348
L 446 348
L 447 348
L 448 348
L 449 348
L 450 349
L 451 349
L 452 349
L 453 348
L 454 348
L 455 349
L 455 349
L 456 349
L 457 349
L 458 348
L 459 348
L 460 349
L 461 349
L 462 349
L 463 349
L 464 349
L 464 350
L 465 350
L 466 350
L 467 350
L 468 350
L 469 350
L 470 351
L 471 351
L 472 350
L 473 350
L 473 350
L 474 350
L 475 350
L 476 350
L 477 350
L 478 351
L 479 351
L 480 350
L 481 350
L 482 350
L 482 350
L 483 350
L 484 350
L 485 350
L 486 350
L 487 350
L 488 350
L 489 350
L 490 350
L 491 350
L 491 350
L 492 350
L 493 350
L 494 350
L 495 350
L 496 350
L 497 350
L 498 350
L 499 350
L 500 350
L 500 350
L 501 350
L 502 350
L 503 350
L 504 350
L 505 350
L 506 350
L 507 350
L 508 349
L 509 349
L 509 349
L 510 349
L 511 349
L 512 350
L 513 349
L 514 349
L 515 349
L 516 349
L 517 349
L 518 349
L 518 349
L 519 349
L 520 349
L 521 349
L 522 349
L 523 349
L 524 348
L 525 349
L 526 348
L 527 349
L 527 348
L 528 349
L 529 349
L 530 349
L 531 348
L 532 348
L 533 348
L 534 348
L 535 347
L 536 347
L 536 347
L 537 347
L 538 347
L 539 347
L 540 348
L 541 347
L 542 348
L 543 348
L 544 348
L 545 347
L 545 347
L 546 347
L 547 347
L 548 347
L 549 347
L 550 346
L 551 346
L 552 345
L 553 345
L 554 344
L 554 344
L 555 344
L 556 344
L 557 344
L 558 345
L 559 345
L 560 345
L 561 344
L 562 343
L 563 343
L 563 342
L 564 342
L 565 341
L 566 341
L 567 341
L 568 340
L 569 340
L 570 341
L 571 339
L 572 340
L 572 340
L 573 338
L 574 339
L 575 338
L 576 338
L 577 339
L 578 338
L 579 337
L 580 339
L 581 336
L 581 335
L 582 333
L 583 332
L 584 331
L 585 329
L 586 328
L 587 331
L 588 328
L 589 327
L 590 325
L 590 322
L 591 323
L 592 318
L 593 310
L 594 307
L 595 302
L 596 304
L 597 299
L 598 297
L 599 295
L 600 292
L 600 293
L 601 294
L 602 287
L 603 290
L 604 290
L 605 287
L 606 295
L 607 293
L 608 293
L 609 296
L 609 293
L 610 292
L 611 300
L 612 295
L 613 297
L 614 298
L 615 300
L 616 306
L 617 308
L 618 306
L 618 309
L 619 314
L 620 316
L 621 319
L 622 321
L 623 322
L 624 325
L 625 329
L 626 330
L 627 332
L 627 334
L 628 334
L 629 335
L 630 336
L 631 336
L 632 337
L 633 338
L 634 338
L 635 339
L 636 340
L 636 342
L 637 342
L 638 343
L 639 342
L 640 343
L 641 343
L 642 343
L 643 343
L 644 343
L 645 343
L 645 344
L 646 344
L 647 344
L 648 343
L 649 342
L 650 341
L 651 339
L 652 337
L 653 334
L 654 333
L 654 332
L 655 331
L 656 328
L 657 328
L 658 325
L 659 325
L 660 322
L 661 319
L 662 312
L 663 305
L 663 296
L 664 288
L 665 282
L 666 274
L 667 270
L 668 261
L 669 256
L 670 244
L 671 235
L 672 225
L 672 220
L 673 217
L 674 201
L 675 193
L 676 187
L 677 183
L 678 177
L 679 174
L 680 167
L 681 169
L 681 160
L 682 170
L 683 165
L 684 170
L 685 172
L 686 177
L 687 181
L 688 192
L 689 190
L 690 197
L 690 199
L 691 204
L 692 203
L 693 209
L 694 209
L 695 213
L 696 214
L 697 215
L 698 211
L 699 203
L 699 191
L 700 175
L 701 169
L 702 158
L 703 142
L 704 136
L 705 136
L 706 122
L 707 96
L 708 69
L 708 53
L 709 48
L 710 30
L 711 21
L 712 12
L 713 14
L 714 28
L 715 28
L 716 31
L 717 47
L 717 56
L 718 73
L 719 96
L 720 109
L 721 135
L 722 154
L 723 164
L 724 172
L 725 190
L 726 207
L 726 220
L 727 232
L 728 239
L 729 251
L 730 259
L 731 272
L 732 284
L 733 287
L 734 294
L 735 297
L 735 300
L 736 304
L 737 307
L 738 309
L 739 312
L 740 314
L 741 315
L 742 315
L 743 315
L 744 320
L 744 320
L 745 324
L 746 326
L 747 326
L 748 327
L 749 327
L 750 326
L 751 329
L 752 329
L 753 329
L 753 330
L 754 330
L 755 330
L 756 332
L 757 333
L 758 333
L 759 336
L 760 337
L 761 337
L 762 337
L 762 338
L 763 337
L 764 337
L 765 336
L 766 336
L 767 336
L 768 337
L 769 338
L 770 339
L 771 341
L 771 342
L 772 343
L 773 343
L 774 344
L 775 345
L 776 345
L 777 346
L 778 347
L 779 347
L 780 346
L 781 346
L 781 346
L 782 346
L 783 346
L 784 345
L 785 345
L 786 345
L 787 345
L 788 345
L 789 344
L 790 343
L 790 344
L 791 342
L 792 342
L 793 341
L 794 340
L 795 339
L 796 339
L 797 338
L 798 337
L 799 337
L 799 335
L 800 332
L 801 329
L 802 326
L 803 322
L 804 321
L 805 321
L 806 319
L 807 319
L 808 319
L 808 319
L 809 318
L 810 319
L 811 318
L 812 318
L 813 315
L 814 314
L 815 313
L 816 313
L 817 312
L 817 313
L 818 310
L 819 312
L 820 312
L 821 309
L 822 308
L 823 306
L 824 305
L 825 306
L 826 303
L 826 304
L 827 307
L 828 310
L 829 312
L 830 313
L 831 312
L 832 315
L 833 314
L 834 317
L 835 319
L 835 321
L 836 322
L 837 324
L 838 328
L 839 331
L 840 331
L 841 331
L 842 333
L 843 332
L 844 333
L 844 331
L 845 333
L 846 332
L 847 333
L 848 330
L 849 331
L 850 332
L 851 335
L 852 333
L 853 334
L 853 333
L 854 334
L 855 334
L 856 333
L 857 331
L 858 332
L 859 332
L 860 332
L 861 333
L 862 333
L 862 334
L 863 336
L 864 336
L 865 337
L 866 337
L 867 337
L 868 337
L 869 336
L 870 335
L 871 335
L 871 334
L 872 333
L 873 333
L 874 333
L 875 333
L 876 332
L 877 331
L 878 330
L 879 331
L 880 330
L 880 329
L 881 328
L 882 326
L 883 321
L 884 321
L 885 318
L 886 316
L 887 315
L 888 316
L 889 311
L 889 311
L 890 306
L 891 303
L 892 299
L 893 298
L 894 294
L 895 289
L 896 287
L 897 288
L 898 288
L 898 287
L 899 288
L 900 290
L 901 291
L 902 293
L 903 294
L 904 296
L 905 300
L 906 300
L 907 301
L 907 306
L 908 307
L 909 309
L 910 309
L 911 311
L 912 313
L 913 312
L 914 315
L 915 319
L 916 321
L 916 322
L 917 322
L 918 322
L 919 322
L 920 325
L 921 327
L 922 325
L 923 328
L 924 329
L 925 329
L 925 332
L 926 333
L 927 332
L 928 335
L 929 336
L 930 337
L 931 338
L 932 338
L 933 338
L 934 337
L 934 336
L 935 337
L 936 336
L 937 336
L 938 335
L 939 333
L 940 334
L 941 334
L 942 334
L 943 335
L 943 335
L 944 334
L 945 336
L 946 336
L 947 335
L 948 335
L 949 333
L 950 333
L 951 333
L 952 333
L 952 330
L 953 331
L 954 333
L 955 333
L 956 334
L 957 332
L 958 331
L 959 331
L 960 330
L 961 329
L 961 328" style="stroke-width:1;stroke:rgba(0,116,217,1.0);fill:none"/><path  d="M 38 351
L 39 351
L 40 351
L 41 351
L 42 351
L 43 351
L 44 351
L 45 351
L 46 351
L 47 351
L 48 351
L 48 351
L 49 351
L 50 351
L 51 351
L 52 350
L 53 350
L 54 351
L 55 351
L 56 350
L 57 351
L 57 350
L 58 350
L 59 351
L 60 351
L 61 351
L 62 350
L 63 350
L 64 350
L 65 350
L 66 350
L 66 350
L 67 350
L 68 350
L 69 350
L 70 351
L 71 350
L 72 350
L 73 351
L 74 351
L 75 350
L 75 350
L 76 350
L 77 350
L 78 351
L 79 351
L 80 351
L 81 351
L 82 351
L 83 350
L 84 351
L 84 350
L 85 351
L 86 350
L 87 350
L 88 351
L 89 350
L 90 351
L 91 350
L 92 350
L 93 351
L 93 351
L 94 351
L 95 351
L 96 350
L 97 351
L 98 351
L 99 351
L 100 350
L 101 351
L 102 350
L 102 351
L 103 351
L 104 351
L 105 351
L 106 351
L 107 351
L 108 351
L 109 351
L 110 351
L 111 351
L 111 351
L 112 351
L 113 351
L 114 351
L 115 351
L 116 351
L 117 351
L 118 351
L 119 351
L 120 351
L 120 351
L 121 351
L 122 351
L 123 351
L 124 351
L 125 351
L 126 351
L 127 351
L 128 351
L 129 351
L 129 351
L 130 351
L 131 351
L 132 351
L 133 351
L 134 351
L 135 351
L 136 351
L 137 351
L 138 351
L 138 351
L 139 351
L 140 351
L 141 351
L 142 351
L 143 351
L 144 351
L 145 351
L 146 351
L 147 351
L 147 350
L 148 351
L 149 351
L 150 351
L 151 351
L 152 351
L 153 351
L 154 350
L 155 351
L 156 351
L 156 351
L 157 351
L 158 350
L 159 351
L 160 351
L 161 351
L 162 351
L 163 351
L 164 351
L 165 351
L 165 351
L 166 350
L 167 351
L 168 351
L 169 351
L 170 351
L 171 351
L 172 351
L 173 351
L 174 351
L 174 351
L 175 351
L 176 351
L 177 351
L 178 351
L 179 351
L 180 351
L 181 351
L 182 351
L 183 351
L 183 351
L 184 351
L 185 351
L 186 351
L 187 351
L 188 351
L 189 351
L 190 351
L 191 351
L 192 351
L 192 351
L 193 351
L 194 351
L 195 350
L 196 351
L 197 350
L 198 351
L 199 351
L 200 350
L 201 350
L 201 351
L 202 351
L 203 351
L 204 350
L 205 350
L 206 351
L 207 351
L 208 351
L 209 351
L 210 350
L 210 351
L 211 350
L 212 351
L 213 351
L 214 350
L 215 350
L 216 350
L 217 350
L 218 350
L 219 350
L 219 350
L 220 351
L 221 350
L 222 351
L 223 350
L 224 350
L 225 350
L 226 351
L 227 351
L 228 351
L 229 350
L 229 350
L 230 350
L 231 350
L 232 351
L 233 351
L 234 351
L 235 351
L 236 350
L 237 350
L 238 350
L 238 351
L 239 351
L 240 351
L 241 350
L 242 350
L 243 350
L 244 351
L 245 350
L 246 350
L 247 350
L 247 351
L 248 350
L 249 350
L 250 350
L 251 350
L 252 350
L 253 349
L 254 349
L 255 350
L 256 349
L 256 349
L 257 348
L 258 348
L 259 347
L 260 346
L 261 345
L 262 346
L 263 348
L 264 349
L 265 345
L 265 344
L 266 346
L 267 344
L 268 345
L 269 347
L 270 347
L 271 347
L 272 342
L 273 347
L 274 346
L 274 347
L 275 349
L 276 348
L 277 347
L 278 344
L 279 347
L 280 347
L 281 348
L 282 350
L 283 349
L 283 346
L 284 347
L 285 348
L 286 348
L 287 348
L 288 349
L 289 349
L 290 346
L 291 346
L 292 349
L 292 347
L 293 348
L 294 350
L 295 349
L 296 349
L 297 349
L 298 349
L 299 349
L 300 349
L 301 348
L 301 349
L 302 349
L 303 349
L 304 350
L 305 349
L 306 350
L 307 350
L 308 349
L 309 349
L 310 348
L 310 348
L 311 350
L 312 350
L 313 350
L 314 350
L 315 349
L 316 348
L 317 350
L 318 350
L 319 349
L 319 350
L 320 349
L 321 349
L 322 349
L 323 349
L 324 349
L 325 348
L 326 350
L 327 349
L 328 348
L 328 349
L 329 350
L 330 349
L 331 349
L 332 350
L 333 349
L 334 349
L 335 350
L 336 349
L 337 348
L 337 349
L 338 349
L 339 348
L 340 347
L 341 348
L 342 349
L 343 349
L 344 349
L 345 350
L 346 349
L 346 348
L 347 348
L 348 349
L 349 349
L 350 350
L 351 348
L 352 349
L 353 349
L 354 349
L 355 350
L 355 350
L 356 349
L 357 349
L 358 350
L 359 350
L 360 349
L 361 348
L 362 349
L 363 350
L 364 349
L 364 349
L 365 349
L 366 348
L 367 350
L 368 349
L 369 348
L 370 350
L 371 349
L 372 348
L 373 349
L 373 350
L 374 348
L 375 349
L 376 349
L 377 349
L 378 350
L 379 349
L 380 349
L 381 348
L 382 348
L 382 349
L 383 350
L 384 350
L 385 348
L 386 349
L 387 348
L 388 350
L 389 349
L 390 349
L 391 348
L 391 349
L 392 348
L 393 350
L 394 350
L 395 347
L 396 349
L 397 350
L 398 349
L 399 348
L 400 349
L 400 349
L 401 350
L 402 350
L 403 349
L 404 350
L 405 349
L 406 348
L 407 350
L 408 348
L 409 350
L 410 349
L 410 349
L 411 350
L 412 350
L 413 349
L 414 350
L 415 349
L 416 349
L 417 349
L 418 349
L 419 349
L 419 349
L 420 349
L 421 348
L 422 349
L 423 349
L 424 349
L 425 349
L 426 350
L 427 350
L 428 349
L 428 349
L 429 349
L 430 349
L 431 350
L 432 350
L 433 350
L 434 350
L 435 350
L 436 350
L 437 350
L 437 350
L 438 350
L 439 350
L 440 350
L 441 350
L 442 350
L 443 350
L 444 350
L 445 350
L 446 351
L 446 350
L 447 350
L 448 350
L 449 350
L 450 350
L 451 350
L 452 350
L 453 350
L 454 350
L 455 351
L 455 350
L 456 350
L 457 350
L 458 350
L 459 350
L 460 350
L 461 351
L 462 350
L 463 350
L 464 350
L 464 351
L 465 351
L 466 351
L 467 351
L 468 351
L 469 351
L 470 351
L 471 351
L 472 350
L 473 351
L 473 351
L 474 351
L 475 351
L 476 351
L 477 351
L 478 351
L 479 351
L 480 350
L 481 351
L 482 351
L 482 350
L 483 351
L 484 351
L 485 351
L 486 351
L 487 351
L 488 350
L 489 351
L 490 350
L 491 350
L 491 351
L 492 351
L 493 351
L 494 350
L 495 351
L 496 351
L 497 350
L 498 351
L 499 350
L 500 350
L 500 350
L 501 351
L 502 351
L 503 350
L 504 350
L 505 350
L 506 350
L 507 350
L 508 350
L 509 350
L 509 350
L 510 350
L 511 350
L 512 351
L 513 350
L 514 350
L 515 350
L 516 350
L 517 350
L 518 350
L 518 350
L 519 350
L 520 350
L 521 350
L 522 350
L 523 350
L 524 350
L 525 350
L 526 350
L 527 350
L 527 350
L 528 350
L 529 350
L 530 350
L 531 350
L 532 350
L 533 350
L 534 350
L 535 350
L 536 350
L 536 350
L 537 350
L 538 351
L 539 350
L 540 350
L 541 350
L 542 350
L 543 350
L 544 350
L 545 350
L 545 350
L 546 350
L 547 350
L 548 350
L 549 350
L 550 349
L 551 350
L 552 349
L 553 350
L 554 350
L 554 350
L 555 350
L 556 349
L 557 350
L 558 350
L 559 350
L 560 350
L 561 349
L 562 350
L 563 349
L 563 349
L 564 350
L 565 349
L 566 350
L 567 349
L 568 349
L 569 349
L 570 349
L 571 349
L 572 350
L 572 350
L 573 347
L 574 350
L 575 349
L 576 349
L 577 349
L 578 349
L 579 349
L 580 349
L 581 347
L 581 348
L 582 348
L 583 348
L 584 348
L 585 348
L 586 348
L 587 349
L 588 346
L 589 346
L 590 346
L 590 346
L 591 348
L 592 344
L 593 342
L 594 344
L 595 342
L 596 348
L 597 342
L 598 346
L 599 342
L 600 340
L 600 345
L 601 343
L 602 342
L 603 344
L 604 347
L 605 339
L 606 347
L 607 343
L 608 343
L 609 344
L 609 342
L 610 346
L 611 346
L 612 342
L 613 345
L 614 344
L 615 346
L 616 347
L 617 348
L 618 345
L 618 345
L 619 348
L 620 347
L 621 348
L 622 348
L 623 348
L 624 347
L 625 349
L 626 349
L 627 349
L 627 349
L 628 349
L 629 349
L 630 348
L 631 349
L 632 349
L 633 349
L 634 350
L 635 349
L 636 350
L 636 349
L 637 349
L 638 350
L 639 349
L 640 350
L 641 349
L 642 350
L 643 349
L 644 350
L 645 350
L 645 350
L 646 350
L 647 350
L 648 349
L 649 349
L 650 349
L 651 348
L 652 348
L 653 348
L 654 349
L 654 348
L 655 348
L 656 347
L 657 347
L 658 346
L 659 348
L 660 346
L 661 345
L 662 342
L 663 340
L 663 340
L 664 339
L 665 343
L 666 340
L 667 342
L 668 335
L 669 336
L 670 330
L 671 331
L 672 334
L 672 335
L 673 339
L 674 322
L 675 329
L 676 324
L 677 328
L 678 329
L 679 333
L 680 333
L 681 323
L 681 322
L 682 332
L 683 325
L 684 333
L 685 335
L 686 338
L 687 327
L 688 331
L 689 331
L 690 331
L 690 334
L 691 339
L 692 337
L 693 331
L 694 332
L 695 334
L 696 331
L 697 336
L 698 335
L 699 330
L 699 321
L 700 319
L 701 329
L 702 322
L 703 323
L 704 330
L 705 331
L 706 309
L 707 297
L 708 306
L 708 308
L 709 319
L 710 315
L 711 323
L 712 301
L 713 300
L 714 318
L 715 308
L 716 321
L 717 328
L 717 330
L 718 315
L 719 319
L 720 328
L 721 330
L 722 338
L 723 336
L 724 338
L 725 330
L 726 334
L 726 339
L 727 339
L 728 344
L 729 346
L 730 345
L 731 341
L 732 343
L 733 343
L 734 344
L 735 346
L 735 349
L 736 348
L 737 344
L 738 345
L 739 345
L 740 346
L 741 347
L 742 349
L 743 349
L 744 347
L 744 345
L 745 348
L 746 348
L 747 348
L 748 349
L 749 349
L 750 346
L 751 348
L 752 348
L 753 348
L 753 348
L 754 350
L 755 349
L 756 348
L 757 349
L 758 349
L 759 349
L 760 349
L 761 350
L 762 349
L 762 349
L 763 348
L 764 348
L 765 349
L 766 349
L 767 350
L 768 349
L 769 349
L 770 350
L 771 349
L 771 350
L 772 350
L 773 351
L 774 350
L 775 350
L 776 350
L 777 350
L 778 350
L 779 350
L 780 350
L 781 350
L 781 350
L 782 350
L 783 349
L 784 350
L 785 350
L 786 350
L 787 350
L 788 350
L 789 349
L 790 349
L 790 350
L 791 349
L 792 350
L 793 350
L 794 349
L 795 348
L 796 350
L 797 349
L 798 348
L 799 350
L 799 349
L 800 346
L 801 346
L 802 347
L 803 346
L 804 347
L 805 349
L 806 348
L 807 346
L 808 346
L 808 346
L 809 345
L 810 347
L 811 348
L 812 348
L 813 344
L 814 345
L 815 346
L 816 345
L 817 347
L 817 349
L 818 346
L 819 345
L 820 345
L 821 344
L 822 343
L 823 345
L 824 348
L 825 346
L 826 343
L 826 346
L 827 346
L 828 346
L 829 347
L 830 349
L 831 346
L 832 345
L 833 345
L 834 348
L 835 347
L 835 348
L 836 350
L 837 348
L 838 348
L 839 348
L 840 348
L 841 347
L 842 349
L 843 349
L 844 349
L 844 346
L 845 349
L 846 348
L 847 348
L 848 347
L 849 350
L 850 350
L 851 349
L 852 347
L 853 348
L 853 348
L 854 348
L 855 350
L 856 349
L 857 347
L 858 348
L 859 348
L 860 348
L 861 349
L 862 350
L 862 349
L 863 349
L 864 348
L 865 349
L 866 349
L 867 348
L 868 350
L 869 349
L 870 348
L 871 348
L 871 348
L 872 348
L 873 348
L 874 350
L 875 349
L 876 347
L 877 347
L 878 347
L 879 349
L 880 347
L 880 349
L 881 348
L 882 346
L 883 343
L 884 347
L 885 346
L 886 346
L 887 349
L 888 348
L 889 342
L 889 343
L 890 343
L 891 343
L 892 343
L 893 348
L 894 345
L 895 338
L 896 341
L 897 344
L 898 343
L 898 342
L 899 348
L 900 347
L 901 339
L 902 343
L 903 344
L 904 345
L 905 345
L 906 348
L 907 347
L 907 343
L 908 344
L 909 346
L 910 345
L 911 347
L 912 350
L 913 347
L 914 345
L 915 348
L 916 348
L 916 346
L 917 347
L 918 350
L 919 347
L 920 348
L 921 349
L 922 347
L 923 348
L 924 348
L 925 350
L 925 349
L 926 348
L 927 348
L 928 349
L 929 349
L 930 349
L 931 350
L 932 350
L 933 348
L 934 348
L 934 348
L 935 349
L 936 349
L 937 350
L 938 349
L 939 346
L 940 349
L 941 348
L 942 349
L 943 349
L 943 350
L 944 349
L 945 348
L 946 349
L 947 348
L 948 348
L 949 348
L 950 350
L 951 348
L 952 348
L 952 347
L 953 348
L 954 350
L 955 348
L 956 350
L 957 347
L 958 346
L 959 348
L 960 347
L 961 349
L 961 348" style="stroke-width:1;stroke:rgba(0,217,101,1.0);fill:none"/><path  d="M 38 351
L 39 351
L 40 351
L 41 351
L 42 351
L 43 351
L 44 351
L 45 351
L 46 351
L 47 351
L 48 351
L 48 351
L 49 351
L 50 351
L 51 351
L 52 351
L 53 351
L 54 351
L 55 351
L 56 351
L 57 351
L 57 351
L 58 351
L 59 351
L 60 351
L 61 351
L 62 351
L 63 351
L 64 351
L 65 351
L 66 351
L 66 351
L 67 351
L 68 351
L 69 351
L 70 351
L 71 351
L 72 351
L 73 351
L 74 351
L 75 351
L 75 351
L 76 351
L 77 351
L 78 351
L 79 351
L 80 351
L 81 351
L 82 351
L 83 351
L 84 351
L 84 351
L 85 351
L 86 350
L 87 351
L 88 351
L 89 351
L 90 351
L 91 351
L 92 351
L 93 351
L 93 351
L 94 351
L 95 351
L 96 351
L 97 351
L 98 351
L 99 351
L 100 351
L 101 351
L 102 351
L 102 351
L 103 351
L 104 351
L 105 351
L 106 351
L 107 351
L 108 350
L 109 351
L 110 351
L 111 351
L 111 351
L 112 351
L 113 351
L 114 351
L 115 351
L 116 351
L 117 351
L 118 351
L 119 351
L 120 351
L 120 351
L 121 351
L 122 351
L 123 351
L 124 351
L 125 351
L 126 351
L 127 351
L 128 351
L 129 351
L 129 351
L 130 351
L 131 351
L 132 351
L 133 351
L 134 351
L 135 351
L 136 351
L 137 351
L 138 351
L 138 351
L 139 351
L 140 351
L 141 351
L 142 351
L 143 351
L 144 351
L 145 351
L 146 351
L 147 351
L 147 351
L 148 351
L 149 351
L 150 351
L 151 351
L 152 351
L 153 351
L 154 351
L 155 351
L 156 351
L 156 351
L 157 351
L 158 351
L 159 351
L 160 351
L 161 351
L 162 351
L 163 351
L 164 351
L 165 351
L 165 351
L 166 351
L 167 351
L 168 351
L 169 351
L 170 351
L 171 351
L 172 351
L 173 351
L 174 351
L 174 351
L 175 351
L 176 351
L 177 351
L 178 351
L 179 351
L 180 351
L 181 351
L 182 351
L 183 351
L 183 351
L 184 351
L 185 351
L 186 351
L 187 351
L 188 351
L 189 351
L 190 351
L 191 351
L 192 351
L 192 351
L 193 351
L 194 351
L 195 351
L 196 351
L 197 351
L 198 351
L 199 351
L 200 351
L 201 351
L 201 351
L 202 351
L 203 351
L 204 351
L 205 351
L 206 351
L 207 351
L 208 351
L 209 351
L 210 351
L 210 351
L 211 351
L 212 351
L 213 351
L 214 351
L 215 351
L 216 351
L 217 351
L 218 351
L 219 351
L 219 351
L 220 351
L 221 351
L 222 351
L 223 351
L 224 351
L 225 351
L 226 351
L 227 351
L 228 351
L 229 351
L 229 351
L 230 351
L 231 351
L 232 351
L 233 351
L 234 351
L 235 351
L 236 351
L 237 351
L 238 351
L 238 351
L 239 351
L 240 351
L 241 351
L 242 351
L 243 351
L 244 351
L 245 351
L 246 351
L 247 351
L 247 351
L 248 351
L 249 350
L 250 351
L 251 351
L 252 351
L 253 351
L 254 351
L 255 351
L 256 351
L 256 351
L 257 351
L 258 350
L 259 350
L 260 351
L 261 350
L 262 351
L 263 351
L 264 351
L 265 350
L 265 350
L 266 350
L 267 350
L 268 350
L 269 350
L 270 350
L 271 350
L 272 351
L 273 351
L 274 350
L 274 350
L 275 350
L 276 350
L 277 350
L 278 350
L 279 351
L 280 350
L 281 350
L 282 351
L 283 350
L 283 350
L 284 350
L 285 350
L 286 350
L 287 350
L 288 350
L 289 350
L 290 350
L 291 350
L 292 350
L 292 350
L 293 350
L 294 350
L 295 350
L 296 350
L 297 350
L 298 350
L 299 350
L 300 350
L 301 350
L 301 350
L 302 350
L 303 350
L 304 350
L 305 350
L 306 350
L 307 351
L 308 350
L 309 350
L 310 351
L 310 351
L 311 351
L 312 350
L 313 350
L 314 351
L 315 351
L 316 350
L 317 350
L 318 350
L 319 350
L 319 350
L 320 350
L 321 350
L 322 351
L 323 350
L 324 350
L 325 351
L 326 351
L 327 350
L 328 351
L 328 351
L 329 350
L 330 351
L 331 350
L 332 350
L 333 351
L 334 350
L 335 350
L 336 351
L 337 350
L 337 351
L 338 351
L 339 351
L 340 351
L 341 350
L 342 350
L 343 351
L 344 350
L 345 350
L 346 351
L 346 350
L 347 351
L 348 351
L 349 350
L 350 350
L 351 350
L 352 350
L 353 350
L 354 350
L 355 350
L 355 350
L 356 351
L 357 351
L 358 350
L 359 351
L 360 351
L 361 350
L 362 350
L 363 350
L 364 351
L 364 350
L 365 351
L 366 350
L 367 350
L 368 351
L 369 350
L 370 350
L 371 350
L 372 351
L 373 350
L 373 350
L 374 351
L 375 351
L 376 351
L 377 350
L 378 350
L 379 351
L 380 350
L 381 350
L 382 350
L 382 351
L 383 351
L 384 351
L 385 351
L 386 351
L 387 350
L 388 351
L 389 351
L 390 351
L 391 350
L 391 351
L 392 351
L 393 351
L 394 351
L 395 351
L 396 351
L 397 351
L 398 350
L 399 350
L 400 351
L 400 351
L 401 351
L 402 350
L 403 351
L 404 350
L 405 351
L 406 351
L 407 351
L 408 351
L 409 351
L 410 351
L 410 351
L 411 351
L 412 350
L 413 351
L 414 351
L 415 351
L 416 350
L 417 351
L 418 351
L 419 351
L 419 351
L 420 350
L 421 351
L 422 351
L 423 351
L 424 350
L 425 351
L 426 350
L 427 351
L 428 351
L 428 351
L 429 351
L 430 351
L 431 351
L 432 351
L 433 351
L 434 351
L 435 351
L 436 351
L 437 351
L 437 350
L 438 351
L 439 351
L 440 351
L 441 351
L 442 351
L 443 351
L 444 351
L 445 351
L 446 351
L 446 351
L 447 351
L 448 351
L 449 351
L 450 351
L 451 351
L 452 351
L 453 351
L 454 351
L 455 351
L 455 351
L 456 351
L 457 351
L 458 351
L 459 351
L 460 351
L 461 351
L 462 351
L 463 351
L 464 351
L 464 351
L 465 351
L 466 351
L 467 351
L 468 351
L 469 350
L 470 351
L 471 351
L 472 351
L 473 351
L 473 351
L 474 351
L 475 351
L 476 351
L 477 351
L 478 351
L 479 351
L 480 351
L 481 350
L 482 351
L 482 351
L 483 351
L 484 351
L 485 351
L 486 351
L 487 351
L 488 351
L 489 351
L 490 351
L 491 351
L 491 351
L 492 351
L 493 351
L 494 351
L 495 351
L 496 351
L 497 351
L 498 351
L 499 351
L 500 351
L 500 351
L 501 351
L 502 351
L 503 351
L 504 351
L 505 351
L 506 351
L 507 351
L 508 351
L 509 351
L 509 351
L 510 351
L 511 351
L 512 351
L 513 351
L 514 351
L 515 351
L 516 351
L 517 351
L 518 351
L 518 351
L 519 351
L 520 351
L 521 351
L 522 351
L 523 351
L 524 351
L 525 351
L 526 351
L 527 351
L 527 351
L 528 351
L 529 351
L 530 351
L 531 351
L 532 351
L 533 351
L 534 351
L 535 351
L 536 351
L 536 351
L 537 351
L 538 351
L 539 351
L 540 351
L 541 351
L 542 351
L 543 351
L 544 351
L 545 351
L 545 351
L 546 351
L 547 351
L 548 351
L 549 350
L 550 351
L 551 351
L 552 351
L 553 351
L 554 350
L 554 351
L 555 351
L 556 351
L 557 351
L 558 351
L 559 351
L 560 351
L 561 351
L 562 351
L 563 351
L 563 351
L 564 350
L 565 351
L 566 351
L 567 351
L 568 351
L 569 351
L 570 351
L 571 351
L 572 351
L 572 350
L 573 351
L 574 351
L 575 351
L 576 351
L 577 351
L 578 350
L 579 351
L 580 350
L 581 350
L 581 350
L 582 350
L 583 351
L 584 351
L 585 351
L 586 351
L 587 350
L 588 351
L 589 351
L 590 350
L 590 351
L 591 351
L 592 351
L 593 351
L 594 350
L 595 350
L 596 351
L 597 350
L 598 351
L 599 350
L 600 351
L 600 351
L 601 351
L 602 351
L 603 351
L 604 350
L 605 351
L 606 350
L 607 351
L 608 351
L 609 351
L 609 351
L 610 351
L 611 350
L 612 351
L 613 350
L 614 351
L 615 350
L 616 350
L 617 350
L 618 350
L 618 351
L 619 351
L 620 351
L 621 351
L 622 351
L 623 350
L 624 351
L 625 351
L 626 351
L 627 350
L 627 351
L 628 351
L 629 351
L 630 351
L 631 351
L 632 351
L 633 351
L 634 350
L 635 351
L 636 351
L 636 351
L 637 351
L 638 351
L 639 351
L 640 351
L 641 351
L 642 351
L 643 351
L 644 350
L 645 351
L 645 351
L 646 350
L 647 351
L 648 351
L 649 351
L 650 351
L 651 350
L 652 350
L 653 351
L 654 351
L 654 350
L 655 351
L 656 351
L 657 351
L 658 350
L 659 351
L 660 351
L 661 350
L 662 351
L 663 351
L 663 351
L 664 351
L 665 351
L 666 351
L 667 351
L 668 351
L 669 350
L 670 351
L 671 350
L 672 351
L 672 351
L 673 351
L 674 351
L 675 351
L 676 351
L 677 351
L 678 351
L 679 351
L 680 351
L 681 351
L 681 351
L 682 351
L 683 351
L 684 350
L 685 351
L 686 351
L 687 351
L 688 351
L 689 351
L 690 351
L 690 351
L 691 351
L 692 351
L 693 351
L 694 350
L 695 351
L 696 350
L 697 350
L 698 351
L 699 350
L 699 351
L 700 351
L 701 350
L 702 351
L 703 351
L 704 351
L 705 351
L 706 350
L 707 351
L 708 350
L 708 351
L 709 351
L 710 351
L 711 351
L 712 351
L 713 350
L 714 351
L 715 350
L 716 351
L 717 350
L 717 351
L 718 350
L 719 350
L 720 350
L 721 351
L 722 351
L 723 350
L 724 351
L 725 351
L 726 350
L 726 351
L 727 351
L 728 351
L 729 351
L 730 350
L 731 351
L 732 351
L 733 350
L 734 350
L 735 351
L 735 350
L 736 351
L 737 350
L 738 351
L 739 351
L 740 351
L 741 351
L 742 351
L 743 351
L 744 350
L 744 350
L 745 351
L 746 351
L 747 351
L 748 351
L 749 351
L 750 351
L 751 351
L 752 351
L 753 351
L 753 350
L 754 350
L 755 351
L 756 351
L 757 351
L 758 351
L 759 351
L 760 351
L 761 351
L 762 351
L 762 351
L 763 351
L 764 351
L 765 351
L 766 351
L 767 351
L 768 351
L 769 351
L 770 351
L 771 351
L 771 351
L 772 351
L 773 351
L 774 351
L 775 351
L 776 351
L 777 351
L 778 351
L 779 351
L 780 351
L 781 351
L 781 350
L 782 351
L 783 351
L 784 351
L 785 351
L 786 351
L 787 351
L 788 351
L 789 351
L 790 351
L 790 351
L 791 351
L 792 351
L 793 351
L 794 351
L 795 351
L 796 351
L 797 351
L 798 351
L 799 351
L 799 350
L 800 351
L 801 351
L 802 351
L 803 351
L 804 351
L 805 351
L 806 351
L 807 351
L 808 351
L 808 351
L 809 351
L 810 351
L 811 351
L 812 351
L 813 350
L 814 351
L 815 351
L 816 351
L 817 351
L 817 351
L 818 351
L 819 351
L 820 351
L 821 351
L 822 351
L 823 350
L 824 351
L 825 351
L 826 351
L 826 351
L 827 351
L 828 351
L 829 351
L 830 351
L 831 351
L 832 351
L 833 351
L 834 351
L 835 351
L 835 351
L 836 351
L 837 351
L 838 351
L 839 351
L 840 351
L 841 350
L 842 351
L 843 350
L 844 351
L 844 351
L 845 351
L 846 351
L 847 351
L 848 351
L 849 351
L 850 351
L 851 351
L 852 351
L 853 351
L 853 350
L 854 351
L 855 351
L 856 351
L 857 351
L 858 351
L 859 351
L 860 350
L 861 351
L 862 351
L 862 351
L 863 351
L 864 351
L 865 351
L 866 351
L 867 351
L 868 351
L 869 351
L 870 351
L 871 351
L 871 351
L 872 351
L 873 351
L 874 351
L 875 351
L 876 351
L 877 351
L 878 351
L 879 351
L 880 351
L 880 351
L 881 351
L 882 351
L 883 351
L 884 351
L 885 351
L 886 351
L 887 351
L 888 351
L 889 351
L 889 351
L 890 351
L 891 351
L 892 351
L 893 351
L 894 351
L 895 351
L 896 351
L 897 351
L 898 351
L 898 350
L 899 351
L 900 351
L 901 351
L 902 351
L 903 351
L 904 351
L 905 351
L 906 351
L 907 351
L 907 351
L 908 351
L 909 351
L 910 351
L 911 351
L 912 351
L 913 351
L 914 351
L 915 351
L 916 351
L 916 351
L 917 351
L 918 351
L 919 351
L 920 351
L 921 351
L 922 351
L 923 351
L 924 351
L 925 351
L 925 351
L 926 351
L 927 351
L 928 351
L 929 351
L 930 351
L 931 351
L 932 351
L 933 351
L 934 351
L 934 351
L 935 351
L 936 351
L 937 351
L 938 351
L 939 351
L 940 351
L 941 351
L 942 351
L 943 351
L 943 351
L 944 351
L 945 351
L 946 351
L 947 351
L 948 351
L 949 351
L 950 351
L 951 351
L 952 351
L 952 351
L 953 351
L 954 351
L 955 351
L 956 351
L 957 350
L 958 351
L 959 351
L 960 351
L 961 351
L 961 351" style="stroke-width:1;stroke:rgba(217,0,116,1.0);fill:none"/><text x="359" y="33" style="stroke-width:0;stroke:none;fill:rgba(51,51,51,1.0);font-size:23.0px;font-family:'Roboto Medium',sans-serif">Südoststeiermark 17.12.2022</text><path  d="M 38 11
L 251 11
L 251 91
L 38 91
L 38 11" style="stroke-width:1;stroke:rgba(51,51,51,1.0);fill:rgba(255,255,255,1.0)"/><text x="43" y="26" style="stroke-width:0;stroke:none;fill:rgba(51,51,51,1.0);font-size:10.2px;font-family:'Roboto Medium',sans-serif">Sieben Tage Durschnitt Inzidenz Fälle</text><path  d="M 221 21
L 241 21" style="stroke-width:1;stroke:rgba(0,116,217,1.0);fill:none"/><text x="43" y="56" style="stroke-width:0;stroke:none;fill:rgba(51,51,51,1.0);font-size:10.2px;font-family:'Roboto Medium',sans-serif">Anzahl Faelle</text><path  d="M 110 51
L 241 51" style="stroke-width:1;stroke:rgba(0,217,101,1.0);fill:none"/><text x="43" y="86" style="stroke-width:0;stroke:none;fill:rgba(51,51,51,1.0);font-size:10.2px;font-family:'Roboto Medium',sans-serif">Anzahl Tot</text><path  d="M 98 81
L 241 81" style="stroke-width:1;stroke:rgba(217,0,116,1.0);fill:none"/></svg>