<svg xmlns="http://www.w3.org/2000/svg" xmlns:xlink="http://www.w3.org/1999/xlink" width="1024" height="400">\n<path  d="M 0 0
L 1024 0
L 1024 400
L 0 400
L 0 0" style="stroke-width:0;stroke:rgba(255,255,255,1.0);fill:rgba(255,255,255,1.0)"/><path  d="M 38 11
L 961 11
L 961 351
L 38 351
L 38 11" style="stroke-width:0;stroke:rgba(255,255,255,1.0);fill:rgba(255,255,255,1.0)"/><path  d="M 38 351
L 961 351" style="stroke-width:1;stroke:rgba(51,51,51,1.0);fill:none"/><path  d="M 38 351
L 38 356" style="stroke-width:1;stroke:rgba(51,51,51,1.0);fill:none"/><text x="5" y="373" style="stroke-width:0;stroke:none;fill:rgba(51,51,51,1.0);font-size:12.8px;font-family:'Roboto Medium',sans-serif">2020-02-26</text><path  d="M 154 351
L 154 356" style="stroke-width:1;stroke:rgba(51,51,51,1.0);fill:none"/><text x="121" y="373" style="stroke-width:0;stroke:none;fill:rgba(51,51,51,1.0);font-size:12.8px;font-family:'Roboto Medium',sans-serif">2020-04-15</text><path  d="M 269 351
L 269 356" style="stroke-width:1;stroke:rgba(51,51,51,1.0);fill:none"/><text x="236" y="373" style="stroke-width:0;stroke:none;fill:rgba(51,51,51,1.0);font-size:12.8px;font-family:'Roboto Medium',sans-serif">2020-06-04</text><path  d="M 385 351
L 385 356" style="stroke-width:1;stroke:rgba(51,51,51,1.0);fill:none"/><text x="352" y="373" style="stroke-width:0;stroke:none;fill:rgba(51,51,51,1.0);font-size:12.8px;font-family:'Roboto Medium',sans-serif">2020-07-24</text><path  d="M 500 351
L 500 356" style="stroke-width:1;stroke:rgba(51,51,51,1.0);fill:none"/><text x="467" y="373" style="stroke-width:0;stroke:none;fill:rgba(51,51,51,1.0);font-size:12.8px;font-family:'Roboto Medium',sans-serif">2020-09-12</text><path  d="M 615 351
L 615 356" style="stroke-width:1;stroke:rgba(51,51,51,1.0);fill:none"/><text x="582" y="373" style="stroke-width:0;stroke:none;fill:rgba(51,51,51,1.0);font-size:12.8px;font-family:'Roboto Medium',sans-serif">2020-10-31</text><path  d="M 731 351
L 731 356" style="stroke-width:1;stroke:rgba(51,51,51,1.0);fill:none"/><text x="698" y="373" style="stroke-width:0;stroke:none;fill:rgba(51,51,51,1.0);font-size:12.8px;font-family:'Roboto Medium',sans-serif">2020-12-20</text><path  d="M 846 351
L 846 356" style="stroke-width:1;stroke:rgba(51,51,51,1.0);fill:none"/><text x="813" y="373" style="stroke-width:0;stroke:none;fill:rgba(51,51,51,1.0);font-size:12.8px;font-family:'Roboto Medium',sans-serif">2021-02-08</text><path  d="M 961 351
L 961 356" style="stroke-width:1;stroke:rgba(51,51,51,1.0);fill:none"/><text x="928" y="373" style="stroke-width:0;stroke:none;fill:rgba(51,51,51,1.0);font-size:12.8px;font-family:'Roboto Medium',sans-serif">2021-03-30</text><text x="481" y="395" style="stroke-width:0;stroke:none;fill:rgba(51,51,51,1.0);font-size:12.8px;font-family:'Roboto Medium',sans-serif">Datum</text><path  d="M 962 351
L 962 11" style="stroke-width:1;stroke:rgba(51,51,51,1.0);fill:none"/><path  d="M 962 351
L 967 351" style="stroke-width:1;stroke:rgba(51,51,51,1.0);fill:none"/><text x="972" y="357" style="stroke-width:0;stroke:none;fill:rgba(51,51,51,1.0);font-size:12.8px;font-family:'Roboto Medium',sans-serif">0.00</text><path  d="M 962 306
L 967 306" style="stroke-width:1;stroke:rgba(51,51,51,1.0);fill:none"/><text x="972" y="312" style="stroke-width:0;stroke:none;fill:rgba(51,51,51,1.0);font-size:12.8px;font-family:'Roboto Medium',sans-serif">170.00</text><path  d="M 962 264
L 967 264" style="stroke-width:1;stroke:rgba(51,51,51,1.0);fill:none"/><text x="972" y="270" style="stroke-width:0;stroke:none;fill:rgba(51,51,51,1.0);font-size:12.8px;font-family:'Roboto Medium',sans-serif">330.00</text><path  d="M 962 222
L 967 222" style="stroke-width:1;stroke:rgba(51,51,51,1.0);fill:none"/><text x="972" y="228" style="stroke-width:0;stroke:none;fill:rgba(51,51,51,1.0);font-size:12.8px;font-family:'Roboto Medium',sans-serif">490.00</text><path  d="M 962 181
L 967 181" style="stroke-width:1;stroke:rgba(51,51,51,1.0);fill:none"/><text x="972" y="187" style="stroke-width:0;stroke:none;fill:rgba(51,51,51,1.0);font-size:12.8px;font-family:'Roboto Medium',sans-serif">650.00</text><path  d="M 962 136
L 967 136" style="stroke-width:1;stroke:rgba(51,51,51,1.0);fill:none"/><text x="972" y="142" style="stroke-width:0;stroke:none;fill:rgba(51,51,51,1.0);font-size:12.8px;font-family:'Roboto Medium',sans-serif">820.00</text><path  d="M 962 94
L 967 94" style="stroke-width:1;stroke:rgba(51,51,51,1.0);fill:none"/><text x="972" y="100" style="stroke-width:0;stroke:none;fill:rgba(51,51,51,1.0);font-size:12.8px;font-family:'Roboto Medium',sans-serif">980.00</text><path  d="M 962 52
L 967 52" style="stroke-width:1;stroke:rgba(51,51,51,1.0);fill:none"/><text x="972" y="58" style="stroke-width:0;stroke:none;fill:rgba(51,51,51,1.0);font-size:12.8px;font-family:'Roboto Medium',sans-serif">1140.00</text><path  d="M 962 11
L 967 11" style="stroke-width:1;stroke:rgba(51,51,51,1.0);fill:none"/><text x="972" y="17" style="stroke-width:0;stroke:none;fill:rgba(51,51,51,1.0);font-size:12.8px;font-family:'Roboto Medium',sans-serif">1300.00</text><path  d="M 38 351
L 41 351
L 43 351
L 45 351
L 48 351
L 50 351
L 52 351
L 55 351
L 57 351
L 59 351
L 62 351
L 64 351
L 66 351
L 69 351
L 71 351
L 73 351
L 76 349
L 78 349
L 80 347
L 83 347
L 85 347
L 87 347
L 90 347
L 92 348
L 94 348
L 96 345
L 99 345
L 101 340
L 103 338
L 106 338
L 108 338
L 110 335
L 113 340
L 115 339
L 117 343
L 120 345
L 122 344
L 124 344
L 127 347
L 129 345
L 131 347
L 134 345
L 136 344
L 138 345
L 141 345
L 143 345
L 145 347
L 147 347
L 150 349
L 152 351
L 154 351
L 157 351
L 159 351
L 161 351
L 164 351
L 166 351
L 168 351
L 171 351
L 173 351
L 175 351
L 178 351
L 180 351
L 182 351
L 185 351
L 187 351
L 189 351
L 192 351
L 194 351
L 196 351
L 199 351
L 201 351
L 203 351
L 205 351
L 208 351
L 210 351
L 212 351
L 215 351
L 217 351
L 219 351
L 222 351
L 224 351
L 226 351
L 229 351
L 231 351
L 233 351
L 236 351
L 238 351
L 240 351
L 243 351
L 245 351
L 247 351
L 250 351
L 252 351
L 254 351
L 256 351
L 259 351
L 261 351
L 263 351
L 266 351
L 268 351
L 270 351
L 273 351
L 275 351
L 277 351
L 280 351
L 282 351
L 284 351
L 287 351
L 289 351
L 291 351
L 294 351
L 296 351
L 298 351
L 301 351
L 303 351
L 305 351
L 308 351
L 310 351
L 312 351
L 314 351
L 317 351
L 319 351
L 321 351
L 324 351
L 326 351
L 328 351
L 331 351
L 333 351
L 335 351
L 338 351
L 340 351
L 342 351
L 345 351
L 347 351
L 349 351
L 352 351
L 354 351
L 356 351
L 359 351
L 361 351
L 363 351
L 365 351
L 368 351
L 370 351
L 372 348
L 375 348
L 377 345
L 379 345
L 382 345
L 384 345
L 386 345
L 389 348
L 391 348
L 393 351
L 396 349
L 398 349
L 400 349
L 403 349
L 405 349
L 407 349
L 410 349
L 412 351
L 414 351
L 417 351
L 419 351
L 421 351
L 423 351
L 426 351
L 428 351
L 430 351
L 433 351
L 435 351
L 437 351
L 440 351
L 442 351
L 444 351
L 447 351
L 449 351
L 451 351
L 454 351
L 456 351
L 458 351
L 461 351
L 463 351
L 465 351
L 468 351
L 470 351
L 472 351
L 474 351
L 477 349
L 479 349
L 481 349
L 484 349
L 486 349
L 488 349
L 491 349
L 493 351
L 495 351
L 498 351
L 500 349
L 502 349
L 505 349
L 507 348
L 509 348
L 512 348
L 514 345
L 516 347
L 519 347
L 521 347
L 523 348
L 526 347
L 528 347
L 530 349
L 532 349
L 535 349
L 537 349
L 539 348
L 542 348
L 544 348
L 546 344
L 549 344
L 551 341
L 553 341
L 556 334
L 558 334
L 560 330
L 563 332
L 565 332
L 567 330
L 570 329
L 572 336
L 574 331
L 577 327
L 579 321
L 581 318
L 583 320
L 586 312
L 588 310
L 590 305
L 593 295
L 595 298
L 597 298
L 600 290
L 602 289
L 604 287
L 607 282
L 609 282
L 611 277
L 614 267
L 616 251
L 618 238
L 621 223
L 623 211
L 625 161
L 628 139
L 630 121
L 632 132
L 635 140
L 637 92
L 639 87
L 641 110
L 644 90
L 646 105
L 648 113
L 651 34
L 653 81
L 655 100
L 658 113
L 660 132
L 662 105
L 665 110
L 667 163
L 669 165
L 672 135
L 674 123
L 676 118
L 679 113
L 681 83
L 683 104
L 686 39
L 688 35
L 690 53
L 692 60
L 695 78
L 697 93
L 699 95
L 702 154
L 704 176
L 706 190
L 709 199
L 711 223
L 713 198
L 716 211
L 718 223
L 720 224
L 723 221
L 725 230
L 727 229
L 730 260
L 732 258
L 734 258
L 737 279
L 739 291
L 741 303
L 744 299
L 746 281
L 748 282
L 750 278
L 753 248
L 755 241
L 757 202
L 760 196
L 762 206
L 764 194
L 767 205
L 769 210
L 771 210
L 774 215
L 776 229
L 778 228
L 781 221
L 783 201
L 785 188
L 788 184
L 790 192
L 792 177
L 795 184
L 797 201
L 799 202
L 801 215
L 804 210
L 806 221
L 808 220
L 811 219
L 813 210
L 815 217
L 818 220
L 820 232
L 822 229
L 825 243
L 827 247
L 829 258
L 832 255
L 834 268
L 836 267
L 839 281
L 841 281
L 843 285
L 846 285
L 848 299
L 850 308
L 853 308
L 855 312
L 857 304
L 859 310
L 862 312
L 864 313
L 866 314
L 869 316
L 871 317
L 873 325
L 876 322
L 878 326
L 880 323
L 883 323
L 885 326
L 887 321
L 890 322
L 892 314
L 894 314
L 897 314
L 899 308
L 901 295
L 904 292
L 906 285
L 908 290
L 910 289
L 913 290
L 915 278
L 917 282
L 920 277
L 922 276
L 924 272
L 927 261
L 929 260
L 931 269
L 934 272
L 936 274
L 938 276
L 941 281
L 943 281
L 945 276
L 948 274
L 950 277
L 952 277
L 955 285
L 957 285
L 959 296
L 961 303" style="stroke-width:1;stroke:rgba(0,116,217,1.0);fill:none"/><path  d="M 38 351
L 41 351
L 43 351
L 45 351
L 48 351
L 50 351
L 52 351
L 55 351
L 57 351
L 59 351
L 62 351
L 64 351
L 66 351
L 69 351
L 71 351
L 73 351
L 76 350
L 78 351
L 80 350
L 83 351
L 85 351
L 87 351
L 90 351
L 92 351
L 94 351
L 96 349
L 99 351
L 101 349
L 103 350
L 106 351
L 108 351
L 110 350
L 113 351
L 115 350
L 117 350
L 120 351
L 122 350
L 124 351
L 127 351
L 129 350
L 131 351
L 134 350
L 136 350
L 138 351
L 141 351
L 143 351
L 145 351
L 147 351
L 150 351
L 152 351
L 154 351
L 157 351
L 159 351
L 161 351
L 164 351
L 166 351
L 168 351
L 171 351
L 173 351
L 175 351
L 178 351
L 180 351
L 182 351
L 185 351
L 187 351
L 189 351
L 192 351
L 194 351
L 196 351
L 199 351
L 201 351
L 203 351
L 205 351
L 208 351
L 210 351
L 212 351
L 215 351
L 217 351
L 219 351
L 222 351
L 224 351
L 226 351
L 229 351
L 231 351
L 233 351
L 236 351
L 238 351
L 240 351
L 243 351
L 245 351
L 247 351
L 250 351
L 252 351
L 254 351
L 256 351
L 259 351
L 261 351
L 263 351
L 266 351
L 268 351
L 270 351
L 273 351
L 275 351
L 277 351
L 280 351
L 282 351
L 284 351
L 287 351
L 289 351
L 291 351
L 294 351
L 296 351
L 298 351
L 301 351
L 303 351
L 305 351
L 308 351
L 310 351
L 312 351
L 314 351
L 317 351
L 319 351
L 321 351
L 324 351
L 326 351
L 328 351
L 331 351
L 333 351
L 335 351
L 338 351
L 340 351
L 342 351
L 345 351
L 347 351
L 349 351
L 352 351
L 354 351
L 356 351
L 359 351
L 361 351
L 363 351
L 365 351
L 368 351
L 370 351
L 372 350
L 375 351
L 377 350
L 379 351
L 382 351
L 384 351
L 386 351
L 389 351
L 391 351
L 393 351
L 396 350
L 398 351
L 400 351
L 403 351
L 405 351
L 407 351
L 410 351
L 412 351
L 414 351
L 417 351
L 419 351
L 421 351
L 423 351
L 426 351
L 428 351
L 430 351
L 433 351
L 435 351
L 437 351
L 440 351
L 442 351
L 444 351
L 447 351
L 449 351
L 451 351
L 454 351
L 456 351
L 458 351
L 461 351
L 463 351
L 465 351
L 468 351
L 470 351
L 472 351
L 474 351
L 477 350
L 479 351
L 481 351
L 484 351
L 486 351
L 488 351
L 491 351
L 493 351
L 495 351
L 498 351
L 500 350
L 502 351
L 505 351
L 507 350
L 509 351
L 512 351
L 514 350
L 516 351
L 519 351
L 521 351
L 523 351
L 526 350
L 528 351
L 530 351
L 532 351
L 535 351
L 537 351
L 539 350
L 542 350
L 544 351
L 546 350
L 549 351
L 551 350
L 553 351
L 556 349
L 558 350
L 560 350
L 563 350
L 565 351
L 567 349
L 570 350
L 572 350
L 574 349
L 577 349
L 579 349
L 581 350
L 583 350
L 586 349
L 588 350
L 590 348
L 593 347
L 595 349
L 597 350
L 600 348
L 602 348
L 604 350
L 607 347
L 609 347
L 611 348
L 614 348
L 616 345
L 618 346
L 621 347
L 623 345
L 625 337
L 628 344
L 630 344
L 632 347
L 635 347
L 637 337
L 639 344
L 641 341
L 644 340
L 646 347
L 648 349
L 651 331
L 653 346
L 655 348
L 658 344
L 660 344
L 662 342
L 665 350
L 667 342
L 669 347
L 672 342
L 674 342
L 676 343
L 679 341
L 681 344
L 683 346
L 686 334
L 688 341
L 690 345
L 692 344
L 695 344
L 697 347
L 699 347
L 702 346
L 704 345
L 706 348
L 709 346
L 711 349
L 713 342
L 716 349
L 718 348
L 720 346
L 723 348
L 725 348
L 727 349
L 730 348
L 732 349
L 734 348
L 737 350
L 739 350
L 741 350
L 744 348
L 746 345
L 748 349
L 750 347
L 753 344
L 755 348
L 757 342
L 760 347
L 762 347
L 764 347
L 767 349
L 769 345
L 771 348
L 774 343
L 776 350
L 778 347
L 781 345
L 783 345
L 785 342
L 788 348
L 790 345
L 792 347
L 795 348
L 797 349
L 799 345
L 801 345
L 804 347
L 806 347
L 808 347
L 811 348
L 813 347
L 815 347
L 818 346
L 820 349
L 822 347
L 825 349
L 827 348
L 829 349
L 832 346
L 834 348
L 836 349
L 839 349
L 841 349
L 843 349
L 846 349
L 848 349
L 850 350
L 853 349
L 855 350
L 857 348
L 859 351
L 862 349
L 864 349
L 866 350
L 869 349
L 871 351
L 873 349
L 876 350
L 878 350
L 880 349
L 883 350
L 885 349
L 887 349
L 890 350
L 892 348
L 894 350
L 897 349
L 899 349
L 901 347
L 904 349
L 906 348
L 908 349
L 910 350
L 913 349
L 915 347
L 917 348
L 920 348
L 922 348
L 924 349
L 927 348
L 929 349
L 931 348
L 934 348
L 936 348
L 938 348
L 941 350
L 943 348
L 945 348
L 948 348
L 950 349
L 952 348
L 955 350
L 957 350
L 959 350
L 961 349" style="stroke-width:1;stroke:rgba(0,217,101,1.0);fill:none"/><path  d="M 38 351
L 41 351
L 43 351
L 45 351
L 48 351
L 50 351
L 52 351
L 55 351
L 57 351
L 59 351
L 62 351
L 64 351
L 66 351
L 69 351
L 71 351
L 73 351
L 76 351
L 78 351
L 80 351
L 83 351
L 85 351
L 87 351
L 90 351
L 92 351
L 94 351
L 96 351
L 99 351
L 101 351
L 103 351
L 106 351
L 108 351
L 110 351
L 113 351
L 115 351
L 117 351
L 120 351
L 122 351
L 124 351
L 127 351
L 129 351
L 131 351
L 134 351
L 136 351
L 138 351
L 141 351
L 143 351
L 145 351
L 147 351
L 150 351
L 152 351
L 154 351
L 157 351
L 159 351
L 161 351
L 164 351
L 166 351
L 168 351
L 171 351
L 173 351
L 175 351
L 178 351
L 180 351
L 182 351
L 185 351
L 187 351
L 189 351
L 192 351
L 194 351
L 196 351
L 199 351
L 201 351
L 203 351
L 205 351
L 208 351
L 210 351
L 212 351
L 215 351
L 217 351
L 219 351
L 222 351
L 224 351
L 226 351
L 229 351
L 231 351
L 233 351
L 236 351
L 238 351
L 240 351
L 243 351
L 245 351
L 247 351
L 250 351
L 252 351
L 254 351
L 256 351
L 259 351
L 261 351
L 263 351
L 266 351
L 268 351
L 270 351
L 273 351
L 275 351
L 277 351
L 280 351
L 282 351
L 284 351
L 287 351
L 289 351
L 291 351
L 294 351
L 296 351
L 298 351
L 301 351
L 303 351
L 305 351
L 308 351
L 310 351
L 312 351
L 314 351
L 317 351
L 319 351
L 321 351
L 324 351
L 326 351
L 328 351
L 331 351
L 333 351
L 335 351
L 338 351
L 340 351
L 342 351
L 345 351
L 347 351
L 349 351
L 352 351
L 354 351
L 356 351
L 359 351
L 361 351
L 363 351
L 365 351
L 368 351
L 370 351
L 372 351
L 375 351
L 377 351
L 379 351
L 382 351
L 384 351
L 386 351
L 389 351
L 391 351
L 393 351
L 396 351
L 398 351
L 400 351
L 403 351
L 405 351
L 407 351
L 410 351
L 412 351
L 414 351
L 417 351
L 419 351
L 421 351
L 423 351
L 426 350
L 428 351
L 430 351
L 433 351
L 435 351
L 437 351
L 440 351
L 442 351
L 444 351
L 447 351
L 449 351
L 451 351
L 454 351
L 456 351
L 458 351
L 461 351
L 463 351
L 465 351
L 468 351
L 470 351
L 472 351
L 474 351
L 477 351
L 479 351
L 481 351
L 484 351
L 486 351
L 488 351
L 491 351
L 493 351
L 495 351
L 498 351
L 500 351
L 502 351
L 505 351
L 507 351
L 509 351
L 512 351
L 514 351
L 516 351
L 519 351
L 521 351
L 523 351
L 526 351
L 528 351
L 530 351
L 532 351
L 535 351
L 537 351
L 539 351
L 542 351
L 544 351
L 546 351
L 549 351
L 551 351
L 553 351
L 556 351
L 558 351
L 560 351
L 563 351
L 565 351
L 567 351
L 570 351
L 572 351
L 574 351
L 577 351
L 579 351
L 581 351
L 583 350
L 586 351
L 588 351
L 590 351
L 593 350
L 595 351
L 597 351
L 600 351
L 602 351
L 604 351
L 607 351
L 609 351
L 611 351
L 614 351
L 616 351
L 618 351
L 621 351
L 623 351
L 625 351
L 628 351
L 630 351
L 632 351
L 635 350
L 637 351
L 639 350
L 641 351
L 644 350
L 646 351
L 648 351
L 651 351
L 653 351
L 655 351
L 658 351
L 660 351
L 662 351
L 665 351
L 667 351
L 669 350
L 672 350
L 674 351
L 676 350
L 679 351
L 681 351
L 683 350
L 686 350
L 688 351
L 690 351
L 692 350
L 695 351
L 697 351
L 699 351
L 702 351
L 704 350
L 706 350
L 709 350
L 711 350
L 713 351
L 716 351
L 718 351
L 720 351
L 723 350
L 725 350
L 727 351
L 730 351
L 732 350
L 734 350
L 737 351
L 739 351
L 741 351
L 744 351
L 746 351
L 748 351
L 750 351
L 753 351
L 755 350
L 757 351
L 760 351
L 762 350
L 764 351
L 767 351
L 769 351
L 771 351
L 774 351
L 776 351
L 778 351
L 781 350
L 783 351
L 785 351
L 788 351
L 790 351
L 792 351
L 795 351
L 797 351
L 799 351
L 801 351
L 804 351
L 806 350
L 808 351
L 811 351
L 813 351
L 815 351
L 818 351
L 820 351
L 822 350
L 825 351
L 827 350
L 829 351
L 832 351
L 834 350
L 836 351
L 839 350
L 841 351
L 843 351
L 846 351
L 848 351
L 850 351
L 853 351
L 855 351
L 857 351
L 859 351
L 862 351
L 864 351
L 866 351
L 869 351
L 871 351
L 873 351
L 876 351
L 878 351
L 880 350
L 883 351
L 885 351
L 887 351
L 890 350
L 892 351
L 894 351
L 897 351
L 899 351
L 901 351
L 904 351
L 906 351
L 908 351
L 910 351
L 913 351
L 915 351
L 917 351
L 920 350
L 922 351
L 924 351
L 927 351
L 929 351
L 931 351
L 934 351
L 936 351
L 938 351
L 941 351
L 943 351
L 945 351
L 948 351
L 950 351
L 952 351
L 955 351
L 957 351
L 959 351
L 961 351" style="stroke-width:1;stroke:rgba(217,0,116,1.0);fill:none"/><text x="400" y="33" style="stroke-width:0;stroke:none;fill:rgba(51,51,51,1.0);font-size:23.0px;font-family:'Roboto Medium',sans-serif">Tamsweg 30.03.2021</text><path  d="M 38 11
L 251 11
L 251 91
L 38 91
L 38 11" style="stroke-width:1;stroke:rgba(51,51,51,1.0);fill:rgba(255,255,255,1.0)"/><text x="43" y="26" style="stroke-width:0;stroke:none;fill:rgba(51,51,51,1.0);font-size:10.2px;font-family:'Roboto Medium',sans-serif">Sieben Tage Durschnitt Inzidenz Fälle</text><path  d="M 221 21
L 241 21" style="stroke-width:1;stroke:rgba(0,116,217,1.0);fill:none"/><text x="43" y="56" style="stroke-width:0;stroke:none;fill:rgba(51,51,51,1.0);font-size:10.2px;font-family:'Roboto Medium',sans-serif">Anzahl Faelle</text><path  d="M 110 51
L 241 51" style="stroke-width:1;stroke:rgba(0,217,101,1.0);fill:none"/><text x="43" y="86" style="stroke-width:0;stroke:none;fill:rgba(51,51,51,1.0);font-size:10.2px;font-family:'Roboto Medium',sans-serif">Anzahl Tot</text><path  d="M 98 81
L 241 81" style="stroke-width:1;stroke:rgba(217,0,116,1.0);fill:none"/></svg>