<svg xmlns="http://www.w3.org/2000/svg" xmlns:xlink="http://www.w3.org/1999/xlink" width="1024" height="400">\n<path  d="M 0 0
L 1024 0
L 1024 400
L 0 400
L 0 0" style="stroke-width:0;stroke:rgba(255,255,255,1.0);fill:rgba(255,255,255,1.0)"/><path  d="M 38 11
L 961 11
L 961 351
L 38 351
L 38 11" style="stroke-width:0;stroke:rgba(255,255,255,1.0);fill:rgba(255,255,255,1.0)"/><path  d="M 38 351
L 961 351" style="stroke-width:1;stroke:rgba(51,51,51,1.0);fill:none"/><path  d="M 38 351
L 38 356" style="stroke-width:1;stroke:rgba(51,51,51,1.0);fill:none"/><text x="5" y="373" style="stroke-width:0;stroke:none;fill:rgba(51,51,51,1.0);font-size:12.8px;font-family:'Roboto Medium',sans-serif">2020-02-26</text><path  d="M 154 351
L 154 356" style="stroke-width:1;stroke:rgba(51,51,51,1.0);fill:none"/><text x="121" y="373" style="stroke-width:0;stroke:none;fill:rgba(51,51,51,1.0);font-size:12.8px;font-family:'Roboto Medium',sans-serif">2020-05-29</text><path  d="M 269 351
L 269 356" style="stroke-width:1;stroke:rgba(51,51,51,1.0);fill:none"/><text x="236" y="373" style="stroke-width:0;stroke:none;fill:rgba(51,51,51,1.0);font-size:12.8px;font-family:'Roboto Medium',sans-serif">2020-08-30</text><path  d="M 385 351
L 385 356" style="stroke-width:1;stroke:rgba(51,51,51,1.0);fill:none"/><text x="352" y="373" style="stroke-width:0;stroke:none;fill:rgba(51,51,51,1.0);font-size:12.8px;font-family:'Roboto Medium',sans-serif">2020-12-02</text><path  d="M 500 351
L 500 356" style="stroke-width:1;stroke:rgba(51,51,51,1.0);fill:none"/><text x="467" y="373" style="stroke-width:0;stroke:none;fill:rgba(51,51,51,1.0);font-size:12.8px;font-family:'Roboto Medium',sans-serif">2021-03-05</text><path  d="M 615 351
L 615 356" style="stroke-width:1;stroke:rgba(51,51,51,1.0);fill:none"/><text x="582" y="373" style="stroke-width:0;stroke:none;fill:rgba(51,51,51,1.0);font-size:12.8px;font-family:'Roboto Medium',sans-serif">2021-06-06</text><path  d="M 731 351
L 731 356" style="stroke-width:1;stroke:rgba(51,51,51,1.0);fill:none"/><text x="698" y="373" style="stroke-width:0;stroke:none;fill:rgba(51,51,51,1.0);font-size:12.8px;font-family:'Roboto Medium',sans-serif">2021-09-08</text><path  d="M 846 351
L 846 356" style="stroke-width:1;stroke:rgba(51,51,51,1.0);fill:none"/><text x="813" y="373" style="stroke-width:0;stroke:none;fill:rgba(51,51,51,1.0);font-size:12.8px;font-family:'Roboto Medium',sans-serif">2021-12-10</text><path  d="M 961 351
L 961 356" style="stroke-width:1;stroke:rgba(51,51,51,1.0);fill:none"/><text x="928" y="373" style="stroke-width:0;stroke:none;fill:rgba(51,51,51,1.0);font-size:12.8px;font-family:'Roboto Medium',sans-serif">2022-03-14</text><text x="481" y="395" style="stroke-width:0;stroke:none;fill:rgba(51,51,51,1.0);font-size:12.8px;font-family:'Roboto Medium',sans-serif">Datum</text><path  d="M 962 351
L 962 11" style="stroke-width:1;stroke:rgba(51,51,51,1.0);fill:none"/><path  d="M 962 351
L 967 351" style="stroke-width:1;stroke:rgba(51,51,51,1.0);fill:none"/><text x="972" y="357" style="stroke-width:0;stroke:none;fill:rgba(51,51,51,1.0);font-size:12.8px;font-family:'Roboto Medium',sans-serif">0.00</text><path  d="M 962 307
L 967 307" style="stroke-width:1;stroke:rgba(51,51,51,1.0);fill:none"/><text x="972" y="313" style="stroke-width:0;stroke:none;fill:rgba(51,51,51,1.0);font-size:12.8px;font-family:'Roboto Medium',sans-serif">380.00</text><path  d="M 962 266
L 967 266" style="stroke-width:1;stroke:rgba(51,51,51,1.0);fill:none"/><text x="972" y="272" style="stroke-width:0;stroke:none;fill:rgba(51,51,51,1.0);font-size:12.8px;font-family:'Roboto Medium',sans-serif">750.00</text><path  d="M 962 222
L 967 222" style="stroke-width:1;stroke:rgba(51,51,51,1.0);fill:none"/><text x="972" y="228" style="stroke-width:0;stroke:none;fill:rgba(51,51,51,1.0);font-size:12.8px;font-family:'Roboto Medium',sans-serif">1130.00</text><path  d="M 962 181
L 967 181" style="stroke-width:1;stroke:rgba(51,51,51,1.0);fill:none"/><text x="972" y="187" style="stroke-width:0;stroke:none;fill:rgba(51,51,51,1.0);font-size:12.8px;font-family:'Roboto Medium',sans-serif">1500.00</text><path  d="M 962 137
L 967 137" style="stroke-width:1;stroke:rgba(51,51,51,1.0);fill:none"/><text x="972" y="143" style="stroke-width:0;stroke:none;fill:rgba(51,51,51,1.0);font-size:12.8px;font-family:'Roboto Medium',sans-serif">1880.00</text><path  d="M 962 96
L 967 96" style="stroke-width:1;stroke:rgba(51,51,51,1.0);fill:none"/><text x="972" y="102" style="stroke-width:0;stroke:none;fill:rgba(51,51,51,1.0);font-size:12.8px;font-family:'Roboto Medium',sans-serif">2250.00</text><path  d="M 962 52
L 967 52" style="stroke-width:1;stroke:rgba(51,51,51,1.0);fill:none"/><text x="972" y="58" style="stroke-width:0;stroke:none;fill:rgba(51,51,51,1.0);font-size:12.8px;font-family:'Roboto Medium',sans-serif">2630.00</text><path  d="M 962 11
L 967 11" style="stroke-width:1;stroke:rgba(51,51,51,1.0);fill:none"/><text x="972" y="17" style="stroke-width:0;stroke:none;fill:rgba(51,51,51,1.0);font-size:12.8px;font-family:'Roboto Medium',sans-serif">3000.00</text><path  d="M 38 351
L 40 351
L 41 351
L 42 351
L 43 351
L 45 351
L 46 351
L 47 351
L 48 351
L 50 351
L 51 351
L 52 351
L 53 351
L 55 351
L 56 351
L 57 351
L 58 350
L 60 350
L 61 349
L 62 349
L 63 349
L 64 349
L 66 349
L 67 349
L 68 349
L 69 349
L 71 349
L 72 347
L 73 345
L 74 345
L 76 345
L 77 344
L 78 346
L 79 345
L 81 347
L 82 348
L 83 348
L 84 348
L 85 349
L 87 348
L 88 349
L 89 348
L 90 348
L 92 348
L 93 348
L 94 348
L 95 349
L 97 349
L 98 350
L 99 351
L 100 351
L 102 351
L 103 351
L 104 351
L 105 351
L 106 351
L 108 351
L 109 351
L 110 351
L 111 351
L 113 351
L 114 351
L 115 351
L 116 351
L 118 351
L 119 351
L 120 351
L 121 351
L 123 351
L 124 351
L 125 351
L 126 351
L 127 351
L 129 351
L 130 351
L 131 351
L 132 351
L 134 351
L 135 351
L 136 351
L 137 351
L 139 351
L 140 351
L 141 351
L 142 351
L 144 351
L 145 351
L 146 351
L 147 351
L 148 351
L 150 351
L 151 351
L 152 351
L 153 351
L 155 351
L 156 351
L 157 351
L 158 351
L 160 351
L 161 351
L 162 351
L 163 351
L 165 351
L 166 351
L 167 351
L 168 351
L 169 351
L 171 351
L 172 351
L 173 351
L 174 351
L 176 351
L 177 351
L 178 351
L 179 351
L 181 351
L 182 351
L 183 351
L 184 351
L 186 351
L 187 351
L 188 351
L 189 351
L 190 351
L 192 351
L 193 351
L 194 351
L 195 351
L 197 351
L 198 351
L 199 351
L 200 351
L 202 351
L 203 351
L 204 351
L 205 351
L 207 351
L 208 351
L 209 351
L 210 351
L 211 351
L 213 351
L 214 351
L 215 351
L 216 349
L 218 349
L 219 348
L 220 348
L 221 348
L 223 348
L 224 348
L 225 349
L 226 349
L 228 351
L 229 350
L 230 350
L 231 350
L 232 350
L 234 350
L 235 350
L 236 350
L 237 351
L 239 351
L 240 351
L 241 351
L 242 351
L 244 351
L 245 351
L 246 351
L 247 351
L 249 351
L 250 351
L 251 351
L 252 351
L 253 351
L 255 351
L 256 351
L 257 351
L 258 351
L 260 351
L 261 351
L 262 351
L 263 351
L 265 351
L 266 351
L 267 351
L 268 351
L 270 351
L 271 351
L 272 350
L 273 350
L 275 350
L 276 350
L 277 350
L 278 350
L 279 350
L 281 351
L 282 351
L 283 351
L 284 350
L 286 350
L 287 350
L 288 349
L 289 349
L 291 349
L 292 348
L 293 349
L 294 349
L 296 349
L 297 349
L 298 349
L 299 349
L 300 351
L 302 351
L 303 351
L 304 351
L 305 350
L 307 349
L 308 349
L 309 348
L 310 348
L 312 347
L 313 347
L 314 344
L 315 344
L 317 342
L 318 343
L 319 343
L 320 342
L 321 341
L 323 344
L 324 342
L 325 340
L 326 338
L 328 337
L 329 338
L 330 334
L 331 334
L 333 331
L 334 327
L 335 327
L 336 327
L 338 324
L 339 323
L 340 323
L 341 321
L 342 321
L 344 318
L 345 314
L 346 307
L 347 302
L 349 295
L 350 291
L 351 269
L 352 259
L 354 251
L 355 256
L 356 259
L 357 238
L 359 236
L 360 246
L 361 237
L 362 244
L 363 247
L 365 214
L 366 233
L 367 241
L 368 247
L 370 256
L 371 244
L 372 246
L 373 269
L 375 270
L 376 257
L 377 252
L 378 250
L 380 247
L 381 234
L 382 243
L 383 215
L 384 214
L 386 221
L 387 224
L 388 232
L 389 239
L 391 240
L 392 265
L 393 275
L 394 281
L 396 285
L 397 295
L 398 284
L 399 290
L 401 295
L 402 295
L 403 294
L 404 298
L 405 298
L 407 311
L 408 310
L 409 310
L 410 320
L 412 325
L 413 330
L 414 328
L 415 320
L 417 321
L 418 318
L 419 305
L 420 302
L 422 285
L 423 282
L 424 286
L 425 282
L 426 287
L 428 289
L 429 289
L 430 291
L 431 297
L 433 297
L 434 294
L 435 285
L 436 279
L 438 277
L 439 281
L 440 275
L 441 278
L 443 285
L 444 286
L 445 291
L 446 289
L 447 294
L 449 293
L 450 292
L 451 289
L 452 292
L 454 294
L 455 299
L 456 298
L 457 304
L 459 305
L 460 309
L 461 308
L 462 314
L 464 313
L 465 319
L 466 319
L 467 321
L 468 321
L 470 327
L 471 331
L 472 332
L 473 334
L 475 330
L 476 333
L 477 334
L 478 334
L 480 335
L 481 335
L 482 336
L 483 340
L 485 339
L 486 340
L 487 339
L 488 339
L 489 340
L 491 338
L 492 338
L 493 335
L 494 335
L 496 335
L 497 332
L 498 326
L 499 325
L 501 322
L 502 324
L 503 323
L 504 324
L 506 319
L 507 321
L 508 319
L 509 318
L 511 317
L 512 312
L 513 312
L 514 316
L 515 317
L 517 318
L 518 318
L 519 321
L 520 321
L 522 318
L 523 317
L 524 318
L 525 317
L 527 321
L 528 321
L 529 326
L 530 329
L 532 330
L 533 330
L 534 331
L 535 330
L 536 330
L 538 329
L 539 328
L 540 330
L 541 328
L 543 326
L 544 329
L 545 329
L 546 328
L 548 327
L 549 326
L 550 330
L 551 334
L 553 331
L 554 331
L 555 329
L 556 327
L 557 328
L 559 324
L 560 323
L 561 322
L 562 321
L 564 322
L 565 328
L 566 328
L 567 331
L 569 331
L 570 332
L 571 334
L 572 336
L 574 336
L 575 336
L 576 338
L 577 338
L 578 338
L 580 339
L 581 340
L 582 340
L 583 343
L 585 343
L 586 345
L 587 345
L 588 345
L 590 345
L 591 345
L 592 344
L 593 344
L 595 344
L 596 347
L 597 347
L 598 347
L 599 348
L 601 348
L 602 349
L 603 349
L 604 349
L 606 349
L 607 350
L 608 350
L 609 351
L 611 351
L 612 351
L 613 351
L 614 351
L 616 351
L 617 351
L 618 351
L 619 351
L 620 351
L 622 351
L 623 351
L 624 351
L 625 349
L 627 349
L 628 349
L 629 349
L 630 349
L 632 349
L 633 349
L 634 350
L 635 349
L 637 349
L 638 349
L 639 349
L 640 349
L 641 349
L 643 349
L 644 349
L 645 349
L 646 350
L 648 350
L 649 350
L 650 350
L 651 350
L 653 351
L 654 350
L 655 350
L 656 350
L 658 350
L 659 350
L 660 350
L 661 349
L 662 350
L 664 349
L 665 349
L 666 349
L 667 349
L 669 349
L 670 349
L 671 348
L 672 349
L 674 348
L 675 348
L 676 348
L 677 348
L 679 349
L 680 349
L 681 349
L 682 349
L 683 350
L 685 350
L 686 350
L 687 350
L 688 351
L 690 351
L 691 351
L 692 351
L 693 351
L 695 351
L 696 350
L 697 350
L 698 350
L 700 350
L 701 349
L 702 349
L 703 348
L 704 348
L 706 348
L 707 347
L 708 346
L 709 346
L 711 345
L 712 345
L 713 345
L 714 345
L 716 346
L 717 345
L 718 345
L 719 345
L 721 347
L 722 347
L 723 347
L 724 347
L 725 347
L 727 347
L 728 346
L 729 346
L 730 347
L 732 347
L 733 347
L 734 347
L 735 346
L 737 347
L 738 347
L 739 347
L 740 344
L 742 344
L 743 343
L 744 343
L 745 340
L 747 334
L 748 332
L 749 332
L 750 331
L 751 333
L 753 334
L 754 336
L 755 340
L 756 342
L 758 343
L 759 344
L 760 343
L 761 341
L 763 338
L 764 337
L 765 331
L 766 330
L 768 321
L 769 318
L 770 316
L 771 318
L 772 314
L 774 318
L 775 320
L 776 325
L 777 330
L 779 332
L 780 331
L 781 336
L 782 335
L 784 333
L 785 335
L 786 330
L 787 329
L 789 326
L 790 318
L 791 314
L 792 307
L 793 305
L 795 304
L 796 305
L 797 303
L 798 299
L 800 289
L 801 277
L 802 242
L 803 212
L 805 169
L 806 169
L 807 148
L 808 109
L 810 71
L 811 77
L 812 62
L 813 97
L 814 70
L 816 60
L 817 53
L 818 82
L 819 83
L 821 123
L 822 111
L 823 132
L 824 154
L 826 201
L 827 216
L 828 238
L 829 234
L 831 249
L 832 255
L 833 268
L 834 277
L 835 281
L 837 285
L 838 292
L 839 299
L 840 302
L 842 308
L 843 314
L 844 321
L 845 324
L 847 329
L 848 331
L 849 332
L 850 337
L 852 337
L 853 339
L 854 340
L 855 340
L 856 341
L 858 342
L 859 338
L 860 334
L 861 331
L 863 327
L 864 322
L 865 323
L 866 313
L 868 305
L 869 298
L 870 290
L 871 282
L 873 282
L 874 260
L 875 260
L 876 221
L 877 180
L 879 143
L 880 141
L 881 98
L 882 87
L 884 72
L 885 77
L 886 52
L 887 60
L 889 38
L 890 41
L 891 38
L 892 43
L 894 11
L 895 31
L 896 11
L 897 15
L 898 16
L 900 15
L 901 16
L 902 46
L 903 33
L 905 50
L 906 44
L 907 59
L 908 70
L 910 64
L 911 68
L 912 107
L 913 120
L 915 124
L 916 107
L 917 108
L 918 116
L 919 91
L 921 99
L 922 94
L 923 115
L 924 134
L 926 141
L 927 135
L 928 170
L 929 162
L 931 167
L 932 156
L 933 168
L 934 158
L 936 162
L 937 138
L 938 142
L 939 117
L 940 112
L 942 104
L 943 85
L 944 102
L 945 80
L 947 71
L 948 91
L 949 85
L 950 83
L 952 87
L 953 58
L 954 97
L 955 101
L 957 84
L 958 98
L 959 82
L 960 103
L 961 120" style="stroke-width:1;stroke:rgba(0,116,217,1.0);fill:none"/><path  d="M 38 351
L 40 351
L 41 351
L 42 351
L 43 351
L 45 351
L 46 351
L 47 351
L 48 351
L 50 351
L 51 351
L 52 351
L 53 351
L 55 351
L 56 351
L 57 351
L 58 350
L 60 351
L 61 350
L 62 351
L 63 351
L 64 351
L 66 351
L 67 351
L 68 351
L 69 350
L 71 351
L 72 350
L 73 350
L 74 351
L 76 351
L 77 350
L 78 351
L 79 350
L 81 350
L 82 351
L 83 350
L 84 351
L 85 351
L 87 350
L 88 351
L 89 350
L 90 350
L 92 351
L 93 351
L 94 351
L 95 351
L 97 351
L 98 351
L 99 351
L 100 351
L 102 351
L 103 351
L 104 351
L 105 351
L 106 351
L 108 351
L 109 351
L 110 351
L 111 351
L 113 351
L 114 351
L 115 351
L 116 351
L 118 351
L 119 351
L 120 351
L 121 351
L 123 351
L 124 351
L 125 351
L 126 351
L 127 351
L 129 351
L 130 351
L 131 351
L 132 351
L 134 351
L 135 351
L 136 351
L 137 351
L 139 351
L 140 351
L 141 351
L 142 351
L 144 351
L 145 351
L 146 351
L 147 351
L 148 351
L 150 351
L 151 351
L 152 351
L 153 351
L 155 351
L 156 351
L 157 351
L 158 351
L 160 351
L 161 351
L 162 351
L 163 351
L 165 351
L 166 351
L 167 351
L 168 351
L 169 351
L 171 351
L 172 351
L 173 351
L 174 351
L 176 351
L 177 351
L 178 351
L 179 351
L 181 351
L 182 351
L 183 351
L 184 351
L 186 351
L 187 351
L 188 351
L 189 351
L 190 351
L 192 351
L 193 351
L 194 351
L 195 351
L 197 351
L 198 351
L 199 351
L 200 351
L 202 351
L 203 351
L 204 351
L 205 351
L 207 351
L 208 351
L 209 351
L 210 351
L 211 351
L 213 351
L 214 351
L 215 351
L 216 350
L 218 351
L 219 350
L 220 351
L 221 351
L 223 351
L 224 351
L 225 351
L 226 351
L 228 351
L 229 350
L 230 351
L 231 351
L 232 351
L 234 351
L 235 351
L 236 351
L 237 351
L 239 351
L 240 351
L 241 351
L 242 351
L 244 351
L 245 351
L 246 351
L 247 351
L 249 351
L 250 351
L 251 351
L 252 351
L 253 351
L 255 351
L 256 351
L 257 351
L 258 351
L 260 351
L 261 351
L 262 351
L 263 351
L 265 351
L 266 351
L 267 351
L 268 351
L 270 351
L 271 351
L 272 350
L 273 351
L 275 351
L 276 351
L 277 351
L 278 351
L 279 351
L 281 351
L 282 351
L 283 351
L 284 350
L 286 351
L 287 351
L 288 350
L 289 351
L 291 351
L 292 350
L 293 351
L 294 351
L 296 351
L 297 351
L 298 351
L 299 351
L 300 351
L 302 351
L 303 351
L 304 351
L 305 350
L 307 350
L 308 351
L 309 350
L 310 351
L 312 350
L 313 351
L 314 350
L 315 350
L 317 350
L 318 350
L 319 351
L 320 350
L 321 350
L 323 350
L 324 350
L 325 350
L 326 350
L 328 350
L 329 350
L 330 350
L 331 350
L 333 349
L 334 349
L 335 350
L 336 350
L 338 349
L 339 350
L 340 350
L 341 349
L 342 349
L 344 350
L 345 349
L 346 348
L 347 349
L 349 349
L 350 348
L 351 344
L 352 348
L 354 348
L 355 349
L 356 349
L 357 345
L 359 348
L 360 347
L 361 346
L 362 349
L 363 350
L 365 342
L 366 349
L 367 349
L 368 348
L 370 348
L 371 347
L 372 350
L 373 347
L 375 349
L 376 347
L 377 347
L 378 347
L 380 346
L 381 348
L 382 349
L 383 343
L 384 346
L 386 348
L 387 348
L 388 348
L 389 349
L 391 349
L 392 348
L 393 348
L 394 349
L 396 348
L 397 350
L 398 347
L 399 350
L 401 349
L 402 348
L 403 349
L 404 349
L 405 350
L 407 350
L 408 350
L 409 349
L 410 350
L 412 350
L 413 350
L 414 349
L 415 348
L 417 350
L 418 349
L 419 348
L 420 350
L 422 347
L 423 349
L 424 349
L 425 349
L 426 350
L 428 348
L 429 350
L 430 347
L 431 350
L 433 349
L 434 348
L 435 348
L 436 347
L 438 349
L 439 348
L 440 349
L 441 349
L 443 350
L 444 348
L 445 348
L 446 349
L 447 349
L 449 349
L 450 349
L 451 349
L 452 349
L 454 348
L 455 350
L 456 349
L 457 350
L 459 349
L 460 350
L 461 349
L 462 349
L 464 350
L 465 350
L 466 350
L 467 350
L 468 350
L 470 350
L 471 350
L 472 350
L 473 350
L 475 349
L 476 351
L 477 350
L 478 350
L 480 350
L 481 350
L 482 351
L 483 350
L 485 350
L 486 350
L 487 350
L 488 350
L 489 350
L 491 350
L 492 350
L 493 350
L 494 350
L 496 350
L 497 350
L 498 349
L 499 350
L 501 349
L 502 350
L 503 350
L 504 350
L 506 349
L 507 349
L 508 349
L 509 349
L 511 350
L 512 349
L 513 350
L 514 350
L 515 350
L 517 350
L 518 349
L 519 350
L 520 349
L 522 349
L 523 349
L 524 350
L 525 349
L 527 350
L 528 350
L 529 350
L 530 350
L 532 350
L 533 350
L 534 350
L 535 350
L 536 350
L 538 350
L 539 350
L 540 350
L 541 349
L 543 349
L 544 351
L 545 350
L 546 350
L 548 350
L 549 350
L 550 350
L 551 350
L 553 350
L 554 350
L 555 350
L 556 349
L 557 350
L 559 349
L 560 350
L 561 350
L 562 350
L 564 350
L 565 350
L 566 350
L 567 350
L 569 350
L 570 350
L 571 350
L 572 350
L 574 350
L 575 350
L 576 350
L 577 350
L 578 350
L 580 350
L 581 351
L 582 350
L 583 351
L 585 350
L 586 350
L 587 350
L 588 351
L 590 350
L 591 350
L 592 350
L 593 350
L 595 351
L 596 351
L 597 351
L 598 350
L 599 351
L 601 350
L 602 351
L 603 351
L 604 351
L 606 351
L 607 351
L 608 351
L 609 351
L 611 351
L 612 351
L 613 351
L 614 351
L 616 351
L 617 351
L 618 351
L 619 351
L 620 351
L 622 351
L 623 351
L 624 351
L 625 350
L 627 351
L 628 351
L 629 351
L 630 351
L 632 351
L 633 350
L 634 351
L 635 350
L 637 351
L 638 350
L 639 351
L 640 351
L 641 351
L 643 351
L 644 350
L 645 351
L 646 351
L 648 351
L 649 351
L 650 351
L 651 351
L 653 351
L 654 350
L 655 351
L 656 351
L 658 351
L 659 351
L 660 351
L 661 350
L 662 351
L 664 350
L 665 351
L 666 351
L 667 351
L 669 350
L 670 350
L 671 350
L 672 351
L 674 350
L 675 350
L 676 351
L 677 351
L 679 351
L 680 350
L 681 351
L 682 351
L 683 351
L 685 351
L 686 351
L 687 351
L 688 351
L 690 351
L 691 351
L 692 351
L 693 351
L 695 351
L 696 350
L 697 351
L 698 351
L 700 351
L 701 350
L 702 351
L 703 350
L 704 350
L 706 351
L 707 350
L 708 350
L 709 350
L 711 350
L 712 350
L 713 350
L 714 350
L 716 350
L 717 350
L 718 350
L 719 351
L 721 351
L 722 350
L 723 350
L 724 350
L 725 350
L 727 350
L 728 350
L 729 351
L 730 351
L 732 351
L 733 350
L 734 350
L 735 350
L 737 351
L 738 351
L 739 350
L 740 350
L 742 350
L 743 350
L 744 350
L 745 350
L 747 349
L 748 350
L 749 350
L 750 350
L 751 350
L 753 350
L 754 351
L 755 350
L 756 350
L 758 350
L 759 350
L 760 350
L 761 350
L 763 350
L 764 350
L 765 349
L 766 350
L 768 348
L 769 350
L 770 350
L 771 350
L 772 349
L 774 350
L 775 350
L 776 349
L 777 351
L 779 350
L 780 350
L 781 350
L 782 350
L 784 350
L 785 350
L 786 350
L 787 350
L 789 349
L 790 348
L 791 349
L 792 349
L 793 349
L 795 349
L 796 350
L 797 349
L 798 348
L 800 347
L 801 346
L 802 342
L 803 343
L 805 341
L 806 349
L 807 343
L 808 339
L 810 339
L 811 344
L 812 340
L 813 348
L 814 343
L 816 341
L 817 338
L 818 344
L 819 344
L 821 348
L 822 346
L 823 348
L 824 346
L 826 347
L 827 347
L 828 348
L 829 348
L 831 349
L 832 349
L 833 348
L 834 349
L 835 348
L 837 349
L 838 349
L 839 350
L 840 350
L 842 349
L 843 350
L 844 350
L 845 350
L 847 350
L 848 350
L 849 350
L 850 350
L 852 350
L 853 350
L 854 350
L 855 350
L 856 350
L 858 350
L 859 349
L 860 350
L 861 349
L 863 349
L 864 349
L 865 351
L 866 348
L 868 348
L 869 348
L 870 348
L 871 348
L 873 350
L 874 346
L 875 348
L 876 340
L 877 340
L 879 340
L 880 347
L 881 341
L 882 344
L 884 345
L 885 341
L 886 335
L 887 342
L 889 343
L 890 341
L 891 343
L 892 346
L 894 334
L 895 339
L 896 338
L 897 344
L 898 342
L 900 343
L 901 347
L 902 340
L 903 336
L 905 341
L 906 342
L 907 345
L 908 345
L 910 345
L 911 341
L 912 344
L 913 344
L 915 343
L 916 341
L 917 346
L 918 347
L 919 336
L 921 346
L 922 343
L 923 348
L 924 345
L 926 347
L 927 346
L 928 343
L 929 344
L 931 344
L 932 345
L 933 347
L 934 345
L 936 347
L 937 338
L 938 345
L 939 339
L 940 344
L 942 346
L 943 341
L 944 350
L 945 334
L 947 343
L 948 343
L 949 343
L 950 346
L 952 342
L 953 344
L 954 342
L 955 344
L 957 340
L 958 346
L 959 342
L 960 346
L 961 348" style="stroke-width:1;stroke:rgba(0,217,101,1.0);fill:none"/><path  d="M 38 351
L 40 351
L 41 351
L 42 351
L 43 351
L 45 351
L 46 351
L 47 351
L 48 351
L 50 351
L 51 351
L 52 351
L 53 351
L 55 351
L 56 351
L 57 351
L 58 351
L 60 351
L 61 351
L 62 351
L 63 351
L 64 351
L 66 351
L 67 351
L 68 351
L 69 351
L 71 351
L 72 351
L 73 351
L 74 351
L 76 351
L 77 351
L 78 351
L 79 351
L 81 351
L 82 351
L 83 351
L 84 351
L 85 351
L 87 351
L 88 351
L 89 351
L 90 351
L 92 351
L 93 351
L 94 351
L 95 351
L 97 351
L 98 351
L 99 351
L 100 351
L 102 351
L 103 351
L 104 351
L 105 351
L 106 351
L 108 351
L 109 351
L 110 351
L 111 351
L 113 351
L 114 351
L 115 351
L 116 351
L 118 351
L 119 351
L 120 351
L 121 351
L 123 351
L 124 351
L 125 351
L 126 351
L 127 351
L 129 351
L 130 351
L 131 351
L 132 351
L 134 351
L 135 351
L 136 351
L 137 351
L 139 351
L 140 351
L 141 351
L 142 351
L 144 351
L 145 351
L 146 351
L 147 351
L 148 351
L 150 351
L 151 351
L 152 351
L 153 351
L 155 351
L 156 351
L 157 351
L 158 351
L 160 351
L 161 351
L 162 351
L 163 351
L 165 351
L 166 351
L 167 351
L 168 351
L 169 351
L 171 351
L 172 351
L 173 351
L 174 351
L 176 351
L 177 351
L 178 351
L 179 351
L 181 351
L 182 351
L 183 351
L 184 351
L 186 351
L 187 351
L 188 351
L 189 351
L 190 351
L 192 351
L 193 351
L 194 351
L 195 351
L 197 351
L 198 351
L 199 351
L 200 351
L 202 351
L 203 351
L 204 351
L 205 351
L 207 351
L 208 351
L 209 351
L 210 351
L 211 351
L 213 351
L 214 351
L 215 351
L 216 351
L 218 351
L 219 351
L 220 351
L 221 351
L 223 351
L 224 351
L 225 351
L 226 351
L 228 351
L 229 351
L 230 351
L 231 351
L 232 351
L 234 351
L 235 351
L 236 351
L 237 351
L 239 351
L 240 351
L 241 351
L 242 351
L 244 351
L 245 350
L 246 351
L 247 351
L 249 351
L 250 351
L 251 351
L 252 351
L 253 351
L 255 351
L 256 351
L 257 351
L 258 351
L 260 351
L 261 351
L 262 351
L 263 351
L 265 351
L 266 351
L 267 351
L 268 351
L 270 351
L 271 351
L 272 351
L 273 351
L 275 351
L 276 351
L 277 351
L 278 351
L 279 351
L 281 351
L 282 351
L 283 351
L 284 351
L 286 351
L 287 351
L 288 351
L 289 351
L 291 351
L 292 351
L 293 351
L 294 351
L 296 351
L 297 351
L 298 351
L 299 351
L 300 351
L 302 351
L 303 351
L 304 351
L 305 351
L 307 351
L 308 351
L 309 351
L 310 351
L 312 351
L 313 351
L 314 351
L 315 351
L 317 351
L 318 351
L 319 351
L 320 351
L 321 351
L 323 351
L 324 351
L 325 351
L 326 351
L 328 351
L 329 350
L 330 351
L 331 351
L 333 351
L 334 350
L 335 351
L 336 351
L 338 351
L 339 351
L 340 351
L 341 351
L 342 351
L 344 351
L 345 351
L 346 351
L 347 351
L 349 351
L 350 351
L 351 351
L 352 351
L 354 351
L 355 351
L 356 350
L 357 351
L 359 350
L 360 351
L 361 350
L 362 351
L 363 351
L 365 351
L 366 351
L 367 351
L 368 351
L 370 351
L 371 351
L 372 351
L 373 351
L 375 350
L 376 350
L 377 351
L 378 350
L 380 351
L 381 351
L 382 350
L 383 350
L 384 351
L 386 351
L 387 350
L 388 351
L 389 351
L 391 351
L 392 351
L 393 350
L 394 350
L 396 350
L 397 350
L 398 351
L 399 351
L 401 351
L 402 351
L 403 350
L 404 350
L 405 351
L 407 351
L 408 350
L 409 350
L 410 351
L 412 351
L 413 351
L 414 351
L 415 351
L 417 351
L 418 351
L 419 351
L 420 350
L 422 351
L 423 351
L 424 350
L 425 351
L 426 351
L 428 351
L 429 351
L 430 351
L 431 351
L 433 351
L 434 350
L 435 351
L 436 351
L 438 351
L 439 351
L 440 351
L 441 351
L 443 351
L 444 351
L 445 351
L 446 351
L 447 350
L 449 351
L 450 351
L 451 351
L 452 351
L 454 351
L 455 351
L 456 350
L 457 351
L 459 350
L 460 351
L 461 351
L 462 350
L 464 351
L 465 350
L 466 351
L 467 351
L 468 351
L 470 351
L 471 351
L 472 351
L 473 351
L 475 351
L 476 351
L 477 351
L 478 351
L 480 351
L 481 351
L 482 351
L 483 351
L 485 351
L 486 351
L 487 350
L 488 351
L 489 351
L 491 351
L 492 350
L 493 351
L 494 351
L 496 351
L 497 351
L 498 351
L 499 351
L 501 351
L 502 351
L 503 351
L 504 351
L 506 351
L 507 351
L 508 350
L 509 351
L 511 351
L 512 351
L 513 351
L 514 351
L 515 351
L 517 351
L 518 351
L 519 351
L 520 351
L 522 351
L 523 351
L 524 351
L 525 351
L 527 351
L 528 351
L 529 351
L 530 351
L 532 351
L 533 351
L 534 351
L 535 351
L 536 351
L 538 351
L 539 351
L 540 350
L 541 350
L 543 351
L 544 351
L 545 351
L 546 351
L 548 351
L 549 351
L 550 351
L 551 351
L 553 351
L 554 351
L 555 351
L 556 351
L 557 351
L 559 351
L 560 351
L 561 351
L 562 351
L 564 351
L 565 351
L 566 351
L 567 351
L 569 351
L 570 351
L 571 351
L 572 351
L 574 351
L 575 351
L 576 351
L 577 351
L 578 351
L 580 351
L 581 351
L 582 351
L 583 351
L 585 351
L 586 351
L 587 351
L 588 351
L 590 351
L 591 351
L 592 351
L 593 351
L 595 351
L 596 350
L 597 351
L 598 351
L 599 351
L 601 351
L 602 351
L 603 351
L 604 351
L 606 351
L 607 351
L 608 350
L 609 351
L 611 351
L 612 351
L 613 351
L 614 351
L 616 351
L 617 351
L 618 351
L 619 351
L 620 351
L 622 351
L 623 351
L 624 351
L 625 351
L 627 351
L 628 351
L 629 351
L 630 351
L 632 351
L 633 351
L 634 351
L 635 351
L 637 351
L 638 351
L 639 351
L 640 351
L 641 351
L 643 351
L 644 351
L 645 351
L 646 351
L 648 351
L 649 351
L 650 351
L 651 351
L 653 351
L 654 351
L 655 351
L 656 351
L 658 351
L 659 351
L 660 351
L 661 351
L 662 351
L 664 351
L 665 351
L 666 351
L 667 351
L 669 351
L 670 351
L 671 351
L 672 351
L 674 351
L 675 351
L 676 351
L 677 351
L 679 351
L 680 351
L 681 351
L 682 351
L 683 351
L 685 351
L 686 351
L 687 351
L 688 351
L 690 351
L 691 351
L 692 351
L 693 351
L 695 351
L 696 351
L 697 351
L 698 351
L 700 351
L 701 351
L 702 351
L 703 351
L 704 351
L 706 351
L 707 351
L 708 351
L 709 351
L 711 351
L 712 351
L 713 351
L 714 351
L 716 351
L 717 351
L 718 351
L 719 351
L 721 351
L 722 351
L 723 351
L 724 351
L 725 351
L 727 351
L 728 351
L 729 351
L 730 351
L 732 351
L 733 351
L 734 351
L 735 351
L 737 351
L 738 351
L 739 351
L 740 351
L 742 351
L 743 351
L 744 351
L 745 351
L 747 351
L 748 351
L 749 351
L 750 351
L 751 351
L 753 351
L 754 351
L 755 351
L 756 351
L 758 351
L 759 351
L 760 351
L 761 351
L 763 351
L 764 351
L 765 351
L 766 351
L 768 351
L 769 351
L 770 351
L 771 351
L 772 351
L 774 351
L 775 351
L 776 351
L 777 351
L 779 351
L 780 351
L 781 351
L 782 351
L 784 351
L 785 351
L 786 351
L 787 351
L 789 351
L 790 351
L 791 350
L 792 351
L 793 350
L 795 351
L 796 351
L 797 351
L 798 351
L 800 351
L 801 351
L 802 351
L 803 351
L 805 351
L 806 351
L 807 351
L 808 351
L 810 351
L 811 350
L 812 351
L 813 351
L 814 351
L 816 351
L 817 351
L 818 351
L 819 350
L 821 351
L 822 351
L 823 351
L 824 351
L 826 351
L 827 350
L 828 351
L 829 351
L 831 350
L 832 350
L 833 351
L 834 351
L 835 351
L 837 351
L 838 351
L 839 351
L 840 350
L 842 351
L 843 351
L 844 351
L 845 351
L 847 351
L 848 351
L 849 351
L 850 351
L 852 351
L 853 351
L 854 351
L 855 351
L 856 351
L 858 351
L 859 351
L 860 351
L 861 351
L 863 351
L 864 351
L 865 351
L 866 351
L 868 351
L 869 351
L 870 351
L 871 351
L 873 351
L 874 351
L 875 351
L 876 351
L 877 351
L 879 351
L 880 351
L 881 351
L 882 351
L 884 351
L 885 351
L 886 351
L 887 351
L 889 351
L 890 351
L 891 351
L 892 351
L 894 351
L 895 351
L 896 351
L 897 350
L 898 351
L 900 351
L 901 351
L 902 351
L 903 351
L 905 351
L 906 351
L 907 351
L 908 351
L 910 351
L 911 351
L 912 351
L 913 351
L 915 351
L 916 351
L 917 351
L 918 351
L 919 351
L 921 351
L 922 351
L 923 351
L 924 351
L 926 351
L 927 351
L 928 351
L 929 351
L 931 351
L 932 351
L 933 351
L 934 351
L 936 351
L 937 351
L 938 351
L 939 351
L 940 351
L 942 351
L 943 351
L 944 351
L 945 351
L 947 351
L 948 351
L 949 351
L 950 351
L 952 351
L 953 351
L 954 351
L 955 351
L 957 351
L 958 351
L 959 351
L 960 350
L 961 351" style="stroke-width:1;stroke:rgba(217,0,116,1.0);fill:none"/><text x="400" y="33" style="stroke-width:0;stroke:none;fill:rgba(51,51,51,1.0);font-size:23.0px;font-family:'Roboto Medium',sans-serif">Tamsweg 14.03.2022</text><path  d="M 38 11
L 251 11
L 251 91
L 38 91
L 38 11" style="stroke-width:1;stroke:rgba(51,51,51,1.0);fill:rgba(255,255,255,1.0)"/><text x="43" y="26" style="stroke-width:0;stroke:none;fill:rgba(51,51,51,1.0);font-size:10.2px;font-family:'Roboto Medium',sans-serif">Sieben Tage Durschnitt Inzidenz Fälle</text><path  d="M 221 21
L 241 21" style="stroke-width:1;stroke:rgba(0,116,217,1.0);fill:none"/><text x="43" y="56" style="stroke-width:0;stroke:none;fill:rgba(51,51,51,1.0);font-size:10.2px;font-family:'Roboto Medium',sans-serif">Anzahl Faelle</text><path  d="M 110 51
L 241 51" style="stroke-width:1;stroke:rgba(0,217,101,1.0);fill:none"/><text x="43" y="86" style="stroke-width:0;stroke:none;fill:rgba(51,51,51,1.0);font-size:10.2px;font-family:'Roboto Medium',sans-serif">Anzahl Tot</text><path  d="M 98 81
L 241 81" style="stroke-width:1;stroke:rgba(217,0,116,1.0);fill:none"/></svg>