<svg xmlns="http://www.w3.org/2000/svg" xmlns:xlink="http://www.w3.org/1999/xlink" width="1024" height="400">\n<path  d="M 0 0
L 1024 0
L 1024 400
L 0 400
L 0 0" style="stroke-width:0;stroke:rgba(255,255,255,1.0);fill:rgba(255,255,255,1.0)"/><path  d="M 38 11
L 969 11
L 969 351
L 38 351
L 38 11" style="stroke-width:0;stroke:rgba(255,255,255,1.0);fill:rgba(255,255,255,1.0)"/><path  d="M 38 351
L 969 351" style="stroke-width:1;stroke:rgba(51,51,51,1.0);fill:none"/><path  d="M 38 351
L 38 356" style="stroke-width:1;stroke:rgba(51,51,51,1.0);fill:none"/><text x="5" y="373" style="stroke-width:0;stroke:none;fill:rgba(51,51,51,1.0);font-size:12.8px;font-family:'Roboto Medium',sans-serif">2020-02-26</text><path  d="M 155 351
L 155 356" style="stroke-width:1;stroke:rgba(51,51,51,1.0);fill:none"/><text x="122" y="373" style="stroke-width:0;stroke:none;fill:rgba(51,51,51,1.0);font-size:12.8px;font-family:'Roboto Medium',sans-serif">2020-04-19</text><path  d="M 271 351
L 271 356" style="stroke-width:1;stroke:rgba(51,51,51,1.0);fill:none"/><text x="238" y="373" style="stroke-width:0;stroke:none;fill:rgba(51,51,51,1.0);font-size:12.8px;font-family:'Roboto Medium',sans-serif">2020-06-12</text><path  d="M 388 351
L 388 356" style="stroke-width:1;stroke:rgba(51,51,51,1.0);fill:none"/><text x="355" y="373" style="stroke-width:0;stroke:none;fill:rgba(51,51,51,1.0);font-size:12.8px;font-family:'Roboto Medium',sans-serif">2020-08-05</text><path  d="M 504 351
L 504 356" style="stroke-width:1;stroke:rgba(51,51,51,1.0);fill:none"/><text x="471" y="373" style="stroke-width:0;stroke:none;fill:rgba(51,51,51,1.0);font-size:12.8px;font-family:'Roboto Medium',sans-serif">2020-09-28</text><path  d="M 620 351
L 620 356" style="stroke-width:1;stroke:rgba(51,51,51,1.0);fill:none"/><text x="587" y="373" style="stroke-width:0;stroke:none;fill:rgba(51,51,51,1.0);font-size:12.8px;font-family:'Roboto Medium',sans-serif">2020-11-21</text><path  d="M 737 351
L 737 356" style="stroke-width:1;stroke:rgba(51,51,51,1.0);fill:none"/><text x="704" y="373" style="stroke-width:0;stroke:none;fill:rgba(51,51,51,1.0);font-size:12.8px;font-family:'Roboto Medium',sans-serif">2021-01-14</text><path  d="M 853 351
L 853 356" style="stroke-width:1;stroke:rgba(51,51,51,1.0);fill:none"/><text x="820" y="373" style="stroke-width:0;stroke:none;fill:rgba(51,51,51,1.0);font-size:12.8px;font-family:'Roboto Medium',sans-serif">2021-03-09</text><path  d="M 969 351
L 969 356" style="stroke-width:1;stroke:rgba(51,51,51,1.0);fill:none"/><text x="936" y="373" style="stroke-width:0;stroke:none;fill:rgba(51,51,51,1.0);font-size:12.8px;font-family:'Roboto Medium',sans-serif">2021-05-02</text><text x="485" y="395" style="stroke-width:0;stroke:none;fill:rgba(51,51,51,1.0);font-size:12.8px;font-family:'Roboto Medium',sans-serif">Datum</text><path  d="M 970 351
L 970 11" style="stroke-width:1;stroke:rgba(51,51,51,1.0);fill:none"/><path  d="M 970 351
L 975 351" style="stroke-width:1;stroke:rgba(51,51,51,1.0);fill:none"/><text x="980" y="357" style="stroke-width:0;stroke:none;fill:rgba(51,51,51,1.0);font-size:12.8px;font-family:'Roboto Medium',sans-serif">0.00</text><path  d="M 970 308
L 975 308" style="stroke-width:1;stroke:rgba(51,51,51,1.0);fill:none"/><text x="980" y="314" style="stroke-width:0;stroke:none;fill:rgba(51,51,51,1.0);font-size:12.8px;font-family:'Roboto Medium',sans-serif">53.00</text><path  d="M 970 266
L 975 266" style="stroke-width:1;stroke:rgba(51,51,51,1.0);fill:none"/><text x="980" y="272" style="stroke-width:0;stroke:none;fill:rgba(51,51,51,1.0);font-size:12.8px;font-family:'Roboto Medium',sans-serif">105.00</text><path  d="M 970 223
L 975 223" style="stroke-width:1;stroke:rgba(51,51,51,1.0);fill:none"/><text x="980" y="229" style="stroke-width:0;stroke:none;fill:rgba(51,51,51,1.0);font-size:12.8px;font-family:'Roboto Medium',sans-serif">158.00</text><path  d="M 970 181
L 975 181" style="stroke-width:1;stroke:rgba(51,51,51,1.0);fill:none"/><text x="980" y="187" style="stroke-width:0;stroke:none;fill:rgba(51,51,51,1.0);font-size:12.8px;font-family:'Roboto Medium',sans-serif">210.00</text><path  d="M 970 138
L 975 138" style="stroke-width:1;stroke:rgba(51,51,51,1.0);fill:none"/><text x="980" y="144" style="stroke-width:0;stroke:none;fill:rgba(51,51,51,1.0);font-size:12.8px;font-family:'Roboto Medium',sans-serif">263.00</text><path  d="M 970 96
L 975 96" style="stroke-width:1;stroke:rgba(51,51,51,1.0);fill:none"/><text x="980" y="102" style="stroke-width:0;stroke:none;fill:rgba(51,51,51,1.0);font-size:12.8px;font-family:'Roboto Medium',sans-serif">315.00</text><path  d="M 970 53
L 975 53" style="stroke-width:1;stroke:rgba(51,51,51,1.0);fill:none"/><text x="980" y="59" style="stroke-width:0;stroke:none;fill:rgba(51,51,51,1.0);font-size:12.8px;font-family:'Roboto Medium',sans-serif">368.00</text><path  d="M 970 11
L 975 11" style="stroke-width:1;stroke:rgba(51,51,51,1.0);fill:none"/><text x="980" y="17" style="stroke-width:0;stroke:none;fill:rgba(51,51,51,1.0);font-size:12.8px;font-family:'Roboto Medium',sans-serif">420.00</text><path  d="M 38 351
L 41 351
L 43 351
L 45 351
L 47 351
L 49 351
L 51 351
L 54 351
L 56 351
L 58 349
L 60 347
L 62 344
L 64 343
L 67 342
L 69 340
L 71 340
L 73 337
L 75 334
L 77 337
L 80 338
L 82 330
L 84 328
L 86 325
L 88 326
L 90 327
L 93 327
L 95 323
L 97 326
L 99 326
L 101 319
L 103 315
L 105 313
L 108 310
L 110 313
L 112 311
L 114 313
L 116 320
L 118 328
L 121 331
L 123 336
L 125 336
L 127 343
L 129 338
L 131 340
L 134 339
L 136 339
L 138 337
L 140 336
L 142 337
L 144 343
L 147 342
L 149 343
L 151 344
L 153 345
L 155 347
L 157 347
L 159 346
L 162 347
L 164 347
L 166 347
L 168 346
L 170 346
L 172 343
L 175 340
L 177 341
L 179 342
L 181 342
L 183 343
L 185 343
L 188 346
L 190 348
L 192 348
L 194 349
L 196 349
L 198 349
L 201 348
L 203 348
L 205 349
L 207 349
L 209 349
L 211 349
L 213 349
L 216 350
L 218 348
L 220 349
L 222 348
L 224 348
L 226 348
L 229 348
L 231 348
L 233 350
L 235 348
L 237 349
L 239 349
L 242 349
L 244 349
L 246 349
L 248 348
L 250 350
L 252 349
L 255 349
L 257 348
L 259 348
L 261 348
L 263 349
L 265 349
L 267 350
L 270 348
L 272 349
L 274 349
L 276 349
L 278 349
L 280 349
L 283 349
L 285 351
L 287 351
L 289 351
L 291 351
L 293 351
L 296 351
L 298 351
L 300 350
L 302 350
L 304 349
L 306 347
L 309 347
L 311 347
L 313 347
L 315 347
L 317 347
L 319 348
L 321 350
L 324 350
L 326 348
L 328 348
L 330 349
L 332 349
L 334 349
L 337 349
L 339 349
L 341 350
L 343 349
L 345 348
L 347 348
L 350 348
L 352 348
L 354 348
L 356 347
L 358 347
L 360 348
L 363 348
L 365 347
L 367 347
L 369 345
L 371 347
L 373 346
L 375 344
L 378 344
L 380 345
L 382 344
L 384 346
L 386 344
L 388 344
L 391 345
L 393 345
L 395 345
L 397 345
L 399 344
L 401 342
L 404 341
L 406 340
L 408 337
L 410 336
L 412 336
L 414 338
L 417 341
L 419 341
L 421 341
L 423 344
L 425 345
L 427 344
L 429 343
L 432 340
L 434 341
L 436 340
L 438 338
L 440 337
L 442 338
L 445 338
L 447 337
L 449 338
L 451 340
L 453 340
L 455 340
L 458 341
L 460 337
L 462 340
L 464 338
L 466 336
L 468 336
L 471 335
L 473 333
L 475 331
L 477 328
L 479 325
L 481 323
L 483 320
L 486 316
L 488 318
L 490 321
L 492 316
L 494 317
L 496 318
L 499 319
L 501 320
L 503 316
L 505 314
L 507 318
L 509 312
L 512 313
L 514 313
L 516 313
L 518 312
L 520 313
L 522 309
L 525 309
L 527 304
L 529 308
L 531 302
L 533 303
L 535 293
L 537 294
L 540 295
L 542 290
L 544 271
L 546 271
L 548 257
L 550 249
L 553 230
L 555 218
L 557 207
L 559 200
L 561 191
L 563 183
L 566 174
L 568 166
L 570 140
L 572 137
L 574 132
L 576 103
L 579 91
L 581 66
L 583 49
L 585 54
L 587 25
L 589 15
L 591 22
L 594 11
L 596 29
L 598 35
L 600 50
L 602 66
L 604 69
L 607 78
L 609 87
L 611 90
L 613 108
L 615 111
L 617 121
L 620 138
L 622 156
L 624 175
L 626 186
L 628 189
L 630 189
L 633 186
L 635 192
L 637 190
L 639 183
L 641 186
L 643 202
L 645 212
L 648 228
L 650 237
L 652 244
L 654 259
L 656 273
L 658 267
L 661 268
L 663 274
L 665 269
L 667 269
L 669 257
L 671 249
L 674 258
L 676 260
L 678 251
L 680 258
L 682 260
L 684 274
L 687 272
L 689 251
L 691 248
L 693 257
L 695 248
L 697 241
L 699 244
L 702 239
L 704 246
L 706 243
L 708 234
L 710 238
L 712 241
L 715 239
L 717 235
L 719 238
L 721 237
L 723 236
L 725 226
L 728 222
L 730 210
L 732 214
L 734 221
L 736 222
L 738 226
L 741 235
L 743 234
L 745 234
L 747 241
L 749 244
L 751 244
L 753 246
L 756 245
L 758 255
L 760 269
L 762 265
L 764 258
L 766 266
L 769 270
L 771 279
L 773 279
L 775 279
L 777 289
L 779 284
L 782 286
L 784 289
L 786 285
L 788 289
L 790 291
L 792 292
L 795 299
L 797 294
L 799 292
L 801 292
L 803 286
L 805 282
L 807 278
L 810 283
L 812 282
L 814 283
L 816 264
L 818 265
L 820 264
L 823 258
L 825 244
L 827 248
L 829 236
L 831 241
L 833 233
L 836 236
L 838 239
L 840 245
L 842 245
L 844 246
L 846 251
L 849 251
L 851 248
L 853 239
L 855 235
L 857 220
L 859 227
L 861 224
L 864 233
L 866 231
L 868 234
L 870 238
L 872 236
L 874 227
L 877 224
L 879 210
L 881 207
L 883 207
L 885 206
L 887 208
L 890 210
L 892 208
L 894 207
L 896 210
L 898 206
L 900 186
L 903 185
L 905 178
L 907 178
L 909 182
L 911 183
L 913 190
L 915 212
L 918 224
L 920 227
L 922 240
L 924 237
L 926 240
L 928 233
L 931 235
L 933 241
L 935 251
L 937 251
L 939 258
L 941 255
L 944 267
L 946 265
L 948 263
L 950 268
L 952 269
L 954 269
L 957 277
L 959 277
L 961 275
L 963 278
L 965 277
L 967 285
L 969 291" style="stroke-width:1;stroke:rgba(0,116,217,1.0);fill:none"/><path  d="M 38 351
L 41 351
L 43 351
L 45 351
L 47 351
L 49 351
L 51 351
L 54 351
L 56 351
L 58 349
L 60 349
L 62 346
L 64 350
L 67 350
L 69 349
L 71 351
L 73 345
L 75 346
L 77 350
L 80 351
L 82 341
L 84 347
L 86 347
L 88 346
L 90 348
L 93 349
L 95 347
L 97 343
L 99 347
L 101 340
L 103 342
L 105 346
L 108 346
L 110 350
L 112 342
L 114 350
L 116 347
L 118 350
L 121 350
L 123 351
L 125 350
L 127 349
L 129 345
L 131 350
L 134 348
L 136 350
L 138 349
L 140 348
L 142 351
L 144 351
L 147 349
L 149 349
L 151 351
L 153 351
L 155 351
L 157 351
L 159 349
L 162 350
L 164 349
L 166 351
L 168 350
L 170 351
L 172 347
L 175 346
L 177 351
L 179 350
L 181 351
L 183 351
L 185 351
L 188 351
L 190 349
L 192 351
L 194 351
L 196 351
L 198 351
L 201 350
L 203 351
L 205 350
L 207 351
L 209 351
L 211 351
L 213 351
L 216 351
L 218 349
L 220 351
L 222 350
L 224 351
L 226 351
L 229 351
L 231 351
L 233 351
L 235 349
L 237 351
L 239 351
L 242 351
L 244 351
L 246 351
L 248 350
L 250 351
L 252 350
L 255 351
L 257 350
L 259 351
L 261 351
L 263 351
L 265 351
L 267 351
L 270 349
L 272 351
L 274 351
L 276 351
L 278 351
L 280 351
L 283 351
L 285 351
L 287 351
L 289 351
L 291 351
L 293 351
L 296 351
L 298 351
L 300 350
L 302 351
L 304 350
L 306 349
L 309 351
L 311 351
L 313 351
L 315 350
L 317 351
L 319 351
L 321 351
L 324 351
L 326 349
L 328 351
L 330 351
L 332 351
L 334 351
L 337 351
L 339 351
L 341 350
L 343 350
L 345 350
L 347 351
L 350 351
L 352 351
L 354 351
L 356 348
L 358 351
L 360 351
L 363 351
L 365 350
L 367 351
L 369 348
L 371 351
L 373 349
L 375 349
L 378 351
L 380 351
L 382 350
L 384 350
L 386 349
L 388 349
L 391 350
L 393 351
L 395 351
L 397 350
L 399 348
L 401 347
L 404 348
L 406 349
L 408 347
L 410 349
L 412 350
L 414 351
L 417 351
L 419 348
L 421 349
L 423 350
L 425 351
L 427 349
L 429 349
L 432 348
L 434 349
L 436 348
L 438 347
L 440 350
L 442 350
L 445 349
L 447 346
L 449 351
L 451 351
L 453 347
L 455 350
L 458 351
L 460 345
L 462 349
L 464 349
L 466 348
L 468 347
L 471 349
L 473 348
L 475 343
L 477 346
L 479 346
L 481 346
L 483 343
L 486 346
L 488 350
L 490 346
L 492 341
L 494 346
L 496 347
L 499 344
L 501 347
L 503 346
L 505 344
L 507 345
L 509 340
L 512 348
L 514 344
L 516 348
L 518 344
L 520 345
L 522 342
L 525 339
L 527 343
L 529 348
L 531 342
L 533 346
L 535 334
L 537 342
L 540 340
L 542 338
L 544 328
L 546 342
L 548 331
L 550 326
L 553 322
L 555 328
L 557 327
L 559 321
L 561 332
L 563 323
L 566 317
L 568 313
L 570 301
L 572 324
L 574 316
L 576 301
L 579 311
L 581 291
L 583 295
L 585 306
L 587 293
L 589 306
L 591 308
L 594 300
L 596 308
L 598 302
L 600 322
L 602 310
L 604 308
L 607 317
L 609 309
L 611 312
L 613 321
L 615 325
L 617 321
L 620 326
L 622 336
L 624 329
L 626 324
L 628 324
L 630 325
L 633 318
L 635 332
L 637 334
L 639 321
L 641 327
L 643 341
L 645 336
L 648 335
L 650 342
L 652 342
L 654 336
L 656 342
L 658 334
L 661 337
L 663 342
L 665 337
L 667 342
L 669 323
L 671 334
L 674 343
L 676 339
L 678 332
L 680 344
L 682 344
L 684 338
L 687 332
L 689 321
L 691 335
L 693 342
L 695 334
L 697 338
L 699 340
L 702 327
L 704 329
L 706 332
L 708 332
L 710 339
L 712 340
L 715 338
L 717 323
L 719 332
L 721 330
L 723 331
L 725 329
L 728 336
L 730 325
L 732 328
L 734 339
L 736 331
L 738 335
L 741 338
L 743 335
L 745 325
L 747 335
L 749 343
L 751 331
L 753 337
L 756 338
L 758 345
L 760 340
L 762 330
L 764 337
L 766 339
L 769 341
L 771 347
L 773 345
L 775 339
L 777 342
L 779 331
L 782 342
L 784 344
L 786 342
L 788 350
L 790 341
L 792 343
L 795 338
L 797 337
L 799 342
L 801 343
L 803 343
L 805 337
L 807 338
L 810 343
L 812 336
L 814 342
L 816 323
L 818 344
L 820 336
L 823 333
L 825 329
L 827 340
L 829 329
L 831 328
L 833 336
L 836 339
L 838 336
L 840 335
L 842 340
L 844 330
L 846 333
L 849 336
L 851 336
L 853 327
L 855 331
L 857 325
L 859 337
L 861 329
L 864 346
L 866 334
L 868 330
L 870 335
L 872 322
L 874 327
L 877 326
L 879 331
L 881 332
L 883 330
L 885 334
L 887 325
L 890 329
L 892 324
L 894 330
L 896 334
L 898 326
L 900 313
L 903 323
L 905 322
L 907 324
L 909 334
L 911 335
L 913 334
L 915 336
L 918 336
L 920 325
L 922 338
L 924 332
L 926 338
L 928 327
L 931 338
L 933 342
L 935 336
L 937 338
L 939 338
L 941 335
L 944 339
L 946 337
L 948 339
L 950 342
L 952 338
L 954 338
L 957 343
L 959 339
L 961 334
L 963 342
L 965 341
L 967 347
L 969 344" style="stroke-width:1;stroke:rgba(0,217,101,1.0);fill:none"/><path  d="M 38 351
L 41 351
L 43 351
L 45 351
L 47 351
L 49 351
L 51 351
L 54 351
L 56 351
L 58 351
L 60 351
L 62 351
L 64 351
L 67 351
L 69 351
L 71 351
L 73 351
L 75 351
L 77 351
L 80 351
L 82 351
L 84 351
L 86 351
L 88 351
L 90 351
L 93 350
L 95 351
L 97 351
L 99 350
L 101 351
L 103 351
L 105 351
L 108 351
L 110 351
L 112 351
L 114 351
L 116 350
L 118 351
L 121 351
L 123 351
L 125 351
L 127 350
L 129 351
L 131 351
L 134 351
L 136 351
L 138 351
L 140 351
L 142 351
L 144 350
L 147 351
L 149 351
L 151 351
L 153 351
L 155 351
L 157 351
L 159 351
L 162 351
L 164 351
L 166 351
L 168 351
L 170 351
L 172 351
L 175 351
L 177 351
L 179 351
L 181 351
L 183 351
L 185 351
L 188 351
L 190 351
L 192 351
L 194 351
L 196 351
L 198 351
L 201 351
L 203 351
L 205 351
L 207 351
L 209 351
L 211 351
L 213 350
L 216 351
L 218 351
L 220 351
L 222 351
L 224 351
L 226 351
L 229 351
L 231 351
L 233 351
L 235 351
L 237 351
L 239 351
L 242 351
L 244 351
L 246 351
L 248 351
L 250 351
L 252 351
L 255 351
L 257 351
L 259 351
L 261 351
L 263 351
L 265 351
L 267 351
L 270 351
L 272 351
L 274 351
L 276 351
L 278 351
L 280 351
L 283 351
L 285 351
L 287 351
L 289 351
L 291 351
L 293 351
L 296 351
L 298 351
L 300 351
L 302 351
L 304 351
L 306 351
L 309 351
L 311 351
L 313 351
L 315 351
L 317 351
L 319 351
L 321 351
L 324 351
L 326 351
L 328 351
L 330 351
L 332 351
L 334 351
L 337 351
L 339 351
L 341 351
L 343 351
L 345 351
L 347 351
L 350 351
L 352 351
L 354 351
L 356 351
L 358 351
L 360 351
L 363 351
L 365 351
L 367 351
L 369 351
L 371 351
L 373 351
L 375 351
L 378 351
L 380 351
L 382 351
L 384 351
L 386 351
L 388 351
L 391 351
L 393 351
L 395 351
L 397 351
L 399 351
L 401 351
L 404 351
L 406 351
L 408 351
L 410 351
L 412 351
L 414 351
L 417 351
L 419 351
L 421 351
L 423 351
L 425 351
L 427 351
L 429 351
L 432 351
L 434 351
L 436 351
L 438 351
L 440 351
L 442 351
L 445 351
L 447 351
L 449 351
L 451 351
L 453 351
L 455 351
L 458 351
L 460 351
L 462 351
L 464 351
L 466 351
L 468 351
L 471 351
L 473 351
L 475 351
L 477 351
L 479 351
L 481 351
L 483 351
L 486 351
L 488 351
L 490 351
L 492 351
L 494 351
L 496 351
L 499 351
L 501 351
L 503 351
L 505 351
L 507 351
L 509 351
L 512 351
L 514 351
L 516 351
L 518 351
L 520 351
L 522 351
L 525 351
L 527 351
L 529 351
L 531 351
L 533 351
L 535 351
L 537 351
L 540 351
L 542 351
L 544 351
L 546 351
L 548 351
L 550 351
L 553 351
L 555 351
L 557 351
L 559 351
L 561 351
L 563 351
L 566 350
L 568 351
L 570 351
L 572 351
L 574 351
L 576 350
L 579 351
L 581 351
L 583 351
L 585 350
L 587 351
L 589 351
L 591 350
L 594 350
L 596 350
L 598 350
L 600 351
L 602 349
L 604 350
L 607 350
L 609 348
L 611 351
L 613 348
L 615 351
L 617 351
L 620 351
L 622 349
L 624 351
L 626 350
L 628 350
L 630 351
L 633 349
L 635 351
L 637 351
L 639 350
L 641 350
L 643 351
L 645 350
L 648 351
L 650 351
L 652 351
L 654 351
L 656 351
L 658 350
L 661 351
L 663 350
L 665 351
L 667 351
L 669 351
L 671 350
L 674 351
L 676 351
L 678 351
L 680 351
L 682 350
L 684 351
L 687 351
L 689 351
L 691 349
L 693 351
L 695 351
L 697 351
L 699 351
L 702 350
L 704 350
L 706 350
L 708 350
L 710 351
L 712 351
L 715 351
L 717 351
L 719 350
L 721 349
L 723 350
L 725 350
L 728 350
L 730 351
L 732 350
L 734 350
L 736 350
L 738 349
L 741 350
L 743 351
L 745 349
L 747 351
L 749 351
L 751 351
L 753 351
L 756 351
L 758 350
L 760 350
L 762 351
L 764 351
L 766 351
L 769 350
L 771 350
L 773 350
L 775 349
L 777 351
L 779 351
L 782 351
L 784 351
L 786 351
L 788 351
L 790 350
L 792 351
L 795 351
L 797 350
L 799 351
L 801 350
L 803 351
L 805 350
L 807 351
L 810 351
L 812 350
L 814 351
L 816 350
L 818 350
L 820 351
L 823 350
L 825 351
L 827 351
L 829 351
L 831 351
L 833 351
L 836 351
L 838 350
L 840 351
L 842 351
L 844 351
L 846 349
L 849 351
L 851 351
L 853 351
L 855 351
L 857 349
L 859 350
L 861 351
L 864 351
L 866 351
L 868 351
L 870 350
L 872 351
L 874 351
L 877 351
L 879 351
L 881 350
L 883 351
L 885 350
L 887 351
L 890 351
L 892 351
L 894 351
L 896 351
L 898 351
L 900 351
L 903 351
L 905 351
L 907 351
L 909 351
L 911 351
L 913 350
L 915 351
L 918 351
L 920 351
L 922 351
L 924 351
L 926 351
L 928 351
L 931 351
L 933 351
L 935 351
L 937 351
L 939 351
L 941 351
L 944 351
L 946 351
L 948 351
L 950 351
L 952 351
L 954 351
L 957 351
L 959 351
L 961 351
L 963 351
L 965 350
L 967 351
L 969 351" style="stroke-width:1;stroke:rgba(217,0,116,1.0);fill:none"/><text x="425" y="33" style="stroke-width:0;stroke:none;fill:rgba(51,51,51,1.0);font-size:23.0px;font-family:'Roboto Medium',sans-serif">Tulln 02.05.2021</text><path  d="M 38 11
L 251 11
L 251 91
L 38 91
L 38 11" style="stroke-width:1;stroke:rgba(51,51,51,1.0);fill:rgba(255,255,255,1.0)"/><text x="43" y="26" style="stroke-width:0;stroke:none;fill:rgba(51,51,51,1.0);font-size:10.2px;font-family:'Roboto Medium',sans-serif">Sieben Tage Durschnitt Inzidenz Fälle</text><path  d="M 221 21
L 241 21" style="stroke-width:1;stroke:rgba(0,116,217,1.0);fill:none"/><text x="43" y="56" style="stroke-width:0;stroke:none;fill:rgba(51,51,51,1.0);font-size:10.2px;font-family:'Roboto Medium',sans-serif">Anzahl Faelle</text><path  d="M 110 51
L 241 51" style="stroke-width:1;stroke:rgba(0,217,101,1.0);fill:none"/><text x="43" y="86" style="stroke-width:0;stroke:none;fill:rgba(51,51,51,1.0);font-size:10.2px;font-family:'Roboto Medium',sans-serif">Anzahl Tot</text><path  d="M 98 81
L 241 81" style="stroke-width:1;stroke:rgba(217,0,116,1.0);fill:none"/></svg>