<svg xmlns="http://www.w3.org/2000/svg" xmlns:xlink="http://www.w3.org/1999/xlink" width="1024" height="400">\n<path  d="M 0 0
L 1024 0
L 1024 400
L 0 400
L 0 0" style="stroke-width:0;stroke:rgba(255,255,255,1.0);fill:rgba(255,255,255,1.0)"/><path  d="M 38 11
L 961 11
L 961 351
L 38 351
L 38 11" style="stroke-width:0;stroke:rgba(255,255,255,1.0);fill:rgba(255,255,255,1.0)"/><path  d="M 38 351
L 961 351" style="stroke-width:1;stroke:rgba(51,51,51,1.0);fill:none"/><path  d="M 38 351
L 38 356" style="stroke-width:1;stroke:rgba(51,51,51,1.0);fill:none"/><text x="5" y="373" style="stroke-width:0;stroke:none;fill:rgba(51,51,51,1.0);font-size:12.8px;font-family:'Roboto Medium',sans-serif">2020-02-26</text><path  d="M 154 351
L 154 356" style="stroke-width:1;stroke:rgba(51,51,51,1.0);fill:none"/><text x="121" y="373" style="stroke-width:0;stroke:none;fill:rgba(51,51,51,1.0);font-size:12.8px;font-family:'Roboto Medium',sans-serif">2020-05-24</text><path  d="M 269 351
L 269 356" style="stroke-width:1;stroke:rgba(51,51,51,1.0);fill:none"/><text x="236" y="373" style="stroke-width:0;stroke:none;fill:rgba(51,51,51,1.0);font-size:12.8px;font-family:'Roboto Medium',sans-serif">2020-08-21</text><path  d="M 385 351
L 385 356" style="stroke-width:1;stroke:rgba(51,51,51,1.0);fill:none"/><text x="352" y="373" style="stroke-width:0;stroke:none;fill:rgba(51,51,51,1.0);font-size:12.8px;font-family:'Roboto Medium',sans-serif">2020-11-18</text><path  d="M 500 351
L 500 356" style="stroke-width:1;stroke:rgba(51,51,51,1.0);fill:none"/><text x="467" y="373" style="stroke-width:0;stroke:none;fill:rgba(51,51,51,1.0);font-size:12.8px;font-family:'Roboto Medium',sans-serif">2021-02-15</text><path  d="M 615 351
L 615 356" style="stroke-width:1;stroke:rgba(51,51,51,1.0);fill:none"/><text x="582" y="373" style="stroke-width:0;stroke:none;fill:rgba(51,51,51,1.0);font-size:12.8px;font-family:'Roboto Medium',sans-serif">2021-05-14</text><path  d="M 731 351
L 731 356" style="stroke-width:1;stroke:rgba(51,51,51,1.0);fill:none"/><text x="698" y="373" style="stroke-width:0;stroke:none;fill:rgba(51,51,51,1.0);font-size:12.8px;font-family:'Roboto Medium',sans-serif">2021-08-11</text><path  d="M 846 351
L 846 356" style="stroke-width:1;stroke:rgba(51,51,51,1.0);fill:none"/><text x="813" y="373" style="stroke-width:0;stroke:none;fill:rgba(51,51,51,1.0);font-size:12.8px;font-family:'Roboto Medium',sans-serif">2021-11-08</text><path  d="M 961 351
L 961 356" style="stroke-width:1;stroke:rgba(51,51,51,1.0);fill:none"/><text x="928" y="373" style="stroke-width:0;stroke:none;fill:rgba(51,51,51,1.0);font-size:12.8px;font-family:'Roboto Medium',sans-serif">2022-02-05</text><text x="481" y="395" style="stroke-width:0;stroke:none;fill:rgba(51,51,51,1.0);font-size:12.8px;font-family:'Roboto Medium',sans-serif">Datum</text><path  d="M 962 351
L 962 11" style="stroke-width:1;stroke:rgba(51,51,51,1.0);fill:none"/><path  d="M 962 351
L 967 351" style="stroke-width:1;stroke:rgba(51,51,51,1.0);fill:none"/><text x="972" y="357" style="stroke-width:0;stroke:none;fill:rgba(51,51,51,1.0);font-size:12.8px;font-family:'Roboto Medium',sans-serif">0.00</text><path  d="M 962 308
L 967 308" style="stroke-width:1;stroke:rgba(51,51,51,1.0);fill:none"/><text x="972" y="314" style="stroke-width:0;stroke:none;fill:rgba(51,51,51,1.0);font-size:12.8px;font-family:'Roboto Medium',sans-serif">350.00</text><path  d="M 962 266
L 967 266" style="stroke-width:1;stroke:rgba(51,51,51,1.0);fill:none"/><text x="972" y="272" style="stroke-width:0;stroke:none;fill:rgba(51,51,51,1.0);font-size:12.8px;font-family:'Roboto Medium',sans-serif">700.00</text><path  d="M 962 223
L 967 223" style="stroke-width:1;stroke:rgba(51,51,51,1.0);fill:none"/><text x="972" y="229" style="stroke-width:0;stroke:none;fill:rgba(51,51,51,1.0);font-size:12.8px;font-family:'Roboto Medium',sans-serif">1050.00</text><path  d="M 962 181
L 967 181" style="stroke-width:1;stroke:rgba(51,51,51,1.0);fill:none"/><text x="972" y="187" style="stroke-width:0;stroke:none;fill:rgba(51,51,51,1.0);font-size:12.8px;font-family:'Roboto Medium',sans-serif">1400.00</text><path  d="M 962 138
L 967 138" style="stroke-width:1;stroke:rgba(51,51,51,1.0);fill:none"/><text x="972" y="144" style="stroke-width:0;stroke:none;fill:rgba(51,51,51,1.0);font-size:12.8px;font-family:'Roboto Medium',sans-serif">1750.00</text><path  d="M 962 96
L 967 96" style="stroke-width:1;stroke:rgba(51,51,51,1.0);fill:none"/><text x="972" y="102" style="stroke-width:0;stroke:none;fill:rgba(51,51,51,1.0);font-size:12.8px;font-family:'Roboto Medium',sans-serif">2100.00</text><path  d="M 962 53
L 967 53" style="stroke-width:1;stroke:rgba(51,51,51,1.0);fill:none"/><text x="972" y="59" style="stroke-width:0;stroke:none;fill:rgba(51,51,51,1.0);font-size:12.8px;font-family:'Roboto Medium',sans-serif">2450.00</text><path  d="M 962 11
L 967 11" style="stroke-width:1;stroke:rgba(51,51,51,1.0);fill:none"/><text x="972" y="17" style="stroke-width:0;stroke:none;fill:rgba(51,51,51,1.0);font-size:12.8px;font-family:'Roboto Medium',sans-serif">2800.00</text><path  d="M 38 351
L 40 351
L 41 351
L 42 351
L 44 351
L 45 351
L 46 351
L 48 351
L 49 351
L 50 350
L 51 350
L 53 350
L 54 350
L 55 350
L 57 349
L 58 349
L 59 349
L 61 347
L 62 346
L 63 346
L 64 345
L 66 343
L 67 343
L 68 341
L 70 342
L 71 341
L 72 340
L 74 340
L 75 338
L 76 338
L 77 337
L 79 335
L 80 336
L 81 337
L 83 336
L 84 338
L 85 338
L 87 339
L 88 342
L 89 342
L 90 343
L 92 344
L 93 346
L 94 346
L 96 347
L 97 348
L 98 349
L 100 349
L 101 349
L 102 349
L 103 350
L 105 350
L 106 350
L 107 350
L 109 350
L 110 350
L 111 350
L 113 350
L 114 350
L 115 350
L 116 350
L 118 351
L 119 351
L 120 351
L 122 351
L 123 350
L 124 350
L 126 350
L 127 350
L 128 350
L 129 350
L 131 350
L 132 351
L 133 351
L 135 350
L 136 350
L 137 350
L 139 350
L 140 350
L 141 350
L 142 350
L 144 351
L 145 351
L 146 351
L 148 351
L 149 351
L 150 351
L 152 351
L 153 350
L 154 350
L 155 350
L 157 350
L 158 350
L 159 350
L 161 350
L 162 351
L 163 351
L 165 351
L 166 351
L 167 351
L 168 351
L 170 351
L 171 351
L 172 351
L 174 351
L 175 351
L 176 351
L 178 351
L 179 351
L 180 351
L 181 351
L 183 351
L 184 351
L 185 351
L 187 351
L 188 351
L 189 351
L 191 351
L 192 350
L 193 350
L 194 350
L 196 350
L 197 350
L 198 349
L 200 349
L 201 349
L 202 348
L 204 348
L 205 348
L 206 348
L 207 348
L 209 348
L 210 349
L 211 349
L 213 349
L 214 349
L 215 349
L 217 349
L 218 349
L 219 349
L 220 350
L 222 350
L 223 349
L 224 349
L 226 350
L 227 350
L 228 349
L 230 348
L 231 348
L 232 349
L 233 349
L 235 349
L 236 349
L 237 349
L 239 350
L 240 349
L 241 349
L 243 349
L 244 350
L 245 350
L 246 350
L 248 350
L 249 350
L 250 350
L 252 350
L 253 350
L 254 350
L 256 350
L 257 350
L 258 350
L 259 350
L 261 350
L 262 350
L 263 350
L 265 350
L 266 349
L 267 349
L 269 349
L 270 349
L 271 349
L 272 349
L 274 349
L 275 349
L 276 350
L 278 349
L 279 350
L 280 350
L 282 350
L 283 350
L 284 350
L 285 350
L 287 350
L 288 350
L 289 350
L 291 350
L 292 349
L 293 349
L 295 348
L 296 348
L 297 348
L 298 348
L 300 348
L 301 349
L 302 349
L 304 349
L 305 349
L 306 349
L 308 348
L 309 348
L 310 348
L 311 347
L 313 347
L 314 347
L 315 347
L 317 348
L 318 348
L 319 347
L 321 346
L 322 345
L 323 345
L 324 345
L 326 343
L 327 342
L 328 343
L 330 344
L 331 344
L 332 344
L 334 343
L 335 343
L 336 344
L 337 343
L 339 344
L 340 343
L 341 341
L 343 340
L 344 341
L 345 340
L 347 341
L 348 336
L 349 336
L 350 335
L 352 333
L 353 329
L 354 329
L 356 327
L 357 320
L 358 310
L 360 299
L 361 292
L 362 289
L 363 284
L 365 266
L 366 260
L 367 250
L 369 245
L 370 235
L 371 235
L 373 233
L 374 220
L 375 207
L 376 208
L 378 205
L 379 221
L 380 219
L 382 218
L 383 228
L 384 239
L 386 249
L 387 258
L 388 257
L 389 264
L 391 266
L 392 272
L 393 281
L 395 282
L 396 283
L 397 285
L 399 287
L 400 291
L 401 304
L 402 307
L 404 315
L 405 319
L 406 319
L 408 321
L 409 321
L 410 321
L 412 325
L 413 324
L 414 327
L 415 327
L 417 327
L 418 325
L 419 326
L 421 327
L 422 330
L 423 331
L 425 335
L 426 336
L 427 338
L 428 339
L 430 337
L 431 336
L 432 337
L 434 338
L 435 337
L 436 336
L 438 338
L 439 340
L 440 342
L 441 341
L 443 341
L 444 342
L 445 343
L 447 342
L 448 342
L 449 342
L 451 341
L 452 341
L 453 341
L 454 341
L 456 342
L 457 342
L 458 342
L 460 343
L 461 344
L 462 344
L 464 345
L 465 345
L 466 345
L 467 345
L 469 345
L 470 345
L 471 344
L 473 345
L 474 344
L 475 343
L 477 343
L 478 343
L 479 342
L 480 343
L 482 342
L 483 342
L 484 343
L 486 344
L 487 344
L 488 344
L 490 343
L 491 343
L 492 343
L 493 343
L 495 342
L 496 344
L 497 344
L 499 344
L 500 345
L 501 345
L 503 344
L 504 344
L 505 344
L 506 343
L 508 342
L 509 342
L 510 342
L 512 341
L 513 339
L 514 339
L 516 339
L 517 340
L 518 339
L 519 339
L 521 340
L 522 339
L 523 338
L 525 339
L 526 338
L 527 336
L 529 336
L 530 336
L 531 335
L 532 334
L 534 332
L 535 332
L 536 333
L 538 332
L 539 332
L 540 334
L 542 336
L 543 338
L 544 338
L 546 338
L 547 337
L 548 337
L 549 336
L 551 336
L 552 337
L 553 336
L 555 337
L 556 339
L 557 338
L 558 338
L 560 338
L 561 336
L 562 338
L 564 337
L 565 337
L 566 336
L 568 336
L 569 335
L 570 337
L 571 335
L 573 336
L 574 336
L 575 334
L 577 335
L 578 335
L 579 335
L 581 336
L 582 335
L 583 334
L 584 338
L 586 337
L 587 339
L 588 338
L 590 338
L 591 338
L 592 340
L 594 341
L 595 342
L 596 342
L 597 343
L 599 342
L 600 343
L 601 342
L 603 342
L 604 341
L 605 341
L 607 342
L 608 343
L 609 345
L 610 345
L 612 347
L 613 347
L 614 346
L 616 347
L 617 347
L 618 347
L 620 345
L 621 345
L 622 344
L 623 345
L 625 345
L 626 345
L 627 344
L 629 346
L 630 345
L 631 346
L 633 346
L 634 347
L 635 348
L 636 348
L 638 349
L 639 349
L 640 349
L 642 349
L 643 349
L 644 348
L 646 348
L 647 348
L 648 348
L 649 349
L 651 349
L 652 349
L 653 349
L 655 350
L 656 350
L 657 350
L 659 350
L 660 350
L 661 350
L 662 350
L 664 350
L 665 350
L 666 350
L 668 350
L 669 350
L 670 350
L 672 350
L 673 350
L 674 350
L 675 350
L 677 350
L 678 350
L 679 351
L 681 351
L 682 351
L 683 351
L 685 351
L 686 351
L 687 350
L 688 350
L 690 350
L 691 350
L 692 350
L 694 349
L 695 349
L 696 349
L 698 349
L 699 350
L 700 350
L 701 349
L 703 348
L 704 347
L 705 347
L 707 347
L 708 347
L 709 346
L 711 347
L 712 348
L 713 348
L 714 348
L 716 348
L 717 349
L 718 348
L 720 348
L 721 348
L 722 348
L 724 347
L 725 347
L 726 346
L 727 345
L 729 345
L 730 344
L 731 345
L 733 345
L 734 345
L 735 345
L 737 346
L 738 346
L 739 347
L 740 345
L 742 345
L 743 345
L 744 345
L 746 345
L 747 345
L 748 344
L 750 345
L 751 344
L 752 345
L 753 343
L 755 343
L 756 341
L 757 340
L 759 340
L 760 339
L 761 337
L 763 336
L 764 335
L 765 334
L 766 333
L 768 332
L 769 333
L 770 334
L 772 336
L 773 335
L 774 336
L 776 336
L 777 337
L 778 336
L 779 336
L 781 336
L 782 338
L 783 336
L 785 337
L 786 338
L 787 336
L 789 337
L 790 338
L 791 339
L 792 336
L 794 336
L 795 334
L 796 335
L 798 334
L 799 334
L 800 332
L 802 333
L 803 332
L 804 331
L 805 332
L 807 331
L 808 331
L 809 331
L 811 332
L 812 332
L 813 332
L 815 331
L 816 330
L 817 331
L 818 329
L 820 322
L 821 321
L 822 318
L 824 317
L 825 313
L 826 312
L 828 310
L 829 311
L 830 309
L 831 304
L 833 300
L 834 297
L 835 295
L 837 292
L 838 284
L 839 271
L 841 265
L 842 251
L 843 244
L 844 234
L 846 234
L 847 219
L 848 214
L 850 213
L 851 193
L 852 182
L 854 161
L 855 150
L 856 138
L 857 109
L 859 97
L 860 105
L 861 97
L 863 110
L 864 115
L 865 123
L 867 149
L 868 161
L 869 179
L 870 198
L 872 211
L 873 214
L 874 234
L 876 252
L 877 263
L 878 273
L 880 279
L 881 283
L 882 291
L 883 299
L 885 302
L 886 308
L 887 308
L 889 311
L 890 312
L 891 312
L 893 314
L 894 314
L 895 315
L 896 320
L 898 323
L 899 329
L 900 330
L 902 335
L 903 337
L 904 336
L 906 338
L 907 337
L 908 335
L 909 333
L 911 332
L 912 330
L 913 328
L 915 326
L 916 324
L 917 322
L 919 320
L 920 317
L 921 311
L 922 305
L 924 303
L 925 296
L 926 292
L 928 289
L 929 276
L 930 266
L 932 257
L 933 242
L 934 234
L 935 228
L 937 211
L 938 199
L 939 191
L 941 170
L 942 155
L 943 149
L 945 132
L 946 124
L 947 113
L 948 87
L 950 74
L 951 61
L 952 45
L 954 38
L 955 40
L 956 19
L 958 24
L 959 23
L 960 25
L 961 14" style="stroke-width:1;stroke:rgba(0,116,217,1.0);fill:none"/><path  d="M 38 351
L 40 351
L 41 351
L 42 351
L 44 351
L 45 351
L 46 351
L 48 351
L 49 351
L 50 350
L 51 350
L 53 351
L 54 350
L 55 350
L 57 350
L 58 351
L 59 350
L 61 349
L 62 350
L 63 350
L 64 349
L 66 349
L 67 350
L 68 349
L 70 349
L 71 349
L 72 349
L 74 350
L 75 348
L 76 349
L 77 348
L 79 347
L 80 350
L 81 350
L 83 349
L 84 349
L 85 350
L 87 349
L 88 350
L 89 350
L 90 350
L 92 350
L 93 351
L 94 350
L 96 350
L 97 350
L 98 351
L 100 351
L 101 350
L 102 351
L 103 351
L 105 351
L 106 351
L 107 351
L 109 350
L 110 351
L 111 351
L 113 351
L 114 351
L 115 351
L 116 351
L 118 351
L 119 351
L 120 351
L 122 351
L 123 350
L 124 351
L 126 351
L 127 351
L 128 351
L 129 351
L 131 351
L 132 351
L 133 351
L 135 350
L 136 351
L 137 351
L 139 351
L 140 351
L 141 351
L 142 351
L 144 351
L 145 351
L 146 351
L 148 351
L 149 351
L 150 351
L 152 351
L 153 350
L 154 351
L 155 351
L 157 351
L 158 351
L 159 351
L 161 351
L 162 351
L 163 351
L 165 351
L 166 351
L 167 351
L 168 351
L 170 351
L 171 351
L 172 351
L 174 351
L 175 351
L 176 351
L 178 351
L 179 351
L 180 351
L 181 351
L 183 351
L 184 351
L 185 351
L 187 351
L 188 351
L 189 351
L 191 351
L 192 350
L 193 350
L 194 351
L 196 350
L 197 350
L 198 350
L 200 351
L 201 350
L 202 350
L 204 350
L 205 350
L 206 351
L 207 350
L 209 351
L 210 350
L 211 350
L 213 350
L 214 350
L 215 350
L 217 350
L 218 350
L 219 351
L 220 350
L 222 350
L 223 350
L 224 350
L 226 351
L 227 350
L 228 350
L 230 350
L 231 351
L 232 351
L 233 350
L 235 350
L 236 351
L 237 350
L 239 350
L 240 350
L 241 351
L 243 350
L 244 351
L 245 351
L 246 351
L 248 350
L 249 351
L 250 351
L 252 351
L 253 351
L 254 351
L 256 351
L 257 350
L 258 350
L 259 350
L 261 351
L 262 350
L 263 351
L 265 351
L 266 350
L 267 350
L 269 351
L 270 350
L 271 350
L 272 350
L 274 351
L 275 350
L 276 351
L 278 350
L 279 351
L 280 350
L 282 351
L 283 350
L 284 351
L 285 351
L 287 350
L 288 350
L 289 351
L 291 351
L 292 349
L 293 350
L 295 350
L 296 350
L 297 350
L 298 350
L 300 350
L 301 350
L 302 351
L 304 350
L 305 350
L 306 350
L 308 350
L 309 350
L 310 351
L 311 350
L 313 350
L 314 350
L 315 350
L 317 351
L 318 350
L 319 350
L 321 349
L 322 350
L 323 350
L 324 350
L 326 348
L 327 350
L 328 350
L 330 349
L 331 350
L 332 350
L 334 350
L 335 348
L 336 350
L 337 349
L 339 350
L 340 349
L 341 348
L 343 348
L 344 349
L 345 350
L 347 350
L 348 347
L 349 349
L 350 348
L 352 347
L 353 345
L 354 350
L 356 348
L 357 341
L 358 340
L 360 338
L 361 341
L 362 342
L 363 346
L 365 333
L 366 335
L 367 332
L 369 334
L 370 332
L 371 342
L 373 345
L 374 321
L 375 324
L 376 332
L 378 332
L 379 346
L 380 340
L 382 344
L 383 330
L 384 333
L 386 340
L 387 340
L 388 345
L 389 346
L 391 345
L 392 335
L 393 341
L 395 341
L 396 342
L 397 347
L 399 348
L 400 348
L 401 346
L 402 345
L 404 348
L 405 345
L 406 346
L 408 349
L 409 349
L 410 346
L 412 348
L 413 347
L 414 347
L 415 346
L 417 349
L 418 347
L 419 348
L 421 349
L 422 349
L 423 349
L 425 349
L 426 350
L 427 349
L 428 348
L 430 347
L 431 348
L 432 350
L 434 350
L 435 349
L 436 348
L 438 350
L 439 349
L 440 350
L 441 349
L 443 350
L 444 350
L 445 349
L 447 349
L 448 349
L 449 350
L 451 349
L 452 350
L 453 350
L 454 350
L 456 349
L 457 350
L 458 350
L 460 349
L 461 350
L 462 350
L 464 350
L 465 350
L 466 350
L 467 350
L 469 349
L 470 350
L 471 350
L 473 350
L 474 349
L 475 349
L 477 349
L 478 349
L 479 350
L 480 350
L 482 350
L 483 349
L 484 350
L 486 350
L 487 349
L 488 350
L 490 350
L 491 350
L 492 350
L 493 350
L 495 349
L 496 350
L 497 350
L 499 350
L 500 350
L 501 349
L 503 349
L 504 350
L 505 350
L 506 349
L 508 349
L 509 350
L 510 349
L 512 348
L 513 349
L 514 350
L 516 349
L 517 350
L 518 350
L 519 349
L 521 349
L 522 348
L 523 349
L 525 350
L 526 349
L 527 348
L 529 349
L 530 349
L 531 348
L 532 347
L 534 348
L 535 349
L 536 349
L 538 348
L 539 349
L 540 349
L 542 349
L 543 349
L 544 350
L 546 348
L 547 347
L 548 349
L 549 348
L 551 349
L 552 350
L 553 349
L 555 350
L 556 349
L 557 348
L 558 349
L 560 349
L 561 348
L 562 350
L 564 349
L 565 349
L 566 347
L 568 349
L 569 349
L 570 350
L 571 348
L 573 350
L 574 349
L 575 346
L 577 350
L 578 348
L 579 349
L 581 349
L 582 349
L 583 348
L 584 349
L 586 349
L 587 349
L 588 349
L 590 349
L 591 349
L 592 350
L 594 350
L 595 350
L 596 350
L 597 349
L 599 349
L 600 349
L 601 350
L 603 349
L 604 350
L 605 350
L 607 350
L 608 350
L 609 350
L 610 350
L 612 351
L 613 350
L 614 349
L 616 350
L 617 350
L 618 350
L 620 348
L 621 351
L 622 350
L 623 350
L 625 350
L 626 350
L 627 350
L 629 350
L 630 350
L 631 350
L 633 351
L 634 350
L 635 351
L 636 350
L 638 350
L 639 350
L 640 350
L 642 351
L 643 350
L 644 350
L 646 350
L 647 350
L 648 350
L 649 351
L 651 351
L 652 351
L 653 351
L 655 351
L 656 350
L 657 350
L 659 351
L 660 351
L 661 351
L 662 350
L 664 350
L 665 351
L 666 350
L 668 351
L 669 350
L 670 350
L 672 351
L 673 351
L 674 351
L 675 351
L 677 351
L 678 351
L 679 351
L 681 351
L 682 351
L 683 351
L 685 351
L 686 351
L 687 350
L 688 350
L 690 350
L 691 350
L 692 351
L 694 350
L 695 351
L 696 350
L 698 350
L 699 351
L 700 351
L 701 350
L 703 350
L 704 350
L 705 350
L 707 351
L 708 350
L 709 350
L 711 350
L 712 351
L 713 350
L 714 350
L 716 350
L 717 351
L 718 350
L 720 350
L 721 351
L 722 350
L 724 350
L 725 350
L 726 350
L 727 349
L 729 350
L 730 350
L 731 350
L 733 350
L 734 350
L 735 350
L 737 350
L 738 350
L 739 350
L 740 349
L 742 350
L 743 350
L 744 350
L 746 350
L 747 350
L 748 350
L 750 349
L 751 349
L 752 350
L 753 348
L 755 350
L 756 349
L 757 349
L 759 349
L 760 348
L 761 349
L 763 347
L 764 349
L 765 348
L 766 348
L 768 349
L 769 349
L 770 350
L 772 349
L 773 348
L 774 349
L 776 348
L 777 349
L 778 348
L 779 350
L 781 349
L 782 349
L 783 348
L 785 348
L 786 350
L 787 347
L 789 350
L 790 349
L 791 350
L 792 345
L 794 349
L 795 348
L 796 348
L 798 349
L 799 349
L 800 349
L 802 346
L 803 348
L 804 347
L 805 349
L 807 348
L 808 348
L 809 350
L 811 347
L 812 348
L 813 347
L 815 348
L 816 347
L 817 349
L 818 347
L 820 341
L 821 347
L 822 344
L 824 347
L 825 345
L 826 348
L 828 346
L 829 343
L 830 345
L 831 340
L 833 344
L 834 343
L 835 346
L 837 344
L 838 336
L 839 334
L 841 335
L 842 331
L 843 337
L 844 338
L 846 344
L 847 322
L 848 330
L 850 334
L 851 314
L 852 327
L 854 319
L 855 334
L 856 312
L 857 305
L 859 323
L 860 321
L 861 321
L 863 330
L 864 338
L 865 319
L 867 327
L 868 333
L 869 336
L 870 338
L 872 341
L 873 341
L 874 336
L 876 343
L 877 343
L 878 344
L 880 343
L 881 344
L 882 348
L 883 343
L 885 346
L 886 348
L 887 344
L 889 346
L 890 345
L 891 348
L 893 345
L 894 346
L 895 349
L 896 349
L 898 349
L 899 350
L 900 349
L 902 348
L 903 349
L 904 348
L 906 350
L 907 349
L 908 348
L 909 347
L 911 347
L 912 347
L 913 346
L 915 348
L 916 347
L 917 346
L 919 345
L 920 345
L 921 342
L 922 341
L 924 346
L 925 341
L 926 343
L 928 342
L 929 334
L 930 333
L 932 334
L 933 333
L 934 334
L 935 338
L 937 327
L 938 324
L 939 326
L 941 316
L 942 320
L 943 329
L 945 324
L 946 320
L 947 314
L 948 304
L 950 304
L 951 309
L 952 315
L 954 318
L 955 321
L 956 296
L 958 308
L 959 304
L 960 311
L 961 305" style="stroke-width:1;stroke:rgba(0,217,101,1.0);fill:none"/><path  d="M 38 351
L 40 351
L 41 351
L 42 351
L 44 351
L 45 351
L 46 351
L 48 351
L 49 351
L 50 351
L 51 351
L 53 351
L 54 351
L 55 351
L 57 351
L 58 351
L 59 351
L 61 351
L 62 351
L 63 351
L 64 351
L 66 351
L 67 351
L 68 351
L 70 351
L 71 351
L 72 351
L 74 350
L 75 351
L 76 351
L 77 351
L 79 350
L 80 351
L 81 351
L 83 350
L 84 351
L 85 351
L 87 351
L 88 351
L 89 351
L 90 351
L 92 351
L 93 351
L 94 351
L 96 351
L 97 351
L 98 351
L 100 351
L 101 351
L 102 351
L 103 351
L 105 351
L 106 351
L 107 350
L 109 351
L 110 351
L 111 351
L 113 351
L 114 351
L 115 350
L 116 351
L 118 351
L 119 351
L 120 351
L 122 351
L 123 351
L 124 351
L 126 351
L 127 351
L 128 351
L 129 351
L 131 351
L 132 351
L 133 351
L 135 351
L 136 351
L 137 351
L 139 351
L 140 351
L 141 351
L 142 351
L 144 351
L 145 351
L 146 351
L 148 351
L 149 351
L 150 351
L 152 351
L 153 351
L 154 351
L 155 351
L 157 351
L 158 351
L 159 351
L 161 351
L 162 351
L 163 351
L 165 351
L 166 351
L 167 351
L 168 351
L 170 351
L 171 351
L 172 351
L 174 351
L 175 351
L 176 351
L 178 351
L 179 351
L 180 351
L 181 351
L 183 351
L 184 351
L 185 351
L 187 351
L 188 351
L 189 351
L 191 351
L 192 351
L 193 351
L 194 351
L 196 351
L 197 351
L 198 351
L 200 351
L 201 351
L 202 351
L 204 351
L 205 351
L 206 351
L 207 351
L 209 351
L 210 351
L 211 351
L 213 351
L 214 351
L 215 351
L 217 351
L 218 351
L 219 351
L 220 351
L 222 351
L 223 351
L 224 351
L 226 351
L 227 351
L 228 351
L 230 351
L 231 351
L 232 351
L 233 351
L 235 351
L 236 351
L 237 351
L 239 351
L 240 351
L 241 351
L 243 351
L 244 351
L 245 351
L 246 351
L 248 351
L 249 351
L 250 351
L 252 351
L 253 351
L 254 351
L 256 351
L 257 351
L 258 351
L 259 351
L 261 351
L 262 351
L 263 351
L 265 351
L 266 351
L 267 351
L 269 351
L 270 351
L 271 351
L 272 351
L 274 351
L 275 351
L 276 351
L 278 351
L 279 351
L 280 351
L 282 351
L 283 351
L 284 351
L 285 351
L 287 351
L 288 351
L 289 351
L 291 351
L 292 351
L 293 351
L 295 351
L 296 351
L 297 351
L 298 351
L 300 351
L 301 351
L 302 351
L 304 351
L 305 350
L 306 351
L 308 351
L 309 351
L 310 351
L 311 351
L 313 351
L 314 351
L 315 351
L 317 351
L 318 351
L 319 351
L 321 351
L 322 351
L 323 351
L 324 351
L 326 351
L 327 351
L 328 351
L 330 351
L 331 351
L 332 351
L 334 351
L 335 351
L 336 351
L 337 351
L 339 351
L 340 351
L 341 351
L 343 351
L 344 351
L 345 351
L 347 351
L 348 351
L 349 351
L 350 351
L 352 351
L 353 351
L 354 351
L 356 351
L 357 350
L 358 351
L 360 351
L 361 351
L 362 351
L 363 351
L 365 351
L 366 350
L 367 350
L 369 351
L 370 351
L 371 350
L 373 350
L 374 350
L 375 351
L 376 351
L 378 350
L 379 350
L 380 350
L 382 351
L 383 350
L 384 350
L 386 350
L 387 350
L 388 350
L 389 351
L 391 350
L 392 350
L 393 350
L 395 350
L 396 350
L 397 351
L 399 350
L 400 350
L 401 351
L 402 350
L 404 350
L 405 351
L 406 350
L 408 350
L 409 350
L 410 350
L 412 350
L 413 350
L 414 350
L 415 351
L 417 351
L 418 350
L 419 350
L 421 351
L 422 351
L 423 350
L 425 351
L 426 351
L 427 351
L 428 350
L 430 350
L 431 351
L 432 351
L 434 350
L 435 350
L 436 351
L 438 351
L 439 351
L 440 351
L 441 351
L 443 350
L 444 351
L 445 350
L 447 351
L 448 351
L 449 351
L 451 350
L 452 351
L 453 351
L 454 350
L 456 351
L 457 351
L 458 351
L 460 351
L 461 350
L 462 351
L 464 351
L 465 351
L 466 350
L 467 351
L 469 351
L 470 351
L 471 351
L 473 351
L 474 351
L 475 351
L 477 351
L 478 351
L 479 351
L 480 350
L 482 351
L 483 351
L 484 351
L 486 351
L 487 351
L 488 351
L 490 351
L 491 351
L 492 351
L 493 351
L 495 351
L 496 351
L 497 351
L 499 351
L 500 351
L 501 351
L 503 351
L 504 351
L 505 351
L 506 351
L 508 351
L 509 351
L 510 351
L 512 351
L 513 351
L 514 351
L 516 351
L 517 351
L 518 351
L 519 351
L 521 351
L 522 351
L 523 351
L 525 351
L 526 351
L 527 351
L 529 351
L 530 351
L 531 351
L 532 351
L 534 351
L 535 351
L 536 351
L 538 351
L 539 351
L 540 351
L 542 351
L 543 351
L 544 351
L 546 351
L 547 351
L 548 351
L 549 351
L 551 351
L 552 351
L 553 350
L 555 351
L 556 351
L 557 351
L 558 351
L 560 351
L 561 351
L 562 351
L 564 351
L 565 351
L 566 351
L 568 351
L 569 351
L 570 350
L 571 351
L 573 351
L 574 351
L 575 351
L 577 351
L 578 351
L 579 351
L 581 351
L 582 351
L 583 351
L 584 351
L 586 351
L 587 351
L 588 351
L 590 351
L 591 351
L 592 350
L 594 351
L 595 350
L 596 351
L 597 351
L 599 351
L 600 350
L 601 351
L 603 351
L 604 351
L 605 351
L 607 351
L 608 351
L 609 351
L 610 351
L 612 351
L 613 351
L 614 351
L 616 351
L 617 351
L 618 351
L 620 351
L 621 351
L 622 351
L 623 351
L 625 351
L 626 351
L 627 351
L 629 351
L 630 351
L 631 351
L 633 351
L 634 351
L 635 351
L 636 351
L 638 351
L 639 351
L 640 351
L 642 351
L 643 351
L 644 351
L 646 351
L 647 351
L 648 351
L 649 351
L 651 351
L 652 351
L 653 351
L 655 351
L 656 351
L 657 351
L 659 351
L 660 351
L 661 351
L 662 351
L 664 351
L 665 351
L 666 351
L 668 351
L 669 351
L 670 351
L 672 351
L 673 351
L 674 351
L 675 351
L 677 351
L 678 351
L 679 351
L 681 351
L 682 351
L 683 351
L 685 351
L 686 351
L 687 351
L 688 351
L 690 351
L 691 351
L 692 351
L 694 351
L 695 351
L 696 351
L 698 351
L 699 351
L 700 351
L 701 351
L 703 351
L 704 351
L 705 351
L 707 351
L 708 351
L 709 351
L 711 351
L 712 351
L 713 351
L 714 351
L 716 351
L 717 351
L 718 351
L 720 351
L 721 351
L 722 351
L 724 351
L 725 351
L 726 351
L 727 351
L 729 351
L 730 351
L 731 351
L 733 351
L 734 351
L 735 351
L 737 351
L 738 351
L 739 351
L 740 351
L 742 351
L 743 351
L 744 351
L 746 351
L 747 351
L 748 351
L 750 351
L 751 351
L 752 351
L 753 351
L 755 351
L 756 351
L 757 351
L 759 351
L 760 351
L 761 351
L 763 351
L 764 351
L 765 351
L 766 351
L 768 351
L 769 351
L 770 351
L 772 351
L 773 351
L 774 351
L 776 351
L 777 351
L 778 351
L 779 351
L 781 351
L 782 351
L 783 351
L 785 351
L 786 351
L 787 351
L 789 351
L 790 351
L 791 351
L 792 351
L 794 351
L 795 351
L 796 351
L 798 351
L 799 351
L 800 351
L 802 351
L 803 351
L 804 351
L 805 351
L 807 351
L 808 351
L 809 350
L 811 351
L 812 351
L 813 350
L 815 351
L 816 351
L 817 351
L 818 351
L 820 351
L 821 351
L 822 351
L 824 350
L 825 351
L 826 351
L 828 351
L 829 350
L 830 351
L 831 351
L 833 351
L 834 351
L 835 351
L 837 351
L 838 351
L 839 351
L 841 351
L 842 351
L 843 351
L 844 351
L 846 351
L 847 351
L 848 351
L 850 350
L 851 351
L 852 350
L 854 351
L 855 351
L 856 351
L 857 350
L 859 351
L 860 350
L 861 351
L 863 350
L 864 351
L 865 351
L 867 351
L 868 351
L 869 351
L 870 351
L 872 351
L 873 350
L 874 351
L 876 350
L 877 350
L 878 351
L 880 351
L 881 351
L 882 351
L 883 351
L 885 351
L 886 350
L 887 351
L 889 350
L 890 351
L 891 350
L 893 350
L 894 351
L 895 351
L 896 350
L 898 351
L 899 350
L 900 351
L 902 351
L 903 351
L 904 351
L 906 351
L 907 351
L 908 351
L 909 351
L 911 351
L 912 351
L 913 351
L 915 351
L 916 351
L 917 351
L 919 351
L 920 350
L 921 351
L 922 351
L 924 351
L 925 351
L 926 351
L 928 351
L 929 351
L 930 351
L 932 351
L 933 351
L 934 351
L 935 351
L 937 351
L 938 351
L 939 351
L 941 351
L 942 351
L 943 351
L 945 351
L 946 351
L 947 351
L 948 351
L 950 351
L 951 351
L 952 351
L 954 351
L 955 351
L 956 351
L 958 351
L 959 351
L 960 351
L 961 351" style="stroke-width:1;stroke:rgba(217,0,116,1.0);fill:none"/><text x="358" y="33" style="stroke-width:0;stroke:none;fill:rgba(51,51,51,1.0);font-size:23.0px;font-family:'Roboto Medium',sans-serif">Urfahr-Umgebung 05.02.2022</text><path  d="M 38 11
L 251 11
L 251 91
L 38 91
L 38 11" style="stroke-width:1;stroke:rgba(51,51,51,1.0);fill:rgba(255,255,255,1.0)"/><text x="43" y="26" style="stroke-width:0;stroke:none;fill:rgba(51,51,51,1.0);font-size:10.2px;font-family:'Roboto Medium',sans-serif">Sieben Tage Durschnitt Inzidenz Fälle</text><path  d="M 221 21
L 241 21" style="stroke-width:1;stroke:rgba(0,116,217,1.0);fill:none"/><text x="43" y="56" style="stroke-width:0;stroke:none;fill:rgba(51,51,51,1.0);font-size:10.2px;font-family:'Roboto Medium',sans-serif">Anzahl Faelle</text><path  d="M 110 51
L 241 51" style="stroke-width:1;stroke:rgba(0,217,101,1.0);fill:none"/><text x="43" y="86" style="stroke-width:0;stroke:none;fill:rgba(51,51,51,1.0);font-size:10.2px;font-family:'Roboto Medium',sans-serif">Anzahl Tot</text><path  d="M 98 81
L 241 81" style="stroke-width:1;stroke:rgba(217,0,116,1.0);fill:none"/></svg>