<svg xmlns="http://www.w3.org/2000/svg" xmlns:xlink="http://www.w3.org/1999/xlink" width="1024" height="400">\n<path  d="M 0 0
L 1024 0
L 1024 400
L 0 400
L 0 0" style="stroke-width:0;stroke:rgba(255,255,255,1.0);fill:rgba(255,255,255,1.0)"/><path  d="M 38 11
L 969 11
L 969 351
L 38 351
L 38 11" style="stroke-width:0;stroke:rgba(255,255,255,1.0);fill:rgba(255,255,255,1.0)"/><path  d="M 38 351
L 969 351" style="stroke-width:1;stroke:rgba(51,51,51,1.0);fill:none"/><path  d="M 38 351
L 38 356" style="stroke-width:1;stroke:rgba(51,51,51,1.0);fill:none"/><text x="5" y="373" style="stroke-width:0;stroke:none;fill:rgba(51,51,51,1.0);font-size:12.8px;font-family:'Roboto Medium',sans-serif">2020-02-26</text><path  d="M 155 351
L 155 356" style="stroke-width:1;stroke:rgba(51,51,51,1.0);fill:none"/><text x="122" y="373" style="stroke-width:0;stroke:none;fill:rgba(51,51,51,1.0);font-size:12.8px;font-family:'Roboto Medium',sans-serif">2020-04-09</text><path  d="M 271 351
L 271 356" style="stroke-width:1;stroke:rgba(51,51,51,1.0);fill:none"/><text x="238" y="373" style="stroke-width:0;stroke:none;fill:rgba(51,51,51,1.0);font-size:12.8px;font-family:'Roboto Medium',sans-serif">2020-05-23</text><path  d="M 388 351
L 388 356" style="stroke-width:1;stroke:rgba(51,51,51,1.0);fill:none"/><text x="355" y="373" style="stroke-width:0;stroke:none;fill:rgba(51,51,51,1.0);font-size:12.8px;font-family:'Roboto Medium',sans-serif">2020-07-05</text><path  d="M 504 351
L 504 356" style="stroke-width:1;stroke:rgba(51,51,51,1.0);fill:none"/><text x="471" y="373" style="stroke-width:0;stroke:none;fill:rgba(51,51,51,1.0);font-size:12.8px;font-family:'Roboto Medium',sans-serif">2020-08-18</text><path  d="M 620 351
L 620 356" style="stroke-width:1;stroke:rgba(51,51,51,1.0);fill:none"/><text x="587" y="373" style="stroke-width:0;stroke:none;fill:rgba(51,51,51,1.0);font-size:12.8px;font-family:'Roboto Medium',sans-serif">2020-10-01</text><path  d="M 737 351
L 737 356" style="stroke-width:1;stroke:rgba(51,51,51,1.0);fill:none"/><text x="704" y="373" style="stroke-width:0;stroke:none;fill:rgba(51,51,51,1.0);font-size:12.8px;font-family:'Roboto Medium',sans-serif">2020-11-13</text><path  d="M 853 351
L 853 356" style="stroke-width:1;stroke:rgba(51,51,51,1.0);fill:none"/><text x="820" y="373" style="stroke-width:0;stroke:none;fill:rgba(51,51,51,1.0);font-size:12.8px;font-family:'Roboto Medium',sans-serif">2020-12-27</text><path  d="M 969 351
L 969 356" style="stroke-width:1;stroke:rgba(51,51,51,1.0);fill:none"/><text x="936" y="373" style="stroke-width:0;stroke:none;fill:rgba(51,51,51,1.0);font-size:12.8px;font-family:'Roboto Medium',sans-serif">2021-02-09</text><text x="485" y="395" style="stroke-width:0;stroke:none;fill:rgba(51,51,51,1.0);font-size:12.8px;font-family:'Roboto Medium',sans-serif">Datum</text><path  d="M 970 351
L 970 11" style="stroke-width:1;stroke:rgba(51,51,51,1.0);fill:none"/><path  d="M 970 351
L 975 351" style="stroke-width:1;stroke:rgba(51,51,51,1.0);fill:none"/><text x="980" y="357" style="stroke-width:0;stroke:none;fill:rgba(51,51,51,1.0);font-size:12.8px;font-family:'Roboto Medium',sans-serif">0.00</text><path  d="M 970 308
L 975 308" style="stroke-width:1;stroke:rgba(51,51,51,1.0);fill:none"/><text x="980" y="314" style="stroke-width:0;stroke:none;fill:rgba(51,51,51,1.0);font-size:12.8px;font-family:'Roboto Medium',sans-serif">79.00</text><path  d="M 970 265
L 975 265" style="stroke-width:1;stroke:rgba(51,51,51,1.0);fill:none"/><text x="980" y="271" style="stroke-width:0;stroke:none;fill:rgba(51,51,51,1.0);font-size:12.8px;font-family:'Roboto Medium',sans-serif">158.00</text><path  d="M 970 223
L 975 223" style="stroke-width:1;stroke:rgba(51,51,51,1.0);fill:none"/><text x="980" y="229" style="stroke-width:0;stroke:none;fill:rgba(51,51,51,1.0);font-size:12.8px;font-family:'Roboto Medium',sans-serif">237.00</text><path  d="M 970 181
L 975 181" style="stroke-width:1;stroke:rgba(51,51,51,1.0);fill:none"/><text x="980" y="187" style="stroke-width:0;stroke:none;fill:rgba(51,51,51,1.0);font-size:12.8px;font-family:'Roboto Medium',sans-serif">315.00</text><path  d="M 970 138
L 975 138" style="stroke-width:1;stroke:rgba(51,51,51,1.0);fill:none"/><text x="980" y="144" style="stroke-width:0;stroke:none;fill:rgba(51,51,51,1.0);font-size:12.8px;font-family:'Roboto Medium',sans-serif">394.00</text><path  d="M 970 95
L 975 95" style="stroke-width:1;stroke:rgba(51,51,51,1.0);fill:none"/><text x="980" y="101" style="stroke-width:0;stroke:none;fill:rgba(51,51,51,1.0);font-size:12.8px;font-family:'Roboto Medium',sans-serif">473.00</text><path  d="M 970 53
L 975 53" style="stroke-width:1;stroke:rgba(51,51,51,1.0);fill:none"/><text x="980" y="59" style="stroke-width:0;stroke:none;fill:rgba(51,51,51,1.0);font-size:12.8px;font-family:'Roboto Medium',sans-serif">552.00</text><path  d="M 970 11
L 975 11" style="stroke-width:1;stroke:rgba(51,51,51,1.0);fill:none"/><text x="980" y="17" style="stroke-width:0;stroke:none;fill:rgba(51,51,51,1.0);font-size:12.8px;font-family:'Roboto Medium',sans-serif">630.00</text><path  d="M 38 351
L 41 351
L 44 351
L 47 351
L 49 351
L 52 351
L 55 351
L 57 351
L 60 351
L 63 351
L 65 351
L 68 351
L 71 351
L 73 351
L 76 351
L 79 351
L 81 351
L 84 350
L 87 350
L 89 350
L 92 349
L 95 349
L 97 345
L 100 345
L 103 343
L 105 343
L 108 343
L 111 341
L 113 341
L 116 343
L 119 340
L 121 344
L 124 344
L 127 343
L 129 345
L 132 345
L 135 344
L 137 347
L 140 347
L 143 346
L 145 347
L 148 347
L 151 347
L 153 350
L 156 350
L 159 350
L 161 350
L 164 350
L 167 350
L 169 350
L 172 350
L 175 350
L 177 350
L 180 351
L 183 351
L 185 351
L 188 351
L 191 351
L 193 351
L 196 351
L 199 351
L 201 351
L 204 351
L 207 351
L 209 351
L 212 351
L 215 351
L 217 351
L 220 351
L 223 350
L 225 350
L 228 350
L 231 350
L 233 350
L 236 350
L 239 350
L 241 351
L 244 351
L 247 351
L 249 351
L 252 351
L 255 351
L 257 351
L 260 351
L 263 351
L 265 351
L 268 351
L 271 351
L 273 351
L 276 350
L 279 349
L 281 349
L 284 349
L 287 349
L 289 349
L 292 349
L 295 350
L 297 351
L 300 351
L 303 351
L 305 351
L 308 351
L 311 351
L 313 351
L 316 351
L 319 351
L 321 351
L 324 351
L 327 351
L 329 351
L 332 351
L 335 351
L 337 351
L 340 351
L 343 351
L 345 351
L 348 351
L 351 351
L 353 351
L 356 351
L 359 351
L 361 351
L 364 351
L 367 351
L 369 351
L 372 351
L 375 351
L 377 351
L 380 351
L 383 351
L 385 351
L 388 351
L 391 351
L 393 351
L 396 351
L 399 351
L 401 351
L 404 351
L 407 351
L 409 351
L 412 351
L 415 351
L 417 351
L 420 351
L 423 351
L 425 350
L 428 350
L 431 350
L 433 350
L 436 350
L 439 350
L 441 350
L 444 351
L 447 351
L 449 351
L 452 350
L 455 350
L 457 350
L 460 349
L 463 348
L 465 348
L 468 345
L 471 346
L 473 344
L 476 344
L 479 344
L 481 345
L 484 344
L 487 346
L 489 344
L 492 345
L 495 345
L 497 344
L 500 344
L 503 343
L 505 343
L 508 343
L 511 342
L 513 341
L 516 342
L 519 343
L 521 343
L 524 343
L 527 344
L 529 345
L 532 346
L 535 346
L 537 346
L 540 348
L 543 348
L 545 348
L 548 349
L 551 349
L 553 349
L 556 348
L 559 346
L 561 347
L 564 345
L 567 346
L 569 344
L 572 341
L 575 340
L 577 339
L 580 338
L 583 337
L 585 335
L 588 332
L 591 333
L 593 333
L 596 335
L 599 332
L 601 333
L 604 332
L 607 338
L 609 339
L 612 340
L 615 340
L 617 344
L 620 344
L 623 344
L 625 344
L 628 344
L 631 344
L 633 344
L 636 339
L 639 338
L 641 335
L 644 332
L 647 333
L 649 332
L 652 331
L 655 331
L 657 331
L 660 334
L 663 332
L 665 329
L 668 328
L 671 325
L 673 324
L 676 309
L 679 307
L 681 306
L 684 308
L 687 302
L 689 304
L 692 284
L 695 283
L 697 274
L 700 262
L 703 254
L 705 228
L 708 215
L 711 190
L 713 181
L 716 96
L 719 90
L 721 89
L 724 102
L 727 89
L 729 106
L 732 72
L 735 124
L 737 123
L 740 118
L 743 91
L 745 77
L 748 16
L 751 48
L 753 73
L 756 58
L 759 68
L 761 105
L 764 113
L 767 191
L 769 190
L 772 176
L 775 197
L 777 193
L 780 192
L 783 211
L 785 206
L 788 211
L 791 234
L 793 244
L 796 240
L 799 229
L 801 233
L 804 235
L 807 239
L 809 230
L 812 212
L 815 212
L 817 208
L 820 210
L 823 215
L 825 217
L 828 220
L 831 208
L 833 189
L 836 195
L 839 188
L 841 181
L 844 194
L 847 202
L 849 232
L 852 262
L 855 261
L 857 259
L 860 263
L 863 262
L 865 257
L 868 257
L 871 252
L 873 262
L 876 275
L 879 280
L 881 276
L 884 278
L 887 283
L 889 287
L 892 293
L 895 295
L 897 296
L 900 305
L 903 309
L 905 308
L 908 308
L 911 306
L 913 306
L 916 312
L 919 315
L 921 320
L 924 323
L 927 326
L 929 325
L 932 320
L 935 314
L 937 305
L 940 299
L 943 291
L 945 288
L 948 285
L 951 287
L 953 288
L 956 290
L 959 292
L 961 295
L 964 296
L 967 293
L 969 290" style="stroke-width:1;stroke:rgba(0,116,217,1.0);fill:none"/><path  d="M 38 351
L 41 351
L 44 351
L 47 351
L 49 351
L 52 351
L 55 351
L 57 351
L 60 351
L 63 351
L 65 351
L 68 351
L 71 351
L 73 351
L 76 351
L 79 351
L 81 351
L 84 350
L 87 351
L 89 351
L 92 350
L 95 351
L 97 348
L 100 351
L 103 348
L 105 351
L 108 351
L 111 349
L 113 351
L 116 349
L 119 349
L 121 351
L 124 351
L 127 350
L 129 351
L 132 351
L 135 349
L 137 351
L 140 351
L 143 350
L 145 351
L 148 351
L 151 351
L 153 351
L 156 351
L 159 351
L 161 350
L 164 351
L 167 351
L 169 351
L 172 351
L 175 351
L 177 351
L 180 351
L 183 351
L 185 351
L 188 351
L 191 351
L 193 351
L 196 351
L 199 351
L 201 351
L 204 351
L 207 351
L 209 351
L 212 351
L 215 351
L 217 351
L 220 351
L 223 350
L 225 351
L 228 351
L 231 351
L 233 351
L 236 351
L 239 351
L 241 351
L 244 351
L 247 351
L 249 351
L 252 351
L 255 351
L 257 351
L 260 351
L 263 351
L 265 351
L 268 351
L 271 351
L 273 351
L 276 350
L 279 350
L 281 351
L 284 351
L 287 351
L 289 351
L 292 351
L 295 351
L 297 351
L 300 351
L 303 351
L 305 351
L 308 351
L 311 351
L 313 351
L 316 351
L 319 351
L 321 351
L 324 351
L 327 351
L 329 351
L 332 351
L 335 351
L 337 351
L 340 351
L 343 351
L 345 351
L 348 351
L 351 351
L 353 351
L 356 351
L 359 351
L 361 351
L 364 351
L 367 351
L 369 351
L 372 351
L 375 351
L 377 351
L 380 351
L 383 351
L 385 351
L 388 351
L 391 351
L 393 351
L 396 351
L 399 351
L 401 351
L 404 351
L 407 351
L 409 351
L 412 351
L 415 351
L 417 351
L 420 351
L 423 351
L 425 350
L 428 351
L 431 351
L 433 351
L 436 351
L 439 351
L 441 351
L 444 351
L 447 351
L 449 351
L 452 350
L 455 351
L 457 351
L 460 350
L 463 350
L 465 351
L 468 349
L 471 351
L 473 349
L 476 351
L 479 351
L 481 351
L 484 350
L 487 350
L 489 349
L 492 349
L 495 351
L 497 350
L 500 350
L 503 349
L 505 350
L 508 349
L 511 349
L 513 350
L 516 351
L 519 351
L 521 349
L 524 350
L 527 351
L 529 349
L 532 351
L 535 351
L 537 351
L 540 351
L 543 350
L 545 351
L 548 350
L 551 351
L 553 351
L 556 350
L 559 349
L 561 351
L 564 349
L 567 351
L 569 349
L 572 348
L 575 349
L 577 349
L 580 349
L 583 349
L 585 349
L 588 347
L 591 349
L 593 349
L 596 350
L 599 348
L 601 349
L 604 349
L 607 351
L 609 351
L 612 350
L 615 350
L 617 351
L 620 349
L 623 349
L 625 351
L 628 350
L 631 350
L 633 350
L 636 348
L 639 348
L 641 347
L 644 349
L 647 351
L 649 349
L 652 349
L 655 348
L 657 348
L 660 349
L 663 348
L 665 348
L 668 349
L 671 347
L 673 347
L 676 339
L 679 348
L 681 347
L 684 349
L 687 346
L 689 348
L 692 335
L 695 338
L 697 342
L 700 340
L 703 344
L 705 329
L 708 340
L 711 319
L 713 332
L 716 290
L 719 336
L 721 343
L 724 338
L 727 332
L 729 330
L 732 311
L 735 322
L 737 335
L 740 340
L 743 321
L 745 322
L 748 292
L 751 331
L 753 338
L 756 326
L 759 346
L 761 344
L 764 327
L 767 341
L 769 331
L 772 329
L 775 339
L 777 343
L 780 343
L 783 340
L 785 338
L 788 333
L 791 344
L 793 345
L 796 341
L 799 336
L 801 342
L 804 339
L 807 335
L 809 339
L 812 334
L 815 341
L 817 334
L 820 343
L 823 342
L 825 336
L 828 341
L 831 326
L 833 329
L 836 338
L 839 339
L 841 338
L 844 345
L 847 346
L 849 345
L 852 348
L 855 337
L 857 338
L 860 340
L 863 345
L 865 342
L 868 345
L 871 345
L 873 343
L 876 346
L 879 343
L 881 342
L 884 344
L 887 348
L 889 347
L 892 347
L 895 347
L 897 345
L 900 347
L 903 347
L 905 347
L 908 347
L 911 346
L 913 347
L 916 348
L 919 349
L 921 349
L 924 349
L 927 348
L 929 346
L 932 343
L 935 345
L 937 344
L 940 346
L 943 345
L 945 346
L 948 344
L 951 345
L 953 345
L 956 345
L 959 347
L 961 346
L 964 347
L 967 342
L 969 343" style="stroke-width:1;stroke:rgba(0,217,101,1.0);fill:none"/><path  d="M 38 351
L 41 351
L 44 351
L 47 351
L 49 351
L 52 351
L 55 351
L 57 351
L 60 351
L 63 351
L 65 351
L 68 351
L 71 351
L 73 351
L 76 351
L 79 351
L 81 351
L 84 351
L 87 351
L 89 351
L 92 351
L 95 351
L 97 351
L 100 351
L 103 351
L 105 351
L 108 351
L 111 351
L 113 351
L 116 351
L 119 351
L 121 351
L 124 351
L 127 351
L 129 351
L 132 351
L 135 351
L 137 351
L 140 351
L 143 351
L 145 351
L 148 351
L 151 351
L 153 351
L 156 351
L 159 351
L 161 351
L 164 351
L 167 351
L 169 351
L 172 351
L 175 351
L 177 351
L 180 351
L 183 351
L 185 351
L 188 351
L 191 351
L 193 351
L 196 351
L 199 351
L 201 351
L 204 351
L 207 351
L 209 351
L 212 351
L 215 351
L 217 351
L 220 351
L 223 351
L 225 351
L 228 351
L 231 351
L 233 351
L 236 351
L 239 351
L 241 351
L 244 351
L 247 351
L 249 351
L 252 351
L 255 351
L 257 351
L 260 351
L 263 351
L 265 351
L 268 351
L 271 351
L 273 351
L 276 351
L 279 351
L 281 351
L 284 351
L 287 351
L 289 351
L 292 351
L 295 351
L 297 351
L 300 351
L 303 351
L 305 351
L 308 351
L 311 351
L 313 351
L 316 351
L 319 351
L 321 351
L 324 351
L 327 351
L 329 351
L 332 351
L 335 351
L 337 351
L 340 351
L 343 351
L 345 351
L 348 351
L 351 351
L 353 351
L 356 351
L 359 351
L 361 351
L 364 351
L 367 351
L 369 351
L 372 351
L 375 351
L 377 351
L 380 351
L 383 351
L 385 351
L 388 351
L 391 351
L 393 351
L 396 351
L 399 351
L 401 351
L 404 351
L 407 351
L 409 351
L 412 351
L 415 351
L 417 351
L 420 351
L 423 351
L 425 351
L 428 351
L 431 351
L 433 351
L 436 351
L 439 351
L 441 351
L 444 351
L 447 351
L 449 351
L 452 351
L 455 351
L 457 351
L 460 351
L 463 351
L 465 351
L 468 351
L 471 351
L 473 351
L 476 351
L 479 351
L 481 351
L 484 351
L 487 351
L 489 351
L 492 351
L 495 351
L 497 351
L 500 351
L 503 351
L 505 351
L 508 351
L 511 351
L 513 351
L 516 351
L 519 351
L 521 351
L 524 351
L 527 351
L 529 351
L 532 351
L 535 351
L 537 351
L 540 351
L 543 351
L 545 351
L 548 351
L 551 351
L 553 351
L 556 351
L 559 351
L 561 351
L 564 351
L 567 351
L 569 351
L 572 351
L 575 351
L 577 351
L 580 351
L 583 351
L 585 351
L 588 351
L 591 351
L 593 351
L 596 351
L 599 351
L 601 351
L 604 351
L 607 351
L 609 351
L 612 351
L 615 351
L 617 351
L 620 351
L 623 351
L 625 351
L 628 351
L 631 351
L 633 351
L 636 351
L 639 351
L 641 351
L 644 351
L 647 351
L 649 351
L 652 351
L 655 351
L 657 351
L 660 351
L 663 351
L 665 351
L 668 350
L 671 351
L 673 351
L 676 351
L 679 351
L 681 351
L 684 351
L 687 351
L 689 351
L 692 351
L 695 351
L 697 351
L 700 351
L 703 351
L 705 351
L 708 351
L 711 351
L 713 351
L 716 350
L 719 350
L 721 351
L 724 351
L 727 351
L 729 349
L 732 351
L 735 351
L 737 351
L 740 350
L 743 350
L 745 351
L 748 350
L 751 349
L 753 349
L 756 349
L 759 351
L 761 351
L 764 351
L 767 350
L 769 351
L 772 351
L 775 349
L 777 349
L 780 350
L 783 351
L 785 351
L 788 350
L 791 350
L 793 349
L 796 351
L 799 351
L 801 351
L 804 351
L 807 350
L 809 351
L 812 351
L 815 350
L 817 351
L 820 351
L 823 351
L 825 351
L 828 350
L 831 349
L 833 351
L 836 350
L 839 351
L 841 348
L 844 350
L 847 349
L 849 349
L 852 351
L 855 350
L 857 351
L 860 351
L 863 350
L 865 350
L 868 349
L 871 350
L 873 349
L 876 351
L 879 351
L 881 350
L 884 351
L 887 351
L 889 351
L 892 350
L 895 350
L 897 351
L 900 351
L 903 351
L 905 351
L 908 351
L 911 351
L 913 351
L 916 351
L 919 351
L 921 351
L 924 351
L 927 351
L 929 351
L 932 350
L 935 351
L 937 351
L 940 351
L 943 351
L 945 351
L 948 351
L 951 351
L 953 351
L 956 351
L 959 351
L 961 351
L 964 350
L 967 351
L 969 351" style="stroke-width:1;stroke:rgba(217,0,116,1.0);fill:none"/><text x="385" y="33" style="stroke-width:0;stroke:none;fill:rgba(51,51,51,1.0);font-size:23.0px;font-family:'Roboto Medium',sans-serif">Villach Stadt 09.02.2021</text><path  d="M 38 11
L 251 11
L 251 91
L 38 91
L 38 11" style="stroke-width:1;stroke:rgba(51,51,51,1.0);fill:rgba(255,255,255,1.0)"/><text x="43" y="26" style="stroke-width:0;stroke:none;fill:rgba(51,51,51,1.0);font-size:10.2px;font-family:'Roboto Medium',sans-serif">Sieben Tage Durschnitt Inzidenz Fälle</text><path  d="M 221 21
L 241 21" style="stroke-width:1;stroke:rgba(0,116,217,1.0);fill:none"/><text x="43" y="56" style="stroke-width:0;stroke:none;fill:rgba(51,51,51,1.0);font-size:10.2px;font-family:'Roboto Medium',sans-serif">Anzahl Faelle</text><path  d="M 110 51
L 241 51" style="stroke-width:1;stroke:rgba(0,217,101,1.0);fill:none"/><text x="43" y="86" style="stroke-width:0;stroke:none;fill:rgba(51,51,51,1.0);font-size:10.2px;font-family:'Roboto Medium',sans-serif">Anzahl Tot</text><path  d="M 98 81
L 241 81" style="stroke-width:1;stroke:rgba(217,0,116,1.0);fill:none"/></svg>