<svg xmlns="http://www.w3.org/2000/svg" xmlns:xlink="http://www.w3.org/1999/xlink" width="1024" height="400">\n<path  d="M 0 0
L 1024 0
L 1024 400
L 0 400
L 0 0" style="stroke-width:0;stroke:rgba(255,255,255,1.0);fill:rgba(255,255,255,1.0)"/><path  d="M 38 11
L 969 11
L 969 351
L 38 351
L 38 11" style="stroke-width:0;stroke:rgba(255,255,255,1.0);fill:rgba(255,255,255,1.0)"/><path  d="M 38 351
L 969 351" style="stroke-width:1;stroke:rgba(51,51,51,1.0);fill:none"/><path  d="M 38 351
L 38 356" style="stroke-width:1;stroke:rgba(51,51,51,1.0);fill:none"/><text x="5" y="373" style="stroke-width:0;stroke:none;fill:rgba(51,51,51,1.0);font-size:12.8px;font-family:'Roboto Medium',sans-serif">2020-02-26</text><path  d="M 155 351
L 155 356" style="stroke-width:1;stroke:rgba(51,51,51,1.0);fill:none"/><text x="122" y="373" style="stroke-width:0;stroke:none;fill:rgba(51,51,51,1.0);font-size:12.8px;font-family:'Roboto Medium',sans-serif">2020-05-13</text><path  d="M 271 351
L 271 356" style="stroke-width:1;stroke:rgba(51,51,51,1.0);fill:none"/><text x="238" y="373" style="stroke-width:0;stroke:none;fill:rgba(51,51,51,1.0);font-size:12.8px;font-family:'Roboto Medium',sans-serif">2020-07-30</text><path  d="M 388 351
L 388 356" style="stroke-width:1;stroke:rgba(51,51,51,1.0);fill:none"/><text x="355" y="373" style="stroke-width:0;stroke:none;fill:rgba(51,51,51,1.0);font-size:12.8px;font-family:'Roboto Medium',sans-serif">2020-10-15</text><path  d="M 504 351
L 504 356" style="stroke-width:1;stroke:rgba(51,51,51,1.0);fill:none"/><text x="471" y="373" style="stroke-width:0;stroke:none;fill:rgba(51,51,51,1.0);font-size:12.8px;font-family:'Roboto Medium',sans-serif">2021-01-01</text><path  d="M 620 351
L 620 356" style="stroke-width:1;stroke:rgba(51,51,51,1.0);fill:none"/><text x="587" y="373" style="stroke-width:0;stroke:none;fill:rgba(51,51,51,1.0);font-size:12.8px;font-family:'Roboto Medium',sans-serif">2021-03-20</text><path  d="M 737 351
L 737 356" style="stroke-width:1;stroke:rgba(51,51,51,1.0);fill:none"/><text x="704" y="373" style="stroke-width:0;stroke:none;fill:rgba(51,51,51,1.0);font-size:12.8px;font-family:'Roboto Medium',sans-serif">2021-06-05</text><path  d="M 853 351
L 853 356" style="stroke-width:1;stroke:rgba(51,51,51,1.0);fill:none"/><text x="820" y="373" style="stroke-width:0;stroke:none;fill:rgba(51,51,51,1.0);font-size:12.8px;font-family:'Roboto Medium',sans-serif">2021-08-22</text><path  d="M 969 351
L 969 356" style="stroke-width:1;stroke:rgba(51,51,51,1.0);fill:none"/><text x="936" y="373" style="stroke-width:0;stroke:none;fill:rgba(51,51,51,1.0);font-size:12.8px;font-family:'Roboto Medium',sans-serif">2021-11-08</text><text x="485" y="395" style="stroke-width:0;stroke:none;fill:rgba(51,51,51,1.0);font-size:12.8px;font-family:'Roboto Medium',sans-serif">Datum</text><path  d="M 970 351
L 970 11" style="stroke-width:1;stroke:rgba(51,51,51,1.0);fill:none"/><path  d="M 970 351
L 975 351" style="stroke-width:1;stroke:rgba(51,51,51,1.0);fill:none"/><text x="980" y="357" style="stroke-width:0;stroke:none;fill:rgba(51,51,51,1.0);font-size:12.8px;font-family:'Roboto Medium',sans-serif">0.00</text><path  d="M 970 308
L 975 308" style="stroke-width:1;stroke:rgba(51,51,51,1.0);fill:none"/><text x="980" y="314" style="stroke-width:0;stroke:none;fill:rgba(51,51,51,1.0);font-size:12.8px;font-family:'Roboto Medium',sans-serif">110.00</text><path  d="M 970 266
L 975 266" style="stroke-width:1;stroke:rgba(51,51,51,1.0);fill:none"/><text x="980" y="272" style="stroke-width:0;stroke:none;fill:rgba(51,51,51,1.0);font-size:12.8px;font-family:'Roboto Medium',sans-serif">220.00</text><path  d="M 970 223
L 975 223" style="stroke-width:1;stroke:rgba(51,51,51,1.0);fill:none"/><text x="980" y="229" style="stroke-width:0;stroke:none;fill:rgba(51,51,51,1.0);font-size:12.8px;font-family:'Roboto Medium',sans-serif">330.00</text><path  d="M 970 181
L 975 181" style="stroke-width:1;stroke:rgba(51,51,51,1.0);fill:none"/><text x="980" y="187" style="stroke-width:0;stroke:none;fill:rgba(51,51,51,1.0);font-size:12.8px;font-family:'Roboto Medium',sans-serif">440.00</text><path  d="M 970 138
L 975 138" style="stroke-width:1;stroke:rgba(51,51,51,1.0);fill:none"/><text x="980" y="144" style="stroke-width:0;stroke:none;fill:rgba(51,51,51,1.0);font-size:12.8px;font-family:'Roboto Medium',sans-serif">550.00</text><path  d="M 970 96
L 975 96" style="stroke-width:1;stroke:rgba(51,51,51,1.0);fill:none"/><text x="980" y="102" style="stroke-width:0;stroke:none;fill:rgba(51,51,51,1.0);font-size:12.8px;font-family:'Roboto Medium',sans-serif">660.00</text><path  d="M 970 53
L 975 53" style="stroke-width:1;stroke:rgba(51,51,51,1.0);fill:none"/><text x="980" y="59" style="stroke-width:0;stroke:none;fill:rgba(51,51,51,1.0);font-size:12.8px;font-family:'Roboto Medium',sans-serif">770.00</text><path  d="M 970 11
L 975 11" style="stroke-width:1;stroke:rgba(51,51,51,1.0);fill:none"/><text x="980" y="17" style="stroke-width:0;stroke:none;fill:rgba(51,51,51,1.0);font-size:12.8px;font-family:'Roboto Medium',sans-serif">880.00</text><path  d="M 38 351
L 40 351
L 41 351
L 43 351
L 44 351
L 46 351
L 47 351
L 49 351
L 50 351
L 52 351
L 53 351
L 55 351
L 56 351
L 58 351
L 59 351
L 61 350
L 62 350
L 64 350
L 65 350
L 67 348
L 68 348
L 70 348
L 71 346
L 73 345
L 74 343
L 76 342
L 77 344
L 79 342
L 80 340
L 82 342
L 83 341
L 85 342
L 86 341
L 88 340
L 89 339
L 91 339
L 92 339
L 94 340
L 95 342
L 97 343
L 98 343
L 100 347
L 101 348
L 103 349
L 104 348
L 106 348
L 107 348
L 109 349
L 110 349
L 112 349
L 113 349
L 115 350
L 116 350
L 118 350
L 119 350
L 121 349
L 122 350
L 124 350
L 125 350
L 127 350
L 128 350
L 130 350
L 131 351
L 133 351
L 134 351
L 136 351
L 137 351
L 139 351
L 140 351
L 142 351
L 143 351
L 145 351
L 146 351
L 148 351
L 149 351
L 151 351
L 152 351
L 154 351
L 155 351
L 157 351
L 158 351
L 160 351
L 161 351
L 163 351
L 164 351
L 166 351
L 167 351
L 169 351
L 170 351
L 172 351
L 173 351
L 175 351
L 176 351
L 178 351
L 179 351
L 181 351
L 182 351
L 184 351
L 185 351
L 187 351
L 188 351
L 190 351
L 191 351
L 193 351
L 194 351
L 196 351
L 197 351
L 199 351
L 200 351
L 202 351
L 203 351
L 205 351
L 206 351
L 208 351
L 209 351
L 211 351
L 212 351
L 214 351
L 215 351
L 217 351
L 218 351
L 220 351
L 221 351
L 223 351
L 224 351
L 226 351
L 227 351
L 229 351
L 230 351
L 232 351
L 233 351
L 235 351
L 236 351
L 238 351
L 239 351
L 241 350
L 242 350
L 244 350
L 245 350
L 247 350
L 248 350
L 250 350
L 251 351
L 253 351
L 254 351
L 256 350
L 257 350
L 259 350
L 260 350
L 262 350
L 263 350
L 265 350
L 266 351
L 268 351
L 269 351
L 271 351
L 272 351
L 274 351
L 275 350
L 277 350
L 278 350
L 280 349
L 281 349
L 283 349
L 284 349
L 286 349
L 287 348
L 289 348
L 290 348
L 292 346
L 293 343
L 295 343
L 296 343
L 298 344
L 299 343
L 301 341
L 302 343
L 304 346
L 305 346
L 307 345
L 308 345
L 310 346
L 311 349
L 313 349
L 314 349
L 316 349
L 317 351
L 319 351
L 320 351
L 322 351
L 323 351
L 325 351
L 326 350
L 328 350
L 329 349
L 331 349
L 332 349
L 334 349
L 335 349
L 337 350
L 338 349
L 340 350
L 341 350
L 343 349
L 344 348
L 346 347
L 347 343
L 349 340
L 350 340
L 352 338
L 353 338
L 355 337
L 356 337
L 358 340
L 359 343
L 361 343
L 362 344
L 364 344
L 365 345
L 367 345
L 368 344
L 370 345
L 371 345
L 373 346
L 374 345
L 376 345
L 377 345
L 379 343
L 380 343
L 382 343
L 383 338
L 385 339
L 386 338
L 388 336
L 389 338
L 391 333
L 392 333
L 394 339
L 395 339
L 397 333
L 398 334
L 400 334
L 401 331
L 403 326
L 404 321
L 406 311
L 407 312
L 409 303
L 410 291
L 412 293
L 413 278
L 415 260
L 416 239
L 418 226
L 419 217
L 421 220
L 422 214
L 424 220
L 425 218
L 427 198
L 428 180
L 430 164
L 431 146
L 433 142
L 434 120
L 436 122
L 437 143
L 439 154
L 440 170
L 442 171
L 443 179
L 445 205
L 446 192
L 448 209
L 449 155
L 451 151
L 452 137
L 454 142
L 455 141
L 457 146
L 458 143
L 460 189
L 461 196
L 463 222
L 464 212
L 466 208
L 467 227
L 469 227
L 470 243
L 472 243
L 473 236
L 475 228
L 476 221
L 478 219
L 479 228
L 481 236
L 482 245
L 484 262
L 485 270
L 487 287
L 488 284
L 490 277
L 491 271
L 493 274
L 494 274
L 496 283
L 497 281
L 499 286
L 500 285
L 502 296
L 503 292
L 505 290
L 506 287
L 508 278
L 509 275
L 511 283
L 512 279
L 514 277
L 515 274
L 517 280
L 518 287
L 520 295
L 521 295
L 523 295
L 524 292
L 526 299
L 527 299
L 529 292
L 530 289
L 532 281
L 533 273
L 535 271
L 536 266
L 538 258
L 539 265
L 541 271
L 542 282
L 544 292
L 545 300
L 547 301
L 548 308
L 550 314
L 551 312
L 553 308
L 554 309
L 556 311
L 557 312
L 559 308
L 560 305
L 562 302
L 563 303
L 565 300
L 566 295
L 568 295
L 569 299
L 571 296
L 572 297
L 574 295
L 575 300
L 577 308
L 578 305
L 580 306
L 581 308
L 583 309
L 584 302
L 586 293
L 587 285
L 589 280
L 590 279
L 592 273
L 593 264
L 595 267
L 596 268
L 598 267
L 599 264
L 601 265
L 602 262
L 604 265
L 605 264
L 607 261
L 608 249
L 610 248
L 611 242
L 613 248
L 614 251
L 616 249
L 617 246
L 619 255
L 620 261
L 622 261
L 623 256
L 625 249
L 626 255
L 628 264
L 629 265
L 631 268
L 632 263
L 634 261
L 635 270
L 637 271
L 638 270
L 640 272
L 641 269
L 643 274
L 644 281
L 646 280
L 647 283
L 649 283
L 650 281
L 652 282
L 653 286
L 655 277
L 656 274
L 658 273
L 659 274
L 661 278
L 662 276
L 664 277
L 665 280
L 667 279
L 668 281
L 670 280
L 671 280
L 673 285
L 674 284
L 676 293
L 677 297
L 679 297
L 680 302
L 682 305
L 683 309
L 685 309
L 686 312
L 688 314
L 689 315
L 691 318
L 692 318
L 694 317
L 695 320
L 697 317
L 698 316
L 700 315
L 701 312
L 703 314
L 704 317
L 706 313
L 707 318
L 709 318
L 710 323
L 712 327
L 713 327
L 715 328
L 716 331
L 718 328
L 719 334
L 721 333
L 722 335
L 724 337
L 725 337
L 727 336
L 728 337
L 730 336
L 731 338
L 733 339
L 734 340
L 736 339
L 737 340
L 739 343
L 740 346
L 742 346
L 743 346
L 745 345
L 746 346
L 748 347
L 749 347
L 751 346
L 752 348
L 754 348
L 755 349
L 757 348
L 758 348
L 760 348
L 761 349
L 763 349
L 764 349
L 766 349
L 767 351
L 769 351
L 770 351
L 772 351
L 773 351
L 775 351
L 776 351
L 778 351
L 779 351
L 781 350
L 782 350
L 784 350
L 785 350
L 787 350
L 788 349
L 790 348
L 791 347
L 793 346
L 794 341
L 796 339
L 797 336
L 799 336
L 800 335
L 802 334
L 803 333
L 805 333
L 806 332
L 808 331
L 809 331
L 811 333
L 812 334
L 814 336
L 815 340
L 817 340
L 818 343
L 820 343
L 821 341
L 823 342
L 824 340
L 826 340
L 827 337
L 829 334
L 830 333
L 832 333
L 833 331
L 835 331
L 836 327
L 838 330
L 839 330
L 841 330
L 842 330
L 844 331
L 845 331
L 847 336
L 848 337
L 850 337
L 851 338
L 853 339
L 854 340
L 856 339
L 857 339
L 859 337
L 860 334
L 862 331
L 863 331
L 865 328
L 866 327
L 868 326
L 869 318
L 871 321
L 872 324
L 874 322
L 875 324
L 877 323
L 878 322
L 880 326
L 881 325
L 883 322
L 884 321
L 886 315
L 887 317
L 889 318
L 890 320
L 892 318
L 893 317
L 895 318
L 896 323
L 898 319
L 899 313
L 901 313
L 902 314
L 904 311
L 905 309
L 907 306
L 908 305
L 910 311
L 911 303
L 913 301
L 914 299
L 916 299
L 917 304
L 919 304
L 920 293
L 922 293
L 923 295
L 925 298
L 926 297
L 928 288
L 929 282
L 931 283
L 932 284
L 934 281
L 935 273
L 937 269
L 938 274
L 940 258
L 941 253
L 943 249
L 944 239
L 946 234
L 947 235
L 949 222
L 950 228
L 952 221
L 953 208
L 955 175
L 956 162
L 958 155
L 959 134
L 961 112
L 962 87
L 964 58
L 965 49
L 967 35
L 968 12
L 969 11" style="stroke-width:1;stroke:rgba(0,116,217,1.0);fill:none"/><path  d="M 38 351
L 40 351
L 41 351
L 43 351
L 44 351
L 46 351
L 47 351
L 49 351
L 50 351
L 52 351
L 53 351
L 55 351
L 56 351
L 58 351
L 59 351
L 61 350
L 62 351
L 64 351
L 65 351
L 67 349
L 68 351
L 70 351
L 71 349
L 73 350
L 74 349
L 76 350
L 77 350
L 79 349
L 80 349
L 82 350
L 83 350
L 85 350
L 86 349
L 88 350
L 89 348
L 91 349
L 92 350
L 94 351
L 95 351
L 97 350
L 98 350
L 100 351
L 101 350
L 103 351
L 104 350
L 106 351
L 107 351
L 109 351
L 110 351
L 112 350
L 113 351
L 115 351
L 116 351
L 118 351
L 119 351
L 121 350
L 122 351
L 124 351
L 125 351
L 127 351
L 128 351
L 130 351
L 131 351
L 133 351
L 134 351
L 136 351
L 137 351
L 139 351
L 140 351
L 142 351
L 143 351
L 145 351
L 146 351
L 148 351
L 149 351
L 151 351
L 152 351
L 154 351
L 155 351
L 157 351
L 158 351
L 160 351
L 161 351
L 163 351
L 164 351
L 166 351
L 167 351
L 169 351
L 170 351
L 172 351
L 173 351
L 175 351
L 176 351
L 178 351
L 179 351
L 181 351
L 182 351
L 184 351
L 185 351
L 187 351
L 188 351
L 190 351
L 191 351
L 193 351
L 194 351
L 196 351
L 197 351
L 199 351
L 200 351
L 202 351
L 203 351
L 205 351
L 206 351
L 208 351
L 209 351
L 211 351
L 212 351
L 214 351
L 215 351
L 217 351
L 218 351
L 220 351
L 221 351
L 223 351
L 224 351
L 226 351
L 227 351
L 229 351
L 230 351
L 232 351
L 233 351
L 235 351
L 236 351
L 238 351
L 239 351
L 241 350
L 242 351
L 244 351
L 245 351
L 247 351
L 248 351
L 250 351
L 251 351
L 253 351
L 254 351
L 256 350
L 257 351
L 259 351
L 260 351
L 262 351
L 263 351
L 265 351
L 266 351
L 268 351
L 269 351
L 271 351
L 272 351
L 274 351
L 275 350
L 277 351
L 278 351
L 280 350
L 281 351
L 283 350
L 284 351
L 286 351
L 287 350
L 289 350
L 290 351
L 292 349
L 293 349
L 295 351
L 296 350
L 298 351
L 299 350
L 301 349
L 302 350
L 304 351
L 305 351
L 307 350
L 308 351
L 310 351
L 311 351
L 313 351
L 314 351
L 316 351
L 317 351
L 319 351
L 320 351
L 322 351
L 323 351
L 325 351
L 326 350
L 328 351
L 329 350
L 331 351
L 332 351
L 334 351
L 335 351
L 337 351
L 338 350
L 340 351
L 341 351
L 343 350
L 344 350
L 346 350
L 347 348
L 349 348
L 350 351
L 352 349
L 353 350
L 355 349
L 356 350
L 358 350
L 359 350
L 361 351
L 362 350
L 364 350
L 365 350
L 367 350
L 368 350
L 370 351
L 371 351
L 373 350
L 374 350
L 376 350
L 377 350
L 379 349
L 380 351
L 382 350
L 383 347
L 385 350
L 386 349
L 388 349
L 389 350
L 391 347
L 392 350
L 394 351
L 395 351
L 397 345
L 398 349
L 400 350
L 401 345
L 403 347
L 404 347
L 406 344
L 407 346
L 409 344
L 410 342
L 412 347
L 413 337
L 415 336
L 416 330
L 418 337
L 419 338
L 421 344
L 422 343
L 424 341
L 425 335
L 427 317
L 428 326
L 430 327
L 431 333
L 433 340
L 434 327
L 436 336
L 437 330
L 439 333
L 440 337
L 442 334
L 443 345
L 445 343
L 446 328
L 448 341
L 449 298
L 451 335
L 452 325
L 454 349
L 455 343
L 457 332
L 458 339
L 460 328
L 461 339
L 463 342
L 464 342
L 466 340
L 467 344
L 469 339
L 470 338
L 472 339
L 473 337
L 475 337
L 476 336
L 478 342
L 479 345
L 481 343
L 482 345
L 484 348
L 485 342
L 487 347
L 488 340
L 490 341
L 491 339
L 493 347
L 494 347
L 496 348
L 497 347
L 499 342
L 500 340
L 502 347
L 503 344
L 505 346
L 506 345
L 508 341
L 509 340
L 511 346
L 512 344
L 514 343
L 515 345
L 517 349
L 518 346
L 520 345
L 521 345
L 523 344
L 524 341
L 526 349
L 527 349
L 529 341
L 530 344
L 532 340
L 533 338
L 535 340
L 536 346
L 538 344
L 539 345
L 541 348
L 542 347
L 544 345
L 545 345
L 547 347
L 548 349
L 550 349
L 551 347
L 553 345
L 554 345
L 556 347
L 557 347
L 559 346
L 560 347
L 562 345
L 563 346
L 565 343
L 566 343
L 568 348
L 569 349
L 571 345
L 572 345
L 574 344
L 575 347
L 577 348
L 578 346
L 580 349
L 581 347
L 583 346
L 584 339
L 586 341
L 587 343
L 589 343
L 590 349
L 592 343
L 593 340
L 595 341
L 596 342
L 598 342
L 599 341
L 601 349
L 602 341
L 604 342
L 605 340
L 607 340
L 608 335
L 610 340
L 611 345
L 613 345
L 614 344
L 616 339
L 617 339
L 619 341
L 620 344
L 622 345
L 623 341
L 625 339
L 626 342
L 628 344
L 629 342
L 631 346
L 632 342
L 634 340
L 635 345
L 637 343
L 638 344
L 640 343
L 641 344
L 643 345
L 644 344
L 646 345
L 647 345
L 649 343
L 650 342
L 652 345
L 653 347
L 655 339
L 656 343
L 658 344
L 659 344
L 661 345
L 662 343
L 664 348
L 665 341
L 667 342
L 668 345
L 670 343
L 671 345
L 673 346
L 674 347
L 676 347
L 677 345
L 679 345
L 680 346
L 682 347
L 683 349
L 685 347
L 686 349
L 688 346
L 689 347
L 691 348
L 692 347
L 694 348
L 695 349
L 697 346
L 698 346
L 700 346
L 701 345
L 703 349
L 704 350
L 706 347
L 707 350
L 709 346
L 710 349
L 712 348
L 713 349
L 715 350
L 716 349
L 718 348
L 719 350
L 721 348
L 722 350
L 724 350
L 725 350
L 727 349
L 728 349
L 730 349
L 731 349
L 733 351
L 734 350
L 736 350
L 737 350
L 739 351
L 740 351
L 742 349
L 743 351
L 745 349
L 746 351
L 748 351
L 749 351
L 751 350
L 752 351
L 754 350
L 755 351
L 757 350
L 758 351
L 760 351
L 761 351
L 763 351
L 764 351
L 766 351
L 767 351
L 769 351
L 770 351
L 772 351
L 773 351
L 775 351
L 776 351
L 778 351
L 779 351
L 781 350
L 782 351
L 784 351
L 785 351
L 787 351
L 788 350
L 790 350
L 791 349
L 793 350
L 794 347
L 796 349
L 797 349
L 799 350
L 800 349
L 802 349
L 803 349
L 805 347
L 806 348
L 808 348
L 809 350
L 811 351
L 812 349
L 814 351
L 815 350
L 817 349
L 818 350
L 820 350
L 821 349
L 823 350
L 824 349
L 826 349
L 827 347
L 829 348
L 830 349
L 832 349
L 833 349
L 835 349
L 836 347
L 838 349
L 839 349
L 841 349
L 842 349
L 844 350
L 845 349
L 847 350
L 848 350
L 850 349
L 851 350
L 853 349
L 854 351
L 856 348
L 857 350
L 859 349
L 860 347
L 862 348
L 863 350
L 865 348
L 866 347
L 868 349
L 869 344
L 871 349
L 872 350
L 874 348
L 875 349
L 877 347
L 878 348
L 880 346
L 881 348
L 883 348
L 884 348
L 886 345
L 887 348
L 889 349
L 890 347
L 892 347
L 893 347
L 895 349
L 896 349
L 898 345
L 899 345
L 901 347
L 902 347
L 904 345
L 905 347
L 907 346
L 908 345
L 910 349
L 911 342
L 913 346
L 914 344
L 916 347
L 917 349
L 919 345
L 920 342
L 922 342
L 923 347
L 925 346
L 926 347
L 928 344
L 929 341
L 931 343
L 932 343
L 934 345
L 935 341
L 937 344
L 938 347
L 940 331
L 941 339
L 943 340
L 944 339
L 946 338
L 947 345
L 949 339
L 950 335
L 952 335
L 953 331
L 955 317
L 956 330
L 958 340
L 959 325
L 961 320
L 962 319
L 964 313
L 965 311
L 967 321
L 968 325
L 969 325" style="stroke-width:1;stroke:rgba(0,217,101,1.0);fill:none"/><path  d="M 38 351
L 40 351
L 41 351
L 43 351
L 44 351
L 46 351
L 47 351
L 49 351
L 50 351
L 52 351
L 53 351
L 55 351
L 56 351
L 58 351
L 59 351
L 61 351
L 62 351
L 64 351
L 65 351
L 67 351
L 68 351
L 70 351
L 71 351
L 73 351
L 74 351
L 76 351
L 77 351
L 79 351
L 80 351
L 82 351
L 83 351
L 85 351
L 86 351
L 88 351
L 89 351
L 91 351
L 92 351
L 94 351
L 95 351
L 97 351
L 98 351
L 100 350
L 101 351
L 103 351
L 104 351
L 106 351
L 107 351
L 109 350
L 110 351
L 112 351
L 113 351
L 115 351
L 116 351
L 118 351
L 119 351
L 121 351
L 122 351
L 124 351
L 125 351
L 127 351
L 128 351
L 130 351
L 131 351
L 133 351
L 134 351
L 136 351
L 137 351
L 139 351
L 140 351
L 142 351
L 143 351
L 145 351
L 146 351
L 148 351
L 149 351
L 151 351
L 152 351
L 154 351
L 155 351
L 157 351
L 158 351
L 160 351
L 161 351
L 163 351
L 164 351
L 166 351
L 167 351
L 169 351
L 170 351
L 172 351
L 173 351
L 175 351
L 176 351
L 178 351
L 179 351
L 181 351
L 182 351
L 184 351
L 185 351
L 187 351
L 188 351
L 190 351
L 191 351
L 193 351
L 194 351
L 196 351
L 197 351
L 199 351
L 200 351
L 202 351
L 203 351
L 205 351
L 206 351
L 208 351
L 209 351
L 211 351
L 212 351
L 214 351
L 215 351
L 217 351
L 218 351
L 220 351
L 221 351
L 223 351
L 224 351
L 226 351
L 227 351
L 229 351
L 230 351
L 232 351
L 233 351
L 235 351
L 236 351
L 238 351
L 239 351
L 241 351
L 242 351
L 244 351
L 245 351
L 247 351
L 248 351
L 250 351
L 251 351
L 253 351
L 254 351
L 256 351
L 257 351
L 259 351
L 260 351
L 262 351
L 263 351
L 265 351
L 266 351
L 268 351
L 269 351
L 271 351
L 272 351
L 274 351
L 275 351
L 277 351
L 278 351
L 280 351
L 281 351
L 283 351
L 284 351
L 286 351
L 287 351
L 289 351
L 290 351
L 292 351
L 293 351
L 295 351
L 296 351
L 298 351
L 299 351
L 301 351
L 302 351
L 304 351
L 305 351
L 307 351
L 308 351
L 310 351
L 311 351
L 313 351
L 314 351
L 316 351
L 317 351
L 319 351
L 320 351
L 322 351
L 323 351
L 325 351
L 326 351
L 328 351
L 329 351
L 331 351
L 332 351
L 334 351
L 335 351
L 337 351
L 338 351
L 340 351
L 341 351
L 343 351
L 344 351
L 346 351
L 347 351
L 349 351
L 350 351
L 352 351
L 353 351
L 355 351
L 356 351
L 358 351
L 359 351
L 361 351
L 362 351
L 364 351
L 365 351
L 367 351
L 368 351
L 370 351
L 371 351
L 373 351
L 374 351
L 376 351
L 377 351
L 379 351
L 380 351
L 382 351
L 383 351
L 385 351
L 386 351
L 388 351
L 389 351
L 391 351
L 392 351
L 394 351
L 395 350
L 397 351
L 398 351
L 400 351
L 401 351
L 403 351
L 404 351
L 406 351
L 407 350
L 409 351
L 410 351
L 412 351
L 413 351
L 415 351
L 416 351
L 418 351
L 419 351
L 421 351
L 422 350
L 424 350
L 425 351
L 427 351
L 428 350
L 430 351
L 431 350
L 433 350
L 434 351
L 436 350
L 437 351
L 439 351
L 440 350
L 442 350
L 443 351
L 445 350
L 446 350
L 448 350
L 449 350
L 451 351
L 452 350
L 454 350
L 455 351
L 457 351
L 458 349
L 460 350
L 461 350
L 463 348
L 464 350
L 466 350
L 467 349
L 469 350
L 470 350
L 472 350
L 473 350
L 475 350
L 476 349
L 478 350
L 479 350
L 481 350
L 482 350
L 484 351
L 485 351
L 487 351
L 488 350
L 490 351
L 491 350
L 493 351
L 494 350
L 496 351
L 497 351
L 499 350
L 500 350
L 502 351
L 503 351
L 505 351
L 506 351
L 508 350
L 509 351
L 511 350
L 512 351
L 514 351
L 515 351
L 517 350
L 518 350
L 520 350
L 521 351
L 523 351
L 524 351
L 526 351
L 527 351
L 529 351
L 530 351
L 532 351
L 533 351
L 535 351
L 536 351
L 538 351
L 539 351
L 541 351
L 542 351
L 544 350
L 545 351
L 547 351
L 548 351
L 550 351
L 551 351
L 553 351
L 554 351
L 556 351
L 557 351
L 559 351
L 560 351
L 562 351
L 563 351
L 565 351
L 566 351
L 568 351
L 569 350
L 571 351
L 572 351
L 574 351
L 575 351
L 577 351
L 578 351
L 580 351
L 581 351
L 583 351
L 584 351
L 586 350
L 587 351
L 589 351
L 590 351
L 592 351
L 593 350
L 595 351
L 596 351
L 598 351
L 599 351
L 601 350
L 602 351
L 604 351
L 605 351
L 607 351
L 608 350
L 610 351
L 611 351
L 613 351
L 614 351
L 616 350
L 617 351
L 619 351
L 620 350
L 622 351
L 623 351
L 625 351
L 626 351
L 628 350
L 629 351
L 631 351
L 632 351
L 634 351
L 635 351
L 637 351
L 638 351
L 640 351
L 641 351
L 643 351
L 644 350
L 646 350
L 647 351
L 649 351
L 650 351
L 652 351
L 653 351
L 655 351
L 656 351
L 658 351
L 659 351
L 661 351
L 662 351
L 664 351
L 665 351
L 667 350
L 668 351
L 670 350
L 671 351
L 673 351
L 674 351
L 676 351
L 677 350
L 679 350
L 680 351
L 682 351
L 683 351
L 685 351
L 686 351
L 688 350
L 689 351
L 691 351
L 692 351
L 694 350
L 695 350
L 697 351
L 698 351
L 700 351
L 701 350
L 703 350
L 704 351
L 706 351
L 707 350
L 709 351
L 710 351
L 712 351
L 713 351
L 715 351
L 716 351
L 718 350
L 719 351
L 721 351
L 722 351
L 724 351
L 725 351
L 727 351
L 728 351
L 730 351
L 731 351
L 733 351
L 734 351
L 736 351
L 737 351
L 739 351
L 740 351
L 742 351
L 743 351
L 745 351
L 746 351
L 748 351
L 749 351
L 751 351
L 752 351
L 754 351
L 755 351
L 757 351
L 758 351
L 760 351
L 761 351
L 763 351
L 764 350
L 766 351
L 767 351
L 769 351
L 770 351
L 772 351
L 773 351
L 775 351
L 776 351
L 778 351
L 779 351
L 781 351
L 782 351
L 784 351
L 785 351
L 787 351
L 788 351
L 790 351
L 791 351
L 793 351
L 794 351
L 796 351
L 797 351
L 799 351
L 800 351
L 802 351
L 803 351
L 805 351
L 806 351
L 808 351
L 809 351
L 811 351
L 812 351
L 814 351
L 815 351
L 817 351
L 818 351
L 820 351
L 821 351
L 823 351
L 824 351
L 826 351
L 827 351
L 829 351
L 830 351
L 832 351
L 833 351
L 835 351
L 836 351
L 838 351
L 839 351
L 841 351
L 842 351
L 844 351
L 845 351
L 847 351
L 848 351
L 850 351
L 851 351
L 853 351
L 854 351
L 856 351
L 857 351
L 859 351
L 860 351
L 862 351
L 863 351
L 865 351
L 866 351
L 868 351
L 869 351
L 871 351
L 872 351
L 874 351
L 875 351
L 877 351
L 878 351
L 880 351
L 881 351
L 883 351
L 884 351
L 886 351
L 887 351
L 889 351
L 890 351
L 892 351
L 893 351
L 895 351
L 896 351
L 898 351
L 899 351
L 901 351
L 902 351
L 904 351
L 905 351
L 907 351
L 908 351
L 910 351
L 911 351
L 913 351
L 914 351
L 916 351
L 917 351
L 919 350
L 920 351
L 922 351
L 923 351
L 925 351
L 926 351
L 928 351
L 929 350
L 931 350
L 932 351
L 934 351
L 935 351
L 937 351
L 938 351
L 940 351
L 941 350
L 943 351
L 944 351
L 946 351
L 947 351
L 949 351
L 950 351
L 952 351
L 953 351
L 955 351
L 956 351
L 958 351
L 959 350
L 961 351
L 962 351
L 964 351
L 965 351
L 967 351
L 968 351
L 969 350" style="stroke-width:1;stroke:rgba(217,0,116,1.0);fill:none"/><text x="387" y="33" style="stroke-width:0;stroke:none;fill:rgba(51,51,51,1.0);font-size:23.0px;font-family:'Roboto Medium',sans-serif">Villach Land 08.11.2021</text><path  d="M 38 11
L 251 11
L 251 91
L 38 91
L 38 11" style="stroke-width:1;stroke:rgba(51,51,51,1.0);fill:rgba(255,255,255,1.0)"/><text x="43" y="26" style="stroke-width:0;stroke:none;fill:rgba(51,51,51,1.0);font-size:10.2px;font-family:'Roboto Medium',sans-serif">Sieben Tage Durschnitt Inzidenz Fälle</text><path  d="M 221 21
L 241 21" style="stroke-width:1;stroke:rgba(0,116,217,1.0);fill:none"/><text x="43" y="56" style="stroke-width:0;stroke:none;fill:rgba(51,51,51,1.0);font-size:10.2px;font-family:'Roboto Medium',sans-serif">Anzahl Faelle</text><path  d="M 110 51
L 241 51" style="stroke-width:1;stroke:rgba(0,217,101,1.0);fill:none"/><text x="43" y="86" style="stroke-width:0;stroke:none;fill:rgba(51,51,51,1.0);font-size:10.2px;font-family:'Roboto Medium',sans-serif">Anzahl Tot</text><path  d="M 98 81
L 241 81" style="stroke-width:1;stroke:rgba(217,0,116,1.0);fill:none"/></svg>