<svg xmlns="http://www.w3.org/2000/svg" xmlns:xlink="http://www.w3.org/1999/xlink" width="1024" height="400">\n<path  d="M 0 0
L 1024 0
L 1024 400
L 0 400
L 0 0" style="stroke-width:0;stroke:rgba(255,255,255,1.0);fill:rgba(255,255,255,1.0)"/><path  d="M 38 11
L 969 11
L 969 351
L 38 351
L 38 11" style="stroke-width:0;stroke:rgba(255,255,255,1.0);fill:rgba(255,255,255,1.0)"/><path  d="M 38 351
L 969 351" style="stroke-width:1;stroke:rgba(51,51,51,1.0);fill:none"/><path  d="M 38 351
L 38 356" style="stroke-width:1;stroke:rgba(51,51,51,1.0);fill:none"/><text x="5" y="373" style="stroke-width:0;stroke:none;fill:rgba(51,51,51,1.0);font-size:12.8px;font-family:'Roboto Medium',sans-serif">2020-02-26</text><path  d="M 155 351
L 155 356" style="stroke-width:1;stroke:rgba(51,51,51,1.0);fill:none"/><text x="122" y="373" style="stroke-width:0;stroke:none;fill:rgba(51,51,51,1.0);font-size:12.8px;font-family:'Roboto Medium',sans-serif">2020-04-26</text><path  d="M 271 351
L 271 356" style="stroke-width:1;stroke:rgba(51,51,51,1.0);fill:none"/><text x="238" y="373" style="stroke-width:0;stroke:none;fill:rgba(51,51,51,1.0);font-size:12.8px;font-family:'Roboto Medium',sans-serif">2020-06-25</text><path  d="M 388 351
L 388 356" style="stroke-width:1;stroke:rgba(51,51,51,1.0);fill:none"/><text x="355" y="373" style="stroke-width:0;stroke:none;fill:rgba(51,51,51,1.0);font-size:12.8px;font-family:'Roboto Medium',sans-serif">2020-08-24</text><path  d="M 504 351
L 504 356" style="stroke-width:1;stroke:rgba(51,51,51,1.0);fill:none"/><text x="471" y="373" style="stroke-width:0;stroke:none;fill:rgba(51,51,51,1.0);font-size:12.8px;font-family:'Roboto Medium',sans-serif">2020-10-23</text><path  d="M 620 351
L 620 356" style="stroke-width:1;stroke:rgba(51,51,51,1.0);fill:none"/><text x="587" y="373" style="stroke-width:0;stroke:none;fill:rgba(51,51,51,1.0);font-size:12.8px;font-family:'Roboto Medium',sans-serif">2020-12-22</text><path  d="M 737 351
L 737 356" style="stroke-width:1;stroke:rgba(51,51,51,1.0);fill:none"/><text x="704" y="373" style="stroke-width:0;stroke:none;fill:rgba(51,51,51,1.0);font-size:12.8px;font-family:'Roboto Medium',sans-serif">2021-02-20</text><path  d="M 853 351
L 853 356" style="stroke-width:1;stroke:rgba(51,51,51,1.0);fill:none"/><text x="820" y="373" style="stroke-width:0;stroke:none;fill:rgba(51,51,51,1.0);font-size:12.8px;font-family:'Roboto Medium',sans-serif">2021-04-21</text><path  d="M 969 351
L 969 356" style="stroke-width:1;stroke:rgba(51,51,51,1.0);fill:none"/><text x="936" y="373" style="stroke-width:0;stroke:none;fill:rgba(51,51,51,1.0);font-size:12.8px;font-family:'Roboto Medium',sans-serif">2021-06-20</text><text x="485" y="395" style="stroke-width:0;stroke:none;fill:rgba(51,51,51,1.0);font-size:12.8px;font-family:'Roboto Medium',sans-serif">Datum</text><path  d="M 970 351
L 970 11" style="stroke-width:1;stroke:rgba(51,51,51,1.0);fill:none"/><path  d="M 970 351
L 975 351" style="stroke-width:1;stroke:rgba(51,51,51,1.0);fill:none"/><text x="980" y="357" style="stroke-width:0;stroke:none;fill:rgba(51,51,51,1.0);font-size:12.8px;font-family:'Roboto Medium',sans-serif">0.00</text><path  d="M 970 308
L 975 308" style="stroke-width:1;stroke:rgba(51,51,51,1.0);fill:none"/><text x="980" y="314" style="stroke-width:0;stroke:none;fill:rgba(51,51,51,1.0);font-size:12.8px;font-family:'Roboto Medium',sans-serif">79.00</text><path  d="M 970 265
L 975 265" style="stroke-width:1;stroke:rgba(51,51,51,1.0);fill:none"/><text x="980" y="271" style="stroke-width:0;stroke:none;fill:rgba(51,51,51,1.0);font-size:12.8px;font-family:'Roboto Medium',sans-serif">158.00</text><path  d="M 970 223
L 975 223" style="stroke-width:1;stroke:rgba(51,51,51,1.0);fill:none"/><text x="980" y="229" style="stroke-width:0;stroke:none;fill:rgba(51,51,51,1.0);font-size:12.8px;font-family:'Roboto Medium',sans-serif">237.00</text><path  d="M 970 181
L 975 181" style="stroke-width:1;stroke:rgba(51,51,51,1.0);fill:none"/><text x="980" y="187" style="stroke-width:0;stroke:none;fill:rgba(51,51,51,1.0);font-size:12.8px;font-family:'Roboto Medium',sans-serif">315.00</text><path  d="M 970 138
L 975 138" style="stroke-width:1;stroke:rgba(51,51,51,1.0);fill:none"/><text x="980" y="144" style="stroke-width:0;stroke:none;fill:rgba(51,51,51,1.0);font-size:12.8px;font-family:'Roboto Medium',sans-serif">394.00</text><path  d="M 970 95
L 975 95" style="stroke-width:1;stroke:rgba(51,51,51,1.0);fill:none"/><text x="980" y="101" style="stroke-width:0;stroke:none;fill:rgba(51,51,51,1.0);font-size:12.8px;font-family:'Roboto Medium',sans-serif">473.00</text><path  d="M 970 53
L 975 53" style="stroke-width:1;stroke:rgba(51,51,51,1.0);fill:none"/><text x="980" y="59" style="stroke-width:0;stroke:none;fill:rgba(51,51,51,1.0);font-size:12.8px;font-family:'Roboto Medium',sans-serif">552.00</text><path  d="M 970 11
L 975 11" style="stroke-width:1;stroke:rgba(51,51,51,1.0);fill:none"/><text x="980" y="17" style="stroke-width:0;stroke:none;fill:rgba(51,51,51,1.0);font-size:12.8px;font-family:'Roboto Medium',sans-serif">630.00</text><path  d="M 38 351
L 40 351
L 42 351
L 44 351
L 46 351
L 48 351
L 50 351
L 52 351
L 54 351
L 56 351
L 58 351
L 60 351
L 62 351
L 64 351
L 66 351
L 68 351
L 70 351
L 71 350
L 73 350
L 75 350
L 77 349
L 79 349
L 81 345
L 83 345
L 85 343
L 87 343
L 89 343
L 91 341
L 93 341
L 95 343
L 97 340
L 99 344
L 101 344
L 103 343
L 104 345
L 106 345
L 108 344
L 110 347
L 112 347
L 114 346
L 116 347
L 118 347
L 120 347
L 122 350
L 124 350
L 126 350
L 128 350
L 130 350
L 132 350
L 134 350
L 135 350
L 137 350
L 139 350
L 141 351
L 143 351
L 145 351
L 147 351
L 149 351
L 151 351
L 153 351
L 155 351
L 157 351
L 159 351
L 161 351
L 163 351
L 165 351
L 167 351
L 168 351
L 170 351
L 172 350
L 174 350
L 176 350
L 178 350
L 180 350
L 182 350
L 184 350
L 186 351
L 188 351
L 190 351
L 192 351
L 194 351
L 196 351
L 198 351
L 199 351
L 201 351
L 203 351
L 205 351
L 207 351
L 209 351
L 211 350
L 213 349
L 215 349
L 217 349
L 219 349
L 221 349
L 223 349
L 225 350
L 227 351
L 229 351
L 231 351
L 232 351
L 234 351
L 236 351
L 238 351
L 240 351
L 242 351
L 244 351
L 246 351
L 248 351
L 250 351
L 252 351
L 254 351
L 256 351
L 258 351
L 260 351
L 262 351
L 263 351
L 265 351
L 267 351
L 269 351
L 271 351
L 273 351
L 275 351
L 277 351
L 279 351
L 281 351
L 283 351
L 285 351
L 287 351
L 289 351
L 291 351
L 293 351
L 295 351
L 296 351
L 298 351
L 300 351
L 302 351
L 304 351
L 306 351
L 308 351
L 310 351
L 312 351
L 314 351
L 316 351
L 318 351
L 320 350
L 322 350
L 324 350
L 326 350
L 327 350
L 329 350
L 331 350
L 333 351
L 335 351
L 337 351
L 339 350
L 341 350
L 343 350
L 345 349
L 347 348
L 349 348
L 351 345
L 353 346
L 355 344
L 357 344
L 359 344
L 360 345
L 362 344
L 364 346
L 366 344
L 368 345
L 370 345
L 372 344
L 374 344
L 376 343
L 378 343
L 380 343
L 382 342
L 384 341
L 386 342
L 388 343
L 390 343
L 392 343
L 393 344
L 395 345
L 397 346
L 399 346
L 401 346
L 403 348
L 405 348
L 407 348
L 409 349
L 411 349
L 413 349
L 415 348
L 417 346
L 419 347
L 421 345
L 423 346
L 424 344
L 426 341
L 428 340
L 430 339
L 432 338
L 434 337
L 436 335
L 438 332
L 440 333
L 442 333
L 444 335
L 446 332
L 448 333
L 450 332
L 452 338
L 454 339
L 456 340
L 457 340
L 459 344
L 461 344
L 463 344
L 465 344
L 467 344
L 469 344
L 471 344
L 473 339
L 475 338
L 477 335
L 479 332
L 481 333
L 483 332
L 485 331
L 487 331
L 488 331
L 490 334
L 492 332
L 494 329
L 496 328
L 498 325
L 500 324
L 502 309
L 504 307
L 506 306
L 508 308
L 510 302
L 512 304
L 514 284
L 516 283
L 518 274
L 520 262
L 521 254
L 523 228
L 525 215
L 527 190
L 529 181
L 531 99
L 533 93
L 535 92
L 537 105
L 539 91
L 541 108
L 543 75
L 545 125
L 547 124
L 549 118
L 551 90
L 552 76
L 554 15
L 556 47
L 558 72
L 560 56
L 562 66
L 564 104
L 566 114
L 568 192
L 570 191
L 572 177
L 574 198
L 576 194
L 578 193
L 580 211
L 582 206
L 584 211
L 585 234
L 587 244
L 589 239
L 591 229
L 593 233
L 595 235
L 597 239
L 599 230
L 601 212
L 603 212
L 605 209
L 607 211
L 609 216
L 611 217
L 613 221
L 615 210
L 616 191
L 618 198
L 620 191
L 622 183
L 624 197
L 626 205
L 628 234
L 630 264
L 632 262
L 634 260
L 636 264
L 638 263
L 640 258
L 642 258
L 644 253
L 646 262
L 648 275
L 649 280
L 651 276
L 653 278
L 655 283
L 657 287
L 659 293
L 661 295
L 663 296
L 665 305
L 667 309
L 669 308
L 671 308
L 673 306
L 675 307
L 677 313
L 679 316
L 681 320
L 682 324
L 684 326
L 686 326
L 688 320
L 690 314
L 692 306
L 694 299
L 696 291
L 698 288
L 700 285
L 702 287
L 704 288
L 706 290
L 708 294
L 710 296
L 712 297
L 713 295
L 715 292
L 717 295
L 719 293
L 721 293
L 723 296
L 725 301
L 727 301
L 729 302
L 731 294
L 733 296
L 735 289
L 737 281
L 739 278
L 741 279
L 743 275
L 745 275
L 746 269
L 748 272
L 750 279
L 752 280
L 754 278
L 756 276
L 758 278
L 760 279
L 762 279
L 764 272
L 766 270
L 768 259
L 770 257
L 772 251
L 774 247
L 776 243
L 777 239
L 779 235
L 781 248
L 783 262
L 785 263
L 787 268
L 789 254
L 791 254
L 793 254
L 795 246
L 797 239
L 799 229
L 801 229
L 803 240
L 805 246
L 807 238
L 809 244
L 810 247
L 812 243
L 814 236
L 816 234
L 818 213
L 820 220
L 822 225
L 824 221
L 826 248
L 828 250
L 830 241
L 832 262
L 834 259
L 836 254
L 838 251
L 840 236
L 841 238
L 843 254
L 845 252
L 847 260
L 849 266
L 851 261
L 853 267
L 855 271
L 857 262
L 859 254
L 861 250
L 863 242
L 865 242
L 867 239
L 869 234
L 871 249
L 873 255
L 874 260
L 876 243
L 878 254
L 880 258
L 882 260
L 884 256
L 886 254
L 888 243
L 890 272
L 892 269
L 894 276
L 896 271
L 898 276
L 900 279
L 902 290
L 904 289
L 905 290
L 907 285
L 909 293
L 911 291
L 913 299
L 915 302
L 917 304
L 919 313
L 921 316
L 923 324
L 925 329
L 927 330
L 929 330
L 931 332
L 933 334
L 935 338
L 937 341
L 938 343
L 940 344
L 942 343
L 944 343
L 946 344
L 948 343
L 950 343
L 952 343
L 954 342
L 956 345
L 958 347
L 960 348
L 962 349
L 964 349
L 966 349
L 968 350
L 969 350" style="stroke-width:1;stroke:rgba(0,116,217,1.0);fill:none"/><path  d="M 38 351
L 40 351
L 42 351
L 44 351
L 46 351
L 48 351
L 50 351
L 52 351
L 54 351
L 56 351
L 58 351
L 60 351
L 62 351
L 64 351
L 66 351
L 68 351
L 70 351
L 71 350
L 73 351
L 75 351
L 77 350
L 79 351
L 81 348
L 83 351
L 85 348
L 87 351
L 89 351
L 91 349
L 93 351
L 95 349
L 97 349
L 99 351
L 101 351
L 103 350
L 104 351
L 106 351
L 108 349
L 110 351
L 112 351
L 114 350
L 116 351
L 118 351
L 120 351
L 122 351
L 124 351
L 126 351
L 128 350
L 130 351
L 132 351
L 134 351
L 135 351
L 137 351
L 139 351
L 141 351
L 143 351
L 145 351
L 147 351
L 149 351
L 151 351
L 153 351
L 155 351
L 157 351
L 159 351
L 161 351
L 163 351
L 165 351
L 167 351
L 168 351
L 170 351
L 172 350
L 174 351
L 176 351
L 178 351
L 180 351
L 182 351
L 184 351
L 186 351
L 188 351
L 190 351
L 192 351
L 194 351
L 196 351
L 198 351
L 199 351
L 201 351
L 203 351
L 205 351
L 207 351
L 209 351
L 211 350
L 213 350
L 215 351
L 217 351
L 219 351
L 221 351
L 223 351
L 225 351
L 227 351
L 229 351
L 231 351
L 232 351
L 234 351
L 236 351
L 238 351
L 240 351
L 242 351
L 244 351
L 246 351
L 248 351
L 250 351
L 252 351
L 254 351
L 256 351
L 258 351
L 260 351
L 262 351
L 263 351
L 265 351
L 267 351
L 269 351
L 271 351
L 273 351
L 275 351
L 277 351
L 279 351
L 281 351
L 283 351
L 285 351
L 287 351
L 289 351
L 291 351
L 293 351
L 295 351
L 296 351
L 298 351
L 300 351
L 302 351
L 304 351
L 306 351
L 308 351
L 310 351
L 312 351
L 314 351
L 316 351
L 318 351
L 320 350
L 322 351
L 324 351
L 326 351
L 327 351
L 329 351
L 331 351
L 333 351
L 335 351
L 337 351
L 339 350
L 341 351
L 343 351
L 345 350
L 347 350
L 349 351
L 351 349
L 353 351
L 355 349
L 357 351
L 359 351
L 360 351
L 362 350
L 364 350
L 366 349
L 368 349
L 370 351
L 372 350
L 374 350
L 376 349
L 378 350
L 380 349
L 382 349
L 384 350
L 386 351
L 388 351
L 390 349
L 392 350
L 393 351
L 395 349
L 397 351
L 399 351
L 401 351
L 403 351
L 405 350
L 407 351
L 409 350
L 411 351
L 413 351
L 415 350
L 417 349
L 419 351
L 421 349
L 423 351
L 424 349
L 426 348
L 428 349
L 430 349
L 432 349
L 434 349
L 436 349
L 438 347
L 440 349
L 442 349
L 444 350
L 446 348
L 448 349
L 450 349
L 452 351
L 454 351
L 456 350
L 457 350
L 459 351
L 461 349
L 463 349
L 465 351
L 467 350
L 469 350
L 471 350
L 473 348
L 475 348
L 477 347
L 479 349
L 481 351
L 483 349
L 485 349
L 487 348
L 488 348
L 490 349
L 492 348
L 494 348
L 496 349
L 498 347
L 500 347
L 502 339
L 504 348
L 506 347
L 508 349
L 510 346
L 512 348
L 514 335
L 516 338
L 518 342
L 520 340
L 521 344
L 523 329
L 525 340
L 527 319
L 529 332
L 531 291
L 533 336
L 535 343
L 537 338
L 539 331
L 541 330
L 543 311
L 545 322
L 547 335
L 549 340
L 551 320
L 552 322
L 554 292
L 556 331
L 558 338
L 560 326
L 562 346
L 564 344
L 566 328
L 568 341
L 570 331
L 572 329
L 574 339
L 576 344
L 578 343
L 580 340
L 582 338
L 584 333
L 585 344
L 587 345
L 589 341
L 591 336
L 593 342
L 595 339
L 597 335
L 599 339
L 601 334
L 603 341
L 605 334
L 607 343
L 609 342
L 611 336
L 613 341
L 615 327
L 616 329
L 618 339
L 620 339
L 622 338
L 624 345
L 626 346
L 628 345
L 630 348
L 632 338
L 634 338
L 636 340
L 638 345
L 640 342
L 642 345
L 644 345
L 646 343
L 648 346
L 649 343
L 651 342
L 653 344
L 655 348
L 657 347
L 659 347
L 661 347
L 663 345
L 665 347
L 667 347
L 669 347
L 671 347
L 673 346
L 675 347
L 677 348
L 679 349
L 681 349
L 682 349
L 684 348
L 686 346
L 688 343
L 690 345
L 692 344
L 694 345
L 696 345
L 698 346
L 700 344
L 702 345
L 704 346
L 706 346
L 708 347
L 710 346
L 712 347
L 713 342
L 715 343
L 717 347
L 719 345
L 721 347
L 723 348
L 725 349
L 727 342
L 729 344
L 731 342
L 733 346
L 735 342
L 737 343
L 739 348
L 741 343
L 743 341
L 745 342
L 746 342
L 748 344
L 750 348
L 752 348
L 754 342
L 756 340
L 758 343
L 760 343
L 762 344
L 764 344
L 766 347
L 768 335
L 770 339
L 772 340
L 774 340
L 776 342
L 777 341
L 779 345
L 781 343
L 783 347
L 785 340
L 787 343
L 789 333
L 791 341
L 793 344
L 795 338
L 797 343
L 799 334
L 801 343
L 803 340
L 805 345
L 807 339
L 809 342
L 810 345
L 812 332
L 814 339
L 816 339
L 818 332
L 820 343
L 822 345
L 824 342
L 826 349
L 828 340
L 830 333
L 832 346
L 834 341
L 836 342
L 838 340
L 840 340
L 841 341
L 843 342
L 845 345
L 847 347
L 849 346
L 851 337
L 853 343
L 855 343
L 857 337
L 859 339
L 861 345
L 863 340
L 865 337
L 867 342
L 869 340
L 871 347
L 873 343
L 874 348
L 876 329
L 878 344
L 880 344
L 882 342
L 884 344
L 886 342
L 888 341
L 890 348
L 892 342
L 894 348
L 896 339
L 898 347
L 900 344
L 902 347
L 904 347
L 905 342
L 907 346
L 909 343
L 911 346
L 913 349
L 915 349
L 917 348
L 919 348
L 921 348
L 923 348
L 925 349
L 927 349
L 929 349
L 931 349
L 933 349
L 935 351
L 937 350
L 938 351
L 940 351
L 942 348
L 944 349
L 946 350
L 948 350
L 950 350
L 952 351
L 954 350
L 956 351
L 958 351
L 960 351
L 962 351
L 964 350
L 966 351
L 968 351
L 969 351" style="stroke-width:1;stroke:rgba(0,217,101,1.0);fill:none"/><path  d="M 38 351
L 40 351
L 42 351
L 44 351
L 46 351
L 48 351
L 50 351
L 52 351
L 54 351
L 56 351
L 58 351
L 60 351
L 62 351
L 64 351
L 66 351
L 68 351
L 70 351
L 71 351
L 73 351
L 75 351
L 77 351
L 79 351
L 81 351
L 83 351
L 85 351
L 87 351
L 89 351
L 91 351
L 93 351
L 95 351
L 97 351
L 99 351
L 101 351
L 103 351
L 104 351
L 106 351
L 108 351
L 110 351
L 112 351
L 114 351
L 116 351
L 118 351
L 120 351
L 122 351
L 124 351
L 126 351
L 128 351
L 130 351
L 132 351
L 134 351
L 135 351
L 137 351
L 139 351
L 141 351
L 143 351
L 145 351
L 147 351
L 149 351
L 151 351
L 153 351
L 155 351
L 157 351
L 159 351
L 161 351
L 163 351
L 165 351
L 167 351
L 168 351
L 170 351
L 172 351
L 174 351
L 176 351
L 178 351
L 180 351
L 182 351
L 184 351
L 186 351
L 188 351
L 190 351
L 192 351
L 194 351
L 196 351
L 198 351
L 199 351
L 201 351
L 203 351
L 205 351
L 207 351
L 209 351
L 211 351
L 213 351
L 215 351
L 217 351
L 219 351
L 221 351
L 223 351
L 225 351
L 227 351
L 229 351
L 231 351
L 232 351
L 234 351
L 236 351
L 238 351
L 240 351
L 242 351
L 244 351
L 246 351
L 248 351
L 250 351
L 252 351
L 254 351
L 256 351
L 258 351
L 260 351
L 262 351
L 263 351
L 265 351
L 267 351
L 269 351
L 271 351
L 273 351
L 275 351
L 277 351
L 279 351
L 281 351
L 283 351
L 285 351
L 287 351
L 289 351
L 291 351
L 293 351
L 295 351
L 296 351
L 298 351
L 300 351
L 302 351
L 304 351
L 306 351
L 308 351
L 310 351
L 312 351
L 314 351
L 316 351
L 318 351
L 320 351
L 322 351
L 324 351
L 326 351
L 327 351
L 329 351
L 331 351
L 333 351
L 335 351
L 337 351
L 339 351
L 341 351
L 343 351
L 345 351
L 347 351
L 349 351
L 351 351
L 353 351
L 355 351
L 357 351
L 359 351
L 360 351
L 362 351
L 364 351
L 366 351
L 368 351
L 370 351
L 372 351
L 374 351
L 376 351
L 378 351
L 380 351
L 382 351
L 384 351
L 386 351
L 388 351
L 390 351
L 392 351
L 393 351
L 395 351
L 397 351
L 399 351
L 401 351
L 403 351
L 405 351
L 407 351
L 409 351
L 411 351
L 413 351
L 415 351
L 417 351
L 419 351
L 421 351
L 423 351
L 424 351
L 426 351
L 428 351
L 430 351
L 432 351
L 434 351
L 436 351
L 438 351
L 440 351
L 442 351
L 444 351
L 446 351
L 448 351
L 450 351
L 452 351
L 454 351
L 456 351
L 457 351
L 459 351
L 461 351
L 463 351
L 465 351
L 467 351
L 469 351
L 471 351
L 473 351
L 475 351
L 477 351
L 479 351
L 481 351
L 483 351
L 485 351
L 487 351
L 488 351
L 490 351
L 492 351
L 494 351
L 496 350
L 498 351
L 500 351
L 502 351
L 504 351
L 506 351
L 508 351
L 510 351
L 512 351
L 514 351
L 516 351
L 518 351
L 520 351
L 521 351
L 523 351
L 525 351
L 527 351
L 529 351
L 531 350
L 533 350
L 535 351
L 537 351
L 539 351
L 541 349
L 543 351
L 545 351
L 547 351
L 549 350
L 551 350
L 552 351
L 554 350
L 556 349
L 558 349
L 560 349
L 562 351
L 564 351
L 566 351
L 568 350
L 570 351
L 572 351
L 574 349
L 576 349
L 578 350
L 580 351
L 582 351
L 584 350
L 585 350
L 587 349
L 589 351
L 591 351
L 593 351
L 595 351
L 597 350
L 599 351
L 601 351
L 603 350
L 605 351
L 607 351
L 609 351
L 611 351
L 613 350
L 615 349
L 616 351
L 618 350
L 620 351
L 622 348
L 624 350
L 626 349
L 628 349
L 630 351
L 632 350
L 634 351
L 636 351
L 638 350
L 640 350
L 642 349
L 644 350
L 646 349
L 648 351
L 649 351
L 651 350
L 653 351
L 655 351
L 657 351
L 659 350
L 661 350
L 663 351
L 665 351
L 667 351
L 669 351
L 671 351
L 673 351
L 675 351
L 677 351
L 679 351
L 681 351
L 682 351
L 684 351
L 686 350
L 688 350
L 690 351
L 692 351
L 694 351
L 696 351
L 698 351
L 700 351
L 702 351
L 704 351
L 706 351
L 708 351
L 710 351
L 712 350
L 713 351
L 715 350
L 717 351
L 719 351
L 721 351
L 723 351
L 725 351
L 727 351
L 729 351
L 731 351
L 733 351
L 735 351
L 737 351
L 739 351
L 741 351
L 743 351
L 745 351
L 746 350
L 748 351
L 750 351
L 752 351
L 754 351
L 756 351
L 758 351
L 760 351
L 762 351
L 764 351
L 766 351
L 768 351
L 770 351
L 772 351
L 774 350
L 776 351
L 777 351
L 779 350
L 781 351
L 783 351
L 785 351
L 787 351
L 789 351
L 791 351
L 793 350
L 795 351
L 797 351
L 799 351
L 801 351
L 803 351
L 805 351
L 807 351
L 809 351
L 810 351
L 812 351
L 814 351
L 816 351
L 818 351
L 820 351
L 822 351
L 824 351
L 826 351
L 828 351
L 830 351
L 832 351
L 834 351
L 836 350
L 838 351
L 840 351
L 841 350
L 843 350
L 845 351
L 847 351
L 849 351
L 851 351
L 853 351
L 855 350
L 857 349
L 859 351
L 861 351
L 863 351
L 865 351
L 867 351
L 869 351
L 871 351
L 873 351
L 874 351
L 876 351
L 878 351
L 880 351
L 882 351
L 884 351
L 886 351
L 888 351
L 890 351
L 892 351
L 894 351
L 896 351
L 898 351
L 900 351
L 902 351
L 904 351
L 905 351
L 907 351
L 909 351
L 911 351
L 913 351
L 915 351
L 917 351
L 919 351
L 921 351
L 923 351
L 925 351
L 927 351
L 929 351
L 931 351
L 933 351
L 935 351
L 937 351
L 938 351
L 940 351
L 942 351
L 944 351
L 946 351
L 948 351
L 950 351
L 952 351
L 954 351
L 956 351
L 958 351
L 960 351
L 962 351
L 964 351
L 966 351
L 968 351
L 969 351" style="stroke-width:1;stroke:rgba(217,0,116,1.0);fill:none"/><text x="385" y="33" style="stroke-width:0;stroke:none;fill:rgba(51,51,51,1.0);font-size:23.0px;font-family:'Roboto Medium',sans-serif">Villach Stadt 20.06.2021</text><path  d="M 38 11
L 251 11
L 251 91
L 38 91
L 38 11" style="stroke-width:1;stroke:rgba(51,51,51,1.0);fill:rgba(255,255,255,1.0)"/><text x="43" y="26" style="stroke-width:0;stroke:none;fill:rgba(51,51,51,1.0);font-size:10.2px;font-family:'Roboto Medium',sans-serif">Sieben Tage Durschnitt Inzidenz Fälle</text><path  d="M 221 21
L 241 21" style="stroke-width:1;stroke:rgba(0,116,217,1.0);fill:none"/><text x="43" y="56" style="stroke-width:0;stroke:none;fill:rgba(51,51,51,1.0);font-size:10.2px;font-family:'Roboto Medium',sans-serif">Anzahl Faelle</text><path  d="M 110 51
L 241 51" style="stroke-width:1;stroke:rgba(0,217,101,1.0);fill:none"/><text x="43" y="86" style="stroke-width:0;stroke:none;fill:rgba(51,51,51,1.0);font-size:10.2px;font-family:'Roboto Medium',sans-serif">Anzahl Tot</text><path  d="M 98 81
L 241 81" style="stroke-width:1;stroke:rgba(217,0,116,1.0);fill:none"/></svg>