<svg xmlns="http://www.w3.org/2000/svg" xmlns:xlink="http://www.w3.org/1999/xlink" width="1024" height="400">\n<path  d="M 0 0
L 1024 0
L 1024 400
L 0 400
L 0 0" style="stroke-width:0;stroke:rgba(255,255,255,1.0);fill:rgba(255,255,255,1.0)"/><path  d="M 38 11
L 961 11
L 961 351
L 38 351
L 38 11" style="stroke-width:0;stroke:rgba(255,255,255,1.0);fill:rgba(255,255,255,1.0)"/><path  d="M 38 351
L 961 351" style="stroke-width:1;stroke:rgba(51,51,51,1.0);fill:none"/><path  d="M 38 351
L 38 356" style="stroke-width:1;stroke:rgba(51,51,51,1.0);fill:none"/><text x="5" y="373" style="stroke-width:0;stroke:none;fill:rgba(51,51,51,1.0);font-size:12.8px;font-family:'Roboto Medium',sans-serif">2020-02-26</text><path  d="M 154 351
L 154 356" style="stroke-width:1;stroke:rgba(51,51,51,1.0);fill:none"/><text x="121" y="373" style="stroke-width:0;stroke:none;fill:rgba(51,51,51,1.0);font-size:12.8px;font-family:'Roboto Medium',sans-serif">2020-07-01</text><path  d="M 269 351
L 269 356" style="stroke-width:1;stroke:rgba(51,51,51,1.0);fill:none"/><text x="236" y="373" style="stroke-width:0;stroke:none;fill:rgba(51,51,51,1.0);font-size:12.8px;font-family:'Roboto Medium',sans-serif">2020-11-05</text><path  d="M 385 351
L 385 356" style="stroke-width:1;stroke:rgba(51,51,51,1.0);fill:none"/><text x="352" y="373" style="stroke-width:0;stroke:none;fill:rgba(51,51,51,1.0);font-size:12.8px;font-family:'Roboto Medium',sans-serif">2021-03-11</text><path  d="M 500 351
L 500 356" style="stroke-width:1;stroke:rgba(51,51,51,1.0);fill:none"/><text x="467" y="373" style="stroke-width:0;stroke:none;fill:rgba(51,51,51,1.0);font-size:12.8px;font-family:'Roboto Medium',sans-serif">2021-07-16</text><path  d="M 615 351
L 615 356" style="stroke-width:1;stroke:rgba(51,51,51,1.0);fill:none"/><text x="582" y="373" style="stroke-width:0;stroke:none;fill:rgba(51,51,51,1.0);font-size:12.8px;font-family:'Roboto Medium',sans-serif">2021-11-19</text><path  d="M 731 351
L 731 356" style="stroke-width:1;stroke:rgba(51,51,51,1.0);fill:none"/><text x="698" y="373" style="stroke-width:0;stroke:none;fill:rgba(51,51,51,1.0);font-size:12.8px;font-family:'Roboto Medium',sans-serif">2022-03-26</text><path  d="M 846 351
L 846 356" style="stroke-width:1;stroke:rgba(51,51,51,1.0);fill:none"/><text x="813" y="373" style="stroke-width:0;stroke:none;fill:rgba(51,51,51,1.0);font-size:12.8px;font-family:'Roboto Medium',sans-serif">2022-07-30</text><path  d="M 961 351
L 961 356" style="stroke-width:1;stroke:rgba(51,51,51,1.0);fill:none"/><text x="928" y="373" style="stroke-width:0;stroke:none;fill:rgba(51,51,51,1.0);font-size:12.8px;font-family:'Roboto Medium',sans-serif">2022-12-04</text><text x="481" y="395" style="stroke-width:0;stroke:none;fill:rgba(51,51,51,1.0);font-size:12.8px;font-family:'Roboto Medium',sans-serif">Datum</text><path  d="M 962 351
L 962 11" style="stroke-width:1;stroke:rgba(51,51,51,1.0);fill:none"/><path  d="M 962 351
L 967 351" style="stroke-width:1;stroke:rgba(51,51,51,1.0);fill:none"/><text x="972" y="357" style="stroke-width:0;stroke:none;fill:rgba(51,51,51,1.0);font-size:12.8px;font-family:'Roboto Medium',sans-serif">0.00</text><path  d="M 962 308
L 967 308" style="stroke-width:1;stroke:rgba(51,51,51,1.0);fill:none"/><text x="972" y="314" style="stroke-width:0;stroke:none;fill:rgba(51,51,51,1.0);font-size:12.8px;font-family:'Roboto Medium',sans-serif">390.00</text><path  d="M 962 265
L 967 265" style="stroke-width:1;stroke:rgba(51,51,51,1.0);fill:none"/><text x="972" y="271" style="stroke-width:0;stroke:none;fill:rgba(51,51,51,1.0);font-size:12.8px;font-family:'Roboto Medium',sans-serif">780.00</text><path  d="M 962 222
L 967 222" style="stroke-width:1;stroke:rgba(51,51,51,1.0);fill:none"/><text x="972" y="228" style="stroke-width:0;stroke:none;fill:rgba(51,51,51,1.0);font-size:12.8px;font-family:'Roboto Medium',sans-serif">1170.00</text><path  d="M 962 181
L 967 181" style="stroke-width:1;stroke:rgba(51,51,51,1.0);fill:none"/><text x="972" y="187" style="stroke-width:0;stroke:none;fill:rgba(51,51,51,1.0);font-size:12.8px;font-family:'Roboto Medium',sans-serif">1550.00</text><path  d="M 962 138
L 967 138" style="stroke-width:1;stroke:rgba(51,51,51,1.0);fill:none"/><text x="972" y="144" style="stroke-width:0;stroke:none;fill:rgba(51,51,51,1.0);font-size:12.8px;font-family:'Roboto Medium',sans-serif">1940.00</text><path  d="M 962 95
L 967 95" style="stroke-width:1;stroke:rgba(51,51,51,1.0);fill:none"/><text x="972" y="101" style="stroke-width:0;stroke:none;fill:rgba(51,51,51,1.0);font-size:12.8px;font-family:'Roboto Medium',sans-serif">2330.00</text><path  d="M 962 52
L 967 52" style="stroke-width:1;stroke:rgba(51,51,51,1.0);fill:none"/><text x="972" y="58" style="stroke-width:0;stroke:none;fill:rgba(51,51,51,1.0);font-size:12.8px;font-family:'Roboto Medium',sans-serif">2720.00</text><path  d="M 962 11
L 967 11" style="stroke-width:1;stroke:rgba(51,51,51,1.0);fill:none"/><text x="972" y="17" style="stroke-width:0;stroke:none;fill:rgba(51,51,51,1.0);font-size:12.8px;font-family:'Roboto Medium',sans-serif">3100.00</text><path  d="M 38 351
L 39 351
L 40 351
L 41 351
L 42 351
L 43 351
L 44 351
L 45 351
L 46 351
L 47 351
L 48 351
L 49 351
L 49 351
L 50 351
L 51 351
L 52 351
L 53 351
L 54 350
L 55 350
L 56 350
L 57 350
L 58 350
L 59 350
L 59 350
L 60 351
L 61 351
L 62 351
L 63 350
L 64 350
L 65 350
L 66 350
L 67 350
L 68 350
L 69 349
L 70 350
L 70 350
L 71 349
L 72 350
L 73 350
L 74 350
L 75 350
L 76 350
L 77 350
L 78 350
L 79 350
L 80 350
L 80 350
L 81 350
L 82 350
L 83 350
L 84 350
L 85 350
L 86 350
L 87 351
L 88 351
L 89 351
L 90 351
L 90 351
L 91 351
L 92 351
L 93 351
L 94 351
L 95 351
L 96 351
L 97 351
L 98 351
L 99 351
L 100 351
L 101 351
L 101 350
L 102 350
L 103 350
L 104 350
L 105 350
L 106 350
L 107 350
L 108 351
L 109 351
L 110 351
L 111 351
L 111 351
L 112 351
L 113 351
L 114 351
L 115 351
L 116 351
L 117 351
L 118 351
L 119 350
L 120 350
L 121 350
L 121 350
L 122 350
L 123 350
L 124 350
L 125 350
L 126 350
L 127 351
L 128 351
L 129 351
L 130 351
L 131 351
L 132 351
L 132 351
L 133 351
L 134 351
L 135 351
L 136 351
L 137 351
L 138 351
L 139 351
L 140 351
L 141 351
L 142 351
L 142 351
L 143 351
L 144 351
L 145 351
L 146 351
L 147 351
L 148 351
L 149 351
L 150 351
L 151 351
L 152 351
L 153 351
L 153 351
L 154 351
L 155 351
L 156 351
L 157 351
L 158 351
L 159 351
L 160 351
L 161 351
L 162 351
L 163 351
L 163 351
L 164 351
L 165 351
L 166 351
L 167 351
L 168 351
L 169 351
L 170 351
L 171 350
L 172 350
L 173 350
L 173 350
L 174 350
L 175 350
L 176 350
L 177 351
L 178 351
L 179 351
L 180 350
L 181 350
L 182 350
L 183 350
L 184 350
L 184 350
L 185 349
L 186 350
L 187 349
L 188 349
L 189 349
L 190 349
L 191 349
L 192 350
L 193 349
L 194 349
L 194 349
L 195 349
L 196 349
L 197 349
L 198 349
L 199 349
L 200 349
L 201 349
L 202 349
L 203 349
L 204 349
L 204 349
L 205 349
L 206 349
L 207 350
L 208 350
L 209 350
L 210 350
L 211 350
L 212 350
L 213 350
L 214 350
L 215 350
L 215 350
L 216 350
L 217 350
L 218 349
L 219 350
L 220 349
L 221 349
L 222 349
L 223 349
L 224 348
L 225 348
L 225 348
L 226 347
L 227 347
L 228 347
L 229 347
L 230 347
L 231 347
L 232 347
L 233 348
L 234 348
L 235 348
L 236 348
L 236 349
L 237 349
L 238 349
L 239 349
L 240 349
L 241 349
L 242 349
L 243 348
L 244 348
L 245 347
L 246 347
L 246 347
L 247 347
L 248 347
L 249 347
L 250 347
L 251 347
L 252 347
L 253 346
L 254 346
L 255 345
L 256 345
L 256 342
L 257 342
L 258 341
L 259 342
L 260 341
L 261 341
L 262 337
L 263 337
L 264 335
L 265 333
L 266 332
L 267 326
L 267 324
L 268 319
L 269 317
L 270 303
L 271 302
L 272 301
L 273 304
L 274 301
L 275 304
L 276 297
L 277 305
L 277 305
L 278 303
L 279 299
L 280 296
L 281 285
L 282 292
L 283 296
L 284 294
L 285 296
L 286 303
L 287 304
L 287 319
L 288 319
L 289 316
L 290 320
L 291 319
L 292 319
L 293 323
L 294 322
L 295 323
L 296 327
L 297 329
L 298 328
L 298 326
L 299 327
L 300 327
L 301 328
L 302 327
L 303 323
L 304 323
L 305 323
L 306 323
L 307 324
L 308 324
L 308 325
L 309 322
L 310 319
L 311 320
L 312 319
L 313 317
L 314 320
L 315 322
L 316 328
L 317 334
L 318 334
L 319 334
L 319 335
L 320 335
L 321 334
L 322 334
L 323 334
L 324 335
L 325 337
L 326 338
L 327 337
L 328 338
L 329 339
L 329 339
L 330 340
L 331 340
L 332 341
L 333 342
L 334 343
L 335 343
L 336 343
L 337 343
L 338 343
L 339 344
L 339 344
L 340 345
L 341 346
L 342 346
L 343 345
L 344 344
L 345 343
L 346 341
L 347 340
L 348 339
L 349 338
L 350 338
L 350 338
L 351 339
L 352 339
L 353 340
L 354 340
L 355 340
L 356 340
L 357 339
L 358 340
L 359 339
L 360 339
L 360 340
L 361 341
L 362 341
L 363 341
L 364 339
L 365 340
L 366 338
L 367 337
L 368 336
L 369 337
L 370 336
L 370 336
L 371 335
L 372 335
L 373 337
L 374 337
L 375 336
L 376 335
L 377 336
L 378 336
L 379 336
L 380 335
L 381 334
L 381 332
L 382 332
L 383 331
L 384 330
L 385 329
L 386 329
L 387 328
L 388 330
L 389 334
L 390 334
L 391 335
L 391 332
L 392 332
L 393 332
L 394 330
L 395 328
L 396 326
L 397 326
L 398 329
L 399 330
L 400 328
L 401 329
L 401 330
L 402 329
L 403 328
L 404 327
L 405 323
L 406 325
L 407 326
L 408 325
L 409 330
L 410 331
L 411 329
L 412 333
L 412 332
L 413 331
L 414 331
L 415 328
L 416 328
L 417 332
L 418 331
L 419 333
L 420 334
L 421 334
L 422 335
L 422 336
L 423 334
L 424 333
L 425 333
L 426 331
L 427 330
L 428 330
L 429 328
L 430 331
L 431 332
L 432 333
L 433 330
L 433 332
L 434 332
L 435 333
L 436 332
L 437 332
L 438 330
L 439 335
L 440 335
L 441 335
L 442 334
L 443 335
L 443 336
L 444 338
L 445 338
L 446 339
L 447 338
L 448 340
L 449 339
L 450 340
L 451 341
L 452 341
L 453 343
L 453 344
L 454 345
L 455 346
L 456 347
L 457 347
L 458 347
L 459 347
L 460 348
L 461 348
L 462 349
L 463 349
L 464 349
L 464 349
L 465 349
L 466 349
L 467 349
L 468 349
L 469 349
L 470 349
L 471 350
L 472 350
L 473 350
L 474 350
L 474 350
L 475 350
L 476 350
L 477 350
L 478 350
L 479 350
L 480 351
L 481 351
L 482 351
L 483 351
L 484 351
L 484 351
L 485 351
L 486 351
L 487 351
L 488 351
L 489 351
L 490 351
L 491 351
L 492 351
L 493 351
L 494 351
L 495 351
L 495 351
L 496 350
L 497 350
L 498 350
L 499 350
L 500 349
L 501 349
L 502 349
L 503 349
L 504 349
L 505 349
L 505 349
L 506 348
L 507 349
L 508 348
L 509 348
L 510 348
L 511 347
L 512 348
L 513 348
L 514 347
L 515 347
L 516 347
L 516 347
L 517 347
L 518 346
L 519 345
L 520 345
L 521 346
L 522 345
L 523 345
L 524 346
L 525 346
L 526 346
L 526 345
L 527 345
L 528 344
L 529 343
L 530 343
L 531 343
L 532 343
L 533 344
L 534 344
L 535 345
L 536 346
L 536 347
L 537 346
L 538 345
L 539 344
L 540 343
L 541 342
L 542 339
L 543 337
L 544 335
L 545 336
L 546 336
L 547 335
L 547 336
L 548 338
L 549 339
L 550 341
L 551 341
L 552 341
L 553 340
L 554 340
L 555 339
L 556 336
L 557 333
L 557 333
L 558 334
L 559 335
L 560 335
L 561 337
L 562 340
L 563 341
L 564 341
L 565 341
L 566 341
L 567 339
L 567 338
L 568 337
L 569 335
L 570 336
L 571 336
L 572 335
L 573 336
L 574 336
L 575 337
L 576 338
L 577 336
L 578 335
L 578 335
L 579 335
L 580 335
L 581 334
L 582 333
L 583 333
L 584 332
L 585 332
L 586 332
L 587 332
L 588 330
L 588 329
L 589 328
L 590 325
L 591 323
L 592 321
L 593 316
L 594 317
L 595 315
L 596 311
L 597 307
L 598 305
L 599 300
L 599 298
L 600 290
L 601 283
L 602 275
L 603 270
L 604 264
L 605 262
L 606 252
L 607 238
L 608 232
L 609 229
L 609 232
L 610 229
L 611 224
L 612 221
L 613 219
L 614 207
L 615 194
L 616 181
L 617 187
L 618 189
L 619 191
L 619 193
L 620 202
L 621 207
L 622 210
L 623 206
L 624 206
L 625 207
L 626 219
L 627 231
L 628 249
L 629 265
L 630 273
L 630 283
L 631 292
L 632 298
L 633 309
L 634 310
L 635 310
L 636 309
L 637 312
L 638 314
L 639 316
L 640 315
L 640 320
L 641 323
L 642 327
L 643 327
L 644 332
L 645 334
L 646 334
L 647 334
L 648 334
L 649 334
L 650 335
L 650 334
L 651 335
L 652 334
L 653 335
L 654 336
L 655 336
L 656 332
L 657 326
L 658 318
L 659 312
L 660 308
L 661 301
L 661 289
L 662 282
L 663 276
L 664 272
L 665 266
L 666 259
L 667 259
L 668 258
L 669 249
L 670 248
L 671 239
L 671 231
L 672 207
L 673 194
L 674 186
L 675 178
L 676 147
L 677 130
L 678 103
L 679 98
L 680 94
L 681 81
L 681 67
L 682 78
L 683 75
L 684 83
L 685 69
L 686 60
L 687 57
L 688 59
L 689 39
L 690 26
L 691 19
L 692 44
L 692 57
L 693 75
L 694 81
L 695 110
L 696 135
L 697 156
L 698 164
L 699 171
L 700 172
L 701 176
L 702 165
L 702 161
L 703 164
L 704 163
L 705 165
L 706 161
L 707 165
L 708 176
L 709 180
L 710 183
L 711 178
L 712 178
L 713 182
L 713 180
L 714 165
L 715 151
L 716 136
L 717 126
L 718 121
L 719 113
L 720 93
L 721 80
L 722 71
L 723 67
L 723 46
L 724 33
L 725 23
L 726 26
L 727 40
L 728 50
L 729 53
L 730 92
L 731 105
L 732 114
L 733 129
L 733 139
L 734 151
L 735 174
L 736 178
L 737 186
L 738 199
L 739 216
L 740 229
L 741 244
L 742 252
L 743 262
L 744 265
L 744 270
L 745 277
L 746 289
L 747 295
L 748 296
L 749 300
L 750 301
L 751 309
L 752 308
L 753 309
L 754 306
L 754 306
L 755 304
L 756 307
L 757 304
L 758 307
L 759 310
L 760 315
L 761 317
L 762 322
L 763 323
L 764 324
L 764 327
L 765 327
L 766 328
L 767 328
L 768 327
L 769 328
L 770 328
L 771 329
L 772 329
L 773 330
L 774 330
L 775 331
L 775 331
L 776 331
L 777 330
L 778 331
L 779 332
L 780 334
L 781 333
L 782 333
L 783 334
L 784 335
L 785 336
L 785 336
L 786 338
L 787 338
L 788 339
L 789 339
L 790 340
L 791 340
L 792 340
L 793 339
L 794 340
L 795 341
L 796 341
L 796 341
L 797 341
L 798 340
L 799 339
L 800 339
L 801 338
L 802 337
L 803 336
L 804 335
L 805 335
L 806 334
L 806 333
L 807 332
L 808 330
L 809 328
L 810 324
L 811 320
L 812 317
L 813 315
L 814 314
L 815 313
L 816 309
L 816 308
L 817 308
L 818 303
L 819 300
L 820 300
L 821 298
L 822 296
L 823 293
L 824 291
L 825 293
L 826 295
L 827 294
L 827 291
L 828 290
L 829 290
L 830 290
L 831 290
L 832 284
L 833 283
L 834 284
L 835 284
L 836 278
L 837 275
L 837 269
L 838 273
L 839 274
L 840 274
L 841 274
L 842 278
L 843 281
L 844 287
L 845 287
L 846 291
L 847 293
L 847 298
L 848 302
L 849 305
L 850 308
L 851 310
L 852 307
L 853 310
L 854 303
L 855 297
L 856 291
L 857 281
L 858 274
L 858 273
L 859 269
L 860 275
L 861 276
L 862 276
L 863 281
L 864 285
L 865 287
L 866 289
L 867 287
L 868 293
L 868 300
L 869 305
L 870 310
L 871 312
L 872 313
L 873 317
L 874 322
L 875 324
L 876 325
L 877 326
L 878 326
L 879 327
L 879 327
L 880 327
L 881 327
L 882 328
L 883 328
L 884 329
L 885 329
L 886 327
L 887 326
L 888 326
L 889 324
L 889 321
L 890 319
L 891 315
L 892 312
L 893 309
L 894 304
L 895 301
L 896 297
L 897 296
L 898 291
L 899 281
L 899 265
L 900 258
L 901 249
L 902 243
L 903 241
L 904 235
L 905 233
L 906 232
L 907 228
L 908 229
L 909 230
L 910 231
L 910 234
L 911 230
L 912 238
L 913 238
L 914 242
L 915 247
L 916 244
L 917 247
L 918 264
L 919 262
L 920 266
L 920 267
L 921 268
L 922 273
L 923 275
L 924 274
L 925 283
L 926 295
L 927 297
L 928 300
L 929 302
L 930 308
L 930 310
L 931 315
L 932 313
L 933 319
L 934 321
L 935 321
L 936 324
L 937 324
L 938 324
L 939 326
L 940 323
L 941 324
L 941 325
L 942 325
L 943 324
L 944 325
L 945 325
L 946 326
L 947 327
L 948 328
L 949 329
L 950 327
L 951 324
L 951 323
L 952 324
L 953 321
L 954 321
L 955 318
L 956 320
L 957 321
L 958 314
L 959 312
L 960 312
L 961 311
L 961 312" style="stroke-width:1;stroke:rgba(0,116,217,1.0);fill:none"/><path  d="M 38 351
L 39 351
L 40 351
L 41 351
L 42 351
L 43 351
L 44 351
L 45 351
L 46 351
L 47 351
L 48 351
L 49 351
L 49 351
L 50 351
L 51 351
L 52 351
L 53 351
L 54 350
L 55 351
L 56 351
L 57 351
L 58 351
L 59 351
L 59 351
L 60 351
L 61 351
L 62 351
L 63 350
L 64 351
L 65 350
L 66 350
L 67 351
L 68 351
L 69 350
L 70 351
L 70 351
L 71 350
L 72 351
L 73 351
L 74 350
L 75 351
L 76 351
L 77 351
L 78 351
L 79 351
L 80 351
L 80 350
L 81 351
L 82 351
L 83 351
L 84 351
L 85 351
L 86 351
L 87 351
L 88 351
L 89 351
L 90 351
L 90 351
L 91 351
L 92 351
L 93 351
L 94 351
L 95 351
L 96 351
L 97 351
L 98 351
L 99 351
L 100 351
L 101 351
L 101 350
L 102 351
L 103 351
L 104 351
L 105 351
L 106 351
L 107 351
L 108 351
L 109 351
L 110 351
L 111 351
L 111 351
L 112 351
L 113 351
L 114 351
L 115 351
L 116 351
L 117 351
L 118 351
L 119 350
L 120 350
L 121 350
L 121 351
L 122 351
L 123 351
L 124 351
L 125 351
L 126 351
L 127 351
L 128 351
L 129 351
L 130 351
L 131 351
L 132 351
L 132 351
L 133 351
L 134 351
L 135 351
L 136 351
L 137 351
L 138 351
L 139 351
L 140 351
L 141 351
L 142 351
L 142 351
L 143 351
L 144 351
L 145 351
L 146 351
L 147 351
L 148 351
L 149 351
L 150 351
L 151 351
L 152 351
L 153 351
L 153 351
L 154 351
L 155 351
L 156 351
L 157 351
L 158 351
L 159 351
L 160 351
L 161 351
L 162 351
L 163 351
L 163 351
L 164 351
L 165 351
L 166 351
L 167 351
L 168 351
L 169 351
L 170 351
L 171 350
L 172 351
L 173 351
L 173 351
L 174 351
L 175 351
L 176 351
L 177 351
L 178 351
L 179 351
L 180 350
L 181 351
L 182 351
L 183 350
L 184 350
L 184 351
L 185 350
L 186 351
L 187 350
L 188 351
L 189 351
L 190 351
L 191 350
L 192 350
L 193 350
L 194 350
L 194 351
L 195 350
L 196 350
L 197 350
L 198 350
L 199 350
L 200 350
L 201 350
L 202 351
L 203 351
L 204 350
L 204 350
L 205 351
L 206 350
L 207 351
L 208 351
L 209 351
L 210 351
L 211 350
L 212 351
L 213 350
L 214 351
L 215 351
L 215 350
L 216 350
L 217 351
L 218 350
L 219 351
L 220 350
L 221 350
L 222 350
L 223 350
L 224 350
L 225 350
L 225 350
L 226 350
L 227 350
L 228 350
L 229 350
L 230 350
L 231 350
L 232 350
L 233 351
L 234 351
L 235 350
L 236 350
L 236 351
L 237 350
L 238 350
L 239 351
L 240 350
L 241 350
L 242 350
L 243 350
L 244 350
L 245 350
L 246 350
L 246 351
L 247 350
L 248 350
L 249 350
L 250 350
L 251 350
L 252 350
L 253 350
L 254 350
L 255 350
L 256 350
L 256 348
L 257 350
L 258 350
L 259 350
L 260 350
L 261 350
L 262 347
L 263 348
L 264 349
L 265 348
L 266 349
L 267 346
L 267 348
L 268 344
L 269 347
L 270 340
L 271 348
L 272 349
L 273 348
L 274 346
L 275 346
L 276 343
L 277 345
L 277 347
L 278 348
L 279 345
L 280 345
L 281 339
L 282 347
L 283 348
L 284 346
L 285 350
L 286 349
L 287 346
L 287 349
L 288 346
L 289 346
L 290 348
L 291 349
L 292 349
L 293 348
L 294 348
L 295 347
L 296 349
L 297 349
L 298 349
L 298 348
L 299 349
L 300 348
L 301 348
L 302 348
L 303 347
L 304 349
L 305 347
L 306 349
L 307 349
L 308 348
L 308 349
L 309 346
L 310 346
L 311 348
L 312 348
L 313 348
L 314 350
L 315 350
L 316 350
L 317 350
L 318 348
L 319 349
L 319 349
L 320 349
L 321 349
L 322 350
L 323 350
L 324 349
L 325 350
L 326 349
L 327 349
L 328 349
L 329 350
L 329 350
L 330 350
L 331 350
L 332 349
L 333 350
L 334 350
L 335 350
L 336 350
L 337 350
L 338 350
L 339 350
L 339 350
L 340 350
L 341 350
L 342 350
L 343 349
L 344 349
L 345 349
L 346 349
L 347 349
L 348 349
L 349 350
L 350 349
L 350 349
L 351 350
L 352 350
L 353 350
L 354 350
L 355 350
L 356 349
L 357 349
L 358 350
L 359 349
L 360 350
L 360 350
L 361 350
L 362 349
L 363 349
L 364 349
L 365 350
L 366 349
L 367 349
L 368 350
L 369 349
L 370 349
L 370 349
L 371 349
L 372 349
L 373 350
L 374 350
L 375 349
L 376 348
L 377 349
L 378 349
L 379 349
L 380 349
L 381 350
L 381 347
L 382 348
L 383 348
L 384 348
L 385 349
L 386 349
L 387 349
L 388 349
L 389 350
L 390 348
L 391 349
L 391 347
L 392 349
L 393 349
L 394 348
L 395 349
L 396 347
L 397 349
L 398 348
L 399 349
L 400 348
L 401 349
L 401 349
L 402 347
L 403 348
L 404 348
L 405 347
L 406 349
L 407 350
L 408 349
L 409 350
L 410 349
L 411 347
L 412 350
L 412 349
L 413 349
L 414 349
L 415 348
L 416 349
L 417 349
L 418 349
L 419 350
L 420 350
L 421 348
L 422 349
L 422 349
L 423 348
L 424 349
L 425 349
L 426 348
L 427 348
L 428 349
L 429 349
L 430 350
L 431 349
L 432 350
L 433 346
L 433 349
L 434 349
L 435 349
L 436 349
L 437 349
L 438 349
L 439 350
L 440 349
L 441 350
L 442 348
L 443 350
L 443 350
L 444 350
L 445 350
L 446 349
L 447 350
L 448 349
L 449 350
L 450 350
L 451 350
L 452 350
L 453 350
L 453 350
L 454 350
L 455 350
L 456 350
L 457 350
L 458 350
L 459 350
L 460 350
L 461 350
L 462 351
L 463 351
L 464 350
L 464 350
L 465 350
L 466 350
L 467 350
L 468 351
L 469 350
L 470 351
L 471 351
L 472 351
L 473 350
L 474 350
L 474 351
L 475 351
L 476 351
L 477 351
L 478 351
L 479 351
L 480 351
L 481 351
L 482 351
L 483 351
L 484 351
L 484 351
L 485 351
L 486 351
L 487 351
L 488 351
L 489 351
L 490 351
L 491 351
L 492 351
L 493 351
L 494 351
L 495 351
L 495 351
L 496 350
L 497 350
L 498 350
L 499 350
L 500 350
L 501 350
L 502 350
L 503 350
L 504 350
L 505 351
L 505 350
L 506 350
L 507 351
L 508 350
L 509 350
L 510 350
L 511 350
L 512 350
L 513 350
L 514 350
L 515 350
L 516 350
L 516 350
L 517 350
L 518 350
L 519 350
L 520 350
L 521 350
L 522 350
L 523 350
L 524 350
L 525 350
L 526 350
L 526 350
L 527 350
L 528 350
L 529 349
L 530 350
L 531 350
L 532 350
L 533 350
L 534 350
L 535 350
L 536 350
L 536 350
L 537 350
L 538 349
L 539 350
L 540 350
L 541 350
L 542 348
L 543 349
L 544 349
L 545 349
L 546 350
L 547 350
L 547 350
L 548 349
L 549 350
L 550 350
L 551 349
L 552 349
L 553 349
L 554 350
L 555 349
L 556 348
L 557 349
L 557 349
L 558 350
L 559 350
L 560 350
L 561 350
L 562 349
L 563 350
L 564 349
L 565 350
L 566 350
L 567 349
L 567 349
L 568 349
L 569 349
L 570 350
L 571 350
L 572 350
L 573 349
L 574 349
L 575 349
L 576 349
L 577 349
L 578 349
L 578 350
L 579 349
L 580 349
L 581 349
L 582 348
L 583 349
L 584 349
L 585 349
L 586 349
L 587 348
L 588 348
L 588 347
L 589 348
L 590 347
L 591 348
L 592 348
L 593 346
L 594 349
L 595 346
L 596 345
L 597 344
L 598 347
L 599 344
L 599 345
L 600 343
L 601 341
L 602 340
L 603 341
L 604 343
L 605 343
L 606 339
L 607 335
L 608 337
L 609 338
L 609 343
L 610 342
L 611 340
L 612 336
L 613 333
L 614 330
L 615 330
L 616 334
L 617 345
L 618 341
L 619 338
L 619 335
L 620 335
L 621 333
L 622 336
L 623 343
L 624 341
L 625 339
L 626 342
L 627 343
L 628 344
L 629 347
L 630 348
L 630 347
L 631 345
L 632 346
L 633 350
L 634 345
L 635 347
L 636 347
L 637 349
L 638 346
L 639 347
L 640 349
L 640 348
L 641 349
L 642 349
L 643 349
L 644 349
L 645 349
L 646 349
L 647 348
L 648 349
L 649 349
L 650 350
L 650 348
L 651 350
L 652 348
L 653 349
L 654 350
L 655 350
L 656 347
L 657 344
L 658 344
L 659 344
L 660 347
L 661 345
L 661 342
L 662 342
L 663 341
L 664 342
L 665 340
L 666 342
L 667 345
L 668 342
L 669 336
L 670 340
L 671 337
L 671 334
L 672 327
L 673 337
L 674 336
L 675 332
L 676 320
L 677 326
L 678 318
L 679 324
L 680 334
L 681 328
L 681 323
L 682 327
L 683 324
L 684 323
L 685 315
L 686 328
L 687 326
L 688 324
L 689 314
L 690 316
L 691 318
L 692 331
L 692 337
L 693 337
L 694 328
L 695 332
L 696 332
L 697 332
L 698 336
L 699 341
L 700 338
L 701 330
L 702 325
L 702 329
L 703 334
L 704 335
L 705 342
L 706 336
L 707 333
L 708 332
L 709 332
L 710 336
L 711 332
L 712 342
L 713 339
L 713 332
L 714 322
L 715 324
L 716 326
L 717 326
L 718 339
L 719 333
L 720 319
L 721 314
L 722 318
L 723 323
L 723 312
L 724 331
L 725 327
L 726 321
L 727 323
L 728 325
L 729 326
L 730 336
L 731 339
L 732 334
L 733 330
L 733 329
L 734 333
L 735 340
L 736 338
L 737 345
L 738 342
L 739 340
L 740 338
L 741 342
L 742 346
L 743 345
L 744 347
L 744 345
L 745 345
L 746 345
L 747 346
L 748 346
L 749 347
L 750 347
L 751 350
L 752 344
L 753 346
L 754 344
L 754 347
L 755 346
L 756 349
L 757 348
L 758 346
L 759 348
L 760 347
L 761 348
L 762 349
L 763 350
L 764 349
L 764 348
L 765 348
L 766 348
L 767 348
L 768 348
L 769 350
L 770 349
L 771 348
L 772 348
L 773 349
L 774 348
L 775 349
L 775 350
L 776 349
L 777 348
L 778 349
L 779 350
L 780 349
L 781 349
L 782 349
L 783 349
L 784 349
L 785 350
L 785 349
L 786 350
L 787 349
L 788 350
L 789 350
L 790 350
L 791 350
L 792 349
L 793 350
L 794 349
L 795 350
L 796 350
L 796 350
L 797 349
L 798 349
L 799 349
L 800 349
L 801 350
L 802 349
L 803 349
L 804 349
L 805 349
L 806 348
L 806 349
L 807 349
L 808 348
L 809 348
L 810 346
L 811 346
L 812 347
L 813 347
L 814 349
L 815 348
L 816 345
L 816 345
L 817 346
L 818 344
L 819 345
L 820 348
L 821 346
L 822 344
L 823 343
L 824 345
L 825 345
L 826 347
L 827 347
L 827 344
L 828 343
L 829 344
L 830 345
L 831 345
L 832 343
L 833 346
L 834 345
L 835 343
L 836 340
L 837 343
L 837 341
L 838 346
L 839 347
L 840 345
L 841 343
L 842 343
L 843 344
L 844 345
L 845 346
L 846 350
L 847 346
L 847 347
L 848 345
L 849 346
L 850 347
L 851 347
L 852 348
L 853 348
L 854 342
L 855 341
L 856 343
L 857 340
L 858 343
L 858 347
L 859 345
L 860 346
L 861 342
L 862 343
L 863 344
L 864 345
L 865 348
L 866 347
L 867 345
L 868 346
L 868 347
L 869 347
L 870 348
L 871 349
L 872 348
L 873 347
L 874 349
L 875 348
L 876 348
L 877 349
L 878 349
L 879 349
L 879 348
L 880 349
L 881 348
L 882 349
L 883 348
L 884 349
L 885 349
L 886 347
L 887 348
L 888 348
L 889 347
L 889 346
L 890 348
L 891 346
L 892 345
L 893 346
L 894 345
L 895 346
L 896 344
L 897 347
L 898 343
L 899 338
L 899 336
L 900 340
L 901 340
L 902 340
L 903 346
L 904 339
L 905 337
L 906 335
L 907 338
L 908 341
L 909 340
L 910 347
L 910 341
L 911 335
L 912 340
L 913 338
L 914 343
L 915 344
L 916 344
L 917 343
L 918 346
L 919 339
L 920 340
L 920 343
L 921 344
L 922 348
L 923 344
L 924 345
L 925 345
L 926 348
L 927 345
L 928 346
L 929 349
L 930 347
L 930 347
L 931 348
L 932 347
L 933 348
L 934 348
L 935 349
L 936 349
L 937 347
L 938 348
L 939 348
L 940 347
L 941 348
L 941 350
L 942 349
L 943 347
L 944 348
L 945 348
L 946 348
L 947 349
L 948 350
L 949 349
L 950 345
L 951 347
L 951 348
L 952 348
L 953 347
L 954 350
L 955 348
L 956 347
L 957 348
L 958 343
L 959 347
L 960 347
L 961 350
L 961 348" style="stroke-width:1;stroke:rgba(0,217,101,1.0);fill:none"/><path  d="M 38 351
L 39 351
L 40 351
L 41 351
L 42 351
L 43 351
L 44 351
L 45 351
L 46 351
L 47 351
L 48 351
L 49 351
L 49 351
L 50 351
L 51 351
L 52 351
L 53 351
L 54 351
L 55 351
L 56 351
L 57 351
L 58 351
L 59 351
L 59 351
L 60 351
L 61 351
L 62 351
L 63 351
L 64 351
L 65 351
L 66 351
L 67 351
L 68 351
L 69 351
L 70 351
L 70 351
L 71 351
L 72 351
L 73 351
L 74 351
L 75 351
L 76 351
L 77 351
L 78 351
L 79 351
L 80 351
L 80 351
L 81 351
L 82 351
L 83 351
L 84 351
L 85 351
L 86 351
L 87 351
L 88 351
L 89 351
L 90 351
L 90 351
L 91 351
L 92 351
L 93 351
L 94 351
L 95 351
L 96 351
L 97 351
L 98 351
L 99 351
L 100 351
L 101 351
L 101 351
L 102 351
L 103 351
L 104 351
L 105 351
L 106 351
L 107 351
L 108 351
L 109 351
L 110 351
L 111 351
L 111 351
L 112 351
L 113 351
L 114 351
L 115 351
L 116 351
L 117 351
L 118 351
L 119 351
L 120 351
L 121 351
L 121 351
L 122 351
L 123 351
L 124 351
L 125 351
L 126 351
L 127 351
L 128 351
L 129 351
L 130 351
L 131 351
L 132 351
L 132 351
L 133 351
L 134 351
L 135 351
L 136 351
L 137 351
L 138 351
L 139 351
L 140 351
L 141 351
L 142 351
L 142 351
L 143 351
L 144 351
L 145 351
L 146 351
L 147 351
L 148 351
L 149 351
L 150 351
L 151 351
L 152 351
L 153 351
L 153 351
L 154 351
L 155 351
L 156 351
L 157 351
L 158 351
L 159 351
L 160 351
L 161 351
L 162 351
L 163 351
L 163 351
L 164 351
L 165 351
L 166 351
L 167 351
L 168 351
L 169 351
L 170 351
L 171 351
L 172 351
L 173 351
L 173 351
L 174 351
L 175 351
L 176 351
L 177 351
L 178 351
L 179 351
L 180 351
L 181 351
L 182 351
L 183 351
L 184 351
L 184 351
L 185 351
L 186 351
L 187 351
L 188 351
L 189 351
L 190 351
L 191 351
L 192 351
L 193 351
L 194 351
L 194 351
L 195 351
L 196 351
L 197 351
L 198 351
L 199 351
L 200 351
L 201 351
L 202 351
L 203 351
L 204 351
L 204 351
L 205 351
L 206 351
L 207 351
L 208 351
L 209 351
L 210 351
L 211 351
L 212 351
L 213 351
L 214 351
L 215 351
L 215 351
L 216 351
L 217 351
L 218 351
L 219 351
L 220 351
L 221 351
L 222 351
L 223 351
L 224 351
L 225 351
L 225 351
L 226 351
L 227 351
L 228 351
L 229 351
L 230 351
L 231 351
L 232 351
L 233 351
L 234 351
L 235 351
L 236 351
L 236 351
L 237 351
L 238 351
L 239 351
L 240 350
L 241 351
L 242 351
L 243 351
L 244 351
L 245 351
L 246 351
L 246 351
L 247 351
L 248 351
L 249 351
L 250 351
L 251 351
L 252 351
L 253 351
L 254 350
L 255 351
L 256 351
L 256 351
L 257 351
L 258 351
L 259 351
L 260 351
L 261 351
L 262 351
L 263 351
L 264 351
L 265 351
L 266 351
L 267 351
L 267 351
L 268 350
L 269 351
L 270 350
L 271 350
L 272 351
L 273 351
L 274 351
L 275 350
L 276 350
L 277 350
L 277 351
L 278 350
L 279 350
L 280 351
L 281 350
L 282 350
L 283 350
L 284 350
L 285 350
L 286 351
L 287 351
L 287 350
L 288 351
L 289 351
L 290 350
L 291 350
L 292 350
L 293 351
L 294 351
L 295 350
L 296 350
L 297 350
L 298 351
L 298 351
L 299 351
L 300 351
L 301 350
L 302 351
L 303 351
L 304 350
L 305 351
L 306 351
L 307 351
L 308 351
L 308 350
L 309 350
L 310 350
L 311 350
L 312 351
L 313 350
L 314 350
L 315 350
L 316 350
L 317 351
L 318 350
L 319 351
L 319 351
L 320 350
L 321 350
L 322 350
L 323 350
L 324 350
L 325 351
L 326 351
L 327 350
L 328 351
L 329 351
L 329 351
L 330 350
L 331 350
L 332 351
L 333 350
L 334 351
L 335 350
L 336 351
L 337 351
L 338 351
L 339 351
L 339 351
L 340 351
L 341 351
L 342 351
L 343 350
L 344 350
L 345 351
L 346 351
L 347 351
L 348 351
L 349 350
L 350 351
L 350 351
L 351 351
L 352 351
L 353 351
L 354 351
L 355 350
L 356 351
L 357 350
L 358 351
L 359 350
L 360 350
L 360 351
L 361 351
L 362 351
L 363 351
L 364 351
L 365 351
L 366 351
L 367 351
L 368 351
L 369 351
L 370 351
L 370 351
L 371 350
L 372 351
L 373 351
L 374 351
L 375 351
L 376 351
L 377 350
L 378 351
L 379 350
L 380 351
L 381 351
L 381 351
L 382 351
L 383 351
L 384 350
L 385 351
L 386 351
L 387 350
L 388 351
L 389 351
L 390 351
L 391 351
L 391 350
L 392 351
L 393 350
L 394 351
L 395 351
L 396 351
L 397 351
L 398 351
L 399 351
L 400 351
L 401 351
L 401 351
L 402 351
L 403 351
L 404 351
L 405 351
L 406 351
L 407 351
L 408 351
L 409 350
L 410 351
L 411 351
L 412 351
L 412 351
L 413 350
L 414 351
L 415 351
L 416 350
L 417 350
L 418 351
L 419 351
L 420 351
L 421 350
L 422 351
L 422 350
L 423 350
L 424 351
L 425 351
L 426 350
L 427 351
L 428 351
L 429 351
L 430 351
L 431 351
L 432 351
L 433 351
L 433 351
L 434 351
L 435 351
L 436 351
L 437 351
L 438 351
L 439 351
L 440 351
L 441 351
L 442 351
L 443 350
L 443 351
L 444 351
L 445 351
L 446 351
L 447 351
L 448 351
L 449 351
L 450 351
L 451 351
L 452 351
L 453 351
L 453 351
L 454 351
L 455 351
L 456 351
L 457 350
L 458 351
L 459 351
L 460 351
L 461 351
L 462 351
L 463 351
L 464 351
L 464 351
L 465 351
L 466 351
L 467 351
L 468 351
L 469 351
L 470 351
L 471 351
L 472 351
L 473 351
L 474 351
L 474 351
L 475 351
L 476 351
L 477 351
L 478 351
L 479 351
L 480 351
L 481 351
L 482 351
L 483 351
L 484 351
L 484 351
L 485 351
L 486 351
L 487 351
L 488 351
L 489 351
L 490 351
L 491 351
L 492 351
L 493 351
L 494 351
L 495 351
L 495 351
L 496 351
L 497 351
L 498 351
L 499 351
L 500 351
L 501 351
L 502 351
L 503 351
L 504 351
L 505 351
L 505 351
L 506 351
L 507 351
L 508 351
L 509 351
L 510 351
L 511 351
L 512 351
L 513 351
L 514 351
L 515 351
L 516 351
L 516 351
L 517 351
L 518 351
L 519 351
L 520 351
L 521 351
L 522 351
L 523 351
L 524 351
L 525 351
L 526 351
L 526 351
L 527 351
L 528 351
L 529 351
L 530 351
L 531 351
L 532 351
L 533 351
L 534 351
L 535 351
L 536 351
L 536 351
L 537 351
L 538 351
L 539 351
L 540 351
L 541 351
L 542 351
L 543 351
L 544 351
L 545 351
L 546 350
L 547 351
L 547 351
L 548 351
L 549 351
L 550 351
L 551 351
L 552 351
L 553 351
L 554 351
L 555 351
L 556 351
L 557 351
L 557 351
L 558 351
L 559 351
L 560 351
L 561 351
L 562 351
L 563 351
L 564 350
L 565 351
L 566 350
L 567 351
L 567 351
L 568 350
L 569 351
L 570 351
L 571 350
L 572 351
L 573 351
L 574 350
L 575 351
L 576 351
L 577 351
L 578 351
L 578 351
L 579 351
L 580 351
L 581 351
L 582 351
L 583 351
L 584 351
L 585 351
L 586 351
L 587 351
L 588 351
L 588 351
L 589 351
L 590 351
L 591 351
L 592 351
L 593 351
L 594 351
L 595 351
L 596 351
L 597 351
L 598 351
L 599 351
L 599 351
L 600 351
L 601 351
L 602 350
L 603 350
L 604 350
L 605 351
L 606 350
L 607 351
L 608 351
L 609 351
L 609 350
L 610 351
L 611 350
L 612 350
L 613 351
L 614 350
L 615 351
L 616 351
L 617 350
L 618 351
L 619 350
L 619 350
L 620 350
L 621 351
L 622 351
L 623 350
L 624 351
L 625 350
L 626 350
L 627 350
L 628 350
L 629 351
L 630 351
L 630 350
L 631 350
L 632 351
L 633 350
L 634 350
L 635 351
L 636 350
L 637 350
L 638 350
L 639 350
L 640 351
L 640 351
L 641 350
L 642 350
L 643 351
L 644 351
L 645 351
L 646 350
L 647 351
L 648 351
L 649 351
L 650 350
L 650 350
L 651 351
L 652 351
L 653 351
L 654 351
L 655 351
L 656 350
L 657 351
L 658 351
L 659 351
L 660 351
L 661 351
L 661 351
L 662 351
L 663 351
L 664 351
L 665 351
L 666 350
L 667 351
L 668 351
L 669 351
L 670 351
L 671 351
L 671 351
L 672 351
L 673 351
L 674 351
L 675 351
L 676 351
L 677 351
L 678 351
L 679 350
L 680 351
L 681 351
L 681 351
L 682 351
L 683 351
L 684 350
L 685 350
L 686 350
L 687 351
L 688 351
L 689 351
L 690 350
L 691 351
L 692 350
L 692 351
L 693 350
L 694 350
L 695 350
L 696 351
L 697 350
L 698 351
L 699 351
L 700 351
L 701 351
L 702 350
L 702 351
L 703 351
L 704 351
L 705 350
L 706 351
L 707 351
L 708 351
L 709 351
L 710 351
L 711 351
L 712 351
L 713 351
L 713 351
L 714 351
L 715 351
L 716 350
L 717 350
L 718 350
L 719 351
L 720 351
L 721 351
L 722 351
L 723 351
L 723 351
L 724 350
L 725 351
L 726 351
L 727 350
L 728 351
L 729 351
L 730 351
L 731 351
L 732 351
L 733 351
L 733 350
L 734 351
L 735 351
L 736 350
L 737 351
L 738 351
L 739 351
L 740 350
L 741 351
L 742 351
L 743 351
L 744 351
L 744 351
L 745 351
L 746 351
L 747 351
L 748 351
L 749 351
L 750 351
L 751 350
L 752 351
L 753 351
L 754 351
L 754 351
L 755 351
L 756 351
L 757 351
L 758 350
L 759 351
L 760 351
L 761 351
L 762 351
L 763 351
L 764 351
L 764 351
L 765 351
L 766 351
L 767 351
L 768 351
L 769 351
L 770 351
L 771 351
L 772 351
L 773 351
L 774 351
L 775 351
L 775 351
L 776 351
L 777 351
L 778 351
L 779 351
L 780 351
L 781 351
L 782 351
L 783 351
L 784 351
L 785 351
L 785 351
L 786 351
L 787 351
L 788 351
L 789 351
L 790 351
L 791 351
L 792 351
L 793 351
L 794 351
L 795 351
L 796 351
L 796 351
L 797 351
L 798 351
L 799 351
L 800 351
L 801 351
L 802 351
L 803 351
L 804 351
L 805 351
L 806 351
L 806 351
L 807 351
L 808 351
L 809 351
L 810 351
L 811 351
L 812 351
L 813 351
L 814 351
L 815 351
L 816 351
L 816 351
L 817 351
L 818 351
L 819 351
L 820 351
L 821 351
L 822 351
L 823 351
L 824 351
L 825 351
L 826 351
L 827 351
L 827 351
L 828 351
L 829 351
L 830 351
L 831 351
L 832 351
L 833 351
L 834 351
L 835 351
L 836 351
L 837 351
L 837 351
L 838 351
L 839 351
L 840 351
L 841 351
L 842 351
L 843 351
L 844 351
L 845 351
L 846 351
L 847 351
L 847 351
L 848 351
L 849 351
L 850 351
L 851 351
L 852 351
L 853 351
L 854 351
L 855 351
L 856 351
L 857 351
L 858 351
L 858 351
L 859 351
L 860 351
L 861 351
L 862 351
L 863 351
L 864 351
L 865 351
L 866 351
L 867 351
L 868 351
L 868 351
L 869 350
L 870 351
L 871 351
L 872 351
L 873 351
L 874 351
L 875 351
L 876 351
L 877 351
L 878 351
L 879 350
L 879 351
L 880 351
L 881 351
L 882 351
L 883 351
L 884 351
L 885 351
L 886 351
L 887 351
L 888 351
L 889 351
L 889 351
L 890 351
L 891 351
L 892 351
L 893 351
L 894 351
L 895 351
L 896 351
L 897 351
L 898 351
L 899 351
L 899 351
L 900 351
L 901 351
L 902 351
L 903 351
L 904 351
L 905 351
L 906 351
L 907 351
L 908 351
L 909 351
L 910 351
L 910 351
L 911 351
L 912 351
L 913 351
L 914 351
L 915 351
L 916 351
L 917 351
L 918 351
L 919 351
L 920 351
L 920 351
L 921 351
L 922 351
L 923 351
L 924 351
L 925 351
L 926 351
L 927 351
L 928 351
L 929 351
L 930 351
L 930 351
L 931 351
L 932 351
L 933 351
L 934 351
L 935 351
L 936 351
L 937 351
L 938 351
L 939 351
L 940 351
L 941 351
L 941 351
L 942 351
L 943 351
L 944 351
L 945 351
L 946 351
L 947 351
L 948 351
L 949 351
L 950 351
L 951 351
L 951 351
L 952 351
L 953 351
L 954 351
L 955 351
L 956 351
L 957 351
L 958 351
L 959 351
L 960 351
L 961 351
L 961 351" style="stroke-width:1;stroke:rgba(217,0,116,1.0);fill:none"/><text x="385" y="33" style="stroke-width:0;stroke:none;fill:rgba(51,51,51,1.0);font-size:23.0px;font-family:'Roboto Medium',sans-serif">Villach Stadt 04.12.2022</text><path  d="M 38 11
L 251 11
L 251 91
L 38 91
L 38 11" style="stroke-width:1;stroke:rgba(51,51,51,1.0);fill:rgba(255,255,255,1.0)"/><text x="43" y="26" style="stroke-width:0;stroke:none;fill:rgba(51,51,51,1.0);font-size:10.2px;font-family:'Roboto Medium',sans-serif">Sieben Tage Durschnitt Inzidenz Fälle</text><path  d="M 221 21
L 241 21" style="stroke-width:1;stroke:rgba(0,116,217,1.0);fill:none"/><text x="43" y="56" style="stroke-width:0;stroke:none;fill:rgba(51,51,51,1.0);font-size:10.2px;font-family:'Roboto Medium',sans-serif">Anzahl Faelle</text><path  d="M 110 51
L 241 51" style="stroke-width:1;stroke:rgba(0,217,101,1.0);fill:none"/><text x="43" y="86" style="stroke-width:0;stroke:none;fill:rgba(51,51,51,1.0);font-size:10.2px;font-family:'Roboto Medium',sans-serif">Anzahl Tot</text><path  d="M 98 81
L 241 81" style="stroke-width:1;stroke:rgba(217,0,116,1.0);fill:none"/></svg>