<svg xmlns="http://www.w3.org/2000/svg" xmlns:xlink="http://www.w3.org/1999/xlink" width="1024" height="400">\n<path  d="M 0 0
L 1024 0
L 1024 400
L 0 400
L 0 0" style="stroke-width:0;stroke:rgba(255,255,255,1.0);fill:rgba(255,255,255,1.0)"/><path  d="M 38 11
L 961 11
L 961 351
L 38 351
L 38 11" style="stroke-width:0;stroke:rgba(255,255,255,1.0);fill:rgba(255,255,255,1.0)"/><path  d="M 38 351
L 961 351" style="stroke-width:1;stroke:rgba(51,51,51,1.0);fill:none"/><path  d="M 38 351
L 38 356" style="stroke-width:1;stroke:rgba(51,51,51,1.0);fill:none"/><text x="5" y="373" style="stroke-width:0;stroke:none;fill:rgba(51,51,51,1.0);font-size:12.8px;font-family:'Roboto Medium',sans-serif">2020-02-26</text><path  d="M 154 351
L 154 356" style="stroke-width:1;stroke:rgba(51,51,51,1.0);fill:none"/><text x="121" y="373" style="stroke-width:0;stroke:none;fill:rgba(51,51,51,1.0);font-size:12.8px;font-family:'Roboto Medium',sans-serif">2020-07-15</text><path  d="M 269 351
L 269 356" style="stroke-width:1;stroke:rgba(51,51,51,1.0);fill:none"/><text x="236" y="373" style="stroke-width:0;stroke:none;fill:rgba(51,51,51,1.0);font-size:12.8px;font-family:'Roboto Medium',sans-serif">2020-12-02</text><path  d="M 385 351
L 385 356" style="stroke-width:1;stroke:rgba(51,51,51,1.0);fill:none"/><text x="352" y="373" style="stroke-width:0;stroke:none;fill:rgba(51,51,51,1.0);font-size:12.8px;font-family:'Roboto Medium',sans-serif">2021-04-21</text><path  d="M 500 351
L 500 356" style="stroke-width:1;stroke:rgba(51,51,51,1.0);fill:none"/><text x="467" y="373" style="stroke-width:0;stroke:none;fill:rgba(51,51,51,1.0);font-size:12.8px;font-family:'Roboto Medium',sans-serif">2021-09-08</text><path  d="M 615 351
L 615 356" style="stroke-width:1;stroke:rgba(51,51,51,1.0);fill:none"/><text x="582" y="373" style="stroke-width:0;stroke:none;fill:rgba(51,51,51,1.0);font-size:12.8px;font-family:'Roboto Medium',sans-serif">2022-01-26</text><path  d="M 731 351
L 731 356" style="stroke-width:1;stroke:rgba(51,51,51,1.0);fill:none"/><text x="698" y="373" style="stroke-width:0;stroke:none;fill:rgba(51,51,51,1.0);font-size:12.8px;font-family:'Roboto Medium',sans-serif">2022-06-15</text><path  d="M 846 351
L 846 356" style="stroke-width:1;stroke:rgba(51,51,51,1.0);fill:none"/><text x="813" y="373" style="stroke-width:0;stroke:none;fill:rgba(51,51,51,1.0);font-size:12.8px;font-family:'Roboto Medium',sans-serif">2022-11-02</text><path  d="M 961 351
L 961 356" style="stroke-width:1;stroke:rgba(51,51,51,1.0);fill:none"/><text x="928" y="373" style="stroke-width:0;stroke:none;fill:rgba(51,51,51,1.0);font-size:12.8px;font-family:'Roboto Medium',sans-serif">2023-03-22</text><text x="481" y="395" style="stroke-width:0;stroke:none;fill:rgba(51,51,51,1.0);font-size:12.8px;font-family:'Roboto Medium',sans-serif">Datum</text><path  d="M 962 351
L 962 11" style="stroke-width:1;stroke:rgba(51,51,51,1.0);fill:none"/><path  d="M 962 351
L 967 351" style="stroke-width:1;stroke:rgba(51,51,51,1.0);fill:none"/><text x="972" y="357" style="stroke-width:0;stroke:none;fill:rgba(51,51,51,1.0);font-size:12.8px;font-family:'Roboto Medium',sans-serif">0.00</text><path  d="M 962 308
L 967 308" style="stroke-width:1;stroke:rgba(51,51,51,1.0);fill:none"/><text x="972" y="314" style="stroke-width:0;stroke:none;fill:rgba(51,51,51,1.0);font-size:12.8px;font-family:'Roboto Medium',sans-serif">500.00</text><path  d="M 962 266
L 967 266" style="stroke-width:1;stroke:rgba(51,51,51,1.0);fill:none"/><text x="972" y="272" style="stroke-width:0;stroke:none;fill:rgba(51,51,51,1.0);font-size:12.8px;font-family:'Roboto Medium',sans-serif">1000.00</text><path  d="M 962 223
L 967 223" style="stroke-width:1;stroke:rgba(51,51,51,1.0);fill:none"/><text x="972" y="229" style="stroke-width:0;stroke:none;fill:rgba(51,51,51,1.0);font-size:12.8px;font-family:'Roboto Medium',sans-serif">1500.00</text><path  d="M 962 181
L 967 181" style="stroke-width:1;stroke:rgba(51,51,51,1.0);fill:none"/><text x="972" y="187" style="stroke-width:0;stroke:none;fill:rgba(51,51,51,1.0);font-size:12.8px;font-family:'Roboto Medium',sans-serif">2000.00</text><path  d="M 962 138
L 967 138" style="stroke-width:1;stroke:rgba(51,51,51,1.0);fill:none"/><text x="972" y="144" style="stroke-width:0;stroke:none;fill:rgba(51,51,51,1.0);font-size:12.8px;font-family:'Roboto Medium',sans-serif">2500.00</text><path  d="M 962 96
L 967 96" style="stroke-width:1;stroke:rgba(51,51,51,1.0);fill:none"/><text x="972" y="102" style="stroke-width:0;stroke:none;fill:rgba(51,51,51,1.0);font-size:12.8px;font-family:'Roboto Medium',sans-serif">3000.00</text><path  d="M 962 53
L 967 53" style="stroke-width:1;stroke:rgba(51,51,51,1.0);fill:none"/><text x="972" y="59" style="stroke-width:0;stroke:none;fill:rgba(51,51,51,1.0);font-size:12.8px;font-family:'Roboto Medium',sans-serif">3500.00</text><path  d="M 962 11
L 967 11" style="stroke-width:1;stroke:rgba(51,51,51,1.0);fill:none"/><text x="972" y="17" style="stroke-width:0;stroke:none;fill:rgba(51,51,51,1.0);font-size:12.8px;font-family:'Roboto Medium',sans-serif">4000.00</text><path  d="M 38 351
L 39 351
L 40 351
L 41 351
L 42 351
L 43 351
L 43 351
L 44 351
L 45 351
L 46 351
L 47 351
L 48 351
L 48 351
L 49 351
L 50 351
L 51 350
L 52 350
L 53 350
L 53 350
L 54 350
L 55 350
L 56 350
L 57 350
L 57 350
L 58 350
L 59 351
L 60 349
L 61 347
L 62 347
L 62 345
L 63 344
L 64 342
L 65 342
L 66 343
L 67 344
L 67 344
L 68 345
L 69 346
L 70 348
L 71 348
L 71 348
L 72 348
L 73 349
L 74 348
L 75 348
L 76 348
L 76 349
L 77 349
L 78 349
L 79 350
L 80 350
L 81 350
L 81 350
L 82 350
L 83 350
L 84 350
L 85 350
L 85 350
L 86 350
L 87 350
L 88 350
L 89 350
L 90 350
L 90 350
L 91 350
L 92 350
L 93 350
L 94 350
L 95 350
L 95 350
L 96 350
L 97 350
L 98 350
L 99 350
L 99 350
L 100 350
L 101 350
L 102 350
L 103 351
L 104 351
L 104 351
L 105 351
L 106 351
L 107 351
L 108 351
L 109 351
L 109 351
L 110 351
L 111 351
L 112 351
L 113 351
L 113 351
L 114 351
L 115 351
L 116 351
L 117 351
L 118 351
L 118 351
L 119 351
L 120 351
L 121 351
L 122 351
L 123 351
L 123 351
L 124 351
L 125 351
L 126 351
L 127 351
L 128 351
L 128 351
L 129 351
L 130 351
L 131 351
L 132 351
L 132 351
L 133 351
L 134 351
L 135 351
L 136 351
L 137 351
L 137 351
L 138 351
L 139 351
L 140 351
L 141 351
L 142 351
L 142 351
L 143 351
L 144 351
L 145 351
L 146 351
L 146 351
L 147 351
L 148 351
L 149 351
L 150 351
L 151 351
L 151 351
L 152 351
L 153 351
L 154 351
L 155 351
L 156 351
L 156 351
L 157 351
L 158 351
L 159 351
L 160 351
L 160 351
L 161 351
L 162 351
L 163 351
L 164 351
L 165 351
L 165 351
L 166 351
L 167 351
L 168 351
L 169 351
L 170 350
L 170 350
L 171 350
L 172 350
L 173 350
L 174 350
L 174 350
L 175 351
L 176 351
L 177 351
L 178 350
L 179 350
L 179 350
L 180 350
L 181 350
L 182 350
L 183 350
L 184 350
L 184 350
L 185 350
L 186 350
L 187 350
L 188 351
L 188 350
L 189 350
L 190 350
L 191 350
L 192 350
L 193 350
L 193 350
L 194 350
L 195 350
L 196 350
L 197 350
L 198 350
L 198 351
L 199 350
L 200 350
L 201 350
L 202 350
L 202 350
L 203 350
L 204 350
L 205 350
L 206 349
L 207 349
L 207 349
L 208 349
L 209 349
L 210 349
L 211 349
L 212 348
L 212 349
L 213 347
L 214 347
L 215 348
L 216 347
L 217 347
L 217 348
L 218 347
L 219 348
L 220 347
L 221 348
L 221 348
L 222 347
L 223 347
L 224 347
L 225 347
L 226 345
L 226 344
L 227 343
L 228 342
L 229 342
L 230 341
L 231 341
L 231 343
L 232 342
L 233 342
L 234 343
L 235 341
L 235 340
L 236 338
L 237 335
L 238 335
L 239 334
L 240 333
L 240 334
L 241 330
L 242 329
L 243 329
L 244 327
L 245 327
L 245 323
L 246 320
L 247 320
L 248 321
L 249 320
L 249 313
L 250 309
L 251 313
L 252 308
L 253 304
L 254 295
L 254 292
L 255 299
L 256 298
L 257 290
L 258 295
L 259 300
L 259 295
L 260 297
L 261 298
L 262 300
L 263 305
L 263 303
L 264 302
L 265 314
L 266 314
L 267 314
L 268 315
L 268 317
L 269 319
L 270 322
L 271 325
L 272 327
L 273 329
L 273 330
L 274 332
L 275 333
L 276 335
L 277 335
L 277 337
L 278 336
L 279 337
L 280 336
L 281 337
L 282 338
L 282 339
L 283 341
L 284 342
L 285 342
L 286 343
L 287 342
L 287 342
L 288 344
L 289 344
L 290 343
L 291 343
L 292 343
L 292 344
L 293 344
L 294 344
L 295 344
L 296 344
L 296 343
L 297 343
L 298 341
L 299 341
L 300 340
L 301 339
L 301 336
L 302 337
L 303 337
L 304 340
L 305 341
L 306 340
L 306 339
L 307 343
L 308 342
L 309 342
L 310 341
L 310 342
L 311 340
L 312 342
L 313 341
L 314 341
L 315 342
L 315 342
L 316 341
L 317 344
L 318 343
L 319 344
L 320 343
L 320 344
L 321 344
L 322 343
L 323 344
L 324 345
L 324 344
L 325 345
L 326 346
L 327 346
L 328 347
L 329 346
L 329 346
L 330 346
L 331 346
L 332 346
L 333 347
L 334 346
L 334 346
L 335 346
L 336 346
L 337 346
L 338 345
L 338 344
L 339 345
L 340 345
L 341 345
L 342 345
L 343 345
L 343 344
L 344 345
L 345 344
L 346 342
L 347 342
L 348 340
L 348 338
L 349 339
L 350 338
L 351 338
L 352 338
L 352 336
L 353 338
L 354 338
L 355 338
L 356 332
L 357 331
L 357 329
L 358 328
L 359 326
L 360 325
L 361 323
L 362 328
L 362 328
L 363 333
L 364 335
L 365 334
L 366 335
L 366 337
L 367 338
L 368 337
L 369 336
L 370 333
L 371 334
L 371 334
L 372 331
L 373 331
L 374 332
L 375 330
L 376 329
L 376 330
L 377 330
L 378 332
L 379 332
L 380 330
L 381 334
L 381 335
L 382 335
L 383 335
L 384 335
L 385 332
L 385 332
L 386 332
L 387 330
L 388 330
L 389 331
L 390 328
L 390 329
L 391 330
L 392 330
L 393 332
L 394 333
L 395 333
L 395 337
L 396 338
L 397 338
L 398 338
L 399 338
L 399 339
L 400 339
L 401 340
L 402 341
L 403 343
L 404 344
L 404 346
L 405 345
L 406 344
L 407 344
L 408 345
L 409 345
L 409 345
L 410 346
L 411 347
L 412 348
L 413 349
L 413 348
L 414 348
L 415 348
L 416 348
L 417 348
L 418 347
L 418 347
L 419 347
L 420 347
L 421 347
L 422 348
L 423 347
L 423 348
L 424 347
L 425 348
L 426 348
L 427 349
L 427 349
L 428 349
L 429 349
L 430 350
L 431 351
L 432 350
L 432 350
L 433 350
L 434 350
L 435 350
L 436 350
L 437 350
L 437 350
L 438 351
L 439 351
L 440 351
L 441 351
L 441 351
L 442 351
L 443 351
L 444 351
L 445 351
L 446 351
L 446 351
L 447 350
L 448 350
L 449 350
L 450 350
L 451 350
L 451 350
L 452 349
L 453 348
L 454 348
L 455 347
L 455 347
L 456 347
L 457 347
L 458 347
L 459 348
L 460 348
L 460 349
L 461 349
L 462 349
L 463 349
L 464 349
L 465 348
L 465 348
L 466 348
L 467 348
L 468 348
L 469 348
L 470 349
L 470 349
L 471 349
L 472 349
L 473 350
L 474 349
L 474 349
L 475 349
L 476 349
L 477 349
L 478 349
L 479 349
L 479 349
L 480 349
L 481 349
L 482 349
L 483 348
L 484 348
L 484 348
L 485 348
L 486 348
L 487 349
L 488 349
L 488 347
L 489 347
L 490 346
L 491 345
L 492 344
L 493 344
L 493 344
L 494 345
L 495 345
L 496 344
L 497 343
L 498 343
L 498 341
L 499 341
L 500 341
L 501 340
L 502 340
L 502 340
L 503 340
L 504 341
L 505 339
L 506 339
L 507 339
L 507 341
L 508 340
L 509 340
L 510 341
L 511 342
L 512 342
L 512 342
L 513 342
L 514 344
L 515 344
L 516 342
L 516 343
L 517 343
L 518 343
L 519 343
L 520 342
L 521 342
L 521 344
L 522 343
L 523 341
L 524 341
L 525 342
L 526 341
L 526 341
L 527 340
L 528 340
L 529 342
L 530 342
L 530 340
L 531 340
L 532 340
L 533 339
L 534 339
L 535 337
L 535 338
L 536 339
L 537 339
L 538 339
L 539 340
L 540 341
L 540 341
L 541 341
L 542 340
L 543 338
L 544 336
L 545 335
L 545 333
L 546 330
L 547 328
L 548 324
L 549 324
L 549 320
L 550 317
L 551 315
L 552 313
L 553 312
L 554 312
L 554 307
L 555 309
L 556 308
L 557 305
L 558 309
L 559 304
L 559 305
L 560 304
L 561 299
L 562 296
L 563 294
L 563 289
L 564 291
L 565 287
L 566 289
L 567 289
L 568 295
L 568 295
L 569 294
L 570 294
L 571 299
L 572 298
L 573 305
L 573 304
L 574 307
L 575 313
L 576 314
L 577 316
L 577 317
L 578 320
L 579 320
L 580 321
L 581 322
L 582 322
L 582 321
L 583 325
L 584 322
L 585 324
L 586 326
L 587 326
L 587 329
L 588 332
L 589 333
L 590 334
L 591 334
L 591 334
L 592 334
L 593 334
L 594 331
L 595 332
L 596 332
L 596 332
L 597 331
L 598 332
L 599 331
L 600 332
L 601 332
L 601 332
L 602 332
L 603 330
L 604 327
L 605 323
L 605 321
L 606 318
L 607 314
L 608 310
L 609 305
L 610 299
L 610 283
L 611 272
L 612 262
L 613 245
L 614 237
L 615 219
L 615 194
L 616 184
L 617 169
L 618 153
L 619 155
L 619 144
L 620 126
L 621 126
L 622 122
L 623 111
L 624 104
L 624 93
L 625 100
L 626 92
L 627 83
L 628 80
L 629 75
L 629 78
L 630 88
L 631 82
L 632 90
L 633 101
L 634 105
L 634 116
L 635 126
L 636 129
L 637 137
L 638 157
L 638 160
L 639 170
L 640 181
L 641 182
L 642 177
L 643 167
L 643 150
L 644 143
L 645 137
L 646 119
L 647 114
L 648 115
L 648 115
L 649 105
L 650 87
L 651 73
L 652 65
L 652 56
L 653 41
L 654 31
L 655 32
L 656 24
L 657 18
L 657 31
L 658 36
L 659 44
L 660 47
L 661 59
L 662 82
L 662 101
L 663 114
L 664 124
L 665 138
L 666 156
L 666 170
L 667 186
L 668 201
L 669 212
L 670 221
L 671 235
L 671 244
L 672 258
L 673 271
L 674 278
L 675 290
L 676 296
L 676 297
L 677 298
L 678 307
L 679 314
L 680 314
L 680 312
L 681 313
L 682 312
L 683 315
L 684 318
L 685 313
L 685 315
L 686 319
L 687 319
L 688 316
L 689 314
L 690 314
L 690 317
L 691 320
L 692 317
L 693 319
L 694 322
L 694 323
L 695 325
L 696 327
L 697 322
L 698 325
L 699 328
L 699 328
L 700 329
L 701 327
L 702 329
L 703 331
L 704 332
L 704 330
L 705 331
L 706 332
L 707 335
L 708 336
L 708 339
L 709 340
L 710 340
L 711 341
L 712 343
L 713 343
L 713 343
L 714 344
L 715 345
L 716 346
L 717 345
L 718 345
L 718 345
L 719 346
L 720 345
L 721 345
L 722 345
L 723 345
L 723 346
L 724 346
L 725 345
L 726 345
L 727 344
L 727 343
L 728 343
L 729 341
L 730 339
L 731 339
L 732 338
L 732 337
L 733 335
L 734 333
L 735 332
L 736 329
L 737 326
L 737 324
L 738 323
L 739 323
L 740 322
L 741 322
L 741 321
L 742 320
L 743 321
L 744 318
L 745 319
L 746 318
L 746 316
L 747 316
L 748 315
L 749 314
L 750 314
L 751 313
L 751 314
L 752 314
L 753 315
L 754 314
L 755 311
L 755 310
L 756 308
L 757 309
L 758 310
L 759 308
L 760 305
L 760 305
L 761 305
L 762 306
L 763 304
L 764 302
L 765 304
L 765 307
L 766 309
L 767 313
L 768 315
L 769 318
L 769 319
L 770 322
L 771 323
L 772 325
L 773 323
L 774 325
L 774 324
L 775 326
L 776 327
L 777 329
L 778 332
L 779 333
L 779 332
L 780 333
L 781 334
L 782 337
L 783 334
L 783 332
L 784 332
L 785 330
L 786 331
L 787 328
L 788 327
L 788 329
L 789 330
L 790 330
L 791 332
L 792 332
L 793 334
L 793 333
L 794 332
L 795 332
L 796 333
L 797 332
L 798 332
L 798 331
L 799 331
L 800 332
L 801 331
L 802 331
L 802 330
L 803 330
L 804 329
L 805 330
L 806 326
L 807 326
L 807 323
L 808 320
L 809 320
L 810 317
L 811 313
L 812 312
L 812 308
L 813 305
L 814 304
L 815 303
L 816 303
L 816 296
L 817 291
L 818 285
L 819 282
L 820 283
L 821 279
L 821 277
L 822 280
L 823 280
L 824 283
L 825 278
L 826 272
L 826 277
L 827 276
L 828 272
L 829 269
L 830 267
L 830 273
L 831 276
L 832 273
L 833 275
L 834 278
L 835 285
L 835 291
L 836 295
L 837 300
L 838 302
L 839 305
L 840 315
L 840 321
L 841 322
L 842 324
L 843 324
L 844 323
L 844 324
L 845 326
L 846 326
L 847 327
L 848 329
L 849 330
L 849 332
L 850 334
L 851 334
L 852 334
L 853 336
L 854 336
L 854 338
L 855 337
L 856 338
L 857 337
L 858 336
L 858 336
L 859 336
L 860 336
L 861 337
L 862 337
L 863 338
L 863 337
L 864 338
L 865 338
L 866 337
L 867 336
L 868 332
L 868 330
L 869 331
L 870 330
L 871 330
L 872 331
L 872 331
L 873 334
L 874 335
L 875 334
L 876 334
L 877 333
L 877 332
L 878 332
L 879 331
L 880 330
L 881 331
L 882 331
L 882 332
L 883 332
L 884 332
L 885 331
L 886 332
L 887 332
L 887 331
L 888 332
L 889 332
L 890 333
L 891 336
L 891 338
L 892 338
L 893 338
L 894 337
L 895 337
L 896 337
L 896 335
L 897 335
L 898 336
L 899 337
L 900 339
L 901 340
L 901 340
L 902 340
L 903 340
L 904 338
L 905 337
L 905 336
L 906 335
L 907 336
L 908 337
L 909 338
L 910 340
L 910 339
L 911 340
L 912 341
L 913 341
L 914 340
L 915 340
L 915 338
L 916 339
L 917 337
L 918 336
L 919 336
L 919 336
L 920 333
L 921 333
L 922 332
L 923 334
L 924 336
L 924 336
L 925 337
L 926 339
L 927 339
L 928 339
L 929 338
L 929 337
L 930 338
L 931 336
L 932 337
L 933 335
L 933 333
L 934 333
L 935 335
L 936 335
L 937 337
L 938 336
L 938 339
L 939 341
L 940 341
L 941 339
L 942 339
L 943 337
L 943 338
L 944 336
L 945 336
L 946 334
L 947 335
L 947 336
L 948 336
L 949 337
L 950 337
L 951 338
L 952 340
L 952 339
L 953 339
L 954 340
L 955 340
L 956 340
L 957 340
L 957 341
L 958 342
L 959 342
L 960 340
L 961 339
L 961 341" style="stroke-width:1;stroke:rgba(0,116,217,1.0);fill:none"/><path  d="M 38 351
L 39 351
L 40 351
L 41 351
L 42 351
L 43 351
L 43 351
L 44 351
L 45 351
L 46 351
L 47 351
L 48 351
L 48 351
L 49 351
L 50 351
L 51 350
L 52 350
L 53 351
L 53 350
L 54 351
L 55 351
L 56 351
L 57 351
L 57 351
L 58 351
L 59 351
L 60 350
L 61 350
L 62 350
L 62 350
L 63 350
L 64 350
L 65 350
L 66 350
L 67 350
L 67 350
L 68 351
L 69 350
L 70 350
L 71 350
L 71 351
L 72 350
L 73 350
L 74 350
L 75 350
L 76 351
L 76 350
L 77 351
L 78 351
L 79 351
L 80 350
L 81 351
L 81 351
L 82 351
L 83 351
L 84 350
L 85 350
L 85 351
L 86 350
L 87 350
L 88 350
L 89 351
L 90 351
L 90 350
L 91 351
L 92 351
L 93 351
L 94 350
L 95 351
L 95 351
L 96 350
L 97 350
L 98 351
L 99 351
L 99 351
L 100 351
L 101 351
L 102 351
L 103 351
L 104 351
L 104 351
L 105 351
L 106 351
L 107 351
L 108 351
L 109 351
L 109 351
L 110 351
L 111 351
L 112 351
L 113 351
L 113 351
L 114 351
L 115 351
L 116 351
L 117 351
L 118 351
L 118 351
L 119 351
L 120 351
L 121 351
L 122 351
L 123 351
L 123 351
L 124 351
L 125 351
L 126 351
L 127 351
L 128 351
L 128 351
L 129 351
L 130 351
L 131 351
L 132 351
L 132 351
L 133 351
L 134 351
L 135 351
L 136 351
L 137 351
L 137 351
L 138 351
L 139 351
L 140 351
L 141 351
L 142 351
L 142 351
L 143 351
L 144 351
L 145 351
L 146 351
L 146 351
L 147 351
L 148 351
L 149 351
L 150 351
L 151 351
L 151 351
L 152 351
L 153 351
L 154 351
L 155 351
L 156 351
L 156 351
L 157 351
L 158 351
L 159 351
L 160 351
L 160 351
L 161 351
L 162 351
L 163 351
L 164 351
L 165 351
L 165 351
L 166 351
L 167 351
L 168 351
L 169 351
L 170 350
L 170 351
L 171 351
L 172 351
L 173 351
L 174 351
L 174 351
L 175 351
L 176 351
L 177 351
L 178 350
L 179 351
L 179 350
L 180 351
L 181 351
L 182 350
L 183 351
L 184 351
L 184 351
L 185 351
L 186 351
L 187 351
L 188 351
L 188 350
L 189 351
L 190 351
L 191 350
L 192 351
L 193 350
L 193 351
L 194 351
L 195 351
L 196 351
L 197 351
L 198 351
L 198 351
L 199 350
L 200 351
L 201 351
L 202 350
L 202 350
L 203 351
L 204 351
L 205 351
L 206 350
L 207 350
L 207 350
L 208 350
L 209 350
L 210 351
L 211 351
L 212 350
L 212 351
L 213 350
L 214 351
L 215 350
L 216 350
L 217 351
L 217 350
L 218 350
L 219 350
L 220 350
L 221 350
L 221 350
L 222 350
L 223 350
L 224 350
L 225 350
L 226 349
L 226 350
L 227 350
L 228 349
L 229 350
L 230 350
L 231 350
L 231 350
L 232 350
L 233 350
L 234 350
L 235 349
L 235 349
L 236 349
L 237 349
L 238 350
L 239 350
L 240 349
L 240 350
L 241 347
L 242 348
L 243 349
L 244 349
L 245 350
L 245 347
L 246 348
L 247 348
L 248 349
L 249 348
L 249 345
L 250 348
L 251 349
L 252 345
L 253 345
L 254 344
L 254 346
L 255 349
L 256 347
L 257 345
L 258 348
L 259 348
L 259 342
L 260 348
L 261 349
L 262 348
L 263 348
L 263 347
L 264 347
L 265 348
L 266 347
L 267 349
L 268 349
L 268 348
L 269 349
L 270 348
L 271 349
L 272 349
L 273 350
L 273 349
L 274 350
L 275 349
L 276 349
L 277 349
L 277 350
L 278 350
L 279 350
L 280 349
L 281 350
L 282 350
L 282 350
L 283 351
L 284 350
L 285 350
L 286 349
L 287 350
L 287 350
L 288 351
L 289 350
L 290 350
L 291 350
L 292 350
L 292 350
L 293 350
L 294 350
L 295 350
L 296 350
L 296 349
L 297 350
L 298 349
L 299 350
L 300 350
L 301 350
L 301 348
L 302 350
L 303 350
L 304 350
L 305 350
L 306 350
L 306 349
L 307 350
L 308 350
L 309 350
L 310 350
L 310 350
L 311 349
L 312 350
L 313 350
L 314 350
L 315 350
L 315 350
L 316 350
L 317 350
L 318 350
L 319 350
L 320 350
L 320 350
L 321 350
L 322 350
L 323 351
L 324 350
L 324 350
L 325 350
L 326 350
L 327 350
L 328 350
L 329 350
L 329 350
L 330 350
L 331 350
L 332 350
L 333 350
L 334 350
L 334 350
L 335 350
L 336 350
L 337 350
L 338 350
L 338 350
L 339 350
L 340 350
L 341 350
L 342 350
L 343 350
L 343 350
L 344 350
L 345 350
L 346 349
L 347 350
L 348 350
L 348 349
L 349 350
L 350 349
L 351 350
L 352 349
L 352 349
L 353 350
L 354 349
L 355 350
L 356 346
L 357 349
L 357 348
L 358 349
L 359 349
L 360 349
L 361 349
L 362 349
L 362 349
L 363 350
L 364 350
L 365 349
L 366 350
L 366 350
L 367 350
L 368 349
L 369 350
L 370 348
L 371 349
L 371 349
L 372 349
L 373 349
L 374 349
L 375 348
L 376 348
L 376 350
L 377 349
L 378 350
L 379 350
L 380 349
L 381 350
L 381 349
L 382 350
L 383 349
L 384 350
L 385 348
L 385 349
L 386 350
L 387 348
L 388 349
L 389 350
L 390 348
L 390 349
L 391 349
L 392 350
L 393 349
L 394 350
L 395 350
L 395 350
L 396 349
L 397 349
L 398 350
L 399 349
L 399 350
L 400 350
L 401 350
L 402 350
L 403 350
L 404 350
L 404 350
L 405 350
L 406 350
L 407 350
L 408 350
L 409 350
L 409 350
L 410 350
L 411 351
L 412 351
L 413 351
L 413 350
L 414 350
L 415 350
L 416 350
L 417 350
L 418 350
L 418 350
L 419 350
L 420 350
L 421 350
L 422 350
L 423 350
L 423 351
L 424 350
L 425 350
L 426 351
L 427 351
L 427 351
L 428 351
L 429 351
L 430 351
L 431 351
L 432 350
L 432 350
L 433 351
L 434 351
L 435 351
L 436 351
L 437 351
L 437 351
L 438 351
L 439 351
L 440 351
L 441 351
L 441 351
L 442 351
L 443 351
L 444 351
L 445 351
L 446 351
L 446 351
L 447 350
L 448 351
L 449 351
L 450 350
L 451 350
L 451 350
L 452 350
L 453 350
L 454 350
L 455 350
L 455 350
L 456 350
L 457 350
L 458 350
L 459 351
L 460 351
L 460 350
L 461 350
L 462 351
L 463 350
L 464 350
L 465 350
L 465 350
L 466 351
L 467 350
L 468 351
L 469 351
L 470 351
L 470 350
L 471 350
L 472 351
L 473 351
L 474 350
L 474 350
L 475 351
L 476 350
L 477 350
L 478 350
L 479 350
L 479 350
L 480 350
L 481 350
L 482 350
L 483 350
L 484 350
L 484 350
L 485 351
L 486 350
L 487 350
L 488 350
L 488 350
L 489 350
L 490 350
L 491 350
L 492 350
L 493 350
L 493 350
L 494 350
L 495 350
L 496 350
L 497 349
L 498 350
L 498 350
L 499 350
L 500 350
L 501 350
L 502 349
L 502 350
L 503 350
L 504 350
L 505 349
L 506 350
L 507 350
L 507 350
L 508 349
L 509 350
L 510 350
L 511 350
L 512 350
L 512 350
L 513 350
L 514 350
L 515 350
L 516 350
L 516 350
L 517 350
L 518 350
L 519 349
L 520 350
L 521 350
L 521 350
L 522 350
L 523 349
L 524 350
L 525 350
L 526 349
L 526 350
L 527 350
L 528 349
L 529 350
L 530 350
L 530 349
L 531 350
L 532 350
L 533 350
L 534 349
L 535 350
L 535 350
L 536 350
L 537 350
L 538 350
L 539 350
L 540 350
L 540 349
L 541 350
L 542 349
L 543 349
L 544 349
L 545 350
L 545 349
L 546 348
L 547 348
L 548 347
L 549 349
L 549 347
L 550 348
L 551 348
L 552 347
L 553 348
L 554 347
L 554 347
L 555 348
L 556 348
L 557 346
L 558 349
L 559 346
L 559 348
L 560 346
L 561 345
L 562 346
L 563 345
L 563 346
L 564 347
L 565 345
L 566 347
L 567 345
L 568 349
L 568 345
L 569 345
L 570 347
L 571 348
L 572 347
L 573 348
L 573 349
L 574 347
L 575 348
L 576 348
L 577 349
L 577 347
L 578 350
L 579 349
L 580 347
L 581 349
L 582 348
L 582 349
L 583 349
L 584 349
L 585 349
L 586 348
L 587 349
L 587 350
L 588 350
L 589 349
L 590 349
L 591 349
L 591 348
L 592 349
L 593 350
L 594 349
L 595 350
L 596 349
L 596 349
L 597 348
L 598 349
L 599 349
L 600 349
L 601 350
L 601 350
L 602 349
L 603 347
L 604 347
L 605 348
L 605 348
L 606 348
L 607 348
L 608 347
L 609 345
L 610 344
L 610 340
L 611 342
L 612 343
L 613 339
L 614 343
L 615 335
L 615 332
L 616 335
L 617 334
L 618 335
L 619 340
L 619 337
L 620 326
L 621 332
L 622 333
L 623 329
L 624 332
L 624 334
L 625 340
L 626 322
L 627 327
L 628 331
L 629 326
L 629 334
L 630 339
L 631 337
L 632 326
L 633 333
L 634 333
L 634 332
L 635 338
L 636 341
L 637 341
L 638 336
L 638 335
L 639 338
L 640 337
L 641 339
L 642 338
L 643 336
L 643 328
L 644 331
L 645 335
L 646 328
L 647 336
L 648 339
L 648 336
L 649 322
L 650 322
L 651 328
L 652 324
L 652 331
L 653 331
L 654 331
L 655 323
L 656 318
L 657 325
L 657 330
L 658 334
L 659 335
L 660 333
L 661 329
L 662 329
L 662 335
L 663 337
L 664 340
L 665 342
L 666 342
L 666 336
L 667 338
L 668 343
L 669 342
L 670 344
L 671 349
L 671 347
L 672 343
L 673 345
L 674 346
L 675 348
L 676 347
L 676 350
L 677 348
L 678 347
L 679 348
L 680 346
L 680 347
L 681 347
L 682 350
L 683 349
L 684 348
L 685 346
L 685 348
L 686 349
L 687 347
L 688 348
L 689 348
L 690 348
L 690 347
L 691 349
L 692 348
L 693 348
L 694 350
L 694 348
L 695 349
L 696 348
L 697 347
L 698 349
L 699 350
L 699 349
L 700 349
L 701 348
L 702 349
L 703 348
L 704 350
L 704 349
L 705 350
L 706 349
L 707 350
L 708 350
L 708 350
L 709 350
L 710 350
L 711 350
L 712 350
L 713 350
L 713 350
L 714 350
L 715 350
L 716 350
L 717 350
L 718 350
L 718 350
L 719 350
L 720 350
L 721 350
L 722 350
L 723 350
L 723 350
L 724 350
L 725 350
L 726 350
L 727 350
L 727 350
L 728 350
L 729 349
L 730 349
L 731 350
L 732 349
L 732 349
L 733 349
L 734 349
L 735 349
L 736 347
L 737 349
L 737 348
L 738 349
L 739 349
L 740 349
L 741 349
L 741 347
L 742 348
L 743 348
L 744 347
L 745 349
L 746 349
L 746 348
L 747 347
L 748 348
L 749 348
L 750 347
L 751 348
L 751 349
L 752 348
L 753 347
L 754 347
L 755 346
L 755 347
L 756 347
L 757 350
L 758 349
L 759 345
L 760 346
L 760 346
L 761 347
L 762 348
L 763 349
L 764 348
L 765 346
L 765 348
L 766 347
L 767 349
L 768 349
L 769 350
L 769 348
L 770 348
L 771 349
L 772 348
L 773 348
L 774 350
L 774 350
L 775 349
L 776 348
L 777 350
L 778 349
L 779 349
L 779 349
L 780 350
L 781 350
L 782 349
L 783 348
L 783 348
L 784 349
L 785 349
L 786 350
L 787 348
L 788 349
L 788 349
L 789 349
L 790 349
L 791 350
L 792 350
L 793 350
L 793 348
L 794 348
L 795 349
L 796 349
L 797 349
L 798 350
L 798 349
L 799 348
L 800 349
L 801 349
L 802 349
L 802 349
L 803 350
L 804 349
L 805 348
L 806 347
L 807 349
L 807 348
L 808 347
L 809 350
L 810 347
L 811 346
L 812 346
L 812 347
L 813 346
L 814 347
L 815 349
L 816 347
L 816 343
L 817 344
L 818 344
L 819 345
L 820 347
L 821 348
L 821 346
L 822 344
L 823 344
L 824 345
L 825 342
L 826 345
L 826 350
L 827 346
L 828 342
L 829 342
L 830 344
L 830 345
L 831 346
L 832 349
L 833 347
L 834 343
L 835 346
L 835 347
L 836 347
L 837 348
L 838 350
L 839 348
L 840 349
L 840 349
L 841 348
L 842 348
L 843 348
L 844 349
L 844 348
L 845 350
L 846 349
L 847 349
L 848 349
L 849 349
L 849 350
L 850 349
L 851 350
L 852 349
L 853 349
L 854 349
L 854 350
L 855 350
L 856 350
L 857 349
L 858 349
L 858 349
L 859 349
L 860 350
L 861 350
L 862 350
L 863 349
L 863 349
L 864 350
L 865 349
L 866 349
L 867 350
L 868 348
L 868 348
L 869 349
L 870 349
L 871 349
L 872 349
L 872 350
L 873 349
L 874 349
L 875 349
L 876 350
L 877 348
L 877 349
L 878 350
L 879 349
L 880 348
L 881 349
L 882 350
L 882 349
L 883 349
L 884 350
L 885 348
L 886 348
L 887 349
L 887 349
L 888 349
L 889 349
L 890 350
L 891 350
L 891 349
L 892 349
L 893 349
L 894 349
L 895 349
L 896 350
L 896 349
L 897 349
L 898 350
L 899 350
L 900 350
L 901 350
L 901 350
L 902 350
L 903 348
L 904 349
L 905 349
L 905 349
L 906 350
L 907 350
L 908 350
L 909 349
L 910 350
L 910 349
L 911 350
L 912 350
L 913 350
L 914 349
L 915 350
L 915 349
L 916 350
L 917 349
L 918 349
L 919 350
L 919 349
L 920 348
L 921 349
L 922 349
L 923 350
L 924 350
L 924 350
L 925 350
L 926 349
L 927 349
L 928 349
L 929 349
L 929 350
L 930 350
L 931 349
L 932 349
L 933 348
L 933 349
L 934 349
L 935 350
L 936 351
L 937 350
L 938 349
L 938 350
L 939 349
L 940 349
L 941 350
L 942 350
L 943 349
L 943 349
L 944 349
L 945 349
L 946 349
L 947 350
L 947 350
L 948 349
L 949 349
L 950 350
L 951 349
L 952 349
L 952 350
L 953 350
L 954 350
L 955 349
L 956 349
L 957 350
L 957 350
L 958 350
L 959 350
L 960 349
L 961 349
L 961 350" style="stroke-width:1;stroke:rgba(0,217,101,1.0);fill:none"/><path  d="M 38 351
L 39 351
L 40 351
L 41 351
L 42 351
L 43 351
L 43 351
L 44 351
L 45 351
L 46 351
L 47 351
L 48 351
L 48 351
L 49 351
L 50 351
L 51 351
L 52 351
L 53 351
L 53 351
L 54 351
L 55 351
L 56 351
L 57 351
L 57 351
L 58 351
L 59 351
L 60 351
L 61 351
L 62 351
L 62 351
L 63 351
L 64 351
L 65 351
L 66 351
L 67 351
L 67 350
L 68 351
L 69 350
L 70 350
L 71 351
L 71 351
L 72 351
L 73 351
L 74 351
L 75 351
L 76 351
L 76 351
L 77 351
L 78 351
L 79 351
L 80 351
L 81 351
L 81 351
L 82 351
L 83 351
L 84 351
L 85 351
L 85 351
L 86 351
L 87 351
L 88 351
L 89 351
L 90 351
L 90 351
L 91 351
L 92 351
L 93 351
L 94 351
L 95 351
L 95 351
L 96 351
L 97 351
L 98 351
L 99 351
L 99 351
L 100 351
L 101 351
L 102 351
L 103 351
L 104 351
L 104 351
L 105 351
L 106 351
L 107 351
L 108 351
L 109 351
L 109 350
L 110 351
L 111 351
L 112 351
L 113 351
L 113 351
L 114 351
L 115 350
L 116 351
L 117 351
L 118 351
L 118 351
L 119 351
L 120 351
L 121 351
L 122 351
L 123 351
L 123 351
L 124 351
L 125 351
L 126 351
L 127 351
L 128 351
L 128 351
L 129 351
L 130 351
L 131 351
L 132 351
L 132 351
L 133 351
L 134 351
L 135 351
L 136 351
L 137 351
L 137 351
L 138 351
L 139 351
L 140 351
L 141 351
L 142 351
L 142 351
L 143 351
L 144 351
L 145 351
L 146 351
L 146 351
L 147 351
L 148 351
L 149 351
L 150 351
L 151 351
L 151 351
L 152 351
L 153 351
L 154 351
L 155 351
L 156 351
L 156 351
L 157 351
L 158 351
L 159 351
L 160 351
L 160 351
L 161 351
L 162 351
L 163 351
L 164 351
L 165 351
L 165 351
L 166 351
L 167 351
L 168 351
L 169 351
L 170 351
L 170 351
L 171 351
L 172 351
L 173 351
L 174 351
L 174 351
L 175 351
L 176 351
L 177 351
L 178 351
L 179 351
L 179 351
L 180 351
L 181 351
L 182 351
L 183 351
L 184 351
L 184 351
L 185 351
L 186 351
L 187 351
L 188 351
L 188 351
L 189 351
L 190 351
L 191 351
L 192 351
L 193 351
L 193 351
L 194 351
L 195 351
L 196 351
L 197 351
L 198 351
L 198 351
L 199 351
L 200 351
L 201 351
L 202 351
L 202 351
L 203 351
L 204 351
L 205 351
L 206 351
L 207 351
L 207 351
L 208 351
L 209 351
L 210 351
L 211 351
L 212 351
L 212 351
L 213 351
L 214 351
L 215 351
L 216 351
L 217 351
L 217 351
L 218 351
L 219 351
L 220 351
L 221 351
L 221 351
L 222 351
L 223 351
L 224 351
L 225 351
L 226 351
L 226 350
L 227 351
L 228 351
L 229 351
L 230 351
L 231 351
L 231 351
L 232 351
L 233 351
L 234 351
L 235 351
L 235 351
L 236 350
L 237 351
L 238 351
L 239 350
L 240 351
L 240 350
L 241 350
L 242 351
L 243 351
L 244 351
L 245 351
L 245 350
L 246 350
L 247 351
L 248 350
L 249 350
L 249 351
L 250 350
L 251 351
L 252 350
L 253 350
L 254 350
L 254 351
L 255 351
L 256 350
L 257 351
L 258 351
L 259 350
L 259 351
L 260 350
L 261 351
L 262 350
L 263 350
L 263 350
L 264 351
L 265 350
L 266 350
L 267 351
L 268 350
L 268 350
L 269 350
L 270 350
L 271 350
L 272 350
L 273 350
L 273 350
L 274 350
L 275 350
L 276 350
L 277 350
L 277 351
L 278 350
L 279 350
L 280 350
L 281 350
L 282 351
L 282 351
L 283 350
L 284 350
L 285 351
L 286 351
L 287 350
L 287 350
L 288 351
L 289 351
L 290 350
L 291 351
L 292 351
L 292 350
L 293 350
L 294 351
L 295 351
L 296 351
L 296 351
L 297 351
L 298 351
L 299 351
L 300 351
L 301 351
L 301 350
L 302 351
L 303 350
L 304 351
L 305 350
L 306 350
L 306 350
L 307 350
L 308 351
L 309 350
L 310 351
L 310 351
L 311 350
L 312 351
L 313 350
L 314 351
L 315 351
L 315 351
L 316 350
L 317 351
L 318 351
L 319 350
L 320 351
L 320 351
L 321 350
L 322 351
L 323 351
L 324 351
L 324 351
L 325 351
L 326 350
L 327 351
L 328 350
L 329 350
L 329 351
L 330 351
L 331 351
L 332 351
L 333 351
L 334 351
L 334 351
L 335 351
L 336 351
L 337 351
L 338 351
L 338 351
L 339 351
L 340 351
L 341 351
L 342 351
L 343 351
L 343 351
L 344 351
L 345 350
L 346 351
L 347 351
L 348 351
L 348 351
L 349 351
L 350 351
L 351 351
L 352 351
L 352 351
L 353 351
L 354 351
L 355 351
L 356 351
L 357 351
L 357 350
L 358 351
L 359 351
L 360 351
L 361 351
L 362 351
L 362 351
L 363 351
L 364 351
L 365 351
L 366 351
L 366 351
L 367 350
L 368 350
L 369 351
L 370 351
L 371 351
L 371 350
L 372 350
L 373 351
L 374 351
L 375 350
L 376 350
L 376 351
L 377 351
L 378 351
L 379 350
L 380 351
L 381 350
L 381 351
L 382 350
L 383 351
L 384 351
L 385 351
L 385 351
L 386 351
L 387 350
L 388 350
L 389 350
L 390 351
L 390 351
L 391 351
L 392 350
L 393 351
L 394 350
L 395 350
L 395 350
L 396 351
L 397 350
L 398 350
L 399 351
L 399 351
L 400 351
L 401 351
L 402 350
L 403 351
L 404 350
L 404 351
L 405 351
L 406 351
L 407 351
L 408 351
L 409 351
L 409 351
L 410 351
L 411 351
L 412 351
L 413 351
L 413 351
L 414 351
L 415 350
L 416 350
L 417 351
L 418 351
L 418 351
L 419 351
L 420 351
L 421 351
L 422 351
L 423 351
L 423 351
L 424 351
L 425 351
L 426 351
L 427 351
L 427 351
L 428 351
L 429 351
L 430 351
L 431 351
L 432 351
L 432 351
L 433 351
L 434 351
L 435 351
L 436 351
L 437 351
L 437 351
L 438 351
L 439 351
L 440 351
L 441 351
L 441 351
L 442 351
L 443 351
L 444 351
L 445 351
L 446 351
L 446 351
L 447 351
L 448 351
L 449 351
L 450 351
L 451 351
L 451 351
L 452 351
L 453 351
L 454 351
L 455 351
L 455 351
L 456 351
L 457 351
L 458 351
L 459 351
L 460 351
L 460 351
L 461 351
L 462 351
L 463 351
L 464 351
L 465 351
L 465 351
L 466 351
L 467 351
L 468 351
L 469 351
L 470 351
L 470 351
L 471 351
L 472 351
L 473 351
L 474 351
L 474 351
L 475 351
L 476 351
L 477 351
L 478 351
L 479 351
L 479 351
L 480 351
L 481 351
L 482 351
L 483 351
L 484 351
L 484 351
L 485 351
L 486 351
L 487 351
L 488 351
L 488 351
L 489 351
L 490 351
L 491 351
L 492 351
L 493 351
L 493 351
L 494 351
L 495 351
L 496 351
L 497 351
L 498 351
L 498 351
L 499 351
L 500 351
L 501 351
L 502 351
L 502 351
L 503 351
L 504 351
L 505 350
L 506 351
L 507 351
L 507 351
L 508 351
L 509 350
L 510 351
L 511 351
L 512 351
L 512 351
L 513 351
L 514 350
L 515 351
L 516 351
L 516 351
L 517 351
L 518 351
L 519 350
L 520 351
L 521 351
L 521 351
L 522 351
L 523 351
L 524 351
L 525 351
L 526 351
L 526 351
L 527 350
L 528 351
L 529 351
L 530 351
L 530 351
L 531 351
L 532 351
L 533 351
L 534 351
L 535 351
L 535 351
L 536 351
L 537 351
L 538 351
L 539 351
L 540 351
L 540 351
L 541 351
L 542 351
L 543 351
L 544 351
L 545 351
L 545 351
L 546 351
L 547 351
L 548 351
L 549 351
L 549 351
L 550 351
L 551 351
L 552 351
L 553 351
L 554 351
L 554 351
L 555 351
L 556 351
L 557 351
L 558 351
L 559 351
L 559 351
L 560 350
L 561 351
L 562 350
L 563 350
L 563 351
L 564 351
L 565 351
L 566 350
L 567 351
L 568 351
L 568 351
L 569 351
L 570 351
L 571 351
L 572 351
L 573 350
L 573 351
L 574 350
L 575 351
L 576 351
L 577 351
L 577 351
L 578 350
L 579 351
L 580 350
L 581 351
L 582 350
L 582 350
L 583 351
L 584 351
L 585 351
L 586 351
L 587 351
L 587 351
L 588 351
L 589 351
L 590 351
L 591 351
L 591 350
L 592 351
L 593 350
L 594 351
L 595 351
L 596 350
L 596 351
L 597 351
L 598 351
L 599 350
L 600 351
L 601 351
L 601 350
L 602 351
L 603 351
L 604 351
L 605 351
L 605 351
L 606 351
L 607 351
L 608 351
L 609 351
L 610 351
L 610 351
L 611 351
L 612 351
L 613 350
L 614 351
L 615 351
L 615 351
L 616 351
L 617 351
L 618 351
L 619 351
L 619 351
L 620 351
L 621 351
L 622 351
L 623 350
L 624 351
L 624 351
L 625 351
L 626 350
L 627 351
L 628 351
L 629 351
L 629 350
L 630 350
L 631 351
L 632 350
L 633 351
L 634 351
L 634 351
L 635 350
L 636 351
L 637 351
L 638 350
L 638 351
L 639 351
L 640 351
L 641 351
L 642 351
L 643 350
L 643 351
L 644 351
L 645 351
L 646 351
L 647 351
L 648 351
L 648 350
L 649 350
L 650 351
L 651 350
L 652 351
L 652 351
L 653 351
L 654 351
L 655 351
L 656 351
L 657 351
L 657 351
L 658 350
L 659 351
L 660 351
L 661 350
L 662 351
L 662 350
L 663 351
L 664 350
L 665 351
L 666 351
L 666 351
L 667 351
L 668 350
L 669 351
L 670 351
L 671 351
L 671 351
L 672 351
L 673 350
L 674 350
L 675 351
L 676 351
L 676 351
L 677 351
L 678 350
L 679 351
L 680 351
L 680 351
L 681 351
L 682 351
L 683 351
L 684 351
L 685 351
L 685 351
L 686 351
L 687 351
L 688 351
L 689 351
L 690 351
L 690 351
L 691 351
L 692 351
L 693 351
L 694 351
L 694 351
L 695 351
L 696 351
L 697 351
L 698 351
L 699 351
L 699 351
L 700 351
L 701 351
L 702 351
L 703 351
L 704 351
L 704 351
L 705 351
L 706 351
L 707 351
L 708 351
L 708 351
L 709 351
L 710 351
L 711 351
L 712 351
L 713 351
L 713 351
L 714 351
L 715 351
L 716 351
L 717 351
L 718 351
L 718 351
L 719 351
L 720 350
L 721 351
L 722 351
L 723 351
L 723 351
L 724 351
L 725 351
L 726 351
L 727 351
L 727 351
L 728 351
L 729 351
L 730 351
L 731 351
L 732 351
L 732 351
L 733 351
L 734 351
L 735 351
L 736 351
L 737 351
L 737 351
L 738 351
L 739 351
L 740 351
L 741 351
L 741 351
L 742 351
L 743 351
L 744 351
L 745 351
L 746 351
L 746 350
L 747 351
L 748 351
L 749 351
L 750 351
L 751 351
L 751 351
L 752 351
L 753 351
L 754 351
L 755 351
L 755 351
L 756 351
L 757 351
L 758 351
L 759 351
L 760 351
L 760 351
L 761 351
L 762 351
L 763 351
L 764 351
L 765 351
L 765 351
L 766 351
L 767 351
L 768 351
L 769 351
L 769 351
L 770 351
L 771 351
L 772 351
L 773 351
L 774 351
L 774 351
L 775 351
L 776 351
L 777 350
L 778 351
L 779 351
L 779 351
L 780 351
L 781 351
L 782 351
L 783 351
L 783 351
L 784 350
L 785 351
L 786 351
L 787 351
L 788 351
L 788 351
L 789 351
L 790 351
L 791 351
L 792 351
L 793 351
L 793 351
L 794 351
L 795 351
L 796 351
L 797 351
L 798 351
L 798 351
L 799 351
L 800 351
L 801 351
L 802 351
L 802 350
L 803 351
L 804 351
L 805 351
L 806 351
L 807 351
L 807 351
L 808 351
L 809 351
L 810 351
L 811 351
L 812 351
L 812 351
L 813 351
L 814 351
L 815 351
L 816 351
L 816 351
L 817 351
L 818 351
L 819 351
L 820 351
L 821 351
L 821 351
L 822 350
L 823 351
L 824 351
L 825 351
L 826 351
L 826 351
L 827 351
L 828 350
L 829 351
L 830 351
L 830 351
L 831 351
L 832 351
L 833 351
L 834 351
L 835 351
L 835 351
L 836 351
L 837 351
L 838 350
L 839 351
L 840 351
L 840 351
L 841 351
L 842 351
L 843 351
L 844 351
L 844 351
L 845 351
L 846 351
L 847 351
L 848 351
L 849 351
L 849 351
L 850 351
L 851 351
L 852 351
L 853 351
L 854 351
L 854 351
L 855 351
L 856 351
L 857 351
L 858 351
L 858 351
L 859 350
L 860 351
L 861 351
L 862 351
L 863 351
L 863 351
L 864 351
L 865 351
L 866 351
L 867 351
L 868 351
L 868 351
L 869 351
L 870 351
L 871 351
L 872 351
L 872 351
L 873 351
L 874 351
L 875 351
L 876 351
L 877 351
L 877 351
L 878 351
L 879 351
L 880 351
L 881 351
L 882 351
L 882 351
L 883 351
L 884 350
L 885 351
L 886 351
L 887 350
L 887 350
L 888 351
L 889 351
L 890 351
L 891 351
L 891 351
L 892 351
L 893 351
L 894 351
L 895 351
L 896 351
L 896 351
L 897 351
L 898 351
L 899 351
L 900 351
L 901 351
L 901 351
L 902 351
L 903 351
L 904 351
L 905 351
L 905 351
L 906 351
L 907 351
L 908 351
L 909 351
L 910 351
L 910 351
L 911 351
L 912 351
L 913 351
L 914 351
L 915 351
L 915 351
L 916 351
L 917 351
L 918 351
L 919 351
L 919 351
L 920 351
L 921 350
L 922 351
L 923 351
L 924 351
L 924 351
L 925 351
L 926 351
L 927 351
L 928 351
L 929 351
L 929 351
L 930 351
L 931 351
L 932 351
L 933 351
L 933 351
L 934 351
L 935 351
L 936 351
L 937 351
L 938 351
L 938 351
L 939 351
L 940 351
L 941 351
L 942 351
L 943 351
L 943 351
L 944 351
L 945 351
L 946 351
L 947 351
L 947 351
L 948 351
L 949 351
L 950 351
L 951 351
L 952 351
L 952 351
L 953 351
L 954 351
L 955 351
L 956 351
L 957 351
L 957 351
L 958 351
L 959 351
L 960 351
L 961 351
L 961 351" style="stroke-width:1;stroke:rgba(217,0,116,1.0);fill:none"/><text x="400" y="33" style="stroke-width:0;stroke:none;fill:rgba(51,51,51,1.0);font-size:23.0px;font-family:'Roboto Medium',sans-serif">Voitsberg 22.03.2023</text><path  d="M 38 11
L 251 11
L 251 91
L 38 91
L 38 11" style="stroke-width:1;stroke:rgba(51,51,51,1.0);fill:rgba(255,255,255,1.0)"/><text x="43" y="26" style="stroke-width:0;stroke:none;fill:rgba(51,51,51,1.0);font-size:10.2px;font-family:'Roboto Medium',sans-serif">Sieben Tage Durschnitt Inzidenz Fälle</text><path  d="M 221 21
L 241 21" style="stroke-width:1;stroke:rgba(0,116,217,1.0);fill:none"/><text x="43" y="56" style="stroke-width:0;stroke:none;fill:rgba(51,51,51,1.0);font-size:10.2px;font-family:'Roboto Medium',sans-serif">Anzahl Faelle</text><path  d="M 110 51
L 241 51" style="stroke-width:1;stroke:rgba(0,217,101,1.0);fill:none"/><text x="43" y="86" style="stroke-width:0;stroke:none;fill:rgba(51,51,51,1.0);font-size:10.2px;font-family:'Roboto Medium',sans-serif">Anzahl Tot</text><path  d="M 98 81
L 241 81" style="stroke-width:1;stroke:rgba(217,0,116,1.0);fill:none"/></svg>