<svg xmlns="http://www.w3.org/2000/svg" xmlns:xlink="http://www.w3.org/1999/xlink" width="1024" height="400">\n<path  d="M 0 0
L 1024 0
L 1024 400
L 0 400
L 0 0" style="stroke-width:0;stroke:rgba(255,255,255,1.0);fill:rgba(255,255,255,1.0)"/><path  d="M 38 11
L 969 11
L 969 351
L 38 351
L 38 11" style="stroke-width:0;stroke:rgba(255,255,255,1.0);fill:rgba(255,255,255,1.0)"/><path  d="M 38 351
L 969 351" style="stroke-width:1;stroke:rgba(51,51,51,1.0);fill:none"/><path  d="M 38 351
L 38 356" style="stroke-width:1;stroke:rgba(51,51,51,1.0);fill:none"/><text x="5" y="373" style="stroke-width:0;stroke:none;fill:rgba(51,51,51,1.0);font-size:12.8px;font-family:'Roboto Medium',sans-serif">2020-02-26</text><path  d="M 155 351
L 155 356" style="stroke-width:1;stroke:rgba(51,51,51,1.0);fill:none"/><text x="122" y="373" style="stroke-width:0;stroke:none;fill:rgba(51,51,51,1.0);font-size:12.8px;font-family:'Roboto Medium',sans-serif">2020-05-03</text><path  d="M 271 351
L 271 356" style="stroke-width:1;stroke:rgba(51,51,51,1.0);fill:none"/><text x="238" y="373" style="stroke-width:0;stroke:none;fill:rgba(51,51,51,1.0);font-size:12.8px;font-family:'Roboto Medium',sans-serif">2020-07-09</text><path  d="M 388 351
L 388 356" style="stroke-width:1;stroke:rgba(51,51,51,1.0);fill:none"/><text x="355" y="373" style="stroke-width:0;stroke:none;fill:rgba(51,51,51,1.0);font-size:12.8px;font-family:'Roboto Medium',sans-serif">2020-09-14</text><path  d="M 504 351
L 504 356" style="stroke-width:1;stroke:rgba(51,51,51,1.0);fill:none"/><text x="471" y="373" style="stroke-width:0;stroke:none;fill:rgba(51,51,51,1.0);font-size:12.8px;font-family:'Roboto Medium',sans-serif">2020-11-20</text><path  d="M 620 351
L 620 356" style="stroke-width:1;stroke:rgba(51,51,51,1.0);fill:none"/><text x="587" y="373" style="stroke-width:0;stroke:none;fill:rgba(51,51,51,1.0);font-size:12.8px;font-family:'Roboto Medium',sans-serif">2021-01-26</text><path  d="M 737 351
L 737 356" style="stroke-width:1;stroke:rgba(51,51,51,1.0);fill:none"/><text x="704" y="373" style="stroke-width:0;stroke:none;fill:rgba(51,51,51,1.0);font-size:12.8px;font-family:'Roboto Medium',sans-serif">2021-04-03</text><path  d="M 853 351
L 853 356" style="stroke-width:1;stroke:rgba(51,51,51,1.0);fill:none"/><text x="820" y="373" style="stroke-width:0;stroke:none;fill:rgba(51,51,51,1.0);font-size:12.8px;font-family:'Roboto Medium',sans-serif">2021-06-09</text><path  d="M 969 351
L 969 356" style="stroke-width:1;stroke:rgba(51,51,51,1.0);fill:none"/><text x="936" y="373" style="stroke-width:0;stroke:none;fill:rgba(51,51,51,1.0);font-size:12.8px;font-family:'Roboto Medium',sans-serif">2021-08-16</text><text x="485" y="395" style="stroke-width:0;stroke:none;fill:rgba(51,51,51,1.0);font-size:12.8px;font-family:'Roboto Medium',sans-serif">Datum</text><path  d="M 970 351
L 970 11" style="stroke-width:1;stroke:rgba(51,51,51,1.0);fill:none"/><path  d="M 970 351
L 975 351" style="stroke-width:1;stroke:rgba(51,51,51,1.0);fill:none"/><text x="980" y="357" style="stroke-width:0;stroke:none;fill:rgba(51,51,51,1.0);font-size:12.8px;font-family:'Roboto Medium',sans-serif">0.00</text><path  d="M 970 308
L 975 308" style="stroke-width:1;stroke:rgba(51,51,51,1.0);fill:none"/><text x="980" y="314" style="stroke-width:0;stroke:none;fill:rgba(51,51,51,1.0);font-size:12.8px;font-family:'Roboto Medium',sans-serif">90.00</text><path  d="M 970 266
L 975 266" style="stroke-width:1;stroke:rgba(51,51,51,1.0);fill:none"/><text x="980" y="272" style="stroke-width:0;stroke:none;fill:rgba(51,51,51,1.0);font-size:12.8px;font-family:'Roboto Medium',sans-serif">180.00</text><path  d="M 970 223
L 975 223" style="stroke-width:1;stroke:rgba(51,51,51,1.0);fill:none"/><text x="980" y="229" style="stroke-width:0;stroke:none;fill:rgba(51,51,51,1.0);font-size:12.8px;font-family:'Roboto Medium',sans-serif">270.00</text><path  d="M 970 181
L 975 181" style="stroke-width:1;stroke:rgba(51,51,51,1.0);fill:none"/><text x="980" y="187" style="stroke-width:0;stroke:none;fill:rgba(51,51,51,1.0);font-size:12.8px;font-family:'Roboto Medium',sans-serif">360.00</text><path  d="M 970 138
L 975 138" style="stroke-width:1;stroke:rgba(51,51,51,1.0);fill:none"/><text x="980" y="144" style="stroke-width:0;stroke:none;fill:rgba(51,51,51,1.0);font-size:12.8px;font-family:'Roboto Medium',sans-serif">450.00</text><path  d="M 970 96
L 975 96" style="stroke-width:1;stroke:rgba(51,51,51,1.0);fill:none"/><text x="980" y="102" style="stroke-width:0;stroke:none;fill:rgba(51,51,51,1.0);font-size:12.8px;font-family:'Roboto Medium',sans-serif">540.00</text><path  d="M 970 53
L 975 53" style="stroke-width:1;stroke:rgba(51,51,51,1.0);fill:none"/><text x="980" y="59" style="stroke-width:0;stroke:none;fill:rgba(51,51,51,1.0);font-size:12.8px;font-family:'Roboto Medium',sans-serif">630.00</text><path  d="M 970 11
L 975 11" style="stroke-width:1;stroke:rgba(51,51,51,1.0);fill:none"/><text x="980" y="17" style="stroke-width:0;stroke:none;fill:rgba(51,51,51,1.0);font-size:12.8px;font-family:'Roboto Medium',sans-serif">720.00</text><path  d="M 38 351
L 40 351
L 42 351
L 44 351
L 45 351
L 47 351
L 49 351
L 51 351
L 52 351
L 54 351
L 56 351
L 58 351
L 59 351
L 61 351
L 63 351
L 65 350
L 66 349
L 68 349
L 70 347
L 71 346
L 73 342
L 75 342
L 77 342
L 78 342
L 80 341
L 82 343
L 84 335
L 85 330
L 87 325
L 89 320
L 91 313
L 92 305
L 94 301
L 96 309
L 97 312
L 99 314
L 101 321
L 103 325
L 104 334
L 106 334
L 108 336
L 110 338
L 111 339
L 113 336
L 115 338
L 117 338
L 118 341
L 120 341
L 122 344
L 123 345
L 125 348
L 127 349
L 129 349
L 130 350
L 132 350
L 134 349
L 136 348
L 137 349
L 139 348
L 141 347
L 143 345
L 144 345
L 146 346
L 148 346
L 149 346
L 151 347
L 153 348
L 155 349
L 156 349
L 158 349
L 160 349
L 162 348
L 163 348
L 165 348
L 167 349
L 169 349
L 170 349
L 172 350
L 174 351
L 175 351
L 177 351
L 179 351
L 181 351
L 182 351
L 184 351
L 186 351
L 188 351
L 189 351
L 191 351
L 193 351
L 195 351
L 196 351
L 198 351
L 200 351
L 201 351
L 203 351
L 205 351
L 207 351
L 208 351
L 210 351
L 212 351
L 214 351
L 215 351
L 217 351
L 219 351
L 221 351
L 222 351
L 224 351
L 226 351
L 227 351
L 229 351
L 231 351
L 233 351
L 234 351
L 236 351
L 238 351
L 240 351
L 241 351
L 243 351
L 245 351
L 247 351
L 248 351
L 250 351
L 252 351
L 253 351
L 255 351
L 257 351
L 259 351
L 260 351
L 262 351
L 264 351
L 266 351
L 267 351
L 269 351
L 271 351
L 273 351
L 274 351
L 276 351
L 278 351
L 279 351
L 281 351
L 283 351
L 285 351
L 286 351
L 288 351
L 290 351
L 292 351
L 293 351
L 295 351
L 297 351
L 299 351
L 300 351
L 302 351
L 304 351
L 305 351
L 307 351
L 309 351
L 311 351
L 312 351
L 314 350
L 316 350
L 318 350
L 319 350
L 321 350
L 323 350
L 325 350
L 326 351
L 328 351
L 330 351
L 331 350
L 333 350
L 335 349
L 337 349
L 338 349
L 340 348
L 342 348
L 344 349
L 345 349
L 347 350
L 349 350
L 351 350
L 352 351
L 354 350
L 356 350
L 358 350
L 359 349
L 361 349
L 363 348
L 364 348
L 366 349
L 368 349
L 370 349
L 371 350
L 373 350
L 375 351
L 377 350
L 378 350
L 380 350
L 382 348
L 384 347
L 385 347
L 387 347
L 389 348
L 390 344
L 392 344
L 394 345
L 396 345
L 397 340
L 399 340
L 401 340
L 403 339
L 404 339
L 406 332
L 408 333
L 410 335
L 411 333
L 413 333
L 415 335
L 416 330
L 418 337
L 420 333
L 422 335
L 423 336
L 425 330
L 427 330
L 429 332
L 430 328
L 432 317
L 434 314
L 436 310
L 437 303
L 439 300
L 441 298
L 442 299
L 444 308
L 446 304
L 448 303
L 449 308
L 451 298
L 453 289
L 455 279
L 456 265
L 458 262
L 460 259
L 462 250
L 463 258
L 465 238
L 467 229
L 468 229
L 470 220
L 472 220
L 474 199
L 475 182
L 477 183
L 479 187
L 481 179
L 482 138
L 484 118
L 486 140
L 488 111
L 489 89
L 491 42
L 493 24
L 494 65
L 496 60
L 498 15
L 500 45
L 501 69
L 503 38
L 505 50
L 507 54
L 508 65
L 510 94
L 512 84
L 514 77
L 515 146
L 517 145
L 519 146
L 520 154
L 522 161
L 524 178
L 526 190
L 527 207
L 529 221
L 531 230
L 533 235
L 534 248
L 536 254
L 538 263
L 540 263
L 541 274
L 543 271
L 545 275
L 546 272
L 548 276
L 550 283
L 552 286
L 553 295
L 555 303
L 557 303
L 559 305
L 560 303
L 562 303
L 564 312
L 566 311
L 567 306
L 569 307
L 571 308
L 572 311
L 574 313
L 576 309
L 578 310
L 579 312
L 581 306
L 583 309
L 585 295
L 586 296
L 588 293
L 590 287
L 592 265
L 593 274
L 595 273
L 597 289
L 598 291
L 600 289
L 602 283
L 604 306
L 605 302
L 607 301
L 609 298
L 611 300
L 612 289
L 614 301
L 616 300
L 618 300
L 619 303
L 621 303
L 623 300
L 624 315
L 626 310
L 628 312
L 630 311
L 631 311
L 633 312
L 635 308
L 637 312
L 638 316
L 640 315
L 642 317
L 644 323
L 645 324
L 647 326
L 649 324
L 650 325
L 652 325
L 654 325
L 656 325
L 657 328
L 659 326
L 661 324
L 663 322
L 664 321
L 666 321
L 668 318
L 670 312
L 671 319
L 673 319
L 675 318
L 677 320
L 678 319
L 680 315
L 682 316
L 683 310
L 685 301
L 687 302
L 689 293
L 690 283
L 692 287
L 694 283
L 696 281
L 697 278
L 699 270
L 701 279
L 703 281
L 704 281
L 706 247
L 708 241
L 709 229
L 711 224
L 713 212
L 715 210
L 716 196
L 718 227
L 720 226
L 722 254
L 723 263
L 725 256
L 727 263
L 729 274
L 730 277
L 732 274
L 734 266
L 735 253
L 737 259
L 739 257
L 741 245
L 742 242
L 744 248
L 746 231
L 748 229
L 749 236
L 751 231
L 753 241
L 755 245
L 756 236
L 758 256
L 760 265
L 761 264
L 763 263
L 765 262
L 767 242
L 768 243
L 770 240
L 772 229
L 774 224
L 775 234
L 777 216
L 779 225
L 781 231
L 782 228
L 784 240
L 786 244
L 787 249
L 789 265
L 791 271
L 793 273
L 794 278
L 796 275
L 798 282
L 800 281
L 801 287
L 803 295
L 805 306
L 807 311
L 808 322
L 810 316
L 812 314
L 813 313
L 815 319
L 817 320
L 819 318
L 820 323
L 822 332
L 824 338
L 826 344
L 827 338
L 829 337
L 831 338
L 833 335
L 834 334
L 836 332
L 838 331
L 839 331
L 841 331
L 843 331
L 845 334
L 846 333
L 848 335
L 850 331
L 852 335
L 853 338
L 855 339
L 857 341
L 859 343
L 860 343
L 862 348
L 864 351
L 865 350
L 867 349
L 869 349
L 871 349
L 872 349
L 874 349
L 876 349
L 878 350
L 879 351
L 881 351
L 883 351
L 885 351
L 886 351
L 888 351
L 890 351
L 891 351
L 893 351
L 895 351
L 897 351
L 898 350
L 900 350
L 902 350
L 904 347
L 905 346
L 907 345
L 909 339
L 911 337
L 912 336
L 914 331
L 916 331
L 917 329
L 919 329
L 921 333
L 923 337
L 924 338
L 926 339
L 928 341
L 930 344
L 931 344
L 933 342
L 935 337
L 937 335
L 938 338
L 940 336
L 942 336
L 943 337
L 945 340
L 947 344
L 949 344
L 950 344
L 952 347
L 954 344
L 956 342
L 957 342
L 959 341
L 961 342
L 963 341
L 964 340
L 966 341
L 968 342
L 969 339" style="stroke-width:1;stroke:rgba(0,116,217,1.0);fill:none"/><path  d="M 38 351
L 40 351
L 42 351
L 44 351
L 45 351
L 47 351
L 49 351
L 51 351
L 52 351
L 54 351
L 56 351
L 58 351
L 59 351
L 61 351
L 63 351
L 65 350
L 66 350
L 68 351
L 70 350
L 71 350
L 73 349
L 75 351
L 77 350
L 78 350
L 80 350
L 82 351
L 84 346
L 85 346
L 87 348
L 89 347
L 91 347
L 92 346
L 94 349
L 96 350
L 97 348
L 99 350
L 101 351
L 103 349
L 104 350
L 106 349
L 108 351
L 110 349
L 111 350
L 113 349
L 115 350
L 117 351
L 118 350
L 120 351
L 122 351
L 123 351
L 125 350
L 127 351
L 129 351
L 130 351
L 132 351
L 134 350
L 136 350
L 137 351
L 139 350
L 141 350
L 143 350
L 144 351
L 146 351
L 148 350
L 149 351
L 151 351
L 153 351
L 155 350
L 156 351
L 158 351
L 160 350
L 162 350
L 163 351
L 165 351
L 167 351
L 169 351
L 170 351
L 172 351
L 174 351
L 175 351
L 177 351
L 179 351
L 181 351
L 182 351
L 184 351
L 186 351
L 188 351
L 189 351
L 191 351
L 193 351
L 195 351
L 196 351
L 198 351
L 200 351
L 201 351
L 203 351
L 205 351
L 207 351
L 208 351
L 210 351
L 212 351
L 214 351
L 215 351
L 217 351
L 219 351
L 221 351
L 222 351
L 224 351
L 226 351
L 227 351
L 229 351
L 231 351
L 233 351
L 234 351
L 236 351
L 238 351
L 240 351
L 241 351
L 243 351
L 245 351
L 247 351
L 248 351
L 250 351
L 252 351
L 253 351
L 255 351
L 257 351
L 259 351
L 260 351
L 262 351
L 264 351
L 266 351
L 267 351
L 269 351
L 271 351
L 273 351
L 274 351
L 276 351
L 278 351
L 279 351
L 281 351
L 283 351
L 285 351
L 286 351
L 288 351
L 290 351
L 292 351
L 293 351
L 295 351
L 297 351
L 299 351
L 300 351
L 302 351
L 304 351
L 305 351
L 307 351
L 309 351
L 311 351
L 312 351
L 314 350
L 316 351
L 318 351
L 319 351
L 321 351
L 323 351
L 325 351
L 326 351
L 328 351
L 330 351
L 331 350
L 333 351
L 335 350
L 337 351
L 338 351
L 340 350
L 342 351
L 344 351
L 345 351
L 347 351
L 349 351
L 351 351
L 352 351
L 354 350
L 356 351
L 358 351
L 359 350
L 361 351
L 363 350
L 364 351
L 366 351
L 368 351
L 370 351
L 371 351
L 373 351
L 375 351
L 377 350
L 378 351
L 380 351
L 382 350
L 384 350
L 385 351
L 387 351
L 389 351
L 390 349
L 392 351
L 394 350
L 396 350
L 397 348
L 399 351
L 401 351
L 403 348
L 404 351
L 406 346
L 408 351
L 410 349
L 411 350
L 413 351
L 415 349
L 416 348
L 418 350
L 420 349
L 422 350
L 423 350
L 425 348
L 427 349
L 429 349
L 430 348
L 432 343
L 434 349
L 436 348
L 437 344
L 439 348
L 441 348
L 442 348
L 444 348
L 446 347
L 448 347
L 449 347
L 451 342
L 453 343
L 455 343
L 456 341
L 458 345
L 460 345
L 462 342
L 463 346
L 465 334
L 467 338
L 468 341
L 470 341
L 472 345
L 474 332
L 475 337
L 477 334
L 479 341
L 481 336
L 482 320
L 484 335
L 486 343
L 488 323
L 489 323
L 491 317
L 493 327
L 494 341
L 496 333
L 498 320
L 500 338
L 501 335
L 503 301
L 505 334
L 507 342
L 508 338
L 510 335
L 512 333
L 514 332
L 515 336
L 517 333
L 519 343
L 520 342
L 522 339
L 524 341
L 526 338
L 527 344
L 529 340
L 531 348
L 533 345
L 534 345
L 536 344
L 538 342
L 540 344
L 541 346
L 543 346
L 545 347
L 546 343
L 548 347
L 550 346
L 552 346
L 553 351
L 555 350
L 557 347
L 559 344
L 560 346
L 562 346
L 564 351
L 566 350
L 567 348
L 569 348
L 571 345
L 572 347
L 574 347
L 576 348
L 578 350
L 579 349
L 581 344
L 583 346
L 585 340
L 586 348
L 588 347
L 590 347
L 592 338
L 593 349
L 595 346
L 597 349
L 598 349
L 600 346
L 602 343
L 604 350
L 605 347
L 607 345
L 609 347
L 611 350
L 612 340
L 614 350
L 616 349
L 618 347
L 619 347
L 621 347
L 623 348
L 624 348
L 626 347
L 628 350
L 630 347
L 631 347
L 633 347
L 635 346
L 637 351
L 638 349
L 640 350
L 642 348
L 644 350
L 645 348
L 647 348
L 649 349
L 650 349
L 652 350
L 654 348
L 656 350
L 657 349
L 659 347
L 661 348
L 663 348
L 664 349
L 666 348
L 668 349
L 670 346
L 671 350
L 673 348
L 675 348
L 677 350
L 678 347
L 680 347
L 682 347
L 683 347
L 685 343
L 687 348
L 689 345
L 690 342
L 692 349
L 694 345
L 696 346
L 697 342
L 699 344
L 701 350
L 703 343
L 704 349
L 706 327
L 708 343
L 709 336
L 711 341
L 713 344
L 715 342
L 716 342
L 718 343
L 720 342
L 722 350
L 723 346
L 725 341
L 727 345
L 729 347
L 730 345
L 732 341
L 734 346
L 735 339
L 737 343
L 739 344
L 741 341
L 742 344
L 744 344
L 746 337
L 748 338
L 749 347
L 751 342
L 753 346
L 755 346
L 756 340
L 758 347
L 760 343
L 761 346
L 763 342
L 765 345
L 767 335
L 768 340
L 770 346
L 772 337
L 774 343
L 775 347
L 777 336
L 779 340
L 781 343
L 782 344
L 784 343
L 786 345
L 787 349
L 789 345
L 791 343
L 793 344
L 794 347
L 796 342
L 798 349
L 800 349
L 801 348
L 803 347
L 805 350
L 807 350
L 808 348
L 810 346
L 812 348
L 813 347
L 815 350
L 817 350
L 819 349
L 820 350
L 822 351
L 824 351
L 826 351
L 827 347
L 829 349
L 831 350
L 833 348
L 834 350
L 836 350
L 838 350
L 839 347
L 841 349
L 843 350
L 845 350
L 846 350
L 848 351
L 850 348
L 852 349
L 853 351
L 855 351
L 857 351
L 859 351
L 860 351
L 862 351
L 864 351
L 865 350
L 867 350
L 869 351
L 871 351
L 872 351
L 874 351
L 876 351
L 878 351
L 879 351
L 881 351
L 883 351
L 885 351
L 886 351
L 888 351
L 890 351
L 891 351
L 893 351
L 895 351
L 897 351
L 898 350
L 900 351
L 902 351
L 904 349
L 905 350
L 907 350
L 909 348
L 911 349
L 912 350
L 914 348
L 916 349
L 917 349
L 919 350
L 921 350
L 923 351
L 924 351
L 926 349
L 928 350
L 930 351
L 931 350
L 933 349
L 935 348
L 937 350
L 938 351
L 940 349
L 942 351
L 943 351
L 945 351
L 947 350
L 949 350
L 950 351
L 952 351
L 954 349
L 956 350
L 957 351
L 959 349
L 961 350
L 963 350
L 964 350
L 966 350
L 968 350
L 969 349" style="stroke-width:1;stroke:rgba(0,217,101,1.0);fill:none"/><path  d="M 38 351
L 40 351
L 42 351
L 44 351
L 45 351
L 47 351
L 49 351
L 51 351
L 52 351
L 54 351
L 56 351
L 58 351
L 59 351
L 61 351
L 63 351
L 65 351
L 66 351
L 68 351
L 70 351
L 71 351
L 73 351
L 75 351
L 77 351
L 78 351
L 80 351
L 82 351
L 84 351
L 85 351
L 87 351
L 89 351
L 91 351
L 92 350
L 94 351
L 96 351
L 97 351
L 99 350
L 101 351
L 103 350
L 104 350
L 106 351
L 108 351
L 110 351
L 111 351
L 113 351
L 115 351
L 117 351
L 118 351
L 120 351
L 122 351
L 123 351
L 125 351
L 127 351
L 129 351
L 130 351
L 132 351
L 134 351
L 136 351
L 137 351
L 139 351
L 141 351
L 143 351
L 144 351
L 146 351
L 148 351
L 149 351
L 151 351
L 153 351
L 155 351
L 156 351
L 158 351
L 160 351
L 162 351
L 163 351
L 165 351
L 167 351
L 169 351
L 170 351
L 172 351
L 174 351
L 175 351
L 177 351
L 179 351
L 181 351
L 182 351
L 184 351
L 186 351
L 188 350
L 189 351
L 191 351
L 193 351
L 195 351
L 196 351
L 198 351
L 200 351
L 201 351
L 203 351
L 205 351
L 207 351
L 208 351
L 210 351
L 212 351
L 214 351
L 215 351
L 217 351
L 219 351
L 221 351
L 222 351
L 224 351
L 226 351
L 227 351
L 229 351
L 231 351
L 233 351
L 234 351
L 236 351
L 238 351
L 240 351
L 241 351
L 243 351
L 245 351
L 247 351
L 248 351
L 250 351
L 252 351
L 253 351
L 255 351
L 257 351
L 259 351
L 260 351
L 262 351
L 264 351
L 266 351
L 267 351
L 269 351
L 271 351
L 273 351
L 274 351
L 276 351
L 278 351
L 279 351
L 281 351
L 283 351
L 285 351
L 286 351
L 288 351
L 290 351
L 292 351
L 293 351
L 295 351
L 297 351
L 299 351
L 300 351
L 302 351
L 304 351
L 305 351
L 307 351
L 309 351
L 311 351
L 312 351
L 314 351
L 316 351
L 318 351
L 319 351
L 321 351
L 323 351
L 325 351
L 326 351
L 328 351
L 330 351
L 331 351
L 333 351
L 335 351
L 337 351
L 338 351
L 340 351
L 342 351
L 344 351
L 345 351
L 347 351
L 349 351
L 351 351
L 352 351
L 354 351
L 356 351
L 358 351
L 359 351
L 361 351
L 363 351
L 364 351
L 366 351
L 368 351
L 370 351
L 371 351
L 373 351
L 375 351
L 377 351
L 378 351
L 380 351
L 382 351
L 384 351
L 385 351
L 387 351
L 389 351
L 390 351
L 392 351
L 394 351
L 396 351
L 397 351
L 399 351
L 401 351
L 403 351
L 404 351
L 406 351
L 408 351
L 410 351
L 411 351
L 413 351
L 415 351
L 416 351
L 418 351
L 420 351
L 422 351
L 423 351
L 425 351
L 427 351
L 429 351
L 430 351
L 432 351
L 434 350
L 436 351
L 437 351
L 439 351
L 441 351
L 442 351
L 444 351
L 446 351
L 448 351
L 449 351
L 451 351
L 453 351
L 455 350
L 456 351
L 458 351
L 460 350
L 462 351
L 463 350
L 465 350
L 467 351
L 468 351
L 470 351
L 472 351
L 474 350
L 475 349
L 477 351
L 479 350
L 481 350
L 482 351
L 484 350
L 486 351
L 488 350
L 489 350
L 491 350
L 493 351
L 494 351
L 496 351
L 498 351
L 500 351
L 501 349
L 503 351
L 505 350
L 507 351
L 508 350
L 510 349
L 512 349
L 514 351
L 515 350
L 517 350
L 519 351
L 520 349
L 522 350
L 524 350
L 526 350
L 527 350
L 529 350
L 531 350
L 533 350
L 534 350
L 536 350
L 538 350
L 540 350
L 541 351
L 543 350
L 545 349
L 546 350
L 548 350
L 550 351
L 552 351
L 553 351
L 555 350
L 557 351
L 559 351
L 560 350
L 562 350
L 564 351
L 566 351
L 567 350
L 569 351
L 571 351
L 572 350
L 574 350
L 576 351
L 578 351
L 579 351
L 581 351
L 583 351
L 585 351
L 586 351
L 588 351
L 590 351
L 592 350
L 593 351
L 595 350
L 597 351
L 598 350
L 600 350
L 602 350
L 604 350
L 605 351
L 607 350
L 609 351
L 611 351
L 612 351
L 614 351
L 616 350
L 618 351
L 619 351
L 621 351
L 623 350
L 624 351
L 626 351
L 628 350
L 630 351
L 631 351
L 633 350
L 635 351
L 637 351
L 638 351
L 640 351
L 642 351
L 644 350
L 645 351
L 647 350
L 649 350
L 650 351
L 652 351
L 654 351
L 656 351
L 657 351
L 659 351
L 661 351
L 663 351
L 664 351
L 666 351
L 668 351
L 670 351
L 671 351
L 673 351
L 675 351
L 677 351
L 678 351
L 680 351
L 682 351
L 683 351
L 685 351
L 687 351
L 689 351
L 690 351
L 692 351
L 694 351
L 696 351
L 697 351
L 699 351
L 701 351
L 703 351
L 704 351
L 706 351
L 708 351
L 709 350
L 711 351
L 713 351
L 715 351
L 716 351
L 718 351
L 720 351
L 722 351
L 723 351
L 725 351
L 727 351
L 729 351
L 730 350
L 732 350
L 734 351
L 735 351
L 737 351
L 739 350
L 741 350
L 742 351
L 744 351
L 746 350
L 748 350
L 749 351
L 751 351
L 753 351
L 755 350
L 756 351
L 758 350
L 760 351
L 761 350
L 763 351
L 765 351
L 767 351
L 768 351
L 770 351
L 772 350
L 774 350
L 775 350
L 777 351
L 779 351
L 781 351
L 782 350
L 784 351
L 786 350
L 787 349
L 789 350
L 791 351
L 793 350
L 794 350
L 796 351
L 798 351
L 800 351
L 801 351
L 803 350
L 805 351
L 807 350
L 808 351
L 810 351
L 812 351
L 813 351
L 815 351
L 817 351
L 819 351
L 820 351
L 822 351
L 824 351
L 826 351
L 827 351
L 829 351
L 831 351
L 833 350
L 834 351
L 836 351
L 838 351
L 839 351
L 841 351
L 843 351
L 845 351
L 846 351
L 848 351
L 850 351
L 852 351
L 853 351
L 855 351
L 857 351
L 859 351
L 860 351
L 862 351
L 864 351
L 865 351
L 867 351
L 869 351
L 871 351
L 872 351
L 874 351
L 876 351
L 878 351
L 879 351
L 881 351
L 883 351
L 885 351
L 886 351
L 888 351
L 890 351
L 891 351
L 893 351
L 895 351
L 897 351
L 898 351
L 900 351
L 902 351
L 904 351
L 905 351
L 907 351
L 909 351
L 911 351
L 912 351
L 914 351
L 916 351
L 917 351
L 919 351
L 921 351
L 923 351
L 924 351
L 926 351
L 928 351
L 930 351
L 931 351
L 933 351
L 935 351
L 937 351
L 938 351
L 940 351
L 942 351
L 943 351
L 945 351
L 947 351
L 949 351
L 950 351
L 952 351
L 954 351
L 956 351
L 957 351
L 959 351
L 961 351
L 963 351
L 964 351
L 966 351
L 968 351
L 969 351" style="stroke-width:1;stroke:rgba(217,0,116,1.0);fill:none"/><text x="400" y="33" style="stroke-width:0;stroke:none;fill:rgba(51,51,51,1.0);font-size:23.0px;font-family:'Roboto Medium',sans-serif">Voitsberg 16.08.2021</text><path  d="M 38 11
L 251 11
L 251 91
L 38 91
L 38 11" style="stroke-width:1;stroke:rgba(51,51,51,1.0);fill:rgba(255,255,255,1.0)"/><text x="43" y="26" style="stroke-width:0;stroke:none;fill:rgba(51,51,51,1.0);font-size:10.2px;font-family:'Roboto Medium',sans-serif">Sieben Tage Durschnitt Inzidenz Fälle</text><path  d="M 221 21
L 241 21" style="stroke-width:1;stroke:rgba(0,116,217,1.0);fill:none"/><text x="43" y="56" style="stroke-width:0;stroke:none;fill:rgba(51,51,51,1.0);font-size:10.2px;font-family:'Roboto Medium',sans-serif">Anzahl Faelle</text><path  d="M 110 51
L 241 51" style="stroke-width:1;stroke:rgba(0,217,101,1.0);fill:none"/><text x="43" y="86" style="stroke-width:0;stroke:none;fill:rgba(51,51,51,1.0);font-size:10.2px;font-family:'Roboto Medium',sans-serif">Anzahl Tot</text><path  d="M 98 81
L 241 81" style="stroke-width:1;stroke:rgba(217,0,116,1.0);fill:none"/></svg>