<svg xmlns="http://www.w3.org/2000/svg" xmlns:xlink="http://www.w3.org/1999/xlink" width="1024" height="400">\n<path  d="M 0 0
L 1024 0
L 1024 400
L 0 400
L 0 0" style="stroke-width:0;stroke:rgba(255,255,255,1.0);fill:rgba(255,255,255,1.0)"/><path  d="M 38 11
L 969 11
L 969 351
L 38 351
L 38 11" style="stroke-width:0;stroke:rgba(255,255,255,1.0);fill:rgba(255,255,255,1.0)"/><path  d="M 38 351
L 969 351" style="stroke-width:1;stroke:rgba(51,51,51,1.0);fill:none"/><path  d="M 38 351
L 38 356" style="stroke-width:1;stroke:rgba(51,51,51,1.0);fill:none"/><text x="5" y="373" style="stroke-width:0;stroke:none;fill:rgba(51,51,51,1.0);font-size:12.8px;font-family:'Roboto Medium',sans-serif">2020-02-26</text><path  d="M 155 351
L 155 356" style="stroke-width:1;stroke:rgba(51,51,51,1.0);fill:none"/><text x="122" y="373" style="stroke-width:0;stroke:none;fill:rgba(51,51,51,1.0);font-size:12.8px;font-family:'Roboto Medium',sans-serif">2020-04-17</text><path  d="M 271 351
L 271 356" style="stroke-width:1;stroke:rgba(51,51,51,1.0);fill:none"/><text x="238" y="373" style="stroke-width:0;stroke:none;fill:rgba(51,51,51,1.0);font-size:12.8px;font-family:'Roboto Medium',sans-serif">2020-06-08</text><path  d="M 388 351
L 388 356" style="stroke-width:1;stroke:rgba(51,51,51,1.0);fill:none"/><text x="355" y="373" style="stroke-width:0;stroke:none;fill:rgba(51,51,51,1.0);font-size:12.8px;font-family:'Roboto Medium',sans-serif">2020-07-30</text><path  d="M 504 351
L 504 356" style="stroke-width:1;stroke:rgba(51,51,51,1.0);fill:none"/><text x="471" y="373" style="stroke-width:0;stroke:none;fill:rgba(51,51,51,1.0);font-size:12.8px;font-family:'Roboto Medium',sans-serif">2020-09-20</text><path  d="M 620 351
L 620 356" style="stroke-width:1;stroke:rgba(51,51,51,1.0);fill:none"/><text x="587" y="373" style="stroke-width:0;stroke:none;fill:rgba(51,51,51,1.0);font-size:12.8px;font-family:'Roboto Medium',sans-serif">2020-11-10</text><path  d="M 737 351
L 737 356" style="stroke-width:1;stroke:rgba(51,51,51,1.0);fill:none"/><text x="704" y="373" style="stroke-width:0;stroke:none;fill:rgba(51,51,51,1.0);font-size:12.8px;font-family:'Roboto Medium',sans-serif">2021-01-01</text><path  d="M 853 351
L 853 356" style="stroke-width:1;stroke:rgba(51,51,51,1.0);fill:none"/><text x="820" y="373" style="stroke-width:0;stroke:none;fill:rgba(51,51,51,1.0);font-size:12.8px;font-family:'Roboto Medium',sans-serif">2021-02-22</text><path  d="M 969 351
L 969 356" style="stroke-width:1;stroke:rgba(51,51,51,1.0);fill:none"/><text x="936" y="373" style="stroke-width:0;stroke:none;fill:rgba(51,51,51,1.0);font-size:12.8px;font-family:'Roboto Medium',sans-serif">2021-04-15</text><text x="485" y="395" style="stroke-width:0;stroke:none;fill:rgba(51,51,51,1.0);font-size:12.8px;font-family:'Roboto Medium',sans-serif">Datum</text><path  d="M 970 351
L 970 11" style="stroke-width:1;stroke:rgba(51,51,51,1.0);fill:none"/><path  d="M 970 351
L 975 351" style="stroke-width:1;stroke:rgba(51,51,51,1.0);fill:none"/><text x="980" y="357" style="stroke-width:0;stroke:none;fill:rgba(51,51,51,1.0);font-size:12.8px;font-family:'Roboto Medium',sans-serif">0.00</text><path  d="M 970 308
L 975 308" style="stroke-width:1;stroke:rgba(51,51,51,1.0);fill:none"/><text x="980" y="314" style="stroke-width:0;stroke:none;fill:rgba(51,51,51,1.0);font-size:12.8px;font-family:'Roboto Medium',sans-serif">89.00</text><path  d="M 970 265
L 975 265" style="stroke-width:1;stroke:rgba(51,51,51,1.0);fill:none"/><text x="980" y="271" style="stroke-width:0;stroke:none;fill:rgba(51,51,51,1.0);font-size:12.8px;font-family:'Roboto Medium',sans-serif">178.00</text><path  d="M 970 223
L 975 223" style="stroke-width:1;stroke:rgba(51,51,51,1.0);fill:none"/><text x="980" y="229" style="stroke-width:0;stroke:none;fill:rgba(51,51,51,1.0);font-size:12.8px;font-family:'Roboto Medium',sans-serif">267.00</text><path  d="M 970 181
L 975 181" style="stroke-width:1;stroke:rgba(51,51,51,1.0);fill:none"/><text x="980" y="187" style="stroke-width:0;stroke:none;fill:rgba(51,51,51,1.0);font-size:12.8px;font-family:'Roboto Medium',sans-serif">355.00</text><path  d="M 970 138
L 975 138" style="stroke-width:1;stroke:rgba(51,51,51,1.0);fill:none"/><text x="980" y="144" style="stroke-width:0;stroke:none;fill:rgba(51,51,51,1.0);font-size:12.8px;font-family:'Roboto Medium',sans-serif">444.00</text><path  d="M 970 95
L 975 95" style="stroke-width:1;stroke:rgba(51,51,51,1.0);fill:none"/><text x="980" y="101" style="stroke-width:0;stroke:none;fill:rgba(51,51,51,1.0);font-size:12.8px;font-family:'Roboto Medium',sans-serif">533.00</text><path  d="M 970 53
L 975 53" style="stroke-width:1;stroke:rgba(51,51,51,1.0);fill:none"/><text x="980" y="59" style="stroke-width:0;stroke:none;fill:rgba(51,51,51,1.0);font-size:12.8px;font-family:'Roboto Medium',sans-serif">622.00</text><path  d="M 970 11
L 975 11" style="stroke-width:1;stroke:rgba(51,51,51,1.0);fill:none"/><text x="980" y="17" style="stroke-width:0;stroke:none;fill:rgba(51,51,51,1.0);font-size:12.8px;font-family:'Roboto Medium',sans-serif">710.00</text><path  d="M 38 351
L 41 351
L 43 351
L 45 351
L 47 351
L 50 351
L 52 351
L 54 351
L 56 351
L 59 351
L 61 351
L 63 351
L 65 351
L 68 351
L 70 351
L 72 350
L 74 349
L 77 349
L 79 347
L 81 346
L 83 342
L 86 342
L 88 342
L 90 342
L 92 341
L 95 343
L 97 335
L 99 330
L 101 325
L 104 320
L 106 313
L 108 305
L 110 301
L 113 308
L 115 311
L 117 314
L 119 320
L 122 325
L 124 334
L 126 334
L 128 335
L 131 338
L 133 339
L 135 335
L 137 337
L 140 338
L 142 341
L 144 341
L 146 344
L 149 345
L 151 348
L 153 349
L 155 349
L 158 350
L 160 350
L 162 349
L 164 348
L 167 349
L 169 348
L 171 347
L 173 345
L 176 345
L 178 346
L 180 346
L 182 346
L 185 347
L 187 348
L 189 349
L 191 349
L 194 349
L 196 349
L 198 348
L 200 348
L 203 348
L 205 349
L 207 349
L 209 349
L 212 350
L 214 351
L 216 351
L 218 351
L 221 351
L 223 351
L 225 351
L 227 351
L 230 351
L 232 351
L 234 351
L 236 351
L 239 351
L 241 351
L 243 351
L 245 351
L 248 351
L 250 351
L 252 351
L 254 351
L 257 351
L 259 351
L 261 351
L 263 351
L 266 351
L 268 351
L 270 351
L 272 351
L 275 351
L 277 351
L 279 351
L 281 351
L 284 351
L 286 351
L 288 351
L 290 351
L 293 351
L 295 351
L 297 351
L 299 351
L 302 351
L 304 351
L 306 351
L 308 351
L 311 351
L 313 351
L 315 351
L 317 351
L 320 351
L 322 351
L 324 351
L 326 351
L 329 351
L 331 351
L 333 351
L 335 351
L 338 351
L 340 351
L 342 351
L 344 351
L 347 351
L 349 351
L 351 351
L 353 351
L 356 351
L 358 351
L 360 351
L 362 351
L 365 351
L 367 351
L 369 351
L 371 351
L 374 351
L 376 351
L 378 351
L 380 351
L 383 351
L 385 351
L 387 351
L 389 351
L 392 351
L 394 351
L 396 350
L 398 350
L 401 350
L 403 350
L 405 350
L 407 350
L 410 350
L 412 351
L 414 351
L 416 351
L 419 350
L 421 350
L 423 349
L 425 349
L 428 349
L 430 348
L 432 348
L 434 349
L 437 349
L 439 350
L 441 350
L 443 350
L 446 351
L 448 350
L 450 350
L 452 350
L 455 349
L 457 349
L 459 348
L 461 348
L 464 349
L 466 349
L 468 349
L 470 350
L 473 350
L 475 351
L 477 350
L 479 350
L 482 350
L 484 348
L 486 347
L 488 347
L 491 347
L 493 348
L 495 344
L 497 344
L 500 345
L 502 345
L 504 340
L 506 340
L 508 340
L 511 339
L 513 339
L 515 332
L 517 332
L 520 334
L 522 332
L 524 332
L 526 334
L 529 329
L 531 335
L 533 333
L 535 335
L 538 335
L 540 330
L 542 330
L 544 332
L 547 328
L 549 317
L 551 314
L 553 309
L 556 303
L 558 300
L 560 297
L 562 298
L 565 307
L 567 304
L 569 303
L 571 307
L 574 297
L 576 289
L 578 278
L 580 264
L 583 261
L 585 258
L 587 249
L 589 257
L 592 237
L 594 228
L 596 228
L 598 217
L 601 217
L 603 197
L 605 179
L 607 180
L 610 184
L 612 176
L 614 136
L 616 115
L 619 138
L 621 109
L 623 87
L 625 39
L 628 21
L 630 62
L 632 59
L 634 13
L 637 41
L 639 65
L 641 35
L 643 47
L 646 51
L 648 62
L 650 91
L 652 81
L 655 75
L 657 142
L 659 141
L 661 141
L 664 151
L 666 158
L 668 175
L 670 187
L 673 205
L 675 219
L 677 229
L 679 233
L 682 246
L 684 253
L 686 262
L 688 262
L 691 274
L 693 270
L 695 275
L 697 271
L 700 275
L 702 282
L 704 285
L 706 294
L 709 303
L 711 303
L 713 305
L 715 303
L 718 303
L 720 312
L 722 310
L 724 305
L 727 306
L 729 307
L 731 311
L 733 313
L 736 308
L 738 309
L 740 312
L 742 306
L 745 309
L 747 294
L 749 296
L 751 293
L 754 287
L 756 265
L 758 273
L 760 272
L 763 289
L 765 290
L 767 289
L 769 282
L 772 305
L 774 302
L 776 301
L 778 297
L 781 300
L 783 289
L 785 301
L 787 299
L 790 300
L 792 303
L 794 303
L 796 299
L 799 315
L 801 309
L 803 311
L 805 310
L 808 310
L 810 311
L 812 307
L 814 312
L 817 316
L 819 315
L 821 317
L 823 322
L 826 323
L 828 326
L 830 323
L 832 324
L 835 324
L 837 325
L 839 326
L 841 329
L 844 327
L 846 324
L 848 322
L 850 321
L 853 320
L 855 318
L 857 312
L 859 319
L 862 319
L 864 318
L 866 320
L 868 319
L 871 315
L 873 316
L 875 309
L 877 301
L 880 303
L 882 293
L 884 283
L 886 287
L 889 283
L 891 281
L 893 278
L 895 269
L 898 278
L 900 280
L 902 280
L 904 245
L 907 240
L 909 228
L 911 222
L 913 211
L 916 208
L 918 194
L 920 226
L 922 225
L 925 253
L 927 262
L 929 255
L 931 262
L 934 273
L 936 276
L 938 273
L 940 264
L 943 251
L 945 257
L 947 255
L 949 242
L 952 239
L 954 245
L 956 229
L 958 227
L 961 234
L 963 229
L 965 241
L 967 244
L 969 235" style="stroke-width:1;stroke:rgba(0,116,217,1.0);fill:none"/><path  d="M 38 351
L 41 351
L 43 351
L 45 351
L 47 351
L 50 351
L 52 351
L 54 351
L 56 351
L 59 351
L 61 351
L 63 351
L 65 351
L 68 351
L 70 351
L 72 350
L 74 350
L 77 351
L 79 350
L 81 350
L 83 349
L 86 351
L 88 350
L 90 350
L 92 350
L 95 351
L 97 346
L 99 346
L 101 348
L 104 347
L 106 347
L 108 346
L 110 349
L 113 350
L 115 348
L 117 350
L 119 351
L 122 349
L 124 350
L 126 349
L 128 351
L 131 349
L 133 350
L 135 349
L 137 350
L 140 351
L 142 350
L 144 351
L 146 351
L 149 351
L 151 350
L 153 351
L 155 351
L 158 351
L 160 351
L 162 350
L 164 350
L 167 351
L 169 350
L 171 350
L 173 350
L 176 351
L 178 351
L 180 350
L 182 351
L 185 351
L 187 351
L 189 350
L 191 351
L 194 351
L 196 350
L 198 350
L 200 351
L 203 351
L 205 351
L 207 351
L 209 351
L 212 351
L 214 351
L 216 351
L 218 351
L 221 351
L 223 351
L 225 351
L 227 351
L 230 351
L 232 351
L 234 351
L 236 351
L 239 351
L 241 351
L 243 351
L 245 351
L 248 351
L 250 351
L 252 351
L 254 351
L 257 351
L 259 351
L 261 351
L 263 351
L 266 351
L 268 351
L 270 351
L 272 351
L 275 351
L 277 351
L 279 351
L 281 351
L 284 351
L 286 351
L 288 351
L 290 351
L 293 351
L 295 351
L 297 351
L 299 351
L 302 351
L 304 351
L 306 351
L 308 351
L 311 351
L 313 351
L 315 351
L 317 351
L 320 351
L 322 351
L 324 351
L 326 351
L 329 351
L 331 351
L 333 351
L 335 351
L 338 351
L 340 351
L 342 351
L 344 351
L 347 351
L 349 351
L 351 351
L 353 351
L 356 351
L 358 351
L 360 351
L 362 351
L 365 351
L 367 351
L 369 351
L 371 351
L 374 351
L 376 351
L 378 351
L 380 351
L 383 351
L 385 351
L 387 351
L 389 351
L 392 351
L 394 351
L 396 350
L 398 351
L 401 351
L 403 351
L 405 351
L 407 351
L 410 351
L 412 351
L 414 351
L 416 351
L 419 350
L 421 351
L 423 350
L 425 351
L 428 351
L 430 350
L 432 351
L 434 351
L 437 351
L 439 351
L 441 351
L 443 351
L 446 351
L 448 350
L 450 351
L 452 351
L 455 350
L 457 351
L 459 350
L 461 351
L 464 351
L 466 351
L 468 351
L 470 351
L 473 351
L 475 351
L 477 350
L 479 351
L 482 351
L 484 350
L 486 350
L 488 351
L 491 351
L 493 351
L 495 349
L 497 351
L 500 350
L 502 350
L 504 348
L 506 351
L 508 351
L 511 348
L 513 351
L 515 346
L 517 350
L 520 349
L 522 350
L 524 351
L 526 349
L 529 348
L 531 350
L 533 349
L 535 350
L 538 350
L 540 348
L 542 349
L 544 349
L 547 348
L 549 343
L 551 349
L 553 348
L 556 344
L 558 348
L 560 348
L 562 348
L 565 348
L 567 347
L 569 347
L 571 347
L 574 342
L 576 343
L 578 343
L 580 340
L 583 345
L 585 345
L 587 342
L 589 346
L 592 333
L 594 338
L 596 340
L 598 340
L 601 345
L 603 332
L 605 337
L 607 334
L 610 340
L 612 336
L 614 319
L 616 335
L 619 343
L 621 323
L 623 322
L 625 316
L 628 327
L 630 340
L 632 333
L 634 320
L 637 337
L 639 335
L 641 301
L 643 333
L 646 342
L 648 338
L 650 335
L 652 332
L 655 331
L 657 335
L 659 333
L 661 342
L 664 343
L 666 339
L 668 341
L 670 338
L 673 344
L 675 340
L 677 348
L 679 345
L 682 345
L 684 344
L 686 342
L 688 344
L 691 346
L 693 346
L 695 347
L 697 343
L 700 347
L 702 346
L 704 346
L 706 351
L 709 350
L 711 347
L 713 344
L 715 346
L 718 346
L 720 351
L 722 350
L 724 348
L 727 348
L 729 345
L 731 348
L 733 347
L 736 348
L 738 350
L 740 349
L 742 345
L 745 346
L 747 340
L 749 348
L 751 347
L 754 347
L 756 338
L 758 349
L 760 346
L 763 349
L 765 349
L 767 346
L 769 343
L 772 350
L 774 347
L 776 345
L 778 347
L 781 350
L 783 340
L 785 350
L 787 349
L 790 347
L 792 347
L 794 347
L 796 348
L 799 348
L 801 347
L 803 350
L 805 347
L 808 347
L 810 347
L 812 346
L 814 351
L 817 349
L 819 350
L 821 348
L 823 350
L 826 348
L 828 348
L 830 349
L 832 349
L 835 350
L 837 348
L 839 350
L 841 349
L 844 347
L 846 348
L 848 348
L 850 349
L 853 348
L 855 349
L 857 346
L 859 350
L 862 348
L 864 348
L 866 350
L 868 347
L 871 347
L 873 347
L 875 347
L 877 343
L 880 349
L 882 345
L 884 342
L 886 349
L 889 345
L 891 346
L 893 342
L 895 344
L 898 350
L 900 343
L 902 349
L 904 327
L 907 343
L 909 336
L 911 341
L 913 344
L 916 341
L 918 341
L 920 343
L 922 342
L 925 350
L 927 346
L 929 340
L 931 345
L 934 347
L 936 345
L 938 340
L 940 346
L 943 339
L 945 343
L 947 344
L 949 340
L 952 344
L 954 344
L 956 337
L 958 338
L 961 347
L 963 342
L 965 346
L 967 346
L 969 339" style="stroke-width:1;stroke:rgba(0,217,101,1.0);fill:none"/><path  d="M 38 351
L 41 351
L 43 351
L 45 351
L 47 351
L 50 351
L 52 351
L 54 351
L 56 351
L 59 351
L 61 351
L 63 351
L 65 351
L 68 351
L 70 351
L 72 351
L 74 351
L 77 351
L 79 351
L 81 351
L 83 351
L 86 351
L 88 351
L 90 351
L 92 351
L 95 351
L 97 351
L 99 351
L 101 351
L 104 351
L 106 351
L 108 350
L 110 351
L 113 351
L 115 351
L 117 350
L 119 351
L 122 350
L 124 350
L 126 351
L 128 351
L 131 351
L 133 351
L 135 351
L 137 351
L 140 351
L 142 351
L 144 351
L 146 351
L 149 351
L 151 351
L 153 351
L 155 351
L 158 351
L 160 351
L 162 351
L 164 351
L 167 351
L 169 351
L 171 351
L 173 351
L 176 351
L 178 351
L 180 351
L 182 351
L 185 351
L 187 351
L 189 351
L 191 351
L 194 351
L 196 351
L 198 351
L 200 351
L 203 351
L 205 351
L 207 351
L 209 351
L 212 351
L 214 351
L 216 351
L 218 351
L 221 351
L 223 351
L 225 351
L 227 351
L 230 351
L 232 350
L 234 351
L 236 351
L 239 351
L 241 351
L 243 351
L 245 351
L 248 351
L 250 351
L 252 351
L 254 351
L 257 351
L 259 351
L 261 351
L 263 351
L 266 351
L 268 351
L 270 351
L 272 351
L 275 351
L 277 351
L 279 351
L 281 351
L 284 351
L 286 351
L 288 351
L 290 351
L 293 351
L 295 351
L 297 351
L 299 351
L 302 351
L 304 351
L 306 351
L 308 351
L 311 351
L 313 351
L 315 351
L 317 351
L 320 351
L 322 351
L 324 351
L 326 351
L 329 351
L 331 351
L 333 351
L 335 351
L 338 351
L 340 351
L 342 351
L 344 351
L 347 351
L 349 351
L 351 351
L 353 351
L 356 351
L 358 351
L 360 351
L 362 351
L 365 351
L 367 351
L 369 351
L 371 351
L 374 351
L 376 351
L 378 351
L 380 351
L 383 351
L 385 351
L 387 351
L 389 351
L 392 351
L 394 351
L 396 351
L 398 351
L 401 351
L 403 351
L 405 351
L 407 351
L 410 351
L 412 351
L 414 351
L 416 351
L 419 351
L 421 351
L 423 351
L 425 351
L 428 351
L 430 351
L 432 351
L 434 351
L 437 351
L 439 351
L 441 351
L 443 351
L 446 351
L 448 351
L 450 351
L 452 351
L 455 351
L 457 351
L 459 351
L 461 351
L 464 351
L 466 351
L 468 351
L 470 351
L 473 351
L 475 351
L 477 351
L 479 351
L 482 351
L 484 351
L 486 351
L 488 351
L 491 351
L 493 351
L 495 351
L 497 351
L 500 351
L 502 351
L 504 351
L 506 351
L 508 351
L 511 351
L 513 351
L 515 351
L 517 351
L 520 351
L 522 351
L 524 351
L 526 351
L 529 351
L 531 351
L 533 351
L 535 351
L 538 351
L 540 351
L 542 351
L 544 351
L 547 351
L 549 351
L 551 350
L 553 351
L 556 351
L 558 351
L 560 351
L 562 351
L 565 351
L 567 351
L 569 351
L 571 351
L 574 351
L 576 351
L 578 350
L 580 351
L 583 351
L 585 350
L 587 351
L 589 350
L 592 350
L 594 351
L 596 351
L 598 351
L 601 351
L 603 350
L 605 349
L 607 351
L 610 350
L 612 350
L 614 351
L 616 350
L 619 351
L 621 350
L 623 350
L 625 350
L 628 351
L 630 351
L 632 351
L 634 351
L 637 351
L 639 349
L 641 351
L 643 350
L 646 351
L 648 350
L 650 349
L 652 349
L 655 351
L 657 350
L 659 350
L 661 351
L 664 349
L 666 350
L 668 350
L 670 350
L 673 350
L 675 350
L 677 350
L 679 350
L 682 350
L 684 350
L 686 350
L 688 350
L 691 351
L 693 350
L 695 349
L 697 350
L 700 350
L 702 351
L 704 351
L 706 351
L 709 350
L 711 351
L 713 351
L 715 350
L 718 350
L 720 351
L 722 351
L 724 350
L 727 351
L 729 351
L 731 350
L 733 350
L 736 351
L 738 351
L 740 351
L 742 351
L 745 351
L 747 351
L 749 351
L 751 351
L 754 351
L 756 350
L 758 351
L 760 350
L 763 351
L 765 350
L 767 350
L 769 350
L 772 350
L 774 351
L 776 350
L 778 351
L 781 351
L 783 351
L 785 351
L 787 350
L 790 351
L 792 351
L 794 351
L 796 350
L 799 351
L 801 351
L 803 350
L 805 351
L 808 351
L 810 350
L 812 351
L 814 351
L 817 351
L 819 351
L 821 351
L 823 350
L 826 351
L 828 350
L 830 350
L 832 351
L 835 351
L 837 351
L 839 351
L 841 351
L 844 351
L 846 351
L 848 351
L 850 351
L 853 351
L 855 351
L 857 351
L 859 351
L 862 351
L 864 351
L 866 351
L 868 351
L 871 351
L 873 351
L 875 351
L 877 351
L 880 351
L 882 351
L 884 351
L 886 351
L 889 351
L 891 351
L 893 351
L 895 351
L 898 351
L 900 351
L 902 351
L 904 351
L 907 351
L 909 350
L 911 351
L 913 351
L 916 351
L 918 351
L 920 351
L 922 351
L 925 351
L 927 351
L 929 351
L 931 351
L 934 351
L 936 350
L 938 350
L 940 351
L 943 351
L 945 351
L 947 350
L 949 350
L 952 351
L 954 351
L 956 350
L 958 350
L 961 351
L 963 351
L 965 351
L 967 351
L 969 351" style="stroke-width:1;stroke:rgba(217,0,116,1.0);fill:none"/><text x="400" y="33" style="stroke-width:0;stroke:none;fill:rgba(51,51,51,1.0);font-size:23.0px;font-family:'Roboto Medium',sans-serif">Voitsberg 15.04.2021</text><path  d="M 38 11
L 251 11
L 251 91
L 38 91
L 38 11" style="stroke-width:1;stroke:rgba(51,51,51,1.0);fill:rgba(255,255,255,1.0)"/><text x="43" y="26" style="stroke-width:0;stroke:none;fill:rgba(51,51,51,1.0);font-size:10.2px;font-family:'Roboto Medium',sans-serif">Sieben Tage Durschnitt Inzidenz Fälle</text><path  d="M 221 21
L 241 21" style="stroke-width:1;stroke:rgba(0,116,217,1.0);fill:none"/><text x="43" y="56" style="stroke-width:0;stroke:none;fill:rgba(51,51,51,1.0);font-size:10.2px;font-family:'Roboto Medium',sans-serif">Anzahl Faelle</text><path  d="M 110 51
L 241 51" style="stroke-width:1;stroke:rgba(0,217,101,1.0);fill:none"/><text x="43" y="86" style="stroke-width:0;stroke:none;fill:rgba(51,51,51,1.0);font-size:10.2px;font-family:'Roboto Medium',sans-serif">Anzahl Tot</text><path  d="M 98 81
L 241 81" style="stroke-width:1;stroke:rgba(217,0,116,1.0);fill:none"/></svg>