<svg xmlns="http://www.w3.org/2000/svg" xmlns:xlink="http://www.w3.org/1999/xlink" width="1024" height="400">\n<path  d="M 0 0
L 1024 0
L 1024 400
L 0 400
L 0 0" style="stroke-width:0;stroke:rgba(255,255,255,1.0);fill:rgba(255,255,255,1.0)"/><path  d="M 38 11
L 969 11
L 969 351
L 38 351
L 38 11" style="stroke-width:0;stroke:rgba(255,255,255,1.0);fill:rgba(255,255,255,1.0)"/><path  d="M 38 351
L 969 351" style="stroke-width:1;stroke:rgba(51,51,51,1.0);fill:none"/><path  d="M 38 351
L 38 356" style="stroke-width:1;stroke:rgba(51,51,51,1.0);fill:none"/><text x="5" y="373" style="stroke-width:0;stroke:none;fill:rgba(51,51,51,1.0);font-size:12.8px;font-family:'Roboto Medium',sans-serif">2020-02-26</text><path  d="M 155 351
L 155 356" style="stroke-width:1;stroke:rgba(51,51,51,1.0);fill:none"/><text x="122" y="373" style="stroke-width:0;stroke:none;fill:rgba(51,51,51,1.0);font-size:12.8px;font-family:'Roboto Medium',sans-serif">2020-05-05</text><path  d="M 271 351
L 271 356" style="stroke-width:1;stroke:rgba(51,51,51,1.0);fill:none"/><text x="238" y="373" style="stroke-width:0;stroke:none;fill:rgba(51,51,51,1.0);font-size:12.8px;font-family:'Roboto Medium',sans-serif">2020-07-14</text><path  d="M 388 351
L 388 356" style="stroke-width:1;stroke:rgba(51,51,51,1.0);fill:none"/><text x="355" y="373" style="stroke-width:0;stroke:none;fill:rgba(51,51,51,1.0);font-size:12.8px;font-family:'Roboto Medium',sans-serif">2020-09-22</text><path  d="M 504 351
L 504 356" style="stroke-width:1;stroke:rgba(51,51,51,1.0);fill:none"/><text x="471" y="373" style="stroke-width:0;stroke:none;fill:rgba(51,51,51,1.0);font-size:12.8px;font-family:'Roboto Medium',sans-serif">2020-12-01</text><path  d="M 620 351
L 620 356" style="stroke-width:1;stroke:rgba(51,51,51,1.0);fill:none"/><text x="587" y="373" style="stroke-width:0;stroke:none;fill:rgba(51,51,51,1.0);font-size:12.8px;font-family:'Roboto Medium',sans-serif">2021-02-09</text><path  d="M 737 351
L 737 356" style="stroke-width:1;stroke:rgba(51,51,51,1.0);fill:none"/><text x="704" y="373" style="stroke-width:0;stroke:none;fill:rgba(51,51,51,1.0);font-size:12.8px;font-family:'Roboto Medium',sans-serif">2021-04-20</text><path  d="M 853 351
L 853 356" style="stroke-width:1;stroke:rgba(51,51,51,1.0);fill:none"/><text x="820" y="373" style="stroke-width:0;stroke:none;fill:rgba(51,51,51,1.0);font-size:12.8px;font-family:'Roboto Medium',sans-serif">2021-06-29</text><path  d="M 969 351
L 969 356" style="stroke-width:1;stroke:rgba(51,51,51,1.0);fill:none"/><text x="936" y="373" style="stroke-width:0;stroke:none;fill:rgba(51,51,51,1.0);font-size:12.8px;font-family:'Roboto Medium',sans-serif">2021-09-07</text><text x="485" y="395" style="stroke-width:0;stroke:none;fill:rgba(51,51,51,1.0);font-size:12.8px;font-family:'Roboto Medium',sans-serif">Datum</text><path  d="M 970 351
L 970 11" style="stroke-width:1;stroke:rgba(51,51,51,1.0);fill:none"/><path  d="M 970 351
L 975 351" style="stroke-width:1;stroke:rgba(51,51,51,1.0);fill:none"/><text x="980" y="357" style="stroke-width:0;stroke:none;fill:rgba(51,51,51,1.0);font-size:12.8px;font-family:'Roboto Medium',sans-serif">0.00</text><path  d="M 970 308
L 975 308" style="stroke-width:1;stroke:rgba(51,51,51,1.0);fill:none"/><text x="980" y="314" style="stroke-width:0;stroke:none;fill:rgba(51,51,51,1.0);font-size:12.8px;font-family:'Roboto Medium',sans-serif">90.00</text><path  d="M 970 266
L 975 266" style="stroke-width:1;stroke:rgba(51,51,51,1.0);fill:none"/><text x="980" y="272" style="stroke-width:0;stroke:none;fill:rgba(51,51,51,1.0);font-size:12.8px;font-family:'Roboto Medium',sans-serif">180.00</text><path  d="M 970 223
L 975 223" style="stroke-width:1;stroke:rgba(51,51,51,1.0);fill:none"/><text x="980" y="229" style="stroke-width:0;stroke:none;fill:rgba(51,51,51,1.0);font-size:12.8px;font-family:'Roboto Medium',sans-serif">270.00</text><path  d="M 970 181
L 975 181" style="stroke-width:1;stroke:rgba(51,51,51,1.0);fill:none"/><text x="980" y="187" style="stroke-width:0;stroke:none;fill:rgba(51,51,51,1.0);font-size:12.8px;font-family:'Roboto Medium',sans-serif">360.00</text><path  d="M 970 138
L 975 138" style="stroke-width:1;stroke:rgba(51,51,51,1.0);fill:none"/><text x="980" y="144" style="stroke-width:0;stroke:none;fill:rgba(51,51,51,1.0);font-size:12.8px;font-family:'Roboto Medium',sans-serif">450.00</text><path  d="M 970 96
L 975 96" style="stroke-width:1;stroke:rgba(51,51,51,1.0);fill:none"/><text x="980" y="102" style="stroke-width:0;stroke:none;fill:rgba(51,51,51,1.0);font-size:12.8px;font-family:'Roboto Medium',sans-serif">540.00</text><path  d="M 970 53
L 975 53" style="stroke-width:1;stroke:rgba(51,51,51,1.0);fill:none"/><text x="980" y="59" style="stroke-width:0;stroke:none;fill:rgba(51,51,51,1.0);font-size:12.8px;font-family:'Roboto Medium',sans-serif">630.00</text><path  d="M 970 11
L 975 11" style="stroke-width:1;stroke:rgba(51,51,51,1.0);fill:none"/><text x="980" y="17" style="stroke-width:0;stroke:none;fill:rgba(51,51,51,1.0);font-size:12.8px;font-family:'Roboto Medium',sans-serif">720.00</text><path  d="M 38 351
L 40 351
L 42 351
L 43 351
L 45 351
L 47 351
L 48 351
L 50 351
L 52 351
L 53 351
L 55 351
L 57 351
L 58 351
L 60 351
L 62 351
L 63 350
L 65 349
L 67 349
L 68 347
L 70 346
L 72 342
L 73 342
L 75 342
L 77 342
L 78 341
L 80 343
L 82 335
L 83 330
L 85 325
L 87 320
L 88 313
L 90 305
L 92 301
L 93 309
L 95 312
L 97 314
L 98 321
L 100 325
L 102 334
L 103 334
L 105 336
L 107 338
L 108 339
L 110 336
L 112 338
L 113 338
L 115 341
L 117 341
L 118 344
L 120 345
L 122 348
L 123 349
L 125 349
L 127 350
L 128 350
L 130 349
L 132 348
L 133 349
L 135 348
L 137 347
L 138 345
L 140 345
L 142 346
L 143 346
L 145 346
L 147 347
L 148 348
L 150 349
L 152 349
L 153 349
L 155 349
L 157 348
L 158 348
L 160 348
L 162 349
L 163 349
L 165 349
L 167 350
L 168 351
L 170 351
L 172 351
L 173 351
L 175 351
L 177 351
L 178 351
L 180 351
L 182 351
L 183 351
L 185 351
L 187 351
L 188 351
L 190 351
L 192 351
L 193 351
L 195 351
L 197 351
L 198 351
L 200 351
L 202 351
L 203 351
L 205 351
L 207 351
L 208 351
L 210 351
L 212 351
L 213 351
L 215 351
L 217 351
L 218 351
L 220 351
L 222 351
L 223 351
L 225 351
L 227 351
L 228 351
L 230 351
L 232 351
L 233 351
L 235 351
L 237 351
L 238 351
L 240 351
L 242 351
L 243 351
L 245 351
L 247 351
L 248 351
L 250 351
L 252 351
L 253 351
L 255 351
L 257 351
L 258 351
L 260 351
L 262 351
L 263 351
L 265 351
L 267 351
L 268 351
L 270 351
L 272 351
L 273 351
L 275 351
L 277 351
L 278 351
L 280 351
L 282 351
L 283 351
L 285 351
L 287 351
L 288 351
L 290 351
L 292 351
L 293 351
L 295 351
L 297 351
L 298 351
L 300 351
L 302 351
L 303 350
L 305 350
L 307 350
L 308 350
L 310 350
L 312 350
L 313 350
L 315 351
L 317 351
L 318 351
L 320 350
L 322 350
L 323 349
L 325 349
L 327 349
L 328 348
L 330 348
L 332 349
L 333 349
L 335 350
L 337 350
L 338 350
L 340 351
L 342 350
L 343 350
L 345 350
L 347 349
L 348 349
L 350 348
L 352 348
L 353 349
L 355 349
L 357 349
L 358 350
L 360 350
L 362 351
L 363 350
L 365 350
L 367 350
L 368 348
L 370 347
L 372 347
L 373 347
L 375 348
L 377 344
L 378 344
L 380 345
L 382 345
L 383 340
L 385 340
L 387 340
L 388 339
L 390 339
L 392 332
L 393 333
L 395 335
L 397 333
L 398 333
L 400 335
L 402 330
L 403 337
L 405 333
L 407 335
L 408 336
L 410 330
L 412 330
L 413 332
L 415 328
L 417 317
L 418 314
L 420 310
L 422 303
L 423 300
L 425 298
L 427 299
L 428 308
L 430 304
L 432 303
L 433 308
L 435 298
L 437 289
L 438 279
L 440 265
L 442 262
L 443 259
L 445 250
L 447 258
L 448 238
L 450 229
L 452 229
L 453 220
L 455 220
L 457 199
L 458 182
L 460 183
L 462 187
L 463 179
L 465 138
L 467 118
L 468 140
L 470 111
L 472 89
L 473 41
L 475 23
L 477 64
L 478 59
L 480 14
L 482 44
L 483 68
L 485 38
L 487 50
L 488 55
L 490 66
L 492 95
L 493 84
L 495 78
L 497 147
L 498 146
L 500 146
L 502 154
L 503 161
L 505 178
L 506 190
L 508 207
L 510 221
L 511 230
L 513 235
L 515 248
L 516 254
L 518 263
L 520 263
L 521 274
L 523 271
L 525 275
L 526 272
L 528 276
L 530 283
L 531 286
L 533 295
L 535 303
L 536 303
L 538 305
L 540 303
L 541 303
L 543 312
L 545 311
L 546 306
L 548 307
L 550 308
L 551 312
L 553 314
L 555 310
L 556 311
L 558 313
L 560 307
L 561 310
L 563 295
L 565 296
L 566 293
L 568 287
L 570 265
L 571 274
L 573 273
L 575 289
L 576 291
L 578 289
L 580 283
L 581 306
L 583 302
L 585 301
L 586 298
L 588 300
L 590 289
L 591 301
L 593 300
L 595 300
L 596 303
L 598 303
L 600 300
L 601 315
L 603 310
L 605 312
L 606 311
L 608 311
L 610 312
L 611 308
L 613 312
L 615 316
L 616 315
L 618 317
L 620 323
L 621 324
L 623 326
L 625 324
L 626 325
L 628 325
L 630 325
L 631 325
L 633 328
L 635 326
L 636 324
L 638 322
L 640 321
L 641 321
L 643 318
L 645 312
L 646 319
L 648 319
L 650 318
L 651 320
L 653 319
L 655 315
L 656 316
L 658 310
L 660 301
L 661 302
L 663 293
L 665 283
L 666 287
L 668 283
L 670 281
L 671 278
L 673 270
L 675 279
L 676 281
L 678 281
L 680 247
L 681 241
L 683 229
L 685 224
L 686 212
L 688 210
L 690 196
L 691 227
L 693 226
L 695 254
L 696 263
L 698 256
L 700 263
L 701 274
L 703 277
L 705 274
L 706 266
L 708 253
L 710 259
L 711 257
L 713 245
L 715 242
L 716 248
L 718 231
L 720 229
L 721 236
L 723 231
L 725 241
L 726 245
L 728 236
L 730 256
L 731 265
L 733 264
L 735 263
L 736 262
L 738 242
L 740 243
L 741 240
L 743 229
L 745 224
L 746 234
L 748 216
L 750 225
L 751 231
L 753 228
L 755 240
L 756 244
L 758 249
L 760 265
L 761 271
L 763 273
L 765 278
L 766 275
L 768 282
L 770 281
L 771 287
L 773 295
L 775 306
L 776 311
L 778 322
L 780 316
L 781 314
L 783 313
L 785 319
L 786 320
L 788 318
L 790 323
L 791 332
L 793 338
L 795 344
L 796 338
L 798 337
L 800 338
L 801 335
L 803 334
L 805 332
L 806 331
L 808 331
L 810 331
L 811 331
L 813 334
L 815 333
L 816 335
L 818 331
L 820 335
L 821 338
L 823 339
L 825 341
L 826 343
L 828 343
L 830 348
L 831 351
L 833 350
L 835 349
L 836 349
L 838 349
L 840 349
L 841 349
L 843 349
L 845 350
L 846 351
L 848 351
L 850 351
L 851 351
L 853 351
L 855 351
L 856 351
L 858 351
L 860 351
L 861 351
L 863 351
L 865 350
L 866 350
L 868 350
L 870 347
L 871 346
L 873 345
L 875 339
L 876 337
L 878 336
L 880 331
L 881 331
L 883 329
L 885 329
L 886 333
L 888 337
L 890 338
L 891 339
L 893 341
L 895 344
L 896 344
L 898 342
L 900 337
L 901 335
L 903 338
L 905 336
L 906 336
L 908 337
L 910 340
L 911 344
L 913 344
L 915 344
L 916 347
L 918 344
L 920 342
L 921 342
L 923 341
L 925 342
L 926 341
L 928 340
L 930 341
L 931 342
L 933 339
L 935 339
L 936 338
L 938 338
L 940 338
L 941 339
L 943 338
L 945 340
L 946 340
L 948 333
L 950 331
L 951 326
L 953 319
L 955 315
L 956 313
L 958 315
L 960 318
L 961 318
L 963 314
L 965 310
L 966 307
L 968 300
L 969 299" style="stroke-width:1;stroke:rgba(0,116,217,1.0);fill:none"/><path  d="M 38 351
L 40 351
L 42 351
L 43 351
L 45 351
L 47 351
L 48 351
L 50 351
L 52 351
L 53 351
L 55 351
L 57 351
L 58 351
L 60 351
L 62 351
L 63 350
L 65 350
L 67 351
L 68 350
L 70 350
L 72 349
L 73 351
L 75 350
L 77 350
L 78 350
L 80 351
L 82 346
L 83 346
L 85 348
L 87 347
L 88 347
L 90 346
L 92 349
L 93 350
L 95 348
L 97 350
L 98 351
L 100 349
L 102 350
L 103 349
L 105 351
L 107 349
L 108 350
L 110 349
L 112 350
L 113 351
L 115 350
L 117 351
L 118 351
L 120 351
L 122 350
L 123 351
L 125 351
L 127 351
L 128 351
L 130 350
L 132 350
L 133 351
L 135 350
L 137 350
L 138 350
L 140 351
L 142 351
L 143 350
L 145 351
L 147 351
L 148 351
L 150 350
L 152 351
L 153 351
L 155 350
L 157 350
L 158 351
L 160 351
L 162 351
L 163 351
L 165 351
L 167 351
L 168 351
L 170 351
L 172 351
L 173 351
L 175 351
L 177 351
L 178 351
L 180 351
L 182 351
L 183 351
L 185 351
L 187 351
L 188 351
L 190 351
L 192 351
L 193 351
L 195 351
L 197 351
L 198 351
L 200 351
L 202 351
L 203 351
L 205 351
L 207 351
L 208 351
L 210 351
L 212 351
L 213 351
L 215 351
L 217 351
L 218 351
L 220 351
L 222 351
L 223 351
L 225 351
L 227 351
L 228 351
L 230 351
L 232 351
L 233 351
L 235 351
L 237 351
L 238 351
L 240 351
L 242 351
L 243 351
L 245 351
L 247 351
L 248 351
L 250 351
L 252 351
L 253 351
L 255 351
L 257 351
L 258 351
L 260 351
L 262 351
L 263 351
L 265 351
L 267 351
L 268 351
L 270 351
L 272 351
L 273 351
L 275 351
L 277 351
L 278 351
L 280 351
L 282 351
L 283 351
L 285 351
L 287 351
L 288 351
L 290 351
L 292 351
L 293 351
L 295 351
L 297 351
L 298 351
L 300 351
L 302 351
L 303 350
L 305 351
L 307 351
L 308 351
L 310 351
L 312 351
L 313 351
L 315 351
L 317 351
L 318 351
L 320 350
L 322 351
L 323 350
L 325 351
L 327 351
L 328 350
L 330 351
L 332 351
L 333 351
L 335 351
L 337 351
L 338 351
L 340 351
L 342 350
L 343 351
L 345 351
L 347 350
L 348 351
L 350 350
L 352 351
L 353 351
L 355 351
L 357 351
L 358 351
L 360 351
L 362 351
L 363 350
L 365 351
L 367 351
L 368 350
L 370 350
L 372 351
L 373 351
L 375 351
L 377 349
L 378 351
L 380 350
L 382 350
L 383 348
L 385 351
L 387 351
L 388 348
L 390 351
L 392 346
L 393 351
L 395 349
L 397 350
L 398 351
L 400 349
L 402 348
L 403 350
L 405 349
L 407 350
L 408 350
L 410 348
L 412 349
L 413 349
L 415 348
L 417 343
L 418 349
L 420 348
L 422 344
L 423 348
L 425 348
L 427 348
L 428 348
L 430 347
L 432 347
L 433 347
L 435 342
L 437 343
L 438 343
L 440 341
L 442 345
L 443 345
L 445 342
L 447 346
L 448 334
L 450 338
L 452 341
L 453 341
L 455 345
L 457 332
L 458 337
L 460 334
L 462 341
L 463 336
L 465 320
L 467 335
L 468 343
L 470 323
L 472 323
L 473 316
L 475 327
L 477 341
L 478 333
L 480 320
L 482 338
L 483 335
L 485 301
L 487 334
L 488 343
L 490 338
L 492 335
L 493 333
L 495 332
L 497 336
L 498 333
L 500 343
L 502 342
L 503 339
L 505 341
L 506 338
L 508 344
L 510 340
L 511 348
L 513 345
L 515 345
L 516 344
L 518 342
L 520 344
L 521 346
L 523 346
L 525 347
L 526 343
L 528 347
L 530 346
L 531 346
L 533 351
L 535 350
L 536 347
L 538 344
L 540 346
L 541 346
L 543 351
L 545 350
L 546 348
L 548 348
L 550 345
L 551 348
L 553 347
L 555 348
L 556 350
L 558 349
L 560 344
L 561 346
L 563 340
L 565 348
L 566 347
L 568 347
L 570 338
L 571 349
L 573 346
L 575 349
L 576 349
L 578 346
L 580 343
L 581 350
L 583 347
L 585 345
L 586 347
L 588 350
L 590 340
L 591 350
L 593 349
L 595 347
L 596 347
L 598 347
L 600 348
L 601 348
L 603 347
L 605 350
L 606 347
L 608 347
L 610 347
L 611 346
L 613 351
L 615 349
L 616 350
L 618 348
L 620 350
L 621 348
L 623 348
L 625 349
L 626 349
L 628 350
L 630 348
L 631 350
L 633 349
L 635 347
L 636 348
L 638 348
L 640 349
L 641 348
L 643 349
L 645 346
L 646 350
L 648 348
L 650 348
L 651 350
L 653 347
L 655 347
L 656 347
L 658 347
L 660 343
L 661 348
L 663 345
L 665 342
L 666 349
L 668 345
L 670 346
L 671 342
L 673 344
L 675 350
L 676 343
L 678 349
L 680 327
L 681 343
L 683 336
L 685 341
L 686 344
L 688 342
L 690 342
L 691 343
L 693 342
L 695 350
L 696 346
L 698 341
L 700 345
L 701 347
L 703 345
L 705 341
L 706 346
L 708 339
L 710 343
L 711 344
L 713 341
L 715 344
L 716 344
L 718 337
L 720 338
L 721 347
L 723 342
L 725 346
L 726 346
L 728 340
L 730 347
L 731 343
L 733 346
L 735 342
L 736 345
L 738 335
L 740 340
L 741 346
L 743 337
L 745 343
L 746 347
L 748 336
L 750 340
L 751 343
L 753 344
L 755 343
L 756 345
L 758 349
L 760 345
L 761 343
L 763 344
L 765 347
L 766 342
L 768 349
L 770 349
L 771 348
L 773 347
L 775 350
L 776 350
L 778 348
L 780 346
L 781 348
L 783 347
L 785 350
L 786 350
L 788 349
L 790 350
L 791 351
L 793 351
L 795 351
L 796 347
L 798 349
L 800 350
L 801 348
L 803 350
L 805 350
L 806 350
L 808 347
L 810 349
L 811 350
L 813 350
L 815 350
L 816 351
L 818 348
L 820 349
L 821 351
L 823 351
L 825 351
L 826 351
L 828 351
L 830 351
L 831 351
L 833 350
L 835 350
L 836 351
L 838 351
L 840 351
L 841 351
L 843 351
L 845 351
L 846 351
L 848 351
L 850 351
L 851 351
L 853 351
L 855 351
L 856 351
L 858 351
L 860 351
L 861 351
L 863 351
L 865 350
L 866 351
L 868 351
L 870 349
L 871 350
L 873 350
L 875 348
L 876 349
L 878 350
L 880 348
L 881 349
L 883 349
L 885 350
L 886 350
L 888 351
L 890 351
L 891 349
L 893 350
L 895 351
L 896 350
L 898 349
L 900 348
L 901 350
L 903 351
L 905 349
L 906 351
L 908 351
L 910 351
L 911 350
L 913 350
L 915 351
L 916 351
L 918 349
L 920 350
L 921 351
L 923 349
L 925 350
L 926 350
L 928 350
L 930 350
L 931 350
L 933 349
L 935 349
L 936 350
L 938 350
L 940 350
L 941 351
L 943 350
L 945 350
L 946 349
L 948 346
L 950 349
L 951 348
L 953 347
L 955 348
L 956 349
L 958 350
L 960 347
L 961 349
L 963 346
L 965 344
L 966 346
L 968 346
L 969 349" style="stroke-width:1;stroke:rgba(0,217,101,1.0);fill:none"/><path  d="M 38 351
L 40 351
L 42 351
L 43 351
L 45 351
L 47 351
L 48 351
L 50 351
L 52 351
L 53 351
L 55 351
L 57 351
L 58 351
L 60 351
L 62 351
L 63 351
L 65 351
L 67 351
L 68 351
L 70 351
L 72 351
L 73 351
L 75 351
L 77 351
L 78 351
L 80 351
L 82 351
L 83 351
L 85 351
L 87 351
L 88 351
L 90 350
L 92 351
L 93 351
L 95 351
L 97 350
L 98 351
L 100 350
L 102 350
L 103 351
L 105 351
L 107 351
L 108 351
L 110 351
L 112 351
L 113 351
L 115 351
L 117 351
L 118 351
L 120 351
L 122 351
L 123 351
L 125 351
L 127 351
L 128 351
L 130 351
L 132 351
L 133 351
L 135 351
L 137 351
L 138 351
L 140 351
L 142 351
L 143 351
L 145 351
L 147 351
L 148 351
L 150 351
L 152 351
L 153 351
L 155 351
L 157 351
L 158 351
L 160 351
L 162 351
L 163 351
L 165 351
L 167 351
L 168 351
L 170 351
L 172 351
L 173 351
L 175 351
L 177 351
L 178 351
L 180 351
L 182 350
L 183 351
L 185 351
L 187 351
L 188 351
L 190 351
L 192 351
L 193 351
L 195 351
L 197 351
L 198 351
L 200 351
L 202 351
L 203 351
L 205 351
L 207 351
L 208 351
L 210 351
L 212 351
L 213 351
L 215 351
L 217 351
L 218 351
L 220 351
L 222 351
L 223 351
L 225 351
L 227 351
L 228 351
L 230 351
L 232 351
L 233 351
L 235 351
L 237 351
L 238 351
L 240 351
L 242 351
L 243 351
L 245 351
L 247 351
L 248 351
L 250 351
L 252 351
L 253 351
L 255 351
L 257 351
L 258 351
L 260 351
L 262 351
L 263 351
L 265 351
L 267 351
L 268 351
L 270 351
L 272 351
L 273 351
L 275 351
L 277 351
L 278 351
L 280 351
L 282 351
L 283 351
L 285 351
L 287 351
L 288 351
L 290 351
L 292 351
L 293 351
L 295 351
L 297 351
L 298 351
L 300 351
L 302 351
L 303 351
L 305 351
L 307 351
L 308 351
L 310 351
L 312 351
L 313 351
L 315 351
L 317 351
L 318 351
L 320 351
L 322 351
L 323 351
L 325 351
L 327 351
L 328 351
L 330 351
L 332 351
L 333 351
L 335 351
L 337 351
L 338 351
L 340 351
L 342 351
L 343 351
L 345 351
L 347 351
L 348 351
L 350 351
L 352 351
L 353 351
L 355 351
L 357 351
L 358 351
L 360 351
L 362 351
L 363 351
L 365 351
L 367 351
L 368 351
L 370 351
L 372 351
L 373 351
L 375 351
L 377 351
L 378 351
L 380 351
L 382 351
L 383 351
L 385 351
L 387 351
L 388 351
L 390 351
L 392 351
L 393 351
L 395 351
L 397 351
L 398 351
L 400 351
L 402 351
L 403 351
L 405 351
L 407 351
L 408 351
L 410 351
L 412 351
L 413 351
L 415 351
L 417 351
L 418 350
L 420 351
L 422 351
L 423 351
L 425 351
L 427 351
L 428 351
L 430 351
L 432 351
L 433 351
L 435 351
L 437 351
L 438 350
L 440 351
L 442 351
L 443 350
L 445 351
L 447 350
L 448 350
L 450 351
L 452 351
L 453 351
L 455 351
L 457 350
L 458 349
L 460 351
L 462 350
L 463 350
L 465 351
L 467 350
L 468 351
L 470 350
L 472 350
L 473 350
L 475 351
L 477 351
L 478 351
L 480 351
L 482 351
L 483 349
L 485 351
L 487 350
L 488 351
L 490 350
L 492 349
L 493 349
L 495 351
L 497 350
L 498 350
L 500 351
L 502 349
L 503 350
L 505 350
L 506 350
L 508 350
L 510 350
L 511 350
L 513 350
L 515 350
L 516 350
L 518 350
L 520 350
L 521 351
L 523 350
L 525 349
L 526 350
L 528 350
L 530 351
L 531 351
L 533 351
L 535 350
L 536 351
L 538 351
L 540 350
L 541 350
L 543 351
L 545 351
L 546 350
L 548 351
L 550 351
L 551 350
L 553 350
L 555 351
L 556 351
L 558 351
L 560 351
L 561 351
L 563 351
L 565 351
L 566 351
L 568 351
L 570 350
L 571 351
L 573 350
L 575 351
L 576 350
L 578 350
L 580 350
L 581 350
L 583 351
L 585 350
L 586 351
L 588 351
L 590 351
L 591 351
L 593 350
L 595 351
L 596 351
L 598 351
L 600 350
L 601 351
L 603 351
L 605 351
L 606 351
L 608 351
L 610 350
L 611 351
L 613 351
L 615 351
L 616 351
L 618 351
L 620 350
L 621 351
L 623 350
L 625 350
L 626 351
L 628 351
L 630 351
L 631 351
L 633 351
L 635 351
L 636 351
L 638 351
L 640 351
L 641 351
L 643 351
L 645 351
L 646 351
L 648 351
L 650 351
L 651 351
L 653 351
L 655 351
L 656 351
L 658 351
L 660 351
L 661 351
L 663 351
L 665 351
L 666 351
L 668 351
L 670 351
L 671 351
L 673 351
L 675 351
L 676 351
L 678 351
L 680 351
L 681 351
L 683 350
L 685 351
L 686 351
L 688 351
L 690 351
L 691 351
L 693 351
L 695 351
L 696 351
L 698 351
L 700 351
L 701 351
L 703 350
L 705 350
L 706 351
L 708 351
L 710 351
L 711 350
L 713 350
L 715 351
L 716 351
L 718 350
L 720 350
L 721 351
L 723 351
L 725 351
L 726 350
L 728 351
L 730 350
L 731 351
L 733 350
L 735 351
L 736 351
L 738 351
L 740 351
L 741 351
L 743 350
L 745 350
L 746 350
L 748 351
L 750 351
L 751 351
L 753 350
L 755 351
L 756 350
L 758 349
L 760 350
L 761 351
L 763 350
L 765 350
L 766 351
L 768 351
L 770 351
L 771 351
L 773 350
L 775 351
L 776 350
L 778 351
L 780 351
L 781 351
L 783 351
L 785 351
L 786 351
L 788 351
L 790 351
L 791 351
L 793 351
L 795 351
L 796 351
L 798 351
L 800 351
L 801 350
L 803 351
L 805 351
L 806 351
L 808 351
L 810 351
L 811 351
L 813 351
L 815 351
L 816 351
L 818 351
L 820 351
L 821 351
L 823 351
L 825 351
L 826 351
L 828 351
L 830 351
L 831 351
L 833 351
L 835 351
L 836 351
L 838 351
L 840 351
L 841 351
L 843 351
L 845 351
L 846 351
L 848 351
L 850 351
L 851 351
L 853 351
L 855 351
L 856 351
L 858 351
L 860 351
L 861 351
L 863 351
L 865 351
L 866 351
L 868 351
L 870 351
L 871 351
L 873 351
L 875 351
L 876 351
L 878 351
L 880 351
L 881 351
L 883 351
L 885 351
L 886 351
L 888 351
L 890 351
L 891 351
L 893 351
L 895 351
L 896 351
L 898 351
L 900 351
L 901 351
L 903 351
L 905 351
L 906 351
L 908 351
L 910 351
L 911 351
L 913 351
L 915 351
L 916 351
L 918 351
L 920 351
L 921 351
L 923 351
L 925 351
L 926 351
L 928 351
L 930 351
L 931 351
L 933 351
L 935 351
L 936 351
L 938 351
L 940 351
L 941 351
L 943 351
L 945 351
L 946 351
L 948 351
L 950 351
L 951 351
L 953 351
L 955 351
L 956 351
L 958 351
L 960 351
L 961 351
L 963 351
L 965 351
L 966 351
L 968 351
L 969 351" style="stroke-width:1;stroke:rgba(217,0,116,1.0);fill:none"/><text x="400" y="33" style="stroke-width:0;stroke:none;fill:rgba(51,51,51,1.0);font-size:23.0px;font-family:'Roboto Medium',sans-serif">Voitsberg 07.09.2021</text><path  d="M 38 11
L 251 11
L 251 91
L 38 91
L 38 11" style="stroke-width:1;stroke:rgba(51,51,51,1.0);fill:rgba(255,255,255,1.0)"/><text x="43" y="26" style="stroke-width:0;stroke:none;fill:rgba(51,51,51,1.0);font-size:10.2px;font-family:'Roboto Medium',sans-serif">Sieben Tage Durschnitt Inzidenz Fälle</text><path  d="M 221 21
L 241 21" style="stroke-width:1;stroke:rgba(0,116,217,1.0);fill:none"/><text x="43" y="56" style="stroke-width:0;stroke:none;fill:rgba(51,51,51,1.0);font-size:10.2px;font-family:'Roboto Medium',sans-serif">Anzahl Faelle</text><path  d="M 110 51
L 241 51" style="stroke-width:1;stroke:rgba(0,217,101,1.0);fill:none"/><text x="43" y="86" style="stroke-width:0;stroke:none;fill:rgba(51,51,51,1.0);font-size:10.2px;font-family:'Roboto Medium',sans-serif">Anzahl Tot</text><path  d="M 98 81
L 241 81" style="stroke-width:1;stroke:rgba(217,0,116,1.0);fill:none"/></svg>