<svg xmlns="http://www.w3.org/2000/svg" xmlns:xlink="http://www.w3.org/1999/xlink" width="1024" height="400">\n<path  d="M 0 0
L 1024 0
L 1024 400
L 0 400
L 0 0" style="stroke-width:0;stroke:rgba(255,255,255,1.0);fill:rgba(255,255,255,1.0)"/><path  d="M 38 11
L 969 11
L 969 351
L 38 351
L 38 11" style="stroke-width:0;stroke:rgba(255,255,255,1.0);fill:rgba(255,255,255,1.0)"/><path  d="M 38 351
L 969 351" style="stroke-width:1;stroke:rgba(51,51,51,1.0);fill:none"/><path  d="M 38 351
L 38 356" style="stroke-width:1;stroke:rgba(51,51,51,1.0);fill:none"/><text x="5" y="373" style="stroke-width:0;stroke:none;fill:rgba(51,51,51,1.0);font-size:12.8px;font-family:'Roboto Medium',sans-serif">2020-02-26</text><path  d="M 155 351
L 155 356" style="stroke-width:1;stroke:rgba(51,51,51,1.0);fill:none"/><text x="122" y="373" style="stroke-width:0;stroke:none;fill:rgba(51,51,51,1.0);font-size:12.8px;font-family:'Roboto Medium',sans-serif">2020-05-09</text><path  d="M 271 351
L 271 356" style="stroke-width:1;stroke:rgba(51,51,51,1.0);fill:none"/><text x="238" y="373" style="stroke-width:0;stroke:none;fill:rgba(51,51,51,1.0);font-size:12.8px;font-family:'Roboto Medium',sans-serif">2020-07-22</text><path  d="M 388 351
L 388 356" style="stroke-width:1;stroke:rgba(51,51,51,1.0);fill:none"/><text x="355" y="373" style="stroke-width:0;stroke:none;fill:rgba(51,51,51,1.0);font-size:12.8px;font-family:'Roboto Medium',sans-serif">2020-10-04</text><path  d="M 504 351
L 504 356" style="stroke-width:1;stroke:rgba(51,51,51,1.0);fill:none"/><text x="471" y="373" style="stroke-width:0;stroke:none;fill:rgba(51,51,51,1.0);font-size:12.8px;font-family:'Roboto Medium',sans-serif">2020-12-17</text><path  d="M 620 351
L 620 356" style="stroke-width:1;stroke:rgba(51,51,51,1.0);fill:none"/><text x="587" y="373" style="stroke-width:0;stroke:none;fill:rgba(51,51,51,1.0);font-size:12.8px;font-family:'Roboto Medium',sans-serif">2021-02-28</text><path  d="M 737 351
L 737 356" style="stroke-width:1;stroke:rgba(51,51,51,1.0);fill:none"/><text x="704" y="373" style="stroke-width:0;stroke:none;fill:rgba(51,51,51,1.0);font-size:12.8px;font-family:'Roboto Medium',sans-serif">2021-05-13</text><path  d="M 853 351
L 853 356" style="stroke-width:1;stroke:rgba(51,51,51,1.0);fill:none"/><text x="820" y="373" style="stroke-width:0;stroke:none;fill:rgba(51,51,51,1.0);font-size:12.8px;font-family:'Roboto Medium',sans-serif">2021-07-26</text><path  d="M 969 351
L 969 356" style="stroke-width:1;stroke:rgba(51,51,51,1.0);fill:none"/><text x="936" y="373" style="stroke-width:0;stroke:none;fill:rgba(51,51,51,1.0);font-size:12.8px;font-family:'Roboto Medium',sans-serif">2021-10-08</text><text x="485" y="395" style="stroke-width:0;stroke:none;fill:rgba(51,51,51,1.0);font-size:12.8px;font-family:'Roboto Medium',sans-serif">Datum</text><path  d="M 970 351
L 970 11" style="stroke-width:1;stroke:rgba(51,51,51,1.0);fill:none"/><path  d="M 970 351
L 975 351" style="stroke-width:1;stroke:rgba(51,51,51,1.0);fill:none"/><text x="980" y="357" style="stroke-width:0;stroke:none;fill:rgba(51,51,51,1.0);font-size:12.8px;font-family:'Roboto Medium',sans-serif">0.00</text><path  d="M 970 308
L 975 308" style="stroke-width:1;stroke:rgba(51,51,51,1.0);fill:none"/><text x="980" y="314" style="stroke-width:0;stroke:none;fill:rgba(51,51,51,1.0);font-size:12.8px;font-family:'Roboto Medium',sans-serif">90.00</text><path  d="M 970 266
L 975 266" style="stroke-width:1;stroke:rgba(51,51,51,1.0);fill:none"/><text x="980" y="272" style="stroke-width:0;stroke:none;fill:rgba(51,51,51,1.0);font-size:12.8px;font-family:'Roboto Medium',sans-serif">180.00</text><path  d="M 970 223
L 975 223" style="stroke-width:1;stroke:rgba(51,51,51,1.0);fill:none"/><text x="980" y="229" style="stroke-width:0;stroke:none;fill:rgba(51,51,51,1.0);font-size:12.8px;font-family:'Roboto Medium',sans-serif">270.00</text><path  d="M 970 181
L 975 181" style="stroke-width:1;stroke:rgba(51,51,51,1.0);fill:none"/><text x="980" y="187" style="stroke-width:0;stroke:none;fill:rgba(51,51,51,1.0);font-size:12.8px;font-family:'Roboto Medium',sans-serif">360.00</text><path  d="M 970 138
L 975 138" style="stroke-width:1;stroke:rgba(51,51,51,1.0);fill:none"/><text x="980" y="144" style="stroke-width:0;stroke:none;fill:rgba(51,51,51,1.0);font-size:12.8px;font-family:'Roboto Medium',sans-serif">450.00</text><path  d="M 970 96
L 975 96" style="stroke-width:1;stroke:rgba(51,51,51,1.0);fill:none"/><text x="980" y="102" style="stroke-width:0;stroke:none;fill:rgba(51,51,51,1.0);font-size:12.8px;font-family:'Roboto Medium',sans-serif">540.00</text><path  d="M 970 53
L 975 53" style="stroke-width:1;stroke:rgba(51,51,51,1.0);fill:none"/><text x="980" y="59" style="stroke-width:0;stroke:none;fill:rgba(51,51,51,1.0);font-size:12.8px;font-family:'Roboto Medium',sans-serif">630.00</text><path  d="M 970 11
L 975 11" style="stroke-width:1;stroke:rgba(51,51,51,1.0);fill:none"/><text x="980" y="17" style="stroke-width:0;stroke:none;fill:rgba(51,51,51,1.0);font-size:12.8px;font-family:'Roboto Medium',sans-serif">720.00</text><path  d="M 38 351
L 40 351
L 42 351
L 43 351
L 45 351
L 46 351
L 48 351
L 50 351
L 51 351
L 53 351
L 54 351
L 56 351
L 57 351
L 59 351
L 61 351
L 62 350
L 64 349
L 65 349
L 67 347
L 68 346
L 70 342
L 72 342
L 73 342
L 75 342
L 76 341
L 78 343
L 80 335
L 81 330
L 83 325
L 84 320
L 86 313
L 87 305
L 89 301
L 91 309
L 92 312
L 94 314
L 95 321
L 97 325
L 98 334
L 100 334
L 102 336
L 103 338
L 105 339
L 106 336
L 108 338
L 110 338
L 111 341
L 113 341
L 114 344
L 116 345
L 117 348
L 119 349
L 121 349
L 122 350
L 124 350
L 125 349
L 127 348
L 128 349
L 130 348
L 132 347
L 133 345
L 135 345
L 136 346
L 138 346
L 139 346
L 141 347
L 143 348
L 144 349
L 146 349
L 147 349
L 149 349
L 151 348
L 152 348
L 154 348
L 155 349
L 157 349
L 158 349
L 160 350
L 162 351
L 163 351
L 165 351
L 166 351
L 168 351
L 169 351
L 171 351
L 173 351
L 174 351
L 176 351
L 177 351
L 179 351
L 181 351
L 182 351
L 184 351
L 185 351
L 187 351
L 188 351
L 190 351
L 192 351
L 193 351
L 195 351
L 196 351
L 198 351
L 199 351
L 201 351
L 203 351
L 204 351
L 206 351
L 207 351
L 209 351
L 210 351
L 212 351
L 214 351
L 215 351
L 217 351
L 218 351
L 220 351
L 222 351
L 223 351
L 225 351
L 226 351
L 228 351
L 229 351
L 231 351
L 233 351
L 234 351
L 236 351
L 237 351
L 239 351
L 240 351
L 242 351
L 244 351
L 245 351
L 247 351
L 248 351
L 250 351
L 252 351
L 253 351
L 255 351
L 256 351
L 258 351
L 259 351
L 261 351
L 263 351
L 264 351
L 266 351
L 267 351
L 269 351
L 270 351
L 272 351
L 274 351
L 275 351
L 277 351
L 278 351
L 280 351
L 282 351
L 283 351
L 285 351
L 286 351
L 288 351
L 289 350
L 291 350
L 293 350
L 294 350
L 296 350
L 297 350
L 299 350
L 300 351
L 302 351
L 304 351
L 305 350
L 307 350
L 308 349
L 310 349
L 311 349
L 313 348
L 315 348
L 316 349
L 318 349
L 319 350
L 321 350
L 323 350
L 324 351
L 326 350
L 327 350
L 329 350
L 330 349
L 332 349
L 334 348
L 335 348
L 337 349
L 338 349
L 340 349
L 341 350
L 343 350
L 345 351
L 346 350
L 348 350
L 349 350
L 351 348
L 353 347
L 354 347
L 356 347
L 357 348
L 359 344
L 360 344
L 362 345
L 364 345
L 365 340
L 367 340
L 368 340
L 370 339
L 371 339
L 373 332
L 375 333
L 376 335
L 378 333
L 379 333
L 381 335
L 382 330
L 384 337
L 386 333
L 387 335
L 389 336
L 390 330
L 392 330
L 394 332
L 395 328
L 397 317
L 398 314
L 400 310
L 401 303
L 403 300
L 405 298
L 406 299
L 408 308
L 409 304
L 411 303
L 412 308
L 414 298
L 416 289
L 417 279
L 419 265
L 420 262
L 422 259
L 424 250
L 425 258
L 427 238
L 428 229
L 430 229
L 431 220
L 433 220
L 435 199
L 436 182
L 438 183
L 439 187
L 441 179
L 442 138
L 444 118
L 446 140
L 447 111
L 449 89
L 450 41
L 452 23
L 454 64
L 455 59
L 457 14
L 458 44
L 460 69
L 461 39
L 463 51
L 465 56
L 466 67
L 468 96
L 469 86
L 471 79
L 472 148
L 474 147
L 476 147
L 477 155
L 479 162
L 480 178
L 482 190
L 483 207
L 485 221
L 487 230
L 488 234
L 490 247
L 491 253
L 493 262
L 495 262
L 496 274
L 498 270
L 499 275
L 501 272
L 502 276
L 504 283
L 506 286
L 507 295
L 509 303
L 510 303
L 512 305
L 513 303
L 515 303
L 517 312
L 518 311
L 520 306
L 521 307
L 523 308
L 525 312
L 526 314
L 528 310
L 529 311
L 531 313
L 532 307
L 534 310
L 536 295
L 537 296
L 539 293
L 540 287
L 542 265
L 543 274
L 545 273
L 547 289
L 548 291
L 550 289
L 551 283
L 553 306
L 554 302
L 556 301
L 558 298
L 559 300
L 561 289
L 562 301
L 564 300
L 566 300
L 567 303
L 569 303
L 570 300
L 572 315
L 573 310
L 575 312
L 577 311
L 578 311
L 580 312
L 581 308
L 583 312
L 584 316
L 586 315
L 588 317
L 589 323
L 591 325
L 592 327
L 594 325
L 596 325
L 597 325
L 599 325
L 600 326
L 602 328
L 603 326
L 605 324
L 607 322
L 608 321
L 610 321
L 611 318
L 613 312
L 614 319
L 616 319
L 618 318
L 619 320
L 621 319
L 622 315
L 624 316
L 626 310
L 627 301
L 629 302
L 630 293
L 632 283
L 633 287
L 635 283
L 637 281
L 638 278
L 640 270
L 641 279
L 643 281
L 644 281
L 646 247
L 648 241
L 649 229
L 651 224
L 652 212
L 654 210
L 655 196
L 657 227
L 659 226
L 660 254
L 662 264
L 663 257
L 665 265
L 667 275
L 668 279
L 670 276
L 671 268
L 673 254
L 674 260
L 676 257
L 678 245
L 679 242
L 681 248
L 682 231
L 684 229
L 685 236
L 687 231
L 689 241
L 690 245
L 692 236
L 693 256
L 695 265
L 697 264
L 698 263
L 700 262
L 701 243
L 703 244
L 704 241
L 706 230
L 708 224
L 709 235
L 711 217
L 712 225
L 714 231
L 715 230
L 717 242
L 719 246
L 720 250
L 722 267
L 723 273
L 725 274
L 726 278
L 728 275
L 730 282
L 731 281
L 733 287
L 734 295
L 736 306
L 738 311
L 739 322
L 741 316
L 742 314
L 744 313
L 745 319
L 747 320
L 749 318
L 750 323
L 752 332
L 753 338
L 755 344
L 756 338
L 758 337
L 760 338
L 761 335
L 763 334
L 764 332
L 766 331
L 768 331
L 769 331
L 771 331
L 772 334
L 774 333
L 775 335
L 777 331
L 779 335
L 780 338
L 782 339
L 783 341
L 785 343
L 786 343
L 788 348
L 790 351
L 791 350
L 793 349
L 794 349
L 796 349
L 798 349
L 799 349
L 801 349
L 802 350
L 804 351
L 805 351
L 807 351
L 809 351
L 810 351
L 812 351
L 813 351
L 815 351
L 816 351
L 818 351
L 820 351
L 821 350
L 823 350
L 824 350
L 826 347
L 827 346
L 829 345
L 831 339
L 832 337
L 834 336
L 835 331
L 837 331
L 839 329
L 840 329
L 842 333
L 843 337
L 845 338
L 846 339
L 848 341
L 850 344
L 851 344
L 853 342
L 854 337
L 856 335
L 857 338
L 859 336
L 861 336
L 862 337
L 864 340
L 865 344
L 867 344
L 869 344
L 870 347
L 872 344
L 873 342
L 875 342
L 876 341
L 878 342
L 880 341
L 881 340
L 883 341
L 884 342
L 886 339
L 887 339
L 889 338
L 891 338
L 892 338
L 894 339
L 895 338
L 897 340
L 898 340
L 900 333
L 902 331
L 903 326
L 905 319
L 906 315
L 908 313
L 910 315
L 911 317
L 913 317
L 914 313
L 916 309
L 917 306
L 919 299
L 921 297
L 922 299
L 924 294
L 925 290
L 927 292
L 928 294
L 930 299
L 932 288
L 933 287
L 935 288
L 936 295
L 938 289
L 940 294
L 941 299
L 943 301
L 944 305
L 946 304
L 947 302
L 949 314
L 951 312
L 952 305
L 954 309
L 955 308
L 957 310
L 958 306
L 960 304
L 962 304
L 963 311
L 965 308
L 966 298
L 968 295
L 969 303" style="stroke-width:1;stroke:rgba(0,116,217,1.0);fill:none"/><path  d="M 38 351
L 40 351
L 42 351
L 43 351
L 45 351
L 46 351
L 48 351
L 50 351
L 51 351
L 53 351
L 54 351
L 56 351
L 57 351
L 59 351
L 61 351
L 62 350
L 64 350
L 65 351
L 67 350
L 68 350
L 70 349
L 72 351
L 73 350
L 75 350
L 76 350
L 78 351
L 80 346
L 81 346
L 83 348
L 84 347
L 86 347
L 87 346
L 89 349
L 91 350
L 92 348
L 94 350
L 95 351
L 97 349
L 98 350
L 100 349
L 102 351
L 103 349
L 105 350
L 106 349
L 108 350
L 110 351
L 111 350
L 113 351
L 114 351
L 116 351
L 117 350
L 119 351
L 121 351
L 122 351
L 124 351
L 125 350
L 127 350
L 128 351
L 130 350
L 132 350
L 133 350
L 135 351
L 136 351
L 138 350
L 139 351
L 141 351
L 143 351
L 144 350
L 146 351
L 147 351
L 149 350
L 151 350
L 152 351
L 154 351
L 155 351
L 157 351
L 158 351
L 160 351
L 162 351
L 163 351
L 165 351
L 166 351
L 168 351
L 169 351
L 171 351
L 173 351
L 174 351
L 176 351
L 177 351
L 179 351
L 181 351
L 182 351
L 184 351
L 185 351
L 187 351
L 188 351
L 190 351
L 192 351
L 193 351
L 195 351
L 196 351
L 198 351
L 199 351
L 201 351
L 203 351
L 204 351
L 206 351
L 207 351
L 209 351
L 210 351
L 212 351
L 214 351
L 215 351
L 217 351
L 218 351
L 220 351
L 222 351
L 223 351
L 225 351
L 226 351
L 228 351
L 229 351
L 231 351
L 233 351
L 234 351
L 236 351
L 237 351
L 239 351
L 240 351
L 242 351
L 244 351
L 245 351
L 247 351
L 248 351
L 250 351
L 252 351
L 253 351
L 255 351
L 256 351
L 258 351
L 259 351
L 261 351
L 263 351
L 264 351
L 266 351
L 267 351
L 269 351
L 270 351
L 272 351
L 274 351
L 275 351
L 277 351
L 278 351
L 280 351
L 282 351
L 283 351
L 285 351
L 286 351
L 288 351
L 289 350
L 291 351
L 293 351
L 294 351
L 296 351
L 297 351
L 299 351
L 300 351
L 302 351
L 304 351
L 305 350
L 307 351
L 308 350
L 310 351
L 311 351
L 313 350
L 315 351
L 316 351
L 318 351
L 319 351
L 321 351
L 323 351
L 324 351
L 326 350
L 327 351
L 329 351
L 330 350
L 332 351
L 334 350
L 335 351
L 337 351
L 338 351
L 340 351
L 341 351
L 343 351
L 345 351
L 346 350
L 348 351
L 349 351
L 351 350
L 353 350
L 354 351
L 356 351
L 357 351
L 359 349
L 360 351
L 362 350
L 364 350
L 365 348
L 367 351
L 368 351
L 370 348
L 371 351
L 373 346
L 375 351
L 376 349
L 378 350
L 379 351
L 381 349
L 382 348
L 384 350
L 386 349
L 387 350
L 389 350
L 390 348
L 392 349
L 394 349
L 395 348
L 397 343
L 398 349
L 400 348
L 401 344
L 403 348
L 405 348
L 406 348
L 408 348
L 409 347
L 411 347
L 412 347
L 414 342
L 416 343
L 417 343
L 419 341
L 420 345
L 422 345
L 424 342
L 425 346
L 427 334
L 428 338
L 430 341
L 431 341
L 433 345
L 435 332
L 436 337
L 438 334
L 439 341
L 441 336
L 442 320
L 444 335
L 446 343
L 447 323
L 449 323
L 450 316
L 452 327
L 454 341
L 455 333
L 457 320
L 458 338
L 460 335
L 461 301
L 463 334
L 465 343
L 466 338
L 468 335
L 469 333
L 471 332
L 472 336
L 474 333
L 476 343
L 477 342
L 479 339
L 480 341
L 482 338
L 483 344
L 485 340
L 487 348
L 488 344
L 490 345
L 491 344
L 493 342
L 495 344
L 496 346
L 498 346
L 499 347
L 501 343
L 502 347
L 504 346
L 506 346
L 507 351
L 509 350
L 510 347
L 512 344
L 513 346
L 515 346
L 517 351
L 518 350
L 520 348
L 521 348
L 523 345
L 525 348
L 526 347
L 528 348
L 529 350
L 531 349
L 532 344
L 534 346
L 536 340
L 537 348
L 539 347
L 540 347
L 542 338
L 543 349
L 545 346
L 547 349
L 548 349
L 550 346
L 551 343
L 553 350
L 554 347
L 556 345
L 558 347
L 559 350
L 561 340
L 562 350
L 564 349
L 566 347
L 567 347
L 569 347
L 570 348
L 572 348
L 573 347
L 575 350
L 577 347
L 578 347
L 580 347
L 581 346
L 583 351
L 584 349
L 586 350
L 588 348
L 589 350
L 591 348
L 592 348
L 594 349
L 596 349
L 597 350
L 599 348
L 600 350
L 602 349
L 603 347
L 605 348
L 607 348
L 608 349
L 610 348
L 611 349
L 613 346
L 614 350
L 616 348
L 618 348
L 619 350
L 621 347
L 622 347
L 624 347
L 626 347
L 627 343
L 629 348
L 630 345
L 632 342
L 633 349
L 635 345
L 637 346
L 638 342
L 640 344
L 641 350
L 643 343
L 644 349
L 646 327
L 648 343
L 649 336
L 651 341
L 652 344
L 654 342
L 655 342
L 657 343
L 659 342
L 660 350
L 662 346
L 663 341
L 665 346
L 667 347
L 668 345
L 670 341
L 671 346
L 673 339
L 674 343
L 676 344
L 678 341
L 679 344
L 681 344
L 682 337
L 684 338
L 685 347
L 687 342
L 689 346
L 690 346
L 692 340
L 693 347
L 695 343
L 697 346
L 698 342
L 700 345
L 701 336
L 703 340
L 704 346
L 706 337
L 708 343
L 709 347
L 711 336
L 712 340
L 714 343
L 715 345
L 717 343
L 719 345
L 720 349
L 722 345
L 723 343
L 725 344
L 726 347
L 728 342
L 730 349
L 731 349
L 733 348
L 734 347
L 736 350
L 738 350
L 739 348
L 741 346
L 742 348
L 744 347
L 745 350
L 747 350
L 749 349
L 750 350
L 752 351
L 753 351
L 755 351
L 756 347
L 758 349
L 760 350
L 761 348
L 763 350
L 764 350
L 766 350
L 768 347
L 769 349
L 771 350
L 772 350
L 774 350
L 775 351
L 777 348
L 779 349
L 780 351
L 782 351
L 783 351
L 785 351
L 786 351
L 788 351
L 790 351
L 791 350
L 793 350
L 794 351
L 796 351
L 798 351
L 799 351
L 801 351
L 802 351
L 804 351
L 805 351
L 807 351
L 809 351
L 810 351
L 812 351
L 813 351
L 815 351
L 816 351
L 818 351
L 820 351
L 821 350
L 823 351
L 824 351
L 826 349
L 827 350
L 829 350
L 831 348
L 832 349
L 834 350
L 835 348
L 837 349
L 839 349
L 840 350
L 842 350
L 843 351
L 845 351
L 846 349
L 848 350
L 850 351
L 851 350
L 853 349
L 854 348
L 856 350
L 857 351
L 859 349
L 861 351
L 862 351
L 864 351
L 865 350
L 867 350
L 869 351
L 870 351
L 872 349
L 873 350
L 875 351
L 876 349
L 878 350
L 880 350
L 881 350
L 883 350
L 884 350
L 886 349
L 887 349
L 889 350
L 891 350
L 892 350
L 894 351
L 895 350
L 897 350
L 898 349
L 900 346
L 902 349
L 903 348
L 905 347
L 906 348
L 908 349
L 910 350
L 911 347
L 913 349
L 914 346
L 916 344
L 917 346
L 919 345
L 921 349
L 922 348
L 924 346
L 925 344
L 927 345
L 928 347
L 930 348
L 932 344
L 933 347
L 935 347
L 936 347
L 938 342
L 940 350
L 941 350
L 943 345
L 944 349
L 946 347
L 947 346
L 949 349
L 951 348
L 952 347
L 954 347
L 955 348
L 957 348
L 958 344
L 960 348
L 962 348
L 963 350
L 965 346
L 966 343
L 968 346
L 969 349" style="stroke-width:1;stroke:rgba(0,217,101,1.0);fill:none"/><path  d="M 38 351
L 40 351
L 42 351
L 43 351
L 45 351
L 46 351
L 48 351
L 50 351
L 51 351
L 53 351
L 54 351
L 56 351
L 57 351
L 59 351
L 61 351
L 62 351
L 64 351
L 65 351
L 67 351
L 68 351
L 70 351
L 72 351
L 73 351
L 75 351
L 76 351
L 78 351
L 80 351
L 81 351
L 83 351
L 84 351
L 86 351
L 87 350
L 89 351
L 91 351
L 92 351
L 94 350
L 95 351
L 97 350
L 98 350
L 100 351
L 102 351
L 103 351
L 105 351
L 106 351
L 108 351
L 110 351
L 111 351
L 113 351
L 114 351
L 116 351
L 117 351
L 119 351
L 121 351
L 122 351
L 124 351
L 125 351
L 127 351
L 128 351
L 130 351
L 132 351
L 133 351
L 135 351
L 136 351
L 138 351
L 139 351
L 141 351
L 143 351
L 144 351
L 146 351
L 147 351
L 149 351
L 151 351
L 152 351
L 154 351
L 155 351
L 157 351
L 158 351
L 160 351
L 162 351
L 163 351
L 165 351
L 166 351
L 168 351
L 169 351
L 171 351
L 173 351
L 174 350
L 176 351
L 177 351
L 179 351
L 181 351
L 182 351
L 184 351
L 185 351
L 187 351
L 188 351
L 190 351
L 192 351
L 193 351
L 195 351
L 196 351
L 198 351
L 199 351
L 201 351
L 203 351
L 204 351
L 206 351
L 207 351
L 209 351
L 210 351
L 212 351
L 214 351
L 215 351
L 217 351
L 218 351
L 220 351
L 222 351
L 223 351
L 225 351
L 226 351
L 228 351
L 229 351
L 231 351
L 233 351
L 234 351
L 236 351
L 237 351
L 239 351
L 240 351
L 242 351
L 244 351
L 245 351
L 247 351
L 248 351
L 250 351
L 252 351
L 253 351
L 255 351
L 256 351
L 258 351
L 259 351
L 261 351
L 263 351
L 264 351
L 266 351
L 267 351
L 269 351
L 270 351
L 272 351
L 274 351
L 275 351
L 277 351
L 278 351
L 280 351
L 282 351
L 283 351
L 285 351
L 286 351
L 288 351
L 289 351
L 291 351
L 293 351
L 294 351
L 296 351
L 297 351
L 299 351
L 300 351
L 302 351
L 304 351
L 305 351
L 307 351
L 308 351
L 310 351
L 311 351
L 313 351
L 315 351
L 316 351
L 318 351
L 319 351
L 321 351
L 323 351
L 324 351
L 326 351
L 327 351
L 329 351
L 330 351
L 332 351
L 334 351
L 335 351
L 337 351
L 338 351
L 340 351
L 341 351
L 343 351
L 345 351
L 346 351
L 348 351
L 349 351
L 351 351
L 353 351
L 354 351
L 356 351
L 357 351
L 359 351
L 360 351
L 362 351
L 364 351
L 365 351
L 367 351
L 368 351
L 370 351
L 371 351
L 373 351
L 375 351
L 376 351
L 378 351
L 379 351
L 381 351
L 382 351
L 384 351
L 386 351
L 387 351
L 389 351
L 390 351
L 392 351
L 394 351
L 395 351
L 397 351
L 398 350
L 400 351
L 401 351
L 403 351
L 405 351
L 406 351
L 408 351
L 409 351
L 411 351
L 412 351
L 414 351
L 416 351
L 417 350
L 419 351
L 420 351
L 422 350
L 424 351
L 425 350
L 427 350
L 428 351
L 430 351
L 431 351
L 433 351
L 435 350
L 436 349
L 438 351
L 439 350
L 441 350
L 442 351
L 444 350
L 446 351
L 447 350
L 449 350
L 450 350
L 452 351
L 454 351
L 455 351
L 457 351
L 458 351
L 460 349
L 461 351
L 463 350
L 465 351
L 466 350
L 468 349
L 469 349
L 471 351
L 472 350
L 474 350
L 476 351
L 477 349
L 479 350
L 480 350
L 482 350
L 483 350
L 485 350
L 487 350
L 488 350
L 490 350
L 491 350
L 493 350
L 495 350
L 496 351
L 498 350
L 499 349
L 501 350
L 502 350
L 504 351
L 506 351
L 507 351
L 509 350
L 510 351
L 512 351
L 513 350
L 515 350
L 517 351
L 518 351
L 520 350
L 521 351
L 523 351
L 525 350
L 526 350
L 528 351
L 529 351
L 531 351
L 532 351
L 534 351
L 536 351
L 537 351
L 539 351
L 540 351
L 542 350
L 543 351
L 545 350
L 547 351
L 548 350
L 550 350
L 551 350
L 553 350
L 554 351
L 556 350
L 558 351
L 559 351
L 561 351
L 562 351
L 564 350
L 566 351
L 567 351
L 569 351
L 570 350
L 572 351
L 573 351
L 575 351
L 577 351
L 578 351
L 580 350
L 581 351
L 583 351
L 584 351
L 586 351
L 588 351
L 589 350
L 591 351
L 592 350
L 594 350
L 596 351
L 597 351
L 599 351
L 600 351
L 602 351
L 603 351
L 605 351
L 607 351
L 608 351
L 610 351
L 611 351
L 613 351
L 614 351
L 616 351
L 618 351
L 619 351
L 621 351
L 622 351
L 624 351
L 626 351
L 627 351
L 629 351
L 630 351
L 632 351
L 633 351
L 635 351
L 637 351
L 638 351
L 640 351
L 641 351
L 643 351
L 644 351
L 646 351
L 648 351
L 649 350
L 651 351
L 652 351
L 654 351
L 655 351
L 657 351
L 659 351
L 660 351
L 662 351
L 663 351
L 665 351
L 667 351
L 668 350
L 670 350
L 671 351
L 673 351
L 674 351
L 676 350
L 678 350
L 679 351
L 681 351
L 682 350
L 684 350
L 685 351
L 687 351
L 689 351
L 690 350
L 692 351
L 693 350
L 695 351
L 697 350
L 698 351
L 700 351
L 701 351
L 703 351
L 704 351
L 706 350
L 708 350
L 709 350
L 711 351
L 712 351
L 714 351
L 715 350
L 717 351
L 719 350
L 720 349
L 722 350
L 723 351
L 725 350
L 726 350
L 728 351
L 730 351
L 731 351
L 733 351
L 734 350
L 736 351
L 738 350
L 739 351
L 741 351
L 742 351
L 744 351
L 745 351
L 747 351
L 749 351
L 750 351
L 752 351
L 753 351
L 755 351
L 756 351
L 758 351
L 760 351
L 761 350
L 763 351
L 764 351
L 766 351
L 768 351
L 769 351
L 771 351
L 772 351
L 774 351
L 775 351
L 777 351
L 779 351
L 780 351
L 782 351
L 783 351
L 785 351
L 786 351
L 788 351
L 790 351
L 791 351
L 793 351
L 794 351
L 796 351
L 798 351
L 799 351
L 801 351
L 802 351
L 804 351
L 805 351
L 807 351
L 809 351
L 810 351
L 812 351
L 813 351
L 815 351
L 816 351
L 818 351
L 820 351
L 821 351
L 823 351
L 824 351
L 826 351
L 827 351
L 829 351
L 831 351
L 832 351
L 834 351
L 835 351
L 837 351
L 839 351
L 840 351
L 842 351
L 843 351
L 845 351
L 846 351
L 848 351
L 850 351
L 851 351
L 853 351
L 854 351
L 856 351
L 857 351
L 859 351
L 861 351
L 862 351
L 864 351
L 865 351
L 867 351
L 869 351
L 870 351
L 872 351
L 873 351
L 875 351
L 876 351
L 878 351
L 880 351
L 881 351
L 883 351
L 884 351
L 886 351
L 887 351
L 889 351
L 891 351
L 892 351
L 894 351
L 895 351
L 897 351
L 898 351
L 900 351
L 902 351
L 903 351
L 905 351
L 906 351
L 908 351
L 910 351
L 911 351
L 913 351
L 914 351
L 916 351
L 917 351
L 919 351
L 921 351
L 922 351
L 924 351
L 925 351
L 927 351
L 928 351
L 930 351
L 932 350
L 933 351
L 935 351
L 936 351
L 938 351
L 940 350
L 941 351
L 943 351
L 944 351
L 946 351
L 947 351
L 949 350
L 951 351
L 952 351
L 954 351
L 955 351
L 957 351
L 958 350
L 960 351
L 962 351
L 963 351
L 965 351
L 966 351
L 968 351
L 969 351" style="stroke-width:1;stroke:rgba(217,0,116,1.0);fill:none"/><text x="400" y="33" style="stroke-width:0;stroke:none;fill:rgba(51,51,51,1.0);font-size:23.0px;font-family:'Roboto Medium',sans-serif">Voitsberg 08.10.2021</text><path  d="M 38 11
L 251 11
L 251 91
L 38 91
L 38 11" style="stroke-width:1;stroke:rgba(51,51,51,1.0);fill:rgba(255,255,255,1.0)"/><text x="43" y="26" style="stroke-width:0;stroke:none;fill:rgba(51,51,51,1.0);font-size:10.2px;font-family:'Roboto Medium',sans-serif">Sieben Tage Durschnitt Inzidenz Fälle</text><path  d="M 221 21
L 241 21" style="stroke-width:1;stroke:rgba(0,116,217,1.0);fill:none"/><text x="43" y="56" style="stroke-width:0;stroke:none;fill:rgba(51,51,51,1.0);font-size:10.2px;font-family:'Roboto Medium',sans-serif">Anzahl Faelle</text><path  d="M 110 51
L 241 51" style="stroke-width:1;stroke:rgba(0,217,101,1.0);fill:none"/><text x="43" y="86" style="stroke-width:0;stroke:none;fill:rgba(51,51,51,1.0);font-size:10.2px;font-family:'Roboto Medium',sans-serif">Anzahl Tot</text><path  d="M 98 81
L 241 81" style="stroke-width:1;stroke:rgba(217,0,116,1.0);fill:none"/></svg>