<svg xmlns="http://www.w3.org/2000/svg" xmlns:xlink="http://www.w3.org/1999/xlink" width="1024" height="400">\n<path  d="M 0 0
L 1024 0
L 1024 400
L 0 400
L 0 0" style="stroke-width:0;stroke:rgba(255,255,255,1.0);fill:rgba(255,255,255,1.0)"/><path  d="M 38 11
L 969 11
L 969 351
L 38 351
L 38 11" style="stroke-width:0;stroke:rgba(255,255,255,1.0);fill:rgba(255,255,255,1.0)"/><path  d="M 38 351
L 969 351" style="stroke-width:1;stroke:rgba(51,51,51,1.0);fill:none"/><path  d="M 38 351
L 38 356" style="stroke-width:1;stroke:rgba(51,51,51,1.0);fill:none"/><text x="5" y="373" style="stroke-width:0;stroke:none;fill:rgba(51,51,51,1.0);font-size:12.8px;font-family:'Roboto Medium',sans-serif">2020-02-26</text><path  d="M 155 351
L 155 356" style="stroke-width:1;stroke:rgba(51,51,51,1.0);fill:none"/><text x="122" y="373" style="stroke-width:0;stroke:none;fill:rgba(51,51,51,1.0);font-size:12.8px;font-family:'Roboto Medium',sans-serif">2020-05-03</text><path  d="M 271 351
L 271 356" style="stroke-width:1;stroke:rgba(51,51,51,1.0);fill:none"/><text x="238" y="373" style="stroke-width:0;stroke:none;fill:rgba(51,51,51,1.0);font-size:12.8px;font-family:'Roboto Medium',sans-serif">2020-07-09</text><path  d="M 388 351
L 388 356" style="stroke-width:1;stroke:rgba(51,51,51,1.0);fill:none"/><text x="355" y="373" style="stroke-width:0;stroke:none;fill:rgba(51,51,51,1.0);font-size:12.8px;font-family:'Roboto Medium',sans-serif">2020-09-14</text><path  d="M 504 351
L 504 356" style="stroke-width:1;stroke:rgba(51,51,51,1.0);fill:none"/><text x="471" y="373" style="stroke-width:0;stroke:none;fill:rgba(51,51,51,1.0);font-size:12.8px;font-family:'Roboto Medium',sans-serif">2020-11-20</text><path  d="M 620 351
L 620 356" style="stroke-width:1;stroke:rgba(51,51,51,1.0);fill:none"/><text x="587" y="373" style="stroke-width:0;stroke:none;fill:rgba(51,51,51,1.0);font-size:12.8px;font-family:'Roboto Medium',sans-serif">2021-01-26</text><path  d="M 737 351
L 737 356" style="stroke-width:1;stroke:rgba(51,51,51,1.0);fill:none"/><text x="704" y="373" style="stroke-width:0;stroke:none;fill:rgba(51,51,51,1.0);font-size:12.8px;font-family:'Roboto Medium',sans-serif">2021-04-03</text><path  d="M 853 351
L 853 356" style="stroke-width:1;stroke:rgba(51,51,51,1.0);fill:none"/><text x="820" y="373" style="stroke-width:0;stroke:none;fill:rgba(51,51,51,1.0);font-size:12.8px;font-family:'Roboto Medium',sans-serif">2021-06-09</text><path  d="M 969 351
L 969 356" style="stroke-width:1;stroke:rgba(51,51,51,1.0);fill:none"/><text x="936" y="373" style="stroke-width:0;stroke:none;fill:rgba(51,51,51,1.0);font-size:12.8px;font-family:'Roboto Medium',sans-serif">2021-08-15</text><text x="485" y="395" style="stroke-width:0;stroke:none;fill:rgba(51,51,51,1.0);font-size:12.8px;font-family:'Roboto Medium',sans-serif">Datum</text><path  d="M 970 351
L 970 11" style="stroke-width:1;stroke:rgba(51,51,51,1.0);fill:none"/><path  d="M 970 351
L 975 351" style="stroke-width:1;stroke:rgba(51,51,51,1.0);fill:none"/><text x="980" y="357" style="stroke-width:0;stroke:none;fill:rgba(51,51,51,1.0);font-size:12.8px;font-family:'Roboto Medium',sans-serif">0.00</text><path  d="M 970 308
L 975 308" style="stroke-width:1;stroke:rgba(51,51,51,1.0);fill:none"/><text x="980" y="314" style="stroke-width:0;stroke:none;fill:rgba(51,51,51,1.0);font-size:12.8px;font-family:'Roboto Medium',sans-serif">107.00</text><path  d="M 970 265
L 975 265" style="stroke-width:1;stroke:rgba(51,51,51,1.0);fill:none"/><text x="980" y="271" style="stroke-width:0;stroke:none;fill:rgba(51,51,51,1.0);font-size:12.8px;font-family:'Roboto Medium',sans-serif">213.00</text><path  d="M 970 223
L 975 223" style="stroke-width:1;stroke:rgba(51,51,51,1.0);fill:none"/><text x="980" y="229" style="stroke-width:0;stroke:none;fill:rgba(51,51,51,1.0);font-size:12.8px;font-family:'Roboto Medium',sans-serif">319.00</text><path  d="M 970 181
L 975 181" style="stroke-width:1;stroke:rgba(51,51,51,1.0);fill:none"/><text x="980" y="187" style="stroke-width:0;stroke:none;fill:rgba(51,51,51,1.0);font-size:12.8px;font-family:'Roboto Medium',sans-serif">425.00</text><path  d="M 970 138
L 975 138" style="stroke-width:1;stroke:rgba(51,51,51,1.0);fill:none"/><text x="980" y="144" style="stroke-width:0;stroke:none;fill:rgba(51,51,51,1.0);font-size:12.8px;font-family:'Roboto Medium',sans-serif">532.00</text><path  d="M 970 95
L 975 95" style="stroke-width:1;stroke:rgba(51,51,51,1.0);fill:none"/><text x="980" y="101" style="stroke-width:0;stroke:none;fill:rgba(51,51,51,1.0);font-size:12.8px;font-family:'Roboto Medium',sans-serif">638.00</text><path  d="M 970 53
L 975 53" style="stroke-width:1;stroke:rgba(51,51,51,1.0);fill:none"/><text x="980" y="59" style="stroke-width:0;stroke:none;fill:rgba(51,51,51,1.0);font-size:12.8px;font-family:'Roboto Medium',sans-serif">744.00</text><path  d="M 970 11
L 975 11" style="stroke-width:1;stroke:rgba(51,51,51,1.0);fill:none"/><text x="980" y="17" style="stroke-width:0;stroke:none;fill:rgba(51,51,51,1.0);font-size:12.8px;font-family:'Roboto Medium',sans-serif">850.00</text><path  d="M 38 351
L 40 351
L 42 351
L 44 351
L 45 351
L 47 351
L 49 351
L 51 351
L 52 351
L 54 351
L 56 351
L 58 351
L 59 351
L 61 350
L 63 350
L 65 350
L 66 349
L 68 349
L 70 349
L 72 349
L 73 348
L 75 347
L 77 346
L 78 343
L 80 342
L 82 341
L 84 339
L 85 338
L 87 335
L 89 333
L 91 336
L 92 337
L 94 338
L 96 340
L 98 340
L 99 343
L 101 346
L 103 345
L 105 345
L 106 345
L 108 346
L 110 346
L 111 347
L 113 348
L 115 348
L 117 349
L 118 349
L 120 349
L 122 350
L 124 350
L 125 350
L 127 350
L 129 350
L 131 350
L 132 350
L 134 350
L 136 351
L 138 350
L 139 350
L 141 350
L 143 350
L 144 350
L 146 350
L 148 350
L 150 351
L 151 351
L 153 351
L 155 351
L 157 351
L 158 351
L 160 351
L 162 351
L 164 351
L 165 351
L 167 351
L 169 351
L 171 351
L 172 351
L 174 351
L 176 351
L 177 351
L 179 351
L 181 351
L 183 351
L 184 351
L 186 351
L 188 351
L 190 351
L 191 351
L 193 351
L 195 351
L 197 351
L 198 351
L 200 351
L 202 351
L 204 351
L 205 351
L 207 351
L 209 351
L 210 351
L 212 351
L 214 351
L 216 351
L 217 351
L 219 351
L 221 350
L 223 350
L 224 350
L 226 350
L 228 350
L 230 350
L 231 350
L 233 351
L 235 351
L 237 350
L 238 350
L 240 350
L 242 350
L 243 350
L 245 350
L 247 350
L 249 351
L 250 351
L 252 351
L 254 351
L 256 351
L 257 350
L 259 350
L 261 350
L 263 350
L 264 350
L 266 350
L 268 350
L 270 350
L 271 349
L 273 349
L 275 349
L 276 349
L 278 349
L 280 349
L 282 349
L 283 347
L 285 344
L 287 344
L 289 342
L 290 341
L 292 340
L 294 339
L 296 340
L 297 343
L 299 343
L 301 344
L 303 345
L 304 346
L 306 346
L 308 346
L 309 346
L 311 346
L 313 346
L 315 346
L 316 347
L 318 348
L 320 349
L 322 349
L 323 349
L 325 349
L 327 348
L 329 348
L 330 347
L 332 347
L 334 344
L 336 344
L 337 342
L 339 342
L 341 342
L 342 342
L 344 342
L 346 346
L 348 346
L 349 348
L 351 348
L 353 348
L 355 348
L 356 347
L 358 346
L 360 346
L 362 345
L 363 345
L 365 346
L 367 347
L 369 347
L 370 347
L 372 347
L 374 346
L 375 346
L 377 342
L 379 339
L 381 338
L 382 336
L 384 336
L 386 336
L 388 336
L 389 337
L 391 338
L 393 334
L 395 335
L 396 334
L 398 335
L 400 333
L 402 335
L 403 334
L 405 337
L 407 338
L 408 337
L 410 337
L 412 334
L 414 333
L 415 331
L 417 331
L 419 328
L 421 328
L 422 326
L 424 326
L 426 322
L 428 323
L 429 320
L 431 317
L 433 315
L 435 312
L 436 314
L 438 313
L 440 308
L 441 307
L 443 309
L 445 305
L 447 301
L 448 296
L 450 293
L 452 292
L 454 284
L 455 268
L 457 266
L 459 254
L 461 244
L 462 239
L 464 228
L 466 213
L 468 214
L 469 205
L 471 198
L 473 190
L 474 161
L 476 151
L 478 129
L 480 91
L 481 70
L 483 62
L 485 52
L 487 64
L 488 18
L 490 11
L 492 43
L 494 47
L 495 44
L 497 56
L 499 29
L 501 70
L 502 98
L 504 87
L 506 102
L 507 122
L 509 117
L 511 155
L 513 149
L 514 165
L 516 173
L 518 191
L 520 204
L 521 214
L 523 217
L 525 251
L 527 236
L 528 255
L 530 247
L 532 245
L 534 252
L 535 257
L 537 239
L 539 254
L 540 246
L 542 227
L 544 215
L 546 210
L 547 204
L 549 220
L 551 227
L 553 229
L 554 258
L 556 263
L 558 262
L 560 268
L 561 264
L 563 261
L 565 271
L 567 268
L 568 273
L 570 272
L 572 262
L 573 255
L 575 256
L 577 253
L 579 248
L 580 251
L 582 258
L 584 264
L 586 275
L 587 276
L 589 273
L 591 279
L 593 282
L 594 284
L 596 295
L 598 298
L 600 299
L 601 305
L 603 306
L 605 308
L 606 313
L 608 306
L 610 310
L 612 311
L 613 307
L 615 307
L 617 308
L 619 308
L 620 315
L 622 309
L 624 299
L 626 304
L 627 304
L 629 301
L 631 302
L 633 304
L 634 308
L 636 323
L 638 324
L 639 323
L 641 323
L 643 324
L 645 324
L 646 326
L 648 321
L 650 320
L 652 319
L 653 321
L 655 313
L 657 315
L 659 311
L 660 305
L 662 307
L 664 308
L 666 306
L 667 313
L 669 303
L 671 306
L 672 306
L 674 304
L 676 302
L 678 303
L 679 297
L 681 300
L 683 295
L 685 294
L 686 288
L 688 278
L 690 276
L 692 277
L 693 269
L 695 264
L 697 259
L 699 255
L 700 261
L 702 267
L 704 250
L 705 258
L 707 258
L 709 255
L 711 266
L 712 252
L 714 251
L 716 246
L 718 228
L 719 229
L 721 215
L 723 202
L 725 201
L 726 201
L 728 206
L 730 215
L 732 210
L 733 222
L 735 230
L 737 242
L 738 232
L 740 248
L 742 249
L 744 255
L 745 266
L 747 256
L 749 251
L 751 251
L 752 250
L 754 245
L 756 242
L 758 236
L 759 246
L 761 243
L 763 240
L 765 242
L 766 246
L 768 246
L 770 248
L 771 244
L 773 239
L 775 243
L 777 241
L 778 242
L 780 246
L 782 248
L 784 250
L 785 261
L 787 268
L 789 271
L 791 279
L 792 286
L 794 291
L 796 299
L 798 306
L 799 306
L 801 309
L 803 312
L 804 314
L 806 316
L 808 319
L 810 319
L 811 323
L 813 327
L 815 329
L 817 328
L 818 330
L 820 331
L 822 334
L 824 334
L 825 334
L 827 335
L 829 336
L 831 337
L 832 338
L 834 338
L 836 338
L 837 339
L 839 340
L 841 342
L 843 344
L 844 342
L 846 344
L 848 344
L 850 343
L 851 344
L 853 345
L 855 345
L 857 346
L 858 346
L 860 347
L 862 348
L 864 348
L 865 349
L 867 349
L 869 350
L 870 350
L 872 350
L 874 350
L 876 350
L 877 350
L 879 350
L 881 350
L 883 350
L 884 350
L 886 350
L 888 350
L 890 350
L 891 350
L 893 350
L 895 350
L 897 350
L 898 350
L 900 350
L 902 350
L 903 350
L 905 350
L 907 350
L 909 349
L 910 349
L 912 348
L 914 348
L 916 348
L 917 346
L 919 346
L 921 346
L 923 345
L 924 346
L 926 344
L 928 343
L 930 343
L 931 343
L 933 343
L 935 343
L 936 341
L 938 340
L 940 340
L 942 337
L 943 337
L 945 338
L 947 339
L 949 339
L 950 341
L 952 342
L 954 342
L 956 341
L 957 339
L 959 339
L 961 339
L 963 335
L 964 333
L 966 330
L 968 331
L 969 330" style="stroke-width:1;stroke:rgba(0,116,217,1.0);fill:none"/><path  d="M 38 351
L 40 351
L 42 351
L 44 351
L 45 351
L 47 351
L 49 351
L 51 351
L 52 351
L 54 351
L 56 351
L 58 351
L 59 351
L 61 350
L 63 350
L 65 350
L 66 350
L 68 350
L 70 351
L 72 350
L 73 350
L 75 348
L 77 349
L 78 346
L 80 349
L 82 349
L 84 347
L 85 349
L 87 345
L 89 346
L 91 350
L 92 350
L 94 350
L 96 349
L 98 349
L 99 349
L 101 350
L 103 349
L 105 350
L 106 350
L 108 351
L 110 349
L 111 350
L 113 351
L 115 351
L 117 351
L 118 351
L 120 351
L 122 351
L 124 350
L 125 351
L 127 351
L 129 351
L 131 351
L 132 351
L 134 351
L 136 351
L 138 350
L 139 351
L 141 351
L 143 351
L 144 351
L 146 351
L 148 351
L 150 351
L 151 351
L 153 351
L 155 351
L 157 351
L 158 351
L 160 351
L 162 351
L 164 351
L 165 351
L 167 351
L 169 351
L 171 351
L 172 351
L 174 351
L 176 351
L 177 351
L 179 351
L 181 351
L 183 351
L 184 351
L 186 351
L 188 351
L 190 351
L 191 351
L 193 351
L 195 351
L 197 351
L 198 351
L 200 351
L 202 351
L 204 351
L 205 351
L 207 351
L 209 351
L 210 351
L 212 351
L 214 351
L 216 351
L 217 351
L 219 351
L 221 350
L 223 351
L 224 351
L 226 351
L 228 351
L 230 351
L 231 351
L 233 351
L 235 351
L 237 350
L 238 351
L 240 351
L 242 351
L 243 351
L 245 351
L 247 351
L 249 351
L 250 351
L 252 351
L 254 351
L 256 351
L 257 350
L 259 351
L 261 351
L 263 351
L 264 351
L 266 351
L 268 350
L 270 350
L 271 350
L 273 351
L 275 350
L 276 350
L 278 351
L 280 350
L 282 350
L 283 347
L 285 346
L 287 351
L 289 348
L 290 349
L 292 348
L 294 349
L 296 349
L 297 349
L 299 351
L 301 350
L 303 350
L 304 350
L 306 349
L 308 349
L 309 349
L 311 351
L 313 350
L 315 351
L 316 351
L 318 351
L 320 351
L 322 349
L 323 351
L 325 350
L 327 350
L 329 350
L 330 349
L 332 350
L 334 345
L 336 350
L 337 347
L 339 351
L 341 349
L 342 349
L 344 350
L 346 351
L 348 351
L 349 350
L 351 351
L 353 350
L 355 349
L 356 349
L 358 349
L 360 351
L 362 349
L 363 351
L 365 350
L 367 351
L 369 349
L 370 349
L 372 351
L 374 348
L 375 350
L 377 345
L 379 346
L 381 349
L 382 345
L 384 351
L 386 348
L 388 350
L 389 347
L 391 347
L 393 343
L 395 346
L 396 350
L 398 348
L 400 349
L 402 349
L 403 347
L 405 348
L 407 347
L 408 348
L 410 348
L 412 345
L 414 348
L 415 343
L 417 348
L 419 344
L 421 347
L 422 346
L 424 345
L 426 343
L 428 344
L 429 344
L 431 339
L 433 345
L 435 342
L 436 347
L 438 342
L 440 337
L 441 343
L 443 341
L 445 339
L 447 337
L 448 340
L 450 339
L 452 335
L 454 331
L 455 319
L 457 337
L 459 320
L 461 327
L 462 331
L 464 320
L 466 310
L 468 320
L 469 324
L 471 311
L 473 316
L 474 290
L 476 306
L 478 281
L 480 268
L 481 295
L 483 300
L 485 301
L 487 307
L 488 243
L 490 271
L 492 312
L 494 301
L 495 295
L 497 318
L 499 271
L 501 299
L 502 310
L 504 297
L 506 320
L 507 323
L 509 311
L 511 324
L 513 290
L 514 332
L 516 308
L 518 347
L 520 341
L 521 325
L 523 328
L 525 337
L 527 311
L 528 333
L 530 336
L 532 338
L 534 335
L 535 335
L 537 312
L 539 332
L 540 322
L 542 310
L 544 321
L 546 328
L 547 327
L 549 334
L 551 342
L 553 325
L 554 350
L 556 327
L 558 326
L 560 335
L 561 329
L 563 337
L 565 339
L 567 346
L 568 335
L 570 324
L 572 322
L 573 320
L 575 338
L 577 334
L 579 339
L 580 339
L 582 334
L 584 330
L 586 335
L 587 340
L 589 331
L 591 348
L 593 342
L 594 338
L 596 344
L 598 339
L 600 342
L 601 338
L 603 349
L 605 344
L 606 346
L 608 334
L 610 345
L 612 343
L 613 333
L 615 349
L 617 346
L 619 346
L 620 343
L 622 337
L 624 329
L 626 340
L 627 350
L 629 342
L 631 347
L 633 346
L 634 343
L 636 350
L 638 341
L 639 349
L 641 342
L 643 348
L 645 345
L 646 346
L 648 343
L 650 340
L 652 347
L 653 345
L 655 336
L 657 348
L 659 342
L 660 334
L 662 342
L 664 349
L 666 342
L 667 345
L 669 335
L 671 345
L 672 335
L 674 340
L 676 347
L 678 343
L 679 336
L 681 339
L 683 338
L 685 333
L 686 332
L 688 333
L 690 339
L 692 339
L 693 328
L 695 331
L 697 326
L 699 327
L 700 341
L 702 348
L 704 314
L 705 340
L 707 331
L 709 320
L 711 343
L 712 322
L 714 347
L 716 307
L 718 315
L 719 332
L 721 301
L 723 325
L 725 321
L 726 347
L 728 314
L 730 328
L 732 324
L 733 317
L 735 336
L 737 337
L 738 333
L 740 337
L 742 330
L 744 332
L 745 333
L 747 323
L 749 331
L 751 332
L 752 335
L 754 323
L 756 328
L 758 325
L 759 337
L 761 327
L 763 327
L 765 337
L 766 328
L 768 328
L 770 328
L 771 331
L 773 320
L 775 333
L 777 334
L 778 329
L 780 335
L 782 331
L 784 334
L 785 335
L 787 342
L 789 338
L 791 341
L 792 343
L 794 339
L 796 344
L 798 344
L 799 343
L 801 342
L 803 345
L 804 346
L 806 343
L 808 347
L 810 345
L 811 349
L 813 347
L 815 347
L 817 345
L 818 345
L 820 349
L 822 348
L 824 349
L 825 348
L 827 348
L 829 346
L 831 347
L 832 350
L 834 348
L 836 349
L 837 349
L 839 349
L 841 348
L 843 350
L 844 348
L 846 350
L 848 350
L 850 349
L 851 350
L 853 350
L 855 350
L 857 350
L 858 351
L 860 350
L 862 351
L 864 350
L 865 350
L 867 351
L 869 351
L 870 351
L 872 351
L 874 350
L 876 351
L 877 351
L 879 350
L 881 351
L 883 351
L 884 351
L 886 350
L 888 351
L 890 351
L 891 351
L 893 351
L 895 351
L 897 350
L 898 351
L 900 351
L 902 350
L 903 351
L 905 351
L 907 351
L 909 349
L 910 350
L 912 350
L 914 350
L 916 350
L 917 349
L 919 350
L 921 349
L 923 349
L 924 351
L 926 348
L 928 348
L 930 349
L 931 351
L 933 349
L 935 348
L 936 348
L 938 347
L 940 347
L 942 346
L 943 351
L 945 350
L 947 350
L 949 347
L 950 350
L 952 348
L 954 346
L 956 349
L 957 347
L 959 350
L 961 348
L 963 344
L 964 345
L 966 343
L 968 351
L 969 345" style="stroke-width:1;stroke:rgba(0,217,101,1.0);fill:none"/><path  d="M 38 351
L 40 351
L 42 351
L 44 351
L 45 351
L 47 351
L 49 351
L 51 351
L 52 351
L 54 351
L 56 351
L 58 351
L 59 351
L 61 351
L 63 351
L 65 351
L 66 351
L 68 351
L 70 351
L 72 351
L 73 351
L 75 351
L 77 351
L 78 351
L 80 351
L 82 351
L 84 351
L 85 351
L 87 351
L 89 351
L 91 351
L 92 351
L 94 351
L 96 351
L 98 351
L 99 351
L 101 351
L 103 350
L 105 350
L 106 350
L 108 351
L 110 351
L 111 351
L 113 351
L 115 351
L 117 351
L 118 351
L 120 351
L 122 351
L 124 351
L 125 351
L 127 351
L 129 351
L 131 351
L 132 351
L 134 351
L 136 351
L 138 351
L 139 351
L 141 351
L 143 351
L 144 351
L 146 351
L 148 351
L 150 351
L 151 351
L 153 351
L 155 351
L 157 351
L 158 351
L 160 351
L 162 351
L 164 351
L 165 351
L 167 351
L 169 351
L 171 351
L 172 351
L 174 351
L 176 351
L 177 351
L 179 351
L 181 351
L 183 351
L 184 351
L 186 351
L 188 351
L 190 351
L 191 351
L 193 351
L 195 351
L 197 351
L 198 351
L 200 351
L 202 351
L 204 351
L 205 351
L 207 351
L 209 351
L 210 351
L 212 351
L 214 351
L 216 351
L 217 351
L 219 351
L 221 351
L 223 351
L 224 351
L 226 351
L 228 351
L 230 351
L 231 351
L 233 351
L 235 351
L 237 351
L 238 351
L 240 351
L 242 351
L 243 351
L 245 351
L 247 351
L 249 351
L 250 351
L 252 351
L 254 351
L 256 351
L 257 351
L 259 351
L 261 351
L 263 351
L 264 351
L 266 351
L 268 351
L 270 351
L 271 351
L 273 351
L 275 351
L 276 351
L 278 351
L 280 351
L 282 351
L 283 351
L 285 351
L 287 351
L 289 351
L 290 351
L 292 351
L 294 351
L 296 351
L 297 351
L 299 351
L 301 351
L 303 351
L 304 351
L 306 351
L 308 351
L 309 351
L 311 351
L 313 351
L 315 351
L 316 351
L 318 351
L 320 351
L 322 351
L 323 351
L 325 351
L 327 351
L 329 351
L 330 351
L 332 351
L 334 351
L 336 351
L 337 351
L 339 351
L 341 351
L 342 351
L 344 351
L 346 351
L 348 351
L 349 351
L 351 351
L 353 351
L 355 351
L 356 351
L 358 351
L 360 351
L 362 351
L 363 351
L 365 351
L 367 351
L 369 351
L 370 351
L 372 351
L 374 351
L 375 351
L 377 351
L 379 351
L 381 351
L 382 351
L 384 351
L 386 351
L 388 351
L 389 351
L 391 351
L 393 351
L 395 351
L 396 351
L 398 351
L 400 351
L 402 351
L 403 351
L 405 351
L 407 351
L 408 351
L 410 351
L 412 351
L 414 351
L 415 351
L 417 351
L 419 351
L 421 351
L 422 351
L 424 351
L 426 351
L 428 351
L 429 351
L 431 351
L 433 351
L 435 351
L 436 351
L 438 351
L 440 351
L 441 351
L 443 351
L 445 351
L 447 351
L 448 351
L 450 351
L 452 351
L 454 350
L 455 351
L 457 350
L 459 350
L 461 351
L 462 351
L 464 351
L 466 351
L 468 350
L 469 351
L 471 350
L 473 351
L 474 351
L 476 350
L 478 351
L 480 350
L 481 350
L 483 351
L 485 351
L 487 350
L 488 351
L 490 350
L 492 350
L 494 350
L 495 351
L 497 351
L 499 350
L 501 350
L 502 350
L 504 349
L 506 350
L 507 350
L 509 350
L 511 351
L 513 350
L 514 349
L 516 349
L 518 351
L 520 350
L 521 350
L 523 350
L 525 350
L 527 349
L 528 350
L 530 350
L 532 351
L 534 349
L 535 351
L 537 349
L 539 350
L 540 350
L 542 349
L 544 351
L 546 350
L 547 349
L 549 349
L 551 349
L 553 350
L 554 351
L 556 350
L 558 349
L 560 350
L 561 349
L 563 351
L 565 349
L 567 350
L 568 350
L 570 350
L 572 351
L 573 350
L 575 350
L 577 350
L 579 348
L 580 350
L 582 351
L 584 351
L 586 351
L 587 350
L 589 351
L 591 351
L 593 349
L 594 350
L 596 350
L 598 351
L 600 351
L 601 351
L 603 350
L 605 351
L 606 350
L 608 351
L 610 351
L 612 351
L 613 351
L 615 351
L 617 351
L 619 350
L 620 350
L 622 351
L 624 350
L 626 350
L 627 351
L 629 350
L 631 350
L 633 351
L 634 351
L 636 351
L 638 351
L 639 351
L 641 351
L 643 351
L 645 351
L 646 351
L 648 351
L 650 351
L 652 350
L 653 351
L 655 351
L 657 351
L 659 351
L 660 351
L 662 351
L 664 351
L 666 351
L 667 351
L 669 351
L 671 350
L 672 351
L 674 351
L 676 351
L 678 351
L 679 351
L 681 350
L 683 351
L 685 350
L 686 351
L 688 350
L 690 350
L 692 351
L 693 351
L 695 351
L 697 351
L 699 351
L 700 350
L 702 351
L 704 351
L 705 351
L 707 350
L 709 351
L 711 350
L 712 350
L 714 350
L 716 350
L 718 351
L 719 351
L 721 350
L 723 351
L 725 351
L 726 351
L 728 351
L 730 350
L 732 351
L 733 351
L 735 350
L 737 350
L 738 351
L 740 350
L 742 351
L 744 351
L 745 351
L 747 350
L 749 351
L 751 351
L 752 351
L 754 351
L 756 350
L 758 351
L 759 351
L 761 351
L 763 351
L 765 350
L 766 351
L 768 351
L 770 350
L 771 351
L 773 351
L 775 351
L 777 351
L 778 351
L 780 351
L 782 350
L 784 351
L 785 351
L 787 350
L 789 351
L 791 351
L 792 350
L 794 351
L 796 351
L 798 351
L 799 351
L 801 351
L 803 351
L 804 350
L 806 351
L 808 351
L 810 351
L 811 351
L 813 351
L 815 350
L 817 351
L 818 351
L 820 351
L 822 351
L 824 351
L 825 351
L 827 351
L 829 351
L 831 350
L 832 351
L 834 351
L 836 351
L 837 351
L 839 351
L 841 351
L 843 351
L 844 351
L 846 351
L 848 351
L 850 351
L 851 351
L 853 351
L 855 351
L 857 351
L 858 351
L 860 351
L 862 351
L 864 351
L 865 351
L 867 351
L 869 351
L 870 351
L 872 351
L 874 351
L 876 351
L 877 351
L 879 351
L 881 351
L 883 351
L 884 351
L 886 351
L 888 351
L 890 351
L 891 351
L 893 351
L 895 351
L 897 351
L 898 351
L 900 351
L 902 351
L 903 351
L 905 351
L 907 351
L 909 351
L 910 351
L 912 351
L 914 351
L 916 351
L 917 351
L 919 351
L 921 351
L 923 351
L 924 351
L 926 351
L 928 351
L 930 351
L 931 351
L 933 351
L 935 351
L 936 351
L 938 351
L 940 351
L 942 351
L 943 351
L 945 351
L 947 351
L 949 351
L 950 350
L 952 351
L 954 351
L 956 351
L 957 351
L 959 351
L 961 351
L 963 351
L 964 351
L 966 351
L 968 351
L 969 351" style="stroke-width:1;stroke:rgba(217,0,116,1.0);fill:none"/><text x="386" y="33" style="stroke-width:0;stroke:none;fill:rgba(51,51,51,1.0);font-size:23.0px;font-family:'Roboto Medium',sans-serif">Vöcklabruck 15.08.2021</text><path  d="M 38 11
L 251 11
L 251 91
L 38 91
L 38 11" style="stroke-width:1;stroke:rgba(51,51,51,1.0);fill:rgba(255,255,255,1.0)"/><text x="43" y="26" style="stroke-width:0;stroke:none;fill:rgba(51,51,51,1.0);font-size:10.2px;font-family:'Roboto Medium',sans-serif">Sieben Tage Durschnitt Inzidenz Fälle</text><path  d="M 221 21
L 241 21" style="stroke-width:1;stroke:rgba(0,116,217,1.0);fill:none"/><text x="43" y="56" style="stroke-width:0;stroke:none;fill:rgba(51,51,51,1.0);font-size:10.2px;font-family:'Roboto Medium',sans-serif">Anzahl Faelle</text><path  d="M 110 51
L 241 51" style="stroke-width:1;stroke:rgba(0,217,101,1.0);fill:none"/><text x="43" y="86" style="stroke-width:0;stroke:none;fill:rgba(51,51,51,1.0);font-size:10.2px;font-family:'Roboto Medium',sans-serif">Anzahl Tot</text><path  d="M 98 81
L 241 81" style="stroke-width:1;stroke:rgba(217,0,116,1.0);fill:none"/></svg>