<svg xmlns="http://www.w3.org/2000/svg" xmlns:xlink="http://www.w3.org/1999/xlink" width="1024" height="400">\n<path  d="M 0 0
L 1024 0
L 1024 400
L 0 400
L 0 0" style="stroke-width:0;stroke:rgba(255,255,255,1.0);fill:rgba(255,255,255,1.0)"/><path  d="M 38 11
L 961 11
L 961 351
L 38 351
L 38 11" style="stroke-width:0;stroke:rgba(255,255,255,1.0);fill:rgba(255,255,255,1.0)"/><path  d="M 38 351
L 961 351" style="stroke-width:1;stroke:rgba(51,51,51,1.0);fill:none"/><path  d="M 38 351
L 38 356" style="stroke-width:1;stroke:rgba(51,51,51,1.0);fill:none"/><text x="5" y="373" style="stroke-width:0;stroke:none;fill:rgba(51,51,51,1.0);font-size:12.8px;font-family:'Roboto Medium',sans-serif">2020-02-26</text><path  d="M 154 351
L 154 356" style="stroke-width:1;stroke:rgba(51,51,51,1.0);fill:none"/><text x="121" y="373" style="stroke-width:0;stroke:none;fill:rgba(51,51,51,1.0);font-size:12.8px;font-family:'Roboto Medium',sans-serif">2020-06-04</text><path  d="M 269 351
L 269 356" style="stroke-width:1;stroke:rgba(51,51,51,1.0);fill:none"/><text x="236" y="373" style="stroke-width:0;stroke:none;fill:rgba(51,51,51,1.0);font-size:12.8px;font-family:'Roboto Medium',sans-serif">2020-09-12</text><path  d="M 385 351
L 385 356" style="stroke-width:1;stroke:rgba(51,51,51,1.0);fill:none"/><text x="352" y="373" style="stroke-width:0;stroke:none;fill:rgba(51,51,51,1.0);font-size:12.8px;font-family:'Roboto Medium',sans-serif">2020-12-20</text><path  d="M 500 351
L 500 356" style="stroke-width:1;stroke:rgba(51,51,51,1.0);fill:none"/><text x="467" y="373" style="stroke-width:0;stroke:none;fill:rgba(51,51,51,1.0);font-size:12.8px;font-family:'Roboto Medium',sans-serif">2021-03-30</text><path  d="M 615 351
L 615 356" style="stroke-width:1;stroke:rgba(51,51,51,1.0);fill:none"/><text x="582" y="373" style="stroke-width:0;stroke:none;fill:rgba(51,51,51,1.0);font-size:12.8px;font-family:'Roboto Medium',sans-serif">2021-07-08</text><path  d="M 731 351
L 731 356" style="stroke-width:1;stroke:rgba(51,51,51,1.0);fill:none"/><text x="698" y="373" style="stroke-width:0;stroke:none;fill:rgba(51,51,51,1.0);font-size:12.8px;font-family:'Roboto Medium',sans-serif">2021-10-15</text><path  d="M 846 351
L 846 356" style="stroke-width:1;stroke:rgba(51,51,51,1.0);fill:none"/><text x="813" y="373" style="stroke-width:0;stroke:none;fill:rgba(51,51,51,1.0);font-size:12.8px;font-family:'Roboto Medium',sans-serif">2022-01-23</text><path  d="M 961 351
L 961 356" style="stroke-width:1;stroke:rgba(51,51,51,1.0);fill:none"/><text x="928" y="373" style="stroke-width:0;stroke:none;fill:rgba(51,51,51,1.0);font-size:12.8px;font-family:'Roboto Medium',sans-serif">2022-05-03</text><text x="481" y="395" style="stroke-width:0;stroke:none;fill:rgba(51,51,51,1.0);font-size:12.8px;font-family:'Roboto Medium',sans-serif">Datum</text><path  d="M 962 351
L 962 11" style="stroke-width:1;stroke:rgba(51,51,51,1.0);fill:none"/><path  d="M 962 351
L 967 351" style="stroke-width:1;stroke:rgba(51,51,51,1.0);fill:none"/><text x="972" y="357" style="stroke-width:0;stroke:none;fill:rgba(51,51,51,1.0);font-size:12.8px;font-family:'Roboto Medium',sans-serif">0.00</text><path  d="M 962 308
L 967 308" style="stroke-width:1;stroke:rgba(51,51,51,1.0);fill:none"/><text x="972" y="314" style="stroke-width:0;stroke:none;fill:rgba(51,51,51,1.0);font-size:12.8px;font-family:'Roboto Medium',sans-serif">700.00</text><path  d="M 962 266
L 967 266" style="stroke-width:1;stroke:rgba(51,51,51,1.0);fill:none"/><text x="972" y="272" style="stroke-width:0;stroke:none;fill:rgba(51,51,51,1.0);font-size:12.8px;font-family:'Roboto Medium',sans-serif">1400.00</text><path  d="M 962 223
L 967 223" style="stroke-width:1;stroke:rgba(51,51,51,1.0);fill:none"/><text x="972" y="229" style="stroke-width:0;stroke:none;fill:rgba(51,51,51,1.0);font-size:12.8px;font-family:'Roboto Medium',sans-serif">2100.00</text><path  d="M 962 181
L 967 181" style="stroke-width:1;stroke:rgba(51,51,51,1.0);fill:none"/><text x="972" y="187" style="stroke-width:0;stroke:none;fill:rgba(51,51,51,1.0);font-size:12.8px;font-family:'Roboto Medium',sans-serif">2800.00</text><path  d="M 962 138
L 967 138" style="stroke-width:1;stroke:rgba(51,51,51,1.0);fill:none"/><text x="972" y="144" style="stroke-width:0;stroke:none;fill:rgba(51,51,51,1.0);font-size:12.8px;font-family:'Roboto Medium',sans-serif">3500.00</text><path  d="M 962 96
L 967 96" style="stroke-width:1;stroke:rgba(51,51,51,1.0);fill:none"/><text x="972" y="102" style="stroke-width:0;stroke:none;fill:rgba(51,51,51,1.0);font-size:12.8px;font-family:'Roboto Medium',sans-serif">4200.00</text><path  d="M 962 53
L 967 53" style="stroke-width:1;stroke:rgba(51,51,51,1.0);fill:none"/><text x="972" y="59" style="stroke-width:0;stroke:none;fill:rgba(51,51,51,1.0);font-size:12.8px;font-family:'Roboto Medium',sans-serif">4900.00</text><path  d="M 962 11
L 967 11" style="stroke-width:1;stroke:rgba(51,51,51,1.0);fill:none"/><text x="972" y="17" style="stroke-width:0;stroke:none;fill:rgba(51,51,51,1.0);font-size:12.8px;font-family:'Roboto Medium',sans-serif">5600.00</text><path  d="M 38 351
L 40 351
L 41 351
L 42 351
L 43 351
L 44 351
L 45 351
L 47 351
L 48 351
L 49 351
L 50 351
L 51 351
L 52 351
L 54 351
L 55 351
L 56 351
L 57 351
L 58 351
L 59 351
L 61 351
L 62 350
L 63 350
L 64 349
L 65 348
L 66 348
L 67 348
L 69 348
L 70 348
L 71 347
L 72 345
L 73 344
L 74 344
L 76 342
L 77 342
L 78 341
L 79 342
L 80 345
L 81 347
L 83 346
L 84 348
L 85 349
L 86 350
L 87 350
L 88 350
L 89 350
L 91 351
L 92 351
L 93 351
L 94 351
L 95 351
L 96 351
L 98 351
L 99 351
L 100 351
L 101 351
L 102 351
L 103 351
L 105 351
L 106 351
L 107 351
L 108 351
L 109 351
L 110 351
L 111 351
L 113 351
L 114 351
L 115 351
L 116 351
L 117 351
L 118 351
L 120 351
L 121 351
L 122 350
L 123 350
L 124 350
L 125 350
L 127 350
L 128 350
L 129 350
L 130 351
L 131 351
L 132 351
L 133 351
L 135 350
L 136 350
L 137 350
L 138 350
L 139 350
L 140 350
L 142 350
L 143 351
L 144 351
L 145 351
L 146 351
L 147 351
L 149 351
L 150 351
L 151 351
L 152 351
L 153 351
L 154 351
L 155 351
L 157 351
L 158 351
L 159 351
L 160 351
L 161 351
L 162 351
L 164 351
L 165 351
L 166 351
L 167 351
L 168 351
L 169 351
L 171 351
L 172 351
L 173 351
L 174 351
L 175 351
L 176 351
L 177 351
L 179 351
L 180 351
L 181 351
L 182 351
L 183 351
L 184 351
L 186 351
L 187 351
L 188 351
L 189 351
L 190 351
L 191 351
L 193 351
L 194 351
L 195 351
L 196 351
L 197 351
L 198 351
L 199 351
L 201 350
L 202 350
L 203 350
L 204 350
L 205 350
L 206 350
L 208 350
L 209 351
L 210 351
L 211 351
L 212 350
L 213 350
L 215 350
L 216 350
L 217 350
L 218 350
L 219 350
L 220 351
L 221 351
L 223 351
L 224 351
L 225 351
L 226 351
L 227 351
L 228 351
L 230 351
L 231 351
L 232 351
L 233 351
L 234 351
L 235 351
L 237 351
L 238 351
L 239 351
L 240 350
L 241 350
L 242 350
L 243 350
L 245 350
L 246 350
L 247 350
L 248 351
L 249 351
L 250 351
L 252 351
L 253 351
L 254 351
L 255 351
L 256 351
L 257 351
L 259 351
L 260 351
L 261 351
L 262 351
L 263 351
L 264 351
L 265 351
L 267 351
L 268 351
L 269 350
L 270 350
L 271 350
L 272 350
L 274 349
L 275 349
L 276 349
L 277 350
L 278 349
L 279 349
L 281 349
L 282 350
L 283 349
L 284 349
L 285 349
L 286 349
L 287 349
L 289 349
L 290 349
L 291 351
L 292 351
L 293 351
L 294 351
L 296 351
L 297 350
L 298 350
L 299 350
L 300 350
L 301 349
L 303 349
L 304 348
L 305 349
L 306 349
L 307 348
L 308 348
L 309 348
L 311 347
L 312 345
L 313 343
L 314 342
L 315 341
L 316 340
L 318 340
L 319 339
L 320 341
L 321 341
L 322 339
L 323 336
L 325 337
L 326 336
L 327 335
L 328 333
L 329 333
L 330 331
L 331 330
L 333 327
L 334 322
L 335 317
L 336 313
L 337 310
L 338 307
L 340 305
L 341 305
L 342 307
L 343 310
L 344 315
L 345 312
L 347 314
L 348 316
L 349 317
L 350 315
L 351 319
L 352 317
L 354 322
L 355 321
L 356 324
L 357 324
L 358 328
L 359 326
L 360 326
L 362 324
L 363 326
L 364 326
L 365 325
L 366 325
L 367 327
L 369 331
L 370 334
L 371 337
L 372 333
L 373 335
L 374 335
L 376 336
L 377 335
L 378 336
L 379 334
L 380 339
L 381 341
L 382 342
L 384 343
L 385 342
L 386 333
L 387 331
L 388 330
L 389 329
L 391 329
L 392 325
L 393 325
L 394 325
L 395 321
L 396 322
L 398 318
L 399 316
L 400 318
L 401 317
L 402 324
L 403 328
L 404 329
L 406 329
L 407 332
L 408 331
L 409 332
L 410 331
L 411 336
L 413 335
L 414 336
L 415 335
L 416 336
L 417 337
L 418 337
L 420 333
L 421 334
L 422 338
L 423 340
L 424 340
L 425 340
L 426 340
L 428 344
L 429 344
L 430 345
L 431 345
L 432 345
L 433 346
L 435 348
L 436 348
L 437 349
L 438 349
L 439 349
L 440 349
L 442 349
L 443 349
L 444 348
L 445 348
L 446 348
L 447 348
L 448 347
L 450 346
L 451 343
L 452 345
L 453 344
L 454 343
L 455 342
L 457 341
L 458 342
L 459 343
L 460 341
L 461 342
L 462 342
L 464 342
L 465 342
L 466 342
L 467 341
L 468 342
L 469 339
L 470 337
L 472 338
L 473 339
L 474 340
L 475 339
L 476 339
L 477 342
L 479 343
L 480 343
L 481 343
L 482 343
L 483 345
L 484 346
L 486 347
L 487 346
L 488 342
L 489 343
L 490 341
L 491 337
L 492 333
L 494 331
L 495 329
L 496 330
L 497 327
L 498 325
L 499 327
L 501 330
L 502 330
L 503 333
L 504 330
L 505 332
L 506 331
L 508 331
L 509 333
L 510 331
L 511 329
L 512 333
L 513 332
L 514 336
L 516 337
L 517 337
L 518 339
L 519 341
L 520 340
L 521 341
L 523 340
L 524 340
L 525 338
L 526 339
L 527 337
L 528 339
L 530 339
L 531 337
L 532 337
L 533 339
L 534 338
L 535 341
L 536 341
L 538 342
L 539 346
L 540 345
L 541 344
L 542 343
L 543 342
L 545 343
L 546 343
L 547 342
L 548 345
L 549 346
L 550 348
L 552 349
L 553 350
L 554 350
L 555 351
L 556 348
L 557 348
L 558 348
L 560 348
L 561 348
L 562 348
L 563 348
L 564 351
L 565 348
L 567 348
L 568 348
L 569 348
L 570 348
L 571 347
L 572 347
L 574 349
L 575 349
L 576 349
L 577 349
L 578 350
L 579 350
L 580 348
L 582 345
L 583 344
L 584 344
L 585 344
L 586 343
L 587 344
L 589 346
L 590 348
L 591 349
L 592 349
L 593 349
L 594 349
L 596 349
L 597 350
L 598 350
L 599 351
L 600 351
L 601 351
L 602 351
L 604 351
L 605 351
L 606 351
L 607 351
L 608 351
L 609 351
L 611 351
L 612 351
L 613 351
L 614 350
L 615 350
L 616 350
L 618 350
L 619 350
L 620 349
L 621 349
L 622 350
L 623 350
L 624 350
L 626 350
L 627 349
L 628 350
L 629 350
L 630 350
L 631 350
L 633 350
L 634 350
L 635 351
L 636 351
L 637 351
L 638 351
L 640 351
L 641 351
L 642 351
L 643 351
L 644 351
L 645 350
L 646 350
L 648 349
L 649 349
L 650 349
L 651 348
L 652 348
L 653 348
L 655 347
L 656 347
L 657 346
L 658 347
L 659 347
L 660 348
L 662 348
L 663 349
L 664 350
L 665 350
L 666 350
L 667 350
L 669 350
L 670 349
L 671 349
L 672 349
L 673 350
L 674 350
L 675 349
L 677 348
L 678 346
L 679 346
L 680 345
L 681 343
L 682 343
L 684 344
L 685 343
L 686 345
L 687 342
L 688 342
L 689 343
L 691 342
L 692 342
L 693 342
L 694 343
L 695 345
L 696 342
L 697 342
L 699 343
L 700 341
L 701 340
L 702 339
L 703 340
L 704 340
L 706 340
L 707 340
L 708 343
L 709 344
L 710 345
L 711 343
L 713 345
L 714 343
L 715 344
L 716 344
L 717 345
L 718 345
L 719 346
L 721 345
L 722 346
L 723 345
L 724 344
L 725 340
L 726 337
L 728 335
L 729 335
L 730 334
L 731 333
L 732 331
L 733 333
L 735 333
L 736 335
L 737 336
L 738 336
L 739 336
L 740 336
L 741 336
L 743 335
L 744 329
L 745 319
L 746 312
L 747 300
L 748 289
L 750 279
L 751 265
L 752 262
L 753 258
L 754 247
L 755 249
L 757 250
L 758 247
L 759 247
L 760 231
L 761 237
L 762 227
L 763 222
L 765 213
L 766 211
L 767 205
L 768 209
L 769 209
L 770 228
L 772 228
L 773 239
L 774 238
L 775 256
L 776 263
L 777 267
L 779 270
L 780 280
L 781 284
L 782 300
L 783 298
L 784 306
L 785 303
L 787 306
L 788 309
L 789 313
L 790 314
L 791 318
L 792 322
L 794 327
L 795 328
L 796 330
L 797 329
L 798 326
L 799 329
L 801 331
L 802 331
L 803 331
L 804 331
L 805 332
L 806 334
L 807 333
L 809 335
L 810 338
L 811 341
L 812 341
L 813 341
L 814 337
L 816 335
L 817 331
L 818 329
L 819 327
L 820 328
L 821 329
L 823 330
L 824 331
L 825 333
L 826 327
L 827 328
L 828 324
L 829 321
L 831 319
L 832 319
L 833 318
L 834 319
L 835 315
L 836 314
L 838 313
L 839 307
L 840 306
L 841 301
L 842 298
L 843 291
L 845 285
L 846 270
L 847 273
L 848 262
L 849 254
L 850 252
L 851 249
L 853 245
L 854 249
L 855 242
L 856 229
L 857 223
L 858 200
L 860 189
L 861 184
L 862 179
L 863 173
L 864 166
L 865 167
L 867 169
L 868 178
L 869 176
L 870 181
L 871 185
L 872 191
L 873 182
L 875 193
L 876 191
L 877 198
L 878 200
L 879 198
L 880 197
L 882 211
L 883 209
L 884 213
L 885 209
L 886 207
L 887 211
L 889 213
L 890 204
L 891 201
L 892 195
L 893 189
L 894 177
L 895 163
L 897 137
L 898 111
L 899 79
L 900 65
L 901 49
L 902 45
L 904 25
L 905 13
L 906 27
L 907 30
L 908 28
L 909 17
L 911 18
L 912 37
L 913 65
L 914 64
L 915 95
L 916 116
L 917 149
L 919 166
L 920 185
L 921 202
L 922 227
L 923 240
L 924 251
L 926 263
L 927 273
L 928 272
L 929 285
L 930 291
L 931 299
L 933 292
L 934 288
L 935 286
L 936 290
L 937 295
L 938 295
L 939 293
L 941 304
L 942 311
L 943 314
L 944 317
L 945 316
L 946 316
L 948 321
L 949 320
L 950 319
L 951 321
L 952 319
L 953 322
L 955 325
L 956 324
L 957 327
L 958 327
L 959 327
L 960 331
L 961 333" style="stroke-width:1;stroke:rgba(0,116,217,1.0);fill:none"/><path  d="M 38 351
L 40 351
L 41 351
L 42 351
L 43 351
L 44 351
L 45 351
L 47 351
L 48 351
L 49 351
L 50 351
L 51 351
L 52 351
L 54 351
L 55 351
L 56 351
L 57 351
L 58 351
L 59 351
L 61 351
L 62 350
L 63 351
L 64 350
L 65 350
L 66 351
L 67 351
L 69 350
L 70 351
L 71 350
L 72 350
L 73 350
L 74 351
L 76 350
L 77 350
L 78 350
L 79 351
L 80 351
L 81 351
L 83 350
L 84 351
L 85 351
L 86 351
L 87 351
L 88 351
L 89 351
L 91 351
L 92 351
L 93 351
L 94 351
L 95 351
L 96 351
L 98 351
L 99 351
L 100 351
L 101 351
L 102 351
L 103 351
L 105 351
L 106 351
L 107 351
L 108 351
L 109 351
L 110 351
L 111 351
L 113 351
L 114 351
L 115 351
L 116 351
L 117 351
L 118 351
L 120 351
L 121 351
L 122 350
L 123 351
L 124 351
L 125 351
L 127 351
L 128 351
L 129 351
L 130 351
L 131 351
L 132 351
L 133 351
L 135 350
L 136 351
L 137 351
L 138 351
L 139 351
L 140 351
L 142 351
L 143 351
L 144 351
L 145 351
L 146 351
L 147 351
L 149 351
L 150 351
L 151 351
L 152 351
L 153 351
L 154 351
L 155 351
L 157 351
L 158 351
L 159 351
L 160 351
L 161 351
L 162 351
L 164 351
L 165 351
L 166 351
L 167 351
L 168 351
L 169 351
L 171 351
L 172 351
L 173 351
L 174 351
L 175 351
L 176 351
L 177 351
L 179 351
L 180 351
L 181 351
L 182 351
L 183 351
L 184 351
L 186 351
L 187 351
L 188 351
L 189 351
L 190 351
L 191 351
L 193 351
L 194 351
L 195 351
L 196 351
L 197 351
L 198 351
L 199 351
L 201 350
L 202 351
L 203 351
L 204 351
L 205 351
L 206 351
L 208 351
L 209 351
L 210 351
L 211 351
L 212 350
L 213 351
L 215 351
L 216 351
L 217 351
L 218 351
L 219 351
L 220 351
L 221 351
L 223 351
L 224 351
L 225 351
L 226 351
L 227 351
L 228 351
L 230 351
L 231 351
L 232 351
L 233 351
L 234 351
L 235 351
L 237 351
L 238 351
L 239 351
L 240 350
L 241 351
L 242 351
L 243 351
L 245 351
L 246 351
L 247 351
L 248 351
L 249 351
L 250 351
L 252 351
L 253 351
L 254 351
L 255 351
L 256 351
L 257 351
L 259 351
L 260 351
L 261 351
L 262 351
L 263 351
L 264 351
L 265 351
L 267 351
L 268 351
L 269 350
L 270 351
L 271 351
L 272 351
L 274 350
L 275 351
L 276 351
L 277 351
L 278 350
L 279 351
L 281 351
L 282 351
L 283 350
L 284 351
L 285 351
L 286 351
L 287 351
L 289 351
L 290 351
L 291 351
L 292 351
L 293 351
L 294 351
L 296 351
L 297 350
L 298 351
L 299 351
L 300 351
L 301 350
L 303 351
L 304 350
L 305 351
L 306 351
L 307 350
L 308 350
L 309 350
L 311 350
L 312 350
L 313 350
L 314 350
L 315 350
L 316 350
L 318 350
L 319 350
L 320 350
L 321 350
L 322 350
L 323 350
L 325 350
L 326 350
L 327 350
L 328 350
L 329 350
L 330 350
L 331 350
L 333 350
L 334 350
L 335 350
L 336 350
L 337 350
L 338 350
L 340 350
L 341 350
L 342 350
L 343 350
L 344 350
L 345 350
L 347 350
L 348 350
L 349 350
L 350 350
L 351 350
L 352 350
L 354 350
L 355 350
L 356 350
L 357 350
L 358 350
L 359 350
L 360 350
L 362 350
L 363 350
L 364 350
L 365 350
L 366 350
L 367 350
L 369 350
L 370 350
L 371 351
L 372 350
L 373 350
L 374 350
L 376 350
L 377 350
L 378 351
L 379 350
L 380 350
L 381 350
L 382 350
L 384 351
L 385 350
L 386 349
L 387 350
L 388 350
L 389 350
L 391 350
L 392 350
L 393 350
L 394 349
L 395 350
L 396 350
L 398 350
L 399 350
L 400 350
L 401 350
L 402 350
L 403 350
L 404 350
L 406 350
L 407 350
L 408 350
L 409 350
L 410 350
L 411 351
L 413 350
L 414 350
L 415 350
L 416 350
L 417 350
L 418 350
L 420 350
L 421 350
L 422 350
L 423 351
L 424 350
L 425 350
L 426 350
L 428 350
L 429 350
L 430 351
L 431 351
L 432 350
L 433 351
L 435 351
L 436 350
L 437 351
L 438 350
L 439 351
L 440 351
L 442 350
L 443 351
L 444 350
L 445 351
L 446 350
L 447 351
L 448 350
L 450 350
L 451 350
L 452 351
L 453 350
L 454 350
L 455 350
L 457 350
L 458 350
L 459 350
L 460 350
L 461 350
L 462 350
L 464 350
L 465 350
L 466 350
L 467 350
L 468 350
L 469 350
L 470 350
L 472 351
L 473 350
L 474 350
L 475 350
L 476 350
L 477 350
L 479 350
L 480 350
L 481 350
L 482 350
L 483 350
L 484 350
L 486 351
L 487 350
L 488 350
L 489 351
L 490 350
L 491 350
L 492 350
L 494 350
L 495 350
L 496 350
L 497 350
L 498 350
L 499 350
L 501 350
L 502 350
L 503 350
L 504 350
L 505 350
L 506 350
L 508 350
L 509 350
L 510 350
L 511 350
L 512 350
L 513 350
L 514 351
L 516 350
L 517 350
L 518 350
L 519 350
L 520 350
L 521 350
L 523 350
L 524 350
L 525 350
L 526 351
L 527 350
L 528 350
L 530 350
L 531 350
L 532 350
L 533 350
L 534 350
L 535 350
L 536 350
L 538 351
L 539 351
L 540 350
L 541 350
L 542 350
L 543 350
L 545 350
L 546 351
L 547 350
L 548 351
L 549 351
L 550 351
L 552 351
L 553 351
L 554 351
L 555 351
L 556 350
L 557 351
L 558 351
L 560 351
L 561 351
L 562 351
L 563 351
L 564 351
L 565 350
L 567 351
L 568 351
L 569 351
L 570 350
L 571 350
L 572 351
L 574 351
L 575 351
L 576 351
L 577 351
L 578 351
L 579 350
L 580 350
L 582 350
L 583 350
L 584 351
L 585 351
L 586 350
L 587 351
L 589 350
L 590 351
L 591 350
L 592 351
L 593 351
L 594 351
L 596 351
L 597 351
L 598 351
L 599 351
L 600 351
L 601 351
L 602 351
L 604 351
L 605 351
L 606 351
L 607 351
L 608 351
L 609 351
L 611 351
L 612 351
L 613 351
L 614 350
L 615 351
L 616 351
L 618 351
L 619 351
L 620 350
L 621 351
L 622 351
L 623 351
L 624 351
L 626 351
L 627 350
L 628 351
L 629 351
L 630 351
L 631 351
L 633 351
L 634 351
L 635 351
L 636 351
L 637 351
L 638 351
L 640 351
L 641 351
L 642 351
L 643 351
L 644 351
L 645 350
L 646 351
L 648 350
L 649 351
L 650 350
L 651 350
L 652 350
L 653 351
L 655 350
L 656 350
L 657 350
L 658 351
L 659 351
L 660 351
L 662 351
L 663 351
L 664 351
L 665 350
L 666 351
L 667 351
L 669 351
L 670 350
L 671 351
L 672 351
L 673 351
L 674 351
L 675 350
L 677 350
L 678 350
L 679 350
L 680 350
L 681 350
L 682 351
L 684 350
L 685 350
L 686 350
L 687 350
L 688 351
L 689 350
L 691 350
L 692 350
L 693 350
L 694 351
L 695 350
L 696 350
L 697 351
L 699 350
L 700 350
L 701 350
L 702 350
L 703 350
L 704 350
L 706 351
L 707 350
L 708 351
L 709 350
L 710 350
L 711 350
L 713 350
L 714 350
L 715 350
L 716 351
L 717 351
L 718 351
L 719 350
L 721 350
L 722 350
L 723 350
L 724 350
L 725 350
L 726 350
L 728 350
L 729 350
L 730 350
L 731 350
L 732 350
L 733 350
L 735 350
L 736 350
L 737 350
L 738 350
L 739 350
L 740 350
L 741 350
L 743 350
L 744 350
L 745 349
L 746 349
L 747 349
L 748 349
L 750 349
L 751 349
L 752 349
L 753 349
L 754 348
L 755 349
L 757 349
L 758 349
L 759 349
L 760 347
L 761 350
L 762 347
L 763 349
L 765 348
L 766 349
L 767 348
L 768 348
L 769 349
L 770 349
L 772 349
L 773 349
L 774 349
L 775 350
L 776 349
L 777 350
L 779 350
L 780 350
L 781 350
L 782 350
L 783 350
L 784 350
L 785 350
L 787 350
L 788 350
L 789 350
L 790 350
L 791 350
L 792 350
L 794 350
L 795 350
L 796 350
L 797 350
L 798 350
L 799 350
L 801 350
L 802 350
L 803 350
L 804 350
L 805 350
L 806 350
L 807 350
L 809 350
L 810 350
L 811 351
L 812 350
L 813 350
L 814 350
L 816 350
L 817 350
L 818 350
L 819 350
L 820 350
L 821 350
L 823 350
L 824 350
L 825 350
L 826 349
L 827 350
L 828 350
L 829 350
L 831 350
L 832 350
L 833 350
L 834 350
L 835 350
L 836 350
L 838 350
L 839 349
L 840 350
L 841 350
L 842 349
L 843 349
L 845 349
L 846 348
L 847 350
L 848 349
L 849 349
L 850 349
L 851 349
L 853 349
L 854 349
L 855 349
L 856 347
L 857 348
L 858 346
L 860 348
L 861 348
L 862 348
L 863 348
L 864 347
L 865 348
L 867 347
L 868 348
L 869 348
L 870 349
L 871 349
L 872 347
L 873 347
L 875 348
L 876 348
L 877 349
L 878 349
L 879 348
L 880 347
L 882 349
L 883 348
L 884 349
L 885 348
L 886 349
L 887 349
L 889 347
L 890 348
L 891 347
L 892 348
L 893 348
L 894 347
L 895 347
L 897 344
L 898 345
L 899 344
L 900 346
L 901 346
L 902 347
L 904 345
L 905 343
L 906 346
L 907 344
L 908 346
L 909 345
L 911 347
L 912 347
L 913 346
L 914 346
L 915 348
L 916 348
L 917 349
L 919 349
L 920 349
L 921 348
L 922 349
L 923 349
L 924 350
L 926 350
L 927 350
L 928 349
L 929 349
L 930 350
L 931 350
L 933 349
L 934 350
L 935 350
L 936 350
L 937 350
L 938 350
L 939 350
L 941 350
L 942 350
L 943 350
L 944 350
L 945 350
L 946 350
L 948 350
L 949 350
L 950 350
L 951 350
L 952 350
L 953 350
L 955 350
L 956 350
L 957 350
L 958 350
L 959 350
L 960 350
L 961 350" style="stroke-width:1;stroke:rgba(0,217,101,1.0);fill:none"/><path  d="M 38 351
L 40 351
L 41 351
L 42 351
L 43 351
L 44 351
L 45 351
L 47 351
L 48 351
L 49 351
L 50 351
L 51 351
L 52 351
L 54 351
L 55 351
L 56 351
L 57 351
L 58 351
L 59 351
L 61 351
L 62 351
L 63 351
L 64 351
L 65 350
L 66 351
L 67 351
L 69 351
L 70 351
L 71 350
L 72 351
L 73 351
L 74 351
L 76 351
L 77 351
L 78 351
L 79 351
L 80 350
L 81 351
L 83 351
L 84 351
L 85 351
L 86 351
L 87 351
L 88 351
L 89 351
L 91 351
L 92 351
L 93 351
L 94 351
L 95 351
L 96 351
L 98 351
L 99 351
L 100 351
L 101 351
L 102 351
L 103 351
L 105 351
L 106 351
L 107 351
L 108 351
L 109 351
L 110 351
L 111 351
L 113 351
L 114 351
L 115 351
L 116 351
L 117 351
L 118 351
L 120 351
L 121 351
L 122 351
L 123 351
L 124 351
L 125 351
L 127 351
L 128 351
L 129 351
L 130 351
L 131 351
L 132 351
L 133 351
L 135 351
L 136 351
L 137 351
L 138 351
L 139 351
L 140 351
L 142 351
L 143 351
L 144 351
L 145 351
L 146 351
L 147 351
L 149 351
L 150 351
L 151 351
L 152 351
L 153 351
L 154 351
L 155 351
L 157 351
L 158 351
L 159 351
L 160 351
L 161 351
L 162 351
L 164 351
L 165 351
L 166 351
L 167 351
L 168 351
L 169 351
L 171 351
L 172 351
L 173 351
L 174 351
L 175 351
L 176 351
L 177 351
L 179 351
L 180 351
L 181 351
L 182 351
L 183 351
L 184 351
L 186 351
L 187 351
L 188 351
L 189 351
L 190 351
L 191 351
L 193 351
L 194 351
L 195 351
L 196 351
L 197 351
L 198 351
L 199 351
L 201 351
L 202 351
L 203 351
L 204 351
L 205 351
L 206 351
L 208 351
L 209 351
L 210 351
L 211 351
L 212 351
L 213 351
L 215 351
L 216 351
L 217 351
L 218 351
L 219 351
L 220 351
L 221 351
L 223 351
L 224 351
L 225 351
L 226 351
L 227 351
L 228 351
L 230 351
L 231 351
L 232 351
L 233 351
L 234 351
L 235 351
L 237 351
L 238 351
L 239 351
L 240 351
L 241 351
L 242 351
L 243 351
L 245 351
L 246 351
L 247 351
L 248 351
L 249 351
L 250 351
L 252 351
L 253 351
L 254 351
L 255 351
L 256 351
L 257 351
L 259 351
L 260 351
L 261 351
L 262 351
L 263 351
L 264 351
L 265 351
L 267 351
L 268 351
L 269 351
L 270 351
L 271 351
L 272 351
L 274 351
L 275 351
L 276 351
L 277 351
L 278 351
L 279 351
L 281 351
L 282 351
L 283 351
L 284 351
L 285 351
L 286 351
L 287 351
L 289 351
L 290 351
L 291 351
L 292 351
L 293 351
L 294 351
L 296 351
L 297 351
L 298 351
L 299 351
L 300 351
L 301 351
L 303 351
L 304 351
L 305 351
L 306 351
L 307 351
L 308 351
L 309 351
L 311 351
L 312 351
L 313 351
L 314 351
L 315 351
L 316 351
L 318 351
L 319 351
L 320 351
L 321 351
L 322 351
L 323 351
L 325 351
L 326 351
L 327 351
L 328 351
L 329 351
L 330 351
L 331 351
L 333 351
L 334 351
L 335 351
L 336 351
L 337 351
L 338 351
L 340 351
L 341 351
L 342 351
L 343 350
L 344 351
L 345 351
L 347 351
L 348 351
L 349 351
L 350 351
L 351 351
L 352 351
L 354 351
L 355 351
L 356 351
L 357 351
L 358 351
L 359 350
L 360 351
L 362 351
L 363 351
L 364 351
L 365 351
L 366 351
L 367 351
L 369 351
L 370 351
L 371 351
L 372 351
L 373 351
L 374 350
L 376 351
L 377 351
L 378 351
L 379 351
L 380 350
L 381 350
L 382 351
L 384 351
L 385 351
L 386 351
L 387 350
L 388 351
L 389 350
L 391 351
L 392 351
L 393 351
L 394 351
L 395 351
L 396 351
L 398 350
L 399 351
L 400 351
L 401 351
L 402 351
L 403 351
L 404 351
L 406 351
L 407 351
L 408 351
L 409 351
L 410 351
L 411 351
L 413 351
L 414 351
L 415 351
L 416 351
L 417 351
L 418 351
L 420 351
L 421 351
L 422 351
L 423 350
L 424 351
L 425 351
L 426 351
L 428 351
L 429 351
L 430 351
L 431 351
L 432 351
L 433 351
L 435 351
L 436 351
L 437 351
L 438 351
L 439 351
L 440 351
L 442 351
L 443 351
L 444 351
L 445 351
L 446 351
L 447 351
L 448 351
L 450 351
L 451 351
L 452 351
L 453 351
L 454 351
L 455 351
L 457 351
L 458 351
L 459 351
L 460 351
L 461 351
L 462 351
L 464 351
L 465 351
L 466 351
L 467 351
L 468 351
L 469 351
L 470 351
L 472 351
L 473 351
L 474 351
L 475 351
L 476 351
L 477 351
L 479 350
L 480 351
L 481 350
L 482 351
L 483 351
L 484 350
L 486 351
L 487 351
L 488 351
L 489 351
L 490 351
L 491 351
L 492 351
L 494 351
L 495 351
L 496 351
L 497 351
L 498 351
L 499 351
L 501 351
L 502 351
L 503 351
L 504 351
L 505 351
L 506 351
L 508 351
L 509 351
L 510 351
L 511 351
L 512 351
L 513 351
L 514 351
L 516 351
L 517 350
L 518 351
L 519 351
L 520 351
L 521 351
L 523 351
L 524 351
L 525 351
L 526 351
L 527 351
L 528 351
L 530 351
L 531 351
L 532 351
L 533 351
L 534 351
L 535 351
L 536 351
L 538 351
L 539 351
L 540 351
L 541 351
L 542 351
L 543 351
L 545 351
L 546 351
L 547 351
L 548 351
L 549 351
L 550 351
L 552 351
L 553 351
L 554 351
L 555 351
L 556 351
L 557 351
L 558 351
L 560 351
L 561 351
L 562 351
L 563 351
L 564 351
L 565 351
L 567 351
L 568 351
L 569 351
L 570 351
L 571 351
L 572 351
L 574 351
L 575 351
L 576 351
L 577 351
L 578 351
L 579 351
L 580 351
L 582 351
L 583 351
L 584 351
L 585 351
L 586 351
L 587 351
L 589 351
L 590 351
L 591 351
L 592 351
L 593 351
L 594 351
L 596 351
L 597 351
L 598 351
L 599 351
L 600 351
L 601 351
L 602 351
L 604 351
L 605 351
L 606 351
L 607 351
L 608 351
L 609 351
L 611 351
L 612 351
L 613 351
L 614 351
L 615 351
L 616 351
L 618 351
L 619 351
L 620 351
L 621 351
L 622 351
L 623 351
L 624 351
L 626 351
L 627 351
L 628 351
L 629 351
L 630 351
L 631 351
L 633 351
L 634 351
L 635 351
L 636 351
L 637 351
L 638 351
L 640 351
L 641 350
L 642 351
L 643 351
L 644 351
L 645 351
L 646 351
L 648 351
L 649 351
L 650 351
L 651 351
L 652 351
L 653 351
L 655 351
L 656 351
L 657 351
L 658 351
L 659 351
L 660 351
L 662 351
L 663 351
L 664 351
L 665 351
L 666 351
L 667 351
L 669 351
L 670 351
L 671 351
L 672 351
L 673 351
L 674 351
L 675 351
L 677 351
L 678 351
L 679 351
L 680 351
L 681 351
L 682 351
L 684 351
L 685 351
L 686 351
L 687 351
L 688 351
L 689 351
L 691 351
L 692 351
L 693 351
L 694 351
L 695 351
L 696 350
L 697 351
L 699 351
L 700 351
L 701 351
L 702 351
L 703 351
L 704 351
L 706 351
L 707 351
L 708 351
L 709 351
L 710 351
L 711 351
L 713 351
L 714 351
L 715 351
L 716 351
L 717 351
L 718 351
L 719 351
L 721 351
L 722 351
L 723 351
L 724 351
L 725 350
L 726 351
L 728 351
L 729 351
L 730 351
L 731 351
L 732 351
L 733 351
L 735 351
L 736 351
L 737 351
L 738 351
L 739 351
L 740 351
L 741 351
L 743 351
L 744 351
L 745 351
L 746 351
L 747 351
L 748 351
L 750 351
L 751 351
L 752 351
L 753 351
L 754 351
L 755 351
L 757 351
L 758 351
L 759 351
L 760 351
L 761 351
L 762 351
L 763 351
L 765 350
L 766 350
L 767 350
L 768 351
L 769 351
L 770 351
L 772 350
L 773 351
L 774 351
L 775 351
L 776 351
L 777 351
L 779 351
L 780 350
L 781 350
L 782 351
L 783 351
L 784 351
L 785 351
L 787 351
L 788 351
L 789 351
L 790 351
L 791 351
L 792 351
L 794 350
L 795 351
L 796 350
L 797 351
L 798 351
L 799 351
L 801 351
L 802 351
L 803 351
L 804 351
L 805 351
L 806 350
L 807 351
L 809 350
L 810 351
L 811 351
L 812 351
L 813 351
L 814 351
L 816 351
L 817 351
L 818 351
L 819 351
L 820 351
L 821 351
L 823 351
L 824 351
L 825 351
L 826 351
L 827 351
L 828 350
L 829 351
L 831 351
L 832 351
L 833 351
L 834 351
L 835 351
L 836 351
L 838 351
L 839 351
L 840 351
L 841 351
L 842 351
L 843 351
L 845 351
L 846 351
L 847 351
L 848 351
L 849 351
L 850 351
L 851 351
L 853 351
L 854 351
L 855 351
L 856 351
L 857 351
L 858 351
L 860 351
L 861 351
L 862 351
L 863 351
L 864 351
L 865 351
L 867 351
L 868 351
L 869 351
L 870 351
L 871 351
L 872 351
L 873 351
L 875 351
L 876 351
L 877 351
L 878 351
L 879 351
L 880 351
L 882 351
L 883 351
L 884 351
L 885 351
L 886 351
L 887 350
L 889 351
L 890 351
L 891 351
L 892 351
L 893 351
L 894 351
L 895 351
L 897 351
L 898 351
L 899 351
L 900 351
L 901 351
L 902 351
L 904 351
L 905 350
L 906 351
L 907 351
L 908 351
L 909 351
L 911 351
L 912 351
L 913 351
L 914 351
L 915 351
L 916 351
L 917 351
L 919 351
L 920 351
L 921 351
L 922 351
L 923 351
L 924 351
L 926 351
L 927 350
L 928 351
L 929 351
L 930 351
L 931 351
L 933 351
L 934 351
L 935 351
L 936 351
L 937 351
L 938 351
L 939 351
L 941 351
L 942 351
L 943 351
L 944 351
L 945 351
L 946 351
L 948 351
L 949 351
L 950 351
L 951 351
L 952 351
L 953 351
L 955 351
L 956 351
L 957 351
L 958 351
L 959 351
L 960 351
L 961 351" style="stroke-width:1;stroke:rgba(217,0,116,1.0);fill:none"/><text x="296" y="33" style="stroke-width:0;stroke:none;fill:rgba(51,51,51,1.0);font-size:23.0px;font-family:'Roboto Medium',sans-serif">Waidhofen an der Ybbs(Stadt) 03.05.2022</text><path  d="M 38 11
L 251 11
L 251 91
L 38 91
L 38 11" style="stroke-width:1;stroke:rgba(51,51,51,1.0);fill:rgba(255,255,255,1.0)"/><text x="43" y="26" style="stroke-width:0;stroke:none;fill:rgba(51,51,51,1.0);font-size:10.2px;font-family:'Roboto Medium',sans-serif">Sieben Tage Durschnitt Inzidenz Fälle</text><path  d="M 221 21
L 241 21" style="stroke-width:1;stroke:rgba(0,116,217,1.0);fill:none"/><text x="43" y="56" style="stroke-width:0;stroke:none;fill:rgba(51,51,51,1.0);font-size:10.2px;font-family:'Roboto Medium',sans-serif">Anzahl Faelle</text><path  d="M 110 51
L 241 51" style="stroke-width:1;stroke:rgba(0,217,101,1.0);fill:none"/><text x="43" y="86" style="stroke-width:0;stroke:none;fill:rgba(51,51,51,1.0);font-size:10.2px;font-family:'Roboto Medium',sans-serif">Anzahl Tot</text><path  d="M 98 81
L 241 81" style="stroke-width:1;stroke:rgba(217,0,116,1.0);fill:none"/></svg>