<svg xmlns="http://www.w3.org/2000/svg" xmlns:xlink="http://www.w3.org/1999/xlink" width="1024" height="400">\n<path  d="M 0 0
L 1024 0
L 1024 400
L 0 400
L 0 0" style="stroke-width:0;stroke:rgba(255,255,255,1.0);fill:rgba(255,255,255,1.0)"/><path  d="M 38 11
L 969 11
L 969 351
L 38 351
L 38 11" style="stroke-width:0;stroke:rgba(255,255,255,1.0);fill:rgba(255,255,255,1.0)"/><path  d="M 38 351
L 969 351" style="stroke-width:1;stroke:rgba(51,51,51,1.0);fill:none"/><path  d="M 38 351
L 38 356" style="stroke-width:1;stroke:rgba(51,51,51,1.0);fill:none"/><text x="5" y="373" style="stroke-width:0;stroke:none;fill:rgba(51,51,51,1.0);font-size:12.8px;font-family:'Roboto Medium',sans-serif">2020-02-26</text><path  d="M 155 351
L 155 356" style="stroke-width:1;stroke:rgba(51,51,51,1.0);fill:none"/><text x="122" y="373" style="stroke-width:0;stroke:none;fill:rgba(51,51,51,1.0);font-size:12.8px;font-family:'Roboto Medium',sans-serif">2020-05-11</text><path  d="M 271 351
L 271 356" style="stroke-width:1;stroke:rgba(51,51,51,1.0);fill:none"/><text x="238" y="373" style="stroke-width:0;stroke:none;fill:rgba(51,51,51,1.0);font-size:12.8px;font-family:'Roboto Medium',sans-serif">2020-07-26</text><path  d="M 388 351
L 388 356" style="stroke-width:1;stroke:rgba(51,51,51,1.0);fill:none"/><text x="355" y="373" style="stroke-width:0;stroke:none;fill:rgba(51,51,51,1.0);font-size:12.8px;font-family:'Roboto Medium',sans-serif">2020-10-09</text><path  d="M 504 351
L 504 356" style="stroke-width:1;stroke:rgba(51,51,51,1.0);fill:none"/><text x="471" y="373" style="stroke-width:0;stroke:none;fill:rgba(51,51,51,1.0);font-size:12.8px;font-family:'Roboto Medium',sans-serif">2020-12-24</text><path  d="M 620 351
L 620 356" style="stroke-width:1;stroke:rgba(51,51,51,1.0);fill:none"/><text x="587" y="373" style="stroke-width:0;stroke:none;fill:rgba(51,51,51,1.0);font-size:12.8px;font-family:'Roboto Medium',sans-serif">2021-03-09</text><path  d="M 737 351
L 737 356" style="stroke-width:1;stroke:rgba(51,51,51,1.0);fill:none"/><text x="704" y="373" style="stroke-width:0;stroke:none;fill:rgba(51,51,51,1.0);font-size:12.8px;font-family:'Roboto Medium',sans-serif">2021-05-24</text><path  d="M 853 351
L 853 356" style="stroke-width:1;stroke:rgba(51,51,51,1.0);fill:none"/><text x="820" y="373" style="stroke-width:0;stroke:none;fill:rgba(51,51,51,1.0);font-size:12.8px;font-family:'Roboto Medium',sans-serif">2021-08-07</text><path  d="M 969 351
L 969 356" style="stroke-width:1;stroke:rgba(51,51,51,1.0);fill:none"/><text x="936" y="373" style="stroke-width:0;stroke:none;fill:rgba(51,51,51,1.0);font-size:12.8px;font-family:'Roboto Medium',sans-serif">2021-10-22</text><text x="485" y="395" style="stroke-width:0;stroke:none;fill:rgba(51,51,51,1.0);font-size:12.8px;font-family:'Roboto Medium',sans-serif">Datum</text><path  d="M 970 351
L 970 11" style="stroke-width:1;stroke:rgba(51,51,51,1.0);fill:none"/><path  d="M 970 351
L 975 351" style="stroke-width:1;stroke:rgba(51,51,51,1.0);fill:none"/><text x="980" y="357" style="stroke-width:0;stroke:none;fill:rgba(51,51,51,1.0);font-size:12.8px;font-family:'Roboto Medium',sans-serif">0.00</text><path  d="M 970 308
L 975 308" style="stroke-width:1;stroke:rgba(51,51,51,1.0);fill:none"/><text x="980" y="314" style="stroke-width:0;stroke:none;fill:rgba(51,51,51,1.0);font-size:12.8px;font-family:'Roboto Medium',sans-serif">95.00</text><path  d="M 970 266
L 975 266" style="stroke-width:1;stroke:rgba(51,51,51,1.0);fill:none"/><text x="980" y="272" style="stroke-width:0;stroke:none;fill:rgba(51,51,51,1.0);font-size:12.8px;font-family:'Roboto Medium',sans-serif">190.00</text><path  d="M 970 223
L 975 223" style="stroke-width:1;stroke:rgba(51,51,51,1.0);fill:none"/><text x="980" y="229" style="stroke-width:0;stroke:none;fill:rgba(51,51,51,1.0);font-size:12.8px;font-family:'Roboto Medium',sans-serif">285.00</text><path  d="M 970 181
L 975 181" style="stroke-width:1;stroke:rgba(51,51,51,1.0);fill:none"/><text x="980" y="187" style="stroke-width:0;stroke:none;fill:rgba(51,51,51,1.0);font-size:12.8px;font-family:'Roboto Medium',sans-serif">380.00</text><path  d="M 970 138
L 975 138" style="stroke-width:1;stroke:rgba(51,51,51,1.0);fill:none"/><text x="980" y="144" style="stroke-width:0;stroke:none;fill:rgba(51,51,51,1.0);font-size:12.8px;font-family:'Roboto Medium',sans-serif">475.00</text><path  d="M 970 96
L 975 96" style="stroke-width:1;stroke:rgba(51,51,51,1.0);fill:none"/><text x="980" y="102" style="stroke-width:0;stroke:none;fill:rgba(51,51,51,1.0);font-size:12.8px;font-family:'Roboto Medium',sans-serif">570.00</text><path  d="M 970 53
L 975 53" style="stroke-width:1;stroke:rgba(51,51,51,1.0);fill:none"/><text x="980" y="59" style="stroke-width:0;stroke:none;fill:rgba(51,51,51,1.0);font-size:12.8px;font-family:'Roboto Medium',sans-serif">665.00</text><path  d="M 970 11
L 975 11" style="stroke-width:1;stroke:rgba(51,51,51,1.0);fill:none"/><text x="980" y="17" style="stroke-width:0;stroke:none;fill:rgba(51,51,51,1.0);font-size:12.8px;font-family:'Roboto Medium',sans-serif">760.00</text><path  d="M 38 351
L 40 351
L 42 351
L 43 351
L 45 351
L 46 351
L 48 351
L 49 351
L 51 351
L 52 351
L 54 351
L 55 351
L 57 351
L 59 351
L 60 351
L 62 351
L 63 351
L 65 351
L 66 351
L 68 351
L 69 346
L 71 346
L 72 342
L 74 334
L 75 334
L 77 334
L 79 330
L 80 334
L 82 322
L 83 306
L 85 302
L 86 302
L 88 286
L 89 286
L 91 278
L 92 290
L 94 310
L 96 322
L 97 322
L 99 338
L 100 342
L 102 351
L 103 351
L 105 351
L 106 351
L 108 351
L 109 351
L 111 351
L 112 351
L 114 351
L 116 351
L 117 351
L 119 351
L 120 351
L 122 351
L 123 351
L 125 351
L 126 351
L 128 351
L 129 351
L 131 351
L 133 351
L 134 351
L 136 351
L 137 351
L 139 351
L 140 351
L 142 351
L 143 351
L 145 351
L 146 351
L 148 351
L 149 346
L 151 346
L 153 346
L 154 346
L 156 346
L 157 346
L 159 346
L 160 351
L 162 351
L 163 351
L 165 351
L 166 346
L 168 346
L 170 346
L 171 346
L 173 346
L 174 346
L 176 346
L 177 351
L 179 351
L 180 351
L 182 351
L 183 351
L 185 351
L 186 351
L 188 351
L 190 351
L 191 351
L 193 351
L 194 351
L 196 351
L 197 351
L 199 351
L 200 351
L 202 351
L 203 351
L 205 351
L 207 351
L 208 351
L 210 351
L 211 351
L 213 351
L 214 351
L 216 351
L 217 351
L 219 351
L 220 351
L 222 351
L 223 351
L 225 351
L 227 351
L 228 351
L 230 351
L 231 351
L 233 351
L 234 351
L 236 351
L 237 351
L 239 351
L 240 351
L 242 351
L 244 351
L 245 351
L 247 351
L 248 351
L 250 351
L 251 351
L 253 351
L 254 346
L 256 346
L 257 346
L 259 346
L 260 346
L 262 346
L 264 346
L 265 351
L 267 351
L 268 351
L 270 346
L 271 346
L 273 346
L 274 346
L 276 346
L 277 346
L 279 346
L 280 351
L 282 351
L 284 351
L 285 351
L 287 351
L 288 351
L 290 351
L 291 351
L 293 351
L 294 351
L 296 351
L 297 351
L 299 351
L 301 351
L 302 351
L 304 351
L 305 351
L 307 346
L 308 346
L 310 346
L 311 346
L 313 346
L 314 346
L 316 346
L 317 351
L 319 351
L 321 351
L 322 351
L 324 351
L 325 351
L 327 351
L 328 351
L 330 351
L 331 351
L 333 351
L 334 351
L 336 351
L 338 351
L 339 351
L 341 351
L 342 351
L 344 351
L 345 346
L 347 346
L 348 346
L 350 346
L 351 346
L 353 346
L 354 346
L 356 351
L 358 346
L 359 346
L 361 346
L 362 346
L 364 338
L 365 338
L 367 338
L 368 342
L 370 342
L 371 342
L 373 342
L 375 351
L 376 351
L 378 351
L 379 351
L 381 351
L 382 346
L 384 346
L 385 346
L 387 346
L 388 338
L 390 338
L 391 334
L 393 338
L 395 338
L 396 334
L 398 330
L 399 330
L 401 326
L 402 306
L 404 294
L 405 290
L 407 282
L 408 270
L 410 274
L 412 270
L 413 286
L 415 282
L 416 270
L 418 250
L 419 258
L 421 250
L 422 234
L 424 218
L 425 218
L 427 210
L 428 202
L 430 178
L 432 142
L 433 105
L 435 73
L 436 53
L 438 33
L 439 17
L 441 13
L 442 29
L 444 49
L 445 85
L 447 69
L 449 81
L 450 97
L 452 105
L 453 89
L 455 117
L 456 101
L 458 138
L 459 130
L 461 154
L 462 158
L 464 186
L 465 174
L 467 174
L 469 162
L 470 174
L 472 174
L 473 166
L 475 162
L 476 174
L 478 206
L 479 226
L 481 254
L 482 222
L 484 234
L 486 238
L 487 242
L 489 234
L 490 242
L 492 226
L 493 266
L 495 278
L 496 286
L 498 294
L 499 290
L 501 218
L 502 202
L 504 194
L 506 186
L 507 190
L 509 158
L 510 162
L 512 166
L 513 138
L 515 138
L 516 113
L 518 93
L 519 113
L 521 101
L 522 158
L 524 186
L 526 194
L 527 190
L 529 214
L 530 206
L 532 214
L 533 210
L 535 242
L 536 238
L 538 246
L 539 238
L 541 246
L 543 254
L 544 254
L 546 222
L 547 226
L 549 258
L 550 270
L 552 274
L 553 274
L 555 274
L 556 302
L 558 302
L 559 306
L 561 306
L 563 310
L 564 318
L 566 334
L 567 334
L 569 342
L 570 338
L 572 338
L 573 342
L 575 338
L 576 338
L 578 330
L 580 330
L 581 330
L 583 330
L 584 326
L 586 318
L 587 298
L 589 310
L 590 302
L 592 298
L 593 290
L 595 282
L 596 286
L 598 298
L 600 282
L 601 286
L 603 290
L 604 290
L 606 286
L 607 286
L 609 282
L 610 286
L 612 266
L 613 250
L 615 258
L 617 266
L 618 270
L 620 266
L 621 266
L 623 286
L 624 298
L 626 294
L 627 298
L 629 298
L 630 310
L 632 318
L 633 318
L 635 314
L 637 286
L 638 290
L 640 278
L 641 250
L 643 214
L 644 210
L 646 190
L 647 202
L 649 174
L 650 170
L 652 178
L 654 206
L 655 206
L 657 222
L 658 202
L 660 218
L 661 206
L 663 210
L 664 218
L 666 210
L 667 194
L 669 218
L 670 214
L 672 246
L 674 254
L 675 250
L 677 258
L 678 278
L 680 270
L 681 274
L 683 266
L 684 266
L 686 258
L 687 266
L 689 254
L 691 262
L 692 266
L 694 250
L 695 254
L 697 262
L 698 258
L 700 278
L 701 282
L 703 290
L 704 314
L 706 306
L 707 302
L 709 294
L 711 290
L 712 294
L 714 294
L 715 290
L 717 306
L 718 318
L 720 330
L 721 338
L 723 346
L 724 346
L 726 351
L 728 334
L 729 334
L 731 334
L 732 334
L 734 334
L 735 334
L 737 334
L 738 351
L 740 334
L 741 334
L 743 334
L 744 334
L 746 330
L 748 326
L 749 326
L 751 342
L 752 342
L 754 342
L 755 342
L 757 346
L 758 346
L 760 330
L 761 310
L 763 302
L 764 302
L 766 302
L 768 298
L 769 302
L 771 314
L 772 334
L 774 338
L 775 338
L 777 338
L 778 342
L 780 342
L 781 346
L 783 346
L 785 351
L 786 351
L 788 351
L 789 351
L 791 351
L 792 351
L 794 351
L 795 351
L 797 351
L 798 351
L 800 351
L 801 351
L 803 351
L 805 346
L 806 346
L 808 346
L 809 346
L 811 346
L 812 342
L 814 342
L 815 346
L 817 346
L 818 346
L 820 346
L 822 342
L 823 346
L 825 346
L 826 346
L 828 346
L 829 346
L 831 346
L 832 351
L 834 351
L 835 351
L 837 351
L 838 351
L 840 351
L 842 351
L 843 351
L 845 351
L 846 346
L 848 346
L 849 342
L 851 342
L 852 338
L 854 334
L 855 330
L 857 334
L 859 326
L 860 322
L 862 318
L 863 322
L 865 326
L 866 330
L 868 330
L 869 338
L 871 346
L 872 346
L 874 346
L 875 346
L 877 346
L 879 342
L 880 342
L 882 342
L 883 346
L 885 346
L 886 338
L 888 330
L 889 318
L 891 314
L 892 310
L 894 298
L 896 298
L 897 302
L 899 298
L 900 306
L 902 286
L 903 290
L 905 298
L 906 286
L 908 286
L 909 290
L 911 298
L 912 306
L 914 286
L 916 290
L 917 294
L 919 278
L 920 274
L 922 262
L 923 270
L 925 274
L 926 274
L 928 274
L 929 294
L 931 302
L 933 310
L 934 298
L 936 310
L 937 298
L 939 302
L 940 302
L 942 306
L 943 310
L 945 318
L 946 310
L 948 314
L 949 306
L 951 298
L 953 266
L 954 246
L 956 234
L 957 230
L 959 222
L 960 218
L 962 206
L 963 222
L 965 218
L 966 234
L 968 246
L 969 242" style="stroke-width:1;stroke:rgba(0,116,217,1.0);fill:none"/><path  d="M 38 351
L 40 351
L 42 351
L 43 351
L 45 351
L 46 351
L 48 351
L 49 351
L 51 351
L 52 351
L 54 351
L 55 351
L 57 351
L 59 351
L 60 351
L 62 351
L 63 351
L 65 351
L 66 351
L 68 351
L 69 350
L 71 351
L 72 350
L 74 350
L 75 351
L 77 351
L 79 350
L 80 351
L 82 349
L 83 348
L 85 349
L 86 351
L 88 349
L 89 350
L 91 350
L 92 351
L 94 351
L 96 351
L 97 351
L 99 351
L 100 351
L 102 351
L 103 351
L 105 351
L 106 351
L 108 351
L 109 351
L 111 351
L 112 351
L 114 351
L 116 351
L 117 351
L 119 351
L 120 351
L 122 351
L 123 351
L 125 351
L 126 351
L 128 351
L 129 351
L 131 351
L 133 351
L 134 351
L 136 351
L 137 351
L 139 351
L 140 351
L 142 351
L 143 351
L 145 351
L 146 351
L 148 351
L 149 350
L 151 351
L 153 351
L 154 351
L 156 351
L 157 351
L 159 351
L 160 351
L 162 351
L 163 351
L 165 351
L 166 350
L 168 351
L 170 351
L 171 351
L 173 351
L 174 351
L 176 351
L 177 351
L 179 351
L 180 351
L 182 351
L 183 351
L 185 351
L 186 351
L 188 351
L 190 351
L 191 351
L 193 351
L 194 351
L 196 351
L 197 351
L 199 351
L 200 351
L 202 351
L 203 351
L 205 351
L 207 351
L 208 351
L 210 351
L 211 351
L 213 351
L 214 351
L 216 351
L 217 351
L 219 351
L 220 351
L 222 351
L 223 351
L 225 351
L 227 351
L 228 351
L 230 351
L 231 351
L 233 351
L 234 351
L 236 351
L 237 351
L 239 351
L 240 351
L 242 351
L 244 351
L 245 351
L 247 351
L 248 351
L 250 351
L 251 351
L 253 351
L 254 350
L 256 351
L 257 351
L 259 351
L 260 351
L 262 351
L 264 351
L 265 351
L 267 351
L 268 351
L 270 350
L 271 351
L 273 351
L 274 351
L 276 351
L 277 351
L 279 351
L 280 351
L 282 351
L 284 351
L 285 351
L 287 351
L 288 351
L 290 351
L 291 351
L 293 351
L 294 351
L 296 351
L 297 351
L 299 351
L 301 351
L 302 351
L 304 351
L 305 351
L 307 350
L 308 351
L 310 351
L 311 351
L 313 351
L 314 351
L 316 351
L 317 351
L 319 351
L 321 351
L 322 351
L 324 351
L 325 351
L 327 351
L 328 351
L 330 351
L 331 351
L 333 351
L 334 351
L 336 351
L 338 351
L 339 351
L 341 351
L 342 351
L 344 351
L 345 350
L 347 351
L 348 351
L 350 351
L 351 351
L 353 351
L 354 351
L 356 351
L 358 350
L 359 351
L 361 351
L 362 351
L 364 350
L 365 351
L 367 351
L 368 351
L 370 351
L 371 351
L 373 351
L 375 351
L 376 351
L 378 351
L 379 351
L 381 351
L 382 350
L 384 351
L 385 351
L 387 351
L 388 350
L 390 351
L 391 350
L 393 351
L 395 351
L 396 350
L 398 350
L 399 350
L 401 350
L 402 348
L 404 349
L 405 350
L 407 349
L 408 349
L 410 350
L 412 350
L 413 350
L 415 349
L 416 349
L 418 347
L 419 350
L 421 349
L 422 348
L 424 348
L 425 349
L 427 348
L 428 346
L 430 347
L 432 345
L 433 344
L 435 344
L 436 346
L 438 346
L 439 344
L 441 346
L 442 347
L 444 346
L 445 348
L 447 345
L 449 347
L 450 346
L 452 347
L 453 345
L 455 349
L 456 346
L 458 349
L 459 346
L 461 349
L 462 348
L 464 348
L 465 348
L 467 346
L 469 347
L 470 347
L 472 349
L 473 347
L 475 348
L 476 349
L 478 350
L 479 350
L 481 351
L 482 345
L 484 348
L 486 348
L 487 350
L 489 349
L 490 351
L 492 349
L 493 350
L 495 350
L 496 349
L 498 351
L 499 349
L 501 342
L 502 347
L 504 349
L 506 349
L 507 350
L 509 347
L 510 349
L 512 343
L 513 344
L 515 349
L 516 346
L 518 347
L 519 349
L 521 348
L 522 349
L 524 347
L 526 350
L 527 346
L 529 350
L 530 348
L 532 349
L 533 349
L 535 351
L 536 349
L 538 346
L 539 349
L 541 349
L 543 350
L 544 349
L 546 347
L 547 350
L 549 350
L 550 351
L 552 350
L 553 350
L 555 349
L 556 350
L 558 350
L 559 351
L 561 351
L 563 350
L 564 351
L 566 351
L 567 350
L 569 351
L 570 350
L 572 351
L 573 351
L 575 350
L 576 351
L 578 349
L 580 351
L 581 350
L 583 351
L 584 350
L 586 349
L 587 348
L 589 351
L 590 350
L 592 350
L 593 350
L 595 349
L 596 350
L 598 350
L 600 349
L 601 350
L 603 350
L 604 350
L 606 349
L 607 350
L 609 349
L 610 349
L 612 348
L 613 348
L 615 351
L 617 350
L 618 350
L 620 349
L 621 349
L 623 350
L 624 350
L 626 350
L 627 350
L 629 350
L 630 350
L 632 350
L 633 350
L 635 349
L 637 347
L 638 351
L 640 349
L 641 347
L 643 346
L 644 350
L 646 347
L 647 348
L 649 347
L 650 348
L 652 348
L 654 349
L 655 350
L 657 349
L 658 346
L 660 349
L 661 347
L 663 348
L 664 350
L 666 349
L 667 347
L 669 349
L 670 349
L 672 351
L 674 349
L 675 350
L 677 350
L 678 349
L 680 348
L 681 349
L 683 350
L 684 349
L 686 349
L 687 351
L 689 348
L 691 349
L 692 350
L 694 348
L 695 350
L 697 350
L 698 350
L 700 350
L 701 349
L 703 351
L 704 351
L 706 349
L 707 349
L 709 349
L 711 350
L 712 350
L 714 351
L 715 350
L 717 351
L 718 351
L 720 351
L 721 351
L 723 351
L 724 351
L 726 351
L 728 349
L 729 351
L 731 351
L 732 351
L 734 351
L 735 351
L 737 351
L 738 351
L 740 349
L 741 351
L 743 351
L 744 351
L 746 350
L 748 350
L 749 351
L 751 351
L 752 351
L 754 351
L 755 351
L 757 351
L 758 350
L 760 349
L 761 348
L 763 350
L 764 351
L 766 351
L 768 350
L 769 351
L 771 350
L 772 351
L 774 350
L 775 351
L 777 351
L 778 351
L 780 351
L 781 351
L 783 351
L 785 351
L 786 351
L 788 351
L 789 351
L 791 351
L 792 351
L 794 351
L 795 351
L 797 351
L 798 351
L 800 351
L 801 351
L 803 351
L 805 350
L 806 351
L 808 351
L 809 351
L 811 351
L 812 350
L 814 351
L 815 351
L 817 351
L 818 351
L 820 351
L 822 350
L 823 351
L 825 351
L 826 351
L 828 351
L 829 351
L 831 351
L 832 351
L 834 351
L 835 351
L 837 351
L 838 351
L 840 351
L 842 351
L 843 351
L 845 351
L 846 350
L 848 351
L 849 350
L 851 351
L 852 350
L 854 350
L 855 350
L 857 351
L 859 350
L 860 350
L 862 350
L 863 351
L 865 351
L 866 351
L 868 351
L 869 351
L 871 351
L 872 350
L 874 351
L 875 351
L 877 351
L 879 350
L 880 351
L 882 351
L 883 351
L 885 351
L 886 350
L 888 350
L 889 349
L 891 350
L 892 350
L 894 349
L 896 351
L 897 350
L 899 349
L 900 350
L 902 348
L 903 351
L 905 350
L 906 349
L 908 350
L 909 350
L 911 351
L 912 349
L 914 348
L 916 351
L 917 350
L 919 348
L 920 349
L 922 349
L 923 350
L 925 349
L 926 351
L 928 350
L 929 351
L 931 350
L 933 350
L 934 348
L 936 350
L 937 349
L 939 350
L 940 351
L 942 351
L 943 351
L 945 349
L 946 349
L 948 350
L 949 349
L 951 350
L 953 347
L 954 348
L 956 348
L 957 349
L 959 349
L 960 349
L 962 348
L 963 349
L 965 348
L 966 350
L 968 350
L 969 348" style="stroke-width:1;stroke:rgba(0,217,101,1.0);fill:none"/><path  d="M 38 351
L 40 351
L 42 351
L 43 351
L 45 351
L 46 351
L 48 351
L 49 351
L 51 351
L 52 351
L 54 351
L 55 351
L 57 351
L 59 351
L 60 351
L 62 351
L 63 351
L 65 351
L 66 351
L 68 351
L 69 351
L 71 351
L 72 351
L 74 350
L 75 351
L 77 351
L 79 351
L 80 351
L 82 350
L 83 351
L 85 351
L 86 351
L 88 351
L 89 351
L 91 351
L 92 351
L 94 350
L 96 351
L 97 351
L 99 351
L 100 351
L 102 351
L 103 351
L 105 351
L 106 351
L 108 351
L 109 351
L 111 351
L 112 351
L 114 351
L 116 351
L 117 351
L 119 351
L 120 351
L 122 351
L 123 351
L 125 351
L 126 351
L 128 351
L 129 351
L 131 351
L 133 351
L 134 351
L 136 351
L 137 351
L 139 351
L 140 351
L 142 351
L 143 351
L 145 351
L 146 351
L 148 351
L 149 351
L 151 351
L 153 351
L 154 351
L 156 351
L 157 351
L 159 351
L 160 351
L 162 351
L 163 351
L 165 351
L 166 351
L 168 351
L 170 351
L 171 351
L 173 351
L 174 351
L 176 351
L 177 351
L 179 351
L 180 351
L 182 351
L 183 351
L 185 351
L 186 351
L 188 351
L 190 351
L 191 351
L 193 351
L 194 351
L 196 351
L 197 351
L 199 351
L 200 351
L 202 351
L 203 351
L 205 351
L 207 351
L 208 351
L 210 351
L 211 351
L 213 351
L 214 351
L 216 351
L 217 351
L 219 351
L 220 351
L 222 351
L 223 351
L 225 351
L 227 351
L 228 351
L 230 351
L 231 351
L 233 351
L 234 351
L 236 351
L 237 351
L 239 351
L 240 351
L 242 351
L 244 351
L 245 351
L 247 351
L 248 351
L 250 351
L 251 351
L 253 351
L 254 351
L 256 351
L 257 351
L 259 351
L 260 351
L 262 351
L 264 351
L 265 351
L 267 351
L 268 351
L 270 351
L 271 351
L 273 351
L 274 351
L 276 351
L 277 351
L 279 351
L 280 351
L 282 351
L 284 351
L 285 351
L 287 351
L 288 351
L 290 351
L 291 351
L 293 351
L 294 351
L 296 351
L 297 351
L 299 351
L 301 351
L 302 351
L 304 351
L 305 351
L 307 351
L 308 351
L 310 351
L 311 351
L 313 351
L 314 351
L 316 351
L 317 351
L 319 351
L 321 351
L 322 351
L 324 351
L 325 351
L 327 351
L 328 351
L 330 351
L 331 351
L 333 351
L 334 351
L 336 351
L 338 351
L 339 351
L 341 351
L 342 351
L 344 351
L 345 351
L 347 351
L 348 351
L 350 351
L 351 351
L 353 351
L 354 351
L 356 351
L 358 351
L 359 351
L 361 351
L 362 351
L 364 351
L 365 351
L 367 351
L 368 351
L 370 351
L 371 351
L 373 351
L 375 351
L 376 351
L 378 351
L 379 351
L 381 351
L 382 351
L 384 351
L 385 351
L 387 351
L 388 351
L 390 351
L 391 351
L 393 351
L 395 351
L 396 351
L 398 351
L 399 351
L 401 351
L 402 351
L 404 351
L 405 351
L 407 351
L 408 351
L 410 351
L 412 351
L 413 351
L 415 351
L 416 351
L 418 351
L 419 351
L 421 351
L 422 351
L 424 351
L 425 351
L 427 351
L 428 351
L 430 351
L 432 351
L 433 351
L 435 351
L 436 351
L 438 351
L 439 351
L 441 351
L 442 351
L 444 350
L 445 351
L 447 351
L 449 351
L 450 351
L 452 351
L 453 351
L 455 351
L 456 351
L 458 351
L 459 351
L 461 351
L 462 351
L 464 351
L 465 350
L 467 351
L 469 351
L 470 351
L 472 351
L 473 351
L 475 351
L 476 351
L 478 351
L 479 351
L 481 351
L 482 351
L 484 351
L 486 351
L 487 351
L 489 351
L 490 351
L 492 351
L 493 350
L 495 350
L 496 351
L 498 351
L 499 351
L 501 351
L 502 351
L 504 351
L 506 350
L 507 351
L 509 351
L 510 351
L 512 351
L 513 351
L 515 351
L 516 351
L 518 351
L 519 351
L 521 351
L 522 351
L 524 351
L 526 351
L 527 351
L 529 351
L 530 351
L 532 351
L 533 351
L 535 351
L 536 351
L 538 351
L 539 351
L 541 351
L 543 351
L 544 351
L 546 351
L 547 351
L 549 351
L 550 350
L 552 351
L 553 351
L 555 351
L 556 351
L 558 351
L 559 351
L 561 351
L 563 351
L 564 351
L 566 351
L 567 351
L 569 351
L 570 351
L 572 351
L 573 351
L 575 351
L 576 351
L 578 351
L 580 351
L 581 351
L 583 351
L 584 351
L 586 351
L 587 351
L 589 351
L 590 351
L 592 351
L 593 351
L 595 351
L 596 351
L 598 351
L 600 351
L 601 351
L 603 351
L 604 351
L 606 351
L 607 351
L 609 351
L 610 351
L 612 351
L 613 351
L 615 351
L 617 351
L 618 351
L 620 351
L 621 351
L 623 351
L 624 350
L 626 351
L 627 350
L 629 351
L 630 351
L 632 350
L 633 351
L 635 351
L 637 351
L 638 351
L 640 351
L 641 351
L 643 351
L 644 351
L 646 351
L 647 351
L 649 351
L 650 351
L 652 351
L 654 351
L 655 351
L 657 351
L 658 351
L 660 351
L 661 351
L 663 351
L 664 351
L 666 351
L 667 351
L 669 351
L 670 351
L 672 351
L 674 351
L 675 350
L 677 351
L 678 351
L 680 351
L 681 351
L 683 351
L 684 351
L 686 351
L 687 351
L 689 351
L 691 351
L 692 351
L 694 351
L 695 351
L 697 351
L 698 351
L 700 351
L 701 351
L 703 351
L 704 351
L 706 351
L 707 351
L 709 351
L 711 351
L 712 351
L 714 351
L 715 351
L 717 351
L 718 351
L 720 351
L 721 351
L 723 351
L 724 351
L 726 351
L 728 351
L 729 351
L 731 351
L 732 351
L 734 351
L 735 351
L 737 351
L 738 351
L 740 351
L 741 351
L 743 351
L 744 351
L 746 351
L 748 351
L 749 351
L 751 351
L 752 351
L 754 351
L 755 351
L 757 351
L 758 351
L 760 351
L 761 351
L 763 351
L 764 351
L 766 351
L 768 351
L 769 351
L 771 351
L 772 351
L 774 351
L 775 351
L 777 351
L 778 351
L 780 351
L 781 351
L 783 351
L 785 351
L 786 351
L 788 351
L 789 351
L 791 351
L 792 351
L 794 351
L 795 351
L 797 351
L 798 351
L 800 351
L 801 351
L 803 351
L 805 351
L 806 351
L 808 351
L 809 351
L 811 351
L 812 351
L 814 351
L 815 351
L 817 351
L 818 351
L 820 351
L 822 351
L 823 351
L 825 351
L 826 351
L 828 351
L 829 351
L 831 351
L 832 351
L 834 351
L 835 351
L 837 351
L 838 351
L 840 351
L 842 351
L 843 351
L 845 351
L 846 351
L 848 351
L 849 351
L 851 351
L 852 351
L 854 351
L 855 351
L 857 351
L 859 351
L 860 351
L 862 351
L 863 351
L 865 351
L 866 351
L 868 351
L 869 351
L 871 351
L 872 351
L 874 351
L 875 351
L 877 351
L 879 351
L 880 351
L 882 351
L 883 351
L 885 351
L 886 351
L 888 351
L 889 351
L 891 351
L 892 351
L 894 351
L 896 351
L 897 351
L 899 351
L 900 351
L 902 351
L 903 351
L 905 351
L 906 351
L 908 351
L 909 351
L 911 351
L 912 351
L 914 350
L 916 351
L 917 351
L 919 351
L 920 351
L 922 351
L 923 351
L 925 351
L 926 351
L 928 351
L 929 351
L 931 351
L 933 351
L 934 351
L 936 351
L 937 351
L 939 351
L 940 351
L 942 351
L 943 351
L 945 351
L 946 351
L 948 351
L 949 351
L 951 351
L 953 350
L 954 351
L 956 351
L 957 351
L 959 351
L 960 351
L 962 351
L 963 351
L 965 351
L 966 351
L 968 351
L 969 351" style="stroke-width:1;stroke:rgba(217,0,116,1.0);fill:none"/><text x="296" y="33" style="stroke-width:0;stroke:none;fill:rgba(51,51,51,1.0);font-size:23.0px;font-family:'Roboto Medium',sans-serif">Waidhofen an der Ybbs(Stadt) 22.10.2021</text><path  d="M 38 11
L 251 11
L 251 91
L 38 91
L 38 11" style="stroke-width:1;stroke:rgba(51,51,51,1.0);fill:rgba(255,255,255,1.0)"/><text x="43" y="26" style="stroke-width:0;stroke:none;fill:rgba(51,51,51,1.0);font-size:10.2px;font-family:'Roboto Medium',sans-serif">Sieben Tage Durschnitt Inzidenz Fälle</text><path  d="M 221 21
L 241 21" style="stroke-width:1;stroke:rgba(0,116,217,1.0);fill:none"/><text x="43" y="56" style="stroke-width:0;stroke:none;fill:rgba(51,51,51,1.0);font-size:10.2px;font-family:'Roboto Medium',sans-serif">Anzahl Faelle</text><path  d="M 110 51
L 241 51" style="stroke-width:1;stroke:rgba(0,217,101,1.0);fill:none"/><text x="43" y="86" style="stroke-width:0;stroke:none;fill:rgba(51,51,51,1.0);font-size:10.2px;font-family:'Roboto Medium',sans-serif">Anzahl Tot</text><path  d="M 98 81
L 241 81" style="stroke-width:1;stroke:rgba(217,0,116,1.0);fill:none"/></svg>