<svg xmlns="http://www.w3.org/2000/svg" xmlns:xlink="http://www.w3.org/1999/xlink" width="1024" height="400">\n<path  d="M 0 0
L 1024 0
L 1024 400
L 0 400
L 0 0" style="stroke-width:0;stroke:rgba(255,255,255,1.0);fill:rgba(255,255,255,1.0)"/><path  d="M 38 11
L 969 11
L 969 351
L 38 351
L 38 11" style="stroke-width:0;stroke:rgba(255,255,255,1.0);fill:rgba(255,255,255,1.0)"/><path  d="M 38 351
L 969 351" style="stroke-width:1;stroke:rgba(51,51,51,1.0);fill:none"/><path  d="M 38 351
L 38 356" style="stroke-width:1;stroke:rgba(51,51,51,1.0);fill:none"/><text x="5" y="373" style="stroke-width:0;stroke:none;fill:rgba(51,51,51,1.0);font-size:12.8px;font-family:'Roboto Medium',sans-serif">2020-02-26</text><path  d="M 155 351
L 155 356" style="stroke-width:1;stroke:rgba(51,51,51,1.0);fill:none"/><text x="122" y="373" style="stroke-width:0;stroke:none;fill:rgba(51,51,51,1.0);font-size:12.8px;font-family:'Roboto Medium',sans-serif">2020-05-08</text><path  d="M 271 351
L 271 356" style="stroke-width:1;stroke:rgba(51,51,51,1.0);fill:none"/><text x="238" y="373" style="stroke-width:0;stroke:none;fill:rgba(51,51,51,1.0);font-size:12.8px;font-family:'Roboto Medium',sans-serif">2020-07-19</text><path  d="M 388 351
L 388 356" style="stroke-width:1;stroke:rgba(51,51,51,1.0);fill:none"/><text x="355" y="373" style="stroke-width:0;stroke:none;fill:rgba(51,51,51,1.0);font-size:12.8px;font-family:'Roboto Medium',sans-serif">2020-09-30</text><path  d="M 504 351
L 504 356" style="stroke-width:1;stroke:rgba(51,51,51,1.0);fill:none"/><text x="471" y="373" style="stroke-width:0;stroke:none;fill:rgba(51,51,51,1.0);font-size:12.8px;font-family:'Roboto Medium',sans-serif">2020-12-11</text><path  d="M 620 351
L 620 356" style="stroke-width:1;stroke:rgba(51,51,51,1.0);fill:none"/><text x="587" y="373" style="stroke-width:0;stroke:none;fill:rgba(51,51,51,1.0);font-size:12.8px;font-family:'Roboto Medium',sans-serif">2021-02-21</text><path  d="M 737 351
L 737 356" style="stroke-width:1;stroke:rgba(51,51,51,1.0);fill:none"/><text x="704" y="373" style="stroke-width:0;stroke:none;fill:rgba(51,51,51,1.0);font-size:12.8px;font-family:'Roboto Medium',sans-serif">2021-05-05</text><path  d="M 853 351
L 853 356" style="stroke-width:1;stroke:rgba(51,51,51,1.0);fill:none"/><text x="820" y="373" style="stroke-width:0;stroke:none;fill:rgba(51,51,51,1.0);font-size:12.8px;font-family:'Roboto Medium',sans-serif">2021-07-16</text><path  d="M 969 351
L 969 356" style="stroke-width:1;stroke:rgba(51,51,51,1.0);fill:none"/><text x="936" y="373" style="stroke-width:0;stroke:none;fill:rgba(51,51,51,1.0);font-size:12.8px;font-family:'Roboto Medium',sans-serif">2021-09-27</text><text x="485" y="395" style="stroke-width:0;stroke:none;fill:rgba(51,51,51,1.0);font-size:12.8px;font-family:'Roboto Medium',sans-serif">Datum</text><path  d="M 970 351
L 970 11" style="stroke-width:1;stroke:rgba(51,51,51,1.0);fill:none"/><path  d="M 970 351
L 975 351" style="stroke-width:1;stroke:rgba(51,51,51,1.0);fill:none"/><text x="980" y="357" style="stroke-width:0;stroke:none;fill:rgba(51,51,51,1.0);font-size:12.8px;font-family:'Roboto Medium',sans-serif">0.00</text><path  d="M 970 308
L 975 308" style="stroke-width:1;stroke:rgba(51,51,51,1.0);fill:none"/><text x="980" y="314" style="stroke-width:0;stroke:none;fill:rgba(51,51,51,1.0);font-size:12.8px;font-family:'Roboto Medium',sans-serif">55.00</text><path  d="M 970 266
L 975 266" style="stroke-width:1;stroke:rgba(51,51,51,1.0);fill:none"/><text x="980" y="272" style="stroke-width:0;stroke:none;fill:rgba(51,51,51,1.0);font-size:12.8px;font-family:'Roboto Medium',sans-serif">110.00</text><path  d="M 970 223
L 975 223" style="stroke-width:1;stroke:rgba(51,51,51,1.0);fill:none"/><text x="980" y="229" style="stroke-width:0;stroke:none;fill:rgba(51,51,51,1.0);font-size:12.8px;font-family:'Roboto Medium',sans-serif">165.00</text><path  d="M 970 181
L 975 181" style="stroke-width:1;stroke:rgba(51,51,51,1.0);fill:none"/><text x="980" y="187" style="stroke-width:0;stroke:none;fill:rgba(51,51,51,1.0);font-size:12.8px;font-family:'Roboto Medium',sans-serif">220.00</text><path  d="M 970 138
L 975 138" style="stroke-width:1;stroke:rgba(51,51,51,1.0);fill:none"/><text x="980" y="144" style="stroke-width:0;stroke:none;fill:rgba(51,51,51,1.0);font-size:12.8px;font-family:'Roboto Medium',sans-serif">275.00</text><path  d="M 970 96
L 975 96" style="stroke-width:1;stroke:rgba(51,51,51,1.0);fill:none"/><text x="980" y="102" style="stroke-width:0;stroke:none;fill:rgba(51,51,51,1.0);font-size:12.8px;font-family:'Roboto Medium',sans-serif">330.00</text><path  d="M 970 53
L 975 53" style="stroke-width:1;stroke:rgba(51,51,51,1.0);fill:none"/><text x="980" y="59" style="stroke-width:0;stroke:none;fill:rgba(51,51,51,1.0);font-size:12.8px;font-family:'Roboto Medium',sans-serif">385.00</text><path  d="M 970 11
L 975 11" style="stroke-width:1;stroke:rgba(51,51,51,1.0);fill:none"/><text x="980" y="17" style="stroke-width:0;stroke:none;fill:rgba(51,51,51,1.0);font-size:12.8px;font-family:'Roboto Medium',sans-serif">440.00</text><path  d="M 38 351
L 40 351
L 42 350
L 43 350
L 45 350
L 47 350
L 48 350
L 50 349
L 51 349
L 53 350
L 55 350
L 56 350
L 58 350
L 59 350
L 61 351
L 63 351
L 64 347
L 66 347
L 67 346
L 69 344
L 71 334
L 72 330
L 74 330
L 75 328
L 77 323
L 79 319
L 80 317
L 82 323
L 84 326
L 85 316
L 87 317
L 88 321
L 90 323
L 92 325
L 93 328
L 95 325
L 96 332
L 98 334
L 100 328
L 101 328
L 103 323
L 104 323
L 106 325
L 108 323
L 109 324
L 111 329
L 112 317
L 114 321
L 116 321
L 117 322
L 119 324
L 121 324
L 122 326
L 124 342
L 125 345
L 127 346
L 129 346
L 130 350
L 132 351
L 133 347
L 135 346
L 137 346
L 138 346
L 140 345
L 141 345
L 143 342
L 145 345
L 146 346
L 148 345
L 149 345
L 151 345
L 153 344
L 154 345
L 156 330
L 157 330
L 159 331
L 161 331
L 162 332
L 164 334
L 166 334
L 167 349
L 169 349
L 170 346
L 172 347
L 174 345
L 175 345
L 177 344
L 178 344
L 180 344
L 182 346
L 183 346
L 185 348
L 186 348
L 188 350
L 190 350
L 191 350
L 193 350
L 194 350
L 196 350
L 198 349
L 199 350
L 201 350
L 203 350
L 204 350
L 206 350
L 207 350
L 209 351
L 211 351
L 212 351
L 214 351
L 215 349
L 217 349
L 219 349
L 220 349
L 222 349
L 223 349
L 225 349
L 227 351
L 228 351
L 230 351
L 231 351
L 233 351
L 235 351
L 236 351
L 238 351
L 239 351
L 241 351
L 243 351
L 244 351
L 246 351
L 248 351
L 249 351
L 251 351
L 252 351
L 254 351
L 256 351
L 257 351
L 259 351
L 260 351
L 262 351
L 264 351
L 265 351
L 267 351
L 268 350
L 270 350
L 272 349
L 273 349
L 275 349
L 276 349
L 278 348
L 280 349
L 281 349
L 283 350
L 285 350
L 286 350
L 288 349
L 289 350
L 291 349
L 293 348
L 294 348
L 296 347
L 297 347
L 299 348
L 301 348
L 302 349
L 304 350
L 305 350
L 307 351
L 309 351
L 310 350
L 312 350
L 313 350
L 315 349
L 317 347
L 318 346
L 320 345
L 321 345
L 323 343
L 325 342
L 326 342
L 328 344
L 330 342
L 331 340
L 333 341
L 334 344
L 336 344
L 338 345
L 339 342
L 341 344
L 342 343
L 344 339
L 346 339
L 347 339
L 349 339
L 350 341
L 352 340
L 354 343
L 355 345
L 357 345
L 358 345
L 360 345
L 362 342
L 363 340
L 365 336
L 367 332
L 368 331
L 370 330
L 371 329
L 373 333
L 375 336
L 376 339
L 378 342
L 379 339
L 381 341
L 383 341
L 384 339
L 386 339
L 387 339
L 389 339
L 391 340
L 392 339
L 394 339
L 395 340
L 397 340
L 399 337
L 400 335
L 402 329
L 404 323
L 405 321
L 407 315
L 408 308
L 410 306
L 412 294
L 413 299
L 415 297
L 416 290
L 418 293
L 420 295
L 421 295
L 423 294
L 424 287
L 426 272
L 428 274
L 429 254
L 431 235
L 432 215
L 434 203
L 436 164
L 437 129
L 439 99
L 440 104
L 442 95
L 444 79
L 445 66
L 447 53
L 449 68
L 450 72
L 452 56
L 453 59
L 455 18
L 457 16
L 458 16
L 460 30
L 461 47
L 463 50
L 465 17
L 466 46
L 468 60
L 469 68
L 471 57
L 473 62
L 474 81
L 476 93
L 477 118
L 479 109
L 481 143
L 482 152
L 484 146
L 486 143
L 487 167
L 489 169
L 490 172
L 492 127
L 494 131
L 495 135
L 497 133
L 498 136
L 500 153
L 502 162
L 503 186
L 505 189
L 506 181
L 508 181
L 510 186
L 511 175
L 513 198
L 514 225
L 516 234
L 518 247
L 519 254
L 521 256
L 522 257
L 524 254
L 526 266
L 527 275
L 529 284
L 531 285
L 532 272
L 534 269
L 535 269
L 537 269
L 539 266
L 540 259
L 542 251
L 543 250
L 545 260
L 547 255
L 548 244
L 550 241
L 551 239
L 553 252
L 555 267
L 556 271
L 558 283
L 559 287
L 561 290
L 563 300
L 564 296
L 566 302
L 568 304
L 569 301
L 571 301
L 572 300
L 574 300
L 576 293
L 577 283
L 579 278
L 580 270
L 582 243
L 584 237
L 585 235
L 587 237
L 588 234
L 590 233
L 592 237
L 593 265
L 595 273
L 596 264
L 598 251
L 600 248
L 601 228
L 603 228
L 604 210
L 606 203
L 608 189
L 609 193
L 611 193
L 613 197
L 614 184
L 616 175
L 617 176
L 619 181
L 621 178
L 622 181
L 624 179
L 625 195
L 627 202
L 629 179
L 630 186
L 632 179
L 633 179
L 635 176
L 637 167
L 638 124
L 640 141
L 641 117
L 643 97
L 645 89
L 646 100
L 648 88
L 650 103
L 651 109
L 653 117
L 654 145
L 656 160
L 658 138
L 659 148
L 661 173
L 662 174
L 664 186
L 666 170
L 667 152
L 669 164
L 670 145
L 672 165
L 674 157
L 675 146
L 677 156
L 678 170
L 680 169
L 682 181
L 683 164
L 685 162
L 687 176
L 688 178
L 690 180
L 691 202
L 693 217
L 695 205
L 696 212
L 698 218
L 699 229
L 701 223
L 703 215
L 704 203
L 706 226
L 707 219
L 709 221
L 711 214
L 712 217
L 714 197
L 715 203
L 717 191
L 719 192
L 720 183
L 722 181
L 723 181
L 725 185
L 727 164
L 728 160
L 730 164
L 732 168
L 733 174
L 735 155
L 736 164
L 738 164
L 740 171
L 741 181
L 743 186
L 744 198
L 746 216
L 748 228
L 749 257
L 751 277
L 752 278
L 754 282
L 756 280
L 757 285
L 759 288
L 760 289
L 762 287
L 764 292
L 765 293
L 767 294
L 769 308
L 770 316
L 772 321
L 773 326
L 775 327
L 777 329
L 778 331
L 780 331
L 781 334
L 783 332
L 785 334
L 786 336
L 788 333
L 789 334
L 791 333
L 793 334
L 794 339
L 796 337
L 797 338
L 799 342
L 801 344
L 802 345
L 804 345
L 805 344
L 807 346
L 809 346
L 810 345
L 812 345
L 814 346
L 815 345
L 817 345
L 818 345
L 820 345
L 822 346
L 823 345
L 825 345
L 826 345
L 828 346
L 830 346
L 831 345
L 833 345
L 834 348
L 836 347
L 838 346
L 839 346
L 841 347
L 842 348
L 844 348
L 846 346
L 847 346
L 849 348
L 851 346
L 852 345
L 854 345
L 855 343
L 857 345
L 859 345
L 860 342
L 862 343
L 863 344
L 865 345
L 867 345
L 868 345
L 870 343
L 871 345
L 873 342
L 875 340
L 876 339
L 878 339
L 879 339
L 881 341
L 883 340
L 884 344
L 886 345
L 887 345
L 889 345
L 891 345
L 892 345
L 894 345
L 896 345
L 897 339
L 899 336
L 900 328
L 902 327
L 904 317
L 905 308
L 907 305
L 908 300
L 910 298
L 912 303
L 913 300
L 915 301
L 916 300
L 918 302
L 920 307
L 921 307
L 923 308
L 924 305
L 926 309
L 928 306
L 929 300
L 931 293
L 933 285
L 934 283
L 936 276
L 937 267
L 939 268
L 941 263
L 942 265
L 944 269
L 945 264
L 947 271
L 949 274
L 950 275
L 952 282
L 953 280
L 955 277
L 957 274
L 958 277
L 960 271
L 961 264
L 963 255
L 965 251
L 966 247
L 968 250
L 969 237" style="stroke-width:1;stroke:rgba(0,116,217,1.0);fill:none"/><path  d="M 38 351
L 40 351
L 42 350
L 43 351
L 45 351
L 47 351
L 48 351
L 50 350
L 51 351
L 53 351
L 55 351
L 56 351
L 58 351
L 59 351
L 61 351
L 63 351
L 64 347
L 66 351
L 67 350
L 69 348
L 71 341
L 72 347
L 74 351
L 75 346
L 77 346
L 79 346
L 80 347
L 82 347
L 84 350
L 85 341
L 87 347
L 88 349
L 90 348
L 92 348
L 93 349
L 95 347
L 96 347
L 98 349
L 100 344
L 101 347
L 103 344
L 104 349
L 106 349
L 108 346
L 109 350
L 111 349
L 112 336
L 114 348
L 116 349
L 117 351
L 119 347
L 121 350
L 122 351
L 124 351
L 125 351
L 127 351
L 129 351
L 130 351
L 132 351
L 133 347
L 135 350
L 137 351
L 138 351
L 140 350
L 141 350
L 143 348
L 145 351
L 146 351
L 148 350
L 149 350
L 151 350
L 153 349
L 154 349
L 156 337
L 157 351
L 159 351
L 161 350
L 162 351
L 164 351
L 166 350
L 167 351
L 169 351
L 170 348
L 172 351
L 174 349
L 175 351
L 177 348
L 178 351
L 180 351
L 182 351
L 183 351
L 185 351
L 186 351
L 188 350
L 190 351
L 191 351
L 193 351
L 194 351
L 196 351
L 198 350
L 199 351
L 201 351
L 203 351
L 204 351
L 206 351
L 207 351
L 209 351
L 211 351
L 212 351
L 214 351
L 215 349
L 217 351
L 219 351
L 220 351
L 222 351
L 223 351
L 225 351
L 227 351
L 228 351
L 230 351
L 231 351
L 233 351
L 235 351
L 236 351
L 238 351
L 239 351
L 241 351
L 243 351
L 244 351
L 246 351
L 248 351
L 249 351
L 251 351
L 252 351
L 254 351
L 256 351
L 257 351
L 259 351
L 260 351
L 262 351
L 264 351
L 265 351
L 267 351
L 268 350
L 270 351
L 272 350
L 273 351
L 275 351
L 276 351
L 278 350
L 280 351
L 281 351
L 283 351
L 285 351
L 286 351
L 288 350
L 289 351
L 291 350
L 293 350
L 294 351
L 296 350
L 297 351
L 299 351
L 301 351
L 302 351
L 304 351
L 305 351
L 307 351
L 309 351
L 310 350
L 312 351
L 313 351
L 315 350
L 317 349
L 318 350
L 320 350
L 321 350
L 323 348
L 325 350
L 326 350
L 328 351
L 330 348
L 331 348
L 333 351
L 334 351
L 336 350
L 338 351
L 339 348
L 341 350
L 342 347
L 344 347
L 346 351
L 347 350
L 349 351
L 350 350
L 352 349
L 354 350
L 355 350
L 357 351
L 358 349
L 360 351
L 362 347
L 363 347
L 365 346
L 367 346
L 368 350
L 370 348
L 371 350
L 373 351
L 375 351
L 376 349
L 378 348
L 379 347
L 381 351
L 383 350
L 384 349
L 386 351
L 387 349
L 389 347
L 391 348
L 392 350
L 394 350
L 395 350
L 397 351
L 399 346
L 400 346
L 402 343
L 404 344
L 405 347
L 407 344
L 408 344
L 410 344
L 412 334
L 413 347
L 415 343
L 416 341
L 418 347
L 420 347
L 421 344
L 423 333
L 424 341
L 426 330
L 428 343
L 429 328
L 431 330
L 432 327
L 434 322
L 436 306
L 437 297
L 439 316
L 440 333
L 442 321
L 444 313
L 445 310
L 447 294
L 449 311
L 450 319
L 452 319
L 453 323
L 455 276
L 457 307
L 458 294
L 460 324
L 461 334
L 463 321
L 465 294
L 466 302
L 468 320
L 469 302
L 471 314
L 473 338
L 474 339
L 476 305
L 477 324
L 479 312
L 481 333
L 482 323
L 484 332
L 486 337
L 487 327
L 489 326
L 490 315
L 492 292
L 494 327
L 495 335
L 497 335
L 498 330
L 500 341
L 502 323
L 503 313
L 505 330
L 506 327
L 508 336
L 510 334
L 511 331
L 513 344
L 514 338
L 516 338
L 518 339
L 519 342
L 521 336
L 522 332
L 524 341
L 526 348
L 527 347
L 529 347
L 531 343
L 532 324
L 534 329
L 535 341
L 537 348
L 539 344
L 540 341
L 542 336
L 543 323
L 545 338
L 547 337
L 548 338
L 550 340
L 551 340
L 553 347
L 555 337
L 556 342
L 558 347
L 559 342
L 561 344
L 563 348
L 564 344
L 566 343
L 568 344
L 569 344
L 571 342
L 572 342
L 574 348
L 576 338
L 577 334
L 579 339
L 580 337
L 582 318
L 584 337
L 585 346
L 587 340
L 588 331
L 590 338
L 592 340
L 593 343
L 595 344
L 596 337
L 598 329
L 600 328
L 601 320
L 603 340
L 604 327
L 606 337
L 608 325
L 609 333
L 611 328
L 613 323
L 614 329
L 616 319
L 617 338
L 619 329
L 621 330
L 622 330
L 624 322
L 625 344
L 627 325
L 629 317
L 630 336
L 632 323
L 633 330
L 635 320
L 637 335
L 638 286
L 640 333
L 641 313
L 643 306
L 645 323
L 646 330
L 648 324
L 650 300
L 651 338
L 653 320
L 654 331
L 656 337
L 658 310
L 659 334
L 661 323
L 662 339
L 664 332
L 666 317
L 667 320
L 669 320
L 670 316
L 672 341
L 674 331
L 675 322
L 677 326
L 678 334
L 680 320
L 682 326
L 683 327
L 685 329
L 687 335
L 688 327
L 690 335
L 691 340
L 693 340
L 695 316
L 696 335
L 698 340
L 699 337
L 701 330
L 703 333
L 704 329
L 706 337
L 707 328
L 709 343
L 711 330
L 712 333
L 714 314
L 715 334
L 717 326
L 719 329
L 720 335
L 722 328
L 723 334
L 725 317
L 727 316
L 728 322
L 730 332
L 732 339
L 733 334
L 735 317
L 736 325
L 738 317
L 740 328
L 741 340
L 743 344
L 744 345
L 746 333
L 748 336
L 749 343
L 751 346
L 752 342
L 754 347
L 756 344
L 757 337
L 759 339
L 760 344
L 762 344
L 764 347
L 765 347
L 767 345
L 769 350
L 770 346
L 772 348
L 773 348
L 775 347
L 777 350
L 778 347
L 780 350
L 781 348
L 783 347
L 785 350
L 786 350
L 788 347
L 789 348
L 791 348
L 793 350
L 794 351
L 796 348
L 797 351
L 799 351
L 801 350
L 802 349
L 804 351
L 805 349
L 807 351
L 809 351
L 810 349
L 812 350
L 814 351
L 815 350
L 817 349
L 818 350
L 820 351
L 822 351
L 823 348
L 825 351
L 826 350
L 828 351
L 830 350
L 831 350
L 833 351
L 834 351
L 836 350
L 838 349
L 839 351
L 841 351
L 842 351
L 844 351
L 846 349
L 847 350
L 849 351
L 851 349
L 852 350
L 854 350
L 855 349
L 857 351
L 859 351
L 860 347
L 862 350
L 863 351
L 865 351
L 867 350
L 868 350
L 870 349
L 871 350
L 873 347
L 875 349
L 876 349
L 878 351
L 879 350
L 881 351
L 883 349
L 884 350
L 886 350
L 887 350
L 889 351
L 891 350
L 892 350
L 894 350
L 896 349
L 897 345
L 899 347
L 900 343
L 902 349
L 904 341
L 905 341
L 907 346
L 908 341
L 910 344
L 912 347
L 913 347
L 915 342
L 916 340
L 918 347
L 920 346
L 921 344
L 923 348
L 924 344
L 926 345
L 928 338
L 929 341
L 931 340
L 933 337
L 934 347
L 936 337
L 937 337
L 939 339
L 941 337
L 942 341
L 944 341
L 945 342
L 947 344
L 949 340
L 950 340
L 952 343
L 953 340
L 955 338
L 957 340
L 958 347
L 960 334
L 961 333
L 963 335
L 965 336
L 966 334
L 968 343
L 969 335" style="stroke-width:1;stroke:rgba(0,217,101,1.0);fill:none"/><path  d="M 38 351
L 40 351
L 42 351
L 43 351
L 45 351
L 47 351
L 48 351
L 50 351
L 51 351
L 53 351
L 55 351
L 56 351
L 58 351
L 59 351
L 61 351
L 63 351
L 64 351
L 66 351
L 67 351
L 69 351
L 71 351
L 72 351
L 74 351
L 75 351
L 77 351
L 79 351
L 80 351
L 82 351
L 84 351
L 85 351
L 87 351
L 88 350
L 90 351
L 92 351
L 93 351
L 95 350
L 96 351
L 98 350
L 100 351
L 101 351
L 103 351
L 104 351
L 106 351
L 108 350
L 109 351
L 111 351
L 112 350
L 114 350
L 116 351
L 117 350
L 119 351
L 121 350
L 122 351
L 124 351
L 125 351
L 127 351
L 129 351
L 130 350
L 132 351
L 133 351
L 135 351
L 137 351
L 138 351
L 140 349
L 141 351
L 143 351
L 145 351
L 146 350
L 148 350
L 149 351
L 151 351
L 153 351
L 154 351
L 156 351
L 157 351
L 159 351
L 161 351
L 162 351
L 164 351
L 166 351
L 167 351
L 169 351
L 170 351
L 172 351
L 174 350
L 175 350
L 177 351
L 178 351
L 180 351
L 182 351
L 183 351
L 185 351
L 186 351
L 188 350
L 190 351
L 191 351
L 193 351
L 194 351
L 196 351
L 198 350
L 199 351
L 201 351
L 203 351
L 204 351
L 206 351
L 207 351
L 209 351
L 211 351
L 212 351
L 214 351
L 215 351
L 217 351
L 219 351
L 220 351
L 222 351
L 223 351
L 225 351
L 227 351
L 228 351
L 230 351
L 231 350
L 233 351
L 235 351
L 236 351
L 238 351
L 239 351
L 241 351
L 243 351
L 244 351
L 246 351
L 248 351
L 249 351
L 251 351
L 252 351
L 254 351
L 256 351
L 257 351
L 259 351
L 260 351
L 262 351
L 264 351
L 265 351
L 267 351
L 268 351
L 270 351
L 272 351
L 273 351
L 275 351
L 276 351
L 278 351
L 280 351
L 281 351
L 283 351
L 285 351
L 286 351
L 288 351
L 289 351
L 291 351
L 293 351
L 294 351
L 296 351
L 297 351
L 299 351
L 301 351
L 302 351
L 304 351
L 305 351
L 307 351
L 309 351
L 310 351
L 312 351
L 313 351
L 315 351
L 317 351
L 318 351
L 320 351
L 321 351
L 323 351
L 325 351
L 326 351
L 328 351
L 330 351
L 331 351
L 333 351
L 334 351
L 336 351
L 338 351
L 339 351
L 341 351
L 342 351
L 344 351
L 346 351
L 347 351
L 349 351
L 350 351
L 352 351
L 354 351
L 355 351
L 357 351
L 358 351
L 360 351
L 362 351
L 363 351
L 365 351
L 367 351
L 368 351
L 370 351
L 371 351
L 373 351
L 375 351
L 376 351
L 378 351
L 379 351
L 381 351
L 383 351
L 384 351
L 386 351
L 387 351
L 389 351
L 391 351
L 392 351
L 394 351
L 395 351
L 397 351
L 399 351
L 400 351
L 402 351
L 404 351
L 405 351
L 407 351
L 408 351
L 410 351
L 412 351
L 413 351
L 415 351
L 416 351
L 418 351
L 420 351
L 421 351
L 423 351
L 424 351
L 426 351
L 428 351
L 429 351
L 431 351
L 432 350
L 434 350
L 436 351
L 437 351
L 439 351
L 440 350
L 442 351
L 444 351
L 445 349
L 447 351
L 449 351
L 450 350
L 452 351
L 453 349
L 455 350
L 457 351
L 458 350
L 460 350
L 461 351
L 463 350
L 465 351
L 466 348
L 468 350
L 469 349
L 471 350
L 473 351
L 474 347
L 476 349
L 477 349
L 479 350
L 481 350
L 482 350
L 484 349
L 486 348
L 487 351
L 489 351
L 490 349
L 492 350
L 494 348
L 495 350
L 497 350
L 498 350
L 500 349
L 502 351
L 503 349
L 505 349
L 506 348
L 508 348
L 510 348
L 511 350
L 513 348
L 514 351
L 516 350
L 518 347
L 519 348
L 521 347
L 522 350
L 524 350
L 526 351
L 527 349
L 529 350
L 531 349
L 532 351
L 534 350
L 535 349
L 537 351
L 539 351
L 540 350
L 542 351
L 543 351
L 545 351
L 547 350
L 548 351
L 550 351
L 551 351
L 553 350
L 555 351
L 556 350
L 558 351
L 559 351
L 561 351
L 563 350
L 564 350
L 566 351
L 568 351
L 569 351
L 571 351
L 572 351
L 574 351
L 576 350
L 577 351
L 579 351
L 580 351
L 582 349
L 584 351
L 585 351
L 587 349
L 588 350
L 590 351
L 592 351
L 593 350
L 595 350
L 596 350
L 598 350
L 600 351
L 601 351
L 603 351
L 604 350
L 606 351
L 608 350
L 609 349
L 611 351
L 613 350
L 614 350
L 616 351
L 617 351
L 619 351
L 621 350
L 622 350
L 624 351
L 625 351
L 627 351
L 629 351
L 630 351
L 632 351
L 633 351
L 635 351
L 637 351
L 638 350
L 640 350
L 641 351
L 643 351
L 645 351
L 646 351
L 648 350
L 650 350
L 651 351
L 653 351
L 654 349
L 656 351
L 658 351
L 659 351
L 661 351
L 662 349
L 664 351
L 666 351
L 667 350
L 669 351
L 670 350
L 672 351
L 674 351
L 675 351
L 677 350
L 678 351
L 680 351
L 682 351
L 683 351
L 685 351
L 687 351
L 688 350
L 690 351
L 691 351
L 693 351
L 695 351
L 696 351
L 698 351
L 699 350
L 701 351
L 703 351
L 704 351
L 706 350
L 707 351
L 709 350
L 711 351
L 712 350
L 714 351
L 715 351
L 717 351
L 719 351
L 720 351
L 722 351
L 723 350
L 725 351
L 727 351
L 728 351
L 730 351
L 732 351
L 733 351
L 735 351
L 736 351
L 738 351
L 740 351
L 741 351
L 743 351
L 744 350
L 746 351
L 748 351
L 749 351
L 751 351
L 752 351
L 754 351
L 756 351
L 757 351
L 759 351
L 760 351
L 762 351
L 764 350
L 765 351
L 767 351
L 769 351
L 770 351
L 772 351
L 773 351
L 775 351
L 777 351
L 778 351
L 780 351
L 781 351
L 783 351
L 785 351
L 786 351
L 788 351
L 789 351
L 791 351
L 793 351
L 794 351
L 796 351
L 797 351
L 799 351
L 801 351
L 802 351
L 804 351
L 805 351
L 807 350
L 809 351
L 810 351
L 812 351
L 814 351
L 815 351
L 817 351
L 818 351
L 820 351
L 822 351
L 823 351
L 825 351
L 826 351
L 828 351
L 830 351
L 831 351
L 833 351
L 834 351
L 836 351
L 838 351
L 839 351
L 841 351
L 842 351
L 844 351
L 846 351
L 847 351
L 849 351
L 851 351
L 852 351
L 854 351
L 855 351
L 857 351
L 859 351
L 860 351
L 862 351
L 863 351
L 865 351
L 867 351
L 868 351
L 870 351
L 871 351
L 873 351
L 875 351
L 876 351
L 878 351
L 879 351
L 881 351
L 883 351
L 884 351
L 886 351
L 887 351
L 889 351
L 891 351
L 892 351
L 894 351
L 896 351
L 897 351
L 899 351
L 900 351
L 902 351
L 904 351
L 905 351
L 907 351
L 908 351
L 910 351
L 912 351
L 913 351
L 915 351
L 916 351
L 918 351
L 920 351
L 921 351
L 923 351
L 924 351
L 926 351
L 928 351
L 929 351
L 931 351
L 933 351
L 934 351
L 936 351
L 937 351
L 939 351
L 941 351
L 942 351
L 944 351
L 945 351
L 947 351
L 949 350
L 950 351
L 952 351
L 953 351
L 955 351
L 957 351
L 958 350
L 960 351
L 961 351
L 963 351
L 965 351
L 966 351
L 968 351
L 969 351" style="stroke-width:1;stroke:rgba(217,0,116,1.0);fill:none"/><text x="425" y="33" style="stroke-width:0;stroke:none;fill:rgba(51,51,51,1.0);font-size:23.0px;font-family:'Roboto Medium',sans-serif">Weiz 27.09.2021</text><path  d="M 38 11
L 251 11
L 251 91
L 38 91
L 38 11" style="stroke-width:1;stroke:rgba(51,51,51,1.0);fill:rgba(255,255,255,1.0)"/><text x="43" y="26" style="stroke-width:0;stroke:none;fill:rgba(51,51,51,1.0);font-size:10.2px;font-family:'Roboto Medium',sans-serif">Sieben Tage Durschnitt Inzidenz Fälle</text><path  d="M 221 21
L 241 21" style="stroke-width:1;stroke:rgba(0,116,217,1.0);fill:none"/><text x="43" y="56" style="stroke-width:0;stroke:none;fill:rgba(51,51,51,1.0);font-size:10.2px;font-family:'Roboto Medium',sans-serif">Anzahl Faelle</text><path  d="M 110 51
L 241 51" style="stroke-width:1;stroke:rgba(0,217,101,1.0);fill:none"/><text x="43" y="86" style="stroke-width:0;stroke:none;fill:rgba(51,51,51,1.0);font-size:10.2px;font-family:'Roboto Medium',sans-serif">Anzahl Tot</text><path  d="M 98 81
L 241 81" style="stroke-width:1;stroke:rgba(217,0,116,1.0);fill:none"/></svg>