<svg xmlns="http://www.w3.org/2000/svg" xmlns:xlink="http://www.w3.org/1999/xlink" width="1024" height="400">\n<path  d="M 0 0
L 1024 0
L 1024 400
L 0 400
L 0 0" style="stroke-width:0;stroke:rgba(255,255,255,1.0);fill:rgba(255,255,255,1.0)"/><path  d="M 38 11
L 969 11
L 969 351
L 38 351
L 38 11" style="stroke-width:0;stroke:rgba(255,255,255,1.0);fill:rgba(255,255,255,1.0)"/><path  d="M 38 351
L 969 351" style="stroke-width:1;stroke:rgba(51,51,51,1.0);fill:none"/><path  d="M 38 351
L 38 356" style="stroke-width:1;stroke:rgba(51,51,51,1.0);fill:none"/><text x="5" y="373" style="stroke-width:0;stroke:none;fill:rgba(51,51,51,1.0);font-size:12.8px;font-family:'Roboto Medium',sans-serif">2020-02-26</text><path  d="M 155 351
L 155 356" style="stroke-width:1;stroke:rgba(51,51,51,1.0);fill:none"/><text x="122" y="373" style="stroke-width:0;stroke:none;fill:rgba(51,51,51,1.0);font-size:12.8px;font-family:'Roboto Medium',sans-serif">2020-04-26</text><path  d="M 271 351
L 271 356" style="stroke-width:1;stroke:rgba(51,51,51,1.0);fill:none"/><text x="238" y="373" style="stroke-width:0;stroke:none;fill:rgba(51,51,51,1.0);font-size:12.8px;font-family:'Roboto Medium',sans-serif">2020-06-25</text><path  d="M 388 351
L 388 356" style="stroke-width:1;stroke:rgba(51,51,51,1.0);fill:none"/><text x="355" y="373" style="stroke-width:0;stroke:none;fill:rgba(51,51,51,1.0);font-size:12.8px;font-family:'Roboto Medium',sans-serif">2020-08-24</text><path  d="M 504 351
L 504 356" style="stroke-width:1;stroke:rgba(51,51,51,1.0);fill:none"/><text x="471" y="373" style="stroke-width:0;stroke:none;fill:rgba(51,51,51,1.0);font-size:12.8px;font-family:'Roboto Medium',sans-serif">2020-10-23</text><path  d="M 620 351
L 620 356" style="stroke-width:1;stroke:rgba(51,51,51,1.0);fill:none"/><text x="587" y="373" style="stroke-width:0;stroke:none;fill:rgba(51,51,51,1.0);font-size:12.8px;font-family:'Roboto Medium',sans-serif">2020-12-22</text><path  d="M 737 351
L 737 356" style="stroke-width:1;stroke:rgba(51,51,51,1.0);fill:none"/><text x="704" y="373" style="stroke-width:0;stroke:none;fill:rgba(51,51,51,1.0);font-size:12.8px;font-family:'Roboto Medium',sans-serif">2021-02-20</text><path  d="M 853 351
L 853 356" style="stroke-width:1;stroke:rgba(51,51,51,1.0);fill:none"/><text x="820" y="373" style="stroke-width:0;stroke:none;fill:rgba(51,51,51,1.0);font-size:12.8px;font-family:'Roboto Medium',sans-serif">2021-04-21</text><path  d="M 969 351
L 969 356" style="stroke-width:1;stroke:rgba(51,51,51,1.0);fill:none"/><text x="936" y="373" style="stroke-width:0;stroke:none;fill:rgba(51,51,51,1.0);font-size:12.8px;font-family:'Roboto Medium',sans-serif">2021-06-20</text><text x="485" y="395" style="stroke-width:0;stroke:none;fill:rgba(51,51,51,1.0);font-size:12.8px;font-family:'Roboto Medium',sans-serif">Datum</text><path  d="M 970 351
L 970 11" style="stroke-width:1;stroke:rgba(51,51,51,1.0);fill:none"/><path  d="M 970 351
L 975 351" style="stroke-width:1;stroke:rgba(51,51,51,1.0);fill:none"/><text x="980" y="357" style="stroke-width:0;stroke:none;fill:rgba(51,51,51,1.0);font-size:12.8px;font-family:'Roboto Medium',sans-serif">0.00</text><path  d="M 970 308
L 975 308" style="stroke-width:1;stroke:rgba(51,51,51,1.0);fill:none"/><text x="980" y="314" style="stroke-width:0;stroke:none;fill:rgba(51,51,51,1.0);font-size:12.8px;font-family:'Roboto Medium',sans-serif">89.00</text><path  d="M 970 265
L 975 265" style="stroke-width:1;stroke:rgba(51,51,51,1.0);fill:none"/><text x="980" y="271" style="stroke-width:0;stroke:none;fill:rgba(51,51,51,1.0);font-size:12.8px;font-family:'Roboto Medium',sans-serif">178.00</text><path  d="M 970 223
L 975 223" style="stroke-width:1;stroke:rgba(51,51,51,1.0);fill:none"/><text x="980" y="229" style="stroke-width:0;stroke:none;fill:rgba(51,51,51,1.0);font-size:12.8px;font-family:'Roboto Medium',sans-serif">267.00</text><path  d="M 970 181
L 975 181" style="stroke-width:1;stroke:rgba(51,51,51,1.0);fill:none"/><text x="980" y="187" style="stroke-width:0;stroke:none;fill:rgba(51,51,51,1.0);font-size:12.8px;font-family:'Roboto Medium',sans-serif">355.00</text><path  d="M 970 138
L 975 138" style="stroke-width:1;stroke:rgba(51,51,51,1.0);fill:none"/><text x="980" y="144" style="stroke-width:0;stroke:none;fill:rgba(51,51,51,1.0);font-size:12.8px;font-family:'Roboto Medium',sans-serif">444.00</text><path  d="M 970 95
L 975 95" style="stroke-width:1;stroke:rgba(51,51,51,1.0);fill:none"/><text x="980" y="101" style="stroke-width:0;stroke:none;fill:rgba(51,51,51,1.0);font-size:12.8px;font-family:'Roboto Medium',sans-serif">533.00</text><path  d="M 970 53
L 975 53" style="stroke-width:1;stroke:rgba(51,51,51,1.0);fill:none"/><text x="980" y="59" style="stroke-width:0;stroke:none;fill:rgba(51,51,51,1.0);font-size:12.8px;font-family:'Roboto Medium',sans-serif">622.00</text><path  d="M 970 11
L 975 11" style="stroke-width:1;stroke:rgba(51,51,51,1.0);fill:none"/><text x="980" y="17" style="stroke-width:0;stroke:none;fill:rgba(51,51,51,1.0);font-size:12.8px;font-family:'Roboto Medium',sans-serif">710.00</text><path  d="M 38 351
L 40 351
L 42 351
L 44 351
L 46 351
L 48 351
L 50 351
L 52 351
L 54 351
L 56 351
L 58 350
L 60 349
L 62 349
L 64 348
L 66 347
L 68 347
L 70 345
L 71 343
L 73 344
L 75 341
L 77 341
L 79 342
L 81 341
L 83 338
L 85 339
L 87 337
L 89 337
L 91 333
L 93 331
L 95 328
L 97 328
L 99 328
L 101 330
L 103 332
L 104 336
L 106 339
L 108 342
L 110 345
L 112 345
L 114 345
L 116 346
L 118 347
L 120 347
L 122 347
L 124 349
L 126 349
L 128 349
L 130 349
L 132 349
L 134 349
L 135 350
L 137 350
L 139 351
L 141 351
L 143 351
L 145 351
L 147 351
L 149 351
L 151 351
L 153 351
L 155 351
L 157 350
L 159 350
L 161 350
L 163 350
L 165 350
L 167 350
L 168 350
L 170 351
L 172 351
L 174 351
L 176 351
L 178 351
L 180 350
L 182 350
L 184 350
L 186 350
L 188 350
L 190 350
L 192 350
L 194 351
L 196 351
L 198 351
L 199 351
L 201 351
L 203 351
L 205 351
L 207 351
L 209 351
L 211 351
L 213 351
L 215 351
L 217 351
L 219 351
L 221 351
L 223 351
L 225 351
L 227 351
L 229 351
L 231 351
L 232 351
L 234 351
L 236 351
L 238 350
L 240 350
L 242 350
L 244 350
L 246 350
L 248 350
L 250 350
L 252 351
L 254 351
L 256 351
L 258 351
L 260 350
L 262 350
L 263 350
L 265 350
L 267 350
L 269 350
L 271 348
L 273 347
L 275 347
L 277 343
L 279 343
L 281 341
L 283 339
L 285 339
L 287 341
L 289 339
L 291 343
L 293 342
L 295 343
L 296 343
L 298 341
L 300 341
L 302 341
L 304 341
L 306 341
L 308 342
L 310 343
L 312 347
L 314 347
L 316 349
L 318 349
L 320 348
L 322 348
L 324 348
L 326 347
L 327 347
L 329 346
L 331 346
L 333 346
L 335 344
L 337 344
L 339 345
L 341 345
L 343 346
L 345 346
L 347 347
L 349 349
L 351 349
L 353 350
L 355 350
L 357 350
L 359 350
L 360 350
L 362 349
L 364 349
L 366 348
L 368 347
L 370 345
L 372 345
L 374 345
L 376 344
L 378 342
L 380 339
L 382 336
L 384 336
L 386 332
L 388 331
L 390 332
L 392 330
L 393 332
L 395 334
L 397 335
L 399 339
L 401 339
L 403 340
L 405 341
L 407 344
L 409 346
L 411 346
L 413 346
L 415 347
L 417 345
L 419 347
L 421 345
L 423 344
L 424 342
L 426 342
L 428 338
L 430 337
L 432 335
L 434 336
L 436 335
L 438 336
L 440 334
L 442 332
L 444 334
L 446 336
L 448 331
L 450 320
L 452 317
L 454 318
L 456 317
L 457 319
L 459 316
L 461 322
L 463 334
L 465 337
L 467 336
L 469 341
L 471 338
L 473 336
L 475 333
L 477 327
L 479 323
L 481 322
L 483 317
L 485 319
L 487 321
L 488 319
L 490 323
L 492 321
L 494 321
L 496 315
L 498 310
L 500 302
L 502 286
L 504 266
L 506 255
L 508 253
L 510 257
L 512 225
L 514 218
L 516 210
L 518 210
L 520 199
L 521 177
L 523 158
L 525 158
L 527 147
L 529 134
L 531 90
L 533 75
L 535 45
L 537 42
L 539 45
L 541 43
L 543 15
L 545 29
L 547 42
L 549 80
L 551 56
L 552 56
L 554 38
L 556 75
L 558 84
L 560 88
L 562 95
L 564 86
L 566 104
L 568 115
L 570 119
L 572 134
L 574 143
L 576 147
L 578 191
L 580 190
L 582 206
L 584 215
L 585 228
L 587 239
L 589 241
L 591 241
L 593 258
L 595 272
L 597 271
L 599 273
L 601 273
L 603 253
L 605 256
L 607 238
L 609 230
L 611 240
L 613 241
L 615 243
L 616 259
L 618 263
L 620 271
L 622 263
L 624 268
L 626 272
L 628 278
L 630 277
L 632 283
L 634 281
L 636 281
L 638 276
L 640 271
L 642 268
L 644 267
L 646 265
L 648 255
L 649 275
L 651 275
L 653 269
L 655 271
L 657 276
L 659 281
L 661 298
L 663 289
L 665 292
L 667 300
L 669 299
L 671 302
L 673 299
L 675 303
L 677 309
L 679 308
L 681 307
L 682 308
L 684 307
L 686 312
L 688 314
L 690 316
L 692 319
L 694 315
L 696 317
L 698 312
L 700 306
L 702 300
L 704 294
L 706 291
L 708 287
L 710 288
L 712 290
L 713 288
L 715 288
L 717 292
L 719 294
L 721 304
L 723 300
L 725 292
L 727 297
L 729 297
L 731 295
L 733 293
L 735 291
L 737 291
L 739 292
L 741 288
L 743 288
L 745 283
L 746 277
L 748 271
L 750 267
L 752 269
L 754 270
L 756 271
L 758 268
L 760 267
L 762 251
L 764 255
L 766 252
L 768 234
L 770 217
L 772 216
L 774 212
L 776 222
L 777 209
L 779 217
L 781 221
L 783 211
L 785 215
L 787 214
L 789 210
L 791 212
L 793 205
L 795 203
L 797 217
L 799 213
L 801 214
L 803 228
L 805 222
L 807 234
L 809 221
L 810 227
L 812 227
L 814 226
L 816 208
L 818 214
L 820 208
L 822 234
L 824 229
L 826 236
L 828 243
L 830 250
L 832 256
L 834 256
L 836 248
L 838 254
L 840 252
L 841 256
L 843 256
L 845 247
L 847 241
L 849 249
L 851 250
L 853 239
L 855 236
L 857 246
L 859 251
L 861 253
L 863 252
L 865 252
L 867 259
L 869 252
L 871 250
L 873 249
L 874 257
L 876 255
L 878 252
L 880 260
L 882 273
L 884 273
L 886 284
L 888 284
L 890 293
L 892 299
L 894 303
L 896 308
L 898 312
L 900 310
L 902 307
L 904 308
L 905 310
L 907 310
L 909 308
L 911 314
L 913 312
L 915 315
L 917 318
L 919 315
L 921 316
L 923 318
L 925 321
L 927 322
L 929 324
L 931 326
L 933 332
L 935 336
L 937 338
L 938 336
L 940 341
L 942 339
L 944 338
L 946 338
L 948 339
L 950 339
L 952 341
L 954 341
L 956 343
L 958 344
L 960 345
L 962 345
L 964 347
L 966 350
L 968 350
L 969 349" style="stroke-width:1;stroke:rgba(0,116,217,1.0);fill:none"/><path  d="M 38 351
L 40 351
L 42 351
L 44 351
L 46 351
L 48 351
L 50 351
L 52 351
L 54 351
L 56 351
L 58 350
L 60 350
L 62 351
L 64 350
L 66 350
L 68 351
L 70 350
L 71 349
L 73 351
L 75 349
L 77 350
L 79 350
L 81 350
L 83 347
L 85 350
L 87 349
L 89 349
L 91 347
L 93 349
L 95 348
L 97 347
L 99 350
L 101 351
L 103 350
L 104 350
L 106 351
L 108 350
L 110 349
L 112 350
L 114 351
L 116 351
L 118 351
L 120 351
L 122 350
L 124 351
L 126 350
L 128 351
L 130 351
L 132 351
L 134 351
L 135 351
L 137 351
L 139 351
L 141 351
L 143 351
L 145 351
L 147 351
L 149 351
L 151 351
L 153 351
L 155 351
L 157 350
L 159 351
L 161 351
L 163 351
L 165 351
L 167 351
L 168 351
L 170 351
L 172 351
L 174 351
L 176 351
L 178 351
L 180 350
L 182 351
L 184 351
L 186 351
L 188 351
L 190 351
L 192 351
L 194 351
L 196 351
L 198 351
L 199 351
L 201 351
L 203 351
L 205 351
L 207 351
L 209 351
L 211 351
L 213 351
L 215 351
L 217 351
L 219 351
L 221 351
L 223 351
L 225 351
L 227 351
L 229 351
L 231 351
L 232 351
L 234 351
L 236 351
L 238 350
L 240 351
L 242 351
L 244 351
L 246 351
L 248 351
L 250 351
L 252 351
L 254 351
L 256 351
L 258 351
L 260 350
L 262 351
L 263 351
L 265 351
L 267 351
L 269 351
L 271 349
L 273 350
L 275 350
L 277 348
L 279 351
L 281 349
L 283 349
L 285 350
L 287 351
L 289 349
L 291 351
L 293 350
L 295 350
L 296 349
L 298 348
L 300 350
L 302 349
L 304 351
L 306 351
L 308 350
L 310 350
L 312 351
L 314 351
L 316 350
L 318 351
L 320 350
L 322 350
L 324 350
L 326 350
L 327 351
L 329 350
L 331 351
L 333 350
L 335 349
L 337 350
L 339 350
L 341 351
L 343 351
L 345 351
L 347 351
L 349 351
L 351 350
L 353 351
L 355 351
L 357 351
L 359 351
L 360 351
L 362 350
L 364 350
L 366 350
L 368 350
L 370 350
L 372 351
L 374 350
L 376 350
L 378 349
L 380 347
L 382 347
L 384 350
L 386 347
L 388 350
L 390 350
L 392 348
L 393 348
L 395 349
L 397 351
L 399 351
L 401 350
L 403 351
L 405 349
L 407 350
L 409 351
L 411 351
L 413 351
L 415 351
L 417 349
L 419 350
L 421 349
L 423 350
L 424 349
L 426 351
L 428 347
L 430 349
L 432 348
L 434 350
L 436 349
L 438 350
L 440 349
L 442 346
L 444 350
L 446 350
L 448 346
L 450 341
L 452 347
L 454 350
L 456 346
L 457 351
L 459 348
L 461 351
L 463 350
L 465 349
L 467 350
L 469 349
L 471 349
L 473 346
L 475 349
L 477 346
L 479 346
L 481 349
L 483 346
L 485 350
L 487 347
L 488 347
L 490 349
L 492 344
L 494 349
L 496 341
L 498 345
L 500 341
L 502 335
L 504 335
L 506 336
L 508 348
L 510 344
L 512 322
L 514 336
L 516 329
L 518 335
L 520 328
L 521 331
L 523 330
L 525 322
L 527 328
L 529 320
L 531 303
L 533 317
L 535 309
L 537 328
L 539 324
L 541 326
L 543 299
L 545 313
L 547 327
L 549 338
L 551 310
L 552 323
L 554 313
L 556 326
L 558 320
L 560 329
L 562 343
L 564 304
L 566 337
L 568 321
L 570 329
L 572 331
L 574 335
L 576 346
L 578 336
L 580 336
L 582 333
L 584 336
L 585 340
L 587 343
L 589 348
L 591 336
L 593 349
L 595 343
L 597 336
L 599 341
L 601 343
L 603 334
L 605 338
L 607 335
L 609 338
L 611 342
L 613 343
L 615 345
L 616 345
L 618 340
L 620 341
L 622 332
L 624 346
L 626 346
L 628 350
L 630 344
L 632 345
L 634 340
L 636 332
L 638 342
L 640 342
L 642 347
L 644 343
L 646 343
L 648 333
L 649 346
L 651 343
L 653 338
L 655 349
L 657 347
L 659 347
L 661 345
L 663 339
L 665 345
L 667 343
L 669 348
L 671 349
L 673 345
L 675 349
L 677 344
L 679 344
L 681 343
L 682 349
L 684 349
L 686 348
L 688 351
L 690 345
L 692 346
L 694 340
L 696 350
L 698 344
L 700 344
L 702 346
L 704 341
L 706 344
L 708 337
L 710 351
L 712 346
L 713 342
L 715 346
L 717 344
L 719 346
L 721 344
L 723 348
L 725 340
L 727 346
L 729 346
L 731 343
L 733 344
L 735 343
L 737 348
L 739 341
L 741 343
L 743 346
L 745 339
L 746 339
L 748 338
L 750 346
L 752 342
L 754 344
L 756 347
L 758 337
L 760 339
L 762 326
L 764 349
L 766 339
L 768 331
L 770 334
L 772 336
L 774 336
L 776 333
L 777 339
L 779 346
L 781 334
L 783 327
L 785 339
L 787 335
L 789 330
L 791 340
L 793 341
L 795 332
L 797 337
L 799 336
L 801 336
L 803 340
L 805 336
L 807 350
L 809 323
L 810 341
L 812 336
L 814 335
L 816 328
L 818 340
L 820 345
L 822 341
L 824 338
L 826 341
L 828 340
L 830 333
L 832 345
L 834 345
L 836 336
L 838 342
L 840 340
L 841 342
L 843 333
L 845 338
L 847 341
L 849 341
L 851 343
L 853 332
L 855 340
L 857 341
L 859 341
L 861 343
L 863 340
L 865 343
L 867 338
L 869 335
L 871 339
L 873 340
L 874 349
L 876 339
L 878 341
L 880 343
L 882 344
L 884 340
L 886 349
L 888 349
L 890 346
L 892 346
L 894 346
L 896 348
L 898 342
L 900 348
L 902 346
L 904 347
L 905 347
L 907 346
L 909 346
L 911 347
L 913 347
L 915 349
L 917 349
L 919 345
L 921 347
L 923 348
L 925 349
L 927 347
L 929 350
L 931 350
L 933 350
L 935 350
L 937 349
L 938 348
L 940 351
L 942 349
L 944 350
L 946 350
L 948 351
L 950 349
L 952 349
L 954 351
L 956 351
L 958 350
L 960 351
L 962 351
L 964 351
L 966 351
L 968 351
L 969 350" style="stroke-width:1;stroke:rgba(0,217,101,1.0);fill:none"/><path  d="M 38 351
L 40 351
L 42 351
L 44 351
L 46 351
L 48 351
L 50 351
L 52 351
L 54 351
L 56 351
L 58 351
L 60 351
L 62 351
L 64 351
L 66 351
L 68 351
L 70 351
L 71 351
L 73 351
L 75 351
L 77 351
L 79 351
L 81 351
L 83 351
L 85 351
L 87 351
L 89 351
L 91 351
L 93 351
L 95 351
L 97 351
L 99 351
L 101 351
L 103 351
L 104 351
L 106 351
L 108 351
L 110 351
L 112 351
L 114 351
L 116 351
L 118 351
L 120 351
L 122 351
L 124 351
L 126 351
L 128 351
L 130 351
L 132 351
L 134 351
L 135 351
L 137 351
L 139 351
L 141 351
L 143 351
L 145 351
L 147 351
L 149 351
L 151 351
L 153 351
L 155 351
L 157 351
L 159 351
L 161 351
L 163 351
L 165 351
L 167 351
L 168 351
L 170 351
L 172 351
L 174 351
L 176 351
L 178 351
L 180 351
L 182 351
L 184 351
L 186 351
L 188 351
L 190 351
L 192 351
L 194 351
L 196 351
L 198 351
L 199 351
L 201 351
L 203 351
L 205 351
L 207 351
L 209 351
L 211 351
L 213 351
L 215 351
L 217 351
L 219 351
L 221 351
L 223 351
L 225 351
L 227 351
L 229 351
L 231 351
L 232 351
L 234 351
L 236 351
L 238 351
L 240 351
L 242 351
L 244 351
L 246 351
L 248 351
L 250 351
L 252 351
L 254 351
L 256 351
L 258 351
L 260 351
L 262 351
L 263 351
L 265 351
L 267 351
L 269 351
L 271 351
L 273 351
L 275 351
L 277 351
L 279 351
L 281 351
L 283 351
L 285 351
L 287 351
L 289 351
L 291 351
L 293 351
L 295 351
L 296 351
L 298 351
L 300 351
L 302 351
L 304 351
L 306 351
L 308 351
L 310 351
L 312 351
L 314 351
L 316 351
L 318 351
L 320 351
L 322 351
L 324 351
L 326 351
L 327 351
L 329 351
L 331 351
L 333 351
L 335 351
L 337 351
L 339 351
L 341 351
L 343 351
L 345 350
L 347 351
L 349 351
L 351 351
L 353 351
L 355 351
L 357 351
L 359 351
L 360 351
L 362 351
L 364 351
L 366 351
L 368 351
L 370 351
L 372 351
L 374 351
L 376 351
L 378 351
L 380 351
L 382 351
L 384 351
L 386 351
L 388 351
L 390 351
L 392 351
L 393 351
L 395 351
L 397 351
L 399 351
L 401 351
L 403 351
L 405 351
L 407 351
L 409 351
L 411 351
L 413 351
L 415 351
L 417 351
L 419 351
L 421 351
L 423 351
L 424 351
L 426 351
L 428 351
L 430 351
L 432 351
L 434 351
L 436 351
L 438 351
L 440 351
L 442 351
L 444 351
L 446 351
L 448 351
L 450 351
L 452 351
L 454 351
L 456 351
L 457 351
L 459 351
L 461 351
L 463 351
L 465 351
L 467 351
L 469 351
L 471 351
L 473 351
L 475 351
L 477 351
L 479 351
L 481 351
L 483 351
L 485 351
L 487 351
L 488 351
L 490 351
L 492 351
L 494 351
L 496 351
L 498 351
L 500 351
L 502 351
L 504 351
L 506 351
L 508 351
L 510 351
L 512 351
L 514 351
L 516 351
L 518 351
L 520 351
L 521 351
L 523 351
L 525 351
L 527 350
L 529 351
L 531 351
L 533 351
L 535 350
L 537 350
L 539 350
L 541 351
L 543 350
L 545 350
L 547 351
L 549 351
L 551 350
L 552 350
L 554 351
L 556 350
L 558 350
L 560 351
L 562 351
L 564 351
L 566 350
L 568 350
L 570 351
L 572 350
L 574 350
L 576 351
L 578 350
L 580 350
L 582 350
L 584 351
L 585 350
L 587 350
L 589 351
L 591 351
L 593 350
L 595 350
L 597 350
L 599 351
L 601 351
L 603 351
L 605 350
L 607 351
L 609 351
L 611 351
L 613 351
L 615 350
L 616 350
L 618 351
L 620 350
L 622 351
L 624 351
L 626 351
L 628 350
L 630 351
L 632 350
L 634 351
L 636 351
L 638 350
L 640 351
L 642 350
L 644 350
L 646 350
L 648 351
L 649 351
L 651 350
L 653 351
L 655 351
L 657 351
L 659 351
L 661 351
L 663 351
L 665 351
L 667 351
L 669 351
L 671 351
L 673 351
L 675 351
L 677 351
L 679 350
L 681 351
L 682 351
L 684 351
L 686 351
L 688 351
L 690 351
L 692 351
L 694 351
L 696 351
L 698 351
L 700 351
L 702 351
L 704 351
L 706 351
L 708 351
L 710 351
L 712 351
L 713 351
L 715 351
L 717 351
L 719 351
L 721 351
L 723 351
L 725 351
L 727 351
L 729 351
L 731 351
L 733 351
L 735 351
L 737 351
L 739 351
L 741 351
L 743 350
L 745 351
L 746 351
L 748 350
L 750 351
L 752 351
L 754 351
L 756 351
L 758 351
L 760 351
L 762 351
L 764 351
L 766 351
L 768 351
L 770 351
L 772 351
L 774 350
L 776 351
L 777 351
L 779 351
L 781 351
L 783 351
L 785 351
L 787 351
L 789 351
L 791 351
L 793 351
L 795 350
L 797 351
L 799 351
L 801 350
L 803 351
L 805 351
L 807 350
L 809 351
L 810 351
L 812 351
L 814 351
L 816 351
L 818 351
L 820 349
L 822 351
L 824 351
L 826 351
L 828 351
L 830 351
L 832 351
L 834 351
L 836 351
L 838 351
L 840 351
L 841 351
L 843 351
L 845 351
L 847 351
L 849 351
L 851 351
L 853 351
L 855 351
L 857 351
L 859 350
L 861 351
L 863 351
L 865 351
L 867 351
L 869 351
L 871 351
L 873 350
L 874 351
L 876 351
L 878 351
L 880 351
L 882 351
L 884 351
L 886 351
L 888 351
L 890 351
L 892 351
L 894 351
L 896 351
L 898 351
L 900 351
L 902 351
L 904 351
L 905 351
L 907 351
L 909 351
L 911 351
L 913 351
L 915 351
L 917 351
L 919 351
L 921 351
L 923 351
L 925 351
L 927 351
L 929 351
L 931 351
L 933 351
L 935 351
L 937 351
L 938 351
L 940 351
L 942 351
L 944 351
L 946 351
L 948 351
L 950 351
L 952 351
L 954 351
L 956 351
L 958 351
L 960 351
L 962 351
L 964 351
L 966 351
L 968 351
L 969 351" style="stroke-width:1;stroke:rgba(217,0,116,1.0);fill:none"/><text x="396" y="33" style="stroke-width:0;stroke:none;fill:rgba(51,51,51,1.0);font-size:23.0px;font-family:'Roboto Medium',sans-serif">Wels-Land 20.06.2021</text><path  d="M 38 11
L 251 11
L 251 91
L 38 91
L 38 11" style="stroke-width:1;stroke:rgba(51,51,51,1.0);fill:rgba(255,255,255,1.0)"/><text x="43" y="26" style="stroke-width:0;stroke:none;fill:rgba(51,51,51,1.0);font-size:10.2px;font-family:'Roboto Medium',sans-serif">Sieben Tage Durschnitt Inzidenz Fälle</text><path  d="M 221 21
L 241 21" style="stroke-width:1;stroke:rgba(0,116,217,1.0);fill:none"/><text x="43" y="56" style="stroke-width:0;stroke:none;fill:rgba(51,51,51,1.0);font-size:10.2px;font-family:'Roboto Medium',sans-serif">Anzahl Faelle</text><path  d="M 110 51
L 241 51" style="stroke-width:1;stroke:rgba(0,217,101,1.0);fill:none"/><text x="43" y="86" style="stroke-width:0;stroke:none;fill:rgba(51,51,51,1.0);font-size:10.2px;font-family:'Roboto Medium',sans-serif">Anzahl Tot</text><path  d="M 98 81
L 241 81" style="stroke-width:1;stroke:rgba(217,0,116,1.0);fill:none"/></svg>