<svg xmlns="http://www.w3.org/2000/svg" xmlns:xlink="http://www.w3.org/1999/xlink" width="1024" height="400">\n<path  d="M 0 0
L 1024 0
L 1024 400
L 0 400
L 0 0" style="stroke-width:0;stroke:rgba(255,255,255,1.0);fill:rgba(255,255,255,1.0)"/><path  d="M 38 11
L 961 11
L 961 351
L 38 351
L 38 11" style="stroke-width:0;stroke:rgba(255,255,255,1.0);fill:rgba(255,255,255,1.0)"/><path  d="M 38 351
L 961 351" style="stroke-width:1;stroke:rgba(51,51,51,1.0);fill:none"/><path  d="M 38 351
L 38 356" style="stroke-width:1;stroke:rgba(51,51,51,1.0);fill:none"/><text x="5" y="373" style="stroke-width:0;stroke:none;fill:rgba(51,51,51,1.0);font-size:12.8px;font-family:'Roboto Medium',sans-serif">2020-02-26</text><path  d="M 154 351
L 154 356" style="stroke-width:1;stroke:rgba(51,51,51,1.0);fill:none"/><text x="121" y="373" style="stroke-width:0;stroke:none;fill:rgba(51,51,51,1.0);font-size:12.8px;font-family:'Roboto Medium',sans-serif">2020-06-13</text><path  d="M 269 351
L 269 356" style="stroke-width:1;stroke:rgba(51,51,51,1.0);fill:none"/><text x="236" y="373" style="stroke-width:0;stroke:none;fill:rgba(51,51,51,1.0);font-size:12.8px;font-family:'Roboto Medium',sans-serif">2020-09-30</text><path  d="M 385 351
L 385 356" style="stroke-width:1;stroke:rgba(51,51,51,1.0);fill:none"/><text x="352" y="373" style="stroke-width:0;stroke:none;fill:rgba(51,51,51,1.0);font-size:12.8px;font-family:'Roboto Medium',sans-serif">2021-01-17</text><path  d="M 500 351
L 500 356" style="stroke-width:1;stroke:rgba(51,51,51,1.0);fill:none"/><text x="467" y="373" style="stroke-width:0;stroke:none;fill:rgba(51,51,51,1.0);font-size:12.8px;font-family:'Roboto Medium',sans-serif">2021-05-06</text><path  d="M 615 351
L 615 356" style="stroke-width:1;stroke:rgba(51,51,51,1.0);fill:none"/><text x="582" y="373" style="stroke-width:0;stroke:none;fill:rgba(51,51,51,1.0);font-size:12.8px;font-family:'Roboto Medium',sans-serif">2021-08-23</text><path  d="M 731 351
L 731 356" style="stroke-width:1;stroke:rgba(51,51,51,1.0);fill:none"/><text x="698" y="373" style="stroke-width:0;stroke:none;fill:rgba(51,51,51,1.0);font-size:12.8px;font-family:'Roboto Medium',sans-serif">2021-12-10</text><path  d="M 846 351
L 846 356" style="stroke-width:1;stroke:rgba(51,51,51,1.0);fill:none"/><text x="813" y="373" style="stroke-width:0;stroke:none;fill:rgba(51,51,51,1.0);font-size:12.8px;font-family:'Roboto Medium',sans-serif">2022-03-29</text><path  d="M 961 351
L 961 356" style="stroke-width:1;stroke:rgba(51,51,51,1.0);fill:none"/><text x="928" y="373" style="stroke-width:0;stroke:none;fill:rgba(51,51,51,1.0);font-size:12.8px;font-family:'Roboto Medium',sans-serif">2022-07-16</text><text x="481" y="395" style="stroke-width:0;stroke:none;fill:rgba(51,51,51,1.0);font-size:12.8px;font-family:'Roboto Medium',sans-serif">Datum</text><path  d="M 962 351
L 962 11" style="stroke-width:1;stroke:rgba(51,51,51,1.0);fill:none"/><path  d="M 962 351
L 967 351" style="stroke-width:1;stroke:rgba(51,51,51,1.0);fill:none"/><text x="972" y="357" style="stroke-width:0;stroke:none;fill:rgba(51,51,51,1.0);font-size:12.8px;font-family:'Roboto Medium',sans-serif">0.00</text><path  d="M 962 308
L 967 308" style="stroke-width:1;stroke:rgba(51,51,51,1.0);fill:none"/><text x="972" y="314" style="stroke-width:0;stroke:none;fill:rgba(51,51,51,1.0);font-size:12.8px;font-family:'Roboto Medium',sans-serif">430.00</text><path  d="M 962 266
L 967 266" style="stroke-width:1;stroke:rgba(51,51,51,1.0);fill:none"/><text x="972" y="272" style="stroke-width:0;stroke:none;fill:rgba(51,51,51,1.0);font-size:12.8px;font-family:'Roboto Medium',sans-serif">850.00</text><path  d="M 962 223
L 967 223" style="stroke-width:1;stroke:rgba(51,51,51,1.0);fill:none"/><text x="972" y="229" style="stroke-width:0;stroke:none;fill:rgba(51,51,51,1.0);font-size:12.8px;font-family:'Roboto Medium',sans-serif">1280.00</text><path  d="M 962 181
L 967 181" style="stroke-width:1;stroke:rgba(51,51,51,1.0);fill:none"/><text x="972" y="187" style="stroke-width:0;stroke:none;fill:rgba(51,51,51,1.0);font-size:12.8px;font-family:'Roboto Medium',sans-serif">1700.00</text><path  d="M 962 138
L 967 138" style="stroke-width:1;stroke:rgba(51,51,51,1.0);fill:none"/><text x="972" y="144" style="stroke-width:0;stroke:none;fill:rgba(51,51,51,1.0);font-size:12.8px;font-family:'Roboto Medium',sans-serif">2130.00</text><path  d="M 962 96
L 967 96" style="stroke-width:1;stroke:rgba(51,51,51,1.0);fill:none"/><text x="972" y="102" style="stroke-width:0;stroke:none;fill:rgba(51,51,51,1.0);font-size:12.8px;font-family:'Roboto Medium',sans-serif">2550.00</text><path  d="M 962 53
L 967 53" style="stroke-width:1;stroke:rgba(51,51,51,1.0);fill:none"/><text x="972" y="59" style="stroke-width:0;stroke:none;fill:rgba(51,51,51,1.0);font-size:12.8px;font-family:'Roboto Medium',sans-serif">2980.00</text><path  d="M 962 11
L 967 11" style="stroke-width:1;stroke:rgba(51,51,51,1.0);fill:none"/><text x="972" y="17" style="stroke-width:0;stroke:none;fill:rgba(51,51,51,1.0);font-size:12.8px;font-family:'Roboto Medium',sans-serif">3400.00</text><path  d="M 38 351
L 40 351
L 41 351
L 42 351
L 43 351
L 44 351
L 45 351
L 46 351
L 47 351
L 48 351
L 49 351
L 50 351
L 51 351
L 52 350
L 53 350
L 54 350
L 55 349
L 57 349
L 58 349
L 59 349
L 60 349
L 61 349
L 62 349
L 63 348
L 64 348
L 65 348
L 66 347
L 67 347
L 68 347
L 69 346
L 70 346
L 71 346
L 72 346
L 73 347
L 75 347
L 76 348
L 77 349
L 78 349
L 79 349
L 80 350
L 81 350
L 82 350
L 83 350
L 84 350
L 85 350
L 86 351
L 87 351
L 88 351
L 89 351
L 90 351
L 91 351
L 93 350
L 94 350
L 95 350
L 96 350
L 97 350
L 98 350
L 99 350
L 100 351
L 101 351
L 102 351
L 103 351
L 104 351
L 105 351
L 106 351
L 107 351
L 108 351
L 109 351
L 111 351
L 112 351
L 113 351
L 114 351
L 115 351
L 116 351
L 117 351
L 118 351
L 119 351
L 120 351
L 121 351
L 122 351
L 123 351
L 124 351
L 125 351
L 126 351
L 128 351
L 129 351
L 130 351
L 131 351
L 132 351
L 133 351
L 134 351
L 135 351
L 136 351
L 137 351
L 138 351
L 139 351
L 140 351
L 141 351
L 142 351
L 143 351
L 144 351
L 146 351
L 147 351
L 148 351
L 149 351
L 150 351
L 151 351
L 152 351
L 153 351
L 154 351
L 155 351
L 156 351
L 157 351
L 158 351
L 159 351
L 160 351
L 161 351
L 162 351
L 164 350
L 165 350
L 166 350
L 167 350
L 168 349
L 169 349
L 170 349
L 171 348
L 172 349
L 173 349
L 174 348
L 175 348
L 176 348
L 177 347
L 178 348
L 179 347
L 180 347
L 182 347
L 183 347
L 184 347
L 185 346
L 186 347
L 187 346
L 188 346
L 189 346
L 190 346
L 191 347
L 192 347
L 193 347
L 194 347
L 195 348
L 196 348
L 197 349
L 199 349
L 200 350
L 201 350
L 202 351
L 203 350
L 204 350
L 205 350
L 206 350
L 207 350
L 208 350
L 209 350
L 210 349
L 211 349
L 212 349
L 213 349
L 214 348
L 215 348
L 217 348
L 218 348
L 219 348
L 220 348
L 221 348
L 222 347
L 223 346
L 224 345
L 225 344
L 226 344
L 227 343
L 228 343
L 229 343
L 230 343
L 231 344
L 232 344
L 233 344
L 235 345
L 236 345
L 237 347
L 238 347
L 239 348
L 240 349
L 241 349
L 242 347
L 243 348
L 244 347
L 245 347
L 246 347
L 247 346
L 248 346
L 249 346
L 250 346
L 251 345
L 253 346
L 254 344
L 255 345
L 256 345
L 257 346
L 258 346
L 259 347
L 260 347
L 261 348
L 262 347
L 263 347
L 264 346
L 265 346
L 266 345
L 267 345
L 268 344
L 270 344
L 271 344
L 272 344
L 273 344
L 274 344
L 275 344
L 276 342
L 277 338
L 278 336
L 279 334
L 280 334
L 281 333
L 282 330
L 283 329
L 284 332
L 285 334
L 286 332
L 288 333
L 289 330
L 290 331
L 291 331
L 292 327
L 293 320
L 294 320
L 295 320
L 296 320
L 297 313
L 298 311
L 299 308
L 300 311
L 301 307
L 302 303
L 303 300
L 304 302
L 306 299
L 307 299
L 308 291
L 309 291
L 310 289
L 311 293
L 312 294
L 313 293
L 314 288
L 315 292
L 316 296
L 317 301
L 318 292
L 319 289
L 320 285
L 321 288
L 322 288
L 324 286
L 325 286
L 326 290
L 327 294
L 328 297
L 329 299
L 330 299
L 331 301
L 332 301
L 333 303
L 334 304
L 335 307
L 336 311
L 337 314
L 338 317
L 339 316
L 341 318
L 342 320
L 343 324
L 344 327
L 345 328
L 346 329
L 347 328
L 348 332
L 349 329
L 350 330
L 351 331
L 352 333
L 353 333
L 354 335
L 355 333
L 356 334
L 357 335
L 359 336
L 360 336
L 361 335
L 362 335
L 363 337
L 364 338
L 365 339
L 366 338
L 367 339
L 368 341
L 369 341
L 370 341
L 371 339
L 372 341
L 373 340
L 374 339
L 375 338
L 377 340
L 378 339
L 379 341
L 380 339
L 381 339
L 382 340
L 383 341
L 384 339
L 385 339
L 386 336
L 387 335
L 388 332
L 389 330
L 390 330
L 391 330
L 392 331
L 393 334
L 395 335
L 396 338
L 397 340
L 398 340
L 399 340
L 400 341
L 401 341
L 402 340
L 403 340
L 404 338
L 405 338
L 406 337
L 407 338
L 408 335
L 409 335
L 410 335
L 412 337
L 413 335
L 414 334
L 415 332
L 416 333
L 417 333
L 418 331
L 419 330
L 420 331
L 421 332
L 422 332
L 423 329
L 424 328
L 425 328
L 426 327
L 427 328
L 428 329
L 430 328
L 431 329
L 432 328
L 433 329
L 434 329
L 435 329
L 436 328
L 437 329
L 438 330
L 439 331
L 440 330
L 441 331
L 442 330
L 443 331
L 444 329
L 445 328
L 446 327
L 448 326
L 449 327
L 450 327
L 451 327
L 452 325
L 453 326
L 454 325
L 455 322
L 456 321
L 457 319
L 458 319
L 459 319
L 460 321
L 461 320
L 462 325
L 463 326
L 464 326
L 466 326
L 467 327
L 468 328
L 469 328
L 470 327
L 471 323
L 472 325
L 473 325
L 474 324
L 475 322
L 476 322
L 477 321
L 478 323
L 479 322
L 480 322
L 481 322
L 483 321
L 484 317
L 485 318
L 486 318
L 487 317
L 488 319
L 489 321
L 490 322
L 491 327
L 492 327
L 493 329
L 494 331
L 495 329
L 496 328
L 497 330
L 498 330
L 499 330
L 501 332
L 502 330
L 503 332
L 504 333
L 505 334
L 506 335
L 507 338
L 508 338
L 509 341
L 510 340
L 511 341
L 512 341
L 513 343
L 514 339
L 515 340
L 516 339
L 517 339
L 519 339
L 520 341
L 521 341
L 522 343
L 523 342
L 524 343
L 525 344
L 526 344
L 527 345
L 528 345
L 529 346
L 530 346
L 531 347
L 532 347
L 533 347
L 534 347
L 535 348
L 537 348
L 538 349
L 539 349
L 540 349
L 541 349
L 542 349
L 543 349
L 544 349
L 545 350
L 546 350
L 547 350
L 548 350
L 549 350
L 550 350
L 551 350
L 552 350
L 554 350
L 555 350
L 556 350
L 557 350
L 558 350
L 559 350
L 560 351
L 561 350
L 562 350
L 563 350
L 564 350
L 565 350
L 566 350
L 567 350
L 568 350
L 569 350
L 570 350
L 572 349
L 573 349
L 574 348
L 575 347
L 576 347
L 577 347
L 578 346
L 579 346
L 580 347
L 581 347
L 582 347
L 583 347
L 584 347
L 585 347
L 586 347
L 587 347
L 588 347
L 590 348
L 591 348
L 592 348
L 593 348
L 594 347
L 595 345
L 596 345
L 597 345
L 598 343
L 599 343
L 600 343
L 601 341
L 602 342
L 603 338
L 604 338
L 605 336
L 606 335
L 608 334
L 609 334
L 610 330
L 611 326
L 612 323
L 613 324
L 614 325
L 615 321
L 616 322
L 617 319
L 618 323
L 619 322
L 620 321
L 621 321
L 622 321
L 623 321
L 625 324
L 626 326
L 627 327
L 628 327
L 629 328
L 630 328
L 631 329
L 632 328
L 633 328
L 634 327
L 635 327
L 636 325
L 637 329
L 638 327
L 639 325
L 640 322
L 641 322
L 643 324
L 644 324
L 645 324
L 646 324
L 647 326
L 648 329
L 649 332
L 650 332
L 651 332
L 652 332
L 653 334
L 654 335
L 655 334
L 656 334
L 657 334
L 658 335
L 659 333
L 661 331
L 662 332
L 663 333
L 664 332
L 665 332
L 666 332
L 667 334
L 668 335
L 669 334
L 670 334
L 671 333
L 672 332
L 673 332
L 674 329
L 675 330
L 676 326
L 677 324
L 679 320
L 680 320
L 681 319
L 682 321
L 683 321
L 684 324
L 685 322
L 686 322
L 687 320
L 688 317
L 689 312
L 690 313
L 691 301
L 692 292
L 693 288
L 694 283
L 696 281
L 697 279
L 698 269
L 699 268
L 700 269
L 701 268
L 702 261
L 703 256
L 704 251
L 705 231
L 706 230
L 707 225
L 708 225
L 709 217
L 710 212
L 711 210
L 712 228
L 714 226
L 715 231
L 716 223
L 717 238
L 718 249
L 719 257
L 720 257
L 721 262
L 722 264
L 723 275
L 724 278
L 725 280
L 726 283
L 727 289
L 728 298
L 729 305
L 730 312
L 732 313
L 733 316
L 734 319
L 735 321
L 736 323
L 737 323
L 738 324
L 739 328
L 740 329
L 741 331
L 742 335
L 743 338
L 744 340
L 745 341
L 746 341
L 747 342
L 748 343
L 750 342
L 751 342
L 752 338
L 753 336
L 754 333
L 755 332
L 756 328
L 757 324
L 758 317
L 759 312
L 760 308
L 761 304
L 762 294
L 763 285
L 764 274
L 765 263
L 767 258
L 768 244
L 769 234
L 770 226
L 771 211
L 772 207
L 773 186
L 774 157
L 775 145
L 776 127
L 777 112
L 778 106
L 779 91
L 780 84
L 781 88
L 782 86
L 783 94
L 785 101
L 786 108
L 787 108
L 788 111
L 789 109
L 790 123
L 791 117
L 792 117
L 793 103
L 794 101
L 795 105
L 796 106
L 797 102
L 798 109
L 799 114
L 800 127
L 801 127
L 803 122
L 804 128
L 805 129
L 806 130
L 807 129
L 808 135
L 809 138
L 810 156
L 811 159
L 812 156
L 813 159
L 814 158
L 815 154
L 816 148
L 817 148
L 818 148
L 819 151
L 821 150
L 822 151
L 823 144
L 824 141
L 825 113
L 826 103
L 827 82
L 828 69
L 829 59
L 830 51
L 831 37
L 832 34
L 833 14
L 834 19
L 835 20
L 836 20
L 838 30
L 839 34
L 840 43
L 841 66
L 842 70
L 843 78
L 844 89
L 845 99
L 846 114
L 847 134
L 848 143
L 849 163
L 850 172
L 851 184
L 852 190
L 853 202
L 854 213
L 856 225
L 857 231
L 858 236
L 859 243
L 860 252
L 861 267
L 862 277
L 863 285
L 864 292
L 865 299
L 866 300
L 867 303
L 868 309
L 869 308
L 870 306
L 871 308
L 872 308
L 874 311
L 875 312
L 876 311
L 877 314
L 878 321
L 879 320
L 880 322
L 881 321
L 882 322
L 883 321
L 884 323
L 885 322
L 886 322
L 887 323
L 888 323
L 889 323
L 890 326
L 892 325
L 893 328
L 894 329
L 895 330
L 896 331
L 897 332
L 898 333
L 899 335
L 900 334
L 901 335
L 902 335
L 903 334
L 904 333
L 905 334
L 906 334
L 907 336
L 909 336
L 910 337
L 911 337
L 912 339
L 913 338
L 914 339
L 915 338
L 916 336
L 917 337
L 918 336
L 919 336
L 920 338
L 921 338
L 922 338
L 923 338
L 924 335
L 925 335
L 927 332
L 928 329
L 929 326
L 930 324
L 931 323
L 932 322
L 933 321
L 934 321
L 935 319
L 936 319
L 937 318
L 938 317
L 939 316
L 940 313
L 941 313
L 942 310
L 943 306
L 945 304
L 946 301
L 947 297
L 948 294
L 949 293
L 950 291
L 951 290
L 952 288
L 953 289
L 954 291
L 955 294
L 956 295
L 957 295
L 958 294
L 959 296
L 960 292
L 961 292" style="stroke-width:1;stroke:rgba(0,116,217,1.0);fill:none"/><path  d="M 38 351
L 40 351
L 41 351
L 42 351
L 43 351
L 44 351
L 45 351
L 46 351
L 47 351
L 48 351
L 49 351
L 50 351
L 51 351
L 52 350
L 53 350
L 54 350
L 55 350
L 57 350
L 58 351
L 59 350
L 60 350
L 61 350
L 62 350
L 63 350
L 64 351
L 65 350
L 66 350
L 67 350
L 68 350
L 69 350
L 70 350
L 71 350
L 72 350
L 73 351
L 75 351
L 76 350
L 77 351
L 78 350
L 79 350
L 80 351
L 81 351
L 82 351
L 83 351
L 84 351
L 85 351
L 86 351
L 87 351
L 88 351
L 89 351
L 90 351
L 91 351
L 93 350
L 94 351
L 95 351
L 96 351
L 97 351
L 98 351
L 99 351
L 100 351
L 101 351
L 102 351
L 103 351
L 104 351
L 105 351
L 106 351
L 107 351
L 108 351
L 109 351
L 111 351
L 112 351
L 113 351
L 114 351
L 115 351
L 116 351
L 117 351
L 118 351
L 119 351
L 120 351
L 121 351
L 122 351
L 123 351
L 124 351
L 125 351
L 126 351
L 128 351
L 129 351
L 130 351
L 131 351
L 132 351
L 133 351
L 134 351
L 135 351
L 136 351
L 137 351
L 138 351
L 139 351
L 140 351
L 141 351
L 142 351
L 143 351
L 144 351
L 146 351
L 147 351
L 148 351
L 149 351
L 150 351
L 151 351
L 152 351
L 153 351
L 154 351
L 155 351
L 156 351
L 157 351
L 158 351
L 159 351
L 160 351
L 161 351
L 162 351
L 164 350
L 165 350
L 166 350
L 167 350
L 168 350
L 169 351
L 170 351
L 171 350
L 172 351
L 173 350
L 174 350
L 175 350
L 176 351
L 177 350
L 178 350
L 179 350
L 180 350
L 182 350
L 183 350
L 184 350
L 185 350
L 186 350
L 187 350
L 188 350
L 189 350
L 190 350
L 191 351
L 192 350
L 193 350
L 194 350
L 195 351
L 196 351
L 197 351
L 199 351
L 200 351
L 201 351
L 202 351
L 203 350
L 204 351
L 205 351
L 206 351
L 207 351
L 208 350
L 209 350
L 210 350
L 211 350
L 212 351
L 213 351
L 214 350
L 215 350
L 217 350
L 218 350
L 219 350
L 220 350
L 221 351
L 222 350
L 223 350
L 224 349
L 225 350
L 226 350
L 227 350
L 228 350
L 229 349
L 230 350
L 231 350
L 232 350
L 233 350
L 235 350
L 236 350
L 237 351
L 238 350
L 239 351
L 240 350
L 241 350
L 242 350
L 243 351
L 244 350
L 245 350
L 246 350
L 247 350
L 248 350
L 249 350
L 250 351
L 251 350
L 253 350
L 254 350
L 255 350
L 256 350
L 257 350
L 258 351
L 259 350
L 260 350
L 261 350
L 262 350
L 263 350
L 264 350
L 265 350
L 266 350
L 267 350
L 268 350
L 270 350
L 271 350
L 272 350
L 273 350
L 274 350
L 275 350
L 276 349
L 277 348
L 278 349
L 279 349
L 280 350
L 281 349
L 282 348
L 283 348
L 284 350
L 285 350
L 286 348
L 288 350
L 289 347
L 290 349
L 291 348
L 292 347
L 293 346
L 294 348
L 295 350
L 296 347
L 297 345
L 298 347
L 299 345
L 300 348
L 301 345
L 302 347
L 303 346
L 304 346
L 306 345
L 307 345
L 308 343
L 309 345
L 310 346
L 311 348
L 312 347
L 313 343
L 314 343
L 315 345
L 316 348
L 317 350
L 318 342
L 319 345
L 320 341
L 321 344
L 322 345
L 324 346
L 325 350
L 326 345
L 327 347
L 328 343
L 329 345
L 330 345
L 331 347
L 332 350
L 333 346
L 334 348
L 335 346
L 336 347
L 337 347
L 338 349
L 339 349
L 341 347
L 342 350
L 343 348
L 344 349
L 345 348
L 346 349
L 347 349
L 348 350
L 349 348
L 350 348
L 351 350
L 352 349
L 353 349
L 354 350
L 355 349
L 356 349
L 357 349
L 359 350
L 360 349
L 361 349
L 362 350
L 363 350
L 364 349
L 365 349
L 366 350
L 367 350
L 368 350
L 369 349
L 370 350
L 371 348
L 372 350
L 373 350
L 374 349
L 375 350
L 377 350
L 378 349
L 379 349
L 380 349
L 381 350
L 382 350
L 383 350
L 384 350
L 385 348
L 386 348
L 387 349
L 388 348
L 389 348
L 390 350
L 391 350
L 392 349
L 393 350
L 395 349
L 396 350
L 397 350
L 398 350
L 399 350
L 400 349
L 401 350
L 402 349
L 403 350
L 404 348
L 405 350
L 406 349
L 407 350
L 408 348
L 409 349
L 410 350
L 412 349
L 413 349
L 414 349
L 415 349
L 416 349
L 417 348
L 418 349
L 419 348
L 420 349
L 421 349
L 422 349
L 423 347
L 424 348
L 425 349
L 426 348
L 427 350
L 428 350
L 430 348
L 431 348
L 432 348
L 433 349
L 434 348
L 435 350
L 436 350
L 437 349
L 438 348
L 439 349
L 440 348
L 441 349
L 442 349
L 443 350
L 444 348
L 445 348
L 446 348
L 448 348
L 449 349
L 450 349
L 451 350
L 452 347
L 453 348
L 454 348
L 455 346
L 456 348
L 457 348
L 458 350
L 459 347
L 460 349
L 461 347
L 462 349
L 463 349
L 464 348
L 466 350
L 467 348
L 468 349
L 469 347
L 470 348
L 471 346
L 472 349
L 473 350
L 474 348
L 475 347
L 476 348
L 477 347
L 478 347
L 479 349
L 480 350
L 481 348
L 483 347
L 484 345
L 485 348
L 486 347
L 487 348
L 488 351
L 489 349
L 490 348
L 491 349
L 492 348
L 493 348
L 494 350
L 495 349
L 496 349
L 497 348
L 498 349
L 499 348
L 501 349
L 502 349
L 503 350
L 504 349
L 505 349
L 506 349
L 507 350
L 508 349
L 509 351
L 510 350
L 511 350
L 512 349
L 513 350
L 514 348
L 515 350
L 516 349
L 517 350
L 519 350
L 520 350
L 521 350
L 522 350
L 523 350
L 524 350
L 525 351
L 526 350
L 527 350
L 528 350
L 529 350
L 530 350
L 531 350
L 532 350
L 533 350
L 534 351
L 535 351
L 537 350
L 538 350
L 539 351
L 540 350
L 541 350
L 542 351
L 543 351
L 544 351
L 545 350
L 546 351
L 547 351
L 548 351
L 549 351
L 550 350
L 551 350
L 552 350
L 554 351
L 555 351
L 556 351
L 557 351
L 558 351
L 559 351
L 560 351
L 561 350
L 562 351
L 563 351
L 564 350
L 565 350
L 566 351
L 567 351
L 568 351
L 569 350
L 570 350
L 572 350
L 573 350
L 574 350
L 575 350
L 576 351
L 577 350
L 578 350
L 579 350
L 580 351
L 581 350
L 582 350
L 583 351
L 584 351
L 585 350
L 586 350
L 587 350
L 588 350
L 590 350
L 591 351
L 592 351
L 593 350
L 594 349
L 595 350
L 596 350
L 597 350
L 598 350
L 599 350
L 600 350
L 601 348
L 602 350
L 603 348
L 604 350
L 605 348
L 606 350
L 608 349
L 609 348
L 610 348
L 611 345
L 612 348
L 613 349
L 614 350
L 615 347
L 616 349
L 617 346
L 618 347
L 619 348
L 620 349
L 621 350
L 622 347
L 623 349
L 625 349
L 626 348
L 627 349
L 628 348
L 629 350
L 630 347
L 631 349
L 632 348
L 633 348
L 634 348
L 635 348
L 636 349
L 637 350
L 638 348
L 639 347
L 640 347
L 641 348
L 643 349
L 644 349
L 645 350
L 646 347
L 647 348
L 648 349
L 649 350
L 650 350
L 651 349
L 652 350
L 653 348
L 654 349
L 655 348
L 656 350
L 657 349
L 658 350
L 659 349
L 661 346
L 662 350
L 663 349
L 664 349
L 665 349
L 666 350
L 667 350
L 668 347
L 669 350
L 670 349
L 671 349
L 672 348
L 673 350
L 674 348
L 675 348
L 676 347
L 677 348
L 679 346
L 680 349
L 681 349
L 682 349
L 683 348
L 684 349
L 685 346
L 686 346
L 687 347
L 688 346
L 689 347
L 690 348
L 691 341
L 692 341
L 693 343
L 694 344
L 696 345
L 697 345
L 698 342
L 699 341
L 700 342
L 701 343
L 702 340
L 703 342
L 704 342
L 705 330
L 706 340
L 707 339
L 708 343
L 709 335
L 710 339
L 711 341
L 712 341
L 714 338
L 715 343
L 716 337
L 717 344
L 718 346
L 719 346
L 720 341
L 721 342
L 722 344
L 723 344
L 724 346
L 725 347
L 726 347
L 727 345
L 728 347
L 729 348
L 730 348
L 732 347
L 733 349
L 734 349
L 735 347
L 736 348
L 737 348
L 738 349
L 739 350
L 740 349
L 741 350
L 742 350
L 743 349
L 744 350
L 745 349
L 746 350
L 747 350
L 748 350
L 750 349
L 751 349
L 752 348
L 753 348
L 754 348
L 755 350
L 756 348
L 757 346
L 758 345
L 759 345
L 760 346
L 761 346
L 762 343
L 763 342
L 764 340
L 765 338
L 767 341
L 768 337
L 769 340
L 770 338
L 771 333
L 772 337
L 773 325
L 774 323
L 775 329
L 776 328
L 777 328
L 778 329
L 779 328
L 780 320
L 781 326
L 782 328
L 783 333
L 785 333
L 786 333
L 787 328
L 788 322
L 789 325
L 790 336
L 791 329
L 792 332
L 793 325
L 794 327
L 795 325
L 796 325
L 797 334
L 798 334
L 799 336
L 800 333
L 801 327
L 803 322
L 804 329
L 805 335
L 806 334
L 807 335
L 808 337
L 809 329
L 810 333
L 811 331
L 812 333
L 813 336
L 814 335
L 815 334
L 816 326
L 817 333
L 818 331
L 819 335
L 821 335
L 822 335
L 823 329
L 824 324
L 825 315
L 826 325
L 827 321
L 828 328
L 829 329
L 830 324
L 831 315
L 832 313
L 833 313
L 834 324
L 835 328
L 836 328
L 838 331
L 839 317
L 840 320
L 841 327
L 842 327
L 843 333
L 844 335
L 845 337
L 846 327
L 847 332
L 848 332
L 849 339
L 850 339
L 851 343
L 852 340
L 853 335
L 854 339
L 856 340
L 857 343
L 858 342
L 859 347
L 860 346
L 861 344
L 862 346
L 863 345
L 864 347
L 865 347
L 866 348
L 867 348
L 868 348
L 869 345
L 870 344
L 871 348
L 872 347
L 874 350
L 875 349
L 876 347
L 877 347
L 878 348
L 879 347
L 880 348
L 881 349
L 882 349
L 883 346
L 884 348
L 885 348
L 886 348
L 887 349
L 888 349
L 889 349
L 890 348
L 892 348
L 893 349
L 894 349
L 895 349
L 896 350
L 897 350
L 898 348
L 899 349
L 900 348
L 901 349
L 902 349
L 903 350
L 904 349
L 905 349
L 906 349
L 907 350
L 909 349
L 910 350
L 911 350
L 912 350
L 913 348
L 914 349
L 915 349
L 916 349
L 917 350
L 918 349
L 919 350
L 920 350
L 921 349
L 922 349
L 923 349
L 924 348
L 925 350
L 927 349
L 928 347
L 929 347
L 930 348
L 931 348
L 932 347
L 933 349
L 934 348
L 935 346
L 936 347
L 937 347
L 938 347
L 939 347
L 940 348
L 941 348
L 942 345
L 943 345
L 945 345
L 946 345
L 947 344
L 948 346
L 949 347
L 950 343
L 951 344
L 952 344
L 953 346
L 954 346
L 955 347
L 956 348
L 957 343
L 958 344
L 959 346
L 960 344
L 961 346" style="stroke-width:1;stroke:rgba(0,217,101,1.0);fill:none"/><path  d="M 38 351
L 40 351
L 41 351
L 42 351
L 43 351
L 44 351
L 45 351
L 46 351
L 47 351
L 48 351
L 49 351
L 50 351
L 51 351
L 52 351
L 53 351
L 54 351
L 55 351
L 57 351
L 58 351
L 59 351
L 60 351
L 61 351
L 62 351
L 63 351
L 64 351
L 65 351
L 66 351
L 67 351
L 68 351
L 69 351
L 70 351
L 71 351
L 72 351
L 73 351
L 75 351
L 76 351
L 77 351
L 78 351
L 79 351
L 80 351
L 81 351
L 82 351
L 83 351
L 84 351
L 85 351
L 86 351
L 87 351
L 88 351
L 89 351
L 90 351
L 91 351
L 93 351
L 94 351
L 95 351
L 96 351
L 97 351
L 98 351
L 99 351
L 100 351
L 101 351
L 102 351
L 103 351
L 104 351
L 105 351
L 106 351
L 107 351
L 108 351
L 109 351
L 111 351
L 112 351
L 113 351
L 114 351
L 115 351
L 116 351
L 117 351
L 118 351
L 119 351
L 120 351
L 121 351
L 122 351
L 123 351
L 124 351
L 125 351
L 126 351
L 128 351
L 129 351
L 130 351
L 131 351
L 132 351
L 133 351
L 134 351
L 135 351
L 136 351
L 137 351
L 138 351
L 139 351
L 140 351
L 141 351
L 142 351
L 143 351
L 144 351
L 146 351
L 147 351
L 148 351
L 149 351
L 150 351
L 151 351
L 152 351
L 153 351
L 154 351
L 155 351
L 156 351
L 157 351
L 158 351
L 159 351
L 160 351
L 161 351
L 162 351
L 164 351
L 165 351
L 166 351
L 167 351
L 168 351
L 169 351
L 170 351
L 171 351
L 172 351
L 173 351
L 174 351
L 175 351
L 176 351
L 177 351
L 178 351
L 179 351
L 180 351
L 182 351
L 183 351
L 184 351
L 185 351
L 186 351
L 187 351
L 188 351
L 189 351
L 190 351
L 191 351
L 192 351
L 193 351
L 194 351
L 195 351
L 196 351
L 197 351
L 199 351
L 200 351
L 201 351
L 202 351
L 203 351
L 204 351
L 205 351
L 206 351
L 207 351
L 208 351
L 209 351
L 210 351
L 211 351
L 212 351
L 213 351
L 214 351
L 215 351
L 217 351
L 218 351
L 219 351
L 220 351
L 221 351
L 222 351
L 223 351
L 224 351
L 225 351
L 226 351
L 227 351
L 228 351
L 229 351
L 230 351
L 231 351
L 232 351
L 233 351
L 235 351
L 236 351
L 237 351
L 238 351
L 239 351
L 240 351
L 241 351
L 242 351
L 243 351
L 244 351
L 245 351
L 246 351
L 247 351
L 248 351
L 249 351
L 250 351
L 251 351
L 253 351
L 254 351
L 255 351
L 256 351
L 257 351
L 258 351
L 259 351
L 260 351
L 261 351
L 262 351
L 263 351
L 264 351
L 265 351
L 266 351
L 267 351
L 268 351
L 270 351
L 271 351
L 272 351
L 273 351
L 274 351
L 275 351
L 276 351
L 277 351
L 278 351
L 279 351
L 280 351
L 281 350
L 282 351
L 283 351
L 284 351
L 285 351
L 286 351
L 288 350
L 289 351
L 290 351
L 291 350
L 292 351
L 293 351
L 294 351
L 295 350
L 296 350
L 297 350
L 298 351
L 299 350
L 300 351
L 301 351
L 302 350
L 303 351
L 304 351
L 306 351
L 307 351
L 308 351
L 309 350
L 310 351
L 311 351
L 312 351
L 313 350
L 314 350
L 315 351
L 316 350
L 317 351
L 318 351
L 319 350
L 320 351
L 321 350
L 322 350
L 324 350
L 325 351
L 326 351
L 327 351
L 328 350
L 329 351
L 330 351
L 331 350
L 332 350
L 333 350
L 334 350
L 335 350
L 336 351
L 337 351
L 338 350
L 339 350
L 341 350
L 342 350
L 343 350
L 344 350
L 345 350
L 346 351
L 347 350
L 348 351
L 349 350
L 350 351
L 351 350
L 352 350
L 353 351
L 354 351
L 355 350
L 356 350
L 357 351
L 359 351
L 360 350
L 361 350
L 362 350
L 363 351
L 364 351
L 365 351
L 366 351
L 367 351
L 368 351
L 369 351
L 370 351
L 371 350
L 372 351
L 373 351
L 374 351
L 375 351
L 377 351
L 378 351
L 379 351
L 380 351
L 381 351
L 382 351
L 383 350
L 384 350
L 385 350
L 386 351
L 387 351
L 388 350
L 389 351
L 390 351
L 391 351
L 392 351
L 393 351
L 395 351
L 396 351
L 397 351
L 398 351
L 399 351
L 400 351
L 401 350
L 402 351
L 403 351
L 404 351
L 405 351
L 406 351
L 407 350
L 408 351
L 409 351
L 410 351
L 412 350
L 413 351
L 414 351
L 415 351
L 416 351
L 417 351
L 418 351
L 419 350
L 420 351
L 421 351
L 422 351
L 423 351
L 424 351
L 425 350
L 426 351
L 427 351
L 428 351
L 430 351
L 431 351
L 432 350
L 433 351
L 434 351
L 435 350
L 436 351
L 437 351
L 438 351
L 439 350
L 440 350
L 441 350
L 442 351
L 443 350
L 444 351
L 445 350
L 446 350
L 448 350
L 449 351
L 450 350
L 451 351
L 452 351
L 453 351
L 454 351
L 455 351
L 456 351
L 457 351
L 458 351
L 459 351
L 460 351
L 461 350
L 462 351
L 463 350
L 464 351
L 466 351
L 467 351
L 468 351
L 469 351
L 470 351
L 471 350
L 472 351
L 473 350
L 474 351
L 475 351
L 476 350
L 477 351
L 478 351
L 479 351
L 480 351
L 481 350
L 483 351
L 484 351
L 485 350
L 486 351
L 487 351
L 488 351
L 489 351
L 490 350
L 491 351
L 492 351
L 493 351
L 494 351
L 495 351
L 496 350
L 497 351
L 498 351
L 499 351
L 501 351
L 502 351
L 503 351
L 504 351
L 505 351
L 506 351
L 507 351
L 508 351
L 509 350
L 510 351
L 511 351
L 512 351
L 513 350
L 514 351
L 515 351
L 516 351
L 517 351
L 519 351
L 520 351
L 521 351
L 522 350
L 523 350
L 524 351
L 525 351
L 526 351
L 527 351
L 528 351
L 529 351
L 530 351
L 531 351
L 532 351
L 533 351
L 534 351
L 535 350
L 537 351
L 538 351
L 539 351
L 540 351
L 541 351
L 542 350
L 543 351
L 544 351
L 545 351
L 546 351
L 547 351
L 548 351
L 549 351
L 550 351
L 551 351
L 552 351
L 554 351
L 555 351
L 556 351
L 557 351
L 558 351
L 559 351
L 560 351
L 561 351
L 562 351
L 563 351
L 564 351
L 565 351
L 566 351
L 567 351
L 568 351
L 569 351
L 570 351
L 572 351
L 573 351
L 574 351
L 575 351
L 576 351
L 577 351
L 578 351
L 579 351
L 580 351
L 581 351
L 582 351
L 583 351
L 584 351
L 585 351
L 586 351
L 587 351
L 588 351
L 590 351
L 591 351
L 592 351
L 593 351
L 594 351
L 595 351
L 596 351
L 597 351
L 598 351
L 599 351
L 600 351
L 601 351
L 602 351
L 603 350
L 604 351
L 605 351
L 606 351
L 608 351
L 609 351
L 610 351
L 611 351
L 612 351
L 613 351
L 614 351
L 615 351
L 616 351
L 617 351
L 618 351
L 619 351
L 620 351
L 621 351
L 622 351
L 623 351
L 625 351
L 626 351
L 627 351
L 628 351
L 629 351
L 630 351
L 631 351
L 632 351
L 633 351
L 634 351
L 635 351
L 636 351
L 637 351
L 638 351
L 639 351
L 640 350
L 641 351
L 643 351
L 644 350
L 645 350
L 646 351
L 647 351
L 648 351
L 649 351
L 650 351
L 651 351
L 652 351
L 653 351
L 654 351
L 655 351
L 656 350
L 657 351
L 658 350
L 659 350
L 661 350
L 662 351
L 663 351
L 664 351
L 665 351
L 666 351
L 667 351
L 668 351
L 669 351
L 670 351
L 671 351
L 672 351
L 673 351
L 674 351
L 675 350
L 676 351
L 677 350
L 679 351
L 680 351
L 681 351
L 682 351
L 683 350
L 684 350
L 685 351
L 686 351
L 687 351
L 688 351
L 689 351
L 690 351
L 691 351
L 692 351
L 693 351
L 694 350
L 696 351
L 697 350
L 698 351
L 699 350
L 700 351
L 701 351
L 702 350
L 703 350
L 704 350
L 705 351
L 706 351
L 707 351
L 708 351
L 709 350
L 710 351
L 711 351
L 712 351
L 714 351
L 715 351
L 716 350
L 717 351
L 718 351
L 719 351
L 720 351
L 721 351
L 722 350
L 723 351
L 724 350
L 725 350
L 726 350
L 727 350
L 728 350
L 729 351
L 730 351
L 732 351
L 733 351
L 734 350
L 735 350
L 736 351
L 737 350
L 738 351
L 739 351
L 740 350
L 741 351
L 742 351
L 743 351
L 744 351
L 745 351
L 746 351
L 747 351
L 748 350
L 750 351
L 751 351
L 752 350
L 753 351
L 754 351
L 755 351
L 756 351
L 757 350
L 758 351
L 759 351
L 760 350
L 761 351
L 762 351
L 763 351
L 764 351
L 765 351
L 767 351
L 768 351
L 769 351
L 770 351
L 771 351
L 772 351
L 773 351
L 774 351
L 775 351
L 776 351
L 777 351
L 778 351
L 779 351
L 780 351
L 781 351
L 782 351
L 783 351
L 785 351
L 786 351
L 787 351
L 788 351
L 789 351
L 790 351
L 791 351
L 792 351
L 793 351
L 794 351
L 795 351
L 796 351
L 797 351
L 798 350
L 799 351
L 800 351
L 801 351
L 803 351
L 804 351
L 805 351
L 806 350
L 807 351
L 808 351
L 809 351
L 810 350
L 811 351
L 812 351
L 813 351
L 814 351
L 815 350
L 816 351
L 817 351
L 818 351
L 819 351
L 821 350
L 822 351
L 823 351
L 824 351
L 825 351
L 826 351
L 827 351
L 828 350
L 829 351
L 830 351
L 831 350
L 832 351
L 833 351
L 834 350
L 835 351
L 836 350
L 838 351
L 839 351
L 840 351
L 841 351
L 842 351
L 843 350
L 844 351
L 845 351
L 846 351
L 847 351
L 848 350
L 849 351
L 850 350
L 851 350
L 852 351
L 853 351
L 854 351
L 856 351
L 857 351
L 858 351
L 859 351
L 860 351
L 861 350
L 862 351
L 863 351
L 864 350
L 865 351
L 866 351
L 867 351
L 868 350
L 869 351
L 870 351
L 871 351
L 872 351
L 874 351
L 875 351
L 876 351
L 877 351
L 878 351
L 879 350
L 880 351
L 881 351
L 882 351
L 883 351
L 884 351
L 885 351
L 886 351
L 887 351
L 888 351
L 889 351
L 890 351
L 892 351
L 893 351
L 894 351
L 895 351
L 896 351
L 897 351
L 898 351
L 899 351
L 900 351
L 901 351
L 902 351
L 903 351
L 904 351
L 905 351
L 906 351
L 907 351
L 909 351
L 910 351
L 911 351
L 912 351
L 913 351
L 914 351
L 915 351
L 916 351
L 917 351
L 918 351
L 919 351
L 920 351
L 921 351
L 922 351
L 923 351
L 924 351
L 925 351
L 927 351
L 928 351
L 929 351
L 930 351
L 931 351
L 932 351
L 933 351
L 934 351
L 935 351
L 936 351
L 937 351
L 938 351
L 939 351
L 940 351
L 941 351
L 942 351
L 943 351
L 945 351
L 946 351
L 947 351
L 948 351
L 949 351
L 950 351
L 951 351
L 952 351
L 953 351
L 954 351
L 955 351
L 956 351
L 957 351
L 958 351
L 959 351
L 960 351
L 961 351" style="stroke-width:1;stroke:rgba(217,0,116,1.0);fill:none"/><text x="390" y="33" style="stroke-width:0;stroke:none;fill:rgba(51,51,51,1.0);font-size:23.0px;font-family:'Roboto Medium',sans-serif">Wels(Stadt) 16.07.2022</text><path  d="M 38 11
L 251 11
L 251 91
L 38 91
L 38 11" style="stroke-width:1;stroke:rgba(51,51,51,1.0);fill:rgba(255,255,255,1.0)"/><text x="43" y="26" style="stroke-width:0;stroke:none;fill:rgba(51,51,51,1.0);font-size:10.2px;font-family:'Roboto Medium',sans-serif">Sieben Tage Durschnitt Inzidenz Fälle</text><path  d="M 221 21
L 241 21" style="stroke-width:1;stroke:rgba(0,116,217,1.0);fill:none"/><text x="43" y="56" style="stroke-width:0;stroke:none;fill:rgba(51,51,51,1.0);font-size:10.2px;font-family:'Roboto Medium',sans-serif">Anzahl Faelle</text><path  d="M 110 51
L 241 51" style="stroke-width:1;stroke:rgba(0,217,101,1.0);fill:none"/><text x="43" y="86" style="stroke-width:0;stroke:none;fill:rgba(51,51,51,1.0);font-size:10.2px;font-family:'Roboto Medium',sans-serif">Anzahl Tot</text><path  d="M 98 81
L 241 81" style="stroke-width:1;stroke:rgba(217,0,116,1.0);fill:none"/></svg>