<svg xmlns="http://www.w3.org/2000/svg" xmlns:xlink="http://www.w3.org/1999/xlink" width="1024" height="400">\n<path  d="M 0 0
L 1024 0
L 1024 400
L 0 400
L 0 0" style="stroke-width:0;stroke:rgba(255,255,255,1.0);fill:rgba(255,255,255,1.0)"/><path  d="M 38 11
L 969 11
L 969 351
L 38 351
L 38 11" style="stroke-width:0;stroke:rgba(255,255,255,1.0);fill:rgba(255,255,255,1.0)"/><path  d="M 38 351
L 969 351" style="stroke-width:1;stroke:rgba(51,51,51,1.0);fill:none"/><path  d="M 38 351
L 38 356" style="stroke-width:1;stroke:rgba(51,51,51,1.0);fill:none"/><text x="5" y="373" style="stroke-width:0;stroke:none;fill:rgba(51,51,51,1.0);font-size:12.8px;font-family:'Roboto Medium',sans-serif">2020-02-26</text><path  d="M 155 351
L 155 356" style="stroke-width:1;stroke:rgba(51,51,51,1.0);fill:none"/><text x="122" y="373" style="stroke-width:0;stroke:none;fill:rgba(51,51,51,1.0);font-size:12.8px;font-family:'Roboto Medium',sans-serif">2020-04-19</text><path  d="M 271 351
L 271 356" style="stroke-width:1;stroke:rgba(51,51,51,1.0);fill:none"/><text x="238" y="373" style="stroke-width:0;stroke:none;fill:rgba(51,51,51,1.0);font-size:12.8px;font-family:'Roboto Medium',sans-serif">2020-06-11</text><path  d="M 388 351
L 388 356" style="stroke-width:1;stroke:rgba(51,51,51,1.0);fill:none"/><text x="355" y="373" style="stroke-width:0;stroke:none;fill:rgba(51,51,51,1.0);font-size:12.8px;font-family:'Roboto Medium',sans-serif">2020-08-04</text><path  d="M 504 351
L 504 356" style="stroke-width:1;stroke:rgba(51,51,51,1.0);fill:none"/><text x="471" y="373" style="stroke-width:0;stroke:none;fill:rgba(51,51,51,1.0);font-size:12.8px;font-family:'Roboto Medium',sans-serif">2020-09-26</text><path  d="M 620 351
L 620 356" style="stroke-width:1;stroke:rgba(51,51,51,1.0);fill:none"/><text x="587" y="373" style="stroke-width:0;stroke:none;fill:rgba(51,51,51,1.0);font-size:12.8px;font-family:'Roboto Medium',sans-serif">2020-11-18</text><path  d="M 737 351
L 737 356" style="stroke-width:1;stroke:rgba(51,51,51,1.0);fill:none"/><text x="704" y="373" style="stroke-width:0;stroke:none;fill:rgba(51,51,51,1.0);font-size:12.8px;font-family:'Roboto Medium',sans-serif">2021-01-11</text><path  d="M 853 351
L 853 356" style="stroke-width:1;stroke:rgba(51,51,51,1.0);fill:none"/><text x="820" y="373" style="stroke-width:0;stroke:none;fill:rgba(51,51,51,1.0);font-size:12.8px;font-family:'Roboto Medium',sans-serif">2021-03-05</text><path  d="M 969 351
L 969 356" style="stroke-width:1;stroke:rgba(51,51,51,1.0);fill:none"/><text x="936" y="373" style="stroke-width:0;stroke:none;fill:rgba(51,51,51,1.0);font-size:12.8px;font-family:'Roboto Medium',sans-serif">2021-04-28</text><text x="485" y="395" style="stroke-width:0;stroke:none;fill:rgba(51,51,51,1.0);font-size:12.8px;font-family:'Roboto Medium',sans-serif">Datum</text><path  d="M 970 351
L 970 11" style="stroke-width:1;stroke:rgba(51,51,51,1.0);fill:none"/><path  d="M 970 351
L 975 351" style="stroke-width:1;stroke:rgba(51,51,51,1.0);fill:none"/><text x="980" y="357" style="stroke-width:0;stroke:none;fill:rgba(51,51,51,1.0);font-size:12.8px;font-family:'Roboto Medium',sans-serif">0.00</text><path  d="M 970 308
L 975 308" style="stroke-width:1;stroke:rgba(51,51,51,1.0);fill:none"/><text x="980" y="314" style="stroke-width:0;stroke:none;fill:rgba(51,51,51,1.0);font-size:12.8px;font-family:'Roboto Medium',sans-serif">89.00</text><path  d="M 970 265
L 975 265" style="stroke-width:1;stroke:rgba(51,51,51,1.0);fill:none"/><text x="980" y="271" style="stroke-width:0;stroke:none;fill:rgba(51,51,51,1.0);font-size:12.8px;font-family:'Roboto Medium',sans-serif">178.00</text><path  d="M 970 223
L 975 223" style="stroke-width:1;stroke:rgba(51,51,51,1.0);fill:none"/><text x="980" y="229" style="stroke-width:0;stroke:none;fill:rgba(51,51,51,1.0);font-size:12.8px;font-family:'Roboto Medium',sans-serif">267.00</text><path  d="M 970 181
L 975 181" style="stroke-width:1;stroke:rgba(51,51,51,1.0);fill:none"/><text x="980" y="187" style="stroke-width:0;stroke:none;fill:rgba(51,51,51,1.0);font-size:12.8px;font-family:'Roboto Medium',sans-serif">355.00</text><path  d="M 970 138
L 975 138" style="stroke-width:1;stroke:rgba(51,51,51,1.0);fill:none"/><text x="980" y="144" style="stroke-width:0;stroke:none;fill:rgba(51,51,51,1.0);font-size:12.8px;font-family:'Roboto Medium',sans-serif">444.00</text><path  d="M 970 95
L 975 95" style="stroke-width:1;stroke:rgba(51,51,51,1.0);fill:none"/><text x="980" y="101" style="stroke-width:0;stroke:none;fill:rgba(51,51,51,1.0);font-size:12.8px;font-family:'Roboto Medium',sans-serif">533.00</text><path  d="M 970 53
L 975 53" style="stroke-width:1;stroke:rgba(51,51,51,1.0);fill:none"/><text x="980" y="59" style="stroke-width:0;stroke:none;fill:rgba(51,51,51,1.0);font-size:12.8px;font-family:'Roboto Medium',sans-serif">622.00</text><path  d="M 970 11
L 975 11" style="stroke-width:1;stroke:rgba(51,51,51,1.0);fill:none"/><text x="980" y="17" style="stroke-width:0;stroke:none;fill:rgba(51,51,51,1.0);font-size:12.8px;font-family:'Roboto Medium',sans-serif">710.00</text><path  d="M 38 351
L 41 351
L 43 351
L 45 351
L 47 351
L 49 351
L 52 351
L 54 351
L 56 351
L 58 351
L 60 350
L 62 349
L 65 349
L 67 348
L 69 347
L 71 347
L 73 345
L 76 343
L 78 344
L 80 341
L 82 341
L 84 342
L 86 341
L 89 338
L 91 339
L 93 337
L 95 337
L 97 333
L 100 331
L 102 328
L 104 328
L 106 328
L 108 330
L 110 332
L 113 336
L 115 339
L 117 342
L 119 345
L 121 345
L 124 345
L 126 346
L 128 347
L 130 347
L 132 347
L 134 349
L 137 349
L 139 349
L 141 349
L 143 349
L 145 349
L 148 350
L 150 350
L 152 351
L 154 351
L 156 351
L 158 351
L 161 351
L 163 351
L 165 351
L 167 351
L 169 351
L 171 350
L 174 350
L 176 350
L 178 350
L 180 350
L 182 350
L 185 350
L 187 351
L 189 351
L 191 351
L 193 351
L 195 351
L 198 350
L 200 350
L 202 350
L 204 350
L 206 350
L 209 350
L 211 350
L 213 351
L 215 351
L 217 351
L 219 351
L 222 351
L 224 351
L 226 351
L 228 351
L 230 351
L 233 351
L 235 351
L 237 351
L 239 351
L 241 351
L 243 351
L 246 351
L 248 351
L 250 351
L 252 351
L 254 351
L 257 351
L 259 351
L 261 351
L 263 350
L 265 350
L 267 350
L 270 350
L 272 350
L 274 350
L 276 350
L 278 351
L 281 351
L 283 351
L 285 351
L 287 350
L 289 350
L 291 350
L 294 350
L 296 350
L 298 350
L 300 348
L 302 347
L 304 347
L 307 343
L 309 343
L 311 341
L 313 339
L 315 339
L 318 341
L 320 339
L 322 343
L 324 342
L 326 343
L 328 343
L 331 341
L 333 341
L 335 341
L 337 341
L 339 341
L 342 342
L 344 343
L 346 347
L 348 347
L 350 349
L 352 349
L 355 348
L 357 348
L 359 348
L 361 347
L 363 347
L 366 346
L 368 346
L 370 346
L 372 344
L 374 344
L 376 345
L 379 345
L 381 346
L 383 346
L 385 347
L 387 349
L 390 349
L 392 350
L 394 350
L 396 350
L 398 350
L 400 350
L 403 349
L 405 349
L 407 348
L 409 347
L 411 345
L 414 345
L 416 345
L 418 344
L 420 342
L 422 339
L 424 336
L 427 336
L 429 332
L 431 331
L 433 332
L 435 330
L 437 332
L 440 334
L 442 335
L 444 339
L 446 339
L 448 340
L 451 341
L 453 344
L 455 346
L 457 346
L 459 346
L 461 347
L 464 345
L 466 347
L 468 345
L 470 344
L 472 342
L 475 342
L 477 338
L 479 337
L 481 335
L 483 336
L 485 335
L 488 336
L 490 334
L 492 332
L 494 334
L 496 336
L 499 331
L 501 320
L 503 317
L 505 318
L 507 317
L 509 319
L 512 316
L 514 322
L 516 334
L 518 337
L 520 336
L 523 341
L 525 338
L 527 336
L 529 333
L 531 327
L 533 323
L 536 322
L 538 317
L 540 319
L 542 321
L 544 319
L 547 323
L 549 321
L 551 321
L 553 315
L 555 310
L 557 302
L 560 286
L 562 266
L 564 255
L 566 253
L 568 257
L 570 225
L 573 218
L 575 210
L 577 210
L 579 199
L 581 177
L 584 158
L 586 158
L 588 147
L 590 134
L 592 90
L 594 75
L 597 45
L 599 42
L 601 45
L 603 43
L 605 15
L 608 29
L 610 42
L 612 80
L 614 56
L 616 56
L 618 38
L 621 75
L 623 84
L 625 88
L 627 95
L 629 86
L 632 104
L 634 115
L 636 119
L 638 134
L 640 143
L 642 147
L 645 191
L 647 190
L 649 206
L 651 215
L 653 228
L 656 239
L 658 241
L 660 241
L 662 258
L 664 272
L 666 271
L 669 273
L 671 273
L 673 253
L 675 256
L 677 238
L 680 230
L 682 240
L 684 241
L 686 243
L 688 259
L 690 263
L 693 271
L 695 263
L 697 268
L 699 272
L 701 278
L 703 277
L 706 283
L 708 281
L 710 281
L 712 276
L 714 271
L 717 268
L 719 267
L 721 265
L 723 255
L 725 275
L 727 275
L 730 269
L 732 271
L 734 276
L 736 281
L 738 298
L 741 289
L 743 292
L 745 299
L 747 298
L 749 301
L 751 298
L 754 302
L 756 308
L 758 307
L 760 307
L 762 308
L 765 307
L 767 312
L 769 314
L 771 316
L 773 319
L 775 315
L 778 317
L 780 312
L 782 306
L 784 300
L 786 294
L 789 291
L 791 287
L 793 288
L 795 290
L 797 288
L 799 288
L 802 292
L 804 294
L 806 304
L 808 300
L 810 292
L 813 297
L 815 297
L 817 295
L 819 293
L 821 291
L 823 291
L 826 292
L 828 288
L 830 288
L 832 283
L 834 277
L 836 271
L 839 267
L 841 269
L 843 270
L 845 271
L 847 268
L 850 267
L 852 251
L 854 254
L 856 251
L 858 234
L 860 217
L 863 215
L 865 212
L 867 222
L 869 209
L 871 217
L 874 221
L 876 211
L 878 215
L 880 214
L 882 210
L 884 212
L 887 205
L 889 203
L 891 217
L 893 213
L 895 214
L 898 228
L 900 223
L 902 234
L 904 221
L 906 227
L 908 227
L 911 226
L 913 208
L 915 214
L 917 208
L 919 234
L 922 229
L 924 236
L 926 243
L 928 250
L 930 256
L 932 256
L 935 248
L 937 254
L 939 252
L 941 256
L 943 256
L 946 247
L 948 241
L 950 249
L 952 250
L 954 239
L 956 236
L 959 245
L 961 251
L 963 252
L 965 251
L 967 251
L 969 258" style="stroke-width:1;stroke:rgba(0,116,217,1.0);fill:none"/><path  d="M 38 351
L 41 351
L 43 351
L 45 351
L 47 351
L 49 351
L 52 351
L 54 351
L 56 351
L 58 351
L 60 350
L 62 350
L 65 351
L 67 350
L 69 350
L 71 351
L 73 350
L 76 349
L 78 351
L 80 349
L 82 350
L 84 350
L 86 350
L 89 347
L 91 350
L 93 349
L 95 349
L 97 347
L 100 349
L 102 348
L 104 347
L 106 350
L 108 351
L 110 350
L 113 350
L 115 351
L 117 350
L 119 349
L 121 350
L 124 351
L 126 351
L 128 351
L 130 351
L 132 350
L 134 351
L 137 350
L 139 351
L 141 351
L 143 351
L 145 351
L 148 351
L 150 351
L 152 351
L 154 351
L 156 351
L 158 351
L 161 351
L 163 351
L 165 351
L 167 351
L 169 351
L 171 350
L 174 351
L 176 351
L 178 351
L 180 351
L 182 351
L 185 351
L 187 351
L 189 351
L 191 351
L 193 351
L 195 351
L 198 350
L 200 351
L 202 351
L 204 351
L 206 351
L 209 351
L 211 351
L 213 351
L 215 351
L 217 351
L 219 351
L 222 351
L 224 351
L 226 351
L 228 351
L 230 351
L 233 351
L 235 351
L 237 351
L 239 351
L 241 351
L 243 351
L 246 351
L 248 351
L 250 351
L 252 351
L 254 351
L 257 351
L 259 351
L 261 351
L 263 350
L 265 351
L 267 351
L 270 351
L 272 351
L 274 351
L 276 351
L 278 351
L 281 351
L 283 351
L 285 351
L 287 350
L 289 351
L 291 351
L 294 351
L 296 351
L 298 351
L 300 349
L 302 350
L 304 350
L 307 348
L 309 351
L 311 349
L 313 349
L 315 350
L 318 351
L 320 349
L 322 351
L 324 350
L 326 350
L 328 349
L 331 348
L 333 350
L 335 349
L 337 351
L 339 351
L 342 350
L 344 350
L 346 351
L 348 351
L 350 350
L 352 351
L 355 350
L 357 350
L 359 350
L 361 350
L 363 351
L 366 350
L 368 351
L 370 350
L 372 349
L 374 350
L 376 350
L 379 351
L 381 351
L 383 351
L 385 351
L 387 351
L 390 350
L 392 351
L 394 351
L 396 351
L 398 351
L 400 351
L 403 350
L 405 350
L 407 350
L 409 350
L 411 350
L 414 351
L 416 350
L 418 350
L 420 349
L 422 347
L 424 347
L 427 350
L 429 347
L 431 350
L 433 350
L 435 348
L 437 348
L 440 349
L 442 351
L 444 351
L 446 350
L 448 351
L 451 349
L 453 350
L 455 351
L 457 351
L 459 351
L 461 351
L 464 349
L 466 350
L 468 349
L 470 350
L 472 349
L 475 351
L 477 347
L 479 349
L 481 348
L 483 350
L 485 349
L 488 350
L 490 349
L 492 346
L 494 350
L 496 350
L 499 346
L 501 341
L 503 347
L 505 350
L 507 346
L 509 351
L 512 348
L 514 351
L 516 350
L 518 349
L 520 350
L 523 349
L 525 349
L 527 346
L 529 349
L 531 346
L 533 346
L 536 349
L 538 346
L 540 350
L 542 347
L 544 347
L 547 349
L 549 344
L 551 349
L 553 341
L 555 345
L 557 341
L 560 335
L 562 335
L 564 336
L 566 348
L 568 344
L 570 322
L 573 336
L 575 329
L 577 335
L 579 328
L 581 331
L 584 330
L 586 322
L 588 328
L 590 320
L 592 303
L 594 317
L 597 309
L 599 328
L 601 324
L 603 326
L 605 299
L 608 313
L 610 327
L 612 338
L 614 310
L 616 323
L 618 313
L 621 326
L 623 320
L 625 329
L 627 343
L 629 304
L 632 337
L 634 321
L 636 329
L 638 331
L 640 335
L 642 346
L 645 336
L 647 336
L 649 333
L 651 336
L 653 340
L 656 343
L 658 348
L 660 336
L 662 349
L 664 343
L 666 336
L 669 341
L 671 343
L 673 334
L 675 338
L 677 335
L 680 338
L 682 342
L 684 343
L 686 345
L 688 345
L 690 340
L 693 341
L 695 332
L 697 346
L 699 346
L 701 350
L 703 344
L 706 345
L 708 340
L 710 332
L 712 342
L 714 342
L 717 347
L 719 343
L 721 343
L 723 333
L 725 346
L 727 343
L 730 338
L 732 349
L 734 347
L 736 347
L 738 345
L 741 339
L 743 345
L 745 343
L 747 348
L 749 349
L 751 345
L 754 349
L 756 344
L 758 344
L 760 343
L 762 349
L 765 349
L 767 348
L 769 351
L 771 345
L 773 346
L 775 340
L 778 350
L 780 344
L 782 344
L 784 346
L 786 341
L 789 344
L 791 337
L 793 351
L 795 346
L 797 342
L 799 346
L 802 344
L 804 346
L 806 344
L 808 348
L 810 340
L 813 346
L 815 346
L 817 343
L 819 344
L 821 343
L 823 348
L 826 341
L 828 343
L 830 346
L 832 339
L 834 339
L 836 338
L 839 346
L 841 342
L 843 344
L 845 347
L 847 337
L 850 339
L 852 326
L 854 349
L 856 339
L 858 331
L 860 334
L 863 336
L 865 336
L 867 333
L 869 339
L 871 346
L 874 334
L 876 327
L 878 339
L 880 335
L 882 330
L 884 340
L 887 341
L 889 332
L 891 337
L 893 336
L 895 336
L 898 340
L 900 336
L 902 350
L 904 323
L 906 341
L 908 336
L 911 335
L 913 328
L 915 340
L 917 345
L 919 341
L 922 338
L 924 341
L 926 340
L 928 333
L 930 345
L 932 345
L 935 336
L 937 342
L 939 340
L 941 342
L 943 333
L 946 338
L 948 341
L 950 341
L 952 343
L 954 332
L 956 340
L 959 340
L 961 341
L 963 343
L 965 340
L 967 343
L 969 338" style="stroke-width:1;stroke:rgba(0,217,101,1.0);fill:none"/><path  d="M 38 351
L 41 351
L 43 351
L 45 351
L 47 351
L 49 351
L 52 351
L 54 351
L 56 351
L 58 351
L 60 351
L 62 351
L 65 351
L 67 351
L 69 351
L 71 351
L 73 351
L 76 351
L 78 351
L 80 351
L 82 351
L 84 351
L 86 351
L 89 351
L 91 351
L 93 351
L 95 351
L 97 351
L 100 351
L 102 351
L 104 351
L 106 351
L 108 351
L 110 351
L 113 351
L 115 351
L 117 351
L 119 351
L 121 351
L 124 351
L 126 351
L 128 351
L 130 351
L 132 351
L 134 351
L 137 351
L 139 351
L 141 351
L 143 351
L 145 351
L 148 351
L 150 351
L 152 351
L 154 351
L 156 351
L 158 351
L 161 351
L 163 351
L 165 351
L 167 351
L 169 351
L 171 351
L 174 351
L 176 351
L 178 351
L 180 351
L 182 351
L 185 351
L 187 351
L 189 351
L 191 351
L 193 351
L 195 351
L 198 351
L 200 351
L 202 351
L 204 351
L 206 351
L 209 351
L 211 351
L 213 351
L 215 351
L 217 351
L 219 351
L 222 351
L 224 351
L 226 351
L 228 351
L 230 351
L 233 351
L 235 351
L 237 351
L 239 351
L 241 351
L 243 351
L 246 351
L 248 351
L 250 351
L 252 351
L 254 351
L 257 351
L 259 351
L 261 351
L 263 351
L 265 351
L 267 351
L 270 351
L 272 351
L 274 351
L 276 351
L 278 351
L 281 351
L 283 351
L 285 351
L 287 351
L 289 351
L 291 351
L 294 351
L 296 351
L 298 351
L 300 351
L 302 351
L 304 351
L 307 351
L 309 351
L 311 351
L 313 351
L 315 351
L 318 351
L 320 351
L 322 351
L 324 351
L 326 351
L 328 351
L 331 351
L 333 351
L 335 351
L 337 351
L 339 351
L 342 351
L 344 351
L 346 351
L 348 351
L 350 351
L 352 351
L 355 351
L 357 351
L 359 351
L 361 351
L 363 351
L 366 351
L 368 351
L 370 351
L 372 351
L 374 351
L 376 351
L 379 351
L 381 351
L 383 350
L 385 351
L 387 351
L 390 351
L 392 351
L 394 351
L 396 351
L 398 351
L 400 351
L 403 351
L 405 351
L 407 351
L 409 351
L 411 351
L 414 351
L 416 351
L 418 351
L 420 351
L 422 351
L 424 351
L 427 351
L 429 351
L 431 351
L 433 351
L 435 351
L 437 351
L 440 351
L 442 351
L 444 351
L 446 351
L 448 351
L 451 351
L 453 351
L 455 351
L 457 351
L 459 351
L 461 351
L 464 351
L 466 351
L 468 351
L 470 351
L 472 351
L 475 351
L 477 351
L 479 351
L 481 351
L 483 351
L 485 351
L 488 351
L 490 351
L 492 351
L 494 351
L 496 351
L 499 351
L 501 351
L 503 351
L 505 351
L 507 351
L 509 351
L 512 351
L 514 351
L 516 351
L 518 351
L 520 351
L 523 351
L 525 351
L 527 351
L 529 351
L 531 351
L 533 351
L 536 351
L 538 351
L 540 351
L 542 351
L 544 351
L 547 351
L 549 351
L 551 351
L 553 351
L 555 351
L 557 351
L 560 351
L 562 351
L 564 351
L 566 351
L 568 351
L 570 351
L 573 351
L 575 351
L 577 351
L 579 351
L 581 351
L 584 351
L 586 351
L 588 350
L 590 351
L 592 351
L 594 351
L 597 350
L 599 350
L 601 350
L 603 351
L 605 350
L 608 350
L 610 351
L 612 351
L 614 350
L 616 350
L 618 351
L 621 350
L 623 350
L 625 351
L 627 351
L 629 351
L 632 350
L 634 350
L 636 351
L 638 350
L 640 350
L 642 351
L 645 350
L 647 350
L 649 350
L 651 351
L 653 350
L 656 350
L 658 351
L 660 351
L 662 350
L 664 350
L 666 350
L 669 351
L 671 351
L 673 351
L 675 350
L 677 351
L 680 351
L 682 351
L 684 351
L 686 350
L 688 350
L 690 351
L 693 350
L 695 351
L 697 351
L 699 351
L 701 350
L 703 351
L 706 350
L 708 351
L 710 351
L 712 350
L 714 351
L 717 350
L 719 350
L 721 350
L 723 351
L 725 351
L 727 350
L 730 351
L 732 351
L 734 351
L 736 351
L 738 351
L 741 351
L 743 351
L 745 351
L 747 351
L 749 351
L 751 351
L 754 351
L 756 351
L 758 350
L 760 351
L 762 351
L 765 351
L 767 351
L 769 351
L 771 351
L 773 351
L 775 351
L 778 351
L 780 351
L 782 351
L 784 351
L 786 351
L 789 351
L 791 351
L 793 351
L 795 351
L 797 351
L 799 351
L 802 351
L 804 351
L 806 351
L 808 351
L 810 351
L 813 351
L 815 351
L 817 351
L 819 351
L 821 351
L 823 351
L 826 351
L 828 351
L 830 350
L 832 351
L 834 351
L 836 350
L 839 351
L 841 351
L 843 351
L 845 351
L 847 351
L 850 351
L 852 351
L 854 351
L 856 351
L 858 351
L 860 351
L 863 351
L 865 350
L 867 351
L 869 351
L 871 351
L 874 351
L 876 351
L 878 351
L 880 351
L 882 351
L 884 351
L 887 351
L 889 350
L 891 351
L 893 351
L 895 350
L 898 351
L 900 351
L 902 350
L 904 351
L 906 351
L 908 351
L 911 351
L 913 351
L 915 351
L 917 349
L 919 351
L 922 351
L 924 351
L 926 351
L 928 351
L 930 351
L 932 351
L 935 351
L 937 351
L 939 351
L 941 351
L 943 351
L 946 351
L 948 351
L 950 351
L 952 351
L 954 351
L 956 351
L 959 351
L 961 350
L 963 351
L 965 351
L 967 351
L 969 351" style="stroke-width:1;stroke:rgba(217,0,116,1.0);fill:none"/><text x="396" y="33" style="stroke-width:0;stroke:none;fill:rgba(51,51,51,1.0);font-size:23.0px;font-family:'Roboto Medium',sans-serif">Wels-Land 28.04.2021</text><path  d="M 38 11
L 251 11
L 251 91
L 38 91
L 38 11" style="stroke-width:1;stroke:rgba(51,51,51,1.0);fill:rgba(255,255,255,1.0)"/><text x="43" y="26" style="stroke-width:0;stroke:none;fill:rgba(51,51,51,1.0);font-size:10.2px;font-family:'Roboto Medium',sans-serif">Sieben Tage Durschnitt Inzidenz Fälle</text><path  d="M 221 21
L 241 21" style="stroke-width:1;stroke:rgba(0,116,217,1.0);fill:none"/><text x="43" y="56" style="stroke-width:0;stroke:none;fill:rgba(51,51,51,1.0);font-size:10.2px;font-family:'Roboto Medium',sans-serif">Anzahl Faelle</text><path  d="M 110 51
L 241 51" style="stroke-width:1;stroke:rgba(0,217,101,1.0);fill:none"/><text x="43" y="86" style="stroke-width:0;stroke:none;fill:rgba(51,51,51,1.0);font-size:10.2px;font-family:'Roboto Medium',sans-serif">Anzahl Tot</text><path  d="M 98 81
L 241 81" style="stroke-width:1;stroke:rgba(217,0,116,1.0);fill:none"/></svg>