<svg xmlns="http://www.w3.org/2000/svg" xmlns:xlink="http://www.w3.org/1999/xlink" width="1024" height="400">\n<path  d="M 0 0
L 1024 0
L 1024 400
L 0 400
L 0 0" style="stroke-width:0;stroke:rgba(255,255,255,1.0);fill:rgba(255,255,255,1.0)"/><path  d="M 38 11
L 969 11
L 969 351
L 38 351
L 38 11" style="stroke-width:0;stroke:rgba(255,255,255,1.0);fill:rgba(255,255,255,1.0)"/><path  d="M 38 351
L 969 351" style="stroke-width:1;stroke:rgba(51,51,51,1.0);fill:none"/><path  d="M 38 351
L 38 356" style="stroke-width:1;stroke:rgba(51,51,51,1.0);fill:none"/><text x="5" y="373" style="stroke-width:0;stroke:none;fill:rgba(51,51,51,1.0);font-size:12.8px;font-family:'Roboto Medium',sans-serif">2020-02-26</text><path  d="M 155 351
L 155 356" style="stroke-width:1;stroke:rgba(51,51,51,1.0);fill:none"/><text x="122" y="373" style="stroke-width:0;stroke:none;fill:rgba(51,51,51,1.0);font-size:12.8px;font-family:'Roboto Medium',sans-serif">2020-04-29</text><path  d="M 271 351
L 271 356" style="stroke-width:1;stroke:rgba(51,51,51,1.0);fill:none"/><text x="238" y="373" style="stroke-width:0;stroke:none;fill:rgba(51,51,51,1.0);font-size:12.8px;font-family:'Roboto Medium',sans-serif">2020-07-01</text><path  d="M 388 351
L 388 356" style="stroke-width:1;stroke:rgba(51,51,51,1.0);fill:none"/><text x="355" y="373" style="stroke-width:0;stroke:none;fill:rgba(51,51,51,1.0);font-size:12.8px;font-family:'Roboto Medium',sans-serif">2020-09-02</text><path  d="M 504 351
L 504 356" style="stroke-width:1;stroke:rgba(51,51,51,1.0);fill:none"/><text x="471" y="373" style="stroke-width:0;stroke:none;fill:rgba(51,51,51,1.0);font-size:12.8px;font-family:'Roboto Medium',sans-serif">2020-11-04</text><path  d="M 620 351
L 620 356" style="stroke-width:1;stroke:rgba(51,51,51,1.0);fill:none"/><text x="587" y="373" style="stroke-width:0;stroke:none;fill:rgba(51,51,51,1.0);font-size:12.8px;font-family:'Roboto Medium',sans-serif">2021-01-06</text><path  d="M 737 351
L 737 356" style="stroke-width:1;stroke:rgba(51,51,51,1.0);fill:none"/><text x="704" y="373" style="stroke-width:0;stroke:none;fill:rgba(51,51,51,1.0);font-size:12.8px;font-family:'Roboto Medium',sans-serif">2021-03-10</text><path  d="M 853 351
L 853 356" style="stroke-width:1;stroke:rgba(51,51,51,1.0);fill:none"/><text x="820" y="373" style="stroke-width:0;stroke:none;fill:rgba(51,51,51,1.0);font-size:12.8px;font-family:'Roboto Medium',sans-serif">2021-05-12</text><path  d="M 969 351
L 969 356" style="stroke-width:1;stroke:rgba(51,51,51,1.0);fill:none"/><text x="936" y="373" style="stroke-width:0;stroke:none;fill:rgba(51,51,51,1.0);font-size:12.8px;font-family:'Roboto Medium',sans-serif">2021-07-15</text><text x="485" y="395" style="stroke-width:0;stroke:none;fill:rgba(51,51,51,1.0);font-size:12.8px;font-family:'Roboto Medium',sans-serif">Datum</text><path  d="M 970 351
L 970 11" style="stroke-width:1;stroke:rgba(51,51,51,1.0);fill:none"/><path  d="M 970 351
L 975 351" style="stroke-width:1;stroke:rgba(51,51,51,1.0);fill:none"/><text x="980" y="357" style="stroke-width:0;stroke:none;fill:rgba(51,51,51,1.0);font-size:12.8px;font-family:'Roboto Medium',sans-serif">0.00</text><path  d="M 970 308
L 975 308" style="stroke-width:1;stroke:rgba(51,51,51,1.0);fill:none"/><text x="980" y="314" style="stroke-width:0;stroke:none;fill:rgba(51,51,51,1.0);font-size:12.8px;font-family:'Roboto Medium',sans-serif">88.00</text><path  d="M 970 266
L 975 266" style="stroke-width:1;stroke:rgba(51,51,51,1.0);fill:none"/><text x="980" y="272" style="stroke-width:0;stroke:none;fill:rgba(51,51,51,1.0);font-size:12.8px;font-family:'Roboto Medium',sans-serif">175.00</text><path  d="M 970 223
L 975 223" style="stroke-width:1;stroke:rgba(51,51,51,1.0);fill:none"/><text x="980" y="229" style="stroke-width:0;stroke:none;fill:rgba(51,51,51,1.0);font-size:12.8px;font-family:'Roboto Medium',sans-serif">263.00</text><path  d="M 970 181
L 975 181" style="stroke-width:1;stroke:rgba(51,51,51,1.0);fill:none"/><text x="980" y="187" style="stroke-width:0;stroke:none;fill:rgba(51,51,51,1.0);font-size:12.8px;font-family:'Roboto Medium',sans-serif">350.00</text><path  d="M 970 138
L 975 138" style="stroke-width:1;stroke:rgba(51,51,51,1.0);fill:none"/><text x="980" y="144" style="stroke-width:0;stroke:none;fill:rgba(51,51,51,1.0);font-size:12.8px;font-family:'Roboto Medium',sans-serif">438.00</text><path  d="M 970 96
L 975 96" style="stroke-width:1;stroke:rgba(51,51,51,1.0);fill:none"/><text x="980" y="102" style="stroke-width:0;stroke:none;fill:rgba(51,51,51,1.0);font-size:12.8px;font-family:'Roboto Medium',sans-serif">525.00</text><path  d="M 970 53
L 975 53" style="stroke-width:1;stroke:rgba(51,51,51,1.0);fill:none"/><text x="980" y="59" style="stroke-width:0;stroke:none;fill:rgba(51,51,51,1.0);font-size:12.8px;font-family:'Roboto Medium',sans-serif">613.00</text><path  d="M 970 11
L 975 11" style="stroke-width:1;stroke:rgba(51,51,51,1.0);fill:none"/><text x="980" y="17" style="stroke-width:0;stroke:none;fill:rgba(51,51,51,1.0);font-size:12.8px;font-family:'Roboto Medium',sans-serif">700.00</text><path  d="M 38 351
L 40 351
L 42 351
L 44 351
L 46 351
L 48 351
L 50 351
L 51 351
L 53 351
L 55 351
L 57 350
L 59 349
L 61 349
L 62 348
L 64 347
L 66 347
L 68 345
L 70 343
L 72 344
L 74 341
L 75 341
L 77 342
L 79 341
L 81 337
L 83 339
L 85 337
L 86 337
L 88 333
L 90 331
L 92 328
L 94 328
L 96 328
L 97 330
L 99 332
L 101 336
L 103 339
L 105 342
L 107 345
L 109 345
L 110 345
L 112 346
L 114 347
L 116 347
L 118 347
L 120 349
L 121 349
L 123 349
L 125 349
L 127 349
L 129 349
L 131 350
L 133 350
L 134 351
L 136 351
L 138 351
L 140 351
L 142 351
L 144 351
L 145 351
L 147 351
L 149 351
L 151 350
L 153 350
L 155 350
L 156 350
L 158 350
L 160 350
L 162 350
L 164 351
L 166 351
L 168 351
L 169 351
L 171 351
L 173 350
L 175 350
L 177 350
L 179 350
L 180 350
L 182 350
L 184 350
L 186 351
L 188 351
L 190 351
L 192 351
L 193 351
L 195 351
L 197 351
L 199 351
L 201 351
L 203 351
L 204 351
L 206 351
L 208 351
L 210 351
L 212 351
L 214 351
L 215 351
L 217 351
L 219 351
L 221 351
L 223 351
L 225 351
L 227 351
L 228 350
L 230 350
L 232 350
L 234 350
L 236 350
L 238 350
L 239 350
L 241 351
L 243 351
L 245 351
L 247 351
L 249 350
L 251 350
L 252 350
L 254 350
L 256 350
L 258 350
L 260 348
L 262 347
L 263 347
L 265 343
L 267 343
L 269 341
L 271 339
L 273 339
L 274 341
L 276 339
L 278 343
L 280 342
L 282 343
L 284 343
L 286 341
L 287 341
L 289 341
L 291 341
L 293 341
L 295 342
L 297 343
L 298 347
L 300 347
L 302 349
L 304 349
L 306 348
L 308 348
L 310 348
L 311 347
L 313 347
L 315 346
L 317 346
L 319 346
L 321 344
L 322 344
L 324 345
L 326 345
L 328 346
L 330 346
L 332 347
L 333 349
L 335 349
L 337 350
L 339 350
L 341 350
L 343 350
L 345 350
L 346 349
L 348 349
L 350 348
L 352 347
L 354 345
L 356 345
L 357 345
L 359 344
L 361 342
L 363 339
L 365 336
L 367 336
L 368 332
L 370 331
L 372 332
L 374 330
L 376 332
L 378 334
L 380 335
L 381 339
L 383 339
L 385 340
L 387 341
L 389 344
L 391 346
L 392 346
L 394 346
L 396 347
L 398 345
L 400 347
L 402 345
L 404 344
L 405 342
L 407 342
L 409 337
L 411 337
L 413 335
L 415 336
L 416 335
L 418 336
L 420 334
L 422 332
L 424 334
L 426 336
L 427 331
L 429 320
L 431 317
L 433 318
L 435 317
L 437 319
L 439 316
L 440 322
L 442 334
L 444 337
L 446 336
L 448 341
L 450 338
L 451 336
L 453 333
L 455 327
L 457 323
L 459 322
L 461 317
L 463 319
L 464 321
L 466 319
L 468 323
L 470 321
L 472 321
L 474 315
L 475 309
L 477 302
L 479 285
L 481 266
L 483 255
L 485 253
L 486 257
L 488 225
L 490 218
L 492 209
L 494 210
L 496 199
L 498 177
L 499 158
L 501 158
L 503 146
L 505 134
L 507 89
L 509 74
L 510 44
L 512 41
L 514 44
L 516 42
L 518 14
L 520 28
L 522 40
L 523 79
L 525 55
L 527 54
L 529 37
L 531 73
L 533 83
L 534 87
L 536 94
L 538 85
L 540 103
L 542 114
L 544 119
L 545 134
L 547 142
L 549 147
L 551 191
L 553 190
L 555 206
L 557 215
L 558 227
L 560 238
L 562 241
L 564 240
L 566 258
L 568 272
L 569 271
L 571 272
L 573 272
L 575 253
L 577 255
L 579 237
L 581 230
L 582 239
L 584 241
L 586 243
L 588 259
L 590 263
L 592 271
L 593 263
L 595 268
L 597 272
L 599 278
L 601 277
L 603 283
L 604 281
L 606 280
L 608 275
L 610 271
L 612 268
L 614 266
L 616 265
L 617 255
L 619 274
L 621 275
L 623 268
L 625 271
L 627 276
L 628 281
L 630 298
L 632 289
L 634 292
L 636 300
L 638 298
L 640 302
L 641 298
L 643 303
L 645 309
L 647 308
L 649 307
L 651 308
L 652 307
L 654 311
L 656 314
L 658 316
L 660 319
L 662 315
L 663 317
L 665 311
L 667 306
L 669 300
L 671 294
L 673 291
L 675 287
L 676 287
L 678 290
L 680 288
L 682 288
L 684 292
L 686 294
L 687 304
L 689 300
L 691 292
L 693 297
L 695 296
L 697 295
L 698 293
L 700 291
L 702 291
L 704 292
L 706 288
L 708 288
L 710 283
L 711 277
L 713 270
L 715 267
L 717 268
L 719 270
L 721 271
L 722 268
L 724 267
L 726 251
L 728 255
L 730 251
L 732 234
L 734 217
L 735 216
L 737 212
L 739 222
L 741 209
L 743 217
L 745 220
L 746 210
L 748 215
L 750 214
L 752 209
L 754 211
L 756 205
L 757 203
L 759 216
L 761 212
L 763 213
L 765 227
L 767 222
L 769 233
L 770 220
L 772 226
L 774 226
L 776 225
L 778 208
L 780 214
L 781 208
L 783 233
L 785 229
L 787 236
L 789 242
L 791 250
L 793 255
L 794 255
L 796 248
L 798 253
L 800 252
L 802 255
L 804 256
L 805 246
L 807 241
L 809 249
L 811 250
L 813 238
L 815 235
L 816 246
L 818 251
L 820 253
L 822 251
L 824 251
L 826 259
L 828 251
L 829 250
L 831 248
L 833 257
L 835 255
L 837 252
L 839 259
L 840 272
L 842 273
L 844 284
L 846 283
L 848 293
L 850 299
L 852 303
L 853 308
L 855 311
L 857 310
L 859 307
L 861 308
L 863 310
L 864 310
L 866 308
L 868 314
L 870 313
L 872 316
L 874 319
L 875 315
L 877 317
L 879 319
L 881 321
L 883 322
L 885 324
L 887 326
L 888 332
L 890 336
L 892 338
L 894 336
L 896 341
L 898 339
L 899 338
L 901 338
L 903 339
L 905 339
L 907 341
L 909 341
L 911 343
L 912 344
L 914 345
L 916 345
L 918 347
L 920 350
L 922 350
L 923 349
L 925 349
L 927 349
L 929 349
L 931 349
L 933 349
L 934 349
L 936 350
L 938 351
L 940 350
L 942 350
L 944 349
L 946 349
L 947 349
L 949 349
L 951 349
L 953 349
L 955 349
L 957 350
L 958 350
L 960 350
L 962 350
L 964 350
L 966 349
L 968 349
L 969 343" style="stroke-width:1;stroke:rgba(0,116,217,1.0);fill:none"/><path  d="M 38 351
L 40 351
L 42 351
L 44 351
L 46 351
L 48 351
L 50 351
L 51 351
L 53 351
L 55 351
L 57 350
L 59 350
L 61 351
L 62 350
L 64 350
L 66 351
L 68 350
L 70 349
L 72 351
L 74 349
L 75 350
L 77 350
L 79 350
L 81 347
L 83 350
L 85 349
L 86 349
L 88 347
L 90 349
L 92 348
L 94 347
L 96 350
L 97 351
L 99 350
L 101 350
L 103 351
L 105 350
L 107 349
L 109 350
L 110 351
L 112 351
L 114 351
L 116 351
L 118 350
L 120 351
L 121 350
L 123 351
L 125 351
L 127 351
L 129 351
L 131 351
L 133 351
L 134 351
L 136 351
L 138 351
L 140 351
L 142 351
L 144 351
L 145 351
L 147 351
L 149 351
L 151 350
L 153 351
L 155 351
L 156 351
L 158 351
L 160 351
L 162 351
L 164 351
L 166 351
L 168 351
L 169 351
L 171 351
L 173 350
L 175 351
L 177 351
L 179 351
L 180 351
L 182 351
L 184 351
L 186 351
L 188 351
L 190 351
L 192 351
L 193 351
L 195 351
L 197 351
L 199 351
L 201 351
L 203 351
L 204 351
L 206 351
L 208 351
L 210 351
L 212 351
L 214 351
L 215 351
L 217 351
L 219 351
L 221 351
L 223 351
L 225 351
L 227 351
L 228 350
L 230 351
L 232 351
L 234 351
L 236 351
L 238 351
L 239 351
L 241 351
L 243 351
L 245 351
L 247 351
L 249 350
L 251 351
L 252 351
L 254 351
L 256 351
L 258 351
L 260 349
L 262 350
L 263 350
L 265 348
L 267 351
L 269 349
L 271 349
L 273 350
L 274 351
L 276 349
L 278 351
L 280 350
L 282 350
L 284 349
L 286 348
L 287 350
L 289 349
L 291 351
L 293 351
L 295 350
L 297 350
L 298 351
L 300 351
L 302 350
L 304 351
L 306 350
L 308 350
L 310 350
L 311 350
L 313 351
L 315 350
L 317 351
L 319 350
L 321 349
L 322 350
L 324 350
L 326 351
L 328 351
L 330 351
L 332 351
L 333 351
L 335 350
L 337 351
L 339 351
L 341 351
L 343 351
L 345 351
L 346 350
L 348 350
L 350 350
L 352 350
L 354 350
L 356 351
L 357 350
L 359 350
L 361 349
L 363 347
L 365 347
L 367 350
L 368 347
L 370 350
L 372 350
L 374 348
L 376 348
L 378 349
L 380 351
L 381 351
L 383 350
L 385 351
L 387 349
L 389 350
L 391 351
L 392 351
L 394 351
L 396 351
L 398 349
L 400 350
L 402 349
L 404 350
L 405 349
L 407 351
L 409 347
L 411 349
L 413 348
L 415 350
L 416 349
L 418 350
L 420 349
L 422 346
L 424 350
L 426 350
L 427 346
L 429 341
L 431 347
L 433 350
L 435 346
L 437 351
L 439 348
L 440 351
L 442 350
L 444 349
L 446 350
L 448 349
L 450 349
L 451 346
L 453 349
L 455 346
L 457 346
L 459 349
L 461 346
L 463 350
L 464 347
L 466 347
L 468 349
L 470 344
L 472 349
L 474 341
L 475 345
L 477 341
L 479 335
L 481 334
L 483 336
L 485 348
L 486 344
L 488 321
L 490 336
L 492 329
L 494 335
L 496 328
L 498 331
L 499 330
L 501 321
L 503 327
L 505 319
L 507 302
L 509 317
L 510 309
L 512 328
L 514 323
L 516 326
L 518 299
L 520 313
L 522 326
L 523 337
L 525 310
L 527 323
L 529 313
L 531 326
L 533 320
L 534 329
L 536 343
L 538 303
L 540 336
L 542 321
L 544 329
L 545 331
L 547 335
L 549 346
L 551 336
L 553 335
L 555 333
L 557 336
L 558 340
L 560 343
L 562 348
L 564 335
L 566 349
L 568 343
L 569 335
L 571 341
L 573 343
L 575 334
L 577 337
L 579 335
L 581 338
L 582 342
L 584 343
L 586 345
L 588 345
L 590 340
L 592 341
L 593 332
L 595 346
L 597 345
L 599 350
L 601 344
L 603 345
L 604 340
L 606 332
L 608 342
L 610 342
L 612 347
L 614 343
L 616 343
L 617 333
L 619 346
L 621 343
L 623 337
L 625 349
L 627 347
L 628 347
L 630 345
L 632 339
L 634 345
L 636 343
L 638 348
L 640 349
L 641 345
L 643 349
L 645 344
L 647 344
L 649 343
L 651 349
L 652 349
L 654 348
L 656 351
L 658 345
L 660 346
L 662 340
L 663 350
L 665 344
L 667 344
L 669 346
L 671 341
L 673 344
L 675 337
L 676 351
L 678 346
L 680 342
L 682 346
L 684 344
L 686 346
L 687 344
L 689 348
L 691 340
L 693 346
L 695 346
L 697 343
L 698 344
L 700 343
L 702 348
L 704 341
L 706 343
L 708 346
L 710 339
L 711 339
L 713 338
L 715 346
L 717 342
L 719 344
L 721 347
L 722 336
L 724 339
L 726 326
L 728 349
L 730 339
L 732 331
L 734 334
L 735 335
L 737 336
L 739 333
L 741 339
L 743 346
L 745 334
L 746 327
L 748 339
L 750 335
L 752 330
L 754 340
L 756 341
L 757 332
L 759 337
L 761 336
L 763 335
L 765 340
L 767 336
L 769 350
L 770 322
L 772 341
L 774 336
L 776 335
L 778 327
L 780 340
L 781 345
L 783 341
L 785 338
L 787 341
L 789 340
L 791 333
L 793 345
L 794 345
L 796 335
L 798 342
L 800 340
L 802 342
L 804 333
L 805 337
L 807 341
L 809 341
L 811 343
L 813 332
L 815 340
L 816 341
L 818 341
L 820 343
L 822 340
L 824 343
L 826 337
L 828 334
L 829 339
L 831 340
L 833 349
L 835 339
L 837 341
L 839 343
L 840 344
L 842 340
L 844 349
L 846 349
L 848 346
L 850 346
L 852 346
L 853 348
L 855 342
L 857 348
L 859 346
L 861 347
L 863 347
L 864 346
L 866 346
L 868 347
L 870 347
L 872 349
L 874 349
L 875 345
L 877 347
L 879 348
L 881 349
L 883 347
L 885 350
L 887 350
L 888 350
L 890 350
L 892 349
L 894 348
L 896 351
L 898 349
L 899 350
L 901 350
L 903 351
L 905 349
L 907 349
L 909 351
L 911 351
L 912 350
L 914 351
L 916 351
L 918 351
L 920 351
L 922 351
L 923 350
L 925 350
L 927 351
L 929 351
L 931 351
L 933 351
L 934 351
L 936 351
L 938 351
L 940 350
L 942 351
L 944 350
L 946 351
L 947 351
L 949 351
L 951 351
L 953 350
L 955 351
L 957 351
L 958 351
L 960 351
L 962 351
L 964 351
L 966 350
L 968 350
L 969 347" style="stroke-width:1;stroke:rgba(0,217,101,1.0);fill:none"/><path  d="M 38 351
L 40 351
L 42 351
L 44 351
L 46 351
L 48 351
L 50 351
L 51 351
L 53 351
L 55 351
L 57 351
L 59 351
L 61 351
L 62 351
L 64 351
L 66 351
L 68 351
L 70 351
L 72 351
L 74 351
L 75 351
L 77 351
L 79 351
L 81 351
L 83 351
L 85 351
L 86 351
L 88 351
L 90 351
L 92 351
L 94 351
L 96 351
L 97 351
L 99 351
L 101 351
L 103 351
L 105 351
L 107 351
L 109 351
L 110 351
L 112 351
L 114 351
L 116 351
L 118 351
L 120 351
L 121 351
L 123 351
L 125 351
L 127 351
L 129 351
L 131 351
L 133 351
L 134 351
L 136 351
L 138 351
L 140 351
L 142 351
L 144 351
L 145 351
L 147 351
L 149 351
L 151 351
L 153 351
L 155 351
L 156 351
L 158 351
L 160 351
L 162 351
L 164 351
L 166 351
L 168 351
L 169 351
L 171 351
L 173 351
L 175 351
L 177 351
L 179 351
L 180 351
L 182 351
L 184 351
L 186 351
L 188 351
L 190 351
L 192 351
L 193 351
L 195 351
L 197 351
L 199 351
L 201 351
L 203 351
L 204 351
L 206 351
L 208 351
L 210 351
L 212 351
L 214 351
L 215 351
L 217 351
L 219 351
L 221 351
L 223 351
L 225 351
L 227 351
L 228 351
L 230 351
L 232 351
L 234 351
L 236 351
L 238 351
L 239 351
L 241 351
L 243 351
L 245 351
L 247 351
L 249 351
L 251 351
L 252 351
L 254 351
L 256 351
L 258 351
L 260 351
L 262 351
L 263 351
L 265 351
L 267 351
L 269 351
L 271 351
L 273 351
L 274 351
L 276 351
L 278 351
L 280 351
L 282 351
L 284 351
L 286 351
L 287 351
L 289 351
L 291 351
L 293 351
L 295 351
L 297 351
L 298 351
L 300 351
L 302 351
L 304 351
L 306 351
L 308 351
L 310 351
L 311 351
L 313 351
L 315 351
L 317 351
L 319 351
L 321 351
L 322 351
L 324 351
L 326 351
L 328 351
L 330 350
L 332 351
L 333 351
L 335 351
L 337 351
L 339 351
L 341 351
L 343 351
L 345 351
L 346 351
L 348 351
L 350 351
L 352 351
L 354 351
L 356 351
L 357 351
L 359 351
L 361 351
L 363 351
L 365 351
L 367 351
L 368 351
L 370 351
L 372 351
L 374 351
L 376 351
L 378 351
L 380 351
L 381 351
L 383 351
L 385 351
L 387 351
L 389 351
L 391 351
L 392 351
L 394 351
L 396 351
L 398 351
L 400 351
L 402 351
L 404 351
L 405 351
L 407 351
L 409 351
L 411 351
L 413 351
L 415 351
L 416 351
L 418 351
L 420 351
L 422 351
L 424 351
L 426 351
L 427 351
L 429 351
L 431 351
L 433 351
L 435 351
L 437 351
L 439 351
L 440 351
L 442 351
L 444 351
L 446 351
L 448 351
L 450 351
L 451 351
L 453 351
L 455 351
L 457 351
L 459 351
L 461 351
L 463 351
L 464 351
L 466 351
L 468 351
L 470 351
L 472 351
L 474 351
L 475 351
L 477 351
L 479 351
L 481 351
L 483 351
L 485 351
L 486 351
L 488 351
L 490 351
L 492 351
L 494 351
L 496 351
L 498 351
L 499 351
L 501 351
L 503 350
L 505 351
L 507 351
L 509 351
L 510 350
L 512 350
L 514 350
L 516 351
L 518 350
L 520 350
L 522 351
L 523 351
L 525 350
L 527 350
L 529 351
L 531 350
L 533 350
L 534 351
L 536 351
L 538 351
L 540 350
L 542 350
L 544 351
L 545 350
L 547 350
L 549 351
L 551 350
L 553 350
L 555 350
L 557 350
L 558 350
L 560 350
L 562 351
L 564 351
L 566 350
L 568 350
L 569 350
L 571 351
L 573 351
L 575 351
L 577 350
L 579 351
L 581 351
L 582 351
L 584 351
L 586 350
L 588 350
L 590 351
L 592 350
L 593 351
L 595 351
L 597 351
L 599 350
L 601 351
L 603 350
L 604 351
L 606 351
L 608 350
L 610 351
L 612 350
L 614 350
L 616 350
L 617 351
L 619 351
L 621 350
L 623 351
L 625 351
L 627 351
L 628 351
L 630 351
L 632 351
L 634 351
L 636 351
L 638 351
L 640 351
L 641 350
L 643 351
L 645 351
L 647 350
L 649 351
L 651 351
L 652 351
L 654 351
L 656 351
L 658 351
L 660 351
L 662 351
L 663 351
L 665 351
L 667 351
L 669 351
L 671 351
L 673 351
L 675 351
L 676 351
L 678 351
L 680 351
L 682 351
L 684 351
L 686 351
L 687 351
L 689 351
L 691 351
L 693 351
L 695 351
L 697 351
L 698 351
L 700 351
L 702 351
L 704 351
L 706 351
L 708 350
L 710 351
L 711 351
L 713 350
L 715 351
L 717 351
L 719 351
L 721 351
L 722 351
L 724 351
L 726 351
L 728 351
L 730 351
L 732 351
L 734 351
L 735 351
L 737 350
L 739 351
L 741 351
L 743 351
L 745 351
L 746 351
L 748 351
L 750 351
L 752 351
L 754 351
L 756 351
L 757 350
L 759 351
L 761 351
L 763 350
L 765 351
L 767 351
L 769 350
L 770 351
L 772 351
L 774 351
L 776 351
L 778 351
L 780 351
L 781 349
L 783 351
L 785 351
L 787 351
L 789 351
L 791 351
L 793 351
L 794 351
L 796 351
L 798 351
L 800 351
L 802 351
L 804 351
L 805 351
L 807 351
L 809 351
L 811 351
L 813 351
L 815 351
L 816 351
L 818 350
L 820 351
L 822 351
L 824 351
L 826 351
L 828 351
L 829 351
L 831 350
L 833 351
L 835 351
L 837 351
L 839 351
L 840 351
L 842 351
L 844 351
L 846 351
L 848 351
L 850 351
L 852 351
L 853 351
L 855 351
L 857 351
L 859 351
L 861 351
L 863 351
L 864 351
L 866 351
L 868 351
L 870 351
L 872 351
L 874 351
L 875 351
L 877 351
L 879 351
L 881 351
L 883 351
L 885 351
L 887 351
L 888 351
L 890 351
L 892 351
L 894 351
L 896 351
L 898 351
L 899 351
L 901 351
L 903 351
L 905 351
L 907 351
L 909 351
L 911 351
L 912 351
L 914 351
L 916 351
L 918 351
L 920 351
L 922 351
L 923 351
L 925 351
L 927 351
L 929 351
L 931 351
L 933 351
L 934 351
L 936 351
L 938 351
L 940 351
L 942 351
L 944 351
L 946 351
L 947 351
L 949 351
L 951 351
L 953 351
L 955 351
L 957 351
L 958 351
L 960 351
L 962 351
L 964 351
L 966 351
L 968 351
L 969 351" style="stroke-width:1;stroke:rgba(217,0,116,1.0);fill:none"/><text x="396" y="33" style="stroke-width:0;stroke:none;fill:rgba(51,51,51,1.0);font-size:23.0px;font-family:'Roboto Medium',sans-serif">Wels-Land 15.07.2021</text><path  d="M 38 11
L 251 11
L 251 91
L 38 91
L 38 11" style="stroke-width:1;stroke:rgba(51,51,51,1.0);fill:rgba(255,255,255,1.0)"/><text x="43" y="26" style="stroke-width:0;stroke:none;fill:rgba(51,51,51,1.0);font-size:10.2px;font-family:'Roboto Medium',sans-serif">Sieben Tage Durschnitt Inzidenz Fälle</text><path  d="M 221 21
L 241 21" style="stroke-width:1;stroke:rgba(0,116,217,1.0);fill:none"/><text x="43" y="56" style="stroke-width:0;stroke:none;fill:rgba(51,51,51,1.0);font-size:10.2px;font-family:'Roboto Medium',sans-serif">Anzahl Faelle</text><path  d="M 110 51
L 241 51" style="stroke-width:1;stroke:rgba(0,217,101,1.0);fill:none"/><text x="43" y="86" style="stroke-width:0;stroke:none;fill:rgba(51,51,51,1.0);font-size:10.2px;font-family:'Roboto Medium',sans-serif">Anzahl Tot</text><path  d="M 98 81
L 241 81" style="stroke-width:1;stroke:rgba(217,0,116,1.0);fill:none"/></svg>