<svg xmlns="http://www.w3.org/2000/svg" xmlns:xlink="http://www.w3.org/1999/xlink" width="1024" height="400">\n<path  d="M 0 0
L 1024 0
L 1024 400
L 0 400
L 0 0" style="stroke-width:0;stroke:rgba(255,255,255,1.0);fill:rgba(255,255,255,1.0)"/><path  d="M 38 11
L 961 11
L 961 351
L 38 351
L 38 11" style="stroke-width:0;stroke:rgba(255,255,255,1.0);fill:rgba(255,255,255,1.0)"/><path  d="M 38 351
L 961 351" style="stroke-width:1;stroke:rgba(51,51,51,1.0);fill:none"/><path  d="M 38 351
L 38 356" style="stroke-width:1;stroke:rgba(51,51,51,1.0);fill:none"/><text x="5" y="373" style="stroke-width:0;stroke:none;fill:rgba(51,51,51,1.0);font-size:12.8px;font-family:'Roboto Medium',sans-serif">2020-02-26</text><path  d="M 154 351
L 154 356" style="stroke-width:1;stroke:rgba(51,51,51,1.0);fill:none"/><text x="121" y="373" style="stroke-width:0;stroke:none;fill:rgba(51,51,51,1.0);font-size:12.8px;font-family:'Roboto Medium',sans-serif">2020-05-18</text><path  d="M 269 351
L 269 356" style="stroke-width:1;stroke:rgba(51,51,51,1.0);fill:none"/><text x="236" y="373" style="stroke-width:0;stroke:none;fill:rgba(51,51,51,1.0);font-size:12.8px;font-family:'Roboto Medium',sans-serif">2020-08-08</text><path  d="M 385 351
L 385 356" style="stroke-width:1;stroke:rgba(51,51,51,1.0);fill:none"/><text x="352" y="373" style="stroke-width:0;stroke:none;fill:rgba(51,51,51,1.0);font-size:12.8px;font-family:'Roboto Medium',sans-serif">2020-10-29</text><path  d="M 500 351
L 500 356" style="stroke-width:1;stroke:rgba(51,51,51,1.0);fill:none"/><text x="467" y="373" style="stroke-width:0;stroke:none;fill:rgba(51,51,51,1.0);font-size:12.8px;font-family:'Roboto Medium',sans-serif">2021-01-20</text><path  d="M 615 351
L 615 356" style="stroke-width:1;stroke:rgba(51,51,51,1.0);fill:none"/><text x="582" y="373" style="stroke-width:0;stroke:none;fill:rgba(51,51,51,1.0);font-size:12.8px;font-family:'Roboto Medium',sans-serif">2021-04-12</text><path  d="M 731 351
L 731 356" style="stroke-width:1;stroke:rgba(51,51,51,1.0);fill:none"/><text x="698" y="373" style="stroke-width:0;stroke:none;fill:rgba(51,51,51,1.0);font-size:12.8px;font-family:'Roboto Medium',sans-serif">2021-07-03</text><path  d="M 846 351
L 846 356" style="stroke-width:1;stroke:rgba(51,51,51,1.0);fill:none"/><text x="813" y="373" style="stroke-width:0;stroke:none;fill:rgba(51,51,51,1.0);font-size:12.8px;font-family:'Roboto Medium',sans-serif">2021-09-23</text><path  d="M 961 351
L 961 356" style="stroke-width:1;stroke:rgba(51,51,51,1.0);fill:none"/><text x="928" y="373" style="stroke-width:0;stroke:none;fill:rgba(51,51,51,1.0);font-size:12.8px;font-family:'Roboto Medium',sans-serif">2021-12-15</text><text x="481" y="395" style="stroke-width:0;stroke:none;fill:rgba(51,51,51,1.0);font-size:12.8px;font-family:'Roboto Medium',sans-serif">Datum</text><path  d="M 962 351
L 962 11" style="stroke-width:1;stroke:rgba(51,51,51,1.0);fill:none"/><path  d="M 962 351
L 967 351" style="stroke-width:1;stroke:rgba(51,51,51,1.0);fill:none"/><text x="972" y="357" style="stroke-width:0;stroke:none;fill:rgba(51,51,51,1.0);font-size:12.8px;font-family:'Roboto Medium',sans-serif">0.00</text><path  d="M 962 307
L 967 307" style="stroke-width:1;stroke:rgba(51,51,51,1.0);fill:none"/><text x="972" y="313" style="stroke-width:0;stroke:none;fill:rgba(51,51,51,1.0);font-size:12.8px;font-family:'Roboto Medium',sans-serif">190.00</text><path  d="M 962 264
L 967 264" style="stroke-width:1;stroke:rgba(51,51,51,1.0);fill:none"/><text x="972" y="270" style="stroke-width:0;stroke:none;fill:rgba(51,51,51,1.0);font-size:12.8px;font-family:'Roboto Medium',sans-serif">380.00</text><path  d="M 962 221
L 967 221" style="stroke-width:1;stroke:rgba(51,51,51,1.0);fill:none"/><text x="972" y="227" style="stroke-width:0;stroke:none;fill:rgba(51,51,51,1.0);font-size:12.8px;font-family:'Roboto Medium',sans-serif">570.00</text><path  d="M 962 181
L 967 181" style="stroke-width:1;stroke:rgba(51,51,51,1.0);fill:none"/><text x="972" y="187" style="stroke-width:0;stroke:none;fill:rgba(51,51,51,1.0);font-size:12.8px;font-family:'Roboto Medium',sans-serif">750.00</text><path  d="M 962 137
L 967 137" style="stroke-width:1;stroke:rgba(51,51,51,1.0);fill:none"/><text x="972" y="143" style="stroke-width:0;stroke:none;fill:rgba(51,51,51,1.0);font-size:12.8px;font-family:'Roboto Medium',sans-serif">940.00</text><path  d="M 962 94
L 967 94" style="stroke-width:1;stroke:rgba(51,51,51,1.0);fill:none"/><text x="972" y="100" style="stroke-width:0;stroke:none;fill:rgba(51,51,51,1.0);font-size:12.8px;font-family:'Roboto Medium',sans-serif">1130.00</text><path  d="M 962 51
L 967 51" style="stroke-width:1;stroke:rgba(51,51,51,1.0);fill:none"/><text x="972" y="57" style="stroke-width:0;stroke:none;fill:rgba(51,51,51,1.0);font-size:12.8px;font-family:'Roboto Medium',sans-serif">1320.00</text><path  d="M 962 11
L 967 11" style="stroke-width:1;stroke:rgba(51,51,51,1.0);fill:none"/><text x="972" y="17" style="stroke-width:0;stroke:none;fill:rgba(51,51,51,1.0);font-size:12.8px;font-family:'Roboto Medium',sans-serif">1500.00</text><path  d="M 38 351
L 40 351
L 41 351
L 43 351
L 44 351
L 46 351
L 47 351
L 48 351
L 50 351
L 51 351
L 53 351
L 54 351
L 55 351
L 57 350
L 58 349
L 60 348
L 61 348
L 62 347
L 64 347
L 65 347
L 67 347
L 68 347
L 69 347
L 71 345
L 72 346
L 74 344
L 75 343
L 76 343
L 78 341
L 79 340
L 81 340
L 82 340
L 83 341
L 85 342
L 86 343
L 88 344
L 89 346
L 90 348
L 92 348
L 93 349
L 95 349
L 96 349
L 97 350
L 99 350
L 100 350
L 102 351
L 103 351
L 104 351
L 106 351
L 107 351
L 109 351
L 110 350
L 111 350
L 113 350
L 114 350
L 116 350
L 117 350
L 118 350
L 120 351
L 121 351
L 123 351
L 124 351
L 125 351
L 127 351
L 128 351
L 130 351
L 131 351
L 132 351
L 134 351
L 135 351
L 137 351
L 138 351
L 139 351
L 141 351
L 142 351
L 144 351
L 145 351
L 147 351
L 148 351
L 149 351
L 151 351
L 152 351
L 154 351
L 155 351
L 156 351
L 158 351
L 159 351
L 161 351
L 162 351
L 163 351
L 165 351
L 166 351
L 168 351
L 169 351
L 170 351
L 172 351
L 173 351
L 175 351
L 176 351
L 177 351
L 179 351
L 180 351
L 182 351
L 183 351
L 184 351
L 186 351
L 187 351
L 189 351
L 190 351
L 191 351
L 193 351
L 194 351
L 196 351
L 197 351
L 198 351
L 200 351
L 201 351
L 203 351
L 204 350
L 205 349
L 207 349
L 208 349
L 210 348
L 211 348
L 212 348
L 214 346
L 215 347
L 217 346
L 218 344
L 219 344
L 221 344
L 222 343
L 224 344
L 225 343
L 226 343
L 228 343
L 229 343
L 231 342
L 232 341
L 233 342
L 235 341
L 236 340
L 238 341
L 239 341
L 240 342
L 242 343
L 243 342
L 245 343
L 246 345
L 248 346
L 249 348
L 250 348
L 252 349
L 253 350
L 255 351
L 256 350
L 257 350
L 259 350
L 260 350
L 262 350
L 263 349
L 264 348
L 266 348
L 267 347
L 269 347
L 270 347
L 271 345
L 273 344
L 274 344
L 276 344
L 277 345
L 278 344
L 280 344
L 281 341
L 283 341
L 284 339
L 285 336
L 287 336
L 288 335
L 290 334
L 291 333
L 292 333
L 294 336
L 295 336
L 297 336
L 298 338
L 299 338
L 301 342
L 302 343
L 304 344
L 305 347
L 306 346
L 308 344
L 309 344
L 311 343
L 312 343
L 313 341
L 315 340
L 316 341
L 318 341
L 319 341
L 320 339
L 322 340
L 323 337
L 325 339
L 326 339
L 327 341
L 329 341
L 330 342
L 332 342
L 333 345
L 334 343
L 336 342
L 337 341
L 339 341
L 340 339
L 341 338
L 343 336
L 344 336
L 346 336
L 347 336
L 349 336
L 350 336
L 351 335
L 353 332
L 354 323
L 356 318
L 357 314
L 358 313
L 360 311
L 361 304
L 363 301
L 364 309
L 365 312
L 367 309
L 368 311
L 370 303
L 371 306
L 372 305
L 374 297
L 375 282
L 377 282
L 378 281
L 379 281
L 381 267
L 382 262
L 384 254
L 385 261
L 386 252
L 388 242
L 389 236
L 391 241
L 392 234
L 393 234
L 395 216
L 396 217
L 398 211
L 399 220
L 400 224
L 402 219
L 403 209
L 405 217
L 406 226
L 407 239
L 409 217
L 410 210
L 412 203
L 413 209
L 414 209
L 416 204
L 417 204
L 419 213
L 420 223
L 421 230
L 423 234
L 424 234
L 426 238
L 427 238
L 428 243
L 430 246
L 431 253
L 433 260
L 434 268
L 435 275
L 437 272
L 438 277
L 440 283
L 441 292
L 442 297
L 444 300
L 445 301
L 447 301
L 448 309
L 450 303
L 451 303
L 452 306
L 454 310
L 455 311
L 457 315
L 458 311
L 459 314
L 461 316
L 462 317
L 464 318
L 465 316
L 466 315
L 468 320
L 469 322
L 471 324
L 472 323
L 473 325
L 475 330
L 476 328
L 478 328
L 479 324
L 480 328
L 482 327
L 483 325
L 485 323
L 486 328
L 487 324
L 489 328
L 490 325
L 492 326
L 493 327
L 494 328
L 496 326
L 497 324
L 499 318
L 500 315
L 501 309
L 503 304
L 504 305
L 506 305
L 507 306
L 508 314
L 510 315
L 511 322
L 513 327
L 514 326
L 515 327
L 517 329
L 518 328
L 520 328
L 521 327
L 522 323
L 524 322
L 525 320
L 527 321
L 528 316
L 529 316
L 531 316
L 532 319
L 534 314
L 535 312
L 536 309
L 538 311
L 539 310
L 541 307
L 542 303
L 543 306
L 545 308
L 546 309
L 548 302
L 549 300
L 550 299
L 552 298
L 553 299
L 555 302
L 556 299
L 558 302
L 559 301
L 560 302
L 562 302
L 563 302
L 565 300
L 566 302
L 567 304
L 569 307
L 570 305
L 572 307
L 573 303
L 574 305
L 576 303
L 577 299
L 579 297
L 580 296
L 581 297
L 583 297
L 584 297
L 586 293
L 587 294
L 588 293
L 590 285
L 591 283
L 593 280
L 594 278
L 595 280
L 597 283
L 598 282
L 600 293
L 601 295
L 602 294
L 604 294
L 605 298
L 607 299
L 608 299
L 609 297
L 611 289
L 612 293
L 614 292
L 615 292
L 616 285
L 618 287
L 619 283
L 621 287
L 622 286
L 623 287
L 625 285
L 626 284
L 628 275
L 629 277
L 630 276
L 632 275
L 633 278
L 635 283
L 636 285
L 637 297
L 639 298
L 640 301
L 642 307
L 643 302
L 644 301
L 646 303
L 647 304
L 649 305
L 650 307
L 651 305
L 653 308
L 654 310
L 656 314
L 657 315
L 659 322
L 660 323
L 661 328
L 663 328
L 664 329
L 666 328
L 667 332
L 668 326
L 670 327
L 671 323
L 673 324
L 674 326
L 675 328
L 677 328
L 678 332
L 680 332
L 681 334
L 682 335
L 684 335
L 685 337
L 687 337
L 688 340
L 689 341
L 691 342
L 692 341
L 694 343
L 695 344
L 696 345
L 698 345
L 699 347
L 701 348
L 702 348
L 703 347
L 705 347
L 706 347
L 708 348
L 709 348
L 710 348
L 712 349
L 713 350
L 715 350
L 716 350
L 717 349
L 719 349
L 720 349
L 722 349
L 723 349
L 724 349
L 726 350
L 727 350
L 729 351
L 730 350
L 731 350
L 733 350
L 734 350
L 736 349
L 737 349
L 738 349
L 740 350
L 741 349
L 743 349
L 744 348
L 745 347
L 747 345
L 748 343
L 750 343
L 751 343
L 752 341
L 754 340
L 755 342
L 757 343
L 758 342
L 760 342
L 761 343
L 762 343
L 764 343
L 765 343
L 767 343
L 768 344
L 769 344
L 771 344
L 772 345
L 774 342
L 775 339
L 776 339
L 778 337
L 779 333
L 781 333
L 782 332
L 783 329
L 785 331
L 786 322
L 788 323
L 789 317
L 790 314
L 792 312
L 793 312
L 795 305
L 796 294
L 797 288
L 799 291
L 800 293
L 802 285
L 803 285
L 804 280
L 806 287
L 807 285
L 809 285
L 810 283
L 811 284
L 813 284
L 814 291
L 816 295
L 817 298
L 818 297
L 820 299
L 821 300
L 823 301
L 824 299
L 825 299
L 827 298
L 828 298
L 830 293
L 831 302
L 832 297
L 834 292
L 835 287
L 837 287
L 838 290
L 839 290
L 841 290
L 842 289
L 844 295
L 845 302
L 846 307
L 848 309
L 849 309
L 851 309
L 852 313
L 853 315
L 855 314
L 856 314
L 858 313
L 859 315
L 861 312
L 862 305
L 863 309
L 865 310
L 866 309
L 868 309
L 869 309
L 870 312
L 872 314
L 873 313
L 875 314
L 876 311
L 877 307
L 879 308
L 880 301
L 882 303
L 883 294
L 884 290
L 886 281
L 887 282
L 889 279
L 890 284
L 891 284
L 893 291
L 894 286
L 896 286
L 897 282
L 898 273
L 900 263
L 901 266
L 903 238
L 904 218
L 905 208
L 907 197
L 908 193
L 910 189
L 911 166
L 912 163
L 914 167
L 915 164
L 917 149
L 918 136
L 919 127
L 921 82
L 922 78
L 924 68
L 925 69
L 926 49
L 928 39
L 929 32
L 931 76
L 932 72
L 933 85
L 935 66
L 936 99
L 938 124
L 939 142
L 940 140
L 942 151
L 943 154
L 945 179
L 946 186
L 947 192
L 949 196
L 950 212
L 952 231
L 953 248
L 954 264
L 956 267
L 957 273
L 959 279
L 960 285
L 961 289" style="stroke-width:1;stroke:rgba(0,116,217,1.0);fill:none"/><path  d="M 38 351
L 40 351
L 41 351
L 43 351
L 44 351
L 46 351
L 47 351
L 48 351
L 50 351
L 51 351
L 53 351
L 54 351
L 55 351
L 57 350
L 58 350
L 60 350
L 61 350
L 62 350
L 64 351
L 65 350
L 67 350
L 68 350
L 69 350
L 71 349
L 72 351
L 74 350
L 75 350
L 76 350
L 78 349
L 79 349
L 81 349
L 82 350
L 83 350
L 85 351
L 86 351
L 88 350
L 89 351
L 90 350
L 92 350
L 93 351
L 95 351
L 96 351
L 97 351
L 99 351
L 100 351
L 102 351
L 103 351
L 104 351
L 106 351
L 107 351
L 109 351
L 110 350
L 111 351
L 113 351
L 114 351
L 116 351
L 117 351
L 118 351
L 120 351
L 121 351
L 123 351
L 124 351
L 125 351
L 127 351
L 128 351
L 130 351
L 131 351
L 132 351
L 134 351
L 135 351
L 137 351
L 138 351
L 139 351
L 141 351
L 142 351
L 144 351
L 145 351
L 147 351
L 148 351
L 149 351
L 151 351
L 152 351
L 154 351
L 155 351
L 156 351
L 158 351
L 159 351
L 161 351
L 162 351
L 163 351
L 165 351
L 166 351
L 168 351
L 169 351
L 170 351
L 172 351
L 173 351
L 175 351
L 176 351
L 177 351
L 179 351
L 180 351
L 182 351
L 183 351
L 184 351
L 186 351
L 187 351
L 189 351
L 190 351
L 191 351
L 193 351
L 194 351
L 196 351
L 197 351
L 198 351
L 200 351
L 201 351
L 203 351
L 204 350
L 205 350
L 207 350
L 208 350
L 210 350
L 211 351
L 212 351
L 214 349
L 215 351
L 217 350
L 218 349
L 219 350
L 221 351
L 222 350
L 224 350
L 225 350
L 226 350
L 228 350
L 229 349
L 231 350
L 232 349
L 233 350
L 235 349
L 236 349
L 238 350
L 239 349
L 240 351
L 242 350
L 243 350
L 245 350
L 246 351
L 248 351
L 249 351
L 250 351
L 252 351
L 253 351
L 255 351
L 256 350
L 257 351
L 259 351
L 260 351
L 262 351
L 263 350
L 264 350
L 266 350
L 267 350
L 269 351
L 270 351
L 271 350
L 273 350
L 274 350
L 276 350
L 277 350
L 278 350
L 280 351
L 281 348
L 283 349
L 284 348
L 285 348
L 287 350
L 288 349
L 290 350
L 291 348
L 292 349
L 294 350
L 295 348
L 297 350
L 298 350
L 299 350
L 301 351
L 302 350
L 304 351
L 305 350
L 306 350
L 308 349
L 309 351
L 311 350
L 312 349
L 313 350
L 315 349
L 316 350
L 318 349
L 319 351
L 320 349
L 322 350
L 323 348
L 325 350
L 326 350
L 327 350
L 329 351
L 330 350
L 332 350
L 333 350
L 334 349
L 336 349
L 337 349
L 339 350
L 340 348
L 341 349
L 343 349
L 344 349
L 346 349
L 347 349
L 349 350
L 350 348
L 351 349
L 353 347
L 354 344
L 356 346
L 357 346
L 358 349
L 360 348
L 361 345
L 363 345
L 364 348
L 365 348
L 367 344
L 368 350
L 370 343
L 371 346
L 372 345
L 374 343
L 375 339
L 377 344
L 378 350
L 379 343
L 381 337
L 382 341
L 384 338
L 385 344
L 386 338
L 388 343
L 389 339
L 391 340
L 392 337
L 393 339
L 395 333
L 396 338
L 398 340
L 399 345
L 400 342
L 402 334
L 403 333
L 405 338
L 406 344
L 407 348
L 409 331
L 410 337
L 412 330
L 413 337
L 414 337
L 416 341
L 417 348
L 419 337
L 420 343
L 421 334
L 423 339
L 424 338
L 426 343
L 427 349
L 428 340
L 430 345
L 431 339
L 433 343
L 434 343
L 435 347
L 437 347
L 438 343
L 440 349
L 441 345
L 442 347
L 444 345
L 445 347
L 447 347
L 448 349
L 450 345
L 451 345
L 452 348
L 454 348
L 455 348
L 457 349
L 458 346
L 459 347
L 461 347
L 462 349
L 464 348
L 465 347
L 466 348
L 468 349
L 469 348
L 471 348
L 472 349
L 473 349
L 475 350
L 476 347
L 478 349
L 479 346
L 480 350
L 482 348
L 483 347
L 485 349
L 486 350
L 487 347
L 489 348
L 490 348
L 492 348
L 493 348
L 494 350
L 496 348
L 497 346
L 499 344
L 500 347
L 501 344
L 503 345
L 504 350
L 506 348
L 507 347
L 508 349
L 510 347
L 511 348
L 513 348
L 514 350
L 515 349
L 517 348
L 518 348
L 520 347
L 521 348
L 522 346
L 524 349
L 525 348
L 527 349
L 528 346
L 529 347
L 531 348
L 532 348
L 534 346
L 535 346
L 536 347
L 538 347
L 539 346
L 541 346
L 542 345
L 543 348
L 545 348
L 546 347
L 548 343
L 549 345
L 550 346
L 552 345
L 553 349
L 555 350
L 556 345
L 558 344
L 559 344
L 560 347
L 562 344
L 563 349
L 565 349
L 566 346
L 567 346
L 569 346
L 570 345
L 572 346
L 573 346
L 574 350
L 576 344
L 577 344
L 579 345
L 580 344
L 581 346
L 583 347
L 584 350
L 586 342
L 587 344
L 588 344
L 590 340
L 591 345
L 593 344
L 594 349
L 595 343
L 597 346
L 598 343
L 600 347
L 601 346
L 602 344
L 604 349
L 605 346
L 607 347
L 608 343
L 609 345
L 611 341
L 612 347
L 614 348
L 615 345
L 616 343
L 618 344
L 619 343
L 621 343
L 622 346
L 623 349
L 625 344
L 626 342
L 628 339
L 629 344
L 630 343
L 632 345
L 633 351
L 635 347
L 636 344
L 637 346
L 639 345
L 640 345
L 642 349
L 643 348
L 644 346
L 646 346
L 647 346
L 649 346
L 650 347
L 651 347
L 653 350
L 654 348
L 656 348
L 657 347
L 659 350
L 660 348
L 661 351
L 663 349
L 664 348
L 666 347
L 667 350
L 668 346
L 670 349
L 671 348
L 673 350
L 674 349
L 675 349
L 677 350
L 678 348
L 680 348
L 681 349
L 682 351
L 684 349
L 685 350
L 687 350
L 688 350
L 689 349
L 691 350
L 692 350
L 694 350
L 695 351
L 696 351
L 698 350
L 699 350
L 701 351
L 702 350
L 703 350
L 705 351
L 706 351
L 708 351
L 709 350
L 710 351
L 712 351
L 713 351
L 715 351
L 716 350
L 717 350
L 719 350
L 720 351
L 722 351
L 723 351
L 724 351
L 726 351
L 727 351
L 729 351
L 730 350
L 731 351
L 733 351
L 734 350
L 736 350
L 737 351
L 738 351
L 740 351
L 741 350
L 743 350
L 744 350
L 745 349
L 747 349
L 748 350
L 750 351
L 751 350
L 752 348
L 754 350
L 755 351
L 757 350
L 758 349
L 760 351
L 761 351
L 762 349
L 764 349
L 765 350
L 767 350
L 768 350
L 769 351
L 771 351
L 772 349
L 774 348
L 775 348
L 776 350
L 778 349
L 779 348
L 781 350
L 782 349
L 783 346
L 785 349
L 786 345
L 788 350
L 789 345
L 790 348
L 792 348
L 793 346
L 795 345
L 796 338
L 797 346
L 799 346
L 800 350
L 802 342
L 803 346
L 804 341
L 806 343
L 807 344
L 809 346
L 810 349
L 811 342
L 813 346
L 814 346
L 816 345
L 817 346
L 818 345
L 820 350
L 821 343
L 823 347
L 824 345
L 825 345
L 827 345
L 828 345
L 830 347
L 831 348
L 832 344
L 834 342
L 835 342
L 837 345
L 838 347
L 839 348
L 841 348
L 842 343
L 844 346
L 845 346
L 846 348
L 848 348
L 849 348
L 851 348
L 852 345
L 853 347
L 855 345
L 856 349
L 858 348
L 859 349
L 861 346
L 862 341
L 863 349
L 865 346
L 866 348
L 868 348
L 869 349
L 870 349
L 872 343
L 873 348
L 875 347
L 876 346
L 877 345
L 879 349
L 880 344
L 882 344
L 883 343
L 884 344
L 886 341
L 887 346
L 889 346
L 890 348
L 891 344
L 893 347
L 894 341
L 896 341
L 897 343
L 898 341
L 900 341
L 901 346
L 903 330
L 904 329
L 905 334
L 907 337
L 908 338
L 910 339
L 911 331
L 912 328
L 914 331
L 915 332
L 917 328
L 918 330
L 919 333
L 921 303
L 922 326
L 924 324
L 925 333
L 926 315
L 928 324
L 929 329
L 931 330
L 932 324
L 933 333
L 935 321
L 936 336
L 938 340
L 939 340
L 940 329
L 942 331
L 943 335
L 945 336
L 946 341
L 947 343
L 949 343
L 950 338
L 952 343
L 953 346
L 954 346
L 956 343
L 957 347
L 959 346
L 960 342
L 961 345" style="stroke-width:1;stroke:rgba(0,217,101,1.0);fill:none"/><path  d="M 38 351
L 40 351
L 41 351
L 43 351
L 44 351
L 46 351
L 47 351
L 48 351
L 50 351
L 51 351
L 53 351
L 54 351
L 55 351
L 57 351
L 58 351
L 60 351
L 61 351
L 62 351
L 64 351
L 65 351
L 67 351
L 68 351
L 69 351
L 71 351
L 72 351
L 74 351
L 75 351
L 76 351
L 78 351
L 79 351
L 81 351
L 82 351
L 83 351
L 85 351
L 86 351
L 88 351
L 89 351
L 90 351
L 92 351
L 93 351
L 95 351
L 96 351
L 97 351
L 99 351
L 100 351
L 102 351
L 103 351
L 104 351
L 106 351
L 107 351
L 109 351
L 110 351
L 111 351
L 113 351
L 114 351
L 116 351
L 117 351
L 118 351
L 120 351
L 121 351
L 123 351
L 124 351
L 125 351
L 127 351
L 128 351
L 130 351
L 131 351
L 132 351
L 134 351
L 135 351
L 137 351
L 138 351
L 139 351
L 141 351
L 142 351
L 144 351
L 145 351
L 147 351
L 148 351
L 149 351
L 151 351
L 152 351
L 154 351
L 155 351
L 156 351
L 158 351
L 159 351
L 161 351
L 162 351
L 163 351
L 165 351
L 166 351
L 168 351
L 169 351
L 170 351
L 172 351
L 173 351
L 175 351
L 176 351
L 177 351
L 179 351
L 180 351
L 182 351
L 183 351
L 184 351
L 186 351
L 187 351
L 189 351
L 190 351
L 191 351
L 193 351
L 194 351
L 196 351
L 197 351
L 198 351
L 200 351
L 201 351
L 203 351
L 204 351
L 205 351
L 207 351
L 208 351
L 210 351
L 211 351
L 212 351
L 214 351
L 215 351
L 217 351
L 218 351
L 219 351
L 221 351
L 222 351
L 224 351
L 225 351
L 226 351
L 228 351
L 229 351
L 231 351
L 232 351
L 233 351
L 235 351
L 236 351
L 238 351
L 239 351
L 240 351
L 242 351
L 243 351
L 245 351
L 246 351
L 248 351
L 249 351
L 250 351
L 252 351
L 253 351
L 255 351
L 256 351
L 257 351
L 259 351
L 260 351
L 262 351
L 263 351
L 264 351
L 266 351
L 267 351
L 269 351
L 270 351
L 271 351
L 273 351
L 274 351
L 276 351
L 277 351
L 278 351
L 280 351
L 281 351
L 283 351
L 284 351
L 285 351
L 287 351
L 288 351
L 290 351
L 291 351
L 292 351
L 294 351
L 295 351
L 297 351
L 298 351
L 299 351
L 301 351
L 302 351
L 304 351
L 305 351
L 306 351
L 308 351
L 309 351
L 311 351
L 312 351
L 313 351
L 315 351
L 316 351
L 318 351
L 319 351
L 320 351
L 322 351
L 323 351
L 325 351
L 326 351
L 327 351
L 329 351
L 330 351
L 332 351
L 333 351
L 334 351
L 336 351
L 337 351
L 339 351
L 340 351
L 341 351
L 343 351
L 344 351
L 346 351
L 347 351
L 349 351
L 350 351
L 351 351
L 353 351
L 354 351
L 356 351
L 357 351
L 358 351
L 360 350
L 361 351
L 363 351
L 364 351
L 365 351
L 367 351
L 368 350
L 370 351
L 371 351
L 372 350
L 374 351
L 375 351
L 377 351
L 378 350
L 379 350
L 381 350
L 382 351
L 384 350
L 385 351
L 386 351
L 388 350
L 389 351
L 391 351
L 392 351
L 393 351
L 395 351
L 396 350
L 398 351
L 399 351
L 400 351
L 402 350
L 403 350
L 405 351
L 406 350
L 407 351
L 409 351
L 410 350
L 412 351
L 413 350
L 414 350
L 416 350
L 417 351
L 419 351
L 420 351
L 421 350
L 423 351
L 424 351
L 426 350
L 427 350
L 428 350
L 430 350
L 431 350
L 433 351
L 434 351
L 435 350
L 437 350
L 438 350
L 440 350
L 441 350
L 442 350
L 444 350
L 445 351
L 447 350
L 448 351
L 450 350
L 451 351
L 452 350
L 454 350
L 455 351
L 457 351
L 458 350
L 459 351
L 461 351
L 462 351
L 464 350
L 465 350
L 466 350
L 468 351
L 469 351
L 471 351
L 472 351
L 473 351
L 475 351
L 476 351
L 478 351
L 479 350
L 480 351
L 482 351
L 483 351
L 485 351
L 486 351
L 487 351
L 489 351
L 490 351
L 492 351
L 493 351
L 494 350
L 496 350
L 497 350
L 499 351
L 500 351
L 501 350
L 503 351
L 504 351
L 506 351
L 507 351
L 508 351
L 510 351
L 511 351
L 513 351
L 514 351
L 515 351
L 517 351
L 518 351
L 520 351
L 521 351
L 522 351
L 524 351
L 525 351
L 527 350
L 528 351
L 529 351
L 531 351
L 532 350
L 534 351
L 535 351
L 536 351
L 538 351
L 539 351
L 541 351
L 542 350
L 543 351
L 545 351
L 546 351
L 548 351
L 549 351
L 550 350
L 552 351
L 553 351
L 555 351
L 556 351
L 558 351
L 559 350
L 560 351
L 562 351
L 563 350
L 565 351
L 566 351
L 567 351
L 569 350
L 570 351
L 572 350
L 573 351
L 574 350
L 576 351
L 577 351
L 579 350
L 580 350
L 581 351
L 583 350
L 584 351
L 586 351
L 587 351
L 588 351
L 590 351
L 591 351
L 593 351
L 594 351
L 595 351
L 597 351
L 598 350
L 600 351
L 601 350
L 602 351
L 604 351
L 605 351
L 607 351
L 608 351
L 609 351
L 611 350
L 612 351
L 614 351
L 615 351
L 616 351
L 618 350
L 619 351
L 621 351
L 622 351
L 623 351
L 625 350
L 626 351
L 628 351
L 629 350
L 630 351
L 632 351
L 633 351
L 635 351
L 636 350
L 637 351
L 639 351
L 640 351
L 642 351
L 643 351
L 644 351
L 646 351
L 647 351
L 649 351
L 650 351
L 651 351
L 653 351
L 654 351
L 656 351
L 657 351
L 659 351
L 660 351
L 661 350
L 663 351
L 664 351
L 666 351
L 667 350
L 668 351
L 670 351
L 671 351
L 673 351
L 674 351
L 675 351
L 677 351
L 678 350
L 680 350
L 681 351
L 682 351
L 684 351
L 685 351
L 687 351
L 688 351
L 689 351
L 691 351
L 692 351
L 694 351
L 695 351
L 696 351
L 698 351
L 699 351
L 701 351
L 702 351
L 703 351
L 705 350
L 706 351
L 708 351
L 709 351
L 710 351
L 712 351
L 713 351
L 715 351
L 716 351
L 717 351
L 719 351
L 720 351
L 722 351
L 723 351
L 724 351
L 726 351
L 727 351
L 729 351
L 730 351
L 731 351
L 733 351
L 734 351
L 736 351
L 737 351
L 738 351
L 740 351
L 741 351
L 743 351
L 744 351
L 745 351
L 747 351
L 748 351
L 750 351
L 751 351
L 752 351
L 754 351
L 755 351
L 757 351
L 758 351
L 760 351
L 761 351
L 762 351
L 764 351
L 765 351
L 767 351
L 768 351
L 769 351
L 771 351
L 772 351
L 774 351
L 775 351
L 776 351
L 778 351
L 779 351
L 781 351
L 782 351
L 783 351
L 785 351
L 786 350
L 788 351
L 789 351
L 790 351
L 792 351
L 793 351
L 795 351
L 796 351
L 797 351
L 799 351
L 800 351
L 802 351
L 803 351
L 804 351
L 806 351
L 807 351
L 809 351
L 810 351
L 811 351
L 813 351
L 814 351
L 816 351
L 817 351
L 818 351
L 820 351
L 821 351
L 823 351
L 824 351
L 825 351
L 827 351
L 828 351
L 830 351
L 831 351
L 832 351
L 834 351
L 835 350
L 837 351
L 838 351
L 839 350
L 841 350
L 842 351
L 844 351
L 845 351
L 846 351
L 848 351
L 849 351
L 851 351
L 852 351
L 853 351
L 855 351
L 856 350
L 858 351
L 859 350
L 861 350
L 862 350
L 863 351
L 865 351
L 866 351
L 868 351
L 869 351
L 870 351
L 872 351
L 873 351
L 875 351
L 876 351
L 877 351
L 879 351
L 880 351
L 882 350
L 883 351
L 884 350
L 886 351
L 887 351
L 889 351
L 890 351
L 891 350
L 893 350
L 894 351
L 896 351
L 897 351
L 898 351
L 900 351
L 901 351
L 903 351
L 904 351
L 905 351
L 907 350
L 908 351
L 910 350
L 911 351
L 912 350
L 914 351
L 915 351
L 917 350
L 918 350
L 919 350
L 921 351
L 922 351
L 924 351
L 925 351
L 926 350
L 928 351
L 929 351
L 931 351
L 932 351
L 933 351
L 935 350
L 936 351
L 938 351
L 939 351
L 940 351
L 942 351
L 943 350
L 945 351
L 946 351
L 947 350
L 949 351
L 950 350
L 952 350
L 953 351
L 954 351
L 956 351
L 957 351
L 959 351
L 960 351
L 961 351" style="stroke-width:1;stroke:rgba(217,0,116,1.0);fill:none"/><text x="390" y="33" style="stroke-width:0;stroke:none;fill:rgba(51,51,51,1.0);font-size:23.0px;font-family:'Roboto Medium',sans-serif">Wels(Stadt) 15.12.2021</text><path  d="M 38 11
L 251 11
L 251 91
L 38 91
L 38 11" style="stroke-width:1;stroke:rgba(51,51,51,1.0);fill:rgba(255,255,255,1.0)"/><text x="43" y="26" style="stroke-width:0;stroke:none;fill:rgba(51,51,51,1.0);font-size:10.2px;font-family:'Roboto Medium',sans-serif">Sieben Tage Durschnitt Inzidenz Fälle</text><path  d="M 221 21
L 241 21" style="stroke-width:1;stroke:rgba(0,116,217,1.0);fill:none"/><text x="43" y="56" style="stroke-width:0;stroke:none;fill:rgba(51,51,51,1.0);font-size:10.2px;font-family:'Roboto Medium',sans-serif">Anzahl Faelle</text><path  d="M 110 51
L 241 51" style="stroke-width:1;stroke:rgba(0,217,101,1.0);fill:none"/><text x="43" y="86" style="stroke-width:0;stroke:none;fill:rgba(51,51,51,1.0);font-size:10.2px;font-family:'Roboto Medium',sans-serif">Anzahl Tot</text><path  d="M 98 81
L 241 81" style="stroke-width:1;stroke:rgba(217,0,116,1.0);fill:none"/></svg>