<svg xmlns="http://www.w3.org/2000/svg" xmlns:xlink="http://www.w3.org/1999/xlink" width="1024" height="400">\n<path  d="M 0 0
L 1024 0
L 1024 400
L 0 400
L 0 0" style="stroke-width:0;stroke:rgba(255,255,255,1.0);fill:rgba(255,255,255,1.0)"/><path  d="M 38 11
L 961 11
L 961 351
L 38 351
L 38 11" style="stroke-width:0;stroke:rgba(255,255,255,1.0);fill:rgba(255,255,255,1.0)"/><path  d="M 38 351
L 961 351" style="stroke-width:1;stroke:rgba(51,51,51,1.0);fill:none"/><path  d="M 38 351
L 38 356" style="stroke-width:1;stroke:rgba(51,51,51,1.0);fill:none"/><text x="5" y="373" style="stroke-width:0;stroke:none;fill:rgba(51,51,51,1.0);font-size:12.8px;font-family:'Roboto Medium',sans-serif">2020-02-26</text><path  d="M 154 351
L 154 356" style="stroke-width:1;stroke:rgba(51,51,51,1.0);fill:none"/><text x="121" y="373" style="stroke-width:0;stroke:none;fill:rgba(51,51,51,1.0);font-size:12.8px;font-family:'Roboto Medium',sans-serif">2020-06-02</text><path  d="M 269 351
L 269 356" style="stroke-width:1;stroke:rgba(51,51,51,1.0);fill:none"/><text x="236" y="373" style="stroke-width:0;stroke:none;fill:rgba(51,51,51,1.0);font-size:12.8px;font-family:'Roboto Medium',sans-serif">2020-09-07</text><path  d="M 385 351
L 385 356" style="stroke-width:1;stroke:rgba(51,51,51,1.0);fill:none"/><text x="352" y="373" style="stroke-width:0;stroke:none;fill:rgba(51,51,51,1.0);font-size:12.8px;font-family:'Roboto Medium',sans-serif">2020-12-13</text><path  d="M 500 351
L 500 356" style="stroke-width:1;stroke:rgba(51,51,51,1.0);fill:none"/><text x="467" y="373" style="stroke-width:0;stroke:none;fill:rgba(51,51,51,1.0);font-size:12.8px;font-family:'Roboto Medium',sans-serif">2021-03-20</text><path  d="M 615 351
L 615 356" style="stroke-width:1;stroke:rgba(51,51,51,1.0);fill:none"/><text x="582" y="373" style="stroke-width:0;stroke:none;fill:rgba(51,51,51,1.0);font-size:12.8px;font-family:'Roboto Medium',sans-serif">2021-06-25</text><path  d="M 731 351
L 731 356" style="stroke-width:1;stroke:rgba(51,51,51,1.0);fill:none"/><text x="698" y="373" style="stroke-width:0;stroke:none;fill:rgba(51,51,51,1.0);font-size:12.8px;font-family:'Roboto Medium',sans-serif">2021-09-30</text><path  d="M 846 351
L 846 356" style="stroke-width:1;stroke:rgba(51,51,51,1.0);fill:none"/><text x="813" y="373" style="stroke-width:0;stroke:none;fill:rgba(51,51,51,1.0);font-size:12.8px;font-family:'Roboto Medium',sans-serif">2022-01-05</text><path  d="M 961 351
L 961 356" style="stroke-width:1;stroke:rgba(51,51,51,1.0);fill:none"/><text x="928" y="373" style="stroke-width:0;stroke:none;fill:rgba(51,51,51,1.0);font-size:12.8px;font-family:'Roboto Medium',sans-serif">2022-04-13</text><text x="481" y="395" style="stroke-width:0;stroke:none;fill:rgba(51,51,51,1.0);font-size:12.8px;font-family:'Roboto Medium',sans-serif">Datum</text><path  d="M 962 351
L 962 11" style="stroke-width:1;stroke:rgba(51,51,51,1.0);fill:none"/><path  d="M 962 351
L 967 351" style="stroke-width:1;stroke:rgba(51,51,51,1.0);fill:none"/><text x="972" y="357" style="stroke-width:0;stroke:none;fill:rgba(51,51,51,1.0);font-size:12.8px;font-family:'Roboto Medium',sans-serif">0.00</text><path  d="M 962 308
L 967 308" style="stroke-width:1;stroke:rgba(51,51,51,1.0);fill:none"/><text x="972" y="314" style="stroke-width:0;stroke:none;fill:rgba(51,51,51,1.0);font-size:12.8px;font-family:'Roboto Medium',sans-serif">550.00</text><path  d="M 962 266
L 967 266" style="stroke-width:1;stroke:rgba(51,51,51,1.0);fill:none"/><text x="972" y="272" style="stroke-width:0;stroke:none;fill:rgba(51,51,51,1.0);font-size:12.8px;font-family:'Roboto Medium',sans-serif">1100.00</text><path  d="M 962 223
L 967 223" style="stroke-width:1;stroke:rgba(51,51,51,1.0);fill:none"/><text x="972" y="229" style="stroke-width:0;stroke:none;fill:rgba(51,51,51,1.0);font-size:12.8px;font-family:'Roboto Medium',sans-serif">1650.00</text><path  d="M 962 181
L 967 181" style="stroke-width:1;stroke:rgba(51,51,51,1.0);fill:none"/><text x="972" y="187" style="stroke-width:0;stroke:none;fill:rgba(51,51,51,1.0);font-size:12.8px;font-family:'Roboto Medium',sans-serif">2200.00</text><path  d="M 962 138
L 967 138" style="stroke-width:1;stroke:rgba(51,51,51,1.0);fill:none"/><text x="972" y="144" style="stroke-width:0;stroke:none;fill:rgba(51,51,51,1.0);font-size:12.8px;font-family:'Roboto Medium',sans-serif">2750.00</text><path  d="M 962 96
L 967 96" style="stroke-width:1;stroke:rgba(51,51,51,1.0);fill:none"/><text x="972" y="102" style="stroke-width:0;stroke:none;fill:rgba(51,51,51,1.0);font-size:12.8px;font-family:'Roboto Medium',sans-serif">3300.00</text><path  d="M 962 53
L 967 53" style="stroke-width:1;stroke:rgba(51,51,51,1.0);fill:none"/><text x="972" y="59" style="stroke-width:0;stroke:none;fill:rgba(51,51,51,1.0);font-size:12.8px;font-family:'Roboto Medium',sans-serif">3850.00</text><path  d="M 962 11
L 967 11" style="stroke-width:1;stroke:rgba(51,51,51,1.0);fill:none"/><text x="972" y="17" style="stroke-width:0;stroke:none;fill:rgba(51,51,51,1.0);font-size:12.8px;font-family:'Roboto Medium',sans-serif">4400.00</text><path  d="M 38 351
L 40 351
L 41 351
L 42 351
L 43 351
L 44 351
L 46 351
L 47 351
L 48 351
L 49 351
L 50 351
L 52 351
L 53 351
L 54 351
L 55 351
L 56 351
L 58 351
L 59 351
L 60 351
L 61 351
L 62 351
L 63 351
L 65 351
L 66 350
L 67 350
L 68 350
L 69 350
L 71 350
L 72 349
L 73 349
L 74 349
L 75 349
L 77 349
L 78 348
L 79 348
L 80 349
L 81 349
L 82 349
L 84 349
L 85 349
L 86 349
L 87 349
L 88 349
L 90 349
L 91 349
L 92 348
L 93 348
L 94 348
L 96 349
L 97 349
L 98 349
L 99 350
L 100 350
L 101 350
L 103 350
L 104 350
L 105 350
L 106 350
L 107 350
L 109 350
L 110 350
L 111 350
L 112 350
L 113 350
L 115 350
L 116 350
L 117 350
L 118 350
L 119 350
L 120 350
L 122 350
L 123 350
L 124 350
L 125 350
L 126 350
L 128 350
L 129 350
L 130 350
L 131 350
L 132 350
L 134 350
L 135 350
L 136 350
L 137 350
L 138 350
L 139 350
L 141 350
L 142 350
L 143 350
L 144 350
L 145 350
L 147 350
L 148 351
L 149 351
L 150 351
L 151 351
L 153 351
L 154 351
L 155 350
L 156 350
L 157 350
L 158 350
L 160 350
L 161 350
L 162 350
L 163 351
L 164 351
L 166 351
L 167 351
L 168 350
L 169 350
L 170 350
L 172 350
L 173 350
L 174 350
L 175 350
L 176 350
L 177 350
L 179 350
L 180 350
L 181 350
L 182 350
L 183 350
L 185 350
L 186 350
L 187 351
L 188 351
L 189 351
L 191 350
L 192 350
L 193 350
L 194 350
L 195 350
L 196 350
L 198 350
L 199 350
L 200 350
L 201 350
L 202 350
L 204 350
L 205 350
L 206 350
L 207 350
L 208 350
L 210 350
L 211 350
L 212 350
L 213 350
L 214 350
L 215 350
L 217 350
L 218 350
L 219 350
L 220 350
L 221 350
L 223 350
L 224 350
L 225 350
L 226 350
L 227 350
L 229 350
L 230 350
L 231 350
L 232 350
L 233 350
L 235 350
L 236 350
L 237 350
L 238 350
L 239 350
L 240 350
L 242 350
L 243 350
L 244 350
L 245 350
L 246 350
L 248 350
L 249 350
L 250 350
L 251 349
L 252 349
L 254 349
L 255 349
L 256 348
L 257 348
L 258 348
L 259 349
L 261 349
L 262 349
L 263 348
L 264 348
L 265 348
L 267 348
L 268 348
L 269 348
L 270 348
L 271 349
L 273 348
L 274 347
L 275 347
L 276 347
L 277 347
L 278 346
L 280 346
L 281 346
L 282 347
L 283 347
L 284 347
L 286 348
L 287 348
L 288 348
L 289 348
L 290 348
L 292 349
L 293 349
L 294 349
L 295 349
L 296 349
L 297 349
L 299 349
L 300 349
L 301 349
L 302 348
L 303 348
L 305 347
L 306 347
L 307 347
L 308 347
L 309 346
L 311 346
L 312 346
L 313 346
L 314 346
L 315 346
L 316 346
L 318 346
L 319 346
L 320 346
L 321 345
L 322 343
L 324 342
L 325 339
L 326 338
L 327 337
L 328 334
L 330 332
L 331 332
L 332 330
L 333 332
L 334 332
L 335 331
L 337 332
L 338 331
L 339 330
L 340 329
L 341 328
L 343 324
L 344 324
L 345 322
L 346 322
L 347 322
L 349 322
L 350 323
L 351 326
L 352 327
L 353 326
L 354 326
L 356 326
L 357 328
L 358 327
L 359 328
L 360 328
L 362 329
L 363 331
L 364 333
L 365 332
L 366 332
L 368 332
L 369 332
L 370 333
L 371 333
L 372 333
L 373 333
L 375 335
L 376 336
L 377 337
L 378 337
L 379 338
L 381 340
L 382 342
L 383 342
L 384 341
L 385 341
L 387 341
L 388 339
L 389 340
L 390 338
L 391 338
L 392 340
L 394 340
L 395 339
L 396 340
L 397 339
L 398 340
L 400 340
L 401 338
L 402 339
L 403 340
L 404 339
L 406 340
L 407 339
L 408 339
L 409 338
L 410 337
L 412 337
L 413 337
L 414 336
L 415 336
L 416 336
L 417 336
L 419 338
L 420 338
L 421 338
L 422 339
L 423 340
L 425 340
L 426 342
L 427 340
L 428 341
L 429 340
L 431 340
L 432 341
L 433 340
L 434 340
L 435 342
L 436 341
L 438 342
L 439 343
L 440 341
L 441 342
L 442 342
L 444 343
L 445 342
L 446 342
L 447 342
L 448 342
L 450 341
L 451 340
L 452 341
L 453 341
L 454 340
L 455 340
L 457 339
L 458 339
L 459 339
L 460 337
L 461 337
L 463 338
L 464 335
L 465 333
L 466 331
L 467 332
L 469 330
L 470 330
L 471 329
L 472 330
L 473 331
L 474 331
L 476 330
L 477 330
L 478 329
L 479 329
L 480 329
L 482 326
L 483 327
L 484 325
L 485 323
L 486 323
L 488 322
L 489 319
L 490 317
L 491 315
L 492 318
L 493 319
L 495 319
L 496 315
L 497 315
L 498 318
L 499 319
L 501 317
L 502 317
L 503 318
L 504 322
L 505 323
L 507 324
L 508 324
L 509 324
L 510 324
L 511 324
L 512 324
L 514 324
L 515 325
L 516 324
L 517 326
L 518 327
L 520 328
L 521 331
L 522 332
L 523 332
L 524 334
L 526 333
L 527 334
L 528 335
L 529 333
L 530 333
L 531 336
L 533 337
L 534 338
L 535 340
L 536 341
L 537 342
L 539 343
L 540 343
L 541 344
L 542 345
L 543 345
L 545 345
L 546 346
L 547 346
L 548 346
L 549 346
L 550 345
L 552 346
L 553 346
L 554 346
L 555 347
L 556 347
L 558 347
L 559 347
L 560 347
L 561 346
L 562 346
L 564 346
L 565 346
L 566 346
L 567 346
L 568 347
L 569 347
L 571 348
L 572 348
L 573 349
L 574 349
L 575 349
L 577 349
L 578 349
L 579 349
L 580 349
L 581 349
L 583 349
L 584 349
L 585 349
L 586 349
L 587 349
L 588 349
L 590 349
L 591 349
L 592 349
L 593 349
L 594 349
L 596 349
L 597 350
L 598 350
L 599 350
L 600 350
L 602 350
L 603 350
L 604 350
L 605 350
L 606 350
L 608 350
L 609 350
L 610 350
L 611 350
L 612 350
L 613 350
L 615 350
L 616 350
L 617 350
L 618 351
L 619 350
L 621 350
L 622 350
L 623 350
L 624 350
L 625 350
L 627 350
L 628 350
L 629 350
L 630 350
L 631 350
L 632 350
L 634 350
L 635 350
L 636 350
L 637 350
L 638 350
L 640 350
L 641 350
L 642 350
L 643 349
L 644 349
L 646 349
L 647 350
L 648 350
L 649 350
L 650 349
L 651 349
L 653 349
L 654 348
L 655 348
L 656 348
L 657 347
L 659 347
L 660 347
L 661 347
L 662 348
L 663 348
L 665 348
L 666 348
L 667 348
L 668 349
L 669 349
L 670 348
L 672 348
L 673 348
L 674 347
L 675 347
L 676 347
L 678 346
L 679 346
L 680 346
L 681 346
L 682 345
L 684 345
L 685 345
L 686 344
L 687 344
L 688 344
L 689 343
L 691 343
L 692 343
L 693 342
L 694 343
L 695 342
L 697 342
L 698 343
L 699 342
L 700 342
L 701 342
L 703 341
L 704 340
L 705 339
L 706 339
L 707 340
L 708 337
L 710 336
L 711 337
L 712 336
L 713 337
L 714 337
L 716 337
L 717 339
L 718 340
L 719 341
L 720 341
L 722 340
L 723 339
L 724 339
L 725 338
L 726 339
L 727 338
L 729 338
L 730 339
L 731 340
L 732 339
L 733 340
L 735 341
L 736 341
L 737 342
L 738 342
L 739 342
L 741 342
L 742 342
L 743 342
L 744 342
L 745 341
L 746 340
L 748 340
L 749 340
L 750 340
L 751 340
L 752 339
L 754 337
L 755 335
L 756 333
L 757 331
L 758 329
L 760 326
L 761 325
L 762 326
L 763 323
L 764 321
L 765 320
L 767 318
L 768 318
L 769 316
L 770 312
L 771 305
L 773 301
L 774 295
L 775 292
L 776 286
L 777 280
L 779 272
L 780 270
L 781 266
L 782 265
L 783 261
L 785 259
L 786 256
L 787 256
L 788 262
L 789 260
L 790 254
L 792 253
L 793 253
L 794 258
L 795 263
L 796 260
L 798 268
L 799 278
L 800 285
L 801 290
L 802 294
L 804 293
L 805 298
L 806 302
L 807 303
L 808 307
L 809 309
L 811 311
L 812 317
L 813 321
L 814 323
L 815 324
L 817 323
L 818 325
L 819 326
L 820 328
L 821 329
L 823 331
L 824 332
L 825 335
L 826 335
L 827 337
L 828 336
L 830 335
L 831 334
L 832 335
L 833 334
L 834 333
L 836 333
L 837 332
L 838 331
L 839 330
L 840 328
L 842 327
L 843 323
L 844 319
L 845 317
L 846 315
L 847 312
L 849 309
L 850 304
L 851 299
L 852 296
L 853 293
L 855 286
L 856 282
L 857 277
L 858 270
L 859 266
L 861 256
L 862 247
L 863 242
L 864 233
L 865 230
L 866 225
L 868 217
L 869 214
L 870 209
L 871 201
L 872 199
L 874 192
L 875 195
L 876 199
L 877 187
L 878 183
L 880 180
L 881 182
L 882 178
L 883 174
L 884 169
L 885 176
L 887 181
L 888 182
L 889 181
L 890 190
L 891 189
L 893 191
L 894 181
L 895 181
L 896 175
L 897 173
L 899 171
L 900 171
L 901 171
L 902 170
L 903 169
L 904 169
L 906 166
L 907 158
L 908 156
L 909 152
L 910 147
L 912 144
L 913 145
L 914 141
L 915 141
L 916 136
L 918 120
L 919 103
L 920 88
L 921 60
L 922 49
L 923 33
L 925 29
L 926 26
L 927 15
L 928 27
L 929 33
L 931 38
L 932 38
L 933 40
L 934 48
L 935 66
L 937 64
L 938 73
L 939 75
L 940 96
L 941 107
L 942 116
L 944 137
L 945 146
L 946 166
L 947 184
L 948 194
L 950 203
L 951 215
L 952 228
L 953 241
L 954 251
L 956 257
L 957 259
L 958 265
L 959 269
L 960 277
L 961 282" style="stroke-width:1;stroke:rgba(0,116,217,1.0);fill:none"/><path  d="M 38 351
L 40 351
L 41 351
L 42 351
L 43 351
L 44 351
L 46 351
L 47 351
L 48 351
L 49 351
L 50 351
L 52 351
L 53 351
L 54 351
L 55 351
L 56 351
L 58 351
L 59 351
L 60 351
L 61 351
L 62 351
L 63 351
L 65 351
L 66 350
L 67 350
L 68 350
L 69 351
L 71 350
L 72 350
L 73 350
L 74 350
L 75 350
L 77 350
L 78 350
L 79 350
L 80 351
L 81 350
L 82 350
L 84 351
L 85 350
L 86 350
L 87 350
L 88 350
L 90 350
L 91 350
L 92 350
L 93 351
L 94 350
L 96 350
L 97 350
L 98 351
L 99 350
L 100 350
L 101 350
L 103 350
L 104 351
L 105 351
L 106 351
L 107 351
L 109 351
L 110 350
L 111 351
L 112 351
L 113 350
L 115 351
L 116 350
L 117 351
L 118 350
L 119 351
L 120 350
L 122 350
L 123 350
L 124 350
L 125 351
L 126 351
L 128 351
L 129 351
L 130 350
L 131 351
L 132 351
L 134 350
L 135 351
L 136 350
L 137 351
L 138 351
L 139 350
L 141 351
L 142 351
L 143 351
L 144 351
L 145 351
L 147 351
L 148 351
L 149 351
L 150 351
L 151 351
L 153 351
L 154 351
L 155 350
L 156 351
L 157 351
L 158 351
L 160 351
L 161 351
L 162 351
L 163 351
L 164 351
L 166 351
L 167 351
L 168 350
L 169 351
L 170 350
L 172 351
L 173 351
L 174 351
L 175 351
L 176 350
L 177 351
L 179 350
L 180 351
L 181 351
L 182 351
L 183 351
L 185 351
L 186 351
L 187 351
L 188 351
L 189 351
L 191 350
L 192 351
L 193 351
L 194 350
L 195 351
L 196 350
L 198 351
L 199 350
L 200 350
L 201 351
L 202 350
L 204 351
L 205 350
L 206 351
L 207 350
L 208 351
L 210 350
L 211 351
L 212 350
L 213 350
L 214 351
L 215 350
L 217 351
L 218 350
L 219 351
L 220 351
L 221 351
L 223 351
L 224 350
L 225 351
L 226 351
L 227 350
L 229 351
L 230 350
L 231 350
L 232 350
L 233 351
L 235 351
L 236 350
L 237 351
L 238 350
L 239 350
L 240 351
L 242 351
L 243 350
L 244 351
L 245 350
L 246 350
L 248 351
L 249 350
L 250 350
L 251 350
L 252 350
L 254 350
L 255 350
L 256 350
L 257 350
L 258 350
L 259 350
L 261 350
L 262 350
L 263 350
L 264 350
L 265 350
L 267 350
L 268 350
L 269 350
L 270 351
L 271 350
L 273 350
L 274 349
L 275 350
L 276 350
L 277 350
L 278 350
L 280 350
L 281 350
L 282 350
L 283 350
L 284 350
L 286 351
L 287 350
L 288 350
L 289 350
L 290 350
L 292 350
L 293 350
L 294 351
L 295 350
L 296 350
L 297 350
L 299 350
L 300 350
L 301 351
L 302 350
L 303 350
L 305 350
L 306 350
L 307 350
L 308 350
L 309 350
L 311 350
L 312 350
L 313 350
L 314 350
L 315 350
L 316 350
L 318 350
L 319 350
L 320 350
L 321 349
L 322 348
L 324 349
L 325 348
L 326 349
L 327 349
L 328 348
L 330 348
L 331 348
L 332 348
L 333 349
L 334 349
L 335 348
L 337 348
L 338 347
L 339 347
L 340 347
L 341 348
L 343 346
L 344 348
L 345 347
L 346 347
L 347 347
L 349 347
L 350 349
L 351 349
L 352 348
L 353 347
L 354 347
L 356 347
L 357 349
L 358 348
L 359 349
L 360 349
L 362 348
L 363 349
L 364 348
L 365 348
L 366 348
L 368 349
L 369 349
L 370 349
L 371 349
L 372 348
L 373 348
L 375 349
L 376 350
L 377 350
L 378 349
L 379 350
L 381 350
L 382 350
L 383 349
L 384 349
L 385 349
L 387 349
L 388 349
L 389 350
L 390 349
L 391 350
L 392 350
L 394 349
L 395 348
L 396 349
L 397 349
L 398 350
L 400 349
L 401 349
L 402 349
L 403 349
L 404 349
L 406 350
L 407 349
L 408 349
L 409 348
L 410 348
L 412 349
L 413 349
L 414 350
L 415 348
L 416 350
L 417 349
L 419 349
L 420 349
L 421 349
L 422 350
L 423 350
L 425 350
L 426 350
L 427 348
L 428 349
L 429 349
L 431 350
L 432 350
L 433 350
L 434 350
L 435 349
L 436 349
L 438 349
L 439 350
L 440 349
L 441 350
L 442 350
L 444 349
L 445 349
L 446 349
L 447 349
L 448 349
L 450 349
L 451 349
L 452 350
L 453 349
L 454 348
L 455 349
L 457 349
L 458 349
L 459 349
L 460 349
L 461 349
L 463 349
L 464 347
L 465 347
L 466 348
L 467 349
L 469 348
L 470 349
L 471 348
L 472 348
L 473 348
L 474 348
L 476 348
L 477 348
L 478 348
L 479 348
L 480 348
L 482 346
L 483 348
L 484 347
L 485 346
L 486 348
L 488 346
L 489 347
L 490 344
L 491 347
L 492 349
L 493 347
L 495 348
L 496 344
L 497 346
L 498 346
L 499 348
L 501 347
L 502 347
L 503 348
L 504 347
L 505 348
L 507 347
L 508 348
L 509 347
L 510 347
L 511 348
L 512 347
L 514 348
L 515 347
L 516 347
L 517 349
L 518 348
L 520 348
L 521 350
L 522 349
L 523 347
L 524 349
L 526 349
L 527 349
L 528 349
L 529 349
L 530 349
L 531 350
L 533 349
L 534 349
L 535 350
L 536 350
L 537 349
L 539 350
L 540 350
L 541 350
L 542 350
L 543 350
L 545 350
L 546 350
L 547 350
L 548 350
L 549 350
L 550 350
L 552 350
L 553 350
L 554 350
L 555 350
L 556 350
L 558 350
L 559 350
L 560 350
L 561 350
L 562 349
L 564 350
L 565 350
L 566 350
L 567 350
L 568 350
L 569 350
L 571 350
L 572 350
L 573 351
L 574 350
L 575 350
L 577 350
L 578 350
L 579 350
L 580 350
L 581 350
L 583 350
L 584 350
L 585 350
L 586 350
L 587 351
L 588 350
L 590 351
L 591 350
L 592 350
L 593 350
L 594 350
L 596 350
L 597 351
L 598 351
L 599 351
L 600 350
L 602 350
L 603 351
L 604 351
L 605 351
L 606 350
L 608 351
L 609 351
L 610 350
L 611 351
L 612 351
L 613 351
L 615 351
L 616 351
L 617 351
L 618 351
L 619 350
L 621 351
L 622 351
L 623 351
L 624 351
L 625 351
L 627 350
L 628 350
L 629 350
L 630 350
L 631 351
L 632 351
L 634 351
L 635 351
L 636 350
L 637 350
L 638 350
L 640 351
L 641 350
L 642 350
L 643 350
L 644 350
L 646 350
L 647 350
L 648 350
L 649 350
L 650 350
L 651 350
L 653 350
L 654 350
L 655 350
L 656 350
L 657 350
L 659 350
L 660 350
L 661 350
L 662 350
L 663 351
L 665 350
L 666 350
L 667 350
L 668 350
L 669 350
L 670 350
L 672 350
L 673 350
L 674 350
L 675 350
L 676 350
L 678 350
L 679 350
L 680 350
L 681 350
L 682 349
L 684 350
L 685 350
L 686 349
L 687 350
L 688 350
L 689 349
L 691 349
L 692 350
L 693 350
L 694 349
L 695 349
L 697 350
L 698 350
L 699 349
L 700 350
L 701 350
L 703 348
L 704 349
L 705 349
L 706 349
L 707 350
L 708 348
L 710 349
L 711 349
L 712 348
L 713 350
L 714 349
L 716 350
L 717 350
L 718 349
L 719 349
L 720 349
L 722 349
L 723 349
L 724 349
L 725 349
L 726 349
L 727 349
L 729 349
L 730 349
L 731 349
L 732 349
L 733 350
L 735 350
L 736 349
L 737 350
L 738 350
L 739 349
L 741 350
L 742 350
L 743 349
L 744 349
L 745 349
L 746 349
L 748 349
L 749 350
L 750 350
L 751 349
L 752 348
L 754 347
L 755 348
L 756 347
L 757 348
L 758 348
L 760 347
L 761 347
L 762 348
L 763 346
L 764 346
L 765 347
L 767 347
L 768 347
L 769 346
L 770 344
L 771 341
L 773 342
L 774 343
L 775 344
L 776 343
L 777 341
L 779 338
L 780 339
L 781 339
L 782 341
L 783 341
L 785 341
L 786 338
L 787 339
L 788 343
L 789 338
L 790 337
L 792 340
L 793 341
L 794 342
L 795 343
L 796 342
L 798 343
L 799 346
L 800 345
L 801 345
L 802 345
L 804 342
L 805 345
L 806 346
L 807 347
L 808 348
L 809 347
L 811 346
L 812 347
L 813 348
L 814 347
L 815 348
L 817 347
L 818 349
L 819 348
L 820 348
L 821 349
L 823 349
L 824 349
L 825 349
L 826 349
L 827 348
L 828 348
L 830 348
L 831 349
L 832 349
L 833 349
L 834 349
L 836 348
L 837 347
L 838 347
L 839 348
L 840 348
L 842 347
L 843 346
L 844 345
L 845 345
L 846 346
L 847 346
L 849 345
L 850 344
L 851 342
L 852 342
L 853 343
L 855 341
L 856 342
L 857 341
L 858 338
L 859 339
L 861 334
L 862 336
L 863 337
L 864 334
L 865 339
L 866 334
L 868 333
L 869 332
L 870 332
L 871 331
L 872 333
L 874 333
L 875 337
L 876 336
L 877 323
L 878 328
L 880 329
L 881 334
L 882 330
L 883 334
L 884 332
L 885 328
L 887 332
L 888 330
L 889 334
L 890 337
L 891 334
L 893 334
L 894 320
L 895 331
L 896 326
L 897 332
L 899 335
L 900 333
L 901 334
L 902 320
L 903 330
L 904 326
L 906 330
L 907 329
L 908 332
L 909 331
L 910 315
L 912 328
L 913 327
L 914 327
L 915 329
L 916 327
L 918 318
L 919 302
L 920 316
L 921 305
L 922 318
L 923 316
L 925 324
L 926 316
L 927 293
L 928 325
L 929 309
L 931 322
L 932 316
L 933 326
L 934 322
L 935 308
L 937 324
L 938 316
L 939 324
L 940 333
L 941 334
L 942 329
L 944 325
L 945 331
L 946 332
L 947 338
L 948 341
L 950 340
L 951 339
L 952 336
L 953 341
L 954 339
L 956 343
L 957 343
L 958 345
L 959 343
L 960 342
L 961 344" style="stroke-width:1;stroke:rgba(0,217,101,1.0);fill:none"/><path  d="M 38 351
L 40 351
L 41 351
L 42 351
L 43 351
L 44 351
L 46 351
L 47 351
L 48 351
L 49 351
L 50 351
L 52 351
L 53 351
L 54 351
L 55 351
L 56 351
L 58 351
L 59 351
L 60 351
L 61 351
L 62 351
L 63 351
L 65 351
L 66 351
L 67 351
L 68 351
L 69 351
L 71 351
L 72 351
L 73 351
L 74 351
L 75 351
L 77 351
L 78 351
L 79 351
L 80 351
L 81 351
L 82 351
L 84 351
L 85 351
L 86 351
L 87 351
L 88 350
L 90 351
L 91 351
L 92 350
L 93 351
L 94 351
L 96 350
L 97 351
L 98 351
L 99 351
L 100 351
L 101 351
L 103 351
L 104 351
L 105 350
L 106 351
L 107 351
L 109 350
L 110 351
L 111 351
L 112 351
L 113 351
L 115 351
L 116 351
L 117 351
L 118 351
L 119 351
L 120 351
L 122 351
L 123 351
L 124 351
L 125 351
L 126 351
L 128 351
L 129 351
L 130 351
L 131 351
L 132 351
L 134 351
L 135 351
L 136 351
L 137 351
L 138 351
L 139 351
L 141 351
L 142 351
L 143 351
L 144 351
L 145 351
L 147 351
L 148 351
L 149 351
L 150 351
L 151 351
L 153 351
L 154 351
L 155 351
L 156 351
L 157 351
L 158 351
L 160 351
L 161 351
L 162 351
L 163 351
L 164 351
L 166 351
L 167 351
L 168 351
L 169 351
L 170 351
L 172 351
L 173 351
L 174 351
L 175 351
L 176 351
L 177 351
L 179 351
L 180 351
L 181 351
L 182 351
L 183 351
L 185 351
L 186 351
L 187 351
L 188 351
L 189 351
L 191 351
L 192 351
L 193 351
L 194 351
L 195 351
L 196 351
L 198 351
L 199 351
L 200 351
L 201 351
L 202 351
L 204 351
L 205 351
L 206 351
L 207 351
L 208 351
L 210 351
L 211 351
L 212 351
L 213 351
L 214 351
L 215 351
L 217 351
L 218 351
L 219 351
L 220 351
L 221 351
L 223 351
L 224 351
L 225 351
L 226 351
L 227 351
L 229 351
L 230 351
L 231 351
L 232 351
L 233 351
L 235 351
L 236 351
L 237 351
L 238 351
L 239 351
L 240 351
L 242 351
L 243 351
L 244 351
L 245 351
L 246 351
L 248 351
L 249 351
L 250 351
L 251 351
L 252 351
L 254 351
L 255 351
L 256 351
L 257 351
L 258 351
L 259 351
L 261 351
L 262 351
L 263 351
L 264 351
L 265 351
L 267 351
L 268 351
L 269 351
L 270 351
L 271 351
L 273 351
L 274 351
L 275 351
L 276 351
L 277 351
L 278 351
L 280 351
L 281 351
L 282 351
L 283 351
L 284 351
L 286 351
L 287 350
L 288 351
L 289 351
L 290 351
L 292 351
L 293 351
L 294 350
L 295 351
L 296 351
L 297 351
L 299 351
L 300 351
L 301 351
L 302 350
L 303 351
L 305 351
L 306 351
L 307 351
L 308 351
L 309 351
L 311 351
L 312 351
L 313 350
L 314 351
L 315 351
L 316 351
L 318 351
L 319 351
L 320 351
L 321 351
L 322 351
L 324 351
L 325 351
L 326 351
L 327 351
L 328 351
L 330 351
L 331 351
L 332 350
L 333 351
L 334 351
L 335 351
L 337 351
L 338 351
L 339 350
L 340 351
L 341 351
L 343 350
L 344 351
L 345 350
L 346 351
L 347 350
L 349 351
L 350 351
L 351 351
L 352 351
L 353 351
L 354 350
L 356 350
L 357 350
L 358 351
L 359 350
L 360 351
L 362 350
L 363 350
L 364 351
L 365 351
L 366 350
L 368 350
L 369 350
L 370 351
L 371 351
L 372 351
L 373 351
L 375 351
L 376 351
L 377 351
L 378 351
L 379 351
L 381 351
L 382 351
L 383 351
L 384 351
L 385 350
L 387 351
L 388 351
L 389 350
L 390 351
L 391 351
L 392 350
L 394 350
L 395 351
L 396 351
L 397 351
L 398 351
L 400 351
L 401 351
L 402 351
L 403 351
L 404 351
L 406 351
L 407 351
L 408 350
L 409 350
L 410 351
L 412 351
L 413 351
L 414 350
L 415 350
L 416 350
L 417 350
L 419 350
L 420 350
L 421 350
L 422 350
L 423 350
L 425 350
L 426 351
L 427 350
L 428 351
L 429 350
L 431 350
L 432 351
L 433 350
L 434 351
L 435 351
L 436 350
L 438 350
L 439 350
L 440 351
L 441 351
L 442 351
L 444 351
L 445 350
L 446 351
L 447 351
L 448 351
L 450 350
L 451 351
L 452 350
L 453 350
L 454 351
L 455 351
L 457 351
L 458 351
L 459 351
L 460 351
L 461 351
L 463 351
L 464 351
L 465 351
L 466 351
L 467 351
L 469 350
L 470 351
L 471 350
L 472 350
L 473 351
L 474 350
L 476 351
L 477 351
L 478 350
L 479 351
L 480 350
L 482 351
L 483 350
L 484 350
L 485 351
L 486 351
L 488 350
L 489 351
L 490 351
L 491 350
L 492 351
L 493 350
L 495 350
L 496 351
L 497 350
L 498 350
L 499 351
L 501 350
L 502 351
L 503 351
L 504 350
L 505 350
L 507 350
L 508 351
L 509 350
L 510 351
L 511 350
L 512 350
L 514 351
L 515 350
L 516 351
L 517 351
L 518 351
L 520 351
L 521 350
L 522 350
L 523 350
L 524 350
L 526 351
L 527 351
L 528 350
L 529 351
L 530 351
L 531 351
L 533 351
L 534 351
L 535 351
L 536 351
L 537 351
L 539 351
L 540 351
L 541 350
L 542 351
L 543 350
L 545 351
L 546 350
L 547 351
L 548 351
L 549 351
L 550 351
L 552 351
L 553 351
L 554 351
L 555 351
L 556 350
L 558 351
L 559 350
L 560 351
L 561 351
L 562 351
L 564 351
L 565 351
L 566 351
L 567 351
L 568 351
L 569 351
L 571 351
L 572 351
L 573 351
L 574 350
L 575 351
L 577 351
L 578 351
L 579 351
L 580 351
L 581 351
L 583 351
L 584 351
L 585 351
L 586 351
L 587 351
L 588 351
L 590 351
L 591 351
L 592 351
L 593 351
L 594 350
L 596 351
L 597 351
L 598 351
L 599 351
L 600 351
L 602 351
L 603 351
L 604 351
L 605 351
L 606 351
L 608 351
L 609 351
L 610 351
L 611 351
L 612 351
L 613 351
L 615 351
L 616 351
L 617 351
L 618 351
L 619 351
L 621 351
L 622 351
L 623 351
L 624 351
L 625 351
L 627 351
L 628 351
L 629 351
L 630 351
L 631 351
L 632 351
L 634 351
L 635 351
L 636 351
L 637 351
L 638 351
L 640 351
L 641 351
L 642 351
L 643 351
L 644 351
L 646 351
L 647 351
L 648 351
L 649 351
L 650 351
L 651 351
L 653 351
L 654 351
L 655 351
L 656 351
L 657 351
L 659 351
L 660 351
L 661 351
L 662 351
L 663 351
L 665 351
L 666 351
L 667 351
L 668 351
L 669 351
L 670 351
L 672 351
L 673 351
L 674 351
L 675 351
L 676 351
L 678 351
L 679 351
L 680 351
L 681 351
L 682 351
L 684 351
L 685 351
L 686 351
L 687 351
L 688 351
L 689 351
L 691 351
L 692 351
L 693 351
L 694 351
L 695 351
L 697 351
L 698 351
L 699 351
L 700 351
L 701 351
L 703 351
L 704 351
L 705 351
L 706 351
L 707 351
L 708 351
L 710 351
L 711 351
L 712 351
L 713 351
L 714 351
L 716 351
L 717 351
L 718 351
L 719 351
L 720 351
L 722 351
L 723 351
L 724 351
L 725 351
L 726 351
L 727 351
L 729 351
L 730 351
L 731 351
L 732 351
L 733 351
L 735 351
L 736 351
L 737 351
L 738 351
L 739 351
L 741 351
L 742 351
L 743 351
L 744 350
L 745 351
L 746 351
L 748 351
L 749 351
L 750 350
L 751 351
L 752 351
L 754 351
L 755 351
L 756 351
L 757 351
L 758 350
L 760 351
L 761 351
L 762 351
L 763 350
L 764 351
L 765 350
L 767 351
L 768 351
L 769 350
L 770 351
L 771 350
L 773 351
L 774 350
L 775 351
L 776 350
L 777 350
L 779 351
L 780 350
L 781 351
L 782 350
L 783 350
L 785 350
L 786 350
L 787 350
L 788 351
L 789 350
L 790 351
L 792 350
L 793 350
L 794 350
L 795 351
L 796 350
L 798 351
L 799 351
L 800 350
L 801 350
L 802 351
L 804 351
L 805 351
L 806 351
L 807 351
L 808 350
L 809 351
L 811 350
L 812 351
L 813 350
L 814 350
L 815 350
L 817 350
L 818 351
L 819 351
L 820 351
L 821 351
L 823 351
L 824 351
L 825 351
L 826 350
L 827 350
L 828 351
L 830 351
L 831 351
L 832 351
L 833 351
L 834 350
L 836 351
L 837 351
L 838 351
L 839 351
L 840 351
L 842 351
L 843 351
L 844 350
L 845 351
L 846 351
L 847 351
L 849 350
L 850 351
L 851 351
L 852 350
L 853 351
L 855 351
L 856 351
L 857 350
L 858 351
L 859 351
L 861 351
L 862 351
L 863 351
L 864 351
L 865 350
L 866 351
L 868 351
L 869 351
L 870 351
L 871 351
L 872 351
L 874 350
L 875 350
L 876 351
L 877 351
L 878 351
L 880 351
L 881 351
L 882 351
L 883 350
L 884 351
L 885 351
L 887 351
L 888 350
L 889 351
L 890 351
L 891 351
L 893 351
L 894 351
L 895 350
L 896 351
L 897 351
L 899 351
L 900 351
L 901 350
L 902 351
L 903 351
L 904 350
L 906 350
L 907 350
L 908 351
L 909 351
L 910 351
L 912 350
L 913 350
L 914 350
L 915 351
L 916 351
L 918 351
L 919 351
L 920 351
L 921 351
L 922 351
L 923 351
L 925 351
L 926 351
L 927 350
L 928 351
L 929 351
L 931 350
L 932 351
L 933 351
L 934 351
L 935 350
L 937 350
L 938 351
L 939 351
L 940 351
L 941 351
L 942 351
L 944 350
L 945 351
L 946 351
L 947 351
L 948 351
L 950 351
L 951 351
L 952 350
L 953 350
L 954 351
L 956 351
L 957 350
L 958 351
L 959 351
L 960 351
L 961 351" style="stroke-width:1;stroke:rgba(217,0,116,1.0);fill:none"/><text x="331" y="33" style="stroke-width:0;stroke:none;fill:rgba(51,51,51,1.0);font-size:23.0px;font-family:'Roboto Medium',sans-serif">Wiener Neustadt(Land) 13.04.2022</text><path  d="M 38 11
L 251 11
L 251 91
L 38 91
L 38 11" style="stroke-width:1;stroke:rgba(51,51,51,1.0);fill:rgba(255,255,255,1.0)"/><text x="43" y="26" style="stroke-width:0;stroke:none;fill:rgba(51,51,51,1.0);font-size:10.2px;font-family:'Roboto Medium',sans-serif">Sieben Tage Durschnitt Inzidenz Fälle</text><path  d="M 221 21
L 241 21" style="stroke-width:1;stroke:rgba(0,116,217,1.0);fill:none"/><text x="43" y="56" style="stroke-width:0;stroke:none;fill:rgba(51,51,51,1.0);font-size:10.2px;font-family:'Roboto Medium',sans-serif">Anzahl Faelle</text><path  d="M 110 51
L 241 51" style="stroke-width:1;stroke:rgba(0,217,101,1.0);fill:none"/><text x="43" y="86" style="stroke-width:0;stroke:none;fill:rgba(51,51,51,1.0);font-size:10.2px;font-family:'Roboto Medium',sans-serif">Anzahl Tot</text><path  d="M 98 81
L 241 81" style="stroke-width:1;stroke:rgba(217,0,116,1.0);fill:none"/></svg>