<svg xmlns="http://www.w3.org/2000/svg" xmlns:xlink="http://www.w3.org/1999/xlink" width="1024" height="400">\n<path  d="M 0 0
L 1024 0
L 1024 400
L 0 400
L 0 0" style="stroke-width:0;stroke:rgba(255,255,255,1.0);fill:rgba(255,255,255,1.0)"/><path  d="M 38 11
L 954 11
L 954 351
L 38 351
L 38 11" style="stroke-width:0;stroke:rgba(255,255,255,1.0);fill:rgba(255,255,255,1.0)"/><path  d="M 38 351
L 954 351" style="stroke-width:1;stroke:rgba(51,51,51,1.0);fill:none"/><path  d="M 38 351
L 38 356" style="stroke-width:1;stroke:rgba(51,51,51,1.0);fill:none"/><text x="5" y="373" style="stroke-width:0;stroke:none;fill:rgba(51,51,51,1.0);font-size:12.8px;font-family:'Roboto Medium',sans-serif">2020-02-26</text><path  d="M 153 351
L 153 356" style="stroke-width:1;stroke:rgba(51,51,51,1.0);fill:none"/><text x="120" y="373" style="stroke-width:0;stroke:none;fill:rgba(51,51,51,1.0);font-size:12.8px;font-family:'Roboto Medium',sans-serif">2020-06-13</text><path  d="M 267 351
L 267 356" style="stroke-width:1;stroke:rgba(51,51,51,1.0);fill:none"/><text x="234" y="373" style="stroke-width:0;stroke:none;fill:rgba(51,51,51,1.0);font-size:12.8px;font-family:'Roboto Medium',sans-serif">2020-09-29</text><path  d="M 382 351
L 382 356" style="stroke-width:1;stroke:rgba(51,51,51,1.0);fill:none"/><text x="349" y="373" style="stroke-width:0;stroke:none;fill:rgba(51,51,51,1.0);font-size:12.8px;font-family:'Roboto Medium',sans-serif">2021-01-15</text><path  d="M 496 351
L 496 356" style="stroke-width:1;stroke:rgba(51,51,51,1.0);fill:none"/><text x="463" y="373" style="stroke-width:0;stroke:none;fill:rgba(51,51,51,1.0);font-size:12.8px;font-family:'Roboto Medium',sans-serif">2021-05-03</text><path  d="M 611 351
L 611 356" style="stroke-width:1;stroke:rgba(51,51,51,1.0);fill:none"/><text x="578" y="373" style="stroke-width:0;stroke:none;fill:rgba(51,51,51,1.0);font-size:12.8px;font-family:'Roboto Medium',sans-serif">2021-08-19</text><path  d="M 725 351
L 725 356" style="stroke-width:1;stroke:rgba(51,51,51,1.0);fill:none"/><text x="692" y="373" style="stroke-width:0;stroke:none;fill:rgba(51,51,51,1.0);font-size:12.8px;font-family:'Roboto Medium',sans-serif">2021-12-05</text><path  d="M 840 351
L 840 356" style="stroke-width:1;stroke:rgba(51,51,51,1.0);fill:none"/><text x="807" y="373" style="stroke-width:0;stroke:none;fill:rgba(51,51,51,1.0);font-size:12.8px;font-family:'Roboto Medium',sans-serif">2022-03-23</text><path  d="M 954 351
L 954 356" style="stroke-width:1;stroke:rgba(51,51,51,1.0);fill:none"/><text x="921" y="373" style="stroke-width:0;stroke:none;fill:rgba(51,51,51,1.0);font-size:12.8px;font-family:'Roboto Medium',sans-serif">2022-07-09</text><text x="477" y="395" style="stroke-width:0;stroke:none;fill:rgba(51,51,51,1.0);font-size:12.8px;font-family:'Roboto Medium',sans-serif">Datum</text><path  d="M 955 351
L 955 11" style="stroke-width:1;stroke:rgba(51,51,51,1.0);fill:none"/><path  d="M 955 351
L 960 351" style="stroke-width:1;stroke:rgba(51,51,51,1.0);fill:none"/><text x="965" y="357" style="stroke-width:0;stroke:none;fill:rgba(51,51,51,1.0);font-size:12.8px;font-family:'Roboto Medium',sans-serif">0.00</text><path  d="M 955 307
L 960 307" style="stroke-width:1;stroke:rgba(51,51,51,1.0);fill:none"/><text x="965" y="313" style="stroke-width:0;stroke:none;fill:rgba(51,51,51,1.0);font-size:12.8px;font-family:'Roboto Medium',sans-serif">1800.00</text><path  d="M 955 266
L 960 266" style="stroke-width:1;stroke:rgba(51,51,51,1.0);fill:none"/><text x="965" y="272" style="stroke-width:0;stroke:none;fill:rgba(51,51,51,1.0);font-size:12.8px;font-family:'Roboto Medium',sans-serif">3500.00</text><path  d="M 955 222
L 960 222" style="stroke-width:1;stroke:rgba(51,51,51,1.0);fill:none"/><text x="965" y="228" style="stroke-width:0;stroke:none;fill:rgba(51,51,51,1.0);font-size:12.8px;font-family:'Roboto Medium',sans-serif">5300.00</text><path  d="M 955 181
L 960 181" style="stroke-width:1;stroke:rgba(51,51,51,1.0);fill:none"/><text x="965" y="187" style="stroke-width:0;stroke:none;fill:rgba(51,51,51,1.0);font-size:12.8px;font-family:'Roboto Medium',sans-serif">7000.00</text><path  d="M 955 137
L 960 137" style="stroke-width:1;stroke:rgba(51,51,51,1.0);fill:none"/><text x="965" y="143" style="stroke-width:0;stroke:none;fill:rgba(51,51,51,1.0);font-size:12.8px;font-family:'Roboto Medium',sans-serif">8800.00</text><path  d="M 955 96
L 960 96" style="stroke-width:1;stroke:rgba(51,51,51,1.0);fill:none"/><text x="965" y="102" style="stroke-width:0;stroke:none;fill:rgba(51,51,51,1.0);font-size:12.8px;font-family:'Roboto Medium',sans-serif">10500.00</text><path  d="M 955 52
L 960 52" style="stroke-width:1;stroke:rgba(51,51,51,1.0);fill:none"/><text x="965" y="58" style="stroke-width:0;stroke:none;fill:rgba(51,51,51,1.0);font-size:12.8px;font-family:'Roboto Medium',sans-serif">12300.00</text><path  d="M 955 11
L 960 11" style="stroke-width:1;stroke:rgba(51,51,51,1.0);fill:none"/><text x="965" y="17" style="stroke-width:0;stroke:none;fill:rgba(51,51,51,1.0);font-size:12.8px;font-family:'Roboto Medium',sans-serif">14000.00</text><path  d="M 38 350
L 40 350
L 41 350
L 42 350
L 43 350
L 44 350
L 45 350
L 46 350
L 47 350
L 48 350
L 49 350
L 50 350
L 51 350
L 52 350
L 53 350
L 54 350
L 55 350
L 57 350
L 58 350
L 59 350
L 60 350
L 61 350
L 62 350
L 63 350
L 64 350
L 65 350
L 66 350
L 67 350
L 68 350
L 69 350
L 70 350
L 71 350
L 72 350
L 73 350
L 75 350
L 76 349
L 77 350
L 78 350
L 79 350
L 80 350
L 81 350
L 82 350
L 83 350
L 84 350
L 85 350
L 86 350
L 87 350
L 88 350
L 89 350
L 90 350
L 92 350
L 93 350
L 94 350
L 95 350
L 96 350
L 97 350
L 98 350
L 99 350
L 100 350
L 101 350
L 102 350
L 103 350
L 104 350
L 105 350
L 106 350
L 107 350
L 108 350
L 110 350
L 111 350
L 112 350
L 113 350
L 114 350
L 115 350
L 116 350
L 117 350
L 118 350
L 119 350
L 120 350
L 121 350
L 122 350
L 123 350
L 124 350
L 125 350
L 126 350
L 128 350
L 129 350
L 130 350
L 131 350
L 132 350
L 133 350
L 134 350
L 135 350
L 136 350
L 137 350
L 138 350
L 139 350
L 140 350
L 141 350
L 142 350
L 143 350
L 145 350
L 146 350
L 147 350
L 148 350
L 149 350
L 150 350
L 151 350
L 152 350
L 153 350
L 154 350
L 155 350
L 156 350
L 157 350
L 158 350
L 159 350
L 160 350
L 161 350
L 163 350
L 164 350
L 165 350
L 166 350
L 167 350
L 168 350
L 169 350
L 170 350
L 171 350
L 172 350
L 173 350
L 174 350
L 175 350
L 176 350
L 177 350
L 178 350
L 180 350
L 181 350
L 182 350
L 183 350
L 184 350
L 185 350
L 186 350
L 187 350
L 188 350
L 189 350
L 190 350
L 191 350
L 192 350
L 193 350
L 194 350
L 195 350
L 196 350
L 198 350
L 199 350
L 200 350
L 201 350
L 202 350
L 203 350
L 204 350
L 205 350
L 206 350
L 207 350
L 208 350
L 209 350
L 210 350
L 211 350
L 212 350
L 213 350
L 214 350
L 216 350
L 217 350
L 218 350
L 219 350
L 220 350
L 221 350
L 222 350
L 223 350
L 224 350
L 225 349
L 226 349
L 227 349
L 228 349
L 229 349
L 230 349
L 231 349
L 233 349
L 234 349
L 235 349
L 236 349
L 237 349
L 238 349
L 239 349
L 240 349
L 241 349
L 242 349
L 243 349
L 244 349
L 245 349
L 246 349
L 247 348
L 248 348
L 249 348
L 251 348
L 252 348
L 253 348
L 254 348
L 255 348
L 256 348
L 257 348
L 258 348
L 259 348
L 260 348
L 261 348
L 262 348
L 263 348
L 264 348
L 265 348
L 266 348
L 267 348
L 269 348
L 270 348
L 271 347
L 272 348
L 273 347
L 274 347
L 275 347
L 276 347
L 277 347
L 278 347
L 279 347
L 280 347
L 281 347
L 282 347
L 283 347
L 284 347
L 286 347
L 287 347
L 288 347
L 289 347
L 290 347
L 291 347
L 292 346
L 293 346
L 294 345
L 295 345
L 296 345
L 297 344
L 298 344
L 299 344
L 300 343
L 301 343
L 302 342
L 304 342
L 305 342
L 306 342
L 307 342
L 308 342
L 309 343
L 310 343
L 311 342
L 312 342
L 313 341
L 314 341
L 315 340
L 316 340
L 317 340
L 318 341
L 319 341
L 321 342
L 322 342
L 323 342
L 324 343
L 325 343
L 326 343
L 327 343
L 328 344
L 329 344
L 330 345
L 331 345
L 332 345
L 333 345
L 334 345
L 335 346
L 336 346
L 337 346
L 339 346
L 340 346
L 341 346
L 342 346
L 343 346
L 344 346
L 345 346
L 346 346
L 347 346
L 348 347
L 349 347
L 350 347
L 351 347
L 352 347
L 353 347
L 354 347
L 355 347
L 357 348
L 358 348
L 359 348
L 360 348
L 361 348
L 362 348
L 363 348
L 364 348
L 365 348
L 366 348
L 367 348
L 368 348
L 369 348
L 370 348
L 371 348
L 372 348
L 374 348
L 375 348
L 376 347
L 377 347
L 378 347
L 379 348
L 380 348
L 381 348
L 382 348
L 383 348
L 384 348
L 385 348
L 386 348
L 387 348
L 388 348
L 389 348
L 390 348
L 392 348
L 393 348
L 394 348
L 395 348
L 396 348
L 397 348
L 398 348
L 399 348
L 400 348
L 401 348
L 402 348
L 403 348
L 404 348
L 405 348
L 406 348
L 407 348
L 409 348
L 410 348
L 411 348
L 412 348
L 413 348
L 414 348
L 415 348
L 416 348
L 417 348
L 418 348
L 419 347
L 420 347
L 421 347
L 422 347
L 423 347
L 424 347
L 425 347
L 427 346
L 428 346
L 429 346
L 430 346
L 431 346
L 432 346
L 433 346
L 434 346
L 435 346
L 436 345
L 437 345
L 438 345
L 439 345
L 440 345
L 441 344
L 442 345
L 443 345
L 445 344
L 446 344
L 447 344
L 448 344
L 449 344
L 450 343
L 451 343
L 452 343
L 453 343
L 454 343
L 455 343
L 456 343
L 457 343
L 458 343
L 459 343
L 460 343
L 462 343
L 463 343
L 464 343
L 465 343
L 466 343
L 467 343
L 468 344
L 469 344
L 470 344
L 471 344
L 472 344
L 473 344
L 474 344
L 475 344
L 476 345
L 477 344
L 478 345
L 480 345
L 481 345
L 482 345
L 483 345
L 484 345
L 485 346
L 486 346
L 487 346
L 488 346
L 489 346
L 490 346
L 491 347
L 492 347
L 493 347
L 494 347
L 495 347
L 496 347
L 498 347
L 499 348
L 500 348
L 501 348
L 502 348
L 503 348
L 504 348
L 505 349
L 506 349
L 507 349
L 508 349
L 509 349
L 510 349
L 511 349
L 512 349
L 513 349
L 515 349
L 516 349
L 517 349
L 518 349
L 519 349
L 520 350
L 521 350
L 522 350
L 523 350
L 524 350
L 525 350
L 526 350
L 527 350
L 528 350
L 529 350
L 530 350
L 531 350
L 533 350
L 534 350
L 535 350
L 536 350
L 537 350
L 538 350
L 539 350
L 540 350
L 541 350
L 542 350
L 543 350
L 544 350
L 545 350
L 546 350
L 547 350
L 548 350
L 550 350
L 551 350
L 552 350
L 553 350
L 554 350
L 555 350
L 556 350
L 557 350
L 558 350
L 559 350
L 560 350
L 561 350
L 562 350
L 563 350
L 564 350
L 565 350
L 566 350
L 568 350
L 569 350
L 570 350
L 571 350
L 572 350
L 573 350
L 574 350
L 575 350
L 576 350
L 577 350
L 578 350
L 579 350
L 580 350
L 581 350
L 582 350
L 583 350
L 584 350
L 586 350
L 587 350
L 588 349
L 589 349
L 590 349
L 591 349
L 592 349
L 593 349
L 594 349
L 595 349
L 596 349
L 597 349
L 598 349
L 599 349
L 600 349
L 601 349
L 603 349
L 604 349
L 605 349
L 606 349
L 607 348
L 608 348
L 609 348
L 610 348
L 611 348
L 612 348
L 613 348
L 614 348
L 615 348
L 616 347
L 617 347
L 618 347
L 619 347
L 621 347
L 622 347
L 623 347
L 624 347
L 625 347
L 626 347
L 627 347
L 628 346
L 629 346
L 630 346
L 631 346
L 632 346
L 633 345
L 634 345
L 635 345
L 636 345
L 638 345
L 639 345
L 640 345
L 641 345
L 642 345
L 643 345
L 644 345
L 645 346
L 646 346
L 647 346
L 648 346
L 649 346
L 650 346
L 651 346
L 652 346
L 653 346
L 654 346
L 656 347
L 657 347
L 658 347
L 659 347
L 660 347
L 661 347
L 662 347
L 663 347
L 664 347
L 665 347
L 666 347
L 667 347
L 668 347
L 669 348
L 670 347
L 671 347
L 672 347
L 674 347
L 675 347
L 676 347
L 677 347
L 678 347
L 679 346
L 680 346
L 681 346
L 682 346
L 683 346
L 684 346
L 685 346
L 686 345
L 687 345
L 688 345
L 689 345
L 691 344
L 692 343
L 693 343
L 694 342
L 695 342
L 696 341
L 697 341
L 698 340
L 699 340
L 700 340
L 701 340
L 702 339
L 703 339
L 704 339
L 705 338
L 706 338
L 707 336
L 709 336
L 710 336
L 711 336
L 712 336
L 713 336
L 714 336
L 715 337
L 716 338
L 717 338
L 718 339
L 719 339
L 720 340
L 721 340
L 722 341
L 723 342
L 724 342
L 725 342
L 727 343
L 728 343
L 729 344
L 730 345
L 731 344
L 732 345
L 733 345
L 734 345
L 735 345
L 736 345
L 737 345
L 738 346
L 739 346
L 740 346
L 741 346
L 742 347
L 744 347
L 745 347
L 746 346
L 747 346
L 748 346
L 749 346
L 750 345
L 751 345
L 752 344
L 753 343
L 754 343
L 755 342
L 756 341
L 757 338
L 758 337
L 759 335
L 760 334
L 762 331
L 763 328
L 764 326
L 765 323
L 766 320
L 767 317
L 768 313
L 769 312
L 770 310
L 771 309
L 772 304
L 773 301
L 774 297
L 775 295
L 776 292
L 777 289
L 779 287
L 780 285
L 781 283
L 782 282
L 783 280
L 784 280
L 785 280
L 786 281
L 787 281
L 788 282
L 789 284
L 790 287
L 791 288
L 792 290
L 793 290
L 794 294
L 795 295
L 797 297
L 798 298
L 799 299
L 800 299
L 801 299
L 802 297
L 803 298
L 804 297
L 805 297
L 806 298
L 807 299
L 808 301
L 809 303
L 810 303
L 811 304
L 812 305
L 813 305
L 815 306
L 816 305
L 817 304
L 818 304
L 819 304
L 820 304
L 821 302
L 822 301
L 823 300
L 824 298
L 825 294
L 826 290
L 827 288
L 828 286
L 829 284
L 830 282
L 832 277
L 833 276
L 834 275
L 835 274
L 836 273
L 837 273
L 838 273
L 839 276
L 840 276
L 841 278
L 842 279
L 843 281
L 844 282
L 845 284
L 846 288
L 847 291
L 848 295
L 850 299
L 851 301
L 852 303
L 853 306
L 854 310
L 855 312
L 856 315
L 857 316
L 858 317
L 859 318
L 860 321
L 861 322
L 862 324
L 863 324
L 864 326
L 865 328
L 867 329
L 868 329
L 869 331
L 870 331
L 871 331
L 872 332
L 873 333
L 874 333
L 875 333
L 876 333
L 877 334
L 878 335
L 879 335
L 880 336
L 881 336
L 882 336
L 883 336
L 885 336
L 886 336
L 887 336
L 888 337
L 889 337
L 890 337
L 891 338
L 892 338
L 893 339
L 894 339
L 895 339
L 896 340
L 897 340
L 898 341
L 899 341
L 900 342
L 901 342
L 903 342
L 904 342
L 905 343
L 906 343
L 907 343
L 908 344
L 909 344
L 910 344
L 911 344
L 912 344
L 913 344
L 914 344
L 915 343
L 916 343
L 917 342
L 918 342
L 920 342
L 921 342
L 922 341
L 923 341
L 924 340
L 925 340
L 926 340
L 927 339
L 928 337
L 929 336
L 930 336
L 931 336
L 932 334
L 933 333
L 934 332
L 935 331
L 936 330
L 938 328
L 939 326
L 940 326
L 941 325
L 942 325
L 943 324
L 944 322
L 945 321
L 946 322
L 947 321
L 948 321
L 949 319
L 950 320
L 951 322
L 952 322
L 953 322
L 954 323" style="stroke-width:1;stroke:rgba(0,116,217,1.0);fill:none"/><path  d="M 38 350
L 40 350
L 41 350
L 42 350
L 43 350
L 44 350
L 45 350
L 46 350
L 47 350
L 48 350
L 49 350
L 50 350
L 51 350
L 52 350
L 53 350
L 54 350
L 55 350
L 57 350
L 58 350
L 59 350
L 60 349
L 61 349
L 62 349
L 63 349
L 64 350
L 65 349
L 66 348
L 67 348
L 68 349
L 69 346
L 70 348
L 71 349
L 72 350
L 73 346
L 75 348
L 76 348
L 77 349
L 78 349
L 79 350
L 80 350
L 81 349
L 82 349
L 83 349
L 84 350
L 85 349
L 86 350
L 87 350
L 88 350
L 89 349
L 90 350
L 92 350
L 93 350
L 94 350
L 95 350
L 96 350
L 97 350
L 98 350
L 99 350
L 100 350
L 101 350
L 102 350
L 103 350
L 104 350
L 105 350
L 106 350
L 107 350
L 108 350
L 110 350
L 111 350
L 112 350
L 113 350
L 114 350
L 115 350
L 116 350
L 117 350
L 118 349
L 119 350
L 120 349
L 121 350
L 122 349
L 123 350
L 124 350
L 125 350
L 126 350
L 128 350
L 129 350
L 130 350
L 131 350
L 132 350
L 133 350
L 134 350
L 135 350
L 136 350
L 137 350
L 138 350
L 139 350
L 140 350
L 141 350
L 142 349
L 143 350
L 145 349
L 146 350
L 147 350
L 148 350
L 149 350
L 150 350
L 151 350
L 152 350
L 153 350
L 154 350
L 155 349
L 156 350
L 157 350
L 158 350
L 159 350
L 160 350
L 161 350
L 163 350
L 164 350
L 165 350
L 166 350
L 167 350
L 168 350
L 169 350
L 170 350
L 171 350
L 172 350
L 173 350
L 174 349
L 175 350
L 176 350
L 177 350
L 178 350
L 180 349
L 181 350
L 182 350
L 183 350
L 184 350
L 185 349
L 186 350
L 187 349
L 188 350
L 189 349
L 190 350
L 191 350
L 192 350
L 193 350
L 194 349
L 195 350
L 196 349
L 198 350
L 199 350
L 200 350
L 201 349
L 202 350
L 203 348
L 204 349
L 205 350
L 206 350
L 207 349
L 208 350
L 209 348
L 210 349
L 211 349
L 212 349
L 213 350
L 214 348
L 216 349
L 217 349
L 218 349
L 219 347
L 220 349
L 221 349
L 222 347
L 223 349
L 224 346
L 225 346
L 226 347
L 227 348
L 228 348
L 229 347
L 230 347
L 231 347
L 233 349
L 234 345
L 235 348
L 236 348
L 237 349
L 238 347
L 239 345
L 240 346
L 241 345
L 242 349
L 243 345
L 244 345
L 245 344
L 246 341
L 247 344
L 248 340
L 249 347
L 251 346
L 252 340
L 253 343
L 254 341
L 255 342
L 256 341
L 257 343
L 258 347
L 259 345
L 260 342
L 261 340
L 262 343
L 263 344
L 264 344
L 265 344
L 266 342
L 267 342
L 269 342
L 270 343
L 271 339
L 272 344
L 273 344
L 274 340
L 275 340
L 276 335
L 277 342
L 278 339
L 279 342
L 280 345
L 281 343
L 282 340
L 283 339
L 284 344
L 286 334
L 287 344
L 288 344
L 289 342
L 290 337
L 291 334
L 292 332
L 293 331
L 294 334
L 295 339
L 296 335
L 297 322
L 298 328
L 299 332
L 300 320
L 301 327
L 302 332
L 304 325
L 305 328
L 306 319
L 307 329
L 308 326
L 309 340
L 310 334
L 311 323
L 312 317
L 313 304
L 314 317
L 315 324
L 316 330
L 317 340
L 318 330
L 319 320
L 321 325
L 322 322
L 323 331
L 324 337
L 325 341
L 326 335
L 327 326
L 328 332
L 329 336
L 330 337
L 331 338
L 332 341
L 333 334
L 334 336
L 335 336
L 336 337
L 337 338
L 339 341
L 340 341
L 341 339
L 342 338
L 343 337
L 344 338
L 345 340
L 346 341
L 347 343
L 348 342
L 349 339
L 350 341
L 351 342
L 352 341
L 353 345
L 354 345
L 355 341
L 357 341
L 358 340
L 359 343
L 360 345
L 361 345
L 362 344
L 363 341
L 364 340
L 365 341
L 366 343
L 367 344
L 368 345
L 369 345
L 370 341
L 371 339
L 372 343
L 374 341
L 375 342
L 376 343
L 377 344
L 378 342
L 379 341
L 380 344
L 381 342
L 382 344
L 383 345
L 384 347
L 385 343
L 386 344
L 387 342
L 388 343
L 389 345
L 390 345
L 392 347
L 393 344
L 394 343
L 395 344
L 396 344
L 397 344
L 398 344
L 399 345
L 400 345
L 401 344
L 402 344
L 403 345
L 404 345
L 405 343
L 406 347
L 407 345
L 409 345
L 410 341
L 411 339
L 412 344
L 413 345
L 414 345
L 415 342
L 416 341
L 417 340
L 418 343
L 419 339
L 420 341
L 421 345
L 422 340
L 423 337
L 424 337
L 425 340
L 427 332
L 428 340
L 429 344
L 430 339
L 431 336
L 432 335
L 433 334
L 434 340
L 435 333
L 436 336
L 437 335
L 438 337
L 439 331
L 440 329
L 441 335
L 442 337
L 443 338
L 445 330
L 446 328
L 447 327
L 448 329
L 449 331
L 450 332
L 451 333
L 452 333
L 453 329
L 454 328
L 455 330
L 456 326
L 457 332
L 458 329
L 459 334
L 460 328
L 462 326
L 463 331
L 464 325
L 465 338
L 466 334
L 467 337
L 468 332
L 469 326
L 470 337
L 471 328
L 472 338
L 473 339
L 474 336
L 475 326
L 476 334
L 477 335
L 478 336
L 480 340
L 481 336
L 482 340
L 483 336
L 484 334
L 485 337
L 486 340
L 487 342
L 488 343
L 489 343
L 490 337
L 491 340
L 492 339
L 493 342
L 494 342
L 495 345
L 496 346
L 498 340
L 499 344
L 500 344
L 501 347
L 502 345
L 503 346
L 504 347
L 505 344
L 506 346
L 507 346
L 508 348
L 509 346
L 510 349
L 511 348
L 512 346
L 513 348
L 515 348
L 516 348
L 517 348
L 518 349
L 519 348
L 520 349
L 521 348
L 522 348
L 523 348
L 524 349
L 525 349
L 526 350
L 527 347
L 528 349
L 529 348
L 530 349
L 531 348
L 533 349
L 534 349
L 535 348
L 536 348
L 537 348
L 538 349
L 539 348
L 540 350
L 541 349
L 542 348
L 543 348
L 544 349
L 545 349
L 546 349
L 547 349
L 548 350
L 550 349
L 551 349
L 552 349
L 553 349
L 554 350
L 555 349
L 556 350
L 557 349
L 558 350
L 559 349
L 560 349
L 561 350
L 562 349
L 563 349
L 564 349
L 565 349
L 566 349
L 568 349
L 569 349
L 570 349
L 571 348
L 572 348
L 573 348
L 574 347
L 575 348
L 576 348
L 577 349
L 578 349
L 579 348
L 580 348
L 581 348
L 582 348
L 583 348
L 584 348
L 586 348
L 587 347
L 588 346
L 589 347
L 590 346
L 591 348
L 592 348
L 593 348
L 594 346
L 595 347
L 596 347
L 597 347
L 598 347
L 599 347
L 600 347
L 601 345
L 603 344
L 604 345
L 605 344
L 606 344
L 607 345
L 608 344
L 609 344
L 610 341
L 611 343
L 612 342
L 613 341
L 614 342
L 615 343
L 616 339
L 617 341
L 618 341
L 619 343
L 621 340
L 622 341
L 623 343
L 624 335
L 625 339
L 626 340
L 627 338
L 628 339
L 629 339
L 630 338
L 631 333
L 632 335
L 633 331
L 634 336
L 635 339
L 636 341
L 638 339
L 639 327
L 640 336
L 641 334
L 642 339
L 643 341
L 644 339
L 645 341
L 646 335
L 647 339
L 648 337
L 649 341
L 650 341
L 651 341
L 652 341
L 653 333
L 654 340
L 656 341
L 657 341
L 658 342
L 659 343
L 660 342
L 661 334
L 662 340
L 663 341
L 664 343
L 665 343
L 666 344
L 667 344
L 668 338
L 669 342
L 670 340
L 671 343
L 672 341
L 674 342
L 675 340
L 676 335
L 677 338
L 678 339
L 679 339
L 680 339
L 681 341
L 682 339
L 683 338
L 684 340
L 685 329
L 686 332
L 687 337
L 688 335
L 689 334
L 691 330
L 692 313
L 693 319
L 694 325
L 695 324
L 696 329
L 697 323
L 698 314
L 699 317
L 700 319
L 701 318
L 702 318
L 703 323
L 704 319
L 705 302
L 706 305
L 707 299
L 709 309
L 710 315
L 711 320
L 712 318
L 713 303
L 714 315
L 715 316
L 716 319
L 717 326
L 718 332
L 719 325
L 720 316
L 721 325
L 722 328
L 723 332
L 724 332
L 725 336
L 727 335
L 728 327
L 729 337
L 730 339
L 731 330
L 732 339
L 733 339
L 734 337
L 735 332
L 736 340
L 737 337
L 738 341
L 739 341
L 740 344
L 741 341
L 742 334
L 744 342
L 745 335
L 746 336
L 747 341
L 748 340
L 749 333
L 750 329
L 751 328
L 752 324
L 753 324
L 754 333
L 755 328
L 756 311
L 757 273
L 758 298
L 759 293
L 760 302
L 762 278
L 763 269
L 764 264
L 765 217
L 766 242
L 767 231
L 768 237
L 769 248
L 770 237
L 771 236
L 772 132
L 773 188
L 774 151
L 775 195
L 776 196
L 777 179
L 779 191
L 780 97
L 781 154
L 782 130
L 783 156
L 784 193
L 785 183
L 786 207
L 787 90
L 788 187
L 789 169
L 790 195
L 791 217
L 792 233
L 793 203
L 794 173
L 795 196
L 797 213
L 798 218
L 799 237
L 800 221
L 801 206
L 802 139
L 803 209
L 804 188
L 805 225
L 806 255
L 807 241
L 808 243
L 809 171
L 810 227
L 811 203
L 812 245
L 813 254
L 815 252
L 816 221
L 817 159
L 818 231
L 819 206
L 820 233
L 821 220
L 822 231
L 823 202
L 824 129
L 825 141
L 826 135
L 827 190
L 828 179
L 829 200
L 830 172
L 832 27
L 833 122
L 834 111
L 835 167
L 836 175
L 837 194
L 838 159
L 839 86
L 840 137
L 841 145
L 842 184
L 843 205
L 844 231
L 845 194
L 846 158
L 847 204
L 848 215
L 850 248
L 851 261
L 852 267
L 853 254
L 854 229
L 855 240
L 856 280
L 857 256
L 858 277
L 859 298
L 860 296
L 861 258
L 862 280
L 863 285
L 864 296
L 865 306
L 867 311
L 868 309
L 869 296
L 870 273
L 871 296
L 872 313
L 873 311
L 874 320
L 875 310
L 876 290
L 877 305
L 878 306
L 879 315
L 880 322
L 881 321
L 882 315
L 883 296
L 885 305
L 886 309
L 887 312
L 888 334
L 889 315
L 890 321
L 891 308
L 892 317
L 893 316
L 894 327
L 895 330
L 896 331
L 897 329
L 898 314
L 899 325
L 900 326
L 901 332
L 903 338
L 904 334
L 905 333
L 906 324
L 907 329
L 908 336
L 909 337
L 910 335
L 911 336
L 912 334
L 913 319
L 914 323
L 915 325
L 916 330
L 917 328
L 918 334
L 920 329
L 921 328
L 922 301
L 923 316
L 924 318
L 925 331
L 926 325
L 927 316
L 928 288
L 929 287
L 930 311
L 931 315
L 932 303
L 933 304
L 934 291
L 935 264
L 936 266
L 938 286
L 939 272
L 940 294
L 941 296
L 942 283
L 943 250
L 944 225
L 945 272
L 946 277
L 947 288
L 948 286
L 949 251
L 950 263
L 951 261
L 952 276
L 953 279
L 954 299" style="stroke-width:1;stroke:rgba(0,217,101,1.0);fill:none"/><path  d="M 38 351
L 40 351
L 41 351
L 42 351
L 43 351
L 44 351
L 45 351
L 46 351
L 47 351
L 48 351
L 49 351
L 50 351
L 51 351
L 52 351
L 53 351
L 54 350
L 55 351
L 57 350
L 58 350
L 59 350
L 60 351
L 61 350
L 62 350
L 63 351
L 64 350
L 65 350
L 66 350
L 67 350
L 68 350
L 69 350
L 70 350
L 71 350
L 72 350
L 73 350
L 75 350
L 76 351
L 77 350
L 78 350
L 79 350
L 80 350
L 81 350
L 82 350
L 83 350
L 84 350
L 85 350
L 86 350
L 87 350
L 88 350
L 89 350
L 90 350
L 92 350
L 93 350
L 94 350
L 95 350
L 96 350
L 97 350
L 98 350
L 99 350
L 100 350
L 101 350
L 102 350
L 103 350
L 104 350
L 105 350
L 106 350
L 107 350
L 108 350
L 110 350
L 111 351
L 112 351
L 113 350
L 114 350
L 115 350
L 116 350
L 117 350
L 118 350
L 119 351
L 120 350
L 121 350
L 122 351
L 123 351
L 124 350
L 125 351
L 126 351
L 128 351
L 129 350
L 130 350
L 131 350
L 132 351
L 133 350
L 134 350
L 135 351
L 136 350
L 137 351
L 138 351
L 139 351
L 140 351
L 141 350
L 142 350
L 143 351
L 145 350
L 146 351
L 147 351
L 148 351
L 149 350
L 150 350
L 151 350
L 152 351
L 153 350
L 154 350
L 155 350
L 156 350
L 157 350
L 158 351
L 159 351
L 160 350
L 161 350
L 163 350
L 164 350
L 165 350
L 166 351
L 167 350
L 168 350
L 169 350
L 170 351
L 171 351
L 172 351
L 173 350
L 174 351
L 175 350
L 176 351
L 177 351
L 178 351
L 180 351
L 181 351
L 182 351
L 183 350
L 184 351
L 185 350
L 186 351
L 187 350
L 188 350
L 189 351
L 190 351
L 191 350
L 192 350
L 193 351
L 194 350
L 195 350
L 196 351
L 198 351
L 199 351
L 200 351
L 201 351
L 202 351
L 203 351
L 204 350
L 205 350
L 206 351
L 207 351
L 208 351
L 209 351
L 210 351
L 211 351
L 212 351
L 213 351
L 214 351
L 216 350
L 217 351
L 218 350
L 219 350
L 220 350
L 221 351
L 222 350
L 223 351
L 224 350
L 225 351
L 226 351
L 227 350
L 228 350
L 229 350
L 230 351
L 231 351
L 233 351
L 234 350
L 235 351
L 236 351
L 237 350
L 238 351
L 239 351
L 240 351
L 241 350
L 242 351
L 243 351
L 244 351
L 245 350
L 246 350
L 247 350
L 248 350
L 249 350
L 251 351
L 252 351
L 253 351
L 254 350
L 255 350
L 256 350
L 257 350
L 258 350
L 259 350
L 260 351
L 261 350
L 262 350
L 263 350
L 264 350
L 265 350
L 266 351
L 267 350
L 269 350
L 270 350
L 271 350
L 272 350
L 273 350
L 274 350
L 275 350
L 276 350
L 277 350
L 278 350
L 279 350
L 280 350
L 281 350
L 282 350
L 283 350
L 284 350
L 286 350
L 287 350
L 288 350
L 289 350
L 290 350
L 291 350
L 292 350
L 293 350
L 294 350
L 295 350
L 296 350
L 297 350
L 298 350
L 299 350
L 300 350
L 301 350
L 302 350
L 304 350
L 305 350
L 306 350
L 307 350
L 308 350
L 309 350
L 310 350
L 311 350
L 312 350
L 313 350
L 314 350
L 315 350
L 316 350
L 317 350
L 318 350
L 319 350
L 321 350
L 322 350
L 323 350
L 324 350
L 325 350
L 326 350
L 327 350
L 328 350
L 329 350
L 330 350
L 331 350
L 332 350
L 333 350
L 334 350
L 335 350
L 336 350
L 337 350
L 339 350
L 340 350
L 341 350
L 342 350
L 343 350
L 344 350
L 345 350
L 346 350
L 347 350
L 348 350
L 349 350
L 350 350
L 351 350
L 352 350
L 353 350
L 354 350
L 355 350
L 357 350
L 358 350
L 359 350
L 360 350
L 361 350
L 362 350
L 363 350
L 364 350
L 365 350
L 366 350
L 367 350
L 368 350
L 369 350
L 370 350
L 371 350
L 372 350
L 374 350
L 375 350
L 376 350
L 377 350
L 378 350
L 379 350
L 380 350
L 381 350
L 382 350
L 383 350
L 384 350
L 385 350
L 386 350
L 387 350
L 388 350
L 389 350
L 390 350
L 392 350
L 393 350
L 394 350
L 395 350
L 396 350
L 397 350
L 398 350
L 399 350
L 400 350
L 401 350
L 402 350
L 403 350
L 404 350
L 405 350
L 406 350
L 407 350
L 409 350
L 410 350
L 411 350
L 412 350
L 413 350
L 414 350
L 415 350
L 416 350
L 417 350
L 418 350
L 419 350
L 420 350
L 421 350
L 422 350
L 423 350
L 424 350
L 425 350
L 427 350
L 428 350
L 429 350
L 430 350
L 431 350
L 432 350
L 433 350
L 434 350
L 435 350
L 436 350
L 437 350
L 438 350
L 439 350
L 440 350
L 441 350
L 442 350
L 443 350
L 445 350
L 446 350
L 447 350
L 448 350
L 449 350
L 450 350
L 451 350
L 452 350
L 453 350
L 454 350
L 455 350
L 456 350
L 457 350
L 458 350
L 459 350
L 460 350
L 462 350
L 463 350
L 464 350
L 465 350
L 466 350
L 467 350
L 468 350
L 469 350
L 470 350
L 471 350
L 472 350
L 473 350
L 474 350
L 475 350
L 476 350
L 477 350
L 478 350
L 480 350
L 481 350
L 482 350
L 483 350
L 484 350
L 485 350
L 486 350
L 487 350
L 488 350
L 489 350
L 490 350
L 491 350
L 492 350
L 493 350
L 494 350
L 495 350
L 496 350
L 498 350
L 499 350
L 500 350
L 501 350
L 502 350
L 503 350
L 504 350
L 505 350
L 506 350
L 507 350
L 508 350
L 509 350
L 510 350
L 511 350
L 512 350
L 513 351
L 515 350
L 516 350
L 517 351
L 518 350
L 519 350
L 520 350
L 521 350
L 522 350
L 523 350
L 524 350
L 525 350
L 526 350
L 527 350
L 528 350
L 529 350
L 530 350
L 531 350
L 533 350
L 534 351
L 535 350
L 536 350
L 537 351
L 538 351
L 539 351
L 540 351
L 541 351
L 542 350
L 543 351
L 544 351
L 545 350
L 546 350
L 547 351
L 548 350
L 550 350
L 551 351
L 552 350
L 553 351
L 554 350
L 555 350
L 556 351
L 557 350
L 558 350
L 559 351
L 560 350
L 561 350
L 562 351
L 563 351
L 564 351
L 565 351
L 566 350
L 568 351
L 569 351
L 570 351
L 571 350
L 572 350
L 573 351
L 574 351
L 575 351
L 576 351
L 577 350
L 578 351
L 579 351
L 580 350
L 581 351
L 582 350
L 583 351
L 584 350
L 586 350
L 587 351
L 588 351
L 589 351
L 590 351
L 591 350
L 592 350
L 593 350
L 594 350
L 595 351
L 596 350
L 597 351
L 598 351
L 599 350
L 600 351
L 601 351
L 603 351
L 604 351
L 605 351
L 606 350
L 607 351
L 608 351
L 609 351
L 610 350
L 611 350
L 612 351
L 613 350
L 614 350
L 615 350
L 616 351
L 617 351
L 618 351
L 619 350
L 621 350
L 622 351
L 623 350
L 624 350
L 625 351
L 626 350
L 627 350
L 628 350
L 629 350
L 630 350
L 631 350
L 632 350
L 633 350
L 634 351
L 635 351
L 636 351
L 638 350
L 639 350
L 640 350
L 641 350
L 642 350
L 643 350
L 644 350
L 645 350
L 646 350
L 647 350
L 648 350
L 649 350
L 650 350
L 651 350
L 652 350
L 653 350
L 654 350
L 656 350
L 657 350
L 658 350
L 659 350
L 660 350
L 661 350
L 662 350
L 663 350
L 664 351
L 665 350
L 666 350
L 667 350
L 668 350
L 669 350
L 670 350
L 671 350
L 672 350
L 674 350
L 675 350
L 676 350
L 677 350
L 678 350
L 679 350
L 680 350
L 681 350
L 682 350
L 683 350
L 684 350
L 685 350
L 686 351
L 687 350
L 688 350
L 689 350
L 691 350
L 692 350
L 693 350
L 694 350
L 695 350
L 696 350
L 697 350
L 698 350
L 699 350
L 700 350
L 701 350
L 702 350
L 703 350
L 704 350
L 705 350
L 706 350
L 707 350
L 709 350
L 710 350
L 711 350
L 712 350
L 713 350
L 714 350
L 715 350
L 716 350
L 717 350
L 718 350
L 719 350
L 720 350
L 721 350
L 722 350
L 723 350
L 724 350
L 725 350
L 727 350
L 728 350
L 729 350
L 730 350
L 731 350
L 732 350
L 733 350
L 734 350
L 735 350
L 736 350
L 737 350
L 738 350
L 739 350
L 740 350
L 741 350
L 742 350
L 744 350
L 745 350
L 746 350
L 747 350
L 748 350
L 749 350
L 750 350
L 751 350
L 752 350
L 753 350
L 754 351
L 755 350
L 756 350
L 757 350
L 758 350
L 759 350
L 760 351
L 762 350
L 763 350
L 764 350
L 765 350
L 766 351
L 767 350
L 768 350
L 769 350
L 770 350
L 771 350
L 772 351
L 773 350
L 774 351
L 775 350
L 776 350
L 777 350
L 779 350
L 780 350
L 781 350
L 782 350
L 783 350
L 784 350
L 785 350
L 786 350
L 787 350
L 788 350
L 789 350
L 790 350
L 791 350
L 792 350
L 793 350
L 794 350
L 795 350
L 797 350
L 798 350
L 799 350
L 800 350
L 801 350
L 802 350
L 803 350
L 804 350
L 805 350
L 806 350
L 807 350
L 808 350
L 809 350
L 810 350
L 811 350
L 812 350
L 813 350
L 815 350
L 816 350
L 817 350
L 818 350
L 819 350
L 820 350
L 821 350
L 822 350
L 823 350
L 824 350
L 825 350
L 826 350
L 827 350
L 828 350
L 829 350
L 830 350
L 832 350
L 833 350
L 834 350
L 835 350
L 836 350
L 837 350
L 838 350
L 839 350
L 840 350
L 841 350
L 842 350
L 843 350
L 844 350
L 845 350
L 846 350
L 847 350
L 848 350
L 850 350
L 851 350
L 852 350
L 853 350
L 854 350
L 855 350
L 856 350
L 857 350
L 858 350
L 859 350
L 860 350
L 861 350
L 862 350
L 863 350
L 864 350
L 865 351
L 867 350
L 868 350
L 869 350
L 870 350
L 871 350
L 872 350
L 873 350
L 874 350
L 875 350
L 876 350
L 877 350
L 878 350
L 879 350
L 880 350
L 881 350
L 882 350
L 883 350
L 885 350
L 886 350
L 887 350
L 888 350
L 889 350
L 890 350
L 891 350
L 892 350
L 893 350
L 894 351
L 895 351
L 896 351
L 897 350
L 898 350
L 899 350
L 900 350
L 901 350
L 903 350
L 904 350
L 905 351
L 906 350
L 907 351
L 908 350
L 909 351
L 910 351
L 911 351
L 912 350
L 913 351
L 914 350
L 915 350
L 916 351
L 917 350
L 918 350
L 920 350
L 921 351
L 922 350
L 923 350
L 924 351
L 925 350
L 926 350
L 927 350
L 928 351
L 929 351
L 930 350
L 931 350
L 932 351
L 933 351
L 934 350
L 935 351
L 936 350
L 938 350
L 939 350
L 940 350
L 941 350
L 942 350
L 943 350
L 944 350
L 945 351
L 946 350
L 947 350
L 948 350
L 949 350
L 950 351
L 951 350
L 952 350
L 953 351
L 954 351" style="stroke-width:1;stroke:rgba(217,0,116,1.0);fill:none"/><text x="425" y="33" style="stroke-width:0;stroke:none;fill:rgba(51,51,51,1.0);font-size:23.0px;font-family:'Roboto Medium',sans-serif">Wien 09.07.2022</text><path  d="M 38 11
L 251 11
L 251 91
L 38 91
L 38 11" style="stroke-width:1;stroke:rgba(51,51,51,1.0);fill:rgba(255,255,255,1.0)"/><text x="43" y="26" style="stroke-width:0;stroke:none;fill:rgba(51,51,51,1.0);font-size:10.2px;font-family:'Roboto Medium',sans-serif">Sieben Tage Durschnitt Inzidenz Fälle</text><path  d="M 221 21
L 241 21" style="stroke-width:1;stroke:rgba(0,116,217,1.0);fill:none"/><text x="43" y="56" style="stroke-width:0;stroke:none;fill:rgba(51,51,51,1.0);font-size:10.2px;font-family:'Roboto Medium',sans-serif">Anzahl Faelle</text><path  d="M 110 51
L 241 51" style="stroke-width:1;stroke:rgba(0,217,101,1.0);fill:none"/><text x="43" y="86" style="stroke-width:0;stroke:none;fill:rgba(51,51,51,1.0);font-size:10.2px;font-family:'Roboto Medium',sans-serif">Anzahl Tot</text><path  d="M 98 81
L 241 81" style="stroke-width:1;stroke:rgba(217,0,116,1.0);fill:none"/></svg>