<svg xmlns="http://www.w3.org/2000/svg" xmlns:xlink="http://www.w3.org/1999/xlink" width="1024" height="400">\n<path  d="M 0 0
L 1024 0
L 1024 400
L 0 400
L 0 0" style="stroke-width:0;stroke:rgba(255,255,255,1.0);fill:rgba(255,255,255,1.0)"/><path  d="M 38 11
L 961 11
L 961 351
L 38 351
L 38 11" style="stroke-width:0;stroke:rgba(255,255,255,1.0);fill:rgba(255,255,255,1.0)"/><path  d="M 38 351
L 961 351" style="stroke-width:1;stroke:rgba(51,51,51,1.0);fill:none"/><path  d="M 38 351
L 38 356" style="stroke-width:1;stroke:rgba(51,51,51,1.0);fill:none"/><text x="5" y="373" style="stroke-width:0;stroke:none;fill:rgba(51,51,51,1.0);font-size:12.8px;font-family:'Roboto Medium',sans-serif">2020-02-26</text><path  d="M 154 351
L 154 356" style="stroke-width:1;stroke:rgba(51,51,51,1.0);fill:none"/><text x="121" y="373" style="stroke-width:0;stroke:none;fill:rgba(51,51,51,1.0);font-size:12.8px;font-family:'Roboto Medium',sans-serif">2020-06-17</text><path  d="M 269 351
L 269 356" style="stroke-width:1;stroke:rgba(51,51,51,1.0);fill:none"/><text x="236" y="373" style="stroke-width:0;stroke:none;fill:rgba(51,51,51,1.0);font-size:12.8px;font-family:'Roboto Medium',sans-serif">2020-10-07</text><path  d="M 385 351
L 385 356" style="stroke-width:1;stroke:rgba(51,51,51,1.0);fill:none"/><text x="352" y="373" style="stroke-width:0;stroke:none;fill:rgba(51,51,51,1.0);font-size:12.8px;font-family:'Roboto Medium',sans-serif">2021-01-27</text><path  d="M 500 351
L 500 356" style="stroke-width:1;stroke:rgba(51,51,51,1.0);fill:none"/><text x="467" y="373" style="stroke-width:0;stroke:none;fill:rgba(51,51,51,1.0);font-size:12.8px;font-family:'Roboto Medium',sans-serif">2021-05-19</text><path  d="M 615 351
L 615 356" style="stroke-width:1;stroke:rgba(51,51,51,1.0);fill:none"/><text x="582" y="373" style="stroke-width:0;stroke:none;fill:rgba(51,51,51,1.0);font-size:12.8px;font-family:'Roboto Medium',sans-serif">2021-09-08</text><path  d="M 731 351
L 731 356" style="stroke-width:1;stroke:rgba(51,51,51,1.0);fill:none"/><text x="698" y="373" style="stroke-width:0;stroke:none;fill:rgba(51,51,51,1.0);font-size:12.8px;font-family:'Roboto Medium',sans-serif">2021-12-29</text><path  d="M 846 351
L 846 356" style="stroke-width:1;stroke:rgba(51,51,51,1.0);fill:none"/><text x="813" y="373" style="stroke-width:0;stroke:none;fill:rgba(51,51,51,1.0);font-size:12.8px;font-family:'Roboto Medium',sans-serif">2022-04-20</text><path  d="M 961 351
L 961 356" style="stroke-width:1;stroke:rgba(51,51,51,1.0);fill:none"/><text x="928" y="373" style="stroke-width:0;stroke:none;fill:rgba(51,51,51,1.0);font-size:12.8px;font-family:'Roboto Medium',sans-serif">2022-08-10</text><text x="481" y="395" style="stroke-width:0;stroke:none;fill:rgba(51,51,51,1.0);font-size:12.8px;font-family:'Roboto Medium',sans-serif">Datum</text><path  d="M 962 351
L 962 11" style="stroke-width:1;stroke:rgba(51,51,51,1.0);fill:none"/><path  d="M 962 351
L 967 351" style="stroke-width:1;stroke:rgba(51,51,51,1.0);fill:none"/><text x="972" y="357" style="stroke-width:0;stroke:none;fill:rgba(51,51,51,1.0);font-size:12.8px;font-family:'Roboto Medium',sans-serif">0.00</text><path  d="M 962 307
L 967 307" style="stroke-width:1;stroke:rgba(51,51,51,1.0);fill:none"/><text x="972" y="313" style="stroke-width:0;stroke:none;fill:rgba(51,51,51,1.0);font-size:12.8px;font-family:'Roboto Medium',sans-serif">470.00</text><path  d="M 962 265
L 967 265" style="stroke-width:1;stroke:rgba(51,51,51,1.0);fill:none"/><text x="972" y="271" style="stroke-width:0;stroke:none;fill:rgba(51,51,51,1.0);font-size:12.8px;font-family:'Roboto Medium',sans-serif">930.00</text><path  d="M 962 223
L 967 223" style="stroke-width:1;stroke:rgba(51,51,51,1.0);fill:none"/><text x="972" y="229" style="stroke-width:0;stroke:none;fill:rgba(51,51,51,1.0);font-size:12.8px;font-family:'Roboto Medium',sans-serif">1390.00</text><path  d="M 962 181
L 967 181" style="stroke-width:1;stroke:rgba(51,51,51,1.0);fill:none"/><text x="972" y="187" style="stroke-width:0;stroke:none;fill:rgba(51,51,51,1.0);font-size:12.8px;font-family:'Roboto Medium',sans-serif">1850.00</text><path  d="M 962 137
L 967 137" style="stroke-width:1;stroke:rgba(51,51,51,1.0);fill:none"/><text x="972" y="143" style="stroke-width:0;stroke:none;fill:rgba(51,51,51,1.0);font-size:12.8px;font-family:'Roboto Medium',sans-serif">2320.00</text><path  d="M 962 95
L 967 95" style="stroke-width:1;stroke:rgba(51,51,51,1.0);fill:none"/><text x="972" y="101" style="stroke-width:0;stroke:none;fill:rgba(51,51,51,1.0);font-size:12.8px;font-family:'Roboto Medium',sans-serif">2780.00</text><path  d="M 962 53
L 967 53" style="stroke-width:1;stroke:rgba(51,51,51,1.0);fill:none"/><text x="972" y="59" style="stroke-width:0;stroke:none;fill:rgba(51,51,51,1.0);font-size:12.8px;font-family:'Roboto Medium',sans-serif">3240.00</text><path  d="M 962 11
L 967 11" style="stroke-width:1;stroke:rgba(51,51,51,1.0);fill:none"/><text x="972" y="17" style="stroke-width:0;stroke:none;fill:rgba(51,51,51,1.0);font-size:12.8px;font-family:'Roboto Medium',sans-serif">3700.00</text><path  d="M 38 351
L 40 351
L 41 351
L 42 351
L 43 351
L 44 351
L 45 351
L 46 351
L 47 351
L 48 351
L 49 351
L 50 351
L 51 351
L 52 351
L 53 351
L 54 351
L 55 351
L 56 351
L 57 350
L 58 350
L 59 350
L 60 350
L 61 350
L 62 349
L 63 349
L 64 349
L 65 349
L 66 349
L 67 348
L 68 348
L 69 348
L 70 348
L 71 348
L 72 348
L 74 348
L 75 348
L 76 348
L 77 348
L 78 349
L 79 349
L 80 349
L 81 349
L 82 349
L 83 349
L 84 349
L 85 349
L 86 349
L 87 349
L 88 350
L 89 350
L 90 350
L 91 350
L 92 350
L 93 350
L 94 350
L 95 350
L 96 350
L 97 350
L 98 351
L 99 351
L 100 351
L 101 350
L 102 350
L 103 350
L 104 349
L 105 349
L 106 349
L 108 349
L 109 350
L 110 350
L 111 350
L 112 349
L 113 349
L 114 349
L 115 349
L 116 349
L 117 350
L 118 350
L 119 350
L 120 351
L 121 351
L 122 351
L 123 350
L 124 350
L 125 350
L 126 350
L 127 350
L 128 350
L 129 350
L 130 350
L 131 350
L 132 350
L 133 350
L 134 351
L 135 351
L 136 351
L 137 351
L 138 351
L 139 351
L 140 351
L 142 351
L 143 351
L 144 351
L 145 351
L 146 351
L 147 351
L 148 351
L 149 351
L 150 351
L 151 351
L 152 351
L 153 351
L 154 350
L 155 350
L 156 350
L 157 350
L 158 350
L 159 350
L 160 350
L 161 351
L 162 350
L 163 350
L 164 350
L 165 350
L 166 350
L 167 350
L 168 350
L 169 350
L 170 350
L 171 350
L 172 350
L 173 350
L 174 350
L 176 350
L 177 350
L 178 351
L 179 351
L 180 351
L 181 350
L 182 349
L 183 348
L 184 347
L 185 347
L 186 347
L 187 346
L 188 347
L 189 347
L 190 348
L 191 349
L 192 349
L 193 349
L 194 350
L 195 350
L 196 350
L 197 350
L 198 350
L 199 350
L 200 350
L 201 350
L 202 350
L 203 350
L 204 350
L 205 350
L 206 351
L 207 351
L 208 351
L 210 351
L 211 351
L 212 351
L 213 350
L 214 350
L 215 350
L 216 350
L 217 350
L 218 350
L 219 349
L 220 350
L 221 350
L 222 350
L 223 349
L 224 349
L 225 349
L 226 349
L 227 348
L 228 348
L 229 346
L 230 346
L 231 346
L 232 346
L 233 346
L 234 346
L 235 346
L 236 347
L 237 347
L 238 346
L 239 346
L 240 346
L 241 346
L 242 345
L 243 345
L 245 346
L 246 346
L 247 345
L 248 345
L 249 344
L 250 345
L 251 343
L 252 342
L 253 343
L 254 343
L 255 343
L 256 343
L 257 344
L 258 346
L 259 346
L 260 346
L 261 346
L 262 347
L 263 347
L 264 347
L 265 347
L 266 347
L 267 346
L 268 346
L 269 346
L 270 346
L 271 345
L 272 346
L 273 345
L 274 346
L 275 345
L 276 344
L 277 344
L 279 343
L 280 341
L 281 342
L 282 339
L 283 340
L 284 336
L 285 333
L 286 327
L 287 326
L 288 325
L 289 324
L 290 321
L 291 315
L 292 312
L 293 312
L 294 310
L 295 309
L 296 308
L 297 307
L 298 313
L 299 316
L 300 320
L 301 321
L 302 320
L 303 320
L 304 321
L 305 320
L 306 318
L 307 317
L 308 315
L 309 315
L 310 316
L 311 313
L 313 316
L 314 316
L 315 317
L 316 317
L 317 318
L 318 319
L 319 323
L 320 322
L 321 325
L 322 326
L 323 328
L 324 327
L 325 328
L 326 328
L 327 329
L 328 328
L 329 329
L 330 330
L 331 332
L 332 332
L 333 334
L 334 335
L 335 337
L 336 339
L 337 340
L 338 339
L 339 338
L 340 337
L 341 337
L 342 337
L 343 337
L 344 337
L 345 338
L 347 340
L 348 340
L 349 340
L 350 340
L 351 341
L 352 342
L 353 343
L 354 342
L 355 343
L 356 342
L 357 341
L 358 340
L 359 338
L 360 335
L 361 334
L 362 333
L 363 331
L 364 331
L 365 329
L 366 327
L 367 328
L 368 330
L 369 329
L 370 330
L 371 330
L 372 332
L 373 335
L 374 336
L 375 334
L 376 337
L 377 339
L 378 339
L 379 338
L 381 337
L 382 337
L 383 339
L 384 339
L 385 338
L 386 337
L 387 338
L 388 339
L 389 339
L 390 336
L 391 333
L 392 332
L 393 329
L 394 328
L 395 327
L 396 325
L 397 326
L 398 326
L 399 324
L 400 325
L 401 326
L 402 325
L 403 328
L 404 328
L 405 329
L 406 333
L 407 332
L 408 324
L 409 322
L 410 320
L 411 318
L 412 316
L 413 313
L 414 311
L 416 316
L 417 315
L 418 315
L 419 312
L 420 310
L 421 309
L 422 309
L 423 302
L 424 303
L 425 299
L 426 301
L 427 302
L 428 302
L 429 302
L 430 304
L 431 303
L 432 305
L 433 305
L 434 306
L 435 304
L 436 305
L 437 307
L 438 310
L 439 308
L 440 308
L 441 309
L 442 315
L 443 319
L 444 322
L 445 324
L 446 326
L 447 328
L 448 325
L 450 326
L 451 324
L 452 321
L 453 320
L 454 320
L 455 320
L 456 325
L 457 326
L 458 327
L 459 328
L 460 330
L 461 332
L 462 333
L 463 333
L 464 333
L 465 333
L 466 335
L 467 336
L 468 337
L 469 337
L 470 338
L 471 338
L 472 340
L 473 340
L 474 341
L 475 341
L 476 340
L 477 341
L 478 340
L 479 340
L 480 340
L 481 340
L 482 341
L 484 344
L 485 343
L 486 343
L 487 343
L 488 343
L 489 342
L 490 341
L 491 340
L 492 341
L 493 342
L 494 343
L 495 344
L 496 346
L 497 346
L 498 348
L 499 348
L 500 347
L 501 348
L 502 348
L 503 348
L 504 348
L 505 348
L 506 348
L 507 349
L 508 349
L 509 349
L 510 349
L 511 349
L 512 349
L 513 350
L 514 350
L 515 350
L 516 350
L 518 350
L 519 350
L 520 350
L 521 350
L 522 349
L 523 349
L 524 349
L 525 349
L 526 349
L 527 349
L 528 349
L 529 350
L 530 350
L 531 350
L 532 350
L 533 350
L 534 350
L 535 350
L 536 350
L 537 351
L 538 351
L 539 351
L 540 350
L 541 350
L 542 350
L 543 350
L 544 350
L 545 350
L 546 350
L 547 350
L 548 350
L 549 350
L 550 351
L 552 351
L 553 350
L 554 350
L 555 350
L 556 350
L 557 349
L 558 349
L 559 349
L 560 349
L 561 348
L 562 348
L 563 348
L 564 349
L 565 350
L 566 349
L 567 349
L 568 349
L 569 349
L 570 349
L 571 349
L 572 349
L 573 349
L 574 349
L 575 350
L 576 350
L 577 350
L 578 349
L 579 349
L 580 349
L 581 349
L 582 349
L 583 347
L 584 345
L 586 345
L 587 345
L 588 344
L 589 344
L 590 344
L 591 345
L 592 346
L 593 343
L 594 342
L 595 342
L 596 341
L 597 340
L 598 340
L 599 338
L 600 337
L 601 336
L 602 336
L 603 333
L 604 332
L 605 332
L 606 332
L 607 333
L 608 333
L 609 334
L 610 335
L 611 337
L 612 337
L 613 339
L 614 340
L 615 339
L 616 337
L 617 338
L 618 338
L 619 337
L 621 335
L 622 333
L 623 334
L 624 334
L 625 334
L 626 334
L 627 335
L 628 334
L 629 334
L 630 334
L 631 335
L 632 334
L 633 333
L 634 334
L 635 336
L 636 338
L 637 340
L 638 340
L 639 341
L 640 341
L 641 341
L 642 342
L 643 341
L 644 341
L 645 341
L 646 341
L 647 340
L 648 341
L 649 340
L 650 341
L 651 339
L 652 340
L 653 339
L 655 337
L 656 335
L 657 334
L 658 333
L 659 334
L 660 332
L 661 330
L 662 333
L 663 332
L 664 333
L 665 332
L 666 332
L 667 330
L 668 328
L 669 325
L 670 325
L 671 322
L 672 319
L 673 313
L 674 305
L 675 297
L 676 294
L 677 290
L 678 288
L 679 281
L 680 278
L 681 279
L 682 281
L 683 280
L 684 277
L 685 275
L 686 271
L 687 269
L 689 269
L 690 263
L 691 255
L 692 253
L 693 250
L 694 246
L 695 250
L 696 250
L 697 254
L 698 263
L 699 269
L 700 269
L 701 277
L 702 278
L 703 281
L 704 288
L 705 292
L 706 295
L 707 302
L 708 307
L 709 314
L 710 317
L 711 319
L 712 320
L 713 319
L 714 321
L 715 324
L 716 325
L 717 327
L 718 329
L 719 331
L 720 333
L 721 334
L 723 336
L 724 338
L 725 339
L 726 338
L 727 339
L 728 339
L 729 338
L 730 335
L 731 334
L 732 333
L 733 331
L 734 332
L 735 331
L 736 328
L 737 326
L 738 321
L 739 319
L 740 318
L 741 308
L 742 299
L 743 293
L 744 282
L 745 275
L 746 263
L 747 257
L 748 260
L 749 254
L 750 250
L 751 245
L 752 242
L 753 237
L 754 229
L 755 218
L 757 216
L 758 205
L 759 195
L 760 183
L 761 177
L 762 170
L 763 162
L 764 164
L 765 161
L 766 150
L 767 151
L 768 149
L 769 151
L 770 145
L 771 139
L 772 141
L 773 146
L 774 149
L 775 145
L 776 139
L 777 146
L 778 149
L 779 145
L 780 134
L 781 123
L 782 122
L 783 122
L 784 123
L 785 124
L 786 130
L 787 141
L 788 152
L 789 155
L 790 161
L 792 163
L 793 155
L 794 146
L 795 151
L 796 142
L 797 151
L 798 146
L 799 144
L 800 149
L 801 133
L 802 122
L 803 106
L 804 80
L 805 64
L 806 50
L 807 48
L 808 36
L 809 16
L 810 14
L 811 23
L 812 28
L 813 35
L 814 35
L 815 45
L 816 56
L 817 76
L 818 75
L 819 79
L 820 84
L 821 94
L 822 109
L 823 120
L 824 131
L 826 152
L 827 173
L 828 187
L 829 193
L 830 207
L 831 227
L 832 236
L 833 243
L 834 246
L 835 246
L 836 249
L 837 256
L 838 265
L 839 272
L 840 277
L 841 281
L 842 288
L 843 289
L 844 302
L 845 304
L 846 303
L 847 305
L 848 308
L 849 308
L 850 309
L 851 303
L 852 308
L 853 313
L 854 315
L 855 316
L 856 317
L 857 316
L 858 320
L 860 318
L 861 314
L 862 313
L 863 314
L 864 315
L 865 316
L 866 315
L 867 315
L 868 321
L 869 320
L 870 319
L 871 319
L 872 323
L 873 325
L 874 326
L 875 326
L 876 329
L 877 332
L 878 333
L 879 332
L 880 333
L 881 333
L 882 333
L 883 334
L 884 332
L 885 332
L 886 332
L 887 332
L 888 332
L 889 332
L 890 330
L 891 330
L 892 331
L 894 330
L 895 330
L 896 329
L 897 326
L 898 325
L 899 324
L 900 322
L 901 323
L 902 319
L 903 318
L 904 316
L 905 317
L 906 312
L 907 311
L 908 308
L 909 307
L 910 299
L 911 299
L 912 296
L 913 297
L 914 296
L 915 294
L 916 292
L 917 295
L 918 287
L 919 284
L 920 281
L 921 280
L 922 280
L 923 279
L 924 278
L 925 282
L 926 278
L 928 276
L 929 274
L 930 270
L 931 269
L 932 265
L 933 263
L 934 265
L 935 267
L 936 266
L 937 265
L 938 263
L 939 261
L 940 262
L 941 262
L 942 262
L 943 265
L 944 266
L 945 269
L 946 275
L 947 277
L 948 283
L 949 287
L 950 285
L 951 292
L 952 296
L 953 297
L 954 297
L 955 297
L 956 298
L 957 299
L 958 299
L 959 299
L 960 301
L 961 303" style="stroke-width:1;stroke:rgba(0,116,217,1.0);fill:none"/><path  d="M 38 351
L 40 351
L 41 351
L 42 351
L 43 351
L 44 351
L 45 351
L 46 351
L 47 351
L 48 351
L 49 351
L 50 351
L 51 351
L 52 351
L 53 351
L 54 351
L 55 351
L 56 351
L 57 350
L 58 350
L 59 351
L 60 351
L 61 351
L 62 350
L 63 351
L 64 350
L 65 350
L 66 351
L 67 350
L 68 350
L 69 351
L 70 350
L 71 351
L 72 350
L 74 350
L 75 350
L 76 350
L 77 351
L 78 351
L 79 351
L 80 350
L 81 350
L 82 351
L 83 351
L 84 350
L 85 351
L 86 350
L 87 351
L 88 350
L 89 351
L 90 351
L 91 350
L 92 351
L 93 351
L 94 351
L 95 351
L 96 351
L 97 351
L 98 351
L 99 351
L 100 351
L 101 350
L 102 351
L 103 351
L 104 350
L 105 351
L 106 351
L 108 351
L 109 351
L 110 350
L 111 350
L 112 350
L 113 350
L 114 351
L 115 351
L 116 351
L 117 351
L 118 351
L 119 351
L 120 351
L 121 351
L 122 351
L 123 350
L 124 350
L 125 351
L 126 351
L 127 350
L 128 351
L 129 351
L 130 351
L 131 351
L 132 351
L 133 351
L 134 351
L 135 351
L 136 351
L 137 351
L 138 351
L 139 351
L 140 351
L 142 351
L 143 351
L 144 351
L 145 351
L 146 351
L 147 351
L 148 351
L 149 351
L 150 351
L 151 351
L 152 351
L 153 351
L 154 350
L 155 351
L 156 351
L 157 351
L 158 351
L 159 351
L 160 351
L 161 351
L 162 350
L 163 350
L 164 351
L 165 351
L 166 350
L 167 351
L 168 351
L 169 351
L 170 350
L 171 351
L 172 351
L 173 351
L 174 351
L 176 351
L 177 351
L 178 351
L 179 351
L 180 351
L 181 350
L 182 350
L 183 350
L 184 350
L 185 350
L 186 350
L 187 350
L 188 350
L 189 350
L 190 351
L 191 351
L 192 351
L 193 350
L 194 351
L 195 351
L 196 351
L 197 351
L 198 351
L 199 350
L 200 351
L 201 351
L 202 351
L 203 351
L 204 351
L 205 351
L 206 351
L 207 351
L 208 351
L 210 351
L 211 351
L 212 351
L 213 350
L 214 350
L 215 351
L 216 351
L 217 351
L 218 350
L 219 350
L 220 351
L 221 350
L 222 351
L 223 350
L 224 350
L 225 350
L 226 350
L 227 350
L 228 350
L 229 350
L 230 350
L 231 350
L 232 350
L 233 350
L 234 350
L 235 350
L 236 350
L 237 350
L 238 350
L 239 350
L 240 350
L 241 350
L 242 350
L 243 350
L 245 350
L 246 350
L 247 350
L 248 350
L 249 350
L 250 350
L 251 349
L 252 350
L 253 350
L 254 350
L 255 350
L 256 350
L 257 351
L 258 350
L 259 350
L 260 350
L 261 350
L 262 350
L 263 350
L 264 350
L 265 350
L 266 350
L 267 350
L 268 350
L 269 350
L 270 350
L 271 350
L 272 351
L 273 350
L 274 350
L 275 350
L 276 350
L 277 350
L 279 350
L 280 349
L 281 350
L 282 349
L 283 350
L 284 348
L 285 348
L 286 347
L 287 349
L 288 349
L 289 349
L 290 348
L 291 346
L 292 347
L 293 347
L 294 348
L 295 349
L 296 349
L 297 348
L 298 348
L 299 349
L 300 348
L 301 349
L 302 349
L 303 348
L 304 349
L 305 347
L 306 348
L 307 348
L 308 348
L 309 348
L 310 349
L 311 347
L 313 349
L 314 348
L 315 349
L 316 348
L 317 349
L 318 349
L 319 349
L 320 349
L 321 349
L 322 349
L 323 349
L 324 348
L 325 350
L 326 349
L 327 349
L 328 349
L 329 349
L 330 349
L 331 349
L 332 350
L 333 350
L 334 350
L 335 350
L 336 350
L 337 350
L 338 349
L 339 349
L 340 349
L 341 350
L 342 350
L 343 350
L 344 349
L 345 350
L 347 350
L 348 349
L 349 350
L 350 350
L 351 350
L 352 350
L 353 350
L 354 350
L 355 349
L 356 349
L 357 350
L 358 350
L 359 349
L 360 349
L 361 349
L 362 349
L 363 348
L 364 350
L 365 349
L 366 348
L 367 350
L 368 350
L 369 348
L 370 349
L 371 350
L 372 350
L 373 350
L 374 350
L 375 349
L 376 350
L 377 350
L 378 350
L 379 349
L 381 349
L 382 350
L 383 350
L 384 350
L 385 349
L 386 349
L 387 349
L 388 350
L 389 350
L 390 349
L 391 348
L 392 348
L 393 348
L 394 349
L 395 349
L 396 349
L 397 349
L 398 349
L 399 347
L 400 349
L 401 350
L 402 349
L 403 350
L 404 349
L 405 349
L 406 349
L 407 349
L 408 346
L 409 348
L 410 349
L 411 348
L 412 348
L 413 347
L 414 348
L 416 349
L 417 347
L 418 349
L 419 347
L 420 347
L 421 347
L 422 348
L 423 345
L 424 348
L 425 347
L 426 348
L 427 348
L 428 347
L 429 347
L 430 347
L 431 347
L 432 349
L 433 348
L 434 348
L 435 346
L 436 348
L 437 348
L 438 348
L 439 348
L 440 348
L 441 349
L 442 349
L 443 350
L 444 349
L 445 349
L 446 349
L 447 349
L 448 347
L 450 349
L 451 349
L 452 348
L 453 349
L 454 349
L 455 349
L 456 349
L 457 350
L 458 349
L 459 348
L 460 349
L 461 349
L 462 350
L 463 349
L 464 350
L 465 349
L 466 350
L 467 350
L 468 350
L 469 350
L 470 349
L 471 350
L 472 350
L 473 350
L 474 350
L 475 350
L 476 349
L 477 350
L 478 350
L 479 350
L 480 350
L 481 350
L 482 350
L 484 350
L 485 350
L 486 350
L 487 350
L 488 350
L 489 350
L 490 350
L 491 350
L 492 350
L 493 350
L 494 350
L 495 350
L 496 350
L 497 350
L 498 350
L 499 350
L 500 350
L 501 350
L 502 350
L 503 350
L 504 350
L 505 350
L 506 350
L 507 350
L 508 350
L 509 350
L 510 351
L 511 351
L 512 350
L 513 351
L 514 351
L 515 350
L 516 350
L 518 351
L 519 351
L 520 350
L 521 350
L 522 350
L 523 351
L 524 350
L 525 350
L 526 351
L 527 351
L 528 351
L 529 351
L 530 350
L 531 351
L 532 351
L 533 351
L 534 351
L 535 351
L 536 351
L 537 351
L 538 351
L 539 351
L 540 350
L 541 351
L 542 350
L 543 350
L 544 351
L 545 351
L 546 351
L 547 351
L 548 351
L 549 351
L 550 351
L 552 351
L 553 350
L 554 351
L 555 350
L 556 350
L 557 350
L 558 350
L 559 351
L 560 350
L 561 350
L 562 350
L 563 351
L 564 351
L 565 350
L 566 350
L 567 350
L 568 350
L 569 351
L 570 351
L 571 350
L 572 351
L 573 350
L 574 350
L 575 350
L 576 351
L 577 351
L 578 350
L 579 350
L 580 350
L 581 350
L 582 350
L 583 350
L 584 350
L 586 350
L 587 350
L 588 350
L 589 350
L 590 350
L 591 350
L 592 350
L 593 349
L 594 350
L 595 350
L 596 350
L 597 350
L 598 350
L 599 349
L 600 349
L 601 349
L 602 350
L 603 349
L 604 349
L 605 350
L 606 349
L 607 349
L 608 350
L 609 350
L 610 349
L 611 350
L 612 350
L 613 350
L 614 350
L 615 349
L 616 349
L 617 350
L 618 350
L 619 350
L 621 349
L 622 349
L 623 349
L 624 349
L 625 350
L 626 350
L 627 350
L 628 349
L 629 349
L 630 349
L 631 350
L 632 349
L 633 350
L 634 350
L 635 350
L 636 350
L 637 350
L 638 350
L 639 350
L 640 350
L 641 350
L 642 350
L 643 349
L 644 350
L 645 350
L 646 350
L 647 349
L 648 350
L 649 350
L 650 350
L 651 349
L 652 350
L 653 349
L 655 349
L 656 349
L 657 349
L 658 349
L 659 349
L 660 349
L 661 349
L 662 350
L 663 349
L 664 350
L 665 349
L 666 349
L 667 348
L 668 348
L 669 348
L 670 349
L 671 348
L 672 347
L 673 346
L 674 344
L 675 344
L 676 347
L 677 347
L 678 348
L 679 345
L 680 345
L 681 345
L 682 346
L 683 346
L 684 345
L 685 347
L 686 343
L 687 344
L 689 345
L 690 343
L 691 342
L 692 345
L 693 345
L 694 341
L 695 345
L 696 345
L 697 344
L 698 346
L 699 347
L 700 345
L 701 345
L 702 346
L 703 347
L 704 347
L 705 348
L 706 349
L 707 348
L 708 348
L 709 349
L 710 348
L 711 348
L 712 349
L 713 349
L 714 349
L 715 349
L 716 349
L 717 349
L 718 349
L 719 350
L 720 350
L 721 350
L 723 350
L 724 350
L 725 350
L 726 349
L 727 350
L 728 349
L 729 349
L 730 349
L 731 349
L 732 349
L 733 349
L 734 350
L 735 349
L 736 348
L 737 348
L 738 347
L 739 348
L 740 348
L 741 346
L 742 345
L 743 345
L 744 343
L 745 343
L 746 342
L 747 345
L 748 347
L 749 342
L 750 344
L 751 340
L 752 342
L 753 340
L 754 342
L 755 342
L 757 340
L 758 338
L 759 336
L 760 336
L 761 337
L 762 338
L 763 338
L 764 341
L 765 337
L 766 331
L 767 336
L 768 337
L 769 339
L 770 335
L 771 338
L 772 338
L 773 333
L 774 338
L 775 334
L 776 336
L 777 339
L 778 340
L 779 335
L 780 328
L 781 333
L 782 334
L 783 336
L 784 339
L 785 341
L 786 338
L 787 333
L 788 338
L 789 336
L 790 339
L 792 340
L 793 337
L 794 334
L 795 336
L 796 333
L 797 340
L 798 337
L 799 339
L 800 340
L 801 326
L 802 331
L 803 326
L 804 327
L 805 329
L 806 332
L 807 339
L 808 320
L 809 321
L 810 324
L 811 332
L 812 331
L 813 335
L 814 339
L 815 325
L 816 327
L 817 334
L 818 331
L 819 333
L 820 338
L 821 343
L 822 332
L 823 332
L 824 339
L 826 341
L 827 343
L 828 344
L 829 346
L 830 339
L 831 341
L 832 344
L 833 345
L 834 345
L 835 345
L 836 348
L 837 343
L 838 345
L 839 347
L 840 347
L 841 347
L 842 348
L 843 348
L 844 349
L 845 346
L 846 347
L 847 348
L 848 348
L 849 348
L 850 348
L 851 346
L 852 349
L 853 349
L 854 349
L 855 349
L 856 348
L 857 348
L 858 348
L 860 348
L 861 347
L 862 349
L 863 349
L 864 349
L 865 349
L 866 347
L 867 348
L 868 349
L 869 348
L 870 349
L 871 349
L 872 350
L 873 348
L 874 349
L 875 349
L 876 350
L 877 350
L 878 350
L 879 350
L 880 349
L 881 349
L 882 349
L 883 350
L 884 349
L 885 350
L 886 350
L 887 348
L 888 349
L 889 349
L 890 349
L 891 349
L 892 350
L 894 349
L 895 349
L 896 348
L 897 348
L 898 349
L 899 348
L 900 349
L 901 350
L 902 347
L 903 348
L 904 347
L 905 349
L 906 346
L 907 348
L 908 348
L 909 346
L 910 344
L 911 347
L 912 347
L 913 347
L 914 348
L 915 348
L 916 345
L 917 346
L 918 343
L 919 346
L 920 345
L 921 347
L 922 348
L 923 344
L 924 345
L 925 345
L 926 344
L 928 345
L 929 346
L 930 346
L 931 344
L 932 344
L 933 345
L 934 345
L 935 345
L 936 346
L 937 346
L 938 343
L 939 343
L 940 345
L 941 345
L 942 345
L 943 347
L 944 346
L 945 344
L 946 345
L 947 346
L 948 348
L 949 347
L 950 346
L 951 349
L 952 346
L 953 345
L 954 346
L 955 348
L 956 347
L 957 347
L 958 349
L 959 346
L 960 346
L 961 347" style="stroke-width:1;stroke:rgba(0,217,101,1.0);fill:none"/><path  d="M 38 351
L 40 351
L 41 351
L 42 351
L 43 351
L 44 351
L 45 351
L 46 351
L 47 351
L 48 351
L 49 351
L 50 351
L 51 351
L 52 351
L 53 351
L 54 351
L 55 351
L 56 351
L 57 351
L 58 351
L 59 351
L 60 351
L 61 351
L 62 351
L 63 351
L 64 351
L 65 351
L 66 351
L 67 351
L 68 351
L 69 351
L 70 351
L 71 351
L 72 351
L 74 351
L 75 351
L 76 351
L 77 351
L 78 351
L 79 351
L 80 351
L 81 351
L 82 351
L 83 351
L 84 351
L 85 351
L 86 351
L 87 351
L 88 351
L 89 351
L 90 351
L 91 351
L 92 351
L 93 351
L 94 351
L 95 351
L 96 351
L 97 351
L 98 351
L 99 351
L 100 351
L 101 351
L 102 351
L 103 351
L 104 351
L 105 351
L 106 351
L 108 351
L 109 351
L 110 351
L 111 351
L 112 351
L 113 351
L 114 351
L 115 351
L 116 351
L 117 351
L 118 351
L 119 351
L 120 351
L 121 351
L 122 351
L 123 351
L 124 351
L 125 351
L 126 351
L 127 351
L 128 351
L 129 351
L 130 351
L 131 351
L 132 351
L 133 351
L 134 351
L 135 351
L 136 351
L 137 351
L 138 351
L 139 351
L 140 351
L 142 351
L 143 351
L 144 351
L 145 351
L 146 351
L 147 351
L 148 351
L 149 351
L 150 351
L 151 351
L 152 351
L 153 351
L 154 351
L 155 351
L 156 351
L 157 351
L 158 351
L 159 351
L 160 351
L 161 351
L 162 351
L 163 351
L 164 351
L 165 351
L 166 351
L 167 351
L 168 351
L 169 351
L 170 351
L 171 351
L 172 351
L 173 351
L 174 351
L 176 351
L 177 351
L 178 351
L 179 351
L 180 351
L 181 351
L 182 351
L 183 351
L 184 351
L 185 351
L 186 351
L 187 351
L 188 351
L 189 351
L 190 351
L 191 351
L 192 351
L 193 351
L 194 351
L 195 351
L 196 351
L 197 351
L 198 351
L 199 351
L 200 351
L 201 351
L 202 351
L 203 351
L 204 351
L 205 351
L 206 351
L 207 351
L 208 351
L 210 351
L 211 351
L 212 351
L 213 351
L 214 351
L 215 351
L 216 351
L 217 351
L 218 351
L 219 351
L 220 351
L 221 351
L 222 351
L 223 351
L 224 351
L 225 351
L 226 351
L 227 351
L 228 351
L 229 351
L 230 351
L 231 351
L 232 351
L 233 351
L 234 351
L 235 351
L 236 351
L 237 351
L 238 351
L 239 351
L 240 351
L 241 351
L 242 351
L 243 351
L 245 351
L 246 351
L 247 351
L 248 351
L 249 351
L 250 351
L 251 351
L 252 351
L 253 351
L 254 351
L 255 351
L 256 351
L 257 351
L 258 351
L 259 351
L 260 351
L 261 351
L 262 351
L 263 351
L 264 351
L 265 351
L 266 351
L 267 351
L 268 351
L 269 351
L 270 351
L 271 351
L 272 351
L 273 351
L 274 351
L 275 351
L 276 351
L 277 351
L 279 351
L 280 350
L 281 351
L 282 351
L 283 351
L 284 351
L 285 351
L 286 351
L 287 351
L 288 350
L 289 351
L 290 351
L 291 351
L 292 350
L 293 351
L 294 350
L 295 350
L 296 351
L 297 350
L 298 350
L 299 350
L 300 350
L 301 350
L 302 350
L 303 351
L 304 350
L 305 350
L 306 351
L 307 350
L 308 350
L 309 351
L 310 351
L 311 350
L 313 350
L 314 351
L 315 350
L 316 350
L 317 351
L 318 351
L 319 351
L 320 351
L 321 351
L 322 350
L 323 351
L 324 351
L 325 350
L 326 350
L 327 351
L 328 350
L 329 351
L 330 351
L 331 351
L 332 350
L 333 351
L 334 351
L 335 351
L 336 350
L 337 350
L 338 351
L 339 351
L 340 351
L 341 351
L 342 351
L 343 351
L 344 351
L 345 351
L 347 351
L 348 350
L 349 350
L 350 351
L 351 351
L 352 351
L 353 351
L 354 350
L 355 350
L 356 351
L 357 351
L 358 351
L 359 351
L 360 351
L 361 351
L 362 351
L 363 351
L 364 350
L 365 351
L 366 350
L 367 350
L 368 351
L 369 351
L 370 350
L 371 350
L 372 350
L 373 351
L 374 350
L 375 350
L 376 351
L 377 351
L 378 350
L 379 350
L 381 350
L 382 350
L 383 350
L 384 351
L 385 350
L 386 351
L 387 351
L 388 351
L 389 350
L 390 350
L 391 351
L 392 350
L 393 351
L 394 350
L 395 350
L 396 350
L 397 351
L 398 351
L 399 351
L 400 351
L 401 350
L 402 351
L 403 351
L 404 350
L 405 351
L 406 350
L 407 351
L 408 350
L 409 351
L 410 351
L 411 351
L 412 351
L 413 351
L 414 351
L 416 351
L 417 351
L 418 350
L 419 351
L 420 351
L 421 351
L 422 351
L 423 351
L 424 351
L 425 351
L 426 351
L 427 351
L 428 351
L 429 350
L 430 351
L 431 350
L 432 350
L 433 351
L 434 351
L 435 350
L 436 350
L 437 351
L 438 350
L 439 351
L 440 350
L 441 351
L 442 351
L 443 351
L 444 351
L 445 351
L 446 351
L 447 351
L 448 350
L 450 351
L 451 350
L 452 351
L 453 350
L 454 351
L 455 350
L 456 351
L 457 351
L 458 351
L 459 351
L 460 350
L 461 351
L 462 350
L 463 351
L 464 351
L 465 350
L 466 351
L 467 350
L 468 351
L 469 351
L 470 351
L 471 351
L 472 351
L 473 351
L 474 350
L 475 351
L 476 351
L 477 351
L 478 351
L 479 350
L 480 351
L 481 351
L 482 351
L 484 351
L 485 351
L 486 350
L 487 351
L 488 351
L 489 351
L 490 351
L 491 351
L 492 351
L 493 350
L 494 351
L 495 351
L 496 351
L 497 351
L 498 351
L 499 351
L 500 351
L 501 351
L 502 351
L 503 351
L 504 351
L 505 351
L 506 350
L 507 351
L 508 351
L 509 351
L 510 351
L 511 351
L 512 351
L 513 351
L 514 351
L 515 351
L 516 351
L 518 351
L 519 351
L 520 351
L 521 351
L 522 351
L 523 351
L 524 351
L 525 351
L 526 351
L 527 351
L 528 351
L 529 351
L 530 351
L 531 351
L 532 351
L 533 351
L 534 351
L 535 351
L 536 351
L 537 351
L 538 351
L 539 351
L 540 351
L 541 351
L 542 351
L 543 351
L 544 351
L 545 351
L 546 351
L 547 351
L 548 351
L 549 351
L 550 351
L 552 351
L 553 351
L 554 351
L 555 351
L 556 351
L 557 351
L 558 351
L 559 351
L 560 351
L 561 351
L 562 351
L 563 351
L 564 351
L 565 351
L 566 351
L 567 351
L 568 351
L 569 351
L 570 351
L 571 351
L 572 351
L 573 351
L 574 351
L 575 351
L 576 351
L 577 351
L 578 351
L 579 351
L 580 351
L 581 351
L 582 351
L 583 351
L 584 351
L 586 351
L 587 351
L 588 351
L 589 351
L 590 351
L 591 351
L 592 351
L 593 351
L 594 351
L 595 351
L 596 351
L 597 351
L 598 351
L 599 351
L 600 351
L 601 351
L 602 351
L 603 351
L 604 351
L 605 351
L 606 351
L 607 351
L 608 351
L 609 351
L 610 351
L 611 351
L 612 351
L 613 351
L 614 351
L 615 351
L 616 351
L 617 351
L 618 351
L 619 351
L 621 350
L 622 350
L 623 351
L 624 351
L 625 351
L 626 351
L 627 351
L 628 351
L 629 351
L 630 351
L 631 350
L 632 351
L 633 350
L 634 350
L 635 351
L 636 351
L 637 351
L 638 351
L 639 351
L 640 351
L 641 351
L 642 351
L 643 351
L 644 351
L 645 351
L 646 351
L 647 351
L 648 351
L 649 351
L 650 350
L 651 351
L 652 351
L 653 351
L 655 351
L 656 350
L 657 350
L 658 351
L 659 351
L 660 351
L 661 351
L 662 351
L 663 350
L 664 351
L 665 351
L 666 350
L 667 351
L 668 351
L 669 350
L 670 351
L 671 351
L 672 350
L 673 351
L 674 351
L 675 351
L 676 351
L 677 351
L 678 351
L 679 351
L 680 350
L 681 350
L 682 351
L 683 351
L 684 350
L 685 350
L 686 351
L 687 351
L 689 350
L 690 350
L 691 351
L 692 350
L 693 351
L 694 351
L 695 350
L 696 350
L 697 351
L 698 351
L 699 351
L 700 351
L 701 351
L 702 351
L 703 351
L 704 351
L 705 351
L 706 350
L 707 350
L 708 350
L 709 351
L 710 351
L 711 351
L 712 351
L 713 351
L 714 350
L 715 350
L 716 350
L 717 350
L 718 351
L 719 351
L 720 351
L 721 350
L 723 351
L 724 350
L 725 351
L 726 351
L 727 350
L 728 351
L 729 351
L 730 351
L 731 351
L 732 350
L 733 351
L 734 351
L 735 351
L 736 350
L 737 351
L 738 351
L 739 351
L 740 350
L 741 351
L 742 351
L 743 351
L 744 351
L 745 351
L 746 351
L 747 351
L 748 351
L 749 351
L 750 351
L 751 351
L 752 351
L 753 351
L 754 351
L 755 351
L 757 351
L 758 351
L 759 351
L 760 351
L 761 351
L 762 351
L 763 351
L 764 351
L 765 351
L 766 351
L 767 351
L 768 351
L 769 351
L 770 351
L 771 351
L 772 351
L 773 351
L 774 350
L 775 351
L 776 350
L 777 350
L 778 350
L 779 351
L 780 351
L 781 351
L 782 351
L 783 351
L 784 351
L 785 350
L 786 350
L 787 351
L 788 350
L 789 351
L 790 350
L 792 350
L 793 350
L 794 351
L 795 350
L 796 351
L 797 351
L 798 351
L 799 351
L 800 351
L 801 350
L 802 351
L 803 351
L 804 351
L 805 351
L 806 350
L 807 351
L 808 351
L 809 351
L 810 350
L 811 351
L 812 351
L 813 350
L 814 351
L 815 350
L 816 350
L 817 351
L 818 351
L 819 351
L 820 351
L 821 351
L 822 350
L 823 350
L 824 351
L 826 350
L 827 351
L 828 351
L 829 351
L 830 351
L 831 351
L 832 351
L 833 350
L 834 350
L 835 351
L 836 351
L 837 351
L 838 351
L 839 351
L 840 351
L 841 351
L 842 350
L 843 351
L 844 350
L 845 351
L 846 350
L 847 351
L 848 351
L 849 351
L 850 351
L 851 350
L 852 351
L 853 351
L 854 351
L 855 351
L 856 351
L 857 351
L 858 351
L 860 351
L 861 351
L 862 351
L 863 351
L 864 351
L 865 350
L 866 351
L 867 351
L 868 350
L 869 351
L 870 351
L 871 351
L 872 351
L 873 351
L 874 351
L 875 351
L 876 351
L 877 351
L 878 351
L 879 351
L 880 351
L 881 351
L 882 351
L 883 351
L 884 350
L 885 351
L 886 351
L 887 351
L 888 351
L 889 351
L 890 351
L 891 351
L 892 351
L 894 351
L 895 351
L 896 351
L 897 351
L 898 351
L 899 351
L 900 351
L 901 351
L 902 351
L 903 350
L 904 351
L 905 351
L 906 351
L 907 351
L 908 351
L 909 351
L 910 351
L 911 351
L 912 351
L 913 350
L 914 351
L 915 351
L 916 351
L 917 351
L 918 351
L 919 351
L 920 350
L 921 351
L 922 351
L 923 350
L 924 351
L 925 351
L 926 351
L 928 350
L 929 351
L 930 351
L 931 351
L 932 351
L 933 351
L 934 351
L 935 351
L 936 351
L 937 351
L 938 351
L 939 351
L 940 351
L 941 350
L 942 351
L 943 351
L 944 351
L 945 351
L 946 350
L 947 351
L 948 351
L 949 351
L 950 351
L 951 351
L 952 350
L 953 351
L 954 351
L 955 351
L 956 351
L 957 351
L 958 351
L 959 351
L 960 351
L 961 351" style="stroke-width:1;stroke:rgba(217,0,116,1.0);fill:none"/><text x="329" y="33" style="stroke-width:0;stroke:none;fill:rgba(51,51,51,1.0);font-size:23.0px;font-family:'Roboto Medium',sans-serif">Wiener Neustadt(Stadt) 10.08.2022</text><path  d="M 38 11
L 251 11
L 251 91
L 38 91
L 38 11" style="stroke-width:1;stroke:rgba(51,51,51,1.0);fill:rgba(255,255,255,1.0)"/><text x="43" y="26" style="stroke-width:0;stroke:none;fill:rgba(51,51,51,1.0);font-size:10.2px;font-family:'Roboto Medium',sans-serif">Sieben Tage Durschnitt Inzidenz Fälle</text><path  d="M 221 21
L 241 21" style="stroke-width:1;stroke:rgba(0,116,217,1.0);fill:none"/><text x="43" y="56" style="stroke-width:0;stroke:none;fill:rgba(51,51,51,1.0);font-size:10.2px;font-family:'Roboto Medium',sans-serif">Anzahl Faelle</text><path  d="M 110 51
L 241 51" style="stroke-width:1;stroke:rgba(0,217,101,1.0);fill:none"/><text x="43" y="86" style="stroke-width:0;stroke:none;fill:rgba(51,51,51,1.0);font-size:10.2px;font-family:'Roboto Medium',sans-serif">Anzahl Tot</text><path  d="M 98 81
L 241 81" style="stroke-width:1;stroke:rgba(217,0,116,1.0);fill:none"/></svg>