<svg xmlns="http://www.w3.org/2000/svg" xmlns:xlink="http://www.w3.org/1999/xlink" width="1024" height="400">\n<path  d="M 0 0
L 1024 0
L 1024 400
L 0 400
L 0 0" style="stroke-width:0;stroke:rgba(255,255,255,1.0);fill:rgba(255,255,255,1.0)"/><path  d="M 38 11
L 961 11
L 961 351
L 38 351
L 38 11" style="stroke-width:0;stroke:rgba(255,255,255,1.0);fill:rgba(255,255,255,1.0)"/><path  d="M 38 351
L 961 351" style="stroke-width:1;stroke:rgba(51,51,51,1.0);fill:none"/><path  d="M 38 351
L 38 356" style="stroke-width:1;stroke:rgba(51,51,51,1.0);fill:none"/><text x="5" y="373" style="stroke-width:0;stroke:none;fill:rgba(51,51,51,1.0);font-size:12.8px;font-family:'Roboto Medium',sans-serif">2020-02-26</text><path  d="M 154 351
L 154 356" style="stroke-width:1;stroke:rgba(51,51,51,1.0);fill:none"/><text x="121" y="373" style="stroke-width:0;stroke:none;fill:rgba(51,51,51,1.0);font-size:12.8px;font-family:'Roboto Medium',sans-serif">2020-04-01</text><path  d="M 269 351
L 269 356" style="stroke-width:1;stroke:rgba(51,51,51,1.0);fill:none"/><text x="236" y="373" style="stroke-width:0;stroke:none;fill:rgba(51,51,51,1.0);font-size:12.8px;font-family:'Roboto Medium',sans-serif">2020-05-06</text><path  d="M 385 351
L 385 356" style="stroke-width:1;stroke:rgba(51,51,51,1.0);fill:none"/><text x="352" y="373" style="stroke-width:0;stroke:none;fill:rgba(51,51,51,1.0);font-size:12.8px;font-family:'Roboto Medium',sans-serif">2020-06-10</text><path  d="M 500 351
L 500 356" style="stroke-width:1;stroke:rgba(51,51,51,1.0);fill:none"/><text x="467" y="373" style="stroke-width:0;stroke:none;fill:rgba(51,51,51,1.0);font-size:12.8px;font-family:'Roboto Medium',sans-serif">2020-07-15</text><path  d="M 615 351
L 615 356" style="stroke-width:1;stroke:rgba(51,51,51,1.0);fill:none"/><text x="582" y="373" style="stroke-width:0;stroke:none;fill:rgba(51,51,51,1.0);font-size:12.8px;font-family:'Roboto Medium',sans-serif">2020-08-19</text><path  d="M 731 351
L 731 356" style="stroke-width:1;stroke:rgba(51,51,51,1.0);fill:none"/><text x="698" y="373" style="stroke-width:0;stroke:none;fill:rgba(51,51,51,1.0);font-size:12.8px;font-family:'Roboto Medium',sans-serif">2020-09-23</text><path  d="M 846 351
L 846 356" style="stroke-width:1;stroke:rgba(51,51,51,1.0);fill:none"/><text x="813" y="373" style="stroke-width:0;stroke:none;fill:rgba(51,51,51,1.0);font-size:12.8px;font-family:'Roboto Medium',sans-serif">2020-10-28</text><path  d="M 961 351
L 961 356" style="stroke-width:1;stroke:rgba(51,51,51,1.0);fill:none"/><text x="928" y="373" style="stroke-width:0;stroke:none;fill:rgba(51,51,51,1.0);font-size:12.8px;font-family:'Roboto Medium',sans-serif">2020-12-03</text><text x="481" y="395" style="stroke-width:0;stroke:none;fill:rgba(51,51,51,1.0);font-size:12.8px;font-family:'Roboto Medium',sans-serif">Datum</text><path  d="M 962 351
L 962 11" style="stroke-width:1;stroke:rgba(51,51,51,1.0);fill:none"/><path  d="M 962 351
L 967 351" style="stroke-width:1;stroke:rgba(51,51,51,1.0);fill:none"/><text x="972" y="357" style="stroke-width:0;stroke:none;fill:rgba(51,51,51,1.0);font-size:12.8px;font-family:'Roboto Medium',sans-serif">0.00</text><path  d="M 962 308
L 967 308" style="stroke-width:1;stroke:rgba(51,51,51,1.0);fill:none"/><text x="972" y="314" style="stroke-width:0;stroke:none;fill:rgba(51,51,51,1.0);font-size:12.8px;font-family:'Roboto Medium',sans-serif">250.00</text><path  d="M 962 266
L 967 266" style="stroke-width:1;stroke:rgba(51,51,51,1.0);fill:none"/><text x="972" y="272" style="stroke-width:0;stroke:none;fill:rgba(51,51,51,1.0);font-size:12.8px;font-family:'Roboto Medium',sans-serif">500.00</text><path  d="M 962 223
L 967 223" style="stroke-width:1;stroke:rgba(51,51,51,1.0);fill:none"/><text x="972" y="229" style="stroke-width:0;stroke:none;fill:rgba(51,51,51,1.0);font-size:12.8px;font-family:'Roboto Medium',sans-serif">750.00</text><path  d="M 962 181
L 967 181" style="stroke-width:1;stroke:rgba(51,51,51,1.0);fill:none"/><text x="972" y="187" style="stroke-width:0;stroke:none;fill:rgba(51,51,51,1.0);font-size:12.8px;font-family:'Roboto Medium',sans-serif">1000.00</text><path  d="M 962 138
L 967 138" style="stroke-width:1;stroke:rgba(51,51,51,1.0);fill:none"/><text x="972" y="144" style="stroke-width:0;stroke:none;fill:rgba(51,51,51,1.0);font-size:12.8px;font-family:'Roboto Medium',sans-serif">1250.00</text><path  d="M 962 96
L 967 96" style="stroke-width:1;stroke:rgba(51,51,51,1.0);fill:none"/><text x="972" y="102" style="stroke-width:0;stroke:none;fill:rgba(51,51,51,1.0);font-size:12.8px;font-family:'Roboto Medium',sans-serif">1500.00</text><path  d="M 962 53
L 967 53" style="stroke-width:1;stroke:rgba(51,51,51,1.0);fill:none"/><text x="972" y="59" style="stroke-width:0;stroke:none;fill:rgba(51,51,51,1.0);font-size:12.8px;font-family:'Roboto Medium',sans-serif">1750.00</text><path  d="M 962 11
L 967 11" style="stroke-width:1;stroke:rgba(51,51,51,1.0);fill:none"/><text x="972" y="17" style="stroke-width:0;stroke:none;fill:rgba(51,51,51,1.0);font-size:12.8px;font-family:'Roboto Medium',sans-serif">2000.00</text><path  d="M 38 350
L 42 350
L 45 350
L 48 350
L 52 350
L 55 350
L 58 350
L 61 350
L 65 350
L 68 350
L 71 350
L 75 350
L 78 350
L 81 350
L 84 350
L 88 350
L 91 350
L 94 350
L 98 350
L 101 349
L 104 349
L 107 349
L 111 348
L 114 348
L 117 348
L 121 347
L 124 347
L 127 346
L 130 346
L 134 345
L 137 344
L 140 344
L 144 344
L 147 344
L 150 344
L 153 343
L 157 345
L 160 345
L 163 345
L 167 345
L 170 346
L 173 347
L 176 347
L 180 348
L 183 348
L 186 348
L 190 348
L 193 348
L 196 348
L 199 349
L 203 349
L 206 349
L 209 349
L 213 349
L 216 349
L 219 349
L 222 349
L 226 349
L 229 349
L 232 349
L 236 349
L 239 349
L 242 349
L 245 349
L 249 349
L 252 349
L 255 349
L 259 349
L 262 349
L 265 349
L 268 349
L 272 349
L 275 349
L 278 349
L 282 349
L 285 349
L 288 349
L 291 349
L 295 349
L 298 348
L 301 348
L 305 348
L 308 349
L 311 348
L 314 349
L 318 349
L 321 349
L 324 349
L 328 349
L 331 349
L 334 349
L 337 349
L 341 349
L 344 349
L 347 349
L 351 349
L 354 349
L 357 349
L 360 349
L 364 349
L 367 349
L 370 349
L 374 349
L 377 349
L 380 349
L 383 349
L 387 349
L 390 349
L 393 349
L 397 349
L 400 349
L 403 349
L 406 349
L 410 349
L 413 349
L 416 349
L 420 349
L 423 349
L 426 349
L 429 349
L 433 349
L 436 349
L 439 349
L 443 349
L 446 349
L 449 349
L 452 349
L 456 349
L 459 349
L 462 349
L 466 348
L 469 349
L 472 349
L 475 348
L 479 348
L 482 349
L 485 349
L 489 349
L 492 349
L 495 348
L 498 349
L 502 348
L 505 348
L 508 348
L 511 348
L 515 348
L 518 348
L 521 348
L 525 348
L 528 348
L 531 348
L 534 348
L 538 348
L 541 347
L 544 348
L 548 347
L 551 347
L 554 347
L 557 347
L 561 347
L 564 348
L 567 347
L 571 347
L 574 348
L 577 347
L 580 347
L 584 347
L 587 347
L 590 347
L 594 347
L 597 345
L 600 345
L 603 345
L 607 344
L 610 344
L 613 344
L 617 343
L 620 343
L 623 343
L 626 342
L 630 343
L 633 342
L 636 343
L 640 343
L 643 343
L 646 343
L 649 343
L 653 343
L 656 343
L 659 342
L 663 341
L 666 341
L 669 342
L 672 341
L 676 340
L 679 338
L 682 337
L 686 336
L 689 334
L 692 333
L 695 333
L 699 332
L 702 331
L 705 331
L 709 331
L 712 331
L 715 330
L 718 330
L 722 331
L 725 331
L 728 331
L 732 331
L 735 333
L 738 333
L 741 332
L 745 331
L 748 331
L 751 331
L 755 331
L 758 329
L 761 329
L 764 329
L 768 329
L 771 328
L 774 325
L 778 325
L 781 325
L 784 324
L 787 325
L 791 325
L 794 326
L 797 327
L 801 328
L 804 326
L 807 327
L 810 326
L 814 326
L 817 325
L 820 323
L 824 319
L 827 318
L 830 314
L 833 312
L 837 310
L 840 305
L 843 302
L 847 302
L 850 299
L 853 296
L 856 294
L 860 290
L 863 292
L 866 289
L 870 288
L 873 290
L 876 294
L 879 295
L 883 294
L 886 290
L 889 284
L 893 279
L 896 279
L 899 275
L 902 277
L 906 280
L 909 281
L 912 289
L 916 291
L 919 293
L 922 296
L 925 296
L 929 297
L 932 300
L 935 302
L 939 307
L 942 310
L 945 310
L 948 310
L 952 309
L 955 313
L 958 315
L 961 316" style="stroke-width:1;stroke:rgba(0,116,217,1.0);fill:none"/><path  d="M 38 350
L 42 350
L 45 350
L 48 350
L 52 350
L 55 350
L 58 350
L 61 350
L 65 350
L 68 349
L 71 350
L 75 350
L 78 350
L 81 349
L 84 347
L 88 350
L 91 348
L 94 348
L 98 346
L 101 347
L 104 341
L 107 341
L 111 342
L 114 339
L 117 347
L 121 337
L 124 330
L 127 331
L 130 339
L 134 317
L 137 330
L 140 343
L 144 348
L 147 317
L 150 331
L 153 331
L 157 341
L 160 339
L 163 349
L 167 347
L 170 338
L 173 342
L 176 340
L 180 345
L 183 343
L 186 346
L 190 347
L 193 347
L 196 342
L 199 346
L 203 345
L 206 346
L 209 347
L 213 348
L 216 348
L 219 345
L 222 346
L 226 347
L 229 345
L 232 347
L 236 348
L 239 344
L 242 346
L 245 345
L 249 345
L 252 346
L 255 347
L 259 350
L 262 347
L 265 345
L 268 347
L 272 347
L 275 345
L 278 349
L 282 349
L 285 341
L 288 346
L 291 343
L 295 344
L 298 341
L 301 349
L 305 348
L 308 344
L 311 345
L 314 348
L 318 347
L 321 347
L 324 347
L 328 348
L 331 347
L 334 348
L 337 344
L 341 348
L 344 344
L 347 346
L 351 350
L 354 348
L 357 349
L 360 344
L 364 349
L 367 343
L 370 346
L 374 347
L 377 348
L 380 349
L 383 347
L 387 348
L 390 347
L 393 348
L 397 348
L 400 343
L 403 349
L 406 346
L 410 347
L 413 345
L 416 349
L 420 348
L 423 346
L 426 348
L 429 349
L 433 347
L 436 345
L 439 348
L 443 349
L 446 345
L 449 345
L 452 345
L 456 349
L 459 339
L 462 345
L 466 347
L 469 346
L 472 346
L 475 341
L 479 349
L 482 345
L 485 347
L 489 347
L 492 342
L 495 344
L 498 342
L 502 345
L 505 342
L 508 346
L 511 345
L 515 344
L 518 344
L 521 340
L 525 344
L 528 339
L 531 345
L 534 345
L 538 344
L 541 337
L 544 347
L 548 336
L 551 338
L 554 346
L 557 344
L 561 342
L 564 347
L 567 334
L 571 340
L 574 343
L 577 340
L 580 345
L 584 337
L 587 338
L 590 337
L 594 337
L 597 323
L 600 339
L 603 338
L 607 326
L 610 338
L 613 320
L 617 321
L 620 326
L 623 333
L 626 334
L 630 329
L 633 329
L 636 329
L 640 339
L 643 315
L 646 334
L 649 331
L 653 337
L 656 327
L 659 315
L 663 317
L 666 315
L 669 340
L 672 315
L 676 313
L 679 305
L 682 286
L 686 303
L 689 275
L 692 324
L 695 320
L 699 280
L 702 297
L 705 283
L 709 292
L 712 280
L 715 302
L 718 323
L 722 311
L 725 294
L 728 277
L 732 300
L 735 303
L 738 303
L 741 306
L 745 290
L 748 293
L 751 288
L 755 298
L 758 269
L 761 307
L 764 303
L 768 279
L 771 275
L 774 244
L 778 288
L 781 271
L 784 292
L 787 310
L 791 295
L 794 280
L 797 269
L 801 303
L 804 235
L 807 303
L 810 307
L 814 288
L 817 254
L 820 236
L 824 220
L 827 215
L 830 233
L 833 274
L 837 248
L 840 150
L 843 190
L 847 224
L 850 142
L 853 189
L 856 223
L 860 174
L 863 192
L 866 133
L 870 202
L 873 179
L 876 276
L 879 235
L 883 157
L 886 112
L 889 18
L 893 116
L 896 165
L 899 202
L 902 278
L 906 212
L 909 135
L 912 171
L 916 149
L 919 209
L 922 251
L 925 285
L 929 240
L 932 177
L 935 218
L 939 246
L 942 255
L 945 261
L 948 282
L 952 231
L 955 246
L 958 250
L 961 273" style="stroke-width:1;stroke:rgba(0,217,101,1.0);fill:none"/><path  d="M 38 351
L 42 351
L 45 351
L 48 351
L 52 351
L 55 351
L 58 351
L 61 351
L 65 351
L 68 351
L 71 351
L 75 351
L 78 351
L 81 351
L 84 351
L 88 350
L 91 351
L 94 350
L 98 350
L 101 350
L 104 351
L 107 350
L 111 350
L 114 351
L 117 350
L 121 350
L 124 350
L 127 350
L 130 350
L 134 349
L 137 350
L 140 350
L 144 350
L 147 350
L 150 350
L 153 351
L 157 350
L 160 350
L 163 349
L 167 349
L 170 349
L 173 350
L 176 350
L 180 350
L 183 349
L 186 350
L 190 350
L 193 350
L 196 350
L 199 350
L 203 349
L 206 350
L 209 350
L 213 350
L 216 350
L 219 349
L 222 350
L 226 350
L 229 350
L 232 350
L 236 350
L 239 350
L 242 350
L 245 351
L 249 350
L 252 350
L 255 351
L 259 350
L 262 351
L 265 351
L 268 350
L 272 350
L 275 350
L 278 350
L 282 350
L 285 350
L 288 351
L 291 351
L 295 350
L 298 351
L 301 351
L 305 351
L 308 351
L 311 351
L 314 351
L 318 350
L 321 350
L 324 350
L 328 351
L 331 350
L 334 350
L 337 351
L 341 351
L 344 351
L 347 351
L 351 351
L 354 351
L 357 351
L 360 350
L 364 351
L 367 350
L 370 351
L 374 351
L 377 351
L 380 350
L 383 350
L 387 351
L 390 351
L 393 350
L 397 350
L 400 350
L 403 350
L 406 350
L 410 351
L 413 351
L 416 350
L 420 350
L 423 350
L 426 350
L 429 350
L 433 351
L 436 351
L 439 350
L 443 350
L 446 351
L 449 351
L 452 351
L 456 351
L 459 351
L 462 351
L 466 351
L 469 351
L 472 351
L 475 351
L 479 351
L 482 351
L 485 350
L 489 351
L 492 350
L 495 351
L 498 350
L 502 351
L 505 351
L 508 351
L 511 351
L 515 350
L 518 351
L 521 351
L 525 350
L 528 351
L 531 351
L 534 351
L 538 351
L 541 351
L 544 351
L 548 351
L 551 351
L 554 351
L 557 351
L 561 351
L 564 351
L 567 351
L 571 351
L 574 351
L 577 351
L 580 351
L 584 351
L 587 350
L 590 351
L 594 350
L 597 350
L 600 351
L 603 351
L 607 351
L 610 351
L 613 350
L 617 351
L 620 351
L 623 351
L 626 351
L 630 350
L 633 351
L 636 351
L 640 351
L 643 351
L 646 351
L 649 351
L 653 350
L 656 351
L 659 351
L 663 351
L 666 350
L 669 351
L 672 351
L 676 351
L 679 350
L 682 351
L 686 350
L 689 350
L 692 351
L 695 351
L 699 351
L 702 351
L 705 350
L 709 350
L 712 350
L 715 351
L 718 350
L 722 350
L 725 351
L 728 350
L 732 351
L 735 350
L 738 350
L 741 350
L 745 351
L 748 350
L 751 351
L 755 350
L 758 350
L 761 350
L 764 350
L 768 350
L 771 350
L 774 350
L 778 350
L 781 350
L 784 350
L 787 351
L 791 350
L 794 350
L 797 350
L 801 350
L 804 350
L 807 349
L 810 350
L 814 350
L 817 350
L 820 349
L 824 350
L 827 350
L 830 350
L 833 349
L 837 349
L 840 349
L 843 350
L 847 350
L 850 349
L 853 350
L 856 349
L 860 349
L 863 349
L 866 349
L 870 349
L 873 350
L 876 349
L 879 350
L 883 349
L 886 349
L 889 349
L 893 348
L 896 348
L 899 348
L 902 349
L 906 348
L 909 349
L 912 348
L 916 348
L 919 348
L 922 348
L 925 348
L 929 348
L 932 349
L 935 348
L 939 348
L 942 348
L 945 349
L 948 348
L 952 349
L 955 348
L 958 348
L 961 348" style="stroke-width:1;stroke:rgba(217,0,116,1.0);fill:none"/><text x="425" y="33" style="stroke-width:0;stroke:none;fill:rgba(51,51,51,1.0);font-size:23.0px;font-family:'Roboto Medium',sans-serif">Wien 03.12.2020</text><path  d="M 38 11
L 251 11
L 251 91
L 38 91
L 38 11" style="stroke-width:1;stroke:rgba(51,51,51,1.0);fill:rgba(255,255,255,1.0)"/><text x="43" y="26" style="stroke-width:0;stroke:none;fill:rgba(51,51,51,1.0);font-size:10.2px;font-family:'Roboto Medium',sans-serif">Sieben Tage Durschnitt Inzidenz Fälle</text><path  d="M 221 21
L 241 21" style="stroke-width:1;stroke:rgba(0,116,217,1.0);fill:none"/><text x="43" y="56" style="stroke-width:0;stroke:none;fill:rgba(51,51,51,1.0);font-size:10.2px;font-family:'Roboto Medium',sans-serif">Anzahl Faelle</text><path  d="M 110 51
L 241 51" style="stroke-width:1;stroke:rgba(0,217,101,1.0);fill:none"/><text x="43" y="86" style="stroke-width:0;stroke:none;fill:rgba(51,51,51,1.0);font-size:10.2px;font-family:'Roboto Medium',sans-serif">Anzahl Tot</text><path  d="M 98 81
L 241 81" style="stroke-width:1;stroke:rgba(217,0,116,1.0);fill:none"/></svg>