<svg xmlns="http://www.w3.org/2000/svg" xmlns:xlink="http://www.w3.org/1999/xlink" width="1024" height="400">\n<path  d="M 0 0
L 1024 0
L 1024 400
L 0 400
L 0 0" style="stroke-width:0;stroke:rgba(255,255,255,1.0);fill:rgba(255,255,255,1.0)"/><path  d="M 38 11
L 969 11
L 969 351
L 38 351
L 38 11" style="stroke-width:0;stroke:rgba(255,255,255,1.0);fill:rgba(255,255,255,1.0)"/><path  d="M 38 351
L 969 351" style="stroke-width:1;stroke:rgba(51,51,51,1.0);fill:none"/><path  d="M 38 351
L 38 356" style="stroke-width:1;stroke:rgba(51,51,51,1.0);fill:none"/><text x="5" y="373" style="stroke-width:0;stroke:none;fill:rgba(51,51,51,1.0);font-size:12.8px;font-family:'Roboto Medium',sans-serif">2020-02-26</text><path  d="M 155 351
L 155 356" style="stroke-width:1;stroke:rgba(51,51,51,1.0);fill:none"/><text x="122" y="373" style="stroke-width:0;stroke:none;fill:rgba(51,51,51,1.0);font-size:12.8px;font-family:'Roboto Medium',sans-serif">2020-05-05</text><path  d="M 271 351
L 271 356" style="stroke-width:1;stroke:rgba(51,51,51,1.0);fill:none"/><text x="238" y="373" style="stroke-width:0;stroke:none;fill:rgba(51,51,51,1.0);font-size:12.8px;font-family:'Roboto Medium',sans-serif">2020-07-14</text><path  d="M 388 351
L 388 356" style="stroke-width:1;stroke:rgba(51,51,51,1.0);fill:none"/><text x="355" y="373" style="stroke-width:0;stroke:none;fill:rgba(51,51,51,1.0);font-size:12.8px;font-family:'Roboto Medium',sans-serif">2020-09-21</text><path  d="M 504 351
L 504 356" style="stroke-width:1;stroke:rgba(51,51,51,1.0);fill:none"/><text x="471" y="373" style="stroke-width:0;stroke:none;fill:rgba(51,51,51,1.0);font-size:12.8px;font-family:'Roboto Medium',sans-serif">2020-11-30</text><path  d="M 620 351
L 620 356" style="stroke-width:1;stroke:rgba(51,51,51,1.0);fill:none"/><text x="587" y="373" style="stroke-width:0;stroke:none;fill:rgba(51,51,51,1.0);font-size:12.8px;font-family:'Roboto Medium',sans-serif">2021-02-08</text><path  d="M 737 351
L 737 356" style="stroke-width:1;stroke:rgba(51,51,51,1.0);fill:none"/><text x="704" y="373" style="stroke-width:0;stroke:none;fill:rgba(51,51,51,1.0);font-size:12.8px;font-family:'Roboto Medium',sans-serif">2021-04-18</text><path  d="M 853 351
L 853 356" style="stroke-width:1;stroke:rgba(51,51,51,1.0);fill:none"/><text x="820" y="373" style="stroke-width:0;stroke:none;fill:rgba(51,51,51,1.0);font-size:12.8px;font-family:'Roboto Medium',sans-serif">2021-06-27</text><path  d="M 969 351
L 969 356" style="stroke-width:1;stroke:rgba(51,51,51,1.0);fill:none"/><text x="936" y="373" style="stroke-width:0;stroke:none;fill:rgba(51,51,51,1.0);font-size:12.8px;font-family:'Roboto Medium',sans-serif">2021-09-05</text><text x="485" y="395" style="stroke-width:0;stroke:none;fill:rgba(51,51,51,1.0);font-size:12.8px;font-family:'Roboto Medium',sans-serif">Datum</text><path  d="M 970 351
L 970 11" style="stroke-width:1;stroke:rgba(51,51,51,1.0);fill:none"/><path  d="M 970 351
L 975 351" style="stroke-width:1;stroke:rgba(51,51,51,1.0);fill:none"/><text x="980" y="357" style="stroke-width:0;stroke:none;fill:rgba(51,51,51,1.0);font-size:12.8px;font-family:'Roboto Medium',sans-serif">0.00</text><path  d="M 970 308
L 975 308" style="stroke-width:1;stroke:rgba(51,51,51,1.0);fill:none"/><text x="980" y="314" style="stroke-width:0;stroke:none;fill:rgba(51,51,51,1.0);font-size:12.8px;font-family:'Roboto Medium',sans-serif">58.00</text><path  d="M 970 266
L 975 266" style="stroke-width:1;stroke:rgba(51,51,51,1.0);fill:none"/><text x="980" y="272" style="stroke-width:0;stroke:none;fill:rgba(51,51,51,1.0);font-size:12.8px;font-family:'Roboto Medium',sans-serif">115.00</text><path  d="M 970 223
L 975 223" style="stroke-width:1;stroke:rgba(51,51,51,1.0);fill:none"/><text x="980" y="229" style="stroke-width:0;stroke:none;fill:rgba(51,51,51,1.0);font-size:12.8px;font-family:'Roboto Medium',sans-serif">173.00</text><path  d="M 970 181
L 975 181" style="stroke-width:1;stroke:rgba(51,51,51,1.0);fill:none"/><text x="980" y="187" style="stroke-width:0;stroke:none;fill:rgba(51,51,51,1.0);font-size:12.8px;font-family:'Roboto Medium',sans-serif">230.00</text><path  d="M 970 138
L 975 138" style="stroke-width:1;stroke:rgba(51,51,51,1.0);fill:none"/><text x="980" y="144" style="stroke-width:0;stroke:none;fill:rgba(51,51,51,1.0);font-size:12.8px;font-family:'Roboto Medium',sans-serif">288.00</text><path  d="M 970 96
L 975 96" style="stroke-width:1;stroke:rgba(51,51,51,1.0);fill:none"/><text x="980" y="102" style="stroke-width:0;stroke:none;fill:rgba(51,51,51,1.0);font-size:12.8px;font-family:'Roboto Medium',sans-serif">345.00</text><path  d="M 970 53
L 975 53" style="stroke-width:1;stroke:rgba(51,51,51,1.0);fill:none"/><text x="980" y="59" style="stroke-width:0;stroke:none;fill:rgba(51,51,51,1.0);font-size:12.8px;font-family:'Roboto Medium',sans-serif">403.00</text><path  d="M 970 11
L 975 11" style="stroke-width:1;stroke:rgba(51,51,51,1.0);fill:none"/><text x="980" y="17" style="stroke-width:0;stroke:none;fill:rgba(51,51,51,1.0);font-size:12.8px;font-family:'Roboto Medium',sans-serif">460.00</text><path  d="M 38 351
L 40 351
L 42 351
L 44 351
L 45 351
L 47 351
L 49 351
L 50 351
L 52 351
L 54 351
L 55 351
L 57 351
L 59 351
L 60 351
L 62 351
L 64 351
L 65 351
L 67 351
L 69 351
L 70 351
L 72 351
L 74 351
L 75 351
L 77 349
L 79 347
L 80 345
L 82 345
L 84 343
L 85 339
L 87 336
L 89 337
L 90 334
L 92 334
L 94 331
L 95 332
L 97 336
L 99 333
L 100 333
L 102 338
L 104 338
L 105 339
L 107 336
L 109 333
L 110 336
L 112 332
L 114 329
L 115 331
L 117 331
L 119 332
L 120 335
L 122 337
L 124 341
L 125 343
L 127 341
L 129 341
L 130 344
L 132 345
L 134 345
L 135 346
L 137 347
L 139 348
L 140 350
L 142 350
L 144 349
L 145 349
L 147 348
L 149 348
L 150 347
L 152 347
L 154 345
L 156 345
L 157 344
L 159 344
L 161 344
L 162 346
L 164 346
L 166 348
L 167 347
L 169 348
L 171 349
L 172 348
L 174 348
L 176 347
L 177 347
L 179 349
L 181 348
L 182 348
L 184 349
L 186 349
L 187 350
L 189 350
L 191 350
L 192 351
L 194 351
L 196 351
L 197 351
L 199 351
L 201 351
L 202 350
L 204 350
L 206 350
L 207 350
L 209 350
L 211 350
L 212 350
L 214 351
L 216 351
L 217 351
L 219 351
L 221 350
L 222 350
L 224 349
L 226 349
L 227 349
L 229 349
L 231 349
L 232 349
L 234 349
L 236 349
L 237 349
L 239 349
L 241 349
L 242 349
L 244 350
L 246 350
L 247 351
L 249 351
L 251 351
L 252 350
L 254 350
L 256 350
L 257 348
L 259 348
L 261 347
L 262 347
L 264 346
L 266 346
L 267 346
L 269 347
L 271 347
L 273 345
L 274 345
L 276 346
L 278 346
L 279 344
L 281 345
L 283 344
L 284 346
L 286 346
L 288 345
L 289 345
L 291 343
L 293 343
L 294 344
L 296 345
L 298 345
L 299 346
L 301 346
L 303 350
L 304 349
L 306 349
L 308 348
L 309 347
L 311 347
L 313 347
L 314 347
L 316 347
L 318 347
L 319 347
L 321 347
L 323 348
L 324 348
L 326 347
L 328 348
L 329 346
L 331 346
L 333 347
L 334 346
L 336 345
L 338 342
L 339 339
L 341 340
L 343 337
L 344 333
L 346 332
L 348 331
L 349 332
L 351 332
L 353 332
L 354 327
L 356 330
L 358 331
L 359 331
L 361 329
L 363 330
L 364 331
L 366 336
L 368 330
L 369 319
L 371 317
L 373 321
L 374 314
L 376 309
L 378 311
L 379 307
L 381 314
L 383 315
L 384 315
L 386 323
L 388 326
L 390 325
L 391 331
L 393 331
L 395 332
L 396 332
L 398 332
L 400 333
L 401 333
L 403 338
L 405 336
L 406 337
L 408 338
L 410 332
L 411 325
L 413 322
L 415 318
L 416 316
L 418 315
L 420 309
L 421 307
L 423 310
L 425 309
L 426 308
L 428 309
L 430 305
L 431 308
L 433 308
L 435 304
L 436 296
L 438 276
L 440 270
L 441 244
L 443 231
L 445 219
L 446 196
L 448 177
L 450 176
L 451 159
L 453 172
L 455 169
L 456 164
L 458 170
L 460 163
L 461 153
L 463 143
L 465 133
L 466 102
L 468 92
L 470 80
L 471 79
L 473 78
L 475 76
L 476 88
L 478 113
L 480 122
L 481 117
L 483 115
L 485 117
L 486 137
L 488 128
L 490 130
L 491 134
L 493 145
L 495 167
L 496 179
L 498 177
L 500 174
L 501 176
L 503 176
L 505 188
L 507 187
L 508 183
L 510 184
L 512 200
L 513 208
L 515 219
L 517 219
L 518 235
L 520 255
L 522 274
L 523 276
L 525 264
L 527 260
L 528 259
L 530 247
L 532 247
L 533 234
L 535 236
L 537 250
L 538 249
L 540 244
L 542 245
L 543 240
L 545 251
L 547 246
L 548 234
L 550 237
L 552 243
L 553 240
L 555 249
L 557 236
L 558 237
L 560 233
L 562 221
L 563 222
L 565 218
L 567 211
L 568 206
L 570 210
L 572 215
L 573 228
L 575 230
L 577 235
L 578 237
L 580 251
L 582 254
L 583 269
L 585 253
L 587 259
L 588 254
L 590 252
L 592 257
L 593 254
L 595 254
L 597 265
L 598 258
L 600 266
L 602 273
L 603 264
L 605 270
L 607 273
L 608 277
L 610 276
L 612 277
L 613 267
L 615 268
L 617 260
L 618 249
L 620 253
L 622 262
L 624 247
L 625 247
L 627 244
L 629 243
L 630 239
L 632 228
L 634 223
L 635 232
L 637 206
L 639 185
L 640 168
L 642 172
L 644 158
L 645 155
L 647 146
L 649 161
L 650 166
L 652 163
L 654 153
L 655 160
L 657 148
L 659 145
L 660 144
L 662 117
L 664 122
L 665 105
L 667 85
L 669 85
L 670 71
L 672 50
L 674 30
L 675 14
L 677 38
L 679 45
L 680 46
L 682 15
L 684 12
L 685 41
L 687 55
L 689 34
L 690 34
L 692 39
L 694 78
L 695 94
L 697 99
L 699 95
L 700 95
L 702 101
L 704 92
L 705 93
L 707 99
L 709 107
L 710 94
L 712 115
L 714 127
L 715 130
L 717 163
L 719 169
L 720 169
L 722 193
L 724 187
L 725 189
L 727 200
L 729 183
L 730 186
L 732 212
L 734 221
L 735 234
L 737 249
L 739 263
L 741 270
L 742 281
L 744 285
L 746 292
L 747 300
L 749 299
L 751 297
L 752 307
L 754 306
L 756 306
L 757 307
L 759 302
L 761 306
L 762 308
L 764 310
L 766 311
L 767 313
L 769 313
L 771 317
L 772 314
L 774 312
L 776 303
L 777 306
L 779 307
L 781 307
L 782 309
L 784 313
L 786 317
L 787 326
L 789 330
L 791 335
L 792 338
L 794 338
L 796 339
L 797 339
L 799 336
L 801 335
L 802 334
L 804 334
L 806 334
L 807 332
L 809 334
L 811 340
L 812 337
L 814 338
L 816 338
L 817 338
L 819 340
L 821 340
L 822 339
L 824 344
L 826 344
L 827 345
L 829 345
L 831 346
L 832 348
L 834 349
L 836 349
L 837 348
L 839 348
L 841 349
L 842 347
L 844 347
L 846 347
L 847 347
L 849 348
L 851 348
L 852 348
L 854 351
L 856 350
L 858 350
L 859 350
L 861 350
L 863 350
L 864 350
L 866 349
L 868 347
L 869 346
L 871 344
L 873 343
L 874 343
L 876 343
L 878 344
L 879 345
L 881 344
L 883 343
L 884 344
L 886 343
L 888 342
L 889 339
L 891 339
L 893 340
L 894 342
L 896 341
L 898 341
L 899 339
L 901 339
L 903 336
L 904 330
L 906 326
L 908 322
L 909 322
L 911 321
L 913 319
L 914 321
L 916 324
L 918 329
L 919 329
L 921 329
L 923 330
L 924 332
L 926 333
L 928 330
L 929 327
L 931 328
L 933 321
L 934 320
L 936 316
L 938 310
L 939 307
L 941 305
L 943 304
L 944 300
L 946 297
L 948 297
L 949 292
L 951 292
L 953 291
L 954 279
L 956 277
L 958 278
L 959 275
L 961 275
L 963 270
L 964 272
L 966 277
L 968 272
L 969 269" style="stroke-width:1;stroke:rgba(0,116,217,1.0);fill:none"/><path  d="M 38 351
L 40 351
L 42 351
L 44 351
L 45 351
L 47 351
L 49 351
L 50 351
L 52 351
L 54 351
L 55 351
L 57 351
L 59 351
L 60 351
L 62 351
L 64 351
L 65 351
L 67 351
L 69 351
L 70 351
L 72 351
L 74 351
L 75 351
L 77 349
L 79 349
L 80 349
L 82 351
L 84 349
L 85 348
L 87 348
L 89 350
L 90 346
L 92 349
L 94 348
L 95 350
L 97 351
L 99 346
L 100 350
L 102 351
L 104 349
L 105 349
L 107 348
L 109 348
L 110 348
L 112 347
L 114 348
L 115 351
L 117 349
L 119 348
L 120 350
L 122 351
L 124 350
L 125 350
L 127 349
L 129 349
L 130 351
L 132 351
L 134 351
L 135 351
L 137 351
L 139 350
L 140 351
L 142 351
L 144 350
L 145 351
L 147 350
L 149 351
L 150 349
L 152 351
L 154 349
L 156 350
L 157 350
L 159 350
L 161 351
L 162 351
L 164 351
L 166 351
L 167 349
L 169 351
L 171 351
L 172 350
L 174 351
L 176 350
L 177 351
L 179 351
L 181 350
L 182 351
L 184 351
L 186 351
L 187 351
L 189 351
L 191 351
L 192 351
L 194 351
L 196 351
L 197 351
L 199 351
L 201 351
L 202 350
L 204 351
L 206 351
L 207 351
L 209 351
L 211 351
L 212 351
L 214 351
L 216 351
L 217 351
L 219 351
L 221 350
L 222 351
L 224 350
L 226 351
L 227 351
L 229 351
L 231 351
L 232 350
L 234 351
L 236 350
L 237 351
L 239 351
L 241 351
L 242 351
L 244 351
L 246 351
L 247 351
L 249 351
L 251 351
L 252 350
L 254 351
L 256 351
L 257 349
L 259 351
L 261 350
L 262 351
L 264 349
L 266 351
L 267 351
L 269 350
L 271 351
L 273 348
L 274 351
L 276 350
L 278 351
L 279 349
L 281 351
L 283 350
L 284 350
L 286 351
L 288 349
L 289 351
L 291 348
L 293 351
L 294 351
L 296 351
L 298 351
L 299 350
L 301 351
L 303 351
L 304 350
L 306 351
L 308 350
L 309 350
L 311 350
L 313 351
L 314 351
L 316 350
L 318 351
L 319 350
L 321 350
L 323 351
L 324 351
L 326 350
L 328 351
L 329 349
L 331 350
L 333 351
L 334 350
L 336 350
L 338 348
L 339 348
L 341 350
L 343 348
L 344 347
L 346 349
L 348 349
L 349 348
L 351 348
L 353 350
L 354 344
L 356 349
L 358 350
L 359 349
L 361 347
L 363 349
L 364 351
L 366 348
L 368 345
L 369 341
L 371 348
L 373 350
L 374 344
L 376 347
L 378 349
L 379 341
L 381 347
L 383 348
L 384 350
L 386 351
L 388 349
L 390 348
L 391 345
L 393 347
L 395 349
L 396 350
L 398 351
L 400 350
L 401 348
L 403 350
L 405 345
L 406 350
L 408 351
L 410 345
L 411 345
L 413 345
L 415 347
L 416 344
L 418 349
L 420 346
L 421 344
L 423 347
L 425 345
L 426 346
L 428 345
L 430 345
L 431 349
L 433 344
L 435 343
L 436 339
L 438 330
L 440 340
L 441 325
L 443 339
L 445 334
L 446 325
L 448 324
L 450 328
L 451 327
L 453 335
L 455 336
L 456 331
L 458 330
L 460 319
L 461 320
L 463 319
L 465 327
L 466 312
L 468 323
L 470 320
L 471 318
L 473 319
L 475 317
L 476 336
L 478 332
L 480 331
L 481 316
L 483 317
L 485 321
L 486 333
L 488 329
L 490 334
L 491 334
L 493 325
L 495 334
L 496 331
L 498 331
L 500 326
L 501 335
L 503 334
L 505 334
L 507 334
L 508 328
L 510 332
L 512 339
L 513 342
L 515 342
L 517 334
L 518 347
L 520 343
L 522 347
L 523 340
L 525 333
L 527 338
L 528 334
L 530 337
L 532 343
L 533 336
L 535 342
L 537 344
L 538 337
L 540 329
L 542 338
L 543 339
L 545 345
L 547 338
L 548 334
L 550 340
L 552 334
L 553 336
L 555 347
L 557 335
L 558 339
L 560 331
L 562 331
L 563 335
L 565 332
L 567 342
L 568 331
L 570 342
L 572 334
L 573 341
L 575 336
L 577 336
L 578 344
L 580 342
L 582 344
L 583 346
L 585 328
L 587 341
L 588 332
L 590 342
L 592 346
L 593 342
L 595 346
L 597 337
L 598 335
L 600 339
L 602 348
L 603 339
L 605 347
L 607 348
L 608 340
L 610 334
L 612 339
L 613 340
L 615 339
L 617 340
L 618 340
L 620 343
L 622 341
L 624 328
L 625 340
L 627 337
L 629 339
L 630 337
L 632 334
L 634 337
L 635 334
L 637 319
L 639 321
L 640 326
L 642 340
L 644 323
L 645 335
L 647 327
L 649 331
L 650 325
L 652 324
L 654 332
L 655 328
L 657 326
L 659 324
L 660 331
L 662 304
L 664 328
L 665 319
L 667 312
L 669 326
L 670 313
L 672 314
L 674 288
L 675 316
L 677 338
L 679 317
L 680 327
L 682 288
L 684 312
L 685 311
L 687 327
L 689 322
L 690 317
L 692 331
L 694 319
L 695 325
L 697 314
L 699 324
L 700 322
L 702 322
L 704 324
L 705 320
L 707 329
L 709 321
L 710 314
L 712 338
L 714 331
L 715 326
L 717 346
L 719 334
L 720 321
L 722 333
L 724 333
L 725 333
L 727 335
L 729 333
L 730 336
L 732 342
L 734 340
L 735 342
L 737 345
L 739 345
L 741 339
L 742 345
L 744 345
L 746 345
L 747 349
L 749 345
L 751 344
L 752 347
L 754 344
L 756 345
L 757 346
L 759 345
L 761 348
L 762 346
L 764 348
L 766 345
L 767 346
L 769 346
L 771 348
L 772 345
L 774 345
L 776 341
L 777 347
L 779 347
L 781 347
L 782 350
L 784 348
L 786 348
L 787 348
L 789 350
L 791 351
L 792 350
L 794 350
L 796 349
L 797 348
L 799 345
L 801 349
L 802 350
L 804 350
L 806 350
L 807 348
L 809 349
L 811 351
L 812 347
L 814 351
L 816 350
L 817 350
L 819 349
L 821 349
L 822 350
L 824 351
L 826 351
L 827 351
L 829 350
L 831 350
L 832 351
L 834 351
L 836 351
L 837 350
L 839 351
L 841 351
L 842 348
L 844 351
L 846 351
L 847 351
L 849 351
L 851 351
L 852 351
L 854 351
L 856 350
L 858 351
L 859 351
L 861 351
L 863 351
L 864 351
L 866 350
L 868 348
L 869 350
L 871 349
L 873 350
L 874 351
L 876 351
L 878 351
L 879 349
L 881 349
L 883 348
L 884 351
L 886 350
L 888 350
L 889 348
L 891 349
L 893 350
L 894 350
L 896 350
L 898 350
L 899 348
L 901 348
L 903 347
L 904 345
L 906 347
L 908 347
L 909 349
L 911 348
L 913 347
L 914 348
L 916 348
L 918 351
L 919 347
L 921 349
L 923 348
L 924 348
L 926 349
L 928 345
L 929 348
L 931 348
L 933 343
L 934 348
L 936 345
L 938 345
L 939 343
L 941 346
L 943 347
L 944 340
L 946 345
L 948 345
L 949 340
L 951 343
L 953 345
L 954 338
L 956 338
L 958 347
L 959 342
L 961 340
L 963 339
L 964 347
L 966 342
L 968 334
L 969 345" style="stroke-width:1;stroke:rgba(0,217,101,1.0);fill:none"/><path  d="M 38 351
L 40 351
L 42 351
L 44 351
L 45 351
L 47 351
L 49 351
L 50 351
L 52 351
L 54 351
L 55 351
L 57 351
L 59 351
L 60 351
L 62 351
L 64 351
L 65 351
L 67 351
L 69 351
L 70 351
L 72 351
L 74 351
L 75 351
L 77 351
L 79 351
L 80 351
L 82 351
L 84 351
L 85 351
L 87 351
L 89 351
L 90 351
L 92 351
L 94 351
L 95 351
L 97 351
L 99 351
L 100 351
L 102 351
L 104 351
L 105 351
L 107 351
L 109 350
L 110 351
L 112 351
L 114 350
L 115 351
L 117 351
L 119 349
L 120 351
L 122 351
L 124 351
L 125 351
L 127 351
L 129 351
L 130 351
L 132 350
L 134 351
L 135 351
L 137 350
L 139 351
L 140 351
L 142 351
L 144 351
L 145 351
L 147 351
L 149 351
L 150 351
L 152 351
L 154 351
L 156 351
L 157 351
L 159 351
L 161 351
L 162 351
L 164 351
L 166 351
L 167 351
L 169 351
L 171 351
L 172 351
L 174 351
L 176 351
L 177 351
L 179 351
L 181 351
L 182 351
L 184 351
L 186 351
L 187 351
L 189 351
L 191 351
L 192 351
L 194 351
L 196 351
L 197 351
L 199 351
L 201 351
L 202 351
L 204 351
L 206 351
L 207 351
L 209 351
L 211 351
L 212 351
L 214 351
L 216 351
L 217 351
L 219 351
L 221 351
L 222 351
L 224 351
L 226 351
L 227 351
L 229 351
L 231 351
L 232 351
L 234 351
L 236 351
L 237 351
L 239 351
L 241 351
L 242 351
L 244 351
L 246 351
L 247 351
L 249 351
L 251 351
L 252 351
L 254 351
L 256 351
L 257 351
L 259 351
L 261 351
L 262 351
L 264 351
L 266 351
L 267 351
L 269 351
L 271 351
L 273 351
L 274 351
L 276 351
L 278 351
L 279 351
L 281 351
L 283 351
L 284 351
L 286 351
L 288 351
L 289 351
L 291 351
L 293 351
L 294 351
L 296 351
L 298 351
L 299 351
L 301 351
L 303 351
L 304 351
L 306 351
L 308 351
L 309 351
L 311 351
L 313 351
L 314 351
L 316 351
L 318 351
L 319 351
L 321 351
L 323 351
L 324 351
L 326 351
L 328 351
L 329 351
L 331 351
L 333 351
L 334 351
L 336 351
L 338 351
L 339 351
L 341 351
L 343 351
L 344 351
L 346 351
L 348 351
L 349 351
L 351 351
L 353 351
L 354 351
L 356 351
L 358 351
L 359 351
L 361 351
L 363 351
L 364 351
L 366 351
L 368 351
L 369 351
L 371 351
L 373 351
L 374 351
L 376 351
L 378 351
L 379 351
L 381 351
L 383 351
L 384 351
L 386 351
L 388 350
L 390 351
L 391 351
L 393 351
L 395 351
L 396 351
L 398 350
L 400 351
L 401 351
L 403 351
L 405 351
L 406 351
L 408 351
L 410 350
L 411 351
L 413 351
L 415 351
L 416 351
L 418 351
L 420 351
L 421 351
L 423 351
L 425 350
L 426 351
L 428 351
L 430 351
L 431 351
L 433 351
L 435 351
L 436 351
L 438 351
L 440 351
L 441 351
L 443 351
L 445 351
L 446 351
L 448 351
L 450 351
L 451 350
L 453 351
L 455 351
L 456 351
L 458 351
L 460 351
L 461 350
L 463 351
L 465 351
L 466 350
L 468 351
L 470 350
L 471 351
L 473 350
L 475 351
L 476 351
L 478 351
L 480 351
L 481 351
L 483 350
L 485 350
L 486 350
L 488 351
L 490 350
L 491 351
L 493 350
L 495 350
L 496 351
L 498 351
L 500 349
L 501 350
L 503 349
L 505 351
L 507 351
L 508 351
L 510 351
L 512 351
L 513 351
L 515 351
L 517 351
L 518 351
L 520 351
L 522 351
L 523 351
L 525 351
L 527 350
L 528 351
L 530 351
L 532 350
L 533 351
L 535 351
L 537 350
L 538 350
L 540 351
L 542 351
L 543 351
L 545 351
L 547 351
L 548 351
L 550 351
L 552 351
L 553 351
L 555 351
L 557 351
L 558 350
L 560 350
L 562 351
L 563 351
L 565 351
L 567 350
L 568 350
L 570 350
L 572 350
L 573 350
L 575 349
L 577 350
L 578 349
L 580 350
L 582 350
L 583 351
L 585 350
L 587 351
L 588 349
L 590 350
L 592 351
L 593 350
L 595 351
L 597 351
L 598 350
L 600 350
L 602 350
L 603 351
L 605 351
L 607 351
L 608 351
L 610 350
L 612 351
L 613 351
L 615 351
L 617 350
L 618 351
L 620 350
L 622 350
L 624 351
L 625 351
L 627 351
L 629 351
L 630 351
L 632 351
L 634 351
L 635 351
L 637 351
L 639 351
L 640 351
L 642 351
L 644 350
L 645 351
L 647 350
L 649 350
L 650 351
L 652 350
L 654 351
L 655 351
L 657 350
L 659 351
L 660 350
L 662 351
L 664 350
L 665 350
L 667 351
L 669 351
L 670 349
L 672 351
L 674 351
L 675 350
L 677 351
L 679 349
L 680 349
L 682 351
L 684 350
L 685 350
L 687 351
L 689 350
L 690 351
L 692 351
L 694 350
L 695 350
L 697 350
L 699 351
L 700 350
L 702 351
L 704 350
L 705 349
L 707 351
L 709 350
L 710 351
L 712 351
L 714 351
L 715 351
L 717 350
L 719 349
L 720 350
L 722 350
L 724 351
L 725 351
L 727 350
L 729 351
L 730 351
L 732 351
L 734 351
L 735 351
L 737 351
L 739 351
L 741 351
L 742 351
L 744 351
L 746 350
L 747 351
L 749 349
L 751 351
L 752 350
L 754 351
L 756 351
L 757 351
L 759 351
L 761 351
L 762 351
L 764 351
L 766 351
L 767 350
L 769 351
L 771 350
L 772 351
L 774 351
L 776 351
L 777 351
L 779 351
L 781 351
L 782 351
L 784 351
L 786 351
L 787 351
L 789 351
L 791 351
L 792 350
L 794 351
L 796 351
L 797 351
L 799 351
L 801 351
L 802 351
L 804 351
L 806 351
L 807 351
L 809 351
L 811 351
L 812 351
L 814 351
L 816 351
L 817 351
L 819 351
L 821 350
L 822 351
L 824 351
L 826 351
L 827 351
L 829 351
L 831 351
L 832 351
L 834 351
L 836 351
L 837 351
L 839 351
L 841 351
L 842 351
L 844 351
L 846 351
L 847 351
L 849 351
L 851 351
L 852 351
L 854 351
L 856 351
L 858 351
L 859 351
L 861 351
L 863 351
L 864 351
L 866 351
L 868 351
L 869 351
L 871 351
L 873 351
L 874 351
L 876 351
L 878 351
L 879 351
L 881 351
L 883 351
L 884 351
L 886 351
L 888 351
L 889 351
L 891 351
L 893 351
L 894 351
L 896 351
L 898 351
L 899 351
L 901 351
L 903 351
L 904 351
L 906 351
L 908 351
L 909 351
L 911 351
L 913 351
L 914 351
L 916 351
L 918 351
L 919 351
L 921 351
L 923 351
L 924 351
L 926 351
L 928 351
L 929 351
L 931 351
L 933 351
L 934 351
L 936 351
L 938 351
L 939 351
L 941 351
L 943 351
L 944 351
L 946 351
L 948 351
L 949 351
L 951 351
L 953 351
L 954 351
L 956 351
L 958 351
L 959 351
L 961 351
L 963 351
L 964 351
L 966 351
L 968 351
L 969 351" style="stroke-width:1;stroke:rgba(217,0,116,1.0);fill:none"/><text x="331" y="33" style="stroke-width:0;stroke:none;fill:rgba(51,51,51,1.0);font-size:23.0px;font-family:'Roboto Medium',sans-serif">Wiener Neustadt(Land) 05.09.2021</text><path  d="M 38 11
L 251 11
L 251 91
L 38 91
L 38 11" style="stroke-width:1;stroke:rgba(51,51,51,1.0);fill:rgba(255,255,255,1.0)"/><text x="43" y="26" style="stroke-width:0;stroke:none;fill:rgba(51,51,51,1.0);font-size:10.2px;font-family:'Roboto Medium',sans-serif">Sieben Tage Durschnitt Inzidenz Fälle</text><path  d="M 221 21
L 241 21" style="stroke-width:1;stroke:rgba(0,116,217,1.0);fill:none"/><text x="43" y="56" style="stroke-width:0;stroke:none;fill:rgba(51,51,51,1.0);font-size:10.2px;font-family:'Roboto Medium',sans-serif">Anzahl Faelle</text><path  d="M 110 51
L 241 51" style="stroke-width:1;stroke:rgba(0,217,101,1.0);fill:none"/><text x="43" y="86" style="stroke-width:0;stroke:none;fill:rgba(51,51,51,1.0);font-size:10.2px;font-family:'Roboto Medium',sans-serif">Anzahl Tot</text><path  d="M 98 81
L 241 81" style="stroke-width:1;stroke:rgba(217,0,116,1.0);fill:none"/></svg>