<svg xmlns="http://www.w3.org/2000/svg" xmlns:xlink="http://www.w3.org/1999/xlink" width="1024" height="400">\n<path  d="M 0 0
L 1024 0
L 1024 400
L 0 400
L 0 0" style="stroke-width:0;stroke:rgba(255,255,255,1.0);fill:rgba(255,255,255,1.0)"/><path  d="M 38 11
L 969 11
L 969 351
L 38 351
L 38 11" style="stroke-width:0;stroke:rgba(255,255,255,1.0);fill:rgba(255,255,255,1.0)"/><path  d="M 38 351
L 969 351" style="stroke-width:1;stroke:rgba(51,51,51,1.0);fill:none"/><path  d="M 38 351
L 38 356" style="stroke-width:1;stroke:rgba(51,51,51,1.0);fill:none"/><text x="5" y="373" style="stroke-width:0;stroke:none;fill:rgba(51,51,51,1.0);font-size:12.8px;font-family:'Roboto Medium',sans-serif">2020-02-26</text><path  d="M 155 351
L 155 356" style="stroke-width:1;stroke:rgba(51,51,51,1.0);fill:none"/><text x="122" y="373" style="stroke-width:0;stroke:none;fill:rgba(51,51,51,1.0);font-size:12.8px;font-family:'Roboto Medium',sans-serif">2020-04-26</text><path  d="M 271 351
L 271 356" style="stroke-width:1;stroke:rgba(51,51,51,1.0);fill:none"/><text x="238" y="373" style="stroke-width:0;stroke:none;fill:rgba(51,51,51,1.0);font-size:12.8px;font-family:'Roboto Medium',sans-serif">2020-06-25</text><path  d="M 388 351
L 388 356" style="stroke-width:1;stroke:rgba(51,51,51,1.0);fill:none"/><text x="355" y="373" style="stroke-width:0;stroke:none;fill:rgba(51,51,51,1.0);font-size:12.8px;font-family:'Roboto Medium',sans-serif">2020-08-25</text><path  d="M 504 351
L 504 356" style="stroke-width:1;stroke:rgba(51,51,51,1.0);fill:none"/><text x="471" y="373" style="stroke-width:0;stroke:none;fill:rgba(51,51,51,1.0);font-size:12.8px;font-family:'Roboto Medium',sans-serif">2020-10-24</text><path  d="M 620 351
L 620 356" style="stroke-width:1;stroke:rgba(51,51,51,1.0);fill:none"/><text x="587" y="373" style="stroke-width:0;stroke:none;fill:rgba(51,51,51,1.0);font-size:12.8px;font-family:'Roboto Medium',sans-serif">2020-12-23</text><path  d="M 737 351
L 737 356" style="stroke-width:1;stroke:rgba(51,51,51,1.0);fill:none"/><text x="704" y="373" style="stroke-width:0;stroke:none;fill:rgba(51,51,51,1.0);font-size:12.8px;font-family:'Roboto Medium',sans-serif">2021-02-22</text><path  d="M 853 351
L 853 356" style="stroke-width:1;stroke:rgba(51,51,51,1.0);fill:none"/><text x="820" y="373" style="stroke-width:0;stroke:none;fill:rgba(51,51,51,1.0);font-size:12.8px;font-family:'Roboto Medium',sans-serif">2021-04-23</text><path  d="M 969 351
L 969 356" style="stroke-width:1;stroke:rgba(51,51,51,1.0);fill:none"/><text x="936" y="373" style="stroke-width:0;stroke:none;fill:rgba(51,51,51,1.0);font-size:12.8px;font-family:'Roboto Medium',sans-serif">2021-06-23</text><text x="485" y="395" style="stroke-width:0;stroke:none;fill:rgba(51,51,51,1.0);font-size:12.8px;font-family:'Roboto Medium',sans-serif">Datum</text><path  d="M 970 351
L 970 11" style="stroke-width:1;stroke:rgba(51,51,51,1.0);fill:none"/><path  d="M 970 351
L 975 351" style="stroke-width:1;stroke:rgba(51,51,51,1.0);fill:none"/><text x="980" y="357" style="stroke-width:0;stroke:none;fill:rgba(51,51,51,1.0);font-size:12.8px;font-family:'Roboto Medium',sans-serif">0.00</text><path  d="M 970 308
L 975 308" style="stroke-width:1;stroke:rgba(51,51,51,1.0);fill:none"/><text x="980" y="314" style="stroke-width:0;stroke:none;fill:rgba(51,51,51,1.0);font-size:12.8px;font-family:'Roboto Medium',sans-serif">78.00</text><path  d="M 970 266
L 975 266" style="stroke-width:1;stroke:rgba(51,51,51,1.0);fill:none"/><text x="980" y="272" style="stroke-width:0;stroke:none;fill:rgba(51,51,51,1.0);font-size:12.8px;font-family:'Roboto Medium',sans-serif">155.00</text><path  d="M 970 223
L 975 223" style="stroke-width:1;stroke:rgba(51,51,51,1.0);fill:none"/><text x="980" y="229" style="stroke-width:0;stroke:none;fill:rgba(51,51,51,1.0);font-size:12.8px;font-family:'Roboto Medium',sans-serif">233.00</text><path  d="M 970 181
L 975 181" style="stroke-width:1;stroke:rgba(51,51,51,1.0);fill:none"/><text x="980" y="187" style="stroke-width:0;stroke:none;fill:rgba(51,51,51,1.0);font-size:12.8px;font-family:'Roboto Medium',sans-serif">310.00</text><path  d="M 970 138
L 975 138" style="stroke-width:1;stroke:rgba(51,51,51,1.0);fill:none"/><text x="980" y="144" style="stroke-width:0;stroke:none;fill:rgba(51,51,51,1.0);font-size:12.8px;font-family:'Roboto Medium',sans-serif">388.00</text><path  d="M 970 96
L 975 96" style="stroke-width:1;stroke:rgba(51,51,51,1.0);fill:none"/><text x="980" y="102" style="stroke-width:0;stroke:none;fill:rgba(51,51,51,1.0);font-size:12.8px;font-family:'Roboto Medium',sans-serif">465.00</text><path  d="M 970 53
L 975 53" style="stroke-width:1;stroke:rgba(51,51,51,1.0);fill:none"/><text x="980" y="59" style="stroke-width:0;stroke:none;fill:rgba(51,51,51,1.0);font-size:12.8px;font-family:'Roboto Medium',sans-serif">543.00</text><path  d="M 970 11
L 975 11" style="stroke-width:1;stroke:rgba(51,51,51,1.0);fill:none"/><text x="980" y="17" style="stroke-width:0;stroke:none;fill:rgba(51,51,51,1.0);font-size:12.8px;font-family:'Roboto Medium',sans-serif">620.00</text><path  d="M 38 351
L 40 351
L 42 351
L 44 351
L 46 351
L 48 351
L 50 351
L 52 351
L 54 351
L 56 351
L 58 351
L 60 351
L 62 351
L 64 351
L 65 351
L 67 351
L 69 351
L 71 351
L 73 351
L 75 349
L 77 349
L 79 349
L 81 349
L 83 349
L 85 348
L 87 347
L 89 345
L 91 340
L 92 337
L 94 330
L 96 324
L 98 323
L 100 320
L 102 322
L 104 327
L 106 326
L 108 331
L 110 331
L 112 334
L 114 337
L 116 337
L 118 336
L 119 339
L 121 339
L 123 315
L 125 313
L 127 313
L 129 311
L 131 311
L 133 313
L 135 315
L 137 344
L 139 345
L 141 345
L 143 347
L 145 348
L 146 347
L 148 347
L 150 345
L 152 345
L 154 345
L 156 347
L 158 347
L 160 348
L 162 348
L 164 349
L 166 351
L 168 351
L 170 351
L 171 351
L 173 351
L 175 351
L 177 351
L 179 351
L 181 351
L 183 351
L 185 351
L 187 351
L 189 351
L 191 351
L 193 351
L 195 351
L 197 351
L 198 351
L 200 351
L 202 351
L 204 351
L 206 351
L 208 349
L 210 349
L 212 349
L 214 349
L 216 349
L 218 349
L 220 349
L 222 351
L 224 351
L 225 351
L 227 351
L 229 351
L 231 351
L 233 351
L 235 351
L 237 351
L 239 351
L 241 351
L 243 351
L 245 351
L 247 351
L 249 351
L 251 351
L 252 351
L 254 351
L 256 351
L 258 351
L 260 351
L 262 351
L 264 351
L 266 351
L 268 351
L 270 351
L 272 351
L 274 351
L 276 351
L 278 351
L 279 351
L 281 351
L 283 351
L 285 351
L 287 351
L 289 351
L 291 351
L 293 351
L 295 351
L 297 351
L 299 351
L 301 351
L 303 351
L 304 351
L 306 351
L 308 351
L 310 351
L 312 351
L 314 351
L 316 351
L 318 351
L 320 351
L 322 351
L 324 351
L 326 349
L 328 349
L 330 349
L 331 348
L 333 347
L 335 347
L 337 347
L 339 348
L 341 348
L 343 348
L 345 349
L 347 349
L 349 349
L 351 349
L 353 349
L 355 348
L 357 347
L 358 344
L 360 345
L 362 344
L 364 344
L 366 344
L 368 345
L 370 347
L 372 349
L 374 349
L 376 349
L 378 349
L 380 348
L 382 348
L 384 348
L 385 348
L 387 348
L 389 349
L 391 349
L 393 351
L 395 351
L 397 351
L 399 351
L 401 351
L 403 351
L 405 351
L 407 349
L 409 349
L 411 347
L 412 347
L 414 347
L 416 344
L 418 343
L 420 337
L 422 335
L 424 326
L 426 315
L 428 307
L 430 298
L 432 290
L 434 287
L 436 280
L 437 287
L 439 296
L 441 302
L 443 310
L 445 317
L 447 326
L 449 330
L 451 331
L 453 330
L 455 326
L 457 327
L 459 328
L 461 326
L 463 324
L 464 326
L 466 324
L 468 323
L 470 326
L 472 319
L 474 317
L 476 320
L 478 317
L 480 309
L 482 309
L 484 303
L 486 305
L 488 301
L 490 289
L 491 289
L 493 293
L 495 290
L 497 288
L 499 281
L 501 277
L 503 279
L 505 270
L 507 262
L 509 241
L 511 219
L 513 213
L 515 199
L 517 185
L 518 177
L 520 164
L 522 169
L 524 173
L 526 168
L 528 144
L 530 139
L 532 126
L 534 117
L 536 109
L 538 96
L 540 108
L 542 131
L 544 122
L 545 109
L 547 102
L 549 64
L 551 80
L 553 41
L 555 14
L 557 19
L 559 46
L 561 63
L 563 104
L 565 95
L 567 122
L 569 145
L 570 134
L 572 136
L 574 134
L 576 139
L 578 147
L 580 144
L 582 140
L 584 166
L 586 169
L 588 189
L 590 187
L 592 195
L 594 192
L 596 206
L 597 211
L 599 206
L 601 194
L 603 200
L 605 200
L 607 207
L 609 211
L 611 208
L 613 221
L 615 233
L 617 219
L 619 204
L 621 215
L 623 225
L 624 232
L 626 232
L 628 221
L 630 241
L 632 255
L 634 247
L 636 243
L 638 247
L 640 237
L 642 237
L 644 211
L 646 212
L 648 224
L 650 189
L 651 178
L 653 185
L 655 185
L 657 192
L 659 189
L 661 169
L 663 195
L 665 183
L 667 185
L 669 164
L 671 177
L 673 177
L 675 190
L 677 203
L 678 216
L 680 217
L 682 241
L 684 250
L 686 253
L 688 241
L 690 239
L 692 250
L 694 249
L 696 255
L 698 253
L 700 267
L 702 281
L 703 280
L 705 279
L 707 287
L 709 283
L 711 281
L 713 266
L 715 262
L 717 259
L 719 251
L 721 247
L 723 258
L 725 262
L 727 256
L 729 263
L 730 253
L 732 245
L 734 243
L 736 230
L 738 228
L 740 232
L 742 230
L 744 242
L 746 246
L 748 249
L 750 251
L 752 238
L 754 246
L 756 232
L 757 211
L 759 220
L 761 221
L 763 228
L 765 246
L 767 250
L 769 260
L 771 277
L 773 275
L 775 272
L 777 259
L 779 258
L 781 241
L 783 245
L 784 223
L 786 220
L 788 215
L 790 217
L 792 202
L 794 206
L 796 199
L 798 217
L 800 219
L 802 209
L 804 213
L 806 221
L 808 224
L 810 224
L 811 229
L 813 212
L 815 211
L 817 206
L 819 208
L 821 216
L 823 220
L 825 186
L 827 203
L 829 186
L 831 190
L 833 181
L 835 166
L 836 168
L 838 192
L 840 186
L 842 208
L 844 217
L 846 226
L 848 237
L 850 237
L 852 255
L 854 275
L 856 287
L 858 277
L 860 285
L 862 293
L 863 300
L 865 303
L 867 303
L 869 306
L 871 318
L 873 313
L 875 309
L 877 310
L 879 310
L 881 306
L 883 307
L 885 313
L 887 320
L 889 328
L 890 328
L 892 330
L 894 336
L 896 337
L 898 334
L 900 334
L 902 336
L 904 336
L 906 331
L 908 331
L 910 330
L 912 334
L 914 336
L 916 327
L 917 330
L 919 330
L 921 330
L 923 330
L 925 328
L 927 327
L 929 335
L 931 335
L 933 341
L 935 340
L 937 343
L 939 343
L 941 345
L 943 347
L 944 347
L 946 347
L 948 347
L 950 347
L 952 348
L 954 347
L 956 347
L 958 347
L 960 347
L 962 348
L 964 348
L 966 348
L 968 349
L 969 349" style="stroke-width:1;stroke:rgba(0,116,217,1.0);fill:none"/><path  d="M 38 351
L 40 351
L 42 351
L 44 351
L 46 351
L 48 351
L 50 351
L 52 351
L 54 351
L 56 351
L 58 351
L 60 351
L 62 351
L 64 351
L 65 351
L 67 351
L 69 351
L 71 351
L 73 351
L 75 350
L 77 351
L 79 351
L 81 351
L 83 351
L 85 350
L 87 350
L 89 349
L 91 348
L 92 349
L 94 347
L 96 348
L 98 349
L 100 349
L 102 350
L 104 351
L 106 349
L 108 349
L 110 348
L 112 351
L 114 351
L 116 350
L 118 350
L 119 350
L 121 349
L 123 338
L 125 349
L 127 351
L 129 349
L 131 350
L 133 351
L 135 351
L 137 351
L 139 350
L 141 351
L 143 350
L 145 351
L 146 350
L 148 351
L 150 350
L 152 350
L 154 351
L 156 351
L 158 351
L 160 351
L 162 351
L 164 351
L 166 351
L 168 351
L 170 351
L 171 351
L 173 351
L 175 351
L 177 351
L 179 351
L 181 351
L 183 351
L 185 351
L 187 351
L 189 351
L 191 351
L 193 351
L 195 351
L 197 351
L 198 351
L 200 351
L 202 351
L 204 351
L 206 351
L 208 350
L 210 351
L 212 351
L 214 351
L 216 351
L 218 351
L 220 351
L 222 351
L 224 351
L 225 351
L 227 351
L 229 351
L 231 351
L 233 351
L 235 351
L 237 351
L 239 351
L 241 351
L 243 351
L 245 351
L 247 351
L 249 351
L 251 351
L 252 351
L 254 351
L 256 351
L 258 351
L 260 351
L 262 351
L 264 351
L 266 351
L 268 351
L 270 351
L 272 351
L 274 351
L 276 351
L 278 351
L 279 351
L 281 351
L 283 351
L 285 351
L 287 351
L 289 351
L 291 351
L 293 351
L 295 351
L 297 351
L 299 351
L 301 351
L 303 351
L 304 351
L 306 351
L 308 351
L 310 351
L 312 351
L 314 351
L 316 351
L 318 351
L 320 351
L 322 351
L 324 351
L 326 350
L 328 351
L 330 351
L 331 350
L 333 350
L 335 351
L 337 351
L 339 351
L 341 351
L 343 351
L 345 351
L 347 350
L 349 351
L 351 351
L 353 351
L 355 350
L 357 350
L 358 349
L 360 351
L 362 350
L 364 351
L 366 351
L 368 351
L 370 351
L 372 351
L 374 351
L 376 350
L 378 351
L 380 350
L 382 351
L 384 351
L 385 351
L 387 351
L 389 351
L 391 351
L 393 351
L 395 351
L 397 351
L 399 351
L 401 351
L 403 351
L 405 351
L 407 350
L 409 351
L 411 349
L 412 351
L 414 351
L 416 349
L 418 350
L 420 348
L 422 349
L 424 346
L 426 346
L 428 347
L 430 346
L 432 347
L 434 346
L 436 347
L 437 348
L 439 350
L 441 350
L 443 349
L 445 349
L 447 350
L 449 348
L 451 349
L 453 349
L 455 348
L 457 349
L 459 350
L 461 349
L 463 348
L 464 349
L 466 349
L 468 348
L 470 351
L 472 347
L 474 348
L 476 349
L 478 348
L 480 346
L 482 348
L 484 348
L 486 348
L 488 346
L 490 344
L 491 348
L 493 347
L 495 347
L 497 347
L 499 345
L 501 344
L 503 345
L 505 344
L 507 344
L 509 338
L 511 338
L 513 343
L 515 338
L 517 339
L 518 341
L 520 338
L 522 340
L 524 340
L 526 341
L 528 329
L 530 337
L 532 335
L 534 335
L 536 337
L 538 334
L 540 346
L 542 338
L 544 333
L 545 330
L 547 332
L 549 321
L 551 341
L 553 329
L 555 327
L 557 335
L 559 341
L 561 339
L 563 338
L 565 337
L 567 341
L 569 337
L 570 330
L 572 342
L 574 338
L 576 340
L 578 340
L 580 340
L 582 335
L 584 341
L 586 343
L 588 346
L 590 340
L 592 343
L 594 338
L 596 341
L 597 343
L 599 341
L 601 341
L 603 342
L 605 343
L 607 341
L 609 342
L 611 342
L 613 347
L 615 346
L 617 336
L 619 337
L 621 346
L 623 347
L 624 345
L 626 347
L 628 342
L 630 344
L 632 343
L 634 342
L 636 345
L 638 347
L 640 342
L 642 342
L 644 334
L 646 344
L 648 347
L 650 330
L 651 342
L 653 345
L 655 342
L 657 337
L 659 342
L 661 339
L 663 341
L 665 337
L 667 346
L 669 333
L 671 342
L 673 342
L 675 344
L 677 347
L 678 343
L 680 346
L 682 343
L 684 346
L 686 343
L 688 340
L 690 346
L 692 347
L 694 346
L 696 346
L 698 345
L 700 349
L 702 346
L 703 346
L 705 347
L 707 349
L 709 344
L 711 344
L 713 343
L 715 344
L 717 344
L 719 343
L 721 347
L 723 348
L 725 346
L 727 341
L 729 347
L 730 340
L 732 340
L 734 347
L 736 343
L 738 345
L 740 342
L 742 346
L 744 345
L 746 342
L 748 348
L 750 344
L 752 340
L 754 346
L 756 340
L 757 336
L 759 346
L 761 348
L 763 347
L 765 347
L 767 347
L 769 344
L 771 343
L 773 344
L 775 347
L 777 341
L 779 347
L 781 340
L 783 346
L 784 334
L 786 343
L 788 345
L 790 342
L 792 340
L 794 342
L 796 343
L 798 342
L 800 344
L 802 341
L 804 344
L 806 343
L 808 343
L 810 343
L 811 344
L 813 337
L 815 341
L 817 342
L 819 344
L 821 346
L 823 345
L 825 330
L 827 344
L 829 334
L 831 343
L 833 341
L 835 340
L 836 346
L 838 340
L 840 341
L 842 343
L 844 347
L 846 344
L 848 344
L 850 346
L 852 348
L 854 349
L 856 348
L 858 343
L 860 348
L 862 348
L 863 348
L 865 349
L 867 349
L 869 349
L 871 348
L 873 346
L 875 346
L 877 349
L 879 349
L 881 348
L 883 349
L 885 351
L 887 349
L 889 349
L 890 349
L 892 350
L 894 351
L 896 350
L 898 349
L 900 349
L 902 351
L 904 349
L 906 348
L 908 351
L 910 349
L 912 351
L 914 350
L 916 347
L 917 350
L 919 348
L 921 351
L 923 349
L 925 350
L 927 349
L 929 350
L 931 350
L 933 351
L 935 350
L 937 351
L 939 350
L 941 351
L 943 351
L 944 350
L 946 351
L 948 350
L 950 351
L 952 351
L 954 350
L 956 351
L 958 350
L 960 351
L 962 351
L 964 351
L 966 351
L 968 351
L 969 351" style="stroke-width:1;stroke:rgba(0,217,101,1.0);fill:none"/><path  d="M 38 351
L 40 351
L 42 351
L 44 351
L 46 351
L 48 351
L 50 351
L 52 351
L 54 351
L 56 351
L 58 351
L 60 351
L 62 351
L 64 351
L 65 351
L 67 351
L 69 351
L 71 351
L 73 351
L 75 351
L 77 351
L 79 351
L 81 351
L 83 351
L 85 351
L 87 351
L 89 350
L 91 351
L 92 351
L 94 351
L 96 351
L 98 351
L 100 351
L 102 351
L 104 351
L 106 351
L 108 351
L 110 351
L 112 351
L 114 351
L 116 351
L 118 351
L 119 351
L 121 350
L 123 351
L 125 351
L 127 351
L 129 351
L 131 351
L 133 351
L 135 351
L 137 351
L 139 351
L 141 351
L 143 351
L 145 351
L 146 351
L 148 351
L 150 351
L 152 351
L 154 351
L 156 351
L 158 351
L 160 351
L 162 351
L 164 351
L 166 351
L 168 351
L 170 351
L 171 351
L 173 351
L 175 351
L 177 351
L 179 351
L 181 351
L 183 351
L 185 351
L 187 351
L 189 351
L 191 351
L 193 351
L 195 351
L 197 351
L 198 351
L 200 351
L 202 351
L 204 351
L 206 351
L 208 351
L 210 351
L 212 351
L 214 351
L 216 351
L 218 351
L 220 351
L 222 351
L 224 351
L 225 351
L 227 350
L 229 351
L 231 351
L 233 351
L 235 351
L 237 351
L 239 351
L 241 351
L 243 351
L 245 351
L 247 351
L 249 351
L 251 351
L 252 351
L 254 351
L 256 351
L 258 351
L 260 351
L 262 351
L 264 351
L 266 351
L 268 351
L 270 351
L 272 351
L 274 351
L 276 351
L 278 351
L 279 351
L 281 351
L 283 351
L 285 351
L 287 351
L 289 351
L 291 351
L 293 351
L 295 351
L 297 351
L 299 351
L 301 351
L 303 351
L 304 351
L 306 351
L 308 351
L 310 351
L 312 351
L 314 351
L 316 351
L 318 351
L 320 351
L 322 351
L 324 351
L 326 351
L 328 351
L 330 351
L 331 351
L 333 351
L 335 351
L 337 351
L 339 351
L 341 351
L 343 351
L 345 351
L 347 351
L 349 351
L 351 351
L 353 351
L 355 351
L 357 351
L 358 351
L 360 351
L 362 351
L 364 351
L 366 351
L 368 351
L 370 351
L 372 351
L 374 351
L 376 351
L 378 351
L 380 351
L 382 351
L 384 351
L 385 351
L 387 351
L 389 351
L 391 351
L 393 351
L 395 351
L 397 351
L 399 351
L 401 351
L 403 351
L 405 351
L 407 351
L 409 351
L 411 351
L 412 351
L 414 351
L 416 351
L 418 351
L 420 351
L 422 351
L 424 351
L 426 351
L 428 351
L 430 351
L 432 351
L 434 351
L 436 351
L 437 351
L 439 351
L 441 351
L 443 351
L 445 351
L 447 351
L 449 351
L 451 351
L 453 351
L 455 351
L 457 351
L 459 351
L 461 351
L 463 351
L 464 351
L 466 351
L 468 351
L 470 351
L 472 351
L 474 351
L 476 351
L 478 351
L 480 351
L 482 351
L 484 351
L 486 351
L 488 351
L 490 351
L 491 351
L 493 351
L 495 351
L 497 351
L 499 351
L 501 351
L 503 351
L 505 351
L 507 351
L 509 351
L 511 351
L 513 351
L 515 351
L 517 351
L 518 351
L 520 351
L 522 351
L 524 351
L 526 351
L 528 351
L 530 351
L 532 351
L 534 351
L 536 351
L 538 351
L 540 351
L 542 351
L 544 350
L 545 351
L 547 351
L 549 351
L 551 350
L 553 351
L 555 351
L 557 351
L 559 351
L 561 350
L 563 351
L 565 351
L 567 351
L 569 351
L 570 350
L 572 351
L 574 350
L 576 351
L 578 351
L 580 350
L 582 351
L 584 351
L 586 351
L 588 351
L 590 350
L 592 350
L 594 351
L 596 351
L 597 350
L 599 351
L 601 351
L 603 351
L 605 351
L 607 351
L 609 350
L 611 351
L 613 350
L 615 351
L 617 351
L 619 351
L 621 351
L 623 351
L 624 351
L 626 350
L 628 351
L 630 351
L 632 351
L 634 351
L 636 350
L 638 351
L 640 350
L 642 349
L 644 351
L 646 351
L 648 351
L 650 351
L 651 351
L 653 351
L 655 351
L 657 351
L 659 351
L 661 351
L 663 351
L 665 351
L 667 350
L 669 350
L 671 351
L 673 351
L 675 351
L 677 351
L 678 351
L 680 351
L 682 350
L 684 351
L 686 351
L 688 351
L 690 351
L 692 349
L 694 351
L 696 351
L 698 351
L 700 351
L 702 351
L 703 351
L 705 351
L 707 351
L 709 351
L 711 351
L 713 351
L 715 349
L 717 351
L 719 351
L 721 350
L 723 351
L 725 351
L 727 351
L 729 351
L 730 351
L 732 351
L 734 351
L 736 351
L 738 351
L 740 351
L 742 351
L 744 350
L 746 350
L 748 351
L 750 351
L 752 351
L 754 351
L 756 350
L 757 351
L 759 351
L 761 351
L 763 351
L 765 351
L 767 351
L 769 351
L 771 351
L 773 351
L 775 351
L 777 351
L 779 351
L 781 351
L 783 351
L 784 350
L 786 351
L 788 351
L 790 350
L 792 351
L 794 351
L 796 351
L 798 351
L 800 351
L 802 351
L 804 351
L 806 351
L 808 351
L 810 351
L 811 351
L 813 351
L 815 351
L 817 351
L 819 351
L 821 350
L 823 351
L 825 351
L 827 351
L 829 351
L 831 351
L 833 351
L 835 351
L 836 351
L 838 351
L 840 351
L 842 351
L 844 350
L 846 350
L 848 351
L 850 350
L 852 351
L 854 351
L 856 351
L 858 350
L 860 351
L 862 351
L 863 351
L 865 351
L 867 351
L 869 351
L 871 351
L 873 350
L 875 351
L 877 351
L 879 351
L 881 351
L 883 351
L 885 351
L 887 351
L 889 351
L 890 351
L 892 351
L 894 351
L 896 351
L 898 351
L 900 351
L 902 351
L 904 351
L 906 351
L 908 351
L 910 351
L 912 351
L 914 351
L 916 351
L 917 351
L 919 351
L 921 351
L 923 351
L 925 351
L 927 351
L 929 351
L 931 351
L 933 351
L 935 351
L 937 351
L 939 351
L 941 351
L 943 351
L 944 351
L 946 351
L 948 351
L 950 351
L 952 351
L 954 351
L 956 351
L 958 351
L 960 351
L 962 351
L 964 351
L 966 351
L 968 351
L 969 351" style="stroke-width:1;stroke:rgba(217,0,116,1.0);fill:none"/><text x="418" y="33" style="stroke-width:0;stroke:none;fill:rgba(51,51,51,1.0);font-size:23.0px;font-family:'Roboto Medium',sans-serif">Zwettl 23.06.2021</text><path  d="M 38 11
L 251 11
L 251 91
L 38 91
L 38 11" style="stroke-width:1;stroke:rgba(51,51,51,1.0);fill:rgba(255,255,255,1.0)"/><text x="43" y="26" style="stroke-width:0;stroke:none;fill:rgba(51,51,51,1.0);font-size:10.2px;font-family:'Roboto Medium',sans-serif">Sieben Tage Durschnitt Inzidenz Fälle</text><path  d="M 221 21
L 241 21" style="stroke-width:1;stroke:rgba(0,116,217,1.0);fill:none"/><text x="43" y="56" style="stroke-width:0;stroke:none;fill:rgba(51,51,51,1.0);font-size:10.2px;font-family:'Roboto Medium',sans-serif">Anzahl Faelle</text><path  d="M 110 51
L 241 51" style="stroke-width:1;stroke:rgba(0,217,101,1.0);fill:none"/><text x="43" y="86" style="stroke-width:0;stroke:none;fill:rgba(51,51,51,1.0);font-size:10.2px;font-family:'Roboto Medium',sans-serif">Anzahl Tot</text><path  d="M 98 81
L 241 81" style="stroke-width:1;stroke:rgba(217,0,116,1.0);fill:none"/></svg>