<svg xmlns="http://www.w3.org/2000/svg" xmlns:xlink="http://www.w3.org/1999/xlink" width="1024" height="400">\n<path  d="M 0 0
L 1024 0
L 1024 400
L 0 400
L 0 0" style="stroke-width:0;stroke:rgba(255,255,255,1.0);fill:rgba(255,255,255,1.0)"/><path  d="M 38 11
L 969 11
L 969 351
L 38 351
L 38 11" style="stroke-width:0;stroke:rgba(255,255,255,1.0);fill:rgba(255,255,255,1.0)"/><path  d="M 38 351
L 969 351" style="stroke-width:1;stroke:rgba(51,51,51,1.0);fill:none"/><path  d="M 38 351
L 38 356" style="stroke-width:1;stroke:rgba(51,51,51,1.0);fill:none"/><text x="5" y="373" style="stroke-width:0;stroke:none;fill:rgba(51,51,51,1.0);font-size:12.8px;font-family:'Roboto Medium',sans-serif">2020-02-26</text><path  d="M 155 351
L 155 356" style="stroke-width:1;stroke:rgba(51,51,51,1.0);fill:none"/><text x="122" y="373" style="stroke-width:0;stroke:none;fill:rgba(51,51,51,1.0);font-size:12.8px;font-family:'Roboto Medium',sans-serif">2020-05-01</text><path  d="M 271 351
L 271 356" style="stroke-width:1;stroke:rgba(51,51,51,1.0);fill:none"/><text x="238" y="373" style="stroke-width:0;stroke:none;fill:rgba(51,51,51,1.0);font-size:12.8px;font-family:'Roboto Medium',sans-serif">2020-07-05</text><path  d="M 388 351
L 388 356" style="stroke-width:1;stroke:rgba(51,51,51,1.0);fill:none"/><text x="355" y="373" style="stroke-width:0;stroke:none;fill:rgba(51,51,51,1.0);font-size:12.8px;font-family:'Roboto Medium',sans-serif">2020-09-08</text><path  d="M 504 351
L 504 356" style="stroke-width:1;stroke:rgba(51,51,51,1.0);fill:none"/><text x="471" y="373" style="stroke-width:0;stroke:none;fill:rgba(51,51,51,1.0);font-size:12.8px;font-family:'Roboto Medium',sans-serif">2020-11-12</text><path  d="M 620 351
L 620 356" style="stroke-width:1;stroke:rgba(51,51,51,1.0);fill:none"/><text x="587" y="373" style="stroke-width:0;stroke:none;fill:rgba(51,51,51,1.0);font-size:12.8px;font-family:'Roboto Medium',sans-serif">2021-01-16</text><path  d="M 737 351
L 737 356" style="stroke-width:1;stroke:rgba(51,51,51,1.0);fill:none"/><text x="704" y="373" style="stroke-width:0;stroke:none;fill:rgba(51,51,51,1.0);font-size:12.8px;font-family:'Roboto Medium',sans-serif">2021-03-22</text><path  d="M 853 351
L 853 356" style="stroke-width:1;stroke:rgba(51,51,51,1.0);fill:none"/><text x="820" y="373" style="stroke-width:0;stroke:none;fill:rgba(51,51,51,1.0);font-size:12.8px;font-family:'Roboto Medium',sans-serif">2021-05-26</text><path  d="M 969 351
L 969 356" style="stroke-width:1;stroke:rgba(51,51,51,1.0);fill:none"/><text x="936" y="373" style="stroke-width:0;stroke:none;fill:rgba(51,51,51,1.0);font-size:12.8px;font-family:'Roboto Medium',sans-serif">2021-07-30</text><text x="485" y="395" style="stroke-width:0;stroke:none;fill:rgba(51,51,51,1.0);font-size:12.8px;font-family:'Roboto Medium',sans-serif">Datum</text><path  d="M 970 351
L 970 11" style="stroke-width:1;stroke:rgba(51,51,51,1.0);fill:none"/><path  d="M 970 351
L 975 351" style="stroke-width:1;stroke:rgba(51,51,51,1.0);fill:none"/><text x="980" y="357" style="stroke-width:0;stroke:none;fill:rgba(51,51,51,1.0);font-size:12.8px;font-family:'Roboto Medium',sans-serif">0.00</text><path  d="M 970 308
L 975 308" style="stroke-width:1;stroke:rgba(51,51,51,1.0);fill:none"/><text x="980" y="314" style="stroke-width:0;stroke:none;fill:rgba(51,51,51,1.0);font-size:12.8px;font-family:'Roboto Medium',sans-serif">78.00</text><path  d="M 970 266
L 975 266" style="stroke-width:1;stroke:rgba(51,51,51,1.0);fill:none"/><text x="980" y="272" style="stroke-width:0;stroke:none;fill:rgba(51,51,51,1.0);font-size:12.8px;font-family:'Roboto Medium',sans-serif">155.00</text><path  d="M 970 223
L 975 223" style="stroke-width:1;stroke:rgba(51,51,51,1.0);fill:none"/><text x="980" y="229" style="stroke-width:0;stroke:none;fill:rgba(51,51,51,1.0);font-size:12.8px;font-family:'Roboto Medium',sans-serif">233.00</text><path  d="M 970 181
L 975 181" style="stroke-width:1;stroke:rgba(51,51,51,1.0);fill:none"/><text x="980" y="187" style="stroke-width:0;stroke:none;fill:rgba(51,51,51,1.0);font-size:12.8px;font-family:'Roboto Medium',sans-serif">310.00</text><path  d="M 970 138
L 975 138" style="stroke-width:1;stroke:rgba(51,51,51,1.0);fill:none"/><text x="980" y="144" style="stroke-width:0;stroke:none;fill:rgba(51,51,51,1.0);font-size:12.8px;font-family:'Roboto Medium',sans-serif">388.00</text><path  d="M 970 96
L 975 96" style="stroke-width:1;stroke:rgba(51,51,51,1.0);fill:none"/><text x="980" y="102" style="stroke-width:0;stroke:none;fill:rgba(51,51,51,1.0);font-size:12.8px;font-family:'Roboto Medium',sans-serif">465.00</text><path  d="M 970 53
L 975 53" style="stroke-width:1;stroke:rgba(51,51,51,1.0);fill:none"/><text x="980" y="59" style="stroke-width:0;stroke:none;fill:rgba(51,51,51,1.0);font-size:12.8px;font-family:'Roboto Medium',sans-serif">543.00</text><path  d="M 970 11
L 975 11" style="stroke-width:1;stroke:rgba(51,51,51,1.0);fill:none"/><text x="980" y="17" style="stroke-width:0;stroke:none;fill:rgba(51,51,51,1.0);font-size:12.8px;font-family:'Roboto Medium',sans-serif">620.00</text><path  d="M 38 351
L 40 351
L 42 351
L 44 351
L 46 351
L 47 351
L 49 351
L 51 351
L 53 351
L 55 351
L 56 351
L 58 351
L 60 351
L 62 351
L 64 351
L 65 351
L 67 351
L 69 351
L 71 351
L 73 349
L 74 349
L 76 349
L 78 349
L 80 349
L 81 348
L 83 347
L 85 345
L 87 340
L 89 337
L 90 330
L 92 324
L 94 323
L 96 320
L 98 322
L 99 327
L 101 326
L 103 330
L 105 330
L 107 332
L 108 336
L 110 336
L 112 335
L 114 337
L 115 339
L 117 315
L 119 312
L 121 312
L 123 311
L 124 311
L 126 312
L 128 315
L 130 344
L 132 345
L 133 345
L 135 347
L 137 348
L 139 347
L 141 347
L 142 345
L 144 345
L 146 345
L 148 347
L 150 347
L 151 348
L 153 348
L 155 349
L 157 351
L 158 351
L 160 351
L 162 351
L 164 351
L 166 351
L 167 351
L 169 351
L 171 351
L 173 351
L 175 351
L 176 351
L 178 351
L 180 351
L 182 351
L 184 351
L 185 351
L 187 351
L 189 351
L 191 351
L 192 351
L 194 351
L 196 349
L 198 349
L 200 349
L 201 349
L 203 349
L 205 349
L 207 349
L 209 351
L 210 351
L 212 351
L 214 351
L 216 351
L 218 351
L 219 351
L 221 351
L 223 351
L 225 351
L 226 351
L 228 351
L 230 351
L 232 351
L 234 351
L 235 351
L 237 351
L 239 351
L 241 351
L 243 351
L 244 351
L 246 351
L 248 351
L 250 351
L 252 351
L 253 351
L 255 351
L 257 351
L 259 351
L 261 351
L 262 351
L 264 351
L 266 351
L 268 351
L 269 351
L 271 351
L 273 351
L 275 351
L 277 351
L 278 351
L 280 351
L 282 351
L 284 351
L 286 351
L 287 351
L 289 351
L 291 351
L 293 351
L 295 351
L 296 351
L 298 351
L 300 351
L 302 351
L 303 351
L 305 349
L 307 349
L 309 349
L 311 348
L 312 347
L 314 347
L 316 347
L 318 348
L 320 348
L 321 348
L 323 349
L 325 349
L 327 349
L 329 349
L 330 349
L 332 348
L 334 347
L 336 344
L 337 345
L 339 344
L 341 344
L 343 344
L 345 345
L 346 347
L 348 349
L 350 349
L 352 349
L 354 349
L 355 348
L 357 348
L 359 348
L 361 348
L 363 348
L 364 349
L 366 349
L 368 351
L 370 351
L 372 351
L 373 351
L 375 351
L 377 351
L 379 351
L 380 349
L 382 349
L 384 347
L 386 347
L 388 347
L 389 344
L 391 343
L 393 337
L 395 335
L 397 326
L 398 315
L 400 307
L 402 298
L 404 290
L 406 286
L 407 280
L 409 286
L 411 295
L 413 302
L 414 310
L 416 316
L 418 326
L 420 330
L 422 331
L 423 330
L 425 326
L 427 327
L 429 328
L 431 326
L 432 324
L 434 326
L 436 324
L 438 323
L 440 326
L 441 319
L 443 316
L 445 320
L 447 316
L 448 309
L 450 309
L 452 303
L 454 305
L 456 301
L 457 289
L 459 289
L 461 293
L 463 290
L 465 288
L 466 281
L 468 277
L 470 278
L 472 269
L 474 261
L 475 240
L 477 218
L 479 213
L 481 197
L 483 183
L 484 175
L 486 162
L 488 167
L 490 171
L 491 166
L 493 142
L 495 137
L 497 124
L 499 115
L 500 107
L 502 94
L 504 105
L 506 130
L 508 121
L 509 108
L 511 101
L 513 63
L 515 79
L 517 40
L 518 12
L 520 17
L 522 45
L 524 61
L 525 101
L 527 90
L 529 117
L 531 139
L 533 128
L 534 130
L 536 128
L 538 132
L 540 142
L 542 139
L 543 137
L 545 163
L 547 166
L 549 187
L 551 187
L 552 194
L 554 191
L 556 204
L 558 208
L 560 201
L 561 189
L 563 196
L 565 196
L 567 204
L 568 208
L 570 206
L 572 221
L 574 234
L 576 219
L 577 205
L 579 215
L 581 226
L 583 233
L 585 234
L 586 222
L 588 242
L 590 256
L 592 248
L 594 244
L 595 248
L 597 236
L 599 236
L 601 210
L 602 212
L 604 223
L 606 188
L 608 177
L 610 184
L 611 184
L 613 192
L 615 188
L 617 168
L 619 194
L 620 184
L 622 185
L 624 164
L 626 177
L 628 177
L 629 191
L 631 204
L 633 215
L 635 217
L 636 240
L 638 250
L 640 252
L 642 240
L 644 238
L 645 248
L 647 247
L 649 253
L 651 251
L 653 265
L 654 280
L 656 280
L 658 278
L 660 286
L 662 282
L 663 281
L 665 265
L 667 261
L 669 259
L 671 251
L 672 247
L 674 257
L 676 261
L 678 256
L 679 263
L 681 252
L 683 244
L 685 243
L 687 230
L 688 227
L 690 231
L 692 230
L 694 242
L 696 246
L 697 248
L 699 251
L 701 238
L 703 246
L 705 233
L 706 212
L 708 221
L 710 222
L 712 229
L 713 247
L 715 251
L 717 260
L 719 277
L 721 274
L 722 272
L 724 259
L 726 257
L 728 240
L 730 244
L 731 222
L 733 219
L 735 214
L 737 217
L 739 201
L 740 205
L 742 198
L 744 217
L 746 218
L 747 209
L 749 213
L 751 221
L 753 223
L 755 223
L 756 229
L 758 212
L 760 210
L 762 205
L 764 208
L 765 215
L 767 219
L 769 185
L 771 202
L 773 185
L 774 189
L 776 180
L 778 166
L 780 167
L 782 192
L 783 187
L 785 209
L 787 218
L 789 227
L 790 238
L 792 238
L 794 256
L 796 274
L 798 286
L 799 277
L 801 285
L 803 293
L 805 299
L 807 303
L 808 303
L 810 306
L 812 318
L 814 314
L 816 310
L 817 311
L 819 311
L 821 307
L 823 309
L 824 314
L 826 320
L 828 328
L 830 328
L 832 330
L 833 336
L 835 337
L 837 333
L 839 333
L 841 336
L 842 336
L 844 331
L 846 331
L 848 330
L 850 333
L 851 336
L 853 327
L 855 330
L 857 330
L 858 330
L 860 330
L 862 328
L 864 327
L 866 335
L 867 335
L 869 341
L 871 340
L 873 343
L 875 343
L 876 345
L 878 347
L 880 347
L 882 347
L 884 347
L 885 347
L 887 348
L 889 347
L 891 347
L 893 347
L 894 347
L 896 348
L 898 348
L 900 348
L 901 349
L 903 349
L 905 351
L 907 351
L 909 351
L 910 349
L 912 349
L 914 349
L 916 349
L 918 349
L 919 349
L 921 349
L 923 351
L 925 351
L 927 348
L 928 348
L 930 348
L 932 348
L 934 348
L 935 348
L 937 348
L 939 351
L 941 349
L 943 349
L 944 348
L 946 348
L 948 348
L 950 348
L 952 348
L 953 349
L 955 348
L 957 349
L 959 349
L 961 349
L 962 347
L 964 347
L 966 347
L 968 348
L 969 347" style="stroke-width:1;stroke:rgba(0,116,217,1.0);fill:none"/><path  d="M 38 351
L 40 351
L 42 351
L 44 351
L 46 351
L 47 351
L 49 351
L 51 351
L 53 351
L 55 351
L 56 351
L 58 351
L 60 351
L 62 351
L 64 351
L 65 351
L 67 351
L 69 351
L 71 351
L 73 350
L 74 351
L 76 351
L 78 351
L 80 351
L 81 350
L 83 350
L 85 349
L 87 348
L 89 349
L 90 347
L 92 348
L 94 349
L 96 349
L 98 350
L 99 351
L 101 349
L 103 349
L 105 348
L 107 351
L 108 351
L 110 350
L 112 350
L 114 350
L 115 349
L 117 338
L 119 349
L 121 351
L 123 349
L 124 350
L 126 351
L 128 351
L 130 351
L 132 350
L 133 351
L 135 350
L 137 351
L 139 350
L 141 351
L 142 350
L 144 350
L 146 351
L 148 351
L 150 351
L 151 351
L 153 351
L 155 351
L 157 351
L 158 351
L 160 351
L 162 351
L 164 351
L 166 351
L 167 351
L 169 351
L 171 351
L 173 351
L 175 351
L 176 351
L 178 351
L 180 351
L 182 351
L 184 351
L 185 351
L 187 351
L 189 351
L 191 351
L 192 351
L 194 351
L 196 350
L 198 351
L 200 351
L 201 351
L 203 351
L 205 351
L 207 351
L 209 351
L 210 351
L 212 351
L 214 351
L 216 351
L 218 351
L 219 351
L 221 351
L 223 351
L 225 351
L 226 351
L 228 351
L 230 351
L 232 351
L 234 351
L 235 351
L 237 351
L 239 351
L 241 351
L 243 351
L 244 351
L 246 351
L 248 351
L 250 351
L 252 351
L 253 351
L 255 351
L 257 351
L 259 351
L 261 351
L 262 351
L 264 351
L 266 351
L 268 351
L 269 351
L 271 351
L 273 351
L 275 351
L 277 351
L 278 351
L 280 351
L 282 351
L 284 351
L 286 351
L 287 351
L 289 351
L 291 351
L 293 351
L 295 351
L 296 351
L 298 351
L 300 351
L 302 351
L 303 351
L 305 350
L 307 351
L 309 351
L 311 350
L 312 350
L 314 351
L 316 351
L 318 351
L 320 351
L 321 351
L 323 351
L 325 350
L 327 351
L 329 351
L 330 351
L 332 350
L 334 350
L 336 349
L 337 351
L 339 350
L 341 351
L 343 351
L 345 351
L 346 351
L 348 351
L 350 351
L 352 350
L 354 351
L 355 350
L 357 351
L 359 351
L 361 351
L 363 351
L 364 351
L 366 351
L 368 351
L 370 351
L 372 351
L 373 351
L 375 351
L 377 351
L 379 351
L 380 350
L 382 351
L 384 349
L 386 351
L 388 351
L 389 349
L 391 350
L 393 348
L 395 349
L 397 346
L 398 346
L 400 347
L 402 346
L 404 347
L 406 346
L 407 347
L 409 348
L 411 350
L 413 350
L 414 349
L 416 349
L 418 350
L 420 348
L 422 349
L 423 349
L 425 348
L 427 349
L 429 350
L 431 349
L 432 348
L 434 349
L 436 349
L 438 348
L 440 351
L 441 347
L 443 348
L 445 349
L 447 348
L 448 346
L 450 348
L 452 348
L 454 348
L 456 346
L 457 344
L 459 348
L 461 347
L 463 347
L 465 347
L 466 345
L 468 344
L 470 345
L 472 344
L 474 344
L 475 338
L 477 338
L 479 343
L 481 338
L 483 339
L 484 341
L 486 338
L 488 340
L 490 340
L 491 341
L 493 328
L 495 337
L 497 335
L 499 335
L 500 337
L 502 334
L 504 346
L 506 338
L 508 333
L 509 330
L 511 332
L 513 321
L 515 341
L 517 329
L 518 327
L 520 335
L 522 341
L 524 338
L 525 338
L 527 336
L 529 341
L 531 336
L 533 330
L 534 342
L 536 337
L 538 340
L 540 340
L 542 340
L 543 335
L 545 341
L 547 343
L 549 346
L 551 340
L 552 343
L 554 338
L 556 341
L 558 343
L 560 341
L 561 341
L 563 342
L 565 343
L 567 341
L 568 342
L 570 342
L 572 347
L 574 347
L 576 336
L 577 337
L 579 346
L 581 347
L 583 345
L 585 347
L 586 342
L 588 344
L 590 343
L 592 342
L 594 345
L 595 347
L 597 342
L 599 342
L 601 334
L 602 344
L 604 347
L 606 330
L 608 342
L 610 345
L 611 342
L 613 337
L 615 342
L 617 339
L 619 341
L 620 338
L 622 346
L 624 333
L 626 342
L 628 342
L 629 344
L 631 347
L 633 343
L 635 346
L 636 343
L 638 346
L 640 343
L 642 340
L 644 346
L 645 347
L 647 346
L 649 346
L 651 345
L 653 349
L 654 346
L 656 346
L 658 347
L 660 349
L 662 344
L 663 344
L 665 343
L 667 344
L 669 344
L 671 343
L 672 347
L 674 348
L 676 346
L 678 341
L 679 347
L 681 340
L 683 340
L 685 347
L 687 343
L 688 345
L 690 342
L 692 346
L 694 345
L 696 342
L 697 348
L 699 344
L 701 340
L 703 346
L 705 341
L 706 336
L 708 346
L 710 348
L 712 347
L 713 347
L 715 347
L 717 344
L 719 343
L 721 344
L 722 347
L 724 341
L 726 347
L 728 340
L 730 346
L 731 334
L 733 343
L 735 345
L 737 342
L 739 340
L 740 342
L 742 343
L 744 342
L 746 344
L 747 341
L 749 344
L 751 343
L 753 343
L 755 343
L 756 344
L 758 337
L 760 341
L 762 342
L 764 344
L 765 346
L 767 345
L 769 330
L 771 344
L 773 334
L 774 343
L 776 341
L 778 340
L 780 346
L 782 340
L 783 342
L 785 343
L 787 347
L 789 344
L 790 344
L 792 346
L 794 348
L 796 349
L 798 348
L 799 343
L 801 348
L 803 348
L 805 348
L 807 349
L 808 349
L 810 349
L 812 348
L 814 346
L 816 346
L 817 349
L 819 349
L 821 348
L 823 349
L 824 351
L 826 349
L 828 349
L 830 349
L 832 350
L 833 351
L 835 350
L 837 349
L 839 349
L 841 351
L 842 349
L 844 348
L 846 351
L 848 349
L 850 351
L 851 350
L 853 347
L 855 350
L 857 348
L 858 351
L 860 349
L 862 350
L 864 349
L 866 350
L 867 350
L 869 351
L 871 350
L 873 351
L 875 350
L 876 351
L 878 351
L 880 350
L 882 351
L 884 350
L 885 351
L 887 351
L 889 350
L 891 351
L 893 350
L 894 351
L 896 351
L 898 351
L 900 351
L 901 351
L 903 351
L 905 351
L 907 351
L 909 351
L 910 350
L 912 351
L 914 351
L 916 351
L 918 351
L 919 351
L 921 351
L 923 351
L 925 351
L 927 349
L 928 351
L 930 351
L 932 351
L 934 351
L 935 351
L 937 351
L 939 351
L 941 350
L 943 351
L 944 350
L 946 351
L 948 351
L 950 351
L 952 351
L 953 351
L 955 350
L 957 351
L 959 351
L 961 351
L 962 349
L 964 351
L 966 351
L 968 351
L 969 350" style="stroke-width:1;stroke:rgba(0,217,101,1.0);fill:none"/><path  d="M 38 351
L 40 351
L 42 351
L 44 351
L 46 351
L 47 351
L 49 351
L 51 351
L 53 351
L 55 351
L 56 351
L 58 351
L 60 351
L 62 351
L 64 351
L 65 351
L 67 351
L 69 351
L 71 351
L 73 351
L 74 351
L 76 351
L 78 351
L 80 351
L 81 351
L 83 351
L 85 350
L 87 351
L 89 351
L 90 351
L 92 351
L 94 351
L 96 351
L 98 351
L 99 351
L 101 351
L 103 351
L 105 351
L 107 351
L 108 351
L 110 351
L 112 351
L 114 351
L 115 350
L 117 351
L 119 351
L 121 351
L 123 351
L 124 351
L 126 351
L 128 351
L 130 351
L 132 351
L 133 351
L 135 351
L 137 351
L 139 351
L 141 351
L 142 351
L 144 351
L 146 351
L 148 351
L 150 351
L 151 351
L 153 351
L 155 351
L 157 351
L 158 351
L 160 351
L 162 351
L 164 351
L 166 351
L 167 351
L 169 351
L 171 351
L 173 351
L 175 351
L 176 351
L 178 351
L 180 351
L 182 351
L 184 351
L 185 351
L 187 351
L 189 351
L 191 351
L 192 351
L 194 351
L 196 351
L 198 351
L 200 351
L 201 351
L 203 351
L 205 351
L 207 351
L 209 351
L 210 351
L 212 351
L 214 350
L 216 351
L 218 351
L 219 351
L 221 351
L 223 351
L 225 351
L 226 351
L 228 351
L 230 351
L 232 351
L 234 351
L 235 351
L 237 351
L 239 351
L 241 351
L 243 351
L 244 351
L 246 351
L 248 351
L 250 351
L 252 351
L 253 351
L 255 351
L 257 351
L 259 351
L 261 351
L 262 351
L 264 351
L 266 351
L 268 351
L 269 351
L 271 351
L 273 351
L 275 351
L 277 351
L 278 351
L 280 351
L 282 351
L 284 351
L 286 351
L 287 351
L 289 351
L 291 351
L 293 351
L 295 351
L 296 351
L 298 351
L 300 351
L 302 351
L 303 351
L 305 351
L 307 351
L 309 351
L 311 351
L 312 351
L 314 351
L 316 351
L 318 351
L 320 351
L 321 351
L 323 351
L 325 351
L 327 351
L 329 351
L 330 351
L 332 351
L 334 351
L 336 351
L 337 351
L 339 351
L 341 351
L 343 351
L 345 351
L 346 351
L 348 351
L 350 351
L 352 351
L 354 351
L 355 351
L 357 351
L 359 351
L 361 351
L 363 351
L 364 351
L 366 351
L 368 351
L 370 351
L 372 351
L 373 351
L 375 351
L 377 351
L 379 351
L 380 351
L 382 351
L 384 351
L 386 351
L 388 351
L 389 351
L 391 351
L 393 351
L 395 351
L 397 351
L 398 351
L 400 351
L 402 351
L 404 351
L 406 351
L 407 351
L 409 351
L 411 351
L 413 351
L 414 351
L 416 351
L 418 351
L 420 351
L 422 351
L 423 351
L 425 351
L 427 351
L 429 351
L 431 351
L 432 351
L 434 351
L 436 351
L 438 351
L 440 351
L 441 351
L 443 351
L 445 351
L 447 351
L 448 351
L 450 351
L 452 351
L 454 351
L 456 351
L 457 351
L 459 351
L 461 351
L 463 351
L 465 351
L 466 351
L 468 351
L 470 351
L 472 351
L 474 351
L 475 351
L 477 351
L 479 351
L 481 351
L 483 351
L 484 351
L 486 351
L 488 351
L 490 351
L 491 351
L 493 351
L 495 351
L 497 351
L 499 351
L 500 351
L 502 351
L 504 351
L 506 351
L 508 350
L 509 351
L 511 351
L 513 351
L 515 350
L 517 351
L 518 351
L 520 351
L 522 351
L 524 350
L 525 351
L 527 351
L 529 351
L 531 351
L 533 350
L 534 350
L 536 350
L 538 351
L 540 351
L 542 350
L 543 351
L 545 351
L 547 351
L 549 351
L 551 350
L 552 350
L 554 351
L 556 351
L 558 350
L 560 351
L 561 351
L 563 351
L 565 351
L 567 351
L 568 350
L 570 351
L 572 350
L 574 351
L 576 351
L 577 351
L 579 351
L 581 351
L 583 351
L 585 350
L 586 351
L 588 351
L 590 351
L 592 351
L 594 350
L 595 351
L 597 350
L 599 349
L 601 351
L 602 351
L 604 351
L 606 351
L 608 351
L 610 351
L 611 351
L 613 351
L 615 351
L 617 351
L 619 351
L 620 351
L 622 350
L 624 350
L 626 351
L 628 351
L 629 351
L 631 351
L 633 351
L 635 351
L 636 350
L 638 351
L 640 351
L 642 351
L 644 351
L 645 349
L 647 351
L 649 351
L 651 351
L 653 351
L 654 351
L 656 351
L 658 351
L 660 351
L 662 351
L 663 351
L 665 351
L 667 349
L 669 351
L 671 351
L 672 350
L 674 351
L 676 351
L 678 351
L 679 351
L 681 351
L 683 351
L 685 351
L 687 351
L 688 351
L 690 351
L 692 351
L 694 350
L 696 350
L 697 351
L 699 351
L 701 351
L 703 351
L 705 350
L 706 351
L 708 351
L 710 351
L 712 351
L 713 351
L 715 351
L 717 351
L 719 351
L 721 351
L 722 351
L 724 351
L 726 351
L 728 351
L 730 351
L 731 350
L 733 351
L 735 351
L 737 350
L 739 351
L 740 351
L 742 351
L 744 351
L 746 351
L 747 351
L 749 351
L 751 351
L 753 351
L 755 351
L 756 351
L 758 351
L 760 351
L 762 351
L 764 351
L 765 350
L 767 351
L 769 351
L 771 351
L 773 351
L 774 351
L 776 351
L 778 351
L 780 351
L 782 351
L 783 351
L 785 351
L 787 350
L 789 350
L 790 351
L 792 350
L 794 351
L 796 351
L 798 351
L 799 350
L 801 351
L 803 351
L 805 351
L 807 351
L 808 351
L 810 351
L 812 351
L 814 350
L 816 351
L 817 351
L 819 351
L 821 351
L 823 351
L 824 351
L 826 351
L 828 351
L 830 351
L 832 351
L 833 351
L 835 351
L 837 351
L 839 351
L 841 351
L 842 351
L 844 351
L 846 351
L 848 351
L 850 351
L 851 351
L 853 351
L 855 351
L 857 351
L 858 351
L 860 351
L 862 351
L 864 351
L 866 351
L 867 351
L 869 351
L 871 351
L 873 351
L 875 351
L 876 351
L 878 351
L 880 351
L 882 351
L 884 351
L 885 351
L 887 351
L 889 351
L 891 351
L 893 351
L 894 351
L 896 351
L 898 351
L 900 351
L 901 351
L 903 351
L 905 351
L 907 351
L 909 351
L 910 351
L 912 351
L 914 351
L 916 351
L 918 351
L 919 351
L 921 351
L 923 351
L 925 351
L 927 351
L 928 351
L 930 351
L 932 351
L 934 351
L 935 351
L 937 351
L 939 351
L 941 351
L 943 351
L 944 351
L 946 351
L 948 351
L 950 351
L 952 351
L 953 351
L 955 351
L 957 351
L 959 351
L 961 351
L 962 351
L 964 351
L 966 351
L 968 351
L 969 351" style="stroke-width:1;stroke:rgba(217,0,116,1.0);fill:none"/><text x="418" y="33" style="stroke-width:0;stroke:none;fill:rgba(51,51,51,1.0);font-size:23.0px;font-family:'Roboto Medium',sans-serif">Zwettl 30.07.2021</text><path  d="M 38 11
L 251 11
L 251 91
L 38 91
L 38 11" style="stroke-width:1;stroke:rgba(51,51,51,1.0);fill:rgba(255,255,255,1.0)"/><text x="43" y="26" style="stroke-width:0;stroke:none;fill:rgba(51,51,51,1.0);font-size:10.2px;font-family:'Roboto Medium',sans-serif">Sieben Tage Durschnitt Inzidenz Fälle</text><path  d="M 221 21
L 241 21" style="stroke-width:1;stroke:rgba(0,116,217,1.0);fill:none"/><text x="43" y="56" style="stroke-width:0;stroke:none;fill:rgba(51,51,51,1.0);font-size:10.2px;font-family:'Roboto Medium',sans-serif">Anzahl Faelle</text><path  d="M 110 51
L 241 51" style="stroke-width:1;stroke:rgba(0,217,101,1.0);fill:none"/><text x="43" y="86" style="stroke-width:0;stroke:none;fill:rgba(51,51,51,1.0);font-size:10.2px;font-family:'Roboto Medium',sans-serif">Anzahl Tot</text><path  d="M 98 81
L 241 81" style="stroke-width:1;stroke:rgba(217,0,116,1.0);fill:none"/></svg>