<svg xmlns="http://www.w3.org/2000/svg" xmlns:xlink="http://www.w3.org/1999/xlink" width="1024" height="400">\n<path  d="M 0 0
L 1024 0
L 1024 400
L 0 400
L 0 0" style="stroke-width:0;stroke:rgba(255,255,255,1.0);fill:rgba(255,255,255,1.0)"/><path  d="M 38 11
L 969 11
L 969 351
L 38 351
L 38 11" style="stroke-width:0;stroke:rgba(255,255,255,1.0);fill:rgba(255,255,255,1.0)"/><path  d="M 38 351
L 969 351" style="stroke-width:1;stroke:rgba(51,51,51,1.0);fill:none"/><path  d="M 38 351
L 38 356" style="stroke-width:1;stroke:rgba(51,51,51,1.0);fill:none"/><text x="5" y="373" style="stroke-width:0;stroke:none;fill:rgba(51,51,51,1.0);font-size:12.8px;font-family:'Roboto Medium',sans-serif">2020-02-26</text><path  d="M 155 351
L 155 356" style="stroke-width:1;stroke:rgba(51,51,51,1.0);fill:none"/><text x="122" y="373" style="stroke-width:0;stroke:none;fill:rgba(51,51,51,1.0);font-size:12.8px;font-family:'Roboto Medium',sans-serif">2020-04-15</text><path  d="M 271 351
L 271 356" style="stroke-width:1;stroke:rgba(51,51,51,1.0);fill:none"/><text x="238" y="373" style="stroke-width:0;stroke:none;fill:rgba(51,51,51,1.0);font-size:12.8px;font-family:'Roboto Medium',sans-serif">2020-06-03</text><path  d="M 388 351
L 388 356" style="stroke-width:1;stroke:rgba(51,51,51,1.0);fill:none"/><text x="355" y="373" style="stroke-width:0;stroke:none;fill:rgba(51,51,51,1.0);font-size:12.8px;font-family:'Roboto Medium',sans-serif">2020-07-23</text><path  d="M 504 351
L 504 356" style="stroke-width:1;stroke:rgba(51,51,51,1.0);fill:none"/><text x="471" y="373" style="stroke-width:0;stroke:none;fill:rgba(51,51,51,1.0);font-size:12.8px;font-family:'Roboto Medium',sans-serif">2020-09-10</text><path  d="M 620 351
L 620 356" style="stroke-width:1;stroke:rgba(51,51,51,1.0);fill:none"/><text x="587" y="373" style="stroke-width:0;stroke:none;fill:rgba(51,51,51,1.0);font-size:12.8px;font-family:'Roboto Medium',sans-serif">2020-10-29</text><path  d="M 737 351
L 737 356" style="stroke-width:1;stroke:rgba(51,51,51,1.0);fill:none"/><text x="704" y="373" style="stroke-width:0;stroke:none;fill:rgba(51,51,51,1.0);font-size:12.8px;font-family:'Roboto Medium',sans-serif">2020-12-18</text><path  d="M 853 351
L 853 356" style="stroke-width:1;stroke:rgba(51,51,51,1.0);fill:none"/><text x="820" y="373" style="stroke-width:0;stroke:none;fill:rgba(51,51,51,1.0);font-size:12.8px;font-family:'Roboto Medium',sans-serif">2021-02-05</text><path  d="M 969 351
L 969 356" style="stroke-width:1;stroke:rgba(51,51,51,1.0);fill:none"/><text x="936" y="373" style="stroke-width:0;stroke:none;fill:rgba(51,51,51,1.0);font-size:12.8px;font-family:'Roboto Medium',sans-serif">2021-03-27</text><text x="485" y="395" style="stroke-width:0;stroke:none;fill:rgba(51,51,51,1.0);font-size:12.8px;font-family:'Roboto Medium',sans-serif">Datum</text><path  d="M 970 351
L 970 11" style="stroke-width:1;stroke:rgba(51,51,51,1.0);fill:none"/><path  d="M 970 351
L 975 351" style="stroke-width:1;stroke:rgba(51,51,51,1.0);fill:none"/><text x="980" y="357" style="stroke-width:0;stroke:none;fill:rgba(51,51,51,1.0);font-size:12.8px;font-family:'Roboto Medium',sans-serif">0.00</text><path  d="M 970 308
L 975 308" style="stroke-width:1;stroke:rgba(51,51,51,1.0);fill:none"/><text x="980" y="314" style="stroke-width:0;stroke:none;fill:rgba(51,51,51,1.0);font-size:12.8px;font-family:'Roboto Medium',sans-serif">78.00</text><path  d="M 970 266
L 975 266" style="stroke-width:1;stroke:rgba(51,51,51,1.0);fill:none"/><text x="980" y="272" style="stroke-width:0;stroke:none;fill:rgba(51,51,51,1.0);font-size:12.8px;font-family:'Roboto Medium',sans-serif">155.00</text><path  d="M 970 223
L 975 223" style="stroke-width:1;stroke:rgba(51,51,51,1.0);fill:none"/><text x="980" y="229" style="stroke-width:0;stroke:none;fill:rgba(51,51,51,1.0);font-size:12.8px;font-family:'Roboto Medium',sans-serif">233.00</text><path  d="M 970 181
L 975 181" style="stroke-width:1;stroke:rgba(51,51,51,1.0);fill:none"/><text x="980" y="187" style="stroke-width:0;stroke:none;fill:rgba(51,51,51,1.0);font-size:12.8px;font-family:'Roboto Medium',sans-serif">310.00</text><path  d="M 970 138
L 975 138" style="stroke-width:1;stroke:rgba(51,51,51,1.0);fill:none"/><text x="980" y="144" style="stroke-width:0;stroke:none;fill:rgba(51,51,51,1.0);font-size:12.8px;font-family:'Roboto Medium',sans-serif">388.00</text><path  d="M 970 96
L 975 96" style="stroke-width:1;stroke:rgba(51,51,51,1.0);fill:none"/><text x="980" y="102" style="stroke-width:0;stroke:none;fill:rgba(51,51,51,1.0);font-size:12.8px;font-family:'Roboto Medium',sans-serif">465.00</text><path  d="M 970 53
L 975 53" style="stroke-width:1;stroke:rgba(51,51,51,1.0);fill:none"/><text x="980" y="59" style="stroke-width:0;stroke:none;fill:rgba(51,51,51,1.0);font-size:12.8px;font-family:'Roboto Medium',sans-serif">543.00</text><path  d="M 970 11
L 975 11" style="stroke-width:1;stroke:rgba(51,51,51,1.0);fill:none"/><text x="980" y="17" style="stroke-width:0;stroke:none;fill:rgba(51,51,51,1.0);font-size:12.8px;font-family:'Roboto Medium',sans-serif">620.00</text><path  d="M 38 351
L 41 351
L 43 351
L 46 351
L 48 351
L 50 351
L 53 351
L 55 351
L 57 351
L 60 351
L 62 351
L 64 351
L 67 351
L 69 351
L 71 351
L 74 351
L 76 351
L 79 351
L 81 351
L 83 349
L 86 349
L 88 349
L 90 349
L 93 349
L 95 348
L 97 347
L 100 345
L 102 340
L 104 337
L 107 330
L 109 324
L 112 323
L 114 320
L 116 322
L 119 327
L 121 326
L 123 331
L 126 331
L 128 334
L 130 337
L 133 337
L 135 336
L 137 339
L 140 339
L 142 315
L 145 313
L 147 313
L 149 311
L 152 311
L 154 313
L 156 315
L 159 344
L 161 345
L 163 345
L 166 347
L 168 348
L 170 347
L 173 347
L 175 345
L 178 345
L 180 345
L 182 347
L 185 347
L 187 348
L 189 348
L 192 349
L 194 351
L 196 351
L 199 351
L 201 351
L 203 351
L 206 351
L 208 351
L 211 351
L 213 351
L 215 351
L 218 351
L 220 351
L 222 351
L 225 351
L 227 351
L 229 351
L 232 351
L 234 351
L 236 351
L 239 351
L 241 351
L 244 351
L 246 349
L 248 349
L 251 349
L 253 349
L 255 349
L 258 349
L 260 349
L 262 351
L 265 351
L 267 351
L 269 351
L 272 351
L 274 351
L 277 351
L 279 351
L 281 351
L 284 351
L 286 351
L 288 351
L 291 351
L 293 351
L 295 351
L 298 351
L 300 351
L 302 351
L 305 351
L 307 351
L 310 351
L 312 351
L 314 351
L 317 351
L 319 351
L 321 351
L 324 351
L 326 351
L 328 351
L 331 351
L 333 351
L 335 351
L 338 351
L 340 351
L 343 351
L 345 351
L 347 351
L 350 351
L 352 351
L 354 351
L 357 351
L 359 351
L 361 351
L 364 351
L 366 351
L 368 351
L 371 351
L 373 351
L 376 351
L 378 351
L 380 351
L 383 351
L 385 351
L 387 351
L 390 349
L 392 349
L 394 349
L 397 348
L 399 347
L 401 347
L 404 347
L 406 348
L 409 348
L 411 348
L 413 349
L 416 349
L 418 349
L 420 349
L 423 349
L 425 348
L 427 347
L 430 344
L 432 345
L 434 344
L 437 344
L 439 344
L 442 345
L 444 347
L 446 349
L 449 349
L 451 349
L 453 349
L 456 348
L 458 348
L 460 348
L 463 348
L 465 348
L 467 349
L 470 349
L 472 351
L 475 351
L 477 351
L 479 351
L 482 351
L 484 351
L 486 351
L 489 349
L 491 349
L 493 347
L 496 347
L 498 347
L 500 344
L 503 343
L 505 337
L 508 335
L 510 326
L 512 315
L 515 307
L 517 298
L 519 290
L 522 287
L 524 280
L 526 287
L 529 296
L 531 302
L 533 310
L 536 317
L 538 326
L 541 330
L 543 331
L 545 330
L 548 326
L 550 327
L 552 328
L 555 324
L 557 323
L 559 324
L 562 323
L 564 322
L 566 324
L 569 318
L 571 317
L 574 320
L 576 317
L 578 309
L 581 309
L 583 303
L 585 305
L 588 301
L 590 289
L 592 289
L 595 293
L 597 290
L 599 288
L 602 281
L 604 277
L 607 279
L 609 270
L 611 262
L 614 241
L 616 219
L 618 213
L 621 199
L 623 185
L 625 177
L 628 164
L 630 169
L 632 173
L 635 168
L 637 144
L 640 140
L 642 127
L 644 119
L 647 111
L 649 98
L 651 110
L 654 134
L 656 125
L 658 111
L 661 104
L 663 66
L 665 81
L 668 42
L 670 15
L 673 17
L 675 45
L 677 62
L 680 101
L 682 92
L 684 119
L 687 143
L 689 132
L 691 135
L 694 132
L 696 139
L 698 147
L 701 144
L 703 140
L 706 166
L 708 170
L 710 190
L 713 189
L 715 196
L 717 194
L 720 207
L 722 212
L 724 206
L 727 194
L 729 200
L 731 200
L 734 207
L 736 211
L 739 207
L 741 220
L 743 233
L 746 219
L 748 204
L 750 215
L 753 225
L 755 233
L 757 233
L 760 221
L 762 241
L 764 255
L 767 247
L 769 243
L 772 247
L 774 237
L 776 237
L 779 211
L 781 212
L 783 224
L 786 189
L 788 178
L 790 185
L 793 185
L 795 192
L 797 189
L 800 169
L 802 195
L 805 183
L 807 185
L 809 164
L 812 177
L 814 177
L 816 190
L 819 203
L 821 216
L 823 217
L 826 241
L 828 250
L 830 253
L 833 241
L 835 239
L 838 250
L 840 249
L 842 255
L 845 251
L 847 266
L 849 280
L 852 279
L 854 277
L 856 285
L 859 281
L 861 281
L 863 266
L 866 262
L 868 259
L 871 251
L 873 247
L 875 258
L 878 262
L 880 256
L 882 263
L 885 253
L 887 245
L 889 243
L 892 230
L 894 228
L 896 232
L 899 230
L 901 242
L 904 246
L 906 249
L 908 251
L 911 238
L 913 247
L 915 233
L 918 212
L 920 221
L 922 223
L 925 229
L 927 247
L 929 250
L 932 260
L 934 277
L 937 275
L 939 272
L 941 259
L 944 258
L 946 241
L 948 245
L 951 223
L 953 220
L 955 216
L 958 216
L 960 200
L 962 204
L 965 198
L 967 216
L 969 219" style="stroke-width:1;stroke:rgba(0,116,217,1.0);fill:none"/><path  d="M 38 351
L 41 351
L 43 351
L 46 351
L 48 351
L 50 351
L 53 351
L 55 351
L 57 351
L 60 351
L 62 351
L 64 351
L 67 351
L 69 351
L 71 351
L 74 351
L 76 351
L 79 351
L 81 351
L 83 350
L 86 351
L 88 351
L 90 351
L 93 351
L 95 350
L 97 350
L 100 349
L 102 348
L 104 349
L 107 347
L 109 348
L 112 349
L 114 349
L 116 350
L 119 351
L 121 349
L 123 349
L 126 348
L 128 351
L 130 351
L 133 350
L 135 350
L 137 350
L 140 349
L 142 338
L 145 349
L 147 351
L 149 349
L 152 350
L 154 351
L 156 351
L 159 351
L 161 350
L 163 351
L 166 350
L 168 351
L 170 350
L 173 351
L 175 350
L 178 350
L 180 351
L 182 351
L 185 351
L 187 351
L 189 351
L 192 351
L 194 351
L 196 351
L 199 351
L 201 351
L 203 351
L 206 351
L 208 351
L 211 351
L 213 351
L 215 351
L 218 351
L 220 351
L 222 351
L 225 351
L 227 351
L 229 351
L 232 351
L 234 351
L 236 351
L 239 351
L 241 351
L 244 351
L 246 350
L 248 351
L 251 351
L 253 351
L 255 351
L 258 351
L 260 351
L 262 351
L 265 351
L 267 351
L 269 351
L 272 351
L 274 351
L 277 351
L 279 351
L 281 351
L 284 351
L 286 351
L 288 351
L 291 351
L 293 351
L 295 351
L 298 351
L 300 351
L 302 351
L 305 351
L 307 351
L 310 351
L 312 351
L 314 351
L 317 351
L 319 351
L 321 351
L 324 351
L 326 351
L 328 351
L 331 351
L 333 351
L 335 351
L 338 351
L 340 351
L 343 351
L 345 351
L 347 351
L 350 351
L 352 351
L 354 351
L 357 351
L 359 351
L 361 351
L 364 351
L 366 351
L 368 351
L 371 351
L 373 351
L 376 351
L 378 351
L 380 351
L 383 351
L 385 351
L 387 351
L 390 350
L 392 351
L 394 351
L 397 350
L 399 350
L 401 351
L 404 351
L 406 351
L 409 351
L 411 351
L 413 351
L 416 350
L 418 351
L 420 351
L 423 351
L 425 350
L 427 350
L 430 349
L 432 351
L 434 350
L 437 351
L 439 351
L 442 351
L 444 351
L 446 351
L 449 351
L 451 350
L 453 351
L 456 350
L 458 351
L 460 351
L 463 351
L 465 351
L 467 351
L 470 351
L 472 351
L 475 351
L 477 351
L 479 351
L 482 351
L 484 351
L 486 351
L 489 350
L 491 351
L 493 349
L 496 351
L 498 351
L 500 349
L 503 350
L 505 348
L 508 349
L 510 346
L 512 346
L 515 347
L 517 346
L 519 347
L 522 346
L 524 347
L 526 348
L 529 350
L 531 350
L 533 349
L 536 349
L 538 350
L 541 348
L 543 349
L 545 349
L 548 348
L 550 349
L 552 350
L 555 348
L 557 348
L 559 349
L 562 349
L 564 348
L 566 351
L 569 347
L 571 348
L 574 349
L 576 348
L 578 346
L 581 348
L 583 348
L 585 348
L 588 346
L 590 344
L 592 348
L 595 347
L 597 347
L 599 347
L 602 345
L 604 344
L 607 345
L 609 344
L 611 344
L 614 338
L 616 338
L 618 343
L 621 338
L 623 339
L 625 341
L 628 338
L 630 340
L 632 340
L 635 341
L 637 329
L 640 337
L 642 335
L 644 335
L 647 337
L 649 334
L 651 346
L 654 338
L 656 334
L 658 330
L 661 332
L 663 321
L 665 341
L 668 329
L 670 327
L 673 335
L 675 341
L 677 339
L 680 337
L 682 337
L 684 341
L 687 337
L 689 330
L 691 342
L 694 338
L 696 340
L 698 340
L 701 340
L 703 335
L 706 341
L 708 344
L 710 346
L 713 340
L 715 343
L 717 338
L 720 341
L 722 343
L 724 341
L 727 341
L 729 342
L 731 343
L 734 341
L 736 342
L 739 342
L 741 347
L 743 347
L 746 336
L 748 337
L 750 346
L 753 347
L 755 345
L 757 347
L 760 342
L 762 344
L 764 343
L 767 342
L 769 345
L 772 347
L 774 342
L 776 342
L 779 334
L 781 344
L 783 347
L 786 330
L 788 342
L 790 345
L 793 342
L 795 337
L 797 342
L 800 339
L 802 341
L 805 337
L 807 346
L 809 333
L 812 342
L 814 342
L 816 344
L 819 347
L 821 343
L 823 346
L 826 343
L 828 346
L 830 343
L 833 340
L 835 346
L 838 347
L 840 346
L 842 346
L 845 344
L 847 349
L 849 346
L 852 346
L 854 347
L 856 349
L 859 344
L 861 344
L 863 343
L 866 344
L 868 344
L 871 343
L 873 347
L 875 348
L 878 346
L 880 341
L 882 347
L 885 340
L 887 340
L 889 347
L 892 343
L 894 345
L 896 342
L 899 346
L 901 345
L 904 342
L 906 348
L 908 344
L 911 340
L 913 346
L 915 340
L 918 336
L 920 346
L 922 348
L 925 347
L 927 347
L 929 347
L 932 344
L 934 343
L 937 344
L 939 347
L 941 341
L 944 347
L 946 340
L 948 346
L 951 334
L 953 343
L 955 346
L 958 341
L 960 340
L 962 342
L 965 343
L 967 342
L 969 344" style="stroke-width:1;stroke:rgba(0,217,101,1.0);fill:none"/><path  d="M 38 351
L 41 351
L 43 351
L 46 351
L 48 351
L 50 351
L 53 351
L 55 351
L 57 351
L 60 351
L 62 351
L 64 351
L 67 351
L 69 351
L 71 351
L 74 351
L 76 351
L 79 351
L 81 351
L 83 351
L 86 351
L 88 351
L 90 351
L 93 351
L 95 351
L 97 351
L 100 350
L 102 351
L 104 351
L 107 351
L 109 351
L 112 351
L 114 351
L 116 351
L 119 351
L 121 351
L 123 351
L 126 351
L 128 351
L 130 351
L 133 351
L 135 351
L 137 351
L 140 350
L 142 351
L 145 351
L 147 351
L 149 351
L 152 351
L 154 351
L 156 351
L 159 351
L 161 351
L 163 351
L 166 351
L 168 351
L 170 351
L 173 351
L 175 351
L 178 351
L 180 351
L 182 351
L 185 351
L 187 351
L 189 351
L 192 351
L 194 351
L 196 351
L 199 351
L 201 351
L 203 351
L 206 351
L 208 351
L 211 351
L 213 351
L 215 351
L 218 351
L 220 351
L 222 351
L 225 351
L 227 351
L 229 351
L 232 351
L 234 351
L 236 351
L 239 351
L 241 351
L 244 351
L 246 351
L 248 351
L 251 351
L 253 351
L 255 351
L 258 351
L 260 351
L 262 351
L 265 351
L 267 351
L 269 350
L 272 351
L 274 351
L 277 351
L 279 351
L 281 351
L 284 351
L 286 351
L 288 351
L 291 351
L 293 351
L 295 351
L 298 351
L 300 351
L 302 351
L 305 351
L 307 351
L 310 351
L 312 351
L 314 351
L 317 351
L 319 351
L 321 351
L 324 351
L 326 351
L 328 351
L 331 351
L 333 351
L 335 351
L 338 351
L 340 351
L 343 351
L 345 351
L 347 351
L 350 351
L 352 351
L 354 351
L 357 351
L 359 351
L 361 351
L 364 351
L 366 351
L 368 351
L 371 351
L 373 351
L 376 351
L 378 351
L 380 351
L 383 351
L 385 351
L 387 351
L 390 351
L 392 351
L 394 351
L 397 351
L 399 351
L 401 351
L 404 351
L 406 351
L 409 351
L 411 351
L 413 351
L 416 351
L 418 351
L 420 351
L 423 351
L 425 351
L 427 351
L 430 351
L 432 351
L 434 351
L 437 351
L 439 351
L 442 351
L 444 351
L 446 351
L 449 351
L 451 351
L 453 351
L 456 351
L 458 351
L 460 351
L 463 351
L 465 351
L 467 351
L 470 351
L 472 351
L 475 351
L 477 351
L 479 351
L 482 351
L 484 351
L 486 351
L 489 351
L 491 351
L 493 351
L 496 351
L 498 351
L 500 351
L 503 351
L 505 351
L 508 351
L 510 351
L 512 351
L 515 351
L 517 351
L 519 351
L 522 351
L 524 351
L 526 351
L 529 351
L 531 351
L 533 351
L 536 351
L 538 351
L 541 351
L 543 351
L 545 351
L 548 351
L 550 351
L 552 351
L 555 351
L 557 351
L 559 351
L 562 351
L 564 351
L 566 351
L 569 351
L 571 351
L 574 351
L 576 351
L 578 351
L 581 351
L 583 351
L 585 351
L 588 351
L 590 351
L 592 351
L 595 351
L 597 351
L 599 351
L 602 351
L 604 351
L 607 351
L 609 351
L 611 351
L 614 351
L 616 351
L 618 351
L 621 351
L 623 351
L 625 351
L 628 351
L 630 351
L 632 351
L 635 351
L 637 351
L 640 351
L 642 351
L 644 351
L 647 351
L 649 351
L 651 351
L 654 351
L 656 350
L 658 351
L 661 351
L 663 351
L 665 350
L 668 351
L 670 351
L 673 351
L 675 351
L 677 350
L 680 351
L 682 351
L 684 351
L 687 351
L 689 350
L 691 351
L 694 350
L 696 351
L 698 351
L 701 350
L 703 351
L 706 351
L 708 351
L 710 351
L 713 350
L 715 350
L 717 351
L 720 351
L 722 350
L 724 351
L 727 351
L 729 351
L 731 351
L 734 351
L 736 350
L 739 351
L 741 350
L 743 351
L 746 351
L 748 351
L 750 351
L 753 351
L 755 351
L 757 350
L 760 351
L 762 351
L 764 351
L 767 351
L 769 350
L 772 351
L 774 350
L 776 349
L 779 351
L 781 351
L 783 351
L 786 351
L 788 351
L 790 351
L 793 351
L 795 351
L 797 351
L 800 351
L 802 351
L 805 351
L 807 350
L 809 350
L 812 351
L 814 351
L 816 351
L 819 351
L 821 351
L 823 351
L 826 350
L 828 351
L 830 351
L 833 351
L 835 351
L 838 349
L 840 351
L 842 351
L 845 351
L 847 351
L 849 351
L 852 351
L 854 351
L 856 351
L 859 351
L 861 351
L 863 351
L 866 349
L 868 351
L 871 351
L 873 350
L 875 351
L 878 351
L 880 351
L 882 351
L 885 351
L 887 351
L 889 351
L 892 351
L 894 351
L 896 351
L 899 351
L 901 350
L 904 350
L 906 351
L 908 351
L 911 351
L 913 351
L 915 350
L 918 351
L 920 351
L 922 351
L 925 351
L 927 351
L 929 351
L 932 351
L 934 351
L 937 351
L 939 351
L 941 351
L 944 351
L 946 351
L 948 351
L 951 350
L 953 351
L 955 351
L 958 351
L 960 351
L 962 351
L 965 351
L 967 351
L 969 351" style="stroke-width:1;stroke:rgba(217,0,116,1.0);fill:none"/><text x="418" y="33" style="stroke-width:0;stroke:none;fill:rgba(51,51,51,1.0);font-size:23.0px;font-family:'Roboto Medium',sans-serif">Zwettl 27.03.2021</text><path  d="M 38 11
L 251 11
L 251 91
L 38 91
L 38 11" style="stroke-width:1;stroke:rgba(51,51,51,1.0);fill:rgba(255,255,255,1.0)"/><text x="43" y="26" style="stroke-width:0;stroke:none;fill:rgba(51,51,51,1.0);font-size:10.2px;font-family:'Roboto Medium',sans-serif">Sieben Tage Durschnitt Inzidenz Fälle</text><path  d="M 221 21
L 241 21" style="stroke-width:1;stroke:rgba(0,116,217,1.0);fill:none"/><text x="43" y="56" style="stroke-width:0;stroke:none;fill:rgba(51,51,51,1.0);font-size:10.2px;font-family:'Roboto Medium',sans-serif">Anzahl Faelle</text><path  d="M 110 51
L 241 51" style="stroke-width:1;stroke:rgba(0,217,101,1.0);fill:none"/><text x="43" y="86" style="stroke-width:0;stroke:none;fill:rgba(51,51,51,1.0);font-size:10.2px;font-family:'Roboto Medium',sans-serif">Anzahl Tot</text><path  d="M 98 81
L 241 81" style="stroke-width:1;stroke:rgba(217,0,116,1.0);fill:none"/></svg>